0, 0, Header, 1, 2, 480
1, 0, Start_track
1, 0, Title_t, "Close Encounters"
1, 0, Text_t, "Sample for MIDIcsv Distribution"
1, 0, Copyright_t, "This file is in the public domain"
1, 0, Time_signature, 4, 2, 24, 8
1, 0, Tempo, 1200000
1, 0, End_track
2, 0, Start_track
2, 0, Instrument_name_t, "Solo Lute or Keyboard"
2, 0, Program_c, 0, 19
2, 480, Note_on_c, 0, 79, 0
2, 480, Note_on_c, 0, 81, 100
2, 960, Note_on_c, 0, 81, 0
2, 960, Note_on_c, 0, 79, 100
2, 1020, Note_on_c, 0, 79, 0
2, 1020, Note_on_c, 0, 81, 100
2, 1080, Note_on_c, 0, 81, 0
2, 1080, Note_on_c, 0, 83, 100
2, 1320, Note_on_c, 0, 83, 0
2, 1320, Note_on_c, 0, 81, 100
2, 1440, Note_on_c, 0, 81, 0
2, 1440, Note_on_c, 0, 79, 100
2, 1680, Note_on_c, 0, 79, 0
2, 1680, Note_on_c, 0, 78, 100
2, 1800, Note_on_c, 0, 78, 0
2, 1800, Note_on_c, 0, 76, 100
2, 1920, Note_on_c, 0, 76, 0
2, 1920, Note_on_c, 0, 74, 100
2, 2160, Note_on_c, 0, 74, 0
2, 2160, Note_on_c, 0, 67, 100
2, 2880, Note_on_c, 0, 67, 0
2, 2880, Note_on_c, 0, 66, 100
2, 2940, Note_on_c, 0, 66, 0
2, 2940, Note_on_c, 0, 67, 100
2, 3000, Note_on_c, 0, 67, 0
2, 3000, Note_on_c, 0, 69, 100
2, 3360, Note_on_c, 0, 69, 0
2, 3360, Note_on_c, 0, 67, 100
2, 3420, Note_on_c, 0, 67, 0
2, 3420, Note_on_c, 0, 66, 100
2, 3480, Note_on_c, 0, 66, 0
2, 3480, Note_on_c, 0, 67, 100
2, 3540, Note_on_c, 0, 67, 0
2, 3540, Note_on_c, 0, 69, 100
2, 3600, Note_on_c, 0, 69, 0
2, 3600, Note_on_c, 0, 67, 100
2, 3660, Note_on_c, 0, 67, 0
2, 3660, Note_on_c, 0, 69, 100
2, 3720, Note_on_c, 0, 69, 0
2, 3720, Note_on_c, 0, 67, 100
2, 3780, Note_on_c, 0, 67, 0
2, 3780, Note_on_c, 0, 69, 100
2, 3840, Note_on_c, 0, 69, 0
2, 3840, Note_on_c, 0, 67, 100
2, 3880, Note_on_c, 0, 67, 0
2, 3880, Note_on_c, 0, 69, 100
2, 3920, Note_on_c, 0, 69, 0
2, 3920, Note_on_c, 0, 67, 100
2, 3960, Note_on_c, 0, 67, 0
2, 3960, Note_on_c, 0, 69, 100
2, 4000, Note_on_c, 0, 69, 0
2, 4000, Note_on_c, 0, 67, 100
2, 4041, Note_on_c, 0, 67, 0
2, 4041, Note_on_c, 0, 66, 100
2, 4080, Note_on_c, 0, 66, 0
2, 4080, Note_on_c, 0, 67, 100
2, 4200, Note_on_c, 0, 67, 0
2, 4200, Note_on_c, 0, 69, 100
2, 4320, Note_on_c, 0, 69, 0
2, 4320, Note_on_c, 0, 67, 100
2, 4380, Note_on_c, 0, 67, 0
2, 4380, Note_on_c, 0, 66, 100
2, 4440, Note_on_c, 0, 66, 0
2, 4440, Note_on_c, 0, 67, 100
2, 4560, Note_on_c, 0, 67, 0
2, 4560, Note_on_c, 0, 66, 100
2, 4620, Note_on_c, 0, 66, 0
2, 4620, Note_on_c, 0, 64, 100
2, 4800, Note_on_c, 0, 64, 0
2, 4800, Note_on_c, 0, 62, 100
2, 5040, Note_on_c, 0, 62, 0
2, 5040, Note_on_c, 0, 74, 100
2, 6240, Note_on_c, 0, 74, 0
2, 6240, Note_on_c, 0, 76, 100
2, 6720, Note_on_c, 0, 76, 0
2, 6720, Note_on_c, 0, 74, 100
2, 6780, Note_on_c, 0, 74, 0
2, 6780, Note_on_c, 0, 76, 100
2, 6840, Note_on_c, 0, 76, 0
2, 6840, Note_on_c, 0, 77, 100
2, 7080, Note_on_c, 0, 77, 0
2, 7080, Note_on_c, 0, 76, 100
2, 7200, Note_on_c, 0, 76, 0
2, 7200, Note_on_c, 0, 74, 100
2, 7440, Note_on_c, 0, 74, 0
2, 7440, Note_on_c, 0, 72, 100
2, 7560, Note_on_c, 0, 72, 0
2, 7560, Note_on_c, 0, 71, 100
2, 7680, Note_on_c, 0, 71, 0
2, 7680, Note_on_c, 0, 69, 100
2, 7920, Note_on_c, 0, 69, 0
2, 7920, Note_on_c, 0, 79, 100
2, 8400, Note_on_c, 0, 79, 0
2, 8400, Note_on_c, 0, 78, 100
2, 8460, Note_on_c, 0, 78, 0
2, 8460, Note_on_c, 0, 76, 100
2, 8520, Note_on_c, 0, 76, 0
2, 8520, Note_on_c, 0, 78, 100
2, 8580, Note_on_c, 0, 78, 0
2, 8580, Note_on_c, 0, 79, 100
2, 8640, Note_on_c, 0, 79, 0
2, 8640, Note_on_c, 0, 78, 100
2, 8700, Note_on_c, 0, 78, 0
2, 8700, Note_on_c, 0, 81, 100
2, 8880, Note_on_c, 0, 81, 0
2, 8880, Note_on_c, 0, 79, 100
2, 8940, Note_on_c, 0, 79, 0
2, 8940, Note_on_c, 0, 78, 100
2, 9120, Note_on_c, 0, 78, 0
2, 9120, Note_on_c, 0, 76, 100
2, 9180, Note_on_c, 0, 76, 0
2, 9180, Note_on_c, 0, 74, 100
2, 9360, Note_on_c, 0, 74, 0
2, 9360, Note_on_c, 0, 72, 100
2, 9600, Note_on_c, 0, 72, 0
2, 9600, Note_on_c, 0, 81, 100
2, 9720, Note_on_c, 0, 81, 0
2, 9720, Note_on_c, 0, 72, 100
2, 9960, Note_on_c, 0, 72, 0
2, 9960, Note_on_c, 0, 71, 100
2, 10080, Note_on_c, 0, 71, 0
2, 10080, Note_on_c, 0, 67, 100
2, 10140, Note_on_c, 0, 67, 0
2, 10140, Note_on_c, 0, 66, 100
2, 10560, Note_on_c, 0, 66, 0
2, 10560, Note_on_c, 0, 67, 100
2, 10800, Note_on_c, 0, 67, 0
2, 10800, Note_on_c, 0, 66, 100
2, 10860, Note_on_c, 0, 66, 0
2, 10860, Note_on_c, 0, 67, 100
2, 10920, Note_on_c, 0, 67, 0
2, 10920, Note_on_c, 0, 71, 100
2, 12000, Note_on_c, 0, 71, 0
2, 12000, Note_on_c, 0, 73, 100
2, 12480, Note_on_c, 0, 73, 0
2, 12480, Note_on_c, 0, 71, 100
2, 12540, Note_on_c, 0, 71, 0
2, 12540, Note_on_c, 0, 73, 100
2, 12600, Note_on_c, 0, 73, 0
2, 12600, Note_on_c, 0, 74, 100
2, 12960, Note_on_c, 0, 74, 0
2, 12960, Note_on_c, 0, 73, 100
2, 13080, Note_on_c, 0, 73, 0
2, 13080, Note_on_c, 0, 71, 100
2, 13200, Note_on_c, 0, 71, 0
2, 13200, Note_on_c, 0, 69, 100
2, 13320, Note_on_c, 0, 69, 0
2, 13320, Note_on_c, 0, 67, 100
2, 14310, Note_on_c, 0, 67, 0
2, 14310, Note_on_c, 0, 71, 100
2, 14340, Note_on_c, 0, 71, 0
2, 14340, Note_on_c, 0, 76, 100
2, 14370, Note_on_c, 0, 76, 0
2, 14370, Note_on_c, 0, 79, 100
2, 14400, Note_on_c, 0, 79, 0
2, 14400, Note_on_c, 0, 81, 100
2, 14880, Note_on_c, 0, 81, 0
2, 14880, Note_on_c, 0, 79, 100
2, 14940, Note_on_c, 0, 79, 0
2, 14940, Note_on_c, 0, 78, 100
2, 15000, Note_on_c, 0, 78, 0
2, 15000, Note_on_c, 0, 79, 100
2, 15060, Note_on_c, 0, 79, 0
2, 15060, Note_on_c, 0, 81, 100
2, 15120, Note_on_c, 0, 81, 0
2, 15120, Note_on_c, 0, 79, 100
2, 15180, Note_on_c, 0, 79, 0
2, 15180, Note_on_c, 0, 81, 100
2, 15240, Note_on_c, 0, 81, 0
2, 15240, Note_on_c, 0, 79, 100
2, 15300, Note_on_c, 0, 79, 0
2, 15300, Note_on_c, 0, 81, 100
2, 15360, Note_on_c, 0, 81, 0
2, 15360, Note_on_c, 0, 79, 100
2, 15400, Note_on_c, 0, 79, 0
2, 15400, Note_on_c, 0, 81, 100
2, 15440, Note_on_c, 0, 81, 0
2, 15440, Note_on_c, 0, 79, 100
2, 15480, Note_on_c, 0, 79, 0
2, 15480, Note_on_c, 0, 81, 100
2, 15520, Note_on_c, 0, 81, 0
2, 15520, Note_on_c, 0, 79, 100
2, 15560, Note_on_c, 0, 79, 0
2, 15560, Note_on_c, 0, 78, 100
2, 15600, Note_on_c, 0, 78, 0
2, 15600, Note_on_c, 0, 79, 100
2, 15840, Note_on_c, 0, 79, 0
2, 15840, Note_on_c, 0, 78, 100
2, 16080, Note_on_c, 0, 78, 0
2, 16080, Note_on_c, 0, 76, 100
2, 16200, Note_on_c, 0, 76, 0
2, 16200, Note_on_c, 0, 74, 100
2, 16320, Note_on_c, 0, 74, 0
2, 16320, Note_on_c, 0, 73, 100
2, 16380, Note_on_c, 0, 73, 0
2, 16380, Note_on_c, 0, 71, 100
2, 16440, Note_on_c, 0, 71, 0
2, 16440, Note_on_c, 0, 73, 100
2, 16500, Note_on_c, 0, 73, 0
2, 16500, Note_on_c, 0, 74, 100
2, 16560, Note_on_c, 0, 74, 0
2, 16560, Note_on_c, 0, 73, 100
2, 16620, Note_on_c, 0, 73, 0
2, 16620, Note_on_c, 0, 74, 100
2, 16680, Note_on_c, 0, 74, 0
2, 16680, Note_on_c, 0, 73, 100
2, 16720, Note_on_c, 0, 73, 0
2, 16720, Note_on_c, 0, 74, 100
2, 16760, Note_on_c, 0, 74, 0
2, 16760, Note_on_c, 0, 73, 100
2, 16800, Note_on_c, 0, 73, 0
2, 16800, Note_on_c, 0, 76, 100
2, 17040, Note_on_c, 0, 76, 0
2, 17040, Note_on_c, 0, 81, 100
2, 17280, Note_on_c, 0, 81, 0
2, 17280, Note_on_c, 0, 79, 100
2, 17400, Note_on_c, 0, 79, 0
2, 17400, Note_on_c, 0, 78, 100
2, 17520, Note_on_c, 0, 78, 0
2, 17520, Note_on_c, 0, 76, 100
2, 17640, Note_on_c, 0, 76, 0
2, 17640, Note_on_c, 0, 74, 100
2, 17760, Note_on_c, 0, 74, 0
2, 17760, Note_on_c, 0, 69, 100
2, 18000, Note_on_c, 0, 69, 0
2, 18000, Note_on_c, 0, 71, 100
2, 18540, Note_on_c, 0, 71, 0
2, 18540, Note_on_c, 0, 72, 100
2, 18600, Note_on_c, 0, 72, 0
2, 18600, Note_on_c, 0, 71, 100
2, 18720, Note_on_c, 0, 71, 0
2, 18720, Note_on_c, 0, 69, 100
2, 18840, Note_on_c, 0, 69, 0
2, 18840, Note_on_c, 0, 67, 100
2, 18960, Note_on_c, 0, 67, 0
2, 18960, Note_on_c, 0, 66, 100
2, 19080, Note_on_c, 0, 66, 0
2, 19080, Note_on_c, 0, 64, 100
2, 19200, Note_on_c, 0, 64, 0
2, 19200, Note_on_c, 0, 74, 100
2, 19440, Note_on_c, 0, 74, 0
2, 19440, Note_on_c, 0, 73, 100
2, 19560, Note_on_c, 0, 73, 0
2, 19560, Note_on_c, 0, 74, 100
2, 19980, Note_on_c, 0, 74, 0
2, 19980, Note_on_c, 0, 76, 100
2, 20040, Note_on_c, 0, 76, 0
2, 20040, Note_on_c, 0, 74, 100
2, 20160, Note_on_c, 0, 74, 0
2, 20160, Note_on_c, 0, 73, 100
2, 20280, Note_on_c, 0, 73, 0
2, 20280, Note_on_c, 0, 71, 100
2, 20400, Note_on_c, 0, 71, 0
2, 20400, Note_on_c, 0, 69, 100
2, 20520, Note_on_c, 0, 69, 0
2, 20520, Note_on_c, 0, 79, 100
2, 20640, Note_on_c, 0, 79, 0
2, 20640, Note_on_c, 0, 71, 100
2, 20880, Note_on_c, 0, 71, 0
2, 20880, Note_on_c, 0, 73, 100
2, 21600, Note_on_c, 0, 73, 0
2, 21600, Note_on_c, 0, 74, 100
2, 21720, Note_on_c, 0, 74, 0
2, 21720, Note_on_c, 0, 76, 100
2, 21900, Note_on_c, 0, 76, 0
2, 21900, Note_on_c, 0, 74, 100
2, 21960, Note_on_c, 0, 74, 0
2, 21960, Note_on_c, 0, 73, 100
2, 22080, Note_on_c, 0, 73, 0
2, 22080, Note_on_c, 0, 74, 100
2, 22320, Note_on_c, 0, 74, 0
2, 22320, Note_on_c, 0, 79, 100
2, 23520, Note_on_c, 0, 79, 0
2, 23520, Note_on_c, 0, 81, 100
2, 24000, Note_on_c, 0, 81, 0
2, 24000, Note_on_c, 0, 79, 100
2, 24060, Note_on_c, 0, 79, 0
2, 24060, Note_on_c, 0, 81, 100
2, 24120, Note_on_c, 0, 81, 0
2, 24120, Note_on_c, 0, 83, 100
2, 24360, Note_on_c, 0, 83, 0
2, 24360, Note_on_c, 0, 81, 100
2, 24480, Note_on_c, 0, 81, 0
2, 24480, Note_on_c, 0, 79, 100
2, 24720, Note_on_c, 0, 79, 0
2, 24720, Note_on_c, 0, 78, 100
2, 24840, Note_on_c, 0, 78, 0
2, 24840, Note_on_c, 0, 76, 100
2, 24960, Note_on_c, 0, 76, 0
2, 24960, Note_on_c, 0, 74, 100
2, 25200, Note_on_c, 0, 74, 0
2, 25200, Note_on_c, 0, 67, 100
2, 25920, Note_on_c, 0, 67, 0
2, 25920, Note_on_c, 0, 66, 100
2, 25980, Note_on_c, 0, 66, 0
2, 25980, Note_on_c, 0, 67, 100
2, 26040, Note_on_c, 0, 67, 0
2, 26040, Note_on_c, 0, 69, 100
2, 26400, Note_on_c, 0, 69, 0
2, 26400, Note_on_c, 0, 67, 100
2, 26460, Note_on_c, 0, 67, 0
2, 26460, Note_on_c, 0, 66, 100
2, 26520, Note_on_c, 0, 66, 0
2, 26520, Note_on_c, 0, 67, 100
2, 26580, Note_on_c, 0, 67, 0
2, 26580, Note_on_c, 0, 69, 100
2, 26640, Note_on_c, 0, 69, 0
2, 26640, Note_on_c, 0, 67, 100
2, 26700, Note_on_c, 0, 67, 0
2, 26700, Note_on_c, 0, 69, 100
2, 26760, Note_on_c, 0, 69, 0
2, 26760, Note_on_c, 0, 67, 100
2, 26820, Note_on_c, 0, 67, 0
2, 26820, Note_on_c, 0, 69, 100
2, 26880, Note_on_c, 0, 69, 0
2, 26880, Note_on_c, 0, 67, 100
2, 26920, Note_on_c, 0, 67, 0
2, 26920, Note_on_c, 0, 69, 100
2, 26960, Note_on_c, 0, 69, 0
2, 26960, Note_on_c, 0, 67, 100
2, 27000, Note_on_c, 0, 67, 0
2, 27000, Note_on_c, 0, 69, 100
2, 27040, Note_on_c, 0, 69, 0
2, 27040, Note_on_c, 0, 67, 100
2, 27081, Note_on_c, 0, 67, 0
2, 27081, Note_on_c, 0, 66, 100
2, 27120, Note_on_c, 0, 66, 0
2, 27120, Note_on_c, 0, 67, 100
2, 27240, Note_on_c, 0, 67, 0
2, 27240, Note_on_c, 0, 69, 100
2, 27360, Note_on_c, 0, 69, 0
2, 27360, Note_on_c, 0, 67, 100
2, 27420, Note_on_c, 0, 67, 0
2, 27420, Note_on_c, 0, 66, 100
2, 27480, Note_on_c, 0, 66, 0
2, 27480, Note_on_c, 0, 67, 100
2, 27600, Note_on_c, 0, 67, 0
2, 27600, Note_on_c, 0, 66, 100
2, 27660, Note_on_c, 0, 66, 0
2, 27660, Note_on_c, 0, 64, 100
2, 27840, Note_on_c, 0, 64, 0
2, 27840, Note_on_c, 0, 62, 100
2, 28080, Note_on_c, 0, 62, 0
2, 28080, Note_on_c, 0, 74, 100
2, 29280, Note_on_c, 0, 74, 0
2, 29280, Note_on_c, 0, 76, 100
2, 29760, Note_on_c, 0, 76, 0
2, 29760, Note_on_c, 0, 74, 100
2, 29820, Note_on_c, 0, 74, 0
2, 29820, Note_on_c, 0, 76, 100
2, 29880, Note_on_c, 0, 76, 0
2, 29880, Note_on_c, 0, 77, 100
2, 30120, Note_on_c, 0, 77, 0
2, 30120, Note_on_c, 0, 76, 100
2, 30240, Note_on_c, 0, 76, 0
2, 30240, Note_on_c, 0, 74, 100
2, 30480, Note_on_c, 0, 74, 0
2, 30480, Note_on_c, 0, 72, 100
2, 30600, Note_on_c, 0, 72, 0
2, 30600, Note_on_c, 0, 71, 100
2, 30720, Note_on_c, 0, 71, 0
2, 30720, Note_on_c, 0, 69, 100
2, 30960, Note_on_c, 0, 69, 0
2, 30960, Note_on_c, 0, 79, 100
2, 31440, Note_on_c, 0, 79, 0
2, 31440, Note_on_c, 0, 78, 100
2, 31500, Note_on_c, 0, 78, 0
2, 31500, Note_on_c, 0, 76, 100
2, 31560, Note_on_c, 0, 76, 0
2, 31560, Note_on_c, 0, 78, 100
2, 31620, Note_on_c, 0, 78, 0
2, 31620, Note_on_c, 0, 79, 100
2, 31680, Note_on_c, 0, 79, 0
2, 31680, Note_on_c, 0, 78, 100
2, 31740, Note_on_c, 0, 78, 0
2, 31740, Note_on_c, 0, 81, 100
2, 31920, Note_on_c, 0, 81, 0
2, 31920, Note_on_c, 0, 79, 100
2, 31980, Note_on_c, 0, 79, 0
2, 31980, Note_on_c, 0, 78, 100
2, 32160, Note_on_c, 0, 78, 0
2, 32160, Note_on_c, 0, 76, 100
2, 32220, Note_on_c, 0, 76, 0
2, 32220, Note_on_c, 0, 74, 100
2, 32400, Note_on_c, 0, 74, 0
2, 32400, Note_on_c, 0, 72, 100
2, 32640, Note_on_c, 0, 72, 0
2, 32640, Note_on_c, 0, 81, 100
2, 32760, Note_on_c, 0, 81, 0
2, 32760, Note_on_c, 0, 72, 100
2, 33000, Note_on_c, 0, 72, 0
2, 33000, Note_on_c, 0, 71, 100
2, 33120, Note_on_c, 0, 71, 0
2, 33120, Note_on_c, 0, 67, 100
2, 33180, Note_on_c, 0, 67, 0
2, 33180, Note_on_c, 0, 66, 100
2, 33600, Note_on_c, 0, 66, 0
2, 33600, Note_on_c, 0, 67, 100
2, 33840, Note_on_c, 0, 67, 0
2, 33840, Note_on_c, 0, 66, 100
2, 33900, Note_on_c, 0, 66, 0
2, 33900, Note_on_c, 0, 67, 100
2, 33960, Note_on_c, 0, 67, 0
2, 33960, Note_on_c, 0, 71, 100
2, 35040, Note_on_c, 0, 71, 0
2, 35040, Note_on_c, 0, 73, 100
2, 35520, Note_on_c, 0, 73, 0
2, 35520, Note_on_c, 0, 71, 100
2, 35580, Note_on_c, 0, 71, 0
2, 35580, Note_on_c, 0, 73, 100
2, 35640, Note_on_c, 0, 73, 0
2, 35640, Note_on_c, 0, 74, 100
2, 36000, Note_on_c, 0, 74, 0
2, 36000, Note_on_c, 0, 73, 100
2, 36120, Note_on_c, 0, 73, 0
2, 36120, Note_on_c, 0, 71, 100
2, 36240, Note_on_c, 0, 71, 0
2, 36240, Note_on_c, 0, 69, 100
2, 36360, Note_on_c, 0, 69, 0
2, 36360, Note_on_c, 0, 67, 100
2, 37350, Note_on_c, 0, 67, 0
2, 37350, Note_on_c, 0, 71, 100
2, 37380, Note_on_c, 0, 71, 0
2, 37380, Note_on_c, 0, 76, 100
2, 37410, Note_on_c, 0, 76, 0
2, 37410, Note_on_c, 0, 79, 100
2, 37440, Note_on_c, 0, 79, 0
2, 37440, Note_on_c, 0, 81, 100
2, 37920, Note_on_c, 0, 81, 0
2, 37920, Note_on_c, 0, 79, 100
2, 37980, Note_on_c, 0, 79, 0
2, 37980, Note_on_c, 0, 78, 100
2, 38040, Note_on_c, 0, 78, 0
2, 38040, Note_on_c, 0, 79, 100
2, 38100, Note_on_c, 0, 79, 0
2, 38100, Note_on_c, 0, 81, 100
2, 38160, Note_on_c, 0, 81, 0
2, 38160, Note_on_c, 0, 79, 100
2, 38220, Note_on_c, 0, 79, 0
2, 38220, Note_on_c, 0, 81, 100
2, 38280, Note_on_c, 0, 81, 0
2, 38280, Note_on_c, 0, 79, 100
2, 38340, Note_on_c, 0, 79, 0
2, 38340, Note_on_c, 0, 81, 100
2, 38400, Note_on_c, 0, 81, 0
2, 38400, Note_on_c, 0, 79, 100
2, 38440, Note_on_c, 0, 79, 0
2, 38440, Note_on_c, 0, 81, 100
2, 38480, Note_on_c, 0, 81, 0
2, 38480, Note_on_c, 0, 79, 100
2, 38520, Note_on_c, 0, 79, 0
2, 38520, Note_on_c, 0, 81, 100
2, 38560, Note_on_c, 0, 81, 0
2, 38560, Note_on_c, 0, 79, 100
2, 38600, Note_on_c, 0, 79, 0
2, 38600, Note_on_c, 0, 78, 100
2, 38640, Note_on_c, 0, 78, 0
2, 38640, Note_on_c, 0, 79, 100
2, 38880, Note_on_c, 0, 79, 0
2, 38880, Note_on_c, 0, 78, 100
2, 39120, Note_on_c, 0, 78, 0
2, 39120, Note_on_c, 0, 76, 100
2, 39240, Note_on_c, 0, 76, 0
2, 39240, Note_on_c, 0, 74, 100
2, 39360, Note_on_c, 0, 74, 0
2, 39360, Note_on_c, 0, 73, 100
2, 39420, Note_on_c, 0, 73, 0
2, 39420, Note_on_c, 0, 71, 100
2, 39480, Note_on_c, 0, 71, 0
2, 39480, Note_on_c, 0, 73, 100
2, 39540, Note_on_c, 0, 73, 0
2, 39540, Note_on_c, 0, 74, 100
2, 39600, Note_on_c, 0, 74, 0
2, 39600, Note_on_c, 0, 73, 100
2, 39660, Note_on_c, 0, 73, 0
2, 39660, Note_on_c, 0, 74, 100
2, 39720, Note_on_c, 0, 74, 0
2, 39720, Note_on_c, 0, 73, 100
2, 39760, Note_on_c, 0, 73, 0
2, 39760, Note_on_c, 0, 74, 100
2, 39800, Note_on_c, 0, 74, 0
2, 39800, Note_on_c, 0, 73, 100
2, 39840, Note_on_c, 0, 73, 0
2, 39840, Note_on_c, 0, 76, 100
2, 40080, Note_on_c, 0, 76, 0
2, 40080, Note_on_c, 0, 81, 100
2, 40320, Note_on_c, 0, 81, 0
2, 40320, Note_on_c, 0, 79, 100
2, 40440, Note_on_c, 0, 79, 0
2, 40440, Note_on_c, 0, 78, 100
2, 40560, Note_on_c, 0, 78, 0
2, 40560, Note_on_c, 0, 76, 100
2, 40680, Note_on_c, 0, 76, 0
2, 40680, Note_on_c, 0, 74, 100
2, 40800, Note_on_c, 0, 74, 0
2, 40800, Note_on_c, 0, 69, 100
2, 41040, Note_on_c, 0, 69, 0
2, 41040, Note_on_c, 0, 71, 100
2, 41580, Note_on_c, 0, 71, 0
2, 41580, Note_on_c, 0, 72, 100
2, 41640, Note_on_c, 0, 72, 0
2, 41640, Note_on_c, 0, 71, 100
2, 41760, Note_on_c, 0, 71, 0
2, 41760, Note_on_c, 0, 69, 100
2, 41880, Note_on_c, 0, 69, 0
2, 41880, Note_on_c, 0, 67, 100
2, 42000, Note_on_c, 0, 67, 0
2, 42000, Note_on_c, 0, 66, 100
2, 42120, Note_on_c, 0, 66, 0
2, 42120, Note_on_c, 0, 64, 100
2, 42240, Note_on_c, 0, 64, 0
2, 42240, Note_on_c, 0, 74, 100
2, 42480, Note_on_c, 0, 74, 0
2, 42480, Note_on_c, 0, 73, 100
2, 42600, Note_on_c, 0, 73, 0
2, 42600, Note_on_c, 0, 74, 100
2, 43020, Note_on_c, 0, 74, 0
2, 43020, Note_on_c, 0, 76, 100
2, 43080, Note_on_c, 0, 76, 0
2, 43080, Note_on_c, 0, 74, 100
2, 43200, Note_on_c, 0, 74, 0
2, 43200, Note_on_c, 0, 73, 100
2, 43320, Note_on_c, 0, 73, 0
2, 43320, Note_on_c, 0, 71, 100
2, 43440, Note_on_c, 0, 71, 0
2, 43440, Note_on_c, 0, 69, 100
2, 43560, Note_on_c, 0, 69, 0
2, 43560, Note_on_c, 0, 79, 100
2, 43680, Note_on_c, 0, 79, 0
2, 43680, Note_on_c, 0, 71, 100
2, 43920, Note_on_c, 0, 71, 0
2, 43920, Note_on_c, 0, 73, 100
2, 44640, Note_on_c, 0, 73, 0
2, 44640, Note_on_c, 0, 74, 100
2, 44760, Note_on_c, 0, 74, 0
2, 44760, Note_on_c, 0, 76, 100
2, 44940, Note_on_c, 0, 76, 0
2, 44940, Note_on_c, 0, 74, 100
2, 45000, Note_on_c, 0, 74, 0
2, 45000, Note_on_c, 0, 73, 100
2, 45120, Note_on_c, 0, 73, 0
2, 45120, Note_on_c, 0, 74, 100
2, 45360, Note_on_c, 0, 74, 0
2, 45360, Note_on_c, 0, 69, 100
2, 46080, Note_on_c, 0, 69, 0
2, 46080, Note_on_c, 0, 67, 100
2, 46140, Note_on_c, 0, 67, 0
2, 46140, Note_on_c, 0, 69, 100
2, 46200, Note_on_c, 0, 69, 0
2, 46200, Note_on_c, 0, 71, 100
2, 46560, Note_on_c, 0, 71, 0
2, 46560, Note_on_c, 0, 69, 100
2, 46620, Note_on_c, 0, 69, 0
2, 46620, Note_on_c, 0, 67, 100
2, 46680, Note_on_c, 0, 67, 0
2, 46680, Note_on_c, 0, 69, 100
2, 46740, Note_on_c, 0, 69, 0
2, 46740, Note_on_c, 0, 71, 100
2, 46800, Note_on_c, 0, 71, 0
2, 46800, Note_on_c, 0, 69, 100
2, 46840, Note_on_c, 0, 69, 0
2, 46840, Note_on_c, 0, 71, 100
2, 46880, Note_on_c, 0, 71, 0
2, 46880, Note_on_c, 0, 69, 100
2, 46920, Note_on_c, 0, 69, 0
2, 46920, Note_on_c, 0, 71, 100
2, 46960, Note_on_c, 0, 71, 0
2, 46960, Note_on_c, 0, 69, 100
2, 47001, Note_on_c, 0, 69, 0
2, 47001, Note_on_c, 0, 71, 100
2, 47040, Note_on_c, 0, 71, 0
2, 47040, Note_on_c, 0, 69, 100
2, 47080, Note_on_c, 0, 69, 0
2, 47080, Note_on_c, 0, 71, 100
2, 47120, Note_on_c, 0, 71, 0
2, 47120, Note_on_c, 0, 69, 100
2, 47160, Note_on_c, 0, 69, 0
2, 47160, Note_on_c, 0, 71, 100
2, 47220, Note_on_c, 0, 71, 0
2, 47220, Note_on_c, 0, 72, 100
2, 47280, Note_on_c, 0, 72, 0
2, 47280, Note_on_c, 0, 74, 100
2, 47340, Note_on_c, 0, 74, 0
2, 47340, Note_on_c, 0, 76, 100
2, 47520, Note_on_c, 0, 76, 0
2, 47520, Note_on_c, 0, 74, 100
2, 47640, Note_on_c, 0, 74, 0
2, 47640, Note_on_c, 0, 72, 100
2, 47760, Note_on_c, 0, 72, 0
2, 47760, Note_on_c, 0, 71, 100
2, 47880, Note_on_c, 0, 71, 0
2, 47880, Note_on_c, 0, 69, 100
2, 48000, Note_on_c, 0, 69, 0
2, 48000, Note_on_c, 0, 67, 100
2, 48240, Note_on_c, 0, 67, 0
2, 48240, Note_on_c, 0, 79, 100
2, 48720, Note_on_c, 0, 79, 0
2, 48720, Note_on_c, 0, 78, 100
2, 48960, Note_on_c, 0, 78, 0
2, 48960, Note_on_c, 0, 76, 100
2, 49080, Note_on_c, 0, 76, 0
2, 49080, Note_on_c, 0, 78, 100
2, 49320, Note_on_c, 0, 78, 0
2, 49320, Note_on_c, 0, 75, 100
2, 49440, Note_on_c, 0, 75, 0
2, 49440, Note_on_c, 0, 76, 100
2, 49680, Note_on_c, 0, 76, 0
2, 49680, Note_on_c, 0, 75, 100
2, 49710, Note_on_c, 0, 75, 0
2, 49710, Note_on_c, 0, 76, 100
2, 49740, Note_on_c, 0, 76, 0
2, 49740, Note_on_c, 0, 81, 100
2, 50160, Note_on_c, 0, 81, 0
2, 50160, Note_on_c, 0, 83, 100
2, 50220, Note_on_c, 0, 83, 0
2, 50220, Note_on_c, 0, 81, 100
2, 50280, Note_on_c, 0, 81, 0
2, 50280, Note_on_c, 0, 79, 100
2, 50340, Note_on_c, 0, 79, 0
2, 50340, Note_on_c, 0, 81, 100
2, 50400, Note_on_c, 0, 81, 0
2, 50400, Note_on_c, 0, 78, 100
2, 50760, Note_on_c, 0, 78, 0
2, 50760, Note_on_c, 0, 76, 100
2, 50880, Note_on_c, 0, 76, 0
2, 50880, Note_on_c, 0, 75, 100
2, 51120, Note_on_c, 0, 75, 0
2, 51120, Note_on_c, 0, 71, 100
2, 51600, Note_on_c, 0, 71, 0
2, 51600, Note_on_c, 0, 76, 100
2, 51840, Note_on_c, 0, 76, 0
2, 51840, Note_on_c, 0, 78, 100
2, 51900, Note_on_c, 0, 78, 0
2, 51900, Note_on_c, 0, 79, 100
2, 51960, Note_on_c, 0, 79, 0
2, 51960, Note_on_c, 0, 78, 100
2, 52320, Note_on_c, 0, 78, 0
2, 52320, Note_on_c, 0, 76, 100
2, 52560, Note_on_c, 0, 76, 0
2, 52560, Note_on_c, 0, 71, 100
2, 52920, Note_on_c, 0, 71, 0
2, 52920, Note_on_c, 0, 72, 100
2, 53040, Note_on_c, 0, 72, 0
2, 53040, Note_on_c, 0, 71, 100
2, 53100, Note_on_c, 0, 71, 0
2, 53100, Note_on_c, 0, 69, 100
2, 53160, Note_on_c, 0, 69, 0
2, 53160, Note_on_c, 0, 71, 100
2, 53220, Note_on_c, 0, 71, 0
2, 53220, Note_on_c, 0, 79, 100
2, 53280, Note_on_c, 0, 79, 0
2, 53280, Note_on_c, 0, 76, 100
2, 53340, Note_on_c, 0, 76, 0
2, 53340, Note_on_c, 0, 78, 100
2, 53520, Note_on_c, 0, 78, 0
2, 53520, Note_on_c, 0, 75, 100
2, 53760, Note_on_c, 0, 75, 0
2, 53760, Note_on_c, 0, 76, 100
2, 53880, Note_on_c, 0, 76, 0
2, 53880, Note_on_c, 0, 67, 100
2, 54360, Note_on_c, 0, 67, 0
2, 54360, Note_on_c, 0, 66, 100
2, 54480, Note_on_c, 0, 66, 0
2, 54480, Note_on_c, 0, 64, 100
2, 54600, Note_on_c, 0, 64, 0
2, 54600, Note_on_c, 0, 66, 100
2, 54720, Note_on_c, 0, 66, 0
2, 54720, Note_on_c, 0, 76, 100
2, 55200, Note_on_c, 0, 76, 0
2, 55200, Note_on_c, 0, 75, 100
2, 55320, Note_on_c, 0, 75, 0
2, 55320, Note_on_c, 0, 78, 100
2, 55440, Note_on_c, 0, 78, 0
2, 55440, Note_on_c, 0, 79, 100
2, 55500, Note_on_c, 0, 79, 0
2, 55500, Note_on_c, 0, 81, 100
2, 55560, Note_on_c, 0, 81, 0
2, 55560, Note_on_c, 0, 79, 100
2, 55680, Note_on_c, 0, 79, 0
2, 55680, Note_on_c, 0, 78, 100
2, 56160, Note_on_c, 0, 78, 0
2, 56160, Note_on_c, 0, 76, 100
2, 56280, Note_on_c, 0, 76, 0
2, 56280, Note_on_c, 0, 78, 100
2, 56520, Note_on_c, 0, 78, 0
2, 56520, Note_on_c, 0, 75, 100
2, 56640, Note_on_c, 0, 75, 0
2, 56640, Note_on_c, 0, 76, 100
2, 57600, Note_on_c, 0, 76, 0
2, 57600, Note_on_c, 0, 74, 100
2, 57840, Note_on_c, 0, 74, 0
2, 57840, Note_on_c, 0, 72, 100
2, 57960, Note_on_c, 0, 72, 0
2, 57960, Note_on_c, 0, 71, 100
2, 58080, Note_on_c, 0, 71, 0
2, 58080, Note_on_c, 0, 69, 100
2, 58320, Note_on_c, 0, 69, 0
2, 58320, Note_on_c, 0, 71, 100
2, 58800, Note_on_c, 0, 71, 0
2, 58800, Note_on_c, 0, 72, 100
2, 58920, Note_on_c, 0, 72, 0
2, 58920, Note_on_c, 0, 74, 100
2, 59040, Note_on_c, 0, 74, 0
2, 59040, Note_on_c, 0, 72, 100
2, 59100, Note_on_c, 0, 72, 0
2, 59100, Note_on_c, 0, 71, 100
2, 59160, Note_on_c, 0, 71, 0
2, 59160, Note_on_c, 0, 72, 100
2, 59280, Note_on_c, 0, 72, 0
2, 59280, Note_on_c, 0, 71, 100
2, 59340, Note_on_c, 0, 71, 0
2, 59340, Note_on_c, 0, 69, 100
2, 59520, Note_on_c, 0, 69, 0
2, 59520, Note_on_c, 0, 67, 100
2, 59760, Note_on_c, 0, 67, 0
2, 59760, Note_on_c, 0, 69, 100
2, 60240, Note_on_c, 0, 69, 0
2, 60240, Note_on_c, 0, 71, 100
2, 60360, Note_on_c, 0, 71, 0
2, 60360, Note_on_c, 0, 72, 100
2, 60480, Note_on_c, 0, 72, 0
2, 60480, Note_on_c, 0, 74, 100
2, 60600, Note_on_c, 0, 74, 0
2, 60600, Note_on_c, 0, 72, 100
2, 60720, Note_on_c, 0, 72, 0
2, 60720, Note_on_c, 0, 71, 100
2, 60840, Note_on_c, 0, 71, 0
2, 60840, Note_on_c, 0, 72, 100
2, 60960, Note_on_c, 0, 72, 0
2, 60960, Note_on_c, 0, 69, 100
2, 61080, Note_on_c, 0, 69, 0
2, 61080, Note_on_c, 0, 64, 100
2, 61200, Note_on_c, 0, 64, 0
2, 61200, Note_on_c, 0, 69, 100
2, 61320, Note_on_c, 0, 69, 0
2, 61320, Note_on_c, 0, 72, 100
2, 61440, Note_on_c, 0, 72, 0
2, 61440, Note_on_c, 0, 74, 100
2, 62040, Note_on_c, 0, 74, 0
2, 62040, Note_on_c, 0, 72, 100
2, 62160, Note_on_c, 0, 72, 0
2, 62160, Note_on_c, 0, 71, 100
2, 62280, Note_on_c, 0, 71, 0
2, 62280, Note_on_c, 0, 72, 100
2, 62400, Note_on_c, 0, 72, 0
2, 62400, Note_on_c, 0, 69, 100
2, 62520, Note_on_c, 0, 69, 0
2, 62520, Note_on_c, 0, 66, 100
2, 62640, Note_on_c, 0, 66, 0
2, 62640, Note_on_c, 0, 69, 100
2, 62760, Note_on_c, 0, 69, 0
2, 62760, Note_on_c, 0, 72, 100
2, 62880, Note_on_c, 0, 72, 0
2, 62880, Note_on_c, 0, 76, 100
2, 63000, Note_on_c, 0, 76, 0
2, 63000, Note_on_c, 0, 74, 100
2, 63120, Note_on_c, 0, 74, 0
2, 63120, Note_on_c, 0, 72, 100
2, 63240, Note_on_c, 0, 72, 0
2, 63240, Note_on_c, 0, 71, 100
2, 63360, Note_on_c, 0, 71, 0
2, 63360, Note_on_c, 0, 72, 100
2, 63480, Note_on_c, 0, 72, 0
2, 63480, Note_on_c, 0, 71, 100
2, 63600, Note_on_c, 0, 71, 0
2, 63600, Note_on_c, 0, 69, 100
2, 63720, Note_on_c, 0, 69, 0
2, 63720, Note_on_c, 0, 71, 100
2, 63840, Note_on_c, 0, 71, 0
2, 63840, Note_on_c, 0, 67, 100
2, 63960, Note_on_c, 0, 67, 0
2, 63960, Note_on_c, 0, 62, 100
2, 64080, Note_on_c, 0, 62, 0
2, 64080, Note_on_c, 0, 67, 100
2, 64200, Note_on_c, 0, 67, 0
2, 64200, Note_on_c, 0, 71, 100
2, 64320, Note_on_c, 0, 71, 0
2, 64320, Note_on_c, 0, 67, 100
2, 64440, Note_on_c, 0, 67, 0
2, 64440, Note_on_c, 0, 72, 100
2, 64560, Note_on_c, 0, 72, 0
2, 64560, Note_on_c, 0, 74, 100
2, 64680, Note_on_c, 0, 74, 0
2, 64680, Note_on_c, 0, 76, 100
2, 64800, Note_on_c, 0, 76, 0
2, 64800, Note_on_c, 0, 77, 100
2, 64920, Note_on_c, 0, 77, 0
2, 64920, Note_on_c, 0, 76, 100
2, 65040, Note_on_c, 0, 76, 0
2, 65040, Note_on_c, 0, 74, 100
2, 65160, Note_on_c, 0, 74, 0
2, 65160, Note_on_c, 0, 76, 100
2, 65280, Note_on_c, 0, 76, 0
2, 65280, Note_on_c, 0, 72, 100
2, 65400, Note_on_c, 0, 72, 0
2, 65400, Note_on_c, 0, 67, 100
2, 65520, Note_on_c, 0, 67, 0
2, 65520, Note_on_c, 0, 72, 100
2, 65640, Note_on_c, 0, 72, 0
2, 65640, Note_on_c, 0, 76, 100
2, 65760, Note_on_c, 0, 76, 0
2, 65760, Note_on_c, 0, 72, 100
2, 65880, Note_on_c, 0, 72, 0
2, 65880, Note_on_c, 0, 78, 100
2, 66000, Note_on_c, 0, 78, 0
2, 66000, Note_on_c, 0, 79, 100
2, 66120, Note_on_c, 0, 79, 0
2, 66120, Note_on_c, 0, 81, 100
2, 66240, Note_on_c, 0, 81, 0
2, 66240, Note_on_c, 0, 72, 100
2, 66360, Note_on_c, 0, 72, 0
2, 66360, Note_on_c, 0, 71, 100
2, 66480, Note_on_c, 0, 71, 0
2, 66480, Note_on_c, 0, 69, 100
2, 66600, Note_on_c, 0, 69, 0
2, 66600, Note_on_c, 0, 71, 100
2, 66720, Note_on_c, 0, 71, 0
2, 66720, Note_on_c, 0, 72, 100
2, 66840, Note_on_c, 0, 72, 0
2, 66840, Note_on_c, 0, 74, 100
2, 66960, Note_on_c, 0, 74, 0
2, 66960, Note_on_c, 0, 67, 100
2, 67080, Note_on_c, 0, 67, 0
2, 67080, Note_on_c, 0, 71, 100
2, 67200, Note_on_c, 0, 71, 0
2, 67200, Note_on_c, 0, 69, 100
2, 67320, Note_on_c, 0, 69, 0
2, 67320, Note_on_c, 0, 67, 100
2, 67440, Note_on_c, 0, 67, 0
2, 67440, Note_on_c, 0, 66, 100
2, 67560, Note_on_c, 0, 66, 0
2, 67560, Note_on_c, 0, 67, 100
2, 67680, Note_on_c, 0, 67, 0
2, 67680, Note_on_c, 0, 62, 100
2, 68280, Note_on_c, 0, 62, 0
2, 68280, Note_on_c, 0, 67, 100
2, 68400, Note_on_c, 0, 67, 0
2, 68400, Note_on_c, 0, 66, 100
2, 68640, Note_on_c, 0, 66, 0
2, 68640, Note_on_c, 0, 67, 100
2, 68760, Note_on_c, 0, 67, 0
2, 68760, Note_on_c, 0, 69, 100
2, 69120, Note_on_c, 0, 69, 0
2, 69120, Note_on_c, 0, 67, 100
2, 69180, Note_on_c, 0, 67, 0
2, 69180, Note_on_c, 0, 69, 100
2, 69240, Note_on_c, 0, 69, 0
2, 69240, Note_on_c, 0, 71, 100
2, 69600, Note_on_c, 0, 71, 0
2, 69600, Note_on_c, 0, 69, 100
2, 69660, Note_on_c, 0, 69, 0
2, 69660, Note_on_c, 0, 67, 100
2, 69720, Note_on_c, 0, 67, 0
2, 69720, Note_on_c, 0, 69, 100
2, 69780, Note_on_c, 0, 69, 0
2, 69780, Note_on_c, 0, 71, 100
2, 69840, Note_on_c, 0, 71, 0
2, 69840, Note_on_c, 0, 69, 100
2, 69880, Note_on_c, 0, 69, 0
2, 69880, Note_on_c, 0, 71, 100
2, 69920, Note_on_c, 0, 71, 0
2, 69920, Note_on_c, 0, 69, 100
2, 69960, Note_on_c, 0, 69, 0
2, 69960, Note_on_c, 0, 71, 100
2, 70000, Note_on_c, 0, 71, 0
2, 70000, Note_on_c, 0, 69, 100
2, 70041, Note_on_c, 0, 69, 0
2, 70041, Note_on_c, 0, 71, 100
2, 70080, Note_on_c, 0, 71, 0
2, 70080, Note_on_c, 0, 69, 100
2, 70120, Note_on_c, 0, 69, 0
2, 70120, Note_on_c, 0, 71, 100
2, 70160, Note_on_c, 0, 71, 0
2, 70160, Note_on_c, 0, 69, 100
2, 70200, Note_on_c, 0, 69, 0
2, 70200, Note_on_c, 0, 71, 100
2, 70260, Note_on_c, 0, 71, 0
2, 70260, Note_on_c, 0, 72, 100
2, 70320, Note_on_c, 0, 72, 0
2, 70320, Note_on_c, 0, 74, 100
2, 70380, Note_on_c, 0, 74, 0
2, 70380, Note_on_c, 0, 76, 100
2, 70560, Note_on_c, 0, 76, 0
2, 70560, Note_on_c, 0, 74, 100
2, 70680, Note_on_c, 0, 74, 0
2, 70680, Note_on_c, 0, 72, 100
2, 70800, Note_on_c, 0, 72, 0
2, 70800, Note_on_c, 0, 71, 100
2, 70920, Note_on_c, 0, 71, 0
2, 70920, Note_on_c, 0, 69, 100
2, 71040, Note_on_c, 0, 69, 0
2, 71040, Note_on_c, 0, 67, 100
2, 71280, Note_on_c, 0, 67, 0
2, 71280, Note_on_c, 0, 79, 100
2, 71760, Note_on_c, 0, 79, 0
2, 71760, Note_on_c, 0, 78, 100
2, 72000, Note_on_c, 0, 78, 0
2, 72000, Note_on_c, 0, 76, 100
2, 72120, Note_on_c, 0, 76, 0
2, 72120, Note_on_c, 0, 78, 100
2, 72360, Note_on_c, 0, 78, 0
2, 72360, Note_on_c, 0, 75, 100
2, 72480, Note_on_c, 0, 75, 0
2, 72480, Note_on_c, 0, 76, 100
2, 72720, Note_on_c, 0, 76, 0
2, 72720, Note_on_c, 0, 75, 100
2, 72750, Note_on_c, 0, 75, 0
2, 72750, Note_on_c, 0, 76, 100
2, 72780, Note_on_c, 0, 76, 0
2, 72780, Note_on_c, 0, 81, 100
2, 73200, Note_on_c, 0, 81, 0
2, 73200, Note_on_c, 0, 83, 100
2, 73260, Note_on_c, 0, 83, 0
2, 73260, Note_on_c, 0, 81, 100
2, 73320, Note_on_c, 0, 81, 0
2, 73320, Note_on_c, 0, 79, 100
2, 73380, Note_on_c, 0, 79, 0
2, 73380, Note_on_c, 0, 81, 100
2, 73440, Note_on_c, 0, 81, 0
2, 73440, Note_on_c, 0, 78, 100
2, 73800, Note_on_c, 0, 78, 0
2, 73800, Note_on_c, 0, 76, 100
2, 73920, Note_on_c, 0, 76, 0
2, 73920, Note_on_c, 0, 75, 100
2, 74160, Note_on_c, 0, 75, 0
2, 74160, Note_on_c, 0, 71, 100
2, 74640, Note_on_c, 0, 71, 0
2, 74640, Note_on_c, 0, 76, 100
2, 74880, Note_on_c, 0, 76, 0
2, 74880, Note_on_c, 0, 78, 100
2, 74940, Note_on_c, 0, 78, 0
2, 74940, Note_on_c, 0, 79, 100
2, 75000, Note_on_c, 0, 79, 0
2, 75000, Note_on_c, 0, 78, 100
2, 75360, Note_on_c, 0, 78, 0
2, 75360, Note_on_c, 0, 76, 100
2, 75600, Note_on_c, 0, 76, 0
2, 75600, Note_on_c, 0, 71, 100
2, 75960, Note_on_c, 0, 71, 0
2, 75960, Note_on_c, 0, 72, 100
2, 76080, Note_on_c, 0, 72, 0
2, 76080, Note_on_c, 0, 71, 100
2, 76140, Note_on_c, 0, 71, 0
2, 76140, Note_on_c, 0, 69, 100
2, 76200, Note_on_c, 0, 69, 0
2, 76200, Note_on_c, 0, 71, 100
2, 76260, Note_on_c, 0, 71, 0
2, 76260, Note_on_c, 0, 79, 100
2, 76320, Note_on_c, 0, 79, 0
2, 76320, Note_on_c, 0, 76, 100
2, 76380, Note_on_c, 0, 76, 0
2, 76380, Note_on_c, 0, 78, 100
2, 76560, Note_on_c, 0, 78, 0
2, 76560, Note_on_c, 0, 75, 100
2, 76800, Note_on_c, 0, 75, 0
2, 76800, Note_on_c, 0, 76, 100
2, 76920, Note_on_c, 0, 76, 0
2, 76920, Note_on_c, 0, 67, 100
2, 77400, Note_on_c, 0, 67, 0
2, 77400, Note_on_c, 0, 66, 100
2, 77520, Note_on_c, 0, 66, 0
2, 77520, Note_on_c, 0, 64, 100
2, 77640, Note_on_c, 0, 64, 0
2, 77640, Note_on_c, 0, 66, 100
2, 77760, Note_on_c, 0, 66, 0
2, 77760, Note_on_c, 0, 76, 100
2, 78240, Note_on_c, 0, 76, 0
2, 78240, Note_on_c, 0, 75, 100
2, 78360, Note_on_c, 0, 75, 0
2, 78360, Note_on_c, 0, 78, 100
2, 78480, Note_on_c, 0, 78, 0
2, 78480, Note_on_c, 0, 79, 100
2, 78540, Note_on_c, 0, 79, 0
2, 78540, Note_on_c, 0, 81, 100
2, 78600, Note_on_c, 0, 81, 0
2, 78600, Note_on_c, 0, 79, 100
2, 78720, Note_on_c, 0, 79, 0
2, 78720, Note_on_c, 0, 78, 100
2, 79200, Note_on_c, 0, 78, 0
2, 79200, Note_on_c, 0, 76, 100
2, 79320, Note_on_c, 0, 76, 0
2, 79320, Note_on_c, 0, 78, 100
2, 79560, Note_on_c, 0, 78, 0
2, 79560, Note_on_c, 0, 75, 100
2, 79680, Note_on_c, 0, 75, 0
2, 79680, Note_on_c, 0, 76, 100
2, 80640, Note_on_c, 0, 76, 0
2, 80640, Note_on_c, 0, 74, 100
2, 80880, Note_on_c, 0, 74, 0
2, 80880, Note_on_c, 0, 72, 100
2, 81000, Note_on_c, 0, 72, 0
2, 81000, Note_on_c, 0, 71, 100
2, 81120, Note_on_c, 0, 71, 0
2, 81120, Note_on_c, 0, 69, 100
2, 81360, Note_on_c, 0, 69, 0
2, 81360, Note_on_c, 0, 71, 100
2, 81840, Note_on_c, 0, 71, 0
2, 81840, Note_on_c, 0, 72, 100
2, 81960, Note_on_c, 0, 72, 0
2, 81960, Note_on_c, 0, 74, 100
2, 82080, Note_on_c, 0, 74, 0
2, 82080, Note_on_c, 0, 72, 100
2, 82140, Note_on_c, 0, 72, 0
2, 82140, Note_on_c, 0, 71, 100
2, 82200, Note_on_c, 0, 71, 0
2, 82200, Note_on_c, 0, 72, 100
2, 82320, Note_on_c, 0, 72, 0
2, 82320, Note_on_c, 0, 71, 100
2, 82380, Note_on_c, 0, 71, 0
2, 82380, Note_on_c, 0, 69, 100
2, 82560, Note_on_c, 0, 69, 0
2, 82560, Note_on_c, 0, 67, 100
2, 82800, Note_on_c, 0, 67, 0
2, 82800, Note_on_c, 0, 69, 100
2, 83280, Note_on_c, 0, 69, 0
2, 83280, Note_on_c, 0, 71, 100
2, 83400, Note_on_c, 0, 71, 0
2, 83400, Note_on_c, 0, 72, 100
2, 83520, Note_on_c, 0, 72, 0
2, 83520, Note_on_c, 0, 74, 100
2, 83640, Note_on_c, 0, 74, 0
2, 83640, Note_on_c, 0, 72, 100
2, 83760, Note_on_c, 0, 72, 0
2, 83760, Note_on_c, 0, 71, 100
2, 83880, Note_on_c, 0, 71, 0
2, 83880, Note_on_c, 0, 72, 100
2, 84000, Note_on_c, 0, 72, 0
2, 84000, Note_on_c, 0, 69, 100
2, 84120, Note_on_c, 0, 69, 0
2, 84120, Note_on_c, 0, 64, 100
2, 84240, Note_on_c, 0, 64, 0
2, 84240, Note_on_c, 0, 69, 100
2, 84360, Note_on_c, 0, 69, 0
2, 84360, Note_on_c, 0, 72, 100
2, 84480, Note_on_c, 0, 72, 0
2, 84480, Note_on_c, 0, 74, 100
2, 85080, Note_on_c, 0, 74, 0
2, 85080, Note_on_c, 0, 72, 100
2, 85200, Note_on_c, 0, 72, 0
2, 85200, Note_on_c, 0, 71, 100
2, 85320, Note_on_c, 0, 71, 0
2, 85320, Note_on_c, 0, 72, 100
2, 85440, Note_on_c, 0, 72, 0
2, 85440, Note_on_c, 0, 69, 100
2, 85560, Note_on_c, 0, 69, 0
2, 85560, Note_on_c, 0, 66, 100
2, 85680, Note_on_c, 0, 66, 0
2, 85680, Note_on_c, 0, 69, 100
2, 85800, Note_on_c, 0, 69, 0
2, 85800, Note_on_c, 0, 72, 100
2, 85920, Note_on_c, 0, 72, 0
2, 85920, Note_on_c, 0, 76, 100
2, 86040, Note_on_c, 0, 76, 0
2, 86040, Note_on_c, 0, 74, 100
2, 86160, Note_on_c, 0, 74, 0
2, 86160, Note_on_c, 0, 72, 100
2, 86280, Note_on_c, 0, 72, 0
2, 86280, Note_on_c, 0, 71, 100
2, 86400, Note_on_c, 0, 71, 0
2, 86400, Note_on_c, 0, 72, 100
2, 86520, Note_on_c, 0, 72, 0
2, 86520, Note_on_c, 0, 71, 100
2, 86640, Note_on_c, 0, 71, 0
2, 86640, Note_on_c, 0, 69, 100
2, 86760, Note_on_c, 0, 69, 0
2, 86760, Note_on_c, 0, 71, 100
2, 86880, Note_on_c, 0, 71, 0
2, 86880, Note_on_c, 0, 67, 100
2, 87000, Note_on_c, 0, 67, 0
2, 87000, Note_on_c, 0, 62, 100
2, 87120, Note_on_c, 0, 62, 0
2, 87120, Note_on_c, 0, 67, 100
2, 87240, Note_on_c, 0, 67, 0
2, 87240, Note_on_c, 0, 71, 100
2, 87360, Note_on_c, 0, 71, 0
2, 87360, Note_on_c, 0, 67, 100
2, 87480, Note_on_c, 0, 67, 0
2, 87480, Note_on_c, 0, 72, 100
2, 87600, Note_on_c, 0, 72, 0
2, 87600, Note_on_c, 0, 74, 100
2, 87720, Note_on_c, 0, 74, 0
2, 87720, Note_on_c, 0, 76, 100
2, 87840, Note_on_c, 0, 76, 0
2, 87840, Note_on_c, 0, 77, 100
2, 87960, Note_on_c, 0, 77, 0
2, 87960, Note_on_c, 0, 76, 100
2, 88080, Note_on_c, 0, 76, 0
2, 88080, Note_on_c, 0, 74, 100
2, 88200, Note_on_c, 0, 74, 0
2, 88200, Note_on_c, 0, 76, 100
2, 88320, Note_on_c, 0, 76, 0
2, 88320, Note_on_c, 0, 72, 100
2, 88440, Note_on_c, 0, 72, 0
2, 88440, Note_on_c, 0, 67, 100
2, 88560, Note_on_c, 0, 67, 0
2, 88560, Note_on_c, 0, 72, 100
2, 88680, Note_on_c, 0, 72, 0
2, 88680, Note_on_c, 0, 76, 100
2, 88800, Note_on_c, 0, 76, 0
2, 88800, Note_on_c, 0, 72, 100
2, 88920, Note_on_c, 0, 72, 0
2, 88920, Note_on_c, 0, 78, 100
2, 89040, Note_on_c, 0, 78, 0
2, 89040, Note_on_c, 0, 79, 100
2, 89160, Note_on_c, 0, 79, 0
2, 89160, Note_on_c, 0, 81, 100
2, 89280, Note_on_c, 0, 81, 0
2, 89280, Note_on_c, 0, 72, 100
2, 89400, Note_on_c, 0, 72, 0
2, 89400, Note_on_c, 0, 71, 100
2, 89520, Note_on_c, 0, 71, 0
2, 89520, Note_on_c, 0, 69, 100
2, 89640, Note_on_c, 0, 69, 0
2, 89640, Note_on_c, 0, 71, 100
2, 89760, Note_on_c, 0, 71, 0
2, 89760, Note_on_c, 0, 72, 100
2, 89880, Note_on_c, 0, 72, 0
2, 89880, Note_on_c, 0, 74, 100
2, 90000, Note_on_c, 0, 74, 0
2, 90000, Note_on_c, 0, 67, 100
2, 90120, Note_on_c, 0, 67, 0
2, 90120, Note_on_c, 0, 71, 100
2, 90240, Note_on_c, 0, 71, 0
2, 90240, Note_on_c, 0, 69, 100
2, 90360, Note_on_c, 0, 69, 0
2, 90360, Note_on_c, 0, 67, 100
2, 90480, Note_on_c, 0, 67, 0
2, 90480, Note_on_c, 0, 66, 100
2, 90600, Note_on_c, 0, 66, 0
2, 90600, Note_on_c, 0, 67, 100
2, 90720, Note_on_c, 0, 67, 0
2, 90720, Note_on_c, 0, 62, 100
2, 91320, Note_on_c, 0, 62, 0
2, 91320, Note_on_c, 0, 67, 100
2, 91440, Note_on_c, 0, 67, 0
2, 91440, Note_on_c, 0, 66, 100
2, 91680, Note_on_c, 0, 66, 0
2, 91680, Note_on_c, 0, 67, 100
2, 91800, Note_on_c, 0, 67, 0
2, 91800, Note_on_c, 0, 71, 100
2, 338160, Note_on_c, 0, 71, 0
2, 338160, Note_on_c, 0, 67, 100
2, 338400, Note_on_c, 0, 67, 0
2, 338400, Note_on_c, 0, 74, 100
2, 338640, Note_on_c, 0, 74, 0
2, 338640, Note_on_c, 0, 69, 100
2, 338880, Note_on_c, 0, 69, 0
2, 338880, Note_on_c, 0, 74, 100
2, 339120, Note_on_c, 0, 74, 0
2, 339120, Note_on_c, 0, 79, 100
2, 339360, Note_on_c, 0, 79, 0
2, 339360, Note_on_c, 0, 78, 100
2, 340320, Note_on_c, 0, 78, 0
2, 340320, Note_on_c, 0, 69, 100
2, 342480, Note_on_c, 0, 69, 0
2, 342480, Note_on_c, 0, 72, 100
2, 342720, Note_on_c, 0, 72, 0
2, 342720, Note_on_c, 0, 69, 100
2, 343080, Note_on_c, 0, 69, 0
2, 343080, Note_on_c, 0, 71, 100
2, 343200, Note_on_c, 0, 71, 0
2, 343200, Note_on_c, 0, 76, 100
2, 343920, Note_on_c, 0, 76, 0
2, 343920, Note_on_c, 0, 79, 100
2, 344160, Note_on_c, 0, 79, 0
2, 344160, Note_on_c, 0, 73, 100
2, 344400, Note_on_c, 0, 73, 0
2, 344400, Note_on_c, 0, 81, 100
2, 344640, Note_on_c, 0, 81, 0
2, 344640, Note_on_c, 0, 74, 100
2, 345120, Note_on_c, 0, 74, 0
2, 345120, Note_on_c, 0, 79, 100
2, 345360, Note_on_c, 0, 79, 0
2, 345360, Note_on_c, 0, 78, 100
2, 346080, Note_on_c, 0, 78, 0
2, 346080, Note_on_c, 0, 76, 100
2, 346320, Note_on_c, 0, 76, 0
2, 346320, Note_on_c, 0, 74, 100
2, 346800, Note_on_c, 0, 74, 0
2, 346800, Note_on_c, 0, 72, 100
2, 347040, Note_on_c, 0, 72, 0
2, 347040, Note_on_c, 0, 71, 100
2, 347520, Note_on_c, 0, 71, 0
2, 347520, Note_on_c, 0, 69, 100
2, 348000, Note_on_c, 0, 69, 0
2, 348000, Note_on_c, 0, 74, 100
2, 348240, Note_on_c, 0, 74, 0
2, 348240, Note_on_c, 0, 73, 100
2, 348480, Note_on_c, 0, 73, 0
2, 348480, Note_on_c, 0, 74, 100
2, 348960, Note_on_c, 0, 74, 0
2, 348960, Note_on_c, 0, 71, 100
2, 349680, Note_on_c, 0, 71, 0
2, 349680, Note_on_c, 0, 67, 100
2, 349920, Note_on_c, 0, 67, 0
2, 349920, Note_on_c, 0, 74, 100
2, 350160, Note_on_c, 0, 74, 0
2, 350160, Note_on_c, 0, 69, 100
2, 350400, Note_on_c, 0, 69, 0
2, 350400, Note_on_c, 0, 74, 100
2, 350640, Note_on_c, 0, 74, 0
2, 350640, Note_on_c, 0, 79, 100
2, 350880, Note_on_c, 0, 79, 0
2, 350880, Note_on_c, 0, 78, 100
2, 351840, Note_on_c, 0, 78, 0
2, 351840, Note_on_c, 0, 69, 100
2, 354000, Note_on_c, 0, 69, 0
2, 354000, Note_on_c, 0, 72, 100
2, 354240, Note_on_c, 0, 72, 0
2, 354240, Note_on_c, 0, 69, 100
2, 354600, Note_on_c, 0, 69, 0
2, 354600, Note_on_c, 0, 71, 100
2, 354720, Note_on_c, 0, 71, 0
2, 354720, Note_on_c, 0, 76, 100
2, 355440, Note_on_c, 0, 76, 0
2, 355440, Note_on_c, 0, 79, 100
2, 355680, Note_on_c, 0, 79, 0
2, 355680, Note_on_c, 0, 73, 100
2, 355920, Note_on_c, 0, 73, 0
2, 355920, Note_on_c, 0, 81, 100
2, 356160, Note_on_c, 0, 81, 0
2, 356160, Note_on_c, 0, 74, 100
2, 356640, Note_on_c, 0, 74, 0
2, 356640, Note_on_c, 0, 79, 100
2, 356880, Note_on_c, 0, 79, 0
2, 356880, Note_on_c, 0, 78, 100
2, 357600, Note_on_c, 0, 78, 0
2, 357600, Note_on_c, 0, 76, 100
2, 357840, Note_on_c, 0, 76, 0
2, 357840, Note_on_c, 0, 74, 100
2, 358320, Note_on_c, 0, 74, 0
2, 358320, Note_on_c, 0, 72, 100
2, 358560, Note_on_c, 0, 72, 0
2, 358560, Note_on_c, 0, 71, 100
2, 359040, Note_on_c, 0, 71, 0
2, 359040, Note_on_c, 0, 69, 100
2, 359520, Note_on_c, 0, 69, 0
2, 359520, Note_on_c, 0, 74, 100
2, 359760, Note_on_c, 0, 74, 0
2, 359760, Note_on_c, 0, 73, 100
2, 360000, Note_on_c, 0, 73, 0
2, 360000, Note_on_c, 0, 74, 100
2, 360480, Note_on_c, 0, 74, 0
2, 360480, Note_on_c, 0, 78, 100
2, 361200, Note_on_c, 0, 78, 0
2, 361200, Note_on_c, 0, 74, 100
2, 361440, Note_on_c, 0, 74, 0
2, 361440, Note_on_c, 0, 79, 100
2, 361680, Note_on_c, 0, 79, 0
2, 361680, Note_on_c, 0, 83, 100
2, 361920, Note_on_c, 0, 83, 0
2, 361920, Note_on_c, 0, 81, 100
2, 362640, Note_on_c, 0, 81, 0
2, 362640, Note_on_c, 0, 79, 100
2, 362760, Note_on_c, 0, 79, 0
2, 362760, Note_on_c, 0, 78, 100
2, 362880, Note_on_c, 0, 78, 0
2, 362880, Note_on_c, 0, 76, 100
2, 363000, Note_on_c, 0, 76, 0
2, 363000, Note_on_c, 0, 75, 100
2, 363120, Note_on_c, 0, 75, 0
2, 363120, Note_on_c, 0, 76, 100
2, 363240, Note_on_c, 0, 76, 0
2, 363240, Note_on_c, 0, 78, 100
2, 363360, Note_on_c, 0, 78, 0
2, 363360, Note_on_c, 0, 76, 100
2, 364080, Note_on_c, 0, 76, 0
2, 364080, Note_on_c, 0, 79, 100
2, 364320, Note_on_c, 0, 79, 0
2, 364320, Note_on_c, 0, 73, 100
2, 364560, Note_on_c, 0, 73, 0
2, 364560, Note_on_c, 0, 75, 100
2, 364800, Note_on_c, 0, 75, 0
2, 364800, Note_on_c, 0, 76, 100
2, 365040, Note_on_c, 0, 76, 0
2, 365040, Note_on_c, 0, 75, 100
2, 365520, Note_on_c, 0, 75, 0
2, 365520, Note_on_c, 0, 73, 100
2, 365640, Note_on_c, 0, 73, 0
2, 365640, Note_on_c, 0, 71, 100
2, 365760, Note_on_c, 0, 71, 0
2, 365760, Note_on_c, 0, 69, 100
2, 366000, Note_on_c, 0, 69, 0
2, 366000, Note_on_c, 0, 67, 100
2, 366030, Note_on_c, 0, 67, 0
2, 366030, Note_on_c, 0, 69, 100
2, 366060, Note_on_c, 0, 69, 0
2, 366060, Note_on_c, 0, 67, 100
2, 366090, Note_on_c, 0, 67, 0
2, 366090, Note_on_c, 0, 66, 100
2, 366120, Note_on_c, 0, 66, 0
2, 366120, Note_on_c, 0, 64, 100
2, 366240, Note_on_c, 0, 64, 0
2, 366240, Note_on_c, 0, 72, 100
2, 366960, Note_on_c, 0, 72, 0
2, 366960, Note_on_c, 0, 76, 100
2, 367200, Note_on_c, 0, 76, 0
2, 367200, Note_on_c, 0, 69, 100
2, 367440, Note_on_c, 0, 69, 0
2, 367440, Note_on_c, 0, 71, 100
2, 367680, Note_on_c, 0, 71, 0
2, 367680, Note_on_c, 0, 74, 100
2, 367920, Note_on_c, 0, 74, 0
2, 367920, Note_on_c, 0, 67, 100
2, 368160, Note_on_c, 0, 67, 0
2, 368160, Note_on_c, 0, 72, 100
2, 368400, Note_on_c, 0, 72, 0
2, 368400, Note_on_c, 0, 74, 100
2, 369120, Note_on_c, 0, 74, 0
2, 369120, Note_on_c, 0, 72, 100
2, 369360, Note_on_c, 0, 72, 0
2, 369360, Note_on_c, 0, 71, 100
2, 369600, Note_on_c, 0, 71, 0
2, 369600, Note_on_c, 0, 72, 100
2, 369720, Note_on_c, 0, 72, 0
2, 369720, Note_on_c, 0, 74, 100
2, 369840, Note_on_c, 0, 74, 0
2, 369840, Note_on_c, 0, 72, 100
2, 370440, Note_on_c, 0, 72, 0
2, 370440, Note_on_c, 0, 74, 100
2, 370560, Note_on_c, 0, 74, 0
2, 370560, Note_on_c, 0, 72, 100
2, 370680, Note_on_c, 0, 72, 0
2, 370680, Note_on_c, 0, 71, 100
2, 370800, Note_on_c, 0, 71, 0
2, 370800, Note_on_c, 0, 69, 100
2, 370920, Note_on_c, 0, 69, 0
2, 370920, Note_on_c, 0, 74, 100
2, 371040, Note_on_c, 0, 74, 0
2, 371040, Note_on_c, 0, 67, 100
2, 371280, Note_on_c, 0, 67, 0
2, 371280, Note_on_c, 0, 66, 100
2, 371520, Note_on_c, 0, 66, 0
2, 371520, Note_on_c, 0, 67, 100
2, 372000, Note_on_c, 0, 67, 0
2, 372000, Note_on_c, 0, 78, 100
2, 372720, Note_on_c, 0, 78, 0
2, 372720, Note_on_c, 0, 74, 100
2, 372960, Note_on_c, 0, 74, 0
2, 372960, Note_on_c, 0, 79, 100
2, 373200, Note_on_c, 0, 79, 0
2, 373200, Note_on_c, 0, 83, 100
2, 373440, Note_on_c, 0, 83, 0
2, 373440, Note_on_c, 0, 81, 100
2, 374160, Note_on_c, 0, 81, 0
2, 374160, Note_on_c, 0, 79, 100
2, 374280, Note_on_c, 0, 79, 0
2, 374280, Note_on_c, 0, 78, 100
2, 374400, Note_on_c, 0, 78, 0
2, 374400, Note_on_c, 0, 76, 100
2, 374520, Note_on_c, 0, 76, 0
2, 374520, Note_on_c, 0, 75, 100
2, 374640, Note_on_c, 0, 75, 0
2, 374640, Note_on_c, 0, 76, 100
2, 374760, Note_on_c, 0, 76, 0
2, 374760, Note_on_c, 0, 78, 100
2, 374880, Note_on_c, 0, 78, 0
2, 374880, Note_on_c, 0, 76, 100
2, 375600, Note_on_c, 0, 76, 0
2, 375600, Note_on_c, 0, 79, 100
2, 375840, Note_on_c, 0, 79, 0
2, 375840, Note_on_c, 0, 73, 100
2, 376080, Note_on_c, 0, 73, 0
2, 376080, Note_on_c, 0, 75, 100
2, 376320, Note_on_c, 0, 75, 0
2, 376320, Note_on_c, 0, 76, 100
2, 376560, Note_on_c, 0, 76, 0
2, 376560, Note_on_c, 0, 75, 100
2, 377040, Note_on_c, 0, 75, 0
2, 377040, Note_on_c, 0, 73, 100
2, 377160, Note_on_c, 0, 73, 0
2, 377160, Note_on_c, 0, 71, 100
2, 377280, Note_on_c, 0, 71, 0
2, 377280, Note_on_c, 0, 69, 100
2, 377400, Note_on_c, 0, 69, 0
2, 377400, Note_on_c, 0, 67, 100
2, 377520, Note_on_c, 0, 67, 0
2, 377520, Note_on_c, 0, 66, 100
2, 377640, Note_on_c, 0, 66, 0
2, 377640, Note_on_c, 0, 64, 100
2, 377760, Note_on_c, 0, 64, 0
2, 377760, Note_on_c, 0, 72, 100
2, 378480, Note_on_c, 0, 72, 0
2, 378480, Note_on_c, 0, 76, 100
2, 378720, Note_on_c, 0, 76, 0
2, 378720, Note_on_c, 0, 69, 100
2, 378960, Note_on_c, 0, 69, 0
2, 378960, Note_on_c, 0, 71, 100
2, 379200, Note_on_c, 0, 71, 0
2, 379200, Note_on_c, 0, 74, 100
2, 379440, Note_on_c, 0, 74, 0
2, 379440, Note_on_c, 0, 67, 100
2, 379680, Note_on_c, 0, 67, 0
2, 379680, Note_on_c, 0, 72, 100
2, 379920, Note_on_c, 0, 72, 0
2, 379920, Note_on_c, 0, 74, 100
2, 380640, Note_on_c, 0, 74, 0
2, 380640, Note_on_c, 0, 72, 100
2, 380880, Note_on_c, 0, 72, 0
2, 380880, Note_on_c, 0, 71, 100
2, 381120, Note_on_c, 0, 71, 0
2, 381120, Note_on_c, 0, 72, 100
2, 381240, Note_on_c, 0, 72, 0
2, 381240, Note_on_c, 0, 74, 100
2, 381360, Note_on_c, 0, 74, 0
2, 381360, Note_on_c, 0, 72, 100
2, 381960, Note_on_c, 0, 72, 0
2, 381960, Note_on_c, 0, 74, 100
2, 382080, Note_on_c, 0, 74, 0
2, 382080, Note_on_c, 0, 72, 100
2, 382200, Note_on_c, 0, 72, 0
2, 382200, Note_on_c, 0, 71, 100
2, 382320, Note_on_c, 0, 71, 0
2, 382320, Note_on_c, 0, 69, 100
2, 382440, Note_on_c, 0, 69, 0
2, 382440, Note_on_c, 0, 74, 100
2, 382560, Note_on_c, 0, 74, 0
2, 382560, Note_on_c, 0, 67, 100
2, 382800, Note_on_c, 0, 67, 0
2, 382800, Note_on_c, 0, 66, 100
2, 383040, Note_on_c, 0, 66, 0
2, 383040, Note_on_c, 0, 67, 100
2, 383520, Note_on_c, 0, 67, 0
2, 383520, Note_on_c, 0, 69, 100
2, 791040, Note_on_c, 0, 69, 0
2, 791040, Note_on_c, 0, 71, 100
2, 792000, Note_on_c, 0, 71, 0
2, 792000, Note_on_c, 0, 69, 100
2, 792120, Note_on_c, 0, 69, 0
2, 792120, Note_on_c, 0, 71, 100
2, 792240, Note_on_c, 0, 71, 0
2, 792240, Note_on_c, 0, 69, 100
2, 792360, Note_on_c, 0, 69, 0
2, 792360, Note_on_c, 0, 71, 100
2, 792480, Note_on_c, 0, 71, 0
2, 792480, Note_on_c, 0, 69, 100
2, 792600, Note_on_c, 0, 69, 0
2, 792600, Note_on_c, 0, 67, 100
2, 792720, Note_on_c, 0, 67, 0
2, 792720, Note_on_c, 0, 69, 100
2, 792840, Note_on_c, 0, 69, 0
2, 792840, Note_on_c, 0, 71, 100
2, 792960, Note_on_c, 0, 71, 0
2, 792960, Note_on_c, 0, 67, 100
2, 793440, Note_on_c, 0, 67, 0
2, 793440, Note_on_c, 0, 64, 100
2, 793920, Note_on_c, 0, 64, 0
2, 793920, Note_on_c, 0, 67, 100
2, 794400, Note_on_c, 0, 67, 0
2, 794400, Note_on_c, 0, 64, 100
2, 794880, Note_on_c, 0, 64, 0
2, 794880, Note_on_c, 0, 69, 100
2, 795360, Note_on_c, 0, 69, 0
2, 795360, Note_on_c, 0, 57, 100
2, 795840, Note_on_c, 0, 57, 0
2, 795840, Note_on_c, 0, 67, 100
2, 796800, Note_on_c, 0, 67, 0
2, 796800, Note_on_c, 0, 66, 100
2, 796880, Note_on_c, 0, 66, 0
2, 796880, Note_on_c, 0, 67, 100
2, 796960, Note_on_c, 0, 67, 0
2, 796960, Note_on_c, 0, 66, 100
2, 797040, Note_on_c, 0, 66, 0
2, 797040, Note_on_c, 0, 64, 100
2, 797280, Note_on_c, 0, 64, 0
2, 797280, Note_on_c, 0, 66, 100
2, 797520, Note_on_c, 0, 66, 0
2, 797520, Note_on_c, 0, 62, 100
2, 797760, Note_on_c, 0, 62, 0
2, 797760, Note_on_c, 0, 69, 100
2, 821760, Note_on_c, 0, 69, 0
2, 821760, Note_on_c, 0, 71, 100
2, 822720, Note_on_c, 0, 71, 0
2, 822720, Note_on_c, 0, 69, 100
2, 822840, Note_on_c, 0, 69, 0
2, 822840, Note_on_c, 0, 71, 100
2, 822960, Note_on_c, 0, 71, 0
2, 822960, Note_on_c, 0, 69, 100
2, 823080, Note_on_c, 0, 69, 0
2, 823080, Note_on_c, 0, 71, 100
2, 823200, Note_on_c, 0, 71, 0
2, 823200, Note_on_c, 0, 69, 100
2, 823320, Note_on_c, 0, 69, 0
2, 823320, Note_on_c, 0, 67, 100
2, 823440, Note_on_c, 0, 67, 0
2, 823440, Note_on_c, 0, 69, 100
2, 823560, Note_on_c, 0, 69, 0
2, 823560, Note_on_c, 0, 71, 100
2, 823680, Note_on_c, 0, 71, 0
2, 823680, Note_on_c, 0, 67, 100
2, 824160, Note_on_c, 0, 67, 0
2, 824160, Note_on_c, 0, 64, 100
2, 824640, Note_on_c, 0, 64, 0
2, 824640, Note_on_c, 0, 67, 100
2, 825120, Note_on_c, 0, 67, 0
2, 825120, Note_on_c, 0, 64, 100
2, 825600, Note_on_c, 0, 64, 0
2, 825600, Note_on_c, 0, 69, 100
2, 826080, Note_on_c, 0, 69, 0
2, 826080, Note_on_c, 0, 57, 100
2, 826560, Note_on_c, 0, 57, 0
2, 826560, Note_on_c, 0, 67, 100
2, 827520, Note_on_c, 0, 67, 0
2, 827520, Note_on_c, 0, 66, 100
2, 827600, Note_on_c, 0, 66, 0
2, 827600, Note_on_c, 0, 67, 100
2, 827680, Note_on_c, 0, 67, 0
2, 827680, Note_on_c, 0, 66, 100
2, 827760, Note_on_c, 0, 66, 0
2, 827760, Note_on_c, 0, 64, 100
2, 828000, Note_on_c, 0, 64, 0
2, 828000, Note_on_c, 0, 66, 100
2, 828240, Note_on_c, 0, 66, 0
2, 828240, Note_on_c, 0, 62, 100
2, 828480, Note_on_c, 0, 62, 0
2, 828480, Note_on_c, 0, 78, 100
2, 829440, Note_on_c, 0, 78, 0
2, 829440, Note_on_c, 0, 76, 100
2, 829560, Note_on_c, 0, 76, 0
2, 829560, Note_on_c, 0, 78, 100
2, 829680, Note_on_c, 0, 78, 0
2, 829680, Note_on_c, 0, 79, 100
2, 830400, Note_on_c, 0, 79, 0
2, 830400, Note_on_c, 0, 78, 100
2, 830520, Note_on_c, 0, 78, 0
2, 830520, Note_on_c, 0, 79, 100
2, 830640, Note_on_c, 0, 79, 0
2, 830640, Note_on_c, 0, 78, 100
2, 830760, Note_on_c, 0, 78, 0
2, 830760, Note_on_c, 0, 79, 100
2, 830880, Note_on_c, 0, 79, 0
2, 830880, Note_on_c, 0, 78, 100
2, 831000, Note_on_c, 0, 78, 0
2, 831000, Note_on_c, 0, 76, 100
2, 831120, Note_on_c, 0, 76, 0
2, 831120, Note_on_c, 0, 78, 100
2, 831240, Note_on_c, 0, 78, 0
2, 831240, Note_on_c, 0, 79, 100
2, 831360, Note_on_c, 0, 79, 0
2, 831360, Note_on_c, 0, 74, 100
2, 831840, Note_on_c, 0, 74, 0
2, 831840, Note_on_c, 0, 71, 100
2, 832320, Note_on_c, 0, 71, 0
2, 832320, Note_on_c, 0, 74, 100
2, 832800, Note_on_c, 0, 74, 0
2, 832800, Note_on_c, 0, 72, 100
2, 833280, Note_on_c, 0, 72, 0
2, 833280, Note_on_c, 0, 77, 100
2, 833760, Note_on_c, 0, 77, 0
2, 833760, Note_on_c, 0, 65, 100
2, 834240, Note_on_c, 0, 65, 0
2, 834240, Note_on_c, 0, 76, 100
2, 835200, Note_on_c, 0, 76, 0
2, 835200, Note_on_c, 0, 75, 100
2, 835280, Note_on_c, 0, 75, 0
2, 835280, Note_on_c, 0, 76, 100
2, 835360, Note_on_c, 0, 76, 0
2, 835360, Note_on_c, 0, 75, 100
2, 835440, Note_on_c, 0, 75, 0
2, 835440, Note_on_c, 0, 73, 100
2, 835680, Note_on_c, 0, 73, 0
2, 835680, Note_on_c, 0, 75, 100
2, 835920, Note_on_c, 0, 75, 0
2, 835920, Note_on_c, 0, 71, 100
2, 836160, Note_on_c, 0, 71, 0
2, 836160, Note_on_c, 0, 73, 100
2, 836400, Note_on_c, 0, 73, 0
2, 836400, Note_on_c, 0, 75, 100
2, 836640, Note_on_c, 0, 75, 0
2, 836640, Note_on_c, 0, 71, 100
2, 836880, Note_on_c, 0, 71, 0
2, 836880, Note_on_c, 0, 76, 100
2, 837120, Note_on_c, 0, 76, 0
2, 837120, Note_on_c, 0, 64, 100
2, 837600, Note_on_c, 0, 64, 0
2, 837600, Note_on_c, 0, 76, 100
2, 838080, Note_on_c, 0, 76, 0
2, 838080, Note_on_c, 0, 64, 100
2, 839520, Note_on_c, 0, 64, 0
2, 839520, Note_on_c, 0, 76, 100
2, 840000, Note_on_c, 0, 76, 0
2, 840000, Note_on_c, 0, 75, 100
2, 841920, Note_on_c, 0, 75, 0
2, 841920, Note_on_c, 0, 76, 100
2, 842880, Note_on_c, 0, 76, 0
2, 842880, Note_on_c, 0, 74, 100
2, 844080, Note_on_c, 0, 74, 0
2, 844080, Note_on_c, 0, 73, 100
2, 844320, Note_on_c, 0, 73, 0
2, 844320, Note_on_c, 0, 71, 100
2, 844560, Note_on_c, 0, 71, 0
2, 844560, Note_on_c, 0, 69, 100
2, 844800, Note_on_c, 0, 69, 0
2, 844800, Note_on_c, 0, 79, 100
2, 845280, Note_on_c, 0, 79, 0
2, 845280, Note_on_c, 0, 77, 100
2, 846240, Note_on_c, 0, 77, 0
2, 846240, Note_on_c, 0, 76, 100
2, 846480, Note_on_c, 0, 76, 0
2, 846480, Note_on_c, 0, 77, 100
2, 846720, Note_on_c, 0, 77, 0
2, 846720, Note_on_c, 0, 76, 100
2, 848160, Note_on_c, 0, 76, 0
2, 848160, Note_on_c, 0, 74, 100
2, 848400, Note_on_c, 0, 74, 0
2, 848400, Note_on_c, 0, 76, 100
2, 848640, Note_on_c, 0, 76, 0
2, 848640, Note_on_c, 0, 78, 100
2, 850080, Note_on_c, 0, 78, 0
2, 850080, Note_on_c, 0, 79, 100
2, 850320, Note_on_c, 0, 79, 0
2, 850320, Note_on_c, 0, 81, 100
2, 850560, Note_on_c, 0, 81, 0
2, 850560, Note_on_c, 0, 83, 100
2, 850800, Note_on_c, 0, 83, 0
2, 850800, Note_on_c, 0, 79, 100
2, 851040, Note_on_c, 0, 79, 0
2, 851040, Note_on_c, 0, 81, 100
2, 851280, Note_on_c, 0, 81, 0
2, 851280, Note_on_c, 0, 78, 100
2, 851520, Note_on_c, 0, 78, 0
2, 851520, Note_on_c, 0, 81, 100
2, 852000, Note_on_c, 0, 81, 0
2, 852000, Note_on_c, 0, 79, 100
2, 852960, Note_on_c, 0, 79, 0
2, 852960, Note_on_c, 0, 78, 100
2, 853200, Note_on_c, 0, 78, 0
2, 853200, Note_on_c, 0, 79, 100
2, 853440, Note_on_c, 0, 79, 0
2, 853440, Note_on_c, 0, 71, 100
2, 853920, Note_on_c, 0, 71, 0
2, 853920, Note_on_c, 0, 69, 100
2, 854880, Note_on_c, 0, 69, 0
2, 854880, Note_on_c, 0, 71, 100
2, 855120, Note_on_c, 0, 71, 0
2, 855120, Note_on_c, 0, 72, 100
2, 855360, Note_on_c, 0, 72, 0
2, 855360, Note_on_c, 0, 71, 100
2, 856800, Note_on_c, 0, 71, 0
2, 856800, Note_on_c, 0, 69, 100
2, 857280, Note_on_c, 0, 69, 0
2, 857280, Note_on_c, 0, 67, 100
2, 858240, Note_on_c, 0, 67, 0
2, 858240, Note_on_c, 0, 78, 100
2, 860160, Note_on_c, 0, 78, 0
2, 860160, Note_on_c, 0, 76, 100
2, 860280, Note_on_c, 0, 76, 0
2, 860280, Note_on_c, 0, 78, 100
2, 860400, Note_on_c, 0, 78, 0
2, 860400, Note_on_c, 0, 79, 100
2, 861120, Note_on_c, 0, 79, 0
2, 861120, Note_on_c, 0, 78, 100
2, 861240, Note_on_c, 0, 78, 0
2, 861240, Note_on_c, 0, 79, 100
2, 861360, Note_on_c, 0, 79, 0
2, 861360, Note_on_c, 0, 78, 100
2, 861480, Note_on_c, 0, 78, 0
2, 861480, Note_on_c, 0, 79, 100
2, 861600, Note_on_c, 0, 79, 0
2, 861600, Note_on_c, 0, 78, 100
2, 861720, Note_on_c, 0, 78, 0
2, 861720, Note_on_c, 0, 76, 100
2, 861840, Note_on_c, 0, 76, 0
2, 861840, Note_on_c, 0, 78, 100
2, 861960, Note_on_c, 0, 78, 0
2, 861960, Note_on_c, 0, 79, 100
2, 862080, Note_on_c, 0, 79, 0
2, 862080, Note_on_c, 0, 74, 100
2, 862560, Note_on_c, 0, 74, 0
2, 862560, Note_on_c, 0, 71, 100
2, 863040, Note_on_c, 0, 71, 0
2, 863040, Note_on_c, 0, 74, 100
2, 863520, Note_on_c, 0, 74, 0
2, 863520, Note_on_c, 0, 72, 100
2, 864000, Note_on_c, 0, 72, 0
2, 864000, Note_on_c, 0, 77, 100
2, 864480, Note_on_c, 0, 77, 0
2, 864480, Note_on_c, 0, 65, 100
2, 864960, Note_on_c, 0, 65, 0
2, 864960, Note_on_c, 0, 76, 100
2, 865920, Note_on_c, 0, 76, 0
2, 865920, Note_on_c, 0, 75, 100
2, 866000, Note_on_c, 0, 75, 0
2, 866000, Note_on_c, 0, 76, 100
2, 866080, Note_on_c, 0, 76, 0
2, 866080, Note_on_c, 0, 75, 100
2, 866160, Note_on_c, 0, 75, 0
2, 866160, Note_on_c, 0, 73, 100
2, 866400, Note_on_c, 0, 73, 0
2, 866400, Note_on_c, 0, 75, 100
2, 866640, Note_on_c, 0, 75, 0
2, 866640, Note_on_c, 0, 71, 100
2, 866880, Note_on_c, 0, 71, 0
2, 866880, Note_on_c, 0, 73, 100
2, 867120, Note_on_c, 0, 73, 0
2, 867120, Note_on_c, 0, 75, 100
2, 867360, Note_on_c, 0, 75, 0
2, 867360, Note_on_c, 0, 71, 100
2, 867600, Note_on_c, 0, 71, 0
2, 867600, Note_on_c, 0, 76, 100
2, 867840, Note_on_c, 0, 76, 0
2, 867840, Note_on_c, 0, 64, 100
2, 868320, Note_on_c, 0, 64, 0
2, 868320, Note_on_c, 0, 76, 100
2, 868800, Note_on_c, 0, 76, 0
2, 868800, Note_on_c, 0, 64, 100
2, 870240, Note_on_c, 0, 64, 0
2, 870240, Note_on_c, 0, 76, 100
2, 870720, Note_on_c, 0, 76, 0
2, 870720, Note_on_c, 0, 75, 100
2, 872640, Note_on_c, 0, 75, 0
2, 872640, Note_on_c, 0, 76, 100
2, 873600, Note_on_c, 0, 76, 0
2, 873600, Note_on_c, 0, 74, 100
2, 874800, Note_on_c, 0, 74, 0
2, 874800, Note_on_c, 0, 73, 100
2, 875040, Note_on_c, 0, 73, 0
2, 875040, Note_on_c, 0, 71, 100
2, 875280, Note_on_c, 0, 71, 0
2, 875280, Note_on_c, 0, 69, 100
2, 875520, Note_on_c, 0, 69, 0
2, 875520, Note_on_c, 0, 79, 100
2, 876000, Note_on_c, 0, 79, 0
2, 876000, Note_on_c, 0, 77, 100
2, 876960, Note_on_c, 0, 77, 0
2, 876960, Note_on_c, 0, 76, 100
2, 877200, Note_on_c, 0, 76, 0
2, 877200, Note_on_c, 0, 77, 100
2, 877440, Note_on_c, 0, 77, 0
2, 877440, Note_on_c, 0, 76, 100
2, 878880, Note_on_c, 0, 76, 0
2, 878880, Note_on_c, 0, 74, 100
2, 879120, Note_on_c, 0, 74, 0
2, 879120, Note_on_c, 0, 76, 100
2, 879360, Note_on_c, 0, 76, 0
2, 879360, Note_on_c, 0, 78, 100
2, 880800, Note_on_c, 0, 78, 0
2, 880800, Note_on_c, 0, 79, 100
2, 881040, Note_on_c, 0, 79, 0
2, 881040, Note_on_c, 0, 81, 100
2, 881280, Note_on_c, 0, 81, 0
2, 881280, Note_on_c, 0, 83, 100
2, 881520, Note_on_c, 0, 83, 0
2, 881520, Note_on_c, 0, 79, 100
2, 881760, Note_on_c, 0, 79, 0
2, 881760, Note_on_c, 0, 81, 100
2, 882000, Note_on_c, 0, 81, 0
2, 882000, Note_on_c, 0, 78, 100
2, 882240, Note_on_c, 0, 78, 0
2, 882240, Note_on_c, 0, 81, 100
2, 882720, Note_on_c, 0, 81, 0
2, 882720, Note_on_c, 0, 79, 100
2, 883680, Note_on_c, 0, 79, 0
2, 883680, Note_on_c, 0, 78, 100
2, 883920, Note_on_c, 0, 78, 0
2, 883920, Note_on_c, 0, 79, 100
2, 884160, Note_on_c, 0, 79, 0
2, 884160, Note_on_c, 0, 71, 100
2, 884640, Note_on_c, 0, 71, 0
2, 884640, Note_on_c, 0, 69, 100
2, 885600, Note_on_c, 0, 69, 0
2, 885600, Note_on_c, 0, 71, 100
2, 885840, Note_on_c, 0, 71, 0
2, 885840, Note_on_c, 0, 72, 100
2, 886080, Note_on_c, 0, 72, 0
2, 886080, Note_on_c, 0, 71, 100
2, 887520, Note_on_c, 0, 71, 0
2, 887520, Note_on_c, 0, 69, 100
2, 888000, Note_on_c, 0, 69, 0
2, 888000, Note_on_c, 0, 67, 100
2, 1321500, Note_on_c, 0, 67, 0
2, 1321500, Note_on_c, 0, 69, 100
2, 1321560, Note_on_c, 0, 69, 0
2, 1321560, Note_on_c, 0, 71, 100
2, 1321620, Note_on_c, 0, 71, 0
2, 1321620, Note_on_c, 0, 72, 100
2, 1321680, Note_on_c, 0, 72, 0
2, 1321680, Note_on_c, 0, 74, 100
2, 1321740, Note_on_c, 0, 74, 0
2, 1321740, Note_on_c, 0, 76, 100
2, 1321800, Note_on_c, 0, 76, 0
2, 1321800, Note_on_c, 0, 78, 100
2, 1321860, Note_on_c, 0, 78, 0
2, 1321860, Note_on_c, 0, 79, 100
2, 1321920, Note_on_c, 0, 79, 0
2, 1321920, Note_on_c, 0, 74, 100
2, 1322280, Note_on_c, 0, 74, 0
2, 1322280, Note_on_c, 0, 71, 100
2, 1322400, Note_on_c, 0, 71, 0
2, 1322400, Note_on_c, 0, 67, 100
2, 1322760, Note_on_c, 0, 67, 0
2, 1322760, Note_on_c, 0, 74, 100
2, 1322880, Note_on_c, 0, 74, 0
2, 1322880, Note_on_c, 0, 72, 100
2, 1322940, Note_on_c, 0, 72, 0
2, 1322940, Note_on_c, 0, 74, 100
2, 1323000, Note_on_c, 0, 74, 0
2, 1323000, Note_on_c, 0, 76, 100
2, 1323600, Note_on_c, 0, 76, 0
2, 1323600, Note_on_c, 0, 74, 100
2, 1323840, Note_on_c, 0, 74, 0
2, 1323840, Note_on_c, 0, 72, 100
2, 1323960, Note_on_c, 0, 72, 0
2, 1323960, Note_on_c, 0, 71, 100
2, 1324020, Note_on_c, 0, 71, 0
2, 1324020, Note_on_c, 0, 72, 100
2, 1324080, Note_on_c, 0, 72, 0
2, 1324080, Note_on_c, 0, 74, 100
2, 1324140, Note_on_c, 0, 74, 0
2, 1324140, Note_on_c, 0, 72, 100
2, 1324180, Note_on_c, 0, 72, 0
2, 1324180, Note_on_c, 0, 74, 100
2, 1324220, Note_on_c, 0, 74, 0
2, 1324220, Note_on_c, 0, 72, 100
2, 1324260, Note_on_c, 0, 72, 0
2, 1324260, Note_on_c, 0, 74, 100
2, 1324300, Note_on_c, 0, 74, 0
2, 1324300, Note_on_c, 0, 72, 100
2, 1324340, Note_on_c, 0, 72, 0
2, 1324340, Note_on_c, 0, 74, 100
2, 1324380, Note_on_c, 0, 74, 0
2, 1324380, Note_on_c, 0, 72, 100
2, 1324420, Note_on_c, 0, 72, 0
2, 1324420, Note_on_c, 0, 74, 100
2, 1324460, Note_on_c, 0, 74, 0
2, 1324460, Note_on_c, 0, 72, 100
2, 1324500, Note_on_c, 0, 72, 0
2, 1324500, Note_on_c, 0, 74, 100
2, 1324540, Note_on_c, 0, 74, 0
2, 1324540, Note_on_c, 0, 72, 100
2, 1324580, Note_on_c, 0, 72, 0
2, 1324580, Note_on_c, 0, 71, 100
2, 1324620, Note_on_c, 0, 71, 0
2, 1324620, Note_on_c, 0, 72, 100
2, 1324680, Note_on_c, 0, 72, 0
2, 1324680, Note_on_c, 0, 74, 100
2, 1324740, Note_on_c, 0, 74, 0
2, 1324740, Note_on_c, 0, 67, 100
2, 1324800, Note_on_c, 0, 67, 0
2, 1324800, Note_on_c, 0, 79, 100
2, 1325160, Note_on_c, 0, 79, 0
2, 1325160, Note_on_c, 0, 78, 100
2, 1325220, Note_on_c, 0, 78, 0
2, 1325220, Note_on_c, 0, 79, 100
2, 1325280, Note_on_c, 0, 79, 0
2, 1325280, Note_on_c, 0, 76, 100
2, 1325640, Note_on_c, 0, 76, 0
2, 1325640, Note_on_c, 0, 74, 100
2, 1325760, Note_on_c, 0, 74, 0
2, 1325760, Note_on_c, 0, 73, 100
2, 1325880, Note_on_c, 0, 73, 0
2, 1325880, Note_on_c, 0, 83, 100
2, 1326120, Note_on_c, 0, 83, 0
2, 1326120, Note_on_c, 0, 81, 100
2, 1326240, Note_on_c, 0, 81, 0
2, 1326240, Note_on_c, 0, 79, 100
2, 1326720, Note_on_c, 0, 79, 0
2, 1326720, Note_on_c, 0, 78, 100
2, 1326780, Note_on_c, 0, 78, 0
2, 1326780, Note_on_c, 0, 76, 100
2, 1326840, Note_on_c, 0, 76, 0
2, 1326840, Note_on_c, 0, 78, 100
2, 1326900, Note_on_c, 0, 78, 0
2, 1326900, Note_on_c, 0, 79, 100
2, 1326960, Note_on_c, 0, 79, 0
2, 1326960, Note_on_c, 0, 78, 100
2, 1327000, Note_on_c, 0, 78, 0
2, 1327000, Note_on_c, 0, 79, 100
2, 1327040, Note_on_c, 0, 79, 0
2, 1327040, Note_on_c, 0, 78, 100
2, 1327080, Note_on_c, 0, 78, 0
2, 1327080, Note_on_c, 0, 79, 100
2, 1327120, Note_on_c, 0, 79, 0
2, 1327120, Note_on_c, 0, 78, 100
2, 1327160, Note_on_c, 0, 78, 0
2, 1327160, Note_on_c, 0, 79, 100
2, 1327680, Note_on_c, 0, 79, 0
2, 1327680, Note_on_c, 0, 81, 100
2, 1328940, Note_on_c, 0, 81, 0
2, 1328940, Note_on_c, 0, 79, 100
2, 1329000, Note_on_c, 0, 79, 0
2, 1329000, Note_on_c, 0, 78, 100
2, 1329060, Note_on_c, 0, 78, 0
2, 1329060, Note_on_c, 0, 79, 100
2, 1329120, Note_on_c, 0, 79, 0
2, 1329120, Note_on_c, 0, 74, 100
2, 1329480, Note_on_c, 0, 74, 0
2, 1329480, Note_on_c, 0, 72, 100
2, 1330560, Note_on_c, 0, 72, 0
2, 1330560, Note_on_c, 0, 79, 100
2, 1332000, Note_on_c, 0, 79, 0
2, 1332000, Note_on_c, 0, 78, 100
2, 1332060, Note_on_c, 0, 78, 0
2, 1332060, Note_on_c, 0, 79, 100
2, 1332480, Note_on_c, 0, 79, 0
2, 1332480, Note_on_c, 0, 83, 100
2, 1333020, Note_on_c, 0, 83, 0
2, 1333020, Note_on_c, 0, 81, 100
2, 1333080, Note_on_c, 0, 81, 0
2, 1333080, Note_on_c, 0, 79, 100
2, 1333140, Note_on_c, 0, 79, 0
2, 1333140, Note_on_c, 0, 78, 100
2, 1333200, Note_on_c, 0, 78, 0
2, 1333200, Note_on_c, 0, 76, 100
2, 1333260, Note_on_c, 0, 76, 0
2, 1333260, Note_on_c, 0, 74, 100
2, 1333320, Note_on_c, 0, 74, 0
2, 1333320, Note_on_c, 0, 72, 100
2, 1333380, Note_on_c, 0, 72, 0
2, 1333380, Note_on_c, 0, 81, 100
2, 1333440, Note_on_c, 0, 81, 0
2, 1333440, Note_on_c, 0, 72, 100
2, 1333800, Note_on_c, 0, 72, 0
2, 1333800, Note_on_c, 0, 81, 100
2, 1333920, Note_on_c, 0, 81, 0
2, 1333920, Note_on_c, 0, 72, 100
2, 1334400, Note_on_c, 0, 72, 0
2, 1334400, Note_on_c, 0, 71, 100
2, 1334460, Note_on_c, 0, 71, 0
2, 1334460, Note_on_c, 0, 69, 100
2, 1334520, Note_on_c, 0, 69, 0
2, 1334520, Note_on_c, 0, 71, 100
2, 1334580, Note_on_c, 0, 71, 0
2, 1334580, Note_on_c, 0, 72, 100
2, 1334640, Note_on_c, 0, 72, 0
2, 1334640, Note_on_c, 0, 71, 100
2, 1334680, Note_on_c, 0, 71, 0
2, 1334680, Note_on_c, 0, 72, 100
2, 1334720, Note_on_c, 0, 72, 0
2, 1334720, Note_on_c, 0, 71, 100
2, 1334760, Note_on_c, 0, 71, 0
2, 1334760, Note_on_c, 0, 72, 100
2, 1334800, Note_on_c, 0, 72, 0
2, 1334800, Note_on_c, 0, 71, 100
2, 1334840, Note_on_c, 0, 71, 0
2, 1334840, Note_on_c, 0, 69, 100
2, 1335180, Note_on_c, 0, 69, 0
2, 1335180, Note_on_c, 0, 67, 100
2, 1335240, Note_on_c, 0, 67, 0
2, 1335240, Note_on_c, 0, 66, 100
2, 1335300, Note_on_c, 0, 66, 0
2, 1335300, Note_on_c, 0, 67, 100
2, 1335360, Note_on_c, 0, 67, 0
2, 1335360, Note_on_c, 0, 74, 100
2, 1335480, Note_on_c, 0, 74, 0
2, 1335480, Note_on_c, 0, 76, 100
2, 1335600, Note_on_c, 0, 76, 0
2, 1335600, Note_on_c, 0, 78, 100
2, 1335720, Note_on_c, 0, 78, 0
2, 1335720, Note_on_c, 0, 79, 100
2, 1335840, Note_on_c, 0, 79, 0
2, 1335840, Note_on_c, 0, 78, 100
2, 1335960, Note_on_c, 0, 78, 0
2, 1335960, Note_on_c, 0, 79, 100
2, 1336080, Note_on_c, 0, 79, 0
2, 1336080, Note_on_c, 0, 81, 100
2, 1336200, Note_on_c, 0, 81, 0
2, 1336200, Note_on_c, 0, 83, 100
2, 1336320, Note_on_c, 0, 83, 0
2, 1336320, Note_on_c, 0, 81, 100
2, 1336620, Note_on_c, 0, 81, 0
2, 1336620, Note_on_c, 0, 79, 100
2, 1336680, Note_on_c, 0, 79, 0
2, 1336680, Note_on_c, 0, 78, 100
2, 1336740, Note_on_c, 0, 78, 0
2, 1336740, Note_on_c, 0, 79, 100
2, 1336800, Note_on_c, 0, 79, 0
2, 1336800, Note_on_c, 0, 78, 100
2, 1337100, Note_on_c, 0, 78, 0
2, 1337100, Note_on_c, 0, 76, 100
2, 1337160, Note_on_c, 0, 76, 0
2, 1337160, Note_on_c, 0, 75, 100
2, 1337220, Note_on_c, 0, 75, 0
2, 1337220, Note_on_c, 0, 76, 100
2, 1337280, Note_on_c, 0, 76, 0
2, 1337280, Note_on_c, 0, 71, 100
2, 1337640, Note_on_c, 0, 71, 0
2, 1337640, Note_on_c, 0, 73, 100
2, 1337760, Note_on_c, 0, 73, 0
2, 1337760, Note_on_c, 0, 71, 100
2, 1337800, Note_on_c, 0, 71, 0
2, 1337800, Note_on_c, 0, 73, 100
2, 1337840, Note_on_c, 0, 73, 0
2, 1337840, Note_on_c, 0, 74, 100
2, 1338240, Note_on_c, 0, 74, 0
2, 1338240, Note_on_c, 0, 73, 100
2, 1338360, Note_on_c, 0, 73, 0
2, 1338360, Note_on_c, 0, 76, 100
2, 1338540, Note_on_c, 0, 76, 0
2, 1338540, Note_on_c, 0, 78, 100
2, 1338600, Note_on_c, 0, 78, 0
2, 1338600, Note_on_c, 0, 79, 100
2, 1338660, Note_on_c, 0, 79, 0
2, 1338660, Note_on_c, 0, 81, 100
2, 1339980, Note_on_c, 0, 81, 0
2, 1339980, Note_on_c, 0, 79, 100
2, 1340040, Note_on_c, 0, 79, 0
2, 1340040, Note_on_c, 0, 78, 100
2, 1340100, Note_on_c, 0, 78, 0
2, 1340100, Note_on_c, 0, 79, 100
2, 1340160, Note_on_c, 0, 79, 0
2, 1340160, Note_on_c, 0, 78, 100
2, 1340460, Note_on_c, 0, 78, 0
2, 1340460, Note_on_c, 0, 76, 100
2, 1340520, Note_on_c, 0, 76, 0
2, 1340520, Note_on_c, 0, 75, 100
2, 1340580, Note_on_c, 0, 75, 0
2, 1340580, Note_on_c, 0, 76, 100
2, 1340640, Note_on_c, 0, 76, 0
2, 1340640, Note_on_c, 0, 83, 100
2, 1341000, Note_on_c, 0, 83, 0
2, 1341000, Note_on_c, 0, 76, 100
2, 1341120, Note_on_c, 0, 76, 0
2, 1341120, Note_on_c, 0, 74, 100
2, 1341180, Note_on_c, 0, 74, 0
2, 1341180, Note_on_c, 0, 72, 100
2, 1341240, Note_on_c, 0, 72, 0
2, 1341240, Note_on_c, 0, 74, 100
2, 1341300, Note_on_c, 0, 74, 0
2, 1341300, Note_on_c, 0, 76, 100
2, 1341360, Note_on_c, 0, 76, 0
2, 1341360, Note_on_c, 0, 74, 100
2, 1341400, Note_on_c, 0, 74, 0
2, 1341400, Note_on_c, 0, 76, 100
2, 1341440, Note_on_c, 0, 76, 0
2, 1341440, Note_on_c, 0, 74, 100
2, 1341480, Note_on_c, 0, 74, 0
2, 1341480, Note_on_c, 0, 76, 100
2, 1341520, Note_on_c, 0, 76, 0
2, 1341520, Note_on_c, 0, 74, 100
2, 1341560, Note_on_c, 0, 74, 0
2, 1341560, Note_on_c, 0, 76, 100
2, 1341600, Note_on_c, 0, 76, 0
2, 1341600, Note_on_c, 0, 74, 100
2, 1341640, Note_on_c, 0, 74, 0
2, 1341640, Note_on_c, 0, 73, 100
2, 1341840, Note_on_c, 0, 73, 0
2, 1341840, Note_on_c, 0, 71, 100
2, 1341960, Note_on_c, 0, 71, 0
2, 1341960, Note_on_c, 0, 73, 100
2, 1342080, Note_on_c, 0, 73, 0
2, 1342080, Note_on_c, 0, 74, 100
2, 1342380, Note_on_c, 0, 74, 0
2, 1342380, Note_on_c, 0, 73, 100
2, 1342440, Note_on_c, 0, 73, 0
2, 1342440, Note_on_c, 0, 74, 100
2, 1342500, Note_on_c, 0, 74, 0
2, 1342500, Note_on_c, 0, 76, 100
2, 1342560, Note_on_c, 0, 76, 0
2, 1342560, Note_on_c, 0, 74, 100
2, 1342600, Note_on_c, 0, 74, 0
2, 1342600, Note_on_c, 0, 76, 100
2, 1342640, Note_on_c, 0, 76, 0
2, 1342640, Note_on_c, 0, 74, 100
2, 1342680, Note_on_c, 0, 74, 0
2, 1342680, Note_on_c, 0, 76, 100
2, 1342720, Note_on_c, 0, 76, 0
2, 1342720, Note_on_c, 0, 74, 100
2, 1342760, Note_on_c, 0, 74, 0
2, 1342760, Note_on_c, 0, 76, 100
2, 1342800, Note_on_c, 0, 76, 0
2, 1342800, Note_on_c, 0, 74, 100
2, 1342860, Note_on_c, 0, 74, 0
2, 1342860, Note_on_c, 0, 73, 100
2, 1342920, Note_on_c, 0, 73, 0
2, 1342920, Note_on_c, 0, 74, 100
2, 1342980, Note_on_c, 0, 74, 0
2, 1342980, Note_on_c, 0, 76, 100
2, 1343040, Note_on_c, 0, 76, 0
2, 1343040, Note_on_c, 0, 74, 100
2, 1343580, Note_on_c, 0, 74, 0
2, 1343580, Note_on_c, 0, 73, 100
2, 1343640, Note_on_c, 0, 73, 0
2, 1343640, Note_on_c, 0, 71, 100
2, 1343700, Note_on_c, 0, 71, 0
2, 1343700, Note_on_c, 0, 69, 100
2, 1343760, Note_on_c, 0, 69, 0
2, 1343760, Note_on_c, 0, 67, 100
2, 1343820, Note_on_c, 0, 67, 0
2, 1343820, Note_on_c, 0, 66, 100
2, 1343880, Note_on_c, 0, 66, 0
2, 1343880, Note_on_c, 0, 64, 100
2, 1343940, Note_on_c, 0, 64, 0
2, 1343940, Note_on_c, 0, 62, 100
2, 1344000, Note_on_c, 0, 62, 0
2, 1344000, Note_on_c, 0, 66, 100
2, 1344360, Note_on_c, 0, 66, 0
2, 1344360, Note_on_c, 0, 69, 100
2, 1344480, Note_on_c, 0, 69, 0
2, 1344480, Note_on_c, 0, 67, 100
2, 1344540, Note_on_c, 0, 67, 0
2, 1344540, Note_on_c, 0, 69, 100
2, 1344600, Note_on_c, 0, 69, 0
2, 1344600, Note_on_c, 0, 71, 100
2, 1344840, Note_on_c, 0, 71, 0
2, 1344840, Note_on_c, 0, 72, 100
2, 1345740, Note_on_c, 0, 72, 0
2, 1345740, Note_on_c, 0, 71, 100
2, 1345800, Note_on_c, 0, 71, 0
2, 1345800, Note_on_c, 0, 69, 100
2, 1345860, Note_on_c, 0, 69, 0
2, 1345860, Note_on_c, 0, 71, 100
2, 1345920, Note_on_c, 0, 71, 0
2, 1345920, Note_on_c, 0, 73, 100
2, 1346220, Note_on_c, 0, 73, 0
2, 1346220, Note_on_c, 0, 74, 100
2, 1346280, Note_on_c, 0, 74, 0
2, 1346280, Note_on_c, 0, 76, 100
2, 1346400, Note_on_c, 0, 76, 0
2, 1346400, Note_on_c, 0, 74, 100
2, 1346460, Note_on_c, 0, 74, 0
2, 1346460, Note_on_c, 0, 76, 100
2, 1346520, Note_on_c, 0, 76, 0
2, 1346520, Note_on_c, 0, 74, 100
2, 1346580, Note_on_c, 0, 74, 0
2, 1346580, Note_on_c, 0, 73, 100
2, 1346700, Note_on_c, 0, 73, 0
2, 1346700, Note_on_c, 0, 74, 100
2, 1346760, Note_on_c, 0, 74, 0
2, 1346760, Note_on_c, 0, 76, 100
2, 1346820, Note_on_c, 0, 76, 0
2, 1346820, Note_on_c, 0, 69, 100
2, 1346880, Note_on_c, 0, 69, 0
2, 1346880, Note_on_c, 0, 76, 100
2, 1347180, Note_on_c, 0, 76, 0
2, 1347180, Note_on_c, 0, 78, 100
2, 1347240, Note_on_c, 0, 78, 0
2, 1347240, Note_on_c, 0, 79, 100
2, 1347300, Note_on_c, 0, 79, 0
2, 1347300, Note_on_c, 0, 81, 100
2, 1347360, Note_on_c, 0, 81, 0
2, 1347360, Note_on_c, 0, 73, 100
2, 1347720, Note_on_c, 0, 73, 0
2, 1347720, Note_on_c, 0, 74, 100
2, 1347840, Note_on_c, 0, 74, 0
2, 1347840, Note_on_c, 0, 76, 100
2, 1348320, Note_on_c, 0, 76, 0
2, 1348320, Note_on_c, 0, 74, 100
2, 1348380, Note_on_c, 0, 74, 0
2, 1348380, Note_on_c, 0, 73, 100
2, 1348440, Note_on_c, 0, 73, 0
2, 1348440, Note_on_c, 0, 74, 100
2, 1348500, Note_on_c, 0, 74, 0
2, 1348500, Note_on_c, 0, 76, 100
2, 1348560, Note_on_c, 0, 76, 0
2, 1348560, Note_on_c, 0, 78, 100
2, 1348800, Note_on_c, 0, 78, 0
2, 1348800, Note_on_c, 0, 76, 100
2, 1348860, Note_on_c, 0, 76, 0
2, 1348860, Note_on_c, 0, 74, 100
2, 1348920, Note_on_c, 0, 74, 0
2, 1348920, Note_on_c, 0, 76, 100
2, 1348980, Note_on_c, 0, 76, 0
2, 1348980, Note_on_c, 0, 78, 100
2, 1349040, Note_on_c, 0, 78, 0
2, 1349040, Note_on_c, 0, 76, 100
2, 1349080, Note_on_c, 0, 76, 0
2, 1349080, Note_on_c, 0, 78, 100
2, 1349120, Note_on_c, 0, 78, 0
2, 1349120, Note_on_c, 0, 76, 100
2, 1349160, Note_on_c, 0, 76, 0
2, 1349160, Note_on_c, 0, 78, 100
2, 1349200, Note_on_c, 0, 78, 0
2, 1349200, Note_on_c, 0, 76, 100
2, 1349240, Note_on_c, 0, 76, 0
2, 1349240, Note_on_c, 0, 74, 100
2, 1349760, Note_on_c, 0, 74, 0
2, 1349760, Note_on_c, 0, 67, 100
2, 1352220, Note_on_c, 0, 67, 0
2, 1352220, Note_on_c, 0, 69, 100
2, 1352280, Note_on_c, 0, 69, 0
2, 1352280, Note_on_c, 0, 71, 100
2, 1352340, Note_on_c, 0, 71, 0
2, 1352340, Note_on_c, 0, 72, 100
2, 1352400, Note_on_c, 0, 72, 0
2, 1352400, Note_on_c, 0, 74, 100
2, 1352460, Note_on_c, 0, 74, 0
2, 1352460, Note_on_c, 0, 76, 100
2, 1352520, Note_on_c, 0, 76, 0
2, 1352520, Note_on_c, 0, 78, 100
2, 1352580, Note_on_c, 0, 78, 0
2, 1352580, Note_on_c, 0, 79, 100
2, 1352640, Note_on_c, 0, 79, 0
2, 1352640, Note_on_c, 0, 74, 100
2, 1353000, Note_on_c, 0, 74, 0
2, 1353000, Note_on_c, 0, 71, 100
2, 1353120, Note_on_c, 0, 71, 0
2, 1353120, Note_on_c, 0, 67, 100
2, 1353480, Note_on_c, 0, 67, 0
2, 1353480, Note_on_c, 0, 74, 100
2, 1353600, Note_on_c, 0, 74, 0
2, 1353600, Note_on_c, 0, 72, 100
2, 1353660, Note_on_c, 0, 72, 0
2, 1353660, Note_on_c, 0, 74, 100
2, 1353720, Note_on_c, 0, 74, 0
2, 1353720, Note_on_c, 0, 76, 100
2, 1354320, Note_on_c, 0, 76, 0
2, 1354320, Note_on_c, 0, 74, 100
2, 1354560, Note_on_c, 0, 74, 0
2, 1354560, Note_on_c, 0, 72, 100
2, 1354680, Note_on_c, 0, 72, 0
2, 1354680, Note_on_c, 0, 71, 100
2, 1354740, Note_on_c, 0, 71, 0
2, 1354740, Note_on_c, 0, 72, 100
2, 1354800, Note_on_c, 0, 72, 0
2, 1354800, Note_on_c, 0, 74, 100
2, 1354860, Note_on_c, 0, 74, 0
2, 1354860, Note_on_c, 0, 72, 100
2, 1354900, Note_on_c, 0, 72, 0
2, 1354900, Note_on_c, 0, 74, 100
2, 1354940, Note_on_c, 0, 74, 0
2, 1354940, Note_on_c, 0, 72, 100
2, 1354980, Note_on_c, 0, 72, 0
2, 1354980, Note_on_c, 0, 74, 100
2, 1355020, Note_on_c, 0, 74, 0
2, 1355020, Note_on_c, 0, 72, 100
2, 1355060, Note_on_c, 0, 72, 0
2, 1355060, Note_on_c, 0, 74, 100
2, 1355100, Note_on_c, 0, 74, 0
2, 1355100, Note_on_c, 0, 72, 100
2, 1355140, Note_on_c, 0, 72, 0
2, 1355140, Note_on_c, 0, 74, 100
2, 1355180, Note_on_c, 0, 74, 0
2, 1355180, Note_on_c, 0, 72, 100
2, 1355220, Note_on_c, 0, 72, 0
2, 1355220, Note_on_c, 0, 74, 100
2, 1355260, Note_on_c, 0, 74, 0
2, 1355260, Note_on_c, 0, 72, 100
2, 1355300, Note_on_c, 0, 72, 0
2, 1355300, Note_on_c, 0, 71, 100
2, 1355340, Note_on_c, 0, 71, 0
2, 1355340, Note_on_c, 0, 72, 100
2, 1355400, Note_on_c, 0, 72, 0
2, 1355400, Note_on_c, 0, 74, 100
2, 1355460, Note_on_c, 0, 74, 0
2, 1355460, Note_on_c, 0, 67, 100
2, 1355520, Note_on_c, 0, 67, 0
2, 1355520, Note_on_c, 0, 79, 100
2, 1355880, Note_on_c, 0, 79, 0
2, 1355880, Note_on_c, 0, 78, 100
2, 1355940, Note_on_c, 0, 78, 0
2, 1355940, Note_on_c, 0, 79, 100
2, 1356000, Note_on_c, 0, 79, 0
2, 1356000, Note_on_c, 0, 76, 100
2, 1356360, Note_on_c, 0, 76, 0
2, 1356360, Note_on_c, 0, 74, 100
2, 1356480, Note_on_c, 0, 74, 0
2, 1356480, Note_on_c, 0, 73, 100
2, 1356600, Note_on_c, 0, 73, 0
2, 1356600, Note_on_c, 0, 83, 100
2, 1356840, Note_on_c, 0, 83, 0
2, 1356840, Note_on_c, 0, 81, 100
2, 1356960, Note_on_c, 0, 81, 0
2, 1356960, Note_on_c, 0, 79, 100
2, 1357440, Note_on_c, 0, 79, 0
2, 1357440, Note_on_c, 0, 78, 100
2, 1357500, Note_on_c, 0, 78, 0
2, 1357500, Note_on_c, 0, 76, 100
2, 1357560, Note_on_c, 0, 76, 0
2, 1357560, Note_on_c, 0, 78, 100
2, 1357620, Note_on_c, 0, 78, 0
2, 1357620, Note_on_c, 0, 79, 100
2, 1357680, Note_on_c, 0, 79, 0
2, 1357680, Note_on_c, 0, 78, 100
2, 1357720, Note_on_c, 0, 78, 0
2, 1357720, Note_on_c, 0, 79, 100
2, 1357760, Note_on_c, 0, 79, 0
2, 1357760, Note_on_c, 0, 78, 100
2, 1357800, Note_on_c, 0, 78, 0
2, 1357800, Note_on_c, 0, 79, 100
2, 1357840, Note_on_c, 0, 79, 0
2, 1357840, Note_on_c, 0, 78, 100
2, 1357880, Note_on_c, 0, 78, 0
2, 1357880, Note_on_c, 0, 79, 100
2, 1358400, Note_on_c, 0, 79, 0
2, 1358400, Note_on_c, 0, 81, 100
2, 1359660, Note_on_c, 0, 81, 0
2, 1359660, Note_on_c, 0, 79, 100
2, 1359720, Note_on_c, 0, 79, 0
2, 1359720, Note_on_c, 0, 78, 100
2, 1359780, Note_on_c, 0, 78, 0
2, 1359780, Note_on_c, 0, 79, 100
2, 1359840, Note_on_c, 0, 79, 0
2, 1359840, Note_on_c, 0, 74, 100
2, 1360200, Note_on_c, 0, 74, 0
2, 1360200, Note_on_c, 0, 72, 100
2, 1361280, Note_on_c, 0, 72, 0
2, 1361280, Note_on_c, 0, 79, 100
2, 1362720, Note_on_c, 0, 79, 0
2, 1362720, Note_on_c, 0, 78, 100
2, 1362780, Note_on_c, 0, 78, 0
2, 1362780, Note_on_c, 0, 79, 100
2, 1363200, Note_on_c, 0, 79, 0
2, 1363200, Note_on_c, 0, 83, 100
2, 1363740, Note_on_c, 0, 83, 0
2, 1363740, Note_on_c, 0, 81, 100
2, 1363800, Note_on_c, 0, 81, 0
2, 1363800, Note_on_c, 0, 79, 100
2, 1363860, Note_on_c, 0, 79, 0
2, 1363860, Note_on_c, 0, 78, 100
2, 1363920, Note_on_c, 0, 78, 0
2, 1363920, Note_on_c, 0, 76, 100
2, 1363980, Note_on_c, 0, 76, 0
2, 1363980, Note_on_c, 0, 74, 100
2, 1364040, Note_on_c, 0, 74, 0
2, 1364040, Note_on_c, 0, 72, 100
2, 1364100, Note_on_c, 0, 72, 0
2, 1364100, Note_on_c, 0, 81, 100
2, 1364160, Note_on_c, 0, 81, 0
2, 1364160, Note_on_c, 0, 72, 100
2, 1364520, Note_on_c, 0, 72, 0
2, 1364520, Note_on_c, 0, 81, 100
2, 1364640, Note_on_c, 0, 81, 0
2, 1364640, Note_on_c, 0, 72, 100
2, 1365120, Note_on_c, 0, 72, 0
2, 1365120, Note_on_c, 0, 71, 100
2, 1365180, Note_on_c, 0, 71, 0
2, 1365180, Note_on_c, 0, 69, 100
2, 1365240, Note_on_c, 0, 69, 0
2, 1365240, Note_on_c, 0, 71, 100
2, 1365300, Note_on_c, 0, 71, 0
2, 1365300, Note_on_c, 0, 72, 100
2, 1365360, Note_on_c, 0, 72, 0
2, 1365360, Note_on_c, 0, 71, 100
2, 1365400, Note_on_c, 0, 71, 0
2, 1365400, Note_on_c, 0, 72, 100
2, 1365440, Note_on_c, 0, 72, 0
2, 1365440, Note_on_c, 0, 71, 100
2, 1365480, Note_on_c, 0, 71, 0
2, 1365480, Note_on_c, 0, 72, 100
2, 1365520, Note_on_c, 0, 72, 0
2, 1365520, Note_on_c, 0, 71, 100
2, 1365560, Note_on_c, 0, 71, 0
2, 1365560, Note_on_c, 0, 69, 100
2, 1365900, Note_on_c, 0, 69, 0
2, 1365900, Note_on_c, 0, 67, 100
2, 1365960, Note_on_c, 0, 67, 0
2, 1365960, Note_on_c, 0, 66, 100
2, 1366020, Note_on_c, 0, 66, 0
2, 1366020, Note_on_c, 0, 67, 100
2, 1366080, Note_on_c, 0, 67, 0
2, 1366080, Note_on_c, 0, 74, 100
2, 1366200, Note_on_c, 0, 74, 0
2, 1366200, Note_on_c, 0, 76, 100
2, 1366320, Note_on_c, 0, 76, 0
2, 1366320, Note_on_c, 0, 78, 100
2, 1366440, Note_on_c, 0, 78, 0
2, 1366440, Note_on_c, 0, 79, 100
2, 1366560, Note_on_c, 0, 79, 0
2, 1366560, Note_on_c, 0, 78, 100
2, 1366680, Note_on_c, 0, 78, 0
2, 1366680, Note_on_c, 0, 79, 100
2, 1366800, Note_on_c, 0, 79, 0
2, 1366800, Note_on_c, 0, 81, 100
2, 1366920, Note_on_c, 0, 81, 0
2, 1366920, Note_on_c, 0, 83, 100
2, 1367040, Note_on_c, 0, 83, 0
2, 1367040, Note_on_c, 0, 81, 100
2, 1367340, Note_on_c, 0, 81, 0
2, 1367340, Note_on_c, 0, 79, 100
2, 1367400, Note_on_c, 0, 79, 0
2, 1367400, Note_on_c, 0, 78, 100
2, 1367460, Note_on_c, 0, 78, 0
2, 1367460, Note_on_c, 0, 79, 100
2, 1367520, Note_on_c, 0, 79, 0
2, 1367520, Note_on_c, 0, 78, 100
2, 1367820, Note_on_c, 0, 78, 0
2, 1367820, Note_on_c, 0, 76, 100
2, 1367880, Note_on_c, 0, 76, 0
2, 1367880, Note_on_c, 0, 75, 100
2, 1367940, Note_on_c, 0, 75, 0
2, 1367940, Note_on_c, 0, 76, 100
2, 1368000, Note_on_c, 0, 76, 0
2, 1368000, Note_on_c, 0, 71, 100
2, 1368360, Note_on_c, 0, 71, 0
2, 1368360, Note_on_c, 0, 73, 100
2, 1368480, Note_on_c, 0, 73, 0
2, 1368480, Note_on_c, 0, 71, 100
2, 1368520, Note_on_c, 0, 71, 0
2, 1368520, Note_on_c, 0, 73, 100
2, 1368560, Note_on_c, 0, 73, 0
2, 1368560, Note_on_c, 0, 74, 100
2, 1368960, Note_on_c, 0, 74, 0
2, 1368960, Note_on_c, 0, 73, 100
2, 1369080, Note_on_c, 0, 73, 0
2, 1369080, Note_on_c, 0, 76, 100
2, 1369260, Note_on_c, 0, 76, 0
2, 1369260, Note_on_c, 0, 78, 100
2, 1369320, Note_on_c, 0, 78, 0
2, 1369320, Note_on_c, 0, 79, 100
2, 1369380, Note_on_c, 0, 79, 0
2, 1369380, Note_on_c, 0, 81, 100
2, 1370700, Note_on_c, 0, 81, 0
2, 1370700, Note_on_c, 0, 79, 100
2, 1370760, Note_on_c, 0, 79, 0
2, 1370760, Note_on_c, 0, 78, 100
2, 1370820, Note_on_c, 0, 78, 0
2, 1370820, Note_on_c, 0, 79, 100
2, 1370880, Note_on_c, 0, 79, 0
2, 1370880, Note_on_c, 0, 78, 100
2, 1371180, Note_on_c, 0, 78, 0
2, 1371180, Note_on_c, 0, 76, 100
2, 1371240, Note_on_c, 0, 76, 0
2, 1371240, Note_on_c, 0, 75, 100
2, 1371300, Note_on_c, 0, 75, 0
2, 1371300, Note_on_c, 0, 76, 100
2, 1371360, Note_on_c, 0, 76, 0
2, 1371360, Note_on_c, 0, 83, 100
2, 1371720, Note_on_c, 0, 83, 0
2, 1371720, Note_on_c, 0, 76, 100
2, 1371840, Note_on_c, 0, 76, 0
2, 1371840, Note_on_c, 0, 74, 100
2, 1371900, Note_on_c, 0, 74, 0
2, 1371900, Note_on_c, 0, 72, 100
2, 1371960, Note_on_c, 0, 72, 0
2, 1371960, Note_on_c, 0, 74, 100
2, 1372020, Note_on_c, 0, 74, 0
2, 1372020, Note_on_c, 0, 76, 100
2, 1372080, Note_on_c, 0, 76, 0
2, 1372080, Note_on_c, 0, 74, 100
2, 1372120, Note_on_c, 0, 74, 0
2, 1372120, Note_on_c, 0, 76, 100
2, 1372160, Note_on_c, 0, 76, 0
2, 1372160, Note_on_c, 0, 74, 100
2, 1372200, Note_on_c, 0, 74, 0
2, 1372200, Note_on_c, 0, 76, 100
2, 1372240, Note_on_c, 0, 76, 0
2, 1372240, Note_on_c, 0, 74, 100
2, 1372280, Note_on_c, 0, 74, 0
2, 1372280, Note_on_c, 0, 76, 100
2, 1372320, Note_on_c, 0, 76, 0
2, 1372320, Note_on_c, 0, 74, 100
2, 1372360, Note_on_c, 0, 74, 0
2, 1372360, Note_on_c, 0, 73, 100
2, 1372560, Note_on_c, 0, 73, 0
2, 1372560, Note_on_c, 0, 71, 100
2, 1372680, Note_on_c, 0, 71, 0
2, 1372680, Note_on_c, 0, 73, 100
2, 1372800, Note_on_c, 0, 73, 0
2, 1372800, Note_on_c, 0, 74, 100
2, 1373100, Note_on_c, 0, 74, 0
2, 1373100, Note_on_c, 0, 73, 100
2, 1373160, Note_on_c, 0, 73, 0
2, 1373160, Note_on_c, 0, 74, 100
2, 1373220, Note_on_c, 0, 74, 0
2, 1373220, Note_on_c, 0, 76, 100
2, 1373280, Note_on_c, 0, 76, 0
2, 1373280, Note_on_c, 0, 74, 100
2, 1373320, Note_on_c, 0, 74, 0
2, 1373320, Note_on_c, 0, 76, 100
2, 1373360, Note_on_c, 0, 76, 0
2, 1373360, Note_on_c, 0, 74, 100
2, 1373400, Note_on_c, 0, 74, 0
2, 1373400, Note_on_c, 0, 76, 100
2, 1373440, Note_on_c, 0, 76, 0
2, 1373440, Note_on_c, 0, 74, 100
2, 1373480, Note_on_c, 0, 74, 0
2, 1373480, Note_on_c, 0, 76, 100
2, 1373520, Note_on_c, 0, 76, 0
2, 1373520, Note_on_c, 0, 74, 100
2, 1373580, Note_on_c, 0, 74, 0
2, 1373580, Note_on_c, 0, 73, 100
2, 1373640, Note_on_c, 0, 73, 0
2, 1373640, Note_on_c, 0, 74, 100
2, 1373700, Note_on_c, 0, 74, 0
2, 1373700, Note_on_c, 0, 76, 100
2, 1373760, Note_on_c, 0, 76, 0
2, 1373760, Note_on_c, 0, 74, 100
2, 1374300, Note_on_c, 0, 74, 0
2, 1374300, Note_on_c, 0, 73, 100
2, 1374360, Note_on_c, 0, 73, 0
2, 1374360, Note_on_c, 0, 71, 100
2, 1374420, Note_on_c, 0, 71, 0
2, 1374420, Note_on_c, 0, 69, 100
2, 1374480, Note_on_c, 0, 69, 0
2, 1374480, Note_on_c, 0, 67, 100
2, 1374540, Note_on_c, 0, 67, 0
2, 1374540, Note_on_c, 0, 66, 100
2, 1374600, Note_on_c, 0, 66, 0
2, 1374600, Note_on_c, 0, 64, 100
2, 1374660, Note_on_c, 0, 64, 0
2, 1374660, Note_on_c, 0, 62, 100
2, 1374720, Note_on_c, 0, 62, 0
2, 1374720, Note_on_c, 0, 66, 100
2, 1375080, Note_on_c, 0, 66, 0
2, 1375080, Note_on_c, 0, 69, 100
2, 1375200, Note_on_c, 0, 69, 0
2, 1375200, Note_on_c, 0, 67, 100
2, 1375260, Note_on_c, 0, 67, 0
2, 1375260, Note_on_c, 0, 69, 100
2, 1375320, Note_on_c, 0, 69, 0
2, 1375320, Note_on_c, 0, 71, 100
2, 1375560, Note_on_c, 0, 71, 0
2, 1375560, Note_on_c, 0, 72, 100
2, 1376460, Note_on_c, 0, 72, 0
2, 1376460, Note_on_c, 0, 71, 100
2, 1376520, Note_on_c, 0, 71, 0
2, 1376520, Note_on_c, 0, 69, 100
2, 1376580, Note_on_c, 0, 69, 0
2, 1376580, Note_on_c, 0, 71, 100
2, 1376640, Note_on_c, 0, 71, 0
2, 1376640, Note_on_c, 0, 73, 100
2, 1376940, Note_on_c, 0, 73, 0
2, 1376940, Note_on_c, 0, 74, 100
2, 1377000, Note_on_c, 0, 74, 0
2, 1377000, Note_on_c, 0, 76, 100
2, 1377120, Note_on_c, 0, 76, 0
2, 1377120, Note_on_c, 0, 74, 100
2, 1377180, Note_on_c, 0, 74, 0
2, 1377180, Note_on_c, 0, 76, 100
2, 1377240, Note_on_c, 0, 76, 0
2, 1377240, Note_on_c, 0, 74, 100
2, 1377300, Note_on_c, 0, 74, 0
2, 1377300, Note_on_c, 0, 73, 100
2, 1377420, Note_on_c, 0, 73, 0
2, 1377420, Note_on_c, 0, 74, 100
2, 1377480, Note_on_c, 0, 74, 0
2, 1377480, Note_on_c, 0, 76, 100
2, 1377540, Note_on_c, 0, 76, 0
2, 1377540, Note_on_c, 0, 69, 100
2, 1377600, Note_on_c, 0, 69, 0
2, 1377600, Note_on_c, 0, 76, 100
2, 1377900, Note_on_c, 0, 76, 0
2, 1377900, Note_on_c, 0, 78, 100
2, 1377960, Note_on_c, 0, 78, 0
2, 1377960, Note_on_c, 0, 79, 100
2, 1378020, Note_on_c, 0, 79, 0
2, 1378020, Note_on_c, 0, 81, 100
2, 1378080, Note_on_c, 0, 81, 0
2, 1378080, Note_on_c, 0, 73, 100
2, 1378440, Note_on_c, 0, 73, 0
2, 1378440, Note_on_c, 0, 74, 100
2, 1378560, Note_on_c, 0, 74, 0
2, 1378560, Note_on_c, 0, 76, 100
2, 1379040, Note_on_c, 0, 76, 0
2, 1379040, Note_on_c, 0, 74, 100
2, 1379100, Note_on_c, 0, 74, 0
2, 1379100, Note_on_c, 0, 73, 100
2, 1379160, Note_on_c, 0, 73, 0
2, 1379160, Note_on_c, 0, 74, 100
2, 1379220, Note_on_c, 0, 74, 0
2, 1379220, Note_on_c, 0, 76, 100
2, 1379280, Note_on_c, 0, 76, 0
2, 1379280, Note_on_c, 0, 78, 100
2, 1379520, Note_on_c, 0, 78, 0
2, 1379520, Note_on_c, 0, 76, 100
2, 1379580, Note_on_c, 0, 76, 0
2, 1379580, Note_on_c, 0, 74, 100
2, 1379640, Note_on_c, 0, 74, 0
2, 1379640, Note_on_c, 0, 76, 100
2, 1379700, Note_on_c, 0, 76, 0
2, 1379700, Note_on_c, 0, 78, 100
2, 1379760, Note_on_c, 0, 78, 0
2, 1379760, Note_on_c, 0, 76, 100
2, 1379800, Note_on_c, 0, 76, 0
2, 1379800, Note_on_c, 0, 78, 100
2, 1379840, Note_on_c, 0, 78, 0
2, 1379840, Note_on_c, 0, 76, 100
2, 1379880, Note_on_c, 0, 76, 0
2, 1379880, Note_on_c, 0, 78, 100
2, 1379920, Note_on_c, 0, 78, 0
2, 1379920, Note_on_c, 0, 76, 100
2, 1379960, Note_on_c, 0, 76, 0
2, 1379960, Note_on_c, 0, 74, 100
2, 1380480, Note_on_c, 0, 74, 0
2, 1380480, Note_on_c, 0, 81, 100
2, 1380720, Note_on_c, 0, 81, 0
2, 1380720, Note_on_c, 0, 79, 100
2, 1380840, Note_on_c, 0, 79, 0
2, 1380840, Note_on_c, 0, 78, 100
2, 1380960, Note_on_c, 0, 78, 0
2, 1380960, Note_on_c, 0, 76, 100
2, 1381080, Note_on_c, 0, 76, 0
2, 1381080, Note_on_c, 0, 78, 100
2, 1381200, Note_on_c, 0, 78, 0
2, 1381200, Note_on_c, 0, 81, 100
2, 1381440, Note_on_c, 0, 81, 0
2, 1381440, Note_on_c, 0, 79, 100
2, 1381500, Note_on_c, 0, 79, 0
2, 1381500, Note_on_c, 0, 78, 100
2, 1381560, Note_on_c, 0, 78, 0
2, 1381560, Note_on_c, 0, 79, 100
2, 1381620, Note_on_c, 0, 79, 0
2, 1381620, Note_on_c, 0, 81, 100
2, 1381680, Note_on_c, 0, 81, 0
2, 1381680, Note_on_c, 0, 74, 100
2, 1381920, Note_on_c, 0, 74, 0
2, 1381920, Note_on_c, 0, 78, 100
2, 1382040, Note_on_c, 0, 78, 0
2, 1382040, Note_on_c, 0, 76, 100
2, 1382160, Note_on_c, 0, 76, 0
2, 1382160, Note_on_c, 0, 79, 100
2, 1382280, Note_on_c, 0, 79, 0
2, 1382280, Note_on_c, 0, 78, 100
2, 1382400, Note_on_c, 0, 78, 0
2, 1382400, Note_on_c, 0, 81, 100
2, 1382520, Note_on_c, 0, 81, 0
2, 1382520, Note_on_c, 0, 79, 100
2, 1382640, Note_on_c, 0, 79, 0
2, 1382640, Note_on_c, 0, 78, 100
2, 1382880, Note_on_c, 0, 78, 0
2, 1382880, Note_on_c, 0, 79, 100
2, 1383120, Note_on_c, 0, 79, 0
2, 1383120, Note_on_c, 0, 76, 100
2, 1383360, Note_on_c, 0, 76, 0
2, 1383360, Note_on_c, 0, 75, 100
2, 1383600, Note_on_c, 0, 75, 0
2, 1383600, Note_on_c, 0, 76, 100
2, 1383840, Note_on_c, 0, 76, 0
2, 1383840, Note_on_c, 0, 81, 100
2, 1384080, Note_on_c, 0, 81, 0
2, 1384080, Note_on_c, 0, 79, 100
2, 1385040, Note_on_c, 0, 79, 0
2, 1385040, Note_on_c, 0, 76, 100
2, 1385160, Note_on_c, 0, 76, 0
2, 1385160, Note_on_c, 0, 78, 100
2, 1385280, Note_on_c, 0, 78, 0
2, 1385280, Note_on_c, 0, 75, 100
2, 1385400, Note_on_c, 0, 75, 0
2, 1385400, Note_on_c, 0, 83, 100
2, 1385520, Note_on_c, 0, 83, 0
2, 1385520, Note_on_c, 0, 84, 100
2, 1386360, Note_on_c, 0, 84, 0
2, 1386360, Note_on_c, 0, 83, 100
2, 1386480, Note_on_c, 0, 83, 0
2, 1386480, Note_on_c, 0, 81, 100
2, 1386600, Note_on_c, 0, 81, 0
2, 1386600, Note_on_c, 0, 79, 100
2, 1386720, Note_on_c, 0, 79, 0
2, 1386720, Note_on_c, 0, 78, 100
2, 1386840, Note_on_c, 0, 78, 0
2, 1386840, Note_on_c, 0, 79, 100
2, 1386960, Note_on_c, 0, 79, 0
2, 1386960, Note_on_c, 0, 76, 100
2, 1387080, Note_on_c, 0, 76, 0
2, 1387080, Note_on_c, 0, 81, 100
2, 1387200, Note_on_c, 0, 81, 0
2, 1387200, Note_on_c, 0, 76, 100
2, 1387320, Note_on_c, 0, 76, 0
2, 1387320, Note_on_c, 0, 83, 100
2, 1387440, Note_on_c, 0, 83, 0
2, 1387440, Note_on_c, 0, 76, 100
2, 1387560, Note_on_c, 0, 76, 0
2, 1387560, Note_on_c, 0, 84, 100
2, 1387680, Note_on_c, 0, 84, 0
2, 1387680, Note_on_c, 0, 83, 100
2, 1387800, Note_on_c, 0, 83, 0
2, 1387800, Note_on_c, 0, 81, 100
2, 1387920, Note_on_c, 0, 81, 0
2, 1387920, Note_on_c, 0, 79, 100
2, 1388040, Note_on_c, 0, 79, 0
2, 1388040, Note_on_c, 0, 78, 100
2, 1388160, Note_on_c, 0, 78, 0
2, 1388160, Note_on_c, 0, 76, 100
2, 1388280, Note_on_c, 0, 76, 0
2, 1388280, Note_on_c, 0, 74, 100
2, 1388400, Note_on_c, 0, 74, 0
2, 1388400, Note_on_c, 0, 78, 100
2, 1388520, Note_on_c, 0, 78, 0
2, 1388520, Note_on_c, 0, 76, 100
2, 1388640, Note_on_c, 0, 76, 0
2, 1388640, Note_on_c, 0, 79, 100
2, 1388760, Note_on_c, 0, 79, 0
2, 1388760, Note_on_c, 0, 78, 100
2, 1388880, Note_on_c, 0, 78, 0
2, 1388880, Note_on_c, 0, 81, 100
2, 1389000, Note_on_c, 0, 81, 0
2, 1389000, Note_on_c, 0, 79, 100
2, 1389120, Note_on_c, 0, 79, 0
2, 1389120, Note_on_c, 0, 81, 100
2, 1389240, Note_on_c, 0, 81, 0
2, 1389240, Note_on_c, 0, 83, 100
2, 1389360, Note_on_c, 0, 83, 0
2, 1389360, Note_on_c, 0, 81, 100
2, 1389420, Note_on_c, 0, 81, 0
2, 1389420, Note_on_c, 0, 83, 100
2, 1389480, Note_on_c, 0, 83, 0
2, 1389480, Note_on_c, 0, 81, 100
2, 1389540, Note_on_c, 0, 81, 0
2, 1389540, Note_on_c, 0, 83, 100
2, 1389600, Note_on_c, 0, 83, 0
2, 1389600, Note_on_c, 0, 81, 100
2, 1389660, Note_on_c, 0, 81, 0
2, 1389660, Note_on_c, 0, 79, 100
2, 1389720, Note_on_c, 0, 79, 0
2, 1389720, Note_on_c, 0, 81, 100
2, 1389780, Note_on_c, 0, 81, 0
2, 1389780, Note_on_c, 0, 83, 100
2, 1389840, Note_on_c, 0, 83, 0
2, 1389840, Note_on_c, 0, 79, 100
2, 1390320, Note_on_c, 0, 79, 0
2, 1390320, Note_on_c, 0, 76, 100
2, 1390560, Note_on_c, 0, 76, 0
2, 1390560, Note_on_c, 0, 78, 100
2, 1390800, Note_on_c, 0, 78, 0
2, 1390800, Note_on_c, 0, 75, 100
2, 1391040, Note_on_c, 0, 75, 0
2, 1391040, Note_on_c, 0, 76, 100
2, 1392240, Note_on_c, 0, 76, 0
2, 1392240, Note_on_c, 0, 74, 100
2, 1392360, Note_on_c, 0, 74, 0
2, 1392360, Note_on_c, 0, 72, 100
2, 1392480, Note_on_c, 0, 72, 0
2, 1392480, Note_on_c, 0, 71, 100
2, 1392600, Note_on_c, 0, 71, 0
2, 1392600, Note_on_c, 0, 72, 100
2, 1392720, Note_on_c, 0, 72, 0
2, 1392720, Note_on_c, 0, 74, 100
2, 1392960, Note_on_c, 0, 74, 0
2, 1392960, Note_on_c, 0, 76, 100
2, 1393200, Note_on_c, 0, 76, 0
2, 1393200, Note_on_c, 0, 69, 100
2, 1393440, Note_on_c, 0, 69, 0
2, 1393440, Note_on_c, 0, 72, 100
2, 1393560, Note_on_c, 0, 72, 0
2, 1393560, Note_on_c, 0, 71, 100
2, 1393680, Note_on_c, 0, 71, 0
2, 1393680, Note_on_c, 0, 74, 100
2, 1393800, Note_on_c, 0, 74, 0
2, 1393800, Note_on_c, 0, 73, 100
2, 1393920, Note_on_c, 0, 73, 0
2, 1393920, Note_on_c, 0, 76, 100
2, 1394040, Note_on_c, 0, 76, 0
2, 1394040, Note_on_c, 0, 74, 100
2, 1394160, Note_on_c, 0, 74, 0
2, 1394160, Note_on_c, 0, 76, 100
2, 1394220, Note_on_c, 0, 76, 0
2, 1394220, Note_on_c, 0, 78, 100
2, 1394280, Note_on_c, 0, 78, 0
2, 1394280, Note_on_c, 0, 79, 100
2, 1394400, Note_on_c, 0, 79, 0
2, 1394400, Note_on_c, 0, 78, 100
2, 1394460, Note_on_c, 0, 78, 0
2, 1394460, Note_on_c, 0, 76, 100
2, 1394520, Note_on_c, 0, 76, 0
2, 1394520, Note_on_c, 0, 78, 100
2, 1394580, Note_on_c, 0, 78, 0
2, 1394580, Note_on_c, 0, 79, 100
2, 1394640, Note_on_c, 0, 79, 0
2, 1394640, Note_on_c, 0, 78, 100
2, 1394670, Note_on_c, 0, 78, 0
2, 1394670, Note_on_c, 0, 79, 100
2, 1394700, Note_on_c, 0, 79, 0
2, 1394700, Note_on_c, 0, 78, 100
2, 1394730, Note_on_c, 0, 78, 0
2, 1394730, Note_on_c, 0, 76, 100
2, 1394760, Note_on_c, 0, 76, 0
2, 1394760, Note_on_c, 0, 78, 100
2, 1394820, Note_on_c, 0, 78, 0
2, 1394820, Note_on_c, 0, 79, 100
2, 1394880, Note_on_c, 0, 79, 0
2, 1394880, Note_on_c, 0, 78, 100
2, 1395120, Note_on_c, 0, 78, 0
2, 1395120, Note_on_c, 0, 76, 100
2, 1395240, Note_on_c, 0, 76, 0
2, 1395240, Note_on_c, 0, 74, 100
2, 1395360, Note_on_c, 0, 74, 0
2, 1395360, Note_on_c, 0, 72, 100
2, 1395480, Note_on_c, 0, 72, 0
2, 1395480, Note_on_c, 0, 71, 100
2, 1395600, Note_on_c, 0, 71, 0
2, 1395600, Note_on_c, 0, 74, 100
2, 1395720, Note_on_c, 0, 74, 0
2, 1395720, Note_on_c, 0, 72, 100
2, 1395840, Note_on_c, 0, 72, 0
2, 1395840, Note_on_c, 0, 76, 100
2, 1395960, Note_on_c, 0, 76, 0
2, 1395960, Note_on_c, 0, 74, 100
2, 1396080, Note_on_c, 0, 74, 0
2, 1396080, Note_on_c, 0, 77, 100
2, 1396200, Note_on_c, 0, 77, 0
2, 1396200, Note_on_c, 0, 76, 100
2, 1396320, Note_on_c, 0, 76, 0
2, 1396320, Note_on_c, 0, 74, 100
2, 1397160, Note_on_c, 0, 74, 0
2, 1397160, Note_on_c, 0, 72, 100
2, 1397280, Note_on_c, 0, 72, 0
2, 1397280, Note_on_c, 0, 71, 100
2, 1397400, Note_on_c, 0, 71, 0
2, 1397400, Note_on_c, 0, 72, 100
2, 1397520, Note_on_c, 0, 72, 0
2, 1397520, Note_on_c, 0, 78, 100
2, 1397640, Note_on_c, 0, 78, 0
2, 1397640, Note_on_c, 0, 81, 100
2, 1397760, Note_on_c, 0, 81, 0
2, 1397760, Note_on_c, 0, 74, 100
2, 1397880, Note_on_c, 0, 74, 0
2, 1397880, Note_on_c, 0, 72, 100
2, 1398000, Note_on_c, 0, 72, 0
2, 1398000, Note_on_c, 0, 71, 100
2, 1398120, Note_on_c, 0, 71, 0
2, 1398120, Note_on_c, 0, 72, 100
2, 1398240, Note_on_c, 0, 72, 0
2, 1398240, Note_on_c, 0, 69, 100
2, 1398360, Note_on_c, 0, 69, 0
2, 1398360, Note_on_c, 0, 71, 100
2, 1398480, Note_on_c, 0, 71, 0
2, 1398480, Note_on_c, 0, 76, 100
2, 1398600, Note_on_c, 0, 76, 0
2, 1398600, Note_on_c, 0, 74, 100
2, 1398720, Note_on_c, 0, 74, 0
2, 1398720, Note_on_c, 0, 72, 100
2, 1398840, Note_on_c, 0, 72, 0
2, 1398840, Note_on_c, 0, 74, 100
2, 1398960, Note_on_c, 0, 74, 0
2, 1398960, Note_on_c, 0, 80, 100
2, 1399080, Note_on_c, 0, 80, 0
2, 1399080, Note_on_c, 0, 83, 100
2, 1399200, Note_on_c, 0, 83, 0
2, 1399200, Note_on_c, 0, 76, 100
2, 1399320, Note_on_c, 0, 76, 0
2, 1399320, Note_on_c, 0, 74, 100
2, 1399440, Note_on_c, 0, 74, 0
2, 1399440, Note_on_c, 0, 72, 100
2, 1399560, Note_on_c, 0, 72, 0
2, 1399560, Note_on_c, 0, 74, 100
2, 1399680, Note_on_c, 0, 74, 0
2, 1399680, Note_on_c, 0, 71, 100
2, 1399800, Note_on_c, 0, 71, 0
2, 1399800, Note_on_c, 0, 72, 100
2, 1399920, Note_on_c, 0, 72, 0
2, 1399920, Note_on_c, 0, 71, 100
2, 1400760, Note_on_c, 0, 71, 0
2, 1400760, Note_on_c, 0, 69, 100
2, 1400880, Note_on_c, 0, 69, 0
2, 1400880, Note_on_c, 0, 71, 100
2, 1401000, Note_on_c, 0, 71, 0
2, 1401000, Note_on_c, 0, 72, 100
2, 1401120, Note_on_c, 0, 72, 0
2, 1401120, Note_on_c, 0, 69, 100
2, 1401240, Note_on_c, 0, 69, 0
2, 1401240, Note_on_c, 0, 74, 100
2, 1401360, Note_on_c, 0, 74, 0
2, 1401360, Note_on_c, 0, 71, 100
2, 1401840, Note_on_c, 0, 71, 0
2, 1401840, Note_on_c, 0, 67, 100
2, 1402080, Note_on_c, 0, 67, 0
2, 1402080, Note_on_c, 0, 69, 100
2, 1402320, Note_on_c, 0, 69, 0
2, 1402320, Note_on_c, 0, 66, 100
2, 1402560, Note_on_c, 0, 66, 0
2, 1402560, Note_on_c, 0, 67, 100
2, 1402800, Note_on_c, 0, 67, 0
2, 1402800, Note_on_c, 0, 81, 100
2, 1403760, Note_on_c, 0, 81, 0
2, 1403760, Note_on_c, 0, 79, 100
2, 1403880, Note_on_c, 0, 79, 0
2, 1403880, Note_on_c, 0, 78, 100
2, 1404000, Note_on_c, 0, 78, 0
2, 1404000, Note_on_c, 0, 76, 100
2, 1404120, Note_on_c, 0, 76, 0
2, 1404120, Note_on_c, 0, 78, 100
2, 1404240, Note_on_c, 0, 78, 0
2, 1404240, Note_on_c, 0, 81, 100
2, 1404480, Note_on_c, 0, 81, 0
2, 1404480, Note_on_c, 0, 79, 100
2, 1404540, Note_on_c, 0, 79, 0
2, 1404540, Note_on_c, 0, 78, 100
2, 1404600, Note_on_c, 0, 78, 0
2, 1404600, Note_on_c, 0, 79, 100
2, 1404660, Note_on_c, 0, 79, 0
2, 1404660, Note_on_c, 0, 81, 100
2, 1404720, Note_on_c, 0, 81, 0
2, 1404720, Note_on_c, 0, 74, 100
2, 1404960, Note_on_c, 0, 74, 0
2, 1404960, Note_on_c, 0, 78, 100
2, 1405080, Note_on_c, 0, 78, 0
2, 1405080, Note_on_c, 0, 76, 100
2, 1405200, Note_on_c, 0, 76, 0
2, 1405200, Note_on_c, 0, 79, 100
2, 1405320, Note_on_c, 0, 79, 0
2, 1405320, Note_on_c, 0, 78, 100
2, 1405440, Note_on_c, 0, 78, 0
2, 1405440, Note_on_c, 0, 81, 100
2, 1405560, Note_on_c, 0, 81, 0
2, 1405560, Note_on_c, 0, 79, 100
2, 1405680, Note_on_c, 0, 79, 0
2, 1405680, Note_on_c, 0, 78, 100
2, 1405920, Note_on_c, 0, 78, 0
2, 1405920, Note_on_c, 0, 79, 100
2, 1406160, Note_on_c, 0, 79, 0
2, 1406160, Note_on_c, 0, 76, 100
2, 1406400, Note_on_c, 0, 76, 0
2, 1406400, Note_on_c, 0, 75, 100
2, 1406640, Note_on_c, 0, 75, 0
2, 1406640, Note_on_c, 0, 76, 100
2, 1406880, Note_on_c, 0, 76, 0
2, 1406880, Note_on_c, 0, 81, 100
2, 1407120, Note_on_c, 0, 81, 0
2, 1407120, Note_on_c, 0, 79, 100
2, 1408080, Note_on_c, 0, 79, 0
2, 1408080, Note_on_c, 0, 76, 100
2, 1408200, Note_on_c, 0, 76, 0
2, 1408200, Note_on_c, 0, 78, 100
2, 1408320, Note_on_c, 0, 78, 0
2, 1408320, Note_on_c, 0, 75, 100
2, 1408440, Note_on_c, 0, 75, 0
2, 1408440, Note_on_c, 0, 83, 100
2, 1408560, Note_on_c, 0, 83, 0
2, 1408560, Note_on_c, 0, 84, 100
2, 1409400, Note_on_c, 0, 84, 0
2, 1409400, Note_on_c, 0, 83, 100
2, 1409520, Note_on_c, 0, 83, 0
2, 1409520, Note_on_c, 0, 81, 100
2, 1409640, Note_on_c, 0, 81, 0
2, 1409640, Note_on_c, 0, 79, 100
2, 1409760, Note_on_c, 0, 79, 0
2, 1409760, Note_on_c, 0, 78, 100
2, 1409880, Note_on_c, 0, 78, 0
2, 1409880, Note_on_c, 0, 79, 100
2, 1410000, Note_on_c, 0, 79, 0
2, 1410000, Note_on_c, 0, 76, 100
2, 1410120, Note_on_c, 0, 76, 0
2, 1410120, Note_on_c, 0, 81, 100
2, 1410240, Note_on_c, 0, 81, 0
2, 1410240, Note_on_c, 0, 76, 100
2, 1410360, Note_on_c, 0, 76, 0
2, 1410360, Note_on_c, 0, 83, 100
2, 1410480, Note_on_c, 0, 83, 0
2, 1410480, Note_on_c, 0, 76, 100
2, 1410600, Note_on_c, 0, 76, 0
2, 1410600, Note_on_c, 0, 84, 100
2, 1410720, Note_on_c, 0, 84, 0
2, 1410720, Note_on_c, 0, 83, 100
2, 1410840, Note_on_c, 0, 83, 0
2, 1410840, Note_on_c, 0, 81, 100
2, 1410960, Note_on_c, 0, 81, 0
2, 1410960, Note_on_c, 0, 79, 100
2, 1411080, Note_on_c, 0, 79, 0
2, 1411080, Note_on_c, 0, 78, 100
2, 1411200, Note_on_c, 0, 78, 0
2, 1411200, Note_on_c, 0, 76, 100
2, 1411320, Note_on_c, 0, 76, 0
2, 1411320, Note_on_c, 0, 74, 100
2, 1411440, Note_on_c, 0, 74, 0
2, 1411440, Note_on_c, 0, 78, 100
2, 1411560, Note_on_c, 0, 78, 0
2, 1411560, Note_on_c, 0, 76, 100
2, 1411680, Note_on_c, 0, 76, 0
2, 1411680, Note_on_c, 0, 79, 100
2, 1411800, Note_on_c, 0, 79, 0
2, 1411800, Note_on_c, 0, 78, 100
2, 1411920, Note_on_c, 0, 78, 0
2, 1411920, Note_on_c, 0, 81, 100
2, 1412040, Note_on_c, 0, 81, 0
2, 1412040, Note_on_c, 0, 79, 100
2, 1412160, Note_on_c, 0, 79, 0
2, 1412160, Note_on_c, 0, 81, 100
2, 1412280, Note_on_c, 0, 81, 0
2, 1412280, Note_on_c, 0, 83, 100
2, 1412400, Note_on_c, 0, 83, 0
2, 1412400, Note_on_c, 0, 81, 100
2, 1412460, Note_on_c, 0, 81, 0
2, 1412460, Note_on_c, 0, 83, 100
2, 1412520, Note_on_c, 0, 83, 0
2, 1412520, Note_on_c, 0, 81, 100
2, 1412580, Note_on_c, 0, 81, 0
2, 1412580, Note_on_c, 0, 83, 100
2, 1412640, Note_on_c, 0, 83, 0
2, 1412640, Note_on_c, 0, 81, 100
2, 1412700, Note_on_c, 0, 81, 0
2, 1412700, Note_on_c, 0, 79, 100
2, 1412760, Note_on_c, 0, 79, 0
2, 1412760, Note_on_c, 0, 81, 100
2, 1412820, Note_on_c, 0, 81, 0
2, 1412820, Note_on_c, 0, 83, 100
2, 1412880, Note_on_c, 0, 83, 0
2, 1412880, Note_on_c, 0, 79, 100
2, 1413360, Note_on_c, 0, 79, 0
2, 1413360, Note_on_c, 0, 76, 100
2, 1413600, Note_on_c, 0, 76, 0
2, 1413600, Note_on_c, 0, 78, 100
2, 1413840, Note_on_c, 0, 78, 0
2, 1413840, Note_on_c, 0, 75, 100
2, 1414080, Note_on_c, 0, 75, 0
2, 1414080, Note_on_c, 0, 76, 100
2, 1415280, Note_on_c, 0, 76, 0
2, 1415280, Note_on_c, 0, 74, 100
2, 1415400, Note_on_c, 0, 74, 0
2, 1415400, Note_on_c, 0, 72, 100
2, 1415520, Note_on_c, 0, 72, 0
2, 1415520, Note_on_c, 0, 71, 100
2, 1415640, Note_on_c, 0, 71, 0
2, 1415640, Note_on_c, 0, 72, 100
2, 1415760, Note_on_c, 0, 72, 0
2, 1415760, Note_on_c, 0, 74, 100
2, 1416000, Note_on_c, 0, 74, 0
2, 1416000, Note_on_c, 0, 76, 100
2, 1416240, Note_on_c, 0, 76, 0
2, 1416240, Note_on_c, 0, 69, 100
2, 1416480, Note_on_c, 0, 69, 0
2, 1416480, Note_on_c, 0, 72, 100
2, 1416600, Note_on_c, 0, 72, 0
2, 1416600, Note_on_c, 0, 71, 100
2, 1416720, Note_on_c, 0, 71, 0
2, 1416720, Note_on_c, 0, 74, 100
2, 1416840, Note_on_c, 0, 74, 0
2, 1416840, Note_on_c, 0, 73, 100
2, 1416960, Note_on_c, 0, 73, 0
2, 1416960, Note_on_c, 0, 76, 100
2, 1417080, Note_on_c, 0, 76, 0
2, 1417080, Note_on_c, 0, 74, 100
2, 1417200, Note_on_c, 0, 74, 0
2, 1417200, Note_on_c, 0, 76, 100
2, 1417260, Note_on_c, 0, 76, 0
2, 1417260, Note_on_c, 0, 78, 100
2, 1417320, Note_on_c, 0, 78, 0
2, 1417320, Note_on_c, 0, 79, 100
2, 1417440, Note_on_c, 0, 79, 0
2, 1417440, Note_on_c, 0, 78, 100
2, 1417500, Note_on_c, 0, 78, 0
2, 1417500, Note_on_c, 0, 76, 100
2, 1417560, Note_on_c, 0, 76, 0
2, 1417560, Note_on_c, 0, 78, 100
2, 1417620, Note_on_c, 0, 78, 0
2, 1417620, Note_on_c, 0, 79, 100
2, 1417680, Note_on_c, 0, 79, 0
2, 1417680, Note_on_c, 0, 78, 100
2, 1417710, Note_on_c, 0, 78, 0
2, 1417710, Note_on_c, 0, 79, 100
2, 1417740, Note_on_c, 0, 79, 0
2, 1417740, Note_on_c, 0, 78, 100
2, 1417770, Note_on_c, 0, 78, 0
2, 1417770, Note_on_c, 0, 76, 100
2, 1417800, Note_on_c, 0, 76, 0
2, 1417800, Note_on_c, 0, 78, 100
2, 1417860, Note_on_c, 0, 78, 0
2, 1417860, Note_on_c, 0, 79, 100
2, 1417920, Note_on_c, 0, 79, 0
2, 1417920, Note_on_c, 0, 78, 100
2, 1418160, Note_on_c, 0, 78, 0
2, 1418160, Note_on_c, 0, 76, 100
2, 1418280, Note_on_c, 0, 76, 0
2, 1418280, Note_on_c, 0, 74, 100
2, 1418400, Note_on_c, 0, 74, 0
2, 1418400, Note_on_c, 0, 72, 100
2, 1418520, Note_on_c, 0, 72, 0
2, 1418520, Note_on_c, 0, 71, 100
2, 1418640, Note_on_c, 0, 71, 0
2, 1418640, Note_on_c, 0, 74, 100
2, 1418760, Note_on_c, 0, 74, 0
2, 1418760, Note_on_c, 0, 72, 100
2, 1418880, Note_on_c, 0, 72, 0
2, 1418880, Note_on_c, 0, 76, 100
2, 1419000, Note_on_c, 0, 76, 0
2, 1419000, Note_on_c, 0, 74, 100
2, 1419120, Note_on_c, 0, 74, 0
2, 1419120, Note_on_c, 0, 77, 100
2, 1419240, Note_on_c, 0, 77, 0
2, 1419240, Note_on_c, 0, 76, 100
2, 1419360, Note_on_c, 0, 76, 0
2, 1419360, Note_on_c, 0, 74, 100
2, 1420200, Note_on_c, 0, 74, 0
2, 1420200, Note_on_c, 0, 72, 100
2, 1420320, Note_on_c, 0, 72, 0
2, 1420320, Note_on_c, 0, 71, 100
2, 1420440, Note_on_c, 0, 71, 0
2, 1420440, Note_on_c, 0, 72, 100
2, 1420560, Note_on_c, 0, 72, 0
2, 1420560, Note_on_c, 0, 78, 100
2, 1420680, Note_on_c, 0, 78, 0
2, 1420680, Note_on_c, 0, 81, 100
2, 1420800, Note_on_c, 0, 81, 0
2, 1420800, Note_on_c, 0, 74, 100
2, 1420920, Note_on_c, 0, 74, 0
2, 1420920, Note_on_c, 0, 72, 100
2, 1421040, Note_on_c, 0, 72, 0
2, 1421040, Note_on_c, 0, 71, 100
2, 1421160, Note_on_c, 0, 71, 0
2, 1421160, Note_on_c, 0, 72, 100
2, 1421280, Note_on_c, 0, 72, 0
2, 1421280, Note_on_c, 0, 69, 100
2, 1421400, Note_on_c, 0, 69, 0
2, 1421400, Note_on_c, 0, 71, 100
2, 1421520, Note_on_c, 0, 71, 0
2, 1421520, Note_on_c, 0, 76, 100
2, 1421640, Note_on_c, 0, 76, 0
2, 1421640, Note_on_c, 0, 74, 100
2, 1421760, Note_on_c, 0, 74, 0
2, 1421760, Note_on_c, 0, 72, 100
2, 1421880, Note_on_c, 0, 72, 0
2, 1421880, Note_on_c, 0, 74, 100
2, 1422000, Note_on_c, 0, 74, 0
2, 1422000, Note_on_c, 0, 80, 100
2, 1422120, Note_on_c, 0, 80, 0
2, 1422120, Note_on_c, 0, 83, 100
2, 1422240, Note_on_c, 0, 83, 0
2, 1422240, Note_on_c, 0, 76, 100
2, 1422360, Note_on_c, 0, 76, 0
2, 1422360, Note_on_c, 0, 74, 100
2, 1422480, Note_on_c, 0, 74, 0
2, 1422480, Note_on_c, 0, 72, 100
2, 1422600, Note_on_c, 0, 72, 0
2, 1422600, Note_on_c, 0, 74, 100
2, 1422720, Note_on_c, 0, 74, 0
2, 1422720, Note_on_c, 0, 71, 100
2, 1422840, Note_on_c, 0, 71, 0
2, 1422840, Note_on_c, 0, 72, 100
2, 1422960, Note_on_c, 0, 72, 0
2, 1422960, Note_on_c, 0, 71, 100
2, 1423800, Note_on_c, 0, 71, 0
2, 1423800, Note_on_c, 0, 69, 100
2, 1423920, Note_on_c, 0, 69, 0
2, 1423920, Note_on_c, 0, 71, 100
2, 1424040, Note_on_c, 0, 71, 0
2, 1424040, Note_on_c, 0, 72, 100
2, 1424160, Note_on_c, 0, 72, 0
2, 1424160, Note_on_c, 0, 69, 100
2, 1424280, Note_on_c, 0, 69, 0
2, 1424280, Note_on_c, 0, 74, 100
2, 1424400, Note_on_c, 0, 74, 0
2, 1424400, Note_on_c, 0, 71, 100
2, 1424880, Note_on_c, 0, 71, 0
2, 1424880, Note_on_c, 0, 67, 100
2, 1425120, Note_on_c, 0, 67, 0
2, 1425120, Note_on_c, 0, 69, 100
2, 1425360, Note_on_c, 0, 69, 0
2, 1425360, Note_on_c, 0, 66, 100
2, 1425600, Note_on_c, 0, 66, 0
2, 1425600, Note_on_c, 0, 67, 100
2, 1425840, Note_on_c, 0, 67, 0
2, 1425840, Note_on_c, 0, 74, 100
2, 1851120, Note_on_c, 0, 74, 0
2, 1851120, Note_on_c, 0, 72, 100
2, 1852560, Note_on_c, 0, 72, 0
2, 1852560, Note_on_c, 0, 71, 100
2, 1852800, Note_on_c, 0, 71, 0
2, 1852800, Note_on_c, 0, 72, 100
2, 1853040, Note_on_c, 0, 72, 0
2, 1853040, Note_on_c, 0, 76, 100
2, 1853520, Note_on_c, 0, 76, 0
2, 1853520, Note_on_c, 0, 69, 100
2, 1854000, Note_on_c, 0, 69, 0
2, 1854000, Note_on_c, 0, 74, 100
2, 1854480, Note_on_c, 0, 74, 0
2, 1854480, Note_on_c, 0, 72, 100
2, 1855440, Note_on_c, 0, 72, 0
2, 1855440, Note_on_c, 0, 71, 100
2, 1856400, Note_on_c, 0, 71, 0
2, 1856400, Note_on_c, 0, 69, 100
2, 1856640, Note_on_c, 0, 69, 0
2, 1856640, Note_on_c, 0, 71, 100
2, 1858320, Note_on_c, 0, 71, 0
2, 1858320, Note_on_c, 0, 69, 100
2, 1858560, Note_on_c, 0, 69, 0
2, 1858560, Note_on_c, 0, 71, 100
2, 1858800, Note_on_c, 0, 71, 0
2, 1858800, Note_on_c, 0, 76, 100
2, 1859280, Note_on_c, 0, 76, 0
2, 1859280, Note_on_c, 0, 73, 100
2, 1859760, Note_on_c, 0, 73, 0
2, 1859760, Note_on_c, 0, 81, 100
2, 1860240, Note_on_c, 0, 81, 0
2, 1860240, Note_on_c, 0, 79, 100
2, 1861200, Note_on_c, 0, 79, 0
2, 1861200, Note_on_c, 0, 78, 100
2, 1861440, Note_on_c, 0, 78, 0
2, 1861440, Note_on_c, 0, 81, 100
2, 1861680, Note_on_c, 0, 81, 0
2, 1861680, Note_on_c, 0, 79, 100
2, 1861840, Note_on_c, 0, 79, 0
2, 1861840, Note_on_c, 0, 81, 100
2, 1862000, Note_on_c, 0, 81, 0
2, 1862000, Note_on_c, 0, 79, 100
2, 1862160, Note_on_c, 0, 79, 0
2, 1862160, Note_on_c, 0, 81, 100
2, 1862320, Note_on_c, 0, 81, 0
2, 1862320, Note_on_c, 0, 79, 100
2, 1862480, Note_on_c, 0, 79, 0
2, 1862480, Note_on_c, 0, 81, 100
2, 1862640, Note_on_c, 0, 81, 0
2, 1862640, Note_on_c, 0, 79, 100
2, 1862800, Note_on_c, 0, 79, 0
2, 1862800, Note_on_c, 0, 81, 100
2, 1862960, Note_on_c, 0, 81, 0
2, 1862960, Note_on_c, 0, 79, 100
2, 1863120, Note_on_c, 0, 79, 0
2, 1863120, Note_on_c, 0, 81, 100
2, 1863280, Note_on_c, 0, 81, 0
2, 1863280, Note_on_c, 0, 79, 100
2, 1863440, Note_on_c, 0, 79, 0
2, 1863440, Note_on_c, 0, 81, 100
2, 1863600, Note_on_c, 0, 81, 0
2, 1863600, Note_on_c, 0, 79, 100
2, 1863760, Note_on_c, 0, 79, 0
2, 1863760, Note_on_c, 0, 81, 100
2, 1863920, Note_on_c, 0, 81, 0
2, 1863920, Note_on_c, 0, 79, 100
2, 1864080, Note_on_c, 0, 79, 0
2, 1864080, Note_on_c, 0, 81, 100
2, 1864240, Note_on_c, 0, 81, 0
2, 1864240, Note_on_c, 0, 79, 100
2, 1864400, Note_on_c, 0, 79, 0
2, 1864400, Note_on_c, 0, 81, 100
2, 1864560, Note_on_c, 0, 81, 0
2, 1864560, Note_on_c, 0, 79, 100
2, 1864680, Note_on_c, 0, 79, 0
2, 1864680, Note_on_c, 0, 81, 100
2, 1864800, Note_on_c, 0, 81, 0
2, 1864800, Note_on_c, 0, 79, 100
2, 1864920, Note_on_c, 0, 79, 0
2, 1864920, Note_on_c, 0, 81, 100
2, 1865040, Note_on_c, 0, 81, 0
2, 1865040, Note_on_c, 0, 79, 100
2, 1865160, Note_on_c, 0, 79, 0
2, 1865160, Note_on_c, 0, 81, 100
2, 1865280, Note_on_c, 0, 81, 0
2, 1865280, Note_on_c, 0, 79, 100
2, 1865400, Note_on_c, 0, 79, 0
2, 1865400, Note_on_c, 0, 81, 100
2, 1865520, Note_on_c, 0, 81, 0
2, 1865520, Note_on_c, 0, 79, 100
2, 1865640, Note_on_c, 0, 79, 0
2, 1865640, Note_on_c, 0, 81, 100
2, 1865760, Note_on_c, 0, 81, 0
2, 1865760, Note_on_c, 0, 79, 100
2, 1865880, Note_on_c, 0, 79, 0
2, 1865880, Note_on_c, 0, 78, 100
2, 1866000, Note_on_c, 0, 78, 0
2, 1866000, Note_on_c, 0, 76, 100
2, 1866240, Note_on_c, 0, 76, 0
2, 1866240, Note_on_c, 0, 78, 100
2, 1866480, Note_on_c, 0, 78, 0
2, 1866480, Note_on_c, 0, 81, 100
2, 1866960, Note_on_c, 0, 81, 0
2, 1866960, Note_on_c, 0, 74, 100
2, 1867440, Note_on_c, 0, 74, 0
2, 1867440, Note_on_c, 0, 79, 100
2, 1868400, Note_on_c, 0, 79, 0
2, 1868400, Note_on_c, 0, 78, 100
2, 1869840, Note_on_c, 0, 78, 0
2, 1869840, Note_on_c, 0, 76, 100
2, 1870320, Note_on_c, 0, 76, 0
2, 1870320, Note_on_c, 0, 74, 100
2, 1881840, Note_on_c, 0, 74, 0
2, 1881840, Note_on_c, 0, 72, 100
2, 1883280, Note_on_c, 0, 72, 0
2, 1883280, Note_on_c, 0, 71, 100
2, 1883520, Note_on_c, 0, 71, 0
2, 1883520, Note_on_c, 0, 72, 100
2, 1883760, Note_on_c, 0, 72, 0
2, 1883760, Note_on_c, 0, 76, 100
2, 1884240, Note_on_c, 0, 76, 0
2, 1884240, Note_on_c, 0, 69, 100
2, 1884720, Note_on_c, 0, 69, 0
2, 1884720, Note_on_c, 0, 74, 100
2, 1885200, Note_on_c, 0, 74, 0
2, 1885200, Note_on_c, 0, 72, 100
2, 1886160, Note_on_c, 0, 72, 0
2, 1886160, Note_on_c, 0, 71, 100
2, 1887120, Note_on_c, 0, 71, 0
2, 1887120, Note_on_c, 0, 69, 100
2, 1887360, Note_on_c, 0, 69, 0
2, 1887360, Note_on_c, 0, 71, 100
2, 1889040, Note_on_c, 0, 71, 0
2, 1889040, Note_on_c, 0, 69, 100
2, 1889280, Note_on_c, 0, 69, 0
2, 1889280, Note_on_c, 0, 71, 100
2, 1889520, Note_on_c, 0, 71, 0
2, 1889520, Note_on_c, 0, 76, 100
2, 1890000, Note_on_c, 0, 76, 0
2, 1890000, Note_on_c, 0, 73, 100
2, 1890480, Note_on_c, 0, 73, 0
2, 1890480, Note_on_c, 0, 81, 100
2, 1890960, Note_on_c, 0, 81, 0
2, 1890960, Note_on_c, 0, 79, 100
2, 1891920, Note_on_c, 0, 79, 0
2, 1891920, Note_on_c, 0, 78, 100
2, 1892160, Note_on_c, 0, 78, 0
2, 1892160, Note_on_c, 0, 81, 100
2, 1892400, Note_on_c, 0, 81, 0
2, 1892400, Note_on_c, 0, 79, 100
2, 1892560, Note_on_c, 0, 79, 0
2, 1892560, Note_on_c, 0, 81, 100
2, 1892720, Note_on_c, 0, 81, 0
2, 1892720, Note_on_c, 0, 79, 100
2, 1892880, Note_on_c, 0, 79, 0
2, 1892880, Note_on_c, 0, 81, 100
2, 1893040, Note_on_c, 0, 81, 0
2, 1893040, Note_on_c, 0, 79, 100
2, 1893200, Note_on_c, 0, 79, 0
2, 1893200, Note_on_c, 0, 81, 100
2, 1893360, Note_on_c, 0, 81, 0
2, 1893360, Note_on_c, 0, 79, 100
2, 1893520, Note_on_c, 0, 79, 0
2, 1893520, Note_on_c, 0, 81, 100
2, 1893680, Note_on_c, 0, 81, 0
2, 1893680, Note_on_c, 0, 79, 100
2, 1893840, Note_on_c, 0, 79, 0
2, 1893840, Note_on_c, 0, 81, 100
2, 1894000, Note_on_c, 0, 81, 0
2, 1894000, Note_on_c, 0, 79, 100
2, 1894160, Note_on_c, 0, 79, 0
2, 1894160, Note_on_c, 0, 81, 100
2, 1894320, Note_on_c, 0, 81, 0
2, 1894320, Note_on_c, 0, 79, 100
2, 1894480, Note_on_c, 0, 79, 0
2, 1894480, Note_on_c, 0, 81, 100
2, 1894640, Note_on_c, 0, 81, 0
2, 1894640, Note_on_c, 0, 79, 100
2, 1894800, Note_on_c, 0, 79, 0
2, 1894800, Note_on_c, 0, 81, 100
2, 1894960, Note_on_c, 0, 81, 0
2, 1894960, Note_on_c, 0, 79, 100
2, 1895120, Note_on_c, 0, 79, 0
2, 1895120, Note_on_c, 0, 81, 100
2, 1895280, Note_on_c, 0, 81, 0
2, 1895280, Note_on_c, 0, 79, 100
2, 1895400, Note_on_c, 0, 79, 0
2, 1895400, Note_on_c, 0, 81, 100
2, 1895520, Note_on_c, 0, 81, 0
2, 1895520, Note_on_c, 0, 79, 100
2, 1895640, Note_on_c, 0, 79, 0
2, 1895640, Note_on_c, 0, 81, 100
2, 1895760, Note_on_c, 0, 81, 0
2, 1895760, Note_on_c, 0, 79, 100
2, 1895880, Note_on_c, 0, 79, 0
2, 1895880, Note_on_c, 0, 81, 100
2, 1896000, Note_on_c, 0, 81, 0
2, 1896000, Note_on_c, 0, 79, 100
2, 1896120, Note_on_c, 0, 79, 0
2, 1896120, Note_on_c, 0, 81, 100
2, 1896240, Note_on_c, 0, 81, 0
2, 1896240, Note_on_c, 0, 79, 100
2, 1896360, Note_on_c, 0, 79, 0
2, 1896360, Note_on_c, 0, 81, 100
2, 1896480, Note_on_c, 0, 81, 0
2, 1896480, Note_on_c, 0, 79, 100
2, 1896600, Note_on_c, 0, 79, 0
2, 1896600, Note_on_c, 0, 78, 100
2, 1896720, Note_on_c, 0, 78, 0
2, 1896720, Note_on_c, 0, 76, 100
2, 1896960, Note_on_c, 0, 76, 0
2, 1896960, Note_on_c, 0, 78, 100
2, 1897200, Note_on_c, 0, 78, 0
2, 1897200, Note_on_c, 0, 81, 100
2, 1897680, Note_on_c, 0, 81, 0
2, 1897680, Note_on_c, 0, 74, 100
2, 1898160, Note_on_c, 0, 74, 0
2, 1898160, Note_on_c, 0, 79, 100
2, 1899120, Note_on_c, 0, 79, 0
2, 1899120, Note_on_c, 0, 78, 100
2, 1900560, Note_on_c, 0, 78, 0
2, 1900560, Note_on_c, 0, 76, 100
2, 1901040, Note_on_c, 0, 76, 0
2, 1901040, Note_on_c, 0, 74, 100
2, 1902000, Note_on_c, 0, 74, 0
2, 1902000, Note_on_c, 0, 81, 100
2, 1904880, Note_on_c, 0, 81, 0
2, 1904880, Note_on_c, 0, 79, 100
2, 1906320, Note_on_c, 0, 79, 0
2, 1906320, Note_on_c, 0, 78, 100
2, 1906560, Note_on_c, 0, 78, 0
2, 1906560, Note_on_c, 0, 79, 100
2, 1906800, Note_on_c, 0, 79, 0
2, 1906800, Note_on_c, 0, 83, 100
2, 1907280, Note_on_c, 0, 83, 0
2, 1907280, Note_on_c, 0, 76, 100
2, 1907760, Note_on_c, 0, 76, 0
2, 1907760, Note_on_c, 0, 75, 100
2, 1910160, Note_on_c, 0, 75, 0
2, 1910160, Note_on_c, 0, 73, 100
2, 1910400, Note_on_c, 0, 73, 0
2, 1910400, Note_on_c, 0, 75, 100
2, 1910640, Note_on_c, 0, 75, 0
2, 1910640, Note_on_c, 0, 78, 100
2, 1911120, Note_on_c, 0, 78, 0
2, 1911120, Note_on_c, 0, 83, 100
2, 1911600, Note_on_c, 0, 83, 0
2, 1911600, Note_on_c, 0, 71, 100
2, 1912080, Note_on_c, 0, 71, 0
2, 1912080, Note_on_c, 0, 83, 100
2, 1912560, Note_on_c, 0, 83, 0
2, 1912560, Note_on_c, 0, 81, 100
2, 1914000, Note_on_c, 0, 81, 0
2, 1914000, Note_on_c, 0, 79, 100
2, 1914240, Note_on_c, 0, 79, 0
2, 1914240, Note_on_c, 0, 81, 100
2, 1914480, Note_on_c, 0, 81, 0
2, 1914480, Note_on_c, 0, 84, 100
2, 1914960, Note_on_c, 0, 84, 0
2, 1914960, Note_on_c, 0, 78, 100
2, 1915440, Note_on_c, 0, 78, 0
2, 1915440, Note_on_c, 0, 79, 100
2, 1915920, Note_on_c, 0, 79, 0
2, 1915920, Note_on_c, 0, 81, 100
2, 1916400, Note_on_c, 0, 81, 0
2, 1916400, Note_on_c, 0, 79, 100
2, 1917840, Note_on_c, 0, 79, 0
2, 1917840, Note_on_c, 0, 78, 100
2, 1918080, Note_on_c, 0, 78, 0
2, 1918080, Note_on_c, 0, 79, 100
2, 1918320, Note_on_c, 0, 79, 0
2, 1918320, Note_on_c, 0, 83, 100
2, 1918800, Note_on_c, 0, 83, 0
2, 1918800, Note_on_c, 0, 76, 100
2, 1919280, Note_on_c, 0, 76, 0
2, 1919280, Note_on_c, 0, 74, 100
2, 1921200, Note_on_c, 0, 74, 0
2, 1921200, Note_on_c, 0, 72, 100
2, 1923120, Note_on_c, 0, 72, 0
2, 1923120, Note_on_c, 0, 74, 100
2, 1926000, Note_on_c, 0, 74, 0
2, 1926000, Note_on_c, 0, 72, 100
2, 1927440, Note_on_c, 0, 72, 0
2, 1927440, Note_on_c, 0, 71, 100
2, 1927680, Note_on_c, 0, 71, 0
2, 1927680, Note_on_c, 0, 72, 100
2, 1927920, Note_on_c, 0, 72, 0
2, 1927920, Note_on_c, 0, 76, 100
2, 1928400, Note_on_c, 0, 76, 0
2, 1928400, Note_on_c, 0, 69, 100
2, 1928880, Note_on_c, 0, 69, 0
2, 1928880, Note_on_c, 0, 76, 100
2, 1930080, Note_on_c, 0, 76, 0
2, 1930080, Note_on_c, 0, 74, 100
2, 1930320, Note_on_c, 0, 74, 0
2, 1930320, Note_on_c, 0, 76, 100
2, 1930560, Note_on_c, 0, 76, 0
2, 1930560, Note_on_c, 0, 69, 100
2, 1930800, Note_on_c, 0, 69, 0
2, 1930800, Note_on_c, 0, 74, 100
2, 1931280, Note_on_c, 0, 74, 0
2, 1931280, Note_on_c, 0, 72, 100
2, 1932240, Note_on_c, 0, 72, 0
2, 1932240, Note_on_c, 0, 71, 100
2, 1933200, Note_on_c, 0, 71, 0
2, 1933200, Note_on_c, 0, 69, 100
2, 1933440, Note_on_c, 0, 69, 0
2, 1933440, Note_on_c, 0, 71, 100
2, 1933680, Note_on_c, 0, 71, 0
2, 1933680, Note_on_c, 0, 81, 100
2, 1935600, Note_on_c, 0, 81, 0
2, 1935600, Note_on_c, 0, 79, 100
2, 1937040, Note_on_c, 0, 79, 0
2, 1937040, Note_on_c, 0, 78, 100
2, 1937280, Note_on_c, 0, 78, 0
2, 1937280, Note_on_c, 0, 79, 100
2, 1937520, Note_on_c, 0, 79, 0
2, 1937520, Note_on_c, 0, 83, 100
2, 1938000, Note_on_c, 0, 83, 0
2, 1938000, Note_on_c, 0, 76, 100
2, 1938480, Note_on_c, 0, 76, 0
2, 1938480, Note_on_c, 0, 75, 100
2, 1940880, Note_on_c, 0, 75, 0
2, 1940880, Note_on_c, 0, 73, 100
2, 1941120, Note_on_c, 0, 73, 0
2, 1941120, Note_on_c, 0, 75, 100
2, 1941360, Note_on_c, 0, 75, 0
2, 1941360, Note_on_c, 0, 78, 100
2, 1941840, Note_on_c, 0, 78, 0
2, 1941840, Note_on_c, 0, 83, 100
2, 1942320, Note_on_c, 0, 83, 0
2, 1942320, Note_on_c, 0, 71, 100
2, 1942800, Note_on_c, 0, 71, 0
2, 1942800, Note_on_c, 0, 83, 100
2, 1943280, Note_on_c, 0, 83, 0
2, 1943280, Note_on_c, 0, 81, 100
2, 1944720, Note_on_c, 0, 81, 0
2, 1944720, Note_on_c, 0, 79, 100
2, 1944960, Note_on_c, 0, 79, 0
2, 1944960, Note_on_c, 0, 81, 100
2, 1945200, Note_on_c, 0, 81, 0
2, 1945200, Note_on_c, 0, 84, 100
2, 1945680, Note_on_c, 0, 84, 0
2, 1945680, Note_on_c, 0, 78, 100
2, 1946160, Note_on_c, 0, 78, 0
2, 1946160, Note_on_c, 0, 79, 100
2, 1946640, Note_on_c, 0, 79, 0
2, 1946640, Note_on_c, 0, 81, 100
2, 1947120, Note_on_c, 0, 81, 0
2, 1947120, Note_on_c, 0, 79, 100
2, 1948560, Note_on_c, 0, 79, 0
2, 1948560, Note_on_c, 0, 78, 100
2, 1948800, Note_on_c, 0, 78, 0
2, 1948800, Note_on_c, 0, 79, 100
2, 1949040, Note_on_c, 0, 79, 0
2, 1949040, Note_on_c, 0, 83, 100
2, 1949520, Note_on_c, 0, 83, 0
2, 1949520, Note_on_c, 0, 76, 100
2, 1950000, Note_on_c, 0, 76, 0
2, 1950000, Note_on_c, 0, 74, 100
2, 1951920, Note_on_c, 0, 74, 0
2, 1951920, Note_on_c, 0, 72, 100
2, 1953840, Note_on_c, 0, 72, 0
2, 1953840, Note_on_c, 0, 74, 100
2, 1956720, Note_on_c, 0, 74, 0
2, 1956720, Note_on_c, 0, 72, 100
2, 1958160, Note_on_c, 0, 72, 0
2, 1958160, Note_on_c, 0, 71, 100
2, 1958400, Note_on_c, 0, 71, 0
2, 1958400, Note_on_c, 0, 72, 100
2, 1958640, Note_on_c, 0, 72, 0
2, 1958640, Note_on_c, 0, 76, 100
2, 1959120, Note_on_c, 0, 76, 0
2, 1959120, Note_on_c, 0, 69, 100
2, 1959600, Note_on_c, 0, 69, 0
2, 1959600, Note_on_c, 0, 76, 100
2, 1960800, Note_on_c, 0, 76, 0
2, 1960800, Note_on_c, 0, 74, 100
2, 1961040, Note_on_c, 0, 74, 0
2, 1961040, Note_on_c, 0, 76, 100
2, 1961280, Note_on_c, 0, 76, 0
2, 1961280, Note_on_c, 0, 69, 100
2, 1961520, Note_on_c, 0, 69, 0
2, 1961520, Note_on_c, 0, 74, 100
2, 1962000, Note_on_c, 0, 74, 0
2, 1962000, Note_on_c, 0, 72, 100
2, 1962960, Note_on_c, 0, 72, 0
2, 1962960, Note_on_c, 0, 71, 100
2, 1963920, Note_on_c, 0, 71, 0
2, 1963920, Note_on_c, 0, 69, 100
2, 1964160, Note_on_c, 0, 69, 0
2, 1964160, Note_on_c, 0, 71, 100
2, 1964400, Note_on_c, 0, 71, 0
2, 1964400, Note_on_c, 0, 83, 100
2, 1977120, Note_on_c, 0, 83, 0
2, 1977120, Note_on_c, 0, 81, 100
2, 1978560, Note_on_c, 0, 81, 0
2, 1978560, Note_on_c, 0, 79, 100
2, 1981440, Note_on_c, 0, 79, 0
2, 1981440, Note_on_c, 0, 83, 100
2, 2000160, Note_on_c, 0, 83, 0
2, 2000160, Note_on_c, 0, 81, 100
2, 2001600, Note_on_c, 0, 81, 0
2, 2001600, Note_on_c, 0, 79, 100
2, 2004480, Note_on_c, 0, 79, 0
2, 2004480, Note_on_c, 0, 64, 100
2, 2023080, Note_on_c, 0, 64, 0
2, 2023080, Note_on_c, 0, 65, 100
2, 2023200, Note_on_c, 0, 65, 0
2, 2023200, Note_on_c, 0, 67, 100
2, 2023320, Note_on_c, 0, 67, 0
2, 2023320, Note_on_c, 0, 69, 100
2, 2023440, Note_on_c, 0, 69, 0
2, 2023440, Note_on_c, 0, 71, 100
2, 2023560, Note_on_c, 0, 71, 0
2, 2023560, Note_on_c, 0, 72, 100
2, 2023680, Note_on_c, 0, 72, 0
2, 2023680, Note_on_c, 0, 74, 100
2, 2023800, Note_on_c, 0, 74, 0
2, 2023800, Note_on_c, 0, 76, 100
2, 2023920, Note_on_c, 0, 76, 0
2, 2023920, Note_on_c, 0, 74, 100
2, 2024520, Note_on_c, 0, 74, 0
2, 2024520, Note_on_c, 0, 72, 100
2, 2024640, Note_on_c, 0, 72, 0
2, 2024640, Note_on_c, 0, 71, 100
2, 2024760, Note_on_c, 0, 71, 0
2, 2024760, Note_on_c, 0, 69, 100
2, 2024880, Note_on_c, 0, 69, 0
2, 2024880, Note_on_c, 0, 67, 100
2, 2025000, Note_on_c, 0, 67, 0
2, 2025000, Note_on_c, 0, 66, 100
2, 2025120, Note_on_c, 0, 66, 0
2, 2025120, Note_on_c, 0, 64, 100
2, 2025240, Note_on_c, 0, 64, 0
2, 2025240, Note_on_c, 0, 62, 100
2, 2025960, Note_on_c, 0, 62, 0
2, 2025960, Note_on_c, 0, 59, 100
2, 2026200, Note_on_c, 0, 59, 0
2, 2026200, Note_on_c, 0, 62, 100
2, 2026440, Note_on_c, 0, 62, 0
2, 2026440, Note_on_c, 0, 59, 100
2, 2026920, Note_on_c, 0, 59, 0
2, 2026920, Note_on_c, 0, 55, 100
2, 2027400, Note_on_c, 0, 55, 0
2, 2027400, Note_on_c, 0, 52, 100
2, 2027640, Note_on_c, 0, 52, 0
2, 2027640, Note_on_c, 0, 55, 100
2, 2027880, Note_on_c, 0, 55, 0
2, 2027880, Note_on_c, 0, 52, 100
2, 2028360, Note_on_c, 0, 52, 0
2, 2028360, Note_on_c, 0, 48, 100
2, 2028840, Note_on_c, 0, 48, 0
2, 2028840, Note_on_c, 0, 45, 100
2, 2029080, Note_on_c, 0, 45, 0
2, 2029080, Note_on_c, 0, 48, 100
2, 2029320, Note_on_c, 0, 48, 0
2, 2029320, Note_on_c, 0, 52, 100
2, 2029560, Note_on_c, 0, 52, 0
2, 2029560, Note_on_c, 0, 55, 100
2, 2029800, Note_on_c, 0, 55, 0
2, 2029800, Note_on_c, 0, 59, 100
2, 2030040, Note_on_c, 0, 59, 0
2, 2030040, Note_on_c, 0, 62, 100
2, 2030280, Note_on_c, 0, 62, 0
2, 2030280, Note_on_c, 0, 59, 100
2, 2030520, Note_on_c, 0, 59, 0
2, 2030520, Note_on_c, 0, 62, 100
2, 2030760, Note_on_c, 0, 62, 0
2, 2030760, Note_on_c, 0, 66, 100
2, 2031000, Note_on_c, 0, 66, 0
2, 2031000, Note_on_c, 0, 69, 100
2, 2031240, Note_on_c, 0, 69, 0
2, 2031240, Note_on_c, 0, 72, 100
2, 2031480, Note_on_c, 0, 72, 0
2, 2031480, Note_on_c, 0, 73, 100
2, 2031720, Note_on_c, 0, 73, 0
2, 2031720, Note_on_c, 0, 74, 100
2, 2031840, Note_on_c, 0, 74, 0
2, 2031840, Note_on_c, 0, 76, 100
2, 2031960, Note_on_c, 0, 76, 0
2, 2031960, Note_on_c, 0, 78, 100
2, 2032080, Note_on_c, 0, 78, 0
2, 2032080, Note_on_c, 0, 79, 100
2, 2032200, Note_on_c, 0, 79, 0
2, 2032200, Note_on_c, 0, 81, 100
2, 2032320, Note_on_c, 0, 81, 0
2, 2032320, Note_on_c, 0, 83, 100
2, 2032440, Note_on_c, 0, 83, 0
2, 2032440, Note_on_c, 0, 84, 100
2, 2032560, Note_on_c, 0, 84, 0
2, 2032560, Note_on_c, 0, 83, 100
2, 2033160, Note_on_c, 0, 83, 0
2, 2033160, Note_on_c, 0, 81, 100
2, 2033280, Note_on_c, 0, 81, 0
2, 2033280, Note_on_c, 0, 79, 100
2, 2033400, Note_on_c, 0, 79, 0
2, 2033400, Note_on_c, 0, 78, 100
2, 2033520, Note_on_c, 0, 78, 0
2, 2033520, Note_on_c, 0, 76, 100
2, 2033640, Note_on_c, 0, 76, 0
2, 2033640, Note_on_c, 0, 74, 100
2, 2033760, Note_on_c, 0, 74, 0
2, 2033760, Note_on_c, 0, 72, 100
2, 2033880, Note_on_c, 0, 72, 0
2, 2033880, Note_on_c, 0, 71, 100
2, 2034000, Note_on_c, 0, 71, 0
2, 2034000, Note_on_c, 0, 64, 100
2, 2046120, Note_on_c, 0, 64, 0
2, 2046120, Note_on_c, 0, 65, 100
2, 2046240, Note_on_c, 0, 65, 0
2, 2046240, Note_on_c, 0, 67, 100
2, 2046360, Note_on_c, 0, 67, 0
2, 2046360, Note_on_c, 0, 69, 100
2, 2046480, Note_on_c, 0, 69, 0
2, 2046480, Note_on_c, 0, 71, 100
2, 2046600, Note_on_c, 0, 71, 0
2, 2046600, Note_on_c, 0, 72, 100
2, 2046720, Note_on_c, 0, 72, 0
2, 2046720, Note_on_c, 0, 74, 100
2, 2046840, Note_on_c, 0, 74, 0
2, 2046840, Note_on_c, 0, 76, 100
2, 2046960, Note_on_c, 0, 76, 0
2, 2046960, Note_on_c, 0, 74, 100
2, 2047560, Note_on_c, 0, 74, 0
2, 2047560, Note_on_c, 0, 72, 100
2, 2047680, Note_on_c, 0, 72, 0
2, 2047680, Note_on_c, 0, 71, 100
2, 2047800, Note_on_c, 0, 71, 0
2, 2047800, Note_on_c, 0, 69, 100
2, 2047920, Note_on_c, 0, 69, 0
2, 2047920, Note_on_c, 0, 67, 100
2, 2048040, Note_on_c, 0, 67, 0
2, 2048040, Note_on_c, 0, 66, 100
2, 2048160, Note_on_c, 0, 66, 0
2, 2048160, Note_on_c, 0, 64, 100
2, 2048280, Note_on_c, 0, 64, 0
2, 2048280, Note_on_c, 0, 62, 100
2, 2049000, Note_on_c, 0, 62, 0
2, 2049000, Note_on_c, 0, 59, 100
2, 2049240, Note_on_c, 0, 59, 0
2, 2049240, Note_on_c, 0, 62, 100
2, 2049480, Note_on_c, 0, 62, 0
2, 2049480, Note_on_c, 0, 59, 100
2, 2049960, Note_on_c, 0, 59, 0
2, 2049960, Note_on_c, 0, 55, 100
2, 2050440, Note_on_c, 0, 55, 0
2, 2050440, Note_on_c, 0, 52, 100
2, 2050680, Note_on_c, 0, 52, 0
2, 2050680, Note_on_c, 0, 55, 100
2, 2050920, Note_on_c, 0, 55, 0
2, 2050920, Note_on_c, 0, 52, 100
2, 2051400, Note_on_c, 0, 52, 0
2, 2051400, Note_on_c, 0, 48, 100
2, 2051880, Note_on_c, 0, 48, 0
2, 2051880, Note_on_c, 0, 45, 100
2, 2052120, Note_on_c, 0, 45, 0
2, 2052120, Note_on_c, 0, 48, 100
2, 2052360, Note_on_c, 0, 48, 0
2, 2052360, Note_on_c, 0, 52, 100
2, 2052600, Note_on_c, 0, 52, 0
2, 2052600, Note_on_c, 0, 55, 100
2, 2052840, Note_on_c, 0, 55, 0
2, 2052840, Note_on_c, 0, 59, 100
2, 2053080, Note_on_c, 0, 59, 0
2, 2053080, Note_on_c, 0, 62, 100
2, 2053320, Note_on_c, 0, 62, 0
2, 2053320, Note_on_c, 0, 59, 100
2, 2053560, Note_on_c, 0, 59, 0
2, 2053560, Note_on_c, 0, 62, 100
2, 2053800, Note_on_c, 0, 62, 0
2, 2053800, Note_on_c, 0, 66, 100
2, 2054040, Note_on_c, 0, 66, 0
2, 2054040, Note_on_c, 0, 69, 100
2, 2054280, Note_on_c, 0, 69, 0
2, 2054280, Note_on_c, 0, 72, 100
2, 2054520, Note_on_c, 0, 72, 0
2, 2054520, Note_on_c, 0, 73, 100
2, 2054760, Note_on_c, 0, 73, 0
2, 2054760, Note_on_c, 0, 74, 100
2, 2054880, Note_on_c, 0, 74, 0
2, 2054880, Note_on_c, 0, 76, 100
2, 2055000, Note_on_c, 0, 76, 0
2, 2055000, Note_on_c, 0, 78, 100
2, 2055120, Note_on_c, 0, 78, 0
2, 2055120, Note_on_c, 0, 79, 100
2, 2055240, Note_on_c, 0, 79, 0
2, 2055240, Note_on_c, 0, 81, 100
2, 2055360, Note_on_c, 0, 81, 0
2, 2055360, Note_on_c, 0, 83, 100
2, 2055480, Note_on_c, 0, 83, 0
2, 2055480, Note_on_c, 0, 84, 100
2, 2055600, Note_on_c, 0, 84, 0
2, 2055600, Note_on_c, 0, 83, 100
2, 2056200, Note_on_c, 0, 83, 0
2, 2056200, Note_on_c, 0, 81, 100
2, 2056320, Note_on_c, 0, 81, 0
2, 2056320, Note_on_c, 0, 79, 100
2, 2056440, Note_on_c, 0, 79, 0
2, 2056440, Note_on_c, 0, 78, 100
2, 2056560, Note_on_c, 0, 78, 0
2, 2056560, Note_on_c, 0, 76, 100
2, 2056680, Note_on_c, 0, 76, 0
2, 2056680, Note_on_c, 0, 74, 100
2, 2056800, Note_on_c, 0, 74, 0
2, 2056800, Note_on_c, 0, 72, 100
2, 2056920, Note_on_c, 0, 72, 0
2, 2056920, Note_on_c, 0, 71, 100
2, 2057040, Note_on_c, 0, 71, 0
2, 2057040, Note_on_c, 0, 83, 100
2, 2472240, Note_on_c, 0, 83, 0
2, 2472240, Note_on_c, 0, 86, 100
2, 2472720, Note_on_c, 0, 86, 0
2, 2472720, Note_on_c, 0, 79, 100
2, 2473200, Note_on_c, 0, 79, 0
2, 2473200, Note_on_c, 0, 81, 100
2, 2473680, Note_on_c, 0, 81, 0
2, 2473680, Note_on_c, 0, 86, 100
2, 2474160, Note_on_c, 0, 86, 0
2, 2474160, Note_on_c, 0, 78, 100
2, 2474640, Note_on_c, 0, 78, 0
2, 2474640, Note_on_c, 0, 79, 100
2, 2475120, Note_on_c, 0, 79, 0
2, 2475120, Note_on_c, 0, 83, 100
2, 2475600, Note_on_c, 0, 83, 0
2, 2475600, Note_on_c, 0, 81, 100
2, 2476080, Note_on_c, 0, 81, 0
2, 2476080, Note_on_c, 0, 78, 100
2, 2476560, Note_on_c, 0, 78, 0
2, 2476560, Note_on_c, 0, 85, 100
2, 2477040, Note_on_c, 0, 85, 0
2, 2477040, Note_on_c, 0, 86, 100
2, 2477520, Note_on_c, 0, 86, 0
2, 2477520, Note_on_c, 0, 79, 100
2, 2478000, Note_on_c, 0, 79, 0
2, 2478000, Note_on_c, 0, 55, 100
2, 2478240, Note_on_c, 0, 55, 0
2, 2478240, Note_on_c, 0, 57, 100
2, 2478480, Note_on_c, 0, 57, 0
2, 2478480, Note_on_c, 0, 76, 100
2, 2478720, Note_on_c, 0, 76, 0
2, 2478720, Note_on_c, 0, 77, 100
2, 2478960, Note_on_c, 0, 77, 0
2, 2478960, Note_on_c, 0, 74, 100
2, 2479200, Note_on_c, 0, 74, 0
2, 2479200, Note_on_c, 0, 76, 100
2, 2479440, Note_on_c, 0, 76, 0
2, 2479440, Note_on_c, 0, 57, 100
2, 2479680, Note_on_c, 0, 57, 0
2, 2479680, Note_on_c, 0, 59, 100
2, 2479920, Note_on_c, 0, 59, 0
2, 2479920, Note_on_c, 0, 78, 100
2, 2480160, Note_on_c, 0, 78, 0
2, 2480160, Note_on_c, 0, 79, 100
2, 2480400, Note_on_c, 0, 79, 0
2, 2480400, Note_on_c, 0, 73, 100
2, 2480640, Note_on_c, 0, 73, 0
2, 2480640, Note_on_c, 0, 74, 100
2, 2480880, Note_on_c, 0, 74, 0
2, 2480880, Note_on_c, 0, 54, 100
2, 2481120, Note_on_c, 0, 54, 0
2, 2481120, Note_on_c, 0, 55, 100
2, 2481360, Note_on_c, 0, 55, 0
2, 2481360, Note_on_c, 0, 49, 100
2, 2481600, Note_on_c, 0, 49, 0
2, 2481600, Note_on_c, 0, 50, 100
2, 2481840, Note_on_c, 0, 50, 0
2, 2481840, Note_on_c, 0, 38, 100
2, 2482080, Note_on_c, 0, 38, 0
2, 2482080, Note_on_c, 0, 43, 100
2, 2482320, Note_on_c, 0, 43, 0
2, 2482320, Note_on_c, 0, 76, 100
2, 2482560, Note_on_c, 0, 76, 0
2, 2482560, Note_on_c, 0, 74, 100
2, 2482800, Note_on_c, 0, 74, 0
2, 2482800, Note_on_c, 0, 72, 100
2, 2483040, Note_on_c, 0, 72, 0
2, 2483040, Note_on_c, 0, 71, 100
2, 2483280, Note_on_c, 0, 71, 0
2, 2483280, Note_on_c, 0, 72, 100
2, 2483520, Note_on_c, 0, 72, 0
2, 2483520, Note_on_c, 0, 79, 100
2, 2483760, Note_on_c, 0, 79, 0
2, 2483760, Note_on_c, 0, 66, 100
2, 2489520, Note_on_c, 0, 66, 0
2, 2489520, Note_on_c, 0, 67, 100
2, 2490000, Note_on_c, 0, 67, 0
2, 2490000, Note_on_c, 0, 69, 100
2, 2490480, Note_on_c, 0, 69, 0
2, 2490480, Note_on_c, 0, 71, 100
2, 2490960, Note_on_c, 0, 71, 0
2, 2490960, Note_on_c, 0, 69, 100
2, 2491440, Note_on_c, 0, 69, 0
2, 2491440, Note_on_c, 0, 67, 100
2, 2491920, Note_on_c, 0, 67, 0
2, 2491920, Note_on_c, 0, 69, 100
2, 2492400, Note_on_c, 0, 69, 0
2, 2492400, Note_on_c, 0, 71, 100
2, 2492880, Note_on_c, 0, 71, 0
2, 2492880, Note_on_c, 0, 69, 100
2, 2493360, Note_on_c, 0, 69, 0
2, 2493360, Note_on_c, 0, 83, 100
2, 2495280, Note_on_c, 0, 83, 0
2, 2495280, Note_on_c, 0, 86, 100
2, 2495760, Note_on_c, 0, 86, 0
2, 2495760, Note_on_c, 0, 79, 100
2, 2496240, Note_on_c, 0, 79, 0
2, 2496240, Note_on_c, 0, 81, 100
2, 2496720, Note_on_c, 0, 81, 0
2, 2496720, Note_on_c, 0, 86, 100
2, 2497200, Note_on_c, 0, 86, 0
2, 2497200, Note_on_c, 0, 78, 100
2, 2497680, Note_on_c, 0, 78, 0
2, 2497680, Note_on_c, 0, 79, 100
2, 2498160, Note_on_c, 0, 79, 0
2, 2498160, Note_on_c, 0, 83, 100
2, 2498640, Note_on_c, 0, 83, 0
2, 2498640, Note_on_c, 0, 81, 100
2, 2499120, Note_on_c, 0, 81, 0
2, 2499120, Note_on_c, 0, 78, 100
2, 2499600, Note_on_c, 0, 78, 0
2, 2499600, Note_on_c, 0, 85, 100
2, 2500080, Note_on_c, 0, 85, 0
2, 2500080, Note_on_c, 0, 86, 100
2, 2500560, Note_on_c, 0, 86, 0
2, 2500560, Note_on_c, 0, 79, 100
2, 2501040, Note_on_c, 0, 79, 0
2, 2501040, Note_on_c, 0, 55, 100
2, 2501280, Note_on_c, 0, 55, 0
2, 2501280, Note_on_c, 0, 57, 100
2, 2501520, Note_on_c, 0, 57, 0
2, 2501520, Note_on_c, 0, 76, 100
2, 2501760, Note_on_c, 0, 76, 0
2, 2501760, Note_on_c, 0, 77, 100
2, 2502000, Note_on_c, 0, 77, 0
2, 2502000, Note_on_c, 0, 74, 100
2, 2502240, Note_on_c, 0, 74, 0
2, 2502240, Note_on_c, 0, 76, 100
2, 2502480, Note_on_c, 0, 76, 0
2, 2502480, Note_on_c, 0, 57, 100
2, 2502720, Note_on_c, 0, 57, 0
2, 2502720, Note_on_c, 0, 59, 100
2, 2502960, Note_on_c, 0, 59, 0
2, 2502960, Note_on_c, 0, 78, 100
2, 2503200, Note_on_c, 0, 78, 0
2, 2503200, Note_on_c, 0, 79, 100
2, 2503440, Note_on_c, 0, 79, 0
2, 2503440, Note_on_c, 0, 73, 100
2, 2503680, Note_on_c, 0, 73, 0
2, 2503680, Note_on_c, 0, 74, 100
2, 2503920, Note_on_c, 0, 74, 0
2, 2503920, Note_on_c, 0, 54, 100
2, 2504160, Note_on_c, 0, 54, 0
2, 2504160, Note_on_c, 0, 55, 100
2, 2504400, Note_on_c, 0, 55, 0
2, 2504400, Note_on_c, 0, 49, 100
2, 2504640, Note_on_c, 0, 49, 0
2, 2504640, Note_on_c, 0, 50, 100
2, 2504880, Note_on_c, 0, 50, 0
2, 2504880, Note_on_c, 0, 38, 100
2, 2505120, Note_on_c, 0, 38, 0
2, 2505120, Note_on_c, 0, 43, 100
2, 2505360, Note_on_c, 0, 43, 0
2, 2505360, Note_on_c, 0, 76, 100
2, 2505600, Note_on_c, 0, 76, 0
2, 2505600, Note_on_c, 0, 74, 100
2, 2505840, Note_on_c, 0, 74, 0
2, 2505840, Note_on_c, 0, 72, 100
2, 2506080, Note_on_c, 0, 72, 0
2, 2506080, Note_on_c, 0, 71, 100
2, 2506320, Note_on_c, 0, 71, 0
2, 2506320, Note_on_c, 0, 72, 100
2, 2506560, Note_on_c, 0, 72, 0
2, 2506560, Note_on_c, 0, 79, 100
2, 2506800, Note_on_c, 0, 79, 0
2, 2506800, Note_on_c, 0, 66, 100
2, 2512560, Note_on_c, 0, 66, 0
2, 2512560, Note_on_c, 0, 67, 100
2, 2513040, Note_on_c, 0, 67, 0
2, 2513040, Note_on_c, 0, 69, 100
2, 2513520, Note_on_c, 0, 69, 0
2, 2513520, Note_on_c, 0, 71, 100
2, 2514000, Note_on_c, 0, 71, 0
2, 2514000, Note_on_c, 0, 69, 100
2, 2514480, Note_on_c, 0, 69, 0
2, 2514480, Note_on_c, 0, 67, 100
2, 2514960, Note_on_c, 0, 67, 0
2, 2514960, Note_on_c, 0, 69, 100
2, 2515440, Note_on_c, 0, 69, 0
2, 2515440, Note_on_c, 0, 71, 100
2, 2515920, Note_on_c, 0, 71, 0
2, 2515920, Note_on_c, 0, 69, 100
2, 2516400, Note_on_c, 0, 69, 0
2, 2516400, Note_on_c, 0, 79, 100
2, 2524140, Note_on_c, 0, 79, 0
2, 2524140, Note_on_c, 0, 81, 100
2, 2524200, Note_on_c, 0, 81, 0
2, 2524200, Note_on_c, 0, 79, 100
2, 2524260, Note_on_c, 0, 79, 0
2, 2524260, Note_on_c, 0, 81, 100
2, 2524320, Note_on_c, 0, 81, 0
2, 2524320, Note_on_c, 0, 79, 100
2, 2524380, Note_on_c, 0, 79, 0
2, 2524380, Note_on_c, 0, 81, 100
2, 2524440, Note_on_c, 0, 81, 0
2, 2524440, Note_on_c, 0, 79, 100
2, 2524620, Note_on_c, 0, 79, 0
2, 2524620, Note_on_c, 0, 81, 100
2, 2524680, Note_on_c, 0, 81, 0
2, 2524680, Note_on_c, 0, 79, 100
2, 2524740, Note_on_c, 0, 79, 0
2, 2524740, Note_on_c, 0, 81, 100
2, 2524800, Note_on_c, 0, 81, 0
2, 2524800, Note_on_c, 0, 79, 100
2, 2524860, Note_on_c, 0, 79, 0
2, 2524860, Note_on_c, 0, 81, 100
2, 2524920, Note_on_c, 0, 81, 0
2, 2524920, Note_on_c, 0, 79, 100
2, 2525100, Note_on_c, 0, 79, 0
2, 2525100, Note_on_c, 0, 81, 100
2, 2525160, Note_on_c, 0, 81, 0
2, 2525160, Note_on_c, 0, 79, 100
2, 2525220, Note_on_c, 0, 79, 0
2, 2525220, Note_on_c, 0, 81, 100
2, 2525280, Note_on_c, 0, 81, 0
2, 2525280, Note_on_c, 0, 79, 100
2, 2525340, Note_on_c, 0, 79, 0
2, 2525340, Note_on_c, 0, 81, 100
2, 2525400, Note_on_c, 0, 81, 0
2, 2525400, Note_on_c, 0, 79, 100
2, 2525580, Note_on_c, 0, 79, 0
2, 2525580, Note_on_c, 0, 81, 100
2, 2525640, Note_on_c, 0, 81, 0
2, 2525640, Note_on_c, 0, 79, 100
2, 2525700, Note_on_c, 0, 79, 0
2, 2525700, Note_on_c, 0, 81, 100
2, 2525760, Note_on_c, 0, 81, 0
2, 2525760, Note_on_c, 0, 79, 100
2, 2525820, Note_on_c, 0, 79, 0
2, 2525820, Note_on_c, 0, 81, 100
2, 2525880, Note_on_c, 0, 81, 0
2, 2525880, Note_on_c, 0, 79, 100
2, 2526060, Note_on_c, 0, 79, 0
2, 2526060, Note_on_c, 0, 81, 100
2, 2526120, Note_on_c, 0, 81, 0
2, 2526120, Note_on_c, 0, 79, 100
2, 2526180, Note_on_c, 0, 79, 0
2, 2526180, Note_on_c, 0, 81, 100
2, 2526240, Note_on_c, 0, 81, 0
2, 2526240, Note_on_c, 0, 79, 100
2, 2526300, Note_on_c, 0, 79, 0
2, 2526300, Note_on_c, 0, 81, 100
2, 2526360, Note_on_c, 0, 81, 0
2, 2526360, Note_on_c, 0, 79, 100
2, 2526540, Note_on_c, 0, 79, 0
2, 2526540, Note_on_c, 0, 81, 100
2, 2526600, Note_on_c, 0, 81, 0
2, 2526600, Note_on_c, 0, 79, 100
2, 2526660, Note_on_c, 0, 79, 0
2, 2526660, Note_on_c, 0, 81, 100
2, 2526720, Note_on_c, 0, 81, 0
2, 2526720, Note_on_c, 0, 79, 100
2, 2526780, Note_on_c, 0, 79, 0
2, 2526780, Note_on_c, 0, 81, 100
2, 2526840, Note_on_c, 0, 81, 0
2, 2526840, Note_on_c, 0, 79, 100
2, 2527020, Note_on_c, 0, 79, 0
2, 2527020, Note_on_c, 0, 81, 100
2, 2527080, Note_on_c, 0, 81, 0
2, 2527080, Note_on_c, 0, 79, 100
2, 2527140, Note_on_c, 0, 79, 0
2, 2527140, Note_on_c, 0, 81, 100
2, 2527200, Note_on_c, 0, 81, 0
2, 2527200, Note_on_c, 0, 79, 100
2, 2527260, Note_on_c, 0, 79, 0
2, 2527260, Note_on_c, 0, 81, 100
2, 2527320, Note_on_c, 0, 81, 0
2, 2527320, Note_on_c, 0, 79, 100
2, 2527500, Note_on_c, 0, 79, 0
2, 2527500, Note_on_c, 0, 81, 100
2, 2527560, Note_on_c, 0, 81, 0
2, 2527560, Note_on_c, 0, 79, 100
2, 2527620, Note_on_c, 0, 79, 0
2, 2527620, Note_on_c, 0, 81, 100
2, 2527680, Note_on_c, 0, 81, 0
2, 2527680, Note_on_c, 0, 79, 100
2, 2527740, Note_on_c, 0, 79, 0
2, 2527740, Note_on_c, 0, 81, 100
2, 2527800, Note_on_c, 0, 81, 0
2, 2527800, Note_on_c, 0, 79, 100
2, 2527860, Note_on_c, 0, 79, 0
2, 2527860, Note_on_c, 0, 78, 100
2, 2527980, Note_on_c, 0, 78, 0
2, 2527980, Note_on_c, 0, 79, 100
2, 2528040, Note_on_c, 0, 79, 0
2, 2528040, Note_on_c, 0, 78, 100
2, 2528100, Note_on_c, 0, 78, 0
2, 2528100, Note_on_c, 0, 79, 100
2, 2528160, Note_on_c, 0, 79, 0
2, 2528160, Note_on_c, 0, 78, 100
2, 2528220, Note_on_c, 0, 78, 0
2, 2528220, Note_on_c, 0, 79, 100
2, 2528280, Note_on_c, 0, 79, 0
2, 2528280, Note_on_c, 0, 78, 100
2, 2528340, Note_on_c, 0, 78, 0
2, 2528340, Note_on_c, 0, 76, 100
2, 2528400, Note_on_c, 0, 76, 0
2, 2528400, Note_on_c, 0, 67, 100
2, 2528520, Note_on_c, 0, 67, 0
2, 2528520, Note_on_c, 0, 66, 100
2, 2528640, Note_on_c, 0, 66, 0
2, 2528640, Note_on_c, 0, 67, 100
2, 2528760, Note_on_c, 0, 67, 0
2, 2528760, Note_on_c, 0, 71, 100
2, 2528880, Note_on_c, 0, 71, 0
2, 2528880, Note_on_c, 0, 76, 100
2, 2529000, Note_on_c, 0, 76, 0
2, 2529000, Note_on_c, 0, 75, 100
2, 2529120, Note_on_c, 0, 75, 0
2, 2529120, Note_on_c, 0, 76, 100
2, 2529240, Note_on_c, 0, 76, 0
2, 2529240, Note_on_c, 0, 79, 100
2, 2529360, Note_on_c, 0, 79, 0
2, 2529360, Note_on_c, 0, 77, 100
2, 2529420, Note_on_c, 0, 77, 0
2, 2529420, Note_on_c, 0, 76, 100
2, 2529480, Note_on_c, 0, 76, 0
2, 2529480, Note_on_c, 0, 77, 100
2, 2529600, Note_on_c, 0, 77, 0
2, 2529600, Note_on_c, 0, 76, 100
2, 2529660, Note_on_c, 0, 76, 0
2, 2529660, Note_on_c, 0, 74, 100
2, 2529720, Note_on_c, 0, 74, 0
2, 2529720, Note_on_c, 0, 76, 100
2, 2529840, Note_on_c, 0, 76, 0
2, 2529840, Note_on_c, 0, 64, 100
2, 2530080, Note_on_c, 0, 64, 0
2, 2530080, Note_on_c, 0, 63, 100
2, 2530320, Note_on_c, 0, 63, 0
2, 2530320, Note_on_c, 0, 62, 100
2, 2530560, Note_on_c, 0, 62, 0
2, 2530560, Note_on_c, 0, 61, 100
2, 2530800, Note_on_c, 0, 61, 0
2, 2530800, Note_on_c, 0, 76, 100
2, 2531040, Note_on_c, 0, 76, 0
2, 2531040, Note_on_c, 0, 74, 100
2, 2531280, Note_on_c, 0, 74, 0
2, 2531280, Note_on_c, 0, 62, 100
2, 2531520, Note_on_c, 0, 62, 0
2, 2531520, Note_on_c, 0, 61, 100
2, 2531760, Note_on_c, 0, 61, 0
2, 2531760, Note_on_c, 0, 60, 100
2, 2532000, Note_on_c, 0, 60, 0
2, 2532000, Note_on_c, 0, 59, 100
2, 2532240, Note_on_c, 0, 59, 0
2, 2532240, Note_on_c, 0, 74, 100
2, 2532480, Note_on_c, 0, 74, 0
2, 2532480, Note_on_c, 0, 72, 100
2, 2532780, Note_on_c, 0, 72, 0
2, 2532780, Note_on_c, 0, 74, 100
2, 2532840, Note_on_c, 0, 74, 0
2, 2532840, Note_on_c, 0, 72, 100
2, 2532900, Note_on_c, 0, 72, 0
2, 2532900, Note_on_c, 0, 74, 100
2, 2532960, Note_on_c, 0, 74, 0
2, 2532960, Note_on_c, 0, 72, 100
2, 2533020, Note_on_c, 0, 72, 0
2, 2533020, Note_on_c, 0, 74, 100
2, 2533080, Note_on_c, 0, 74, 0
2, 2533080, Note_on_c, 0, 72, 100
2, 2533260, Note_on_c, 0, 72, 0
2, 2533260, Note_on_c, 0, 74, 100
2, 2533320, Note_on_c, 0, 74, 0
2, 2533320, Note_on_c, 0, 72, 100
2, 2533380, Note_on_c, 0, 72, 0
2, 2533380, Note_on_c, 0, 74, 100
2, 2533440, Note_on_c, 0, 74, 0
2, 2533440, Note_on_c, 0, 72, 100
2, 2533500, Note_on_c, 0, 72, 0
2, 2533500, Note_on_c, 0, 74, 100
2, 2533560, Note_on_c, 0, 74, 0
2, 2533560, Note_on_c, 0, 72, 100
2, 2533740, Note_on_c, 0, 72, 0
2, 2533740, Note_on_c, 0, 74, 100
2, 2533800, Note_on_c, 0, 74, 0
2, 2533800, Note_on_c, 0, 72, 100
2, 2533860, Note_on_c, 0, 72, 0
2, 2533860, Note_on_c, 0, 74, 100
2, 2533920, Note_on_c, 0, 74, 0
2, 2533920, Note_on_c, 0, 72, 100
2, 2533980, Note_on_c, 0, 72, 0
2, 2533980, Note_on_c, 0, 74, 100
2, 2534040, Note_on_c, 0, 74, 0
2, 2534040, Note_on_c, 0, 72, 100
2, 2534220, Note_on_c, 0, 72, 0
2, 2534220, Note_on_c, 0, 74, 100
2, 2534280, Note_on_c, 0, 74, 0
2, 2534280, Note_on_c, 0, 72, 100
2, 2534340, Note_on_c, 0, 72, 0
2, 2534340, Note_on_c, 0, 74, 100
2, 2534400, Note_on_c, 0, 74, 0
2, 2534400, Note_on_c, 0, 72, 100
2, 2534460, Note_on_c, 0, 72, 0
2, 2534460, Note_on_c, 0, 74, 100
2, 2534520, Note_on_c, 0, 74, 0
2, 2534520, Note_on_c, 0, 72, 100
2, 2534700, Note_on_c, 0, 72, 0
2, 2534700, Note_on_c, 0, 74, 100
2, 2534760, Note_on_c, 0, 74, 0
2, 2534760, Note_on_c, 0, 72, 100
2, 2534820, Note_on_c, 0, 72, 0
2, 2534820, Note_on_c, 0, 74, 100
2, 2534880, Note_on_c, 0, 74, 0
2, 2534880, Note_on_c, 0, 72, 100
2, 2534940, Note_on_c, 0, 72, 0
2, 2534940, Note_on_c, 0, 74, 100
2, 2535000, Note_on_c, 0, 74, 0
2, 2535000, Note_on_c, 0, 72, 100
2, 2535180, Note_on_c, 0, 72, 0
2, 2535180, Note_on_c, 0, 74, 100
2, 2535240, Note_on_c, 0, 74, 0
2, 2535240, Note_on_c, 0, 72, 100
2, 2535300, Note_on_c, 0, 72, 0
2, 2535300, Note_on_c, 0, 74, 100
2, 2535360, Note_on_c, 0, 74, 0
2, 2535360, Note_on_c, 0, 72, 100
2, 2535420, Note_on_c, 0, 72, 0
2, 2535420, Note_on_c, 0, 74, 100
2, 2535480, Note_on_c, 0, 74, 0
2, 2535480, Note_on_c, 0, 72, 100
2, 2535540, Note_on_c, 0, 72, 0
2, 2535540, Note_on_c, 0, 71, 100
2, 2535600, Note_on_c, 0, 71, 0
2, 2535600, Note_on_c, 0, 72, 100
2, 2536080, Note_on_c, 0, 72, 0
2, 2536080, Note_on_c, 0, 74, 100
2, 2536560, Note_on_c, 0, 74, 0
2, 2536560, Note_on_c, 0, 64, 100
2, 2537040, Note_on_c, 0, 64, 0
2, 2537040, Note_on_c, 0, 76, 100
2, 2537280, Note_on_c, 0, 76, 0
2, 2537280, Note_on_c, 0, 77, 100
2, 2537520, Note_on_c, 0, 77, 0
2, 2537520, Note_on_c, 0, 78, 100
2, 2537760, Note_on_c, 0, 78, 0
2, 2537760, Note_on_c, 0, 79, 100
2, 2538000, Note_on_c, 0, 79, 0
2, 2538000, Note_on_c, 0, 80, 100
2, 2538240, Note_on_c, 0, 80, 0
2, 2538240, Note_on_c, 0, 81, 100
2, 2538480, Note_on_c, 0, 81, 0
2, 2538480, Note_on_c, 0, 66, 100
2, 2538600, Note_on_c, 0, 66, 0
2, 2538600, Note_on_c, 0, 64, 100
2, 2538720, Note_on_c, 0, 64, 0
2, 2538720, Note_on_c, 0, 66, 100
2, 2538840, Note_on_c, 0, 66, 0
2, 2538840, Note_on_c, 0, 67, 100
2, 2538960, Note_on_c, 0, 67, 0
2, 2538960, Note_on_c, 0, 71, 100
2, 2539080, Note_on_c, 0, 71, 0
2, 2539080, Note_on_c, 0, 69, 100
2, 2539200, Note_on_c, 0, 69, 0
2, 2539200, Note_on_c, 0, 71, 100
2, 2539320, Note_on_c, 0, 71, 0
2, 2539320, Note_on_c, 0, 72, 100
2, 2539440, Note_on_c, 0, 72, 0
2, 2539440, Note_on_c, 0, 69, 100
2, 2539560, Note_on_c, 0, 69, 0
2, 2539560, Note_on_c, 0, 66, 100
2, 2539680, Note_on_c, 0, 66, 0
2, 2539680, Note_on_c, 0, 62, 100
2, 2539800, Note_on_c, 0, 62, 0
2, 2539800, Note_on_c, 0, 67, 100
2, 2539920, Note_on_c, 0, 67, 0
2, 2539920, Note_on_c, 0, 71, 100
2, 2540040, Note_on_c, 0, 71, 0
2, 2540040, Note_on_c, 0, 69, 100
2, 2540160, Note_on_c, 0, 69, 0
2, 2540160, Note_on_c, 0, 71, 100
2, 2540280, Note_on_c, 0, 71, 0
2, 2540280, Note_on_c, 0, 74, 100
2, 2540400, Note_on_c, 0, 74, 0
2, 2540400, Note_on_c, 0, 79, 100
2, 2540520, Note_on_c, 0, 79, 0
2, 2540520, Note_on_c, 0, 78, 100
2, 2540640, Note_on_c, 0, 78, 0
2, 2540640, Note_on_c, 0, 79, 100
2, 2540760, Note_on_c, 0, 79, 0
2, 2540760, Note_on_c, 0, 83, 100
2, 2540880, Note_on_c, 0, 83, 0
2, 2540880, Note_on_c, 0, 79, 100
2, 2547180, Note_on_c, 0, 79, 0
2, 2547180, Note_on_c, 0, 81, 100
2, 2547240, Note_on_c, 0, 81, 0
2, 2547240, Note_on_c, 0, 79, 100
2, 2547300, Note_on_c, 0, 79, 0
2, 2547300, Note_on_c, 0, 81, 100
2, 2547360, Note_on_c, 0, 81, 0
2, 2547360, Note_on_c, 0, 79, 100
2, 2547420, Note_on_c, 0, 79, 0
2, 2547420, Note_on_c, 0, 81, 100
2, 2547480, Note_on_c, 0, 81, 0
2, 2547480, Note_on_c, 0, 79, 100
2, 2547660, Note_on_c, 0, 79, 0
2, 2547660, Note_on_c, 0, 81, 100
2, 2547720, Note_on_c, 0, 81, 0
2, 2547720, Note_on_c, 0, 79, 100
2, 2547780, Note_on_c, 0, 79, 0
2, 2547780, Note_on_c, 0, 81, 100
2, 2547840, Note_on_c, 0, 81, 0
2, 2547840, Note_on_c, 0, 79, 100
2, 2547900, Note_on_c, 0, 79, 0
2, 2547900, Note_on_c, 0, 81, 100
2, 2547960, Note_on_c, 0, 81, 0
2, 2547960, Note_on_c, 0, 79, 100
2, 2548140, Note_on_c, 0, 79, 0
2, 2548140, Note_on_c, 0, 81, 100
2, 2548200, Note_on_c, 0, 81, 0
2, 2548200, Note_on_c, 0, 79, 100
2, 2548260, Note_on_c, 0, 79, 0
2, 2548260, Note_on_c, 0, 81, 100
2, 2548320, Note_on_c, 0, 81, 0
2, 2548320, Note_on_c, 0, 79, 100
2, 2548380, Note_on_c, 0, 79, 0
2, 2548380, Note_on_c, 0, 81, 100
2, 2548440, Note_on_c, 0, 81, 0
2, 2548440, Note_on_c, 0, 79, 100
2, 2548620, Note_on_c, 0, 79, 0
2, 2548620, Note_on_c, 0, 81, 100
2, 2548680, Note_on_c, 0, 81, 0
2, 2548680, Note_on_c, 0, 79, 100
2, 2548740, Note_on_c, 0, 79, 0
2, 2548740, Note_on_c, 0, 81, 100
2, 2548800, Note_on_c, 0, 81, 0
2, 2548800, Note_on_c, 0, 79, 100
2, 2548860, Note_on_c, 0, 79, 0
2, 2548860, Note_on_c, 0, 81, 100
2, 2548920, Note_on_c, 0, 81, 0
2, 2548920, Note_on_c, 0, 79, 100
2, 2549100, Note_on_c, 0, 79, 0
2, 2549100, Note_on_c, 0, 81, 100
2, 2549160, Note_on_c, 0, 81, 0
2, 2549160, Note_on_c, 0, 79, 100
2, 2549220, Note_on_c, 0, 79, 0
2, 2549220, Note_on_c, 0, 81, 100
2, 2549280, Note_on_c, 0, 81, 0
2, 2549280, Note_on_c, 0, 79, 100
2, 2549340, Note_on_c, 0, 79, 0
2, 2549340, Note_on_c, 0, 81, 100
2, 2549400, Note_on_c, 0, 81, 0
2, 2549400, Note_on_c, 0, 79, 100
2, 2549580, Note_on_c, 0, 79, 0
2, 2549580, Note_on_c, 0, 81, 100
2, 2549640, Note_on_c, 0, 81, 0
2, 2549640, Note_on_c, 0, 79, 100
2, 2549700, Note_on_c, 0, 79, 0
2, 2549700, Note_on_c, 0, 81, 100
2, 2549760, Note_on_c, 0, 81, 0
2, 2549760, Note_on_c, 0, 79, 100
2, 2549820, Note_on_c, 0, 79, 0
2, 2549820, Note_on_c, 0, 81, 100
2, 2549880, Note_on_c, 0, 81, 0
2, 2549880, Note_on_c, 0, 79, 100
2, 2550060, Note_on_c, 0, 79, 0
2, 2550060, Note_on_c, 0, 81, 100
2, 2550120, Note_on_c, 0, 81, 0
2, 2550120, Note_on_c, 0, 79, 100
2, 2550180, Note_on_c, 0, 79, 0
2, 2550180, Note_on_c, 0, 81, 100
2, 2550240, Note_on_c, 0, 81, 0
2, 2550240, Note_on_c, 0, 79, 100
2, 2550300, Note_on_c, 0, 79, 0
2, 2550300, Note_on_c, 0, 81, 100
2, 2550360, Note_on_c, 0, 81, 0
2, 2550360, Note_on_c, 0, 79, 100
2, 2550540, Note_on_c, 0, 79, 0
2, 2550540, Note_on_c, 0, 81, 100
2, 2550600, Note_on_c, 0, 81, 0
2, 2550600, Note_on_c, 0, 79, 100
2, 2550660, Note_on_c, 0, 79, 0
2, 2550660, Note_on_c, 0, 81, 100
2, 2550720, Note_on_c, 0, 81, 0
2, 2550720, Note_on_c, 0, 79, 100
2, 2550780, Note_on_c, 0, 79, 0
2, 2550780, Note_on_c, 0, 81, 100
2, 2550840, Note_on_c, 0, 81, 0
2, 2550840, Note_on_c, 0, 79, 100
2, 2550900, Note_on_c, 0, 79, 0
2, 2550900, Note_on_c, 0, 78, 100
2, 2551020, Note_on_c, 0, 78, 0
2, 2551020, Note_on_c, 0, 79, 100
2, 2551080, Note_on_c, 0, 79, 0
2, 2551080, Note_on_c, 0, 78, 100
2, 2551140, Note_on_c, 0, 78, 0
2, 2551140, Note_on_c, 0, 79, 100
2, 2551200, Note_on_c, 0, 79, 0
2, 2551200, Note_on_c, 0, 78, 100
2, 2551260, Note_on_c, 0, 78, 0
2, 2551260, Note_on_c, 0, 79, 100
2, 2551320, Note_on_c, 0, 79, 0
2, 2551320, Note_on_c, 0, 78, 100
2, 2551380, Note_on_c, 0, 78, 0
2, 2551380, Note_on_c, 0, 76, 100
2, 2551440, Note_on_c, 0, 76, 0
2, 2551440, Note_on_c, 0, 67, 100
2, 2551560, Note_on_c, 0, 67, 0
2, 2551560, Note_on_c, 0, 66, 100
2, 2551680, Note_on_c, 0, 66, 0
2, 2551680, Note_on_c, 0, 67, 100
2, 2551800, Note_on_c, 0, 67, 0
2, 2551800, Note_on_c, 0, 71, 100
2, 2551920, Note_on_c, 0, 71, 0
2, 2551920, Note_on_c, 0, 76, 100
2, 2552040, Note_on_c, 0, 76, 0
2, 2552040, Note_on_c, 0, 75, 100
2, 2552160, Note_on_c, 0, 75, 0
2, 2552160, Note_on_c, 0, 76, 100
2, 2552280, Note_on_c, 0, 76, 0
2, 2552280, Note_on_c, 0, 79, 100
2, 2552400, Note_on_c, 0, 79, 0
2, 2552400, Note_on_c, 0, 77, 100
2, 2552460, Note_on_c, 0, 77, 0
2, 2552460, Note_on_c, 0, 76, 100
2, 2552520, Note_on_c, 0, 76, 0
2, 2552520, Note_on_c, 0, 77, 100
2, 2552640, Note_on_c, 0, 77, 0
2, 2552640, Note_on_c, 0, 76, 100
2, 2552700, Note_on_c, 0, 76, 0
2, 2552700, Note_on_c, 0, 74, 100
2, 2552760, Note_on_c, 0, 74, 0
2, 2552760, Note_on_c, 0, 76, 100
2, 2552880, Note_on_c, 0, 76, 0
2, 2552880, Note_on_c, 0, 64, 100
2, 2553120, Note_on_c, 0, 64, 0
2, 2553120, Note_on_c, 0, 63, 100
2, 2553360, Note_on_c, 0, 63, 0
2, 2553360, Note_on_c, 0, 62, 100
2, 2553600, Note_on_c, 0, 62, 0
2, 2553600, Note_on_c, 0, 61, 100
2, 2553840, Note_on_c, 0, 61, 0
2, 2553840, Note_on_c, 0, 76, 100
2, 2554080, Note_on_c, 0, 76, 0
2, 2554080, Note_on_c, 0, 74, 100
2, 2554320, Note_on_c, 0, 74, 0
2, 2554320, Note_on_c, 0, 62, 100
2, 2554560, Note_on_c, 0, 62, 0
2, 2554560, Note_on_c, 0, 61, 100
2, 2554800, Note_on_c, 0, 61, 0
2, 2554800, Note_on_c, 0, 60, 100
2, 2555040, Note_on_c, 0, 60, 0
2, 2555040, Note_on_c, 0, 59, 100
2, 2555280, Note_on_c, 0, 59, 0
2, 2555280, Note_on_c, 0, 74, 100
2, 2555520, Note_on_c, 0, 74, 0
2, 2555520, Note_on_c, 0, 72, 100
2, 2555820, Note_on_c, 0, 72, 0
2, 2555820, Note_on_c, 0, 74, 100
2, 2555880, Note_on_c, 0, 74, 0
2, 2555880, Note_on_c, 0, 72, 100
2, 2555940, Note_on_c, 0, 72, 0
2, 2555940, Note_on_c, 0, 74, 100
2, 2556000, Note_on_c, 0, 74, 0
2, 2556000, Note_on_c, 0, 72, 100
2, 2556060, Note_on_c, 0, 72, 0
2, 2556060, Note_on_c, 0, 74, 100
2, 2556120, Note_on_c, 0, 74, 0
2, 2556120, Note_on_c, 0, 72, 100
2, 2556300, Note_on_c, 0, 72, 0
2, 2556300, Note_on_c, 0, 74, 100
2, 2556360, Note_on_c, 0, 74, 0
2, 2556360, Note_on_c, 0, 72, 100
2, 2556420, Note_on_c, 0, 72, 0
2, 2556420, Note_on_c, 0, 74, 100
2, 2556480, Note_on_c, 0, 74, 0
2, 2556480, Note_on_c, 0, 72, 100
2, 2556540, Note_on_c, 0, 72, 0
2, 2556540, Note_on_c, 0, 74, 100
2, 2556600, Note_on_c, 0, 74, 0
2, 2556600, Note_on_c, 0, 72, 100
2, 2556780, Note_on_c, 0, 72, 0
2, 2556780, Note_on_c, 0, 74, 100
2, 2556840, Note_on_c, 0, 74, 0
2, 2556840, Note_on_c, 0, 72, 100
2, 2556900, Note_on_c, 0, 72, 0
2, 2556900, Note_on_c, 0, 74, 100
2, 2556960, Note_on_c, 0, 74, 0
2, 2556960, Note_on_c, 0, 72, 100
2, 2557020, Note_on_c, 0, 72, 0
2, 2557020, Note_on_c, 0, 74, 100
2, 2557080, Note_on_c, 0, 74, 0
2, 2557080, Note_on_c, 0, 72, 100
2, 2557260, Note_on_c, 0, 72, 0
2, 2557260, Note_on_c, 0, 74, 100
2, 2557320, Note_on_c, 0, 74, 0
2, 2557320, Note_on_c, 0, 72, 100
2, 2557380, Note_on_c, 0, 72, 0
2, 2557380, Note_on_c, 0, 74, 100
2, 2557440, Note_on_c, 0, 74, 0
2, 2557440, Note_on_c, 0, 72, 100
2, 2557500, Note_on_c, 0, 72, 0
2, 2557500, Note_on_c, 0, 74, 100
2, 2557560, Note_on_c, 0, 74, 0
2, 2557560, Note_on_c, 0, 72, 100
2, 2557740, Note_on_c, 0, 72, 0
2, 2557740, Note_on_c, 0, 74, 100
2, 2557800, Note_on_c, 0, 74, 0
2, 2557800, Note_on_c, 0, 72, 100
2, 2557860, Note_on_c, 0, 72, 0
2, 2557860, Note_on_c, 0, 74, 100
2, 2557920, Note_on_c, 0, 74, 0
2, 2557920, Note_on_c, 0, 72, 100
2, 2557980, Note_on_c, 0, 72, 0
2, 2557980, Note_on_c, 0, 74, 100
2, 2558040, Note_on_c, 0, 74, 0
2, 2558040, Note_on_c, 0, 72, 100
2, 2558220, Note_on_c, 0, 72, 0
2, 2558220, Note_on_c, 0, 74, 100
2, 2558280, Note_on_c, 0, 74, 0
2, 2558280, Note_on_c, 0, 72, 100
2, 2558340, Note_on_c, 0, 72, 0
2, 2558340, Note_on_c, 0, 74, 100
2, 2558400, Note_on_c, 0, 74, 0
2, 2558400, Note_on_c, 0, 72, 100
2, 2558460, Note_on_c, 0, 72, 0
2, 2558460, Note_on_c, 0, 74, 100
2, 2558520, Note_on_c, 0, 74, 0
2, 2558520, Note_on_c, 0, 72, 100
2, 2558580, Note_on_c, 0, 72, 0
2, 2558580, Note_on_c, 0, 71, 100
2, 2558640, Note_on_c, 0, 71, 0
2, 2558640, Note_on_c, 0, 72, 100
2, 2559120, Note_on_c, 0, 72, 0
2, 2559120, Note_on_c, 0, 74, 100
2, 2559600, Note_on_c, 0, 74, 0
2, 2559600, Note_on_c, 0, 64, 100
2, 2560080, Note_on_c, 0, 64, 0
2, 2560080, Note_on_c, 0, 76, 100
2, 2560320, Note_on_c, 0, 76, 0
2, 2560320, Note_on_c, 0, 77, 100
2, 2560560, Note_on_c, 0, 77, 0
2, 2560560, Note_on_c, 0, 78, 100
2, 2560800, Note_on_c, 0, 78, 0
2, 2560800, Note_on_c, 0, 79, 100
2, 2561040, Note_on_c, 0, 79, 0
2, 2561040, Note_on_c, 0, 80, 100
2, 2561280, Note_on_c, 0, 80, 0
2, 2561280, Note_on_c, 0, 81, 100
2, 2561520, Note_on_c, 0, 81, 0
2, 2561520, Note_on_c, 0, 66, 100
2, 2561640, Note_on_c, 0, 66, 0
2, 2561640, Note_on_c, 0, 64, 100
2, 2561760, Note_on_c, 0, 64, 0
2, 2561760, Note_on_c, 0, 66, 100
2, 2561880, Note_on_c, 0, 66, 0
2, 2561880, Note_on_c, 0, 67, 100
2, 2562000, Note_on_c, 0, 67, 0
2, 2562000, Note_on_c, 0, 71, 100
2, 2562120, Note_on_c, 0, 71, 0
2, 2562120, Note_on_c, 0, 69, 100
2, 2562240, Note_on_c, 0, 69, 0
2, 2562240, Note_on_c, 0, 71, 100
2, 2562360, Note_on_c, 0, 71, 0
2, 2562360, Note_on_c, 0, 72, 100
2, 2562480, Note_on_c, 0, 72, 0
2, 2562480, Note_on_c, 0, 69, 100
2, 2562600, Note_on_c, 0, 69, 0
2, 2562600, Note_on_c, 0, 66, 100
2, 2562720, Note_on_c, 0, 66, 0
2, 2562720, Note_on_c, 0, 62, 100
2, 2562840, Note_on_c, 0, 62, 0
2, 2562840, Note_on_c, 0, 67, 100
2, 2562960, Note_on_c, 0, 67, 0
2, 2562960, Note_on_c, 0, 71, 100
2, 2563080, Note_on_c, 0, 71, 0
2, 2563080, Note_on_c, 0, 69, 100
2, 2563200, Note_on_c, 0, 69, 0
2, 2563200, Note_on_c, 0, 71, 100
2, 2563320, Note_on_c, 0, 71, 0
2, 2563320, Note_on_c, 0, 74, 100
2, 2563440, Note_on_c, 0, 74, 0
2, 2563440, Note_on_c, 0, 79, 100
2, 2563560, Note_on_c, 0, 79, 0
2, 2563560, Note_on_c, 0, 78, 100
2, 2563680, Note_on_c, 0, 78, 0
2, 2563680, Note_on_c, 0, 79, 100
2, 2563800, Note_on_c, 0, 79, 0
2, 2563800, Note_on_c, 0, 83, 100
2, 2563920, Note_on_c, 0, 83, 0
2, 2563920, Note_on_c, 0, 59, 100
2, 2565720, Note_on_c, 0, 59, 0
2, 2565720, Note_on_c, 0, 66, 100
2, 2567160, Note_on_c, 0, 66, 0
2, 2567160, Note_on_c, 0, 71, 100
2, 2567640, Note_on_c, 0, 71, 0
2, 2567640, Note_on_c, 0, 76, 100
2, 2568600, Note_on_c, 0, 76, 0
2, 2568600, Note_on_c, 0, 74, 100
2, 2568720, Note_on_c, 0, 74, 0
2, 2568720, Note_on_c, 0, 84, 100
2, 2569280, Note_on_c, 0, 84, 0
2, 2569280, Note_on_c, 0, 83, 100
2, 2569360, Note_on_c, 0, 83, 0
2, 2569360, Note_on_c, 0, 72, 100
2, 2569440, Note_on_c, 0, 72, 0
2, 2569440, Note_on_c, 0, 83, 100
2, 2569520, Note_on_c, 0, 83, 0
2, 2569520, Note_on_c, 0, 81, 100
2, 2569600, Note_on_c, 0, 81, 0
2, 2569600, Note_on_c, 0, 71, 100
2, 2569680, Note_on_c, 0, 71, 0
2, 2569680, Note_on_c, 0, 81, 100
2, 2569760, Note_on_c, 0, 81, 0
2, 2569760, Note_on_c, 0, 79, 100
2, 2569840, Note_on_c, 0, 79, 0
2, 2569840, Note_on_c, 0, 69, 100
2, 2569920, Note_on_c, 0, 69, 0
2, 2569920, Note_on_c, 0, 79, 100
2, 2570000, Note_on_c, 0, 79, 0
2, 2570000, Note_on_c, 0, 78, 100
2, 2570080, Note_on_c, 0, 78, 0
2, 2570080, Note_on_c, 0, 74, 100
2, 2570160, Note_on_c, 0, 74, 0
2, 2570160, Note_on_c, 0, 79, 100
2, 2570520, Note_on_c, 0, 79, 0
2, 2570520, Note_on_c, 0, 74, 100
2, 2570760, Note_on_c, 0, 74, 0
2, 2570760, Note_on_c, 0, 71, 100
2, 2571000, Note_on_c, 0, 71, 0
2, 2571000, Note_on_c, 0, 74, 100
2, 2571240, Note_on_c, 0, 74, 0
2, 2571240, Note_on_c, 0, 71, 100
2, 2571480, Note_on_c, 0, 71, 0
2, 2571480, Note_on_c, 0, 67, 100
2, 2572200, Note_on_c, 0, 67, 0
2, 2572200, Note_on_c, 0, 72, 100
2, 2572680, Note_on_c, 0, 72, 0
2, 2572680, Note_on_c, 0, 67, 100
2, 2572920, Note_on_c, 0, 67, 0
2, 2572920, Note_on_c, 0, 74, 100
2, 2573640, Note_on_c, 0, 74, 0
2, 2573640, Note_on_c, 0, 69, 100
2, 2573880, Note_on_c, 0, 69, 0
2, 2573880, Note_on_c, 0, 66, 100
2, 2574360, Note_on_c, 0, 66, 0
2, 2574360, Note_on_c, 0, 71, 100
2, 2574480, Note_on_c, 0, 71, 0
2, 2574480, Note_on_c, 0, 69, 100
2, 2575040, Note_on_c, 0, 69, 0
2, 2575040, Note_on_c, 0, 71, 100
2, 2575120, Note_on_c, 0, 71, 0
2, 2575120, Note_on_c, 0, 72, 100
2, 2575200, Note_on_c, 0, 72, 0
2, 2575200, Note_on_c, 0, 71, 100
2, 2575280, Note_on_c, 0, 71, 0
2, 2575280, Note_on_c, 0, 69, 100
2, 2575360, Note_on_c, 0, 69, 0
2, 2575360, Note_on_c, 0, 71, 100
2, 2575440, Note_on_c, 0, 71, 0
2, 2575440, Note_on_c, 0, 69, 100
2, 2575520, Note_on_c, 0, 69, 0
2, 2575520, Note_on_c, 0, 67, 100
2, 2575600, Note_on_c, 0, 67, 0
2, 2575600, Note_on_c, 0, 76, 100
2, 2575680, Note_on_c, 0, 76, 0
2, 2575680, Note_on_c, 0, 74, 100
2, 2575760, Note_on_c, 0, 74, 0
2, 2575760, Note_on_c, 0, 72, 100
2, 2575840, Note_on_c, 0, 72, 0
2, 2575840, Note_on_c, 0, 74, 100
2, 2575920, Note_on_c, 0, 74, 0
2, 2575920, Note_on_c, 0, 67, 100
2, 2576080, Note_on_c, 0, 67, 0
2, 2576080, Note_on_c, 0, 66, 100
2, 2576160, Note_on_c, 0, 66, 0
2, 2576160, Note_on_c, 0, 60, 100
2, 2576240, Note_on_c, 0, 60, 0
2, 2576240, Note_on_c, 0, 67, 100
2, 2576560, Note_on_c, 0, 67, 0
2, 2576560, Note_on_c, 0, 69, 100
2, 2576640, Note_on_c, 0, 69, 0
2, 2576640, Note_on_c, 0, 66, 100
2, 2576720, Note_on_c, 0, 66, 0
2, 2576720, Note_on_c, 0, 71, 100
2, 2577040, Note_on_c, 0, 71, 0
2, 2577040, Note_on_c, 0, 73, 100
2, 2577120, Note_on_c, 0, 73, 0
2, 2577120, Note_on_c, 0, 69, 100
2, 2577200, Note_on_c, 0, 69, 0
2, 2577200, Note_on_c, 0, 74, 100
2, 2577520, Note_on_c, 0, 74, 0
2, 2577520, Note_on_c, 0, 73, 100
2, 2577600, Note_on_c, 0, 73, 0
2, 2577600, Note_on_c, 0, 67, 100
2, 2577680, Note_on_c, 0, 67, 0
2, 2577680, Note_on_c, 0, 74, 100
2, 2578000, Note_on_c, 0, 74, 0
2, 2578000, Note_on_c, 0, 76, 100
2, 2578080, Note_on_c, 0, 76, 0
2, 2578080, Note_on_c, 0, 73, 100
2, 2578160, Note_on_c, 0, 73, 0
2, 2578160, Note_on_c, 0, 78, 100
2, 2578480, Note_on_c, 0, 78, 0
2, 2578480, Note_on_c, 0, 74, 100
2, 2578560, Note_on_c, 0, 74, 0
2, 2578560, Note_on_c, 0, 71, 100
2, 2578640, Note_on_c, 0, 71, 0
2, 2578640, Note_on_c, 0, 72, 100
2, 2578960, Note_on_c, 0, 72, 0
2, 2578960, Note_on_c, 0, 71, 100
2, 2579040, Note_on_c, 0, 71, 0
2, 2579040, Note_on_c, 0, 67, 100
2, 2579120, Note_on_c, 0, 67, 0
2, 2579120, Note_on_c, 0, 69, 100
2, 2579440, Note_on_c, 0, 69, 0
2, 2579440, Note_on_c, 0, 67, 100
2, 2579520, Note_on_c, 0, 67, 0
2, 2579520, Note_on_c, 0, 64, 100
2, 2579600, Note_on_c, 0, 64, 0
2, 2579600, Note_on_c, 0, 66, 100
2, 2579920, Note_on_c, 0, 66, 0
2, 2579920, Note_on_c, 0, 64, 100
2, 2580000, Note_on_c, 0, 64, 0
2, 2580000, Note_on_c, 0, 61, 100
2, 2580080, Note_on_c, 0, 61, 0
2, 2580080, Note_on_c, 0, 66, 100
2, 2580400, Note_on_c, 0, 66, 0
2, 2580400, Note_on_c, 0, 64, 100
2, 2580480, Note_on_c, 0, 64, 0
2, 2580480, Note_on_c, 0, 61, 100
2, 2580560, Note_on_c, 0, 61, 0
2, 2580560, Note_on_c, 0, 62, 100
2, 2580880, Note_on_c, 0, 62, 0
2, 2580880, Note_on_c, 0, 61, 100
2, 2580960, Note_on_c, 0, 61, 0
2, 2580960, Note_on_c, 0, 57, 100
2, 2581040, Note_on_c, 0, 57, 0
2, 2581040, Note_on_c, 0, 59, 100
2, 2581360, Note_on_c, 0, 59, 0
2, 2581360, Note_on_c, 0, 57, 100
2, 2581440, Note_on_c, 0, 57, 0
2, 2581440, Note_on_c, 0, 54, 100
2, 2581520, Note_on_c, 0, 54, 0
2, 2581520, Note_on_c, 0, 59, 100
2, 2581840, Note_on_c, 0, 59, 0
2, 2581840, Note_on_c, 0, 57, 100
2, 2581920, Note_on_c, 0, 57, 0
2, 2581920, Note_on_c, 0, 54, 100
2, 2582000, Note_on_c, 0, 54, 0
2, 2582000, Note_on_c, 0, 55, 100
2, 2582320, Note_on_c, 0, 55, 0
2, 2582320, Note_on_c, 0, 54, 100
2, 2582400, Note_on_c, 0, 54, 0
2, 2582400, Note_on_c, 0, 50, 100
2, 2582480, Note_on_c, 0, 50, 0
2, 2582480, Note_on_c, 0, 52, 100
2, 2582800, Note_on_c, 0, 52, 0
2, 2582800, Note_on_c, 0, 50, 100
2, 2582880, Note_on_c, 0, 50, 0
2, 2582880, Note_on_c, 0, 47, 100
2, 2582960, Note_on_c, 0, 47, 0
2, 2582960, Note_on_c, 0, 52, 100
2, 2583280, Note_on_c, 0, 52, 0
2, 2583280, Note_on_c, 0, 50, 100
2, 2583360, Note_on_c, 0, 50, 0
2, 2583360, Note_on_c, 0, 47, 100
2, 2583440, Note_on_c, 0, 47, 0
2, 2583440, Note_on_c, 0, 48, 100
2, 2583760, Note_on_c, 0, 48, 0
2, 2583760, Note_on_c, 0, 47, 100
2, 2583840, Note_on_c, 0, 47, 0
2, 2583840, Note_on_c, 0, 43, 100
2, 2583920, Note_on_c, 0, 43, 0
2, 2583920, Note_on_c, 0, 45, 100
2, 2584240, Note_on_c, 0, 45, 0
2, 2584240, Note_on_c, 0, 43, 100
2, 2584320, Note_on_c, 0, 43, 0
2, 2584320, Note_on_c, 0, 40, 100
2, 2584400, Note_on_c, 0, 40, 0
2, 2584400, Note_on_c, 0, 55, 100
2, 2584640, Note_on_c, 0, 55, 0
2, 2584640, Note_on_c, 0, 57, 100
2, 2584720, Note_on_c, 0, 57, 0
2, 2584720, Note_on_c, 0, 64, 100
2, 2584800, Note_on_c, 0, 64, 0
2, 2584800, Note_on_c, 0, 57, 100
2, 2584880, Note_on_c, 0, 57, 0
2, 2584880, Note_on_c, 0, 55, 100
2, 2584960, Note_on_c, 0, 55, 0
2, 2584960, Note_on_c, 0, 54, 100
2, 2585120, Note_on_c, 0, 54, 0
2, 2585120, Note_on_c, 0, 57, 100
2, 2585200, Note_on_c, 0, 57, 0
2, 2585200, Note_on_c, 0, 62, 100
2, 2585280, Note_on_c, 0, 62, 0
2, 2585280, Note_on_c, 0, 57, 100
2, 2585360, Note_on_c, 0, 57, 0
2, 2585360, Note_on_c, 0, 54, 100
2, 2585440, Note_on_c, 0, 54, 0
2, 2585440, Note_on_c, 0, 52, 100
2, 2585600, Note_on_c, 0, 52, 0
2, 2585600, Note_on_c, 0, 55, 100
2, 2585680, Note_on_c, 0, 55, 0
2, 2585680, Note_on_c, 0, 61, 100
2, 2585760, Note_on_c, 0, 61, 0
2, 2585760, Note_on_c, 0, 55, 100
2, 2585840, Note_on_c, 0, 55, 0
2, 2585840, Note_on_c, 0, 52, 100
2, 2585920, Note_on_c, 0, 52, 0
2, 2585920, Note_on_c, 0, 57, 100
2, 2586840, Note_on_c, 0, 57, 0
2, 2586840, Note_on_c, 0, 59, 100
2, 2588760, Note_on_c, 0, 59, 0
2, 2588760, Note_on_c, 0, 66, 100
2, 2590200, Note_on_c, 0, 66, 0
2, 2590200, Note_on_c, 0, 71, 100
2, 2590680, Note_on_c, 0, 71, 0
2, 2590680, Note_on_c, 0, 76, 100
2, 2591640, Note_on_c, 0, 76, 0
2, 2591640, Note_on_c, 0, 74, 100
2, 2591760, Note_on_c, 0, 74, 0
2, 2591760, Note_on_c, 0, 84, 100
2, 2592320, Note_on_c, 0, 84, 0
2, 2592320, Note_on_c, 0, 83, 100
2, 2592400, Note_on_c, 0, 83, 0
2, 2592400, Note_on_c, 0, 72, 100
2, 2592480, Note_on_c, 0, 72, 0
2, 2592480, Note_on_c, 0, 83, 100
2, 2592560, Note_on_c, 0, 83, 0
2, 2592560, Note_on_c, 0, 81, 100
2, 2592640, Note_on_c, 0, 81, 0
2, 2592640, Note_on_c, 0, 71, 100
2, 2592720, Note_on_c, 0, 71, 0
2, 2592720, Note_on_c, 0, 81, 100
2, 2592800, Note_on_c, 0, 81, 0
2, 2592800, Note_on_c, 0, 79, 100
2, 2592880, Note_on_c, 0, 79, 0
2, 2592880, Note_on_c, 0, 69, 100
2, 2592960, Note_on_c, 0, 69, 0
2, 2592960, Note_on_c, 0, 79, 100
2, 2593040, Note_on_c, 0, 79, 0
2, 2593040, Note_on_c, 0, 78, 100
2, 2593120, Note_on_c, 0, 78, 0
2, 2593120, Note_on_c, 0, 74, 100
2, 2593200, Note_on_c, 0, 74, 0
2, 2593200, Note_on_c, 0, 79, 100
2, 2593560, Note_on_c, 0, 79, 0
2, 2593560, Note_on_c, 0, 74, 100
2, 2593800, Note_on_c, 0, 74, 0
2, 2593800, Note_on_c, 0, 71, 100
2, 2594040, Note_on_c, 0, 71, 0
2, 2594040, Note_on_c, 0, 74, 100
2, 2594280, Note_on_c, 0, 74, 0
2, 2594280, Note_on_c, 0, 71, 100
2, 2594520, Note_on_c, 0, 71, 0
2, 2594520, Note_on_c, 0, 67, 100
2, 2595240, Note_on_c, 0, 67, 0
2, 2595240, Note_on_c, 0, 72, 100
2, 2595720, Note_on_c, 0, 72, 0
2, 2595720, Note_on_c, 0, 67, 100
2, 2595960, Note_on_c, 0, 67, 0
2, 2595960, Note_on_c, 0, 74, 100
2, 2596680, Note_on_c, 0, 74, 0
2, 2596680, Note_on_c, 0, 69, 100
2, 2596920, Note_on_c, 0, 69, 0
2, 2596920, Note_on_c, 0, 66, 100
2, 2597400, Note_on_c, 0, 66, 0
2, 2597400, Note_on_c, 0, 71, 100
2, 2597520, Note_on_c, 0, 71, 0
2, 2597520, Note_on_c, 0, 69, 100
2, 2598080, Note_on_c, 0, 69, 0
2, 2598080, Note_on_c, 0, 71, 100
2, 2598160, Note_on_c, 0, 71, 0
2, 2598160, Note_on_c, 0, 72, 100
2, 2598240, Note_on_c, 0, 72, 0
2, 2598240, Note_on_c, 0, 71, 100
2, 2598320, Note_on_c, 0, 71, 0
2, 2598320, Note_on_c, 0, 69, 100
2, 2598400, Note_on_c, 0, 69, 0
2, 2598400, Note_on_c, 0, 71, 100
2, 2598480, Note_on_c, 0, 71, 0
2, 2598480, Note_on_c, 0, 69, 100
2, 2598560, Note_on_c, 0, 69, 0
2, 2598560, Note_on_c, 0, 67, 100
2, 2598640, Note_on_c, 0, 67, 0
2, 2598640, Note_on_c, 0, 76, 100
2, 2598720, Note_on_c, 0, 76, 0
2, 2598720, Note_on_c, 0, 74, 100
2, 2598800, Note_on_c, 0, 74, 0
2, 2598800, Note_on_c, 0, 72, 100
2, 2598880, Note_on_c, 0, 72, 0
2, 2598880, Note_on_c, 0, 74, 100
2, 2598960, Note_on_c, 0, 74, 0
2, 2598960, Note_on_c, 0, 67, 100
2, 2599120, Note_on_c, 0, 67, 0
2, 2599120, Note_on_c, 0, 66, 100
2, 2599200, Note_on_c, 0, 66, 0
2, 2599200, Note_on_c, 0, 60, 100
2, 2599280, Note_on_c, 0, 60, 0
2, 2599280, Note_on_c, 0, 67, 100
2, 2599600, Note_on_c, 0, 67, 0
2, 2599600, Note_on_c, 0, 69, 100
2, 2599680, Note_on_c, 0, 69, 0
2, 2599680, Note_on_c, 0, 66, 100
2, 2599760, Note_on_c, 0, 66, 0
2, 2599760, Note_on_c, 0, 71, 100
2, 2600080, Note_on_c, 0, 71, 0
2, 2600080, Note_on_c, 0, 73, 100
2, 2600160, Note_on_c, 0, 73, 0
2, 2600160, Note_on_c, 0, 69, 100
2, 2600240, Note_on_c, 0, 69, 0
2, 2600240, Note_on_c, 0, 74, 100
2, 2600560, Note_on_c, 0, 74, 0
2, 2600560, Note_on_c, 0, 73, 100
2, 2600640, Note_on_c, 0, 73, 0
2, 2600640, Note_on_c, 0, 67, 100
2, 2600720, Note_on_c, 0, 67, 0
2, 2600720, Note_on_c, 0, 74, 100
2, 2601040, Note_on_c, 0, 74, 0
2, 2601040, Note_on_c, 0, 76, 100
2, 2601120, Note_on_c, 0, 76, 0
2, 2601120, Note_on_c, 0, 73, 100
2, 2601200, Note_on_c, 0, 73, 0
2, 2601200, Note_on_c, 0, 78, 100
2, 2601520, Note_on_c, 0, 78, 0
2, 2601520, Note_on_c, 0, 74, 100
2, 2601600, Note_on_c, 0, 74, 0
2, 2601600, Note_on_c, 0, 71, 100
2, 2601680, Note_on_c, 0, 71, 0
2, 2601680, Note_on_c, 0, 72, 100
2, 2602000, Note_on_c, 0, 72, 0
2, 2602000, Note_on_c, 0, 71, 100
2, 2602080, Note_on_c, 0, 71, 0
2, 2602080, Note_on_c, 0, 67, 100
2, 2602160, Note_on_c, 0, 67, 0
2, 2602160, Note_on_c, 0, 69, 100
2, 2602480, Note_on_c, 0, 69, 0
2, 2602480, Note_on_c, 0, 67, 100
2, 2602560, Note_on_c, 0, 67, 0
2, 2602560, Note_on_c, 0, 64, 100
2, 2602640, Note_on_c, 0, 64, 0
2, 2602640, Note_on_c, 0, 66, 100
2, 2602960, Note_on_c, 0, 66, 0
2, 2602960, Note_on_c, 0, 64, 100
2, 2603040, Note_on_c, 0, 64, 0
2, 2603040, Note_on_c, 0, 61, 100
2, 2603120, Note_on_c, 0, 61, 0
2, 2603120, Note_on_c, 0, 66, 100
2, 2603440, Note_on_c, 0, 66, 0
2, 2603440, Note_on_c, 0, 64, 100
2, 2603520, Note_on_c, 0, 64, 0
2, 2603520, Note_on_c, 0, 61, 100
2, 2603600, Note_on_c, 0, 61, 0
2, 2603600, Note_on_c, 0, 62, 100
2, 2603920, Note_on_c, 0, 62, 0
2, 2603920, Note_on_c, 0, 61, 100
2, 2604000, Note_on_c, 0, 61, 0
2, 2604000, Note_on_c, 0, 57, 100
2, 2604080, Note_on_c, 0, 57, 0
2, 2604080, Note_on_c, 0, 59, 100
2, 2604400, Note_on_c, 0, 59, 0
2, 2604400, Note_on_c, 0, 57, 100
2, 2604480, Note_on_c, 0, 57, 0
2, 2604480, Note_on_c, 0, 54, 100
2, 2604560, Note_on_c, 0, 54, 0
2, 2604560, Note_on_c, 0, 59, 100
2, 2604880, Note_on_c, 0, 59, 0
2, 2604880, Note_on_c, 0, 57, 100
2, 2604960, Note_on_c, 0, 57, 0
2, 2604960, Note_on_c, 0, 54, 100
2, 2605040, Note_on_c, 0, 54, 0
2, 2605040, Note_on_c, 0, 55, 100
2, 2605360, Note_on_c, 0, 55, 0
2, 2605360, Note_on_c, 0, 54, 100
2, 2605440, Note_on_c, 0, 54, 0
2, 2605440, Note_on_c, 0, 50, 100
2, 2605520, Note_on_c, 0, 50, 0
2, 2605520, Note_on_c, 0, 52, 100
2, 2605840, Note_on_c, 0, 52, 0
2, 2605840, Note_on_c, 0, 50, 100
2, 2605920, Note_on_c, 0, 50, 0
2, 2605920, Note_on_c, 0, 47, 100
2, 2606000, Note_on_c, 0, 47, 0
2, 2606000, Note_on_c, 0, 52, 100
2, 2606320, Note_on_c, 0, 52, 0
2, 2606320, Note_on_c, 0, 50, 100
2, 2606400, Note_on_c, 0, 50, 0
2, 2606400, Note_on_c, 0, 47, 100
2, 2606480, Note_on_c, 0, 47, 0
2, 2606480, Note_on_c, 0, 48, 100
2, 2606800, Note_on_c, 0, 48, 0
2, 2606800, Note_on_c, 0, 47, 100
2, 2606880, Note_on_c, 0, 47, 0
2, 2606880, Note_on_c, 0, 43, 100
2, 2606960, Note_on_c, 0, 43, 0
2, 2606960, Note_on_c, 0, 45, 100
2, 2607280, Note_on_c, 0, 45, 0
2, 2607280, Note_on_c, 0, 43, 100
2, 2607360, Note_on_c, 0, 43, 0
2, 2607360, Note_on_c, 0, 40, 100
2, 2607440, Note_on_c, 0, 40, 0
2, 2607440, Note_on_c, 0, 55, 100
2, 2607680, Note_on_c, 0, 55, 0
2, 2607680, Note_on_c, 0, 57, 100
2, 2607760, Note_on_c, 0, 57, 0
2, 2607760, Note_on_c, 0, 64, 100
2, 2607840, Note_on_c, 0, 64, 0
2, 2607840, Note_on_c, 0, 57, 100
2, 2607920, Note_on_c, 0, 57, 0
2, 2607920, Note_on_c, 0, 55, 100
2, 2608000, Note_on_c, 0, 55, 0
2, 2608000, Note_on_c, 0, 54, 100
2, 2608160, Note_on_c, 0, 54, 0
2, 2608160, Note_on_c, 0, 57, 100
2, 2608240, Note_on_c, 0, 57, 0
2, 2608240, Note_on_c, 0, 62, 100
2, 2608320, Note_on_c, 0, 62, 0
2, 2608320, Note_on_c, 0, 57, 100
2, 2608400, Note_on_c, 0, 57, 0
2, 2608400, Note_on_c, 0, 54, 100
2, 2608480, Note_on_c, 0, 54, 0
2, 2608480, Note_on_c, 0, 52, 100
2, 2608640, Note_on_c, 0, 52, 0
2, 2608640, Note_on_c, 0, 55, 100
2, 2608720, Note_on_c, 0, 55, 0
2, 2608720, Note_on_c, 0, 61, 100
2, 2608800, Note_on_c, 0, 61, 0
2, 2608800, Note_on_c, 0, 55, 100
2, 2608880, Note_on_c, 0, 55, 0
2, 2608880, Note_on_c, 0, 52, 100
2, 2608960, Note_on_c, 0, 52, 0
2, 2608960, Note_on_c, 0, 57, 100
2, 2609880, Note_on_c, 0, 57, 0
2, 2609880, Note_on_c, 0, 83, 100
2, 2610640, Note_on_c, 0, 83, 0
2, 2610640, Note_on_c, 0, 81, 100
2, 2610720, Note_on_c, 0, 81, 0
2, 2610720, Note_on_c, 0, 78, 100
2, 2610800, Note_on_c, 0, 78, 0
2, 2610800, Note_on_c, 0, 79, 100
2, 2611120, Note_on_c, 0, 79, 0
2, 2611120, Note_on_c, 0, 78, 100
2, 2611200, Note_on_c, 0, 78, 0
2, 2611200, Note_on_c, 0, 74, 100
2, 2611280, Note_on_c, 0, 74, 0
2, 2611280, Note_on_c, 0, 76, 100
2, 2611600, Note_on_c, 0, 76, 0
2, 2611600, Note_on_c, 0, 74, 100
2, 2611680, Note_on_c, 0, 74, 0
2, 2611680, Note_on_c, 0, 71, 100
2, 2611760, Note_on_c, 0, 71, 0
2, 2611760, Note_on_c, 0, 76, 100
2, 2612080, Note_on_c, 0, 76, 0
2, 2612080, Note_on_c, 0, 74, 100
2, 2612160, Note_on_c, 0, 74, 0
2, 2612160, Note_on_c, 0, 71, 100
2, 2612240, Note_on_c, 0, 71, 0
2, 2612240, Note_on_c, 0, 72, 100
2, 2612560, Note_on_c, 0, 72, 0
2, 2612560, Note_on_c, 0, 71, 100
2, 2612640, Note_on_c, 0, 71, 0
2, 2612640, Note_on_c, 0, 67, 100
2, 2612720, Note_on_c, 0, 67, 0
2, 2612720, Note_on_c, 0, 69, 100
2, 2613040, Note_on_c, 0, 69, 0
2, 2613040, Note_on_c, 0, 67, 100
2, 2613120, Note_on_c, 0, 67, 0
2, 2613120, Note_on_c, 0, 64, 100
2, 2613200, Note_on_c, 0, 64, 0
2, 2613200, Note_on_c, 0, 65, 100
2, 2613520, Note_on_c, 0, 65, 0
2, 2613520, Note_on_c, 0, 64, 100
2, 2613600, Note_on_c, 0, 64, 0
2, 2613600, Note_on_c, 0, 60, 100
2, 2613680, Note_on_c, 0, 60, 0
2, 2613680, Note_on_c, 0, 62, 100
2, 2614000, Note_on_c, 0, 62, 0
2, 2614000, Note_on_c, 0, 60, 100
2, 2614080, Note_on_c, 0, 60, 0
2, 2614080, Note_on_c, 0, 57, 100
2, 2614160, Note_on_c, 0, 57, 0
2, 2614160, Note_on_c, 0, 59, 100
2, 2614480, Note_on_c, 0, 59, 0
2, 2614480, Note_on_c, 0, 57, 100
2, 2614560, Note_on_c, 0, 57, 0
2, 2614560, Note_on_c, 0, 54, 100
2, 2614640, Note_on_c, 0, 54, 0
2, 2614640, Note_on_c, 0, 55, 100
2, 2614960, Note_on_c, 0, 55, 0
2, 2614960, Note_on_c, 0, 54, 100
2, 2615040, Note_on_c, 0, 54, 0
2, 2615040, Note_on_c, 0, 51, 100
2, 2615120, Note_on_c, 0, 51, 0
2, 2615120, Note_on_c, 0, 52, 100
2, 2615440, Note_on_c, 0, 52, 0
2, 2615440, Note_on_c, 0, 51, 100
2, 2615520, Note_on_c, 0, 51, 0
2, 2615520, Note_on_c, 0, 47, 100
2, 2615600, Note_on_c, 0, 47, 0
2, 2615600, Note_on_c, 0, 48, 100
2, 2615920, Note_on_c, 0, 48, 0
2, 2615920, Note_on_c, 0, 47, 100
2, 2616000, Note_on_c, 0, 47, 0
2, 2616000, Note_on_c, 0, 43, 100
2, 2616080, Note_on_c, 0, 43, 0
2, 2616080, Note_on_c, 0, 67, 100
2, 2619000, Note_on_c, 0, 67, 0
2, 2619000, Note_on_c, 0, 78, 100
2, 2619200, Note_on_c, 0, 78, 0
2, 2619200, Note_on_c, 0, 79, 100
2, 2619280, Note_on_c, 0, 79, 0
2, 2619280, Note_on_c, 0, 81, 100
2, 2619360, Note_on_c, 0, 81, 0
2, 2619360, Note_on_c, 0, 83, 100
2, 2619440, Note_on_c, 0, 83, 0
2, 2619440, Note_on_c, 0, 84, 100
2, 2619520, Note_on_c, 0, 84, 0
2, 2619520, Note_on_c, 0, 83, 100
2, 2619680, Note_on_c, 0, 83, 0
2, 2619680, Note_on_c, 0, 81, 100
2, 2619760, Note_on_c, 0, 81, 0
2, 2619760, Note_on_c, 0, 79, 100
2, 2619840, Note_on_c, 0, 79, 0
2, 2619840, Note_on_c, 0, 78, 100
2, 2619920, Note_on_c, 0, 78, 0
2, 2619920, Note_on_c, 0, 76, 100
2, 2620000, Note_on_c, 0, 76, 0
2, 2620000, Note_on_c, 0, 75, 100
2, 2620080, Note_on_c, 0, 75, 0
2, 2620080, Note_on_c, 0, 72, 100
2, 2620160, Note_on_c, 0, 72, 0
2, 2620160, Note_on_c, 0, 71, 100
2, 2620240, Note_on_c, 0, 71, 0
2, 2620240, Note_on_c, 0, 69, 100
2, 2620320, Note_on_c, 0, 69, 0
2, 2620320, Note_on_c, 0, 67, 100
2, 2620400, Note_on_c, 0, 67, 0
2, 2620400, Note_on_c, 0, 66, 100
2, 2620480, Note_on_c, 0, 66, 0
2, 2620480, Note_on_c, 0, 64, 100
2, 2620560, Note_on_c, 0, 64, 0
2, 2620560, Note_on_c, 0, 67, 100
2, 2620920, Note_on_c, 0, 67, 0
2, 2620920, Note_on_c, 0, 64, 100
2, 2621400, Note_on_c, 0, 64, 0
2, 2621400, Note_on_c, 0, 59, 100
2, 2621880, Note_on_c, 0, 59, 0
2, 2621880, Note_on_c, 0, 52, 100
2, 2622080, Note_on_c, 0, 52, 0
2, 2622080, Note_on_c, 0, 53, 100
2, 2622160, Note_on_c, 0, 53, 0
2, 2622160, Note_on_c, 0, 54, 100
2, 2622240, Note_on_c, 0, 54, 0
2, 2622240, Note_on_c, 0, 55, 100
2, 2622320, Note_on_c, 0, 55, 0
2, 2622320, Note_on_c, 0, 56, 100
2, 2622400, Note_on_c, 0, 56, 0
2, 2622400, Note_on_c, 0, 59, 100
2, 2622560, Note_on_c, 0, 59, 0
2, 2622560, Note_on_c, 0, 60, 100
2, 2622640, Note_on_c, 0, 60, 0
2, 2622640, Note_on_c, 0, 62, 100
2, 2622720, Note_on_c, 0, 62, 0
2, 2622720, Note_on_c, 0, 60, 100
2, 2622800, Note_on_c, 0, 60, 0
2, 2622800, Note_on_c, 0, 59, 100
2, 2622880, Note_on_c, 0, 59, 0
2, 2622880, Note_on_c, 0, 60, 100
2, 2622960, Note_on_c, 0, 60, 0
2, 2622960, Note_on_c, 0, 62, 100
2, 2623040, Note_on_c, 0, 62, 0
2, 2623040, Note_on_c, 0, 64, 100
2, 2623120, Note_on_c, 0, 64, 0
2, 2623120, Note_on_c, 0, 66, 100
2, 2623200, Note_on_c, 0, 66, 0
2, 2623200, Note_on_c, 0, 67, 100
2, 2623280, Note_on_c, 0, 67, 0
2, 2623280, Note_on_c, 0, 69, 100
2, 2623360, Note_on_c, 0, 69, 0
2, 2623360, Note_on_c, 0, 50, 100
2, 2623520, Note_on_c, 0, 50, 0
2, 2623520, Note_on_c, 0, 51, 100
2, 2623600, Note_on_c, 0, 51, 0
2, 2623600, Note_on_c, 0, 52, 100
2, 2623680, Note_on_c, 0, 52, 0
2, 2623680, Note_on_c, 0, 53, 100
2, 2623760, Note_on_c, 0, 53, 0
2, 2623760, Note_on_c, 0, 54, 100
2, 2623840, Note_on_c, 0, 54, 0
2, 2623840, Note_on_c, 0, 57, 100
2, 2624000, Note_on_c, 0, 57, 0
2, 2624000, Note_on_c, 0, 59, 100
2, 2624080, Note_on_c, 0, 59, 0
2, 2624080, Note_on_c, 0, 60, 100
2, 2624160, Note_on_c, 0, 60, 0
2, 2624160, Note_on_c, 0, 59, 100
2, 2624240, Note_on_c, 0, 59, 0
2, 2624240, Note_on_c, 0, 57, 100
2, 2624320, Note_on_c, 0, 57, 0
2, 2624320, Note_on_c, 0, 59, 100
2, 2624400, Note_on_c, 0, 59, 0
2, 2624400, Note_on_c, 0, 60, 100
2, 2624480, Note_on_c, 0, 60, 0
2, 2624480, Note_on_c, 0, 62, 100
2, 2624560, Note_on_c, 0, 62, 0
2, 2624560, Note_on_c, 0, 64, 100
2, 2624640, Note_on_c, 0, 64, 0
2, 2624640, Note_on_c, 0, 66, 100
2, 2624720, Note_on_c, 0, 66, 0
2, 2624720, Note_on_c, 0, 67, 100
2, 2624800, Note_on_c, 0, 67, 0
2, 2624800, Note_on_c, 0, 60, 100
2, 2624880, Note_on_c, 0, 60, 0
2, 2624880, Note_on_c, 0, 65, 100
2, 2625040, Note_on_c, 0, 65, 0
2, 2625040, Note_on_c, 0, 64, 100
2, 2625120, Note_on_c, 0, 64, 0
2, 2625120, Note_on_c, 0, 60, 100
2, 2625200, Note_on_c, 0, 60, 0
2, 2625200, Note_on_c, 0, 62, 100
2, 2625520, Note_on_c, 0, 62, 0
2, 2625520, Note_on_c, 0, 60, 100
2, 2625600, Note_on_c, 0, 60, 0
2, 2625600, Note_on_c, 0, 57, 100
2, 2625680, Note_on_c, 0, 57, 0
2, 2625680, Note_on_c, 0, 59, 100
2, 2626000, Note_on_c, 0, 59, 0
2, 2626000, Note_on_c, 0, 57, 100
2, 2626080, Note_on_c, 0, 57, 0
2, 2626080, Note_on_c, 0, 54, 100
2, 2626160, Note_on_c, 0, 54, 0
2, 2626160, Note_on_c, 0, 71, 100
2, 2626480, Note_on_c, 0, 71, 0
2, 2626480, Note_on_c, 0, 69, 100
2, 2626560, Note_on_c, 0, 69, 0
2, 2626560, Note_on_c, 0, 66, 100
2, 2626640, Note_on_c, 0, 66, 0
2, 2626640, Note_on_c, 0, 67, 100
2, 2626960, Note_on_c, 0, 67, 0
2, 2626960, Note_on_c, 0, 66, 100
2, 2627040, Note_on_c, 0, 66, 0
2, 2627040, Note_on_c, 0, 62, 100
2, 2627120, Note_on_c, 0, 62, 0
2, 2627120, Note_on_c, 0, 64, 100
2, 2627440, Note_on_c, 0, 64, 0
2, 2627440, Note_on_c, 0, 62, 100
2, 2627520, Note_on_c, 0, 62, 0
2, 2627520, Note_on_c, 0, 59, 100
2, 2627600, Note_on_c, 0, 59, 0
2, 2627600, Note_on_c, 0, 76, 100
2, 2627920, Note_on_c, 0, 76, 0
2, 2627920, Note_on_c, 0, 74, 100
2, 2628000, Note_on_c, 0, 74, 0
2, 2628000, Note_on_c, 0, 71, 100
2, 2628080, Note_on_c, 0, 71, 0
2, 2628080, Note_on_c, 0, 72, 100
2, 2628400, Note_on_c, 0, 72, 0
2, 2628400, Note_on_c, 0, 71, 100
2, 2628480, Note_on_c, 0, 71, 0
2, 2628480, Note_on_c, 0, 67, 100
2, 2628560, Note_on_c, 0, 67, 0
2, 2628560, Note_on_c, 0, 69, 100
2, 2628880, Note_on_c, 0, 69, 0
2, 2628880, Note_on_c, 0, 67, 100
2, 2628960, Note_on_c, 0, 67, 0
2, 2628960, Note_on_c, 0, 64, 100
2, 2629040, Note_on_c, 0, 64, 0
2, 2629040, Note_on_c, 0, 81, 100
2, 2629360, Note_on_c, 0, 81, 0
2, 2629360, Note_on_c, 0, 79, 100
2, 2629440, Note_on_c, 0, 79, 0
2, 2629440, Note_on_c, 0, 76, 100
2, 2629520, Note_on_c, 0, 76, 0
2, 2629520, Note_on_c, 0, 77, 100
2, 2629840, Note_on_c, 0, 77, 0
2, 2629840, Note_on_c, 0, 76, 100
2, 2629920, Note_on_c, 0, 76, 0
2, 2629920, Note_on_c, 0, 72, 100
2, 2630000, Note_on_c, 0, 72, 0
2, 2630000, Note_on_c, 0, 74, 100
2, 2630320, Note_on_c, 0, 74, 0
2, 2630320, Note_on_c, 0, 72, 100
2, 2630400, Note_on_c, 0, 72, 0
2, 2630400, Note_on_c, 0, 69, 100
2, 2630720, Note_on_c, 0, 69, 0
2, 2630720, Note_on_c, 0, 71, 100
2, 2630800, Note_on_c, 0, 71, 0
2, 2630800, Note_on_c, 0, 72, 100
2, 2630880, Note_on_c, 0, 72, 0
2, 2630880, Note_on_c, 0, 74, 100
2, 2630960, Note_on_c, 0, 74, 0
2, 2630960, Note_on_c, 0, 76, 100
2, 2631040, Note_on_c, 0, 76, 0
2, 2631040, Note_on_c, 0, 74, 100
2, 2631200, Note_on_c, 0, 74, 0
2, 2631200, Note_on_c, 0, 72, 100
2, 2631280, Note_on_c, 0, 72, 0
2, 2631280, Note_on_c, 0, 71, 100
2, 2631360, Note_on_c, 0, 71, 0
2, 2631360, Note_on_c, 0, 69, 100
2, 2631440, Note_on_c, 0, 69, 0
2, 2631440, Note_on_c, 0, 67, 100
2, 2631520, Note_on_c, 0, 67, 0
2, 2631520, Note_on_c, 0, 66, 100
2, 2631680, Note_on_c, 0, 66, 0
2, 2631680, Note_on_c, 0, 67, 100
2, 2631760, Note_on_c, 0, 67, 0
2, 2631760, Note_on_c, 0, 69, 100
2, 2631840, Note_on_c, 0, 69, 0
2, 2631840, Note_on_c, 0, 71, 100
2, 2631920, Note_on_c, 0, 71, 0
2, 2631920, Note_on_c, 0, 72, 100
2, 2632080, Note_on_c, 0, 72, 0
2, 2632080, Note_on_c, 0, 71, 100
2, 2632140, Note_on_c, 0, 71, 0
2, 2632140, Note_on_c, 0, 74, 100
2, 2632920, Note_on_c, 0, 74, 0
2, 2632920, Note_on_c, 0, 83, 100
2, 2633680, Note_on_c, 0, 83, 0
2, 2633680, Note_on_c, 0, 81, 100
2, 2633760, Note_on_c, 0, 81, 0
2, 2633760, Note_on_c, 0, 78, 100
2, 2633840, Note_on_c, 0, 78, 0
2, 2633840, Note_on_c, 0, 79, 100
2, 2634160, Note_on_c, 0, 79, 0
2, 2634160, Note_on_c, 0, 78, 100
2, 2634240, Note_on_c, 0, 78, 0
2, 2634240, Note_on_c, 0, 74, 100
2, 2634320, Note_on_c, 0, 74, 0
2, 2634320, Note_on_c, 0, 76, 100
2, 2634640, Note_on_c, 0, 76, 0
2, 2634640, Note_on_c, 0, 74, 100
2, 2634720, Note_on_c, 0, 74, 0
2, 2634720, Note_on_c, 0, 71, 100
2, 2634800, Note_on_c, 0, 71, 0
2, 2634800, Note_on_c, 0, 76, 100
2, 2635120, Note_on_c, 0, 76, 0
2, 2635120, Note_on_c, 0, 74, 100
2, 2635200, Note_on_c, 0, 74, 0
2, 2635200, Note_on_c, 0, 71, 100
2, 2635280, Note_on_c, 0, 71, 0
2, 2635280, Note_on_c, 0, 72, 100
2, 2635600, Note_on_c, 0, 72, 0
2, 2635600, Note_on_c, 0, 71, 100
2, 2635680, Note_on_c, 0, 71, 0
2, 2635680, Note_on_c, 0, 67, 100
2, 2635760, Note_on_c, 0, 67, 0
2, 2635760, Note_on_c, 0, 69, 100
2, 2636080, Note_on_c, 0, 69, 0
2, 2636080, Note_on_c, 0, 67, 100
2, 2636160, Note_on_c, 0, 67, 0
2, 2636160, Note_on_c, 0, 64, 100
2, 2636240, Note_on_c, 0, 64, 0
2, 2636240, Note_on_c, 0, 65, 100
2, 2636560, Note_on_c, 0, 65, 0
2, 2636560, Note_on_c, 0, 64, 100
2, 2636640, Note_on_c, 0, 64, 0
2, 2636640, Note_on_c, 0, 60, 100
2, 2636720, Note_on_c, 0, 60, 0
2, 2636720, Note_on_c, 0, 62, 100
2, 2637040, Note_on_c, 0, 62, 0
2, 2637040, Note_on_c, 0, 60, 100
2, 2637120, Note_on_c, 0, 60, 0
2, 2637120, Note_on_c, 0, 57, 100
2, 2637200, Note_on_c, 0, 57, 0
2, 2637200, Note_on_c, 0, 59, 100
2, 2637520, Note_on_c, 0, 59, 0
2, 2637520, Note_on_c, 0, 57, 100
2, 2637600, Note_on_c, 0, 57, 0
2, 2637600, Note_on_c, 0, 54, 100
2, 2637680, Note_on_c, 0, 54, 0
2, 2637680, Note_on_c, 0, 55, 100
2, 2638000, Note_on_c, 0, 55, 0
2, 2638000, Note_on_c, 0, 54, 100
2, 2638080, Note_on_c, 0, 54, 0
2, 2638080, Note_on_c, 0, 51, 100
2, 2638160, Note_on_c, 0, 51, 0
2, 2638160, Note_on_c, 0, 52, 100
2, 2638480, Note_on_c, 0, 52, 0
2, 2638480, Note_on_c, 0, 51, 100
2, 2638560, Note_on_c, 0, 51, 0
2, 2638560, Note_on_c, 0, 47, 100
2, 2638640, Note_on_c, 0, 47, 0
2, 2638640, Note_on_c, 0, 48, 100
2, 2638960, Note_on_c, 0, 48, 0
2, 2638960, Note_on_c, 0, 47, 100
2, 2639040, Note_on_c, 0, 47, 0
2, 2639040, Note_on_c, 0, 43, 100
2, 2639120, Note_on_c, 0, 43, 0
2, 2639120, Note_on_c, 0, 67, 100
2, 2642040, Note_on_c, 0, 67, 0
2, 2642040, Note_on_c, 0, 78, 100
2, 2642240, Note_on_c, 0, 78, 0
2, 2642240, Note_on_c, 0, 79, 100
2, 2642320, Note_on_c, 0, 79, 0
2, 2642320, Note_on_c, 0, 81, 100
2, 2642400, Note_on_c, 0, 81, 0
2, 2642400, Note_on_c, 0, 83, 100
2, 2642480, Note_on_c, 0, 83, 0
2, 2642480, Note_on_c, 0, 84, 100
2, 2642560, Note_on_c, 0, 84, 0
2, 2642560, Note_on_c, 0, 83, 100
2, 2642720, Note_on_c, 0, 83, 0
2, 2642720, Note_on_c, 0, 81, 100
2, 2642800, Note_on_c, 0, 81, 0
2, 2642800, Note_on_c, 0, 79, 100
2, 2642880, Note_on_c, 0, 79, 0
2, 2642880, Note_on_c, 0, 78, 100
2, 2642960, Note_on_c, 0, 78, 0
2, 2642960, Note_on_c, 0, 76, 100
2, 2643040, Note_on_c, 0, 76, 0
2, 2643040, Note_on_c, 0, 75, 100
2, 2643120, Note_on_c, 0, 75, 0
2, 2643120, Note_on_c, 0, 72, 100
2, 2643200, Note_on_c, 0, 72, 0
2, 2643200, Note_on_c, 0, 71, 100
2, 2643280, Note_on_c, 0, 71, 0
2, 2643280, Note_on_c, 0, 69, 100
2, 2643360, Note_on_c, 0, 69, 0
2, 2643360, Note_on_c, 0, 67, 100
2, 2643440, Note_on_c, 0, 67, 0
2, 2643440, Note_on_c, 0, 66, 100
2, 2643520, Note_on_c, 0, 66, 0
2, 2643520, Note_on_c, 0, 64, 100
2, 2643600, Note_on_c, 0, 64, 0
2, 2643600, Note_on_c, 0, 67, 100
2, 2643960, Note_on_c, 0, 67, 0
2, 2643960, Note_on_c, 0, 64, 100
2, 2644440, Note_on_c, 0, 64, 0
2, 2644440, Note_on_c, 0, 59, 100
2, 2644920, Note_on_c, 0, 59, 0
2, 2644920, Note_on_c, 0, 52, 100
2, 2645120, Note_on_c, 0, 52, 0
2, 2645120, Note_on_c, 0, 53, 100
2, 2645200, Note_on_c, 0, 53, 0
2, 2645200, Note_on_c, 0, 54, 100
2, 2645280, Note_on_c, 0, 54, 0
2, 2645280, Note_on_c, 0, 55, 100
2, 2645360, Note_on_c, 0, 55, 0
2, 2645360, Note_on_c, 0, 56, 100
2, 2645440, Note_on_c, 0, 56, 0
2, 2645440, Note_on_c, 0, 59, 100
2, 2645600, Note_on_c, 0, 59, 0
2, 2645600, Note_on_c, 0, 60, 100
2, 2645680, Note_on_c, 0, 60, 0
2, 2645680, Note_on_c, 0, 62, 100
2, 2645760, Note_on_c, 0, 62, 0
2, 2645760, Note_on_c, 0, 60, 100
2, 2645840, Note_on_c, 0, 60, 0
2, 2645840, Note_on_c, 0, 59, 100
2, 2645920, Note_on_c, 0, 59, 0
2, 2645920, Note_on_c, 0, 60, 100
2, 2646000, Note_on_c, 0, 60, 0
2, 2646000, Note_on_c, 0, 62, 100
2, 2646080, Note_on_c, 0, 62, 0
2, 2646080, Note_on_c, 0, 64, 100
2, 2646160, Note_on_c, 0, 64, 0
2, 2646160, Note_on_c, 0, 66, 100
2, 2646240, Note_on_c, 0, 66, 0
2, 2646240, Note_on_c, 0, 67, 100
2, 2646320, Note_on_c, 0, 67, 0
2, 2646320, Note_on_c, 0, 69, 100
2, 2646400, Note_on_c, 0, 69, 0
2, 2646400, Note_on_c, 0, 50, 100
2, 2646560, Note_on_c, 0, 50, 0
2, 2646560, Note_on_c, 0, 51, 100
2, 2646640, Note_on_c, 0, 51, 0
2, 2646640, Note_on_c, 0, 52, 100
2, 2646720, Note_on_c, 0, 52, 0
2, 2646720, Note_on_c, 0, 53, 100
2, 2646800, Note_on_c, 0, 53, 0
2, 2646800, Note_on_c, 0, 54, 100
2, 2646880, Note_on_c, 0, 54, 0
2, 2646880, Note_on_c, 0, 57, 100
2, 2647040, Note_on_c, 0, 57, 0
2, 2647040, Note_on_c, 0, 59, 100
2, 2647120, Note_on_c, 0, 59, 0
2, 2647120, Note_on_c, 0, 60, 100
2, 2647200, Note_on_c, 0, 60, 0
2, 2647200, Note_on_c, 0, 59, 100
2, 2647280, Note_on_c, 0, 59, 0
2, 2647280, Note_on_c, 0, 57, 100
2, 2647360, Note_on_c, 0, 57, 0
2, 2647360, Note_on_c, 0, 59, 100
2, 2647440, Note_on_c, 0, 59, 0
2, 2647440, Note_on_c, 0, 60, 100
2, 2647520, Note_on_c, 0, 60, 0
2, 2647520, Note_on_c, 0, 62, 100
2, 2647600, Note_on_c, 0, 62, 0
2, 2647600, Note_on_c, 0, 64, 100
2, 2647680, Note_on_c, 0, 64, 0
2, 2647680, Note_on_c, 0, 66, 100
2, 2647760, Note_on_c, 0, 66, 0
2, 2647760, Note_on_c, 0, 67, 100
2, 2647840, Note_on_c, 0, 67, 0
2, 2647840, Note_on_c, 0, 60, 100
2, 2647920, Note_on_c, 0, 60, 0
2, 2647920, Note_on_c, 0, 65, 100
2, 2648080, Note_on_c, 0, 65, 0
2, 2648080, Note_on_c, 0, 64, 100
2, 2648160, Note_on_c, 0, 64, 0
2, 2648160, Note_on_c, 0, 60, 100
2, 2648240, Note_on_c, 0, 60, 0
2, 2648240, Note_on_c, 0, 62, 100
2, 2648560, Note_on_c, 0, 62, 0
2, 2648560, Note_on_c, 0, 60, 100
2, 2648640, Note_on_c, 0, 60, 0
2, 2648640, Note_on_c, 0, 57, 100
2, 2648720, Note_on_c, 0, 57, 0
2, 2648720, Note_on_c, 0, 59, 100
2, 2649040, Note_on_c, 0, 59, 0
2, 2649040, Note_on_c, 0, 57, 100
2, 2649120, Note_on_c, 0, 57, 0
2, 2649120, Note_on_c, 0, 54, 100
2, 2649200, Note_on_c, 0, 54, 0
2, 2649200, Note_on_c, 0, 71, 100
2, 2649520, Note_on_c, 0, 71, 0
2, 2649520, Note_on_c, 0, 69, 100
2, 2649600, Note_on_c, 0, 69, 0
2, 2649600, Note_on_c, 0, 66, 100
2, 2649680, Note_on_c, 0, 66, 0
2, 2649680, Note_on_c, 0, 67, 100
2, 2650000, Note_on_c, 0, 67, 0
2, 2650000, Note_on_c, 0, 66, 100
2, 2650080, Note_on_c, 0, 66, 0
2, 2650080, Note_on_c, 0, 62, 100
2, 2650160, Note_on_c, 0, 62, 0
2, 2650160, Note_on_c, 0, 64, 100
2, 2650480, Note_on_c, 0, 64, 0
2, 2650480, Note_on_c, 0, 62, 100
2, 2650560, Note_on_c, 0, 62, 0
2, 2650560, Note_on_c, 0, 59, 100
2, 2650640, Note_on_c, 0, 59, 0
2, 2650640, Note_on_c, 0, 76, 100
2, 2650960, Note_on_c, 0, 76, 0
2, 2650960, Note_on_c, 0, 74, 100
2, 2651040, Note_on_c, 0, 74, 0
2, 2651040, Note_on_c, 0, 71, 100
2, 2651120, Note_on_c, 0, 71, 0
2, 2651120, Note_on_c, 0, 72, 100
2, 2651440, Note_on_c, 0, 72, 0
2, 2651440, Note_on_c, 0, 71, 100
2, 2651520, Note_on_c, 0, 71, 0
2, 2651520, Note_on_c, 0, 67, 100
2, 2651600, Note_on_c, 0, 67, 0
2, 2651600, Note_on_c, 0, 69, 100
2, 2651920, Note_on_c, 0, 69, 0
2, 2651920, Note_on_c, 0, 67, 100
2, 2652000, Note_on_c, 0, 67, 0
2, 2652000, Note_on_c, 0, 64, 100
2, 2652080, Note_on_c, 0, 64, 0
2, 2652080, Note_on_c, 0, 81, 100
2, 2652400, Note_on_c, 0, 81, 0
2, 2652400, Note_on_c, 0, 79, 100
2, 2652480, Note_on_c, 0, 79, 0
2, 2652480, Note_on_c, 0, 76, 100
2, 2652560, Note_on_c, 0, 76, 0
2, 2652560, Note_on_c, 0, 77, 100
2, 2652880, Note_on_c, 0, 77, 0
2, 2652880, Note_on_c, 0, 76, 100
2, 2652960, Note_on_c, 0, 76, 0
2, 2652960, Note_on_c, 0, 72, 100
2, 2653040, Note_on_c, 0, 72, 0
2, 2653040, Note_on_c, 0, 74, 100
2, 2653360, Note_on_c, 0, 74, 0
2, 2653360, Note_on_c, 0, 72, 100
2, 2653440, Note_on_c, 0, 72, 0
2, 2653440, Note_on_c, 0, 69, 100
2, 2653760, Note_on_c, 0, 69, 0
2, 2653760, Note_on_c, 0, 71, 100
2, 2653840, Note_on_c, 0, 71, 0
2, 2653840, Note_on_c, 0, 72, 100
2, 2653920, Note_on_c, 0, 72, 0
2, 2653920, Note_on_c, 0, 74, 100
2, 2654000, Note_on_c, 0, 74, 0
2, 2654000, Note_on_c, 0, 76, 100
2, 2654080, Note_on_c, 0, 76, 0
2, 2654080, Note_on_c, 0, 74, 100
2, 2654240, Note_on_c, 0, 74, 0
2, 2654240, Note_on_c, 0, 72, 100
2, 2654320, Note_on_c, 0, 72, 0
2, 2654320, Note_on_c, 0, 71, 100
2, 2654400, Note_on_c, 0, 71, 0
2, 2654400, Note_on_c, 0, 69, 100
2, 2654480, Note_on_c, 0, 69, 0
2, 2654480, Note_on_c, 0, 67, 100
2, 2654560, Note_on_c, 0, 67, 0
2, 2654560, Note_on_c, 0, 66, 100
2, 2654720, Note_on_c, 0, 66, 0
2, 2654720, Note_on_c, 0, 67, 100
2, 2654800, Note_on_c, 0, 67, 0
2, 2654800, Note_on_c, 0, 69, 100
2, 2654880, Note_on_c, 0, 69, 0
2, 2654880, Note_on_c, 0, 71, 100
2, 2654960, Note_on_c, 0, 71, 0
2, 2654960, Note_on_c, 0, 72, 100
2, 2655120, Note_on_c, 0, 72, 0
2, 2655120, Note_on_c, 0, 71, 100
2, 2655180, Note_on_c, 0, 71, 0
2, 2655180, Note_on_c, 0, 74, 100
2, 2655960, Note_on_c, 0, 74, 0
2, 2655960, Note_on_c, 0, 62, 100
2, 2658480, Note_on_c, 0, 62, 0
2, 2658480, Note_on_c, 0, 67, 100
2, 2658720, Note_on_c, 0, 67, 0
2, 2658720, Note_on_c, 0, 69, 100
2, 2658960, Note_on_c, 0, 69, 0
2, 2658960, Note_on_c, 0, 71, 100
2, 2659200, Note_on_c, 0, 71, 0
2, 2659200, Note_on_c, 0, 72, 100
2, 2659440, Note_on_c, 0, 72, 0
2, 2659440, Note_on_c, 0, 74, 100
2, 2659680, Note_on_c, 0, 74, 0
2, 2659680, Note_on_c, 0, 72, 100
2, 2659920, Note_on_c, 0, 72, 0
2, 2659920, Note_on_c, 0, 71, 100
2, 2660040, Note_on_c, 0, 71, 0
2, 2660040, Note_on_c, 0, 69, 100
2, 2660160, Note_on_c, 0, 69, 0
2, 2660160, Note_on_c, 0, 74, 100
2, 2661120, Note_on_c, 0, 74, 0
2, 2661120, Note_on_c, 0, 76, 100
2, 2662080, Note_on_c, 0, 76, 0
2, 2662080, Note_on_c, 0, 74, 100
2, 2662560, Note_on_c, 0, 74, 0
2, 2662560, Note_on_c, 0, 76, 100
2, 2662800, Note_on_c, 0, 76, 0
2, 2662800, Note_on_c, 0, 74, 100
2, 2663040, Note_on_c, 0, 74, 0
2, 2663040, Note_on_c, 0, 72, 100
2, 2663520, Note_on_c, 0, 72, 0
2, 2663520, Note_on_c, 0, 71, 100
2, 2663560, Note_on_c, 0, 71, 0
2, 2663560, Note_on_c, 0, 72, 100
2, 2663600, Note_on_c, 0, 72, 0
2, 2663600, Note_on_c, 0, 71, 100
2, 2663640, Note_on_c, 0, 71, 0
2, 2663640, Note_on_c, 0, 69, 100
2, 2663760, Note_on_c, 0, 69, 0
2, 2663760, Note_on_c, 0, 67, 100
2, 2664000, Note_on_c, 0, 67, 0
2, 2664000, Note_on_c, 0, 74, 100
2, 2666160, Note_on_c, 0, 74, 0
2, 2666160, Note_on_c, 0, 79, 100
2, 2666400, Note_on_c, 0, 79, 0
2, 2666400, Note_on_c, 0, 78, 100
2, 2666640, Note_on_c, 0, 78, 0
2, 2666640, Note_on_c, 0, 76, 100
2, 2666880, Note_on_c, 0, 76, 0
2, 2666880, Note_on_c, 0, 74, 100
2, 2667360, Note_on_c, 0, 74, 0
2, 2667360, Note_on_c, 0, 73, 100
2, 2667400, Note_on_c, 0, 73, 0
2, 2667400, Note_on_c, 0, 74, 100
2, 2667440, Note_on_c, 0, 74, 0
2, 2667440, Note_on_c, 0, 73, 100
2, 2667480, Note_on_c, 0, 73, 0
2, 2667480, Note_on_c, 0, 71, 100
2, 2667600, Note_on_c, 0, 71, 0
2, 2667600, Note_on_c, 0, 73, 100
2, 2667720, Note_on_c, 0, 73, 0
2, 2667720, Note_on_c, 0, 69, 100
2, 2667840, Note_on_c, 0, 69, 0
2, 2667840, Note_on_c, 0, 81, 100
2, 2668800, Note_on_c, 0, 81, 0
2, 2668800, Note_on_c, 0, 83, 100
2, 2669760, Note_on_c, 0, 83, 0
2, 2669760, Note_on_c, 0, 81, 100
2, 2670240, Note_on_c, 0, 81, 0
2, 2670240, Note_on_c, 0, 83, 100
2, 2670480, Note_on_c, 0, 83, 0
2, 2670480, Note_on_c, 0, 81, 100
2, 2670720, Note_on_c, 0, 81, 0
2, 2670720, Note_on_c, 0, 69, 100
2, 2670960, Note_on_c, 0, 69, 0
2, 2670960, Note_on_c, 0, 78, 100
2, 2671200, Note_on_c, 0, 78, 0
2, 2671200, Note_on_c, 0, 67, 100
2, 2671440, Note_on_c, 0, 67, 0
2, 2671440, Note_on_c, 0, 66, 100
2, 2671680, Note_on_c, 0, 66, 0
2, 2671680, Note_on_c, 0, 62, 100
2, 2673840, Note_on_c, 0, 62, 0
2, 2673840, Note_on_c, 0, 67, 100
2, 2674080, Note_on_c, 0, 67, 0
2, 2674080, Note_on_c, 0, 69, 100
2, 2674320, Note_on_c, 0, 69, 0
2, 2674320, Note_on_c, 0, 71, 100
2, 2674560, Note_on_c, 0, 71, 0
2, 2674560, Note_on_c, 0, 72, 100
2, 2674800, Note_on_c, 0, 72, 0
2, 2674800, Note_on_c, 0, 74, 100
2, 2675040, Note_on_c, 0, 74, 0
2, 2675040, Note_on_c, 0, 72, 100
2, 2675280, Note_on_c, 0, 72, 0
2, 2675280, Note_on_c, 0, 71, 100
2, 2675400, Note_on_c, 0, 71, 0
2, 2675400, Note_on_c, 0, 69, 100
2, 2675520, Note_on_c, 0, 69, 0
2, 2675520, Note_on_c, 0, 74, 100
2, 2676480, Note_on_c, 0, 74, 0
2, 2676480, Note_on_c, 0, 76, 100
2, 2677440, Note_on_c, 0, 76, 0
2, 2677440, Note_on_c, 0, 74, 100
2, 2677920, Note_on_c, 0, 74, 0
2, 2677920, Note_on_c, 0, 76, 100
2, 2678160, Note_on_c, 0, 76, 0
2, 2678160, Note_on_c, 0, 74, 100
2, 2678400, Note_on_c, 0, 74, 0
2, 2678400, Note_on_c, 0, 72, 100
2, 2678880, Note_on_c, 0, 72, 0
2, 2678880, Note_on_c, 0, 71, 100
2, 2678920, Note_on_c, 0, 71, 0
2, 2678920, Note_on_c, 0, 72, 100
2, 2678960, Note_on_c, 0, 72, 0
2, 2678960, Note_on_c, 0, 71, 100
2, 2679000, Note_on_c, 0, 71, 0
2, 2679000, Note_on_c, 0, 69, 100
2, 2679120, Note_on_c, 0, 69, 0
2, 2679120, Note_on_c, 0, 67, 100
2, 2679360, Note_on_c, 0, 67, 0
2, 2679360, Note_on_c, 0, 74, 100
2, 2681520, Note_on_c, 0, 74, 0
2, 2681520, Note_on_c, 0, 79, 100
2, 2681760, Note_on_c, 0, 79, 0
2, 2681760, Note_on_c, 0, 78, 100
2, 2682000, Note_on_c, 0, 78, 0
2, 2682000, Note_on_c, 0, 76, 100
2, 2682240, Note_on_c, 0, 76, 0
2, 2682240, Note_on_c, 0, 74, 100
2, 2682720, Note_on_c, 0, 74, 0
2, 2682720, Note_on_c, 0, 73, 100
2, 2682760, Note_on_c, 0, 73, 0
2, 2682760, Note_on_c, 0, 74, 100
2, 2682800, Note_on_c, 0, 74, 0
2, 2682800, Note_on_c, 0, 73, 100
2, 2682840, Note_on_c, 0, 73, 0
2, 2682840, Note_on_c, 0, 71, 100
2, 2682960, Note_on_c, 0, 71, 0
2, 2682960, Note_on_c, 0, 73, 100
2, 2683080, Note_on_c, 0, 73, 0
2, 2683080, Note_on_c, 0, 69, 100
2, 2683200, Note_on_c, 0, 69, 0
2, 2683200, Note_on_c, 0, 81, 100
2, 2684160, Note_on_c, 0, 81, 0
2, 2684160, Note_on_c, 0, 83, 100
2, 2685120, Note_on_c, 0, 83, 0
2, 2685120, Note_on_c, 0, 81, 100
2, 2685600, Note_on_c, 0, 81, 0
2, 2685600, Note_on_c, 0, 83, 100
2, 2685840, Note_on_c, 0, 83, 0
2, 2685840, Note_on_c, 0, 81, 100
2, 2686080, Note_on_c, 0, 81, 0
2, 2686080, Note_on_c, 0, 69, 100
2, 2686320, Note_on_c, 0, 69, 0
2, 2686320, Note_on_c, 0, 78, 100
2, 2686560, Note_on_c, 0, 78, 0
2, 2686560, Note_on_c, 0, 67, 100
2, 2686800, Note_on_c, 0, 67, 0
2, 2686800, Note_on_c, 0, 66, 100
2, 2687040, Note_on_c, 0, 66, 0
2, 2687040, Note_on_c, 0, 81, 100
2, 2687280, Note_on_c, 0, 81, 0
2, 2687280, Note_on_c, 0, 78, 100
2, 2687520, Note_on_c, 0, 78, 0
2, 2687520, Note_on_c, 0, 81, 100
2, 2687760, Note_on_c, 0, 81, 0
2, 2687760, Note_on_c, 0, 78, 100
2, 2688000, Note_on_c, 0, 78, 0
2, 2688000, Note_on_c, 0, 81, 100
2, 2688240, Note_on_c, 0, 81, 0
2, 2688240, Note_on_c, 0, 74, 100
2, 2688480, Note_on_c, 0, 74, 0
2, 2688480, Note_on_c, 0, 76, 100
2, 2688720, Note_on_c, 0, 76, 0
2, 2688720, Note_on_c, 0, 78, 100
2, 2688840, Note_on_c, 0, 78, 0
2, 2688840, Note_on_c, 0, 79, 100
2, 2688960, Note_on_c, 0, 79, 0
2, 2688960, Note_on_c, 0, 76, 100
2, 2689200, Note_on_c, 0, 76, 0
2, 2689200, Note_on_c, 0, 81, 100
2, 2689440, Note_on_c, 0, 81, 0
2, 2689440, Note_on_c, 0, 79, 100
2, 2689680, Note_on_c, 0, 79, 0
2, 2689680, Note_on_c, 0, 78, 100
2, 2689920, Note_on_c, 0, 78, 0
2, 2689920, Note_on_c, 0, 76, 100
2, 2690400, Note_on_c, 0, 76, 0
2, 2690400, Note_on_c, 0, 75, 100
2, 2690440, Note_on_c, 0, 75, 0
2, 2690440, Note_on_c, 0, 76, 100
2, 2690480, Note_on_c, 0, 76, 0
2, 2690480, Note_on_c, 0, 75, 100
2, 2690520, Note_on_c, 0, 75, 0
2, 2690520, Note_on_c, 0, 73, 100
2, 2690640, Note_on_c, 0, 73, 0
2, 2690640, Note_on_c, 0, 75, 100
2, 2690760, Note_on_c, 0, 75, 0
2, 2690760, Note_on_c, 0, 71, 100
2, 2690880, Note_on_c, 0, 71, 0
2, 2690880, Note_on_c, 0, 83, 100
2, 2691120, Note_on_c, 0, 83, 0
2, 2691120, Note_on_c, 0, 76, 100
2, 2691360, Note_on_c, 0, 76, 0
2, 2691360, Note_on_c, 0, 83, 100
2, 2691600, Note_on_c, 0, 83, 0
2, 2691600, Note_on_c, 0, 76, 100
2, 2691840, Note_on_c, 0, 76, 0
2, 2691840, Note_on_c, 0, 83, 100
2, 2692080, Note_on_c, 0, 83, 0
2, 2692080, Note_on_c, 0, 75, 100
2, 2692320, Note_on_c, 0, 75, 0
2, 2692320, Note_on_c, 0, 76, 100
2, 2692440, Note_on_c, 0, 76, 0
2, 2692440, Note_on_c, 0, 78, 100
2, 2692560, Note_on_c, 0, 78, 0
2, 2692560, Note_on_c, 0, 79, 100
2, 2692680, Note_on_c, 0, 79, 0
2, 2692680, Note_on_c, 0, 81, 100
2, 2692800, Note_on_c, 0, 81, 0
2, 2692800, Note_on_c, 0, 79, 100
2, 2693040, Note_on_c, 0, 79, 0
2, 2693040, Note_on_c, 0, 78, 100
2, 2693160, Note_on_c, 0, 78, 0
2, 2693160, Note_on_c, 0, 79, 100
2, 2693280, Note_on_c, 0, 79, 0
2, 2693280, Note_on_c, 0, 78, 100
2, 2693520, Note_on_c, 0, 78, 0
2, 2693520, Note_on_c, 0, 76, 100
2, 2693640, Note_on_c, 0, 76, 0
2, 2693640, Note_on_c, 0, 75, 100
2, 2693760, Note_on_c, 0, 75, 0
2, 2693760, Note_on_c, 0, 76, 100
2, 2693880, Note_on_c, 0, 76, 0
2, 2693880, Note_on_c, 0, 78, 100
2, 2694000, Note_on_c, 0, 78, 0
2, 2694000, Note_on_c, 0, 75, 100
2, 2694120, Note_on_c, 0, 75, 0
2, 2694120, Note_on_c, 0, 76, 100
2, 2694240, Note_on_c, 0, 76, 0
2, 2694240, Note_on_c, 0, 74, 100
2, 2695320, Note_on_c, 0, 74, 0
2, 2695320, Note_on_c, 0, 78, 100
2, 2695440, Note_on_c, 0, 78, 0
2, 2695440, Note_on_c, 0, 76, 100
2, 2695560, Note_on_c, 0, 76, 0
2, 2695560, Note_on_c, 0, 79, 100
2, 2695680, Note_on_c, 0, 79, 0
2, 2695680, Note_on_c, 0, 78, 100
2, 2695800, Note_on_c, 0, 78, 0
2, 2695800, Note_on_c, 0, 81, 100
2, 2695920, Note_on_c, 0, 81, 0
2, 2695920, Note_on_c, 0, 74, 100
2, 2696160, Note_on_c, 0, 74, 0
2, 2696160, Note_on_c, 0, 72, 100
2, 2696880, Note_on_c, 0, 72, 0
2, 2696880, Note_on_c, 0, 74, 100
2, 2697000, Note_on_c, 0, 74, 0
2, 2697000, Note_on_c, 0, 76, 100
2, 2697120, Note_on_c, 0, 76, 0
2, 2697120, Note_on_c, 0, 78, 100
2, 2697360, Note_on_c, 0, 78, 0
2, 2697360, Note_on_c, 0, 79, 100
2, 2697480, Note_on_c, 0, 79, 0
2, 2697480, Note_on_c, 0, 81, 100
2, 2697600, Note_on_c, 0, 81, 0
2, 2697600, Note_on_c, 0, 79, 100
2, 2698080, Note_on_c, 0, 79, 0
2, 2698080, Note_on_c, 0, 78, 100
2, 2698110, Note_on_c, 0, 78, 0
2, 2698110, Note_on_c, 0, 79, 100
2, 2698140, Note_on_c, 0, 79, 0
2, 2698140, Note_on_c, 0, 78, 100
2, 2698170, Note_on_c, 0, 78, 0
2, 2698170, Note_on_c, 0, 76, 100
2, 2698200, Note_on_c, 0, 76, 0
2, 2698200, Note_on_c, 0, 78, 100
2, 2698260, Note_on_c, 0, 78, 0
2, 2698260, Note_on_c, 0, 74, 100
2, 2698320, Note_on_c, 0, 74, 0
2, 2698320, Note_on_c, 0, 83, 100
2, 2699040, Note_on_c, 0, 83, 0
2, 2699040, Note_on_c, 0, 84, 100
2, 2699280, Note_on_c, 0, 84, 0
2, 2699280, Note_on_c, 0, 86, 100
2, 2699520, Note_on_c, 0, 86, 0
2, 2699520, Note_on_c, 0, 83, 100
2, 2699760, Note_on_c, 0, 83, 0
2, 2699760, Note_on_c, 0, 84, 100
2, 2700000, Note_on_c, 0, 84, 0
2, 2700000, Note_on_c, 0, 83, 100
2, 2700240, Note_on_c, 0, 83, 0
2, 2700240, Note_on_c, 0, 81, 100
2, 2700480, Note_on_c, 0, 81, 0
2, 2700480, Note_on_c, 0, 79, 100
2, 2700720, Note_on_c, 0, 79, 0
2, 2700720, Note_on_c, 0, 78, 100
2, 2700960, Note_on_c, 0, 78, 0
2, 2700960, Note_on_c, 0, 79, 100
2, 2701200, Note_on_c, 0, 79, 0
2, 2701200, Note_on_c, 0, 81, 100
2, 2701440, Note_on_c, 0, 81, 0
2, 2701440, Note_on_c, 0, 78, 100
2, 2701680, Note_on_c, 0, 78, 0
2, 2701680, Note_on_c, 0, 79, 100
2, 2702400, Note_on_c, 0, 79, 0
2, 2702400, Note_on_c, 0, 81, 100
2, 2702640, Note_on_c, 0, 81, 0
2, 2702640, Note_on_c, 0, 78, 100
2, 2702880, Note_on_c, 0, 78, 0
2, 2702880, Note_on_c, 0, 81, 100
2, 2703120, Note_on_c, 0, 81, 0
2, 2703120, Note_on_c, 0, 78, 100
2, 2703360, Note_on_c, 0, 78, 0
2, 2703360, Note_on_c, 0, 81, 100
2, 2703600, Note_on_c, 0, 81, 0
2, 2703600, Note_on_c, 0, 74, 100
2, 2703840, Note_on_c, 0, 74, 0
2, 2703840, Note_on_c, 0, 76, 100
2, 2704080, Note_on_c, 0, 76, 0
2, 2704080, Note_on_c, 0, 78, 100
2, 2704200, Note_on_c, 0, 78, 0
2, 2704200, Note_on_c, 0, 79, 100
2, 2704320, Note_on_c, 0, 79, 0
2, 2704320, Note_on_c, 0, 76, 100
2, 2704560, Note_on_c, 0, 76, 0
2, 2704560, Note_on_c, 0, 81, 100
2, 2704800, Note_on_c, 0, 81, 0
2, 2704800, Note_on_c, 0, 79, 100
2, 2705040, Note_on_c, 0, 79, 0
2, 2705040, Note_on_c, 0, 78, 100
2, 2705280, Note_on_c, 0, 78, 0
2, 2705280, Note_on_c, 0, 76, 100
2, 2705760, Note_on_c, 0, 76, 0
2, 2705760, Note_on_c, 0, 75, 100
2, 2705800, Note_on_c, 0, 75, 0
2, 2705800, Note_on_c, 0, 76, 100
2, 2705840, Note_on_c, 0, 76, 0
2, 2705840, Note_on_c, 0, 75, 100
2, 2705880, Note_on_c, 0, 75, 0
2, 2705880, Note_on_c, 0, 73, 100
2, 2706000, Note_on_c, 0, 73, 0
2, 2706000, Note_on_c, 0, 75, 100
2, 2706120, Note_on_c, 0, 75, 0
2, 2706120, Note_on_c, 0, 71, 100
2, 2706240, Note_on_c, 0, 71, 0
2, 2706240, Note_on_c, 0, 83, 100
2, 2706480, Note_on_c, 0, 83, 0
2, 2706480, Note_on_c, 0, 76, 100
2, 2706720, Note_on_c, 0, 76, 0
2, 2706720, Note_on_c, 0, 83, 100
2, 2706960, Note_on_c, 0, 83, 0
2, 2706960, Note_on_c, 0, 76, 100
2, 2707200, Note_on_c, 0, 76, 0
2, 2707200, Note_on_c, 0, 83, 100
2, 2707440, Note_on_c, 0, 83, 0
2, 2707440, Note_on_c, 0, 75, 100
2, 2707680, Note_on_c, 0, 75, 0
2, 2707680, Note_on_c, 0, 76, 100
2, 2707800, Note_on_c, 0, 76, 0
2, 2707800, Note_on_c, 0, 78, 100
2, 2707920, Note_on_c, 0, 78, 0
2, 2707920, Note_on_c, 0, 79, 100
2, 2708040, Note_on_c, 0, 79, 0
2, 2708040, Note_on_c, 0, 81, 100
2, 2708160, Note_on_c, 0, 81, 0
2, 2708160, Note_on_c, 0, 79, 100
2, 2708400, Note_on_c, 0, 79, 0
2, 2708400, Note_on_c, 0, 78, 100
2, 2708520, Note_on_c, 0, 78, 0
2, 2708520, Note_on_c, 0, 79, 100
2, 2708640, Note_on_c, 0, 79, 0
2, 2708640, Note_on_c, 0, 78, 100
2, 2708880, Note_on_c, 0, 78, 0
2, 2708880, Note_on_c, 0, 76, 100
2, 2709000, Note_on_c, 0, 76, 0
2, 2709000, Note_on_c, 0, 75, 100
2, 2709120, Note_on_c, 0, 75, 0
2, 2709120, Note_on_c, 0, 76, 100
2, 2709240, Note_on_c, 0, 76, 0
2, 2709240, Note_on_c, 0, 78, 100
2, 2709360, Note_on_c, 0, 78, 0
2, 2709360, Note_on_c, 0, 75, 100
2, 2709480, Note_on_c, 0, 75, 0
2, 2709480, Note_on_c, 0, 76, 100
2, 2709600, Note_on_c, 0, 76, 0
2, 2709600, Note_on_c, 0, 74, 100
2, 2710680, Note_on_c, 0, 74, 0
2, 2710680, Note_on_c, 0, 78, 100
2, 2710800, Note_on_c, 0, 78, 0
2, 2710800, Note_on_c, 0, 76, 100
2, 2710920, Note_on_c, 0, 76, 0
2, 2710920, Note_on_c, 0, 79, 100
2, 2711040, Note_on_c, 0, 79, 0
2, 2711040, Note_on_c, 0, 78, 100
2, 2711160, Note_on_c, 0, 78, 0
2, 2711160, Note_on_c, 0, 81, 100
2, 2711280, Note_on_c, 0, 81, 0
2, 2711280, Note_on_c, 0, 74, 100
2, 2711520, Note_on_c, 0, 74, 0
2, 2711520, Note_on_c, 0, 72, 100
2, 2712240, Note_on_c, 0, 72, 0
2, 2712240, Note_on_c, 0, 74, 100
2, 2712360, Note_on_c, 0, 74, 0
2, 2712360, Note_on_c, 0, 76, 100
2, 2712480, Note_on_c, 0, 76, 0
2, 2712480, Note_on_c, 0, 78, 100
2, 2712720, Note_on_c, 0, 78, 0
2, 2712720, Note_on_c, 0, 79, 100
2, 2712840, Note_on_c, 0, 79, 0
2, 2712840, Note_on_c, 0, 81, 100
2, 2712960, Note_on_c, 0, 81, 0
2, 2712960, Note_on_c, 0, 79, 100
2, 2713440, Note_on_c, 0, 79, 0
2, 2713440, Note_on_c, 0, 78, 100
2, 2713470, Note_on_c, 0, 78, 0
2, 2713470, Note_on_c, 0, 79, 100
2, 2713500, Note_on_c, 0, 79, 0
2, 2713500, Note_on_c, 0, 78, 100
2, 2713530, Note_on_c, 0, 78, 0
2, 2713530, Note_on_c, 0, 76, 100
2, 2713560, Note_on_c, 0, 76, 0
2, 2713560, Note_on_c, 0, 78, 100
2, 2713620, Note_on_c, 0, 78, 0
2, 2713620, Note_on_c, 0, 74, 100
2, 2713680, Note_on_c, 0, 74, 0
2, 2713680, Note_on_c, 0, 83, 100
2, 2714400, Note_on_c, 0, 83, 0
2, 2714400, Note_on_c, 0, 84, 100
2, 2714640, Note_on_c, 0, 84, 0
2, 2714640, Note_on_c, 0, 86, 100
2, 2714880, Note_on_c, 0, 86, 0
2, 2714880, Note_on_c, 0, 83, 100
2, 2715120, Note_on_c, 0, 83, 0
2, 2715120, Note_on_c, 0, 84, 100
2, 2715360, Note_on_c, 0, 84, 0
2, 2715360, Note_on_c, 0, 83, 100
2, 2715600, Note_on_c, 0, 83, 0
2, 2715600, Note_on_c, 0, 81, 100
2, 2715840, Note_on_c, 0, 81, 0
2, 2715840, Note_on_c, 0, 79, 100
2, 2716080, Note_on_c, 0, 79, 0
2, 2716080, Note_on_c, 0, 78, 100
2, 2716320, Note_on_c, 0, 78, 0
2, 2716320, Note_on_c, 0, 79, 100
2, 2716560, Note_on_c, 0, 79, 0
2, 2716560, Note_on_c, 0, 81, 100
2, 2716800, Note_on_c, 0, 81, 0
2, 2716800, Note_on_c, 0, 78, 100
2, 2717040, Note_on_c, 0, 78, 0
2, 2717040, Note_on_c, 0, 79, 100
2, 2718720, Note_on_c, 0, 79, 0
2, 2718720, Note_on_c, 0, 81, 100
2, 2719200, Note_on_c, 0, 81, 0
2, 2719200, Note_on_c, 0, 79, 100
2, 2719260, Note_on_c, 0, 79, 0
2, 2719260, Note_on_c, 0, 81, 100
2, 2719320, Note_on_c, 0, 81, 0
2, 2719320, Note_on_c, 0, 83, 100
2, 2719560, Note_on_c, 0, 83, 0
2, 2719560, Note_on_c, 0, 81, 100
2, 2719680, Note_on_c, 0, 81, 0
2, 2719680, Note_on_c, 0, 79, 100
2, 2719920, Note_on_c, 0, 79, 0
2, 2719920, Note_on_c, 0, 78, 100
2, 2720040, Note_on_c, 0, 78, 0
2, 2720040, Note_on_c, 0, 76, 100
2, 2720160, Note_on_c, 0, 76, 0
2, 2720160, Note_on_c, 0, 74, 100
2, 2720400, Note_on_c, 0, 74, 0
2, 2720400, Note_on_c, 0, 67, 100
2, 2721120, Note_on_c, 0, 67, 0
2, 2721120, Note_on_c, 0, 66, 100
2, 2721180, Note_on_c, 0, 66, 0
2, 2721180, Note_on_c, 0, 67, 100
2, 2721240, Note_on_c, 0, 67, 0
2, 2721240, Note_on_c, 0, 69, 100
2, 2721600, Note_on_c, 0, 69, 0
2, 2721600, Note_on_c, 0, 67, 100
2, 2721660, Note_on_c, 0, 67, 0
2, 2721660, Note_on_c, 0, 66, 100
2, 2721720, Note_on_c, 0, 66, 0
2, 2721720, Note_on_c, 0, 67, 100
2, 2721780, Note_on_c, 0, 67, 0
2, 2721780, Note_on_c, 0, 69, 100
2, 2721840, Note_on_c, 0, 69, 0
2, 2721840, Note_on_c, 0, 67, 100
2, 2721900, Note_on_c, 0, 67, 0
2, 2721900, Note_on_c, 0, 69, 100
2, 2721960, Note_on_c, 0, 69, 0
2, 2721960, Note_on_c, 0, 67, 100
2, 2722020, Note_on_c, 0, 67, 0
2, 2722020, Note_on_c, 0, 69, 100
2, 2722080, Note_on_c, 0, 69, 0
2, 2722080, Note_on_c, 0, 67, 100
2, 2722120, Note_on_c, 0, 67, 0
2, 2722120, Note_on_c, 0, 69, 100
2, 2722160, Note_on_c, 0, 69, 0
2, 2722160, Note_on_c, 0, 67, 100
2, 2722200, Note_on_c, 0, 67, 0
2, 2722200, Note_on_c, 0, 69, 100
2, 2722240, Note_on_c, 0, 69, 0
2, 2722240, Note_on_c, 0, 67, 100
2, 2722281, Note_on_c, 0, 67, 0
2, 2722281, Note_on_c, 0, 66, 100
2, 2722320, Note_on_c, 0, 66, 0
2, 2722320, Note_on_c, 0, 67, 100
2, 2722440, Note_on_c, 0, 67, 0
2, 2722440, Note_on_c, 0, 69, 100
2, 2722560, Note_on_c, 0, 69, 0
2, 2722560, Note_on_c, 0, 67, 100
2, 2722620, Note_on_c, 0, 67, 0
2, 2722620, Note_on_c, 0, 66, 100
2, 2722680, Note_on_c, 0, 66, 0
2, 2722680, Note_on_c, 0, 67, 100
2, 2722800, Note_on_c, 0, 67, 0
2, 2722800, Note_on_c, 0, 66, 100
2, 2722860, Note_on_c, 0, 66, 0
2, 2722860, Note_on_c, 0, 64, 100
2, 2723040, Note_on_c, 0, 64, 0
2, 2723040, Note_on_c, 0, 62, 100
2, 2723280, Note_on_c, 0, 62, 0
2, 2723280, Note_on_c, 0, 74, 100
2, 2724480, Note_on_c, 0, 74, 0
2, 2724480, Note_on_c, 0, 76, 100
2, 2724960, Note_on_c, 0, 76, 0
2, 2724960, Note_on_c, 0, 74, 100
2, 2725020, Note_on_c, 0, 74, 0
2, 2725020, Note_on_c, 0, 76, 100
2, 2725080, Note_on_c, 0, 76, 0
2, 2725080, Note_on_c, 0, 77, 100
2, 2725320, Note_on_c, 0, 77, 0
2, 2725320, Note_on_c, 0, 76, 100
2, 2725440, Note_on_c, 0, 76, 0
2, 2725440, Note_on_c, 0, 74, 100
2, 2725680, Note_on_c, 0, 74, 0
2, 2725680, Note_on_c, 0, 72, 100
2, 2725800, Note_on_c, 0, 72, 0
2, 2725800, Note_on_c, 0, 71, 100
2, 2725920, Note_on_c, 0, 71, 0
2, 2725920, Note_on_c, 0, 69, 100
2, 2726160, Note_on_c, 0, 69, 0
2, 2726160, Note_on_c, 0, 79, 100
2, 2726640, Note_on_c, 0, 79, 0
2, 2726640, Note_on_c, 0, 78, 100
2, 2726700, Note_on_c, 0, 78, 0
2, 2726700, Note_on_c, 0, 76, 100
2, 2726760, Note_on_c, 0, 76, 0
2, 2726760, Note_on_c, 0, 78, 100
2, 2726820, Note_on_c, 0, 78, 0
2, 2726820, Note_on_c, 0, 79, 100
2, 2726880, Note_on_c, 0, 79, 0
2, 2726880, Note_on_c, 0, 78, 100
2, 2726940, Note_on_c, 0, 78, 0
2, 2726940, Note_on_c, 0, 81, 100
2, 2727120, Note_on_c, 0, 81, 0
2, 2727120, Note_on_c, 0, 79, 100
2, 2727180, Note_on_c, 0, 79, 0
2, 2727180, Note_on_c, 0, 78, 100
2, 2727360, Note_on_c, 0, 78, 0
2, 2727360, Note_on_c, 0, 76, 100
2, 2727420, Note_on_c, 0, 76, 0
2, 2727420, Note_on_c, 0, 74, 100
2, 2727600, Note_on_c, 0, 74, 0
2, 2727600, Note_on_c, 0, 72, 100
2, 2727840, Note_on_c, 0, 72, 0
2, 2727840, Note_on_c, 0, 81, 100
2, 2727960, Note_on_c, 0, 81, 0
2, 2727960, Note_on_c, 0, 72, 100
2, 2728200, Note_on_c, 0, 72, 0
2, 2728200, Note_on_c, 0, 71, 100
2, 2728320, Note_on_c, 0, 71, 0
2, 2728320, Note_on_c, 0, 67, 100
2, 2728380, Note_on_c, 0, 67, 0
2, 2728380, Note_on_c, 0, 66, 100
2, 2728800, Note_on_c, 0, 66, 0
2, 2728800, Note_on_c, 0, 67, 100
2, 2729040, Note_on_c, 0, 67, 0
2, 2729040, Note_on_c, 0, 66, 100
2, 2729100, Note_on_c, 0, 66, 0
2, 2729100, Note_on_c, 0, 67, 100
2, 2729160, Note_on_c, 0, 67, 0
2, 2729160, Note_on_c, 0, 71, 100
2, 2730240, Note_on_c, 0, 71, 0
2, 2730240, Note_on_c, 0, 73, 100
2, 2730720, Note_on_c, 0, 73, 0
2, 2730720, Note_on_c, 0, 71, 100
2, 2730780, Note_on_c, 0, 71, 0
2, 2730780, Note_on_c, 0, 73, 100
2, 2730840, Note_on_c, 0, 73, 0
2, 2730840, Note_on_c, 0, 74, 100
2, 2731200, Note_on_c, 0, 74, 0
2, 2731200, Note_on_c, 0, 73, 100
2, 2731320, Note_on_c, 0, 73, 0
2, 2731320, Note_on_c, 0, 71, 100
2, 2731440, Note_on_c, 0, 71, 0
2, 2731440, Note_on_c, 0, 69, 100
2, 2731560, Note_on_c, 0, 69, 0
2, 2731560, Note_on_c, 0, 67, 100
2, 2732550, Note_on_c, 0, 67, 0
2, 2732550, Note_on_c, 0, 71, 100
2, 2732580, Note_on_c, 0, 71, 0
2, 2732580, Note_on_c, 0, 76, 100
2, 2732610, Note_on_c, 0, 76, 0
2, 2732610, Note_on_c, 0, 79, 100
2, 2732640, Note_on_c, 0, 79, 0
2, 2732640, Note_on_c, 0, 81, 100
2, 2733120, Note_on_c, 0, 81, 0
2, 2733120, Note_on_c, 0, 79, 100
2, 2733180, Note_on_c, 0, 79, 0
2, 2733180, Note_on_c, 0, 78, 100
2, 2733240, Note_on_c, 0, 78, 0
2, 2733240, Note_on_c, 0, 79, 100
2, 2733300, Note_on_c, 0, 79, 0
2, 2733300, Note_on_c, 0, 81, 100
2, 2733360, Note_on_c, 0, 81, 0
2, 2733360, Note_on_c, 0, 79, 100
2, 2733420, Note_on_c, 0, 79, 0
2, 2733420, Note_on_c, 0, 81, 100
2, 2733480, Note_on_c, 0, 81, 0
2, 2733480, Note_on_c, 0, 79, 100
2, 2733540, Note_on_c, 0, 79, 0
2, 2733540, Note_on_c, 0, 81, 100
2, 2733600, Note_on_c, 0, 81, 0
2, 2733600, Note_on_c, 0, 79, 100
2, 2733640, Note_on_c, 0, 79, 0
2, 2733640, Note_on_c, 0, 81, 100
2, 2733680, Note_on_c, 0, 81, 0
2, 2733680, Note_on_c, 0, 79, 100
2, 2733720, Note_on_c, 0, 79, 0
2, 2733720, Note_on_c, 0, 81, 100
2, 2733760, Note_on_c, 0, 81, 0
2, 2733760, Note_on_c, 0, 79, 100
2, 2733800, Note_on_c, 0, 79, 0
2, 2733800, Note_on_c, 0, 78, 100
2, 2733840, Note_on_c, 0, 78, 0
2, 2733840, Note_on_c, 0, 79, 100
2, 2734080, Note_on_c, 0, 79, 0
2, 2734080, Note_on_c, 0, 78, 100
2, 2734320, Note_on_c, 0, 78, 0
2, 2734320, Note_on_c, 0, 76, 100
2, 2734440, Note_on_c, 0, 76, 0
2, 2734440, Note_on_c, 0, 74, 100
2, 2734560, Note_on_c, 0, 74, 0
2, 2734560, Note_on_c, 0, 73, 100
2, 2734620, Note_on_c, 0, 73, 0
2, 2734620, Note_on_c, 0, 71, 100
2, 2734680, Note_on_c, 0, 71, 0
2, 2734680, Note_on_c, 0, 73, 100
2, 2734740, Note_on_c, 0, 73, 0
2, 2734740, Note_on_c, 0, 74, 100
2, 2734800, Note_on_c, 0, 74, 0
2, 2734800, Note_on_c, 0, 73, 100
2, 2734860, Note_on_c, 0, 73, 0
2, 2734860, Note_on_c, 0, 74, 100
2, 2734920, Note_on_c, 0, 74, 0
2, 2734920, Note_on_c, 0, 73, 100
2, 2734960, Note_on_c, 0, 73, 0
2, 2734960, Note_on_c, 0, 74, 100
2, 2735000, Note_on_c, 0, 74, 0
2, 2735000, Note_on_c, 0, 73, 100
2, 2735040, Note_on_c, 0, 73, 0
2, 2735040, Note_on_c, 0, 76, 100
2, 2735280, Note_on_c, 0, 76, 0
2, 2735280, Note_on_c, 0, 81, 100
2, 2735520, Note_on_c, 0, 81, 0
2, 2735520, Note_on_c, 0, 79, 100
2, 2735640, Note_on_c, 0, 79, 0
2, 2735640, Note_on_c, 0, 78, 100
2, 2735760, Note_on_c, 0, 78, 0
2, 2735760, Note_on_c, 0, 76, 100
2, 2735880, Note_on_c, 0, 76, 0
2, 2735880, Note_on_c, 0, 74, 100
2, 2736000, Note_on_c, 0, 74, 0
2, 2736000, Note_on_c, 0, 69, 100
2, 2736240, Note_on_c, 0, 69, 0
2, 2736240, Note_on_c, 0, 71, 100
2, 2736780, Note_on_c, 0, 71, 0
2, 2736780, Note_on_c, 0, 72, 100
2, 2736840, Note_on_c, 0, 72, 0
2, 2736840, Note_on_c, 0, 71, 100
2, 2736960, Note_on_c, 0, 71, 0
2, 2736960, Note_on_c, 0, 69, 100
2, 2737080, Note_on_c, 0, 69, 0
2, 2737080, Note_on_c, 0, 67, 100
2, 2737200, Note_on_c, 0, 67, 0
2, 2737200, Note_on_c, 0, 66, 100
2, 2737320, Note_on_c, 0, 66, 0
2, 2737320, Note_on_c, 0, 64, 100
2, 2737440, Note_on_c, 0, 64, 0
2, 2737440, Note_on_c, 0, 74, 100
2, 2737680, Note_on_c, 0, 74, 0
2, 2737680, Note_on_c, 0, 73, 100
2, 2737800, Note_on_c, 0, 73, 0
2, 2737800, Note_on_c, 0, 74, 100
2, 2738220, Note_on_c, 0, 74, 0
2, 2738220, Note_on_c, 0, 76, 100
2, 2738280, Note_on_c, 0, 76, 0
2, 2738280, Note_on_c, 0, 74, 100
2, 2738400, Note_on_c, 0, 74, 0
2, 2738400, Note_on_c, 0, 73, 100
2, 2738520, Note_on_c, 0, 73, 0
2, 2738520, Note_on_c, 0, 71, 100
2, 2738640, Note_on_c, 0, 71, 0
2, 2738640, Note_on_c, 0, 69, 100
2, 2738760, Note_on_c, 0, 69, 0
2, 2738760, Note_on_c, 0, 79, 100
2, 2738880, Note_on_c, 0, 79, 0
2, 2738880, Note_on_c, 0, 71, 100
2, 2739120, Note_on_c, 0, 71, 0
2, 2739120, Note_on_c, 0, 73, 100
2, 2739840, Note_on_c, 0, 73, 0
2, 2739840, Note_on_c, 0, 74, 100
2, 2739960, Note_on_c, 0, 74, 0
2, 2739960, Note_on_c, 0, 76, 100
2, 2740140, Note_on_c, 0, 76, 0
2, 2740140, Note_on_c, 0, 74, 100
2, 2740200, Note_on_c, 0, 74, 0
2, 2740200, Note_on_c, 0, 73, 100
2, 2740320, Note_on_c, 0, 73, 0
2, 2740320, Note_on_c, 0, 74, 100
2, 2740560, Note_on_c, 0, 74, 0
2, 2740560, Note_on_c, 0, 79, 100
2, 2741760, Note_on_c, 0, 79, 0
2, 2741760, Note_on_c, 0, 81, 100
2, 2742240, Note_on_c, 0, 81, 0
2, 2742240, Note_on_c, 0, 79, 100
2, 2742300, Note_on_c, 0, 79, 0
2, 2742300, Note_on_c, 0, 81, 100
2, 2742360, Note_on_c, 0, 81, 0
2, 2742360, Note_on_c, 0, 83, 100
2, 2742600, Note_on_c, 0, 83, 0
2, 2742600, Note_on_c, 0, 81, 100
2, 2742720, Note_on_c, 0, 81, 0
2, 2742720, Note_on_c, 0, 79, 100
2, 2742960, Note_on_c, 0, 79, 0
2, 2742960, Note_on_c, 0, 78, 100
2, 2743080, Note_on_c, 0, 78, 0
2, 2743080, Note_on_c, 0, 76, 100
2, 2743200, Note_on_c, 0, 76, 0
2, 2743200, Note_on_c, 0, 74, 100
2, 2743440, Note_on_c, 0, 74, 0
2, 2743440, Note_on_c, 0, 67, 100
2, 2744160, Note_on_c, 0, 67, 0
2, 2744160, Note_on_c, 0, 66, 100
2, 2744220, Note_on_c, 0, 66, 0
2, 2744220, Note_on_c, 0, 67, 100
2, 2744280, Note_on_c, 0, 67, 0
2, 2744280, Note_on_c, 0, 69, 100
2, 2744640, Note_on_c, 0, 69, 0
2, 2744640, Note_on_c, 0, 67, 100
2, 2744700, Note_on_c, 0, 67, 0
2, 2744700, Note_on_c, 0, 66, 100
2, 2744760, Note_on_c, 0, 66, 0
2, 2744760, Note_on_c, 0, 67, 100
2, 2744820, Note_on_c, 0, 67, 0
2, 2744820, Note_on_c, 0, 69, 100
2, 2744880, Note_on_c, 0, 69, 0
2, 2744880, Note_on_c, 0, 67, 100
2, 2744940, Note_on_c, 0, 67, 0
2, 2744940, Note_on_c, 0, 69, 100
2, 2745000, Note_on_c, 0, 69, 0
2, 2745000, Note_on_c, 0, 67, 100
2, 2745060, Note_on_c, 0, 67, 0
2, 2745060, Note_on_c, 0, 69, 100
2, 2745120, Note_on_c, 0, 69, 0
2, 2745120, Note_on_c, 0, 67, 100
2, 2745160, Note_on_c, 0, 67, 0
2, 2745160, Note_on_c, 0, 69, 100
2, 2745200, Note_on_c, 0, 69, 0
2, 2745200, Note_on_c, 0, 67, 100
2, 2745240, Note_on_c, 0, 67, 0
2, 2745240, Note_on_c, 0, 69, 100
2, 2745280, Note_on_c, 0, 69, 0
2, 2745280, Note_on_c, 0, 67, 100
2, 2745321, Note_on_c, 0, 67, 0
2, 2745321, Note_on_c, 0, 66, 100
2, 2745360, Note_on_c, 0, 66, 0
2, 2745360, Note_on_c, 0, 67, 100
2, 2745480, Note_on_c, 0, 67, 0
2, 2745480, Note_on_c, 0, 69, 100
2, 2745600, Note_on_c, 0, 69, 0
2, 2745600, Note_on_c, 0, 67, 100
2, 2745660, Note_on_c, 0, 67, 0
2, 2745660, Note_on_c, 0, 66, 100
2, 2745720, Note_on_c, 0, 66, 0
2, 2745720, Note_on_c, 0, 67, 100
2, 2745840, Note_on_c, 0, 67, 0
2, 2745840, Note_on_c, 0, 66, 100
2, 2745900, Note_on_c, 0, 66, 0
2, 2745900, Note_on_c, 0, 64, 100
2, 2746080, Note_on_c, 0, 64, 0
2, 2746080, Note_on_c, 0, 62, 100
2, 2746320, Note_on_c, 0, 62, 0
2, 2746320, Note_on_c, 0, 74, 100
2, 2747520, Note_on_c, 0, 74, 0
2, 2747520, Note_on_c, 0, 76, 100
2, 2748000, Note_on_c, 0, 76, 0
2, 2748000, Note_on_c, 0, 74, 100
2, 2748060, Note_on_c, 0, 74, 0
2, 2748060, Note_on_c, 0, 76, 100
2, 2748120, Note_on_c, 0, 76, 0
2, 2748120, Note_on_c, 0, 77, 100
2, 2748360, Note_on_c, 0, 77, 0
2, 2748360, Note_on_c, 0, 76, 100
2, 2748480, Note_on_c, 0, 76, 0
2, 2748480, Note_on_c, 0, 74, 100
2, 2748720, Note_on_c, 0, 74, 0
2, 2748720, Note_on_c, 0, 72, 100
2, 2748840, Note_on_c, 0, 72, 0
2, 2748840, Note_on_c, 0, 71, 100
2, 2748960, Note_on_c, 0, 71, 0
2, 2748960, Note_on_c, 0, 69, 100
2, 2749200, Note_on_c, 0, 69, 0
2, 2749200, Note_on_c, 0, 79, 100
2, 2749680, Note_on_c, 0, 79, 0
2, 2749680, Note_on_c, 0, 78, 100
2, 2749740, Note_on_c, 0, 78, 0
2, 2749740, Note_on_c, 0, 76, 100
2, 2749800, Note_on_c, 0, 76, 0
2, 2749800, Note_on_c, 0, 78, 100
2, 2749860, Note_on_c, 0, 78, 0
2, 2749860, Note_on_c, 0, 79, 100
2, 2749920, Note_on_c, 0, 79, 0
2, 2749920, Note_on_c, 0, 78, 100
2, 2749980, Note_on_c, 0, 78, 0
2, 2749980, Note_on_c, 0, 81, 100
2, 2750160, Note_on_c, 0, 81, 0
2, 2750160, Note_on_c, 0, 79, 100
2, 2750220, Note_on_c, 0, 79, 0
2, 2750220, Note_on_c, 0, 78, 100
2, 2750400, Note_on_c, 0, 78, 0
2, 2750400, Note_on_c, 0, 76, 100
2, 2750460, Note_on_c, 0, 76, 0
2, 2750460, Note_on_c, 0, 74, 100
2, 2750640, Note_on_c, 0, 74, 0
2, 2750640, Note_on_c, 0, 72, 100
2, 2750880, Note_on_c, 0, 72, 0
2, 2750880, Note_on_c, 0, 81, 100
2, 2751000, Note_on_c, 0, 81, 0
2, 2751000, Note_on_c, 0, 72, 100
2, 2751240, Note_on_c, 0, 72, 0
2, 2751240, Note_on_c, 0, 71, 100
2, 2751360, Note_on_c, 0, 71, 0
2, 2751360, Note_on_c, 0, 67, 100
2, 2751420, Note_on_c, 0, 67, 0
2, 2751420, Note_on_c, 0, 66, 100
2, 2751840, Note_on_c, 0, 66, 0
2, 2751840, Note_on_c, 0, 67, 100
2, 2752080, Note_on_c, 0, 67, 0
2, 2752080, Note_on_c, 0, 66, 100
2, 2752140, Note_on_c, 0, 66, 0
2, 2752140, Note_on_c, 0, 67, 100
2, 2752200, Note_on_c, 0, 67, 0
2, 2752200, Note_on_c, 0, 71, 100
2, 2753280, Note_on_c, 0, 71, 0
2, 2753280, Note_on_c, 0, 73, 100
2, 2753760, Note_on_c, 0, 73, 0
2, 2753760, Note_on_c, 0, 71, 100
2, 2753820, Note_on_c, 0, 71, 0
2, 2753820, Note_on_c, 0, 73, 100
2, 2753880, Note_on_c, 0, 73, 0
2, 2753880, Note_on_c, 0, 74, 100
2, 2754240, Note_on_c, 0, 74, 0
2, 2754240, Note_on_c, 0, 73, 100
2, 2754360, Note_on_c, 0, 73, 0
2, 2754360, Note_on_c, 0, 71, 100
2, 2754480, Note_on_c, 0, 71, 0
2, 2754480, Note_on_c, 0, 69, 100
2, 2754600, Note_on_c, 0, 69, 0
2, 2754600, Note_on_c, 0, 67, 100
2, 2755590, Note_on_c, 0, 67, 0
2, 2755590, Note_on_c, 0, 71, 100
2, 2755620, Note_on_c, 0, 71, 0
2, 2755620, Note_on_c, 0, 76, 100
2, 2755650, Note_on_c, 0, 76, 0
2, 2755650, Note_on_c, 0, 79, 100
2, 2755680, Note_on_c, 0, 79, 0
2, 2755680, Note_on_c, 0, 81, 100
2, 2756160, Note_on_c, 0, 81, 0
2, 2756160, Note_on_c, 0, 79, 100
2, 2756220, Note_on_c, 0, 79, 0
2, 2756220, Note_on_c, 0, 78, 100
2, 2756280, Note_on_c, 0, 78, 0
2, 2756280, Note_on_c, 0, 79, 100
2, 2756340, Note_on_c, 0, 79, 0
2, 2756340, Note_on_c, 0, 81, 100
2, 2756400, Note_on_c, 0, 81, 0
2, 2756400, Note_on_c, 0, 79, 100
2, 2756460, Note_on_c, 0, 79, 0
2, 2756460, Note_on_c, 0, 81, 100
2, 2756520, Note_on_c, 0, 81, 0
2, 2756520, Note_on_c, 0, 79, 100
2, 2756580, Note_on_c, 0, 79, 0
2, 2756580, Note_on_c, 0, 81, 100
2, 2756640, Note_on_c, 0, 81, 0
2, 2756640, Note_on_c, 0, 79, 100
2, 2756680, Note_on_c, 0, 79, 0
2, 2756680, Note_on_c, 0, 81, 100
2, 2756720, Note_on_c, 0, 81, 0
2, 2756720, Note_on_c, 0, 79, 100
2, 2756760, Note_on_c, 0, 79, 0
2, 2756760, Note_on_c, 0, 81, 100
2, 2756800, Note_on_c, 0, 81, 0
2, 2756800, Note_on_c, 0, 79, 100
2, 2756840, Note_on_c, 0, 79, 0
2, 2756840, Note_on_c, 0, 78, 100
2, 2756880, Note_on_c, 0, 78, 0
2, 2756880, Note_on_c, 0, 79, 100
2, 2757120, Note_on_c, 0, 79, 0
2, 2757120, Note_on_c, 0, 78, 100
2, 2757360, Note_on_c, 0, 78, 0
2, 2757360, Note_on_c, 0, 76, 100
2, 2757480, Note_on_c, 0, 76, 0
2, 2757480, Note_on_c, 0, 74, 100
2, 2757600, Note_on_c, 0, 74, 0
2, 2757600, Note_on_c, 0, 73, 100
2, 2757660, Note_on_c, 0, 73, 0
2, 2757660, Note_on_c, 0, 71, 100
2, 2757720, Note_on_c, 0, 71, 0
2, 2757720, Note_on_c, 0, 73, 100
2, 2757780, Note_on_c, 0, 73, 0
2, 2757780, Note_on_c, 0, 74, 100
2, 2757840, Note_on_c, 0, 74, 0
2, 2757840, Note_on_c, 0, 73, 100
2, 2757900, Note_on_c, 0, 73, 0
2, 2757900, Note_on_c, 0, 74, 100
2, 2757960, Note_on_c, 0, 74, 0
2, 2757960, Note_on_c, 0, 73, 100
2, 2758000, Note_on_c, 0, 73, 0
2, 2758000, Note_on_c, 0, 74, 100
2, 2758040, Note_on_c, 0, 74, 0
2, 2758040, Note_on_c, 0, 73, 100
2, 2758080, Note_on_c, 0, 73, 0
2, 2758080, Note_on_c, 0, 76, 100
2, 2758320, Note_on_c, 0, 76, 0
2, 2758320, Note_on_c, 0, 81, 100
2, 2758560, Note_on_c, 0, 81, 0
2, 2758560, Note_on_c, 0, 79, 100
2, 2758680, Note_on_c, 0, 79, 0
2, 2758680, Note_on_c, 0, 78, 100
2, 2758800, Note_on_c, 0, 78, 0
2, 2758800, Note_on_c, 0, 76, 100
2, 2758920, Note_on_c, 0, 76, 0
2, 2758920, Note_on_c, 0, 74, 100
2, 2759040, Note_on_c, 0, 74, 0
2, 2759040, Note_on_c, 0, 69, 100
2, 2759280, Note_on_c, 0, 69, 0
2, 2759280, Note_on_c, 0, 71, 100
2, 2759820, Note_on_c, 0, 71, 0
2, 2759820, Note_on_c, 0, 72, 100
2, 2759880, Note_on_c, 0, 72, 0
2, 2759880, Note_on_c, 0, 71, 100
2, 2760000, Note_on_c, 0, 71, 0
2, 2760000, Note_on_c, 0, 69, 100
2, 2760120, Note_on_c, 0, 69, 0
2, 2760120, Note_on_c, 0, 67, 100
2, 2760240, Note_on_c, 0, 67, 0
2, 2760240, Note_on_c, 0, 66, 100
2, 2760360, Note_on_c, 0, 66, 0
2, 2760360, Note_on_c, 0, 64, 100
2, 2760480, Note_on_c, 0, 64, 0
2, 2760480, Note_on_c, 0, 74, 100
2, 2760720, Note_on_c, 0, 74, 0
2, 2760720, Note_on_c, 0, 73, 100
2, 2760840, Note_on_c, 0, 73, 0
2, 2760840, Note_on_c, 0, 74, 100
2, 2761260, Note_on_c, 0, 74, 0
2, 2761260, Note_on_c, 0, 76, 100
2, 2761320, Note_on_c, 0, 76, 0
2, 2761320, Note_on_c, 0, 74, 100
2, 2761440, Note_on_c, 0, 74, 0
2, 2761440, Note_on_c, 0, 73, 100
2, 2761560, Note_on_c, 0, 73, 0
2, 2761560, Note_on_c, 0, 71, 100
2, 2761680, Note_on_c, 0, 71, 0
2, 2761680, Note_on_c, 0, 69, 100
2, 2761800, Note_on_c, 0, 69, 0
2, 2761800, Note_on_c, 0, 79, 100
2, 2761920, Note_on_c, 0, 79, 0
2, 2761920, Note_on_c, 0, 71, 100
2, 2762160, Note_on_c, 0, 71, 0
2, 2762160, Note_on_c, 0, 73, 100
2, 2762880, Note_on_c, 0, 73, 0
2, 2762880, Note_on_c, 0, 74, 100
2, 2763000, Note_on_c, 0, 74, 0
2, 2763000, Note_on_c, 0, 76, 100
2, 2763180, Note_on_c, 0, 76, 0
2, 2763180, Note_on_c, 0, 74, 100
2, 2763240, Note_on_c, 0, 74, 0
2, 2763240, Note_on_c, 0, 73, 100
2, 2763360, Note_on_c, 0, 73, 0
2, 2763360, Note_on_c, 0, 74, 100
2, 2763600, Note_on_c, 0, 74, 0
2, 2763600, Note_on_c, 0, 69, 100
2, 2764320, Note_on_c, 0, 69, 0
2, 2764320, Note_on_c, 0, 67, 100
2, 2764380, Note_on_c, 0, 67, 0
2, 2764380, Note_on_c, 0, 69, 100
2, 2764440, Note_on_c, 0, 69, 0
2, 2764440, Note_on_c, 0, 71, 100
2, 2764800, Note_on_c, 0, 71, 0
2, 2764800, Note_on_c, 0, 69, 100
2, 2764860, Note_on_c, 0, 69, 0
2, 2764860, Note_on_c, 0, 67, 100
2, 2764920, Note_on_c, 0, 67, 0
2, 2764920, Note_on_c, 0, 69, 100
2, 2764980, Note_on_c, 0, 69, 0
2, 2764980, Note_on_c, 0, 71, 100
2, 2765040, Note_on_c, 0, 71, 0
2, 2765040, Note_on_c, 0, 69, 100
2, 2765080, Note_on_c, 0, 69, 0
2, 2765080, Note_on_c, 0, 71, 100
2, 2765120, Note_on_c, 0, 71, 0
2, 2765120, Note_on_c, 0, 69, 100
2, 2765160, Note_on_c, 0, 69, 0
2, 2765160, Note_on_c, 0, 71, 100
2, 2765200, Note_on_c, 0, 71, 0
2, 2765200, Note_on_c, 0, 69, 100
2, 2765241, Note_on_c, 0, 69, 0
2, 2765241, Note_on_c, 0, 71, 100
2, 2765280, Note_on_c, 0, 71, 0
2, 2765280, Note_on_c, 0, 69, 100
2, 2765320, Note_on_c, 0, 69, 0
2, 2765320, Note_on_c, 0, 71, 100
2, 2765360, Note_on_c, 0, 71, 0
2, 2765360, Note_on_c, 0, 69, 100
2, 2765400, Note_on_c, 0, 69, 0
2, 2765400, Note_on_c, 0, 71, 100
2, 2765460, Note_on_c, 0, 71, 0
2, 2765460, Note_on_c, 0, 72, 100
2, 2765520, Note_on_c, 0, 72, 0
2, 2765520, Note_on_c, 0, 74, 100
2, 2765580, Note_on_c, 0, 74, 0
2, 2765580, Note_on_c, 0, 76, 100
2, 2765760, Note_on_c, 0, 76, 0
2, 2765760, Note_on_c, 0, 74, 100
2, 2765880, Note_on_c, 0, 74, 0
2, 2765880, Note_on_c, 0, 72, 100
2, 2766000, Note_on_c, 0, 72, 0
2, 2766000, Note_on_c, 0, 71, 100
2, 2766120, Note_on_c, 0, 71, 0
2, 2766120, Note_on_c, 0, 69, 100
2, 2766240, Note_on_c, 0, 69, 0
2, 2766240, Note_on_c, 0, 67, 100
2, 2766480, Note_on_c, 0, 67, 0
2, 2766480, Note_on_c, 0, 79, 100
2, 2766960, Note_on_c, 0, 79, 0
2, 2766960, Note_on_c, 0, 78, 100
2, 2767200, Note_on_c, 0, 78, 0
2, 2767200, Note_on_c, 0, 76, 100
2, 2767320, Note_on_c, 0, 76, 0
2, 2767320, Note_on_c, 0, 78, 100
2, 2767560, Note_on_c, 0, 78, 0
2, 2767560, Note_on_c, 0, 75, 100
2, 2767680, Note_on_c, 0, 75, 0
2, 2767680, Note_on_c, 0, 76, 100
2, 2767920, Note_on_c, 0, 76, 0
2, 2767920, Note_on_c, 0, 75, 100
2, 2767950, Note_on_c, 0, 75, 0
2, 2767950, Note_on_c, 0, 76, 100
2, 2767980, Note_on_c, 0, 76, 0
2, 2767980, Note_on_c, 0, 81, 100
2, 2768400, Note_on_c, 0, 81, 0
2, 2768400, Note_on_c, 0, 83, 100
2, 2768460, Note_on_c, 0, 83, 0
2, 2768460, Note_on_c, 0, 81, 100
2, 2768520, Note_on_c, 0, 81, 0
2, 2768520, Note_on_c, 0, 79, 100
2, 2768580, Note_on_c, 0, 79, 0
2, 2768580, Note_on_c, 0, 81, 100
2, 2768640, Note_on_c, 0, 81, 0
2, 2768640, Note_on_c, 0, 78, 100
2, 2769000, Note_on_c, 0, 78, 0
2, 2769000, Note_on_c, 0, 76, 100
2, 2769120, Note_on_c, 0, 76, 0
2, 2769120, Note_on_c, 0, 75, 100
2, 2769360, Note_on_c, 0, 75, 0
2, 2769360, Note_on_c, 0, 71, 100
2, 2769840, Note_on_c, 0, 71, 0
2, 2769840, Note_on_c, 0, 76, 100
2, 2770080, Note_on_c, 0, 76, 0
2, 2770080, Note_on_c, 0, 78, 100
2, 2770140, Note_on_c, 0, 78, 0
2, 2770140, Note_on_c, 0, 79, 100
2, 2770200, Note_on_c, 0, 79, 0
2, 2770200, Note_on_c, 0, 78, 100
2, 2770560, Note_on_c, 0, 78, 0
2, 2770560, Note_on_c, 0, 76, 100
2, 2770800, Note_on_c, 0, 76, 0
2, 2770800, Note_on_c, 0, 71, 100
2, 2771160, Note_on_c, 0, 71, 0
2, 2771160, Note_on_c, 0, 72, 100
2, 2771280, Note_on_c, 0, 72, 0
2, 2771280, Note_on_c, 0, 71, 100
2, 2771340, Note_on_c, 0, 71, 0
2, 2771340, Note_on_c, 0, 69, 100
2, 2771400, Note_on_c, 0, 69, 0
2, 2771400, Note_on_c, 0, 71, 100
2, 2771460, Note_on_c, 0, 71, 0
2, 2771460, Note_on_c, 0, 79, 100
2, 2771520, Note_on_c, 0, 79, 0
2, 2771520, Note_on_c, 0, 76, 100
2, 2771580, Note_on_c, 0, 76, 0
2, 2771580, Note_on_c, 0, 78, 100
2, 2771760, Note_on_c, 0, 78, 0
2, 2771760, Note_on_c, 0, 75, 100
2, 2772000, Note_on_c, 0, 75, 0
2, 2772000, Note_on_c, 0, 76, 100
2, 2772120, Note_on_c, 0, 76, 0
2, 2772120, Note_on_c, 0, 67, 100
2, 2772600, Note_on_c, 0, 67, 0
2, 2772600, Note_on_c, 0, 66, 100
2, 2772720, Note_on_c, 0, 66, 0
2, 2772720, Note_on_c, 0, 64, 100
2, 2772840, Note_on_c, 0, 64, 0
2, 2772840, Note_on_c, 0, 66, 100
2, 2772960, Note_on_c, 0, 66, 0
2, 2772960, Note_on_c, 0, 76, 100
2, 2773440, Note_on_c, 0, 76, 0
2, 2773440, Note_on_c, 0, 75, 100
2, 2773560, Note_on_c, 0, 75, 0
2, 2773560, Note_on_c, 0, 78, 100
2, 2773680, Note_on_c, 0, 78, 0
2, 2773680, Note_on_c, 0, 79, 100
2, 2773740, Note_on_c, 0, 79, 0
2, 2773740, Note_on_c, 0, 81, 100
2, 2773800, Note_on_c, 0, 81, 0
2, 2773800, Note_on_c, 0, 79, 100
2, 2773920, Note_on_c, 0, 79, 0
2, 2773920, Note_on_c, 0, 78, 100
2, 2774400, Note_on_c, 0, 78, 0
2, 2774400, Note_on_c, 0, 76, 100
2, 2774520, Note_on_c, 0, 76, 0
2, 2774520, Note_on_c, 0, 78, 100
2, 2774760, Note_on_c, 0, 78, 0
2, 2774760, Note_on_c, 0, 75, 100
2, 2774880, Note_on_c, 0, 75, 0
2, 2774880, Note_on_c, 0, 76, 100
2, 2775840, Note_on_c, 0, 76, 0
2, 2775840, Note_on_c, 0, 74, 100
2, 2776080, Note_on_c, 0, 74, 0
2, 2776080, Note_on_c, 0, 72, 100
2, 2776200, Note_on_c, 0, 72, 0
2, 2776200, Note_on_c, 0, 71, 100
2, 2776320, Note_on_c, 0, 71, 0
2, 2776320, Note_on_c, 0, 69, 100
2, 2776560, Note_on_c, 0, 69, 0
2, 2776560, Note_on_c, 0, 71, 100
2, 2777040, Note_on_c, 0, 71, 0
2, 2777040, Note_on_c, 0, 72, 100
2, 2777160, Note_on_c, 0, 72, 0
2, 2777160, Note_on_c, 0, 74, 100
2, 2777280, Note_on_c, 0, 74, 0
2, 2777280, Note_on_c, 0, 72, 100
2, 2777340, Note_on_c, 0, 72, 0
2, 2777340, Note_on_c, 0, 71, 100
2, 2777400, Note_on_c, 0, 71, 0
2, 2777400, Note_on_c, 0, 72, 100
2, 2777520, Note_on_c, 0, 72, 0
2, 2777520, Note_on_c, 0, 71, 100
2, 2777580, Note_on_c, 0, 71, 0
2, 2777580, Note_on_c, 0, 69, 100
2, 2777760, Note_on_c, 0, 69, 0
2, 2777760, Note_on_c, 0, 67, 100
2, 2778000, Note_on_c, 0, 67, 0
2, 2778000, Note_on_c, 0, 69, 100
2, 2778480, Note_on_c, 0, 69, 0
2, 2778480, Note_on_c, 0, 71, 100
2, 2778600, Note_on_c, 0, 71, 0
2, 2778600, Note_on_c, 0, 72, 100
2, 2778720, Note_on_c, 0, 72, 0
2, 2778720, Note_on_c, 0, 74, 100
2, 2778840, Note_on_c, 0, 74, 0
2, 2778840, Note_on_c, 0, 72, 100
2, 2778960, Note_on_c, 0, 72, 0
2, 2778960, Note_on_c, 0, 71, 100
2, 2779080, Note_on_c, 0, 71, 0
2, 2779080, Note_on_c, 0, 72, 100
2, 2779200, Note_on_c, 0, 72, 0
2, 2779200, Note_on_c, 0, 69, 100
2, 2779320, Note_on_c, 0, 69, 0
2, 2779320, Note_on_c, 0, 64, 100
2, 2779440, Note_on_c, 0, 64, 0
2, 2779440, Note_on_c, 0, 69, 100
2, 2779560, Note_on_c, 0, 69, 0
2, 2779560, Note_on_c, 0, 72, 100
2, 2779680, Note_on_c, 0, 72, 0
2, 2779680, Note_on_c, 0, 74, 100
2, 2780280, Note_on_c, 0, 74, 0
2, 2780280, Note_on_c, 0, 72, 100
2, 2780400, Note_on_c, 0, 72, 0
2, 2780400, Note_on_c, 0, 71, 100
2, 2780520, Note_on_c, 0, 71, 0
2, 2780520, Note_on_c, 0, 72, 100
2, 2780640, Note_on_c, 0, 72, 0
2, 2780640, Note_on_c, 0, 69, 100
2, 2780760, Note_on_c, 0, 69, 0
2, 2780760, Note_on_c, 0, 66, 100
2, 2780880, Note_on_c, 0, 66, 0
2, 2780880, Note_on_c, 0, 69, 100
2, 2781000, Note_on_c, 0, 69, 0
2, 2781000, Note_on_c, 0, 72, 100
2, 2781120, Note_on_c, 0, 72, 0
2, 2781120, Note_on_c, 0, 76, 100
2, 2781240, Note_on_c, 0, 76, 0
2, 2781240, Note_on_c, 0, 74, 100
2, 2781360, Note_on_c, 0, 74, 0
2, 2781360, Note_on_c, 0, 72, 100
2, 2781480, Note_on_c, 0, 72, 0
2, 2781480, Note_on_c, 0, 71, 100
2, 2781600, Note_on_c, 0, 71, 0
2, 2781600, Note_on_c, 0, 72, 100
2, 2781720, Note_on_c, 0, 72, 0
2, 2781720, Note_on_c, 0, 71, 100
2, 2781840, Note_on_c, 0, 71, 0
2, 2781840, Note_on_c, 0, 69, 100
2, 2781960, Note_on_c, 0, 69, 0
2, 2781960, Note_on_c, 0, 71, 100
2, 2782080, Note_on_c, 0, 71, 0
2, 2782080, Note_on_c, 0, 67, 100
2, 2782200, Note_on_c, 0, 67, 0
2, 2782200, Note_on_c, 0, 62, 100
2, 2782320, Note_on_c, 0, 62, 0
2, 2782320, Note_on_c, 0, 67, 100
2, 2782440, Note_on_c, 0, 67, 0
2, 2782440, Note_on_c, 0, 71, 100
2, 2782560, Note_on_c, 0, 71, 0
2, 2782560, Note_on_c, 0, 67, 100
2, 2782680, Note_on_c, 0, 67, 0
2, 2782680, Note_on_c, 0, 72, 100
2, 2782800, Note_on_c, 0, 72, 0
2, 2782800, Note_on_c, 0, 74, 100
2, 2782920, Note_on_c, 0, 74, 0
2, 2782920, Note_on_c, 0, 76, 100
2, 2783040, Note_on_c, 0, 76, 0
2, 2783040, Note_on_c, 0, 77, 100
2, 2783160, Note_on_c, 0, 77, 0
2, 2783160, Note_on_c, 0, 76, 100
2, 2783280, Note_on_c, 0, 76, 0
2, 2783280, Note_on_c, 0, 74, 100
2, 2783400, Note_on_c, 0, 74, 0
2, 2783400, Note_on_c, 0, 76, 100
2, 2783520, Note_on_c, 0, 76, 0
2, 2783520, Note_on_c, 0, 72, 100
2, 2783640, Note_on_c, 0, 72, 0
2, 2783640, Note_on_c, 0, 67, 100
2, 2783760, Note_on_c, 0, 67, 0
2, 2783760, Note_on_c, 0, 72, 100
2, 2783880, Note_on_c, 0, 72, 0
2, 2783880, Note_on_c, 0, 76, 100
2, 2784000, Note_on_c, 0, 76, 0
2, 2784000, Note_on_c, 0, 72, 100
2, 2784120, Note_on_c, 0, 72, 0
2, 2784120, Note_on_c, 0, 78, 100
2, 2784240, Note_on_c, 0, 78, 0
2, 2784240, Note_on_c, 0, 79, 100
2, 2784360, Note_on_c, 0, 79, 0
2, 2784360, Note_on_c, 0, 81, 100
2, 2784480, Note_on_c, 0, 81, 0
2, 2784480, Note_on_c, 0, 72, 100
2, 2784600, Note_on_c, 0, 72, 0
2, 2784600, Note_on_c, 0, 71, 100
2, 2784720, Note_on_c, 0, 71, 0
2, 2784720, Note_on_c, 0, 69, 100
2, 2784840, Note_on_c, 0, 69, 0
2, 2784840, Note_on_c, 0, 71, 100
2, 2784960, Note_on_c, 0, 71, 0
2, 2784960, Note_on_c, 0, 72, 100
2, 2785080, Note_on_c, 0, 72, 0
2, 2785080, Note_on_c, 0, 74, 100
2, 2785200, Note_on_c, 0, 74, 0
2, 2785200, Note_on_c, 0, 67, 100
2, 2785320, Note_on_c, 0, 67, 0
2, 2785320, Note_on_c, 0, 71, 100
2, 2785440, Note_on_c, 0, 71, 0
2, 2785440, Note_on_c, 0, 69, 100
2, 2785560, Note_on_c, 0, 69, 0
2, 2785560, Note_on_c, 0, 67, 100
2, 2785680, Note_on_c, 0, 67, 0
2, 2785680, Note_on_c, 0, 66, 100
2, 2785800, Note_on_c, 0, 66, 0
2, 2785800, Note_on_c, 0, 67, 100
2, 2785920, Note_on_c, 0, 67, 0
2, 2785920, Note_on_c, 0, 62, 100
2, 2786520, Note_on_c, 0, 62, 0
2, 2786520, Note_on_c, 0, 67, 100
2, 2786640, Note_on_c, 0, 67, 0
2, 2786640, Note_on_c, 0, 66, 100
2, 2786880, Note_on_c, 0, 66, 0
2, 2786880, Note_on_c, 0, 67, 100
2, 2787000, Note_on_c, 0, 67, 0
2, 2787000, Note_on_c, 0, 69, 100
2, 2787360, Note_on_c, 0, 69, 0
2, 2787360, Note_on_c, 0, 67, 100
2, 2787420, Note_on_c, 0, 67, 0
2, 2787420, Note_on_c, 0, 69, 100
2, 2787480, Note_on_c, 0, 69, 0
2, 2787480, Note_on_c, 0, 71, 100
2, 2787840, Note_on_c, 0, 71, 0
2, 2787840, Note_on_c, 0, 69, 100
2, 2787900, Note_on_c, 0, 69, 0
2, 2787900, Note_on_c, 0, 67, 100
2, 2787960, Note_on_c, 0, 67, 0
2, 2787960, Note_on_c, 0, 69, 100
2, 2788020, Note_on_c, 0, 69, 0
2, 2788020, Note_on_c, 0, 71, 100
2, 2788080, Note_on_c, 0, 71, 0
2, 2788080, Note_on_c, 0, 69, 100
2, 2788120, Note_on_c, 0, 69, 0
2, 2788120, Note_on_c, 0, 71, 100
2, 2788160, Note_on_c, 0, 71, 0
2, 2788160, Note_on_c, 0, 69, 100
2, 2788200, Note_on_c, 0, 69, 0
2, 2788200, Note_on_c, 0, 71, 100
2, 2788240, Note_on_c, 0, 71, 0
2, 2788240, Note_on_c, 0, 69, 100
2, 2788281, Note_on_c, 0, 69, 0
2, 2788281, Note_on_c, 0, 71, 100
2, 2788320, Note_on_c, 0, 71, 0
2, 2788320, Note_on_c, 0, 69, 100
2, 2788360, Note_on_c, 0, 69, 0
2, 2788360, Note_on_c, 0, 71, 100
2, 2788400, Note_on_c, 0, 71, 0
2, 2788400, Note_on_c, 0, 69, 100
2, 2788440, Note_on_c, 0, 69, 0
2, 2788440, Note_on_c, 0, 71, 100
2, 2788500, Note_on_c, 0, 71, 0
2, 2788500, Note_on_c, 0, 72, 100
2, 2788560, Note_on_c, 0, 72, 0
2, 2788560, Note_on_c, 0, 74, 100
2, 2788620, Note_on_c, 0, 74, 0
2, 2788620, Note_on_c, 0, 76, 100
2, 2788800, Note_on_c, 0, 76, 0
2, 2788800, Note_on_c, 0, 74, 100
2, 2788920, Note_on_c, 0, 74, 0
2, 2788920, Note_on_c, 0, 72, 100
2, 2789040, Note_on_c, 0, 72, 0
2, 2789040, Note_on_c, 0, 71, 100
2, 2789160, Note_on_c, 0, 71, 0
2, 2789160, Note_on_c, 0, 69, 100
2, 2789280, Note_on_c, 0, 69, 0
2, 2789280, Note_on_c, 0, 67, 100
2, 2789520, Note_on_c, 0, 67, 0
2, 2789520, Note_on_c, 0, 79, 100
2, 2790000, Note_on_c, 0, 79, 0
2, 2790000, Note_on_c, 0, 78, 100
2, 2790240, Note_on_c, 0, 78, 0
2, 2790240, Note_on_c, 0, 76, 100
2, 2790360, Note_on_c, 0, 76, 0
2, 2790360, Note_on_c, 0, 78, 100
2, 2790600, Note_on_c, 0, 78, 0
2, 2790600, Note_on_c, 0, 75, 100
2, 2790720, Note_on_c, 0, 75, 0
2, 2790720, Note_on_c, 0, 76, 100
2, 2790960, Note_on_c, 0, 76, 0
2, 2790960, Note_on_c, 0, 75, 100
2, 2790990, Note_on_c, 0, 75, 0
2, 2790990, Note_on_c, 0, 76, 100
2, 2791020, Note_on_c, 0, 76, 0
2, 2791020, Note_on_c, 0, 81, 100
2, 2791440, Note_on_c, 0, 81, 0
2, 2791440, Note_on_c, 0, 83, 100
2, 2791500, Note_on_c, 0, 83, 0
2, 2791500, Note_on_c, 0, 81, 100
2, 2791560, Note_on_c, 0, 81, 0
2, 2791560, Note_on_c, 0, 79, 100
2, 2791620, Note_on_c, 0, 79, 0
2, 2791620, Note_on_c, 0, 81, 100
2, 2791680, Note_on_c, 0, 81, 0
2, 2791680, Note_on_c, 0, 78, 100
2, 2792040, Note_on_c, 0, 78, 0
2, 2792040, Note_on_c, 0, 76, 100
2, 2792160, Note_on_c, 0, 76, 0
2, 2792160, Note_on_c, 0, 75, 100
2, 2792400, Note_on_c, 0, 75, 0
2, 2792400, Note_on_c, 0, 71, 100
2, 2792880, Note_on_c, 0, 71, 0
2, 2792880, Note_on_c, 0, 76, 100
2, 2793120, Note_on_c, 0, 76, 0
2, 2793120, Note_on_c, 0, 78, 100
2, 2793180, Note_on_c, 0, 78, 0
2, 2793180, Note_on_c, 0, 79, 100
2, 2793240, Note_on_c, 0, 79, 0
2, 2793240, Note_on_c, 0, 78, 100
2, 2793600, Note_on_c, 0, 78, 0
2, 2793600, Note_on_c, 0, 76, 100
2, 2793840, Note_on_c, 0, 76, 0
2, 2793840, Note_on_c, 0, 71, 100
2, 2794200, Note_on_c, 0, 71, 0
2, 2794200, Note_on_c, 0, 72, 100
2, 2794320, Note_on_c, 0, 72, 0
2, 2794320, Note_on_c, 0, 71, 100
2, 2794380, Note_on_c, 0, 71, 0
2, 2794380, Note_on_c, 0, 69, 100
2, 2794440, Note_on_c, 0, 69, 0
2, 2794440, Note_on_c, 0, 71, 100
2, 2794500, Note_on_c, 0, 71, 0
2, 2794500, Note_on_c, 0, 79, 100
2, 2794560, Note_on_c, 0, 79, 0
2, 2794560, Note_on_c, 0, 76, 100
2, 2794620, Note_on_c, 0, 76, 0
2, 2794620, Note_on_c, 0, 78, 100
2, 2794800, Note_on_c, 0, 78, 0
2, 2794800, Note_on_c, 0, 75, 100
2, 2795040, Note_on_c, 0, 75, 0
2, 2795040, Note_on_c, 0, 76, 100
2, 2795160, Note_on_c, 0, 76, 0
2, 2795160, Note_on_c, 0, 67, 100
2, 2795640, Note_on_c, 0, 67, 0
2, 2795640, Note_on_c, 0, 66, 100
2, 2795760, Note_on_c, 0, 66, 0
2, 2795760, Note_on_c, 0, 64, 100
2, 2795880, Note_on_c, 0, 64, 0
2, 2795880, Note_on_c, 0, 66, 100
2, 2796000, Note_on_c, 0, 66, 0
2, 2796000, Note_on_c, 0, 76, 100
2, 2796480, Note_on_c, 0, 76, 0
2, 2796480, Note_on_c, 0, 75, 100
2, 2796600, Note_on_c, 0, 75, 0
2, 2796600, Note_on_c, 0, 78, 100
2, 2796720, Note_on_c, 0, 78, 0
2, 2796720, Note_on_c, 0, 79, 100
2, 2796780, Note_on_c, 0, 79, 0
2, 2796780, Note_on_c, 0, 81, 100
2, 2796840, Note_on_c, 0, 81, 0
2, 2796840, Note_on_c, 0, 79, 100
2, 2796960, Note_on_c, 0, 79, 0
2, 2796960, Note_on_c, 0, 78, 100
2, 2797440, Note_on_c, 0, 78, 0
2, 2797440, Note_on_c, 0, 76, 100
2, 2797560, Note_on_c, 0, 76, 0
2, 2797560, Note_on_c, 0, 78, 100
2, 2797800, Note_on_c, 0, 78, 0
2, 2797800, Note_on_c, 0, 75, 100
2, 2797920, Note_on_c, 0, 75, 0
2, 2797920, Note_on_c, 0, 76, 100
2, 2798880, Note_on_c, 0, 76, 0
2, 2798880, Note_on_c, 0, 74, 100
2, 2799120, Note_on_c, 0, 74, 0
2, 2799120, Note_on_c, 0, 72, 100
2, 2799240, Note_on_c, 0, 72, 0
2, 2799240, Note_on_c, 0, 71, 100
2, 2799360, Note_on_c, 0, 71, 0
2, 2799360, Note_on_c, 0, 69, 100
2, 2799600, Note_on_c, 0, 69, 0
2, 2799600, Note_on_c, 0, 71, 100
2, 2800080, Note_on_c, 0, 71, 0
2, 2800080, Note_on_c, 0, 72, 100
2, 2800200, Note_on_c, 0, 72, 0
2, 2800200, Note_on_c, 0, 74, 100
2, 2800320, Note_on_c, 0, 74, 0
2, 2800320, Note_on_c, 0, 72, 100
2, 2800380, Note_on_c, 0, 72, 0
2, 2800380, Note_on_c, 0, 71, 100
2, 2800440, Note_on_c, 0, 71, 0
2, 2800440, Note_on_c, 0, 72, 100
2, 2800560, Note_on_c, 0, 72, 0
2, 2800560, Note_on_c, 0, 71, 100
2, 2800620, Note_on_c, 0, 71, 0
2, 2800620, Note_on_c, 0, 69, 100
2, 2800800, Note_on_c, 0, 69, 0
2, 2800800, Note_on_c, 0, 67, 100
2, 2801040, Note_on_c, 0, 67, 0
2, 2801040, Note_on_c, 0, 69, 100
2, 2801520, Note_on_c, 0, 69, 0
2, 2801520, Note_on_c, 0, 71, 100
2, 2801640, Note_on_c, 0, 71, 0
2, 2801640, Note_on_c, 0, 72, 100
2, 2801760, Note_on_c, 0, 72, 0
2, 2801760, Note_on_c, 0, 74, 100
2, 2801880, Note_on_c, 0, 74, 0
2, 2801880, Note_on_c, 0, 72, 100
2, 2802000, Note_on_c, 0, 72, 0
2, 2802000, Note_on_c, 0, 71, 100
2, 2802120, Note_on_c, 0, 71, 0
2, 2802120, Note_on_c, 0, 72, 100
2, 2802240, Note_on_c, 0, 72, 0
2, 2802240, Note_on_c, 0, 69, 100
2, 2802360, Note_on_c, 0, 69, 0
2, 2802360, Note_on_c, 0, 64, 100
2, 2802480, Note_on_c, 0, 64, 0
2, 2802480, Note_on_c, 0, 69, 100
2, 2802600, Note_on_c, 0, 69, 0
2, 2802600, Note_on_c, 0, 72, 100
2, 2802720, Note_on_c, 0, 72, 0
2, 2802720, Note_on_c, 0, 74, 100
2, 2803320, Note_on_c, 0, 74, 0
2, 2803320, Note_on_c, 0, 72, 100
2, 2803440, Note_on_c, 0, 72, 0
2, 2803440, Note_on_c, 0, 71, 100
2, 2803560, Note_on_c, 0, 71, 0
2, 2803560, Note_on_c, 0, 72, 100
2, 2803680, Note_on_c, 0, 72, 0
2, 2803680, Note_on_c, 0, 69, 100
2, 2803800, Note_on_c, 0, 69, 0
2, 2803800, Note_on_c, 0, 66, 100
2, 2803920, Note_on_c, 0, 66, 0
2, 2803920, Note_on_c, 0, 69, 100
2, 2804040, Note_on_c, 0, 69, 0
2, 2804040, Note_on_c, 0, 72, 100
2, 2804160, Note_on_c, 0, 72, 0
2, 2804160, Note_on_c, 0, 76, 100
2, 2804280, Note_on_c, 0, 76, 0
2, 2804280, Note_on_c, 0, 74, 100
2, 2804400, Note_on_c, 0, 74, 0
2, 2804400, Note_on_c, 0, 72, 100
2, 2804520, Note_on_c, 0, 72, 0
2, 2804520, Note_on_c, 0, 71, 100
2, 2804640, Note_on_c, 0, 71, 0
2, 2804640, Note_on_c, 0, 72, 100
2, 2804760, Note_on_c, 0, 72, 0
2, 2804760, Note_on_c, 0, 71, 100
2, 2804880, Note_on_c, 0, 71, 0
2, 2804880, Note_on_c, 0, 69, 100
2, 2805000, Note_on_c, 0, 69, 0
2, 2805000, Note_on_c, 0, 71, 100
2, 2805120, Note_on_c, 0, 71, 0
2, 2805120, Note_on_c, 0, 67, 100
2, 2805240, Note_on_c, 0, 67, 0
2, 2805240, Note_on_c, 0, 62, 100
2, 2805360, Note_on_c, 0, 62, 0
2, 2805360, Note_on_c, 0, 67, 100
2, 2805480, Note_on_c, 0, 67, 0
2, 2805480, Note_on_c, 0, 71, 100
2, 2805600, Note_on_c, 0, 71, 0
2, 2805600, Note_on_c, 0, 67, 100
2, 2805720, Note_on_c, 0, 67, 0
2, 2805720, Note_on_c, 0, 72, 100
2, 2805840, Note_on_c, 0, 72, 0
2, 2805840, Note_on_c, 0, 74, 100
2, 2805960, Note_on_c, 0, 74, 0
2, 2805960, Note_on_c, 0, 76, 100
2, 2806080, Note_on_c, 0, 76, 0
2, 2806080, Note_on_c, 0, 77, 100
2, 2806200, Note_on_c, 0, 77, 0
2, 2806200, Note_on_c, 0, 76, 100
2, 2806320, Note_on_c, 0, 76, 0
2, 2806320, Note_on_c, 0, 74, 100
2, 2806440, Note_on_c, 0, 74, 0
2, 2806440, Note_on_c, 0, 76, 100
2, 2806560, Note_on_c, 0, 76, 0
2, 2806560, Note_on_c, 0, 72, 100
2, 2806680, Note_on_c, 0, 72, 0
2, 2806680, Note_on_c, 0, 67, 100
2, 2806800, Note_on_c, 0, 67, 0
2, 2806800, Note_on_c, 0, 72, 100
2, 2806920, Note_on_c, 0, 72, 0
2, 2806920, Note_on_c, 0, 76, 100
2, 2807040, Note_on_c, 0, 76, 0
2, 2807040, Note_on_c, 0, 72, 100
2, 2807160, Note_on_c, 0, 72, 0
2, 2807160, Note_on_c, 0, 78, 100
2, 2807280, Note_on_c, 0, 78, 0
2, 2807280, Note_on_c, 0, 79, 100
2, 2807400, Note_on_c, 0, 79, 0
2, 2807400, Note_on_c, 0, 81, 100
2, 2807520, Note_on_c, 0, 81, 0
2, 2807520, Note_on_c, 0, 72, 100
2, 2807640, Note_on_c, 0, 72, 0
2, 2807640, Note_on_c, 0, 71, 100
2, 2807760, Note_on_c, 0, 71, 0
2, 2807760, Note_on_c, 0, 69, 100
2, 2807880, Note_on_c, 0, 69, 0
2, 2807880, Note_on_c, 0, 71, 100
2, 2808000, Note_on_c, 0, 71, 0
2, 2808000, Note_on_c, 0, 72, 100
2, 2808120, Note_on_c, 0, 72, 0
2, 2808120, Note_on_c, 0, 74, 100
2, 2808240, Note_on_c, 0, 74, 0
2, 2808240, Note_on_c, 0, 67, 100
2, 2808360, Note_on_c, 0, 67, 0
2, 2808360, Note_on_c, 0, 71, 100
2, 2808480, Note_on_c, 0, 71, 0
2, 2808480, Note_on_c, 0, 69, 100
2, 2808600, Note_on_c, 0, 69, 0
2, 2808600, Note_on_c, 0, 67, 100
2, 2808720, Note_on_c, 0, 67, 0
2, 2808720, Note_on_c, 0, 66, 100
2, 2808840, Note_on_c, 0, 66, 0
2, 2808840, Note_on_c, 0, 67, 100
2, 2808960, Note_on_c, 0, 67, 0
2, 2808960, Note_on_c, 0, 62, 100
2, 2809560, Note_on_c, 0, 62, 0
2, 2809560, Note_on_c, 0, 67, 100
2, 2809680, Note_on_c, 0, 67, 0
2, 2809680, Note_on_c, 0, 66, 100
2, 2809920, Note_on_c, 0, 66, 0
2, 2809920, Note_on_c, 0, 67, 100
2, 2810040, Note_on_c, 0, 67, 0
2, 2810040, Note_on_c, 0, 74, 100
2, 2853840, Note_on_c, 0, 74, 0
2, 2853840, Note_on_c, 0, 76, 100
2, 2853960, Note_on_c, 0, 76, 0
2, 2853960, Note_on_c, 0, 74, 100
2, 2854080, Note_on_c, 0, 74, 0
2, 2854080, Note_on_c, 0, 72, 100
2, 2854200, Note_on_c, 0, 72, 0
2, 2854200, Note_on_c, 0, 71, 100
2, 2854320, Note_on_c, 0, 71, 0
2, 2854320, Note_on_c, 0, 69, 100
2, 2854440, Note_on_c, 0, 69, 0
2, 2854440, Note_on_c, 0, 67, 100
2, 2854560, Note_on_c, 0, 67, 0
2, 2854560, Note_on_c, 0, 72, 100
2, 2854680, Note_on_c, 0, 72, 0
2, 2854680, Note_on_c, 0, 76, 100
2, 2854800, Note_on_c, 0, 76, 0
2, 2854800, Note_on_c, 0, 79, 100
2, 2854920, Note_on_c, 0, 79, 0
2, 2854920, Note_on_c, 0, 78, 100
2, 2855040, Note_on_c, 0, 78, 0
2, 2855040, Note_on_c, 0, 76, 100
2, 2855160, Note_on_c, 0, 76, 0
2, 2855160, Note_on_c, 0, 74, 100
2, 2855280, Note_on_c, 0, 74, 0
2, 2855280, Note_on_c, 0, 72, 100
2, 2855400, Note_on_c, 0, 72, 0
2, 2855400, Note_on_c, 0, 71, 100
2, 2855520, Note_on_c, 0, 71, 0
2, 2855520, Note_on_c, 0, 76, 100
2, 2855760, Note_on_c, 0, 76, 0
2, 2855760, Note_on_c, 0, 74, 100
2, 2856000, Note_on_c, 0, 74, 0
2, 2856000, Note_on_c, 0, 72, 100
2, 2856600, Note_on_c, 0, 72, 0
2, 2856600, Note_on_c, 0, 71, 100
2, 2856660, Note_on_c, 0, 71, 0
2, 2856660, Note_on_c, 0, 69, 100
2, 2856720, Note_on_c, 0, 69, 0
2, 2856720, Note_on_c, 0, 71, 100
2, 2856840, Note_on_c, 0, 71, 0
2, 2856840, Note_on_c, 0, 72, 100
2, 2856960, Note_on_c, 0, 72, 0
2, 2856960, Note_on_c, 0, 74, 100
2, 2857080, Note_on_c, 0, 74, 0
2, 2857080, Note_on_c, 0, 71, 100
2, 2857200, Note_on_c, 0, 71, 0
2, 2857200, Note_on_c, 0, 72, 100
2, 2857320, Note_on_c, 0, 72, 0
2, 2857320, Note_on_c, 0, 74, 100
2, 2857440, Note_on_c, 0, 74, 0
2, 2857440, Note_on_c, 0, 72, 100
2, 2857560, Note_on_c, 0, 72, 0
2, 2857560, Note_on_c, 0, 74, 100
2, 2857680, Note_on_c, 0, 74, 0
2, 2857680, Note_on_c, 0, 76, 100
2, 2857800, Note_on_c, 0, 76, 0
2, 2857800, Note_on_c, 0, 74, 100
2, 2857920, Note_on_c, 0, 74, 0
2, 2857920, Note_on_c, 0, 72, 100
2, 2858040, Note_on_c, 0, 72, 0
2, 2858040, Note_on_c, 0, 71, 100
2, 2858160, Note_on_c, 0, 71, 0
2, 2858160, Note_on_c, 0, 69, 100
2, 2858280, Note_on_c, 0, 69, 0
2, 2858280, Note_on_c, 0, 67, 100
2, 2858400, Note_on_c, 0, 67, 0
2, 2858400, Note_on_c, 0, 72, 100
2, 2858520, Note_on_c, 0, 72, 0
2, 2858520, Note_on_c, 0, 76, 100
2, 2858640, Note_on_c, 0, 76, 0
2, 2858640, Note_on_c, 0, 79, 100
2, 2858760, Note_on_c, 0, 79, 0
2, 2858760, Note_on_c, 0, 78, 100
2, 2858880, Note_on_c, 0, 78, 0
2, 2858880, Note_on_c, 0, 76, 100
2, 2859000, Note_on_c, 0, 76, 0
2, 2859000, Note_on_c, 0, 74, 100
2, 2859120, Note_on_c, 0, 74, 0
2, 2859120, Note_on_c, 0, 72, 100
2, 2859240, Note_on_c, 0, 72, 0
2, 2859240, Note_on_c, 0, 71, 100
2, 2859360, Note_on_c, 0, 71, 0
2, 2859360, Note_on_c, 0, 76, 100
2, 2859600, Note_on_c, 0, 76, 0
2, 2859600, Note_on_c, 0, 74, 100
2, 2859840, Note_on_c, 0, 74, 0
2, 2859840, Note_on_c, 0, 72, 100
2, 2860440, Note_on_c, 0, 72, 0
2, 2860440, Note_on_c, 0, 71, 100
2, 2860500, Note_on_c, 0, 71, 0
2, 2860500, Note_on_c, 0, 69, 100
2, 2860560, Note_on_c, 0, 69, 0
2, 2860560, Note_on_c, 0, 71, 100
2, 2860680, Note_on_c, 0, 71, 0
2, 2860680, Note_on_c, 0, 72, 100
2, 2860800, Note_on_c, 0, 72, 0
2, 2860800, Note_on_c, 0, 74, 100
2, 2860920, Note_on_c, 0, 74, 0
2, 2860920, Note_on_c, 0, 71, 100
2, 2861040, Note_on_c, 0, 71, 0
2, 2861040, Note_on_c, 0, 72, 100
2, 2861160, Note_on_c, 0, 72, 0
2, 2861160, Note_on_c, 0, 74, 100
2, 2861280, Note_on_c, 0, 74, 0
2, 2861280, Note_on_c, 0, 72, 100
2, 2861400, Note_on_c, 0, 72, 0
2, 2861400, Note_on_c, 0, 74, 100
2, 2861520, Note_on_c, 0, 74, 0
2, 2861520, Note_on_c, 0, 76, 100
2, 2861640, Note_on_c, 0, 76, 0
2, 2861640, Note_on_c, 0, 74, 100
2, 2861760, Note_on_c, 0, 74, 0
2, 2861760, Note_on_c, 0, 72, 100
2, 2861880, Note_on_c, 0, 72, 0
2, 2861880, Note_on_c, 0, 71, 100
2, 2862000, Note_on_c, 0, 71, 0
2, 2862000, Note_on_c, 0, 69, 100
2, 2862120, Note_on_c, 0, 69, 0
2, 2862120, Note_on_c, 0, 67, 100
2, 2862240, Note_on_c, 0, 67, 0
2, 2862240, Note_on_c, 0, 72, 100
2, 2862360, Note_on_c, 0, 72, 0
2, 2862360, Note_on_c, 0, 76, 100
2, 2862480, Note_on_c, 0, 76, 0
2, 2862480, Note_on_c, 0, 79, 100
2, 2862600, Note_on_c, 0, 79, 0
2, 2862600, Note_on_c, 0, 78, 100
2, 2862720, Note_on_c, 0, 78, 0
2, 2862720, Note_on_c, 0, 76, 100
2, 2862840, Note_on_c, 0, 76, 0
2, 2862840, Note_on_c, 0, 74, 100
2, 2862960, Note_on_c, 0, 74, 0
2, 2862960, Note_on_c, 0, 72, 100
2, 2863080, Note_on_c, 0, 72, 0
2, 2863080, Note_on_c, 0, 71, 100
2, 2863200, Note_on_c, 0, 71, 0
2, 2863200, Note_on_c, 0, 67, 100
2, 2916720, Note_on_c, 0, 67, 0
2, 2916720, Note_on_c, 0, 69, 100
2, 2917200, Note_on_c, 0, 69, 0
2, 2917200, Note_on_c, 0, 71, 100
2, 2917680, Note_on_c, 0, 71, 0
2, 2917680, Note_on_c, 0, 72, 100
2, 2918040, Note_on_c, 0, 72, 0
2, 2918040, Note_on_c, 0, 71, 100
2, 2918160, Note_on_c, 0, 71, 0
2, 2918160, Note_on_c, 0, 69, 100
2, 2918280, Note_on_c, 0, 69, 0
2, 2918280, Note_on_c, 0, 67, 100
2, 2918400, Note_on_c, 0, 67, 0
2, 2918400, Note_on_c, 0, 64, 100
2, 2918520, Note_on_c, 0, 64, 0
2, 2918520, Note_on_c, 0, 66, 100
2, 2918640, Note_on_c, 0, 66, 0
2, 2918640, Note_on_c, 0, 67, 100
2, 2918760, Note_on_c, 0, 67, 0
2, 2918760, Note_on_c, 0, 69, 100
2, 2918880, Note_on_c, 0, 69, 0
2, 2918880, Note_on_c, 0, 71, 100
2, 2919000, Note_on_c, 0, 71, 0
2, 2919000, Note_on_c, 0, 72, 100
2, 2919120, Note_on_c, 0, 72, 0
2, 2919120, Note_on_c, 0, 74, 100
2, 2919240, Note_on_c, 0, 74, 0
2, 2919240, Note_on_c, 0, 76, 100
2, 2919360, Note_on_c, 0, 76, 0
2, 2919360, Note_on_c, 0, 78, 100
2, 2919480, Note_on_c, 0, 78, 0
2, 2919480, Note_on_c, 0, 79, 100
2, 2919600, Note_on_c, 0, 79, 0
2, 2919600, Note_on_c, 0, 81, 100
2, 2919720, Note_on_c, 0, 81, 0
2, 2919720, Note_on_c, 0, 83, 100
2, 2919840, Note_on_c, 0, 83, 0
2, 2919840, Note_on_c, 0, 81, 100
2, 2919960, Note_on_c, 0, 81, 0
2, 2919960, Note_on_c, 0, 79, 100
2, 2920080, Note_on_c, 0, 79, 0
2, 2920080, Note_on_c, 0, 67, 100
2, 2920560, Note_on_c, 0, 67, 0
2, 2920560, Note_on_c, 0, 69, 100
2, 2921040, Note_on_c, 0, 69, 0
2, 2921040, Note_on_c, 0, 71, 100
2, 2921520, Note_on_c, 0, 71, 0
2, 2921520, Note_on_c, 0, 72, 100
2, 2921880, Note_on_c, 0, 72, 0
2, 2921880, Note_on_c, 0, 71, 100
2, 2922000, Note_on_c, 0, 71, 0
2, 2922000, Note_on_c, 0, 69, 100
2, 2922120, Note_on_c, 0, 69, 0
2, 2922120, Note_on_c, 0, 67, 100
2, 2922240, Note_on_c, 0, 67, 0
2, 2922240, Note_on_c, 0, 64, 100
2, 2922360, Note_on_c, 0, 64, 0
2, 2922360, Note_on_c, 0, 66, 100
2, 2922480, Note_on_c, 0, 66, 0
2, 2922480, Note_on_c, 0, 67, 100
2, 2922600, Note_on_c, 0, 67, 0
2, 2922600, Note_on_c, 0, 69, 100
2, 2922720, Note_on_c, 0, 69, 0
2, 2922720, Note_on_c, 0, 71, 100
2, 2922840, Note_on_c, 0, 71, 0
2, 2922840, Note_on_c, 0, 72, 100
2, 2922960, Note_on_c, 0, 72, 0
2, 2922960, Note_on_c, 0, 74, 100
2, 2923080, Note_on_c, 0, 74, 0
2, 2923080, Note_on_c, 0, 76, 100
2, 2923200, Note_on_c, 0, 76, 0
2, 2923200, Note_on_c, 0, 78, 100
2, 2923320, Note_on_c, 0, 78, 0
2, 2923320, Note_on_c, 0, 79, 100
2, 2923440, Note_on_c, 0, 79, 0
2, 2923440, Note_on_c, 0, 81, 100
2, 2923560, Note_on_c, 0, 81, 0
2, 2923560, Note_on_c, 0, 83, 100
2, 2923680, Note_on_c, 0, 83, 0
2, 2923680, Note_on_c, 0, 81, 100
2, 2923800, Note_on_c, 0, 81, 0
2, 2923800, Note_on_c, 0, 79, 100
2, 2923920, Note_on_c, 0, 79, 0
2, 2923920, Note_on_c, 0, 67, 100
2, 2924400, Note_on_c, 0, 67, 0
2, 2924400, Note_on_c, 0, 69, 100
2, 2924880, Note_on_c, 0, 69, 0
2, 2924880, Note_on_c, 0, 71, 100
2, 2925360, Note_on_c, 0, 71, 0
2, 2925360, Note_on_c, 0, 67, 100
2, 2962560, Note_on_c, 0, 67, 0
2, 2962560, Note_on_c, 0, 66, 100
2, 2963520, Note_on_c, 0, 66, 0
2, 2963520, Note_on_c, 0, 64, 100
2, 2964000, Note_on_c, 0, 64, 0
2, 2964000, Note_on_c, 0, 62, 100
2, 2964480, Note_on_c, 0, 62, 0
2, 2964480, Note_on_c, 0, 66, 100
2, 2965200, Note_on_c, 0, 66, 0
2, 2965200, Note_on_c, 0, 67, 100
2, 2965440, Note_on_c, 0, 67, 0
2, 2965440, Note_on_c, 0, 69, 100
2, 2965680, Note_on_c, 0, 69, 0
2, 2965680, Note_on_c, 0, 71, 100
2, 2965920, Note_on_c, 0, 71, 0
2, 2965920, Note_on_c, 0, 69, 100
2, 2966160, Note_on_c, 0, 69, 0
2, 2966160, Note_on_c, 0, 67, 100
2, 2966400, Note_on_c, 0, 67, 0
2, 2966400, Note_on_c, 0, 66, 100
2, 2967360, Note_on_c, 0, 66, 0
2, 2967360, Note_on_c, 0, 64, 100
2, 2967840, Note_on_c, 0, 64, 0
2, 2967840, Note_on_c, 0, 62, 100
2, 2968320, Note_on_c, 0, 62, 0
2, 2968320, Note_on_c, 0, 66, 100
2, 2969040, Note_on_c, 0, 66, 0
2, 2969040, Note_on_c, 0, 67, 100
2, 2969280, Note_on_c, 0, 67, 0
2, 2969280, Note_on_c, 0, 69, 100
2, 2969520, Note_on_c, 0, 69, 0
2, 2969520, Note_on_c, 0, 71, 100
2, 2969760, Note_on_c, 0, 71, 0
2, 2969760, Note_on_c, 0, 69, 100
2, 2970000, Note_on_c, 0, 69, 0
2, 2970000, Note_on_c, 0, 67, 100
2, 2970240, Note_on_c, 0, 67, 0
2, 2970240, Note_on_c, 0, 66, 100
2, 2971200, Note_on_c, 0, 66, 0
2, 2971200, Note_on_c, 0, 64, 100
2, 2971680, Note_on_c, 0, 64, 0
2, 2971680, Note_on_c, 0, 62, 100
2, 2973720, Note_on_c, 0, 62, 0
2, 2973720, Note_on_c, 0, 64, 100
2, 2973840, Note_on_c, 0, 64, 0
2, 2973840, Note_on_c, 0, 66, 100
2, 2973960, Note_on_c, 0, 66, 0
2, 2973960, Note_on_c, 0, 67, 100
2, 2974080, Note_on_c, 0, 67, 0
2, 2974080, Note_on_c, 0, 71, 100
2, 2974200, Note_on_c, 0, 71, 0
2, 2974200, Note_on_c, 0, 69, 100
2, 2974320, Note_on_c, 0, 69, 0
2, 2974320, Note_on_c, 0, 67, 100
2, 2974440, Note_on_c, 0, 67, 0
2, 2974440, Note_on_c, 0, 74, 100
2, 2974560, Note_on_c, 0, 74, 0
2, 2974560, Note_on_c, 0, 62, 100
2, 2974800, Note_on_c, 0, 62, 0
2, 2974800, Note_on_c, 0, 57, 100
2, 2975160, Note_on_c, 0, 57, 0
2, 2975160, Note_on_c, 0, 59, 100
2, 2975280, Note_on_c, 0, 59, 0
2, 2975280, Note_on_c, 0, 61, 100
2, 2975400, Note_on_c, 0, 61, 0
2, 2975400, Note_on_c, 0, 62, 100
2, 2975520, Note_on_c, 0, 62, 0
2, 2975520, Note_on_c, 0, 66, 100
2, 2975640, Note_on_c, 0, 66, 0
2, 2975640, Note_on_c, 0, 64, 100
2, 2975760, Note_on_c, 0, 64, 0
2, 2975760, Note_on_c, 0, 62, 100
2, 2975880, Note_on_c, 0, 62, 0
2, 2975880, Note_on_c, 0, 69, 100
2, 2976000, Note_on_c, 0, 69, 0
2, 2976000, Note_on_c, 0, 67, 100
2, 2976120, Note_on_c, 0, 67, 0
2, 2976120, Note_on_c, 0, 66, 100
2, 2976240, Note_on_c, 0, 66, 0
2, 2976240, Note_on_c, 0, 74, 100
2, 2976360, Note_on_c, 0, 74, 0
2, 2976360, Note_on_c, 0, 76, 100
2, 2976600, Note_on_c, 0, 76, 0
2, 2976600, Note_on_c, 0, 78, 100
2, 2976660, Note_on_c, 0, 78, 0
2, 2976660, Note_on_c, 0, 79, 100
2, 2976720, Note_on_c, 0, 79, 0
2, 2976720, Note_on_c, 0, 67, 100
2, 2976840, Note_on_c, 0, 67, 0
2, 2976840, Note_on_c, 0, 69, 100
2, 2977080, Note_on_c, 0, 69, 0
2, 2977080, Note_on_c, 0, 71, 100
2, 2977140, Note_on_c, 0, 71, 0
2, 2977140, Note_on_c, 0, 64, 100
2, 2977200, Note_on_c, 0, 64, 0
2, 2977200, Note_on_c, 0, 66, 100
2, 2977320, Note_on_c, 0, 66, 0
2, 2977320, Note_on_c, 0, 67, 100
2, 2977380, Note_on_c, 0, 67, 0
2, 2977380, Note_on_c, 0, 66, 100
2, 2977440, Note_on_c, 0, 66, 0
2, 2977440, Note_on_c, 0, 79, 100
2, 2977560, Note_on_c, 0, 79, 0
2, 2977560, Note_on_c, 0, 78, 100
2, 2977680, Note_on_c, 0, 78, 0
2, 2977680, Note_on_c, 0, 76, 100
2, 2977800, Note_on_c, 0, 76, 0
2, 2977800, Note_on_c, 0, 74, 100
2, 2977920, Note_on_c, 0, 74, 0
2, 2977920, Note_on_c, 0, 71, 100
2, 2978040, Note_on_c, 0, 71, 0
2, 2978040, Note_on_c, 0, 72, 100
2, 2978160, Note_on_c, 0, 72, 0
2, 2978160, Note_on_c, 0, 74, 100
2, 2978280, Note_on_c, 0, 74, 0
2, 2978280, Note_on_c, 0, 67, 100
2, 2978400, Note_on_c, 0, 67, 0
2, 2978400, Note_on_c, 0, 66, 100
2, 2978520, Note_on_c, 0, 66, 0
2, 2978520, Note_on_c, 0, 67, 100
2, 2978640, Note_on_c, 0, 67, 0
2, 2978640, Note_on_c, 0, 69, 100
2, 2978760, Note_on_c, 0, 69, 0
2, 2978760, Note_on_c, 0, 71, 100
2, 2978880, Note_on_c, 0, 71, 0
2, 2978880, Note_on_c, 0, 74, 100
2, 2979000, Note_on_c, 0, 74, 0
2, 2979000, Note_on_c, 0, 72, 100
2, 2979120, Note_on_c, 0, 72, 0
2, 2979120, Note_on_c, 0, 71, 100
2, 2979240, Note_on_c, 0, 71, 0
2, 2979240, Note_on_c, 0, 76, 100
2, 2979360, Note_on_c, 0, 76, 0
2, 2979360, Note_on_c, 0, 77, 100
2, 2979480, Note_on_c, 0, 77, 0
2, 2979480, Note_on_c, 0, 76, 100
2, 2979600, Note_on_c, 0, 76, 0
2, 2979600, Note_on_c, 0, 74, 100
2, 2979720, Note_on_c, 0, 74, 0
2, 2979720, Note_on_c, 0, 72, 100
2, 2979840, Note_on_c, 0, 72, 0
2, 2979840, Note_on_c, 0, 69, 100
2, 2979960, Note_on_c, 0, 69, 0
2, 2979960, Note_on_c, 0, 71, 100
2, 2980080, Note_on_c, 0, 71, 0
2, 2980080, Note_on_c, 0, 72, 100
2, 2980200, Note_on_c, 0, 72, 0
2, 2980200, Note_on_c, 0, 66, 100
2, 2980320, Note_on_c, 0, 66, 0
2, 2980320, Note_on_c, 0, 61, 100
2, 2980440, Note_on_c, 0, 61, 0
2, 2980440, Note_on_c, 0, 62, 100
2, 2980560, Note_on_c, 0, 62, 0
2, 2980560, Note_on_c, 0, 64, 100
2, 2980680, Note_on_c, 0, 64, 0
2, 2980680, Note_on_c, 0, 66, 100
2, 2980800, Note_on_c, 0, 66, 0
2, 2980800, Note_on_c, 0, 69, 100
2, 2980920, Note_on_c, 0, 69, 0
2, 2980920, Note_on_c, 0, 67, 100
2, 2981040, Note_on_c, 0, 67, 0
2, 2981040, Note_on_c, 0, 66, 100
2, 2981160, Note_on_c, 0, 66, 0
2, 2981160, Note_on_c, 0, 71, 100
2, 2981280, Note_on_c, 0, 71, 0
2, 2981280, Note_on_c, 0, 62, 100
2, 2981400, Note_on_c, 0, 62, 0
2, 2981400, Note_on_c, 0, 64, 100
2, 2981520, Note_on_c, 0, 64, 0
2, 2981520, Note_on_c, 0, 66, 100
2, 2981640, Note_on_c, 0, 66, 0
2, 2981640, Note_on_c, 0, 67, 100
2, 2981760, Note_on_c, 0, 67, 0
2, 2981760, Note_on_c, 0, 71, 100
2, 2981880, Note_on_c, 0, 71, 0
2, 2981880, Note_on_c, 0, 69, 100
2, 2982000, Note_on_c, 0, 69, 0
2, 2982000, Note_on_c, 0, 67, 100
2, 2982120, Note_on_c, 0, 67, 0
2, 2982120, Note_on_c, 0, 74, 100
2, 2982240, Note_on_c, 0, 74, 0
2, 2982240, Note_on_c, 0, 62, 100
2, 2982480, Note_on_c, 0, 62, 0
2, 2982480, Note_on_c, 0, 57, 100
2, 2982840, Note_on_c, 0, 57, 0
2, 2982840, Note_on_c, 0, 59, 100
2, 2982960, Note_on_c, 0, 59, 0
2, 2982960, Note_on_c, 0, 61, 100
2, 2983080, Note_on_c, 0, 61, 0
2, 2983080, Note_on_c, 0, 62, 100
2, 2983200, Note_on_c, 0, 62, 0
2, 2983200, Note_on_c, 0, 66, 100
2, 2983320, Note_on_c, 0, 66, 0
2, 2983320, Note_on_c, 0, 64, 100
2, 2983440, Note_on_c, 0, 64, 0
2, 2983440, Note_on_c, 0, 62, 100
2, 2983560, Note_on_c, 0, 62, 0
2, 2983560, Note_on_c, 0, 69, 100
2, 2983680, Note_on_c, 0, 69, 0
2, 2983680, Note_on_c, 0, 67, 100
2, 2983800, Note_on_c, 0, 67, 0
2, 2983800, Note_on_c, 0, 66, 100
2, 2983920, Note_on_c, 0, 66, 0
2, 2983920, Note_on_c, 0, 74, 100
2, 2984040, Note_on_c, 0, 74, 0
2, 2984040, Note_on_c, 0, 76, 100
2, 2984280, Note_on_c, 0, 76, 0
2, 2984280, Note_on_c, 0, 78, 100
2, 2984340, Note_on_c, 0, 78, 0
2, 2984340, Note_on_c, 0, 79, 100
2, 2984400, Note_on_c, 0, 79, 0
2, 2984400, Note_on_c, 0, 67, 100
2, 2984520, Note_on_c, 0, 67, 0
2, 2984520, Note_on_c, 0, 69, 100
2, 2984760, Note_on_c, 0, 69, 0
2, 2984760, Note_on_c, 0, 71, 100
2, 2984820, Note_on_c, 0, 71, 0
2, 2984820, Note_on_c, 0, 64, 100
2, 2984880, Note_on_c, 0, 64, 0
2, 2984880, Note_on_c, 0, 66, 100
2, 2985000, Note_on_c, 0, 66, 0
2, 2985000, Note_on_c, 0, 67, 100
2, 2985060, Note_on_c, 0, 67, 0
2, 2985060, Note_on_c, 0, 66, 100
2, 2985120, Note_on_c, 0, 66, 0
2, 2985120, Note_on_c, 0, 79, 100
2, 2985240, Note_on_c, 0, 79, 0
2, 2985240, Note_on_c, 0, 78, 100
2, 2985360, Note_on_c, 0, 78, 0
2, 2985360, Note_on_c, 0, 76, 100
2, 2985480, Note_on_c, 0, 76, 0
2, 2985480, Note_on_c, 0, 74, 100
2, 2985600, Note_on_c, 0, 74, 0
2, 2985600, Note_on_c, 0, 71, 100
2, 2985720, Note_on_c, 0, 71, 0
2, 2985720, Note_on_c, 0, 72, 100
2, 2985840, Note_on_c, 0, 72, 0
2, 2985840, Note_on_c, 0, 74, 100
2, 2985960, Note_on_c, 0, 74, 0
2, 2985960, Note_on_c, 0, 67, 100
2, 2986080, Note_on_c, 0, 67, 0
2, 2986080, Note_on_c, 0, 66, 100
2, 2986200, Note_on_c, 0, 66, 0
2, 2986200, Note_on_c, 0, 67, 100
2, 2986320, Note_on_c, 0, 67, 0
2, 2986320, Note_on_c, 0, 69, 100
2, 2986440, Note_on_c, 0, 69, 0
2, 2986440, Note_on_c, 0, 71, 100
2, 2986560, Note_on_c, 0, 71, 0
2, 2986560, Note_on_c, 0, 74, 100
2, 2986680, Note_on_c, 0, 74, 0
2, 2986680, Note_on_c, 0, 72, 100
2, 2986800, Note_on_c, 0, 72, 0
2, 2986800, Note_on_c, 0, 71, 100
2, 2986920, Note_on_c, 0, 71, 0
2, 2986920, Note_on_c, 0, 76, 100
2, 2987040, Note_on_c, 0, 76, 0
2, 2987040, Note_on_c, 0, 77, 100
2, 2987160, Note_on_c, 0, 77, 0
2, 2987160, Note_on_c, 0, 76, 100
2, 2987280, Note_on_c, 0, 76, 0
2, 2987280, Note_on_c, 0, 74, 100
2, 2987400, Note_on_c, 0, 74, 0
2, 2987400, Note_on_c, 0, 72, 100
2, 2987520, Note_on_c, 0, 72, 0
2, 2987520, Note_on_c, 0, 69, 100
2, 2987640, Note_on_c, 0, 69, 0
2, 2987640, Note_on_c, 0, 71, 100
2, 2987760, Note_on_c, 0, 71, 0
2, 2987760, Note_on_c, 0, 72, 100
2, 2987880, Note_on_c, 0, 72, 0
2, 2987880, Note_on_c, 0, 66, 100
2, 2988000, Note_on_c, 0, 66, 0
2, 2988000, Note_on_c, 0, 61, 100
2, 2988120, Note_on_c, 0, 61, 0
2, 2988120, Note_on_c, 0, 62, 100
2, 2988240, Note_on_c, 0, 62, 0
2, 2988240, Note_on_c, 0, 64, 100
2, 2988360, Note_on_c, 0, 64, 0
2, 2988360, Note_on_c, 0, 66, 100
2, 2988480, Note_on_c, 0, 66, 0
2, 2988480, Note_on_c, 0, 69, 100
2, 2988600, Note_on_c, 0, 69, 0
2, 2988600, Note_on_c, 0, 67, 100
2, 2988720, Note_on_c, 0, 67, 0
2, 2988720, Note_on_c, 0, 66, 100
2, 2988840, Note_on_c, 0, 66, 0
2, 2988840, Note_on_c, 0, 71, 100
2, 2988960, Note_on_c, 0, 71, 0
2, 2988960, Note_on_c, 0, 62, 100
2, 2989080, Note_on_c, 0, 62, 0
2, 2989080, Note_on_c, 0, 64, 100
2, 2989200, Note_on_c, 0, 64, 0
2, 2989200, Note_on_c, 0, 66, 100
2, 2989320, Note_on_c, 0, 66, 0
2, 2989320, Note_on_c, 0, 67, 100
2, 2989440, Note_on_c, 0, 67, 0
2, 2989440, Note_on_c, 0, 71, 100
2, 2989560, Note_on_c, 0, 71, 0
2, 2989560, Note_on_c, 0, 69, 100
2, 2989680, Note_on_c, 0, 69, 0
2, 2989680, Note_on_c, 0, 67, 100
2, 2989800, Note_on_c, 0, 67, 0
2, 2989800, Note_on_c, 0, 74, 100
2, 2989920, Note_on_c, 0, 74, 0
2, 2989920, Note_on_c, 0, 62, 100
2, 2990160, Note_on_c, 0, 62, 0
2, 2990160, Note_on_c, 0, 57, 100
2, 2990520, Note_on_c, 0, 57, 0
2, 2990520, Note_on_c, 0, 59, 100
2, 2990640, Note_on_c, 0, 59, 0
2, 2990640, Note_on_c, 0, 61, 100
2, 2990760, Note_on_c, 0, 61, 0
2, 2990760, Note_on_c, 0, 62, 100
2, 2990880, Note_on_c, 0, 62, 0
2, 2990880, Note_on_c, 0, 66, 100
2, 2991000, Note_on_c, 0, 66, 0
2, 2991000, Note_on_c, 0, 64, 100
2, 2991120, Note_on_c, 0, 64, 0
2, 2991120, Note_on_c, 0, 62, 100
2, 2991240, Note_on_c, 0, 62, 0
2, 2991240, Note_on_c, 0, 69, 100
2, 2991360, Note_on_c, 0, 69, 0
2, 2991360, Note_on_c, 0, 67, 100
2, 2991480, Note_on_c, 0, 67, 0
2, 2991480, Note_on_c, 0, 66, 100
2, 2991600, Note_on_c, 0, 66, 0
2, 2991600, Note_on_c, 0, 74, 100
2, 2991720, Note_on_c, 0, 74, 0
2, 2991720, Note_on_c, 0, 76, 100
2, 2991960, Note_on_c, 0, 76, 0
2, 2991960, Note_on_c, 0, 78, 100
2, 2992020, Note_on_c, 0, 78, 0
2, 2992020, Note_on_c, 0, 79, 100
2, 2992080, Note_on_c, 0, 79, 0
2, 2992080, Note_on_c, 0, 67, 100
2, 2992200, Note_on_c, 0, 67, 0
2, 2992200, Note_on_c, 0, 69, 100
2, 2992440, Note_on_c, 0, 69, 0
2, 2992440, Note_on_c, 0, 71, 100
2, 2992500, Note_on_c, 0, 71, 0
2, 2992500, Note_on_c, 0, 64, 100
2, 2992560, Note_on_c, 0, 64, 0
2, 2992560, Note_on_c, 0, 66, 100
2, 2992680, Note_on_c, 0, 66, 0
2, 2992680, Note_on_c, 0, 67, 100
2, 2992740, Note_on_c, 0, 67, 0
2, 2992740, Note_on_c, 0, 66, 100
2, 2992800, Note_on_c, 0, 66, 0
2, 2992800, Note_on_c, 0, 79, 100
2, 2992920, Note_on_c, 0, 79, 0
2, 2992920, Note_on_c, 0, 78, 100
2, 2993040, Note_on_c, 0, 78, 0
2, 2993040, Note_on_c, 0, 76, 100
2, 2993160, Note_on_c, 0, 76, 0
2, 2993160, Note_on_c, 0, 74, 100
2, 2993280, Note_on_c, 0, 74, 0
2, 2993280, Note_on_c, 0, 71, 100
2, 2993400, Note_on_c, 0, 71, 0
2, 2993400, Note_on_c, 0, 72, 100
2, 2993520, Note_on_c, 0, 72, 0
2, 2993520, Note_on_c, 0, 74, 100
2, 2993640, Note_on_c, 0, 74, 0
2, 2993640, Note_on_c, 0, 67, 100
2, 2993760, Note_on_c, 0, 67, 0
2, 2993760, Note_on_c, 0, 66, 100
2, 2993880, Note_on_c, 0, 66, 0
2, 2993880, Note_on_c, 0, 67, 100
2, 2994000, Note_on_c, 0, 67, 0
2, 2994000, Note_on_c, 0, 69, 100
2, 2994120, Note_on_c, 0, 69, 0
2, 2994120, Note_on_c, 0, 71, 100
2, 2994240, Note_on_c, 0, 71, 0
2, 2994240, Note_on_c, 0, 74, 100
2, 2994360, Note_on_c, 0, 74, 0
2, 2994360, Note_on_c, 0, 72, 100
2, 2994480, Note_on_c, 0, 72, 0
2, 2994480, Note_on_c, 0, 71, 100
2, 2994600, Note_on_c, 0, 71, 0
2, 2994600, Note_on_c, 0, 76, 100
2, 2994720, Note_on_c, 0, 76, 0
2, 2994720, Note_on_c, 0, 77, 100
2, 2994840, Note_on_c, 0, 77, 0
2, 2994840, Note_on_c, 0, 76, 100
2, 2994960, Note_on_c, 0, 76, 0
2, 2994960, Note_on_c, 0, 74, 100
2, 2995080, Note_on_c, 0, 74, 0
2, 2995080, Note_on_c, 0, 72, 100
2, 2995200, Note_on_c, 0, 72, 0
2, 2995200, Note_on_c, 0, 69, 100
2, 2995320, Note_on_c, 0, 69, 0
2, 2995320, Note_on_c, 0, 71, 100
2, 2995440, Note_on_c, 0, 71, 0
2, 2995440, Note_on_c, 0, 72, 100
2, 2995560, Note_on_c, 0, 72, 0
2, 2995560, Note_on_c, 0, 66, 100
2, 2995680, Note_on_c, 0, 66, 0
2, 2995680, Note_on_c, 0, 61, 100
2, 2995800, Note_on_c, 0, 61, 0
2, 2995800, Note_on_c, 0, 62, 100
2, 2995920, Note_on_c, 0, 62, 0
2, 2995920, Note_on_c, 0, 64, 100
2, 2996040, Note_on_c, 0, 64, 0
2, 2996040, Note_on_c, 0, 66, 100
2, 2996160, Note_on_c, 0, 66, 0
2, 2996160, Note_on_c, 0, 69, 100
2, 2996280, Note_on_c, 0, 69, 0
2, 2996280, Note_on_c, 0, 67, 100
2, 2996400, Note_on_c, 0, 67, 0
2, 2996400, Note_on_c, 0, 66, 100
2, 2996520, Note_on_c, 0, 66, 0
2, 2996520, Note_on_c, 0, 71, 100
2, 2996640, Note_on_c, 0, 71, 0
2, 2996640, Note_on_c, 0, 84, 100
2, 2997120, Note_on_c, 0, 84, 0
2, 2997120, Note_on_c, 0, 83, 100
2, 2997180, Note_on_c, 0, 83, 0
2, 2997180, Note_on_c, 0, 84, 100
2, 2997240, Note_on_c, 0, 84, 0
2, 2997240, Note_on_c, 0, 83, 100
2, 2997840, Note_on_c, 0, 83, 0
2, 2997840, Note_on_c, 0, 81, 100
2, 2997960, Note_on_c, 0, 81, 0
2, 2997960, Note_on_c, 0, 83, 100
2, 2998080, Note_on_c, 0, 83, 0
2, 2998080, Note_on_c, 0, 81, 100
2, 2998200, Note_on_c, 0, 81, 0
2, 2998200, Note_on_c, 0, 79, 100
2, 2998320, Note_on_c, 0, 79, 0
2, 2998320, Note_on_c, 0, 78, 100
2, 2998440, Note_on_c, 0, 78, 0
2, 2998440, Note_on_c, 0, 79, 100
2, 2998560, Note_on_c, 0, 79, 0
2, 2998560, Note_on_c, 0, 77, 100
2, 2999160, Note_on_c, 0, 77, 0
2, 2999160, Note_on_c, 0, 76, 100
2, 2999280, Note_on_c, 0, 76, 0
2, 2999280, Note_on_c, 0, 74, 100
2, 2999400, Note_on_c, 0, 74, 0
2, 2999400, Note_on_c, 0, 76, 100
2, 2999520, Note_on_c, 0, 76, 0
2, 2999520, Note_on_c, 0, 74, 100
2, 3000120, Note_on_c, 0, 74, 0
2, 3000120, Note_on_c, 0, 72, 100
2, 3000240, Note_on_c, 0, 72, 0
2, 3000240, Note_on_c, 0, 71, 100
2, 3000360, Note_on_c, 0, 71, 0
2, 3000360, Note_on_c, 0, 69, 100
2, 3000480, Note_on_c, 0, 69, 0
2, 3000480, Note_on_c, 0, 72, 100
2, 3001080, Note_on_c, 0, 72, 0
2, 3001080, Note_on_c, 0, 71, 100
2, 3001200, Note_on_c, 0, 71, 0
2, 3001200, Note_on_c, 0, 69, 100
2, 3001320, Note_on_c, 0, 69, 0
2, 3001320, Note_on_c, 0, 71, 100
2, 3001440, Note_on_c, 0, 71, 0
2, 3001440, Note_on_c, 0, 79, 100
2, 3001560, Note_on_c, 0, 79, 0
2, 3001560, Note_on_c, 0, 78, 100
2, 3001680, Note_on_c, 0, 78, 0
2, 3001680, Note_on_c, 0, 81, 100
2, 3001800, Note_on_c, 0, 81, 0
2, 3001800, Note_on_c, 0, 79, 100
2, 3001920, Note_on_c, 0, 79, 0
2, 3001920, Note_on_c, 0, 78, 100
2, 3002040, Note_on_c, 0, 78, 0
2, 3002040, Note_on_c, 0, 76, 100
2, 3002160, Note_on_c, 0, 76, 0
2, 3002160, Note_on_c, 0, 74, 100
2, 3002280, Note_on_c, 0, 74, 0
2, 3002280, Note_on_c, 0, 84, 100
2, 3002400, Note_on_c, 0, 84, 0
2, 3002400, Note_on_c, 0, 83, 100
2, 3002640, Note_on_c, 0, 83, 0
2, 3002640, Note_on_c, 0, 71, 100
2, 3004320, Note_on_c, 0, 71, 0
2, 3004320, Note_on_c, 0, 75, 100
2, 3004440, Note_on_c, 0, 75, 0
2, 3004440, Note_on_c, 0, 76, 100
2, 3004560, Note_on_c, 0, 76, 0
2, 3004560, Note_on_c, 0, 79, 100
2, 3004680, Note_on_c, 0, 79, 0
2, 3004680, Note_on_c, 0, 83, 100
2, 3004800, Note_on_c, 0, 83, 0
2, 3004800, Note_on_c, 0, 81, 100
2, 3005400, Note_on_c, 0, 81, 0
2, 3005400, Note_on_c, 0, 79, 100
2, 3005520, Note_on_c, 0, 79, 0
2, 3005520, Note_on_c, 0, 83, 100
2, 3005640, Note_on_c, 0, 83, 0
2, 3005640, Note_on_c, 0, 81, 100
2, 3005760, Note_on_c, 0, 81, 0
2, 3005760, Note_on_c, 0, 79, 100
2, 3005880, Note_on_c, 0, 79, 0
2, 3005880, Note_on_c, 0, 78, 100
2, 3006000, Note_on_c, 0, 78, 0
2, 3006000, Note_on_c, 0, 76, 100
2, 3006120, Note_on_c, 0, 76, 0
2, 3006120, Note_on_c, 0, 74, 100
2, 3006240, Note_on_c, 0, 74, 0
2, 3006240, Note_on_c, 0, 72, 100
2, 3006840, Note_on_c, 0, 72, 0
2, 3006840, Note_on_c, 0, 71, 100
2, 3006960, Note_on_c, 0, 71, 0
2, 3006960, Note_on_c, 0, 69, 100
2, 3007080, Note_on_c, 0, 69, 0
2, 3007080, Note_on_c, 0, 71, 100
2, 3007200, Note_on_c, 0, 71, 0
2, 3007200, Note_on_c, 0, 69, 100
2, 3007800, Note_on_c, 0, 69, 0
2, 3007800, Note_on_c, 0, 67, 100
2, 3007920, Note_on_c, 0, 67, 0
2, 3007920, Note_on_c, 0, 66, 100
2, 3008040, Note_on_c, 0, 66, 0
2, 3008040, Note_on_c, 0, 64, 100
2, 3008160, Note_on_c, 0, 64, 0
2, 3008160, Note_on_c, 0, 67, 100
2, 3008760, Note_on_c, 0, 67, 0
2, 3008760, Note_on_c, 0, 66, 100
2, 3008880, Note_on_c, 0, 66, 0
2, 3008880, Note_on_c, 0, 64, 100
2, 3009000, Note_on_c, 0, 64, 0
2, 3009000, Note_on_c, 0, 62, 100
2, 3009120, Note_on_c, 0, 62, 0
2, 3009120, Note_on_c, 0, 79, 100
2, 3012000, Note_on_c, 0, 79, 0
2, 3012000, Note_on_c, 0, 84, 100
2, 3012480, Note_on_c, 0, 84, 0
2, 3012480, Note_on_c, 0, 83, 100
2, 3012540, Note_on_c, 0, 83, 0
2, 3012540, Note_on_c, 0, 84, 100
2, 3012600, Note_on_c, 0, 84, 0
2, 3012600, Note_on_c, 0, 83, 100
2, 3013200, Note_on_c, 0, 83, 0
2, 3013200, Note_on_c, 0, 81, 100
2, 3013320, Note_on_c, 0, 81, 0
2, 3013320, Note_on_c, 0, 83, 100
2, 3013440, Note_on_c, 0, 83, 0
2, 3013440, Note_on_c, 0, 81, 100
2, 3013560, Note_on_c, 0, 81, 0
2, 3013560, Note_on_c, 0, 79, 100
2, 3013680, Note_on_c, 0, 79, 0
2, 3013680, Note_on_c, 0, 78, 100
2, 3013800, Note_on_c, 0, 78, 0
2, 3013800, Note_on_c, 0, 79, 100
2, 3013920, Note_on_c, 0, 79, 0
2, 3013920, Note_on_c, 0, 77, 100
2, 3014520, Note_on_c, 0, 77, 0
2, 3014520, Note_on_c, 0, 76, 100
2, 3014640, Note_on_c, 0, 76, 0
2, 3014640, Note_on_c, 0, 74, 100
2, 3014760, Note_on_c, 0, 74, 0
2, 3014760, Note_on_c, 0, 76, 100
2, 3014880, Note_on_c, 0, 76, 0
2, 3014880, Note_on_c, 0, 74, 100
2, 3015480, Note_on_c, 0, 74, 0
2, 3015480, Note_on_c, 0, 72, 100
2, 3015600, Note_on_c, 0, 72, 0
2, 3015600, Note_on_c, 0, 71, 100
2, 3015720, Note_on_c, 0, 71, 0
2, 3015720, Note_on_c, 0, 69, 100
2, 3015840, Note_on_c, 0, 69, 0
2, 3015840, Note_on_c, 0, 72, 100
2, 3016440, Note_on_c, 0, 72, 0
2, 3016440, Note_on_c, 0, 71, 100
2, 3016560, Note_on_c, 0, 71, 0
2, 3016560, Note_on_c, 0, 69, 100
2, 3016680, Note_on_c, 0, 69, 0
2, 3016680, Note_on_c, 0, 71, 100
2, 3016800, Note_on_c, 0, 71, 0
2, 3016800, Note_on_c, 0, 79, 100
2, 3016920, Note_on_c, 0, 79, 0
2, 3016920, Note_on_c, 0, 78, 100
2, 3017040, Note_on_c, 0, 78, 0
2, 3017040, Note_on_c, 0, 81, 100
2, 3017160, Note_on_c, 0, 81, 0
2, 3017160, Note_on_c, 0, 79, 100
2, 3017280, Note_on_c, 0, 79, 0
2, 3017280, Note_on_c, 0, 78, 100
2, 3017400, Note_on_c, 0, 78, 0
2, 3017400, Note_on_c, 0, 76, 100
2, 3017520, Note_on_c, 0, 76, 0
2, 3017520, Note_on_c, 0, 74, 100
2, 3017640, Note_on_c, 0, 74, 0
2, 3017640, Note_on_c, 0, 84, 100
2, 3017760, Note_on_c, 0, 84, 0
2, 3017760, Note_on_c, 0, 83, 100
2, 3018000, Note_on_c, 0, 83, 0
2, 3018000, Note_on_c, 0, 71, 100
2, 3019680, Note_on_c, 0, 71, 0
2, 3019680, Note_on_c, 0, 75, 100
2, 3019800, Note_on_c, 0, 75, 0
2, 3019800, Note_on_c, 0, 76, 100
2, 3019920, Note_on_c, 0, 76, 0
2, 3019920, Note_on_c, 0, 79, 100
2, 3020040, Note_on_c, 0, 79, 0
2, 3020040, Note_on_c, 0, 83, 100
2, 3020160, Note_on_c, 0, 83, 0
2, 3020160, Note_on_c, 0, 81, 100
2, 3020760, Note_on_c, 0, 81, 0
2, 3020760, Note_on_c, 0, 79, 100
2, 3020880, Note_on_c, 0, 79, 0
2, 3020880, Note_on_c, 0, 83, 100
2, 3021000, Note_on_c, 0, 83, 0
2, 3021000, Note_on_c, 0, 81, 100
2, 3021120, Note_on_c, 0, 81, 0
2, 3021120, Note_on_c, 0, 79, 100
2, 3021240, Note_on_c, 0, 79, 0
2, 3021240, Note_on_c, 0, 78, 100
2, 3021360, Note_on_c, 0, 78, 0
2, 3021360, Note_on_c, 0, 76, 100
2, 3021480, Note_on_c, 0, 76, 0
2, 3021480, Note_on_c, 0, 74, 100
2, 3021600, Note_on_c, 0, 74, 0
2, 3021600, Note_on_c, 0, 72, 100
2, 3022200, Note_on_c, 0, 72, 0
2, 3022200, Note_on_c, 0, 71, 100
2, 3022320, Note_on_c, 0, 71, 0
2, 3022320, Note_on_c, 0, 69, 100
2, 3022440, Note_on_c, 0, 69, 0
2, 3022440, Note_on_c, 0, 71, 100
2, 3022560, Note_on_c, 0, 71, 0
2, 3022560, Note_on_c, 0, 69, 100
2, 3023160, Note_on_c, 0, 69, 0
2, 3023160, Note_on_c, 0, 67, 100
2, 3023280, Note_on_c, 0, 67, 0
2, 3023280, Note_on_c, 0, 66, 100
2, 3023400, Note_on_c, 0, 66, 0
2, 3023400, Note_on_c, 0, 64, 100
2, 3023520, Note_on_c, 0, 64, 0
2, 3023520, Note_on_c, 0, 67, 100
2, 3024120, Note_on_c, 0, 67, 0
2, 3024120, Note_on_c, 0, 66, 100
2, 3024240, Note_on_c, 0, 66, 0
2, 3024240, Note_on_c, 0, 64, 100
2, 3024360, Note_on_c, 0, 64, 0
2, 3024360, Note_on_c, 0, 62, 100
2, 3024480, Note_on_c, 0, 62, 0
2, 3024480, Note_on_c, 0, 69, 100
2, 3025440, Note_on_c, 0, 69, 0
2, 3025440, Note_on_c, 0, 81, 100
2, 3025920, Note_on_c, 0, 81, 0
2, 3025920, Note_on_c, 0, 79, 100
2, 3026520, Note_on_c, 0, 79, 0
2, 3026520, Note_on_c, 0, 78, 100
2, 3026640, Note_on_c, 0, 78, 0
2, 3026640, Note_on_c, 0, 81, 100
2, 3026760, Note_on_c, 0, 81, 0
2, 3026760, Note_on_c, 0, 79, 100
2, 3026880, Note_on_c, 0, 79, 0
2, 3026880, Note_on_c, 0, 78, 100
2, 3027000, Note_on_c, 0, 78, 0
2, 3027000, Note_on_c, 0, 76, 100
2, 3027120, Note_on_c, 0, 76, 0
2, 3027120, Note_on_c, 0, 75, 100
2, 3027240, Note_on_c, 0, 75, 0
2, 3027240, Note_on_c, 0, 76, 100
2, 3027360, Note_on_c, 0, 76, 0
2, 3027360, Note_on_c, 0, 78, 100
2, 3028080, Note_on_c, 0, 78, 0
2, 3028080, Note_on_c, 0, 75, 100
2, 3028320, Note_on_c, 0, 75, 0
2, 3028320, Note_on_c, 0, 71, 100
2, 3028560, Note_on_c, 0, 71, 0
2, 3028560, Note_on_c, 0, 76, 100
2, 3029280, Note_on_c, 0, 76, 0
2, 3029280, Note_on_c, 0, 74, 100
2, 3029880, Note_on_c, 0, 74, 0
2, 3029880, Note_on_c, 0, 72, 100
2, 3030000, Note_on_c, 0, 72, 0
2, 3030000, Note_on_c, 0, 71, 100
2, 3030120, Note_on_c, 0, 71, 0
2, 3030120, Note_on_c, 0, 72, 100
2, 3030240, Note_on_c, 0, 72, 0
2, 3030240, Note_on_c, 0, 71, 100
2, 3030840, Note_on_c, 0, 71, 0
2, 3030840, Note_on_c, 0, 69, 100
2, 3030960, Note_on_c, 0, 69, 0
2, 3030960, Note_on_c, 0, 67, 100
2, 3031080, Note_on_c, 0, 67, 0
2, 3031080, Note_on_c, 0, 66, 100
2, 3031200, Note_on_c, 0, 66, 0
2, 3031200, Note_on_c, 0, 69, 100
2, 3031800, Note_on_c, 0, 69, 0
2, 3031800, Note_on_c, 0, 67, 100
2, 3031920, Note_on_c, 0, 67, 0
2, 3031920, Note_on_c, 0, 66, 100
2, 3032040, Note_on_c, 0, 66, 0
2, 3032040, Note_on_c, 0, 67, 100
2, 3032160, Note_on_c, 0, 67, 0
2, 3032160, Note_on_c, 0, 64, 100
2, 3033120, Note_on_c, 0, 64, 0
2, 3033120, Note_on_c, 0, 69, 100
2, 3033600, Note_on_c, 0, 69, 0
2, 3033600, Note_on_c, 0, 67, 100
2, 3034200, Note_on_c, 0, 67, 0
2, 3034200, Note_on_c, 0, 66, 100
2, 3034320, Note_on_c, 0, 66, 0
2, 3034320, Note_on_c, 0, 69, 100
2, 3034440, Note_on_c, 0, 69, 0
2, 3034440, Note_on_c, 0, 67, 100
2, 3034560, Note_on_c, 0, 67, 0
2, 3034560, Note_on_c, 0, 66, 100
2, 3034680, Note_on_c, 0, 66, 0
2, 3034680, Note_on_c, 0, 64, 100
2, 3034800, Note_on_c, 0, 64, 0
2, 3034800, Note_on_c, 0, 62, 100
2, 3034920, Note_on_c, 0, 62, 0
2, 3034920, Note_on_c, 0, 60, 100
2, 3035040, Note_on_c, 0, 60, 0
2, 3035040, Note_on_c, 0, 72, 100
2, 3035520, Note_on_c, 0, 72, 0
2, 3035520, Note_on_c, 0, 71, 100
2, 3036120, Note_on_c, 0, 71, 0
2, 3036120, Note_on_c, 0, 69, 100
2, 3036240, Note_on_c, 0, 69, 0
2, 3036240, Note_on_c, 0, 72, 100
2, 3036360, Note_on_c, 0, 72, 0
2, 3036360, Note_on_c, 0, 71, 100
2, 3036480, Note_on_c, 0, 71, 0
2, 3036480, Note_on_c, 0, 69, 100
2, 3036600, Note_on_c, 0, 69, 0
2, 3036600, Note_on_c, 0, 67, 100
2, 3036720, Note_on_c, 0, 67, 0
2, 3036720, Note_on_c, 0, 66, 100
2, 3036840, Note_on_c, 0, 66, 0
2, 3036840, Note_on_c, 0, 71, 100
2, 3036960, Note_on_c, 0, 71, 0
2, 3036960, Note_on_c, 0, 67, 100
2, 3037200, Note_on_c, 0, 67, 0
2, 3037200, Note_on_c, 0, 71, 100
2, 3037440, Note_on_c, 0, 71, 0
2, 3037440, Note_on_c, 0, 74, 100
2, 3037680, Note_on_c, 0, 74, 0
2, 3037680, Note_on_c, 0, 79, 100
2, 3037920, Note_on_c, 0, 79, 0
2, 3037920, Note_on_c, 0, 84, 100
2, 3038400, Note_on_c, 0, 84, 0
2, 3038400, Note_on_c, 0, 83, 100
2, 3039000, Note_on_c, 0, 83, 0
2, 3039000, Note_on_c, 0, 81, 100
2, 3039120, Note_on_c, 0, 81, 0
2, 3039120, Note_on_c, 0, 84, 100
2, 3039240, Note_on_c, 0, 84, 0
2, 3039240, Note_on_c, 0, 83, 100
2, 3039360, Note_on_c, 0, 83, 0
2, 3039360, Note_on_c, 0, 81, 100
2, 3039480, Note_on_c, 0, 81, 0
2, 3039480, Note_on_c, 0, 79, 100
2, 3039600, Note_on_c, 0, 79, 0
2, 3039600, Note_on_c, 0, 78, 100
2, 3039720, Note_on_c, 0, 78, 0
2, 3039720, Note_on_c, 0, 79, 100
2, 3039840, Note_on_c, 0, 79, 0
2, 3039840, Note_on_c, 0, 69, 100
2, 3040800, Note_on_c, 0, 69, 0
2, 3040800, Note_on_c, 0, 81, 100
2, 3041280, Note_on_c, 0, 81, 0
2, 3041280, Note_on_c, 0, 79, 100
2, 3041880, Note_on_c, 0, 79, 0
2, 3041880, Note_on_c, 0, 78, 100
2, 3042000, Note_on_c, 0, 78, 0
2, 3042000, Note_on_c, 0, 81, 100
2, 3042120, Note_on_c, 0, 81, 0
2, 3042120, Note_on_c, 0, 79, 100
2, 3042240, Note_on_c, 0, 79, 0
2, 3042240, Note_on_c, 0, 78, 100
2, 3042360, Note_on_c, 0, 78, 0
2, 3042360, Note_on_c, 0, 76, 100
2, 3042480, Note_on_c, 0, 76, 0
2, 3042480, Note_on_c, 0, 75, 100
2, 3042600, Note_on_c, 0, 75, 0
2, 3042600, Note_on_c, 0, 76, 100
2, 3042720, Note_on_c, 0, 76, 0
2, 3042720, Note_on_c, 0, 78, 100
2, 3043440, Note_on_c, 0, 78, 0
2, 3043440, Note_on_c, 0, 75, 100
2, 3043680, Note_on_c, 0, 75, 0
2, 3043680, Note_on_c, 0, 71, 100
2, 3043920, Note_on_c, 0, 71, 0
2, 3043920, Note_on_c, 0, 76, 100
2, 3044640, Note_on_c, 0, 76, 0
2, 3044640, Note_on_c, 0, 74, 100
2, 3045240, Note_on_c, 0, 74, 0
2, 3045240, Note_on_c, 0, 72, 100
2, 3045360, Note_on_c, 0, 72, 0
2, 3045360, Note_on_c, 0, 71, 100
2, 3045480, Note_on_c, 0, 71, 0
2, 3045480, Note_on_c, 0, 72, 100
2, 3045600, Note_on_c, 0, 72, 0
2, 3045600, Note_on_c, 0, 71, 100
2, 3046200, Note_on_c, 0, 71, 0
2, 3046200, Note_on_c, 0, 69, 100
2, 3046320, Note_on_c, 0, 69, 0
2, 3046320, Note_on_c, 0, 67, 100
2, 3046440, Note_on_c, 0, 67, 0
2, 3046440, Note_on_c, 0, 66, 100
2, 3046560, Note_on_c, 0, 66, 0
2, 3046560, Note_on_c, 0, 69, 100
2, 3047160, Note_on_c, 0, 69, 0
2, 3047160, Note_on_c, 0, 67, 100
2, 3047280, Note_on_c, 0, 67, 0
2, 3047280, Note_on_c, 0, 66, 100
2, 3047400, Note_on_c, 0, 66, 0
2, 3047400, Note_on_c, 0, 67, 100
2, 3047520, Note_on_c, 0, 67, 0
2, 3047520, Note_on_c, 0, 64, 100
2, 3048480, Note_on_c, 0, 64, 0
2, 3048480, Note_on_c, 0, 69, 100
2, 3048960, Note_on_c, 0, 69, 0
2, 3048960, Note_on_c, 0, 67, 100
2, 3049560, Note_on_c, 0, 67, 0
2, 3049560, Note_on_c, 0, 66, 100
2, 3049680, Note_on_c, 0, 66, 0
2, 3049680, Note_on_c, 0, 69, 100
2, 3049800, Note_on_c, 0, 69, 0
2, 3049800, Note_on_c, 0, 67, 100
2, 3049920, Note_on_c, 0, 67, 0
2, 3049920, Note_on_c, 0, 66, 100
2, 3050040, Note_on_c, 0, 66, 0
2, 3050040, Note_on_c, 0, 64, 100
2, 3050160, Note_on_c, 0, 64, 0
2, 3050160, Note_on_c, 0, 62, 100
2, 3050280, Note_on_c, 0, 62, 0
2, 3050280, Note_on_c, 0, 60, 100
2, 3050400, Note_on_c, 0, 60, 0
2, 3050400, Note_on_c, 0, 72, 100
2, 3050880, Note_on_c, 0, 72, 0
2, 3050880, Note_on_c, 0, 71, 100
2, 3051480, Note_on_c, 0, 71, 0
2, 3051480, Note_on_c, 0, 69, 100
2, 3051600, Note_on_c, 0, 69, 0
2, 3051600, Note_on_c, 0, 72, 100
2, 3051720, Note_on_c, 0, 72, 0
2, 3051720, Note_on_c, 0, 71, 100
2, 3051840, Note_on_c, 0, 71, 0
2, 3051840, Note_on_c, 0, 69, 100
2, 3051960, Note_on_c, 0, 69, 0
2, 3051960, Note_on_c, 0, 67, 100
2, 3052080, Note_on_c, 0, 67, 0
2, 3052080, Note_on_c, 0, 66, 100
2, 3052200, Note_on_c, 0, 66, 0
2, 3052200, Note_on_c, 0, 71, 100
2, 3052320, Note_on_c, 0, 71, 0
2, 3052320, Note_on_c, 0, 67, 100
2, 3052560, Note_on_c, 0, 67, 0
2, 3052560, Note_on_c, 0, 71, 100
2, 3052800, Note_on_c, 0, 71, 0
2, 3052800, Note_on_c, 0, 74, 100
2, 3053040, Note_on_c, 0, 74, 0
2, 3053040, Note_on_c, 0, 79, 100
2, 3053280, Note_on_c, 0, 79, 0
2, 3053280, Note_on_c, 0, 84, 100
2, 3053760, Note_on_c, 0, 84, 0
2, 3053760, Note_on_c, 0, 83, 100
2, 3054360, Note_on_c, 0, 83, 0
2, 3054360, Note_on_c, 0, 81, 100
2, 3054480, Note_on_c, 0, 81, 0
2, 3054480, Note_on_c, 0, 84, 100
2, 3054600, Note_on_c, 0, 84, 0
2, 3054600, Note_on_c, 0, 83, 100
2, 3054720, Note_on_c, 0, 83, 0
2, 3054720, Note_on_c, 0, 81, 100
2, 3054840, Note_on_c, 0, 81, 0
2, 3054840, Note_on_c, 0, 79, 100
2, 3054960, Note_on_c, 0, 79, 0
2, 3054960, Note_on_c, 0, 78, 100
2, 3055080, Note_on_c, 0, 78, 0
2, 3055080, Note_on_c, 0, 79, 100
2, 3055200, Note_on_c, 0, 79, 0
2, 3055200, Note_on_c, 0, 71, 100
2, 3056160, Note_on_c, 0, 71, 0
2, 3056160, Note_on_c, 0, 72, 100
2, 3057000, Note_on_c, 0, 72, 0
2, 3057000, Note_on_c, 0, 74, 100
2, 3057120, Note_on_c, 0, 74, 0
2, 3057120, Note_on_c, 0, 72, 100
2, 3057240, Note_on_c, 0, 72, 0
2, 3057240, Note_on_c, 0, 74, 100
2, 3057360, Note_on_c, 0, 74, 0
2, 3057360, Note_on_c, 0, 76, 100
2, 3057480, Note_on_c, 0, 76, 0
2, 3057480, Note_on_c, 0, 69, 100
2, 3057600, Note_on_c, 0, 69, 0
2, 3057600, Note_on_c, 0, 71, 100
2, 3058440, Note_on_c, 0, 71, 0
2, 3058440, Note_on_c, 0, 72, 100
2, 3058560, Note_on_c, 0, 72, 0
2, 3058560, Note_on_c, 0, 71, 100
2, 3058680, Note_on_c, 0, 71, 0
2, 3058680, Note_on_c, 0, 72, 100
2, 3058800, Note_on_c, 0, 72, 0
2, 3058800, Note_on_c, 0, 74, 100
2, 3058920, Note_on_c, 0, 74, 0
2, 3058920, Note_on_c, 0, 67, 100
2, 3059040, Note_on_c, 0, 67, 0
2, 3059040, Note_on_c, 0, 79, 100
2, 3059760, Note_on_c, 0, 79, 0
2, 3059760, Note_on_c, 0, 81, 100
2, 3060720, Note_on_c, 0, 81, 0
2, 3060720, Note_on_c, 0, 79, 100
2, 3060840, Note_on_c, 0, 79, 0
2, 3060840, Note_on_c, 0, 78, 100
2, 3060960, Note_on_c, 0, 78, 0
2, 3060960, Note_on_c, 0, 79, 100
2, 3061080, Note_on_c, 0, 79, 0
2, 3061080, Note_on_c, 0, 81, 100
2, 3061200, Note_on_c, 0, 81, 0
2, 3061200, Note_on_c, 0, 74, 100
2, 3062160, Note_on_c, 0, 74, 0
2, 3062160, Note_on_c, 0, 72, 100
2, 3062280, Note_on_c, 0, 72, 0
2, 3062280, Note_on_c, 0, 71, 100
2, 3062400, Note_on_c, 0, 71, 0
2, 3062400, Note_on_c, 0, 69, 100
2, 3062520, Note_on_c, 0, 69, 0
2, 3062520, Note_on_c, 0, 71, 100
2, 3062640, Note_on_c, 0, 71, 0
2, 3062640, Note_on_c, 0, 72, 100
2, 3062880, Note_on_c, 0, 72, 0
2, 3062880, Note_on_c, 0, 71, 100
2, 3063000, Note_on_c, 0, 71, 0
2, 3063000, Note_on_c, 0, 69, 100
2, 3063120, Note_on_c, 0, 69, 0
2, 3063120, Note_on_c, 0, 71, 100
2, 3063240, Note_on_c, 0, 71, 0
2, 3063240, Note_on_c, 0, 67, 100
2, 3063360, Note_on_c, 0, 67, 0
2, 3063360, Note_on_c, 0, 76, 100
2, 3063600, Note_on_c, 0, 76, 0
2, 3063600, Note_on_c, 0, 74, 100
2, 3063840, Note_on_c, 0, 74, 0
2, 3063840, Note_on_c, 0, 72, 100
2, 3064080, Note_on_c, 0, 72, 0
2, 3064080, Note_on_c, 0, 78, 100
2, 3064320, Note_on_c, 0, 78, 0
2, 3064320, Note_on_c, 0, 81, 100
2, 3064560, Note_on_c, 0, 81, 0
2, 3064560, Note_on_c, 0, 71, 100
2, 3064800, Note_on_c, 0, 71, 0
2, 3064800, Note_on_c, 0, 79, 100
2, 3065520, Note_on_c, 0, 79, 0
2, 3065520, Note_on_c, 0, 78, 100
2, 3066000, Note_on_c, 0, 78, 0
2, 3066000, Note_on_c, 0, 83, 100
2, 3066720, Note_on_c, 0, 83, 0
2, 3066720, Note_on_c, 0, 81, 100
2, 3066960, Note_on_c, 0, 81, 0
2, 3066960, Note_on_c, 0, 74, 100
2, 3067440, Note_on_c, 0, 74, 0
2, 3067440, Note_on_c, 0, 76, 100
2, 3067800, Note_on_c, 0, 76, 0
2, 3067800, Note_on_c, 0, 74, 100
2, 3067920, Note_on_c, 0, 74, 0
2, 3067920, Note_on_c, 0, 72, 100
2, 3068040, Note_on_c, 0, 72, 0
2, 3068040, Note_on_c, 0, 71, 100
2, 3068160, Note_on_c, 0, 71, 0
2, 3068160, Note_on_c, 0, 76, 100
2, 3068400, Note_on_c, 0, 76, 0
2, 3068400, Note_on_c, 0, 71, 100
2, 3068640, Note_on_c, 0, 71, 0
2, 3068640, Note_on_c, 0, 74, 100
2, 3068880, Note_on_c, 0, 74, 0
2, 3068880, Note_on_c, 0, 73, 100
2, 3069120, Note_on_c, 0, 73, 0
2, 3069120, Note_on_c, 0, 74, 100
2, 3069360, Note_on_c, 0, 74, 0
2, 3069360, Note_on_c, 0, 76, 100
2, 3069600, Note_on_c, 0, 76, 0
2, 3069600, Note_on_c, 0, 73, 100
2, 3070080, Note_on_c, 0, 73, 0
2, 3070080, Note_on_c, 0, 69, 100
2, 3070320, Note_on_c, 0, 69, 0
2, 3070320, Note_on_c, 0, 74, 100
2, 3071040, Note_on_c, 0, 74, 0
2, 3071040, Note_on_c, 0, 67, 100
2, 3071280, Note_on_c, 0, 67, 0
2, 3071280, Note_on_c, 0, 66, 100
2, 3072240, Note_on_c, 0, 66, 0
2, 3072240, Note_on_c, 0, 67, 100
2, 3072480, Note_on_c, 0, 67, 0
2, 3072480, Note_on_c, 0, 64, 100
2, 3072720, Note_on_c, 0, 64, 0
2, 3072720, Note_on_c, 0, 69, 100
2, 3072960, Note_on_c, 0, 69, 0
2, 3072960, Note_on_c, 0, 67, 100
2, 3073080, Note_on_c, 0, 67, 0
2, 3073080, Note_on_c, 0, 66, 100
2, 3073200, Note_on_c, 0, 66, 0
2, 3073200, Note_on_c, 0, 64, 100
2, 3073320, Note_on_c, 0, 64, 0
2, 3073320, Note_on_c, 0, 62, 100
2, 3073440, Note_on_c, 0, 62, 0
2, 3073440, Note_on_c, 0, 64, 100
2, 3073680, Note_on_c, 0, 64, 0
2, 3073680, Note_on_c, 0, 66, 100
2, 3073800, Note_on_c, 0, 66, 0
2, 3073800, Note_on_c, 0, 67, 100
2, 3073920, Note_on_c, 0, 67, 0
2, 3073920, Note_on_c, 0, 69, 100
2, 3074040, Note_on_c, 0, 69, 0
2, 3074040, Note_on_c, 0, 71, 100
2, 3074160, Note_on_c, 0, 71, 0
2, 3074160, Note_on_c, 0, 74, 100
2, 3074400, Note_on_c, 0, 74, 0
2, 3074400, Note_on_c, 0, 73, 100
2, 3074640, Note_on_c, 0, 73, 0
2, 3074640, Note_on_c, 0, 74, 100
2, 3074880, Note_on_c, 0, 74, 0
2, 3074880, Note_on_c, 0, 73, 100
2, 3075840, Note_on_c, 0, 73, 0
2, 3075840, Note_on_c, 0, 74, 100
2, 3076320, Note_on_c, 0, 74, 0
2, 3076320, Note_on_c, 0, 69, 100
2, 3077160, Note_on_c, 0, 69, 0
2, 3077160, Note_on_c, 0, 67, 100
2, 3077280, Note_on_c, 0, 67, 0
2, 3077280, Note_on_c, 0, 66, 100
2, 3077400, Note_on_c, 0, 66, 0
2, 3077400, Note_on_c, 0, 67, 100
2, 3077520, Note_on_c, 0, 67, 0
2, 3077520, Note_on_c, 0, 64, 100
2, 3077640, Note_on_c, 0, 64, 0
2, 3077640, Note_on_c, 0, 66, 100
2, 3077760, Note_on_c, 0, 66, 0
2, 3077760, Note_on_c, 0, 71, 100
2, 3079200, Note_on_c, 0, 71, 0
2, 3079200, Note_on_c, 0, 72, 100
2, 3080040, Note_on_c, 0, 72, 0
2, 3080040, Note_on_c, 0, 74, 100
2, 3080160, Note_on_c, 0, 74, 0
2, 3080160, Note_on_c, 0, 72, 100
2, 3080280, Note_on_c, 0, 72, 0
2, 3080280, Note_on_c, 0, 74, 100
2, 3080400, Note_on_c, 0, 74, 0
2, 3080400, Note_on_c, 0, 76, 100
2, 3080520, Note_on_c, 0, 76, 0
2, 3080520, Note_on_c, 0, 69, 100
2, 3080640, Note_on_c, 0, 69, 0
2, 3080640, Note_on_c, 0, 71, 100
2, 3081480, Note_on_c, 0, 71, 0
2, 3081480, Note_on_c, 0, 72, 100
2, 3081600, Note_on_c, 0, 72, 0
2, 3081600, Note_on_c, 0, 71, 100
2, 3081720, Note_on_c, 0, 71, 0
2, 3081720, Note_on_c, 0, 72, 100
2, 3081840, Note_on_c, 0, 72, 0
2, 3081840, Note_on_c, 0, 74, 100
2, 3081960, Note_on_c, 0, 74, 0
2, 3081960, Note_on_c, 0, 67, 100
2, 3082080, Note_on_c, 0, 67, 0
2, 3082080, Note_on_c, 0, 79, 100
2, 3082800, Note_on_c, 0, 79, 0
2, 3082800, Note_on_c, 0, 81, 100
2, 3083760, Note_on_c, 0, 81, 0
2, 3083760, Note_on_c, 0, 79, 100
2, 3083880, Note_on_c, 0, 79, 0
2, 3083880, Note_on_c, 0, 78, 100
2, 3084000, Note_on_c, 0, 78, 0
2, 3084000, Note_on_c, 0, 79, 100
2, 3084120, Note_on_c, 0, 79, 0
2, 3084120, Note_on_c, 0, 81, 100
2, 3084240, Note_on_c, 0, 81, 0
2, 3084240, Note_on_c, 0, 74, 100
2, 3085200, Note_on_c, 0, 74, 0
2, 3085200, Note_on_c, 0, 72, 100
2, 3085320, Note_on_c, 0, 72, 0
2, 3085320, Note_on_c, 0, 71, 100
2, 3085440, Note_on_c, 0, 71, 0
2, 3085440, Note_on_c, 0, 69, 100
2, 3085560, Note_on_c, 0, 69, 0
2, 3085560, Note_on_c, 0, 71, 100
2, 3085680, Note_on_c, 0, 71, 0
2, 3085680, Note_on_c, 0, 72, 100
2, 3085920, Note_on_c, 0, 72, 0
2, 3085920, Note_on_c, 0, 71, 100
2, 3086040, Note_on_c, 0, 71, 0
2, 3086040, Note_on_c, 0, 69, 100
2, 3086160, Note_on_c, 0, 69, 0
2, 3086160, Note_on_c, 0, 71, 100
2, 3086280, Note_on_c, 0, 71, 0
2, 3086280, Note_on_c, 0, 67, 100
2, 3086400, Note_on_c, 0, 67, 0
2, 3086400, Note_on_c, 0, 76, 100
2, 3086640, Note_on_c, 0, 76, 0
2, 3086640, Note_on_c, 0, 74, 100
2, 3086880, Note_on_c, 0, 74, 0
2, 3086880, Note_on_c, 0, 72, 100
2, 3087120, Note_on_c, 0, 72, 0
2, 3087120, Note_on_c, 0, 78, 100
2, 3087360, Note_on_c, 0, 78, 0
2, 3087360, Note_on_c, 0, 81, 100
2, 3087600, Note_on_c, 0, 81, 0
2, 3087600, Note_on_c, 0, 71, 100
2, 3087840, Note_on_c, 0, 71, 0
2, 3087840, Note_on_c, 0, 79, 100
2, 3088560, Note_on_c, 0, 79, 0
2, 3088560, Note_on_c, 0, 78, 100
2, 3089040, Note_on_c, 0, 78, 0
2, 3089040, Note_on_c, 0, 83, 100
2, 3089760, Note_on_c, 0, 83, 0
2, 3089760, Note_on_c, 0, 81, 100
2, 3090000, Note_on_c, 0, 81, 0
2, 3090000, Note_on_c, 0, 74, 100
2, 3090480, Note_on_c, 0, 74, 0
2, 3090480, Note_on_c, 0, 76, 100
2, 3090840, Note_on_c, 0, 76, 0
2, 3090840, Note_on_c, 0, 74, 100
2, 3090960, Note_on_c, 0, 74, 0
2, 3090960, Note_on_c, 0, 72, 100
2, 3091080, Note_on_c, 0, 72, 0
2, 3091080, Note_on_c, 0, 71, 100
2, 3091200, Note_on_c, 0, 71, 0
2, 3091200, Note_on_c, 0, 76, 100
2, 3091440, Note_on_c, 0, 76, 0
2, 3091440, Note_on_c, 0, 71, 100
2, 3091680, Note_on_c, 0, 71, 0
2, 3091680, Note_on_c, 0, 74, 100
2, 3091920, Note_on_c, 0, 74, 0
2, 3091920, Note_on_c, 0, 73, 100
2, 3092160, Note_on_c, 0, 73, 0
2, 3092160, Note_on_c, 0, 74, 100
2, 3092400, Note_on_c, 0, 74, 0
2, 3092400, Note_on_c, 0, 76, 100
2, 3092640, Note_on_c, 0, 76, 0
2, 3092640, Note_on_c, 0, 73, 100
2, 3093120, Note_on_c, 0, 73, 0
2, 3093120, Note_on_c, 0, 69, 100
2, 3093360, Note_on_c, 0, 69, 0
2, 3093360, Note_on_c, 0, 74, 100
2, 3094080, Note_on_c, 0, 74, 0
2, 3094080, Note_on_c, 0, 67, 100
2, 3094320, Note_on_c, 0, 67, 0
2, 3094320, Note_on_c, 0, 66, 100
2, 3095280, Note_on_c, 0, 66, 0
2, 3095280, Note_on_c, 0, 67, 100
2, 3095520, Note_on_c, 0, 67, 0
2, 3095520, Note_on_c, 0, 64, 100
2, 3095760, Note_on_c, 0, 64, 0
2, 3095760, Note_on_c, 0, 69, 100
2, 3096000, Note_on_c, 0, 69, 0
2, 3096000, Note_on_c, 0, 67, 100
2, 3096120, Note_on_c, 0, 67, 0
2, 3096120, Note_on_c, 0, 66, 100
2, 3096240, Note_on_c, 0, 66, 0
2, 3096240, Note_on_c, 0, 64, 100
2, 3096360, Note_on_c, 0, 64, 0
2, 3096360, Note_on_c, 0, 62, 100
2, 3096480, Note_on_c, 0, 62, 0
2, 3096480, Note_on_c, 0, 64, 100
2, 3096720, Note_on_c, 0, 64, 0
2, 3096720, Note_on_c, 0, 66, 100
2, 3096840, Note_on_c, 0, 66, 0
2, 3096840, Note_on_c, 0, 67, 100
2, 3096960, Note_on_c, 0, 67, 0
2, 3096960, Note_on_c, 0, 69, 100
2, 3097080, Note_on_c, 0, 69, 0
2, 3097080, Note_on_c, 0, 71, 100
2, 3097200, Note_on_c, 0, 71, 0
2, 3097200, Note_on_c, 0, 74, 100
2, 3097440, Note_on_c, 0, 74, 0
2, 3097440, Note_on_c, 0, 73, 100
2, 3097680, Note_on_c, 0, 73, 0
2, 3097680, Note_on_c, 0, 74, 100
2, 3097920, Note_on_c, 0, 74, 0
2, 3097920, Note_on_c, 0, 73, 100
2, 3098880, Note_on_c, 0, 73, 0
2, 3098880, Note_on_c, 0, 74, 100
2, 3099360, Note_on_c, 0, 74, 0
2, 3099360, Note_on_c, 0, 69, 100
2, 3100200, Note_on_c, 0, 69, 0
2, 3100200, Note_on_c, 0, 67, 100
2, 3100320, Note_on_c, 0, 67, 0
2, 3100320, Note_on_c, 0, 66, 100
2, 3100440, Note_on_c, 0, 66, 0
2, 3100440, Note_on_c, 0, 67, 100
2, 3100560, Note_on_c, 0, 67, 0
2, 3100560, Note_on_c, 0, 64, 100
2, 3100680, Note_on_c, 0, 64, 0
2, 3100680, Note_on_c, 0, 66, 100
2, 3100800, Note_on_c, 0, 66, 0
2, 3100800, Note_on_c, 0, 81, 100
2, 3102960, Note_on_c, 0, 81, 0
2, 3102960, Note_on_c, 0, 83, 100
2, 3103800, Note_on_c, 0, 83, 0
2, 3103800, Note_on_c, 0, 84, 100
2, 3103920, Note_on_c, 0, 84, 0
2, 3103920, Note_on_c, 0, 81, 100
2, 3104040, Note_on_c, 0, 81, 0
2, 3104040, Note_on_c, 0, 83, 100
2, 3104160, Note_on_c, 0, 83, 0
2, 3104160, Note_on_c, 0, 84, 100
2, 3104280, Note_on_c, 0, 84, 0
2, 3104280, Note_on_c, 0, 83, 100
2, 3104400, Note_on_c, 0, 83, 0
2, 3104400, Note_on_c, 0, 81, 100
2, 3104520, Note_on_c, 0, 81, 0
2, 3104520, Note_on_c, 0, 79, 100
2, 3104640, Note_on_c, 0, 79, 0
2, 3104640, Note_on_c, 0, 78, 100
2, 3104760, Note_on_c, 0, 78, 0
2, 3104760, Note_on_c, 0, 76, 100
2, 3104880, Note_on_c, 0, 76, 0
2, 3104880, Note_on_c, 0, 75, 100
2, 3105000, Note_on_c, 0, 75, 0
2, 3105000, Note_on_c, 0, 76, 100
2, 3105120, Note_on_c, 0, 76, 0
2, 3105120, Note_on_c, 0, 78, 100
2, 3105360, Note_on_c, 0, 78, 0
2, 3105360, Note_on_c, 0, 79, 100
2, 3105600, Note_on_c, 0, 79, 0
2, 3105600, Note_on_c, 0, 78, 100
2, 3106080, Note_on_c, 0, 78, 0
2, 3106080, Note_on_c, 0, 76, 100
2, 3106320, Note_on_c, 0, 76, 0
2, 3106320, Note_on_c, 0, 75, 100
2, 3106560, Note_on_c, 0, 75, 0
2, 3106560, Note_on_c, 0, 69, 100
2, 3108720, Note_on_c, 0, 69, 0
2, 3108720, Note_on_c, 0, 71, 100
2, 3109680, Note_on_c, 0, 71, 0
2, 3109680, Note_on_c, 0, 69, 100
2, 3109800, Note_on_c, 0, 69, 0
2, 3109800, Note_on_c, 0, 67, 100
2, 3109920, Note_on_c, 0, 67, 0
2, 3109920, Note_on_c, 0, 66, 100
2, 3110040, Note_on_c, 0, 66, 0
2, 3110040, Note_on_c, 0, 67, 100
2, 3110160, Note_on_c, 0, 67, 0
2, 3110160, Note_on_c, 0, 69, 100
2, 3110280, Note_on_c, 0, 69, 0
2, 3110280, Note_on_c, 0, 71, 100
2, 3110400, Note_on_c, 0, 71, 0
2, 3110400, Note_on_c, 0, 67, 100
2, 3110520, Note_on_c, 0, 67, 0
2, 3110520, Note_on_c, 0, 69, 100
2, 3110640, Note_on_c, 0, 69, 0
2, 3110640, Note_on_c, 0, 71, 100
2, 3110760, Note_on_c, 0, 71, 0
2, 3110760, Note_on_c, 0, 64, 100
2, 3110880, Note_on_c, 0, 64, 0
2, 3110880, Note_on_c, 0, 66, 100
2, 3111120, Note_on_c, 0, 66, 0
2, 3111120, Note_on_c, 0, 67, 100
2, 3111240, Note_on_c, 0, 67, 0
2, 3111240, Note_on_c, 0, 69, 100
2, 3111360, Note_on_c, 0, 69, 0
2, 3111360, Note_on_c, 0, 71, 100
2, 3111480, Note_on_c, 0, 71, 0
2, 3111480, Note_on_c, 0, 72, 100
2, 3111600, Note_on_c, 0, 72, 0
2, 3111600, Note_on_c, 0, 64, 100
2, 3111840, Note_on_c, 0, 64, 0
2, 3111840, Note_on_c, 0, 63, 100
2, 3112080, Note_on_c, 0, 63, 0
2, 3112080, Note_on_c, 0, 64, 100
2, 3112320, Note_on_c, 0, 64, 0
2, 3112320, Note_on_c, 0, 76, 100
2, 3113760, Note_on_c, 0, 76, 0
2, 3113760, Note_on_c, 0, 78, 100
2, 3114600, Note_on_c, 0, 78, 0
2, 3114600, Note_on_c, 0, 79, 100
2, 3114720, Note_on_c, 0, 79, 0
2, 3114720, Note_on_c, 0, 76, 100
2, 3114840, Note_on_c, 0, 76, 0
2, 3114840, Note_on_c, 0, 78, 100
2, 3114960, Note_on_c, 0, 78, 0
2, 3114960, Note_on_c, 0, 79, 100
2, 3115080, Note_on_c, 0, 79, 0
2, 3115080, Note_on_c, 0, 72, 100
2, 3115200, Note_on_c, 0, 72, 0
2, 3115200, Note_on_c, 0, 74, 100
2, 3115320, Note_on_c, 0, 74, 0
2, 3115320, Note_on_c, 0, 76, 100
2, 3115440, Note_on_c, 0, 76, 0
2, 3115440, Note_on_c, 0, 72, 100
2, 3115560, Note_on_c, 0, 72, 0
2, 3115560, Note_on_c, 0, 74, 100
2, 3115680, Note_on_c, 0, 74, 0
2, 3115680, Note_on_c, 0, 76, 100
2, 3115800, Note_on_c, 0, 76, 0
2, 3115800, Note_on_c, 0, 69, 100
2, 3115920, Note_on_c, 0, 69, 0
2, 3115920, Note_on_c, 0, 71, 100
2, 3116040, Note_on_c, 0, 71, 0
2, 3116040, Note_on_c, 0, 72, 100
2, 3116160, Note_on_c, 0, 72, 0
2, 3116160, Note_on_c, 0, 69, 100
2, 3116280, Note_on_c, 0, 69, 0
2, 3116280, Note_on_c, 0, 71, 100
2, 3116400, Note_on_c, 0, 71, 0
2, 3116400, Note_on_c, 0, 72, 100
2, 3116520, Note_on_c, 0, 72, 0
2, 3116520, Note_on_c, 0, 71, 100
2, 3116640, Note_on_c, 0, 71, 0
2, 3116640, Note_on_c, 0, 72, 100
2, 3116760, Note_on_c, 0, 72, 0
2, 3116760, Note_on_c, 0, 74, 100
2, 3116880, Note_on_c, 0, 74, 0
2, 3116880, Note_on_c, 0, 71, 100
2, 3117000, Note_on_c, 0, 71, 0
2, 3117000, Note_on_c, 0, 72, 100
2, 3117120, Note_on_c, 0, 72, 0
2, 3117120, Note_on_c, 0, 74, 100
2, 3117240, Note_on_c, 0, 74, 0
2, 3117240, Note_on_c, 0, 67, 100
2, 3117360, Note_on_c, 0, 67, 0
2, 3117360, Note_on_c, 0, 79, 100
2, 3118320, Note_on_c, 0, 79, 0
2, 3118320, Note_on_c, 0, 78, 100
2, 3119040, Note_on_c, 0, 78, 0
2, 3119040, Note_on_c, 0, 81, 100
2, 3119280, Note_on_c, 0, 81, 0
2, 3119280, Note_on_c, 0, 79, 100
2, 3119760, Note_on_c, 0, 79, 0
2, 3119760, Note_on_c, 0, 77, 100
2, 3120000, Note_on_c, 0, 77, 0
2, 3120000, Note_on_c, 0, 76, 100
2, 3120240, Note_on_c, 0, 76, 0
2, 3120240, Note_on_c, 0, 74, 100
2, 3120360, Note_on_c, 0, 74, 0
2, 3120360, Note_on_c, 0, 72, 100
2, 3120480, Note_on_c, 0, 72, 0
2, 3120480, Note_on_c, 0, 76, 100
2, 3120600, Note_on_c, 0, 76, 0
2, 3120600, Note_on_c, 0, 74, 100
2, 3120720, Note_on_c, 0, 74, 0
2, 3120720, Note_on_c, 0, 72, 100
2, 3120840, Note_on_c, 0, 72, 0
2, 3120840, Note_on_c, 0, 71, 100
2, 3120960, Note_on_c, 0, 71, 0
2, 3120960, Note_on_c, 0, 83, 100
2, 3121440, Note_on_c, 0, 83, 0
2, 3121440, Note_on_c, 0, 81, 100
2, 3121680, Note_on_c, 0, 81, 0
2, 3121680, Note_on_c, 0, 84, 100
2, 3122160, Note_on_c, 0, 84, 0
2, 3122160, Note_on_c, 0, 83, 100
2, 3122400, Note_on_c, 0, 83, 0
2, 3122400, Note_on_c, 0, 86, 100
2, 3122880, Note_on_c, 0, 86, 0
2, 3122880, Note_on_c, 0, 79, 100
2, 3123120, Note_on_c, 0, 79, 0
2, 3123120, Note_on_c, 0, 81, 100
2, 3123360, Note_on_c, 0, 81, 0
2, 3123360, Note_on_c, 0, 78, 100
2, 3123600, Note_on_c, 0, 78, 0
2, 3123600, Note_on_c, 0, 79, 100
2, 3123840, Note_on_c, 0, 79, 0
2, 3123840, Note_on_c, 0, 81, 100
2, 3126000, Note_on_c, 0, 81, 0
2, 3126000, Note_on_c, 0, 83, 100
2, 3126840, Note_on_c, 0, 83, 0
2, 3126840, Note_on_c, 0, 84, 100
2, 3126960, Note_on_c, 0, 84, 0
2, 3126960, Note_on_c, 0, 81, 100
2, 3127080, Note_on_c, 0, 81, 0
2, 3127080, Note_on_c, 0, 83, 100
2, 3127200, Note_on_c, 0, 83, 0
2, 3127200, Note_on_c, 0, 84, 100
2, 3127320, Note_on_c, 0, 84, 0
2, 3127320, Note_on_c, 0, 83, 100
2, 3127440, Note_on_c, 0, 83, 0
2, 3127440, Note_on_c, 0, 81, 100
2, 3127560, Note_on_c, 0, 81, 0
2, 3127560, Note_on_c, 0, 79, 100
2, 3127680, Note_on_c, 0, 79, 0
2, 3127680, Note_on_c, 0, 78, 100
2, 3127800, Note_on_c, 0, 78, 0
2, 3127800, Note_on_c, 0, 76, 100
2, 3127920, Note_on_c, 0, 76, 0
2, 3127920, Note_on_c, 0, 75, 100
2, 3128040, Note_on_c, 0, 75, 0
2, 3128040, Note_on_c, 0, 76, 100
2, 3128160, Note_on_c, 0, 76, 0
2, 3128160, Note_on_c, 0, 78, 100
2, 3128400, Note_on_c, 0, 78, 0
2, 3128400, Note_on_c, 0, 79, 100
2, 3128640, Note_on_c, 0, 79, 0
2, 3128640, Note_on_c, 0, 78, 100
2, 3129120, Note_on_c, 0, 78, 0
2, 3129120, Note_on_c, 0, 76, 100
2, 3129360, Note_on_c, 0, 76, 0
2, 3129360, Note_on_c, 0, 75, 100
2, 3129600, Note_on_c, 0, 75, 0
2, 3129600, Note_on_c, 0, 69, 100
2, 3131760, Note_on_c, 0, 69, 0
2, 3131760, Note_on_c, 0, 71, 100
2, 3132720, Note_on_c, 0, 71, 0
2, 3132720, Note_on_c, 0, 69, 100
2, 3132840, Note_on_c, 0, 69, 0
2, 3132840, Note_on_c, 0, 67, 100
2, 3132960, Note_on_c, 0, 67, 0
2, 3132960, Note_on_c, 0, 66, 100
2, 3133080, Note_on_c, 0, 66, 0
2, 3133080, Note_on_c, 0, 67, 100
2, 3133200, Note_on_c, 0, 67, 0
2, 3133200, Note_on_c, 0, 69, 100
2, 3133320, Note_on_c, 0, 69, 0
2, 3133320, Note_on_c, 0, 71, 100
2, 3133440, Note_on_c, 0, 71, 0
2, 3133440, Note_on_c, 0, 67, 100
2, 3133560, Note_on_c, 0, 67, 0
2, 3133560, Note_on_c, 0, 69, 100
2, 3133680, Note_on_c, 0, 69, 0
2, 3133680, Note_on_c, 0, 71, 100
2, 3133800, Note_on_c, 0, 71, 0
2, 3133800, Note_on_c, 0, 64, 100
2, 3133920, Note_on_c, 0, 64, 0
2, 3133920, Note_on_c, 0, 66, 100
2, 3134160, Note_on_c, 0, 66, 0
2, 3134160, Note_on_c, 0, 67, 100
2, 3134280, Note_on_c, 0, 67, 0
2, 3134280, Note_on_c, 0, 69, 100
2, 3134400, Note_on_c, 0, 69, 0
2, 3134400, Note_on_c, 0, 71, 100
2, 3134520, Note_on_c, 0, 71, 0
2, 3134520, Note_on_c, 0, 72, 100
2, 3134640, Note_on_c, 0, 72, 0
2, 3134640, Note_on_c, 0, 64, 100
2, 3134880, Note_on_c, 0, 64, 0
2, 3134880, Note_on_c, 0, 63, 100
2, 3135120, Note_on_c, 0, 63, 0
2, 3135120, Note_on_c, 0, 64, 100
2, 3135360, Note_on_c, 0, 64, 0
2, 3135360, Note_on_c, 0, 76, 100
2, 3136800, Note_on_c, 0, 76, 0
2, 3136800, Note_on_c, 0, 78, 100
2, 3137640, Note_on_c, 0, 78, 0
2, 3137640, Note_on_c, 0, 79, 100
2, 3137760, Note_on_c, 0, 79, 0
2, 3137760, Note_on_c, 0, 76, 100
2, 3137880, Note_on_c, 0, 76, 0
2, 3137880, Note_on_c, 0, 78, 100
2, 3138000, Note_on_c, 0, 78, 0
2, 3138000, Note_on_c, 0, 79, 100
2, 3138120, Note_on_c, 0, 79, 0
2, 3138120, Note_on_c, 0, 72, 100
2, 3138240, Note_on_c, 0, 72, 0
2, 3138240, Note_on_c, 0, 74, 100
2, 3138360, Note_on_c, 0, 74, 0
2, 3138360, Note_on_c, 0, 76, 100
2, 3138480, Note_on_c, 0, 76, 0
2, 3138480, Note_on_c, 0, 72, 100
2, 3138600, Note_on_c, 0, 72, 0
2, 3138600, Note_on_c, 0, 74, 100
2, 3138720, Note_on_c, 0, 74, 0
2, 3138720, Note_on_c, 0, 76, 100
2, 3138840, Note_on_c, 0, 76, 0
2, 3138840, Note_on_c, 0, 69, 100
2, 3138960, Note_on_c, 0, 69, 0
2, 3138960, Note_on_c, 0, 71, 100
2, 3139080, Note_on_c, 0, 71, 0
2, 3139080, Note_on_c, 0, 72, 100
2, 3139200, Note_on_c, 0, 72, 0
2, 3139200, Note_on_c, 0, 69, 100
2, 3139320, Note_on_c, 0, 69, 0
2, 3139320, Note_on_c, 0, 71, 100
2, 3139440, Note_on_c, 0, 71, 0
2, 3139440, Note_on_c, 0, 72, 100
2, 3139560, Note_on_c, 0, 72, 0
2, 3139560, Note_on_c, 0, 71, 100
2, 3139680, Note_on_c, 0, 71, 0
2, 3139680, Note_on_c, 0, 72, 100
2, 3139800, Note_on_c, 0, 72, 0
2, 3139800, Note_on_c, 0, 74, 100
2, 3139920, Note_on_c, 0, 74, 0
2, 3139920, Note_on_c, 0, 71, 100
2, 3140040, Note_on_c, 0, 71, 0
2, 3140040, Note_on_c, 0, 72, 100
2, 3140160, Note_on_c, 0, 72, 0
2, 3140160, Note_on_c, 0, 74, 100
2, 3140280, Note_on_c, 0, 74, 0
2, 3140280, Note_on_c, 0, 67, 100
2, 3140400, Note_on_c, 0, 67, 0
2, 3140400, Note_on_c, 0, 79, 100
2, 3141360, Note_on_c, 0, 79, 0
2, 3141360, Note_on_c, 0, 78, 100
2, 3142080, Note_on_c, 0, 78, 0
2, 3142080, Note_on_c, 0, 81, 100
2, 3142320, Note_on_c, 0, 81, 0
2, 3142320, Note_on_c, 0, 79, 100
2, 3142800, Note_on_c, 0, 79, 0
2, 3142800, Note_on_c, 0, 77, 100
2, 3143040, Note_on_c, 0, 77, 0
2, 3143040, Note_on_c, 0, 76, 100
2, 3143280, Note_on_c, 0, 76, 0
2, 3143280, Note_on_c, 0, 74, 100
2, 3143400, Note_on_c, 0, 74, 0
2, 3143400, Note_on_c, 0, 72, 100
2, 3143520, Note_on_c, 0, 72, 0
2, 3143520, Note_on_c, 0, 76, 100
2, 3143640, Note_on_c, 0, 76, 0
2, 3143640, Note_on_c, 0, 74, 100
2, 3143760, Note_on_c, 0, 74, 0
2, 3143760, Note_on_c, 0, 72, 100
2, 3143880, Note_on_c, 0, 72, 0
2, 3143880, Note_on_c, 0, 71, 100
2, 3144000, Note_on_c, 0, 71, 0
2, 3144000, Note_on_c, 0, 83, 100
2, 3144480, Note_on_c, 0, 83, 0
2, 3144480, Note_on_c, 0, 81, 100
2, 3144720, Note_on_c, 0, 81, 0
2, 3144720, Note_on_c, 0, 84, 100
2, 3145200, Note_on_c, 0, 84, 0
2, 3145200, Note_on_c, 0, 83, 100
2, 3145440, Note_on_c, 0, 83, 0
2, 3145440, Note_on_c, 0, 86, 100
2, 3145920, Note_on_c, 0, 86, 0
2, 3145920, Note_on_c, 0, 79, 100
2, 3146160, Note_on_c, 0, 79, 0
2, 3146160, Note_on_c, 0, 81, 100
2, 3146400, Note_on_c, 0, 81, 0
2, 3146400, Note_on_c, 0, 78, 100
2, 3146640, Note_on_c, 0, 78, 0
2, 3146640, Note_on_c, 0, 79, 100
2, 3286560, Note_on_c, 0, 79, 0
2, 3286560, Note_on_c, 0, 78, 100
2, 3287520, Note_on_c, 0, 78, 0
2, 3287520, Note_on_c, 0, 76, 100
2, 3287640, Note_on_c, 0, 76, 0
2, 3287640, Note_on_c, 0, 74, 100
2, 3287760, Note_on_c, 0, 74, 0
2, 3287760, Note_on_c, 0, 72, 100
2, 3287880, Note_on_c, 0, 72, 0
2, 3287880, Note_on_c, 0, 71, 100
2, 3288000, Note_on_c, 0, 71, 0
2, 3288000, Note_on_c, 0, 69, 100
2, 3288960, Note_on_c, 0, 69, 0
2, 3288960, Note_on_c, 0, 67, 100
2, 3289080, Note_on_c, 0, 67, 0
2, 3289080, Note_on_c, 0, 66, 100
2, 3289200, Note_on_c, 0, 66, 0
2, 3289200, Note_on_c, 0, 64, 100
2, 3289320, Note_on_c, 0, 64, 0
2, 3289320, Note_on_c, 0, 62, 100
2, 3289440, Note_on_c, 0, 62, 0
2, 3289440, Note_on_c, 0, 60, 100
2, 3290400, Note_on_c, 0, 60, 0
2, 3290400, Note_on_c, 0, 59, 100
2, 3290520, Note_on_c, 0, 59, 0
2, 3290520, Note_on_c, 0, 57, 100
2, 3290640, Note_on_c, 0, 57, 0
2, 3290640, Note_on_c, 0, 55, 100
2, 3290760, Note_on_c, 0, 55, 0
2, 3290760, Note_on_c, 0, 57, 100
2, 3290880, Note_on_c, 0, 57, 0
2, 3290880, Note_on_c, 0, 55, 100
2, 3291720, Note_on_c, 0, 55, 0
2, 3291720, Note_on_c, 0, 59, 100
2, 3291840, Note_on_c, 0, 59, 0
2, 3291840, Note_on_c, 0, 57, 100
2, 3291960, Note_on_c, 0, 57, 0
2, 3291960, Note_on_c, 0, 55, 100
2, 3292080, Note_on_c, 0, 55, 0
2, 3292080, Note_on_c, 0, 54, 100
2, 3292200, Note_on_c, 0, 54, 0
2, 3292200, Note_on_c, 0, 55, 100
2, 3292320, Note_on_c, 0, 55, 0
2, 3292320, Note_on_c, 0, 67, 100
2, 3292560, Note_on_c, 0, 67, 0
2, 3292560, Note_on_c, 0, 66, 100
2, 3293280, Note_on_c, 0, 66, 0
2, 3293280, Note_on_c, 0, 64, 100
2, 3293400, Note_on_c, 0, 64, 0
2, 3293400, Note_on_c, 0, 62, 100
2, 3293520, Note_on_c, 0, 62, 0
2, 3293520, Note_on_c, 0, 60, 100
2, 3293640, Note_on_c, 0, 60, 0
2, 3293640, Note_on_c, 0, 59, 100
2, 3293760, Note_on_c, 0, 59, 0
2, 3293760, Note_on_c, 0, 62, 100
2, 3293880, Note_on_c, 0, 62, 0
2, 3293880, Note_on_c, 0, 67, 100
2, 3294000, Note_on_c, 0, 67, 0
2, 3294000, Note_on_c, 0, 69, 100
2, 3294120, Note_on_c, 0, 69, 0
2, 3294120, Note_on_c, 0, 70, 100
2, 3294240, Note_on_c, 0, 70, 0
2, 3294240, Note_on_c, 0, 69, 100
2, 3294720, Note_on_c, 0, 69, 0
2, 3294720, Note_on_c, 0, 67, 100
2, 3294840, Note_on_c, 0, 67, 0
2, 3294840, Note_on_c, 0, 66, 100
2, 3294960, Note_on_c, 0, 66, 0
2, 3294960, Note_on_c, 0, 64, 100
2, 3295080, Note_on_c, 0, 64, 0
2, 3295080, Note_on_c, 0, 62, 100
2, 3295200, Note_on_c, 0, 62, 0
2, 3295200, Note_on_c, 0, 61, 100
2, 3296040, Note_on_c, 0, 61, 0
2, 3296040, Note_on_c, 0, 59, 100
2, 3296160, Note_on_c, 0, 59, 0
2, 3296160, Note_on_c, 0, 62, 100
2, 3296280, Note_on_c, 0, 62, 0
2, 3296280, Note_on_c, 0, 61, 100
2, 3296400, Note_on_c, 0, 61, 0
2, 3296400, Note_on_c, 0, 59, 100
2, 3296520, Note_on_c, 0, 59, 0
2, 3296520, Note_on_c, 0, 61, 100
2, 3296640, Note_on_c, 0, 61, 0
2, 3296640, Note_on_c, 0, 59, 100
2, 3296760, Note_on_c, 0, 59, 0
2, 3296760, Note_on_c, 0, 57, 100
2, 3296880, Note_on_c, 0, 57, 0
2, 3296880, Note_on_c, 0, 55, 100
2, 3297000, Note_on_c, 0, 55, 0
2, 3297000, Note_on_c, 0, 54, 100
2, 3297120, Note_on_c, 0, 54, 0
2, 3297120, Note_on_c, 0, 52, 100
2, 3297240, Note_on_c, 0, 52, 0
2, 3297240, Note_on_c, 0, 54, 100
2, 3297360, Note_on_c, 0, 54, 0
2, 3297360, Note_on_c, 0, 79, 100
2, 3298080, Note_on_c, 0, 79, 0
2, 3298080, Note_on_c, 0, 78, 100
2, 3299040, Note_on_c, 0, 78, 0
2, 3299040, Note_on_c, 0, 76, 100
2, 3299160, Note_on_c, 0, 76, 0
2, 3299160, Note_on_c, 0, 74, 100
2, 3299280, Note_on_c, 0, 74, 0
2, 3299280, Note_on_c, 0, 72, 100
2, 3299400, Note_on_c, 0, 72, 0
2, 3299400, Note_on_c, 0, 71, 100
2, 3299520, Note_on_c, 0, 71, 0
2, 3299520, Note_on_c, 0, 69, 100
2, 3300480, Note_on_c, 0, 69, 0
2, 3300480, Note_on_c, 0, 67, 100
2, 3300600, Note_on_c, 0, 67, 0
2, 3300600, Note_on_c, 0, 66, 100
2, 3300720, Note_on_c, 0, 66, 0
2, 3300720, Note_on_c, 0, 64, 100
2, 3300840, Note_on_c, 0, 64, 0
2, 3300840, Note_on_c, 0, 62, 100
2, 3300960, Note_on_c, 0, 62, 0
2, 3300960, Note_on_c, 0, 60, 100
2, 3301920, Note_on_c, 0, 60, 0
2, 3301920, Note_on_c, 0, 59, 100
2, 3302040, Note_on_c, 0, 59, 0
2, 3302040, Note_on_c, 0, 57, 100
2, 3302160, Note_on_c, 0, 57, 0
2, 3302160, Note_on_c, 0, 55, 100
2, 3302280, Note_on_c, 0, 55, 0
2, 3302280, Note_on_c, 0, 57, 100
2, 3302400, Note_on_c, 0, 57, 0
2, 3302400, Note_on_c, 0, 55, 100
2, 3303240, Note_on_c, 0, 55, 0
2, 3303240, Note_on_c, 0, 59, 100
2, 3303360, Note_on_c, 0, 59, 0
2, 3303360, Note_on_c, 0, 57, 100
2, 3303480, Note_on_c, 0, 57, 0
2, 3303480, Note_on_c, 0, 55, 100
2, 3303600, Note_on_c, 0, 55, 0
2, 3303600, Note_on_c, 0, 54, 100
2, 3303720, Note_on_c, 0, 54, 0
2, 3303720, Note_on_c, 0, 55, 100
2, 3303840, Note_on_c, 0, 55, 0
2, 3303840, Note_on_c, 0, 67, 100
2, 3304080, Note_on_c, 0, 67, 0
2, 3304080, Note_on_c, 0, 66, 100
2, 3304800, Note_on_c, 0, 66, 0
2, 3304800, Note_on_c, 0, 64, 100
2, 3304920, Note_on_c, 0, 64, 0
2, 3304920, Note_on_c, 0, 62, 100
2, 3305040, Note_on_c, 0, 62, 0
2, 3305040, Note_on_c, 0, 60, 100
2, 3305160, Note_on_c, 0, 60, 0
2, 3305160, Note_on_c, 0, 59, 100
2, 3305280, Note_on_c, 0, 59, 0
2, 3305280, Note_on_c, 0, 62, 100
2, 3305400, Note_on_c, 0, 62, 0
2, 3305400, Note_on_c, 0, 67, 100
2, 3305520, Note_on_c, 0, 67, 0
2, 3305520, Note_on_c, 0, 69, 100
2, 3305640, Note_on_c, 0, 69, 0
2, 3305640, Note_on_c, 0, 70, 100
2, 3305760, Note_on_c, 0, 70, 0
2, 3305760, Note_on_c, 0, 69, 100
2, 3306240, Note_on_c, 0, 69, 0
2, 3306240, Note_on_c, 0, 67, 100
2, 3306360, Note_on_c, 0, 67, 0
2, 3306360, Note_on_c, 0, 66, 100
2, 3306480, Note_on_c, 0, 66, 0
2, 3306480, Note_on_c, 0, 64, 100
2, 3306600, Note_on_c, 0, 64, 0
2, 3306600, Note_on_c, 0, 62, 100
2, 3306720, Note_on_c, 0, 62, 0
2, 3306720, Note_on_c, 0, 61, 100
2, 3307560, Note_on_c, 0, 61, 0
2, 3307560, Note_on_c, 0, 59, 100
2, 3307680, Note_on_c, 0, 59, 0
2, 3307680, Note_on_c, 0, 62, 100
2, 3307800, Note_on_c, 0, 62, 0
2, 3307800, Note_on_c, 0, 61, 100
2, 3307920, Note_on_c, 0, 61, 0
2, 3307920, Note_on_c, 0, 59, 100
2, 3308040, Note_on_c, 0, 59, 0
2, 3308040, Note_on_c, 0, 61, 100
2, 3308160, Note_on_c, 0, 61, 0
2, 3308160, Note_on_c, 0, 59, 100
2, 3308280, Note_on_c, 0, 59, 0
2, 3308280, Note_on_c, 0, 57, 100
2, 3308400, Note_on_c, 0, 57, 0
2, 3308400, Note_on_c, 0, 55, 100
2, 3308520, Note_on_c, 0, 55, 0
2, 3308520, Note_on_c, 0, 54, 100
2, 3308640, Note_on_c, 0, 54, 0
2, 3308640, Note_on_c, 0, 52, 100
2, 3308760, Note_on_c, 0, 52, 0
2, 3308760, Note_on_c, 0, 54, 100
2, 3308880, Note_on_c, 0, 54, 0
2, 3308880, Note_on_c, 0, 81, 100
2, 3309600, Note_on_c, 0, 81, 0
2, 3309600, Note_on_c, 0, 79, 100
2, 3310560, Note_on_c, 0, 79, 0
2, 3310560, Note_on_c, 0, 78, 100
2, 3310680, Note_on_c, 0, 78, 0
2, 3310680, Note_on_c, 0, 76, 100
2, 3310800, Note_on_c, 0, 76, 0
2, 3310800, Note_on_c, 0, 74, 100
2, 3310920, Note_on_c, 0, 74, 0
2, 3310920, Note_on_c, 0, 73, 100
2, 3311040, Note_on_c, 0, 73, 0
2, 3311040, Note_on_c, 0, 72, 100
2, 3311280, Note_on_c, 0, 72, 0
2, 3311280, Note_on_c, 0, 71, 100
2, 3312000, Note_on_c, 0, 71, 0
2, 3312000, Note_on_c, 0, 69, 100
2, 3312120, Note_on_c, 0, 69, 0
2, 3312120, Note_on_c, 0, 68, 100
2, 3312240, Note_on_c, 0, 68, 0
2, 3312240, Note_on_c, 0, 66, 100
2, 3312360, Note_on_c, 0, 66, 0
2, 3312360, Note_on_c, 0, 64, 100
2, 3312480, Note_on_c, 0, 64, 0
2, 3312480, Note_on_c, 0, 63, 100
2, 3313320, Note_on_c, 0, 63, 0
2, 3313320, Note_on_c, 0, 61, 100
2, 3313440, Note_on_c, 0, 61, 0
2, 3313440, Note_on_c, 0, 64, 100
2, 3313560, Note_on_c, 0, 64, 0
2, 3313560, Note_on_c, 0, 63, 100
2, 3313680, Note_on_c, 0, 63, 0
2, 3313680, Note_on_c, 0, 61, 100
2, 3313800, Note_on_c, 0, 61, 0
2, 3313800, Note_on_c, 0, 63, 100
2, 3313920, Note_on_c, 0, 63, 0
2, 3313920, Note_on_c, 0, 61, 100
2, 3314040, Note_on_c, 0, 61, 0
2, 3314040, Note_on_c, 0, 59, 100
2, 3314160, Note_on_c, 0, 59, 0
2, 3314160, Note_on_c, 0, 57, 100
2, 3314280, Note_on_c, 0, 57, 0
2, 3314280, Note_on_c, 0, 55, 100
2, 3314400, Note_on_c, 0, 55, 0
2, 3314400, Note_on_c, 0, 54, 100
2, 3314520, Note_on_c, 0, 54, 0
2, 3314520, Note_on_c, 0, 55, 100
2, 3314640, Note_on_c, 0, 55, 0
2, 3314640, Note_on_c, 0, 60, 100
2, 3315360, Note_on_c, 0, 60, 0
2, 3315360, Note_on_c, 0, 57, 100
2, 3316200, Note_on_c, 0, 57, 0
2, 3316200, Note_on_c, 0, 59, 100
2, 3316320, Note_on_c, 0, 59, 0
2, 3316320, Note_on_c, 0, 55, 100
2, 3316440, Note_on_c, 0, 55, 0
2, 3316440, Note_on_c, 0, 59, 100
2, 3316560, Note_on_c, 0, 59, 0
2, 3316560, Note_on_c, 0, 62, 100
2, 3316680, Note_on_c, 0, 62, 0
2, 3316680, Note_on_c, 0, 64, 100
2, 3316800, Note_on_c, 0, 64, 0
2, 3316800, Note_on_c, 0, 61, 100
2, 3317640, Note_on_c, 0, 61, 0
2, 3317640, Note_on_c, 0, 62, 100
2, 3317760, Note_on_c, 0, 62, 0
2, 3317760, Note_on_c, 0, 59, 100
2, 3317880, Note_on_c, 0, 59, 0
2, 3317880, Note_on_c, 0, 62, 100
2, 3318000, Note_on_c, 0, 62, 0
2, 3318000, Note_on_c, 0, 66, 100
2, 3318120, Note_on_c, 0, 66, 0
2, 3318120, Note_on_c, 0, 67, 100
2, 3318240, Note_on_c, 0, 67, 0
2, 3318240, Note_on_c, 0, 66, 100
2, 3319080, Note_on_c, 0, 66, 0
2, 3319080, Note_on_c, 0, 64, 100
2, 3319200, Note_on_c, 0, 64, 0
2, 3319200, Note_on_c, 0, 67, 100
2, 3319320, Note_on_c, 0, 67, 0
2, 3319320, Note_on_c, 0, 66, 100
2, 3319440, Note_on_c, 0, 66, 0
2, 3319440, Note_on_c, 0, 64, 100
2, 3319560, Note_on_c, 0, 64, 0
2, 3319560, Note_on_c, 0, 66, 100
2, 3319680, Note_on_c, 0, 66, 0
2, 3319680, Note_on_c, 0, 64, 100
2, 3319800, Note_on_c, 0, 64, 0
2, 3319800, Note_on_c, 0, 62, 100
2, 3319920, Note_on_c, 0, 62, 0
2, 3319920, Note_on_c, 0, 60, 100
2, 3320040, Note_on_c, 0, 60, 0
2, 3320040, Note_on_c, 0, 59, 100
2, 3320160, Note_on_c, 0, 59, 0
2, 3320160, Note_on_c, 0, 57, 100
2, 3320280, Note_on_c, 0, 57, 0
2, 3320280, Note_on_c, 0, 55, 100
2, 3320400, Note_on_c, 0, 55, 0
2, 3320400, Note_on_c, 0, 81, 100
2, 3321120, Note_on_c, 0, 81, 0
2, 3321120, Note_on_c, 0, 79, 100
2, 3322080, Note_on_c, 0, 79, 0
2, 3322080, Note_on_c, 0, 78, 100
2, 3322200, Note_on_c, 0, 78, 0
2, 3322200, Note_on_c, 0, 76, 100
2, 3322320, Note_on_c, 0, 76, 0
2, 3322320, Note_on_c, 0, 74, 100
2, 3322440, Note_on_c, 0, 74, 0
2, 3322440, Note_on_c, 0, 73, 100
2, 3322560, Note_on_c, 0, 73, 0
2, 3322560, Note_on_c, 0, 72, 100
2, 3322800, Note_on_c, 0, 72, 0
2, 3322800, Note_on_c, 0, 71, 100
2, 3323520, Note_on_c, 0, 71, 0
2, 3323520, Note_on_c, 0, 69, 100
2, 3323640, Note_on_c, 0, 69, 0
2, 3323640, Note_on_c, 0, 68, 100
2, 3323760, Note_on_c, 0, 68, 0
2, 3323760, Note_on_c, 0, 66, 100
2, 3323880, Note_on_c, 0, 66, 0
2, 3323880, Note_on_c, 0, 64, 100
2, 3324000, Note_on_c, 0, 64, 0
2, 3324000, Note_on_c, 0, 63, 100
2, 3324840, Note_on_c, 0, 63, 0
2, 3324840, Note_on_c, 0, 61, 100
2, 3324960, Note_on_c, 0, 61, 0
2, 3324960, Note_on_c, 0, 64, 100
2, 3325080, Note_on_c, 0, 64, 0
2, 3325080, Note_on_c, 0, 63, 100
2, 3325200, Note_on_c, 0, 63, 0
2, 3325200, Note_on_c, 0, 61, 100
2, 3325320, Note_on_c, 0, 61, 0
2, 3325320, Note_on_c, 0, 63, 100
2, 3325440, Note_on_c, 0, 63, 0
2, 3325440, Note_on_c, 0, 61, 100
2, 3325560, Note_on_c, 0, 61, 0
2, 3325560, Note_on_c, 0, 59, 100
2, 3325680, Note_on_c, 0, 59, 0
2, 3325680, Note_on_c, 0, 57, 100
2, 3325800, Note_on_c, 0, 57, 0
2, 3325800, Note_on_c, 0, 55, 100
2, 3325920, Note_on_c, 0, 55, 0
2, 3325920, Note_on_c, 0, 54, 100
2, 3326040, Note_on_c, 0, 54, 0
2, 3326040, Note_on_c, 0, 55, 100
2, 3326160, Note_on_c, 0, 55, 0
2, 3326160, Note_on_c, 0, 60, 100
2, 3326880, Note_on_c, 0, 60, 0
2, 3326880, Note_on_c, 0, 57, 100
2, 3327720, Note_on_c, 0, 57, 0
2, 3327720, Note_on_c, 0, 59, 100
2, 3327840, Note_on_c, 0, 59, 0
2, 3327840, Note_on_c, 0, 55, 100
2, 3327960, Note_on_c, 0, 55, 0
2, 3327960, Note_on_c, 0, 59, 100
2, 3328080, Note_on_c, 0, 59, 0
2, 3328080, Note_on_c, 0, 62, 100
2, 3328200, Note_on_c, 0, 62, 0
2, 3328200, Note_on_c, 0, 64, 100
2, 3328320, Note_on_c, 0, 64, 0
2, 3328320, Note_on_c, 0, 61, 100
2, 3329160, Note_on_c, 0, 61, 0
2, 3329160, Note_on_c, 0, 62, 100
2, 3329280, Note_on_c, 0, 62, 0
2, 3329280, Note_on_c, 0, 59, 100
2, 3329400, Note_on_c, 0, 59, 0
2, 3329400, Note_on_c, 0, 62, 100
2, 3329520, Note_on_c, 0, 62, 0
2, 3329520, Note_on_c, 0, 66, 100
2, 3329640, Note_on_c, 0, 66, 0
2, 3329640, Note_on_c, 0, 67, 100
2, 3329760, Note_on_c, 0, 67, 0
2, 3329760, Note_on_c, 0, 66, 100
2, 3330600, Note_on_c, 0, 66, 0
2, 3330600, Note_on_c, 0, 64, 100
2, 3330720, Note_on_c, 0, 64, 0
2, 3330720, Note_on_c, 0, 67, 100
2, 3330840, Note_on_c, 0, 67, 0
2, 3330840, Note_on_c, 0, 66, 100
2, 3330960, Note_on_c, 0, 66, 0
2, 3330960, Note_on_c, 0, 64, 100
2, 3331080, Note_on_c, 0, 64, 0
2, 3331080, Note_on_c, 0, 66, 100
2, 3331200, Note_on_c, 0, 66, 0
2, 3331200, Note_on_c, 0, 64, 100
2, 3331320, Note_on_c, 0, 64, 0
2, 3331320, Note_on_c, 0, 62, 100
2, 3331440, Note_on_c, 0, 62, 0
2, 3331440, Note_on_c, 0, 60, 100
2, 3331560, Note_on_c, 0, 60, 0
2, 3331560, Note_on_c, 0, 59, 100
2, 3331680, Note_on_c, 0, 59, 0
2, 3331680, Note_on_c, 0, 57, 100
2, 3331800, Note_on_c, 0, 57, 0
2, 3331800, Note_on_c, 0, 59, 100
2, 3331920, Note_on_c, 0, 59, 0
2, 3331920, Note_on_c, 0, 71, 100
2, 3516960, Note_on_c, 0, 71, 0
2, 3516960, Note_on_c, 0, 69, 100
2, 3517200, Note_on_c, 0, 69, 0
2, 3517200, Note_on_c, 0, 71, 100
2, 3517440, Note_on_c, 0, 71, 0
2, 3517440, Note_on_c, 0, 72, 100
2, 3517680, Note_on_c, 0, 72, 0
2, 3517680, Note_on_c, 0, 74, 100
2, 3517920, Note_on_c, 0, 74, 0
2, 3517920, Note_on_c, 0, 69, 100
2, 3518160, Note_on_c, 0, 69, 0
2, 3518160, Note_on_c, 0, 74, 100
2, 3518400, Note_on_c, 0, 74, 0
2, 3518400, Note_on_c, 0, 72, 100
2, 3518640, Note_on_c, 0, 72, 0
2, 3518640, Note_on_c, 0, 71, 100
2, 3518880, Note_on_c, 0, 71, 0
2, 3518880, Note_on_c, 0, 74, 100
2, 3519120, Note_on_c, 0, 74, 0
2, 3519120, Note_on_c, 0, 79, 100
2, 3519360, Note_on_c, 0, 79, 0
2, 3519360, Note_on_c, 0, 81, 100
2, 3520080, Note_on_c, 0, 81, 0
2, 3520080, Note_on_c, 0, 79, 100
2, 3520200, Note_on_c, 0, 79, 0
2, 3520200, Note_on_c, 0, 78, 100
2, 3520320, Note_on_c, 0, 78, 0
2, 3520320, Note_on_c, 0, 79, 100
2, 3520800, Note_on_c, 0, 79, 0
2, 3520800, Note_on_c, 0, 78, 100
2, 3521040, Note_on_c, 0, 78, 0
2, 3521040, Note_on_c, 0, 79, 100
2, 3521280, Note_on_c, 0, 79, 0
2, 3521280, Note_on_c, 0, 81, 100
2, 3521520, Note_on_c, 0, 81, 0
2, 3521520, Note_on_c, 0, 83, 100
2, 3521760, Note_on_c, 0, 83, 0
2, 3521760, Note_on_c, 0, 78, 100
2, 3522000, Note_on_c, 0, 78, 0
2, 3522000, Note_on_c, 0, 83, 100
2, 3522240, Note_on_c, 0, 83, 0
2, 3522240, Note_on_c, 0, 81, 100
2, 3522480, Note_on_c, 0, 81, 0
2, 3522480, Note_on_c, 0, 79, 100
2, 3522720, Note_on_c, 0, 79, 0
2, 3522720, Note_on_c, 0, 81, 100
2, 3522960, Note_on_c, 0, 81, 0
2, 3522960, Note_on_c, 0, 83, 100
2, 3523080, Note_on_c, 0, 83, 0
2, 3523080, Note_on_c, 0, 84, 100
2, 3523200, Note_on_c, 0, 84, 0
2, 3523200, Note_on_c, 0, 83, 100
2, 3523920, Note_on_c, 0, 83, 0
2, 3523920, Note_on_c, 0, 81, 100
2, 3524040, Note_on_c, 0, 81, 0
2, 3524040, Note_on_c, 0, 83, 100
2, 3524160, Note_on_c, 0, 83, 0
2, 3524160, Note_on_c, 0, 71, 100
2, 3524400, Note_on_c, 0, 71, 0
2, 3524400, Note_on_c, 0, 73, 100
2, 3524640, Note_on_c, 0, 73, 0
2, 3524640, Note_on_c, 0, 71, 100
2, 3524880, Note_on_c, 0, 71, 0
2, 3524880, Note_on_c, 0, 73, 100
2, 3525120, Note_on_c, 0, 73, 0
2, 3525120, Note_on_c, 0, 75, 100
2, 3525360, Note_on_c, 0, 75, 0
2, 3525360, Note_on_c, 0, 76, 100
2, 3525600, Note_on_c, 0, 76, 0
2, 3525600, Note_on_c, 0, 71, 100
2, 3525840, Note_on_c, 0, 71, 0
2, 3525840, Note_on_c, 0, 76, 100
2, 3526080, Note_on_c, 0, 76, 0
2, 3526080, Note_on_c, 0, 74, 100
2, 3526320, Note_on_c, 0, 74, 0
2, 3526320, Note_on_c, 0, 72, 100
2, 3526560, Note_on_c, 0, 72, 0
2, 3526560, Note_on_c, 0, 74, 100
2, 3526800, Note_on_c, 0, 74, 0
2, 3526800, Note_on_c, 0, 76, 100
2, 3526920, Note_on_c, 0, 76, 0
2, 3526920, Note_on_c, 0, 77, 100
2, 3527040, Note_on_c, 0, 77, 0
2, 3527040, Note_on_c, 0, 76, 100
2, 3527760, Note_on_c, 0, 76, 0
2, 3527760, Note_on_c, 0, 74, 100
2, 3527880, Note_on_c, 0, 74, 0
2, 3527880, Note_on_c, 0, 76, 100
2, 3528000, Note_on_c, 0, 76, 0
2, 3528000, Note_on_c, 0, 78, 100
2, 3528120, Note_on_c, 0, 78, 0
2, 3528120, Note_on_c, 0, 79, 100
2, 3528240, Note_on_c, 0, 79, 0
2, 3528240, Note_on_c, 0, 78, 100
2, 3528720, Note_on_c, 0, 78, 0
2, 3528720, Note_on_c, 0, 76, 100
2, 3529200, Note_on_c, 0, 76, 0
2, 3529200, Note_on_c, 0, 78, 100
2, 3529440, Note_on_c, 0, 78, 0
2, 3529440, Note_on_c, 0, 79, 100
2, 3529680, Note_on_c, 0, 79, 0
2, 3529680, Note_on_c, 0, 81, 100
2, 3529920, Note_on_c, 0, 81, 0
2, 3529920, Note_on_c, 0, 79, 100
2, 3530160, Note_on_c, 0, 79, 0
2, 3530160, Note_on_c, 0, 78, 100
2, 3530400, Note_on_c, 0, 78, 0
2, 3530400, Note_on_c, 0, 76, 100
2, 3530880, Note_on_c, 0, 76, 0
2, 3530880, Note_on_c, 0, 74, 100
2, 3531360, Note_on_c, 0, 74, 0
2, 3531360, Note_on_c, 0, 71, 100
2, 3532320, Note_on_c, 0, 71, 0
2, 3532320, Note_on_c, 0, 69, 100
2, 3532560, Note_on_c, 0, 69, 0
2, 3532560, Note_on_c, 0, 71, 100
2, 3532800, Note_on_c, 0, 71, 0
2, 3532800, Note_on_c, 0, 72, 100
2, 3533040, Note_on_c, 0, 72, 0
2, 3533040, Note_on_c, 0, 74, 100
2, 3533280, Note_on_c, 0, 74, 0
2, 3533280, Note_on_c, 0, 69, 100
2, 3533520, Note_on_c, 0, 69, 0
2, 3533520, Note_on_c, 0, 74, 100
2, 3533760, Note_on_c, 0, 74, 0
2, 3533760, Note_on_c, 0, 72, 100
2, 3534000, Note_on_c, 0, 72, 0
2, 3534000, Note_on_c, 0, 71, 100
2, 3534240, Note_on_c, 0, 71, 0
2, 3534240, Note_on_c, 0, 74, 100
2, 3534480, Note_on_c, 0, 74, 0
2, 3534480, Note_on_c, 0, 79, 100
2, 3534720, Note_on_c, 0, 79, 0
2, 3534720, Note_on_c, 0, 81, 100
2, 3535440, Note_on_c, 0, 81, 0
2, 3535440, Note_on_c, 0, 79, 100
2, 3535560, Note_on_c, 0, 79, 0
2, 3535560, Note_on_c, 0, 78, 100
2, 3535680, Note_on_c, 0, 78, 0
2, 3535680, Note_on_c, 0, 79, 100
2, 3536160, Note_on_c, 0, 79, 0
2, 3536160, Note_on_c, 0, 78, 100
2, 3536400, Note_on_c, 0, 78, 0
2, 3536400, Note_on_c, 0, 79, 100
2, 3536640, Note_on_c, 0, 79, 0
2, 3536640, Note_on_c, 0, 81, 100
2, 3536880, Note_on_c, 0, 81, 0
2, 3536880, Note_on_c, 0, 83, 100
2, 3537120, Note_on_c, 0, 83, 0
2, 3537120, Note_on_c, 0, 78, 100
2, 3537360, Note_on_c, 0, 78, 0
2, 3537360, Note_on_c, 0, 83, 100
2, 3537600, Note_on_c, 0, 83, 0
2, 3537600, Note_on_c, 0, 81, 100
2, 3537840, Note_on_c, 0, 81, 0
2, 3537840, Note_on_c, 0, 79, 100
2, 3538080, Note_on_c, 0, 79, 0
2, 3538080, Note_on_c, 0, 81, 100
2, 3538320, Note_on_c, 0, 81, 0
2, 3538320, Note_on_c, 0, 83, 100
2, 3538440, Note_on_c, 0, 83, 0
2, 3538440, Note_on_c, 0, 84, 100
2, 3538560, Note_on_c, 0, 84, 0
2, 3538560, Note_on_c, 0, 83, 100
2, 3539280, Note_on_c, 0, 83, 0
2, 3539280, Note_on_c, 0, 81, 100
2, 3539400, Note_on_c, 0, 81, 0
2, 3539400, Note_on_c, 0, 83, 100
2, 3539520, Note_on_c, 0, 83, 0
2, 3539520, Note_on_c, 0, 71, 100
2, 3539760, Note_on_c, 0, 71, 0
2, 3539760, Note_on_c, 0, 73, 100
2, 3540000, Note_on_c, 0, 73, 0
2, 3540000, Note_on_c, 0, 71, 100
2, 3540240, Note_on_c, 0, 71, 0
2, 3540240, Note_on_c, 0, 73, 100
2, 3540480, Note_on_c, 0, 73, 0
2, 3540480, Note_on_c, 0, 75, 100
2, 3540720, Note_on_c, 0, 75, 0
2, 3540720, Note_on_c, 0, 76, 100
2, 3540960, Note_on_c, 0, 76, 0
2, 3540960, Note_on_c, 0, 71, 100
2, 3541200, Note_on_c, 0, 71, 0
2, 3541200, Note_on_c, 0, 76, 100
2, 3541440, Note_on_c, 0, 76, 0
2, 3541440, Note_on_c, 0, 74, 100
2, 3541680, Note_on_c, 0, 74, 0
2, 3541680, Note_on_c, 0, 72, 100
2, 3541920, Note_on_c, 0, 72, 0
2, 3541920, Note_on_c, 0, 74, 100
2, 3542160, Note_on_c, 0, 74, 0
2, 3542160, Note_on_c, 0, 76, 100
2, 3542280, Note_on_c, 0, 76, 0
2, 3542280, Note_on_c, 0, 77, 100
2, 3542400, Note_on_c, 0, 77, 0
2, 3542400, Note_on_c, 0, 76, 100
2, 3543120, Note_on_c, 0, 76, 0
2, 3543120, Note_on_c, 0, 74, 100
2, 3543240, Note_on_c, 0, 74, 0
2, 3543240, Note_on_c, 0, 76, 100
2, 3543360, Note_on_c, 0, 76, 0
2, 3543360, Note_on_c, 0, 78, 100
2, 3543480, Note_on_c, 0, 78, 0
2, 3543480, Note_on_c, 0, 79, 100
2, 3543600, Note_on_c, 0, 79, 0
2, 3543600, Note_on_c, 0, 78, 100
2, 3544080, Note_on_c, 0, 78, 0
2, 3544080, Note_on_c, 0, 76, 100
2, 3544560, Note_on_c, 0, 76, 0
2, 3544560, Note_on_c, 0, 78, 100
2, 3544800, Note_on_c, 0, 78, 0
2, 3544800, Note_on_c, 0, 79, 100
2, 3545040, Note_on_c, 0, 79, 0
2, 3545040, Note_on_c, 0, 81, 100
2, 3545280, Note_on_c, 0, 81, 0
2, 3545280, Note_on_c, 0, 79, 100
2, 3545520, Note_on_c, 0, 79, 0
2, 3545520, Note_on_c, 0, 78, 100
2, 3545760, Note_on_c, 0, 78, 0
2, 3545760, Note_on_c, 0, 76, 100
2, 3546240, Note_on_c, 0, 76, 0
2, 3546240, Note_on_c, 0, 74, 100
2, 3546720, Note_on_c, 0, 74, 0
2, 3546720, Note_on_c, 0, 78, 100
2, 3547680, Note_on_c, 0, 78, 0
2, 3547680, Note_on_c, 0, 74, 100
2, 3547920, Note_on_c, 0, 74, 0
2, 3547920, Note_on_c, 0, 76, 100
2, 3548160, Note_on_c, 0, 76, 0
2, 3548160, Note_on_c, 0, 78, 100
2, 3548400, Note_on_c, 0, 78, 0
2, 3548400, Note_on_c, 0, 79, 100
2, 3548640, Note_on_c, 0, 79, 0
2, 3548640, Note_on_c, 0, 74, 100
2, 3548880, Note_on_c, 0, 74, 0
2, 3548880, Note_on_c, 0, 79, 100
2, 3549120, Note_on_c, 0, 79, 0
2, 3549120, Note_on_c, 0, 81, 100
2, 3549360, Note_on_c, 0, 81, 0
2, 3549360, Note_on_c, 0, 83, 100
2, 3549600, Note_on_c, 0, 83, 0
2, 3549600, Note_on_c, 0, 76, 100
2, 3549840, Note_on_c, 0, 76, 0
2, 3549840, Note_on_c, 0, 81, 100
2, 3550080, Note_on_c, 0, 81, 0
2, 3550080, Note_on_c, 0, 79, 100
2, 3550800, Note_on_c, 0, 79, 0
2, 3550800, Note_on_c, 0, 78, 100
2, 3550920, Note_on_c, 0, 78, 0
2, 3550920, Note_on_c, 0, 79, 100
2, 3551040, Note_on_c, 0, 79, 0
2, 3551040, Note_on_c, 0, 76, 100
2, 3551760, Note_on_c, 0, 76, 0
2, 3551760, Note_on_c, 0, 74, 100
2, 3552240, Note_on_c, 0, 74, 0
2, 3552240, Note_on_c, 0, 72, 100
2, 3552360, Note_on_c, 0, 72, 0
2, 3552360, Note_on_c, 0, 71, 100
2, 3552480, Note_on_c, 0, 71, 0
2, 3552480, Note_on_c, 0, 69, 100
2, 3552600, Note_on_c, 0, 69, 0
2, 3552600, Note_on_c, 0, 67, 100
2, 3552720, Note_on_c, 0, 67, 0
2, 3552720, Note_on_c, 0, 66, 100
2, 3552840, Note_on_c, 0, 66, 0
2, 3552840, Note_on_c, 0, 67, 100
2, 3552960, Note_on_c, 0, 67, 0
2, 3552960, Note_on_c, 0, 69, 100
2, 3553080, Note_on_c, 0, 69, 0
2, 3553080, Note_on_c, 0, 71, 100
2, 3553200, Note_on_c, 0, 71, 0
2, 3553200, Note_on_c, 0, 67, 100
2, 3553320, Note_on_c, 0, 67, 0
2, 3553320, Note_on_c, 0, 66, 100
2, 3553440, Note_on_c, 0, 66, 0
2, 3553440, Note_on_c, 0, 64, 100
2, 3553560, Note_on_c, 0, 64, 0
2, 3553560, Note_on_c, 0, 66, 100
2, 3553800, Note_on_c, 0, 66, 0
2, 3553800, Note_on_c, 0, 64, 100
2, 3553920, Note_on_c, 0, 64, 0
2, 3553920, Note_on_c, 0, 63, 100
2, 3554000, Note_on_c, 0, 63, 0
2, 3554000, Note_on_c, 0, 64, 100
2, 3554080, Note_on_c, 0, 64, 0
2, 3554080, Note_on_c, 0, 63, 100
2, 3554160, Note_on_c, 0, 63, 0
2, 3554160, Note_on_c, 0, 64, 100
2, 3554400, Note_on_c, 0, 64, 0
2, 3554400, Note_on_c, 0, 71, 100
2, 3554880, Note_on_c, 0, 71, 0
2, 3554880, Note_on_c, 0, 69, 100
2, 3555600, Note_on_c, 0, 69, 0
2, 3555600, Note_on_c, 0, 68, 100
2, 3556080, Note_on_c, 0, 68, 0
2, 3556080, Note_on_c, 0, 69, 100
2, 3556320, Note_on_c, 0, 69, 0
2, 3556320, Note_on_c, 0, 72, 100
2, 3556560, Note_on_c, 0, 72, 0
2, 3556560, Note_on_c, 0, 71, 100
2, 3556680, Note_on_c, 0, 71, 0
2, 3556680, Note_on_c, 0, 72, 100
2, 3556800, Note_on_c, 0, 72, 0
2, 3556800, Note_on_c, 0, 76, 100
2, 3556920, Note_on_c, 0, 76, 0
2, 3556920, Note_on_c, 0, 74, 100
2, 3557040, Note_on_c, 0, 74, 0
2, 3557040, Note_on_c, 0, 72, 100
2, 3557160, Note_on_c, 0, 72, 0
2, 3557160, Note_on_c, 0, 71, 100
2, 3557280, Note_on_c, 0, 71, 0
2, 3557280, Note_on_c, 0, 73, 100
2, 3557760, Note_on_c, 0, 73, 0
2, 3557760, Note_on_c, 0, 74, 100
2, 3558240, Note_on_c, 0, 74, 0
2, 3558240, Note_on_c, 0, 79, 100
2, 3559440, Note_on_c, 0, 79, 0
2, 3559440, Note_on_c, 0, 78, 100
2, 3559680, Note_on_c, 0, 78, 0
2, 3559680, Note_on_c, 0, 76, 100
2, 3559920, Note_on_c, 0, 76, 0
2, 3559920, Note_on_c, 0, 74, 100
2, 3560160, Note_on_c, 0, 74, 0
2, 3560160, Note_on_c, 0, 79, 100
2, 3560400, Note_on_c, 0, 79, 0
2, 3560400, Note_on_c, 0, 78, 100
2, 3560520, Note_on_c, 0, 78, 0
2, 3560520, Note_on_c, 0, 79, 100
2, 3560640, Note_on_c, 0, 79, 0
2, 3560640, Note_on_c, 0, 81, 100
2, 3560760, Note_on_c, 0, 81, 0
2, 3560760, Note_on_c, 0, 83, 100
2, 3560880, Note_on_c, 0, 83, 0
2, 3560880, Note_on_c, 0, 76, 100
2, 3561120, Note_on_c, 0, 76, 0
2, 3561120, Note_on_c, 0, 81, 100
2, 3561360, Note_on_c, 0, 81, 0
2, 3561360, Note_on_c, 0, 79, 100
2, 3561600, Note_on_c, 0, 79, 0
2, 3561600, Note_on_c, 0, 78, 100
2, 3561640, Note_on_c, 0, 78, 0
2, 3561640, Note_on_c, 0, 79, 100
2, 3561680, Note_on_c, 0, 79, 0
2, 3561680, Note_on_c, 0, 78, 100
2, 3561720, Note_on_c, 0, 78, 0
2, 3561720, Note_on_c, 0, 79, 100
2, 3562080, Note_on_c, 0, 79, 0
2, 3562080, Note_on_c, 0, 78, 100
2, 3563040, Note_on_c, 0, 78, 0
2, 3563040, Note_on_c, 0, 74, 100
2, 3563280, Note_on_c, 0, 74, 0
2, 3563280, Note_on_c, 0, 76, 100
2, 3563520, Note_on_c, 0, 76, 0
2, 3563520, Note_on_c, 0, 78, 100
2, 3563760, Note_on_c, 0, 78, 0
2, 3563760, Note_on_c, 0, 79, 100
2, 3564000, Note_on_c, 0, 79, 0
2, 3564000, Note_on_c, 0, 74, 100
2, 3564240, Note_on_c, 0, 74, 0
2, 3564240, Note_on_c, 0, 79, 100
2, 3564480, Note_on_c, 0, 79, 0
2, 3564480, Note_on_c, 0, 81, 100
2, 3564720, Note_on_c, 0, 81, 0
2, 3564720, Note_on_c, 0, 83, 100
2, 3564960, Note_on_c, 0, 83, 0
2, 3564960, Note_on_c, 0, 76, 100
2, 3565200, Note_on_c, 0, 76, 0
2, 3565200, Note_on_c, 0, 81, 100
2, 3565440, Note_on_c, 0, 81, 0
2, 3565440, Note_on_c, 0, 79, 100
2, 3566160, Note_on_c, 0, 79, 0
2, 3566160, Note_on_c, 0, 78, 100
2, 3566280, Note_on_c, 0, 78, 0
2, 3566280, Note_on_c, 0, 79, 100
2, 3566400, Note_on_c, 0, 79, 0
2, 3566400, Note_on_c, 0, 76, 100
2, 3567120, Note_on_c, 0, 76, 0
2, 3567120, Note_on_c, 0, 74, 100
2, 3567600, Note_on_c, 0, 74, 0
2, 3567600, Note_on_c, 0, 72, 100
2, 3567720, Note_on_c, 0, 72, 0
2, 3567720, Note_on_c, 0, 71, 100
2, 3567840, Note_on_c, 0, 71, 0
2, 3567840, Note_on_c, 0, 69, 100
2, 3567960, Note_on_c, 0, 69, 0
2, 3567960, Note_on_c, 0, 67, 100
2, 3568080, Note_on_c, 0, 67, 0
2, 3568080, Note_on_c, 0, 66, 100
2, 3568200, Note_on_c, 0, 66, 0
2, 3568200, Note_on_c, 0, 67, 100
2, 3568320, Note_on_c, 0, 67, 0
2, 3568320, Note_on_c, 0, 69, 100
2, 3568440, Note_on_c, 0, 69, 0
2, 3568440, Note_on_c, 0, 71, 100
2, 3568560, Note_on_c, 0, 71, 0
2, 3568560, Note_on_c, 0, 67, 100
2, 3568680, Note_on_c, 0, 67, 0
2, 3568680, Note_on_c, 0, 66, 100
2, 3568800, Note_on_c, 0, 66, 0
2, 3568800, Note_on_c, 0, 64, 100
2, 3568920, Note_on_c, 0, 64, 0
2, 3568920, Note_on_c, 0, 66, 100
2, 3569160, Note_on_c, 0, 66, 0
2, 3569160, Note_on_c, 0, 64, 100
2, 3569280, Note_on_c, 0, 64, 0
2, 3569280, Note_on_c, 0, 63, 100
2, 3569360, Note_on_c, 0, 63, 0
2, 3569360, Note_on_c, 0, 64, 100
2, 3569440, Note_on_c, 0, 64, 0
2, 3569440, Note_on_c, 0, 63, 100
2, 3569520, Note_on_c, 0, 63, 0
2, 3569520, Note_on_c, 0, 64, 100
2, 3569760, Note_on_c, 0, 64, 0
2, 3569760, Note_on_c, 0, 71, 100
2, 3570240, Note_on_c, 0, 71, 0
2, 3570240, Note_on_c, 0, 69, 100
2, 3570960, Note_on_c, 0, 69, 0
2, 3570960, Note_on_c, 0, 68, 100
2, 3571440, Note_on_c, 0, 68, 0
2, 3571440, Note_on_c, 0, 69, 100
2, 3571680, Note_on_c, 0, 69, 0
2, 3571680, Note_on_c, 0, 72, 100
2, 3571920, Note_on_c, 0, 72, 0
2, 3571920, Note_on_c, 0, 71, 100
2, 3572040, Note_on_c, 0, 71, 0
2, 3572040, Note_on_c, 0, 72, 100
2, 3572160, Note_on_c, 0, 72, 0
2, 3572160, Note_on_c, 0, 76, 100
2, 3572280, Note_on_c, 0, 76, 0
2, 3572280, Note_on_c, 0, 74, 100
2, 3572400, Note_on_c, 0, 74, 0
2, 3572400, Note_on_c, 0, 72, 100
2, 3572520, Note_on_c, 0, 72, 0
2, 3572520, Note_on_c, 0, 71, 100
2, 3572640, Note_on_c, 0, 71, 0
2, 3572640, Note_on_c, 0, 73, 100
2, 3573120, Note_on_c, 0, 73, 0
2, 3573120, Note_on_c, 0, 74, 100
2, 3573600, Note_on_c, 0, 74, 0
2, 3573600, Note_on_c, 0, 79, 100
2, 3574800, Note_on_c, 0, 79, 0
2, 3574800, Note_on_c, 0, 78, 100
2, 3575040, Note_on_c, 0, 78, 0
2, 3575040, Note_on_c, 0, 76, 100
2, 3575280, Note_on_c, 0, 76, 0
2, 3575280, Note_on_c, 0, 74, 100
2, 3575520, Note_on_c, 0, 74, 0
2, 3575520, Note_on_c, 0, 79, 100
2, 3575760, Note_on_c, 0, 79, 0
2, 3575760, Note_on_c, 0, 78, 100
2, 3575880, Note_on_c, 0, 78, 0
2, 3575880, Note_on_c, 0, 79, 100
2, 3576000, Note_on_c, 0, 79, 0
2, 3576000, Note_on_c, 0, 81, 100
2, 3576120, Note_on_c, 0, 81, 0
2, 3576120, Note_on_c, 0, 83, 100
2, 3576240, Note_on_c, 0, 83, 0
2, 3576240, Note_on_c, 0, 76, 100
2, 3576480, Note_on_c, 0, 76, 0
2, 3576480, Note_on_c, 0, 81, 100
2, 3576720, Note_on_c, 0, 81, 0
2, 3576720, Note_on_c, 0, 79, 100
2, 3576960, Note_on_c, 0, 79, 0
2, 3576960, Note_on_c, 0, 78, 100
2, 3577000, Note_on_c, 0, 78, 0
2, 3577000, Note_on_c, 0, 79, 100
2, 3577040, Note_on_c, 0, 79, 0
2, 3577040, Note_on_c, 0, 78, 100
2, 3577080, Note_on_c, 0, 78, 0
2, 3577080, Note_on_c, 0, 79, 100
2, 3577440, Note_on_c, 0, 79, 0
2, 3577440, Note_on_c, 0, 67, 100
2, 3793680, Note_on_c, 0, 67, 0
2, 3793680, Note_on_c, 0, 66, 100
2, 3793800, Note_on_c, 0, 66, 0
2, 3793800, Note_on_c, 0, 67, 100
2, 3793920, Note_on_c, 0, 67, 0
2, 3793920, Note_on_c, 0, 69, 100
2, 3794160, Note_on_c, 0, 69, 0
2, 3794160, Note_on_c, 0, 71, 100
2, 3794280, Note_on_c, 0, 71, 0
2, 3794280, Note_on_c, 0, 72, 100
2, 3794400, Note_on_c, 0, 72, 0
2, 3794400, Note_on_c, 0, 71, 100
2, 3794520, Note_on_c, 0, 71, 0
2, 3794520, Note_on_c, 0, 69, 100
2, 3794640, Note_on_c, 0, 69, 0
2, 3794640, Note_on_c, 0, 67, 100
2, 3794760, Note_on_c, 0, 67, 0
2, 3794760, Note_on_c, 0, 74, 100
2, 3794880, Note_on_c, 0, 74, 0
2, 3794880, Note_on_c, 0, 69, 100
2, 3795000, Note_on_c, 0, 69, 0
2, 3795000, Note_on_c, 0, 71, 100
2, 3795120, Note_on_c, 0, 71, 0
2, 3795120, Note_on_c, 0, 73, 100
2, 3795240, Note_on_c, 0, 73, 0
2, 3795240, Note_on_c, 0, 74, 100
2, 3795360, Note_on_c, 0, 74, 0
2, 3795360, Note_on_c, 0, 76, 100
2, 3795480, Note_on_c, 0, 76, 0
2, 3795480, Note_on_c, 0, 78, 100
2, 3795600, Note_on_c, 0, 78, 0
2, 3795600, Note_on_c, 0, 79, 100
2, 3795720, Note_on_c, 0, 79, 0
2, 3795720, Note_on_c, 0, 81, 100
2, 3795840, Note_on_c, 0, 81, 0
2, 3795840, Note_on_c, 0, 79, 100
2, 3796560, Note_on_c, 0, 79, 0
2, 3796560, Note_on_c, 0, 78, 100
2, 3796680, Note_on_c, 0, 78, 0
2, 3796680, Note_on_c, 0, 76, 100
2, 3796800, Note_on_c, 0, 76, 0
2, 3796800, Note_on_c, 0, 74, 100
2, 3796920, Note_on_c, 0, 74, 0
2, 3796920, Note_on_c, 0, 73, 100
2, 3797040, Note_on_c, 0, 73, 0
2, 3797040, Note_on_c, 0, 71, 100
2, 3797160, Note_on_c, 0, 71, 0
2, 3797160, Note_on_c, 0, 69, 100
2, 3797280, Note_on_c, 0, 69, 0
2, 3797280, Note_on_c, 0, 67, 100
2, 3797400, Note_on_c, 0, 67, 0
2, 3797400, Note_on_c, 0, 66, 100
2, 3797520, Note_on_c, 0, 66, 0
2, 3797520, Note_on_c, 0, 67, 100
2, 3798000, Note_on_c, 0, 67, 0
2, 3798000, Note_on_c, 0, 66, 100
2, 3798030, Note_on_c, 0, 66, 0
2, 3798030, Note_on_c, 0, 67, 100
2, 3798060, Note_on_c, 0, 67, 0
2, 3798060, Note_on_c, 0, 66, 100
2, 3798090, Note_on_c, 0, 66, 0
2, 3798090, Note_on_c, 0, 64, 100
2, 3798120, Note_on_c, 0, 64, 0
2, 3798120, Note_on_c, 0, 62, 100
2, 3798240, Note_on_c, 0, 62, 0
2, 3798240, Note_on_c, 0, 74, 100
2, 3799320, Note_on_c, 0, 74, 0
2, 3799320, Note_on_c, 0, 71, 100
2, 3799800, Note_on_c, 0, 71, 0
2, 3799800, Note_on_c, 0, 69, 100
2, 3799920, Note_on_c, 0, 69, 0
2, 3799920, Note_on_c, 0, 67, 100
2, 3800040, Note_on_c, 0, 67, 0
2, 3800040, Note_on_c, 0, 65, 100
2, 3800160, Note_on_c, 0, 65, 0
2, 3800160, Note_on_c, 0, 64, 100
2, 3800280, Note_on_c, 0, 64, 0
2, 3800280, Note_on_c, 0, 62, 100
2, 3800400, Note_on_c, 0, 62, 0
2, 3800400, Note_on_c, 0, 65, 100
2, 3800520, Note_on_c, 0, 65, 0
2, 3800520, Note_on_c, 0, 64, 100
2, 3800640, Note_on_c, 0, 64, 0
2, 3800640, Note_on_c, 0, 67, 100
2, 3800760, Note_on_c, 0, 67, 0
2, 3800760, Note_on_c, 0, 72, 100
2, 3800880, Note_on_c, 0, 72, 0
2, 3800880, Note_on_c, 0, 74, 100
2, 3801000, Note_on_c, 0, 74, 0
2, 3801000, Note_on_c, 0, 76, 100
2, 3801120, Note_on_c, 0, 76, 0
2, 3801120, Note_on_c, 0, 69, 100
2, 3801840, Note_on_c, 0, 69, 0
2, 3801840, Note_on_c, 0, 71, 100
2, 3802200, Note_on_c, 0, 71, 0
2, 3802200, Note_on_c, 0, 66, 100
2, 3802320, Note_on_c, 0, 66, 0
2, 3802320, Note_on_c, 0, 67, 100
2, 3802440, Note_on_c, 0, 67, 0
2, 3802440, Note_on_c, 0, 69, 100
2, 3802560, Note_on_c, 0, 69, 0
2, 3802560, Note_on_c, 0, 67, 100
2, 3802680, Note_on_c, 0, 67, 0
2, 3802680, Note_on_c, 0, 66, 100
2, 3802800, Note_on_c, 0, 66, 0
2, 3802800, Note_on_c, 0, 76, 100
2, 3802920, Note_on_c, 0, 76, 0
2, 3802920, Note_on_c, 0, 74, 100
2, 3803040, Note_on_c, 0, 74, 0
2, 3803040, Note_on_c, 0, 72, 100
2, 3803160, Note_on_c, 0, 72, 0
2, 3803160, Note_on_c, 0, 71, 100
2, 3803280, Note_on_c, 0, 71, 0
2, 3803280, Note_on_c, 0, 69, 100
2, 3803400, Note_on_c, 0, 69, 0
2, 3803400, Note_on_c, 0, 67, 100
2, 3803520, Note_on_c, 0, 67, 0
2, 3803520, Note_on_c, 0, 66, 100
2, 3805080, Note_on_c, 0, 66, 0
2, 3805080, Note_on_c, 0, 67, 100
2, 3805200, Note_on_c, 0, 67, 0
2, 3805200, Note_on_c, 0, 69, 100
2, 3805320, Note_on_c, 0, 69, 0
2, 3805320, Note_on_c, 0, 71, 100
2, 3805440, Note_on_c, 0, 71, 0
2, 3805440, Note_on_c, 0, 73, 100
2, 3805560, Note_on_c, 0, 73, 0
2, 3805560, Note_on_c, 0, 74, 100
2, 3805680, Note_on_c, 0, 74, 0
2, 3805680, Note_on_c, 0, 78, 100
2, 3805800, Note_on_c, 0, 78, 0
2, 3805800, Note_on_c, 0, 76, 100
2, 3805920, Note_on_c, 0, 76, 0
2, 3805920, Note_on_c, 0, 74, 100
2, 3806040, Note_on_c, 0, 74, 0
2, 3806040, Note_on_c, 0, 73, 100
2, 3806160, Note_on_c, 0, 73, 0
2, 3806160, Note_on_c, 0, 71, 100
2, 3806280, Note_on_c, 0, 71, 0
2, 3806280, Note_on_c, 0, 69, 100
2, 3806400, Note_on_c, 0, 69, 0
2, 3806400, Note_on_c, 0, 67, 100
2, 3806520, Note_on_c, 0, 67, 0
2, 3806520, Note_on_c, 0, 66, 100
2, 3806640, Note_on_c, 0, 66, 0
2, 3806640, Note_on_c, 0, 64, 100
2, 3806760, Note_on_c, 0, 64, 0
2, 3806760, Note_on_c, 0, 62, 100
2, 3806880, Note_on_c, 0, 62, 0
2, 3806880, Note_on_c, 0, 73, 100
2, 3808080, Note_on_c, 0, 73, 0
2, 3808080, Note_on_c, 0, 71, 100
2, 3808440, Note_on_c, 0, 71, 0
2, 3808440, Note_on_c, 0, 69, 100
2, 3808560, Note_on_c, 0, 69, 0
2, 3808560, Note_on_c, 0, 71, 100
2, 3808680, Note_on_c, 0, 71, 0
2, 3808680, Note_on_c, 0, 73, 100
2, 3808800, Note_on_c, 0, 73, 0
2, 3808800, Note_on_c, 0, 74, 100
2, 3808920, Note_on_c, 0, 74, 0
2, 3808920, Note_on_c, 0, 76, 100
2, 3809040, Note_on_c, 0, 76, 0
2, 3809040, Note_on_c, 0, 78, 100
2, 3809160, Note_on_c, 0, 78, 0
2, 3809160, Note_on_c, 0, 79, 100
2, 3809280, Note_on_c, 0, 79, 0
2, 3809280, Note_on_c, 0, 67, 100
2, 3809520, Note_on_c, 0, 67, 0
2, 3809520, Note_on_c, 0, 66, 100
2, 3809640, Note_on_c, 0, 66, 0
2, 3809640, Note_on_c, 0, 67, 100
2, 3809760, Note_on_c, 0, 67, 0
2, 3809760, Note_on_c, 0, 71, 100
2, 3810360, Note_on_c, 0, 71, 0
2, 3810360, Note_on_c, 0, 69, 100
2, 3810480, Note_on_c, 0, 69, 0
2, 3810480, Note_on_c, 0, 67, 100
2, 3810600, Note_on_c, 0, 67, 0
2, 3810600, Note_on_c, 0, 66, 100
2, 3810720, Note_on_c, 0, 66, 0
2, 3810720, Note_on_c, 0, 64, 100
2, 3810840, Note_on_c, 0, 64, 0
2, 3810840, Note_on_c, 0, 66, 100
2, 3810960, Note_on_c, 0, 66, 0
2, 3810960, Note_on_c, 0, 67, 100
2, 3811080, Note_on_c, 0, 67, 0
2, 3811080, Note_on_c, 0, 66, 100
2, 3811200, Note_on_c, 0, 66, 0
2, 3811200, Note_on_c, 0, 69, 100
2, 3811320, Note_on_c, 0, 69, 0
2, 3811320, Note_on_c, 0, 67, 100
2, 3811440, Note_on_c, 0, 67, 0
2, 3811440, Note_on_c, 0, 66, 100
2, 3811560, Note_on_c, 0, 66, 0
2, 3811560, Note_on_c, 0, 64, 100
2, 3811680, Note_on_c, 0, 64, 0
2, 3811680, Note_on_c, 0, 74, 100
2, 3812400, Note_on_c, 0, 74, 0
2, 3812400, Note_on_c, 0, 73, 100
2, 3812640, Note_on_c, 0, 73, 0
2, 3812640, Note_on_c, 0, 71, 100
2, 3812880, Note_on_c, 0, 71, 0
2, 3812880, Note_on_c, 0, 69, 100
2, 3813120, Note_on_c, 0, 69, 0
2, 3813120, Note_on_c, 0, 78, 100
2, 3813360, Note_on_c, 0, 78, 0
2, 3813360, Note_on_c, 0, 67, 100
2, 3813600, Note_on_c, 0, 67, 0
2, 3813600, Note_on_c, 0, 66, 100
2, 3814320, Note_on_c, 0, 66, 0
2, 3814320, Note_on_c, 0, 64, 100
2, 3814560, Note_on_c, 0, 64, 0
2, 3814560, Note_on_c, 0, 69, 100
2, 3814680, Note_on_c, 0, 69, 0
2, 3814680, Note_on_c, 0, 67, 100
2, 3814800, Note_on_c, 0, 67, 0
2, 3814800, Note_on_c, 0, 66, 100
2, 3815280, Note_on_c, 0, 66, 0
2, 3815280, Note_on_c, 0, 64, 100
2, 3815400, Note_on_c, 0, 64, 0
2, 3815400, Note_on_c, 0, 66, 100
2, 3815520, Note_on_c, 0, 66, 0
2, 3815520, Note_on_c, 0, 74, 100
2, 3815640, Note_on_c, 0, 74, 0
2, 3815640, Note_on_c, 0, 73, 100
2, 3815880, Note_on_c, 0, 73, 0
2, 3815880, Note_on_c, 0, 74, 100
2, 3816000, Note_on_c, 0, 74, 0
2, 3816000, Note_on_c, 0, 67, 100
2, 3816720, Note_on_c, 0, 67, 0
2, 3816720, Note_on_c, 0, 66, 100
2, 3816840, Note_on_c, 0, 66, 0
2, 3816840, Note_on_c, 0, 67, 100
2, 3816960, Note_on_c, 0, 67, 0
2, 3816960, Note_on_c, 0, 69, 100
2, 3817200, Note_on_c, 0, 69, 0
2, 3817200, Note_on_c, 0, 71, 100
2, 3817320, Note_on_c, 0, 71, 0
2, 3817320, Note_on_c, 0, 72, 100
2, 3817440, Note_on_c, 0, 72, 0
2, 3817440, Note_on_c, 0, 71, 100
2, 3817560, Note_on_c, 0, 71, 0
2, 3817560, Note_on_c, 0, 69, 100
2, 3817680, Note_on_c, 0, 69, 0
2, 3817680, Note_on_c, 0, 67, 100
2, 3817800, Note_on_c, 0, 67, 0
2, 3817800, Note_on_c, 0, 74, 100
2, 3817920, Note_on_c, 0, 74, 0
2, 3817920, Note_on_c, 0, 69, 100
2, 3818040, Note_on_c, 0, 69, 0
2, 3818040, Note_on_c, 0, 71, 100
2, 3818160, Note_on_c, 0, 71, 0
2, 3818160, Note_on_c, 0, 73, 100
2, 3818280, Note_on_c, 0, 73, 0
2, 3818280, Note_on_c, 0, 74, 100
2, 3818400, Note_on_c, 0, 74, 0
2, 3818400, Note_on_c, 0, 76, 100
2, 3818520, Note_on_c, 0, 76, 0
2, 3818520, Note_on_c, 0, 78, 100
2, 3818640, Note_on_c, 0, 78, 0
2, 3818640, Note_on_c, 0, 79, 100
2, 3818760, Note_on_c, 0, 79, 0
2, 3818760, Note_on_c, 0, 81, 100
2, 3818880, Note_on_c, 0, 81, 0
2, 3818880, Note_on_c, 0, 79, 100
2, 3819600, Note_on_c, 0, 79, 0
2, 3819600, Note_on_c, 0, 78, 100
2, 3819720, Note_on_c, 0, 78, 0
2, 3819720, Note_on_c, 0, 76, 100
2, 3819840, Note_on_c, 0, 76, 0
2, 3819840, Note_on_c, 0, 74, 100
2, 3819960, Note_on_c, 0, 74, 0
2, 3819960, Note_on_c, 0, 73, 100
2, 3820080, Note_on_c, 0, 73, 0
2, 3820080, Note_on_c, 0, 71, 100
2, 3820200, Note_on_c, 0, 71, 0
2, 3820200, Note_on_c, 0, 69, 100
2, 3820320, Note_on_c, 0, 69, 0
2, 3820320, Note_on_c, 0, 67, 100
2, 3820440, Note_on_c, 0, 67, 0
2, 3820440, Note_on_c, 0, 66, 100
2, 3820560, Note_on_c, 0, 66, 0
2, 3820560, Note_on_c, 0, 67, 100
2, 3821040, Note_on_c, 0, 67, 0
2, 3821040, Note_on_c, 0, 66, 100
2, 3821070, Note_on_c, 0, 66, 0
2, 3821070, Note_on_c, 0, 67, 100
2, 3821100, Note_on_c, 0, 67, 0
2, 3821100, Note_on_c, 0, 66, 100
2, 3821130, Note_on_c, 0, 66, 0
2, 3821130, Note_on_c, 0, 64, 100
2, 3821160, Note_on_c, 0, 64, 0
2, 3821160, Note_on_c, 0, 62, 100
2, 3821280, Note_on_c, 0, 62, 0
2, 3821280, Note_on_c, 0, 74, 100
2, 3822360, Note_on_c, 0, 74, 0
2, 3822360, Note_on_c, 0, 71, 100
2, 3822840, Note_on_c, 0, 71, 0
2, 3822840, Note_on_c, 0, 69, 100
2, 3822960, Note_on_c, 0, 69, 0
2, 3822960, Note_on_c, 0, 67, 100
2, 3823080, Note_on_c, 0, 67, 0
2, 3823080, Note_on_c, 0, 65, 100
2, 3823200, Note_on_c, 0, 65, 0
2, 3823200, Note_on_c, 0, 64, 100
2, 3823320, Note_on_c, 0, 64, 0
2, 3823320, Note_on_c, 0, 62, 100
2, 3823440, Note_on_c, 0, 62, 0
2, 3823440, Note_on_c, 0, 65, 100
2, 3823560, Note_on_c, 0, 65, 0
2, 3823560, Note_on_c, 0, 64, 100
2, 3823680, Note_on_c, 0, 64, 0
2, 3823680, Note_on_c, 0, 67, 100
2, 3823800, Note_on_c, 0, 67, 0
2, 3823800, Note_on_c, 0, 72, 100
2, 3823920, Note_on_c, 0, 72, 0
2, 3823920, Note_on_c, 0, 74, 100
2, 3824040, Note_on_c, 0, 74, 0
2, 3824040, Note_on_c, 0, 76, 100
2, 3824160, Note_on_c, 0, 76, 0
2, 3824160, Note_on_c, 0, 69, 100
2, 3824880, Note_on_c, 0, 69, 0
2, 3824880, Note_on_c, 0, 71, 100
2, 3825240, Note_on_c, 0, 71, 0
2, 3825240, Note_on_c, 0, 66, 100
2, 3825360, Note_on_c, 0, 66, 0
2, 3825360, Note_on_c, 0, 67, 100
2, 3825480, Note_on_c, 0, 67, 0
2, 3825480, Note_on_c, 0, 69, 100
2, 3825600, Note_on_c, 0, 69, 0
2, 3825600, Note_on_c, 0, 67, 100
2, 3825720, Note_on_c, 0, 67, 0
2, 3825720, Note_on_c, 0, 66, 100
2, 3825840, Note_on_c, 0, 66, 0
2, 3825840, Note_on_c, 0, 76, 100
2, 3825960, Note_on_c, 0, 76, 0
2, 3825960, Note_on_c, 0, 74, 100
2, 3826080, Note_on_c, 0, 74, 0
2, 3826080, Note_on_c, 0, 72, 100
2, 3826200, Note_on_c, 0, 72, 0
2, 3826200, Note_on_c, 0, 71, 100
2, 3826320, Note_on_c, 0, 71, 0
2, 3826320, Note_on_c, 0, 69, 100
2, 3826440, Note_on_c, 0, 69, 0
2, 3826440, Note_on_c, 0, 67, 100
2, 3826560, Note_on_c, 0, 67, 0
2, 3826560, Note_on_c, 0, 66, 100
2, 3828120, Note_on_c, 0, 66, 0
2, 3828120, Note_on_c, 0, 67, 100
2, 3828240, Note_on_c, 0, 67, 0
2, 3828240, Note_on_c, 0, 69, 100
2, 3828360, Note_on_c, 0, 69, 0
2, 3828360, Note_on_c, 0, 71, 100
2, 3828480, Note_on_c, 0, 71, 0
2, 3828480, Note_on_c, 0, 73, 100
2, 3828600, Note_on_c, 0, 73, 0
2, 3828600, Note_on_c, 0, 74, 100
2, 3828720, Note_on_c, 0, 74, 0
2, 3828720, Note_on_c, 0, 78, 100
2, 3828840, Note_on_c, 0, 78, 0
2, 3828840, Note_on_c, 0, 76, 100
2, 3828960, Note_on_c, 0, 76, 0
2, 3828960, Note_on_c, 0, 74, 100
2, 3829080, Note_on_c, 0, 74, 0
2, 3829080, Note_on_c, 0, 73, 100
2, 3829200, Note_on_c, 0, 73, 0
2, 3829200, Note_on_c, 0, 71, 100
2, 3829320, Note_on_c, 0, 71, 0
2, 3829320, Note_on_c, 0, 69, 100
2, 3829440, Note_on_c, 0, 69, 0
2, 3829440, Note_on_c, 0, 67, 100
2, 3829560, Note_on_c, 0, 67, 0
2, 3829560, Note_on_c, 0, 66, 100
2, 3829680, Note_on_c, 0, 66, 0
2, 3829680, Note_on_c, 0, 64, 100
2, 3829800, Note_on_c, 0, 64, 0
2, 3829800, Note_on_c, 0, 62, 100
2, 3829920, Note_on_c, 0, 62, 0
2, 3829920, Note_on_c, 0, 73, 100
2, 3831120, Note_on_c, 0, 73, 0
2, 3831120, Note_on_c, 0, 71, 100
2, 3831480, Note_on_c, 0, 71, 0
2, 3831480, Note_on_c, 0, 69, 100
2, 3831600, Note_on_c, 0, 69, 0
2, 3831600, Note_on_c, 0, 71, 100
2, 3831720, Note_on_c, 0, 71, 0
2, 3831720, Note_on_c, 0, 73, 100
2, 3831840, Note_on_c, 0, 73, 0
2, 3831840, Note_on_c, 0, 74, 100
2, 3831960, Note_on_c, 0, 74, 0
2, 3831960, Note_on_c, 0, 76, 100
2, 3832080, Note_on_c, 0, 76, 0
2, 3832080, Note_on_c, 0, 78, 100
2, 3832200, Note_on_c, 0, 78, 0
2, 3832200, Note_on_c, 0, 79, 100
2, 3832320, Note_on_c, 0, 79, 0
2, 3832320, Note_on_c, 0, 67, 100
2, 3832560, Note_on_c, 0, 67, 0
2, 3832560, Note_on_c, 0, 66, 100
2, 3832680, Note_on_c, 0, 66, 0
2, 3832680, Note_on_c, 0, 67, 100
2, 3832800, Note_on_c, 0, 67, 0
2, 3832800, Note_on_c, 0, 71, 100
2, 3833400, Note_on_c, 0, 71, 0
2, 3833400, Note_on_c, 0, 69, 100
2, 3833520, Note_on_c, 0, 69, 0
2, 3833520, Note_on_c, 0, 67, 100
2, 3833640, Note_on_c, 0, 67, 0
2, 3833640, Note_on_c, 0, 66, 100
2, 3833760, Note_on_c, 0, 66, 0
2, 3833760, Note_on_c, 0, 64, 100
2, 3833880, Note_on_c, 0, 64, 0
2, 3833880, Note_on_c, 0, 66, 100
2, 3834000, Note_on_c, 0, 66, 0
2, 3834000, Note_on_c, 0, 67, 100
2, 3834120, Note_on_c, 0, 67, 0
2, 3834120, Note_on_c, 0, 66, 100
2, 3834240, Note_on_c, 0, 66, 0
2, 3834240, Note_on_c, 0, 69, 100
2, 3834360, Note_on_c, 0, 69, 0
2, 3834360, Note_on_c, 0, 67, 100
2, 3834480, Note_on_c, 0, 67, 0
2, 3834480, Note_on_c, 0, 66, 100
2, 3834600, Note_on_c, 0, 66, 0
2, 3834600, Note_on_c, 0, 64, 100
2, 3834720, Note_on_c, 0, 64, 0
2, 3834720, Note_on_c, 0, 74, 100
2, 3835440, Note_on_c, 0, 74, 0
2, 3835440, Note_on_c, 0, 73, 100
2, 3835680, Note_on_c, 0, 73, 0
2, 3835680, Note_on_c, 0, 71, 100
2, 3835920, Note_on_c, 0, 71, 0
2, 3835920, Note_on_c, 0, 69, 100
2, 3836160, Note_on_c, 0, 69, 0
2, 3836160, Note_on_c, 0, 78, 100
2, 3836400, Note_on_c, 0, 78, 0
2, 3836400, Note_on_c, 0, 67, 100
2, 3836640, Note_on_c, 0, 67, 0
2, 3836640, Note_on_c, 0, 66, 100
2, 3837360, Note_on_c, 0, 66, 0
2, 3837360, Note_on_c, 0, 64, 100
2, 3837600, Note_on_c, 0, 64, 0
2, 3837600, Note_on_c, 0, 69, 100
2, 3837720, Note_on_c, 0, 69, 0
2, 3837720, Note_on_c, 0, 67, 100
2, 3837840, Note_on_c, 0, 67, 0
2, 3837840, Note_on_c, 0, 66, 100
2, 3838320, Note_on_c, 0, 66, 0
2, 3838320, Note_on_c, 0, 64, 100
2, 3838440, Note_on_c, 0, 64, 0
2, 3838440, Note_on_c, 0, 66, 100
2, 3838560, Note_on_c, 0, 66, 0
2, 3838560, Note_on_c, 0, 74, 100
2, 3838680, Note_on_c, 0, 74, 0
2, 3838680, Note_on_c, 0, 73, 100
2, 3838920, Note_on_c, 0, 73, 0
2, 3838920, Note_on_c, 0, 74, 100
2, 3839040, Note_on_c, 0, 74, 0
2, 3839040, Note_on_c, 0, 67, 100
2, 3841200, Note_on_c, 0, 67, 0
2, 3841200, Note_on_c, 0, 66, 100
2, 3841320, Note_on_c, 0, 66, 0
2, 3841320, Note_on_c, 0, 67, 100
2, 3841440, Note_on_c, 0, 67, 0
2, 3841440, Note_on_c, 0, 69, 100
2, 3841680, Note_on_c, 0, 69, 0
2, 3841680, Note_on_c, 0, 71, 100
2, 3841800, Note_on_c, 0, 71, 0
2, 3841800, Note_on_c, 0, 72, 100
2, 3841920, Note_on_c, 0, 72, 0
2, 3841920, Note_on_c, 0, 71, 100
2, 3842040, Note_on_c, 0, 71, 0
2, 3842040, Note_on_c, 0, 69, 100
2, 3842160, Note_on_c, 0, 69, 0
2, 3842160, Note_on_c, 0, 67, 100
2, 3842280, Note_on_c, 0, 67, 0
2, 3842280, Note_on_c, 0, 79, 100
2, 3842400, Note_on_c, 0, 79, 0
2, 3842400, Note_on_c, 0, 78, 100
2, 3843000, Note_on_c, 0, 78, 0
2, 3843000, Note_on_c, 0, 81, 100
2, 3843120, Note_on_c, 0, 81, 0
2, 3843120, Note_on_c, 0, 79, 100
2, 3843240, Note_on_c, 0, 79, 0
2, 3843240, Note_on_c, 0, 78, 100
2, 3843360, Note_on_c, 0, 78, 0
2, 3843360, Note_on_c, 0, 79, 100
2, 3843480, Note_on_c, 0, 79, 0
2, 3843480, Note_on_c, 0, 76, 100
2, 3843840, Note_on_c, 0, 76, 0
2, 3843840, Note_on_c, 0, 78, 100
2, 3843960, Note_on_c, 0, 78, 0
2, 3843960, Note_on_c, 0, 77, 100
2, 3844140, Note_on_c, 0, 77, 0
2, 3844140, Note_on_c, 0, 78, 100
2, 3844200, Note_on_c, 0, 78, 0
2, 3844200, Note_on_c, 0, 79, 100
2, 3844260, Note_on_c, 0, 79, 0
2, 3844260, Note_on_c, 0, 78, 100
2, 3844320, Note_on_c, 0, 78, 0
2, 3844320, Note_on_c, 0, 69, 100
2, 3844560, Note_on_c, 0, 69, 0
2, 3844560, Note_on_c, 0, 78, 100
2, 3845040, Note_on_c, 0, 78, 0
2, 3845040, Note_on_c, 0, 79, 100
2, 3845280, Note_on_c, 0, 79, 0
2, 3845280, Note_on_c, 0, 78, 100
2, 3845400, Note_on_c, 0, 78, 0
2, 3845400, Note_on_c, 0, 79, 100
2, 3845520, Note_on_c, 0, 79, 0
2, 3845520, Note_on_c, 0, 81, 100
2, 3845640, Note_on_c, 0, 81, 0
2, 3845640, Note_on_c, 0, 79, 100
2, 3845760, Note_on_c, 0, 79, 0
2, 3845760, Note_on_c, 0, 78, 100
2, 3845880, Note_on_c, 0, 78, 0
2, 3845880, Note_on_c, 0, 76, 100
2, 3846000, Note_on_c, 0, 76, 0
2, 3846000, Note_on_c, 0, 74, 100
2, 3846120, Note_on_c, 0, 74, 0
2, 3846120, Note_on_c, 0, 72, 100
2, 3846240, Note_on_c, 0, 72, 0
2, 3846240, Note_on_c, 0, 71, 100
2, 3846360, Note_on_c, 0, 71, 0
2, 3846360, Note_on_c, 0, 69, 100
2, 3846480, Note_on_c, 0, 69, 0
2, 3846480, Note_on_c, 0, 67, 100
2, 3846600, Note_on_c, 0, 67, 0
2, 3846600, Note_on_c, 0, 66, 100
2, 3848400, Note_on_c, 0, 66, 0
2, 3848400, Note_on_c, 0, 67, 100
2, 3848520, Note_on_c, 0, 67, 0
2, 3848520, Note_on_c, 0, 66, 100
2, 3849120, Note_on_c, 0, 66, 0
2, 3849120, Note_on_c, 0, 67, 100
2, 3849360, Note_on_c, 0, 67, 0
2, 3849360, Note_on_c, 0, 69, 100
2, 3849480, Note_on_c, 0, 69, 0
2, 3849480, Note_on_c, 0, 67, 100
2, 3849600, Note_on_c, 0, 67, 0
2, 3849600, Note_on_c, 0, 64, 100
2, 3850560, Note_on_c, 0, 64, 0
2, 3850560, Note_on_c, 0, 66, 100
2, 3851160, Note_on_c, 0, 66, 0
2, 3851160, Note_on_c, 0, 67, 100
2, 3851280, Note_on_c, 0, 67, 0
2, 3851280, Note_on_c, 0, 64, 100
2, 3851400, Note_on_c, 0, 64, 0
2, 3851400, Note_on_c, 0, 66, 100
2, 3851520, Note_on_c, 0, 66, 0
2, 3851520, Note_on_c, 0, 67, 100
2, 3851640, Note_on_c, 0, 67, 0
2, 3851640, Note_on_c, 0, 68, 100
2, 3851760, Note_on_c, 0, 68, 0
2, 3851760, Note_on_c, 0, 69, 100
2, 3851880, Note_on_c, 0, 69, 0
2, 3851880, Note_on_c, 0, 71, 100
2, 3852000, Note_on_c, 0, 71, 0
2, 3852000, Note_on_c, 0, 72, 100
2, 3852120, Note_on_c, 0, 72, 0
2, 3852120, Note_on_c, 0, 74, 100
2, 3852240, Note_on_c, 0, 74, 0
2, 3852240, Note_on_c, 0, 76, 100
2, 3852360, Note_on_c, 0, 76, 0
2, 3852360, Note_on_c, 0, 74, 100
2, 3852480, Note_on_c, 0, 74, 0
2, 3852480, Note_on_c, 0, 60, 100
2, 3854040, Note_on_c, 0, 60, 0
2, 3854040, Note_on_c, 0, 62, 100
2, 3854160, Note_on_c, 0, 62, 0
2, 3854160, Note_on_c, 0, 64, 100
2, 3854280, Note_on_c, 0, 64, 0
2, 3854280, Note_on_c, 0, 62, 100
2, 3854400, Note_on_c, 0, 62, 0
2, 3854400, Note_on_c, 0, 63, 100
2, 3854520, Note_on_c, 0, 63, 0
2, 3854520, Note_on_c, 0, 66, 100
2, 3854640, Note_on_c, 0, 66, 0
2, 3854640, Note_on_c, 0, 67, 100
2, 3854760, Note_on_c, 0, 67, 0
2, 3854760, Note_on_c, 0, 66, 100
2, 3854880, Note_on_c, 0, 66, 0
2, 3854880, Note_on_c, 0, 67, 100
2, 3855000, Note_on_c, 0, 67, 0
2, 3855000, Note_on_c, 0, 69, 100
2, 3855120, Note_on_c, 0, 69, 0
2, 3855120, Note_on_c, 0, 71, 100
2, 3855240, Note_on_c, 0, 71, 0
2, 3855240, Note_on_c, 0, 69, 100
2, 3855360, Note_on_c, 0, 69, 0
2, 3855360, Note_on_c, 0, 62, 100
2, 3857040, Note_on_c, 0, 62, 0
2, 3857040, Note_on_c, 0, 64, 100
2, 3857280, Note_on_c, 0, 64, 0
2, 3857280, Note_on_c, 0, 66, 100
2, 3857520, Note_on_c, 0, 66, 0
2, 3857520, Note_on_c, 0, 67, 100
2, 3857760, Note_on_c, 0, 67, 0
2, 3857760, Note_on_c, 0, 71, 100
2, 3857880, Note_on_c, 0, 71, 0
2, 3857880, Note_on_c, 0, 69, 100
2, 3858000, Note_on_c, 0, 69, 0
2, 3858000, Note_on_c, 0, 72, 100
2, 3858120, Note_on_c, 0, 72, 0
2, 3858120, Note_on_c, 0, 71, 100
2, 3858240, Note_on_c, 0, 71, 0
2, 3858240, Note_on_c, 0, 69, 100
2, 3858480, Note_on_c, 0, 69, 0
2, 3858480, Note_on_c, 0, 71, 100
2, 3858720, Note_on_c, 0, 71, 0
2, 3858720, Note_on_c, 0, 72, 100
2, 3858960, Note_on_c, 0, 72, 0
2, 3858960, Note_on_c, 0, 74, 100
2, 3859200, Note_on_c, 0, 74, 0
2, 3859200, Note_on_c, 0, 72, 100
2, 3859260, Note_on_c, 0, 72, 0
2, 3859260, Note_on_c, 0, 74, 100
2, 3859320, Note_on_c, 0, 74, 0
2, 3859320, Note_on_c, 0, 76, 100
2, 3859560, Note_on_c, 0, 76, 0
2, 3859560, Note_on_c, 0, 74, 100
2, 3859680, Note_on_c, 0, 74, 0
2, 3859680, Note_on_c, 0, 71, 100
2, 3860280, Note_on_c, 0, 71, 0
2, 3860280, Note_on_c, 0, 72, 100
2, 3860400, Note_on_c, 0, 72, 0
2, 3860400, Note_on_c, 0, 74, 100
2, 3860520, Note_on_c, 0, 74, 0
2, 3860520, Note_on_c, 0, 76, 100
2, 3860640, Note_on_c, 0, 76, 0
2, 3860640, Note_on_c, 0, 78, 100
2, 3860760, Note_on_c, 0, 78, 0
2, 3860760, Note_on_c, 0, 79, 100
2, 3860880, Note_on_c, 0, 79, 0
2, 3860880, Note_on_c, 0, 81, 100
2, 3861000, Note_on_c, 0, 81, 0
2, 3861000, Note_on_c, 0, 83, 100
2, 3861120, Note_on_c, 0, 83, 0
2, 3861120, Note_on_c, 0, 79, 100
2, 3861240, Note_on_c, 0, 79, 0
2, 3861240, Note_on_c, 0, 74, 100
2, 3861360, Note_on_c, 0, 74, 0
2, 3861360, Note_on_c, 0, 71, 100
2, 3861480, Note_on_c, 0, 71, 0
2, 3861480, Note_on_c, 0, 67, 100
2, 3864240, Note_on_c, 0, 67, 0
2, 3864240, Note_on_c, 0, 66, 100
2, 3864360, Note_on_c, 0, 66, 0
2, 3864360, Note_on_c, 0, 67, 100
2, 3864480, Note_on_c, 0, 67, 0
2, 3864480, Note_on_c, 0, 69, 100
2, 3864720, Note_on_c, 0, 69, 0
2, 3864720, Note_on_c, 0, 71, 100
2, 3864840, Note_on_c, 0, 71, 0
2, 3864840, Note_on_c, 0, 72, 100
2, 3864960, Note_on_c, 0, 72, 0
2, 3864960, Note_on_c, 0, 71, 100
2, 3865080, Note_on_c, 0, 71, 0
2, 3865080, Note_on_c, 0, 69, 100
2, 3865200, Note_on_c, 0, 69, 0
2, 3865200, Note_on_c, 0, 67, 100
2, 3865320, Note_on_c, 0, 67, 0
2, 3865320, Note_on_c, 0, 79, 100
2, 3865440, Note_on_c, 0, 79, 0
2, 3865440, Note_on_c, 0, 78, 100
2, 3866040, Note_on_c, 0, 78, 0
2, 3866040, Note_on_c, 0, 81, 100
2, 3866160, Note_on_c, 0, 81, 0
2, 3866160, Note_on_c, 0, 79, 100
2, 3866280, Note_on_c, 0, 79, 0
2, 3866280, Note_on_c, 0, 78, 100
2, 3866400, Note_on_c, 0, 78, 0
2, 3866400, Note_on_c, 0, 79, 100
2, 3866520, Note_on_c, 0, 79, 0
2, 3866520, Note_on_c, 0, 76, 100
2, 3866880, Note_on_c, 0, 76, 0
2, 3866880, Note_on_c, 0, 78, 100
2, 3867000, Note_on_c, 0, 78, 0
2, 3867000, Note_on_c, 0, 77, 100
2, 3867180, Note_on_c, 0, 77, 0
2, 3867180, Note_on_c, 0, 78, 100
2, 3867240, Note_on_c, 0, 78, 0
2, 3867240, Note_on_c, 0, 79, 100
2, 3867300, Note_on_c, 0, 79, 0
2, 3867300, Note_on_c, 0, 78, 100
2, 3867360, Note_on_c, 0, 78, 0
2, 3867360, Note_on_c, 0, 69, 100
2, 3867600, Note_on_c, 0, 69, 0
2, 3867600, Note_on_c, 0, 78, 100
2, 3868080, Note_on_c, 0, 78, 0
2, 3868080, Note_on_c, 0, 79, 100
2, 3868320, Note_on_c, 0, 79, 0
2, 3868320, Note_on_c, 0, 78, 100
2, 3868440, Note_on_c, 0, 78, 0
2, 3868440, Note_on_c, 0, 79, 100
2, 3868560, Note_on_c, 0, 79, 0
2, 3868560, Note_on_c, 0, 81, 100
2, 3868680, Note_on_c, 0, 81, 0
2, 3868680, Note_on_c, 0, 79, 100
2, 3868800, Note_on_c, 0, 79, 0
2, 3868800, Note_on_c, 0, 78, 100
2, 3868920, Note_on_c, 0, 78, 0
2, 3868920, Note_on_c, 0, 76, 100
2, 3869040, Note_on_c, 0, 76, 0
2, 3869040, Note_on_c, 0, 74, 100
2, 3869160, Note_on_c, 0, 74, 0
2, 3869160, Note_on_c, 0, 72, 100
2, 3869280, Note_on_c, 0, 72, 0
2, 3869280, Note_on_c, 0, 71, 100
2, 3869400, Note_on_c, 0, 71, 0
2, 3869400, Note_on_c, 0, 69, 100
2, 3869520, Note_on_c, 0, 69, 0
2, 3869520, Note_on_c, 0, 67, 100
2, 3869640, Note_on_c, 0, 67, 0
2, 3869640, Note_on_c, 0, 66, 100
2, 3871440, Note_on_c, 0, 66, 0
2, 3871440, Note_on_c, 0, 67, 100
2, 3871560, Note_on_c, 0, 67, 0
2, 3871560, Note_on_c, 0, 66, 100
2, 3872160, Note_on_c, 0, 66, 0
2, 3872160, Note_on_c, 0, 67, 100
2, 3872400, Note_on_c, 0, 67, 0
2, 3872400, Note_on_c, 0, 69, 100
2, 3872520, Note_on_c, 0, 69, 0
2, 3872520, Note_on_c, 0, 67, 100
2, 3872640, Note_on_c, 0, 67, 0
2, 3872640, Note_on_c, 0, 64, 100
2, 3873600, Note_on_c, 0, 64, 0
2, 3873600, Note_on_c, 0, 66, 100
2, 3874200, Note_on_c, 0, 66, 0
2, 3874200, Note_on_c, 0, 67, 100
2, 3874320, Note_on_c, 0, 67, 0
2, 3874320, Note_on_c, 0, 64, 100
2, 3874440, Note_on_c, 0, 64, 0
2, 3874440, Note_on_c, 0, 66, 100
2, 3874560, Note_on_c, 0, 66, 0
2, 3874560, Note_on_c, 0, 67, 100
2, 3874680, Note_on_c, 0, 67, 0
2, 3874680, Note_on_c, 0, 68, 100
2, 3874800, Note_on_c, 0, 68, 0
2, 3874800, Note_on_c, 0, 69, 100
2, 3874920, Note_on_c, 0, 69, 0
2, 3874920, Note_on_c, 0, 71, 100
2, 3875040, Note_on_c, 0, 71, 0
2, 3875040, Note_on_c, 0, 72, 100
2, 3875160, Note_on_c, 0, 72, 0
2, 3875160, Note_on_c, 0, 74, 100
2, 3875280, Note_on_c, 0, 74, 0
2, 3875280, Note_on_c, 0, 76, 100
2, 3875400, Note_on_c, 0, 76, 0
2, 3875400, Note_on_c, 0, 74, 100
2, 3875520, Note_on_c, 0, 74, 0
2, 3875520, Note_on_c, 0, 60, 100
2, 3877080, Note_on_c, 0, 60, 0
2, 3877080, Note_on_c, 0, 62, 100
2, 3877200, Note_on_c, 0, 62, 0
2, 3877200, Note_on_c, 0, 64, 100
2, 3877320, Note_on_c, 0, 64, 0
2, 3877320, Note_on_c, 0, 62, 100
2, 3877440, Note_on_c, 0, 62, 0
2, 3877440, Note_on_c, 0, 63, 100
2, 3877560, Note_on_c, 0, 63, 0
2, 3877560, Note_on_c, 0, 66, 100
2, 3877680, Note_on_c, 0, 66, 0
2, 3877680, Note_on_c, 0, 67, 100
2, 3877800, Note_on_c, 0, 67, 0
2, 3877800, Note_on_c, 0, 66, 100
2, 3877920, Note_on_c, 0, 66, 0
2, 3877920, Note_on_c, 0, 67, 100
2, 3878040, Note_on_c, 0, 67, 0
2, 3878040, Note_on_c, 0, 69, 100
2, 3878160, Note_on_c, 0, 69, 0
2, 3878160, Note_on_c, 0, 71, 100
2, 3878280, Note_on_c, 0, 71, 0
2, 3878280, Note_on_c, 0, 69, 100
2, 3878400, Note_on_c, 0, 69, 0
2, 3878400, Note_on_c, 0, 62, 100
2, 3880080, Note_on_c, 0, 62, 0
2, 3880080, Note_on_c, 0, 64, 100
2, 3880320, Note_on_c, 0, 64, 0
2, 3880320, Note_on_c, 0, 66, 100
2, 3880560, Note_on_c, 0, 66, 0
2, 3880560, Note_on_c, 0, 67, 100
2, 3880800, Note_on_c, 0, 67, 0
2, 3880800, Note_on_c, 0, 71, 100
2, 3880920, Note_on_c, 0, 71, 0
2, 3880920, Note_on_c, 0, 69, 100
2, 3881040, Note_on_c, 0, 69, 0
2, 3881040, Note_on_c, 0, 72, 100
2, 3881160, Note_on_c, 0, 72, 0
2, 3881160, Note_on_c, 0, 71, 100
2, 3881280, Note_on_c, 0, 71, 0
2, 3881280, Note_on_c, 0, 69, 100
2, 3881520, Note_on_c, 0, 69, 0
2, 3881520, Note_on_c, 0, 71, 100
2, 3881760, Note_on_c, 0, 71, 0
2, 3881760, Note_on_c, 0, 72, 100
2, 3882000, Note_on_c, 0, 72, 0
2, 3882000, Note_on_c, 0, 74, 100
2, 3882240, Note_on_c, 0, 74, 0
2, 3882240, Note_on_c, 0, 72, 100
2, 3882300, Note_on_c, 0, 72, 0
2, 3882300, Note_on_c, 0, 74, 100
2, 3882360, Note_on_c, 0, 74, 0
2, 3882360, Note_on_c, 0, 76, 100
2, 3882600, Note_on_c, 0, 76, 0
2, 3882600, Note_on_c, 0, 74, 100
2, 3882720, Note_on_c, 0, 74, 0
2, 3882720, Note_on_c, 0, 71, 100
2, 3883320, Note_on_c, 0, 71, 0
2, 3883320, Note_on_c, 0, 72, 100
2, 3883440, Note_on_c, 0, 72, 0
2, 3883440, Note_on_c, 0, 74, 100
2, 3883560, Note_on_c, 0, 74, 0
2, 3883560, Note_on_c, 0, 76, 100
2, 3883680, Note_on_c, 0, 76, 0
2, 3883680, Note_on_c, 0, 78, 100
2, 3883800, Note_on_c, 0, 78, 0
2, 3883800, Note_on_c, 0, 79, 100
2, 3883920, Note_on_c, 0, 79, 0
2, 3883920, Note_on_c, 0, 81, 100
2, 3884040, Note_on_c, 0, 81, 0
2, 3884040, Note_on_c, 0, 83, 100
2, 3884160, Note_on_c, 0, 83, 0
2, 3884160, Note_on_c, 0, 79, 100
2, 3884280, Note_on_c, 0, 79, 0
2, 3884280, Note_on_c, 0, 74, 100
2, 3884400, Note_on_c, 0, 74, 0
2, 3884400, Note_on_c, 0, 71, 100
2, 3884520, Note_on_c, 0, 71, 0
2, 3884520, Note_on_c, 0, 67, 100
2, 3884640, Note_on_c, 0, 67, 0
2, 3884640, Note_on_c, 0, 71, 100
2, 3885600, Note_on_c, 0, 71, 0
2, 3885600, Note_on_c, 0, 72, 100
2, 3885660, Note_on_c, 0, 72, 0
2, 3885660, Note_on_c, 0, 71, 100
2, 3885720, Note_on_c, 0, 71, 0
2, 3885720, Note_on_c, 0, 69, 100
2, 3885780, Note_on_c, 0, 69, 0
2, 3885780, Note_on_c, 0, 71, 100
2, 3885840, Note_on_c, 0, 71, 0
2, 3885840, Note_on_c, 0, 66, 100
2, 3886140, Note_on_c, 0, 66, 0
2, 3886140, Note_on_c, 0, 67, 100
2, 3886200, Note_on_c, 0, 67, 0
2, 3886200, Note_on_c, 0, 69, 100
2, 3886260, Note_on_c, 0, 69, 0
2, 3886260, Note_on_c, 0, 71, 100
2, 3886320, Note_on_c, 0, 71, 0
2, 3886320, Note_on_c, 0, 72, 100
2, 3886440, Note_on_c, 0, 72, 0
2, 3886440, Note_on_c, 0, 74, 100
2, 3886560, Note_on_c, 0, 74, 0
2, 3886560, Note_on_c, 0, 72, 100
2, 3886590, Note_on_c, 0, 72, 0
2, 3886590, Note_on_c, 0, 71, 100
2, 3886680, Note_on_c, 0, 71, 0
2, 3886680, Note_on_c, 0, 69, 100
2, 3886800, Note_on_c, 0, 69, 0
2, 3886800, Note_on_c, 0, 67, 100
2, 3886920, Note_on_c, 0, 67, 0
2, 3886920, Note_on_c, 0, 74, 100
2, 3887040, Note_on_c, 0, 74, 0
2, 3887040, Note_on_c, 0, 76, 100
2, 3887100, Note_on_c, 0, 76, 0
2, 3887100, Note_on_c, 0, 74, 100
2, 3887160, Note_on_c, 0, 74, 0
2, 3887160, Note_on_c, 0, 73, 100
2, 3887220, Note_on_c, 0, 73, 0
2, 3887220, Note_on_c, 0, 74, 100
2, 3887280, Note_on_c, 0, 74, 0
2, 3887280, Note_on_c, 0, 73, 100
2, 3887580, Note_on_c, 0, 73, 0
2, 3887580, Note_on_c, 0, 74, 100
2, 3887640, Note_on_c, 0, 74, 0
2, 3887640, Note_on_c, 0, 76, 100
2, 3887700, Note_on_c, 0, 76, 0
2, 3887700, Note_on_c, 0, 78, 100
2, 3887760, Note_on_c, 0, 78, 0
2, 3887760, Note_on_c, 0, 79, 100
2, 3887880, Note_on_c, 0, 79, 0
2, 3887880, Note_on_c, 0, 81, 100
2, 3888000, Note_on_c, 0, 81, 0
2, 3888000, Note_on_c, 0, 79, 100
2, 3888030, Note_on_c, 0, 79, 0
2, 3888030, Note_on_c, 0, 78, 100
2, 3888120, Note_on_c, 0, 78, 0
2, 3888120, Note_on_c, 0, 76, 100
2, 3888240, Note_on_c, 0, 76, 0
2, 3888240, Note_on_c, 0, 74, 100
2, 3888360, Note_on_c, 0, 74, 0
2, 3888360, Note_on_c, 0, 79, 100
2, 3888480, Note_on_c, 0, 79, 0
2, 3888480, Note_on_c, 0, 81, 100
2, 3888540, Note_on_c, 0, 81, 0
2, 3888540, Note_on_c, 0, 79, 100
2, 3888600, Note_on_c, 0, 79, 0
2, 3888600, Note_on_c, 0, 78, 100
2, 3888660, Note_on_c, 0, 78, 0
2, 3888660, Note_on_c, 0, 79, 100
2, 3888720, Note_on_c, 0, 79, 0
2, 3888720, Note_on_c, 0, 78, 100
2, 3889020, Note_on_c, 0, 78, 0
2, 3889020, Note_on_c, 0, 76, 100
2, 3889080, Note_on_c, 0, 76, 0
2, 3889080, Note_on_c, 0, 78, 100
2, 3889140, Note_on_c, 0, 78, 0
2, 3889140, Note_on_c, 0, 79, 100
2, 3889200, Note_on_c, 0, 79, 0
2, 3889200, Note_on_c, 0, 76, 100
2, 3889320, Note_on_c, 0, 76, 0
2, 3889320, Note_on_c, 0, 69, 100
2, 3889440, Note_on_c, 0, 69, 0
2, 3889440, Note_on_c, 0, 83, 100
2, 3889560, Note_on_c, 0, 83, 0
2, 3889560, Note_on_c, 0, 81, 100
2, 3889680, Note_on_c, 0, 81, 0
2, 3889680, Note_on_c, 0, 79, 100
2, 3889920, Note_on_c, 0, 79, 0
2, 3889920, Note_on_c, 0, 78, 100
2, 3889935, Note_on_c, 0, 78, 0
2, 3889935, Note_on_c, 0, 76, 100
2, 3889980, Note_on_c, 0, 76, 0
2, 3889980, Note_on_c, 0, 78, 100
2, 3890040, Note_on_c, 0, 78, 0
2, 3890040, Note_on_c, 0, 76, 100
2, 3890100, Note_on_c, 0, 76, 0
2, 3890100, Note_on_c, 0, 74, 100
2, 3890160, Note_on_c, 0, 74, 0
2, 3890160, Note_on_c, 0, 73, 100
2, 3890460, Note_on_c, 0, 73, 0
2, 3890460, Note_on_c, 0, 74, 100
2, 3890520, Note_on_c, 0, 74, 0
2, 3890520, Note_on_c, 0, 76, 100
2, 3890580, Note_on_c, 0, 76, 0
2, 3890580, Note_on_c, 0, 78, 100
2, 3890640, Note_on_c, 0, 78, 0
2, 3890640, Note_on_c, 0, 79, 100
2, 3890760, Note_on_c, 0, 79, 0
2, 3890760, Note_on_c, 0, 81, 100
2, 3890880, Note_on_c, 0, 81, 0
2, 3890880, Note_on_c, 0, 83, 100
2, 3891000, Note_on_c, 0, 83, 0
2, 3891000, Note_on_c, 0, 84, 100
2, 3891060, Note_on_c, 0, 84, 0
2, 3891060, Note_on_c, 0, 83, 100
2, 3891120, Note_on_c, 0, 83, 0
2, 3891120, Note_on_c, 0, 81, 100
2, 3891240, Note_on_c, 0, 81, 0
2, 3891240, Note_on_c, 0, 79, 100
2, 3891360, Note_on_c, 0, 79, 0
2, 3891360, Note_on_c, 0, 77, 100
2, 3891420, Note_on_c, 0, 77, 0
2, 3891420, Note_on_c, 0, 76, 100
2, 3891480, Note_on_c, 0, 76, 0
2, 3891480, Note_on_c, 0, 77, 100
2, 3891600, Note_on_c, 0, 77, 0
2, 3891600, Note_on_c, 0, 76, 100
2, 3891630, Note_on_c, 0, 76, 0
2, 3891630, Note_on_c, 0, 77, 100
2, 3891660, Note_on_c, 0, 77, 0
2, 3891660, Note_on_c, 0, 74, 100
2, 3891900, Note_on_c, 0, 74, 0
2, 3891900, Note_on_c, 0, 79, 100
2, 3891960, Note_on_c, 0, 79, 0
2, 3891960, Note_on_c, 0, 81, 100
2, 3892020, Note_on_c, 0, 81, 0
2, 3892020, Note_on_c, 0, 83, 100
2, 3892080, Note_on_c, 0, 83, 0
2, 3892080, Note_on_c, 0, 84, 100
2, 3892140, Note_on_c, 0, 84, 0
2, 3892140, Note_on_c, 0, 86, 100
2, 3892200, Note_on_c, 0, 86, 0
2, 3892200, Note_on_c, 0, 84, 100
2, 3892320, Note_on_c, 0, 84, 0
2, 3892320, Note_on_c, 0, 83, 100
2, 3892440, Note_on_c, 0, 83, 0
2, 3892440, Note_on_c, 0, 81, 100
2, 3892560, Note_on_c, 0, 81, 0
2, 3892560, Note_on_c, 0, 79, 100
2, 3892680, Note_on_c, 0, 79, 0
2, 3892680, Note_on_c, 0, 77, 100
2, 3892800, Note_on_c, 0, 77, 0
2, 3892800, Note_on_c, 0, 76, 100
2, 3892860, Note_on_c, 0, 76, 0
2, 3892860, Note_on_c, 0, 74, 100
2, 3893040, Note_on_c, 0, 74, 0
2, 3893040, Note_on_c, 0, 76, 100
2, 3893100, Note_on_c, 0, 76, 0
2, 3893100, Note_on_c, 0, 74, 100
2, 3893340, Note_on_c, 0, 74, 0
2, 3893340, Note_on_c, 0, 72, 100
2, 3893400, Note_on_c, 0, 72, 0
2, 3893400, Note_on_c, 0, 71, 100
2, 3893460, Note_on_c, 0, 71, 0
2, 3893460, Note_on_c, 0, 72, 100
2, 3893520, Note_on_c, 0, 72, 0
2, 3893520, Note_on_c, 0, 74, 100
2, 3893580, Note_on_c, 0, 74, 0
2, 3893580, Note_on_c, 0, 76, 100
2, 3893640, Note_on_c, 0, 76, 0
2, 3893640, Note_on_c, 0, 74, 100
2, 3893760, Note_on_c, 0, 74, 0
2, 3893760, Note_on_c, 0, 79, 100
2, 3893880, Note_on_c, 0, 79, 0
2, 3893880, Note_on_c, 0, 76, 100
2, 3894000, Note_on_c, 0, 76, 0
2, 3894000, Note_on_c, 0, 72, 100
2, 3894120, Note_on_c, 0, 72, 0
2, 3894120, Note_on_c, 0, 71, 100
2, 3894240, Note_on_c, 0, 71, 0
2, 3894240, Note_on_c, 0, 69, 100
2, 3894300, Note_on_c, 0, 69, 0
2, 3894300, Note_on_c, 0, 67, 100
2, 3894360, Note_on_c, 0, 67, 0
2, 3894360, Note_on_c, 0, 69, 100
2, 3894480, Note_on_c, 0, 69, 0
2, 3894480, Note_on_c, 0, 67, 100
2, 3894780, Note_on_c, 0, 67, 0
2, 3894780, Note_on_c, 0, 69, 100
2, 3894840, Note_on_c, 0, 69, 0
2, 3894840, Note_on_c, 0, 71, 100
2, 3894900, Note_on_c, 0, 71, 0
2, 3894900, Note_on_c, 0, 72, 100
2, 3894960, Note_on_c, 0, 72, 0
2, 3894960, Note_on_c, 0, 66, 100
2, 3895020, Note_on_c, 0, 66, 0
2, 3895020, Note_on_c, 0, 67, 100
2, 3895080, Note_on_c, 0, 67, 0
2, 3895080, Note_on_c, 0, 69, 100
2, 3895140, Note_on_c, 0, 69, 0
2, 3895140, Note_on_c, 0, 62, 100
2, 3895200, Note_on_c, 0, 62, 0
2, 3895200, Note_on_c, 0, 66, 100
2, 3895260, Note_on_c, 0, 66, 0
2, 3895260, Note_on_c, 0, 64, 100
2, 3895320, Note_on_c, 0, 64, 0
2, 3895320, Note_on_c, 0, 62, 100
2, 3895380, Note_on_c, 0, 62, 0
2, 3895380, Note_on_c, 0, 69, 100
2, 3895440, Note_on_c, 0, 69, 0
2, 3895440, Note_on_c, 0, 67, 100
2, 3895500, Note_on_c, 0, 67, 0
2, 3895500, Note_on_c, 0, 66, 100
2, 3895560, Note_on_c, 0, 66, 0
2, 3895560, Note_on_c, 0, 72, 100
2, 3895680, Note_on_c, 0, 72, 0
2, 3895680, Note_on_c, 0, 71, 100
2, 3895740, Note_on_c, 0, 71, 0
2, 3895740, Note_on_c, 0, 69, 100
2, 3895800, Note_on_c, 0, 69, 0
2, 3895800, Note_on_c, 0, 71, 100
2, 3895920, Note_on_c, 0, 71, 0
2, 3895920, Note_on_c, 0, 69, 100
2, 3896220, Note_on_c, 0, 69, 0
2, 3896220, Note_on_c, 0, 67, 100
2, 3896280, Note_on_c, 0, 67, 0
2, 3896280, Note_on_c, 0, 66, 100
2, 3896340, Note_on_c, 0, 66, 0
2, 3896340, Note_on_c, 0, 67, 100
2, 3896400, Note_on_c, 0, 67, 0
2, 3896400, Note_on_c, 0, 71, 100
2, 3896460, Note_on_c, 0, 71, 0
2, 3896460, Note_on_c, 0, 74, 100
2, 3896520, Note_on_c, 0, 74, 0
2, 3896520, Note_on_c, 0, 78, 100
2, 3896580, Note_on_c, 0, 78, 0
2, 3896580, Note_on_c, 0, 79, 100
2, 3896640, Note_on_c, 0, 79, 0
2, 3896640, Note_on_c, 0, 78, 100
2, 3896700, Note_on_c, 0, 78, 0
2, 3896700, Note_on_c, 0, 76, 100
2, 3896760, Note_on_c, 0, 76, 0
2, 3896760, Note_on_c, 0, 74, 100
2, 3896820, Note_on_c, 0, 74, 0
2, 3896820, Note_on_c, 0, 78, 100
2, 3896880, Note_on_c, 0, 78, 0
2, 3896880, Note_on_c, 0, 81, 100
2, 3896940, Note_on_c, 0, 81, 0
2, 3896940, Note_on_c, 0, 83, 100
2, 3897000, Note_on_c, 0, 83, 0
2, 3897000, Note_on_c, 0, 84, 100
2, 3897060, Note_on_c, 0, 84, 0
2, 3897060, Note_on_c, 0, 83, 100
2, 3897120, Note_on_c, 0, 83, 0
2, 3897120, Note_on_c, 0, 81, 100
2, 3897180, Note_on_c, 0, 81, 0
2, 3897180, Note_on_c, 0, 79, 100
2, 3897240, Note_on_c, 0, 79, 0
2, 3897240, Note_on_c, 0, 78, 100
2, 3897420, Note_on_c, 0, 78, 0
2, 3897420, Note_on_c, 0, 76, 100
2, 3897480, Note_on_c, 0, 76, 0
2, 3897480, Note_on_c, 0, 75, 100
2, 3897660, Note_on_c, 0, 75, 0
2, 3897660, Note_on_c, 0, 76, 100
2, 3897720, Note_on_c, 0, 76, 0
2, 3897720, Note_on_c, 0, 78, 100
2, 3897900, Note_on_c, 0, 78, 0
2, 3897900, Note_on_c, 0, 79, 100
2, 3897960, Note_on_c, 0, 79, 0
2, 3897960, Note_on_c, 0, 81, 100
2, 3898140, Note_on_c, 0, 81, 0
2, 3898140, Note_on_c, 0, 83, 100
2, 3898200, Note_on_c, 0, 83, 0
2, 3898200, Note_on_c, 0, 79, 100
2, 3898380, Note_on_c, 0, 79, 0
2, 3898380, Note_on_c, 0, 78, 100
2, 3898440, Note_on_c, 0, 78, 0
2, 3898440, Note_on_c, 0, 76, 100
2, 3898500, Note_on_c, 0, 76, 0
2, 3898500, Note_on_c, 0, 81, 100
2, 3898560, Note_on_c, 0, 81, 0
2, 3898560, Note_on_c, 0, 79, 100
2, 3898620, Note_on_c, 0, 79, 0
2, 3898620, Note_on_c, 0, 78, 100
2, 3898680, Note_on_c, 0, 78, 0
2, 3898680, Note_on_c, 0, 76, 100
2, 3898860, Note_on_c, 0, 76, 0
2, 3898860, Note_on_c, 0, 74, 100
2, 3898920, Note_on_c, 0, 74, 0
2, 3898920, Note_on_c, 0, 73, 100
2, 3899100, Note_on_c, 0, 73, 0
2, 3899100, Note_on_c, 0, 74, 100
2, 3899160, Note_on_c, 0, 74, 0
2, 3899160, Note_on_c, 0, 76, 100
2, 3899340, Note_on_c, 0, 76, 0
2, 3899340, Note_on_c, 0, 78, 100
2, 3899400, Note_on_c, 0, 78, 0
2, 3899400, Note_on_c, 0, 79, 100
2, 3899580, Note_on_c, 0, 79, 0
2, 3899580, Note_on_c, 0, 81, 100
2, 3899640, Note_on_c, 0, 81, 0
2, 3899640, Note_on_c, 0, 78, 100
2, 3899820, Note_on_c, 0, 78, 0
2, 3899820, Note_on_c, 0, 76, 100
2, 3899880, Note_on_c, 0, 76, 0
2, 3899880, Note_on_c, 0, 74, 100
2, 3899940, Note_on_c, 0, 74, 0
2, 3899940, Note_on_c, 0, 79, 100
2, 3900000, Note_on_c, 0, 79, 0
2, 3900000, Note_on_c, 0, 81, 100
2, 3900060, Note_on_c, 0, 81, 0
2, 3900060, Note_on_c, 0, 83, 100
2, 3900120, Note_on_c, 0, 83, 0
2, 3900120, Note_on_c, 0, 81, 100
2, 3900180, Note_on_c, 0, 81, 0
2, 3900180, Note_on_c, 0, 79, 100
2, 3900240, Note_on_c, 0, 79, 0
2, 3900240, Note_on_c, 0, 78, 100
2, 3900360, Note_on_c, 0, 78, 0
2, 3900360, Note_on_c, 0, 76, 100
2, 3900480, Note_on_c, 0, 76, 0
2, 3900480, Note_on_c, 0, 78, 100
2, 3900540, Note_on_c, 0, 78, 0
2, 3900540, Note_on_c, 0, 79, 100
2, 3900600, Note_on_c, 0, 79, 0
2, 3900600, Note_on_c, 0, 78, 100
2, 3900660, Note_on_c, 0, 78, 0
2, 3900660, Note_on_c, 0, 76, 100
2, 3900720, Note_on_c, 0, 76, 0
2, 3900720, Note_on_c, 0, 74, 100
2, 3900840, Note_on_c, 0, 74, 0
2, 3900840, Note_on_c, 0, 73, 100
2, 3900960, Note_on_c, 0, 73, 0
2, 3900960, Note_on_c, 0, 74, 100
2, 3901020, Note_on_c, 0, 74, 0
2, 3901020, Note_on_c, 0, 76, 100
2, 3901080, Note_on_c, 0, 76, 0
2, 3901080, Note_on_c, 0, 74, 100
2, 3901140, Note_on_c, 0, 74, 0
2, 3901140, Note_on_c, 0, 73, 100
2, 3901200, Note_on_c, 0, 73, 0
2, 3901200, Note_on_c, 0, 71, 100
2, 3901440, Note_on_c, 0, 71, 0
2, 3901440, Note_on_c, 0, 69, 100
2, 3901480, Note_on_c, 0, 69, 0
2, 3901480, Note_on_c, 0, 71, 100
2, 3901520, Note_on_c, 0, 71, 0
2, 3901520, Note_on_c, 0, 69, 100
2, 3901560, Note_on_c, 0, 69, 0
2, 3901560, Note_on_c, 0, 71, 100
2, 3901600, Note_on_c, 0, 71, 0
2, 3901600, Note_on_c, 0, 69, 100
2, 3901640, Note_on_c, 0, 69, 0
2, 3901640, Note_on_c, 0, 71, 100
2, 3901680, Note_on_c, 0, 71, 0
2, 3901680, Note_on_c, 0, 69, 100
2, 3901720, Note_on_c, 0, 69, 0
2, 3901720, Note_on_c, 0, 71, 100
2, 3901760, Note_on_c, 0, 71, 0
2, 3901760, Note_on_c, 0, 69, 100
2, 3901800, Note_on_c, 0, 69, 0
2, 3901800, Note_on_c, 0, 71, 100
2, 3901840, Note_on_c, 0, 71, 0
2, 3901840, Note_on_c, 0, 69, 100
2, 3901880, Note_on_c, 0, 69, 0
2, 3901880, Note_on_c, 0, 71, 100
2, 3901920, Note_on_c, 0, 71, 0
2, 3901920, Note_on_c, 0, 69, 100
2, 3901960, Note_on_c, 0, 69, 0
2, 3901960, Note_on_c, 0, 71, 100
2, 3902000, Note_on_c, 0, 71, 0
2, 3902000, Note_on_c, 0, 69, 100
2, 3902040, Note_on_c, 0, 69, 0
2, 3902040, Note_on_c, 0, 73, 100
2, 3902220, Note_on_c, 0, 73, 0
2, 3902220, Note_on_c, 0, 71, 100
2, 3902280, Note_on_c, 0, 71, 0
2, 3902280, Note_on_c, 0, 69, 100
2, 3902340, Note_on_c, 0, 69, 0
2, 3902340, Note_on_c, 0, 71, 100
2, 3902400, Note_on_c, 0, 71, 0
2, 3902400, Note_on_c, 0, 73, 100
2, 3902460, Note_on_c, 0, 73, 0
2, 3902460, Note_on_c, 0, 74, 100
2, 3902520, Note_on_c, 0, 74, 0
2, 3902520, Note_on_c, 0, 76, 100
2, 3902580, Note_on_c, 0, 76, 0
2, 3902580, Note_on_c, 0, 78, 100
2, 3902640, Note_on_c, 0, 78, 0
2, 3902640, Note_on_c, 0, 81, 100
2, 3902760, Note_on_c, 0, 81, 0
2, 3902760, Note_on_c, 0, 79, 100
2, 3902790, Note_on_c, 0, 79, 0
2, 3902790, Note_on_c, 0, 78, 100
2, 3902820, Note_on_c, 0, 78, 0
2, 3902820, Note_on_c, 0, 79, 100
2, 3902850, Note_on_c, 0, 79, 0
2, 3902850, Note_on_c, 0, 81, 100
2, 3902880, Note_on_c, 0, 81, 0
2, 3902880, Note_on_c, 0, 74, 100
2, 3902940, Note_on_c, 0, 74, 0
2, 3902940, Note_on_c, 0, 73, 100
2, 3903000, Note_on_c, 0, 73, 0
2, 3903000, Note_on_c, 0, 74, 100
2, 3903060, Note_on_c, 0, 74, 0
2, 3903060, Note_on_c, 0, 76, 100
2, 3903120, Note_on_c, 0, 76, 0
2, 3903120, Note_on_c, 0, 74, 100
2, 3903180, Note_on_c, 0, 74, 0
2, 3903180, Note_on_c, 0, 73, 100
2, 3903240, Note_on_c, 0, 73, 0
2, 3903240, Note_on_c, 0, 74, 100
2, 3903300, Note_on_c, 0, 74, 0
2, 3903300, Note_on_c, 0, 69, 100
2, 3903360, Note_on_c, 0, 69, 0
2, 3903360, Note_on_c, 0, 74, 100
2, 3903420, Note_on_c, 0, 74, 0
2, 3903420, Note_on_c, 0, 67, 100
2, 3903480, Note_on_c, 0, 67, 0
2, 3903480, Note_on_c, 0, 74, 100
2, 3903540, Note_on_c, 0, 74, 0
2, 3903540, Note_on_c, 0, 66, 100
2, 3903600, Note_on_c, 0, 66, 0
2, 3903600, Note_on_c, 0, 74, 100
2, 3903660, Note_on_c, 0, 74, 0
2, 3903660, Note_on_c, 0, 64, 100
2, 3903720, Note_on_c, 0, 64, 0
2, 3903720, Note_on_c, 0, 74, 100
2, 3903780, Note_on_c, 0, 74, 0
2, 3903780, Note_on_c, 0, 66, 100
2, 3903840, Note_on_c, 0, 66, 0
2, 3903840, Note_on_c, 0, 74, 100
2, 3903900, Note_on_c, 0, 74, 0
2, 3903900, Note_on_c, 0, 69, 100
2, 3903960, Note_on_c, 0, 69, 0
2, 3903960, Note_on_c, 0, 74, 100
2, 3904020, Note_on_c, 0, 74, 0
2, 3904020, Note_on_c, 0, 66, 100
2, 3904080, Note_on_c, 0, 66, 0
2, 3904080, Note_on_c, 0, 74, 100
2, 3904140, Note_on_c, 0, 74, 0
2, 3904140, Note_on_c, 0, 62, 100
2, 3904200, Note_on_c, 0, 62, 0
2, 3904200, Note_on_c, 0, 72, 100
2, 3904260, Note_on_c, 0, 72, 0
2, 3904260, Note_on_c, 0, 71, 100
2, 3904320, Note_on_c, 0, 71, 0
2, 3904320, Note_on_c, 0, 74, 100
2, 3904380, Note_on_c, 0, 74, 0
2, 3904380, Note_on_c, 0, 73, 100
2, 3904440, Note_on_c, 0, 73, 0
2, 3904440, Note_on_c, 0, 74, 100
2, 3904500, Note_on_c, 0, 74, 0
2, 3904500, Note_on_c, 0, 76, 100
2, 3904560, Note_on_c, 0, 76, 0
2, 3904560, Note_on_c, 0, 74, 100
2, 3904620, Note_on_c, 0, 74, 0
2, 3904620, Note_on_c, 0, 73, 100
2, 3904680, Note_on_c, 0, 73, 0
2, 3904680, Note_on_c, 0, 74, 100
2, 3904740, Note_on_c, 0, 74, 0
2, 3904740, Note_on_c, 0, 71, 100
2, 3904800, Note_on_c, 0, 71, 0
2, 3904800, Note_on_c, 0, 74, 100
2, 3904860, Note_on_c, 0, 74, 0
2, 3904860, Note_on_c, 0, 69, 100
2, 3904920, Note_on_c, 0, 69, 0
2, 3904920, Note_on_c, 0, 74, 100
2, 3904980, Note_on_c, 0, 74, 0
2, 3904980, Note_on_c, 0, 67, 100
2, 3905040, Note_on_c, 0, 67, 0
2, 3905040, Note_on_c, 0, 74, 100
2, 3905100, Note_on_c, 0, 74, 0
2, 3905100, Note_on_c, 0, 66, 100
2, 3905160, Note_on_c, 0, 66, 0
2, 3905160, Note_on_c, 0, 74, 100
2, 3905220, Note_on_c, 0, 74, 0
2, 3905220, Note_on_c, 0, 67, 100
2, 3905280, Note_on_c, 0, 67, 0
2, 3905280, Note_on_c, 0, 74, 100
2, 3905340, Note_on_c, 0, 74, 0
2, 3905340, Note_on_c, 0, 71, 100
2, 3905400, Note_on_c, 0, 71, 0
2, 3905400, Note_on_c, 0, 74, 100
2, 3905460, Note_on_c, 0, 74, 0
2, 3905460, Note_on_c, 0, 67, 100
2, 3905520, Note_on_c, 0, 67, 0
2, 3905520, Note_on_c, 0, 74, 100
2, 3905580, Note_on_c, 0, 74, 0
2, 3905580, Note_on_c, 0, 64, 100
2, 3905640, Note_on_c, 0, 64, 0
2, 3905640, Note_on_c, 0, 74, 100
2, 3905700, Note_on_c, 0, 74, 0
2, 3905700, Note_on_c, 0, 73, 100
2, 3905760, Note_on_c, 0, 73, 0
2, 3905760, Note_on_c, 0, 67, 100
2, 3905820, Note_on_c, 0, 67, 0
2, 3905820, Note_on_c, 0, 66, 100
2, 3905880, Note_on_c, 0, 66, 0
2, 3905880, Note_on_c, 0, 67, 100
2, 3905940, Note_on_c, 0, 67, 0
2, 3905940, Note_on_c, 0, 69, 100
2, 3906000, Note_on_c, 0, 69, 0
2, 3906000, Note_on_c, 0, 67, 100
2, 3906060, Note_on_c, 0, 67, 0
2, 3906060, Note_on_c, 0, 66, 100
2, 3906120, Note_on_c, 0, 66, 0
2, 3906120, Note_on_c, 0, 67, 100
2, 3906180, Note_on_c, 0, 67, 0
2, 3906180, Note_on_c, 0, 76, 100
2, 3906240, Note_on_c, 0, 76, 0
2, 3906240, Note_on_c, 0, 73, 100
2, 3906300, Note_on_c, 0, 73, 0
2, 3906300, Note_on_c, 0, 71, 100
2, 3906360, Note_on_c, 0, 71, 0
2, 3906360, Note_on_c, 0, 73, 100
2, 3906420, Note_on_c, 0, 73, 0
2, 3906420, Note_on_c, 0, 74, 100
2, 3906480, Note_on_c, 0, 74, 0
2, 3906480, Note_on_c, 0, 73, 100
2, 3906540, Note_on_c, 0, 73, 0
2, 3906540, Note_on_c, 0, 71, 100
2, 3906600, Note_on_c, 0, 71, 0
2, 3906600, Note_on_c, 0, 73, 100
2, 3906660, Note_on_c, 0, 73, 0
2, 3906660, Note_on_c, 0, 79, 100
2, 3906720, Note_on_c, 0, 79, 0
2, 3906720, Note_on_c, 0, 76, 100
2, 3906780, Note_on_c, 0, 76, 0
2, 3906780, Note_on_c, 0, 74, 100
2, 3906840, Note_on_c, 0, 74, 0
2, 3906840, Note_on_c, 0, 76, 100
2, 3906900, Note_on_c, 0, 76, 0
2, 3906900, Note_on_c, 0, 81, 100
2, 3906960, Note_on_c, 0, 81, 0
2, 3906960, Note_on_c, 0, 79, 100
2, 3907020, Note_on_c, 0, 79, 0
2, 3907020, Note_on_c, 0, 78, 100
2, 3907080, Note_on_c, 0, 78, 0
2, 3907080, Note_on_c, 0, 76, 100
2, 3907140, Note_on_c, 0, 76, 0
2, 3907140, Note_on_c, 0, 78, 100
2, 3907200, Note_on_c, 0, 78, 0
2, 3907200, Note_on_c, 0, 73, 100
2, 3907440, Note_on_c, 0, 73, 0
2, 3907440, Note_on_c, 0, 74, 100
2, 3907680, Note_on_c, 0, 74, 0
2, 3907680, Note_on_c, 0, 67, 100
2, 3907920, Note_on_c, 0, 67, 0
2, 3907920, Note_on_c, 0, 66, 100
2, 3908160, Note_on_c, 0, 66, 0
2, 3908160, Note_on_c, 0, 71, 100
2, 3908640, Note_on_c, 0, 71, 0
2, 3908640, Note_on_c, 0, 72, 100
2, 3908700, Note_on_c, 0, 72, 0
2, 3908700, Note_on_c, 0, 71, 100
2, 3908760, Note_on_c, 0, 71, 0
2, 3908760, Note_on_c, 0, 69, 100
2, 3908820, Note_on_c, 0, 69, 0
2, 3908820, Note_on_c, 0, 71, 100
2, 3908880, Note_on_c, 0, 71, 0
2, 3908880, Note_on_c, 0, 66, 100
2, 3909180, Note_on_c, 0, 66, 0
2, 3909180, Note_on_c, 0, 67, 100
2, 3909240, Note_on_c, 0, 67, 0
2, 3909240, Note_on_c, 0, 69, 100
2, 3909300, Note_on_c, 0, 69, 0
2, 3909300, Note_on_c, 0, 71, 100
2, 3909360, Note_on_c, 0, 71, 0
2, 3909360, Note_on_c, 0, 72, 100
2, 3909480, Note_on_c, 0, 72, 0
2, 3909480, Note_on_c, 0, 74, 100
2, 3909600, Note_on_c, 0, 74, 0
2, 3909600, Note_on_c, 0, 72, 100
2, 3909630, Note_on_c, 0, 72, 0
2, 3909630, Note_on_c, 0, 71, 100
2, 3909720, Note_on_c, 0, 71, 0
2, 3909720, Note_on_c, 0, 69, 100
2, 3909840, Note_on_c, 0, 69, 0
2, 3909840, Note_on_c, 0, 67, 100
2, 3909960, Note_on_c, 0, 67, 0
2, 3909960, Note_on_c, 0, 74, 100
2, 3910080, Note_on_c, 0, 74, 0
2, 3910080, Note_on_c, 0, 76, 100
2, 3910140, Note_on_c, 0, 76, 0
2, 3910140, Note_on_c, 0, 74, 100
2, 3910200, Note_on_c, 0, 74, 0
2, 3910200, Note_on_c, 0, 73, 100
2, 3910260, Note_on_c, 0, 73, 0
2, 3910260, Note_on_c, 0, 74, 100
2, 3910320, Note_on_c, 0, 74, 0
2, 3910320, Note_on_c, 0, 73, 100
2, 3910620, Note_on_c, 0, 73, 0
2, 3910620, Note_on_c, 0, 74, 100
2, 3910680, Note_on_c, 0, 74, 0
2, 3910680, Note_on_c, 0, 76, 100
2, 3910740, Note_on_c, 0, 76, 0
2, 3910740, Note_on_c, 0, 78, 100
2, 3910800, Note_on_c, 0, 78, 0
2, 3910800, Note_on_c, 0, 79, 100
2, 3910920, Note_on_c, 0, 79, 0
2, 3910920, Note_on_c, 0, 81, 100
2, 3911040, Note_on_c, 0, 81, 0
2, 3911040, Note_on_c, 0, 79, 100
2, 3911070, Note_on_c, 0, 79, 0
2, 3911070, Note_on_c, 0, 78, 100
2, 3911160, Note_on_c, 0, 78, 0
2, 3911160, Note_on_c, 0, 76, 100
2, 3911280, Note_on_c, 0, 76, 0
2, 3911280, Note_on_c, 0, 74, 100
2, 3911400, Note_on_c, 0, 74, 0
2, 3911400, Note_on_c, 0, 79, 100
2, 3911520, Note_on_c, 0, 79, 0
2, 3911520, Note_on_c, 0, 81, 100
2, 3911580, Note_on_c, 0, 81, 0
2, 3911580, Note_on_c, 0, 79, 100
2, 3911640, Note_on_c, 0, 79, 0
2, 3911640, Note_on_c, 0, 78, 100
2, 3911700, Note_on_c, 0, 78, 0
2, 3911700, Note_on_c, 0, 79, 100
2, 3911760, Note_on_c, 0, 79, 0
2, 3911760, Note_on_c, 0, 78, 100
2, 3912060, Note_on_c, 0, 78, 0
2, 3912060, Note_on_c, 0, 76, 100
2, 3912120, Note_on_c, 0, 76, 0
2, 3912120, Note_on_c, 0, 78, 100
2, 3912180, Note_on_c, 0, 78, 0
2, 3912180, Note_on_c, 0, 79, 100
2, 3912240, Note_on_c, 0, 79, 0
2, 3912240, Note_on_c, 0, 76, 100
2, 3912360, Note_on_c, 0, 76, 0
2, 3912360, Note_on_c, 0, 69, 100
2, 3912480, Note_on_c, 0, 69, 0
2, 3912480, Note_on_c, 0, 83, 100
2, 3912600, Note_on_c, 0, 83, 0
2, 3912600, Note_on_c, 0, 81, 100
2, 3912720, Note_on_c, 0, 81, 0
2, 3912720, Note_on_c, 0, 79, 100
2, 3912960, Note_on_c, 0, 79, 0
2, 3912960, Note_on_c, 0, 78, 100
2, 3912975, Note_on_c, 0, 78, 0
2, 3912975, Note_on_c, 0, 76, 100
2, 3913020, Note_on_c, 0, 76, 0
2, 3913020, Note_on_c, 0, 78, 100
2, 3913080, Note_on_c, 0, 78, 0
2, 3913080, Note_on_c, 0, 76, 100
2, 3913140, Note_on_c, 0, 76, 0
2, 3913140, Note_on_c, 0, 74, 100
2, 3913200, Note_on_c, 0, 74, 0
2, 3913200, Note_on_c, 0, 73, 100
2, 3913500, Note_on_c, 0, 73, 0
2, 3913500, Note_on_c, 0, 74, 100
2, 3913560, Note_on_c, 0, 74, 0
2, 3913560, Note_on_c, 0, 76, 100
2, 3913620, Note_on_c, 0, 76, 0
2, 3913620, Note_on_c, 0, 78, 100
2, 3913680, Note_on_c, 0, 78, 0
2, 3913680, Note_on_c, 0, 79, 100
2, 3913800, Note_on_c, 0, 79, 0
2, 3913800, Note_on_c, 0, 81, 100
2, 3913920, Note_on_c, 0, 81, 0
2, 3913920, Note_on_c, 0, 83, 100
2, 3914040, Note_on_c, 0, 83, 0
2, 3914040, Note_on_c, 0, 84, 100
2, 3914100, Note_on_c, 0, 84, 0
2, 3914100, Note_on_c, 0, 83, 100
2, 3914160, Note_on_c, 0, 83, 0
2, 3914160, Note_on_c, 0, 81, 100
2, 3914280, Note_on_c, 0, 81, 0
2, 3914280, Note_on_c, 0, 79, 100
2, 3914400, Note_on_c, 0, 79, 0
2, 3914400, Note_on_c, 0, 77, 100
2, 3914460, Note_on_c, 0, 77, 0
2, 3914460, Note_on_c, 0, 76, 100
2, 3914520, Note_on_c, 0, 76, 0
2, 3914520, Note_on_c, 0, 77, 100
2, 3914640, Note_on_c, 0, 77, 0
2, 3914640, Note_on_c, 0, 76, 100
2, 3914670, Note_on_c, 0, 76, 0
2, 3914670, Note_on_c, 0, 77, 100
2, 3914700, Note_on_c, 0, 77, 0
2, 3914700, Note_on_c, 0, 74, 100
2, 3914940, Note_on_c, 0, 74, 0
2, 3914940, Note_on_c, 0, 79, 100
2, 3915000, Note_on_c, 0, 79, 0
2, 3915000, Note_on_c, 0, 81, 100
2, 3915060, Note_on_c, 0, 81, 0
2, 3915060, Note_on_c, 0, 83, 100
2, 3915120, Note_on_c, 0, 83, 0
2, 3915120, Note_on_c, 0, 84, 100
2, 3915180, Note_on_c, 0, 84, 0
2, 3915180, Note_on_c, 0, 86, 100
2, 3915240, Note_on_c, 0, 86, 0
2, 3915240, Note_on_c, 0, 84, 100
2, 3915360, Note_on_c, 0, 84, 0
2, 3915360, Note_on_c, 0, 83, 100
2, 3915480, Note_on_c, 0, 83, 0
2, 3915480, Note_on_c, 0, 81, 100
2, 3915600, Note_on_c, 0, 81, 0
2, 3915600, Note_on_c, 0, 79, 100
2, 3915720, Note_on_c, 0, 79, 0
2, 3915720, Note_on_c, 0, 77, 100
2, 3915840, Note_on_c, 0, 77, 0
2, 3915840, Note_on_c, 0, 76, 100
2, 3915900, Note_on_c, 0, 76, 0
2, 3915900, Note_on_c, 0, 74, 100
2, 3916080, Note_on_c, 0, 74, 0
2, 3916080, Note_on_c, 0, 76, 100
2, 3916140, Note_on_c, 0, 76, 0
2, 3916140, Note_on_c, 0, 74, 100
2, 3916380, Note_on_c, 0, 74, 0
2, 3916380, Note_on_c, 0, 72, 100
2, 3916440, Note_on_c, 0, 72, 0
2, 3916440, Note_on_c, 0, 71, 100
2, 3916500, Note_on_c, 0, 71, 0
2, 3916500, Note_on_c, 0, 72, 100
2, 3916560, Note_on_c, 0, 72, 0
2, 3916560, Note_on_c, 0, 74, 100
2, 3916620, Note_on_c, 0, 74, 0
2, 3916620, Note_on_c, 0, 76, 100
2, 3916680, Note_on_c, 0, 76, 0
2, 3916680, Note_on_c, 0, 74, 100
2, 3916800, Note_on_c, 0, 74, 0
2, 3916800, Note_on_c, 0, 79, 100
2, 3916920, Note_on_c, 0, 79, 0
2, 3916920, Note_on_c, 0, 76, 100
2, 3917040, Note_on_c, 0, 76, 0
2, 3917040, Note_on_c, 0, 72, 100
2, 3917160, Note_on_c, 0, 72, 0
2, 3917160, Note_on_c, 0, 71, 100
2, 3917280, Note_on_c, 0, 71, 0
2, 3917280, Note_on_c, 0, 69, 100
2, 3917340, Note_on_c, 0, 69, 0
2, 3917340, Note_on_c, 0, 67, 100
2, 3917400, Note_on_c, 0, 67, 0
2, 3917400, Note_on_c, 0, 69, 100
2, 3917520, Note_on_c, 0, 69, 0
2, 3917520, Note_on_c, 0, 67, 100
2, 3917820, Note_on_c, 0, 67, 0
2, 3917820, Note_on_c, 0, 69, 100
2, 3917880, Note_on_c, 0, 69, 0
2, 3917880, Note_on_c, 0, 71, 100
2, 3917940, Note_on_c, 0, 71, 0
2, 3917940, Note_on_c, 0, 72, 100
2, 3918000, Note_on_c, 0, 72, 0
2, 3918000, Note_on_c, 0, 66, 100
2, 3918060, Note_on_c, 0, 66, 0
2, 3918060, Note_on_c, 0, 67, 100
2, 3918120, Note_on_c, 0, 67, 0
2, 3918120, Note_on_c, 0, 69, 100
2, 3918180, Note_on_c, 0, 69, 0
2, 3918180, Note_on_c, 0, 62, 100
2, 3918240, Note_on_c, 0, 62, 0
2, 3918240, Note_on_c, 0, 66, 100
2, 3918300, Note_on_c, 0, 66, 0
2, 3918300, Note_on_c, 0, 64, 100
2, 3918360, Note_on_c, 0, 64, 0
2, 3918360, Note_on_c, 0, 62, 100
2, 3918420, Note_on_c, 0, 62, 0
2, 3918420, Note_on_c, 0, 69, 100
2, 3918480, Note_on_c, 0, 69, 0
2, 3918480, Note_on_c, 0, 67, 100
2, 3918540, Note_on_c, 0, 67, 0
2, 3918540, Note_on_c, 0, 66, 100
2, 3918600, Note_on_c, 0, 66, 0
2, 3918600, Note_on_c, 0, 72, 100
2, 3918720, Note_on_c, 0, 72, 0
2, 3918720, Note_on_c, 0, 71, 100
2, 3918780, Note_on_c, 0, 71, 0
2, 3918780, Note_on_c, 0, 69, 100
2, 3918840, Note_on_c, 0, 69, 0
2, 3918840, Note_on_c, 0, 71, 100
2, 3918960, Note_on_c, 0, 71, 0
2, 3918960, Note_on_c, 0, 69, 100
2, 3919260, Note_on_c, 0, 69, 0
2, 3919260, Note_on_c, 0, 67, 100
2, 3919320, Note_on_c, 0, 67, 0
2, 3919320, Note_on_c, 0, 66, 100
2, 3919380, Note_on_c, 0, 66, 0
2, 3919380, Note_on_c, 0, 67, 100
2, 3919440, Note_on_c, 0, 67, 0
2, 3919440, Note_on_c, 0, 71, 100
2, 3919500, Note_on_c, 0, 71, 0
2, 3919500, Note_on_c, 0, 74, 100
2, 3919560, Note_on_c, 0, 74, 0
2, 3919560, Note_on_c, 0, 78, 100
2, 3919620, Note_on_c, 0, 78, 0
2, 3919620, Note_on_c, 0, 79, 100
2, 3919680, Note_on_c, 0, 79, 0
2, 3919680, Note_on_c, 0, 78, 100
2, 3919740, Note_on_c, 0, 78, 0
2, 3919740, Note_on_c, 0, 76, 100
2, 3919800, Note_on_c, 0, 76, 0
2, 3919800, Note_on_c, 0, 74, 100
2, 3919860, Note_on_c, 0, 74, 0
2, 3919860, Note_on_c, 0, 78, 100
2, 3919920, Note_on_c, 0, 78, 0
2, 3919920, Note_on_c, 0, 81, 100
2, 3919980, Note_on_c, 0, 81, 0
2, 3919980, Note_on_c, 0, 83, 100
2, 3920040, Note_on_c, 0, 83, 0
2, 3920040, Note_on_c, 0, 84, 100
2, 3920100, Note_on_c, 0, 84, 0
2, 3920100, Note_on_c, 0, 83, 100
2, 3920160, Note_on_c, 0, 83, 0
2, 3920160, Note_on_c, 0, 81, 100
2, 3920220, Note_on_c, 0, 81, 0
2, 3920220, Note_on_c, 0, 79, 100
2, 3920280, Note_on_c, 0, 79, 0
2, 3920280, Note_on_c, 0, 78, 100
2, 3920460, Note_on_c, 0, 78, 0
2, 3920460, Note_on_c, 0, 76, 100
2, 3920520, Note_on_c, 0, 76, 0
2, 3920520, Note_on_c, 0, 75, 100
2, 3920700, Note_on_c, 0, 75, 0
2, 3920700, Note_on_c, 0, 76, 100
2, 3920760, Note_on_c, 0, 76, 0
2, 3920760, Note_on_c, 0, 78, 100
2, 3920940, Note_on_c, 0, 78, 0
2, 3920940, Note_on_c, 0, 79, 100
2, 3921000, Note_on_c, 0, 79, 0
2, 3921000, Note_on_c, 0, 81, 100
2, 3921180, Note_on_c, 0, 81, 0
2, 3921180, Note_on_c, 0, 83, 100
2, 3921240, Note_on_c, 0, 83, 0
2, 3921240, Note_on_c, 0, 79, 100
2, 3921420, Note_on_c, 0, 79, 0
2, 3921420, Note_on_c, 0, 78, 100
2, 3921480, Note_on_c, 0, 78, 0
2, 3921480, Note_on_c, 0, 76, 100
2, 3921540, Note_on_c, 0, 76, 0
2, 3921540, Note_on_c, 0, 81, 100
2, 3921600, Note_on_c, 0, 81, 0
2, 3921600, Note_on_c, 0, 79, 100
2, 3921660, Note_on_c, 0, 79, 0
2, 3921660, Note_on_c, 0, 78, 100
2, 3921720, Note_on_c, 0, 78, 0
2, 3921720, Note_on_c, 0, 76, 100
2, 3921900, Note_on_c, 0, 76, 0
2, 3921900, Note_on_c, 0, 74, 100
2, 3921960, Note_on_c, 0, 74, 0
2, 3921960, Note_on_c, 0, 73, 100
2, 3922140, Note_on_c, 0, 73, 0
2, 3922140, Note_on_c, 0, 74, 100
2, 3922200, Note_on_c, 0, 74, 0
2, 3922200, Note_on_c, 0, 76, 100
2, 3922380, Note_on_c, 0, 76, 0
2, 3922380, Note_on_c, 0, 78, 100
2, 3922440, Note_on_c, 0, 78, 0
2, 3922440, Note_on_c, 0, 79, 100
2, 3922620, Note_on_c, 0, 79, 0
2, 3922620, Note_on_c, 0, 81, 100
2, 3922680, Note_on_c, 0, 81, 0
2, 3922680, Note_on_c, 0, 78, 100
2, 3922860, Note_on_c, 0, 78, 0
2, 3922860, Note_on_c, 0, 76, 100
2, 3922920, Note_on_c, 0, 76, 0
2, 3922920, Note_on_c, 0, 74, 100
2, 3922980, Note_on_c, 0, 74, 0
2, 3922980, Note_on_c, 0, 79, 100
2, 3923040, Note_on_c, 0, 79, 0
2, 3923040, Note_on_c, 0, 81, 100
2, 3923100, Note_on_c, 0, 81, 0
2, 3923100, Note_on_c, 0, 83, 100
2, 3923160, Note_on_c, 0, 83, 0
2, 3923160, Note_on_c, 0, 81, 100
2, 3923220, Note_on_c, 0, 81, 0
2, 3923220, Note_on_c, 0, 79, 100
2, 3923280, Note_on_c, 0, 79, 0
2, 3923280, Note_on_c, 0, 78, 100
2, 3923400, Note_on_c, 0, 78, 0
2, 3923400, Note_on_c, 0, 76, 100
2, 3923520, Note_on_c, 0, 76, 0
2, 3923520, Note_on_c, 0, 78, 100
2, 3923580, Note_on_c, 0, 78, 0
2, 3923580, Note_on_c, 0, 79, 100
2, 3923640, Note_on_c, 0, 79, 0
2, 3923640, Note_on_c, 0, 78, 100
2, 3923700, Note_on_c, 0, 78, 0
2, 3923700, Note_on_c, 0, 76, 100
2, 3923760, Note_on_c, 0, 76, 0
2, 3923760, Note_on_c, 0, 74, 100
2, 3923880, Note_on_c, 0, 74, 0
2, 3923880, Note_on_c, 0, 73, 100
2, 3924000, Note_on_c, 0, 73, 0
2, 3924000, Note_on_c, 0, 74, 100
2, 3924060, Note_on_c, 0, 74, 0
2, 3924060, Note_on_c, 0, 76, 100
2, 3924120, Note_on_c, 0, 76, 0
2, 3924120, Note_on_c, 0, 74, 100
2, 3924180, Note_on_c, 0, 74, 0
2, 3924180, Note_on_c, 0, 73, 100
2, 3924240, Note_on_c, 0, 73, 0
2, 3924240, Note_on_c, 0, 71, 100
2, 3924480, Note_on_c, 0, 71, 0
2, 3924480, Note_on_c, 0, 69, 100
2, 3924520, Note_on_c, 0, 69, 0
2, 3924520, Note_on_c, 0, 71, 100
2, 3924560, Note_on_c, 0, 71, 0
2, 3924560, Note_on_c, 0, 69, 100
2, 3924600, Note_on_c, 0, 69, 0
2, 3924600, Note_on_c, 0, 71, 100
2, 3924640, Note_on_c, 0, 71, 0
2, 3924640, Note_on_c, 0, 69, 100
2, 3924680, Note_on_c, 0, 69, 0
2, 3924680, Note_on_c, 0, 71, 100
2, 3924720, Note_on_c, 0, 71, 0
2, 3924720, Note_on_c, 0, 69, 100
2, 3924760, Note_on_c, 0, 69, 0
2, 3924760, Note_on_c, 0, 71, 100
2, 3924800, Note_on_c, 0, 71, 0
2, 3924800, Note_on_c, 0, 69, 100
2, 3924840, Note_on_c, 0, 69, 0
2, 3924840, Note_on_c, 0, 71, 100
2, 3924880, Note_on_c, 0, 71, 0
2, 3924880, Note_on_c, 0, 69, 100
2, 3924920, Note_on_c, 0, 69, 0
2, 3924920, Note_on_c, 0, 71, 100
2, 3924960, Note_on_c, 0, 71, 0
2, 3924960, Note_on_c, 0, 69, 100
2, 3925000, Note_on_c, 0, 69, 0
2, 3925000, Note_on_c, 0, 71, 100
2, 3925040, Note_on_c, 0, 71, 0
2, 3925040, Note_on_c, 0, 69, 100
2, 3925080, Note_on_c, 0, 69, 0
2, 3925080, Note_on_c, 0, 73, 100
2, 3925260, Note_on_c, 0, 73, 0
2, 3925260, Note_on_c, 0, 71, 100
2, 3925320, Note_on_c, 0, 71, 0
2, 3925320, Note_on_c, 0, 69, 100
2, 3925380, Note_on_c, 0, 69, 0
2, 3925380, Note_on_c, 0, 71, 100
2, 3925440, Note_on_c, 0, 71, 0
2, 3925440, Note_on_c, 0, 73, 100
2, 3925500, Note_on_c, 0, 73, 0
2, 3925500, Note_on_c, 0, 74, 100
2, 3925560, Note_on_c, 0, 74, 0
2, 3925560, Note_on_c, 0, 76, 100
2, 3925620, Note_on_c, 0, 76, 0
2, 3925620, Note_on_c, 0, 78, 100
2, 3925680, Note_on_c, 0, 78, 0
2, 3925680, Note_on_c, 0, 81, 100
2, 3925800, Note_on_c, 0, 81, 0
2, 3925800, Note_on_c, 0, 79, 100
2, 3925830, Note_on_c, 0, 79, 0
2, 3925830, Note_on_c, 0, 78, 100
2, 3925860, Note_on_c, 0, 78, 0
2, 3925860, Note_on_c, 0, 79, 100
2, 3925890, Note_on_c, 0, 79, 0
2, 3925890, Note_on_c, 0, 81, 100
2, 3925920, Note_on_c, 0, 81, 0
2, 3925920, Note_on_c, 0, 74, 100
2, 3925980, Note_on_c, 0, 74, 0
2, 3925980, Note_on_c, 0, 73, 100
2, 3926040, Note_on_c, 0, 73, 0
2, 3926040, Note_on_c, 0, 74, 100
2, 3926100, Note_on_c, 0, 74, 0
2, 3926100, Note_on_c, 0, 76, 100
2, 3926160, Note_on_c, 0, 76, 0
2, 3926160, Note_on_c, 0, 74, 100
2, 3926220, Note_on_c, 0, 74, 0
2, 3926220, Note_on_c, 0, 73, 100
2, 3926280, Note_on_c, 0, 73, 0
2, 3926280, Note_on_c, 0, 74, 100
2, 3926340, Note_on_c, 0, 74, 0
2, 3926340, Note_on_c, 0, 69, 100
2, 3926400, Note_on_c, 0, 69, 0
2, 3926400, Note_on_c, 0, 74, 100
2, 3926460, Note_on_c, 0, 74, 0
2, 3926460, Note_on_c, 0, 67, 100
2, 3926520, Note_on_c, 0, 67, 0
2, 3926520, Note_on_c, 0, 74, 100
2, 3926580, Note_on_c, 0, 74, 0
2, 3926580, Note_on_c, 0, 66, 100
2, 3926640, Note_on_c, 0, 66, 0
2, 3926640, Note_on_c, 0, 74, 100
2, 3926700, Note_on_c, 0, 74, 0
2, 3926700, Note_on_c, 0, 64, 100
2, 3926760, Note_on_c, 0, 64, 0
2, 3926760, Note_on_c, 0, 74, 100
2, 3926820, Note_on_c, 0, 74, 0
2, 3926820, Note_on_c, 0, 66, 100
2, 3926880, Note_on_c, 0, 66, 0
2, 3926880, Note_on_c, 0, 74, 100
2, 3926940, Note_on_c, 0, 74, 0
2, 3926940, Note_on_c, 0, 69, 100
2, 3927000, Note_on_c, 0, 69, 0
2, 3927000, Note_on_c, 0, 74, 100
2, 3927060, Note_on_c, 0, 74, 0
2, 3927060, Note_on_c, 0, 66, 100
2, 3927120, Note_on_c, 0, 66, 0
2, 3927120, Note_on_c, 0, 74, 100
2, 3927180, Note_on_c, 0, 74, 0
2, 3927180, Note_on_c, 0, 62, 100
2, 3927240, Note_on_c, 0, 62, 0
2, 3927240, Note_on_c, 0, 72, 100
2, 3927300, Note_on_c, 0, 72, 0
2, 3927300, Note_on_c, 0, 71, 100
2, 3927360, Note_on_c, 0, 71, 0
2, 3927360, Note_on_c, 0, 74, 100
2, 3927420, Note_on_c, 0, 74, 0
2, 3927420, Note_on_c, 0, 73, 100
2, 3927480, Note_on_c, 0, 73, 0
2, 3927480, Note_on_c, 0, 74, 100
2, 3927540, Note_on_c, 0, 74, 0
2, 3927540, Note_on_c, 0, 76, 100
2, 3927600, Note_on_c, 0, 76, 0
2, 3927600, Note_on_c, 0, 74, 100
2, 3927660, Note_on_c, 0, 74, 0
2, 3927660, Note_on_c, 0, 73, 100
2, 3927720, Note_on_c, 0, 73, 0
2, 3927720, Note_on_c, 0, 74, 100
2, 3927780, Note_on_c, 0, 74, 0
2, 3927780, Note_on_c, 0, 71, 100
2, 3927840, Note_on_c, 0, 71, 0
2, 3927840, Note_on_c, 0, 74, 100
2, 3927900, Note_on_c, 0, 74, 0
2, 3927900, Note_on_c, 0, 69, 100
2, 3927960, Note_on_c, 0, 69, 0
2, 3927960, Note_on_c, 0, 74, 100
2, 3928020, Note_on_c, 0, 74, 0
2, 3928020, Note_on_c, 0, 67, 100
2, 3928080, Note_on_c, 0, 67, 0
2, 3928080, Note_on_c, 0, 74, 100
2, 3928140, Note_on_c, 0, 74, 0
2, 3928140, Note_on_c, 0, 66, 100
2, 3928200, Note_on_c, 0, 66, 0
2, 3928200, Note_on_c, 0, 74, 100
2, 3928260, Note_on_c, 0, 74, 0
2, 3928260, Note_on_c, 0, 67, 100
2, 3928320, Note_on_c, 0, 67, 0
2, 3928320, Note_on_c, 0, 74, 100
2, 3928380, Note_on_c, 0, 74, 0
2, 3928380, Note_on_c, 0, 71, 100
2, 3928440, Note_on_c, 0, 71, 0
2, 3928440, Note_on_c, 0, 74, 100
2, 3928500, Note_on_c, 0, 74, 0
2, 3928500, Note_on_c, 0, 67, 100
2, 3928560, Note_on_c, 0, 67, 0
2, 3928560, Note_on_c, 0, 74, 100
2, 3928620, Note_on_c, 0, 74, 0
2, 3928620, Note_on_c, 0, 64, 100
2, 3928680, Note_on_c, 0, 64, 0
2, 3928680, Note_on_c, 0, 74, 100
2, 3928740, Note_on_c, 0, 74, 0
2, 3928740, Note_on_c, 0, 73, 100
2, 3928800, Note_on_c, 0, 73, 0
2, 3928800, Note_on_c, 0, 67, 100
2, 3928860, Note_on_c, 0, 67, 0
2, 3928860, Note_on_c, 0, 66, 100
2, 3928920, Note_on_c, 0, 66, 0
2, 3928920, Note_on_c, 0, 67, 100
2, 3928980, Note_on_c, 0, 67, 0
2, 3928980, Note_on_c, 0, 69, 100
2, 3929040, Note_on_c, 0, 69, 0
2, 3929040, Note_on_c, 0, 67, 100
2, 3929100, Note_on_c, 0, 67, 0
2, 3929100, Note_on_c, 0, 66, 100
2, 3929160, Note_on_c, 0, 66, 0
2, 3929160, Note_on_c, 0, 67, 100
2, 3929220, Note_on_c, 0, 67, 0
2, 3929220, Note_on_c, 0, 76, 100
2, 3929280, Note_on_c, 0, 76, 0
2, 3929280, Note_on_c, 0, 73, 100
2, 3929340, Note_on_c, 0, 73, 0
2, 3929340, Note_on_c, 0, 71, 100
2, 3929400, Note_on_c, 0, 71, 0
2, 3929400, Note_on_c, 0, 73, 100
2, 3929460, Note_on_c, 0, 73, 0
2, 3929460, Note_on_c, 0, 74, 100
2, 3929520, Note_on_c, 0, 74, 0
2, 3929520, Note_on_c, 0, 73, 100
2, 3929580, Note_on_c, 0, 73, 0
2, 3929580, Note_on_c, 0, 71, 100
2, 3929640, Note_on_c, 0, 71, 0
2, 3929640, Note_on_c, 0, 73, 100
2, 3929700, Note_on_c, 0, 73, 0
2, 3929700, Note_on_c, 0, 79, 100
2, 3929760, Note_on_c, 0, 79, 0
2, 3929760, Note_on_c, 0, 76, 100
2, 3929820, Note_on_c, 0, 76, 0
2, 3929820, Note_on_c, 0, 74, 100
2, 3929880, Note_on_c, 0, 74, 0
2, 3929880, Note_on_c, 0, 76, 100
2, 3929940, Note_on_c, 0, 76, 0
2, 3929940, Note_on_c, 0, 81, 100
2, 3930000, Note_on_c, 0, 81, 0
2, 3930000, Note_on_c, 0, 79, 100
2, 3930060, Note_on_c, 0, 79, 0
2, 3930060, Note_on_c, 0, 78, 100
2, 3930120, Note_on_c, 0, 78, 0
2, 3930120, Note_on_c, 0, 76, 100
2, 3930180, Note_on_c, 0, 76, 0
2, 3930180, Note_on_c, 0, 78, 100
2, 3930240, Note_on_c, 0, 78, 0
2, 3930240, Note_on_c, 0, 73, 100
2, 3930480, Note_on_c, 0, 73, 0
2, 3930480, Note_on_c, 0, 74, 100
2, 3930720, Note_on_c, 0, 74, 0
2, 3930720, Note_on_c, 0, 67, 100
2, 3930960, Note_on_c, 0, 67, 0
2, 3930960, Note_on_c, 0, 66, 100
2, 3931200, Note_on_c, 0, 66, 0
2, 3931200, Note_on_c, 0, 78, 100
2, 3931680, Note_on_c, 0, 78, 0
2, 3931680, Note_on_c, 0, 79, 100
2, 3931740, Note_on_c, 0, 79, 0
2, 3931740, Note_on_c, 0, 78, 100
2, 3931800, Note_on_c, 0, 78, 0
2, 3931800, Note_on_c, 0, 76, 100
2, 3931860, Note_on_c, 0, 76, 0
2, 3931860, Note_on_c, 0, 78, 100
2, 3931920, Note_on_c, 0, 78, 0
2, 3931920, Note_on_c, 0, 76, 100
2, 3932220, Note_on_c, 0, 76, 0
2, 3932220, Note_on_c, 0, 78, 100
2, 3932280, Note_on_c, 0, 78, 0
2, 3932280, Note_on_c, 0, 79, 100
2, 3932340, Note_on_c, 0, 79, 0
2, 3932340, Note_on_c, 0, 81, 100
2, 3932400, Note_on_c, 0, 81, 0
2, 3932400, Note_on_c, 0, 83, 100
2, 3932520, Note_on_c, 0, 83, 0
2, 3932520, Note_on_c, 0, 84, 100
2, 3932640, Note_on_c, 0, 84, 0
2, 3932640, Note_on_c, 0, 83, 100
2, 3932670, Note_on_c, 0, 83, 0
2, 3932670, Note_on_c, 0, 81, 100
2, 3932760, Note_on_c, 0, 81, 0
2, 3932760, Note_on_c, 0, 79, 100
2, 3932880, Note_on_c, 0, 79, 0
2, 3932880, Note_on_c, 0, 78, 100
2, 3933000, Note_on_c, 0, 78, 0
2, 3933000, Note_on_c, 0, 79, 100
2, 3933120, Note_on_c, 0, 79, 0
2, 3933120, Note_on_c, 0, 81, 100
2, 3933180, Note_on_c, 0, 81, 0
2, 3933180, Note_on_c, 0, 79, 100
2, 3933240, Note_on_c, 0, 79, 0
2, 3933240, Note_on_c, 0, 78, 100
2, 3933300, Note_on_c, 0, 78, 0
2, 3933300, Note_on_c, 0, 79, 100
2, 3933360, Note_on_c, 0, 79, 0
2, 3933360, Note_on_c, 0, 66, 100
2, 3933660, Note_on_c, 0, 66, 0
2, 3933660, Note_on_c, 0, 67, 100
2, 3933720, Note_on_c, 0, 67, 0
2, 3933720, Note_on_c, 0, 69, 100
2, 3933780, Note_on_c, 0, 69, 0
2, 3933780, Note_on_c, 0, 71, 100
2, 3933840, Note_on_c, 0, 71, 0
2, 3933840, Note_on_c, 0, 72, 100
2, 3933960, Note_on_c, 0, 72, 0
2, 3933960, Note_on_c, 0, 74, 100
2, 3934080, Note_on_c, 0, 74, 0
2, 3934080, Note_on_c, 0, 72, 100
2, 3934110, Note_on_c, 0, 72, 0
2, 3934110, Note_on_c, 0, 71, 100
2, 3934200, Note_on_c, 0, 71, 0
2, 3934200, Note_on_c, 0, 69, 100
2, 3934320, Note_on_c, 0, 69, 0
2, 3934320, Note_on_c, 0, 67, 100
2, 3934440, Note_on_c, 0, 67, 0
2, 3934440, Note_on_c, 0, 76, 100
2, 3934560, Note_on_c, 0, 76, 0
2, 3934560, Note_on_c, 0, 78, 100
2, 3934620, Note_on_c, 0, 78, 0
2, 3934620, Note_on_c, 0, 76, 100
2, 3934680, Note_on_c, 0, 76, 0
2, 3934680, Note_on_c, 0, 75, 100
2, 3934740, Note_on_c, 0, 75, 0
2, 3934740, Note_on_c, 0, 76, 100
2, 3934800, Note_on_c, 0, 76, 0
2, 3934800, Note_on_c, 0, 80, 100
2, 3935280, Note_on_c, 0, 80, 0
2, 3935280, Note_on_c, 0, 81, 100
2, 3935520, Note_on_c, 0, 81, 0
2, 3935520, Note_on_c, 0, 83, 100
2, 3935760, Note_on_c, 0, 83, 0
2, 3935760, Note_on_c, 0, 84, 100
2, 3935880, Note_on_c, 0, 84, 0
2, 3935880, Note_on_c, 0, 76, 100
2, 3936000, Note_on_c, 0, 76, 0
2, 3936000, Note_on_c, 0, 75, 100
2, 3936060, Note_on_c, 0, 75, 0
2, 3936060, Note_on_c, 0, 73, 100
2, 3936120, Note_on_c, 0, 73, 0
2, 3936120, Note_on_c, 0, 75, 100
2, 3936240, Note_on_c, 0, 75, 0
2, 3936240, Note_on_c, 0, 73, 100
2, 3936270, Note_on_c, 0, 73, 0
2, 3936270, Note_on_c, 0, 75, 100
2, 3936780, Note_on_c, 0, 75, 0
2, 3936780, Note_on_c, 0, 76, 100
2, 3936840, Note_on_c, 0, 76, 0
2, 3936840, Note_on_c, 0, 78, 100
2, 3936900, Note_on_c, 0, 78, 0
2, 3936900, Note_on_c, 0, 76, 100
2, 3936960, Note_on_c, 0, 76, 0
2, 3936960, Note_on_c, 0, 75, 100
2, 3937020, Note_on_c, 0, 75, 0
2, 3937020, Note_on_c, 0, 73, 100
2, 3937080, Note_on_c, 0, 73, 0
2, 3937080, Note_on_c, 0, 71, 100
2, 3937140, Note_on_c, 0, 71, 0
2, 3937140, Note_on_c, 0, 69, 100
2, 3937200, Note_on_c, 0, 69, 0
2, 3937200, Note_on_c, 0, 67, 100
2, 3937260, Note_on_c, 0, 67, 0
2, 3937260, Note_on_c, 0, 69, 100
2, 3937320, Note_on_c, 0, 69, 0
2, 3937320, Note_on_c, 0, 78, 100
2, 3937380, Note_on_c, 0, 78, 0
2, 3937380, Note_on_c, 0, 67, 100
2, 3937440, Note_on_c, 0, 67, 0
2, 3937440, Note_on_c, 0, 76, 100
2, 3937500, Note_on_c, 0, 76, 0
2, 3937500, Note_on_c, 0, 75, 100
2, 3937560, Note_on_c, 0, 75, 0
2, 3937560, Note_on_c, 0, 76, 100
2, 3937620, Note_on_c, 0, 76, 0
2, 3937620, Note_on_c, 0, 77, 100
2, 3937680, Note_on_c, 0, 77, 0
2, 3937680, Note_on_c, 0, 76, 100
2, 3937740, Note_on_c, 0, 76, 0
2, 3937740, Note_on_c, 0, 75, 100
2, 3937800, Note_on_c, 0, 75, 0
2, 3937800, Note_on_c, 0, 76, 100
2, 3937860, Note_on_c, 0, 76, 0
2, 3937860, Note_on_c, 0, 78, 100
2, 3937920, Note_on_c, 0, 78, 0
2, 3937920, Note_on_c, 0, 76, 100
2, 3937980, Note_on_c, 0, 76, 0
2, 3937980, Note_on_c, 0, 79, 100
2, 3938040, Note_on_c, 0, 79, 0
2, 3938040, Note_on_c, 0, 76, 100
2, 3938100, Note_on_c, 0, 76, 0
2, 3938100, Note_on_c, 0, 81, 100
2, 3938160, Note_on_c, 0, 81, 0
2, 3938160, Note_on_c, 0, 76, 100
2, 3938220, Note_on_c, 0, 76, 0
2, 3938220, Note_on_c, 0, 83, 100
2, 3938280, Note_on_c, 0, 83, 0
2, 3938280, Note_on_c, 0, 76, 100
2, 3938340, Note_on_c, 0, 76, 0
2, 3938340, Note_on_c, 0, 84, 100
2, 3938400, Note_on_c, 0, 84, 0
2, 3938400, Note_on_c, 0, 76, 100
2, 3938460, Note_on_c, 0, 76, 0
2, 3938460, Note_on_c, 0, 86, 100
2, 3938520, Note_on_c, 0, 86, 0
2, 3938520, Note_on_c, 0, 76, 100
2, 3938580, Note_on_c, 0, 76, 0
2, 3938580, Note_on_c, 0, 84, 100
2, 3938640, Note_on_c, 0, 84, 0
2, 3938640, Note_on_c, 0, 76, 100
2, 3938700, Note_on_c, 0, 76, 0
2, 3938700, Note_on_c, 0, 83, 100
2, 3938760, Note_on_c, 0, 83, 0
2, 3938760, Note_on_c, 0, 76, 100
2, 3938820, Note_on_c, 0, 76, 0
2, 3938820, Note_on_c, 0, 84, 100
2, 3938880, Note_on_c, 0, 84, 0
2, 3938880, Note_on_c, 0, 76, 100
2, 3938940, Note_on_c, 0, 76, 0
2, 3938940, Note_on_c, 0, 75, 100
2, 3939000, Note_on_c, 0, 75, 0
2, 3939000, Note_on_c, 0, 76, 100
2, 3939060, Note_on_c, 0, 76, 0
2, 3939060, Note_on_c, 0, 77, 100
2, 3939120, Note_on_c, 0, 77, 0
2, 3939120, Note_on_c, 0, 76, 100
2, 3939180, Note_on_c, 0, 76, 0
2, 3939180, Note_on_c, 0, 75, 100
2, 3939240, Note_on_c, 0, 75, 0
2, 3939240, Note_on_c, 0, 76, 100
2, 3939300, Note_on_c, 0, 76, 0
2, 3939300, Note_on_c, 0, 84, 100
2, 3939360, Note_on_c, 0, 84, 0
2, 3939360, Note_on_c, 0, 76, 100
2, 3939420, Note_on_c, 0, 76, 0
2, 3939420, Note_on_c, 0, 83, 100
2, 3939480, Note_on_c, 0, 83, 0
2, 3939480, Note_on_c, 0, 76, 100
2, 3939540, Note_on_c, 0, 76, 0
2, 3939540, Note_on_c, 0, 81, 100
2, 3939600, Note_on_c, 0, 81, 0
2, 3939600, Note_on_c, 0, 76, 100
2, 3939660, Note_on_c, 0, 76, 0
2, 3939660, Note_on_c, 0, 79, 100
2, 3939720, Note_on_c, 0, 79, 0
2, 3939720, Note_on_c, 0, 76, 100
2, 3939780, Note_on_c, 0, 76, 0
2, 3939780, Note_on_c, 0, 78, 100
2, 3939840, Note_on_c, 0, 78, 0
2, 3939840, Note_on_c, 0, 76, 100
2, 3939900, Note_on_c, 0, 76, 0
2, 3939900, Note_on_c, 0, 79, 100
2, 3939960, Note_on_c, 0, 79, 0
2, 3939960, Note_on_c, 0, 76, 100
2, 3940020, Note_on_c, 0, 76, 0
2, 3940020, Note_on_c, 0, 81, 100
2, 3940080, Note_on_c, 0, 81, 0
2, 3940080, Note_on_c, 0, 76, 100
2, 3940140, Note_on_c, 0, 76, 0
2, 3940140, Note_on_c, 0, 75, 100
2, 3940200, Note_on_c, 0, 75, 0
2, 3940200, Note_on_c, 0, 73, 100
2, 3940260, Note_on_c, 0, 73, 0
2, 3940260, Note_on_c, 0, 75, 100
2, 3940320, Note_on_c, 0, 75, 0
2, 3940320, Note_on_c, 0, 81, 100
2, 3940380, Note_on_c, 0, 81, 0
2, 3940380, Note_on_c, 0, 79, 100
2, 3940440, Note_on_c, 0, 79, 0
2, 3940440, Note_on_c, 0, 81, 100
2, 3940500, Note_on_c, 0, 81, 0
2, 3940500, Note_on_c, 0, 83, 100
2, 3940560, Note_on_c, 0, 83, 0
2, 3940560, Note_on_c, 0, 81, 100
2, 3940620, Note_on_c, 0, 81, 0
2, 3940620, Note_on_c, 0, 79, 100
2, 3940680, Note_on_c, 0, 79, 0
2, 3940680, Note_on_c, 0, 81, 100
2, 3940740, Note_on_c, 0, 81, 0
2, 3940740, Note_on_c, 0, 71, 100
2, 3940800, Note_on_c, 0, 71, 0
2, 3940800, Note_on_c, 0, 79, 100
2, 3940860, Note_on_c, 0, 79, 0
2, 3940860, Note_on_c, 0, 78, 100
2, 3940920, Note_on_c, 0, 78, 0
2, 3940920, Note_on_c, 0, 79, 100
2, 3940980, Note_on_c, 0, 79, 0
2, 3940980, Note_on_c, 0, 81, 100
2, 3941040, Note_on_c, 0, 81, 0
2, 3941040, Note_on_c, 0, 79, 100
2, 3941100, Note_on_c, 0, 79, 0
2, 3941100, Note_on_c, 0, 78, 100
2, 3941160, Note_on_c, 0, 78, 0
2, 3941160, Note_on_c, 0, 79, 100
2, 3941220, Note_on_c, 0, 79, 0
2, 3941220, Note_on_c, 0, 69, 100
2, 3941280, Note_on_c, 0, 69, 0
2, 3941280, Note_on_c, 0, 78, 100
2, 3941340, Note_on_c, 0, 78, 0
2, 3941340, Note_on_c, 0, 76, 100
2, 3941400, Note_on_c, 0, 76, 0
2, 3941400, Note_on_c, 0, 78, 100
2, 3941460, Note_on_c, 0, 78, 0
2, 3941460, Note_on_c, 0, 79, 100
2, 3941520, Note_on_c, 0, 79, 0
2, 3941520, Note_on_c, 0, 81, 100
2, 3941580, Note_on_c, 0, 81, 0
2, 3941580, Note_on_c, 0, 79, 100
2, 3941640, Note_on_c, 0, 79, 0
2, 3941640, Note_on_c, 0, 78, 100
2, 3941700, Note_on_c, 0, 78, 0
2, 3941700, Note_on_c, 0, 79, 100
2, 3941760, Note_on_c, 0, 79, 0
2, 3941760, Note_on_c, 0, 75, 100
2, 3942000, Note_on_c, 0, 75, 0
2, 3942000, Note_on_c, 0, 76, 100
2, 3942240, Note_on_c, 0, 76, 0
2, 3942240, Note_on_c, 0, 69, 100
2, 3942480, Note_on_c, 0, 69, 0
2, 3942480, Note_on_c, 0, 67, 100
2, 3942720, Note_on_c, 0, 67, 0
2, 3942720, Note_on_c, 0, 66, 100
2, 3942780, Note_on_c, 0, 66, 0
2, 3942780, Note_on_c, 0, 67, 100
2, 3942840, Note_on_c, 0, 67, 0
2, 3942840, Note_on_c, 0, 71, 100
2, 3943020, Note_on_c, 0, 71, 0
2, 3943020, Note_on_c, 0, 72, 100
2, 3943080, Note_on_c, 0, 72, 0
2, 3943080, Note_on_c, 0, 74, 100
2, 3943140, Note_on_c, 0, 74, 0
2, 3943140, Note_on_c, 0, 76, 100
2, 3943200, Note_on_c, 0, 76, 0
2, 3943200, Note_on_c, 0, 77, 100
2, 3943260, Note_on_c, 0, 77, 0
2, 3943260, Note_on_c, 0, 76, 100
2, 3943320, Note_on_c, 0, 76, 0
2, 3943320, Note_on_c, 0, 75, 100
2, 3943380, Note_on_c, 0, 75, 0
2, 3943380, Note_on_c, 0, 76, 100
2, 3943440, Note_on_c, 0, 76, 0
2, 3943440, Note_on_c, 0, 69, 100
2, 3943800, Note_on_c, 0, 69, 0
2, 3943800, Note_on_c, 0, 71, 100
2, 3943920, Note_on_c, 0, 71, 0
2, 3943920, Note_on_c, 0, 69, 100
2, 3943950, Note_on_c, 0, 69, 0
2, 3943950, Note_on_c, 0, 67, 100
2, 3944040, Note_on_c, 0, 67, 0
2, 3944040, Note_on_c, 0, 69, 100
2, 3944160, Note_on_c, 0, 69, 0
2, 3944160, Note_on_c, 0, 67, 100
2, 3944190, Note_on_c, 0, 67, 0
2, 3944190, Note_on_c, 0, 66, 100
2, 3944400, Note_on_c, 0, 66, 0
2, 3944400, Note_on_c, 0, 76, 100
2, 3944520, Note_on_c, 0, 76, 0
2, 3944520, Note_on_c, 0, 74, 100
2, 3944640, Note_on_c, 0, 74, 0
2, 3944640, Note_on_c, 0, 76, 100
2, 3944700, Note_on_c, 0, 76, 0
2, 3944700, Note_on_c, 0, 74, 100
2, 3944760, Note_on_c, 0, 74, 0
2, 3944760, Note_on_c, 0, 73, 100
2, 3944820, Note_on_c, 0, 73, 0
2, 3944820, Note_on_c, 0, 74, 100
2, 3944880, Note_on_c, 0, 74, 0
2, 3944880, Note_on_c, 0, 67, 100
2, 3945240, Note_on_c, 0, 67, 0
2, 3945240, Note_on_c, 0, 69, 100
2, 3945360, Note_on_c, 0, 69, 0
2, 3945360, Note_on_c, 0, 67, 100
2, 3945390, Note_on_c, 0, 67, 0
2, 3945390, Note_on_c, 0, 65, 100
2, 3945480, Note_on_c, 0, 65, 0
2, 3945480, Note_on_c, 0, 67, 100
2, 3945600, Note_on_c, 0, 67, 0
2, 3945600, Note_on_c, 0, 65, 100
2, 3945630, Note_on_c, 0, 65, 0
2, 3945630, Note_on_c, 0, 64, 100
2, 3945840, Note_on_c, 0, 64, 0
2, 3945840, Note_on_c, 0, 74, 100
2, 3945960, Note_on_c, 0, 74, 0
2, 3945960, Note_on_c, 0, 72, 100
2, 3946080, Note_on_c, 0, 72, 0
2, 3946080, Note_on_c, 0, 71, 100
2, 3946140, Note_on_c, 0, 71, 0
2, 3946140, Note_on_c, 0, 69, 100
2, 3946200, Note_on_c, 0, 69, 0
2, 3946200, Note_on_c, 0, 67, 100
2, 3946380, Note_on_c, 0, 67, 0
2, 3946380, Note_on_c, 0, 66, 100
2, 3946440, Note_on_c, 0, 66, 0
2, 3946440, Note_on_c, 0, 64, 100
2, 3946620, Note_on_c, 0, 64, 0
2, 3946620, Note_on_c, 0, 62, 100
2, 3946680, Note_on_c, 0, 62, 0
2, 3946680, Note_on_c, 0, 64, 100
2, 3946860, Note_on_c, 0, 64, 0
2, 3946860, Note_on_c, 0, 66, 100
2, 3946920, Note_on_c, 0, 66, 0
2, 3946920, Note_on_c, 0, 67, 100
2, 3947100, Note_on_c, 0, 67, 0
2, 3947100, Note_on_c, 0, 69, 100
2, 3947160, Note_on_c, 0, 69, 0
2, 3947160, Note_on_c, 0, 71, 100
2, 3947340, Note_on_c, 0, 71, 0
2, 3947340, Note_on_c, 0, 72, 100
2, 3947400, Note_on_c, 0, 72, 0
2, 3947400, Note_on_c, 0, 74, 100
2, 3947580, Note_on_c, 0, 74, 0
2, 3947580, Note_on_c, 0, 72, 100
2, 3947640, Note_on_c, 0, 72, 0
2, 3947640, Note_on_c, 0, 71, 100
2, 3947700, Note_on_c, 0, 71, 0
2, 3947700, Note_on_c, 0, 72, 100
2, 3947760, Note_on_c, 0, 72, 0
2, 3947760, Note_on_c, 0, 79, 100
2, 3947820, Note_on_c, 0, 79, 0
2, 3947820, Note_on_c, 0, 78, 100
2, 3947880, Note_on_c, 0, 78, 0
2, 3947880, Note_on_c, 0, 76, 100
2, 3947940, Note_on_c, 0, 76, 0
2, 3947940, Note_on_c, 0, 78, 100
2, 3948000, Note_on_c, 0, 78, 0
2, 3948000, Note_on_c, 0, 83, 100
2, 3948060, Note_on_c, 0, 83, 0
2, 3948060, Note_on_c, 0, 81, 100
2, 3948120, Note_on_c, 0, 81, 0
2, 3948120, Note_on_c, 0, 79, 100
2, 3948180, Note_on_c, 0, 79, 0
2, 3948180, Note_on_c, 0, 81, 100
2, 3948240, Note_on_c, 0, 81, 0
2, 3948240, Note_on_c, 0, 86, 100
2, 3948300, Note_on_c, 0, 86, 0
2, 3948300, Note_on_c, 0, 84, 100
2, 3948360, Note_on_c, 0, 84, 0
2, 3948360, Note_on_c, 0, 83, 100
2, 3948420, Note_on_c, 0, 83, 0
2, 3948420, Note_on_c, 0, 84, 100
2, 3948480, Note_on_c, 0, 84, 0
2, 3948480, Note_on_c, 0, 83, 100
2, 3948540, Note_on_c, 0, 83, 0
2, 3948540, Note_on_c, 0, 81, 100
2, 3948600, Note_on_c, 0, 81, 0
2, 3948600, Note_on_c, 0, 79, 100
2, 3948660, Note_on_c, 0, 79, 0
2, 3948660, Note_on_c, 0, 78, 100
2, 3948720, Note_on_c, 0, 78, 0
2, 3948720, Note_on_c, 0, 76, 100
2, 3948780, Note_on_c, 0, 76, 0
2, 3948780, Note_on_c, 0, 74, 100
2, 3948840, Note_on_c, 0, 74, 0
2, 3948840, Note_on_c, 0, 72, 100
2, 3948900, Note_on_c, 0, 72, 0
2, 3948900, Note_on_c, 0, 71, 100
2, 3948960, Note_on_c, 0, 71, 0
2, 3948960, Note_on_c, 0, 79, 100
2, 3949020, Note_on_c, 0, 79, 0
2, 3949020, Note_on_c, 0, 78, 100
2, 3949080, Note_on_c, 0, 78, 0
2, 3949080, Note_on_c, 0, 79, 100
2, 3949140, Note_on_c, 0, 79, 0
2, 3949140, Note_on_c, 0, 81, 100
2, 3949200, Note_on_c, 0, 81, 0
2, 3949200, Note_on_c, 0, 79, 100
2, 3949260, Note_on_c, 0, 79, 0
2, 3949260, Note_on_c, 0, 78, 100
2, 3949320, Note_on_c, 0, 78, 0
2, 3949320, Note_on_c, 0, 79, 100
2, 3949380, Note_on_c, 0, 79, 0
2, 3949380, Note_on_c, 0, 72, 100
2, 3949440, Note_on_c, 0, 72, 0
2, 3949440, Note_on_c, 0, 78, 100
2, 3949500, Note_on_c, 0, 78, 0
2, 3949500, Note_on_c, 0, 76, 100
2, 3949560, Note_on_c, 0, 76, 0
2, 3949560, Note_on_c, 0, 78, 100
2, 3949620, Note_on_c, 0, 78, 0
2, 3949620, Note_on_c, 0, 79, 100
2, 3949680, Note_on_c, 0, 79, 0
2, 3949680, Note_on_c, 0, 78, 100
2, 3949740, Note_on_c, 0, 78, 0
2, 3949740, Note_on_c, 0, 76, 100
2, 3949800, Note_on_c, 0, 76, 0
2, 3949800, Note_on_c, 0, 78, 100
2, 3949860, Note_on_c, 0, 78, 0
2, 3949860, Note_on_c, 0, 74, 100
2, 3949920, Note_on_c, 0, 74, 0
2, 3949920, Note_on_c, 0, 77, 100
2, 3949980, Note_on_c, 0, 77, 0
2, 3949980, Note_on_c, 0, 76, 100
2, 3950040, Note_on_c, 0, 76, 0
2, 3950040, Note_on_c, 0, 77, 100
2, 3950100, Note_on_c, 0, 77, 0
2, 3950100, Note_on_c, 0, 79, 100
2, 3950160, Note_on_c, 0, 79, 0
2, 3950160, Note_on_c, 0, 77, 100
2, 3950220, Note_on_c, 0, 77, 0
2, 3950220, Note_on_c, 0, 76, 100
2, 3950280, Note_on_c, 0, 76, 0
2, 3950280, Note_on_c, 0, 74, 100
2, 3950340, Note_on_c, 0, 74, 0
2, 3950340, Note_on_c, 0, 76, 100
2, 3950400, Note_on_c, 0, 76, 0
2, 3950400, Note_on_c, 0, 72, 100
2, 3950460, Note_on_c, 0, 72, 0
2, 3950460, Note_on_c, 0, 71, 100
2, 3950520, Note_on_c, 0, 71, 0
2, 3950520, Note_on_c, 0, 72, 100
2, 3950580, Note_on_c, 0, 72, 0
2, 3950580, Note_on_c, 0, 74, 100
2, 3950640, Note_on_c, 0, 74, 0
2, 3950640, Note_on_c, 0, 72, 100
2, 3950700, Note_on_c, 0, 72, 0
2, 3950700, Note_on_c, 0, 71, 100
2, 3950760, Note_on_c, 0, 71, 0
2, 3950760, Note_on_c, 0, 72, 100
2, 3950820, Note_on_c, 0, 72, 0
2, 3950820, Note_on_c, 0, 74, 100
2, 3950880, Note_on_c, 0, 74, 0
2, 3950880, Note_on_c, 0, 71, 100
2, 3950940, Note_on_c, 0, 71, 0
2, 3950940, Note_on_c, 0, 69, 100
2, 3951000, Note_on_c, 0, 69, 0
2, 3951000, Note_on_c, 0, 71, 100
2, 3951060, Note_on_c, 0, 71, 0
2, 3951060, Note_on_c, 0, 72, 100
2, 3951120, Note_on_c, 0, 72, 0
2, 3951120, Note_on_c, 0, 71, 100
2, 3951180, Note_on_c, 0, 71, 0
2, 3951180, Note_on_c, 0, 69, 100
2, 3951240, Note_on_c, 0, 69, 0
2, 3951240, Note_on_c, 0, 71, 100
2, 3951300, Note_on_c, 0, 71, 0
2, 3951300, Note_on_c, 0, 73, 100
2, 3951360, Note_on_c, 0, 73, 0
2, 3951360, Note_on_c, 0, 70, 100
2, 3951420, Note_on_c, 0, 70, 0
2, 3951420, Note_on_c, 0, 69, 100
2, 3951480, Note_on_c, 0, 69, 0
2, 3951480, Note_on_c, 0, 70, 100
2, 3951540, Note_on_c, 0, 70, 0
2, 3951540, Note_on_c, 0, 72, 100
2, 3951600, Note_on_c, 0, 72, 0
2, 3951600, Note_on_c, 0, 70, 100
2, 3951660, Note_on_c, 0, 70, 0
2, 3951660, Note_on_c, 0, 69, 100
2, 3951720, Note_on_c, 0, 69, 0
2, 3951720, Note_on_c, 0, 67, 100
2, 3951780, Note_on_c, 0, 67, 0
2, 3951780, Note_on_c, 0, 66, 100
2, 3951840, Note_on_c, 0, 66, 0
2, 3951840, Note_on_c, 0, 72, 100
2, 3951900, Note_on_c, 0, 72, 0
2, 3951900, Note_on_c, 0, 71, 100
2, 3951960, Note_on_c, 0, 71, 0
2, 3951960, Note_on_c, 0, 72, 100
2, 3952020, Note_on_c, 0, 72, 0
2, 3952020, Note_on_c, 0, 74, 100
2, 3952080, Note_on_c, 0, 74, 0
2, 3952080, Note_on_c, 0, 72, 100
2, 3952140, Note_on_c, 0, 72, 0
2, 3952140, Note_on_c, 0, 71, 100
2, 3952200, Note_on_c, 0, 71, 0
2, 3952200, Note_on_c, 0, 72, 100
2, 3952260, Note_on_c, 0, 72, 0
2, 3952260, Note_on_c, 0, 78, 100
2, 3952320, Note_on_c, 0, 78, 0
2, 3952320, Note_on_c, 0, 72, 100
2, 3952380, Note_on_c, 0, 72, 0
2, 3952380, Note_on_c, 0, 71, 100
2, 3952440, Note_on_c, 0, 71, 0
2, 3952440, Note_on_c, 0, 72, 100
2, 3952500, Note_on_c, 0, 72, 0
2, 3952500, Note_on_c, 0, 74, 100
2, 3952560, Note_on_c, 0, 74, 0
2, 3952560, Note_on_c, 0, 72, 100
2, 3952620, Note_on_c, 0, 72, 0
2, 3952620, Note_on_c, 0, 71, 100
2, 3952680, Note_on_c, 0, 71, 0
2, 3952680, Note_on_c, 0, 72, 100
2, 3952740, Note_on_c, 0, 72, 0
2, 3952740, Note_on_c, 0, 81, 100
2, 3952800, Note_on_c, 0, 81, 0
2, 3952800, Note_on_c, 0, 72, 100
2, 3952860, Note_on_c, 0, 72, 0
2, 3952860, Note_on_c, 0, 71, 100
2, 3952920, Note_on_c, 0, 71, 0
2, 3952920, Note_on_c, 0, 72, 100
2, 3952980, Note_on_c, 0, 72, 0
2, 3952980, Note_on_c, 0, 74, 100
2, 3953040, Note_on_c, 0, 74, 0
2, 3953040, Note_on_c, 0, 72, 100
2, 3953100, Note_on_c, 0, 72, 0
2, 3953100, Note_on_c, 0, 71, 100
2, 3953160, Note_on_c, 0, 71, 0
2, 3953160, Note_on_c, 0, 69, 100
2, 3953220, Note_on_c, 0, 69, 0
2, 3953220, Note_on_c, 0, 71, 100
2, 3953280, Note_on_c, 0, 71, 0
2, 3953280, Note_on_c, 0, 66, 100
2, 3953520, Note_on_c, 0, 66, 0
2, 3953520, Note_on_c, 0, 67, 100
2, 3953760, Note_on_c, 0, 67, 0
2, 3953760, Note_on_c, 0, 60, 100
2, 3954000, Note_on_c, 0, 60, 0
2, 3954000, Note_on_c, 0, 59, 100
2, 3954240, Note_on_c, 0, 59, 0
2, 3954240, Note_on_c, 0, 78, 100
2, 3954720, Note_on_c, 0, 78, 0
2, 3954720, Note_on_c, 0, 79, 100
2, 3954780, Note_on_c, 0, 79, 0
2, 3954780, Note_on_c, 0, 78, 100
2, 3954840, Note_on_c, 0, 78, 0
2, 3954840, Note_on_c, 0, 76, 100
2, 3954900, Note_on_c, 0, 76, 0
2, 3954900, Note_on_c, 0, 78, 100
2, 3954960, Note_on_c, 0, 78, 0
2, 3954960, Note_on_c, 0, 76, 100
2, 3955260, Note_on_c, 0, 76, 0
2, 3955260, Note_on_c, 0, 78, 100
2, 3955320, Note_on_c, 0, 78, 0
2, 3955320, Note_on_c, 0, 79, 100
2, 3955380, Note_on_c, 0, 79, 0
2, 3955380, Note_on_c, 0, 81, 100
2, 3955440, Note_on_c, 0, 81, 0
2, 3955440, Note_on_c, 0, 83, 100
2, 3955560, Note_on_c, 0, 83, 0
2, 3955560, Note_on_c, 0, 84, 100
2, 3955680, Note_on_c, 0, 84, 0
2, 3955680, Note_on_c, 0, 83, 100
2, 3955710, Note_on_c, 0, 83, 0
2, 3955710, Note_on_c, 0, 81, 100
2, 3955800, Note_on_c, 0, 81, 0
2, 3955800, Note_on_c, 0, 79, 100
2, 3955920, Note_on_c, 0, 79, 0
2, 3955920, Note_on_c, 0, 78, 100
2, 3956040, Note_on_c, 0, 78, 0
2, 3956040, Note_on_c, 0, 79, 100
2, 3956160, Note_on_c, 0, 79, 0
2, 3956160, Note_on_c, 0, 81, 100
2, 3956220, Note_on_c, 0, 81, 0
2, 3956220, Note_on_c, 0, 79, 100
2, 3956280, Note_on_c, 0, 79, 0
2, 3956280, Note_on_c, 0, 78, 100
2, 3956340, Note_on_c, 0, 78, 0
2, 3956340, Note_on_c, 0, 79, 100
2, 3956400, Note_on_c, 0, 79, 0
2, 3956400, Note_on_c, 0, 66, 100
2, 3956700, Note_on_c, 0, 66, 0
2, 3956700, Note_on_c, 0, 67, 100
2, 3956760, Note_on_c, 0, 67, 0
2, 3956760, Note_on_c, 0, 69, 100
2, 3956820, Note_on_c, 0, 69, 0
2, 3956820, Note_on_c, 0, 71, 100
2, 3956880, Note_on_c, 0, 71, 0
2, 3956880, Note_on_c, 0, 72, 100
2, 3957000, Note_on_c, 0, 72, 0
2, 3957000, Note_on_c, 0, 74, 100
2, 3957120, Note_on_c, 0, 74, 0
2, 3957120, Note_on_c, 0, 72, 100
2, 3957150, Note_on_c, 0, 72, 0
2, 3957150, Note_on_c, 0, 71, 100
2, 3957240, Note_on_c, 0, 71, 0
2, 3957240, Note_on_c, 0, 69, 100
2, 3957360, Note_on_c, 0, 69, 0
2, 3957360, Note_on_c, 0, 67, 100
2, 3957480, Note_on_c, 0, 67, 0
2, 3957480, Note_on_c, 0, 76, 100
2, 3957600, Note_on_c, 0, 76, 0
2, 3957600, Note_on_c, 0, 78, 100
2, 3957660, Note_on_c, 0, 78, 0
2, 3957660, Note_on_c, 0, 76, 100
2, 3957720, Note_on_c, 0, 76, 0
2, 3957720, Note_on_c, 0, 75, 100
2, 3957780, Note_on_c, 0, 75, 0
2, 3957780, Note_on_c, 0, 76, 100
2, 3957840, Note_on_c, 0, 76, 0
2, 3957840, Note_on_c, 0, 80, 100
2, 3958320, Note_on_c, 0, 80, 0
2, 3958320, Note_on_c, 0, 81, 100
2, 3958560, Note_on_c, 0, 81, 0
2, 3958560, Note_on_c, 0, 83, 100
2, 3958800, Note_on_c, 0, 83, 0
2, 3958800, Note_on_c, 0, 84, 100
2, 3958920, Note_on_c, 0, 84, 0
2, 3958920, Note_on_c, 0, 76, 100
2, 3959040, Note_on_c, 0, 76, 0
2, 3959040, Note_on_c, 0, 75, 100
2, 3959100, Note_on_c, 0, 75, 0
2, 3959100, Note_on_c, 0, 73, 100
2, 3959160, Note_on_c, 0, 73, 0
2, 3959160, Note_on_c, 0, 75, 100
2, 3959280, Note_on_c, 0, 75, 0
2, 3959280, Note_on_c, 0, 73, 100
2, 3959310, Note_on_c, 0, 73, 0
2, 3959310, Note_on_c, 0, 75, 100
2, 3959820, Note_on_c, 0, 75, 0
2, 3959820, Note_on_c, 0, 76, 100
2, 3959880, Note_on_c, 0, 76, 0
2, 3959880, Note_on_c, 0, 78, 100
2, 3959940, Note_on_c, 0, 78, 0
2, 3959940, Note_on_c, 0, 76, 100
2, 3960000, Note_on_c, 0, 76, 0
2, 3960000, Note_on_c, 0, 75, 100
2, 3960060, Note_on_c, 0, 75, 0
2, 3960060, Note_on_c, 0, 73, 100
2, 3960120, Note_on_c, 0, 73, 0
2, 3960120, Note_on_c, 0, 71, 100
2, 3960180, Note_on_c, 0, 71, 0
2, 3960180, Note_on_c, 0, 69, 100
2, 3960240, Note_on_c, 0, 69, 0
2, 3960240, Note_on_c, 0, 67, 100
2, 3960300, Note_on_c, 0, 67, 0
2, 3960300, Note_on_c, 0, 69, 100
2, 3960360, Note_on_c, 0, 69, 0
2, 3960360, Note_on_c, 0, 78, 100
2, 3960420, Note_on_c, 0, 78, 0
2, 3960420, Note_on_c, 0, 67, 100
2, 3960480, Note_on_c, 0, 67, 0
2, 3960480, Note_on_c, 0, 76, 100
2, 3960540, Note_on_c, 0, 76, 0
2, 3960540, Note_on_c, 0, 75, 100
2, 3960600, Note_on_c, 0, 75, 0
2, 3960600, Note_on_c, 0, 76, 100
2, 3960660, Note_on_c, 0, 76, 0
2, 3960660, Note_on_c, 0, 77, 100
2, 3960720, Note_on_c, 0, 77, 0
2, 3960720, Note_on_c, 0, 76, 100
2, 3960780, Note_on_c, 0, 76, 0
2, 3960780, Note_on_c, 0, 75, 100
2, 3960840, Note_on_c, 0, 75, 0
2, 3960840, Note_on_c, 0, 76, 100
2, 3960900, Note_on_c, 0, 76, 0
2, 3960900, Note_on_c, 0, 78, 100
2, 3960960, Note_on_c, 0, 78, 0
2, 3960960, Note_on_c, 0, 76, 100
2, 3961020, Note_on_c, 0, 76, 0
2, 3961020, Note_on_c, 0, 79, 100
2, 3961080, Note_on_c, 0, 79, 0
2, 3961080, Note_on_c, 0, 76, 100
2, 3961140, Note_on_c, 0, 76, 0
2, 3961140, Note_on_c, 0, 81, 100
2, 3961200, Note_on_c, 0, 81, 0
2, 3961200, Note_on_c, 0, 76, 100
2, 3961260, Note_on_c, 0, 76, 0
2, 3961260, Note_on_c, 0, 83, 100
2, 3961320, Note_on_c, 0, 83, 0
2, 3961320, Note_on_c, 0, 76, 100
2, 3961380, Note_on_c, 0, 76, 0
2, 3961380, Note_on_c, 0, 84, 100
2, 3961440, Note_on_c, 0, 84, 0
2, 3961440, Note_on_c, 0, 76, 100
2, 3961500, Note_on_c, 0, 76, 0
2, 3961500, Note_on_c, 0, 86, 100
2, 3961560, Note_on_c, 0, 86, 0
2, 3961560, Note_on_c, 0, 76, 100
2, 3961620, Note_on_c, 0, 76, 0
2, 3961620, Note_on_c, 0, 84, 100
2, 3961680, Note_on_c, 0, 84, 0
2, 3961680, Note_on_c, 0, 76, 100
2, 3961740, Note_on_c, 0, 76, 0
2, 3961740, Note_on_c, 0, 83, 100
2, 3961800, Note_on_c, 0, 83, 0
2, 3961800, Note_on_c, 0, 76, 100
2, 3961860, Note_on_c, 0, 76, 0
2, 3961860, Note_on_c, 0, 84, 100
2, 3961920, Note_on_c, 0, 84, 0
2, 3961920, Note_on_c, 0, 76, 100
2, 3961980, Note_on_c, 0, 76, 0
2, 3961980, Note_on_c, 0, 75, 100
2, 3962040, Note_on_c, 0, 75, 0
2, 3962040, Note_on_c, 0, 76, 100
2, 3962100, Note_on_c, 0, 76, 0
2, 3962100, Note_on_c, 0, 77, 100
2, 3962160, Note_on_c, 0, 77, 0
2, 3962160, Note_on_c, 0, 76, 100
2, 3962220, Note_on_c, 0, 76, 0
2, 3962220, Note_on_c, 0, 75, 100
2, 3962280, Note_on_c, 0, 75, 0
2, 3962280, Note_on_c, 0, 76, 100
2, 3962340, Note_on_c, 0, 76, 0
2, 3962340, Note_on_c, 0, 84, 100
2, 3962400, Note_on_c, 0, 84, 0
2, 3962400, Note_on_c, 0, 76, 100
2, 3962460, Note_on_c, 0, 76, 0
2, 3962460, Note_on_c, 0, 83, 100
2, 3962520, Note_on_c, 0, 83, 0
2, 3962520, Note_on_c, 0, 76, 100
2, 3962580, Note_on_c, 0, 76, 0
2, 3962580, Note_on_c, 0, 81, 100
2, 3962640, Note_on_c, 0, 81, 0
2, 3962640, Note_on_c, 0, 76, 100
2, 3962700, Note_on_c, 0, 76, 0
2, 3962700, Note_on_c, 0, 79, 100
2, 3962760, Note_on_c, 0, 79, 0
2, 3962760, Note_on_c, 0, 76, 100
2, 3962820, Note_on_c, 0, 76, 0
2, 3962820, Note_on_c, 0, 78, 100
2, 3962880, Note_on_c, 0, 78, 0
2, 3962880, Note_on_c, 0, 76, 100
2, 3962940, Note_on_c, 0, 76, 0
2, 3962940, Note_on_c, 0, 79, 100
2, 3963000, Note_on_c, 0, 79, 0
2, 3963000, Note_on_c, 0, 76, 100
2, 3963060, Note_on_c, 0, 76, 0
2, 3963060, Note_on_c, 0, 81, 100
2, 3963120, Note_on_c, 0, 81, 0
2, 3963120, Note_on_c, 0, 76, 100
2, 3963180, Note_on_c, 0, 76, 0
2, 3963180, Note_on_c, 0, 75, 100
2, 3963240, Note_on_c, 0, 75, 0
2, 3963240, Note_on_c, 0, 73, 100
2, 3963300, Note_on_c, 0, 73, 0
2, 3963300, Note_on_c, 0, 75, 100
2, 3963360, Note_on_c, 0, 75, 0
2, 3963360, Note_on_c, 0, 81, 100
2, 3963420, Note_on_c, 0, 81, 0
2, 3963420, Note_on_c, 0, 79, 100
2, 3963480, Note_on_c, 0, 79, 0
2, 3963480, Note_on_c, 0, 81, 100
2, 3963540, Note_on_c, 0, 81, 0
2, 3963540, Note_on_c, 0, 83, 100
2, 3963600, Note_on_c, 0, 83, 0
2, 3963600, Note_on_c, 0, 81, 100
2, 3963660, Note_on_c, 0, 81, 0
2, 3963660, Note_on_c, 0, 79, 100
2, 3963720, Note_on_c, 0, 79, 0
2, 3963720, Note_on_c, 0, 81, 100
2, 3963780, Note_on_c, 0, 81, 0
2, 3963780, Note_on_c, 0, 71, 100
2, 3963840, Note_on_c, 0, 71, 0
2, 3963840, Note_on_c, 0, 79, 100
2, 3963900, Note_on_c, 0, 79, 0
2, 3963900, Note_on_c, 0, 78, 100
2, 3963960, Note_on_c, 0, 78, 0
2, 3963960, Note_on_c, 0, 79, 100
2, 3964020, Note_on_c, 0, 79, 0
2, 3964020, Note_on_c, 0, 81, 100
2, 3964080, Note_on_c, 0, 81, 0
2, 3964080, Note_on_c, 0, 79, 100
2, 3964140, Note_on_c, 0, 79, 0
2, 3964140, Note_on_c, 0, 78, 100
2, 3964200, Note_on_c, 0, 78, 0
2, 3964200, Note_on_c, 0, 79, 100
2, 3964260, Note_on_c, 0, 79, 0
2, 3964260, Note_on_c, 0, 69, 100
2, 3964320, Note_on_c, 0, 69, 0
2, 3964320, Note_on_c, 0, 78, 100
2, 3964380, Note_on_c, 0, 78, 0
2, 3964380, Note_on_c, 0, 76, 100
2, 3964440, Note_on_c, 0, 76, 0
2, 3964440, Note_on_c, 0, 78, 100
2, 3964500, Note_on_c, 0, 78, 0
2, 3964500, Note_on_c, 0, 79, 100
2, 3964560, Note_on_c, 0, 79, 0
2, 3964560, Note_on_c, 0, 81, 100
2, 3964620, Note_on_c, 0, 81, 0
2, 3964620, Note_on_c, 0, 79, 100
2, 3964680, Note_on_c, 0, 79, 0
2, 3964680, Note_on_c, 0, 78, 100
2, 3964740, Note_on_c, 0, 78, 0
2, 3964740, Note_on_c, 0, 79, 100
2, 3964800, Note_on_c, 0, 79, 0
2, 3964800, Note_on_c, 0, 75, 100
2, 3965040, Note_on_c, 0, 75, 0
2, 3965040, Note_on_c, 0, 76, 100
2, 3965280, Note_on_c, 0, 76, 0
2, 3965280, Note_on_c, 0, 69, 100
2, 3965520, Note_on_c, 0, 69, 0
2, 3965520, Note_on_c, 0, 67, 100
2, 3965760, Note_on_c, 0, 67, 0
2, 3965760, Note_on_c, 0, 66, 100
2, 3965820, Note_on_c, 0, 66, 0
2, 3965820, Note_on_c, 0, 67, 100
2, 3965880, Note_on_c, 0, 67, 0
2, 3965880, Note_on_c, 0, 71, 100
2, 3966060, Note_on_c, 0, 71, 0
2, 3966060, Note_on_c, 0, 72, 100
2, 3966120, Note_on_c, 0, 72, 0
2, 3966120, Note_on_c, 0, 74, 100
2, 3966180, Note_on_c, 0, 74, 0
2, 3966180, Note_on_c, 0, 76, 100
2, 3966240, Note_on_c, 0, 76, 0
2, 3966240, Note_on_c, 0, 77, 100
2, 3966300, Note_on_c, 0, 77, 0
2, 3966300, Note_on_c, 0, 76, 100
2, 3966360, Note_on_c, 0, 76, 0
2, 3966360, Note_on_c, 0, 75, 100
2, 3966420, Note_on_c, 0, 75, 0
2, 3966420, Note_on_c, 0, 76, 100
2, 3966480, Note_on_c, 0, 76, 0
2, 3966480, Note_on_c, 0, 69, 100
2, 3966840, Note_on_c, 0, 69, 0
2, 3966840, Note_on_c, 0, 71, 100
2, 3966960, Note_on_c, 0, 71, 0
2, 3966960, Note_on_c, 0, 69, 100
2, 3966990, Note_on_c, 0, 69, 0
2, 3966990, Note_on_c, 0, 67, 100
2, 3967080, Note_on_c, 0, 67, 0
2, 3967080, Note_on_c, 0, 69, 100
2, 3967200, Note_on_c, 0, 69, 0
2, 3967200, Note_on_c, 0, 67, 100
2, 3967230, Note_on_c, 0, 67, 0
2, 3967230, Note_on_c, 0, 66, 100
2, 3967440, Note_on_c, 0, 66, 0
2, 3967440, Note_on_c, 0, 76, 100
2, 3967560, Note_on_c, 0, 76, 0
2, 3967560, Note_on_c, 0, 74, 100
2, 3967680, Note_on_c, 0, 74, 0
2, 3967680, Note_on_c, 0, 76, 100
2, 3967740, Note_on_c, 0, 76, 0
2, 3967740, Note_on_c, 0, 74, 100
2, 3967800, Note_on_c, 0, 74, 0
2, 3967800, Note_on_c, 0, 73, 100
2, 3967860, Note_on_c, 0, 73, 0
2, 3967860, Note_on_c, 0, 74, 100
2, 3967920, Note_on_c, 0, 74, 0
2, 3967920, Note_on_c, 0, 67, 100
2, 3968280, Note_on_c, 0, 67, 0
2, 3968280, Note_on_c, 0, 69, 100
2, 3968400, Note_on_c, 0, 69, 0
2, 3968400, Note_on_c, 0, 67, 100
2, 3968430, Note_on_c, 0, 67, 0
2, 3968430, Note_on_c, 0, 65, 100
2, 3968520, Note_on_c, 0, 65, 0
2, 3968520, Note_on_c, 0, 67, 100
2, 3968640, Note_on_c, 0, 67, 0
2, 3968640, Note_on_c, 0, 65, 100
2, 3968670, Note_on_c, 0, 65, 0
2, 3968670, Note_on_c, 0, 64, 100
2, 3968880, Note_on_c, 0, 64, 0
2, 3968880, Note_on_c, 0, 74, 100
2, 3969000, Note_on_c, 0, 74, 0
2, 3969000, Note_on_c, 0, 72, 100
2, 3969120, Note_on_c, 0, 72, 0
2, 3969120, Note_on_c, 0, 71, 100
2, 3969180, Note_on_c, 0, 71, 0
2, 3969180, Note_on_c, 0, 69, 100
2, 3969240, Note_on_c, 0, 69, 0
2, 3969240, Note_on_c, 0, 67, 100
2, 3969420, Note_on_c, 0, 67, 0
2, 3969420, Note_on_c, 0, 66, 100
2, 3969480, Note_on_c, 0, 66, 0
2, 3969480, Note_on_c, 0, 64, 100
2, 3969660, Note_on_c, 0, 64, 0
2, 3969660, Note_on_c, 0, 62, 100
2, 3969720, Note_on_c, 0, 62, 0
2, 3969720, Note_on_c, 0, 64, 100
2, 3969900, Note_on_c, 0, 64, 0
2, 3969900, Note_on_c, 0, 66, 100
2, 3969960, Note_on_c, 0, 66, 0
2, 3969960, Note_on_c, 0, 67, 100
2, 3970140, Note_on_c, 0, 67, 0
2, 3970140, Note_on_c, 0, 69, 100
2, 3970200, Note_on_c, 0, 69, 0
2, 3970200, Note_on_c, 0, 71, 100
2, 3970380, Note_on_c, 0, 71, 0
2, 3970380, Note_on_c, 0, 72, 100
2, 3970440, Note_on_c, 0, 72, 0
2, 3970440, Note_on_c, 0, 74, 100
2, 3970620, Note_on_c, 0, 74, 0
2, 3970620, Note_on_c, 0, 72, 100
2, 3970680, Note_on_c, 0, 72, 0
2, 3970680, Note_on_c, 0, 71, 100
2, 3970740, Note_on_c, 0, 71, 0
2, 3970740, Note_on_c, 0, 72, 100
2, 3970800, Note_on_c, 0, 72, 0
2, 3970800, Note_on_c, 0, 79, 100
2, 3970860, Note_on_c, 0, 79, 0
2, 3970860, Note_on_c, 0, 78, 100
2, 3970920, Note_on_c, 0, 78, 0
2, 3970920, Note_on_c, 0, 76, 100
2, 3970980, Note_on_c, 0, 76, 0
2, 3970980, Note_on_c, 0, 78, 100
2, 3971040, Note_on_c, 0, 78, 0
2, 3971040, Note_on_c, 0, 83, 100
2, 3971100, Note_on_c, 0, 83, 0
2, 3971100, Note_on_c, 0, 81, 100
2, 3971160, Note_on_c, 0, 81, 0
2, 3971160, Note_on_c, 0, 79, 100
2, 3971220, Note_on_c, 0, 79, 0
2, 3971220, Note_on_c, 0, 81, 100
2, 3971280, Note_on_c, 0, 81, 0
2, 3971280, Note_on_c, 0, 86, 100
2, 3971340, Note_on_c, 0, 86, 0
2, 3971340, Note_on_c, 0, 84, 100
2, 3971400, Note_on_c, 0, 84, 0
2, 3971400, Note_on_c, 0, 83, 100
2, 3971460, Note_on_c, 0, 83, 0
2, 3971460, Note_on_c, 0, 84, 100
2, 3971520, Note_on_c, 0, 84, 0
2, 3971520, Note_on_c, 0, 83, 100
2, 3971580, Note_on_c, 0, 83, 0
2, 3971580, Note_on_c, 0, 81, 100
2, 3971640, Note_on_c, 0, 81, 0
2, 3971640, Note_on_c, 0, 79, 100
2, 3971700, Note_on_c, 0, 79, 0
2, 3971700, Note_on_c, 0, 78, 100
2, 3971760, Note_on_c, 0, 78, 0
2, 3971760, Note_on_c, 0, 76, 100
2, 3971820, Note_on_c, 0, 76, 0
2, 3971820, Note_on_c, 0, 74, 100
2, 3971880, Note_on_c, 0, 74, 0
2, 3971880, Note_on_c, 0, 72, 100
2, 3971940, Note_on_c, 0, 72, 0
2, 3971940, Note_on_c, 0, 71, 100
2, 3972000, Note_on_c, 0, 71, 0
2, 3972000, Note_on_c, 0, 79, 100
2, 3972060, Note_on_c, 0, 79, 0
2, 3972060, Note_on_c, 0, 78, 100
2, 3972120, Note_on_c, 0, 78, 0
2, 3972120, Note_on_c, 0, 79, 100
2, 3972180, Note_on_c, 0, 79, 0
2, 3972180, Note_on_c, 0, 81, 100
2, 3972240, Note_on_c, 0, 81, 0
2, 3972240, Note_on_c, 0, 79, 100
2, 3972300, Note_on_c, 0, 79, 0
2, 3972300, Note_on_c, 0, 78, 100
2, 3972360, Note_on_c, 0, 78, 0
2, 3972360, Note_on_c, 0, 79, 100
2, 3972420, Note_on_c, 0, 79, 0
2, 3972420, Note_on_c, 0, 72, 100
2, 3972480, Note_on_c, 0, 72, 0
2, 3972480, Note_on_c, 0, 78, 100
2, 3972540, Note_on_c, 0, 78, 0
2, 3972540, Note_on_c, 0, 76, 100
2, 3972600, Note_on_c, 0, 76, 0
2, 3972600, Note_on_c, 0, 78, 100
2, 3972660, Note_on_c, 0, 78, 0
2, 3972660, Note_on_c, 0, 79, 100
2, 3972720, Note_on_c, 0, 79, 0
2, 3972720, Note_on_c, 0, 78, 100
2, 3972780, Note_on_c, 0, 78, 0
2, 3972780, Note_on_c, 0, 76, 100
2, 3972840, Note_on_c, 0, 76, 0
2, 3972840, Note_on_c, 0, 78, 100
2, 3972900, Note_on_c, 0, 78, 0
2, 3972900, Note_on_c, 0, 74, 100
2, 3972960, Note_on_c, 0, 74, 0
2, 3972960, Note_on_c, 0, 77, 100
2, 3973020, Note_on_c, 0, 77, 0
2, 3973020, Note_on_c, 0, 76, 100
2, 3973080, Note_on_c, 0, 76, 0
2, 3973080, Note_on_c, 0, 77, 100
2, 3973140, Note_on_c, 0, 77, 0
2, 3973140, Note_on_c, 0, 79, 100
2, 3973200, Note_on_c, 0, 79, 0
2, 3973200, Note_on_c, 0, 77, 100
2, 3973260, Note_on_c, 0, 77, 0
2, 3973260, Note_on_c, 0, 76, 100
2, 3973320, Note_on_c, 0, 76, 0
2, 3973320, Note_on_c, 0, 74, 100
2, 3973380, Note_on_c, 0, 74, 0
2, 3973380, Note_on_c, 0, 76, 100
2, 3973440, Note_on_c, 0, 76, 0
2, 3973440, Note_on_c, 0, 72, 100
2, 3973500, Note_on_c, 0, 72, 0
2, 3973500, Note_on_c, 0, 71, 100
2, 3973560, Note_on_c, 0, 71, 0
2, 3973560, Note_on_c, 0, 72, 100
2, 3973620, Note_on_c, 0, 72, 0
2, 3973620, Note_on_c, 0, 74, 100
2, 3973680, Note_on_c, 0, 74, 0
2, 3973680, Note_on_c, 0, 72, 100
2, 3973740, Note_on_c, 0, 72, 0
2, 3973740, Note_on_c, 0, 71, 100
2, 3973800, Note_on_c, 0, 71, 0
2, 3973800, Note_on_c, 0, 72, 100
2, 3973860, Note_on_c, 0, 72, 0
2, 3973860, Note_on_c, 0, 74, 100
2, 3973920, Note_on_c, 0, 74, 0
2, 3973920, Note_on_c, 0, 71, 100
2, 3973980, Note_on_c, 0, 71, 0
2, 3973980, Note_on_c, 0, 69, 100
2, 3974040, Note_on_c, 0, 69, 0
2, 3974040, Note_on_c, 0, 71, 100
2, 3974100, Note_on_c, 0, 71, 0
2, 3974100, Note_on_c, 0, 72, 100
2, 3974160, Note_on_c, 0, 72, 0
2, 3974160, Note_on_c, 0, 71, 100
2, 3974220, Note_on_c, 0, 71, 0
2, 3974220, Note_on_c, 0, 69, 100
2, 3974280, Note_on_c, 0, 69, 0
2, 3974280, Note_on_c, 0, 71, 100
2, 3974340, Note_on_c, 0, 71, 0
2, 3974340, Note_on_c, 0, 73, 100
2, 3974400, Note_on_c, 0, 73, 0
2, 3974400, Note_on_c, 0, 70, 100
2, 3974460, Note_on_c, 0, 70, 0
2, 3974460, Note_on_c, 0, 69, 100
2, 3974520, Note_on_c, 0, 69, 0
2, 3974520, Note_on_c, 0, 70, 100
2, 3974580, Note_on_c, 0, 70, 0
2, 3974580, Note_on_c, 0, 72, 100
2, 3974640, Note_on_c, 0, 72, 0
2, 3974640, Note_on_c, 0, 70, 100
2, 3974700, Note_on_c, 0, 70, 0
2, 3974700, Note_on_c, 0, 69, 100
2, 3974760, Note_on_c, 0, 69, 0
2, 3974760, Note_on_c, 0, 67, 100
2, 3974820, Note_on_c, 0, 67, 0
2, 3974820, Note_on_c, 0, 66, 100
2, 3974880, Note_on_c, 0, 66, 0
2, 3974880, Note_on_c, 0, 72, 100
2, 3974940, Note_on_c, 0, 72, 0
2, 3974940, Note_on_c, 0, 71, 100
2, 3975000, Note_on_c, 0, 71, 0
2, 3975000, Note_on_c, 0, 72, 100
2, 3975060, Note_on_c, 0, 72, 0
2, 3975060, Note_on_c, 0, 74, 100
2, 3975120, Note_on_c, 0, 74, 0
2, 3975120, Note_on_c, 0, 72, 100
2, 3975180, Note_on_c, 0, 72, 0
2, 3975180, Note_on_c, 0, 71, 100
2, 3975240, Note_on_c, 0, 71, 0
2, 3975240, Note_on_c, 0, 72, 100
2, 3975300, Note_on_c, 0, 72, 0
2, 3975300, Note_on_c, 0, 78, 100
2, 3975360, Note_on_c, 0, 78, 0
2, 3975360, Note_on_c, 0, 72, 100
2, 3975420, Note_on_c, 0, 72, 0
2, 3975420, Note_on_c, 0, 71, 100
2, 3975480, Note_on_c, 0, 71, 0
2, 3975480, Note_on_c, 0, 72, 100
2, 3975540, Note_on_c, 0, 72, 0
2, 3975540, Note_on_c, 0, 74, 100
2, 3975600, Note_on_c, 0, 74, 0
2, 3975600, Note_on_c, 0, 72, 100
2, 3975660, Note_on_c, 0, 72, 0
2, 3975660, Note_on_c, 0, 71, 100
2, 3975720, Note_on_c, 0, 71, 0
2, 3975720, Note_on_c, 0, 72, 100
2, 3975780, Note_on_c, 0, 72, 0
2, 3975780, Note_on_c, 0, 81, 100
2, 3975840, Note_on_c, 0, 81, 0
2, 3975840, Note_on_c, 0, 72, 100
2, 3975900, Note_on_c, 0, 72, 0
2, 3975900, Note_on_c, 0, 71, 100
2, 3975960, Note_on_c, 0, 71, 0
2, 3975960, Note_on_c, 0, 72, 100
2, 3976020, Note_on_c, 0, 72, 0
2, 3976020, Note_on_c, 0, 74, 100
2, 3976080, Note_on_c, 0, 74, 0
2, 3976080, Note_on_c, 0, 72, 100
2, 3976140, Note_on_c, 0, 72, 0
2, 3976140, Note_on_c, 0, 71, 100
2, 3976200, Note_on_c, 0, 71, 0
2, 3976200, Note_on_c, 0, 69, 100
2, 3976260, Note_on_c, 0, 69, 0
2, 3976260, Note_on_c, 0, 71, 100
2, 3976320, Note_on_c, 0, 71, 0
2, 3976320, Note_on_c, 0, 66, 100
2, 3976560, Note_on_c, 0, 66, 0
2, 3976560, Note_on_c, 0, 67, 100
2, 3976800, Note_on_c, 0, 67, 0
2, 3976800, Note_on_c, 0, 60, 100
2, 3977040, Note_on_c, 0, 60, 0
2, 3977040, Note_on_c, 0, 59, 100
2, 3977280, Note_on_c, 0, 59, 0
2, 3977280, Note_on_c, 0, 67, 100
2, 4070160, Note_on_c, 0, 67, 0
2, 4070160, Note_on_c, 0, 65, 100
2, 4070400, Note_on_c, 0, 65, 0
2, 4070400, Note_on_c, 0, 63, 100
2, 4070640, Note_on_c, 0, 63, 0
2, 4070640, Note_on_c, 0, 62, 100
2, 4070880, Note_on_c, 0, 62, 0
2, 4070880, Note_on_c, 0, 60, 100
2, 4071480, Note_on_c, 0, 60, 0
2, 4071480, Note_on_c, 0, 58, 100
2, 4071600, Note_on_c, 0, 58, 0
2, 4071600, Note_on_c, 0, 57, 100
2, 4071720, Note_on_c, 0, 57, 0
2, 4071720, Note_on_c, 0, 55, 100
2, 4071840, Note_on_c, 0, 55, 0
2, 4071840, Note_on_c, 0, 61, 100
2, 4072080, Note_on_c, 0, 61, 0
2, 4072080, Note_on_c, 0, 62, 100
2, 4072140, Note_on_c, 0, 62, 0
2, 4072140, Note_on_c, 0, 61, 100
2, 4072200, Note_on_c, 0, 61, 0
2, 4072200, Note_on_c, 0, 67, 100
2, 4072320, Note_on_c, 0, 67, 0
2, 4072320, Note_on_c, 0, 66, 100
2, 4073040, Note_on_c, 0, 66, 0
2, 4073040, Note_on_c, 0, 64, 100
2, 4073160, Note_on_c, 0, 64, 0
2, 4073160, Note_on_c, 0, 66, 100
2, 4073280, Note_on_c, 0, 66, 0
2, 4073280, Note_on_c, 0, 67, 100
2, 4073520, Note_on_c, 0, 67, 0
2, 4073520, Note_on_c, 0, 69, 100
2, 4073640, Note_on_c, 0, 69, 0
2, 4073640, Note_on_c, 0, 70, 100
2, 4073760, Note_on_c, 0, 70, 0
2, 4073760, Note_on_c, 0, 69, 100
2, 4074480, Note_on_c, 0, 69, 0
2, 4074480, Note_on_c, 0, 62, 100
2, 4074720, Note_on_c, 0, 62, 0
2, 4074720, Note_on_c, 0, 60, 100
2, 4074780, Note_on_c, 0, 60, 0
2, 4074780, Note_on_c, 0, 63, 100
2, 4074840, Note_on_c, 0, 63, 0
2, 4074840, Note_on_c, 0, 62, 100
2, 4074960, Note_on_c, 0, 62, 0
2, 4074960, Note_on_c, 0, 60, 100
2, 4075080, Note_on_c, 0, 60, 0
2, 4075080, Note_on_c, 0, 58, 100
2, 4075200, Note_on_c, 0, 58, 0
2, 4075200, Note_on_c, 0, 57, 100
2, 4075320, Note_on_c, 0, 57, 0
2, 4075320, Note_on_c, 0, 55, 100
2, 4075440, Note_on_c, 0, 55, 0
2, 4075440, Note_on_c, 0, 57, 100
2, 4075560, Note_on_c, 0, 57, 0
2, 4075560, Note_on_c, 0, 58, 100
2, 4075680, Note_on_c, 0, 58, 0
2, 4075680, Note_on_c, 0, 62, 100
2, 4075800, Note_on_c, 0, 62, 0
2, 4075800, Note_on_c, 0, 67, 100
2, 4075920, Note_on_c, 0, 67, 0
2, 4075920, Note_on_c, 0, 66, 100
2, 4076400, Note_on_c, 0, 66, 0
2, 4076400, Note_on_c, 0, 67, 100
2, 4076640, Note_on_c, 0, 67, 0
2, 4076640, Note_on_c, 0, 66, 100
2, 4077240, Note_on_c, 0, 66, 0
2, 4077240, Note_on_c, 0, 67, 100
2, 4077360, Note_on_c, 0, 67, 0
2, 4077360, Note_on_c, 0, 69, 100
2, 4077480, Note_on_c, 0, 69, 0
2, 4077480, Note_on_c, 0, 70, 100
2, 4077600, Note_on_c, 0, 70, 0
2, 4077600, Note_on_c, 0, 69, 100
2, 4077840, Note_on_c, 0, 69, 0
2, 4077840, Note_on_c, 0, 67, 100
2, 4078080, Note_on_c, 0, 67, 0
2, 4078080, Note_on_c, 0, 66, 100
2, 4078320, Note_on_c, 0, 66, 0
2, 4078320, Note_on_c, 0, 67, 100
2, 4078560, Note_on_c, 0, 67, 0
2, 4078560, Note_on_c, 0, 60, 100
2, 4079280, Note_on_c, 0, 60, 0
2, 4079280, Note_on_c, 0, 58, 100
2, 4079520, Note_on_c, 0, 58, 0
2, 4079520, Note_on_c, 0, 67, 100
2, 4079760, Note_on_c, 0, 67, 0
2, 4079760, Note_on_c, 0, 65, 100
2, 4079880, Note_on_c, 0, 65, 0
2, 4079880, Note_on_c, 0, 64, 100
2, 4080120, Note_on_c, 0, 64, 0
2, 4080120, Note_on_c, 0, 62, 100
2, 4080360, Note_on_c, 0, 62, 0
2, 4080360, Note_on_c, 0, 61, 100
2, 4080480, Note_on_c, 0, 61, 0
2, 4080480, Note_on_c, 0, 70, 100
2, 4080720, Note_on_c, 0, 70, 0
2, 4080720, Note_on_c, 0, 69, 100
2, 4080960, Note_on_c, 0, 69, 0
2, 4080960, Note_on_c, 0, 61, 100
2, 4081200, Note_on_c, 0, 61, 0
2, 4081200, Note_on_c, 0, 62, 100
2, 4081680, Note_on_c, 0, 62, 0
2, 4081680, Note_on_c, 0, 61, 100
2, 4081740, Note_on_c, 0, 61, 0
2, 4081740, Note_on_c, 0, 62, 100
2, 4082280, Note_on_c, 0, 62, 0
2, 4082280, Note_on_c, 0, 64, 100
2, 4082520, Note_on_c, 0, 64, 0
2, 4082520, Note_on_c, 0, 62, 100
2, 4082580, Note_on_c, 0, 62, 0
2, 4082580, Note_on_c, 0, 61, 100
2, 4082640, Note_on_c, 0, 61, 0
2, 4082640, Note_on_c, 0, 59, 100
2, 4082760, Note_on_c, 0, 59, 0
2, 4082760, Note_on_c, 0, 61, 100
2, 4082880, Note_on_c, 0, 61, 0
2, 4082880, Note_on_c, 0, 64, 100
2, 4083000, Note_on_c, 0, 64, 0
2, 4083000, Note_on_c, 0, 69, 100
2, 4083120, Note_on_c, 0, 69, 0
2, 4083120, Note_on_c, 0, 62, 100
2, 4083600, Note_on_c, 0, 62, 0
2, 4083600, Note_on_c, 0, 64, 100
2, 4083960, Note_on_c, 0, 64, 0
2, 4083960, Note_on_c, 0, 65, 100
2, 4084020, Note_on_c, 0, 65, 0
2, 4084020, Note_on_c, 0, 64, 100
2, 4084080, Note_on_c, 0, 64, 0
2, 4084080, Note_on_c, 0, 62, 100
2, 4084140, Note_on_c, 0, 62, 0
2, 4084140, Note_on_c, 0, 64, 100
2, 4084200, Note_on_c, 0, 64, 0
2, 4084200, Note_on_c, 0, 62, 100
2, 4084320, Note_on_c, 0, 62, 0
2, 4084320, Note_on_c, 0, 67, 100
2, 4085520, Note_on_c, 0, 67, 0
2, 4085520, Note_on_c, 0, 65, 100
2, 4085760, Note_on_c, 0, 65, 0
2, 4085760, Note_on_c, 0, 63, 100
2, 4086000, Note_on_c, 0, 63, 0
2, 4086000, Note_on_c, 0, 62, 100
2, 4086240, Note_on_c, 0, 62, 0
2, 4086240, Note_on_c, 0, 60, 100
2, 4086840, Note_on_c, 0, 60, 0
2, 4086840, Note_on_c, 0, 58, 100
2, 4086960, Note_on_c, 0, 58, 0
2, 4086960, Note_on_c, 0, 57, 100
2, 4087080, Note_on_c, 0, 57, 0
2, 4087080, Note_on_c, 0, 55, 100
2, 4087200, Note_on_c, 0, 55, 0
2, 4087200, Note_on_c, 0, 61, 100
2, 4087440, Note_on_c, 0, 61, 0
2, 4087440, Note_on_c, 0, 62, 100
2, 4087500, Note_on_c, 0, 62, 0
2, 4087500, Note_on_c, 0, 61, 100
2, 4087560, Note_on_c, 0, 61, 0
2, 4087560, Note_on_c, 0, 67, 100
2, 4087680, Note_on_c, 0, 67, 0
2, 4087680, Note_on_c, 0, 66, 100
2, 4088400, Note_on_c, 0, 66, 0
2, 4088400, Note_on_c, 0, 64, 100
2, 4088520, Note_on_c, 0, 64, 0
2, 4088520, Note_on_c, 0, 66, 100
2, 4088640, Note_on_c, 0, 66, 0
2, 4088640, Note_on_c, 0, 67, 100
2, 4088880, Note_on_c, 0, 67, 0
2, 4088880, Note_on_c, 0, 69, 100
2, 4089000, Note_on_c, 0, 69, 0
2, 4089000, Note_on_c, 0, 70, 100
2, 4089120, Note_on_c, 0, 70, 0
2, 4089120, Note_on_c, 0, 69, 100
2, 4089840, Note_on_c, 0, 69, 0
2, 4089840, Note_on_c, 0, 62, 100
2, 4090080, Note_on_c, 0, 62, 0
2, 4090080, Note_on_c, 0, 60, 100
2, 4090140, Note_on_c, 0, 60, 0
2, 4090140, Note_on_c, 0, 63, 100
2, 4090200, Note_on_c, 0, 63, 0
2, 4090200, Note_on_c, 0, 62, 100
2, 4090320, Note_on_c, 0, 62, 0
2, 4090320, Note_on_c, 0, 60, 100
2, 4090440, Note_on_c, 0, 60, 0
2, 4090440, Note_on_c, 0, 58, 100
2, 4090560, Note_on_c, 0, 58, 0
2, 4090560, Note_on_c, 0, 57, 100
2, 4090680, Note_on_c, 0, 57, 0
2, 4090680, Note_on_c, 0, 55, 100
2, 4090800, Note_on_c, 0, 55, 0
2, 4090800, Note_on_c, 0, 57, 100
2, 4090920, Note_on_c, 0, 57, 0
2, 4090920, Note_on_c, 0, 58, 100
2, 4091040, Note_on_c, 0, 58, 0
2, 4091040, Note_on_c, 0, 62, 100
2, 4091160, Note_on_c, 0, 62, 0
2, 4091160, Note_on_c, 0, 67, 100
2, 4091280, Note_on_c, 0, 67, 0
2, 4091280, Note_on_c, 0, 66, 100
2, 4091760, Note_on_c, 0, 66, 0
2, 4091760, Note_on_c, 0, 67, 100
2, 4092000, Note_on_c, 0, 67, 0
2, 4092000, Note_on_c, 0, 66, 100
2, 4092600, Note_on_c, 0, 66, 0
2, 4092600, Note_on_c, 0, 67, 100
2, 4092720, Note_on_c, 0, 67, 0
2, 4092720, Note_on_c, 0, 69, 100
2, 4092840, Note_on_c, 0, 69, 0
2, 4092840, Note_on_c, 0, 70, 100
2, 4092960, Note_on_c, 0, 70, 0
2, 4092960, Note_on_c, 0, 69, 100
2, 4093200, Note_on_c, 0, 69, 0
2, 4093200, Note_on_c, 0, 67, 100
2, 4093440, Note_on_c, 0, 67, 0
2, 4093440, Note_on_c, 0, 66, 100
2, 4093680, Note_on_c, 0, 66, 0
2, 4093680, Note_on_c, 0, 67, 100
2, 4093920, Note_on_c, 0, 67, 0
2, 4093920, Note_on_c, 0, 60, 100
2, 4094640, Note_on_c, 0, 60, 0
2, 4094640, Note_on_c, 0, 58, 100
2, 4094880, Note_on_c, 0, 58, 0
2, 4094880, Note_on_c, 0, 67, 100
2, 4095120, Note_on_c, 0, 67, 0
2, 4095120, Note_on_c, 0, 65, 100
2, 4095240, Note_on_c, 0, 65, 0
2, 4095240, Note_on_c, 0, 64, 100
2, 4095480, Note_on_c, 0, 64, 0
2, 4095480, Note_on_c, 0, 62, 100
2, 4095720, Note_on_c, 0, 62, 0
2, 4095720, Note_on_c, 0, 61, 100
2, 4095840, Note_on_c, 0, 61, 0
2, 4095840, Note_on_c, 0, 70, 100
2, 4096080, Note_on_c, 0, 70, 0
2, 4096080, Note_on_c, 0, 69, 100
2, 4096320, Note_on_c, 0, 69, 0
2, 4096320, Note_on_c, 0, 61, 100
2, 4096560, Note_on_c, 0, 61, 0
2, 4096560, Note_on_c, 0, 62, 100
2, 4097040, Note_on_c, 0, 62, 0
2, 4097040, Note_on_c, 0, 61, 100
2, 4097100, Note_on_c, 0, 61, 0
2, 4097100, Note_on_c, 0, 62, 100
2, 4097640, Note_on_c, 0, 62, 0
2, 4097640, Note_on_c, 0, 64, 100
2, 4097880, Note_on_c, 0, 64, 0
2, 4097880, Note_on_c, 0, 62, 100
2, 4097940, Note_on_c, 0, 62, 0
2, 4097940, Note_on_c, 0, 61, 100
2, 4098000, Note_on_c, 0, 61, 0
2, 4098000, Note_on_c, 0, 59, 100
2, 4098120, Note_on_c, 0, 59, 0
2, 4098120, Note_on_c, 0, 61, 100
2, 4098240, Note_on_c, 0, 61, 0
2, 4098240, Note_on_c, 0, 64, 100
2, 4098360, Note_on_c, 0, 64, 0
2, 4098360, Note_on_c, 0, 69, 100
2, 4098480, Note_on_c, 0, 69, 0
2, 4098480, Note_on_c, 0, 62, 100
2, 4098960, Note_on_c, 0, 62, 0
2, 4098960, Note_on_c, 0, 64, 100
2, 4099320, Note_on_c, 0, 64, 0
2, 4099320, Note_on_c, 0, 65, 100
2, 4099380, Note_on_c, 0, 65, 0
2, 4099380, Note_on_c, 0, 64, 100
2, 4099440, Note_on_c, 0, 64, 0
2, 4099440, Note_on_c, 0, 62, 100
2, 4099500, Note_on_c, 0, 62, 0
2, 4099500, Note_on_c, 0, 64, 100
2, 4099560, Note_on_c, 0, 64, 0
2, 4099560, Note_on_c, 0, 62, 100
2, 4099680, Note_on_c, 0, 62, 0
2, 4099680, Note_on_c, 0, 66, 100
2, 4100880, Note_on_c, 0, 66, 0
2, 4100880, Note_on_c, 0, 67, 100
2, 4101120, Note_on_c, 0, 67, 0
2, 4101120, Note_on_c, 0, 69, 100
2, 4101360, Note_on_c, 0, 69, 0
2, 4101360, Note_on_c, 0, 62, 100
2, 4101600, Note_on_c, 0, 62, 0
2, 4101600, Note_on_c, 0, 74, 100
2, 4101720, Note_on_c, 0, 74, 0
2, 4101720, Note_on_c, 0, 72, 100
2, 4101960, Note_on_c, 0, 72, 0
2, 4101960, Note_on_c, 0, 70, 100
2, 4102200, Note_on_c, 0, 70, 0
2, 4102200, Note_on_c, 0, 69, 100
2, 4102440, Note_on_c, 0, 69, 0
2, 4102440, Note_on_c, 0, 70, 100
2, 4102560, Note_on_c, 0, 70, 0
2, 4102560, Note_on_c, 0, 63, 100
2, 4102800, Note_on_c, 0, 63, 0
2, 4102800, Note_on_c, 0, 62, 100
2, 4103040, Note_on_c, 0, 62, 0
2, 4103040, Note_on_c, 0, 67, 100
2, 4103280, Note_on_c, 0, 67, 0
2, 4103280, Note_on_c, 0, 65, 100
2, 4103520, Note_on_c, 0, 65, 0
2, 4103520, Note_on_c, 0, 67, 100
2, 4103640, Note_on_c, 0, 67, 0
2, 4103640, Note_on_c, 0, 68, 100
2, 4103760, Note_on_c, 0, 68, 0
2, 4103760, Note_on_c, 0, 70, 100
2, 4104120, Note_on_c, 0, 70, 0
2, 4104120, Note_on_c, 0, 68, 100
2, 4104360, Note_on_c, 0, 68, 0
2, 4104360, Note_on_c, 0, 67, 100
2, 4104480, Note_on_c, 0, 67, 0
2, 4104480, Note_on_c, 0, 70, 100
2, 4104600, Note_on_c, 0, 70, 0
2, 4104600, Note_on_c, 0, 75, 100
2, 4104720, Note_on_c, 0, 75, 0
2, 4104720, Note_on_c, 0, 79, 100
2, 4104840, Note_on_c, 0, 79, 0
2, 4104840, Note_on_c, 0, 77, 100
2, 4104960, Note_on_c, 0, 77, 0
2, 4104960, Note_on_c, 0, 75, 100
2, 4105080, Note_on_c, 0, 75, 0
2, 4105080, Note_on_c, 0, 74, 100
2, 4105200, Note_on_c, 0, 74, 0
2, 4105200, Note_on_c, 0, 72, 100
2, 4105320, Note_on_c, 0, 72, 0
2, 4105320, Note_on_c, 0, 70, 100
2, 4105440, Note_on_c, 0, 70, 0
2, 4105440, Note_on_c, 0, 68, 100
2, 4106520, Note_on_c, 0, 68, 0
2, 4106520, Note_on_c, 0, 67, 100
2, 4106580, Note_on_c, 0, 67, 0
2, 4106580, Note_on_c, 0, 65, 100
2, 4106640, Note_on_c, 0, 65, 0
2, 4106640, Note_on_c, 0, 67, 100
2, 4106700, Note_on_c, 0, 67, 0
2, 4106700, Note_on_c, 0, 68, 100
2, 4106760, Note_on_c, 0, 68, 0
2, 4106760, Note_on_c, 0, 67, 100
2, 4106880, Note_on_c, 0, 67, 0
2, 4106880, Note_on_c, 0, 65, 100
2, 4107000, Note_on_c, 0, 65, 0
2, 4107000, Note_on_c, 0, 63, 100
2, 4107060, Note_on_c, 0, 63, 0
2, 4107060, Note_on_c, 0, 65, 100
2, 4107120, Note_on_c, 0, 65, 0
2, 4107120, Note_on_c, 0, 63, 100
2, 4107180, Note_on_c, 0, 63, 0
2, 4107180, Note_on_c, 0, 62, 100
2, 4107240, Note_on_c, 0, 62, 0
2, 4107240, Note_on_c, 0, 63, 100
2, 4107360, Note_on_c, 0, 63, 0
2, 4107360, Note_on_c, 0, 68, 100
2, 4108560, Note_on_c, 0, 68, 0
2, 4108560, Note_on_c, 0, 67, 100
2, 4108680, Note_on_c, 0, 67, 0
2, 4108680, Note_on_c, 0, 66, 100
2, 4108800, Note_on_c, 0, 66, 0
2, 4108800, Note_on_c, 0, 65, 100
2, 4108920, Note_on_c, 0, 65, 0
2, 4108920, Note_on_c, 0, 74, 100
2, 4109040, Note_on_c, 0, 74, 0
2, 4109040, Note_on_c, 0, 65, 100
2, 4109160, Note_on_c, 0, 65, 0
2, 4109160, Note_on_c, 0, 63, 100
2, 4109280, Note_on_c, 0, 63, 0
2, 4109280, Note_on_c, 0, 62, 100
2, 4109880, Note_on_c, 0, 62, 0
2, 4109880, Note_on_c, 0, 60, 100
2, 4110000, Note_on_c, 0, 60, 0
2, 4110000, Note_on_c, 0, 58, 100
2, 4110120, Note_on_c, 0, 58, 0
2, 4110120, Note_on_c, 0, 57, 100
2, 4110240, Note_on_c, 0, 57, 0
2, 4110240, Note_on_c, 0, 58, 100
2, 4110360, Note_on_c, 0, 58, 0
2, 4110360, Note_on_c, 0, 60, 100
2, 4110480, Note_on_c, 0, 60, 0
2, 4110480, Note_on_c, 0, 62, 100
2, 4110600, Note_on_c, 0, 62, 0
2, 4110600, Note_on_c, 0, 63, 100
2, 4110720, Note_on_c, 0, 63, 0
2, 4110720, Note_on_c, 0, 62, 100
2, 4110840, Note_on_c, 0, 62, 0
2, 4110840, Note_on_c, 0, 63, 100
2, 4110960, Note_on_c, 0, 63, 0
2, 4110960, Note_on_c, 0, 60, 100
2, 4111320, Note_on_c, 0, 60, 0
2, 4111320, Note_on_c, 0, 62, 100
2, 4111440, Note_on_c, 0, 62, 0
2, 4111440, Note_on_c, 0, 69, 100
2, 4111920, Note_on_c, 0, 69, 0
2, 4111920, Note_on_c, 0, 74, 100
2, 4112160, Note_on_c, 0, 74, 0
2, 4112160, Note_on_c, 0, 72, 100
2, 4112520, Note_on_c, 0, 72, 0
2, 4112520, Note_on_c, 0, 70, 100
2, 4112640, Note_on_c, 0, 70, 0
2, 4112640, Note_on_c, 0, 69, 100
2, 4112760, Note_on_c, 0, 69, 0
2, 4112760, Note_on_c, 0, 67, 100
2, 4112880, Note_on_c, 0, 67, 0
2, 4112880, Note_on_c, 0, 65, 100
2, 4113000, Note_on_c, 0, 65, 0
2, 4113000, Note_on_c, 0, 63, 100
2, 4113120, Note_on_c, 0, 63, 0
2, 4113120, Note_on_c, 0, 62, 100
2, 4113240, Note_on_c, 0, 62, 0
2, 4113240, Note_on_c, 0, 60, 100
2, 4113360, Note_on_c, 0, 60, 0
2, 4113360, Note_on_c, 0, 63, 100
2, 4113480, Note_on_c, 0, 63, 0
2, 4113480, Note_on_c, 0, 62, 100
2, 4113600, Note_on_c, 0, 62, 0
2, 4113600, Note_on_c, 0, 64, 100
2, 4113720, Note_on_c, 0, 64, 0
2, 4113720, Note_on_c, 0, 66, 100
2, 4113840, Note_on_c, 0, 66, 0
2, 4113840, Note_on_c, 0, 67, 100
2, 4113900, Note_on_c, 0, 67, 0
2, 4113900, Note_on_c, 0, 57, 100
2, 4113960, Note_on_c, 0, 57, 0
2, 4113960, Note_on_c, 0, 63, 100
2, 4114200, Note_on_c, 0, 63, 0
2, 4114200, Note_on_c, 0, 62, 100
2, 4114320, Note_on_c, 0, 62, 0
2, 4114320, Note_on_c, 0, 60, 100
2, 4114440, Note_on_c, 0, 60, 0
2, 4114440, Note_on_c, 0, 58, 100
2, 4114560, Note_on_c, 0, 58, 0
2, 4114560, Note_on_c, 0, 57, 100
2, 4114680, Note_on_c, 0, 57, 0
2, 4114680, Note_on_c, 0, 55, 100
2, 4114800, Note_on_c, 0, 55, 0
2, 4114800, Note_on_c, 0, 54, 100
2, 4114920, Note_on_c, 0, 54, 0
2, 4114920, Note_on_c, 0, 55, 100
2, 4115040, Note_on_c, 0, 55, 0
2, 4115040, Note_on_c, 0, 66, 100
2, 4116240, Note_on_c, 0, 66, 0
2, 4116240, Note_on_c, 0, 67, 100
2, 4116480, Note_on_c, 0, 67, 0
2, 4116480, Note_on_c, 0, 69, 100
2, 4116720, Note_on_c, 0, 69, 0
2, 4116720, Note_on_c, 0, 62, 100
2, 4116960, Note_on_c, 0, 62, 0
2, 4116960, Note_on_c, 0, 74, 100
2, 4117080, Note_on_c, 0, 74, 0
2, 4117080, Note_on_c, 0, 72, 100
2, 4117320, Note_on_c, 0, 72, 0
2, 4117320, Note_on_c, 0, 70, 100
2, 4117560, Note_on_c, 0, 70, 0
2, 4117560, Note_on_c, 0, 69, 100
2, 4117800, Note_on_c, 0, 69, 0
2, 4117800, Note_on_c, 0, 70, 100
2, 4117920, Note_on_c, 0, 70, 0
2, 4117920, Note_on_c, 0, 63, 100
2, 4118160, Note_on_c, 0, 63, 0
2, 4118160, Note_on_c, 0, 62, 100
2, 4118400, Note_on_c, 0, 62, 0
2, 4118400, Note_on_c, 0, 67, 100
2, 4118640, Note_on_c, 0, 67, 0
2, 4118640, Note_on_c, 0, 65, 100
2, 4118880, Note_on_c, 0, 65, 0
2, 4118880, Note_on_c, 0, 67, 100
2, 4119000, Note_on_c, 0, 67, 0
2, 4119000, Note_on_c, 0, 68, 100
2, 4119120, Note_on_c, 0, 68, 0
2, 4119120, Note_on_c, 0, 70, 100
2, 4119480, Note_on_c, 0, 70, 0
2, 4119480, Note_on_c, 0, 68, 100
2, 4119720, Note_on_c, 0, 68, 0
2, 4119720, Note_on_c, 0, 67, 100
2, 4119840, Note_on_c, 0, 67, 0
2, 4119840, Note_on_c, 0, 70, 100
2, 4119960, Note_on_c, 0, 70, 0
2, 4119960, Note_on_c, 0, 75, 100
2, 4120080, Note_on_c, 0, 75, 0
2, 4120080, Note_on_c, 0, 79, 100
2, 4120200, Note_on_c, 0, 79, 0
2, 4120200, Note_on_c, 0, 77, 100
2, 4120320, Note_on_c, 0, 77, 0
2, 4120320, Note_on_c, 0, 75, 100
2, 4120440, Note_on_c, 0, 75, 0
2, 4120440, Note_on_c, 0, 74, 100
2, 4120560, Note_on_c, 0, 74, 0
2, 4120560, Note_on_c, 0, 72, 100
2, 4120680, Note_on_c, 0, 72, 0
2, 4120680, Note_on_c, 0, 70, 100
2, 4120800, Note_on_c, 0, 70, 0
2, 4120800, Note_on_c, 0, 68, 100
2, 4121880, Note_on_c, 0, 68, 0
2, 4121880, Note_on_c, 0, 67, 100
2, 4121940, Note_on_c, 0, 67, 0
2, 4121940, Note_on_c, 0, 65, 100
2, 4122000, Note_on_c, 0, 65, 0
2, 4122000, Note_on_c, 0, 67, 100
2, 4122060, Note_on_c, 0, 67, 0
2, 4122060, Note_on_c, 0, 68, 100
2, 4122120, Note_on_c, 0, 68, 0
2, 4122120, Note_on_c, 0, 67, 100
2, 4122240, Note_on_c, 0, 67, 0
2, 4122240, Note_on_c, 0, 65, 100
2, 4122360, Note_on_c, 0, 65, 0
2, 4122360, Note_on_c, 0, 63, 100
2, 4122420, Note_on_c, 0, 63, 0
2, 4122420, Note_on_c, 0, 65, 100
2, 4122480, Note_on_c, 0, 65, 0
2, 4122480, Note_on_c, 0, 63, 100
2, 4122540, Note_on_c, 0, 63, 0
2, 4122540, Note_on_c, 0, 62, 100
2, 4122600, Note_on_c, 0, 62, 0
2, 4122600, Note_on_c, 0, 63, 100
2, 4122720, Note_on_c, 0, 63, 0
2, 4122720, Note_on_c, 0, 68, 100
2, 4123920, Note_on_c, 0, 68, 0
2, 4123920, Note_on_c, 0, 67, 100
2, 4124040, Note_on_c, 0, 67, 0
2, 4124040, Note_on_c, 0, 66, 100
2, 4124160, Note_on_c, 0, 66, 0
2, 4124160, Note_on_c, 0, 65, 100
2, 4124280, Note_on_c, 0, 65, 0
2, 4124280, Note_on_c, 0, 74, 100
2, 4124400, Note_on_c, 0, 74, 0
2, 4124400, Note_on_c, 0, 65, 100
2, 4124520, Note_on_c, 0, 65, 0
2, 4124520, Note_on_c, 0, 63, 100
2, 4124640, Note_on_c, 0, 63, 0
2, 4124640, Note_on_c, 0, 62, 100
2, 4125240, Note_on_c, 0, 62, 0
2, 4125240, Note_on_c, 0, 60, 100
2, 4125360, Note_on_c, 0, 60, 0
2, 4125360, Note_on_c, 0, 58, 100
2, 4125480, Note_on_c, 0, 58, 0
2, 4125480, Note_on_c, 0, 57, 100
2, 4125600, Note_on_c, 0, 57, 0
2, 4125600, Note_on_c, 0, 58, 100
2, 4125720, Note_on_c, 0, 58, 0
2, 4125720, Note_on_c, 0, 60, 100
2, 4125840, Note_on_c, 0, 60, 0
2, 4125840, Note_on_c, 0, 62, 100
2, 4125960, Note_on_c, 0, 62, 0
2, 4125960, Note_on_c, 0, 63, 100
2, 4126080, Note_on_c, 0, 63, 0
2, 4126080, Note_on_c, 0, 62, 100
2, 4126200, Note_on_c, 0, 62, 0
2, 4126200, Note_on_c, 0, 63, 100
2, 4126320, Note_on_c, 0, 63, 0
2, 4126320, Note_on_c, 0, 60, 100
2, 4126680, Note_on_c, 0, 60, 0
2, 4126680, Note_on_c, 0, 62, 100
2, 4126800, Note_on_c, 0, 62, 0
2, 4126800, Note_on_c, 0, 69, 100
2, 4127280, Note_on_c, 0, 69, 0
2, 4127280, Note_on_c, 0, 74, 100
2, 4127520, Note_on_c, 0, 74, 0
2, 4127520, Note_on_c, 0, 72, 100
2, 4127880, Note_on_c, 0, 72, 0
2, 4127880, Note_on_c, 0, 70, 100
2, 4128000, Note_on_c, 0, 70, 0
2, 4128000, Note_on_c, 0, 69, 100
2, 4128120, Note_on_c, 0, 69, 0
2, 4128120, Note_on_c, 0, 67, 100
2, 4128240, Note_on_c, 0, 67, 0
2, 4128240, Note_on_c, 0, 65, 100
2, 4128360, Note_on_c, 0, 65, 0
2, 4128360, Note_on_c, 0, 63, 100
2, 4128480, Note_on_c, 0, 63, 0
2, 4128480, Note_on_c, 0, 62, 100
2, 4128600, Note_on_c, 0, 62, 0
2, 4128600, Note_on_c, 0, 60, 100
2, 4128720, Note_on_c, 0, 60, 0
2, 4128720, Note_on_c, 0, 63, 100
2, 4128840, Note_on_c, 0, 63, 0
2, 4128840, Note_on_c, 0, 62, 100
2, 4128960, Note_on_c, 0, 62, 0
2, 4128960, Note_on_c, 0, 64, 100
2, 4129080, Note_on_c, 0, 64, 0
2, 4129080, Note_on_c, 0, 66, 100
2, 4129200, Note_on_c, 0, 66, 0
2, 4129200, Note_on_c, 0, 67, 100
2, 4129260, Note_on_c, 0, 67, 0
2, 4129260, Note_on_c, 0, 57, 100
2, 4129320, Note_on_c, 0, 57, 0
2, 4129320, Note_on_c, 0, 63, 100
2, 4129560, Note_on_c, 0, 63, 0
2, 4129560, Note_on_c, 0, 62, 100
2, 4129680, Note_on_c, 0, 62, 0
2, 4129680, Note_on_c, 0, 60, 100
2, 4129800, Note_on_c, 0, 60, 0
2, 4129800, Note_on_c, 0, 58, 100
2, 4129920, Note_on_c, 0, 58, 0
2, 4129920, Note_on_c, 0, 57, 100
2, 4130040, Note_on_c, 0, 57, 0
2, 4130040, Note_on_c, 0, 55, 100
2, 4130160, Note_on_c, 0, 55, 0
2, 4130160, Note_on_c, 0, 54, 100
2, 4130280, Note_on_c, 0, 54, 0
2, 4130280, Note_on_c, 0, 55, 100
2, 4130400, Note_on_c, 0, 55, 0
2, 4130400, Note_on_c, 0, 71, 100
2, 4330320, Note_on_c, 0, 71, 0
2, 4330320, Note_on_c, 0, 69, 100
2, 4332240, Note_on_c, 0, 69, 0
2, 4332240, Note_on_c, 0, 71, 100
2, 4333680, Note_on_c, 0, 71, 0
2, 4333680, Note_on_c, 0, 69, 100
2, 4333920, Note_on_c, 0, 69, 0
2, 4333920, Note_on_c, 0, 67, 100
2, 4334160, Note_on_c, 0, 67, 0
2, 4334160, Note_on_c, 0, 66, 100
2, 4335600, Note_on_c, 0, 66, 0
2, 4335600, Note_on_c, 0, 64, 100
2, 4335840, Note_on_c, 0, 64, 0
2, 4335840, Note_on_c, 0, 66, 100
2, 4336080, Note_on_c, 0, 66, 0
2, 4336080, Note_on_c, 0, 67, 100
2, 4338000, Note_on_c, 0, 67, 0
2, 4338000, Note_on_c, 0, 66, 100
2, 4339440, Note_on_c, 0, 66, 0
2, 4339440, Note_on_c, 0, 67, 100
2, 4339680, Note_on_c, 0, 67, 0
2, 4339680, Note_on_c, 0, 69, 100
2, 4339920, Note_on_c, 0, 69, 0
2, 4339920, Note_on_c, 0, 72, 100
2, 4341360, Note_on_c, 0, 72, 0
2, 4341360, Note_on_c, 0, 71, 100
2, 4341600, Note_on_c, 0, 71, 0
2, 4341600, Note_on_c, 0, 72, 100
2, 4341840, Note_on_c, 0, 72, 0
2, 4341840, Note_on_c, 0, 71, 100
2, 4343040, Note_on_c, 0, 71, 0
2, 4343040, Note_on_c, 0, 72, 100
2, 4343280, Note_on_c, 0, 72, 0
2, 4343280, Note_on_c, 0, 69, 100
2, 4343520, Note_on_c, 0, 69, 0
2, 4343520, Note_on_c, 0, 71, 100
2, 4343760, Note_on_c, 0, 71, 0
2, 4343760, Note_on_c, 0, 67, 100
2, 4345680, Note_on_c, 0, 67, 0
2, 4345680, Note_on_c, 0, 66, 100
2, 4347600, Note_on_c, 0, 66, 0
2, 4347600, Note_on_c, 0, 67, 100
2, 4349040, Note_on_c, 0, 67, 0
2, 4349040, Note_on_c, 0, 69, 100
2, 4349280, Note_on_c, 0, 69, 0
2, 4349280, Note_on_c, 0, 71, 100
2, 4349520, Note_on_c, 0, 71, 0
2, 4349520, Note_on_c, 0, 69, 100
2, 4350720, Note_on_c, 0, 69, 0
2, 4350720, Note_on_c, 0, 71, 100
2, 4350960, Note_on_c, 0, 71, 0
2, 4350960, Note_on_c, 0, 67, 100
2, 4351200, Note_on_c, 0, 67, 0
2, 4351200, Note_on_c, 0, 69, 100
2, 4352880, Note_on_c, 0, 69, 0
2, 4352880, Note_on_c, 0, 67, 100
2, 4354800, Note_on_c, 0, 67, 0
2, 4354800, Note_on_c, 0, 66, 100
2, 4355280, Note_on_c, 0, 66, 0
2, 4355280, Note_on_c, 0, 71, 100
2, 4356720, Note_on_c, 0, 71, 0
2, 4356720, Note_on_c, 0, 64, 100
2, 4357200, Note_on_c, 0, 64, 0
2, 4357200, Note_on_c, 0, 66, 100
2, 4357440, Note_on_c, 0, 66, 0
2, 4357440, Note_on_c, 0, 67, 100
2, 4357680, Note_on_c, 0, 67, 0
2, 4357680, Note_on_c, 0, 66, 100
2, 4359120, Note_on_c, 0, 66, 0
2, 4359120, Note_on_c, 0, 71, 100
2, 4361040, Note_on_c, 0, 71, 0
2, 4361040, Note_on_c, 0, 69, 100
2, 4362960, Note_on_c, 0, 69, 0
2, 4362960, Note_on_c, 0, 71, 100
2, 4364400, Note_on_c, 0, 71, 0
2, 4364400, Note_on_c, 0, 69, 100
2, 4364640, Note_on_c, 0, 69, 0
2, 4364640, Note_on_c, 0, 67, 100
2, 4364880, Note_on_c, 0, 67, 0
2, 4364880, Note_on_c, 0, 66, 100
2, 4366320, Note_on_c, 0, 66, 0
2, 4366320, Note_on_c, 0, 64, 100
2, 4366560, Note_on_c, 0, 64, 0
2, 4366560, Note_on_c, 0, 66, 100
2, 4366800, Note_on_c, 0, 66, 0
2, 4366800, Note_on_c, 0, 67, 100
2, 4368720, Note_on_c, 0, 67, 0
2, 4368720, Note_on_c, 0, 66, 100
2, 4370160, Note_on_c, 0, 66, 0
2, 4370160, Note_on_c, 0, 67, 100
2, 4370400, Note_on_c, 0, 67, 0
2, 4370400, Note_on_c, 0, 69, 100
2, 4370640, Note_on_c, 0, 69, 0
2, 4370640, Note_on_c, 0, 72, 100
2, 4372080, Note_on_c, 0, 72, 0
2, 4372080, Note_on_c, 0, 71, 100
2, 4372320, Note_on_c, 0, 71, 0
2, 4372320, Note_on_c, 0, 72, 100
2, 4372560, Note_on_c, 0, 72, 0
2, 4372560, Note_on_c, 0, 71, 100
2, 4373760, Note_on_c, 0, 71, 0
2, 4373760, Note_on_c, 0, 72, 100
2, 4374000, Note_on_c, 0, 72, 0
2, 4374000, Note_on_c, 0, 69, 100
2, 4374240, Note_on_c, 0, 69, 0
2, 4374240, Note_on_c, 0, 71, 100
2, 4374480, Note_on_c, 0, 71, 0
2, 4374480, Note_on_c, 0, 67, 100
2, 4376400, Note_on_c, 0, 67, 0
2, 4376400, Note_on_c, 0, 66, 100
2, 4378320, Note_on_c, 0, 66, 0
2, 4378320, Note_on_c, 0, 67, 100
2, 4379760, Note_on_c, 0, 67, 0
2, 4379760, Note_on_c, 0, 69, 100
2, 4380000, Note_on_c, 0, 69, 0
2, 4380000, Note_on_c, 0, 71, 100
2, 4380240, Note_on_c, 0, 71, 0
2, 4380240, Note_on_c, 0, 69, 100
2, 4381440, Note_on_c, 0, 69, 0
2, 4381440, Note_on_c, 0, 71, 100
2, 4381680, Note_on_c, 0, 71, 0
2, 4381680, Note_on_c, 0, 67, 100
2, 4381920, Note_on_c, 0, 67, 0
2, 4381920, Note_on_c, 0, 69, 100
2, 4383600, Note_on_c, 0, 69, 0
2, 4383600, Note_on_c, 0, 67, 100
2, 4385520, Note_on_c, 0, 67, 0
2, 4385520, Note_on_c, 0, 66, 100
2, 4386000, Note_on_c, 0, 66, 0
2, 4386000, Note_on_c, 0, 71, 100
2, 4387440, Note_on_c, 0, 71, 0
2, 4387440, Note_on_c, 0, 64, 100
2, 4387920, Note_on_c, 0, 64, 0
2, 4387920, Note_on_c, 0, 66, 100
2, 4388160, Note_on_c, 0, 66, 0
2, 4388160, Note_on_c, 0, 67, 100
2, 4388400, Note_on_c, 0, 67, 0
2, 4388400, Note_on_c, 0, 66, 100
2, 4389840, Note_on_c, 0, 66, 0
2, 4389840, Note_on_c, 0, 72, 100
2, 4391760, Note_on_c, 0, 72, 0
2, 4391760, Note_on_c, 0, 71, 100
2, 4393680, Note_on_c, 0, 71, 0
2, 4393680, Note_on_c, 0, 72, 100
2, 4395120, Note_on_c, 0, 72, 0
2, 4395120, Note_on_c, 0, 74, 100
2, 4395360, Note_on_c, 0, 74, 0
2, 4395360, Note_on_c, 0, 76, 100
2, 4395600, Note_on_c, 0, 76, 0
2, 4395600, Note_on_c, 0, 75, 100
2, 4396800, Note_on_c, 0, 75, 0
2, 4396800, Note_on_c, 0, 76, 100
2, 4397040, Note_on_c, 0, 76, 0
2, 4397040, Note_on_c, 0, 75, 100
2, 4397520, Note_on_c, 0, 75, 0
2, 4397520, Note_on_c, 0, 67, 100
2, 4399440, Note_on_c, 0, 67, 0
2, 4399440, Note_on_c, 0, 66, 100
2, 4401360, Note_on_c, 0, 66, 0
2, 4401360, Note_on_c, 0, 67, 100
2, 4401840, Note_on_c, 0, 67, 0
2, 4401840, Note_on_c, 0, 69, 100
2, 4402320, Note_on_c, 0, 69, 0
2, 4402320, Note_on_c, 0, 67, 100
2, 4403760, Note_on_c, 0, 67, 0
2, 4403760, Note_on_c, 0, 69, 100
2, 4404000, Note_on_c, 0, 69, 0
2, 4404000, Note_on_c, 0, 71, 100
2, 4404240, Note_on_c, 0, 71, 0
2, 4404240, Note_on_c, 0, 69, 100
2, 4405440, Note_on_c, 0, 69, 0
2, 4405440, Note_on_c, 0, 67, 100
2, 4405680, Note_on_c, 0, 67, 0
2, 4405680, Note_on_c, 0, 66, 100
2, 4405920, Note_on_c, 0, 66, 0
2, 4405920, Note_on_c, 0, 64, 100
2, 4406160, Note_on_c, 0, 64, 0
2, 4406160, Note_on_c, 0, 72, 100
2, 4407120, Note_on_c, 0, 72, 0
2, 4407120, Note_on_c, 0, 71, 100
2, 4409040, Note_on_c, 0, 71, 0
2, 4409040, Note_on_c, 0, 72, 100
2, 4410480, Note_on_c, 0, 72, 0
2, 4410480, Note_on_c, 0, 74, 100
2, 4410720, Note_on_c, 0, 74, 0
2, 4410720, Note_on_c, 0, 76, 100
2, 4410960, Note_on_c, 0, 76, 0
2, 4410960, Note_on_c, 0, 74, 100
2, 4412160, Note_on_c, 0, 74, 0
2, 4412160, Note_on_c, 0, 76, 100
2, 4412400, Note_on_c, 0, 76, 0
2, 4412400, Note_on_c, 0, 72, 100
2, 4412640, Note_on_c, 0, 72, 0
2, 4412640, Note_on_c, 0, 74, 100
2, 4414320, Note_on_c, 0, 74, 0
2, 4414320, Note_on_c, 0, 72, 100
2, 4416240, Note_on_c, 0, 72, 0
2, 4416240, Note_on_c, 0, 71, 100
2, 4416720, Note_on_c, 0, 71, 0
2, 4416720, Note_on_c, 0, 76, 100
2, 4418160, Note_on_c, 0, 76, 0
2, 4418160, Note_on_c, 0, 69, 100
2, 4418640, Note_on_c, 0, 69, 0
2, 4418640, Note_on_c, 0, 71, 100
2, 4418880, Note_on_c, 0, 71, 0
2, 4418880, Note_on_c, 0, 72, 100
2, 4419120, Note_on_c, 0, 72, 0
2, 4419120, Note_on_c, 0, 71, 100
2, 4420560, Note_on_c, 0, 71, 0
2, 4420560, Note_on_c, 0, 72, 100
2, 4422480, Note_on_c, 0, 72, 0
2, 4422480, Note_on_c, 0, 71, 100
2, 4424400, Note_on_c, 0, 71, 0
2, 4424400, Note_on_c, 0, 72, 100
2, 4425840, Note_on_c, 0, 72, 0
2, 4425840, Note_on_c, 0, 74, 100
2, 4426080, Note_on_c, 0, 74, 0
2, 4426080, Note_on_c, 0, 76, 100
2, 4426320, Note_on_c, 0, 76, 0
2, 4426320, Note_on_c, 0, 75, 100
2, 4427520, Note_on_c, 0, 75, 0
2, 4427520, Note_on_c, 0, 76, 100
2, 4427760, Note_on_c, 0, 76, 0
2, 4427760, Note_on_c, 0, 75, 100
2, 4428240, Note_on_c, 0, 75, 0
2, 4428240, Note_on_c, 0, 67, 100
2, 4430160, Note_on_c, 0, 67, 0
2, 4430160, Note_on_c, 0, 66, 100
2, 4432080, Note_on_c, 0, 66, 0
2, 4432080, Note_on_c, 0, 67, 100
2, 4432560, Note_on_c, 0, 67, 0
2, 4432560, Note_on_c, 0, 69, 100
2, 4433040, Note_on_c, 0, 69, 0
2, 4433040, Note_on_c, 0, 67, 100
2, 4434480, Note_on_c, 0, 67, 0
2, 4434480, Note_on_c, 0, 69, 100
2, 4434720, Note_on_c, 0, 69, 0
2, 4434720, Note_on_c, 0, 71, 100
2, 4434960, Note_on_c, 0, 71, 0
2, 4434960, Note_on_c, 0, 69, 100
2, 4436160, Note_on_c, 0, 69, 0
2, 4436160, Note_on_c, 0, 67, 100
2, 4436400, Note_on_c, 0, 67, 0
2, 4436400, Note_on_c, 0, 66, 100
2, 4436640, Note_on_c, 0, 66, 0
2, 4436640, Note_on_c, 0, 64, 100
2, 4436880, Note_on_c, 0, 64, 0
2, 4436880, Note_on_c, 0, 72, 100
2, 4437840, Note_on_c, 0, 72, 0
2, 4437840, Note_on_c, 0, 71, 100
2, 4439760, Note_on_c, 0, 71, 0
2, 4439760, Note_on_c, 0, 72, 100
2, 4441200, Note_on_c, 0, 72, 0
2, 4441200, Note_on_c, 0, 74, 100
2, 4441440, Note_on_c, 0, 74, 0
2, 4441440, Note_on_c, 0, 76, 100
2, 4441680, Note_on_c, 0, 76, 0
2, 4441680, Note_on_c, 0, 74, 100
2, 4442880, Note_on_c, 0, 74, 0
2, 4442880, Note_on_c, 0, 76, 100
2, 4443120, Note_on_c, 0, 76, 0
2, 4443120, Note_on_c, 0, 72, 100
2, 4443360, Note_on_c, 0, 72, 0
2, 4443360, Note_on_c, 0, 74, 100
2, 4445040, Note_on_c, 0, 74, 0
2, 4445040, Note_on_c, 0, 72, 100
2, 4446960, Note_on_c, 0, 72, 0
2, 4446960, Note_on_c, 0, 71, 100
2, 4447440, Note_on_c, 0, 71, 0
2, 4447440, Note_on_c, 0, 76, 100
2, 4448880, Note_on_c, 0, 76, 0
2, 4448880, Note_on_c, 0, 69, 100
2, 4449360, Note_on_c, 0, 69, 0
2, 4449360, Note_on_c, 0, 71, 100
2, 4449600, Note_on_c, 0, 71, 0
2, 4449600, Note_on_c, 0, 72, 100
2, 4449840, Note_on_c, 0, 72, 0
2, 4449840, Note_on_c, 0, 71, 100
2, 4451280, Note_on_c, 0, 71, 0
2, 4451280, Note_on_c, 0, 74, 100
2, 4454880, Note_on_c, 0, 74, 0
2, 4454880, Note_on_c, 0, 73, 100
2, 4455120, Note_on_c, 0, 73, 0
2, 4455120, Note_on_c, 0, 74, 100
2, 4455360, Note_on_c, 0, 74, 0
2, 4455360, Note_on_c, 0, 79, 100
2, 4456080, Note_on_c, 0, 79, 0
2, 4456080, Note_on_c, 0, 78, 100
2, 4456200, Note_on_c, 0, 78, 0
2, 4456200, Note_on_c, 0, 79, 100
2, 4456320, Note_on_c, 0, 79, 0
2, 4456320, Note_on_c, 0, 74, 100
2, 4456440, Note_on_c, 0, 74, 0
2, 4456440, Note_on_c, 0, 71, 100
2, 4456560, Note_on_c, 0, 71, 0
2, 4456560, Note_on_c, 0, 74, 100
2, 4456680, Note_on_c, 0, 74, 0
2, 4456680, Note_on_c, 0, 76, 100
2, 4456800, Note_on_c, 0, 76, 0
2, 4456800, Note_on_c, 0, 74, 100
2, 4456920, Note_on_c, 0, 74, 0
2, 4456920, Note_on_c, 0, 76, 100
2, 4457040, Note_on_c, 0, 76, 0
2, 4457040, Note_on_c, 0, 72, 100
2, 4457160, Note_on_c, 0, 72, 0
2, 4457160, Note_on_c, 0, 69, 100
2, 4457280, Note_on_c, 0, 69, 0
2, 4457280, Note_on_c, 0, 72, 100
2, 4457400, Note_on_c, 0, 72, 0
2, 4457400, Note_on_c, 0, 74, 100
2, 4457520, Note_on_c, 0, 74, 0
2, 4457520, Note_on_c, 0, 72, 100
2, 4457640, Note_on_c, 0, 72, 0
2, 4457640, Note_on_c, 0, 74, 100
2, 4457760, Note_on_c, 0, 74, 0
2, 4457760, Note_on_c, 0, 76, 100
2, 4457880, Note_on_c, 0, 76, 0
2, 4457880, Note_on_c, 0, 74, 100
2, 4458000, Note_on_c, 0, 74, 0
2, 4458000, Note_on_c, 0, 72, 100
2, 4458120, Note_on_c, 0, 72, 0
2, 4458120, Note_on_c, 0, 71, 100
2, 4458240, Note_on_c, 0, 71, 0
2, 4458240, Note_on_c, 0, 69, 100
2, 4458360, Note_on_c, 0, 69, 0
2, 4458360, Note_on_c, 0, 71, 100
2, 4458480, Note_on_c, 0, 71, 0
2, 4458480, Note_on_c, 0, 72, 100
2, 4458600, Note_on_c, 0, 72, 0
2, 4458600, Note_on_c, 0, 71, 100
2, 4458720, Note_on_c, 0, 71, 0
2, 4458720, Note_on_c, 0, 69, 100
2, 4458840, Note_on_c, 0, 69, 0
2, 4458840, Note_on_c, 0, 67, 100
2, 4458960, Note_on_c, 0, 67, 0
2, 4458960, Note_on_c, 0, 79, 100
2, 4459200, Note_on_c, 0, 79, 0
2, 4459200, Note_on_c, 0, 78, 100
2, 4459920, Note_on_c, 0, 78, 0
2, 4459920, Note_on_c, 0, 76, 100
2, 4460640, Note_on_c, 0, 76, 0
2, 4460640, Note_on_c, 0, 74, 100
2, 4460880, Note_on_c, 0, 74, 0
2, 4460880, Note_on_c, 0, 73, 100
2, 4461120, Note_on_c, 0, 73, 0
2, 4461120, Note_on_c, 0, 74, 100
2, 4461240, Note_on_c, 0, 74, 0
2, 4461240, Note_on_c, 0, 76, 100
2, 4461360, Note_on_c, 0, 76, 0
2, 4461360, Note_on_c, 0, 74, 100
2, 4462080, Note_on_c, 0, 74, 0
2, 4462080, Note_on_c, 0, 72, 100
2, 4462320, Note_on_c, 0, 72, 0
2, 4462320, Note_on_c, 0, 71, 100
2, 4462800, Note_on_c, 0, 71, 0
2, 4462800, Note_on_c, 0, 79, 100
2, 4463040, Note_on_c, 0, 79, 0
2, 4463040, Note_on_c, 0, 76, 100
2, 4463400, Note_on_c, 0, 76, 0
2, 4463400, Note_on_c, 0, 78, 100
2, 4463520, Note_on_c, 0, 78, 0
2, 4463520, Note_on_c, 0, 74, 100
2, 4463640, Note_on_c, 0, 74, 0
2, 4463640, Note_on_c, 0, 76, 100
2, 4463760, Note_on_c, 0, 76, 0
2, 4463760, Note_on_c, 0, 73, 100
2, 4463880, Note_on_c, 0, 73, 0
2, 4463880, Note_on_c, 0, 74, 100
2, 4466400, Note_on_c, 0, 74, 0
2, 4466400, Note_on_c, 0, 73, 100
2, 4466640, Note_on_c, 0, 73, 0
2, 4466640, Note_on_c, 0, 74, 100
2, 4466880, Note_on_c, 0, 74, 0
2, 4466880, Note_on_c, 0, 79, 100
2, 4467600, Note_on_c, 0, 79, 0
2, 4467600, Note_on_c, 0, 78, 100
2, 4467720, Note_on_c, 0, 78, 0
2, 4467720, Note_on_c, 0, 79, 100
2, 4467840, Note_on_c, 0, 79, 0
2, 4467840, Note_on_c, 0, 74, 100
2, 4467960, Note_on_c, 0, 74, 0
2, 4467960, Note_on_c, 0, 71, 100
2, 4468080, Note_on_c, 0, 71, 0
2, 4468080, Note_on_c, 0, 74, 100
2, 4468200, Note_on_c, 0, 74, 0
2, 4468200, Note_on_c, 0, 76, 100
2, 4468320, Note_on_c, 0, 76, 0
2, 4468320, Note_on_c, 0, 74, 100
2, 4468440, Note_on_c, 0, 74, 0
2, 4468440, Note_on_c, 0, 76, 100
2, 4468560, Note_on_c, 0, 76, 0
2, 4468560, Note_on_c, 0, 72, 100
2, 4468680, Note_on_c, 0, 72, 0
2, 4468680, Note_on_c, 0, 69, 100
2, 4468800, Note_on_c, 0, 69, 0
2, 4468800, Note_on_c, 0, 72, 100
2, 4468920, Note_on_c, 0, 72, 0
2, 4468920, Note_on_c, 0, 74, 100
2, 4469040, Note_on_c, 0, 74, 0
2, 4469040, Note_on_c, 0, 72, 100
2, 4469160, Note_on_c, 0, 72, 0
2, 4469160, Note_on_c, 0, 74, 100
2, 4469280, Note_on_c, 0, 74, 0
2, 4469280, Note_on_c, 0, 76, 100
2, 4469400, Note_on_c, 0, 76, 0
2, 4469400, Note_on_c, 0, 74, 100
2, 4469520, Note_on_c, 0, 74, 0
2, 4469520, Note_on_c, 0, 72, 100
2, 4469640, Note_on_c, 0, 72, 0
2, 4469640, Note_on_c, 0, 71, 100
2, 4469760, Note_on_c, 0, 71, 0
2, 4469760, Note_on_c, 0, 69, 100
2, 4469880, Note_on_c, 0, 69, 0
2, 4469880, Note_on_c, 0, 71, 100
2, 4470000, Note_on_c, 0, 71, 0
2, 4470000, Note_on_c, 0, 72, 100
2, 4470120, Note_on_c, 0, 72, 0
2, 4470120, Note_on_c, 0, 71, 100
2, 4470240, Note_on_c, 0, 71, 0
2, 4470240, Note_on_c, 0, 69, 100
2, 4470360, Note_on_c, 0, 69, 0
2, 4470360, Note_on_c, 0, 67, 100
2, 4470480, Note_on_c, 0, 67, 0
2, 4470480, Note_on_c, 0, 79, 100
2, 4470720, Note_on_c, 0, 79, 0
2, 4470720, Note_on_c, 0, 78, 100
2, 4471440, Note_on_c, 0, 78, 0
2, 4471440, Note_on_c, 0, 76, 100
2, 4472160, Note_on_c, 0, 76, 0
2, 4472160, Note_on_c, 0, 74, 100
2, 4472400, Note_on_c, 0, 74, 0
2, 4472400, Note_on_c, 0, 73, 100
2, 4472640, Note_on_c, 0, 73, 0
2, 4472640, Note_on_c, 0, 74, 100
2, 4472760, Note_on_c, 0, 74, 0
2, 4472760, Note_on_c, 0, 76, 100
2, 4472880, Note_on_c, 0, 76, 0
2, 4472880, Note_on_c, 0, 74, 100
2, 4473600, Note_on_c, 0, 74, 0
2, 4473600, Note_on_c, 0, 72, 100
2, 4473840, Note_on_c, 0, 72, 0
2, 4473840, Note_on_c, 0, 71, 100
2, 4474320, Note_on_c, 0, 71, 0
2, 4474320, Note_on_c, 0, 79, 100
2, 4474560, Note_on_c, 0, 79, 0
2, 4474560, Note_on_c, 0, 76, 100
2, 4474920, Note_on_c, 0, 76, 0
2, 4474920, Note_on_c, 0, 78, 100
2, 4475040, Note_on_c, 0, 78, 0
2, 4475040, Note_on_c, 0, 74, 100
2, 4475160, Note_on_c, 0, 74, 0
2, 4475160, Note_on_c, 0, 76, 100
2, 4475280, Note_on_c, 0, 76, 0
2, 4475280, Note_on_c, 0, 73, 100
2, 4475400, Note_on_c, 0, 73, 0
2, 4475400, Note_on_c, 0, 74, 100
2, 4475520, Note_on_c, 0, 74, 0
2, 4475520, Note_on_c, 0, 78, 100
2, 4476240, Note_on_c, 0, 78, 0
2, 4476240, Note_on_c, 0, 76, 100
2, 4476360, Note_on_c, 0, 76, 0
2, 4476360, Note_on_c, 0, 78, 100
2, 4476480, Note_on_c, 0, 78, 0
2, 4476480, Note_on_c, 0, 74, 100
2, 4476600, Note_on_c, 0, 74, 0
2, 4476600, Note_on_c, 0, 69, 100
2, 4476720, Note_on_c, 0, 69, 0
2, 4476720, Note_on_c, 0, 74, 100
2, 4476840, Note_on_c, 0, 74, 0
2, 4476840, Note_on_c, 0, 79, 100
2, 4476960, Note_on_c, 0, 79, 0
2, 4476960, Note_on_c, 0, 78, 100
2, 4477080, Note_on_c, 0, 78, 0
2, 4477080, Note_on_c, 0, 79, 100
2, 4477200, Note_on_c, 0, 79, 0
2, 4477200, Note_on_c, 0, 74, 100
2, 4477320, Note_on_c, 0, 74, 0
2, 4477320, Note_on_c, 0, 71, 100
2, 4477440, Note_on_c, 0, 71, 0
2, 4477440, Note_on_c, 0, 74, 100
2, 4477560, Note_on_c, 0, 74, 0
2, 4477560, Note_on_c, 0, 76, 100
2, 4477680, Note_on_c, 0, 76, 0
2, 4477680, Note_on_c, 0, 75, 100
2, 4477800, Note_on_c, 0, 75, 0
2, 4477800, Note_on_c, 0, 76, 100
2, 4477920, Note_on_c, 0, 76, 0
2, 4477920, Note_on_c, 0, 79, 100
2, 4478040, Note_on_c, 0, 79, 0
2, 4478040, Note_on_c, 0, 78, 100
2, 4478160, Note_on_c, 0, 78, 0
2, 4478160, Note_on_c, 0, 76, 100
2, 4478280, Note_on_c, 0, 76, 0
2, 4478280, Note_on_c, 0, 75, 100
2, 4478400, Note_on_c, 0, 75, 0
2, 4478400, Note_on_c, 0, 76, 100
2, 4478520, Note_on_c, 0, 76, 0
2, 4478520, Note_on_c, 0, 78, 100
2, 4478640, Note_on_c, 0, 78, 0
2, 4478640, Note_on_c, 0, 75, 100
2, 4478760, Note_on_c, 0, 75, 0
2, 4478760, Note_on_c, 0, 71, 100
2, 4478880, Note_on_c, 0, 71, 0
2, 4478880, Note_on_c, 0, 75, 100
2, 4479000, Note_on_c, 0, 75, 0
2, 4479000, Note_on_c, 0, 76, 100
2, 4480800, Note_on_c, 0, 76, 0
2, 4480800, Note_on_c, 0, 75, 100
2, 4481040, Note_on_c, 0, 75, 0
2, 4481040, Note_on_c, 0, 76, 100
2, 4482240, Note_on_c, 0, 76, 0
2, 4482240, Note_on_c, 0, 72, 100
2, 4482360, Note_on_c, 0, 72, 0
2, 4482360, Note_on_c, 0, 69, 100
2, 4482480, Note_on_c, 0, 69, 0
2, 4482480, Note_on_c, 0, 72, 100
2, 4482600, Note_on_c, 0, 72, 0
2, 4482600, Note_on_c, 0, 74, 100
2, 4482720, Note_on_c, 0, 74, 0
2, 4482720, Note_on_c, 0, 72, 100
2, 4483680, Note_on_c, 0, 72, 0
2, 4483680, Note_on_c, 0, 71, 100
2, 4483800, Note_on_c, 0, 71, 0
2, 4483800, Note_on_c, 0, 72, 100
2, 4483920, Note_on_c, 0, 72, 0
2, 4483920, Note_on_c, 0, 74, 100
2, 4484400, Note_on_c, 0, 74, 0
2, 4484400, Note_on_c, 0, 72, 100
2, 4484520, Note_on_c, 0, 72, 0
2, 4484520, Note_on_c, 0, 71, 100
2, 4484640, Note_on_c, 0, 71, 0
2, 4484640, Note_on_c, 0, 69, 100
2, 4484760, Note_on_c, 0, 69, 0
2, 4484760, Note_on_c, 0, 74, 100
2, 4484880, Note_on_c, 0, 74, 0
2, 4484880, Note_on_c, 0, 72, 100
2, 4485000, Note_on_c, 0, 72, 0
2, 4485000, Note_on_c, 0, 74, 100
2, 4485120, Note_on_c, 0, 74, 0
2, 4485120, Note_on_c, 0, 71, 100
2, 4485240, Note_on_c, 0, 71, 0
2, 4485240, Note_on_c, 0, 67, 100
2, 4485360, Note_on_c, 0, 67, 0
2, 4485360, Note_on_c, 0, 71, 100
2, 4485480, Note_on_c, 0, 71, 0
2, 4485480, Note_on_c, 0, 76, 100
2, 4485600, Note_on_c, 0, 76, 0
2, 4485600, Note_on_c, 0, 74, 100
2, 4485720, Note_on_c, 0, 74, 0
2, 4485720, Note_on_c, 0, 76, 100
2, 4485840, Note_on_c, 0, 76, 0
2, 4485840, Note_on_c, 0, 72, 100
2, 4485960, Note_on_c, 0, 72, 0
2, 4485960, Note_on_c, 0, 69, 100
2, 4486080, Note_on_c, 0, 69, 0
2, 4486080, Note_on_c, 0, 72, 100
2, 4486200, Note_on_c, 0, 72, 0
2, 4486200, Note_on_c, 0, 78, 100
2, 4486320, Note_on_c, 0, 78, 0
2, 4486320, Note_on_c, 0, 76, 100
2, 4486440, Note_on_c, 0, 76, 0
2, 4486440, Note_on_c, 0, 78, 100
2, 4486560, Note_on_c, 0, 78, 0
2, 4486560, Note_on_c, 0, 81, 100
2, 4486680, Note_on_c, 0, 81, 0
2, 4486680, Note_on_c, 0, 74, 100
2, 4486800, Note_on_c, 0, 74, 0
2, 4486800, Note_on_c, 0, 78, 100
2, 4486920, Note_on_c, 0, 78, 0
2, 4486920, Note_on_c, 0, 79, 100
2, 4487040, Note_on_c, 0, 79, 0
2, 4487040, Note_on_c, 0, 78, 100
2, 4487160, Note_on_c, 0, 78, 0
2, 4487160, Note_on_c, 0, 79, 100
2, 4487280, Note_on_c, 0, 79, 0
2, 4487280, Note_on_c, 0, 74, 100
2, 4487400, Note_on_c, 0, 74, 0
2, 4487400, Note_on_c, 0, 71, 100
2, 4487520, Note_on_c, 0, 71, 0
2, 4487520, Note_on_c, 0, 67, 100
2, 4487640, Note_on_c, 0, 67, 0
2, 4487640, Note_on_c, 0, 78, 100
2, 4487760, Note_on_c, 0, 78, 0
2, 4487760, Note_on_c, 0, 76, 100
2, 4487880, Note_on_c, 0, 76, 0
2, 4487880, Note_on_c, 0, 78, 100
2, 4488000, Note_on_c, 0, 78, 0
2, 4488000, Note_on_c, 0, 74, 100
2, 4488120, Note_on_c, 0, 74, 0
2, 4488120, Note_on_c, 0, 69, 100
2, 4488240, Note_on_c, 0, 69, 0
2, 4488240, Note_on_c, 0, 74, 100
2, 4488360, Note_on_c, 0, 74, 0
2, 4488360, Note_on_c, 0, 79, 100
2, 4488480, Note_on_c, 0, 79, 0
2, 4488480, Note_on_c, 0, 78, 100
2, 4488600, Note_on_c, 0, 78, 0
2, 4488600, Note_on_c, 0, 79, 100
2, 4488720, Note_on_c, 0, 79, 0
2, 4488720, Note_on_c, 0, 74, 100
2, 4488840, Note_on_c, 0, 74, 0
2, 4488840, Note_on_c, 0, 71, 100
2, 4488960, Note_on_c, 0, 71, 0
2, 4488960, Note_on_c, 0, 74, 100
2, 4489080, Note_on_c, 0, 74, 0
2, 4489080, Note_on_c, 0, 76, 100
2, 4489200, Note_on_c, 0, 76, 0
2, 4489200, Note_on_c, 0, 75, 100
2, 4489320, Note_on_c, 0, 75, 0
2, 4489320, Note_on_c, 0, 76, 100
2, 4489440, Note_on_c, 0, 76, 0
2, 4489440, Note_on_c, 0, 79, 100
2, 4489560, Note_on_c, 0, 79, 0
2, 4489560, Note_on_c, 0, 78, 100
2, 4489680, Note_on_c, 0, 78, 0
2, 4489680, Note_on_c, 0, 76, 100
2, 4489800, Note_on_c, 0, 76, 0
2, 4489800, Note_on_c, 0, 75, 100
2, 4489920, Note_on_c, 0, 75, 0
2, 4489920, Note_on_c, 0, 76, 100
2, 4490040, Note_on_c, 0, 76, 0
2, 4490040, Note_on_c, 0, 78, 100
2, 4490160, Note_on_c, 0, 78, 0
2, 4490160, Note_on_c, 0, 75, 100
2, 4490280, Note_on_c, 0, 75, 0
2, 4490280, Note_on_c, 0, 71, 100
2, 4490400, Note_on_c, 0, 71, 0
2, 4490400, Note_on_c, 0, 75, 100
2, 4490520, Note_on_c, 0, 75, 0
2, 4490520, Note_on_c, 0, 76, 100
2, 4492320, Note_on_c, 0, 76, 0
2, 4492320, Note_on_c, 0, 75, 100
2, 4492560, Note_on_c, 0, 75, 0
2, 4492560, Note_on_c, 0, 76, 100
2, 4493760, Note_on_c, 0, 76, 0
2, 4493760, Note_on_c, 0, 72, 100
2, 4493880, Note_on_c, 0, 72, 0
2, 4493880, Note_on_c, 0, 69, 100
2, 4494000, Note_on_c, 0, 69, 0
2, 4494000, Note_on_c, 0, 72, 100
2, 4494120, Note_on_c, 0, 72, 0
2, 4494120, Note_on_c, 0, 74, 100
2, 4494240, Note_on_c, 0, 74, 0
2, 4494240, Note_on_c, 0, 72, 100
2, 4495200, Note_on_c, 0, 72, 0
2, 4495200, Note_on_c, 0, 71, 100
2, 4495320, Note_on_c, 0, 71, 0
2, 4495320, Note_on_c, 0, 72, 100
2, 4495440, Note_on_c, 0, 72, 0
2, 4495440, Note_on_c, 0, 74, 100
2, 4495920, Note_on_c, 0, 74, 0
2, 4495920, Note_on_c, 0, 72, 100
2, 4496040, Note_on_c, 0, 72, 0
2, 4496040, Note_on_c, 0, 71, 100
2, 4496160, Note_on_c, 0, 71, 0
2, 4496160, Note_on_c, 0, 69, 100
2, 4496280, Note_on_c, 0, 69, 0
2, 4496280, Note_on_c, 0, 74, 100
2, 4496400, Note_on_c, 0, 74, 0
2, 4496400, Note_on_c, 0, 72, 100
2, 4496520, Note_on_c, 0, 72, 0
2, 4496520, Note_on_c, 0, 74, 100
2, 4496640, Note_on_c, 0, 74, 0
2, 4496640, Note_on_c, 0, 71, 100
2, 4496760, Note_on_c, 0, 71, 0
2, 4496760, Note_on_c, 0, 67, 100
2, 4496880, Note_on_c, 0, 67, 0
2, 4496880, Note_on_c, 0, 71, 100
2, 4497000, Note_on_c, 0, 71, 0
2, 4497000, Note_on_c, 0, 76, 100
2, 4497120, Note_on_c, 0, 76, 0
2, 4497120, Note_on_c, 0, 74, 100
2, 4497240, Note_on_c, 0, 74, 0
2, 4497240, Note_on_c, 0, 76, 100
2, 4497360, Note_on_c, 0, 76, 0
2, 4497360, Note_on_c, 0, 72, 100
2, 4497480, Note_on_c, 0, 72, 0
2, 4497480, Note_on_c, 0, 69, 100
2, 4497600, Note_on_c, 0, 69, 0
2, 4497600, Note_on_c, 0, 72, 100
2, 4497720, Note_on_c, 0, 72, 0
2, 4497720, Note_on_c, 0, 78, 100
2, 4497840, Note_on_c, 0, 78, 0
2, 4497840, Note_on_c, 0, 76, 100
2, 4497960, Note_on_c, 0, 76, 0
2, 4497960, Note_on_c, 0, 78, 100
2, 4498080, Note_on_c, 0, 78, 0
2, 4498080, Note_on_c, 0, 81, 100
2, 4498200, Note_on_c, 0, 81, 0
2, 4498200, Note_on_c, 0, 74, 100
2, 4498320, Note_on_c, 0, 74, 0
2, 4498320, Note_on_c, 0, 78, 100
2, 4498440, Note_on_c, 0, 78, 0
2, 4498440, Note_on_c, 0, 79, 100
2, 4498560, Note_on_c, 0, 79, 0
2, 4498560, Note_on_c, 0, 78, 100
2, 4498680, Note_on_c, 0, 78, 0
2, 4498680, Note_on_c, 0, 79, 100
2, 4498800, Note_on_c, 0, 79, 0
2, 4498800, Note_on_c, 0, 74, 100
2, 4498920, Note_on_c, 0, 74, 0
2, 4498920, Note_on_c, 0, 71, 100
2, 4499040, Note_on_c, 0, 71, 0
2, 4499040, Note_on_c, 0, 67, 100
2, 4499160, Note_on_c, 0, 67, 0
2, 4499160, Note_on_c, 0, 69, 100
2, 4592520, Note_on_c, 0, 69, 0
2, 4592520, Note_on_c, 0, 70, 100
2, 4592640, Note_on_c, 0, 70, 0
2, 4592640, Note_on_c, 0, 72, 100
2, 4592760, Note_on_c, 0, 72, 0
2, 4592760, Note_on_c, 0, 74, 100
2, 4592880, Note_on_c, 0, 74, 0
2, 4592880, Note_on_c, 0, 72, 100
2, 4593000, Note_on_c, 0, 72, 0
2, 4593000, Note_on_c, 0, 70, 100
2, 4593120, Note_on_c, 0, 70, 0
2, 4593120, Note_on_c, 0, 69, 100
2, 4593240, Note_on_c, 0, 69, 0
2, 4593240, Note_on_c, 0, 67, 100
2, 4593360, Note_on_c, 0, 67, 0
2, 4593360, Note_on_c, 0, 74, 100
2, 4593600, Note_on_c, 0, 74, 0
2, 4593600, Note_on_c, 0, 67, 100
2, 4593840, Note_on_c, 0, 67, 0
2, 4593840, Note_on_c, 0, 72, 100
2, 4594080, Note_on_c, 0, 72, 0
2, 4594080, Note_on_c, 0, 66, 100
2, 4594440, Note_on_c, 0, 66, 0
2, 4594440, Note_on_c, 0, 67, 100
2, 4594560, Note_on_c, 0, 67, 0
2, 4594560, Note_on_c, 0, 69, 100
2, 4594680, Note_on_c, 0, 69, 0
2, 4594680, Note_on_c, 0, 70, 100
2, 4594800, Note_on_c, 0, 70, 0
2, 4594800, Note_on_c, 0, 69, 100
2, 4594920, Note_on_c, 0, 69, 0
2, 4594920, Note_on_c, 0, 67, 100
2, 4595040, Note_on_c, 0, 67, 0
2, 4595040, Note_on_c, 0, 66, 100
2, 4595160, Note_on_c, 0, 66, 0
2, 4595160, Note_on_c, 0, 67, 100
2, 4596000, Note_on_c, 0, 67, 0
2, 4596000, Note_on_c, 0, 68, 100
2, 4596240, Note_on_c, 0, 68, 0
2, 4596240, Note_on_c, 0, 67, 100
2, 4596480, Note_on_c, 0, 67, 0
2, 4596480, Note_on_c, 0, 68, 100
2, 4596720, Note_on_c, 0, 68, 0
2, 4596720, Note_on_c, 0, 69, 100
2, 4596960, Note_on_c, 0, 69, 0
2, 4596960, Note_on_c, 0, 70, 100
2, 4597200, Note_on_c, 0, 70, 0
2, 4597200, Note_on_c, 0, 72, 100
2, 4597320, Note_on_c, 0, 72, 0
2, 4597320, Note_on_c, 0, 74, 100
2, 4597440, Note_on_c, 0, 74, 0
2, 4597440, Note_on_c, 0, 72, 100
2, 4597560, Note_on_c, 0, 72, 0
2, 4597560, Note_on_c, 0, 70, 100
2, 4597680, Note_on_c, 0, 70, 0
2, 4597680, Note_on_c, 0, 69, 100
2, 4597800, Note_on_c, 0, 69, 0
2, 4597800, Note_on_c, 0, 67, 100
2, 4597920, Note_on_c, 0, 67, 0
2, 4597920, Note_on_c, 0, 66, 100
2, 4598040, Note_on_c, 0, 66, 0
2, 4598040, Note_on_c, 0, 75, 100
2, 4598160, Note_on_c, 0, 75, 0
2, 4598160, Note_on_c, 0, 72, 100
2, 4599240, Note_on_c, 0, 72, 0
2, 4599240, Note_on_c, 0, 70, 100
2, 4599360, Note_on_c, 0, 70, 0
2, 4599360, Note_on_c, 0, 69, 100
2, 4599480, Note_on_c, 0, 69, 0
2, 4599480, Note_on_c, 0, 70, 100
2, 4599600, Note_on_c, 0, 70, 0
2, 4599600, Note_on_c, 0, 72, 100
2, 4599720, Note_on_c, 0, 72, 0
2, 4599720, Note_on_c, 0, 74, 100
2, 4599840, Note_on_c, 0, 74, 0
2, 4599840, Note_on_c, 0, 76, 100
2, 4599960, Note_on_c, 0, 76, 0
2, 4599960, Note_on_c, 0, 77, 100
2, 4600080, Note_on_c, 0, 77, 0
2, 4600080, Note_on_c, 0, 76, 100
2, 4600320, Note_on_c, 0, 76, 0
2, 4600320, Note_on_c, 0, 77, 100
2, 4600560, Note_on_c, 0, 77, 0
2, 4600560, Note_on_c, 0, 79, 100
2, 4600680, Note_on_c, 0, 79, 0
2, 4600680, Note_on_c, 0, 81, 100
2, 4600800, Note_on_c, 0, 81, 0
2, 4600800, Note_on_c, 0, 79, 100
2, 4601160, Note_on_c, 0, 79, 0
2, 4601160, Note_on_c, 0, 77, 100
2, 4601280, Note_on_c, 0, 77, 0
2, 4601280, Note_on_c, 0, 81, 100
2, 4601400, Note_on_c, 0, 81, 0
2, 4601400, Note_on_c, 0, 79, 100
2, 4601520, Note_on_c, 0, 79, 0
2, 4601520, Note_on_c, 0, 77, 100
2, 4601640, Note_on_c, 0, 77, 0
2, 4601640, Note_on_c, 0, 76, 100
2, 4601760, Note_on_c, 0, 76, 0
2, 4601760, Note_on_c, 0, 74, 100
2, 4602000, Note_on_c, 0, 74, 0
2, 4602000, Note_on_c, 0, 73, 100
2, 4602060, Note_on_c, 0, 73, 0
2, 4602060, Note_on_c, 0, 71, 100
2, 4602120, Note_on_c, 0, 71, 0
2, 4602120, Note_on_c, 0, 73, 100
2, 4602180, Note_on_c, 0, 73, 0
2, 4602180, Note_on_c, 0, 74, 100
2, 4602240, Note_on_c, 0, 74, 0
2, 4602240, Note_on_c, 0, 73, 100
2, 4602270, Note_on_c, 0, 73, 0
2, 4602270, Note_on_c, 0, 74, 100
2, 4602300, Note_on_c, 0, 74, 0
2, 4602300, Note_on_c, 0, 73, 100
2, 4602330, Note_on_c, 0, 73, 0
2, 4602330, Note_on_c, 0, 71, 100
2, 4602360, Note_on_c, 0, 71, 0
2, 4602360, Note_on_c, 0, 73, 100
2, 4602480, Note_on_c, 0, 73, 0
2, 4602480, Note_on_c, 0, 74, 100
2, 4602600, Note_on_c, 0, 74, 0
2, 4602600, Note_on_c, 0, 76, 100
2, 4602720, Note_on_c, 0, 76, 0
2, 4602720, Note_on_c, 0, 74, 100
2, 4603680, Note_on_c, 0, 74, 0
2, 4603680, Note_on_c, 0, 75, 100
2, 4603920, Note_on_c, 0, 75, 0
2, 4603920, Note_on_c, 0, 74, 100
2, 4604160, Note_on_c, 0, 74, 0
2, 4604160, Note_on_c, 0, 75, 100
2, 4604400, Note_on_c, 0, 75, 0
2, 4604400, Note_on_c, 0, 76, 100
2, 4604640, Note_on_c, 0, 76, 0
2, 4604640, Note_on_c, 0, 77, 100
2, 4604880, Note_on_c, 0, 77, 0
2, 4604880, Note_on_c, 0, 79, 100
2, 4605120, Note_on_c, 0, 79, 0
2, 4605120, Note_on_c, 0, 81, 100
2, 4605360, Note_on_c, 0, 81, 0
2, 4605360, Note_on_c, 0, 79, 100
2, 4605600, Note_on_c, 0, 79, 0
2, 4605600, Note_on_c, 0, 78, 100
2, 4606080, Note_on_c, 0, 78, 0
2, 4606080, Note_on_c, 0, 76, 100
2, 4606200, Note_on_c, 0, 76, 0
2, 4606200, Note_on_c, 0, 74, 100
2, 4606320, Note_on_c, 0, 74, 0
2, 4606320, Note_on_c, 0, 73, 100
2, 4606440, Note_on_c, 0, 73, 0
2, 4606440, Note_on_c, 0, 74, 100
2, 4606560, Note_on_c, 0, 74, 0
2, 4606560, Note_on_c, 0, 69, 100
2, 4607880, Note_on_c, 0, 69, 0
2, 4607880, Note_on_c, 0, 70, 100
2, 4608000, Note_on_c, 0, 70, 0
2, 4608000, Note_on_c, 0, 72, 100
2, 4608120, Note_on_c, 0, 72, 0
2, 4608120, Note_on_c, 0, 74, 100
2, 4608240, Note_on_c, 0, 74, 0
2, 4608240, Note_on_c, 0, 72, 100
2, 4608360, Note_on_c, 0, 72, 0
2, 4608360, Note_on_c, 0, 70, 100
2, 4608480, Note_on_c, 0, 70, 0
2, 4608480, Note_on_c, 0, 69, 100
2, 4608600, Note_on_c, 0, 69, 0
2, 4608600, Note_on_c, 0, 67, 100
2, 4608720, Note_on_c, 0, 67, 0
2, 4608720, Note_on_c, 0, 74, 100
2, 4608960, Note_on_c, 0, 74, 0
2, 4608960, Note_on_c, 0, 67, 100
2, 4609200, Note_on_c, 0, 67, 0
2, 4609200, Note_on_c, 0, 72, 100
2, 4609440, Note_on_c, 0, 72, 0
2, 4609440, Note_on_c, 0, 66, 100
2, 4609800, Note_on_c, 0, 66, 0
2, 4609800, Note_on_c, 0, 67, 100
2, 4609920, Note_on_c, 0, 67, 0
2, 4609920, Note_on_c, 0, 69, 100
2, 4610040, Note_on_c, 0, 69, 0
2, 4610040, Note_on_c, 0, 70, 100
2, 4610160, Note_on_c, 0, 70, 0
2, 4610160, Note_on_c, 0, 69, 100
2, 4610280, Note_on_c, 0, 69, 0
2, 4610280, Note_on_c, 0, 67, 100
2, 4610400, Note_on_c, 0, 67, 0
2, 4610400, Note_on_c, 0, 66, 100
2, 4610520, Note_on_c, 0, 66, 0
2, 4610520, Note_on_c, 0, 67, 100
2, 4611360, Note_on_c, 0, 67, 0
2, 4611360, Note_on_c, 0, 68, 100
2, 4611600, Note_on_c, 0, 68, 0
2, 4611600, Note_on_c, 0, 67, 100
2, 4611840, Note_on_c, 0, 67, 0
2, 4611840, Note_on_c, 0, 68, 100
2, 4612080, Note_on_c, 0, 68, 0
2, 4612080, Note_on_c, 0, 69, 100
2, 4612320, Note_on_c, 0, 69, 0
2, 4612320, Note_on_c, 0, 70, 100
2, 4612560, Note_on_c, 0, 70, 0
2, 4612560, Note_on_c, 0, 72, 100
2, 4612680, Note_on_c, 0, 72, 0
2, 4612680, Note_on_c, 0, 74, 100
2, 4612800, Note_on_c, 0, 74, 0
2, 4612800, Note_on_c, 0, 72, 100
2, 4612920, Note_on_c, 0, 72, 0
2, 4612920, Note_on_c, 0, 70, 100
2, 4613040, Note_on_c, 0, 70, 0
2, 4613040, Note_on_c, 0, 69, 100
2, 4613160, Note_on_c, 0, 69, 0
2, 4613160, Note_on_c, 0, 67, 100
2, 4613280, Note_on_c, 0, 67, 0
2, 4613280, Note_on_c, 0, 66, 100
2, 4613400, Note_on_c, 0, 66, 0
2, 4613400, Note_on_c, 0, 75, 100
2, 4613520, Note_on_c, 0, 75, 0
2, 4613520, Note_on_c, 0, 72, 100
2, 4614600, Note_on_c, 0, 72, 0
2, 4614600, Note_on_c, 0, 70, 100
2, 4614720, Note_on_c, 0, 70, 0
2, 4614720, Note_on_c, 0, 69, 100
2, 4614840, Note_on_c, 0, 69, 0
2, 4614840, Note_on_c, 0, 70, 100
2, 4614960, Note_on_c, 0, 70, 0
2, 4614960, Note_on_c, 0, 72, 100
2, 4615080, Note_on_c, 0, 72, 0
2, 4615080, Note_on_c, 0, 74, 100
2, 4615200, Note_on_c, 0, 74, 0
2, 4615200, Note_on_c, 0, 76, 100
2, 4615320, Note_on_c, 0, 76, 0
2, 4615320, Note_on_c, 0, 77, 100
2, 4615440, Note_on_c, 0, 77, 0
2, 4615440, Note_on_c, 0, 76, 100
2, 4615680, Note_on_c, 0, 76, 0
2, 4615680, Note_on_c, 0, 77, 100
2, 4615920, Note_on_c, 0, 77, 0
2, 4615920, Note_on_c, 0, 79, 100
2, 4616040, Note_on_c, 0, 79, 0
2, 4616040, Note_on_c, 0, 81, 100
2, 4616160, Note_on_c, 0, 81, 0
2, 4616160, Note_on_c, 0, 79, 100
2, 4616520, Note_on_c, 0, 79, 0
2, 4616520, Note_on_c, 0, 77, 100
2, 4616640, Note_on_c, 0, 77, 0
2, 4616640, Note_on_c, 0, 81, 100
2, 4616760, Note_on_c, 0, 81, 0
2, 4616760, Note_on_c, 0, 79, 100
2, 4616880, Note_on_c, 0, 79, 0
2, 4616880, Note_on_c, 0, 77, 100
2, 4617000, Note_on_c, 0, 77, 0
2, 4617000, Note_on_c, 0, 76, 100
2, 4617120, Note_on_c, 0, 76, 0
2, 4617120, Note_on_c, 0, 74, 100
2, 4617360, Note_on_c, 0, 74, 0
2, 4617360, Note_on_c, 0, 73, 100
2, 4617420, Note_on_c, 0, 73, 0
2, 4617420, Note_on_c, 0, 71, 100
2, 4617480, Note_on_c, 0, 71, 0
2, 4617480, Note_on_c, 0, 73, 100
2, 4617540, Note_on_c, 0, 73, 0
2, 4617540, Note_on_c, 0, 74, 100
2, 4617600, Note_on_c, 0, 74, 0
2, 4617600, Note_on_c, 0, 73, 100
2, 4617630, Note_on_c, 0, 73, 0
2, 4617630, Note_on_c, 0, 74, 100
2, 4617660, Note_on_c, 0, 74, 0
2, 4617660, Note_on_c, 0, 73, 100
2, 4617690, Note_on_c, 0, 73, 0
2, 4617690, Note_on_c, 0, 71, 100
2, 4617720, Note_on_c, 0, 71, 0
2, 4617720, Note_on_c, 0, 73, 100
2, 4617840, Note_on_c, 0, 73, 0
2, 4617840, Note_on_c, 0, 74, 100
2, 4617960, Note_on_c, 0, 74, 0
2, 4617960, Note_on_c, 0, 76, 100
2, 4618080, Note_on_c, 0, 76, 0
2, 4618080, Note_on_c, 0, 74, 100
2, 4619040, Note_on_c, 0, 74, 0
2, 4619040, Note_on_c, 0, 75, 100
2, 4619280, Note_on_c, 0, 75, 0
2, 4619280, Note_on_c, 0, 74, 100
2, 4619520, Note_on_c, 0, 74, 0
2, 4619520, Note_on_c, 0, 75, 100
2, 4619760, Note_on_c, 0, 75, 0
2, 4619760, Note_on_c, 0, 76, 100
2, 4620000, Note_on_c, 0, 76, 0
2, 4620000, Note_on_c, 0, 77, 100
2, 4620240, Note_on_c, 0, 77, 0
2, 4620240, Note_on_c, 0, 79, 100
2, 4620480, Note_on_c, 0, 79, 0
2, 4620480, Note_on_c, 0, 81, 100
2, 4620720, Note_on_c, 0, 81, 0
2, 4620720, Note_on_c, 0, 79, 100
2, 4620960, Note_on_c, 0, 79, 0
2, 4620960, Note_on_c, 0, 78, 100
2, 4621440, Note_on_c, 0, 78, 0
2, 4621440, Note_on_c, 0, 76, 100
2, 4621560, Note_on_c, 0, 76, 0
2, 4621560, Note_on_c, 0, 74, 100
2, 4621680, Note_on_c, 0, 74, 0
2, 4621680, Note_on_c, 0, 73, 100
2, 4621800, Note_on_c, 0, 73, 0
2, 4621800, Note_on_c, 0, 74, 100
2, 4621920, Note_on_c, 0, 74, 0
2, 4621920, Note_on_c, 0, 80, 100
2, 4623240, Note_on_c, 0, 80, 0
2, 4623240, Note_on_c, 0, 79, 100
2, 4623360, Note_on_c, 0, 79, 0
2, 4623360, Note_on_c, 0, 77, 100
2, 4623480, Note_on_c, 0, 77, 0
2, 4623480, Note_on_c, 0, 76, 100
2, 4623600, Note_on_c, 0, 76, 0
2, 4623600, Note_on_c, 0, 77, 100
2, 4623720, Note_on_c, 0, 77, 0
2, 4623720, Note_on_c, 0, 79, 100
2, 4623840, Note_on_c, 0, 79, 0
2, 4623840, Note_on_c, 0, 76, 100
2, 4623960, Note_on_c, 0, 76, 0
2, 4623960, Note_on_c, 0, 72, 100
2, 4624080, Note_on_c, 0, 72, 0
2, 4624080, Note_on_c, 0, 74, 100
2, 4624320, Note_on_c, 0, 74, 0
2, 4624320, Note_on_c, 0, 75, 100
2, 4624440, Note_on_c, 0, 75, 0
2, 4624440, Note_on_c, 0, 77, 100
2, 4624560, Note_on_c, 0, 77, 0
2, 4624560, Note_on_c, 0, 70, 100
2, 4624800, Note_on_c, 0, 70, 0
2, 4624800, Note_on_c, 0, 77, 100
2, 4625160, Note_on_c, 0, 77, 0
2, 4625160, Note_on_c, 0, 75, 100
2, 4625280, Note_on_c, 0, 75, 0
2, 4625280, Note_on_c, 0, 74, 100
2, 4625400, Note_on_c, 0, 74, 0
2, 4625400, Note_on_c, 0, 72, 100
2, 4625520, Note_on_c, 0, 72, 0
2, 4625520, Note_on_c, 0, 75, 100
2, 4625640, Note_on_c, 0, 75, 0
2, 4625640, Note_on_c, 0, 74, 100
2, 4625760, Note_on_c, 0, 74, 0
2, 4625760, Note_on_c, 0, 77, 100
2, 4625880, Note_on_c, 0, 77, 0
2, 4625880, Note_on_c, 0, 75, 100
2, 4626000, Note_on_c, 0, 75, 0
2, 4626000, Note_on_c, 0, 77, 100
2, 4626240, Note_on_c, 0, 77, 0
2, 4626240, Note_on_c, 0, 79, 100
2, 4626480, Note_on_c, 0, 79, 0
2, 4626480, Note_on_c, 0, 77, 100
2, 4627080, Note_on_c, 0, 77, 0
2, 4627080, Note_on_c, 0, 79, 100
2, 4627200, Note_on_c, 0, 79, 0
2, 4627200, Note_on_c, 0, 80, 100
2, 4627320, Note_on_c, 0, 80, 0
2, 4627320, Note_on_c, 0, 74, 100
2, 4627440, Note_on_c, 0, 74, 0
2, 4627440, Note_on_c, 0, 72, 100
2, 4627560, Note_on_c, 0, 72, 0
2, 4627560, Note_on_c, 0, 74, 100
2, 4627680, Note_on_c, 0, 74, 0
2, 4627680, Note_on_c, 0, 77, 100
2, 4627800, Note_on_c, 0, 77, 0
2, 4627800, Note_on_c, 0, 70, 100
2, 4627920, Note_on_c, 0, 70, 0
2, 4627920, Note_on_c, 0, 72, 100
2, 4628040, Note_on_c, 0, 72, 0
2, 4628040, Note_on_c, 0, 74, 100
2, 4628160, Note_on_c, 0, 74, 0
2, 4628160, Note_on_c, 0, 70, 100
2, 4628280, Note_on_c, 0, 70, 0
2, 4628280, Note_on_c, 0, 75, 100
2, 4628400, Note_on_c, 0, 75, 0
2, 4628400, Note_on_c, 0, 68, 100
2, 4628640, Note_on_c, 0, 68, 0
2, 4628640, Note_on_c, 0, 67, 100
2, 4629120, Note_on_c, 0, 67, 0
2, 4629120, Note_on_c, 0, 65, 100
2, 4629240, Note_on_c, 0, 65, 0
2, 4629240, Note_on_c, 0, 67, 100
2, 4629360, Note_on_c, 0, 67, 0
2, 4629360, Note_on_c, 0, 75, 100
2, 4629600, Note_on_c, 0, 75, 0
2, 4629600, Note_on_c, 0, 74, 100
2, 4630080, Note_on_c, 0, 74, 0
2, 4630080, Note_on_c, 0, 72, 100
2, 4630200, Note_on_c, 0, 72, 0
2, 4630200, Note_on_c, 0, 74, 100
2, 4630320, Note_on_c, 0, 74, 0
2, 4630320, Note_on_c, 0, 64, 100
2, 4630920, Note_on_c, 0, 64, 0
2, 4630920, Note_on_c, 0, 65, 100
2, 4631040, Note_on_c, 0, 65, 0
2, 4631040, Note_on_c, 0, 67, 100
2, 4631160, Note_on_c, 0, 67, 0
2, 4631160, Note_on_c, 0, 65, 100
2, 4631280, Note_on_c, 0, 65, 0
2, 4631280, Note_on_c, 0, 64, 100
2, 4631400, Note_on_c, 0, 64, 0
2, 4631400, Note_on_c, 0, 62, 100
2, 4631520, Note_on_c, 0, 62, 0
2, 4631520, Note_on_c, 0, 60, 100
2, 4631640, Note_on_c, 0, 60, 0
2, 4631640, Note_on_c, 0, 72, 100
2, 4631760, Note_on_c, 0, 72, 0
2, 4631760, Note_on_c, 0, 70, 100
2, 4631880, Note_on_c, 0, 70, 0
2, 4631880, Note_on_c, 0, 72, 100
2, 4632000, Note_on_c, 0, 72, 0
2, 4632000, Note_on_c, 0, 66, 100
2, 4632240, Note_on_c, 0, 66, 0
2, 4632240, Note_on_c, 0, 74, 100
2, 4632960, Note_on_c, 0, 74, 0
2, 4632960, Note_on_c, 0, 72, 100
2, 4633080, Note_on_c, 0, 72, 0
2, 4633080, Note_on_c, 0, 70, 100
2, 4633200, Note_on_c, 0, 70, 0
2, 4633200, Note_on_c, 0, 69, 100
2, 4633320, Note_on_c, 0, 69, 0
2, 4633320, Note_on_c, 0, 67, 100
2, 4633440, Note_on_c, 0, 67, 0
2, 4633440, Note_on_c, 0, 65, 100
2, 4633560, Note_on_c, 0, 65, 0
2, 4633560, Note_on_c, 0, 63, 100
2, 4633680, Note_on_c, 0, 63, 0
2, 4633680, Note_on_c, 0, 72, 100
2, 4634400, Note_on_c, 0, 72, 0
2, 4634400, Note_on_c, 0, 70, 100
2, 4634880, Note_on_c, 0, 70, 0
2, 4634880, Note_on_c, 0, 69, 100
2, 4635120, Note_on_c, 0, 69, 0
2, 4635120, Note_on_c, 0, 70, 100
2, 4635360, Note_on_c, 0, 70, 0
2, 4635360, Note_on_c, 0, 72, 100
2, 4635480, Note_on_c, 0, 72, 0
2, 4635480, Note_on_c, 0, 74, 100
2, 4635600, Note_on_c, 0, 74, 0
2, 4635600, Note_on_c, 0, 65, 100
2, 4635840, Note_on_c, 0, 65, 0
2, 4635840, Note_on_c, 0, 63, 100
2, 4636080, Note_on_c, 0, 63, 0
2, 4636080, Note_on_c, 0, 72, 100
2, 4636320, Note_on_c, 0, 72, 0
2, 4636320, Note_on_c, 0, 70, 100
2, 4636680, Note_on_c, 0, 70, 0
2, 4636680, Note_on_c, 0, 69, 100
2, 4636740, Note_on_c, 0, 69, 0
2, 4636740, Note_on_c, 0, 67, 100
2, 4636800, Note_on_c, 0, 67, 0
2, 4636800, Note_on_c, 0, 69, 100
2, 4636860, Note_on_c, 0, 69, 0
2, 4636860, Note_on_c, 0, 66, 100
2, 4636920, Note_on_c, 0, 66, 0
2, 4636920, Note_on_c, 0, 67, 100
2, 4637040, Note_on_c, 0, 67, 0
2, 4637040, Note_on_c, 0, 80, 100
2, 4638600, Note_on_c, 0, 80, 0
2, 4638600, Note_on_c, 0, 79, 100
2, 4638720, Note_on_c, 0, 79, 0
2, 4638720, Note_on_c, 0, 77, 100
2, 4638840, Note_on_c, 0, 77, 0
2, 4638840, Note_on_c, 0, 76, 100
2, 4638960, Note_on_c, 0, 76, 0
2, 4638960, Note_on_c, 0, 77, 100
2, 4639080, Note_on_c, 0, 77, 0
2, 4639080, Note_on_c, 0, 79, 100
2, 4639200, Note_on_c, 0, 79, 0
2, 4639200, Note_on_c, 0, 76, 100
2, 4639320, Note_on_c, 0, 76, 0
2, 4639320, Note_on_c, 0, 72, 100
2, 4639440, Note_on_c, 0, 72, 0
2, 4639440, Note_on_c, 0, 74, 100
2, 4639680, Note_on_c, 0, 74, 0
2, 4639680, Note_on_c, 0, 75, 100
2, 4639800, Note_on_c, 0, 75, 0
2, 4639800, Note_on_c, 0, 77, 100
2, 4639920, Note_on_c, 0, 77, 0
2, 4639920, Note_on_c, 0, 70, 100
2, 4640160, Note_on_c, 0, 70, 0
2, 4640160, Note_on_c, 0, 77, 100
2, 4640520, Note_on_c, 0, 77, 0
2, 4640520, Note_on_c, 0, 75, 100
2, 4640640, Note_on_c, 0, 75, 0
2, 4640640, Note_on_c, 0, 74, 100
2, 4640760, Note_on_c, 0, 74, 0
2, 4640760, Note_on_c, 0, 72, 100
2, 4640880, Note_on_c, 0, 72, 0
2, 4640880, Note_on_c, 0, 75, 100
2, 4641000, Note_on_c, 0, 75, 0
2, 4641000, Note_on_c, 0, 74, 100
2, 4641120, Note_on_c, 0, 74, 0
2, 4641120, Note_on_c, 0, 77, 100
2, 4641240, Note_on_c, 0, 77, 0
2, 4641240, Note_on_c, 0, 75, 100
2, 4641360, Note_on_c, 0, 75, 0
2, 4641360, Note_on_c, 0, 77, 100
2, 4641600, Note_on_c, 0, 77, 0
2, 4641600, Note_on_c, 0, 79, 100
2, 4641840, Note_on_c, 0, 79, 0
2, 4641840, Note_on_c, 0, 77, 100
2, 4642440, Note_on_c, 0, 77, 0
2, 4642440, Note_on_c, 0, 79, 100
2, 4642560, Note_on_c, 0, 79, 0
2, 4642560, Note_on_c, 0, 80, 100
2, 4642680, Note_on_c, 0, 80, 0
2, 4642680, Note_on_c, 0, 74, 100
2, 4642800, Note_on_c, 0, 74, 0
2, 4642800, Note_on_c, 0, 72, 100
2, 4642920, Note_on_c, 0, 72, 0
2, 4642920, Note_on_c, 0, 74, 100
2, 4643040, Note_on_c, 0, 74, 0
2, 4643040, Note_on_c, 0, 77, 100
2, 4643160, Note_on_c, 0, 77, 0
2, 4643160, Note_on_c, 0, 70, 100
2, 4643280, Note_on_c, 0, 70, 0
2, 4643280, Note_on_c, 0, 72, 100
2, 4643400, Note_on_c, 0, 72, 0
2, 4643400, Note_on_c, 0, 74, 100
2, 4643520, Note_on_c, 0, 74, 0
2, 4643520, Note_on_c, 0, 70, 100
2, 4643640, Note_on_c, 0, 70, 0
2, 4643640, Note_on_c, 0, 75, 100
2, 4643760, Note_on_c, 0, 75, 0
2, 4643760, Note_on_c, 0, 68, 100
2, 4644000, Note_on_c, 0, 68, 0
2, 4644000, Note_on_c, 0, 67, 100
2, 4644480, Note_on_c, 0, 67, 0
2, 4644480, Note_on_c, 0, 65, 100
2, 4644600, Note_on_c, 0, 65, 0
2, 4644600, Note_on_c, 0, 67, 100
2, 4644720, Note_on_c, 0, 67, 0
2, 4644720, Note_on_c, 0, 75, 100
2, 4644960, Note_on_c, 0, 75, 0
2, 4644960, Note_on_c, 0, 74, 100
2, 4645440, Note_on_c, 0, 74, 0
2, 4645440, Note_on_c, 0, 72, 100
2, 4645560, Note_on_c, 0, 72, 0
2, 4645560, Note_on_c, 0, 74, 100
2, 4645680, Note_on_c, 0, 74, 0
2, 4645680, Note_on_c, 0, 64, 100
2, 4646280, Note_on_c, 0, 64, 0
2, 4646280, Note_on_c, 0, 65, 100
2, 4646400, Note_on_c, 0, 65, 0
2, 4646400, Note_on_c, 0, 67, 100
2, 4646520, Note_on_c, 0, 67, 0
2, 4646520, Note_on_c, 0, 65, 100
2, 4646640, Note_on_c, 0, 65, 0
2, 4646640, Note_on_c, 0, 64, 100
2, 4646760, Note_on_c, 0, 64, 0
2, 4646760, Note_on_c, 0, 62, 100
2, 4646880, Note_on_c, 0, 62, 0
2, 4646880, Note_on_c, 0, 60, 100
2, 4647000, Note_on_c, 0, 60, 0
2, 4647000, Note_on_c, 0, 72, 100
2, 4647120, Note_on_c, 0, 72, 0
2, 4647120, Note_on_c, 0, 70, 100
2, 4647240, Note_on_c, 0, 70, 0
2, 4647240, Note_on_c, 0, 72, 100
2, 4647360, Note_on_c, 0, 72, 0
2, 4647360, Note_on_c, 0, 66, 100
2, 4647600, Note_on_c, 0, 66, 0
2, 4647600, Note_on_c, 0, 74, 100
2, 4648320, Note_on_c, 0, 74, 0
2, 4648320, Note_on_c, 0, 72, 100
2, 4648440, Note_on_c, 0, 72, 0
2, 4648440, Note_on_c, 0, 70, 100
2, 4648560, Note_on_c, 0, 70, 0
2, 4648560, Note_on_c, 0, 69, 100
2, 4648680, Note_on_c, 0, 69, 0
2, 4648680, Note_on_c, 0, 67, 100
2, 4648800, Note_on_c, 0, 67, 0
2, 4648800, Note_on_c, 0, 65, 100
2, 4648920, Note_on_c, 0, 65, 0
2, 4648920, Note_on_c, 0, 63, 100
2, 4649040, Note_on_c, 0, 63, 0
2, 4649040, Note_on_c, 0, 72, 100
2, 4649760, Note_on_c, 0, 72, 0
2, 4649760, Note_on_c, 0, 70, 100
2, 4650240, Note_on_c, 0, 70, 0
2, 4650240, Note_on_c, 0, 69, 100
2, 4650480, Note_on_c, 0, 69, 0
2, 4650480, Note_on_c, 0, 70, 100
2, 4650720, Note_on_c, 0, 70, 0
2, 4650720, Note_on_c, 0, 72, 100
2, 4650840, Note_on_c, 0, 72, 0
2, 4650840, Note_on_c, 0, 74, 100
2, 4650960, Note_on_c, 0, 74, 0
2, 4650960, Note_on_c, 0, 65, 100
2, 4651200, Note_on_c, 0, 65, 0
2, 4651200, Note_on_c, 0, 63, 100
2, 4651440, Note_on_c, 0, 63, 0
2, 4651440, Note_on_c, 0, 72, 100
2, 4651680, Note_on_c, 0, 72, 0
2, 4651680, Note_on_c, 0, 70, 100
2, 4652040, Note_on_c, 0, 70, 0
2, 4652040, Note_on_c, 0, 69, 100
2, 4652100, Note_on_c, 0, 69, 0
2, 4652100, Note_on_c, 0, 67, 100
2, 4652160, Note_on_c, 0, 67, 0
2, 4652160, Note_on_c, 0, 69, 100
2, 4652220, Note_on_c, 0, 69, 0
2, 4652220, Note_on_c, 0, 66, 100
2, 4652280, Note_on_c, 0, 66, 0
2, 4652280, Note_on_c, 0, 67, 100
2, 4867920, Note_on_c, 0, 67, 0
2, 4867920, Note_on_c, 0, 66, 100
2, 4868400, Note_on_c, 0, 66, 0
2, 4868400, Note_on_c, 0, 67, 100
2, 4868640, Note_on_c, 0, 67, 0
2, 4868640, Note_on_c, 0, 69, 100
2, 4869120, Note_on_c, 0, 69, 0
2, 4869120, Note_on_c, 0, 71, 100
2, 4869360, Note_on_c, 0, 71, 0
2, 4869360, Note_on_c, 0, 74, 100
2, 4869600, Note_on_c, 0, 74, 0
2, 4869600, Note_on_c, 0, 73, 100
2, 4869840, Note_on_c, 0, 73, 0
2, 4869840, Note_on_c, 0, 74, 100
2, 4870080, Note_on_c, 0, 74, 0
2, 4870080, Note_on_c, 0, 69, 100
2, 4870560, Note_on_c, 0, 69, 0
2, 4870560, Note_on_c, 0, 74, 100
2, 4870800, Note_on_c, 0, 74, 0
2, 4870800, Note_on_c, 0, 76, 100
2, 4871520, Note_on_c, 0, 76, 0
2, 4871520, Note_on_c, 0, 78, 100
2, 4871550, Note_on_c, 0, 78, 0
2, 4871550, Note_on_c, 0, 79, 100
2, 4871640, Note_on_c, 0, 79, 0
2, 4871640, Note_on_c, 0, 78, 100
2, 4871760, Note_on_c, 0, 78, 0
2, 4871760, Note_on_c, 0, 76, 100
2, 4871880, Note_on_c, 0, 76, 0
2, 4871880, Note_on_c, 0, 74, 100
2, 4872000, Note_on_c, 0, 74, 0
2, 4872000, Note_on_c, 0, 79, 100
2, 4872240, Note_on_c, 0, 79, 0
2, 4872240, Note_on_c, 0, 83, 100
2, 4872480, Note_on_c, 0, 83, 0
2, 4872480, Note_on_c, 0, 81, 100
2, 4872720, Note_on_c, 0, 81, 0
2, 4872720, Note_on_c, 0, 83, 100
2, 4872960, Note_on_c, 0, 83, 0
2, 4872960, Note_on_c, 0, 79, 100
2, 4873200, Note_on_c, 0, 79, 0
2, 4873200, Note_on_c, 0, 78, 100
2, 4873440, Note_on_c, 0, 78, 0
2, 4873440, Note_on_c, 0, 79, 100
2, 4873680, Note_on_c, 0, 79, 0
2, 4873680, Note_on_c, 0, 78, 100
2, 4874640, Note_on_c, 0, 78, 0
2, 4874640, Note_on_c, 0, 76, 100
2, 4874880, Note_on_c, 0, 76, 0
2, 4874880, Note_on_c, 0, 78, 100
2, 4875120, Note_on_c, 0, 78, 0
2, 4875120, Note_on_c, 0, 79, 100
2, 4875360, Note_on_c, 0, 79, 0
2, 4875360, Note_on_c, 0, 81, 100
2, 4875600, Note_on_c, 0, 81, 0
2, 4875600, Note_on_c, 0, 74, 100
2, 4875840, Note_on_c, 0, 74, 0
2, 4875840, Note_on_c, 0, 79, 100
2, 4876800, Note_on_c, 0, 79, 0
2, 4876800, Note_on_c, 0, 78, 100
2, 4877040, Note_on_c, 0, 78, 0
2, 4877040, Note_on_c, 0, 79, 100
2, 4877280, Note_on_c, 0, 79, 0
2, 4877280, Note_on_c, 0, 83, 100
2, 4877520, Note_on_c, 0, 83, 0
2, 4877520, Note_on_c, 0, 81, 100
2, 4877760, Note_on_c, 0, 81, 0
2, 4877760, Note_on_c, 0, 83, 100
2, 4878000, Note_on_c, 0, 83, 0
2, 4878000, Note_on_c, 0, 86, 100
2, 4878240, Note_on_c, 0, 86, 0
2, 4878240, Note_on_c, 0, 84, 100
2, 4878360, Note_on_c, 0, 84, 0
2, 4878360, Note_on_c, 0, 83, 100
2, 4878480, Note_on_c, 0, 83, 0
2, 4878480, Note_on_c, 0, 81, 100
2, 4878600, Note_on_c, 0, 81, 0
2, 4878600, Note_on_c, 0, 83, 100
2, 4878720, Note_on_c, 0, 83, 0
2, 4878720, Note_on_c, 0, 84, 100
2, 4878960, Note_on_c, 0, 84, 0
2, 4878960, Note_on_c, 0, 83, 100
2, 4879080, Note_on_c, 0, 83, 0
2, 4879080, Note_on_c, 0, 81, 100
2, 4879200, Note_on_c, 0, 81, 0
2, 4879200, Note_on_c, 0, 79, 100
2, 4879320, Note_on_c, 0, 79, 0
2, 4879320, Note_on_c, 0, 81, 100
2, 4879440, Note_on_c, 0, 81, 0
2, 4879440, Note_on_c, 0, 83, 100
2, 4879680, Note_on_c, 0, 83, 0
2, 4879680, Note_on_c, 0, 81, 100
2, 4879800, Note_on_c, 0, 81, 0
2, 4879800, Note_on_c, 0, 79, 100
2, 4879920, Note_on_c, 0, 79, 0
2, 4879920, Note_on_c, 0, 78, 100
2, 4880040, Note_on_c, 0, 78, 0
2, 4880040, Note_on_c, 0, 79, 100
2, 4880160, Note_on_c, 0, 79, 0
2, 4880160, Note_on_c, 0, 81, 100
2, 4880400, Note_on_c, 0, 81, 0
2, 4880400, Note_on_c, 0, 79, 100
2, 4880520, Note_on_c, 0, 79, 0
2, 4880520, Note_on_c, 0, 78, 100
2, 4880640, Note_on_c, 0, 78, 0
2, 4880640, Note_on_c, 0, 76, 100
2, 4880760, Note_on_c, 0, 76, 0
2, 4880760, Note_on_c, 0, 74, 100
2, 4880880, Note_on_c, 0, 74, 0
2, 4880880, Note_on_c, 0, 79, 100
2, 4881600, Note_on_c, 0, 79, 0
2, 4881600, Note_on_c, 0, 78, 100
2, 4882320, Note_on_c, 0, 78, 0
2, 4882320, Note_on_c, 0, 79, 100
2, 4883040, Note_on_c, 0, 79, 0
2, 4883040, Note_on_c, 0, 72, 100
2, 4883760, Note_on_c, 0, 72, 0
2, 4883760, Note_on_c, 0, 71, 100
2, 4884480, Note_on_c, 0, 71, 0
2, 4884480, Note_on_c, 0, 83, 100
2, 4889760, Note_on_c, 0, 83, 0
2, 4889760, Note_on_c, 0, 81, 100
2, 4890000, Note_on_c, 0, 81, 0
2, 4890000, Note_on_c, 0, 79, 100
2, 4890240, Note_on_c, 0, 79, 0
2, 4890240, Note_on_c, 0, 81, 100
2, 4890480, Note_on_c, 0, 81, 0
2, 4890480, Note_on_c, 0, 78, 100
2, 4890720, Note_on_c, 0, 78, 0
2, 4890720, Note_on_c, 0, 76, 100
2, 4890960, Note_on_c, 0, 76, 0
2, 4890960, Note_on_c, 0, 74, 100
2, 4891080, Note_on_c, 0, 74, 0
2, 4891080, Note_on_c, 0, 73, 100
2, 4891200, Note_on_c, 0, 73, 0
2, 4891200, Note_on_c, 0, 74, 100
2, 4891680, Note_on_c, 0, 74, 0
2, 4891680, Note_on_c, 0, 73, 100
2, 4891800, Note_on_c, 0, 73, 0
2, 4891800, Note_on_c, 0, 74, 100
2, 4892640, Note_on_c, 0, 74, 0
2, 4892640, Note_on_c, 0, 76, 100
2, 4892880, Note_on_c, 0, 76, 0
2, 4892880, Note_on_c, 0, 69, 100
2, 4893120, Note_on_c, 0, 69, 0
2, 4893120, Note_on_c, 0, 71, 100
2, 4893360, Note_on_c, 0, 71, 0
2, 4893360, Note_on_c, 0, 73, 100
2, 4893600, Note_on_c, 0, 73, 0
2, 4893600, Note_on_c, 0, 74, 100
2, 4893840, Note_on_c, 0, 74, 0
2, 4893840, Note_on_c, 0, 78, 100
2, 4894320, Note_on_c, 0, 78, 0
2, 4894320, Note_on_c, 0, 79, 100
2, 4894560, Note_on_c, 0, 79, 0
2, 4894560, Note_on_c, 0, 81, 100
2, 4895040, Note_on_c, 0, 81, 0
2, 4895040, Note_on_c, 0, 71, 100
2, 4895280, Note_on_c, 0, 71, 0
2, 4895280, Note_on_c, 0, 69, 100
2, 4896240, Note_on_c, 0, 69, 0
2, 4896240, Note_on_c, 0, 67, 100
2, 4896480, Note_on_c, 0, 67, 0
2, 4896480, Note_on_c, 0, 69, 100
2, 4896720, Note_on_c, 0, 69, 0
2, 4896720, Note_on_c, 0, 74, 100
2, 4898400, Note_on_c, 0, 74, 0
2, 4898400, Note_on_c, 0, 73, 100
2, 4898640, Note_on_c, 0, 73, 0
2, 4898640, Note_on_c, 0, 74, 100
2, 4898880, Note_on_c, 0, 74, 0
2, 4898880, Note_on_c, 0, 76, 100
2, 4899000, Note_on_c, 0, 76, 0
2, 4899000, Note_on_c, 0, 78, 100
2, 4899120, Note_on_c, 0, 78, 0
2, 4899120, Note_on_c, 0, 76, 100
2, 4899360, Note_on_c, 0, 76, 0
2, 4899360, Note_on_c, 0, 78, 100
2, 4899600, Note_on_c, 0, 78, 0
2, 4899600, Note_on_c, 0, 81, 100
2, 4899840, Note_on_c, 0, 81, 0
2, 4899840, Note_on_c, 0, 79, 100
2, 4899960, Note_on_c, 0, 79, 0
2, 4899960, Note_on_c, 0, 78, 100
2, 4900080, Note_on_c, 0, 78, 0
2, 4900080, Note_on_c, 0, 76, 100
2, 4900200, Note_on_c, 0, 76, 0
2, 4900200, Note_on_c, 0, 78, 100
2, 4900320, Note_on_c, 0, 78, 0
2, 4900320, Note_on_c, 0, 79, 100
2, 4900560, Note_on_c, 0, 79, 0
2, 4900560, Note_on_c, 0, 78, 100
2, 4900680, Note_on_c, 0, 78, 0
2, 4900680, Note_on_c, 0, 76, 100
2, 4900800, Note_on_c, 0, 76, 0
2, 4900800, Note_on_c, 0, 74, 100
2, 4900920, Note_on_c, 0, 74, 0
2, 4900920, Note_on_c, 0, 76, 100
2, 4901040, Note_on_c, 0, 76, 0
2, 4901040, Note_on_c, 0, 78, 100
2, 4901280, Note_on_c, 0, 78, 0
2, 4901280, Note_on_c, 0, 76, 100
2, 4901400, Note_on_c, 0, 76, 0
2, 4901400, Note_on_c, 0, 74, 100
2, 4901520, Note_on_c, 0, 74, 0
2, 4901520, Note_on_c, 0, 73, 100
2, 4901640, Note_on_c, 0, 73, 0
2, 4901640, Note_on_c, 0, 74, 100
2, 4901760, Note_on_c, 0, 74, 0
2, 4901760, Note_on_c, 0, 67, 100
2, 4902480, Note_on_c, 0, 67, 0
2, 4902480, Note_on_c, 0, 66, 100
2, 4902960, Note_on_c, 0, 66, 0
2, 4902960, Note_on_c, 0, 67, 100
2, 4903200, Note_on_c, 0, 67, 0
2, 4903200, Note_on_c, 0, 69, 100
2, 4903680, Note_on_c, 0, 69, 0
2, 4903680, Note_on_c, 0, 71, 100
2, 4903920, Note_on_c, 0, 71, 0
2, 4903920, Note_on_c, 0, 74, 100
2, 4904160, Note_on_c, 0, 74, 0
2, 4904160, Note_on_c, 0, 73, 100
2, 4904400, Note_on_c, 0, 73, 0
2, 4904400, Note_on_c, 0, 74, 100
2, 4904640, Note_on_c, 0, 74, 0
2, 4904640, Note_on_c, 0, 69, 100
2, 4905120, Note_on_c, 0, 69, 0
2, 4905120, Note_on_c, 0, 74, 100
2, 4905360, Note_on_c, 0, 74, 0
2, 4905360, Note_on_c, 0, 76, 100
2, 4906080, Note_on_c, 0, 76, 0
2, 4906080, Note_on_c, 0, 78, 100
2, 4906110, Note_on_c, 0, 78, 0
2, 4906110, Note_on_c, 0, 79, 100
2, 4906200, Note_on_c, 0, 79, 0
2, 4906200, Note_on_c, 0, 78, 100
2, 4906320, Note_on_c, 0, 78, 0
2, 4906320, Note_on_c, 0, 76, 100
2, 4906440, Note_on_c, 0, 76, 0
2, 4906440, Note_on_c, 0, 74, 100
2, 4906560, Note_on_c, 0, 74, 0
2, 4906560, Note_on_c, 0, 79, 100
2, 4906800, Note_on_c, 0, 79, 0
2, 4906800, Note_on_c, 0, 83, 100
2, 4907040, Note_on_c, 0, 83, 0
2, 4907040, Note_on_c, 0, 81, 100
2, 4907280, Note_on_c, 0, 81, 0
2, 4907280, Note_on_c, 0, 83, 100
2, 4907520, Note_on_c, 0, 83, 0
2, 4907520, Note_on_c, 0, 79, 100
2, 4907760, Note_on_c, 0, 79, 0
2, 4907760, Note_on_c, 0, 78, 100
2, 4908000, Note_on_c, 0, 78, 0
2, 4908000, Note_on_c, 0, 79, 100
2, 4908240, Note_on_c, 0, 79, 0
2, 4908240, Note_on_c, 0, 78, 100
2, 4909200, Note_on_c, 0, 78, 0
2, 4909200, Note_on_c, 0, 76, 100
2, 4909440, Note_on_c, 0, 76, 0
2, 4909440, Note_on_c, 0, 78, 100
2, 4909680, Note_on_c, 0, 78, 0
2, 4909680, Note_on_c, 0, 79, 100
2, 4909920, Note_on_c, 0, 79, 0
2, 4909920, Note_on_c, 0, 81, 100
2, 4910160, Note_on_c, 0, 81, 0
2, 4910160, Note_on_c, 0, 74, 100
2, 4910400, Note_on_c, 0, 74, 0
2, 4910400, Note_on_c, 0, 79, 100
2, 4911360, Note_on_c, 0, 79, 0
2, 4911360, Note_on_c, 0, 78, 100
2, 4911600, Note_on_c, 0, 78, 0
2, 4911600, Note_on_c, 0, 79, 100
2, 4911840, Note_on_c, 0, 79, 0
2, 4911840, Note_on_c, 0, 83, 100
2, 4912080, Note_on_c, 0, 83, 0
2, 4912080, Note_on_c, 0, 81, 100
2, 4912320, Note_on_c, 0, 81, 0
2, 4912320, Note_on_c, 0, 83, 100
2, 4912560, Note_on_c, 0, 83, 0
2, 4912560, Note_on_c, 0, 86, 100
2, 4912800, Note_on_c, 0, 86, 0
2, 4912800, Note_on_c, 0, 84, 100
2, 4912920, Note_on_c, 0, 84, 0
2, 4912920, Note_on_c, 0, 83, 100
2, 4913040, Note_on_c, 0, 83, 0
2, 4913040, Note_on_c, 0, 81, 100
2, 4913160, Note_on_c, 0, 81, 0
2, 4913160, Note_on_c, 0, 83, 100
2, 4913280, Note_on_c, 0, 83, 0
2, 4913280, Note_on_c, 0, 84, 100
2, 4913520, Note_on_c, 0, 84, 0
2, 4913520, Note_on_c, 0, 83, 100
2, 4913640, Note_on_c, 0, 83, 0
2, 4913640, Note_on_c, 0, 81, 100
2, 4913760, Note_on_c, 0, 81, 0
2, 4913760, Note_on_c, 0, 79, 100
2, 4913880, Note_on_c, 0, 79, 0
2, 4913880, Note_on_c, 0, 81, 100
2, 4914000, Note_on_c, 0, 81, 0
2, 4914000, Note_on_c, 0, 83, 100
2, 4914240, Note_on_c, 0, 83, 0
2, 4914240, Note_on_c, 0, 81, 100
2, 4914360, Note_on_c, 0, 81, 0
2, 4914360, Note_on_c, 0, 79, 100
2, 4914480, Note_on_c, 0, 79, 0
2, 4914480, Note_on_c, 0, 78, 100
2, 4914600, Note_on_c, 0, 78, 0
2, 4914600, Note_on_c, 0, 79, 100
2, 4914720, Note_on_c, 0, 79, 0
2, 4914720, Note_on_c, 0, 81, 100
2, 4914960, Note_on_c, 0, 81, 0
2, 4914960, Note_on_c, 0, 79, 100
2, 4915080, Note_on_c, 0, 79, 0
2, 4915080, Note_on_c, 0, 78, 100
2, 4915200, Note_on_c, 0, 78, 0
2, 4915200, Note_on_c, 0, 76, 100
2, 4915320, Note_on_c, 0, 76, 0
2, 4915320, Note_on_c, 0, 74, 100
2, 4915440, Note_on_c, 0, 74, 0
2, 4915440, Note_on_c, 0, 79, 100
2, 4916160, Note_on_c, 0, 79, 0
2, 4916160, Note_on_c, 0, 78, 100
2, 4916880, Note_on_c, 0, 78, 0
2, 4916880, Note_on_c, 0, 79, 100
2, 4917600, Note_on_c, 0, 79, 0
2, 4917600, Note_on_c, 0, 72, 100
2, 4918320, Note_on_c, 0, 72, 0
2, 4918320, Note_on_c, 0, 71, 100
2, 4919040, Note_on_c, 0, 71, 0
2, 4919040, Note_on_c, 0, 83, 100
2, 4924320, Note_on_c, 0, 83, 0
2, 4924320, Note_on_c, 0, 81, 100
2, 4924560, Note_on_c, 0, 81, 0
2, 4924560, Note_on_c, 0, 79, 100
2, 4924800, Note_on_c, 0, 79, 0
2, 4924800, Note_on_c, 0, 81, 100
2, 4925040, Note_on_c, 0, 81, 0
2, 4925040, Note_on_c, 0, 78, 100
2, 4925280, Note_on_c, 0, 78, 0
2, 4925280, Note_on_c, 0, 76, 100
2, 4925520, Note_on_c, 0, 76, 0
2, 4925520, Note_on_c, 0, 74, 100
2, 4925640, Note_on_c, 0, 74, 0
2, 4925640, Note_on_c, 0, 73, 100
2, 4925760, Note_on_c, 0, 73, 0
2, 4925760, Note_on_c, 0, 74, 100
2, 4926240, Note_on_c, 0, 74, 0
2, 4926240, Note_on_c, 0, 73, 100
2, 4926360, Note_on_c, 0, 73, 0
2, 4926360, Note_on_c, 0, 74, 100
2, 4927200, Note_on_c, 0, 74, 0
2, 4927200, Note_on_c, 0, 76, 100
2, 4927440, Note_on_c, 0, 76, 0
2, 4927440, Note_on_c, 0, 69, 100
2, 4927680, Note_on_c, 0, 69, 0
2, 4927680, Note_on_c, 0, 71, 100
2, 4927920, Note_on_c, 0, 71, 0
2, 4927920, Note_on_c, 0, 73, 100
2, 4928160, Note_on_c, 0, 73, 0
2, 4928160, Note_on_c, 0, 74, 100
2, 4928400, Note_on_c, 0, 74, 0
2, 4928400, Note_on_c, 0, 78, 100
2, 4928880, Note_on_c, 0, 78, 0
2, 4928880, Note_on_c, 0, 79, 100
2, 4929120, Note_on_c, 0, 79, 0
2, 4929120, Note_on_c, 0, 81, 100
2, 4929600, Note_on_c, 0, 81, 0
2, 4929600, Note_on_c, 0, 71, 100
2, 4929840, Note_on_c, 0, 71, 0
2, 4929840, Note_on_c, 0, 69, 100
2, 4930800, Note_on_c, 0, 69, 0
2, 4930800, Note_on_c, 0, 67, 100
2, 4931040, Note_on_c, 0, 67, 0
2, 4931040, Note_on_c, 0, 69, 100
2, 4931280, Note_on_c, 0, 69, 0
2, 4931280, Note_on_c, 0, 74, 100
2, 4932960, Note_on_c, 0, 74, 0
2, 4932960, Note_on_c, 0, 73, 100
2, 4933200, Note_on_c, 0, 73, 0
2, 4933200, Note_on_c, 0, 74, 100
2, 4933440, Note_on_c, 0, 74, 0
2, 4933440, Note_on_c, 0, 76, 100
2, 4933560, Note_on_c, 0, 76, 0
2, 4933560, Note_on_c, 0, 78, 100
2, 4933680, Note_on_c, 0, 78, 0
2, 4933680, Note_on_c, 0, 76, 100
2, 4933920, Note_on_c, 0, 76, 0
2, 4933920, Note_on_c, 0, 78, 100
2, 4934160, Note_on_c, 0, 78, 0
2, 4934160, Note_on_c, 0, 81, 100
2, 4934400, Note_on_c, 0, 81, 0
2, 4934400, Note_on_c, 0, 79, 100
2, 4934520, Note_on_c, 0, 79, 0
2, 4934520, Note_on_c, 0, 78, 100
2, 4934640, Note_on_c, 0, 78, 0
2, 4934640, Note_on_c, 0, 76, 100
2, 4934760, Note_on_c, 0, 76, 0
2, 4934760, Note_on_c, 0, 78, 100
2, 4934880, Note_on_c, 0, 78, 0
2, 4934880, Note_on_c, 0, 79, 100
2, 4935120, Note_on_c, 0, 79, 0
2, 4935120, Note_on_c, 0, 78, 100
2, 4935240, Note_on_c, 0, 78, 0
2, 4935240, Note_on_c, 0, 76, 100
2, 4935360, Note_on_c, 0, 76, 0
2, 4935360, Note_on_c, 0, 74, 100
2, 4935480, Note_on_c, 0, 74, 0
2, 4935480, Note_on_c, 0, 76, 100
2, 4935600, Note_on_c, 0, 76, 0
2, 4935600, Note_on_c, 0, 78, 100
2, 4935840, Note_on_c, 0, 78, 0
2, 4935840, Note_on_c, 0, 76, 100
2, 4935960, Note_on_c, 0, 76, 0
2, 4935960, Note_on_c, 0, 74, 100
2, 4936080, Note_on_c, 0, 74, 0
2, 4936080, Note_on_c, 0, 73, 100
2, 4936200, Note_on_c, 0, 73, 0
2, 4936200, Note_on_c, 0, 74, 100
2, 4936320, Note_on_c, 0, 74, 0
2, 4936320, Note_on_c, 0, 83, 100
2, 4941360, Note_on_c, 0, 83, 0
2, 4941360, Note_on_c, 0, 81, 100
2, 4941480, Note_on_c, 0, 81, 0
2, 4941480, Note_on_c, 0, 79, 100
2, 4941600, Note_on_c, 0, 79, 0
2, 4941600, Note_on_c, 0, 81, 100
2, 4941720, Note_on_c, 0, 81, 0
2, 4941720, Note_on_c, 0, 83, 100
2, 4941840, Note_on_c, 0, 83, 0
2, 4941840, Note_on_c, 0, 81, 100
2, 4941900, Note_on_c, 0, 81, 0
2, 4941900, Note_on_c, 0, 83, 100
2, 4941960, Note_on_c, 0, 83, 0
2, 4941960, Note_on_c, 0, 81, 100
2, 4942020, Note_on_c, 0, 81, 0
2, 4942020, Note_on_c, 0, 83, 100
2, 4942080, Note_on_c, 0, 83, 0
2, 4942080, Note_on_c, 0, 81, 100
2, 4942140, Note_on_c, 0, 81, 0
2, 4942140, Note_on_c, 0, 83, 100
2, 4942200, Note_on_c, 0, 83, 0
2, 4942200, Note_on_c, 0, 81, 100
2, 4942260, Note_on_c, 0, 81, 0
2, 4942260, Note_on_c, 0, 83, 100
2, 4942320, Note_on_c, 0, 83, 0
2, 4942320, Note_on_c, 0, 81, 100
2, 4942380, Note_on_c, 0, 81, 0
2, 4942380, Note_on_c, 0, 83, 100
2, 4942440, Note_on_c, 0, 83, 0
2, 4942440, Note_on_c, 0, 81, 100
2, 4942500, Note_on_c, 0, 81, 0
2, 4942500, Note_on_c, 0, 83, 100
2, 4942560, Note_on_c, 0, 83, 0
2, 4942560, Note_on_c, 0, 81, 100
2, 4942620, Note_on_c, 0, 81, 0
2, 4942620, Note_on_c, 0, 83, 100
2, 4942680, Note_on_c, 0, 83, 0
2, 4942680, Note_on_c, 0, 81, 100
2, 4942740, Note_on_c, 0, 81, 0
2, 4942740, Note_on_c, 0, 83, 100
2, 4942800, Note_on_c, 0, 83, 0
2, 4942800, Note_on_c, 0, 81, 100
2, 4942860, Note_on_c, 0, 81, 0
2, 4942860, Note_on_c, 0, 83, 100
2, 4942920, Note_on_c, 0, 83, 0
2, 4942920, Note_on_c, 0, 81, 100
2, 4942980, Note_on_c, 0, 81, 0
2, 4942980, Note_on_c, 0, 83, 100
2, 4943040, Note_on_c, 0, 83, 0
2, 4943040, Note_on_c, 0, 81, 100
2, 4943100, Note_on_c, 0, 81, 0
2, 4943100, Note_on_c, 0, 83, 100
2, 4943160, Note_on_c, 0, 83, 0
2, 4943160, Note_on_c, 0, 81, 100
2, 4943220, Note_on_c, 0, 81, 0
2, 4943220, Note_on_c, 0, 83, 100
2, 4943280, Note_on_c, 0, 83, 0
2, 4943280, Note_on_c, 0, 81, 100
2, 4943340, Note_on_c, 0, 81, 0
2, 4943340, Note_on_c, 0, 83, 100
2, 4943400, Note_on_c, 0, 83, 0
2, 4943400, Note_on_c, 0, 81, 100
2, 4943460, Note_on_c, 0, 81, 0
2, 4943460, Note_on_c, 0, 83, 100
2, 4943520, Note_on_c, 0, 83, 0
2, 4943520, Note_on_c, 0, 81, 100
2, 4943640, Note_on_c, 0, 81, 0
2, 4943640, Note_on_c, 0, 79, 100
2, 4943760, Note_on_c, 0, 79, 0
2, 4943760, Note_on_c, 0, 78, 100
2, 4944000, Note_on_c, 0, 78, 0
2, 4944000, Note_on_c, 0, 79, 100
2, 4944240, Note_on_c, 0, 79, 0
2, 4944240, Note_on_c, 0, 83, 100
2, 4944480, Note_on_c, 0, 83, 0
2, 4944480, Note_on_c, 0, 81, 100
2, 4944720, Note_on_c, 0, 81, 0
2, 4944720, Note_on_c, 0, 83, 100
2, 4944960, Note_on_c, 0, 83, 0
2, 4944960, Note_on_c, 0, 75, 100
2, 4945440, Note_on_c, 0, 75, 0
2, 4945440, Note_on_c, 0, 76, 100
2, 4945680, Note_on_c, 0, 76, 0
2, 4945680, Note_on_c, 0, 79, 100
2, 4945920, Note_on_c, 0, 79, 0
2, 4945920, Note_on_c, 0, 78, 100
2, 4946040, Note_on_c, 0, 78, 0
2, 4946040, Note_on_c, 0, 76, 100
2, 4946160, Note_on_c, 0, 76, 0
2, 4946160, Note_on_c, 0, 74, 100
2, 4946280, Note_on_c, 0, 74, 0
2, 4946280, Note_on_c, 0, 72, 100
2, 4946400, Note_on_c, 0, 72, 0
2, 4946400, Note_on_c, 0, 76, 100
2, 4946640, Note_on_c, 0, 76, 0
2, 4946640, Note_on_c, 0, 74, 100
2, 4946760, Note_on_c, 0, 74, 0
2, 4946760, Note_on_c, 0, 72, 100
2, 4946880, Note_on_c, 0, 72, 0
2, 4946880, Note_on_c, 0, 71, 100
2, 4947000, Note_on_c, 0, 71, 0
2, 4947000, Note_on_c, 0, 69, 100
2, 4947120, Note_on_c, 0, 69, 0
2, 4947120, Note_on_c, 0, 72, 100
2, 4947360, Note_on_c, 0, 72, 0
2, 4947360, Note_on_c, 0, 71, 100
2, 4947480, Note_on_c, 0, 71, 0
2, 4947480, Note_on_c, 0, 69, 100
2, 4947600, Note_on_c, 0, 69, 0
2, 4947600, Note_on_c, 0, 67, 100
2, 4947720, Note_on_c, 0, 67, 0
2, 4947720, Note_on_c, 0, 66, 100
2, 4947840, Note_on_c, 0, 66, 0
2, 4947840, Note_on_c, 0, 76, 100
2, 4948320, Note_on_c, 0, 76, 0
2, 4948320, Note_on_c, 0, 75, 100
2, 4948560, Note_on_c, 0, 75, 0
2, 4948560, Note_on_c, 0, 78, 100
2, 4948800, Note_on_c, 0, 78, 0
2, 4948800, Note_on_c, 0, 76, 100
2, 4948860, Note_on_c, 0, 76, 0
2, 4948860, Note_on_c, 0, 75, 100
2, 4948920, Note_on_c, 0, 75, 0
2, 4948920, Note_on_c, 0, 76, 100
2, 4948980, Note_on_c, 0, 76, 0
2, 4948980, Note_on_c, 0, 78, 100
2, 4949040, Note_on_c, 0, 78, 0
2, 4949040, Note_on_c, 0, 71, 100
2, 4949280, Note_on_c, 0, 71, 0
2, 4949280, Note_on_c, 0, 75, 100
2, 4950240, Note_on_c, 0, 75, 0
2, 4950240, Note_on_c, 0, 76, 100
2, 4950480, Note_on_c, 0, 76, 0
2, 4950480, Note_on_c, 0, 74, 100
2, 4950840, Note_on_c, 0, 74, 0
2, 4950840, Note_on_c, 0, 72, 100
2, 4950960, Note_on_c, 0, 72, 0
2, 4950960, Note_on_c, 0, 71, 100
2, 4951080, Note_on_c, 0, 71, 0
2, 4951080, Note_on_c, 0, 72, 100
2, 4951200, Note_on_c, 0, 72, 0
2, 4951200, Note_on_c, 0, 71, 100
2, 4951560, Note_on_c, 0, 71, 0
2, 4951560, Note_on_c, 0, 69, 100
2, 4951680, Note_on_c, 0, 69, 0
2, 4951680, Note_on_c, 0, 67, 100
2, 4951800, Note_on_c, 0, 67, 0
2, 4951800, Note_on_c, 0, 69, 100
2, 4951920, Note_on_c, 0, 69, 0
2, 4951920, Note_on_c, 0, 66, 100
2, 4952400, Note_on_c, 0, 66, 0
2, 4952400, Note_on_c, 0, 67, 100
2, 4952640, Note_on_c, 0, 67, 0
2, 4952640, Note_on_c, 0, 71, 100
2, 4952880, Note_on_c, 0, 71, 0
2, 4952880, Note_on_c, 0, 69, 100
2, 4952940, Note_on_c, 0, 69, 0
2, 4952940, Note_on_c, 0, 71, 100
2, 4953000, Note_on_c, 0, 71, 0
2, 4953000, Note_on_c, 0, 72, 100
2, 4953840, Note_on_c, 0, 72, 0
2, 4953840, Note_on_c, 0, 74, 100
2, 4954080, Note_on_c, 0, 74, 0
2, 4954080, Note_on_c, 0, 76, 100
2, 4954320, Note_on_c, 0, 76, 0
2, 4954320, Note_on_c, 0, 68, 100
2, 4954560, Note_on_c, 0, 68, 0
2, 4954560, Note_on_c, 0, 71, 100
2, 4954800, Note_on_c, 0, 71, 0
2, 4954800, Note_on_c, 0, 69, 100
2, 4955040, Note_on_c, 0, 69, 0
2, 4955040, Note_on_c, 0, 71, 100
2, 4956000, Note_on_c, 0, 71, 0
2, 4956000, Note_on_c, 0, 72, 100
2, 4956240, Note_on_c, 0, 72, 0
2, 4956240, Note_on_c, 0, 74, 100
2, 4956480, Note_on_c, 0, 74, 0
2, 4956480, Note_on_c, 0, 66, 100
2, 4956720, Note_on_c, 0, 66, 0
2, 4956720, Note_on_c, 0, 69, 100
2, 4956960, Note_on_c, 0, 69, 0
2, 4956960, Note_on_c, 0, 62, 100
2, 4957200, Note_on_c, 0, 62, 0
2, 4957200, Note_on_c, 0, 66, 100
2, 4957680, Note_on_c, 0, 66, 0
2, 4957680, Note_on_c, 0, 71, 100
2, 4957920, Note_on_c, 0, 71, 0
2, 4957920, Note_on_c, 0, 63, 100
2, 4959120, Note_on_c, 0, 63, 0
2, 4959120, Note_on_c, 0, 64, 100
2, 4959360, Note_on_c, 0, 64, 0
2, 4959360, Note_on_c, 0, 66, 100
2, 4959600, Note_on_c, 0, 66, 0
2, 4959600, Note_on_c, 0, 67, 100
2, 4959840, Note_on_c, 0, 67, 0
2, 4959840, Note_on_c, 0, 66, 100
2, 4960080, Note_on_c, 0, 66, 0
2, 4960080, Note_on_c, 0, 67, 100
2, 4960320, Note_on_c, 0, 67, 0
2, 4960320, Note_on_c, 0, 69, 100
2, 4960560, Note_on_c, 0, 69, 0
2, 4960560, Note_on_c, 0, 62, 100
2, 4962240, Note_on_c, 0, 62, 0
2, 4962240, Note_on_c, 0, 67, 100
2, 4963200, Note_on_c, 0, 67, 0
2, 4963200, Note_on_c, 0, 66, 100
2, 4963440, Note_on_c, 0, 66, 0
2, 4963440, Note_on_c, 0, 67, 100
2, 4963680, Note_on_c, 0, 67, 0
2, 4963680, Note_on_c, 0, 69, 100
2, 4963920, Note_on_c, 0, 69, 0
2, 4963920, Note_on_c, 0, 71, 100
2, 4964160, Note_on_c, 0, 71, 0
2, 4964160, Note_on_c, 0, 72, 100
2, 4964400, Note_on_c, 0, 72, 0
2, 4964400, Note_on_c, 0, 74, 100
2, 4964640, Note_on_c, 0, 74, 0
2, 4964640, Note_on_c, 0, 72, 100
2, 4964760, Note_on_c, 0, 72, 0
2, 4964760, Note_on_c, 0, 71, 100
2, 4964880, Note_on_c, 0, 71, 0
2, 4964880, Note_on_c, 0, 69, 100
2, 4965000, Note_on_c, 0, 69, 0
2, 4965000, Note_on_c, 0, 71, 100
2, 4965120, Note_on_c, 0, 71, 0
2, 4965120, Note_on_c, 0, 72, 100
2, 4965360, Note_on_c, 0, 72, 0
2, 4965360, Note_on_c, 0, 71, 100
2, 4965480, Note_on_c, 0, 71, 0
2, 4965480, Note_on_c, 0, 69, 100
2, 4965600, Note_on_c, 0, 69, 0
2, 4965600, Note_on_c, 0, 67, 100
2, 4965720, Note_on_c, 0, 67, 0
2, 4965720, Note_on_c, 0, 69, 100
2, 4965840, Note_on_c, 0, 69, 0
2, 4965840, Note_on_c, 0, 71, 100
2, 4966080, Note_on_c, 0, 71, 0
2, 4966080, Note_on_c, 0, 69, 100
2, 4966200, Note_on_c, 0, 69, 0
2, 4966200, Note_on_c, 0, 67, 100
2, 4966320, Note_on_c, 0, 67, 0
2, 4966320, Note_on_c, 0, 66, 100
2, 4966440, Note_on_c, 0, 66, 0
2, 4966440, Note_on_c, 0, 67, 100
2, 4966560, Note_on_c, 0, 67, 0
2, 4966560, Note_on_c, 0, 71, 100
2, 4966800, Note_on_c, 0, 71, 0
2, 4966800, Note_on_c, 0, 69, 100
2, 4966920, Note_on_c, 0, 69, 0
2, 4966920, Note_on_c, 0, 67, 100
2, 4967040, Note_on_c, 0, 67, 0
2, 4967040, Note_on_c, 0, 66, 100
2, 4967160, Note_on_c, 0, 66, 0
2, 4967160, Note_on_c, 0, 67, 100
2, 4967280, Note_on_c, 0, 67, 0
2, 4967280, Note_on_c, 0, 62, 100
2, 4968000, Note_on_c, 0, 62, 0
2, 4968000, Note_on_c, 0, 66, 100
2, 4968720, Note_on_c, 0, 66, 0
2, 4968720, Note_on_c, 0, 67, 100
2, 4969440, Note_on_c, 0, 67, 0
2, 4969440, Note_on_c, 0, 60, 100
2, 4970160, Note_on_c, 0, 60, 0
2, 4970160, Note_on_c, 0, 59, 100
2, 4970880, Note_on_c, 0, 59, 0
2, 4970880, Note_on_c, 0, 83, 100
2, 4975920, Note_on_c, 0, 83, 0
2, 4975920, Note_on_c, 0, 81, 100
2, 4976040, Note_on_c, 0, 81, 0
2, 4976040, Note_on_c, 0, 79, 100
2, 4976160, Note_on_c, 0, 79, 0
2, 4976160, Note_on_c, 0, 81, 100
2, 4976280, Note_on_c, 0, 81, 0
2, 4976280, Note_on_c, 0, 83, 100
2, 4976400, Note_on_c, 0, 83, 0
2, 4976400, Note_on_c, 0, 81, 100
2, 4976460, Note_on_c, 0, 81, 0
2, 4976460, Note_on_c, 0, 83, 100
2, 4976520, Note_on_c, 0, 83, 0
2, 4976520, Note_on_c, 0, 81, 100
2, 4976580, Note_on_c, 0, 81, 0
2, 4976580, Note_on_c, 0, 83, 100
2, 4976640, Note_on_c, 0, 83, 0
2, 4976640, Note_on_c, 0, 81, 100
2, 4976700, Note_on_c, 0, 81, 0
2, 4976700, Note_on_c, 0, 83, 100
2, 4976760, Note_on_c, 0, 83, 0
2, 4976760, Note_on_c, 0, 81, 100
2, 4976820, Note_on_c, 0, 81, 0
2, 4976820, Note_on_c, 0, 83, 100
2, 4976880, Note_on_c, 0, 83, 0
2, 4976880, Note_on_c, 0, 81, 100
2, 4976940, Note_on_c, 0, 81, 0
2, 4976940, Note_on_c, 0, 83, 100
2, 4977000, Note_on_c, 0, 83, 0
2, 4977000, Note_on_c, 0, 81, 100
2, 4977060, Note_on_c, 0, 81, 0
2, 4977060, Note_on_c, 0, 83, 100
2, 4977120, Note_on_c, 0, 83, 0
2, 4977120, Note_on_c, 0, 81, 100
2, 4977180, Note_on_c, 0, 81, 0
2, 4977180, Note_on_c, 0, 83, 100
2, 4977240, Note_on_c, 0, 83, 0
2, 4977240, Note_on_c, 0, 81, 100
2, 4977300, Note_on_c, 0, 81, 0
2, 4977300, Note_on_c, 0, 83, 100
2, 4977360, Note_on_c, 0, 83, 0
2, 4977360, Note_on_c, 0, 81, 100
2, 4977420, Note_on_c, 0, 81, 0
2, 4977420, Note_on_c, 0, 83, 100
2, 4977480, Note_on_c, 0, 83, 0
2, 4977480, Note_on_c, 0, 81, 100
2, 4977540, Note_on_c, 0, 81, 0
2, 4977540, Note_on_c, 0, 83, 100
2, 4977600, Note_on_c, 0, 83, 0
2, 4977600, Note_on_c, 0, 81, 100
2, 4977660, Note_on_c, 0, 81, 0
2, 4977660, Note_on_c, 0, 83, 100
2, 4977720, Note_on_c, 0, 83, 0
2, 4977720, Note_on_c, 0, 81, 100
2, 4977780, Note_on_c, 0, 81, 0
2, 4977780, Note_on_c, 0, 83, 100
2, 4977840, Note_on_c, 0, 83, 0
2, 4977840, Note_on_c, 0, 81, 100
2, 4977900, Note_on_c, 0, 81, 0
2, 4977900, Note_on_c, 0, 83, 100
2, 4977960, Note_on_c, 0, 83, 0
2, 4977960, Note_on_c, 0, 81, 100
2, 4978020, Note_on_c, 0, 81, 0
2, 4978020, Note_on_c, 0, 83, 100
2, 4978080, Note_on_c, 0, 83, 0
2, 4978080, Note_on_c, 0, 81, 100
2, 4978200, Note_on_c, 0, 81, 0
2, 4978200, Note_on_c, 0, 79, 100
2, 4978320, Note_on_c, 0, 79, 0
2, 4978320, Note_on_c, 0, 78, 100
2, 4978560, Note_on_c, 0, 78, 0
2, 4978560, Note_on_c, 0, 79, 100
2, 4978800, Note_on_c, 0, 79, 0
2, 4978800, Note_on_c, 0, 83, 100
2, 4979040, Note_on_c, 0, 83, 0
2, 4979040, Note_on_c, 0, 81, 100
2, 4979280, Note_on_c, 0, 81, 0
2, 4979280, Note_on_c, 0, 83, 100
2, 4979520, Note_on_c, 0, 83, 0
2, 4979520, Note_on_c, 0, 75, 100
2, 4980000, Note_on_c, 0, 75, 0
2, 4980000, Note_on_c, 0, 76, 100
2, 4980240, Note_on_c, 0, 76, 0
2, 4980240, Note_on_c, 0, 79, 100
2, 4980480, Note_on_c, 0, 79, 0
2, 4980480, Note_on_c, 0, 78, 100
2, 4980600, Note_on_c, 0, 78, 0
2, 4980600, Note_on_c, 0, 76, 100
2, 4980720, Note_on_c, 0, 76, 0
2, 4980720, Note_on_c, 0, 74, 100
2, 4980840, Note_on_c, 0, 74, 0
2, 4980840, Note_on_c, 0, 72, 100
2, 4980960, Note_on_c, 0, 72, 0
2, 4980960, Note_on_c, 0, 76, 100
2, 4981200, Note_on_c, 0, 76, 0
2, 4981200, Note_on_c, 0, 74, 100
2, 4981320, Note_on_c, 0, 74, 0
2, 4981320, Note_on_c, 0, 72, 100
2, 4981440, Note_on_c, 0, 72, 0
2, 4981440, Note_on_c, 0, 71, 100
2, 4981560, Note_on_c, 0, 71, 0
2, 4981560, Note_on_c, 0, 69, 100
2, 4981680, Note_on_c, 0, 69, 0
2, 4981680, Note_on_c, 0, 72, 100
2, 4981920, Note_on_c, 0, 72, 0
2, 4981920, Note_on_c, 0, 71, 100
2, 4982040, Note_on_c, 0, 71, 0
2, 4982040, Note_on_c, 0, 69, 100
2, 4982160, Note_on_c, 0, 69, 0
2, 4982160, Note_on_c, 0, 67, 100
2, 4982280, Note_on_c, 0, 67, 0
2, 4982280, Note_on_c, 0, 66, 100
2, 4982400, Note_on_c, 0, 66, 0
2, 4982400, Note_on_c, 0, 76, 100
2, 4982880, Note_on_c, 0, 76, 0
2, 4982880, Note_on_c, 0, 75, 100
2, 4983120, Note_on_c, 0, 75, 0
2, 4983120, Note_on_c, 0, 78, 100
2, 4983360, Note_on_c, 0, 78, 0
2, 4983360, Note_on_c, 0, 76, 100
2, 4983420, Note_on_c, 0, 76, 0
2, 4983420, Note_on_c, 0, 75, 100
2, 4983480, Note_on_c, 0, 75, 0
2, 4983480, Note_on_c, 0, 76, 100
2, 4983540, Note_on_c, 0, 76, 0
2, 4983540, Note_on_c, 0, 78, 100
2, 4983600, Note_on_c, 0, 78, 0
2, 4983600, Note_on_c, 0, 71, 100
2, 4983840, Note_on_c, 0, 71, 0
2, 4983840, Note_on_c, 0, 75, 100
2, 4984800, Note_on_c, 0, 75, 0
2, 4984800, Note_on_c, 0, 76, 100
2, 4985040, Note_on_c, 0, 76, 0
2, 4985040, Note_on_c, 0, 74, 100
2, 4985400, Note_on_c, 0, 74, 0
2, 4985400, Note_on_c, 0, 72, 100
2, 4985520, Note_on_c, 0, 72, 0
2, 4985520, Note_on_c, 0, 71, 100
2, 4985640, Note_on_c, 0, 71, 0
2, 4985640, Note_on_c, 0, 72, 100
2, 4985760, Note_on_c, 0, 72, 0
2, 4985760, Note_on_c, 0, 71, 100
2, 4986120, Note_on_c, 0, 71, 0
2, 4986120, Note_on_c, 0, 69, 100
2, 4986240, Note_on_c, 0, 69, 0
2, 4986240, Note_on_c, 0, 67, 100
2, 4986360, Note_on_c, 0, 67, 0
2, 4986360, Note_on_c, 0, 69, 100
2, 4986480, Note_on_c, 0, 69, 0
2, 4986480, Note_on_c, 0, 66, 100
2, 4986960, Note_on_c, 0, 66, 0
2, 4986960, Note_on_c, 0, 67, 100
2, 4987200, Note_on_c, 0, 67, 0
2, 4987200, Note_on_c, 0, 71, 100
2, 4987440, Note_on_c, 0, 71, 0
2, 4987440, Note_on_c, 0, 69, 100
2, 4987500, Note_on_c, 0, 69, 0
2, 4987500, Note_on_c, 0, 71, 100
2, 4987560, Note_on_c, 0, 71, 0
2, 4987560, Note_on_c, 0, 72, 100
2, 4988400, Note_on_c, 0, 72, 0
2, 4988400, Note_on_c, 0, 74, 100
2, 4988640, Note_on_c, 0, 74, 0
2, 4988640, Note_on_c, 0, 76, 100
2, 4988880, Note_on_c, 0, 76, 0
2, 4988880, Note_on_c, 0, 68, 100
2, 4989120, Note_on_c, 0, 68, 0
2, 4989120, Note_on_c, 0, 71, 100
2, 4989360, Note_on_c, 0, 71, 0
2, 4989360, Note_on_c, 0, 69, 100
2, 4989600, Note_on_c, 0, 69, 0
2, 4989600, Note_on_c, 0, 71, 100
2, 4990560, Note_on_c, 0, 71, 0
2, 4990560, Note_on_c, 0, 72, 100
2, 4990800, Note_on_c, 0, 72, 0
2, 4990800, Note_on_c, 0, 74, 100
2, 4991040, Note_on_c, 0, 74, 0
2, 4991040, Note_on_c, 0, 66, 100
2, 4991280, Note_on_c, 0, 66, 0
2, 4991280, Note_on_c, 0, 69, 100
2, 4991520, Note_on_c, 0, 69, 0
2, 4991520, Note_on_c, 0, 62, 100
2, 4991760, Note_on_c, 0, 62, 0
2, 4991760, Note_on_c, 0, 66, 100
2, 4992240, Note_on_c, 0, 66, 0
2, 4992240, Note_on_c, 0, 71, 100
2, 4992480, Note_on_c, 0, 71, 0
2, 4992480, Note_on_c, 0, 63, 100
2, 4993680, Note_on_c, 0, 63, 0
2, 4993680, Note_on_c, 0, 64, 100
2, 4993920, Note_on_c, 0, 64, 0
2, 4993920, Note_on_c, 0, 66, 100
2, 4994160, Note_on_c, 0, 66, 0
2, 4994160, Note_on_c, 0, 67, 100
2, 4994400, Note_on_c, 0, 67, 0
2, 4994400, Note_on_c, 0, 66, 100
2, 4994640, Note_on_c, 0, 66, 0
2, 4994640, Note_on_c, 0, 67, 100
2, 4994880, Note_on_c, 0, 67, 0
2, 4994880, Note_on_c, 0, 69, 100
2, 4995120, Note_on_c, 0, 69, 0
2, 4995120, Note_on_c, 0, 62, 100
2, 4996800, Note_on_c, 0, 62, 0
2, 4996800, Note_on_c, 0, 67, 100
2, 4997760, Note_on_c, 0, 67, 0
2, 4997760, Note_on_c, 0, 66, 100
2, 4998000, Note_on_c, 0, 66, 0
2, 4998000, Note_on_c, 0, 67, 100
2, 4998240, Note_on_c, 0, 67, 0
2, 4998240, Note_on_c, 0, 69, 100
2, 4998480, Note_on_c, 0, 69, 0
2, 4998480, Note_on_c, 0, 71, 100
2, 4998720, Note_on_c, 0, 71, 0
2, 4998720, Note_on_c, 0, 72, 100
2, 4998960, Note_on_c, 0, 72, 0
2, 4998960, Note_on_c, 0, 74, 100
2, 4999200, Note_on_c, 0, 74, 0
2, 4999200, Note_on_c, 0, 72, 100
2, 4999320, Note_on_c, 0, 72, 0
2, 4999320, Note_on_c, 0, 71, 100
2, 4999440, Note_on_c, 0, 71, 0
2, 4999440, Note_on_c, 0, 69, 100
2, 4999560, Note_on_c, 0, 69, 0
2, 4999560, Note_on_c, 0, 71, 100
2, 4999680, Note_on_c, 0, 71, 0
2, 4999680, Note_on_c, 0, 72, 100
2, 4999920, Note_on_c, 0, 72, 0
2, 4999920, Note_on_c, 0, 71, 100
2, 5000040, Note_on_c, 0, 71, 0
2, 5000040, Note_on_c, 0, 69, 100
2, 5000160, Note_on_c, 0, 69, 0
2, 5000160, Note_on_c, 0, 67, 100
2, 5000280, Note_on_c, 0, 67, 0
2, 5000280, Note_on_c, 0, 69, 100
2, 5000400, Note_on_c, 0, 69, 0
2, 5000400, Note_on_c, 0, 71, 100
2, 5000640, Note_on_c, 0, 71, 0
2, 5000640, Note_on_c, 0, 69, 100
2, 5000760, Note_on_c, 0, 69, 0
2, 5000760, Note_on_c, 0, 67, 100
2, 5000880, Note_on_c, 0, 67, 0
2, 5000880, Note_on_c, 0, 66, 100
2, 5001000, Note_on_c, 0, 66, 0
2, 5001000, Note_on_c, 0, 67, 100
2, 5001120, Note_on_c, 0, 67, 0
2, 5001120, Note_on_c, 0, 71, 100
2, 5001360, Note_on_c, 0, 71, 0
2, 5001360, Note_on_c, 0, 69, 100
2, 5001480, Note_on_c, 0, 69, 0
2, 5001480, Note_on_c, 0, 67, 100
2, 5001600, Note_on_c, 0, 67, 0
2, 5001600, Note_on_c, 0, 66, 100
2, 5001720, Note_on_c, 0, 66, 0
2, 5001720, Note_on_c, 0, 67, 100
2, 5001840, Note_on_c, 0, 67, 0
2, 5001840, Note_on_c, 0, 62, 100
2, 5002560, Note_on_c, 0, 62, 0
2, 5002560, Note_on_c, 0, 66, 100
2, 5003280, Note_on_c, 0, 66, 0
2, 5003280, Note_on_c, 0, 67, 100
2, 5004000, Note_on_c, 0, 67, 0
2, 5004000, Note_on_c, 0, 60, 100
2, 5004720, Note_on_c, 0, 60, 0
2, 5004720, Note_on_c, 0, 59, 100
2, 5005440, Note_on_c, 0, 59, 0
2, 5005440, Note_on_c, 0, 74, 100
2, 5006280, Note_on_c, 0, 74, 0
2, 5006280, Note_on_c, 0, 75, 100
2, 5006400, Note_on_c, 0, 75, 0
2, 5006400, Note_on_c, 0, 74, 100
2, 5006415, Note_on_c, 0, 74, 0
2, 5006415, Note_on_c, 0, 73, 100
2, 5006460, Note_on_c, 0, 73, 0
2, 5006460, Note_on_c, 0, 74, 100
2, 5006640, Note_on_c, 0, 74, 0
2, 5006640, Note_on_c, 0, 82, 100
2, 5006700, Note_on_c, 0, 82, 0
2, 5006700, Note_on_c, 0, 81, 100
2, 5006940, Note_on_c, 0, 81, 0
2, 5006940, Note_on_c, 0, 79, 100
2, 5007000, Note_on_c, 0, 79, 0
2, 5007000, Note_on_c, 0, 77, 100
2, 5007060, Note_on_c, 0, 77, 0
2, 5007060, Note_on_c, 0, 75, 100
2, 5007120, Note_on_c, 0, 75, 0
2, 5007120, Note_on_c, 0, 74, 100
2, 5007240, Note_on_c, 0, 74, 0
2, 5007240, Note_on_c, 0, 73, 100
2, 5007480, Note_on_c, 0, 73, 0
2, 5007480, Note_on_c, 0, 72, 100
2, 5007720, Note_on_c, 0, 72, 0
2, 5007720, Note_on_c, 0, 74, 100
2, 5007840, Note_on_c, 0, 74, 0
2, 5007840, Note_on_c, 0, 72, 100
2, 5007855, Note_on_c, 0, 72, 0
2, 5007855, Note_on_c, 0, 71, 100
2, 5007900, Note_on_c, 0, 71, 0
2, 5007900, Note_on_c, 0, 72, 100
2, 5008080, Note_on_c, 0, 72, 0
2, 5008080, Note_on_c, 0, 80, 100
2, 5008140, Note_on_c, 0, 80, 0
2, 5008140, Note_on_c, 0, 79, 100
2, 5008380, Note_on_c, 0, 79, 0
2, 5008380, Note_on_c, 0, 77, 100
2, 5008440, Note_on_c, 0, 77, 0
2, 5008440, Note_on_c, 0, 75, 100
2, 5008500, Note_on_c, 0, 75, 0
2, 5008500, Note_on_c, 0, 73, 100
2, 5008560, Note_on_c, 0, 73, 0
2, 5008560, Note_on_c, 0, 72, 100
2, 5008680, Note_on_c, 0, 72, 0
2, 5008680, Note_on_c, 0, 71, 100
2, 5008920, Note_on_c, 0, 71, 0
2, 5008920, Note_on_c, 0, 70, 100
2, 5009160, Note_on_c, 0, 70, 0
2, 5009160, Note_on_c, 0, 72, 100
2, 5009280, Note_on_c, 0, 72, 0
2, 5009280, Note_on_c, 0, 70, 100
2, 5009295, Note_on_c, 0, 70, 0
2, 5009295, Note_on_c, 0, 69, 100
2, 5009340, Note_on_c, 0, 69, 0
2, 5009340, Note_on_c, 0, 70, 100
2, 5009400, Note_on_c, 0, 70, 0
2, 5009400, Note_on_c, 0, 78, 100
2, 5009520, Note_on_c, 0, 78, 0
2, 5009520, Note_on_c, 0, 79, 100
2, 5009640, Note_on_c, 0, 79, 0
2, 5009640, Note_on_c, 0, 73, 100
2, 5009880, Note_on_c, 0, 73, 0
2, 5009880, Note_on_c, 0, 74, 100
2, 5010120, Note_on_c, 0, 74, 0
2, 5010120, Note_on_c, 0, 67, 100
2, 5010480, Note_on_c, 0, 67, 0
2, 5010480, Note_on_c, 0, 69, 100
2, 5010600, Note_on_c, 0, 69, 0
2, 5010600, Note_on_c, 0, 70, 100
2, 5010660, Note_on_c, 0, 70, 0
2, 5010660, Note_on_c, 0, 69, 100
2, 5010720, Note_on_c, 0, 69, 0
2, 5010720, Note_on_c, 0, 62, 100
2, 5012040, Note_on_c, 0, 62, 0
2, 5012040, Note_on_c, 0, 63, 100
2, 5012160, Note_on_c, 0, 63, 0
2, 5012160, Note_on_c, 0, 62, 100
2, 5012175, Note_on_c, 0, 62, 0
2, 5012175, Note_on_c, 0, 61, 100
2, 5012220, Note_on_c, 0, 61, 0
2, 5012220, Note_on_c, 0, 62, 100
2, 5012400, Note_on_c, 0, 62, 0
2, 5012400, Note_on_c, 0, 74, 100
2, 5012460, Note_on_c, 0, 74, 0
2, 5012460, Note_on_c, 0, 72, 100
2, 5012700, Note_on_c, 0, 72, 0
2, 5012700, Note_on_c, 0, 70, 100
2, 5012760, Note_on_c, 0, 70, 0
2, 5012760, Note_on_c, 0, 69, 100
2, 5012820, Note_on_c, 0, 69, 0
2, 5012820, Note_on_c, 0, 67, 100
2, 5012880, Note_on_c, 0, 67, 0
2, 5012880, Note_on_c, 0, 65, 100
2, 5012940, Note_on_c, 0, 65, 0
2, 5012940, Note_on_c, 0, 68, 100
2, 5013000, Note_on_c, 0, 68, 0
2, 5013000, Note_on_c, 0, 62, 100
2, 5013180, Note_on_c, 0, 62, 0
2, 5013180, Note_on_c, 0, 65, 100
2, 5013240, Note_on_c, 0, 65, 0
2, 5013240, Note_on_c, 0, 63, 100
2, 5013480, Note_on_c, 0, 63, 0
2, 5013480, Note_on_c, 0, 65, 100
2, 5013600, Note_on_c, 0, 65, 0
2, 5013600, Note_on_c, 0, 63, 100
2, 5013615, Note_on_c, 0, 63, 0
2, 5013615, Note_on_c, 0, 62, 100
2, 5013660, Note_on_c, 0, 62, 0
2, 5013660, Note_on_c, 0, 63, 100
2, 5013840, Note_on_c, 0, 63, 0
2, 5013840, Note_on_c, 0, 75, 100
2, 5013900, Note_on_c, 0, 75, 0
2, 5013900, Note_on_c, 0, 74, 100
2, 5014140, Note_on_c, 0, 74, 0
2, 5014140, Note_on_c, 0, 72, 100
2, 5014200, Note_on_c, 0, 72, 0
2, 5014200, Note_on_c, 0, 70, 100
2, 5014260, Note_on_c, 0, 70, 0
2, 5014260, Note_on_c, 0, 69, 100
2, 5014320, Note_on_c, 0, 69, 0
2, 5014320, Note_on_c, 0, 67, 100
2, 5014380, Note_on_c, 0, 67, 0
2, 5014380, Note_on_c, 0, 70, 100
2, 5014440, Note_on_c, 0, 70, 0
2, 5014440, Note_on_c, 0, 64, 100
2, 5014620, Note_on_c, 0, 64, 0
2, 5014620, Note_on_c, 0, 67, 100
2, 5014680, Note_on_c, 0, 67, 0
2, 5014680, Note_on_c, 0, 66, 100
2, 5014920, Note_on_c, 0, 66, 0
2, 5014920, Note_on_c, 0, 67, 100
2, 5015040, Note_on_c, 0, 67, 0
2, 5015040, Note_on_c, 0, 66, 100
2, 5015055, Note_on_c, 0, 66, 0
2, 5015055, Note_on_c, 0, 64, 100
2, 5015100, Note_on_c, 0, 64, 0
2, 5015100, Note_on_c, 0, 66, 100
2, 5015160, Note_on_c, 0, 66, 0
2, 5015160, Note_on_c, 0, 71, 100
2, 5015280, Note_on_c, 0, 71, 0
2, 5015280, Note_on_c, 0, 72, 100
2, 5015360, Note_on_c, 0, 72, 0
2, 5015360, Note_on_c, 0, 75, 100
2, 5015440, Note_on_c, 0, 75, 0
2, 5015440, Note_on_c, 0, 73, 100
2, 5015520, Note_on_c, 0, 73, 0
2, 5015520, Note_on_c, 0, 74, 100
2, 5015600, Note_on_c, 0, 74, 0
2, 5015600, Note_on_c, 0, 66, 100
2, 5015680, Note_on_c, 0, 66, 0
2, 5015680, Note_on_c, 0, 70, 100
2, 5015760, Note_on_c, 0, 70, 0
2, 5015760, Note_on_c, 0, 69, 100
2, 5015840, Note_on_c, 0, 69, 0
2, 5015840, Note_on_c, 0, 62, 100
2, 5015920, Note_on_c, 0, 62, 0
2, 5015920, Note_on_c, 0, 63, 100
2, 5016000, Note_on_c, 0, 63, 0
2, 5016000, Note_on_c, 0, 59, 100
2, 5016080, Note_on_c, 0, 59, 0
2, 5016080, Note_on_c, 0, 60, 100
2, 5016160, Note_on_c, 0, 60, 0
2, 5016160, Note_on_c, 0, 58, 100
2, 5016360, Note_on_c, 0, 58, 0
2, 5016360, Note_on_c, 0, 57, 100
2, 5016420, Note_on_c, 0, 57, 0
2, 5016420, Note_on_c, 0, 58, 100
2, 5016480, Note_on_c, 0, 58, 0
2, 5016480, Note_on_c, 0, 62, 100
2, 5017740, Note_on_c, 0, 62, 0
2, 5017740, Note_on_c, 0, 64, 100
2, 5017800, Note_on_c, 0, 64, 0
2, 5017800, Note_on_c, 0, 66, 100
2, 5017860, Note_on_c, 0, 66, 0
2, 5017860, Note_on_c, 0, 67, 100
2, 5017920, Note_on_c, 0, 67, 0
2, 5017920, Note_on_c, 0, 70, 100
2, 5017980, Note_on_c, 0, 70, 0
2, 5017980, Note_on_c, 0, 69, 100
2, 5018040, Note_on_c, 0, 69, 0
2, 5018040, Note_on_c, 0, 70, 100
2, 5018280, Note_on_c, 0, 70, 0
2, 5018280, Note_on_c, 0, 71, 100
2, 5018520, Note_on_c, 0, 71, 0
2, 5018520, Note_on_c, 0, 72, 100
2, 5018640, Note_on_c, 0, 72, 0
2, 5018640, Note_on_c, 0, 73, 100
2, 5018760, Note_on_c, 0, 73, 0
2, 5018760, Note_on_c, 0, 74, 100
2, 5019000, Note_on_c, 0, 74, 0
2, 5019000, Note_on_c, 0, 75, 100
2, 5019120, Note_on_c, 0, 75, 0
2, 5019120, Note_on_c, 0, 76, 100
2, 5019240, Note_on_c, 0, 76, 0
2, 5019240, Note_on_c, 0, 82, 100
2, 5019420, Note_on_c, 0, 82, 0
2, 5019420, Note_on_c, 0, 81, 100
2, 5019480, Note_on_c, 0, 81, 0
2, 5019480, Note_on_c, 0, 79, 100
2, 5019540, Note_on_c, 0, 79, 0
2, 5019540, Note_on_c, 0, 78, 100
2, 5019600, Note_on_c, 0, 78, 0
2, 5019600, Note_on_c, 0, 76, 100
2, 5019660, Note_on_c, 0, 76, 0
2, 5019660, Note_on_c, 0, 74, 100
2, 5019960, Note_on_c, 0, 74, 0
2, 5019960, Note_on_c, 0, 86, 100
2, 5020080, Note_on_c, 0, 86, 0
2, 5020080, Note_on_c, 0, 85, 100
2, 5020200, Note_on_c, 0, 85, 0
2, 5020200, Note_on_c, 0, 84, 100
2, 5020440, Note_on_c, 0, 84, 0
2, 5020440, Note_on_c, 0, 83, 100
2, 5020560, Note_on_c, 0, 83, 0
2, 5020560, Note_on_c, 0, 82, 100
2, 5020680, Note_on_c, 0, 82, 0
2, 5020680, Note_on_c, 0, 81, 100
2, 5020860, Note_on_c, 0, 81, 0
2, 5020860, Note_on_c, 0, 80, 100
2, 5020920, Note_on_c, 0, 80, 0
2, 5020920, Note_on_c, 0, 81, 100
2, 5021160, Note_on_c, 0, 81, 0
2, 5021160, Note_on_c, 0, 74, 100
2, 5021340, Note_on_c, 0, 74, 0
2, 5021340, Note_on_c, 0, 72, 100
2, 5021400, Note_on_c, 0, 72, 0
2, 5021400, Note_on_c, 0, 70, 100
2, 5021460, Note_on_c, 0, 70, 0
2, 5021460, Note_on_c, 0, 72, 100
2, 5021520, Note_on_c, 0, 72, 0
2, 5021520, Note_on_c, 0, 69, 100
2, 5021580, Note_on_c, 0, 69, 0
2, 5021580, Note_on_c, 0, 70, 100
2, 5021640, Note_on_c, 0, 70, 0
2, 5021640, Note_on_c, 0, 67, 100
2, 5021700, Note_on_c, 0, 67, 0
2, 5021700, Note_on_c, 0, 65, 100
2, 5021760, Note_on_c, 0, 65, 0
2, 5021760, Note_on_c, 0, 64, 100
2, 5021820, Note_on_c, 0, 64, 0
2, 5021820, Note_on_c, 0, 65, 100
2, 5021880, Note_on_c, 0, 65, 0
2, 5021880, Note_on_c, 0, 74, 100
2, 5021940, Note_on_c, 0, 74, 0
2, 5021940, Note_on_c, 0, 67, 100
2, 5022000, Note_on_c, 0, 67, 0
2, 5022000, Note_on_c, 0, 65, 100
2, 5022015, Note_on_c, 0, 65, 0
2, 5022015, Note_on_c, 0, 67, 100
2, 5022030, Note_on_c, 0, 67, 0
2, 5022030, Note_on_c, 0, 65, 100
2, 5022045, Note_on_c, 0, 65, 0
2, 5022045, Note_on_c, 0, 64, 100
2, 5022060, Note_on_c, 0, 64, 0
2, 5022060, Note_on_c, 0, 65, 100
2, 5022120, Note_on_c, 0, 65, 0
2, 5022120, Note_on_c, 0, 64, 100
2, 5022240, Note_on_c, 0, 64, 0
2, 5022240, Note_on_c, 0, 62, 100
2, 5022540, Note_on_c, 0, 62, 0
2, 5022540, Note_on_c, 0, 61, 100
2, 5022600, Note_on_c, 0, 61, 0
2, 5022600, Note_on_c, 0, 62, 100
2, 5022660, Note_on_c, 0, 62, 0
2, 5022660, Note_on_c, 0, 64, 100
2, 5022720, Note_on_c, 0, 64, 0
2, 5022720, Note_on_c, 0, 65, 100
2, 5022780, Note_on_c, 0, 65, 0
2, 5022780, Note_on_c, 0, 67, 100
2, 5022840, Note_on_c, 0, 67, 0
2, 5022840, Note_on_c, 0, 69, 100
2, 5022900, Note_on_c, 0, 69, 0
2, 5022900, Note_on_c, 0, 70, 100
2, 5022960, Note_on_c, 0, 70, 0
2, 5022960, Note_on_c, 0, 69, 100
2, 5023020, Note_on_c, 0, 69, 0
2, 5023020, Note_on_c, 0, 74, 100
2, 5023080, Note_on_c, 0, 74, 0
2, 5023080, Note_on_c, 0, 73, 100
2, 5023260, Note_on_c, 0, 73, 0
2, 5023260, Note_on_c, 0, 76, 100
2, 5023320, Note_on_c, 0, 76, 0
2, 5023320, Note_on_c, 0, 69, 100
2, 5023560, Note_on_c, 0, 69, 0
2, 5023560, Note_on_c, 0, 70, 100
2, 5023680, Note_on_c, 0, 70, 0
2, 5023680, Note_on_c, 0, 69, 100
2, 5023695, Note_on_c, 0, 69, 0
2, 5023695, Note_on_c, 0, 68, 100
2, 5023740, Note_on_c, 0, 68, 0
2, 5023740, Note_on_c, 0, 69, 100
2, 5023920, Note_on_c, 0, 69, 0
2, 5023920, Note_on_c, 0, 81, 100
2, 5023980, Note_on_c, 0, 81, 0
2, 5023980, Note_on_c, 0, 82, 100
2, 5024220, Note_on_c, 0, 82, 0
2, 5024220, Note_on_c, 0, 81, 100
2, 5024280, Note_on_c, 0, 81, 0
2, 5024280, Note_on_c, 0, 80, 100
2, 5024340, Note_on_c, 0, 80, 0
2, 5024340, Note_on_c, 0, 81, 100
2, 5024400, Note_on_c, 0, 81, 0
2, 5024400, Note_on_c, 0, 74, 100
2, 5024460, Note_on_c, 0, 74, 0
2, 5024460, Note_on_c, 0, 72, 100
2, 5024520, Note_on_c, 0, 72, 0
2, 5024520, Note_on_c, 0, 70, 100
2, 5024580, Note_on_c, 0, 70, 0
2, 5024580, Note_on_c, 0, 72, 100
2, 5024700, Note_on_c, 0, 72, 0
2, 5024700, Note_on_c, 0, 70, 100
2, 5024760, Note_on_c, 0, 70, 0
2, 5024760, Note_on_c, 0, 69, 100
2, 5024880, Note_on_c, 0, 69, 0
2, 5024880, Note_on_c, 0, 70, 100
2, 5025000, Note_on_c, 0, 70, 0
2, 5025000, Note_on_c, 0, 72, 100
2, 5025120, Note_on_c, 0, 72, 0
2, 5025120, Note_on_c, 0, 70, 100
2, 5025135, Note_on_c, 0, 70, 0
2, 5025135, Note_on_c, 0, 69, 100
2, 5025180, Note_on_c, 0, 69, 0
2, 5025180, Note_on_c, 0, 70, 100
2, 5025360, Note_on_c, 0, 70, 0
2, 5025360, Note_on_c, 0, 82, 100
2, 5025420, Note_on_c, 0, 82, 0
2, 5025420, Note_on_c, 0, 75, 100
2, 5025660, Note_on_c, 0, 75, 0
2, 5025660, Note_on_c, 0, 74, 100
2, 5025720, Note_on_c, 0, 74, 0
2, 5025720, Note_on_c, 0, 73, 100
2, 5025780, Note_on_c, 0, 73, 0
2, 5025780, Note_on_c, 0, 74, 100
2, 5025840, Note_on_c, 0, 74, 0
2, 5025840, Note_on_c, 0, 84, 100
2, 5025900, Note_on_c, 0, 84, 0
2, 5025900, Note_on_c, 0, 83, 100
2, 5025960, Note_on_c, 0, 83, 0
2, 5025960, Note_on_c, 0, 74, 100
2, 5026200, Note_on_c, 0, 74, 0
2, 5026200, Note_on_c, 0, 73, 100
2, 5026320, Note_on_c, 0, 73, 0
2, 5026320, Note_on_c, 0, 70, 100
2, 5026440, Note_on_c, 0, 70, 0
2, 5026440, Note_on_c, 0, 69, 100
2, 5026680, Note_on_c, 0, 69, 0
2, 5026680, Note_on_c, 0, 75, 100
2, 5026800, Note_on_c, 0, 75, 0
2, 5026800, Note_on_c, 0, 74, 100
2, 5026920, Note_on_c, 0, 74, 0
2, 5026920, Note_on_c, 0, 73, 100
2, 5027100, Note_on_c, 0, 73, 0
2, 5027100, Note_on_c, 0, 76, 100
2, 5027160, Note_on_c, 0, 76, 0
2, 5027160, Note_on_c, 0, 79, 100
2, 5027220, Note_on_c, 0, 79, 0
2, 5027220, Note_on_c, 0, 82, 100
2, 5027280, Note_on_c, 0, 82, 0
2, 5027280, Note_on_c, 0, 81, 100
2, 5027400, Note_on_c, 0, 81, 0
2, 5027400, Note_on_c, 0, 79, 100
2, 5027550, Note_on_c, 0, 79, 0
2, 5027550, Note_on_c, 0, 77, 100
2, 5027580, Note_on_c, 0, 77, 0
2, 5027580, Note_on_c, 0, 76, 100
2, 5027610, Note_on_c, 0, 76, 0
2, 5027610, Note_on_c, 0, 74, 100
2, 5027640, Note_on_c, 0, 74, 0
2, 5027640, Note_on_c, 0, 73, 100
2, 5027760, Note_on_c, 0, 73, 0
2, 5027760, Note_on_c, 0, 74, 100
2, 5029320, Note_on_c, 0, 74, 0
2, 5029320, Note_on_c, 0, 75, 100
2, 5029440, Note_on_c, 0, 75, 0
2, 5029440, Note_on_c, 0, 74, 100
2, 5029455, Note_on_c, 0, 74, 0
2, 5029455, Note_on_c, 0, 73, 100
2, 5029500, Note_on_c, 0, 73, 0
2, 5029500, Note_on_c, 0, 74, 100
2, 5029680, Note_on_c, 0, 74, 0
2, 5029680, Note_on_c, 0, 82, 100
2, 5029740, Note_on_c, 0, 82, 0
2, 5029740, Note_on_c, 0, 81, 100
2, 5029980, Note_on_c, 0, 81, 0
2, 5029980, Note_on_c, 0, 79, 100
2, 5030040, Note_on_c, 0, 79, 0
2, 5030040, Note_on_c, 0, 77, 100
2, 5030100, Note_on_c, 0, 77, 0
2, 5030100, Note_on_c, 0, 75, 100
2, 5030160, Note_on_c, 0, 75, 0
2, 5030160, Note_on_c, 0, 74, 100
2, 5030280, Note_on_c, 0, 74, 0
2, 5030280, Note_on_c, 0, 73, 100
2, 5030520, Note_on_c, 0, 73, 0
2, 5030520, Note_on_c, 0, 72, 100
2, 5030760, Note_on_c, 0, 72, 0
2, 5030760, Note_on_c, 0, 74, 100
2, 5030880, Note_on_c, 0, 74, 0
2, 5030880, Note_on_c, 0, 72, 100
2, 5030895, Note_on_c, 0, 72, 0
2, 5030895, Note_on_c, 0, 71, 100
2, 5030940, Note_on_c, 0, 71, 0
2, 5030940, Note_on_c, 0, 72, 100
2, 5031120, Note_on_c, 0, 72, 0
2, 5031120, Note_on_c, 0, 80, 100
2, 5031180, Note_on_c, 0, 80, 0
2, 5031180, Note_on_c, 0, 79, 100
2, 5031420, Note_on_c, 0, 79, 0
2, 5031420, Note_on_c, 0, 77, 100
2, 5031480, Note_on_c, 0, 77, 0
2, 5031480, Note_on_c, 0, 75, 100
2, 5031540, Note_on_c, 0, 75, 0
2, 5031540, Note_on_c, 0, 73, 100
2, 5031600, Note_on_c, 0, 73, 0
2, 5031600, Note_on_c, 0, 72, 100
2, 5031720, Note_on_c, 0, 72, 0
2, 5031720, Note_on_c, 0, 71, 100
2, 5031960, Note_on_c, 0, 71, 0
2, 5031960, Note_on_c, 0, 70, 100
2, 5032200, Note_on_c, 0, 70, 0
2, 5032200, Note_on_c, 0, 72, 100
2, 5032320, Note_on_c, 0, 72, 0
2, 5032320, Note_on_c, 0, 70, 100
2, 5032335, Note_on_c, 0, 70, 0
2, 5032335, Note_on_c, 0, 69, 100
2, 5032380, Note_on_c, 0, 69, 0
2, 5032380, Note_on_c, 0, 70, 100
2, 5032440, Note_on_c, 0, 70, 0
2, 5032440, Note_on_c, 0, 78, 100
2, 5032560, Note_on_c, 0, 78, 0
2, 5032560, Note_on_c, 0, 79, 100
2, 5032680, Note_on_c, 0, 79, 0
2, 5032680, Note_on_c, 0, 73, 100
2, 5032920, Note_on_c, 0, 73, 0
2, 5032920, Note_on_c, 0, 74, 100
2, 5033160, Note_on_c, 0, 74, 0
2, 5033160, Note_on_c, 0, 67, 100
2, 5033520, Note_on_c, 0, 67, 0
2, 5033520, Note_on_c, 0, 69, 100
2, 5033640, Note_on_c, 0, 69, 0
2, 5033640, Note_on_c, 0, 70, 100
2, 5033700, Note_on_c, 0, 70, 0
2, 5033700, Note_on_c, 0, 69, 100
2, 5033760, Note_on_c, 0, 69, 0
2, 5033760, Note_on_c, 0, 62, 100
2, 5035080, Note_on_c, 0, 62, 0
2, 5035080, Note_on_c, 0, 63, 100
2, 5035200, Note_on_c, 0, 63, 0
2, 5035200, Note_on_c, 0, 62, 100
2, 5035215, Note_on_c, 0, 62, 0
2, 5035215, Note_on_c, 0, 61, 100
2, 5035260, Note_on_c, 0, 61, 0
2, 5035260, Note_on_c, 0, 62, 100
2, 5035440, Note_on_c, 0, 62, 0
2, 5035440, Note_on_c, 0, 74, 100
2, 5035500, Note_on_c, 0, 74, 0
2, 5035500, Note_on_c, 0, 72, 100
2, 5035740, Note_on_c, 0, 72, 0
2, 5035740, Note_on_c, 0, 70, 100
2, 5035800, Note_on_c, 0, 70, 0
2, 5035800, Note_on_c, 0, 69, 100
2, 5035860, Note_on_c, 0, 69, 0
2, 5035860, Note_on_c, 0, 67, 100
2, 5035920, Note_on_c, 0, 67, 0
2, 5035920, Note_on_c, 0, 65, 100
2, 5035980, Note_on_c, 0, 65, 0
2, 5035980, Note_on_c, 0, 68, 100
2, 5036040, Note_on_c, 0, 68, 0
2, 5036040, Note_on_c, 0, 62, 100
2, 5036220, Note_on_c, 0, 62, 0
2, 5036220, Note_on_c, 0, 65, 100
2, 5036280, Note_on_c, 0, 65, 0
2, 5036280, Note_on_c, 0, 63, 100
2, 5036520, Note_on_c, 0, 63, 0
2, 5036520, Note_on_c, 0, 65, 100
2, 5036640, Note_on_c, 0, 65, 0
2, 5036640, Note_on_c, 0, 63, 100
2, 5036655, Note_on_c, 0, 63, 0
2, 5036655, Note_on_c, 0, 62, 100
2, 5036700, Note_on_c, 0, 62, 0
2, 5036700, Note_on_c, 0, 63, 100
2, 5036880, Note_on_c, 0, 63, 0
2, 5036880, Note_on_c, 0, 75, 100
2, 5036940, Note_on_c, 0, 75, 0
2, 5036940, Note_on_c, 0, 74, 100
2, 5037180, Note_on_c, 0, 74, 0
2, 5037180, Note_on_c, 0, 72, 100
2, 5037240, Note_on_c, 0, 72, 0
2, 5037240, Note_on_c, 0, 70, 100
2, 5037300, Note_on_c, 0, 70, 0
2, 5037300, Note_on_c, 0, 69, 100
2, 5037360, Note_on_c, 0, 69, 0
2, 5037360, Note_on_c, 0, 67, 100
2, 5037420, Note_on_c, 0, 67, 0
2, 5037420, Note_on_c, 0, 70, 100
2, 5037480, Note_on_c, 0, 70, 0
2, 5037480, Note_on_c, 0, 64, 100
2, 5037660, Note_on_c, 0, 64, 0
2, 5037660, Note_on_c, 0, 67, 100
2, 5037720, Note_on_c, 0, 67, 0
2, 5037720, Note_on_c, 0, 66, 100
2, 5037960, Note_on_c, 0, 66, 0
2, 5037960, Note_on_c, 0, 67, 100
2, 5038080, Note_on_c, 0, 67, 0
2, 5038080, Note_on_c, 0, 66, 100
2, 5038095, Note_on_c, 0, 66, 0
2, 5038095, Note_on_c, 0, 64, 100
2, 5038140, Note_on_c, 0, 64, 0
2, 5038140, Note_on_c, 0, 66, 100
2, 5038200, Note_on_c, 0, 66, 0
2, 5038200, Note_on_c, 0, 71, 100
2, 5038320, Note_on_c, 0, 71, 0
2, 5038320, Note_on_c, 0, 72, 100
2, 5038400, Note_on_c, 0, 72, 0
2, 5038400, Note_on_c, 0, 75, 100
2, 5038480, Note_on_c, 0, 75, 0
2, 5038480, Note_on_c, 0, 73, 100
2, 5038560, Note_on_c, 0, 73, 0
2, 5038560, Note_on_c, 0, 74, 100
2, 5038640, Note_on_c, 0, 74, 0
2, 5038640, Note_on_c, 0, 66, 100
2, 5038720, Note_on_c, 0, 66, 0
2, 5038720, Note_on_c, 0, 70, 100
2, 5038800, Note_on_c, 0, 70, 0
2, 5038800, Note_on_c, 0, 69, 100
2, 5038880, Note_on_c, 0, 69, 0
2, 5038880, Note_on_c, 0, 62, 100
2, 5038960, Note_on_c, 0, 62, 0
2, 5038960, Note_on_c, 0, 63, 100
2, 5039040, Note_on_c, 0, 63, 0
2, 5039040, Note_on_c, 0, 59, 100
2, 5039120, Note_on_c, 0, 59, 0
2, 5039120, Note_on_c, 0, 60, 100
2, 5039200, Note_on_c, 0, 60, 0
2, 5039200, Note_on_c, 0, 58, 100
2, 5039400, Note_on_c, 0, 58, 0
2, 5039400, Note_on_c, 0, 57, 100
2, 5039460, Note_on_c, 0, 57, 0
2, 5039460, Note_on_c, 0, 58, 100
2, 5039520, Note_on_c, 0, 58, 0
2, 5039520, Note_on_c, 0, 62, 100
2, 5040780, Note_on_c, 0, 62, 0
2, 5040780, Note_on_c, 0, 64, 100
2, 5040840, Note_on_c, 0, 64, 0
2, 5040840, Note_on_c, 0, 66, 100
2, 5040900, Note_on_c, 0, 66, 0
2, 5040900, Note_on_c, 0, 67, 100
2, 5040960, Note_on_c, 0, 67, 0
2, 5040960, Note_on_c, 0, 70, 100
2, 5041020, Note_on_c, 0, 70, 0
2, 5041020, Note_on_c, 0, 69, 100
2, 5041080, Note_on_c, 0, 69, 0
2, 5041080, Note_on_c, 0, 70, 100
2, 5041320, Note_on_c, 0, 70, 0
2, 5041320, Note_on_c, 0, 71, 100
2, 5041560, Note_on_c, 0, 71, 0
2, 5041560, Note_on_c, 0, 72, 100
2, 5041680, Note_on_c, 0, 72, 0
2, 5041680, Note_on_c, 0, 73, 100
2, 5041800, Note_on_c, 0, 73, 0
2, 5041800, Note_on_c, 0, 74, 100
2, 5042040, Note_on_c, 0, 74, 0
2, 5042040, Note_on_c, 0, 75, 100
2, 5042160, Note_on_c, 0, 75, 0
2, 5042160, Note_on_c, 0, 76, 100
2, 5042280, Note_on_c, 0, 76, 0
2, 5042280, Note_on_c, 0, 82, 100
2, 5042460, Note_on_c, 0, 82, 0
2, 5042460, Note_on_c, 0, 81, 100
2, 5042520, Note_on_c, 0, 81, 0
2, 5042520, Note_on_c, 0, 79, 100
2, 5042580, Note_on_c, 0, 79, 0
2, 5042580, Note_on_c, 0, 78, 100
2, 5042640, Note_on_c, 0, 78, 0
2, 5042640, Note_on_c, 0, 76, 100
2, 5042700, Note_on_c, 0, 76, 0
2, 5042700, Note_on_c, 0, 74, 100
2, 5043000, Note_on_c, 0, 74, 0
2, 5043000, Note_on_c, 0, 86, 100
2, 5043120, Note_on_c, 0, 86, 0
2, 5043120, Note_on_c, 0, 85, 100
2, 5043240, Note_on_c, 0, 85, 0
2, 5043240, Note_on_c, 0, 84, 100
2, 5043480, Note_on_c, 0, 84, 0
2, 5043480, Note_on_c, 0, 83, 100
2, 5043600, Note_on_c, 0, 83, 0
2, 5043600, Note_on_c, 0, 82, 100
2, 5043720, Note_on_c, 0, 82, 0
2, 5043720, Note_on_c, 0, 81, 100
2, 5043900, Note_on_c, 0, 81, 0
2, 5043900, Note_on_c, 0, 80, 100
2, 5043960, Note_on_c, 0, 80, 0
2, 5043960, Note_on_c, 0, 81, 100
2, 5044200, Note_on_c, 0, 81, 0
2, 5044200, Note_on_c, 0, 74, 100
2, 5044380, Note_on_c, 0, 74, 0
2, 5044380, Note_on_c, 0, 72, 100
2, 5044440, Note_on_c, 0, 72, 0
2, 5044440, Note_on_c, 0, 70, 100
2, 5044500, Note_on_c, 0, 70, 0
2, 5044500, Note_on_c, 0, 72, 100
2, 5044560, Note_on_c, 0, 72, 0
2, 5044560, Note_on_c, 0, 69, 100
2, 5044620, Note_on_c, 0, 69, 0
2, 5044620, Note_on_c, 0, 70, 100
2, 5044680, Note_on_c, 0, 70, 0
2, 5044680, Note_on_c, 0, 67, 100
2, 5044740, Note_on_c, 0, 67, 0
2, 5044740, Note_on_c, 0, 65, 100
2, 5044800, Note_on_c, 0, 65, 0
2, 5044800, Note_on_c, 0, 64, 100
2, 5044860, Note_on_c, 0, 64, 0
2, 5044860, Note_on_c, 0, 65, 100
2, 5044920, Note_on_c, 0, 65, 0
2, 5044920, Note_on_c, 0, 74, 100
2, 5044980, Note_on_c, 0, 74, 0
2, 5044980, Note_on_c, 0, 67, 100
2, 5045040, Note_on_c, 0, 67, 0
2, 5045040, Note_on_c, 0, 65, 100
2, 5045055, Note_on_c, 0, 65, 0
2, 5045055, Note_on_c, 0, 67, 100
2, 5045070, Note_on_c, 0, 67, 0
2, 5045070, Note_on_c, 0, 65, 100
2, 5045085, Note_on_c, 0, 65, 0
2, 5045085, Note_on_c, 0, 64, 100
2, 5045100, Note_on_c, 0, 64, 0
2, 5045100, Note_on_c, 0, 65, 100
2, 5045160, Note_on_c, 0, 65, 0
2, 5045160, Note_on_c, 0, 64, 100
2, 5045280, Note_on_c, 0, 64, 0
2, 5045280, Note_on_c, 0, 62, 100
2, 5045580, Note_on_c, 0, 62, 0
2, 5045580, Note_on_c, 0, 61, 100
2, 5045640, Note_on_c, 0, 61, 0
2, 5045640, Note_on_c, 0, 62, 100
2, 5045700, Note_on_c, 0, 62, 0
2, 5045700, Note_on_c, 0, 64, 100
2, 5045760, Note_on_c, 0, 64, 0
2, 5045760, Note_on_c, 0, 65, 100
2, 5045820, Note_on_c, 0, 65, 0
2, 5045820, Note_on_c, 0, 67, 100
2, 5045880, Note_on_c, 0, 67, 0
2, 5045880, Note_on_c, 0, 69, 100
2, 5045940, Note_on_c, 0, 69, 0
2, 5045940, Note_on_c, 0, 70, 100
2, 5046000, Note_on_c, 0, 70, 0
2, 5046000, Note_on_c, 0, 69, 100
2, 5046060, Note_on_c, 0, 69, 0
2, 5046060, Note_on_c, 0, 74, 100
2, 5046120, Note_on_c, 0, 74, 0
2, 5046120, Note_on_c, 0, 73, 100
2, 5046300, Note_on_c, 0, 73, 0
2, 5046300, Note_on_c, 0, 76, 100
2, 5046360, Note_on_c, 0, 76, 0
2, 5046360, Note_on_c, 0, 69, 100
2, 5046600, Note_on_c, 0, 69, 0
2, 5046600, Note_on_c, 0, 70, 100
2, 5046720, Note_on_c, 0, 70, 0
2, 5046720, Note_on_c, 0, 69, 100
2, 5046735, Note_on_c, 0, 69, 0
2, 5046735, Note_on_c, 0, 68, 100
2, 5046780, Note_on_c, 0, 68, 0
2, 5046780, Note_on_c, 0, 69, 100
2, 5046960, Note_on_c, 0, 69, 0
2, 5046960, Note_on_c, 0, 81, 100
2, 5047020, Note_on_c, 0, 81, 0
2, 5047020, Note_on_c, 0, 82, 100
2, 5047260, Note_on_c, 0, 82, 0
2, 5047260, Note_on_c, 0, 81, 100
2, 5047320, Note_on_c, 0, 81, 0
2, 5047320, Note_on_c, 0, 80, 100
2, 5047380, Note_on_c, 0, 80, 0
2, 5047380, Note_on_c, 0, 81, 100
2, 5047440, Note_on_c, 0, 81, 0
2, 5047440, Note_on_c, 0, 74, 100
2, 5047500, Note_on_c, 0, 74, 0
2, 5047500, Note_on_c, 0, 72, 100
2, 5047560, Note_on_c, 0, 72, 0
2, 5047560, Note_on_c, 0, 70, 100
2, 5047620, Note_on_c, 0, 70, 0
2, 5047620, Note_on_c, 0, 72, 100
2, 5047740, Note_on_c, 0, 72, 0
2, 5047740, Note_on_c, 0, 70, 100
2, 5047800, Note_on_c, 0, 70, 0
2, 5047800, Note_on_c, 0, 69, 100
2, 5047920, Note_on_c, 0, 69, 0
2, 5047920, Note_on_c, 0, 70, 100
2, 5048040, Note_on_c, 0, 70, 0
2, 5048040, Note_on_c, 0, 72, 100
2, 5048160, Note_on_c, 0, 72, 0
2, 5048160, Note_on_c, 0, 70, 100
2, 5048175, Note_on_c, 0, 70, 0
2, 5048175, Note_on_c, 0, 69, 100
2, 5048220, Note_on_c, 0, 69, 0
2, 5048220, Note_on_c, 0, 70, 100
2, 5048400, Note_on_c, 0, 70, 0
2, 5048400, Note_on_c, 0, 82, 100
2, 5048460, Note_on_c, 0, 82, 0
2, 5048460, Note_on_c, 0, 75, 100
2, 5048700, Note_on_c, 0, 75, 0
2, 5048700, Note_on_c, 0, 74, 100
2, 5048760, Note_on_c, 0, 74, 0
2, 5048760, Note_on_c, 0, 73, 100
2, 5048820, Note_on_c, 0, 73, 0
2, 5048820, Note_on_c, 0, 74, 100
2, 5048880, Note_on_c, 0, 74, 0
2, 5048880, Note_on_c, 0, 84, 100
2, 5048940, Note_on_c, 0, 84, 0
2, 5048940, Note_on_c, 0, 83, 100
2, 5049000, Note_on_c, 0, 83, 0
2, 5049000, Note_on_c, 0, 74, 100
2, 5049240, Note_on_c, 0, 74, 0
2, 5049240, Note_on_c, 0, 73, 100
2, 5049360, Note_on_c, 0, 73, 0
2, 5049360, Note_on_c, 0, 70, 100
2, 5049480, Note_on_c, 0, 70, 0
2, 5049480, Note_on_c, 0, 69, 100
2, 5049720, Note_on_c, 0, 69, 0
2, 5049720, Note_on_c, 0, 75, 100
2, 5049840, Note_on_c, 0, 75, 0
2, 5049840, Note_on_c, 0, 74, 100
2, 5049960, Note_on_c, 0, 74, 0
2, 5049960, Note_on_c, 0, 73, 100
2, 5050140, Note_on_c, 0, 73, 0
2, 5050140, Note_on_c, 0, 76, 100
2, 5050200, Note_on_c, 0, 76, 0
2, 5050200, Note_on_c, 0, 79, 100
2, 5050260, Note_on_c, 0, 79, 0
2, 5050260, Note_on_c, 0, 82, 100
2, 5050320, Note_on_c, 0, 82, 0
2, 5050320, Note_on_c, 0, 81, 100
2, 5050440, Note_on_c, 0, 81, 0
2, 5050440, Note_on_c, 0, 79, 100
2, 5050590, Note_on_c, 0, 79, 0
2, 5050590, Note_on_c, 0, 77, 100
2, 5050620, Note_on_c, 0, 77, 0
2, 5050620, Note_on_c, 0, 76, 100
2, 5050650, Note_on_c, 0, 76, 0
2, 5050650, Note_on_c, 0, 74, 100
2, 5050680, Note_on_c, 0, 74, 0
2, 5050680, Note_on_c, 0, 73, 100
2, 5050800, Note_on_c, 0, 73, 0
2, 5050800, Note_on_c, 0, 74, 100
2, 5051040, Note_on_c, 0, 74, 0
2, 5051040, Note_on_c, 0, 81, 100
2, 5052360, Note_on_c, 0, 81, 0
2, 5052360, Note_on_c, 0, 82, 100
2, 5052480, Note_on_c, 0, 82, 0
2, 5052480, Note_on_c, 0, 81, 100
2, 5052495, Note_on_c, 0, 81, 0
2, 5052495, Note_on_c, 0, 80, 100
2, 5052540, Note_on_c, 0, 80, 0
2, 5052540, Note_on_c, 0, 81, 100
2, 5052600, Note_on_c, 0, 81, 0
2, 5052600, Note_on_c, 0, 75, 100
2, 5052720, Note_on_c, 0, 75, 0
2, 5052720, Note_on_c, 0, 74, 100
2, 5052840, Note_on_c, 0, 74, 0
2, 5052840, Note_on_c, 0, 76, 100
2, 5053020, Note_on_c, 0, 76, 0
2, 5053020, Note_on_c, 0, 78, 100
2, 5053080, Note_on_c, 0, 78, 0
2, 5053080, Note_on_c, 0, 79, 100
2, 5053140, Note_on_c, 0, 79, 0
2, 5053140, Note_on_c, 0, 81, 100
2, 5053200, Note_on_c, 0, 81, 0
2, 5053200, Note_on_c, 0, 72, 100
2, 5053260, Note_on_c, 0, 72, 0
2, 5053260, Note_on_c, 0, 75, 100
2, 5053320, Note_on_c, 0, 75, 0
2, 5053320, Note_on_c, 0, 74, 100
2, 5053560, Note_on_c, 0, 74, 0
2, 5053560, Note_on_c, 0, 77, 100
2, 5053800, Note_on_c, 0, 77, 0
2, 5053800, Note_on_c, 0, 79, 100
2, 5053920, Note_on_c, 0, 79, 0
2, 5053920, Note_on_c, 0, 77, 100
2, 5053935, Note_on_c, 0, 77, 0
2, 5053935, Note_on_c, 0, 75, 100
2, 5053980, Note_on_c, 0, 75, 0
2, 5053980, Note_on_c, 0, 77, 100
2, 5054040, Note_on_c, 0, 77, 0
2, 5054040, Note_on_c, 0, 68, 100
2, 5054160, Note_on_c, 0, 68, 0
2, 5054160, Note_on_c, 0, 67, 100
2, 5054280, Note_on_c, 0, 67, 0
2, 5054280, Note_on_c, 0, 69, 100
2, 5054460, Note_on_c, 0, 69, 0
2, 5054460, Note_on_c, 0, 71, 100
2, 5054520, Note_on_c, 0, 71, 0
2, 5054520, Note_on_c, 0, 72, 100
2, 5054580, Note_on_c, 0, 72, 0
2, 5054580, Note_on_c, 0, 74, 100
2, 5054640, Note_on_c, 0, 74, 0
2, 5054640, Note_on_c, 0, 65, 100
2, 5054700, Note_on_c, 0, 65, 0
2, 5054700, Note_on_c, 0, 68, 100
2, 5054760, Note_on_c, 0, 68, 0
2, 5054760, Note_on_c, 0, 67, 100
2, 5055000, Note_on_c, 0, 67, 0
2, 5055000, Note_on_c, 0, 72, 100
2, 5055240, Note_on_c, 0, 72, 0
2, 5055240, Note_on_c, 0, 71, 100
2, 5055480, Note_on_c, 0, 71, 0
2, 5055480, Note_on_c, 0, 72, 100
2, 5055600, Note_on_c, 0, 72, 0
2, 5055600, Note_on_c, 0, 75, 100
2, 5055660, Note_on_c, 0, 75, 0
2, 5055660, Note_on_c, 0, 73, 100
2, 5055720, Note_on_c, 0, 73, 0
2, 5055720, Note_on_c, 0, 72, 100
2, 5055960, Note_on_c, 0, 72, 0
2, 5055960, Note_on_c, 0, 77, 100
2, 5056140, Note_on_c, 0, 77, 0
2, 5056140, Note_on_c, 0, 75, 100
2, 5056200, Note_on_c, 0, 75, 0
2, 5056200, Note_on_c, 0, 77, 100
2, 5056380, Note_on_c, 0, 77, 0
2, 5056380, Note_on_c, 0, 75, 100
2, 5056440, Note_on_c, 0, 75, 0
2, 5056440, Note_on_c, 0, 74, 100
2, 5056500, Note_on_c, 0, 74, 0
2, 5056500, Note_on_c, 0, 75, 100
2, 5056560, Note_on_c, 0, 75, 0
2, 5056560, Note_on_c, 0, 81, 100
2, 5056620, Note_on_c, 0, 81, 0
2, 5056620, Note_on_c, 0, 82, 100
2, 5056680, Note_on_c, 0, 82, 0
2, 5056680, Note_on_c, 0, 75, 100
2, 5056800, Note_on_c, 0, 75, 0
2, 5056800, Note_on_c, 0, 74, 100
2, 5056920, Note_on_c, 0, 74, 0
2, 5056920, Note_on_c, 0, 70, 100
2, 5058120, Note_on_c, 0, 70, 0
2, 5058120, Note_on_c, 0, 71, 100
2, 5058240, Note_on_c, 0, 71, 0
2, 5058240, Note_on_c, 0, 70, 100
2, 5058255, Note_on_c, 0, 70, 0
2, 5058255, Note_on_c, 0, 68, 100
2, 5058300, Note_on_c, 0, 68, 0
2, 5058300, Note_on_c, 0, 70, 100
2, 5058480, Note_on_c, 0, 70, 0
2, 5058480, Note_on_c, 0, 82, 100
2, 5058600, Note_on_c, 0, 82, 0
2, 5058600, Note_on_c, 0, 83, 100
2, 5058780, Note_on_c, 0, 83, 0
2, 5058780, Note_on_c, 0, 82, 100
2, 5058840, Note_on_c, 0, 82, 0
2, 5058840, Note_on_c, 0, 80, 100
2, 5058900, Note_on_c, 0, 80, 0
2, 5058900, Note_on_c, 0, 82, 100
2, 5058960, Note_on_c, 0, 82, 0
2, 5058960, Note_on_c, 0, 73, 100
2, 5059080, Note_on_c, 0, 73, 0
2, 5059080, Note_on_c, 0, 71, 100
2, 5059260, Note_on_c, 0, 71, 0
2, 5059260, Note_on_c, 0, 70, 100
2, 5059320, Note_on_c, 0, 70, 0
2, 5059320, Note_on_c, 0, 71, 100
2, 5059560, Note_on_c, 0, 71, 0
2, 5059560, Note_on_c, 0, 73, 100
2, 5059680, Note_on_c, 0, 73, 0
2, 5059680, Note_on_c, 0, 71, 100
2, 5059695, Note_on_c, 0, 71, 0
2, 5059695, Note_on_c, 0, 70, 100
2, 5059740, Note_on_c, 0, 70, 0
2, 5059740, Note_on_c, 0, 71, 100
2, 5059920, Note_on_c, 0, 71, 0
2, 5059920, Note_on_c, 0, 83, 100
2, 5060040, Note_on_c, 0, 83, 0
2, 5060040, Note_on_c, 0, 76, 100
2, 5060220, Note_on_c, 0, 76, 0
2, 5060220, Note_on_c, 0, 75, 100
2, 5060280, Note_on_c, 0, 75, 0
2, 5060280, Note_on_c, 0, 74, 100
2, 5060340, Note_on_c, 0, 74, 0
2, 5060340, Note_on_c, 0, 75, 100
2, 5060400, Note_on_c, 0, 75, 0
2, 5060400, Note_on_c, 0, 85, 100
2, 5060460, Note_on_c, 0, 85, 0
2, 5060460, Note_on_c, 0, 84, 100
2, 5060520, Note_on_c, 0, 84, 0
2, 5060520, Note_on_c, 0, 75, 100
2, 5060760, Note_on_c, 0, 75, 0
2, 5060760, Note_on_c, 0, 74, 100
2, 5060880, Note_on_c, 0, 74, 0
2, 5060880, Note_on_c, 0, 71, 100
2, 5061000, Note_on_c, 0, 71, 0
2, 5061000, Note_on_c, 0, 70, 100
2, 5061240, Note_on_c, 0, 70, 0
2, 5061240, Note_on_c, 0, 76, 100
2, 5061360, Note_on_c, 0, 76, 0
2, 5061360, Note_on_c, 0, 75, 100
2, 5061480, Note_on_c, 0, 75, 0
2, 5061480, Note_on_c, 0, 74, 100
2, 5061660, Note_on_c, 0, 74, 0
2, 5061660, Note_on_c, 0, 77, 100
2, 5061720, Note_on_c, 0, 77, 0
2, 5061720, Note_on_c, 0, 80, 100
2, 5061780, Note_on_c, 0, 80, 0
2, 5061780, Note_on_c, 0, 83, 100
2, 5061840, Note_on_c, 0, 83, 0
2, 5061840, Note_on_c, 0, 82, 100
2, 5061960, Note_on_c, 0, 82, 0
2, 5061960, Note_on_c, 0, 80, 100
2, 5062110, Note_on_c, 0, 80, 0
2, 5062110, Note_on_c, 0, 78, 100
2, 5062140, Note_on_c, 0, 78, 0
2, 5062140, Note_on_c, 0, 77, 100
2, 5062170, Note_on_c, 0, 77, 0
2, 5062170, Note_on_c, 0, 75, 100
2, 5062200, Note_on_c, 0, 75, 0
2, 5062200, Note_on_c, 0, 74, 100
2, 5062320, Note_on_c, 0, 74, 0
2, 5062320, Note_on_c, 0, 75, 100
2, 5062560, Note_on_c, 0, 75, 0
2, 5062560, Note_on_c, 0, 67, 100
2, 5063880, Note_on_c, 0, 67, 0
2, 5063880, Note_on_c, 0, 68, 100
2, 5064000, Note_on_c, 0, 68, 0
2, 5064000, Note_on_c, 0, 67, 100
2, 5064015, Note_on_c, 0, 67, 0
2, 5064015, Note_on_c, 0, 66, 100
2, 5064060, Note_on_c, 0, 66, 0
2, 5064060, Note_on_c, 0, 67, 100
2, 5064240, Note_on_c, 0, 67, 0
2, 5064240, Note_on_c, 0, 75, 100
2, 5064300, Note_on_c, 0, 75, 0
2, 5064300, Note_on_c, 0, 74, 100
2, 5064540, Note_on_c, 0, 74, 0
2, 5064540, Note_on_c, 0, 72, 100
2, 5064600, Note_on_c, 0, 72, 0
2, 5064600, Note_on_c, 0, 70, 100
2, 5064660, Note_on_c, 0, 70, 0
2, 5064660, Note_on_c, 0, 68, 100
2, 5064720, Note_on_c, 0, 68, 0
2, 5064720, Note_on_c, 0, 67, 100
2, 5064840, Note_on_c, 0, 67, 0
2, 5064840, Note_on_c, 0, 66, 100
2, 5065080, Note_on_c, 0, 66, 0
2, 5065080, Note_on_c, 0, 65, 100
2, 5065320, Note_on_c, 0, 65, 0
2, 5065320, Note_on_c, 0, 67, 100
2, 5065440, Note_on_c, 0, 67, 0
2, 5065440, Note_on_c, 0, 65, 100
2, 5065455, Note_on_c, 0, 65, 0
2, 5065455, Note_on_c, 0, 64, 100
2, 5065500, Note_on_c, 0, 64, 0
2, 5065500, Note_on_c, 0, 65, 100
2, 5065560, Note_on_c, 0, 65, 0
2, 5065560, Note_on_c, 0, 73, 100
2, 5065680, Note_on_c, 0, 73, 0
2, 5065680, Note_on_c, 0, 72, 100
2, 5065980, Note_on_c, 0, 72, 0
2, 5065980, Note_on_c, 0, 70, 100
2, 5066040, Note_on_c, 0, 70, 0
2, 5066040, Note_on_c, 0, 68, 100
2, 5066100, Note_on_c, 0, 68, 0
2, 5066100, Note_on_c, 0, 66, 100
2, 5066160, Note_on_c, 0, 66, 0
2, 5066160, Note_on_c, 0, 65, 100
2, 5066280, Note_on_c, 0, 65, 0
2, 5066280, Note_on_c, 0, 64, 100
2, 5066520, Note_on_c, 0, 64, 0
2, 5066520, Note_on_c, 0, 63, 100
2, 5066760, Note_on_c, 0, 63, 0
2, 5066760, Note_on_c, 0, 65, 100
2, 5066880, Note_on_c, 0, 65, 0
2, 5066880, Note_on_c, 0, 63, 100
2, 5066895, Note_on_c, 0, 63, 0
2, 5066895, Note_on_c, 0, 62, 100
2, 5066940, Note_on_c, 0, 62, 0
2, 5066940, Note_on_c, 0, 63, 100
2, 5067000, Note_on_c, 0, 63, 0
2, 5067000, Note_on_c, 0, 72, 100
2, 5067120, Note_on_c, 0, 72, 0
2, 5067120, Note_on_c, 0, 70, 100
2, 5067420, Note_on_c, 0, 70, 0
2, 5067420, Note_on_c, 0, 68, 100
2, 5067480, Note_on_c, 0, 68, 0
2, 5067480, Note_on_c, 0, 67, 100
2, 5067540, Note_on_c, 0, 67, 0
2, 5067540, Note_on_c, 0, 66, 100
2, 5067600, Note_on_c, 0, 66, 0
2, 5067600, Note_on_c, 0, 75, 100
2, 5067720, Note_on_c, 0, 75, 0
2, 5067720, Note_on_c, 0, 74, 100
2, 5067900, Note_on_c, 0, 74, 0
2, 5067900, Note_on_c, 0, 73, 100
2, 5068080, Note_on_c, 0, 73, 0
2, 5068080, Note_on_c, 0, 74, 100
2, 5068200, Note_on_c, 0, 74, 0
2, 5068200, Note_on_c, 0, 63, 100
2, 5068320, Note_on_c, 0, 63, 0
2, 5068320, Note_on_c, 0, 62, 100
2, 5068440, Note_on_c, 0, 62, 0
2, 5068440, Note_on_c, 0, 64, 100
2, 5068620, Note_on_c, 0, 64, 0
2, 5068620, Note_on_c, 0, 66, 100
2, 5068680, Note_on_c, 0, 66, 0
2, 5068680, Note_on_c, 0, 67, 100
2, 5068740, Note_on_c, 0, 67, 0
2, 5068740, Note_on_c, 0, 69, 100
2, 5068800, Note_on_c, 0, 69, 0
2, 5068800, Note_on_c, 0, 70, 100
2, 5068860, Note_on_c, 0, 70, 0
2, 5068860, Note_on_c, 0, 72, 100
2, 5068920, Note_on_c, 0, 72, 0
2, 5068920, Note_on_c, 0, 74, 100
2, 5068980, Note_on_c, 0, 74, 0
2, 5068980, Note_on_c, 0, 75, 100
2, 5069040, Note_on_c, 0, 75, 0
2, 5069040, Note_on_c, 0, 74, 100
2, 5069100, Note_on_c, 0, 74, 0
2, 5069100, Note_on_c, 0, 79, 100
2, 5069160, Note_on_c, 0, 79, 0
2, 5069160, Note_on_c, 0, 78, 100
2, 5069340, Note_on_c, 0, 78, 0
2, 5069340, Note_on_c, 0, 81, 100
2, 5069400, Note_on_c, 0, 81, 0
2, 5069400, Note_on_c, 0, 74, 100
2, 5069640, Note_on_c, 0, 74, 0
2, 5069640, Note_on_c, 0, 75, 100
2, 5069760, Note_on_c, 0, 75, 0
2, 5069760, Note_on_c, 0, 74, 100
2, 5069775, Note_on_c, 0, 74, 0
2, 5069775, Note_on_c, 0, 73, 100
2, 5069820, Note_on_c, 0, 73, 0
2, 5069820, Note_on_c, 0, 74, 100
2, 5069880, Note_on_c, 0, 74, 0
2, 5069880, Note_on_c, 0, 86, 100
2, 5070000, Note_on_c, 0, 86, 0
2, 5070000, Note_on_c, 0, 84, 100
2, 5070300, Note_on_c, 0, 84, 0
2, 5070300, Note_on_c, 0, 82, 100
2, 5070360, Note_on_c, 0, 82, 0
2, 5070360, Note_on_c, 0, 81, 100
2, 5070420, Note_on_c, 0, 81, 0
2, 5070420, Note_on_c, 0, 79, 100
2, 5070480, Note_on_c, 0, 79, 0
2, 5070480, Note_on_c, 0, 86, 100
2, 5070540, Note_on_c, 0, 86, 0
2, 5070540, Note_on_c, 0, 77, 100
2, 5070600, Note_on_c, 0, 77, 0
2, 5070600, Note_on_c, 0, 75, 100
2, 5070780, Note_on_c, 0, 75, 0
2, 5070780, Note_on_c, 0, 74, 100
2, 5070840, Note_on_c, 0, 74, 0
2, 5070840, Note_on_c, 0, 72, 100
2, 5070900, Note_on_c, 0, 72, 0
2, 5070900, Note_on_c, 0, 74, 100
2, 5070960, Note_on_c, 0, 74, 0
2, 5070960, Note_on_c, 0, 80, 100
2, 5071020, Note_on_c, 0, 80, 0
2, 5071020, Note_on_c, 0, 79, 100
2, 5071080, Note_on_c, 0, 79, 0
2, 5071080, Note_on_c, 0, 77, 100
2, 5071140, Note_on_c, 0, 77, 0
2, 5071140, Note_on_c, 0, 75, 100
2, 5071200, Note_on_c, 0, 75, 0
2, 5071200, Note_on_c, 0, 74, 100
2, 5071260, Note_on_c, 0, 74, 0
2, 5071260, Note_on_c, 0, 72, 100
2, 5071320, Note_on_c, 0, 72, 0
2, 5071320, Note_on_c, 0, 71, 100
2, 5071380, Note_on_c, 0, 71, 0
2, 5071380, Note_on_c, 0, 72, 100
2, 5071440, Note_on_c, 0, 72, 0
2, 5071440, Note_on_c, 0, 77, 100
2, 5071500, Note_on_c, 0, 77, 0
2, 5071500, Note_on_c, 0, 75, 100
2, 5071560, Note_on_c, 0, 75, 0
2, 5071560, Note_on_c, 0, 74, 100
2, 5071620, Note_on_c, 0, 74, 0
2, 5071620, Note_on_c, 0, 72, 100
2, 5071680, Note_on_c, 0, 72, 0
2, 5071680, Note_on_c, 0, 70, 100
2, 5071740, Note_on_c, 0, 70, 0
2, 5071740, Note_on_c, 0, 69, 100
2, 5071800, Note_on_c, 0, 69, 0
2, 5071800, Note_on_c, 0, 67, 100
2, 5071860, Note_on_c, 0, 67, 0
2, 5071860, Note_on_c, 0, 69, 100
2, 5071920, Note_on_c, 0, 69, 0
2, 5071920, Note_on_c, 0, 74, 100
2, 5071980, Note_on_c, 0, 74, 0
2, 5071980, Note_on_c, 0, 72, 100
2, 5072040, Note_on_c, 0, 72, 0
2, 5072040, Note_on_c, 0, 70, 100
2, 5072100, Note_on_c, 0, 70, 0
2, 5072100, Note_on_c, 0, 69, 100
2, 5072160, Note_on_c, 0, 69, 0
2, 5072160, Note_on_c, 0, 67, 100
2, 5072220, Note_on_c, 0, 67, 0
2, 5072220, Note_on_c, 0, 66, 100
2, 5072280, Note_on_c, 0, 66, 0
2, 5072280, Note_on_c, 0, 64, 100
2, 5072340, Note_on_c, 0, 64, 0
2, 5072340, Note_on_c, 0, 66, 100
2, 5072400, Note_on_c, 0, 66, 0
2, 5072400, Note_on_c, 0, 70, 100
2, 5072460, Note_on_c, 0, 70, 0
2, 5072460, Note_on_c, 0, 69, 100
2, 5072520, Note_on_c, 0, 69, 0
2, 5072520, Note_on_c, 0, 67, 100
2, 5072580, Note_on_c, 0, 67, 0
2, 5072580, Note_on_c, 0, 66, 100
2, 5072640, Note_on_c, 0, 66, 0
2, 5072640, Note_on_c, 0, 64, 100
2, 5072700, Note_on_c, 0, 64, 0
2, 5072700, Note_on_c, 0, 62, 100
2, 5072760, Note_on_c, 0, 62, 0
2, 5072760, Note_on_c, 0, 61, 100
2, 5072820, Note_on_c, 0, 61, 0
2, 5072820, Note_on_c, 0, 62, 100
2, 5072880, Note_on_c, 0, 62, 0
2, 5072880, Note_on_c, 0, 67, 100
2, 5072940, Note_on_c, 0, 67, 0
2, 5072940, Note_on_c, 0, 66, 100
2, 5073000, Note_on_c, 0, 66, 0
2, 5073000, Note_on_c, 0, 64, 100
2, 5073060, Note_on_c, 0, 64, 0
2, 5073060, Note_on_c, 0, 62, 100
2, 5073120, Note_on_c, 0, 62, 0
2, 5073120, Note_on_c, 0, 60, 100
2, 5073180, Note_on_c, 0, 60, 0
2, 5073180, Note_on_c, 0, 58, 100
2, 5073240, Note_on_c, 0, 58, 0
2, 5073240, Note_on_c, 0, 57, 100
2, 5073300, Note_on_c, 0, 57, 0
2, 5073300, Note_on_c, 0, 58, 100
2, 5073360, Note_on_c, 0, 58, 0
2, 5073360, Note_on_c, 0, 63, 100
2, 5073420, Note_on_c, 0, 63, 0
2, 5073420, Note_on_c, 0, 62, 100
2, 5073480, Note_on_c, 0, 62, 0
2, 5073480, Note_on_c, 0, 60, 100
2, 5073540, Note_on_c, 0, 60, 0
2, 5073540, Note_on_c, 0, 58, 100
2, 5073600, Note_on_c, 0, 58, 0
2, 5073600, Note_on_c, 0, 57, 100
2, 5073660, Note_on_c, 0, 57, 0
2, 5073660, Note_on_c, 0, 55, 100
2, 5073720, Note_on_c, 0, 55, 0
2, 5073720, Note_on_c, 0, 54, 100
2, 5073840, Note_on_c, 0, 54, 0
2, 5073840, Note_on_c, 0, 55, 100
2, 5073960, Note_on_c, 0, 55, 0
2, 5073960, Note_on_c, 0, 81, 100
2, 5075400, Note_on_c, 0, 81, 0
2, 5075400, Note_on_c, 0, 82, 100
2, 5075520, Note_on_c, 0, 82, 0
2, 5075520, Note_on_c, 0, 81, 100
2, 5075535, Note_on_c, 0, 81, 0
2, 5075535, Note_on_c, 0, 80, 100
2, 5075580, Note_on_c, 0, 80, 0
2, 5075580, Note_on_c, 0, 81, 100
2, 5075640, Note_on_c, 0, 81, 0
2, 5075640, Note_on_c, 0, 75, 100
2, 5075760, Note_on_c, 0, 75, 0
2, 5075760, Note_on_c, 0, 74, 100
2, 5075880, Note_on_c, 0, 74, 0
2, 5075880, Note_on_c, 0, 76, 100
2, 5076060, Note_on_c, 0, 76, 0
2, 5076060, Note_on_c, 0, 78, 100
2, 5076120, Note_on_c, 0, 78, 0
2, 5076120, Note_on_c, 0, 79, 100
2, 5076180, Note_on_c, 0, 79, 0
2, 5076180, Note_on_c, 0, 81, 100
2, 5076240, Note_on_c, 0, 81, 0
2, 5076240, Note_on_c, 0, 72, 100
2, 5076300, Note_on_c, 0, 72, 0
2, 5076300, Note_on_c, 0, 75, 100
2, 5076360, Note_on_c, 0, 75, 0
2, 5076360, Note_on_c, 0, 74, 100
2, 5076600, Note_on_c, 0, 74, 0
2, 5076600, Note_on_c, 0, 77, 100
2, 5076840, Note_on_c, 0, 77, 0
2, 5076840, Note_on_c, 0, 79, 100
2, 5076960, Note_on_c, 0, 79, 0
2, 5076960, Note_on_c, 0, 77, 100
2, 5076975, Note_on_c, 0, 77, 0
2, 5076975, Note_on_c, 0, 75, 100
2, 5077020, Note_on_c, 0, 75, 0
2, 5077020, Note_on_c, 0, 77, 100
2, 5077080, Note_on_c, 0, 77, 0
2, 5077080, Note_on_c, 0, 68, 100
2, 5077200, Note_on_c, 0, 68, 0
2, 5077200, Note_on_c, 0, 67, 100
2, 5077320, Note_on_c, 0, 67, 0
2, 5077320, Note_on_c, 0, 69, 100
2, 5077500, Note_on_c, 0, 69, 0
2, 5077500, Note_on_c, 0, 71, 100
2, 5077560, Note_on_c, 0, 71, 0
2, 5077560, Note_on_c, 0, 72, 100
2, 5077620, Note_on_c, 0, 72, 0
2, 5077620, Note_on_c, 0, 74, 100
2, 5077680, Note_on_c, 0, 74, 0
2, 5077680, Note_on_c, 0, 65, 100
2, 5077740, Note_on_c, 0, 65, 0
2, 5077740, Note_on_c, 0, 68, 100
2, 5077800, Note_on_c, 0, 68, 0
2, 5077800, Note_on_c, 0, 67, 100
2, 5078040, Note_on_c, 0, 67, 0
2, 5078040, Note_on_c, 0, 72, 100
2, 5078280, Note_on_c, 0, 72, 0
2, 5078280, Note_on_c, 0, 71, 100
2, 5078520, Note_on_c, 0, 71, 0
2, 5078520, Note_on_c, 0, 72, 100
2, 5078640, Note_on_c, 0, 72, 0
2, 5078640, Note_on_c, 0, 75, 100
2, 5078700, Note_on_c, 0, 75, 0
2, 5078700, Note_on_c, 0, 73, 100
2, 5078760, Note_on_c, 0, 73, 0
2, 5078760, Note_on_c, 0, 72, 100
2, 5079000, Note_on_c, 0, 72, 0
2, 5079000, Note_on_c, 0, 77, 100
2, 5079180, Note_on_c, 0, 77, 0
2, 5079180, Note_on_c, 0, 75, 100
2, 5079240, Note_on_c, 0, 75, 0
2, 5079240, Note_on_c, 0, 77, 100
2, 5079420, Note_on_c, 0, 77, 0
2, 5079420, Note_on_c, 0, 75, 100
2, 5079480, Note_on_c, 0, 75, 0
2, 5079480, Note_on_c, 0, 74, 100
2, 5079540, Note_on_c, 0, 74, 0
2, 5079540, Note_on_c, 0, 75, 100
2, 5079600, Note_on_c, 0, 75, 0
2, 5079600, Note_on_c, 0, 81, 100
2, 5079660, Note_on_c, 0, 81, 0
2, 5079660, Note_on_c, 0, 82, 100
2, 5079720, Note_on_c, 0, 82, 0
2, 5079720, Note_on_c, 0, 75, 100
2, 5079840, Note_on_c, 0, 75, 0
2, 5079840, Note_on_c, 0, 74, 100
2, 5079960, Note_on_c, 0, 74, 0
2, 5079960, Note_on_c, 0, 70, 100
2, 5081160, Note_on_c, 0, 70, 0
2, 5081160, Note_on_c, 0, 71, 100
2, 5081280, Note_on_c, 0, 71, 0
2, 5081280, Note_on_c, 0, 70, 100
2, 5081295, Note_on_c, 0, 70, 0
2, 5081295, Note_on_c, 0, 68, 100
2, 5081340, Note_on_c, 0, 68, 0
2, 5081340, Note_on_c, 0, 70, 100
2, 5081520, Note_on_c, 0, 70, 0
2, 5081520, Note_on_c, 0, 82, 100
2, 5081640, Note_on_c, 0, 82, 0
2, 5081640, Note_on_c, 0, 83, 100
2, 5081820, Note_on_c, 0, 83, 0
2, 5081820, Note_on_c, 0, 82, 100
2, 5081880, Note_on_c, 0, 82, 0
2, 5081880, Note_on_c, 0, 80, 100
2, 5081940, Note_on_c, 0, 80, 0
2, 5081940, Note_on_c, 0, 82, 100
2, 5082000, Note_on_c, 0, 82, 0
2, 5082000, Note_on_c, 0, 73, 100
2, 5082120, Note_on_c, 0, 73, 0
2, 5082120, Note_on_c, 0, 71, 100
2, 5082300, Note_on_c, 0, 71, 0
2, 5082300, Note_on_c, 0, 70, 100
2, 5082360, Note_on_c, 0, 70, 0
2, 5082360, Note_on_c, 0, 71, 100
2, 5082600, Note_on_c, 0, 71, 0
2, 5082600, Note_on_c, 0, 73, 100
2, 5082720, Note_on_c, 0, 73, 0
2, 5082720, Note_on_c, 0, 71, 100
2, 5082735, Note_on_c, 0, 71, 0
2, 5082735, Note_on_c, 0, 70, 100
2, 5082780, Note_on_c, 0, 70, 0
2, 5082780, Note_on_c, 0, 71, 100
2, 5082960, Note_on_c, 0, 71, 0
2, 5082960, Note_on_c, 0, 83, 100
2, 5083080, Note_on_c, 0, 83, 0
2, 5083080, Note_on_c, 0, 76, 100
2, 5083260, Note_on_c, 0, 76, 0
2, 5083260, Note_on_c, 0, 75, 100
2, 5083320, Note_on_c, 0, 75, 0
2, 5083320, Note_on_c, 0, 74, 100
2, 5083380, Note_on_c, 0, 74, 0
2, 5083380, Note_on_c, 0, 75, 100
2, 5083440, Note_on_c, 0, 75, 0
2, 5083440, Note_on_c, 0, 85, 100
2, 5083500, Note_on_c, 0, 85, 0
2, 5083500, Note_on_c, 0, 84, 100
2, 5083560, Note_on_c, 0, 84, 0
2, 5083560, Note_on_c, 0, 75, 100
2, 5083800, Note_on_c, 0, 75, 0
2, 5083800, Note_on_c, 0, 74, 100
2, 5083920, Note_on_c, 0, 74, 0
2, 5083920, Note_on_c, 0, 71, 100
2, 5084040, Note_on_c, 0, 71, 0
2, 5084040, Note_on_c, 0, 70, 100
2, 5084280, Note_on_c, 0, 70, 0
2, 5084280, Note_on_c, 0, 76, 100
2, 5084400, Note_on_c, 0, 76, 0
2, 5084400, Note_on_c, 0, 75, 100
2, 5084520, Note_on_c, 0, 75, 0
2, 5084520, Note_on_c, 0, 74, 100
2, 5084700, Note_on_c, 0, 74, 0
2, 5084700, Note_on_c, 0, 77, 100
2, 5084760, Note_on_c, 0, 77, 0
2, 5084760, Note_on_c, 0, 80, 100
2, 5084820, Note_on_c, 0, 80, 0
2, 5084820, Note_on_c, 0, 83, 100
2, 5084880, Note_on_c, 0, 83, 0
2, 5084880, Note_on_c, 0, 82, 100
2, 5085000, Note_on_c, 0, 82, 0
2, 5085000, Note_on_c, 0, 80, 100
2, 5085150, Note_on_c, 0, 80, 0
2, 5085150, Note_on_c, 0, 78, 100
2, 5085180, Note_on_c, 0, 78, 0
2, 5085180, Note_on_c, 0, 77, 100
2, 5085210, Note_on_c, 0, 77, 0
2, 5085210, Note_on_c, 0, 75, 100
2, 5085240, Note_on_c, 0, 75, 0
2, 5085240, Note_on_c, 0, 74, 100
2, 5085360, Note_on_c, 0, 74, 0
2, 5085360, Note_on_c, 0, 75, 100
2, 5085600, Note_on_c, 0, 75, 0
2, 5085600, Note_on_c, 0, 67, 100
2, 5086920, Note_on_c, 0, 67, 0
2, 5086920, Note_on_c, 0, 68, 100
2, 5087040, Note_on_c, 0, 68, 0
2, 5087040, Note_on_c, 0, 67, 100
2, 5087055, Note_on_c, 0, 67, 0
2, 5087055, Note_on_c, 0, 66, 100
2, 5087100, Note_on_c, 0, 66, 0
2, 5087100, Note_on_c, 0, 67, 100
2, 5087280, Note_on_c, 0, 67, 0
2, 5087280, Note_on_c, 0, 75, 100
2, 5087340, Note_on_c, 0, 75, 0
2, 5087340, Note_on_c, 0, 74, 100
2, 5087580, Note_on_c, 0, 74, 0
2, 5087580, Note_on_c, 0, 72, 100
2, 5087640, Note_on_c, 0, 72, 0
2, 5087640, Note_on_c, 0, 70, 100
2, 5087700, Note_on_c, 0, 70, 0
2, 5087700, Note_on_c, 0, 68, 100
2, 5087760, Note_on_c, 0, 68, 0
2, 5087760, Note_on_c, 0, 67, 100
2, 5087880, Note_on_c, 0, 67, 0
2, 5087880, Note_on_c, 0, 66, 100
2, 5088120, Note_on_c, 0, 66, 0
2, 5088120, Note_on_c, 0, 65, 100
2, 5088360, Note_on_c, 0, 65, 0
2, 5088360, Note_on_c, 0, 67, 100
2, 5088480, Note_on_c, 0, 67, 0
2, 5088480, Note_on_c, 0, 65, 100
2, 5088495, Note_on_c, 0, 65, 0
2, 5088495, Note_on_c, 0, 64, 100
2, 5088540, Note_on_c, 0, 64, 0
2, 5088540, Note_on_c, 0, 65, 100
2, 5088600, Note_on_c, 0, 65, 0
2, 5088600, Note_on_c, 0, 73, 100
2, 5088720, Note_on_c, 0, 73, 0
2, 5088720, Note_on_c, 0, 72, 100
2, 5089020, Note_on_c, 0, 72, 0
2, 5089020, Note_on_c, 0, 70, 100
2, 5089080, Note_on_c, 0, 70, 0
2, 5089080, Note_on_c, 0, 68, 100
2, 5089140, Note_on_c, 0, 68, 0
2, 5089140, Note_on_c, 0, 66, 100
2, 5089200, Note_on_c, 0, 66, 0
2, 5089200, Note_on_c, 0, 65, 100
2, 5089320, Note_on_c, 0, 65, 0
2, 5089320, Note_on_c, 0, 64, 100
2, 5089560, Note_on_c, 0, 64, 0
2, 5089560, Note_on_c, 0, 63, 100
2, 5089800, Note_on_c, 0, 63, 0
2, 5089800, Note_on_c, 0, 65, 100
2, 5089920, Note_on_c, 0, 65, 0
2, 5089920, Note_on_c, 0, 63, 100
2, 5089935, Note_on_c, 0, 63, 0
2, 5089935, Note_on_c, 0, 62, 100
2, 5089980, Note_on_c, 0, 62, 0
2, 5089980, Note_on_c, 0, 63, 100
2, 5090040, Note_on_c, 0, 63, 0
2, 5090040, Note_on_c, 0, 72, 100
2, 5090160, Note_on_c, 0, 72, 0
2, 5090160, Note_on_c, 0, 70, 100
2, 5090460, Note_on_c, 0, 70, 0
2, 5090460, Note_on_c, 0, 68, 100
2, 5090520, Note_on_c, 0, 68, 0
2, 5090520, Note_on_c, 0, 67, 100
2, 5090580, Note_on_c, 0, 67, 0
2, 5090580, Note_on_c, 0, 66, 100
2, 5090640, Note_on_c, 0, 66, 0
2, 5090640, Note_on_c, 0, 75, 100
2, 5090760, Note_on_c, 0, 75, 0
2, 5090760, Note_on_c, 0, 74, 100
2, 5090940, Note_on_c, 0, 74, 0
2, 5090940, Note_on_c, 0, 73, 100
2, 5091120, Note_on_c, 0, 73, 0
2, 5091120, Note_on_c, 0, 74, 100
2, 5091240, Note_on_c, 0, 74, 0
2, 5091240, Note_on_c, 0, 63, 100
2, 5091360, Note_on_c, 0, 63, 0
2, 5091360, Note_on_c, 0, 62, 100
2, 5091480, Note_on_c, 0, 62, 0
2, 5091480, Note_on_c, 0, 64, 100
2, 5091660, Note_on_c, 0, 64, 0
2, 5091660, Note_on_c, 0, 66, 100
2, 5091720, Note_on_c, 0, 66, 0
2, 5091720, Note_on_c, 0, 67, 100
2, 5091780, Note_on_c, 0, 67, 0
2, 5091780, Note_on_c, 0, 69, 100
2, 5091840, Note_on_c, 0, 69, 0
2, 5091840, Note_on_c, 0, 70, 100
2, 5091900, Note_on_c, 0, 70, 0
2, 5091900, Note_on_c, 0, 72, 100
2, 5091960, Note_on_c, 0, 72, 0
2, 5091960, Note_on_c, 0, 74, 100
2, 5092020, Note_on_c, 0, 74, 0
2, 5092020, Note_on_c, 0, 75, 100
2, 5092080, Note_on_c, 0, 75, 0
2, 5092080, Note_on_c, 0, 74, 100
2, 5092140, Note_on_c, 0, 74, 0
2, 5092140, Note_on_c, 0, 79, 100
2, 5092200, Note_on_c, 0, 79, 0
2, 5092200, Note_on_c, 0, 78, 100
2, 5092380, Note_on_c, 0, 78, 0
2, 5092380, Note_on_c, 0, 81, 100
2, 5092440, Note_on_c, 0, 81, 0
2, 5092440, Note_on_c, 0, 74, 100
2, 5092680, Note_on_c, 0, 74, 0
2, 5092680, Note_on_c, 0, 75, 100
2, 5092800, Note_on_c, 0, 75, 0
2, 5092800, Note_on_c, 0, 74, 100
2, 5092815, Note_on_c, 0, 74, 0
2, 5092815, Note_on_c, 0, 73, 100
2, 5092860, Note_on_c, 0, 73, 0
2, 5092860, Note_on_c, 0, 74, 100
2, 5092920, Note_on_c, 0, 74, 0
2, 5092920, Note_on_c, 0, 86, 100
2, 5093040, Note_on_c, 0, 86, 0
2, 5093040, Note_on_c, 0, 84, 100
2, 5093340, Note_on_c, 0, 84, 0
2, 5093340, Note_on_c, 0, 82, 100
2, 5093400, Note_on_c, 0, 82, 0
2, 5093400, Note_on_c, 0, 81, 100
2, 5093460, Note_on_c, 0, 81, 0
2, 5093460, Note_on_c, 0, 79, 100
2, 5093520, Note_on_c, 0, 79, 0
2, 5093520, Note_on_c, 0, 86, 100
2, 5093580, Note_on_c, 0, 86, 0
2, 5093580, Note_on_c, 0, 77, 100
2, 5093640, Note_on_c, 0, 77, 0
2, 5093640, Note_on_c, 0, 75, 100
2, 5093820, Note_on_c, 0, 75, 0
2, 5093820, Note_on_c, 0, 74, 100
2, 5093880, Note_on_c, 0, 74, 0
2, 5093880, Note_on_c, 0, 72, 100
2, 5093940, Note_on_c, 0, 72, 0
2, 5093940, Note_on_c, 0, 74, 100
2, 5094000, Note_on_c, 0, 74, 0
2, 5094000, Note_on_c, 0, 80, 100
2, 5094060, Note_on_c, 0, 80, 0
2, 5094060, Note_on_c, 0, 79, 100
2, 5094120, Note_on_c, 0, 79, 0
2, 5094120, Note_on_c, 0, 77, 100
2, 5094180, Note_on_c, 0, 77, 0
2, 5094180, Note_on_c, 0, 75, 100
2, 5094240, Note_on_c, 0, 75, 0
2, 5094240, Note_on_c, 0, 74, 100
2, 5094300, Note_on_c, 0, 74, 0
2, 5094300, Note_on_c, 0, 72, 100
2, 5094360, Note_on_c, 0, 72, 0
2, 5094360, Note_on_c, 0, 71, 100
2, 5094420, Note_on_c, 0, 71, 0
2, 5094420, Note_on_c, 0, 72, 100
2, 5094480, Note_on_c, 0, 72, 0
2, 5094480, Note_on_c, 0, 77, 100
2, 5094540, Note_on_c, 0, 77, 0
2, 5094540, Note_on_c, 0, 75, 100
2, 5094600, Note_on_c, 0, 75, 0
2, 5094600, Note_on_c, 0, 74, 100
2, 5094660, Note_on_c, 0, 74, 0
2, 5094660, Note_on_c, 0, 72, 100
2, 5094720, Note_on_c, 0, 72, 0
2, 5094720, Note_on_c, 0, 70, 100
2, 5094780, Note_on_c, 0, 70, 0
2, 5094780, Note_on_c, 0, 69, 100
2, 5094840, Note_on_c, 0, 69, 0
2, 5094840, Note_on_c, 0, 67, 100
2, 5094900, Note_on_c, 0, 67, 0
2, 5094900, Note_on_c, 0, 69, 100
2, 5094960, Note_on_c, 0, 69, 0
2, 5094960, Note_on_c, 0, 74, 100
2, 5095020, Note_on_c, 0, 74, 0
2, 5095020, Note_on_c, 0, 72, 100
2, 5095080, Note_on_c, 0, 72, 0
2, 5095080, Note_on_c, 0, 70, 100
2, 5095140, Note_on_c, 0, 70, 0
2, 5095140, Note_on_c, 0, 69, 100
2, 5095200, Note_on_c, 0, 69, 0
2, 5095200, Note_on_c, 0, 67, 100
2, 5095260, Note_on_c, 0, 67, 0
2, 5095260, Note_on_c, 0, 66, 100
2, 5095320, Note_on_c, 0, 66, 0
2, 5095320, Note_on_c, 0, 64, 100
2, 5095380, Note_on_c, 0, 64, 0
2, 5095380, Note_on_c, 0, 66, 100
2, 5095440, Note_on_c, 0, 66, 0
2, 5095440, Note_on_c, 0, 70, 100
2, 5095500, Note_on_c, 0, 70, 0
2, 5095500, Note_on_c, 0, 69, 100
2, 5095560, Note_on_c, 0, 69, 0
2, 5095560, Note_on_c, 0, 67, 100
2, 5095620, Note_on_c, 0, 67, 0
2, 5095620, Note_on_c, 0, 66, 100
2, 5095680, Note_on_c, 0, 66, 0
2, 5095680, Note_on_c, 0, 64, 100
2, 5095740, Note_on_c, 0, 64, 0
2, 5095740, Note_on_c, 0, 62, 100
2, 5095800, Note_on_c, 0, 62, 0
2, 5095800, Note_on_c, 0, 61, 100
2, 5095860, Note_on_c, 0, 61, 0
2, 5095860, Note_on_c, 0, 62, 100
2, 5095920, Note_on_c, 0, 62, 0
2, 5095920, Note_on_c, 0, 67, 100
2, 5095980, Note_on_c, 0, 67, 0
2, 5095980, Note_on_c, 0, 66, 100
2, 5096040, Note_on_c, 0, 66, 0
2, 5096040, Note_on_c, 0, 64, 100
2, 5096100, Note_on_c, 0, 64, 0
2, 5096100, Note_on_c, 0, 62, 100
2, 5096160, Note_on_c, 0, 62, 0
2, 5096160, Note_on_c, 0, 60, 100
2, 5096220, Note_on_c, 0, 60, 0
2, 5096220, Note_on_c, 0, 58, 100
2, 5096280, Note_on_c, 0, 58, 0
2, 5096280, Note_on_c, 0, 57, 100
2, 5096340, Note_on_c, 0, 57, 0
2, 5096340, Note_on_c, 0, 58, 100
2, 5096400, Note_on_c, 0, 58, 0
2, 5096400, Note_on_c, 0, 63, 100
2, 5096460, Note_on_c, 0, 63, 0
2, 5096460, Note_on_c, 0, 62, 100
2, 5096520, Note_on_c, 0, 62, 0
2, 5096520, Note_on_c, 0, 60, 100
2, 5096580, Note_on_c, 0, 60, 0
2, 5096580, Note_on_c, 0, 58, 100
2, 5096640, Note_on_c, 0, 58, 0
2, 5096640, Note_on_c, 0, 57, 100
2, 5096700, Note_on_c, 0, 57, 0
2, 5096700, Note_on_c, 0, 55, 100
2, 5096760, Note_on_c, 0, 55, 0
2, 5096760, Note_on_c, 0, 54, 100
2, 5096820, Note_on_c, 0, 54, 0
2, 5096820, Note_on_c, 0, 55, 100
2, 5098320, Note_on_c, 0, 55, 0
2, 5098320, Note_on_c, 0, 57, 100
2, 5098400, Note_on_c, 0, 57, 0
2, 5098400, Note_on_c, 0, 55, 100
2, 5098480, Note_on_c, 0, 55, 0
2, 5098480, Note_on_c, 0, 50, 100
2, 5098560, Note_on_c, 0, 50, 0
2, 5098560, Note_on_c, 0, 52, 100
2, 5098640, Note_on_c, 0, 52, 0
2, 5098640, Note_on_c, 0, 54, 100
2, 5098720, Note_on_c, 0, 54, 0
2, 5098720, Note_on_c, 0, 55, 100
2, 5098800, Note_on_c, 0, 55, 0
2, 5098800, Note_on_c, 0, 54, 100
2, 5098880, Note_on_c, 0, 54, 0
2, 5098880, Note_on_c, 0, 55, 100
2, 5098960, Note_on_c, 0, 55, 0
2, 5098960, Note_on_c, 0, 57, 100
2, 5099040, Note_on_c, 0, 57, 0
2, 5099040, Note_on_c, 0, 55, 100
2, 5099120, Note_on_c, 0, 55, 0
2, 5099120, Note_on_c, 0, 57, 100
2, 5099200, Note_on_c, 0, 57, 0
2, 5099200, Note_on_c, 0, 59, 100
2, 5099280, Note_on_c, 0, 59, 0
2, 5099280, Note_on_c, 0, 57, 100
2, 5099360, Note_on_c, 0, 57, 0
2, 5099360, Note_on_c, 0, 59, 100
2, 5099440, Note_on_c, 0, 59, 0
2, 5099440, Note_on_c, 0, 60, 100
2, 5099521, Note_on_c, 0, 60, 0
2, 5099521, Note_on_c, 0, 59, 100
2, 5099601, Note_on_c, 0, 59, 0
2, 5099601, Note_on_c, 0, 61, 100
2, 5099682, Note_on_c, 0, 61, 0
2, 5099682, Note_on_c, 0, 62, 100
2, 5099762, Note_on_c, 0, 62, 0
2, 5099762, Note_on_c, 0, 64, 100
2, 5099842, Note_on_c, 0, 64, 0
2, 5099842, Note_on_c, 0, 62, 100
2, 5099923, Note_on_c, 0, 62, 0
2, 5099923, Note_on_c, 0, 57, 100
2, 5100003, Note_on_c, 0, 57, 0
2, 5100003, Note_on_c, 0, 59, 100
2, 5100084, Note_on_c, 0, 59, 0
2, 5100084, Note_on_c, 0, 61, 100
2, 5100164, Note_on_c, 0, 61, 0
2, 5100164, Note_on_c, 0, 62, 100
2, 5100240, Note_on_c, 0, 62, 0
2, 5100240, Note_on_c, 0, 61, 100
2, 5100320, Note_on_c, 0, 61, 0
2, 5100320, Note_on_c, 0, 62, 100
2, 5100400, Note_on_c, 0, 62, 0
2, 5100400, Note_on_c, 0, 64, 100
2, 5100481, Note_on_c, 0, 64, 0
2, 5100481, Note_on_c, 0, 62, 100
2, 5100561, Note_on_c, 0, 62, 0
2, 5100561, Note_on_c, 0, 64, 100
2, 5100642, Note_on_c, 0, 64, 0
2, 5100642, Note_on_c, 0, 66, 100
2, 5100722, Note_on_c, 0, 66, 0
2, 5100722, Note_on_c, 0, 64, 100
2, 5100802, Note_on_c, 0, 64, 0
2, 5100802, Note_on_c, 0, 66, 100
2, 5100883, Note_on_c, 0, 66, 0
2, 5100883, Note_on_c, 0, 67, 100
2, 5100963, Note_on_c, 0, 67, 0
2, 5100963, Note_on_c, 0, 64, 100
2, 5101044, Note_on_c, 0, 64, 0
2, 5101044, Note_on_c, 0, 66, 100
2, 5101124, Note_on_c, 0, 66, 0
2, 5101124, Note_on_c, 0, 67, 100
2, 5101200, Note_on_c, 0, 67, 0
2, 5101200, Note_on_c, 0, 69, 100
2, 5101280, Note_on_c, 0, 69, 0
2, 5101280, Note_on_c, 0, 67, 100
2, 5101360, Note_on_c, 0, 67, 0
2, 5101360, Note_on_c, 0, 59, 100
2, 5101441, Note_on_c, 0, 59, 0
2, 5101441, Note_on_c, 0, 64, 100
2, 5101521, Note_on_c, 0, 64, 0
2, 5101521, Note_on_c, 0, 66, 100
2, 5101602, Note_on_c, 0, 66, 0
2, 5101602, Note_on_c, 0, 67, 100
2, 5101682, Note_on_c, 0, 67, 0
2, 5101682, Note_on_c, 0, 66, 100
2, 5101762, Note_on_c, 0, 66, 0
2, 5101762, Note_on_c, 0, 67, 100
2, 5101843, Note_on_c, 0, 67, 0
2, 5101843, Note_on_c, 0, 69, 100
2, 5101923, Note_on_c, 0, 69, 0
2, 5101923, Note_on_c, 0, 67, 100
2, 5102004, Note_on_c, 0, 67, 0
2, 5102004, Note_on_c, 0, 69, 100
2, 5102084, Note_on_c, 0, 69, 0
2, 5102084, Note_on_c, 0, 71, 100
2, 5102160, Note_on_c, 0, 71, 0
2, 5102160, Note_on_c, 0, 69, 100
2, 5102240, Note_on_c, 0, 69, 0
2, 5102240, Note_on_c, 0, 71, 100
2, 5102320, Note_on_c, 0, 71, 0
2, 5102320, Note_on_c, 0, 73, 100
2, 5102401, Note_on_c, 0, 73, 0
2, 5102401, Note_on_c, 0, 71, 100
2, 5102481, Note_on_c, 0, 71, 0
2, 5102481, Note_on_c, 0, 73, 100
2, 5102562, Note_on_c, 0, 73, 0
2, 5102562, Note_on_c, 0, 74, 100
2, 5102642, Note_on_c, 0, 74, 0
2, 5102642, Note_on_c, 0, 76, 100
2, 5102722, Note_on_c, 0, 76, 0
2, 5102722, Note_on_c, 0, 74, 100
2, 5102803, Note_on_c, 0, 74, 0
2, 5102803, Note_on_c, 0, 69, 100
2, 5102883, Note_on_c, 0, 69, 0
2, 5102883, Note_on_c, 0, 71, 100
2, 5102964, Note_on_c, 0, 71, 0
2, 5102964, Note_on_c, 0, 73, 100
2, 5103044, Note_on_c, 0, 73, 0
2, 5103044, Note_on_c, 0, 74, 100
2, 5103120, Note_on_c, 0, 74, 0
2, 5103120, Note_on_c, 0, 73, 100
2, 5103200, Note_on_c, 0, 73, 0
2, 5103200, Note_on_c, 0, 74, 100
2, 5103280, Note_on_c, 0, 74, 0
2, 5103280, Note_on_c, 0, 76, 100
2, 5103361, Note_on_c, 0, 76, 0
2, 5103361, Note_on_c, 0, 74, 100
2, 5103441, Note_on_c, 0, 74, 0
2, 5103441, Note_on_c, 0, 76, 100
2, 5103522, Note_on_c, 0, 76, 0
2, 5103522, Note_on_c, 0, 78, 100
2, 5103602, Note_on_c, 0, 78, 0
2, 5103602, Note_on_c, 0, 76, 100
2, 5103682, Note_on_c, 0, 76, 0
2, 5103682, Note_on_c, 0, 78, 100
2, 5103763, Note_on_c, 0, 78, 0
2, 5103763, Note_on_c, 0, 79, 100
2, 5103843, Note_on_c, 0, 79, 0
2, 5103843, Note_on_c, 0, 76, 100
2, 5103924, Note_on_c, 0, 76, 0
2, 5103924, Note_on_c, 0, 78, 100
2, 5104004, Note_on_c, 0, 78, 0
2, 5104004, Note_on_c, 0, 79, 100
2, 5104080, Note_on_c, 0, 79, 0
2, 5104080, Note_on_c, 0, 78, 100
2, 5104160, Note_on_c, 0, 78, 0
2, 5104160, Note_on_c, 0, 79, 100
2, 5104240, Note_on_c, 0, 79, 0
2, 5104240, Note_on_c, 0, 74, 100
2, 5104321, Note_on_c, 0, 74, 0
2, 5104321, Note_on_c, 0, 72, 100
2, 5104401, Note_on_c, 0, 72, 0
2, 5104401, Note_on_c, 0, 74, 100
2, 5104482, Note_on_c, 0, 74, 0
2, 5104482, Note_on_c, 0, 71, 100
2, 5104562, Note_on_c, 0, 71, 0
2, 5104562, Note_on_c, 0, 67, 100
2, 5104642, Note_on_c, 0, 67, 0
2, 5104642, Note_on_c, 0, 66, 100
2, 5104723, Note_on_c, 0, 66, 0
2, 5104723, Note_on_c, 0, 67, 100
2, 5104803, Note_on_c, 0, 67, 0
2, 5104803, Note_on_c, 0, 71, 100
2, 5104884, Note_on_c, 0, 71, 0
2, 5104884, Note_on_c, 0, 74, 100
2, 5104964, Note_on_c, 0, 74, 0
2, 5104964, Note_on_c, 0, 77, 100
2, 5105040, Note_on_c, 0, 77, 0
2, 5105040, Note_on_c, 0, 76, 100
2, 5105120, Note_on_c, 0, 76, 0
2, 5105120, Note_on_c, 0, 77, 100
2, 5105200, Note_on_c, 0, 77, 0
2, 5105200, Note_on_c, 0, 74, 100
2, 5105281, Note_on_c, 0, 74, 0
2, 5105281, Note_on_c, 0, 71, 100
2, 5105361, Note_on_c, 0, 71, 0
2, 5105361, Note_on_c, 0, 74, 100
2, 5105442, Note_on_c, 0, 74, 0
2, 5105442, Note_on_c, 0, 76, 100
2, 5105522, Note_on_c, 0, 76, 0
2, 5105522, Note_on_c, 0, 74, 100
2, 5105602, Note_on_c, 0, 74, 0
2, 5105602, Note_on_c, 0, 76, 100
2, 5105683, Note_on_c, 0, 76, 0
2, 5105683, Note_on_c, 0, 72, 100
2, 5105763, Note_on_c, 0, 72, 0
2, 5105763, Note_on_c, 0, 71, 100
2, 5105844, Note_on_c, 0, 71, 0
2, 5105844, Note_on_c, 0, 72, 100
2, 5105924, Note_on_c, 0, 72, 0
2, 5105924, Note_on_c, 0, 67, 100
2, 5106000, Note_on_c, 0, 67, 0
2, 5106000, Note_on_c, 0, 64, 100
2, 5106080, Note_on_c, 0, 64, 0
2, 5106080, Note_on_c, 0, 62, 100
2, 5106160, Note_on_c, 0, 62, 0
2, 5106160, Note_on_c, 0, 64, 100
2, 5106241, Note_on_c, 0, 64, 0
2, 5106241, Note_on_c, 0, 67, 100
2, 5106321, Note_on_c, 0, 67, 0
2, 5106321, Note_on_c, 0, 72, 100
2, 5106402, Note_on_c, 0, 72, 0
2, 5106402, Note_on_c, 0, 76, 100
2, 5106482, Note_on_c, 0, 76, 0
2, 5106482, Note_on_c, 0, 74, 100
2, 5106562, Note_on_c, 0, 74, 0
2, 5106562, Note_on_c, 0, 76, 100
2, 5106643, Note_on_c, 0, 76, 0
2, 5106643, Note_on_c, 0, 72, 100
2, 5106723, Note_on_c, 0, 72, 0
2, 5106723, Note_on_c, 0, 69, 100
2, 5106804, Note_on_c, 0, 69, 0
2, 5106804, Note_on_c, 0, 72, 100
2, 5106884, Note_on_c, 0, 72, 0
2, 5106884, Note_on_c, 0, 74, 100
2, 5106960, Note_on_c, 0, 74, 0
2, 5106960, Note_on_c, 0, 72, 100
2, 5107040, Note_on_c, 0, 72, 0
2, 5107040, Note_on_c, 0, 74, 100
2, 5107120, Note_on_c, 0, 74, 0
2, 5107120, Note_on_c, 0, 69, 100
2, 5107201, Note_on_c, 0, 69, 0
2, 5107201, Note_on_c, 0, 67, 100
2, 5107281, Note_on_c, 0, 67, 0
2, 5107281, Note_on_c, 0, 69, 100
2, 5107362, Note_on_c, 0, 69, 0
2, 5107362, Note_on_c, 0, 66, 100
2, 5107442, Note_on_c, 0, 66, 0
2, 5107442, Note_on_c, 0, 62, 100
2, 5107522, Note_on_c, 0, 62, 0
2, 5107522, Note_on_c, 0, 61, 100
2, 5107603, Note_on_c, 0, 61, 0
2, 5107603, Note_on_c, 0, 62, 100
2, 5107683, Note_on_c, 0, 62, 0
2, 5107683, Note_on_c, 0, 66, 100
2, 5107764, Note_on_c, 0, 66, 0
2, 5107764, Note_on_c, 0, 69, 100
2, 5107844, Note_on_c, 0, 69, 0
2, 5107844, Note_on_c, 0, 72, 100
2, 5107920, Note_on_c, 0, 72, 0
2, 5107920, Note_on_c, 0, 71, 100
2, 5108000, Note_on_c, 0, 71, 0
2, 5108000, Note_on_c, 0, 72, 100
2, 5108080, Note_on_c, 0, 72, 0
2, 5108080, Note_on_c, 0, 69, 100
2, 5108161, Note_on_c, 0, 69, 0
2, 5108161, Note_on_c, 0, 66, 100
2, 5108241, Note_on_c, 0, 66, 0
2, 5108241, Note_on_c, 0, 69, 100
2, 5108322, Note_on_c, 0, 69, 0
2, 5108322, Note_on_c, 0, 71, 100
2, 5108402, Note_on_c, 0, 71, 0
2, 5108402, Note_on_c, 0, 69, 100
2, 5108482, Note_on_c, 0, 69, 0
2, 5108482, Note_on_c, 0, 71, 100
2, 5108563, Note_on_c, 0, 71, 0
2, 5108563, Note_on_c, 0, 67, 100
2, 5108643, Note_on_c, 0, 67, 0
2, 5108643, Note_on_c, 0, 66, 100
2, 5108724, Note_on_c, 0, 66, 0
2, 5108724, Note_on_c, 0, 67, 100
2, 5108804, Note_on_c, 0, 67, 0
2, 5108804, Note_on_c, 0, 62, 100
2, 5108880, Note_on_c, 0, 62, 0
2, 5108880, Note_on_c, 0, 59, 100
2, 5108960, Note_on_c, 0, 59, 0
2, 5108960, Note_on_c, 0, 57, 100
2, 5109040, Note_on_c, 0, 57, 0
2, 5109040, Note_on_c, 0, 59, 100
2, 5109121, Note_on_c, 0, 59, 0
2, 5109121, Note_on_c, 0, 62, 100
2, 5109201, Note_on_c, 0, 62, 0
2, 5109201, Note_on_c, 0, 67, 100
2, 5109282, Note_on_c, 0, 67, 0
2, 5109282, Note_on_c, 0, 71, 100
2, 5109362, Note_on_c, 0, 71, 0
2, 5109362, Note_on_c, 0, 67, 100
2, 5109442, Note_on_c, 0, 67, 0
2, 5109442, Note_on_c, 0, 66, 100
2, 5109523, Note_on_c, 0, 66, 0
2, 5109523, Note_on_c, 0, 67, 100
2, 5109603, Note_on_c, 0, 67, 0
2, 5109603, Note_on_c, 0, 71, 100
2, 5109684, Note_on_c, 0, 71, 0
2, 5109684, Note_on_c, 0, 74, 100
2, 5109764, Note_on_c, 0, 74, 0
2, 5109764, Note_on_c, 0, 79, 100
2, 5109840, Note_on_c, 0, 79, 0
2, 5109840, Note_on_c, 0, 78, 100
2, 5110200, Note_on_c, 0, 78, 0
2, 5110200, Note_on_c, 0, 76, 100
2, 5110260, Note_on_c, 0, 76, 0
2, 5110260, Note_on_c, 0, 74, 100
2, 5110320, Note_on_c, 0, 74, 0
2, 5110320, Note_on_c, 0, 83, 100
2, 5111040, Note_on_c, 0, 83, 0
2, 5111040, Note_on_c, 0, 81, 100
2, 5112720, Note_on_c, 0, 81, 0
2, 5112720, Note_on_c, 0, 79, 100
2, 5114160, Note_on_c, 0, 79, 0
2, 5114160, Note_on_c, 0, 76, 100
2, 5114520, Note_on_c, 0, 76, 0
2, 5114520, Note_on_c, 0, 64, 100
2, 5114640, Note_on_c, 0, 64, 0
2, 5114640, Note_on_c, 0, 79, 100
2, 5115600, Note_on_c, 0, 79, 0
2, 5115600, Note_on_c, 0, 76, 100
2, 5116080, Note_on_c, 0, 76, 0
2, 5116080, Note_on_c, 0, 78, 100
2, 5116140, Note_on_c, 0, 78, 0
2, 5116140, Note_on_c, 0, 81, 100
2, 5116800, Note_on_c, 0, 81, 0
2, 5116800, Note_on_c, 0, 83, 100
2, 5117040, Note_on_c, 0, 83, 0
2, 5117040, Note_on_c, 0, 78, 100
2, 5117520, Note_on_c, 0, 78, 0
2, 5117520, Note_on_c, 0, 79, 100
2, 5118480, Note_on_c, 0, 79, 0
2, 5118480, Note_on_c, 0, 73, 100
2, 5118960, Note_on_c, 0, 73, 0
2, 5118960, Note_on_c, 0, 69, 100
2, 5119920, Note_on_c, 0, 69, 0
2, 5119920, Note_on_c, 0, 64, 100
2, 5120400, Note_on_c, 0, 64, 0
2, 5120400, Note_on_c, 0, 66, 100
2, 5120460, Note_on_c, 0, 66, 0
2, 5120460, Note_on_c, 0, 55, 100
2, 5121360, Note_on_c, 0, 55, 0
2, 5121360, Note_on_c, 0, 57, 100
2, 5121440, Note_on_c, 0, 57, 0
2, 5121440, Note_on_c, 0, 55, 100
2, 5121520, Note_on_c, 0, 55, 0
2, 5121520, Note_on_c, 0, 50, 100
2, 5121600, Note_on_c, 0, 50, 0
2, 5121600, Note_on_c, 0, 52, 100
2, 5121680, Note_on_c, 0, 52, 0
2, 5121680, Note_on_c, 0, 54, 100
2, 5121760, Note_on_c, 0, 54, 0
2, 5121760, Note_on_c, 0, 55, 100
2, 5121840, Note_on_c, 0, 55, 0
2, 5121840, Note_on_c, 0, 54, 100
2, 5121920, Note_on_c, 0, 54, 0
2, 5121920, Note_on_c, 0, 55, 100
2, 5122000, Note_on_c, 0, 55, 0
2, 5122000, Note_on_c, 0, 57, 100
2, 5122080, Note_on_c, 0, 57, 0
2, 5122080, Note_on_c, 0, 55, 100
2, 5122160, Note_on_c, 0, 55, 0
2, 5122160, Note_on_c, 0, 57, 100
2, 5122240, Note_on_c, 0, 57, 0
2, 5122240, Note_on_c, 0, 59, 100
2, 5122320, Note_on_c, 0, 59, 0
2, 5122320, Note_on_c, 0, 57, 100
2, 5122400, Note_on_c, 0, 57, 0
2, 5122400, Note_on_c, 0, 59, 100
2, 5122480, Note_on_c, 0, 59, 0
2, 5122480, Note_on_c, 0, 60, 100
2, 5122561, Note_on_c, 0, 60, 0
2, 5122561, Note_on_c, 0, 59, 100
2, 5122641, Note_on_c, 0, 59, 0
2, 5122641, Note_on_c, 0, 61, 100
2, 5122722, Note_on_c, 0, 61, 0
2, 5122722, Note_on_c, 0, 62, 100
2, 5122802, Note_on_c, 0, 62, 0
2, 5122802, Note_on_c, 0, 64, 100
2, 5122882, Note_on_c, 0, 64, 0
2, 5122882, Note_on_c, 0, 62, 100
2, 5122963, Note_on_c, 0, 62, 0
2, 5122963, Note_on_c, 0, 57, 100
2, 5123043, Note_on_c, 0, 57, 0
2, 5123043, Note_on_c, 0, 59, 100
2, 5123124, Note_on_c, 0, 59, 0
2, 5123124, Note_on_c, 0, 61, 100
2, 5123204, Note_on_c, 0, 61, 0
2, 5123204, Note_on_c, 0, 62, 100
2, 5123280, Note_on_c, 0, 62, 0
2, 5123280, Note_on_c, 0, 61, 100
2, 5123360, Note_on_c, 0, 61, 0
2, 5123360, Note_on_c, 0, 62, 100
2, 5123440, Note_on_c, 0, 62, 0
2, 5123440, Note_on_c, 0, 64, 100
2, 5123521, Note_on_c, 0, 64, 0
2, 5123521, Note_on_c, 0, 62, 100
2, 5123601, Note_on_c, 0, 62, 0
2, 5123601, Note_on_c, 0, 64, 100
2, 5123682, Note_on_c, 0, 64, 0
2, 5123682, Note_on_c, 0, 66, 100
2, 5123762, Note_on_c, 0, 66, 0
2, 5123762, Note_on_c, 0, 64, 100
2, 5123842, Note_on_c, 0, 64, 0
2, 5123842, Note_on_c, 0, 66, 100
2, 5123923, Note_on_c, 0, 66, 0
2, 5123923, Note_on_c, 0, 67, 100
2, 5124003, Note_on_c, 0, 67, 0
2, 5124003, Note_on_c, 0, 64, 100
2, 5124084, Note_on_c, 0, 64, 0
2, 5124084, Note_on_c, 0, 66, 100
2, 5124164, Note_on_c, 0, 66, 0
2, 5124164, Note_on_c, 0, 67, 100
2, 5124240, Note_on_c, 0, 67, 0
2, 5124240, Note_on_c, 0, 69, 100
2, 5124320, Note_on_c, 0, 69, 0
2, 5124320, Note_on_c, 0, 67, 100
2, 5124400, Note_on_c, 0, 67, 0
2, 5124400, Note_on_c, 0, 59, 100
2, 5124481, Note_on_c, 0, 59, 0
2, 5124481, Note_on_c, 0, 64, 100
2, 5124561, Note_on_c, 0, 64, 0
2, 5124561, Note_on_c, 0, 66, 100
2, 5124642, Note_on_c, 0, 66, 0
2, 5124642, Note_on_c, 0, 67, 100
2, 5124722, Note_on_c, 0, 67, 0
2, 5124722, Note_on_c, 0, 66, 100
2, 5124802, Note_on_c, 0, 66, 0
2, 5124802, Note_on_c, 0, 67, 100
2, 5124883, Note_on_c, 0, 67, 0
2, 5124883, Note_on_c, 0, 69, 100
2, 5124963, Note_on_c, 0, 69, 0
2, 5124963, Note_on_c, 0, 67, 100
2, 5125044, Note_on_c, 0, 67, 0
2, 5125044, Note_on_c, 0, 69, 100
2, 5125124, Note_on_c, 0, 69, 0
2, 5125124, Note_on_c, 0, 71, 100
2, 5125200, Note_on_c, 0, 71, 0
2, 5125200, Note_on_c, 0, 69, 100
2, 5125280, Note_on_c, 0, 69, 0
2, 5125280, Note_on_c, 0, 71, 100
2, 5125360, Note_on_c, 0, 71, 0
2, 5125360, Note_on_c, 0, 73, 100
2, 5125441, Note_on_c, 0, 73, 0
2, 5125441, Note_on_c, 0, 71, 100
2, 5125521, Note_on_c, 0, 71, 0
2, 5125521, Note_on_c, 0, 73, 100
2, 5125602, Note_on_c, 0, 73, 0
2, 5125602, Note_on_c, 0, 74, 100
2, 5125682, Note_on_c, 0, 74, 0
2, 5125682, Note_on_c, 0, 76, 100
2, 5125762, Note_on_c, 0, 76, 0
2, 5125762, Note_on_c, 0, 74, 100
2, 5125843, Note_on_c, 0, 74, 0
2, 5125843, Note_on_c, 0, 69, 100
2, 5125923, Note_on_c, 0, 69, 0
2, 5125923, Note_on_c, 0, 71, 100
2, 5126004, Note_on_c, 0, 71, 0
2, 5126004, Note_on_c, 0, 73, 100
2, 5126084, Note_on_c, 0, 73, 0
2, 5126084, Note_on_c, 0, 74, 100
2, 5126160, Note_on_c, 0, 74, 0
2, 5126160, Note_on_c, 0, 73, 100
2, 5126240, Note_on_c, 0, 73, 0
2, 5126240, Note_on_c, 0, 74, 100
2, 5126320, Note_on_c, 0, 74, 0
2, 5126320, Note_on_c, 0, 76, 100
2, 5126401, Note_on_c, 0, 76, 0
2, 5126401, Note_on_c, 0, 74, 100
2, 5126481, Note_on_c, 0, 74, 0
2, 5126481, Note_on_c, 0, 76, 100
2, 5126562, Note_on_c, 0, 76, 0
2, 5126562, Note_on_c, 0, 78, 100
2, 5126642, Note_on_c, 0, 78, 0
2, 5126642, Note_on_c, 0, 76, 100
2, 5126722, Note_on_c, 0, 76, 0
2, 5126722, Note_on_c, 0, 78, 100
2, 5126803, Note_on_c, 0, 78, 0
2, 5126803, Note_on_c, 0, 79, 100
2, 5126883, Note_on_c, 0, 79, 0
2, 5126883, Note_on_c, 0, 76, 100
2, 5126964, Note_on_c, 0, 76, 0
2, 5126964, Note_on_c, 0, 78, 100
2, 5127044, Note_on_c, 0, 78, 0
2, 5127044, Note_on_c, 0, 79, 100
2, 5127120, Note_on_c, 0, 79, 0
2, 5127120, Note_on_c, 0, 78, 100
2, 5127200, Note_on_c, 0, 78, 0
2, 5127200, Note_on_c, 0, 79, 100
2, 5127280, Note_on_c, 0, 79, 0
2, 5127280, Note_on_c, 0, 74, 100
2, 5127361, Note_on_c, 0, 74, 0
2, 5127361, Note_on_c, 0, 72, 100
2, 5127441, Note_on_c, 0, 72, 0
2, 5127441, Note_on_c, 0, 74, 100
2, 5127522, Note_on_c, 0, 74, 0
2, 5127522, Note_on_c, 0, 71, 100
2, 5127602, Note_on_c, 0, 71, 0
2, 5127602, Note_on_c, 0, 67, 100
2, 5127682, Note_on_c, 0, 67, 0
2, 5127682, Note_on_c, 0, 66, 100
2, 5127763, Note_on_c, 0, 66, 0
2, 5127763, Note_on_c, 0, 67, 100
2, 5127843, Note_on_c, 0, 67, 0
2, 5127843, Note_on_c, 0, 71, 100
2, 5127924, Note_on_c, 0, 71, 0
2, 5127924, Note_on_c, 0, 74, 100
2, 5128004, Note_on_c, 0, 74, 0
2, 5128004, Note_on_c, 0, 77, 100
2, 5128080, Note_on_c, 0, 77, 0
2, 5128080, Note_on_c, 0, 76, 100
2, 5128160, Note_on_c, 0, 76, 0
2, 5128160, Note_on_c, 0, 77, 100
2, 5128240, Note_on_c, 0, 77, 0
2, 5128240, Note_on_c, 0, 74, 100
2, 5128321, Note_on_c, 0, 74, 0
2, 5128321, Note_on_c, 0, 71, 100
2, 5128401, Note_on_c, 0, 71, 0
2, 5128401, Note_on_c, 0, 74, 100
2, 5128482, Note_on_c, 0, 74, 0
2, 5128482, Note_on_c, 0, 76, 100
2, 5128562, Note_on_c, 0, 76, 0
2, 5128562, Note_on_c, 0, 74, 100
2, 5128642, Note_on_c, 0, 74, 0
2, 5128642, Note_on_c, 0, 76, 100
2, 5128723, Note_on_c, 0, 76, 0
2, 5128723, Note_on_c, 0, 72, 100
2, 5128803, Note_on_c, 0, 72, 0
2, 5128803, Note_on_c, 0, 71, 100
2, 5128884, Note_on_c, 0, 71, 0
2, 5128884, Note_on_c, 0, 72, 100
2, 5128964, Note_on_c, 0, 72, 0
2, 5128964, Note_on_c, 0, 67, 100
2, 5129040, Note_on_c, 0, 67, 0
2, 5129040, Note_on_c, 0, 64, 100
2, 5129120, Note_on_c, 0, 64, 0
2, 5129120, Note_on_c, 0, 62, 100
2, 5129200, Note_on_c, 0, 62, 0
2, 5129200, Note_on_c, 0, 64, 100
2, 5129281, Note_on_c, 0, 64, 0
2, 5129281, Note_on_c, 0, 67, 100
2, 5129361, Note_on_c, 0, 67, 0
2, 5129361, Note_on_c, 0, 72, 100
2, 5129442, Note_on_c, 0, 72, 0
2, 5129442, Note_on_c, 0, 76, 100
2, 5129522, Note_on_c, 0, 76, 0
2, 5129522, Note_on_c, 0, 74, 100
2, 5129602, Note_on_c, 0, 74, 0
2, 5129602, Note_on_c, 0, 76, 100
2, 5129683, Note_on_c, 0, 76, 0
2, 5129683, Note_on_c, 0, 72, 100
2, 5129763, Note_on_c, 0, 72, 0
2, 5129763, Note_on_c, 0, 69, 100
2, 5129844, Note_on_c, 0, 69, 0
2, 5129844, Note_on_c, 0, 72, 100
2, 5129924, Note_on_c, 0, 72, 0
2, 5129924, Note_on_c, 0, 74, 100
2, 5130000, Note_on_c, 0, 74, 0
2, 5130000, Note_on_c, 0, 72, 100
2, 5130080, Note_on_c, 0, 72, 0
2, 5130080, Note_on_c, 0, 74, 100
2, 5130160, Note_on_c, 0, 74, 0
2, 5130160, Note_on_c, 0, 69, 100
2, 5130241, Note_on_c, 0, 69, 0
2, 5130241, Note_on_c, 0, 67, 100
2, 5130321, Note_on_c, 0, 67, 0
2, 5130321, Note_on_c, 0, 69, 100
2, 5130402, Note_on_c, 0, 69, 0
2, 5130402, Note_on_c, 0, 66, 100
2, 5130482, Note_on_c, 0, 66, 0
2, 5130482, Note_on_c, 0, 62, 100
2, 5130562, Note_on_c, 0, 62, 0
2, 5130562, Note_on_c, 0, 61, 100
2, 5130643, Note_on_c, 0, 61, 0
2, 5130643, Note_on_c, 0, 62, 100
2, 5130723, Note_on_c, 0, 62, 0
2, 5130723, Note_on_c, 0, 66, 100
2, 5130804, Note_on_c, 0, 66, 0
2, 5130804, Note_on_c, 0, 69, 100
2, 5130884, Note_on_c, 0, 69, 0
2, 5130884, Note_on_c, 0, 72, 100
2, 5130960, Note_on_c, 0, 72, 0
2, 5130960, Note_on_c, 0, 71, 100
2, 5131040, Note_on_c, 0, 71, 0
2, 5131040, Note_on_c, 0, 72, 100
2, 5131120, Note_on_c, 0, 72, 0
2, 5131120, Note_on_c, 0, 69, 100
2, 5131201, Note_on_c, 0, 69, 0
2, 5131201, Note_on_c, 0, 66, 100
2, 5131281, Note_on_c, 0, 66, 0
2, 5131281, Note_on_c, 0, 69, 100
2, 5131362, Note_on_c, 0, 69, 0
2, 5131362, Note_on_c, 0, 71, 100
2, 5131442, Note_on_c, 0, 71, 0
2, 5131442, Note_on_c, 0, 69, 100
2, 5131522, Note_on_c, 0, 69, 0
2, 5131522, Note_on_c, 0, 71, 100
2, 5131603, Note_on_c, 0, 71, 0
2, 5131603, Note_on_c, 0, 67, 100
2, 5131683, Note_on_c, 0, 67, 0
2, 5131683, Note_on_c, 0, 66, 100
2, 5131764, Note_on_c, 0, 66, 0
2, 5131764, Note_on_c, 0, 67, 100
2, 5131844, Note_on_c, 0, 67, 0
2, 5131844, Note_on_c, 0, 62, 100
2, 5131920, Note_on_c, 0, 62, 0
2, 5131920, Note_on_c, 0, 59, 100
2, 5132000, Note_on_c, 0, 59, 0
2, 5132000, Note_on_c, 0, 57, 100
2, 5132080, Note_on_c, 0, 57, 0
2, 5132080, Note_on_c, 0, 59, 100
2, 5132161, Note_on_c, 0, 59, 0
2, 5132161, Note_on_c, 0, 62, 100
2, 5132241, Note_on_c, 0, 62, 0
2, 5132241, Note_on_c, 0, 67, 100
2, 5132322, Note_on_c, 0, 67, 0
2, 5132322, Note_on_c, 0, 71, 100
2, 5132402, Note_on_c, 0, 71, 0
2, 5132402, Note_on_c, 0, 67, 100
2, 5132482, Note_on_c, 0, 67, 0
2, 5132482, Note_on_c, 0, 66, 100
2, 5132563, Note_on_c, 0, 66, 0
2, 5132563, Note_on_c, 0, 67, 100
2, 5132643, Note_on_c, 0, 67, 0
2, 5132643, Note_on_c, 0, 71, 100
2, 5132724, Note_on_c, 0, 71, 0
2, 5132724, Note_on_c, 0, 74, 100
2, 5132804, Note_on_c, 0, 74, 0
2, 5132804, Note_on_c, 0, 79, 100
2, 5132880, Note_on_c, 0, 79, 0
2, 5132880, Note_on_c, 0, 78, 100
2, 5133240, Note_on_c, 0, 78, 0
2, 5133240, Note_on_c, 0, 76, 100
2, 5133300, Note_on_c, 0, 76, 0
2, 5133300, Note_on_c, 0, 74, 100
2, 5133360, Note_on_c, 0, 74, 0
2, 5133360, Note_on_c, 0, 83, 100
2, 5134080, Note_on_c, 0, 83, 0
2, 5134080, Note_on_c, 0, 81, 100
2, 5135760, Note_on_c, 0, 81, 0
2, 5135760, Note_on_c, 0, 79, 100
2, 5137200, Note_on_c, 0, 79, 0
2, 5137200, Note_on_c, 0, 76, 100
2, 5137560, Note_on_c, 0, 76, 0
2, 5137560, Note_on_c, 0, 64, 100
2, 5137680, Note_on_c, 0, 64, 0
2, 5137680, Note_on_c, 0, 79, 100
2, 5138640, Note_on_c, 0, 79, 0
2, 5138640, Note_on_c, 0, 76, 100
2, 5139120, Note_on_c, 0, 76, 0
2, 5139120, Note_on_c, 0, 78, 100
2, 5139180, Note_on_c, 0, 78, 0
2, 5139180, Note_on_c, 0, 81, 100
2, 5139840, Note_on_c, 0, 81, 0
2, 5139840, Note_on_c, 0, 83, 100
2, 5140080, Note_on_c, 0, 83, 0
2, 5140080, Note_on_c, 0, 78, 100
2, 5140560, Note_on_c, 0, 78, 0
2, 5140560, Note_on_c, 0, 79, 100
2, 5141520, Note_on_c, 0, 79, 0
2, 5141520, Note_on_c, 0, 73, 100
2, 5142000, Note_on_c, 0, 73, 0
2, 5142000, Note_on_c, 0, 69, 100
2, 5142960, Note_on_c, 0, 69, 0
2, 5142960, Note_on_c, 0, 64, 100
2, 5143440, Note_on_c, 0, 64, 0
2, 5143440, Note_on_c, 0, 66, 100
2, 5143500, Note_on_c, 0, 66, 0
2, 5143500, Note_on_c, 0, 81, 100
2, 5144400, Note_on_c, 0, 81, 0
2, 5144400, Note_on_c, 0, 79, 100
2, 5144480, Note_on_c, 0, 79, 0
2, 5144480, Note_on_c, 0, 81, 100
2, 5144560, Note_on_c, 0, 81, 0
2, 5144560, Note_on_c, 0, 86, 100
2, 5144640, Note_on_c, 0, 86, 0
2, 5144640, Note_on_c, 0, 84, 100
2, 5144720, Note_on_c, 0, 84, 0
2, 5144720, Note_on_c, 0, 83, 100
2, 5144800, Note_on_c, 0, 83, 0
2, 5144800, Note_on_c, 0, 81, 100
2, 5144880, Note_on_c, 0, 81, 0
2, 5144880, Note_on_c, 0, 83, 100
2, 5144960, Note_on_c, 0, 83, 0
2, 5144960, Note_on_c, 0, 81, 100
2, 5145040, Note_on_c, 0, 81, 0
2, 5145040, Note_on_c, 0, 79, 100
2, 5145120, Note_on_c, 0, 79, 0
2, 5145120, Note_on_c, 0, 81, 100
2, 5145200, Note_on_c, 0, 81, 0
2, 5145200, Note_on_c, 0, 79, 100
2, 5145280, Note_on_c, 0, 79, 0
2, 5145280, Note_on_c, 0, 78, 100
2, 5145360, Note_on_c, 0, 78, 0
2, 5145360, Note_on_c, 0, 79, 100
2, 5145440, Note_on_c, 0, 79, 0
2, 5145440, Note_on_c, 0, 78, 100
2, 5145520, Note_on_c, 0, 78, 0
2, 5145520, Note_on_c, 0, 76, 100
2, 5145600, Note_on_c, 0, 76, 0
2, 5145600, Note_on_c, 0, 78, 100
2, 5145680, Note_on_c, 0, 78, 0
2, 5145680, Note_on_c, 0, 76, 100
2, 5145760, Note_on_c, 0, 76, 0
2, 5145760, Note_on_c, 0, 74, 100
2, 5145840, Note_on_c, 0, 74, 0
2, 5145840, Note_on_c, 0, 72, 100
2, 5145920, Note_on_c, 0, 72, 0
2, 5145920, Note_on_c, 0, 74, 100
2, 5146000, Note_on_c, 0, 74, 0
2, 5146000, Note_on_c, 0, 79, 100
2, 5146080, Note_on_c, 0, 79, 0
2, 5146080, Note_on_c, 0, 78, 100
2, 5146160, Note_on_c, 0, 78, 0
2, 5146160, Note_on_c, 0, 76, 100
2, 5146240, Note_on_c, 0, 76, 0
2, 5146240, Note_on_c, 0, 74, 100
2, 5146320, Note_on_c, 0, 74, 0
2, 5146320, Note_on_c, 0, 76, 100
2, 5146400, Note_on_c, 0, 76, 0
2, 5146400, Note_on_c, 0, 74, 100
2, 5146480, Note_on_c, 0, 74, 0
2, 5146480, Note_on_c, 0, 72, 100
2, 5146560, Note_on_c, 0, 72, 0
2, 5146560, Note_on_c, 0, 74, 100
2, 5146640, Note_on_c, 0, 74, 0
2, 5146640, Note_on_c, 0, 72, 100
2, 5146720, Note_on_c, 0, 72, 0
2, 5146720, Note_on_c, 0, 71, 100
2, 5146800, Note_on_c, 0, 71, 0
2, 5146800, Note_on_c, 0, 72, 100
2, 5146880, Note_on_c, 0, 72, 0
2, 5146880, Note_on_c, 0, 71, 100
2, 5146960, Note_on_c, 0, 71, 0
2, 5146960, Note_on_c, 0, 69, 100
2, 5147040, Note_on_c, 0, 69, 0
2, 5147040, Note_on_c, 0, 71, 100
2, 5147120, Note_on_c, 0, 71, 0
2, 5147120, Note_on_c, 0, 69, 100
2, 5147200, Note_on_c, 0, 69, 0
2, 5147200, Note_on_c, 0, 67, 100
2, 5147280, Note_on_c, 0, 67, 0
2, 5147280, Note_on_c, 0, 66, 100
2, 5147360, Note_on_c, 0, 66, 0
2, 5147360, Note_on_c, 0, 67, 100
2, 5147440, Note_on_c, 0, 67, 0
2, 5147440, Note_on_c, 0, 71, 100
2, 5147520, Note_on_c, 0, 71, 0
2, 5147520, Note_on_c, 0, 69, 100
2, 5147600, Note_on_c, 0, 69, 0
2, 5147600, Note_on_c, 0, 67, 100
2, 5147680, Note_on_c, 0, 67, 0
2, 5147680, Note_on_c, 0, 66, 100
2, 5147760, Note_on_c, 0, 66, 0
2, 5147760, Note_on_c, 0, 67, 100
2, 5147840, Note_on_c, 0, 67, 0
2, 5147840, Note_on_c, 0, 66, 100
2, 5147920, Note_on_c, 0, 66, 0
2, 5147920, Note_on_c, 0, 64, 100
2, 5148000, Note_on_c, 0, 64, 0
2, 5148000, Note_on_c, 0, 66, 100
2, 5148080, Note_on_c, 0, 66, 0
2, 5148080, Note_on_c, 0, 64, 100
2, 5148160, Note_on_c, 0, 64, 0
2, 5148160, Note_on_c, 0, 63, 100
2, 5148240, Note_on_c, 0, 63, 0
2, 5148240, Note_on_c, 0, 64, 100
2, 5148320, Note_on_c, 0, 64, 0
2, 5148320, Note_on_c, 0, 63, 100
2, 5148400, Note_on_c, 0, 63, 0
2, 5148400, Note_on_c, 0, 61, 100
2, 5148480, Note_on_c, 0, 61, 0
2, 5148480, Note_on_c, 0, 63, 100
2, 5148560, Note_on_c, 0, 63, 0
2, 5148560, Note_on_c, 0, 61, 100
2, 5148640, Note_on_c, 0, 61, 0
2, 5148640, Note_on_c, 0, 59, 100
2, 5148720, Note_on_c, 0, 59, 0
2, 5148720, Note_on_c, 0, 58, 100
2, 5148800, Note_on_c, 0, 58, 0
2, 5148800, Note_on_c, 0, 59, 100
2, 5148880, Note_on_c, 0, 59, 0
2, 5148880, Note_on_c, 0, 64, 100
2, 5148960, Note_on_c, 0, 64, 0
2, 5148960, Note_on_c, 0, 63, 100
2, 5149040, Note_on_c, 0, 63, 0
2, 5149040, Note_on_c, 0, 61, 100
2, 5149120, Note_on_c, 0, 61, 0
2, 5149120, Note_on_c, 0, 59, 100
2, 5149200, Note_on_c, 0, 59, 0
2, 5149200, Note_on_c, 0, 60, 100
2, 5149280, Note_on_c, 0, 60, 0
2, 5149280, Note_on_c, 0, 59, 100
2, 5149360, Note_on_c, 0, 59, 0
2, 5149360, Note_on_c, 0, 57, 100
2, 5149440, Note_on_c, 0, 57, 0
2, 5149440, Note_on_c, 0, 59, 100
2, 5149520, Note_on_c, 0, 59, 0
2, 5149520, Note_on_c, 0, 57, 100
2, 5149600, Note_on_c, 0, 57, 0
2, 5149600, Note_on_c, 0, 55, 100
2, 5149680, Note_on_c, 0, 55, 0
2, 5149680, Note_on_c, 0, 57, 100
2, 5149760, Note_on_c, 0, 57, 0
2, 5149760, Note_on_c, 0, 55, 100
2, 5149840, Note_on_c, 0, 55, 0
2, 5149840, Note_on_c, 0, 54, 100
2, 5149920, Note_on_c, 0, 54, 0
2, 5149920, Note_on_c, 0, 55, 100
2, 5150000, Note_on_c, 0, 55, 0
2, 5150000, Note_on_c, 0, 54, 100
2, 5150080, Note_on_c, 0, 54, 0
2, 5150080, Note_on_c, 0, 52, 100
2, 5150160, Note_on_c, 0, 52, 0
2, 5150160, Note_on_c, 0, 51, 100
2, 5150240, Note_on_c, 0, 51, 0
2, 5150240, Note_on_c, 0, 52, 100
2, 5150320, Note_on_c, 0, 52, 0
2, 5150320, Note_on_c, 0, 59, 100
2, 5150400, Note_on_c, 0, 59, 0
2, 5150400, Note_on_c, 0, 57, 100
2, 5150480, Note_on_c, 0, 57, 0
2, 5150480, Note_on_c, 0, 59, 100
2, 5150560, Note_on_c, 0, 59, 0
2, 5150560, Note_on_c, 0, 55, 100
2, 5150640, Note_on_c, 0, 55, 0
2, 5150640, Note_on_c, 0, 54, 100
2, 5150720, Note_on_c, 0, 54, 0
2, 5150720, Note_on_c, 0, 55, 100
2, 5150800, Note_on_c, 0, 55, 0
2, 5150800, Note_on_c, 0, 59, 100
2, 5150880, Note_on_c, 0, 59, 0
2, 5150880, Note_on_c, 0, 64, 100
2, 5150960, Note_on_c, 0, 64, 0
2, 5150960, Note_on_c, 0, 66, 100
2, 5151040, Note_on_c, 0, 66, 0
2, 5151040, Note_on_c, 0, 67, 100
2, 5151120, Note_on_c, 0, 67, 0
2, 5151120, Note_on_c, 0, 66, 100
2, 5151200, Note_on_c, 0, 66, 0
2, 5151200, Note_on_c, 0, 67, 100
2, 5151280, Note_on_c, 0, 67, 0
2, 5151280, Note_on_c, 0, 64, 100
2, 5151360, Note_on_c, 0, 64, 0
2, 5151360, Note_on_c, 0, 63, 100
2, 5151440, Note_on_c, 0, 63, 0
2, 5151440, Note_on_c, 0, 64, 100
2, 5151520, Note_on_c, 0, 64, 0
2, 5151520, Note_on_c, 0, 60, 100
2, 5151600, Note_on_c, 0, 60, 0
2, 5151600, Note_on_c, 0, 59, 100
2, 5151680, Note_on_c, 0, 59, 0
2, 5151680, Note_on_c, 0, 60, 100
2, 5151760, Note_on_c, 0, 60, 0
2, 5151760, Note_on_c, 0, 64, 100
2, 5151840, Note_on_c, 0, 64, 0
2, 5151840, Note_on_c, 0, 62, 100
2, 5151920, Note_on_c, 0, 62, 0
2, 5151920, Note_on_c, 0, 64, 100
2, 5152000, Note_on_c, 0, 64, 0
2, 5152000, Note_on_c, 0, 57, 100
2, 5152080, Note_on_c, 0, 57, 0
2, 5152080, Note_on_c, 0, 56, 100
2, 5152160, Note_on_c, 0, 56, 0
2, 5152160, Note_on_c, 0, 57, 100
2, 5152240, Note_on_c, 0, 57, 0
2, 5152240, Note_on_c, 0, 60, 100
2, 5152320, Note_on_c, 0, 60, 0
2, 5152320, Note_on_c, 0, 65, 100
2, 5152400, Note_on_c, 0, 65, 0
2, 5152400, Note_on_c, 0, 69, 100
2, 5152480, Note_on_c, 0, 69, 0
2, 5152480, Note_on_c, 0, 72, 100
2, 5152560, Note_on_c, 0, 72, 0
2, 5152560, Note_on_c, 0, 71, 100
2, 5152640, Note_on_c, 0, 71, 0
2, 5152640, Note_on_c, 0, 72, 100
2, 5152720, Note_on_c, 0, 72, 0
2, 5152720, Note_on_c, 0, 69, 100
2, 5152800, Note_on_c, 0, 69, 0
2, 5152800, Note_on_c, 0, 66, 100
2, 5152880, Note_on_c, 0, 66, 0
2, 5152880, Note_on_c, 0, 69, 100
2, 5152960, Note_on_c, 0, 69, 0
2, 5152960, Note_on_c, 0, 63, 100
2, 5153040, Note_on_c, 0, 63, 0
2, 5153040, Note_on_c, 0, 61, 100
2, 5153120, Note_on_c, 0, 61, 0
2, 5153120, Note_on_c, 0, 63, 100
2, 5153200, Note_on_c, 0, 63, 0
2, 5153200, Note_on_c, 0, 66, 100
2, 5153280, Note_on_c, 0, 66, 0
2, 5153280, Note_on_c, 0, 64, 100
2, 5153360, Note_on_c, 0, 64, 0
2, 5153360, Note_on_c, 0, 66, 100
2, 5153440, Note_on_c, 0, 66, 0
2, 5153440, Note_on_c, 0, 59, 100
2, 5153520, Note_on_c, 0, 59, 0
2, 5153520, Note_on_c, 0, 58, 100
2, 5153600, Note_on_c, 0, 58, 0
2, 5153600, Note_on_c, 0, 59, 100
2, 5153680, Note_on_c, 0, 59, 0
2, 5153680, Note_on_c, 0, 63, 100
2, 5153760, Note_on_c, 0, 63, 0
2, 5153760, Note_on_c, 0, 66, 100
2, 5153840, Note_on_c, 0, 66, 0
2, 5153840, Note_on_c, 0, 67, 100
2, 5153920, Note_on_c, 0, 67, 0
2, 5153920, Note_on_c, 0, 69, 100
2, 5154000, Note_on_c, 0, 69, 0
2, 5154000, Note_on_c, 0, 67, 100
2, 5154080, Note_on_c, 0, 67, 0
2, 5154080, Note_on_c, 0, 69, 100
2, 5154160, Note_on_c, 0, 69, 0
2, 5154160, Note_on_c, 0, 66, 100
2, 5154240, Note_on_c, 0, 66, 0
2, 5154240, Note_on_c, 0, 63, 100
2, 5154320, Note_on_c, 0, 63, 0
2, 5154320, Note_on_c, 0, 66, 100
2, 5154400, Note_on_c, 0, 66, 0
2, 5154400, Note_on_c, 0, 67, 100
2, 5154480, Note_on_c, 0, 67, 0
2, 5154480, Note_on_c, 0, 66, 100
2, 5154560, Note_on_c, 0, 66, 0
2, 5154560, Note_on_c, 0, 67, 100
2, 5154640, Note_on_c, 0, 67, 0
2, 5154640, Note_on_c, 0, 71, 100
2, 5154720, Note_on_c, 0, 71, 0
2, 5154720, Note_on_c, 0, 69, 100
2, 5154800, Note_on_c, 0, 69, 0
2, 5154800, Note_on_c, 0, 71, 100
2, 5154880, Note_on_c, 0, 71, 0
2, 5154880, Note_on_c, 0, 64, 100
2, 5154960, Note_on_c, 0, 64, 0
2, 5154960, Note_on_c, 0, 63, 100
2, 5155040, Note_on_c, 0, 63, 0
2, 5155040, Note_on_c, 0, 64, 100
2, 5155120, Note_on_c, 0, 64, 0
2, 5155120, Note_on_c, 0, 67, 100
2, 5155200, Note_on_c, 0, 67, 0
2, 5155200, Note_on_c, 0, 71, 100
2, 5155280, Note_on_c, 0, 71, 0
2, 5155280, Note_on_c, 0, 75, 100
2, 5155360, Note_on_c, 0, 75, 0
2, 5155360, Note_on_c, 0, 76, 100
2, 5155440, Note_on_c, 0, 76, 0
2, 5155440, Note_on_c, 0, 72, 100
2, 5155520, Note_on_c, 0, 72, 0
2, 5155520, Note_on_c, 0, 71, 100
2, 5155600, Note_on_c, 0, 71, 0
2, 5155600, Note_on_c, 0, 69, 100
2, 5155680, Note_on_c, 0, 69, 0
2, 5155680, Note_on_c, 0, 67, 100
2, 5155760, Note_on_c, 0, 67, 0
2, 5155760, Note_on_c, 0, 66, 100
2, 5155840, Note_on_c, 0, 66, 0
2, 5155840, Note_on_c, 0, 64, 100
2, 5155920, Note_on_c, 0, 64, 0
2, 5155920, Note_on_c, 0, 79, 100
2, 5156880, Note_on_c, 0, 79, 0
2, 5156880, Note_on_c, 0, 78, 100
2, 5156940, Note_on_c, 0, 78, 0
2, 5156940, Note_on_c, 0, 76, 100
2, 5157360, Note_on_c, 0, 76, 0
2, 5157360, Note_on_c, 0, 74, 100
2, 5157420, Note_on_c, 0, 74, 0
2, 5157420, Note_on_c, 0, 77, 100
2, 5158320, Note_on_c, 0, 77, 0
2, 5158320, Note_on_c, 0, 76, 100
2, 5158380, Note_on_c, 0, 76, 0
2, 5158380, Note_on_c, 0, 74, 100
2, 5158800, Note_on_c, 0, 74, 0
2, 5158800, Note_on_c, 0, 72, 100
2, 5160240, Note_on_c, 0, 72, 0
2, 5160240, Note_on_c, 0, 66, 100
2, 5161200, Note_on_c, 0, 66, 0
2, 5161200, Note_on_c, 0, 67, 100
2, 5161680, Note_on_c, 0, 67, 0
2, 5161680, Note_on_c, 0, 71, 100
2, 5162640, Note_on_c, 0, 71, 0
2, 5162640, Note_on_c, 0, 72, 100
2, 5163120, Note_on_c, 0, 72, 0
2, 5163120, Note_on_c, 0, 81, 100
2, 5167440, Note_on_c, 0, 81, 0
2, 5167440, Note_on_c, 0, 79, 100
2, 5167520, Note_on_c, 0, 79, 0
2, 5167520, Note_on_c, 0, 81, 100
2, 5167600, Note_on_c, 0, 81, 0
2, 5167600, Note_on_c, 0, 86, 100
2, 5167680, Note_on_c, 0, 86, 0
2, 5167680, Note_on_c, 0, 84, 100
2, 5167760, Note_on_c, 0, 84, 0
2, 5167760, Note_on_c, 0, 83, 100
2, 5167840, Note_on_c, 0, 83, 0
2, 5167840, Note_on_c, 0, 81, 100
2, 5167920, Note_on_c, 0, 81, 0
2, 5167920, Note_on_c, 0, 83, 100
2, 5168000, Note_on_c, 0, 83, 0
2, 5168000, Note_on_c, 0, 81, 100
2, 5168080, Note_on_c, 0, 81, 0
2, 5168080, Note_on_c, 0, 79, 100
2, 5168160, Note_on_c, 0, 79, 0
2, 5168160, Note_on_c, 0, 81, 100
2, 5168240, Note_on_c, 0, 81, 0
2, 5168240, Note_on_c, 0, 79, 100
2, 5168320, Note_on_c, 0, 79, 0
2, 5168320, Note_on_c, 0, 78, 100
2, 5168400, Note_on_c, 0, 78, 0
2, 5168400, Note_on_c, 0, 79, 100
2, 5168480, Note_on_c, 0, 79, 0
2, 5168480, Note_on_c, 0, 78, 100
2, 5168560, Note_on_c, 0, 78, 0
2, 5168560, Note_on_c, 0, 76, 100
2, 5168640, Note_on_c, 0, 76, 0
2, 5168640, Note_on_c, 0, 78, 100
2, 5168720, Note_on_c, 0, 78, 0
2, 5168720, Note_on_c, 0, 76, 100
2, 5168800, Note_on_c, 0, 76, 0
2, 5168800, Note_on_c, 0, 74, 100
2, 5168880, Note_on_c, 0, 74, 0
2, 5168880, Note_on_c, 0, 72, 100
2, 5168960, Note_on_c, 0, 72, 0
2, 5168960, Note_on_c, 0, 74, 100
2, 5169040, Note_on_c, 0, 74, 0
2, 5169040, Note_on_c, 0, 79, 100
2, 5169120, Note_on_c, 0, 79, 0
2, 5169120, Note_on_c, 0, 78, 100
2, 5169200, Note_on_c, 0, 78, 0
2, 5169200, Note_on_c, 0, 76, 100
2, 5169280, Note_on_c, 0, 76, 0
2, 5169280, Note_on_c, 0, 74, 100
2, 5169360, Note_on_c, 0, 74, 0
2, 5169360, Note_on_c, 0, 76, 100
2, 5169440, Note_on_c, 0, 76, 0
2, 5169440, Note_on_c, 0, 74, 100
2, 5169520, Note_on_c, 0, 74, 0
2, 5169520, Note_on_c, 0, 72, 100
2, 5169600, Note_on_c, 0, 72, 0
2, 5169600, Note_on_c, 0, 74, 100
2, 5169680, Note_on_c, 0, 74, 0
2, 5169680, Note_on_c, 0, 72, 100
2, 5169760, Note_on_c, 0, 72, 0
2, 5169760, Note_on_c, 0, 71, 100
2, 5169840, Note_on_c, 0, 71, 0
2, 5169840, Note_on_c, 0, 72, 100
2, 5169920, Note_on_c, 0, 72, 0
2, 5169920, Note_on_c, 0, 71, 100
2, 5170000, Note_on_c, 0, 71, 0
2, 5170000, Note_on_c, 0, 69, 100
2, 5170080, Note_on_c, 0, 69, 0
2, 5170080, Note_on_c, 0, 71, 100
2, 5170160, Note_on_c, 0, 71, 0
2, 5170160, Note_on_c, 0, 69, 100
2, 5170240, Note_on_c, 0, 69, 0
2, 5170240, Note_on_c, 0, 67, 100
2, 5170320, Note_on_c, 0, 67, 0
2, 5170320, Note_on_c, 0, 66, 100
2, 5170400, Note_on_c, 0, 66, 0
2, 5170400, Note_on_c, 0, 67, 100
2, 5170480, Note_on_c, 0, 67, 0
2, 5170480, Note_on_c, 0, 71, 100
2, 5170560, Note_on_c, 0, 71, 0
2, 5170560, Note_on_c, 0, 69, 100
2, 5170640, Note_on_c, 0, 69, 0
2, 5170640, Note_on_c, 0, 67, 100
2, 5170720, Note_on_c, 0, 67, 0
2, 5170720, Note_on_c, 0, 66, 100
2, 5170800, Note_on_c, 0, 66, 0
2, 5170800, Note_on_c, 0, 67, 100
2, 5170880, Note_on_c, 0, 67, 0
2, 5170880, Note_on_c, 0, 66, 100
2, 5170960, Note_on_c, 0, 66, 0
2, 5170960, Note_on_c, 0, 64, 100
2, 5171040, Note_on_c, 0, 64, 0
2, 5171040, Note_on_c, 0, 66, 100
2, 5171120, Note_on_c, 0, 66, 0
2, 5171120, Note_on_c, 0, 64, 100
2, 5171200, Note_on_c, 0, 64, 0
2, 5171200, Note_on_c, 0, 63, 100
2, 5171280, Note_on_c, 0, 63, 0
2, 5171280, Note_on_c, 0, 64, 100
2, 5171360, Note_on_c, 0, 64, 0
2, 5171360, Note_on_c, 0, 63, 100
2, 5171440, Note_on_c, 0, 63, 0
2, 5171440, Note_on_c, 0, 61, 100
2, 5171520, Note_on_c, 0, 61, 0
2, 5171520, Note_on_c, 0, 63, 100
2, 5171600, Note_on_c, 0, 63, 0
2, 5171600, Note_on_c, 0, 61, 100
2, 5171680, Note_on_c, 0, 61, 0
2, 5171680, Note_on_c, 0, 59, 100
2, 5171760, Note_on_c, 0, 59, 0
2, 5171760, Note_on_c, 0, 58, 100
2, 5171840, Note_on_c, 0, 58, 0
2, 5171840, Note_on_c, 0, 59, 100
2, 5171920, Note_on_c, 0, 59, 0
2, 5171920, Note_on_c, 0, 64, 100
2, 5172000, Note_on_c, 0, 64, 0
2, 5172000, Note_on_c, 0, 63, 100
2, 5172080, Note_on_c, 0, 63, 0
2, 5172080, Note_on_c, 0, 61, 100
2, 5172160, Note_on_c, 0, 61, 0
2, 5172160, Note_on_c, 0, 59, 100
2, 5172240, Note_on_c, 0, 59, 0
2, 5172240, Note_on_c, 0, 60, 100
2, 5172320, Note_on_c, 0, 60, 0
2, 5172320, Note_on_c, 0, 59, 100
2, 5172400, Note_on_c, 0, 59, 0
2, 5172400, Note_on_c, 0, 57, 100
2, 5172480, Note_on_c, 0, 57, 0
2, 5172480, Note_on_c, 0, 59, 100
2, 5172560, Note_on_c, 0, 59, 0
2, 5172560, Note_on_c, 0, 57, 100
2, 5172640, Note_on_c, 0, 57, 0
2, 5172640, Note_on_c, 0, 55, 100
2, 5172720, Note_on_c, 0, 55, 0
2, 5172720, Note_on_c, 0, 57, 100
2, 5172800, Note_on_c, 0, 57, 0
2, 5172800, Note_on_c, 0, 55, 100
2, 5172880, Note_on_c, 0, 55, 0
2, 5172880, Note_on_c, 0, 54, 100
2, 5172960, Note_on_c, 0, 54, 0
2, 5172960, Note_on_c, 0, 55, 100
2, 5173040, Note_on_c, 0, 55, 0
2, 5173040, Note_on_c, 0, 54, 100
2, 5173120, Note_on_c, 0, 54, 0
2, 5173120, Note_on_c, 0, 52, 100
2, 5173200, Note_on_c, 0, 52, 0
2, 5173200, Note_on_c, 0, 51, 100
2, 5173280, Note_on_c, 0, 51, 0
2, 5173280, Note_on_c, 0, 52, 100
2, 5173360, Note_on_c, 0, 52, 0
2, 5173360, Note_on_c, 0, 59, 100
2, 5173440, Note_on_c, 0, 59, 0
2, 5173440, Note_on_c, 0, 57, 100
2, 5173520, Note_on_c, 0, 57, 0
2, 5173520, Note_on_c, 0, 59, 100
2, 5173600, Note_on_c, 0, 59, 0
2, 5173600, Note_on_c, 0, 55, 100
2, 5173680, Note_on_c, 0, 55, 0
2, 5173680, Note_on_c, 0, 54, 100
2, 5173760, Note_on_c, 0, 54, 0
2, 5173760, Note_on_c, 0, 55, 100
2, 5173840, Note_on_c, 0, 55, 0
2, 5173840, Note_on_c, 0, 59, 100
2, 5173920, Note_on_c, 0, 59, 0
2, 5173920, Note_on_c, 0, 64, 100
2, 5174000, Note_on_c, 0, 64, 0
2, 5174000, Note_on_c, 0, 66, 100
2, 5174080, Note_on_c, 0, 66, 0
2, 5174080, Note_on_c, 0, 67, 100
2, 5174160, Note_on_c, 0, 67, 0
2, 5174160, Note_on_c, 0, 66, 100
2, 5174240, Note_on_c, 0, 66, 0
2, 5174240, Note_on_c, 0, 67, 100
2, 5174320, Note_on_c, 0, 67, 0
2, 5174320, Note_on_c, 0, 64, 100
2, 5174400, Note_on_c, 0, 64, 0
2, 5174400, Note_on_c, 0, 63, 100
2, 5174480, Note_on_c, 0, 63, 0
2, 5174480, Note_on_c, 0, 64, 100
2, 5174560, Note_on_c, 0, 64, 0
2, 5174560, Note_on_c, 0, 60, 100
2, 5174640, Note_on_c, 0, 60, 0
2, 5174640, Note_on_c, 0, 59, 100
2, 5174720, Note_on_c, 0, 59, 0
2, 5174720, Note_on_c, 0, 60, 100
2, 5174800, Note_on_c, 0, 60, 0
2, 5174800, Note_on_c, 0, 64, 100
2, 5174880, Note_on_c, 0, 64, 0
2, 5174880, Note_on_c, 0, 62, 100
2, 5174960, Note_on_c, 0, 62, 0
2, 5174960, Note_on_c, 0, 64, 100
2, 5175040, Note_on_c, 0, 64, 0
2, 5175040, Note_on_c, 0, 57, 100
2, 5175120, Note_on_c, 0, 57, 0
2, 5175120, Note_on_c, 0, 56, 100
2, 5175200, Note_on_c, 0, 56, 0
2, 5175200, Note_on_c, 0, 57, 100
2, 5175280, Note_on_c, 0, 57, 0
2, 5175280, Note_on_c, 0, 60, 100
2, 5175360, Note_on_c, 0, 60, 0
2, 5175360, Note_on_c, 0, 65, 100
2, 5175440, Note_on_c, 0, 65, 0
2, 5175440, Note_on_c, 0, 69, 100
2, 5175520, Note_on_c, 0, 69, 0
2, 5175520, Note_on_c, 0, 72, 100
2, 5175600, Note_on_c, 0, 72, 0
2, 5175600, Note_on_c, 0, 71, 100
2, 5175680, Note_on_c, 0, 71, 0
2, 5175680, Note_on_c, 0, 72, 100
2, 5175760, Note_on_c, 0, 72, 0
2, 5175760, Note_on_c, 0, 69, 100
2, 5175840, Note_on_c, 0, 69, 0
2, 5175840, Note_on_c, 0, 66, 100
2, 5175920, Note_on_c, 0, 66, 0
2, 5175920, Note_on_c, 0, 69, 100
2, 5176000, Note_on_c, 0, 69, 0
2, 5176000, Note_on_c, 0, 63, 100
2, 5176080, Note_on_c, 0, 63, 0
2, 5176080, Note_on_c, 0, 61, 100
2, 5176160, Note_on_c, 0, 61, 0
2, 5176160, Note_on_c, 0, 63, 100
2, 5176240, Note_on_c, 0, 63, 0
2, 5176240, Note_on_c, 0, 66, 100
2, 5176320, Note_on_c, 0, 66, 0
2, 5176320, Note_on_c, 0, 64, 100
2, 5176400, Note_on_c, 0, 64, 0
2, 5176400, Note_on_c, 0, 66, 100
2, 5176480, Note_on_c, 0, 66, 0
2, 5176480, Note_on_c, 0, 59, 100
2, 5176560, Note_on_c, 0, 59, 0
2, 5176560, Note_on_c, 0, 58, 100
2, 5176640, Note_on_c, 0, 58, 0
2, 5176640, Note_on_c, 0, 59, 100
2, 5176720, Note_on_c, 0, 59, 0
2, 5176720, Note_on_c, 0, 63, 100
2, 5176800, Note_on_c, 0, 63, 0
2, 5176800, Note_on_c, 0, 66, 100
2, 5176880, Note_on_c, 0, 66, 0
2, 5176880, Note_on_c, 0, 67, 100
2, 5176960, Note_on_c, 0, 67, 0
2, 5176960, Note_on_c, 0, 69, 100
2, 5177040, Note_on_c, 0, 69, 0
2, 5177040, Note_on_c, 0, 67, 100
2, 5177120, Note_on_c, 0, 67, 0
2, 5177120, Note_on_c, 0, 69, 100
2, 5177200, Note_on_c, 0, 69, 0
2, 5177200, Note_on_c, 0, 66, 100
2, 5177280, Note_on_c, 0, 66, 0
2, 5177280, Note_on_c, 0, 63, 100
2, 5177360, Note_on_c, 0, 63, 0
2, 5177360, Note_on_c, 0, 66, 100
2, 5177440, Note_on_c, 0, 66, 0
2, 5177440, Note_on_c, 0, 67, 100
2, 5177520, Note_on_c, 0, 67, 0
2, 5177520, Note_on_c, 0, 66, 100
2, 5177600, Note_on_c, 0, 66, 0
2, 5177600, Note_on_c, 0, 67, 100
2, 5177680, Note_on_c, 0, 67, 0
2, 5177680, Note_on_c, 0, 71, 100
2, 5177760, Note_on_c, 0, 71, 0
2, 5177760, Note_on_c, 0, 69, 100
2, 5177840, Note_on_c, 0, 69, 0
2, 5177840, Note_on_c, 0, 71, 100
2, 5177920, Note_on_c, 0, 71, 0
2, 5177920, Note_on_c, 0, 64, 100
2, 5178000, Note_on_c, 0, 64, 0
2, 5178000, Note_on_c, 0, 63, 100
2, 5178080, Note_on_c, 0, 63, 0
2, 5178080, Note_on_c, 0, 64, 100
2, 5178160, Note_on_c, 0, 64, 0
2, 5178160, Note_on_c, 0, 67, 100
2, 5178240, Note_on_c, 0, 67, 0
2, 5178240, Note_on_c, 0, 71, 100
2, 5178320, Note_on_c, 0, 71, 0
2, 5178320, Note_on_c, 0, 75, 100
2, 5178400, Note_on_c, 0, 75, 0
2, 5178400, Note_on_c, 0, 76, 100
2, 5178480, Note_on_c, 0, 76, 0
2, 5178480, Note_on_c, 0, 72, 100
2, 5178560, Note_on_c, 0, 72, 0
2, 5178560, Note_on_c, 0, 71, 100
2, 5178640, Note_on_c, 0, 71, 0
2, 5178640, Note_on_c, 0, 69, 100
2, 5178720, Note_on_c, 0, 69, 0
2, 5178720, Note_on_c, 0, 67, 100
2, 5178800, Note_on_c, 0, 67, 0
2, 5178800, Note_on_c, 0, 66, 100
2, 5178880, Note_on_c, 0, 66, 0
2, 5178880, Note_on_c, 0, 64, 100
2, 5178960, Note_on_c, 0, 64, 0
2, 5178960, Note_on_c, 0, 79, 100
2, 5179920, Note_on_c, 0, 79, 0
2, 5179920, Note_on_c, 0, 78, 100
2, 5179980, Note_on_c, 0, 78, 0
2, 5179980, Note_on_c, 0, 76, 100
2, 5180400, Note_on_c, 0, 76, 0
2, 5180400, Note_on_c, 0, 74, 100
2, 5180460, Note_on_c, 0, 74, 0
2, 5180460, Note_on_c, 0, 77, 100
2, 5181360, Note_on_c, 0, 77, 0
2, 5181360, Note_on_c, 0, 76, 100
2, 5181420, Note_on_c, 0, 76, 0
2, 5181420, Note_on_c, 0, 74, 100
2, 5181840, Note_on_c, 0, 74, 0
2, 5181840, Note_on_c, 0, 72, 100
2, 5183280, Note_on_c, 0, 72, 0
2, 5183280, Note_on_c, 0, 66, 100
2, 5184240, Note_on_c, 0, 66, 0
2, 5184240, Note_on_c, 0, 67, 100
2, 5184720, Note_on_c, 0, 67, 0
2, 5184720, Note_on_c, 0, 71, 100
2, 5185680, Note_on_c, 0, 71, 0
2, 5185680, Note_on_c, 0, 72, 100
2, 5186160, Note_on_c, 0, 72, 0
2, 5186160, Note_on_c, 0, 62, 100
2, 5676600, Note_on_c, 0, 62, 0
2, 5676600, Note_on_c, 0, 64, 100
2, 5676720, Note_on_c, 0, 64, 0
2, 5676720, Note_on_c, 0, 66, 100
2, 5676840, Note_on_c, 0, 66, 0
2, 5676840, Note_on_c, 0, 67, 100
2, 5676960, Note_on_c, 0, 67, 0
2, 5676960, Note_on_c, 0, 68, 100
2, 5677200, Note_on_c, 0, 68, 0
2, 5677200, Note_on_c, 0, 69, 100
2, 5677440, Note_on_c, 0, 69, 0
2, 5677440, Note_on_c, 0, 64, 100
2, 5677680, Note_on_c, 0, 64, 0
2, 5677680, Note_on_c, 0, 65, 100
2, 5677920, Note_on_c, 0, 65, 0
2, 5677920, Note_on_c, 0, 66, 100
2, 5678160, Note_on_c, 0, 66, 0
2, 5678160, Note_on_c, 0, 67, 100
2, 5678400, Note_on_c, 0, 67, 0
2, 5678400, Note_on_c, 0, 64, 100
2, 5679000, Note_on_c, 0, 64, 0
2, 5679000, Note_on_c, 0, 62, 100
2, 5679120, Note_on_c, 0, 62, 0
2, 5679120, Note_on_c, 0, 61, 100
2, 5679240, Note_on_c, 0, 61, 0
2, 5679240, Note_on_c, 0, 62, 100
2, 5679360, Note_on_c, 0, 62, 0
2, 5679360, Note_on_c, 0, 66, 100
2, 5679480, Note_on_c, 0, 66, 0
2, 5679480, Note_on_c, 0, 69, 100
2, 5679600, Note_on_c, 0, 69, 0
2, 5679600, Note_on_c, 0, 67, 100
2, 5679960, Note_on_c, 0, 67, 0
2, 5679960, Note_on_c, 0, 66, 100
2, 5680020, Note_on_c, 0, 66, 0
2, 5680020, Note_on_c, 0, 67, 100
2, 5680080, Note_on_c, 0, 67, 0
2, 5680080, Note_on_c, 0, 69, 100
2, 5680200, Note_on_c, 0, 69, 0
2, 5680200, Note_on_c, 0, 71, 100
2, 5680320, Note_on_c, 0, 71, 0
2, 5680320, Note_on_c, 0, 62, 100
2, 5680440, Note_on_c, 0, 62, 0
2, 5680440, Note_on_c, 0, 64, 100
2, 5680560, Note_on_c, 0, 64, 0
2, 5680560, Note_on_c, 0, 66, 100
2, 5680680, Note_on_c, 0, 66, 0
2, 5680680, Note_on_c, 0, 67, 100
2, 5680800, Note_on_c, 0, 67, 0
2, 5680800, Note_on_c, 0, 68, 100
2, 5681040, Note_on_c, 0, 68, 0
2, 5681040, Note_on_c, 0, 69, 100
2, 5681280, Note_on_c, 0, 69, 0
2, 5681280, Note_on_c, 0, 64, 100
2, 5681520, Note_on_c, 0, 64, 0
2, 5681520, Note_on_c, 0, 65, 100
2, 5681760, Note_on_c, 0, 65, 0
2, 5681760, Note_on_c, 0, 66, 100
2, 5682000, Note_on_c, 0, 66, 0
2, 5682000, Note_on_c, 0, 67, 100
2, 5682240, Note_on_c, 0, 67, 0
2, 5682240, Note_on_c, 0, 64, 100
2, 5682840, Note_on_c, 0, 64, 0
2, 5682840, Note_on_c, 0, 62, 100
2, 5682960, Note_on_c, 0, 62, 0
2, 5682960, Note_on_c, 0, 61, 100
2, 5683080, Note_on_c, 0, 61, 0
2, 5683080, Note_on_c, 0, 62, 100
2, 5683200, Note_on_c, 0, 62, 0
2, 5683200, Note_on_c, 0, 66, 100
2, 5683320, Note_on_c, 0, 66, 0
2, 5683320, Note_on_c, 0, 69, 100
2, 5683440, Note_on_c, 0, 69, 0
2, 5683440, Note_on_c, 0, 67, 100
2, 5683800, Note_on_c, 0, 67, 0
2, 5683800, Note_on_c, 0, 66, 100
2, 5683860, Note_on_c, 0, 66, 0
2, 5683860, Note_on_c, 0, 67, 100
2, 5683920, Note_on_c, 0, 67, 0
2, 5683920, Note_on_c, 0, 69, 100
2, 5684040, Note_on_c, 0, 69, 0
2, 5684040, Note_on_c, 0, 71, 100
2, 5684160, Note_on_c, 0, 71, 0
2, 5684160, Note_on_c, 0, 62, 100
2, 5684280, Note_on_c, 0, 62, 0
2, 5684280, Note_on_c, 0, 64, 100
2, 5684400, Note_on_c, 0, 64, 0
2, 5684400, Note_on_c, 0, 66, 100
2, 5684520, Note_on_c, 0, 66, 0
2, 5684520, Note_on_c, 0, 67, 100
2, 5684640, Note_on_c, 0, 67, 0
2, 5684640, Note_on_c, 0, 68, 100
2, 5684880, Note_on_c, 0, 68, 0
2, 5684880, Note_on_c, 0, 69, 100
2, 5685120, Note_on_c, 0, 69, 0
2, 5685120, Note_on_c, 0, 64, 100
2, 5685360, Note_on_c, 0, 64, 0
2, 5685360, Note_on_c, 0, 65, 100
2, 5685600, Note_on_c, 0, 65, 0
2, 5685600, Note_on_c, 0, 66, 100
2, 5685840, Note_on_c, 0, 66, 0
2, 5685840, Note_on_c, 0, 67, 100
2, 5687640, Note_on_c, 0, 67, 0
2, 5687640, Note_on_c, 0, 66, 100
2, 5687760, Note_on_c, 0, 66, 0
2, 5687760, Note_on_c, 0, 64, 100
2, 5687880, Note_on_c, 0, 64, 0
2, 5687880, Note_on_c, 0, 62, 100
2, 5688000, Note_on_c, 0, 62, 0
2, 5688000, Note_on_c, 0, 59, 100
2, 5688120, Note_on_c, 0, 59, 0
2, 5688120, Note_on_c, 0, 60, 100
2, 5688240, Note_on_c, 0, 60, 0
2, 5688240, Note_on_c, 0, 62, 100
2, 5688360, Note_on_c, 0, 62, 0
2, 5688360, Note_on_c, 0, 55, 100
2, 5688480, Note_on_c, 0, 55, 0
2, 5688480, Note_on_c, 0, 54, 100
2, 5689080, Note_on_c, 0, 54, 0
2, 5689080, Note_on_c, 0, 55, 100
2, 5689200, Note_on_c, 0, 55, 0
2, 5689200, Note_on_c, 0, 57, 100
2, 5689320, Note_on_c, 0, 57, 0
2, 5689320, Note_on_c, 0, 55, 100
2, 5689440, Note_on_c, 0, 55, 0
2, 5689440, Note_on_c, 0, 71, 100
2, 5690040, Note_on_c, 0, 71, 0
2, 5690040, Note_on_c, 0, 69, 100
2, 5690160, Note_on_c, 0, 69, 0
2, 5690160, Note_on_c, 0, 67, 100
2, 5690280, Note_on_c, 0, 67, 0
2, 5690280, Note_on_c, 0, 66, 100
2, 5690400, Note_on_c, 0, 66, 0
2, 5690400, Note_on_c, 0, 62, 100
2, 5690520, Note_on_c, 0, 62, 0
2, 5690520, Note_on_c, 0, 64, 100
2, 5690640, Note_on_c, 0, 64, 0
2, 5690640, Note_on_c, 0, 66, 100
2, 5690760, Note_on_c, 0, 66, 0
2, 5690760, Note_on_c, 0, 59, 100
2, 5690880, Note_on_c, 0, 59, 0
2, 5690880, Note_on_c, 0, 60, 100
2, 5691120, Note_on_c, 0, 60, 0
2, 5691120, Note_on_c, 0, 62, 100
2, 5691360, Note_on_c, 0, 62, 0
2, 5691360, Note_on_c, 0, 67, 100
2, 5691480, Note_on_c, 0, 67, 0
2, 5691480, Note_on_c, 0, 66, 100
2, 5691600, Note_on_c, 0, 66, 0
2, 5691600, Note_on_c, 0, 64, 100
2, 5691720, Note_on_c, 0, 64, 0
2, 5691720, Note_on_c, 0, 62, 100
2, 5691840, Note_on_c, 0, 62, 0
2, 5691840, Note_on_c, 0, 59, 100
2, 5691960, Note_on_c, 0, 59, 0
2, 5691960, Note_on_c, 0, 60, 100
2, 5692080, Note_on_c, 0, 60, 0
2, 5692080, Note_on_c, 0, 62, 100
2, 5692200, Note_on_c, 0, 62, 0
2, 5692200, Note_on_c, 0, 55, 100
2, 5692320, Note_on_c, 0, 55, 0
2, 5692320, Note_on_c, 0, 54, 100
2, 5692920, Note_on_c, 0, 54, 0
2, 5692920, Note_on_c, 0, 55, 100
2, 5693040, Note_on_c, 0, 55, 0
2, 5693040, Note_on_c, 0, 57, 100
2, 5693160, Note_on_c, 0, 57, 0
2, 5693160, Note_on_c, 0, 55, 100
2, 5693280, Note_on_c, 0, 55, 0
2, 5693280, Note_on_c, 0, 71, 100
2, 5693880, Note_on_c, 0, 71, 0
2, 5693880, Note_on_c, 0, 69, 100
2, 5694000, Note_on_c, 0, 69, 0
2, 5694000, Note_on_c, 0, 67, 100
2, 5694120, Note_on_c, 0, 67, 0
2, 5694120, Note_on_c, 0, 66, 100
2, 5694240, Note_on_c, 0, 66, 0
2, 5694240, Note_on_c, 0, 62, 100
2, 5694360, Note_on_c, 0, 62, 0
2, 5694360, Note_on_c, 0, 64, 100
2, 5694480, Note_on_c, 0, 64, 0
2, 5694480, Note_on_c, 0, 66, 100
2, 5694600, Note_on_c, 0, 66, 0
2, 5694600, Note_on_c, 0, 59, 100
2, 5694720, Note_on_c, 0, 59, 0
2, 5694720, Note_on_c, 0, 60, 100
2, 5694960, Note_on_c, 0, 60, 0
2, 5694960, Note_on_c, 0, 62, 100
2, 5695200, Note_on_c, 0, 62, 0
2, 5695200, Note_on_c, 0, 67, 100
2, 5695320, Note_on_c, 0, 67, 0
2, 5695320, Note_on_c, 0, 66, 100
2, 5695440, Note_on_c, 0, 66, 0
2, 5695440, Note_on_c, 0, 64, 100
2, 5695560, Note_on_c, 0, 64, 0
2, 5695560, Note_on_c, 0, 74, 100
2, 5695680, Note_on_c, 0, 74, 0
2, 5695680, Note_on_c, 0, 76, 100
2, 5696280, Note_on_c, 0, 76, 0
2, 5696280, Note_on_c, 0, 74, 100
2, 5696400, Note_on_c, 0, 74, 0
2, 5696400, Note_on_c, 0, 73, 100
2, 5696520, Note_on_c, 0, 73, 0
2, 5696520, Note_on_c, 0, 74, 100
2, 5696640, Note_on_c, 0, 74, 0
2, 5696640, Note_on_c, 0, 59, 100
2, 5697240, Note_on_c, 0, 59, 0
2, 5697240, Note_on_c, 0, 60, 100
2, 5697360, Note_on_c, 0, 60, 0
2, 5697360, Note_on_c, 0, 62, 100
2, 5697480, Note_on_c, 0, 62, 0
2, 5697480, Note_on_c, 0, 64, 100
2, 5697600, Note_on_c, 0, 64, 0
2, 5697600, Note_on_c, 0, 67, 100
2, 5697720, Note_on_c, 0, 67, 0
2, 5697720, Note_on_c, 0, 66, 100
2, 5697840, Note_on_c, 0, 66, 0
2, 5697840, Note_on_c, 0, 64, 100
2, 5697960, Note_on_c, 0, 64, 0
2, 5697960, Note_on_c, 0, 71, 100
2, 5698080, Note_on_c, 0, 71, 0
2, 5698080, Note_on_c, 0, 69, 100
2, 5698320, Note_on_c, 0, 69, 0
2, 5698320, Note_on_c, 0, 67, 100
2, 5698560, Note_on_c, 0, 67, 0
2, 5698560, Note_on_c, 0, 62, 100
2, 5701680, Note_on_c, 0, 62, 0
2, 5701680, Note_on_c, 0, 64, 100
2, 5701800, Note_on_c, 0, 64, 0
2, 5701800, Note_on_c, 0, 66, 100
2, 5701920, Note_on_c, 0, 66, 0
2, 5701920, Note_on_c, 0, 68, 100
2, 5702160, Note_on_c, 0, 68, 0
2, 5702160, Note_on_c, 0, 69, 100
2, 5702400, Note_on_c, 0, 69, 0
2, 5702400, Note_on_c, 0, 72, 100
2, 5702640, Note_on_c, 0, 72, 0
2, 5702640, Note_on_c, 0, 71, 100
2, 5702880, Note_on_c, 0, 71, 0
2, 5702880, Note_on_c, 0, 69, 100
2, 5703120, Note_on_c, 0, 69, 0
2, 5703120, Note_on_c, 0, 76, 100
2, 5703360, Note_on_c, 0, 76, 0
2, 5703360, Note_on_c, 0, 74, 100
2, 5704080, Note_on_c, 0, 74, 0
2, 5704080, Note_on_c, 0, 81, 100
2, 5704320, Note_on_c, 0, 81, 0
2, 5704320, Note_on_c, 0, 69, 100
2, 5704560, Note_on_c, 0, 69, 0
2, 5704560, Note_on_c, 0, 71, 100
2, 5704800, Note_on_c, 0, 71, 0
2, 5704800, Note_on_c, 0, 73, 100
2, 5705040, Note_on_c, 0, 73, 0
2, 5705040, Note_on_c, 0, 74, 100
2, 5705280, Note_on_c, 0, 74, 0
2, 5705280, Note_on_c, 0, 62, 100
2, 5705520, Note_on_c, 0, 62, 0
2, 5705520, Note_on_c, 0, 64, 100
2, 5705640, Note_on_c, 0, 64, 0
2, 5705640, Note_on_c, 0, 66, 100
2, 5705760, Note_on_c, 0, 66, 0
2, 5705760, Note_on_c, 0, 68, 100
2, 5706000, Note_on_c, 0, 68, 0
2, 5706000, Note_on_c, 0, 69, 100
2, 5706240, Note_on_c, 0, 69, 0
2, 5706240, Note_on_c, 0, 72, 100
2, 5706480, Note_on_c, 0, 72, 0
2, 5706480, Note_on_c, 0, 71, 100
2, 5706720, Note_on_c, 0, 71, 0
2, 5706720, Note_on_c, 0, 69, 100
2, 5706960, Note_on_c, 0, 69, 0
2, 5706960, Note_on_c, 0, 76, 100
2, 5707200, Note_on_c, 0, 76, 0
2, 5707200, Note_on_c, 0, 74, 100
2, 5707920, Note_on_c, 0, 74, 0
2, 5707920, Note_on_c, 0, 81, 100
2, 5708160, Note_on_c, 0, 81, 0
2, 5708160, Note_on_c, 0, 69, 100
2, 5708400, Note_on_c, 0, 69, 0
2, 5708400, Note_on_c, 0, 71, 100
2, 5708640, Note_on_c, 0, 71, 0
2, 5708640, Note_on_c, 0, 73, 100
2, 5708880, Note_on_c, 0, 73, 0
2, 5708880, Note_on_c, 0, 74, 100
2, 5709120, Note_on_c, 0, 74, 0
2, 5709120, Note_on_c, 0, 62, 100
2, 5709360, Note_on_c, 0, 62, 0
2, 5709360, Note_on_c, 0, 64, 100
2, 5709480, Note_on_c, 0, 64, 0
2, 5709480, Note_on_c, 0, 66, 100
2, 5709600, Note_on_c, 0, 66, 0
2, 5709600, Note_on_c, 0, 68, 100
2, 5709840, Note_on_c, 0, 68, 0
2, 5709840, Note_on_c, 0, 69, 100
2, 5710080, Note_on_c, 0, 69, 0
2, 5710080, Note_on_c, 0, 72, 100
2, 5710320, Note_on_c, 0, 72, 0
2, 5710320, Note_on_c, 0, 71, 100
2, 5710560, Note_on_c, 0, 71, 0
2, 5710560, Note_on_c, 0, 69, 100
2, 5710800, Note_on_c, 0, 69, 0
2, 5710800, Note_on_c, 0, 76, 100
2, 5711040, Note_on_c, 0, 76, 0
2, 5711040, Note_on_c, 0, 67, 100
2, 5712120, Note_on_c, 0, 67, 0
2, 5712120, Note_on_c, 0, 71, 100
2, 5712240, Note_on_c, 0, 71, 0
2, 5712240, Note_on_c, 0, 74, 100
2, 5712360, Note_on_c, 0, 74, 0
2, 5712360, Note_on_c, 0, 79, 100
2, 5712480, Note_on_c, 0, 79, 0
2, 5712480, Note_on_c, 0, 74, 100
2, 5712600, Note_on_c, 0, 74, 0
2, 5712600, Note_on_c, 0, 71, 100
2, 5712720, Note_on_c, 0, 71, 0
2, 5712720, Note_on_c, 0, 67, 100
2, 5712840, Note_on_c, 0, 67, 0
2, 5712840, Note_on_c, 0, 74, 100
2, 5712960, Note_on_c, 0, 74, 0
2, 5712960, Note_on_c, 0, 62, 100
2, 5713080, Note_on_c, 0, 62, 0
2, 5713080, Note_on_c, 0, 67, 100
2, 5713200, Note_on_c, 0, 67, 0
2, 5713200, Note_on_c, 0, 71, 100
2, 5713320, Note_on_c, 0, 71, 0
2, 5713320, Note_on_c, 0, 61, 100
2, 5713440, Note_on_c, 0, 61, 0
2, 5713440, Note_on_c, 0, 64, 100
2, 5713560, Note_on_c, 0, 64, 0
2, 5713560, Note_on_c, 0, 67, 100
2, 5713680, Note_on_c, 0, 67, 0
2, 5713680, Note_on_c, 0, 73, 100
2, 5713800, Note_on_c, 0, 73, 0
2, 5713800, Note_on_c, 0, 74, 100
2, 5714040, Note_on_c, 0, 74, 0
2, 5714040, Note_on_c, 0, 69, 100
2, 5714160, Note_on_c, 0, 69, 0
2, 5714160, Note_on_c, 0, 66, 100
2, 5714280, Note_on_c, 0, 66, 0
2, 5714280, Note_on_c, 0, 62, 100
2, 5714400, Note_on_c, 0, 62, 0
2, 5714400, Note_on_c, 0, 67, 100
2, 5714520, Note_on_c, 0, 67, 0
2, 5714520, Note_on_c, 0, 71, 100
2, 5714640, Note_on_c, 0, 71, 0
2, 5714640, Note_on_c, 0, 74, 100
2, 5714760, Note_on_c, 0, 74, 0
2, 5714760, Note_on_c, 0, 67, 100
2, 5714880, Note_on_c, 0, 67, 0
2, 5714880, Note_on_c, 0, 74, 100
2, 5715000, Note_on_c, 0, 74, 0
2, 5715000, Note_on_c, 0, 72, 100
2, 5715120, Note_on_c, 0, 72, 0
2, 5715120, Note_on_c, 0, 69, 100
2, 5715240, Note_on_c, 0, 69, 0
2, 5715240, Note_on_c, 0, 71, 100
2, 5715360, Note_on_c, 0, 71, 0
2, 5715360, Note_on_c, 0, 66, 100
2, 5715480, Note_on_c, 0, 66, 0
2, 5715480, Note_on_c, 0, 69, 100
2, 5715600, Note_on_c, 0, 69, 0
2, 5715600, Note_on_c, 0, 74, 100
2, 5715720, Note_on_c, 0, 74, 0
2, 5715720, Note_on_c, 0, 72, 100
2, 5715780, Note_on_c, 0, 72, 0
2, 5715780, Note_on_c, 0, 71, 100
2, 5715840, Note_on_c, 0, 71, 0
2, 5715840, Note_on_c, 0, 69, 100
2, 5715900, Note_on_c, 0, 69, 0
2, 5715900, Note_on_c, 0, 67, 100
2, 5715960, Note_on_c, 0, 67, 0
2, 5715960, Note_on_c, 0, 71, 100
2, 5716080, Note_on_c, 0, 71, 0
2, 5716080, Note_on_c, 0, 74, 100
2, 5716200, Note_on_c, 0, 74, 0
2, 5716200, Note_on_c, 0, 79, 100
2, 5716320, Note_on_c, 0, 79, 0
2, 5716320, Note_on_c, 0, 74, 100
2, 5716440, Note_on_c, 0, 74, 0
2, 5716440, Note_on_c, 0, 71, 100
2, 5716560, Note_on_c, 0, 71, 0
2, 5716560, Note_on_c, 0, 67, 100
2, 5716680, Note_on_c, 0, 67, 0
2, 5716680, Note_on_c, 0, 74, 100
2, 5716800, Note_on_c, 0, 74, 0
2, 5716800, Note_on_c, 0, 62, 100
2, 5716920, Note_on_c, 0, 62, 0
2, 5716920, Note_on_c, 0, 67, 100
2, 5717040, Note_on_c, 0, 67, 0
2, 5717040, Note_on_c, 0, 71, 100
2, 5717160, Note_on_c, 0, 71, 0
2, 5717160, Note_on_c, 0, 61, 100
2, 5717280, Note_on_c, 0, 61, 0
2, 5717280, Note_on_c, 0, 64, 100
2, 5717400, Note_on_c, 0, 64, 0
2, 5717400, Note_on_c, 0, 67, 100
2, 5717520, Note_on_c, 0, 67, 0
2, 5717520, Note_on_c, 0, 73, 100
2, 5717640, Note_on_c, 0, 73, 0
2, 5717640, Note_on_c, 0, 74, 100
2, 5717880, Note_on_c, 0, 74, 0
2, 5717880, Note_on_c, 0, 69, 100
2, 5718000, Note_on_c, 0, 69, 0
2, 5718000, Note_on_c, 0, 66, 100
2, 5718120, Note_on_c, 0, 66, 0
2, 5718120, Note_on_c, 0, 62, 100
2, 5718240, Note_on_c, 0, 62, 0
2, 5718240, Note_on_c, 0, 67, 100
2, 5718360, Note_on_c, 0, 67, 0
2, 5718360, Note_on_c, 0, 71, 100
2, 5718480, Note_on_c, 0, 71, 0
2, 5718480, Note_on_c, 0, 74, 100
2, 5718600, Note_on_c, 0, 74, 0
2, 5718600, Note_on_c, 0, 67, 100
2, 5718720, Note_on_c, 0, 67, 0
2, 5718720, Note_on_c, 0, 74, 100
2, 5718840, Note_on_c, 0, 74, 0
2, 5718840, Note_on_c, 0, 72, 100
2, 5718960, Note_on_c, 0, 72, 0
2, 5718960, Note_on_c, 0, 69, 100
2, 5719080, Note_on_c, 0, 69, 0
2, 5719080, Note_on_c, 0, 71, 100
2, 5719200, Note_on_c, 0, 71, 0
2, 5719200, Note_on_c, 0, 66, 100
2, 5719320, Note_on_c, 0, 66, 0
2, 5719320, Note_on_c, 0, 69, 100
2, 5719440, Note_on_c, 0, 69, 0
2, 5719440, Note_on_c, 0, 74, 100
2, 5719560, Note_on_c, 0, 74, 0
2, 5719560, Note_on_c, 0, 72, 100
2, 5719620, Note_on_c, 0, 72, 0
2, 5719620, Note_on_c, 0, 71, 100
2, 5719680, Note_on_c, 0, 71, 0
2, 5719680, Note_on_c, 0, 69, 100
2, 5719740, Note_on_c, 0, 69, 0
2, 5719740, Note_on_c, 0, 67, 100
2, 5719800, Note_on_c, 0, 67, 0
2, 5719800, Note_on_c, 0, 71, 100
2, 5719920, Note_on_c, 0, 71, 0
2, 5719920, Note_on_c, 0, 74, 100
2, 5720040, Note_on_c, 0, 74, 0
2, 5720040, Note_on_c, 0, 79, 100
2, 5720160, Note_on_c, 0, 79, 0
2, 5720160, Note_on_c, 0, 74, 100
2, 5720280, Note_on_c, 0, 74, 0
2, 5720280, Note_on_c, 0, 71, 100
2, 5720400, Note_on_c, 0, 71, 0
2, 5720400, Note_on_c, 0, 67, 100
2, 5720520, Note_on_c, 0, 67, 0
2, 5720520, Note_on_c, 0, 74, 100
2, 5720640, Note_on_c, 0, 74, 0
2, 5720640, Note_on_c, 0, 62, 100
2, 5720760, Note_on_c, 0, 62, 0
2, 5720760, Note_on_c, 0, 67, 100
2, 5720880, Note_on_c, 0, 67, 0
2, 5720880, Note_on_c, 0, 71, 100
2, 5721000, Note_on_c, 0, 71, 0
2, 5721000, Note_on_c, 0, 61, 100
2, 5721120, Note_on_c, 0, 61, 0
2, 5721120, Note_on_c, 0, 64, 100
2, 5721240, Note_on_c, 0, 64, 0
2, 5721240, Note_on_c, 0, 67, 100
2, 5721360, Note_on_c, 0, 67, 0
2, 5721360, Note_on_c, 0, 73, 100
2, 5721480, Note_on_c, 0, 73, 0
2, 5721480, Note_on_c, 0, 74, 100
2, 5721720, Note_on_c, 0, 74, 0
2, 5721720, Note_on_c, 0, 69, 100
2, 5721840, Note_on_c, 0, 69, 0
2, 5721840, Note_on_c, 0, 66, 100
2, 5721960, Note_on_c, 0, 66, 0
2, 5721960, Note_on_c, 0, 62, 100
2, 5722080, Note_on_c, 0, 62, 0
2, 5722080, Note_on_c, 0, 67, 100
2, 5722200, Note_on_c, 0, 67, 0
2, 5722200, Note_on_c, 0, 71, 100
2, 5722320, Note_on_c, 0, 71, 0
2, 5722320, Note_on_c, 0, 74, 100
2, 5722440, Note_on_c, 0, 74, 0
2, 5722440, Note_on_c, 0, 67, 100
2, 5722560, Note_on_c, 0, 67, 0
2, 5722560, Note_on_c, 0, 74, 100
2, 5722680, Note_on_c, 0, 74, 0
2, 5722680, Note_on_c, 0, 72, 100
2, 5722800, Note_on_c, 0, 72, 0
2, 5722800, Note_on_c, 0, 69, 100
2, 5722920, Note_on_c, 0, 69, 0
2, 5722920, Note_on_c, 0, 71, 100
2, 5723040, Note_on_c, 0, 71, 0
2, 5723040, Note_on_c, 0, 66, 100
2, 5723160, Note_on_c, 0, 66, 0
2, 5723160, Note_on_c, 0, 69, 100
2, 5723280, Note_on_c, 0, 69, 0
2, 5723280, Note_on_c, 0, 74, 100
2, 5723400, Note_on_c, 0, 74, 0
2, 5723400, Note_on_c, 0, 72, 100
2, 5723460, Note_on_c, 0, 72, 0
2, 5723460, Note_on_c, 0, 71, 100
2, 5723520, Note_on_c, 0, 71, 0
2, 5723520, Note_on_c, 0, 74, 100
2, 5739600, Note_on_c, 0, 74, 0
2, 5739600, Note_on_c, 0, 75, 100
2, 5739840, Note_on_c, 0, 75, 0
2, 5739840, Note_on_c, 0, 76, 100
2, 5740080, Note_on_c, 0, 76, 0
2, 5740080, Note_on_c, 0, 77, 100
2, 5740320, Note_on_c, 0, 77, 0
2, 5740320, Note_on_c, 0, 78, 100
2, 5740560, Note_on_c, 0, 78, 0
2, 5740560, Note_on_c, 0, 79, 100
2, 5740800, Note_on_c, 0, 79, 0
2, 5740800, Note_on_c, 0, 78, 100
2, 5740920, Note_on_c, 0, 78, 0
2, 5740920, Note_on_c, 0, 79, 100
2, 5741040, Note_on_c, 0, 79, 0
2, 5741040, Note_on_c, 0, 81, 100
2, 5741160, Note_on_c, 0, 81, 0
2, 5741160, Note_on_c, 0, 83, 100
2, 5741280, Note_on_c, 0, 83, 0
2, 5741280, Note_on_c, 0, 78, 100
2, 5742000, Note_on_c, 0, 78, 0
2, 5742000, Note_on_c, 0, 71, 100
2, 5742240, Note_on_c, 0, 71, 0
2, 5742240, Note_on_c, 0, 73, 100
2, 5742360, Note_on_c, 0, 73, 0
2, 5742360, Note_on_c, 0, 74, 100
2, 5742480, Note_on_c, 0, 74, 0
2, 5742480, Note_on_c, 0, 76, 100
2, 5742600, Note_on_c, 0, 76, 0
2, 5742600, Note_on_c, 0, 78, 100
2, 5742720, Note_on_c, 0, 78, 0
2, 5742720, Note_on_c, 0, 74, 100
2, 5743440, Note_on_c, 0, 74, 0
2, 5743440, Note_on_c, 0, 75, 100
2, 5743680, Note_on_c, 0, 75, 0
2, 5743680, Note_on_c, 0, 76, 100
2, 5743920, Note_on_c, 0, 76, 0
2, 5743920, Note_on_c, 0, 77, 100
2, 5744160, Note_on_c, 0, 77, 0
2, 5744160, Note_on_c, 0, 78, 100
2, 5744400, Note_on_c, 0, 78, 0
2, 5744400, Note_on_c, 0, 79, 100
2, 5744640, Note_on_c, 0, 79, 0
2, 5744640, Note_on_c, 0, 78, 100
2, 5744760, Note_on_c, 0, 78, 0
2, 5744760, Note_on_c, 0, 79, 100
2, 5744880, Note_on_c, 0, 79, 0
2, 5744880, Note_on_c, 0, 81, 100
2, 5745000, Note_on_c, 0, 81, 0
2, 5745000, Note_on_c, 0, 83, 100
2, 5745120, Note_on_c, 0, 83, 0
2, 5745120, Note_on_c, 0, 78, 100
2, 5745840, Note_on_c, 0, 78, 0
2, 5745840, Note_on_c, 0, 71, 100
2, 5746080, Note_on_c, 0, 71, 0
2, 5746080, Note_on_c, 0, 73, 100
2, 5746200, Note_on_c, 0, 73, 0
2, 5746200, Note_on_c, 0, 74, 100
2, 5746320, Note_on_c, 0, 74, 0
2, 5746320, Note_on_c, 0, 76, 100
2, 5746440, Note_on_c, 0, 76, 0
2, 5746440, Note_on_c, 0, 78, 100
2, 5746560, Note_on_c, 0, 78, 0
2, 5746560, Note_on_c, 0, 74, 100
2, 5747280, Note_on_c, 0, 74, 0
2, 5747280, Note_on_c, 0, 75, 100
2, 5747520, Note_on_c, 0, 75, 0
2, 5747520, Note_on_c, 0, 76, 100
2, 5747760, Note_on_c, 0, 76, 0
2, 5747760, Note_on_c, 0, 77, 100
2, 5748000, Note_on_c, 0, 77, 0
2, 5748000, Note_on_c, 0, 78, 100
2, 5748240, Note_on_c, 0, 78, 0
2, 5748240, Note_on_c, 0, 79, 100
2, 5748480, Note_on_c, 0, 79, 0
2, 5748480, Note_on_c, 0, 62, 100
2, 5750040, Note_on_c, 0, 62, 0
2, 5750040, Note_on_c, 0, 64, 100
2, 5750160, Note_on_c, 0, 64, 0
2, 5750160, Note_on_c, 0, 66, 100
2, 5750280, Note_on_c, 0, 66, 0
2, 5750280, Note_on_c, 0, 67, 100
2, 5750400, Note_on_c, 0, 67, 0
2, 5750400, Note_on_c, 0, 71, 100
2, 5750520, Note_on_c, 0, 71, 0
2, 5750520, Note_on_c, 0, 69, 100
2, 5750640, Note_on_c, 0, 69, 0
2, 5750640, Note_on_c, 0, 67, 100
2, 5750760, Note_on_c, 0, 67, 0
2, 5750760, Note_on_c, 0, 74, 100
2, 5750880, Note_on_c, 0, 74, 0
2, 5750880, Note_on_c, 0, 79, 100
2, 5751000, Note_on_c, 0, 79, 0
2, 5751000, Note_on_c, 0, 83, 100
2, 5751120, Note_on_c, 0, 83, 0
2, 5751120, Note_on_c, 0, 81, 100
2, 5751720, Note_on_c, 0, 81, 0
2, 5751720, Note_on_c, 0, 79, 100
2, 5751840, Note_on_c, 0, 79, 0
2, 5751840, Note_on_c, 0, 78, 100
2, 5751960, Note_on_c, 0, 78, 0
2, 5751960, Note_on_c, 0, 76, 100
2, 5752080, Note_on_c, 0, 76, 0
2, 5752080, Note_on_c, 0, 74, 100
2, 5752200, Note_on_c, 0, 74, 0
2, 5752200, Note_on_c, 0, 73, 100
2, 5752320, Note_on_c, 0, 73, 0
2, 5752320, Note_on_c, 0, 79, 100
2, 5752560, Note_on_c, 0, 79, 0
2, 5752560, Note_on_c, 0, 76, 100
2, 5752920, Note_on_c, 0, 76, 0
2, 5752920, Note_on_c, 0, 78, 100
2, 5753040, Note_on_c, 0, 78, 0
2, 5753040, Note_on_c, 0, 79, 100
2, 5753160, Note_on_c, 0, 79, 0
2, 5753160, Note_on_c, 0, 78, 100
2, 5753280, Note_on_c, 0, 78, 0
2, 5753280, Note_on_c, 0, 69, 100
2, 5753520, Note_on_c, 0, 69, 0
2, 5753520, Note_on_c, 0, 62, 100
2, 5753880, Note_on_c, 0, 62, 0
2, 5753880, Note_on_c, 0, 64, 100
2, 5754000, Note_on_c, 0, 64, 0
2, 5754000, Note_on_c, 0, 66, 100
2, 5754120, Note_on_c, 0, 66, 0
2, 5754120, Note_on_c, 0, 67, 100
2, 5754240, Note_on_c, 0, 67, 0
2, 5754240, Note_on_c, 0, 79, 100
2, 5754480, Note_on_c, 0, 79, 0
2, 5754480, Note_on_c, 0, 71, 100
2, 5754840, Note_on_c, 0, 71, 0
2, 5754840, Note_on_c, 0, 69, 100
2, 5754960, Note_on_c, 0, 69, 0
2, 5754960, Note_on_c, 0, 67, 100
2, 5755080, Note_on_c, 0, 67, 0
2, 5755080, Note_on_c, 0, 76, 100
2, 5755200, Note_on_c, 0, 76, 0
2, 5755200, Note_on_c, 0, 64, 100
2, 5755440, Note_on_c, 0, 64, 0
2, 5755440, Note_on_c, 0, 66, 100
2, 5755800, Note_on_c, 0, 66, 0
2, 5755800, Note_on_c, 0, 67, 100
2, 5755920, Note_on_c, 0, 67, 0
2, 5755920, Note_on_c, 0, 69, 100
2, 5756160, Note_on_c, 0, 69, 0
2, 5756160, Note_on_c, 0, 60, 100
2, 5756280, Note_on_c, 0, 60, 0
2, 5756280, Note_on_c, 0, 69, 100
2, 5756400, Note_on_c, 0, 69, 0
2, 5756400, Note_on_c, 0, 72, 100
2, 5756760, Note_on_c, 0, 72, 0
2, 5756760, Note_on_c, 0, 69, 100
2, 5756880, Note_on_c, 0, 69, 0
2, 5756880, Note_on_c, 0, 64, 100
2, 5757000, Note_on_c, 0, 64, 0
2, 5757000, Note_on_c, 0, 62, 100
2, 5757120, Note_on_c, 0, 62, 0
2, 5757120, Note_on_c, 0, 60, 100
2, 5757360, Note_on_c, 0, 60, 0
2, 5757360, Note_on_c, 0, 59, 100
2, 5757600, Note_on_c, 0, 59, 0
2, 5757600, Note_on_c, 0, 62, 100
2, 5757720, Note_on_c, 0, 62, 0
2, 5757720, Note_on_c, 0, 64, 100
2, 5757840, Note_on_c, 0, 64, 0
2, 5757840, Note_on_c, 0, 66, 100
2, 5757960, Note_on_c, 0, 66, 0
2, 5757960, Note_on_c, 0, 67, 100
2, 5758080, Note_on_c, 0, 67, 0
2, 5758080, Note_on_c, 0, 71, 100
2, 5758200, Note_on_c, 0, 71, 0
2, 5758200, Note_on_c, 0, 69, 100
2, 5758320, Note_on_c, 0, 69, 0
2, 5758320, Note_on_c, 0, 67, 100
2, 5758440, Note_on_c, 0, 67, 0
2, 5758440, Note_on_c, 0, 74, 100
2, 5758560, Note_on_c, 0, 74, 0
2, 5758560, Note_on_c, 0, 79, 100
2, 5758680, Note_on_c, 0, 79, 0
2, 5758680, Note_on_c, 0, 83, 100
2, 5758800, Note_on_c, 0, 83, 0
2, 5758800, Note_on_c, 0, 81, 100
2, 5759400, Note_on_c, 0, 81, 0
2, 5759400, Note_on_c, 0, 79, 100
2, 5759520, Note_on_c, 0, 79, 0
2, 5759520, Note_on_c, 0, 78, 100
2, 5759640, Note_on_c, 0, 78, 0
2, 5759640, Note_on_c, 0, 76, 100
2, 5759760, Note_on_c, 0, 76, 0
2, 5759760, Note_on_c, 0, 74, 100
2, 5759880, Note_on_c, 0, 74, 0
2, 5759880, Note_on_c, 0, 73, 100
2, 5760000, Note_on_c, 0, 73, 0
2, 5760000, Note_on_c, 0, 79, 100
2, 5760240, Note_on_c, 0, 79, 0
2, 5760240, Note_on_c, 0, 76, 100
2, 5760600, Note_on_c, 0, 76, 0
2, 5760600, Note_on_c, 0, 78, 100
2, 5760720, Note_on_c, 0, 78, 0
2, 5760720, Note_on_c, 0, 79, 100
2, 5760840, Note_on_c, 0, 79, 0
2, 5760840, Note_on_c, 0, 78, 100
2, 5760960, Note_on_c, 0, 78, 0
2, 5760960, Note_on_c, 0, 69, 100
2, 5761200, Note_on_c, 0, 69, 0
2, 5761200, Note_on_c, 0, 62, 100
2, 5761560, Note_on_c, 0, 62, 0
2, 5761560, Note_on_c, 0, 64, 100
2, 5761680, Note_on_c, 0, 64, 0
2, 5761680, Note_on_c, 0, 66, 100
2, 5761800, Note_on_c, 0, 66, 0
2, 5761800, Note_on_c, 0, 67, 100
2, 5761920, Note_on_c, 0, 67, 0
2, 5761920, Note_on_c, 0, 79, 100
2, 5762160, Note_on_c, 0, 79, 0
2, 5762160, Note_on_c, 0, 71, 100
2, 5762520, Note_on_c, 0, 71, 0
2, 5762520, Note_on_c, 0, 69, 100
2, 5762640, Note_on_c, 0, 69, 0
2, 5762640, Note_on_c, 0, 67, 100
2, 5762760, Note_on_c, 0, 67, 0
2, 5762760, Note_on_c, 0, 76, 100
2, 5762880, Note_on_c, 0, 76, 0
2, 5762880, Note_on_c, 0, 64, 100
2, 5763120, Note_on_c, 0, 64, 0
2, 5763120, Note_on_c, 0, 66, 100
2, 5763480, Note_on_c, 0, 66, 0
2, 5763480, Note_on_c, 0, 67, 100
2, 5763600, Note_on_c, 0, 67, 0
2, 5763600, Note_on_c, 0, 69, 100
2, 5763840, Note_on_c, 0, 69, 0
2, 5763840, Note_on_c, 0, 60, 100
2, 5763960, Note_on_c, 0, 60, 0
2, 5763960, Note_on_c, 0, 69, 100
2, 5764080, Note_on_c, 0, 69, 0
2, 5764080, Note_on_c, 0, 72, 100
2, 5764440, Note_on_c, 0, 72, 0
2, 5764440, Note_on_c, 0, 69, 100
2, 5764560, Note_on_c, 0, 69, 0
2, 5764560, Note_on_c, 0, 64, 100
2, 5764680, Note_on_c, 0, 64, 0
2, 5764680, Note_on_c, 0, 62, 100
2, 5764800, Note_on_c, 0, 62, 0
2, 5764800, Note_on_c, 0, 60, 100
2, 5765040, Note_on_c, 0, 60, 0
2, 5765040, Note_on_c, 0, 59, 100
2, 5765280, Note_on_c, 0, 59, 0
2, 5765280, Note_on_c, 0, 62, 100
2, 5765400, Note_on_c, 0, 62, 0
2, 5765400, Note_on_c, 0, 64, 100
2, 5765520, Note_on_c, 0, 64, 0
2, 5765520, Note_on_c, 0, 66, 100
2, 5765640, Note_on_c, 0, 66, 0
2, 5765640, Note_on_c, 0, 67, 100
2, 5765760, Note_on_c, 0, 67, 0
2, 5765760, Note_on_c, 0, 71, 100
2, 5765880, Note_on_c, 0, 71, 0
2, 5765880, Note_on_c, 0, 69, 100
2, 5766000, Note_on_c, 0, 69, 0
2, 5766000, Note_on_c, 0, 67, 100
2, 5766120, Note_on_c, 0, 67, 0
2, 5766120, Note_on_c, 0, 74, 100
2, 5766240, Note_on_c, 0, 74, 0
2, 5766240, Note_on_c, 0, 79, 100
2, 5766360, Note_on_c, 0, 79, 0
2, 5766360, Note_on_c, 0, 83, 100
2, 5766480, Note_on_c, 0, 83, 0
2, 5766480, Note_on_c, 0, 81, 100
2, 5767080, Note_on_c, 0, 81, 0
2, 5767080, Note_on_c, 0, 79, 100
2, 5767200, Note_on_c, 0, 79, 0
2, 5767200, Note_on_c, 0, 78, 100
2, 5767320, Note_on_c, 0, 78, 0
2, 5767320, Note_on_c, 0, 76, 100
2, 5767440, Note_on_c, 0, 76, 0
2, 5767440, Note_on_c, 0, 74, 100
2, 5767560, Note_on_c, 0, 74, 0
2, 5767560, Note_on_c, 0, 73, 100
2, 5767680, Note_on_c, 0, 73, 0
2, 5767680, Note_on_c, 0, 79, 100
2, 5767920, Note_on_c, 0, 79, 0
2, 5767920, Note_on_c, 0, 76, 100
2, 5768280, Note_on_c, 0, 76, 0
2, 5768280, Note_on_c, 0, 78, 100
2, 5768400, Note_on_c, 0, 78, 0
2, 5768400, Note_on_c, 0, 79, 100
2, 5768520, Note_on_c, 0, 79, 0
2, 5768520, Note_on_c, 0, 78, 100
2, 5768640, Note_on_c, 0, 78, 0
2, 5768640, Note_on_c, 0, 69, 100
2, 5768880, Note_on_c, 0, 69, 0
2, 5768880, Note_on_c, 0, 62, 100
2, 5771040, Note_on_c, 0, 62, 0
2, 5771040, Note_on_c, 0, 64, 100
2, 5772000, Note_on_c, 0, 64, 0
2, 5772000, Note_on_c, 0, 66, 100
2, 5772480, Note_on_c, 0, 66, 0
2, 5772480, Note_on_c, 0, 67, 100
2, 5772960, Note_on_c, 0, 67, 0
2, 5772960, Note_on_c, 0, 64, 100
2, 5773680, Note_on_c, 0, 64, 0
2, 5773680, Note_on_c, 0, 62, 100
2, 5773920, Note_on_c, 0, 62, 0
2, 5773920, Note_on_c, 0, 60, 100
2, 5774160, Note_on_c, 0, 60, 0
2, 5774160, Note_on_c, 0, 59, 100
2, 5774400, Note_on_c, 0, 59, 0
2, 5774400, Note_on_c, 0, 60, 100
2, 5774640, Note_on_c, 0, 60, 0
2, 5774640, Note_on_c, 0, 62, 100
2, 5774880, Note_on_c, 0, 62, 0
2, 5774880, Note_on_c, 0, 64, 100
2, 5775840, Note_on_c, 0, 64, 0
2, 5775840, Note_on_c, 0, 66, 100
2, 5776320, Note_on_c, 0, 66, 0
2, 5776320, Note_on_c, 0, 67, 100
2, 5776800, Note_on_c, 0, 67, 0
2, 5776800, Note_on_c, 0, 64, 100
2, 5777520, Note_on_c, 0, 64, 0
2, 5777520, Note_on_c, 0, 62, 100
2, 5777760, Note_on_c, 0, 62, 0
2, 5777760, Note_on_c, 0, 60, 100
2, 5778000, Note_on_c, 0, 60, 0
2, 5778000, Note_on_c, 0, 59, 100
2, 5778240, Note_on_c, 0, 59, 0
2, 5778240, Note_on_c, 0, 60, 100
2, 5778480, Note_on_c, 0, 60, 0
2, 5778480, Note_on_c, 0, 62, 100
2, 5778720, Note_on_c, 0, 62, 0
2, 5778720, Note_on_c, 0, 64, 100
2, 5779680, Note_on_c, 0, 64, 0
2, 5779680, Note_on_c, 0, 66, 100
2, 5780160, Note_on_c, 0, 66, 0
2, 5780160, Note_on_c, 0, 67, 100
2, 5780640, Note_on_c, 0, 67, 0
2, 5780640, Note_on_c, 0, 64, 100
2, 5781360, Note_on_c, 0, 64, 0
2, 5781360, Note_on_c, 0, 62, 100
2, 5781600, Note_on_c, 0, 62, 0
2, 5781600, Note_on_c, 0, 60, 100
2, 5781840, Note_on_c, 0, 60, 0
2, 5781840, Note_on_c, 0, 59, 100
2, 5782080, Note_on_c, 0, 59, 0
2, 5782080, Note_on_c, 0, 62, 100
2, 5783520, Note_on_c, 0, 62, 0
2, 5783520, Note_on_c, 0, 61, 100
2, 5784960, Note_on_c, 0, 61, 0
2, 5784960, Note_on_c, 0, 57, 100
2, 5786400, Note_on_c, 0, 57, 0
2, 5786400, Note_on_c, 0, 55, 100
2, 5787840, Note_on_c, 0, 55, 0
2, 5787840, Note_on_c, 0, 57, 100
2, 5789280, Note_on_c, 0, 57, 0
2, 5789280, Note_on_c, 0, 60, 100
2, 5790000, Note_on_c, 0, 60, 0
2, 5790000, Note_on_c, 0, 59, 100
2, 5790480, Note_on_c, 0, 59, 0
2, 5790480, Note_on_c, 0, 57, 100
2, 5790600, Note_on_c, 0, 57, 0
2, 5790600, Note_on_c, 0, 55, 100
2, 5790720, Note_on_c, 0, 55, 0
2, 5790720, Note_on_c, 0, 54, 100
2, 5790840, Note_on_c, 0, 54, 0
2, 5790840, Note_on_c, 0, 52, 100
2, 5790960, Note_on_c, 0, 52, 0
2, 5790960, Note_on_c, 0, 54, 100
2, 5791080, Note_on_c, 0, 54, 0
2, 5791080, Note_on_c, 0, 55, 100
2, 5791200, Note_on_c, 0, 55, 0
2, 5791200, Note_on_c, 0, 57, 100
2, 5791440, Note_on_c, 0, 57, 0
2, 5791440, Note_on_c, 0, 59, 100
2, 5793120, Note_on_c, 0, 59, 0
2, 5793120, Note_on_c, 0, 57, 100
2, 5794080, Note_on_c, 0, 57, 0
2, 5794080, Note_on_c, 0, 59, 100
2, 5795760, Note_on_c, 0, 59, 0
2, 5795760, Note_on_c, 0, 57, 100
2, 5798880, Note_on_c, 0, 57, 0
2, 5798880, Note_on_c, 0, 59, 100
2, 5800320, Note_on_c, 0, 59, 0
2, 5800320, Note_on_c, 0, 57, 100
2, 5803440, Note_on_c, 0, 57, 0
2, 5803440, Note_on_c, 0, 62, 100
2, 5806560, Note_on_c, 0, 62, 0
2, 5806560, Note_on_c, 0, 61, 100
2, 5808000, Note_on_c, 0, 61, 0
2, 5808000, Note_on_c, 0, 57, 100
2, 5809440, Note_on_c, 0, 57, 0
2, 5809440, Note_on_c, 0, 55, 100
2, 5810880, Note_on_c, 0, 55, 0
2, 5810880, Note_on_c, 0, 57, 100
2, 5812320, Note_on_c, 0, 57, 0
2, 5812320, Note_on_c, 0, 60, 100
2, 5813040, Note_on_c, 0, 60, 0
2, 5813040, Note_on_c, 0, 59, 100
2, 5813520, Note_on_c, 0, 59, 0
2, 5813520, Note_on_c, 0, 57, 100
2, 5813640, Note_on_c, 0, 57, 0
2, 5813640, Note_on_c, 0, 55, 100
2, 5813760, Note_on_c, 0, 55, 0
2, 5813760, Note_on_c, 0, 54, 100
2, 5813880, Note_on_c, 0, 54, 0
2, 5813880, Note_on_c, 0, 52, 100
2, 5814000, Note_on_c, 0, 52, 0
2, 5814000, Note_on_c, 0, 54, 100
2, 5814120, Note_on_c, 0, 54, 0
2, 5814120, Note_on_c, 0, 55, 100
2, 5814240, Note_on_c, 0, 55, 0
2, 5814240, Note_on_c, 0, 57, 100
2, 5814480, Note_on_c, 0, 57, 0
2, 5814480, Note_on_c, 0, 59, 100
2, 5816160, Note_on_c, 0, 59, 0
2, 5816160, Note_on_c, 0, 57, 100
2, 5817120, Note_on_c, 0, 57, 0
2, 5817120, Note_on_c, 0, 59, 100
2, 5818800, Note_on_c, 0, 59, 0
2, 5818800, Note_on_c, 0, 57, 100
2, 5821920, Note_on_c, 0, 57, 0
2, 5821920, Note_on_c, 0, 59, 100
2, 5823360, Note_on_c, 0, 59, 0
2, 5823360, Note_on_c, 0, 57, 100
2, 5826480, Note_on_c, 0, 57, 0
2, 5826480, Note_on_c, 0, 62, 100
2, 5827200, Note_on_c, 0, 62, 0
2, 5827200, Note_on_c, 0, 60, 100
2, 5828160, Note_on_c, 0, 60, 0
2, 5828160, Note_on_c, 0, 59, 100
2, 5828640, Note_on_c, 0, 59, 0
2, 5828640, Note_on_c, 0, 57, 100
2, 5829360, Note_on_c, 0, 57, 0
2, 5829360, Note_on_c, 0, 59, 100
2, 5829600, Note_on_c, 0, 59, 0
2, 5829600, Note_on_c, 0, 60, 100
2, 5830080, Note_on_c, 0, 60, 0
2, 5830080, Note_on_c, 0, 59, 100
2, 5830800, Note_on_c, 0, 59, 0
2, 5830800, Note_on_c, 0, 57, 100
2, 5831040, Note_on_c, 0, 57, 0
2, 5831040, Note_on_c, 0, 59, 100
2, 5831520, Note_on_c, 0, 59, 0
2, 5831520, Note_on_c, 0, 57, 100
2, 5832240, Note_on_c, 0, 57, 0
2, 5832240, Note_on_c, 0, 55, 100
2, 5832480, Note_on_c, 0, 55, 0
2, 5832480, Note_on_c, 0, 54, 100
2, 5832720, Note_on_c, 0, 54, 0
2, 5832720, Note_on_c, 0, 52, 100
2, 5832960, Note_on_c, 0, 52, 0
2, 5832960, Note_on_c, 0, 50, 100
2, 5833920, Note_on_c, 0, 50, 0
2, 5833920, Note_on_c, 0, 48, 100
2, 5834400, Note_on_c, 0, 48, 0
2, 5834400, Note_on_c, 0, 47, 100
2, 5835360, Note_on_c, 0, 47, 0
2, 5835360, Note_on_c, 0, 45, 100
2, 5835840, Note_on_c, 0, 45, 0
2, 5835840, Note_on_c, 0, 48, 100
2, 5836080, Note_on_c, 0, 48, 0
2, 5836080, Note_on_c, 0, 47, 100
2, 5836320, Note_on_c, 0, 47, 0
2, 5836320, Note_on_c, 0, 45, 100
2, 5836560, Note_on_c, 0, 45, 0
2, 5836560, Note_on_c, 0, 47, 100
2, 5836800, Note_on_c, 0, 47, 0
2, 5836800, Note_on_c, 0, 52, 100
2, 5837280, Note_on_c, 0, 52, 0
2, 5837280, Note_on_c, 0, 47, 100
2, 5837520, Note_on_c, 0, 47, 0
2, 5837520, Note_on_c, 0, 40, 100
2, 5837760, Note_on_c, 0, 40, 0
2, 5837760, Note_on_c, 0, 47, 100
2, 5838000, Note_on_c, 0, 47, 0
2, 5838000, Note_on_c, 0, 52, 100
2, 5838240, Note_on_c, 0, 52, 0
2, 5838240, Note_on_c, 0, 50, 100
2, 5838480, Note_on_c, 0, 50, 0
2, 5838480, Note_on_c, 0, 48, 100
2, 5838720, Note_on_c, 0, 48, 0
2, 5838720, Note_on_c, 0, 47, 100
2, 5840160, Note_on_c, 0, 47, 0
2, 5840160, Note_on_c, 0, 45, 100
2, 5841600, Note_on_c, 0, 45, 0
2, 5841600, Note_on_c, 0, 43, 100
2, 5842320, Note_on_c, 0, 43, 0
2, 5842320, Note_on_c, 0, 42, 100
2, 5842560, Note_on_c, 0, 42, 0
2, 5842560, Note_on_c, 0, 40, 100
2, 5842800, Note_on_c, 0, 40, 0
2, 5842800, Note_on_c, 0, 38, 100
2, 5843040, Note_on_c, 0, 38, 0
2, 5843040, Note_on_c, 0, 45, 100
2, 5843280, Note_on_c, 0, 45, 0
2, 5843280, Note_on_c, 0, 50, 100
2, 5843520, Note_on_c, 0, 50, 0
2, 5843520, Note_on_c, 0, 48, 100
2, 5843760, Note_on_c, 0, 48, 0
2, 5843760, Note_on_c, 0, 47, 100
2, 5844000, Note_on_c, 0, 47, 0
2, 5844000, Note_on_c, 0, 45, 100
2, 5844240, Note_on_c, 0, 45, 0
2, 5844240, Note_on_c, 0, 43, 100
2, 5844480, Note_on_c, 0, 43, 0
2, 5844480, Note_on_c, 0, 50, 100
2, 5844720, Note_on_c, 0, 50, 0
2, 5844720, Note_on_c, 0, 55, 100
2, 5844960, Note_on_c, 0, 55, 0
2, 5844960, Note_on_c, 0, 53, 100
2, 5845200, Note_on_c, 0, 53, 0
2, 5845200, Note_on_c, 0, 52, 100
2, 5845440, Note_on_c, 0, 52, 0
2, 5845440, Note_on_c, 0, 50, 100
2, 5845680, Note_on_c, 0, 50, 0
2, 5845680, Note_on_c, 0, 48, 100
2, 5845920, Note_on_c, 0, 48, 0
2, 5845920, Note_on_c, 0, 55, 100
2, 5846160, Note_on_c, 0, 55, 0
2, 5846160, Note_on_c, 0, 60, 100
2, 5846400, Note_on_c, 0, 60, 0
2, 5846400, Note_on_c, 0, 59, 100
2, 5846640, Note_on_c, 0, 59, 0
2, 5846640, Note_on_c, 0, 57, 100
2, 5846880, Note_on_c, 0, 57, 0
2, 5846880, Note_on_c, 0, 55, 100
2, 5847120, Note_on_c, 0, 55, 0
2, 5847120, Note_on_c, 0, 54, 100
2, 5847360, Note_on_c, 0, 54, 0
2, 5847360, Note_on_c, 0, 50, 100
2, 5847600, Note_on_c, 0, 50, 0
2, 5847600, Note_on_c, 0, 55, 100
2, 5847840, Note_on_c, 0, 55, 0
2, 5847840, Note_on_c, 0, 59, 100
2, 5848080, Note_on_c, 0, 59, 0
2, 5848080, Note_on_c, 0, 62, 100
2, 5848320, Note_on_c, 0, 62, 0
2, 5848320, Note_on_c, 0, 50, 100
2, 5848560, Note_on_c, 0, 50, 0
2, 5848560, Note_on_c, 0, 55, 100
2, 5848800, Note_on_c, 0, 55, 0
2, 5848800, Note_on_c, 0, 50, 100
2, 5849520, Note_on_c, 0, 50, 0
2, 5849520, Note_on_c, 0, 43, 100
2, 5849760, Note_on_c, 0, 43, 0
2, 5849760, Note_on_c, 0, 62, 100
2, 5850240, Note_on_c, 0, 62, 0
2, 5850240, Note_on_c, 0, 60, 100
2, 5851200, Note_on_c, 0, 60, 0
2, 5851200, Note_on_c, 0, 59, 100
2, 5851680, Note_on_c, 0, 59, 0
2, 5851680, Note_on_c, 0, 57, 100
2, 5852400, Note_on_c, 0, 57, 0
2, 5852400, Note_on_c, 0, 59, 100
2, 5852640, Note_on_c, 0, 59, 0
2, 5852640, Note_on_c, 0, 60, 100
2, 5853120, Note_on_c, 0, 60, 0
2, 5853120, Note_on_c, 0, 59, 100
2, 5853840, Note_on_c, 0, 59, 0
2, 5853840, Note_on_c, 0, 57, 100
2, 5854080, Note_on_c, 0, 57, 0
2, 5854080, Note_on_c, 0, 59, 100
2, 5854560, Note_on_c, 0, 59, 0
2, 5854560, Note_on_c, 0, 57, 100
2, 5855280, Note_on_c, 0, 57, 0
2, 5855280, Note_on_c, 0, 55, 100
2, 5855520, Note_on_c, 0, 55, 0
2, 5855520, Note_on_c, 0, 54, 100
2, 5855760, Note_on_c, 0, 54, 0
2, 5855760, Note_on_c, 0, 52, 100
2, 5856000, Note_on_c, 0, 52, 0
2, 5856000, Note_on_c, 0, 50, 100
2, 5856960, Note_on_c, 0, 50, 0
2, 5856960, Note_on_c, 0, 48, 100
2, 5857440, Note_on_c, 0, 48, 0
2, 5857440, Note_on_c, 0, 47, 100
2, 5858400, Note_on_c, 0, 47, 0
2, 5858400, Note_on_c, 0, 45, 100
2, 5858880, Note_on_c, 0, 45, 0
2, 5858880, Note_on_c, 0, 48, 100
2, 5859120, Note_on_c, 0, 48, 0
2, 5859120, Note_on_c, 0, 47, 100
2, 5859360, Note_on_c, 0, 47, 0
2, 5859360, Note_on_c, 0, 45, 100
2, 5859600, Note_on_c, 0, 45, 0
2, 5859600, Note_on_c, 0, 47, 100
2, 5859840, Note_on_c, 0, 47, 0
2, 5859840, Note_on_c, 0, 52, 100
2, 5860320, Note_on_c, 0, 52, 0
2, 5860320, Note_on_c, 0, 47, 100
2, 5860560, Note_on_c, 0, 47, 0
2, 5860560, Note_on_c, 0, 40, 100
2, 5860800, Note_on_c, 0, 40, 0
2, 5860800, Note_on_c, 0, 47, 100
2, 5861040, Note_on_c, 0, 47, 0
2, 5861040, Note_on_c, 0, 52, 100
2, 5861280, Note_on_c, 0, 52, 0
2, 5861280, Note_on_c, 0, 50, 100
2, 5861520, Note_on_c, 0, 50, 0
2, 5861520, Note_on_c, 0, 48, 100
2, 5861760, Note_on_c, 0, 48, 0
2, 5861760, Note_on_c, 0, 47, 100
2, 5863200, Note_on_c, 0, 47, 0
2, 5863200, Note_on_c, 0, 45, 100
2, 5864640, Note_on_c, 0, 45, 0
2, 5864640, Note_on_c, 0, 43, 100
2, 5865360, Note_on_c, 0, 43, 0
2, 5865360, Note_on_c, 0, 42, 100
2, 5865600, Note_on_c, 0, 42, 0
2, 5865600, Note_on_c, 0, 40, 100
2, 5865840, Note_on_c, 0, 40, 0
2, 5865840, Note_on_c, 0, 38, 100
2, 5866080, Note_on_c, 0, 38, 0
2, 5866080, Note_on_c, 0, 45, 100
2, 5866320, Note_on_c, 0, 45, 0
2, 5866320, Note_on_c, 0, 50, 100
2, 5866560, Note_on_c, 0, 50, 0
2, 5866560, Note_on_c, 0, 48, 100
2, 5866800, Note_on_c, 0, 48, 0
2, 5866800, Note_on_c, 0, 47, 100
2, 5867040, Note_on_c, 0, 47, 0
2, 5867040, Note_on_c, 0, 45, 100
2, 5867280, Note_on_c, 0, 45, 0
2, 5867280, Note_on_c, 0, 43, 100
2, 5867520, Note_on_c, 0, 43, 0
2, 5867520, Note_on_c, 0, 50, 100
2, 5867760, Note_on_c, 0, 50, 0
2, 5867760, Note_on_c, 0, 55, 100
2, 5868000, Note_on_c, 0, 55, 0
2, 5868000, Note_on_c, 0, 53, 100
2, 5868240, Note_on_c, 0, 53, 0
2, 5868240, Note_on_c, 0, 52, 100
2, 5868480, Note_on_c, 0, 52, 0
2, 5868480, Note_on_c, 0, 50, 100
2, 5868720, Note_on_c, 0, 50, 0
2, 5868720, Note_on_c, 0, 48, 100
2, 5868960, Note_on_c, 0, 48, 0
2, 5868960, Note_on_c, 0, 55, 100
2, 5869200, Note_on_c, 0, 55, 0
2, 5869200, Note_on_c, 0, 60, 100
2, 5869440, Note_on_c, 0, 60, 0
2, 5869440, Note_on_c, 0, 59, 100
2, 5869680, Note_on_c, 0, 59, 0
2, 5869680, Note_on_c, 0, 57, 100
2, 5869920, Note_on_c, 0, 57, 0
2, 5869920, Note_on_c, 0, 55, 100
2, 5870160, Note_on_c, 0, 55, 0
2, 5870160, Note_on_c, 0, 54, 100
2, 5870400, Note_on_c, 0, 54, 0
2, 5870400, Note_on_c, 0, 50, 100
2, 5870640, Note_on_c, 0, 50, 0
2, 5870640, Note_on_c, 0, 55, 100
2, 5870880, Note_on_c, 0, 55, 0
2, 5870880, Note_on_c, 0, 59, 100
2, 5871120, Note_on_c, 0, 59, 0
2, 5871120, Note_on_c, 0, 62, 100
2, 5871360, Note_on_c, 0, 62, 0
2, 5871360, Note_on_c, 0, 50, 100
2, 5871600, Note_on_c, 0, 50, 0
2, 5871600, Note_on_c, 0, 55, 100
2, 5871840, Note_on_c, 0, 55, 0
2, 5871840, Note_on_c, 0, 50, 100
2, 5872560, Note_on_c, 0, 50, 0
2, 5872560, Note_on_c, 0, 43, 100
2, 5872800, Note_on_c, 0, 43, 0
2, 5872800, Note_on_c, 0, 67, 100
2, 5873280, Note_on_c, 0, 67, 0
2, 5873280, Note_on_c, 0, 66, 100
2, 5873400, Note_on_c, 0, 66, 0
2, 5873400, Note_on_c, 0, 67, 100
2, 5873520, Note_on_c, 0, 67, 0
2, 5873520, Note_on_c, 0, 62, 100
2, 5873880, Note_on_c, 0, 62, 0
2, 5873880, Note_on_c, 0, 64, 100
2, 5874000, Note_on_c, 0, 64, 0
2, 5874000, Note_on_c, 0, 66, 100
2, 5874120, Note_on_c, 0, 66, 0
2, 5874120, Note_on_c, 0, 67, 100
2, 5874240, Note_on_c, 0, 67, 0
2, 5874240, Note_on_c, 0, 69, 100
2, 5874360, Note_on_c, 0, 69, 0
2, 5874360, Note_on_c, 0, 71, 100
2, 5874480, Note_on_c, 0, 71, 0
2, 5874480, Note_on_c, 0, 73, 100
2, 5874600, Note_on_c, 0, 73, 0
2, 5874600, Note_on_c, 0, 74, 100
2, 5874720, Note_on_c, 0, 74, 0
2, 5874720, Note_on_c, 0, 73, 100
2, 5874840, Note_on_c, 0, 73, 0
2, 5874840, Note_on_c, 0, 74, 100
2, 5874960, Note_on_c, 0, 74, 0
2, 5874960, Note_on_c, 0, 69, 100
2, 5875320, Note_on_c, 0, 69, 0
2, 5875320, Note_on_c, 0, 71, 100
2, 5875440, Note_on_c, 0, 71, 0
2, 5875440, Note_on_c, 0, 73, 100
2, 5875560, Note_on_c, 0, 73, 0
2, 5875560, Note_on_c, 0, 74, 100
2, 5875680, Note_on_c, 0, 74, 0
2, 5875680, Note_on_c, 0, 76, 100
2, 5875800, Note_on_c, 0, 76, 0
2, 5875800, Note_on_c, 0, 78, 100
2, 5875920, Note_on_c, 0, 78, 0
2, 5875920, Note_on_c, 0, 74, 100
2, 5876040, Note_on_c, 0, 74, 0
2, 5876040, Note_on_c, 0, 79, 100
2, 5876160, Note_on_c, 0, 79, 0
2, 5876160, Note_on_c, 0, 78, 100
2, 5876280, Note_on_c, 0, 78, 0
2, 5876280, Note_on_c, 0, 79, 100
2, 5876400, Note_on_c, 0, 79, 0
2, 5876400, Note_on_c, 0, 78, 100
2, 5876760, Note_on_c, 0, 78, 0
2, 5876760, Note_on_c, 0, 76, 100
2, 5876880, Note_on_c, 0, 76, 0
2, 5876880, Note_on_c, 0, 74, 100
2, 5877000, Note_on_c, 0, 74, 0
2, 5877000, Note_on_c, 0, 73, 100
2, 5877120, Note_on_c, 0, 73, 0
2, 5877120, Note_on_c, 0, 76, 100
2, 5877240, Note_on_c, 0, 76, 0
2, 5877240, Note_on_c, 0, 69, 100
2, 5877360, Note_on_c, 0, 69, 0
2, 5877360, Note_on_c, 0, 67, 100
2, 5877480, Note_on_c, 0, 67, 0
2, 5877480, Note_on_c, 0, 66, 100
2, 5877600, Note_on_c, 0, 66, 0
2, 5877600, Note_on_c, 0, 64, 100
2, 5877720, Note_on_c, 0, 64, 0
2, 5877720, Note_on_c, 0, 62, 100
2, 5877840, Note_on_c, 0, 62, 0
2, 5877840, Note_on_c, 0, 61, 100
2, 5877960, Note_on_c, 0, 61, 0
2, 5877960, Note_on_c, 0, 62, 100
2, 5878080, Note_on_c, 0, 62, 0
2, 5878080, Note_on_c, 0, 66, 100
2, 5878200, Note_on_c, 0, 66, 0
2, 5878200, Note_on_c, 0, 57, 100
2, 5878320, Note_on_c, 0, 57, 0
2, 5878320, Note_on_c, 0, 55, 100
2, 5878440, Note_on_c, 0, 55, 0
2, 5878440, Note_on_c, 0, 54, 100
2, 5878560, Note_on_c, 0, 54, 0
2, 5878560, Note_on_c, 0, 57, 100
2, 5878680, Note_on_c, 0, 57, 0
2, 5878680, Note_on_c, 0, 50, 100
2, 5878800, Note_on_c, 0, 50, 0
2, 5878800, Note_on_c, 0, 74, 100
2, 5879280, Note_on_c, 0, 74, 0
2, 5879280, Note_on_c, 0, 72, 100
2, 5879400, Note_on_c, 0, 72, 0
2, 5879400, Note_on_c, 0, 74, 100
2, 5879520, Note_on_c, 0, 74, 0
2, 5879520, Note_on_c, 0, 67, 100
2, 5879760, Note_on_c, 0, 67, 0
2, 5879760, Note_on_c, 0, 59, 100
2, 5880000, Note_on_c, 0, 59, 0
2, 5880000, Note_on_c, 0, 74, 100
2, 5880240, Note_on_c, 0, 74, 0
2, 5880240, Note_on_c, 0, 76, 100
2, 5880720, Note_on_c, 0, 76, 0
2, 5880720, Note_on_c, 0, 74, 100
2, 5880840, Note_on_c, 0, 74, 0
2, 5880840, Note_on_c, 0, 76, 100
2, 5880960, Note_on_c, 0, 76, 0
2, 5880960, Note_on_c, 0, 69, 100
2, 5881200, Note_on_c, 0, 69, 0
2, 5881200, Note_on_c, 0, 60, 100
2, 5881440, Note_on_c, 0, 60, 0
2, 5881440, Note_on_c, 0, 76, 100
2, 5881680, Note_on_c, 0, 76, 0
2, 5881680, Note_on_c, 0, 78, 100
2, 5882160, Note_on_c, 0, 78, 0
2, 5882160, Note_on_c, 0, 76, 100
2, 5882280, Note_on_c, 0, 76, 0
2, 5882280, Note_on_c, 0, 78, 100
2, 5882400, Note_on_c, 0, 78, 0
2, 5882400, Note_on_c, 0, 74, 100
2, 5882640, Note_on_c, 0, 74, 0
2, 5882640, Note_on_c, 0, 81, 100
2, 5882880, Note_on_c, 0, 81, 0
2, 5882880, Note_on_c, 0, 72, 100
2, 5883120, Note_on_c, 0, 72, 0
2, 5883120, Note_on_c, 0, 71, 100
2, 5883600, Note_on_c, 0, 71, 0
2, 5883600, Note_on_c, 0, 67, 100
2, 5883960, Note_on_c, 0, 67, 0
2, 5883960, Note_on_c, 0, 71, 100
2, 5884080, Note_on_c, 0, 71, 0
2, 5884080, Note_on_c, 0, 74, 100
2, 5884200, Note_on_c, 0, 74, 0
2, 5884200, Note_on_c, 0, 79, 100
2, 5884320, Note_on_c, 0, 79, 0
2, 5884320, Note_on_c, 0, 74, 100
2, 5884440, Note_on_c, 0, 74, 0
2, 5884440, Note_on_c, 0, 79, 100
2, 5884560, Note_on_c, 0, 79, 0
2, 5884560, Note_on_c, 0, 81, 100
2, 5884680, Note_on_c, 0, 81, 0
2, 5884680, Note_on_c, 0, 83, 100
2, 5884800, Note_on_c, 0, 83, 0
2, 5884800, Note_on_c, 0, 79, 100
2, 5884920, Note_on_c, 0, 79, 0
2, 5884920, Note_on_c, 0, 74, 100
2, 5885040, Note_on_c, 0, 74, 0
2, 5885040, Note_on_c, 0, 71, 100
2, 5885160, Note_on_c, 0, 71, 0
2, 5885160, Note_on_c, 0, 67, 100
2, 5885280, Note_on_c, 0, 67, 0
2, 5885280, Note_on_c, 0, 71, 100
2, 5885400, Note_on_c, 0, 71, 0
2, 5885400, Note_on_c, 0, 74, 100
2, 5885520, Note_on_c, 0, 74, 0
2, 5885520, Note_on_c, 0, 79, 100
2, 5885640, Note_on_c, 0, 79, 0
2, 5885640, Note_on_c, 0, 83, 100
2, 5885760, Note_on_c, 0, 83, 0
2, 5885760, Note_on_c, 0, 79, 100
2, 5885880, Note_on_c, 0, 79, 0
2, 5885880, Note_on_c, 0, 78, 100
2, 5886000, Note_on_c, 0, 78, 0
2, 5886000, Note_on_c, 0, 76, 100
2, 5886120, Note_on_c, 0, 76, 0
2, 5886120, Note_on_c, 0, 81, 100
2, 5886240, Note_on_c, 0, 81, 0
2, 5886240, Note_on_c, 0, 76, 100
2, 5886360, Note_on_c, 0, 76, 0
2, 5886360, Note_on_c, 0, 73, 100
2, 5886480, Note_on_c, 0, 73, 0
2, 5886480, Note_on_c, 0, 69, 100
2, 5886600, Note_on_c, 0, 69, 0
2, 5886600, Note_on_c, 0, 66, 100
2, 5886720, Note_on_c, 0, 66, 0
2, 5886720, Note_on_c, 0, 69, 100
2, 5886840, Note_on_c, 0, 69, 0
2, 5886840, Note_on_c, 0, 73, 100
2, 5886960, Note_on_c, 0, 73, 0
2, 5886960, Note_on_c, 0, 76, 100
2, 5887080, Note_on_c, 0, 76, 0
2, 5887080, Note_on_c, 0, 81, 100
2, 5887200, Note_on_c, 0, 81, 0
2, 5887200, Note_on_c, 0, 78, 100
2, 5887320, Note_on_c, 0, 78, 0
2, 5887320, Note_on_c, 0, 76, 100
2, 5887440, Note_on_c, 0, 76, 0
2, 5887440, Note_on_c, 0, 74, 100
2, 5887560, Note_on_c, 0, 74, 0
2, 5887560, Note_on_c, 0, 79, 100
2, 5887680, Note_on_c, 0, 79, 0
2, 5887680, Note_on_c, 0, 74, 100
2, 5887800, Note_on_c, 0, 74, 0
2, 5887800, Note_on_c, 0, 71, 100
2, 5887920, Note_on_c, 0, 71, 0
2, 5887920, Note_on_c, 0, 67, 100
2, 5888040, Note_on_c, 0, 67, 0
2, 5888040, Note_on_c, 0, 64, 100
2, 5888160, Note_on_c, 0, 64, 0
2, 5888160, Note_on_c, 0, 67, 100
2, 5888280, Note_on_c, 0, 67, 0
2, 5888280, Note_on_c, 0, 71, 100
2, 5888400, Note_on_c, 0, 71, 0
2, 5888400, Note_on_c, 0, 74, 100
2, 5888520, Note_on_c, 0, 74, 0
2, 5888520, Note_on_c, 0, 79, 100
2, 5888640, Note_on_c, 0, 79, 0
2, 5888640, Note_on_c, 0, 78, 100
2, 5888760, Note_on_c, 0, 78, 0
2, 5888760, Note_on_c, 0, 76, 100
2, 5888880, Note_on_c, 0, 76, 0
2, 5888880, Note_on_c, 0, 74, 100
2, 5889000, Note_on_c, 0, 74, 0
2, 5889000, Note_on_c, 0, 73, 100
2, 5889120, Note_on_c, 0, 73, 0
2, 5889120, Note_on_c, 0, 67, 100
2, 5889240, Note_on_c, 0, 67, 0
2, 5889240, Note_on_c, 0, 64, 100
2, 5889360, Note_on_c, 0, 64, 0
2, 5889360, Note_on_c, 0, 61, 100
2, 5889480, Note_on_c, 0, 61, 0
2, 5889480, Note_on_c, 0, 57, 100
2, 5889600, Note_on_c, 0, 57, 0
2, 5889600, Note_on_c, 0, 61, 100
2, 5889720, Note_on_c, 0, 61, 0
2, 5889720, Note_on_c, 0, 64, 100
2, 5889840, Note_on_c, 0, 64, 0
2, 5889840, Note_on_c, 0, 67, 100
2, 5889960, Note_on_c, 0, 67, 0
2, 5889960, Note_on_c, 0, 73, 100
2, 5890080, Note_on_c, 0, 73, 0
2, 5890080, Note_on_c, 0, 76, 100
2, 5890200, Note_on_c, 0, 76, 0
2, 5890200, Note_on_c, 0, 74, 100
2, 5890320, Note_on_c, 0, 74, 0
2, 5890320, Note_on_c, 0, 73, 100
2, 5890440, Note_on_c, 0, 73, 0
2, 5890440, Note_on_c, 0, 74, 100
2, 5890560, Note_on_c, 0, 74, 0
2, 5890560, Note_on_c, 0, 54, 100
2, 5891040, Note_on_c, 0, 54, 0
2, 5891040, Note_on_c, 0, 69, 100
2, 5891280, Note_on_c, 0, 69, 0
2, 5891280, Note_on_c, 0, 74, 100
2, 5891520, Note_on_c, 0, 74, 0
2, 5891520, Note_on_c, 0, 78, 100
2, 5891760, Note_on_c, 0, 78, 0
2, 5891760, Note_on_c, 0, 71, 100
2, 5892000, Note_on_c, 0, 71, 0
2, 5892000, Note_on_c, 0, 55, 100
2, 5892480, Note_on_c, 0, 55, 0
2, 5892480, Note_on_c, 0, 71, 100
2, 5892720, Note_on_c, 0, 71, 0
2, 5892720, Note_on_c, 0, 76, 100
2, 5892960, Note_on_c, 0, 76, 0
2, 5892960, Note_on_c, 0, 79, 100
2, 5893200, Note_on_c, 0, 79, 0
2, 5893200, Note_on_c, 0, 73, 100
2, 5893440, Note_on_c, 0, 73, 0
2, 5893440, Note_on_c, 0, 76, 100
2, 5893560, Note_on_c, 0, 76, 0
2, 5893560, Note_on_c, 0, 69, 100
2, 5893680, Note_on_c, 0, 69, 0
2, 5893680, Note_on_c, 0, 67, 100
2, 5893800, Note_on_c, 0, 67, 0
2, 5893800, Note_on_c, 0, 66, 100
2, 5893920, Note_on_c, 0, 66, 0
2, 5893920, Note_on_c, 0, 69, 100
2, 5894040, Note_on_c, 0, 69, 0
2, 5894040, Note_on_c, 0, 74, 100
2, 5894160, Note_on_c, 0, 74, 0
2, 5894160, Note_on_c, 0, 78, 100
2, 5894280, Note_on_c, 0, 78, 0
2, 5894280, Note_on_c, 0, 79, 100
2, 5894400, Note_on_c, 0, 79, 0
2, 5894400, Note_on_c, 0, 76, 100
2, 5894520, Note_on_c, 0, 76, 0
2, 5894520, Note_on_c, 0, 74, 100
2, 5894640, Note_on_c, 0, 74, 0
2, 5894640, Note_on_c, 0, 73, 100
2, 5894760, Note_on_c, 0, 73, 0
2, 5894760, Note_on_c, 0, 78, 100
2, 5894880, Note_on_c, 0, 78, 0
2, 5894880, Note_on_c, 0, 74, 100
2, 5895000, Note_on_c, 0, 74, 0
2, 5895000, Note_on_c, 0, 73, 100
2, 5895120, Note_on_c, 0, 73, 0
2, 5895120, Note_on_c, 0, 71, 100
2, 5895240, Note_on_c, 0, 71, 0
2, 5895240, Note_on_c, 0, 69, 100
2, 5895360, Note_on_c, 0, 69, 0
2, 5895360, Note_on_c, 0, 67, 100
2, 5895480, Note_on_c, 0, 67, 0
2, 5895480, Note_on_c, 0, 66, 100
2, 5895600, Note_on_c, 0, 66, 0
2, 5895600, Note_on_c, 0, 64, 100
2, 5895720, Note_on_c, 0, 64, 0
2, 5895720, Note_on_c, 0, 62, 100
2, 5895840, Note_on_c, 0, 62, 0
2, 5895840, Note_on_c, 0, 67, 100
2, 5896320, Note_on_c, 0, 67, 0
2, 5896320, Note_on_c, 0, 66, 100
2, 5896440, Note_on_c, 0, 66, 0
2, 5896440, Note_on_c, 0, 67, 100
2, 5896560, Note_on_c, 0, 67, 0
2, 5896560, Note_on_c, 0, 62, 100
2, 5896920, Note_on_c, 0, 62, 0
2, 5896920, Note_on_c, 0, 64, 100
2, 5897040, Note_on_c, 0, 64, 0
2, 5897040, Note_on_c, 0, 66, 100
2, 5897160, Note_on_c, 0, 66, 0
2, 5897160, Note_on_c, 0, 67, 100
2, 5897280, Note_on_c, 0, 67, 0
2, 5897280, Note_on_c, 0, 69, 100
2, 5897400, Note_on_c, 0, 69, 0
2, 5897400, Note_on_c, 0, 71, 100
2, 5897520, Note_on_c, 0, 71, 0
2, 5897520, Note_on_c, 0, 73, 100
2, 5897640, Note_on_c, 0, 73, 0
2, 5897640, Note_on_c, 0, 74, 100
2, 5897760, Note_on_c, 0, 74, 0
2, 5897760, Note_on_c, 0, 73, 100
2, 5897880, Note_on_c, 0, 73, 0
2, 5897880, Note_on_c, 0, 74, 100
2, 5898000, Note_on_c, 0, 74, 0
2, 5898000, Note_on_c, 0, 69, 100
2, 5898360, Note_on_c, 0, 69, 0
2, 5898360, Note_on_c, 0, 71, 100
2, 5898480, Note_on_c, 0, 71, 0
2, 5898480, Note_on_c, 0, 73, 100
2, 5898600, Note_on_c, 0, 73, 0
2, 5898600, Note_on_c, 0, 74, 100
2, 5898720, Note_on_c, 0, 74, 0
2, 5898720, Note_on_c, 0, 76, 100
2, 5898840, Note_on_c, 0, 76, 0
2, 5898840, Note_on_c, 0, 78, 100
2, 5898960, Note_on_c, 0, 78, 0
2, 5898960, Note_on_c, 0, 74, 100
2, 5899080, Note_on_c, 0, 74, 0
2, 5899080, Note_on_c, 0, 79, 100
2, 5899200, Note_on_c, 0, 79, 0
2, 5899200, Note_on_c, 0, 78, 100
2, 5899320, Note_on_c, 0, 78, 0
2, 5899320, Note_on_c, 0, 79, 100
2, 5899440, Note_on_c, 0, 79, 0
2, 5899440, Note_on_c, 0, 78, 100
2, 5899800, Note_on_c, 0, 78, 0
2, 5899800, Note_on_c, 0, 76, 100
2, 5899920, Note_on_c, 0, 76, 0
2, 5899920, Note_on_c, 0, 74, 100
2, 5900040, Note_on_c, 0, 74, 0
2, 5900040, Note_on_c, 0, 73, 100
2, 5900160, Note_on_c, 0, 73, 0
2, 5900160, Note_on_c, 0, 76, 100
2, 5900280, Note_on_c, 0, 76, 0
2, 5900280, Note_on_c, 0, 69, 100
2, 5900400, Note_on_c, 0, 69, 0
2, 5900400, Note_on_c, 0, 67, 100
2, 5900520, Note_on_c, 0, 67, 0
2, 5900520, Note_on_c, 0, 66, 100
2, 5900640, Note_on_c, 0, 66, 0
2, 5900640, Note_on_c, 0, 64, 100
2, 5900760, Note_on_c, 0, 64, 0
2, 5900760, Note_on_c, 0, 62, 100
2, 5900880, Note_on_c, 0, 62, 0
2, 5900880, Note_on_c, 0, 61, 100
2, 5901000, Note_on_c, 0, 61, 0
2, 5901000, Note_on_c, 0, 62, 100
2, 5901120, Note_on_c, 0, 62, 0
2, 5901120, Note_on_c, 0, 66, 100
2, 5901240, Note_on_c, 0, 66, 0
2, 5901240, Note_on_c, 0, 57, 100
2, 5901360, Note_on_c, 0, 57, 0
2, 5901360, Note_on_c, 0, 55, 100
2, 5901480, Note_on_c, 0, 55, 0
2, 5901480, Note_on_c, 0, 54, 100
2, 5901600, Note_on_c, 0, 54, 0
2, 5901600, Note_on_c, 0, 57, 100
2, 5901720, Note_on_c, 0, 57, 0
2, 5901720, Note_on_c, 0, 50, 100
2, 5901840, Note_on_c, 0, 50, 0
2, 5901840, Note_on_c, 0, 74, 100
2, 5902320, Note_on_c, 0, 74, 0
2, 5902320, Note_on_c, 0, 72, 100
2, 5902440, Note_on_c, 0, 72, 0
2, 5902440, Note_on_c, 0, 74, 100
2, 5902560, Note_on_c, 0, 74, 0
2, 5902560, Note_on_c, 0, 67, 100
2, 5902800, Note_on_c, 0, 67, 0
2, 5902800, Note_on_c, 0, 59, 100
2, 5903040, Note_on_c, 0, 59, 0
2, 5903040, Note_on_c, 0, 74, 100
2, 5903280, Note_on_c, 0, 74, 0
2, 5903280, Note_on_c, 0, 76, 100
2, 5903760, Note_on_c, 0, 76, 0
2, 5903760, Note_on_c, 0, 74, 100
2, 5903880, Note_on_c, 0, 74, 0
2, 5903880, Note_on_c, 0, 76, 100
2, 5904000, Note_on_c, 0, 76, 0
2, 5904000, Note_on_c, 0, 69, 100
2, 5904240, Note_on_c, 0, 69, 0
2, 5904240, Note_on_c, 0, 60, 100
2, 5904480, Note_on_c, 0, 60, 0
2, 5904480, Note_on_c, 0, 76, 100
2, 5904720, Note_on_c, 0, 76, 0
2, 5904720, Note_on_c, 0, 78, 100
2, 5905200, Note_on_c, 0, 78, 0
2, 5905200, Note_on_c, 0, 76, 100
2, 5905320, Note_on_c, 0, 76, 0
2, 5905320, Note_on_c, 0, 78, 100
2, 5905440, Note_on_c, 0, 78, 0
2, 5905440, Note_on_c, 0, 74, 100
2, 5905680, Note_on_c, 0, 74, 0
2, 5905680, Note_on_c, 0, 81, 100
2, 5905920, Note_on_c, 0, 81, 0
2, 5905920, Note_on_c, 0, 72, 100
2, 5906160, Note_on_c, 0, 72, 0
2, 5906160, Note_on_c, 0, 71, 100
2, 5906640, Note_on_c, 0, 71, 0
2, 5906640, Note_on_c, 0, 67, 100
2, 5907000, Note_on_c, 0, 67, 0
2, 5907000, Note_on_c, 0, 71, 100
2, 5907120, Note_on_c, 0, 71, 0
2, 5907120, Note_on_c, 0, 74, 100
2, 5907240, Note_on_c, 0, 74, 0
2, 5907240, Note_on_c, 0, 79, 100
2, 5907360, Note_on_c, 0, 79, 0
2, 5907360, Note_on_c, 0, 74, 100
2, 5907480, Note_on_c, 0, 74, 0
2, 5907480, Note_on_c, 0, 79, 100
2, 5907600, Note_on_c, 0, 79, 0
2, 5907600, Note_on_c, 0, 81, 100
2, 5907720, Note_on_c, 0, 81, 0
2, 5907720, Note_on_c, 0, 83, 100
2, 5907840, Note_on_c, 0, 83, 0
2, 5907840, Note_on_c, 0, 79, 100
2, 5907960, Note_on_c, 0, 79, 0
2, 5907960, Note_on_c, 0, 74, 100
2, 5908080, Note_on_c, 0, 74, 0
2, 5908080, Note_on_c, 0, 71, 100
2, 5908200, Note_on_c, 0, 71, 0
2, 5908200, Note_on_c, 0, 67, 100
2, 5908320, Note_on_c, 0, 67, 0
2, 5908320, Note_on_c, 0, 71, 100
2, 5908440, Note_on_c, 0, 71, 0
2, 5908440, Note_on_c, 0, 74, 100
2, 5908560, Note_on_c, 0, 74, 0
2, 5908560, Note_on_c, 0, 79, 100
2, 5908680, Note_on_c, 0, 79, 0
2, 5908680, Note_on_c, 0, 83, 100
2, 5908800, Note_on_c, 0, 83, 0
2, 5908800, Note_on_c, 0, 79, 100
2, 5908920, Note_on_c, 0, 79, 0
2, 5908920, Note_on_c, 0, 78, 100
2, 5909040, Note_on_c, 0, 78, 0
2, 5909040, Note_on_c, 0, 76, 100
2, 5909160, Note_on_c, 0, 76, 0
2, 5909160, Note_on_c, 0, 81, 100
2, 5909280, Note_on_c, 0, 81, 0
2, 5909280, Note_on_c, 0, 76, 100
2, 5909400, Note_on_c, 0, 76, 0
2, 5909400, Note_on_c, 0, 73, 100
2, 5909520, Note_on_c, 0, 73, 0
2, 5909520, Note_on_c, 0, 69, 100
2, 5909640, Note_on_c, 0, 69, 0
2, 5909640, Note_on_c, 0, 66, 100
2, 5909760, Note_on_c, 0, 66, 0
2, 5909760, Note_on_c, 0, 69, 100
2, 5909880, Note_on_c, 0, 69, 0
2, 5909880, Note_on_c, 0, 73, 100
2, 5910000, Note_on_c, 0, 73, 0
2, 5910000, Note_on_c, 0, 76, 100
2, 5910120, Note_on_c, 0, 76, 0
2, 5910120, Note_on_c, 0, 81, 100
2, 5910240, Note_on_c, 0, 81, 0
2, 5910240, Note_on_c, 0, 78, 100
2, 5910360, Note_on_c, 0, 78, 0
2, 5910360, Note_on_c, 0, 76, 100
2, 5910480, Note_on_c, 0, 76, 0
2, 5910480, Note_on_c, 0, 74, 100
2, 5910600, Note_on_c, 0, 74, 0
2, 5910600, Note_on_c, 0, 79, 100
2, 5910720, Note_on_c, 0, 79, 0
2, 5910720, Note_on_c, 0, 74, 100
2, 5910840, Note_on_c, 0, 74, 0
2, 5910840, Note_on_c, 0, 71, 100
2, 5910960, Note_on_c, 0, 71, 0
2, 5910960, Note_on_c, 0, 67, 100
2, 5911080, Note_on_c, 0, 67, 0
2, 5911080, Note_on_c, 0, 64, 100
2, 5911200, Note_on_c, 0, 64, 0
2, 5911200, Note_on_c, 0, 67, 100
2, 5911320, Note_on_c, 0, 67, 0
2, 5911320, Note_on_c, 0, 71, 100
2, 5911440, Note_on_c, 0, 71, 0
2, 5911440, Note_on_c, 0, 74, 100
2, 5911560, Note_on_c, 0, 74, 0
2, 5911560, Note_on_c, 0, 79, 100
2, 5911680, Note_on_c, 0, 79, 0
2, 5911680, Note_on_c, 0, 78, 100
2, 5911800, Note_on_c, 0, 78, 0
2, 5911800, Note_on_c, 0, 76, 100
2, 5911920, Note_on_c, 0, 76, 0
2, 5911920, Note_on_c, 0, 74, 100
2, 5912040, Note_on_c, 0, 74, 0
2, 5912040, Note_on_c, 0, 73, 100
2, 5912160, Note_on_c, 0, 73, 0
2, 5912160, Note_on_c, 0, 67, 100
2, 5912280, Note_on_c, 0, 67, 0
2, 5912280, Note_on_c, 0, 64, 100
2, 5912400, Note_on_c, 0, 64, 0
2, 5912400, Note_on_c, 0, 61, 100
2, 5912520, Note_on_c, 0, 61, 0
2, 5912520, Note_on_c, 0, 57, 100
2, 5912640, Note_on_c, 0, 57, 0
2, 5912640, Note_on_c, 0, 61, 100
2, 5912760, Note_on_c, 0, 61, 0
2, 5912760, Note_on_c, 0, 64, 100
2, 5912880, Note_on_c, 0, 64, 0
2, 5912880, Note_on_c, 0, 67, 100
2, 5913000, Note_on_c, 0, 67, 0
2, 5913000, Note_on_c, 0, 73, 100
2, 5913120, Note_on_c, 0, 73, 0
2, 5913120, Note_on_c, 0, 76, 100
2, 5913240, Note_on_c, 0, 76, 0
2, 5913240, Note_on_c, 0, 74, 100
2, 5913360, Note_on_c, 0, 74, 0
2, 5913360, Note_on_c, 0, 73, 100
2, 5913480, Note_on_c, 0, 73, 0
2, 5913480, Note_on_c, 0, 74, 100
2, 5913600, Note_on_c, 0, 74, 0
2, 5913600, Note_on_c, 0, 54, 100
2, 5914080, Note_on_c, 0, 54, 0
2, 5914080, Note_on_c, 0, 69, 100
2, 5914320, Note_on_c, 0, 69, 0
2, 5914320, Note_on_c, 0, 74, 100
2, 5914560, Note_on_c, 0, 74, 0
2, 5914560, Note_on_c, 0, 78, 100
2, 5914800, Note_on_c, 0, 78, 0
2, 5914800, Note_on_c, 0, 71, 100
2, 5915040, Note_on_c, 0, 71, 0
2, 5915040, Note_on_c, 0, 55, 100
2, 5915520, Note_on_c, 0, 55, 0
2, 5915520, Note_on_c, 0, 71, 100
2, 5915760, Note_on_c, 0, 71, 0
2, 5915760, Note_on_c, 0, 76, 100
2, 5916000, Note_on_c, 0, 76, 0
2, 5916000, Note_on_c, 0, 79, 100
2, 5916240, Note_on_c, 0, 79, 0
2, 5916240, Note_on_c, 0, 73, 100
2, 5916480, Note_on_c, 0, 73, 0
2, 5916480, Note_on_c, 0, 76, 100
2, 5916600, Note_on_c, 0, 76, 0
2, 5916600, Note_on_c, 0, 69, 100
2, 5916720, Note_on_c, 0, 69, 0
2, 5916720, Note_on_c, 0, 67, 100
2, 5916840, Note_on_c, 0, 67, 0
2, 5916840, Note_on_c, 0, 66, 100
2, 5916960, Note_on_c, 0, 66, 0
2, 5916960, Note_on_c, 0, 69, 100
2, 5917080, Note_on_c, 0, 69, 0
2, 5917080, Note_on_c, 0, 74, 100
2, 5917200, Note_on_c, 0, 74, 0
2, 5917200, Note_on_c, 0, 78, 100
2, 5917320, Note_on_c, 0, 78, 0
2, 5917320, Note_on_c, 0, 79, 100
2, 5917440, Note_on_c, 0, 79, 0
2, 5917440, Note_on_c, 0, 76, 100
2, 5917560, Note_on_c, 0, 76, 0
2, 5917560, Note_on_c, 0, 74, 100
2, 5917680, Note_on_c, 0, 74, 0
2, 5917680, Note_on_c, 0, 73, 100
2, 5917800, Note_on_c, 0, 73, 0
2, 5917800, Note_on_c, 0, 78, 100
2, 5917920, Note_on_c, 0, 78, 0
2, 5917920, Note_on_c, 0, 74, 100
2, 5918040, Note_on_c, 0, 74, 0
2, 5918040, Note_on_c, 0, 73, 100
2, 5918160, Note_on_c, 0, 73, 0
2, 5918160, Note_on_c, 0, 71, 100
2, 5918280, Note_on_c, 0, 71, 0
2, 5918280, Note_on_c, 0, 69, 100
2, 5918400, Note_on_c, 0, 69, 0
2, 5918400, Note_on_c, 0, 67, 100
2, 5918520, Note_on_c, 0, 67, 0
2, 5918520, Note_on_c, 0, 66, 100
2, 5918640, Note_on_c, 0, 66, 0
2, 5918640, Note_on_c, 0, 64, 100
2, 5918760, Note_on_c, 0, 64, 0
2, 5918760, Note_on_c, 0, 62, 100
2, 5918880, Note_on_c, 0, 62, 0
2, 5918880, Note_on_c, 0, 78, 100
2, 5919360, Note_on_c, 0, 78, 0
2, 5919360, Note_on_c, 0, 79, 100
2, 5919480, Note_on_c, 0, 79, 0
2, 5919480, Note_on_c, 0, 81, 100
2, 5919600, Note_on_c, 0, 81, 0
2, 5919600, Note_on_c, 0, 83, 100
2, 5919960, Note_on_c, 0, 83, 0
2, 5919960, Note_on_c, 0, 81, 100
2, 5920080, Note_on_c, 0, 81, 0
2, 5920080, Note_on_c, 0, 79, 100
2, 5920200, Note_on_c, 0, 79, 0
2, 5920200, Note_on_c, 0, 78, 100
2, 5920320, Note_on_c, 0, 78, 0
2, 5920320, Note_on_c, 0, 76, 100
2, 5920440, Note_on_c, 0, 76, 0
2, 5920440, Note_on_c, 0, 74, 100
2, 5920560, Note_on_c, 0, 74, 0
2, 5920560, Note_on_c, 0, 72, 100
2, 5920680, Note_on_c, 0, 72, 0
2, 5920680, Note_on_c, 0, 71, 100
2, 5920800, Note_on_c, 0, 71, 0
2, 5920800, Note_on_c, 0, 72, 100
2, 5920920, Note_on_c, 0, 72, 0
2, 5920920, Note_on_c, 0, 74, 100
2, 5921040, Note_on_c, 0, 74, 0
2, 5921040, Note_on_c, 0, 76, 100
2, 5921400, Note_on_c, 0, 76, 0
2, 5921400, Note_on_c, 0, 74, 100
2, 5921520, Note_on_c, 0, 74, 0
2, 5921520, Note_on_c, 0, 72, 100
2, 5921640, Note_on_c, 0, 72, 0
2, 5921640, Note_on_c, 0, 71, 100
2, 5921760, Note_on_c, 0, 71, 0
2, 5921760, Note_on_c, 0, 69, 100
2, 5921880, Note_on_c, 0, 69, 0
2, 5921880, Note_on_c, 0, 67, 100
2, 5922000, Note_on_c, 0, 67, 0
2, 5922000, Note_on_c, 0, 66, 100
2, 5922120, Note_on_c, 0, 66, 0
2, 5922120, Note_on_c, 0, 64, 100
2, 5922240, Note_on_c, 0, 64, 0
2, 5922240, Note_on_c, 0, 68, 100
2, 5922360, Note_on_c, 0, 68, 0
2, 5922360, Note_on_c, 0, 69, 100
2, 5922480, Note_on_c, 0, 69, 0
2, 5922480, Note_on_c, 0, 71, 100
2, 5922600, Note_on_c, 0, 71, 0
2, 5922600, Note_on_c, 0, 69, 100
2, 5922720, Note_on_c, 0, 69, 0
2, 5922720, Note_on_c, 0, 64, 100
2, 5922840, Note_on_c, 0, 64, 0
2, 5922840, Note_on_c, 0, 69, 100
2, 5922960, Note_on_c, 0, 69, 0
2, 5922960, Note_on_c, 0, 71, 100
2, 5923080, Note_on_c, 0, 71, 0
2, 5923080, Note_on_c, 0, 72, 100
2, 5923200, Note_on_c, 0, 72, 0
2, 5923200, Note_on_c, 0, 69, 100
2, 5923320, Note_on_c, 0, 69, 0
2, 5923320, Note_on_c, 0, 75, 100
2, 5923440, Note_on_c, 0, 75, 0
2, 5923440, Note_on_c, 0, 76, 100
2, 5923560, Note_on_c, 0, 76, 0
2, 5923560, Note_on_c, 0, 78, 100
2, 5923680, Note_on_c, 0, 78, 0
2, 5923680, Note_on_c, 0, 76, 100
2, 5923800, Note_on_c, 0, 76, 0
2, 5923800, Note_on_c, 0, 75, 100
2, 5923920, Note_on_c, 0, 75, 0
2, 5923920, Note_on_c, 0, 73, 100
2, 5924040, Note_on_c, 0, 73, 0
2, 5924040, Note_on_c, 0, 71, 100
2, 5924160, Note_on_c, 0, 71, 0
2, 5924160, Note_on_c, 0, 75, 100
2, 5925240, Note_on_c, 0, 75, 0
2, 5925240, Note_on_c, 0, 76, 100
2, 5925360, Note_on_c, 0, 76, 0
2, 5925360, Note_on_c, 0, 63, 100
2, 5925720, Note_on_c, 0, 63, 0
2, 5925720, Note_on_c, 0, 64, 100
2, 5925840, Note_on_c, 0, 64, 0
2, 5925840, Note_on_c, 0, 51, 100
2, 5926200, Note_on_c, 0, 51, 0
2, 5926200, Note_on_c, 0, 52, 100
2, 5926320, Note_on_c, 0, 52, 0
2, 5926320, Note_on_c, 0, 80, 100
2, 5926680, Note_on_c, 0, 80, 0
2, 5926680, Note_on_c, 0, 81, 100
2, 5926800, Note_on_c, 0, 81, 0
2, 5926800, Note_on_c, 0, 68, 100
2, 5927160, Note_on_c, 0, 68, 0
2, 5927160, Note_on_c, 0, 69, 100
2, 5927280, Note_on_c, 0, 69, 0
2, 5927280, Note_on_c, 0, 56, 100
2, 5927640, Note_on_c, 0, 56, 0
2, 5927640, Note_on_c, 0, 57, 100
2, 5927760, Note_on_c, 0, 57, 0
2, 5927760, Note_on_c, 0, 59, 100
2, 5928120, Note_on_c, 0, 59, 0
2, 5928120, Note_on_c, 0, 60, 100
2, 5928240, Note_on_c, 0, 60, 0
2, 5928240, Note_on_c, 0, 66, 100
2, 5928360, Note_on_c, 0, 66, 0
2, 5928360, Note_on_c, 0, 59, 100
2, 5928480, Note_on_c, 0, 59, 0
2, 5928480, Note_on_c, 0, 63, 100
2, 5928600, Note_on_c, 0, 63, 0
2, 5928600, Note_on_c, 0, 64, 100
2, 5928720, Note_on_c, 0, 64, 0
2, 5928720, Note_on_c, 0, 67, 100
2, 5928840, Note_on_c, 0, 67, 0
2, 5928840, Note_on_c, 0, 66, 100
2, 5928960, Note_on_c, 0, 66, 0
2, 5928960, Note_on_c, 0, 64, 100
2, 5929080, Note_on_c, 0, 64, 0
2, 5929080, Note_on_c, 0, 63, 100
2, 5929200, Note_on_c, 0, 63, 0
2, 5929200, Note_on_c, 0, 69, 100
2, 5929320, Note_on_c, 0, 69, 0
2, 5929320, Note_on_c, 0, 67, 100
2, 5929440, Note_on_c, 0, 67, 0
2, 5929440, Note_on_c, 0, 66, 100
2, 5929560, Note_on_c, 0, 66, 0
2, 5929560, Note_on_c, 0, 64, 100
2, 5929680, Note_on_c, 0, 64, 0
2, 5929680, Note_on_c, 0, 63, 100
2, 5929800, Note_on_c, 0, 63, 0
2, 5929800, Note_on_c, 0, 64, 100
2, 5929920, Note_on_c, 0, 64, 0
2, 5929920, Note_on_c, 0, 67, 100
2, 5930040, Note_on_c, 0, 67, 0
2, 5930040, Note_on_c, 0, 59, 100
2, 5930160, Note_on_c, 0, 59, 0
2, 5930160, Note_on_c, 0, 57, 100
2, 5930280, Note_on_c, 0, 57, 0
2, 5930280, Note_on_c, 0, 55, 100
2, 5930400, Note_on_c, 0, 55, 0
2, 5930400, Note_on_c, 0, 59, 100
2, 5930520, Note_on_c, 0, 59, 0
2, 5930520, Note_on_c, 0, 52, 100
2, 5930640, Note_on_c, 0, 52, 0
2, 5930640, Note_on_c, 0, 76, 100
2, 5931120, Note_on_c, 0, 76, 0
2, 5931120, Note_on_c, 0, 72, 100
2, 5931360, Note_on_c, 0, 72, 0
2, 5931360, Note_on_c, 0, 76, 100
2, 5931600, Note_on_c, 0, 76, 0
2, 5931600, Note_on_c, 0, 81, 100
2, 5931840, Note_on_c, 0, 81, 0
2, 5931840, Note_on_c, 0, 69, 100
2, 5932080, Note_on_c, 0, 69, 0
2, 5932080, Note_on_c, 0, 74, 100
2, 5932560, Note_on_c, 0, 74, 0
2, 5932560, Note_on_c, 0, 71, 100
2, 5932800, Note_on_c, 0, 71, 0
2, 5932800, Note_on_c, 0, 74, 100
2, 5933040, Note_on_c, 0, 74, 0
2, 5933040, Note_on_c, 0, 79, 100
2, 5933280, Note_on_c, 0, 79, 0
2, 5933280, Note_on_c, 0, 67, 100
2, 5933520, Note_on_c, 0, 67, 0
2, 5933520, Note_on_c, 0, 72, 100
2, 5933760, Note_on_c, 0, 72, 0
2, 5933760, Note_on_c, 0, 69, 100
2, 5933880, Note_on_c, 0, 69, 0
2, 5933880, Note_on_c, 0, 64, 100
2, 5934000, Note_on_c, 0, 64, 0
2, 5934000, Note_on_c, 0, 60, 100
2, 5934120, Note_on_c, 0, 60, 0
2, 5934120, Note_on_c, 0, 57, 100
2, 5934240, Note_on_c, 0, 57, 0
2, 5934240, Note_on_c, 0, 60, 100
2, 5934360, Note_on_c, 0, 60, 0
2, 5934360, Note_on_c, 0, 64, 100
2, 5934480, Note_on_c, 0, 64, 0
2, 5934480, Note_on_c, 0, 69, 100
2, 5934600, Note_on_c, 0, 69, 0
2, 5934600, Note_on_c, 0, 72, 100
2, 5934720, Note_on_c, 0, 72, 0
2, 5934720, Note_on_c, 0, 69, 100
2, 5934840, Note_on_c, 0, 69, 0
2, 5934840, Note_on_c, 0, 72, 100
2, 5934960, Note_on_c, 0, 72, 0
2, 5934960, Note_on_c, 0, 76, 100
2, 5935080, Note_on_c, 0, 76, 0
2, 5935080, Note_on_c, 0, 78, 100
2, 5935200, Note_on_c, 0, 78, 0
2, 5935200, Note_on_c, 0, 72, 100
2, 5935320, Note_on_c, 0, 72, 0
2, 5935320, Note_on_c, 0, 69, 100
2, 5935440, Note_on_c, 0, 69, 0
2, 5935440, Note_on_c, 0, 66, 100
2, 5935560, Note_on_c, 0, 66, 0
2, 5935560, Note_on_c, 0, 62, 100
2, 5935680, Note_on_c, 0, 62, 0
2, 5935680, Note_on_c, 0, 66, 100
2, 5935800, Note_on_c, 0, 66, 0
2, 5935800, Note_on_c, 0, 69, 100
2, 5935920, Note_on_c, 0, 69, 0
2, 5935920, Note_on_c, 0, 72, 100
2, 5936040, Note_on_c, 0, 72, 0
2, 5936040, Note_on_c, 0, 78, 100
2, 5936160, Note_on_c, 0, 78, 0
2, 5936160, Note_on_c, 0, 72, 100
2, 5936280, Note_on_c, 0, 72, 0
2, 5936280, Note_on_c, 0, 78, 100
2, 5936400, Note_on_c, 0, 78, 0
2, 5936400, Note_on_c, 0, 81, 100
2, 5936520, Note_on_c, 0, 81, 0
2, 5936520, Note_on_c, 0, 83, 100
2, 5936640, Note_on_c, 0, 83, 0
2, 5936640, Note_on_c, 0, 79, 100
2, 5936760, Note_on_c, 0, 79, 0
2, 5936760, Note_on_c, 0, 74, 100
2, 5936880, Note_on_c, 0, 74, 0
2, 5936880, Note_on_c, 0, 71, 100
2, 5937000, Note_on_c, 0, 71, 0
2, 5937000, Note_on_c, 0, 67, 100
2, 5937120, Note_on_c, 0, 67, 0
2, 5937120, Note_on_c, 0, 71, 100
2, 5937240, Note_on_c, 0, 71, 0
2, 5937240, Note_on_c, 0, 74, 100
2, 5937360, Note_on_c, 0, 74, 0
2, 5937360, Note_on_c, 0, 79, 100
2, 5937480, Note_on_c, 0, 79, 0
2, 5937480, Note_on_c, 0, 83, 100
2, 5937600, Note_on_c, 0, 83, 0
2, 5937600, Note_on_c, 0, 77, 100
2, 5937720, Note_on_c, 0, 77, 0
2, 5937720, Note_on_c, 0, 83, 100
2, 5937840, Note_on_c, 0, 83, 0
2, 5937840, Note_on_c, 0, 86, 100
2, 5937960, Note_on_c, 0, 86, 0
2, 5937960, Note_on_c, 0, 76, 100
2, 5938080, Note_on_c, 0, 76, 0
2, 5938080, Note_on_c, 0, 86, 100
2, 5938200, Note_on_c, 0, 86, 0
2, 5938200, Note_on_c, 0, 84, 100
2, 5938320, Note_on_c, 0, 84, 0
2, 5938320, Note_on_c, 0, 76, 100
2, 5938440, Note_on_c, 0, 76, 0
2, 5938440, Note_on_c, 0, 74, 100
2, 5938560, Note_on_c, 0, 74, 0
2, 5938560, Note_on_c, 0, 84, 100
2, 5938680, Note_on_c, 0, 84, 0
2, 5938680, Note_on_c, 0, 83, 100
2, 5938800, Note_on_c, 0, 83, 0
2, 5938800, Note_on_c, 0, 74, 100
2, 5938920, Note_on_c, 0, 74, 0
2, 5938920, Note_on_c, 0, 72, 100
2, 5939040, Note_on_c, 0, 72, 0
2, 5939040, Note_on_c, 0, 76, 100
2, 5939160, Note_on_c, 0, 76, 0
2, 5939160, Note_on_c, 0, 78, 100
2, 5939280, Note_on_c, 0, 78, 0
2, 5939280, Note_on_c, 0, 79, 100
2, 5939400, Note_on_c, 0, 79, 0
2, 5939400, Note_on_c, 0, 81, 100
2, 5939520, Note_on_c, 0, 81, 0
2, 5939520, Note_on_c, 0, 72, 100
2, 5939640, Note_on_c, 0, 72, 0
2, 5939640, Note_on_c, 0, 71, 100
2, 5939760, Note_on_c, 0, 71, 0
2, 5939760, Note_on_c, 0, 69, 100
2, 5939880, Note_on_c, 0, 69, 0
2, 5939880, Note_on_c, 0, 71, 100
2, 5940000, Note_on_c, 0, 71, 0
2, 5940000, Note_on_c, 0, 74, 100
2, 5940120, Note_on_c, 0, 74, 0
2, 5940120, Note_on_c, 0, 71, 100
2, 5940240, Note_on_c, 0, 71, 0
2, 5940240, Note_on_c, 0, 67, 100
2, 5940360, Note_on_c, 0, 67, 0
2, 5940360, Note_on_c, 0, 72, 100
2, 5940480, Note_on_c, 0, 72, 0
2, 5940480, Note_on_c, 0, 69, 100
2, 5940600, Note_on_c, 0, 69, 0
2, 5940600, Note_on_c, 0, 67, 100
2, 5940720, Note_on_c, 0, 67, 0
2, 5940720, Note_on_c, 0, 66, 100
2, 5940840, Note_on_c, 0, 66, 0
2, 5940840, Note_on_c, 0, 71, 100
2, 5940960, Note_on_c, 0, 71, 0
2, 5940960, Note_on_c, 0, 67, 100
2, 5941080, Note_on_c, 0, 67, 0
2, 5941080, Note_on_c, 0, 66, 100
2, 5941200, Note_on_c, 0, 66, 0
2, 5941200, Note_on_c, 0, 64, 100
2, 5941320, Note_on_c, 0, 64, 0
2, 5941320, Note_on_c, 0, 62, 100
2, 5941440, Note_on_c, 0, 62, 0
2, 5941440, Note_on_c, 0, 60, 100
2, 5941560, Note_on_c, 0, 60, 0
2, 5941560, Note_on_c, 0, 59, 100
2, 5941680, Note_on_c, 0, 59, 0
2, 5941680, Note_on_c, 0, 57, 100
2, 5941800, Note_on_c, 0, 57, 0
2, 5941800, Note_on_c, 0, 55, 100
2, 5941920, Note_on_c, 0, 55, 0
2, 5941920, Note_on_c, 0, 78, 100
2, 5942400, Note_on_c, 0, 78, 0
2, 5942400, Note_on_c, 0, 79, 100
2, 5942520, Note_on_c, 0, 79, 0
2, 5942520, Note_on_c, 0, 81, 100
2, 5942640, Note_on_c, 0, 81, 0
2, 5942640, Note_on_c, 0, 83, 100
2, 5943000, Note_on_c, 0, 83, 0
2, 5943000, Note_on_c, 0, 81, 100
2, 5943120, Note_on_c, 0, 81, 0
2, 5943120, Note_on_c, 0, 79, 100
2, 5943240, Note_on_c, 0, 79, 0
2, 5943240, Note_on_c, 0, 78, 100
2, 5943360, Note_on_c, 0, 78, 0
2, 5943360, Note_on_c, 0, 76, 100
2, 5943480, Note_on_c, 0, 76, 0
2, 5943480, Note_on_c, 0, 74, 100
2, 5943600, Note_on_c, 0, 74, 0
2, 5943600, Note_on_c, 0, 72, 100
2, 5943720, Note_on_c, 0, 72, 0
2, 5943720, Note_on_c, 0, 71, 100
2, 5943840, Note_on_c, 0, 71, 0
2, 5943840, Note_on_c, 0, 72, 100
2, 5943960, Note_on_c, 0, 72, 0
2, 5943960, Note_on_c, 0, 74, 100
2, 5944080, Note_on_c, 0, 74, 0
2, 5944080, Note_on_c, 0, 76, 100
2, 5944440, Note_on_c, 0, 76, 0
2, 5944440, Note_on_c, 0, 74, 100
2, 5944560, Note_on_c, 0, 74, 0
2, 5944560, Note_on_c, 0, 72, 100
2, 5944680, Note_on_c, 0, 72, 0
2, 5944680, Note_on_c, 0, 71, 100
2, 5944800, Note_on_c, 0, 71, 0
2, 5944800, Note_on_c, 0, 69, 100
2, 5944920, Note_on_c, 0, 69, 0
2, 5944920, Note_on_c, 0, 67, 100
2, 5945040, Note_on_c, 0, 67, 0
2, 5945040, Note_on_c, 0, 66, 100
2, 5945160, Note_on_c, 0, 66, 0
2, 5945160, Note_on_c, 0, 64, 100
2, 5945280, Note_on_c, 0, 64, 0
2, 5945280, Note_on_c, 0, 68, 100
2, 5945400, Note_on_c, 0, 68, 0
2, 5945400, Note_on_c, 0, 69, 100
2, 5945520, Note_on_c, 0, 69, 0
2, 5945520, Note_on_c, 0, 71, 100
2, 5945640, Note_on_c, 0, 71, 0
2, 5945640, Note_on_c, 0, 69, 100
2, 5945760, Note_on_c, 0, 69, 0
2, 5945760, Note_on_c, 0, 64, 100
2, 5945880, Note_on_c, 0, 64, 0
2, 5945880, Note_on_c, 0, 69, 100
2, 5946000, Note_on_c, 0, 69, 0
2, 5946000, Note_on_c, 0, 71, 100
2, 5946120, Note_on_c, 0, 71, 0
2, 5946120, Note_on_c, 0, 72, 100
2, 5946240, Note_on_c, 0, 72, 0
2, 5946240, Note_on_c, 0, 69, 100
2, 5946360, Note_on_c, 0, 69, 0
2, 5946360, Note_on_c, 0, 75, 100
2, 5946480, Note_on_c, 0, 75, 0
2, 5946480, Note_on_c, 0, 76, 100
2, 5946600, Note_on_c, 0, 76, 0
2, 5946600, Note_on_c, 0, 78, 100
2, 5946720, Note_on_c, 0, 78, 0
2, 5946720, Note_on_c, 0, 76, 100
2, 5946840, Note_on_c, 0, 76, 0
2, 5946840, Note_on_c, 0, 75, 100
2, 5946960, Note_on_c, 0, 75, 0
2, 5946960, Note_on_c, 0, 73, 100
2, 5947080, Note_on_c, 0, 73, 0
2, 5947080, Note_on_c, 0, 71, 100
2, 5947200, Note_on_c, 0, 71, 0
2, 5947200, Note_on_c, 0, 75, 100
2, 5948280, Note_on_c, 0, 75, 0
2, 5948280, Note_on_c, 0, 76, 100
2, 5948400, Note_on_c, 0, 76, 0
2, 5948400, Note_on_c, 0, 63, 100
2, 5948760, Note_on_c, 0, 63, 0
2, 5948760, Note_on_c, 0, 64, 100
2, 5948880, Note_on_c, 0, 64, 0
2, 5948880, Note_on_c, 0, 51, 100
2, 5949240, Note_on_c, 0, 51, 0
2, 5949240, Note_on_c, 0, 52, 100
2, 5949360, Note_on_c, 0, 52, 0
2, 5949360, Note_on_c, 0, 80, 100
2, 5949720, Note_on_c, 0, 80, 0
2, 5949720, Note_on_c, 0, 81, 100
2, 5949840, Note_on_c, 0, 81, 0
2, 5949840, Note_on_c, 0, 68, 100
2, 5950200, Note_on_c, 0, 68, 0
2, 5950200, Note_on_c, 0, 69, 100
2, 5950320, Note_on_c, 0, 69, 0
2, 5950320, Note_on_c, 0, 56, 100
2, 5950680, Note_on_c, 0, 56, 0
2, 5950680, Note_on_c, 0, 57, 100
2, 5950800, Note_on_c, 0, 57, 0
2, 5950800, Note_on_c, 0, 59, 100
2, 5951160, Note_on_c, 0, 59, 0
2, 5951160, Note_on_c, 0, 60, 100
2, 5951280, Note_on_c, 0, 60, 0
2, 5951280, Note_on_c, 0, 66, 100
2, 5951400, Note_on_c, 0, 66, 0
2, 5951400, Note_on_c, 0, 59, 100
2, 5951520, Note_on_c, 0, 59, 0
2, 5951520, Note_on_c, 0, 63, 100
2, 5951640, Note_on_c, 0, 63, 0
2, 5951640, Note_on_c, 0, 64, 100
2, 5951760, Note_on_c, 0, 64, 0
2, 5951760, Note_on_c, 0, 67, 100
2, 5951880, Note_on_c, 0, 67, 0
2, 5951880, Note_on_c, 0, 66, 100
2, 5952000, Note_on_c, 0, 66, 0
2, 5952000, Note_on_c, 0, 64, 100
2, 5952120, Note_on_c, 0, 64, 0
2, 5952120, Note_on_c, 0, 63, 100
2, 5952240, Note_on_c, 0, 63, 0
2, 5952240, Note_on_c, 0, 69, 100
2, 5952360, Note_on_c, 0, 69, 0
2, 5952360, Note_on_c, 0, 67, 100
2, 5952480, Note_on_c, 0, 67, 0
2, 5952480, Note_on_c, 0, 66, 100
2, 5952600, Note_on_c, 0, 66, 0
2, 5952600, Note_on_c, 0, 64, 100
2, 5952720, Note_on_c, 0, 64, 0
2, 5952720, Note_on_c, 0, 63, 100
2, 5952840, Note_on_c, 0, 63, 0
2, 5952840, Note_on_c, 0, 64, 100
2, 5952960, Note_on_c, 0, 64, 0
2, 5952960, Note_on_c, 0, 67, 100
2, 5953080, Note_on_c, 0, 67, 0
2, 5953080, Note_on_c, 0, 59, 100
2, 5953200, Note_on_c, 0, 59, 0
2, 5953200, Note_on_c, 0, 57, 100
2, 5953320, Note_on_c, 0, 57, 0
2, 5953320, Note_on_c, 0, 55, 100
2, 5953440, Note_on_c, 0, 55, 0
2, 5953440, Note_on_c, 0, 59, 100
2, 5953560, Note_on_c, 0, 59, 0
2, 5953560, Note_on_c, 0, 52, 100
2, 5953680, Note_on_c, 0, 52, 0
2, 5953680, Note_on_c, 0, 76, 100
2, 5954160, Note_on_c, 0, 76, 0
2, 5954160, Note_on_c, 0, 72, 100
2, 5954400, Note_on_c, 0, 72, 0
2, 5954400, Note_on_c, 0, 76, 100
2, 5954640, Note_on_c, 0, 76, 0
2, 5954640, Note_on_c, 0, 81, 100
2, 5954880, Note_on_c, 0, 81, 0
2, 5954880, Note_on_c, 0, 69, 100
2, 5955120, Note_on_c, 0, 69, 0
2, 5955120, Note_on_c, 0, 74, 100
2, 5955600, Note_on_c, 0, 74, 0
2, 5955600, Note_on_c, 0, 71, 100
2, 5955840, Note_on_c, 0, 71, 0
2, 5955840, Note_on_c, 0, 74, 100
2, 5956080, Note_on_c, 0, 74, 0
2, 5956080, Note_on_c, 0, 79, 100
2, 5956320, Note_on_c, 0, 79, 0
2, 5956320, Note_on_c, 0, 67, 100
2, 5956560, Note_on_c, 0, 67, 0
2, 5956560, Note_on_c, 0, 72, 100
2, 5956800, Note_on_c, 0, 72, 0
2, 5956800, Note_on_c, 0, 69, 100
2, 5956920, Note_on_c, 0, 69, 0
2, 5956920, Note_on_c, 0, 64, 100
2, 5957040, Note_on_c, 0, 64, 0
2, 5957040, Note_on_c, 0, 60, 100
2, 5957160, Note_on_c, 0, 60, 0
2, 5957160, Note_on_c, 0, 57, 100
2, 5957280, Note_on_c, 0, 57, 0
2, 5957280, Note_on_c, 0, 60, 100
2, 5957400, Note_on_c, 0, 60, 0
2, 5957400, Note_on_c, 0, 64, 100
2, 5957520, Note_on_c, 0, 64, 0
2, 5957520, Note_on_c, 0, 69, 100
2, 5957640, Note_on_c, 0, 69, 0
2, 5957640, Note_on_c, 0, 72, 100
2, 5957760, Note_on_c, 0, 72, 0
2, 5957760, Note_on_c, 0, 69, 100
2, 5957880, Note_on_c, 0, 69, 0
2, 5957880, Note_on_c, 0, 72, 100
2, 5958000, Note_on_c, 0, 72, 0
2, 5958000, Note_on_c, 0, 76, 100
2, 5958120, Note_on_c, 0, 76, 0
2, 5958120, Note_on_c, 0, 78, 100
2, 5958240, Note_on_c, 0, 78, 0
2, 5958240, Note_on_c, 0, 72, 100
2, 5958360, Note_on_c, 0, 72, 0
2, 5958360, Note_on_c, 0, 69, 100
2, 5958480, Note_on_c, 0, 69, 0
2, 5958480, Note_on_c, 0, 66, 100
2, 5958600, Note_on_c, 0, 66, 0
2, 5958600, Note_on_c, 0, 62, 100
2, 5958720, Note_on_c, 0, 62, 0
2, 5958720, Note_on_c, 0, 66, 100
2, 5958840, Note_on_c, 0, 66, 0
2, 5958840, Note_on_c, 0, 69, 100
2, 5958960, Note_on_c, 0, 69, 0
2, 5958960, Note_on_c, 0, 72, 100
2, 5959080, Note_on_c, 0, 72, 0
2, 5959080, Note_on_c, 0, 78, 100
2, 5959200, Note_on_c, 0, 78, 0
2, 5959200, Note_on_c, 0, 72, 100
2, 5959320, Note_on_c, 0, 72, 0
2, 5959320, Note_on_c, 0, 78, 100
2, 5959440, Note_on_c, 0, 78, 0
2, 5959440, Note_on_c, 0, 81, 100
2, 5959560, Note_on_c, 0, 81, 0
2, 5959560, Note_on_c, 0, 83, 100
2, 5959680, Note_on_c, 0, 83, 0
2, 5959680, Note_on_c, 0, 79, 100
2, 5959800, Note_on_c, 0, 79, 0
2, 5959800, Note_on_c, 0, 74, 100
2, 5959920, Note_on_c, 0, 74, 0
2, 5959920, Note_on_c, 0, 71, 100
2, 5960040, Note_on_c, 0, 71, 0
2, 5960040, Note_on_c, 0, 67, 100
2, 5960160, Note_on_c, 0, 67, 0
2, 5960160, Note_on_c, 0, 71, 100
2, 5960280, Note_on_c, 0, 71, 0
2, 5960280, Note_on_c, 0, 74, 100
2, 5960400, Note_on_c, 0, 74, 0
2, 5960400, Note_on_c, 0, 79, 100
2, 5960520, Note_on_c, 0, 79, 0
2, 5960520, Note_on_c, 0, 83, 100
2, 5960640, Note_on_c, 0, 83, 0
2, 5960640, Note_on_c, 0, 77, 100
2, 5960760, Note_on_c, 0, 77, 0
2, 5960760, Note_on_c, 0, 83, 100
2, 5960880, Note_on_c, 0, 83, 0
2, 5960880, Note_on_c, 0, 86, 100
2, 5961000, Note_on_c, 0, 86, 0
2, 5961000, Note_on_c, 0, 76, 100
2, 5961120, Note_on_c, 0, 76, 0
2, 5961120, Note_on_c, 0, 86, 100
2, 5961240, Note_on_c, 0, 86, 0
2, 5961240, Note_on_c, 0, 84, 100
2, 5961360, Note_on_c, 0, 84, 0
2, 5961360, Note_on_c, 0, 76, 100
2, 5961480, Note_on_c, 0, 76, 0
2, 5961480, Note_on_c, 0, 74, 100
2, 5961600, Note_on_c, 0, 74, 0
2, 5961600, Note_on_c, 0, 84, 100
2, 5961720, Note_on_c, 0, 84, 0
2, 5961720, Note_on_c, 0, 83, 100
2, 5961840, Note_on_c, 0, 83, 0
2, 5961840, Note_on_c, 0, 74, 100
2, 5961960, Note_on_c, 0, 74, 0
2, 5961960, Note_on_c, 0, 72, 100
2, 5962080, Note_on_c, 0, 72, 0
2, 5962080, Note_on_c, 0, 76, 100
2, 5962200, Note_on_c, 0, 76, 0
2, 5962200, Note_on_c, 0, 78, 100
2, 5962320, Note_on_c, 0, 78, 0
2, 5962320, Note_on_c, 0, 79, 100
2, 5962440, Note_on_c, 0, 79, 0
2, 5962440, Note_on_c, 0, 81, 100
2, 5962560, Note_on_c, 0, 81, 0
2, 5962560, Note_on_c, 0, 72, 100
2, 5962680, Note_on_c, 0, 72, 0
2, 5962680, Note_on_c, 0, 71, 100
2, 5962800, Note_on_c, 0, 71, 0
2, 5962800, Note_on_c, 0, 69, 100
2, 5962920, Note_on_c, 0, 69, 0
2, 5962920, Note_on_c, 0, 71, 100
2, 5963040, Note_on_c, 0, 71, 0
2, 5963040, Note_on_c, 0, 74, 100
2, 5963160, Note_on_c, 0, 74, 0
2, 5963160, Note_on_c, 0, 71, 100
2, 5963280, Note_on_c, 0, 71, 0
2, 5963280, Note_on_c, 0, 67, 100
2, 5963400, Note_on_c, 0, 67, 0
2, 5963400, Note_on_c, 0, 72, 100
2, 5963520, Note_on_c, 0, 72, 0
2, 5963520, Note_on_c, 0, 69, 100
2, 5963640, Note_on_c, 0, 69, 0
2, 5963640, Note_on_c, 0, 67, 100
2, 5963760, Note_on_c, 0, 67, 0
2, 5963760, Note_on_c, 0, 66, 100
2, 5963880, Note_on_c, 0, 66, 0
2, 5963880, Note_on_c, 0, 71, 100
2, 5964000, Note_on_c, 0, 71, 0
2, 5964000, Note_on_c, 0, 67, 100
2, 5964120, Note_on_c, 0, 67, 0
2, 5964120, Note_on_c, 0, 66, 100
2, 5964240, Note_on_c, 0, 66, 0
2, 5964240, Note_on_c, 0, 64, 100
2, 5964360, Note_on_c, 0, 64, 0
2, 5964360, Note_on_c, 0, 62, 100
2, 5964480, Note_on_c, 0, 62, 0
2, 5964480, Note_on_c, 0, 60, 100
2, 5964600, Note_on_c, 0, 60, 0
2, 5964600, Note_on_c, 0, 59, 100
2, 5964720, Note_on_c, 0, 59, 0
2, 5964720, Note_on_c, 0, 57, 100
2, 5964840, Note_on_c, 0, 57, 0
2, 5964840, Note_on_c, 0, 55, 100
2, 5964960, Note_on_c, 0, 55, 0
2, 5964960, Note_on_c, 0, 62, 100
2, 6120000, Note_on_c, 0, 62, 0
2, 6120000, Note_on_c, 0, 66, 100
2, 6120240, Note_on_c, 0, 66, 0
2, 6120240, Note_on_c, 0, 59, 100
2, 6120480, Note_on_c, 0, 59, 0
2, 6120480, Note_on_c, 0, 67, 100
2, 6120720, Note_on_c, 0, 67, 0
2, 6120720, Note_on_c, 0, 72, 100
2, 6120960, Note_on_c, 0, 72, 0
2, 6120960, Note_on_c, 0, 71, 100
2, 6121200, Note_on_c, 0, 71, 0
2, 6121200, Note_on_c, 0, 67, 100
2, 6121320, Note_on_c, 0, 67, 0
2, 6121320, Note_on_c, 0, 69, 100
2, 6121440, Note_on_c, 0, 69, 0
2, 6121440, Note_on_c, 0, 60, 100
2, 6122880, Note_on_c, 0, 60, 0
2, 6122880, Note_on_c, 0, 64, 100
2, 6123120, Note_on_c, 0, 64, 0
2, 6123120, Note_on_c, 0, 57, 100
2, 6123360, Note_on_c, 0, 57, 0
2, 6123360, Note_on_c, 0, 62, 100
2, 6123600, Note_on_c, 0, 62, 0
2, 6123600, Note_on_c, 0, 67, 100
2, 6124320, Note_on_c, 0, 67, 0
2, 6124320, Note_on_c, 0, 73, 100
2, 6126480, Note_on_c, 0, 73, 0
2, 6126480, Note_on_c, 0, 76, 100
2, 6126720, Note_on_c, 0, 76, 0
2, 6126720, Note_on_c, 0, 69, 100
2, 6126960, Note_on_c, 0, 69, 0
2, 6126960, Note_on_c, 0, 67, 100
2, 6127440, Note_on_c, 0, 67, 0
2, 6127440, Note_on_c, 0, 66, 100
2, 6127920, Note_on_c, 0, 66, 0
2, 6127920, Note_on_c, 0, 69, 100
2, 6128160, Note_on_c, 0, 69, 0
2, 6128160, Note_on_c, 0, 62, 100
2, 6128400, Note_on_c, 0, 62, 0
2, 6128400, Note_on_c, 0, 64, 100
2, 6128640, Note_on_c, 0, 64, 0
2, 6128640, Note_on_c, 0, 67, 100
2, 6128880, Note_on_c, 0, 67, 0
2, 6128880, Note_on_c, 0, 61, 100
2, 6129120, Note_on_c, 0, 61, 0
2, 6129120, Note_on_c, 0, 69, 100
2, 6129360, Note_on_c, 0, 69, 0
2, 6129360, Note_on_c, 0, 67, 100
2, 6129600, Note_on_c, 0, 67, 0
2, 6129600, Note_on_c, 0, 64, 100
2, 6129960, Note_on_c, 0, 64, 0
2, 6129960, Note_on_c, 0, 66, 100
2, 6130080, Note_on_c, 0, 66, 0
2, 6130080, Note_on_c, 0, 62, 100
2, 6131520, Note_on_c, 0, 62, 0
2, 6131520, Note_on_c, 0, 66, 100
2, 6131760, Note_on_c, 0, 66, 0
2, 6131760, Note_on_c, 0, 59, 100
2, 6132000, Note_on_c, 0, 59, 0
2, 6132000, Note_on_c, 0, 67, 100
2, 6132240, Note_on_c, 0, 67, 0
2, 6132240, Note_on_c, 0, 72, 100
2, 6132480, Note_on_c, 0, 72, 0
2, 6132480, Note_on_c, 0, 71, 100
2, 6132720, Note_on_c, 0, 71, 0
2, 6132720, Note_on_c, 0, 67, 100
2, 6132840, Note_on_c, 0, 67, 0
2, 6132840, Note_on_c, 0, 69, 100
2, 6132960, Note_on_c, 0, 69, 0
2, 6132960, Note_on_c, 0, 60, 100
2, 6134400, Note_on_c, 0, 60, 0
2, 6134400, Note_on_c, 0, 64, 100
2, 6134640, Note_on_c, 0, 64, 0
2, 6134640, Note_on_c, 0, 57, 100
2, 6134880, Note_on_c, 0, 57, 0
2, 6134880, Note_on_c, 0, 62, 100
2, 6135120, Note_on_c, 0, 62, 0
2, 6135120, Note_on_c, 0, 67, 100
2, 6135840, Note_on_c, 0, 67, 0
2, 6135840, Note_on_c, 0, 73, 100
2, 6138000, Note_on_c, 0, 73, 0
2, 6138000, Note_on_c, 0, 76, 100
2, 6138240, Note_on_c, 0, 76, 0
2, 6138240, Note_on_c, 0, 69, 100
2, 6138480, Note_on_c, 0, 69, 0
2, 6138480, Note_on_c, 0, 67, 100
2, 6138960, Note_on_c, 0, 67, 0
2, 6138960, Note_on_c, 0, 66, 100
2, 6139440, Note_on_c, 0, 66, 0
2, 6139440, Note_on_c, 0, 69, 100
2, 6139680, Note_on_c, 0, 69, 0
2, 6139680, Note_on_c, 0, 62, 100
2, 6139920, Note_on_c, 0, 62, 0
2, 6139920, Note_on_c, 0, 64, 100
2, 6140160, Note_on_c, 0, 64, 0
2, 6140160, Note_on_c, 0, 67, 100
2, 6140400, Note_on_c, 0, 67, 0
2, 6140400, Note_on_c, 0, 61, 100
2, 6140640, Note_on_c, 0, 61, 0
2, 6140640, Note_on_c, 0, 69, 100
2, 6140880, Note_on_c, 0, 69, 0
2, 6140880, Note_on_c, 0, 67, 100
2, 6141120, Note_on_c, 0, 67, 0
2, 6141120, Note_on_c, 0, 64, 100
2, 6141480, Note_on_c, 0, 64, 0
2, 6141480, Note_on_c, 0, 66, 100
2, 6141600, Note_on_c, 0, 66, 0
2, 6141600, Note_on_c, 0, 74, 100
2, 6143040, Note_on_c, 0, 74, 0
2, 6143040, Note_on_c, 0, 71, 100
2, 6143280, Note_on_c, 0, 71, 0
2, 6143280, Note_on_c, 0, 67, 100
2, 6143520, Note_on_c, 0, 67, 0
2, 6143520, Note_on_c, 0, 69, 100
2, 6143760, Note_on_c, 0, 69, 0
2, 6143760, Note_on_c, 0, 72, 100
2, 6144000, Note_on_c, 0, 72, 0
2, 6144000, Note_on_c, 0, 66, 100
2, 6144240, Note_on_c, 0, 66, 0
2, 6144240, Note_on_c, 0, 71, 100
2, 6145200, Note_on_c, 0, 71, 0
2, 6145200, Note_on_c, 0, 67, 100
2, 6145440, Note_on_c, 0, 67, 0
2, 6145440, Note_on_c, 0, 64, 100
2, 6145680, Note_on_c, 0, 64, 0
2, 6145680, Note_on_c, 0, 66, 100
2, 6145920, Note_on_c, 0, 66, 0
2, 6145920, Note_on_c, 0, 67, 100
2, 6146160, Note_on_c, 0, 67, 0
2, 6146160, Note_on_c, 0, 66, 100
2, 6146400, Note_on_c, 0, 66, 0
2, 6146400, Note_on_c, 0, 64, 100
2, 6147120, Note_on_c, 0, 64, 0
2, 6147120, Note_on_c, 0, 69, 100
2, 6148080, Note_on_c, 0, 69, 0
2, 6148080, Note_on_c, 0, 72, 100
2, 6148320, Note_on_c, 0, 72, 0
2, 6148320, Note_on_c, 0, 66, 100
2, 6148560, Note_on_c, 0, 66, 0
2, 6148560, Note_on_c, 0, 67, 100
2, 6148800, Note_on_c, 0, 67, 0
2, 6148800, Note_on_c, 0, 71, 100
2, 6149040, Note_on_c, 0, 71, 0
2, 6149040, Note_on_c, 0, 64, 100
2, 6149280, Note_on_c, 0, 64, 0
2, 6149280, Note_on_c, 0, 69, 100
2, 6149520, Note_on_c, 0, 69, 0
2, 6149520, Note_on_c, 0, 66, 100
2, 6150240, Note_on_c, 0, 66, 0
2, 6150240, Note_on_c, 0, 69, 100
2, 6150480, Note_on_c, 0, 69, 0
2, 6150480, Note_on_c, 0, 67, 100
2, 6150960, Note_on_c, 0, 67, 0
2, 6150960, Note_on_c, 0, 71, 100
2, 6151200, Note_on_c, 0, 71, 0
2, 6151200, Note_on_c, 0, 64, 100
2, 6151440, Note_on_c, 0, 64, 0
2, 6151440, Note_on_c, 0, 57, 100
2, 6152160, Note_on_c, 0, 57, 0
2, 6152160, Note_on_c, 0, 62, 100
2, 6152400, Note_on_c, 0, 62, 0
2, 6152400, Note_on_c, 0, 60, 100
2, 6152640, Note_on_c, 0, 60, 0
2, 6152640, Note_on_c, 0, 57, 100
2, 6153000, Note_on_c, 0, 57, 0
2, 6153000, Note_on_c, 0, 59, 100
2, 6153120, Note_on_c, 0, 59, 0
2, 6153120, Note_on_c, 0, 74, 100
2, 6154560, Note_on_c, 0, 74, 0
2, 6154560, Note_on_c, 0, 71, 100
2, 6154800, Note_on_c, 0, 71, 0
2, 6154800, Note_on_c, 0, 67, 100
2, 6155040, Note_on_c, 0, 67, 0
2, 6155040, Note_on_c, 0, 69, 100
2, 6155280, Note_on_c, 0, 69, 0
2, 6155280, Note_on_c, 0, 72, 100
2, 6155520, Note_on_c, 0, 72, 0
2, 6155520, Note_on_c, 0, 66, 100
2, 6155760, Note_on_c, 0, 66, 0
2, 6155760, Note_on_c, 0, 71, 100
2, 6156720, Note_on_c, 0, 71, 0
2, 6156720, Note_on_c, 0, 67, 100
2, 6156960, Note_on_c, 0, 67, 0
2, 6156960, Note_on_c, 0, 64, 100
2, 6157200, Note_on_c, 0, 64, 0
2, 6157200, Note_on_c, 0, 66, 100
2, 6157440, Note_on_c, 0, 66, 0
2, 6157440, Note_on_c, 0, 67, 100
2, 6157680, Note_on_c, 0, 67, 0
2, 6157680, Note_on_c, 0, 66, 100
2, 6157920, Note_on_c, 0, 66, 0
2, 6157920, Note_on_c, 0, 64, 100
2, 6158640, Note_on_c, 0, 64, 0
2, 6158640, Note_on_c, 0, 69, 100
2, 6159600, Note_on_c, 0, 69, 0
2, 6159600, Note_on_c, 0, 72, 100
2, 6159840, Note_on_c, 0, 72, 0
2, 6159840, Note_on_c, 0, 66, 100
2, 6160080, Note_on_c, 0, 66, 0
2, 6160080, Note_on_c, 0, 67, 100
2, 6160320, Note_on_c, 0, 67, 0
2, 6160320, Note_on_c, 0, 71, 100
2, 6160560, Note_on_c, 0, 71, 0
2, 6160560, Note_on_c, 0, 64, 100
2, 6160800, Note_on_c, 0, 64, 0
2, 6160800, Note_on_c, 0, 69, 100
2, 6161040, Note_on_c, 0, 69, 0
2, 6161040, Note_on_c, 0, 66, 100
2, 6161760, Note_on_c, 0, 66, 0
2, 6161760, Note_on_c, 0, 69, 100
2, 6162000, Note_on_c, 0, 69, 0
2, 6162000, Note_on_c, 0, 67, 100
2, 6162480, Note_on_c, 0, 67, 0
2, 6162480, Note_on_c, 0, 71, 100
2, 6162720, Note_on_c, 0, 71, 0
2, 6162720, Note_on_c, 0, 64, 100
2, 6162960, Note_on_c, 0, 64, 0
2, 6162960, Note_on_c, 0, 57, 100
2, 6163680, Note_on_c, 0, 57, 0
2, 6163680, Note_on_c, 0, 62, 100
2, 6163920, Note_on_c, 0, 62, 0
2, 6163920, Note_on_c, 0, 60, 100
2, 6164160, Note_on_c, 0, 60, 0
2, 6164160, Note_on_c, 0, 57, 100
2, 6164520, Note_on_c, 0, 57, 0
2, 6164520, Note_on_c, 0, 59, 100
2, 6164640, Note_on_c, 0, 59, 0
2, 6164640, Note_on_c, 0, 62, 100
2, 6165240, Note_on_c, 0, 62, 0
2, 6165240, Note_on_c, 0, 64, 100
2, 6165360, Note_on_c, 0, 64, 0
2, 6165360, Note_on_c, 0, 66, 100
2, 6165480, Note_on_c, 0, 66, 0
2, 6165480, Note_on_c, 0, 67, 100
2, 6165600, Note_on_c, 0, 67, 0
2, 6165600, Note_on_c, 0, 66, 100
2, 6165720, Note_on_c, 0, 66, 0
2, 6165720, Note_on_c, 0, 67, 100
2, 6165840, Note_on_c, 0, 67, 0
2, 6165840, Note_on_c, 0, 69, 100
2, 6165960, Note_on_c, 0, 69, 0
2, 6165960, Note_on_c, 0, 71, 100
2, 6166080, Note_on_c, 0, 71, 0
2, 6166080, Note_on_c, 0, 69, 100
2, 6166200, Note_on_c, 0, 69, 0
2, 6166200, Note_on_c, 0, 67, 100
2, 6166320, Note_on_c, 0, 67, 0
2, 6166320, Note_on_c, 0, 71, 100
2, 6166440, Note_on_c, 0, 71, 0
2, 6166440, Note_on_c, 0, 69, 100
2, 6166560, Note_on_c, 0, 69, 0
2, 6166560, Note_on_c, 0, 67, 100
2, 6166680, Note_on_c, 0, 67, 0
2, 6166680, Note_on_c, 0, 66, 100
2, 6166800, Note_on_c, 0, 66, 0
2, 6166800, Note_on_c, 0, 64, 100
2, 6166920, Note_on_c, 0, 64, 0
2, 6166920, Note_on_c, 0, 62, 100
2, 6167040, Note_on_c, 0, 62, 0
2, 6167040, Note_on_c, 0, 64, 100
2, 6167160, Note_on_c, 0, 64, 0
2, 6167160, Note_on_c, 0, 66, 100
2, 6167280, Note_on_c, 0, 66, 0
2, 6167280, Note_on_c, 0, 67, 100
2, 6167400, Note_on_c, 0, 67, 0
2, 6167400, Note_on_c, 0, 69, 100
2, 6167520, Note_on_c, 0, 69, 0
2, 6167520, Note_on_c, 0, 66, 100
2, 6167640, Note_on_c, 0, 66, 0
2, 6167640, Note_on_c, 0, 64, 100
2, 6167760, Note_on_c, 0, 64, 0
2, 6167760, Note_on_c, 0, 62, 100
2, 6167880, Note_on_c, 0, 62, 0
2, 6167880, Note_on_c, 0, 67, 100
2, 6168000, Note_on_c, 0, 67, 0
2, 6168000, Note_on_c, 0, 66, 100
2, 6168120, Note_on_c, 0, 66, 0
2, 6168120, Note_on_c, 0, 64, 100
2, 6168240, Note_on_c, 0, 64, 0
2, 6168240, Note_on_c, 0, 62, 100
2, 6168360, Note_on_c, 0, 62, 0
2, 6168360, Note_on_c, 0, 61, 100
2, 6168480, Note_on_c, 0, 61, 0
2, 6168480, Note_on_c, 0, 62, 100
2, 6168600, Note_on_c, 0, 62, 0
2, 6168600, Note_on_c, 0, 64, 100
2, 6168720, Note_on_c, 0, 64, 0
2, 6168720, Note_on_c, 0, 66, 100
2, 6168840, Note_on_c, 0, 66, 0
2, 6168840, Note_on_c, 0, 67, 100
2, 6168960, Note_on_c, 0, 67, 0
2, 6168960, Note_on_c, 0, 71, 100
2, 6169080, Note_on_c, 0, 71, 0
2, 6169080, Note_on_c, 0, 69, 100
2, 6169200, Note_on_c, 0, 69, 0
2, 6169200, Note_on_c, 0, 67, 100
2, 6169320, Note_on_c, 0, 67, 0
2, 6169320, Note_on_c, 0, 66, 100
2, 6169440, Note_on_c, 0, 66, 0
2, 6169440, Note_on_c, 0, 64, 100
2, 6169560, Note_on_c, 0, 64, 0
2, 6169560, Note_on_c, 0, 62, 100
2, 6169680, Note_on_c, 0, 62, 0
2, 6169680, Note_on_c, 0, 61, 100
2, 6169800, Note_on_c, 0, 61, 0
2, 6169800, Note_on_c, 0, 62, 100
2, 6169920, Note_on_c, 0, 62, 0
2, 6169920, Note_on_c, 0, 57, 100
2, 6170040, Note_on_c, 0, 57, 0
2, 6170040, Note_on_c, 0, 62, 100
2, 6170160, Note_on_c, 0, 62, 0
2, 6170160, Note_on_c, 0, 64, 100
2, 6170280, Note_on_c, 0, 64, 0
2, 6170280, Note_on_c, 0, 66, 100
2, 6170400, Note_on_c, 0, 66, 0
2, 6170400, Note_on_c, 0, 62, 100
2, 6170520, Note_on_c, 0, 62, 0
2, 6170520, Note_on_c, 0, 66, 100
2, 6170640, Note_on_c, 0, 66, 0
2, 6170640, Note_on_c, 0, 69, 100
2, 6170760, Note_on_c, 0, 69, 0
2, 6170760, Note_on_c, 0, 74, 100
2, 6170880, Note_on_c, 0, 74, 0
2, 6170880, Note_on_c, 0, 71, 100
2, 6171000, Note_on_c, 0, 71, 0
2, 6171000, Note_on_c, 0, 69, 100
2, 6171120, Note_on_c, 0, 69, 0
2, 6171120, Note_on_c, 0, 71, 100
2, 6171240, Note_on_c, 0, 71, 0
2, 6171240, Note_on_c, 0, 67, 100
2, 6171360, Note_on_c, 0, 67, 0
2, 6171360, Note_on_c, 0, 71, 100
2, 6171480, Note_on_c, 0, 71, 0
2, 6171480, Note_on_c, 0, 69, 100
2, 6171600, Note_on_c, 0, 69, 0
2, 6171600, Note_on_c, 0, 71, 100
2, 6171720, Note_on_c, 0, 71, 0
2, 6171720, Note_on_c, 0, 62, 100
2, 6171840, Note_on_c, 0, 62, 0
2, 6171840, Note_on_c, 0, 67, 100
2, 6171960, Note_on_c, 0, 67, 0
2, 6171960, Note_on_c, 0, 66, 100
2, 6172080, Note_on_c, 0, 66, 0
2, 6172080, Note_on_c, 0, 67, 100
2, 6172200, Note_on_c, 0, 67, 0
2, 6172200, Note_on_c, 0, 64, 100
2, 6172320, Note_on_c, 0, 64, 0
2, 6172320, Note_on_c, 0, 67, 100
2, 6172440, Note_on_c, 0, 67, 0
2, 6172440, Note_on_c, 0, 62, 100
2, 6172560, Note_on_c, 0, 62, 0
2, 6172560, Note_on_c, 0, 67, 100
2, 6172680, Note_on_c, 0, 67, 0
2, 6172680, Note_on_c, 0, 60, 100
2, 6172800, Note_on_c, 0, 60, 0
2, 6172800, Note_on_c, 0, 67, 100
2, 6172920, Note_on_c, 0, 67, 0
2, 6172920, Note_on_c, 0, 59, 100
2, 6173040, Note_on_c, 0, 59, 0
2, 6173040, Note_on_c, 0, 67, 100
2, 6173160, Note_on_c, 0, 67, 0
2, 6173160, Note_on_c, 0, 57, 100
2, 6173280, Note_on_c, 0, 57, 0
2, 6173280, Note_on_c, 0, 67, 100
2, 6173400, Note_on_c, 0, 67, 0
2, 6173400, Note_on_c, 0, 59, 100
2, 6173520, Note_on_c, 0, 59, 0
2, 6173520, Note_on_c, 0, 67, 100
2, 6173640, Note_on_c, 0, 67, 0
2, 6173640, Note_on_c, 0, 60, 100
2, 6173760, Note_on_c, 0, 60, 0
2, 6173760, Note_on_c, 0, 67, 100
2, 6173880, Note_on_c, 0, 67, 0
2, 6173880, Note_on_c, 0, 59, 100
2, 6174000, Note_on_c, 0, 59, 0
2, 6174000, Note_on_c, 0, 67, 100
2, 6174120, Note_on_c, 0, 67, 0
2, 6174120, Note_on_c, 0, 60, 100
2, 6174240, Note_on_c, 0, 60, 0
2, 6174240, Note_on_c, 0, 66, 100
2, 6174360, Note_on_c, 0, 66, 0
2, 6174360, Note_on_c, 0, 64, 100
2, 6174480, Note_on_c, 0, 64, 0
2, 6174480, Note_on_c, 0, 66, 100
2, 6174600, Note_on_c, 0, 66, 0
2, 6174600, Note_on_c, 0, 62, 100
2, 6174720, Note_on_c, 0, 62, 0
2, 6174720, Note_on_c, 0, 66, 100
2, 6174840, Note_on_c, 0, 66, 0
2, 6174840, Note_on_c, 0, 60, 100
2, 6174960, Note_on_c, 0, 60, 0
2, 6174960, Note_on_c, 0, 66, 100
2, 6175080, Note_on_c, 0, 66, 0
2, 6175080, Note_on_c, 0, 59, 100
2, 6175200, Note_on_c, 0, 59, 0
2, 6175200, Note_on_c, 0, 67, 100
2, 6175320, Note_on_c, 0, 67, 0
2, 6175320, Note_on_c, 0, 66, 100
2, 6175440, Note_on_c, 0, 66, 0
2, 6175440, Note_on_c, 0, 64, 100
2, 6175560, Note_on_c, 0, 64, 0
2, 6175560, Note_on_c, 0, 62, 100
2, 6175680, Note_on_c, 0, 62, 0
2, 6175680, Note_on_c, 0, 60, 100
2, 6175800, Note_on_c, 0, 60, 0
2, 6175800, Note_on_c, 0, 59, 100
2, 6175920, Note_on_c, 0, 59, 0
2, 6175920, Note_on_c, 0, 57, 100
2, 6176040, Note_on_c, 0, 57, 0
2, 6176040, Note_on_c, 0, 55, 100
2, 6176160, Note_on_c, 0, 55, 0
2, 6176160, Note_on_c, 0, 83, 100
2, 6176640, Note_on_c, 0, 83, 0
2, 6176640, Note_on_c, 0, 67, 100
2, 6177120, Note_on_c, 0, 67, 0
2, 6177120, Note_on_c, 0, 83, 100
2, 6177600, Note_on_c, 0, 83, 0
2, 6177600, Note_on_c, 0, 81, 100
2, 6178080, Note_on_c, 0, 81, 0
2, 6178080, Note_on_c, 0, 66, 100
2, 6178560, Note_on_c, 0, 66, 0
2, 6178560, Note_on_c, 0, 81, 100
2, 6179040, Note_on_c, 0, 81, 0
2, 6179040, Note_on_c, 0, 79, 100
2, 6179520, Note_on_c, 0, 79, 0
2, 6179520, Note_on_c, 0, 78, 100
2, 6179640, Note_on_c, 0, 78, 0
2, 6179640, Note_on_c, 0, 76, 100
2, 6179760, Note_on_c, 0, 76, 0
2, 6179760, Note_on_c, 0, 75, 100
2, 6179880, Note_on_c, 0, 75, 0
2, 6179880, Note_on_c, 0, 76, 100
2, 6180000, Note_on_c, 0, 76, 0
2, 6180000, Note_on_c, 0, 79, 100
2, 6180120, Note_on_c, 0, 79, 0
2, 6180120, Note_on_c, 0, 74, 100
2, 6180240, Note_on_c, 0, 74, 0
2, 6180240, Note_on_c, 0, 79, 100
2, 6180360, Note_on_c, 0, 79, 0
2, 6180360, Note_on_c, 0, 73, 100
2, 6180480, Note_on_c, 0, 73, 0
2, 6180480, Note_on_c, 0, 79, 100
2, 6180600, Note_on_c, 0, 79, 0
2, 6180600, Note_on_c, 0, 71, 100
2, 6180720, Note_on_c, 0, 71, 0
2, 6180720, Note_on_c, 0, 79, 100
2, 6180840, Note_on_c, 0, 79, 0
2, 6180840, Note_on_c, 0, 73, 100
2, 6180960, Note_on_c, 0, 73, 0
2, 6180960, Note_on_c, 0, 79, 100
2, 6181080, Note_on_c, 0, 79, 0
2, 6181080, Note_on_c, 0, 76, 100
2, 6181200, Note_on_c, 0, 76, 0
2, 6181200, Note_on_c, 0, 79, 100
2, 6181320, Note_on_c, 0, 79, 0
2, 6181320, Note_on_c, 0, 69, 100
2, 6181440, Note_on_c, 0, 69, 0
2, 6181440, Note_on_c, 0, 79, 100
2, 6181680, Note_on_c, 0, 79, 0
2, 6181680, Note_on_c, 0, 78, 100
2, 6181920, Note_on_c, 0, 78, 0
2, 6181920, Note_on_c, 0, 81, 100
2, 6182160, Note_on_c, 0, 81, 0
2, 6182160, Note_on_c, 0, 79, 100
2, 6182220, Note_on_c, 0, 79, 0
2, 6182220, Note_on_c, 0, 78, 100
2, 6182280, Note_on_c, 0, 78, 0
2, 6182280, Note_on_c, 0, 79, 100
2, 6182340, Note_on_c, 0, 79, 0
2, 6182340, Note_on_c, 0, 81, 100
2, 6182400, Note_on_c, 0, 81, 0
2, 6182400, Note_on_c, 0, 64, 100
2, 6182640, Note_on_c, 0, 64, 0
2, 6182640, Note_on_c, 0, 66, 100
2, 6182880, Note_on_c, 0, 66, 0
2, 6182880, Note_on_c, 0, 78, 100
2, 6183120, Note_on_c, 0, 78, 0
2, 6183120, Note_on_c, 0, 79, 100
2, 6183360, Note_on_c, 0, 79, 0
2, 6183360, Note_on_c, 0, 81, 100
2, 6183600, Note_on_c, 0, 81, 0
2, 6183600, Note_on_c, 0, 83, 100
2, 6183840, Note_on_c, 0, 83, 0
2, 6183840, Note_on_c, 0, 66, 100
2, 6184080, Note_on_c, 0, 66, 0
2, 6184080, Note_on_c, 0, 64, 100
2, 6184320, Note_on_c, 0, 64, 0
2, 6184320, Note_on_c, 0, 79, 100
2, 6184560, Note_on_c, 0, 79, 0
2, 6184560, Note_on_c, 0, 81, 100
2, 6184800, Note_on_c, 0, 81, 0
2, 6184800, Note_on_c, 0, 83, 100
2, 6185040, Note_on_c, 0, 83, 0
2, 6185040, Note_on_c, 0, 76, 100
2, 6185280, Note_on_c, 0, 76, 0
2, 6185280, Note_on_c, 0, 67, 100
2, 6185520, Note_on_c, 0, 67, 0
2, 6185520, Note_on_c, 0, 57, 100
2, 6185760, Note_on_c, 0, 57, 0
2, 6185760, Note_on_c, 0, 64, 100
2, 6186000, Note_on_c, 0, 64, 0
2, 6186000, Note_on_c, 0, 61, 100
2, 6186240, Note_on_c, 0, 61, 0
2, 6186240, Note_on_c, 0, 57, 100
2, 6186480, Note_on_c, 0, 57, 0
2, 6186480, Note_on_c, 0, 50, 100
2, 6186720, Note_on_c, 0, 50, 0
2, 6186720, Note_on_c, 0, 62, 100
2, 6186960, Note_on_c, 0, 62, 0
2, 6186960, Note_on_c, 0, 66, 100
2, 6187200, Note_on_c, 0, 66, 0
2, 6187200, Note_on_c, 0, 69, 100
2, 6187440, Note_on_c, 0, 69, 0
2, 6187440, Note_on_c, 0, 74, 100
2, 6187680, Note_on_c, 0, 74, 0
2, 6187680, Note_on_c, 0, 62, 100
2, 6188280, Note_on_c, 0, 62, 0
2, 6188280, Note_on_c, 0, 64, 100
2, 6188400, Note_on_c, 0, 64, 0
2, 6188400, Note_on_c, 0, 66, 100
2, 6188520, Note_on_c, 0, 66, 0
2, 6188520, Note_on_c, 0, 67, 100
2, 6188640, Note_on_c, 0, 67, 0
2, 6188640, Note_on_c, 0, 66, 100
2, 6188760, Note_on_c, 0, 66, 0
2, 6188760, Note_on_c, 0, 67, 100
2, 6188880, Note_on_c, 0, 67, 0
2, 6188880, Note_on_c, 0, 69, 100
2, 6189000, Note_on_c, 0, 69, 0
2, 6189000, Note_on_c, 0, 71, 100
2, 6189120, Note_on_c, 0, 71, 0
2, 6189120, Note_on_c, 0, 69, 100
2, 6189240, Note_on_c, 0, 69, 0
2, 6189240, Note_on_c, 0, 67, 100
2, 6189360, Note_on_c, 0, 67, 0
2, 6189360, Note_on_c, 0, 71, 100
2, 6189480, Note_on_c, 0, 71, 0
2, 6189480, Note_on_c, 0, 69, 100
2, 6189600, Note_on_c, 0, 69, 0
2, 6189600, Note_on_c, 0, 67, 100
2, 6189720, Note_on_c, 0, 67, 0
2, 6189720, Note_on_c, 0, 66, 100
2, 6189840, Note_on_c, 0, 66, 0
2, 6189840, Note_on_c, 0, 64, 100
2, 6189960, Note_on_c, 0, 64, 0
2, 6189960, Note_on_c, 0, 62, 100
2, 6190080, Note_on_c, 0, 62, 0
2, 6190080, Note_on_c, 0, 64, 100
2, 6190200, Note_on_c, 0, 64, 0
2, 6190200, Note_on_c, 0, 66, 100
2, 6190320, Note_on_c, 0, 66, 0
2, 6190320, Note_on_c, 0, 67, 100
2, 6190440, Note_on_c, 0, 67, 0
2, 6190440, Note_on_c, 0, 69, 100
2, 6190560, Note_on_c, 0, 69, 0
2, 6190560, Note_on_c, 0, 66, 100
2, 6190680, Note_on_c, 0, 66, 0
2, 6190680, Note_on_c, 0, 64, 100
2, 6190800, Note_on_c, 0, 64, 0
2, 6190800, Note_on_c, 0, 62, 100
2, 6190920, Note_on_c, 0, 62, 0
2, 6190920, Note_on_c, 0, 67, 100
2, 6191040, Note_on_c, 0, 67, 0
2, 6191040, Note_on_c, 0, 66, 100
2, 6191160, Note_on_c, 0, 66, 0
2, 6191160, Note_on_c, 0, 64, 100
2, 6191280, Note_on_c, 0, 64, 0
2, 6191280, Note_on_c, 0, 62, 100
2, 6191400, Note_on_c, 0, 62, 0
2, 6191400, Note_on_c, 0, 61, 100
2, 6191520, Note_on_c, 0, 61, 0
2, 6191520, Note_on_c, 0, 62, 100
2, 6191640, Note_on_c, 0, 62, 0
2, 6191640, Note_on_c, 0, 64, 100
2, 6191760, Note_on_c, 0, 64, 0
2, 6191760, Note_on_c, 0, 66, 100
2, 6191880, Note_on_c, 0, 66, 0
2, 6191880, Note_on_c, 0, 67, 100
2, 6192000, Note_on_c, 0, 67, 0
2, 6192000, Note_on_c, 0, 71, 100
2, 6192120, Note_on_c, 0, 71, 0
2, 6192120, Note_on_c, 0, 69, 100
2, 6192240, Note_on_c, 0, 69, 0
2, 6192240, Note_on_c, 0, 67, 100
2, 6192360, Note_on_c, 0, 67, 0
2, 6192360, Note_on_c, 0, 66, 100
2, 6192480, Note_on_c, 0, 66, 0
2, 6192480, Note_on_c, 0, 64, 100
2, 6192600, Note_on_c, 0, 64, 0
2, 6192600, Note_on_c, 0, 62, 100
2, 6192720, Note_on_c, 0, 62, 0
2, 6192720, Note_on_c, 0, 61, 100
2, 6192840, Note_on_c, 0, 61, 0
2, 6192840, Note_on_c, 0, 62, 100
2, 6192960, Note_on_c, 0, 62, 0
2, 6192960, Note_on_c, 0, 57, 100
2, 6193080, Note_on_c, 0, 57, 0
2, 6193080, Note_on_c, 0, 62, 100
2, 6193200, Note_on_c, 0, 62, 0
2, 6193200, Note_on_c, 0, 64, 100
2, 6193320, Note_on_c, 0, 64, 0
2, 6193320, Note_on_c, 0, 66, 100
2, 6193440, Note_on_c, 0, 66, 0
2, 6193440, Note_on_c, 0, 62, 100
2, 6193560, Note_on_c, 0, 62, 0
2, 6193560, Note_on_c, 0, 66, 100
2, 6193680, Note_on_c, 0, 66, 0
2, 6193680, Note_on_c, 0, 69, 100
2, 6193800, Note_on_c, 0, 69, 0
2, 6193800, Note_on_c, 0, 74, 100
2, 6193920, Note_on_c, 0, 74, 0
2, 6193920, Note_on_c, 0, 71, 100
2, 6194040, Note_on_c, 0, 71, 0
2, 6194040, Note_on_c, 0, 69, 100
2, 6194160, Note_on_c, 0, 69, 0
2, 6194160, Note_on_c, 0, 71, 100
2, 6194280, Note_on_c, 0, 71, 0
2, 6194280, Note_on_c, 0, 67, 100
2, 6194400, Note_on_c, 0, 67, 0
2, 6194400, Note_on_c, 0, 71, 100
2, 6194520, Note_on_c, 0, 71, 0
2, 6194520, Note_on_c, 0, 69, 100
2, 6194640, Note_on_c, 0, 69, 0
2, 6194640, Note_on_c, 0, 71, 100
2, 6194760, Note_on_c, 0, 71, 0
2, 6194760, Note_on_c, 0, 62, 100
2, 6194880, Note_on_c, 0, 62, 0
2, 6194880, Note_on_c, 0, 67, 100
2, 6195000, Note_on_c, 0, 67, 0
2, 6195000, Note_on_c, 0, 66, 100
2, 6195120, Note_on_c, 0, 66, 0
2, 6195120, Note_on_c, 0, 67, 100
2, 6195240, Note_on_c, 0, 67, 0
2, 6195240, Note_on_c, 0, 64, 100
2, 6195360, Note_on_c, 0, 64, 0
2, 6195360, Note_on_c, 0, 67, 100
2, 6195480, Note_on_c, 0, 67, 0
2, 6195480, Note_on_c, 0, 62, 100
2, 6195600, Note_on_c, 0, 62, 0
2, 6195600, Note_on_c, 0, 67, 100
2, 6195720, Note_on_c, 0, 67, 0
2, 6195720, Note_on_c, 0, 60, 100
2, 6195840, Note_on_c, 0, 60, 0
2, 6195840, Note_on_c, 0, 67, 100
2, 6195960, Note_on_c, 0, 67, 0
2, 6195960, Note_on_c, 0, 59, 100
2, 6196080, Note_on_c, 0, 59, 0
2, 6196080, Note_on_c, 0, 67, 100
2, 6196200, Note_on_c, 0, 67, 0
2, 6196200, Note_on_c, 0, 57, 100
2, 6196320, Note_on_c, 0, 57, 0
2, 6196320, Note_on_c, 0, 67, 100
2, 6196440, Note_on_c, 0, 67, 0
2, 6196440, Note_on_c, 0, 59, 100
2, 6196560, Note_on_c, 0, 59, 0
2, 6196560, Note_on_c, 0, 67, 100
2, 6196680, Note_on_c, 0, 67, 0
2, 6196680, Note_on_c, 0, 60, 100
2, 6196800, Note_on_c, 0, 60, 0
2, 6196800, Note_on_c, 0, 67, 100
2, 6196920, Note_on_c, 0, 67, 0
2, 6196920, Note_on_c, 0, 59, 100
2, 6197040, Note_on_c, 0, 59, 0
2, 6197040, Note_on_c, 0, 67, 100
2, 6197160, Note_on_c, 0, 67, 0
2, 6197160, Note_on_c, 0, 60, 100
2, 6197280, Note_on_c, 0, 60, 0
2, 6197280, Note_on_c, 0, 66, 100
2, 6197400, Note_on_c, 0, 66, 0
2, 6197400, Note_on_c, 0, 64, 100
2, 6197520, Note_on_c, 0, 64, 0
2, 6197520, Note_on_c, 0, 66, 100
2, 6197640, Note_on_c, 0, 66, 0
2, 6197640, Note_on_c, 0, 62, 100
2, 6197760, Note_on_c, 0, 62, 0
2, 6197760, Note_on_c, 0, 66, 100
2, 6197880, Note_on_c, 0, 66, 0
2, 6197880, Note_on_c, 0, 60, 100
2, 6198000, Note_on_c, 0, 60, 0
2, 6198000, Note_on_c, 0, 66, 100
2, 6198120, Note_on_c, 0, 66, 0
2, 6198120, Note_on_c, 0, 59, 100
2, 6198240, Note_on_c, 0, 59, 0
2, 6198240, Note_on_c, 0, 67, 100
2, 6198360, Note_on_c, 0, 67, 0
2, 6198360, Note_on_c, 0, 66, 100
2, 6198480, Note_on_c, 0, 66, 0
2, 6198480, Note_on_c, 0, 64, 100
2, 6198600, Note_on_c, 0, 64, 0
2, 6198600, Note_on_c, 0, 62, 100
2, 6198720, Note_on_c, 0, 62, 0
2, 6198720, Note_on_c, 0, 60, 100
2, 6198840, Note_on_c, 0, 60, 0
2, 6198840, Note_on_c, 0, 59, 100
2, 6198960, Note_on_c, 0, 59, 0
2, 6198960, Note_on_c, 0, 57, 100
2, 6199080, Note_on_c, 0, 57, 0
2, 6199080, Note_on_c, 0, 55, 100
2, 6199200, Note_on_c, 0, 55, 0
2, 6199200, Note_on_c, 0, 83, 100
2, 6199680, Note_on_c, 0, 83, 0
2, 6199680, Note_on_c, 0, 67, 100
2, 6200160, Note_on_c, 0, 67, 0
2, 6200160, Note_on_c, 0, 83, 100
2, 6200640, Note_on_c, 0, 83, 0
2, 6200640, Note_on_c, 0, 81, 100
2, 6201120, Note_on_c, 0, 81, 0
2, 6201120, Note_on_c, 0, 66, 100
2, 6201600, Note_on_c, 0, 66, 0
2, 6201600, Note_on_c, 0, 81, 100
2, 6202080, Note_on_c, 0, 81, 0
2, 6202080, Note_on_c, 0, 79, 100
2, 6202560, Note_on_c, 0, 79, 0
2, 6202560, Note_on_c, 0, 78, 100
2, 6202680, Note_on_c, 0, 78, 0
2, 6202680, Note_on_c, 0, 76, 100
2, 6202800, Note_on_c, 0, 76, 0
2, 6202800, Note_on_c, 0, 75, 100
2, 6202920, Note_on_c, 0, 75, 0
2, 6202920, Note_on_c, 0, 76, 100
2, 6203040, Note_on_c, 0, 76, 0
2, 6203040, Note_on_c, 0, 79, 100
2, 6203160, Note_on_c, 0, 79, 0
2, 6203160, Note_on_c, 0, 74, 100
2, 6203280, Note_on_c, 0, 74, 0
2, 6203280, Note_on_c, 0, 79, 100
2, 6203400, Note_on_c, 0, 79, 0
2, 6203400, Note_on_c, 0, 73, 100
2, 6203520, Note_on_c, 0, 73, 0
2, 6203520, Note_on_c, 0, 79, 100
2, 6203640, Note_on_c, 0, 79, 0
2, 6203640, Note_on_c, 0, 71, 100
2, 6203760, Note_on_c, 0, 71, 0
2, 6203760, Note_on_c, 0, 79, 100
2, 6203880, Note_on_c, 0, 79, 0
2, 6203880, Note_on_c, 0, 73, 100
2, 6204000, Note_on_c, 0, 73, 0
2, 6204000, Note_on_c, 0, 79, 100
2, 6204120, Note_on_c, 0, 79, 0
2, 6204120, Note_on_c, 0, 76, 100
2, 6204240, Note_on_c, 0, 76, 0
2, 6204240, Note_on_c, 0, 79, 100
2, 6204360, Note_on_c, 0, 79, 0
2, 6204360, Note_on_c, 0, 69, 100
2, 6204480, Note_on_c, 0, 69, 0
2, 6204480, Note_on_c, 0, 79, 100
2, 6204720, Note_on_c, 0, 79, 0
2, 6204720, Note_on_c, 0, 78, 100
2, 6204960, Note_on_c, 0, 78, 0
2, 6204960, Note_on_c, 0, 81, 100
2, 6205200, Note_on_c, 0, 81, 0
2, 6205200, Note_on_c, 0, 79, 100
2, 6205260, Note_on_c, 0, 79, 0
2, 6205260, Note_on_c, 0, 78, 100
2, 6205320, Note_on_c, 0, 78, 0
2, 6205320, Note_on_c, 0, 79, 100
2, 6205380, Note_on_c, 0, 79, 0
2, 6205380, Note_on_c, 0, 81, 100
2, 6205440, Note_on_c, 0, 81, 0
2, 6205440, Note_on_c, 0, 64, 100
2, 6205680, Note_on_c, 0, 64, 0
2, 6205680, Note_on_c, 0, 66, 100
2, 6205920, Note_on_c, 0, 66, 0
2, 6205920, Note_on_c, 0, 78, 100
2, 6206160, Note_on_c, 0, 78, 0
2, 6206160, Note_on_c, 0, 79, 100
2, 6206400, Note_on_c, 0, 79, 0
2, 6206400, Note_on_c, 0, 81, 100
2, 6206640, Note_on_c, 0, 81, 0
2, 6206640, Note_on_c, 0, 83, 100
2, 6206880, Note_on_c, 0, 83, 0
2, 6206880, Note_on_c, 0, 66, 100
2, 6207120, Note_on_c, 0, 66, 0
2, 6207120, Note_on_c, 0, 64, 100
2, 6207360, Note_on_c, 0, 64, 0
2, 6207360, Note_on_c, 0, 79, 100
2, 6207600, Note_on_c, 0, 79, 0
2, 6207600, Note_on_c, 0, 81, 100
2, 6207840, Note_on_c, 0, 81, 0
2, 6207840, Note_on_c, 0, 83, 100
2, 6208080, Note_on_c, 0, 83, 0
2, 6208080, Note_on_c, 0, 76, 100
2, 6208320, Note_on_c, 0, 76, 0
2, 6208320, Note_on_c, 0, 67, 100
2, 6208560, Note_on_c, 0, 67, 0
2, 6208560, Note_on_c, 0, 57, 100
2, 6208800, Note_on_c, 0, 57, 0
2, 6208800, Note_on_c, 0, 64, 100
2, 6209040, Note_on_c, 0, 64, 0
2, 6209040, Note_on_c, 0, 61, 100
2, 6209280, Note_on_c, 0, 61, 0
2, 6209280, Note_on_c, 0, 57, 100
2, 6209520, Note_on_c, 0, 57, 0
2, 6209520, Note_on_c, 0, 50, 100
2, 6209760, Note_on_c, 0, 50, 0
2, 6209760, Note_on_c, 0, 62, 100
2, 6210000, Note_on_c, 0, 62, 0
2, 6210000, Note_on_c, 0, 66, 100
2, 6210240, Note_on_c, 0, 66, 0
2, 6210240, Note_on_c, 0, 69, 100
2, 6210480, Note_on_c, 0, 69, 0
2, 6210480, Note_on_c, 0, 74, 100
2, 6210720, Note_on_c, 0, 74, 0
2, 6210720, Note_on_c, 0, 78, 100
2, 6211200, Note_on_c, 0, 78, 0
2, 6211200, Note_on_c, 0, 62, 100
2, 6211680, Note_on_c, 0, 62, 0
2, 6211680, Note_on_c, 0, 79, 100
2, 6212160, Note_on_c, 0, 79, 0
2, 6212160, Note_on_c, 0, 78, 100
2, 6212220, Note_on_c, 0, 78, 0
2, 6212220, Note_on_c, 0, 76, 100
2, 6212280, Note_on_c, 0, 76, 0
2, 6212280, Note_on_c, 0, 78, 100
2, 6212340, Note_on_c, 0, 78, 0
2, 6212340, Note_on_c, 0, 76, 100
2, 6212400, Note_on_c, 0, 76, 0
2, 6212400, Note_on_c, 0, 78, 100
2, 6212460, Note_on_c, 0, 78, 0
2, 6212460, Note_on_c, 0, 76, 100
2, 6212520, Note_on_c, 0, 76, 0
2, 6212520, Note_on_c, 0, 78, 100
2, 6212580, Note_on_c, 0, 78, 0
2, 6212580, Note_on_c, 0, 79, 100
2, 6212640, Note_on_c, 0, 79, 0
2, 6212640, Note_on_c, 0, 74, 100
2, 6212880, Note_on_c, 0, 74, 0
2, 6212880, Note_on_c, 0, 79, 100
2, 6213000, Note_on_c, 0, 79, 0
2, 6213000, Note_on_c, 0, 81, 100
2, 6213120, Note_on_c, 0, 81, 0
2, 6213120, Note_on_c, 0, 74, 100
2, 6213360, Note_on_c, 0, 74, 0
2, 6213360, Note_on_c, 0, 81, 100
2, 6213480, Note_on_c, 0, 81, 0
2, 6213480, Note_on_c, 0, 83, 100
2, 6213600, Note_on_c, 0, 83, 0
2, 6213600, Note_on_c, 0, 79, 100
2, 6213840, Note_on_c, 0, 79, 0
2, 6213840, Note_on_c, 0, 76, 100
2, 6214080, Note_on_c, 0, 76, 0
2, 6214080, Note_on_c, 0, 72, 100
2, 6214320, Note_on_c, 0, 72, 0
2, 6214320, Note_on_c, 0, 69, 100
2, 6214560, Note_on_c, 0, 69, 0
2, 6214560, Note_on_c, 0, 79, 100
2, 6214800, Note_on_c, 0, 79, 0
2, 6214800, Note_on_c, 0, 78, 100
2, 6215040, Note_on_c, 0, 78, 0
2, 6215040, Note_on_c, 0, 76, 100
2, 6215100, Note_on_c, 0, 76, 0
2, 6215100, Note_on_c, 0, 75, 100
2, 6215160, Note_on_c, 0, 75, 0
2, 6215160, Note_on_c, 0, 76, 100
2, 6215760, Note_on_c, 0, 76, 0
2, 6215760, Note_on_c, 0, 75, 100
2, 6215800, Note_on_c, 0, 75, 0
2, 6215800, Note_on_c, 0, 76, 100
2, 6215840, Note_on_c, 0, 76, 0
2, 6215840, Note_on_c, 0, 75, 100
2, 6215880, Note_on_c, 0, 75, 0
2, 6215880, Note_on_c, 0, 57, 100
2, 6216480, Note_on_c, 0, 57, 0
2, 6216480, Note_on_c, 0, 55, 100
2, 6216520, Note_on_c, 0, 55, 0
2, 6216520, Note_on_c, 0, 57, 100
2, 6216560, Note_on_c, 0, 57, 0
2, 6216560, Note_on_c, 0, 55, 100
2, 6216600, Note_on_c, 0, 55, 0
2, 6216600, Note_on_c, 0, 54, 100
2, 6216720, Note_on_c, 0, 54, 0
2, 6216720, Note_on_c, 0, 52, 100
2, 6216960, Note_on_c, 0, 52, 0
2, 6216960, Note_on_c, 0, 76, 100
2, 6217440, Note_on_c, 0, 76, 0
2, 6217440, Note_on_c, 0, 50, 100
2, 6217920, Note_on_c, 0, 50, 0
2, 6217920, Note_on_c, 0, 48, 100
2, 6217980, Note_on_c, 0, 48, 0
2, 6217980, Note_on_c, 0, 50, 100
2, 6218040, Note_on_c, 0, 50, 0
2, 6218040, Note_on_c, 0, 48, 100
2, 6218400, Note_on_c, 0, 48, 0
2, 6218400, Note_on_c, 0, 76, 100
2, 6218880, Note_on_c, 0, 76, 0
2, 6218880, Note_on_c, 0, 45, 100
2, 6219360, Note_on_c, 0, 45, 0
2, 6219360, Note_on_c, 0, 43, 100
2, 6219420, Note_on_c, 0, 43, 0
2, 6219420, Note_on_c, 0, 45, 100
2, 6219480, Note_on_c, 0, 45, 0
2, 6219480, Note_on_c, 0, 47, 100
2, 6219840, Note_on_c, 0, 47, 0
2, 6219840, Note_on_c, 0, 79, 100
2, 6220320, Note_on_c, 0, 79, 0
2, 6220320, Note_on_c, 0, 78, 100
2, 6220560, Note_on_c, 0, 78, 0
2, 6220560, Note_on_c, 0, 76, 100
2, 6220800, Note_on_c, 0, 76, 0
2, 6220800, Note_on_c, 0, 75, 100
2, 6221040, Note_on_c, 0, 75, 0
2, 6221040, Note_on_c, 0, 76, 100
2, 6221280, Note_on_c, 0, 76, 0
2, 6221280, Note_on_c, 0, 52, 100
2, 6221760, Note_on_c, 0, 52, 0
2, 6221760, Note_on_c, 0, 50, 100
2, 6222360, Note_on_c, 0, 50, 0
2, 6222360, Note_on_c, 0, 48, 100
2, 6222480, Note_on_c, 0, 48, 0
2, 6222480, Note_on_c, 0, 47, 100
2, 6222600, Note_on_c, 0, 47, 0
2, 6222600, Note_on_c, 0, 48, 100
2, 6222720, Note_on_c, 0, 48, 0
2, 6222720, Note_on_c, 0, 52, 100
2, 6222840, Note_on_c, 0, 52, 0
2, 6222840, Note_on_c, 0, 50, 100
2, 6222960, Note_on_c, 0, 50, 0
2, 6222960, Note_on_c, 0, 52, 100
2, 6223080, Note_on_c, 0, 52, 0
2, 6223080, Note_on_c, 0, 57, 100
2, 6223200, Note_on_c, 0, 57, 0
2, 6223200, Note_on_c, 0, 52, 100
2, 6223320, Note_on_c, 0, 52, 0
2, 6223320, Note_on_c, 0, 50, 100
2, 6223440, Note_on_c, 0, 50, 0
2, 6223440, Note_on_c, 0, 52, 100
2, 6223560, Note_on_c, 0, 52, 0
2, 6223560, Note_on_c, 0, 60, 100
2, 6223680, Note_on_c, 0, 60, 0
2, 6223680, Note_on_c, 0, 57, 100
2, 6223800, Note_on_c, 0, 57, 0
2, 6223800, Note_on_c, 0, 55, 100
2, 6223920, Note_on_c, 0, 55, 0
2, 6223920, Note_on_c, 0, 57, 100
2, 6224040, Note_on_c, 0, 57, 0
2, 6224040, Note_on_c, 0, 66, 100
2, 6224160, Note_on_c, 0, 66, 0
2, 6224160, Note_on_c, 0, 57, 100
2, 6224280, Note_on_c, 0, 57, 0
2, 6224280, Note_on_c, 0, 55, 100
2, 6224400, Note_on_c, 0, 55, 0
2, 6224400, Note_on_c, 0, 57, 100
2, 6224520, Note_on_c, 0, 57, 0
2, 6224520, Note_on_c, 0, 67, 100
2, 6224640, Note_on_c, 0, 67, 0
2, 6224640, Note_on_c, 0, 62, 100
2, 6224760, Note_on_c, 0, 62, 0
2, 6224760, Note_on_c, 0, 60, 100
2, 6224880, Note_on_c, 0, 60, 0
2, 6224880, Note_on_c, 0, 62, 100
2, 6225000, Note_on_c, 0, 62, 0
2, 6225000, Note_on_c, 0, 71, 100
2, 6225120, Note_on_c, 0, 71, 0
2, 6225120, Note_on_c, 0, 67, 100
2, 6225240, Note_on_c, 0, 67, 0
2, 6225240, Note_on_c, 0, 66, 100
2, 6225360, Note_on_c, 0, 66, 0
2, 6225360, Note_on_c, 0, 67, 100
2, 6225480, Note_on_c, 0, 67, 0
2, 6225480, Note_on_c, 0, 76, 100
2, 6225600, Note_on_c, 0, 76, 0
2, 6225600, Note_on_c, 0, 74, 100
2, 6225720, Note_on_c, 0, 74, 0
2, 6225720, Note_on_c, 0, 72, 100
2, 6225840, Note_on_c, 0, 72, 0
2, 6225840, Note_on_c, 0, 74, 100
2, 6225960, Note_on_c, 0, 74, 0
2, 6225960, Note_on_c, 0, 78, 100
2, 6226080, Note_on_c, 0, 78, 0
2, 6226080, Note_on_c, 0, 74, 100
2, 6226200, Note_on_c, 0, 74, 0
2, 6226200, Note_on_c, 0, 72, 100
2, 6226320, Note_on_c, 0, 72, 0
2, 6226320, Note_on_c, 0, 74, 100
2, 6226440, Note_on_c, 0, 74, 0
2, 6226440, Note_on_c, 0, 79, 100
2, 6226560, Note_on_c, 0, 79, 0
2, 6226560, Note_on_c, 0, 74, 100
2, 6226680, Note_on_c, 0, 74, 0
2, 6226680, Note_on_c, 0, 72, 100
2, 6226800, Note_on_c, 0, 72, 0
2, 6226800, Note_on_c, 0, 74, 100
2, 6226920, Note_on_c, 0, 74, 0
2, 6226920, Note_on_c, 0, 81, 100
2, 6227040, Note_on_c, 0, 81, 0
2, 6227040, Note_on_c, 0, 74, 100
2, 6227160, Note_on_c, 0, 74, 0
2, 6227160, Note_on_c, 0, 72, 100
2, 6227280, Note_on_c, 0, 72, 0
2, 6227280, Note_on_c, 0, 71, 100
2, 6227400, Note_on_c, 0, 71, 0
2, 6227400, Note_on_c, 0, 72, 100
2, 6227520, Note_on_c, 0, 72, 0
2, 6227520, Note_on_c, 0, 71, 100
2, 6227640, Note_on_c, 0, 71, 0
2, 6227640, Note_on_c, 0, 69, 100
2, 6227760, Note_on_c, 0, 69, 0
2, 6227760, Note_on_c, 0, 67, 100
2, 6227880, Note_on_c, 0, 67, 0
2, 6227880, Note_on_c, 0, 66, 100
2, 6228000, Note_on_c, 0, 66, 0
2, 6228000, Note_on_c, 0, 81, 100
2, 6228120, Note_on_c, 0, 81, 0
2, 6228120, Note_on_c, 0, 79, 100
2, 6228240, Note_on_c, 0, 79, 0
2, 6228240, Note_on_c, 0, 78, 100
2, 6228360, Note_on_c, 0, 78, 0
2, 6228360, Note_on_c, 0, 79, 100
2, 6228480, Note_on_c, 0, 79, 0
2, 6228480, Note_on_c, 0, 71, 100
2, 6228720, Note_on_c, 0, 71, 0
2, 6228720, Note_on_c, 0, 53, 100
2, 6229200, Note_on_c, 0, 53, 0
2, 6229200, Note_on_c, 0, 52, 100
2, 6229440, Note_on_c, 0, 52, 0
2, 6229440, Note_on_c, 0, 50, 100
2, 6229680, Note_on_c, 0, 50, 0
2, 6229680, Note_on_c, 0, 48, 100
2, 6229920, Note_on_c, 0, 48, 0
2, 6229920, Note_on_c, 0, 60, 100
2, 6230040, Note_on_c, 0, 60, 0
2, 6230040, Note_on_c, 0, 59, 100
2, 6230160, Note_on_c, 0, 59, 0
2, 6230160, Note_on_c, 0, 60, 100
2, 6230280, Note_on_c, 0, 60, 0
2, 6230280, Note_on_c, 0, 62, 100
2, 6230400, Note_on_c, 0, 62, 0
2, 6230400, Note_on_c, 0, 60, 100
2, 6230520, Note_on_c, 0, 60, 0
2, 6230520, Note_on_c, 0, 64, 100
2, 6230640, Note_on_c, 0, 64, 0
2, 6230640, Note_on_c, 0, 60, 100
2, 6230760, Note_on_c, 0, 60, 0
2, 6230760, Note_on_c, 0, 66, 100
2, 6230880, Note_on_c, 0, 66, 0
2, 6230880, Note_on_c, 0, 60, 100
2, 6231000, Note_on_c, 0, 60, 0
2, 6231000, Note_on_c, 0, 67, 100
2, 6231120, Note_on_c, 0, 67, 0
2, 6231120, Note_on_c, 0, 60, 100
2, 6231240, Note_on_c, 0, 60, 0
2, 6231240, Note_on_c, 0, 69, 100
2, 6231360, Note_on_c, 0, 69, 0
2, 6231360, Note_on_c, 0, 60, 100
2, 6231480, Note_on_c, 0, 60, 0
2, 6231480, Note_on_c, 0, 59, 100
2, 6231600, Note_on_c, 0, 59, 0
2, 6231600, Note_on_c, 0, 57, 100
2, 6231720, Note_on_c, 0, 57, 0
2, 6231720, Note_on_c, 0, 59, 100
2, 6231840, Note_on_c, 0, 59, 0
2, 6231840, Note_on_c, 0, 74, 100
2, 6232080, Note_on_c, 0, 74, 0
2, 6232080, Note_on_c, 0, 50, 100
2, 6232320, Note_on_c, 0, 50, 0
2, 6232320, Note_on_c, 0, 72, 100
2, 6232560, Note_on_c, 0, 72, 0
2, 6232560, Note_on_c, 0, 71, 100
2, 6232800, Note_on_c, 0, 71, 0
2, 6232800, Note_on_c, 0, 67, 100
2, 6232920, Note_on_c, 0, 67, 0
2, 6232920, Note_on_c, 0, 62, 100
2, 6233040, Note_on_c, 0, 62, 0
2, 6233040, Note_on_c, 0, 67, 100
2, 6233160, Note_on_c, 0, 67, 0
2, 6233160, Note_on_c, 0, 71, 100
2, 6233280, Note_on_c, 0, 71, 0
2, 6233280, Note_on_c, 0, 67, 100
2, 6233400, Note_on_c, 0, 67, 0
2, 6233400, Note_on_c, 0, 74, 100
2, 6233520, Note_on_c, 0, 74, 0
2, 6233520, Note_on_c, 0, 71, 100
2, 6233640, Note_on_c, 0, 71, 0
2, 6233640, Note_on_c, 0, 79, 100
2, 6233760, Note_on_c, 0, 79, 0
2, 6233760, Note_on_c, 0, 78, 100
2, 6234240, Note_on_c, 0, 78, 0
2, 6234240, Note_on_c, 0, 62, 100
2, 6234720, Note_on_c, 0, 62, 0
2, 6234720, Note_on_c, 0, 79, 100
2, 6235200, Note_on_c, 0, 79, 0
2, 6235200, Note_on_c, 0, 78, 100
2, 6235260, Note_on_c, 0, 78, 0
2, 6235260, Note_on_c, 0, 76, 100
2, 6235320, Note_on_c, 0, 76, 0
2, 6235320, Note_on_c, 0, 78, 100
2, 6235380, Note_on_c, 0, 78, 0
2, 6235380, Note_on_c, 0, 76, 100
2, 6235440, Note_on_c, 0, 76, 0
2, 6235440, Note_on_c, 0, 78, 100
2, 6235500, Note_on_c, 0, 78, 0
2, 6235500, Note_on_c, 0, 76, 100
2, 6235560, Note_on_c, 0, 76, 0
2, 6235560, Note_on_c, 0, 78, 100
2, 6235620, Note_on_c, 0, 78, 0
2, 6235620, Note_on_c, 0, 79, 100
2, 6235680, Note_on_c, 0, 79, 0
2, 6235680, Note_on_c, 0, 74, 100
2, 6235920, Note_on_c, 0, 74, 0
2, 6235920, Note_on_c, 0, 79, 100
2, 6236040, Note_on_c, 0, 79, 0
2, 6236040, Note_on_c, 0, 81, 100
2, 6236160, Note_on_c, 0, 81, 0
2, 6236160, Note_on_c, 0, 74, 100
2, 6236400, Note_on_c, 0, 74, 0
2, 6236400, Note_on_c, 0, 81, 100
2, 6236520, Note_on_c, 0, 81, 0
2, 6236520, Note_on_c, 0, 83, 100
2, 6236640, Note_on_c, 0, 83, 0
2, 6236640, Note_on_c, 0, 79, 100
2, 6236880, Note_on_c, 0, 79, 0
2, 6236880, Note_on_c, 0, 76, 100
2, 6237120, Note_on_c, 0, 76, 0
2, 6237120, Note_on_c, 0, 72, 100
2, 6237360, Note_on_c, 0, 72, 0
2, 6237360, Note_on_c, 0, 69, 100
2, 6237600, Note_on_c, 0, 69, 0
2, 6237600, Note_on_c, 0, 79, 100
2, 6237840, Note_on_c, 0, 79, 0
2, 6237840, Note_on_c, 0, 78, 100
2, 6238080, Note_on_c, 0, 78, 0
2, 6238080, Note_on_c, 0, 76, 100
2, 6238140, Note_on_c, 0, 76, 0
2, 6238140, Note_on_c, 0, 75, 100
2, 6238200, Note_on_c, 0, 75, 0
2, 6238200, Note_on_c, 0, 76, 100
2, 6238800, Note_on_c, 0, 76, 0
2, 6238800, Note_on_c, 0, 75, 100
2, 6238840, Note_on_c, 0, 75, 0
2, 6238840, Note_on_c, 0, 76, 100
2, 6238880, Note_on_c, 0, 76, 0
2, 6238880, Note_on_c, 0, 75, 100
2, 6238920, Note_on_c, 0, 75, 0
2, 6238920, Note_on_c, 0, 57, 100
2, 6239520, Note_on_c, 0, 57, 0
2, 6239520, Note_on_c, 0, 55, 100
2, 6239560, Note_on_c, 0, 55, 0
2, 6239560, Note_on_c, 0, 57, 100
2, 6239600, Note_on_c, 0, 57, 0
2, 6239600, Note_on_c, 0, 55, 100
2, 6239640, Note_on_c, 0, 55, 0
2, 6239640, Note_on_c, 0, 54, 100
2, 6239760, Note_on_c, 0, 54, 0
2, 6239760, Note_on_c, 0, 52, 100
2, 6240000, Note_on_c, 0, 52, 0
2, 6240000, Note_on_c, 0, 76, 100
2, 6240480, Note_on_c, 0, 76, 0
2, 6240480, Note_on_c, 0, 50, 100
2, 6240960, Note_on_c, 0, 50, 0
2, 6240960, Note_on_c, 0, 48, 100
2, 6241020, Note_on_c, 0, 48, 0
2, 6241020, Note_on_c, 0, 50, 100
2, 6241080, Note_on_c, 0, 50, 0
2, 6241080, Note_on_c, 0, 48, 100
2, 6241440, Note_on_c, 0, 48, 0
2, 6241440, Note_on_c, 0, 76, 100
2, 6241920, Note_on_c, 0, 76, 0
2, 6241920, Note_on_c, 0, 45, 100
2, 6242400, Note_on_c, 0, 45, 0
2, 6242400, Note_on_c, 0, 43, 100
2, 6242460, Note_on_c, 0, 43, 0
2, 6242460, Note_on_c, 0, 45, 100
2, 6242520, Note_on_c, 0, 45, 0
2, 6242520, Note_on_c, 0, 47, 100
2, 6242880, Note_on_c, 0, 47, 0
2, 6242880, Note_on_c, 0, 79, 100
2, 6243360, Note_on_c, 0, 79, 0
2, 6243360, Note_on_c, 0, 78, 100
2, 6243600, Note_on_c, 0, 78, 0
2, 6243600, Note_on_c, 0, 76, 100
2, 6243840, Note_on_c, 0, 76, 0
2, 6243840, Note_on_c, 0, 75, 100
2, 6244080, Note_on_c, 0, 75, 0
2, 6244080, Note_on_c, 0, 76, 100
2, 6244320, Note_on_c, 0, 76, 0
2, 6244320, Note_on_c, 0, 52, 100
2, 6244800, Note_on_c, 0, 52, 0
2, 6244800, Note_on_c, 0, 50, 100
2, 6245400, Note_on_c, 0, 50, 0
2, 6245400, Note_on_c, 0, 48, 100
2, 6245520, Note_on_c, 0, 48, 0
2, 6245520, Note_on_c, 0, 47, 100
2, 6245640, Note_on_c, 0, 47, 0
2, 6245640, Note_on_c, 0, 48, 100
2, 6245760, Note_on_c, 0, 48, 0
2, 6245760, Note_on_c, 0, 52, 100
2, 6245880, Note_on_c, 0, 52, 0
2, 6245880, Note_on_c, 0, 50, 100
2, 6246000, Note_on_c, 0, 50, 0
2, 6246000, Note_on_c, 0, 52, 100
2, 6246120, Note_on_c, 0, 52, 0
2, 6246120, Note_on_c, 0, 57, 100
2, 6246240, Note_on_c, 0, 57, 0
2, 6246240, Note_on_c, 0, 52, 100
2, 6246360, Note_on_c, 0, 52, 0
2, 6246360, Note_on_c, 0, 50, 100
2, 6246480, Note_on_c, 0, 50, 0
2, 6246480, Note_on_c, 0, 52, 100
2, 6246600, Note_on_c, 0, 52, 0
2, 6246600, Note_on_c, 0, 60, 100
2, 6246720, Note_on_c, 0, 60, 0
2, 6246720, Note_on_c, 0, 57, 100
2, 6246840, Note_on_c, 0, 57, 0
2, 6246840, Note_on_c, 0, 55, 100
2, 6246960, Note_on_c, 0, 55, 0
2, 6246960, Note_on_c, 0, 57, 100
2, 6247080, Note_on_c, 0, 57, 0
2, 6247080, Note_on_c, 0, 66, 100
2, 6247200, Note_on_c, 0, 66, 0
2, 6247200, Note_on_c, 0, 57, 100
2, 6247320, Note_on_c, 0, 57, 0
2, 6247320, Note_on_c, 0, 55, 100
2, 6247440, Note_on_c, 0, 55, 0
2, 6247440, Note_on_c, 0, 57, 100
2, 6247560, Note_on_c, 0, 57, 0
2, 6247560, Note_on_c, 0, 67, 100
2, 6247680, Note_on_c, 0, 67, 0
2, 6247680, Note_on_c, 0, 62, 100
2, 6247800, Note_on_c, 0, 62, 0
2, 6247800, Note_on_c, 0, 60, 100
2, 6247920, Note_on_c, 0, 60, 0
2, 6247920, Note_on_c, 0, 62, 100
2, 6248040, Note_on_c, 0, 62, 0
2, 6248040, Note_on_c, 0, 71, 100
2, 6248160, Note_on_c, 0, 71, 0
2, 6248160, Note_on_c, 0, 67, 100
2, 6248280, Note_on_c, 0, 67, 0
2, 6248280, Note_on_c, 0, 66, 100
2, 6248400, Note_on_c, 0, 66, 0
2, 6248400, Note_on_c, 0, 67, 100
2, 6248520, Note_on_c, 0, 67, 0
2, 6248520, Note_on_c, 0, 76, 100
2, 6248640, Note_on_c, 0, 76, 0
2, 6248640, Note_on_c, 0, 74, 100
2, 6248760, Note_on_c, 0, 74, 0
2, 6248760, Note_on_c, 0, 72, 100
2, 6248880, Note_on_c, 0, 72, 0
2, 6248880, Note_on_c, 0, 74, 100
2, 6249000, Note_on_c, 0, 74, 0
2, 6249000, Note_on_c, 0, 78, 100
2, 6249120, Note_on_c, 0, 78, 0
2, 6249120, Note_on_c, 0, 74, 100
2, 6249240, Note_on_c, 0, 74, 0
2, 6249240, Note_on_c, 0, 72, 100
2, 6249360, Note_on_c, 0, 72, 0
2, 6249360, Note_on_c, 0, 74, 100
2, 6249480, Note_on_c, 0, 74, 0
2, 6249480, Note_on_c, 0, 79, 100
2, 6249600, Note_on_c, 0, 79, 0
2, 6249600, Note_on_c, 0, 74, 100
2, 6249720, Note_on_c, 0, 74, 0
2, 6249720, Note_on_c, 0, 72, 100
2, 6249840, Note_on_c, 0, 72, 0
2, 6249840, Note_on_c, 0, 74, 100
2, 6249960, Note_on_c, 0, 74, 0
2, 6249960, Note_on_c, 0, 81, 100
2, 6250080, Note_on_c, 0, 81, 0
2, 6250080, Note_on_c, 0, 74, 100
2, 6250200, Note_on_c, 0, 74, 0
2, 6250200, Note_on_c, 0, 72, 100
2, 6250320, Note_on_c, 0, 72, 0
2, 6250320, Note_on_c, 0, 71, 100
2, 6250440, Note_on_c, 0, 71, 0
2, 6250440, Note_on_c, 0, 72, 100
2, 6250560, Note_on_c, 0, 72, 0
2, 6250560, Note_on_c, 0, 71, 100
2, 6250680, Note_on_c, 0, 71, 0
2, 6250680, Note_on_c, 0, 69, 100
2, 6250800, Note_on_c, 0, 69, 0
2, 6250800, Note_on_c, 0, 67, 100
2, 6250920, Note_on_c, 0, 67, 0
2, 6250920, Note_on_c, 0, 66, 100
2, 6251040, Note_on_c, 0, 66, 0
2, 6251040, Note_on_c, 0, 81, 100
2, 6251160, Note_on_c, 0, 81, 0
2, 6251160, Note_on_c, 0, 79, 100
2, 6251280, Note_on_c, 0, 79, 0
2, 6251280, Note_on_c, 0, 78, 100
2, 6251400, Note_on_c, 0, 78, 0
2, 6251400, Note_on_c, 0, 79, 100
2, 6251520, Note_on_c, 0, 79, 0
2, 6251520, Note_on_c, 0, 71, 100
2, 6251760, Note_on_c, 0, 71, 0
2, 6251760, Note_on_c, 0, 53, 100
2, 6252240, Note_on_c, 0, 53, 0
2, 6252240, Note_on_c, 0, 52, 100
2, 6252480, Note_on_c, 0, 52, 0
2, 6252480, Note_on_c, 0, 50, 100
2, 6252720, Note_on_c, 0, 50, 0
2, 6252720, Note_on_c, 0, 48, 100
2, 6252960, Note_on_c, 0, 48, 0
2, 6252960, Note_on_c, 0, 60, 100
2, 6253080, Note_on_c, 0, 60, 0
2, 6253080, Note_on_c, 0, 59, 100
2, 6253200, Note_on_c, 0, 59, 0
2, 6253200, Note_on_c, 0, 60, 100
2, 6253320, Note_on_c, 0, 60, 0
2, 6253320, Note_on_c, 0, 62, 100
2, 6253440, Note_on_c, 0, 62, 0
2, 6253440, Note_on_c, 0, 60, 100
2, 6253560, Note_on_c, 0, 60, 0
2, 6253560, Note_on_c, 0, 64, 100
2, 6253680, Note_on_c, 0, 64, 0
2, 6253680, Note_on_c, 0, 60, 100
2, 6253800, Note_on_c, 0, 60, 0
2, 6253800, Note_on_c, 0, 66, 100
2, 6253920, Note_on_c, 0, 66, 0
2, 6253920, Note_on_c, 0, 60, 100
2, 6254040, Note_on_c, 0, 60, 0
2, 6254040, Note_on_c, 0, 67, 100
2, 6254160, Note_on_c, 0, 67, 0
2, 6254160, Note_on_c, 0, 60, 100
2, 6254280, Note_on_c, 0, 60, 0
2, 6254280, Note_on_c, 0, 69, 100
2, 6254400, Note_on_c, 0, 69, 0
2, 6254400, Note_on_c, 0, 60, 100
2, 6254520, Note_on_c, 0, 60, 0
2, 6254520, Note_on_c, 0, 59, 100
2, 6254640, Note_on_c, 0, 59, 0
2, 6254640, Note_on_c, 0, 57, 100
2, 6254760, Note_on_c, 0, 57, 0
2, 6254760, Note_on_c, 0, 59, 100
2, 6254880, Note_on_c, 0, 59, 0
2, 6254880, Note_on_c, 0, 74, 100
2, 6255120, Note_on_c, 0, 74, 0
2, 6255120, Note_on_c, 0, 50, 100
2, 6255360, Note_on_c, 0, 50, 0
2, 6255360, Note_on_c, 0, 72, 100
2, 6255600, Note_on_c, 0, 72, 0
2, 6255600, Note_on_c, 0, 71, 100
2, 6255840, Note_on_c, 0, 71, 0
2, 6255840, Note_on_c, 0, 67, 100
2, 6255960, Note_on_c, 0, 67, 0
2, 6255960, Note_on_c, 0, 62, 100
2, 6256080, Note_on_c, 0, 62, 0
2, 6256080, Note_on_c, 0, 67, 100
2, 6256200, Note_on_c, 0, 67, 0
2, 6256200, Note_on_c, 0, 71, 100
2, 6256320, Note_on_c, 0, 71, 0
2, 6256320, Note_on_c, 0, 67, 100
2, 6256440, Note_on_c, 0, 67, 0
2, 6256440, Note_on_c, 0, 74, 100
2, 6256560, Note_on_c, 0, 74, 0
2, 6256560, Note_on_c, 0, 71, 100
2, 6256680, Note_on_c, 0, 71, 0
2, 6256680, Note_on_c, 0, 79, 100
2, 6256800, Note_on_c, 0, 79, 0
2, 6256800, Note_on_c, 0, 71, 100
2, 6303360, Note_on_c, 0, 71, 0
2, 6303360, Note_on_c, 0, 69, 100
2, 6303720, Note_on_c, 0, 69, 0
2, 6303720, Note_on_c, 0, 71, 100
2, 6303840, Note_on_c, 0, 71, 0
2, 6303840, Note_on_c, 0, 62, 100
2, 6304080, Note_on_c, 0, 62, 0
2, 6304080, Note_on_c, 0, 67, 100
2, 6304440, Note_on_c, 0, 67, 0
2, 6304440, Note_on_c, 0, 71, 100
2, 6304800, Note_on_c, 0, 71, 0
2, 6304800, Note_on_c, 0, 69, 100
2, 6304860, Note_on_c, 0, 69, 0
2, 6304860, Note_on_c, 0, 71, 100
2, 6304920, Note_on_c, 0, 71, 0
2, 6304920, Note_on_c, 0, 69, 100
2, 6304980, Note_on_c, 0, 69, 0
2, 6304980, Note_on_c, 0, 67, 100
2, 6305160, Note_on_c, 0, 67, 0
2, 6305160, Note_on_c, 0, 69, 100
2, 6305280, Note_on_c, 0, 69, 0
2, 6305280, Note_on_c, 0, 74, 100
2, 6305520, Note_on_c, 0, 74, 0
2, 6305520, Note_on_c, 0, 79, 100
2, 6306240, Note_on_c, 0, 79, 0
2, 6306240, Note_on_c, 0, 78, 100
2, 6306300, Note_on_c, 0, 78, 0
2, 6306300, Note_on_c, 0, 79, 100
2, 6306360, Note_on_c, 0, 79, 0
2, 6306360, Note_on_c, 0, 78, 100
2, 6306600, Note_on_c, 0, 78, 0
2, 6306600, Note_on_c, 0, 79, 100
2, 6306720, Note_on_c, 0, 79, 0
2, 6306720, Note_on_c, 0, 69, 100
2, 6306960, Note_on_c, 0, 69, 0
2, 6306960, Note_on_c, 0, 76, 100
2, 6307320, Note_on_c, 0, 76, 0
2, 6307320, Note_on_c, 0, 79, 100
2, 6307680, Note_on_c, 0, 79, 0
2, 6307680, Note_on_c, 0, 78, 100
2, 6307740, Note_on_c, 0, 78, 0
2, 6307740, Note_on_c, 0, 79, 100
2, 6307800, Note_on_c, 0, 79, 0
2, 6307800, Note_on_c, 0, 78, 100
2, 6307860, Note_on_c, 0, 78, 0
2, 6307860, Note_on_c, 0, 76, 100
2, 6308040, Note_on_c, 0, 76, 0
2, 6308040, Note_on_c, 0, 78, 100
2, 6308160, Note_on_c, 0, 78, 0
2, 6308160, Note_on_c, 0, 74, 100
2, 6308400, Note_on_c, 0, 74, 0
2, 6308400, Note_on_c, 0, 76, 100
2, 6309600, Note_on_c, 0, 76, 0
2, 6309600, Note_on_c, 0, 78, 100
2, 6309660, Note_on_c, 0, 78, 0
2, 6309660, Note_on_c, 0, 79, 100
2, 6309720, Note_on_c, 0, 79, 0
2, 6309720, Note_on_c, 0, 81, 100
2, 6309780, Note_on_c, 0, 81, 0
2, 6309780, Note_on_c, 0, 83, 100
2, 6309840, Note_on_c, 0, 83, 0
2, 6309840, Note_on_c, 0, 79, 100
2, 6310200, Note_on_c, 0, 79, 0
2, 6310200, Note_on_c, 0, 74, 100
2, 6310320, Note_on_c, 0, 74, 0
2, 6310320, Note_on_c, 0, 76, 100
2, 6310560, Note_on_c, 0, 76, 0
2, 6310560, Note_on_c, 0, 78, 100
2, 6311040, Note_on_c, 0, 78, 0
2, 6311040, Note_on_c, 0, 79, 100
2, 6311100, Note_on_c, 0, 79, 0
2, 6311100, Note_on_c, 0, 81, 100
2, 6311160, Note_on_c, 0, 81, 0
2, 6311160, Note_on_c, 0, 83, 100
2, 6311220, Note_on_c, 0, 83, 0
2, 6311220, Note_on_c, 0, 84, 100
2, 6311280, Note_on_c, 0, 84, 0
2, 6311280, Note_on_c, 0, 81, 100
2, 6311640, Note_on_c, 0, 81, 0
2, 6311640, Note_on_c, 0, 76, 100
2, 6311760, Note_on_c, 0, 76, 0
2, 6311760, Note_on_c, 0, 78, 100
2, 6312000, Note_on_c, 0, 78, 0
2, 6312000, Note_on_c, 0, 74, 100
2, 6312360, Note_on_c, 0, 74, 0
2, 6312360, Note_on_c, 0, 79, 100
2, 6312480, Note_on_c, 0, 79, 0
2, 6312480, Note_on_c, 0, 69, 100
2, 6312720, Note_on_c, 0, 69, 0
2, 6312720, Note_on_c, 0, 71, 100
2, 6313080, Note_on_c, 0, 71, 0
2, 6313080, Note_on_c, 0, 72, 100
2, 6313440, Note_on_c, 0, 72, 0
2, 6313440, Note_on_c, 0, 71, 100
2, 6313680, Note_on_c, 0, 71, 0
2, 6313680, Note_on_c, 0, 69, 100
2, 6314520, Note_on_c, 0, 69, 0
2, 6314520, Note_on_c, 0, 67, 100
2, 6314640, Note_on_c, 0, 67, 0
2, 6314640, Note_on_c, 0, 66, 100
2, 6314760, Note_on_c, 0, 66, 0
2, 6314760, Note_on_c, 0, 67, 100
2, 6314880, Note_on_c, 0, 67, 0
2, 6314880, Note_on_c, 0, 74, 100
2, 6315360, Note_on_c, 0, 74, 0
2, 6315360, Note_on_c, 0, 79, 100
2, 6315600, Note_on_c, 0, 79, 0
2, 6315600, Note_on_c, 0, 78, 100
2, 6315660, Note_on_c, 0, 78, 0
2, 6315660, Note_on_c, 0, 79, 100
2, 6315720, Note_on_c, 0, 79, 0
2, 6315720, Note_on_c, 0, 81, 100
2, 6316560, Note_on_c, 0, 81, 0
2, 6316560, Note_on_c, 0, 79, 100
2, 6316680, Note_on_c, 0, 79, 0
2, 6316680, Note_on_c, 0, 78, 100
2, 6316800, Note_on_c, 0, 78, 0
2, 6316800, Note_on_c, 0, 76, 100
2, 6316920, Note_on_c, 0, 76, 0
2, 6316920, Note_on_c, 0, 78, 100
2, 6317040, Note_on_c, 0, 78, 0
2, 6317040, Note_on_c, 0, 76, 100
2, 6317100, Note_on_c, 0, 76, 0
2, 6317100, Note_on_c, 0, 78, 100
2, 6317160, Note_on_c, 0, 78, 0
2, 6317160, Note_on_c, 0, 79, 100
2, 6318120, Note_on_c, 0, 79, 0
2, 6318120, Note_on_c, 0, 78, 100
2, 6318240, Note_on_c, 0, 78, 0
2, 6318240, Note_on_c, 0, 76, 100
2, 6318480, Note_on_c, 0, 76, 0
2, 6318480, Note_on_c, 0, 73, 100
2, 6318840, Note_on_c, 0, 73, 0
2, 6318840, Note_on_c, 0, 74, 100
2, 6319200, Note_on_c, 0, 74, 0
2, 6319200, Note_on_c, 0, 73, 100
2, 6319260, Note_on_c, 0, 73, 0
2, 6319260, Note_on_c, 0, 74, 100
2, 6319320, Note_on_c, 0, 74, 0
2, 6319320, Note_on_c, 0, 73, 100
2, 6319380, Note_on_c, 0, 73, 0
2, 6319380, Note_on_c, 0, 74, 100
2, 6319560, Note_on_c, 0, 74, 0
2, 6319560, Note_on_c, 0, 76, 100
2, 6319680, Note_on_c, 0, 76, 0
2, 6319680, Note_on_c, 0, 69, 100
2, 6319920, Note_on_c, 0, 69, 0
2, 6319920, Note_on_c, 0, 71, 100
2, 6321120, Note_on_c, 0, 71, 0
2, 6321120, Note_on_c, 0, 73, 100
2, 6321180, Note_on_c, 0, 73, 0
2, 6321180, Note_on_c, 0, 74, 100
2, 6321240, Note_on_c, 0, 74, 0
2, 6321240, Note_on_c, 0, 76, 100
2, 6321300, Note_on_c, 0, 76, 0
2, 6321300, Note_on_c, 0, 78, 100
2, 6321360, Note_on_c, 0, 78, 0
2, 6321360, Note_on_c, 0, 74, 100
2, 6321720, Note_on_c, 0, 74, 0
2, 6321720, Note_on_c, 0, 69, 100
2, 6321840, Note_on_c, 0, 69, 0
2, 6321840, Note_on_c, 0, 71, 100
2, 6322080, Note_on_c, 0, 71, 0
2, 6322080, Note_on_c, 0, 73, 100
2, 6322560, Note_on_c, 0, 73, 0
2, 6322560, Note_on_c, 0, 74, 100
2, 6322620, Note_on_c, 0, 74, 0
2, 6322620, Note_on_c, 0, 76, 100
2, 6322680, Note_on_c, 0, 76, 0
2, 6322680, Note_on_c, 0, 78, 100
2, 6322740, Note_on_c, 0, 78, 0
2, 6322740, Note_on_c, 0, 79, 100
2, 6322800, Note_on_c, 0, 79, 0
2, 6322800, Note_on_c, 0, 76, 100
2, 6323160, Note_on_c, 0, 76, 0
2, 6323160, Note_on_c, 0, 71, 100
2, 6323520, Note_on_c, 0, 71, 0
2, 6323520, Note_on_c, 0, 73, 100
2, 6323640, Note_on_c, 0, 73, 0
2, 6323640, Note_on_c, 0, 69, 100
2, 6323880, Note_on_c, 0, 69, 0
2, 6323880, Note_on_c, 0, 81, 100
2, 6324000, Note_on_c, 0, 81, 0
2, 6324000, Note_on_c, 0, 74, 100
2, 6324240, Note_on_c, 0, 74, 0
2, 6324240, Note_on_c, 0, 76, 100
2, 6324600, Note_on_c, 0, 76, 0
2, 6324600, Note_on_c, 0, 73, 100
2, 6324960, Note_on_c, 0, 73, 0
2, 6324960, Note_on_c, 0, 74, 100
2, 6325200, Note_on_c, 0, 74, 0
2, 6325200, Note_on_c, 0, 71, 100
2, 6326400, Note_on_c, 0, 71, 0
2, 6326400, Note_on_c, 0, 69, 100
2, 6326760, Note_on_c, 0, 69, 0
2, 6326760, Note_on_c, 0, 71, 100
2, 6326880, Note_on_c, 0, 71, 0
2, 6326880, Note_on_c, 0, 62, 100
2, 6327120, Note_on_c, 0, 62, 0
2, 6327120, Note_on_c, 0, 67, 100
2, 6327480, Note_on_c, 0, 67, 0
2, 6327480, Note_on_c, 0, 71, 100
2, 6327840, Note_on_c, 0, 71, 0
2, 6327840, Note_on_c, 0, 69, 100
2, 6327900, Note_on_c, 0, 69, 0
2, 6327900, Note_on_c, 0, 71, 100
2, 6327960, Note_on_c, 0, 71, 0
2, 6327960, Note_on_c, 0, 69, 100
2, 6328020, Note_on_c, 0, 69, 0
2, 6328020, Note_on_c, 0, 67, 100
2, 6328200, Note_on_c, 0, 67, 0
2, 6328200, Note_on_c, 0, 69, 100
2, 6328320, Note_on_c, 0, 69, 0
2, 6328320, Note_on_c, 0, 74, 100
2, 6328560, Note_on_c, 0, 74, 0
2, 6328560, Note_on_c, 0, 79, 100
2, 6329280, Note_on_c, 0, 79, 0
2, 6329280, Note_on_c, 0, 78, 100
2, 6329340, Note_on_c, 0, 78, 0
2, 6329340, Note_on_c, 0, 79, 100
2, 6329400, Note_on_c, 0, 79, 0
2, 6329400, Note_on_c, 0, 78, 100
2, 6329640, Note_on_c, 0, 78, 0
2, 6329640, Note_on_c, 0, 79, 100
2, 6329760, Note_on_c, 0, 79, 0
2, 6329760, Note_on_c, 0, 69, 100
2, 6330000, Note_on_c, 0, 69, 0
2, 6330000, Note_on_c, 0, 76, 100
2, 6330360, Note_on_c, 0, 76, 0
2, 6330360, Note_on_c, 0, 79, 100
2, 6330720, Note_on_c, 0, 79, 0
2, 6330720, Note_on_c, 0, 78, 100
2, 6330780, Note_on_c, 0, 78, 0
2, 6330780, Note_on_c, 0, 79, 100
2, 6330840, Note_on_c, 0, 79, 0
2, 6330840, Note_on_c, 0, 78, 100
2, 6330900, Note_on_c, 0, 78, 0
2, 6330900, Note_on_c, 0, 76, 100
2, 6331080, Note_on_c, 0, 76, 0
2, 6331080, Note_on_c, 0, 78, 100
2, 6331200, Note_on_c, 0, 78, 0
2, 6331200, Note_on_c, 0, 74, 100
2, 6331440, Note_on_c, 0, 74, 0
2, 6331440, Note_on_c, 0, 76, 100
2, 6332640, Note_on_c, 0, 76, 0
2, 6332640, Note_on_c, 0, 78, 100
2, 6332700, Note_on_c, 0, 78, 0
2, 6332700, Note_on_c, 0, 79, 100
2, 6332760, Note_on_c, 0, 79, 0
2, 6332760, Note_on_c, 0, 81, 100
2, 6332820, Note_on_c, 0, 81, 0
2, 6332820, Note_on_c, 0, 83, 100
2, 6332880, Note_on_c, 0, 83, 0
2, 6332880, Note_on_c, 0, 79, 100
2, 6333240, Note_on_c, 0, 79, 0
2, 6333240, Note_on_c, 0, 74, 100
2, 6333360, Note_on_c, 0, 74, 0
2, 6333360, Note_on_c, 0, 76, 100
2, 6333600, Note_on_c, 0, 76, 0
2, 6333600, Note_on_c, 0, 78, 100
2, 6334080, Note_on_c, 0, 78, 0
2, 6334080, Note_on_c, 0, 79, 100
2, 6334140, Note_on_c, 0, 79, 0
2, 6334140, Note_on_c, 0, 81, 100
2, 6334200, Note_on_c, 0, 81, 0
2, 6334200, Note_on_c, 0, 83, 100
2, 6334260, Note_on_c, 0, 83, 0
2, 6334260, Note_on_c, 0, 84, 100
2, 6334320, Note_on_c, 0, 84, 0
2, 6334320, Note_on_c, 0, 81, 100
2, 6334680, Note_on_c, 0, 81, 0
2, 6334680, Note_on_c, 0, 76, 100
2, 6334800, Note_on_c, 0, 76, 0
2, 6334800, Note_on_c, 0, 78, 100
2, 6335040, Note_on_c, 0, 78, 0
2, 6335040, Note_on_c, 0, 74, 100
2, 6335400, Note_on_c, 0, 74, 0
2, 6335400, Note_on_c, 0, 79, 100
2, 6335520, Note_on_c, 0, 79, 0
2, 6335520, Note_on_c, 0, 69, 100
2, 6335760, Note_on_c, 0, 69, 0
2, 6335760, Note_on_c, 0, 71, 100
2, 6336120, Note_on_c, 0, 71, 0
2, 6336120, Note_on_c, 0, 72, 100
2, 6336480, Note_on_c, 0, 72, 0
2, 6336480, Note_on_c, 0, 71, 100
2, 6336720, Note_on_c, 0, 71, 0
2, 6336720, Note_on_c, 0, 69, 100
2, 6337560, Note_on_c, 0, 69, 0
2, 6337560, Note_on_c, 0, 67, 100
2, 6337680, Note_on_c, 0, 67, 0
2, 6337680, Note_on_c, 0, 66, 100
2, 6337800, Note_on_c, 0, 66, 0
2, 6337800, Note_on_c, 0, 67, 100
2, 6337920, Note_on_c, 0, 67, 0
2, 6337920, Note_on_c, 0, 74, 100
2, 6338400, Note_on_c, 0, 74, 0
2, 6338400, Note_on_c, 0, 79, 100
2, 6338640, Note_on_c, 0, 79, 0
2, 6338640, Note_on_c, 0, 78, 100
2, 6338700, Note_on_c, 0, 78, 0
2, 6338700, Note_on_c, 0, 79, 100
2, 6338760, Note_on_c, 0, 79, 0
2, 6338760, Note_on_c, 0, 81, 100
2, 6339600, Note_on_c, 0, 81, 0
2, 6339600, Note_on_c, 0, 79, 100
2, 6339720, Note_on_c, 0, 79, 0
2, 6339720, Note_on_c, 0, 78, 100
2, 6339840, Note_on_c, 0, 78, 0
2, 6339840, Note_on_c, 0, 76, 100
2, 6339960, Note_on_c, 0, 76, 0
2, 6339960, Note_on_c, 0, 78, 100
2, 6340080, Note_on_c, 0, 78, 0
2, 6340080, Note_on_c, 0, 76, 100
2, 6340140, Note_on_c, 0, 76, 0
2, 6340140, Note_on_c, 0, 78, 100
2, 6340200, Note_on_c, 0, 78, 0
2, 6340200, Note_on_c, 0, 79, 100
2, 6341160, Note_on_c, 0, 79, 0
2, 6341160, Note_on_c, 0, 78, 100
2, 6341280, Note_on_c, 0, 78, 0
2, 6341280, Note_on_c, 0, 76, 100
2, 6341520, Note_on_c, 0, 76, 0
2, 6341520, Note_on_c, 0, 73, 100
2, 6341880, Note_on_c, 0, 73, 0
2, 6341880, Note_on_c, 0, 74, 100
2, 6342240, Note_on_c, 0, 74, 0
2, 6342240, Note_on_c, 0, 73, 100
2, 6342300, Note_on_c, 0, 73, 0
2, 6342300, Note_on_c, 0, 74, 100
2, 6342360, Note_on_c, 0, 74, 0
2, 6342360, Note_on_c, 0, 73, 100
2, 6342420, Note_on_c, 0, 73, 0
2, 6342420, Note_on_c, 0, 74, 100
2, 6342600, Note_on_c, 0, 74, 0
2, 6342600, Note_on_c, 0, 76, 100
2, 6342720, Note_on_c, 0, 76, 0
2, 6342720, Note_on_c, 0, 69, 100
2, 6342960, Note_on_c, 0, 69, 0
2, 6342960, Note_on_c, 0, 71, 100
2, 6344160, Note_on_c, 0, 71, 0
2, 6344160, Note_on_c, 0, 73, 100
2, 6344220, Note_on_c, 0, 73, 0
2, 6344220, Note_on_c, 0, 74, 100
2, 6344280, Note_on_c, 0, 74, 0
2, 6344280, Note_on_c, 0, 76, 100
2, 6344340, Note_on_c, 0, 76, 0
2, 6344340, Note_on_c, 0, 78, 100
2, 6344400, Note_on_c, 0, 78, 0
2, 6344400, Note_on_c, 0, 74, 100
2, 6344760, Note_on_c, 0, 74, 0
2, 6344760, Note_on_c, 0, 69, 100
2, 6344880, Note_on_c, 0, 69, 0
2, 6344880, Note_on_c, 0, 71, 100
2, 6345120, Note_on_c, 0, 71, 0
2, 6345120, Note_on_c, 0, 73, 100
2, 6345600, Note_on_c, 0, 73, 0
2, 6345600, Note_on_c, 0, 74, 100
2, 6345660, Note_on_c, 0, 74, 0
2, 6345660, Note_on_c, 0, 76, 100
2, 6345720, Note_on_c, 0, 76, 0
2, 6345720, Note_on_c, 0, 78, 100
2, 6345780, Note_on_c, 0, 78, 0
2, 6345780, Note_on_c, 0, 79, 100
2, 6345840, Note_on_c, 0, 79, 0
2, 6345840, Note_on_c, 0, 76, 100
2, 6346200, Note_on_c, 0, 76, 0
2, 6346200, Note_on_c, 0, 71, 100
2, 6346560, Note_on_c, 0, 71, 0
2, 6346560, Note_on_c, 0, 73, 100
2, 6346680, Note_on_c, 0, 73, 0
2, 6346680, Note_on_c, 0, 69, 100
2, 6346920, Note_on_c, 0, 69, 0
2, 6346920, Note_on_c, 0, 81, 100
2, 6347040, Note_on_c, 0, 81, 0
2, 6347040, Note_on_c, 0, 74, 100
2, 6347280, Note_on_c, 0, 74, 0
2, 6347280, Note_on_c, 0, 76, 100
2, 6347640, Note_on_c, 0, 76, 0
2, 6347640, Note_on_c, 0, 73, 100
2, 6348000, Note_on_c, 0, 73, 0
2, 6348000, Note_on_c, 0, 74, 100
2, 6348240, Note_on_c, 0, 74, 0
2, 6348240, Note_on_c, 0, 78, 100
2, 6349440, Note_on_c, 0, 78, 0
2, 6349440, Note_on_c, 0, 76, 100
2, 6349800, Note_on_c, 0, 76, 0
2, 6349800, Note_on_c, 0, 78, 100
2, 6349920, Note_on_c, 0, 78, 0
2, 6349920, Note_on_c, 0, 69, 100
2, 6350160, Note_on_c, 0, 69, 0
2, 6350160, Note_on_c, 0, 74, 100
2, 6350520, Note_on_c, 0, 74, 0
2, 6350520, Note_on_c, 0, 78, 100
2, 6350640, Note_on_c, 0, 78, 0
2, 6350640, Note_on_c, 0, 79, 100
2, 6350880, Note_on_c, 0, 79, 0
2, 6350880, Note_on_c, 0, 78, 100
2, 6351240, Note_on_c, 0, 78, 0
2, 6351240, Note_on_c, 0, 79, 100
2, 6351360, Note_on_c, 0, 79, 0
2, 6351360, Note_on_c, 0, 83, 100
2, 6351600, Note_on_c, 0, 83, 0
2, 6351600, Note_on_c, 0, 76, 100
2, 6352320, Note_on_c, 0, 76, 0
2, 6352320, Note_on_c, 0, 78, 100
2, 6352800, Note_on_c, 0, 78, 0
2, 6352800, Note_on_c, 0, 79, 100
2, 6352860, Note_on_c, 0, 79, 0
2, 6352860, Note_on_c, 0, 81, 100
2, 6352920, Note_on_c, 0, 81, 0
2, 6352920, Note_on_c, 0, 83, 100
2, 6352980, Note_on_c, 0, 83, 0
2, 6352980, Note_on_c, 0, 84, 100
2, 6353040, Note_on_c, 0, 84, 0
2, 6353040, Note_on_c, 0, 83, 100
2, 6353160, Note_on_c, 0, 83, 0
2, 6353160, Note_on_c, 0, 81, 100
2, 6353280, Note_on_c, 0, 81, 0
2, 6353280, Note_on_c, 0, 79, 100
2, 6353400, Note_on_c, 0, 79, 0
2, 6353400, Note_on_c, 0, 78, 100
2, 6353520, Note_on_c, 0, 78, 0
2, 6353520, Note_on_c, 0, 76, 100
2, 6353760, Note_on_c, 0, 76, 0
2, 6353760, Note_on_c, 0, 75, 100
2, 6353820, Note_on_c, 0, 75, 0
2, 6353820, Note_on_c, 0, 76, 100
2, 6353880, Note_on_c, 0, 76, 0
2, 6353880, Note_on_c, 0, 75, 100
2, 6353940, Note_on_c, 0, 75, 0
2, 6353940, Note_on_c, 0, 73, 100
2, 6354120, Note_on_c, 0, 73, 0
2, 6354120, Note_on_c, 0, 75, 100
2, 6354240, Note_on_c, 0, 75, 0
2, 6354240, Note_on_c, 0, 71, 100
2, 6354480, Note_on_c, 0, 71, 0
2, 6354480, Note_on_c, 0, 83, 100
2, 6355560, Note_on_c, 0, 83, 0
2, 6355560, Note_on_c, 0, 78, 100
2, 6355680, Note_on_c, 0, 78, 0
2, 6355680, Note_on_c, 0, 79, 100
2, 6355920, Note_on_c, 0, 79, 0
2, 6355920, Note_on_c, 0, 75, 100
2, 6356280, Note_on_c, 0, 75, 0
2, 6356280, Note_on_c, 0, 76, 100
2, 6356400, Note_on_c, 0, 76, 0
2, 6356400, Note_on_c, 0, 72, 100
2, 6356640, Note_on_c, 0, 72, 0
2, 6356640, Note_on_c, 0, 76, 100
2, 6357000, Note_on_c, 0, 76, 0
2, 6357000, Note_on_c, 0, 80, 100
2, 6357120, Note_on_c, 0, 80, 0
2, 6357120, Note_on_c, 0, 81, 100
2, 6357360, Note_on_c, 0, 81, 0
2, 6357360, Note_on_c, 0, 83, 100
2, 6357840, Note_on_c, 0, 83, 0
2, 6357840, Note_on_c, 0, 81, 100
2, 6357900, Note_on_c, 0, 81, 0
2, 6357900, Note_on_c, 0, 79, 100
2, 6357960, Note_on_c, 0, 79, 0
2, 6357960, Note_on_c, 0, 78, 100
2, 6358020, Note_on_c, 0, 78, 0
2, 6358020, Note_on_c, 0, 79, 100
2, 6358080, Note_on_c, 0, 79, 0
2, 6358080, Note_on_c, 0, 81, 100
2, 6358440, Note_on_c, 0, 81, 0
2, 6358440, Note_on_c, 0, 83, 100
2, 6358560, Note_on_c, 0, 83, 0
2, 6358560, Note_on_c, 0, 76, 100
2, 6358800, Note_on_c, 0, 76, 0
2, 6358800, Note_on_c, 0, 78, 100
2, 6359160, Note_on_c, 0, 78, 0
2, 6359160, Note_on_c, 0, 75, 100
2, 6359280, Note_on_c, 0, 75, 0
2, 6359280, Note_on_c, 0, 76, 100
2, 6359520, Note_on_c, 0, 76, 0
2, 6359520, Note_on_c, 0, 71, 100
2, 6359880, Note_on_c, 0, 71, 0
2, 6359880, Note_on_c, 0, 67, 100
2, 6360000, Note_on_c, 0, 67, 0
2, 6360000, Note_on_c, 0, 64, 100
2, 6360240, Note_on_c, 0, 64, 0
2, 6360240, Note_on_c, 0, 71, 100
2, 6360960, Note_on_c, 0, 71, 0
2, 6360960, Note_on_c, 0, 68, 100
2, 6361320, Note_on_c, 0, 68, 0
2, 6361320, Note_on_c, 0, 69, 100
2, 6361440, Note_on_c, 0, 69, 0
2, 6361440, Note_on_c, 0, 74, 100
2, 6361680, Note_on_c, 0, 74, 0
2, 6361680, Note_on_c, 0, 76, 100
2, 6361920, Note_on_c, 0, 76, 0
2, 6361920, Note_on_c, 0, 74, 100
2, 6362040, Note_on_c, 0, 74, 0
2, 6362040, Note_on_c, 0, 72, 100
2, 6362160, Note_on_c, 0, 72, 0
2, 6362160, Note_on_c, 0, 71, 100
2, 6362280, Note_on_c, 0, 71, 0
2, 6362280, Note_on_c, 0, 72, 100
2, 6362400, Note_on_c, 0, 72, 0
2, 6362400, Note_on_c, 0, 76, 100
2, 6362760, Note_on_c, 0, 76, 0
2, 6362760, Note_on_c, 0, 74, 100
2, 6362880, Note_on_c, 0, 74, 0
2, 6362880, Note_on_c, 0, 76, 100
2, 6363120, Note_on_c, 0, 76, 0
2, 6363120, Note_on_c, 0, 79, 100
2, 6363480, Note_on_c, 0, 79, 0
2, 6363480, Note_on_c, 0, 78, 100
2, 6363600, Note_on_c, 0, 78, 0
2, 6363600, Note_on_c, 0, 79, 100
2, 6363840, Note_on_c, 0, 79, 0
2, 6363840, Note_on_c, 0, 81, 100
2, 6364080, Note_on_c, 0, 81, 0
2, 6364080, Note_on_c, 0, 79, 100
2, 6364200, Note_on_c, 0, 79, 0
2, 6364200, Note_on_c, 0, 78, 100
2, 6364320, Note_on_c, 0, 78, 0
2, 6364320, Note_on_c, 0, 76, 100
2, 6364440, Note_on_c, 0, 76, 0
2, 6364440, Note_on_c, 0, 81, 100
2, 6364560, Note_on_c, 0, 81, 0
2, 6364560, Note_on_c, 0, 83, 100
2, 6364920, Note_on_c, 0, 83, 0
2, 6364920, Note_on_c, 0, 79, 100
2, 6365280, Note_on_c, 0, 79, 0
2, 6365280, Note_on_c, 0, 78, 100
2, 6365340, Note_on_c, 0, 78, 0
2, 6365340, Note_on_c, 0, 79, 100
2, 6365400, Note_on_c, 0, 79, 0
2, 6365400, Note_on_c, 0, 78, 100
2, 6365460, Note_on_c, 0, 78, 0
2, 6365460, Note_on_c, 0, 76, 100
2, 6365640, Note_on_c, 0, 76, 0
2, 6365640, Note_on_c, 0, 78, 100
2, 6365760, Note_on_c, 0, 78, 0
2, 6365760, Note_on_c, 0, 74, 100
2, 6366000, Note_on_c, 0, 74, 0
2, 6366000, Note_on_c, 0, 76, 100
2, 6367200, Note_on_c, 0, 76, 0
2, 6367200, Note_on_c, 0, 78, 100
2, 6367260, Note_on_c, 0, 78, 0
2, 6367260, Note_on_c, 0, 79, 100
2, 6367320, Note_on_c, 0, 79, 0
2, 6367320, Note_on_c, 0, 81, 100
2, 6367380, Note_on_c, 0, 81, 0
2, 6367380, Note_on_c, 0, 83, 100
2, 6367440, Note_on_c, 0, 83, 0
2, 6367440, Note_on_c, 0, 79, 100
2, 6367800, Note_on_c, 0, 79, 0
2, 6367800, Note_on_c, 0, 74, 100
2, 6367920, Note_on_c, 0, 74, 0
2, 6367920, Note_on_c, 0, 76, 100
2, 6368160, Note_on_c, 0, 76, 0
2, 6368160, Note_on_c, 0, 78, 100
2, 6368640, Note_on_c, 0, 78, 0
2, 6368640, Note_on_c, 0, 79, 100
2, 6368700, Note_on_c, 0, 79, 0
2, 6368700, Note_on_c, 0, 81, 100
2, 6368760, Note_on_c, 0, 81, 0
2, 6368760, Note_on_c, 0, 83, 100
2, 6368820, Note_on_c, 0, 83, 0
2, 6368820, Note_on_c, 0, 84, 100
2, 6368880, Note_on_c, 0, 84, 0
2, 6368880, Note_on_c, 0, 81, 100
2, 6369240, Note_on_c, 0, 81, 0
2, 6369240, Note_on_c, 0, 76, 100
2, 6369360, Note_on_c, 0, 76, 0
2, 6369360, Note_on_c, 0, 78, 100
2, 6369600, Note_on_c, 0, 78, 0
2, 6369600, Note_on_c, 0, 74, 100
2, 6369960, Note_on_c, 0, 74, 0
2, 6369960, Note_on_c, 0, 86, 100
2, 6370080, Note_on_c, 0, 86, 0
2, 6370080, Note_on_c, 0, 79, 100
2, 6370320, Note_on_c, 0, 79, 0
2, 6370320, Note_on_c, 0, 81, 100
2, 6370680, Note_on_c, 0, 81, 0
2, 6370680, Note_on_c, 0, 78, 100
2, 6370800, Note_on_c, 0, 78, 0
2, 6370800, Note_on_c, 0, 79, 100
2, 6371040, Note_on_c, 0, 79, 0
2, 6371040, Note_on_c, 0, 78, 100
2, 6372480, Note_on_c, 0, 78, 0
2, 6372480, Note_on_c, 0, 76, 100
2, 6372840, Note_on_c, 0, 76, 0
2, 6372840, Note_on_c, 0, 78, 100
2, 6372960, Note_on_c, 0, 78, 0
2, 6372960, Note_on_c, 0, 69, 100
2, 6373200, Note_on_c, 0, 69, 0
2, 6373200, Note_on_c, 0, 74, 100
2, 6373560, Note_on_c, 0, 74, 0
2, 6373560, Note_on_c, 0, 78, 100
2, 6373680, Note_on_c, 0, 78, 0
2, 6373680, Note_on_c, 0, 79, 100
2, 6373920, Note_on_c, 0, 79, 0
2, 6373920, Note_on_c, 0, 78, 100
2, 6374280, Note_on_c, 0, 78, 0
2, 6374280, Note_on_c, 0, 79, 100
2, 6374400, Note_on_c, 0, 79, 0
2, 6374400, Note_on_c, 0, 83, 100
2, 6374640, Note_on_c, 0, 83, 0
2, 6374640, Note_on_c, 0, 76, 100
2, 6375360, Note_on_c, 0, 76, 0
2, 6375360, Note_on_c, 0, 78, 100
2, 6375840, Note_on_c, 0, 78, 0
2, 6375840, Note_on_c, 0, 79, 100
2, 6375900, Note_on_c, 0, 79, 0
2, 6375900, Note_on_c, 0, 81, 100
2, 6375960, Note_on_c, 0, 81, 0
2, 6375960, Note_on_c, 0, 83, 100
2, 6376020, Note_on_c, 0, 83, 0
2, 6376020, Note_on_c, 0, 84, 100
2, 6376080, Note_on_c, 0, 84, 0
2, 6376080, Note_on_c, 0, 83, 100
2, 6376200, Note_on_c, 0, 83, 0
2, 6376200, Note_on_c, 0, 81, 100
2, 6376320, Note_on_c, 0, 81, 0
2, 6376320, Note_on_c, 0, 79, 100
2, 6376440, Note_on_c, 0, 79, 0
2, 6376440, Note_on_c, 0, 78, 100
2, 6376560, Note_on_c, 0, 78, 0
2, 6376560, Note_on_c, 0, 76, 100
2, 6376800, Note_on_c, 0, 76, 0
2, 6376800, Note_on_c, 0, 75, 100
2, 6376860, Note_on_c, 0, 75, 0
2, 6376860, Note_on_c, 0, 76, 100
2, 6376920, Note_on_c, 0, 76, 0
2, 6376920, Note_on_c, 0, 75, 100
2, 6376980, Note_on_c, 0, 75, 0
2, 6376980, Note_on_c, 0, 73, 100
2, 6377160, Note_on_c, 0, 73, 0
2, 6377160, Note_on_c, 0, 75, 100
2, 6377280, Note_on_c, 0, 75, 0
2, 6377280, Note_on_c, 0, 71, 100
2, 6377520, Note_on_c, 0, 71, 0
2, 6377520, Note_on_c, 0, 83, 100
2, 6378600, Note_on_c, 0, 83, 0
2, 6378600, Note_on_c, 0, 78, 100
2, 6378720, Note_on_c, 0, 78, 0
2, 6378720, Note_on_c, 0, 79, 100
2, 6378960, Note_on_c, 0, 79, 0
2, 6378960, Note_on_c, 0, 75, 100
2, 6379320, Note_on_c, 0, 75, 0
2, 6379320, Note_on_c, 0, 76, 100
2, 6379440, Note_on_c, 0, 76, 0
2, 6379440, Note_on_c, 0, 72, 100
2, 6379680, Note_on_c, 0, 72, 0
2, 6379680, Note_on_c, 0, 76, 100
2, 6380040, Note_on_c, 0, 76, 0
2, 6380040, Note_on_c, 0, 80, 100
2, 6380160, Note_on_c, 0, 80, 0
2, 6380160, Note_on_c, 0, 81, 100
2, 6380400, Note_on_c, 0, 81, 0
2, 6380400, Note_on_c, 0, 83, 100
2, 6380880, Note_on_c, 0, 83, 0
2, 6380880, Note_on_c, 0, 81, 100
2, 6380940, Note_on_c, 0, 81, 0
2, 6380940, Note_on_c, 0, 79, 100
2, 6381000, Note_on_c, 0, 79, 0
2, 6381000, Note_on_c, 0, 78, 100
2, 6381060, Note_on_c, 0, 78, 0
2, 6381060, Note_on_c, 0, 79, 100
2, 6381120, Note_on_c, 0, 79, 0
2, 6381120, Note_on_c, 0, 81, 100
2, 6381480, Note_on_c, 0, 81, 0
2, 6381480, Note_on_c, 0, 83, 100
2, 6381600, Note_on_c, 0, 83, 0
2, 6381600, Note_on_c, 0, 76, 100
2, 6381840, Note_on_c, 0, 76, 0
2, 6381840, Note_on_c, 0, 78, 100
2, 6382200, Note_on_c, 0, 78, 0
2, 6382200, Note_on_c, 0, 75, 100
2, 6382320, Note_on_c, 0, 75, 0
2, 6382320, Note_on_c, 0, 76, 100
2, 6382560, Note_on_c, 0, 76, 0
2, 6382560, Note_on_c, 0, 71, 100
2, 6382920, Note_on_c, 0, 71, 0
2, 6382920, Note_on_c, 0, 67, 100
2, 6383040, Note_on_c, 0, 67, 0
2, 6383040, Note_on_c, 0, 64, 100
2, 6383280, Note_on_c, 0, 64, 0
2, 6383280, Note_on_c, 0, 71, 100
2, 6384000, Note_on_c, 0, 71, 0
2, 6384000, Note_on_c, 0, 68, 100
2, 6384360, Note_on_c, 0, 68, 0
2, 6384360, Note_on_c, 0, 69, 100
2, 6384480, Note_on_c, 0, 69, 0
2, 6384480, Note_on_c, 0, 74, 100
2, 6384720, Note_on_c, 0, 74, 0
2, 6384720, Note_on_c, 0, 76, 100
2, 6384960, Note_on_c, 0, 76, 0
2, 6384960, Note_on_c, 0, 74, 100
2, 6385080, Note_on_c, 0, 74, 0
2, 6385080, Note_on_c, 0, 72, 100
2, 6385200, Note_on_c, 0, 72, 0
2, 6385200, Note_on_c, 0, 71, 100
2, 6385320, Note_on_c, 0, 71, 0
2, 6385320, Note_on_c, 0, 72, 100
2, 6385440, Note_on_c, 0, 72, 0
2, 6385440, Note_on_c, 0, 76, 100
2, 6385800, Note_on_c, 0, 76, 0
2, 6385800, Note_on_c, 0, 74, 100
2, 6385920, Note_on_c, 0, 74, 0
2, 6385920, Note_on_c, 0, 76, 100
2, 6386160, Note_on_c, 0, 76, 0
2, 6386160, Note_on_c, 0, 79, 100
2, 6386520, Note_on_c, 0, 79, 0
2, 6386520, Note_on_c, 0, 78, 100
2, 6386640, Note_on_c, 0, 78, 0
2, 6386640, Note_on_c, 0, 79, 100
2, 6386880, Note_on_c, 0, 79, 0
2, 6386880, Note_on_c, 0, 81, 100
2, 6387120, Note_on_c, 0, 81, 0
2, 6387120, Note_on_c, 0, 79, 100
2, 6387240, Note_on_c, 0, 79, 0
2, 6387240, Note_on_c, 0, 78, 100
2, 6387360, Note_on_c, 0, 78, 0
2, 6387360, Note_on_c, 0, 76, 100
2, 6387480, Note_on_c, 0, 76, 0
2, 6387480, Note_on_c, 0, 81, 100
2, 6387600, Note_on_c, 0, 81, 0
2, 6387600, Note_on_c, 0, 83, 100
2, 6387960, Note_on_c, 0, 83, 0
2, 6387960, Note_on_c, 0, 79, 100
2, 6388320, Note_on_c, 0, 79, 0
2, 6388320, Note_on_c, 0, 78, 100
2, 6388380, Note_on_c, 0, 78, 0
2, 6388380, Note_on_c, 0, 79, 100
2, 6388440, Note_on_c, 0, 79, 0
2, 6388440, Note_on_c, 0, 78, 100
2, 6388500, Note_on_c, 0, 78, 0
2, 6388500, Note_on_c, 0, 76, 100
2, 6388680, Note_on_c, 0, 76, 0
2, 6388680, Note_on_c, 0, 78, 100
2, 6388800, Note_on_c, 0, 78, 0
2, 6388800, Note_on_c, 0, 74, 100
2, 6389040, Note_on_c, 0, 74, 0
2, 6389040, Note_on_c, 0, 76, 100
2, 6390240, Note_on_c, 0, 76, 0
2, 6390240, Note_on_c, 0, 78, 100
2, 6390300, Note_on_c, 0, 78, 0
2, 6390300, Note_on_c, 0, 79, 100
2, 6390360, Note_on_c, 0, 79, 0
2, 6390360, Note_on_c, 0, 81, 100
2, 6390420, Note_on_c, 0, 81, 0
2, 6390420, Note_on_c, 0, 83, 100
2, 6390480, Note_on_c, 0, 83, 0
2, 6390480, Note_on_c, 0, 79, 100
2, 6390840, Note_on_c, 0, 79, 0
2, 6390840, Note_on_c, 0, 74, 100
2, 6390960, Note_on_c, 0, 74, 0
2, 6390960, Note_on_c, 0, 76, 100
2, 6391200, Note_on_c, 0, 76, 0
2, 6391200, Note_on_c, 0, 78, 100
2, 6391680, Note_on_c, 0, 78, 0
2, 6391680, Note_on_c, 0, 79, 100
2, 6391740, Note_on_c, 0, 79, 0
2, 6391740, Note_on_c, 0, 81, 100
2, 6391800, Note_on_c, 0, 81, 0
2, 6391800, Note_on_c, 0, 83, 100
2, 6391860, Note_on_c, 0, 83, 0
2, 6391860, Note_on_c, 0, 84, 100
2, 6391920, Note_on_c, 0, 84, 0
2, 6391920, Note_on_c, 0, 81, 100
2, 6392280, Note_on_c, 0, 81, 0
2, 6392280, Note_on_c, 0, 76, 100
2, 6392400, Note_on_c, 0, 76, 0
2, 6392400, Note_on_c, 0, 78, 100
2, 6392640, Note_on_c, 0, 78, 0
2, 6392640, Note_on_c, 0, 74, 100
2, 6393000, Note_on_c, 0, 74, 0
2, 6393000, Note_on_c, 0, 86, 100
2, 6393120, Note_on_c, 0, 86, 0
2, 6393120, Note_on_c, 0, 79, 100
2, 6393360, Note_on_c, 0, 79, 0
2, 6393360, Note_on_c, 0, 81, 100
2, 6393720, Note_on_c, 0, 81, 0
2, 6393720, Note_on_c, 0, 78, 100
2, 6393840, Note_on_c, 0, 78, 0
2, 6393840, Note_on_c, 0, 79, 100
2, 6394080, Note_on_c, 0, 79, 0
2, 6394080, Note_on_c, 0, 62, 100
2, 6395520, Note_on_c, 0, 62, 0
2, 6395520, Note_on_c, 0, 67, 100
2, 6395640, Note_on_c, 0, 67, 0
2, 6395640, Note_on_c, 0, 71, 100
2, 6395760, Note_on_c, 0, 71, 0
2, 6395760, Note_on_c, 0, 69, 100
2, 6395880, Note_on_c, 0, 69, 0
2, 6395880, Note_on_c, 0, 67, 100
2, 6396000, Note_on_c, 0, 67, 0
2, 6396000, Note_on_c, 0, 71, 100
2, 6396120, Note_on_c, 0, 71, 0
2, 6396120, Note_on_c, 0, 74, 100
2, 6396240, Note_on_c, 0, 74, 0
2, 6396240, Note_on_c, 0, 72, 100
2, 6396360, Note_on_c, 0, 72, 0
2, 6396360, Note_on_c, 0, 71, 100
2, 6396480, Note_on_c, 0, 71, 0
2, 6396480, Note_on_c, 0, 74, 100
2, 6396600, Note_on_c, 0, 74, 0
2, 6396600, Note_on_c, 0, 79, 100
2, 6396720, Note_on_c, 0, 79, 0
2, 6396720, Note_on_c, 0, 62, 100
2, 6396960, Note_on_c, 0, 62, 0
2, 6396960, Note_on_c, 0, 66, 100
2, 6397080, Note_on_c, 0, 66, 0
2, 6397080, Note_on_c, 0, 69, 100
2, 6397200, Note_on_c, 0, 69, 0
2, 6397200, Note_on_c, 0, 67, 100
2, 6397320, Note_on_c, 0, 67, 0
2, 6397320, Note_on_c, 0, 66, 100
2, 6397440, Note_on_c, 0, 66, 0
2, 6397440, Note_on_c, 0, 69, 100
2, 6397560, Note_on_c, 0, 69, 0
2, 6397560, Note_on_c, 0, 72, 100
2, 6397680, Note_on_c, 0, 72, 0
2, 6397680, Note_on_c, 0, 71, 100
2, 6397800, Note_on_c, 0, 71, 0
2, 6397800, Note_on_c, 0, 69, 100
2, 6397920, Note_on_c, 0, 69, 0
2, 6397920, Note_on_c, 0, 74, 100
2, 6398040, Note_on_c, 0, 74, 0
2, 6398040, Note_on_c, 0, 78, 100
2, 6398160, Note_on_c, 0, 78, 0
2, 6398160, Note_on_c, 0, 59, 100
2, 6398400, Note_on_c, 0, 59, 0
2, 6398400, Note_on_c, 0, 64, 100
2, 6398520, Note_on_c, 0, 64, 0
2, 6398520, Note_on_c, 0, 67, 100
2, 6398640, Note_on_c, 0, 67, 0
2, 6398640, Note_on_c, 0, 66, 100
2, 6398760, Note_on_c, 0, 66, 0
2, 6398760, Note_on_c, 0, 64, 100
2, 6398880, Note_on_c, 0, 64, 0
2, 6398880, Note_on_c, 0, 67, 100
2, 6399000, Note_on_c, 0, 67, 0
2, 6399000, Note_on_c, 0, 71, 100
2, 6399120, Note_on_c, 0, 71, 0
2, 6399120, Note_on_c, 0, 69, 100
2, 6399240, Note_on_c, 0, 69, 0
2, 6399240, Note_on_c, 0, 67, 100
2, 6399360, Note_on_c, 0, 67, 0
2, 6399360, Note_on_c, 0, 73, 100
2, 6399480, Note_on_c, 0, 73, 0
2, 6399480, Note_on_c, 0, 76, 100
2, 6399600, Note_on_c, 0, 76, 0
2, 6399600, Note_on_c, 0, 57, 100
2, 6399840, Note_on_c, 0, 57, 0
2, 6399840, Note_on_c, 0, 62, 100
2, 6399960, Note_on_c, 0, 62, 0
2, 6399960, Note_on_c, 0, 66, 100
2, 6400080, Note_on_c, 0, 66, 0
2, 6400080, Note_on_c, 0, 64, 100
2, 6400200, Note_on_c, 0, 64, 0
2, 6400200, Note_on_c, 0, 62, 100
2, 6400320, Note_on_c, 0, 62, 0
2, 6400320, Note_on_c, 0, 66, 100
2, 6400440, Note_on_c, 0, 66, 0
2, 6400440, Note_on_c, 0, 69, 100
2, 6400560, Note_on_c, 0, 69, 0
2, 6400560, Note_on_c, 0, 67, 100
2, 6400680, Note_on_c, 0, 67, 0
2, 6400680, Note_on_c, 0, 66, 100
2, 6400800, Note_on_c, 0, 66, 0
2, 6400800, Note_on_c, 0, 69, 100
2, 6400920, Note_on_c, 0, 69, 0
2, 6400920, Note_on_c, 0, 74, 100
2, 6401040, Note_on_c, 0, 74, 0
2, 6401040, Note_on_c, 0, 71, 100
2, 6401400, Note_on_c, 0, 71, 0
2, 6401400, Note_on_c, 0, 67, 100
2, 6401520, Note_on_c, 0, 67, 0
2, 6401520, Note_on_c, 0, 69, 100
2, 6401640, Note_on_c, 0, 69, 0
2, 6401640, Note_on_c, 0, 71, 100
2, 6401760, Note_on_c, 0, 71, 0
2, 6401760, Note_on_c, 0, 67, 100
2, 6401880, Note_on_c, 0, 67, 0
2, 6401880, Note_on_c, 0, 62, 100
2, 6402000, Note_on_c, 0, 62, 0
2, 6402000, Note_on_c, 0, 64, 100
2, 6402120, Note_on_c, 0, 64, 0
2, 6402120, Note_on_c, 0, 65, 100
2, 6402240, Note_on_c, 0, 65, 0
2, 6402240, Note_on_c, 0, 62, 100
2, 6402360, Note_on_c, 0, 62, 0
2, 6402360, Note_on_c, 0, 59, 100
2, 6402480, Note_on_c, 0, 59, 0
2, 6402480, Note_on_c, 0, 76, 100
2, 6402720, Note_on_c, 0, 76, 0
2, 6402720, Note_on_c, 0, 72, 100
2, 6402840, Note_on_c, 0, 72, 0
2, 6402840, Note_on_c, 0, 69, 100
2, 6402960, Note_on_c, 0, 69, 0
2, 6402960, Note_on_c, 0, 71, 100
2, 6403080, Note_on_c, 0, 71, 0
2, 6403080, Note_on_c, 0, 72, 100
2, 6403200, Note_on_c, 0, 72, 0
2, 6403200, Note_on_c, 0, 69, 100
2, 6403320, Note_on_c, 0, 69, 0
2, 6403320, Note_on_c, 0, 64, 100
2, 6403440, Note_on_c, 0, 64, 0
2, 6403440, Note_on_c, 0, 66, 100
2, 6403560, Note_on_c, 0, 66, 0
2, 6403560, Note_on_c, 0, 67, 100
2, 6403680, Note_on_c, 0, 67, 0
2, 6403680, Note_on_c, 0, 64, 100
2, 6403800, Note_on_c, 0, 64, 0
2, 6403800, Note_on_c, 0, 60, 100
2, 6403920, Note_on_c, 0, 60, 0
2, 6403920, Note_on_c, 0, 81, 100
2, 6404160, Note_on_c, 0, 81, 0
2, 6404160, Note_on_c, 0, 78, 100
2, 6404280, Note_on_c, 0, 78, 0
2, 6404280, Note_on_c, 0, 74, 100
2, 6404400, Note_on_c, 0, 74, 0
2, 6404400, Note_on_c, 0, 76, 100
2, 6404520, Note_on_c, 0, 76, 0
2, 6404520, Note_on_c, 0, 78, 100
2, 6404640, Note_on_c, 0, 78, 0
2, 6404640, Note_on_c, 0, 74, 100
2, 6404760, Note_on_c, 0, 74, 0
2, 6404760, Note_on_c, 0, 69, 100
2, 6404880, Note_on_c, 0, 69, 0
2, 6404880, Note_on_c, 0, 71, 100
2, 6405000, Note_on_c, 0, 71, 0
2, 6405000, Note_on_c, 0, 72, 100
2, 6405120, Note_on_c, 0, 72, 0
2, 6405120, Note_on_c, 0, 69, 100
2, 6405240, Note_on_c, 0, 69, 0
2, 6405240, Note_on_c, 0, 66, 100
2, 6405360, Note_on_c, 0, 66, 0
2, 6405360, Note_on_c, 0, 72, 100
2, 6405480, Note_on_c, 0, 72, 0
2, 6405480, Note_on_c, 0, 71, 100
2, 6405600, Note_on_c, 0, 71, 0
2, 6405600, Note_on_c, 0, 67, 100
2, 6405720, Note_on_c, 0, 67, 0
2, 6405720, Note_on_c, 0, 62, 100
2, 6405840, Note_on_c, 0, 62, 0
2, 6405840, Note_on_c, 0, 66, 100
2, 6405960, Note_on_c, 0, 66, 0
2, 6405960, Note_on_c, 0, 67, 100
2, 6406080, Note_on_c, 0, 67, 0
2, 6406080, Note_on_c, 0, 62, 100
2, 6406200, Note_on_c, 0, 62, 0
2, 6406200, Note_on_c, 0, 59, 100
2, 6406320, Note_on_c, 0, 59, 0
2, 6406320, Note_on_c, 0, 60, 100
2, 6406440, Note_on_c, 0, 60, 0
2, 6406440, Note_on_c, 0, 62, 100
2, 6406560, Note_on_c, 0, 62, 0
2, 6406560, Note_on_c, 0, 59, 100
2, 6406680, Note_on_c, 0, 59, 0
2, 6406680, Note_on_c, 0, 55, 100
2, 6406800, Note_on_c, 0, 55, 0
2, 6406800, Note_on_c, 0, 57, 100
2, 6406920, Note_on_c, 0, 57, 0
2, 6406920, Note_on_c, 0, 59, 100
2, 6407040, Note_on_c, 0, 59, 0
2, 6407040, Note_on_c, 0, 83, 100
2, 6407280, Note_on_c, 0, 83, 0
2, 6407280, Note_on_c, 0, 81, 100
2, 6407400, Note_on_c, 0, 81, 0
2, 6407400, Note_on_c, 0, 79, 100
2, 6407520, Note_on_c, 0, 79, 0
2, 6407520, Note_on_c, 0, 78, 100
2, 6407640, Note_on_c, 0, 78, 0
2, 6407640, Note_on_c, 0, 76, 100
2, 6407760, Note_on_c, 0, 76, 0
2, 6407760, Note_on_c, 0, 74, 100
2, 6407880, Note_on_c, 0, 74, 0
2, 6407880, Note_on_c, 0, 73, 100
2, 6408000, Note_on_c, 0, 73, 0
2, 6408000, Note_on_c, 0, 76, 100
2, 6408120, Note_on_c, 0, 76, 0
2, 6408120, Note_on_c, 0, 74, 100
2, 6408240, Note_on_c, 0, 74, 0
2, 6408240, Note_on_c, 0, 76, 100
2, 6408360, Note_on_c, 0, 76, 0
2, 6408360, Note_on_c, 0, 69, 100
2, 6408480, Note_on_c, 0, 69, 0
2, 6408480, Note_on_c, 0, 81, 100
2, 6408720, Note_on_c, 0, 81, 0
2, 6408720, Note_on_c, 0, 79, 100
2, 6408840, Note_on_c, 0, 79, 0
2, 6408840, Note_on_c, 0, 78, 100
2, 6408960, Note_on_c, 0, 78, 0
2, 6408960, Note_on_c, 0, 76, 100
2, 6409080, Note_on_c, 0, 76, 0
2, 6409080, Note_on_c, 0, 74, 100
2, 6409200, Note_on_c, 0, 74, 0
2, 6409200, Note_on_c, 0, 73, 100
2, 6409320, Note_on_c, 0, 73, 0
2, 6409320, Note_on_c, 0, 71, 100
2, 6409440, Note_on_c, 0, 71, 0
2, 6409440, Note_on_c, 0, 74, 100
2, 6409560, Note_on_c, 0, 74, 0
2, 6409560, Note_on_c, 0, 73, 100
2, 6409680, Note_on_c, 0, 73, 0
2, 6409680, Note_on_c, 0, 74, 100
2, 6409800, Note_on_c, 0, 74, 0
2, 6409800, Note_on_c, 0, 67, 100
2, 6409920, Note_on_c, 0, 67, 0
2, 6409920, Note_on_c, 0, 79, 100
2, 6410160, Note_on_c, 0, 79, 0
2, 6410160, Note_on_c, 0, 78, 100
2, 6410280, Note_on_c, 0, 78, 0
2, 6410280, Note_on_c, 0, 76, 100
2, 6410400, Note_on_c, 0, 76, 0
2, 6410400, Note_on_c, 0, 74, 100
2, 6410520, Note_on_c, 0, 74, 0
2, 6410520, Note_on_c, 0, 73, 100
2, 6410640, Note_on_c, 0, 73, 0
2, 6410640, Note_on_c, 0, 71, 100
2, 6410760, Note_on_c, 0, 71, 0
2, 6410760, Note_on_c, 0, 69, 100
2, 6410880, Note_on_c, 0, 69, 0
2, 6410880, Note_on_c, 0, 73, 100
2, 6411000, Note_on_c, 0, 73, 0
2, 6411000, Note_on_c, 0, 71, 100
2, 6411120, Note_on_c, 0, 71, 0
2, 6411120, Note_on_c, 0, 74, 100
2, 6411240, Note_on_c, 0, 74, 0
2, 6411240, Note_on_c, 0, 73, 100
2, 6411360, Note_on_c, 0, 73, 0
2, 6411360, Note_on_c, 0, 76, 100
2, 6411480, Note_on_c, 0, 76, 0
2, 6411480, Note_on_c, 0, 69, 100
2, 6411600, Note_on_c, 0, 69, 0
2, 6411600, Note_on_c, 0, 71, 100
2, 6411720, Note_on_c, 0, 71, 0
2, 6411720, Note_on_c, 0, 73, 100
2, 6411840, Note_on_c, 0, 73, 0
2, 6411840, Note_on_c, 0, 69, 100
2, 6411960, Note_on_c, 0, 69, 0
2, 6411960, Note_on_c, 0, 64, 100
2, 6412080, Note_on_c, 0, 64, 0
2, 6412080, Note_on_c, 0, 66, 100
2, 6412200, Note_on_c, 0, 66, 0
2, 6412200, Note_on_c, 0, 67, 100
2, 6412320, Note_on_c, 0, 67, 0
2, 6412320, Note_on_c, 0, 64, 100
2, 6412440, Note_on_c, 0, 64, 0
2, 6412440, Note_on_c, 0, 61, 100
2, 6412560, Note_on_c, 0, 61, 0
2, 6412560, Note_on_c, 0, 64, 100
2, 6412680, Note_on_c, 0, 64, 0
2, 6412680, Note_on_c, 0, 62, 100
2, 6412800, Note_on_c, 0, 62, 0
2, 6412800, Note_on_c, 0, 66, 100
2, 6413040, Note_on_c, 0, 66, 0
2, 6413040, Note_on_c, 0, 69, 100
2, 6413280, Note_on_c, 0, 69, 0
2, 6413280, Note_on_c, 0, 74, 100
2, 6413520, Note_on_c, 0, 74, 0
2, 6413520, Note_on_c, 0, 72, 100
2, 6413880, Note_on_c, 0, 72, 0
2, 6413880, Note_on_c, 0, 69, 100
2, 6414000, Note_on_c, 0, 69, 0
2, 6414000, Note_on_c, 0, 66, 100
2, 6414120, Note_on_c, 0, 66, 0
2, 6414120, Note_on_c, 0, 67, 100
2, 6414240, Note_on_c, 0, 67, 0
2, 6414240, Note_on_c, 0, 71, 100
2, 6414480, Note_on_c, 0, 71, 0
2, 6414480, Note_on_c, 0, 74, 100
2, 6414720, Note_on_c, 0, 74, 0
2, 6414720, Note_on_c, 0, 79, 100
2, 6415320, Note_on_c, 0, 79, 0
2, 6415320, Note_on_c, 0, 78, 100
2, 6415440, Note_on_c, 0, 78, 0
2, 6415440, Note_on_c, 0, 79, 100
2, 6415560, Note_on_c, 0, 79, 0
2, 6415560, Note_on_c, 0, 69, 100
2, 6415680, Note_on_c, 0, 69, 0
2, 6415680, Note_on_c, 0, 73, 100
2, 6415920, Note_on_c, 0, 73, 0
2, 6415920, Note_on_c, 0, 76, 100
2, 6416160, Note_on_c, 0, 76, 0
2, 6416160, Note_on_c, 0, 79, 100
2, 6416760, Note_on_c, 0, 79, 0
2, 6416760, Note_on_c, 0, 81, 100
2, 6416880, Note_on_c, 0, 81, 0
2, 6416880, Note_on_c, 0, 73, 100
2, 6417000, Note_on_c, 0, 73, 0
2, 6417000, Note_on_c, 0, 74, 100
2, 6417120, Note_on_c, 0, 74, 0
2, 6417120, Note_on_c, 0, 78, 100
2, 6417240, Note_on_c, 0, 78, 0
2, 6417240, Note_on_c, 0, 81, 100
2, 6417360, Note_on_c, 0, 81, 0
2, 6417360, Note_on_c, 0, 85, 100
2, 6417480, Note_on_c, 0, 85, 0
2, 6417480, Note_on_c, 0, 86, 100
2, 6417600, Note_on_c, 0, 86, 0
2, 6417600, Note_on_c, 0, 85, 100
2, 6417720, Note_on_c, 0, 85, 0
2, 6417720, Note_on_c, 0, 83, 100
2, 6417780, Note_on_c, 0, 83, 0
2, 6417780, Note_on_c, 0, 81, 100
2, 6417840, Note_on_c, 0, 81, 0
2, 6417840, Note_on_c, 0, 79, 100
2, 6417900, Note_on_c, 0, 79, 0
2, 6417900, Note_on_c, 0, 78, 100
2, 6417960, Note_on_c, 0, 78, 0
2, 6417960, Note_on_c, 0, 76, 100
2, 6418020, Note_on_c, 0, 76, 0
2, 6418020, Note_on_c, 0, 74, 100
2, 6418080, Note_on_c, 0, 74, 0
2, 6418080, Note_on_c, 0, 62, 100
2, 6418560, Note_on_c, 0, 62, 0
2, 6418560, Note_on_c, 0, 67, 100
2, 6418680, Note_on_c, 0, 67, 0
2, 6418680, Note_on_c, 0, 71, 100
2, 6418800, Note_on_c, 0, 71, 0
2, 6418800, Note_on_c, 0, 69, 100
2, 6418920, Note_on_c, 0, 69, 0
2, 6418920, Note_on_c, 0, 67, 100
2, 6419040, Note_on_c, 0, 67, 0
2, 6419040, Note_on_c, 0, 71, 100
2, 6419160, Note_on_c, 0, 71, 0
2, 6419160, Note_on_c, 0, 74, 100
2, 6419280, Note_on_c, 0, 74, 0
2, 6419280, Note_on_c, 0, 72, 100
2, 6419400, Note_on_c, 0, 72, 0
2, 6419400, Note_on_c, 0, 71, 100
2, 6419520, Note_on_c, 0, 71, 0
2, 6419520, Note_on_c, 0, 74, 100
2, 6419640, Note_on_c, 0, 74, 0
2, 6419640, Note_on_c, 0, 79, 100
2, 6419760, Note_on_c, 0, 79, 0
2, 6419760, Note_on_c, 0, 62, 100
2, 6420000, Note_on_c, 0, 62, 0
2, 6420000, Note_on_c, 0, 66, 100
2, 6420120, Note_on_c, 0, 66, 0
2, 6420120, Note_on_c, 0, 69, 100
2, 6420240, Note_on_c, 0, 69, 0
2, 6420240, Note_on_c, 0, 67, 100
2, 6420360, Note_on_c, 0, 67, 0
2, 6420360, Note_on_c, 0, 66, 100
2, 6420480, Note_on_c, 0, 66, 0
2, 6420480, Note_on_c, 0, 69, 100
2, 6420600, Note_on_c, 0, 69, 0
2, 6420600, Note_on_c, 0, 72, 100
2, 6420720, Note_on_c, 0, 72, 0
2, 6420720, Note_on_c, 0, 71, 100
2, 6420840, Note_on_c, 0, 71, 0
2, 6420840, Note_on_c, 0, 69, 100
2, 6420960, Note_on_c, 0, 69, 0
2, 6420960, Note_on_c, 0, 74, 100
2, 6421080, Note_on_c, 0, 74, 0
2, 6421080, Note_on_c, 0, 78, 100
2, 6421200, Note_on_c, 0, 78, 0
2, 6421200, Note_on_c, 0, 59, 100
2, 6421440, Note_on_c, 0, 59, 0
2, 6421440, Note_on_c, 0, 64, 100
2, 6421560, Note_on_c, 0, 64, 0
2, 6421560, Note_on_c, 0, 67, 100
2, 6421680, Note_on_c, 0, 67, 0
2, 6421680, Note_on_c, 0, 66, 100
2, 6421800, Note_on_c, 0, 66, 0
2, 6421800, Note_on_c, 0, 64, 100
2, 6421920, Note_on_c, 0, 64, 0
2, 6421920, Note_on_c, 0, 67, 100
2, 6422040, Note_on_c, 0, 67, 0
2, 6422040, Note_on_c, 0, 71, 100
2, 6422160, Note_on_c, 0, 71, 0
2, 6422160, Note_on_c, 0, 69, 100
2, 6422280, Note_on_c, 0, 69, 0
2, 6422280, Note_on_c, 0, 67, 100
2, 6422400, Note_on_c, 0, 67, 0
2, 6422400, Note_on_c, 0, 73, 100
2, 6422520, Note_on_c, 0, 73, 0
2, 6422520, Note_on_c, 0, 76, 100
2, 6422640, Note_on_c, 0, 76, 0
2, 6422640, Note_on_c, 0, 57, 100
2, 6422880, Note_on_c, 0, 57, 0
2, 6422880, Note_on_c, 0, 62, 100
2, 6423000, Note_on_c, 0, 62, 0
2, 6423000, Note_on_c, 0, 66, 100
2, 6423120, Note_on_c, 0, 66, 0
2, 6423120, Note_on_c, 0, 64, 100
2, 6423240, Note_on_c, 0, 64, 0
2, 6423240, Note_on_c, 0, 62, 100
2, 6423360, Note_on_c, 0, 62, 0
2, 6423360, Note_on_c, 0, 66, 100
2, 6423480, Note_on_c, 0, 66, 0
2, 6423480, Note_on_c, 0, 69, 100
2, 6423600, Note_on_c, 0, 69, 0
2, 6423600, Note_on_c, 0, 67, 100
2, 6423720, Note_on_c, 0, 67, 0
2, 6423720, Note_on_c, 0, 66, 100
2, 6423840, Note_on_c, 0, 66, 0
2, 6423840, Note_on_c, 0, 69, 100
2, 6423960, Note_on_c, 0, 69, 0
2, 6423960, Note_on_c, 0, 74, 100
2, 6424080, Note_on_c, 0, 74, 0
2, 6424080, Note_on_c, 0, 71, 100
2, 6424440, Note_on_c, 0, 71, 0
2, 6424440, Note_on_c, 0, 67, 100
2, 6424560, Note_on_c, 0, 67, 0
2, 6424560, Note_on_c, 0, 69, 100
2, 6424680, Note_on_c, 0, 69, 0
2, 6424680, Note_on_c, 0, 71, 100
2, 6424800, Note_on_c, 0, 71, 0
2, 6424800, Note_on_c, 0, 67, 100
2, 6424920, Note_on_c, 0, 67, 0
2, 6424920, Note_on_c, 0, 62, 100
2, 6425040, Note_on_c, 0, 62, 0
2, 6425040, Note_on_c, 0, 64, 100
2, 6425160, Note_on_c, 0, 64, 0
2, 6425160, Note_on_c, 0, 65, 100
2, 6425280, Note_on_c, 0, 65, 0
2, 6425280, Note_on_c, 0, 62, 100
2, 6425400, Note_on_c, 0, 62, 0
2, 6425400, Note_on_c, 0, 59, 100
2, 6425520, Note_on_c, 0, 59, 0
2, 6425520, Note_on_c, 0, 76, 100
2, 6425760, Note_on_c, 0, 76, 0
2, 6425760, Note_on_c, 0, 72, 100
2, 6425880, Note_on_c, 0, 72, 0
2, 6425880, Note_on_c, 0, 69, 100
2, 6426000, Note_on_c, 0, 69, 0
2, 6426000, Note_on_c, 0, 71, 100
2, 6426120, Note_on_c, 0, 71, 0
2, 6426120, Note_on_c, 0, 72, 100
2, 6426240, Note_on_c, 0, 72, 0
2, 6426240, Note_on_c, 0, 69, 100
2, 6426360, Note_on_c, 0, 69, 0
2, 6426360, Note_on_c, 0, 64, 100
2, 6426480, Note_on_c, 0, 64, 0
2, 6426480, Note_on_c, 0, 66, 100
2, 6426600, Note_on_c, 0, 66, 0
2, 6426600, Note_on_c, 0, 67, 100
2, 6426720, Note_on_c, 0, 67, 0
2, 6426720, Note_on_c, 0, 64, 100
2, 6426840, Note_on_c, 0, 64, 0
2, 6426840, Note_on_c, 0, 60, 100
2, 6426960, Note_on_c, 0, 60, 0
2, 6426960, Note_on_c, 0, 81, 100
2, 6427200, Note_on_c, 0, 81, 0
2, 6427200, Note_on_c, 0, 78, 100
2, 6427320, Note_on_c, 0, 78, 0
2, 6427320, Note_on_c, 0, 74, 100
2, 6427440, Note_on_c, 0, 74, 0
2, 6427440, Note_on_c, 0, 76, 100
2, 6427560, Note_on_c, 0, 76, 0
2, 6427560, Note_on_c, 0, 78, 100
2, 6427680, Note_on_c, 0, 78, 0
2, 6427680, Note_on_c, 0, 74, 100
2, 6427800, Note_on_c, 0, 74, 0
2, 6427800, Note_on_c, 0, 69, 100
2, 6427920, Note_on_c, 0, 69, 0
2, 6427920, Note_on_c, 0, 71, 100
2, 6428040, Note_on_c, 0, 71, 0
2, 6428040, Note_on_c, 0, 72, 100
2, 6428160, Note_on_c, 0, 72, 0
2, 6428160, Note_on_c, 0, 69, 100
2, 6428280, Note_on_c, 0, 69, 0
2, 6428280, Note_on_c, 0, 66, 100
2, 6428400, Note_on_c, 0, 66, 0
2, 6428400, Note_on_c, 0, 72, 100
2, 6428520, Note_on_c, 0, 72, 0
2, 6428520, Note_on_c, 0, 71, 100
2, 6428640, Note_on_c, 0, 71, 0
2, 6428640, Note_on_c, 0, 67, 100
2, 6428760, Note_on_c, 0, 67, 0
2, 6428760, Note_on_c, 0, 62, 100
2, 6428880, Note_on_c, 0, 62, 0
2, 6428880, Note_on_c, 0, 66, 100
2, 6429000, Note_on_c, 0, 66, 0
2, 6429000, Note_on_c, 0, 67, 100
2, 6429120, Note_on_c, 0, 67, 0
2, 6429120, Note_on_c, 0, 62, 100
2, 6429240, Note_on_c, 0, 62, 0
2, 6429240, Note_on_c, 0, 59, 100
2, 6429360, Note_on_c, 0, 59, 0
2, 6429360, Note_on_c, 0, 60, 100
2, 6429480, Note_on_c, 0, 60, 0
2, 6429480, Note_on_c, 0, 62, 100
2, 6429600, Note_on_c, 0, 62, 0
2, 6429600, Note_on_c, 0, 59, 100
2, 6429720, Note_on_c, 0, 59, 0
2, 6429720, Note_on_c, 0, 55, 100
2, 6429840, Note_on_c, 0, 55, 0
2, 6429840, Note_on_c, 0, 57, 100
2, 6429960, Note_on_c, 0, 57, 0
2, 6429960, Note_on_c, 0, 59, 100
2, 6430080, Note_on_c, 0, 59, 0
2, 6430080, Note_on_c, 0, 83, 100
2, 6430320, Note_on_c, 0, 83, 0
2, 6430320, Note_on_c, 0, 81, 100
2, 6430440, Note_on_c, 0, 81, 0
2, 6430440, Note_on_c, 0, 79, 100
2, 6430560, Note_on_c, 0, 79, 0
2, 6430560, Note_on_c, 0, 78, 100
2, 6430680, Note_on_c, 0, 78, 0
2, 6430680, Note_on_c, 0, 76, 100
2, 6430800, Note_on_c, 0, 76, 0
2, 6430800, Note_on_c, 0, 74, 100
2, 6430920, Note_on_c, 0, 74, 0
2, 6430920, Note_on_c, 0, 73, 100
2, 6431040, Note_on_c, 0, 73, 0
2, 6431040, Note_on_c, 0, 76, 100
2, 6431160, Note_on_c, 0, 76, 0
2, 6431160, Note_on_c, 0, 74, 100
2, 6431280, Note_on_c, 0, 74, 0
2, 6431280, Note_on_c, 0, 76, 100
2, 6431400, Note_on_c, 0, 76, 0
2, 6431400, Note_on_c, 0, 69, 100
2, 6431520, Note_on_c, 0, 69, 0
2, 6431520, Note_on_c, 0, 81, 100
2, 6431760, Note_on_c, 0, 81, 0
2, 6431760, Note_on_c, 0, 79, 100
2, 6431880, Note_on_c, 0, 79, 0
2, 6431880, Note_on_c, 0, 78, 100
2, 6432000, Note_on_c, 0, 78, 0
2, 6432000, Note_on_c, 0, 76, 100
2, 6432120, Note_on_c, 0, 76, 0
2, 6432120, Note_on_c, 0, 74, 100
2, 6432240, Note_on_c, 0, 74, 0
2, 6432240, Note_on_c, 0, 73, 100
2, 6432360, Note_on_c, 0, 73, 0
2, 6432360, Note_on_c, 0, 71, 100
2, 6432480, Note_on_c, 0, 71, 0
2, 6432480, Note_on_c, 0, 74, 100
2, 6432600, Note_on_c, 0, 74, 0
2, 6432600, Note_on_c, 0, 73, 100
2, 6432720, Note_on_c, 0, 73, 0
2, 6432720, Note_on_c, 0, 74, 100
2, 6432840, Note_on_c, 0, 74, 0
2, 6432840, Note_on_c, 0, 67, 100
2, 6432960, Note_on_c, 0, 67, 0
2, 6432960, Note_on_c, 0, 79, 100
2, 6433200, Note_on_c, 0, 79, 0
2, 6433200, Note_on_c, 0, 78, 100
2, 6433320, Note_on_c, 0, 78, 0
2, 6433320, Note_on_c, 0, 76, 100
2, 6433440, Note_on_c, 0, 76, 0
2, 6433440, Note_on_c, 0, 74, 100
2, 6433560, Note_on_c, 0, 74, 0
2, 6433560, Note_on_c, 0, 73, 100
2, 6433680, Note_on_c, 0, 73, 0
2, 6433680, Note_on_c, 0, 71, 100
2, 6433800, Note_on_c, 0, 71, 0
2, 6433800, Note_on_c, 0, 69, 100
2, 6433920, Note_on_c, 0, 69, 0
2, 6433920, Note_on_c, 0, 73, 100
2, 6434040, Note_on_c, 0, 73, 0
2, 6434040, Note_on_c, 0, 71, 100
2, 6434160, Note_on_c, 0, 71, 0
2, 6434160, Note_on_c, 0, 74, 100
2, 6434280, Note_on_c, 0, 74, 0
2, 6434280, Note_on_c, 0, 73, 100
2, 6434400, Note_on_c, 0, 73, 0
2, 6434400, Note_on_c, 0, 76, 100
2, 6434520, Note_on_c, 0, 76, 0
2, 6434520, Note_on_c, 0, 69, 100
2, 6434640, Note_on_c, 0, 69, 0
2, 6434640, Note_on_c, 0, 71, 100
2, 6434760, Note_on_c, 0, 71, 0
2, 6434760, Note_on_c, 0, 73, 100
2, 6434880, Note_on_c, 0, 73, 0
2, 6434880, Note_on_c, 0, 69, 100
2, 6435000, Note_on_c, 0, 69, 0
2, 6435000, Note_on_c, 0, 64, 100
2, 6435120, Note_on_c, 0, 64, 0
2, 6435120, Note_on_c, 0, 66, 100
2, 6435240, Note_on_c, 0, 66, 0
2, 6435240, Note_on_c, 0, 67, 100
2, 6435360, Note_on_c, 0, 67, 0
2, 6435360, Note_on_c, 0, 64, 100
2, 6435480, Note_on_c, 0, 64, 0
2, 6435480, Note_on_c, 0, 61, 100
2, 6435600, Note_on_c, 0, 61, 0
2, 6435600, Note_on_c, 0, 64, 100
2, 6435720, Note_on_c, 0, 64, 0
2, 6435720, Note_on_c, 0, 62, 100
2, 6435840, Note_on_c, 0, 62, 0
2, 6435840, Note_on_c, 0, 66, 100
2, 6436080, Note_on_c, 0, 66, 0
2, 6436080, Note_on_c, 0, 69, 100
2, 6436320, Note_on_c, 0, 69, 0
2, 6436320, Note_on_c, 0, 74, 100
2, 6436560, Note_on_c, 0, 74, 0
2, 6436560, Note_on_c, 0, 72, 100
2, 6436920, Note_on_c, 0, 72, 0
2, 6436920, Note_on_c, 0, 69, 100
2, 6437040, Note_on_c, 0, 69, 0
2, 6437040, Note_on_c, 0, 66, 100
2, 6437160, Note_on_c, 0, 66, 0
2, 6437160, Note_on_c, 0, 67, 100
2, 6437280, Note_on_c, 0, 67, 0
2, 6437280, Note_on_c, 0, 71, 100
2, 6437520, Note_on_c, 0, 71, 0
2, 6437520, Note_on_c, 0, 74, 100
2, 6437760, Note_on_c, 0, 74, 0
2, 6437760, Note_on_c, 0, 79, 100
2, 6438360, Note_on_c, 0, 79, 0
2, 6438360, Note_on_c, 0, 78, 100
2, 6438480, Note_on_c, 0, 78, 0
2, 6438480, Note_on_c, 0, 79, 100
2, 6438600, Note_on_c, 0, 79, 0
2, 6438600, Note_on_c, 0, 69, 100
2, 6438720, Note_on_c, 0, 69, 0
2, 6438720, Note_on_c, 0, 73, 100
2, 6438960, Note_on_c, 0, 73, 0
2, 6438960, Note_on_c, 0, 76, 100
2, 6439200, Note_on_c, 0, 76, 0
2, 6439200, Note_on_c, 0, 79, 100
2, 6439800, Note_on_c, 0, 79, 0
2, 6439800, Note_on_c, 0, 81, 100
2, 6439920, Note_on_c, 0, 81, 0
2, 6439920, Note_on_c, 0, 73, 100
2, 6440040, Note_on_c, 0, 73, 0
2, 6440040, Note_on_c, 0, 74, 100
2, 6440160, Note_on_c, 0, 74, 0
2, 6440160, Note_on_c, 0, 78, 100
2, 6440280, Note_on_c, 0, 78, 0
2, 6440280, Note_on_c, 0, 81, 100
2, 6440400, Note_on_c, 0, 81, 0
2, 6440400, Note_on_c, 0, 85, 100
2, 6440520, Note_on_c, 0, 85, 0
2, 6440520, Note_on_c, 0, 86, 100
2, 6440640, Note_on_c, 0, 86, 0
2, 6440640, Note_on_c, 0, 85, 100
2, 6440760, Note_on_c, 0, 85, 0
2, 6440760, Note_on_c, 0, 83, 100
2, 6440820, Note_on_c, 0, 83, 0
2, 6440820, Note_on_c, 0, 81, 100
2, 6440880, Note_on_c, 0, 81, 0
2, 6440880, Note_on_c, 0, 79, 100
2, 6440940, Note_on_c, 0, 79, 0
2, 6440940, Note_on_c, 0, 78, 100
2, 6441000, Note_on_c, 0, 78, 0
2, 6441000, Note_on_c, 0, 76, 100
2, 6441060, Note_on_c, 0, 76, 0
2, 6441060, Note_on_c, 0, 74, 100
2, 6441120, Note_on_c, 0, 74, 0
2, 6441120, Note_on_c, 0, 69, 100
2, 6441600, Note_on_c, 0, 69, 0
2, 6441600, Note_on_c, 0, 74, 100
2, 6441720, Note_on_c, 0, 74, 0
2, 6441720, Note_on_c, 0, 78, 100
2, 6441840, Note_on_c, 0, 78, 0
2, 6441840, Note_on_c, 0, 76, 100
2, 6441960, Note_on_c, 0, 76, 0
2, 6441960, Note_on_c, 0, 74, 100
2, 6442080, Note_on_c, 0, 74, 0
2, 6442080, Note_on_c, 0, 78, 100
2, 6442200, Note_on_c, 0, 78, 0
2, 6442200, Note_on_c, 0, 81, 100
2, 6442320, Note_on_c, 0, 81, 0
2, 6442320, Note_on_c, 0, 79, 100
2, 6442440, Note_on_c, 0, 79, 0
2, 6442440, Note_on_c, 0, 78, 100
2, 6442560, Note_on_c, 0, 78, 0
2, 6442560, Note_on_c, 0, 81, 100
2, 6442680, Note_on_c, 0, 81, 0
2, 6442680, Note_on_c, 0, 84, 100
2, 6442800, Note_on_c, 0, 84, 0
2, 6442800, Note_on_c, 0, 62, 100
2, 6443040, Note_on_c, 0, 62, 0
2, 6443040, Note_on_c, 0, 67, 100
2, 6443160, Note_on_c, 0, 67, 0
2, 6443160, Note_on_c, 0, 71, 100
2, 6443280, Note_on_c, 0, 71, 0
2, 6443280, Note_on_c, 0, 69, 100
2, 6443400, Note_on_c, 0, 69, 0
2, 6443400, Note_on_c, 0, 67, 100
2, 6443520, Note_on_c, 0, 67, 0
2, 6443520, Note_on_c, 0, 71, 100
2, 6443640, Note_on_c, 0, 71, 0
2, 6443640, Note_on_c, 0, 74, 100
2, 6443760, Note_on_c, 0, 74, 0
2, 6443760, Note_on_c, 0, 72, 100
2, 6443880, Note_on_c, 0, 72, 0
2, 6443880, Note_on_c, 0, 71, 100
2, 6444000, Note_on_c, 0, 71, 0
2, 6444000, Note_on_c, 0, 74, 100
2, 6444120, Note_on_c, 0, 74, 0
2, 6444120, Note_on_c, 0, 77, 100
2, 6444240, Note_on_c, 0, 77, 0
2, 6444240, Note_on_c, 0, 76, 100
2, 6444480, Note_on_c, 0, 76, 0
2, 6444480, Note_on_c, 0, 72, 100
2, 6444600, Note_on_c, 0, 72, 0
2, 6444600, Note_on_c, 0, 69, 100
2, 6444720, Note_on_c, 0, 69, 0
2, 6444720, Note_on_c, 0, 71, 100
2, 6444840, Note_on_c, 0, 71, 0
2, 6444840, Note_on_c, 0, 72, 100
2, 6444960, Note_on_c, 0, 72, 0
2, 6444960, Note_on_c, 0, 69, 100
2, 6445080, Note_on_c, 0, 69, 0
2, 6445080, Note_on_c, 0, 66, 100
2, 6445200, Note_on_c, 0, 66, 0
2, 6445200, Note_on_c, 0, 67, 100
2, 6445320, Note_on_c, 0, 67, 0
2, 6445320, Note_on_c, 0, 69, 100
2, 6445440, Note_on_c, 0, 69, 0
2, 6445440, Note_on_c, 0, 66, 100
2, 6445560, Note_on_c, 0, 66, 0
2, 6445560, Note_on_c, 0, 63, 100
2, 6445680, Note_on_c, 0, 63, 0
2, 6445680, Note_on_c, 0, 64, 100
2, 6445800, Note_on_c, 0, 64, 0
2, 6445800, Note_on_c, 0, 66, 100
2, 6445920, Note_on_c, 0, 66, 0
2, 6445920, Note_on_c, 0, 63, 100
2, 6446040, Note_on_c, 0, 63, 0
2, 6446040, Note_on_c, 0, 59, 100
2, 6446160, Note_on_c, 0, 59, 0
2, 6446160, Note_on_c, 0, 61, 100
2, 6446280, Note_on_c, 0, 61, 0
2, 6446280, Note_on_c, 0, 63, 100
2, 6446400, Note_on_c, 0, 63, 0
2, 6446400, Note_on_c, 0, 59, 100
2, 6446520, Note_on_c, 0, 59, 0
2, 6446520, Note_on_c, 0, 54, 100
2, 6446640, Note_on_c, 0, 54, 0
2, 6446640, Note_on_c, 0, 55, 100
2, 6446760, Note_on_c, 0, 55, 0
2, 6446760, Note_on_c, 0, 57, 100
2, 6446880, Note_on_c, 0, 57, 0
2, 6446880, Note_on_c, 0, 54, 100
2, 6447000, Note_on_c, 0, 54, 0
2, 6447000, Note_on_c, 0, 51, 100
2, 6447120, Note_on_c, 0, 51, 0
2, 6447120, Note_on_c, 0, 54, 100
2, 6447240, Note_on_c, 0, 54, 0
2, 6447240, Note_on_c, 0, 55, 100
2, 6447360, Note_on_c, 0, 55, 0
2, 6447360, Note_on_c, 0, 59, 100
2, 6447480, Note_on_c, 0, 59, 0
2, 6447480, Note_on_c, 0, 64, 100
2, 6447600, Note_on_c, 0, 64, 0
2, 6447600, Note_on_c, 0, 63, 100
2, 6447720, Note_on_c, 0, 63, 0
2, 6447720, Note_on_c, 0, 64, 100
2, 6447840, Note_on_c, 0, 64, 0
2, 6447840, Note_on_c, 0, 67, 100
2, 6447960, Note_on_c, 0, 67, 0
2, 6447960, Note_on_c, 0, 71, 100
2, 6448080, Note_on_c, 0, 71, 0
2, 6448080, Note_on_c, 0, 69, 100
2, 6448200, Note_on_c, 0, 69, 0
2, 6448200, Note_on_c, 0, 67, 100
2, 6448320, Note_on_c, 0, 67, 0
2, 6448320, Note_on_c, 0, 71, 100
2, 6448440, Note_on_c, 0, 71, 0
2, 6448440, Note_on_c, 0, 76, 100
2, 6448560, Note_on_c, 0, 76, 0
2, 6448560, Note_on_c, 0, 64, 100
2, 6448800, Note_on_c, 0, 64, 0
2, 6448800, Note_on_c, 0, 69, 100
2, 6448920, Note_on_c, 0, 69, 0
2, 6448920, Note_on_c, 0, 72, 100
2, 6449040, Note_on_c, 0, 72, 0
2, 6449040, Note_on_c, 0, 71, 100
2, 6449160, Note_on_c, 0, 71, 0
2, 6449160, Note_on_c, 0, 69, 100
2, 6449280, Note_on_c, 0, 69, 0
2, 6449280, Note_on_c, 0, 72, 100
2, 6449400, Note_on_c, 0, 72, 0
2, 6449400, Note_on_c, 0, 76, 100
2, 6449520, Note_on_c, 0, 76, 0
2, 6449520, Note_on_c, 0, 74, 100
2, 6449640, Note_on_c, 0, 74, 0
2, 6449640, Note_on_c, 0, 72, 100
2, 6449760, Note_on_c, 0, 72, 0
2, 6449760, Note_on_c, 0, 76, 100
2, 6449880, Note_on_c, 0, 76, 0
2, 6449880, Note_on_c, 0, 81, 100
2, 6450000, Note_on_c, 0, 81, 0
2, 6450000, Note_on_c, 0, 72, 100
2, 6450360, Note_on_c, 0, 72, 0
2, 6450360, Note_on_c, 0, 71, 100
2, 6450480, Note_on_c, 0, 71, 0
2, 6450480, Note_on_c, 0, 78, 100
2, 6450600, Note_on_c, 0, 78, 0
2, 6450600, Note_on_c, 0, 79, 100
2, 6450720, Note_on_c, 0, 79, 0
2, 6450720, Note_on_c, 0, 75, 100
2, 6450840, Note_on_c, 0, 75, 0
2, 6450840, Note_on_c, 0, 76, 100
2, 6450960, Note_on_c, 0, 76, 0
2, 6450960, Note_on_c, 0, 67, 100
2, 6451080, Note_on_c, 0, 67, 0
2, 6451080, Note_on_c, 0, 66, 100
2, 6451200, Note_on_c, 0, 66, 0
2, 6451200, Note_on_c, 0, 76, 100
2, 6451320, Note_on_c, 0, 76, 0
2, 6451320, Note_on_c, 0, 75, 100
2, 6451440, Note_on_c, 0, 75, 0
2, 6451440, Note_on_c, 0, 81, 100
2, 6451680, Note_on_c, 0, 81, 0
2, 6451680, Note_on_c, 0, 79, 100
2, 6451710, Note_on_c, 0, 79, 0
2, 6451710, Note_on_c, 0, 81, 100
2, 6451740, Note_on_c, 0, 81, 0
2, 6451740, Note_on_c, 0, 79, 100
2, 6451770, Note_on_c, 0, 79, 0
2, 6451770, Note_on_c, 0, 78, 100
2, 6451800, Note_on_c, 0, 78, 0
2, 6451800, Note_on_c, 0, 76, 100
2, 6451920, Note_on_c, 0, 76, 0
2, 6451920, Note_on_c, 0, 69, 100
2, 6452280, Note_on_c, 0, 69, 0
2, 6452280, Note_on_c, 0, 67, 100
2, 6452400, Note_on_c, 0, 67, 0
2, 6452400, Note_on_c, 0, 66, 100
2, 6452640, Note_on_c, 0, 66, 0
2, 6452640, Note_on_c, 0, 64, 100
2, 6452880, Note_on_c, 0, 64, 0
2, 6452880, Note_on_c, 0, 76, 100
2, 6453360, Note_on_c, 0, 76, 0
2, 6453360, Note_on_c, 0, 74, 100
2, 6453480, Note_on_c, 0, 74, 0
2, 6453480, Note_on_c, 0, 72, 100
2, 6453600, Note_on_c, 0, 72, 0
2, 6453600, Note_on_c, 0, 71, 100
2, 6453720, Note_on_c, 0, 71, 0
2, 6453720, Note_on_c, 0, 69, 100
2, 6453840, Note_on_c, 0, 69, 0
2, 6453840, Note_on_c, 0, 67, 100
2, 6453960, Note_on_c, 0, 67, 0
2, 6453960, Note_on_c, 0, 66, 100
2, 6454080, Note_on_c, 0, 66, 0
2, 6454080, Note_on_c, 0, 70, 100
2, 6454200, Note_on_c, 0, 70, 0
2, 6454200, Note_on_c, 0, 73, 100
2, 6454320, Note_on_c, 0, 73, 0
2, 6454320, Note_on_c, 0, 76, 100
2, 6454440, Note_on_c, 0, 76, 0
2, 6454440, Note_on_c, 0, 74, 100
2, 6454560, Note_on_c, 0, 74, 0
2, 6454560, Note_on_c, 0, 66, 100
2, 6454680, Note_on_c, 0, 66, 0
2, 6454680, Note_on_c, 0, 74, 100
2, 6454800, Note_on_c, 0, 74, 0
2, 6454800, Note_on_c, 0, 72, 100
2, 6454920, Note_on_c, 0, 72, 0
2, 6454920, Note_on_c, 0, 71, 100
2, 6455040, Note_on_c, 0, 71, 0
2, 6455040, Note_on_c, 0, 69, 100
2, 6455160, Note_on_c, 0, 69, 0
2, 6455160, Note_on_c, 0, 68, 100
2, 6455280, Note_on_c, 0, 68, 0
2, 6455280, Note_on_c, 0, 66, 100
2, 6455400, Note_on_c, 0, 66, 0
2, 6455400, Note_on_c, 0, 64, 100
2, 6455520, Note_on_c, 0, 64, 0
2, 6455520, Note_on_c, 0, 68, 100
2, 6455640, Note_on_c, 0, 68, 0
2, 6455640, Note_on_c, 0, 71, 100
2, 6455760, Note_on_c, 0, 71, 0
2, 6455760, Note_on_c, 0, 74, 100
2, 6455880, Note_on_c, 0, 74, 0
2, 6455880, Note_on_c, 0, 72, 100
2, 6456000, Note_on_c, 0, 72, 0
2, 6456000, Note_on_c, 0, 64, 100
2, 6456120, Note_on_c, 0, 64, 0
2, 6456120, Note_on_c, 0, 72, 100
2, 6456240, Note_on_c, 0, 72, 0
2, 6456240, Note_on_c, 0, 71, 100
2, 6456360, Note_on_c, 0, 71, 0
2, 6456360, Note_on_c, 0, 69, 100
2, 6456480, Note_on_c, 0, 69, 0
2, 6456480, Note_on_c, 0, 72, 100
2, 6456600, Note_on_c, 0, 72, 0
2, 6456600, Note_on_c, 0, 76, 100
2, 6456720, Note_on_c, 0, 76, 0
2, 6456720, Note_on_c, 0, 74, 100
2, 6456840, Note_on_c, 0, 74, 0
2, 6456840, Note_on_c, 0, 72, 100
2, 6456960, Note_on_c, 0, 72, 0
2, 6456960, Note_on_c, 0, 76, 100
2, 6457080, Note_on_c, 0, 76, 0
2, 6457080, Note_on_c, 0, 81, 100
2, 6457200, Note_on_c, 0, 81, 0
2, 6457200, Note_on_c, 0, 79, 100
2, 6457320, Note_on_c, 0, 79, 0
2, 6457320, Note_on_c, 0, 78, 100
2, 6457440, Note_on_c, 0, 78, 0
2, 6457440, Note_on_c, 0, 81, 100
2, 6457560, Note_on_c, 0, 81, 0
2, 6457560, Note_on_c, 0, 84, 100
2, 6457680, Note_on_c, 0, 84, 0
2, 6457680, Note_on_c, 0, 83, 100
2, 6457800, Note_on_c, 0, 83, 0
2, 6457800, Note_on_c, 0, 81, 100
2, 6457920, Note_on_c, 0, 81, 0
2, 6457920, Note_on_c, 0, 79, 100
2, 6458040, Note_on_c, 0, 79, 0
2, 6458040, Note_on_c, 0, 78, 100
2, 6458160, Note_on_c, 0, 78, 0
2, 6458160, Note_on_c, 0, 76, 100
2, 6458280, Note_on_c, 0, 76, 0
2, 6458280, Note_on_c, 0, 74, 100
2, 6458400, Note_on_c, 0, 74, 0
2, 6458400, Note_on_c, 0, 78, 100
2, 6458520, Note_on_c, 0, 78, 0
2, 6458520, Note_on_c, 0, 81, 100
2, 6458640, Note_on_c, 0, 81, 0
2, 6458640, Note_on_c, 0, 84, 100
2, 6458760, Note_on_c, 0, 84, 0
2, 6458760, Note_on_c, 0, 83, 100
2, 6458880, Note_on_c, 0, 83, 0
2, 6458880, Note_on_c, 0, 86, 100
2, 6459000, Note_on_c, 0, 86, 0
2, 6459000, Note_on_c, 0, 79, 100
2, 6459120, Note_on_c, 0, 79, 0
2, 6459120, Note_on_c, 0, 81, 100
2, 6459240, Note_on_c, 0, 81, 0
2, 6459240, Note_on_c, 0, 83, 100
2, 6459360, Note_on_c, 0, 83, 0
2, 6459360, Note_on_c, 0, 79, 100
2, 6459480, Note_on_c, 0, 79, 0
2, 6459480, Note_on_c, 0, 74, 100
2, 6459600, Note_on_c, 0, 74, 0
2, 6459600, Note_on_c, 0, 76, 100
2, 6459720, Note_on_c, 0, 76, 0
2, 6459720, Note_on_c, 0, 77, 100
2, 6459840, Note_on_c, 0, 77, 0
2, 6459840, Note_on_c, 0, 74, 100
2, 6459960, Note_on_c, 0, 74, 0
2, 6459960, Note_on_c, 0, 71, 100
2, 6460080, Note_on_c, 0, 71, 0
2, 6460080, Note_on_c, 0, 74, 100
2, 6460200, Note_on_c, 0, 74, 0
2, 6460200, Note_on_c, 0, 76, 100
2, 6460320, Note_on_c, 0, 76, 0
2, 6460320, Note_on_c, 0, 79, 100
2, 6460440, Note_on_c, 0, 79, 0
2, 6460440, Note_on_c, 0, 72, 100
2, 6460560, Note_on_c, 0, 72, 0
2, 6460560, Note_on_c, 0, 74, 100
2, 6460680, Note_on_c, 0, 74, 0
2, 6460680, Note_on_c, 0, 76, 100
2, 6460800, Note_on_c, 0, 76, 0
2, 6460800, Note_on_c, 0, 72, 100
2, 6460920, Note_on_c, 0, 72, 0
2, 6460920, Note_on_c, 0, 69, 100
2, 6461040, Note_on_c, 0, 69, 0
2, 6461040, Note_on_c, 0, 71, 100
2, 6461160, Note_on_c, 0, 71, 0
2, 6461160, Note_on_c, 0, 72, 100
2, 6461280, Note_on_c, 0, 72, 0
2, 6461280, Note_on_c, 0, 69, 100
2, 6461400, Note_on_c, 0, 69, 0
2, 6461400, Note_on_c, 0, 64, 100
2, 6461520, Note_on_c, 0, 64, 0
2, 6461520, Note_on_c, 0, 67, 100
2, 6461640, Note_on_c, 0, 67, 0
2, 6461640, Note_on_c, 0, 66, 100
2, 6461760, Note_on_c, 0, 66, 0
2, 6461760, Note_on_c, 0, 69, 100
2, 6461880, Note_on_c, 0, 69, 0
2, 6461880, Note_on_c, 0, 62, 100
2, 6462000, Note_on_c, 0, 62, 0
2, 6462000, Note_on_c, 0, 64, 100
2, 6462120, Note_on_c, 0, 64, 0
2, 6462120, Note_on_c, 0, 66, 100
2, 6462240, Note_on_c, 0, 66, 0
2, 6462240, Note_on_c, 0, 62, 100
2, 6462360, Note_on_c, 0, 62, 0
2, 6462360, Note_on_c, 0, 57, 100
2, 6462480, Note_on_c, 0, 57, 0
2, 6462480, Note_on_c, 0, 59, 100
2, 6462600, Note_on_c, 0, 59, 0
2, 6462600, Note_on_c, 0, 60, 100
2, 6462720, Note_on_c, 0, 60, 0
2, 6462720, Note_on_c, 0, 57, 100
2, 6462840, Note_on_c, 0, 57, 0
2, 6462840, Note_on_c, 0, 54, 100
2, 6462960, Note_on_c, 0, 54, 0
2, 6462960, Note_on_c, 0, 57, 100
2, 6463080, Note_on_c, 0, 57, 0
2, 6463080, Note_on_c, 0, 59, 100
2, 6463200, Note_on_c, 0, 59, 0
2, 6463200, Note_on_c, 0, 62, 100
2, 6463320, Note_on_c, 0, 62, 0
2, 6463320, Note_on_c, 0, 55, 100
2, 6463440, Note_on_c, 0, 55, 0
2, 6463440, Note_on_c, 0, 57, 100
2, 6463560, Note_on_c, 0, 57, 0
2, 6463560, Note_on_c, 0, 59, 100
2, 6463680, Note_on_c, 0, 59, 0
2, 6463680, Note_on_c, 0, 55, 100
2, 6463800, Note_on_c, 0, 55, 0
2, 6463800, Note_on_c, 0, 59, 100
2, 6463920, Note_on_c, 0, 59, 0
2, 6463920, Note_on_c, 0, 62, 100
2, 6464040, Note_on_c, 0, 62, 0
2, 6464040, Note_on_c, 0, 67, 100
2, 6464160, Note_on_c, 0, 67, 0
2, 6464160, Note_on_c, 0, 69, 100
2, 6464640, Note_on_c, 0, 69, 0
2, 6464640, Note_on_c, 0, 74, 100
2, 6464760, Note_on_c, 0, 74, 0
2, 6464760, Note_on_c, 0, 78, 100
2, 6464880, Note_on_c, 0, 78, 0
2, 6464880, Note_on_c, 0, 76, 100
2, 6465000, Note_on_c, 0, 76, 0
2, 6465000, Note_on_c, 0, 74, 100
2, 6465120, Note_on_c, 0, 74, 0
2, 6465120, Note_on_c, 0, 78, 100
2, 6465240, Note_on_c, 0, 78, 0
2, 6465240, Note_on_c, 0, 81, 100
2, 6465360, Note_on_c, 0, 81, 0
2, 6465360, Note_on_c, 0, 79, 100
2, 6465480, Note_on_c, 0, 79, 0
2, 6465480, Note_on_c, 0, 78, 100
2, 6465600, Note_on_c, 0, 78, 0
2, 6465600, Note_on_c, 0, 81, 100
2, 6465720, Note_on_c, 0, 81, 0
2, 6465720, Note_on_c, 0, 84, 100
2, 6465840, Note_on_c, 0, 84, 0
2, 6465840, Note_on_c, 0, 62, 100
2, 6466080, Note_on_c, 0, 62, 0
2, 6466080, Note_on_c, 0, 67, 100
2, 6466200, Note_on_c, 0, 67, 0
2, 6466200, Note_on_c, 0, 71, 100
2, 6466320, Note_on_c, 0, 71, 0
2, 6466320, Note_on_c, 0, 69, 100
2, 6466440, Note_on_c, 0, 69, 0
2, 6466440, Note_on_c, 0, 67, 100
2, 6466560, Note_on_c, 0, 67, 0
2, 6466560, Note_on_c, 0, 71, 100
2, 6466680, Note_on_c, 0, 71, 0
2, 6466680, Note_on_c, 0, 74, 100
2, 6466800, Note_on_c, 0, 74, 0
2, 6466800, Note_on_c, 0, 72, 100
2, 6466920, Note_on_c, 0, 72, 0
2, 6466920, Note_on_c, 0, 71, 100
2, 6467040, Note_on_c, 0, 71, 0
2, 6467040, Note_on_c, 0, 74, 100
2, 6467160, Note_on_c, 0, 74, 0
2, 6467160, Note_on_c, 0, 77, 100
2, 6467280, Note_on_c, 0, 77, 0
2, 6467280, Note_on_c, 0, 76, 100
2, 6467520, Note_on_c, 0, 76, 0
2, 6467520, Note_on_c, 0, 72, 100
2, 6467640, Note_on_c, 0, 72, 0
2, 6467640, Note_on_c, 0, 69, 100
2, 6467760, Note_on_c, 0, 69, 0
2, 6467760, Note_on_c, 0, 71, 100
2, 6467880, Note_on_c, 0, 71, 0
2, 6467880, Note_on_c, 0, 72, 100
2, 6468000, Note_on_c, 0, 72, 0
2, 6468000, Note_on_c, 0, 69, 100
2, 6468120, Note_on_c, 0, 69, 0
2, 6468120, Note_on_c, 0, 66, 100
2, 6468240, Note_on_c, 0, 66, 0
2, 6468240, Note_on_c, 0, 67, 100
2, 6468360, Note_on_c, 0, 67, 0
2, 6468360, Note_on_c, 0, 69, 100
2, 6468480, Note_on_c, 0, 69, 0
2, 6468480, Note_on_c, 0, 66, 100
2, 6468600, Note_on_c, 0, 66, 0
2, 6468600, Note_on_c, 0, 63, 100
2, 6468720, Note_on_c, 0, 63, 0
2, 6468720, Note_on_c, 0, 64, 100
2, 6468840, Note_on_c, 0, 64, 0
2, 6468840, Note_on_c, 0, 66, 100
2, 6468960, Note_on_c, 0, 66, 0
2, 6468960, Note_on_c, 0, 63, 100
2, 6469080, Note_on_c, 0, 63, 0
2, 6469080, Note_on_c, 0, 59, 100
2, 6469200, Note_on_c, 0, 59, 0
2, 6469200, Note_on_c, 0, 61, 100
2, 6469320, Note_on_c, 0, 61, 0
2, 6469320, Note_on_c, 0, 63, 100
2, 6469440, Note_on_c, 0, 63, 0
2, 6469440, Note_on_c, 0, 59, 100
2, 6469560, Note_on_c, 0, 59, 0
2, 6469560, Note_on_c, 0, 54, 100
2, 6469680, Note_on_c, 0, 54, 0
2, 6469680, Note_on_c, 0, 55, 100
2, 6469800, Note_on_c, 0, 55, 0
2, 6469800, Note_on_c, 0, 57, 100
2, 6469920, Note_on_c, 0, 57, 0
2, 6469920, Note_on_c, 0, 54, 100
2, 6470040, Note_on_c, 0, 54, 0
2, 6470040, Note_on_c, 0, 51, 100
2, 6470160, Note_on_c, 0, 51, 0
2, 6470160, Note_on_c, 0, 54, 100
2, 6470280, Note_on_c, 0, 54, 0
2, 6470280, Note_on_c, 0, 55, 100
2, 6470400, Note_on_c, 0, 55, 0
2, 6470400, Note_on_c, 0, 59, 100
2, 6470520, Note_on_c, 0, 59, 0
2, 6470520, Note_on_c, 0, 64, 100
2, 6470640, Note_on_c, 0, 64, 0
2, 6470640, Note_on_c, 0, 63, 100
2, 6470760, Note_on_c, 0, 63, 0
2, 6470760, Note_on_c, 0, 64, 100
2, 6470880, Note_on_c, 0, 64, 0
2, 6470880, Note_on_c, 0, 67, 100
2, 6471000, Note_on_c, 0, 67, 0
2, 6471000, Note_on_c, 0, 71, 100
2, 6471120, Note_on_c, 0, 71, 0
2, 6471120, Note_on_c, 0, 69, 100
2, 6471240, Note_on_c, 0, 69, 0
2, 6471240, Note_on_c, 0, 67, 100
2, 6471360, Note_on_c, 0, 67, 0
2, 6471360, Note_on_c, 0, 71, 100
2, 6471480, Note_on_c, 0, 71, 0
2, 6471480, Note_on_c, 0, 76, 100
2, 6471600, Note_on_c, 0, 76, 0
2, 6471600, Note_on_c, 0, 64, 100
2, 6471840, Note_on_c, 0, 64, 0
2, 6471840, Note_on_c, 0, 69, 100
2, 6471960, Note_on_c, 0, 69, 0
2, 6471960, Note_on_c, 0, 72, 100
2, 6472080, Note_on_c, 0, 72, 0
2, 6472080, Note_on_c, 0, 71, 100
2, 6472200, Note_on_c, 0, 71, 0
2, 6472200, Note_on_c, 0, 69, 100
2, 6472320, Note_on_c, 0, 69, 0
2, 6472320, Note_on_c, 0, 72, 100
2, 6472440, Note_on_c, 0, 72, 0
2, 6472440, Note_on_c, 0, 76, 100
2, 6472560, Note_on_c, 0, 76, 0
2, 6472560, Note_on_c, 0, 74, 100
2, 6472680, Note_on_c, 0, 74, 0
2, 6472680, Note_on_c, 0, 72, 100
2, 6472800, Note_on_c, 0, 72, 0
2, 6472800, Note_on_c, 0, 76, 100
2, 6472920, Note_on_c, 0, 76, 0
2, 6472920, Note_on_c, 0, 81, 100
2, 6473040, Note_on_c, 0, 81, 0
2, 6473040, Note_on_c, 0, 72, 100
2, 6473400, Note_on_c, 0, 72, 0
2, 6473400, Note_on_c, 0, 71, 100
2, 6473520, Note_on_c, 0, 71, 0
2, 6473520, Note_on_c, 0, 78, 100
2, 6473640, Note_on_c, 0, 78, 0
2, 6473640, Note_on_c, 0, 79, 100
2, 6473760, Note_on_c, 0, 79, 0
2, 6473760, Note_on_c, 0, 75, 100
2, 6473880, Note_on_c, 0, 75, 0
2, 6473880, Note_on_c, 0, 76, 100
2, 6474000, Note_on_c, 0, 76, 0
2, 6474000, Note_on_c, 0, 67, 100
2, 6474120, Note_on_c, 0, 67, 0
2, 6474120, Note_on_c, 0, 66, 100
2, 6474240, Note_on_c, 0, 66, 0
2, 6474240, Note_on_c, 0, 76, 100
2, 6474360, Note_on_c, 0, 76, 0
2, 6474360, Note_on_c, 0, 75, 100
2, 6474480, Note_on_c, 0, 75, 0
2, 6474480, Note_on_c, 0, 81, 100
2, 6474720, Note_on_c, 0, 81, 0
2, 6474720, Note_on_c, 0, 79, 100
2, 6474750, Note_on_c, 0, 79, 0
2, 6474750, Note_on_c, 0, 81, 100
2, 6474780, Note_on_c, 0, 81, 0
2, 6474780, Note_on_c, 0, 79, 100
2, 6474810, Note_on_c, 0, 79, 0
2, 6474810, Note_on_c, 0, 78, 100
2, 6474840, Note_on_c, 0, 78, 0
2, 6474840, Note_on_c, 0, 76, 100
2, 6474960, Note_on_c, 0, 76, 0
2, 6474960, Note_on_c, 0, 69, 100
2, 6475320, Note_on_c, 0, 69, 0
2, 6475320, Note_on_c, 0, 67, 100
2, 6475440, Note_on_c, 0, 67, 0
2, 6475440, Note_on_c, 0, 66, 100
2, 6475680, Note_on_c, 0, 66, 0
2, 6475680, Note_on_c, 0, 64, 100
2, 6475920, Note_on_c, 0, 64, 0
2, 6475920, Note_on_c, 0, 76, 100
2, 6476400, Note_on_c, 0, 76, 0
2, 6476400, Note_on_c, 0, 74, 100
2, 6476520, Note_on_c, 0, 74, 0
2, 6476520, Note_on_c, 0, 72, 100
2, 6476640, Note_on_c, 0, 72, 0
2, 6476640, Note_on_c, 0, 71, 100
2, 6476760, Note_on_c, 0, 71, 0
2, 6476760, Note_on_c, 0, 69, 100
2, 6476880, Note_on_c, 0, 69, 0
2, 6476880, Note_on_c, 0, 67, 100
2, 6477000, Note_on_c, 0, 67, 0
2, 6477000, Note_on_c, 0, 66, 100
2, 6477120, Note_on_c, 0, 66, 0
2, 6477120, Note_on_c, 0, 70, 100
2, 6477240, Note_on_c, 0, 70, 0
2, 6477240, Note_on_c, 0, 73, 100
2, 6477360, Note_on_c, 0, 73, 0
2, 6477360, Note_on_c, 0, 76, 100
2, 6477480, Note_on_c, 0, 76, 0
2, 6477480, Note_on_c, 0, 74, 100
2, 6477600, Note_on_c, 0, 74, 0
2, 6477600, Note_on_c, 0, 66, 100
2, 6477720, Note_on_c, 0, 66, 0
2, 6477720, Note_on_c, 0, 74, 100
2, 6477840, Note_on_c, 0, 74, 0
2, 6477840, Note_on_c, 0, 72, 100
2, 6477960, Note_on_c, 0, 72, 0
2, 6477960, Note_on_c, 0, 71, 100
2, 6478080, Note_on_c, 0, 71, 0
2, 6478080, Note_on_c, 0, 69, 100
2, 6478200, Note_on_c, 0, 69, 0
2, 6478200, Note_on_c, 0, 68, 100
2, 6478320, Note_on_c, 0, 68, 0
2, 6478320, Note_on_c, 0, 66, 100
2, 6478440, Note_on_c, 0, 66, 0
2, 6478440, Note_on_c, 0, 64, 100
2, 6478560, Note_on_c, 0, 64, 0
2, 6478560, Note_on_c, 0, 68, 100
2, 6478680, Note_on_c, 0, 68, 0
2, 6478680, Note_on_c, 0, 71, 100
2, 6478800, Note_on_c, 0, 71, 0
2, 6478800, Note_on_c, 0, 74, 100
2, 6478920, Note_on_c, 0, 74, 0
2, 6478920, Note_on_c, 0, 72, 100
2, 6479040, Note_on_c, 0, 72, 0
2, 6479040, Note_on_c, 0, 64, 100
2, 6479160, Note_on_c, 0, 64, 0
2, 6479160, Note_on_c, 0, 72, 100
2, 6479280, Note_on_c, 0, 72, 0
2, 6479280, Note_on_c, 0, 71, 100
2, 6479400, Note_on_c, 0, 71, 0
2, 6479400, Note_on_c, 0, 69, 100
2, 6479520, Note_on_c, 0, 69, 0
2, 6479520, Note_on_c, 0, 72, 100
2, 6479640, Note_on_c, 0, 72, 0
2, 6479640, Note_on_c, 0, 76, 100
2, 6479760, Note_on_c, 0, 76, 0
2, 6479760, Note_on_c, 0, 74, 100
2, 6479880, Note_on_c, 0, 74, 0
2, 6479880, Note_on_c, 0, 72, 100
2, 6480000, Note_on_c, 0, 72, 0
2, 6480000, Note_on_c, 0, 76, 100
2, 6480120, Note_on_c, 0, 76, 0
2, 6480120, Note_on_c, 0, 81, 100
2, 6480240, Note_on_c, 0, 81, 0
2, 6480240, Note_on_c, 0, 79, 100
2, 6480360, Note_on_c, 0, 79, 0
2, 6480360, Note_on_c, 0, 78, 100
2, 6480480, Note_on_c, 0, 78, 0
2, 6480480, Note_on_c, 0, 81, 100
2, 6480600, Note_on_c, 0, 81, 0
2, 6480600, Note_on_c, 0, 84, 100
2, 6480720, Note_on_c, 0, 84, 0
2, 6480720, Note_on_c, 0, 83, 100
2, 6480840, Note_on_c, 0, 83, 0
2, 6480840, Note_on_c, 0, 81, 100
2, 6480960, Note_on_c, 0, 81, 0
2, 6480960, Note_on_c, 0, 79, 100
2, 6481080, Note_on_c, 0, 79, 0
2, 6481080, Note_on_c, 0, 78, 100
2, 6481200, Note_on_c, 0, 78, 0
2, 6481200, Note_on_c, 0, 76, 100
2, 6481320, Note_on_c, 0, 76, 0
2, 6481320, Note_on_c, 0, 74, 100
2, 6481440, Note_on_c, 0, 74, 0
2, 6481440, Note_on_c, 0, 78, 100
2, 6481560, Note_on_c, 0, 78, 0
2, 6481560, Note_on_c, 0, 81, 100
2, 6481680, Note_on_c, 0, 81, 0
2, 6481680, Note_on_c, 0, 84, 100
2, 6481800, Note_on_c, 0, 84, 0
2, 6481800, Note_on_c, 0, 83, 100
2, 6481920, Note_on_c, 0, 83, 0
2, 6481920, Note_on_c, 0, 86, 100
2, 6482040, Note_on_c, 0, 86, 0
2, 6482040, Note_on_c, 0, 79, 100
2, 6482160, Note_on_c, 0, 79, 0
2, 6482160, Note_on_c, 0, 81, 100
2, 6482280, Note_on_c, 0, 81, 0
2, 6482280, Note_on_c, 0, 83, 100
2, 6482400, Note_on_c, 0, 83, 0
2, 6482400, Note_on_c, 0, 79, 100
2, 6482520, Note_on_c, 0, 79, 0
2, 6482520, Note_on_c, 0, 74, 100
2, 6482640, Note_on_c, 0, 74, 0
2, 6482640, Note_on_c, 0, 76, 100
2, 6482760, Note_on_c, 0, 76, 0
2, 6482760, Note_on_c, 0, 77, 100
2, 6482880, Note_on_c, 0, 77, 0
2, 6482880, Note_on_c, 0, 74, 100
2, 6483000, Note_on_c, 0, 74, 0
2, 6483000, Note_on_c, 0, 71, 100
2, 6483120, Note_on_c, 0, 71, 0
2, 6483120, Note_on_c, 0, 74, 100
2, 6483240, Note_on_c, 0, 74, 0
2, 6483240, Note_on_c, 0, 76, 100
2, 6483360, Note_on_c, 0, 76, 0
2, 6483360, Note_on_c, 0, 79, 100
2, 6483480, Note_on_c, 0, 79, 0
2, 6483480, Note_on_c, 0, 72, 100
2, 6483600, Note_on_c, 0, 72, 0
2, 6483600, Note_on_c, 0, 74, 100
2, 6483720, Note_on_c, 0, 74, 0
2, 6483720, Note_on_c, 0, 76, 100
2, 6483840, Note_on_c, 0, 76, 0
2, 6483840, Note_on_c, 0, 72, 100
2, 6483960, Note_on_c, 0, 72, 0
2, 6483960, Note_on_c, 0, 69, 100
2, 6484080, Note_on_c, 0, 69, 0
2, 6484080, Note_on_c, 0, 71, 100
2, 6484200, Note_on_c, 0, 71, 0
2, 6484200, Note_on_c, 0, 72, 100
2, 6484320, Note_on_c, 0, 72, 0
2, 6484320, Note_on_c, 0, 69, 100
2, 6484440, Note_on_c, 0, 69, 0
2, 6484440, Note_on_c, 0, 64, 100
2, 6484560, Note_on_c, 0, 64, 0
2, 6484560, Note_on_c, 0, 67, 100
2, 6484680, Note_on_c, 0, 67, 0
2, 6484680, Note_on_c, 0, 66, 100
2, 6484800, Note_on_c, 0, 66, 0
2, 6484800, Note_on_c, 0, 69, 100
2, 6484920, Note_on_c, 0, 69, 0
2, 6484920, Note_on_c, 0, 62, 100
2, 6485040, Note_on_c, 0, 62, 0
2, 6485040, Note_on_c, 0, 64, 100
2, 6485160, Note_on_c, 0, 64, 0
2, 6485160, Note_on_c, 0, 66, 100
2, 6485280, Note_on_c, 0, 66, 0
2, 6485280, Note_on_c, 0, 62, 100
2, 6485400, Note_on_c, 0, 62, 0
2, 6485400, Note_on_c, 0, 57, 100
2, 6485520, Note_on_c, 0, 57, 0
2, 6485520, Note_on_c, 0, 59, 100
2, 6485640, Note_on_c, 0, 59, 0
2, 6485640, Note_on_c, 0, 60, 100
2, 6485760, Note_on_c, 0, 60, 0
2, 6485760, Note_on_c, 0, 57, 100
2, 6485880, Note_on_c, 0, 57, 0
2, 6485880, Note_on_c, 0, 54, 100
2, 6486000, Note_on_c, 0, 54, 0
2, 6486000, Note_on_c, 0, 57, 100
2, 6486120, Note_on_c, 0, 57, 0
2, 6486120, Note_on_c, 0, 59, 100
2, 6486240, Note_on_c, 0, 59, 0
2, 6486240, Note_on_c, 0, 62, 100
2, 6486360, Note_on_c, 0, 62, 0
2, 6486360, Note_on_c, 0, 55, 100
2, 6486480, Note_on_c, 0, 55, 0
2, 6486480, Note_on_c, 0, 57, 100
2, 6486600, Note_on_c, 0, 57, 0
2, 6486600, Note_on_c, 0, 59, 100
2, 6486720, Note_on_c, 0, 59, 0
2, 6486720, Note_on_c, 0, 55, 100
2, 6486840, Note_on_c, 0, 55, 0
2, 6486840, Note_on_c, 0, 59, 100
2, 6486960, Note_on_c, 0, 59, 0
2, 6486960, Note_on_c, 0, 62, 100
2, 6487080, Note_on_c, 0, 62, 0
2, 6487080, Note_on_c, 0, 67, 100
2, 6487200, Note_on_c, 0, 67, 0
2, 6487200, Note_on_c, 0, 79, 100
2, 6564480, Note_on_c, 0, 79, 0
2, 6564480, Note_on_c, 0, 78, 100
2, 6564600, Note_on_c, 0, 78, 0
2, 6564600, Note_on_c, 0, 79, 100
2, 6564720, Note_on_c, 0, 79, 0
2, 6564720, Note_on_c, 0, 81, 100
2, 6565440, Note_on_c, 0, 81, 0
2, 6565440, Note_on_c, 0, 79, 100
2, 6565560, Note_on_c, 0, 79, 0
2, 6565560, Note_on_c, 0, 81, 100
2, 6565680, Note_on_c, 0, 81, 0
2, 6565680, Note_on_c, 0, 79, 100
2, 6565800, Note_on_c, 0, 79, 0
2, 6565800, Note_on_c, 0, 81, 100
2, 6565920, Note_on_c, 0, 81, 0
2, 6565920, Note_on_c, 0, 79, 100
2, 6566040, Note_on_c, 0, 79, 0
2, 6566040, Note_on_c, 0, 78, 100
2, 6566160, Note_on_c, 0, 78, 0
2, 6566160, Note_on_c, 0, 79, 100
2, 6566280, Note_on_c, 0, 79, 0
2, 6566280, Note_on_c, 0, 81, 100
2, 6566400, Note_on_c, 0, 81, 0
2, 6566400, Note_on_c, 0, 78, 100
2, 6566880, Note_on_c, 0, 78, 0
2, 6566880, Note_on_c, 0, 74, 100
2, 6567360, Note_on_c, 0, 74, 0
2, 6567360, Note_on_c, 0, 78, 100
2, 6567840, Note_on_c, 0, 78, 0
2, 6567840, Note_on_c, 0, 71, 100
2, 6568320, Note_on_c, 0, 71, 0
2, 6568320, Note_on_c, 0, 76, 100
2, 6568800, Note_on_c, 0, 76, 0
2, 6568800, Note_on_c, 0, 64, 100
2, 6569280, Note_on_c, 0, 64, 0
2, 6569280, Note_on_c, 0, 74, 100
2, 6570240, Note_on_c, 0, 74, 0
2, 6570240, Note_on_c, 0, 73, 100
2, 6570320, Note_on_c, 0, 73, 0
2, 6570320, Note_on_c, 0, 74, 100
2, 6570400, Note_on_c, 0, 74, 0
2, 6570400, Note_on_c, 0, 73, 100
2, 6570480, Note_on_c, 0, 73, 0
2, 6570480, Note_on_c, 0, 71, 100
2, 6570720, Note_on_c, 0, 71, 0
2, 6570720, Note_on_c, 0, 73, 100
2, 6570960, Note_on_c, 0, 73, 0
2, 6570960, Note_on_c, 0, 69, 100
2, 6571200, Note_on_c, 0, 69, 0
2, 6571200, Note_on_c, 0, 71, 100
2, 6571440, Note_on_c, 0, 71, 0
2, 6571440, Note_on_c, 0, 73, 100
2, 6571680, Note_on_c, 0, 73, 0
2, 6571680, Note_on_c, 0, 69, 100
2, 6571920, Note_on_c, 0, 69, 0
2, 6571920, Note_on_c, 0, 74, 100
2, 6575040, Note_on_c, 0, 74, 0
2, 6575040, Note_on_c, 0, 73, 100
2, 6576960, Note_on_c, 0, 73, 0
2, 6576960, Note_on_c, 0, 74, 100
2, 6577920, Note_on_c, 0, 74, 0
2, 6577920, Note_on_c, 0, 79, 100
2, 6595200, Note_on_c, 0, 79, 0
2, 6595200, Note_on_c, 0, 78, 100
2, 6595320, Note_on_c, 0, 78, 0
2, 6595320, Note_on_c, 0, 79, 100
2, 6595440, Note_on_c, 0, 79, 0
2, 6595440, Note_on_c, 0, 81, 100
2, 6596160, Note_on_c, 0, 81, 0
2, 6596160, Note_on_c, 0, 79, 100
2, 6596280, Note_on_c, 0, 79, 0
2, 6596280, Note_on_c, 0, 81, 100
2, 6596400, Note_on_c, 0, 81, 0
2, 6596400, Note_on_c, 0, 79, 100
2, 6596520, Note_on_c, 0, 79, 0
2, 6596520, Note_on_c, 0, 81, 100
2, 6596640, Note_on_c, 0, 81, 0
2, 6596640, Note_on_c, 0, 79, 100
2, 6596760, Note_on_c, 0, 79, 0
2, 6596760, Note_on_c, 0, 78, 100
2, 6596880, Note_on_c, 0, 78, 0
2, 6596880, Note_on_c, 0, 79, 100
2, 6597000, Note_on_c, 0, 79, 0
2, 6597000, Note_on_c, 0, 81, 100
2, 6597120, Note_on_c, 0, 81, 0
2, 6597120, Note_on_c, 0, 78, 100
2, 6597600, Note_on_c, 0, 78, 0
2, 6597600, Note_on_c, 0, 74, 100
2, 6598080, Note_on_c, 0, 74, 0
2, 6598080, Note_on_c, 0, 78, 100
2, 6598560, Note_on_c, 0, 78, 0
2, 6598560, Note_on_c, 0, 71, 100
2, 6599040, Note_on_c, 0, 71, 0
2, 6599040, Note_on_c, 0, 76, 100
2, 6599520, Note_on_c, 0, 76, 0
2, 6599520, Note_on_c, 0, 64, 100
2, 6600000, Note_on_c, 0, 64, 0
2, 6600000, Note_on_c, 0, 74, 100
2, 6600960, Note_on_c, 0, 74, 0
2, 6600960, Note_on_c, 0, 73, 100
2, 6601040, Note_on_c, 0, 73, 0
2, 6601040, Note_on_c, 0, 74, 100
2, 6601120, Note_on_c, 0, 74, 0
2, 6601120, Note_on_c, 0, 73, 100
2, 6601200, Note_on_c, 0, 73, 0
2, 6601200, Note_on_c, 0, 71, 100
2, 6601440, Note_on_c, 0, 71, 0
2, 6601440, Note_on_c, 0, 73, 100
2, 6601680, Note_on_c, 0, 73, 0
2, 6601680, Note_on_c, 0, 69, 100
2, 6601920, Note_on_c, 0, 69, 0
2, 6601920, Note_on_c, 0, 71, 100
2, 6602160, Note_on_c, 0, 71, 0
2, 6602160, Note_on_c, 0, 73, 100
2, 6602400, Note_on_c, 0, 73, 0
2, 6602400, Note_on_c, 0, 69, 100
2, 6602640, Note_on_c, 0, 69, 0
2, 6602640, Note_on_c, 0, 74, 100
2, 6605760, Note_on_c, 0, 74, 0
2, 6605760, Note_on_c, 0, 73, 100
2, 6607680, Note_on_c, 0, 73, 0
2, 6607680, Note_on_c, 0, 74, 100
2, 6608640, Note_on_c, 0, 74, 0
2, 6608640, Note_on_c, 0, 71, 100
2, 6618240, Note_on_c, 0, 71, 0
2, 6618240, Note_on_c, 0, 72, 100
2, 6619200, Note_on_c, 0, 72, 0
2, 6619200, Note_on_c, 0, 71, 100
2, 6619320, Note_on_c, 0, 71, 0
2, 6619320, Note_on_c, 0, 72, 100
2, 6619440, Note_on_c, 0, 72, 0
2, 6619440, Note_on_c, 0, 71, 100
2, 6619560, Note_on_c, 0, 71, 0
2, 6619560, Note_on_c, 0, 72, 100
2, 6619680, Note_on_c, 0, 72, 0
2, 6619680, Note_on_c, 0, 71, 100
2, 6619800, Note_on_c, 0, 71, 0
2, 6619800, Note_on_c, 0, 69, 100
2, 6619920, Note_on_c, 0, 69, 0
2, 6619920, Note_on_c, 0, 71, 100
2, 6620040, Note_on_c, 0, 71, 0
2, 6620040, Note_on_c, 0, 72, 100
2, 6620160, Note_on_c, 0, 72, 0
2, 6620160, Note_on_c, 0, 69, 100
2, 6620640, Note_on_c, 0, 69, 0
2, 6620640, Note_on_c, 0, 66, 100
2, 6621120, Note_on_c, 0, 66, 0
2, 6621120, Note_on_c, 0, 69, 100
2, 6621600, Note_on_c, 0, 69, 0
2, 6621600, Note_on_c, 0, 66, 100
2, 6622080, Note_on_c, 0, 66, 0
2, 6622080, Note_on_c, 0, 71, 100
2, 6622560, Note_on_c, 0, 71, 0
2, 6622560, Note_on_c, 0, 59, 100
2, 6623040, Note_on_c, 0, 59, 0
2, 6623040, Note_on_c, 0, 69, 100
2, 6624000, Note_on_c, 0, 69, 0
2, 6624000, Note_on_c, 0, 67, 100
2, 6624080, Note_on_c, 0, 67, 0
2, 6624080, Note_on_c, 0, 69, 100
2, 6624160, Note_on_c, 0, 69, 0
2, 6624160, Note_on_c, 0, 67, 100
2, 6624240, Note_on_c, 0, 67, 0
2, 6624240, Note_on_c, 0, 66, 100
2, 6624480, Note_on_c, 0, 66, 0
2, 6624480, Note_on_c, 0, 67, 100
2, 6624720, Note_on_c, 0, 67, 0
2, 6624720, Note_on_c, 0, 64, 100
2, 6624960, Note_on_c, 0, 64, 0
2, 6624960, Note_on_c, 0, 69, 100
2, 6626880, Note_on_c, 0, 69, 0
2, 6626880, Note_on_c, 0, 74, 100
2, 6628320, Note_on_c, 0, 74, 0
2, 6628320, Note_on_c, 0, 71, 100
2, 6628800, Note_on_c, 0, 71, 0
2, 6628800, Note_on_c, 0, 67, 100
2, 6629280, Note_on_c, 0, 67, 0
2, 6629280, Note_on_c, 0, 72, 100
2, 6630240, Note_on_c, 0, 72, 0
2, 6630240, Note_on_c, 0, 71, 100
2, 6630480, Note_on_c, 0, 71, 0
2, 6630480, Note_on_c, 0, 72, 100
2, 6633120, Note_on_c, 0, 72, 0
2, 6633120, Note_on_c, 0, 71, 100
2, 6633600, Note_on_c, 0, 71, 0
2, 6633600, Note_on_c, 0, 67, 100
2, 6635040, Note_on_c, 0, 67, 0
2, 6635040, Note_on_c, 0, 64, 100
2, 6635520, Note_on_c, 0, 64, 0
2, 6635520, Note_on_c, 0, 69, 100
2, 6636960, Note_on_c, 0, 69, 0
2, 6636960, Note_on_c, 0, 67, 100
2, 6637200, Note_on_c, 0, 67, 0
2, 6637200, Note_on_c, 0, 66, 100
2, 6637440, Note_on_c, 0, 66, 0
2, 6637440, Note_on_c, 0, 67, 100
2, 6637920, Note_on_c, 0, 67, 0
2, 6637920, Note_on_c, 0, 66, 100
2, 6638880, Note_on_c, 0, 66, 0
2, 6638880, Note_on_c, 0, 67, 100
2, 6639360, Note_on_c, 0, 67, 0
2, 6639360, Note_on_c, 0, 62, 100
2, 6639600, Note_on_c, 0, 62, 0
2, 6639600, Note_on_c, 0, 60, 100
2, 6639840, Note_on_c, 0, 60, 0
2, 6639840, Note_on_c, 0, 62, 100
2, 6640080, Note_on_c, 0, 62, 0
2, 6640080, Note_on_c, 0, 59, 100
2, 6640320, Note_on_c, 0, 59, 0
2, 6640320, Note_on_c, 0, 71, 100
2, 6648960, Note_on_c, 0, 71, 0
2, 6648960, Note_on_c, 0, 72, 100
2, 6649920, Note_on_c, 0, 72, 0
2, 6649920, Note_on_c, 0, 71, 100
2, 6650040, Note_on_c, 0, 71, 0
2, 6650040, Note_on_c, 0, 72, 100
2, 6650160, Note_on_c, 0, 72, 0
2, 6650160, Note_on_c, 0, 71, 100
2, 6650280, Note_on_c, 0, 71, 0
2, 6650280, Note_on_c, 0, 72, 100
2, 6650400, Note_on_c, 0, 72, 0
2, 6650400, Note_on_c, 0, 71, 100
2, 6650520, Note_on_c, 0, 71, 0
2, 6650520, Note_on_c, 0, 69, 100
2, 6650640, Note_on_c, 0, 69, 0
2, 6650640, Note_on_c, 0, 71, 100
2, 6650760, Note_on_c, 0, 71, 0
2, 6650760, Note_on_c, 0, 72, 100
2, 6650880, Note_on_c, 0, 72, 0
2, 6650880, Note_on_c, 0, 69, 100
2, 6651360, Note_on_c, 0, 69, 0
2, 6651360, Note_on_c, 0, 66, 100
2, 6651840, Note_on_c, 0, 66, 0
2, 6651840, Note_on_c, 0, 69, 100
2, 6652320, Note_on_c, 0, 69, 0
2, 6652320, Note_on_c, 0, 66, 100
2, 6652800, Note_on_c, 0, 66, 0
2, 6652800, Note_on_c, 0, 71, 100
2, 6653280, Note_on_c, 0, 71, 0
2, 6653280, Note_on_c, 0, 59, 100
2, 6653760, Note_on_c, 0, 59, 0
2, 6653760, Note_on_c, 0, 69, 100
2, 6654720, Note_on_c, 0, 69, 0
2, 6654720, Note_on_c, 0, 67, 100
2, 6654800, Note_on_c, 0, 67, 0
2, 6654800, Note_on_c, 0, 69, 100
2, 6654880, Note_on_c, 0, 69, 0
2, 6654880, Note_on_c, 0, 67, 100
2, 6654960, Note_on_c, 0, 67, 0
2, 6654960, Note_on_c, 0, 66, 100
2, 6655200, Note_on_c, 0, 66, 0
2, 6655200, Note_on_c, 0, 67, 100
2, 6655440, Note_on_c, 0, 67, 0
2, 6655440, Note_on_c, 0, 64, 100
2, 6655680, Note_on_c, 0, 64, 0
2, 6655680, Note_on_c, 0, 69, 100
2, 6657600, Note_on_c, 0, 69, 0
2, 6657600, Note_on_c, 0, 74, 100
2, 6659040, Note_on_c, 0, 74, 0
2, 6659040, Note_on_c, 0, 71, 100
2, 6659520, Note_on_c, 0, 71, 0
2, 6659520, Note_on_c, 0, 67, 100
2, 6660000, Note_on_c, 0, 67, 0
2, 6660000, Note_on_c, 0, 72, 100
2, 6660960, Note_on_c, 0, 72, 0
2, 6660960, Note_on_c, 0, 71, 100
2, 6661200, Note_on_c, 0, 71, 0
2, 6661200, Note_on_c, 0, 72, 100
2, 6663840, Note_on_c, 0, 72, 0
2, 6663840, Note_on_c, 0, 71, 100
2, 6664320, Note_on_c, 0, 71, 0
2, 6664320, Note_on_c, 0, 67, 100
2, 6665760, Note_on_c, 0, 67, 0
2, 6665760, Note_on_c, 0, 64, 100
2, 6666240, Note_on_c, 0, 64, 0
2, 6666240, Note_on_c, 0, 69, 100
2, 6667680, Note_on_c, 0, 69, 0
2, 6667680, Note_on_c, 0, 67, 100
2, 6667920, Note_on_c, 0, 67, 0
2, 6667920, Note_on_c, 0, 66, 100
2, 6668160, Note_on_c, 0, 66, 0
2, 6668160, Note_on_c, 0, 67, 100
2, 6668640, Note_on_c, 0, 67, 0
2, 6668640, Note_on_c, 0, 66, 100
2, 6669600, Note_on_c, 0, 66, 0
2, 6669600, Note_on_c, 0, 67, 100
2, 6670080, Note_on_c, 0, 67, 0
2, 6670080, Note_on_c, 0, 62, 100
2, 6670320, Note_on_c, 0, 62, 0
2, 6670320, Note_on_c, 0, 60, 100
2, 6670560, Note_on_c, 0, 60, 0
2, 6670560, Note_on_c, 0, 62, 100
2, 6670800, Note_on_c, 0, 62, 0
2, 6670800, Note_on_c, 0, 59, 100
2, 6671040, Note_on_c, 0, 59, 0
2, 6671040, Note_on_c, 0, 71, 100
2, 6672000, Note_on_c, 0, 71, 0
2, 6672000, Note_on_c, 0, 69, 100
2, 6672120, Note_on_c, 0, 69, 0
2, 6672120, Note_on_c, 0, 67, 100
2, 6672240, Note_on_c, 0, 67, 0
2, 6672240, Note_on_c, 0, 66, 100
2, 6672360, Note_on_c, 0, 66, 0
2, 6672360, Note_on_c, 0, 64, 100
2, 6672480, Note_on_c, 0, 64, 0
2, 6672480, Note_on_c, 0, 62, 100
2, 6672600, Note_on_c, 0, 62, 0
2, 6672600, Note_on_c, 0, 61, 100
2, 6672720, Note_on_c, 0, 61, 0
2, 6672720, Note_on_c, 0, 64, 100
2, 6673320, Note_on_c, 0, 64, 0
2, 6673320, Note_on_c, 0, 69, 100
2, 6673440, Note_on_c, 0, 69, 0
2, 6673440, Note_on_c, 0, 67, 100
2, 6673560, Note_on_c, 0, 67, 0
2, 6673560, Note_on_c, 0, 66, 100
2, 6673680, Note_on_c, 0, 66, 0
2, 6673680, Note_on_c, 0, 64, 100
2, 6673800, Note_on_c, 0, 64, 0
2, 6673800, Note_on_c, 0, 62, 100
2, 6673920, Note_on_c, 0, 62, 0
2, 6673920, Note_on_c, 0, 61, 100
2, 6674040, Note_on_c, 0, 61, 0
2, 6674040, Note_on_c, 0, 59, 100
2, 6674160, Note_on_c, 0, 59, 0
2, 6674160, Note_on_c, 0, 69, 100
2, 6674760, Note_on_c, 0, 69, 0
2, 6674760, Note_on_c, 0, 67, 100
2, 6674880, Note_on_c, 0, 67, 0
2, 6674880, Note_on_c, 0, 66, 100
2, 6675000, Note_on_c, 0, 66, 0
2, 6675000, Note_on_c, 0, 64, 100
2, 6675120, Note_on_c, 0, 64, 0
2, 6675120, Note_on_c, 0, 62, 100
2, 6675240, Note_on_c, 0, 62, 0
2, 6675240, Note_on_c, 0, 61, 100
2, 6675360, Note_on_c, 0, 61, 0
2, 6675360, Note_on_c, 0, 59, 100
2, 6675480, Note_on_c, 0, 59, 0
2, 6675480, Note_on_c, 0, 57, 100
2, 6675600, Note_on_c, 0, 57, 0
2, 6675600, Note_on_c, 0, 61, 100
2, 6675840, Note_on_c, 0, 61, 0
2, 6675840, Note_on_c, 0, 64, 100
2, 6675960, Note_on_c, 0, 64, 0
2, 6675960, Note_on_c, 0, 67, 100
2, 6676200, Note_on_c, 0, 67, 0
2, 6676200, Note_on_c, 0, 66, 100
2, 6676320, Note_on_c, 0, 66, 0
2, 6676320, Note_on_c, 0, 64, 100
2, 6676440, Note_on_c, 0, 64, 0
2, 6676440, Note_on_c, 0, 62, 100
2, 6676560, Note_on_c, 0, 62, 0
2, 6676560, Note_on_c, 0, 61, 100
2, 6676680, Note_on_c, 0, 61, 0
2, 6676680, Note_on_c, 0, 59, 100
2, 6676800, Note_on_c, 0, 59, 0
2, 6676800, Note_on_c, 0, 57, 100
2, 6676920, Note_on_c, 0, 57, 0
2, 6676920, Note_on_c, 0, 55, 100
2, 6677040, Note_on_c, 0, 55, 0
2, 6677040, Note_on_c, 0, 54, 100
2, 6677160, Note_on_c, 0, 54, 0
2, 6677160, Note_on_c, 0, 52, 100
2, 6677280, Note_on_c, 0, 52, 0
2, 6677280, Note_on_c, 0, 50, 100
2, 6677400, Note_on_c, 0, 50, 0
2, 6677400, Note_on_c, 0, 52, 100
2, 6677520, Note_on_c, 0, 52, 0
2, 6677520, Note_on_c, 0, 48, 100
2, 6677640, Note_on_c, 0, 48, 0
2, 6677640, Note_on_c, 0, 47, 100
2, 6677760, Note_on_c, 0, 47, 0
2, 6677760, Note_on_c, 0, 50, 100
2, 6677880, Note_on_c, 0, 50, 0
2, 6677880, Note_on_c, 0, 55, 100
2, 6678000, Note_on_c, 0, 55, 0
2, 6678000, Note_on_c, 0, 59, 100
2, 6678120, Note_on_c, 0, 59, 0
2, 6678120, Note_on_c, 0, 62, 100
2, 6678240, Note_on_c, 0, 62, 0
2, 6678240, Note_on_c, 0, 67, 100
2, 6678360, Note_on_c, 0, 67, 0
2, 6678360, Note_on_c, 0, 62, 100
2, 6678480, Note_on_c, 0, 62, 0
2, 6678480, Note_on_c, 0, 59, 100
2, 6678600, Note_on_c, 0, 59, 0
2, 6678600, Note_on_c, 0, 55, 100
2, 6678720, Note_on_c, 0, 55, 0
2, 6678720, Note_on_c, 0, 53, 100
2, 6678840, Note_on_c, 0, 53, 0
2, 6678840, Note_on_c, 0, 52, 100
2, 6678960, Note_on_c, 0, 52, 0
2, 6678960, Note_on_c, 0, 50, 100
2, 6679080, Note_on_c, 0, 50, 0
2, 6679080, Note_on_c, 0, 49, 100
2, 6679200, Note_on_c, 0, 49, 0
2, 6679200, Note_on_c, 0, 52, 100
2, 6679320, Note_on_c, 0, 52, 0
2, 6679320, Note_on_c, 0, 55, 100
2, 6679440, Note_on_c, 0, 55, 0
2, 6679440, Note_on_c, 0, 58, 100
2, 6679560, Note_on_c, 0, 58, 0
2, 6679560, Note_on_c, 0, 64, 100
2, 6679680, Note_on_c, 0, 64, 0
2, 6679680, Note_on_c, 0, 67, 100
2, 6679800, Note_on_c, 0, 67, 0
2, 6679800, Note_on_c, 0, 64, 100
2, 6679920, Note_on_c, 0, 64, 0
2, 6679920, Note_on_c, 0, 58, 100
2, 6680040, Note_on_c, 0, 58, 0
2, 6680040, Note_on_c, 0, 57, 100
2, 6680160, Note_on_c, 0, 57, 0
2, 6680160, Note_on_c, 0, 55, 100
2, 6680280, Note_on_c, 0, 55, 0
2, 6680280, Note_on_c, 0, 54, 100
2, 6680400, Note_on_c, 0, 54, 0
2, 6680400, Note_on_c, 0, 52, 100
2, 6680520, Note_on_c, 0, 52, 0
2, 6680520, Note_on_c, 0, 50, 100
2, 6680640, Note_on_c, 0, 50, 0
2, 6680640, Note_on_c, 0, 55, 100
2, 6680760, Note_on_c, 0, 55, 0
2, 6680760, Note_on_c, 0, 59, 100
2, 6680880, Note_on_c, 0, 59, 0
2, 6680880, Note_on_c, 0, 62, 100
2, 6681000, Note_on_c, 0, 62, 0
2, 6681000, Note_on_c, 0, 67, 100
2, 6681120, Note_on_c, 0, 67, 0
2, 6681120, Note_on_c, 0, 71, 100
2, 6681240, Note_on_c, 0, 71, 0
2, 6681240, Note_on_c, 0, 69, 100
2, 6681360, Note_on_c, 0, 69, 0
2, 6681360, Note_on_c, 0, 66, 100
2, 6681480, Note_on_c, 0, 66, 0
2, 6681480, Note_on_c, 0, 62, 100
2, 6681600, Note_on_c, 0, 62, 0
2, 6681600, Note_on_c, 0, 60, 100
2, 6681720, Note_on_c, 0, 60, 0
2, 6681720, Note_on_c, 0, 59, 100
2, 6681840, Note_on_c, 0, 59, 0
2, 6681840, Note_on_c, 0, 57, 100
2, 6681960, Note_on_c, 0, 57, 0
2, 6681960, Note_on_c, 0, 55, 100
2, 6682080, Note_on_c, 0, 55, 0
2, 6682080, Note_on_c, 0, 59, 100
2, 6682200, Note_on_c, 0, 59, 0
2, 6682200, Note_on_c, 0, 62, 100
2, 6682320, Note_on_c, 0, 62, 0
2, 6682320, Note_on_c, 0, 67, 100
2, 6682440, Note_on_c, 0, 67, 0
2, 6682440, Note_on_c, 0, 71, 100
2, 6682560, Note_on_c, 0, 71, 0
2, 6682560, Note_on_c, 0, 74, 100
2, 6682680, Note_on_c, 0, 74, 0
2, 6682680, Note_on_c, 0, 79, 100
2, 6682800, Note_on_c, 0, 79, 0
2, 6682800, Note_on_c, 0, 74, 100
2, 6683040, Note_on_c, 0, 74, 0
2, 6683040, Note_on_c, 0, 71, 100
2, 6683160, Note_on_c, 0, 71, 0
2, 6683160, Note_on_c, 0, 66, 100
2, 6683400, Note_on_c, 0, 66, 0
2, 6683400, Note_on_c, 0, 67, 100
2, 6683520, Note_on_c, 0, 67, 0
2, 6683520, Note_on_c, 0, 71, 100
2, 6684120, Note_on_c, 0, 71, 0
2, 6684120, Note_on_c, 0, 76, 100
2, 6684240, Note_on_c, 0, 76, 0
2, 6684240, Note_on_c, 0, 74, 100
2, 6684360, Note_on_c, 0, 74, 0
2, 6684360, Note_on_c, 0, 73, 100
2, 6684480, Note_on_c, 0, 73, 0
2, 6684480, Note_on_c, 0, 71, 100
2, 6684600, Note_on_c, 0, 71, 0
2, 6684600, Note_on_c, 0, 69, 100
2, 6684720, Note_on_c, 0, 69, 0
2, 6684720, Note_on_c, 0, 67, 100
2, 6684840, Note_on_c, 0, 67, 0
2, 6684840, Note_on_c, 0, 66, 100
2, 6684960, Note_on_c, 0, 66, 0
2, 6684960, Note_on_c, 0, 76, 100
2, 6685560, Note_on_c, 0, 76, 0
2, 6685560, Note_on_c, 0, 74, 100
2, 6685680, Note_on_c, 0, 74, 0
2, 6685680, Note_on_c, 0, 73, 100
2, 6685800, Note_on_c, 0, 73, 0
2, 6685800, Note_on_c, 0, 71, 100
2, 6685920, Note_on_c, 0, 71, 0
2, 6685920, Note_on_c, 0, 69, 100
2, 6686040, Note_on_c, 0, 69, 0
2, 6686040, Note_on_c, 0, 67, 100
2, 6686160, Note_on_c, 0, 67, 0
2, 6686160, Note_on_c, 0, 66, 100
2, 6686280, Note_on_c, 0, 66, 0
2, 6686280, Note_on_c, 0, 64, 100
2, 6686400, Note_on_c, 0, 64, 0
2, 6686400, Note_on_c, 0, 66, 100
2, 6686880, Note_on_c, 0, 66, 0
2, 6686880, Note_on_c, 0, 67, 100
2, 6687000, Note_on_c, 0, 67, 0
2, 6687000, Note_on_c, 0, 61, 100
2, 6687120, Note_on_c, 0, 61, 0
2, 6687120, Note_on_c, 0, 71, 100
2, 6687240, Note_on_c, 0, 71, 0
2, 6687240, Note_on_c, 0, 69, 100
2, 6687360, Note_on_c, 0, 69, 0
2, 6687360, Note_on_c, 0, 67, 100
2, 6687480, Note_on_c, 0, 67, 0
2, 6687480, Note_on_c, 0, 69, 100
2, 6687600, Note_on_c, 0, 69, 0
2, 6687600, Note_on_c, 0, 71, 100
2, 6687720, Note_on_c, 0, 71, 0
2, 6687720, Note_on_c, 0, 64, 100
2, 6687840, Note_on_c, 0, 64, 0
2, 6687840, Note_on_c, 0, 74, 100
2, 6687960, Note_on_c, 0, 74, 0
2, 6687960, Note_on_c, 0, 73, 100
2, 6688080, Note_on_c, 0, 73, 0
2, 6688080, Note_on_c, 0, 71, 100
2, 6688200, Note_on_c, 0, 71, 0
2, 6688200, Note_on_c, 0, 73, 100
2, 6688320, Note_on_c, 0, 73, 0
2, 6688320, Note_on_c, 0, 74, 100
2, 6688440, Note_on_c, 0, 74, 0
2, 6688440, Note_on_c, 0, 73, 100
2, 6688560, Note_on_c, 0, 73, 0
2, 6688560, Note_on_c, 0, 76, 100
2, 6688680, Note_on_c, 0, 76, 0
2, 6688680, Note_on_c, 0, 78, 100
2, 6688800, Note_on_c, 0, 78, 0
2, 6688800, Note_on_c, 0, 79, 100
2, 6688920, Note_on_c, 0, 79, 0
2, 6688920, Note_on_c, 0, 78, 100
2, 6689040, Note_on_c, 0, 78, 0
2, 6689040, Note_on_c, 0, 76, 100
2, 6689280, Note_on_c, 0, 76, 0
2, 6689280, Note_on_c, 0, 74, 100
2, 6689400, Note_on_c, 0, 74, 0
2, 6689400, Note_on_c, 0, 73, 100
2, 6689460, Note_on_c, 0, 73, 0
2, 6689460, Note_on_c, 0, 74, 100
2, 6689520, Note_on_c, 0, 74, 0
2, 6689520, Note_on_c, 0, 76, 100
2, 6689580, Note_on_c, 0, 76, 0
2, 6689580, Note_on_c, 0, 74, 100
2, 6689640, Note_on_c, 0, 74, 0
2, 6689640, Note_on_c, 0, 76, 100
2, 6689700, Note_on_c, 0, 76, 0
2, 6689700, Note_on_c, 0, 74, 100
2, 6689760, Note_on_c, 0, 74, 0
2, 6689760, Note_on_c, 0, 76, 100
2, 6689820, Note_on_c, 0, 76, 0
2, 6689820, Note_on_c, 0, 74, 100
2, 6689880, Note_on_c, 0, 74, 0
2, 6689880, Note_on_c, 0, 76, 100
2, 6689940, Note_on_c, 0, 76, 0
2, 6689940, Note_on_c, 0, 74, 100
2, 6690000, Note_on_c, 0, 74, 0
2, 6690000, Note_on_c, 0, 66, 100
2, 6690240, Note_on_c, 0, 66, 0
2, 6690240, Note_on_c, 0, 69, 100
2, 6690360, Note_on_c, 0, 69, 0
2, 6690360, Note_on_c, 0, 74, 100
2, 6690600, Note_on_c, 0, 74, 0
2, 6690600, Note_on_c, 0, 73, 100
2, 6690720, Note_on_c, 0, 73, 0
2, 6690720, Note_on_c, 0, 74, 100
2, 6690840, Note_on_c, 0, 74, 0
2, 6690840, Note_on_c, 0, 76, 100
2, 6690900, Note_on_c, 0, 76, 0
2, 6690900, Note_on_c, 0, 74, 100
2, 6690960, Note_on_c, 0, 74, 0
2, 6690960, Note_on_c, 0, 76, 100
2, 6691020, Note_on_c, 0, 76, 0
2, 6691020, Note_on_c, 0, 74, 100
2, 6691080, Note_on_c, 0, 74, 0
2, 6691080, Note_on_c, 0, 76, 100
2, 6691140, Note_on_c, 0, 76, 0
2, 6691140, Note_on_c, 0, 74, 100
2, 6691200, Note_on_c, 0, 74, 0
2, 6691200, Note_on_c, 0, 76, 100
2, 6691260, Note_on_c, 0, 76, 0
2, 6691260, Note_on_c, 0, 74, 100
2, 6691320, Note_on_c, 0, 74, 0
2, 6691320, Note_on_c, 0, 76, 100
2, 6691380, Note_on_c, 0, 76, 0
2, 6691380, Note_on_c, 0, 74, 100
2, 6691440, Note_on_c, 0, 74, 0
2, 6691440, Note_on_c, 0, 68, 100
2, 6691680, Note_on_c, 0, 68, 0
2, 6691680, Note_on_c, 0, 71, 100
2, 6691800, Note_on_c, 0, 71, 0
2, 6691800, Note_on_c, 0, 74, 100
2, 6692040, Note_on_c, 0, 74, 0
2, 6692040, Note_on_c, 0, 73, 100
2, 6692160, Note_on_c, 0, 73, 0
2, 6692160, Note_on_c, 0, 74, 100
2, 6692280, Note_on_c, 0, 74, 0
2, 6692280, Note_on_c, 0, 76, 100
2, 6692340, Note_on_c, 0, 76, 0
2, 6692340, Note_on_c, 0, 74, 100
2, 6692400, Note_on_c, 0, 74, 0
2, 6692400, Note_on_c, 0, 76, 100
2, 6692460, Note_on_c, 0, 76, 0
2, 6692460, Note_on_c, 0, 74, 100
2, 6692520, Note_on_c, 0, 74, 0
2, 6692520, Note_on_c, 0, 76, 100
2, 6692580, Note_on_c, 0, 76, 0
2, 6692580, Note_on_c, 0, 74, 100
2, 6692640, Note_on_c, 0, 74, 0
2, 6692640, Note_on_c, 0, 76, 100
2, 6692700, Note_on_c, 0, 76, 0
2, 6692700, Note_on_c, 0, 74, 100
2, 6692760, Note_on_c, 0, 74, 0
2, 6692760, Note_on_c, 0, 76, 100
2, 6692820, Note_on_c, 0, 76, 0
2, 6692820, Note_on_c, 0, 74, 100
2, 6692880, Note_on_c, 0, 74, 0
2, 6692880, Note_on_c, 0, 76, 100
2, 6693000, Note_on_c, 0, 76, 0
2, 6693000, Note_on_c, 0, 79, 100
2, 6693120, Note_on_c, 0, 79, 0
2, 6693120, Note_on_c, 0, 73, 100
2, 6693240, Note_on_c, 0, 73, 0
2, 6693240, Note_on_c, 0, 76, 100
2, 6693360, Note_on_c, 0, 76, 0
2, 6693360, Note_on_c, 0, 79, 100
2, 6693480, Note_on_c, 0, 79, 0
2, 6693480, Note_on_c, 0, 78, 100
2, 6693600, Note_on_c, 0, 78, 0
2, 6693600, Note_on_c, 0, 74, 100
2, 6694080, Note_on_c, 0, 74, 0
2, 6694080, Note_on_c, 0, 69, 100
2, 6694200, Note_on_c, 0, 69, 0
2, 6694200, Note_on_c, 0, 66, 100
2, 6694320, Note_on_c, 0, 66, 0
2, 6694320, Note_on_c, 0, 62, 100
2, 6694440, Note_on_c, 0, 62, 0
2, 6694440, Note_on_c, 0, 66, 100
2, 6694560, Note_on_c, 0, 66, 0
2, 6694560, Note_on_c, 0, 69, 100
2, 6694680, Note_on_c, 0, 69, 0
2, 6694680, Note_on_c, 0, 73, 100
2, 6694800, Note_on_c, 0, 73, 0
2, 6694800, Note_on_c, 0, 74, 100
2, 6694920, Note_on_c, 0, 74, 0
2, 6694920, Note_on_c, 0, 71, 100
2, 6695040, Note_on_c, 0, 71, 0
2, 6695040, Note_on_c, 0, 69, 100
2, 6695160, Note_on_c, 0, 69, 0
2, 6695160, Note_on_c, 0, 67, 100
2, 6695280, Note_on_c, 0, 67, 0
2, 6695280, Note_on_c, 0, 66, 100
2, 6695400, Note_on_c, 0, 66, 0
2, 6695400, Note_on_c, 0, 64, 100
2, 6695520, Note_on_c, 0, 64, 0
2, 6695520, Note_on_c, 0, 62, 100
2, 6695640, Note_on_c, 0, 62, 0
2, 6695640, Note_on_c, 0, 61, 100
2, 6695760, Note_on_c, 0, 61, 0
2, 6695760, Note_on_c, 0, 64, 100
2, 6696360, Note_on_c, 0, 64, 0
2, 6696360, Note_on_c, 0, 69, 100
2, 6696480, Note_on_c, 0, 69, 0
2, 6696480, Note_on_c, 0, 67, 100
2, 6696600, Note_on_c, 0, 67, 0
2, 6696600, Note_on_c, 0, 66, 100
2, 6696720, Note_on_c, 0, 66, 0
2, 6696720, Note_on_c, 0, 64, 100
2, 6696840, Note_on_c, 0, 64, 0
2, 6696840, Note_on_c, 0, 62, 100
2, 6696960, Note_on_c, 0, 62, 0
2, 6696960, Note_on_c, 0, 61, 100
2, 6697080, Note_on_c, 0, 61, 0
2, 6697080, Note_on_c, 0, 59, 100
2, 6697200, Note_on_c, 0, 59, 0
2, 6697200, Note_on_c, 0, 69, 100
2, 6697800, Note_on_c, 0, 69, 0
2, 6697800, Note_on_c, 0, 67, 100
2, 6697920, Note_on_c, 0, 67, 0
2, 6697920, Note_on_c, 0, 66, 100
2, 6698040, Note_on_c, 0, 66, 0
2, 6698040, Note_on_c, 0, 64, 100
2, 6698160, Note_on_c, 0, 64, 0
2, 6698160, Note_on_c, 0, 62, 100
2, 6698280, Note_on_c, 0, 62, 0
2, 6698280, Note_on_c, 0, 61, 100
2, 6698400, Note_on_c, 0, 61, 0
2, 6698400, Note_on_c, 0, 59, 100
2, 6698520, Note_on_c, 0, 59, 0
2, 6698520, Note_on_c, 0, 57, 100
2, 6698640, Note_on_c, 0, 57, 0
2, 6698640, Note_on_c, 0, 61, 100
2, 6698880, Note_on_c, 0, 61, 0
2, 6698880, Note_on_c, 0, 64, 100
2, 6699000, Note_on_c, 0, 64, 0
2, 6699000, Note_on_c, 0, 67, 100
2, 6699240, Note_on_c, 0, 67, 0
2, 6699240, Note_on_c, 0, 66, 100
2, 6699360, Note_on_c, 0, 66, 0
2, 6699360, Note_on_c, 0, 64, 100
2, 6699480, Note_on_c, 0, 64, 0
2, 6699480, Note_on_c, 0, 62, 100
2, 6699600, Note_on_c, 0, 62, 0
2, 6699600, Note_on_c, 0, 61, 100
2, 6699720, Note_on_c, 0, 61, 0
2, 6699720, Note_on_c, 0, 59, 100
2, 6699840, Note_on_c, 0, 59, 0
2, 6699840, Note_on_c, 0, 57, 100
2, 6699960, Note_on_c, 0, 57, 0
2, 6699960, Note_on_c, 0, 55, 100
2, 6700080, Note_on_c, 0, 55, 0
2, 6700080, Note_on_c, 0, 54, 100
2, 6700200, Note_on_c, 0, 54, 0
2, 6700200, Note_on_c, 0, 52, 100
2, 6700320, Note_on_c, 0, 52, 0
2, 6700320, Note_on_c, 0, 50, 100
2, 6700440, Note_on_c, 0, 50, 0
2, 6700440, Note_on_c, 0, 52, 100
2, 6700560, Note_on_c, 0, 52, 0
2, 6700560, Note_on_c, 0, 48, 100
2, 6700680, Note_on_c, 0, 48, 0
2, 6700680, Note_on_c, 0, 47, 100
2, 6700800, Note_on_c, 0, 47, 0
2, 6700800, Note_on_c, 0, 50, 100
2, 6700920, Note_on_c, 0, 50, 0
2, 6700920, Note_on_c, 0, 55, 100
2, 6701040, Note_on_c, 0, 55, 0
2, 6701040, Note_on_c, 0, 59, 100
2, 6701160, Note_on_c, 0, 59, 0
2, 6701160, Note_on_c, 0, 62, 100
2, 6701280, Note_on_c, 0, 62, 0
2, 6701280, Note_on_c, 0, 67, 100
2, 6701400, Note_on_c, 0, 67, 0
2, 6701400, Note_on_c, 0, 62, 100
2, 6701520, Note_on_c, 0, 62, 0
2, 6701520, Note_on_c, 0, 59, 100
2, 6701640, Note_on_c, 0, 59, 0
2, 6701640, Note_on_c, 0, 55, 100
2, 6701760, Note_on_c, 0, 55, 0
2, 6701760, Note_on_c, 0, 53, 100
2, 6701880, Note_on_c, 0, 53, 0
2, 6701880, Note_on_c, 0, 52, 100
2, 6702000, Note_on_c, 0, 52, 0
2, 6702000, Note_on_c, 0, 50, 100
2, 6702120, Note_on_c, 0, 50, 0
2, 6702120, Note_on_c, 0, 49, 100
2, 6702240, Note_on_c, 0, 49, 0
2, 6702240, Note_on_c, 0, 52, 100
2, 6702360, Note_on_c, 0, 52, 0
2, 6702360, Note_on_c, 0, 55, 100
2, 6702480, Note_on_c, 0, 55, 0
2, 6702480, Note_on_c, 0, 58, 100
2, 6702600, Note_on_c, 0, 58, 0
2, 6702600, Note_on_c, 0, 64, 100
2, 6702720, Note_on_c, 0, 64, 0
2, 6702720, Note_on_c, 0, 67, 100
2, 6702840, Note_on_c, 0, 67, 0
2, 6702840, Note_on_c, 0, 64, 100
2, 6702960, Note_on_c, 0, 64, 0
2, 6702960, Note_on_c, 0, 58, 100
2, 6703080, Note_on_c, 0, 58, 0
2, 6703080, Note_on_c, 0, 57, 100
2, 6703200, Note_on_c, 0, 57, 0
2, 6703200, Note_on_c, 0, 55, 100
2, 6703320, Note_on_c, 0, 55, 0
2, 6703320, Note_on_c, 0, 54, 100
2, 6703440, Note_on_c, 0, 54, 0
2, 6703440, Note_on_c, 0, 52, 100
2, 6703560, Note_on_c, 0, 52, 0
2, 6703560, Note_on_c, 0, 50, 100
2, 6703680, Note_on_c, 0, 50, 0
2, 6703680, Note_on_c, 0, 55, 100
2, 6703800, Note_on_c, 0, 55, 0
2, 6703800, Note_on_c, 0, 59, 100
2, 6703920, Note_on_c, 0, 59, 0
2, 6703920, Note_on_c, 0, 62, 100
2, 6704040, Note_on_c, 0, 62, 0
2, 6704040, Note_on_c, 0, 67, 100
2, 6704160, Note_on_c, 0, 67, 0
2, 6704160, Note_on_c, 0, 71, 100
2, 6704280, Note_on_c, 0, 71, 0
2, 6704280, Note_on_c, 0, 69, 100
2, 6704400, Note_on_c, 0, 69, 0
2, 6704400, Note_on_c, 0, 66, 100
2, 6704520, Note_on_c, 0, 66, 0
2, 6704520, Note_on_c, 0, 62, 100
2, 6704640, Note_on_c, 0, 62, 0
2, 6704640, Note_on_c, 0, 60, 100
2, 6704760, Note_on_c, 0, 60, 0
2, 6704760, Note_on_c, 0, 59, 100
2, 6704880, Note_on_c, 0, 59, 0
2, 6704880, Note_on_c, 0, 57, 100
2, 6705000, Note_on_c, 0, 57, 0
2, 6705000, Note_on_c, 0, 55, 100
2, 6705120, Note_on_c, 0, 55, 0
2, 6705120, Note_on_c, 0, 59, 100
2, 6705240, Note_on_c, 0, 59, 0
2, 6705240, Note_on_c, 0, 62, 100
2, 6705360, Note_on_c, 0, 62, 0
2, 6705360, Note_on_c, 0, 67, 100
2, 6705480, Note_on_c, 0, 67, 0
2, 6705480, Note_on_c, 0, 71, 100
2, 6705600, Note_on_c, 0, 71, 0
2, 6705600, Note_on_c, 0, 74, 100
2, 6705720, Note_on_c, 0, 74, 0
2, 6705720, Note_on_c, 0, 79, 100
2, 6705840, Note_on_c, 0, 79, 0
2, 6705840, Note_on_c, 0, 74, 100
2, 6706080, Note_on_c, 0, 74, 0
2, 6706080, Note_on_c, 0, 71, 100
2, 6706200, Note_on_c, 0, 71, 0
2, 6706200, Note_on_c, 0, 66, 100
2, 6706440, Note_on_c, 0, 66, 0
2, 6706440, Note_on_c, 0, 67, 100
2, 6706560, Note_on_c, 0, 67, 0
2, 6706560, Note_on_c, 0, 71, 100
2, 6707160, Note_on_c, 0, 71, 0
2, 6707160, Note_on_c, 0, 76, 100
2, 6707280, Note_on_c, 0, 76, 0
2, 6707280, Note_on_c, 0, 74, 100
2, 6707400, Note_on_c, 0, 74, 0
2, 6707400, Note_on_c, 0, 73, 100
2, 6707520, Note_on_c, 0, 73, 0
2, 6707520, Note_on_c, 0, 71, 100
2, 6707640, Note_on_c, 0, 71, 0
2, 6707640, Note_on_c, 0, 69, 100
2, 6707760, Note_on_c, 0, 69, 0
2, 6707760, Note_on_c, 0, 67, 100
2, 6707880, Note_on_c, 0, 67, 0
2, 6707880, Note_on_c, 0, 66, 100
2, 6708000, Note_on_c, 0, 66, 0
2, 6708000, Note_on_c, 0, 76, 100
2, 6708600, Note_on_c, 0, 76, 0
2, 6708600, Note_on_c, 0, 74, 100
2, 6708720, Note_on_c, 0, 74, 0
2, 6708720, Note_on_c, 0, 73, 100
2, 6708840, Note_on_c, 0, 73, 0
2, 6708840, Note_on_c, 0, 71, 100
2, 6708960, Note_on_c, 0, 71, 0
2, 6708960, Note_on_c, 0, 69, 100
2, 6709080, Note_on_c, 0, 69, 0
2, 6709080, Note_on_c, 0, 67, 100
2, 6709200, Note_on_c, 0, 67, 0
2, 6709200, Note_on_c, 0, 66, 100
2, 6709320, Note_on_c, 0, 66, 0
2, 6709320, Note_on_c, 0, 64, 100
2, 6709440, Note_on_c, 0, 64, 0
2, 6709440, Note_on_c, 0, 66, 100
2, 6709920, Note_on_c, 0, 66, 0
2, 6709920, Note_on_c, 0, 67, 100
2, 6710040, Note_on_c, 0, 67, 0
2, 6710040, Note_on_c, 0, 61, 100
2, 6710160, Note_on_c, 0, 61, 0
2, 6710160, Note_on_c, 0, 71, 100
2, 6710280, Note_on_c, 0, 71, 0
2, 6710280, Note_on_c, 0, 69, 100
2, 6710400, Note_on_c, 0, 69, 0
2, 6710400, Note_on_c, 0, 67, 100
2, 6710520, Note_on_c, 0, 67, 0
2, 6710520, Note_on_c, 0, 69, 100
2, 6710640, Note_on_c, 0, 69, 0
2, 6710640, Note_on_c, 0, 71, 100
2, 6710760, Note_on_c, 0, 71, 0
2, 6710760, Note_on_c, 0, 64, 100
2, 6710880, Note_on_c, 0, 64, 0
2, 6710880, Note_on_c, 0, 74, 100
2, 6711000, Note_on_c, 0, 74, 0
2, 6711000, Note_on_c, 0, 73, 100
2, 6711120, Note_on_c, 0, 73, 0
2, 6711120, Note_on_c, 0, 71, 100
2, 6711240, Note_on_c, 0, 71, 0
2, 6711240, Note_on_c, 0, 73, 100
2, 6711360, Note_on_c, 0, 73, 0
2, 6711360, Note_on_c, 0, 74, 100
2, 6711480, Note_on_c, 0, 74, 0
2, 6711480, Note_on_c, 0, 73, 100
2, 6711600, Note_on_c, 0, 73, 0
2, 6711600, Note_on_c, 0, 76, 100
2, 6711720, Note_on_c, 0, 76, 0
2, 6711720, Note_on_c, 0, 78, 100
2, 6711840, Note_on_c, 0, 78, 0
2, 6711840, Note_on_c, 0, 79, 100
2, 6711960, Note_on_c, 0, 79, 0
2, 6711960, Note_on_c, 0, 78, 100
2, 6712080, Note_on_c, 0, 78, 0
2, 6712080, Note_on_c, 0, 76, 100
2, 6712320, Note_on_c, 0, 76, 0
2, 6712320, Note_on_c, 0, 74, 100
2, 6712440, Note_on_c, 0, 74, 0
2, 6712440, Note_on_c, 0, 73, 100
2, 6712500, Note_on_c, 0, 73, 0
2, 6712500, Note_on_c, 0, 74, 100
2, 6712560, Note_on_c, 0, 74, 0
2, 6712560, Note_on_c, 0, 76, 100
2, 6712620, Note_on_c, 0, 76, 0
2, 6712620, Note_on_c, 0, 74, 100
2, 6712680, Note_on_c, 0, 74, 0
2, 6712680, Note_on_c, 0, 76, 100
2, 6712740, Note_on_c, 0, 76, 0
2, 6712740, Note_on_c, 0, 74, 100
2, 6712800, Note_on_c, 0, 74, 0
2, 6712800, Note_on_c, 0, 76, 100
2, 6712860, Note_on_c, 0, 76, 0
2, 6712860, Note_on_c, 0, 74, 100
2, 6712920, Note_on_c, 0, 74, 0
2, 6712920, Note_on_c, 0, 76, 100
2, 6712980, Note_on_c, 0, 76, 0
2, 6712980, Note_on_c, 0, 74, 100
2, 6713040, Note_on_c, 0, 74, 0
2, 6713040, Note_on_c, 0, 66, 100
2, 6713280, Note_on_c, 0, 66, 0
2, 6713280, Note_on_c, 0, 69, 100
2, 6713400, Note_on_c, 0, 69, 0
2, 6713400, Note_on_c, 0, 74, 100
2, 6713640, Note_on_c, 0, 74, 0
2, 6713640, Note_on_c, 0, 73, 100
2, 6713760, Note_on_c, 0, 73, 0
2, 6713760, Note_on_c, 0, 74, 100
2, 6713880, Note_on_c, 0, 74, 0
2, 6713880, Note_on_c, 0, 76, 100
2, 6713940, Note_on_c, 0, 76, 0
2, 6713940, Note_on_c, 0, 74, 100
2, 6714000, Note_on_c, 0, 74, 0
2, 6714000, Note_on_c, 0, 76, 100
2, 6714060, Note_on_c, 0, 76, 0
2, 6714060, Note_on_c, 0, 74, 100
2, 6714120, Note_on_c, 0, 74, 0
2, 6714120, Note_on_c, 0, 76, 100
2, 6714180, Note_on_c, 0, 76, 0
2, 6714180, Note_on_c, 0, 74, 100
2, 6714240, Note_on_c, 0, 74, 0
2, 6714240, Note_on_c, 0, 76, 100
2, 6714300, Note_on_c, 0, 76, 0
2, 6714300, Note_on_c, 0, 74, 100
2, 6714360, Note_on_c, 0, 74, 0
2, 6714360, Note_on_c, 0, 76, 100
2, 6714420, Note_on_c, 0, 76, 0
2, 6714420, Note_on_c, 0, 74, 100
2, 6714480, Note_on_c, 0, 74, 0
2, 6714480, Note_on_c, 0, 68, 100
2, 6714720, Note_on_c, 0, 68, 0
2, 6714720, Note_on_c, 0, 71, 100
2, 6714840, Note_on_c, 0, 71, 0
2, 6714840, Note_on_c, 0, 74, 100
2, 6715080, Note_on_c, 0, 74, 0
2, 6715080, Note_on_c, 0, 73, 100
2, 6715200, Note_on_c, 0, 73, 0
2, 6715200, Note_on_c, 0, 74, 100
2, 6715320, Note_on_c, 0, 74, 0
2, 6715320, Note_on_c, 0, 76, 100
2, 6715380, Note_on_c, 0, 76, 0
2, 6715380, Note_on_c, 0, 74, 100
2, 6715440, Note_on_c, 0, 74, 0
2, 6715440, Note_on_c, 0, 76, 100
2, 6715500, Note_on_c, 0, 76, 0
2, 6715500, Note_on_c, 0, 74, 100
2, 6715560, Note_on_c, 0, 74, 0
2, 6715560, Note_on_c, 0, 76, 100
2, 6715620, Note_on_c, 0, 76, 0
2, 6715620, Note_on_c, 0, 74, 100
2, 6715680, Note_on_c, 0, 74, 0
2, 6715680, Note_on_c, 0, 76, 100
2, 6715740, Note_on_c, 0, 76, 0
2, 6715740, Note_on_c, 0, 74, 100
2, 6715800, Note_on_c, 0, 74, 0
2, 6715800, Note_on_c, 0, 76, 100
2, 6715860, Note_on_c, 0, 76, 0
2, 6715860, Note_on_c, 0, 74, 100
2, 6715920, Note_on_c, 0, 74, 0
2, 6715920, Note_on_c, 0, 76, 100
2, 6716040, Note_on_c, 0, 76, 0
2, 6716040, Note_on_c, 0, 79, 100
2, 6716160, Note_on_c, 0, 79, 0
2, 6716160, Note_on_c, 0, 73, 100
2, 6716280, Note_on_c, 0, 73, 0
2, 6716280, Note_on_c, 0, 76, 100
2, 6716400, Note_on_c, 0, 76, 0
2, 6716400, Note_on_c, 0, 79, 100
2, 6716520, Note_on_c, 0, 79, 0
2, 6716520, Note_on_c, 0, 78, 100
2, 6716640, Note_on_c, 0, 78, 0
2, 6716640, Note_on_c, 0, 74, 100
2, 6717120, Note_on_c, 0, 74, 0
2, 6717120, Note_on_c, 0, 69, 100
2, 6717240, Note_on_c, 0, 69, 0
2, 6717240, Note_on_c, 0, 66, 100
2, 6717360, Note_on_c, 0, 66, 0
2, 6717360, Note_on_c, 0, 62, 100
2, 6717480, Note_on_c, 0, 62, 0
2, 6717480, Note_on_c, 0, 66, 100
2, 6717600, Note_on_c, 0, 66, 0
2, 6717600, Note_on_c, 0, 69, 100
2, 6717720, Note_on_c, 0, 69, 0
2, 6717720, Note_on_c, 0, 73, 100
2, 6717840, Note_on_c, 0, 73, 0
2, 6717840, Note_on_c, 0, 74, 100
2, 6717960, Note_on_c, 0, 74, 0
2, 6717960, Note_on_c, 0, 81, 100
2, 6718800, Note_on_c, 0, 81, 0
2, 6718800, Note_on_c, 0, 79, 100
2, 6718920, Note_on_c, 0, 79, 0
2, 6718920, Note_on_c, 0, 78, 100
2, 6719040, Note_on_c, 0, 78, 0
2, 6719040, Note_on_c, 0, 76, 100
2, 6719160, Note_on_c, 0, 76, 0
2, 6719160, Note_on_c, 0, 74, 100
2, 6719280, Note_on_c, 0, 74, 0
2, 6719280, Note_on_c, 0, 72, 100
2, 6719400, Note_on_c, 0, 72, 0
2, 6719400, Note_on_c, 0, 71, 100
2, 6719520, Note_on_c, 0, 71, 0
2, 6719520, Note_on_c, 0, 69, 100
2, 6719640, Note_on_c, 0, 69, 0
2, 6719640, Note_on_c, 0, 67, 100
2, 6719760, Note_on_c, 0, 67, 0
2, 6719760, Note_on_c, 0, 86, 100
2, 6720240, Note_on_c, 0, 86, 0
2, 6720240, Note_on_c, 0, 84, 100
2, 6720360, Note_on_c, 0, 84, 0
2, 6720360, Note_on_c, 0, 83, 100
2, 6720480, Note_on_c, 0, 83, 0
2, 6720480, Note_on_c, 0, 81, 100
2, 6720600, Note_on_c, 0, 81, 0
2, 6720600, Note_on_c, 0, 79, 100
2, 6720720, Note_on_c, 0, 79, 0
2, 6720720, Note_on_c, 0, 77, 100
2, 6720840, Note_on_c, 0, 77, 0
2, 6720840, Note_on_c, 0, 76, 100
2, 6720960, Note_on_c, 0, 76, 0
2, 6720960, Note_on_c, 0, 74, 100
2, 6721080, Note_on_c, 0, 74, 0
2, 6721080, Note_on_c, 0, 72, 100
2, 6721200, Note_on_c, 0, 72, 0
2, 6721200, Note_on_c, 0, 71, 100
2, 6721320, Note_on_c, 0, 71, 0
2, 6721320, Note_on_c, 0, 69, 100
2, 6721440, Note_on_c, 0, 69, 0
2, 6721440, Note_on_c, 0, 67, 100
2, 6721560, Note_on_c, 0, 67, 0
2, 6721560, Note_on_c, 0, 66, 100
2, 6721680, Note_on_c, 0, 66, 0
2, 6721680, Note_on_c, 0, 75, 100
2, 6721920, Note_on_c, 0, 75, 0
2, 6721920, Note_on_c, 0, 76, 100
2, 6722040, Note_on_c, 0, 76, 0
2, 6722040, Note_on_c, 0, 70, 100
2, 6722280, Note_on_c, 0, 70, 0
2, 6722280, Note_on_c, 0, 71, 100
2, 6722400, Note_on_c, 0, 71, 0
2, 6722400, Note_on_c, 0, 63, 100
2, 6722640, Note_on_c, 0, 63, 0
2, 6722640, Note_on_c, 0, 66, 100
2, 6722760, Note_on_c, 0, 66, 0
2, 6722760, Note_on_c, 0, 69, 100
2, 6723000, Note_on_c, 0, 69, 0
2, 6723000, Note_on_c, 0, 72, 100
2, 6723120, Note_on_c, 0, 72, 0
2, 6723120, Note_on_c, 0, 71, 100
2, 6723240, Note_on_c, 0, 71, 0
2, 6723240, Note_on_c, 0, 69, 100
2, 6723360, Note_on_c, 0, 69, 0
2, 6723360, Note_on_c, 0, 67, 100
2, 6723480, Note_on_c, 0, 67, 0
2, 6723480, Note_on_c, 0, 69, 100
2, 6723600, Note_on_c, 0, 69, 0
2, 6723600, Note_on_c, 0, 66, 100
2, 6723720, Note_on_c, 0, 66, 0
2, 6723720, Note_on_c, 0, 64, 100
2, 6723840, Note_on_c, 0, 64, 0
2, 6723840, Note_on_c, 0, 67, 100
2, 6723960, Note_on_c, 0, 67, 0
2, 6723960, Note_on_c, 0, 71, 100
2, 6724080, Note_on_c, 0, 71, 0
2, 6724080, Note_on_c, 0, 76, 100
2, 6724200, Note_on_c, 0, 76, 0
2, 6724200, Note_on_c, 0, 79, 100
2, 6724320, Note_on_c, 0, 79, 0
2, 6724320, Note_on_c, 0, 83, 100
2, 6724440, Note_on_c, 0, 83, 0
2, 6724440, Note_on_c, 0, 79, 100
2, 6724560, Note_on_c, 0, 79, 0
2, 6724560, Note_on_c, 0, 76, 100
2, 6724680, Note_on_c, 0, 76, 0
2, 6724680, Note_on_c, 0, 71, 100
2, 6724800, Note_on_c, 0, 71, 0
2, 6724800, Note_on_c, 0, 67, 100
2, 6724920, Note_on_c, 0, 67, 0
2, 6724920, Note_on_c, 0, 66, 100
2, 6725040, Note_on_c, 0, 66, 0
2, 6725040, Note_on_c, 0, 64, 100
2, 6725160, Note_on_c, 0, 64, 0
2, 6725160, Note_on_c, 0, 65, 100
2, 6725280, Note_on_c, 0, 65, 0
2, 6725280, Note_on_c, 0, 69, 100
2, 6725400, Note_on_c, 0, 69, 0
2, 6725400, Note_on_c, 0, 72, 100
2, 6725520, Note_on_c, 0, 72, 0
2, 6725520, Note_on_c, 0, 77, 100
2, 6725640, Note_on_c, 0, 77, 0
2, 6725640, Note_on_c, 0, 81, 100
2, 6725760, Note_on_c, 0, 81, 0
2, 6725760, Note_on_c, 0, 84, 100
2, 6725880, Note_on_c, 0, 84, 0
2, 6725880, Note_on_c, 0, 81, 100
2, 6726000, Note_on_c, 0, 81, 0
2, 6726000, Note_on_c, 0, 77, 100
2, 6726120, Note_on_c, 0, 77, 0
2, 6726120, Note_on_c, 0, 72, 100
2, 6726240, Note_on_c, 0, 72, 0
2, 6726240, Note_on_c, 0, 69, 100
2, 6726360, Note_on_c, 0, 69, 0
2, 6726360, Note_on_c, 0, 67, 100
2, 6726480, Note_on_c, 0, 67, 0
2, 6726480, Note_on_c, 0, 66, 100
2, 6726600, Note_on_c, 0, 66, 0
2, 6726600, Note_on_c, 0, 67, 100
2, 6726720, Note_on_c, 0, 67, 0
2, 6726720, Note_on_c, 0, 71, 100
2, 6726840, Note_on_c, 0, 71, 0
2, 6726840, Note_on_c, 0, 76, 100
2, 6726960, Note_on_c, 0, 76, 0
2, 6726960, Note_on_c, 0, 79, 100
2, 6727080, Note_on_c, 0, 79, 0
2, 6727080, Note_on_c, 0, 76, 100
2, 6727200, Note_on_c, 0, 76, 0
2, 6727200, Note_on_c, 0, 84, 100
2, 6727320, Note_on_c, 0, 84, 0
2, 6727320, Note_on_c, 0, 83, 100
2, 6727440, Note_on_c, 0, 83, 0
2, 6727440, Note_on_c, 0, 81, 100
2, 6727560, Note_on_c, 0, 81, 0
2, 6727560, Note_on_c, 0, 79, 100
2, 6727680, Note_on_c, 0, 79, 0
2, 6727680, Note_on_c, 0, 78, 100
2, 6727800, Note_on_c, 0, 78, 0
2, 6727800, Note_on_c, 0, 76, 100
2, 6727920, Note_on_c, 0, 76, 0
2, 6727920, Note_on_c, 0, 75, 100
2, 6728040, Note_on_c, 0, 75, 0
2, 6728040, Note_on_c, 0, 76, 100
2, 6728160, Note_on_c, 0, 76, 0
2, 6728160, Note_on_c, 0, 79, 100
2, 6728280, Note_on_c, 0, 79, 0
2, 6728280, Note_on_c, 0, 76, 100
2, 6728400, Note_on_c, 0, 76, 0
2, 6728400, Note_on_c, 0, 71, 100
2, 6728520, Note_on_c, 0, 71, 0
2, 6728520, Note_on_c, 0, 67, 100
2, 6728640, Note_on_c, 0, 67, 0
2, 6728640, Note_on_c, 0, 66, 100
2, 6728760, Note_on_c, 0, 66, 0
2, 6728760, Note_on_c, 0, 67, 100
2, 6728880, Note_on_c, 0, 67, 0
2, 6728880, Note_on_c, 0, 64, 100
2, 6729000, Note_on_c, 0, 64, 0
2, 6729000, Note_on_c, 0, 67, 100
2, 6729120, Note_on_c, 0, 67, 0
2, 6729120, Note_on_c, 0, 71, 100
2, 6729240, Note_on_c, 0, 71, 0
2, 6729240, Note_on_c, 0, 76, 100
2, 6729360, Note_on_c, 0, 76, 0
2, 6729360, Note_on_c, 0, 75, 100
2, 6729480, Note_on_c, 0, 75, 0
2, 6729480, Note_on_c, 0, 76, 100
2, 6729600, Note_on_c, 0, 76, 0
2, 6729600, Note_on_c, 0, 74, 100
2, 6729720, Note_on_c, 0, 74, 0
2, 6729720, Note_on_c, 0, 72, 100
2, 6729840, Note_on_c, 0, 72, 0
2, 6729840, Note_on_c, 0, 71, 100
2, 6729960, Note_on_c, 0, 71, 0
2, 6729960, Note_on_c, 0, 69, 100
2, 6730080, Note_on_c, 0, 69, 0
2, 6730080, Note_on_c, 0, 67, 100
2, 6730200, Note_on_c, 0, 67, 0
2, 6730200, Note_on_c, 0, 66, 100
2, 6730320, Note_on_c, 0, 66, 0
2, 6730320, Note_on_c, 0, 69, 100
2, 6730920, Note_on_c, 0, 69, 0
2, 6730920, Note_on_c, 0, 74, 100
2, 6731040, Note_on_c, 0, 74, 0
2, 6731040, Note_on_c, 0, 72, 100
2, 6731160, Note_on_c, 0, 72, 0
2, 6731160, Note_on_c, 0, 71, 100
2, 6731280, Note_on_c, 0, 71, 0
2, 6731280, Note_on_c, 0, 69, 100
2, 6731400, Note_on_c, 0, 69, 0
2, 6731400, Note_on_c, 0, 67, 100
2, 6731520, Note_on_c, 0, 67, 0
2, 6731520, Note_on_c, 0, 66, 100
2, 6731640, Note_on_c, 0, 66, 0
2, 6731640, Note_on_c, 0, 64, 100
2, 6731760, Note_on_c, 0, 64, 0
2, 6731760, Note_on_c, 0, 74, 100
2, 6732360, Note_on_c, 0, 74, 0
2, 6732360, Note_on_c, 0, 72, 100
2, 6732480, Note_on_c, 0, 72, 0
2, 6732480, Note_on_c, 0, 71, 100
2, 6732600, Note_on_c, 0, 71, 0
2, 6732600, Note_on_c, 0, 69, 100
2, 6732720, Note_on_c, 0, 69, 0
2, 6732720, Note_on_c, 0, 67, 100
2, 6732840, Note_on_c, 0, 67, 0
2, 6732840, Note_on_c, 0, 66, 100
2, 6732960, Note_on_c, 0, 66, 0
2, 6732960, Note_on_c, 0, 64, 100
2, 6733080, Note_on_c, 0, 64, 0
2, 6733080, Note_on_c, 0, 66, 100
2, 6733200, Note_on_c, 0, 66, 0
2, 6733200, Note_on_c, 0, 64, 100
2, 6733320, Note_on_c, 0, 64, 0
2, 6733320, Note_on_c, 0, 62, 100
2, 6733440, Note_on_c, 0, 62, 0
2, 6733440, Note_on_c, 0, 61, 100
2, 6733560, Note_on_c, 0, 61, 0
2, 6733560, Note_on_c, 0, 62, 100
2, 6733680, Note_on_c, 0, 62, 0
2, 6733680, Note_on_c, 0, 64, 100
2, 6733800, Note_on_c, 0, 64, 0
2, 6733800, Note_on_c, 0, 66, 100
2, 6733920, Note_on_c, 0, 66, 0
2, 6733920, Note_on_c, 0, 64, 100
2, 6734040, Note_on_c, 0, 64, 0
2, 6734040, Note_on_c, 0, 62, 100
2, 6734160, Note_on_c, 0, 62, 0
2, 6734160, Note_on_c, 0, 60, 100
2, 6734280, Note_on_c, 0, 60, 0
2, 6734280, Note_on_c, 0, 59, 100
2, 6734400, Note_on_c, 0, 59, 0
2, 6734400, Note_on_c, 0, 57, 100
2, 6734520, Note_on_c, 0, 57, 0
2, 6734520, Note_on_c, 0, 59, 100
2, 6734640, Note_on_c, 0, 59, 0
2, 6734640, Note_on_c, 0, 57, 100
2, 6734760, Note_on_c, 0, 57, 0
2, 6734760, Note_on_c, 0, 55, 100
2, 6734880, Note_on_c, 0, 55, 0
2, 6734880, Note_on_c, 0, 54, 100
2, 6735000, Note_on_c, 0, 54, 0
2, 6735000, Note_on_c, 0, 55, 100
2, 6735120, Note_on_c, 0, 55, 0
2, 6735120, Note_on_c, 0, 57, 100
2, 6735240, Note_on_c, 0, 57, 0
2, 6735240, Note_on_c, 0, 59, 100
2, 6735360, Note_on_c, 0, 59, 0
2, 6735360, Note_on_c, 0, 57, 100
2, 6735480, Note_on_c, 0, 57, 0
2, 6735480, Note_on_c, 0, 55, 100
2, 6735600, Note_on_c, 0, 55, 0
2, 6735600, Note_on_c, 0, 53, 100
2, 6735720, Note_on_c, 0, 53, 0
2, 6735720, Note_on_c, 0, 52, 100
2, 6735840, Note_on_c, 0, 52, 0
2, 6735840, Note_on_c, 0, 50, 100
2, 6735960, Note_on_c, 0, 50, 0
2, 6735960, Note_on_c, 0, 52, 100
2, 6736080, Note_on_c, 0, 52, 0
2, 6736080, Note_on_c, 0, 50, 100
2, 6736200, Note_on_c, 0, 50, 0
2, 6736200, Note_on_c, 0, 48, 100
2, 6736320, Note_on_c, 0, 48, 0
2, 6736320, Note_on_c, 0, 47, 100
2, 6736440, Note_on_c, 0, 47, 0
2, 6736440, Note_on_c, 0, 48, 100
2, 6736560, Note_on_c, 0, 48, 0
2, 6736560, Note_on_c, 0, 50, 100
2, 6736680, Note_on_c, 0, 50, 0
2, 6736680, Note_on_c, 0, 52, 100
2, 6736800, Note_on_c, 0, 52, 0
2, 6736800, Note_on_c, 0, 48, 100
2, 6736920, Note_on_c, 0, 48, 0
2, 6736920, Note_on_c, 0, 52, 100
2, 6737040, Note_on_c, 0, 52, 0
2, 6737040, Note_on_c, 0, 55, 100
2, 6737160, Note_on_c, 0, 55, 0
2, 6737160, Note_on_c, 0, 60, 100
2, 6737280, Note_on_c, 0, 60, 0
2, 6737280, Note_on_c, 0, 64, 100
2, 6737400, Note_on_c, 0, 64, 0
2, 6737400, Note_on_c, 0, 60, 100
2, 6737520, Note_on_c, 0, 60, 0
2, 6737520, Note_on_c, 0, 57, 100
2, 6737640, Note_on_c, 0, 57, 0
2, 6737640, Note_on_c, 0, 60, 100
2, 6737760, Note_on_c, 0, 60, 0
2, 6737760, Note_on_c, 0, 64, 100
2, 6737880, Note_on_c, 0, 64, 0
2, 6737880, Note_on_c, 0, 69, 100
2, 6738000, Note_on_c, 0, 69, 0
2, 6738000, Note_on_c, 0, 72, 100
2, 6738120, Note_on_c, 0, 72, 0
2, 6738120, Note_on_c, 0, 66, 100
2, 6738240, Note_on_c, 0, 66, 0
2, 6738240, Note_on_c, 0, 62, 100
2, 6738360, Note_on_c, 0, 62, 0
2, 6738360, Note_on_c, 0, 66, 100
2, 6738480, Note_on_c, 0, 66, 0
2, 6738480, Note_on_c, 0, 69, 100
2, 6738600, Note_on_c, 0, 69, 0
2, 6738600, Note_on_c, 0, 74, 100
2, 6738720, Note_on_c, 0, 74, 0
2, 6738720, Note_on_c, 0, 78, 100
2, 6738840, Note_on_c, 0, 78, 0
2, 6738840, Note_on_c, 0, 74, 100
2, 6738960, Note_on_c, 0, 74, 0
2, 6738960, Note_on_c, 0, 69, 100
2, 6739080, Note_on_c, 0, 69, 0
2, 6739080, Note_on_c, 0, 74, 100
2, 6739200, Note_on_c, 0, 74, 0
2, 6739200, Note_on_c, 0, 78, 100
2, 6739320, Note_on_c, 0, 78, 0
2, 6739320, Note_on_c, 0, 81, 100
2, 6739440, Note_on_c, 0, 81, 0
2, 6739440, Note_on_c, 0, 84, 100
2, 6739560, Note_on_c, 0, 84, 0
2, 6739560, Note_on_c, 0, 83, 100
2, 6739680, Note_on_c, 0, 83, 0
2, 6739680, Note_on_c, 0, 79, 100
2, 6739800, Note_on_c, 0, 79, 0
2, 6739800, Note_on_c, 0, 74, 100
2, 6739920, Note_on_c, 0, 74, 0
2, 6739920, Note_on_c, 0, 71, 100
2, 6740040, Note_on_c, 0, 71, 0
2, 6740040, Note_on_c, 0, 67, 100
2, 6740160, Note_on_c, 0, 67, 0
2, 6740160, Note_on_c, 0, 66, 100
2, 6740280, Note_on_c, 0, 66, 0
2, 6740280, Note_on_c, 0, 67, 100
2, 6740400, Note_on_c, 0, 67, 0
2, 6740400, Note_on_c, 0, 71, 100
2, 6740520, Note_on_c, 0, 71, 0
2, 6740520, Note_on_c, 0, 74, 100
2, 6740640, Note_on_c, 0, 74, 0
2, 6740640, Note_on_c, 0, 79, 100
2, 6740760, Note_on_c, 0, 79, 0
2, 6740760, Note_on_c, 0, 81, 100
2, 6741840, Note_on_c, 0, 81, 0
2, 6741840, Note_on_c, 0, 79, 100
2, 6741960, Note_on_c, 0, 79, 0
2, 6741960, Note_on_c, 0, 78, 100
2, 6742080, Note_on_c, 0, 78, 0
2, 6742080, Note_on_c, 0, 76, 100
2, 6742200, Note_on_c, 0, 76, 0
2, 6742200, Note_on_c, 0, 74, 100
2, 6742320, Note_on_c, 0, 74, 0
2, 6742320, Note_on_c, 0, 72, 100
2, 6742440, Note_on_c, 0, 72, 0
2, 6742440, Note_on_c, 0, 71, 100
2, 6742560, Note_on_c, 0, 71, 0
2, 6742560, Note_on_c, 0, 69, 100
2, 6742680, Note_on_c, 0, 69, 0
2, 6742680, Note_on_c, 0, 67, 100
2, 6742800, Note_on_c, 0, 67, 0
2, 6742800, Note_on_c, 0, 86, 100
2, 6743280, Note_on_c, 0, 86, 0
2, 6743280, Note_on_c, 0, 84, 100
2, 6743400, Note_on_c, 0, 84, 0
2, 6743400, Note_on_c, 0, 83, 100
2, 6743520, Note_on_c, 0, 83, 0
2, 6743520, Note_on_c, 0, 81, 100
2, 6743640, Note_on_c, 0, 81, 0
2, 6743640, Note_on_c, 0, 79, 100
2, 6743760, Note_on_c, 0, 79, 0
2, 6743760, Note_on_c, 0, 77, 100
2, 6743880, Note_on_c, 0, 77, 0
2, 6743880, Note_on_c, 0, 76, 100
2, 6744000, Note_on_c, 0, 76, 0
2, 6744000, Note_on_c, 0, 74, 100
2, 6744120, Note_on_c, 0, 74, 0
2, 6744120, Note_on_c, 0, 72, 100
2, 6744240, Note_on_c, 0, 72, 0
2, 6744240, Note_on_c, 0, 71, 100
2, 6744360, Note_on_c, 0, 71, 0
2, 6744360, Note_on_c, 0, 69, 100
2, 6744480, Note_on_c, 0, 69, 0
2, 6744480, Note_on_c, 0, 67, 100
2, 6744600, Note_on_c, 0, 67, 0
2, 6744600, Note_on_c, 0, 66, 100
2, 6744720, Note_on_c, 0, 66, 0
2, 6744720, Note_on_c, 0, 75, 100
2, 6744960, Note_on_c, 0, 75, 0
2, 6744960, Note_on_c, 0, 76, 100
2, 6745080, Note_on_c, 0, 76, 0
2, 6745080, Note_on_c, 0, 70, 100
2, 6745320, Note_on_c, 0, 70, 0
2, 6745320, Note_on_c, 0, 71, 100
2, 6745440, Note_on_c, 0, 71, 0
2, 6745440, Note_on_c, 0, 63, 100
2, 6745680, Note_on_c, 0, 63, 0
2, 6745680, Note_on_c, 0, 66, 100
2, 6745800, Note_on_c, 0, 66, 0
2, 6745800, Note_on_c, 0, 69, 100
2, 6746040, Note_on_c, 0, 69, 0
2, 6746040, Note_on_c, 0, 72, 100
2, 6746160, Note_on_c, 0, 72, 0
2, 6746160, Note_on_c, 0, 71, 100
2, 6746280, Note_on_c, 0, 71, 0
2, 6746280, Note_on_c, 0, 69, 100
2, 6746400, Note_on_c, 0, 69, 0
2, 6746400, Note_on_c, 0, 67, 100
2, 6746520, Note_on_c, 0, 67, 0
2, 6746520, Note_on_c, 0, 69, 100
2, 6746640, Note_on_c, 0, 69, 0
2, 6746640, Note_on_c, 0, 66, 100
2, 6746760, Note_on_c, 0, 66, 0
2, 6746760, Note_on_c, 0, 64, 100
2, 6746880, Note_on_c, 0, 64, 0
2, 6746880, Note_on_c, 0, 67, 100
2, 6747000, Note_on_c, 0, 67, 0
2, 6747000, Note_on_c, 0, 71, 100
2, 6747120, Note_on_c, 0, 71, 0
2, 6747120, Note_on_c, 0, 76, 100
2, 6747240, Note_on_c, 0, 76, 0
2, 6747240, Note_on_c, 0, 79, 100
2, 6747360, Note_on_c, 0, 79, 0
2, 6747360, Note_on_c, 0, 83, 100
2, 6747480, Note_on_c, 0, 83, 0
2, 6747480, Note_on_c, 0, 79, 100
2, 6747600, Note_on_c, 0, 79, 0
2, 6747600, Note_on_c, 0, 76, 100
2, 6747720, Note_on_c, 0, 76, 0
2, 6747720, Note_on_c, 0, 71, 100
2, 6747840, Note_on_c, 0, 71, 0
2, 6747840, Note_on_c, 0, 67, 100
2, 6747960, Note_on_c, 0, 67, 0
2, 6747960, Note_on_c, 0, 66, 100
2, 6748080, Note_on_c, 0, 66, 0
2, 6748080, Note_on_c, 0, 64, 100
2, 6748200, Note_on_c, 0, 64, 0
2, 6748200, Note_on_c, 0, 65, 100
2, 6748320, Note_on_c, 0, 65, 0
2, 6748320, Note_on_c, 0, 69, 100
2, 6748440, Note_on_c, 0, 69, 0
2, 6748440, Note_on_c, 0, 72, 100
2, 6748560, Note_on_c, 0, 72, 0
2, 6748560, Note_on_c, 0, 77, 100
2, 6748680, Note_on_c, 0, 77, 0
2, 6748680, Note_on_c, 0, 81, 100
2, 6748800, Note_on_c, 0, 81, 0
2, 6748800, Note_on_c, 0, 84, 100
2, 6748920, Note_on_c, 0, 84, 0
2, 6748920, Note_on_c, 0, 81, 100
2, 6749040, Note_on_c, 0, 81, 0
2, 6749040, Note_on_c, 0, 77, 100
2, 6749160, Note_on_c, 0, 77, 0
2, 6749160, Note_on_c, 0, 72, 100
2, 6749280, Note_on_c, 0, 72, 0
2, 6749280, Note_on_c, 0, 69, 100
2, 6749400, Note_on_c, 0, 69, 0
2, 6749400, Note_on_c, 0, 67, 100
2, 6749520, Note_on_c, 0, 67, 0
2, 6749520, Note_on_c, 0, 66, 100
2, 6749640, Note_on_c, 0, 66, 0
2, 6749640, Note_on_c, 0, 67, 100
2, 6749760, Note_on_c, 0, 67, 0
2, 6749760, Note_on_c, 0, 71, 100
2, 6749880, Note_on_c, 0, 71, 0
2, 6749880, Note_on_c, 0, 76, 100
2, 6750000, Note_on_c, 0, 76, 0
2, 6750000, Note_on_c, 0, 79, 100
2, 6750120, Note_on_c, 0, 79, 0
2, 6750120, Note_on_c, 0, 76, 100
2, 6750240, Note_on_c, 0, 76, 0
2, 6750240, Note_on_c, 0, 84, 100
2, 6750360, Note_on_c, 0, 84, 0
2, 6750360, Note_on_c, 0, 83, 100
2, 6750480, Note_on_c, 0, 83, 0
2, 6750480, Note_on_c, 0, 81, 100
2, 6750600, Note_on_c, 0, 81, 0
2, 6750600, Note_on_c, 0, 79, 100
2, 6750720, Note_on_c, 0, 79, 0
2, 6750720, Note_on_c, 0, 78, 100
2, 6750840, Note_on_c, 0, 78, 0
2, 6750840, Note_on_c, 0, 76, 100
2, 6750960, Note_on_c, 0, 76, 0
2, 6750960, Note_on_c, 0, 75, 100
2, 6751080, Note_on_c, 0, 75, 0
2, 6751080, Note_on_c, 0, 76, 100
2, 6751200, Note_on_c, 0, 76, 0
2, 6751200, Note_on_c, 0, 79, 100
2, 6751320, Note_on_c, 0, 79, 0
2, 6751320, Note_on_c, 0, 76, 100
2, 6751440, Note_on_c, 0, 76, 0
2, 6751440, Note_on_c, 0, 71, 100
2, 6751560, Note_on_c, 0, 71, 0
2, 6751560, Note_on_c, 0, 67, 100
2, 6751680, Note_on_c, 0, 67, 0
2, 6751680, Note_on_c, 0, 66, 100
2, 6751800, Note_on_c, 0, 66, 0
2, 6751800, Note_on_c, 0, 67, 100
2, 6751920, Note_on_c, 0, 67, 0
2, 6751920, Note_on_c, 0, 64, 100
2, 6752040, Note_on_c, 0, 64, 0
2, 6752040, Note_on_c, 0, 67, 100
2, 6752160, Note_on_c, 0, 67, 0
2, 6752160, Note_on_c, 0, 71, 100
2, 6752280, Note_on_c, 0, 71, 0
2, 6752280, Note_on_c, 0, 76, 100
2, 6752400, Note_on_c, 0, 76, 0
2, 6752400, Note_on_c, 0, 75, 100
2, 6752520, Note_on_c, 0, 75, 0
2, 6752520, Note_on_c, 0, 76, 100
2, 6752640, Note_on_c, 0, 76, 0
2, 6752640, Note_on_c, 0, 74, 100
2, 6752760, Note_on_c, 0, 74, 0
2, 6752760, Note_on_c, 0, 72, 100
2, 6752880, Note_on_c, 0, 72, 0
2, 6752880, Note_on_c, 0, 71, 100
2, 6753000, Note_on_c, 0, 71, 0
2, 6753000, Note_on_c, 0, 69, 100
2, 6753120, Note_on_c, 0, 69, 0
2, 6753120, Note_on_c, 0, 67, 100
2, 6753240, Note_on_c, 0, 67, 0
2, 6753240, Note_on_c, 0, 66, 100
2, 6753360, Note_on_c, 0, 66, 0
2, 6753360, Note_on_c, 0, 69, 100
2, 6753960, Note_on_c, 0, 69, 0
2, 6753960, Note_on_c, 0, 74, 100
2, 6754080, Note_on_c, 0, 74, 0
2, 6754080, Note_on_c, 0, 72, 100
2, 6754200, Note_on_c, 0, 72, 0
2, 6754200, Note_on_c, 0, 71, 100
2, 6754320, Note_on_c, 0, 71, 0
2, 6754320, Note_on_c, 0, 69, 100
2, 6754440, Note_on_c, 0, 69, 0
2, 6754440, Note_on_c, 0, 67, 100
2, 6754560, Note_on_c, 0, 67, 0
2, 6754560, Note_on_c, 0, 66, 100
2, 6754680, Note_on_c, 0, 66, 0
2, 6754680, Note_on_c, 0, 64, 100
2, 6754800, Note_on_c, 0, 64, 0
2, 6754800, Note_on_c, 0, 74, 100
2, 6755400, Note_on_c, 0, 74, 0
2, 6755400, Note_on_c, 0, 72, 100
2, 6755520, Note_on_c, 0, 72, 0
2, 6755520, Note_on_c, 0, 71, 100
2, 6755640, Note_on_c, 0, 71, 0
2, 6755640, Note_on_c, 0, 69, 100
2, 6755760, Note_on_c, 0, 69, 0
2, 6755760, Note_on_c, 0, 67, 100
2, 6755880, Note_on_c, 0, 67, 0
2, 6755880, Note_on_c, 0, 66, 100
2, 6756000, Note_on_c, 0, 66, 0
2, 6756000, Note_on_c, 0, 64, 100
2, 6756120, Note_on_c, 0, 64, 0
2, 6756120, Note_on_c, 0, 66, 100
2, 6756240, Note_on_c, 0, 66, 0
2, 6756240, Note_on_c, 0, 64, 100
2, 6756360, Note_on_c, 0, 64, 0
2, 6756360, Note_on_c, 0, 62, 100
2, 6756480, Note_on_c, 0, 62, 0
2, 6756480, Note_on_c, 0, 61, 100
2, 6756600, Note_on_c, 0, 61, 0
2, 6756600, Note_on_c, 0, 62, 100
2, 6756720, Note_on_c, 0, 62, 0
2, 6756720, Note_on_c, 0, 64, 100
2, 6756840, Note_on_c, 0, 64, 0
2, 6756840, Note_on_c, 0, 66, 100
2, 6756960, Note_on_c, 0, 66, 0
2, 6756960, Note_on_c, 0, 64, 100
2, 6757080, Note_on_c, 0, 64, 0
2, 6757080, Note_on_c, 0, 62, 100
2, 6757200, Note_on_c, 0, 62, 0
2, 6757200, Note_on_c, 0, 60, 100
2, 6757320, Note_on_c, 0, 60, 0
2, 6757320, Note_on_c, 0, 59, 100
2, 6757440, Note_on_c, 0, 59, 0
2, 6757440, Note_on_c, 0, 57, 100
2, 6757560, Note_on_c, 0, 57, 0
2, 6757560, Note_on_c, 0, 59, 100
2, 6757680, Note_on_c, 0, 59, 0
2, 6757680, Note_on_c, 0, 57, 100
2, 6757800, Note_on_c, 0, 57, 0
2, 6757800, Note_on_c, 0, 55, 100
2, 6757920, Note_on_c, 0, 55, 0
2, 6757920, Note_on_c, 0, 54, 100
2, 6758040, Note_on_c, 0, 54, 0
2, 6758040, Note_on_c, 0, 55, 100
2, 6758160, Note_on_c, 0, 55, 0
2, 6758160, Note_on_c, 0, 57, 100
2, 6758280, Note_on_c, 0, 57, 0
2, 6758280, Note_on_c, 0, 59, 100
2, 6758400, Note_on_c, 0, 59, 0
2, 6758400, Note_on_c, 0, 57, 100
2, 6758520, Note_on_c, 0, 57, 0
2, 6758520, Note_on_c, 0, 55, 100
2, 6758640, Note_on_c, 0, 55, 0
2, 6758640, Note_on_c, 0, 53, 100
2, 6758760, Note_on_c, 0, 53, 0
2, 6758760, Note_on_c, 0, 52, 100
2, 6758880, Note_on_c, 0, 52, 0
2, 6758880, Note_on_c, 0, 50, 100
2, 6759000, Note_on_c, 0, 50, 0
2, 6759000, Note_on_c, 0, 52, 100
2, 6759120, Note_on_c, 0, 52, 0
2, 6759120, Note_on_c, 0, 50, 100
2, 6759240, Note_on_c, 0, 50, 0
2, 6759240, Note_on_c, 0, 48, 100
2, 6759360, Note_on_c, 0, 48, 0
2, 6759360, Note_on_c, 0, 47, 100
2, 6759480, Note_on_c, 0, 47, 0
2, 6759480, Note_on_c, 0, 48, 100
2, 6759600, Note_on_c, 0, 48, 0
2, 6759600, Note_on_c, 0, 50, 100
2, 6759720, Note_on_c, 0, 50, 0
2, 6759720, Note_on_c, 0, 52, 100
2, 6759840, Note_on_c, 0, 52, 0
2, 6759840, Note_on_c, 0, 48, 100
2, 6759960, Note_on_c, 0, 48, 0
2, 6759960, Note_on_c, 0, 52, 100
2, 6760080, Note_on_c, 0, 52, 0
2, 6760080, Note_on_c, 0, 55, 100
2, 6760200, Note_on_c, 0, 55, 0
2, 6760200, Note_on_c, 0, 60, 100
2, 6760320, Note_on_c, 0, 60, 0
2, 6760320, Note_on_c, 0, 64, 100
2, 6760440, Note_on_c, 0, 64, 0
2, 6760440, Note_on_c, 0, 60, 100
2, 6760560, Note_on_c, 0, 60, 0
2, 6760560, Note_on_c, 0, 57, 100
2, 6760680, Note_on_c, 0, 57, 0
2, 6760680, Note_on_c, 0, 60, 100
2, 6760800, Note_on_c, 0, 60, 0
2, 6760800, Note_on_c, 0, 64, 100
2, 6760920, Note_on_c, 0, 64, 0
2, 6760920, Note_on_c, 0, 69, 100
2, 6761040, Note_on_c, 0, 69, 0
2, 6761040, Note_on_c, 0, 72, 100
2, 6761160, Note_on_c, 0, 72, 0
2, 6761160, Note_on_c, 0, 66, 100
2, 6761280, Note_on_c, 0, 66, 0
2, 6761280, Note_on_c, 0, 62, 100
2, 6761400, Note_on_c, 0, 62, 0
2, 6761400, Note_on_c, 0, 66, 100
2, 6761520, Note_on_c, 0, 66, 0
2, 6761520, Note_on_c, 0, 69, 100
2, 6761640, Note_on_c, 0, 69, 0
2, 6761640, Note_on_c, 0, 74, 100
2, 6761760, Note_on_c, 0, 74, 0
2, 6761760, Note_on_c, 0, 78, 100
2, 6761880, Note_on_c, 0, 78, 0
2, 6761880, Note_on_c, 0, 74, 100
2, 6762000, Note_on_c, 0, 74, 0
2, 6762000, Note_on_c, 0, 69, 100
2, 6762120, Note_on_c, 0, 69, 0
2, 6762120, Note_on_c, 0, 74, 100
2, 6762240, Note_on_c, 0, 74, 0
2, 6762240, Note_on_c, 0, 78, 100
2, 6762360, Note_on_c, 0, 78, 0
2, 6762360, Note_on_c, 0, 81, 100
2, 6762480, Note_on_c, 0, 81, 0
2, 6762480, Note_on_c, 0, 84, 100
2, 6762600, Note_on_c, 0, 84, 0
2, 6762600, Note_on_c, 0, 83, 100
2, 6762720, Note_on_c, 0, 83, 0
2, 6762720, Note_on_c, 0, 79, 100
2, 6762840, Note_on_c, 0, 79, 0
2, 6762840, Note_on_c, 0, 74, 100
2, 6762960, Note_on_c, 0, 74, 0
2, 6762960, Note_on_c, 0, 71, 100
2, 6763080, Note_on_c, 0, 71, 0
2, 6763080, Note_on_c, 0, 67, 100
2, 6763200, Note_on_c, 0, 67, 0
2, 6763200, Note_on_c, 0, 66, 100
2, 6763320, Note_on_c, 0, 66, 0
2, 6763320, Note_on_c, 0, 67, 100
2, 6763440, Note_on_c, 0, 67, 0
2, 6763440, Note_on_c, 0, 71, 100
2, 6763560, Note_on_c, 0, 71, 0
2, 6763560, Note_on_c, 0, 74, 100
2, 6763680, Note_on_c, 0, 74, 0
2, 6763680, Note_on_c, 0, 79, 100
2, 6763800, Note_on_c, 0, 79, 0
2, 6763800, Note_on_c, 0, 43, 100
2, 6948480, Note_on_c, 0, 43, 0
2, 6948480, Note_on_c, 0, 42, 100
2, 6948540, Note_on_c, 0, 42, 0
2, 6948540, Note_on_c, 0, 43, 100
2, 6948600, Note_on_c, 0, 43, 0
2, 6948600, Note_on_c, 0, 78, 100
2, 6948960, Note_on_c, 0, 78, 0
2, 6948960, Note_on_c, 0, 79, 100
2, 6949020, Note_on_c, 0, 79, 0
2, 6949020, Note_on_c, 0, 81, 100
2, 6949080, Note_on_c, 0, 81, 0
2, 6949080, Note_on_c, 0, 79, 100
2, 6949140, Note_on_c, 0, 79, 0
2, 6949140, Note_on_c, 0, 81, 100
2, 6949200, Note_on_c, 0, 81, 0
2, 6949200, Note_on_c, 0, 79, 100
2, 6949260, Note_on_c, 0, 79, 0
2, 6949260, Note_on_c, 0, 81, 100
2, 6949320, Note_on_c, 0, 81, 0
2, 6949320, Note_on_c, 0, 79, 100
2, 6949380, Note_on_c, 0, 79, 0
2, 6949380, Note_on_c, 0, 81, 100
2, 6949440, Note_on_c, 0, 81, 0
2, 6949440, Note_on_c, 0, 79, 100
2, 6949500, Note_on_c, 0, 79, 0
2, 6949500, Note_on_c, 0, 81, 100
2, 6949560, Note_on_c, 0, 81, 0
2, 6949560, Note_on_c, 0, 79, 100
2, 6949620, Note_on_c, 0, 79, 0
2, 6949620, Note_on_c, 0, 81, 100
2, 6949680, Note_on_c, 0, 81, 0
2, 6949680, Note_on_c, 0, 79, 100
2, 6949740, Note_on_c, 0, 79, 0
2, 6949740, Note_on_c, 0, 78, 100
2, 6949800, Note_on_c, 0, 78, 0
2, 6949800, Note_on_c, 0, 79, 100
2, 6949860, Note_on_c, 0, 79, 0
2, 6949860, Note_on_c, 0, 81, 100
2, 6949920, Note_on_c, 0, 81, 0
2, 6949920, Note_on_c, 0, 54, 100
2, 6950400, Note_on_c, 0, 54, 0
2, 6950400, Note_on_c, 0, 52, 100
2, 6950460, Note_on_c, 0, 52, 0
2, 6950460, Note_on_c, 0, 54, 100
2, 6950520, Note_on_c, 0, 54, 0
2, 6950520, Note_on_c, 0, 57, 100
2, 6951000, Note_on_c, 0, 57, 0
2, 6951000, Note_on_c, 0, 55, 100
2, 6951120, Note_on_c, 0, 55, 0
2, 6951120, Note_on_c, 0, 54, 100
2, 6951240, Note_on_c, 0, 54, 0
2, 6951240, Note_on_c, 0, 52, 100
2, 6951360, Note_on_c, 0, 52, 0
2, 6951360, Note_on_c, 0, 76, 100
2, 6951840, Note_on_c, 0, 76, 0
2, 6951840, Note_on_c, 0, 74, 100
2, 6952080, Note_on_c, 0, 74, 0
2, 6952080, Note_on_c, 0, 73, 100
2, 6952320, Note_on_c, 0, 73, 0
2, 6952320, Note_on_c, 0, 74, 100
2, 6952560, Note_on_c, 0, 74, 0
2, 6952560, Note_on_c, 0, 76, 100
2, 6952680, Note_on_c, 0, 76, 0
2, 6952680, Note_on_c, 0, 66, 100
2, 6952800, Note_on_c, 0, 66, 0
2, 6952800, Note_on_c, 0, 50, 100
2, 6953280, Note_on_c, 0, 50, 0
2, 6953280, Note_on_c, 0, 48, 100
2, 6953340, Note_on_c, 0, 48, 0
2, 6953340, Note_on_c, 0, 50, 100
2, 6953400, Note_on_c, 0, 50, 0
2, 6953400, Note_on_c, 0, 48, 100
2, 6953460, Note_on_c, 0, 48, 0
2, 6953460, Note_on_c, 0, 50, 100
2, 6953520, Note_on_c, 0, 50, 0
2, 6953520, Note_on_c, 0, 48, 100
2, 6953580, Note_on_c, 0, 48, 0
2, 6953580, Note_on_c, 0, 50, 100
2, 6953640, Note_on_c, 0, 50, 0
2, 6953640, Note_on_c, 0, 48, 100
2, 6953700, Note_on_c, 0, 48, 0
2, 6953700, Note_on_c, 0, 50, 100
2, 6953760, Note_on_c, 0, 50, 0
2, 6953760, Note_on_c, 0, 48, 100
2, 6953820, Note_on_c, 0, 48, 0
2, 6953820, Note_on_c, 0, 50, 100
2, 6953880, Note_on_c, 0, 50, 0
2, 6953880, Note_on_c, 0, 48, 100
2, 6953940, Note_on_c, 0, 48, 0
2, 6953940, Note_on_c, 0, 50, 100
2, 6954000, Note_on_c, 0, 50, 0
2, 6954000, Note_on_c, 0, 48, 100
2, 6954060, Note_on_c, 0, 48, 0
2, 6954060, Note_on_c, 0, 47, 100
2, 6954120, Note_on_c, 0, 47, 0
2, 6954120, Note_on_c, 0, 48, 100
2, 6954180, Note_on_c, 0, 48, 0
2, 6954180, Note_on_c, 0, 47, 100
2, 6954240, Note_on_c, 0, 47, 0
2, 6954240, Note_on_c, 0, 43, 100
2, 6954480, Note_on_c, 0, 43, 0
2, 6954480, Note_on_c, 0, 47, 100
2, 6954720, Note_on_c, 0, 47, 0
2, 6954720, Note_on_c, 0, 50, 100
2, 6954960, Note_on_c, 0, 50, 0
2, 6954960, Note_on_c, 0, 55, 100
2, 6955200, Note_on_c, 0, 55, 0
2, 6955200, Note_on_c, 0, 47, 100
2, 6955440, Note_on_c, 0, 47, 0
2, 6955440, Note_on_c, 0, 48, 100
2, 6955680, Note_on_c, 0, 48, 0
2, 6955680, Note_on_c, 0, 52, 100
2, 6955920, Note_on_c, 0, 52, 0
2, 6955920, Note_on_c, 0, 55, 100
2, 6956160, Note_on_c, 0, 55, 0
2, 6956160, Note_on_c, 0, 60, 100
2, 6956400, Note_on_c, 0, 60, 0
2, 6956400, Note_on_c, 0, 52, 100
2, 6956640, Note_on_c, 0, 52, 0
2, 6956640, Note_on_c, 0, 55, 100
2, 6956880, Note_on_c, 0, 55, 0
2, 6956880, Note_on_c, 0, 54, 100
2, 6957120, Note_on_c, 0, 54, 0
2, 6957120, Note_on_c, 0, 57, 100
2, 6957360, Note_on_c, 0, 57, 0
2, 6957360, Note_on_c, 0, 50, 100
2, 6957600, Note_on_c, 0, 50, 0
2, 6957600, Note_on_c, 0, 54, 100
2, 6957840, Note_on_c, 0, 54, 0
2, 6957840, Note_on_c, 0, 57, 100
2, 6958080, Note_on_c, 0, 57, 0
2, 6958080, Note_on_c, 0, 60, 100
2, 6958320, Note_on_c, 0, 60, 0
2, 6958320, Note_on_c, 0, 59, 100
2, 6958560, Note_on_c, 0, 59, 0
2, 6958560, Note_on_c, 0, 55, 100
2, 6958800, Note_on_c, 0, 55, 0
2, 6958800, Note_on_c, 0, 59, 100
2, 6959040, Note_on_c, 0, 59, 0
2, 6959040, Note_on_c, 0, 62, 100
2, 6959280, Note_on_c, 0, 62, 0
2, 6959280, Note_on_c, 0, 67, 100
2, 6959520, Note_on_c, 0, 67, 0
2, 6959520, Note_on_c, 0, 83, 100
2, 6960120, Note_on_c, 0, 83, 0
2, 6960120, Note_on_c, 0, 81, 100
2, 6960180, Note_on_c, 0, 81, 0
2, 6960180, Note_on_c, 0, 83, 100
2, 6960240, Note_on_c, 0, 83, 0
2, 6960240, Note_on_c, 0, 76, 100
2, 6960600, Note_on_c, 0, 76, 0
2, 6960600, Note_on_c, 0, 74, 100
2, 6960660, Note_on_c, 0, 74, 0
2, 6960660, Note_on_c, 0, 76, 100
2, 6960720, Note_on_c, 0, 76, 0
2, 6960720, Note_on_c, 0, 69, 100
2, 6961080, Note_on_c, 0, 69, 0
2, 6961080, Note_on_c, 0, 67, 100
2, 6961140, Note_on_c, 0, 67, 0
2, 6961140, Note_on_c, 0, 69, 100
2, 6961200, Note_on_c, 0, 69, 0
2, 6961200, Note_on_c, 0, 81, 100
2, 6961560, Note_on_c, 0, 81, 0
2, 6961560, Note_on_c, 0, 79, 100
2, 6961620, Note_on_c, 0, 79, 0
2, 6961620, Note_on_c, 0, 81, 100
2, 6961680, Note_on_c, 0, 81, 0
2, 6961680, Note_on_c, 0, 74, 100
2, 6962040, Note_on_c, 0, 74, 0
2, 6962040, Note_on_c, 0, 73, 100
2, 6962100, Note_on_c, 0, 73, 0
2, 6962100, Note_on_c, 0, 74, 100
2, 6962160, Note_on_c, 0, 74, 0
2, 6962160, Note_on_c, 0, 67, 100
2, 6962520, Note_on_c, 0, 67, 0
2, 6962520, Note_on_c, 0, 66, 100
2, 6962580, Note_on_c, 0, 66, 0
2, 6962580, Note_on_c, 0, 67, 100
2, 6962640, Note_on_c, 0, 67, 0
2, 6962640, Note_on_c, 0, 79, 100
2, 6963000, Note_on_c, 0, 79, 0
2, 6963000, Note_on_c, 0, 78, 100
2, 6963060, Note_on_c, 0, 78, 0
2, 6963060, Note_on_c, 0, 79, 100
2, 6963120, Note_on_c, 0, 79, 0
2, 6963120, Note_on_c, 0, 71, 100
2, 6963480, Note_on_c, 0, 71, 0
2, 6963480, Note_on_c, 0, 69, 100
2, 6963540, Note_on_c, 0, 69, 0
2, 6963540, Note_on_c, 0, 71, 100
2, 6963600, Note_on_c, 0, 71, 0
2, 6963600, Note_on_c, 0, 64, 100
2, 6963960, Note_on_c, 0, 64, 0
2, 6963960, Note_on_c, 0, 62, 100
2, 6964020, Note_on_c, 0, 62, 0
2, 6964020, Note_on_c, 0, 64, 100
2, 6964080, Note_on_c, 0, 64, 0
2, 6964080, Note_on_c, 0, 55, 100
2, 6964440, Note_on_c, 0, 55, 0
2, 6964440, Note_on_c, 0, 54, 100
2, 6964500, Note_on_c, 0, 54, 0
2, 6964500, Note_on_c, 0, 55, 100
2, 6964560, Note_on_c, 0, 55, 0
2, 6964560, Note_on_c, 0, 49, 100
2, 6964920, Note_on_c, 0, 49, 0
2, 6964920, Note_on_c, 0, 47, 100
2, 6964980, Note_on_c, 0, 47, 0
2, 6964980, Note_on_c, 0, 49, 100
2, 6965040, Note_on_c, 0, 49, 0
2, 6965040, Note_on_c, 0, 43, 100
2, 6965400, Note_on_c, 0, 43, 0
2, 6965400, Note_on_c, 0, 42, 100
2, 6965460, Note_on_c, 0, 42, 0
2, 6965460, Note_on_c, 0, 43, 100
2, 6965520, Note_on_c, 0, 43, 0
2, 6965520, Note_on_c, 0, 62, 100
2, 6965820, Note_on_c, 0, 62, 0
2, 6965820, Note_on_c, 0, 64, 100
2, 6965880, Note_on_c, 0, 64, 0
2, 6965880, Note_on_c, 0, 66, 100
2, 6965940, Note_on_c, 0, 66, 0
2, 6965940, Note_on_c, 0, 69, 100
2, 6966000, Note_on_c, 0, 69, 0
2, 6966000, Note_on_c, 0, 66, 100
2, 6966060, Note_on_c, 0, 66, 0
2, 6966060, Note_on_c, 0, 64, 100
2, 6966120, Note_on_c, 0, 64, 0
2, 6966120, Note_on_c, 0, 62, 100
2, 6966300, Note_on_c, 0, 62, 0
2, 6966300, Note_on_c, 0, 64, 100
2, 6966360, Note_on_c, 0, 64, 0
2, 6966360, Note_on_c, 0, 66, 100
2, 6966420, Note_on_c, 0, 66, 0
2, 6966420, Note_on_c, 0, 69, 100
2, 6966480, Note_on_c, 0, 69, 0
2, 6966480, Note_on_c, 0, 66, 100
2, 6966540, Note_on_c, 0, 66, 0
2, 6966540, Note_on_c, 0, 64, 100
2, 6966600, Note_on_c, 0, 64, 0
2, 6966600, Note_on_c, 0, 62, 100
2, 6966780, Note_on_c, 0, 62, 0
2, 6966780, Note_on_c, 0, 64, 100
2, 6966840, Note_on_c, 0, 64, 0
2, 6966840, Note_on_c, 0, 66, 100
2, 6966900, Note_on_c, 0, 66, 0
2, 6966900, Note_on_c, 0, 69, 100
2, 6966960, Note_on_c, 0, 69, 0
2, 6966960, Note_on_c, 0, 66, 100
2, 6967020, Note_on_c, 0, 66, 0
2, 6967020, Note_on_c, 0, 64, 100
2, 6967080, Note_on_c, 0, 64, 0
2, 6967080, Note_on_c, 0, 62, 100
2, 6967140, Note_on_c, 0, 62, 0
2, 6967140, Note_on_c, 0, 71, 100
2, 6967200, Note_on_c, 0, 71, 0
2, 6967200, Note_on_c, 0, 53, 100
2, 6967680, Note_on_c, 0, 53, 0
2, 6967680, Note_on_c, 0, 52, 100
2, 6968160, Note_on_c, 0, 52, 0
2, 6968160, Note_on_c, 0, 64, 100
2, 6968760, Note_on_c, 0, 64, 0
2, 6968760, Note_on_c, 0, 62, 100
2, 6968820, Note_on_c, 0, 62, 0
2, 6968820, Note_on_c, 0, 64, 100
2, 6968880, Note_on_c, 0, 64, 0
2, 6968880, Note_on_c, 0, 69, 100
2, 6969000, Note_on_c, 0, 69, 0
2, 6969000, Note_on_c, 0, 67, 100
2, 6969060, Note_on_c, 0, 67, 0
2, 6969060, Note_on_c, 0, 69, 100
2, 6969120, Note_on_c, 0, 69, 0
2, 6969120, Note_on_c, 0, 62, 100
2, 6969240, Note_on_c, 0, 62, 0
2, 6969240, Note_on_c, 0, 61, 100
2, 6969300, Note_on_c, 0, 61, 0
2, 6969300, Note_on_c, 0, 62, 100
2, 6969360, Note_on_c, 0, 62, 0
2, 6969360, Note_on_c, 0, 67, 100
2, 6969480, Note_on_c, 0, 67, 0
2, 6969480, Note_on_c, 0, 66, 100
2, 6969540, Note_on_c, 0, 66, 0
2, 6969540, Note_on_c, 0, 67, 100
2, 6969600, Note_on_c, 0, 67, 0
2, 6969600, Note_on_c, 0, 61, 100
2, 6969720, Note_on_c, 0, 61, 0
2, 6969720, Note_on_c, 0, 59, 100
2, 6969780, Note_on_c, 0, 59, 0
2, 6969780, Note_on_c, 0, 61, 100
2, 6969840, Note_on_c, 0, 61, 0
2, 6969840, Note_on_c, 0, 66, 100
2, 6969960, Note_on_c, 0, 66, 0
2, 6969960, Note_on_c, 0, 64, 100
2, 6970020, Note_on_c, 0, 64, 0
2, 6970020, Note_on_c, 0, 66, 100
2, 6970080, Note_on_c, 0, 66, 0
2, 6970080, Note_on_c, 0, 62, 100
2, 6970200, Note_on_c, 0, 62, 0
2, 6970200, Note_on_c, 0, 61, 100
2, 6970320, Note_on_c, 0, 61, 0
2, 6970320, Note_on_c, 0, 62, 100
2, 6970440, Note_on_c, 0, 62, 0
2, 6970440, Note_on_c, 0, 66, 100
2, 6970560, Note_on_c, 0, 66, 0
2, 6970560, Note_on_c, 0, 64, 100
2, 6970620, Note_on_c, 0, 64, 0
2, 6970620, Note_on_c, 0, 62, 100
2, 6970680, Note_on_c, 0, 62, 0
2, 6970680, Note_on_c, 0, 69, 100
2, 6970800, Note_on_c, 0, 69, 0
2, 6970800, Note_on_c, 0, 67, 100
2, 6970860, Note_on_c, 0, 67, 0
2, 6970860, Note_on_c, 0, 66, 100
2, 6970920, Note_on_c, 0, 66, 0
2, 6970920, Note_on_c, 0, 74, 100
2, 6971040, Note_on_c, 0, 74, 0
2, 6971040, Note_on_c, 0, 43, 100
2, 6971520, Note_on_c, 0, 43, 0
2, 6971520, Note_on_c, 0, 42, 100
2, 6971580, Note_on_c, 0, 42, 0
2, 6971580, Note_on_c, 0, 43, 100
2, 6971640, Note_on_c, 0, 43, 0
2, 6971640, Note_on_c, 0, 78, 100
2, 6972000, Note_on_c, 0, 78, 0
2, 6972000, Note_on_c, 0, 79, 100
2, 6972060, Note_on_c, 0, 79, 0
2, 6972060, Note_on_c, 0, 81, 100
2, 6972120, Note_on_c, 0, 81, 0
2, 6972120, Note_on_c, 0, 79, 100
2, 6972180, Note_on_c, 0, 79, 0
2, 6972180, Note_on_c, 0, 81, 100
2, 6972240, Note_on_c, 0, 81, 0
2, 6972240, Note_on_c, 0, 79, 100
2, 6972300, Note_on_c, 0, 79, 0
2, 6972300, Note_on_c, 0, 81, 100
2, 6972360, Note_on_c, 0, 81, 0
2, 6972360, Note_on_c, 0, 79, 100
2, 6972420, Note_on_c, 0, 79, 0
2, 6972420, Note_on_c, 0, 81, 100
2, 6972480, Note_on_c, 0, 81, 0
2, 6972480, Note_on_c, 0, 79, 100
2, 6972540, Note_on_c, 0, 79, 0
2, 6972540, Note_on_c, 0, 81, 100
2, 6972600, Note_on_c, 0, 81, 0
2, 6972600, Note_on_c, 0, 79, 100
2, 6972660, Note_on_c, 0, 79, 0
2, 6972660, Note_on_c, 0, 81, 100
2, 6972720, Note_on_c, 0, 81, 0
2, 6972720, Note_on_c, 0, 79, 100
2, 6972780, Note_on_c, 0, 79, 0
2, 6972780, Note_on_c, 0, 78, 100
2, 6972840, Note_on_c, 0, 78, 0
2, 6972840, Note_on_c, 0, 79, 100
2, 6972900, Note_on_c, 0, 79, 0
2, 6972900, Note_on_c, 0, 81, 100
2, 6972960, Note_on_c, 0, 81, 0
2, 6972960, Note_on_c, 0, 54, 100
2, 6973440, Note_on_c, 0, 54, 0
2, 6973440, Note_on_c, 0, 52, 100
2, 6973500, Note_on_c, 0, 52, 0
2, 6973500, Note_on_c, 0, 54, 100
2, 6973560, Note_on_c, 0, 54, 0
2, 6973560, Note_on_c, 0, 57, 100
2, 6974040, Note_on_c, 0, 57, 0
2, 6974040, Note_on_c, 0, 55, 100
2, 6974160, Note_on_c, 0, 55, 0
2, 6974160, Note_on_c, 0, 54, 100
2, 6974280, Note_on_c, 0, 54, 0
2, 6974280, Note_on_c, 0, 52, 100
2, 6974400, Note_on_c, 0, 52, 0
2, 6974400, Note_on_c, 0, 76, 100
2, 6974880, Note_on_c, 0, 76, 0
2, 6974880, Note_on_c, 0, 74, 100
2, 6975120, Note_on_c, 0, 74, 0
2, 6975120, Note_on_c, 0, 73, 100
2, 6975360, Note_on_c, 0, 73, 0
2, 6975360, Note_on_c, 0, 74, 100
2, 6975600, Note_on_c, 0, 74, 0
2, 6975600, Note_on_c, 0, 76, 100
2, 6975720, Note_on_c, 0, 76, 0
2, 6975720, Note_on_c, 0, 66, 100
2, 6975840, Note_on_c, 0, 66, 0
2, 6975840, Note_on_c, 0, 50, 100
2, 6976320, Note_on_c, 0, 50, 0
2, 6976320, Note_on_c, 0, 48, 100
2, 6976380, Note_on_c, 0, 48, 0
2, 6976380, Note_on_c, 0, 50, 100
2, 6976440, Note_on_c, 0, 50, 0
2, 6976440, Note_on_c, 0, 48, 100
2, 6976500, Note_on_c, 0, 48, 0
2, 6976500, Note_on_c, 0, 50, 100
2, 6976560, Note_on_c, 0, 50, 0
2, 6976560, Note_on_c, 0, 48, 100
2, 6976620, Note_on_c, 0, 48, 0
2, 6976620, Note_on_c, 0, 50, 100
2, 6976680, Note_on_c, 0, 50, 0
2, 6976680, Note_on_c, 0, 48, 100
2, 6976740, Note_on_c, 0, 48, 0
2, 6976740, Note_on_c, 0, 50, 100
2, 6976800, Note_on_c, 0, 50, 0
2, 6976800, Note_on_c, 0, 48, 100
2, 6976860, Note_on_c, 0, 48, 0
2, 6976860, Note_on_c, 0, 50, 100
2, 6976920, Note_on_c, 0, 50, 0
2, 6976920, Note_on_c, 0, 48, 100
2, 6976980, Note_on_c, 0, 48, 0
2, 6976980, Note_on_c, 0, 50, 100
2, 6977040, Note_on_c, 0, 50, 0
2, 6977040, Note_on_c, 0, 48, 100
2, 6977100, Note_on_c, 0, 48, 0
2, 6977100, Note_on_c, 0, 47, 100
2, 6977160, Note_on_c, 0, 47, 0
2, 6977160, Note_on_c, 0, 48, 100
2, 6977220, Note_on_c, 0, 48, 0
2, 6977220, Note_on_c, 0, 47, 100
2, 6977280, Note_on_c, 0, 47, 0
2, 6977280, Note_on_c, 0, 43, 100
2, 6977520, Note_on_c, 0, 43, 0
2, 6977520, Note_on_c, 0, 47, 100
2, 6977760, Note_on_c, 0, 47, 0
2, 6977760, Note_on_c, 0, 50, 100
2, 6978000, Note_on_c, 0, 50, 0
2, 6978000, Note_on_c, 0, 55, 100
2, 6978240, Note_on_c, 0, 55, 0
2, 6978240, Note_on_c, 0, 47, 100
2, 6978480, Note_on_c, 0, 47, 0
2, 6978480, Note_on_c, 0, 48, 100
2, 6978720, Note_on_c, 0, 48, 0
2, 6978720, Note_on_c, 0, 52, 100
2, 6978960, Note_on_c, 0, 52, 0
2, 6978960, Note_on_c, 0, 55, 100
2, 6979200, Note_on_c, 0, 55, 0
2, 6979200, Note_on_c, 0, 60, 100
2, 6979440, Note_on_c, 0, 60, 0
2, 6979440, Note_on_c, 0, 52, 100
2, 6979680, Note_on_c, 0, 52, 0
2, 6979680, Note_on_c, 0, 55, 100
2, 6979920, Note_on_c, 0, 55, 0
2, 6979920, Note_on_c, 0, 54, 100
2, 6980160, Note_on_c, 0, 54, 0
2, 6980160, Note_on_c, 0, 57, 100
2, 6980400, Note_on_c, 0, 57, 0
2, 6980400, Note_on_c, 0, 50, 100
2, 6980640, Note_on_c, 0, 50, 0
2, 6980640, Note_on_c, 0, 54, 100
2, 6980880, Note_on_c, 0, 54, 0
2, 6980880, Note_on_c, 0, 57, 100
2, 6981120, Note_on_c, 0, 57, 0
2, 6981120, Note_on_c, 0, 60, 100
2, 6981360, Note_on_c, 0, 60, 0
2, 6981360, Note_on_c, 0, 59, 100
2, 6981600, Note_on_c, 0, 59, 0
2, 6981600, Note_on_c, 0, 55, 100
2, 6981840, Note_on_c, 0, 55, 0
2, 6981840, Note_on_c, 0, 59, 100
2, 6982080, Note_on_c, 0, 59, 0
2, 6982080, Note_on_c, 0, 62, 100
2, 6982320, Note_on_c, 0, 62, 0
2, 6982320, Note_on_c, 0, 67, 100
2, 6982560, Note_on_c, 0, 67, 0
2, 6982560, Note_on_c, 0, 83, 100
2, 6983160, Note_on_c, 0, 83, 0
2, 6983160, Note_on_c, 0, 81, 100
2, 6983220, Note_on_c, 0, 81, 0
2, 6983220, Note_on_c, 0, 83, 100
2, 6983280, Note_on_c, 0, 83, 0
2, 6983280, Note_on_c, 0, 76, 100
2, 6983640, Note_on_c, 0, 76, 0
2, 6983640, Note_on_c, 0, 74, 100
2, 6983700, Note_on_c, 0, 74, 0
2, 6983700, Note_on_c, 0, 76, 100
2, 6983760, Note_on_c, 0, 76, 0
2, 6983760, Note_on_c, 0, 69, 100
2, 6984120, Note_on_c, 0, 69, 0
2, 6984120, Note_on_c, 0, 67, 100
2, 6984180, Note_on_c, 0, 67, 0
2, 6984180, Note_on_c, 0, 69, 100
2, 6984240, Note_on_c, 0, 69, 0
2, 6984240, Note_on_c, 0, 81, 100
2, 6984600, Note_on_c, 0, 81, 0
2, 6984600, Note_on_c, 0, 79, 100
2, 6984660, Note_on_c, 0, 79, 0
2, 6984660, Note_on_c, 0, 81, 100
2, 6984720, Note_on_c, 0, 81, 0
2, 6984720, Note_on_c, 0, 74, 100
2, 6985080, Note_on_c, 0, 74, 0
2, 6985080, Note_on_c, 0, 73, 100
2, 6985140, Note_on_c, 0, 73, 0
2, 6985140, Note_on_c, 0, 74, 100
2, 6985200, Note_on_c, 0, 74, 0
2, 6985200, Note_on_c, 0, 67, 100
2, 6985560, Note_on_c, 0, 67, 0
2, 6985560, Note_on_c, 0, 66, 100
2, 6985620, Note_on_c, 0, 66, 0
2, 6985620, Note_on_c, 0, 67, 100
2, 6985680, Note_on_c, 0, 67, 0
2, 6985680, Note_on_c, 0, 79, 100
2, 6986040, Note_on_c, 0, 79, 0
2, 6986040, Note_on_c, 0, 78, 100
2, 6986100, Note_on_c, 0, 78, 0
2, 6986100, Note_on_c, 0, 79, 100
2, 6986160, Note_on_c, 0, 79, 0
2, 6986160, Note_on_c, 0, 71, 100
2, 6986520, Note_on_c, 0, 71, 0
2, 6986520, Note_on_c, 0, 69, 100
2, 6986580, Note_on_c, 0, 69, 0
2, 6986580, Note_on_c, 0, 71, 100
2, 6986640, Note_on_c, 0, 71, 0
2, 6986640, Note_on_c, 0, 64, 100
2, 6987000, Note_on_c, 0, 64, 0
2, 6987000, Note_on_c, 0, 62, 100
2, 6987060, Note_on_c, 0, 62, 0
2, 6987060, Note_on_c, 0, 64, 100
2, 6987120, Note_on_c, 0, 64, 0
2, 6987120, Note_on_c, 0, 55, 100
2, 6987480, Note_on_c, 0, 55, 0
2, 6987480, Note_on_c, 0, 54, 100
2, 6987540, Note_on_c, 0, 54, 0
2, 6987540, Note_on_c, 0, 55, 100
2, 6987600, Note_on_c, 0, 55, 0
2, 6987600, Note_on_c, 0, 49, 100
2, 6987960, Note_on_c, 0, 49, 0
2, 6987960, Note_on_c, 0, 47, 100
2, 6988020, Note_on_c, 0, 47, 0
2, 6988020, Note_on_c, 0, 49, 100
2, 6988080, Note_on_c, 0, 49, 0
2, 6988080, Note_on_c, 0, 43, 100
2, 6988440, Note_on_c, 0, 43, 0
2, 6988440, Note_on_c, 0, 42, 100
2, 6988500, Note_on_c, 0, 42, 0
2, 6988500, Note_on_c, 0, 43, 100
2, 6988560, Note_on_c, 0, 43, 0
2, 6988560, Note_on_c, 0, 62, 100
2, 6988860, Note_on_c, 0, 62, 0
2, 6988860, Note_on_c, 0, 64, 100
2, 6988920, Note_on_c, 0, 64, 0
2, 6988920, Note_on_c, 0, 66, 100
2, 6988980, Note_on_c, 0, 66, 0
2, 6988980, Note_on_c, 0, 69, 100
2, 6989040, Note_on_c, 0, 69, 0
2, 6989040, Note_on_c, 0, 66, 100
2, 6989100, Note_on_c, 0, 66, 0
2, 6989100, Note_on_c, 0, 64, 100
2, 6989160, Note_on_c, 0, 64, 0
2, 6989160, Note_on_c, 0, 62, 100
2, 6989340, Note_on_c, 0, 62, 0
2, 6989340, Note_on_c, 0, 64, 100
2, 6989400, Note_on_c, 0, 64, 0
2, 6989400, Note_on_c, 0, 66, 100
2, 6989460, Note_on_c, 0, 66, 0
2, 6989460, Note_on_c, 0, 69, 100
2, 6989520, Note_on_c, 0, 69, 0
2, 6989520, Note_on_c, 0, 66, 100
2, 6989580, Note_on_c, 0, 66, 0
2, 6989580, Note_on_c, 0, 64, 100
2, 6989640, Note_on_c, 0, 64, 0
2, 6989640, Note_on_c, 0, 62, 100
2, 6989820, Note_on_c, 0, 62, 0
2, 6989820, Note_on_c, 0, 64, 100
2, 6989880, Note_on_c, 0, 64, 0
2, 6989880, Note_on_c, 0, 66, 100
2, 6989940, Note_on_c, 0, 66, 0
2, 6989940, Note_on_c, 0, 69, 100
2, 6990000, Note_on_c, 0, 69, 0
2, 6990000, Note_on_c, 0, 66, 100
2, 6990060, Note_on_c, 0, 66, 0
2, 6990060, Note_on_c, 0, 64, 100
2, 6990120, Note_on_c, 0, 64, 0
2, 6990120, Note_on_c, 0, 62, 100
2, 6990180, Note_on_c, 0, 62, 0
2, 6990180, Note_on_c, 0, 71, 100
2, 6990240, Note_on_c, 0, 71, 0
2, 6990240, Note_on_c, 0, 53, 100
2, 6990720, Note_on_c, 0, 53, 0
2, 6990720, Note_on_c, 0, 52, 100
2, 6991200, Note_on_c, 0, 52, 0
2, 6991200, Note_on_c, 0, 64, 100
2, 6991800, Note_on_c, 0, 64, 0
2, 6991800, Note_on_c, 0, 62, 100
2, 6991860, Note_on_c, 0, 62, 0
2, 6991860, Note_on_c, 0, 64, 100
2, 6991920, Note_on_c, 0, 64, 0
2, 6991920, Note_on_c, 0, 69, 100
2, 6992040, Note_on_c, 0, 69, 0
2, 6992040, Note_on_c, 0, 67, 100
2, 6992100, Note_on_c, 0, 67, 0
2, 6992100, Note_on_c, 0, 69, 100
2, 6992160, Note_on_c, 0, 69, 0
2, 6992160, Note_on_c, 0, 62, 100
2, 6992280, Note_on_c, 0, 62, 0
2, 6992280, Note_on_c, 0, 61, 100
2, 6992340, Note_on_c, 0, 61, 0
2, 6992340, Note_on_c, 0, 62, 100
2, 6992400, Note_on_c, 0, 62, 0
2, 6992400, Note_on_c, 0, 67, 100
2, 6992520, Note_on_c, 0, 67, 0
2, 6992520, Note_on_c, 0, 66, 100
2, 6992580, Note_on_c, 0, 66, 0
2, 6992580, Note_on_c, 0, 67, 100
2, 6992640, Note_on_c, 0, 67, 0
2, 6992640, Note_on_c, 0, 61, 100
2, 6992760, Note_on_c, 0, 61, 0
2, 6992760, Note_on_c, 0, 59, 100
2, 6992820, Note_on_c, 0, 59, 0
2, 6992820, Note_on_c, 0, 61, 100
2, 6992880, Note_on_c, 0, 61, 0
2, 6992880, Note_on_c, 0, 66, 100
2, 6993000, Note_on_c, 0, 66, 0
2, 6993000, Note_on_c, 0, 64, 100
2, 6993060, Note_on_c, 0, 64, 0
2, 6993060, Note_on_c, 0, 66, 100
2, 6993120, Note_on_c, 0, 66, 0
2, 6993120, Note_on_c, 0, 62, 100
2, 6993240, Note_on_c, 0, 62, 0
2, 6993240, Note_on_c, 0, 61, 100
2, 6993360, Note_on_c, 0, 61, 0
2, 6993360, Note_on_c, 0, 62, 100
2, 6993480, Note_on_c, 0, 62, 0
2, 6993480, Note_on_c, 0, 66, 100
2, 6993600, Note_on_c, 0, 66, 0
2, 6993600, Note_on_c, 0, 64, 100
2, 6993660, Note_on_c, 0, 64, 0
2, 6993660, Note_on_c, 0, 62, 100
2, 6993720, Note_on_c, 0, 62, 0
2, 6993720, Note_on_c, 0, 69, 100
2, 6993840, Note_on_c, 0, 69, 0
2, 6993840, Note_on_c, 0, 67, 100
2, 6993900, Note_on_c, 0, 67, 0
2, 6993900, Note_on_c, 0, 66, 100
2, 6993960, Note_on_c, 0, 66, 0
2, 6993960, Note_on_c, 0, 74, 100
2, 6994080, Note_on_c, 0, 74, 0
2, 6994080, Note_on_c, 0, 78, 100
2, 6994560, Note_on_c, 0, 78, 0
2, 6994560, Note_on_c, 0, 81, 100
2, 6994680, Note_on_c, 0, 81, 0
2, 6994680, Note_on_c, 0, 86, 100
2, 6994800, Note_on_c, 0, 86, 0
2, 6994800, Note_on_c, 0, 81, 100
2, 6994920, Note_on_c, 0, 81, 0
2, 6994920, Note_on_c, 0, 78, 100
2, 6995040, Note_on_c, 0, 78, 0
2, 6995040, Note_on_c, 0, 81, 100
2, 6995160, Note_on_c, 0, 81, 0
2, 6995160, Note_on_c, 0, 74, 100
2, 6995280, Note_on_c, 0, 74, 0
2, 6995280, Note_on_c, 0, 78, 100
2, 6995400, Note_on_c, 0, 78, 0
2, 6995400, Note_on_c, 0, 81, 100
2, 6995520, Note_on_c, 0, 81, 0
2, 6995520, Note_on_c, 0, 78, 100
2, 6995640, Note_on_c, 0, 78, 0
2, 6995640, Note_on_c, 0, 79, 100
2, 6995760, Note_on_c, 0, 79, 0
2, 6995760, Note_on_c, 0, 81, 100
2, 6995880, Note_on_c, 0, 81, 0
2, 6995880, Note_on_c, 0, 74, 100
2, 6996000, Note_on_c, 0, 74, 0
2, 6996000, Note_on_c, 0, 79, 100
2, 6996120, Note_on_c, 0, 79, 0
2, 6996120, Note_on_c, 0, 83, 100
2, 6996240, Note_on_c, 0, 83, 0
2, 6996240, Note_on_c, 0, 79, 100
2, 6996360, Note_on_c, 0, 79, 0
2, 6996360, Note_on_c, 0, 74, 100
2, 6996480, Note_on_c, 0, 74, 0
2, 6996480, Note_on_c, 0, 79, 100
2, 6996600, Note_on_c, 0, 79, 0
2, 6996600, Note_on_c, 0, 71, 100
2, 6996720, Note_on_c, 0, 71, 0
2, 6996720, Note_on_c, 0, 74, 100
2, 6996840, Note_on_c, 0, 74, 0
2, 6996840, Note_on_c, 0, 79, 100
2, 6996960, Note_on_c, 0, 79, 0
2, 6996960, Note_on_c, 0, 71, 100
2, 6997080, Note_on_c, 0, 71, 0
2, 6997080, Note_on_c, 0, 72, 100
2, 6997200, Note_on_c, 0, 72, 0
2, 6997200, Note_on_c, 0, 74, 100
2, 6997320, Note_on_c, 0, 74, 0
2, 6997320, Note_on_c, 0, 67, 100
2, 6997440, Note_on_c, 0, 67, 0
2, 6997440, Note_on_c, 0, 72, 100
2, 6997560, Note_on_c, 0, 72, 0
2, 6997560, Note_on_c, 0, 76, 100
2, 6997680, Note_on_c, 0, 76, 0
2, 6997680, Note_on_c, 0, 72, 100
2, 6997800, Note_on_c, 0, 72, 0
2, 6997800, Note_on_c, 0, 69, 100
2, 6997920, Note_on_c, 0, 69, 0
2, 6997920, Note_on_c, 0, 72, 100
2, 6998040, Note_on_c, 0, 72, 0
2, 6998040, Note_on_c, 0, 66, 100
2, 6998160, Note_on_c, 0, 66, 0
2, 6998160, Note_on_c, 0, 69, 100
2, 6998280, Note_on_c, 0, 69, 0
2, 6998280, Note_on_c, 0, 72, 100
2, 6998400, Note_on_c, 0, 72, 0
2, 6998400, Note_on_c, 0, 66, 100
2, 6998520, Note_on_c, 0, 66, 0
2, 6998520, Note_on_c, 0, 67, 100
2, 6998640, Note_on_c, 0, 67, 0
2, 6998640, Note_on_c, 0, 69, 100
2, 6998760, Note_on_c, 0, 69, 0
2, 6998760, Note_on_c, 0, 63, 100
2, 6998880, Note_on_c, 0, 63, 0
2, 6998880, Note_on_c, 0, 66, 100
2, 6999000, Note_on_c, 0, 66, 0
2, 6999000, Note_on_c, 0, 71, 100
2, 6999120, Note_on_c, 0, 71, 0
2, 6999120, Note_on_c, 0, 66, 100
2, 6999240, Note_on_c, 0, 66, 0
2, 6999240, Note_on_c, 0, 63, 100
2, 6999360, Note_on_c, 0, 63, 0
2, 6999360, Note_on_c, 0, 66, 100
2, 6999480, Note_on_c, 0, 66, 0
2, 6999480, Note_on_c, 0, 59, 100
2, 6999600, Note_on_c, 0, 59, 0
2, 6999600, Note_on_c, 0, 63, 100
2, 6999720, Note_on_c, 0, 63, 0
2, 6999720, Note_on_c, 0, 66, 100
2, 6999840, Note_on_c, 0, 66, 0
2, 6999840, Note_on_c, 0, 63, 100
2, 6999960, Note_on_c, 0, 63, 0
2, 6999960, Note_on_c, 0, 64, 100
2, 7000080, Note_on_c, 0, 64, 0
2, 7000080, Note_on_c, 0, 66, 100
2, 7000200, Note_on_c, 0, 66, 0
2, 7000200, Note_on_c, 0, 59, 100
2, 7000320, Note_on_c, 0, 59, 0
2, 7000320, Note_on_c, 0, 64, 100
2, 7000440, Note_on_c, 0, 64, 0
2, 7000440, Note_on_c, 0, 67, 100
2, 7000560, Note_on_c, 0, 67, 0
2, 7000560, Note_on_c, 0, 64, 100
2, 7000680, Note_on_c, 0, 64, 0
2, 7000680, Note_on_c, 0, 59, 100
2, 7000800, Note_on_c, 0, 59, 0
2, 7000800, Note_on_c, 0, 64, 100
2, 7000920, Note_on_c, 0, 64, 0
2, 7000920, Note_on_c, 0, 55, 100
2, 7001040, Note_on_c, 0, 55, 0
2, 7001040, Note_on_c, 0, 59, 100
2, 7001160, Note_on_c, 0, 59, 0
2, 7001160, Note_on_c, 0, 64, 100
2, 7001280, Note_on_c, 0, 64, 0
2, 7001280, Note_on_c, 0, 63, 100
2, 7001400, Note_on_c, 0, 63, 0
2, 7001400, Note_on_c, 0, 64, 100
2, 7001520, Note_on_c, 0, 64, 0
2, 7001520, Note_on_c, 0, 67, 100
2, 7001640, Note_on_c, 0, 67, 0
2, 7001640, Note_on_c, 0, 60, 100
2, 7001760, Note_on_c, 0, 60, 0
2, 7001760, Note_on_c, 0, 65, 100
2, 7001880, Note_on_c, 0, 65, 0
2, 7001880, Note_on_c, 0, 69, 100
2, 7002000, Note_on_c, 0, 69, 0
2, 7002000, Note_on_c, 0, 65, 100
2, 7002120, Note_on_c, 0, 65, 0
2, 7002120, Note_on_c, 0, 60, 100
2, 7002240, Note_on_c, 0, 60, 0
2, 7002240, Note_on_c, 0, 65, 100
2, 7002360, Note_on_c, 0, 65, 0
2, 7002360, Note_on_c, 0, 57, 100
2, 7002480, Note_on_c, 0, 57, 0
2, 7002480, Note_on_c, 0, 60, 100
2, 7002600, Note_on_c, 0, 60, 0
2, 7002600, Note_on_c, 0, 65, 100
2, 7002720, Note_on_c, 0, 65, 0
2, 7002720, Note_on_c, 0, 64, 100
2, 7002840, Note_on_c, 0, 64, 0
2, 7002840, Note_on_c, 0, 65, 100
2, 7002960, Note_on_c, 0, 65, 0
2, 7002960, Note_on_c, 0, 69, 100
2, 7003080, Note_on_c, 0, 69, 0
2, 7003080, Note_on_c, 0, 63, 100
2, 7003200, Note_on_c, 0, 63, 0
2, 7003200, Note_on_c, 0, 66, 100
2, 7003320, Note_on_c, 0, 66, 0
2, 7003320, Note_on_c, 0, 69, 100
2, 7003440, Note_on_c, 0, 69, 0
2, 7003440, Note_on_c, 0, 66, 100
2, 7003560, Note_on_c, 0, 66, 0
2, 7003560, Note_on_c, 0, 63, 100
2, 7003680, Note_on_c, 0, 63, 0
2, 7003680, Note_on_c, 0, 66, 100
2, 7003800, Note_on_c, 0, 66, 0
2, 7003800, Note_on_c, 0, 59, 100
2, 7003920, Note_on_c, 0, 59, 0
2, 7003920, Note_on_c, 0, 63, 100
2, 7004040, Note_on_c, 0, 63, 0
2, 7004040, Note_on_c, 0, 54, 100
2, 7004160, Note_on_c, 0, 54, 0
2, 7004160, Note_on_c, 0, 57, 100
2, 7004280, Note_on_c, 0, 57, 0
2, 7004280, Note_on_c, 0, 55, 100
2, 7004400, Note_on_c, 0, 55, 0
2, 7004400, Note_on_c, 0, 54, 100
2, 7004520, Note_on_c, 0, 54, 0
2, 7004520, Note_on_c, 0, 55, 100
2, 7004640, Note_on_c, 0, 55, 0
2, 7004640, Note_on_c, 0, 59, 100
2, 7004760, Note_on_c, 0, 59, 0
2, 7004760, Note_on_c, 0, 64, 100
2, 7004880, Note_on_c, 0, 64, 0
2, 7004880, Note_on_c, 0, 59, 100
2, 7005000, Note_on_c, 0, 59, 0
2, 7005000, Note_on_c, 0, 55, 100
2, 7005120, Note_on_c, 0, 55, 0
2, 7005120, Note_on_c, 0, 59, 100
2, 7005240, Note_on_c, 0, 59, 0
2, 7005240, Note_on_c, 0, 52, 100
2, 7005360, Note_on_c, 0, 52, 0
2, 7005360, Note_on_c, 0, 54, 100
2, 7005480, Note_on_c, 0, 54, 0
2, 7005480, Note_on_c, 0, 55, 100
2, 7005600, Note_on_c, 0, 55, 0
2, 7005600, Note_on_c, 0, 52, 100
2, 7005720, Note_on_c, 0, 52, 0
2, 7005720, Note_on_c, 0, 55, 100
2, 7005840, Note_on_c, 0, 55, 0
2, 7005840, Note_on_c, 0, 59, 100
2, 7005960, Note_on_c, 0, 59, 0
2, 7005960, Note_on_c, 0, 64, 100
2, 7006080, Note_on_c, 0, 64, 0
2, 7006080, Note_on_c, 0, 52, 100
2, 7006440, Note_on_c, 0, 52, 0
2, 7006440, Note_on_c, 0, 50, 100
2, 7006500, Note_on_c, 0, 50, 0
2, 7006500, Note_on_c, 0, 52, 100
2, 7006560, Note_on_c, 0, 52, 0
2, 7006560, Note_on_c, 0, 60, 100
2, 7006920, Note_on_c, 0, 60, 0
2, 7006920, Note_on_c, 0, 59, 100
2, 7006980, Note_on_c, 0, 59, 0
2, 7006980, Note_on_c, 0, 60, 100
2, 7007040, Note_on_c, 0, 60, 0
2, 7007040, Note_on_c, 0, 69, 100
2, 7007400, Note_on_c, 0, 69, 0
2, 7007400, Note_on_c, 0, 67, 100
2, 7007460, Note_on_c, 0, 67, 0
2, 7007460, Note_on_c, 0, 69, 100
2, 7007520, Note_on_c, 0, 69, 0
2, 7007520, Note_on_c, 0, 50, 100
2, 7007880, Note_on_c, 0, 50, 0
2, 7007880, Note_on_c, 0, 48, 100
2, 7007940, Note_on_c, 0, 48, 0
2, 7007940, Note_on_c, 0, 50, 100
2, 7008000, Note_on_c, 0, 50, 0
2, 7008000, Note_on_c, 0, 59, 100
2, 7008360, Note_on_c, 0, 59, 0
2, 7008360, Note_on_c, 0, 57, 100
2, 7008420, Note_on_c, 0, 57, 0
2, 7008420, Note_on_c, 0, 59, 100
2, 7008480, Note_on_c, 0, 59, 0
2, 7008480, Note_on_c, 0, 67, 100
2, 7008840, Note_on_c, 0, 67, 0
2, 7008840, Note_on_c, 0, 66, 100
2, 7008900, Note_on_c, 0, 66, 0
2, 7008900, Note_on_c, 0, 67, 100
2, 7008960, Note_on_c, 0, 67, 0
2, 7008960, Note_on_c, 0, 48, 100
2, 7009320, Note_on_c, 0, 48, 0
2, 7009320, Note_on_c, 0, 47, 100
2, 7009380, Note_on_c, 0, 47, 0
2, 7009380, Note_on_c, 0, 48, 100
2, 7009440, Note_on_c, 0, 48, 0
2, 7009440, Note_on_c, 0, 57, 100
2, 7009800, Note_on_c, 0, 57, 0
2, 7009800, Note_on_c, 0, 55, 100
2, 7009860, Note_on_c, 0, 55, 0
2, 7009860, Note_on_c, 0, 57, 100
2, 7009920, Note_on_c, 0, 57, 0
2, 7009920, Note_on_c, 0, 66, 100
2, 7010280, Note_on_c, 0, 66, 0
2, 7010280, Note_on_c, 0, 64, 100
2, 7010340, Note_on_c, 0, 64, 0
2, 7010340, Note_on_c, 0, 66, 100
2, 7010400, Note_on_c, 0, 66, 0
2, 7010400, Note_on_c, 0, 74, 100
2, 7010760, Note_on_c, 0, 74, 0
2, 7010760, Note_on_c, 0, 72, 100
2, 7010820, Note_on_c, 0, 72, 0
2, 7010820, Note_on_c, 0, 74, 100
2, 7010880, Note_on_c, 0, 74, 0
2, 7010880, Note_on_c, 0, 79, 100
2, 7011240, Note_on_c, 0, 79, 0
2, 7011240, Note_on_c, 0, 78, 100
2, 7011300, Note_on_c, 0, 78, 0
2, 7011300, Note_on_c, 0, 79, 100
2, 7011360, Note_on_c, 0, 79, 0
2, 7011360, Note_on_c, 0, 83, 100
2, 7011720, Note_on_c, 0, 83, 0
2, 7011720, Note_on_c, 0, 81, 100
2, 7011780, Note_on_c, 0, 81, 0
2, 7011780, Note_on_c, 0, 83, 100
2, 7011840, Note_on_c, 0, 83, 0
2, 7011840, Note_on_c, 0, 62, 100
2, 7012320, Note_on_c, 0, 62, 0
2, 7012320, Note_on_c, 0, 65, 100
2, 7012800, Note_on_c, 0, 65, 0
2, 7012800, Note_on_c, 0, 64, 100
2, 7013340, Note_on_c, 0, 64, 0
2, 7013340, Note_on_c, 0, 65, 100
2, 7013400, Note_on_c, 0, 65, 0
2, 7013400, Note_on_c, 0, 67, 100
2, 7013460, Note_on_c, 0, 67, 0
2, 7013460, Note_on_c, 0, 72, 100
2, 7013520, Note_on_c, 0, 72, 0
2, 7013520, Note_on_c, 0, 67, 100
2, 7013580, Note_on_c, 0, 67, 0
2, 7013580, Note_on_c, 0, 65, 100
2, 7013640, Note_on_c, 0, 65, 0
2, 7013640, Note_on_c, 0, 64, 100
2, 7013700, Note_on_c, 0, 64, 0
2, 7013700, Note_on_c, 0, 66, 100
2, 7013820, Note_on_c, 0, 66, 0
2, 7013820, Note_on_c, 0, 67, 100
2, 7013880, Note_on_c, 0, 67, 0
2, 7013880, Note_on_c, 0, 69, 100
2, 7013940, Note_on_c, 0, 69, 0
2, 7013940, Note_on_c, 0, 72, 100
2, 7014000, Note_on_c, 0, 72, 0
2, 7014000, Note_on_c, 0, 69, 100
2, 7014060, Note_on_c, 0, 69, 0
2, 7014060, Note_on_c, 0, 67, 100
2, 7014120, Note_on_c, 0, 67, 0
2, 7014120, Note_on_c, 0, 66, 100
2, 7014180, Note_on_c, 0, 66, 0
2, 7014180, Note_on_c, 0, 67, 100
2, 7014300, Note_on_c, 0, 67, 0
2, 7014300, Note_on_c, 0, 69, 100
2, 7014360, Note_on_c, 0, 69, 0
2, 7014360, Note_on_c, 0, 70, 100
2, 7014420, Note_on_c, 0, 70, 0
2, 7014420, Note_on_c, 0, 73, 100
2, 7014480, Note_on_c, 0, 73, 0
2, 7014480, Note_on_c, 0, 70, 100
2, 7014540, Note_on_c, 0, 70, 0
2, 7014540, Note_on_c, 0, 69, 100
2, 7014600, Note_on_c, 0, 69, 0
2, 7014600, Note_on_c, 0, 67, 100
2, 7014660, Note_on_c, 0, 67, 0
2, 7014660, Note_on_c, 0, 74, 100
2, 7014720, Note_on_c, 0, 74, 0
2, 7014720, Note_on_c, 0, 72, 100
2, 7014840, Note_on_c, 0, 72, 0
2, 7014840, Note_on_c, 0, 71, 100
2, 7014900, Note_on_c, 0, 71, 0
2, 7014900, Note_on_c, 0, 72, 100
2, 7014960, Note_on_c, 0, 72, 0
2, 7014960, Note_on_c, 0, 71, 100
2, 7015080, Note_on_c, 0, 71, 0
2, 7015080, Note_on_c, 0, 69, 100
2, 7015140, Note_on_c, 0, 69, 0
2, 7015140, Note_on_c, 0, 71, 100
2, 7015200, Note_on_c, 0, 71, 0
2, 7015200, Note_on_c, 0, 70, 100
2, 7015320, Note_on_c, 0, 70, 0
2, 7015320, Note_on_c, 0, 69, 100
2, 7015380, Note_on_c, 0, 69, 0
2, 7015380, Note_on_c, 0, 70, 100
2, 7015440, Note_on_c, 0, 70, 0
2, 7015440, Note_on_c, 0, 69, 100
2, 7015560, Note_on_c, 0, 69, 0
2, 7015560, Note_on_c, 0, 67, 100
2, 7015620, Note_on_c, 0, 67, 0
2, 7015620, Note_on_c, 0, 69, 100
2, 7015680, Note_on_c, 0, 69, 0
2, 7015680, Note_on_c, 0, 74, 100
2, 7015800, Note_on_c, 0, 74, 0
2, 7015800, Note_on_c, 0, 72, 100
2, 7015860, Note_on_c, 0, 72, 0
2, 7015860, Note_on_c, 0, 74, 100
2, 7015920, Note_on_c, 0, 74, 0
2, 7015920, Note_on_c, 0, 67, 100
2, 7016040, Note_on_c, 0, 67, 0
2, 7016040, Note_on_c, 0, 66, 100
2, 7016100, Note_on_c, 0, 66, 0
2, 7016100, Note_on_c, 0, 67, 100
2, 7016160, Note_on_c, 0, 67, 0
2, 7016160, Note_on_c, 0, 69, 100
2, 7016220, Note_on_c, 0, 69, 0
2, 7016220, Note_on_c, 0, 71, 100
2, 7016280, Note_on_c, 0, 71, 0
2, 7016280, Note_on_c, 0, 72, 100
2, 7016340, Note_on_c, 0, 72, 0
2, 7016340, Note_on_c, 0, 74, 100
2, 7016400, Note_on_c, 0, 74, 0
2, 7016400, Note_on_c, 0, 72, 100
2, 7016460, Note_on_c, 0, 72, 0
2, 7016460, Note_on_c, 0, 71, 100
2, 7016520, Note_on_c, 0, 71, 0
2, 7016520, Note_on_c, 0, 69, 100
2, 7016580, Note_on_c, 0, 69, 0
2, 7016580, Note_on_c, 0, 67, 100
2, 7016640, Note_on_c, 0, 67, 0
2, 7016640, Note_on_c, 0, 71, 100
2, 7016760, Note_on_c, 0, 71, 0
2, 7016760, Note_on_c, 0, 62, 100
2, 7016880, Note_on_c, 0, 62, 0
2, 7016880, Note_on_c, 0, 67, 100
2, 7017000, Note_on_c, 0, 67, 0
2, 7017000, Note_on_c, 0, 55, 100
2, 7017120, Note_on_c, 0, 55, 0
2, 7017120, Note_on_c, 0, 78, 100
2, 7017600, Note_on_c, 0, 78, 0
2, 7017600, Note_on_c, 0, 81, 100
2, 7017720, Note_on_c, 0, 81, 0
2, 7017720, Note_on_c, 0, 86, 100
2, 7017840, Note_on_c, 0, 86, 0
2, 7017840, Note_on_c, 0, 81, 100
2, 7017960, Note_on_c, 0, 81, 0
2, 7017960, Note_on_c, 0, 78, 100
2, 7018080, Note_on_c, 0, 78, 0
2, 7018080, Note_on_c, 0, 81, 100
2, 7018200, Note_on_c, 0, 81, 0
2, 7018200, Note_on_c, 0, 74, 100
2, 7018320, Note_on_c, 0, 74, 0
2, 7018320, Note_on_c, 0, 78, 100
2, 7018440, Note_on_c, 0, 78, 0
2, 7018440, Note_on_c, 0, 81, 100
2, 7018560, Note_on_c, 0, 81, 0
2, 7018560, Note_on_c, 0, 78, 100
2, 7018680, Note_on_c, 0, 78, 0
2, 7018680, Note_on_c, 0, 79, 100
2, 7018800, Note_on_c, 0, 79, 0
2, 7018800, Note_on_c, 0, 81, 100
2, 7018920, Note_on_c, 0, 81, 0
2, 7018920, Note_on_c, 0, 74, 100
2, 7019040, Note_on_c, 0, 74, 0
2, 7019040, Note_on_c, 0, 79, 100
2, 7019160, Note_on_c, 0, 79, 0
2, 7019160, Note_on_c, 0, 83, 100
2, 7019280, Note_on_c, 0, 83, 0
2, 7019280, Note_on_c, 0, 79, 100
2, 7019400, Note_on_c, 0, 79, 0
2, 7019400, Note_on_c, 0, 74, 100
2, 7019520, Note_on_c, 0, 74, 0
2, 7019520, Note_on_c, 0, 79, 100
2, 7019640, Note_on_c, 0, 79, 0
2, 7019640, Note_on_c, 0, 71, 100
2, 7019760, Note_on_c, 0, 71, 0
2, 7019760, Note_on_c, 0, 74, 100
2, 7019880, Note_on_c, 0, 74, 0
2, 7019880, Note_on_c, 0, 79, 100
2, 7020000, Note_on_c, 0, 79, 0
2, 7020000, Note_on_c, 0, 71, 100
2, 7020120, Note_on_c, 0, 71, 0
2, 7020120, Note_on_c, 0, 72, 100
2, 7020240, Note_on_c, 0, 72, 0
2, 7020240, Note_on_c, 0, 74, 100
2, 7020360, Note_on_c, 0, 74, 0
2, 7020360, Note_on_c, 0, 67, 100
2, 7020480, Note_on_c, 0, 67, 0
2, 7020480, Note_on_c, 0, 72, 100
2, 7020600, Note_on_c, 0, 72, 0
2, 7020600, Note_on_c, 0, 76, 100
2, 7020720, Note_on_c, 0, 76, 0
2, 7020720, Note_on_c, 0, 72, 100
2, 7020840, Note_on_c, 0, 72, 0
2, 7020840, Note_on_c, 0, 69, 100
2, 7020960, Note_on_c, 0, 69, 0
2, 7020960, Note_on_c, 0, 72, 100
2, 7021080, Note_on_c, 0, 72, 0
2, 7021080, Note_on_c, 0, 66, 100
2, 7021200, Note_on_c, 0, 66, 0
2, 7021200, Note_on_c, 0, 69, 100
2, 7021320, Note_on_c, 0, 69, 0
2, 7021320, Note_on_c, 0, 72, 100
2, 7021440, Note_on_c, 0, 72, 0
2, 7021440, Note_on_c, 0, 66, 100
2, 7021560, Note_on_c, 0, 66, 0
2, 7021560, Note_on_c, 0, 67, 100
2, 7021680, Note_on_c, 0, 67, 0
2, 7021680, Note_on_c, 0, 69, 100
2, 7021800, Note_on_c, 0, 69, 0
2, 7021800, Note_on_c, 0, 63, 100
2, 7021920, Note_on_c, 0, 63, 0
2, 7021920, Note_on_c, 0, 66, 100
2, 7022040, Note_on_c, 0, 66, 0
2, 7022040, Note_on_c, 0, 71, 100
2, 7022160, Note_on_c, 0, 71, 0
2, 7022160, Note_on_c, 0, 66, 100
2, 7022280, Note_on_c, 0, 66, 0
2, 7022280, Note_on_c, 0, 63, 100
2, 7022400, Note_on_c, 0, 63, 0
2, 7022400, Note_on_c, 0, 66, 100
2, 7022520, Note_on_c, 0, 66, 0
2, 7022520, Note_on_c, 0, 59, 100
2, 7022640, Note_on_c, 0, 59, 0
2, 7022640, Note_on_c, 0, 63, 100
2, 7022760, Note_on_c, 0, 63, 0
2, 7022760, Note_on_c, 0, 66, 100
2, 7022880, Note_on_c, 0, 66, 0
2, 7022880, Note_on_c, 0, 63, 100
2, 7023000, Note_on_c, 0, 63, 0
2, 7023000, Note_on_c, 0, 64, 100
2, 7023120, Note_on_c, 0, 64, 0
2, 7023120, Note_on_c, 0, 66, 100
2, 7023240, Note_on_c, 0, 66, 0
2, 7023240, Note_on_c, 0, 59, 100
2, 7023360, Note_on_c, 0, 59, 0
2, 7023360, Note_on_c, 0, 64, 100
2, 7023480, Note_on_c, 0, 64, 0
2, 7023480, Note_on_c, 0, 67, 100
2, 7023600, Note_on_c, 0, 67, 0
2, 7023600, Note_on_c, 0, 64, 100
2, 7023720, Note_on_c, 0, 64, 0
2, 7023720, Note_on_c, 0, 59, 100
2, 7023840, Note_on_c, 0, 59, 0
2, 7023840, Note_on_c, 0, 64, 100
2, 7023960, Note_on_c, 0, 64, 0
2, 7023960, Note_on_c, 0, 55, 100
2, 7024080, Note_on_c, 0, 55, 0
2, 7024080, Note_on_c, 0, 59, 100
2, 7024200, Note_on_c, 0, 59, 0
2, 7024200, Note_on_c, 0, 64, 100
2, 7024320, Note_on_c, 0, 64, 0
2, 7024320, Note_on_c, 0, 63, 100
2, 7024440, Note_on_c, 0, 63, 0
2, 7024440, Note_on_c, 0, 64, 100
2, 7024560, Note_on_c, 0, 64, 0
2, 7024560, Note_on_c, 0, 67, 100
2, 7024680, Note_on_c, 0, 67, 0
2, 7024680, Note_on_c, 0, 60, 100
2, 7024800, Note_on_c, 0, 60, 0
2, 7024800, Note_on_c, 0, 65, 100
2, 7024920, Note_on_c, 0, 65, 0
2, 7024920, Note_on_c, 0, 69, 100
2, 7025040, Note_on_c, 0, 69, 0
2, 7025040, Note_on_c, 0, 65, 100
2, 7025160, Note_on_c, 0, 65, 0
2, 7025160, Note_on_c, 0, 60, 100
2, 7025280, Note_on_c, 0, 60, 0
2, 7025280, Note_on_c, 0, 65, 100
2, 7025400, Note_on_c, 0, 65, 0
2, 7025400, Note_on_c, 0, 57, 100
2, 7025520, Note_on_c, 0, 57, 0
2, 7025520, Note_on_c, 0, 60, 100
2, 7025640, Note_on_c, 0, 60, 0
2, 7025640, Note_on_c, 0, 65, 100
2, 7025760, Note_on_c, 0, 65, 0
2, 7025760, Note_on_c, 0, 64, 100
2, 7025880, Note_on_c, 0, 64, 0
2, 7025880, Note_on_c, 0, 65, 100
2, 7026000, Note_on_c, 0, 65, 0
2, 7026000, Note_on_c, 0, 69, 100
2, 7026120, Note_on_c, 0, 69, 0
2, 7026120, Note_on_c, 0, 63, 100
2, 7026240, Note_on_c, 0, 63, 0
2, 7026240, Note_on_c, 0, 66, 100
2, 7026360, Note_on_c, 0, 66, 0
2, 7026360, Note_on_c, 0, 69, 100
2, 7026480, Note_on_c, 0, 69, 0
2, 7026480, Note_on_c, 0, 66, 100
2, 7026600, Note_on_c, 0, 66, 0
2, 7026600, Note_on_c, 0, 63, 100
2, 7026720, Note_on_c, 0, 63, 0
2, 7026720, Note_on_c, 0, 66, 100
2, 7026840, Note_on_c, 0, 66, 0
2, 7026840, Note_on_c, 0, 59, 100
2, 7026960, Note_on_c, 0, 59, 0
2, 7026960, Note_on_c, 0, 63, 100
2, 7027080, Note_on_c, 0, 63, 0
2, 7027080, Note_on_c, 0, 54, 100
2, 7027200, Note_on_c, 0, 54, 0
2, 7027200, Note_on_c, 0, 57, 100
2, 7027320, Note_on_c, 0, 57, 0
2, 7027320, Note_on_c, 0, 55, 100
2, 7027440, Note_on_c, 0, 55, 0
2, 7027440, Note_on_c, 0, 54, 100
2, 7027560, Note_on_c, 0, 54, 0
2, 7027560, Note_on_c, 0, 55, 100
2, 7027680, Note_on_c, 0, 55, 0
2, 7027680, Note_on_c, 0, 59, 100
2, 7027800, Note_on_c, 0, 59, 0
2, 7027800, Note_on_c, 0, 64, 100
2, 7027920, Note_on_c, 0, 64, 0
2, 7027920, Note_on_c, 0, 59, 100
2, 7028040, Note_on_c, 0, 59, 0
2, 7028040, Note_on_c, 0, 55, 100
2, 7028160, Note_on_c, 0, 55, 0
2, 7028160, Note_on_c, 0, 59, 100
2, 7028280, Note_on_c, 0, 59, 0
2, 7028280, Note_on_c, 0, 52, 100
2, 7028400, Note_on_c, 0, 52, 0
2, 7028400, Note_on_c, 0, 54, 100
2, 7028520, Note_on_c, 0, 54, 0
2, 7028520, Note_on_c, 0, 55, 100
2, 7028640, Note_on_c, 0, 55, 0
2, 7028640, Note_on_c, 0, 52, 100
2, 7028760, Note_on_c, 0, 52, 0
2, 7028760, Note_on_c, 0, 55, 100
2, 7028880, Note_on_c, 0, 55, 0
2, 7028880, Note_on_c, 0, 59, 100
2, 7029000, Note_on_c, 0, 59, 0
2, 7029000, Note_on_c, 0, 64, 100
2, 7029120, Note_on_c, 0, 64, 0
2, 7029120, Note_on_c, 0, 52, 100
2, 7029480, Note_on_c, 0, 52, 0
2, 7029480, Note_on_c, 0, 50, 100
2, 7029540, Note_on_c, 0, 50, 0
2, 7029540, Note_on_c, 0, 52, 100
2, 7029600, Note_on_c, 0, 52, 0
2, 7029600, Note_on_c, 0, 60, 100
2, 7029960, Note_on_c, 0, 60, 0
2, 7029960, Note_on_c, 0, 59, 100
2, 7030020, Note_on_c, 0, 59, 0
2, 7030020, Note_on_c, 0, 60, 100
2, 7030080, Note_on_c, 0, 60, 0
2, 7030080, Note_on_c, 0, 69, 100
2, 7030440, Note_on_c, 0, 69, 0
2, 7030440, Note_on_c, 0, 67, 100
2, 7030500, Note_on_c, 0, 67, 0
2, 7030500, Note_on_c, 0, 69, 100
2, 7030560, Note_on_c, 0, 69, 0
2, 7030560, Note_on_c, 0, 50, 100
2, 7030920, Note_on_c, 0, 50, 0
2, 7030920, Note_on_c, 0, 48, 100
2, 7030980, Note_on_c, 0, 48, 0
2, 7030980, Note_on_c, 0, 50, 100
2, 7031040, Note_on_c, 0, 50, 0
2, 7031040, Note_on_c, 0, 59, 100
2, 7031400, Note_on_c, 0, 59, 0
2, 7031400, Note_on_c, 0, 57, 100
2, 7031460, Note_on_c, 0, 57, 0
2, 7031460, Note_on_c, 0, 59, 100
2, 7031520, Note_on_c, 0, 59, 0
2, 7031520, Note_on_c, 0, 67, 100
2, 7031880, Note_on_c, 0, 67, 0
2, 7031880, Note_on_c, 0, 66, 100
2, 7031940, Note_on_c, 0, 66, 0
2, 7031940, Note_on_c, 0, 67, 100
2, 7032000, Note_on_c, 0, 67, 0
2, 7032000, Note_on_c, 0, 48, 100
2, 7032360, Note_on_c, 0, 48, 0
2, 7032360, Note_on_c, 0, 47, 100
2, 7032420, Note_on_c, 0, 47, 0
2, 7032420, Note_on_c, 0, 48, 100
2, 7032480, Note_on_c, 0, 48, 0
2, 7032480, Note_on_c, 0, 57, 100
2, 7032840, Note_on_c, 0, 57, 0
2, 7032840, Note_on_c, 0, 55, 100
2, 7032900, Note_on_c, 0, 55, 0
2, 7032900, Note_on_c, 0, 57, 100
2, 7032960, Note_on_c, 0, 57, 0
2, 7032960, Note_on_c, 0, 66, 100
2, 7033320, Note_on_c, 0, 66, 0
2, 7033320, Note_on_c, 0, 64, 100
2, 7033380, Note_on_c, 0, 64, 0
2, 7033380, Note_on_c, 0, 66, 100
2, 7033440, Note_on_c, 0, 66, 0
2, 7033440, Note_on_c, 0, 74, 100
2, 7033800, Note_on_c, 0, 74, 0
2, 7033800, Note_on_c, 0, 72, 100
2, 7033860, Note_on_c, 0, 72, 0
2, 7033860, Note_on_c, 0, 74, 100
2, 7033920, Note_on_c, 0, 74, 0
2, 7033920, Note_on_c, 0, 79, 100
2, 7034280, Note_on_c, 0, 79, 0
2, 7034280, Note_on_c, 0, 78, 100
2, 7034340, Note_on_c, 0, 78, 0
2, 7034340, Note_on_c, 0, 79, 100
2, 7034400, Note_on_c, 0, 79, 0
2, 7034400, Note_on_c, 0, 83, 100
2, 7034760, Note_on_c, 0, 83, 0
2, 7034760, Note_on_c, 0, 81, 100
2, 7034820, Note_on_c, 0, 81, 0
2, 7034820, Note_on_c, 0, 83, 100
2, 7034880, Note_on_c, 0, 83, 0
2, 7034880, Note_on_c, 0, 62, 100
2, 7035360, Note_on_c, 0, 62, 0
2, 7035360, Note_on_c, 0, 65, 100
2, 7035840, Note_on_c, 0, 65, 0
2, 7035840, Note_on_c, 0, 64, 100
2, 7036380, Note_on_c, 0, 64, 0
2, 7036380, Note_on_c, 0, 65, 100
2, 7036440, Note_on_c, 0, 65, 0
2, 7036440, Note_on_c, 0, 67, 100
2, 7036500, Note_on_c, 0, 67, 0
2, 7036500, Note_on_c, 0, 72, 100
2, 7036560, Note_on_c, 0, 72, 0
2, 7036560, Note_on_c, 0, 67, 100
2, 7036620, Note_on_c, 0, 67, 0
2, 7036620, Note_on_c, 0, 65, 100
2, 7036680, Note_on_c, 0, 65, 0
2, 7036680, Note_on_c, 0, 64, 100
2, 7036740, Note_on_c, 0, 64, 0
2, 7036740, Note_on_c, 0, 66, 100
2, 7036860, Note_on_c, 0, 66, 0
2, 7036860, Note_on_c, 0, 67, 100
2, 7036920, Note_on_c, 0, 67, 0
2, 7036920, Note_on_c, 0, 69, 100
2, 7036980, Note_on_c, 0, 69, 0
2, 7036980, Note_on_c, 0, 72, 100
2, 7037040, Note_on_c, 0, 72, 0
2, 7037040, Note_on_c, 0, 69, 100
2, 7037100, Note_on_c, 0, 69, 0
2, 7037100, Note_on_c, 0, 67, 100
2, 7037160, Note_on_c, 0, 67, 0
2, 7037160, Note_on_c, 0, 66, 100
2, 7037220, Note_on_c, 0, 66, 0
2, 7037220, Note_on_c, 0, 67, 100
2, 7037340, Note_on_c, 0, 67, 0
2, 7037340, Note_on_c, 0, 69, 100
2, 7037400, Note_on_c, 0, 69, 0
2, 7037400, Note_on_c, 0, 70, 100
2, 7037460, Note_on_c, 0, 70, 0
2, 7037460, Note_on_c, 0, 73, 100
2, 7037520, Note_on_c, 0, 73, 0
2, 7037520, Note_on_c, 0, 70, 100
2, 7037580, Note_on_c, 0, 70, 0
2, 7037580, Note_on_c, 0, 69, 100
2, 7037640, Note_on_c, 0, 69, 0
2, 7037640, Note_on_c, 0, 67, 100
2, 7037700, Note_on_c, 0, 67, 0
2, 7037700, Note_on_c, 0, 74, 100
2, 7037760, Note_on_c, 0, 74, 0
2, 7037760, Note_on_c, 0, 72, 100
2, 7037880, Note_on_c, 0, 72, 0
2, 7037880, Note_on_c, 0, 71, 100
2, 7037940, Note_on_c, 0, 71, 0
2, 7037940, Note_on_c, 0, 72, 100
2, 7038000, Note_on_c, 0, 72, 0
2, 7038000, Note_on_c, 0, 71, 100
2, 7038120, Note_on_c, 0, 71, 0
2, 7038120, Note_on_c, 0, 69, 100
2, 7038180, Note_on_c, 0, 69, 0
2, 7038180, Note_on_c, 0, 71, 100
2, 7038240, Note_on_c, 0, 71, 0
2, 7038240, Note_on_c, 0, 70, 100
2, 7038360, Note_on_c, 0, 70, 0
2, 7038360, Note_on_c, 0, 69, 100
2, 7038420, Note_on_c, 0, 69, 0
2, 7038420, Note_on_c, 0, 70, 100
2, 7038480, Note_on_c, 0, 70, 0
2, 7038480, Note_on_c, 0, 69, 100
2, 7038600, Note_on_c, 0, 69, 0
2, 7038600, Note_on_c, 0, 67, 100
2, 7038660, Note_on_c, 0, 67, 0
2, 7038660, Note_on_c, 0, 69, 100
2, 7038720, Note_on_c, 0, 69, 0
2, 7038720, Note_on_c, 0, 74, 100
2, 7038840, Note_on_c, 0, 74, 0
2, 7038840, Note_on_c, 0, 72, 100
2, 7038900, Note_on_c, 0, 72, 0
2, 7038900, Note_on_c, 0, 74, 100
2, 7038960, Note_on_c, 0, 74, 0
2, 7038960, Note_on_c, 0, 67, 100
2, 7039080, Note_on_c, 0, 67, 0
2, 7039080, Note_on_c, 0, 66, 100
2, 7039140, Note_on_c, 0, 66, 0
2, 7039140, Note_on_c, 0, 67, 100
2, 7039200, Note_on_c, 0, 67, 0
2, 7039200, Note_on_c, 0, 69, 100
2, 7039260, Note_on_c, 0, 69, 0
2, 7039260, Note_on_c, 0, 71, 100
2, 7039320, Note_on_c, 0, 71, 0
2, 7039320, Note_on_c, 0, 72, 100
2, 7039380, Note_on_c, 0, 72, 0
2, 7039380, Note_on_c, 0, 74, 100
2, 7039440, Note_on_c, 0, 74, 0
2, 7039440, Note_on_c, 0, 72, 100
2, 7039500, Note_on_c, 0, 72, 0
2, 7039500, Note_on_c, 0, 71, 100
2, 7039560, Note_on_c, 0, 71, 0
2, 7039560, Note_on_c, 0, 69, 100
2, 7039620, Note_on_c, 0, 69, 0
2, 7039620, Note_on_c, 0, 67, 100
2, 7039680, Note_on_c, 0, 67, 0
2, 7039680, Note_on_c, 0, 71, 100
2, 7039800, Note_on_c, 0, 71, 0
2, 7039800, Note_on_c, 0, 62, 100
2, 7039920, Note_on_c, 0, 62, 0
2, 7039920, Note_on_c, 0, 67, 100
2, 7040040, Note_on_c, 0, 67, 0
2, 7040040, Note_on_c, 0, 55, 100
2, 7040160, Note_on_c, 0, 55, 0
2, 7040160, Note_on_c, 0, 74, 100
2, 7107840, Note_on_c, 0, 74, 0
2, 7107840, Note_on_c, 0, 76, 100
2, 7110720, Note_on_c, 0, 76, 0
2, 7110720, Note_on_c, 0, 77, 100
2, 7110840, Note_on_c, 0, 77, 0
2, 7110840, Note_on_c, 0, 76, 100
2, 7110900, Note_on_c, 0, 76, 0
2, 7110900, Note_on_c, 0, 77, 100
2, 7110960, Note_on_c, 0, 77, 0
2, 7110960, Note_on_c, 0, 79, 100
2, 7111440, Note_on_c, 0, 79, 0
2, 7111440, Note_on_c, 0, 77, 100
2, 7111680, Note_on_c, 0, 77, 0
2, 7111680, Note_on_c, 0, 76, 100
2, 7111800, Note_on_c, 0, 76, 0
2, 7111800, Note_on_c, 0, 74, 100
2, 7111980, Note_on_c, 0, 74, 0
2, 7111980, Note_on_c, 0, 72, 100
2, 7112040, Note_on_c, 0, 72, 0
2, 7112040, Note_on_c, 0, 71, 100
2, 7112100, Note_on_c, 0, 71, 0
2, 7112100, Note_on_c, 0, 72, 100
2, 7112160, Note_on_c, 0, 72, 0
2, 7112160, Note_on_c, 0, 71, 100
2, 7112460, Note_on_c, 0, 71, 0
2, 7112460, Note_on_c, 0, 69, 100
2, 7112520, Note_on_c, 0, 69, 0
2, 7112520, Note_on_c, 0, 67, 100
2, 7112580, Note_on_c, 0, 67, 0
2, 7112580, Note_on_c, 0, 69, 100
2, 7113000, Note_on_c, 0, 69, 0
2, 7113000, Note_on_c, 0, 74, 100
2, 7113585, Note_on_c, 0, 74, 0
2, 7113585, Note_on_c, 0, 71, 100
2, 7119240, Note_on_c, 0, 71, 0
2, 7119240, Note_on_c, 0, 69, 100
2, 7119360, Note_on_c, 0, 69, 0
2, 7119360, Note_on_c, 0, 81, 100
2, 7120200, Note_on_c, 0, 81, 0
2, 7120200, Note_on_c, 0, 75, 100
2, 7120320, Note_on_c, 0, 75, 0
2, 7120320, Note_on_c, 0, 78, 100
2, 7120680, Note_on_c, 0, 78, 0
2, 7120680, Note_on_c, 0, 71, 100
2, 7122240, Note_on_c, 0, 71, 0
2, 7122240, Note_on_c, 0, 69, 100
2, 7123200, Note_on_c, 0, 69, 0
2, 7123200, Note_on_c, 0, 71, 100
2, 7123680, Note_on_c, 0, 71, 0
2, 7123680, Note_on_c, 0, 73, 100
2, 7124160, Note_on_c, 0, 73, 0
2, 7124160, Note_on_c, 0, 69, 100
2, 7126080, Note_on_c, 0, 69, 0
2, 7126080, Note_on_c, 0, 73, 100
2, 7129920, Note_on_c, 0, 73, 0
2, 7129920, Note_on_c, 0, 66, 100
2, 7130880, Note_on_c, 0, 66, 0
2, 7130880, Note_on_c, 0, 74, 100
2, 7138560, Note_on_c, 0, 74, 0
2, 7138560, Note_on_c, 0, 76, 100
2, 7141440, Note_on_c, 0, 76, 0
2, 7141440, Note_on_c, 0, 77, 100
2, 7141560, Note_on_c, 0, 77, 0
2, 7141560, Note_on_c, 0, 76, 100
2, 7141620, Note_on_c, 0, 76, 0
2, 7141620, Note_on_c, 0, 77, 100
2, 7141680, Note_on_c, 0, 77, 0
2, 7141680, Note_on_c, 0, 79, 100
2, 7142160, Note_on_c, 0, 79, 0
2, 7142160, Note_on_c, 0, 77, 100
2, 7142400, Note_on_c, 0, 77, 0
2, 7142400, Note_on_c, 0, 76, 100
2, 7142520, Note_on_c, 0, 76, 0
2, 7142520, Note_on_c, 0, 74, 100
2, 7142700, Note_on_c, 0, 74, 0
2, 7142700, Note_on_c, 0, 72, 100
2, 7142760, Note_on_c, 0, 72, 0
2, 7142760, Note_on_c, 0, 71, 100
2, 7142820, Note_on_c, 0, 71, 0
2, 7142820, Note_on_c, 0, 72, 100
2, 7142880, Note_on_c, 0, 72, 0
2, 7142880, Note_on_c, 0, 71, 100
2, 7143180, Note_on_c, 0, 71, 0
2, 7143180, Note_on_c, 0, 69, 100
2, 7143240, Note_on_c, 0, 69, 0
2, 7143240, Note_on_c, 0, 67, 100
2, 7143300, Note_on_c, 0, 67, 0
2, 7143300, Note_on_c, 0, 69, 100
2, 7143720, Note_on_c, 0, 69, 0
2, 7143720, Note_on_c, 0, 74, 100
2, 7144305, Note_on_c, 0, 74, 0
2, 7144305, Note_on_c, 0, 71, 100
2, 7149960, Note_on_c, 0, 71, 0
2, 7149960, Note_on_c, 0, 69, 100
2, 7150080, Note_on_c, 0, 69, 0
2, 7150080, Note_on_c, 0, 81, 100
2, 7150920, Note_on_c, 0, 81, 0
2, 7150920, Note_on_c, 0, 75, 100
2, 7151040, Note_on_c, 0, 75, 0
2, 7151040, Note_on_c, 0, 78, 100
2, 7151400, Note_on_c, 0, 78, 0
2, 7151400, Note_on_c, 0, 71, 100
2, 7152960, Note_on_c, 0, 71, 0
2, 7152960, Note_on_c, 0, 69, 100
2, 7153920, Note_on_c, 0, 69, 0
2, 7153920, Note_on_c, 0, 71, 100
2, 7154400, Note_on_c, 0, 71, 0
2, 7154400, Note_on_c, 0, 73, 100
2, 7154880, Note_on_c, 0, 73, 0
2, 7154880, Note_on_c, 0, 69, 100
2, 7156800, Note_on_c, 0, 69, 0
2, 7156800, Note_on_c, 0, 73, 100
2, 7160640, Note_on_c, 0, 73, 0
2, 7160640, Note_on_c, 0, 74, 100
2, 7162560, Note_on_c, 0, 74, 0
2, 7162560, Note_on_c, 0, 72, 100
2, 7162680, Note_on_c, 0, 72, 0
2, 7162680, Note_on_c, 0, 71, 100
2, 7162800, Note_on_c, 0, 71, 0
2, 7162800, Note_on_c, 0, 69, 100
2, 7162920, Note_on_c, 0, 69, 0
2, 7162920, Note_on_c, 0, 71, 100
2, 7163040, Note_on_c, 0, 71, 0
2, 7163040, Note_on_c, 0, 72, 100
2, 7163280, Note_on_c, 0, 72, 0
2, 7163280, Note_on_c, 0, 74, 100
2, 7163520, Note_on_c, 0, 74, 0
2, 7163520, Note_on_c, 0, 67, 100
2, 7163760, Note_on_c, 0, 67, 0
2, 7163760, Note_on_c, 0, 71, 100
2, 7163880, Note_on_c, 0, 71, 0
2, 7163880, Note_on_c, 0, 69, 100
2, 7164000, Note_on_c, 0, 69, 0
2, 7164000, Note_on_c, 0, 72, 100
2, 7164120, Note_on_c, 0, 72, 0
2, 7164120, Note_on_c, 0, 71, 100
2, 7164240, Note_on_c, 0, 71, 0
2, 7164240, Note_on_c, 0, 74, 100
2, 7164360, Note_on_c, 0, 74, 0
2, 7164360, Note_on_c, 0, 72, 100
2, 7164480, Note_on_c, 0, 72, 0
2, 7164480, Note_on_c, 0, 79, 100
2, 7165320, Note_on_c, 0, 79, 0
2, 7165320, Note_on_c, 0, 78, 100
2, 7165440, Note_on_c, 0, 78, 0
2, 7165440, Note_on_c, 0, 76, 100
2, 7165560, Note_on_c, 0, 76, 0
2, 7165560, Note_on_c, 0, 75, 100
2, 7165680, Note_on_c, 0, 75, 0
2, 7165680, Note_on_c, 0, 76, 100
2, 7165800, Note_on_c, 0, 76, 0
2, 7165800, Note_on_c, 0, 71, 100
2, 7165920, Note_on_c, 0, 71, 0
2, 7165920, Note_on_c, 0, 73, 100
2, 7166760, Note_on_c, 0, 73, 0
2, 7166760, Note_on_c, 0, 75, 100
2, 7166880, Note_on_c, 0, 75, 0
2, 7166880, Note_on_c, 0, 76, 100
2, 7167000, Note_on_c, 0, 76, 0
2, 7167000, Note_on_c, 0, 78, 100
2, 7167120, Note_on_c, 0, 78, 0
2, 7167120, Note_on_c, 0, 75, 100
2, 7167240, Note_on_c, 0, 75, 0
2, 7167240, Note_on_c, 0, 76, 100
2, 7167360, Note_on_c, 0, 76, 0
2, 7167360, Note_on_c, 0, 69, 100
2, 7169520, Note_on_c, 0, 69, 0
2, 7169520, Note_on_c, 0, 71, 100
2, 7169760, Note_on_c, 0, 71, 0
2, 7169760, Note_on_c, 0, 72, 100
2, 7170000, Note_on_c, 0, 72, 0
2, 7170000, Note_on_c, 0, 74, 100
2, 7170240, Note_on_c, 0, 74, 0
2, 7170240, Note_on_c, 0, 76, 100
2, 7170480, Note_on_c, 0, 76, 0
2, 7170480, Note_on_c, 0, 78, 100
2, 7170720, Note_on_c, 0, 78, 0
2, 7170720, Note_on_c, 0, 79, 100
2, 7170960, Note_on_c, 0, 79, 0
2, 7170960, Note_on_c, 0, 74, 100
2, 7171440, Note_on_c, 0, 74, 0
2, 7171440, Note_on_c, 0, 67, 100
2, 7171680, Note_on_c, 0, 67, 0
2, 7171680, Note_on_c, 0, 69, 100
2, 7171920, Note_on_c, 0, 69, 0
2, 7171920, Note_on_c, 0, 66, 100
2, 7172160, Note_on_c, 0, 66, 0
2, 7172160, Note_on_c, 0, 67, 100
2, 7172400, Note_on_c, 0, 67, 0
2, 7172400, Note_on_c, 0, 69, 100
2, 7172640, Note_on_c, 0, 69, 0
2, 7172640, Note_on_c, 0, 68, 100
2, 7172700, Note_on_c, 0, 68, 0
2, 7172700, Note_on_c, 0, 69, 100
2, 7172760, Note_on_c, 0, 69, 0
2, 7172760, Note_on_c, 0, 68, 100
2, 7172820, Note_on_c, 0, 68, 0
2, 7172820, Note_on_c, 0, 69, 100
2, 7172880, Note_on_c, 0, 69, 0
2, 7172880, Note_on_c, 0, 68, 100
2, 7172940, Note_on_c, 0, 68, 0
2, 7172940, Note_on_c, 0, 66, 100
2, 7173000, Note_on_c, 0, 66, 0
2, 7173000, Note_on_c, 0, 68, 100
2, 7173060, Note_on_c, 0, 68, 0
2, 7173060, Note_on_c, 0, 69, 100
2, 7173120, Note_on_c, 0, 69, 0
2, 7173120, Note_on_c, 0, 68, 100
2, 7173600, Note_on_c, 0, 68, 0
2, 7173600, Note_on_c, 0, 69, 100
2, 7173840, Note_on_c, 0, 69, 0
2, 7173840, Note_on_c, 0, 67, 100
2, 7174080, Note_on_c, 0, 67, 0
2, 7174080, Note_on_c, 0, 66, 100
2, 7174560, Note_on_c, 0, 66, 0
2, 7174560, Note_on_c, 0, 67, 100
2, 7174800, Note_on_c, 0, 67, 0
2, 7174800, Note_on_c, 0, 64, 100
2, 7175040, Note_on_c, 0, 64, 0
2, 7175040, Note_on_c, 0, 66, 100
2, 7177680, Note_on_c, 0, 66, 0
2, 7177680, Note_on_c, 0, 69, 100
2, 7177920, Note_on_c, 0, 69, 0
2, 7177920, Note_on_c, 0, 67, 100
2, 7177980, Note_on_c, 0, 67, 0
2, 7177980, Note_on_c, 0, 66, 100
2, 7178040, Note_on_c, 0, 66, 0
2, 7178040, Note_on_c, 0, 67, 100
2, 7178100, Note_on_c, 0, 67, 0
2, 7178100, Note_on_c, 0, 69, 100
2, 7178160, Note_on_c, 0, 69, 0
2, 7178160, Note_on_c, 0, 67, 100
2, 7181160, Note_on_c, 0, 67, 0
2, 7181160, Note_on_c, 0, 66, 100
2, 7181280, Note_on_c, 0, 66, 0
2, 7181280, Note_on_c, 0, 67, 100
2, 7181400, Note_on_c, 0, 67, 0
2, 7181400, Note_on_c, 0, 69, 100
2, 7181520, Note_on_c, 0, 69, 0
2, 7181520, Note_on_c, 0, 66, 100
2, 7181640, Note_on_c, 0, 66, 0
2, 7181640, Note_on_c, 0, 62, 100
2, 7181760, Note_on_c, 0, 62, 0
2, 7181760, Note_on_c, 0, 66, 100
2, 7182600, Note_on_c, 0, 66, 0
2, 7182600, Note_on_c, 0, 64, 100
2, 7182720, Note_on_c, 0, 64, 0
2, 7182720, Note_on_c, 0, 67, 100
2, 7182840, Note_on_c, 0, 67, 0
2, 7182840, Note_on_c, 0, 66, 100
2, 7182960, Note_on_c, 0, 66, 0
2, 7182960, Note_on_c, 0, 59, 100
2, 7183200, Note_on_c, 0, 59, 0
2, 7183200, Note_on_c, 0, 60, 100
2, 7183440, Note_on_c, 0, 60, 0
2, 7183440, Note_on_c, 0, 57, 100
2, 7183680, Note_on_c, 0, 57, 0
2, 7183680, Note_on_c, 0, 59, 100
2, 7183920, Note_on_c, 0, 59, 0
2, 7183920, Note_on_c, 0, 74, 100
2, 7185600, Note_on_c, 0, 74, 0
2, 7185600, Note_on_c, 0, 72, 100
2, 7185720, Note_on_c, 0, 72, 0
2, 7185720, Note_on_c, 0, 71, 100
2, 7185840, Note_on_c, 0, 71, 0
2, 7185840, Note_on_c, 0, 69, 100
2, 7185960, Note_on_c, 0, 69, 0
2, 7185960, Note_on_c, 0, 71, 100
2, 7186080, Note_on_c, 0, 71, 0
2, 7186080, Note_on_c, 0, 72, 100
2, 7186320, Note_on_c, 0, 72, 0
2, 7186320, Note_on_c, 0, 74, 100
2, 7186560, Note_on_c, 0, 74, 0
2, 7186560, Note_on_c, 0, 67, 100
2, 7186800, Note_on_c, 0, 67, 0
2, 7186800, Note_on_c, 0, 71, 100
2, 7186920, Note_on_c, 0, 71, 0
2, 7186920, Note_on_c, 0, 69, 100
2, 7187040, Note_on_c, 0, 69, 0
2, 7187040, Note_on_c, 0, 72, 100
2, 7187160, Note_on_c, 0, 72, 0
2, 7187160, Note_on_c, 0, 71, 100
2, 7187280, Note_on_c, 0, 71, 0
2, 7187280, Note_on_c, 0, 74, 100
2, 7187400, Note_on_c, 0, 74, 0
2, 7187400, Note_on_c, 0, 72, 100
2, 7187520, Note_on_c, 0, 72, 0
2, 7187520, Note_on_c, 0, 79, 100
2, 7188360, Note_on_c, 0, 79, 0
2, 7188360, Note_on_c, 0, 78, 100
2, 7188480, Note_on_c, 0, 78, 0
2, 7188480, Note_on_c, 0, 76, 100
2, 7188600, Note_on_c, 0, 76, 0
2, 7188600, Note_on_c, 0, 75, 100
2, 7188720, Note_on_c, 0, 75, 0
2, 7188720, Note_on_c, 0, 76, 100
2, 7188840, Note_on_c, 0, 76, 0
2, 7188840, Note_on_c, 0, 71, 100
2, 7188960, Note_on_c, 0, 71, 0
2, 7188960, Note_on_c, 0, 73, 100
2, 7189800, Note_on_c, 0, 73, 0
2, 7189800, Note_on_c, 0, 75, 100
2, 7189920, Note_on_c, 0, 75, 0
2, 7189920, Note_on_c, 0, 76, 100
2, 7190040, Note_on_c, 0, 76, 0
2, 7190040, Note_on_c, 0, 78, 100
2, 7190160, Note_on_c, 0, 78, 0
2, 7190160, Note_on_c, 0, 75, 100
2, 7190280, Note_on_c, 0, 75, 0
2, 7190280, Note_on_c, 0, 76, 100
2, 7190400, Note_on_c, 0, 76, 0
2, 7190400, Note_on_c, 0, 69, 100
2, 7192560, Note_on_c, 0, 69, 0
2, 7192560, Note_on_c, 0, 71, 100
2, 7192800, Note_on_c, 0, 71, 0
2, 7192800, Note_on_c, 0, 72, 100
2, 7193040, Note_on_c, 0, 72, 0
2, 7193040, Note_on_c, 0, 74, 100
2, 7193280, Note_on_c, 0, 74, 0
2, 7193280, Note_on_c, 0, 76, 100
2, 7193520, Note_on_c, 0, 76, 0
2, 7193520, Note_on_c, 0, 78, 100
2, 7193760, Note_on_c, 0, 78, 0
2, 7193760, Note_on_c, 0, 79, 100
2, 7194000, Note_on_c, 0, 79, 0
2, 7194000, Note_on_c, 0, 74, 100
2, 7194480, Note_on_c, 0, 74, 0
2, 7194480, Note_on_c, 0, 67, 100
2, 7194720, Note_on_c, 0, 67, 0
2, 7194720, Note_on_c, 0, 69, 100
2, 7194960, Note_on_c, 0, 69, 0
2, 7194960, Note_on_c, 0, 66, 100
2, 7195200, Note_on_c, 0, 66, 0
2, 7195200, Note_on_c, 0, 67, 100
2, 7195440, Note_on_c, 0, 67, 0
2, 7195440, Note_on_c, 0, 69, 100
2, 7195680, Note_on_c, 0, 69, 0
2, 7195680, Note_on_c, 0, 68, 100
2, 7195740, Note_on_c, 0, 68, 0
2, 7195740, Note_on_c, 0, 69, 100
2, 7195800, Note_on_c, 0, 69, 0
2, 7195800, Note_on_c, 0, 68, 100
2, 7195860, Note_on_c, 0, 68, 0
2, 7195860, Note_on_c, 0, 69, 100
2, 7195920, Note_on_c, 0, 69, 0
2, 7195920, Note_on_c, 0, 68, 100
2, 7195980, Note_on_c, 0, 68, 0
2, 7195980, Note_on_c, 0, 66, 100
2, 7196040, Note_on_c, 0, 66, 0
2, 7196040, Note_on_c, 0, 68, 100
2, 7196100, Note_on_c, 0, 68, 0
2, 7196100, Note_on_c, 0, 69, 100
2, 7196160, Note_on_c, 0, 69, 0
2, 7196160, Note_on_c, 0, 68, 100
2, 7196640, Note_on_c, 0, 68, 0
2, 7196640, Note_on_c, 0, 69, 100
2, 7196880, Note_on_c, 0, 69, 0
2, 7196880, Note_on_c, 0, 67, 100
2, 7197120, Note_on_c, 0, 67, 0
2, 7197120, Note_on_c, 0, 66, 100
2, 7197600, Note_on_c, 0, 66, 0
2, 7197600, Note_on_c, 0, 67, 100
2, 7197840, Note_on_c, 0, 67, 0
2, 7197840, Note_on_c, 0, 64, 100
2, 7198080, Note_on_c, 0, 64, 0
2, 7198080, Note_on_c, 0, 66, 100
2, 7200720, Note_on_c, 0, 66, 0
2, 7200720, Note_on_c, 0, 69, 100
2, 7200960, Note_on_c, 0, 69, 0
2, 7200960, Note_on_c, 0, 67, 100
2, 7201020, Note_on_c, 0, 67, 0
2, 7201020, Note_on_c, 0, 66, 100
2, 7201080, Note_on_c, 0, 66, 0
2, 7201080, Note_on_c, 0, 67, 100
2, 7201140, Note_on_c, 0, 67, 0
2, 7201140, Note_on_c, 0, 69, 100
2, 7201200, Note_on_c, 0, 69, 0
2, 7201200, Note_on_c, 0, 67, 100
2, 7204200, Note_on_c, 0, 67, 0
2, 7204200, Note_on_c, 0, 66, 100
2, 7204320, Note_on_c, 0, 66, 0
2, 7204320, Note_on_c, 0, 67, 100
2, 7204440, Note_on_c, 0, 67, 0
2, 7204440, Note_on_c, 0, 69, 100
2, 7204560, Note_on_c, 0, 69, 0
2, 7204560, Note_on_c, 0, 66, 100
2, 7204680, Note_on_c, 0, 66, 0
2, 7204680, Note_on_c, 0, 62, 100
2, 7204800, Note_on_c, 0, 62, 0
2, 7204800, Note_on_c, 0, 66, 100
2, 7205640, Note_on_c, 0, 66, 0
2, 7205640, Note_on_c, 0, 64, 100
2, 7205760, Note_on_c, 0, 64, 0
2, 7205760, Note_on_c, 0, 67, 100
2, 7205880, Note_on_c, 0, 67, 0
2, 7205880, Note_on_c, 0, 66, 100
2, 7206000, Note_on_c, 0, 66, 0
2, 7206000, Note_on_c, 0, 59, 100
2, 7206240, Note_on_c, 0, 59, 0
2, 7206240, Note_on_c, 0, 60, 100
2, 7206480, Note_on_c, 0, 60, 0
2, 7206480, Note_on_c, 0, 57, 100
2, 7206720, Note_on_c, 0, 57, 0
2, 7206720, Note_on_c, 0, 62, 100
2, 7206960, Note_on_c, 0, 62, 0
2, 7206960, Note_on_c, 0, 71, 100
2, 7208880, Note_on_c, 0, 71, 0
2, 7208880, Note_on_c, 0, 74, 100
2, 7209000, Note_on_c, 0, 74, 0
2, 7209000, Note_on_c, 0, 78, 100
2, 7209120, Note_on_c, 0, 78, 0
2, 7209120, Note_on_c, 0, 81, 100
2, 7209240, Note_on_c, 0, 81, 0
2, 7209240, Note_on_c, 0, 79, 100
2, 7209360, Note_on_c, 0, 79, 0
2, 7209360, Note_on_c, 0, 72, 100
2, 7209720, Note_on_c, 0, 72, 0
2, 7209720, Note_on_c, 0, 71, 100
2, 7209840, Note_on_c, 0, 71, 0
2, 7209840, Note_on_c, 0, 69, 100
2, 7209960, Note_on_c, 0, 69, 0
2, 7209960, Note_on_c, 0, 67, 100
2, 7210080, Note_on_c, 0, 67, 0
2, 7210080, Note_on_c, 0, 71, 100
2, 7210200, Note_on_c, 0, 71, 0
2, 7210200, Note_on_c, 0, 69, 100
2, 7210320, Note_on_c, 0, 69, 0
2, 7210320, Note_on_c, 0, 73, 100
2, 7210440, Note_on_c, 0, 73, 0
2, 7210440, Note_on_c, 0, 76, 100
2, 7210560, Note_on_c, 0, 76, 0
2, 7210560, Note_on_c, 0, 79, 100
2, 7210680, Note_on_c, 0, 79, 0
2, 7210680, Note_on_c, 0, 78, 100
2, 7210800, Note_on_c, 0, 78, 0
2, 7210800, Note_on_c, 0, 71, 100
2, 7211160, Note_on_c, 0, 71, 0
2, 7211160, Note_on_c, 0, 69, 100
2, 7211280, Note_on_c, 0, 69, 0
2, 7211280, Note_on_c, 0, 67, 100
2, 7211400, Note_on_c, 0, 67, 0
2, 7211400, Note_on_c, 0, 66, 100
2, 7211520, Note_on_c, 0, 66, 0
2, 7211520, Note_on_c, 0, 69, 100
2, 7211640, Note_on_c, 0, 69, 0
2, 7211640, Note_on_c, 0, 67, 100
2, 7211760, Note_on_c, 0, 67, 0
2, 7211760, Note_on_c, 0, 71, 100
2, 7211880, Note_on_c, 0, 71, 0
2, 7211880, Note_on_c, 0, 74, 100
2, 7212000, Note_on_c, 0, 74, 0
2, 7212000, Note_on_c, 0, 78, 100
2, 7212120, Note_on_c, 0, 78, 0
2, 7212120, Note_on_c, 0, 76, 100
2, 7212240, Note_on_c, 0, 76, 0
2, 7212240, Note_on_c, 0, 69, 100
2, 7212600, Note_on_c, 0, 69, 0
2, 7212600, Note_on_c, 0, 67, 100
2, 7212720, Note_on_c, 0, 67, 0
2, 7212720, Note_on_c, 0, 66, 100
2, 7212840, Note_on_c, 0, 66, 0
2, 7212840, Note_on_c, 0, 64, 100
2, 7212960, Note_on_c, 0, 64, 0
2, 7212960, Note_on_c, 0, 67, 100
2, 7213080, Note_on_c, 0, 67, 0
2, 7213080, Note_on_c, 0, 66, 100
2, 7213200, Note_on_c, 0, 66, 0
2, 7213200, Note_on_c, 0, 64, 100
2, 7213320, Note_on_c, 0, 64, 0
2, 7213320, Note_on_c, 0, 66, 100
2, 7213440, Note_on_c, 0, 66, 0
2, 7213440, Note_on_c, 0, 64, 100
2, 7213560, Note_on_c, 0, 64, 0
2, 7213560, Note_on_c, 0, 66, 100
2, 7213680, Note_on_c, 0, 66, 0
2, 7213680, Note_on_c, 0, 69, 100
2, 7213800, Note_on_c, 0, 69, 0
2, 7213800, Note_on_c, 0, 74, 100
2, 7213920, Note_on_c, 0, 74, 0
2, 7213920, Note_on_c, 0, 73, 100
2, 7214040, Note_on_c, 0, 73, 0
2, 7214040, Note_on_c, 0, 74, 100
2, 7214160, Note_on_c, 0, 74, 0
2, 7214160, Note_on_c, 0, 78, 100
2, 7214280, Note_on_c, 0, 78, 0
2, 7214280, Note_on_c, 0, 81, 100
2, 7214400, Note_on_c, 0, 81, 0
2, 7214400, Note_on_c, 0, 72, 100
2, 7214520, Note_on_c, 0, 72, 0
2, 7214520, Note_on_c, 0, 71, 100
2, 7214640, Note_on_c, 0, 71, 0
2, 7214640, Note_on_c, 0, 79, 100
2, 7214760, Note_on_c, 0, 79, 0
2, 7214760, Note_on_c, 0, 69, 100
2, 7214880, Note_on_c, 0, 69, 0
2, 7214880, Note_on_c, 0, 78, 100
2, 7215000, Note_on_c, 0, 78, 0
2, 7215000, Note_on_c, 0, 67, 100
2, 7215120, Note_on_c, 0, 67, 0
2, 7215120, Note_on_c, 0, 76, 100
2, 7215240, Note_on_c, 0, 76, 0
2, 7215240, Note_on_c, 0, 65, 100
2, 7215360, Note_on_c, 0, 65, 0
2, 7215360, Note_on_c, 0, 74, 100
2, 7215480, Note_on_c, 0, 74, 0
2, 7215480, Note_on_c, 0, 64, 100
2, 7215600, Note_on_c, 0, 64, 0
2, 7215600, Note_on_c, 0, 72, 100
2, 7215720, Note_on_c, 0, 72, 0
2, 7215720, Note_on_c, 0, 62, 100
2, 7215840, Note_on_c, 0, 62, 0
2, 7215840, Note_on_c, 0, 71, 100
2, 7215960, Note_on_c, 0, 71, 0
2, 7215960, Note_on_c, 0, 72, 100
2, 7216080, Note_on_c, 0, 72, 0
2, 7216080, Note_on_c, 0, 64, 100
2, 7216200, Note_on_c, 0, 64, 0
2, 7216200, Note_on_c, 0, 71, 100
2, 7216320, Note_on_c, 0, 71, 0
2, 7216320, Note_on_c, 0, 62, 100
2, 7216440, Note_on_c, 0, 62, 0
2, 7216440, Note_on_c, 0, 69, 100
2, 7216560, Note_on_c, 0, 69, 0
2, 7216560, Note_on_c, 0, 60, 100
2, 7216680, Note_on_c, 0, 60, 0
2, 7216680, Note_on_c, 0, 67, 100
2, 7216800, Note_on_c, 0, 67, 0
2, 7216800, Note_on_c, 0, 59, 100
2, 7216920, Note_on_c, 0, 59, 0
2, 7216920, Note_on_c, 0, 66, 100
2, 7217040, Note_on_c, 0, 66, 0
2, 7217040, Note_on_c, 0, 57, 100
2, 7217160, Note_on_c, 0, 57, 0
2, 7217160, Note_on_c, 0, 64, 100
2, 7217280, Note_on_c, 0, 64, 0
2, 7217280, Note_on_c, 0, 55, 100
2, 7217400, Note_on_c, 0, 55, 0
2, 7217400, Note_on_c, 0, 57, 100
2, 7217520, Note_on_c, 0, 57, 0
2, 7217520, Note_on_c, 0, 66, 100
2, 7217640, Note_on_c, 0, 66, 0
2, 7217640, Note_on_c, 0, 55, 100
2, 7217760, Note_on_c, 0, 55, 0
2, 7217760, Note_on_c, 0, 64, 100
2, 7217880, Note_on_c, 0, 64, 0
2, 7217880, Note_on_c, 0, 54, 100
2, 7218000, Note_on_c, 0, 54, 0
2, 7218000, Note_on_c, 0, 62, 100
2, 7218120, Note_on_c, 0, 62, 0
2, 7218120, Note_on_c, 0, 52, 100
2, 7218240, Note_on_c, 0, 52, 0
2, 7218240, Note_on_c, 0, 60, 100
2, 7218360, Note_on_c, 0, 60, 0
2, 7218360, Note_on_c, 0, 50, 100
2, 7218480, Note_on_c, 0, 50, 0
2, 7218480, Note_on_c, 0, 59, 100
2, 7218600, Note_on_c, 0, 59, 0
2, 7218600, Note_on_c, 0, 48, 100
2, 7218720, Note_on_c, 0, 48, 0
2, 7218720, Note_on_c, 0, 57, 100
2, 7218840, Note_on_c, 0, 57, 0
2, 7218840, Note_on_c, 0, 47, 100
2, 7218960, Note_on_c, 0, 47, 0
2, 7218960, Note_on_c, 0, 45, 100
2, 7219080, Note_on_c, 0, 45, 0
2, 7219080, Note_on_c, 0, 47, 100
2, 7219200, Note_on_c, 0, 47, 0
2, 7219200, Note_on_c, 0, 45, 100
2, 7219320, Note_on_c, 0, 45, 0
2, 7219320, Note_on_c, 0, 47, 100
2, 7219440, Note_on_c, 0, 47, 0
2, 7219440, Note_on_c, 0, 50, 100
2, 7219560, Note_on_c, 0, 50, 0
2, 7219560, Note_on_c, 0, 55, 100
2, 7219680, Note_on_c, 0, 55, 0
2, 7219680, Note_on_c, 0, 54, 100
2, 7219800, Note_on_c, 0, 54, 0
2, 7219800, Note_on_c, 0, 55, 100
2, 7219920, Note_on_c, 0, 55, 0
2, 7219920, Note_on_c, 0, 74, 100
2, 7220400, Note_on_c, 0, 74, 0
2, 7220400, Note_on_c, 0, 83, 100
2, 7220520, Note_on_c, 0, 83, 0
2, 7220520, Note_on_c, 0, 72, 100
2, 7220640, Note_on_c, 0, 72, 0
2, 7220640, Note_on_c, 0, 81, 100
2, 7220760, Note_on_c, 0, 81, 0
2, 7220760, Note_on_c, 0, 71, 100
2, 7220880, Note_on_c, 0, 71, 0
2, 7220880, Note_on_c, 0, 79, 100
2, 7221000, Note_on_c, 0, 79, 0
2, 7221000, Note_on_c, 0, 69, 100
2, 7221120, Note_on_c, 0, 69, 0
2, 7221120, Note_on_c, 0, 78, 100
2, 7221240, Note_on_c, 0, 78, 0
2, 7221240, Note_on_c, 0, 67, 100
2, 7221360, Note_on_c, 0, 67, 0
2, 7221360, Note_on_c, 0, 76, 100
2, 7221480, Note_on_c, 0, 76, 0
2, 7221480, Note_on_c, 0, 66, 100
2, 7221600, Note_on_c, 0, 66, 0
2, 7221600, Note_on_c, 0, 74, 100
2, 7221720, Note_on_c, 0, 74, 0
2, 7221720, Note_on_c, 0, 64, 100
2, 7221840, Note_on_c, 0, 64, 0
2, 7221840, Note_on_c, 0, 74, 100
2, 7221960, Note_on_c, 0, 74, 0
2, 7221960, Note_on_c, 0, 73, 100
2, 7222080, Note_on_c, 0, 73, 0
2, 7222080, Note_on_c, 0, 71, 100
2, 7222200, Note_on_c, 0, 71, 0
2, 7222200, Note_on_c, 0, 73, 100
2, 7222320, Note_on_c, 0, 73, 0
2, 7222320, Note_on_c, 0, 76, 100
2, 7222440, Note_on_c, 0, 76, 0
2, 7222440, Note_on_c, 0, 81, 100
2, 7222800, Note_on_c, 0, 81, 0
2, 7222800, Note_on_c, 0, 79, 100
2, 7222860, Note_on_c, 0, 79, 0
2, 7222860, Note_on_c, 0, 81, 100
2, 7222920, Note_on_c, 0, 81, 0
2, 7222920, Note_on_c, 0, 71, 100
2, 7223280, Note_on_c, 0, 71, 0
2, 7223280, Note_on_c, 0, 79, 100
2, 7223400, Note_on_c, 0, 79, 0
2, 7223400, Note_on_c, 0, 69, 100
2, 7223520, Note_on_c, 0, 69, 0
2, 7223520, Note_on_c, 0, 78, 100
2, 7223640, Note_on_c, 0, 78, 0
2, 7223640, Note_on_c, 0, 67, 100
2, 7223760, Note_on_c, 0, 67, 0
2, 7223760, Note_on_c, 0, 76, 100
2, 7223880, Note_on_c, 0, 76, 0
2, 7223880, Note_on_c, 0, 66, 100
2, 7224000, Note_on_c, 0, 66, 0
2, 7224000, Note_on_c, 0, 74, 100
2, 7224120, Note_on_c, 0, 74, 0
2, 7224120, Note_on_c, 0, 64, 100
2, 7224240, Note_on_c, 0, 64, 0
2, 7224240, Note_on_c, 0, 73, 100
2, 7224360, Note_on_c, 0, 73, 0
2, 7224360, Note_on_c, 0, 62, 100
2, 7224480, Note_on_c, 0, 62, 0
2, 7224480, Note_on_c, 0, 71, 100
2, 7224600, Note_on_c, 0, 71, 0
2, 7224600, Note_on_c, 0, 61, 100
2, 7224720, Note_on_c, 0, 61, 0
2, 7224720, Note_on_c, 0, 71, 100
2, 7224840, Note_on_c, 0, 71, 0
2, 7224840, Note_on_c, 0, 69, 100
2, 7224960, Note_on_c, 0, 69, 0
2, 7224960, Note_on_c, 0, 68, 100
2, 7225080, Note_on_c, 0, 68, 0
2, 7225080, Note_on_c, 0, 69, 100
2, 7225200, Note_on_c, 0, 69, 0
2, 7225200, Note_on_c, 0, 73, 100
2, 7225320, Note_on_c, 0, 73, 0
2, 7225320, Note_on_c, 0, 76, 100
2, 7225680, Note_on_c, 0, 76, 0
2, 7225680, Note_on_c, 0, 74, 100
2, 7225740, Note_on_c, 0, 74, 0
2, 7225740, Note_on_c, 0, 76, 100
2, 7225800, Note_on_c, 0, 76, 0
2, 7225800, Note_on_c, 0, 74, 100
2, 7226280, Note_on_c, 0, 74, 0
2, 7226280, Note_on_c, 0, 76, 100
2, 7226400, Note_on_c, 0, 76, 0
2, 7226400, Note_on_c, 0, 73, 100
2, 7226520, Note_on_c, 0, 73, 0
2, 7226520, Note_on_c, 0, 74, 100
2, 7226640, Note_on_c, 0, 74, 0
2, 7226640, Note_on_c, 0, 71, 100
2, 7226760, Note_on_c, 0, 71, 0
2, 7226760, Note_on_c, 0, 72, 100
2, 7226880, Note_on_c, 0, 72, 0
2, 7226880, Note_on_c, 0, 69, 100
2, 7227000, Note_on_c, 0, 69, 0
2, 7227000, Note_on_c, 0, 71, 100
2, 7227120, Note_on_c, 0, 71, 0
2, 7227120, Note_on_c, 0, 67, 100
2, 7227240, Note_on_c, 0, 67, 0
2, 7227240, Note_on_c, 0, 69, 100
2, 7227360, Note_on_c, 0, 69, 0
2, 7227360, Note_on_c, 0, 66, 100
2, 7227480, Note_on_c, 0, 66, 0
2, 7227480, Note_on_c, 0, 67, 100
2, 7227600, Note_on_c, 0, 67, 0
2, 7227600, Note_on_c, 0, 76, 100
2, 7227720, Note_on_c, 0, 76, 0
2, 7227720, Note_on_c, 0, 66, 100
2, 7227840, Note_on_c, 0, 66, 0
2, 7227840, Note_on_c, 0, 74, 100
2, 7227960, Note_on_c, 0, 74, 0
2, 7227960, Note_on_c, 0, 64, 100
2, 7228080, Note_on_c, 0, 64, 0
2, 7228080, Note_on_c, 0, 73, 100
2, 7228200, Note_on_c, 0, 73, 0
2, 7228200, Note_on_c, 0, 74, 100
2, 7228320, Note_on_c, 0, 74, 0
2, 7228320, Note_on_c, 0, 73, 100
2, 7228350, Note_on_c, 0, 73, 0
2, 7228350, Note_on_c, 0, 71, 100
2, 7228440, Note_on_c, 0, 71, 0
2, 7228440, Note_on_c, 0, 73, 100
2, 7228560, Note_on_c, 0, 73, 0
2, 7228560, Note_on_c, 0, 71, 100
2, 7228590, Note_on_c, 0, 71, 0
2, 7228590, Note_on_c, 0, 69, 100
2, 7228680, Note_on_c, 0, 69, 0
2, 7228680, Note_on_c, 0, 71, 100
2, 7228800, Note_on_c, 0, 71, 0
2, 7228800, Note_on_c, 0, 79, 100
2, 7229040, Note_on_c, 0, 79, 0
2, 7229040, Note_on_c, 0, 78, 100
2, 7229400, Note_on_c, 0, 78, 0
2, 7229400, Note_on_c, 0, 76, 100
2, 7229460, Note_on_c, 0, 76, 0
2, 7229460, Note_on_c, 0, 78, 100
2, 7229520, Note_on_c, 0, 78, 0
2, 7229520, Note_on_c, 0, 74, 100
2, 7229640, Note_on_c, 0, 74, 0
2, 7229640, Note_on_c, 0, 71, 100
2, 7229760, Note_on_c, 0, 71, 0
2, 7229760, Note_on_c, 0, 67, 100
2, 7229880, Note_on_c, 0, 67, 0
2, 7229880, Note_on_c, 0, 69, 100
2, 7230000, Note_on_c, 0, 69, 0
2, 7230000, Note_on_c, 0, 66, 100
2, 7230120, Note_on_c, 0, 66, 0
2, 7230120, Note_on_c, 0, 67, 100
2, 7230240, Note_on_c, 0, 67, 0
2, 7230240, Note_on_c, 0, 76, 100
2, 7230360, Note_on_c, 0, 76, 0
2, 7230360, Note_on_c, 0, 66, 100
2, 7230480, Note_on_c, 0, 66, 0
2, 7230480, Note_on_c, 0, 64, 100
2, 7230600, Note_on_c, 0, 64, 0
2, 7230600, Note_on_c, 0, 66, 100
2, 7230720, Note_on_c, 0, 66, 0
2, 7230720, Note_on_c, 0, 64, 100
2, 7230840, Note_on_c, 0, 64, 0
2, 7230840, Note_on_c, 0, 66, 100
2, 7230960, Note_on_c, 0, 66, 0
2, 7230960, Note_on_c, 0, 69, 100
2, 7231080, Note_on_c, 0, 69, 0
2, 7231080, Note_on_c, 0, 74, 100
2, 7231200, Note_on_c, 0, 74, 0
2, 7231200, Note_on_c, 0, 73, 100
2, 7231320, Note_on_c, 0, 73, 0
2, 7231320, Note_on_c, 0, 74, 100
2, 7231440, Note_on_c, 0, 74, 0
2, 7231440, Note_on_c, 0, 71, 100
2, 7231920, Note_on_c, 0, 71, 0
2, 7231920, Note_on_c, 0, 74, 100
2, 7232040, Note_on_c, 0, 74, 0
2, 7232040, Note_on_c, 0, 78, 100
2, 7232160, Note_on_c, 0, 78, 0
2, 7232160, Note_on_c, 0, 81, 100
2, 7232280, Note_on_c, 0, 81, 0
2, 7232280, Note_on_c, 0, 79, 100
2, 7232400, Note_on_c, 0, 79, 0
2, 7232400, Note_on_c, 0, 72, 100
2, 7232760, Note_on_c, 0, 72, 0
2, 7232760, Note_on_c, 0, 71, 100
2, 7232880, Note_on_c, 0, 71, 0
2, 7232880, Note_on_c, 0, 69, 100
2, 7233000, Note_on_c, 0, 69, 0
2, 7233000, Note_on_c, 0, 67, 100
2, 7233120, Note_on_c, 0, 67, 0
2, 7233120, Note_on_c, 0, 71, 100
2, 7233240, Note_on_c, 0, 71, 0
2, 7233240, Note_on_c, 0, 69, 100
2, 7233360, Note_on_c, 0, 69, 0
2, 7233360, Note_on_c, 0, 73, 100
2, 7233480, Note_on_c, 0, 73, 0
2, 7233480, Note_on_c, 0, 76, 100
2, 7233600, Note_on_c, 0, 76, 0
2, 7233600, Note_on_c, 0, 79, 100
2, 7233720, Note_on_c, 0, 79, 0
2, 7233720, Note_on_c, 0, 78, 100
2, 7233840, Note_on_c, 0, 78, 0
2, 7233840, Note_on_c, 0, 71, 100
2, 7234200, Note_on_c, 0, 71, 0
2, 7234200, Note_on_c, 0, 69, 100
2, 7234320, Note_on_c, 0, 69, 0
2, 7234320, Note_on_c, 0, 67, 100
2, 7234440, Note_on_c, 0, 67, 0
2, 7234440, Note_on_c, 0, 66, 100
2, 7234560, Note_on_c, 0, 66, 0
2, 7234560, Note_on_c, 0, 69, 100
2, 7234680, Note_on_c, 0, 69, 0
2, 7234680, Note_on_c, 0, 67, 100
2, 7234800, Note_on_c, 0, 67, 0
2, 7234800, Note_on_c, 0, 71, 100
2, 7234920, Note_on_c, 0, 71, 0
2, 7234920, Note_on_c, 0, 74, 100
2, 7235040, Note_on_c, 0, 74, 0
2, 7235040, Note_on_c, 0, 78, 100
2, 7235160, Note_on_c, 0, 78, 0
2, 7235160, Note_on_c, 0, 76, 100
2, 7235280, Note_on_c, 0, 76, 0
2, 7235280, Note_on_c, 0, 69, 100
2, 7235640, Note_on_c, 0, 69, 0
2, 7235640, Note_on_c, 0, 67, 100
2, 7235760, Note_on_c, 0, 67, 0
2, 7235760, Note_on_c, 0, 66, 100
2, 7235880, Note_on_c, 0, 66, 0
2, 7235880, Note_on_c, 0, 64, 100
2, 7236000, Note_on_c, 0, 64, 0
2, 7236000, Note_on_c, 0, 67, 100
2, 7236120, Note_on_c, 0, 67, 0
2, 7236120, Note_on_c, 0, 66, 100
2, 7236240, Note_on_c, 0, 66, 0
2, 7236240, Note_on_c, 0, 64, 100
2, 7236360, Note_on_c, 0, 64, 0
2, 7236360, Note_on_c, 0, 66, 100
2, 7236480, Note_on_c, 0, 66, 0
2, 7236480, Note_on_c, 0, 64, 100
2, 7236600, Note_on_c, 0, 64, 0
2, 7236600, Note_on_c, 0, 66, 100
2, 7236720, Note_on_c, 0, 66, 0
2, 7236720, Note_on_c, 0, 69, 100
2, 7236840, Note_on_c, 0, 69, 0
2, 7236840, Note_on_c, 0, 74, 100
2, 7236960, Note_on_c, 0, 74, 0
2, 7236960, Note_on_c, 0, 73, 100
2, 7237080, Note_on_c, 0, 73, 0
2, 7237080, Note_on_c, 0, 74, 100
2, 7237200, Note_on_c, 0, 74, 0
2, 7237200, Note_on_c, 0, 78, 100
2, 7237320, Note_on_c, 0, 78, 0
2, 7237320, Note_on_c, 0, 81, 100
2, 7237440, Note_on_c, 0, 81, 0
2, 7237440, Note_on_c, 0, 72, 100
2, 7237560, Note_on_c, 0, 72, 0
2, 7237560, Note_on_c, 0, 71, 100
2, 7237680, Note_on_c, 0, 71, 0
2, 7237680, Note_on_c, 0, 79, 100
2, 7237800, Note_on_c, 0, 79, 0
2, 7237800, Note_on_c, 0, 69, 100
2, 7237920, Note_on_c, 0, 69, 0
2, 7237920, Note_on_c, 0, 78, 100
2, 7238040, Note_on_c, 0, 78, 0
2, 7238040, Note_on_c, 0, 67, 100
2, 7238160, Note_on_c, 0, 67, 0
2, 7238160, Note_on_c, 0, 76, 100
2, 7238280, Note_on_c, 0, 76, 0
2, 7238280, Note_on_c, 0, 65, 100
2, 7238400, Note_on_c, 0, 65, 0
2, 7238400, Note_on_c, 0, 74, 100
2, 7238520, Note_on_c, 0, 74, 0
2, 7238520, Note_on_c, 0, 64, 100
2, 7238640, Note_on_c, 0, 64, 0
2, 7238640, Note_on_c, 0, 72, 100
2, 7238760, Note_on_c, 0, 72, 0
2, 7238760, Note_on_c, 0, 62, 100
2, 7238880, Note_on_c, 0, 62, 0
2, 7238880, Note_on_c, 0, 71, 100
2, 7239000, Note_on_c, 0, 71, 0
2, 7239000, Note_on_c, 0, 72, 100
2, 7239120, Note_on_c, 0, 72, 0
2, 7239120, Note_on_c, 0, 64, 100
2, 7239240, Note_on_c, 0, 64, 0
2, 7239240, Note_on_c, 0, 71, 100
2, 7239360, Note_on_c, 0, 71, 0
2, 7239360, Note_on_c, 0, 62, 100
2, 7239480, Note_on_c, 0, 62, 0
2, 7239480, Note_on_c, 0, 69, 100
2, 7239600, Note_on_c, 0, 69, 0
2, 7239600, Note_on_c, 0, 60, 100
2, 7239720, Note_on_c, 0, 60, 0
2, 7239720, Note_on_c, 0, 67, 100
2, 7239840, Note_on_c, 0, 67, 0
2, 7239840, Note_on_c, 0, 59, 100
2, 7239960, Note_on_c, 0, 59, 0
2, 7239960, Note_on_c, 0, 66, 100
2, 7240080, Note_on_c, 0, 66, 0
2, 7240080, Note_on_c, 0, 57, 100
2, 7240200, Note_on_c, 0, 57, 0
2, 7240200, Note_on_c, 0, 64, 100
2, 7240320, Note_on_c, 0, 64, 0
2, 7240320, Note_on_c, 0, 55, 100
2, 7240440, Note_on_c, 0, 55, 0
2, 7240440, Note_on_c, 0, 57, 100
2, 7240560, Note_on_c, 0, 57, 0
2, 7240560, Note_on_c, 0, 66, 100
2, 7240680, Note_on_c, 0, 66, 0
2, 7240680, Note_on_c, 0, 55, 100
2, 7240800, Note_on_c, 0, 55, 0
2, 7240800, Note_on_c, 0, 64, 100
2, 7240920, Note_on_c, 0, 64, 0
2, 7240920, Note_on_c, 0, 54, 100
2, 7241040, Note_on_c, 0, 54, 0
2, 7241040, Note_on_c, 0, 62, 100
2, 7241160, Note_on_c, 0, 62, 0
2, 7241160, Note_on_c, 0, 52, 100
2, 7241280, Note_on_c, 0, 52, 0
2, 7241280, Note_on_c, 0, 60, 100
2, 7241400, Note_on_c, 0, 60, 0
2, 7241400, Note_on_c, 0, 50, 100
2, 7241520, Note_on_c, 0, 50, 0
2, 7241520, Note_on_c, 0, 59, 100
2, 7241640, Note_on_c, 0, 59, 0
2, 7241640, Note_on_c, 0, 48, 100
2, 7241760, Note_on_c, 0, 48, 0
2, 7241760, Note_on_c, 0, 57, 100
2, 7241880, Note_on_c, 0, 57, 0
2, 7241880, Note_on_c, 0, 47, 100
2, 7242000, Note_on_c, 0, 47, 0
2, 7242000, Note_on_c, 0, 45, 100
2, 7242120, Note_on_c, 0, 45, 0
2, 7242120, Note_on_c, 0, 47, 100
2, 7242240, Note_on_c, 0, 47, 0
2, 7242240, Note_on_c, 0, 45, 100
2, 7242360, Note_on_c, 0, 45, 0
2, 7242360, Note_on_c, 0, 47, 100
2, 7242480, Note_on_c, 0, 47, 0
2, 7242480, Note_on_c, 0, 50, 100
2, 7242600, Note_on_c, 0, 50, 0
2, 7242600, Note_on_c, 0, 55, 100
2, 7242720, Note_on_c, 0, 55, 0
2, 7242720, Note_on_c, 0, 54, 100
2, 7242840, Note_on_c, 0, 54, 0
2, 7242840, Note_on_c, 0, 55, 100
2, 7242960, Note_on_c, 0, 55, 0
2, 7242960, Note_on_c, 0, 74, 100
2, 7243440, Note_on_c, 0, 74, 0
2, 7243440, Note_on_c, 0, 83, 100
2, 7243560, Note_on_c, 0, 83, 0
2, 7243560, Note_on_c, 0, 72, 100
2, 7243680, Note_on_c, 0, 72, 0
2, 7243680, Note_on_c, 0, 81, 100
2, 7243800, Note_on_c, 0, 81, 0
2, 7243800, Note_on_c, 0, 71, 100
2, 7243920, Note_on_c, 0, 71, 0
2, 7243920, Note_on_c, 0, 79, 100
2, 7244040, Note_on_c, 0, 79, 0
2, 7244040, Note_on_c, 0, 69, 100
2, 7244160, Note_on_c, 0, 69, 0
2, 7244160, Note_on_c, 0, 78, 100
2, 7244280, Note_on_c, 0, 78, 0
2, 7244280, Note_on_c, 0, 67, 100
2, 7244400, Note_on_c, 0, 67, 0
2, 7244400, Note_on_c, 0, 76, 100
2, 7244520, Note_on_c, 0, 76, 0
2, 7244520, Note_on_c, 0, 66, 100
2, 7244640, Note_on_c, 0, 66, 0
2, 7244640, Note_on_c, 0, 74, 100
2, 7244760, Note_on_c, 0, 74, 0
2, 7244760, Note_on_c, 0, 64, 100
2, 7244880, Note_on_c, 0, 64, 0
2, 7244880, Note_on_c, 0, 74, 100
2, 7245000, Note_on_c, 0, 74, 0
2, 7245000, Note_on_c, 0, 73, 100
2, 7245120, Note_on_c, 0, 73, 0
2, 7245120, Note_on_c, 0, 71, 100
2, 7245240, Note_on_c, 0, 71, 0
2, 7245240, Note_on_c, 0, 73, 100
2, 7245360, Note_on_c, 0, 73, 0
2, 7245360, Note_on_c, 0, 76, 100
2, 7245480, Note_on_c, 0, 76, 0
2, 7245480, Note_on_c, 0, 81, 100
2, 7245840, Note_on_c, 0, 81, 0
2, 7245840, Note_on_c, 0, 79, 100
2, 7245900, Note_on_c, 0, 79, 0
2, 7245900, Note_on_c, 0, 81, 100
2, 7245960, Note_on_c, 0, 81, 0
2, 7245960, Note_on_c, 0, 71, 100
2, 7246320, Note_on_c, 0, 71, 0
2, 7246320, Note_on_c, 0, 79, 100
2, 7246440, Note_on_c, 0, 79, 0
2, 7246440, Note_on_c, 0, 69, 100
2, 7246560, Note_on_c, 0, 69, 0
2, 7246560, Note_on_c, 0, 78, 100
2, 7246680, Note_on_c, 0, 78, 0
2, 7246680, Note_on_c, 0, 67, 100
2, 7246800, Note_on_c, 0, 67, 0
2, 7246800, Note_on_c, 0, 76, 100
2, 7246920, Note_on_c, 0, 76, 0
2, 7246920, Note_on_c, 0, 66, 100
2, 7247040, Note_on_c, 0, 66, 0
2, 7247040, Note_on_c, 0, 74, 100
2, 7247160, Note_on_c, 0, 74, 0
2, 7247160, Note_on_c, 0, 64, 100
2, 7247280, Note_on_c, 0, 64, 0
2, 7247280, Note_on_c, 0, 73, 100
2, 7247400, Note_on_c, 0, 73, 0
2, 7247400, Note_on_c, 0, 62, 100
2, 7247520, Note_on_c, 0, 62, 0
2, 7247520, Note_on_c, 0, 71, 100
2, 7247640, Note_on_c, 0, 71, 0
2, 7247640, Note_on_c, 0, 61, 100
2, 7247760, Note_on_c, 0, 61, 0
2, 7247760, Note_on_c, 0, 71, 100
2, 7247880, Note_on_c, 0, 71, 0
2, 7247880, Note_on_c, 0, 69, 100
2, 7248000, Note_on_c, 0, 69, 0
2, 7248000, Note_on_c, 0, 68, 100
2, 7248120, Note_on_c, 0, 68, 0
2, 7248120, Note_on_c, 0, 69, 100
2, 7248240, Note_on_c, 0, 69, 0
2, 7248240, Note_on_c, 0, 73, 100
2, 7248360, Note_on_c, 0, 73, 0
2, 7248360, Note_on_c, 0, 76, 100
2, 7248720, Note_on_c, 0, 76, 0
2, 7248720, Note_on_c, 0, 74, 100
2, 7248780, Note_on_c, 0, 74, 0
2, 7248780, Note_on_c, 0, 76, 100
2, 7248840, Note_on_c, 0, 76, 0
2, 7248840, Note_on_c, 0, 74, 100
2, 7249320, Note_on_c, 0, 74, 0
2, 7249320, Note_on_c, 0, 76, 100
2, 7249440, Note_on_c, 0, 76, 0
2, 7249440, Note_on_c, 0, 73, 100
2, 7249560, Note_on_c, 0, 73, 0
2, 7249560, Note_on_c, 0, 74, 100
2, 7249680, Note_on_c, 0, 74, 0
2, 7249680, Note_on_c, 0, 71, 100
2, 7249800, Note_on_c, 0, 71, 0
2, 7249800, Note_on_c, 0, 72, 100
2, 7249920, Note_on_c, 0, 72, 0
2, 7249920, Note_on_c, 0, 69, 100
2, 7250040, Note_on_c, 0, 69, 0
2, 7250040, Note_on_c, 0, 71, 100
2, 7250160, Note_on_c, 0, 71, 0
2, 7250160, Note_on_c, 0, 67, 100
2, 7250280, Note_on_c, 0, 67, 0
2, 7250280, Note_on_c, 0, 69, 100
2, 7250400, Note_on_c, 0, 69, 0
2, 7250400, Note_on_c, 0, 66, 100
2, 7250520, Note_on_c, 0, 66, 0
2, 7250520, Note_on_c, 0, 67, 100
2, 7250640, Note_on_c, 0, 67, 0
2, 7250640, Note_on_c, 0, 76, 100
2, 7250760, Note_on_c, 0, 76, 0
2, 7250760, Note_on_c, 0, 66, 100
2, 7250880, Note_on_c, 0, 66, 0
2, 7250880, Note_on_c, 0, 74, 100
2, 7251000, Note_on_c, 0, 74, 0
2, 7251000, Note_on_c, 0, 64, 100
2, 7251120, Note_on_c, 0, 64, 0
2, 7251120, Note_on_c, 0, 73, 100
2, 7251240, Note_on_c, 0, 73, 0
2, 7251240, Note_on_c, 0, 74, 100
2, 7251360, Note_on_c, 0, 74, 0
2, 7251360, Note_on_c, 0, 73, 100
2, 7251390, Note_on_c, 0, 73, 0
2, 7251390, Note_on_c, 0, 71, 100
2, 7251480, Note_on_c, 0, 71, 0
2, 7251480, Note_on_c, 0, 73, 100
2, 7251600, Note_on_c, 0, 73, 0
2, 7251600, Note_on_c, 0, 71, 100
2, 7251630, Note_on_c, 0, 71, 0
2, 7251630, Note_on_c, 0, 69, 100
2, 7251720, Note_on_c, 0, 69, 0
2, 7251720, Note_on_c, 0, 71, 100
2, 7251840, Note_on_c, 0, 71, 0
2, 7251840, Note_on_c, 0, 79, 100
2, 7252080, Note_on_c, 0, 79, 0
2, 7252080, Note_on_c, 0, 78, 100
2, 7252440, Note_on_c, 0, 78, 0
2, 7252440, Note_on_c, 0, 76, 100
2, 7252500, Note_on_c, 0, 76, 0
2, 7252500, Note_on_c, 0, 78, 100
2, 7252560, Note_on_c, 0, 78, 0
2, 7252560, Note_on_c, 0, 74, 100
2, 7252680, Note_on_c, 0, 74, 0
2, 7252680, Note_on_c, 0, 71, 100
2, 7252800, Note_on_c, 0, 71, 0
2, 7252800, Note_on_c, 0, 67, 100
2, 7252920, Note_on_c, 0, 67, 0
2, 7252920, Note_on_c, 0, 69, 100
2, 7253040, Note_on_c, 0, 69, 0
2, 7253040, Note_on_c, 0, 66, 100
2, 7253160, Note_on_c, 0, 66, 0
2, 7253160, Note_on_c, 0, 67, 100
2, 7253280, Note_on_c, 0, 67, 0
2, 7253280, Note_on_c, 0, 76, 100
2, 7253400, Note_on_c, 0, 76, 0
2, 7253400, Note_on_c, 0, 66, 100
2, 7253520, Note_on_c, 0, 66, 0
2, 7253520, Note_on_c, 0, 64, 100
2, 7253640, Note_on_c, 0, 64, 0
2, 7253640, Note_on_c, 0, 66, 100
2, 7253760, Note_on_c, 0, 66, 0
2, 7253760, Note_on_c, 0, 64, 100
2, 7253880, Note_on_c, 0, 64, 0
2, 7253880, Note_on_c, 0, 66, 100
2, 7254000, Note_on_c, 0, 66, 0
2, 7254000, Note_on_c, 0, 69, 100
2, 7254120, Note_on_c, 0, 69, 0
2, 7254120, Note_on_c, 0, 74, 100
2, 7254240, Note_on_c, 0, 74, 0
2, 7254240, Note_on_c, 0, 73, 100
2, 7254360, Note_on_c, 0, 73, 0
2, 7254360, Note_on_c, 0, 74, 100
2, 7254480, Note_on_c, 0, 74, 0
2, 7254480, Note_on_c, 0, 81, 100
2, 7254960, Note_on_c, 0, 81, 0
2, 7254960, Note_on_c, 0, 78, 100
2, 7255080, Note_on_c, 0, 78, 0
2, 7255080, Note_on_c, 0, 79, 100
2, 7255200, Note_on_c, 0, 79, 0
2, 7255200, Note_on_c, 0, 76, 100
2, 7255320, Note_on_c, 0, 76, 0
2, 7255320, Note_on_c, 0, 78, 100
2, 7255440, Note_on_c, 0, 78, 0
2, 7255440, Note_on_c, 0, 74, 100
2, 7255560, Note_on_c, 0, 74, 0
2, 7255560, Note_on_c, 0, 76, 100
2, 7255680, Note_on_c, 0, 76, 0
2, 7255680, Note_on_c, 0, 72, 100
2, 7255800, Note_on_c, 0, 72, 0
2, 7255800, Note_on_c, 0, 74, 100
2, 7255920, Note_on_c, 0, 74, 0
2, 7255920, Note_on_c, 0, 71, 100
2, 7256040, Note_on_c, 0, 71, 0
2, 7256040, Note_on_c, 0, 72, 100
2, 7256160, Note_on_c, 0, 72, 0
2, 7256160, Note_on_c, 0, 69, 100
2, 7256280, Note_on_c, 0, 69, 0
2, 7256280, Note_on_c, 0, 71, 100
2, 7256400, Note_on_c, 0, 71, 0
2, 7256400, Note_on_c, 0, 67, 100
2, 7256520, Note_on_c, 0, 67, 0
2, 7256520, Note_on_c, 0, 69, 100
2, 7256640, Note_on_c, 0, 69, 0
2, 7256640, Note_on_c, 0, 66, 100
2, 7256760, Note_on_c, 0, 66, 0
2, 7256760, Note_on_c, 0, 67, 100
2, 7256880, Note_on_c, 0, 67, 0
2, 7256880, Note_on_c, 0, 64, 100
2, 7257000, Note_on_c, 0, 64, 0
2, 7257000, Note_on_c, 0, 66, 100
2, 7257120, Note_on_c, 0, 66, 0
2, 7257120, Note_on_c, 0, 63, 100
2, 7257240, Note_on_c, 0, 63, 0
2, 7257240, Note_on_c, 0, 64, 100
2, 7257360, Note_on_c, 0, 64, 0
2, 7257360, Note_on_c, 0, 60, 100
2, 7257480, Note_on_c, 0, 60, 0
2, 7257480, Note_on_c, 0, 62, 100
2, 7257600, Note_on_c, 0, 62, 0
2, 7257600, Note_on_c, 0, 59, 100
2, 7257720, Note_on_c, 0, 59, 0
2, 7257720, Note_on_c, 0, 60, 100
2, 7257840, Note_on_c, 0, 60, 0
2, 7257840, Note_on_c, 0, 57, 100
2, 7257960, Note_on_c, 0, 57, 0
2, 7257960, Note_on_c, 0, 59, 100
2, 7258080, Note_on_c, 0, 59, 0
2, 7258080, Note_on_c, 0, 56, 100
2, 7258200, Note_on_c, 0, 56, 0
2, 7258200, Note_on_c, 0, 57, 100
2, 7258320, Note_on_c, 0, 57, 0
2, 7258320, Note_on_c, 0, 54, 100
2, 7258440, Note_on_c, 0, 54, 0
2, 7258440, Note_on_c, 0, 55, 100
2, 7258560, Note_on_c, 0, 55, 0
2, 7258560, Note_on_c, 0, 52, 100
2, 7258680, Note_on_c, 0, 52, 0
2, 7258680, Note_on_c, 0, 53, 100
2, 7258800, Note_on_c, 0, 53, 0
2, 7258800, Note_on_c, 0, 51, 100
2, 7258920, Note_on_c, 0, 51, 0
2, 7258920, Note_on_c, 0, 52, 100
2, 7259040, Note_on_c, 0, 52, 0
2, 7259040, Note_on_c, 0, 49, 100
2, 7259160, Note_on_c, 0, 49, 0
2, 7259160, Note_on_c, 0, 51, 100
2, 7259280, Note_on_c, 0, 51, 0
2, 7259280, Note_on_c, 0, 49, 100
2, 7259400, Note_on_c, 0, 49, 0
2, 7259400, Note_on_c, 0, 51, 100
2, 7259520, Note_on_c, 0, 51, 0
2, 7259520, Note_on_c, 0, 49, 100
2, 7259640, Note_on_c, 0, 49, 0
2, 7259640, Note_on_c, 0, 51, 100
2, 7259760, Note_on_c, 0, 51, 0
2, 7259760, Note_on_c, 0, 54, 100
2, 7260360, Note_on_c, 0, 54, 0
2, 7260360, Note_on_c, 0, 59, 100
2, 7260480, Note_on_c, 0, 59, 0
2, 7260480, Note_on_c, 0, 57, 100
2, 7260600, Note_on_c, 0, 57, 0
2, 7260600, Note_on_c, 0, 55, 100
2, 7260720, Note_on_c, 0, 55, 0
2, 7260720, Note_on_c, 0, 59, 100
2, 7260840, Note_on_c, 0, 59, 0
2, 7260840, Note_on_c, 0, 57, 100
2, 7260960, Note_on_c, 0, 57, 0
2, 7260960, Note_on_c, 0, 60, 100
2, 7261080, Note_on_c, 0, 60, 0
2, 7261080, Note_on_c, 0, 59, 100
2, 7261200, Note_on_c, 0, 59, 0
2, 7261200, Note_on_c, 0, 63, 100
2, 7261320, Note_on_c, 0, 63, 0
2, 7261320, Note_on_c, 0, 61, 100
2, 7261440, Note_on_c, 0, 61, 0
2, 7261440, Note_on_c, 0, 64, 100
2, 7261560, Note_on_c, 0, 64, 0
2, 7261560, Note_on_c, 0, 63, 100
2, 7261680, Note_on_c, 0, 63, 0
2, 7261680, Note_on_c, 0, 66, 100
2, 7261800, Note_on_c, 0, 66, 0
2, 7261800, Note_on_c, 0, 64, 100
2, 7261920, Note_on_c, 0, 64, 0
2, 7261920, Note_on_c, 0, 67, 100
2, 7262040, Note_on_c, 0, 67, 0
2, 7262040, Note_on_c, 0, 66, 100
2, 7262160, Note_on_c, 0, 66, 0
2, 7262160, Note_on_c, 0, 69, 100
2, 7262280, Note_on_c, 0, 69, 0
2, 7262280, Note_on_c, 0, 67, 100
2, 7262400, Note_on_c, 0, 67, 0
2, 7262400, Note_on_c, 0, 71, 100
2, 7262520, Note_on_c, 0, 71, 0
2, 7262520, Note_on_c, 0, 69, 100
2, 7262640, Note_on_c, 0, 69, 0
2, 7262640, Note_on_c, 0, 72, 100
2, 7262760, Note_on_c, 0, 72, 0
2, 7262760, Note_on_c, 0, 71, 100
2, 7262880, Note_on_c, 0, 71, 0
2, 7262880, Note_on_c, 0, 74, 100
2, 7263000, Note_on_c, 0, 74, 0
2, 7263000, Note_on_c, 0, 72, 100
2, 7263120, Note_on_c, 0, 72, 0
2, 7263120, Note_on_c, 0, 76, 100
2, 7263240, Note_on_c, 0, 76, 0
2, 7263240, Note_on_c, 0, 75, 100
2, 7263360, Note_on_c, 0, 75, 0
2, 7263360, Note_on_c, 0, 78, 100
2, 7263480, Note_on_c, 0, 78, 0
2, 7263480, Note_on_c, 0, 76, 100
2, 7263600, Note_on_c, 0, 76, 0
2, 7263600, Note_on_c, 0, 79, 100
2, 7263720, Note_on_c, 0, 79, 0
2, 7263720, Note_on_c, 0, 78, 100
2, 7263840, Note_on_c, 0, 78, 0
2, 7263840, Note_on_c, 0, 81, 100
2, 7263960, Note_on_c, 0, 81, 0
2, 7263960, Note_on_c, 0, 79, 100
2, 7264080, Note_on_c, 0, 79, 0
2, 7264080, Note_on_c, 0, 83, 100
2, 7264200, Note_on_c, 0, 83, 0
2, 7264200, Note_on_c, 0, 81, 100
2, 7264320, Note_on_c, 0, 81, 0
2, 7264320, Note_on_c, 0, 84, 100
2, 7264440, Note_on_c, 0, 84, 0
2, 7264440, Note_on_c, 0, 83, 100
2, 7264560, Note_on_c, 0, 83, 0
2, 7264560, Note_on_c, 0, 79, 100
2, 7264680, Note_on_c, 0, 79, 0
2, 7264680, Note_on_c, 0, 81, 100
2, 7264800, Note_on_c, 0, 81, 0
2, 7264800, Note_on_c, 0, 78, 100
2, 7264920, Note_on_c, 0, 78, 0
2, 7264920, Note_on_c, 0, 79, 100
2, 7265040, Note_on_c, 0, 79, 0
2, 7265040, Note_on_c, 0, 76, 100
2, 7265160, Note_on_c, 0, 76, 0
2, 7265160, Note_on_c, 0, 78, 100
2, 7265280, Note_on_c, 0, 78, 0
2, 7265280, Note_on_c, 0, 75, 100
2, 7265400, Note_on_c, 0, 75, 0
2, 7265400, Note_on_c, 0, 76, 100
2, 7265520, Note_on_c, 0, 76, 0
2, 7265520, Note_on_c, 0, 72, 100
2, 7265640, Note_on_c, 0, 72, 0
2, 7265640, Note_on_c, 0, 71, 100
2, 7265760, Note_on_c, 0, 71, 0
2, 7265760, Note_on_c, 0, 69, 100
2, 7265880, Note_on_c, 0, 69, 0
2, 7265880, Note_on_c, 0, 67, 100
2, 7266000, Note_on_c, 0, 67, 0
2, 7266000, Note_on_c, 0, 66, 100
2, 7266120, Note_on_c, 0, 66, 0
2, 7266120, Note_on_c, 0, 64, 100
2, 7266240, Note_on_c, 0, 64, 0
2, 7266240, Note_on_c, 0, 76, 100
2, 7266600, Note_on_c, 0, 76, 0
2, 7266600, Note_on_c, 0, 71, 100
2, 7266720, Note_on_c, 0, 71, 0
2, 7266720, Note_on_c, 0, 74, 100
2, 7266840, Note_on_c, 0, 74, 0
2, 7266840, Note_on_c, 0, 72, 100
2, 7266960, Note_on_c, 0, 72, 0
2, 7266960, Note_on_c, 0, 71, 100
2, 7267080, Note_on_c, 0, 71, 0
2, 7267080, Note_on_c, 0, 69, 100
2, 7267200, Note_on_c, 0, 69, 0
2, 7267200, Note_on_c, 0, 72, 100
2, 7267320, Note_on_c, 0, 72, 0
2, 7267320, Note_on_c, 0, 71, 100
2, 7267440, Note_on_c, 0, 71, 0
2, 7267440, Note_on_c, 0, 74, 100
2, 7267560, Note_on_c, 0, 74, 0
2, 7267560, Note_on_c, 0, 72, 100
2, 7267680, Note_on_c, 0, 72, 0
2, 7267680, Note_on_c, 0, 76, 100
2, 7267800, Note_on_c, 0, 76, 0
2, 7267800, Note_on_c, 0, 74, 100
2, 7267920, Note_on_c, 0, 74, 0
2, 7267920, Note_on_c, 0, 71, 100
2, 7268040, Note_on_c, 0, 71, 0
2, 7268040, Note_on_c, 0, 69, 100
2, 7268160, Note_on_c, 0, 69, 0
2, 7268160, Note_on_c, 0, 72, 100
2, 7268280, Note_on_c, 0, 72, 0
2, 7268280, Note_on_c, 0, 71, 100
2, 7268400, Note_on_c, 0, 71, 0
2, 7268400, Note_on_c, 0, 69, 100
2, 7268520, Note_on_c, 0, 69, 0
2, 7268520, Note_on_c, 0, 68, 100
2, 7268640, Note_on_c, 0, 68, 0
2, 7268640, Note_on_c, 0, 71, 100
2, 7268760, Note_on_c, 0, 71, 0
2, 7268760, Note_on_c, 0, 69, 100
2, 7268880, Note_on_c, 0, 69, 0
2, 7268880, Note_on_c, 0, 72, 100
2, 7269000, Note_on_c, 0, 72, 0
2, 7269000, Note_on_c, 0, 71, 100
2, 7269120, Note_on_c, 0, 71, 0
2, 7269120, Note_on_c, 0, 74, 100
2, 7269240, Note_on_c, 0, 74, 0
2, 7269240, Note_on_c, 0, 72, 100
2, 7269360, Note_on_c, 0, 72, 0
2, 7269360, Note_on_c, 0, 69, 100
2, 7269480, Note_on_c, 0, 69, 0
2, 7269480, Note_on_c, 0, 67, 100
2, 7269600, Note_on_c, 0, 67, 0
2, 7269600, Note_on_c, 0, 71, 100
2, 7269720, Note_on_c, 0, 71, 0
2, 7269720, Note_on_c, 0, 69, 100
2, 7269840, Note_on_c, 0, 69, 0
2, 7269840, Note_on_c, 0, 78, 100
2, 7269960, Note_on_c, 0, 78, 0
2, 7269960, Note_on_c, 0, 79, 100
2, 7270080, Note_on_c, 0, 79, 0
2, 7270080, Note_on_c, 0, 76, 100
2, 7270200, Note_on_c, 0, 76, 0
2, 7270200, Note_on_c, 0, 78, 100
2, 7270320, Note_on_c, 0, 78, 0
2, 7270320, Note_on_c, 0, 74, 100
2, 7270440, Note_on_c, 0, 74, 0
2, 7270440, Note_on_c, 0, 76, 100
2, 7270560, Note_on_c, 0, 76, 0
2, 7270560, Note_on_c, 0, 84, 100
2, 7270800, Note_on_c, 0, 84, 0
2, 7270800, Note_on_c, 0, 83, 100
2, 7271100, Note_on_c, 0, 83, 0
2, 7271100, Note_on_c, 0, 81, 100
2, 7271160, Note_on_c, 0, 81, 0
2, 7271160, Note_on_c, 0, 79, 100
2, 7271220, Note_on_c, 0, 79, 0
2, 7271220, Note_on_c, 0, 78, 100
2, 7271280, Note_on_c, 0, 78, 0
2, 7271280, Note_on_c, 0, 79, 100
2, 7271400, Note_on_c, 0, 79, 0
2, 7271400, Note_on_c, 0, 81, 100
2, 7271520, Note_on_c, 0, 81, 0
2, 7271520, Note_on_c, 0, 78, 100
2, 7271640, Note_on_c, 0, 78, 0
2, 7271640, Note_on_c, 0, 76, 100
2, 7271760, Note_on_c, 0, 76, 0
2, 7271760, Note_on_c, 0, 74, 100
2, 7271880, Note_on_c, 0, 74, 0
2, 7271880, Note_on_c, 0, 71, 100
2, 7272360, Note_on_c, 0, 71, 0
2, 7272360, Note_on_c, 0, 72, 100
2, 7272480, Note_on_c, 0, 72, 0
2, 7272480, Note_on_c, 0, 69, 100
2, 7272600, Note_on_c, 0, 69, 0
2, 7272600, Note_on_c, 0, 71, 100
2, 7272720, Note_on_c, 0, 71, 0
2, 7272720, Note_on_c, 0, 79, 100
2, 7272840, Note_on_c, 0, 79, 0
2, 7272840, Note_on_c, 0, 69, 100
2, 7272960, Note_on_c, 0, 69, 0
2, 7272960, Note_on_c, 0, 77, 100
2, 7273080, Note_on_c, 0, 77, 0
2, 7273080, Note_on_c, 0, 67, 100
2, 7273200, Note_on_c, 0, 67, 0
2, 7273200, Note_on_c, 0, 76, 100
2, 7273320, Note_on_c, 0, 76, 0
2, 7273320, Note_on_c, 0, 65, 100
2, 7273440, Note_on_c, 0, 65, 0
2, 7273440, Note_on_c, 0, 74, 100
2, 7273560, Note_on_c, 0, 74, 0
2, 7273560, Note_on_c, 0, 64, 100
2, 7273680, Note_on_c, 0, 64, 0
2, 7273680, Note_on_c, 0, 67, 100
2, 7273980, Note_on_c, 0, 67, 0
2, 7273980, Note_on_c, 0, 69, 100
2, 7274040, Note_on_c, 0, 69, 0
2, 7274040, Note_on_c, 0, 71, 100
2, 7274100, Note_on_c, 0, 71, 0
2, 7274100, Note_on_c, 0, 72, 100
2, 7274160, Note_on_c, 0, 72, 0
2, 7274160, Note_on_c, 0, 69, 100
2, 7274280, Note_on_c, 0, 69, 0
2, 7274280, Note_on_c, 0, 71, 100
2, 7274400, Note_on_c, 0, 71, 0
2, 7274400, Note_on_c, 0, 67, 100
2, 7274520, Note_on_c, 0, 67, 0
2, 7274520, Note_on_c, 0, 69, 100
2, 7274640, Note_on_c, 0, 69, 0
2, 7274640, Note_on_c, 0, 66, 100
2, 7274760, Note_on_c, 0, 66, 0
2, 7274760, Note_on_c, 0, 67, 100
2, 7274880, Note_on_c, 0, 67, 0
2, 7274880, Note_on_c, 0, 64, 100
2, 7275000, Note_on_c, 0, 64, 0
2, 7275000, Note_on_c, 0, 66, 100
2, 7275120, Note_on_c, 0, 66, 0
2, 7275120, Note_on_c, 0, 76, 100
2, 7275240, Note_on_c, 0, 76, 0
2, 7275240, Note_on_c, 0, 74, 100
2, 7275360, Note_on_c, 0, 74, 0
2, 7275360, Note_on_c, 0, 76, 100
2, 7275660, Note_on_c, 0, 76, 0
2, 7275660, Note_on_c, 0, 78, 100
2, 7275720, Note_on_c, 0, 78, 0
2, 7275720, Note_on_c, 0, 79, 100
2, 7275780, Note_on_c, 0, 79, 0
2, 7275780, Note_on_c, 0, 78, 100
2, 7275840, Note_on_c, 0, 78, 0
2, 7275840, Note_on_c, 0, 76, 100
2, 7275900, Note_on_c, 0, 76, 0
2, 7275900, Note_on_c, 0, 74, 100
2, 7275960, Note_on_c, 0, 74, 0
2, 7275960, Note_on_c, 0, 72, 100
2, 7276020, Note_on_c, 0, 72, 0
2, 7276020, Note_on_c, 0, 71, 100
2, 7276080, Note_on_c, 0, 71, 0
2, 7276080, Note_on_c, 0, 79, 100
2, 7276200, Note_on_c, 0, 79, 0
2, 7276200, Note_on_c, 0, 69, 100
2, 7276320, Note_on_c, 0, 69, 0
2, 7276320, Note_on_c, 0, 78, 100
2, 7276440, Note_on_c, 0, 78, 0
2, 7276440, Note_on_c, 0, 67, 100
2, 7276560, Note_on_c, 0, 67, 0
2, 7276560, Note_on_c, 0, 66, 100
2, 7276680, Note_on_c, 0, 66, 0
2, 7276680, Note_on_c, 0, 67, 100
2, 7276800, Note_on_c, 0, 67, 0
2, 7276800, Note_on_c, 0, 66, 100
2, 7276920, Note_on_c, 0, 66, 0
2, 7276920, Note_on_c, 0, 67, 100
2, 7277040, Note_on_c, 0, 67, 0
2, 7277040, Note_on_c, 0, 71, 100
2, 7277160, Note_on_c, 0, 71, 0
2, 7277160, Note_on_c, 0, 74, 100
2, 7277280, Note_on_c, 0, 74, 0
2, 7277280, Note_on_c, 0, 78, 100
2, 7277400, Note_on_c, 0, 78, 0
2, 7277400, Note_on_c, 0, 79, 100
2, 7277520, Note_on_c, 0, 79, 0
2, 7277520, Note_on_c, 0, 81, 100
2, 7278000, Note_on_c, 0, 81, 0
2, 7278000, Note_on_c, 0, 78, 100
2, 7278120, Note_on_c, 0, 78, 0
2, 7278120, Note_on_c, 0, 79, 100
2, 7278240, Note_on_c, 0, 79, 0
2, 7278240, Note_on_c, 0, 76, 100
2, 7278360, Note_on_c, 0, 76, 0
2, 7278360, Note_on_c, 0, 78, 100
2, 7278480, Note_on_c, 0, 78, 0
2, 7278480, Note_on_c, 0, 74, 100
2, 7278600, Note_on_c, 0, 74, 0
2, 7278600, Note_on_c, 0, 76, 100
2, 7278720, Note_on_c, 0, 76, 0
2, 7278720, Note_on_c, 0, 72, 100
2, 7278840, Note_on_c, 0, 72, 0
2, 7278840, Note_on_c, 0, 74, 100
2, 7278960, Note_on_c, 0, 74, 0
2, 7278960, Note_on_c, 0, 71, 100
2, 7279080, Note_on_c, 0, 71, 0
2, 7279080, Note_on_c, 0, 72, 100
2, 7279200, Note_on_c, 0, 72, 0
2, 7279200, Note_on_c, 0, 69, 100
2, 7279320, Note_on_c, 0, 69, 0
2, 7279320, Note_on_c, 0, 71, 100
2, 7279440, Note_on_c, 0, 71, 0
2, 7279440, Note_on_c, 0, 67, 100
2, 7279560, Note_on_c, 0, 67, 0
2, 7279560, Note_on_c, 0, 69, 100
2, 7279680, Note_on_c, 0, 69, 0
2, 7279680, Note_on_c, 0, 66, 100
2, 7279800, Note_on_c, 0, 66, 0
2, 7279800, Note_on_c, 0, 67, 100
2, 7279920, Note_on_c, 0, 67, 0
2, 7279920, Note_on_c, 0, 64, 100
2, 7280040, Note_on_c, 0, 64, 0
2, 7280040, Note_on_c, 0, 66, 100
2, 7280160, Note_on_c, 0, 66, 0
2, 7280160, Note_on_c, 0, 63, 100
2, 7280280, Note_on_c, 0, 63, 0
2, 7280280, Note_on_c, 0, 64, 100
2, 7280400, Note_on_c, 0, 64, 0
2, 7280400, Note_on_c, 0, 60, 100
2, 7280520, Note_on_c, 0, 60, 0
2, 7280520, Note_on_c, 0, 62, 100
2, 7280640, Note_on_c, 0, 62, 0
2, 7280640, Note_on_c, 0, 59, 100
2, 7280760, Note_on_c, 0, 59, 0
2, 7280760, Note_on_c, 0, 60, 100
2, 7280880, Note_on_c, 0, 60, 0
2, 7280880, Note_on_c, 0, 57, 100
2, 7281000, Note_on_c, 0, 57, 0
2, 7281000, Note_on_c, 0, 59, 100
2, 7281120, Note_on_c, 0, 59, 0
2, 7281120, Note_on_c, 0, 56, 100
2, 7281240, Note_on_c, 0, 56, 0
2, 7281240, Note_on_c, 0, 57, 100
2, 7281360, Note_on_c, 0, 57, 0
2, 7281360, Note_on_c, 0, 54, 100
2, 7281480, Note_on_c, 0, 54, 0
2, 7281480, Note_on_c, 0, 55, 100
2, 7281600, Note_on_c, 0, 55, 0
2, 7281600, Note_on_c, 0, 52, 100
2, 7281720, Note_on_c, 0, 52, 0
2, 7281720, Note_on_c, 0, 53, 100
2, 7281840, Note_on_c, 0, 53, 0
2, 7281840, Note_on_c, 0, 51, 100
2, 7281960, Note_on_c, 0, 51, 0
2, 7281960, Note_on_c, 0, 52, 100
2, 7282080, Note_on_c, 0, 52, 0
2, 7282080, Note_on_c, 0, 49, 100
2, 7282200, Note_on_c, 0, 49, 0
2, 7282200, Note_on_c, 0, 51, 100
2, 7282320, Note_on_c, 0, 51, 0
2, 7282320, Note_on_c, 0, 49, 100
2, 7282440, Note_on_c, 0, 49, 0
2, 7282440, Note_on_c, 0, 51, 100
2, 7282560, Note_on_c, 0, 51, 0
2, 7282560, Note_on_c, 0, 49, 100
2, 7282680, Note_on_c, 0, 49, 0
2, 7282680, Note_on_c, 0, 51, 100
2, 7282800, Note_on_c, 0, 51, 0
2, 7282800, Note_on_c, 0, 54, 100
2, 7283400, Note_on_c, 0, 54, 0
2, 7283400, Note_on_c, 0, 59, 100
2, 7283520, Note_on_c, 0, 59, 0
2, 7283520, Note_on_c, 0, 57, 100
2, 7283640, Note_on_c, 0, 57, 0
2, 7283640, Note_on_c, 0, 55, 100
2, 7283760, Note_on_c, 0, 55, 0
2, 7283760, Note_on_c, 0, 59, 100
2, 7283880, Note_on_c, 0, 59, 0
2, 7283880, Note_on_c, 0, 57, 100
2, 7284000, Note_on_c, 0, 57, 0
2, 7284000, Note_on_c, 0, 60, 100
2, 7284120, Note_on_c, 0, 60, 0
2, 7284120, Note_on_c, 0, 59, 100
2, 7284240, Note_on_c, 0, 59, 0
2, 7284240, Note_on_c, 0, 63, 100
2, 7284360, Note_on_c, 0, 63, 0
2, 7284360, Note_on_c, 0, 61, 100
2, 7284480, Note_on_c, 0, 61, 0
2, 7284480, Note_on_c, 0, 64, 100
2, 7284600, Note_on_c, 0, 64, 0
2, 7284600, Note_on_c, 0, 63, 100
2, 7284720, Note_on_c, 0, 63, 0
2, 7284720, Note_on_c, 0, 66, 100
2, 7284840, Note_on_c, 0, 66, 0
2, 7284840, Note_on_c, 0, 64, 100
2, 7284960, Note_on_c, 0, 64, 0
2, 7284960, Note_on_c, 0, 67, 100
2, 7285080, Note_on_c, 0, 67, 0
2, 7285080, Note_on_c, 0, 66, 100
2, 7285200, Note_on_c, 0, 66, 0
2, 7285200, Note_on_c, 0, 69, 100
2, 7285320, Note_on_c, 0, 69, 0
2, 7285320, Note_on_c, 0, 67, 100
2, 7285440, Note_on_c, 0, 67, 0
2, 7285440, Note_on_c, 0, 71, 100
2, 7285560, Note_on_c, 0, 71, 0
2, 7285560, Note_on_c, 0, 69, 100
2, 7285680, Note_on_c, 0, 69, 0
2, 7285680, Note_on_c, 0, 72, 100
2, 7285800, Note_on_c, 0, 72, 0
2, 7285800, Note_on_c, 0, 71, 100
2, 7285920, Note_on_c, 0, 71, 0
2, 7285920, Note_on_c, 0, 74, 100
2, 7286040, Note_on_c, 0, 74, 0
2, 7286040, Note_on_c, 0, 72, 100
2, 7286160, Note_on_c, 0, 72, 0
2, 7286160, Note_on_c, 0, 76, 100
2, 7286280, Note_on_c, 0, 76, 0
2, 7286280, Note_on_c, 0, 75, 100
2, 7286400, Note_on_c, 0, 75, 0
2, 7286400, Note_on_c, 0, 78, 100
2, 7286520, Note_on_c, 0, 78, 0
2, 7286520, Note_on_c, 0, 76, 100
2, 7286640, Note_on_c, 0, 76, 0
2, 7286640, Note_on_c, 0, 79, 100
2, 7286760, Note_on_c, 0, 79, 0
2, 7286760, Note_on_c, 0, 78, 100
2, 7286880, Note_on_c, 0, 78, 0
2, 7286880, Note_on_c, 0, 81, 100
2, 7287000, Note_on_c, 0, 81, 0
2, 7287000, Note_on_c, 0, 79, 100
2, 7287120, Note_on_c, 0, 79, 0
2, 7287120, Note_on_c, 0, 83, 100
2, 7287240, Note_on_c, 0, 83, 0
2, 7287240, Note_on_c, 0, 81, 100
2, 7287360, Note_on_c, 0, 81, 0
2, 7287360, Note_on_c, 0, 84, 100
2, 7287480, Note_on_c, 0, 84, 0
2, 7287480, Note_on_c, 0, 83, 100
2, 7287600, Note_on_c, 0, 83, 0
2, 7287600, Note_on_c, 0, 79, 100
2, 7287720, Note_on_c, 0, 79, 0
2, 7287720, Note_on_c, 0, 81, 100
2, 7287840, Note_on_c, 0, 81, 0
2, 7287840, Note_on_c, 0, 78, 100
2, 7287960, Note_on_c, 0, 78, 0
2, 7287960, Note_on_c, 0, 79, 100
2, 7288080, Note_on_c, 0, 79, 0
2, 7288080, Note_on_c, 0, 76, 100
2, 7288200, Note_on_c, 0, 76, 0
2, 7288200, Note_on_c, 0, 78, 100
2, 7288320, Note_on_c, 0, 78, 0
2, 7288320, Note_on_c, 0, 75, 100
2, 7288440, Note_on_c, 0, 75, 0
2, 7288440, Note_on_c, 0, 76, 100
2, 7288560, Note_on_c, 0, 76, 0
2, 7288560, Note_on_c, 0, 72, 100
2, 7288680, Note_on_c, 0, 72, 0
2, 7288680, Note_on_c, 0, 71, 100
2, 7288800, Note_on_c, 0, 71, 0
2, 7288800, Note_on_c, 0, 69, 100
2, 7288920, Note_on_c, 0, 69, 0
2, 7288920, Note_on_c, 0, 67, 100
2, 7289040, Note_on_c, 0, 67, 0
2, 7289040, Note_on_c, 0, 66, 100
2, 7289160, Note_on_c, 0, 66, 0
2, 7289160, Note_on_c, 0, 64, 100
2, 7289280, Note_on_c, 0, 64, 0
2, 7289280, Note_on_c, 0, 76, 100
2, 7289640, Note_on_c, 0, 76, 0
2, 7289640, Note_on_c, 0, 71, 100
2, 7289760, Note_on_c, 0, 71, 0
2, 7289760, Note_on_c, 0, 74, 100
2, 7289880, Note_on_c, 0, 74, 0
2, 7289880, Note_on_c, 0, 72, 100
2, 7290000, Note_on_c, 0, 72, 0
2, 7290000, Note_on_c, 0, 71, 100
2, 7290120, Note_on_c, 0, 71, 0
2, 7290120, Note_on_c, 0, 69, 100
2, 7290240, Note_on_c, 0, 69, 0
2, 7290240, Note_on_c, 0, 72, 100
2, 7290360, Note_on_c, 0, 72, 0
2, 7290360, Note_on_c, 0, 71, 100
2, 7290480, Note_on_c, 0, 71, 0
2, 7290480, Note_on_c, 0, 74, 100
2, 7290600, Note_on_c, 0, 74, 0
2, 7290600, Note_on_c, 0, 72, 100
2, 7290720, Note_on_c, 0, 72, 0
2, 7290720, Note_on_c, 0, 76, 100
2, 7290840, Note_on_c, 0, 76, 0
2, 7290840, Note_on_c, 0, 74, 100
2, 7290960, Note_on_c, 0, 74, 0
2, 7290960, Note_on_c, 0, 71, 100
2, 7291080, Note_on_c, 0, 71, 0
2, 7291080, Note_on_c, 0, 69, 100
2, 7291200, Note_on_c, 0, 69, 0
2, 7291200, Note_on_c, 0, 72, 100
2, 7291320, Note_on_c, 0, 72, 0
2, 7291320, Note_on_c, 0, 71, 100
2, 7291440, Note_on_c, 0, 71, 0
2, 7291440, Note_on_c, 0, 69, 100
2, 7291560, Note_on_c, 0, 69, 0
2, 7291560, Note_on_c, 0, 68, 100
2, 7291680, Note_on_c, 0, 68, 0
2, 7291680, Note_on_c, 0, 71, 100
2, 7291800, Note_on_c, 0, 71, 0
2, 7291800, Note_on_c, 0, 69, 100
2, 7291920, Note_on_c, 0, 69, 0
2, 7291920, Note_on_c, 0, 72, 100
2, 7292040, Note_on_c, 0, 72, 0
2, 7292040, Note_on_c, 0, 71, 100
2, 7292160, Note_on_c, 0, 71, 0
2, 7292160, Note_on_c, 0, 74, 100
2, 7292280, Note_on_c, 0, 74, 0
2, 7292280, Note_on_c, 0, 72, 100
2, 7292400, Note_on_c, 0, 72, 0
2, 7292400, Note_on_c, 0, 69, 100
2, 7292520, Note_on_c, 0, 69, 0
2, 7292520, Note_on_c, 0, 67, 100
2, 7292640, Note_on_c, 0, 67, 0
2, 7292640, Note_on_c, 0, 71, 100
2, 7292760, Note_on_c, 0, 71, 0
2, 7292760, Note_on_c, 0, 69, 100
2, 7292880, Note_on_c, 0, 69, 0
2, 7292880, Note_on_c, 0, 78, 100
2, 7293000, Note_on_c, 0, 78, 0
2, 7293000, Note_on_c, 0, 79, 100
2, 7293120, Note_on_c, 0, 79, 0
2, 7293120, Note_on_c, 0, 76, 100
2, 7293240, Note_on_c, 0, 76, 0
2, 7293240, Note_on_c, 0, 78, 100
2, 7293360, Note_on_c, 0, 78, 0
2, 7293360, Note_on_c, 0, 74, 100
2, 7293480, Note_on_c, 0, 74, 0
2, 7293480, Note_on_c, 0, 76, 100
2, 7293600, Note_on_c, 0, 76, 0
2, 7293600, Note_on_c, 0, 84, 100
2, 7293840, Note_on_c, 0, 84, 0
2, 7293840, Note_on_c, 0, 83, 100
2, 7294140, Note_on_c, 0, 83, 0
2, 7294140, Note_on_c, 0, 81, 100
2, 7294200, Note_on_c, 0, 81, 0
2, 7294200, Note_on_c, 0, 79, 100
2, 7294260, Note_on_c, 0, 79, 0
2, 7294260, Note_on_c, 0, 78, 100
2, 7294320, Note_on_c, 0, 78, 0
2, 7294320, Note_on_c, 0, 79, 100
2, 7294440, Note_on_c, 0, 79, 0
2, 7294440, Note_on_c, 0, 81, 100
2, 7294560, Note_on_c, 0, 81, 0
2, 7294560, Note_on_c, 0, 78, 100
2, 7294680, Note_on_c, 0, 78, 0
2, 7294680, Note_on_c, 0, 76, 100
2, 7294800, Note_on_c, 0, 76, 0
2, 7294800, Note_on_c, 0, 74, 100
2, 7294920, Note_on_c, 0, 74, 0
2, 7294920, Note_on_c, 0, 71, 100
2, 7295400, Note_on_c, 0, 71, 0
2, 7295400, Note_on_c, 0, 72, 100
2, 7295520, Note_on_c, 0, 72, 0
2, 7295520, Note_on_c, 0, 69, 100
2, 7295640, Note_on_c, 0, 69, 0
2, 7295640, Note_on_c, 0, 71, 100
2, 7295760, Note_on_c, 0, 71, 0
2, 7295760, Note_on_c, 0, 79, 100
2, 7295880, Note_on_c, 0, 79, 0
2, 7295880, Note_on_c, 0, 69, 100
2, 7296000, Note_on_c, 0, 69, 0
2, 7296000, Note_on_c, 0, 77, 100
2, 7296120, Note_on_c, 0, 77, 0
2, 7296120, Note_on_c, 0, 67, 100
2, 7296240, Note_on_c, 0, 67, 0
2, 7296240, Note_on_c, 0, 76, 100
2, 7296360, Note_on_c, 0, 76, 0
2, 7296360, Note_on_c, 0, 65, 100
2, 7296480, Note_on_c, 0, 65, 0
2, 7296480, Note_on_c, 0, 74, 100
2, 7296600, Note_on_c, 0, 74, 0
2, 7296600, Note_on_c, 0, 64, 100
2, 7296720, Note_on_c, 0, 64, 0
2, 7296720, Note_on_c, 0, 67, 100
2, 7297020, Note_on_c, 0, 67, 0
2, 7297020, Note_on_c, 0, 69, 100
2, 7297080, Note_on_c, 0, 69, 0
2, 7297080, Note_on_c, 0, 71, 100
2, 7297140, Note_on_c, 0, 71, 0
2, 7297140, Note_on_c, 0, 72, 100
2, 7297200, Note_on_c, 0, 72, 0
2, 7297200, Note_on_c, 0, 69, 100
2, 7297320, Note_on_c, 0, 69, 0
2, 7297320, Note_on_c, 0, 71, 100
2, 7297440, Note_on_c, 0, 71, 0
2, 7297440, Note_on_c, 0, 67, 100
2, 7297560, Note_on_c, 0, 67, 0
2, 7297560, Note_on_c, 0, 69, 100
2, 7297680, Note_on_c, 0, 69, 0
2, 7297680, Note_on_c, 0, 66, 100
2, 7297800, Note_on_c, 0, 66, 0
2, 7297800, Note_on_c, 0, 67, 100
2, 7297920, Note_on_c, 0, 67, 0
2, 7297920, Note_on_c, 0, 64, 100
2, 7298040, Note_on_c, 0, 64, 0
2, 7298040, Note_on_c, 0, 66, 100
2, 7298160, Note_on_c, 0, 66, 0
2, 7298160, Note_on_c, 0, 76, 100
2, 7298280, Note_on_c, 0, 76, 0
2, 7298280, Note_on_c, 0, 74, 100
2, 7298400, Note_on_c, 0, 74, 0
2, 7298400, Note_on_c, 0, 76, 100
2, 7298700, Note_on_c, 0, 76, 0
2, 7298700, Note_on_c, 0, 78, 100
2, 7298760, Note_on_c, 0, 78, 0
2, 7298760, Note_on_c, 0, 79, 100
2, 7298820, Note_on_c, 0, 79, 0
2, 7298820, Note_on_c, 0, 78, 100
2, 7298880, Note_on_c, 0, 78, 0
2, 7298880, Note_on_c, 0, 76, 100
2, 7298940, Note_on_c, 0, 76, 0
2, 7298940, Note_on_c, 0, 74, 100
2, 7299000, Note_on_c, 0, 74, 0
2, 7299000, Note_on_c, 0, 72, 100
2, 7299060, Note_on_c, 0, 72, 0
2, 7299060, Note_on_c, 0, 71, 100
2, 7299120, Note_on_c, 0, 71, 0
2, 7299120, Note_on_c, 0, 79, 100
2, 7299240, Note_on_c, 0, 79, 0
2, 7299240, Note_on_c, 0, 69, 100
2, 7299360, Note_on_c, 0, 69, 0
2, 7299360, Note_on_c, 0, 78, 100
2, 7299480, Note_on_c, 0, 78, 0
2, 7299480, Note_on_c, 0, 67, 100
2, 7299600, Note_on_c, 0, 67, 0
2, 7299600, Note_on_c, 0, 66, 100
2, 7299720, Note_on_c, 0, 66, 0
2, 7299720, Note_on_c, 0, 67, 100
2, 7299840, Note_on_c, 0, 67, 0
2, 7299840, Note_on_c, 0, 66, 100
2, 7299960, Note_on_c, 0, 66, 0
2, 7299960, Note_on_c, 0, 67, 100
2, 7300080, Note_on_c, 0, 67, 0
2, 7300080, Note_on_c, 0, 71, 100
2, 7300200, Note_on_c, 0, 71, 0
2, 7300200, Note_on_c, 0, 74, 100
2, 7300320, Note_on_c, 0, 74, 0
2, 7300320, Note_on_c, 0, 78, 100
2, 7300440, Note_on_c, 0, 78, 0
2, 7300440, Note_on_c, 0, 79, 100
2, 7300560, Note_on_c, 0, 79, 0
2, 7300560, Note_on_c, 0, 71, 100
2, 7470120, Note_on_c, 0, 71, 0
2, 7470120, Note_on_c, 0, 67, 100
2, 7470360, Note_on_c, 0, 67, 0
2, 7470360, Note_on_c, 0, 62, 100
2, 7470600, Note_on_c, 0, 62, 0
2, 7470600, Note_on_c, 0, 59, 100
2, 7470840, Note_on_c, 0, 59, 0
2, 7470840, Note_on_c, 0, 55, 100
2, 7471080, Note_on_c, 0, 55, 0
2, 7471080, Note_on_c, 0, 54, 100
2, 7471200, Note_on_c, 0, 54, 0
2, 7471200, Note_on_c, 0, 52, 100
2, 7471320, Note_on_c, 0, 52, 0
2, 7471320, Note_on_c, 0, 54, 100
2, 7471440, Note_on_c, 0, 54, 0
2, 7471440, Note_on_c, 0, 57, 100
2, 7471680, Note_on_c, 0, 57, 0
2, 7471680, Note_on_c, 0, 62, 100
2, 7471920, Note_on_c, 0, 62, 0
2, 7471920, Note_on_c, 0, 66, 100
2, 7472160, Note_on_c, 0, 66, 0
2, 7472160, Note_on_c, 0, 69, 100
2, 7472400, Note_on_c, 0, 69, 0
2, 7472400, Note_on_c, 0, 74, 100
2, 7472640, Note_on_c, 0, 74, 0
2, 7472640, Note_on_c, 0, 67, 100
2, 7473000, Note_on_c, 0, 67, 0
2, 7473000, Note_on_c, 0, 64, 100
2, 7473240, Note_on_c, 0, 64, 0
2, 7473240, Note_on_c, 0, 61, 100
2, 7473480, Note_on_c, 0, 61, 0
2, 7473480, Note_on_c, 0, 57, 100
2, 7473720, Note_on_c, 0, 57, 0
2, 7473720, Note_on_c, 0, 55, 100
2, 7473960, Note_on_c, 0, 55, 0
2, 7473960, Note_on_c, 0, 54, 100
2, 7474080, Note_on_c, 0, 54, 0
2, 7474080, Note_on_c, 0, 52, 100
2, 7474200, Note_on_c, 0, 52, 0
2, 7474200, Note_on_c, 0, 50, 100
2, 7474320, Note_on_c, 0, 50, 0
2, 7474320, Note_on_c, 0, 54, 100
2, 7474560, Note_on_c, 0, 54, 0
2, 7474560, Note_on_c, 0, 57, 100
2, 7474800, Note_on_c, 0, 57, 0
2, 7474800, Note_on_c, 0, 62, 100
2, 7475040, Note_on_c, 0, 62, 0
2, 7475040, Note_on_c, 0, 66, 100
2, 7475280, Note_on_c, 0, 66, 0
2, 7475280, Note_on_c, 0, 69, 100
2, 7475520, Note_on_c, 0, 69, 0
2, 7475520, Note_on_c, 0, 67, 100
2, 7475880, Note_on_c, 0, 67, 0
2, 7475880, Note_on_c, 0, 62, 100
2, 7476120, Note_on_c, 0, 62, 0
2, 7476120, Note_on_c, 0, 59, 100
2, 7476360, Note_on_c, 0, 59, 0
2, 7476360, Note_on_c, 0, 55, 100
2, 7476600, Note_on_c, 0, 55, 0
2, 7476600, Note_on_c, 0, 53, 100
2, 7476840, Note_on_c, 0, 53, 0
2, 7476840, Note_on_c, 0, 52, 100
2, 7476960, Note_on_c, 0, 52, 0
2, 7476960, Note_on_c, 0, 50, 100
2, 7477080, Note_on_c, 0, 50, 0
2, 7477080, Note_on_c, 0, 48, 100
2, 7477200, Note_on_c, 0, 48, 0
2, 7477200, Note_on_c, 0, 52, 100
2, 7477440, Note_on_c, 0, 52, 0
2, 7477440, Note_on_c, 0, 55, 100
2, 7477680, Note_on_c, 0, 55, 0
2, 7477680, Note_on_c, 0, 60, 100
2, 7477920, Note_on_c, 0, 60, 0
2, 7477920, Note_on_c, 0, 64, 100
2, 7478160, Note_on_c, 0, 64, 0
2, 7478160, Note_on_c, 0, 67, 100
2, 7478400, Note_on_c, 0, 67, 0
2, 7478400, Note_on_c, 0, 66, 100
2, 7478760, Note_on_c, 0, 66, 0
2, 7478760, Note_on_c, 0, 62, 100
2, 7479000, Note_on_c, 0, 62, 0
2, 7479000, Note_on_c, 0, 57, 100
2, 7479240, Note_on_c, 0, 57, 0
2, 7479240, Note_on_c, 0, 54, 100
2, 7479480, Note_on_c, 0, 54, 0
2, 7479480, Note_on_c, 0, 50, 100
2, 7479720, Note_on_c, 0, 50, 0
2, 7479720, Note_on_c, 0, 48, 100
2, 7479840, Note_on_c, 0, 48, 0
2, 7479840, Note_on_c, 0, 50, 100
2, 7479960, Note_on_c, 0, 50, 0
2, 7479960, Note_on_c, 0, 43, 100
2, 7480080, Note_on_c, 0, 43, 0
2, 7480080, Note_on_c, 0, 47, 100
2, 7480320, Note_on_c, 0, 47, 0
2, 7480320, Note_on_c, 0, 50, 100
2, 7480560, Note_on_c, 0, 50, 0
2, 7480560, Note_on_c, 0, 55, 100
2, 7480800, Note_on_c, 0, 55, 0
2, 7480800, Note_on_c, 0, 54, 100
2, 7481040, Note_on_c, 0, 54, 0
2, 7481040, Note_on_c, 0, 60, 100
2, 7481280, Note_on_c, 0, 60, 0
2, 7481280, Note_on_c, 0, 59, 100
2, 7481520, Note_on_c, 0, 59, 0
2, 7481520, Note_on_c, 0, 57, 100
2, 7481600, Note_on_c, 0, 57, 0
2, 7481600, Note_on_c, 0, 59, 100
2, 7481680, Note_on_c, 0, 59, 0
2, 7481680, Note_on_c, 0, 60, 100
2, 7481760, Note_on_c, 0, 60, 0
2, 7481760, Note_on_c, 0, 59, 100
2, 7481840, Note_on_c, 0, 59, 0
2, 7481840, Note_on_c, 0, 60, 100
2, 7481920, Note_on_c, 0, 60, 0
2, 7481920, Note_on_c, 0, 62, 100
2, 7482000, Note_on_c, 0, 62, 0
2, 7482000, Note_on_c, 0, 60, 100
2, 7482080, Note_on_c, 0, 60, 0
2, 7482080, Note_on_c, 0, 62, 100
2, 7482160, Note_on_c, 0, 62, 0
2, 7482160, Note_on_c, 0, 64, 100
2, 7482240, Note_on_c, 0, 64, 0
2, 7482240, Note_on_c, 0, 62, 100
2, 7482320, Note_on_c, 0, 62, 0
2, 7482320, Note_on_c, 0, 64, 100
2, 7482400, Note_on_c, 0, 64, 0
2, 7482400, Note_on_c, 0, 66, 100
2, 7482480, Note_on_c, 0, 66, 0
2, 7482480, Note_on_c, 0, 64, 100
2, 7482560, Note_on_c, 0, 64, 0
2, 7482560, Note_on_c, 0, 66, 100
2, 7482640, Note_on_c, 0, 66, 0
2, 7482640, Note_on_c, 0, 67, 100
2, 7482720, Note_on_c, 0, 67, 0
2, 7482720, Note_on_c, 0, 66, 100
2, 7482800, Note_on_c, 0, 66, 0
2, 7482800, Note_on_c, 0, 67, 100
2, 7482880, Note_on_c, 0, 67, 0
2, 7482880, Note_on_c, 0, 69, 100
2, 7482960, Note_on_c, 0, 69, 0
2, 7482960, Note_on_c, 0, 67, 100
2, 7483040, Note_on_c, 0, 67, 0
2, 7483040, Note_on_c, 0, 69, 100
2, 7483120, Note_on_c, 0, 69, 0
2, 7483120, Note_on_c, 0, 71, 100
2, 7483200, Note_on_c, 0, 71, 0
2, 7483200, Note_on_c, 0, 69, 100
2, 7483280, Note_on_c, 0, 69, 0
2, 7483280, Note_on_c, 0, 71, 100
2, 7483360, Note_on_c, 0, 71, 0
2, 7483360, Note_on_c, 0, 73, 100
2, 7483440, Note_on_c, 0, 73, 0
2, 7483440, Note_on_c, 0, 71, 100
2, 7483520, Note_on_c, 0, 71, 0
2, 7483520, Note_on_c, 0, 73, 100
2, 7483600, Note_on_c, 0, 73, 0
2, 7483600, Note_on_c, 0, 74, 100
2, 7483680, Note_on_c, 0, 74, 0
2, 7483680, Note_on_c, 0, 73, 100
2, 7483760, Note_on_c, 0, 73, 0
2, 7483760, Note_on_c, 0, 74, 100
2, 7483840, Note_on_c, 0, 74, 0
2, 7483840, Note_on_c, 0, 76, 100
2, 7483920, Note_on_c, 0, 76, 0
2, 7483920, Note_on_c, 0, 74, 100
2, 7484000, Note_on_c, 0, 74, 0
2, 7484000, Note_on_c, 0, 76, 100
2, 7484080, Note_on_c, 0, 76, 0
2, 7484080, Note_on_c, 0, 78, 100
2, 7484160, Note_on_c, 0, 78, 0
2, 7484160, Note_on_c, 0, 76, 100
2, 7484240, Note_on_c, 0, 76, 0
2, 7484240, Note_on_c, 0, 78, 100
2, 7484320, Note_on_c, 0, 78, 0
2, 7484320, Note_on_c, 0, 79, 100
2, 7484400, Note_on_c, 0, 79, 0
2, 7484400, Note_on_c, 0, 52, 100
2, 7484880, Note_on_c, 0, 52, 0
2, 7484880, Note_on_c, 0, 50, 100
2, 7484920, Note_on_c, 0, 50, 0
2, 7484920, Note_on_c, 0, 52, 100
2, 7484960, Note_on_c, 0, 52, 0
2, 7484960, Note_on_c, 0, 71, 100
2, 7485600, Note_on_c, 0, 71, 0
2, 7485600, Note_on_c, 0, 79, 100
2, 7485840, Note_on_c, 0, 79, 0
2, 7485840, Note_on_c, 0, 49, 100
2, 7486320, Note_on_c, 0, 49, 0
2, 7486320, Note_on_c, 0, 47, 100
2, 7486360, Note_on_c, 0, 47, 0
2, 7486360, Note_on_c, 0, 49, 100
2, 7486400, Note_on_c, 0, 49, 0
2, 7486400, Note_on_c, 0, 79, 100
2, 7487040, Note_on_c, 0, 79, 0
2, 7487040, Note_on_c, 0, 78, 100
2, 7487280, Note_on_c, 0, 78, 0
2, 7487280, Note_on_c, 0, 81, 100
2, 7487360, Note_on_c, 0, 81, 0
2, 7487360, Note_on_c, 0, 74, 100
2, 7487440, Note_on_c, 0, 74, 0
2, 7487440, Note_on_c, 0, 76, 100
2, 7487520, Note_on_c, 0, 76, 0
2, 7487520, Note_on_c, 0, 79, 100
2, 7487600, Note_on_c, 0, 79, 0
2, 7487600, Note_on_c, 0, 73, 100
2, 7487680, Note_on_c, 0, 73, 0
2, 7487680, Note_on_c, 0, 74, 100
2, 7487760, Note_on_c, 0, 74, 0
2, 7487760, Note_on_c, 0, 78, 100
2, 7487840, Note_on_c, 0, 78, 0
2, 7487840, Note_on_c, 0, 71, 100
2, 7487920, Note_on_c, 0, 71, 0
2, 7487920, Note_on_c, 0, 72, 100
2, 7488000, Note_on_c, 0, 72, 0
2, 7488000, Note_on_c, 0, 76, 100
2, 7488080, Note_on_c, 0, 76, 0
2, 7488080, Note_on_c, 0, 69, 100
2, 7488160, Note_on_c, 0, 69, 0
2, 7488160, Note_on_c, 0, 71, 100
2, 7488240, Note_on_c, 0, 71, 0
2, 7488240, Note_on_c, 0, 74, 100
2, 7488320, Note_on_c, 0, 74, 0
2, 7488320, Note_on_c, 0, 67, 100
2, 7488400, Note_on_c, 0, 67, 0
2, 7488400, Note_on_c, 0, 69, 100
2, 7488480, Note_on_c, 0, 69, 0
2, 7488480, Note_on_c, 0, 72, 100
2, 7488560, Note_on_c, 0, 72, 0
2, 7488560, Note_on_c, 0, 66, 100
2, 7488640, Note_on_c, 0, 66, 0
2, 7488640, Note_on_c, 0, 67, 100
2, 7488720, Note_on_c, 0, 67, 0
2, 7488720, Note_on_c, 0, 55, 100
2, 7488960, Note_on_c, 0, 55, 0
2, 7488960, Note_on_c, 0, 54, 100
2, 7489200, Note_on_c, 0, 54, 0
2, 7489200, Note_on_c, 0, 57, 100
2, 7489440, Note_on_c, 0, 57, 0
2, 7489440, Note_on_c, 0, 50, 100
2, 7489680, Note_on_c, 0, 50, 0
2, 7489680, Note_on_c, 0, 62, 100
2, 7489920, Note_on_c, 0, 62, 0
2, 7489920, Note_on_c, 0, 61, 100
2, 7490160, Note_on_c, 0, 61, 0
2, 7490160, Note_on_c, 0, 57, 100
2, 7490240, Note_on_c, 0, 57, 0
2, 7490240, Note_on_c, 0, 59, 100
2, 7490320, Note_on_c, 0, 59, 0
2, 7490320, Note_on_c, 0, 61, 100
2, 7490400, Note_on_c, 0, 61, 0
2, 7490400, Note_on_c, 0, 62, 100
2, 7490480, Note_on_c, 0, 62, 0
2, 7490480, Note_on_c, 0, 64, 100
2, 7490560, Note_on_c, 0, 64, 0
2, 7490560, Note_on_c, 0, 66, 100
2, 7490640, Note_on_c, 0, 66, 0
2, 7490640, Note_on_c, 0, 64, 100
2, 7490960, Note_on_c, 0, 64, 0
2, 7490960, Note_on_c, 0, 62, 100
2, 7491040, Note_on_c, 0, 62, 0
2, 7491040, Note_on_c, 0, 71, 100
2, 7491120, Note_on_c, 0, 71, 0
2, 7491120, Note_on_c, 0, 74, 100
2, 7491360, Note_on_c, 0, 74, 0
2, 7491360, Note_on_c, 0, 73, 100
2, 7491420, Note_on_c, 0, 73, 0
2, 7491420, Note_on_c, 0, 71, 100
2, 7491480, Note_on_c, 0, 71, 0
2, 7491480, Note_on_c, 0, 73, 100
2, 7491540, Note_on_c, 0, 73, 0
2, 7491540, Note_on_c, 0, 74, 100
2, 7491600, Note_on_c, 0, 74, 0
2, 7491600, Note_on_c, 0, 69, 100
2, 7491680, Note_on_c, 0, 69, 0
2, 7491680, Note_on_c, 0, 66, 100
2, 7491760, Note_on_c, 0, 66, 0
2, 7491760, Note_on_c, 0, 62, 100
2, 7491840, Note_on_c, 0, 62, 0
2, 7491840, Note_on_c, 0, 57, 100
2, 7491920, Note_on_c, 0, 57, 0
2, 7491920, Note_on_c, 0, 54, 100
2, 7492000, Note_on_c, 0, 54, 0
2, 7492000, Note_on_c, 0, 50, 100
2, 7492080, Note_on_c, 0, 50, 0
2, 7492080, Note_on_c, 0, 71, 100
2, 7493160, Note_on_c, 0, 71, 0
2, 7493160, Note_on_c, 0, 67, 100
2, 7493400, Note_on_c, 0, 67, 0
2, 7493400, Note_on_c, 0, 62, 100
2, 7493640, Note_on_c, 0, 62, 0
2, 7493640, Note_on_c, 0, 59, 100
2, 7493880, Note_on_c, 0, 59, 0
2, 7493880, Note_on_c, 0, 55, 100
2, 7494120, Note_on_c, 0, 55, 0
2, 7494120, Note_on_c, 0, 54, 100
2, 7494240, Note_on_c, 0, 54, 0
2, 7494240, Note_on_c, 0, 52, 100
2, 7494360, Note_on_c, 0, 52, 0
2, 7494360, Note_on_c, 0, 54, 100
2, 7494480, Note_on_c, 0, 54, 0
2, 7494480, Note_on_c, 0, 57, 100
2, 7494720, Note_on_c, 0, 57, 0
2, 7494720, Note_on_c, 0, 62, 100
2, 7494960, Note_on_c, 0, 62, 0
2, 7494960, Note_on_c, 0, 66, 100
2, 7495200, Note_on_c, 0, 66, 0
2, 7495200, Note_on_c, 0, 69, 100
2, 7495440, Note_on_c, 0, 69, 0
2, 7495440, Note_on_c, 0, 74, 100
2, 7495680, Note_on_c, 0, 74, 0
2, 7495680, Note_on_c, 0, 67, 100
2, 7496040, Note_on_c, 0, 67, 0
2, 7496040, Note_on_c, 0, 64, 100
2, 7496280, Note_on_c, 0, 64, 0
2, 7496280, Note_on_c, 0, 61, 100
2, 7496520, Note_on_c, 0, 61, 0
2, 7496520, Note_on_c, 0, 57, 100
2, 7496760, Note_on_c, 0, 57, 0
2, 7496760, Note_on_c, 0, 55, 100
2, 7497000, Note_on_c, 0, 55, 0
2, 7497000, Note_on_c, 0, 54, 100
2, 7497120, Note_on_c, 0, 54, 0
2, 7497120, Note_on_c, 0, 52, 100
2, 7497240, Note_on_c, 0, 52, 0
2, 7497240, Note_on_c, 0, 50, 100
2, 7497360, Note_on_c, 0, 50, 0
2, 7497360, Note_on_c, 0, 54, 100
2, 7497600, Note_on_c, 0, 54, 0
2, 7497600, Note_on_c, 0, 57, 100
2, 7497840, Note_on_c, 0, 57, 0
2, 7497840, Note_on_c, 0, 62, 100
2, 7498080, Note_on_c, 0, 62, 0
2, 7498080, Note_on_c, 0, 66, 100
2, 7498320, Note_on_c, 0, 66, 0
2, 7498320, Note_on_c, 0, 69, 100
2, 7498560, Note_on_c, 0, 69, 0
2, 7498560, Note_on_c, 0, 67, 100
2, 7498920, Note_on_c, 0, 67, 0
2, 7498920, Note_on_c, 0, 62, 100
2, 7499160, Note_on_c, 0, 62, 0
2, 7499160, Note_on_c, 0, 59, 100
2, 7499400, Note_on_c, 0, 59, 0
2, 7499400, Note_on_c, 0, 55, 100
2, 7499640, Note_on_c, 0, 55, 0
2, 7499640, Note_on_c, 0, 53, 100
2, 7499880, Note_on_c, 0, 53, 0
2, 7499880, Note_on_c, 0, 52, 100
2, 7500000, Note_on_c, 0, 52, 0
2, 7500000, Note_on_c, 0, 50, 100
2, 7500120, Note_on_c, 0, 50, 0
2, 7500120, Note_on_c, 0, 48, 100
2, 7500240, Note_on_c, 0, 48, 0
2, 7500240, Note_on_c, 0, 52, 100
2, 7500480, Note_on_c, 0, 52, 0
2, 7500480, Note_on_c, 0, 55, 100
2, 7500720, Note_on_c, 0, 55, 0
2, 7500720, Note_on_c, 0, 60, 100
2, 7500960, Note_on_c, 0, 60, 0
2, 7500960, Note_on_c, 0, 64, 100
2, 7501200, Note_on_c, 0, 64, 0
2, 7501200, Note_on_c, 0, 67, 100
2, 7501440, Note_on_c, 0, 67, 0
2, 7501440, Note_on_c, 0, 66, 100
2, 7501800, Note_on_c, 0, 66, 0
2, 7501800, Note_on_c, 0, 62, 100
2, 7502040, Note_on_c, 0, 62, 0
2, 7502040, Note_on_c, 0, 57, 100
2, 7502280, Note_on_c, 0, 57, 0
2, 7502280, Note_on_c, 0, 54, 100
2, 7502520, Note_on_c, 0, 54, 0
2, 7502520, Note_on_c, 0, 50, 100
2, 7502760, Note_on_c, 0, 50, 0
2, 7502760, Note_on_c, 0, 48, 100
2, 7502880, Note_on_c, 0, 48, 0
2, 7502880, Note_on_c, 0, 50, 100
2, 7503000, Note_on_c, 0, 50, 0
2, 7503000, Note_on_c, 0, 43, 100
2, 7503120, Note_on_c, 0, 43, 0
2, 7503120, Note_on_c, 0, 47, 100
2, 7503360, Note_on_c, 0, 47, 0
2, 7503360, Note_on_c, 0, 50, 100
2, 7503600, Note_on_c, 0, 50, 0
2, 7503600, Note_on_c, 0, 55, 100
2, 7503840, Note_on_c, 0, 55, 0
2, 7503840, Note_on_c, 0, 54, 100
2, 7504080, Note_on_c, 0, 54, 0
2, 7504080, Note_on_c, 0, 60, 100
2, 7504320, Note_on_c, 0, 60, 0
2, 7504320, Note_on_c, 0, 59, 100
2, 7504560, Note_on_c, 0, 59, 0
2, 7504560, Note_on_c, 0, 57, 100
2, 7504640, Note_on_c, 0, 57, 0
2, 7504640, Note_on_c, 0, 59, 100
2, 7504720, Note_on_c, 0, 59, 0
2, 7504720, Note_on_c, 0, 60, 100
2, 7504800, Note_on_c, 0, 60, 0
2, 7504800, Note_on_c, 0, 59, 100
2, 7504880, Note_on_c, 0, 59, 0
2, 7504880, Note_on_c, 0, 60, 100
2, 7504960, Note_on_c, 0, 60, 0
2, 7504960, Note_on_c, 0, 62, 100
2, 7505040, Note_on_c, 0, 62, 0
2, 7505040, Note_on_c, 0, 60, 100
2, 7505120, Note_on_c, 0, 60, 0
2, 7505120, Note_on_c, 0, 62, 100
2, 7505200, Note_on_c, 0, 62, 0
2, 7505200, Note_on_c, 0, 64, 100
2, 7505280, Note_on_c, 0, 64, 0
2, 7505280, Note_on_c, 0, 62, 100
2, 7505360, Note_on_c, 0, 62, 0
2, 7505360, Note_on_c, 0, 64, 100
2, 7505440, Note_on_c, 0, 64, 0
2, 7505440, Note_on_c, 0, 66, 100
2, 7505520, Note_on_c, 0, 66, 0
2, 7505520, Note_on_c, 0, 64, 100
2, 7505600, Note_on_c, 0, 64, 0
2, 7505600, Note_on_c, 0, 66, 100
2, 7505680, Note_on_c, 0, 66, 0
2, 7505680, Note_on_c, 0, 67, 100
2, 7505760, Note_on_c, 0, 67, 0
2, 7505760, Note_on_c, 0, 66, 100
2, 7505840, Note_on_c, 0, 66, 0
2, 7505840, Note_on_c, 0, 67, 100
2, 7505920, Note_on_c, 0, 67, 0
2, 7505920, Note_on_c, 0, 69, 100
2, 7506000, Note_on_c, 0, 69, 0
2, 7506000, Note_on_c, 0, 67, 100
2, 7506080, Note_on_c, 0, 67, 0
2, 7506080, Note_on_c, 0, 69, 100
2, 7506160, Note_on_c, 0, 69, 0
2, 7506160, Note_on_c, 0, 71, 100
2, 7506240, Note_on_c, 0, 71, 0
2, 7506240, Note_on_c, 0, 69, 100
2, 7506320, Note_on_c, 0, 69, 0
2, 7506320, Note_on_c, 0, 71, 100
2, 7506400, Note_on_c, 0, 71, 0
2, 7506400, Note_on_c, 0, 73, 100
2, 7506480, Note_on_c, 0, 73, 0
2, 7506480, Note_on_c, 0, 71, 100
2, 7506560, Note_on_c, 0, 71, 0
2, 7506560, Note_on_c, 0, 73, 100
2, 7506640, Note_on_c, 0, 73, 0
2, 7506640, Note_on_c, 0, 74, 100
2, 7506720, Note_on_c, 0, 74, 0
2, 7506720, Note_on_c, 0, 73, 100
2, 7506800, Note_on_c, 0, 73, 0
2, 7506800, Note_on_c, 0, 74, 100
2, 7506880, Note_on_c, 0, 74, 0
2, 7506880, Note_on_c, 0, 76, 100
2, 7506960, Note_on_c, 0, 76, 0
2, 7506960, Note_on_c, 0, 74, 100
2, 7507040, Note_on_c, 0, 74, 0
2, 7507040, Note_on_c, 0, 76, 100
2, 7507120, Note_on_c, 0, 76, 0
2, 7507120, Note_on_c, 0, 78, 100
2, 7507200, Note_on_c, 0, 78, 0
2, 7507200, Note_on_c, 0, 76, 100
2, 7507280, Note_on_c, 0, 76, 0
2, 7507280, Note_on_c, 0, 78, 100
2, 7507360, Note_on_c, 0, 78, 0
2, 7507360, Note_on_c, 0, 79, 100
2, 7507440, Note_on_c, 0, 79, 0
2, 7507440, Note_on_c, 0, 52, 100
2, 7507920, Note_on_c, 0, 52, 0
2, 7507920, Note_on_c, 0, 50, 100
2, 7507960, Note_on_c, 0, 50, 0
2, 7507960, Note_on_c, 0, 52, 100
2, 7508000, Note_on_c, 0, 52, 0
2, 7508000, Note_on_c, 0, 71, 100
2, 7508640, Note_on_c, 0, 71, 0
2, 7508640, Note_on_c, 0, 79, 100
2, 7508880, Note_on_c, 0, 79, 0
2, 7508880, Note_on_c, 0, 49, 100
2, 7509360, Note_on_c, 0, 49, 0
2, 7509360, Note_on_c, 0, 47, 100
2, 7509400, Note_on_c, 0, 47, 0
2, 7509400, Note_on_c, 0, 49, 100
2, 7509440, Note_on_c, 0, 49, 0
2, 7509440, Note_on_c, 0, 79, 100
2, 7510080, Note_on_c, 0, 79, 0
2, 7510080, Note_on_c, 0, 78, 100
2, 7510320, Note_on_c, 0, 78, 0
2, 7510320, Note_on_c, 0, 81, 100
2, 7510400, Note_on_c, 0, 81, 0
2, 7510400, Note_on_c, 0, 74, 100
2, 7510480, Note_on_c, 0, 74, 0
2, 7510480, Note_on_c, 0, 76, 100
2, 7510560, Note_on_c, 0, 76, 0
2, 7510560, Note_on_c, 0, 79, 100
2, 7510640, Note_on_c, 0, 79, 0
2, 7510640, Note_on_c, 0, 73, 100
2, 7510720, Note_on_c, 0, 73, 0
2, 7510720, Note_on_c, 0, 74, 100
2, 7510800, Note_on_c, 0, 74, 0
2, 7510800, Note_on_c, 0, 78, 100
2, 7510880, Note_on_c, 0, 78, 0
2, 7510880, Note_on_c, 0, 71, 100
2, 7510960, Note_on_c, 0, 71, 0
2, 7510960, Note_on_c, 0, 72, 100
2, 7511040, Note_on_c, 0, 72, 0
2, 7511040, Note_on_c, 0, 76, 100
2, 7511120, Note_on_c, 0, 76, 0
2, 7511120, Note_on_c, 0, 69, 100
2, 7511200, Note_on_c, 0, 69, 0
2, 7511200, Note_on_c, 0, 71, 100
2, 7511280, Note_on_c, 0, 71, 0
2, 7511280, Note_on_c, 0, 74, 100
2, 7511360, Note_on_c, 0, 74, 0
2, 7511360, Note_on_c, 0, 67, 100
2, 7511440, Note_on_c, 0, 67, 0
2, 7511440, Note_on_c, 0, 69, 100
2, 7511520, Note_on_c, 0, 69, 0
2, 7511520, Note_on_c, 0, 72, 100
2, 7511600, Note_on_c, 0, 72, 0
2, 7511600, Note_on_c, 0, 66, 100
2, 7511680, Note_on_c, 0, 66, 0
2, 7511680, Note_on_c, 0, 67, 100
2, 7511760, Note_on_c, 0, 67, 0
2, 7511760, Note_on_c, 0, 55, 100
2, 7512000, Note_on_c, 0, 55, 0
2, 7512000, Note_on_c, 0, 54, 100
2, 7512240, Note_on_c, 0, 54, 0
2, 7512240, Note_on_c, 0, 57, 100
2, 7512480, Note_on_c, 0, 57, 0
2, 7512480, Note_on_c, 0, 50, 100
2, 7512720, Note_on_c, 0, 50, 0
2, 7512720, Note_on_c, 0, 62, 100
2, 7512960, Note_on_c, 0, 62, 0
2, 7512960, Note_on_c, 0, 61, 100
2, 7513200, Note_on_c, 0, 61, 0
2, 7513200, Note_on_c, 0, 57, 100
2, 7513280, Note_on_c, 0, 57, 0
2, 7513280, Note_on_c, 0, 59, 100
2, 7513360, Note_on_c, 0, 59, 0
2, 7513360, Note_on_c, 0, 61, 100
2, 7513440, Note_on_c, 0, 61, 0
2, 7513440, Note_on_c, 0, 62, 100
2, 7513520, Note_on_c, 0, 62, 0
2, 7513520, Note_on_c, 0, 64, 100
2, 7513600, Note_on_c, 0, 64, 0
2, 7513600, Note_on_c, 0, 66, 100
2, 7513680, Note_on_c, 0, 66, 0
2, 7513680, Note_on_c, 0, 64, 100
2, 7514000, Note_on_c, 0, 64, 0
2, 7514000, Note_on_c, 0, 62, 100
2, 7514080, Note_on_c, 0, 62, 0
2, 7514080, Note_on_c, 0, 71, 100
2, 7514160, Note_on_c, 0, 71, 0
2, 7514160, Note_on_c, 0, 74, 100
2, 7514400, Note_on_c, 0, 74, 0
2, 7514400, Note_on_c, 0, 73, 100
2, 7514460, Note_on_c, 0, 73, 0
2, 7514460, Note_on_c, 0, 71, 100
2, 7514520, Note_on_c, 0, 71, 0
2, 7514520, Note_on_c, 0, 73, 100
2, 7514580, Note_on_c, 0, 73, 0
2, 7514580, Note_on_c, 0, 74, 100
2, 7514640, Note_on_c, 0, 74, 0
2, 7514640, Note_on_c, 0, 69, 100
2, 7514720, Note_on_c, 0, 69, 0
2, 7514720, Note_on_c, 0, 66, 100
2, 7514800, Note_on_c, 0, 66, 0
2, 7514800, Note_on_c, 0, 62, 100
2, 7514880, Note_on_c, 0, 62, 0
2, 7514880, Note_on_c, 0, 57, 100
2, 7514960, Note_on_c, 0, 57, 0
2, 7514960, Note_on_c, 0, 54, 100
2, 7515040, Note_on_c, 0, 54, 0
2, 7515040, Note_on_c, 0, 50, 100
2, 7515120, Note_on_c, 0, 50, 0
2, 7515120, Note_on_c, 0, 81, 100
2, 7516200, Note_on_c, 0, 81, 0
2, 7516200, Note_on_c, 0, 78, 100
2, 7516440, Note_on_c, 0, 78, 0
2, 7516440, Note_on_c, 0, 74, 100
2, 7516680, Note_on_c, 0, 74, 0
2, 7516680, Note_on_c, 0, 69, 100
2, 7516920, Note_on_c, 0, 69, 0
2, 7516920, Note_on_c, 0, 66, 100
2, 7517160, Note_on_c, 0, 66, 0
2, 7517160, Note_on_c, 0, 62, 100
2, 7517400, Note_on_c, 0, 62, 0
2, 7517400, Note_on_c, 0, 59, 100
2, 7517640, Note_on_c, 0, 59, 0
2, 7517640, Note_on_c, 0, 55, 100
2, 7517880, Note_on_c, 0, 55, 0
2, 7517880, Note_on_c, 0, 50, 100
2, 7518120, Note_on_c, 0, 50, 0
2, 7518120, Note_on_c, 0, 47, 100
2, 7518360, Note_on_c, 0, 47, 0
2, 7518360, Note_on_c, 0, 43, 100
2, 7518600, Note_on_c, 0, 43, 0
2, 7518600, Note_on_c, 0, 45, 100
2, 7518720, Note_on_c, 0, 45, 0
2, 7518720, Note_on_c, 0, 47, 100
2, 7518840, Note_on_c, 0, 47, 0
2, 7518840, Note_on_c, 0, 48, 100
2, 7518960, Note_on_c, 0, 48, 0
2, 7518960, Note_on_c, 0, 55, 100
2, 7519200, Note_on_c, 0, 55, 0
2, 7519200, Note_on_c, 0, 60, 100
2, 7519440, Note_on_c, 0, 60, 0
2, 7519440, Note_on_c, 0, 64, 100
2, 7519680, Note_on_c, 0, 64, 0
2, 7519680, Note_on_c, 0, 57, 100
2, 7519920, Note_on_c, 0, 57, 0
2, 7519920, Note_on_c, 0, 72, 100
2, 7520160, Note_on_c, 0, 72, 0
2, 7520160, Note_on_c, 0, 71, 100
2, 7520480, Note_on_c, 0, 71, 0
2, 7520480, Note_on_c, 0, 70, 100
2, 7520560, Note_on_c, 0, 70, 0
2, 7520560, Note_on_c, 0, 71, 100
2, 7520640, Note_on_c, 0, 71, 0
2, 7520640, Note_on_c, 0, 73, 100
2, 7520720, Note_on_c, 0, 73, 0
2, 7520720, Note_on_c, 0, 75, 100
2, 7520800, Note_on_c, 0, 75, 0
2, 7520800, Note_on_c, 0, 76, 100
2, 7520880, Note_on_c, 0, 76, 0
2, 7520880, Note_on_c, 0, 75, 100
2, 7520960, Note_on_c, 0, 75, 0
2, 7520960, Note_on_c, 0, 73, 100
2, 7521040, Note_on_c, 0, 73, 0
2, 7521040, Note_on_c, 0, 75, 100
2, 7521120, Note_on_c, 0, 75, 0
2, 7521120, Note_on_c, 0, 76, 100
2, 7521200, Note_on_c, 0, 76, 0
2, 7521200, Note_on_c, 0, 78, 100
2, 7521280, Note_on_c, 0, 78, 0
2, 7521280, Note_on_c, 0, 79, 100
2, 7521360, Note_on_c, 0, 79, 0
2, 7521360, Note_on_c, 0, 78, 100
2, 7521440, Note_on_c, 0, 78, 0
2, 7521440, Note_on_c, 0, 76, 100
2, 7521520, Note_on_c, 0, 76, 0
2, 7521520, Note_on_c, 0, 78, 100
2, 7521600, Note_on_c, 0, 78, 0
2, 7521600, Note_on_c, 0, 79, 100
2, 7521680, Note_on_c, 0, 79, 0
2, 7521680, Note_on_c, 0, 81, 100
2, 7521760, Note_on_c, 0, 81, 0
2, 7521760, Note_on_c, 0, 83, 100
2, 7521840, Note_on_c, 0, 83, 0
2, 7521840, Note_on_c, 0, 81, 100
2, 7521920, Note_on_c, 0, 81, 0
2, 7521920, Note_on_c, 0, 79, 100
2, 7522000, Note_on_c, 0, 79, 0
2, 7522000, Note_on_c, 0, 81, 100
2, 7522080, Note_on_c, 0, 81, 0
2, 7522080, Note_on_c, 0, 83, 100
2, 7522160, Note_on_c, 0, 83, 0
2, 7522160, Note_on_c, 0, 84, 100
2, 7522240, Note_on_c, 0, 84, 0
2, 7522240, Note_on_c, 0, 75, 100
2, 7522320, Note_on_c, 0, 75, 0
2, 7522320, Note_on_c, 0, 84, 100
2, 7522560, Note_on_c, 0, 84, 0
2, 7522560, Note_on_c, 0, 83, 100
2, 7522800, Note_on_c, 0, 83, 0
2, 7522800, Note_on_c, 0, 74, 100
2, 7523040, Note_on_c, 0, 74, 0
2, 7523040, Note_on_c, 0, 73, 100
2, 7523360, Note_on_c, 0, 73, 0
2, 7523360, Note_on_c, 0, 75, 100
2, 7523440, Note_on_c, 0, 75, 0
2, 7523440, Note_on_c, 0, 76, 100
2, 7523520, Note_on_c, 0, 76, 0
2, 7523520, Note_on_c, 0, 78, 100
2, 7523600, Note_on_c, 0, 78, 0
2, 7523600, Note_on_c, 0, 79, 100
2, 7523680, Note_on_c, 0, 79, 0
2, 7523680, Note_on_c, 0, 70, 100
2, 7523760, Note_on_c, 0, 70, 0
2, 7523760, Note_on_c, 0, 79, 100
2, 7524000, Note_on_c, 0, 79, 0
2, 7524000, Note_on_c, 0, 78, 100
2, 7524240, Note_on_c, 0, 78, 0
2, 7524240, Note_on_c, 0, 69, 100
2, 7524480, Note_on_c, 0, 69, 0
2, 7524480, Note_on_c, 0, 67, 100
2, 7524720, Note_on_c, 0, 67, 0
2, 7524720, Note_on_c, 0, 63, 100
2, 7524960, Note_on_c, 0, 63, 0
2, 7524960, Note_on_c, 0, 64, 100
2, 7525200, Note_on_c, 0, 64, 0
2, 7525200, Note_on_c, 0, 60, 100
2, 7525440, Note_on_c, 0, 60, 0
2, 7525440, Note_on_c, 0, 51, 100
2, 7525680, Note_on_c, 0, 51, 0
2, 7525680, Note_on_c, 0, 75, 100
2, 7525920, Note_on_c, 0, 75, 0
2, 7525920, Note_on_c, 0, 76, 100
2, 7526160, Note_on_c, 0, 76, 0
2, 7526160, Note_on_c, 0, 64, 100
2, 7526400, Note_on_c, 0, 64, 0
2, 7526400, Note_on_c, 0, 67, 100
2, 7526720, Note_on_c, 0, 67, 0
2, 7526720, Note_on_c, 0, 71, 100
2, 7526800, Note_on_c, 0, 71, 0
2, 7526800, Note_on_c, 0, 76, 100
2, 7526880, Note_on_c, 0, 76, 0
2, 7526880, Note_on_c, 0, 79, 100
2, 7526960, Note_on_c, 0, 79, 0
2, 7526960, Note_on_c, 0, 75, 100
2, 7527040, Note_on_c, 0, 75, 0
2, 7527040, Note_on_c, 0, 76, 100
2, 7527120, Note_on_c, 0, 76, 0
2, 7527120, Note_on_c, 0, 71, 100
2, 7527200, Note_on_c, 0, 71, 0
2, 7527200, Note_on_c, 0, 67, 100
2, 7527280, Note_on_c, 0, 67, 0
2, 7527280, Note_on_c, 0, 68, 100
2, 7527440, Note_on_c, 0, 68, 0
2, 7527440, Note_on_c, 0, 77, 100
2, 7527540, Note_on_c, 0, 77, 0
2, 7527540, Note_on_c, 0, 76, 100
2, 7527600, Note_on_c, 0, 76, 0
2, 7527600, Note_on_c, 0, 72, 100
2, 7527680, Note_on_c, 0, 72, 0
2, 7527680, Note_on_c, 0, 69, 100
2, 7527760, Note_on_c, 0, 69, 0
2, 7527760, Note_on_c, 0, 62, 100
2, 7527920, Note_on_c, 0, 62, 0
2, 7527920, Note_on_c, 0, 71, 100
2, 7528000, Note_on_c, 0, 71, 0
2, 7528000, Note_on_c, 0, 60, 100
2, 7528160, Note_on_c, 0, 60, 0
2, 7528160, Note_on_c, 0, 69, 100
2, 7528240, Note_on_c, 0, 69, 0
2, 7528240, Note_on_c, 0, 59, 100
2, 7528400, Note_on_c, 0, 59, 0
2, 7528400, Note_on_c, 0, 67, 100
2, 7528480, Note_on_c, 0, 67, 0
2, 7528480, Note_on_c, 0, 60, 100
2, 7528640, Note_on_c, 0, 60, 0
2, 7528640, Note_on_c, 0, 69, 100
2, 7528720, Note_on_c, 0, 69, 0
2, 7528720, Note_on_c, 0, 66, 100
2, 7528880, Note_on_c, 0, 66, 0
2, 7528880, Note_on_c, 0, 75, 100
2, 7528960, Note_on_c, 0, 75, 0
2, 7528960, Note_on_c, 0, 74, 100
2, 7529040, Note_on_c, 0, 74, 0
2, 7529040, Note_on_c, 0, 71, 100
2, 7529120, Note_on_c, 0, 71, 0
2, 7529120, Note_on_c, 0, 67, 100
2, 7529200, Note_on_c, 0, 67, 0
2, 7529200, Note_on_c, 0, 60, 100
2, 7529360, Note_on_c, 0, 60, 0
2, 7529360, Note_on_c, 0, 69, 100
2, 7529440, Note_on_c, 0, 69, 0
2, 7529440, Note_on_c, 0, 59, 100
2, 7529600, Note_on_c, 0, 59, 0
2, 7529600, Note_on_c, 0, 67, 100
2, 7529680, Note_on_c, 0, 67, 0
2, 7529680, Note_on_c, 0, 57, 100
2, 7529840, Note_on_c, 0, 57, 0
2, 7529840, Note_on_c, 0, 66, 100
2, 7529920, Note_on_c, 0, 66, 0
2, 7529920, Note_on_c, 0, 59, 100
2, 7530080, Note_on_c, 0, 59, 0
2, 7530080, Note_on_c, 0, 67, 100
2, 7530160, Note_on_c, 0, 67, 0
2, 7530160, Note_on_c, 0, 64, 100
2, 7530320, Note_on_c, 0, 64, 0
2, 7530320, Note_on_c, 0, 74, 100
2, 7530400, Note_on_c, 0, 74, 0
2, 7530400, Note_on_c, 0, 72, 100
2, 7530480, Note_on_c, 0, 72, 0
2, 7530480, Note_on_c, 0, 69, 100
2, 7530560, Note_on_c, 0, 69, 0
2, 7530560, Note_on_c, 0, 64, 100
2, 7530640, Note_on_c, 0, 64, 0
2, 7530640, Note_on_c, 0, 60, 100
2, 7531440, Note_on_c, 0, 60, 0
2, 7531440, Note_on_c, 0, 72, 100
2, 7531920, Note_on_c, 0, 72, 0
2, 7531920, Note_on_c, 0, 69, 100
2, 7532000, Note_on_c, 0, 69, 0
2, 7532000, Note_on_c, 0, 66, 100
2, 7532080, Note_on_c, 0, 66, 0
2, 7532080, Note_on_c, 0, 62, 100
2, 7532880, Note_on_c, 0, 62, 0
2, 7532880, Note_on_c, 0, 72, 100
2, 7533120, Note_on_c, 0, 72, 0
2, 7533120, Note_on_c, 0, 71, 100
2, 7533360, Note_on_c, 0, 71, 0
2, 7533360, Note_on_c, 0, 67, 100
2, 7533440, Note_on_c, 0, 67, 0
2, 7533440, Note_on_c, 0, 74, 100
2, 7533520, Note_on_c, 0, 74, 0
2, 7533520, Note_on_c, 0, 72, 100
2, 7533600, Note_on_c, 0, 72, 0
2, 7533600, Note_on_c, 0, 69, 100
2, 7533680, Note_on_c, 0, 69, 0
2, 7533680, Note_on_c, 0, 76, 100
2, 7533760, Note_on_c, 0, 76, 0
2, 7533760, Note_on_c, 0, 74, 100
2, 7533840, Note_on_c, 0, 74, 0
2, 7533840, Note_on_c, 0, 59, 100
2, 7534080, Note_on_c, 0, 59, 0
2, 7534080, Note_on_c, 0, 55, 100
2, 7534320, Note_on_c, 0, 55, 0
2, 7534320, Note_on_c, 0, 77, 100
2, 7534560, Note_on_c, 0, 77, 0
2, 7534560, Note_on_c, 0, 76, 100
2, 7534800, Note_on_c, 0, 76, 0
2, 7534800, Note_on_c, 0, 79, 100
2, 7534880, Note_on_c, 0, 79, 0
2, 7534880, Note_on_c, 0, 72, 100
2, 7534960, Note_on_c, 0, 72, 0
2, 7534960, Note_on_c, 0, 74, 100
2, 7535040, Note_on_c, 0, 74, 0
2, 7535040, Note_on_c, 0, 77, 100
2, 7535120, Note_on_c, 0, 77, 0
2, 7535120, Note_on_c, 0, 71, 100
2, 7535200, Note_on_c, 0, 71, 0
2, 7535200, Note_on_c, 0, 72, 100
2, 7535280, Note_on_c, 0, 72, 0
2, 7535280, Note_on_c, 0, 76, 100
2, 7535360, Note_on_c, 0, 76, 0
2, 7535360, Note_on_c, 0, 69, 100
2, 7535440, Note_on_c, 0, 69, 0
2, 7535440, Note_on_c, 0, 71, 100
2, 7535520, Note_on_c, 0, 71, 0
2, 7535520, Note_on_c, 0, 74, 100
2, 7535600, Note_on_c, 0, 74, 0
2, 7535600, Note_on_c, 0, 67, 100
2, 7535680, Note_on_c, 0, 67, 0
2, 7535680, Note_on_c, 0, 69, 100
2, 7535760, Note_on_c, 0, 69, 0
2, 7535760, Note_on_c, 0, 72, 100
2, 7535840, Note_on_c, 0, 72, 0
2, 7535840, Note_on_c, 0, 66, 100
2, 7535920, Note_on_c, 0, 66, 0
2, 7535920, Note_on_c, 0, 67, 100
2, 7536000, Note_on_c, 0, 67, 0
2, 7536000, Note_on_c, 0, 71, 100
2, 7536080, Note_on_c, 0, 71, 0
2, 7536080, Note_on_c, 0, 64, 100
2, 7536160, Note_on_c, 0, 64, 0
2, 7536160, Note_on_c, 0, 66, 100
2, 7536240, Note_on_c, 0, 66, 0
2, 7536240, Note_on_c, 0, 62, 100
2, 7536320, Note_on_c, 0, 62, 0
2, 7536320, Note_on_c, 0, 64, 100
2, 7536400, Note_on_c, 0, 64, 0
2, 7536400, Note_on_c, 0, 66, 100
2, 7536480, Note_on_c, 0, 66, 0
2, 7536480, Note_on_c, 0, 67, 100
2, 7536560, Note_on_c, 0, 67, 0
2, 7536560, Note_on_c, 0, 69, 100
2, 7536640, Note_on_c, 0, 69, 0
2, 7536640, Note_on_c, 0, 59, 100
2, 7536720, Note_on_c, 0, 59, 0
2, 7536720, Note_on_c, 0, 57, 100
2, 7537040, Note_on_c, 0, 57, 0
2, 7537040, Note_on_c, 0, 55, 100
2, 7537120, Note_on_c, 0, 55, 0
2, 7537120, Note_on_c, 0, 64, 100
2, 7537200, Note_on_c, 0, 64, 0
2, 7537200, Note_on_c, 0, 67, 100
2, 7537440, Note_on_c, 0, 67, 0
2, 7537440, Note_on_c, 0, 66, 100
2, 7537500, Note_on_c, 0, 66, 0
2, 7537500, Note_on_c, 0, 64, 100
2, 7537560, Note_on_c, 0, 64, 0
2, 7537560, Note_on_c, 0, 66, 100
2, 7537620, Note_on_c, 0, 66, 0
2, 7537620, Note_on_c, 0, 67, 100
2, 7537680, Note_on_c, 0, 67, 0
2, 7537680, Note_on_c, 0, 62, 100
2, 7537760, Note_on_c, 0, 62, 0
2, 7537760, Note_on_c, 0, 59, 100
2, 7537840, Note_on_c, 0, 59, 0
2, 7537840, Note_on_c, 0, 55, 100
2, 7537920, Note_on_c, 0, 55, 0
2, 7537920, Note_on_c, 0, 50, 100
2, 7538000, Note_on_c, 0, 50, 0
2, 7538000, Note_on_c, 0, 47, 100
2, 7538080, Note_on_c, 0, 47, 0
2, 7538080, Note_on_c, 0, 43, 100
2, 7538160, Note_on_c, 0, 43, 0
2, 7538160, Note_on_c, 0, 81, 100
2, 7539240, Note_on_c, 0, 81, 0
2, 7539240, Note_on_c, 0, 78, 100
2, 7539480, Note_on_c, 0, 78, 0
2, 7539480, Note_on_c, 0, 74, 100
2, 7539720, Note_on_c, 0, 74, 0
2, 7539720, Note_on_c, 0, 69, 100
2, 7539960, Note_on_c, 0, 69, 0
2, 7539960, Note_on_c, 0, 66, 100
2, 7540200, Note_on_c, 0, 66, 0
2, 7540200, Note_on_c, 0, 62, 100
2, 7540440, Note_on_c, 0, 62, 0
2, 7540440, Note_on_c, 0, 59, 100
2, 7540680, Note_on_c, 0, 59, 0
2, 7540680, Note_on_c, 0, 55, 100
2, 7540920, Note_on_c, 0, 55, 0
2, 7540920, Note_on_c, 0, 50, 100
2, 7541160, Note_on_c, 0, 50, 0
2, 7541160, Note_on_c, 0, 47, 100
2, 7541400, Note_on_c, 0, 47, 0
2, 7541400, Note_on_c, 0, 43, 100
2, 7541640, Note_on_c, 0, 43, 0
2, 7541640, Note_on_c, 0, 45, 100
2, 7541760, Note_on_c, 0, 45, 0
2, 7541760, Note_on_c, 0, 47, 100
2, 7541880, Note_on_c, 0, 47, 0
2, 7541880, Note_on_c, 0, 48, 100
2, 7542000, Note_on_c, 0, 48, 0
2, 7542000, Note_on_c, 0, 55, 100
2, 7542240, Note_on_c, 0, 55, 0
2, 7542240, Note_on_c, 0, 60, 100
2, 7542480, Note_on_c, 0, 60, 0
2, 7542480, Note_on_c, 0, 64, 100
2, 7542720, Note_on_c, 0, 64, 0
2, 7542720, Note_on_c, 0, 57, 100
2, 7542960, Note_on_c, 0, 57, 0
2, 7542960, Note_on_c, 0, 72, 100
2, 7543200, Note_on_c, 0, 72, 0
2, 7543200, Note_on_c, 0, 71, 100
2, 7543520, Note_on_c, 0, 71, 0
2, 7543520, Note_on_c, 0, 70, 100
2, 7543600, Note_on_c, 0, 70, 0
2, 7543600, Note_on_c, 0, 71, 100
2, 7543680, Note_on_c, 0, 71, 0
2, 7543680, Note_on_c, 0, 73, 100
2, 7543760, Note_on_c, 0, 73, 0
2, 7543760, Note_on_c, 0, 75, 100
2, 7543840, Note_on_c, 0, 75, 0
2, 7543840, Note_on_c, 0, 76, 100
2, 7543920, Note_on_c, 0, 76, 0
2, 7543920, Note_on_c, 0, 75, 100
2, 7544000, Note_on_c, 0, 75, 0
2, 7544000, Note_on_c, 0, 73, 100
2, 7544080, Note_on_c, 0, 73, 0
2, 7544080, Note_on_c, 0, 75, 100
2, 7544160, Note_on_c, 0, 75, 0
2, 7544160, Note_on_c, 0, 76, 100
2, 7544240, Note_on_c, 0, 76, 0
2, 7544240, Note_on_c, 0, 78, 100
2, 7544320, Note_on_c, 0, 78, 0
2, 7544320, Note_on_c, 0, 79, 100
2, 7544400, Note_on_c, 0, 79, 0
2, 7544400, Note_on_c, 0, 78, 100
2, 7544480, Note_on_c, 0, 78, 0
2, 7544480, Note_on_c, 0, 76, 100
2, 7544560, Note_on_c, 0, 76, 0
2, 7544560, Note_on_c, 0, 78, 100
2, 7544640, Note_on_c, 0, 78, 0
2, 7544640, Note_on_c, 0, 79, 100
2, 7544720, Note_on_c, 0, 79, 0
2, 7544720, Note_on_c, 0, 81, 100
2, 7544800, Note_on_c, 0, 81, 0
2, 7544800, Note_on_c, 0, 83, 100
2, 7544880, Note_on_c, 0, 83, 0
2, 7544880, Note_on_c, 0, 81, 100
2, 7544960, Note_on_c, 0, 81, 0
2, 7544960, Note_on_c, 0, 79, 100
2, 7545040, Note_on_c, 0, 79, 0
2, 7545040, Note_on_c, 0, 81, 100
2, 7545120, Note_on_c, 0, 81, 0
2, 7545120, Note_on_c, 0, 83, 100
2, 7545200, Note_on_c, 0, 83, 0
2, 7545200, Note_on_c, 0, 84, 100
2, 7545280, Note_on_c, 0, 84, 0
2, 7545280, Note_on_c, 0, 75, 100
2, 7545360, Note_on_c, 0, 75, 0
2, 7545360, Note_on_c, 0, 84, 100
2, 7545600, Note_on_c, 0, 84, 0
2, 7545600, Note_on_c, 0, 83, 100
2, 7545840, Note_on_c, 0, 83, 0
2, 7545840, Note_on_c, 0, 74, 100
2, 7546080, Note_on_c, 0, 74, 0
2, 7546080, Note_on_c, 0, 73, 100
2, 7546400, Note_on_c, 0, 73, 0
2, 7546400, Note_on_c, 0, 75, 100
2, 7546480, Note_on_c, 0, 75, 0
2, 7546480, Note_on_c, 0, 76, 100
2, 7546560, Note_on_c, 0, 76, 0
2, 7546560, Note_on_c, 0, 78, 100
2, 7546640, Note_on_c, 0, 78, 0
2, 7546640, Note_on_c, 0, 79, 100
2, 7546720, Note_on_c, 0, 79, 0
2, 7546720, Note_on_c, 0, 70, 100
2, 7546800, Note_on_c, 0, 70, 0
2, 7546800, Note_on_c, 0, 79, 100
2, 7547040, Note_on_c, 0, 79, 0
2, 7547040, Note_on_c, 0, 78, 100
2, 7547280, Note_on_c, 0, 78, 0
2, 7547280, Note_on_c, 0, 69, 100
2, 7547520, Note_on_c, 0, 69, 0
2, 7547520, Note_on_c, 0, 67, 100
2, 7547760, Note_on_c, 0, 67, 0
2, 7547760, Note_on_c, 0, 63, 100
2, 7548000, Note_on_c, 0, 63, 0
2, 7548000, Note_on_c, 0, 64, 100
2, 7548240, Note_on_c, 0, 64, 0
2, 7548240, Note_on_c, 0, 60, 100
2, 7548480, Note_on_c, 0, 60, 0
2, 7548480, Note_on_c, 0, 51, 100
2, 7548720, Note_on_c, 0, 51, 0
2, 7548720, Note_on_c, 0, 75, 100
2, 7548960, Note_on_c, 0, 75, 0
2, 7548960, Note_on_c, 0, 76, 100
2, 7549200, Note_on_c, 0, 76, 0
2, 7549200, Note_on_c, 0, 64, 100
2, 7549440, Note_on_c, 0, 64, 0
2, 7549440, Note_on_c, 0, 67, 100
2, 7549760, Note_on_c, 0, 67, 0
2, 7549760, Note_on_c, 0, 71, 100
2, 7549840, Note_on_c, 0, 71, 0
2, 7549840, Note_on_c, 0, 76, 100
2, 7549920, Note_on_c, 0, 76, 0
2, 7549920, Note_on_c, 0, 79, 100
2, 7550000, Note_on_c, 0, 79, 0
2, 7550000, Note_on_c, 0, 75, 100
2, 7550080, Note_on_c, 0, 75, 0
2, 7550080, Note_on_c, 0, 76, 100
2, 7550160, Note_on_c, 0, 76, 0
2, 7550160, Note_on_c, 0, 71, 100
2, 7550240, Note_on_c, 0, 71, 0
2, 7550240, Note_on_c, 0, 67, 100
2, 7550320, Note_on_c, 0, 67, 0
2, 7550320, Note_on_c, 0, 68, 100
2, 7550480, Note_on_c, 0, 68, 0
2, 7550480, Note_on_c, 0, 77, 100
2, 7550580, Note_on_c, 0, 77, 0
2, 7550580, Note_on_c, 0, 76, 100
2, 7550640, Note_on_c, 0, 76, 0
2, 7550640, Note_on_c, 0, 72, 100
2, 7550720, Note_on_c, 0, 72, 0
2, 7550720, Note_on_c, 0, 69, 100
2, 7550800, Note_on_c, 0, 69, 0
2, 7550800, Note_on_c, 0, 62, 100
2, 7550960, Note_on_c, 0, 62, 0
2, 7550960, Note_on_c, 0, 71, 100
2, 7551040, Note_on_c, 0, 71, 0
2, 7551040, Note_on_c, 0, 60, 100
2, 7551200, Note_on_c, 0, 60, 0
2, 7551200, Note_on_c, 0, 69, 100
2, 7551280, Note_on_c, 0, 69, 0
2, 7551280, Note_on_c, 0, 59, 100
2, 7551440, Note_on_c, 0, 59, 0
2, 7551440, Note_on_c, 0, 67, 100
2, 7551520, Note_on_c, 0, 67, 0
2, 7551520, Note_on_c, 0, 60, 100
2, 7551680, Note_on_c, 0, 60, 0
2, 7551680, Note_on_c, 0, 69, 100
2, 7551760, Note_on_c, 0, 69, 0
2, 7551760, Note_on_c, 0, 66, 100
2, 7551920, Note_on_c, 0, 66, 0
2, 7551920, Note_on_c, 0, 75, 100
2, 7552000, Note_on_c, 0, 75, 0
2, 7552000, Note_on_c, 0, 74, 100
2, 7552080, Note_on_c, 0, 74, 0
2, 7552080, Note_on_c, 0, 71, 100
2, 7552160, Note_on_c, 0, 71, 0
2, 7552160, Note_on_c, 0, 67, 100
2, 7552240, Note_on_c, 0, 67, 0
2, 7552240, Note_on_c, 0, 60, 100
2, 7552400, Note_on_c, 0, 60, 0
2, 7552400, Note_on_c, 0, 69, 100
2, 7552480, Note_on_c, 0, 69, 0
2, 7552480, Note_on_c, 0, 59, 100
2, 7552640, Note_on_c, 0, 59, 0
2, 7552640, Note_on_c, 0, 67, 100
2, 7552720, Note_on_c, 0, 67, 0
2, 7552720, Note_on_c, 0, 57, 100
2, 7552880, Note_on_c, 0, 57, 0
2, 7552880, Note_on_c, 0, 66, 100
2, 7552960, Note_on_c, 0, 66, 0
2, 7552960, Note_on_c, 0, 59, 100
2, 7553120, Note_on_c, 0, 59, 0
2, 7553120, Note_on_c, 0, 67, 100
2, 7553200, Note_on_c, 0, 67, 0
2, 7553200, Note_on_c, 0, 64, 100
2, 7553360, Note_on_c, 0, 64, 0
2, 7553360, Note_on_c, 0, 74, 100
2, 7553440, Note_on_c, 0, 74, 0
2, 7553440, Note_on_c, 0, 72, 100
2, 7553520, Note_on_c, 0, 72, 0
2, 7553520, Note_on_c, 0, 69, 100
2, 7553600, Note_on_c, 0, 69, 0
2, 7553600, Note_on_c, 0, 64, 100
2, 7553680, Note_on_c, 0, 64, 0
2, 7553680, Note_on_c, 0, 60, 100
2, 7554480, Note_on_c, 0, 60, 0
2, 7554480, Note_on_c, 0, 72, 100
2, 7554960, Note_on_c, 0, 72, 0
2, 7554960, Note_on_c, 0, 69, 100
2, 7555040, Note_on_c, 0, 69, 0
2, 7555040, Note_on_c, 0, 66, 100
2, 7555120, Note_on_c, 0, 66, 0
2, 7555120, Note_on_c, 0, 62, 100
2, 7555920, Note_on_c, 0, 62, 0
2, 7555920, Note_on_c, 0, 72, 100
2, 7556160, Note_on_c, 0, 72, 0
2, 7556160, Note_on_c, 0, 71, 100
2, 7556400, Note_on_c, 0, 71, 0
2, 7556400, Note_on_c, 0, 67, 100
2, 7556480, Note_on_c, 0, 67, 0
2, 7556480, Note_on_c, 0, 74, 100
2, 7556560, Note_on_c, 0, 74, 0
2, 7556560, Note_on_c, 0, 72, 100
2, 7556640, Note_on_c, 0, 72, 0
2, 7556640, Note_on_c, 0, 69, 100
2, 7556720, Note_on_c, 0, 69, 0
2, 7556720, Note_on_c, 0, 76, 100
2, 7556800, Note_on_c, 0, 76, 0
2, 7556800, Note_on_c, 0, 74, 100
2, 7556880, Note_on_c, 0, 74, 0
2, 7556880, Note_on_c, 0, 59, 100
2, 7557120, Note_on_c, 0, 59, 0
2, 7557120, Note_on_c, 0, 55, 100
2, 7557360, Note_on_c, 0, 55, 0
2, 7557360, Note_on_c, 0, 77, 100
2, 7557600, Note_on_c, 0, 77, 0
2, 7557600, Note_on_c, 0, 76, 100
2, 7557840, Note_on_c, 0, 76, 0
2, 7557840, Note_on_c, 0, 79, 100
2, 7557920, Note_on_c, 0, 79, 0
2, 7557920, Note_on_c, 0, 72, 100
2, 7558000, Note_on_c, 0, 72, 0
2, 7558000, Note_on_c, 0, 74, 100
2, 7558080, Note_on_c, 0, 74, 0
2, 7558080, Note_on_c, 0, 77, 100
2, 7558160, Note_on_c, 0, 77, 0
2, 7558160, Note_on_c, 0, 71, 100
2, 7558240, Note_on_c, 0, 71, 0
2, 7558240, Note_on_c, 0, 72, 100
2, 7558320, Note_on_c, 0, 72, 0
2, 7558320, Note_on_c, 0, 76, 100
2, 7558400, Note_on_c, 0, 76, 0
2, 7558400, Note_on_c, 0, 69, 100
2, 7558480, Note_on_c, 0, 69, 0
2, 7558480, Note_on_c, 0, 71, 100
2, 7558560, Note_on_c, 0, 71, 0
2, 7558560, Note_on_c, 0, 74, 100
2, 7558640, Note_on_c, 0, 74, 0
2, 7558640, Note_on_c, 0, 67, 100
2, 7558720, Note_on_c, 0, 67, 0
2, 7558720, Note_on_c, 0, 69, 100
2, 7558800, Note_on_c, 0, 69, 0
2, 7558800, Note_on_c, 0, 72, 100
2, 7558880, Note_on_c, 0, 72, 0
2, 7558880, Note_on_c, 0, 66, 100
2, 7558960, Note_on_c, 0, 66, 0
2, 7558960, Note_on_c, 0, 67, 100
2, 7559040, Note_on_c, 0, 67, 0
2, 7559040, Note_on_c, 0, 71, 100
2, 7559120, Note_on_c, 0, 71, 0
2, 7559120, Note_on_c, 0, 64, 100
2, 7559200, Note_on_c, 0, 64, 0
2, 7559200, Note_on_c, 0, 66, 100
2, 7559280, Note_on_c, 0, 66, 0
2, 7559280, Note_on_c, 0, 62, 100
2, 7559360, Note_on_c, 0, 62, 0
2, 7559360, Note_on_c, 0, 64, 100
2, 7559440, Note_on_c, 0, 64, 0
2, 7559440, Note_on_c, 0, 66, 100
2, 7559520, Note_on_c, 0, 66, 0
2, 7559520, Note_on_c, 0, 67, 100
2, 7559600, Note_on_c, 0, 67, 0
2, 7559600, Note_on_c, 0, 69, 100
2, 7559680, Note_on_c, 0, 69, 0
2, 7559680, Note_on_c, 0, 59, 100
2, 7559760, Note_on_c, 0, 59, 0
2, 7559760, Note_on_c, 0, 57, 100
2, 7560080, Note_on_c, 0, 57, 0
2, 7560080, Note_on_c, 0, 55, 100
2, 7560160, Note_on_c, 0, 55, 0
2, 7560160, Note_on_c, 0, 64, 100
2, 7560240, Note_on_c, 0, 64, 0
2, 7560240, Note_on_c, 0, 67, 100
2, 7560480, Note_on_c, 0, 67, 0
2, 7560480, Note_on_c, 0, 66, 100
2, 7560540, Note_on_c, 0, 66, 0
2, 7560540, Note_on_c, 0, 64, 100
2, 7560600, Note_on_c, 0, 64, 0
2, 7560600, Note_on_c, 0, 66, 100
2, 7560660, Note_on_c, 0, 66, 0
2, 7560660, Note_on_c, 0, 67, 100
2, 7560720, Note_on_c, 0, 67, 0
2, 7560720, Note_on_c, 0, 62, 100
2, 7560800, Note_on_c, 0, 62, 0
2, 7560800, Note_on_c, 0, 59, 100
2, 7560880, Note_on_c, 0, 59, 0
2, 7560880, Note_on_c, 0, 55, 100
2, 7560960, Note_on_c, 0, 55, 0
2, 7560960, Note_on_c, 0, 50, 100
2, 7561040, Note_on_c, 0, 50, 0
2, 7561040, Note_on_c, 0, 47, 100
2, 7561120, Note_on_c, 0, 47, 0
2, 7561120, Note_on_c, 0, 43, 100
2, 7561200, Note_on_c, 0, 43, 0
2, 7561200, Note_on_c, 0, 67, 100
2, 7628400, Note_on_c, 0, 67, 0
2, 7628400, Note_on_c, 0, 66, 100
2, 7629840, Note_on_c, 0, 66, 0
2, 7629840, Note_on_c, 0, 64, 100
2, 7630080, Note_on_c, 0, 64, 0
2, 7630080, Note_on_c, 0, 66, 100
2, 7630320, Note_on_c, 0, 66, 0
2, 7630320, Note_on_c, 0, 69, 100
2, 7630800, Note_on_c, 0, 69, 0
2, 7630800, Note_on_c, 0, 62, 100
2, 7631280, Note_on_c, 0, 62, 0
2, 7631280, Note_on_c, 0, 65, 100
2, 7632720, Note_on_c, 0, 65, 0
2, 7632720, Note_on_c, 0, 64, 100
2, 7633200, Note_on_c, 0, 64, 0
2, 7633200, Note_on_c, 0, 67, 100
2, 7634640, Note_on_c, 0, 67, 0
2, 7634640, Note_on_c, 0, 66, 100
2, 7635600, Note_on_c, 0, 66, 0
2, 7635600, Note_on_c, 0, 64, 100
2, 7635840, Note_on_c, 0, 64, 0
2, 7635840, Note_on_c, 0, 66, 100
2, 7636080, Note_on_c, 0, 66, 0
2, 7636080, Note_on_c, 0, 69, 100
2, 7636560, Note_on_c, 0, 69, 0
2, 7636560, Note_on_c, 0, 67, 100
2, 7637520, Note_on_c, 0, 67, 0
2, 7637520, Note_on_c, 0, 66, 100
2, 7637760, Note_on_c, 0, 66, 0
2, 7637760, Note_on_c, 0, 67, 100
2, 7638000, Note_on_c, 0, 67, 0
2, 7638000, Note_on_c, 0, 71, 100
2, 7638480, Note_on_c, 0, 71, 0
2, 7638480, Note_on_c, 0, 64, 100
2, 7638960, Note_on_c, 0, 64, 0
2, 7638960, Note_on_c, 0, 71, 100
2, 7639920, Note_on_c, 0, 71, 0
2, 7639920, Note_on_c, 0, 69, 100
2, 7640880, Note_on_c, 0, 69, 0
2, 7640880, Note_on_c, 0, 74, 100
2, 7641840, Note_on_c, 0, 74, 0
2, 7641840, Note_on_c, 0, 78, 100
2, 7642800, Note_on_c, 0, 78, 0
2, 7642800, Note_on_c, 0, 76, 100
2, 7642960, Note_on_c, 0, 76, 0
2, 7642960, Note_on_c, 0, 78, 100
2, 7643120, Note_on_c, 0, 78, 0
2, 7643120, Note_on_c, 0, 76, 100
2, 7643280, Note_on_c, 0, 76, 0
2, 7643280, Note_on_c, 0, 78, 100
2, 7643440, Note_on_c, 0, 78, 0
2, 7643440, Note_on_c, 0, 76, 100
2, 7643600, Note_on_c, 0, 76, 0
2, 7643600, Note_on_c, 0, 78, 100
2, 7643760, Note_on_c, 0, 78, 0
2, 7643760, Note_on_c, 0, 76, 100
2, 7643920, Note_on_c, 0, 76, 0
2, 7643920, Note_on_c, 0, 78, 100
2, 7644080, Note_on_c, 0, 78, 0
2, 7644080, Note_on_c, 0, 76, 100
2, 7644240, Note_on_c, 0, 76, 0
2, 7644240, Note_on_c, 0, 78, 100
2, 7644400, Note_on_c, 0, 78, 0
2, 7644400, Note_on_c, 0, 76, 100
2, 7644560, Note_on_c, 0, 76, 0
2, 7644560, Note_on_c, 0, 78, 100
2, 7644720, Note_on_c, 0, 78, 0
2, 7644720, Note_on_c, 0, 76, 100
2, 7644880, Note_on_c, 0, 76, 0
2, 7644880, Note_on_c, 0, 78, 100
2, 7645040, Note_on_c, 0, 78, 0
2, 7645040, Note_on_c, 0, 76, 100
2, 7645200, Note_on_c, 0, 76, 0
2, 7645200, Note_on_c, 0, 78, 100
2, 7645360, Note_on_c, 0, 78, 0
2, 7645360, Note_on_c, 0, 76, 100
2, 7645520, Note_on_c, 0, 76, 0
2, 7645520, Note_on_c, 0, 78, 100
2, 7645680, Note_on_c, 0, 78, 0
2, 7645680, Note_on_c, 0, 76, 100
2, 7645800, Note_on_c, 0, 76, 0
2, 7645800, Note_on_c, 0, 78, 100
2, 7645920, Note_on_c, 0, 78, 0
2, 7645920, Note_on_c, 0, 76, 100
2, 7646040, Note_on_c, 0, 76, 0
2, 7646040, Note_on_c, 0, 78, 100
2, 7646160, Note_on_c, 0, 78, 0
2, 7646160, Note_on_c, 0, 76, 100
2, 7646280, Note_on_c, 0, 76, 0
2, 7646280, Note_on_c, 0, 78, 100
2, 7646400, Note_on_c, 0, 78, 0
2, 7646400, Note_on_c, 0, 76, 100
2, 7646520, Note_on_c, 0, 76, 0
2, 7646520, Note_on_c, 0, 78, 100
2, 7646640, Note_on_c, 0, 78, 0
2, 7646640, Note_on_c, 0, 76, 100
2, 7646760, Note_on_c, 0, 76, 0
2, 7646760, Note_on_c, 0, 78, 100
2, 7646880, Note_on_c, 0, 78, 0
2, 7646880, Note_on_c, 0, 76, 100
2, 7647000, Note_on_c, 0, 76, 0
2, 7647000, Note_on_c, 0, 74, 100
2, 7647120, Note_on_c, 0, 74, 0
2, 7647120, Note_on_c, 0, 73, 100
2, 7647360, Note_on_c, 0, 73, 0
2, 7647360, Note_on_c, 0, 74, 100
2, 7647600, Note_on_c, 0, 74, 0
2, 7647600, Note_on_c, 0, 78, 100
2, 7648080, Note_on_c, 0, 78, 0
2, 7648080, Note_on_c, 0, 71, 100
2, 7648560, Note_on_c, 0, 71, 0
2, 7648560, Note_on_c, 0, 76, 100
2, 7650000, Note_on_c, 0, 76, 0
2, 7650000, Note_on_c, 0, 74, 100
2, 7650240, Note_on_c, 0, 74, 0
2, 7650240, Note_on_c, 0, 76, 100
2, 7650480, Note_on_c, 0, 76, 0
2, 7650480, Note_on_c, 0, 74, 100
2, 7650960, Note_on_c, 0, 74, 0
2, 7650960, Note_on_c, 0, 73, 100
2, 7651920, Note_on_c, 0, 73, 0
2, 7651920, Note_on_c, 0, 74, 100
2, 7652400, Note_on_c, 0, 74, 0
2, 7652400, Note_on_c, 0, 69, 100
2, 7652880, Note_on_c, 0, 69, 0
2, 7652880, Note_on_c, 0, 67, 100
2, 7653120, Note_on_c, 0, 67, 0
2, 7653120, Note_on_c, 0, 69, 100
2, 7653360, Note_on_c, 0, 69, 0
2, 7653360, Note_on_c, 0, 67, 100
2, 7659120, Note_on_c, 0, 67, 0
2, 7659120, Note_on_c, 0, 66, 100
2, 7660560, Note_on_c, 0, 66, 0
2, 7660560, Note_on_c, 0, 64, 100
2, 7660800, Note_on_c, 0, 64, 0
2, 7660800, Note_on_c, 0, 66, 100
2, 7661040, Note_on_c, 0, 66, 0
2, 7661040, Note_on_c, 0, 69, 100
2, 7661520, Note_on_c, 0, 69, 0
2, 7661520, Note_on_c, 0, 62, 100
2, 7662000, Note_on_c, 0, 62, 0
2, 7662000, Note_on_c, 0, 65, 100
2, 7663440, Note_on_c, 0, 65, 0
2, 7663440, Note_on_c, 0, 64, 100
2, 7663920, Note_on_c, 0, 64, 0
2, 7663920, Note_on_c, 0, 67, 100
2, 7665360, Note_on_c, 0, 67, 0
2, 7665360, Note_on_c, 0, 66, 100
2, 7666320, Note_on_c, 0, 66, 0
2, 7666320, Note_on_c, 0, 64, 100
2, 7666560, Note_on_c, 0, 64, 0
2, 7666560, Note_on_c, 0, 66, 100
2, 7666800, Note_on_c, 0, 66, 0
2, 7666800, Note_on_c, 0, 69, 100
2, 7667280, Note_on_c, 0, 69, 0
2, 7667280, Note_on_c, 0, 67, 100
2, 7668240, Note_on_c, 0, 67, 0
2, 7668240, Note_on_c, 0, 66, 100
2, 7668480, Note_on_c, 0, 66, 0
2, 7668480, Note_on_c, 0, 67, 100
2, 7668720, Note_on_c, 0, 67, 0
2, 7668720, Note_on_c, 0, 71, 100
2, 7669200, Note_on_c, 0, 71, 0
2, 7669200, Note_on_c, 0, 64, 100
2, 7669680, Note_on_c, 0, 64, 0
2, 7669680, Note_on_c, 0, 71, 100
2, 7670640, Note_on_c, 0, 71, 0
2, 7670640, Note_on_c, 0, 69, 100
2, 7671600, Note_on_c, 0, 69, 0
2, 7671600, Note_on_c, 0, 74, 100
2, 7672560, Note_on_c, 0, 74, 0
2, 7672560, Note_on_c, 0, 78, 100
2, 7673520, Note_on_c, 0, 78, 0
2, 7673520, Note_on_c, 0, 76, 100
2, 7673680, Note_on_c, 0, 76, 0
2, 7673680, Note_on_c, 0, 78, 100
2, 7673840, Note_on_c, 0, 78, 0
2, 7673840, Note_on_c, 0, 76, 100
2, 7674000, Note_on_c, 0, 76, 0
2, 7674000, Note_on_c, 0, 78, 100
2, 7674160, Note_on_c, 0, 78, 0
2, 7674160, Note_on_c, 0, 76, 100
2, 7674320, Note_on_c, 0, 76, 0
2, 7674320, Note_on_c, 0, 78, 100
2, 7674480, Note_on_c, 0, 78, 0
2, 7674480, Note_on_c, 0, 76, 100
2, 7674640, Note_on_c, 0, 76, 0
2, 7674640, Note_on_c, 0, 78, 100
2, 7674800, Note_on_c, 0, 78, 0
2, 7674800, Note_on_c, 0, 76, 100
2, 7674960, Note_on_c, 0, 76, 0
2, 7674960, Note_on_c, 0, 78, 100
2, 7675120, Note_on_c, 0, 78, 0
2, 7675120, Note_on_c, 0, 76, 100
2, 7675280, Note_on_c, 0, 76, 0
2, 7675280, Note_on_c, 0, 78, 100
2, 7675440, Note_on_c, 0, 78, 0
2, 7675440, Note_on_c, 0, 76, 100
2, 7675600, Note_on_c, 0, 76, 0
2, 7675600, Note_on_c, 0, 78, 100
2, 7675760, Note_on_c, 0, 78, 0
2, 7675760, Note_on_c, 0, 76, 100
2, 7675920, Note_on_c, 0, 76, 0
2, 7675920, Note_on_c, 0, 78, 100
2, 7676080, Note_on_c, 0, 78, 0
2, 7676080, Note_on_c, 0, 76, 100
2, 7676240, Note_on_c, 0, 76, 0
2, 7676240, Note_on_c, 0, 78, 100
2, 7676400, Note_on_c, 0, 78, 0
2, 7676400, Note_on_c, 0, 76, 100
2, 7676520, Note_on_c, 0, 76, 0
2, 7676520, Note_on_c, 0, 78, 100
2, 7676640, Note_on_c, 0, 78, 0
2, 7676640, Note_on_c, 0, 76, 100
2, 7676760, Note_on_c, 0, 76, 0
2, 7676760, Note_on_c, 0, 78, 100
2, 7676880, Note_on_c, 0, 78, 0
2, 7676880, Note_on_c, 0, 76, 100
2, 7677000, Note_on_c, 0, 76, 0
2, 7677000, Note_on_c, 0, 78, 100
2, 7677120, Note_on_c, 0, 78, 0
2, 7677120, Note_on_c, 0, 76, 100
2, 7677240, Note_on_c, 0, 76, 0
2, 7677240, Note_on_c, 0, 78, 100
2, 7677360, Note_on_c, 0, 78, 0
2, 7677360, Note_on_c, 0, 76, 100
2, 7677480, Note_on_c, 0, 76, 0
2, 7677480, Note_on_c, 0, 78, 100
2, 7677600, Note_on_c, 0, 78, 0
2, 7677600, Note_on_c, 0, 76, 100
2, 7677720, Note_on_c, 0, 76, 0
2, 7677720, Note_on_c, 0, 74, 100
2, 7677840, Note_on_c, 0, 74, 0
2, 7677840, Note_on_c, 0, 73, 100
2, 7678080, Note_on_c, 0, 73, 0
2, 7678080, Note_on_c, 0, 74, 100
2, 7678320, Note_on_c, 0, 74, 0
2, 7678320, Note_on_c, 0, 78, 100
2, 7678800, Note_on_c, 0, 78, 0
2, 7678800, Note_on_c, 0, 71, 100
2, 7679280, Note_on_c, 0, 71, 0
2, 7679280, Note_on_c, 0, 76, 100
2, 7680720, Note_on_c, 0, 76, 0
2, 7680720, Note_on_c, 0, 74, 100
2, 7680960, Note_on_c, 0, 74, 0
2, 7680960, Note_on_c, 0, 76, 100
2, 7681200, Note_on_c, 0, 76, 0
2, 7681200, Note_on_c, 0, 74, 100
2, 7681680, Note_on_c, 0, 74, 0
2, 7681680, Note_on_c, 0, 73, 100
2, 7682640, Note_on_c, 0, 73, 0
2, 7682640, Note_on_c, 0, 74, 100
2, 7683120, Note_on_c, 0, 74, 0
2, 7683120, Note_on_c, 0, 69, 100
2, 7683600, Note_on_c, 0, 69, 0
2, 7683600, Note_on_c, 0, 67, 100
2, 7683840, Note_on_c, 0, 67, 0
2, 7683840, Note_on_c, 0, 69, 100
2, 7684080, Note_on_c, 0, 69, 0
2, 7684080, Note_on_c, 0, 71, 100
2, 7687920, Note_on_c, 0, 71, 0
2, 7687920, Note_on_c, 0, 69, 100
2, 7689360, Note_on_c, 0, 69, 0
2, 7689360, Note_on_c, 0, 67, 100
2, 7689600, Note_on_c, 0, 67, 0
2, 7689600, Note_on_c, 0, 69, 100
2, 7689840, Note_on_c, 0, 69, 0
2, 7689840, Note_on_c, 0, 72, 100
2, 7690320, Note_on_c, 0, 72, 0
2, 7690320, Note_on_c, 0, 66, 100
2, 7690800, Note_on_c, 0, 66, 0
2, 7690800, Note_on_c, 0, 71, 100
2, 7691760, Note_on_c, 0, 71, 0
2, 7691760, Note_on_c, 0, 79, 100
2, 7693680, Note_on_c, 0, 79, 0
2, 7693680, Note_on_c, 0, 78, 100
2, 7695120, Note_on_c, 0, 78, 0
2, 7695120, Note_on_c, 0, 76, 100
2, 7695360, Note_on_c, 0, 76, 0
2, 7695360, Note_on_c, 0, 78, 100
2, 7695600, Note_on_c, 0, 78, 0
2, 7695600, Note_on_c, 0, 81, 100
2, 7696080, Note_on_c, 0, 81, 0
2, 7696080, Note_on_c, 0, 75, 100
2, 7696560, Note_on_c, 0, 75, 0
2, 7696560, Note_on_c, 0, 76, 100
2, 7697040, Note_on_c, 0, 76, 0
2, 7697040, Note_on_c, 0, 75, 100
2, 7698000, Note_on_c, 0, 75, 0
2, 7698000, Note_on_c, 0, 76, 100
2, 7698480, Note_on_c, 0, 76, 0
2, 7698480, Note_on_c, 0, 71, 100
2, 7699440, Note_on_c, 0, 71, 0
2, 7699440, Note_on_c, 0, 69, 100
2, 7700880, Note_on_c, 0, 69, 0
2, 7700880, Note_on_c, 0, 67, 100
2, 7701120, Note_on_c, 0, 67, 0
2, 7701120, Note_on_c, 0, 69, 100
2, 7701360, Note_on_c, 0, 69, 0
2, 7701360, Note_on_c, 0, 72, 100
2, 7701840, Note_on_c, 0, 72, 0
2, 7701840, Note_on_c, 0, 66, 100
2, 7702320, Note_on_c, 0, 66, 0
2, 7702320, Note_on_c, 0, 62, 100
2, 7702800, Note_on_c, 0, 62, 0
2, 7702800, Note_on_c, 0, 67, 100
2, 7703280, Note_on_c, 0, 67, 0
2, 7703280, Note_on_c, 0, 66, 100
2, 7704720, Note_on_c, 0, 66, 0
2, 7704720, Note_on_c, 0, 64, 100
2, 7704960, Note_on_c, 0, 64, 0
2, 7704960, Note_on_c, 0, 66, 100
2, 7705200, Note_on_c, 0, 66, 0
2, 7705200, Note_on_c, 0, 69, 100
2, 7705680, Note_on_c, 0, 69, 0
2, 7705680, Note_on_c, 0, 62, 100
2, 7706160, Note_on_c, 0, 62, 0
2, 7706160, Note_on_c, 0, 67, 100
2, 7710480, Note_on_c, 0, 67, 0
2, 7710480, Note_on_c, 0, 66, 100
2, 7710720, Note_on_c, 0, 66, 0
2, 7710720, Note_on_c, 0, 67, 100
2, 7710960, Note_on_c, 0, 67, 0
2, 7710960, Note_on_c, 0, 66, 100
2, 7712400, Note_on_c, 0, 66, 0
2, 7712400, Note_on_c, 0, 64, 100
2, 7712640, Note_on_c, 0, 64, 0
2, 7712640, Note_on_c, 0, 66, 100
2, 7712880, Note_on_c, 0, 66, 0
2, 7712880, Note_on_c, 0, 69, 100
2, 7713360, Note_on_c, 0, 69, 0
2, 7713360, Note_on_c, 0, 67, 100
2, 7714320, Note_on_c, 0, 67, 0
2, 7714320, Note_on_c, 0, 66, 100
2, 7714560, Note_on_c, 0, 66, 0
2, 7714560, Note_on_c, 0, 67, 100
2, 7714800, Note_on_c, 0, 67, 0
2, 7714800, Note_on_c, 0, 71, 100
2, 7718640, Note_on_c, 0, 71, 0
2, 7718640, Note_on_c, 0, 69, 100
2, 7720080, Note_on_c, 0, 69, 0
2, 7720080, Note_on_c, 0, 67, 100
2, 7720320, Note_on_c, 0, 67, 0
2, 7720320, Note_on_c, 0, 69, 100
2, 7720560, Note_on_c, 0, 69, 0
2, 7720560, Note_on_c, 0, 72, 100
2, 7721040, Note_on_c, 0, 72, 0
2, 7721040, Note_on_c, 0, 66, 100
2, 7721520, Note_on_c, 0, 66, 0
2, 7721520, Note_on_c, 0, 71, 100
2, 7722480, Note_on_c, 0, 71, 0
2, 7722480, Note_on_c, 0, 79, 100
2, 7724400, Note_on_c, 0, 79, 0
2, 7724400, Note_on_c, 0, 78, 100
2, 7725840, Note_on_c, 0, 78, 0
2, 7725840, Note_on_c, 0, 76, 100
2, 7726080, Note_on_c, 0, 76, 0
2, 7726080, Note_on_c, 0, 78, 100
2, 7726320, Note_on_c, 0, 78, 0
2, 7726320, Note_on_c, 0, 81, 100
2, 7726800, Note_on_c, 0, 81, 0
2, 7726800, Note_on_c, 0, 75, 100
2, 7727280, Note_on_c, 0, 75, 0
2, 7727280, Note_on_c, 0, 76, 100
2, 7727760, Note_on_c, 0, 76, 0
2, 7727760, Note_on_c, 0, 75, 100
2, 7728720, Note_on_c, 0, 75, 0
2, 7728720, Note_on_c, 0, 76, 100
2, 7729200, Note_on_c, 0, 76, 0
2, 7729200, Note_on_c, 0, 71, 100
2, 7730160, Note_on_c, 0, 71, 0
2, 7730160, Note_on_c, 0, 69, 100
2, 7731600, Note_on_c, 0, 69, 0
2, 7731600, Note_on_c, 0, 67, 100
2, 7731840, Note_on_c, 0, 67, 0
2, 7731840, Note_on_c, 0, 69, 100
2, 7732080, Note_on_c, 0, 69, 0
2, 7732080, Note_on_c, 0, 72, 100
2, 7732560, Note_on_c, 0, 72, 0
2, 7732560, Note_on_c, 0, 66, 100
2, 7733040, Note_on_c, 0, 66, 0
2, 7733040, Note_on_c, 0, 62, 100
2, 7733520, Note_on_c, 0, 62, 0
2, 7733520, Note_on_c, 0, 67, 100
2, 7734000, Note_on_c, 0, 67, 0
2, 7734000, Note_on_c, 0, 66, 100
2, 7735440, Note_on_c, 0, 66, 0
2, 7735440, Note_on_c, 0, 64, 100
2, 7735680, Note_on_c, 0, 64, 0
2, 7735680, Note_on_c, 0, 66, 100
2, 7735920, Note_on_c, 0, 66, 0
2, 7735920, Note_on_c, 0, 69, 100
2, 7736400, Note_on_c, 0, 69, 0
2, 7736400, Note_on_c, 0, 62, 100
2, 7736880, Note_on_c, 0, 62, 0
2, 7736880, Note_on_c, 0, 67, 100
2, 7741200, Note_on_c, 0, 67, 0
2, 7741200, Note_on_c, 0, 66, 100
2, 7741440, Note_on_c, 0, 66, 0
2, 7741440, Note_on_c, 0, 67, 100
2, 7741680, Note_on_c, 0, 67, 0
2, 7741680, Note_on_c, 0, 66, 100
2, 7743120, Note_on_c, 0, 66, 0
2, 7743120, Note_on_c, 0, 64, 100
2, 7743360, Note_on_c, 0, 64, 0
2, 7743360, Note_on_c, 0, 66, 100
2, 7743600, Note_on_c, 0, 66, 0
2, 7743600, Note_on_c, 0, 69, 100
2, 7744080, Note_on_c, 0, 69, 0
2, 7744080, Note_on_c, 0, 67, 100
2, 7745040, Note_on_c, 0, 67, 0
2, 7745040, Note_on_c, 0, 66, 100
2, 7745280, Note_on_c, 0, 66, 0
2, 7745280, Note_on_c, 0, 67, 100
2, 7746720, Note_on_c, 0, 67, 0
2, 7746720, Note_on_c, 0, 83, 100
2, 7746960, Note_on_c, 0, 83, 0
2, 7746960, Note_on_c, 0, 81, 100
2, 7747080, Note_on_c, 0, 81, 0
2, 7747080, Note_on_c, 0, 79, 100
2, 7747200, Note_on_c, 0, 79, 0
2, 7747200, Note_on_c, 0, 78, 100
2, 7747320, Note_on_c, 0, 78, 0
2, 7747320, Note_on_c, 0, 76, 100
2, 7747440, Note_on_c, 0, 76, 0
2, 7747440, Note_on_c, 0, 74, 100
2, 7747560, Note_on_c, 0, 74, 0
2, 7747560, Note_on_c, 0, 73, 100
2, 7747680, Note_on_c, 0, 73, 0
2, 7747680, Note_on_c, 0, 71, 100
2, 7747800, Note_on_c, 0, 71, 0
2, 7747800, Note_on_c, 0, 69, 100
2, 7747920, Note_on_c, 0, 69, 0
2, 7747920, Note_on_c, 0, 67, 100
2, 7748040, Note_on_c, 0, 67, 0
2, 7748040, Note_on_c, 0, 66, 100
2, 7748160, Note_on_c, 0, 66, 0
2, 7748160, Note_on_c, 0, 81, 100
2, 7748400, Note_on_c, 0, 81, 0
2, 7748400, Note_on_c, 0, 79, 100
2, 7748520, Note_on_c, 0, 79, 0
2, 7748520, Note_on_c, 0, 78, 100
2, 7748640, Note_on_c, 0, 78, 0
2, 7748640, Note_on_c, 0, 76, 100
2, 7748760, Note_on_c, 0, 76, 0
2, 7748760, Note_on_c, 0, 74, 100
2, 7748880, Note_on_c, 0, 74, 0
2, 7748880, Note_on_c, 0, 73, 100
2, 7749000, Note_on_c, 0, 73, 0
2, 7749000, Note_on_c, 0, 71, 100
2, 7749120, Note_on_c, 0, 71, 0
2, 7749120, Note_on_c, 0, 69, 100
2, 7749240, Note_on_c, 0, 69, 0
2, 7749240, Note_on_c, 0, 67, 100
2, 7749360, Note_on_c, 0, 67, 0
2, 7749360, Note_on_c, 0, 66, 100
2, 7749480, Note_on_c, 0, 66, 0
2, 7749480, Note_on_c, 0, 64, 100
2, 7749600, Note_on_c, 0, 64, 0
2, 7749600, Note_on_c, 0, 79, 100
2, 7749840, Note_on_c, 0, 79, 0
2, 7749840, Note_on_c, 0, 78, 100
2, 7749960, Note_on_c, 0, 78, 0
2, 7749960, Note_on_c, 0, 76, 100
2, 7750080, Note_on_c, 0, 76, 0
2, 7750080, Note_on_c, 0, 74, 100
2, 7750200, Note_on_c, 0, 74, 0
2, 7750200, Note_on_c, 0, 73, 100
2, 7750320, Note_on_c, 0, 73, 0
2, 7750320, Note_on_c, 0, 71, 100
2, 7750440, Note_on_c, 0, 71, 0
2, 7750440, Note_on_c, 0, 69, 100
2, 7750560, Note_on_c, 0, 69, 0
2, 7750560, Note_on_c, 0, 67, 100
2, 7750680, Note_on_c, 0, 67, 0
2, 7750680, Note_on_c, 0, 66, 100
2, 7750800, Note_on_c, 0, 66, 0
2, 7750800, Note_on_c, 0, 64, 100
2, 7750920, Note_on_c, 0, 64, 0
2, 7750920, Note_on_c, 0, 62, 100
2, 7751040, Note_on_c, 0, 62, 0
2, 7751040, Note_on_c, 0, 64, 100
2, 7751640, Note_on_c, 0, 64, 0
2, 7751640, Note_on_c, 0, 66, 100
2, 7751700, Note_on_c, 0, 66, 0
2, 7751700, Note_on_c, 0, 67, 100
2, 7751760, Note_on_c, 0, 67, 0
2, 7751760, Note_on_c, 0, 69, 100
2, 7751820, Note_on_c, 0, 69, 0
2, 7751820, Note_on_c, 0, 71, 100
2, 7751880, Note_on_c, 0, 71, 0
2, 7751880, Note_on_c, 0, 73, 100
2, 7751940, Note_on_c, 0, 73, 0
2, 7751940, Note_on_c, 0, 74, 100
2, 7752000, Note_on_c, 0, 74, 0
2, 7752000, Note_on_c, 0, 59, 100
2, 7752480, Note_on_c, 0, 59, 0
2, 7752480, Note_on_c, 0, 60, 100
2, 7752600, Note_on_c, 0, 60, 0
2, 7752600, Note_on_c, 0, 62, 100
2, 7752720, Note_on_c, 0, 62, 0
2, 7752720, Note_on_c, 0, 64, 100
2, 7752840, Note_on_c, 0, 64, 0
2, 7752840, Note_on_c, 0, 66, 100
2, 7752960, Note_on_c, 0, 66, 0
2, 7752960, Note_on_c, 0, 67, 100
2, 7753080, Note_on_c, 0, 67, 0
2, 7753080, Note_on_c, 0, 69, 100
2, 7753200, Note_on_c, 0, 69, 0
2, 7753200, Note_on_c, 0, 71, 100
2, 7753320, Note_on_c, 0, 71, 0
2, 7753320, Note_on_c, 0, 72, 100
2, 7753440, Note_on_c, 0, 72, 0
2, 7753440, Note_on_c, 0, 74, 100
2, 7753560, Note_on_c, 0, 74, 0
2, 7753560, Note_on_c, 0, 76, 100
2, 7753680, Note_on_c, 0, 76, 0
2, 7753680, Note_on_c, 0, 60, 100
2, 7753920, Note_on_c, 0, 60, 0
2, 7753920, Note_on_c, 0, 62, 100
2, 7754040, Note_on_c, 0, 62, 0
2, 7754040, Note_on_c, 0, 64, 100
2, 7754160, Note_on_c, 0, 64, 0
2, 7754160, Note_on_c, 0, 66, 100
2, 7754280, Note_on_c, 0, 66, 0
2, 7754280, Note_on_c, 0, 67, 100
2, 7754400, Note_on_c, 0, 67, 0
2, 7754400, Note_on_c, 0, 69, 100
2, 7754520, Note_on_c, 0, 69, 0
2, 7754520, Note_on_c, 0, 71, 100
2, 7754640, Note_on_c, 0, 71, 0
2, 7754640, Note_on_c, 0, 72, 100
2, 7754760, Note_on_c, 0, 72, 0
2, 7754760, Note_on_c, 0, 74, 100
2, 7754880, Note_on_c, 0, 74, 0
2, 7754880, Note_on_c, 0, 76, 100
2, 7755000, Note_on_c, 0, 76, 0
2, 7755000, Note_on_c, 0, 78, 100
2, 7755120, Note_on_c, 0, 78, 0
2, 7755120, Note_on_c, 0, 62, 100
2, 7755360, Note_on_c, 0, 62, 0
2, 7755360, Note_on_c, 0, 64, 100
2, 7755480, Note_on_c, 0, 64, 0
2, 7755480, Note_on_c, 0, 66, 100
2, 7755600, Note_on_c, 0, 66, 0
2, 7755600, Note_on_c, 0, 67, 100
2, 7755720, Note_on_c, 0, 67, 0
2, 7755720, Note_on_c, 0, 69, 100
2, 7755840, Note_on_c, 0, 69, 0
2, 7755840, Note_on_c, 0, 71, 100
2, 7755960, Note_on_c, 0, 71, 0
2, 7755960, Note_on_c, 0, 72, 100
2, 7756080, Note_on_c, 0, 72, 0
2, 7756080, Note_on_c, 0, 74, 100
2, 7756200, Note_on_c, 0, 74, 0
2, 7756200, Note_on_c, 0, 76, 100
2, 7756320, Note_on_c, 0, 76, 0
2, 7756320, Note_on_c, 0, 78, 100
2, 7756440, Note_on_c, 0, 78, 0
2, 7756440, Note_on_c, 0, 79, 100
2, 7756560, Note_on_c, 0, 79, 0
2, 7756560, Note_on_c, 0, 78, 100
2, 7757160, Note_on_c, 0, 78, 0
2, 7757160, Note_on_c, 0, 76, 100
2, 7757220, Note_on_c, 0, 76, 0
2, 7757220, Note_on_c, 0, 74, 100
2, 7757280, Note_on_c, 0, 74, 0
2, 7757280, Note_on_c, 0, 72, 100
2, 7757340, Note_on_c, 0, 72, 0
2, 7757340, Note_on_c, 0, 71, 100
2, 7757400, Note_on_c, 0, 71, 0
2, 7757400, Note_on_c, 0, 69, 100
2, 7757460, Note_on_c, 0, 69, 0
2, 7757460, Note_on_c, 0, 67, 100
2, 7757520, Note_on_c, 0, 67, 0
2, 7757520, Note_on_c, 0, 74, 100
2, 7758240, Note_on_c, 0, 74, 0
2, 7758240, Note_on_c, 0, 79, 100
2, 7758540, Note_on_c, 0, 79, 0
2, 7758540, Note_on_c, 0, 78, 100
2, 7758600, Note_on_c, 0, 78, 0
2, 7758600, Note_on_c, 0, 76, 100
2, 7758660, Note_on_c, 0, 76, 0
2, 7758660, Note_on_c, 0, 74, 100
2, 7758720, Note_on_c, 0, 74, 0
2, 7758720, Note_on_c, 0, 72, 100
2, 7759020, Note_on_c, 0, 72, 0
2, 7759020, Note_on_c, 0, 71, 100
2, 7759080, Note_on_c, 0, 71, 0
2, 7759080, Note_on_c, 0, 69, 100
2, 7759140, Note_on_c, 0, 69, 0
2, 7759140, Note_on_c, 0, 67, 100
2, 7759200, Note_on_c, 0, 67, 0
2, 7759200, Note_on_c, 0, 74, 100
2, 7759980, Note_on_c, 0, 74, 0
2, 7759980, Note_on_c, 0, 73, 100
2, 7760040, Note_on_c, 0, 73, 0
2, 7760040, Note_on_c, 0, 71, 100
2, 7760100, Note_on_c, 0, 71, 0
2, 7760100, Note_on_c, 0, 69, 100
2, 7760160, Note_on_c, 0, 69, 0
2, 7760160, Note_on_c, 0, 67, 100
2, 7760460, Note_on_c, 0, 67, 0
2, 7760460, Note_on_c, 0, 66, 100
2, 7760520, Note_on_c, 0, 66, 0
2, 7760520, Note_on_c, 0, 64, 100
2, 7760580, Note_on_c, 0, 64, 0
2, 7760580, Note_on_c, 0, 62, 100
2, 7760640, Note_on_c, 0, 62, 0
2, 7760640, Note_on_c, 0, 71, 100
2, 7761120, Note_on_c, 0, 71, 0
2, 7761120, Note_on_c, 0, 72, 100
2, 7761420, Note_on_c, 0, 72, 0
2, 7761420, Note_on_c, 0, 71, 100
2, 7761480, Note_on_c, 0, 71, 0
2, 7761480, Note_on_c, 0, 69, 100
2, 7761540, Note_on_c, 0, 69, 0
2, 7761540, Note_on_c, 0, 67, 100
2, 7761600, Note_on_c, 0, 67, 0
2, 7761600, Note_on_c, 0, 69, 100
2, 7761900, Note_on_c, 0, 69, 0
2, 7761900, Note_on_c, 0, 67, 100
2, 7761960, Note_on_c, 0, 67, 0
2, 7761960, Note_on_c, 0, 66, 100
2, 7762020, Note_on_c, 0, 66, 0
2, 7762020, Note_on_c, 0, 64, 100
2, 7762080, Note_on_c, 0, 64, 0
2, 7762080, Note_on_c, 0, 69, 100
2, 7762560, Note_on_c, 0, 69, 0
2, 7762560, Note_on_c, 0, 66, 100
2, 7762860, Note_on_c, 0, 66, 0
2, 7762860, Note_on_c, 0, 64, 100
2, 7762920, Note_on_c, 0, 64, 0
2, 7762920, Note_on_c, 0, 62, 100
2, 7762980, Note_on_c, 0, 62, 0
2, 7762980, Note_on_c, 0, 61, 100
2, 7763040, Note_on_c, 0, 61, 0
2, 7763040, Note_on_c, 0, 62, 100
2, 7763340, Note_on_c, 0, 62, 0
2, 7763340, Note_on_c, 0, 61, 100
2, 7763400, Note_on_c, 0, 61, 0
2, 7763400, Note_on_c, 0, 59, 100
2, 7763460, Note_on_c, 0, 59, 0
2, 7763460, Note_on_c, 0, 57, 100
2, 7763520, Note_on_c, 0, 57, 0
2, 7763520, Note_on_c, 0, 69, 100
2, 7763880, Note_on_c, 0, 69, 0
2, 7763880, Note_on_c, 0, 81, 100
2, 7764000, Note_on_c, 0, 81, 0
2, 7764000, Note_on_c, 0, 79, 100
2, 7764120, Note_on_c, 0, 79, 0
2, 7764120, Note_on_c, 0, 78, 100
2, 7764240, Note_on_c, 0, 78, 0
2, 7764240, Note_on_c, 0, 76, 100
2, 7764360, Note_on_c, 0, 76, 0
2, 7764360, Note_on_c, 0, 74, 100
2, 7764480, Note_on_c, 0, 74, 0
2, 7764480, Note_on_c, 0, 72, 100
2, 7764600, Note_on_c, 0, 72, 0
2, 7764600, Note_on_c, 0, 71, 100
2, 7764720, Note_on_c, 0, 71, 0
2, 7764720, Note_on_c, 0, 69, 100
2, 7764840, Note_on_c, 0, 69, 0
2, 7764840, Note_on_c, 0, 67, 100
2, 7764960, Note_on_c, 0, 67, 0
2, 7764960, Note_on_c, 0, 66, 100
2, 7765080, Note_on_c, 0, 66, 0
2, 7765080, Note_on_c, 0, 71, 100
2, 7765200, Note_on_c, 0, 71, 0
2, 7765200, Note_on_c, 0, 67, 100
2, 7765320, Note_on_c, 0, 67, 0
2, 7765320, Note_on_c, 0, 66, 100
2, 7765440, Note_on_c, 0, 66, 0
2, 7765440, Note_on_c, 0, 64, 100
2, 7765560, Note_on_c, 0, 64, 0
2, 7765560, Note_on_c, 0, 62, 100
2, 7765680, Note_on_c, 0, 62, 0
2, 7765680, Note_on_c, 0, 60, 100
2, 7765800, Note_on_c, 0, 60, 0
2, 7765800, Note_on_c, 0, 59, 100
2, 7765920, Note_on_c, 0, 59, 0
2, 7765920, Note_on_c, 0, 57, 100
2, 7766040, Note_on_c, 0, 57, 0
2, 7766040, Note_on_c, 0, 55, 100
2, 7766160, Note_on_c, 0, 55, 0
2, 7766160, Note_on_c, 0, 59, 100
2, 7766280, Note_on_c, 0, 59, 0
2, 7766280, Note_on_c, 0, 64, 100
2, 7766400, Note_on_c, 0, 64, 0
2, 7766400, Note_on_c, 0, 62, 100
2, 7766520, Note_on_c, 0, 62, 0
2, 7766520, Note_on_c, 0, 61, 100
2, 7766640, Note_on_c, 0, 61, 0
2, 7766640, Note_on_c, 0, 59, 100
2, 7766760, Note_on_c, 0, 59, 0
2, 7766760, Note_on_c, 0, 57, 100
2, 7766880, Note_on_c, 0, 57, 0
2, 7766880, Note_on_c, 0, 59, 100
2, 7767000, Note_on_c, 0, 59, 0
2, 7767000, Note_on_c, 0, 61, 100
2, 7767120, Note_on_c, 0, 61, 0
2, 7767120, Note_on_c, 0, 62, 100
2, 7767240, Note_on_c, 0, 62, 0
2, 7767240, Note_on_c, 0, 64, 100
2, 7767360, Note_on_c, 0, 64, 0
2, 7767360, Note_on_c, 0, 66, 100
2, 7767480, Note_on_c, 0, 66, 0
2, 7767480, Note_on_c, 0, 67, 100
2, 7767600, Note_on_c, 0, 67, 0
2, 7767600, Note_on_c, 0, 69, 100
2, 7767720, Note_on_c, 0, 69, 0
2, 7767720, Note_on_c, 0, 71, 100
2, 7767840, Note_on_c, 0, 71, 0
2, 7767840, Note_on_c, 0, 73, 100
2, 7767960, Note_on_c, 0, 73, 0
2, 7767960, Note_on_c, 0, 74, 100
2, 7768080, Note_on_c, 0, 74, 0
2, 7768080, Note_on_c, 0, 73, 100
2, 7768200, Note_on_c, 0, 73, 0
2, 7768200, Note_on_c, 0, 71, 100
2, 7768260, Note_on_c, 0, 71, 0
2, 7768260, Note_on_c, 0, 69, 100
2, 7768320, Note_on_c, 0, 69, 0
2, 7768320, Note_on_c, 0, 67, 100
2, 7768380, Note_on_c, 0, 67, 0
2, 7768380, Note_on_c, 0, 66, 100
2, 7768440, Note_on_c, 0, 66, 0
2, 7768440, Note_on_c, 0, 64, 100
2, 7768500, Note_on_c, 0, 64, 0
2, 7768500, Note_on_c, 0, 62, 100
2, 7768560, Note_on_c, 0, 62, 0
2, 7768560, Note_on_c, 0, 67, 100
2, 7769760, Note_on_c, 0, 67, 0
2, 7769760, Note_on_c, 0, 83, 100
2, 7770000, Note_on_c, 0, 83, 0
2, 7770000, Note_on_c, 0, 81, 100
2, 7770120, Note_on_c, 0, 81, 0
2, 7770120, Note_on_c, 0, 79, 100
2, 7770240, Note_on_c, 0, 79, 0
2, 7770240, Note_on_c, 0, 78, 100
2, 7770360, Note_on_c, 0, 78, 0
2, 7770360, Note_on_c, 0, 76, 100
2, 7770480, Note_on_c, 0, 76, 0
2, 7770480, Note_on_c, 0, 74, 100
2, 7770600, Note_on_c, 0, 74, 0
2, 7770600, Note_on_c, 0, 73, 100
2, 7770720, Note_on_c, 0, 73, 0
2, 7770720, Note_on_c, 0, 71, 100
2, 7770840, Note_on_c, 0, 71, 0
2, 7770840, Note_on_c, 0, 69, 100
2, 7770960, Note_on_c, 0, 69, 0
2, 7770960, Note_on_c, 0, 67, 100
2, 7771080, Note_on_c, 0, 67, 0
2, 7771080, Note_on_c, 0, 66, 100
2, 7771200, Note_on_c, 0, 66, 0
2, 7771200, Note_on_c, 0, 81, 100
2, 7771440, Note_on_c, 0, 81, 0
2, 7771440, Note_on_c, 0, 79, 100
2, 7771560, Note_on_c, 0, 79, 0
2, 7771560, Note_on_c, 0, 78, 100
2, 7771680, Note_on_c, 0, 78, 0
2, 7771680, Note_on_c, 0, 76, 100
2, 7771800, Note_on_c, 0, 76, 0
2, 7771800, Note_on_c, 0, 74, 100
2, 7771920, Note_on_c, 0, 74, 0
2, 7771920, Note_on_c, 0, 73, 100
2, 7772040, Note_on_c, 0, 73, 0
2, 7772040, Note_on_c, 0, 71, 100
2, 7772160, Note_on_c, 0, 71, 0
2, 7772160, Note_on_c, 0, 69, 100
2, 7772280, Note_on_c, 0, 69, 0
2, 7772280, Note_on_c, 0, 67, 100
2, 7772400, Note_on_c, 0, 67, 0
2, 7772400, Note_on_c, 0, 66, 100
2, 7772520, Note_on_c, 0, 66, 0
2, 7772520, Note_on_c, 0, 64, 100
2, 7772640, Note_on_c, 0, 64, 0
2, 7772640, Note_on_c, 0, 79, 100
2, 7772880, Note_on_c, 0, 79, 0
2, 7772880, Note_on_c, 0, 78, 100
2, 7773000, Note_on_c, 0, 78, 0
2, 7773000, Note_on_c, 0, 76, 100
2, 7773120, Note_on_c, 0, 76, 0
2, 7773120, Note_on_c, 0, 74, 100
2, 7773240, Note_on_c, 0, 74, 0
2, 7773240, Note_on_c, 0, 73, 100
2, 7773360, Note_on_c, 0, 73, 0
2, 7773360, Note_on_c, 0, 71, 100
2, 7773480, Note_on_c, 0, 71, 0
2, 7773480, Note_on_c, 0, 69, 100
2, 7773600, Note_on_c, 0, 69, 0
2, 7773600, Note_on_c, 0, 67, 100
2, 7773720, Note_on_c, 0, 67, 0
2, 7773720, Note_on_c, 0, 66, 100
2, 7773840, Note_on_c, 0, 66, 0
2, 7773840, Note_on_c, 0, 64, 100
2, 7773960, Note_on_c, 0, 64, 0
2, 7773960, Note_on_c, 0, 62, 100
2, 7774080, Note_on_c, 0, 62, 0
2, 7774080, Note_on_c, 0, 64, 100
2, 7774680, Note_on_c, 0, 64, 0
2, 7774680, Note_on_c, 0, 66, 100
2, 7774740, Note_on_c, 0, 66, 0
2, 7774740, Note_on_c, 0, 67, 100
2, 7774800, Note_on_c, 0, 67, 0
2, 7774800, Note_on_c, 0, 69, 100
2, 7774860, Note_on_c, 0, 69, 0
2, 7774860, Note_on_c, 0, 71, 100
2, 7774920, Note_on_c, 0, 71, 0
2, 7774920, Note_on_c, 0, 73, 100
2, 7774980, Note_on_c, 0, 73, 0
2, 7774980, Note_on_c, 0, 74, 100
2, 7775040, Note_on_c, 0, 74, 0
2, 7775040, Note_on_c, 0, 59, 100
2, 7775520, Note_on_c, 0, 59, 0
2, 7775520, Note_on_c, 0, 60, 100
2, 7775640, Note_on_c, 0, 60, 0
2, 7775640, Note_on_c, 0, 62, 100
2, 7775760, Note_on_c, 0, 62, 0
2, 7775760, Note_on_c, 0, 64, 100
2, 7775880, Note_on_c, 0, 64, 0
2, 7775880, Note_on_c, 0, 66, 100
2, 7776000, Note_on_c, 0, 66, 0
2, 7776000, Note_on_c, 0, 67, 100
2, 7776120, Note_on_c, 0, 67, 0
2, 7776120, Note_on_c, 0, 69, 100
2, 7776240, Note_on_c, 0, 69, 0
2, 7776240, Note_on_c, 0, 71, 100
2, 7776360, Note_on_c, 0, 71, 0
2, 7776360, Note_on_c, 0, 72, 100
2, 7776480, Note_on_c, 0, 72, 0
2, 7776480, Note_on_c, 0, 74, 100
2, 7776600, Note_on_c, 0, 74, 0
2, 7776600, Note_on_c, 0, 76, 100
2, 7776720, Note_on_c, 0, 76, 0
2, 7776720, Note_on_c, 0, 60, 100
2, 7776960, Note_on_c, 0, 60, 0
2, 7776960, Note_on_c, 0, 62, 100
2, 7777080, Note_on_c, 0, 62, 0
2, 7777080, Note_on_c, 0, 64, 100
2, 7777200, Note_on_c, 0, 64, 0
2, 7777200, Note_on_c, 0, 66, 100
2, 7777320, Note_on_c, 0, 66, 0
2, 7777320, Note_on_c, 0, 67, 100
2, 7777440, Note_on_c, 0, 67, 0
2, 7777440, Note_on_c, 0, 69, 100
2, 7777560, Note_on_c, 0, 69, 0
2, 7777560, Note_on_c, 0, 71, 100
2, 7777680, Note_on_c, 0, 71, 0
2, 7777680, Note_on_c, 0, 72, 100
2, 7777800, Note_on_c, 0, 72, 0
2, 7777800, Note_on_c, 0, 74, 100
2, 7777920, Note_on_c, 0, 74, 0
2, 7777920, Note_on_c, 0, 76, 100
2, 7778040, Note_on_c, 0, 76, 0
2, 7778040, Note_on_c, 0, 78, 100
2, 7778160, Note_on_c, 0, 78, 0
2, 7778160, Note_on_c, 0, 62, 100
2, 7778400, Note_on_c, 0, 62, 0
2, 7778400, Note_on_c, 0, 64, 100
2, 7778520, Note_on_c, 0, 64, 0
2, 7778520, Note_on_c, 0, 66, 100
2, 7778640, Note_on_c, 0, 66, 0
2, 7778640, Note_on_c, 0, 67, 100
2, 7778760, Note_on_c, 0, 67, 0
2, 7778760, Note_on_c, 0, 69, 100
2, 7778880, Note_on_c, 0, 69, 0
2, 7778880, Note_on_c, 0, 71, 100
2, 7779000, Note_on_c, 0, 71, 0
2, 7779000, Note_on_c, 0, 72, 100
2, 7779120, Note_on_c, 0, 72, 0
2, 7779120, Note_on_c, 0, 74, 100
2, 7779240, Note_on_c, 0, 74, 0
2, 7779240, Note_on_c, 0, 76, 100
2, 7779360, Note_on_c, 0, 76, 0
2, 7779360, Note_on_c, 0, 78, 100
2, 7779480, Note_on_c, 0, 78, 0
2, 7779480, Note_on_c, 0, 79, 100
2, 7779600, Note_on_c, 0, 79, 0
2, 7779600, Note_on_c, 0, 78, 100
2, 7780200, Note_on_c, 0, 78, 0
2, 7780200, Note_on_c, 0, 76, 100
2, 7780260, Note_on_c, 0, 76, 0
2, 7780260, Note_on_c, 0, 74, 100
2, 7780320, Note_on_c, 0, 74, 0
2, 7780320, Note_on_c, 0, 72, 100
2, 7780380, Note_on_c, 0, 72, 0
2, 7780380, Note_on_c, 0, 71, 100
2, 7780440, Note_on_c, 0, 71, 0
2, 7780440, Note_on_c, 0, 69, 100
2, 7780500, Note_on_c, 0, 69, 0
2, 7780500, Note_on_c, 0, 67, 100
2, 7780560, Note_on_c, 0, 67, 0
2, 7780560, Note_on_c, 0, 74, 100
2, 7781280, Note_on_c, 0, 74, 0
2, 7781280, Note_on_c, 0, 79, 100
2, 7781580, Note_on_c, 0, 79, 0
2, 7781580, Note_on_c, 0, 78, 100
2, 7781640, Note_on_c, 0, 78, 0
2, 7781640, Note_on_c, 0, 76, 100
2, 7781700, Note_on_c, 0, 76, 0
2, 7781700, Note_on_c, 0, 74, 100
2, 7781760, Note_on_c, 0, 74, 0
2, 7781760, Note_on_c, 0, 72, 100
2, 7782060, Note_on_c, 0, 72, 0
2, 7782060, Note_on_c, 0, 71, 100
2, 7782120, Note_on_c, 0, 71, 0
2, 7782120, Note_on_c, 0, 69, 100
2, 7782180, Note_on_c, 0, 69, 0
2, 7782180, Note_on_c, 0, 67, 100
2, 7782240, Note_on_c, 0, 67, 0
2, 7782240, Note_on_c, 0, 74, 100
2, 7783020, Note_on_c, 0, 74, 0
2, 7783020, Note_on_c, 0, 73, 100
2, 7783080, Note_on_c, 0, 73, 0
2, 7783080, Note_on_c, 0, 71, 100
2, 7783140, Note_on_c, 0, 71, 0
2, 7783140, Note_on_c, 0, 69, 100
2, 7783200, Note_on_c, 0, 69, 0
2, 7783200, Note_on_c, 0, 67, 100
2, 7783500, Note_on_c, 0, 67, 0
2, 7783500, Note_on_c, 0, 66, 100
2, 7783560, Note_on_c, 0, 66, 0
2, 7783560, Note_on_c, 0, 64, 100
2, 7783620, Note_on_c, 0, 64, 0
2, 7783620, Note_on_c, 0, 62, 100
2, 7783680, Note_on_c, 0, 62, 0
2, 7783680, Note_on_c, 0, 71, 100
2, 7784160, Note_on_c, 0, 71, 0
2, 7784160, Note_on_c, 0, 72, 100
2, 7784460, Note_on_c, 0, 72, 0
2, 7784460, Note_on_c, 0, 71, 100
2, 7784520, Note_on_c, 0, 71, 0
2, 7784520, Note_on_c, 0, 69, 100
2, 7784580, Note_on_c, 0, 69, 0
2, 7784580, Note_on_c, 0, 67, 100
2, 7784640, Note_on_c, 0, 67, 0
2, 7784640, Note_on_c, 0, 69, 100
2, 7784940, Note_on_c, 0, 69, 0
2, 7784940, Note_on_c, 0, 67, 100
2, 7785000, Note_on_c, 0, 67, 0
2, 7785000, Note_on_c, 0, 66, 100
2, 7785060, Note_on_c, 0, 66, 0
2, 7785060, Note_on_c, 0, 64, 100
2, 7785120, Note_on_c, 0, 64, 0
2, 7785120, Note_on_c, 0, 69, 100
2, 7785600, Note_on_c, 0, 69, 0
2, 7785600, Note_on_c, 0, 66, 100
2, 7785900, Note_on_c, 0, 66, 0
2, 7785900, Note_on_c, 0, 64, 100
2, 7785960, Note_on_c, 0, 64, 0
2, 7785960, Note_on_c, 0, 62, 100
2, 7786020, Note_on_c, 0, 62, 0
2, 7786020, Note_on_c, 0, 61, 100
2, 7786080, Note_on_c, 0, 61, 0
2, 7786080, Note_on_c, 0, 62, 100
2, 7786380, Note_on_c, 0, 62, 0
2, 7786380, Note_on_c, 0, 61, 100
2, 7786440, Note_on_c, 0, 61, 0
2, 7786440, Note_on_c, 0, 59, 100
2, 7786500, Note_on_c, 0, 59, 0
2, 7786500, Note_on_c, 0, 57, 100
2, 7786560, Note_on_c, 0, 57, 0
2, 7786560, Note_on_c, 0, 69, 100
2, 7786920, Note_on_c, 0, 69, 0
2, 7786920, Note_on_c, 0, 81, 100
2, 7787040, Note_on_c, 0, 81, 0
2, 7787040, Note_on_c, 0, 79, 100
2, 7787160, Note_on_c, 0, 79, 0
2, 7787160, Note_on_c, 0, 78, 100
2, 7787280, Note_on_c, 0, 78, 0
2, 7787280, Note_on_c, 0, 76, 100
2, 7787400, Note_on_c, 0, 76, 0
2, 7787400, Note_on_c, 0, 74, 100
2, 7787520, Note_on_c, 0, 74, 0
2, 7787520, Note_on_c, 0, 72, 100
2, 7787640, Note_on_c, 0, 72, 0
2, 7787640, Note_on_c, 0, 71, 100
2, 7787760, Note_on_c, 0, 71, 0
2, 7787760, Note_on_c, 0, 69, 100
2, 7787880, Note_on_c, 0, 69, 0
2, 7787880, Note_on_c, 0, 67, 100
2, 7788000, Note_on_c, 0, 67, 0
2, 7788000, Note_on_c, 0, 66, 100
2, 7788120, Note_on_c, 0, 66, 0
2, 7788120, Note_on_c, 0, 71, 100
2, 7788240, Note_on_c, 0, 71, 0
2, 7788240, Note_on_c, 0, 67, 100
2, 7788360, Note_on_c, 0, 67, 0
2, 7788360, Note_on_c, 0, 66, 100
2, 7788480, Note_on_c, 0, 66, 0
2, 7788480, Note_on_c, 0, 64, 100
2, 7788600, Note_on_c, 0, 64, 0
2, 7788600, Note_on_c, 0, 62, 100
2, 7788720, Note_on_c, 0, 62, 0
2, 7788720, Note_on_c, 0, 60, 100
2, 7788840, Note_on_c, 0, 60, 0
2, 7788840, Note_on_c, 0, 59, 100
2, 7788960, Note_on_c, 0, 59, 0
2, 7788960, Note_on_c, 0, 57, 100
2, 7789080, Note_on_c, 0, 57, 0
2, 7789080, Note_on_c, 0, 55, 100
2, 7789200, Note_on_c, 0, 55, 0
2, 7789200, Note_on_c, 0, 59, 100
2, 7789320, Note_on_c, 0, 59, 0
2, 7789320, Note_on_c, 0, 64, 100
2, 7789440, Note_on_c, 0, 64, 0
2, 7789440, Note_on_c, 0, 62, 100
2, 7789560, Note_on_c, 0, 62, 0
2, 7789560, Note_on_c, 0, 61, 100
2, 7789680, Note_on_c, 0, 61, 0
2, 7789680, Note_on_c, 0, 59, 100
2, 7789800, Note_on_c, 0, 59, 0
2, 7789800, Note_on_c, 0, 57, 100
2, 7789920, Note_on_c, 0, 57, 0
2, 7789920, Note_on_c, 0, 59, 100
2, 7790040, Note_on_c, 0, 59, 0
2, 7790040, Note_on_c, 0, 61, 100
2, 7790160, Note_on_c, 0, 61, 0
2, 7790160, Note_on_c, 0, 62, 100
2, 7790280, Note_on_c, 0, 62, 0
2, 7790280, Note_on_c, 0, 64, 100
2, 7790400, Note_on_c, 0, 64, 0
2, 7790400, Note_on_c, 0, 66, 100
2, 7790520, Note_on_c, 0, 66, 0
2, 7790520, Note_on_c, 0, 67, 100
2, 7790640, Note_on_c, 0, 67, 0
2, 7790640, Note_on_c, 0, 69, 100
2, 7790760, Note_on_c, 0, 69, 0
2, 7790760, Note_on_c, 0, 71, 100
2, 7790880, Note_on_c, 0, 71, 0
2, 7790880, Note_on_c, 0, 73, 100
2, 7791000, Note_on_c, 0, 73, 0
2, 7791000, Note_on_c, 0, 74, 100
2, 7791120, Note_on_c, 0, 74, 0
2, 7791120, Note_on_c, 0, 73, 100
2, 7791240, Note_on_c, 0, 73, 0
2, 7791240, Note_on_c, 0, 71, 100
2, 7791300, Note_on_c, 0, 71, 0
2, 7791300, Note_on_c, 0, 69, 100
2, 7791360, Note_on_c, 0, 69, 0
2, 7791360, Note_on_c, 0, 67, 100
2, 7791420, Note_on_c, 0, 67, 0
2, 7791420, Note_on_c, 0, 66, 100
2, 7791480, Note_on_c, 0, 66, 0
2, 7791480, Note_on_c, 0, 64, 100
2, 7791540, Note_on_c, 0, 64, 0
2, 7791540, Note_on_c, 0, 62, 100
2, 7791600, Note_on_c, 0, 62, 0
2, 7791600, Note_on_c, 0, 81, 100
2, 7792560, Note_on_c, 0, 81, 0
2, 7792560, Note_on_c, 0, 79, 100
2, 7792620, Note_on_c, 0, 79, 0
2, 7792620, Note_on_c, 0, 81, 100
2, 7792680, Note_on_c, 0, 81, 0
2, 7792680, Note_on_c, 0, 79, 100
2, 7793040, Note_on_c, 0, 79, 0
2, 7793040, Note_on_c, 0, 78, 100
2, 7793100, Note_on_c, 0, 78, 0
2, 7793100, Note_on_c, 0, 76, 100
2, 7793520, Note_on_c, 0, 76, 0
2, 7793520, Note_on_c, 0, 74, 100
2, 7793580, Note_on_c, 0, 74, 0
2, 7793580, Note_on_c, 0, 72, 100
2, 7794000, Note_on_c, 0, 72, 0
2, 7794000, Note_on_c, 0, 71, 100
2, 7794040, Note_on_c, 0, 71, 0
2, 7794040, Note_on_c, 0, 72, 100
2, 7794080, Note_on_c, 0, 72, 0
2, 7794080, Note_on_c, 0, 71, 100
2, 7794120, Note_on_c, 0, 71, 0
2, 7794120, Note_on_c, 0, 69, 100
2, 7794480, Note_on_c, 0, 69, 0
2, 7794480, Note_on_c, 0, 67, 100
2, 7794540, Note_on_c, 0, 67, 0
2, 7794540, Note_on_c, 0, 66, 100
2, 7794960, Note_on_c, 0, 66, 0
2, 7794960, Note_on_c, 0, 64, 100
2, 7795020, Note_on_c, 0, 64, 0
2, 7795020, Note_on_c, 0, 62, 100
2, 7795440, Note_on_c, 0, 62, 0
2, 7795440, Note_on_c, 0, 60, 100
2, 7795480, Note_on_c, 0, 60, 0
2, 7795480, Note_on_c, 0, 62, 100
2, 7795520, Note_on_c, 0, 62, 0
2, 7795520, Note_on_c, 0, 60, 100
2, 7795560, Note_on_c, 0, 60, 0
2, 7795560, Note_on_c, 0, 59, 100
2, 7795920, Note_on_c, 0, 59, 0
2, 7795920, Note_on_c, 0, 57, 100
2, 7795980, Note_on_c, 0, 57, 0
2, 7795980, Note_on_c, 0, 55, 100
2, 7796400, Note_on_c, 0, 55, 0
2, 7796400, Note_on_c, 0, 54, 100
2, 7796460, Note_on_c, 0, 54, 0
2, 7796460, Note_on_c, 0, 52, 100
2, 7796880, Note_on_c, 0, 52, 0
2, 7796880, Note_on_c, 0, 51, 100
2, 7796940, Note_on_c, 0, 51, 0
2, 7796940, Note_on_c, 0, 54, 100
2, 7797240, Note_on_c, 0, 54, 0
2, 7797240, Note_on_c, 0, 57, 100
2, 7797360, Note_on_c, 0, 57, 0
2, 7797360, Note_on_c, 0, 60, 100
2, 7797840, Note_on_c, 0, 60, 0
2, 7797840, Note_on_c, 0, 59, 100
2, 7797880, Note_on_c, 0, 59, 0
2, 7797880, Note_on_c, 0, 60, 100
2, 7797920, Note_on_c, 0, 60, 0
2, 7797920, Note_on_c, 0, 59, 100
2, 7797960, Note_on_c, 0, 59, 0
2, 7797960, Note_on_c, 0, 57, 100
2, 7798200, Note_on_c, 0, 57, 0
2, 7798200, Note_on_c, 0, 55, 100
2, 7798320, Note_on_c, 0, 55, 0
2, 7798320, Note_on_c, 0, 75, 100
2, 7798920, Note_on_c, 0, 75, 0
2, 7798920, Note_on_c, 0, 76, 100
2, 7799040, Note_on_c, 0, 76, 0
2, 7799040, Note_on_c, 0, 78, 100
2, 7799160, Note_on_c, 0, 78, 0
2, 7799160, Note_on_c, 0, 79, 100
2, 7799280, Note_on_c, 0, 79, 0
2, 7799280, Note_on_c, 0, 80, 100
2, 7799400, Note_on_c, 0, 80, 0
2, 7799400, Note_on_c, 0, 81, 100
2, 7799520, Note_on_c, 0, 81, 0
2, 7799520, Note_on_c, 0, 83, 100
2, 7799640, Note_on_c, 0, 83, 0
2, 7799640, Note_on_c, 0, 84, 100
2, 7799760, Note_on_c, 0, 84, 0
2, 7799760, Note_on_c, 0, 81, 100
2, 7799880, Note_on_c, 0, 81, 0
2, 7799880, Note_on_c, 0, 79, 100
2, 7800000, Note_on_c, 0, 79, 0
2, 7800000, Note_on_c, 0, 77, 100
2, 7800120, Note_on_c, 0, 77, 0
2, 7800120, Note_on_c, 0, 76, 100
2, 7800240, Note_on_c, 0, 76, 0
2, 7800240, Note_on_c, 0, 74, 100
2, 7800360, Note_on_c, 0, 74, 0
2, 7800360, Note_on_c, 0, 72, 100
2, 7800480, Note_on_c, 0, 72, 0
2, 7800480, Note_on_c, 0, 71, 100
2, 7800600, Note_on_c, 0, 71, 0
2, 7800600, Note_on_c, 0, 69, 100
2, 7800720, Note_on_c, 0, 69, 0
2, 7800720, Note_on_c, 0, 67, 100
2, 7800840, Note_on_c, 0, 67, 0
2, 7800840, Note_on_c, 0, 66, 100
2, 7800960, Note_on_c, 0, 66, 0
2, 7800960, Note_on_c, 0, 64, 100
2, 7801080, Note_on_c, 0, 64, 0
2, 7801080, Note_on_c, 0, 63, 100
2, 7801200, Note_on_c, 0, 63, 0
2, 7801200, Note_on_c, 0, 72, 100
2, 7801320, Note_on_c, 0, 72, 0
2, 7801320, Note_on_c, 0, 71, 100
2, 7801740, Note_on_c, 0, 71, 0
2, 7801740, Note_on_c, 0, 73, 100
2, 7801800, Note_on_c, 0, 73, 0
2, 7801800, Note_on_c, 0, 75, 100
2, 7801860, Note_on_c, 0, 75, 0
2, 7801860, Note_on_c, 0, 76, 100
2, 7801920, Note_on_c, 0, 76, 0
2, 7801920, Note_on_c, 0, 78, 100
2, 7801980, Note_on_c, 0, 78, 0
2, 7801980, Note_on_c, 0, 79, 100
2, 7802040, Note_on_c, 0, 79, 0
2, 7802040, Note_on_c, 0, 78, 100
2, 7802400, Note_on_c, 0, 78, 0
2, 7802400, Note_on_c, 0, 76, 100
2, 7802430, Note_on_c, 0, 76, 0
2, 7802430, Note_on_c, 0, 78, 100
2, 7802460, Note_on_c, 0, 78, 0
2, 7802460, Note_on_c, 0, 76, 100
2, 7802490, Note_on_c, 0, 76, 0
2, 7802490, Note_on_c, 0, 75, 100
2, 7802520, Note_on_c, 0, 75, 0
2, 7802520, Note_on_c, 0, 76, 100
2, 7802640, Note_on_c, 0, 76, 0
2, 7802640, Note_on_c, 0, 72, 100
2, 7802700, Note_on_c, 0, 72, 0
2, 7802700, Note_on_c, 0, 71, 100
2, 7802760, Note_on_c, 0, 71, 0
2, 7802760, Note_on_c, 0, 69, 100
2, 7802820, Note_on_c, 0, 69, 0
2, 7802820, Note_on_c, 0, 71, 100
2, 7802880, Note_on_c, 0, 71, 0
2, 7802880, Note_on_c, 0, 66, 100
2, 7803180, Note_on_c, 0, 66, 0
2, 7803180, Note_on_c, 0, 64, 100
2, 7803240, Note_on_c, 0, 64, 0
2, 7803240, Note_on_c, 0, 63, 100
2, 7803300, Note_on_c, 0, 63, 0
2, 7803300, Note_on_c, 0, 64, 100
2, 7803360, Note_on_c, 0, 64, 0
2, 7803360, Note_on_c, 0, 57, 100
2, 7803660, Note_on_c, 0, 57, 0
2, 7803660, Note_on_c, 0, 55, 100
2, 7803720, Note_on_c, 0, 55, 0
2, 7803720, Note_on_c, 0, 54, 100
2, 7803780, Note_on_c, 0, 54, 0
2, 7803780, Note_on_c, 0, 55, 100
2, 7803840, Note_on_c, 0, 55, 0
2, 7803840, Note_on_c, 0, 60, 100
2, 7804200, Note_on_c, 0, 60, 0
2, 7804200, Note_on_c, 0, 62, 100
2, 7804320, Note_on_c, 0, 62, 0
2, 7804320, Note_on_c, 0, 64, 100
2, 7804440, Note_on_c, 0, 64, 0
2, 7804440, Note_on_c, 0, 65, 100
2, 7804560, Note_on_c, 0, 65, 0
2, 7804560, Note_on_c, 0, 67, 100
2, 7804680, Note_on_c, 0, 67, 0
2, 7804680, Note_on_c, 0, 69, 100
2, 7804800, Note_on_c, 0, 69, 0
2, 7804800, Note_on_c, 0, 71, 100
2, 7804920, Note_on_c, 0, 71, 0
2, 7804920, Note_on_c, 0, 72, 100
2, 7805040, Note_on_c, 0, 72, 0
2, 7805040, Note_on_c, 0, 71, 100
2, 7805640, Note_on_c, 0, 71, 0
2, 7805640, Note_on_c, 0, 69, 100
2, 7805760, Note_on_c, 0, 69, 0
2, 7805760, Note_on_c, 0, 67, 100
2, 7805880, Note_on_c, 0, 67, 0
2, 7805880, Note_on_c, 0, 66, 100
2, 7806000, Note_on_c, 0, 66, 0
2, 7806000, Note_on_c, 0, 64, 100
2, 7806120, Note_on_c, 0, 64, 0
2, 7806120, Note_on_c, 0, 62, 100
2, 7806240, Note_on_c, 0, 62, 0
2, 7806240, Note_on_c, 0, 60, 100
2, 7806360, Note_on_c, 0, 60, 0
2, 7806360, Note_on_c, 0, 59, 100
2, 7807080, Note_on_c, 0, 59, 0
2, 7807080, Note_on_c, 0, 56, 100
2, 7807320, Note_on_c, 0, 56, 0
2, 7807320, Note_on_c, 0, 59, 100
2, 7807560, Note_on_c, 0, 59, 0
2, 7807560, Note_on_c, 0, 55, 100
2, 7808040, Note_on_c, 0, 55, 0
2, 7808040, Note_on_c, 0, 52, 100
2, 7808520, Note_on_c, 0, 52, 0
2, 7808520, Note_on_c, 0, 49, 100
2, 7808760, Note_on_c, 0, 49, 0
2, 7808760, Note_on_c, 0, 52, 100
2, 7809000, Note_on_c, 0, 52, 0
2, 7809000, Note_on_c, 0, 48, 100
2, 7809480, Note_on_c, 0, 48, 0
2, 7809480, Note_on_c, 0, 45, 100
2, 7809960, Note_on_c, 0, 45, 0
2, 7809960, Note_on_c, 0, 42, 100
2, 7810200, Note_on_c, 0, 42, 0
2, 7810200, Note_on_c, 0, 45, 100
2, 7810440, Note_on_c, 0, 45, 0
2, 7810440, Note_on_c, 0, 48, 100
2, 7810680, Note_on_c, 0, 48, 0
2, 7810680, Note_on_c, 0, 52, 100
2, 7810920, Note_on_c, 0, 52, 0
2, 7810920, Note_on_c, 0, 55, 100
2, 7811160, Note_on_c, 0, 55, 0
2, 7811160, Note_on_c, 0, 53, 100
2, 7811400, Note_on_c, 0, 53, 0
2, 7811400, Note_on_c, 0, 50, 100
2, 7811640, Note_on_c, 0, 50, 0
2, 7811640, Note_on_c, 0, 53, 100
2, 7811880, Note_on_c, 0, 53, 0
2, 7811880, Note_on_c, 0, 57, 100
2, 7812120, Note_on_c, 0, 57, 0
2, 7812120, Note_on_c, 0, 60, 100
2, 7812360, Note_on_c, 0, 60, 0
2, 7812360, Note_on_c, 0, 64, 100
2, 7812600, Note_on_c, 0, 64, 0
2, 7812600, Note_on_c, 0, 69, 100
2, 7812840, Note_on_c, 0, 69, 0
2, 7812840, Note_on_c, 0, 71, 100
2, 7812960, Note_on_c, 0, 71, 0
2, 7812960, Note_on_c, 0, 73, 100
2, 7813080, Note_on_c, 0, 73, 0
2, 7813080, Note_on_c, 0, 74, 100
2, 7813200, Note_on_c, 0, 74, 0
2, 7813200, Note_on_c, 0, 76, 100
2, 7813320, Note_on_c, 0, 76, 0
2, 7813320, Note_on_c, 0, 78, 100
2, 7813440, Note_on_c, 0, 78, 0
2, 7813440, Note_on_c, 0, 79, 100
2, 7813560, Note_on_c, 0, 79, 0
2, 7813560, Note_on_c, 0, 81, 100
2, 7813680, Note_on_c, 0, 81, 0
2, 7813680, Note_on_c, 0, 74, 100
2, 7814280, Note_on_c, 0, 74, 0
2, 7814280, Note_on_c, 0, 72, 100
2, 7814400, Note_on_c, 0, 72, 0
2, 7814400, Note_on_c, 0, 71, 100
2, 7814520, Note_on_c, 0, 71, 0
2, 7814520, Note_on_c, 0, 69, 100
2, 7814640, Note_on_c, 0, 69, 0
2, 7814640, Note_on_c, 0, 67, 100
2, 7814760, Note_on_c, 0, 67, 0
2, 7814760, Note_on_c, 0, 66, 100
2, 7814880, Note_on_c, 0, 66, 0
2, 7814880, Note_on_c, 0, 64, 100
2, 7815000, Note_on_c, 0, 64, 0
2, 7815000, Note_on_c, 0, 62, 100
2, 7815120, Note_on_c, 0, 62, 0
2, 7815120, Note_on_c, 0, 81, 100
2, 7815600, Note_on_c, 0, 81, 0
2, 7815600, Note_on_c, 0, 79, 100
2, 7815660, Note_on_c, 0, 79, 0
2, 7815660, Note_on_c, 0, 81, 100
2, 7815720, Note_on_c, 0, 81, 0
2, 7815720, Note_on_c, 0, 79, 100
2, 7816080, Note_on_c, 0, 79, 0
2, 7816080, Note_on_c, 0, 78, 100
2, 7816140, Note_on_c, 0, 78, 0
2, 7816140, Note_on_c, 0, 76, 100
2, 7816560, Note_on_c, 0, 76, 0
2, 7816560, Note_on_c, 0, 74, 100
2, 7816620, Note_on_c, 0, 74, 0
2, 7816620, Note_on_c, 0, 72, 100
2, 7817040, Note_on_c, 0, 72, 0
2, 7817040, Note_on_c, 0, 71, 100
2, 7817080, Note_on_c, 0, 71, 0
2, 7817080, Note_on_c, 0, 72, 100
2, 7817120, Note_on_c, 0, 72, 0
2, 7817120, Note_on_c, 0, 71, 100
2, 7817160, Note_on_c, 0, 71, 0
2, 7817160, Note_on_c, 0, 69, 100
2, 7817520, Note_on_c, 0, 69, 0
2, 7817520, Note_on_c, 0, 67, 100
2, 7817580, Note_on_c, 0, 67, 0
2, 7817580, Note_on_c, 0, 66, 100
2, 7818000, Note_on_c, 0, 66, 0
2, 7818000, Note_on_c, 0, 64, 100
2, 7818060, Note_on_c, 0, 64, 0
2, 7818060, Note_on_c, 0, 62, 100
2, 7818480, Note_on_c, 0, 62, 0
2, 7818480, Note_on_c, 0, 60, 100
2, 7818520, Note_on_c, 0, 60, 0
2, 7818520, Note_on_c, 0, 62, 100
2, 7818560, Note_on_c, 0, 62, 0
2, 7818560, Note_on_c, 0, 60, 100
2, 7818600, Note_on_c, 0, 60, 0
2, 7818600, Note_on_c, 0, 59, 100
2, 7818960, Note_on_c, 0, 59, 0
2, 7818960, Note_on_c, 0, 57, 100
2, 7819020, Note_on_c, 0, 57, 0
2, 7819020, Note_on_c, 0, 55, 100
2, 7819440, Note_on_c, 0, 55, 0
2, 7819440, Note_on_c, 0, 54, 100
2, 7819500, Note_on_c, 0, 54, 0
2, 7819500, Note_on_c, 0, 52, 100
2, 7819920, Note_on_c, 0, 52, 0
2, 7819920, Note_on_c, 0, 51, 100
2, 7819980, Note_on_c, 0, 51, 0
2, 7819980, Note_on_c, 0, 54, 100
2, 7820280, Note_on_c, 0, 54, 0
2, 7820280, Note_on_c, 0, 57, 100
2, 7820400, Note_on_c, 0, 57, 0
2, 7820400, Note_on_c, 0, 60, 100
2, 7820880, Note_on_c, 0, 60, 0
2, 7820880, Note_on_c, 0, 59, 100
2, 7820920, Note_on_c, 0, 59, 0
2, 7820920, Note_on_c, 0, 60, 100
2, 7820960, Note_on_c, 0, 60, 0
2, 7820960, Note_on_c, 0, 59, 100
2, 7821000, Note_on_c, 0, 59, 0
2, 7821000, Note_on_c, 0, 57, 100
2, 7821240, Note_on_c, 0, 57, 0
2, 7821240, Note_on_c, 0, 55, 100
2, 7821360, Note_on_c, 0, 55, 0
2, 7821360, Note_on_c, 0, 75, 100
2, 7821960, Note_on_c, 0, 75, 0
2, 7821960, Note_on_c, 0, 76, 100
2, 7822080, Note_on_c, 0, 76, 0
2, 7822080, Note_on_c, 0, 78, 100
2, 7822200, Note_on_c, 0, 78, 0
2, 7822200, Note_on_c, 0, 79, 100
2, 7822320, Note_on_c, 0, 79, 0
2, 7822320, Note_on_c, 0, 80, 100
2, 7822440, Note_on_c, 0, 80, 0
2, 7822440, Note_on_c, 0, 81, 100
2, 7822560, Note_on_c, 0, 81, 0
2, 7822560, Note_on_c, 0, 83, 100
2, 7822680, Note_on_c, 0, 83, 0
2, 7822680, Note_on_c, 0, 84, 100
2, 7822800, Note_on_c, 0, 84, 0
2, 7822800, Note_on_c, 0, 81, 100
2, 7822920, Note_on_c, 0, 81, 0
2, 7822920, Note_on_c, 0, 79, 100
2, 7823040, Note_on_c, 0, 79, 0
2, 7823040, Note_on_c, 0, 77, 100
2, 7823160, Note_on_c, 0, 77, 0
2, 7823160, Note_on_c, 0, 76, 100
2, 7823280, Note_on_c, 0, 76, 0
2, 7823280, Note_on_c, 0, 74, 100
2, 7823400, Note_on_c, 0, 74, 0
2, 7823400, Note_on_c, 0, 72, 100
2, 7823520, Note_on_c, 0, 72, 0
2, 7823520, Note_on_c, 0, 71, 100
2, 7823640, Note_on_c, 0, 71, 0
2, 7823640, Note_on_c, 0, 69, 100
2, 7823760, Note_on_c, 0, 69, 0
2, 7823760, Note_on_c, 0, 67, 100
2, 7823880, Note_on_c, 0, 67, 0
2, 7823880, Note_on_c, 0, 66, 100
2, 7824000, Note_on_c, 0, 66, 0
2, 7824000, Note_on_c, 0, 64, 100
2, 7824120, Note_on_c, 0, 64, 0
2, 7824120, Note_on_c, 0, 63, 100
2, 7824240, Note_on_c, 0, 63, 0
2, 7824240, Note_on_c, 0, 72, 100
2, 7824360, Note_on_c, 0, 72, 0
2, 7824360, Note_on_c, 0, 71, 100
2, 7824780, Note_on_c, 0, 71, 0
2, 7824780, Note_on_c, 0, 73, 100
2, 7824840, Note_on_c, 0, 73, 0
2, 7824840, Note_on_c, 0, 75, 100
2, 7824900, Note_on_c, 0, 75, 0
2, 7824900, Note_on_c, 0, 76, 100
2, 7824960, Note_on_c, 0, 76, 0
2, 7824960, Note_on_c, 0, 78, 100
2, 7825020, Note_on_c, 0, 78, 0
2, 7825020, Note_on_c, 0, 79, 100
2, 7825080, Note_on_c, 0, 79, 0
2, 7825080, Note_on_c, 0, 78, 100
2, 7825440, Note_on_c, 0, 78, 0
2, 7825440, Note_on_c, 0, 76, 100
2, 7825470, Note_on_c, 0, 76, 0
2, 7825470, Note_on_c, 0, 78, 100
2, 7825500, Note_on_c, 0, 78, 0
2, 7825500, Note_on_c, 0, 76, 100
2, 7825530, Note_on_c, 0, 76, 0
2, 7825530, Note_on_c, 0, 75, 100
2, 7825560, Note_on_c, 0, 75, 0
2, 7825560, Note_on_c, 0, 76, 100
2, 7825680, Note_on_c, 0, 76, 0
2, 7825680, Note_on_c, 0, 72, 100
2, 7825740, Note_on_c, 0, 72, 0
2, 7825740, Note_on_c, 0, 71, 100
2, 7825800, Note_on_c, 0, 71, 0
2, 7825800, Note_on_c, 0, 69, 100
2, 7825860, Note_on_c, 0, 69, 0
2, 7825860, Note_on_c, 0, 71, 100
2, 7825920, Note_on_c, 0, 71, 0
2, 7825920, Note_on_c, 0, 66, 100
2, 7826220, Note_on_c, 0, 66, 0
2, 7826220, Note_on_c, 0, 64, 100
2, 7826280, Note_on_c, 0, 64, 0
2, 7826280, Note_on_c, 0, 63, 100
2, 7826340, Note_on_c, 0, 63, 0
2, 7826340, Note_on_c, 0, 64, 100
2, 7826400, Note_on_c, 0, 64, 0
2, 7826400, Note_on_c, 0, 57, 100
2, 7826700, Note_on_c, 0, 57, 0
2, 7826700, Note_on_c, 0, 55, 100
2, 7826760, Note_on_c, 0, 55, 0
2, 7826760, Note_on_c, 0, 54, 100
2, 7826820, Note_on_c, 0, 54, 0
2, 7826820, Note_on_c, 0, 55, 100
2, 7826880, Note_on_c, 0, 55, 0
2, 7826880, Note_on_c, 0, 60, 100
2, 7827240, Note_on_c, 0, 60, 0
2, 7827240, Note_on_c, 0, 62, 100
2, 7827360, Note_on_c, 0, 62, 0
2, 7827360, Note_on_c, 0, 64, 100
2, 7827480, Note_on_c, 0, 64, 0
2, 7827480, Note_on_c, 0, 65, 100
2, 7827600, Note_on_c, 0, 65, 0
2, 7827600, Note_on_c, 0, 67, 100
2, 7827720, Note_on_c, 0, 67, 0
2, 7827720, Note_on_c, 0, 69, 100
2, 7827840, Note_on_c, 0, 69, 0
2, 7827840, Note_on_c, 0, 71, 100
2, 7827960, Note_on_c, 0, 71, 0
2, 7827960, Note_on_c, 0, 72, 100
2, 7828080, Note_on_c, 0, 72, 0
2, 7828080, Note_on_c, 0, 71, 100
2, 7828680, Note_on_c, 0, 71, 0
2, 7828680, Note_on_c, 0, 69, 100
2, 7828800, Note_on_c, 0, 69, 0
2, 7828800, Note_on_c, 0, 67, 100
2, 7828920, Note_on_c, 0, 67, 0
2, 7828920, Note_on_c, 0, 66, 100
2, 7829040, Note_on_c, 0, 66, 0
2, 7829040, Note_on_c, 0, 64, 100
2, 7829160, Note_on_c, 0, 64, 0
2, 7829160, Note_on_c, 0, 62, 100
2, 7829280, Note_on_c, 0, 62, 0
2, 7829280, Note_on_c, 0, 60, 100
2, 7829400, Note_on_c, 0, 60, 0
2, 7829400, Note_on_c, 0, 59, 100
2, 7830120, Note_on_c, 0, 59, 0
2, 7830120, Note_on_c, 0, 56, 100
2, 7830360, Note_on_c, 0, 56, 0
2, 7830360, Note_on_c, 0, 59, 100
2, 7830600, Note_on_c, 0, 59, 0
2, 7830600, Note_on_c, 0, 55, 100
2, 7831080, Note_on_c, 0, 55, 0
2, 7831080, Note_on_c, 0, 52, 100
2, 7831560, Note_on_c, 0, 52, 0
2, 7831560, Note_on_c, 0, 49, 100
2, 7831800, Note_on_c, 0, 49, 0
2, 7831800, Note_on_c, 0, 52, 100
2, 7832040, Note_on_c, 0, 52, 0
2, 7832040, Note_on_c, 0, 48, 100
2, 7832520, Note_on_c, 0, 48, 0
2, 7832520, Note_on_c, 0, 45, 100
2, 7833000, Note_on_c, 0, 45, 0
2, 7833000, Note_on_c, 0, 42, 100
2, 7833240, Note_on_c, 0, 42, 0
2, 7833240, Note_on_c, 0, 45, 100
2, 7833480, Note_on_c, 0, 45, 0
2, 7833480, Note_on_c, 0, 48, 100
2, 7833720, Note_on_c, 0, 48, 0
2, 7833720, Note_on_c, 0, 52, 100
2, 7833960, Note_on_c, 0, 52, 0
2, 7833960, Note_on_c, 0, 55, 100
2, 7834200, Note_on_c, 0, 55, 0
2, 7834200, Note_on_c, 0, 53, 100
2, 7834440, Note_on_c, 0, 53, 0
2, 7834440, Note_on_c, 0, 50, 100
2, 7834680, Note_on_c, 0, 50, 0
2, 7834680, Note_on_c, 0, 53, 100
2, 7834920, Note_on_c, 0, 53, 0
2, 7834920, Note_on_c, 0, 57, 100
2, 7835160, Note_on_c, 0, 57, 0
2, 7835160, Note_on_c, 0, 60, 100
2, 7835400, Note_on_c, 0, 60, 0
2, 7835400, Note_on_c, 0, 64, 100
2, 7835640, Note_on_c, 0, 64, 0
2, 7835640, Note_on_c, 0, 69, 100
2, 7835880, Note_on_c, 0, 69, 0
2, 7835880, Note_on_c, 0, 71, 100
2, 7836000, Note_on_c, 0, 71, 0
2, 7836000, Note_on_c, 0, 73, 100
2, 7836120, Note_on_c, 0, 73, 0
2, 7836120, Note_on_c, 0, 74, 100
2, 7836240, Note_on_c, 0, 74, 0
2, 7836240, Note_on_c, 0, 76, 100
2, 7836360, Note_on_c, 0, 76, 0
2, 7836360, Note_on_c, 0, 78, 100
2, 7836480, Note_on_c, 0, 78, 0
2, 7836480, Note_on_c, 0, 79, 100
2, 7836600, Note_on_c, 0, 79, 0
2, 7836600, Note_on_c, 0, 81, 100
2, 7836720, Note_on_c, 0, 81, 0
2, 7836720, Note_on_c, 0, 74, 100
2, 7837320, Note_on_c, 0, 74, 0
2, 7837320, Note_on_c, 0, 72, 100
2, 7837440, Note_on_c, 0, 72, 0
2, 7837440, Note_on_c, 0, 71, 100
2, 7837560, Note_on_c, 0, 71, 0
2, 7837560, Note_on_c, 0, 69, 100
2, 7837680, Note_on_c, 0, 69, 0
2, 7837680, Note_on_c, 0, 67, 100
2, 7837800, Note_on_c, 0, 67, 0
2, 7837800, Note_on_c, 0, 66, 100
2, 7837920, Note_on_c, 0, 66, 0
2, 7837920, Note_on_c, 0, 64, 100
2, 7838040, Note_on_c, 0, 64, 0
2, 7838040, Note_on_c, 0, 62, 100
2, 7838160, Note_on_c, 0, 62, 0
2, 7838160, Note_on_c, 0, 69, 100
2, 8162640, Note_on_c, 0, 69, 0
2, 8162640, Note_on_c, 0, 71, 100
2, 8162880, Note_on_c, 0, 71, 0
2, 8162880, Note_on_c, 0, 73, 100
2, 8163000, Note_on_c, 0, 73, 0
2, 8163000, Note_on_c, 0, 74, 100
2, 8163120, Note_on_c, 0, 74, 0
2, 8163120, Note_on_c, 0, 76, 100
2, 8163240, Note_on_c, 0, 76, 0
2, 8163240, Note_on_c, 0, 78, 100
2, 8163360, Note_on_c, 0, 78, 0
2, 8163360, Note_on_c, 0, 76, 100
2, 8163480, Note_on_c, 0, 76, 0
2, 8163480, Note_on_c, 0, 74, 100
2, 8163600, Note_on_c, 0, 74, 0
2, 8163600, Note_on_c, 0, 76, 100
2, 8163720, Note_on_c, 0, 76, 0
2, 8163720, Note_on_c, 0, 78, 100
2, 8163840, Note_on_c, 0, 78, 0
2, 8163840, Note_on_c, 0, 67, 100
2, 8164080, Note_on_c, 0, 67, 0
2, 8164080, Note_on_c, 0, 76, 100
2, 8164800, Note_on_c, 0, 76, 0
2, 8164800, Note_on_c, 0, 66, 100
2, 8165520, Note_on_c, 0, 66, 0
2, 8165520, Note_on_c, 0, 67, 100
2, 8165760, Note_on_c, 0, 67, 0
2, 8165760, Note_on_c, 0, 69, 100
2, 8165880, Note_on_c, 0, 69, 0
2, 8165880, Note_on_c, 0, 71, 100
2, 8166000, Note_on_c, 0, 71, 0
2, 8166000, Note_on_c, 0, 72, 100
2, 8166120, Note_on_c, 0, 72, 0
2, 8166120, Note_on_c, 0, 74, 100
2, 8166240, Note_on_c, 0, 74, 0
2, 8166240, Note_on_c, 0, 76, 100
2, 8166360, Note_on_c, 0, 76, 0
2, 8166360, Note_on_c, 0, 74, 100
2, 8166480, Note_on_c, 0, 74, 0
2, 8166480, Note_on_c, 0, 72, 100
2, 8166600, Note_on_c, 0, 72, 0
2, 8166600, Note_on_c, 0, 74, 100
2, 8166960, Note_on_c, 0, 74, 0
2, 8166960, Note_on_c, 0, 67, 100
2, 8167680, Note_on_c, 0, 67, 0
2, 8167680, Note_on_c, 0, 72, 100
2, 8168400, Note_on_c, 0, 72, 0
2, 8168400, Note_on_c, 0, 74, 100
2, 8168520, Note_on_c, 0, 74, 0
2, 8168520, Note_on_c, 0, 72, 100
2, 8168640, Note_on_c, 0, 72, 0
2, 8168640, Note_on_c, 0, 71, 100
2, 8168760, Note_on_c, 0, 71, 0
2, 8168760, Note_on_c, 0, 69, 100
2, 8168880, Note_on_c, 0, 69, 0
2, 8168880, Note_on_c, 0, 67, 100
2, 8169000, Note_on_c, 0, 67, 0
2, 8169000, Note_on_c, 0, 66, 100
2, 8169120, Note_on_c, 0, 66, 0
2, 8169120, Note_on_c, 0, 69, 100
2, 8169240, Note_on_c, 0, 69, 0
2, 8169240, Note_on_c, 0, 72, 100
2, 8169360, Note_on_c, 0, 72, 0
2, 8169360, Note_on_c, 0, 76, 100
2, 8169480, Note_on_c, 0, 76, 0
2, 8169480, Note_on_c, 0, 74, 100
2, 8169600, Note_on_c, 0, 74, 0
2, 8169600, Note_on_c, 0, 72, 100
2, 8169720, Note_on_c, 0, 72, 0
2, 8169720, Note_on_c, 0, 71, 100
2, 8169840, Note_on_c, 0, 71, 0
2, 8169840, Note_on_c, 0, 72, 100
2, 8169960, Note_on_c, 0, 72, 0
2, 8169960, Note_on_c, 0, 71, 100
2, 8170080, Note_on_c, 0, 71, 0
2, 8170080, Note_on_c, 0, 69, 100
2, 8170200, Note_on_c, 0, 69, 0
2, 8170200, Note_on_c, 0, 67, 100
2, 8170320, Note_on_c, 0, 67, 0
2, 8170320, Note_on_c, 0, 66, 100
2, 8170440, Note_on_c, 0, 66, 0
2, 8170440, Note_on_c, 0, 64, 100
2, 8170560, Note_on_c, 0, 64, 0
2, 8170560, Note_on_c, 0, 67, 100
2, 8170680, Note_on_c, 0, 67, 0
2, 8170680, Note_on_c, 0, 71, 100
2, 8170800, Note_on_c, 0, 71, 0
2, 8170800, Note_on_c, 0, 74, 100
2, 8170920, Note_on_c, 0, 74, 0
2, 8170920, Note_on_c, 0, 72, 100
2, 8171040, Note_on_c, 0, 72, 0
2, 8171040, Note_on_c, 0, 71, 100
2, 8171160, Note_on_c, 0, 71, 0
2, 8171160, Note_on_c, 0, 69, 100
2, 8171280, Note_on_c, 0, 69, 0
2, 8171280, Note_on_c, 0, 72, 100
2, 8171520, Note_on_c, 0, 72, 0
2, 8171520, Note_on_c, 0, 71, 100
2, 8171580, Note_on_c, 0, 71, 0
2, 8171580, Note_on_c, 0, 69, 100
2, 8171640, Note_on_c, 0, 69, 0
2, 8171640, Note_on_c, 0, 71, 100
2, 8171700, Note_on_c, 0, 71, 0
2, 8171700, Note_on_c, 0, 72, 100
2, 8171760, Note_on_c, 0, 72, 0
2, 8171760, Note_on_c, 0, 62, 100
2, 8172000, Note_on_c, 0, 62, 0
2, 8172000, Note_on_c, 0, 74, 100
2, 8172240, Note_on_c, 0, 74, 0
2, 8172240, Note_on_c, 0, 78, 100
2, 8172840, Note_on_c, 0, 78, 0
2, 8172840, Note_on_c, 0, 76, 100
2, 8172960, Note_on_c, 0, 76, 0
2, 8172960, Note_on_c, 0, 74, 100
2, 8173080, Note_on_c, 0, 74, 0
2, 8173080, Note_on_c, 0, 73, 100
2, 8173200, Note_on_c, 0, 73, 0
2, 8173200, Note_on_c, 0, 71, 100
2, 8173320, Note_on_c, 0, 71, 0
2, 8173320, Note_on_c, 0, 73, 100
2, 8173440, Note_on_c, 0, 73, 0
2, 8173440, Note_on_c, 0, 74, 100
2, 8173560, Note_on_c, 0, 74, 0
2, 8173560, Note_on_c, 0, 76, 100
2, 8173680, Note_on_c, 0, 76, 0
2, 8173680, Note_on_c, 0, 73, 100
2, 8173800, Note_on_c, 0, 73, 0
2, 8173800, Note_on_c, 0, 74, 100
2, 8173920, Note_on_c, 0, 74, 0
2, 8173920, Note_on_c, 0, 76, 100
2, 8174040, Note_on_c, 0, 76, 0
2, 8174040, Note_on_c, 0, 69, 100
2, 8174160, Note_on_c, 0, 69, 0
2, 8174160, Note_on_c, 0, 67, 100
2, 8174220, Note_on_c, 0, 67, 0
2, 8174220, Note_on_c, 0, 69, 100
2, 8175720, Note_on_c, 0, 69, 0
2, 8175720, Note_on_c, 0, 67, 100
2, 8175840, Note_on_c, 0, 67, 0
2, 8175840, Note_on_c, 0, 66, 100
2, 8175960, Note_on_c, 0, 66, 0
2, 8175960, Note_on_c, 0, 64, 100
2, 8176080, Note_on_c, 0, 64, 0
2, 8176080, Note_on_c, 0, 62, 100
2, 8176200, Note_on_c, 0, 62, 0
2, 8176200, Note_on_c, 0, 61, 100
2, 8176320, Note_on_c, 0, 61, 0
2, 8176320, Note_on_c, 0, 62, 100
2, 8176440, Note_on_c, 0, 62, 0
2, 8176440, Note_on_c, 0, 64, 100
2, 8176560, Note_on_c, 0, 64, 0
2, 8176560, Note_on_c, 0, 62, 100
2, 8176680, Note_on_c, 0, 62, 0
2, 8176680, Note_on_c, 0, 64, 100
2, 8176800, Note_on_c, 0, 64, 0
2, 8176800, Note_on_c, 0, 61, 100
2, 8176920, Note_on_c, 0, 61, 0
2, 8176920, Note_on_c, 0, 66, 100
2, 8177040, Note_on_c, 0, 66, 0
2, 8177040, Note_on_c, 0, 59, 100
2, 8177760, Note_on_c, 0, 59, 0
2, 8177760, Note_on_c, 0, 71, 100
2, 8178480, Note_on_c, 0, 71, 0
2, 8178480, Note_on_c, 0, 72, 100
2, 8178600, Note_on_c, 0, 72, 0
2, 8178600, Note_on_c, 0, 71, 100
2, 8178720, Note_on_c, 0, 71, 0
2, 8178720, Note_on_c, 0, 69, 100
2, 8178840, Note_on_c, 0, 69, 0
2, 8178840, Note_on_c, 0, 67, 100
2, 8178960, Note_on_c, 0, 67, 0
2, 8178960, Note_on_c, 0, 66, 100
2, 8179080, Note_on_c, 0, 66, 0
2, 8179080, Note_on_c, 0, 64, 100
2, 8179200, Note_on_c, 0, 64, 0
2, 8179200, Note_on_c, 0, 67, 100
2, 8179320, Note_on_c, 0, 67, 0
2, 8179320, Note_on_c, 0, 71, 100
2, 8179440, Note_on_c, 0, 71, 0
2, 8179440, Note_on_c, 0, 74, 100
2, 8179560, Note_on_c, 0, 74, 0
2, 8179560, Note_on_c, 0, 73, 100
2, 8179680, Note_on_c, 0, 73, 0
2, 8179680, Note_on_c, 0, 71, 100
2, 8179800, Note_on_c, 0, 71, 0
2, 8179800, Note_on_c, 0, 69, 100
2, 8179920, Note_on_c, 0, 69, 0
2, 8179920, Note_on_c, 0, 71, 100
2, 8180040, Note_on_c, 0, 71, 0
2, 8180040, Note_on_c, 0, 69, 100
2, 8180160, Note_on_c, 0, 69, 0
2, 8180160, Note_on_c, 0, 67, 100
2, 8180280, Note_on_c, 0, 67, 0
2, 8180280, Note_on_c, 0, 66, 100
2, 8180400, Note_on_c, 0, 66, 0
2, 8180400, Note_on_c, 0, 64, 100
2, 8180520, Note_on_c, 0, 64, 0
2, 8180520, Note_on_c, 0, 63, 100
2, 8180640, Note_on_c, 0, 63, 0
2, 8180640, Note_on_c, 0, 66, 100
2, 8180760, Note_on_c, 0, 66, 0
2, 8180760, Note_on_c, 0, 69, 100
2, 8180880, Note_on_c, 0, 69, 0
2, 8180880, Note_on_c, 0, 72, 100
2, 8181000, Note_on_c, 0, 72, 0
2, 8181000, Note_on_c, 0, 71, 100
2, 8181120, Note_on_c, 0, 71, 0
2, 8181120, Note_on_c, 0, 69, 100
2, 8181240, Note_on_c, 0, 69, 0
2, 8181240, Note_on_c, 0, 67, 100
2, 8181360, Note_on_c, 0, 67, 0
2, 8181360, Note_on_c, 0, 71, 100
2, 8181600, Note_on_c, 0, 71, 0
2, 8181600, Note_on_c, 0, 69, 100
2, 8181660, Note_on_c, 0, 69, 0
2, 8181660, Note_on_c, 0, 67, 100
2, 8181720, Note_on_c, 0, 67, 0
2, 8181720, Note_on_c, 0, 69, 100
2, 8181780, Note_on_c, 0, 69, 0
2, 8181780, Note_on_c, 0, 71, 100
2, 8181840, Note_on_c, 0, 71, 0
2, 8181840, Note_on_c, 0, 69, 100
2, 8182320, Note_on_c, 0, 69, 0
2, 8182320, Note_on_c, 0, 67, 100
2, 8182560, Note_on_c, 0, 67, 0
2, 8182560, Note_on_c, 0, 66, 100
2, 8182920, Note_on_c, 0, 66, 0
2, 8182920, Note_on_c, 0, 64, 100
2, 8183040, Note_on_c, 0, 64, 0
2, 8183040, Note_on_c, 0, 62, 100
2, 8183160, Note_on_c, 0, 62, 0
2, 8183160, Note_on_c, 0, 64, 100
2, 8183280, Note_on_c, 0, 64, 0
2, 8183280, Note_on_c, 0, 61, 100
2, 8183400, Note_on_c, 0, 61, 0
2, 8183400, Note_on_c, 0, 62, 100
2, 8183520, Note_on_c, 0, 62, 0
2, 8183520, Note_on_c, 0, 69, 100
2, 8185680, Note_on_c, 0, 69, 0
2, 8185680, Note_on_c, 0, 71, 100
2, 8185920, Note_on_c, 0, 71, 0
2, 8185920, Note_on_c, 0, 73, 100
2, 8186040, Note_on_c, 0, 73, 0
2, 8186040, Note_on_c, 0, 74, 100
2, 8186160, Note_on_c, 0, 74, 0
2, 8186160, Note_on_c, 0, 76, 100
2, 8186280, Note_on_c, 0, 76, 0
2, 8186280, Note_on_c, 0, 78, 100
2, 8186400, Note_on_c, 0, 78, 0
2, 8186400, Note_on_c, 0, 76, 100
2, 8186520, Note_on_c, 0, 76, 0
2, 8186520, Note_on_c, 0, 74, 100
2, 8186640, Note_on_c, 0, 74, 0
2, 8186640, Note_on_c, 0, 76, 100
2, 8186760, Note_on_c, 0, 76, 0
2, 8186760, Note_on_c, 0, 78, 100
2, 8186880, Note_on_c, 0, 78, 0
2, 8186880, Note_on_c, 0, 67, 100
2, 8187120, Note_on_c, 0, 67, 0
2, 8187120, Note_on_c, 0, 76, 100
2, 8187840, Note_on_c, 0, 76, 0
2, 8187840, Note_on_c, 0, 66, 100
2, 8188560, Note_on_c, 0, 66, 0
2, 8188560, Note_on_c, 0, 67, 100
2, 8188800, Note_on_c, 0, 67, 0
2, 8188800, Note_on_c, 0, 69, 100
2, 8188920, Note_on_c, 0, 69, 0
2, 8188920, Note_on_c, 0, 71, 100
2, 8189040, Note_on_c, 0, 71, 0
2, 8189040, Note_on_c, 0, 72, 100
2, 8189160, Note_on_c, 0, 72, 0
2, 8189160, Note_on_c, 0, 74, 100
2, 8189280, Note_on_c, 0, 74, 0
2, 8189280, Note_on_c, 0, 76, 100
2, 8189400, Note_on_c, 0, 76, 0
2, 8189400, Note_on_c, 0, 74, 100
2, 8189520, Note_on_c, 0, 74, 0
2, 8189520, Note_on_c, 0, 72, 100
2, 8189640, Note_on_c, 0, 72, 0
2, 8189640, Note_on_c, 0, 74, 100
2, 8190000, Note_on_c, 0, 74, 0
2, 8190000, Note_on_c, 0, 67, 100
2, 8190720, Note_on_c, 0, 67, 0
2, 8190720, Note_on_c, 0, 72, 100
2, 8191440, Note_on_c, 0, 72, 0
2, 8191440, Note_on_c, 0, 74, 100
2, 8191560, Note_on_c, 0, 74, 0
2, 8191560, Note_on_c, 0, 72, 100
2, 8191680, Note_on_c, 0, 72, 0
2, 8191680, Note_on_c, 0, 71, 100
2, 8191800, Note_on_c, 0, 71, 0
2, 8191800, Note_on_c, 0, 69, 100
2, 8191920, Note_on_c, 0, 69, 0
2, 8191920, Note_on_c, 0, 67, 100
2, 8192040, Note_on_c, 0, 67, 0
2, 8192040, Note_on_c, 0, 66, 100
2, 8192160, Note_on_c, 0, 66, 0
2, 8192160, Note_on_c, 0, 69, 100
2, 8192280, Note_on_c, 0, 69, 0
2, 8192280, Note_on_c, 0, 72, 100
2, 8192400, Note_on_c, 0, 72, 0
2, 8192400, Note_on_c, 0, 76, 100
2, 8192520, Note_on_c, 0, 76, 0
2, 8192520, Note_on_c, 0, 74, 100
2, 8192640, Note_on_c, 0, 74, 0
2, 8192640, Note_on_c, 0, 72, 100
2, 8192760, Note_on_c, 0, 72, 0
2, 8192760, Note_on_c, 0, 71, 100
2, 8192880, Note_on_c, 0, 71, 0
2, 8192880, Note_on_c, 0, 72, 100
2, 8193000, Note_on_c, 0, 72, 0
2, 8193000, Note_on_c, 0, 71, 100
2, 8193120, Note_on_c, 0, 71, 0
2, 8193120, Note_on_c, 0, 69, 100
2, 8193240, Note_on_c, 0, 69, 0
2, 8193240, Note_on_c, 0, 67, 100
2, 8193360, Note_on_c, 0, 67, 0
2, 8193360, Note_on_c, 0, 66, 100
2, 8193480, Note_on_c, 0, 66, 0
2, 8193480, Note_on_c, 0, 64, 100
2, 8193600, Note_on_c, 0, 64, 0
2, 8193600, Note_on_c, 0, 67, 100
2, 8193720, Note_on_c, 0, 67, 0
2, 8193720, Note_on_c, 0, 71, 100
2, 8193840, Note_on_c, 0, 71, 0
2, 8193840, Note_on_c, 0, 74, 100
2, 8193960, Note_on_c, 0, 74, 0
2, 8193960, Note_on_c, 0, 72, 100
2, 8194080, Note_on_c, 0, 72, 0
2, 8194080, Note_on_c, 0, 71, 100
2, 8194200, Note_on_c, 0, 71, 0
2, 8194200, Note_on_c, 0, 69, 100
2, 8194320, Note_on_c, 0, 69, 0
2, 8194320, Note_on_c, 0, 72, 100
2, 8194560, Note_on_c, 0, 72, 0
2, 8194560, Note_on_c, 0, 71, 100
2, 8194620, Note_on_c, 0, 71, 0
2, 8194620, Note_on_c, 0, 69, 100
2, 8194680, Note_on_c, 0, 69, 0
2, 8194680, Note_on_c, 0, 71, 100
2, 8194740, Note_on_c, 0, 71, 0
2, 8194740, Note_on_c, 0, 72, 100
2, 8194800, Note_on_c, 0, 72, 0
2, 8194800, Note_on_c, 0, 62, 100
2, 8195040, Note_on_c, 0, 62, 0
2, 8195040, Note_on_c, 0, 74, 100
2, 8195280, Note_on_c, 0, 74, 0
2, 8195280, Note_on_c, 0, 78, 100
2, 8195880, Note_on_c, 0, 78, 0
2, 8195880, Note_on_c, 0, 76, 100
2, 8196000, Note_on_c, 0, 76, 0
2, 8196000, Note_on_c, 0, 74, 100
2, 8196120, Note_on_c, 0, 74, 0
2, 8196120, Note_on_c, 0, 73, 100
2, 8196240, Note_on_c, 0, 73, 0
2, 8196240, Note_on_c, 0, 71, 100
2, 8196360, Note_on_c, 0, 71, 0
2, 8196360, Note_on_c, 0, 73, 100
2, 8196480, Note_on_c, 0, 73, 0
2, 8196480, Note_on_c, 0, 74, 100
2, 8196600, Note_on_c, 0, 74, 0
2, 8196600, Note_on_c, 0, 76, 100
2, 8196720, Note_on_c, 0, 76, 0
2, 8196720, Note_on_c, 0, 73, 100
2, 8196840, Note_on_c, 0, 73, 0
2, 8196840, Note_on_c, 0, 74, 100
2, 8196960, Note_on_c, 0, 74, 0
2, 8196960, Note_on_c, 0, 76, 100
2, 8197080, Note_on_c, 0, 76, 0
2, 8197080, Note_on_c, 0, 69, 100
2, 8197200, Note_on_c, 0, 69, 0
2, 8197200, Note_on_c, 0, 67, 100
2, 8197260, Note_on_c, 0, 67, 0
2, 8197260, Note_on_c, 0, 69, 100
2, 8198760, Note_on_c, 0, 69, 0
2, 8198760, Note_on_c, 0, 67, 100
2, 8198880, Note_on_c, 0, 67, 0
2, 8198880, Note_on_c, 0, 66, 100
2, 8199000, Note_on_c, 0, 66, 0
2, 8199000, Note_on_c, 0, 64, 100
2, 8199120, Note_on_c, 0, 64, 0
2, 8199120, Note_on_c, 0, 62, 100
2, 8199240, Note_on_c, 0, 62, 0
2, 8199240, Note_on_c, 0, 61, 100
2, 8199360, Note_on_c, 0, 61, 0
2, 8199360, Note_on_c, 0, 62, 100
2, 8199480, Note_on_c, 0, 62, 0
2, 8199480, Note_on_c, 0, 64, 100
2, 8199600, Note_on_c, 0, 64, 0
2, 8199600, Note_on_c, 0, 62, 100
2, 8199720, Note_on_c, 0, 62, 0
2, 8199720, Note_on_c, 0, 64, 100
2, 8199840, Note_on_c, 0, 64, 0
2, 8199840, Note_on_c, 0, 61, 100
2, 8199960, Note_on_c, 0, 61, 0
2, 8199960, Note_on_c, 0, 66, 100
2, 8200080, Note_on_c, 0, 66, 0
2, 8200080, Note_on_c, 0, 59, 100
2, 8200800, Note_on_c, 0, 59, 0
2, 8200800, Note_on_c, 0, 71, 100
2, 8201520, Note_on_c, 0, 71, 0
2, 8201520, Note_on_c, 0, 72, 100
2, 8201640, Note_on_c, 0, 72, 0
2, 8201640, Note_on_c, 0, 71, 100
2, 8201760, Note_on_c, 0, 71, 0
2, 8201760, Note_on_c, 0, 69, 100
2, 8201880, Note_on_c, 0, 69, 0
2, 8201880, Note_on_c, 0, 67, 100
2, 8202000, Note_on_c, 0, 67, 0
2, 8202000, Note_on_c, 0, 66, 100
2, 8202120, Note_on_c, 0, 66, 0
2, 8202120, Note_on_c, 0, 64, 100
2, 8202240, Note_on_c, 0, 64, 0
2, 8202240, Note_on_c, 0, 67, 100
2, 8202360, Note_on_c, 0, 67, 0
2, 8202360, Note_on_c, 0, 71, 100
2, 8202480, Note_on_c, 0, 71, 0
2, 8202480, Note_on_c, 0, 74, 100
2, 8202600, Note_on_c, 0, 74, 0
2, 8202600, Note_on_c, 0, 73, 100
2, 8202720, Note_on_c, 0, 73, 0
2, 8202720, Note_on_c, 0, 71, 100
2, 8202840, Note_on_c, 0, 71, 0
2, 8202840, Note_on_c, 0, 69, 100
2, 8202960, Note_on_c, 0, 69, 0
2, 8202960, Note_on_c, 0, 71, 100
2, 8203080, Note_on_c, 0, 71, 0
2, 8203080, Note_on_c, 0, 69, 100
2, 8203200, Note_on_c, 0, 69, 0
2, 8203200, Note_on_c, 0, 67, 100
2, 8203320, Note_on_c, 0, 67, 0
2, 8203320, Note_on_c, 0, 66, 100
2, 8203440, Note_on_c, 0, 66, 0
2, 8203440, Note_on_c, 0, 64, 100
2, 8203560, Note_on_c, 0, 64, 0
2, 8203560, Note_on_c, 0, 63, 100
2, 8203680, Note_on_c, 0, 63, 0
2, 8203680, Note_on_c, 0, 66, 100
2, 8203800, Note_on_c, 0, 66, 0
2, 8203800, Note_on_c, 0, 69, 100
2, 8203920, Note_on_c, 0, 69, 0
2, 8203920, Note_on_c, 0, 72, 100
2, 8204040, Note_on_c, 0, 72, 0
2, 8204040, Note_on_c, 0, 71, 100
2, 8204160, Note_on_c, 0, 71, 0
2, 8204160, Note_on_c, 0, 69, 100
2, 8204280, Note_on_c, 0, 69, 0
2, 8204280, Note_on_c, 0, 67, 100
2, 8204400, Note_on_c, 0, 67, 0
2, 8204400, Note_on_c, 0, 71, 100
2, 8204640, Note_on_c, 0, 71, 0
2, 8204640, Note_on_c, 0, 69, 100
2, 8204700, Note_on_c, 0, 69, 0
2, 8204700, Note_on_c, 0, 67, 100
2, 8204760, Note_on_c, 0, 67, 0
2, 8204760, Note_on_c, 0, 69, 100
2, 8204820, Note_on_c, 0, 69, 0
2, 8204820, Note_on_c, 0, 71, 100
2, 8204880, Note_on_c, 0, 71, 0
2, 8204880, Note_on_c, 0, 69, 100
2, 8205360, Note_on_c, 0, 69, 0
2, 8205360, Note_on_c, 0, 67, 100
2, 8205600, Note_on_c, 0, 67, 0
2, 8205600, Note_on_c, 0, 66, 100
2, 8205960, Note_on_c, 0, 66, 0
2, 8205960, Note_on_c, 0, 64, 100
2, 8206080, Note_on_c, 0, 64, 0
2, 8206080, Note_on_c, 0, 62, 100
2, 8206200, Note_on_c, 0, 62, 0
2, 8206200, Note_on_c, 0, 64, 100
2, 8206320, Note_on_c, 0, 64, 0
2, 8206320, Note_on_c, 0, 61, 100
2, 8206440, Note_on_c, 0, 61, 0
2, 8206440, Note_on_c, 0, 62, 100
2, 8206560, Note_on_c, 0, 62, 0
2, 8206560, Note_on_c, 0, 81, 100
2, 8207280, Note_on_c, 0, 81, 0
2, 8207280, Note_on_c, 0, 79, 100
2, 8207520, Note_on_c, 0, 79, 0
2, 8207520, Note_on_c, 0, 78, 100
2, 8207640, Note_on_c, 0, 78, 0
2, 8207640, Note_on_c, 0, 76, 100
2, 8207760, Note_on_c, 0, 76, 0
2, 8207760, Note_on_c, 0, 74, 100
2, 8207880, Note_on_c, 0, 74, 0
2, 8207880, Note_on_c, 0, 72, 100
2, 8208000, Note_on_c, 0, 72, 0
2, 8208000, Note_on_c, 0, 74, 100
2, 8208120, Note_on_c, 0, 74, 0
2, 8208120, Note_on_c, 0, 76, 100
2, 8208240, Note_on_c, 0, 76, 0
2, 8208240, Note_on_c, 0, 74, 100
2, 8208360, Note_on_c, 0, 74, 0
2, 8208360, Note_on_c, 0, 72, 100
2, 8208480, Note_on_c, 0, 72, 0
2, 8208480, Note_on_c, 0, 81, 100
2, 8208600, Note_on_c, 0, 81, 0
2, 8208600, Note_on_c, 0, 71, 100
2, 8208720, Note_on_c, 0, 71, 0
2, 8208720, Note_on_c, 0, 79, 100
2, 8209440, Note_on_c, 0, 79, 0
2, 8209440, Note_on_c, 0, 84, 100
2, 8210160, Note_on_c, 0, 84, 0
2, 8210160, Note_on_c, 0, 86, 100
2, 8210280, Note_on_c, 0, 86, 0
2, 8210280, Note_on_c, 0, 84, 100
2, 8210400, Note_on_c, 0, 84, 0
2, 8210400, Note_on_c, 0, 83, 100
2, 8210520, Note_on_c, 0, 83, 0
2, 8210520, Note_on_c, 0, 81, 100
2, 8210640, Note_on_c, 0, 81, 0
2, 8210640, Note_on_c, 0, 79, 100
2, 8210760, Note_on_c, 0, 79, 0
2, 8210760, Note_on_c, 0, 81, 100
2, 8210880, Note_on_c, 0, 81, 0
2, 8210880, Note_on_c, 0, 83, 100
2, 8211000, Note_on_c, 0, 83, 0
2, 8211000, Note_on_c, 0, 81, 100
2, 8211120, Note_on_c, 0, 81, 0
2, 8211120, Note_on_c, 0, 79, 100
2, 8211240, Note_on_c, 0, 79, 0
2, 8211240, Note_on_c, 0, 78, 100
2, 8211360, Note_on_c, 0, 78, 0
2, 8211360, Note_on_c, 0, 76, 100
2, 8211480, Note_on_c, 0, 76, 0
2, 8211480, Note_on_c, 0, 75, 100
2, 8211600, Note_on_c, 0, 75, 0
2, 8211600, Note_on_c, 0, 78, 100
2, 8211840, Note_on_c, 0, 78, 0
2, 8211840, Note_on_c, 0, 76, 100
2, 8211900, Note_on_c, 0, 76, 0
2, 8211900, Note_on_c, 0, 75, 100
2, 8211960, Note_on_c, 0, 75, 0
2, 8211960, Note_on_c, 0, 76, 100
2, 8212020, Note_on_c, 0, 76, 0
2, 8212020, Note_on_c, 0, 78, 100
2, 8212080, Note_on_c, 0, 78, 0
2, 8212080, Note_on_c, 0, 71, 100
2, 8212320, Note_on_c, 0, 71, 0
2, 8212320, Note_on_c, 0, 69, 100
2, 8213160, Note_on_c, 0, 69, 0
2, 8213160, Note_on_c, 0, 71, 100
2, 8213280, Note_on_c, 0, 71, 0
2, 8213280, Note_on_c, 0, 74, 100
2, 8213400, Note_on_c, 0, 74, 0
2, 8213400, Note_on_c, 0, 72, 100
2, 8213520, Note_on_c, 0, 72, 0
2, 8213520, Note_on_c, 0, 71, 100
2, 8213640, Note_on_c, 0, 71, 0
2, 8213640, Note_on_c, 0, 72, 100
2, 8213760, Note_on_c, 0, 72, 0
2, 8213760, Note_on_c, 0, 77, 100
2, 8213880, Note_on_c, 0, 77, 0
2, 8213880, Note_on_c, 0, 72, 100
2, 8214000, Note_on_c, 0, 72, 0
2, 8214000, Note_on_c, 0, 69, 100
2, 8214120, Note_on_c, 0, 69, 0
2, 8214120, Note_on_c, 0, 65, 100
2, 8214240, Note_on_c, 0, 65, 0
2, 8214240, Note_on_c, 0, 69, 100
2, 8214360, Note_on_c, 0, 69, 0
2, 8214360, Note_on_c, 0, 63, 100
2, 8214480, Note_on_c, 0, 63, 0
2, 8214480, Note_on_c, 0, 64, 100
2, 8214600, Note_on_c, 0, 64, 0
2, 8214600, Note_on_c, 0, 66, 100
2, 8214720, Note_on_c, 0, 66, 0
2, 8214720, Note_on_c, 0, 69, 100
2, 8214840, Note_on_c, 0, 69, 0
2, 8214840, Note_on_c, 0, 67, 100
2, 8214960, Note_on_c, 0, 67, 0
2, 8214960, Note_on_c, 0, 66, 100
2, 8215080, Note_on_c, 0, 66, 0
2, 8215080, Note_on_c, 0, 67, 100
2, 8215200, Note_on_c, 0, 67, 0
2, 8215200, Note_on_c, 0, 69, 100
2, 8215440, Note_on_c, 0, 69, 0
2, 8215440, Note_on_c, 0, 67, 100
2, 8215500, Note_on_c, 0, 67, 0
2, 8215500, Note_on_c, 0, 69, 100
2, 8215560, Note_on_c, 0, 69, 0
2, 8215560, Note_on_c, 0, 67, 100
2, 8215620, Note_on_c, 0, 67, 0
2, 8215620, Note_on_c, 0, 69, 100
2, 8215680, Note_on_c, 0, 69, 0
2, 8215680, Note_on_c, 0, 67, 100
2, 8215740, Note_on_c, 0, 67, 0
2, 8215740, Note_on_c, 0, 66, 100
2, 8215800, Note_on_c, 0, 66, 0
2, 8215800, Note_on_c, 0, 67, 100
2, 8215860, Note_on_c, 0, 67, 0
2, 8215860, Note_on_c, 0, 69, 100
2, 8215920, Note_on_c, 0, 69, 0
2, 8215920, Note_on_c, 0, 71, 100
2, 8216040, Note_on_c, 0, 71, 0
2, 8216040, Note_on_c, 0, 72, 100
2, 8216160, Note_on_c, 0, 72, 0
2, 8216160, Note_on_c, 0, 71, 100
2, 8216280, Note_on_c, 0, 71, 0
2, 8216280, Note_on_c, 0, 69, 100
2, 8216400, Note_on_c, 0, 69, 0
2, 8216400, Note_on_c, 0, 71, 100
2, 8216640, Note_on_c, 0, 71, 0
2, 8216640, Note_on_c, 0, 69, 100
2, 8216700, Note_on_c, 0, 69, 0
2, 8216700, Note_on_c, 0, 67, 100
2, 8216760, Note_on_c, 0, 67, 0
2, 8216760, Note_on_c, 0, 69, 100
2, 8216820, Note_on_c, 0, 69, 0
2, 8216820, Note_on_c, 0, 66, 100
2, 8217480, Note_on_c, 0, 66, 0
2, 8217480, Note_on_c, 0, 67, 100
2, 8217600, Note_on_c, 0, 67, 0
2, 8217600, Note_on_c, 0, 69, 100
2, 8217720, Note_on_c, 0, 69, 0
2, 8217720, Note_on_c, 0, 71, 100
2, 8217840, Note_on_c, 0, 71, 0
2, 8217840, Note_on_c, 0, 72, 100
2, 8217960, Note_on_c, 0, 72, 0
2, 8217960, Note_on_c, 0, 74, 100
2, 8218080, Note_on_c, 0, 74, 0
2, 8218080, Note_on_c, 0, 72, 100
2, 8218200, Note_on_c, 0, 72, 0
2, 8218200, Note_on_c, 0, 71, 100
2, 8218320, Note_on_c, 0, 71, 0
2, 8218320, Note_on_c, 0, 69, 100
2, 8218440, Note_on_c, 0, 69, 0
2, 8218440, Note_on_c, 0, 68, 100
2, 8218560, Note_on_c, 0, 68, 0
2, 8218560, Note_on_c, 0, 66, 100
2, 8218680, Note_on_c, 0, 66, 0
2, 8218680, Note_on_c, 0, 64, 100
2, 8218800, Note_on_c, 0, 64, 0
2, 8218800, Note_on_c, 0, 68, 100
2, 8218920, Note_on_c, 0, 68, 0
2, 8218920, Note_on_c, 0, 69, 100
2, 8219040, Note_on_c, 0, 69, 0
2, 8219040, Note_on_c, 0, 71, 100
2, 8219160, Note_on_c, 0, 71, 0
2, 8219160, Note_on_c, 0, 72, 100
2, 8219280, Note_on_c, 0, 72, 0
2, 8219280, Note_on_c, 0, 74, 100
2, 8219400, Note_on_c, 0, 74, 0
2, 8219400, Note_on_c, 0, 76, 100
2, 8219520, Note_on_c, 0, 76, 0
2, 8219520, Note_on_c, 0, 74, 100
2, 8219640, Note_on_c, 0, 74, 0
2, 8219640, Note_on_c, 0, 72, 100
2, 8219760, Note_on_c, 0, 72, 0
2, 8219760, Note_on_c, 0, 74, 100
2, 8219880, Note_on_c, 0, 74, 0
2, 8219880, Note_on_c, 0, 76, 100
2, 8220000, Note_on_c, 0, 76, 0
2, 8220000, Note_on_c, 0, 69, 100
2, 8220240, Note_on_c, 0, 69, 0
2, 8220240, Note_on_c, 0, 78, 100
2, 8220960, Note_on_c, 0, 78, 0
2, 8220960, Note_on_c, 0, 71, 100
2, 8221680, Note_on_c, 0, 71, 0
2, 8221680, Note_on_c, 0, 72, 100
2, 8221920, Note_on_c, 0, 72, 0
2, 8221920, Note_on_c, 0, 74, 100
2, 8222040, Note_on_c, 0, 74, 0
2, 8222040, Note_on_c, 0, 76, 100
2, 8222160, Note_on_c, 0, 76, 0
2, 8222160, Note_on_c, 0, 78, 100
2, 8222280, Note_on_c, 0, 78, 0
2, 8222280, Note_on_c, 0, 79, 100
2, 8222400, Note_on_c, 0, 79, 0
2, 8222400, Note_on_c, 0, 81, 100
2, 8222520, Note_on_c, 0, 81, 0
2, 8222520, Note_on_c, 0, 79, 100
2, 8222640, Note_on_c, 0, 79, 0
2, 8222640, Note_on_c, 0, 78, 100
2, 8222760, Note_on_c, 0, 78, 0
2, 8222760, Note_on_c, 0, 79, 100
2, 8222880, Note_on_c, 0, 79, 0
2, 8222880, Note_on_c, 0, 76, 100
2, 8223000, Note_on_c, 0, 76, 0
2, 8223000, Note_on_c, 0, 84, 100
2, 8223120, Note_on_c, 0, 84, 0
2, 8223120, Note_on_c, 0, 83, 100
2, 8223240, Note_on_c, 0, 83, 0
2, 8223240, Note_on_c, 0, 81, 100
2, 8223360, Note_on_c, 0, 81, 0
2, 8223360, Note_on_c, 0, 79, 100
2, 8223480, Note_on_c, 0, 79, 0
2, 8223480, Note_on_c, 0, 78, 100
2, 8223600, Note_on_c, 0, 78, 0
2, 8223600, Note_on_c, 0, 76, 100
2, 8223720, Note_on_c, 0, 76, 0
2, 8223720, Note_on_c, 0, 74, 100
2, 8223840, Note_on_c, 0, 74, 0
2, 8223840, Note_on_c, 0, 72, 100
2, 8224680, Note_on_c, 0, 72, 0
2, 8224680, Note_on_c, 0, 74, 100
2, 8224800, Note_on_c, 0, 74, 0
2, 8224800, Note_on_c, 0, 76, 100
2, 8224920, Note_on_c, 0, 76, 0
2, 8224920, Note_on_c, 0, 78, 100
2, 8225040, Note_on_c, 0, 78, 0
2, 8225040, Note_on_c, 0, 79, 100
2, 8225160, Note_on_c, 0, 79, 0
2, 8225160, Note_on_c, 0, 81, 100
2, 8225280, Note_on_c, 0, 81, 0
2, 8225280, Note_on_c, 0, 76, 100
2, 8225400, Note_on_c, 0, 76, 0
2, 8225400, Note_on_c, 0, 72, 100
2, 8225520, Note_on_c, 0, 72, 0
2, 8225520, Note_on_c, 0, 69, 100
2, 8225640, Note_on_c, 0, 69, 0
2, 8225640, Note_on_c, 0, 71, 100
2, 8225760, Note_on_c, 0, 71, 0
2, 8225760, Note_on_c, 0, 72, 100
2, 8225880, Note_on_c, 0, 72, 0
2, 8225880, Note_on_c, 0, 66, 100
2, 8226000, Note_on_c, 0, 66, 0
2, 8226000, Note_on_c, 0, 67, 100
2, 8226120, Note_on_c, 0, 67, 0
2, 8226120, Note_on_c, 0, 69, 100
2, 8226240, Note_on_c, 0, 69, 0
2, 8226240, Note_on_c, 0, 71, 100
2, 8226360, Note_on_c, 0, 71, 0
2, 8226360, Note_on_c, 0, 72, 100
2, 8226480, Note_on_c, 0, 72, 0
2, 8226480, Note_on_c, 0, 69, 100
2, 8226600, Note_on_c, 0, 69, 0
2, 8226600, Note_on_c, 0, 71, 100
2, 8226720, Note_on_c, 0, 71, 0
2, 8226720, Note_on_c, 0, 74, 100
2, 8226840, Note_on_c, 0, 74, 0
2, 8226840, Note_on_c, 0, 79, 100
2, 8226960, Note_on_c, 0, 79, 0
2, 8226960, Note_on_c, 0, 76, 100
2, 8227680, Note_on_c, 0, 76, 0
2, 8227680, Note_on_c, 0, 74, 100
2, 8227920, Note_on_c, 0, 74, 0
2, 8227920, Note_on_c, 0, 72, 100
2, 8228160, Note_on_c, 0, 72, 0
2, 8228160, Note_on_c, 0, 74, 100
2, 8228400, Note_on_c, 0, 74, 0
2, 8228400, Note_on_c, 0, 72, 100
2, 8228520, Note_on_c, 0, 72, 0
2, 8228520, Note_on_c, 0, 71, 100
2, 8228640, Note_on_c, 0, 71, 0
2, 8228640, Note_on_c, 0, 69, 100
2, 8228760, Note_on_c, 0, 69, 0
2, 8228760, Note_on_c, 0, 71, 100
2, 8228880, Note_on_c, 0, 71, 0
2, 8228880, Note_on_c, 0, 74, 100
2, 8229000, Note_on_c, 0, 74, 0
2, 8229000, Note_on_c, 0, 71, 100
2, 8229120, Note_on_c, 0, 71, 0
2, 8229120, Note_on_c, 0, 67, 100
2, 8229240, Note_on_c, 0, 67, 0
2, 8229240, Note_on_c, 0, 69, 100
2, 8229360, Note_on_c, 0, 69, 0
2, 8229360, Note_on_c, 0, 66, 100
2, 8229480, Note_on_c, 0, 66, 0
2, 8229480, Note_on_c, 0, 67, 100
2, 8229600, Note_on_c, 0, 67, 0
2, 8229600, Note_on_c, 0, 66, 100
2, 8229660, Note_on_c, 0, 66, 0
2, 8229660, Note_on_c, 0, 67, 100
2, 8229720, Note_on_c, 0, 67, 0
2, 8229720, Note_on_c, 0, 81, 100
2, 8230320, Note_on_c, 0, 81, 0
2, 8230320, Note_on_c, 0, 79, 100
2, 8230560, Note_on_c, 0, 79, 0
2, 8230560, Note_on_c, 0, 78, 100
2, 8230680, Note_on_c, 0, 78, 0
2, 8230680, Note_on_c, 0, 76, 100
2, 8230800, Note_on_c, 0, 76, 0
2, 8230800, Note_on_c, 0, 74, 100
2, 8230920, Note_on_c, 0, 74, 0
2, 8230920, Note_on_c, 0, 72, 100
2, 8231040, Note_on_c, 0, 72, 0
2, 8231040, Note_on_c, 0, 74, 100
2, 8231160, Note_on_c, 0, 74, 0
2, 8231160, Note_on_c, 0, 76, 100
2, 8231280, Note_on_c, 0, 76, 0
2, 8231280, Note_on_c, 0, 74, 100
2, 8231400, Note_on_c, 0, 74, 0
2, 8231400, Note_on_c, 0, 72, 100
2, 8231520, Note_on_c, 0, 72, 0
2, 8231520, Note_on_c, 0, 81, 100
2, 8231640, Note_on_c, 0, 81, 0
2, 8231640, Note_on_c, 0, 71, 100
2, 8231760, Note_on_c, 0, 71, 0
2, 8231760, Note_on_c, 0, 79, 100
2, 8232480, Note_on_c, 0, 79, 0
2, 8232480, Note_on_c, 0, 84, 100
2, 8233200, Note_on_c, 0, 84, 0
2, 8233200, Note_on_c, 0, 86, 100
2, 8233320, Note_on_c, 0, 86, 0
2, 8233320, Note_on_c, 0, 84, 100
2, 8233440, Note_on_c, 0, 84, 0
2, 8233440, Note_on_c, 0, 83, 100
2, 8233560, Note_on_c, 0, 83, 0
2, 8233560, Note_on_c, 0, 81, 100
2, 8233680, Note_on_c, 0, 81, 0
2, 8233680, Note_on_c, 0, 79, 100
2, 8233800, Note_on_c, 0, 79, 0
2, 8233800, Note_on_c, 0, 81, 100
2, 8233920, Note_on_c, 0, 81, 0
2, 8233920, Note_on_c, 0, 83, 100
2, 8234040, Note_on_c, 0, 83, 0
2, 8234040, Note_on_c, 0, 81, 100
2, 8234160, Note_on_c, 0, 81, 0
2, 8234160, Note_on_c, 0, 79, 100
2, 8234280, Note_on_c, 0, 79, 0
2, 8234280, Note_on_c, 0, 78, 100
2, 8234400, Note_on_c, 0, 78, 0
2, 8234400, Note_on_c, 0, 76, 100
2, 8234520, Note_on_c, 0, 76, 0
2, 8234520, Note_on_c, 0, 75, 100
2, 8234640, Note_on_c, 0, 75, 0
2, 8234640, Note_on_c, 0, 78, 100
2, 8234880, Note_on_c, 0, 78, 0
2, 8234880, Note_on_c, 0, 76, 100
2, 8234940, Note_on_c, 0, 76, 0
2, 8234940, Note_on_c, 0, 75, 100
2, 8235000, Note_on_c, 0, 75, 0
2, 8235000, Note_on_c, 0, 76, 100
2, 8235060, Note_on_c, 0, 76, 0
2, 8235060, Note_on_c, 0, 78, 100
2, 8235120, Note_on_c, 0, 78, 0
2, 8235120, Note_on_c, 0, 71, 100
2, 8235360, Note_on_c, 0, 71, 0
2, 8235360, Note_on_c, 0, 69, 100
2, 8236200, Note_on_c, 0, 69, 0
2, 8236200, Note_on_c, 0, 71, 100
2, 8236320, Note_on_c, 0, 71, 0
2, 8236320, Note_on_c, 0, 74, 100
2, 8236440, Note_on_c, 0, 74, 0
2, 8236440, Note_on_c, 0, 72, 100
2, 8236560, Note_on_c, 0, 72, 0
2, 8236560, Note_on_c, 0, 71, 100
2, 8236680, Note_on_c, 0, 71, 0
2, 8236680, Note_on_c, 0, 72, 100
2, 8236800, Note_on_c, 0, 72, 0
2, 8236800, Note_on_c, 0, 77, 100
2, 8236920, Note_on_c, 0, 77, 0
2, 8236920, Note_on_c, 0, 72, 100
2, 8237040, Note_on_c, 0, 72, 0
2, 8237040, Note_on_c, 0, 69, 100
2, 8237160, Note_on_c, 0, 69, 0
2, 8237160, Note_on_c, 0, 65, 100
2, 8237280, Note_on_c, 0, 65, 0
2, 8237280, Note_on_c, 0, 69, 100
2, 8237400, Note_on_c, 0, 69, 0
2, 8237400, Note_on_c, 0, 63, 100
2, 8237520, Note_on_c, 0, 63, 0
2, 8237520, Note_on_c, 0, 64, 100
2, 8237640, Note_on_c, 0, 64, 0
2, 8237640, Note_on_c, 0, 66, 100
2, 8237760, Note_on_c, 0, 66, 0
2, 8237760, Note_on_c, 0, 69, 100
2, 8237880, Note_on_c, 0, 69, 0
2, 8237880, Note_on_c, 0, 67, 100
2, 8238000, Note_on_c, 0, 67, 0
2, 8238000, Note_on_c, 0, 66, 100
2, 8238120, Note_on_c, 0, 66, 0
2, 8238120, Note_on_c, 0, 67, 100
2, 8238240, Note_on_c, 0, 67, 0
2, 8238240, Note_on_c, 0, 69, 100
2, 8238480, Note_on_c, 0, 69, 0
2, 8238480, Note_on_c, 0, 67, 100
2, 8238540, Note_on_c, 0, 67, 0
2, 8238540, Note_on_c, 0, 69, 100
2, 8238600, Note_on_c, 0, 69, 0
2, 8238600, Note_on_c, 0, 67, 100
2, 8238660, Note_on_c, 0, 67, 0
2, 8238660, Note_on_c, 0, 69, 100
2, 8238720, Note_on_c, 0, 69, 0
2, 8238720, Note_on_c, 0, 67, 100
2, 8238780, Note_on_c, 0, 67, 0
2, 8238780, Note_on_c, 0, 66, 100
2, 8238840, Note_on_c, 0, 66, 0
2, 8238840, Note_on_c, 0, 67, 100
2, 8238900, Note_on_c, 0, 67, 0
2, 8238900, Note_on_c, 0, 69, 100
2, 8238960, Note_on_c, 0, 69, 0
2, 8238960, Note_on_c, 0, 71, 100
2, 8239080, Note_on_c, 0, 71, 0
2, 8239080, Note_on_c, 0, 72, 100
2, 8239200, Note_on_c, 0, 72, 0
2, 8239200, Note_on_c, 0, 71, 100
2, 8239320, Note_on_c, 0, 71, 0
2, 8239320, Note_on_c, 0, 69, 100
2, 8239440, Note_on_c, 0, 69, 0
2, 8239440, Note_on_c, 0, 71, 100
2, 8239680, Note_on_c, 0, 71, 0
2, 8239680, Note_on_c, 0, 69, 100
2, 8239740, Note_on_c, 0, 69, 0
2, 8239740, Note_on_c, 0, 67, 100
2, 8239800, Note_on_c, 0, 67, 0
2, 8239800, Note_on_c, 0, 69, 100
2, 8239860, Note_on_c, 0, 69, 0
2, 8239860, Note_on_c, 0, 66, 100
2, 8240520, Note_on_c, 0, 66, 0
2, 8240520, Note_on_c, 0, 67, 100
2, 8240640, Note_on_c, 0, 67, 0
2, 8240640, Note_on_c, 0, 69, 100
2, 8240760, Note_on_c, 0, 69, 0
2, 8240760, Note_on_c, 0, 71, 100
2, 8240880, Note_on_c, 0, 71, 0
2, 8240880, Note_on_c, 0, 72, 100
2, 8241000, Note_on_c, 0, 72, 0
2, 8241000, Note_on_c, 0, 74, 100
2, 8241120, Note_on_c, 0, 74, 0
2, 8241120, Note_on_c, 0, 72, 100
2, 8241240, Note_on_c, 0, 72, 0
2, 8241240, Note_on_c, 0, 71, 100
2, 8241360, Note_on_c, 0, 71, 0
2, 8241360, Note_on_c, 0, 69, 100
2, 8241480, Note_on_c, 0, 69, 0
2, 8241480, Note_on_c, 0, 68, 100
2, 8241600, Note_on_c, 0, 68, 0
2, 8241600, Note_on_c, 0, 66, 100
2, 8241720, Note_on_c, 0, 66, 0
2, 8241720, Note_on_c, 0, 64, 100
2, 8241840, Note_on_c, 0, 64, 0
2, 8241840, Note_on_c, 0, 68, 100
2, 8241960, Note_on_c, 0, 68, 0
2, 8241960, Note_on_c, 0, 69, 100
2, 8242080, Note_on_c, 0, 69, 0
2, 8242080, Note_on_c, 0, 71, 100
2, 8242200, Note_on_c, 0, 71, 0
2, 8242200, Note_on_c, 0, 72, 100
2, 8242320, Note_on_c, 0, 72, 0
2, 8242320, Note_on_c, 0, 74, 100
2, 8242440, Note_on_c, 0, 74, 0
2, 8242440, Note_on_c, 0, 76, 100
2, 8242560, Note_on_c, 0, 76, 0
2, 8242560, Note_on_c, 0, 74, 100
2, 8242680, Note_on_c, 0, 74, 0
2, 8242680, Note_on_c, 0, 72, 100
2, 8242800, Note_on_c, 0, 72, 0
2, 8242800, Note_on_c, 0, 74, 100
2, 8242920, Note_on_c, 0, 74, 0
2, 8242920, Note_on_c, 0, 76, 100
2, 8243040, Note_on_c, 0, 76, 0
2, 8243040, Note_on_c, 0, 69, 100
2, 8243280, Note_on_c, 0, 69, 0
2, 8243280, Note_on_c, 0, 78, 100
2, 8244000, Note_on_c, 0, 78, 0
2, 8244000, Note_on_c, 0, 71, 100
2, 8244720, Note_on_c, 0, 71, 0
2, 8244720, Note_on_c, 0, 72, 100
2, 8244960, Note_on_c, 0, 72, 0
2, 8244960, Note_on_c, 0, 74, 100
2, 8245080, Note_on_c, 0, 74, 0
2, 8245080, Note_on_c, 0, 76, 100
2, 8245200, Note_on_c, 0, 76, 0
2, 8245200, Note_on_c, 0, 78, 100
2, 8245320, Note_on_c, 0, 78, 0
2, 8245320, Note_on_c, 0, 79, 100
2, 8245440, Note_on_c, 0, 79, 0
2, 8245440, Note_on_c, 0, 81, 100
2, 8245560, Note_on_c, 0, 81, 0
2, 8245560, Note_on_c, 0, 79, 100
2, 8245680, Note_on_c, 0, 79, 0
2, 8245680, Note_on_c, 0, 78, 100
2, 8245800, Note_on_c, 0, 78, 0
2, 8245800, Note_on_c, 0, 79, 100
2, 8245920, Note_on_c, 0, 79, 0
2, 8245920, Note_on_c, 0, 76, 100
2, 8246040, Note_on_c, 0, 76, 0
2, 8246040, Note_on_c, 0, 84, 100
2, 8246160, Note_on_c, 0, 84, 0
2, 8246160, Note_on_c, 0, 83, 100
2, 8246280, Note_on_c, 0, 83, 0
2, 8246280, Note_on_c, 0, 81, 100
2, 8246400, Note_on_c, 0, 81, 0
2, 8246400, Note_on_c, 0, 79, 100
2, 8246520, Note_on_c, 0, 79, 0
2, 8246520, Note_on_c, 0, 78, 100
2, 8246640, Note_on_c, 0, 78, 0
2, 8246640, Note_on_c, 0, 76, 100
2, 8246760, Note_on_c, 0, 76, 0
2, 8246760, Note_on_c, 0, 74, 100
2, 8246880, Note_on_c, 0, 74, 0
2, 8246880, Note_on_c, 0, 72, 100
2, 8247720, Note_on_c, 0, 72, 0
2, 8247720, Note_on_c, 0, 74, 100
2, 8247840, Note_on_c, 0, 74, 0
2, 8247840, Note_on_c, 0, 76, 100
2, 8247960, Note_on_c, 0, 76, 0
2, 8247960, Note_on_c, 0, 78, 100
2, 8248080, Note_on_c, 0, 78, 0
2, 8248080, Note_on_c, 0, 79, 100
2, 8248200, Note_on_c, 0, 79, 0
2, 8248200, Note_on_c, 0, 81, 100
2, 8248320, Note_on_c, 0, 81, 0
2, 8248320, Note_on_c, 0, 76, 100
2, 8248440, Note_on_c, 0, 76, 0
2, 8248440, Note_on_c, 0, 72, 100
2, 8248560, Note_on_c, 0, 72, 0
2, 8248560, Note_on_c, 0, 69, 100
2, 8248680, Note_on_c, 0, 69, 0
2, 8248680, Note_on_c, 0, 71, 100
2, 8248800, Note_on_c, 0, 71, 0
2, 8248800, Note_on_c, 0, 72, 100
2, 8248920, Note_on_c, 0, 72, 0
2, 8248920, Note_on_c, 0, 66, 100
2, 8249040, Note_on_c, 0, 66, 0
2, 8249040, Note_on_c, 0, 67, 100
2, 8249160, Note_on_c, 0, 67, 0
2, 8249160, Note_on_c, 0, 69, 100
2, 8249280, Note_on_c, 0, 69, 0
2, 8249280, Note_on_c, 0, 71, 100
2, 8249400, Note_on_c, 0, 71, 0
2, 8249400, Note_on_c, 0, 72, 100
2, 8249520, Note_on_c, 0, 72, 0
2, 8249520, Note_on_c, 0, 69, 100
2, 8249640, Note_on_c, 0, 69, 0
2, 8249640, Note_on_c, 0, 71, 100
2, 8249760, Note_on_c, 0, 71, 0
2, 8249760, Note_on_c, 0, 74, 100
2, 8249880, Note_on_c, 0, 74, 0
2, 8249880, Note_on_c, 0, 79, 100
2, 8250000, Note_on_c, 0, 79, 0
2, 8250000, Note_on_c, 0, 76, 100
2, 8250720, Note_on_c, 0, 76, 0
2, 8250720, Note_on_c, 0, 74, 100
2, 8250960, Note_on_c, 0, 74, 0
2, 8250960, Note_on_c, 0, 72, 100
2, 8251200, Note_on_c, 0, 72, 0
2, 8251200, Note_on_c, 0, 74, 100
2, 8251440, Note_on_c, 0, 74, 0
2, 8251440, Note_on_c, 0, 72, 100
2, 8251560, Note_on_c, 0, 72, 0
2, 8251560, Note_on_c, 0, 71, 100
2, 8251680, Note_on_c, 0, 71, 0
2, 8251680, Note_on_c, 0, 69, 100
2, 8251800, Note_on_c, 0, 69, 0
2, 8251800, Note_on_c, 0, 71, 100
2, 8251920, Note_on_c, 0, 71, 0
2, 8251920, Note_on_c, 0, 74, 100
2, 8252040, Note_on_c, 0, 74, 0
2, 8252040, Note_on_c, 0, 71, 100
2, 8252160, Note_on_c, 0, 71, 0
2, 8252160, Note_on_c, 0, 67, 100
2, 8252280, Note_on_c, 0, 67, 0
2, 8252280, Note_on_c, 0, 69, 100
2, 8252400, Note_on_c, 0, 69, 0
2, 8252400, Note_on_c, 0, 66, 100
2, 8252520, Note_on_c, 0, 66, 0
2, 8252520, Note_on_c, 0, 67, 100
2, 8252640, Note_on_c, 0, 67, 0
2, 8252640, Note_on_c, 0, 66, 100
2, 8252700, Note_on_c, 0, 66, 0
2, 8252700, Note_on_c, 0, 67, 100
2, 8252760, Note_on_c, 0, 67, 0
2, 8252760, Note_on_c, 0, 74, 100
2, 8253420, Note_on_c, 0, 74, 0
2, 8253420, Note_on_c, 0, 76, 100
2, 8253480, Note_on_c, 0, 76, 0
2, 8253480, Note_on_c, 0, 74, 100
2, 8253540, Note_on_c, 0, 74, 0
2, 8253540, Note_on_c, 0, 76, 100
2, 8253600, Note_on_c, 0, 76, 0
2, 8253600, Note_on_c, 0, 74, 100
2, 8253660, Note_on_c, 0, 74, 0
2, 8253660, Note_on_c, 0, 76, 100
2, 8253720, Note_on_c, 0, 76, 0
2, 8253720, Note_on_c, 0, 74, 100
2, 8253900, Note_on_c, 0, 74, 0
2, 8253900, Note_on_c, 0, 76, 100
2, 8253960, Note_on_c, 0, 76, 0
2, 8253960, Note_on_c, 0, 74, 100
2, 8254020, Note_on_c, 0, 74, 0
2, 8254020, Note_on_c, 0, 76, 100
2, 8254080, Note_on_c, 0, 76, 0
2, 8254080, Note_on_c, 0, 74, 100
2, 8254140, Note_on_c, 0, 74, 0
2, 8254140, Note_on_c, 0, 76, 100
2, 8254200, Note_on_c, 0, 76, 0
2, 8254200, Note_on_c, 0, 74, 100
2, 8254380, Note_on_c, 0, 74, 0
2, 8254380, Note_on_c, 0, 76, 100
2, 8254440, Note_on_c, 0, 76, 0
2, 8254440, Note_on_c, 0, 74, 100
2, 8254500, Note_on_c, 0, 74, 0
2, 8254500, Note_on_c, 0, 76, 100
2, 8254560, Note_on_c, 0, 76, 0
2, 8254560, Note_on_c, 0, 74, 100
2, 8254620, Note_on_c, 0, 74, 0
2, 8254620, Note_on_c, 0, 76, 100
2, 8254680, Note_on_c, 0, 76, 0
2, 8254680, Note_on_c, 0, 74, 100
2, 8254860, Note_on_c, 0, 74, 0
2, 8254860, Note_on_c, 0, 76, 100
2, 8254920, Note_on_c, 0, 76, 0
2, 8254920, Note_on_c, 0, 74, 100
2, 8254980, Note_on_c, 0, 74, 0
2, 8254980, Note_on_c, 0, 76, 100
2, 8255040, Note_on_c, 0, 76, 0
2, 8255040, Note_on_c, 0, 74, 100
2, 8255100, Note_on_c, 0, 74, 0
2, 8255100, Note_on_c, 0, 76, 100
2, 8255160, Note_on_c, 0, 76, 0
2, 8255160, Note_on_c, 0, 74, 100
2, 8255340, Note_on_c, 0, 74, 0
2, 8255340, Note_on_c, 0, 76, 100
2, 8255400, Note_on_c, 0, 76, 0
2, 8255400, Note_on_c, 0, 74, 100
2, 8255460, Note_on_c, 0, 74, 0
2, 8255460, Note_on_c, 0, 76, 100
2, 8255520, Note_on_c, 0, 76, 0
2, 8255520, Note_on_c, 0, 74, 100
2, 8255580, Note_on_c, 0, 74, 0
2, 8255580, Note_on_c, 0, 76, 100
2, 8255640, Note_on_c, 0, 76, 0
2, 8255640, Note_on_c, 0, 74, 100
2, 8255820, Note_on_c, 0, 74, 0
2, 8255820, Note_on_c, 0, 76, 100
2, 8255880, Note_on_c, 0, 76, 0
2, 8255880, Note_on_c, 0, 74, 100
2, 8255940, Note_on_c, 0, 74, 0
2, 8255940, Note_on_c, 0, 76, 100
2, 8256000, Note_on_c, 0, 76, 0
2, 8256000, Note_on_c, 0, 74, 100
2, 8256060, Note_on_c, 0, 74, 0
2, 8256060, Note_on_c, 0, 76, 100
2, 8256120, Note_on_c, 0, 76, 0
2, 8256120, Note_on_c, 0, 74, 100
2, 8256300, Note_on_c, 0, 74, 0
2, 8256300, Note_on_c, 0, 76, 100
2, 8256360, Note_on_c, 0, 76, 0
2, 8256360, Note_on_c, 0, 74, 100
2, 8256420, Note_on_c, 0, 74, 0
2, 8256420, Note_on_c, 0, 76, 100
2, 8256480, Note_on_c, 0, 76, 0
2, 8256480, Note_on_c, 0, 74, 100
2, 8256540, Note_on_c, 0, 74, 0
2, 8256540, Note_on_c, 0, 76, 100
2, 8256600, Note_on_c, 0, 76, 0
2, 8256600, Note_on_c, 0, 74, 100
2, 8256780, Note_on_c, 0, 74, 0
2, 8256780, Note_on_c, 0, 76, 100
2, 8256840, Note_on_c, 0, 76, 0
2, 8256840, Note_on_c, 0, 74, 100
2, 8256900, Note_on_c, 0, 74, 0
2, 8256900, Note_on_c, 0, 76, 100
2, 8256960, Note_on_c, 0, 76, 0
2, 8256960, Note_on_c, 0, 74, 100
2, 8257020, Note_on_c, 0, 74, 0
2, 8257020, Note_on_c, 0, 76, 100
2, 8257080, Note_on_c, 0, 76, 0
2, 8257080, Note_on_c, 0, 74, 100
2, 8257140, Note_on_c, 0, 74, 0
2, 8257140, Note_on_c, 0, 73, 100
2, 8257260, Note_on_c, 0, 73, 0
2, 8257260, Note_on_c, 0, 74, 100
2, 8257320, Note_on_c, 0, 74, 0
2, 8257320, Note_on_c, 0, 73, 100
2, 8257380, Note_on_c, 0, 73, 0
2, 8257380, Note_on_c, 0, 74, 100
2, 8257440, Note_on_c, 0, 74, 0
2, 8257440, Note_on_c, 0, 73, 100
2, 8257500, Note_on_c, 0, 73, 0
2, 8257500, Note_on_c, 0, 74, 100
2, 8257560, Note_on_c, 0, 74, 0
2, 8257560, Note_on_c, 0, 73, 100
2, 8257620, Note_on_c, 0, 73, 0
2, 8257620, Note_on_c, 0, 74, 100
2, 8257740, Note_on_c, 0, 74, 0
2, 8257740, Note_on_c, 0, 76, 100
2, 8257800, Note_on_c, 0, 76, 0
2, 8257800, Note_on_c, 0, 74, 100
2, 8257860, Note_on_c, 0, 74, 0
2, 8257860, Note_on_c, 0, 76, 100
2, 8257920, Note_on_c, 0, 76, 0
2, 8257920, Note_on_c, 0, 74, 100
2, 8257980, Note_on_c, 0, 74, 0
2, 8257980, Note_on_c, 0, 76, 100
2, 8258040, Note_on_c, 0, 76, 0
2, 8258040, Note_on_c, 0, 74, 100
2, 8258220, Note_on_c, 0, 74, 0
2, 8258220, Note_on_c, 0, 76, 100
2, 8258280, Note_on_c, 0, 76, 0
2, 8258280, Note_on_c, 0, 74, 100
2, 8258340, Note_on_c, 0, 74, 0
2, 8258340, Note_on_c, 0, 76, 100
2, 8258400, Note_on_c, 0, 76, 0
2, 8258400, Note_on_c, 0, 74, 100
2, 8258460, Note_on_c, 0, 74, 0
2, 8258460, Note_on_c, 0, 76, 100
2, 8258520, Note_on_c, 0, 76, 0
2, 8258520, Note_on_c, 0, 74, 100
2, 8258700, Note_on_c, 0, 74, 0
2, 8258700, Note_on_c, 0, 76, 100
2, 8258760, Note_on_c, 0, 76, 0
2, 8258760, Note_on_c, 0, 74, 100
2, 8258820, Note_on_c, 0, 74, 0
2, 8258820, Note_on_c, 0, 76, 100
2, 8258880, Note_on_c, 0, 76, 0
2, 8258880, Note_on_c, 0, 74, 100
2, 8258940, Note_on_c, 0, 74, 0
2, 8258940, Note_on_c, 0, 76, 100
2, 8259000, Note_on_c, 0, 76, 0
2, 8259000, Note_on_c, 0, 74, 100
2, 8259060, Note_on_c, 0, 74, 0
2, 8259060, Note_on_c, 0, 71, 100
2, 8260320, Note_on_c, 0, 71, 0
2, 8260320, Note_on_c, 0, 72, 100
2, 8260560, Note_on_c, 0, 72, 0
2, 8260560, Note_on_c, 0, 81, 100
2, 8261760, Note_on_c, 0, 81, 0
2, 8261760, Note_on_c, 0, 83, 100
2, 8262000, Note_on_c, 0, 83, 0
2, 8262000, Note_on_c, 0, 57, 100
2, 8262240, Note_on_c, 0, 57, 0
2, 8262240, Note_on_c, 0, 59, 100
2, 8262480, Note_on_c, 0, 59, 0
2, 8262480, Note_on_c, 0, 52, 100
2, 8262720, Note_on_c, 0, 52, 0
2, 8262720, Note_on_c, 0, 54, 100
2, 8262960, Note_on_c, 0, 54, 0
2, 8262960, Note_on_c, 0, 84, 100
2, 8263680, Note_on_c, 0, 84, 0
2, 8263680, Note_on_c, 0, 83, 100
2, 8263920, Note_on_c, 0, 83, 0
2, 8263920, Note_on_c, 0, 81, 100
2, 8264160, Note_on_c, 0, 81, 0
2, 8264160, Note_on_c, 0, 79, 100
2, 8264400, Note_on_c, 0, 79, 0
2, 8264400, Note_on_c, 0, 69, 100
2, 8264640, Note_on_c, 0, 69, 0
2, 8264640, Note_on_c, 0, 71, 100
2, 8264880, Note_on_c, 0, 71, 0
2, 8264880, Note_on_c, 0, 79, 100
2, 8265000, Note_on_c, 0, 79, 0
2, 8265000, Note_on_c, 0, 78, 100
2, 8265120, Note_on_c, 0, 78, 0
2, 8265120, Note_on_c, 0, 79, 100
2, 8265240, Note_on_c, 0, 79, 0
2, 8265240, Note_on_c, 0, 76, 100
2, 8265360, Note_on_c, 0, 76, 0
2, 8265360, Note_on_c, 0, 71, 100
2, 8265480, Note_on_c, 0, 71, 0
2, 8265480, Note_on_c, 0, 69, 100
2, 8265600, Note_on_c, 0, 69, 0
2, 8265600, Note_on_c, 0, 71, 100
2, 8265720, Note_on_c, 0, 71, 0
2, 8265720, Note_on_c, 0, 67, 100
2, 8265840, Note_on_c, 0, 67, 0
2, 8265840, Note_on_c, 0, 71, 100
2, 8265960, Note_on_c, 0, 71, 0
2, 8265960, Note_on_c, 0, 76, 100
2, 8266080, Note_on_c, 0, 76, 0
2, 8266080, Note_on_c, 0, 79, 100
2, 8266200, Note_on_c, 0, 79, 0
2, 8266200, Note_on_c, 0, 81, 100
2, 8266320, Note_on_c, 0, 81, 0
2, 8266320, Note_on_c, 0, 78, 100
2, 8266440, Note_on_c, 0, 78, 0
2, 8266440, Note_on_c, 0, 76, 100
2, 8266560, Note_on_c, 0, 76, 0
2, 8266560, Note_on_c, 0, 78, 100
2, 8266680, Note_on_c, 0, 78, 0
2, 8266680, Note_on_c, 0, 74, 100
2, 8266800, Note_on_c, 0, 74, 0
2, 8266800, Note_on_c, 0, 69, 100
2, 8266920, Note_on_c, 0, 69, 0
2, 8266920, Note_on_c, 0, 67, 100
2, 8267040, Note_on_c, 0, 67, 0
2, 8267040, Note_on_c, 0, 69, 100
2, 8267160, Note_on_c, 0, 69, 0
2, 8267160, Note_on_c, 0, 66, 100
2, 8267280, Note_on_c, 0, 66, 0
2, 8267280, Note_on_c, 0, 69, 100
2, 8267400, Note_on_c, 0, 69, 0
2, 8267400, Note_on_c, 0, 74, 100
2, 8267520, Note_on_c, 0, 74, 0
2, 8267520, Note_on_c, 0, 78, 100
2, 8267640, Note_on_c, 0, 78, 0
2, 8267640, Note_on_c, 0, 79, 100
2, 8267760, Note_on_c, 0, 79, 0
2, 8267760, Note_on_c, 0, 76, 100
2, 8267880, Note_on_c, 0, 76, 0
2, 8267880, Note_on_c, 0, 75, 100
2, 8268000, Note_on_c, 0, 75, 0
2, 8268000, Note_on_c, 0, 76, 100
2, 8268120, Note_on_c, 0, 76, 0
2, 8268120, Note_on_c, 0, 71, 100
2, 8268240, Note_on_c, 0, 71, 0
2, 8268240, Note_on_c, 0, 67, 100
2, 8268360, Note_on_c, 0, 67, 0
2, 8268360, Note_on_c, 0, 66, 100
2, 8268480, Note_on_c, 0, 66, 0
2, 8268480, Note_on_c, 0, 67, 100
2, 8268600, Note_on_c, 0, 67, 0
2, 8268600, Note_on_c, 0, 64, 100
2, 8268720, Note_on_c, 0, 64, 0
2, 8268720, Note_on_c, 0, 67, 100
2, 8268840, Note_on_c, 0, 67, 0
2, 8268840, Note_on_c, 0, 71, 100
2, 8268960, Note_on_c, 0, 71, 0
2, 8268960, Note_on_c, 0, 74, 100
2, 8269080, Note_on_c, 0, 74, 0
2, 8269080, Note_on_c, 0, 73, 100
2, 8269200, Note_on_c, 0, 73, 0
2, 8269200, Note_on_c, 0, 67, 100
2, 8269320, Note_on_c, 0, 67, 0
2, 8269320, Note_on_c, 0, 66, 100
2, 8269440, Note_on_c, 0, 66, 0
2, 8269440, Note_on_c, 0, 67, 100
2, 8269560, Note_on_c, 0, 67, 0
2, 8269560, Note_on_c, 0, 64, 100
2, 8269680, Note_on_c, 0, 64, 0
2, 8269680, Note_on_c, 0, 61, 100
2, 8269800, Note_on_c, 0, 61, 0
2, 8269800, Note_on_c, 0, 59, 100
2, 8269920, Note_on_c, 0, 59, 0
2, 8269920, Note_on_c, 0, 61, 100
2, 8270040, Note_on_c, 0, 61, 0
2, 8270040, Note_on_c, 0, 57, 100
2, 8270160, Note_on_c, 0, 57, 0
2, 8270160, Note_on_c, 0, 61, 100
2, 8270280, Note_on_c, 0, 61, 0
2, 8270280, Note_on_c, 0, 64, 100
2, 8270400, Note_on_c, 0, 64, 0
2, 8270400, Note_on_c, 0, 67, 100
2, 8270520, Note_on_c, 0, 67, 0
2, 8270520, Note_on_c, 0, 62, 100
2, 8270700, Note_on_c, 0, 62, 0
2, 8270700, Note_on_c, 0, 64, 100
2, 8270760, Note_on_c, 0, 64, 0
2, 8270760, Note_on_c, 0, 62, 100
2, 8270820, Note_on_c, 0, 62, 0
2, 8270820, Note_on_c, 0, 64, 100
2, 8270880, Note_on_c, 0, 64, 0
2, 8270880, Note_on_c, 0, 62, 100
2, 8270940, Note_on_c, 0, 62, 0
2, 8270940, Note_on_c, 0, 64, 100
2, 8271000, Note_on_c, 0, 64, 0
2, 8271000, Note_on_c, 0, 62, 100
2, 8271180, Note_on_c, 0, 62, 0
2, 8271180, Note_on_c, 0, 64, 100
2, 8271240, Note_on_c, 0, 64, 0
2, 8271240, Note_on_c, 0, 62, 100
2, 8271300, Note_on_c, 0, 62, 0
2, 8271300, Note_on_c, 0, 64, 100
2, 8271360, Note_on_c, 0, 64, 0
2, 8271360, Note_on_c, 0, 62, 100
2, 8271420, Note_on_c, 0, 62, 0
2, 8271420, Note_on_c, 0, 64, 100
2, 8271480, Note_on_c, 0, 64, 0
2, 8271480, Note_on_c, 0, 62, 100
2, 8271660, Note_on_c, 0, 62, 0
2, 8271660, Note_on_c, 0, 64, 100
2, 8271720, Note_on_c, 0, 64, 0
2, 8271720, Note_on_c, 0, 62, 100
2, 8271780, Note_on_c, 0, 62, 0
2, 8271780, Note_on_c, 0, 64, 100
2, 8271840, Note_on_c, 0, 64, 0
2, 8271840, Note_on_c, 0, 62, 100
2, 8271900, Note_on_c, 0, 62, 0
2, 8271900, Note_on_c, 0, 64, 100
2, 8271960, Note_on_c, 0, 64, 0
2, 8271960, Note_on_c, 0, 62, 100
2, 8272140, Note_on_c, 0, 62, 0
2, 8272140, Note_on_c, 0, 64, 100
2, 8272200, Note_on_c, 0, 64, 0
2, 8272200, Note_on_c, 0, 62, 100
2, 8272260, Note_on_c, 0, 62, 0
2, 8272260, Note_on_c, 0, 64, 100
2, 8272320, Note_on_c, 0, 64, 0
2, 8272320, Note_on_c, 0, 62, 100
2, 8272380, Note_on_c, 0, 62, 0
2, 8272380, Note_on_c, 0, 64, 100
2, 8272440, Note_on_c, 0, 64, 0
2, 8272440, Note_on_c, 0, 62, 100
2, 8272620, Note_on_c, 0, 62, 0
2, 8272620, Note_on_c, 0, 64, 100
2, 8272680, Note_on_c, 0, 64, 0
2, 8272680, Note_on_c, 0, 62, 100
2, 8272740, Note_on_c, 0, 62, 0
2, 8272740, Note_on_c, 0, 64, 100
2, 8272800, Note_on_c, 0, 64, 0
2, 8272800, Note_on_c, 0, 62, 100
2, 8272860, Note_on_c, 0, 62, 0
2, 8272860, Note_on_c, 0, 64, 100
2, 8272920, Note_on_c, 0, 64, 0
2, 8272920, Note_on_c, 0, 62, 100
2, 8273100, Note_on_c, 0, 62, 0
2, 8273100, Note_on_c, 0, 64, 100
2, 8273160, Note_on_c, 0, 64, 0
2, 8273160, Note_on_c, 0, 62, 100
2, 8273220, Note_on_c, 0, 62, 0
2, 8273220, Note_on_c, 0, 64, 100
2, 8273280, Note_on_c, 0, 64, 0
2, 8273280, Note_on_c, 0, 62, 100
2, 8273340, Note_on_c, 0, 62, 0
2, 8273340, Note_on_c, 0, 64, 100
2, 8273400, Note_on_c, 0, 64, 0
2, 8273400, Note_on_c, 0, 62, 100
2, 8273580, Note_on_c, 0, 62, 0
2, 8273580, Note_on_c, 0, 64, 100
2, 8273640, Note_on_c, 0, 64, 0
2, 8273640, Note_on_c, 0, 62, 100
2, 8273700, Note_on_c, 0, 62, 0
2, 8273700, Note_on_c, 0, 64, 100
2, 8273760, Note_on_c, 0, 64, 0
2, 8273760, Note_on_c, 0, 62, 100
2, 8273820, Note_on_c, 0, 62, 0
2, 8273820, Note_on_c, 0, 64, 100
2, 8273880, Note_on_c, 0, 64, 0
2, 8273880, Note_on_c, 0, 62, 100
2, 8274060, Note_on_c, 0, 62, 0
2, 8274060, Note_on_c, 0, 64, 100
2, 8274120, Note_on_c, 0, 64, 0
2, 8274120, Note_on_c, 0, 62, 100
2, 8274180, Note_on_c, 0, 62, 0
2, 8274180, Note_on_c, 0, 64, 100
2, 8274240, Note_on_c, 0, 64, 0
2, 8274240, Note_on_c, 0, 62, 100
2, 8274300, Note_on_c, 0, 62, 0
2, 8274300, Note_on_c, 0, 64, 100
2, 8274360, Note_on_c, 0, 64, 0
2, 8274360, Note_on_c, 0, 62, 100
2, 8274420, Note_on_c, 0, 62, 0
2, 8274420, Note_on_c, 0, 61, 100
2, 8274540, Note_on_c, 0, 61, 0
2, 8274540, Note_on_c, 0, 62, 100
2, 8274600, Note_on_c, 0, 62, 0
2, 8274600, Note_on_c, 0, 61, 100
2, 8274660, Note_on_c, 0, 61, 0
2, 8274660, Note_on_c, 0, 62, 100
2, 8274720, Note_on_c, 0, 62, 0
2, 8274720, Note_on_c, 0, 61, 100
2, 8274780, Note_on_c, 0, 61, 0
2, 8274780, Note_on_c, 0, 62, 100
2, 8274840, Note_on_c, 0, 62, 0
2, 8274840, Note_on_c, 0, 61, 100
2, 8274900, Note_on_c, 0, 61, 0
2, 8274900, Note_on_c, 0, 66, 100
2, 8274960, Note_on_c, 0, 66, 0
2, 8274960, Note_on_c, 0, 62, 100
2, 8275080, Note_on_c, 0, 62, 0
2, 8275080, Note_on_c, 0, 61, 100
2, 8275200, Note_on_c, 0, 61, 0
2, 8275200, Note_on_c, 0, 62, 100
2, 8275320, Note_on_c, 0, 62, 0
2, 8275320, Note_on_c, 0, 57, 100
2, 8275440, Note_on_c, 0, 57, 0
2, 8275440, Note_on_c, 0, 54, 100
2, 8275560, Note_on_c, 0, 54, 0
2, 8275560, Note_on_c, 0, 52, 100
2, 8275680, Note_on_c, 0, 52, 0
2, 8275680, Note_on_c, 0, 54, 100
2, 8275800, Note_on_c, 0, 54, 0
2, 8275800, Note_on_c, 0, 50, 100
2, 8275920, Note_on_c, 0, 50, 0
2, 8275920, Note_on_c, 0, 74, 100
2, 8276460, Note_on_c, 0, 74, 0
2, 8276460, Note_on_c, 0, 76, 100
2, 8276520, Note_on_c, 0, 76, 0
2, 8276520, Note_on_c, 0, 74, 100
2, 8276580, Note_on_c, 0, 74, 0
2, 8276580, Note_on_c, 0, 76, 100
2, 8276640, Note_on_c, 0, 76, 0
2, 8276640, Note_on_c, 0, 74, 100
2, 8276700, Note_on_c, 0, 74, 0
2, 8276700, Note_on_c, 0, 76, 100
2, 8276760, Note_on_c, 0, 76, 0
2, 8276760, Note_on_c, 0, 74, 100
2, 8276940, Note_on_c, 0, 74, 0
2, 8276940, Note_on_c, 0, 76, 100
2, 8277000, Note_on_c, 0, 76, 0
2, 8277000, Note_on_c, 0, 74, 100
2, 8277060, Note_on_c, 0, 74, 0
2, 8277060, Note_on_c, 0, 76, 100
2, 8277120, Note_on_c, 0, 76, 0
2, 8277120, Note_on_c, 0, 74, 100
2, 8277180, Note_on_c, 0, 74, 0
2, 8277180, Note_on_c, 0, 76, 100
2, 8277240, Note_on_c, 0, 76, 0
2, 8277240, Note_on_c, 0, 74, 100
2, 8277420, Note_on_c, 0, 74, 0
2, 8277420, Note_on_c, 0, 76, 100
2, 8277480, Note_on_c, 0, 76, 0
2, 8277480, Note_on_c, 0, 74, 100
2, 8277540, Note_on_c, 0, 74, 0
2, 8277540, Note_on_c, 0, 76, 100
2, 8277600, Note_on_c, 0, 76, 0
2, 8277600, Note_on_c, 0, 74, 100
2, 8277660, Note_on_c, 0, 74, 0
2, 8277660, Note_on_c, 0, 76, 100
2, 8277720, Note_on_c, 0, 76, 0
2, 8277720, Note_on_c, 0, 74, 100
2, 8277900, Note_on_c, 0, 74, 0
2, 8277900, Note_on_c, 0, 76, 100
2, 8277960, Note_on_c, 0, 76, 0
2, 8277960, Note_on_c, 0, 74, 100
2, 8278020, Note_on_c, 0, 74, 0
2, 8278020, Note_on_c, 0, 76, 100
2, 8278080, Note_on_c, 0, 76, 0
2, 8278080, Note_on_c, 0, 74, 100
2, 8278140, Note_on_c, 0, 74, 0
2, 8278140, Note_on_c, 0, 76, 100
2, 8278200, Note_on_c, 0, 76, 0
2, 8278200, Note_on_c, 0, 74, 100
2, 8278380, Note_on_c, 0, 74, 0
2, 8278380, Note_on_c, 0, 76, 100
2, 8278440, Note_on_c, 0, 76, 0
2, 8278440, Note_on_c, 0, 74, 100
2, 8278500, Note_on_c, 0, 74, 0
2, 8278500, Note_on_c, 0, 76, 100
2, 8278560, Note_on_c, 0, 76, 0
2, 8278560, Note_on_c, 0, 74, 100
2, 8278620, Note_on_c, 0, 74, 0
2, 8278620, Note_on_c, 0, 76, 100
2, 8278680, Note_on_c, 0, 76, 0
2, 8278680, Note_on_c, 0, 74, 100
2, 8278860, Note_on_c, 0, 74, 0
2, 8278860, Note_on_c, 0, 76, 100
2, 8278920, Note_on_c, 0, 76, 0
2, 8278920, Note_on_c, 0, 74, 100
2, 8278980, Note_on_c, 0, 74, 0
2, 8278980, Note_on_c, 0, 76, 100
2, 8279040, Note_on_c, 0, 76, 0
2, 8279040, Note_on_c, 0, 74, 100
2, 8279100, Note_on_c, 0, 74, 0
2, 8279100, Note_on_c, 0, 76, 100
2, 8279160, Note_on_c, 0, 76, 0
2, 8279160, Note_on_c, 0, 74, 100
2, 8279340, Note_on_c, 0, 74, 0
2, 8279340, Note_on_c, 0, 76, 100
2, 8279400, Note_on_c, 0, 76, 0
2, 8279400, Note_on_c, 0, 74, 100
2, 8279460, Note_on_c, 0, 74, 0
2, 8279460, Note_on_c, 0, 76, 100
2, 8279520, Note_on_c, 0, 76, 0
2, 8279520, Note_on_c, 0, 74, 100
2, 8279580, Note_on_c, 0, 74, 0
2, 8279580, Note_on_c, 0, 76, 100
2, 8279640, Note_on_c, 0, 76, 0
2, 8279640, Note_on_c, 0, 74, 100
2, 8279820, Note_on_c, 0, 74, 0
2, 8279820, Note_on_c, 0, 76, 100
2, 8279880, Note_on_c, 0, 76, 0
2, 8279880, Note_on_c, 0, 74, 100
2, 8279940, Note_on_c, 0, 74, 0
2, 8279940, Note_on_c, 0, 76, 100
2, 8280000, Note_on_c, 0, 76, 0
2, 8280000, Note_on_c, 0, 74, 100
2, 8280060, Note_on_c, 0, 74, 0
2, 8280060, Note_on_c, 0, 76, 100
2, 8280120, Note_on_c, 0, 76, 0
2, 8280120, Note_on_c, 0, 74, 100
2, 8280180, Note_on_c, 0, 74, 0
2, 8280180, Note_on_c, 0, 73, 100
2, 8280300, Note_on_c, 0, 73, 0
2, 8280300, Note_on_c, 0, 74, 100
2, 8280360, Note_on_c, 0, 74, 0
2, 8280360, Note_on_c, 0, 73, 100
2, 8280420, Note_on_c, 0, 73, 0
2, 8280420, Note_on_c, 0, 74, 100
2, 8280480, Note_on_c, 0, 74, 0
2, 8280480, Note_on_c, 0, 73, 100
2, 8280540, Note_on_c, 0, 73, 0
2, 8280540, Note_on_c, 0, 74, 100
2, 8280600, Note_on_c, 0, 74, 0
2, 8280600, Note_on_c, 0, 73, 100
2, 8280660, Note_on_c, 0, 73, 0
2, 8280660, Note_on_c, 0, 74, 100
2, 8280780, Note_on_c, 0, 74, 0
2, 8280780, Note_on_c, 0, 76, 100
2, 8280840, Note_on_c, 0, 76, 0
2, 8280840, Note_on_c, 0, 74, 100
2, 8280900, Note_on_c, 0, 74, 0
2, 8280900, Note_on_c, 0, 76, 100
2, 8280960, Note_on_c, 0, 76, 0
2, 8280960, Note_on_c, 0, 74, 100
2, 8281020, Note_on_c, 0, 74, 0
2, 8281020, Note_on_c, 0, 76, 100
2, 8281080, Note_on_c, 0, 76, 0
2, 8281080, Note_on_c, 0, 74, 100
2, 8281260, Note_on_c, 0, 74, 0
2, 8281260, Note_on_c, 0, 76, 100
2, 8281320, Note_on_c, 0, 76, 0
2, 8281320, Note_on_c, 0, 74, 100
2, 8281380, Note_on_c, 0, 74, 0
2, 8281380, Note_on_c, 0, 76, 100
2, 8281440, Note_on_c, 0, 76, 0
2, 8281440, Note_on_c, 0, 74, 100
2, 8281500, Note_on_c, 0, 74, 0
2, 8281500, Note_on_c, 0, 76, 100
2, 8281560, Note_on_c, 0, 76, 0
2, 8281560, Note_on_c, 0, 74, 100
2, 8281740, Note_on_c, 0, 74, 0
2, 8281740, Note_on_c, 0, 76, 100
2, 8281800, Note_on_c, 0, 76, 0
2, 8281800, Note_on_c, 0, 74, 100
2, 8281860, Note_on_c, 0, 74, 0
2, 8281860, Note_on_c, 0, 76, 100
2, 8281920, Note_on_c, 0, 76, 0
2, 8281920, Note_on_c, 0, 74, 100
2, 8281980, Note_on_c, 0, 74, 0
2, 8281980, Note_on_c, 0, 76, 100
2, 8282040, Note_on_c, 0, 76, 0
2, 8282040, Note_on_c, 0, 74, 100
2, 8282100, Note_on_c, 0, 74, 0
2, 8282100, Note_on_c, 0, 71, 100
2, 8283360, Note_on_c, 0, 71, 0
2, 8283360, Note_on_c, 0, 72, 100
2, 8283600, Note_on_c, 0, 72, 0
2, 8283600, Note_on_c, 0, 81, 100
2, 8284800, Note_on_c, 0, 81, 0
2, 8284800, Note_on_c, 0, 83, 100
2, 8285040, Note_on_c, 0, 83, 0
2, 8285040, Note_on_c, 0, 57, 100
2, 8285280, Note_on_c, 0, 57, 0
2, 8285280, Note_on_c, 0, 59, 100
2, 8285520, Note_on_c, 0, 59, 0
2, 8285520, Note_on_c, 0, 52, 100
2, 8285760, Note_on_c, 0, 52, 0
2, 8285760, Note_on_c, 0, 54, 100
2, 8286000, Note_on_c, 0, 54, 0
2, 8286000, Note_on_c, 0, 84, 100
2, 8286720, Note_on_c, 0, 84, 0
2, 8286720, Note_on_c, 0, 83, 100
2, 8286960, Note_on_c, 0, 83, 0
2, 8286960, Note_on_c, 0, 81, 100
2, 8287200, Note_on_c, 0, 81, 0
2, 8287200, Note_on_c, 0, 79, 100
2, 8287440, Note_on_c, 0, 79, 0
2, 8287440, Note_on_c, 0, 69, 100
2, 8287680, Note_on_c, 0, 69, 0
2, 8287680, Note_on_c, 0, 71, 100
2, 8287920, Note_on_c, 0, 71, 0
2, 8287920, Note_on_c, 0, 79, 100
2, 8288040, Note_on_c, 0, 79, 0
2, 8288040, Note_on_c, 0, 78, 100
2, 8288160, Note_on_c, 0, 78, 0
2, 8288160, Note_on_c, 0, 79, 100
2, 8288280, Note_on_c, 0, 79, 0
2, 8288280, Note_on_c, 0, 76, 100
2, 8288400, Note_on_c, 0, 76, 0
2, 8288400, Note_on_c, 0, 71, 100
2, 8288520, Note_on_c, 0, 71, 0
2, 8288520, Note_on_c, 0, 69, 100
2, 8288640, Note_on_c, 0, 69, 0
2, 8288640, Note_on_c, 0, 71, 100
2, 8288760, Note_on_c, 0, 71, 0
2, 8288760, Note_on_c, 0, 67, 100
2, 8288880, Note_on_c, 0, 67, 0
2, 8288880, Note_on_c, 0, 71, 100
2, 8289000, Note_on_c, 0, 71, 0
2, 8289000, Note_on_c, 0, 76, 100
2, 8289120, Note_on_c, 0, 76, 0
2, 8289120, Note_on_c, 0, 79, 100
2, 8289240, Note_on_c, 0, 79, 0
2, 8289240, Note_on_c, 0, 81, 100
2, 8289360, Note_on_c, 0, 81, 0
2, 8289360, Note_on_c, 0, 78, 100
2, 8289480, Note_on_c, 0, 78, 0
2, 8289480, Note_on_c, 0, 76, 100
2, 8289600, Note_on_c, 0, 76, 0
2, 8289600, Note_on_c, 0, 78, 100
2, 8289720, Note_on_c, 0, 78, 0
2, 8289720, Note_on_c, 0, 74, 100
2, 8289840, Note_on_c, 0, 74, 0
2, 8289840, Note_on_c, 0, 69, 100
2, 8289960, Note_on_c, 0, 69, 0
2, 8289960, Note_on_c, 0, 67, 100
2, 8290080, Note_on_c, 0, 67, 0
2, 8290080, Note_on_c, 0, 69, 100
2, 8290200, Note_on_c, 0, 69, 0
2, 8290200, Note_on_c, 0, 66, 100
2, 8290320, Note_on_c, 0, 66, 0
2, 8290320, Note_on_c, 0, 69, 100
2, 8290440, Note_on_c, 0, 69, 0
2, 8290440, Note_on_c, 0, 74, 100
2, 8290560, Note_on_c, 0, 74, 0
2, 8290560, Note_on_c, 0, 78, 100
2, 8290680, Note_on_c, 0, 78, 0
2, 8290680, Note_on_c, 0, 79, 100
2, 8290800, Note_on_c, 0, 79, 0
2, 8290800, Note_on_c, 0, 76, 100
2, 8290920, Note_on_c, 0, 76, 0
2, 8290920, Note_on_c, 0, 75, 100
2, 8291040, Note_on_c, 0, 75, 0
2, 8291040, Note_on_c, 0, 76, 100
2, 8291160, Note_on_c, 0, 76, 0
2, 8291160, Note_on_c, 0, 71, 100
2, 8291280, Note_on_c, 0, 71, 0
2, 8291280, Note_on_c, 0, 67, 100
2, 8291400, Note_on_c, 0, 67, 0
2, 8291400, Note_on_c, 0, 66, 100
2, 8291520, Note_on_c, 0, 66, 0
2, 8291520, Note_on_c, 0, 67, 100
2, 8291640, Note_on_c, 0, 67, 0
2, 8291640, Note_on_c, 0, 64, 100
2, 8291760, Note_on_c, 0, 64, 0
2, 8291760, Note_on_c, 0, 67, 100
2, 8291880, Note_on_c, 0, 67, 0
2, 8291880, Note_on_c, 0, 71, 100
2, 8292000, Note_on_c, 0, 71, 0
2, 8292000, Note_on_c, 0, 74, 100
2, 8292120, Note_on_c, 0, 74, 0
2, 8292120, Note_on_c, 0, 73, 100
2, 8292240, Note_on_c, 0, 73, 0
2, 8292240, Note_on_c, 0, 67, 100
2, 8292360, Note_on_c, 0, 67, 0
2, 8292360, Note_on_c, 0, 66, 100
2, 8292480, Note_on_c, 0, 66, 0
2, 8292480, Note_on_c, 0, 67, 100
2, 8292600, Note_on_c, 0, 67, 0
2, 8292600, Note_on_c, 0, 64, 100
2, 8292720, Note_on_c, 0, 64, 0
2, 8292720, Note_on_c, 0, 61, 100
2, 8292840, Note_on_c, 0, 61, 0
2, 8292840, Note_on_c, 0, 59, 100
2, 8292960, Note_on_c, 0, 59, 0
2, 8292960, Note_on_c, 0, 61, 100
2, 8293080, Note_on_c, 0, 61, 0
2, 8293080, Note_on_c, 0, 57, 100
2, 8293200, Note_on_c, 0, 57, 0
2, 8293200, Note_on_c, 0, 61, 100
2, 8293320, Note_on_c, 0, 61, 0
2, 8293320, Note_on_c, 0, 64, 100
2, 8293440, Note_on_c, 0, 64, 0
2, 8293440, Note_on_c, 0, 67, 100
2, 8293560, Note_on_c, 0, 67, 0
2, 8293560, Note_on_c, 0, 62, 100
2, 8293740, Note_on_c, 0, 62, 0
2, 8293740, Note_on_c, 0, 64, 100
2, 8293800, Note_on_c, 0, 64, 0
2, 8293800, Note_on_c, 0, 62, 100
2, 8293860, Note_on_c, 0, 62, 0
2, 8293860, Note_on_c, 0, 64, 100
2, 8293920, Note_on_c, 0, 64, 0
2, 8293920, Note_on_c, 0, 62, 100
2, 8293980, Note_on_c, 0, 62, 0
2, 8293980, Note_on_c, 0, 64, 100
2, 8294040, Note_on_c, 0, 64, 0
2, 8294040, Note_on_c, 0, 62, 100
2, 8294220, Note_on_c, 0, 62, 0
2, 8294220, Note_on_c, 0, 64, 100
2, 8294280, Note_on_c, 0, 64, 0
2, 8294280, Note_on_c, 0, 62, 100
2, 8294340, Note_on_c, 0, 62, 0
2, 8294340, Note_on_c, 0, 64, 100
2, 8294400, Note_on_c, 0, 64, 0
2, 8294400, Note_on_c, 0, 62, 100
2, 8294460, Note_on_c, 0, 62, 0
2, 8294460, Note_on_c, 0, 64, 100
2, 8294520, Note_on_c, 0, 64, 0
2, 8294520, Note_on_c, 0, 62, 100
2, 8294700, Note_on_c, 0, 62, 0
2, 8294700, Note_on_c, 0, 64, 100
2, 8294760, Note_on_c, 0, 64, 0
2, 8294760, Note_on_c, 0, 62, 100
2, 8294820, Note_on_c, 0, 62, 0
2, 8294820, Note_on_c, 0, 64, 100
2, 8294880, Note_on_c, 0, 64, 0
2, 8294880, Note_on_c, 0, 62, 100
2, 8294940, Note_on_c, 0, 62, 0
2, 8294940, Note_on_c, 0, 64, 100
2, 8295000, Note_on_c, 0, 64, 0
2, 8295000, Note_on_c, 0, 62, 100
2, 8295180, Note_on_c, 0, 62, 0
2, 8295180, Note_on_c, 0, 64, 100
2, 8295240, Note_on_c, 0, 64, 0
2, 8295240, Note_on_c, 0, 62, 100
2, 8295300, Note_on_c, 0, 62, 0
2, 8295300, Note_on_c, 0, 64, 100
2, 8295360, Note_on_c, 0, 64, 0
2, 8295360, Note_on_c, 0, 62, 100
2, 8295420, Note_on_c, 0, 62, 0
2, 8295420, Note_on_c, 0, 64, 100
2, 8295480, Note_on_c, 0, 64, 0
2, 8295480, Note_on_c, 0, 62, 100
2, 8295660, Note_on_c, 0, 62, 0
2, 8295660, Note_on_c, 0, 64, 100
2, 8295720, Note_on_c, 0, 64, 0
2, 8295720, Note_on_c, 0, 62, 100
2, 8295780, Note_on_c, 0, 62, 0
2, 8295780, Note_on_c, 0, 64, 100
2, 8295840, Note_on_c, 0, 64, 0
2, 8295840, Note_on_c, 0, 62, 100
2, 8295900, Note_on_c, 0, 62, 0
2, 8295900, Note_on_c, 0, 64, 100
2, 8295960, Note_on_c, 0, 64, 0
2, 8295960, Note_on_c, 0, 62, 100
2, 8296140, Note_on_c, 0, 62, 0
2, 8296140, Note_on_c, 0, 64, 100
2, 8296200, Note_on_c, 0, 64, 0
2, 8296200, Note_on_c, 0, 62, 100
2, 8296260, Note_on_c, 0, 62, 0
2, 8296260, Note_on_c, 0, 64, 100
2, 8296320, Note_on_c, 0, 64, 0
2, 8296320, Note_on_c, 0, 62, 100
2, 8296380, Note_on_c, 0, 62, 0
2, 8296380, Note_on_c, 0, 64, 100
2, 8296440, Note_on_c, 0, 64, 0
2, 8296440, Note_on_c, 0, 62, 100
2, 8296620, Note_on_c, 0, 62, 0
2, 8296620, Note_on_c, 0, 64, 100
2, 8296680, Note_on_c, 0, 64, 0
2, 8296680, Note_on_c, 0, 62, 100
2, 8296740, Note_on_c, 0, 62, 0
2, 8296740, Note_on_c, 0, 64, 100
2, 8296800, Note_on_c, 0, 64, 0
2, 8296800, Note_on_c, 0, 62, 100
2, 8296860, Note_on_c, 0, 62, 0
2, 8296860, Note_on_c, 0, 64, 100
2, 8296920, Note_on_c, 0, 64, 0
2, 8296920, Note_on_c, 0, 62, 100
2, 8297100, Note_on_c, 0, 62, 0
2, 8297100, Note_on_c, 0, 64, 100
2, 8297160, Note_on_c, 0, 64, 0
2, 8297160, Note_on_c, 0, 62, 100
2, 8297220, Note_on_c, 0, 62, 0
2, 8297220, Note_on_c, 0, 64, 100
2, 8297280, Note_on_c, 0, 64, 0
2, 8297280, Note_on_c, 0, 62, 100
2, 8297340, Note_on_c, 0, 62, 0
2, 8297340, Note_on_c, 0, 64, 100
2, 8297400, Note_on_c, 0, 64, 0
2, 8297400, Note_on_c, 0, 62, 100
2, 8297460, Note_on_c, 0, 62, 0
2, 8297460, Note_on_c, 0, 61, 100
2, 8297580, Note_on_c, 0, 61, 0
2, 8297580, Note_on_c, 0, 62, 100
2, 8297640, Note_on_c, 0, 62, 0
2, 8297640, Note_on_c, 0, 61, 100
2, 8297700, Note_on_c, 0, 61, 0
2, 8297700, Note_on_c, 0, 62, 100
2, 8297760, Note_on_c, 0, 62, 0
2, 8297760, Note_on_c, 0, 61, 100
2, 8297820, Note_on_c, 0, 61, 0
2, 8297820, Note_on_c, 0, 62, 100
2, 8297880, Note_on_c, 0, 62, 0
2, 8297880, Note_on_c, 0, 61, 100
2, 8297940, Note_on_c, 0, 61, 0
2, 8297940, Note_on_c, 0, 66, 100
2, 8298000, Note_on_c, 0, 66, 0
2, 8298000, Note_on_c, 0, 62, 100
2, 8298120, Note_on_c, 0, 62, 0
2, 8298120, Note_on_c, 0, 61, 100
2, 8298240, Note_on_c, 0, 61, 0
2, 8298240, Note_on_c, 0, 62, 100
2, 8298360, Note_on_c, 0, 62, 0
2, 8298360, Note_on_c, 0, 57, 100
2, 8298480, Note_on_c, 0, 57, 0
2, 8298480, Note_on_c, 0, 54, 100
2, 8298600, Note_on_c, 0, 54, 0
2, 8298600, Note_on_c, 0, 52, 100
2, 8298720, Note_on_c, 0, 52, 0
2, 8298720, Note_on_c, 0, 54, 100
2, 8298840, Note_on_c, 0, 54, 0
2, 8298840, Note_on_c, 0, 50, 100
2, 8298960, Note_on_c, 0, 50, 0
2, 8298960, Note_on_c, 0, 66, 100
2, 8299440, Note_on_c, 0, 66, 0
2, 8299440, Note_on_c, 0, 69, 100
2, 8299560, Note_on_c, 0, 69, 0
2, 8299560, Note_on_c, 0, 67, 100
2, 8299680, Note_on_c, 0, 67, 0
2, 8299680, Note_on_c, 0, 69, 100
2, 8299800, Note_on_c, 0, 69, 0
2, 8299800, Note_on_c, 0, 74, 100
2, 8299920, Note_on_c, 0, 74, 0
2, 8299920, Note_on_c, 0, 78, 100
2, 8300040, Note_on_c, 0, 78, 0
2, 8300040, Note_on_c, 0, 76, 100
2, 8300160, Note_on_c, 0, 76, 0
2, 8300160, Note_on_c, 0, 78, 100
2, 8300280, Note_on_c, 0, 78, 0
2, 8300280, Note_on_c, 0, 81, 100
2, 8300400, Note_on_c, 0, 81, 0
2, 8300400, Note_on_c, 0, 78, 100
2, 8300520, Note_on_c, 0, 78, 0
2, 8300520, Note_on_c, 0, 72, 100
2, 8300640, Note_on_c, 0, 72, 0
2, 8300640, Note_on_c, 0, 69, 100
2, 8300760, Note_on_c, 0, 69, 0
2, 8300760, Note_on_c, 0, 71, 100
2, 8300880, Note_on_c, 0, 71, 0
2, 8300880, Note_on_c, 0, 74, 100
2, 8301000, Note_on_c, 0, 74, 0
2, 8301000, Note_on_c, 0, 72, 100
2, 8301120, Note_on_c, 0, 72, 0
2, 8301120, Note_on_c, 0, 74, 100
2, 8301240, Note_on_c, 0, 74, 0
2, 8301240, Note_on_c, 0, 79, 100
2, 8301360, Note_on_c, 0, 79, 0
2, 8301360, Note_on_c, 0, 83, 100
2, 8301480, Note_on_c, 0, 83, 0
2, 8301480, Note_on_c, 0, 81, 100
2, 8301600, Note_on_c, 0, 81, 0
2, 8301600, Note_on_c, 0, 83, 100
2, 8301720, Note_on_c, 0, 83, 0
2, 8301720, Note_on_c, 0, 86, 100
2, 8301840, Note_on_c, 0, 86, 0
2, 8301840, Note_on_c, 0, 83, 100
2, 8301960, Note_on_c, 0, 83, 0
2, 8301960, Note_on_c, 0, 77, 100
2, 8302080, Note_on_c, 0, 77, 0
2, 8302080, Note_on_c, 0, 74, 100
2, 8302200, Note_on_c, 0, 74, 0
2, 8302200, Note_on_c, 0, 76, 100
2, 8302320, Note_on_c, 0, 76, 0
2, 8302320, Note_on_c, 0, 71, 100
2, 8302560, Note_on_c, 0, 71, 0
2, 8302560, Note_on_c, 0, 72, 100
2, 8302800, Note_on_c, 0, 72, 0
2, 8302800, Note_on_c, 0, 63, 100
2, 8303040, Note_on_c, 0, 63, 0
2, 8303040, Note_on_c, 0, 64, 100
2, 8303280, Note_on_c, 0, 64, 0
2, 8303280, Note_on_c, 0, 55, 100
2, 8303520, Note_on_c, 0, 55, 0
2, 8303520, Note_on_c, 0, 54, 100
2, 8303760, Note_on_c, 0, 54, 0
2, 8303760, Note_on_c, 0, 76, 100
2, 8304000, Note_on_c, 0, 76, 0
2, 8304000, Note_on_c, 0, 75, 100
2, 8304240, Note_on_c, 0, 75, 0
2, 8304240, Note_on_c, 0, 78, 100
2, 8304360, Note_on_c, 0, 78, 0
2, 8304360, Note_on_c, 0, 76, 100
2, 8304480, Note_on_c, 0, 76, 0
2, 8304480, Note_on_c, 0, 78, 100
2, 8304600, Note_on_c, 0, 78, 0
2, 8304600, Note_on_c, 0, 81, 100
2, 8304720, Note_on_c, 0, 81, 0
2, 8304720, Note_on_c, 0, 78, 100
2, 8304840, Note_on_c, 0, 78, 0
2, 8304840, Note_on_c, 0, 75, 100
2, 8304960, Note_on_c, 0, 75, 0
2, 8304960, Note_on_c, 0, 78, 100
2, 8305080, Note_on_c, 0, 78, 0
2, 8305080, Note_on_c, 0, 71, 100
2, 8305200, Note_on_c, 0, 71, 0
2, 8305200, Note_on_c, 0, 73, 100
2, 8305680, Note_on_c, 0, 73, 0
2, 8305680, Note_on_c, 0, 75, 100
2, 8306160, Note_on_c, 0, 75, 0
2, 8306160, Note_on_c, 0, 76, 100
2, 8306640, Note_on_c, 0, 76, 0
2, 8306640, Note_on_c, 0, 75, 100
2, 8307120, Note_on_c, 0, 75, 0
2, 8307120, Note_on_c, 0, 76, 100
2, 8307600, Note_on_c, 0, 76, 0
2, 8307600, Note_on_c, 0, 73, 100
2, 8308080, Note_on_c, 0, 73, 0
2, 8308080, Note_on_c, 0, 71, 100
2, 8308560, Note_on_c, 0, 71, 0
2, 8308560, Note_on_c, 0, 69, 100
2, 8309040, Note_on_c, 0, 69, 0
2, 8309040, Note_on_c, 0, 67, 100
2, 8311020, Note_on_c, 0, 67, 0
2, 8311020, Note_on_c, 0, 69, 100
2, 8311080, Note_on_c, 0, 69, 0
2, 8311080, Note_on_c, 0, 67, 100
2, 8311140, Note_on_c, 0, 67, 0
2, 8311140, Note_on_c, 0, 69, 100
2, 8311200, Note_on_c, 0, 69, 0
2, 8311200, Note_on_c, 0, 67, 100
2, 8311260, Note_on_c, 0, 67, 0
2, 8311260, Note_on_c, 0, 69, 100
2, 8311320, Note_on_c, 0, 69, 0
2, 8311320, Note_on_c, 0, 67, 100
2, 8311500, Note_on_c, 0, 67, 0
2, 8311500, Note_on_c, 0, 69, 100
2, 8311560, Note_on_c, 0, 69, 0
2, 8311560, Note_on_c, 0, 67, 100
2, 8311620, Note_on_c, 0, 67, 0
2, 8311620, Note_on_c, 0, 69, 100
2, 8311680, Note_on_c, 0, 69, 0
2, 8311680, Note_on_c, 0, 67, 100
2, 8311740, Note_on_c, 0, 67, 0
2, 8311740, Note_on_c, 0, 69, 100
2, 8311800, Note_on_c, 0, 69, 0
2, 8311800, Note_on_c, 0, 67, 100
2, 8311980, Note_on_c, 0, 67, 0
2, 8311980, Note_on_c, 0, 69, 100
2, 8312040, Note_on_c, 0, 69, 0
2, 8312040, Note_on_c, 0, 67, 100
2, 8312100, Note_on_c, 0, 67, 0
2, 8312100, Note_on_c, 0, 69, 100
2, 8312160, Note_on_c, 0, 69, 0
2, 8312160, Note_on_c, 0, 67, 100
2, 8312220, Note_on_c, 0, 67, 0
2, 8312220, Note_on_c, 0, 69, 100
2, 8312280, Note_on_c, 0, 69, 0
2, 8312280, Note_on_c, 0, 67, 100
2, 8312460, Note_on_c, 0, 67, 0
2, 8312460, Note_on_c, 0, 69, 100
2, 8312520, Note_on_c, 0, 69, 0
2, 8312520, Note_on_c, 0, 67, 100
2, 8312580, Note_on_c, 0, 67, 0
2, 8312580, Note_on_c, 0, 69, 100
2, 8312640, Note_on_c, 0, 69, 0
2, 8312640, Note_on_c, 0, 67, 100
2, 8312700, Note_on_c, 0, 67, 0
2, 8312700, Note_on_c, 0, 69, 100
2, 8312760, Note_on_c, 0, 69, 0
2, 8312760, Note_on_c, 0, 67, 100
2, 8312940, Note_on_c, 0, 67, 0
2, 8312940, Note_on_c, 0, 69, 100
2, 8313000, Note_on_c, 0, 69, 0
2, 8313000, Note_on_c, 0, 67, 100
2, 8313060, Note_on_c, 0, 67, 0
2, 8313060, Note_on_c, 0, 69, 100
2, 8313120, Note_on_c, 0, 69, 0
2, 8313120, Note_on_c, 0, 67, 100
2, 8313180, Note_on_c, 0, 67, 0
2, 8313180, Note_on_c, 0, 69, 100
2, 8313240, Note_on_c, 0, 69, 0
2, 8313240, Note_on_c, 0, 67, 100
2, 8313420, Note_on_c, 0, 67, 0
2, 8313420, Note_on_c, 0, 69, 100
2, 8313480, Note_on_c, 0, 69, 0
2, 8313480, Note_on_c, 0, 67, 100
2, 8313540, Note_on_c, 0, 67, 0
2, 8313540, Note_on_c, 0, 69, 100
2, 8313600, Note_on_c, 0, 69, 0
2, 8313600, Note_on_c, 0, 67, 100
2, 8313660, Note_on_c, 0, 67, 0
2, 8313660, Note_on_c, 0, 69, 100
2, 8313720, Note_on_c, 0, 69, 0
2, 8313720, Note_on_c, 0, 67, 100
2, 8313780, Note_on_c, 0, 67, 0
2, 8313780, Note_on_c, 0, 64, 100
2, 8313840, Note_on_c, 0, 64, 0
2, 8313840, Note_on_c, 0, 62, 100
2, 8314320, Note_on_c, 0, 62, 0
2, 8314320, Note_on_c, 0, 64, 100
2, 8314800, Note_on_c, 0, 64, 0
2, 8314800, Note_on_c, 0, 66, 100
2, 8315280, Note_on_c, 0, 66, 0
2, 8315280, Note_on_c, 0, 64, 100
2, 8315760, Note_on_c, 0, 64, 0
2, 8315760, Note_on_c, 0, 66, 100
2, 8316240, Note_on_c, 0, 66, 0
2, 8316240, Note_on_c, 0, 67, 100
2, 8316780, Note_on_c, 0, 67, 0
2, 8316780, Note_on_c, 0, 69, 100
2, 8316840, Note_on_c, 0, 69, 0
2, 8316840, Note_on_c, 0, 67, 100
2, 8316900, Note_on_c, 0, 67, 0
2, 8316900, Note_on_c, 0, 69, 100
2, 8316960, Note_on_c, 0, 69, 0
2, 8316960, Note_on_c, 0, 67, 100
2, 8317020, Note_on_c, 0, 67, 0
2, 8317020, Note_on_c, 0, 69, 100
2, 8317080, Note_on_c, 0, 69, 0
2, 8317080, Note_on_c, 0, 67, 100
2, 8317140, Note_on_c, 0, 67, 0
2, 8317140, Note_on_c, 0, 66, 100
2, 8317260, Note_on_c, 0, 66, 0
2, 8317260, Note_on_c, 0, 67, 100
2, 8317320, Note_on_c, 0, 67, 0
2, 8317320, Note_on_c, 0, 66, 100
2, 8317380, Note_on_c, 0, 66, 0
2, 8317380, Note_on_c, 0, 67, 100
2, 8317440, Note_on_c, 0, 67, 0
2, 8317440, Note_on_c, 0, 66, 100
2, 8317500, Note_on_c, 0, 66, 0
2, 8317500, Note_on_c, 0, 67, 100
2, 8317560, Note_on_c, 0, 67, 0
2, 8317560, Note_on_c, 0, 66, 100
2, 8317620, Note_on_c, 0, 66, 0
2, 8317620, Note_on_c, 0, 65, 100
2, 8317740, Note_on_c, 0, 65, 0
2, 8317740, Note_on_c, 0, 67, 100
2, 8317800, Note_on_c, 0, 67, 0
2, 8317800, Note_on_c, 0, 65, 100
2, 8317860, Note_on_c, 0, 65, 0
2, 8317860, Note_on_c, 0, 67, 100
2, 8317920, Note_on_c, 0, 67, 0
2, 8317920, Note_on_c, 0, 65, 100
2, 8317980, Note_on_c, 0, 65, 0
2, 8317980, Note_on_c, 0, 67, 100
2, 8318040, Note_on_c, 0, 67, 0
2, 8318040, Note_on_c, 0, 65, 100
2, 8318100, Note_on_c, 0, 65, 0
2, 8318100, Note_on_c, 0, 60, 100
2, 8318220, Note_on_c, 0, 60, 0
2, 8318220, Note_on_c, 0, 62, 100
2, 8318280, Note_on_c, 0, 62, 0
2, 8318280, Note_on_c, 0, 60, 100
2, 8318340, Note_on_c, 0, 60, 0
2, 8318340, Note_on_c, 0, 62, 100
2, 8318400, Note_on_c, 0, 62, 0
2, 8318400, Note_on_c, 0, 60, 100
2, 8318460, Note_on_c, 0, 60, 0
2, 8318460, Note_on_c, 0, 62, 100
2, 8318520, Note_on_c, 0, 62, 0
2, 8318520, Note_on_c, 0, 60, 100
2, 8318580, Note_on_c, 0, 60, 0
2, 8318580, Note_on_c, 0, 59, 100
2, 8318700, Note_on_c, 0, 59, 0
2, 8318700, Note_on_c, 0, 60, 100
2, 8318760, Note_on_c, 0, 60, 0
2, 8318760, Note_on_c, 0, 59, 100
2, 8318820, Note_on_c, 0, 59, 0
2, 8318820, Note_on_c, 0, 60, 100
2, 8318880, Note_on_c, 0, 60, 0
2, 8318880, Note_on_c, 0, 59, 100
2, 8318940, Note_on_c, 0, 59, 0
2, 8318940, Note_on_c, 0, 60, 100
2, 8319000, Note_on_c, 0, 60, 0
2, 8319000, Note_on_c, 0, 59, 100
2, 8319060, Note_on_c, 0, 59, 0
2, 8319060, Note_on_c, 0, 58, 100
2, 8319180, Note_on_c, 0, 58, 0
2, 8319180, Note_on_c, 0, 60, 100
2, 8319240, Note_on_c, 0, 60, 0
2, 8319240, Note_on_c, 0, 58, 100
2, 8319300, Note_on_c, 0, 58, 0
2, 8319300, Note_on_c, 0, 60, 100
2, 8319360, Note_on_c, 0, 60, 0
2, 8319360, Note_on_c, 0, 58, 100
2, 8319420, Note_on_c, 0, 58, 0
2, 8319420, Note_on_c, 0, 60, 100
2, 8319480, Note_on_c, 0, 60, 0
2, 8319480, Note_on_c, 0, 58, 100
2, 8319540, Note_on_c, 0, 58, 0
2, 8319540, Note_on_c, 0, 66, 100
2, 8322480, Note_on_c, 0, 66, 0
2, 8322480, Note_on_c, 0, 69, 100
2, 8322600, Note_on_c, 0, 69, 0
2, 8322600, Note_on_c, 0, 67, 100
2, 8322720, Note_on_c, 0, 67, 0
2, 8322720, Note_on_c, 0, 69, 100
2, 8322840, Note_on_c, 0, 69, 0
2, 8322840, Note_on_c, 0, 74, 100
2, 8322960, Note_on_c, 0, 74, 0
2, 8322960, Note_on_c, 0, 78, 100
2, 8323080, Note_on_c, 0, 78, 0
2, 8323080, Note_on_c, 0, 76, 100
2, 8323200, Note_on_c, 0, 76, 0
2, 8323200, Note_on_c, 0, 78, 100
2, 8323320, Note_on_c, 0, 78, 0
2, 8323320, Note_on_c, 0, 81, 100
2, 8323440, Note_on_c, 0, 81, 0
2, 8323440, Note_on_c, 0, 78, 100
2, 8323560, Note_on_c, 0, 78, 0
2, 8323560, Note_on_c, 0, 72, 100
2, 8323680, Note_on_c, 0, 72, 0
2, 8323680, Note_on_c, 0, 69, 100
2, 8323800, Note_on_c, 0, 69, 0
2, 8323800, Note_on_c, 0, 71, 100
2, 8323920, Note_on_c, 0, 71, 0
2, 8323920, Note_on_c, 0, 74, 100
2, 8324040, Note_on_c, 0, 74, 0
2, 8324040, Note_on_c, 0, 72, 100
2, 8324160, Note_on_c, 0, 72, 0
2, 8324160, Note_on_c, 0, 74, 100
2, 8324280, Note_on_c, 0, 74, 0
2, 8324280, Note_on_c, 0, 79, 100
2, 8324400, Note_on_c, 0, 79, 0
2, 8324400, Note_on_c, 0, 83, 100
2, 8324520, Note_on_c, 0, 83, 0
2, 8324520, Note_on_c, 0, 81, 100
2, 8324640, Note_on_c, 0, 81, 0
2, 8324640, Note_on_c, 0, 83, 100
2, 8324760, Note_on_c, 0, 83, 0
2, 8324760, Note_on_c, 0, 86, 100
2, 8324880, Note_on_c, 0, 86, 0
2, 8324880, Note_on_c, 0, 83, 100
2, 8325000, Note_on_c, 0, 83, 0
2, 8325000, Note_on_c, 0, 77, 100
2, 8325120, Note_on_c, 0, 77, 0
2, 8325120, Note_on_c, 0, 74, 100
2, 8325240, Note_on_c, 0, 74, 0
2, 8325240, Note_on_c, 0, 76, 100
2, 8325360, Note_on_c, 0, 76, 0
2, 8325360, Note_on_c, 0, 71, 100
2, 8325600, Note_on_c, 0, 71, 0
2, 8325600, Note_on_c, 0, 72, 100
2, 8325840, Note_on_c, 0, 72, 0
2, 8325840, Note_on_c, 0, 63, 100
2, 8326080, Note_on_c, 0, 63, 0
2, 8326080, Note_on_c, 0, 64, 100
2, 8326320, Note_on_c, 0, 64, 0
2, 8326320, Note_on_c, 0, 55, 100
2, 8326560, Note_on_c, 0, 55, 0
2, 8326560, Note_on_c, 0, 54, 100
2, 8326800, Note_on_c, 0, 54, 0
2, 8326800, Note_on_c, 0, 76, 100
2, 8327040, Note_on_c, 0, 76, 0
2, 8327040, Note_on_c, 0, 75, 100
2, 8327280, Note_on_c, 0, 75, 0
2, 8327280, Note_on_c, 0, 78, 100
2, 8327400, Note_on_c, 0, 78, 0
2, 8327400, Note_on_c, 0, 76, 100
2, 8327520, Note_on_c, 0, 76, 0
2, 8327520, Note_on_c, 0, 78, 100
2, 8327640, Note_on_c, 0, 78, 0
2, 8327640, Note_on_c, 0, 81, 100
2, 8327760, Note_on_c, 0, 81, 0
2, 8327760, Note_on_c, 0, 78, 100
2, 8327880, Note_on_c, 0, 78, 0
2, 8327880, Note_on_c, 0, 75, 100
2, 8328000, Note_on_c, 0, 75, 0
2, 8328000, Note_on_c, 0, 78, 100
2, 8328120, Note_on_c, 0, 78, 0
2, 8328120, Note_on_c, 0, 71, 100
2, 8328240, Note_on_c, 0, 71, 0
2, 8328240, Note_on_c, 0, 73, 100
2, 8328720, Note_on_c, 0, 73, 0
2, 8328720, Note_on_c, 0, 75, 100
2, 8329200, Note_on_c, 0, 75, 0
2, 8329200, Note_on_c, 0, 76, 100
2, 8329680, Note_on_c, 0, 76, 0
2, 8329680, Note_on_c, 0, 75, 100
2, 8330160, Note_on_c, 0, 75, 0
2, 8330160, Note_on_c, 0, 76, 100
2, 8330640, Note_on_c, 0, 76, 0
2, 8330640, Note_on_c, 0, 73, 100
2, 8331120, Note_on_c, 0, 73, 0
2, 8331120, Note_on_c, 0, 71, 100
2, 8331600, Note_on_c, 0, 71, 0
2, 8331600, Note_on_c, 0, 69, 100
2, 8332080, Note_on_c, 0, 69, 0
2, 8332080, Note_on_c, 0, 67, 100
2, 8334060, Note_on_c, 0, 67, 0
2, 8334060, Note_on_c, 0, 69, 100
2, 8334120, Note_on_c, 0, 69, 0
2, 8334120, Note_on_c, 0, 67, 100
2, 8334180, Note_on_c, 0, 67, 0
2, 8334180, Note_on_c, 0, 69, 100
2, 8334240, Note_on_c, 0, 69, 0
2, 8334240, Note_on_c, 0, 67, 100
2, 8334300, Note_on_c, 0, 67, 0
2, 8334300, Note_on_c, 0, 69, 100
2, 8334360, Note_on_c, 0, 69, 0
2, 8334360, Note_on_c, 0, 67, 100
2, 8334540, Note_on_c, 0, 67, 0
2, 8334540, Note_on_c, 0, 69, 100
2, 8334600, Note_on_c, 0, 69, 0
2, 8334600, Note_on_c, 0, 67, 100
2, 8334660, Note_on_c, 0, 67, 0
2, 8334660, Note_on_c, 0, 69, 100
2, 8334720, Note_on_c, 0, 69, 0
2, 8334720, Note_on_c, 0, 67, 100
2, 8334780, Note_on_c, 0, 67, 0
2, 8334780, Note_on_c, 0, 69, 100
2, 8334840, Note_on_c, 0, 69, 0
2, 8334840, Note_on_c, 0, 67, 100
2, 8335020, Note_on_c, 0, 67, 0
2, 8335020, Note_on_c, 0, 69, 100
2, 8335080, Note_on_c, 0, 69, 0
2, 8335080, Note_on_c, 0, 67, 100
2, 8335140, Note_on_c, 0, 67, 0
2, 8335140, Note_on_c, 0, 69, 100
2, 8335200, Note_on_c, 0, 69, 0
2, 8335200, Note_on_c, 0, 67, 100
2, 8335260, Note_on_c, 0, 67, 0
2, 8335260, Note_on_c, 0, 69, 100
2, 8335320, Note_on_c, 0, 69, 0
2, 8335320, Note_on_c, 0, 67, 100
2, 8335500, Note_on_c, 0, 67, 0
2, 8335500, Note_on_c, 0, 69, 100
2, 8335560, Note_on_c, 0, 69, 0
2, 8335560, Note_on_c, 0, 67, 100
2, 8335620, Note_on_c, 0, 67, 0
2, 8335620, Note_on_c, 0, 69, 100
2, 8335680, Note_on_c, 0, 69, 0
2, 8335680, Note_on_c, 0, 67, 100
2, 8335740, Note_on_c, 0, 67, 0
2, 8335740, Note_on_c, 0, 69, 100
2, 8335800, Note_on_c, 0, 69, 0
2, 8335800, Note_on_c, 0, 67, 100
2, 8335980, Note_on_c, 0, 67, 0
2, 8335980, Note_on_c, 0, 69, 100
2, 8336040, Note_on_c, 0, 69, 0
2, 8336040, Note_on_c, 0, 67, 100
2, 8336100, Note_on_c, 0, 67, 0
2, 8336100, Note_on_c, 0, 69, 100
2, 8336160, Note_on_c, 0, 69, 0
2, 8336160, Note_on_c, 0, 67, 100
2, 8336220, Note_on_c, 0, 67, 0
2, 8336220, Note_on_c, 0, 69, 100
2, 8336280, Note_on_c, 0, 69, 0
2, 8336280, Note_on_c, 0, 67, 100
2, 8336460, Note_on_c, 0, 67, 0
2, 8336460, Note_on_c, 0, 69, 100
2, 8336520, Note_on_c, 0, 69, 0
2, 8336520, Note_on_c, 0, 67, 100
2, 8336580, Note_on_c, 0, 67, 0
2, 8336580, Note_on_c, 0, 69, 100
2, 8336640, Note_on_c, 0, 69, 0
2, 8336640, Note_on_c, 0, 67, 100
2, 8336700, Note_on_c, 0, 67, 0
2, 8336700, Note_on_c, 0, 69, 100
2, 8336760, Note_on_c, 0, 69, 0
2, 8336760, Note_on_c, 0, 67, 100
2, 8336820, Note_on_c, 0, 67, 0
2, 8336820, Note_on_c, 0, 64, 100
2, 8336880, Note_on_c, 0, 64, 0
2, 8336880, Note_on_c, 0, 62, 100
2, 8337360, Note_on_c, 0, 62, 0
2, 8337360, Note_on_c, 0, 64, 100
2, 8337840, Note_on_c, 0, 64, 0
2, 8337840, Note_on_c, 0, 66, 100
2, 8338320, Note_on_c, 0, 66, 0
2, 8338320, Note_on_c, 0, 64, 100
2, 8338800, Note_on_c, 0, 64, 0
2, 8338800, Note_on_c, 0, 66, 100
2, 8339280, Note_on_c, 0, 66, 0
2, 8339280, Note_on_c, 0, 67, 100
2, 8339820, Note_on_c, 0, 67, 0
2, 8339820, Note_on_c, 0, 69, 100
2, 8339880, Note_on_c, 0, 69, 0
2, 8339880, Note_on_c, 0, 67, 100
2, 8339940, Note_on_c, 0, 67, 0
2, 8339940, Note_on_c, 0, 69, 100
2, 8340000, Note_on_c, 0, 69, 0
2, 8340000, Note_on_c, 0, 67, 100
2, 8340060, Note_on_c, 0, 67, 0
2, 8340060, Note_on_c, 0, 69, 100
2, 8340120, Note_on_c, 0, 69, 0
2, 8340120, Note_on_c, 0, 67, 100
2, 8340180, Note_on_c, 0, 67, 0
2, 8340180, Note_on_c, 0, 66, 100
2, 8340300, Note_on_c, 0, 66, 0
2, 8340300, Note_on_c, 0, 67, 100
2, 8340360, Note_on_c, 0, 67, 0
2, 8340360, Note_on_c, 0, 66, 100
2, 8340420, Note_on_c, 0, 66, 0
2, 8340420, Note_on_c, 0, 67, 100
2, 8340480, Note_on_c, 0, 67, 0
2, 8340480, Note_on_c, 0, 66, 100
2, 8340540, Note_on_c, 0, 66, 0
2, 8340540, Note_on_c, 0, 67, 100
2, 8340600, Note_on_c, 0, 67, 0
2, 8340600, Note_on_c, 0, 66, 100
2, 8340660, Note_on_c, 0, 66, 0
2, 8340660, Note_on_c, 0, 65, 100
2, 8340780, Note_on_c, 0, 65, 0
2, 8340780, Note_on_c, 0, 67, 100
2, 8340840, Note_on_c, 0, 67, 0
2, 8340840, Note_on_c, 0, 65, 100
2, 8340900, Note_on_c, 0, 65, 0
2, 8340900, Note_on_c, 0, 67, 100
2, 8340960, Note_on_c, 0, 67, 0
2, 8340960, Note_on_c, 0, 65, 100
2, 8341020, Note_on_c, 0, 65, 0
2, 8341020, Note_on_c, 0, 67, 100
2, 8341080, Note_on_c, 0, 67, 0
2, 8341080, Note_on_c, 0, 65, 100
2, 8341140, Note_on_c, 0, 65, 0
2, 8341140, Note_on_c, 0, 60, 100
2, 8341260, Note_on_c, 0, 60, 0
2, 8341260, Note_on_c, 0, 62, 100
2, 8341320, Note_on_c, 0, 62, 0
2, 8341320, Note_on_c, 0, 60, 100
2, 8341380, Note_on_c, 0, 60, 0
2, 8341380, Note_on_c, 0, 62, 100
2, 8341440, Note_on_c, 0, 62, 0
2, 8341440, Note_on_c, 0, 60, 100
2, 8341500, Note_on_c, 0, 60, 0
2, 8341500, Note_on_c, 0, 62, 100
2, 8341560, Note_on_c, 0, 62, 0
2, 8341560, Note_on_c, 0, 60, 100
2, 8341620, Note_on_c, 0, 60, 0
2, 8341620, Note_on_c, 0, 59, 100
2, 8341740, Note_on_c, 0, 59, 0
2, 8341740, Note_on_c, 0, 60, 100
2, 8341800, Note_on_c, 0, 60, 0
2, 8341800, Note_on_c, 0, 59, 100
2, 8341860, Note_on_c, 0, 59, 0
2, 8341860, Note_on_c, 0, 60, 100
2, 8341920, Note_on_c, 0, 60, 0
2, 8341920, Note_on_c, 0, 59, 100
2, 8341980, Note_on_c, 0, 59, 0
2, 8341980, Note_on_c, 0, 60, 100
2, 8342040, Note_on_c, 0, 60, 0
2, 8342040, Note_on_c, 0, 59, 100
2, 8342100, Note_on_c, 0, 59, 0
2, 8342100, Note_on_c, 0, 58, 100
2, 8342220, Note_on_c, 0, 58, 0
2, 8342220, Note_on_c, 0, 60, 100
2, 8342280, Note_on_c, 0, 60, 0
2, 8342280, Note_on_c, 0, 58, 100
2, 8342340, Note_on_c, 0, 58, 0
2, 8342340, Note_on_c, 0, 60, 100
2, 8342400, Note_on_c, 0, 60, 0
2, 8342400, Note_on_c, 0, 58, 100
2, 8342460, Note_on_c, 0, 58, 0
2, 8342460, Note_on_c, 0, 60, 100
2, 8342520, Note_on_c, 0, 60, 0
2, 8342520, Note_on_c, 0, 58, 100
2, 8342580, Note_on_c, 0, 58, 0
2, 8342580, Note_on_c, 0, 67, 100
2, 8440320, Note_on_c, 0, 67, 0
2, 8440320, Note_on_c, 0, 69, 100
2, 8441280, Note_on_c, 0, 69, 0
2, 8441280, Note_on_c, 0, 67, 100
2, 8441760, Note_on_c, 0, 67, 0
2, 8441760, Note_on_c, 0, 69, 100
2, 8442000, Note_on_c, 0, 69, 0
2, 8442000, Note_on_c, 0, 67, 100
2, 8442240, Note_on_c, 0, 67, 0
2, 8442240, Note_on_c, 0, 65, 100
2, 8442480, Note_on_c, 0, 65, 0
2, 8442480, Note_on_c, 0, 64, 100
2, 8442720, Note_on_c, 0, 64, 0
2, 8442720, Note_on_c, 0, 62, 100
2, 8442960, Note_on_c, 0, 62, 0
2, 8442960, Note_on_c, 0, 60, 100
2, 8443200, Note_on_c, 0, 60, 0
2, 8443200, Note_on_c, 0, 71, 100
2, 8443440, Note_on_c, 0, 71, 0
2, 8443440, Note_on_c, 0, 69, 100
2, 8443680, Note_on_c, 0, 69, 0
2, 8443680, Note_on_c, 0, 67, 100
2, 8443920, Note_on_c, 0, 67, 0
2, 8443920, Note_on_c, 0, 69, 100
2, 8444160, Note_on_c, 0, 69, 0
2, 8444160, Note_on_c, 0, 66, 100
2, 8444400, Note_on_c, 0, 66, 0
2, 8444400, Note_on_c, 0, 67, 100
2, 8445120, Note_on_c, 0, 67, 0
2, 8445120, Note_on_c, 0, 62, 100
2, 8445360, Note_on_c, 0, 62, 0
2, 8445360, Note_on_c, 0, 67, 100
2, 8445600, Note_on_c, 0, 67, 0
2, 8445600, Note_on_c, 0, 69, 100
2, 8445840, Note_on_c, 0, 69, 0
2, 8445840, Note_on_c, 0, 71, 100
2, 8446080, Note_on_c, 0, 71, 0
2, 8446080, Note_on_c, 0, 72, 100
2, 8446320, Note_on_c, 0, 72, 0
2, 8446320, Note_on_c, 0, 74, 100
2, 8446560, Note_on_c, 0, 74, 0
2, 8446560, Note_on_c, 0, 72, 100
2, 8446800, Note_on_c, 0, 72, 0
2, 8446800, Note_on_c, 0, 71, 100
2, 8446920, Note_on_c, 0, 71, 0
2, 8446920, Note_on_c, 0, 69, 100
2, 8447040, Note_on_c, 0, 69, 0
2, 8447040, Note_on_c, 0, 74, 100
2, 8447280, Note_on_c, 0, 74, 0
2, 8447280, Note_on_c, 0, 72, 100
2, 8447760, Note_on_c, 0, 72, 0
2, 8447760, Note_on_c, 0, 71, 100
2, 8448000, Note_on_c, 0, 71, 0
2, 8448000, Note_on_c, 0, 69, 100
2, 8448480, Note_on_c, 0, 69, 0
2, 8448480, Note_on_c, 0, 71, 100
2, 8449200, Note_on_c, 0, 71, 0
2, 8449200, Note_on_c, 0, 73, 100
2, 8449320, Note_on_c, 0, 73, 0
2, 8449320, Note_on_c, 0, 74, 100
2, 8449440, Note_on_c, 0, 74, 0
2, 8449440, Note_on_c, 0, 76, 100
2, 8449680, Note_on_c, 0, 76, 0
2, 8449680, Note_on_c, 0, 78, 100
2, 8449920, Note_on_c, 0, 78, 0
2, 8449920, Note_on_c, 0, 74, 100
2, 8450160, Note_on_c, 0, 74, 0
2, 8450160, Note_on_c, 0, 71, 100
2, 8450400, Note_on_c, 0, 71, 0
2, 8450400, Note_on_c, 0, 74, 100
2, 8450640, Note_on_c, 0, 74, 0
2, 8450640, Note_on_c, 0, 79, 100
2, 8450880, Note_on_c, 0, 79, 0
2, 8450880, Note_on_c, 0, 78, 100
2, 8451120, Note_on_c, 0, 78, 0
2, 8451120, Note_on_c, 0, 76, 100
2, 8451360, Note_on_c, 0, 76, 0
2, 8451360, Note_on_c, 0, 74, 100
2, 8451720, Note_on_c, 0, 74, 0
2, 8451720, Note_on_c, 0, 73, 100
2, 8451960, Note_on_c, 0, 73, 0
2, 8451960, Note_on_c, 0, 76, 100
2, 8452080, Note_on_c, 0, 76, 0
2, 8452080, Note_on_c, 0, 74, 100
2, 8452440, Note_on_c, 0, 74, 0
2, 8452440, Note_on_c, 0, 73, 100
2, 8452680, Note_on_c, 0, 73, 0
2, 8452680, Note_on_c, 0, 74, 100
2, 8452800, Note_on_c, 0, 74, 0
2, 8452800, Note_on_c, 0, 67, 100
2, 8455680, Note_on_c, 0, 67, 0
2, 8455680, Note_on_c, 0, 69, 100
2, 8456640, Note_on_c, 0, 69, 0
2, 8456640, Note_on_c, 0, 67, 100
2, 8457120, Note_on_c, 0, 67, 0
2, 8457120, Note_on_c, 0, 69, 100
2, 8457360, Note_on_c, 0, 69, 0
2, 8457360, Note_on_c, 0, 67, 100
2, 8457600, Note_on_c, 0, 67, 0
2, 8457600, Note_on_c, 0, 65, 100
2, 8457840, Note_on_c, 0, 65, 0
2, 8457840, Note_on_c, 0, 64, 100
2, 8458080, Note_on_c, 0, 64, 0
2, 8458080, Note_on_c, 0, 62, 100
2, 8458320, Note_on_c, 0, 62, 0
2, 8458320, Note_on_c, 0, 60, 100
2, 8458560, Note_on_c, 0, 60, 0
2, 8458560, Note_on_c, 0, 71, 100
2, 8458800, Note_on_c, 0, 71, 0
2, 8458800, Note_on_c, 0, 69, 100
2, 8459040, Note_on_c, 0, 69, 0
2, 8459040, Note_on_c, 0, 67, 100
2, 8459280, Note_on_c, 0, 67, 0
2, 8459280, Note_on_c, 0, 69, 100
2, 8459520, Note_on_c, 0, 69, 0
2, 8459520, Note_on_c, 0, 66, 100
2, 8459760, Note_on_c, 0, 66, 0
2, 8459760, Note_on_c, 0, 67, 100
2, 8460480, Note_on_c, 0, 67, 0
2, 8460480, Note_on_c, 0, 62, 100
2, 8460720, Note_on_c, 0, 62, 0
2, 8460720, Note_on_c, 0, 67, 100
2, 8460960, Note_on_c, 0, 67, 0
2, 8460960, Note_on_c, 0, 69, 100
2, 8461200, Note_on_c, 0, 69, 0
2, 8461200, Note_on_c, 0, 71, 100
2, 8461440, Note_on_c, 0, 71, 0
2, 8461440, Note_on_c, 0, 72, 100
2, 8461680, Note_on_c, 0, 72, 0
2, 8461680, Note_on_c, 0, 74, 100
2, 8461920, Note_on_c, 0, 74, 0
2, 8461920, Note_on_c, 0, 72, 100
2, 8462160, Note_on_c, 0, 72, 0
2, 8462160, Note_on_c, 0, 71, 100
2, 8462280, Note_on_c, 0, 71, 0
2, 8462280, Note_on_c, 0, 69, 100
2, 8462400, Note_on_c, 0, 69, 0
2, 8462400, Note_on_c, 0, 74, 100
2, 8462640, Note_on_c, 0, 74, 0
2, 8462640, Note_on_c, 0, 72, 100
2, 8463120, Note_on_c, 0, 72, 0
2, 8463120, Note_on_c, 0, 71, 100
2, 8463360, Note_on_c, 0, 71, 0
2, 8463360, Note_on_c, 0, 69, 100
2, 8463840, Note_on_c, 0, 69, 0
2, 8463840, Note_on_c, 0, 71, 100
2, 8464560, Note_on_c, 0, 71, 0
2, 8464560, Note_on_c, 0, 73, 100
2, 8464680, Note_on_c, 0, 73, 0
2, 8464680, Note_on_c, 0, 74, 100
2, 8464800, Note_on_c, 0, 74, 0
2, 8464800, Note_on_c, 0, 76, 100
2, 8465040, Note_on_c, 0, 76, 0
2, 8465040, Note_on_c, 0, 78, 100
2, 8465280, Note_on_c, 0, 78, 0
2, 8465280, Note_on_c, 0, 74, 100
2, 8465520, Note_on_c, 0, 74, 0
2, 8465520, Note_on_c, 0, 71, 100
2, 8465760, Note_on_c, 0, 71, 0
2, 8465760, Note_on_c, 0, 74, 100
2, 8466000, Note_on_c, 0, 74, 0
2, 8466000, Note_on_c, 0, 79, 100
2, 8466240, Note_on_c, 0, 79, 0
2, 8466240, Note_on_c, 0, 78, 100
2, 8466480, Note_on_c, 0, 78, 0
2, 8466480, Note_on_c, 0, 76, 100
2, 8466720, Note_on_c, 0, 76, 0
2, 8466720, Note_on_c, 0, 74, 100
2, 8467080, Note_on_c, 0, 74, 0
2, 8467080, Note_on_c, 0, 73, 100
2, 8467320, Note_on_c, 0, 73, 0
2, 8467320, Note_on_c, 0, 76, 100
2, 8467440, Note_on_c, 0, 76, 0
2, 8467440, Note_on_c, 0, 74, 100
2, 8467800, Note_on_c, 0, 74, 0
2, 8467800, Note_on_c, 0, 73, 100
2, 8468040, Note_on_c, 0, 73, 0
2, 8468040, Note_on_c, 0, 74, 100
2, 8468160, Note_on_c, 0, 74, 0
2, 8468160, Note_on_c, 0, 69, 100
2, 8469120, Note_on_c, 0, 69, 0
2, 8469120, Note_on_c, 0, 71, 100
2, 8470080, Note_on_c, 0, 71, 0
2, 8470080, Note_on_c, 0, 69, 100
2, 8470560, Note_on_c, 0, 69, 0
2, 8470560, Note_on_c, 0, 71, 100
2, 8470800, Note_on_c, 0, 71, 0
2, 8470800, Note_on_c, 0, 69, 100
2, 8471040, Note_on_c, 0, 69, 0
2, 8471040, Note_on_c, 0, 67, 100
2, 8471280, Note_on_c, 0, 67, 0
2, 8471280, Note_on_c, 0, 66, 100
2, 8471520, Note_on_c, 0, 66, 0
2, 8471520, Note_on_c, 0, 64, 100
2, 8471760, Note_on_c, 0, 64, 0
2, 8471760, Note_on_c, 0, 63, 100
2, 8472000, Note_on_c, 0, 63, 0
2, 8472000, Note_on_c, 0, 71, 100
2, 8472960, Note_on_c, 0, 71, 0
2, 8472960, Note_on_c, 0, 72, 100
2, 8473920, Note_on_c, 0, 72, 0
2, 8473920, Note_on_c, 0, 71, 100
2, 8474400, Note_on_c, 0, 71, 0
2, 8474400, Note_on_c, 0, 72, 100
2, 8474640, Note_on_c, 0, 72, 0
2, 8474640, Note_on_c, 0, 71, 100
2, 8474880, Note_on_c, 0, 71, 0
2, 8474880, Note_on_c, 0, 69, 100
2, 8475120, Note_on_c, 0, 69, 0
2, 8475120, Note_on_c, 0, 67, 100
2, 8475360, Note_on_c, 0, 67, 0
2, 8475360, Note_on_c, 0, 66, 100
2, 8475600, Note_on_c, 0, 66, 0
2, 8475600, Note_on_c, 0, 67, 100
2, 8475720, Note_on_c, 0, 67, 0
2, 8475720, Note_on_c, 0, 64, 100
2, 8475840, Note_on_c, 0, 64, 0
2, 8475840, Note_on_c, 0, 67, 100
2, 8477760, Note_on_c, 0, 67, 0
2, 8477760, Note_on_c, 0, 72, 100
2, 8478240, Note_on_c, 0, 72, 0
2, 8478240, Note_on_c, 0, 74, 100
2, 8478600, Note_on_c, 0, 74, 0
2, 8478600, Note_on_c, 0, 72, 100
2, 8478720, Note_on_c, 0, 72, 0
2, 8478720, Note_on_c, 0, 71, 100
2, 8478960, Note_on_c, 0, 71, 0
2, 8478960, Note_on_c, 0, 69, 100
2, 8479200, Note_on_c, 0, 69, 0
2, 8479200, Note_on_c, 0, 71, 100
2, 8479440, Note_on_c, 0, 71, 0
2, 8479440, Note_on_c, 0, 72, 100
2, 8479680, Note_on_c, 0, 72, 0
2, 8479680, Note_on_c, 0, 74, 100
2, 8479920, Note_on_c, 0, 74, 0
2, 8479920, Note_on_c, 0, 71, 100
2, 8480160, Note_on_c, 0, 71, 0
2, 8480160, Note_on_c, 0, 69, 100
2, 8480400, Note_on_c, 0, 69, 0
2, 8480400, Note_on_c, 0, 71, 100
2, 8480520, Note_on_c, 0, 71, 0
2, 8480520, Note_on_c, 0, 67, 100
2, 8480640, Note_on_c, 0, 67, 0
2, 8480640, Note_on_c, 0, 76, 100
2, 8481360, Note_on_c, 0, 76, 0
2, 8481360, Note_on_c, 0, 74, 100
2, 8481480, Note_on_c, 0, 74, 0
2, 8481480, Note_on_c, 0, 72, 100
2, 8481600, Note_on_c, 0, 72, 0
2, 8481600, Note_on_c, 0, 76, 100
2, 8481840, Note_on_c, 0, 76, 0
2, 8481840, Note_on_c, 0, 69, 100
2, 8482080, Note_on_c, 0, 69, 0
2, 8482080, Note_on_c, 0, 74, 100
2, 8482200, Note_on_c, 0, 74, 0
2, 8482200, Note_on_c, 0, 72, 100
2, 8482320, Note_on_c, 0, 72, 0
2, 8482320, Note_on_c, 0, 71, 100
2, 8482440, Note_on_c, 0, 71, 0
2, 8482440, Note_on_c, 0, 72, 100
2, 8482560, Note_on_c, 0, 72, 0
2, 8482560, Note_on_c, 0, 69, 100
2, 8482680, Note_on_c, 0, 69, 0
2, 8482680, Note_on_c, 0, 74, 100
2, 8482800, Note_on_c, 0, 74, 0
2, 8482800, Note_on_c, 0, 72, 100
2, 8483280, Note_on_c, 0, 72, 0
2, 8483280, Note_on_c, 0, 74, 100
2, 8483400, Note_on_c, 0, 74, 0
2, 8483400, Note_on_c, 0, 71, 100
2, 8483520, Note_on_c, 0, 71, 0
2, 8483520, Note_on_c, 0, 69, 100
2, 8484480, Note_on_c, 0, 69, 0
2, 8484480, Note_on_c, 0, 71, 100
2, 8485440, Note_on_c, 0, 71, 0
2, 8485440, Note_on_c, 0, 69, 100
2, 8485920, Note_on_c, 0, 69, 0
2, 8485920, Note_on_c, 0, 71, 100
2, 8486160, Note_on_c, 0, 71, 0
2, 8486160, Note_on_c, 0, 69, 100
2, 8486400, Note_on_c, 0, 69, 0
2, 8486400, Note_on_c, 0, 67, 100
2, 8486640, Note_on_c, 0, 67, 0
2, 8486640, Note_on_c, 0, 66, 100
2, 8486880, Note_on_c, 0, 66, 0
2, 8486880, Note_on_c, 0, 64, 100
2, 8487120, Note_on_c, 0, 64, 0
2, 8487120, Note_on_c, 0, 63, 100
2, 8487360, Note_on_c, 0, 63, 0
2, 8487360, Note_on_c, 0, 71, 100
2, 8488320, Note_on_c, 0, 71, 0
2, 8488320, Note_on_c, 0, 72, 100
2, 8489280, Note_on_c, 0, 72, 0
2, 8489280, Note_on_c, 0, 71, 100
2, 8489760, Note_on_c, 0, 71, 0
2, 8489760, Note_on_c, 0, 72, 100
2, 8490000, Note_on_c, 0, 72, 0
2, 8490000, Note_on_c, 0, 71, 100
2, 8490240, Note_on_c, 0, 71, 0
2, 8490240, Note_on_c, 0, 69, 100
2, 8490480, Note_on_c, 0, 69, 0
2, 8490480, Note_on_c, 0, 67, 100
2, 8490720, Note_on_c, 0, 67, 0
2, 8490720, Note_on_c, 0, 66, 100
2, 8490960, Note_on_c, 0, 66, 0
2, 8490960, Note_on_c, 0, 67, 100
2, 8491080, Note_on_c, 0, 67, 0
2, 8491080, Note_on_c, 0, 64, 100
2, 8491200, Note_on_c, 0, 64, 0
2, 8491200, Note_on_c, 0, 67, 100
2, 8493120, Note_on_c, 0, 67, 0
2, 8493120, Note_on_c, 0, 72, 100
2, 8493600, Note_on_c, 0, 72, 0
2, 8493600, Note_on_c, 0, 74, 100
2, 8493960, Note_on_c, 0, 74, 0
2, 8493960, Note_on_c, 0, 72, 100
2, 8494080, Note_on_c, 0, 72, 0
2, 8494080, Note_on_c, 0, 71, 100
2, 8494320, Note_on_c, 0, 71, 0
2, 8494320, Note_on_c, 0, 69, 100
2, 8494560, Note_on_c, 0, 69, 0
2, 8494560, Note_on_c, 0, 71, 100
2, 8494800, Note_on_c, 0, 71, 0
2, 8494800, Note_on_c, 0, 72, 100
2, 8495040, Note_on_c, 0, 72, 0
2, 8495040, Note_on_c, 0, 74, 100
2, 8495280, Note_on_c, 0, 74, 0
2, 8495280, Note_on_c, 0, 71, 100
2, 8495520, Note_on_c, 0, 71, 0
2, 8495520, Note_on_c, 0, 69, 100
2, 8495760, Note_on_c, 0, 69, 0
2, 8495760, Note_on_c, 0, 71, 100
2, 8495880, Note_on_c, 0, 71, 0
2, 8495880, Note_on_c, 0, 67, 100
2, 8496000, Note_on_c, 0, 67, 0
2, 8496000, Note_on_c, 0, 76, 100
2, 8496720, Note_on_c, 0, 76, 0
2, 8496720, Note_on_c, 0, 74, 100
2, 8496840, Note_on_c, 0, 74, 0
2, 8496840, Note_on_c, 0, 72, 100
2, 8496960, Note_on_c, 0, 72, 0
2, 8496960, Note_on_c, 0, 76, 100
2, 8497200, Note_on_c, 0, 76, 0
2, 8497200, Note_on_c, 0, 69, 100
2, 8497440, Note_on_c, 0, 69, 0
2, 8497440, Note_on_c, 0, 74, 100
2, 8497560, Note_on_c, 0, 74, 0
2, 8497560, Note_on_c, 0, 72, 100
2, 8497680, Note_on_c, 0, 72, 0
2, 8497680, Note_on_c, 0, 71, 100
2, 8497800, Note_on_c, 0, 71, 0
2, 8497800, Note_on_c, 0, 72, 100
2, 8497920, Note_on_c, 0, 72, 0
2, 8497920, Note_on_c, 0, 69, 100
2, 8498040, Note_on_c, 0, 69, 0
2, 8498040, Note_on_c, 0, 74, 100
2, 8498160, Note_on_c, 0, 74, 0
2, 8498160, Note_on_c, 0, 72, 100
2, 8498640, Note_on_c, 0, 72, 0
2, 8498640, Note_on_c, 0, 74, 100
2, 8498760, Note_on_c, 0, 74, 0
2, 8498760, Note_on_c, 0, 71, 100
2, 8498880, Note_on_c, 0, 71, 0
2, 8498880, Note_on_c, 0, 62, 100
2, 8501760, Note_on_c, 0, 62, 0
2, 8501760, Note_on_c, 0, 61, 100
2, 8503200, Note_on_c, 0, 61, 0
2, 8503200, Note_on_c, 0, 57, 100
2, 8504640, Note_on_c, 0, 57, 0
2, 8504640, Note_on_c, 0, 55, 100
2, 8506080, Note_on_c, 0, 55, 0
2, 8506080, Note_on_c, 0, 57, 100
2, 8507520, Note_on_c, 0, 57, 0
2, 8507520, Note_on_c, 0, 60, 100
2, 8508240, Note_on_c, 0, 60, 0
2, 8508240, Note_on_c, 0, 59, 100
2, 8508720, Note_on_c, 0, 59, 0
2, 8508720, Note_on_c, 0, 57, 100
2, 8508840, Note_on_c, 0, 57, 0
2, 8508840, Note_on_c, 0, 55, 100
2, 8508960, Note_on_c, 0, 55, 0
2, 8508960, Note_on_c, 0, 54, 100
2, 8509080, Note_on_c, 0, 54, 0
2, 8509080, Note_on_c, 0, 52, 100
2, 8509200, Note_on_c, 0, 52, 0
2, 8509200, Note_on_c, 0, 54, 100
2, 8509320, Note_on_c, 0, 54, 0
2, 8509320, Note_on_c, 0, 55, 100
2, 8509440, Note_on_c, 0, 55, 0
2, 8509440, Note_on_c, 0, 57, 100
2, 8509680, Note_on_c, 0, 57, 0
2, 8509680, Note_on_c, 0, 59, 100
2, 8511360, Note_on_c, 0, 59, 0
2, 8511360, Note_on_c, 0, 57, 100
2, 8512320, Note_on_c, 0, 57, 0
2, 8512320, Note_on_c, 0, 59, 100
2, 8514000, Note_on_c, 0, 59, 0
2, 8514000, Note_on_c, 0, 57, 100
2, 8517120, Note_on_c, 0, 57, 0
2, 8517120, Note_on_c, 0, 59, 100
2, 8518560, Note_on_c, 0, 59, 0
2, 8518560, Note_on_c, 0, 57, 100
2, 8521680, Note_on_c, 0, 57, 0
2, 8521680, Note_on_c, 0, 62, 100
2, 8524800, Note_on_c, 0, 62, 0
2, 8524800, Note_on_c, 0, 61, 100
2, 8526240, Note_on_c, 0, 61, 0
2, 8526240, Note_on_c, 0, 57, 100
2, 8527680, Note_on_c, 0, 57, 0
2, 8527680, Note_on_c, 0, 55, 100
2, 8529120, Note_on_c, 0, 55, 0
2, 8529120, Note_on_c, 0, 57, 100
2, 8530560, Note_on_c, 0, 57, 0
2, 8530560, Note_on_c, 0, 60, 100
2, 8531280, Note_on_c, 0, 60, 0
2, 8531280, Note_on_c, 0, 59, 100
2, 8531760, Note_on_c, 0, 59, 0
2, 8531760, Note_on_c, 0, 57, 100
2, 8531880, Note_on_c, 0, 57, 0
2, 8531880, Note_on_c, 0, 55, 100
2, 8532000, Note_on_c, 0, 55, 0
2, 8532000, Note_on_c, 0, 54, 100
2, 8532120, Note_on_c, 0, 54, 0
2, 8532120, Note_on_c, 0, 52, 100
2, 8532240, Note_on_c, 0, 52, 0
2, 8532240, Note_on_c, 0, 54, 100
2, 8532360, Note_on_c, 0, 54, 0
2, 8532360, Note_on_c, 0, 55, 100
2, 8532480, Note_on_c, 0, 55, 0
2, 8532480, Note_on_c, 0, 57, 100
2, 8532720, Note_on_c, 0, 57, 0
2, 8532720, Note_on_c, 0, 59, 100
2, 8534400, Note_on_c, 0, 59, 0
2, 8534400, Note_on_c, 0, 57, 100
2, 8535360, Note_on_c, 0, 57, 0
2, 8535360, Note_on_c, 0, 59, 100
2, 8537040, Note_on_c, 0, 59, 0
2, 8537040, Note_on_c, 0, 57, 100
2, 8540160, Note_on_c, 0, 57, 0
2, 8540160, Note_on_c, 0, 59, 100
2, 8541600, Note_on_c, 0, 59, 0
2, 8541600, Note_on_c, 0, 57, 100
2, 8544720, Note_on_c, 0, 57, 0
2, 8544720, Note_on_c, 0, 62, 100
2, 8545440, Note_on_c, 0, 62, 0
2, 8545440, Note_on_c, 0, 60, 100
2, 8546400, Note_on_c, 0, 60, 0
2, 8546400, Note_on_c, 0, 59, 100
2, 8546880, Note_on_c, 0, 59, 0
2, 8546880, Note_on_c, 0, 57, 100
2, 8547600, Note_on_c, 0, 57, 0
2, 8547600, Note_on_c, 0, 59, 100
2, 8547840, Note_on_c, 0, 59, 0
2, 8547840, Note_on_c, 0, 60, 100
2, 8548320, Note_on_c, 0, 60, 0
2, 8548320, Note_on_c, 0, 59, 100
2, 8549040, Note_on_c, 0, 59, 0
2, 8549040, Note_on_c, 0, 57, 100
2, 8549280, Note_on_c, 0, 57, 0
2, 8549280, Note_on_c, 0, 59, 100
2, 8549760, Note_on_c, 0, 59, 0
2, 8549760, Note_on_c, 0, 57, 100
2, 8550480, Note_on_c, 0, 57, 0
2, 8550480, Note_on_c, 0, 55, 100
2, 8550720, Note_on_c, 0, 55, 0
2, 8550720, Note_on_c, 0, 54, 100
2, 8550960, Note_on_c, 0, 54, 0
2, 8550960, Note_on_c, 0, 52, 100
2, 8551200, Note_on_c, 0, 52, 0
2, 8551200, Note_on_c, 0, 50, 100
2, 8552160, Note_on_c, 0, 50, 0
2, 8552160, Note_on_c, 0, 48, 100
2, 8552640, Note_on_c, 0, 48, 0
2, 8552640, Note_on_c, 0, 47, 100
2, 8553600, Note_on_c, 0, 47, 0
2, 8553600, Note_on_c, 0, 45, 100
2, 8554080, Note_on_c, 0, 45, 0
2, 8554080, Note_on_c, 0, 48, 100
2, 8554320, Note_on_c, 0, 48, 0
2, 8554320, Note_on_c, 0, 47, 100
2, 8554560, Note_on_c, 0, 47, 0
2, 8554560, Note_on_c, 0, 45, 100
2, 8554800, Note_on_c, 0, 45, 0
2, 8554800, Note_on_c, 0, 47, 100
2, 8555040, Note_on_c, 0, 47, 0
2, 8555040, Note_on_c, 0, 52, 100
2, 8555520, Note_on_c, 0, 52, 0
2, 8555520, Note_on_c, 0, 47, 100
2, 8555760, Note_on_c, 0, 47, 0
2, 8555760, Note_on_c, 0, 40, 100
2, 8556000, Note_on_c, 0, 40, 0
2, 8556000, Note_on_c, 0, 47, 100
2, 8556240, Note_on_c, 0, 47, 0
2, 8556240, Note_on_c, 0, 52, 100
2, 8556480, Note_on_c, 0, 52, 0
2, 8556480, Note_on_c, 0, 50, 100
2, 8556720, Note_on_c, 0, 50, 0
2, 8556720, Note_on_c, 0, 48, 100
2, 8556960, Note_on_c, 0, 48, 0
2, 8556960, Note_on_c, 0, 47, 100
2, 8558400, Note_on_c, 0, 47, 0
2, 8558400, Note_on_c, 0, 45, 100
2, 8559840, Note_on_c, 0, 45, 0
2, 8559840, Note_on_c, 0, 43, 100
2, 8560560, Note_on_c, 0, 43, 0
2, 8560560, Note_on_c, 0, 42, 100
2, 8560800, Note_on_c, 0, 42, 0
2, 8560800, Note_on_c, 0, 40, 100
2, 8561040, Note_on_c, 0, 40, 0
2, 8561040, Note_on_c, 0, 38, 100
2, 8561280, Note_on_c, 0, 38, 0
2, 8561280, Note_on_c, 0, 45, 100
2, 8561520, Note_on_c, 0, 45, 0
2, 8561520, Note_on_c, 0, 50, 100
2, 8561760, Note_on_c, 0, 50, 0
2, 8561760, Note_on_c, 0, 48, 100
2, 8562000, Note_on_c, 0, 48, 0
2, 8562000, Note_on_c, 0, 47, 100
2, 8562240, Note_on_c, 0, 47, 0
2, 8562240, Note_on_c, 0, 45, 100
2, 8562480, Note_on_c, 0, 45, 0
2, 8562480, Note_on_c, 0, 43, 100
2, 8562720, Note_on_c, 0, 43, 0
2, 8562720, Note_on_c, 0, 50, 100
2, 8562960, Note_on_c, 0, 50, 0
2, 8562960, Note_on_c, 0, 55, 100
2, 8563200, Note_on_c, 0, 55, 0
2, 8563200, Note_on_c, 0, 53, 100
2, 8563440, Note_on_c, 0, 53, 0
2, 8563440, Note_on_c, 0, 52, 100
2, 8563680, Note_on_c, 0, 52, 0
2, 8563680, Note_on_c, 0, 50, 100
2, 8563920, Note_on_c, 0, 50, 0
2, 8563920, Note_on_c, 0, 48, 100
2, 8564160, Note_on_c, 0, 48, 0
2, 8564160, Note_on_c, 0, 55, 100
2, 8564400, Note_on_c, 0, 55, 0
2, 8564400, Note_on_c, 0, 60, 100
2, 8564640, Note_on_c, 0, 60, 0
2, 8564640, Note_on_c, 0, 59, 100
2, 8564880, Note_on_c, 0, 59, 0
2, 8564880, Note_on_c, 0, 57, 100
2, 8565120, Note_on_c, 0, 57, 0
2, 8565120, Note_on_c, 0, 55, 100
2, 8565360, Note_on_c, 0, 55, 0
2, 8565360, Note_on_c, 0, 54, 100
2, 8565600, Note_on_c, 0, 54, 0
2, 8565600, Note_on_c, 0, 50, 100
2, 8565840, Note_on_c, 0, 50, 0
2, 8565840, Note_on_c, 0, 55, 100
2, 8566080, Note_on_c, 0, 55, 0
2, 8566080, Note_on_c, 0, 59, 100
2, 8566320, Note_on_c, 0, 59, 0
2, 8566320, Note_on_c, 0, 62, 100
2, 8566560, Note_on_c, 0, 62, 0
2, 8566560, Note_on_c, 0, 50, 100
2, 8566800, Note_on_c, 0, 50, 0
2, 8566800, Note_on_c, 0, 55, 100
2, 8567040, Note_on_c, 0, 55, 0
2, 8567040, Note_on_c, 0, 50, 100
2, 8567760, Note_on_c, 0, 50, 0
2, 8567760, Note_on_c, 0, 43, 100
2, 8568000, Note_on_c, 0, 43, 0
2, 8568000, Note_on_c, 0, 62, 100
2, 8568480, Note_on_c, 0, 62, 0
2, 8568480, Note_on_c, 0, 60, 100
2, 8569440, Note_on_c, 0, 60, 0
2, 8569440, Note_on_c, 0, 59, 100
2, 8569920, Note_on_c, 0, 59, 0
2, 8569920, Note_on_c, 0, 57, 100
2, 8570640, Note_on_c, 0, 57, 0
2, 8570640, Note_on_c, 0, 59, 100
2, 8570880, Note_on_c, 0, 59, 0
2, 8570880, Note_on_c, 0, 60, 100
2, 8571360, Note_on_c, 0, 60, 0
2, 8571360, Note_on_c, 0, 59, 100
2, 8572080, Note_on_c, 0, 59, 0
2, 8572080, Note_on_c, 0, 57, 100
2, 8572320, Note_on_c, 0, 57, 0
2, 8572320, Note_on_c, 0, 59, 100
2, 8572800, Note_on_c, 0, 59, 0
2, 8572800, Note_on_c, 0, 57, 100
2, 8573520, Note_on_c, 0, 57, 0
2, 8573520, Note_on_c, 0, 55, 100
2, 8573760, Note_on_c, 0, 55, 0
2, 8573760, Note_on_c, 0, 54, 100
2, 8574000, Note_on_c, 0, 54, 0
2, 8574000, Note_on_c, 0, 52, 100
2, 8574240, Note_on_c, 0, 52, 0
2, 8574240, Note_on_c, 0, 50, 100
2, 8575200, Note_on_c, 0, 50, 0
2, 8575200, Note_on_c, 0, 48, 100
2, 8575680, Note_on_c, 0, 48, 0
2, 8575680, Note_on_c, 0, 47, 100
2, 8576640, Note_on_c, 0, 47, 0
2, 8576640, Note_on_c, 0, 45, 100
2, 8577120, Note_on_c, 0, 45, 0
2, 8577120, Note_on_c, 0, 48, 100
2, 8577360, Note_on_c, 0, 48, 0
2, 8577360, Note_on_c, 0, 47, 100
2, 8577600, Note_on_c, 0, 47, 0
2, 8577600, Note_on_c, 0, 45, 100
2, 8577840, Note_on_c, 0, 45, 0
2, 8577840, Note_on_c, 0, 47, 100
2, 8578080, Note_on_c, 0, 47, 0
2, 8578080, Note_on_c, 0, 52, 100
2, 8578560, Note_on_c, 0, 52, 0
2, 8578560, Note_on_c, 0, 47, 100
2, 8578800, Note_on_c, 0, 47, 0
2, 8578800, Note_on_c, 0, 40, 100
2, 8579040, Note_on_c, 0, 40, 0
2, 8579040, Note_on_c, 0, 47, 100
2, 8579280, Note_on_c, 0, 47, 0
2, 8579280, Note_on_c, 0, 52, 100
2, 8579520, Note_on_c, 0, 52, 0
2, 8579520, Note_on_c, 0, 50, 100
2, 8579760, Note_on_c, 0, 50, 0
2, 8579760, Note_on_c, 0, 48, 100
2, 8580000, Note_on_c, 0, 48, 0
2, 8580000, Note_on_c, 0, 47, 100
2, 8581440, Note_on_c, 0, 47, 0
2, 8581440, Note_on_c, 0, 45, 100
2, 8582880, Note_on_c, 0, 45, 0
2, 8582880, Note_on_c, 0, 43, 100
2, 8583600, Note_on_c, 0, 43, 0
2, 8583600, Note_on_c, 0, 42, 100
2, 8583840, Note_on_c, 0, 42, 0
2, 8583840, Note_on_c, 0, 40, 100
2, 8584080, Note_on_c, 0, 40, 0
2, 8584080, Note_on_c, 0, 38, 100
2, 8584320, Note_on_c, 0, 38, 0
2, 8584320, Note_on_c, 0, 45, 100
2, 8584560, Note_on_c, 0, 45, 0
2, 8584560, Note_on_c, 0, 50, 100
2, 8584800, Note_on_c, 0, 50, 0
2, 8584800, Note_on_c, 0, 48, 100
2, 8585040, Note_on_c, 0, 48, 0
2, 8585040, Note_on_c, 0, 47, 100
2, 8585280, Note_on_c, 0, 47, 0
2, 8585280, Note_on_c, 0, 45, 100
2, 8585520, Note_on_c, 0, 45, 0
2, 8585520, Note_on_c, 0, 43, 100
2, 8585760, Note_on_c, 0, 43, 0
2, 8585760, Note_on_c, 0, 50, 100
2, 8586000, Note_on_c, 0, 50, 0
2, 8586000, Note_on_c, 0, 55, 100
2, 8586240, Note_on_c, 0, 55, 0
2, 8586240, Note_on_c, 0, 53, 100
2, 8586480, Note_on_c, 0, 53, 0
2, 8586480, Note_on_c, 0, 52, 100
2, 8586720, Note_on_c, 0, 52, 0
2, 8586720, Note_on_c, 0, 50, 100
2, 8586960, Note_on_c, 0, 50, 0
2, 8586960, Note_on_c, 0, 48, 100
2, 8587200, Note_on_c, 0, 48, 0
2, 8587200, Note_on_c, 0, 55, 100
2, 8587440, Note_on_c, 0, 55, 0
2, 8587440, Note_on_c, 0, 60, 100
2, 8587680, Note_on_c, 0, 60, 0
2, 8587680, Note_on_c, 0, 59, 100
2, 8587920, Note_on_c, 0, 59, 0
2, 8587920, Note_on_c, 0, 57, 100
2, 8588160, Note_on_c, 0, 57, 0
2, 8588160, Note_on_c, 0, 55, 100
2, 8588400, Note_on_c, 0, 55, 0
2, 8588400, Note_on_c, 0, 54, 100
2, 8588640, Note_on_c, 0, 54, 0
2, 8588640, Note_on_c, 0, 50, 100
2, 8588880, Note_on_c, 0, 50, 0
2, 8588880, Note_on_c, 0, 55, 100
2, 8589120, Note_on_c, 0, 55, 0
2, 8589120, Note_on_c, 0, 59, 100
2, 8589360, Note_on_c, 0, 59, 0
2, 8589360, Note_on_c, 0, 62, 100
2, 8589600, Note_on_c, 0, 62, 0
2, 8589600, Note_on_c, 0, 50, 100
2, 8589840, Note_on_c, 0, 50, 0
2, 8589840, Note_on_c, 0, 55, 100
2, 8590080, Note_on_c, 0, 55, 0
2, 8590080, Note_on_c, 0, 50, 100
2, 8590800, Note_on_c, 0, 50, 0
2, 8590800, Note_on_c, 0, 43, 100
2, 8592960, Note_on_c, 0, 43, 0
2, 8592960, Note_on_c, 0, 50, 100
2, 8593440, Note_on_c, 0, 50, 0
2, 8593440, Note_on_c, 0, 48, 100
2, 8593920, Note_on_c, 0, 48, 0
2, 8593920, Note_on_c, 0, 47, 100
2, 8594400, Note_on_c, 0, 47, 0
2, 8594400, Note_on_c, 0, 50, 100
2, 8594880, Note_on_c, 0, 50, 0
2, 8594880, Note_on_c, 0, 52, 100
2, 8595360, Note_on_c, 0, 52, 0
2, 8595360, Note_on_c, 0, 54, 100
2, 8595840, Note_on_c, 0, 54, 0
2, 8595840, Note_on_c, 0, 55, 100
2, 8596320, Note_on_c, 0, 55, 0
2, 8596320, Note_on_c, 0, 43, 100
2, 8596800, Note_on_c, 0, 43, 0
2, 8596800, Note_on_c, 0, 50, 100
2, 8597280, Note_on_c, 0, 50, 0
2, 8597280, Note_on_c, 0, 48, 100
2, 8597760, Note_on_c, 0, 48, 0
2, 8597760, Note_on_c, 0, 47, 100
2, 8598240, Note_on_c, 0, 47, 0
2, 8598240, Note_on_c, 0, 50, 100
2, 8598720, Note_on_c, 0, 50, 0
2, 8598720, Note_on_c, 0, 52, 100
2, 8599200, Note_on_c, 0, 52, 0
2, 8599200, Note_on_c, 0, 54, 100
2, 8599680, Note_on_c, 0, 54, 0
2, 8599680, Note_on_c, 0, 55, 100
2, 8600160, Note_on_c, 0, 55, 0
2, 8600160, Note_on_c, 0, 62, 100
2, 8601600, Note_on_c, 0, 62, 0
2, 8601600, Note_on_c, 0, 55, 100
2, 8602080, Note_on_c, 0, 55, 0
2, 8602080, Note_on_c, 0, 57, 100
2, 8602560, Note_on_c, 0, 57, 0
2, 8602560, Note_on_c, 0, 59, 100
2, 8603040, Note_on_c, 0, 59, 0
2, 8603040, Note_on_c, 0, 55, 100
2, 8603520, Note_on_c, 0, 55, 0
2, 8603520, Note_on_c, 0, 54, 100
2, 8604000, Note_on_c, 0, 54, 0
2, 8604000, Note_on_c, 0, 52, 100
2, 8604480, Note_on_c, 0, 52, 0
2, 8604480, Note_on_c, 0, 50, 100
2, 8604960, Note_on_c, 0, 50, 0
2, 8604960, Note_on_c, 0, 62, 100
2, 8605440, Note_on_c, 0, 62, 0
2, 8605440, Note_on_c, 0, 55, 100
2, 8605920, Note_on_c, 0, 55, 0
2, 8605920, Note_on_c, 0, 57, 100
2, 8606400, Note_on_c, 0, 57, 0
2, 8606400, Note_on_c, 0, 59, 100
2, 8606880, Note_on_c, 0, 59, 0
2, 8606880, Note_on_c, 0, 55, 100
2, 8607360, Note_on_c, 0, 55, 0
2, 8607360, Note_on_c, 0, 54, 100
2, 8607840, Note_on_c, 0, 54, 0
2, 8607840, Note_on_c, 0, 52, 100
2, 8608320, Note_on_c, 0, 52, 0
2, 8608320, Note_on_c, 0, 50, 100
2, 8608800, Note_on_c, 0, 50, 0
2, 8608800, Note_on_c, 0, 62, 100
2, 8612160, Note_on_c, 0, 62, 0
2, 8612160, Note_on_c, 0, 64, 100
2, 8612640, Note_on_c, 0, 64, 0
2, 8612640, Note_on_c, 0, 66, 100
2, 8613120, Note_on_c, 0, 66, 0
2, 8613120, Note_on_c, 0, 67, 100
2, 8613600, Note_on_c, 0, 67, 0
2, 8613600, Note_on_c, 0, 71, 100
2, 8614080, Note_on_c, 0, 71, 0
2, 8614080, Note_on_c, 0, 69, 100
2, 8614560, Note_on_c, 0, 69, 0
2, 8614560, Note_on_c, 0, 67, 100
2, 8615040, Note_on_c, 0, 67, 0
2, 8615040, Note_on_c, 0, 74, 100
2, 8615520, Note_on_c, 0, 74, 0
2, 8615520, Note_on_c, 0, 62, 100
2, 8616000, Note_on_c, 0, 62, 0
2, 8616000, Note_on_c, 0, 64, 100
2, 8616480, Note_on_c, 0, 64, 0
2, 8616480, Note_on_c, 0, 66, 100
2, 8616960, Note_on_c, 0, 66, 0
2, 8616960, Note_on_c, 0, 67, 100
2, 8617440, Note_on_c, 0, 67, 0
2, 8617440, Note_on_c, 0, 71, 100
2, 8617920, Note_on_c, 0, 71, 0
2, 8617920, Note_on_c, 0, 69, 100
2, 8618400, Note_on_c, 0, 69, 0
2, 8618400, Note_on_c, 0, 67, 100
2, 8618880, Note_on_c, 0, 67, 0
2, 8618880, Note_on_c, 0, 74, 100
2, 8619360, Note_on_c, 0, 74, 0
2, 8619360, Note_on_c, 0, 62, 100
2, 8619840, Note_on_c, 0, 62, 0
2, 8619840, Note_on_c, 0, 64, 100
2, 8620320, Note_on_c, 0, 64, 0
2, 8620320, Note_on_c, 0, 66, 100
2, 8620800, Note_on_c, 0, 66, 0
2, 8620800, Note_on_c, 0, 67, 100
2, 8624640, Note_on_c, 0, 67, 0
2, 8624640, Note_on_c, 0, 66, 100
2, 8625120, Note_on_c, 0, 66, 0
2, 8625120, Note_on_c, 0, 64, 100
2, 8625600, Note_on_c, 0, 64, 0
2, 8625600, Note_on_c, 0, 62, 100
2, 8626080, Note_on_c, 0, 62, 0
2, 8626080, Note_on_c, 0, 59, 100
2, 8626560, Note_on_c, 0, 59, 0
2, 8626560, Note_on_c, 0, 60, 100
2, 8627040, Note_on_c, 0, 60, 0
2, 8627040, Note_on_c, 0, 62, 100
2, 8627520, Note_on_c, 0, 62, 0
2, 8627520, Note_on_c, 0, 55, 100
2, 8628000, Note_on_c, 0, 55, 0
2, 8628000, Note_on_c, 0, 67, 100
2, 8628480, Note_on_c, 0, 67, 0
2, 8628480, Note_on_c, 0, 66, 100
2, 8628960, Note_on_c, 0, 66, 0
2, 8628960, Note_on_c, 0, 64, 100
2, 8629440, Note_on_c, 0, 64, 0
2, 8629440, Note_on_c, 0, 62, 100
2, 8629920, Note_on_c, 0, 62, 0
2, 8629920, Note_on_c, 0, 59, 100
2, 8630400, Note_on_c, 0, 59, 0
2, 8630400, Note_on_c, 0, 60, 100
2, 8630880, Note_on_c, 0, 60, 0
2, 8630880, Note_on_c, 0, 62, 100
2, 8631360, Note_on_c, 0, 62, 0
2, 8631360, Note_on_c, 0, 55, 100
2, 8631840, Note_on_c, 0, 55, 0
2, 8631840, Note_on_c, 0, 67, 100
2, 8633040, Note_on_c, 0, 67, 0
2, 8633040, Note_on_c, 0, 66, 100
2, 8633160, Note_on_c, 0, 66, 0
2, 8633160, Note_on_c, 0, 67, 100
2, 8633280, Note_on_c, 0, 67, 0
2, 8633280, Note_on_c, 0, 69, 100
2, 8633400, Note_on_c, 0, 69, 0
2, 8633400, Note_on_c, 0, 71, 100
2, 8633520, Note_on_c, 0, 71, 0
2, 8633520, Note_on_c, 0, 72, 100
2, 8633640, Note_on_c, 0, 72, 0
2, 8633640, Note_on_c, 0, 74, 100
2, 8633760, Note_on_c, 0, 74, 0
2, 8633760, Note_on_c, 0, 69, 100
2, 8633880, Note_on_c, 0, 69, 0
2, 8633880, Note_on_c, 0, 66, 100
2, 8634000, Note_on_c, 0, 66, 0
2, 8634000, Note_on_c, 0, 62, 100
2, 8634120, Note_on_c, 0, 62, 0
2, 8634120, Note_on_c, 0, 64, 100
2, 8634240, Note_on_c, 0, 64, 0
2, 8634240, Note_on_c, 0, 66, 100
2, 8634360, Note_on_c, 0, 66, 0
2, 8634360, Note_on_c, 0, 67, 100
2, 8634480, Note_on_c, 0, 67, 0
2, 8634480, Note_on_c, 0, 69, 100
2, 8634600, Note_on_c, 0, 69, 0
2, 8634600, Note_on_c, 0, 71, 100
2, 8634720, Note_on_c, 0, 71, 0
2, 8634720, Note_on_c, 0, 66, 100
2, 8634960, Note_on_c, 0, 66, 0
2, 8634960, Note_on_c, 0, 67, 100
2, 8635200, Note_on_c, 0, 67, 0
2, 8635200, Note_on_c, 0, 69, 100
2, 8635800, Note_on_c, 0, 69, 0
2, 8635800, Note_on_c, 0, 71, 100
2, 8635860, Note_on_c, 0, 71, 0
2, 8635860, Note_on_c, 0, 72, 100
2, 8635920, Note_on_c, 0, 72, 0
2, 8635920, Note_on_c, 0, 71, 100
2, 8636040, Note_on_c, 0, 71, 0
2, 8636040, Note_on_c, 0, 69, 100
2, 8636160, Note_on_c, 0, 69, 0
2, 8636160, Note_on_c, 0, 67, 100
2, 8636280, Note_on_c, 0, 67, 0
2, 8636280, Note_on_c, 0, 71, 100
2, 8636400, Note_on_c, 0, 71, 0
2, 8636400, Note_on_c, 0, 69, 100
2, 8636520, Note_on_c, 0, 69, 0
2, 8636520, Note_on_c, 0, 67, 100
2, 8636640, Note_on_c, 0, 67, 0
2, 8636640, Note_on_c, 0, 69, 100
2, 8636760, Note_on_c, 0, 69, 0
2, 8636760, Note_on_c, 0, 67, 100
2, 8636880, Note_on_c, 0, 67, 0
2, 8636880, Note_on_c, 0, 66, 100
2, 8637000, Note_on_c, 0, 66, 0
2, 8637000, Note_on_c, 0, 67, 100
2, 8637120, Note_on_c, 0, 67, 0
2, 8637120, Note_on_c, 0, 69, 100
2, 8637240, Note_on_c, 0, 69, 0
2, 8637240, Note_on_c, 0, 71, 100
2, 8637360, Note_on_c, 0, 71, 0
2, 8637360, Note_on_c, 0, 72, 100
2, 8637480, Note_on_c, 0, 72, 0
2, 8637480, Note_on_c, 0, 74, 100
2, 8637600, Note_on_c, 0, 74, 0
2, 8637600, Note_on_c, 0, 69, 100
2, 8637720, Note_on_c, 0, 69, 0
2, 8637720, Note_on_c, 0, 66, 100
2, 8637840, Note_on_c, 0, 66, 0
2, 8637840, Note_on_c, 0, 62, 100
2, 8637960, Note_on_c, 0, 62, 0
2, 8637960, Note_on_c, 0, 64, 100
2, 8638080, Note_on_c, 0, 64, 0
2, 8638080, Note_on_c, 0, 66, 100
2, 8638200, Note_on_c, 0, 66, 0
2, 8638200, Note_on_c, 0, 67, 100
2, 8638320, Note_on_c, 0, 67, 0
2, 8638320, Note_on_c, 0, 69, 100
2, 8638440, Note_on_c, 0, 69, 0
2, 8638440, Note_on_c, 0, 71, 100
2, 8638560, Note_on_c, 0, 71, 0
2, 8638560, Note_on_c, 0, 66, 100
2, 8638800, Note_on_c, 0, 66, 0
2, 8638800, Note_on_c, 0, 67, 100
2, 8639040, Note_on_c, 0, 67, 0
2, 8639040, Note_on_c, 0, 69, 100
2, 8639640, Note_on_c, 0, 69, 0
2, 8639640, Note_on_c, 0, 71, 100
2, 8639700, Note_on_c, 0, 71, 0
2, 8639700, Note_on_c, 0, 72, 100
2, 8639760, Note_on_c, 0, 72, 0
2, 8639760, Note_on_c, 0, 71, 100
2, 8639880, Note_on_c, 0, 71, 0
2, 8639880, Note_on_c, 0, 69, 100
2, 8640000, Note_on_c, 0, 69, 0
2, 8640000, Note_on_c, 0, 67, 100
2, 8640120, Note_on_c, 0, 67, 0
2, 8640120, Note_on_c, 0, 71, 100
2, 8640240, Note_on_c, 0, 71, 0
2, 8640240, Note_on_c, 0, 69, 100
2, 8640360, Note_on_c, 0, 69, 0
2, 8640360, Note_on_c, 0, 67, 100
2, 8640480, Note_on_c, 0, 67, 0
2, 8640480, Note_on_c, 0, 69, 100
2, 8640600, Note_on_c, 0, 69, 0
2, 8640600, Note_on_c, 0, 67, 100
2, 8640720, Note_on_c, 0, 67, 0
2, 8640720, Note_on_c, 0, 66, 100
2, 8640840, Note_on_c, 0, 66, 0
2, 8640840, Note_on_c, 0, 67, 100
2, 8640960, Note_on_c, 0, 67, 0
2, 8640960, Note_on_c, 0, 69, 100
2, 8641080, Note_on_c, 0, 69, 0
2, 8641080, Note_on_c, 0, 71, 100
2, 8641200, Note_on_c, 0, 71, 0
2, 8641200, Note_on_c, 0, 72, 100
2, 8641320, Note_on_c, 0, 72, 0
2, 8641320, Note_on_c, 0, 74, 100
2, 8641440, Note_on_c, 0, 74, 0
2, 8641440, Note_on_c, 0, 69, 100
2, 8641560, Note_on_c, 0, 69, 0
2, 8641560, Note_on_c, 0, 66, 100
2, 8641680, Note_on_c, 0, 66, 0
2, 8641680, Note_on_c, 0, 62, 100
2, 8641800, Note_on_c, 0, 62, 0
2, 8641800, Note_on_c, 0, 64, 100
2, 8641920, Note_on_c, 0, 64, 0
2, 8641920, Note_on_c, 0, 66, 100
2, 8642040, Note_on_c, 0, 66, 0
2, 8642040, Note_on_c, 0, 67, 100
2, 8642160, Note_on_c, 0, 67, 0
2, 8642160, Note_on_c, 0, 69, 100
2, 8642280, Note_on_c, 0, 69, 0
2, 8642280, Note_on_c, 0, 71, 100
2, 8642400, Note_on_c, 0, 71, 0
2, 8642400, Note_on_c, 0, 66, 100
2, 8642640, Note_on_c, 0, 66, 0
2, 8642640, Note_on_c, 0, 67, 100
2, 8642880, Note_on_c, 0, 67, 0
2, 8642880, Note_on_c, 0, 69, 100
2, 8643480, Note_on_c, 0, 69, 0
2, 8643480, Note_on_c, 0, 71, 100
2, 8643540, Note_on_c, 0, 71, 0
2, 8643540, Note_on_c, 0, 72, 100
2, 8643600, Note_on_c, 0, 72, 0
2, 8643600, Note_on_c, 0, 71, 100
2, 8643720, Note_on_c, 0, 71, 0
2, 8643720, Note_on_c, 0, 69, 100
2, 8643840, Note_on_c, 0, 69, 0
2, 8643840, Note_on_c, 0, 67, 100
2, 8643960, Note_on_c, 0, 67, 0
2, 8643960, Note_on_c, 0, 71, 100
2, 8644080, Note_on_c, 0, 71, 0
2, 8644080, Note_on_c, 0, 69, 100
2, 8644200, Note_on_c, 0, 69, 0
2, 8644200, Note_on_c, 0, 67, 100
2, 8644320, Note_on_c, 0, 67, 0
2, 8644320, Note_on_c, 0, 71, 100
2, 8695920, Note_on_c, 0, 71, 0
2, 8695920, Note_on_c, 0, 69, 100
2, 8696400, Note_on_c, 0, 69, 0
2, 8696400, Note_on_c, 0, 67, 100
2, 8696880, Note_on_c, 0, 67, 0
2, 8696880, Note_on_c, 0, 66, 100
2, 8697240, Note_on_c, 0, 66, 0
2, 8697240, Note_on_c, 0, 67, 100
2, 8697360, Note_on_c, 0, 67, 0
2, 8697360, Note_on_c, 0, 69, 100
2, 8697480, Note_on_c, 0, 69, 0
2, 8697480, Note_on_c, 0, 71, 100
2, 8697600, Note_on_c, 0, 71, 0
2, 8697600, Note_on_c, 0, 74, 100
2, 8697720, Note_on_c, 0, 74, 0
2, 8697720, Note_on_c, 0, 72, 100
2, 8697840, Note_on_c, 0, 72, 0
2, 8697840, Note_on_c, 0, 71, 100
2, 8697960, Note_on_c, 0, 71, 0
2, 8697960, Note_on_c, 0, 69, 100
2, 8698080, Note_on_c, 0, 69, 0
2, 8698080, Note_on_c, 0, 67, 100
2, 8698200, Note_on_c, 0, 67, 0
2, 8698200, Note_on_c, 0, 66, 100
2, 8698320, Note_on_c, 0, 66, 0
2, 8698320, Note_on_c, 0, 64, 100
2, 8698440, Note_on_c, 0, 64, 0
2, 8698440, Note_on_c, 0, 62, 100
2, 8698560, Note_on_c, 0, 62, 0
2, 8698560, Note_on_c, 0, 60, 100
2, 8698680, Note_on_c, 0, 60, 0
2, 8698680, Note_on_c, 0, 59, 100
2, 8698800, Note_on_c, 0, 59, 0
2, 8698800, Note_on_c, 0, 57, 100
2, 8698920, Note_on_c, 0, 57, 0
2, 8698920, Note_on_c, 0, 55, 100
2, 8699040, Note_on_c, 0, 55, 0
2, 8699040, Note_on_c, 0, 57, 100
2, 8699160, Note_on_c, 0, 57, 0
2, 8699160, Note_on_c, 0, 59, 100
2, 8699280, Note_on_c, 0, 59, 0
2, 8699280, Note_on_c, 0, 71, 100
2, 8699760, Note_on_c, 0, 71, 0
2, 8699760, Note_on_c, 0, 69, 100
2, 8700240, Note_on_c, 0, 69, 0
2, 8700240, Note_on_c, 0, 67, 100
2, 8700720, Note_on_c, 0, 67, 0
2, 8700720, Note_on_c, 0, 66, 100
2, 8701080, Note_on_c, 0, 66, 0
2, 8701080, Note_on_c, 0, 67, 100
2, 8701200, Note_on_c, 0, 67, 0
2, 8701200, Note_on_c, 0, 69, 100
2, 8701320, Note_on_c, 0, 69, 0
2, 8701320, Note_on_c, 0, 71, 100
2, 8701440, Note_on_c, 0, 71, 0
2, 8701440, Note_on_c, 0, 74, 100
2, 8701560, Note_on_c, 0, 74, 0
2, 8701560, Note_on_c, 0, 72, 100
2, 8701680, Note_on_c, 0, 72, 0
2, 8701680, Note_on_c, 0, 71, 100
2, 8701800, Note_on_c, 0, 71, 0
2, 8701800, Note_on_c, 0, 69, 100
2, 8701920, Note_on_c, 0, 69, 0
2, 8701920, Note_on_c, 0, 67, 100
2, 8702040, Note_on_c, 0, 67, 0
2, 8702040, Note_on_c, 0, 66, 100
2, 8702160, Note_on_c, 0, 66, 0
2, 8702160, Note_on_c, 0, 64, 100
2, 8702280, Note_on_c, 0, 64, 0
2, 8702280, Note_on_c, 0, 62, 100
2, 8702400, Note_on_c, 0, 62, 0
2, 8702400, Note_on_c, 0, 60, 100
2, 8702520, Note_on_c, 0, 60, 0
2, 8702520, Note_on_c, 0, 59, 100
2, 8702640, Note_on_c, 0, 59, 0
2, 8702640, Note_on_c, 0, 57, 100
2, 8702760, Note_on_c, 0, 57, 0
2, 8702760, Note_on_c, 0, 55, 100
2, 8702880, Note_on_c, 0, 55, 0
2, 8702880, Note_on_c, 0, 57, 100
2, 8703000, Note_on_c, 0, 57, 0
2, 8703000, Note_on_c, 0, 59, 100
2, 8703120, Note_on_c, 0, 59, 0
2, 8703120, Note_on_c, 0, 71, 100
2, 8703600, Note_on_c, 0, 71, 0
2, 8703600, Note_on_c, 0, 69, 100
2, 8704080, Note_on_c, 0, 69, 0
2, 8704080, Note_on_c, 0, 67, 100
2, 8704560, Note_on_c, 0, 67, 0
2, 8704560, Note_on_c, 0, 66, 100
2, 8704920, Note_on_c, 0, 66, 0
2, 8704920, Note_on_c, 0, 67, 100
2, 8705040, Note_on_c, 0, 67, 0
2, 8705040, Note_on_c, 0, 69, 100
2, 8705160, Note_on_c, 0, 69, 0
2, 8705160, Note_on_c, 0, 71, 100
2, 8705280, Note_on_c, 0, 71, 0
2, 8705280, Note_on_c, 0, 74, 100
2, 8705400, Note_on_c, 0, 74, 0
2, 8705400, Note_on_c, 0, 72, 100
2, 8705520, Note_on_c, 0, 72, 0
2, 8705520, Note_on_c, 0, 71, 100
2, 8705640, Note_on_c, 0, 71, 0
2, 8705640, Note_on_c, 0, 69, 100
2, 8705760, Note_on_c, 0, 69, 0
2, 8705760, Note_on_c, 0, 67, 100
2, 8705880, Note_on_c, 0, 67, 0
2, 8705880, Note_on_c, 0, 66, 100
2, 8706000, Note_on_c, 0, 66, 0
2, 8706000, Note_on_c, 0, 64, 100
2, 8706120, Note_on_c, 0, 64, 0
2, 8706120, Note_on_c, 0, 62, 100
2, 8706240, Note_on_c, 0, 62, 0
2, 8706240, Note_on_c, 0, 60, 100
2, 8706360, Note_on_c, 0, 60, 0
2, 8706360, Note_on_c, 0, 59, 100
2, 8706480, Note_on_c, 0, 59, 0
2, 8706480, Note_on_c, 0, 57, 100
2, 8706600, Note_on_c, 0, 57, 0
2, 8706600, Note_on_c, 0, 55, 100
2, 8706720, Note_on_c, 0, 55, 0
2, 8706720, Note_on_c, 0, 71, 100
2, 8708400, Note_on_c, 0, 71, 0
2, 8708400, Note_on_c, 0, 70, 100
2, 8708640, Note_on_c, 0, 70, 0
2, 8708640, Note_on_c, 0, 69, 100
2, 8708880, Note_on_c, 0, 69, 0
2, 8708880, Note_on_c, 0, 68, 100
2, 8709120, Note_on_c, 0, 68, 0
2, 8709120, Note_on_c, 0, 67, 100
2, 8709360, Note_on_c, 0, 67, 0
2, 8709360, Note_on_c, 0, 66, 100
2, 8709600, Note_on_c, 0, 66, 0
2, 8709600, Note_on_c, 0, 67, 100
2, 8709720, Note_on_c, 0, 67, 0
2, 8709720, Note_on_c, 0, 66, 100
2, 8709840, Note_on_c, 0, 66, 0
2, 8709840, Note_on_c, 0, 64, 100
2, 8709960, Note_on_c, 0, 64, 0
2, 8709960, Note_on_c, 0, 62, 100
2, 8710080, Note_on_c, 0, 62, 0
2, 8710080, Note_on_c, 0, 67, 100
2, 8710800, Note_on_c, 0, 67, 0
2, 8710800, Note_on_c, 0, 74, 100
2, 8711040, Note_on_c, 0, 74, 0
2, 8711040, Note_on_c, 0, 72, 100
2, 8711160, Note_on_c, 0, 72, 0
2, 8711160, Note_on_c, 0, 71, 100
2, 8711280, Note_on_c, 0, 71, 0
2, 8711280, Note_on_c, 0, 69, 100
2, 8711400, Note_on_c, 0, 69, 0
2, 8711400, Note_on_c, 0, 67, 100
2, 8711520, Note_on_c, 0, 67, 0
2, 8711520, Note_on_c, 0, 71, 100
2, 8712240, Note_on_c, 0, 71, 0
2, 8712240, Note_on_c, 0, 70, 100
2, 8712480, Note_on_c, 0, 70, 0
2, 8712480, Note_on_c, 0, 69, 100
2, 8712720, Note_on_c, 0, 69, 0
2, 8712720, Note_on_c, 0, 68, 100
2, 8712960, Note_on_c, 0, 68, 0
2, 8712960, Note_on_c, 0, 67, 100
2, 8713200, Note_on_c, 0, 67, 0
2, 8713200, Note_on_c, 0, 66, 100
2, 8713440, Note_on_c, 0, 66, 0
2, 8713440, Note_on_c, 0, 67, 100
2, 8713560, Note_on_c, 0, 67, 0
2, 8713560, Note_on_c, 0, 66, 100
2, 8713680, Note_on_c, 0, 66, 0
2, 8713680, Note_on_c, 0, 64, 100
2, 8713800, Note_on_c, 0, 64, 0
2, 8713800, Note_on_c, 0, 62, 100
2, 8713920, Note_on_c, 0, 62, 0
2, 8713920, Note_on_c, 0, 67, 100
2, 8714640, Note_on_c, 0, 67, 0
2, 8714640, Note_on_c, 0, 74, 100
2, 8714880, Note_on_c, 0, 74, 0
2, 8714880, Note_on_c, 0, 72, 100
2, 8715000, Note_on_c, 0, 72, 0
2, 8715000, Note_on_c, 0, 71, 100
2, 8715120, Note_on_c, 0, 71, 0
2, 8715120, Note_on_c, 0, 69, 100
2, 8715240, Note_on_c, 0, 69, 0
2, 8715240, Note_on_c, 0, 67, 100
2, 8715360, Note_on_c, 0, 67, 0
2, 8715360, Note_on_c, 0, 71, 100
2, 8716080, Note_on_c, 0, 71, 0
2, 8716080, Note_on_c, 0, 70, 100
2, 8716320, Note_on_c, 0, 70, 0
2, 8716320, Note_on_c, 0, 69, 100
2, 8716560, Note_on_c, 0, 69, 0
2, 8716560, Note_on_c, 0, 68, 100
2, 8716800, Note_on_c, 0, 68, 0
2, 8716800, Note_on_c, 0, 67, 100
2, 8717040, Note_on_c, 0, 67, 0
2, 8717040, Note_on_c, 0, 66, 100
2, 8717280, Note_on_c, 0, 66, 0
2, 8717280, Note_on_c, 0, 67, 100
2, 8717400, Note_on_c, 0, 67, 0
2, 8717400, Note_on_c, 0, 66, 100
2, 8717520, Note_on_c, 0, 66, 0
2, 8717520, Note_on_c, 0, 64, 100
2, 8717640, Note_on_c, 0, 64, 0
2, 8717640, Note_on_c, 0, 62, 100
2, 8717760, Note_on_c, 0, 62, 0
2, 8717760, Note_on_c, 0, 67, 100
2, 8718480, Note_on_c, 0, 67, 0
2, 8718480, Note_on_c, 0, 74, 100
2, 8718720, Note_on_c, 0, 74, 0
2, 8718720, Note_on_c, 0, 72, 100
2, 8718840, Note_on_c, 0, 72, 0
2, 8718840, Note_on_c, 0, 71, 100
2, 8718960, Note_on_c, 0, 71, 0
2, 8718960, Note_on_c, 0, 69, 100
2, 8719080, Note_on_c, 0, 69, 0
2, 8719080, Note_on_c, 0, 67, 100
2, 8719200, Note_on_c, 0, 67, 0
2, 8719200, Note_on_c, 0, 79, 100
2, 8720280, Note_on_c, 0, 79, 0
2, 8720280, Note_on_c, 0, 78, 100
2, 8720400, Note_on_c, 0, 78, 0
2, 8720400, Note_on_c, 0, 76, 100
2, 8720520, Note_on_c, 0, 76, 0
2, 8720520, Note_on_c, 0, 74, 100
2, 8720640, Note_on_c, 0, 74, 0
2, 8720640, Note_on_c, 0, 71, 100
2, 8720760, Note_on_c, 0, 71, 0
2, 8720760, Note_on_c, 0, 72, 100
2, 8720880, Note_on_c, 0, 72, 0
2, 8720880, Note_on_c, 0, 74, 100
2, 8721000, Note_on_c, 0, 74, 0
2, 8721000, Note_on_c, 0, 67, 100
2, 8721120, Note_on_c, 0, 67, 0
2, 8721120, Note_on_c, 0, 62, 100
2, 8721240, Note_on_c, 0, 62, 0
2, 8721240, Note_on_c, 0, 59, 100
2, 8721360, Note_on_c, 0, 59, 0
2, 8721360, Note_on_c, 0, 61, 100
2, 8721960, Note_on_c, 0, 61, 0
2, 8721960, Note_on_c, 0, 62, 100
2, 8722080, Note_on_c, 0, 62, 0
2, 8722080, Note_on_c, 0, 64, 100
2, 8722200, Note_on_c, 0, 64, 0
2, 8722200, Note_on_c, 0, 66, 100
2, 8722320, Note_on_c, 0, 66, 0
2, 8722320, Note_on_c, 0, 67, 100
2, 8722440, Note_on_c, 0, 67, 0
2, 8722440, Note_on_c, 0, 69, 100
2, 8722560, Note_on_c, 0, 69, 0
2, 8722560, Note_on_c, 0, 62, 100
2, 8722800, Note_on_c, 0, 62, 0
2, 8722800, Note_on_c, 0, 66, 100
2, 8723160, Note_on_c, 0, 66, 0
2, 8723160, Note_on_c, 0, 64, 100
2, 8723280, Note_on_c, 0, 64, 0
2, 8723280, Note_on_c, 0, 62, 100
2, 8723400, Note_on_c, 0, 62, 0
2, 8723400, Note_on_c, 0, 64, 100
2, 8723520, Note_on_c, 0, 64, 0
2, 8723520, Note_on_c, 0, 73, 100
2, 8723760, Note_on_c, 0, 73, 0
2, 8723760, Note_on_c, 0, 79, 100
2, 8724120, Note_on_c, 0, 79, 0
2, 8724120, Note_on_c, 0, 78, 100
2, 8724240, Note_on_c, 0, 78, 0
2, 8724240, Note_on_c, 0, 76, 100
2, 8724360, Note_on_c, 0, 76, 0
2, 8724360, Note_on_c, 0, 74, 100
2, 8724480, Note_on_c, 0, 74, 0
2, 8724480, Note_on_c, 0, 62, 100
2, 8724720, Note_on_c, 0, 62, 0
2, 8724720, Note_on_c, 0, 71, 100
2, 8725080, Note_on_c, 0, 71, 0
2, 8725080, Note_on_c, 0, 72, 100
2, 8725200, Note_on_c, 0, 72, 0
2, 8725200, Note_on_c, 0, 74, 100
2, 8725320, Note_on_c, 0, 74, 0
2, 8725320, Note_on_c, 0, 65, 100
2, 8725440, Note_on_c, 0, 65, 0
2, 8725440, Note_on_c, 0, 77, 100
2, 8725680, Note_on_c, 0, 77, 0
2, 8725680, Note_on_c, 0, 76, 100
2, 8726040, Note_on_c, 0, 76, 0
2, 8726040, Note_on_c, 0, 74, 100
2, 8726160, Note_on_c, 0, 74, 0
2, 8726160, Note_on_c, 0, 72, 100
2, 8726400, Note_on_c, 0, 72, 0
2, 8726400, Note_on_c, 0, 81, 100
2, 8726520, Note_on_c, 0, 81, 0
2, 8726520, Note_on_c, 0, 72, 100
2, 8726640, Note_on_c, 0, 72, 0
2, 8726640, Note_on_c, 0, 69, 100
2, 8727000, Note_on_c, 0, 69, 0
2, 8727000, Note_on_c, 0, 72, 100
2, 8727120, Note_on_c, 0, 72, 0
2, 8727120, Note_on_c, 0, 78, 100
2, 8727240, Note_on_c, 0, 78, 0
2, 8727240, Note_on_c, 0, 79, 100
2, 8727360, Note_on_c, 0, 79, 0
2, 8727360, Note_on_c, 0, 81, 100
2, 8727600, Note_on_c, 0, 81, 0
2, 8727600, Note_on_c, 0, 83, 100
2, 8727840, Note_on_c, 0, 83, 0
2, 8727840, Note_on_c, 0, 79, 100
2, 8727960, Note_on_c, 0, 79, 0
2, 8727960, Note_on_c, 0, 78, 100
2, 8728080, Note_on_c, 0, 78, 0
2, 8728080, Note_on_c, 0, 76, 100
2, 8728200, Note_on_c, 0, 76, 0
2, 8728200, Note_on_c, 0, 74, 100
2, 8728320, Note_on_c, 0, 74, 0
2, 8728320, Note_on_c, 0, 71, 100
2, 8728440, Note_on_c, 0, 71, 0
2, 8728440, Note_on_c, 0, 72, 100
2, 8728560, Note_on_c, 0, 72, 0
2, 8728560, Note_on_c, 0, 74, 100
2, 8728680, Note_on_c, 0, 74, 0
2, 8728680, Note_on_c, 0, 67, 100
2, 8728800, Note_on_c, 0, 67, 0
2, 8728800, Note_on_c, 0, 62, 100
2, 8728920, Note_on_c, 0, 62, 0
2, 8728920, Note_on_c, 0, 59, 100
2, 8729040, Note_on_c, 0, 59, 0
2, 8729040, Note_on_c, 0, 61, 100
2, 8729640, Note_on_c, 0, 61, 0
2, 8729640, Note_on_c, 0, 62, 100
2, 8729760, Note_on_c, 0, 62, 0
2, 8729760, Note_on_c, 0, 64, 100
2, 8729880, Note_on_c, 0, 64, 0
2, 8729880, Note_on_c, 0, 66, 100
2, 8730000, Note_on_c, 0, 66, 0
2, 8730000, Note_on_c, 0, 67, 100
2, 8730120, Note_on_c, 0, 67, 0
2, 8730120, Note_on_c, 0, 69, 100
2, 8730240, Note_on_c, 0, 69, 0
2, 8730240, Note_on_c, 0, 62, 100
2, 8730480, Note_on_c, 0, 62, 0
2, 8730480, Note_on_c, 0, 66, 100
2, 8730840, Note_on_c, 0, 66, 0
2, 8730840, Note_on_c, 0, 64, 100
2, 8730960, Note_on_c, 0, 64, 0
2, 8730960, Note_on_c, 0, 62, 100
2, 8731080, Note_on_c, 0, 62, 0
2, 8731080, Note_on_c, 0, 64, 100
2, 8731200, Note_on_c, 0, 64, 0
2, 8731200, Note_on_c, 0, 73, 100
2, 8731440, Note_on_c, 0, 73, 0
2, 8731440, Note_on_c, 0, 79, 100
2, 8731800, Note_on_c, 0, 79, 0
2, 8731800, Note_on_c, 0, 78, 100
2, 8731920, Note_on_c, 0, 78, 0
2, 8731920, Note_on_c, 0, 76, 100
2, 8732040, Note_on_c, 0, 76, 0
2, 8732040, Note_on_c, 0, 74, 100
2, 8732160, Note_on_c, 0, 74, 0
2, 8732160, Note_on_c, 0, 62, 100
2, 8732400, Note_on_c, 0, 62, 0
2, 8732400, Note_on_c, 0, 71, 100
2, 8732760, Note_on_c, 0, 71, 0
2, 8732760, Note_on_c, 0, 72, 100
2, 8732880, Note_on_c, 0, 72, 0
2, 8732880, Note_on_c, 0, 74, 100
2, 8733000, Note_on_c, 0, 74, 0
2, 8733000, Note_on_c, 0, 65, 100
2, 8733120, Note_on_c, 0, 65, 0
2, 8733120, Note_on_c, 0, 77, 100
2, 8733360, Note_on_c, 0, 77, 0
2, 8733360, Note_on_c, 0, 76, 100
2, 8733720, Note_on_c, 0, 76, 0
2, 8733720, Note_on_c, 0, 74, 100
2, 8733840, Note_on_c, 0, 74, 0
2, 8733840, Note_on_c, 0, 72, 100
2, 8734080, Note_on_c, 0, 72, 0
2, 8734080, Note_on_c, 0, 81, 100
2, 8734200, Note_on_c, 0, 81, 0
2, 8734200, Note_on_c, 0, 72, 100
2, 8734320, Note_on_c, 0, 72, 0
2, 8734320, Note_on_c, 0, 69, 100
2, 8734680, Note_on_c, 0, 69, 0
2, 8734680, Note_on_c, 0, 72, 100
2, 8734800, Note_on_c, 0, 72, 0
2, 8734800, Note_on_c, 0, 78, 100
2, 8734920, Note_on_c, 0, 78, 0
2, 8734920, Note_on_c, 0, 79, 100
2, 8735040, Note_on_c, 0, 79, 0
2, 8735040, Note_on_c, 0, 81, 100
2, 8735280, Note_on_c, 0, 81, 0
2, 8735280, Note_on_c, 0, 83, 100
2, 8735520, Note_on_c, 0, 83, 0
2, 8735520, Note_on_c, 0, 79, 100
2, 8735640, Note_on_c, 0, 79, 0
2, 8735640, Note_on_c, 0, 78, 100
2, 8735760, Note_on_c, 0, 78, 0
2, 8735760, Note_on_c, 0, 76, 100
2, 8735880, Note_on_c, 0, 76, 0
2, 8735880, Note_on_c, 0, 74, 100
2, 8736000, Note_on_c, 0, 74, 0
2, 8736000, Note_on_c, 0, 71, 100
2, 8736120, Note_on_c, 0, 71, 0
2, 8736120, Note_on_c, 0, 72, 100
2, 8736240, Note_on_c, 0, 72, 0
2, 8736240, Note_on_c, 0, 74, 100
2, 8736360, Note_on_c, 0, 74, 0
2, 8736360, Note_on_c, 0, 67, 100
2, 8736480, Note_on_c, 0, 67, 0
2, 8736480, Note_on_c, 0, 62, 100
2, 8736600, Note_on_c, 0, 62, 0
2, 8736600, Note_on_c, 0, 59, 100
2, 8736720, Note_on_c, 0, 59, 0
2, 8736720, Note_on_c, 0, 61, 100
2, 8737320, Note_on_c, 0, 61, 0
2, 8737320, Note_on_c, 0, 62, 100
2, 8737440, Note_on_c, 0, 62, 0
2, 8737440, Note_on_c, 0, 64, 100
2, 8737560, Note_on_c, 0, 64, 0
2, 8737560, Note_on_c, 0, 66, 100
2, 8737680, Note_on_c, 0, 66, 0
2, 8737680, Note_on_c, 0, 67, 100
2, 8737800, Note_on_c, 0, 67, 0
2, 8737800, Note_on_c, 0, 69, 100
2, 8737920, Note_on_c, 0, 69, 0
2, 8737920, Note_on_c, 0, 62, 100
2, 8738160, Note_on_c, 0, 62, 0
2, 8738160, Note_on_c, 0, 66, 100
2, 8738520, Note_on_c, 0, 66, 0
2, 8738520, Note_on_c, 0, 64, 100
2, 8738640, Note_on_c, 0, 64, 0
2, 8738640, Note_on_c, 0, 62, 100
2, 8738760, Note_on_c, 0, 62, 0
2, 8738760, Note_on_c, 0, 64, 100
2, 8738880, Note_on_c, 0, 64, 0
2, 8738880, Note_on_c, 0, 73, 100
2, 8739120, Note_on_c, 0, 73, 0
2, 8739120, Note_on_c, 0, 79, 100
2, 8739480, Note_on_c, 0, 79, 0
2, 8739480, Note_on_c, 0, 78, 100
2, 8739600, Note_on_c, 0, 78, 0
2, 8739600, Note_on_c, 0, 76, 100
2, 8739720, Note_on_c, 0, 76, 0
2, 8739720, Note_on_c, 0, 74, 100
2, 8739840, Note_on_c, 0, 74, 0
2, 8739840, Note_on_c, 0, 62, 100
2, 8743200, Note_on_c, 0, 62, 0
2, 8743200, Note_on_c, 0, 60, 100
2, 8744160, Note_on_c, 0, 60, 0
2, 8744160, Note_on_c, 0, 57, 100
2, 8744640, Note_on_c, 0, 57, 0
2, 8744640, Note_on_c, 0, 59, 100
2, 8745120, Note_on_c, 0, 59, 0
2, 8745120, Note_on_c, 0, 60, 100
2, 8746080, Note_on_c, 0, 60, 0
2, 8746080, Note_on_c, 0, 62, 100
2, 8747040, Note_on_c, 0, 62, 0
2, 8747040, Note_on_c, 0, 60, 100
2, 8748000, Note_on_c, 0, 60, 0
2, 8748000, Note_on_c, 0, 57, 100
2, 8748480, Note_on_c, 0, 57, 0
2, 8748480, Note_on_c, 0, 59, 100
2, 8748960, Note_on_c, 0, 59, 0
2, 8748960, Note_on_c, 0, 60, 100
2, 8749920, Note_on_c, 0, 60, 0
2, 8749920, Note_on_c, 0, 62, 100
2, 8750880, Note_on_c, 0, 62, 0
2, 8750880, Note_on_c, 0, 60, 100
2, 8751840, Note_on_c, 0, 60, 0
2, 8751840, Note_on_c, 0, 57, 100
2, 8752320, Note_on_c, 0, 57, 0
2, 8752320, Note_on_c, 0, 59, 100
2, 8752800, Note_on_c, 0, 59, 0
2, 8752800, Note_on_c, 0, 67, 100
2, 8755920, Note_on_c, 0, 67, 0
2, 8755920, Note_on_c, 0, 66, 100
2, 8756160, Note_on_c, 0, 66, 0
2, 8756160, Note_on_c, 0, 64, 100
2, 8756400, Note_on_c, 0, 64, 0
2, 8756400, Note_on_c, 0, 62, 100
2, 8756640, Note_on_c, 0, 62, 0
2, 8756640, Note_on_c, 0, 59, 100
2, 8756880, Note_on_c, 0, 59, 0
2, 8756880, Note_on_c, 0, 61, 100
2, 8757120, Note_on_c, 0, 61, 0
2, 8757120, Note_on_c, 0, 62, 100
2, 8757360, Note_on_c, 0, 62, 0
2, 8757360, Note_on_c, 0, 55, 100
2, 8757600, Note_on_c, 0, 55, 0
2, 8757600, Note_on_c, 0, 67, 100
2, 8758080, Note_on_c, 0, 67, 0
2, 8758080, Note_on_c, 0, 72, 100
2, 8758800, Note_on_c, 0, 72, 0
2, 8758800, Note_on_c, 0, 71, 100
2, 8759040, Note_on_c, 0, 71, 0
2, 8759040, Note_on_c, 0, 69, 100
2, 8759280, Note_on_c, 0, 69, 0
2, 8759280, Note_on_c, 0, 67, 100
2, 8759520, Note_on_c, 0, 67, 0
2, 8759520, Note_on_c, 0, 64, 100
2, 8759760, Note_on_c, 0, 64, 0
2, 8759760, Note_on_c, 0, 66, 100
2, 8760000, Note_on_c, 0, 66, 0
2, 8760000, Note_on_c, 0, 67, 100
2, 8760240, Note_on_c, 0, 67, 0
2, 8760240, Note_on_c, 0, 60, 100
2, 8760480, Note_on_c, 0, 60, 0
2, 8760480, Note_on_c, 0, 62, 100
2, 8760720, Note_on_c, 0, 62, 0
2, 8760720, Note_on_c, 0, 64, 100
2, 8760960, Note_on_c, 0, 64, 0
2, 8760960, Note_on_c, 0, 55, 100
2, 8761200, Note_on_c, 0, 55, 0
2, 8761200, Note_on_c, 0, 54, 100
2, 8761680, Note_on_c, 0, 54, 0
2, 8761680, Note_on_c, 0, 52, 100
2, 8761800, Note_on_c, 0, 52, 0
2, 8761800, Note_on_c, 0, 50, 100
2, 8761920, Note_on_c, 0, 50, 0
2, 8761920, Note_on_c, 0, 62, 100
2, 8762160, Note_on_c, 0, 62, 0
2, 8762160, Note_on_c, 0, 60, 100
2, 8762640, Note_on_c, 0, 60, 0
2, 8762640, Note_on_c, 0, 59, 100
2, 8762760, Note_on_c, 0, 59, 0
2, 8762760, Note_on_c, 0, 66, 100
2, 8762880, Note_on_c, 0, 66, 0
2, 8762880, Note_on_c, 0, 64, 100
2, 8763120, Note_on_c, 0, 64, 0
2, 8763120, Note_on_c, 0, 62, 100
2, 8763240, Note_on_c, 0, 62, 0
2, 8763240, Note_on_c, 0, 64, 100
2, 8763360, Note_on_c, 0, 64, 0
2, 8763360, Note_on_c, 0, 67, 100
2, 8763600, Note_on_c, 0, 67, 0
2, 8763600, Note_on_c, 0, 66, 100
2, 8763840, Note_on_c, 0, 66, 0
2, 8763840, Note_on_c, 0, 64, 100
2, 8764080, Note_on_c, 0, 64, 0
2, 8764080, Note_on_c, 0, 62, 100
2, 8764320, Note_on_c, 0, 62, 0
2, 8764320, Note_on_c, 0, 59, 100
2, 8764560, Note_on_c, 0, 59, 0
2, 8764560, Note_on_c, 0, 61, 100
2, 8764800, Note_on_c, 0, 61, 0
2, 8764800, Note_on_c, 0, 62, 100
2, 8765040, Note_on_c, 0, 62, 0
2, 8765040, Note_on_c, 0, 55, 100
2, 8765280, Note_on_c, 0, 55, 0
2, 8765280, Note_on_c, 0, 67, 100
2, 8765760, Note_on_c, 0, 67, 0
2, 8765760, Note_on_c, 0, 72, 100
2, 8766480, Note_on_c, 0, 72, 0
2, 8766480, Note_on_c, 0, 71, 100
2, 8766720, Note_on_c, 0, 71, 0
2, 8766720, Note_on_c, 0, 69, 100
2, 8766960, Note_on_c, 0, 69, 0
2, 8766960, Note_on_c, 0, 67, 100
2, 8767200, Note_on_c, 0, 67, 0
2, 8767200, Note_on_c, 0, 64, 100
2, 8767440, Note_on_c, 0, 64, 0
2, 8767440, Note_on_c, 0, 66, 100
2, 8767680, Note_on_c, 0, 66, 0
2, 8767680, Note_on_c, 0, 67, 100
2, 8767920, Note_on_c, 0, 67, 0
2, 8767920, Note_on_c, 0, 60, 100
2, 8768160, Note_on_c, 0, 60, 0
2, 8768160, Note_on_c, 0, 62, 100
2, 8768400, Note_on_c, 0, 62, 0
2, 8768400, Note_on_c, 0, 64, 100
2, 8768640, Note_on_c, 0, 64, 0
2, 8768640, Note_on_c, 0, 55, 100
2, 8768880, Note_on_c, 0, 55, 0
2, 8768880, Note_on_c, 0, 54, 100
2, 8769360, Note_on_c, 0, 54, 0
2, 8769360, Note_on_c, 0, 52, 100
2, 8769480, Note_on_c, 0, 52, 0
2, 8769480, Note_on_c, 0, 50, 100
2, 8769600, Note_on_c, 0, 50, 0
2, 8769600, Note_on_c, 0, 62, 100
2, 8769840, Note_on_c, 0, 62, 0
2, 8769840, Note_on_c, 0, 60, 100
2, 8770320, Note_on_c, 0, 60, 0
2, 8770320, Note_on_c, 0, 59, 100
2, 8770440, Note_on_c, 0, 59, 0
2, 8770440, Note_on_c, 0, 66, 100
2, 8770560, Note_on_c, 0, 66, 0
2, 8770560, Note_on_c, 0, 64, 100
2, 8770800, Note_on_c, 0, 64, 0
2, 8770800, Note_on_c, 0, 62, 100
2, 8770920, Note_on_c, 0, 62, 0
2, 8770920, Note_on_c, 0, 64, 100
2, 8771040, Note_on_c, 0, 64, 0
2, 8771040, Note_on_c, 0, 67, 100
2, 8771280, Note_on_c, 0, 67, 0
2, 8771280, Note_on_c, 0, 66, 100
2, 8771520, Note_on_c, 0, 66, 0
2, 8771520, Note_on_c, 0, 64, 100
2, 8771760, Note_on_c, 0, 64, 0
2, 8771760, Note_on_c, 0, 62, 100
2, 8772000, Note_on_c, 0, 62, 0
2, 8772000, Note_on_c, 0, 59, 100
2, 8772240, Note_on_c, 0, 59, 0
2, 8772240, Note_on_c, 0, 61, 100
2, 8772480, Note_on_c, 0, 61, 0
2, 8772480, Note_on_c, 0, 62, 100
2, 8772720, Note_on_c, 0, 62, 0
2, 8772720, Note_on_c, 0, 55, 100
2, 8772960, Note_on_c, 0, 55, 0
2, 8772960, Note_on_c, 0, 67, 100
2, 8773440, Note_on_c, 0, 67, 0
2, 8773440, Note_on_c, 0, 72, 100
2, 8774160, Note_on_c, 0, 72, 0
2, 8774160, Note_on_c, 0, 71, 100
2, 8774400, Note_on_c, 0, 71, 0
2, 8774400, Note_on_c, 0, 69, 100
2, 8774640, Note_on_c, 0, 69, 0
2, 8774640, Note_on_c, 0, 67, 100
2, 8774880, Note_on_c, 0, 67, 0
2, 8774880, Note_on_c, 0, 64, 100
2, 8775120, Note_on_c, 0, 64, 0
2, 8775120, Note_on_c, 0, 66, 100
2, 8775360, Note_on_c, 0, 66, 0
2, 8775360, Note_on_c, 0, 67, 100
2, 8775600, Note_on_c, 0, 67, 0
2, 8775600, Note_on_c, 0, 60, 100
2, 8775840, Note_on_c, 0, 60, 0
2, 8775840, Note_on_c, 0, 62, 100
2, 8776080, Note_on_c, 0, 62, 0
2, 8776080, Note_on_c, 0, 64, 100
2, 8776320, Note_on_c, 0, 64, 0
2, 8776320, Note_on_c, 0, 55, 100
2, 8776560, Note_on_c, 0, 55, 0
2, 8776560, Note_on_c, 0, 54, 100
2, 8777040, Note_on_c, 0, 54, 0
2, 8777040, Note_on_c, 0, 52, 100
2, 8777160, Note_on_c, 0, 52, 0
2, 8777160, Note_on_c, 0, 50, 100
2, 8777280, Note_on_c, 0, 50, 0
2, 8777280, Note_on_c, 0, 62, 100
2, 8777520, Note_on_c, 0, 62, 0
2, 8777520, Note_on_c, 0, 76, 100
2, 8778000, Note_on_c, 0, 76, 0
2, 8778000, Note_on_c, 0, 74, 100
2, 8778060, Note_on_c, 0, 74, 0
2, 8778060, Note_on_c, 0, 76, 100
2, 8778120, Note_on_c, 0, 76, 0
2, 8778120, Note_on_c, 0, 74, 100
2, 8778720, Note_on_c, 0, 74, 0
2, 8778720, Note_on_c, 0, 72, 100
2, 8778840, Note_on_c, 0, 72, 0
2, 8778840, Note_on_c, 0, 74, 100
2, 8778960, Note_on_c, 0, 74, 0
2, 8778960, Note_on_c, 0, 72, 100
2, 8779080, Note_on_c, 0, 72, 0
2, 8779080, Note_on_c, 0, 71, 100
2, 8779200, Note_on_c, 0, 71, 0
2, 8779200, Note_on_c, 0, 69, 100
2, 8779320, Note_on_c, 0, 69, 0
2, 8779320, Note_on_c, 0, 67, 100
2, 8779440, Note_on_c, 0, 67, 0
2, 8779440, Note_on_c, 0, 81, 100
2, 8780160, Note_on_c, 0, 81, 0
2, 8780160, Note_on_c, 0, 78, 100
2, 8780400, Note_on_c, 0, 78, 0
2, 8780400, Note_on_c, 0, 74, 100
2, 8781480, Note_on_c, 0, 74, 0
2, 8781480, Note_on_c, 0, 72, 100
2, 8781600, Note_on_c, 0, 72, 0
2, 8781600, Note_on_c, 0, 76, 100
2, 8781720, Note_on_c, 0, 76, 0
2, 8781720, Note_on_c, 0, 74, 100
2, 8781840, Note_on_c, 0, 74, 0
2, 8781840, Note_on_c, 0, 71, 100
2, 8782080, Note_on_c, 0, 71, 0
2, 8782080, Note_on_c, 0, 69, 100
2, 8782440, Note_on_c, 0, 69, 0
2, 8782440, Note_on_c, 0, 67, 100
2, 8782560, Note_on_c, 0, 67, 0
2, 8782560, Note_on_c, 0, 71, 100
2, 8782680, Note_on_c, 0, 71, 0
2, 8782680, Note_on_c, 0, 69, 100
2, 8782800, Note_on_c, 0, 69, 0
2, 8782800, Note_on_c, 0, 67, 100
2, 8783040, Note_on_c, 0, 67, 0
2, 8783040, Note_on_c, 0, 66, 100
2, 8783400, Note_on_c, 0, 66, 0
2, 8783400, Note_on_c, 0, 64, 100
2, 8783520, Note_on_c, 0, 64, 0
2, 8783520, Note_on_c, 0, 67, 100
2, 8783640, Note_on_c, 0, 67, 0
2, 8783640, Note_on_c, 0, 66, 100
2, 8783760, Note_on_c, 0, 66, 0
2, 8783760, Note_on_c, 0, 67, 100
2, 8785200, Note_on_c, 0, 67, 0
2, 8785200, Note_on_c, 0, 69, 100
2, 8785320, Note_on_c, 0, 69, 0
2, 8785320, Note_on_c, 0, 71, 100
2, 8785440, Note_on_c, 0, 71, 0
2, 8785440, Note_on_c, 0, 74, 100
2, 8785560, Note_on_c, 0, 74, 0
2, 8785560, Note_on_c, 0, 76, 100
2, 8785680, Note_on_c, 0, 76, 0
2, 8785680, Note_on_c, 0, 74, 100
2, 8786280, Note_on_c, 0, 74, 0
2, 8786280, Note_on_c, 0, 73, 100
2, 8786400, Note_on_c, 0, 73, 0
2, 8786400, Note_on_c, 0, 76, 100
2, 8786520, Note_on_c, 0, 76, 0
2, 8786520, Note_on_c, 0, 74, 100
2, 8786640, Note_on_c, 0, 74, 0
2, 8786640, Note_on_c, 0, 73, 100
2, 8786760, Note_on_c, 0, 73, 0
2, 8786760, Note_on_c, 0, 71, 100
2, 8786880, Note_on_c, 0, 71, 0
2, 8786880, Note_on_c, 0, 69, 100
2, 8787000, Note_on_c, 0, 69, 0
2, 8787000, Note_on_c, 0, 67, 100
2, 8787120, Note_on_c, 0, 67, 0
2, 8787120, Note_on_c, 0, 79, 100
2, 8787840, Note_on_c, 0, 79, 0
2, 8787840, Note_on_c, 0, 76, 100
2, 8788080, Note_on_c, 0, 76, 0
2, 8788080, Note_on_c, 0, 73, 100
2, 8788320, Note_on_c, 0, 73, 0
2, 8788320, Note_on_c, 0, 69, 100
2, 8789160, Note_on_c, 0, 69, 0
2, 8789160, Note_on_c, 0, 67, 100
2, 8789280, Note_on_c, 0, 67, 0
2, 8789280, Note_on_c, 0, 71, 100
2, 8789400, Note_on_c, 0, 71, 0
2, 8789400, Note_on_c, 0, 69, 100
2, 8789520, Note_on_c, 0, 69, 0
2, 8789520, Note_on_c, 0, 66, 100
2, 8789760, Note_on_c, 0, 66, 0
2, 8789760, Note_on_c, 0, 64, 100
2, 8790120, Note_on_c, 0, 64, 0
2, 8790120, Note_on_c, 0, 62, 100
2, 8790240, Note_on_c, 0, 62, 0
2, 8790240, Note_on_c, 0, 66, 100
2, 8790360, Note_on_c, 0, 66, 0
2, 8790360, Note_on_c, 0, 64, 100
2, 8790480, Note_on_c, 0, 64, 0
2, 8790480, Note_on_c, 0, 62, 100
2, 8790720, Note_on_c, 0, 62, 0
2, 8790720, Note_on_c, 0, 61, 100
2, 8791080, Note_on_c, 0, 61, 0
2, 8791080, Note_on_c, 0, 59, 100
2, 8791200, Note_on_c, 0, 59, 0
2, 8791200, Note_on_c, 0, 62, 100
2, 8791320, Note_on_c, 0, 62, 0
2, 8791320, Note_on_c, 0, 61, 100
2, 8791440, Note_on_c, 0, 61, 0
2, 8791440, Note_on_c, 0, 62, 100
2, 8791920, Note_on_c, 0, 62, 0
2, 8791920, Note_on_c, 0, 71, 100
2, 8792880, Note_on_c, 0, 71, 0
2, 8792880, Note_on_c, 0, 76, 100
2, 8793360, Note_on_c, 0, 76, 0
2, 8793360, Note_on_c, 0, 74, 100
2, 8793420, Note_on_c, 0, 74, 0
2, 8793420, Note_on_c, 0, 76, 100
2, 8793480, Note_on_c, 0, 76, 0
2, 8793480, Note_on_c, 0, 74, 100
2, 8794080, Note_on_c, 0, 74, 0
2, 8794080, Note_on_c, 0, 72, 100
2, 8794200, Note_on_c, 0, 72, 0
2, 8794200, Note_on_c, 0, 74, 100
2, 8794320, Note_on_c, 0, 74, 0
2, 8794320, Note_on_c, 0, 72, 100
2, 8794440, Note_on_c, 0, 72, 0
2, 8794440, Note_on_c, 0, 71, 100
2, 8794560, Note_on_c, 0, 71, 0
2, 8794560, Note_on_c, 0, 69, 100
2, 8794680, Note_on_c, 0, 69, 0
2, 8794680, Note_on_c, 0, 67, 100
2, 8794800, Note_on_c, 0, 67, 0
2, 8794800, Note_on_c, 0, 81, 100
2, 8795520, Note_on_c, 0, 81, 0
2, 8795520, Note_on_c, 0, 78, 100
2, 8795760, Note_on_c, 0, 78, 0
2, 8795760, Note_on_c, 0, 74, 100
2, 8796840, Note_on_c, 0, 74, 0
2, 8796840, Note_on_c, 0, 72, 100
2, 8796960, Note_on_c, 0, 72, 0
2, 8796960, Note_on_c, 0, 76, 100
2, 8797080, Note_on_c, 0, 76, 0
2, 8797080, Note_on_c, 0, 74, 100
2, 8797200, Note_on_c, 0, 74, 0
2, 8797200, Note_on_c, 0, 71, 100
2, 8797440, Note_on_c, 0, 71, 0
2, 8797440, Note_on_c, 0, 69, 100
2, 8797800, Note_on_c, 0, 69, 0
2, 8797800, Note_on_c, 0, 67, 100
2, 8797920, Note_on_c, 0, 67, 0
2, 8797920, Note_on_c, 0, 71, 100
2, 8798040, Note_on_c, 0, 71, 0
2, 8798040, Note_on_c, 0, 69, 100
2, 8798160, Note_on_c, 0, 69, 0
2, 8798160, Note_on_c, 0, 67, 100
2, 8798400, Note_on_c, 0, 67, 0
2, 8798400, Note_on_c, 0, 66, 100
2, 8798760, Note_on_c, 0, 66, 0
2, 8798760, Note_on_c, 0, 64, 100
2, 8798880, Note_on_c, 0, 64, 0
2, 8798880, Note_on_c, 0, 67, 100
2, 8799000, Note_on_c, 0, 67, 0
2, 8799000, Note_on_c, 0, 66, 100
2, 8799120, Note_on_c, 0, 66, 0
2, 8799120, Note_on_c, 0, 67, 100
2, 8800560, Note_on_c, 0, 67, 0
2, 8800560, Note_on_c, 0, 69, 100
2, 8800680, Note_on_c, 0, 69, 0
2, 8800680, Note_on_c, 0, 71, 100
2, 8800800, Note_on_c, 0, 71, 0
2, 8800800, Note_on_c, 0, 74, 100
2, 8800920, Note_on_c, 0, 74, 0
2, 8800920, Note_on_c, 0, 76, 100
2, 8801040, Note_on_c, 0, 76, 0
2, 8801040, Note_on_c, 0, 74, 100
2, 8801640, Note_on_c, 0, 74, 0
2, 8801640, Note_on_c, 0, 73, 100
2, 8801760, Note_on_c, 0, 73, 0
2, 8801760, Note_on_c, 0, 76, 100
2, 8801880, Note_on_c, 0, 76, 0
2, 8801880, Note_on_c, 0, 74, 100
2, 8802000, Note_on_c, 0, 74, 0
2, 8802000, Note_on_c, 0, 73, 100
2, 8802120, Note_on_c, 0, 73, 0
2, 8802120, Note_on_c, 0, 71, 100
2, 8802240, Note_on_c, 0, 71, 0
2, 8802240, Note_on_c, 0, 69, 100
2, 8802360, Note_on_c, 0, 69, 0
2, 8802360, Note_on_c, 0, 67, 100
2, 8802480, Note_on_c, 0, 67, 0
2, 8802480, Note_on_c, 0, 79, 100
2, 8803200, Note_on_c, 0, 79, 0
2, 8803200, Note_on_c, 0, 76, 100
2, 8803440, Note_on_c, 0, 76, 0
2, 8803440, Note_on_c, 0, 73, 100
2, 8803680, Note_on_c, 0, 73, 0
2, 8803680, Note_on_c, 0, 69, 100
2, 8804520, Note_on_c, 0, 69, 0
2, 8804520, Note_on_c, 0, 67, 100
2, 8804640, Note_on_c, 0, 67, 0
2, 8804640, Note_on_c, 0, 71, 100
2, 8804760, Note_on_c, 0, 71, 0
2, 8804760, Note_on_c, 0, 69, 100
2, 8804880, Note_on_c, 0, 69, 0
2, 8804880, Note_on_c, 0, 66, 100
2, 8805120, Note_on_c, 0, 66, 0
2, 8805120, Note_on_c, 0, 64, 100
2, 8805480, Note_on_c, 0, 64, 0
2, 8805480, Note_on_c, 0, 62, 100
2, 8805600, Note_on_c, 0, 62, 0
2, 8805600, Note_on_c, 0, 66, 100
2, 8805720, Note_on_c, 0, 66, 0
2, 8805720, Note_on_c, 0, 64, 100
2, 8805840, Note_on_c, 0, 64, 0
2, 8805840, Note_on_c, 0, 62, 100
2, 8806080, Note_on_c, 0, 62, 0
2, 8806080, Note_on_c, 0, 61, 100
2, 8806440, Note_on_c, 0, 61, 0
2, 8806440, Note_on_c, 0, 59, 100
2, 8806560, Note_on_c, 0, 59, 0
2, 8806560, Note_on_c, 0, 62, 100
2, 8806680, Note_on_c, 0, 62, 0
2, 8806680, Note_on_c, 0, 61, 100
2, 8806800, Note_on_c, 0, 61, 0
2, 8806800, Note_on_c, 0, 62, 100
2, 8807280, Note_on_c, 0, 62, 0
2, 8807280, Note_on_c, 0, 78, 100
2, 8808360, Note_on_c, 0, 78, 0
2, 8808360, Note_on_c, 0, 76, 100
2, 8808480, Note_on_c, 0, 76, 0
2, 8808480, Note_on_c, 0, 79, 100
2, 8808600, Note_on_c, 0, 79, 0
2, 8808600, Note_on_c, 0, 78, 100
2, 8808720, Note_on_c, 0, 78, 0
2, 8808720, Note_on_c, 0, 76, 100
2, 8808840, Note_on_c, 0, 76, 0
2, 8808840, Note_on_c, 0, 74, 100
2, 8808960, Note_on_c, 0, 74, 0
2, 8808960, Note_on_c, 0, 73, 100
2, 8809080, Note_on_c, 0, 73, 0
2, 8809080, Note_on_c, 0, 74, 100
2, 8809200, Note_on_c, 0, 74, 0
2, 8809200, Note_on_c, 0, 71, 100
2, 8809920, Note_on_c, 0, 71, 0
2, 8809920, Note_on_c, 0, 67, 100
2, 8810160, Note_on_c, 0, 67, 0
2, 8810160, Note_on_c, 0, 64, 100
2, 8810400, Note_on_c, 0, 64, 0
2, 8810400, Note_on_c, 0, 69, 100
2, 8810640, Note_on_c, 0, 69, 0
2, 8810640, Note_on_c, 0, 67, 100
2, 8811240, Note_on_c, 0, 67, 0
2, 8811240, Note_on_c, 0, 66, 100
2, 8811360, Note_on_c, 0, 66, 0
2, 8811360, Note_on_c, 0, 69, 100
2, 8811480, Note_on_c, 0, 69, 0
2, 8811480, Note_on_c, 0, 67, 100
2, 8811600, Note_on_c, 0, 67, 0
2, 8811600, Note_on_c, 0, 66, 100
2, 8811720, Note_on_c, 0, 66, 0
2, 8811720, Note_on_c, 0, 64, 100
2, 8811840, Note_on_c, 0, 64, 0
2, 8811840, Note_on_c, 0, 63, 100
2, 8811960, Note_on_c, 0, 63, 0
2, 8811960, Note_on_c, 0, 64, 100
2, 8812080, Note_on_c, 0, 64, 0
2, 8812080, Note_on_c, 0, 71, 100
2, 8812200, Note_on_c, 0, 71, 0
2, 8812200, Note_on_c, 0, 69, 100
2, 8812320, Note_on_c, 0, 69, 0
2, 8812320, Note_on_c, 0, 72, 100
2, 8812440, Note_on_c, 0, 72, 0
2, 8812440, Note_on_c, 0, 71, 100
2, 8812560, Note_on_c, 0, 71, 0
2, 8812560, Note_on_c, 0, 67, 100
2, 8812800, Note_on_c, 0, 67, 0
2, 8812800, Note_on_c, 0, 66, 100
2, 8813160, Note_on_c, 0, 66, 0
2, 8813160, Note_on_c, 0, 64, 100
2, 8813280, Note_on_c, 0, 64, 0
2, 8813280, Note_on_c, 0, 67, 100
2, 8813400, Note_on_c, 0, 67, 0
2, 8813400, Note_on_c, 0, 66, 100
2, 8813520, Note_on_c, 0, 66, 0
2, 8813520, Note_on_c, 0, 64, 100
2, 8813760, Note_on_c, 0, 64, 0
2, 8813760, Note_on_c, 0, 63, 100
2, 8814120, Note_on_c, 0, 63, 0
2, 8814120, Note_on_c, 0, 61, 100
2, 8814240, Note_on_c, 0, 61, 0
2, 8814240, Note_on_c, 0, 64, 100
2, 8814360, Note_on_c, 0, 64, 0
2, 8814360, Note_on_c, 0, 63, 100
2, 8814480, Note_on_c, 0, 63, 0
2, 8814480, Note_on_c, 0, 64, 100
2, 8814960, Note_on_c, 0, 64, 0
2, 8814960, Note_on_c, 0, 71, 100
2, 8815440, Note_on_c, 0, 71, 0
2, 8815440, Note_on_c, 0, 69, 100
2, 8816040, Note_on_c, 0, 69, 0
2, 8816040, Note_on_c, 0, 67, 100
2, 8816160, Note_on_c, 0, 67, 0
2, 8816160, Note_on_c, 0, 71, 100
2, 8816280, Note_on_c, 0, 71, 0
2, 8816280, Note_on_c, 0, 69, 100
2, 8816400, Note_on_c, 0, 69, 0
2, 8816400, Note_on_c, 0, 67, 100
2, 8816520, Note_on_c, 0, 67, 0
2, 8816520, Note_on_c, 0, 66, 100
2, 8816640, Note_on_c, 0, 66, 0
2, 8816640, Note_on_c, 0, 64, 100
2, 8816760, Note_on_c, 0, 64, 0
2, 8816760, Note_on_c, 0, 62, 100
2, 8816880, Note_on_c, 0, 62, 0
2, 8816880, Note_on_c, 0, 67, 100
2, 8817360, Note_on_c, 0, 67, 0
2, 8817360, Note_on_c, 0, 66, 100
2, 8817960, Note_on_c, 0, 66, 0
2, 8817960, Note_on_c, 0, 64, 100
2, 8818080, Note_on_c, 0, 64, 0
2, 8818080, Note_on_c, 0, 67, 100
2, 8818200, Note_on_c, 0, 67, 0
2, 8818200, Note_on_c, 0, 66, 100
2, 8818320, Note_on_c, 0, 66, 0
2, 8818320, Note_on_c, 0, 64, 100
2, 8818440, Note_on_c, 0, 64, 0
2, 8818440, Note_on_c, 0, 62, 100
2, 8818560, Note_on_c, 0, 62, 0
2, 8818560, Note_on_c, 0, 60, 100
2, 8818680, Note_on_c, 0, 60, 0
2, 8818680, Note_on_c, 0, 62, 100
2, 8818800, Note_on_c, 0, 62, 0
2, 8818800, Note_on_c, 0, 74, 100
2, 8819760, Note_on_c, 0, 74, 0
2, 8819760, Note_on_c, 0, 77, 100
2, 8820240, Note_on_c, 0, 77, 0
2, 8820240, Note_on_c, 0, 76, 100
2, 8820840, Note_on_c, 0, 76, 0
2, 8820840, Note_on_c, 0, 74, 100
2, 8820960, Note_on_c, 0, 74, 0
2, 8820960, Note_on_c, 0, 77, 100
2, 8821080, Note_on_c, 0, 77, 0
2, 8821080, Note_on_c, 0, 76, 100
2, 8821200, Note_on_c, 0, 76, 0
2, 8821200, Note_on_c, 0, 79, 100
2, 8821320, Note_on_c, 0, 79, 0
2, 8821320, Note_on_c, 0, 78, 100
2, 8821440, Note_on_c, 0, 78, 0
2, 8821440, Note_on_c, 0, 79, 100
2, 8821560, Note_on_c, 0, 79, 0
2, 8821560, Note_on_c, 0, 81, 100
2, 8821680, Note_on_c, 0, 81, 0
2, 8821680, Note_on_c, 0, 74, 100
2, 8821920, Note_on_c, 0, 74, 0
2, 8821920, Note_on_c, 0, 72, 100
2, 8822280, Note_on_c, 0, 72, 0
2, 8822280, Note_on_c, 0, 71, 100
2, 8822400, Note_on_c, 0, 71, 0
2, 8822400, Note_on_c, 0, 69, 100
2, 8822520, Note_on_c, 0, 69, 0
2, 8822520, Note_on_c, 0, 71, 100
2, 8822640, Note_on_c, 0, 71, 0
2, 8822640, Note_on_c, 0, 78, 100
2, 8823720, Note_on_c, 0, 78, 0
2, 8823720, Note_on_c, 0, 76, 100
2, 8823840, Note_on_c, 0, 76, 0
2, 8823840, Note_on_c, 0, 79, 100
2, 8823960, Note_on_c, 0, 79, 0
2, 8823960, Note_on_c, 0, 78, 100
2, 8824080, Note_on_c, 0, 78, 0
2, 8824080, Note_on_c, 0, 76, 100
2, 8824200, Note_on_c, 0, 76, 0
2, 8824200, Note_on_c, 0, 74, 100
2, 8824320, Note_on_c, 0, 74, 0
2, 8824320, Note_on_c, 0, 73, 100
2, 8824440, Note_on_c, 0, 73, 0
2, 8824440, Note_on_c, 0, 74, 100
2, 8824560, Note_on_c, 0, 74, 0
2, 8824560, Note_on_c, 0, 71, 100
2, 8825280, Note_on_c, 0, 71, 0
2, 8825280, Note_on_c, 0, 67, 100
2, 8825520, Note_on_c, 0, 67, 0
2, 8825520, Note_on_c, 0, 64, 100
2, 8825760, Note_on_c, 0, 64, 0
2, 8825760, Note_on_c, 0, 69, 100
2, 8826000, Note_on_c, 0, 69, 0
2, 8826000, Note_on_c, 0, 67, 100
2, 8826600, Note_on_c, 0, 67, 0
2, 8826600, Note_on_c, 0, 66, 100
2, 8826720, Note_on_c, 0, 66, 0
2, 8826720, Note_on_c, 0, 69, 100
2, 8826840, Note_on_c, 0, 69, 0
2, 8826840, Note_on_c, 0, 67, 100
2, 8826960, Note_on_c, 0, 67, 0
2, 8826960, Note_on_c, 0, 66, 100
2, 8827080, Note_on_c, 0, 66, 0
2, 8827080, Note_on_c, 0, 64, 100
2, 8827200, Note_on_c, 0, 64, 0
2, 8827200, Note_on_c, 0, 63, 100
2, 8827320, Note_on_c, 0, 63, 0
2, 8827320, Note_on_c, 0, 64, 100
2, 8827440, Note_on_c, 0, 64, 0
2, 8827440, Note_on_c, 0, 71, 100
2, 8827560, Note_on_c, 0, 71, 0
2, 8827560, Note_on_c, 0, 69, 100
2, 8827680, Note_on_c, 0, 69, 0
2, 8827680, Note_on_c, 0, 72, 100
2, 8827800, Note_on_c, 0, 72, 0
2, 8827800, Note_on_c, 0, 71, 100
2, 8827920, Note_on_c, 0, 71, 0
2, 8827920, Note_on_c, 0, 67, 100
2, 8828160, Note_on_c, 0, 67, 0
2, 8828160, Note_on_c, 0, 66, 100
2, 8828520, Note_on_c, 0, 66, 0
2, 8828520, Note_on_c, 0, 64, 100
2, 8828640, Note_on_c, 0, 64, 0
2, 8828640, Note_on_c, 0, 67, 100
2, 8828760, Note_on_c, 0, 67, 0
2, 8828760, Note_on_c, 0, 66, 100
2, 8828880, Note_on_c, 0, 66, 0
2, 8828880, Note_on_c, 0, 64, 100
2, 8829120, Note_on_c, 0, 64, 0
2, 8829120, Note_on_c, 0, 63, 100
2, 8829480, Note_on_c, 0, 63, 0
2, 8829480, Note_on_c, 0, 61, 100
2, 8829600, Note_on_c, 0, 61, 0
2, 8829600, Note_on_c, 0, 64, 100
2, 8829720, Note_on_c, 0, 64, 0
2, 8829720, Note_on_c, 0, 63, 100
2, 8829840, Note_on_c, 0, 63, 0
2, 8829840, Note_on_c, 0, 64, 100
2, 8830320, Note_on_c, 0, 64, 0
2, 8830320, Note_on_c, 0, 71, 100
2, 8830800, Note_on_c, 0, 71, 0
2, 8830800, Note_on_c, 0, 69, 100
2, 8831400, Note_on_c, 0, 69, 0
2, 8831400, Note_on_c, 0, 67, 100
2, 8831520, Note_on_c, 0, 67, 0
2, 8831520, Note_on_c, 0, 71, 100
2, 8831640, Note_on_c, 0, 71, 0
2, 8831640, Note_on_c, 0, 69, 100
2, 8831760, Note_on_c, 0, 69, 0
2, 8831760, Note_on_c, 0, 67, 100
2, 8831880, Note_on_c, 0, 67, 0
2, 8831880, Note_on_c, 0, 66, 100
2, 8832000, Note_on_c, 0, 66, 0
2, 8832000, Note_on_c, 0, 64, 100
2, 8832120, Note_on_c, 0, 64, 0
2, 8832120, Note_on_c, 0, 62, 100
2, 8832240, Note_on_c, 0, 62, 0
2, 8832240, Note_on_c, 0, 67, 100
2, 8832720, Note_on_c, 0, 67, 0
2, 8832720, Note_on_c, 0, 66, 100
2, 8833320, Note_on_c, 0, 66, 0
2, 8833320, Note_on_c, 0, 64, 100
2, 8833440, Note_on_c, 0, 64, 0
2, 8833440, Note_on_c, 0, 67, 100
2, 8833560, Note_on_c, 0, 67, 0
2, 8833560, Note_on_c, 0, 66, 100
2, 8833680, Note_on_c, 0, 66, 0
2, 8833680, Note_on_c, 0, 64, 100
2, 8833800, Note_on_c, 0, 64, 0
2, 8833800, Note_on_c, 0, 62, 100
2, 8833920, Note_on_c, 0, 62, 0
2, 8833920, Note_on_c, 0, 60, 100
2, 8834040, Note_on_c, 0, 60, 0
2, 8834040, Note_on_c, 0, 62, 100
2, 8834160, Note_on_c, 0, 62, 0
2, 8834160, Note_on_c, 0, 74, 100
2, 8835120, Note_on_c, 0, 74, 0
2, 8835120, Note_on_c, 0, 77, 100
2, 8835600, Note_on_c, 0, 77, 0
2, 8835600, Note_on_c, 0, 76, 100
2, 8836200, Note_on_c, 0, 76, 0
2, 8836200, Note_on_c, 0, 74, 100
2, 8836320, Note_on_c, 0, 74, 0
2, 8836320, Note_on_c, 0, 77, 100
2, 8836440, Note_on_c, 0, 77, 0
2, 8836440, Note_on_c, 0, 76, 100
2, 8836560, Note_on_c, 0, 76, 0
2, 8836560, Note_on_c, 0, 79, 100
2, 8836680, Note_on_c, 0, 79, 0
2, 8836680, Note_on_c, 0, 78, 100
2, 8836800, Note_on_c, 0, 78, 0
2, 8836800, Note_on_c, 0, 79, 100
2, 8836920, Note_on_c, 0, 79, 0
2, 8836920, Note_on_c, 0, 81, 100
2, 8837040, Note_on_c, 0, 81, 0
2, 8837040, Note_on_c, 0, 74, 100
2, 8837280, Note_on_c, 0, 74, 0
2, 8837280, Note_on_c, 0, 72, 100
2, 8837640, Note_on_c, 0, 72, 0
2, 8837640, Note_on_c, 0, 71, 100
2, 8837760, Note_on_c, 0, 71, 0
2, 8837760, Note_on_c, 0, 69, 100
2, 8837880, Note_on_c, 0, 69, 0
2, 8837880, Note_on_c, 0, 71, 100
2, 8841840, Note_on_c, 0, 71, 0
2, 8841840, Note_on_c, 0, 72, 100
2, 8842680, Note_on_c, 0, 72, 0
2, 8842680, Note_on_c, 0, 74, 100
2, 8842800, Note_on_c, 0, 74, 0
2, 8842800, Note_on_c, 0, 72, 100
2, 8842920, Note_on_c, 0, 72, 0
2, 8842920, Note_on_c, 0, 74, 100
2, 8843040, Note_on_c, 0, 74, 0
2, 8843040, Note_on_c, 0, 76, 100
2, 8843160, Note_on_c, 0, 76, 0
2, 8843160, Note_on_c, 0, 69, 100
2, 8843280, Note_on_c, 0, 69, 0
2, 8843280, Note_on_c, 0, 71, 100
2, 8844120, Note_on_c, 0, 71, 0
2, 8844120, Note_on_c, 0, 72, 100
2, 8844240, Note_on_c, 0, 72, 0
2, 8844240, Note_on_c, 0, 71, 100
2, 8844360, Note_on_c, 0, 71, 0
2, 8844360, Note_on_c, 0, 72, 100
2, 8844480, Note_on_c, 0, 72, 0
2, 8844480, Note_on_c, 0, 74, 100
2, 8844600, Note_on_c, 0, 74, 0
2, 8844600, Note_on_c, 0, 67, 100
2, 8844720, Note_on_c, 0, 67, 0
2, 8844720, Note_on_c, 0, 79, 100
2, 8845440, Note_on_c, 0, 79, 0
2, 8845440, Note_on_c, 0, 81, 100
2, 8846400, Note_on_c, 0, 81, 0
2, 8846400, Note_on_c, 0, 79, 100
2, 8846520, Note_on_c, 0, 79, 0
2, 8846520, Note_on_c, 0, 78, 100
2, 8846640, Note_on_c, 0, 78, 0
2, 8846640, Note_on_c, 0, 79, 100
2, 8846760, Note_on_c, 0, 79, 0
2, 8846760, Note_on_c, 0, 81, 100
2, 8846880, Note_on_c, 0, 81, 0
2, 8846880, Note_on_c, 0, 74, 100
2, 8847840, Note_on_c, 0, 74, 0
2, 8847840, Note_on_c, 0, 72, 100
2, 8847960, Note_on_c, 0, 72, 0
2, 8847960, Note_on_c, 0, 71, 100
2, 8848080, Note_on_c, 0, 71, 0
2, 8848080, Note_on_c, 0, 69, 100
2, 8848200, Note_on_c, 0, 69, 0
2, 8848200, Note_on_c, 0, 71, 100
2, 8848320, Note_on_c, 0, 71, 0
2, 8848320, Note_on_c, 0, 72, 100
2, 8848560, Note_on_c, 0, 72, 0
2, 8848560, Note_on_c, 0, 71, 100
2, 8848680, Note_on_c, 0, 71, 0
2, 8848680, Note_on_c, 0, 69, 100
2, 8848800, Note_on_c, 0, 69, 0
2, 8848800, Note_on_c, 0, 71, 100
2, 8848920, Note_on_c, 0, 71, 0
2, 8848920, Note_on_c, 0, 67, 100
2, 8849040, Note_on_c, 0, 67, 0
2, 8849040, Note_on_c, 0, 76, 100
2, 8849280, Note_on_c, 0, 76, 0
2, 8849280, Note_on_c, 0, 74, 100
2, 8849520, Note_on_c, 0, 74, 0
2, 8849520, Note_on_c, 0, 72, 100
2, 8849760, Note_on_c, 0, 72, 0
2, 8849760, Note_on_c, 0, 78, 100
2, 8850000, Note_on_c, 0, 78, 0
2, 8850000, Note_on_c, 0, 81, 100
2, 8850240, Note_on_c, 0, 81, 0
2, 8850240, Note_on_c, 0, 71, 100
2, 8850480, Note_on_c, 0, 71, 0
2, 8850480, Note_on_c, 0, 79, 100
2, 8851200, Note_on_c, 0, 79, 0
2, 8851200, Note_on_c, 0, 78, 100
2, 8851680, Note_on_c, 0, 78, 0
2, 8851680, Note_on_c, 0, 83, 100
2, 8852400, Note_on_c, 0, 83, 0
2, 8852400, Note_on_c, 0, 81, 100
2, 8852640, Note_on_c, 0, 81, 0
2, 8852640, Note_on_c, 0, 74, 100
2, 8853120, Note_on_c, 0, 74, 0
2, 8853120, Note_on_c, 0, 76, 100
2, 8853480, Note_on_c, 0, 76, 0
2, 8853480, Note_on_c, 0, 74, 100
2, 8853600, Note_on_c, 0, 74, 0
2, 8853600, Note_on_c, 0, 72, 100
2, 8853720, Note_on_c, 0, 72, 0
2, 8853720, Note_on_c, 0, 71, 100
2, 8853840, Note_on_c, 0, 71, 0
2, 8853840, Note_on_c, 0, 76, 100
2, 8854080, Note_on_c, 0, 76, 0
2, 8854080, Note_on_c, 0, 71, 100
2, 8854320, Note_on_c, 0, 71, 0
2, 8854320, Note_on_c, 0, 74, 100
2, 8854560, Note_on_c, 0, 74, 0
2, 8854560, Note_on_c, 0, 73, 100
2, 8854800, Note_on_c, 0, 73, 0
2, 8854800, Note_on_c, 0, 74, 100
2, 8855040, Note_on_c, 0, 74, 0
2, 8855040, Note_on_c, 0, 76, 100
2, 8855280, Note_on_c, 0, 76, 0
2, 8855280, Note_on_c, 0, 73, 100
2, 8855760, Note_on_c, 0, 73, 0
2, 8855760, Note_on_c, 0, 69, 100
2, 8856000, Note_on_c, 0, 69, 0
2, 8856000, Note_on_c, 0, 74, 100
2, 8856720, Note_on_c, 0, 74, 0
2, 8856720, Note_on_c, 0, 67, 100
2, 8856960, Note_on_c, 0, 67, 0
2, 8856960, Note_on_c, 0, 66, 100
2, 8857920, Note_on_c, 0, 66, 0
2, 8857920, Note_on_c, 0, 67, 100
2, 8858160, Note_on_c, 0, 67, 0
2, 8858160, Note_on_c, 0, 64, 100
2, 8858400, Note_on_c, 0, 64, 0
2, 8858400, Note_on_c, 0, 69, 100
2, 8858640, Note_on_c, 0, 69, 0
2, 8858640, Note_on_c, 0, 67, 100
2, 8858760, Note_on_c, 0, 67, 0
2, 8858760, Note_on_c, 0, 66, 100
2, 8858880, Note_on_c, 0, 66, 0
2, 8858880, Note_on_c, 0, 64, 100
2, 8859000, Note_on_c, 0, 64, 0
2, 8859000, Note_on_c, 0, 62, 100
2, 8859120, Note_on_c, 0, 62, 0
2, 8859120, Note_on_c, 0, 64, 100
2, 8859360, Note_on_c, 0, 64, 0
2, 8859360, Note_on_c, 0, 66, 100
2, 8859480, Note_on_c, 0, 66, 0
2, 8859480, Note_on_c, 0, 67, 100
2, 8859600, Note_on_c, 0, 67, 0
2, 8859600, Note_on_c, 0, 69, 100
2, 8859720, Note_on_c, 0, 69, 0
2, 8859720, Note_on_c, 0, 71, 100
2, 8859840, Note_on_c, 0, 71, 0
2, 8859840, Note_on_c, 0, 74, 100
2, 8860080, Note_on_c, 0, 74, 0
2, 8860080, Note_on_c, 0, 73, 100
2, 8860320, Note_on_c, 0, 73, 0
2, 8860320, Note_on_c, 0, 74, 100
2, 8860560, Note_on_c, 0, 74, 0
2, 8860560, Note_on_c, 0, 71, 100
2, 8864880, Note_on_c, 0, 71, 0
2, 8864880, Note_on_c, 0, 72, 100
2, 8865720, Note_on_c, 0, 72, 0
2, 8865720, Note_on_c, 0, 74, 100
2, 8865840, Note_on_c, 0, 74, 0
2, 8865840, Note_on_c, 0, 72, 100
2, 8865960, Note_on_c, 0, 72, 0
2, 8865960, Note_on_c, 0, 74, 100
2, 8866080, Note_on_c, 0, 74, 0
2, 8866080, Note_on_c, 0, 76, 100
2, 8866200, Note_on_c, 0, 76, 0
2, 8866200, Note_on_c, 0, 69, 100
2, 8866320, Note_on_c, 0, 69, 0
2, 8866320, Note_on_c, 0, 71, 100
2, 8867160, Note_on_c, 0, 71, 0
2, 8867160, Note_on_c, 0, 72, 100
2, 8867280, Note_on_c, 0, 72, 0
2, 8867280, Note_on_c, 0, 71, 100
2, 8867400, Note_on_c, 0, 71, 0
2, 8867400, Note_on_c, 0, 72, 100
2, 8867520, Note_on_c, 0, 72, 0
2, 8867520, Note_on_c, 0, 74, 100
2, 8867640, Note_on_c, 0, 74, 0
2, 8867640, Note_on_c, 0, 67, 100
2, 8867760, Note_on_c, 0, 67, 0
2, 8867760, Note_on_c, 0, 79, 100
2, 8868480, Note_on_c, 0, 79, 0
2, 8868480, Note_on_c, 0, 81, 100
2, 8869440, Note_on_c, 0, 81, 0
2, 8869440, Note_on_c, 0, 79, 100
2, 8869560, Note_on_c, 0, 79, 0
2, 8869560, Note_on_c, 0, 78, 100
2, 8869680, Note_on_c, 0, 78, 0
2, 8869680, Note_on_c, 0, 79, 100
2, 8869800, Note_on_c, 0, 79, 0
2, 8869800, Note_on_c, 0, 81, 100
2, 8869920, Note_on_c, 0, 81, 0
2, 8869920, Note_on_c, 0, 74, 100
2, 8870880, Note_on_c, 0, 74, 0
2, 8870880, Note_on_c, 0, 72, 100
2, 8871000, Note_on_c, 0, 72, 0
2, 8871000, Note_on_c, 0, 71, 100
2, 8871120, Note_on_c, 0, 71, 0
2, 8871120, Note_on_c, 0, 69, 100
2, 8871240, Note_on_c, 0, 69, 0
2, 8871240, Note_on_c, 0, 71, 100
2, 8871360, Note_on_c, 0, 71, 0
2, 8871360, Note_on_c, 0, 72, 100
2, 8871600, Note_on_c, 0, 72, 0
2, 8871600, Note_on_c, 0, 71, 100
2, 8871720, Note_on_c, 0, 71, 0
2, 8871720, Note_on_c, 0, 69, 100
2, 8871840, Note_on_c, 0, 69, 0
2, 8871840, Note_on_c, 0, 71, 100
2, 8871960, Note_on_c, 0, 71, 0
2, 8871960, Note_on_c, 0, 67, 100
2, 8872080, Note_on_c, 0, 67, 0
2, 8872080, Note_on_c, 0, 76, 100
2, 8872320, Note_on_c, 0, 76, 0
2, 8872320, Note_on_c, 0, 74, 100
2, 8872560, Note_on_c, 0, 74, 0
2, 8872560, Note_on_c, 0, 72, 100
2, 8872800, Note_on_c, 0, 72, 0
2, 8872800, Note_on_c, 0, 78, 100
2, 8873040, Note_on_c, 0, 78, 0
2, 8873040, Note_on_c, 0, 81, 100
2, 8873280, Note_on_c, 0, 81, 0
2, 8873280, Note_on_c, 0, 71, 100
2, 8873520, Note_on_c, 0, 71, 0
2, 8873520, Note_on_c, 0, 79, 100
2, 8874240, Note_on_c, 0, 79, 0
2, 8874240, Note_on_c, 0, 78, 100
2, 8874720, Note_on_c, 0, 78, 0
2, 8874720, Note_on_c, 0, 83, 100
2, 8875440, Note_on_c, 0, 83, 0
2, 8875440, Note_on_c, 0, 81, 100
2, 8875680, Note_on_c, 0, 81, 0
2, 8875680, Note_on_c, 0, 74, 100
2, 8876160, Note_on_c, 0, 74, 0
2, 8876160, Note_on_c, 0, 76, 100
2, 8876520, Note_on_c, 0, 76, 0
2, 8876520, Note_on_c, 0, 74, 100
2, 8876640, Note_on_c, 0, 74, 0
2, 8876640, Note_on_c, 0, 72, 100
2, 8876760, Note_on_c, 0, 72, 0
2, 8876760, Note_on_c, 0, 71, 100
2, 8876880, Note_on_c, 0, 71, 0
2, 8876880, Note_on_c, 0, 76, 100
2, 8877120, Note_on_c, 0, 76, 0
2, 8877120, Note_on_c, 0, 71, 100
2, 8877360, Note_on_c, 0, 71, 0
2, 8877360, Note_on_c, 0, 74, 100
2, 8877600, Note_on_c, 0, 74, 0
2, 8877600, Note_on_c, 0, 73, 100
2, 8877840, Note_on_c, 0, 73, 0
2, 8877840, Note_on_c, 0, 74, 100
2, 8878080, Note_on_c, 0, 74, 0
2, 8878080, Note_on_c, 0, 76, 100
2, 8878320, Note_on_c, 0, 76, 0
2, 8878320, Note_on_c, 0, 73, 100
2, 8878800, Note_on_c, 0, 73, 0
2, 8878800, Note_on_c, 0, 69, 100
2, 8879040, Note_on_c, 0, 69, 0
2, 8879040, Note_on_c, 0, 74, 100
2, 8879760, Note_on_c, 0, 74, 0
2, 8879760, Note_on_c, 0, 67, 100
2, 8880000, Note_on_c, 0, 67, 0
2, 8880000, Note_on_c, 0, 66, 100
2, 8880960, Note_on_c, 0, 66, 0
2, 8880960, Note_on_c, 0, 67, 100
2, 8881200, Note_on_c, 0, 67, 0
2, 8881200, Note_on_c, 0, 64, 100
2, 8881440, Note_on_c, 0, 64, 0
2, 8881440, Note_on_c, 0, 69, 100
2, 8881680, Note_on_c, 0, 69, 0
2, 8881680, Note_on_c, 0, 67, 100
2, 8881800, Note_on_c, 0, 67, 0
2, 8881800, Note_on_c, 0, 66, 100
2, 8881920, Note_on_c, 0, 66, 0
2, 8881920, Note_on_c, 0, 64, 100
2, 8882040, Note_on_c, 0, 64, 0
2, 8882040, Note_on_c, 0, 62, 100
2, 8882160, Note_on_c, 0, 62, 0
2, 8882160, Note_on_c, 0, 64, 100
2, 8882400, Note_on_c, 0, 64, 0
2, 8882400, Note_on_c, 0, 66, 100
2, 8882520, Note_on_c, 0, 66, 0
2, 8882520, Note_on_c, 0, 67, 100
2, 8882640, Note_on_c, 0, 67, 0
2, 8882640, Note_on_c, 0, 69, 100
2, 8882760, Note_on_c, 0, 69, 0
2, 8882760, Note_on_c, 0, 71, 100
2, 8882880, Note_on_c, 0, 71, 0
2, 8882880, Note_on_c, 0, 74, 100
2, 8883120, Note_on_c, 0, 74, 0
2, 8883120, Note_on_c, 0, 73, 100
2, 8883360, Note_on_c, 0, 73, 0
2, 8883360, Note_on_c, 0, 74, 100
2, 8883600, Note_on_c, 0, 74, 0
2, 8883600, Note_on_c, 0, 81, 100
2, 8888640, Note_on_c, 0, 81, 0
2, 8888640, Note_on_c, 0, 83, 100
2, 8889480, Note_on_c, 0, 83, 0
2, 8889480, Note_on_c, 0, 84, 100
2, 8889600, Note_on_c, 0, 84, 0
2, 8889600, Note_on_c, 0, 81, 100
2, 8889720, Note_on_c, 0, 81, 0
2, 8889720, Note_on_c, 0, 83, 100
2, 8889840, Note_on_c, 0, 83, 0
2, 8889840, Note_on_c, 0, 84, 100
2, 8889960, Note_on_c, 0, 84, 0
2, 8889960, Note_on_c, 0, 83, 100
2, 8890080, Note_on_c, 0, 83, 0
2, 8890080, Note_on_c, 0, 81, 100
2, 8890200, Note_on_c, 0, 81, 0
2, 8890200, Note_on_c, 0, 79, 100
2, 8890320, Note_on_c, 0, 79, 0
2, 8890320, Note_on_c, 0, 78, 100
2, 8890440, Note_on_c, 0, 78, 0
2, 8890440, Note_on_c, 0, 76, 100
2, 8890560, Note_on_c, 0, 76, 0
2, 8890560, Note_on_c, 0, 75, 100
2, 8890680, Note_on_c, 0, 75, 0
2, 8890680, Note_on_c, 0, 76, 100
2, 8890800, Note_on_c, 0, 76, 0
2, 8890800, Note_on_c, 0, 78, 100
2, 8891040, Note_on_c, 0, 78, 0
2, 8891040, Note_on_c, 0, 79, 100
2, 8891280, Note_on_c, 0, 79, 0
2, 8891280, Note_on_c, 0, 78, 100
2, 8891760, Note_on_c, 0, 78, 0
2, 8891760, Note_on_c, 0, 76, 100
2, 8892000, Note_on_c, 0, 76, 0
2, 8892000, Note_on_c, 0, 75, 100
2, 8892240, Note_on_c, 0, 75, 0
2, 8892240, Note_on_c, 0, 69, 100
2, 8894400, Note_on_c, 0, 69, 0
2, 8894400, Note_on_c, 0, 71, 100
2, 8895360, Note_on_c, 0, 71, 0
2, 8895360, Note_on_c, 0, 69, 100
2, 8895480, Note_on_c, 0, 69, 0
2, 8895480, Note_on_c, 0, 67, 100
2, 8895600, Note_on_c, 0, 67, 0
2, 8895600, Note_on_c, 0, 66, 100
2, 8895720, Note_on_c, 0, 66, 0
2, 8895720, Note_on_c, 0, 67, 100
2, 8895840, Note_on_c, 0, 67, 0
2, 8895840, Note_on_c, 0, 69, 100
2, 8895960, Note_on_c, 0, 69, 0
2, 8895960, Note_on_c, 0, 71, 100
2, 8896080, Note_on_c, 0, 71, 0
2, 8896080, Note_on_c, 0, 67, 100
2, 8896200, Note_on_c, 0, 67, 0
2, 8896200, Note_on_c, 0, 69, 100
2, 8896320, Note_on_c, 0, 69, 0
2, 8896320, Note_on_c, 0, 71, 100
2, 8896440, Note_on_c, 0, 71, 0
2, 8896440, Note_on_c, 0, 64, 100
2, 8896560, Note_on_c, 0, 64, 0
2, 8896560, Note_on_c, 0, 66, 100
2, 8896800, Note_on_c, 0, 66, 0
2, 8896800, Note_on_c, 0, 67, 100
2, 8896920, Note_on_c, 0, 67, 0
2, 8896920, Note_on_c, 0, 69, 100
2, 8897040, Note_on_c, 0, 69, 0
2, 8897040, Note_on_c, 0, 71, 100
2, 8897160, Note_on_c, 0, 71, 0
2, 8897160, Note_on_c, 0, 72, 100
2, 8897280, Note_on_c, 0, 72, 0
2, 8897280, Note_on_c, 0, 64, 100
2, 8897520, Note_on_c, 0, 64, 0
2, 8897520, Note_on_c, 0, 63, 100
2, 8897760, Note_on_c, 0, 63, 0
2, 8897760, Note_on_c, 0, 64, 100
2, 8898000, Note_on_c, 0, 64, 0
2, 8898000, Note_on_c, 0, 76, 100
2, 8899440, Note_on_c, 0, 76, 0
2, 8899440, Note_on_c, 0, 78, 100
2, 8900280, Note_on_c, 0, 78, 0
2, 8900280, Note_on_c, 0, 79, 100
2, 8900400, Note_on_c, 0, 79, 0
2, 8900400, Note_on_c, 0, 76, 100
2, 8900520, Note_on_c, 0, 76, 0
2, 8900520, Note_on_c, 0, 78, 100
2, 8900640, Note_on_c, 0, 78, 0
2, 8900640, Note_on_c, 0, 79, 100
2, 8900760, Note_on_c, 0, 79, 0
2, 8900760, Note_on_c, 0, 72, 100
2, 8900880, Note_on_c, 0, 72, 0
2, 8900880, Note_on_c, 0, 74, 100
2, 8901000, Note_on_c, 0, 74, 0
2, 8901000, Note_on_c, 0, 76, 100
2, 8901120, Note_on_c, 0, 76, 0
2, 8901120, Note_on_c, 0, 72, 100
2, 8901240, Note_on_c, 0, 72, 0
2, 8901240, Note_on_c, 0, 74, 100
2, 8901360, Note_on_c, 0, 74, 0
2, 8901360, Note_on_c, 0, 76, 100
2, 8901480, Note_on_c, 0, 76, 0
2, 8901480, Note_on_c, 0, 69, 100
2, 8901600, Note_on_c, 0, 69, 0
2, 8901600, Note_on_c, 0, 71, 100
2, 8901720, Note_on_c, 0, 71, 0
2, 8901720, Note_on_c, 0, 72, 100
2, 8901840, Note_on_c, 0, 72, 0
2, 8901840, Note_on_c, 0, 69, 100
2, 8901960, Note_on_c, 0, 69, 0
2, 8901960, Note_on_c, 0, 71, 100
2, 8902080, Note_on_c, 0, 71, 0
2, 8902080, Note_on_c, 0, 72, 100
2, 8902200, Note_on_c, 0, 72, 0
2, 8902200, Note_on_c, 0, 71, 100
2, 8902320, Note_on_c, 0, 71, 0
2, 8902320, Note_on_c, 0, 72, 100
2, 8902440, Note_on_c, 0, 72, 0
2, 8902440, Note_on_c, 0, 74, 100
2, 8902560, Note_on_c, 0, 74, 0
2, 8902560, Note_on_c, 0, 71, 100
2, 8902680, Note_on_c, 0, 71, 0
2, 8902680, Note_on_c, 0, 72, 100
2, 8902800, Note_on_c, 0, 72, 0
2, 8902800, Note_on_c, 0, 74, 100
2, 8902920, Note_on_c, 0, 74, 0
2, 8902920, Note_on_c, 0, 67, 100
2, 8903040, Note_on_c, 0, 67, 0
2, 8903040, Note_on_c, 0, 79, 100
2, 8904000, Note_on_c, 0, 79, 0
2, 8904000, Note_on_c, 0, 78, 100
2, 8904720, Note_on_c, 0, 78, 0
2, 8904720, Note_on_c, 0, 81, 100
2, 8904960, Note_on_c, 0, 81, 0
2, 8904960, Note_on_c, 0, 79, 100
2, 8905440, Note_on_c, 0, 79, 0
2, 8905440, Note_on_c, 0, 77, 100
2, 8905680, Note_on_c, 0, 77, 0
2, 8905680, Note_on_c, 0, 76, 100
2, 8905920, Note_on_c, 0, 76, 0
2, 8905920, Note_on_c, 0, 74, 100
2, 8906040, Note_on_c, 0, 74, 0
2, 8906040, Note_on_c, 0, 72, 100
2, 8906160, Note_on_c, 0, 72, 0
2, 8906160, Note_on_c, 0, 76, 100
2, 8906280, Note_on_c, 0, 76, 0
2, 8906280, Note_on_c, 0, 74, 100
2, 8906400, Note_on_c, 0, 74, 0
2, 8906400, Note_on_c, 0, 72, 100
2, 8906520, Note_on_c, 0, 72, 0
2, 8906520, Note_on_c, 0, 71, 100
2, 8906640, Note_on_c, 0, 71, 0
2, 8906640, Note_on_c, 0, 81, 100
2, 8911680, Note_on_c, 0, 81, 0
2, 8911680, Note_on_c, 0, 83, 100
2, 8912520, Note_on_c, 0, 83, 0
2, 8912520, Note_on_c, 0, 84, 100
2, 8912640, Note_on_c, 0, 84, 0
2, 8912640, Note_on_c, 0, 81, 100
2, 8912760, Note_on_c, 0, 81, 0
2, 8912760, Note_on_c, 0, 83, 100
2, 8912880, Note_on_c, 0, 83, 0
2, 8912880, Note_on_c, 0, 84, 100
2, 8913000, Note_on_c, 0, 84, 0
2, 8913000, Note_on_c, 0, 83, 100
2, 8913120, Note_on_c, 0, 83, 0
2, 8913120, Note_on_c, 0, 81, 100
2, 8913240, Note_on_c, 0, 81, 0
2, 8913240, Note_on_c, 0, 79, 100
2, 8913360, Note_on_c, 0, 79, 0
2, 8913360, Note_on_c, 0, 78, 100
2, 8913480, Note_on_c, 0, 78, 0
2, 8913480, Note_on_c, 0, 76, 100
2, 8913600, Note_on_c, 0, 76, 0
2, 8913600, Note_on_c, 0, 75, 100
2, 8913720, Note_on_c, 0, 75, 0
2, 8913720, Note_on_c, 0, 76, 100
2, 8913840, Note_on_c, 0, 76, 0
2, 8913840, Note_on_c, 0, 78, 100
2, 8914080, Note_on_c, 0, 78, 0
2, 8914080, Note_on_c, 0, 79, 100
2, 8914320, Note_on_c, 0, 79, 0
2, 8914320, Note_on_c, 0, 78, 100
2, 8914800, Note_on_c, 0, 78, 0
2, 8914800, Note_on_c, 0, 76, 100
2, 8915040, Note_on_c, 0, 76, 0
2, 8915040, Note_on_c, 0, 75, 100
2, 8915280, Note_on_c, 0, 75, 0
2, 8915280, Note_on_c, 0, 69, 100
2, 8917440, Note_on_c, 0, 69, 0
2, 8917440, Note_on_c, 0, 71, 100
2, 8918400, Note_on_c, 0, 71, 0
2, 8918400, Note_on_c, 0, 69, 100
2, 8918520, Note_on_c, 0, 69, 0
2, 8918520, Note_on_c, 0, 67, 100
2, 8918640, Note_on_c, 0, 67, 0
2, 8918640, Note_on_c, 0, 66, 100
2, 8918760, Note_on_c, 0, 66, 0
2, 8918760, Note_on_c, 0, 67, 100
2, 8918880, Note_on_c, 0, 67, 0
2, 8918880, Note_on_c, 0, 69, 100
2, 8919000, Note_on_c, 0, 69, 0
2, 8919000, Note_on_c, 0, 71, 100
2, 8919120, Note_on_c, 0, 71, 0
2, 8919120, Note_on_c, 0, 67, 100
2, 8919240, Note_on_c, 0, 67, 0
2, 8919240, Note_on_c, 0, 69, 100
2, 8919360, Note_on_c, 0, 69, 0
2, 8919360, Note_on_c, 0, 71, 100
2, 8919480, Note_on_c, 0, 71, 0
2, 8919480, Note_on_c, 0, 64, 100
2, 8919600, Note_on_c, 0, 64, 0
2, 8919600, Note_on_c, 0, 66, 100
2, 8919840, Note_on_c, 0, 66, 0
2, 8919840, Note_on_c, 0, 67, 100
2, 8919960, Note_on_c, 0, 67, 0
2, 8919960, Note_on_c, 0, 69, 100
2, 8920080, Note_on_c, 0, 69, 0
2, 8920080, Note_on_c, 0, 71, 100
2, 8920200, Note_on_c, 0, 71, 0
2, 8920200, Note_on_c, 0, 72, 100
2, 8920320, Note_on_c, 0, 72, 0
2, 8920320, Note_on_c, 0, 64, 100
2, 8920560, Note_on_c, 0, 64, 0
2, 8920560, Note_on_c, 0, 63, 100
2, 8920800, Note_on_c, 0, 63, 0
2, 8920800, Note_on_c, 0, 64, 100
2, 8921040, Note_on_c, 0, 64, 0
2, 8921040, Note_on_c, 0, 76, 100
2, 8922480, Note_on_c, 0, 76, 0
2, 8922480, Note_on_c, 0, 78, 100
2, 8923320, Note_on_c, 0, 78, 0
2, 8923320, Note_on_c, 0, 79, 100
2, 8923440, Note_on_c, 0, 79, 0
2, 8923440, Note_on_c, 0, 76, 100
2, 8923560, Note_on_c, 0, 76, 0
2, 8923560, Note_on_c, 0, 78, 100
2, 8923680, Note_on_c, 0, 78, 0
2, 8923680, Note_on_c, 0, 79, 100
2, 8923800, Note_on_c, 0, 79, 0
2, 8923800, Note_on_c, 0, 72, 100
2, 8923920, Note_on_c, 0, 72, 0
2, 8923920, Note_on_c, 0, 74, 100
2, 8924040, Note_on_c, 0, 74, 0
2, 8924040, Note_on_c, 0, 76, 100
2, 8924160, Note_on_c, 0, 76, 0
2, 8924160, Note_on_c, 0, 72, 100
2, 8924280, Note_on_c, 0, 72, 0
2, 8924280, Note_on_c, 0, 74, 100
2, 8924400, Note_on_c, 0, 74, 0
2, 8924400, Note_on_c, 0, 76, 100
2, 8924520, Note_on_c, 0, 76, 0
2, 8924520, Note_on_c, 0, 69, 100
2, 8924640, Note_on_c, 0, 69, 0
2, 8924640, Note_on_c, 0, 71, 100
2, 8924760, Note_on_c, 0, 71, 0
2, 8924760, Note_on_c, 0, 72, 100
2, 8924880, Note_on_c, 0, 72, 0
2, 8924880, Note_on_c, 0, 69, 100
2, 8925000, Note_on_c, 0, 69, 0
2, 8925000, Note_on_c, 0, 71, 100
2, 8925120, Note_on_c, 0, 71, 0
2, 8925120, Note_on_c, 0, 72, 100
2, 8925240, Note_on_c, 0, 72, 0
2, 8925240, Note_on_c, 0, 71, 100
2, 8925360, Note_on_c, 0, 71, 0
2, 8925360, Note_on_c, 0, 72, 100
2, 8925480, Note_on_c, 0, 72, 0
2, 8925480, Note_on_c, 0, 74, 100
2, 8925600, Note_on_c, 0, 74, 0
2, 8925600, Note_on_c, 0, 71, 100
2, 8925720, Note_on_c, 0, 71, 0
2, 8925720, Note_on_c, 0, 72, 100
2, 8925840, Note_on_c, 0, 72, 0
2, 8925840, Note_on_c, 0, 74, 100
2, 8925960, Note_on_c, 0, 74, 0
2, 8925960, Note_on_c, 0, 67, 100
2, 8926080, Note_on_c, 0, 67, 0
2, 8926080, Note_on_c, 0, 79, 100
2, 8927040, Note_on_c, 0, 79, 0
2, 8927040, Note_on_c, 0, 78, 100
2, 8927760, Note_on_c, 0, 78, 0
2, 8927760, Note_on_c, 0, 81, 100
2, 8928000, Note_on_c, 0, 81, 0
2, 8928000, Note_on_c, 0, 79, 100
2, 8928480, Note_on_c, 0, 79, 0
2, 8928480, Note_on_c, 0, 77, 100
2, 8928720, Note_on_c, 0, 77, 0
2, 8928720, Note_on_c, 0, 76, 100
2, 8928960, Note_on_c, 0, 76, 0
2, 8928960, Note_on_c, 0, 74, 100
2, 8929080, Note_on_c, 0, 74, 0
2, 8929080, Note_on_c, 0, 72, 100
2, 8929200, Note_on_c, 0, 72, 0
2, 8929200, Note_on_c, 0, 76, 100
2, 8929320, Note_on_c, 0, 76, 0
2, 8929320, Note_on_c, 0, 74, 100
2, 8929440, Note_on_c, 0, 74, 0
2, 8929440, Note_on_c, 0, 72, 100
2, 8929560, Note_on_c, 0, 72, 0
2, 8929560, Note_on_c, 0, 71, 100
2, 8929680, Note_on_c, 0, 71, 0
2, 8929680, Note_on_c, 0, 81, 100
2, 9070080, Note_on_c, 0, 81, 0
2, 9070080, Note_on_c, 0, 79, 100
2, 9071040, Note_on_c, 0, 79, 0
2, 9071040, Note_on_c, 0, 78, 100
2, 9071160, Note_on_c, 0, 78, 0
2, 9071160, Note_on_c, 0, 76, 100
2, 9071280, Note_on_c, 0, 76, 0
2, 9071280, Note_on_c, 0, 74, 100
2, 9071400, Note_on_c, 0, 74, 0
2, 9071400, Note_on_c, 0, 72, 100
2, 9071520, Note_on_c, 0, 72, 0
2, 9071520, Note_on_c, 0, 71, 100
2, 9072480, Note_on_c, 0, 71, 0
2, 9072480, Note_on_c, 0, 69, 100
2, 9072600, Note_on_c, 0, 69, 0
2, 9072600, Note_on_c, 0, 67, 100
2, 9072720, Note_on_c, 0, 67, 0
2, 9072720, Note_on_c, 0, 66, 100
2, 9072840, Note_on_c, 0, 66, 0
2, 9072840, Note_on_c, 0, 64, 100
2, 9072960, Note_on_c, 0, 64, 0
2, 9072960, Note_on_c, 0, 62, 100
2, 9073920, Note_on_c, 0, 62, 0
2, 9073920, Note_on_c, 0, 60, 100
2, 9074040, Note_on_c, 0, 60, 0
2, 9074040, Note_on_c, 0, 59, 100
2, 9074160, Note_on_c, 0, 59, 0
2, 9074160, Note_on_c, 0, 57, 100
2, 9074280, Note_on_c, 0, 57, 0
2, 9074280, Note_on_c, 0, 59, 100
2, 9074400, Note_on_c, 0, 59, 0
2, 9074400, Note_on_c, 0, 57, 100
2, 9075240, Note_on_c, 0, 57, 0
2, 9075240, Note_on_c, 0, 60, 100
2, 9075360, Note_on_c, 0, 60, 0
2, 9075360, Note_on_c, 0, 59, 100
2, 9075480, Note_on_c, 0, 59, 0
2, 9075480, Note_on_c, 0, 57, 100
2, 9075600, Note_on_c, 0, 57, 0
2, 9075600, Note_on_c, 0, 55, 100
2, 9075720, Note_on_c, 0, 55, 0
2, 9075720, Note_on_c, 0, 57, 100
2, 9075840, Note_on_c, 0, 57, 0
2, 9075840, Note_on_c, 0, 69, 100
2, 9076080, Note_on_c, 0, 69, 0
2, 9076080, Note_on_c, 0, 67, 100
2, 9076800, Note_on_c, 0, 67, 0
2, 9076800, Note_on_c, 0, 66, 100
2, 9076920, Note_on_c, 0, 66, 0
2, 9076920, Note_on_c, 0, 64, 100
2, 9077040, Note_on_c, 0, 64, 0
2, 9077040, Note_on_c, 0, 62, 100
2, 9077160, Note_on_c, 0, 62, 0
2, 9077160, Note_on_c, 0, 61, 100
2, 9077280, Note_on_c, 0, 61, 0
2, 9077280, Note_on_c, 0, 64, 100
2, 9077400, Note_on_c, 0, 64, 0
2, 9077400, Note_on_c, 0, 69, 100
2, 9077520, Note_on_c, 0, 69, 0
2, 9077520, Note_on_c, 0, 71, 100
2, 9077640, Note_on_c, 0, 71, 0
2, 9077640, Note_on_c, 0, 72, 100
2, 9077760, Note_on_c, 0, 72, 0
2, 9077760, Note_on_c, 0, 71, 100
2, 9078240, Note_on_c, 0, 71, 0
2, 9078240, Note_on_c, 0, 69, 100
2, 9078360, Note_on_c, 0, 69, 0
2, 9078360, Note_on_c, 0, 67, 100
2, 9078480, Note_on_c, 0, 67, 0
2, 9078480, Note_on_c, 0, 66, 100
2, 9078600, Note_on_c, 0, 66, 0
2, 9078600, Note_on_c, 0, 64, 100
2, 9078720, Note_on_c, 0, 64, 0
2, 9078720, Note_on_c, 0, 62, 100
2, 9079560, Note_on_c, 0, 62, 0
2, 9079560, Note_on_c, 0, 61, 100
2, 9079680, Note_on_c, 0, 61, 0
2, 9079680, Note_on_c, 0, 64, 100
2, 9079800, Note_on_c, 0, 64, 0
2, 9079800, Note_on_c, 0, 62, 100
2, 9079920, Note_on_c, 0, 62, 0
2, 9079920, Note_on_c, 0, 61, 100
2, 9080040, Note_on_c, 0, 61, 0
2, 9080040, Note_on_c, 0, 62, 100
2, 9080160, Note_on_c, 0, 62, 0
2, 9080160, Note_on_c, 0, 60, 100
2, 9080280, Note_on_c, 0, 60, 0
2, 9080280, Note_on_c, 0, 59, 100
2, 9080400, Note_on_c, 0, 59, 0
2, 9080400, Note_on_c, 0, 57, 100
2, 9080520, Note_on_c, 0, 57, 0
2, 9080520, Note_on_c, 0, 55, 100
2, 9080640, Note_on_c, 0, 55, 0
2, 9080640, Note_on_c, 0, 54, 100
2, 9080760, Note_on_c, 0, 54, 0
2, 9080760, Note_on_c, 0, 55, 100
2, 9080880, Note_on_c, 0, 55, 0
2, 9080880, Note_on_c, 0, 81, 100
2, 9081600, Note_on_c, 0, 81, 0
2, 9081600, Note_on_c, 0, 79, 100
2, 9082560, Note_on_c, 0, 79, 0
2, 9082560, Note_on_c, 0, 78, 100
2, 9082680, Note_on_c, 0, 78, 0
2, 9082680, Note_on_c, 0, 76, 100
2, 9082800, Note_on_c, 0, 76, 0
2, 9082800, Note_on_c, 0, 74, 100
2, 9082920, Note_on_c, 0, 74, 0
2, 9082920, Note_on_c, 0, 72, 100
2, 9083040, Note_on_c, 0, 72, 0
2, 9083040, Note_on_c, 0, 71, 100
2, 9084000, Note_on_c, 0, 71, 0
2, 9084000, Note_on_c, 0, 69, 100
2, 9084120, Note_on_c, 0, 69, 0
2, 9084120, Note_on_c, 0, 67, 100
2, 9084240, Note_on_c, 0, 67, 0
2, 9084240, Note_on_c, 0, 66, 100
2, 9084360, Note_on_c, 0, 66, 0
2, 9084360, Note_on_c, 0, 64, 100
2, 9084480, Note_on_c, 0, 64, 0
2, 9084480, Note_on_c, 0, 62, 100
2, 9085440, Note_on_c, 0, 62, 0
2, 9085440, Note_on_c, 0, 60, 100
2, 9085560, Note_on_c, 0, 60, 0
2, 9085560, Note_on_c, 0, 59, 100
2, 9085680, Note_on_c, 0, 59, 0
2, 9085680, Note_on_c, 0, 57, 100
2, 9085800, Note_on_c, 0, 57, 0
2, 9085800, Note_on_c, 0, 59, 100
2, 9085920, Note_on_c, 0, 59, 0
2, 9085920, Note_on_c, 0, 57, 100
2, 9086760, Note_on_c, 0, 57, 0
2, 9086760, Note_on_c, 0, 60, 100
2, 9086880, Note_on_c, 0, 60, 0
2, 9086880, Note_on_c, 0, 59, 100
2, 9087000, Note_on_c, 0, 59, 0
2, 9087000, Note_on_c, 0, 57, 100
2, 9087120, Note_on_c, 0, 57, 0
2, 9087120, Note_on_c, 0, 55, 100
2, 9087240, Note_on_c, 0, 55, 0
2, 9087240, Note_on_c, 0, 57, 100
2, 9087360, Note_on_c, 0, 57, 0
2, 9087360, Note_on_c, 0, 69, 100
2, 9087600, Note_on_c, 0, 69, 0
2, 9087600, Note_on_c, 0, 67, 100
2, 9088320, Note_on_c, 0, 67, 0
2, 9088320, Note_on_c, 0, 66, 100
2, 9088440, Note_on_c, 0, 66, 0
2, 9088440, Note_on_c, 0, 64, 100
2, 9088560, Note_on_c, 0, 64, 0
2, 9088560, Note_on_c, 0, 62, 100
2, 9088680, Note_on_c, 0, 62, 0
2, 9088680, Note_on_c, 0, 61, 100
2, 9088800, Note_on_c, 0, 61, 0
2, 9088800, Note_on_c, 0, 64, 100
2, 9088920, Note_on_c, 0, 64, 0
2, 9088920, Note_on_c, 0, 69, 100
2, 9089040, Note_on_c, 0, 69, 0
2, 9089040, Note_on_c, 0, 71, 100
2, 9089160, Note_on_c, 0, 71, 0
2, 9089160, Note_on_c, 0, 72, 100
2, 9089280, Note_on_c, 0, 72, 0
2, 9089280, Note_on_c, 0, 71, 100
2, 9089760, Note_on_c, 0, 71, 0
2, 9089760, Note_on_c, 0, 69, 100
2, 9089880, Note_on_c, 0, 69, 0
2, 9089880, Note_on_c, 0, 67, 100
2, 9090000, Note_on_c, 0, 67, 0
2, 9090000, Note_on_c, 0, 66, 100
2, 9090120, Note_on_c, 0, 66, 0
2, 9090120, Note_on_c, 0, 64, 100
2, 9090240, Note_on_c, 0, 64, 0
2, 9090240, Note_on_c, 0, 62, 100
2, 9091080, Note_on_c, 0, 62, 0
2, 9091080, Note_on_c, 0, 61, 100
2, 9091200, Note_on_c, 0, 61, 0
2, 9091200, Note_on_c, 0, 64, 100
2, 9091320, Note_on_c, 0, 64, 0
2, 9091320, Note_on_c, 0, 62, 100
2, 9091440, Note_on_c, 0, 62, 0
2, 9091440, Note_on_c, 0, 61, 100
2, 9091560, Note_on_c, 0, 61, 0
2, 9091560, Note_on_c, 0, 62, 100
2, 9091680, Note_on_c, 0, 62, 0
2, 9091680, Note_on_c, 0, 83, 100
2, 9093120, Note_on_c, 0, 83, 0
2, 9093120, Note_on_c, 0, 81, 100
2, 9094080, Note_on_c, 0, 81, 0
2, 9094080, Note_on_c, 0, 79, 100
2, 9094200, Note_on_c, 0, 79, 0
2, 9094200, Note_on_c, 0, 78, 100
2, 9094320, Note_on_c, 0, 78, 0
2, 9094320, Note_on_c, 0, 76, 100
2, 9094440, Note_on_c, 0, 76, 0
2, 9094440, Note_on_c, 0, 75, 100
2, 9094560, Note_on_c, 0, 75, 0
2, 9094560, Note_on_c, 0, 74, 100
2, 9094800, Note_on_c, 0, 74, 0
2, 9094800, Note_on_c, 0, 72, 100
2, 9095520, Note_on_c, 0, 72, 0
2, 9095520, Note_on_c, 0, 71, 100
2, 9095640, Note_on_c, 0, 71, 0
2, 9095640, Note_on_c, 0, 69, 100
2, 9095760, Note_on_c, 0, 69, 0
2, 9095760, Note_on_c, 0, 67, 100
2, 9095880, Note_on_c, 0, 67, 0
2, 9095880, Note_on_c, 0, 66, 100
2, 9096000, Note_on_c, 0, 66, 0
2, 9096000, Note_on_c, 0, 64, 100
2, 9096840, Note_on_c, 0, 64, 0
2, 9096840, Note_on_c, 0, 63, 100
2, 9096960, Note_on_c, 0, 63, 0
2, 9096960, Note_on_c, 0, 66, 100
2, 9097080, Note_on_c, 0, 66, 0
2, 9097080, Note_on_c, 0, 64, 100
2, 9097200, Note_on_c, 0, 64, 0
2, 9097200, Note_on_c, 0, 63, 100
2, 9097320, Note_on_c, 0, 63, 0
2, 9097320, Note_on_c, 0, 64, 100
2, 9097440, Note_on_c, 0, 64, 0
2, 9097440, Note_on_c, 0, 62, 100
2, 9097560, Note_on_c, 0, 62, 0
2, 9097560, Note_on_c, 0, 60, 100
2, 9097680, Note_on_c, 0, 60, 0
2, 9097680, Note_on_c, 0, 59, 100
2, 9097800, Note_on_c, 0, 59, 0
2, 9097800, Note_on_c, 0, 57, 100
2, 9097920, Note_on_c, 0, 57, 0
2, 9097920, Note_on_c, 0, 56, 100
2, 9098040, Note_on_c, 0, 56, 0
2, 9098040, Note_on_c, 0, 57, 100
2, 9098160, Note_on_c, 0, 57, 0
2, 9098160, Note_on_c, 0, 62, 100
2, 9098880, Note_on_c, 0, 62, 0
2, 9098880, Note_on_c, 0, 59, 100
2, 9099720, Note_on_c, 0, 59, 0
2, 9099720, Note_on_c, 0, 60, 100
2, 9099840, Note_on_c, 0, 60, 0
2, 9099840, Note_on_c, 0, 57, 100
2, 9099960, Note_on_c, 0, 57, 0
2, 9099960, Note_on_c, 0, 60, 100
2, 9100080, Note_on_c, 0, 60, 0
2, 9100080, Note_on_c, 0, 64, 100
2, 9100200, Note_on_c, 0, 64, 0
2, 9100200, Note_on_c, 0, 66, 100
2, 9100320, Note_on_c, 0, 66, 0
2, 9100320, Note_on_c, 0, 63, 100
2, 9101160, Note_on_c, 0, 63, 0
2, 9101160, Note_on_c, 0, 64, 100
2, 9101280, Note_on_c, 0, 64, 0
2, 9101280, Note_on_c, 0, 60, 100
2, 9101400, Note_on_c, 0, 60, 0
2, 9101400, Note_on_c, 0, 64, 100
2, 9101520, Note_on_c, 0, 64, 0
2, 9101520, Note_on_c, 0, 67, 100
2, 9101640, Note_on_c, 0, 67, 0
2, 9101640, Note_on_c, 0, 69, 100
2, 9101760, Note_on_c, 0, 69, 0
2, 9101760, Note_on_c, 0, 67, 100
2, 9102600, Note_on_c, 0, 67, 0
2, 9102600, Note_on_c, 0, 66, 100
2, 9102720, Note_on_c, 0, 66, 0
2, 9102720, Note_on_c, 0, 69, 100
2, 9102840, Note_on_c, 0, 69, 0
2, 9102840, Note_on_c, 0, 67, 100
2, 9102960, Note_on_c, 0, 67, 0
2, 9102960, Note_on_c, 0, 66, 100
2, 9103080, Note_on_c, 0, 66, 0
2, 9103080, Note_on_c, 0, 67, 100
2, 9103200, Note_on_c, 0, 67, 0
2, 9103200, Note_on_c, 0, 66, 100
2, 9103320, Note_on_c, 0, 66, 0
2, 9103320, Note_on_c, 0, 64, 100
2, 9103440, Note_on_c, 0, 64, 0
2, 9103440, Note_on_c, 0, 62, 100
2, 9103560, Note_on_c, 0, 62, 0
2, 9103560, Note_on_c, 0, 60, 100
2, 9103680, Note_on_c, 0, 60, 0
2, 9103680, Note_on_c, 0, 59, 100
2, 9103800, Note_on_c, 0, 59, 0
2, 9103800, Note_on_c, 0, 57, 100
2, 9103920, Note_on_c, 0, 57, 0
2, 9103920, Note_on_c, 0, 83, 100
2, 9104640, Note_on_c, 0, 83, 0
2, 9104640, Note_on_c, 0, 81, 100
2, 9105600, Note_on_c, 0, 81, 0
2, 9105600, Note_on_c, 0, 79, 100
2, 9105720, Note_on_c, 0, 79, 0
2, 9105720, Note_on_c, 0, 78, 100
2, 9105840, Note_on_c, 0, 78, 0
2, 9105840, Note_on_c, 0, 76, 100
2, 9105960, Note_on_c, 0, 76, 0
2, 9105960, Note_on_c, 0, 75, 100
2, 9106080, Note_on_c, 0, 75, 0
2, 9106080, Note_on_c, 0, 74, 100
2, 9106320, Note_on_c, 0, 74, 0
2, 9106320, Note_on_c, 0, 72, 100
2, 9107040, Note_on_c, 0, 72, 0
2, 9107040, Note_on_c, 0, 71, 100
2, 9107160, Note_on_c, 0, 71, 0
2, 9107160, Note_on_c, 0, 69, 100
2, 9107280, Note_on_c, 0, 69, 0
2, 9107280, Note_on_c, 0, 67, 100
2, 9107400, Note_on_c, 0, 67, 0
2, 9107400, Note_on_c, 0, 66, 100
2, 9107520, Note_on_c, 0, 66, 0
2, 9107520, Note_on_c, 0, 64, 100
2, 9108360, Note_on_c, 0, 64, 0
2, 9108360, Note_on_c, 0, 63, 100
2, 9108480, Note_on_c, 0, 63, 0
2, 9108480, Note_on_c, 0, 66, 100
2, 9108600, Note_on_c, 0, 66, 0
2, 9108600, Note_on_c, 0, 64, 100
2, 9108720, Note_on_c, 0, 64, 0
2, 9108720, Note_on_c, 0, 63, 100
2, 9108840, Note_on_c, 0, 63, 0
2, 9108840, Note_on_c, 0, 64, 100
2, 9108960, Note_on_c, 0, 64, 0
2, 9108960, Note_on_c, 0, 62, 100
2, 9109080, Note_on_c, 0, 62, 0
2, 9109080, Note_on_c, 0, 60, 100
2, 9109200, Note_on_c, 0, 60, 0
2, 9109200, Note_on_c, 0, 59, 100
2, 9109320, Note_on_c, 0, 59, 0
2, 9109320, Note_on_c, 0, 57, 100
2, 9109440, Note_on_c, 0, 57, 0
2, 9109440, Note_on_c, 0, 56, 100
2, 9109560, Note_on_c, 0, 56, 0
2, 9109560, Note_on_c, 0, 57, 100
2, 9109680, Note_on_c, 0, 57, 0
2, 9109680, Note_on_c, 0, 62, 100
2, 9110400, Note_on_c, 0, 62, 0
2, 9110400, Note_on_c, 0, 59, 100
2, 9111240, Note_on_c, 0, 59, 0
2, 9111240, Note_on_c, 0, 60, 100
2, 9111360, Note_on_c, 0, 60, 0
2, 9111360, Note_on_c, 0, 57, 100
2, 9111480, Note_on_c, 0, 57, 0
2, 9111480, Note_on_c, 0, 60, 100
2, 9111600, Note_on_c, 0, 60, 0
2, 9111600, Note_on_c, 0, 64, 100
2, 9111720, Note_on_c, 0, 64, 0
2, 9111720, Note_on_c, 0, 66, 100
2, 9111840, Note_on_c, 0, 66, 0
2, 9111840, Note_on_c, 0, 63, 100
2, 9112680, Note_on_c, 0, 63, 0
2, 9112680, Note_on_c, 0, 64, 100
2, 9112800, Note_on_c, 0, 64, 0
2, 9112800, Note_on_c, 0, 60, 100
2, 9112920, Note_on_c, 0, 60, 0
2, 9112920, Note_on_c, 0, 64, 100
2, 9113040, Note_on_c, 0, 64, 0
2, 9113040, Note_on_c, 0, 67, 100
2, 9113160, Note_on_c, 0, 67, 0
2, 9113160, Note_on_c, 0, 69, 100
2, 9113280, Note_on_c, 0, 69, 0
2, 9113280, Note_on_c, 0, 67, 100
2, 9114120, Note_on_c, 0, 67, 0
2, 9114120, Note_on_c, 0, 66, 100
2, 9114240, Note_on_c, 0, 66, 0
2, 9114240, Note_on_c, 0, 69, 100
2, 9114360, Note_on_c, 0, 69, 0
2, 9114360, Note_on_c, 0, 67, 100
2, 9114480, Note_on_c, 0, 67, 0
2, 9114480, Note_on_c, 0, 66, 100
2, 9114600, Note_on_c, 0, 66, 0
2, 9114600, Note_on_c, 0, 67, 100
2, 9301680, Note_on_c, 0, 67, 0
2, 9301680, Note_on_c, 0, 66, 100
2, 9301920, Note_on_c, 0, 66, 0
2, 9301920, Note_on_c, 0, 67, 100
2, 9302160, Note_on_c, 0, 67, 0
2, 9302160, Note_on_c, 0, 69, 100
2, 9302400, Note_on_c, 0, 69, 0
2, 9302400, Note_on_c, 0, 71, 100
2, 9302640, Note_on_c, 0, 71, 0
2, 9302640, Note_on_c, 0, 66, 100
2, 9302880, Note_on_c, 0, 66, 0
2, 9302880, Note_on_c, 0, 71, 100
2, 9303120, Note_on_c, 0, 71, 0
2, 9303120, Note_on_c, 0, 69, 100
2, 9303360, Note_on_c, 0, 69, 0
2, 9303360, Note_on_c, 0, 67, 100
2, 9303600, Note_on_c, 0, 67, 0
2, 9303600, Note_on_c, 0, 71, 100
2, 9303840, Note_on_c, 0, 71, 0
2, 9303840, Note_on_c, 0, 76, 100
2, 9304080, Note_on_c, 0, 76, 0
2, 9304080, Note_on_c, 0, 78, 100
2, 9304800, Note_on_c, 0, 78, 0
2, 9304800, Note_on_c, 0, 76, 100
2, 9304920, Note_on_c, 0, 76, 0
2, 9304920, Note_on_c, 0, 74, 100
2, 9305040, Note_on_c, 0, 74, 0
2, 9305040, Note_on_c, 0, 76, 100
2, 9305520, Note_on_c, 0, 76, 0
2, 9305520, Note_on_c, 0, 74, 100
2, 9305760, Note_on_c, 0, 74, 0
2, 9305760, Note_on_c, 0, 76, 100
2, 9306000, Note_on_c, 0, 76, 0
2, 9306000, Note_on_c, 0, 78, 100
2, 9306240, Note_on_c, 0, 78, 0
2, 9306240, Note_on_c, 0, 79, 100
2, 9306480, Note_on_c, 0, 79, 0
2, 9306480, Note_on_c, 0, 74, 100
2, 9306720, Note_on_c, 0, 74, 0
2, 9306720, Note_on_c, 0, 79, 100
2, 9306960, Note_on_c, 0, 79, 0
2, 9306960, Note_on_c, 0, 78, 100
2, 9307200, Note_on_c, 0, 78, 0
2, 9307200, Note_on_c, 0, 76, 100
2, 9307440, Note_on_c, 0, 76, 0
2, 9307440, Note_on_c, 0, 78, 100
2, 9307680, Note_on_c, 0, 78, 0
2, 9307680, Note_on_c, 0, 79, 100
2, 9307800, Note_on_c, 0, 79, 0
2, 9307800, Note_on_c, 0, 81, 100
2, 9307920, Note_on_c, 0, 81, 0
2, 9307920, Note_on_c, 0, 79, 100
2, 9308640, Note_on_c, 0, 79, 0
2, 9308640, Note_on_c, 0, 78, 100
2, 9308760, Note_on_c, 0, 78, 0
2, 9308760, Note_on_c, 0, 79, 100
2, 9308880, Note_on_c, 0, 79, 0
2, 9308880, Note_on_c, 0, 67, 100
2, 9309120, Note_on_c, 0, 67, 0
2, 9309120, Note_on_c, 0, 69, 100
2, 9309360, Note_on_c, 0, 69, 0
2, 9309360, Note_on_c, 0, 67, 100
2, 9309600, Note_on_c, 0, 67, 0
2, 9309600, Note_on_c, 0, 69, 100
2, 9309840, Note_on_c, 0, 69, 0
2, 9309840, Note_on_c, 0, 71, 100
2, 9310080, Note_on_c, 0, 71, 0
2, 9310080, Note_on_c, 0, 72, 100
2, 9310320, Note_on_c, 0, 72, 0
2, 9310320, Note_on_c, 0, 67, 100
2, 9310560, Note_on_c, 0, 67, 0
2, 9310560, Note_on_c, 0, 72, 100
2, 9310800, Note_on_c, 0, 72, 0
2, 9310800, Note_on_c, 0, 71, 100
2, 9311040, Note_on_c, 0, 71, 0
2, 9311040, Note_on_c, 0, 69, 100
2, 9311280, Note_on_c, 0, 69, 0
2, 9311280, Note_on_c, 0, 71, 100
2, 9311520, Note_on_c, 0, 71, 0
2, 9311520, Note_on_c, 0, 73, 100
2, 9311640, Note_on_c, 0, 73, 0
2, 9311640, Note_on_c, 0, 74, 100
2, 9311760, Note_on_c, 0, 74, 0
2, 9311760, Note_on_c, 0, 73, 100
2, 9312480, Note_on_c, 0, 73, 0
2, 9312480, Note_on_c, 0, 71, 100
2, 9312600, Note_on_c, 0, 71, 0
2, 9312600, Note_on_c, 0, 73, 100
2, 9312720, Note_on_c, 0, 73, 0
2, 9312720, Note_on_c, 0, 74, 100
2, 9312840, Note_on_c, 0, 74, 0
2, 9312840, Note_on_c, 0, 76, 100
2, 9312960, Note_on_c, 0, 76, 0
2, 9312960, Note_on_c, 0, 74, 100
2, 9313440, Note_on_c, 0, 74, 0
2, 9313440, Note_on_c, 0, 73, 100
2, 9313920, Note_on_c, 0, 73, 0
2, 9313920, Note_on_c, 0, 74, 100
2, 9314160, Note_on_c, 0, 74, 0
2, 9314160, Note_on_c, 0, 67, 100
2, 9317040, Note_on_c, 0, 67, 0
2, 9317040, Note_on_c, 0, 66, 100
2, 9317280, Note_on_c, 0, 66, 0
2, 9317280, Note_on_c, 0, 67, 100
2, 9317520, Note_on_c, 0, 67, 0
2, 9317520, Note_on_c, 0, 69, 100
2, 9317760, Note_on_c, 0, 69, 0
2, 9317760, Note_on_c, 0, 71, 100
2, 9318000, Note_on_c, 0, 71, 0
2, 9318000, Note_on_c, 0, 66, 100
2, 9318240, Note_on_c, 0, 66, 0
2, 9318240, Note_on_c, 0, 71, 100
2, 9318480, Note_on_c, 0, 71, 0
2, 9318480, Note_on_c, 0, 69, 100
2, 9318720, Note_on_c, 0, 69, 0
2, 9318720, Note_on_c, 0, 67, 100
2, 9318960, Note_on_c, 0, 67, 0
2, 9318960, Note_on_c, 0, 71, 100
2, 9319200, Note_on_c, 0, 71, 0
2, 9319200, Note_on_c, 0, 76, 100
2, 9319440, Note_on_c, 0, 76, 0
2, 9319440, Note_on_c, 0, 78, 100
2, 9320160, Note_on_c, 0, 78, 0
2, 9320160, Note_on_c, 0, 76, 100
2, 9320280, Note_on_c, 0, 76, 0
2, 9320280, Note_on_c, 0, 74, 100
2, 9320400, Note_on_c, 0, 74, 0
2, 9320400, Note_on_c, 0, 76, 100
2, 9320880, Note_on_c, 0, 76, 0
2, 9320880, Note_on_c, 0, 74, 100
2, 9321120, Note_on_c, 0, 74, 0
2, 9321120, Note_on_c, 0, 76, 100
2, 9321360, Note_on_c, 0, 76, 0
2, 9321360, Note_on_c, 0, 78, 100
2, 9321600, Note_on_c, 0, 78, 0
2, 9321600, Note_on_c, 0, 79, 100
2, 9321840, Note_on_c, 0, 79, 0
2, 9321840, Note_on_c, 0, 74, 100
2, 9322080, Note_on_c, 0, 74, 0
2, 9322080, Note_on_c, 0, 79, 100
2, 9322320, Note_on_c, 0, 79, 0
2, 9322320, Note_on_c, 0, 78, 100
2, 9322560, Note_on_c, 0, 78, 0
2, 9322560, Note_on_c, 0, 76, 100
2, 9322800, Note_on_c, 0, 76, 0
2, 9322800, Note_on_c, 0, 78, 100
2, 9323040, Note_on_c, 0, 78, 0
2, 9323040, Note_on_c, 0, 79, 100
2, 9323160, Note_on_c, 0, 79, 0
2, 9323160, Note_on_c, 0, 81, 100
2, 9323280, Note_on_c, 0, 81, 0
2, 9323280, Note_on_c, 0, 79, 100
2, 9324000, Note_on_c, 0, 79, 0
2, 9324000, Note_on_c, 0, 78, 100
2, 9324120, Note_on_c, 0, 78, 0
2, 9324120, Note_on_c, 0, 79, 100
2, 9324240, Note_on_c, 0, 79, 0
2, 9324240, Note_on_c, 0, 67, 100
2, 9324480, Note_on_c, 0, 67, 0
2, 9324480, Note_on_c, 0, 69, 100
2, 9324720, Note_on_c, 0, 69, 0
2, 9324720, Note_on_c, 0, 67, 100
2, 9324960, Note_on_c, 0, 67, 0
2, 9324960, Note_on_c, 0, 69, 100
2, 9325200, Note_on_c, 0, 69, 0
2, 9325200, Note_on_c, 0, 71, 100
2, 9325440, Note_on_c, 0, 71, 0
2, 9325440, Note_on_c, 0, 72, 100
2, 9325680, Note_on_c, 0, 72, 0
2, 9325680, Note_on_c, 0, 67, 100
2, 9325920, Note_on_c, 0, 67, 0
2, 9325920, Note_on_c, 0, 72, 100
2, 9326160, Note_on_c, 0, 72, 0
2, 9326160, Note_on_c, 0, 71, 100
2, 9326400, Note_on_c, 0, 71, 0
2, 9326400, Note_on_c, 0, 69, 100
2, 9326640, Note_on_c, 0, 69, 0
2, 9326640, Note_on_c, 0, 71, 100
2, 9326880, Note_on_c, 0, 71, 0
2, 9326880, Note_on_c, 0, 73, 100
2, 9327000, Note_on_c, 0, 73, 0
2, 9327000, Note_on_c, 0, 74, 100
2, 9327120, Note_on_c, 0, 74, 0
2, 9327120, Note_on_c, 0, 73, 100
2, 9327840, Note_on_c, 0, 73, 0
2, 9327840, Note_on_c, 0, 71, 100
2, 9327960, Note_on_c, 0, 71, 0
2, 9327960, Note_on_c, 0, 73, 100
2, 9328080, Note_on_c, 0, 73, 0
2, 9328080, Note_on_c, 0, 74, 100
2, 9328200, Note_on_c, 0, 74, 0
2, 9328200, Note_on_c, 0, 76, 100
2, 9328320, Note_on_c, 0, 76, 0
2, 9328320, Note_on_c, 0, 74, 100
2, 9328800, Note_on_c, 0, 74, 0
2, 9328800, Note_on_c, 0, 73, 100
2, 9329280, Note_on_c, 0, 73, 0
2, 9329280, Note_on_c, 0, 74, 100
2, 9332400, Note_on_c, 0, 74, 0
2, 9332400, Note_on_c, 0, 71, 100
2, 9332640, Note_on_c, 0, 71, 0
2, 9332640, Note_on_c, 0, 73, 100
2, 9332880, Note_on_c, 0, 73, 0
2, 9332880, Note_on_c, 0, 75, 100
2, 9333120, Note_on_c, 0, 75, 0
2, 9333120, Note_on_c, 0, 76, 100
2, 9333360, Note_on_c, 0, 76, 0
2, 9333360, Note_on_c, 0, 71, 100
2, 9333600, Note_on_c, 0, 71, 0
2, 9333600, Note_on_c, 0, 76, 100
2, 9333840, Note_on_c, 0, 76, 0
2, 9333840, Note_on_c, 0, 78, 100
2, 9334080, Note_on_c, 0, 78, 0
2, 9334080, Note_on_c, 0, 79, 100
2, 9334320, Note_on_c, 0, 79, 0
2, 9334320, Note_on_c, 0, 73, 100
2, 9334560, Note_on_c, 0, 73, 0
2, 9334560, Note_on_c, 0, 77, 100
2, 9334800, Note_on_c, 0, 77, 0
2, 9334800, Note_on_c, 0, 76, 100
2, 9335520, Note_on_c, 0, 76, 0
2, 9335520, Note_on_c, 0, 75, 100
2, 9335640, Note_on_c, 0, 75, 0
2, 9335640, Note_on_c, 0, 76, 100
2, 9335760, Note_on_c, 0, 76, 0
2, 9335760, Note_on_c, 0, 72, 100
2, 9336480, Note_on_c, 0, 72, 0
2, 9336480, Note_on_c, 0, 71, 100
2, 9336960, Note_on_c, 0, 71, 0
2, 9336960, Note_on_c, 0, 69, 100
2, 9337080, Note_on_c, 0, 69, 0
2, 9337080, Note_on_c, 0, 67, 100
2, 9337200, Note_on_c, 0, 67, 0
2, 9337200, Note_on_c, 0, 66, 100
2, 9337320, Note_on_c, 0, 66, 0
2, 9337320, Note_on_c, 0, 64, 100
2, 9337440, Note_on_c, 0, 64, 0
2, 9337440, Note_on_c, 0, 63, 100
2, 9337560, Note_on_c, 0, 63, 0
2, 9337560, Note_on_c, 0, 64, 100
2, 9337680, Note_on_c, 0, 64, 0
2, 9337680, Note_on_c, 0, 66, 100
2, 9337800, Note_on_c, 0, 66, 0
2, 9337800, Note_on_c, 0, 67, 100
2, 9337920, Note_on_c, 0, 67, 0
2, 9337920, Note_on_c, 0, 64, 100
2, 9338040, Note_on_c, 0, 64, 0
2, 9338040, Note_on_c, 0, 62, 100
2, 9338160, Note_on_c, 0, 62, 0
2, 9338160, Note_on_c, 0, 60, 100
2, 9338280, Note_on_c, 0, 60, 0
2, 9338280, Note_on_c, 0, 62, 100
2, 9338520, Note_on_c, 0, 62, 0
2, 9338520, Note_on_c, 0, 60, 100
2, 9338640, Note_on_c, 0, 60, 0
2, 9338640, Note_on_c, 0, 59, 100
2, 9338720, Note_on_c, 0, 59, 0
2, 9338720, Note_on_c, 0, 60, 100
2, 9338800, Note_on_c, 0, 60, 0
2, 9338800, Note_on_c, 0, 59, 100
2, 9338880, Note_on_c, 0, 59, 0
2, 9338880, Note_on_c, 0, 60, 100
2, 9339120, Note_on_c, 0, 60, 0
2, 9339120, Note_on_c, 0, 67, 100
2, 9339600, Note_on_c, 0, 67, 0
2, 9339600, Note_on_c, 0, 66, 100
2, 9340320, Note_on_c, 0, 66, 0
2, 9340320, Note_on_c, 0, 64, 100
2, 9340800, Note_on_c, 0, 64, 0
2, 9340800, Note_on_c, 0, 66, 100
2, 9341040, Note_on_c, 0, 66, 0
2, 9341040, Note_on_c, 0, 69, 100
2, 9341280, Note_on_c, 0, 69, 0
2, 9341280, Note_on_c, 0, 67, 100
2, 9341400, Note_on_c, 0, 67, 0
2, 9341400, Note_on_c, 0, 69, 100
2, 9341520, Note_on_c, 0, 69, 0
2, 9341520, Note_on_c, 0, 72, 100
2, 9341640, Note_on_c, 0, 72, 0
2, 9341640, Note_on_c, 0, 71, 100
2, 9341760, Note_on_c, 0, 71, 0
2, 9341760, Note_on_c, 0, 69, 100
2, 9341880, Note_on_c, 0, 69, 0
2, 9341880, Note_on_c, 0, 67, 100
2, 9342000, Note_on_c, 0, 67, 0
2, 9342000, Note_on_c, 0, 69, 100
2, 9342480, Note_on_c, 0, 69, 0
2, 9342480, Note_on_c, 0, 71, 100
2, 9342960, Note_on_c, 0, 71, 0
2, 9342960, Note_on_c, 0, 76, 100
2, 9344160, Note_on_c, 0, 76, 0
2, 9344160, Note_on_c, 0, 74, 100
2, 9344400, Note_on_c, 0, 74, 0
2, 9344400, Note_on_c, 0, 72, 100
2, 9344640, Note_on_c, 0, 72, 0
2, 9344640, Note_on_c, 0, 71, 100
2, 9344880, Note_on_c, 0, 71, 0
2, 9344880, Note_on_c, 0, 74, 100
2, 9347760, Note_on_c, 0, 74, 0
2, 9347760, Note_on_c, 0, 71, 100
2, 9348000, Note_on_c, 0, 71, 0
2, 9348000, Note_on_c, 0, 73, 100
2, 9348240, Note_on_c, 0, 73, 0
2, 9348240, Note_on_c, 0, 75, 100
2, 9348480, Note_on_c, 0, 75, 0
2, 9348480, Note_on_c, 0, 76, 100
2, 9348720, Note_on_c, 0, 76, 0
2, 9348720, Note_on_c, 0, 71, 100
2, 9348960, Note_on_c, 0, 71, 0
2, 9348960, Note_on_c, 0, 76, 100
2, 9349200, Note_on_c, 0, 76, 0
2, 9349200, Note_on_c, 0, 78, 100
2, 9349440, Note_on_c, 0, 78, 0
2, 9349440, Note_on_c, 0, 79, 100
2, 9349680, Note_on_c, 0, 79, 0
2, 9349680, Note_on_c, 0, 73, 100
2, 9349920, Note_on_c, 0, 73, 0
2, 9349920, Note_on_c, 0, 77, 100
2, 9350160, Note_on_c, 0, 77, 0
2, 9350160, Note_on_c, 0, 76, 100
2, 9350880, Note_on_c, 0, 76, 0
2, 9350880, Note_on_c, 0, 75, 100
2, 9351000, Note_on_c, 0, 75, 0
2, 9351000, Note_on_c, 0, 76, 100
2, 9351120, Note_on_c, 0, 76, 0
2, 9351120, Note_on_c, 0, 72, 100
2, 9351840, Note_on_c, 0, 72, 0
2, 9351840, Note_on_c, 0, 71, 100
2, 9352320, Note_on_c, 0, 71, 0
2, 9352320, Note_on_c, 0, 69, 100
2, 9352440, Note_on_c, 0, 69, 0
2, 9352440, Note_on_c, 0, 67, 100
2, 9352560, Note_on_c, 0, 67, 0
2, 9352560, Note_on_c, 0, 66, 100
2, 9352680, Note_on_c, 0, 66, 0
2, 9352680, Note_on_c, 0, 64, 100
2, 9352800, Note_on_c, 0, 64, 0
2, 9352800, Note_on_c, 0, 63, 100
2, 9352920, Note_on_c, 0, 63, 0
2, 9352920, Note_on_c, 0, 64, 100
2, 9353040, Note_on_c, 0, 64, 0
2, 9353040, Note_on_c, 0, 66, 100
2, 9353160, Note_on_c, 0, 66, 0
2, 9353160, Note_on_c, 0, 67, 100
2, 9353280, Note_on_c, 0, 67, 0
2, 9353280, Note_on_c, 0, 64, 100
2, 9353400, Note_on_c, 0, 64, 0
2, 9353400, Note_on_c, 0, 62, 100
2, 9353520, Note_on_c, 0, 62, 0
2, 9353520, Note_on_c, 0, 60, 100
2, 9353640, Note_on_c, 0, 60, 0
2, 9353640, Note_on_c, 0, 62, 100
2, 9353880, Note_on_c, 0, 62, 0
2, 9353880, Note_on_c, 0, 60, 100
2, 9354000, Note_on_c, 0, 60, 0
2, 9354000, Note_on_c, 0, 59, 100
2, 9354080, Note_on_c, 0, 59, 0
2, 9354080, Note_on_c, 0, 60, 100
2, 9354160, Note_on_c, 0, 60, 0
2, 9354160, Note_on_c, 0, 59, 100
2, 9354240, Note_on_c, 0, 59, 0
2, 9354240, Note_on_c, 0, 60, 100
2, 9354480, Note_on_c, 0, 60, 0
2, 9354480, Note_on_c, 0, 67, 100
2, 9354960, Note_on_c, 0, 67, 0
2, 9354960, Note_on_c, 0, 66, 100
2, 9355680, Note_on_c, 0, 66, 0
2, 9355680, Note_on_c, 0, 64, 100
2, 9356160, Note_on_c, 0, 64, 0
2, 9356160, Note_on_c, 0, 66, 100
2, 9356400, Note_on_c, 0, 66, 0
2, 9356400, Note_on_c, 0, 69, 100
2, 9356640, Note_on_c, 0, 69, 0
2, 9356640, Note_on_c, 0, 67, 100
2, 9356760, Note_on_c, 0, 67, 0
2, 9356760, Note_on_c, 0, 69, 100
2, 9356880, Note_on_c, 0, 69, 0
2, 9356880, Note_on_c, 0, 72, 100
2, 9357000, Note_on_c, 0, 72, 0
2, 9357000, Note_on_c, 0, 71, 100
2, 9357120, Note_on_c, 0, 71, 0
2, 9357120, Note_on_c, 0, 69, 100
2, 9357240, Note_on_c, 0, 69, 0
2, 9357240, Note_on_c, 0, 67, 100
2, 9357360, Note_on_c, 0, 67, 0
2, 9357360, Note_on_c, 0, 69, 100
2, 9357840, Note_on_c, 0, 69, 0
2, 9357840, Note_on_c, 0, 71, 100
2, 9358320, Note_on_c, 0, 71, 0
2, 9358320, Note_on_c, 0, 76, 100
2, 9359520, Note_on_c, 0, 76, 0
2, 9359520, Note_on_c, 0, 74, 100
2, 9359760, Note_on_c, 0, 74, 0
2, 9359760, Note_on_c, 0, 72, 100
2, 9360000, Note_on_c, 0, 72, 0
2, 9360000, Note_on_c, 0, 71, 100
2, 9360240, Note_on_c, 0, 71, 0
2, 9360240, Note_on_c, 0, 62, 100
2, 9577920, Note_on_c, 0, 62, 0
2, 9577920, Note_on_c, 0, 64, 100
2, 9578040, Note_on_c, 0, 64, 0
2, 9578040, Note_on_c, 0, 62, 100
2, 9578160, Note_on_c, 0, 62, 0
2, 9578160, Note_on_c, 0, 60, 100
2, 9578400, Note_on_c, 0, 60, 0
2, 9578400, Note_on_c, 0, 59, 100
2, 9578520, Note_on_c, 0, 59, 0
2, 9578520, Note_on_c, 0, 57, 100
2, 9578640, Note_on_c, 0, 57, 0
2, 9578640, Note_on_c, 0, 59, 100
2, 9578760, Note_on_c, 0, 59, 0
2, 9578760, Note_on_c, 0, 60, 100
2, 9578880, Note_on_c, 0, 60, 0
2, 9578880, Note_on_c, 0, 62, 100
2, 9579000, Note_on_c, 0, 62, 0
2, 9579000, Note_on_c, 0, 55, 100
2, 9579120, Note_on_c, 0, 55, 0
2, 9579120, Note_on_c, 0, 60, 100
2, 9579240, Note_on_c, 0, 60, 0
2, 9579240, Note_on_c, 0, 59, 100
2, 9579360, Note_on_c, 0, 59, 0
2, 9579360, Note_on_c, 0, 57, 100
2, 9579480, Note_on_c, 0, 57, 0
2, 9579480, Note_on_c, 0, 55, 100
2, 9579600, Note_on_c, 0, 55, 0
2, 9579600, Note_on_c, 0, 54, 100
2, 9579720, Note_on_c, 0, 54, 0
2, 9579720, Note_on_c, 0, 52, 100
2, 9579840, Note_on_c, 0, 52, 0
2, 9579840, Note_on_c, 0, 50, 100
2, 9579960, Note_on_c, 0, 50, 0
2, 9579960, Note_on_c, 0, 49, 100
2, 9580080, Note_on_c, 0, 49, 0
2, 9580080, Note_on_c, 0, 50, 100
2, 9580800, Note_on_c, 0, 50, 0
2, 9580800, Note_on_c, 0, 52, 100
2, 9580920, Note_on_c, 0, 52, 0
2, 9580920, Note_on_c, 0, 54, 100
2, 9581040, Note_on_c, 0, 54, 0
2, 9581040, Note_on_c, 0, 55, 100
2, 9581160, Note_on_c, 0, 55, 0
2, 9581160, Note_on_c, 0, 57, 100
2, 9581280, Note_on_c, 0, 57, 0
2, 9581280, Note_on_c, 0, 59, 100
2, 9581400, Note_on_c, 0, 59, 0
2, 9581400, Note_on_c, 0, 60, 100
2, 9581520, Note_on_c, 0, 60, 0
2, 9581520, Note_on_c, 0, 62, 100
2, 9581640, Note_on_c, 0, 62, 0
2, 9581640, Note_on_c, 0, 64, 100
2, 9581760, Note_on_c, 0, 64, 0
2, 9581760, Note_on_c, 0, 62, 100
2, 9582000, Note_on_c, 0, 62, 0
2, 9582000, Note_on_c, 0, 64, 100
2, 9582240, Note_on_c, 0, 64, 0
2, 9582240, Note_on_c, 0, 66, 100
2, 9582360, Note_on_c, 0, 66, 0
2, 9582360, Note_on_c, 0, 67, 100
2, 9582480, Note_on_c, 0, 67, 0
2, 9582480, Note_on_c, 0, 55, 100
2, 9583560, Note_on_c, 0, 55, 0
2, 9583560, Note_on_c, 0, 59, 100
2, 9584040, Note_on_c, 0, 59, 0
2, 9584040, Note_on_c, 0, 60, 100
2, 9584160, Note_on_c, 0, 60, 0
2, 9584160, Note_on_c, 0, 62, 100
2, 9584280, Note_on_c, 0, 62, 0
2, 9584280, Note_on_c, 0, 64, 100
2, 9584400, Note_on_c, 0, 64, 0
2, 9584400, Note_on_c, 0, 66, 100
2, 9584520, Note_on_c, 0, 66, 0
2, 9584520, Note_on_c, 0, 67, 100
2, 9584640, Note_on_c, 0, 67, 0
2, 9584640, Note_on_c, 0, 64, 100
2, 9584760, Note_on_c, 0, 64, 0
2, 9584760, Note_on_c, 0, 66, 100
2, 9584880, Note_on_c, 0, 66, 0
2, 9584880, Note_on_c, 0, 62, 100
2, 9585000, Note_on_c, 0, 62, 0
2, 9585000, Note_on_c, 0, 57, 100
2, 9585120, Note_on_c, 0, 57, 0
2, 9585120, Note_on_c, 0, 55, 100
2, 9585240, Note_on_c, 0, 55, 0
2, 9585240, Note_on_c, 0, 54, 100
2, 9585360, Note_on_c, 0, 54, 0
2, 9585360, Note_on_c, 0, 60, 100
2, 9586080, Note_on_c, 0, 60, 0
2, 9586080, Note_on_c, 0, 59, 100
2, 9586440, Note_on_c, 0, 59, 0
2, 9586440, Note_on_c, 0, 64, 100
2, 9586560, Note_on_c, 0, 64, 0
2, 9586560, Note_on_c, 0, 62, 100
2, 9586680, Note_on_c, 0, 62, 0
2, 9586680, Note_on_c, 0, 60, 100
2, 9586800, Note_on_c, 0, 60, 0
2, 9586800, Note_on_c, 0, 62, 100
2, 9586920, Note_on_c, 0, 62, 0
2, 9586920, Note_on_c, 0, 64, 100
2, 9587040, Note_on_c, 0, 64, 0
2, 9587040, Note_on_c, 0, 54, 100
2, 9587160, Note_on_c, 0, 54, 0
2, 9587160, Note_on_c, 0, 55, 100
2, 9587280, Note_on_c, 0, 55, 0
2, 9587280, Note_on_c, 0, 57, 100
2, 9587400, Note_on_c, 0, 57, 0
2, 9587400, Note_on_c, 0, 59, 100
2, 9587520, Note_on_c, 0, 59, 0
2, 9587520, Note_on_c, 0, 60, 100
2, 9587640, Note_on_c, 0, 60, 0
2, 9587640, Note_on_c, 0, 62, 100
2, 9587760, Note_on_c, 0, 62, 0
2, 9587760, Note_on_c, 0, 64, 100
2, 9589320, Note_on_c, 0, 64, 0
2, 9589320, Note_on_c, 0, 62, 100
2, 9589440, Note_on_c, 0, 62, 0
2, 9589440, Note_on_c, 0, 61, 100
2, 9589560, Note_on_c, 0, 61, 0
2, 9589560, Note_on_c, 0, 59, 100
2, 9589680, Note_on_c, 0, 59, 0
2, 9589680, Note_on_c, 0, 57, 100
2, 9589800, Note_on_c, 0, 57, 0
2, 9589800, Note_on_c, 0, 55, 100
2, 9589920, Note_on_c, 0, 55, 0
2, 9589920, Note_on_c, 0, 52, 100
2, 9590040, Note_on_c, 0, 52, 0
2, 9590040, Note_on_c, 0, 54, 100
2, 9590160, Note_on_c, 0, 54, 0
2, 9590160, Note_on_c, 0, 55, 100
2, 9590280, Note_on_c, 0, 55, 0
2, 9590280, Note_on_c, 0, 57, 100
2, 9590400, Note_on_c, 0, 57, 0
2, 9590400, Note_on_c, 0, 59, 100
2, 9590520, Note_on_c, 0, 59, 0
2, 9590520, Note_on_c, 0, 61, 100
2, 9590640, Note_on_c, 0, 61, 0
2, 9590640, Note_on_c, 0, 62, 100
2, 9590760, Note_on_c, 0, 62, 0
2, 9590760, Note_on_c, 0, 64, 100
2, 9590880, Note_on_c, 0, 64, 0
2, 9590880, Note_on_c, 0, 66, 100
2, 9591000, Note_on_c, 0, 66, 0
2, 9591000, Note_on_c, 0, 67, 100
2, 9591120, Note_on_c, 0, 67, 0
2, 9591120, Note_on_c, 0, 57, 100
2, 9592320, Note_on_c, 0, 57, 0
2, 9592320, Note_on_c, 0, 59, 100
2, 9592680, Note_on_c, 0, 59, 0
2, 9592680, Note_on_c, 0, 61, 100
2, 9592800, Note_on_c, 0, 61, 0
2, 9592800, Note_on_c, 0, 59, 100
2, 9592920, Note_on_c, 0, 59, 0
2, 9592920, Note_on_c, 0, 57, 100
2, 9593040, Note_on_c, 0, 57, 0
2, 9593040, Note_on_c, 0, 55, 100
2, 9593160, Note_on_c, 0, 55, 0
2, 9593160, Note_on_c, 0, 54, 100
2, 9593280, Note_on_c, 0, 54, 0
2, 9593280, Note_on_c, 0, 52, 100
2, 9593400, Note_on_c, 0, 52, 0
2, 9593400, Note_on_c, 0, 50, 100
2, 9593520, Note_on_c, 0, 50, 0
2, 9593520, Note_on_c, 0, 62, 100
2, 9593760, Note_on_c, 0, 62, 0
2, 9593760, Note_on_c, 0, 64, 100
2, 9593880, Note_on_c, 0, 64, 0
2, 9593880, Note_on_c, 0, 62, 100
2, 9594000, Note_on_c, 0, 62, 0
2, 9594000, Note_on_c, 0, 59, 100
2, 9594600, Note_on_c, 0, 59, 0
2, 9594600, Note_on_c, 0, 61, 100
2, 9594720, Note_on_c, 0, 61, 0
2, 9594720, Note_on_c, 0, 62, 100
2, 9594840, Note_on_c, 0, 62, 0
2, 9594840, Note_on_c, 0, 64, 100
2, 9594960, Note_on_c, 0, 64, 0
2, 9594960, Note_on_c, 0, 66, 100
2, 9595080, Note_on_c, 0, 66, 0
2, 9595080, Note_on_c, 0, 64, 100
2, 9595200, Note_on_c, 0, 64, 0
2, 9595200, Note_on_c, 0, 62, 100
2, 9595320, Note_on_c, 0, 62, 0
2, 9595320, Note_on_c, 0, 64, 100
2, 9595440, Note_on_c, 0, 64, 0
2, 9595440, Note_on_c, 0, 61, 100
2, 9595560, Note_on_c, 0, 61, 0
2, 9595560, Note_on_c, 0, 62, 100
2, 9595680, Note_on_c, 0, 62, 0
2, 9595680, Note_on_c, 0, 64, 100
2, 9595800, Note_on_c, 0, 64, 0
2, 9595800, Note_on_c, 0, 66, 100
2, 9595920, Note_on_c, 0, 66, 0
2, 9595920, Note_on_c, 0, 55, 100
2, 9596640, Note_on_c, 0, 55, 0
2, 9596640, Note_on_c, 0, 57, 100
2, 9596880, Note_on_c, 0, 57, 0
2, 9596880, Note_on_c, 0, 59, 100
2, 9597120, Note_on_c, 0, 59, 0
2, 9597120, Note_on_c, 0, 61, 100
2, 9597360, Note_on_c, 0, 61, 0
2, 9597360, Note_on_c, 0, 52, 100
2, 9597600, Note_on_c, 0, 52, 0
2, 9597600, Note_on_c, 0, 62, 100
2, 9597840, Note_on_c, 0, 62, 0
2, 9597840, Note_on_c, 0, 64, 100
2, 9598560, Note_on_c, 0, 64, 0
2, 9598560, Note_on_c, 0, 66, 100
2, 9598800, Note_on_c, 0, 66, 0
2, 9598800, Note_on_c, 0, 61, 100
2, 9598920, Note_on_c, 0, 61, 0
2, 9598920, Note_on_c, 0, 62, 100
2, 9600960, Note_on_c, 0, 62, 0
2, 9600960, Note_on_c, 0, 64, 100
2, 9601080, Note_on_c, 0, 64, 0
2, 9601080, Note_on_c, 0, 62, 100
2, 9601200, Note_on_c, 0, 62, 0
2, 9601200, Note_on_c, 0, 60, 100
2, 9601440, Note_on_c, 0, 60, 0
2, 9601440, Note_on_c, 0, 59, 100
2, 9601560, Note_on_c, 0, 59, 0
2, 9601560, Note_on_c, 0, 57, 100
2, 9601680, Note_on_c, 0, 57, 0
2, 9601680, Note_on_c, 0, 59, 100
2, 9601800, Note_on_c, 0, 59, 0
2, 9601800, Note_on_c, 0, 60, 100
2, 9601920, Note_on_c, 0, 60, 0
2, 9601920, Note_on_c, 0, 62, 100
2, 9602040, Note_on_c, 0, 62, 0
2, 9602040, Note_on_c, 0, 55, 100
2, 9602160, Note_on_c, 0, 55, 0
2, 9602160, Note_on_c, 0, 60, 100
2, 9602280, Note_on_c, 0, 60, 0
2, 9602280, Note_on_c, 0, 59, 100
2, 9602400, Note_on_c, 0, 59, 0
2, 9602400, Note_on_c, 0, 57, 100
2, 9602520, Note_on_c, 0, 57, 0
2, 9602520, Note_on_c, 0, 55, 100
2, 9602640, Note_on_c, 0, 55, 0
2, 9602640, Note_on_c, 0, 54, 100
2, 9602760, Note_on_c, 0, 54, 0
2, 9602760, Note_on_c, 0, 52, 100
2, 9602880, Note_on_c, 0, 52, 0
2, 9602880, Note_on_c, 0, 50, 100
2, 9603000, Note_on_c, 0, 50, 0
2, 9603000, Note_on_c, 0, 49, 100
2, 9603120, Note_on_c, 0, 49, 0
2, 9603120, Note_on_c, 0, 50, 100
2, 9603840, Note_on_c, 0, 50, 0
2, 9603840, Note_on_c, 0, 52, 100
2, 9603960, Note_on_c, 0, 52, 0
2, 9603960, Note_on_c, 0, 54, 100
2, 9604080, Note_on_c, 0, 54, 0
2, 9604080, Note_on_c, 0, 55, 100
2, 9604200, Note_on_c, 0, 55, 0
2, 9604200, Note_on_c, 0, 57, 100
2, 9604320, Note_on_c, 0, 57, 0
2, 9604320, Note_on_c, 0, 59, 100
2, 9604440, Note_on_c, 0, 59, 0
2, 9604440, Note_on_c, 0, 60, 100
2, 9604560, Note_on_c, 0, 60, 0
2, 9604560, Note_on_c, 0, 62, 100
2, 9604680, Note_on_c, 0, 62, 0
2, 9604680, Note_on_c, 0, 64, 100
2, 9604800, Note_on_c, 0, 64, 0
2, 9604800, Note_on_c, 0, 62, 100
2, 9605040, Note_on_c, 0, 62, 0
2, 9605040, Note_on_c, 0, 64, 100
2, 9605280, Note_on_c, 0, 64, 0
2, 9605280, Note_on_c, 0, 66, 100
2, 9605400, Note_on_c, 0, 66, 0
2, 9605400, Note_on_c, 0, 67, 100
2, 9605520, Note_on_c, 0, 67, 0
2, 9605520, Note_on_c, 0, 55, 100
2, 9606600, Note_on_c, 0, 55, 0
2, 9606600, Note_on_c, 0, 59, 100
2, 9607080, Note_on_c, 0, 59, 0
2, 9607080, Note_on_c, 0, 60, 100
2, 9607200, Note_on_c, 0, 60, 0
2, 9607200, Note_on_c, 0, 62, 100
2, 9607320, Note_on_c, 0, 62, 0
2, 9607320, Note_on_c, 0, 64, 100
2, 9607440, Note_on_c, 0, 64, 0
2, 9607440, Note_on_c, 0, 66, 100
2, 9607560, Note_on_c, 0, 66, 0
2, 9607560, Note_on_c, 0, 67, 100
2, 9607680, Note_on_c, 0, 67, 0
2, 9607680, Note_on_c, 0, 64, 100
2, 9607800, Note_on_c, 0, 64, 0
2, 9607800, Note_on_c, 0, 66, 100
2, 9607920, Note_on_c, 0, 66, 0
2, 9607920, Note_on_c, 0, 62, 100
2, 9608040, Note_on_c, 0, 62, 0
2, 9608040, Note_on_c, 0, 57, 100
2, 9608160, Note_on_c, 0, 57, 0
2, 9608160, Note_on_c, 0, 55, 100
2, 9608280, Note_on_c, 0, 55, 0
2, 9608280, Note_on_c, 0, 54, 100
2, 9608400, Note_on_c, 0, 54, 0
2, 9608400, Note_on_c, 0, 60, 100
2, 9609120, Note_on_c, 0, 60, 0
2, 9609120, Note_on_c, 0, 59, 100
2, 9609480, Note_on_c, 0, 59, 0
2, 9609480, Note_on_c, 0, 64, 100
2, 9609600, Note_on_c, 0, 64, 0
2, 9609600, Note_on_c, 0, 62, 100
2, 9609720, Note_on_c, 0, 62, 0
2, 9609720, Note_on_c, 0, 60, 100
2, 9609840, Note_on_c, 0, 60, 0
2, 9609840, Note_on_c, 0, 62, 100
2, 9609960, Note_on_c, 0, 62, 0
2, 9609960, Note_on_c, 0, 64, 100
2, 9610080, Note_on_c, 0, 64, 0
2, 9610080, Note_on_c, 0, 54, 100
2, 9610200, Note_on_c, 0, 54, 0
2, 9610200, Note_on_c, 0, 55, 100
2, 9610320, Note_on_c, 0, 55, 0
2, 9610320, Note_on_c, 0, 57, 100
2, 9610440, Note_on_c, 0, 57, 0
2, 9610440, Note_on_c, 0, 59, 100
2, 9610560, Note_on_c, 0, 59, 0
2, 9610560, Note_on_c, 0, 60, 100
2, 9610680, Note_on_c, 0, 60, 0
2, 9610680, Note_on_c, 0, 62, 100
2, 9610800, Note_on_c, 0, 62, 0
2, 9610800, Note_on_c, 0, 64, 100
2, 9612360, Note_on_c, 0, 64, 0
2, 9612360, Note_on_c, 0, 62, 100
2, 9612480, Note_on_c, 0, 62, 0
2, 9612480, Note_on_c, 0, 61, 100
2, 9612600, Note_on_c, 0, 61, 0
2, 9612600, Note_on_c, 0, 59, 100
2, 9612720, Note_on_c, 0, 59, 0
2, 9612720, Note_on_c, 0, 57, 100
2, 9612840, Note_on_c, 0, 57, 0
2, 9612840, Note_on_c, 0, 55, 100
2, 9612960, Note_on_c, 0, 55, 0
2, 9612960, Note_on_c, 0, 52, 100
2, 9613080, Note_on_c, 0, 52, 0
2, 9613080, Note_on_c, 0, 54, 100
2, 9613200, Note_on_c, 0, 54, 0
2, 9613200, Note_on_c, 0, 55, 100
2, 9613320, Note_on_c, 0, 55, 0
2, 9613320, Note_on_c, 0, 57, 100
2, 9613440, Note_on_c, 0, 57, 0
2, 9613440, Note_on_c, 0, 59, 100
2, 9613560, Note_on_c, 0, 59, 0
2, 9613560, Note_on_c, 0, 61, 100
2, 9613680, Note_on_c, 0, 61, 0
2, 9613680, Note_on_c, 0, 62, 100
2, 9613800, Note_on_c, 0, 62, 0
2, 9613800, Note_on_c, 0, 64, 100
2, 9613920, Note_on_c, 0, 64, 0
2, 9613920, Note_on_c, 0, 66, 100
2, 9614040, Note_on_c, 0, 66, 0
2, 9614040, Note_on_c, 0, 67, 100
2, 9614160, Note_on_c, 0, 67, 0
2, 9614160, Note_on_c, 0, 57, 100
2, 9615360, Note_on_c, 0, 57, 0
2, 9615360, Note_on_c, 0, 59, 100
2, 9615720, Note_on_c, 0, 59, 0
2, 9615720, Note_on_c, 0, 61, 100
2, 9615840, Note_on_c, 0, 61, 0
2, 9615840, Note_on_c, 0, 59, 100
2, 9615960, Note_on_c, 0, 59, 0
2, 9615960, Note_on_c, 0, 57, 100
2, 9616080, Note_on_c, 0, 57, 0
2, 9616080, Note_on_c, 0, 55, 100
2, 9616200, Note_on_c, 0, 55, 0
2, 9616200, Note_on_c, 0, 54, 100
2, 9616320, Note_on_c, 0, 54, 0
2, 9616320, Note_on_c, 0, 52, 100
2, 9616440, Note_on_c, 0, 52, 0
2, 9616440, Note_on_c, 0, 50, 100
2, 9616560, Note_on_c, 0, 50, 0
2, 9616560, Note_on_c, 0, 62, 100
2, 9616800, Note_on_c, 0, 62, 0
2, 9616800, Note_on_c, 0, 64, 100
2, 9616920, Note_on_c, 0, 64, 0
2, 9616920, Note_on_c, 0, 62, 100
2, 9617040, Note_on_c, 0, 62, 0
2, 9617040, Note_on_c, 0, 59, 100
2, 9617640, Note_on_c, 0, 59, 0
2, 9617640, Note_on_c, 0, 61, 100
2, 9617760, Note_on_c, 0, 61, 0
2, 9617760, Note_on_c, 0, 62, 100
2, 9617880, Note_on_c, 0, 62, 0
2, 9617880, Note_on_c, 0, 64, 100
2, 9618000, Note_on_c, 0, 64, 0
2, 9618000, Note_on_c, 0, 66, 100
2, 9618120, Note_on_c, 0, 66, 0
2, 9618120, Note_on_c, 0, 64, 100
2, 9618240, Note_on_c, 0, 64, 0
2, 9618240, Note_on_c, 0, 62, 100
2, 9618360, Note_on_c, 0, 62, 0
2, 9618360, Note_on_c, 0, 64, 100
2, 9618480, Note_on_c, 0, 64, 0
2, 9618480, Note_on_c, 0, 61, 100
2, 9618600, Note_on_c, 0, 61, 0
2, 9618600, Note_on_c, 0, 62, 100
2, 9618720, Note_on_c, 0, 62, 0
2, 9618720, Note_on_c, 0, 64, 100
2, 9618840, Note_on_c, 0, 64, 0
2, 9618840, Note_on_c, 0, 66, 100
2, 9618960, Note_on_c, 0, 66, 0
2, 9618960, Note_on_c, 0, 55, 100
2, 9619680, Note_on_c, 0, 55, 0
2, 9619680, Note_on_c, 0, 57, 100
2, 9619920, Note_on_c, 0, 57, 0
2, 9619920, Note_on_c, 0, 59, 100
2, 9620160, Note_on_c, 0, 59, 0
2, 9620160, Note_on_c, 0, 61, 100
2, 9620400, Note_on_c, 0, 61, 0
2, 9620400, Note_on_c, 0, 52, 100
2, 9620640, Note_on_c, 0, 52, 0
2, 9620640, Note_on_c, 0, 62, 100
2, 9620880, Note_on_c, 0, 62, 0
2, 9620880, Note_on_c, 0, 64, 100
2, 9621600, Note_on_c, 0, 64, 0
2, 9621600, Note_on_c, 0, 66, 100
2, 9621840, Note_on_c, 0, 66, 0
2, 9621840, Note_on_c, 0, 61, 100
2, 9621960, Note_on_c, 0, 61, 0
2, 9621960, Note_on_c, 0, 62, 100
2, 9622560, Note_on_c, 0, 62, 0
2, 9622560, Note_on_c, 0, 64, 100
2, 9622680, Note_on_c, 0, 64, 0
2, 9622680, Note_on_c, 0, 62, 100
2, 9622800, Note_on_c, 0, 62, 0
2, 9622800, Note_on_c, 0, 60, 100
2, 9623040, Note_on_c, 0, 60, 0
2, 9623040, Note_on_c, 0, 59, 100
2, 9623160, Note_on_c, 0, 59, 0
2, 9623160, Note_on_c, 0, 57, 100
2, 9623280, Note_on_c, 0, 57, 0
2, 9623280, Note_on_c, 0, 59, 100
2, 9623400, Note_on_c, 0, 59, 0
2, 9623400, Note_on_c, 0, 60, 100
2, 9623520, Note_on_c, 0, 60, 0
2, 9623520, Note_on_c, 0, 62, 100
2, 9623640, Note_on_c, 0, 62, 0
2, 9623640, Note_on_c, 0, 50, 100
2, 9623760, Note_on_c, 0, 50, 0
2, 9623760, Note_on_c, 0, 52, 100
2, 9624360, Note_on_c, 0, 52, 0
2, 9624360, Note_on_c, 0, 48, 100
2, 9624480, Note_on_c, 0, 48, 0
2, 9624480, Note_on_c, 0, 50, 100
2, 9624600, Note_on_c, 0, 50, 0
2, 9624600, Note_on_c, 0, 52, 100
2, 9624720, Note_on_c, 0, 52, 0
2, 9624720, Note_on_c, 0, 50, 100
2, 9624840, Note_on_c, 0, 50, 0
2, 9624840, Note_on_c, 0, 53, 100
2, 9625200, Note_on_c, 0, 53, 0
2, 9625200, Note_on_c, 0, 52, 100
2, 9625320, Note_on_c, 0, 52, 0
2, 9625320, Note_on_c, 0, 53, 100
2, 9625500, Note_on_c, 0, 53, 0
2, 9625500, Note_on_c, 0, 52, 100
2, 9625560, Note_on_c, 0, 52, 0
2, 9625560, Note_on_c, 0, 51, 100
2, 9625620, Note_on_c, 0, 51, 0
2, 9625620, Note_on_c, 0, 52, 100
2, 9625680, Note_on_c, 0, 52, 0
2, 9625680, Note_on_c, 0, 60, 100
2, 9625920, Note_on_c, 0, 60, 0
2, 9625920, Note_on_c, 0, 52, 100
2, 9626400, Note_on_c, 0, 52, 0
2, 9626400, Note_on_c, 0, 51, 100
2, 9626640, Note_on_c, 0, 51, 0
2, 9626640, Note_on_c, 0, 52, 100
2, 9626760, Note_on_c, 0, 52, 0
2, 9626760, Note_on_c, 0, 51, 100
2, 9626880, Note_on_c, 0, 51, 0
2, 9626880, Note_on_c, 0, 49, 100
2, 9627000, Note_on_c, 0, 49, 0
2, 9627000, Note_on_c, 0, 51, 100
2, 9627120, Note_on_c, 0, 51, 0
2, 9627120, Note_on_c, 0, 52, 100
2, 9627240, Note_on_c, 0, 52, 0
2, 9627240, Note_on_c, 0, 54, 100
2, 9627360, Note_on_c, 0, 54, 0
2, 9627360, Note_on_c, 0, 55, 100
2, 9627480, Note_on_c, 0, 55, 0
2, 9627480, Note_on_c, 0, 57, 100
2, 9627600, Note_on_c, 0, 57, 0
2, 9627600, Note_on_c, 0, 59, 100
2, 9627720, Note_on_c, 0, 59, 0
2, 9627720, Note_on_c, 0, 61, 100
2, 9627840, Note_on_c, 0, 61, 0
2, 9627840, Note_on_c, 0, 63, 100
2, 9627960, Note_on_c, 0, 63, 0
2, 9627960, Note_on_c, 0, 64, 100
2, 9629760, Note_on_c, 0, 64, 0
2, 9629760, Note_on_c, 0, 63, 100
2, 9629880, Note_on_c, 0, 63, 0
2, 9629880, Note_on_c, 0, 64, 100
2, 9630480, Note_on_c, 0, 64, 0
2, 9630480, Note_on_c, 0, 63, 100
2, 9630720, Note_on_c, 0, 63, 0
2, 9630720, Note_on_c, 0, 61, 100
2, 9630840, Note_on_c, 0, 61, 0
2, 9630840, Note_on_c, 0, 63, 100
2, 9630960, Note_on_c, 0, 63, 0
2, 9630960, Note_on_c, 0, 66, 100
2, 9631920, Note_on_c, 0, 66, 0
2, 9631920, Note_on_c, 0, 64, 100
2, 9632520, Note_on_c, 0, 64, 0
2, 9632520, Note_on_c, 0, 63, 100
2, 9632640, Note_on_c, 0, 63, 0
2, 9632640, Note_on_c, 0, 66, 100
2, 9632760, Note_on_c, 0, 66, 0
2, 9632760, Note_on_c, 0, 64, 100
2, 9632880, Note_on_c, 0, 64, 0
2, 9632880, Note_on_c, 0, 62, 100
2, 9633000, Note_on_c, 0, 62, 0
2, 9633000, Note_on_c, 0, 61, 100
2, 9633120, Note_on_c, 0, 61, 0
2, 9633120, Note_on_c, 0, 60, 100
2, 9633240, Note_on_c, 0, 60, 0
2, 9633240, Note_on_c, 0, 59, 100
2, 9633360, Note_on_c, 0, 59, 0
2, 9633360, Note_on_c, 0, 57, 100
2, 9633480, Note_on_c, 0, 57, 0
2, 9633480, Note_on_c, 0, 55, 100
2, 9633600, Note_on_c, 0, 55, 0
2, 9633600, Note_on_c, 0, 54, 100
2, 9633720, Note_on_c, 0, 54, 0
2, 9633720, Note_on_c, 0, 55, 100
2, 9633840, Note_on_c, 0, 55, 0
2, 9633840, Note_on_c, 0, 69, 100
2, 9635400, Note_on_c, 0, 69, 0
2, 9635400, Note_on_c, 0, 68, 100
2, 9635520, Note_on_c, 0, 68, 0
2, 9635520, Note_on_c, 0, 66, 100
2, 9635640, Note_on_c, 0, 66, 0
2, 9635640, Note_on_c, 0, 68, 100
2, 9635760, Note_on_c, 0, 68, 0
2, 9635760, Note_on_c, 0, 65, 100
2, 9635880, Note_on_c, 0, 65, 0
2, 9635880, Note_on_c, 0, 64, 100
2, 9636000, Note_on_c, 0, 64, 0
2, 9636000, Note_on_c, 0, 62, 100
2, 9636120, Note_on_c, 0, 62, 0
2, 9636120, Note_on_c, 0, 64, 100
2, 9636240, Note_on_c, 0, 64, 0
2, 9636240, Note_on_c, 0, 62, 100
2, 9636360, Note_on_c, 0, 62, 0
2, 9636360, Note_on_c, 0, 60, 100
2, 9636480, Note_on_c, 0, 60, 0
2, 9636480, Note_on_c, 0, 59, 100
2, 9636600, Note_on_c, 0, 59, 0
2, 9636600, Note_on_c, 0, 60, 100
2, 9636720, Note_on_c, 0, 60, 0
2, 9636720, Note_on_c, 0, 67, 100
2, 9638400, Note_on_c, 0, 67, 0
2, 9638400, Note_on_c, 0, 66, 100
2, 9638640, Note_on_c, 0, 66, 0
2, 9638640, Note_on_c, 0, 64, 100
2, 9638880, Note_on_c, 0, 64, 0
2, 9638880, Note_on_c, 0, 62, 100
2, 9639120, Note_on_c, 0, 62, 0
2, 9639120, Note_on_c, 0, 59, 100
2, 9639240, Note_on_c, 0, 59, 0
2, 9639240, Note_on_c, 0, 60, 100
2, 9639360, Note_on_c, 0, 60, 0
2, 9639360, Note_on_c, 0, 57, 100
2, 9639480, Note_on_c, 0, 57, 0
2, 9639480, Note_on_c, 0, 59, 100
2, 9639600, Note_on_c, 0, 59, 0
2, 9639600, Note_on_c, 0, 60, 100
2, 9639840, Note_on_c, 0, 60, 0
2, 9639840, Note_on_c, 0, 59, 100
2, 9640080, Note_on_c, 0, 59, 0
2, 9640080, Note_on_c, 0, 57, 100
2, 9640560, Note_on_c, 0, 57, 0
2, 9640560, Note_on_c, 0, 55, 100
2, 9640640, Note_on_c, 0, 55, 0
2, 9640640, Note_on_c, 0, 57, 100
2, 9640720, Note_on_c, 0, 57, 0
2, 9640720, Note_on_c, 0, 55, 100
2, 9640800, Note_on_c, 0, 55, 0
2, 9640800, Note_on_c, 0, 54, 100
2, 9640920, Note_on_c, 0, 54, 0
2, 9640920, Note_on_c, 0, 55, 100
2, 9641040, Note_on_c, 0, 55, 0
2, 9641040, Note_on_c, 0, 59, 100
2, 9641640, Note_on_c, 0, 59, 0
2, 9641640, Note_on_c, 0, 57, 100
2, 9641760, Note_on_c, 0, 57, 0
2, 9641760, Note_on_c, 0, 55, 100
2, 9641880, Note_on_c, 0, 55, 0
2, 9641880, Note_on_c, 0, 54, 100
2, 9642000, Note_on_c, 0, 54, 0
2, 9642000, Note_on_c, 0, 52, 100
2, 9642120, Note_on_c, 0, 52, 0
2, 9642120, Note_on_c, 0, 50, 100
2, 9642240, Note_on_c, 0, 50, 0
2, 9642240, Note_on_c, 0, 48, 100
2, 9642360, Note_on_c, 0, 48, 0
2, 9642360, Note_on_c, 0, 47, 100
2, 9642480, Note_on_c, 0, 47, 0
2, 9642480, Note_on_c, 0, 50, 100
2, 9642600, Note_on_c, 0, 50, 0
2, 9642600, Note_on_c, 0, 55, 100
2, 9642720, Note_on_c, 0, 55, 0
2, 9642720, Note_on_c, 0, 59, 100
2, 9642840, Note_on_c, 0, 59, 0
2, 9642840, Note_on_c, 0, 62, 100
2, 9642960, Note_on_c, 0, 62, 0
2, 9642960, Note_on_c, 0, 55, 100
2, 9643200, Note_on_c, 0, 55, 0
2, 9643200, Note_on_c, 0, 57, 100
2, 9643560, Note_on_c, 0, 57, 0
2, 9643560, Note_on_c, 0, 54, 100
2, 9643680, Note_on_c, 0, 54, 0
2, 9643680, Note_on_c, 0, 55, 100
2, 9643920, Note_on_c, 0, 55, 0
2, 9643920, Note_on_c, 0, 62, 100
2, 9645600, Note_on_c, 0, 62, 0
2, 9645600, Note_on_c, 0, 64, 100
2, 9645720, Note_on_c, 0, 64, 0
2, 9645720, Note_on_c, 0, 62, 100
2, 9645840, Note_on_c, 0, 62, 0
2, 9645840, Note_on_c, 0, 60, 100
2, 9646080, Note_on_c, 0, 60, 0
2, 9646080, Note_on_c, 0, 59, 100
2, 9646200, Note_on_c, 0, 59, 0
2, 9646200, Note_on_c, 0, 57, 100
2, 9646320, Note_on_c, 0, 57, 0
2, 9646320, Note_on_c, 0, 59, 100
2, 9646440, Note_on_c, 0, 59, 0
2, 9646440, Note_on_c, 0, 60, 100
2, 9646560, Note_on_c, 0, 60, 0
2, 9646560, Note_on_c, 0, 62, 100
2, 9646680, Note_on_c, 0, 62, 0
2, 9646680, Note_on_c, 0, 50, 100
2, 9646800, Note_on_c, 0, 50, 0
2, 9646800, Note_on_c, 0, 52, 100
2, 9647400, Note_on_c, 0, 52, 0
2, 9647400, Note_on_c, 0, 48, 100
2, 9647520, Note_on_c, 0, 48, 0
2, 9647520, Note_on_c, 0, 50, 100
2, 9647640, Note_on_c, 0, 50, 0
2, 9647640, Note_on_c, 0, 52, 100
2, 9647760, Note_on_c, 0, 52, 0
2, 9647760, Note_on_c, 0, 50, 100
2, 9647880, Note_on_c, 0, 50, 0
2, 9647880, Note_on_c, 0, 53, 100
2, 9648240, Note_on_c, 0, 53, 0
2, 9648240, Note_on_c, 0, 52, 100
2, 9648360, Note_on_c, 0, 52, 0
2, 9648360, Note_on_c, 0, 53, 100
2, 9648540, Note_on_c, 0, 53, 0
2, 9648540, Note_on_c, 0, 52, 100
2, 9648600, Note_on_c, 0, 52, 0
2, 9648600, Note_on_c, 0, 51, 100
2, 9648660, Note_on_c, 0, 51, 0
2, 9648660, Note_on_c, 0, 52, 100
2, 9648720, Note_on_c, 0, 52, 0
2, 9648720, Note_on_c, 0, 60, 100
2, 9648960, Note_on_c, 0, 60, 0
2, 9648960, Note_on_c, 0, 52, 100
2, 9649440, Note_on_c, 0, 52, 0
2, 9649440, Note_on_c, 0, 51, 100
2, 9649680, Note_on_c, 0, 51, 0
2, 9649680, Note_on_c, 0, 52, 100
2, 9649800, Note_on_c, 0, 52, 0
2, 9649800, Note_on_c, 0, 51, 100
2, 9649920, Note_on_c, 0, 51, 0
2, 9649920, Note_on_c, 0, 49, 100
2, 9650040, Note_on_c, 0, 49, 0
2, 9650040, Note_on_c, 0, 51, 100
2, 9650160, Note_on_c, 0, 51, 0
2, 9650160, Note_on_c, 0, 52, 100
2, 9650280, Note_on_c, 0, 52, 0
2, 9650280, Note_on_c, 0, 54, 100
2, 9650400, Note_on_c, 0, 54, 0
2, 9650400, Note_on_c, 0, 55, 100
2, 9650520, Note_on_c, 0, 55, 0
2, 9650520, Note_on_c, 0, 57, 100
2, 9650640, Note_on_c, 0, 57, 0
2, 9650640, Note_on_c, 0, 59, 100
2, 9650760, Note_on_c, 0, 59, 0
2, 9650760, Note_on_c, 0, 61, 100
2, 9650880, Note_on_c, 0, 61, 0
2, 9650880, Note_on_c, 0, 63, 100
2, 9651000, Note_on_c, 0, 63, 0
2, 9651000, Note_on_c, 0, 64, 100
2, 9652800, Note_on_c, 0, 64, 0
2, 9652800, Note_on_c, 0, 63, 100
2, 9652920, Note_on_c, 0, 63, 0
2, 9652920, Note_on_c, 0, 64, 100
2, 9653520, Note_on_c, 0, 64, 0
2, 9653520, Note_on_c, 0, 63, 100
2, 9653760, Note_on_c, 0, 63, 0
2, 9653760, Note_on_c, 0, 61, 100
2, 9653880, Note_on_c, 0, 61, 0
2, 9653880, Note_on_c, 0, 63, 100
2, 9654000, Note_on_c, 0, 63, 0
2, 9654000, Note_on_c, 0, 66, 100
2, 9654960, Note_on_c, 0, 66, 0
2, 9654960, Note_on_c, 0, 64, 100
2, 9655560, Note_on_c, 0, 64, 0
2, 9655560, Note_on_c, 0, 63, 100
2, 9655680, Note_on_c, 0, 63, 0
2, 9655680, Note_on_c, 0, 66, 100
2, 9655800, Note_on_c, 0, 66, 0
2, 9655800, Note_on_c, 0, 64, 100
2, 9655920, Note_on_c, 0, 64, 0
2, 9655920, Note_on_c, 0, 62, 100
2, 9656040, Note_on_c, 0, 62, 0
2, 9656040, Note_on_c, 0, 61, 100
2, 9656160, Note_on_c, 0, 61, 0
2, 9656160, Note_on_c, 0, 60, 100
2, 9656280, Note_on_c, 0, 60, 0
2, 9656280, Note_on_c, 0, 59, 100
2, 9656400, Note_on_c, 0, 59, 0
2, 9656400, Note_on_c, 0, 57, 100
2, 9656520, Note_on_c, 0, 57, 0
2, 9656520, Note_on_c, 0, 55, 100
2, 9656640, Note_on_c, 0, 55, 0
2, 9656640, Note_on_c, 0, 54, 100
2, 9656760, Note_on_c, 0, 54, 0
2, 9656760, Note_on_c, 0, 55, 100
2, 9656880, Note_on_c, 0, 55, 0
2, 9656880, Note_on_c, 0, 69, 100
2, 9658440, Note_on_c, 0, 69, 0
2, 9658440, Note_on_c, 0, 68, 100
2, 9658560, Note_on_c, 0, 68, 0
2, 9658560, Note_on_c, 0, 66, 100
2, 9658680, Note_on_c, 0, 66, 0
2, 9658680, Note_on_c, 0, 68, 100
2, 9658800, Note_on_c, 0, 68, 0
2, 9658800, Note_on_c, 0, 65, 100
2, 9658920, Note_on_c, 0, 65, 0
2, 9658920, Note_on_c, 0, 64, 100
2, 9659040, Note_on_c, 0, 64, 0
2, 9659040, Note_on_c, 0, 62, 100
2, 9659160, Note_on_c, 0, 62, 0
2, 9659160, Note_on_c, 0, 64, 100
2, 9659280, Note_on_c, 0, 64, 0
2, 9659280, Note_on_c, 0, 62, 100
2, 9659400, Note_on_c, 0, 62, 0
2, 9659400, Note_on_c, 0, 60, 100
2, 9659520, Note_on_c, 0, 60, 0
2, 9659520, Note_on_c, 0, 59, 100
2, 9659640, Note_on_c, 0, 59, 0
2, 9659640, Note_on_c, 0, 60, 100
2, 9659760, Note_on_c, 0, 60, 0
2, 9659760, Note_on_c, 0, 67, 100
2, 9661440, Note_on_c, 0, 67, 0
2, 9661440, Note_on_c, 0, 66, 100
2, 9661680, Note_on_c, 0, 66, 0
2, 9661680, Note_on_c, 0, 64, 100
2, 9661920, Note_on_c, 0, 64, 0
2, 9661920, Note_on_c, 0, 62, 100
2, 9662160, Note_on_c, 0, 62, 0
2, 9662160, Note_on_c, 0, 59, 100
2, 9662280, Note_on_c, 0, 59, 0
2, 9662280, Note_on_c, 0, 60, 100
2, 9662400, Note_on_c, 0, 60, 0
2, 9662400, Note_on_c, 0, 57, 100
2, 9662520, Note_on_c, 0, 57, 0
2, 9662520, Note_on_c, 0, 59, 100
2, 9662640, Note_on_c, 0, 59, 0
2, 9662640, Note_on_c, 0, 60, 100
2, 9662880, Note_on_c, 0, 60, 0
2, 9662880, Note_on_c, 0, 59, 100
2, 9663120, Note_on_c, 0, 59, 0
2, 9663120, Note_on_c, 0, 57, 100
2, 9663600, Note_on_c, 0, 57, 0
2, 9663600, Note_on_c, 0, 55, 100
2, 9663680, Note_on_c, 0, 55, 0
2, 9663680, Note_on_c, 0, 57, 100
2, 9663760, Note_on_c, 0, 57, 0
2, 9663760, Note_on_c, 0, 55, 100
2, 9663840, Note_on_c, 0, 55, 0
2, 9663840, Note_on_c, 0, 54, 100
2, 9663960, Note_on_c, 0, 54, 0
2, 9663960, Note_on_c, 0, 55, 100
2, 9664080, Note_on_c, 0, 55, 0
2, 9664080, Note_on_c, 0, 59, 100
2, 9664680, Note_on_c, 0, 59, 0
2, 9664680, Note_on_c, 0, 57, 100
2, 9664800, Note_on_c, 0, 57, 0
2, 9664800, Note_on_c, 0, 55, 100
2, 9664920, Note_on_c, 0, 55, 0
2, 9664920, Note_on_c, 0, 54, 100
2, 9665040, Note_on_c, 0, 54, 0
2, 9665040, Note_on_c, 0, 52, 100
2, 9665160, Note_on_c, 0, 52, 0
2, 9665160, Note_on_c, 0, 50, 100
2, 9665280, Note_on_c, 0, 50, 0
2, 9665280, Note_on_c, 0, 48, 100
2, 9665400, Note_on_c, 0, 48, 0
2, 9665400, Note_on_c, 0, 47, 100
2, 9665520, Note_on_c, 0, 47, 0
2, 9665520, Note_on_c, 0, 50, 100
2, 9665640, Note_on_c, 0, 50, 0
2, 9665640, Note_on_c, 0, 55, 100
2, 9665760, Note_on_c, 0, 55, 0
2, 9665760, Note_on_c, 0, 59, 100
2, 9665880, Note_on_c, 0, 59, 0
2, 9665880, Note_on_c, 0, 62, 100
2, 9666000, Note_on_c, 0, 62, 0
2, 9666000, Note_on_c, 0, 55, 100
2, 9666240, Note_on_c, 0, 55, 0
2, 9666240, Note_on_c, 0, 57, 100
2, 9666600, Note_on_c, 0, 57, 0
2, 9666600, Note_on_c, 0, 54, 100
2, 9666720, Note_on_c, 0, 54, 0
2, 9666720, Note_on_c, 0, 55, 100
2, 9666960, Note_on_c, 0, 55, 0
2, 9666960, Note_on_c, 0, 59, 100
2, 9668760, Note_on_c, 0, 59, 0
2, 9668760, Note_on_c, 0, 62, 100
2, 9668880, Note_on_c, 0, 62, 0
2, 9668880, Note_on_c, 0, 57, 100
2, 9670200, Note_on_c, 0, 57, 0
2, 9670200, Note_on_c, 0, 62, 100
2, 9670320, Note_on_c, 0, 62, 0
2, 9670320, Note_on_c, 0, 59, 100
2, 9671640, Note_on_c, 0, 59, 0
2, 9671640, Note_on_c, 0, 61, 100
2, 9671760, Note_on_c, 0, 61, 0
2, 9671760, Note_on_c, 0, 54, 100
2, 9673080, Note_on_c, 0, 54, 0
2, 9673080, Note_on_c, 0, 57, 100
2, 9673200, Note_on_c, 0, 57, 0
2, 9673200, Note_on_c, 0, 50, 100
2, 9674520, Note_on_c, 0, 50, 0
2, 9674520, Note_on_c, 0, 55, 100
2, 9674640, Note_on_c, 0, 55, 0
2, 9674640, Note_on_c, 0, 54, 100
2, 9675960, Note_on_c, 0, 54, 0
2, 9675960, Note_on_c, 0, 55, 100
2, 9676080, Note_on_c, 0, 55, 0
2, 9676080, Note_on_c, 0, 52, 100
2, 9677400, Note_on_c, 0, 52, 0
2, 9677400, Note_on_c, 0, 54, 100
2, 9677520, Note_on_c, 0, 54, 0
2, 9677520, Note_on_c, 0, 50, 100
2, 9678840, Note_on_c, 0, 50, 0
2, 9678840, Note_on_c, 0, 55, 100
2, 9678960, Note_on_c, 0, 55, 0
2, 9678960, Note_on_c, 0, 59, 100
2, 9680160, Note_on_c, 0, 59, 0
2, 9680160, Note_on_c, 0, 64, 100
2, 9680400, Note_on_c, 0, 64, 0
2, 9680400, Note_on_c, 0, 57, 100
2, 9681600, Note_on_c, 0, 57, 0
2, 9681600, Note_on_c, 0, 62, 100
2, 9681840, Note_on_c, 0, 62, 0
2, 9681840, Note_on_c, 0, 59, 100
2, 9683040, Note_on_c, 0, 59, 0
2, 9683040, Note_on_c, 0, 55, 100
2, 9683280, Note_on_c, 0, 55, 0
2, 9683280, Note_on_c, 0, 57, 100
2, 9684360, Note_on_c, 0, 57, 0
2, 9684360, Note_on_c, 0, 55, 100
2, 9684480, Note_on_c, 0, 55, 0
2, 9684480, Note_on_c, 0, 54, 100
2, 9684600, Note_on_c, 0, 54, 0
2, 9684600, Note_on_c, 0, 55, 100
2, 9684720, Note_on_c, 0, 55, 0
2, 9684720, Note_on_c, 0, 57, 100
2, 9685920, Note_on_c, 0, 57, 0
2, 9685920, Note_on_c, 0, 62, 100
2, 9686160, Note_on_c, 0, 62, 0
2, 9686160, Note_on_c, 0, 57, 100
2, 9686880, Note_on_c, 0, 57, 0
2, 9686880, Note_on_c, 0, 55, 100
2, 9687120, Note_on_c, 0, 55, 0
2, 9687120, Note_on_c, 0, 59, 100
2, 9687360, Note_on_c, 0, 59, 0
2, 9687360, Note_on_c, 0, 64, 100
2, 9687600, Note_on_c, 0, 64, 0
2, 9687600, Note_on_c, 0, 59, 100
2, 9688320, Note_on_c, 0, 59, 0
2, 9688320, Note_on_c, 0, 57, 100
2, 9688560, Note_on_c, 0, 57, 0
2, 9688560, Note_on_c, 0, 61, 100
2, 9688800, Note_on_c, 0, 61, 0
2, 9688800, Note_on_c, 0, 67, 100
2, 9689040, Note_on_c, 0, 67, 0
2, 9689040, Note_on_c, 0, 64, 100
2, 9689280, Note_on_c, 0, 64, 0
2, 9689280, Note_on_c, 0, 61, 100
2, 9689520, Note_on_c, 0, 61, 0
2, 9689520, Note_on_c, 0, 62, 100
2, 9690000, Note_on_c, 0, 62, 0
2, 9690000, Note_on_c, 0, 52, 100
2, 9690240, Note_on_c, 0, 52, 0
2, 9690240, Note_on_c, 0, 54, 100
2, 9690480, Note_on_c, 0, 54, 0
2, 9690480, Note_on_c, 0, 58, 100
2, 9690720, Note_on_c, 0, 58, 0
2, 9690720, Note_on_c, 0, 57, 100
2, 9690960, Note_on_c, 0, 57, 0
2, 9690960, Note_on_c, 0, 59, 100
2, 9691800, Note_on_c, 0, 59, 0
2, 9691800, Note_on_c, 0, 62, 100
2, 9691920, Note_on_c, 0, 62, 0
2, 9691920, Note_on_c, 0, 57, 100
2, 9693240, Note_on_c, 0, 57, 0
2, 9693240, Note_on_c, 0, 62, 100
2, 9693360, Note_on_c, 0, 62, 0
2, 9693360, Note_on_c, 0, 59, 100
2, 9694680, Note_on_c, 0, 59, 0
2, 9694680, Note_on_c, 0, 61, 100
2, 9694800, Note_on_c, 0, 61, 0
2, 9694800, Note_on_c, 0, 54, 100
2, 9696120, Note_on_c, 0, 54, 0
2, 9696120, Note_on_c, 0, 57, 100
2, 9696240, Note_on_c, 0, 57, 0
2, 9696240, Note_on_c, 0, 50, 100
2, 9697560, Note_on_c, 0, 50, 0
2, 9697560, Note_on_c, 0, 55, 100
2, 9697680, Note_on_c, 0, 55, 0
2, 9697680, Note_on_c, 0, 54, 100
2, 9699000, Note_on_c, 0, 54, 0
2, 9699000, Note_on_c, 0, 55, 100
2, 9699120, Note_on_c, 0, 55, 0
2, 9699120, Note_on_c, 0, 52, 100
2, 9700440, Note_on_c, 0, 52, 0
2, 9700440, Note_on_c, 0, 54, 100
2, 9700560, Note_on_c, 0, 54, 0
2, 9700560, Note_on_c, 0, 50, 100
2, 9701880, Note_on_c, 0, 50, 0
2, 9701880, Note_on_c, 0, 55, 100
2, 9702000, Note_on_c, 0, 55, 0
2, 9702000, Note_on_c, 0, 59, 100
2, 9703200, Note_on_c, 0, 59, 0
2, 9703200, Note_on_c, 0, 64, 100
2, 9703440, Note_on_c, 0, 64, 0
2, 9703440, Note_on_c, 0, 57, 100
2, 9704640, Note_on_c, 0, 57, 0
2, 9704640, Note_on_c, 0, 62, 100
2, 9704880, Note_on_c, 0, 62, 0
2, 9704880, Note_on_c, 0, 59, 100
2, 9706080, Note_on_c, 0, 59, 0
2, 9706080, Note_on_c, 0, 55, 100
2, 9706320, Note_on_c, 0, 55, 0
2, 9706320, Note_on_c, 0, 57, 100
2, 9707400, Note_on_c, 0, 57, 0
2, 9707400, Note_on_c, 0, 55, 100
2, 9707520, Note_on_c, 0, 55, 0
2, 9707520, Note_on_c, 0, 54, 100
2, 9707640, Note_on_c, 0, 54, 0
2, 9707640, Note_on_c, 0, 55, 100
2, 9707760, Note_on_c, 0, 55, 0
2, 9707760, Note_on_c, 0, 57, 100
2, 9708960, Note_on_c, 0, 57, 0
2, 9708960, Note_on_c, 0, 62, 100
2, 9709200, Note_on_c, 0, 62, 0
2, 9709200, Note_on_c, 0, 57, 100
2, 9709920, Note_on_c, 0, 57, 0
2, 9709920, Note_on_c, 0, 55, 100
2, 9710160, Note_on_c, 0, 55, 0
2, 9710160, Note_on_c, 0, 59, 100
2, 9710400, Note_on_c, 0, 59, 0
2, 9710400, Note_on_c, 0, 64, 100
2, 9710640, Note_on_c, 0, 64, 0
2, 9710640, Note_on_c, 0, 59, 100
2, 9711360, Note_on_c, 0, 59, 0
2, 9711360, Note_on_c, 0, 57, 100
2, 9711600, Note_on_c, 0, 57, 0
2, 9711600, Note_on_c, 0, 61, 100
2, 9711840, Note_on_c, 0, 61, 0
2, 9711840, Note_on_c, 0, 67, 100
2, 9712080, Note_on_c, 0, 67, 0
2, 9712080, Note_on_c, 0, 64, 100
2, 9712320, Note_on_c, 0, 64, 0
2, 9712320, Note_on_c, 0, 61, 100
2, 9712560, Note_on_c, 0, 61, 0
2, 9712560, Note_on_c, 0, 62, 100
2, 9713040, Note_on_c, 0, 62, 0
2, 9713040, Note_on_c, 0, 52, 100
2, 9713280, Note_on_c, 0, 52, 0
2, 9713280, Note_on_c, 0, 54, 100
2, 9713520, Note_on_c, 0, 54, 0
2, 9713520, Note_on_c, 0, 58, 100
2, 9713760, Note_on_c, 0, 58, 0
2, 9713760, Note_on_c, 0, 57, 100
2, 9714000, Note_on_c, 0, 57, 0
2, 9714000, Note_on_c, 0, 66, 100
2, 9714840, Note_on_c, 0, 66, 0
2, 9714840, Note_on_c, 0, 69, 100
2, 9714960, Note_on_c, 0, 69, 0
2, 9714960, Note_on_c, 0, 62, 100
2, 9716280, Note_on_c, 0, 62, 0
2, 9716280, Note_on_c, 0, 67, 100
2, 9716400, Note_on_c, 0, 67, 0
2, 9716400, Note_on_c, 0, 68, 100
2, 9717720, Note_on_c, 0, 68, 0
2, 9717720, Note_on_c, 0, 69, 100
2, 9717840, Note_on_c, 0, 69, 0
2, 9717840, Note_on_c, 0, 62, 100
2, 9718080, Note_on_c, 0, 62, 0
2, 9718080, Note_on_c, 0, 64, 100
2, 9718320, Note_on_c, 0, 64, 0
2, 9718320, Note_on_c, 0, 67, 100
2, 9718560, Note_on_c, 0, 67, 0
2, 9718560, Note_on_c, 0, 66, 100
2, 9719040, Note_on_c, 0, 66, 0
2, 9719040, Note_on_c, 0, 64, 100
2, 9719160, Note_on_c, 0, 64, 0
2, 9719160, Note_on_c, 0, 66, 100
2, 9719280, Note_on_c, 0, 66, 0
2, 9719280, Note_on_c, 0, 59, 100
2, 9720480, Note_on_c, 0, 59, 0
2, 9720480, Note_on_c, 0, 57, 100
2, 9720960, Note_on_c, 0, 57, 0
2, 9720960, Note_on_c, 0, 56, 100
2, 9721440, Note_on_c, 0, 56, 0
2, 9721440, Note_on_c, 0, 60, 100
2, 9721920, Note_on_c, 0, 60, 0
2, 9721920, Note_on_c, 0, 64, 100
2, 9722400, Note_on_c, 0, 64, 0
2, 9722400, Note_on_c, 0, 60, 100
2, 9722640, Note_on_c, 0, 60, 0
2, 9722640, Note_on_c, 0, 57, 100
2, 9722880, Note_on_c, 0, 57, 0
2, 9722880, Note_on_c, 0, 54, 100
2, 9723360, Note_on_c, 0, 54, 0
2, 9723360, Note_on_c, 0, 55, 100
2, 9723600, Note_on_c, 0, 55, 0
2, 9723600, Note_on_c, 0, 64, 100
2, 9723840, Note_on_c, 0, 64, 0
2, 9723840, Note_on_c, 0, 63, 100
2, 9724320, Note_on_c, 0, 63, 0
2, 9724320, Note_on_c, 0, 64, 100
2, 9724560, Note_on_c, 0, 64, 0
2, 9724560, Note_on_c, 0, 54, 100
2, 9724800, Note_on_c, 0, 54, 0
2, 9724800, Note_on_c, 0, 55, 100
2, 9725040, Note_on_c, 0, 55, 0
2, 9725040, Note_on_c, 0, 63, 100
2, 9725280, Note_on_c, 0, 63, 0
2, 9725280, Note_on_c, 0, 64, 100
2, 9725520, Note_on_c, 0, 64, 0
2, 9725520, Note_on_c, 0, 55, 100
2, 9726360, Note_on_c, 0, 55, 0
2, 9726360, Note_on_c, 0, 60, 100
2, 9726480, Note_on_c, 0, 60, 0
2, 9726480, Note_on_c, 0, 62, 100
2, 9726600, Note_on_c, 0, 62, 0
2, 9726600, Note_on_c, 0, 64, 100
2, 9726720, Note_on_c, 0, 64, 0
2, 9726720, Note_on_c, 0, 62, 100
2, 9726960, Note_on_c, 0, 62, 0
2, 9726960, Note_on_c, 0, 61, 100
2, 9727200, Note_on_c, 0, 61, 0
2, 9727200, Note_on_c, 0, 59, 100
2, 9727440, Note_on_c, 0, 59, 0
2, 9727440, Note_on_c, 0, 54, 100
2, 9727800, Note_on_c, 0, 54, 0
2, 9727800, Note_on_c, 0, 59, 100
2, 9727920, Note_on_c, 0, 59, 0
2, 9727920, Note_on_c, 0, 60, 100
2, 9728040, Note_on_c, 0, 60, 0
2, 9728040, Note_on_c, 0, 62, 100
2, 9728160, Note_on_c, 0, 62, 0
2, 9728160, Note_on_c, 0, 60, 100
2, 9728400, Note_on_c, 0, 60, 0
2, 9728400, Note_on_c, 0, 59, 100
2, 9728640, Note_on_c, 0, 59, 0
2, 9728640, Note_on_c, 0, 57, 100
2, 9728880, Note_on_c, 0, 57, 0
2, 9728880, Note_on_c, 0, 52, 100
2, 9729120, Note_on_c, 0, 52, 0
2, 9729120, Note_on_c, 0, 57, 100
2, 9729360, Note_on_c, 0, 57, 0
2, 9729360, Note_on_c, 0, 60, 100
2, 9729600, Note_on_c, 0, 60, 0
2, 9729600, Note_on_c, 0, 57, 100
2, 9729840, Note_on_c, 0, 57, 0
2, 9729840, Note_on_c, 0, 54, 100
2, 9730080, Note_on_c, 0, 54, 0
2, 9730080, Note_on_c, 0, 50, 100
2, 9730320, Note_on_c, 0, 50, 0
2, 9730320, Note_on_c, 0, 64, 100
2, 9732000, Note_on_c, 0, 64, 0
2, 9732000, Note_on_c, 0, 63, 100
2, 9732240, Note_on_c, 0, 63, 0
2, 9732240, Note_on_c, 0, 62, 100
2, 9732480, Note_on_c, 0, 62, 0
2, 9732480, Note_on_c, 0, 67, 100
2, 9732720, Note_on_c, 0, 67, 0
2, 9732720, Note_on_c, 0, 59, 100
2, 9732960, Note_on_c, 0, 59, 0
2, 9732960, Note_on_c, 0, 60, 100
2, 9733200, Note_on_c, 0, 60, 0
2, 9733200, Note_on_c, 0, 55, 100
2, 9733440, Note_on_c, 0, 55, 0
2, 9733440, Note_on_c, 0, 57, 100
2, 9733680, Note_on_c, 0, 57, 0
2, 9733680, Note_on_c, 0, 62, 100
2, 9733920, Note_on_c, 0, 62, 0
2, 9733920, Note_on_c, 0, 64, 100
2, 9734160, Note_on_c, 0, 64, 0
2, 9734160, Note_on_c, 0, 57, 100
2, 9734880, Note_on_c, 0, 57, 0
2, 9734880, Note_on_c, 0, 55, 100
2, 9735000, Note_on_c, 0, 55, 0
2, 9735000, Note_on_c, 0, 57, 100
2, 9735120, Note_on_c, 0, 57, 0
2, 9735120, Note_on_c, 0, 55, 100
2, 9735600, Note_on_c, 0, 55, 0
2, 9735600, Note_on_c, 0, 54, 100
2, 9735840, Note_on_c, 0, 54, 0
2, 9735840, Note_on_c, 0, 55, 100
2, 9736080, Note_on_c, 0, 55, 0
2, 9736080, Note_on_c, 0, 57, 100
2, 9736320, Note_on_c, 0, 57, 0
2, 9736320, Note_on_c, 0, 59, 100
2, 9736560, Note_on_c, 0, 59, 0
2, 9736560, Note_on_c, 0, 54, 100
2, 9736800, Note_on_c, 0, 54, 0
2, 9736800, Note_on_c, 0, 55, 100
2, 9737040, Note_on_c, 0, 55, 0
2, 9737040, Note_on_c, 0, 66, 100
2, 9737880, Note_on_c, 0, 66, 0
2, 9737880, Note_on_c, 0, 69, 100
2, 9738000, Note_on_c, 0, 69, 0
2, 9738000, Note_on_c, 0, 62, 100
2, 9739320, Note_on_c, 0, 62, 0
2, 9739320, Note_on_c, 0, 67, 100
2, 9739440, Note_on_c, 0, 67, 0
2, 9739440, Note_on_c, 0, 68, 100
2, 9740760, Note_on_c, 0, 68, 0
2, 9740760, Note_on_c, 0, 69, 100
2, 9740880, Note_on_c, 0, 69, 0
2, 9740880, Note_on_c, 0, 62, 100
2, 9741120, Note_on_c, 0, 62, 0
2, 9741120, Note_on_c, 0, 64, 100
2, 9741360, Note_on_c, 0, 64, 0
2, 9741360, Note_on_c, 0, 67, 100
2, 9741600, Note_on_c, 0, 67, 0
2, 9741600, Note_on_c, 0, 66, 100
2, 9742080, Note_on_c, 0, 66, 0
2, 9742080, Note_on_c, 0, 64, 100
2, 9742200, Note_on_c, 0, 64, 0
2, 9742200, Note_on_c, 0, 66, 100
2, 9742320, Note_on_c, 0, 66, 0
2, 9742320, Note_on_c, 0, 59, 100
2, 9743520, Note_on_c, 0, 59, 0
2, 9743520, Note_on_c, 0, 57, 100
2, 9744000, Note_on_c, 0, 57, 0
2, 9744000, Note_on_c, 0, 56, 100
2, 9744480, Note_on_c, 0, 56, 0
2, 9744480, Note_on_c, 0, 60, 100
2, 9744960, Note_on_c, 0, 60, 0
2, 9744960, Note_on_c, 0, 64, 100
2, 9745440, Note_on_c, 0, 64, 0
2, 9745440, Note_on_c, 0, 60, 100
2, 9745680, Note_on_c, 0, 60, 0
2, 9745680, Note_on_c, 0, 57, 100
2, 9745920, Note_on_c, 0, 57, 0
2, 9745920, Note_on_c, 0, 54, 100
2, 9746400, Note_on_c, 0, 54, 0
2, 9746400, Note_on_c, 0, 55, 100
2, 9746640, Note_on_c, 0, 55, 0
2, 9746640, Note_on_c, 0, 64, 100
2, 9746880, Note_on_c, 0, 64, 0
2, 9746880, Note_on_c, 0, 63, 100
2, 9747360, Note_on_c, 0, 63, 0
2, 9747360, Note_on_c, 0, 64, 100
2, 9747600, Note_on_c, 0, 64, 0
2, 9747600, Note_on_c, 0, 54, 100
2, 9747840, Note_on_c, 0, 54, 0
2, 9747840, Note_on_c, 0, 55, 100
2, 9748080, Note_on_c, 0, 55, 0
2, 9748080, Note_on_c, 0, 63, 100
2, 9748320, Note_on_c, 0, 63, 0
2, 9748320, Note_on_c, 0, 64, 100
2, 9748560, Note_on_c, 0, 64, 0
2, 9748560, Note_on_c, 0, 55, 100
2, 9749400, Note_on_c, 0, 55, 0
2, 9749400, Note_on_c, 0, 60, 100
2, 9749520, Note_on_c, 0, 60, 0
2, 9749520, Note_on_c, 0, 62, 100
2, 9749640, Note_on_c, 0, 62, 0
2, 9749640, Note_on_c, 0, 64, 100
2, 9749760, Note_on_c, 0, 64, 0
2, 9749760, Note_on_c, 0, 62, 100
2, 9750000, Note_on_c, 0, 62, 0
2, 9750000, Note_on_c, 0, 61, 100
2, 9750240, Note_on_c, 0, 61, 0
2, 9750240, Note_on_c, 0, 59, 100
2, 9750480, Note_on_c, 0, 59, 0
2, 9750480, Note_on_c, 0, 54, 100
2, 9750840, Note_on_c, 0, 54, 0
2, 9750840, Note_on_c, 0, 59, 100
2, 9750960, Note_on_c, 0, 59, 0
2, 9750960, Note_on_c, 0, 60, 100
2, 9751080, Note_on_c, 0, 60, 0
2, 9751080, Note_on_c, 0, 62, 100
2, 9751200, Note_on_c, 0, 62, 0
2, 9751200, Note_on_c, 0, 60, 100
2, 9751440, Note_on_c, 0, 60, 0
2, 9751440, Note_on_c, 0, 59, 100
2, 9751680, Note_on_c, 0, 59, 0
2, 9751680, Note_on_c, 0, 57, 100
2, 9751920, Note_on_c, 0, 57, 0
2, 9751920, Note_on_c, 0, 52, 100
2, 9752160, Note_on_c, 0, 52, 0
2, 9752160, Note_on_c, 0, 57, 100
2, 9752400, Note_on_c, 0, 57, 0
2, 9752400, Note_on_c, 0, 60, 100
2, 9752640, Note_on_c, 0, 60, 0
2, 9752640, Note_on_c, 0, 57, 100
2, 9752880, Note_on_c, 0, 57, 0
2, 9752880, Note_on_c, 0, 54, 100
2, 9753120, Note_on_c, 0, 54, 0
2, 9753120, Note_on_c, 0, 50, 100
2, 9753360, Note_on_c, 0, 50, 0
2, 9753360, Note_on_c, 0, 64, 100
2, 9755040, Note_on_c, 0, 64, 0
2, 9755040, Note_on_c, 0, 63, 100
2, 9755280, Note_on_c, 0, 63, 0
2, 9755280, Note_on_c, 0, 62, 100
2, 9755520, Note_on_c, 0, 62, 0
2, 9755520, Note_on_c, 0, 67, 100
2, 9755760, Note_on_c, 0, 67, 0
2, 9755760, Note_on_c, 0, 59, 100
2, 9756000, Note_on_c, 0, 59, 0
2, 9756000, Note_on_c, 0, 60, 100
2, 9756240, Note_on_c, 0, 60, 0
2, 9756240, Note_on_c, 0, 55, 100
2, 9756480, Note_on_c, 0, 55, 0
2, 9756480, Note_on_c, 0, 57, 100
2, 9756720, Note_on_c, 0, 57, 0
2, 9756720, Note_on_c, 0, 62, 100
2, 9756960, Note_on_c, 0, 62, 0
2, 9756960, Note_on_c, 0, 64, 100
2, 9757200, Note_on_c, 0, 64, 0
2, 9757200, Note_on_c, 0, 57, 100
2, 9757920, Note_on_c, 0, 57, 0
2, 9757920, Note_on_c, 0, 55, 100
2, 9758040, Note_on_c, 0, 55, 0
2, 9758040, Note_on_c, 0, 57, 100
2, 9758160, Note_on_c, 0, 57, 0
2, 9758160, Note_on_c, 0, 55, 100
2, 9758640, Note_on_c, 0, 55, 0
2, 9758640, Note_on_c, 0, 54, 100
2, 9758880, Note_on_c, 0, 54, 0
2, 9758880, Note_on_c, 0, 55, 100
2, 9759120, Note_on_c, 0, 55, 0
2, 9759120, Note_on_c, 0, 57, 100
2, 9759360, Note_on_c, 0, 57, 0
2, 9759360, Note_on_c, 0, 59, 100
2, 9759600, Note_on_c, 0, 59, 0
2, 9759600, Note_on_c, 0, 54, 100
2, 9759840, Note_on_c, 0, 54, 0
2, 9759840, Note_on_c, 0, 55, 100
2, 9760080, Note_on_c, 0, 55, 0
2, 9760080, Note_on_c, 0, 74, 100
2, 9853920, Note_on_c, 0, 74, 0
2, 9853920, Note_on_c, 0, 76, 100
2, 9854160, Note_on_c, 0, 76, 0
2, 9854160, Note_on_c, 0, 78, 100
2, 9854400, Note_on_c, 0, 78, 0
2, 9854400, Note_on_c, 0, 79, 100
2, 9854640, Note_on_c, 0, 79, 0
2, 9854640, Note_on_c, 0, 81, 100
2, 9855240, Note_on_c, 0, 81, 0
2, 9855240, Note_on_c, 0, 82, 100
2, 9855360, Note_on_c, 0, 82, 0
2, 9855360, Note_on_c, 0, 84, 100
2, 9855480, Note_on_c, 0, 84, 0
2, 9855480, Note_on_c, 0, 86, 100
2, 9855600, Note_on_c, 0, 86, 0
2, 9855600, Note_on_c, 0, 81, 100
2, 9855840, Note_on_c, 0, 81, 0
2, 9855840, Note_on_c, 0, 80, 100
2, 9855900, Note_on_c, 0, 80, 0
2, 9855900, Note_on_c, 0, 81, 100
2, 9855960, Note_on_c, 0, 81, 0
2, 9855960, Note_on_c, 0, 74, 100
2, 9856080, Note_on_c, 0, 74, 0
2, 9856080, Note_on_c, 0, 75, 100
2, 9856800, Note_on_c, 0, 75, 0
2, 9856800, Note_on_c, 0, 77, 100
2, 9856920, Note_on_c, 0, 77, 0
2, 9856920, Note_on_c, 0, 75, 100
2, 9857040, Note_on_c, 0, 75, 0
2, 9857040, Note_on_c, 0, 74, 100
2, 9857280, Note_on_c, 0, 74, 0
2, 9857280, Note_on_c, 0, 72, 100
2, 9857400, Note_on_c, 0, 72, 0
2, 9857400, Note_on_c, 0, 70, 100
2, 9857520, Note_on_c, 0, 70, 0
2, 9857520, Note_on_c, 0, 72, 100
2, 9858240, Note_on_c, 0, 72, 0
2, 9858240, Note_on_c, 0, 79, 100
2, 9858480, Note_on_c, 0, 79, 0
2, 9858480, Note_on_c, 0, 81, 100
2, 9858540, Note_on_c, 0, 81, 0
2, 9858540, Note_on_c, 0, 78, 100
2, 9858600, Note_on_c, 0, 78, 0
2, 9858600, Note_on_c, 0, 79, 100
2, 9858720, Note_on_c, 0, 79, 0
2, 9858720, Note_on_c, 0, 81, 100
2, 9858840, Note_on_c, 0, 81, 0
2, 9858840, Note_on_c, 0, 82, 100
2, 9858960, Note_on_c, 0, 82, 0
2, 9858960, Note_on_c, 0, 84, 100
2, 9859080, Note_on_c, 0, 84, 0
2, 9859080, Note_on_c, 0, 86, 100
2, 9859200, Note_on_c, 0, 86, 0
2, 9859200, Note_on_c, 0, 84, 100
2, 9859320, Note_on_c, 0, 84, 0
2, 9859320, Note_on_c, 0, 82, 100
2, 9859440, Note_on_c, 0, 82, 0
2, 9859440, Note_on_c, 0, 79, 100
2, 9859560, Note_on_c, 0, 79, 0
2, 9859560, Note_on_c, 0, 74, 100
2, 9859680, Note_on_c, 0, 74, 0
2, 9859680, Note_on_c, 0, 75, 100
2, 9860160, Note_on_c, 0, 75, 0
2, 9860160, Note_on_c, 0, 74, 100
2, 9860400, Note_on_c, 0, 74, 0
2, 9860400, Note_on_c, 0, 75, 100
2, 9861000, Note_on_c, 0, 75, 0
2, 9861000, Note_on_c, 0, 74, 100
2, 9861120, Note_on_c, 0, 74, 0
2, 9861120, Note_on_c, 0, 72, 100
2, 9861240, Note_on_c, 0, 72, 0
2, 9861240, Note_on_c, 0, 70, 100
2, 9861360, Note_on_c, 0, 70, 0
2, 9861360, Note_on_c, 0, 72, 100
2, 9861600, Note_on_c, 0, 72, 0
2, 9861600, Note_on_c, 0, 74, 100
2, 9861840, Note_on_c, 0, 74, 0
2, 9861840, Note_on_c, 0, 75, 100
2, 9862080, Note_on_c, 0, 75, 0
2, 9862080, Note_on_c, 0, 74, 100
2, 9862320, Note_on_c, 0, 74, 0
2, 9862320, Note_on_c, 0, 81, 100
2, 9863040, Note_on_c, 0, 81, 0
2, 9863040, Note_on_c, 0, 82, 100
2, 9863280, Note_on_c, 0, 82, 0
2, 9863280, Note_on_c, 0, 74, 100
2, 9863520, Note_on_c, 0, 74, 0
2, 9863520, Note_on_c, 0, 76, 100
2, 9863640, Note_on_c, 0, 76, 0
2, 9863640, Note_on_c, 0, 77, 100
2, 9863880, Note_on_c, 0, 77, 0
2, 9863880, Note_on_c, 0, 79, 100
2, 9864120, Note_on_c, 0, 79, 0
2, 9864120, Note_on_c, 0, 81, 100
2, 9864240, Note_on_c, 0, 81, 0
2, 9864240, Note_on_c, 0, 70, 100
2, 9864480, Note_on_c, 0, 70, 0
2, 9864480, Note_on_c, 0, 72, 100
2, 9864720, Note_on_c, 0, 72, 0
2, 9864720, Note_on_c, 0, 81, 100
2, 9864960, Note_on_c, 0, 81, 0
2, 9864960, Note_on_c, 0, 79, 100
2, 9865440, Note_on_c, 0, 79, 0
2, 9865440, Note_on_c, 0, 81, 100
2, 9865500, Note_on_c, 0, 81, 0
2, 9865500, Note_on_c, 0, 79, 100
2, 9866040, Note_on_c, 0, 79, 0
2, 9866040, Note_on_c, 0, 77, 100
2, 9866280, Note_on_c, 0, 77, 0
2, 9866280, Note_on_c, 0, 79, 100
2, 9866340, Note_on_c, 0, 79, 0
2, 9866340, Note_on_c, 0, 81, 100
2, 9866400, Note_on_c, 0, 81, 0
2, 9866400, Note_on_c, 0, 82, 100
2, 9866520, Note_on_c, 0, 82, 0
2, 9866520, Note_on_c, 0, 81, 100
2, 9866640, Note_on_c, 0, 81, 0
2, 9866640, Note_on_c, 0, 77, 100
2, 9866760, Note_on_c, 0, 77, 0
2, 9866760, Note_on_c, 0, 73, 100
2, 9866880, Note_on_c, 0, 73, 0
2, 9866880, Note_on_c, 0, 79, 100
2, 9867360, Note_on_c, 0, 79, 0
2, 9867360, Note_on_c, 0, 78, 100
2, 9867720, Note_on_c, 0, 78, 0
2, 9867720, Note_on_c, 0, 76, 100
2, 9867780, Note_on_c, 0, 76, 0
2, 9867780, Note_on_c, 0, 78, 100
2, 9867840, Note_on_c, 0, 78, 0
2, 9867840, Note_on_c, 0, 74, 100
2, 9869280, Note_on_c, 0, 74, 0
2, 9869280, Note_on_c, 0, 76, 100
2, 9869520, Note_on_c, 0, 76, 0
2, 9869520, Note_on_c, 0, 78, 100
2, 9869760, Note_on_c, 0, 78, 0
2, 9869760, Note_on_c, 0, 79, 100
2, 9870000, Note_on_c, 0, 79, 0
2, 9870000, Note_on_c, 0, 81, 100
2, 9870600, Note_on_c, 0, 81, 0
2, 9870600, Note_on_c, 0, 82, 100
2, 9870720, Note_on_c, 0, 82, 0
2, 9870720, Note_on_c, 0, 84, 100
2, 9870840, Note_on_c, 0, 84, 0
2, 9870840, Note_on_c, 0, 86, 100
2, 9870960, Note_on_c, 0, 86, 0
2, 9870960, Note_on_c, 0, 81, 100
2, 9871200, Note_on_c, 0, 81, 0
2, 9871200, Note_on_c, 0, 80, 100
2, 9871260, Note_on_c, 0, 80, 0
2, 9871260, Note_on_c, 0, 81, 100
2, 9871320, Note_on_c, 0, 81, 0
2, 9871320, Note_on_c, 0, 74, 100
2, 9871440, Note_on_c, 0, 74, 0
2, 9871440, Note_on_c, 0, 75, 100
2, 9872160, Note_on_c, 0, 75, 0
2, 9872160, Note_on_c, 0, 77, 100
2, 9872280, Note_on_c, 0, 77, 0
2, 9872280, Note_on_c, 0, 75, 100
2, 9872400, Note_on_c, 0, 75, 0
2, 9872400, Note_on_c, 0, 74, 100
2, 9872640, Note_on_c, 0, 74, 0
2, 9872640, Note_on_c, 0, 72, 100
2, 9872760, Note_on_c, 0, 72, 0
2, 9872760, Note_on_c, 0, 70, 100
2, 9872880, Note_on_c, 0, 70, 0
2, 9872880, Note_on_c, 0, 72, 100
2, 9873600, Note_on_c, 0, 72, 0
2, 9873600, Note_on_c, 0, 79, 100
2, 9873840, Note_on_c, 0, 79, 0
2, 9873840, Note_on_c, 0, 81, 100
2, 9873900, Note_on_c, 0, 81, 0
2, 9873900, Note_on_c, 0, 78, 100
2, 9873960, Note_on_c, 0, 78, 0
2, 9873960, Note_on_c, 0, 79, 100
2, 9874080, Note_on_c, 0, 79, 0
2, 9874080, Note_on_c, 0, 81, 100
2, 9874200, Note_on_c, 0, 81, 0
2, 9874200, Note_on_c, 0, 82, 100
2, 9874320, Note_on_c, 0, 82, 0
2, 9874320, Note_on_c, 0, 84, 100
2, 9874440, Note_on_c, 0, 84, 0
2, 9874440, Note_on_c, 0, 86, 100
2, 9874560, Note_on_c, 0, 86, 0
2, 9874560, Note_on_c, 0, 84, 100
2, 9874680, Note_on_c, 0, 84, 0
2, 9874680, Note_on_c, 0, 82, 100
2, 9874800, Note_on_c, 0, 82, 0
2, 9874800, Note_on_c, 0, 79, 100
2, 9874920, Note_on_c, 0, 79, 0
2, 9874920, Note_on_c, 0, 74, 100
2, 9875040, Note_on_c, 0, 74, 0
2, 9875040, Note_on_c, 0, 75, 100
2, 9875520, Note_on_c, 0, 75, 0
2, 9875520, Note_on_c, 0, 74, 100
2, 9875760, Note_on_c, 0, 74, 0
2, 9875760, Note_on_c, 0, 75, 100
2, 9876360, Note_on_c, 0, 75, 0
2, 9876360, Note_on_c, 0, 74, 100
2, 9876480, Note_on_c, 0, 74, 0
2, 9876480, Note_on_c, 0, 72, 100
2, 9876600, Note_on_c, 0, 72, 0
2, 9876600, Note_on_c, 0, 70, 100
2, 9876720, Note_on_c, 0, 70, 0
2, 9876720, Note_on_c, 0, 72, 100
2, 9876960, Note_on_c, 0, 72, 0
2, 9876960, Note_on_c, 0, 74, 100
2, 9877200, Note_on_c, 0, 74, 0
2, 9877200, Note_on_c, 0, 75, 100
2, 9877440, Note_on_c, 0, 75, 0
2, 9877440, Note_on_c, 0, 74, 100
2, 9877680, Note_on_c, 0, 74, 0
2, 9877680, Note_on_c, 0, 81, 100
2, 9878400, Note_on_c, 0, 81, 0
2, 9878400, Note_on_c, 0, 82, 100
2, 9878640, Note_on_c, 0, 82, 0
2, 9878640, Note_on_c, 0, 74, 100
2, 9878880, Note_on_c, 0, 74, 0
2, 9878880, Note_on_c, 0, 76, 100
2, 9879000, Note_on_c, 0, 76, 0
2, 9879000, Note_on_c, 0, 77, 100
2, 9879240, Note_on_c, 0, 77, 0
2, 9879240, Note_on_c, 0, 79, 100
2, 9879480, Note_on_c, 0, 79, 0
2, 9879480, Note_on_c, 0, 81, 100
2, 9879600, Note_on_c, 0, 81, 0
2, 9879600, Note_on_c, 0, 70, 100
2, 9879840, Note_on_c, 0, 70, 0
2, 9879840, Note_on_c, 0, 72, 100
2, 9880080, Note_on_c, 0, 72, 0
2, 9880080, Note_on_c, 0, 81, 100
2, 9880320, Note_on_c, 0, 81, 0
2, 9880320, Note_on_c, 0, 79, 100
2, 9880800, Note_on_c, 0, 79, 0
2, 9880800, Note_on_c, 0, 81, 100
2, 9880860, Note_on_c, 0, 81, 0
2, 9880860, Note_on_c, 0, 79, 100
2, 9881400, Note_on_c, 0, 79, 0
2, 9881400, Note_on_c, 0, 77, 100
2, 9881640, Note_on_c, 0, 77, 0
2, 9881640, Note_on_c, 0, 79, 100
2, 9881700, Note_on_c, 0, 79, 0
2, 9881700, Note_on_c, 0, 81, 100
2, 9881760, Note_on_c, 0, 81, 0
2, 9881760, Note_on_c, 0, 82, 100
2, 9881880, Note_on_c, 0, 82, 0
2, 9881880, Note_on_c, 0, 81, 100
2, 9882000, Note_on_c, 0, 81, 0
2, 9882000, Note_on_c, 0, 77, 100
2, 9882120, Note_on_c, 0, 77, 0
2, 9882120, Note_on_c, 0, 73, 100
2, 9882240, Note_on_c, 0, 73, 0
2, 9882240, Note_on_c, 0, 79, 100
2, 9882720, Note_on_c, 0, 79, 0
2, 9882720, Note_on_c, 0, 78, 100
2, 9883080, Note_on_c, 0, 78, 0
2, 9883080, Note_on_c, 0, 76, 100
2, 9883140, Note_on_c, 0, 76, 0
2, 9883140, Note_on_c, 0, 78, 100
2, 9883200, Note_on_c, 0, 78, 0
2, 9883200, Note_on_c, 0, 75, 100
2, 9884640, Note_on_c, 0, 75, 0
2, 9884640, Note_on_c, 0, 74, 100
2, 9884880, Note_on_c, 0, 74, 0
2, 9884880, Note_on_c, 0, 72, 100
2, 9885120, Note_on_c, 0, 72, 0
2, 9885120, Note_on_c, 0, 79, 100
2, 9885360, Note_on_c, 0, 79, 0
2, 9885360, Note_on_c, 0, 67, 100
2, 9885480, Note_on_c, 0, 67, 0
2, 9885480, Note_on_c, 0, 68, 100
2, 9885720, Note_on_c, 0, 68, 0
2, 9885720, Note_on_c, 0, 70, 100
2, 9885960, Note_on_c, 0, 70, 0
2, 9885960, Note_on_c, 0, 72, 100
2, 9886200, Note_on_c, 0, 72, 0
2, 9886200, Note_on_c, 0, 70, 100
2, 9886320, Note_on_c, 0, 70, 0
2, 9886320, Note_on_c, 0, 77, 100
2, 9886560, Note_on_c, 0, 77, 0
2, 9886560, Note_on_c, 0, 79, 100
2, 9886800, Note_on_c, 0, 79, 0
2, 9886800, Note_on_c, 0, 74, 100
2, 9887040, Note_on_c, 0, 74, 0
2, 9887040, Note_on_c, 0, 75, 100
2, 9887280, Note_on_c, 0, 75, 0
2, 9887280, Note_on_c, 0, 74, 100
2, 9887400, Note_on_c, 0, 74, 0
2, 9887400, Note_on_c, 0, 72, 100
2, 9887520, Note_on_c, 0, 72, 0
2, 9887520, Note_on_c, 0, 70, 100
2, 9887880, Note_on_c, 0, 70, 0
2, 9887880, Note_on_c, 0, 72, 100
2, 9888120, Note_on_c, 0, 72, 0
2, 9888120, Note_on_c, 0, 74, 100
2, 9888240, Note_on_c, 0, 74, 0
2, 9888240, Note_on_c, 0, 70, 100
2, 9888360, Note_on_c, 0, 70, 0
2, 9888360, Note_on_c, 0, 65, 100
2, 9888480, Note_on_c, 0, 65, 0
2, 9888480, Note_on_c, 0, 62, 100
2, 9888600, Note_on_c, 0, 62, 0
2, 9888600, Note_on_c, 0, 63, 100
2, 9888720, Note_on_c, 0, 63, 0
2, 9888720, Note_on_c, 0, 65, 100
2, 9888840, Note_on_c, 0, 65, 0
2, 9888840, Note_on_c, 0, 67, 100
2, 9888960, Note_on_c, 0, 67, 0
2, 9888960, Note_on_c, 0, 68, 100
2, 9889080, Note_on_c, 0, 68, 0
2, 9889080, Note_on_c, 0, 70, 100
2, 9889200, Note_on_c, 0, 70, 0
2, 9889200, Note_on_c, 0, 72, 100
2, 9890280, Note_on_c, 0, 72, 0
2, 9890280, Note_on_c, 0, 74, 100
2, 9890340, Note_on_c, 0, 74, 0
2, 9890340, Note_on_c, 0, 75, 100
2, 9890400, Note_on_c, 0, 75, 0
2, 9890400, Note_on_c, 0, 74, 100
2, 9890460, Note_on_c, 0, 74, 0
2, 9890460, Note_on_c, 0, 72, 100
2, 9890520, Note_on_c, 0, 72, 0
2, 9890520, Note_on_c, 0, 74, 100
2, 9890640, Note_on_c, 0, 74, 0
2, 9890640, Note_on_c, 0, 75, 100
2, 9890760, Note_on_c, 0, 75, 0
2, 9890760, Note_on_c, 0, 77, 100
2, 9890820, Note_on_c, 0, 77, 0
2, 9890820, Note_on_c, 0, 75, 100
2, 9890880, Note_on_c, 0, 75, 0
2, 9890880, Note_on_c, 0, 77, 100
2, 9890940, Note_on_c, 0, 77, 0
2, 9890940, Note_on_c, 0, 79, 100
2, 9891000, Note_on_c, 0, 79, 0
2, 9891000, Note_on_c, 0, 77, 100
2, 9891120, Note_on_c, 0, 77, 0
2, 9891120, Note_on_c, 0, 72, 100
2, 9892320, Note_on_c, 0, 72, 0
2, 9892320, Note_on_c, 0, 74, 100
2, 9892440, Note_on_c, 0, 74, 0
2, 9892440, Note_on_c, 0, 75, 100
2, 9892560, Note_on_c, 0, 75, 0
2, 9892560, Note_on_c, 0, 76, 100
2, 9892680, Note_on_c, 0, 76, 0
2, 9892680, Note_on_c, 0, 67, 100
2, 9892800, Note_on_c, 0, 67, 0
2, 9892800, Note_on_c, 0, 76, 100
2, 9892920, Note_on_c, 0, 76, 0
2, 9892920, Note_on_c, 0, 78, 100
2, 9893040, Note_on_c, 0, 78, 0
2, 9893040, Note_on_c, 0, 79, 100
2, 9893640, Note_on_c, 0, 79, 0
2, 9893640, Note_on_c, 0, 81, 100
2, 9893760, Note_on_c, 0, 81, 0
2, 9893760, Note_on_c, 0, 82, 100
2, 9893880, Note_on_c, 0, 82, 0
2, 9893880, Note_on_c, 0, 84, 100
2, 9894000, Note_on_c, 0, 84, 0
2, 9894000, Note_on_c, 0, 82, 100
2, 9894120, Note_on_c, 0, 82, 0
2, 9894120, Note_on_c, 0, 81, 100
2, 9894240, Note_on_c, 0, 81, 0
2, 9894240, Note_on_c, 0, 79, 100
2, 9894360, Note_on_c, 0, 79, 0
2, 9894360, Note_on_c, 0, 78, 100
2, 9894480, Note_on_c, 0, 78, 0
2, 9894480, Note_on_c, 0, 79, 100
2, 9894600, Note_on_c, 0, 79, 0
2, 9894600, Note_on_c, 0, 78, 100
2, 9894720, Note_on_c, 0, 78, 0
2, 9894720, Note_on_c, 0, 81, 100
2, 9895080, Note_on_c, 0, 81, 0
2, 9895080, Note_on_c, 0, 79, 100
2, 9895200, Note_on_c, 0, 79, 0
2, 9895200, Note_on_c, 0, 72, 100
2, 9895680, Note_on_c, 0, 72, 0
2, 9895680, Note_on_c, 0, 67, 100
2, 9895920, Note_on_c, 0, 67, 0
2, 9895920, Note_on_c, 0, 69, 100
2, 9896280, Note_on_c, 0, 69, 0
2, 9896280, Note_on_c, 0, 70, 100
2, 9896400, Note_on_c, 0, 70, 0
2, 9896400, Note_on_c, 0, 72, 100
2, 9896520, Note_on_c, 0, 72, 0
2, 9896520, Note_on_c, 0, 74, 100
2, 9896640, Note_on_c, 0, 74, 0
2, 9896640, Note_on_c, 0, 76, 100
2, 9896760, Note_on_c, 0, 76, 0
2, 9896760, Note_on_c, 0, 78, 100
2, 9896880, Note_on_c, 0, 78, 0
2, 9896880, Note_on_c, 0, 79, 100
2, 9897000, Note_on_c, 0, 79, 0
2, 9897000, Note_on_c, 0, 81, 100
2, 9897120, Note_on_c, 0, 81, 0
2, 9897120, Note_on_c, 0, 78, 100
2, 9897240, Note_on_c, 0, 78, 0
2, 9897240, Note_on_c, 0, 79, 100
2, 9897360, Note_on_c, 0, 79, 0
2, 9897360, Note_on_c, 0, 78, 100
2, 9897480, Note_on_c, 0, 78, 0
2, 9897480, Note_on_c, 0, 76, 100
2, 9897600, Note_on_c, 0, 76, 0
2, 9897600, Note_on_c, 0, 74, 100
2, 9897660, Note_on_c, 0, 74, 0
2, 9897660, Note_on_c, 0, 84, 100
2, 9897720, Note_on_c, 0, 84, 0
2, 9897720, Note_on_c, 0, 78, 100
2, 9897960, Note_on_c, 0, 78, 0
2, 9897960, Note_on_c, 0, 79, 100
2, 9898080, Note_on_c, 0, 79, 0
2, 9898080, Note_on_c, 0, 81, 100
2, 9898200, Note_on_c, 0, 81, 0
2, 9898200, Note_on_c, 0, 82, 100
2, 9898320, Note_on_c, 0, 82, 0
2, 9898320, Note_on_c, 0, 84, 100
2, 9898440, Note_on_c, 0, 84, 0
2, 9898440, Note_on_c, 0, 86, 100
2, 9898560, Note_on_c, 0, 86, 0
2, 9898560, Note_on_c, 0, 75, 100
2, 9900000, Note_on_c, 0, 75, 0
2, 9900000, Note_on_c, 0, 74, 100
2, 9900240, Note_on_c, 0, 74, 0
2, 9900240, Note_on_c, 0, 72, 100
2, 9900480, Note_on_c, 0, 72, 0
2, 9900480, Note_on_c, 0, 79, 100
2, 9900720, Note_on_c, 0, 79, 0
2, 9900720, Note_on_c, 0, 67, 100
2, 9900840, Note_on_c, 0, 67, 0
2, 9900840, Note_on_c, 0, 68, 100
2, 9901080, Note_on_c, 0, 68, 0
2, 9901080, Note_on_c, 0, 70, 100
2, 9901320, Note_on_c, 0, 70, 0
2, 9901320, Note_on_c, 0, 72, 100
2, 9901560, Note_on_c, 0, 72, 0
2, 9901560, Note_on_c, 0, 70, 100
2, 9901680, Note_on_c, 0, 70, 0
2, 9901680, Note_on_c, 0, 77, 100
2, 9901920, Note_on_c, 0, 77, 0
2, 9901920, Note_on_c, 0, 79, 100
2, 9902160, Note_on_c, 0, 79, 0
2, 9902160, Note_on_c, 0, 74, 100
2, 9902400, Note_on_c, 0, 74, 0
2, 9902400, Note_on_c, 0, 75, 100
2, 9902640, Note_on_c, 0, 75, 0
2, 9902640, Note_on_c, 0, 74, 100
2, 9902760, Note_on_c, 0, 74, 0
2, 9902760, Note_on_c, 0, 72, 100
2, 9902880, Note_on_c, 0, 72, 0
2, 9902880, Note_on_c, 0, 70, 100
2, 9903240, Note_on_c, 0, 70, 0
2, 9903240, Note_on_c, 0, 72, 100
2, 9903480, Note_on_c, 0, 72, 0
2, 9903480, Note_on_c, 0, 74, 100
2, 9903600, Note_on_c, 0, 74, 0
2, 9903600, Note_on_c, 0, 70, 100
2, 9903720, Note_on_c, 0, 70, 0
2, 9903720, Note_on_c, 0, 65, 100
2, 9903840, Note_on_c, 0, 65, 0
2, 9903840, Note_on_c, 0, 62, 100
2, 9903960, Note_on_c, 0, 62, 0
2, 9903960, Note_on_c, 0, 63, 100
2, 9904080, Note_on_c, 0, 63, 0
2, 9904080, Note_on_c, 0, 65, 100
2, 9904200, Note_on_c, 0, 65, 0
2, 9904200, Note_on_c, 0, 67, 100
2, 9904320, Note_on_c, 0, 67, 0
2, 9904320, Note_on_c, 0, 68, 100
2, 9904440, Note_on_c, 0, 68, 0
2, 9904440, Note_on_c, 0, 70, 100
2, 9904560, Note_on_c, 0, 70, 0
2, 9904560, Note_on_c, 0, 72, 100
2, 9905640, Note_on_c, 0, 72, 0
2, 9905640, Note_on_c, 0, 74, 100
2, 9905700, Note_on_c, 0, 74, 0
2, 9905700, Note_on_c, 0, 75, 100
2, 9905760, Note_on_c, 0, 75, 0
2, 9905760, Note_on_c, 0, 74, 100
2, 9905820, Note_on_c, 0, 74, 0
2, 9905820, Note_on_c, 0, 72, 100
2, 9905880, Note_on_c, 0, 72, 0
2, 9905880, Note_on_c, 0, 74, 100
2, 9906000, Note_on_c, 0, 74, 0
2, 9906000, Note_on_c, 0, 75, 100
2, 9906120, Note_on_c, 0, 75, 0
2, 9906120, Note_on_c, 0, 77, 100
2, 9906180, Note_on_c, 0, 77, 0
2, 9906180, Note_on_c, 0, 75, 100
2, 9906240, Note_on_c, 0, 75, 0
2, 9906240, Note_on_c, 0, 77, 100
2, 9906300, Note_on_c, 0, 77, 0
2, 9906300, Note_on_c, 0, 79, 100
2, 9906360, Note_on_c, 0, 79, 0
2, 9906360, Note_on_c, 0, 77, 100
2, 9906480, Note_on_c, 0, 77, 0
2, 9906480, Note_on_c, 0, 72, 100
2, 9907680, Note_on_c, 0, 72, 0
2, 9907680, Note_on_c, 0, 74, 100
2, 9907800, Note_on_c, 0, 74, 0
2, 9907800, Note_on_c, 0, 75, 100
2, 9907920, Note_on_c, 0, 75, 0
2, 9907920, Note_on_c, 0, 76, 100
2, 9908040, Note_on_c, 0, 76, 0
2, 9908040, Note_on_c, 0, 67, 100
2, 9908160, Note_on_c, 0, 67, 0
2, 9908160, Note_on_c, 0, 76, 100
2, 9908280, Note_on_c, 0, 76, 0
2, 9908280, Note_on_c, 0, 78, 100
2, 9908400, Note_on_c, 0, 78, 0
2, 9908400, Note_on_c, 0, 79, 100
2, 9909000, Note_on_c, 0, 79, 0
2, 9909000, Note_on_c, 0, 81, 100
2, 9909120, Note_on_c, 0, 81, 0
2, 9909120, Note_on_c, 0, 82, 100
2, 9909240, Note_on_c, 0, 82, 0
2, 9909240, Note_on_c, 0, 84, 100
2, 9909360, Note_on_c, 0, 84, 0
2, 9909360, Note_on_c, 0, 82, 100
2, 9909480, Note_on_c, 0, 82, 0
2, 9909480, Note_on_c, 0, 81, 100
2, 9909600, Note_on_c, 0, 81, 0
2, 9909600, Note_on_c, 0, 79, 100
2, 9909720, Note_on_c, 0, 79, 0
2, 9909720, Note_on_c, 0, 78, 100
2, 9909840, Note_on_c, 0, 78, 0
2, 9909840, Note_on_c, 0, 79, 100
2, 9909960, Note_on_c, 0, 79, 0
2, 9909960, Note_on_c, 0, 78, 100
2, 9910080, Note_on_c, 0, 78, 0
2, 9910080, Note_on_c, 0, 81, 100
2, 9910440, Note_on_c, 0, 81, 0
2, 9910440, Note_on_c, 0, 79, 100
2, 9910560, Note_on_c, 0, 79, 0
2, 9910560, Note_on_c, 0, 72, 100
2, 9911040, Note_on_c, 0, 72, 0
2, 9911040, Note_on_c, 0, 67, 100
2, 9911280, Note_on_c, 0, 67, 0
2, 9911280, Note_on_c, 0, 69, 100
2, 9911640, Note_on_c, 0, 69, 0
2, 9911640, Note_on_c, 0, 70, 100
2, 9911760, Note_on_c, 0, 70, 0
2, 9911760, Note_on_c, 0, 72, 100
2, 9911880, Note_on_c, 0, 72, 0
2, 9911880, Note_on_c, 0, 74, 100
2, 9912000, Note_on_c, 0, 74, 0
2, 9912000, Note_on_c, 0, 76, 100
2, 9912120, Note_on_c, 0, 76, 0
2, 9912120, Note_on_c, 0, 78, 100
2, 9912240, Note_on_c, 0, 78, 0
2, 9912240, Note_on_c, 0, 79, 100
2, 9912360, Note_on_c, 0, 79, 0
2, 9912360, Note_on_c, 0, 81, 100
2, 9912480, Note_on_c, 0, 81, 0
2, 9912480, Note_on_c, 0, 78, 100
2, 9912600, Note_on_c, 0, 78, 0
2, 9912600, Note_on_c, 0, 79, 100
2, 9912720, Note_on_c, 0, 79, 0
2, 9912720, Note_on_c, 0, 78, 100
2, 9912840, Note_on_c, 0, 78, 0
2, 9912840, Note_on_c, 0, 76, 100
2, 9912960, Note_on_c, 0, 76, 0
2, 9912960, Note_on_c, 0, 74, 100
2, 9913020, Note_on_c, 0, 74, 0
2, 9913020, Note_on_c, 0, 84, 100
2, 9913080, Note_on_c, 0, 84, 0
2, 9913080, Note_on_c, 0, 78, 100
2, 9913320, Note_on_c, 0, 78, 0
2, 9913320, Note_on_c, 0, 79, 100
2, 9913440, Note_on_c, 0, 79, 0
2, 9913440, Note_on_c, 0, 81, 100
2, 9913560, Note_on_c, 0, 81, 0
2, 9913560, Note_on_c, 0, 82, 100
2, 9913680, Note_on_c, 0, 82, 0
2, 9913680, Note_on_c, 0, 84, 100
2, 9913800, Note_on_c, 0, 84, 0
2, 9913800, Note_on_c, 0, 86, 100
2, 9913920, Note_on_c, 0, 86, 0
2, 9913920, Note_on_c, 0, 79, 100
2, 10114080, Note_on_c, 0, 79, 0
2, 10114080, Note_on_c, 0, 78, 100
2, 10116000, Note_on_c, 0, 78, 0
2, 10116000, Note_on_c, 0, 79, 100
2, 10117440, Note_on_c, 0, 79, 0
2, 10117440, Note_on_c, 0, 78, 100
2, 10117680, Note_on_c, 0, 78, 0
2, 10117680, Note_on_c, 0, 76, 100
2, 10117920, Note_on_c, 0, 76, 0
2, 10117920, Note_on_c, 0, 74, 100
2, 10119360, Note_on_c, 0, 74, 0
2, 10119360, Note_on_c, 0, 73, 100
2, 10119600, Note_on_c, 0, 73, 0
2, 10119600, Note_on_c, 0, 74, 100
2, 10119840, Note_on_c, 0, 74, 0
2, 10119840, Note_on_c, 0, 76, 100
2, 10121760, Note_on_c, 0, 76, 0
2, 10121760, Note_on_c, 0, 74, 100
2, 10123200, Note_on_c, 0, 74, 0
2, 10123200, Note_on_c, 0, 76, 100
2, 10123440, Note_on_c, 0, 76, 0
2, 10123440, Note_on_c, 0, 78, 100
2, 10123680, Note_on_c, 0, 78, 0
2, 10123680, Note_on_c, 0, 81, 100
2, 10125120, Note_on_c, 0, 81, 0
2, 10125120, Note_on_c, 0, 79, 100
2, 10125360, Note_on_c, 0, 79, 0
2, 10125360, Note_on_c, 0, 81, 100
2, 10125600, Note_on_c, 0, 81, 0
2, 10125600, Note_on_c, 0, 79, 100
2, 10126800, Note_on_c, 0, 79, 0
2, 10126800, Note_on_c, 0, 81, 100
2, 10127040, Note_on_c, 0, 81, 0
2, 10127040, Note_on_c, 0, 78, 100
2, 10127280, Note_on_c, 0, 78, 0
2, 10127280, Note_on_c, 0, 79, 100
2, 10127520, Note_on_c, 0, 79, 0
2, 10127520, Note_on_c, 0, 76, 100
2, 10129440, Note_on_c, 0, 76, 0
2, 10129440, Note_on_c, 0, 74, 100
2, 10131360, Note_on_c, 0, 74, 0
2, 10131360, Note_on_c, 0, 76, 100
2, 10132800, Note_on_c, 0, 76, 0
2, 10132800, Note_on_c, 0, 78, 100
2, 10133040, Note_on_c, 0, 78, 0
2, 10133040, Note_on_c, 0, 79, 100
2, 10133280, Note_on_c, 0, 79, 0
2, 10133280, Note_on_c, 0, 78, 100
2, 10134480, Note_on_c, 0, 78, 0
2, 10134480, Note_on_c, 0, 79, 100
2, 10134720, Note_on_c, 0, 79, 0
2, 10134720, Note_on_c, 0, 76, 100
2, 10134960, Note_on_c, 0, 76, 0
2, 10134960, Note_on_c, 0, 78, 100
2, 10136640, Note_on_c, 0, 78, 0
2, 10136640, Note_on_c, 0, 76, 100
2, 10138560, Note_on_c, 0, 76, 0
2, 10138560, Note_on_c, 0, 74, 100
2, 10139040, Note_on_c, 0, 74, 0
2, 10139040, Note_on_c, 0, 79, 100
2, 10140480, Note_on_c, 0, 79, 0
2, 10140480, Note_on_c, 0, 73, 100
2, 10140960, Note_on_c, 0, 73, 0
2, 10140960, Note_on_c, 0, 74, 100
2, 10141200, Note_on_c, 0, 74, 0
2, 10141200, Note_on_c, 0, 76, 100
2, 10141440, Note_on_c, 0, 76, 0
2, 10141440, Note_on_c, 0, 74, 100
2, 10142880, Note_on_c, 0, 74, 0
2, 10142880, Note_on_c, 0, 79, 100
2, 10144800, Note_on_c, 0, 79, 0
2, 10144800, Note_on_c, 0, 78, 100
2, 10146720, Note_on_c, 0, 78, 0
2, 10146720, Note_on_c, 0, 79, 100
2, 10148160, Note_on_c, 0, 79, 0
2, 10148160, Note_on_c, 0, 78, 100
2, 10148400, Note_on_c, 0, 78, 0
2, 10148400, Note_on_c, 0, 76, 100
2, 10148640, Note_on_c, 0, 76, 0
2, 10148640, Note_on_c, 0, 74, 100
2, 10150080, Note_on_c, 0, 74, 0
2, 10150080, Note_on_c, 0, 73, 100
2, 10150320, Note_on_c, 0, 73, 0
2, 10150320, Note_on_c, 0, 74, 100
2, 10150560, Note_on_c, 0, 74, 0
2, 10150560, Note_on_c, 0, 76, 100
2, 10152480, Note_on_c, 0, 76, 0
2, 10152480, Note_on_c, 0, 74, 100
2, 10153920, Note_on_c, 0, 74, 0
2, 10153920, Note_on_c, 0, 76, 100
2, 10154160, Note_on_c, 0, 76, 0
2, 10154160, Note_on_c, 0, 78, 100
2, 10154400, Note_on_c, 0, 78, 0
2, 10154400, Note_on_c, 0, 81, 100
2, 10155840, Note_on_c, 0, 81, 0
2, 10155840, Note_on_c, 0, 79, 100
2, 10156080, Note_on_c, 0, 79, 0
2, 10156080, Note_on_c, 0, 81, 100
2, 10156320, Note_on_c, 0, 81, 0
2, 10156320, Note_on_c, 0, 79, 100
2, 10157520, Note_on_c, 0, 79, 0
2, 10157520, Note_on_c, 0, 81, 100
2, 10157760, Note_on_c, 0, 81, 0
2, 10157760, Note_on_c, 0, 78, 100
2, 10158000, Note_on_c, 0, 78, 0
2, 10158000, Note_on_c, 0, 79, 100
2, 10158240, Note_on_c, 0, 79, 0
2, 10158240, Note_on_c, 0, 76, 100
2, 10160160, Note_on_c, 0, 76, 0
2, 10160160, Note_on_c, 0, 74, 100
2, 10162080, Note_on_c, 0, 74, 0
2, 10162080, Note_on_c, 0, 76, 100
2, 10163520, Note_on_c, 0, 76, 0
2, 10163520, Note_on_c, 0, 78, 100
2, 10163760, Note_on_c, 0, 78, 0
2, 10163760, Note_on_c, 0, 79, 100
2, 10164000, Note_on_c, 0, 79, 0
2, 10164000, Note_on_c, 0, 78, 100
2, 10165200, Note_on_c, 0, 78, 0
2, 10165200, Note_on_c, 0, 79, 100
2, 10165440, Note_on_c, 0, 79, 0
2, 10165440, Note_on_c, 0, 76, 100
2, 10165680, Note_on_c, 0, 76, 0
2, 10165680, Note_on_c, 0, 78, 100
2, 10167360, Note_on_c, 0, 78, 0
2, 10167360, Note_on_c, 0, 76, 100
2, 10169280, Note_on_c, 0, 76, 0
2, 10169280, Note_on_c, 0, 74, 100
2, 10169760, Note_on_c, 0, 74, 0
2, 10169760, Note_on_c, 0, 79, 100
2, 10171200, Note_on_c, 0, 79, 0
2, 10171200, Note_on_c, 0, 73, 100
2, 10171680, Note_on_c, 0, 73, 0
2, 10171680, Note_on_c, 0, 74, 100
2, 10171920, Note_on_c, 0, 74, 0
2, 10171920, Note_on_c, 0, 76, 100
2, 10172160, Note_on_c, 0, 76, 0
2, 10172160, Note_on_c, 0, 74, 100
2, 10173600, Note_on_c, 0, 74, 0
2, 10173600, Note_on_c, 0, 81, 100
2, 10175520, Note_on_c, 0, 81, 0
2, 10175520, Note_on_c, 0, 79, 100
2, 10177440, Note_on_c, 0, 79, 0
2, 10177440, Note_on_c, 0, 81, 100
2, 10178880, Note_on_c, 0, 81, 0
2, 10178880, Note_on_c, 0, 83, 100
2, 10179120, Note_on_c, 0, 83, 0
2, 10179120, Note_on_c, 0, 84, 100
2, 10179360, Note_on_c, 0, 84, 0
2, 10179360, Note_on_c, 0, 83, 100
2, 10180560, Note_on_c, 0, 83, 0
2, 10180560, Note_on_c, 0, 84, 100
2, 10180800, Note_on_c, 0, 84, 0
2, 10180800, Note_on_c, 0, 83, 100
2, 10181280, Note_on_c, 0, 83, 0
2, 10181280, Note_on_c, 0, 76, 100
2, 10183200, Note_on_c, 0, 76, 0
2, 10183200, Note_on_c, 0, 75, 100
2, 10185120, Note_on_c, 0, 75, 0
2, 10185120, Note_on_c, 0, 76, 100
2, 10185600, Note_on_c, 0, 76, 0
2, 10185600, Note_on_c, 0, 78, 100
2, 10186080, Note_on_c, 0, 78, 0
2, 10186080, Note_on_c, 0, 76, 100
2, 10187520, Note_on_c, 0, 76, 0
2, 10187520, Note_on_c, 0, 78, 100
2, 10187760, Note_on_c, 0, 78, 0
2, 10187760, Note_on_c, 0, 79, 100
2, 10188000, Note_on_c, 0, 79, 0
2, 10188000, Note_on_c, 0, 78, 100
2, 10189200, Note_on_c, 0, 78, 0
2, 10189200, Note_on_c, 0, 76, 100
2, 10189440, Note_on_c, 0, 76, 0
2, 10189440, Note_on_c, 0, 74, 100
2, 10189680, Note_on_c, 0, 74, 0
2, 10189680, Note_on_c, 0, 72, 100
2, 10189920, Note_on_c, 0, 72, 0
2, 10189920, Note_on_c, 0, 81, 100
2, 10190880, Note_on_c, 0, 81, 0
2, 10190880, Note_on_c, 0, 79, 100
2, 10192800, Note_on_c, 0, 79, 0
2, 10192800, Note_on_c, 0, 81, 100
2, 10194240, Note_on_c, 0, 81, 0
2, 10194240, Note_on_c, 0, 83, 100
2, 10194480, Note_on_c, 0, 83, 0
2, 10194480, Note_on_c, 0, 84, 100
2, 10194720, Note_on_c, 0, 84, 0
2, 10194720, Note_on_c, 0, 83, 100
2, 10195920, Note_on_c, 0, 83, 0
2, 10195920, Note_on_c, 0, 84, 100
2, 10196160, Note_on_c, 0, 84, 0
2, 10196160, Note_on_c, 0, 81, 100
2, 10196400, Note_on_c, 0, 81, 0
2, 10196400, Note_on_c, 0, 83, 100
2, 10198080, Note_on_c, 0, 83, 0
2, 10198080, Note_on_c, 0, 81, 100
2, 10200000, Note_on_c, 0, 81, 0
2, 10200000, Note_on_c, 0, 79, 100
2, 10200480, Note_on_c, 0, 79, 0
2, 10200480, Note_on_c, 0, 84, 100
2, 10201920, Note_on_c, 0, 84, 0
2, 10201920, Note_on_c, 0, 78, 100
2, 10202400, Note_on_c, 0, 78, 0
2, 10202400, Note_on_c, 0, 79, 100
2, 10202640, Note_on_c, 0, 79, 0
2, 10202640, Note_on_c, 0, 81, 100
2, 10202880, Note_on_c, 0, 81, 0
2, 10202880, Note_on_c, 0, 79, 100
2, 10204320, Note_on_c, 0, 79, 0
2, 10204320, Note_on_c, 0, 81, 100
2, 10206240, Note_on_c, 0, 81, 0
2, 10206240, Note_on_c, 0, 79, 100
2, 10208160, Note_on_c, 0, 79, 0
2, 10208160, Note_on_c, 0, 81, 100
2, 10209600, Note_on_c, 0, 81, 0
2, 10209600, Note_on_c, 0, 83, 100
2, 10209840, Note_on_c, 0, 83, 0
2, 10209840, Note_on_c, 0, 84, 100
2, 10210080, Note_on_c, 0, 84, 0
2, 10210080, Note_on_c, 0, 83, 100
2, 10211280, Note_on_c, 0, 83, 0
2, 10211280, Note_on_c, 0, 84, 100
2, 10211520, Note_on_c, 0, 84, 0
2, 10211520, Note_on_c, 0, 83, 100
2, 10212000, Note_on_c, 0, 83, 0
2, 10212000, Note_on_c, 0, 76, 100
2, 10213920, Note_on_c, 0, 76, 0
2, 10213920, Note_on_c, 0, 75, 100
2, 10215840, Note_on_c, 0, 75, 0
2, 10215840, Note_on_c, 0, 76, 100
2, 10216320, Note_on_c, 0, 76, 0
2, 10216320, Note_on_c, 0, 78, 100
2, 10216800, Note_on_c, 0, 78, 0
2, 10216800, Note_on_c, 0, 76, 100
2, 10218240, Note_on_c, 0, 76, 0
2, 10218240, Note_on_c, 0, 78, 100
2, 10218480, Note_on_c, 0, 78, 0
2, 10218480, Note_on_c, 0, 79, 100
2, 10218720, Note_on_c, 0, 79, 0
2, 10218720, Note_on_c, 0, 78, 100
2, 10219920, Note_on_c, 0, 78, 0
2, 10219920, Note_on_c, 0, 76, 100
2, 10220160, Note_on_c, 0, 76, 0
2, 10220160, Note_on_c, 0, 74, 100
2, 10220400, Note_on_c, 0, 74, 0
2, 10220400, Note_on_c, 0, 72, 100
2, 10220640, Note_on_c, 0, 72, 0
2, 10220640, Note_on_c, 0, 81, 100
2, 10221600, Note_on_c, 0, 81, 0
2, 10221600, Note_on_c, 0, 79, 100
2, 10223520, Note_on_c, 0, 79, 0
2, 10223520, Note_on_c, 0, 81, 100
2, 10224960, Note_on_c, 0, 81, 0
2, 10224960, Note_on_c, 0, 83, 100
2, 10225200, Note_on_c, 0, 83, 0
2, 10225200, Note_on_c, 0, 84, 100
2, 10225440, Note_on_c, 0, 84, 0
2, 10225440, Note_on_c, 0, 83, 100
2, 10226640, Note_on_c, 0, 83, 0
2, 10226640, Note_on_c, 0, 84, 100
2, 10226880, Note_on_c, 0, 84, 0
2, 10226880, Note_on_c, 0, 81, 100
2, 10227120, Note_on_c, 0, 81, 0
2, 10227120, Note_on_c, 0, 83, 100
2, 10228800, Note_on_c, 0, 83, 0
2, 10228800, Note_on_c, 0, 81, 100
2, 10230720, Note_on_c, 0, 81, 0
2, 10230720, Note_on_c, 0, 79, 100
2, 10231200, Note_on_c, 0, 79, 0
2, 10231200, Note_on_c, 0, 84, 100
2, 10232640, Note_on_c, 0, 84, 0
2, 10232640, Note_on_c, 0, 78, 100
2, 10233120, Note_on_c, 0, 78, 0
2, 10233120, Note_on_c, 0, 79, 100
2, 10233360, Note_on_c, 0, 79, 0
2, 10233360, Note_on_c, 0, 81, 100
2, 10233600, Note_on_c, 0, 81, 0
2, 10233600, Note_on_c, 0, 79, 100
2, 10235040, Note_on_c, 0, 79, 0
2, 10235040, Note_on_c, 0, 71, 100
2, 10236000, Note_on_c, 0, 71, 0
2, 10236000, Note_on_c, 0, 69, 100
2, 10236120, Note_on_c, 0, 69, 0
2, 10236120, Note_on_c, 0, 71, 100
2, 10236240, Note_on_c, 0, 71, 0
2, 10236240, Note_on_c, 0, 67, 100
2, 10236360, Note_on_c, 0, 67, 0
2, 10236360, Note_on_c, 0, 62, 100
2, 10236480, Note_on_c, 0, 62, 0
2, 10236480, Note_on_c, 0, 67, 100
2, 10236600, Note_on_c, 0, 67, 0
2, 10236600, Note_on_c, 0, 69, 100
2, 10236720, Note_on_c, 0, 69, 0
2, 10236720, Note_on_c, 0, 67, 100
2, 10236840, Note_on_c, 0, 67, 0
2, 10236840, Note_on_c, 0, 69, 100
2, 10236960, Note_on_c, 0, 69, 0
2, 10236960, Note_on_c, 0, 66, 100
2, 10237080, Note_on_c, 0, 66, 0
2, 10237080, Note_on_c, 0, 62, 100
2, 10237200, Note_on_c, 0, 62, 0
2, 10237200, Note_on_c, 0, 66, 100
2, 10237320, Note_on_c, 0, 66, 0
2, 10237320, Note_on_c, 0, 67, 100
2, 10237440, Note_on_c, 0, 67, 0
2, 10237440, Note_on_c, 0, 66, 100
2, 10237560, Note_on_c, 0, 66, 0
2, 10237560, Note_on_c, 0, 67, 100
2, 10237680, Note_on_c, 0, 67, 0
2, 10237680, Note_on_c, 0, 71, 100
2, 10237800, Note_on_c, 0, 71, 0
2, 10237800, Note_on_c, 0, 69, 100
2, 10237920, Note_on_c, 0, 69, 0
2, 10237920, Note_on_c, 0, 67, 100
2, 10238040, Note_on_c, 0, 67, 0
2, 10238040, Note_on_c, 0, 66, 100
2, 10238160, Note_on_c, 0, 66, 0
2, 10238160, Note_on_c, 0, 64, 100
2, 10238280, Note_on_c, 0, 64, 0
2, 10238280, Note_on_c, 0, 66, 100
2, 10238400, Note_on_c, 0, 66, 0
2, 10238400, Note_on_c, 0, 67, 100
2, 10238520, Note_on_c, 0, 67, 0
2, 10238520, Note_on_c, 0, 69, 100
2, 10238640, Note_on_c, 0, 69, 0
2, 10238640, Note_on_c, 0, 66, 100
2, 10238760, Note_on_c, 0, 66, 0
2, 10238760, Note_on_c, 0, 67, 100
2, 10240560, Note_on_c, 0, 67, 0
2, 10240560, Note_on_c, 0, 66, 100
2, 10240800, Note_on_c, 0, 66, 0
2, 10240800, Note_on_c, 0, 67, 100
2, 10241040, Note_on_c, 0, 67, 0
2, 10241040, Note_on_c, 0, 74, 100
2, 10242240, Note_on_c, 0, 74, 0
2, 10242240, Note_on_c, 0, 73, 100
2, 10242480, Note_on_c, 0, 73, 0
2, 10242480, Note_on_c, 0, 72, 100
2, 10242960, Note_on_c, 0, 72, 0
2, 10242960, Note_on_c, 0, 71, 100
2, 10243200, Note_on_c, 0, 71, 0
2, 10243200, Note_on_c, 0, 64, 100
2, 10243440, Note_on_c, 0, 64, 0
2, 10243440, Note_on_c, 0, 68, 100
2, 10243680, Note_on_c, 0, 68, 0
2, 10243680, Note_on_c, 0, 69, 100
2, 10243920, Note_on_c, 0, 69, 0
2, 10243920, Note_on_c, 0, 67, 100
2, 10244400, Note_on_c, 0, 67, 0
2, 10244400, Note_on_c, 0, 66, 100
2, 10244640, Note_on_c, 0, 66, 0
2, 10244640, Note_on_c, 0, 69, 100
2, 10245120, Note_on_c, 0, 69, 0
2, 10245120, Note_on_c, 0, 62, 100
2, 10245360, Note_on_c, 0, 62, 0
2, 10245360, Note_on_c, 0, 67, 100
2, 10245600, Note_on_c, 0, 67, 0
2, 10245600, Note_on_c, 0, 71, 100
2, 10245840, Note_on_c, 0, 71, 0
2, 10245840, Note_on_c, 0, 73, 100
2, 10246080, Note_on_c, 0, 73, 0
2, 10246080, Note_on_c, 0, 69, 100
2, 10246320, Note_on_c, 0, 69, 0
2, 10246320, Note_on_c, 0, 67, 100
2, 10246560, Note_on_c, 0, 67, 0
2, 10246560, Note_on_c, 0, 66, 100
2, 10247040, Note_on_c, 0, 66, 0
2, 10247040, Note_on_c, 0, 71, 100
2, 10247520, Note_on_c, 0, 71, 0
2, 10247520, Note_on_c, 0, 69, 100
2, 10247640, Note_on_c, 0, 69, 0
2, 10247640, Note_on_c, 0, 71, 100
2, 10247760, Note_on_c, 0, 71, 0
2, 10247760, Note_on_c, 0, 67, 100
2, 10247880, Note_on_c, 0, 67, 0
2, 10247880, Note_on_c, 0, 62, 100
2, 10248000, Note_on_c, 0, 62, 0
2, 10248000, Note_on_c, 0, 67, 100
2, 10248120, Note_on_c, 0, 67, 0
2, 10248120, Note_on_c, 0, 69, 100
2, 10248240, Note_on_c, 0, 69, 0
2, 10248240, Note_on_c, 0, 67, 100
2, 10248360, Note_on_c, 0, 67, 0
2, 10248360, Note_on_c, 0, 69, 100
2, 10248480, Note_on_c, 0, 69, 0
2, 10248480, Note_on_c, 0, 66, 100
2, 10248600, Note_on_c, 0, 66, 0
2, 10248600, Note_on_c, 0, 62, 100
2, 10248720, Note_on_c, 0, 62, 0
2, 10248720, Note_on_c, 0, 66, 100
2, 10248840, Note_on_c, 0, 66, 0
2, 10248840, Note_on_c, 0, 67, 100
2, 10248960, Note_on_c, 0, 67, 0
2, 10248960, Note_on_c, 0, 66, 100
2, 10249080, Note_on_c, 0, 66, 0
2, 10249080, Note_on_c, 0, 67, 100
2, 10249200, Note_on_c, 0, 67, 0
2, 10249200, Note_on_c, 0, 71, 100
2, 10249320, Note_on_c, 0, 71, 0
2, 10249320, Note_on_c, 0, 69, 100
2, 10249440, Note_on_c, 0, 69, 0
2, 10249440, Note_on_c, 0, 67, 100
2, 10249560, Note_on_c, 0, 67, 0
2, 10249560, Note_on_c, 0, 66, 100
2, 10249680, Note_on_c, 0, 66, 0
2, 10249680, Note_on_c, 0, 64, 100
2, 10249800, Note_on_c, 0, 64, 0
2, 10249800, Note_on_c, 0, 66, 100
2, 10249920, Note_on_c, 0, 66, 0
2, 10249920, Note_on_c, 0, 67, 100
2, 10250040, Note_on_c, 0, 67, 0
2, 10250040, Note_on_c, 0, 69, 100
2, 10250160, Note_on_c, 0, 69, 0
2, 10250160, Note_on_c, 0, 66, 100
2, 10250280, Note_on_c, 0, 66, 0
2, 10250280, Note_on_c, 0, 67, 100
2, 10252080, Note_on_c, 0, 67, 0
2, 10252080, Note_on_c, 0, 66, 100
2, 10252320, Note_on_c, 0, 66, 0
2, 10252320, Note_on_c, 0, 67, 100
2, 10252560, Note_on_c, 0, 67, 0
2, 10252560, Note_on_c, 0, 74, 100
2, 10253760, Note_on_c, 0, 74, 0
2, 10253760, Note_on_c, 0, 73, 100
2, 10254000, Note_on_c, 0, 73, 0
2, 10254000, Note_on_c, 0, 72, 100
2, 10254480, Note_on_c, 0, 72, 0
2, 10254480, Note_on_c, 0, 71, 100
2, 10254720, Note_on_c, 0, 71, 0
2, 10254720, Note_on_c, 0, 64, 100
2, 10254960, Note_on_c, 0, 64, 0
2, 10254960, Note_on_c, 0, 68, 100
2, 10255200, Note_on_c, 0, 68, 0
2, 10255200, Note_on_c, 0, 69, 100
2, 10255440, Note_on_c, 0, 69, 0
2, 10255440, Note_on_c, 0, 67, 100
2, 10255920, Note_on_c, 0, 67, 0
2, 10255920, Note_on_c, 0, 66, 100
2, 10256160, Note_on_c, 0, 66, 0
2, 10256160, Note_on_c, 0, 69, 100
2, 10256640, Note_on_c, 0, 69, 0
2, 10256640, Note_on_c, 0, 62, 100
2, 10256880, Note_on_c, 0, 62, 0
2, 10256880, Note_on_c, 0, 67, 100
2, 10257120, Note_on_c, 0, 67, 0
2, 10257120, Note_on_c, 0, 71, 100
2, 10257360, Note_on_c, 0, 71, 0
2, 10257360, Note_on_c, 0, 73, 100
2, 10257600, Note_on_c, 0, 73, 0
2, 10257600, Note_on_c, 0, 69, 100
2, 10257840, Note_on_c, 0, 69, 0
2, 10257840, Note_on_c, 0, 67, 100
2, 10258080, Note_on_c, 0, 67, 0
2, 10258080, Note_on_c, 0, 66, 100
2, 10258560, Note_on_c, 0, 66, 0
2, 10258560, Note_on_c, 0, 62, 100
2, 10259280, Note_on_c, 0, 62, 0
2, 10259280, Note_on_c, 0, 59, 100
2, 10260000, Note_on_c, 0, 59, 0
2, 10260000, Note_on_c, 0, 67, 100
2, 10260720, Note_on_c, 0, 67, 0
2, 10260720, Note_on_c, 0, 72, 100
2, 10260960, Note_on_c, 0, 72, 0
2, 10260960, Note_on_c, 0, 66, 100
2, 10261200, Note_on_c, 0, 66, 0
2, 10261200, Note_on_c, 0, 71, 100
2, 10261920, Note_on_c, 0, 71, 0
2, 10261920, Note_on_c, 0, 69, 100
2, 10262040, Note_on_c, 0, 69, 0
2, 10262040, Note_on_c, 0, 71, 100
2, 10262160, Note_on_c, 0, 71, 0
2, 10262160, Note_on_c, 0, 67, 100
2, 10262280, Note_on_c, 0, 67, 0
2, 10262280, Note_on_c, 0, 64, 100
2, 10262400, Note_on_c, 0, 64, 0
2, 10262400, Note_on_c, 0, 67, 100
2, 10262520, Note_on_c, 0, 67, 0
2, 10262520, Note_on_c, 0, 72, 100
2, 10262640, Note_on_c, 0, 72, 0
2, 10262640, Note_on_c, 0, 71, 100
2, 10262760, Note_on_c, 0, 71, 0
2, 10262760, Note_on_c, 0, 72, 100
2, 10262880, Note_on_c, 0, 72, 0
2, 10262880, Note_on_c, 0, 69, 100
2, 10263000, Note_on_c, 0, 69, 0
2, 10263000, Note_on_c, 0, 66, 100
2, 10263120, Note_on_c, 0, 66, 0
2, 10263120, Note_on_c, 0, 69, 100
2, 10263240, Note_on_c, 0, 69, 0
2, 10263240, Note_on_c, 0, 71, 100
2, 10263360, Note_on_c, 0, 71, 0
2, 10263360, Note_on_c, 0, 69, 100
2, 10263480, Note_on_c, 0, 69, 0
2, 10263480, Note_on_c, 0, 71, 100
2, 10263600, Note_on_c, 0, 71, 0
2, 10263600, Note_on_c, 0, 72, 100
2, 10263720, Note_on_c, 0, 72, 0
2, 10263720, Note_on_c, 0, 71, 100
2, 10263840, Note_on_c, 0, 71, 0
2, 10263840, Note_on_c, 0, 69, 100
2, 10263960, Note_on_c, 0, 69, 0
2, 10263960, Note_on_c, 0, 67, 100
2, 10264080, Note_on_c, 0, 67, 0
2, 10264080, Note_on_c, 0, 66, 100
2, 10264200, Note_on_c, 0, 66, 0
2, 10264200, Note_on_c, 0, 67, 100
2, 10264320, Note_on_c, 0, 67, 0
2, 10264320, Note_on_c, 0, 69, 100
2, 10264440, Note_on_c, 0, 69, 0
2, 10264440, Note_on_c, 0, 71, 100
2, 10264560, Note_on_c, 0, 71, 0
2, 10264560, Note_on_c, 0, 67, 100
2, 10264680, Note_on_c, 0, 67, 0
2, 10264680, Note_on_c, 0, 64, 100
2, 10264800, Note_on_c, 0, 64, 0
2, 10264800, Note_on_c, 0, 62, 100
2, 10265760, Note_on_c, 0, 62, 0
2, 10265760, Note_on_c, 0, 67, 100
2, 10265880, Note_on_c, 0, 67, 0
2, 10265880, Note_on_c, 0, 71, 100
2, 10266000, Note_on_c, 0, 71, 0
2, 10266000, Note_on_c, 0, 67, 100
2, 10266120, Note_on_c, 0, 67, 0
2, 10266120, Note_on_c, 0, 64, 100
2, 10266240, Note_on_c, 0, 64, 0
2, 10266240, Note_on_c, 0, 62, 100
2, 10266960, Note_on_c, 0, 62, 0
2, 10266960, Note_on_c, 0, 55, 100
2, 10267920, Note_on_c, 0, 55, 0
2, 10267920, Note_on_c, 0, 48, 100
2, 10268640, Note_on_c, 0, 48, 0
2, 10268640, Note_on_c, 0, 60, 100
2, 10268880, Note_on_c, 0, 60, 0
2, 10268880, Note_on_c, 0, 57, 100
2, 10269360, Note_on_c, 0, 57, 0
2, 10269360, Note_on_c, 0, 60, 100
2, 10269600, Note_on_c, 0, 60, 0
2, 10269600, Note_on_c, 0, 59, 100
2, 10270080, Note_on_c, 0, 59, 0
2, 10270080, Note_on_c, 0, 62, 100
2, 10270800, Note_on_c, 0, 62, 0
2, 10270800, Note_on_c, 0, 59, 100
2, 10271520, Note_on_c, 0, 59, 0
2, 10271520, Note_on_c, 0, 67, 100
2, 10272240, Note_on_c, 0, 67, 0
2, 10272240, Note_on_c, 0, 72, 100
2, 10272480, Note_on_c, 0, 72, 0
2, 10272480, Note_on_c, 0, 66, 100
2, 10272720, Note_on_c, 0, 66, 0
2, 10272720, Note_on_c, 0, 71, 100
2, 10273440, Note_on_c, 0, 71, 0
2, 10273440, Note_on_c, 0, 69, 100
2, 10273560, Note_on_c, 0, 69, 0
2, 10273560, Note_on_c, 0, 71, 100
2, 10273680, Note_on_c, 0, 71, 0
2, 10273680, Note_on_c, 0, 67, 100
2, 10273800, Note_on_c, 0, 67, 0
2, 10273800, Note_on_c, 0, 64, 100
2, 10273920, Note_on_c, 0, 64, 0
2, 10273920, Note_on_c, 0, 67, 100
2, 10274040, Note_on_c, 0, 67, 0
2, 10274040, Note_on_c, 0, 72, 100
2, 10274160, Note_on_c, 0, 72, 0
2, 10274160, Note_on_c, 0, 71, 100
2, 10274280, Note_on_c, 0, 71, 0
2, 10274280, Note_on_c, 0, 72, 100
2, 10274400, Note_on_c, 0, 72, 0
2, 10274400, Note_on_c, 0, 69, 100
2, 10274520, Note_on_c, 0, 69, 0
2, 10274520, Note_on_c, 0, 66, 100
2, 10274640, Note_on_c, 0, 66, 0
2, 10274640, Note_on_c, 0, 69, 100
2, 10274760, Note_on_c, 0, 69, 0
2, 10274760, Note_on_c, 0, 71, 100
2, 10274880, Note_on_c, 0, 71, 0
2, 10274880, Note_on_c, 0, 69, 100
2, 10275000, Note_on_c, 0, 69, 0
2, 10275000, Note_on_c, 0, 71, 100
2, 10275120, Note_on_c, 0, 71, 0
2, 10275120, Note_on_c, 0, 72, 100
2, 10275240, Note_on_c, 0, 72, 0
2, 10275240, Note_on_c, 0, 71, 100
2, 10275360, Note_on_c, 0, 71, 0
2, 10275360, Note_on_c, 0, 69, 100
2, 10275480, Note_on_c, 0, 69, 0
2, 10275480, Note_on_c, 0, 67, 100
2, 10275600, Note_on_c, 0, 67, 0
2, 10275600, Note_on_c, 0, 66, 100
2, 10275720, Note_on_c, 0, 66, 0
2, 10275720, Note_on_c, 0, 67, 100
2, 10275840, Note_on_c, 0, 67, 0
2, 10275840, Note_on_c, 0, 69, 100
2, 10275960, Note_on_c, 0, 69, 0
2, 10275960, Note_on_c, 0, 71, 100
2, 10276080, Note_on_c, 0, 71, 0
2, 10276080, Note_on_c, 0, 67, 100
2, 10276200, Note_on_c, 0, 67, 0
2, 10276200, Note_on_c, 0, 64, 100
2, 10276320, Note_on_c, 0, 64, 0
2, 10276320, Note_on_c, 0, 62, 100
2, 10277280, Note_on_c, 0, 62, 0
2, 10277280, Note_on_c, 0, 67, 100
2, 10277400, Note_on_c, 0, 67, 0
2, 10277400, Note_on_c, 0, 71, 100
2, 10277520, Note_on_c, 0, 71, 0
2, 10277520, Note_on_c, 0, 67, 100
2, 10277640, Note_on_c, 0, 67, 0
2, 10277640, Note_on_c, 0, 64, 100
2, 10277760, Note_on_c, 0, 64, 0
2, 10277760, Note_on_c, 0, 62, 100
2, 10278480, Note_on_c, 0, 62, 0
2, 10278480, Note_on_c, 0, 55, 100
2, 10279440, Note_on_c, 0, 55, 0
2, 10279440, Note_on_c, 0, 48, 100
2, 10280160, Note_on_c, 0, 48, 0
2, 10280160, Note_on_c, 0, 60, 100
2, 10280400, Note_on_c, 0, 60, 0
2, 10280400, Note_on_c, 0, 57, 100
2, 10280880, Note_on_c, 0, 57, 0
2, 10280880, Note_on_c, 0, 60, 100
2, 10281120, Note_on_c, 0, 60, 0
2, 10281120, Note_on_c, 0, 59, 100
2, 10281600, Note_on_c, 0, 59, 0
2, 10281600, Note_on_c, 0, 58, 100
2, 10374360, Note_on_c, 0, 58, 0
2, 10374360, Note_on_c, 0, 60, 100
2, 10374480, Note_on_c, 0, 60, 0
2, 10374480, Note_on_c, 0, 62, 100
2, 10374600, Note_on_c, 0, 62, 0
2, 10374600, Note_on_c, 0, 63, 100
2, 10374720, Note_on_c, 0, 63, 0
2, 10374720, Note_on_c, 0, 62, 100
2, 10374840, Note_on_c, 0, 62, 0
2, 10374840, Note_on_c, 0, 60, 100
2, 10374960, Note_on_c, 0, 60, 0
2, 10374960, Note_on_c, 0, 58, 100
2, 10375080, Note_on_c, 0, 58, 0
2, 10375080, Note_on_c, 0, 57, 100
2, 10375200, Note_on_c, 0, 57, 0
2, 10375200, Note_on_c, 0, 63, 100
2, 10375440, Note_on_c, 0, 63, 0
2, 10375440, Note_on_c, 0, 57, 100
2, 10375680, Note_on_c, 0, 57, 0
2, 10375680, Note_on_c, 0, 62, 100
2, 10375920, Note_on_c, 0, 62, 0
2, 10375920, Note_on_c, 0, 55, 100
2, 10376280, Note_on_c, 0, 55, 0
2, 10376280, Note_on_c, 0, 57, 100
2, 10376400, Note_on_c, 0, 57, 0
2, 10376400, Note_on_c, 0, 58, 100
2, 10376520, Note_on_c, 0, 58, 0
2, 10376520, Note_on_c, 0, 60, 100
2, 10376640, Note_on_c, 0, 60, 0
2, 10376640, Note_on_c, 0, 58, 100
2, 10376760, Note_on_c, 0, 58, 0
2, 10376760, Note_on_c, 0, 57, 100
2, 10376880, Note_on_c, 0, 57, 0
2, 10376880, Note_on_c, 0, 55, 100
2, 10377000, Note_on_c, 0, 55, 0
2, 10377000, Note_on_c, 0, 57, 100
2, 10377840, Note_on_c, 0, 57, 0
2, 10377840, Note_on_c, 0, 58, 100
2, 10378080, Note_on_c, 0, 58, 0
2, 10378080, Note_on_c, 0, 57, 100
2, 10378320, Note_on_c, 0, 57, 0
2, 10378320, Note_on_c, 0, 58, 100
2, 10378560, Note_on_c, 0, 58, 0
2, 10378560, Note_on_c, 0, 59, 100
2, 10378800, Note_on_c, 0, 59, 0
2, 10378800, Note_on_c, 0, 60, 100
2, 10379040, Note_on_c, 0, 60, 0
2, 10379040, Note_on_c, 0, 62, 100
2, 10379160, Note_on_c, 0, 62, 0
2, 10379160, Note_on_c, 0, 63, 100
2, 10379280, Note_on_c, 0, 63, 0
2, 10379280, Note_on_c, 0, 62, 100
2, 10379400, Note_on_c, 0, 62, 0
2, 10379400, Note_on_c, 0, 60, 100
2, 10379520, Note_on_c, 0, 60, 0
2, 10379520, Note_on_c, 0, 58, 100
2, 10379640, Note_on_c, 0, 58, 0
2, 10379640, Note_on_c, 0, 57, 100
2, 10379760, Note_on_c, 0, 57, 0
2, 10379760, Note_on_c, 0, 55, 100
2, 10379880, Note_on_c, 0, 55, 0
2, 10379880, Note_on_c, 0, 66, 100
2, 10380000, Note_on_c, 0, 66, 0
2, 10380000, Note_on_c, 0, 62, 100
2, 10381080, Note_on_c, 0, 62, 0
2, 10381080, Note_on_c, 0, 60, 100
2, 10381200, Note_on_c, 0, 60, 0
2, 10381200, Note_on_c, 0, 58, 100
2, 10381320, Note_on_c, 0, 58, 0
2, 10381320, Note_on_c, 0, 60, 100
2, 10381440, Note_on_c, 0, 60, 0
2, 10381440, Note_on_c, 0, 62, 100
2, 10381560, Note_on_c, 0, 62, 0
2, 10381560, Note_on_c, 0, 64, 100
2, 10381680, Note_on_c, 0, 64, 0
2, 10381680, Note_on_c, 0, 66, 100
2, 10381800, Note_on_c, 0, 66, 0
2, 10381800, Note_on_c, 0, 67, 100
2, 10381920, Note_on_c, 0, 67, 0
2, 10381920, Note_on_c, 0, 66, 100
2, 10382160, Note_on_c, 0, 66, 0
2, 10382160, Note_on_c, 0, 67, 100
2, 10382400, Note_on_c, 0, 67, 0
2, 10382400, Note_on_c, 0, 69, 100
2, 10382520, Note_on_c, 0, 69, 0
2, 10382520, Note_on_c, 0, 70, 100
2, 10382640, Note_on_c, 0, 70, 0
2, 10382640, Note_on_c, 0, 69, 100
2, 10383000, Note_on_c, 0, 69, 0
2, 10383000, Note_on_c, 0, 67, 100
2, 10383120, Note_on_c, 0, 67, 0
2, 10383120, Note_on_c, 0, 70, 100
2, 10383240, Note_on_c, 0, 70, 0
2, 10383240, Note_on_c, 0, 69, 100
2, 10383360, Note_on_c, 0, 69, 0
2, 10383360, Note_on_c, 0, 67, 100
2, 10383480, Note_on_c, 0, 67, 0
2, 10383480, Note_on_c, 0, 65, 100
2, 10383600, Note_on_c, 0, 65, 0
2, 10383600, Note_on_c, 0, 64, 100
2, 10383840, Note_on_c, 0, 64, 0
2, 10383840, Note_on_c, 0, 62, 100
2, 10383880, Note_on_c, 0, 62, 0
2, 10383880, Note_on_c, 0, 64, 100
2, 10383920, Note_on_c, 0, 64, 0
2, 10383920, Note_on_c, 0, 62, 100
2, 10383960, Note_on_c, 0, 62, 0
2, 10383960, Note_on_c, 0, 64, 100
2, 10384000, Note_on_c, 0, 64, 0
2, 10384000, Note_on_c, 0, 62, 100
2, 10384040, Note_on_c, 0, 62, 0
2, 10384040, Note_on_c, 0, 64, 100
2, 10384080, Note_on_c, 0, 64, 0
2, 10384080, Note_on_c, 0, 62, 100
2, 10384110, Note_on_c, 0, 62, 0
2, 10384110, Note_on_c, 0, 64, 100
2, 10384140, Note_on_c, 0, 64, 0
2, 10384140, Note_on_c, 0, 62, 100
2, 10384170, Note_on_c, 0, 62, 0
2, 10384170, Note_on_c, 0, 61, 100
2, 10384200, Note_on_c, 0, 61, 0
2, 10384200, Note_on_c, 0, 62, 100
2, 10384320, Note_on_c, 0, 62, 0
2, 10384320, Note_on_c, 0, 64, 100
2, 10384440, Note_on_c, 0, 64, 0
2, 10384440, Note_on_c, 0, 65, 100
2, 10384560, Note_on_c, 0, 65, 0
2, 10384560, Note_on_c, 0, 64, 100
2, 10385520, Note_on_c, 0, 64, 0
2, 10385520, Note_on_c, 0, 65, 100
2, 10385760, Note_on_c, 0, 65, 0
2, 10385760, Note_on_c, 0, 64, 100
2, 10386000, Note_on_c, 0, 64, 0
2, 10386000, Note_on_c, 0, 65, 100
2, 10386240, Note_on_c, 0, 65, 0
2, 10386240, Note_on_c, 0, 66, 100
2, 10386480, Note_on_c, 0, 66, 0
2, 10386480, Note_on_c, 0, 67, 100
2, 10386720, Note_on_c, 0, 67, 0
2, 10386720, Note_on_c, 0, 69, 100
2, 10386960, Note_on_c, 0, 69, 0
2, 10386960, Note_on_c, 0, 70, 100
2, 10387200, Note_on_c, 0, 70, 0
2, 10387200, Note_on_c, 0, 69, 100
2, 10387440, Note_on_c, 0, 69, 0
2, 10387440, Note_on_c, 0, 67, 100
2, 10387920, Note_on_c, 0, 67, 0
2, 10387920, Note_on_c, 0, 65, 100
2, 10388040, Note_on_c, 0, 65, 0
2, 10388040, Note_on_c, 0, 64, 100
2, 10388160, Note_on_c, 0, 64, 0
2, 10388160, Note_on_c, 0, 62, 100
2, 10388280, Note_on_c, 0, 62, 0
2, 10388280, Note_on_c, 0, 64, 100
2, 10388400, Note_on_c, 0, 64, 0
2, 10388400, Note_on_c, 0, 62, 100
2, 10388640, Note_on_c, 0, 62, 0
2, 10388640, Note_on_c, 0, 58, 100
2, 10389720, Note_on_c, 0, 58, 0
2, 10389720, Note_on_c, 0, 60, 100
2, 10389840, Note_on_c, 0, 60, 0
2, 10389840, Note_on_c, 0, 62, 100
2, 10389960, Note_on_c, 0, 62, 0
2, 10389960, Note_on_c, 0, 63, 100
2, 10390080, Note_on_c, 0, 63, 0
2, 10390080, Note_on_c, 0, 62, 100
2, 10390200, Note_on_c, 0, 62, 0
2, 10390200, Note_on_c, 0, 60, 100
2, 10390320, Note_on_c, 0, 60, 0
2, 10390320, Note_on_c, 0, 58, 100
2, 10390440, Note_on_c, 0, 58, 0
2, 10390440, Note_on_c, 0, 57, 100
2, 10390560, Note_on_c, 0, 57, 0
2, 10390560, Note_on_c, 0, 63, 100
2, 10390800, Note_on_c, 0, 63, 0
2, 10390800, Note_on_c, 0, 57, 100
2, 10391040, Note_on_c, 0, 57, 0
2, 10391040, Note_on_c, 0, 62, 100
2, 10391280, Note_on_c, 0, 62, 0
2, 10391280, Note_on_c, 0, 55, 100
2, 10391640, Note_on_c, 0, 55, 0
2, 10391640, Note_on_c, 0, 57, 100
2, 10391760, Note_on_c, 0, 57, 0
2, 10391760, Note_on_c, 0, 58, 100
2, 10391880, Note_on_c, 0, 58, 0
2, 10391880, Note_on_c, 0, 60, 100
2, 10392000, Note_on_c, 0, 60, 0
2, 10392000, Note_on_c, 0, 58, 100
2, 10392120, Note_on_c, 0, 58, 0
2, 10392120, Note_on_c, 0, 57, 100
2, 10392240, Note_on_c, 0, 57, 0
2, 10392240, Note_on_c, 0, 55, 100
2, 10392360, Note_on_c, 0, 55, 0
2, 10392360, Note_on_c, 0, 57, 100
2, 10393200, Note_on_c, 0, 57, 0
2, 10393200, Note_on_c, 0, 58, 100
2, 10393440, Note_on_c, 0, 58, 0
2, 10393440, Note_on_c, 0, 57, 100
2, 10393680, Note_on_c, 0, 57, 0
2, 10393680, Note_on_c, 0, 58, 100
2, 10393920, Note_on_c, 0, 58, 0
2, 10393920, Note_on_c, 0, 59, 100
2, 10394160, Note_on_c, 0, 59, 0
2, 10394160, Note_on_c, 0, 60, 100
2, 10394400, Note_on_c, 0, 60, 0
2, 10394400, Note_on_c, 0, 62, 100
2, 10394520, Note_on_c, 0, 62, 0
2, 10394520, Note_on_c, 0, 63, 100
2, 10394640, Note_on_c, 0, 63, 0
2, 10394640, Note_on_c, 0, 62, 100
2, 10394760, Note_on_c, 0, 62, 0
2, 10394760, Note_on_c, 0, 60, 100
2, 10394880, Note_on_c, 0, 60, 0
2, 10394880, Note_on_c, 0, 58, 100
2, 10395000, Note_on_c, 0, 58, 0
2, 10395000, Note_on_c, 0, 57, 100
2, 10395120, Note_on_c, 0, 57, 0
2, 10395120, Note_on_c, 0, 55, 100
2, 10395240, Note_on_c, 0, 55, 0
2, 10395240, Note_on_c, 0, 66, 100
2, 10395360, Note_on_c, 0, 66, 0
2, 10395360, Note_on_c, 0, 62, 100
2, 10396440, Note_on_c, 0, 62, 0
2, 10396440, Note_on_c, 0, 60, 100
2, 10396560, Note_on_c, 0, 60, 0
2, 10396560, Note_on_c, 0, 58, 100
2, 10396680, Note_on_c, 0, 58, 0
2, 10396680, Note_on_c, 0, 60, 100
2, 10396800, Note_on_c, 0, 60, 0
2, 10396800, Note_on_c, 0, 62, 100
2, 10396920, Note_on_c, 0, 62, 0
2, 10396920, Note_on_c, 0, 64, 100
2, 10397040, Note_on_c, 0, 64, 0
2, 10397040, Note_on_c, 0, 66, 100
2, 10397160, Note_on_c, 0, 66, 0
2, 10397160, Note_on_c, 0, 67, 100
2, 10397280, Note_on_c, 0, 67, 0
2, 10397280, Note_on_c, 0, 66, 100
2, 10397520, Note_on_c, 0, 66, 0
2, 10397520, Note_on_c, 0, 67, 100
2, 10397760, Note_on_c, 0, 67, 0
2, 10397760, Note_on_c, 0, 69, 100
2, 10397880, Note_on_c, 0, 69, 0
2, 10397880, Note_on_c, 0, 70, 100
2, 10398000, Note_on_c, 0, 70, 0
2, 10398000, Note_on_c, 0, 69, 100
2, 10398360, Note_on_c, 0, 69, 0
2, 10398360, Note_on_c, 0, 67, 100
2, 10398480, Note_on_c, 0, 67, 0
2, 10398480, Note_on_c, 0, 70, 100
2, 10398600, Note_on_c, 0, 70, 0
2, 10398600, Note_on_c, 0, 69, 100
2, 10398720, Note_on_c, 0, 69, 0
2, 10398720, Note_on_c, 0, 67, 100
2, 10398840, Note_on_c, 0, 67, 0
2, 10398840, Note_on_c, 0, 65, 100
2, 10398960, Note_on_c, 0, 65, 0
2, 10398960, Note_on_c, 0, 64, 100
2, 10399200, Note_on_c, 0, 64, 0
2, 10399200, Note_on_c, 0, 62, 100
2, 10399240, Note_on_c, 0, 62, 0
2, 10399240, Note_on_c, 0, 64, 100
2, 10399280, Note_on_c, 0, 64, 0
2, 10399280, Note_on_c, 0, 62, 100
2, 10399320, Note_on_c, 0, 62, 0
2, 10399320, Note_on_c, 0, 64, 100
2, 10399360, Note_on_c, 0, 64, 0
2, 10399360, Note_on_c, 0, 62, 100
2, 10399400, Note_on_c, 0, 62, 0
2, 10399400, Note_on_c, 0, 64, 100
2, 10399440, Note_on_c, 0, 64, 0
2, 10399440, Note_on_c, 0, 62, 100
2, 10399470, Note_on_c, 0, 62, 0
2, 10399470, Note_on_c, 0, 64, 100
2, 10399500, Note_on_c, 0, 64, 0
2, 10399500, Note_on_c, 0, 62, 100
2, 10399530, Note_on_c, 0, 62, 0
2, 10399530, Note_on_c, 0, 61, 100
2, 10399560, Note_on_c, 0, 61, 0
2, 10399560, Note_on_c, 0, 62, 100
2, 10399680, Note_on_c, 0, 62, 0
2, 10399680, Note_on_c, 0, 64, 100
2, 10399800, Note_on_c, 0, 64, 0
2, 10399800, Note_on_c, 0, 65, 100
2, 10399920, Note_on_c, 0, 65, 0
2, 10399920, Note_on_c, 0, 64, 100
2, 10400880, Note_on_c, 0, 64, 0
2, 10400880, Note_on_c, 0, 65, 100
2, 10401120, Note_on_c, 0, 65, 0
2, 10401120, Note_on_c, 0, 64, 100
2, 10401360, Note_on_c, 0, 64, 0
2, 10401360, Note_on_c, 0, 65, 100
2, 10401600, Note_on_c, 0, 65, 0
2, 10401600, Note_on_c, 0, 66, 100
2, 10401840, Note_on_c, 0, 66, 0
2, 10401840, Note_on_c, 0, 67, 100
2, 10402080, Note_on_c, 0, 67, 0
2, 10402080, Note_on_c, 0, 69, 100
2, 10402320, Note_on_c, 0, 69, 0
2, 10402320, Note_on_c, 0, 70, 100
2, 10402560, Note_on_c, 0, 70, 0
2, 10402560, Note_on_c, 0, 69, 100
2, 10402800, Note_on_c, 0, 69, 0
2, 10402800, Note_on_c, 0, 67, 100
2, 10403280, Note_on_c, 0, 67, 0
2, 10403280, Note_on_c, 0, 65, 100
2, 10403400, Note_on_c, 0, 65, 0
2, 10403400, Note_on_c, 0, 64, 100
2, 10403520, Note_on_c, 0, 64, 0
2, 10403520, Note_on_c, 0, 62, 100
2, 10403640, Note_on_c, 0, 62, 0
2, 10403640, Note_on_c, 0, 64, 100
2, 10403760, Note_on_c, 0, 64, 0
2, 10403760, Note_on_c, 0, 62, 100
2, 10404000, Note_on_c, 0, 62, 0
2, 10404000, Note_on_c, 0, 70, 100
2, 10405080, Note_on_c, 0, 70, 0
2, 10405080, Note_on_c, 0, 69, 100
2, 10405200, Note_on_c, 0, 69, 0
2, 10405200, Note_on_c, 0, 67, 100
2, 10405320, Note_on_c, 0, 67, 0
2, 10405320, Note_on_c, 0, 66, 100
2, 10405440, Note_on_c, 0, 66, 0
2, 10405440, Note_on_c, 0, 67, 100
2, 10405560, Note_on_c, 0, 67, 0
2, 10405560, Note_on_c, 0, 69, 100
2, 10405680, Note_on_c, 0, 69, 0
2, 10405680, Note_on_c, 0, 66, 100
2, 10405800, Note_on_c, 0, 66, 0
2, 10405800, Note_on_c, 0, 62, 100
2, 10405920, Note_on_c, 0, 62, 0
2, 10405920, Note_on_c, 0, 64, 100
2, 10406160, Note_on_c, 0, 64, 0
2, 10406160, Note_on_c, 0, 65, 100
2, 10406280, Note_on_c, 0, 65, 0
2, 10406280, Note_on_c, 0, 67, 100
2, 10406400, Note_on_c, 0, 67, 0
2, 10406400, Note_on_c, 0, 60, 100
2, 10406640, Note_on_c, 0, 60, 0
2, 10406640, Note_on_c, 0, 67, 100
2, 10407000, Note_on_c, 0, 67, 0
2, 10407000, Note_on_c, 0, 65, 100
2, 10407120, Note_on_c, 0, 65, 0
2, 10407120, Note_on_c, 0, 63, 100
2, 10407240, Note_on_c, 0, 63, 0
2, 10407240, Note_on_c, 0, 62, 100
2, 10407360, Note_on_c, 0, 62, 0
2, 10407360, Note_on_c, 0, 65, 100
2, 10407480, Note_on_c, 0, 65, 0
2, 10407480, Note_on_c, 0, 63, 100
2, 10407600, Note_on_c, 0, 63, 0
2, 10407600, Note_on_c, 0, 67, 100
2, 10407720, Note_on_c, 0, 67, 0
2, 10407720, Note_on_c, 0, 65, 100
2, 10407840, Note_on_c, 0, 65, 0
2, 10407840, Note_on_c, 0, 67, 100
2, 10408080, Note_on_c, 0, 67, 0
2, 10408080, Note_on_c, 0, 68, 100
2, 10408320, Note_on_c, 0, 68, 0
2, 10408320, Note_on_c, 0, 67, 100
2, 10408920, Note_on_c, 0, 67, 0
2, 10408920, Note_on_c, 0, 68, 100
2, 10409040, Note_on_c, 0, 68, 0
2, 10409040, Note_on_c, 0, 70, 100
2, 10409160, Note_on_c, 0, 70, 0
2, 10409160, Note_on_c, 0, 63, 100
2, 10409280, Note_on_c, 0, 63, 0
2, 10409280, Note_on_c, 0, 62, 100
2, 10409400, Note_on_c, 0, 62, 0
2, 10409400, Note_on_c, 0, 63, 100
2, 10409520, Note_on_c, 0, 63, 0
2, 10409520, Note_on_c, 0, 67, 100
2, 10409640, Note_on_c, 0, 67, 0
2, 10409640, Note_on_c, 0, 60, 100
2, 10409760, Note_on_c, 0, 60, 0
2, 10409760, Note_on_c, 0, 62, 100
2, 10409880, Note_on_c, 0, 62, 0
2, 10409880, Note_on_c, 0, 63, 100
2, 10410000, Note_on_c, 0, 63, 0
2, 10410000, Note_on_c, 0, 60, 100
2, 10410120, Note_on_c, 0, 60, 0
2, 10410120, Note_on_c, 0, 65, 100
2, 10410240, Note_on_c, 0, 65, 0
2, 10410240, Note_on_c, 0, 58, 100
2, 10410480, Note_on_c, 0, 58, 0
2, 10410480, Note_on_c, 0, 56, 100
2, 10410960, Note_on_c, 0, 56, 0
2, 10410960, Note_on_c, 0, 55, 100
2, 10411080, Note_on_c, 0, 55, 0
2, 10411080, Note_on_c, 0, 56, 100
2, 10411200, Note_on_c, 0, 56, 0
2, 10411200, Note_on_c, 0, 65, 100
2, 10411440, Note_on_c, 0, 65, 0
2, 10411440, Note_on_c, 0, 63, 100
2, 10411920, Note_on_c, 0, 63, 0
2, 10411920, Note_on_c, 0, 62, 100
2, 10412040, Note_on_c, 0, 62, 0
2, 10412040, Note_on_c, 0, 63, 100
2, 10412160, Note_on_c, 0, 63, 0
2, 10412160, Note_on_c, 0, 54, 100
2, 10412760, Note_on_c, 0, 54, 0
2, 10412760, Note_on_c, 0, 55, 100
2, 10412880, Note_on_c, 0, 55, 0
2, 10412880, Note_on_c, 0, 57, 100
2, 10413000, Note_on_c, 0, 57, 0
2, 10413000, Note_on_c, 0, 55, 100
2, 10413120, Note_on_c, 0, 55, 0
2, 10413120, Note_on_c, 0, 54, 100
2, 10413240, Note_on_c, 0, 54, 0
2, 10413240, Note_on_c, 0, 52, 100
2, 10413360, Note_on_c, 0, 52, 0
2, 10413360, Note_on_c, 0, 50, 100
2, 10413480, Note_on_c, 0, 50, 0
2, 10413480, Note_on_c, 0, 62, 100
2, 10413600, Note_on_c, 0, 62, 0
2, 10413600, Note_on_c, 0, 60, 100
2, 10413720, Note_on_c, 0, 60, 0
2, 10413720, Note_on_c, 0, 62, 100
2, 10413840, Note_on_c, 0, 62, 0
2, 10413840, Note_on_c, 0, 55, 100
2, 10414080, Note_on_c, 0, 55, 0
2, 10414080, Note_on_c, 0, 63, 100
2, 10414800, Note_on_c, 0, 63, 0
2, 10414800, Note_on_c, 0, 62, 100
2, 10414920, Note_on_c, 0, 62, 0
2, 10414920, Note_on_c, 0, 60, 100
2, 10415040, Note_on_c, 0, 60, 0
2, 10415040, Note_on_c, 0, 58, 100
2, 10415160, Note_on_c, 0, 58, 0
2, 10415160, Note_on_c, 0, 57, 100
2, 10415280, Note_on_c, 0, 57, 0
2, 10415280, Note_on_c, 0, 55, 100
2, 10415400, Note_on_c, 0, 55, 0
2, 10415400, Note_on_c, 0, 54, 100
2, 10415520, Note_on_c, 0, 54, 0
2, 10415520, Note_on_c, 0, 62, 100
2, 10416240, Note_on_c, 0, 62, 0
2, 10416240, Note_on_c, 0, 60, 100
2, 10416720, Note_on_c, 0, 60, 0
2, 10416720, Note_on_c, 0, 59, 100
2, 10416960, Note_on_c, 0, 59, 0
2, 10416960, Note_on_c, 0, 60, 100
2, 10417200, Note_on_c, 0, 60, 0
2, 10417200, Note_on_c, 0, 62, 100
2, 10417320, Note_on_c, 0, 62, 0
2, 10417320, Note_on_c, 0, 63, 100
2, 10417440, Note_on_c, 0, 63, 0
2, 10417440, Note_on_c, 0, 55, 100
2, 10417680, Note_on_c, 0, 55, 0
2, 10417680, Note_on_c, 0, 54, 100
2, 10417920, Note_on_c, 0, 54, 0
2, 10417920, Note_on_c, 0, 62, 100
2, 10418160, Note_on_c, 0, 62, 0
2, 10418160, Note_on_c, 0, 60, 100
2, 10418520, Note_on_c, 0, 60, 0
2, 10418520, Note_on_c, 0, 58, 100
2, 10418580, Note_on_c, 0, 58, 0
2, 10418580, Note_on_c, 0, 57, 100
2, 10418640, Note_on_c, 0, 57, 0
2, 10418640, Note_on_c, 0, 58, 100
2, 10418700, Note_on_c, 0, 58, 0
2, 10418700, Note_on_c, 0, 55, 100
2, 10418760, Note_on_c, 0, 55, 0
2, 10418760, Note_on_c, 0, 56, 100
2, 10418880, Note_on_c, 0, 56, 0
2, 10418880, Note_on_c, 0, 55, 100
2, 10419000, Note_on_c, 0, 55, 0
2, 10419000, Note_on_c, 0, 54, 100
2, 10419240, Note_on_c, 0, 54, 0
2, 10419240, Note_on_c, 0, 55, 100
2, 10419360, Note_on_c, 0, 55, 0
2, 10419360, Note_on_c, 0, 70, 100
2, 10420440, Note_on_c, 0, 70, 0
2, 10420440, Note_on_c, 0, 69, 100
2, 10420560, Note_on_c, 0, 69, 0
2, 10420560, Note_on_c, 0, 67, 100
2, 10420680, Note_on_c, 0, 67, 0
2, 10420680, Note_on_c, 0, 66, 100
2, 10420800, Note_on_c, 0, 66, 0
2, 10420800, Note_on_c, 0, 67, 100
2, 10420920, Note_on_c, 0, 67, 0
2, 10420920, Note_on_c, 0, 69, 100
2, 10421040, Note_on_c, 0, 69, 0
2, 10421040, Note_on_c, 0, 66, 100
2, 10421160, Note_on_c, 0, 66, 0
2, 10421160, Note_on_c, 0, 62, 100
2, 10421280, Note_on_c, 0, 62, 0
2, 10421280, Note_on_c, 0, 64, 100
2, 10421520, Note_on_c, 0, 64, 0
2, 10421520, Note_on_c, 0, 65, 100
2, 10421640, Note_on_c, 0, 65, 0
2, 10421640, Note_on_c, 0, 67, 100
2, 10421760, Note_on_c, 0, 67, 0
2, 10421760, Note_on_c, 0, 60, 100
2, 10422000, Note_on_c, 0, 60, 0
2, 10422000, Note_on_c, 0, 67, 100
2, 10422360, Note_on_c, 0, 67, 0
2, 10422360, Note_on_c, 0, 65, 100
2, 10422480, Note_on_c, 0, 65, 0
2, 10422480, Note_on_c, 0, 63, 100
2, 10422600, Note_on_c, 0, 63, 0
2, 10422600, Note_on_c, 0, 62, 100
2, 10422720, Note_on_c, 0, 62, 0
2, 10422720, Note_on_c, 0, 65, 100
2, 10422840, Note_on_c, 0, 65, 0
2, 10422840, Note_on_c, 0, 63, 100
2, 10422960, Note_on_c, 0, 63, 0
2, 10422960, Note_on_c, 0, 67, 100
2, 10423080, Note_on_c, 0, 67, 0
2, 10423080, Note_on_c, 0, 65, 100
2, 10423200, Note_on_c, 0, 65, 0
2, 10423200, Note_on_c, 0, 67, 100
2, 10423440, Note_on_c, 0, 67, 0
2, 10423440, Note_on_c, 0, 68, 100
2, 10423680, Note_on_c, 0, 68, 0
2, 10423680, Note_on_c, 0, 67, 100
2, 10424280, Note_on_c, 0, 67, 0
2, 10424280, Note_on_c, 0, 68, 100
2, 10424400, Note_on_c, 0, 68, 0
2, 10424400, Note_on_c, 0, 70, 100
2, 10424520, Note_on_c, 0, 70, 0
2, 10424520, Note_on_c, 0, 63, 100
2, 10424640, Note_on_c, 0, 63, 0
2, 10424640, Note_on_c, 0, 62, 100
2, 10424760, Note_on_c, 0, 62, 0
2, 10424760, Note_on_c, 0, 63, 100
2, 10424880, Note_on_c, 0, 63, 0
2, 10424880, Note_on_c, 0, 67, 100
2, 10425000, Note_on_c, 0, 67, 0
2, 10425000, Note_on_c, 0, 60, 100
2, 10425120, Note_on_c, 0, 60, 0
2, 10425120, Note_on_c, 0, 62, 100
2, 10425240, Note_on_c, 0, 62, 0
2, 10425240, Note_on_c, 0, 63, 100
2, 10425360, Note_on_c, 0, 63, 0
2, 10425360, Note_on_c, 0, 60, 100
2, 10425480, Note_on_c, 0, 60, 0
2, 10425480, Note_on_c, 0, 65, 100
2, 10425600, Note_on_c, 0, 65, 0
2, 10425600, Note_on_c, 0, 58, 100
2, 10425840, Note_on_c, 0, 58, 0
2, 10425840, Note_on_c, 0, 56, 100
2, 10426320, Note_on_c, 0, 56, 0
2, 10426320, Note_on_c, 0, 55, 100
2, 10426440, Note_on_c, 0, 55, 0
2, 10426440, Note_on_c, 0, 56, 100
2, 10426560, Note_on_c, 0, 56, 0
2, 10426560, Note_on_c, 0, 65, 100
2, 10426800, Note_on_c, 0, 65, 0
2, 10426800, Note_on_c, 0, 63, 100
2, 10427280, Note_on_c, 0, 63, 0
2, 10427280, Note_on_c, 0, 62, 100
2, 10427400, Note_on_c, 0, 62, 0
2, 10427400, Note_on_c, 0, 63, 100
2, 10427520, Note_on_c, 0, 63, 0
2, 10427520, Note_on_c, 0, 54, 100
2, 10428120, Note_on_c, 0, 54, 0
2, 10428120, Note_on_c, 0, 55, 100
2, 10428240, Note_on_c, 0, 55, 0
2, 10428240, Note_on_c, 0, 57, 100
2, 10428360, Note_on_c, 0, 57, 0
2, 10428360, Note_on_c, 0, 55, 100
2, 10428480, Note_on_c, 0, 55, 0
2, 10428480, Note_on_c, 0, 54, 100
2, 10428600, Note_on_c, 0, 54, 0
2, 10428600, Note_on_c, 0, 52, 100
2, 10428720, Note_on_c, 0, 52, 0
2, 10428720, Note_on_c, 0, 50, 100
2, 10428840, Note_on_c, 0, 50, 0
2, 10428840, Note_on_c, 0, 62, 100
2, 10428960, Note_on_c, 0, 62, 0
2, 10428960, Note_on_c, 0, 60, 100
2, 10429080, Note_on_c, 0, 60, 0
2, 10429080, Note_on_c, 0, 62, 100
2, 10429200, Note_on_c, 0, 62, 0
2, 10429200, Note_on_c, 0, 55, 100
2, 10429440, Note_on_c, 0, 55, 0
2, 10429440, Note_on_c, 0, 63, 100
2, 10430160, Note_on_c, 0, 63, 0
2, 10430160, Note_on_c, 0, 62, 100
2, 10430280, Note_on_c, 0, 62, 0
2, 10430280, Note_on_c, 0, 60, 100
2, 10430400, Note_on_c, 0, 60, 0
2, 10430400, Note_on_c, 0, 58, 100
2, 10430520, Note_on_c, 0, 58, 0
2, 10430520, Note_on_c, 0, 57, 100
2, 10430640, Note_on_c, 0, 57, 0
2, 10430640, Note_on_c, 0, 55, 100
2, 10430760, Note_on_c, 0, 55, 0
2, 10430760, Note_on_c, 0, 54, 100
2, 10430880, Note_on_c, 0, 54, 0
2, 10430880, Note_on_c, 0, 62, 100
2, 10431600, Note_on_c, 0, 62, 0
2, 10431600, Note_on_c, 0, 60, 100
2, 10432080, Note_on_c, 0, 60, 0
2, 10432080, Note_on_c, 0, 59, 100
2, 10432320, Note_on_c, 0, 59, 0
2, 10432320, Note_on_c, 0, 60, 100
2, 10432560, Note_on_c, 0, 60, 0
2, 10432560, Note_on_c, 0, 62, 100
2, 10432680, Note_on_c, 0, 62, 0
2, 10432680, Note_on_c, 0, 63, 100
2, 10432800, Note_on_c, 0, 63, 0
2, 10432800, Note_on_c, 0, 55, 100
2, 10433040, Note_on_c, 0, 55, 0
2, 10433040, Note_on_c, 0, 54, 100
2, 10433280, Note_on_c, 0, 54, 0
2, 10433280, Note_on_c, 0, 62, 100
2, 10433520, Note_on_c, 0, 62, 0
2, 10433520, Note_on_c, 0, 60, 100
2, 10433880, Note_on_c, 0, 60, 0
2, 10433880, Note_on_c, 0, 58, 100
2, 10433940, Note_on_c, 0, 58, 0
2, 10433940, Note_on_c, 0, 57, 100
2, 10434000, Note_on_c, 0, 57, 0
2, 10434000, Note_on_c, 0, 58, 100
2, 10434060, Note_on_c, 0, 58, 0
2, 10434060, Note_on_c, 0, 55, 100
2, 10434120, Note_on_c, 0, 55, 0
2, 10434120, Note_on_c, 0, 56, 100
2, 10434240, Note_on_c, 0, 56, 0
2, 10434240, Note_on_c, 0, 55, 100
2, 10434360, Note_on_c, 0, 55, 0
2, 10434360, Note_on_c, 0, 54, 100
2, 10434600, Note_on_c, 0, 54, 0
2, 10434600, Note_on_c, 0, 55, 100
2, 10655040, Note_on_c, 0, 55, 0
2, 10655040, Note_on_c, 0, 54, 100
2, 10655520, Note_on_c, 0, 54, 0
2, 10655520, Note_on_c, 0, 55, 100
2, 10655760, Note_on_c, 0, 55, 0
2, 10655760, Note_on_c, 0, 57, 100
2, 10656240, Note_on_c, 0, 57, 0
2, 10656240, Note_on_c, 0, 59, 100
2, 10656480, Note_on_c, 0, 59, 0
2, 10656480, Note_on_c, 0, 62, 100
2, 10656720, Note_on_c, 0, 62, 0
2, 10656720, Note_on_c, 0, 61, 100
2, 10656960, Note_on_c, 0, 61, 0
2, 10656960, Note_on_c, 0, 62, 100
2, 10657200, Note_on_c, 0, 62, 0
2, 10657200, Note_on_c, 0, 57, 100
2, 10657680, Note_on_c, 0, 57, 0
2, 10657680, Note_on_c, 0, 62, 100
2, 10657920, Note_on_c, 0, 62, 0
2, 10657920, Note_on_c, 0, 64, 100
2, 10658640, Note_on_c, 0, 64, 0
2, 10658640, Note_on_c, 0, 66, 100
2, 10658670, Note_on_c, 0, 66, 0
2, 10658670, Note_on_c, 0, 67, 100
2, 10658760, Note_on_c, 0, 67, 0
2, 10658760, Note_on_c, 0, 66, 100
2, 10658880, Note_on_c, 0, 66, 0
2, 10658880, Note_on_c, 0, 64, 100
2, 10659000, Note_on_c, 0, 64, 0
2, 10659000, Note_on_c, 0, 62, 100
2, 10659120, Note_on_c, 0, 62, 0
2, 10659120, Note_on_c, 0, 67, 100
2, 10659360, Note_on_c, 0, 67, 0
2, 10659360, Note_on_c, 0, 71, 100
2, 10659600, Note_on_c, 0, 71, 0
2, 10659600, Note_on_c, 0, 69, 100
2, 10659840, Note_on_c, 0, 69, 0
2, 10659840, Note_on_c, 0, 71, 100
2, 10660080, Note_on_c, 0, 71, 0
2, 10660080, Note_on_c, 0, 67, 100
2, 10660320, Note_on_c, 0, 67, 0
2, 10660320, Note_on_c, 0, 66, 100
2, 10660560, Note_on_c, 0, 66, 0
2, 10660560, Note_on_c, 0, 67, 100
2, 10660800, Note_on_c, 0, 67, 0
2, 10660800, Note_on_c, 0, 66, 100
2, 10661760, Note_on_c, 0, 66, 0
2, 10661760, Note_on_c, 0, 64, 100
2, 10662000, Note_on_c, 0, 64, 0
2, 10662000, Note_on_c, 0, 66, 100
2, 10662240, Note_on_c, 0, 66, 0
2, 10662240, Note_on_c, 0, 67, 100
2, 10662480, Note_on_c, 0, 67, 0
2, 10662480, Note_on_c, 0, 69, 100
2, 10662720, Note_on_c, 0, 69, 0
2, 10662720, Note_on_c, 0, 62, 100
2, 10662960, Note_on_c, 0, 62, 0
2, 10662960, Note_on_c, 0, 67, 100
2, 10663920, Note_on_c, 0, 67, 0
2, 10663920, Note_on_c, 0, 66, 100
2, 10664160, Note_on_c, 0, 66, 0
2, 10664160, Note_on_c, 0, 67, 100
2, 10664400, Note_on_c, 0, 67, 0
2, 10664400, Note_on_c, 0, 71, 100
2, 10664640, Note_on_c, 0, 71, 0
2, 10664640, Note_on_c, 0, 69, 100
2, 10664880, Note_on_c, 0, 69, 0
2, 10664880, Note_on_c, 0, 71, 100
2, 10665120, Note_on_c, 0, 71, 0
2, 10665120, Note_on_c, 0, 74, 100
2, 10665360, Note_on_c, 0, 74, 0
2, 10665360, Note_on_c, 0, 72, 100
2, 10665480, Note_on_c, 0, 72, 0
2, 10665480, Note_on_c, 0, 71, 100
2, 10665600, Note_on_c, 0, 71, 0
2, 10665600, Note_on_c, 0, 69, 100
2, 10665720, Note_on_c, 0, 69, 0
2, 10665720, Note_on_c, 0, 71, 100
2, 10665840, Note_on_c, 0, 71, 0
2, 10665840, Note_on_c, 0, 72, 100
2, 10666080, Note_on_c, 0, 72, 0
2, 10666080, Note_on_c, 0, 71, 100
2, 10666200, Note_on_c, 0, 71, 0
2, 10666200, Note_on_c, 0, 69, 100
2, 10666320, Note_on_c, 0, 69, 0
2, 10666320, Note_on_c, 0, 67, 100
2, 10666440, Note_on_c, 0, 67, 0
2, 10666440, Note_on_c, 0, 69, 100
2, 10666560, Note_on_c, 0, 69, 0
2, 10666560, Note_on_c, 0, 71, 100
2, 10666800, Note_on_c, 0, 71, 0
2, 10666800, Note_on_c, 0, 69, 100
2, 10666920, Note_on_c, 0, 69, 0
2, 10666920, Note_on_c, 0, 67, 100
2, 10667040, Note_on_c, 0, 67, 0
2, 10667040, Note_on_c, 0, 66, 100
2, 10667160, Note_on_c, 0, 66, 0
2, 10667160, Note_on_c, 0, 67, 100
2, 10667280, Note_on_c, 0, 67, 0
2, 10667280, Note_on_c, 0, 69, 100
2, 10667520, Note_on_c, 0, 69, 0
2, 10667520, Note_on_c, 0, 67, 100
2, 10667640, Note_on_c, 0, 67, 0
2, 10667640, Note_on_c, 0, 66, 100
2, 10667760, Note_on_c, 0, 66, 0
2, 10667760, Note_on_c, 0, 64, 100
2, 10667880, Note_on_c, 0, 64, 0
2, 10667880, Note_on_c, 0, 62, 100
2, 10668000, Note_on_c, 0, 62, 0
2, 10668000, Note_on_c, 0, 71, 100
2, 10668240, Note_on_c, 0, 71, 0
2, 10668240, Note_on_c, 0, 69, 100
2, 10668480, Note_on_c, 0, 69, 0
2, 10668480, Note_on_c, 0, 67, 100
2, 10668720, Note_on_c, 0, 67, 0
2, 10668720, Note_on_c, 0, 69, 100
2, 10668960, Note_on_c, 0, 69, 0
2, 10668960, Note_on_c, 0, 66, 100
2, 10669200, Note_on_c, 0, 66, 0
2, 10669200, Note_on_c, 0, 64, 100
2, 10669440, Note_on_c, 0, 64, 0
2, 10669440, Note_on_c, 0, 62, 100
2, 10669560, Note_on_c, 0, 62, 0
2, 10669560, Note_on_c, 0, 61, 100
2, 10669680, Note_on_c, 0, 61, 0
2, 10669680, Note_on_c, 0, 62, 100
2, 10670160, Note_on_c, 0, 62, 0
2, 10670160, Note_on_c, 0, 61, 100
2, 10670280, Note_on_c, 0, 61, 0
2, 10670280, Note_on_c, 0, 62, 100
2, 10671120, Note_on_c, 0, 62, 0
2, 10671120, Note_on_c, 0, 64, 100
2, 10671360, Note_on_c, 0, 64, 0
2, 10671360, Note_on_c, 0, 57, 100
2, 10671600, Note_on_c, 0, 57, 0
2, 10671600, Note_on_c, 0, 59, 100
2, 10671840, Note_on_c, 0, 59, 0
2, 10671840, Note_on_c, 0, 61, 100
2, 10672080, Note_on_c, 0, 61, 0
2, 10672080, Note_on_c, 0, 62, 100
2, 10672320, Note_on_c, 0, 62, 0
2, 10672320, Note_on_c, 0, 66, 100
2, 10672800, Note_on_c, 0, 66, 0
2, 10672800, Note_on_c, 0, 67, 100
2, 10673040, Note_on_c, 0, 67, 0
2, 10673040, Note_on_c, 0, 69, 100
2, 10673520, Note_on_c, 0, 69, 0
2, 10673520, Note_on_c, 0, 59, 100
2, 10673760, Note_on_c, 0, 59, 0
2, 10673760, Note_on_c, 0, 57, 100
2, 10674720, Note_on_c, 0, 57, 0
2, 10674720, Note_on_c, 0, 56, 100
2, 10674960, Note_on_c, 0, 56, 0
2, 10674960, Note_on_c, 0, 57, 100
2, 10675200, Note_on_c, 0, 57, 0
2, 10675200, Note_on_c, 0, 62, 100
2, 10676880, Note_on_c, 0, 62, 0
2, 10676880, Note_on_c, 0, 61, 100
2, 10677120, Note_on_c, 0, 61, 0
2, 10677120, Note_on_c, 0, 62, 100
2, 10677360, Note_on_c, 0, 62, 0
2, 10677360, Note_on_c, 0, 64, 100
2, 10677480, Note_on_c, 0, 64, 0
2, 10677480, Note_on_c, 0, 66, 100
2, 10677600, Note_on_c, 0, 66, 0
2, 10677600, Note_on_c, 0, 64, 100
2, 10677840, Note_on_c, 0, 64, 0
2, 10677840, Note_on_c, 0, 66, 100
2, 10678080, Note_on_c, 0, 66, 0
2, 10678080, Note_on_c, 0, 69, 100
2, 10678320, Note_on_c, 0, 69, 0
2, 10678320, Note_on_c, 0, 67, 100
2, 10678440, Note_on_c, 0, 67, 0
2, 10678440, Note_on_c, 0, 66, 100
2, 10678560, Note_on_c, 0, 66, 0
2, 10678560, Note_on_c, 0, 64, 100
2, 10678680, Note_on_c, 0, 64, 0
2, 10678680, Note_on_c, 0, 66, 100
2, 10678800, Note_on_c, 0, 66, 0
2, 10678800, Note_on_c, 0, 67, 100
2, 10679040, Note_on_c, 0, 67, 0
2, 10679040, Note_on_c, 0, 66, 100
2, 10679160, Note_on_c, 0, 66, 0
2, 10679160, Note_on_c, 0, 64, 100
2, 10679280, Note_on_c, 0, 64, 0
2, 10679280, Note_on_c, 0, 62, 100
2, 10679400, Note_on_c, 0, 62, 0
2, 10679400, Note_on_c, 0, 64, 100
2, 10679520, Note_on_c, 0, 64, 0
2, 10679520, Note_on_c, 0, 66, 100
2, 10679760, Note_on_c, 0, 66, 0
2, 10679760, Note_on_c, 0, 64, 100
2, 10679880, Note_on_c, 0, 64, 0
2, 10679880, Note_on_c, 0, 62, 100
2, 10680000, Note_on_c, 0, 62, 0
2, 10680000, Note_on_c, 0, 61, 100
2, 10680120, Note_on_c, 0, 61, 0
2, 10680120, Note_on_c, 0, 62, 100
2, 10680240, Note_on_c, 0, 62, 0
2, 10680240, Note_on_c, 0, 64, 100
2, 10680480, Note_on_c, 0, 64, 0
2, 10680480, Note_on_c, 0, 62, 100
2, 10680600, Note_on_c, 0, 62, 0
2, 10680600, Note_on_c, 0, 61, 100
2, 10680720, Note_on_c, 0, 61, 0
2, 10680720, Note_on_c, 0, 59, 100
2, 10680840, Note_on_c, 0, 59, 0
2, 10680840, Note_on_c, 0, 57, 100
2, 10680960, Note_on_c, 0, 57, 0
2, 10680960, Note_on_c, 0, 62, 100
2, 10681680, Note_on_c, 0, 62, 0
2, 10681680, Note_on_c, 0, 61, 100
2, 10682400, Note_on_c, 0, 61, 0
2, 10682400, Note_on_c, 0, 62, 100
2, 10683120, Note_on_c, 0, 62, 0
2, 10683120, Note_on_c, 0, 67, 100
2, 10683840, Note_on_c, 0, 67, 0
2, 10683840, Note_on_c, 0, 66, 100
2, 10684560, Note_on_c, 0, 66, 0
2, 10684560, Note_on_c, 0, 55, 100
2, 10689600, Note_on_c, 0, 55, 0
2, 10689600, Note_on_c, 0, 54, 100
2, 10690080, Note_on_c, 0, 54, 0
2, 10690080, Note_on_c, 0, 55, 100
2, 10690320, Note_on_c, 0, 55, 0
2, 10690320, Note_on_c, 0, 57, 100
2, 10690800, Note_on_c, 0, 57, 0
2, 10690800, Note_on_c, 0, 59, 100
2, 10691040, Note_on_c, 0, 59, 0
2, 10691040, Note_on_c, 0, 62, 100
2, 10691280, Note_on_c, 0, 62, 0
2, 10691280, Note_on_c, 0, 61, 100
2, 10691520, Note_on_c, 0, 61, 0
2, 10691520, Note_on_c, 0, 62, 100
2, 10691760, Note_on_c, 0, 62, 0
2, 10691760, Note_on_c, 0, 57, 100
2, 10692240, Note_on_c, 0, 57, 0
2, 10692240, Note_on_c, 0, 62, 100
2, 10692480, Note_on_c, 0, 62, 0
2, 10692480, Note_on_c, 0, 64, 100
2, 10693200, Note_on_c, 0, 64, 0
2, 10693200, Note_on_c, 0, 66, 100
2, 10693230, Note_on_c, 0, 66, 0
2, 10693230, Note_on_c, 0, 67, 100
2, 10693320, Note_on_c, 0, 67, 0
2, 10693320, Note_on_c, 0, 66, 100
2, 10693440, Note_on_c, 0, 66, 0
2, 10693440, Note_on_c, 0, 64, 100
2, 10693560, Note_on_c, 0, 64, 0
2, 10693560, Note_on_c, 0, 62, 100
2, 10693680, Note_on_c, 0, 62, 0
2, 10693680, Note_on_c, 0, 67, 100
2, 10693920, Note_on_c, 0, 67, 0
2, 10693920, Note_on_c, 0, 71, 100
2, 10694160, Note_on_c, 0, 71, 0
2, 10694160, Note_on_c, 0, 69, 100
2, 10694400, Note_on_c, 0, 69, 0
2, 10694400, Note_on_c, 0, 71, 100
2, 10694640, Note_on_c, 0, 71, 0
2, 10694640, Note_on_c, 0, 67, 100
2, 10694880, Note_on_c, 0, 67, 0
2, 10694880, Note_on_c, 0, 66, 100
2, 10695120, Note_on_c, 0, 66, 0
2, 10695120, Note_on_c, 0, 67, 100
2, 10695360, Note_on_c, 0, 67, 0
2, 10695360, Note_on_c, 0, 66, 100
2, 10696320, Note_on_c, 0, 66, 0
2, 10696320, Note_on_c, 0, 64, 100
2, 10696560, Note_on_c, 0, 64, 0
2, 10696560, Note_on_c, 0, 66, 100
2, 10696800, Note_on_c, 0, 66, 0
2, 10696800, Note_on_c, 0, 67, 100
2, 10697040, Note_on_c, 0, 67, 0
2, 10697040, Note_on_c, 0, 69, 100
2, 10697280, Note_on_c, 0, 69, 0
2, 10697280, Note_on_c, 0, 62, 100
2, 10697520, Note_on_c, 0, 62, 0
2, 10697520, Note_on_c, 0, 67, 100
2, 10698480, Note_on_c, 0, 67, 0
2, 10698480, Note_on_c, 0, 66, 100
2, 10698720, Note_on_c, 0, 66, 0
2, 10698720, Note_on_c, 0, 67, 100
2, 10698960, Note_on_c, 0, 67, 0
2, 10698960, Note_on_c, 0, 71, 100
2, 10699200, Note_on_c, 0, 71, 0
2, 10699200, Note_on_c, 0, 69, 100
2, 10699440, Note_on_c, 0, 69, 0
2, 10699440, Note_on_c, 0, 71, 100
2, 10699680, Note_on_c, 0, 71, 0
2, 10699680, Note_on_c, 0, 74, 100
2, 10699920, Note_on_c, 0, 74, 0
2, 10699920, Note_on_c, 0, 72, 100
2, 10700040, Note_on_c, 0, 72, 0
2, 10700040, Note_on_c, 0, 71, 100
2, 10700160, Note_on_c, 0, 71, 0
2, 10700160, Note_on_c, 0, 69, 100
2, 10700280, Note_on_c, 0, 69, 0
2, 10700280, Note_on_c, 0, 71, 100
2, 10700400, Note_on_c, 0, 71, 0
2, 10700400, Note_on_c, 0, 72, 100
2, 10700640, Note_on_c, 0, 72, 0
2, 10700640, Note_on_c, 0, 71, 100
2, 10700760, Note_on_c, 0, 71, 0
2, 10700760, Note_on_c, 0, 69, 100
2, 10700880, Note_on_c, 0, 69, 0
2, 10700880, Note_on_c, 0, 67, 100
2, 10701000, Note_on_c, 0, 67, 0
2, 10701000, Note_on_c, 0, 69, 100
2, 10701120, Note_on_c, 0, 69, 0
2, 10701120, Note_on_c, 0, 71, 100
2, 10701360, Note_on_c, 0, 71, 0
2, 10701360, Note_on_c, 0, 69, 100
2, 10701480, Note_on_c, 0, 69, 0
2, 10701480, Note_on_c, 0, 67, 100
2, 10701600, Note_on_c, 0, 67, 0
2, 10701600, Note_on_c, 0, 66, 100
2, 10701720, Note_on_c, 0, 66, 0
2, 10701720, Note_on_c, 0, 67, 100
2, 10701840, Note_on_c, 0, 67, 0
2, 10701840, Note_on_c, 0, 69, 100
2, 10702080, Note_on_c, 0, 69, 0
2, 10702080, Note_on_c, 0, 67, 100
2, 10702200, Note_on_c, 0, 67, 0
2, 10702200, Note_on_c, 0, 66, 100
2, 10702320, Note_on_c, 0, 66, 0
2, 10702320, Note_on_c, 0, 64, 100
2, 10702440, Note_on_c, 0, 64, 0
2, 10702440, Note_on_c, 0, 62, 100
2, 10702560, Note_on_c, 0, 62, 0
2, 10702560, Note_on_c, 0, 71, 100
2, 10702800, Note_on_c, 0, 71, 0
2, 10702800, Note_on_c, 0, 69, 100
2, 10703040, Note_on_c, 0, 69, 0
2, 10703040, Note_on_c, 0, 67, 100
2, 10703280, Note_on_c, 0, 67, 0
2, 10703280, Note_on_c, 0, 69, 100
2, 10703520, Note_on_c, 0, 69, 0
2, 10703520, Note_on_c, 0, 66, 100
2, 10703760, Note_on_c, 0, 66, 0
2, 10703760, Note_on_c, 0, 64, 100
2, 10704000, Note_on_c, 0, 64, 0
2, 10704000, Note_on_c, 0, 62, 100
2, 10704120, Note_on_c, 0, 62, 0
2, 10704120, Note_on_c, 0, 61, 100
2, 10704240, Note_on_c, 0, 61, 0
2, 10704240, Note_on_c, 0, 62, 100
2, 10704720, Note_on_c, 0, 62, 0
2, 10704720, Note_on_c, 0, 61, 100
2, 10704840, Note_on_c, 0, 61, 0
2, 10704840, Note_on_c, 0, 62, 100
2, 10705680, Note_on_c, 0, 62, 0
2, 10705680, Note_on_c, 0, 64, 100
2, 10705920, Note_on_c, 0, 64, 0
2, 10705920, Note_on_c, 0, 57, 100
2, 10706160, Note_on_c, 0, 57, 0
2, 10706160, Note_on_c, 0, 59, 100
2, 10706400, Note_on_c, 0, 59, 0
2, 10706400, Note_on_c, 0, 61, 100
2, 10706640, Note_on_c, 0, 61, 0
2, 10706640, Note_on_c, 0, 62, 100
2, 10706880, Note_on_c, 0, 62, 0
2, 10706880, Note_on_c, 0, 66, 100
2, 10707360, Note_on_c, 0, 66, 0
2, 10707360, Note_on_c, 0, 67, 100
2, 10707600, Note_on_c, 0, 67, 0
2, 10707600, Note_on_c, 0, 69, 100
2, 10708080, Note_on_c, 0, 69, 0
2, 10708080, Note_on_c, 0, 59, 100
2, 10708320, Note_on_c, 0, 59, 0
2, 10708320, Note_on_c, 0, 57, 100
2, 10709280, Note_on_c, 0, 57, 0
2, 10709280, Note_on_c, 0, 56, 100
2, 10709520, Note_on_c, 0, 56, 0
2, 10709520, Note_on_c, 0, 57, 100
2, 10709760, Note_on_c, 0, 57, 0
2, 10709760, Note_on_c, 0, 62, 100
2, 10711440, Note_on_c, 0, 62, 0
2, 10711440, Note_on_c, 0, 61, 100
2, 10711680, Note_on_c, 0, 61, 0
2, 10711680, Note_on_c, 0, 62, 100
2, 10711920, Note_on_c, 0, 62, 0
2, 10711920, Note_on_c, 0, 64, 100
2, 10712040, Note_on_c, 0, 64, 0
2, 10712040, Note_on_c, 0, 66, 100
2, 10712160, Note_on_c, 0, 66, 0
2, 10712160, Note_on_c, 0, 64, 100
2, 10712400, Note_on_c, 0, 64, 0
2, 10712400, Note_on_c, 0, 66, 100
2, 10712640, Note_on_c, 0, 66, 0
2, 10712640, Note_on_c, 0, 69, 100
2, 10712880, Note_on_c, 0, 69, 0
2, 10712880, Note_on_c, 0, 67, 100
2, 10713000, Note_on_c, 0, 67, 0
2, 10713000, Note_on_c, 0, 66, 100
2, 10713120, Note_on_c, 0, 66, 0
2, 10713120, Note_on_c, 0, 64, 100
2, 10713240, Note_on_c, 0, 64, 0
2, 10713240, Note_on_c, 0, 66, 100
2, 10713360, Note_on_c, 0, 66, 0
2, 10713360, Note_on_c, 0, 67, 100
2, 10713600, Note_on_c, 0, 67, 0
2, 10713600, Note_on_c, 0, 66, 100
2, 10713720, Note_on_c, 0, 66, 0
2, 10713720, Note_on_c, 0, 64, 100
2, 10713840, Note_on_c, 0, 64, 0
2, 10713840, Note_on_c, 0, 62, 100
2, 10713960, Note_on_c, 0, 62, 0
2, 10713960, Note_on_c, 0, 64, 100
2, 10714080, Note_on_c, 0, 64, 0
2, 10714080, Note_on_c, 0, 66, 100
2, 10714320, Note_on_c, 0, 66, 0
2, 10714320, Note_on_c, 0, 64, 100
2, 10714440, Note_on_c, 0, 64, 0
2, 10714440, Note_on_c, 0, 62, 100
2, 10714560, Note_on_c, 0, 62, 0
2, 10714560, Note_on_c, 0, 61, 100
2, 10714680, Note_on_c, 0, 61, 0
2, 10714680, Note_on_c, 0, 62, 100
2, 10714800, Note_on_c, 0, 62, 0
2, 10714800, Note_on_c, 0, 64, 100
2, 10715040, Note_on_c, 0, 64, 0
2, 10715040, Note_on_c, 0, 62, 100
2, 10715160, Note_on_c, 0, 62, 0
2, 10715160, Note_on_c, 0, 61, 100
2, 10715280, Note_on_c, 0, 61, 0
2, 10715280, Note_on_c, 0, 59, 100
2, 10715400, Note_on_c, 0, 59, 0
2, 10715400, Note_on_c, 0, 57, 100
2, 10715520, Note_on_c, 0, 57, 0
2, 10715520, Note_on_c, 0, 62, 100
2, 10716240, Note_on_c, 0, 62, 0
2, 10716240, Note_on_c, 0, 61, 100
2, 10716960, Note_on_c, 0, 61, 0
2, 10716960, Note_on_c, 0, 62, 100
2, 10717680, Note_on_c, 0, 62, 0
2, 10717680, Note_on_c, 0, 67, 100
2, 10718400, Note_on_c, 0, 67, 0
2, 10718400, Note_on_c, 0, 66, 100
2, 10719120, Note_on_c, 0, 66, 0
2, 10719120, Note_on_c, 0, 71, 100
2, 10719840, Note_on_c, 0, 71, 0
2, 10719840, Note_on_c, 0, 69, 100
2, 10719960, Note_on_c, 0, 69, 0
2, 10719960, Note_on_c, 0, 67, 100
2, 10720080, Note_on_c, 0, 67, 0
2, 10720080, Note_on_c, 0, 69, 100
2, 10720200, Note_on_c, 0, 69, 0
2, 10720200, Note_on_c, 0, 71, 100
2, 10720320, Note_on_c, 0, 71, 0
2, 10720320, Note_on_c, 0, 69, 100
2, 10720380, Note_on_c, 0, 69, 0
2, 10720380, Note_on_c, 0, 71, 100
2, 10720440, Note_on_c, 0, 71, 0
2, 10720440, Note_on_c, 0, 69, 100
2, 10720500, Note_on_c, 0, 69, 0
2, 10720500, Note_on_c, 0, 71, 100
2, 10720560, Note_on_c, 0, 71, 0
2, 10720560, Note_on_c, 0, 69, 100
2, 10720620, Note_on_c, 0, 69, 0
2, 10720620, Note_on_c, 0, 71, 100
2, 10720680, Note_on_c, 0, 71, 0
2, 10720680, Note_on_c, 0, 69, 100
2, 10720740, Note_on_c, 0, 69, 0
2, 10720740, Note_on_c, 0, 71, 100
2, 10720800, Note_on_c, 0, 71, 0
2, 10720800, Note_on_c, 0, 69, 100
2, 10720860, Note_on_c, 0, 69, 0
2, 10720860, Note_on_c, 0, 71, 100
2, 10720920, Note_on_c, 0, 71, 0
2, 10720920, Note_on_c, 0, 69, 100
2, 10720980, Note_on_c, 0, 69, 0
2, 10720980, Note_on_c, 0, 71, 100
2, 10721040, Note_on_c, 0, 71, 0
2, 10721040, Note_on_c, 0, 69, 100
2, 10721100, Note_on_c, 0, 69, 0
2, 10721100, Note_on_c, 0, 71, 100
2, 10721160, Note_on_c, 0, 71, 0
2, 10721160, Note_on_c, 0, 69, 100
2, 10721220, Note_on_c, 0, 69, 0
2, 10721220, Note_on_c, 0, 71, 100
2, 10721280, Note_on_c, 0, 71, 0
2, 10721280, Note_on_c, 0, 69, 100
2, 10721340, Note_on_c, 0, 69, 0
2, 10721340, Note_on_c, 0, 71, 100
2, 10721400, Note_on_c, 0, 71, 0
2, 10721400, Note_on_c, 0, 69, 100
2, 10721460, Note_on_c, 0, 69, 0
2, 10721460, Note_on_c, 0, 71, 100
2, 10721520, Note_on_c, 0, 71, 0
2, 10721520, Note_on_c, 0, 69, 100
2, 10721580, Note_on_c, 0, 69, 0
2, 10721580, Note_on_c, 0, 71, 100
2, 10721640, Note_on_c, 0, 71, 0
2, 10721640, Note_on_c, 0, 69, 100
2, 10721700, Note_on_c, 0, 69, 0
2, 10721700, Note_on_c, 0, 71, 100
2, 10721760, Note_on_c, 0, 71, 0
2, 10721760, Note_on_c, 0, 69, 100
2, 10721820, Note_on_c, 0, 69, 0
2, 10721820, Note_on_c, 0, 71, 100
2, 10721880, Note_on_c, 0, 71, 0
2, 10721880, Note_on_c, 0, 69, 100
2, 10721940, Note_on_c, 0, 69, 0
2, 10721940, Note_on_c, 0, 71, 100
2, 10722000, Note_on_c, 0, 71, 0
2, 10722000, Note_on_c, 0, 69, 100
2, 10722120, Note_on_c, 0, 69, 0
2, 10722120, Note_on_c, 0, 67, 100
2, 10722240, Note_on_c, 0, 67, 0
2, 10722240, Note_on_c, 0, 66, 100
2, 10722480, Note_on_c, 0, 66, 0
2, 10722480, Note_on_c, 0, 67, 100
2, 10722720, Note_on_c, 0, 67, 0
2, 10722720, Note_on_c, 0, 71, 100
2, 10722960, Note_on_c, 0, 71, 0
2, 10722960, Note_on_c, 0, 69, 100
2, 10723200, Note_on_c, 0, 69, 0
2, 10723200, Note_on_c, 0, 71, 100
2, 10723440, Note_on_c, 0, 71, 0
2, 10723440, Note_on_c, 0, 63, 100
2, 10723920, Note_on_c, 0, 63, 0
2, 10723920, Note_on_c, 0, 64, 100
2, 10724160, Note_on_c, 0, 64, 0
2, 10724160, Note_on_c, 0, 67, 100
2, 10724400, Note_on_c, 0, 67, 0
2, 10724400, Note_on_c, 0, 66, 100
2, 10724520, Note_on_c, 0, 66, 0
2, 10724520, Note_on_c, 0, 64, 100
2, 10724640, Note_on_c, 0, 64, 0
2, 10724640, Note_on_c, 0, 62, 100
2, 10724760, Note_on_c, 0, 62, 0
2, 10724760, Note_on_c, 0, 60, 100
2, 10724880, Note_on_c, 0, 60, 0
2, 10724880, Note_on_c, 0, 64, 100
2, 10725120, Note_on_c, 0, 64, 0
2, 10725120, Note_on_c, 0, 62, 100
2, 10725240, Note_on_c, 0, 62, 0
2, 10725240, Note_on_c, 0, 60, 100
2, 10725360, Note_on_c, 0, 60, 0
2, 10725360, Note_on_c, 0, 59, 100
2, 10725480, Note_on_c, 0, 59, 0
2, 10725480, Note_on_c, 0, 57, 100
2, 10725600, Note_on_c, 0, 57, 0
2, 10725600, Note_on_c, 0, 60, 100
2, 10725840, Note_on_c, 0, 60, 0
2, 10725840, Note_on_c, 0, 59, 100
2, 10725960, Note_on_c, 0, 59, 0
2, 10725960, Note_on_c, 0, 57, 100
2, 10726080, Note_on_c, 0, 57, 0
2, 10726080, Note_on_c, 0, 55, 100
2, 10726200, Note_on_c, 0, 55, 0
2, 10726200, Note_on_c, 0, 54, 100
2, 10726320, Note_on_c, 0, 54, 0
2, 10726320, Note_on_c, 0, 64, 100
2, 10726800, Note_on_c, 0, 64, 0
2, 10726800, Note_on_c, 0, 63, 100
2, 10727040, Note_on_c, 0, 63, 0
2, 10727040, Note_on_c, 0, 66, 100
2, 10727280, Note_on_c, 0, 66, 0
2, 10727280, Note_on_c, 0, 64, 100
2, 10727340, Note_on_c, 0, 64, 0
2, 10727340, Note_on_c, 0, 63, 100
2, 10727400, Note_on_c, 0, 63, 0
2, 10727400, Note_on_c, 0, 64, 100
2, 10727460, Note_on_c, 0, 64, 0
2, 10727460, Note_on_c, 0, 66, 100
2, 10727520, Note_on_c, 0, 66, 0
2, 10727520, Note_on_c, 0, 59, 100
2, 10727760, Note_on_c, 0, 59, 0
2, 10727760, Note_on_c, 0, 63, 100
2, 10728720, Note_on_c, 0, 63, 0
2, 10728720, Note_on_c, 0, 64, 100
2, 10728960, Note_on_c, 0, 64, 0
2, 10728960, Note_on_c, 0, 62, 100
2, 10729320, Note_on_c, 0, 62, 0
2, 10729320, Note_on_c, 0, 60, 100
2, 10729440, Note_on_c, 0, 60, 0
2, 10729440, Note_on_c, 0, 59, 100
2, 10729560, Note_on_c, 0, 59, 0
2, 10729560, Note_on_c, 0, 60, 100
2, 10729680, Note_on_c, 0, 60, 0
2, 10729680, Note_on_c, 0, 59, 100
2, 10730040, Note_on_c, 0, 59, 0
2, 10730040, Note_on_c, 0, 57, 100
2, 10730160, Note_on_c, 0, 57, 0
2, 10730160, Note_on_c, 0, 55, 100
2, 10730280, Note_on_c, 0, 55, 0
2, 10730280, Note_on_c, 0, 57, 100
2, 10730400, Note_on_c, 0, 57, 0
2, 10730400, Note_on_c, 0, 54, 100
2, 10730880, Note_on_c, 0, 54, 0
2, 10730880, Note_on_c, 0, 55, 100
2, 10731120, Note_on_c, 0, 55, 0
2, 10731120, Note_on_c, 0, 59, 100
2, 10740000, Note_on_c, 0, 59, 0
2, 10740000, Note_on_c, 0, 60, 100
2, 10740960, Note_on_c, 0, 60, 0
2, 10740960, Note_on_c, 0, 62, 100
2, 10741200, Note_on_c, 0, 62, 0
2, 10741200, Note_on_c, 0, 64, 100
2, 10741440, Note_on_c, 0, 64, 0
2, 10741440, Note_on_c, 0, 56, 100
2, 10741680, Note_on_c, 0, 56, 0
2, 10741680, Note_on_c, 0, 59, 100
2, 10741920, Note_on_c, 0, 59, 0
2, 10741920, Note_on_c, 0, 57, 100
2, 10742160, Note_on_c, 0, 57, 0
2, 10742160, Note_on_c, 0, 59, 100
2, 10743120, Note_on_c, 0, 59, 0
2, 10743120, Note_on_c, 0, 60, 100
2, 10743360, Note_on_c, 0, 60, 0
2, 10743360, Note_on_c, 0, 62, 100
2, 10743600, Note_on_c, 0, 62, 0
2, 10743600, Note_on_c, 0, 54, 100
2, 10743840, Note_on_c, 0, 54, 0
2, 10743840, Note_on_c, 0, 57, 100
2, 10744080, Note_on_c, 0, 57, 0
2, 10744080, Note_on_c, 0, 50, 100
2, 10744320, Note_on_c, 0, 50, 0
2, 10744320, Note_on_c, 0, 54, 100
2, 10744800, Note_on_c, 0, 54, 0
2, 10744800, Note_on_c, 0, 59, 100
2, 10745040, Note_on_c, 0, 59, 0
2, 10745040, Note_on_c, 0, 51, 100
2, 10746240, Note_on_c, 0, 51, 0
2, 10746240, Note_on_c, 0, 52, 100
2, 10746480, Note_on_c, 0, 52, 0
2, 10746480, Note_on_c, 0, 54, 100
2, 10746720, Note_on_c, 0, 54, 0
2, 10746720, Note_on_c, 0, 55, 100
2, 10746960, Note_on_c, 0, 55, 0
2, 10746960, Note_on_c, 0, 54, 100
2, 10747200, Note_on_c, 0, 54, 0
2, 10747200, Note_on_c, 0, 55, 100
2, 10747440, Note_on_c, 0, 55, 0
2, 10747440, Note_on_c, 0, 57, 100
2, 10747680, Note_on_c, 0, 57, 0
2, 10747680, Note_on_c, 0, 50, 100
2, 10749360, Note_on_c, 0, 50, 0
2, 10749360, Note_on_c, 0, 55, 100
2, 10750320, Note_on_c, 0, 55, 0
2, 10750320, Note_on_c, 0, 54, 100
2, 10750560, Note_on_c, 0, 54, 0
2, 10750560, Note_on_c, 0, 55, 100
2, 10750800, Note_on_c, 0, 55, 0
2, 10750800, Note_on_c, 0, 57, 100
2, 10751040, Note_on_c, 0, 57, 0
2, 10751040, Note_on_c, 0, 59, 100
2, 10751280, Note_on_c, 0, 59, 0
2, 10751280, Note_on_c, 0, 60, 100
2, 10751520, Note_on_c, 0, 60, 0
2, 10751520, Note_on_c, 0, 62, 100
2, 10751760, Note_on_c, 0, 62, 0
2, 10751760, Note_on_c, 0, 60, 100
2, 10751880, Note_on_c, 0, 60, 0
2, 10751880, Note_on_c, 0, 59, 100
2, 10752000, Note_on_c, 0, 59, 0
2, 10752000, Note_on_c, 0, 57, 100
2, 10752120, Note_on_c, 0, 57, 0
2, 10752120, Note_on_c, 0, 59, 100
2, 10752240, Note_on_c, 0, 59, 0
2, 10752240, Note_on_c, 0, 60, 100
2, 10752480, Note_on_c, 0, 60, 0
2, 10752480, Note_on_c, 0, 59, 100
2, 10752600, Note_on_c, 0, 59, 0
2, 10752600, Note_on_c, 0, 57, 100
2, 10752720, Note_on_c, 0, 57, 0
2, 10752720, Note_on_c, 0, 55, 100
2, 10752840, Note_on_c, 0, 55, 0
2, 10752840, Note_on_c, 0, 57, 100
2, 10752960, Note_on_c, 0, 57, 0
2, 10752960, Note_on_c, 0, 59, 100
2, 10753200, Note_on_c, 0, 59, 0
2, 10753200, Note_on_c, 0, 57, 100
2, 10753320, Note_on_c, 0, 57, 0
2, 10753320, Note_on_c, 0, 55, 100
2, 10753440, Note_on_c, 0, 55, 0
2, 10753440, Note_on_c, 0, 54, 100
2, 10753560, Note_on_c, 0, 54, 0
2, 10753560, Note_on_c, 0, 55, 100
2, 10753680, Note_on_c, 0, 55, 0
2, 10753680, Note_on_c, 0, 71, 100
2, 10754400, Note_on_c, 0, 71, 0
2, 10754400, Note_on_c, 0, 69, 100
2, 10754520, Note_on_c, 0, 69, 0
2, 10754520, Note_on_c, 0, 67, 100
2, 10754640, Note_on_c, 0, 67, 0
2, 10754640, Note_on_c, 0, 69, 100
2, 10754760, Note_on_c, 0, 69, 0
2, 10754760, Note_on_c, 0, 71, 100
2, 10754880, Note_on_c, 0, 71, 0
2, 10754880, Note_on_c, 0, 69, 100
2, 10754940, Note_on_c, 0, 69, 0
2, 10754940, Note_on_c, 0, 71, 100
2, 10755000, Note_on_c, 0, 71, 0
2, 10755000, Note_on_c, 0, 69, 100
2, 10755060, Note_on_c, 0, 69, 0
2, 10755060, Note_on_c, 0, 71, 100
2, 10755120, Note_on_c, 0, 71, 0
2, 10755120, Note_on_c, 0, 69, 100
2, 10755180, Note_on_c, 0, 69, 0
2, 10755180, Note_on_c, 0, 71, 100
2, 10755240, Note_on_c, 0, 71, 0
2, 10755240, Note_on_c, 0, 69, 100
2, 10755300, Note_on_c, 0, 69, 0
2, 10755300, Note_on_c, 0, 71, 100
2, 10755360, Note_on_c, 0, 71, 0
2, 10755360, Note_on_c, 0, 69, 100
2, 10755420, Note_on_c, 0, 69, 0
2, 10755420, Note_on_c, 0, 71, 100
2, 10755480, Note_on_c, 0, 71, 0
2, 10755480, Note_on_c, 0, 69, 100
2, 10755540, Note_on_c, 0, 69, 0
2, 10755540, Note_on_c, 0, 71, 100
2, 10755600, Note_on_c, 0, 71, 0
2, 10755600, Note_on_c, 0, 69, 100
2, 10755660, Note_on_c, 0, 69, 0
2, 10755660, Note_on_c, 0, 71, 100
2, 10755720, Note_on_c, 0, 71, 0
2, 10755720, Note_on_c, 0, 69, 100
2, 10755780, Note_on_c, 0, 69, 0
2, 10755780, Note_on_c, 0, 71, 100
2, 10755840, Note_on_c, 0, 71, 0
2, 10755840, Note_on_c, 0, 69, 100
2, 10755900, Note_on_c, 0, 69, 0
2, 10755900, Note_on_c, 0, 71, 100
2, 10755960, Note_on_c, 0, 71, 0
2, 10755960, Note_on_c, 0, 69, 100
2, 10756020, Note_on_c, 0, 69, 0
2, 10756020, Note_on_c, 0, 71, 100
2, 10756080, Note_on_c, 0, 71, 0
2, 10756080, Note_on_c, 0, 69, 100
2, 10756140, Note_on_c, 0, 69, 0
2, 10756140, Note_on_c, 0, 71, 100
2, 10756200, Note_on_c, 0, 71, 0
2, 10756200, Note_on_c, 0, 69, 100
2, 10756260, Note_on_c, 0, 69, 0
2, 10756260, Note_on_c, 0, 71, 100
2, 10756320, Note_on_c, 0, 71, 0
2, 10756320, Note_on_c, 0, 69, 100
2, 10756380, Note_on_c, 0, 69, 0
2, 10756380, Note_on_c, 0, 71, 100
2, 10756440, Note_on_c, 0, 71, 0
2, 10756440, Note_on_c, 0, 69, 100
2, 10756500, Note_on_c, 0, 69, 0
2, 10756500, Note_on_c, 0, 71, 100
2, 10756560, Note_on_c, 0, 71, 0
2, 10756560, Note_on_c, 0, 69, 100
2, 10756680, Note_on_c, 0, 69, 0
2, 10756680, Note_on_c, 0, 67, 100
2, 10756800, Note_on_c, 0, 67, 0
2, 10756800, Note_on_c, 0, 66, 100
2, 10757040, Note_on_c, 0, 66, 0
2, 10757040, Note_on_c, 0, 67, 100
2, 10757280, Note_on_c, 0, 67, 0
2, 10757280, Note_on_c, 0, 71, 100
2, 10757520, Note_on_c, 0, 71, 0
2, 10757520, Note_on_c, 0, 69, 100
2, 10757760, Note_on_c, 0, 69, 0
2, 10757760, Note_on_c, 0, 71, 100
2, 10758000, Note_on_c, 0, 71, 0
2, 10758000, Note_on_c, 0, 63, 100
2, 10758480, Note_on_c, 0, 63, 0
2, 10758480, Note_on_c, 0, 64, 100
2, 10758720, Note_on_c, 0, 64, 0
2, 10758720, Note_on_c, 0, 67, 100
2, 10758960, Note_on_c, 0, 67, 0
2, 10758960, Note_on_c, 0, 66, 100
2, 10759080, Note_on_c, 0, 66, 0
2, 10759080, Note_on_c, 0, 64, 100
2, 10759200, Note_on_c, 0, 64, 0
2, 10759200, Note_on_c, 0, 62, 100
2, 10759320, Note_on_c, 0, 62, 0
2, 10759320, Note_on_c, 0, 60, 100
2, 10759440, Note_on_c, 0, 60, 0
2, 10759440, Note_on_c, 0, 64, 100
2, 10759680, Note_on_c, 0, 64, 0
2, 10759680, Note_on_c, 0, 62, 100
2, 10759800, Note_on_c, 0, 62, 0
2, 10759800, Note_on_c, 0, 60, 100
2, 10759920, Note_on_c, 0, 60, 0
2, 10759920, Note_on_c, 0, 59, 100
2, 10760040, Note_on_c, 0, 59, 0
2, 10760040, Note_on_c, 0, 57, 100
2, 10760160, Note_on_c, 0, 57, 0
2, 10760160, Note_on_c, 0, 60, 100
2, 10760400, Note_on_c, 0, 60, 0
2, 10760400, Note_on_c, 0, 59, 100
2, 10760520, Note_on_c, 0, 59, 0
2, 10760520, Note_on_c, 0, 57, 100
2, 10760640, Note_on_c, 0, 57, 0
2, 10760640, Note_on_c, 0, 55, 100
2, 10760760, Note_on_c, 0, 55, 0
2, 10760760, Note_on_c, 0, 54, 100
2, 10760880, Note_on_c, 0, 54, 0
2, 10760880, Note_on_c, 0, 64, 100
2, 10761360, Note_on_c, 0, 64, 0
2, 10761360, Note_on_c, 0, 63, 100
2, 10761600, Note_on_c, 0, 63, 0
2, 10761600, Note_on_c, 0, 66, 100
2, 10761840, Note_on_c, 0, 66, 0
2, 10761840, Note_on_c, 0, 64, 100
2, 10761900, Note_on_c, 0, 64, 0
2, 10761900, Note_on_c, 0, 63, 100
2, 10761960, Note_on_c, 0, 63, 0
2, 10761960, Note_on_c, 0, 64, 100
2, 10762020, Note_on_c, 0, 64, 0
2, 10762020, Note_on_c, 0, 66, 100
2, 10762080, Note_on_c, 0, 66, 0
2, 10762080, Note_on_c, 0, 59, 100
2, 10762320, Note_on_c, 0, 59, 0
2, 10762320, Note_on_c, 0, 63, 100
2, 10763280, Note_on_c, 0, 63, 0
2, 10763280, Note_on_c, 0, 64, 100
2, 10763520, Note_on_c, 0, 64, 0
2, 10763520, Note_on_c, 0, 62, 100
2, 10763880, Note_on_c, 0, 62, 0
2, 10763880, Note_on_c, 0, 60, 100
2, 10764000, Note_on_c, 0, 60, 0
2, 10764000, Note_on_c, 0, 59, 100
2, 10764120, Note_on_c, 0, 59, 0
2, 10764120, Note_on_c, 0, 60, 100
2, 10764240, Note_on_c, 0, 60, 0
2, 10764240, Note_on_c, 0, 59, 100
2, 10764600, Note_on_c, 0, 59, 0
2, 10764600, Note_on_c, 0, 57, 100
2, 10764720, Note_on_c, 0, 57, 0
2, 10764720, Note_on_c, 0, 55, 100
2, 10764840, Note_on_c, 0, 55, 0
2, 10764840, Note_on_c, 0, 57, 100
2, 10764960, Note_on_c, 0, 57, 0
2, 10764960, Note_on_c, 0, 54, 100
2, 10765440, Note_on_c, 0, 54, 0
2, 10765440, Note_on_c, 0, 55, 100
2, 10765680, Note_on_c, 0, 55, 0
2, 10765680, Note_on_c, 0, 59, 100
2, 10774560, Note_on_c, 0, 59, 0
2, 10774560, Note_on_c, 0, 60, 100
2, 10775520, Note_on_c, 0, 60, 0
2, 10775520, Note_on_c, 0, 62, 100
2, 10775760, Note_on_c, 0, 62, 0
2, 10775760, Note_on_c, 0, 64, 100
2, 10776000, Note_on_c, 0, 64, 0
2, 10776000, Note_on_c, 0, 56, 100
2, 10776240, Note_on_c, 0, 56, 0
2, 10776240, Note_on_c, 0, 59, 100
2, 10776480, Note_on_c, 0, 59, 0
2, 10776480, Note_on_c, 0, 57, 100
2, 10776720, Note_on_c, 0, 57, 0
2, 10776720, Note_on_c, 0, 59, 100
2, 10777680, Note_on_c, 0, 59, 0
2, 10777680, Note_on_c, 0, 60, 100
2, 10777920, Note_on_c, 0, 60, 0
2, 10777920, Note_on_c, 0, 62, 100
2, 10778160, Note_on_c, 0, 62, 0
2, 10778160, Note_on_c, 0, 54, 100
2, 10778400, Note_on_c, 0, 54, 0
2, 10778400, Note_on_c, 0, 57, 100
2, 10778640, Note_on_c, 0, 57, 0
2, 10778640, Note_on_c, 0, 50, 100
2, 10778880, Note_on_c, 0, 50, 0
2, 10778880, Note_on_c, 0, 54, 100
2, 10779360, Note_on_c, 0, 54, 0
2, 10779360, Note_on_c, 0, 59, 100
2, 10779600, Note_on_c, 0, 59, 0
2, 10779600, Note_on_c, 0, 51, 100
2, 10780800, Note_on_c, 0, 51, 0
2, 10780800, Note_on_c, 0, 52, 100
2, 10781040, Note_on_c, 0, 52, 0
2, 10781040, Note_on_c, 0, 54, 100
2, 10781280, Note_on_c, 0, 54, 0
2, 10781280, Note_on_c, 0, 55, 100
2, 10781520, Note_on_c, 0, 55, 0
2, 10781520, Note_on_c, 0, 54, 100
2, 10781760, Note_on_c, 0, 54, 0
2, 10781760, Note_on_c, 0, 55, 100
2, 10782000, Note_on_c, 0, 55, 0
2, 10782000, Note_on_c, 0, 57, 100
2, 10782240, Note_on_c, 0, 57, 0
2, 10782240, Note_on_c, 0, 50, 100
2, 10783920, Note_on_c, 0, 50, 0
2, 10783920, Note_on_c, 0, 55, 100
2, 10784880, Note_on_c, 0, 55, 0
2, 10784880, Note_on_c, 0, 54, 100
2, 10785120, Note_on_c, 0, 54, 0
2, 10785120, Note_on_c, 0, 55, 100
2, 10785360, Note_on_c, 0, 55, 0
2, 10785360, Note_on_c, 0, 57, 100
2, 10785600, Note_on_c, 0, 57, 0
2, 10785600, Note_on_c, 0, 59, 100
2, 10785840, Note_on_c, 0, 59, 0
2, 10785840, Note_on_c, 0, 60, 100
2, 10786080, Note_on_c, 0, 60, 0
2, 10786080, Note_on_c, 0, 62, 100
2, 10786320, Note_on_c, 0, 62, 0
2, 10786320, Note_on_c, 0, 60, 100
2, 10786440, Note_on_c, 0, 60, 0
2, 10786440, Note_on_c, 0, 59, 100
2, 10786560, Note_on_c, 0, 59, 0
2, 10786560, Note_on_c, 0, 57, 100
2, 10786680, Note_on_c, 0, 57, 0
2, 10786680, Note_on_c, 0, 59, 100
2, 10786800, Note_on_c, 0, 59, 0
2, 10786800, Note_on_c, 0, 60, 100
2, 10787040, Note_on_c, 0, 60, 0
2, 10787040, Note_on_c, 0, 59, 100
2, 10787160, Note_on_c, 0, 59, 0
2, 10787160, Note_on_c, 0, 57, 100
2, 10787280, Note_on_c, 0, 57, 0
2, 10787280, Note_on_c, 0, 55, 100
2, 10787400, Note_on_c, 0, 55, 0
2, 10787400, Note_on_c, 0, 57, 100
2, 10787520, Note_on_c, 0, 57, 0
2, 10787520, Note_on_c, 0, 59, 100
2, 10787760, Note_on_c, 0, 59, 0
2, 10787760, Note_on_c, 0, 57, 100
2, 10787880, Note_on_c, 0, 57, 0
2, 10787880, Note_on_c, 0, 55, 100
2, 10788000, Note_on_c, 0, 55, 0
2, 10788000, Note_on_c, 0, 54, 100
2, 10788120, Note_on_c, 0, 54, 0
2, 10788120, Note_on_c, 0, 55, 100
2, 10788240, Note_on_c, 0, 55, 0
2, 10788240, Note_on_c, 0, 58, 100
2, 10788960, Note_on_c, 0, 58, 0
2, 10788960, Note_on_c, 0, 62, 100
2, 10789680, Note_on_c, 0, 62, 0
2, 10789680, Note_on_c, 0, 60, 100
2, 10789920, Note_on_c, 0, 60, 0
2, 10789920, Note_on_c, 0, 58, 100
2, 10790160, Note_on_c, 0, 58, 0
2, 10790160, Note_on_c, 0, 57, 100
2, 10790400, Note_on_c, 0, 57, 0
2, 10790400, Note_on_c, 0, 60, 100
2, 10791120, Note_on_c, 0, 60, 0
2, 10791120, Note_on_c, 0, 58, 100
2, 10791360, Note_on_c, 0, 58, 0
2, 10791360, Note_on_c, 0, 56, 100
2, 10791600, Note_on_c, 0, 56, 0
2, 10791600, Note_on_c, 0, 55, 100
2, 10791840, Note_on_c, 0, 55, 0
2, 10791840, Note_on_c, 0, 58, 100
2, 10792560, Note_on_c, 0, 58, 0
2, 10792560, Note_on_c, 0, 57, 100
2, 10792800, Note_on_c, 0, 57, 0
2, 10792800, Note_on_c, 0, 55, 100
2, 10793040, Note_on_c, 0, 55, 0
2, 10793040, Note_on_c, 0, 54, 100
2, 10793520, Note_on_c, 0, 54, 0
2, 10793520, Note_on_c, 0, 52, 100
2, 10793640, Note_on_c, 0, 52, 0
2, 10793640, Note_on_c, 0, 54, 100
2, 10793760, Note_on_c, 0, 54, 0
2, 10793760, Note_on_c, 0, 57, 100
2, 10793880, Note_on_c, 0, 57, 0
2, 10793880, Note_on_c, 0, 60, 100
2, 10794120, Note_on_c, 0, 60, 0
2, 10794120, Note_on_c, 0, 54, 100
2, 10794360, Note_on_c, 0, 54, 0
2, 10794360, Note_on_c, 0, 57, 100
2, 10794600, Note_on_c, 0, 57, 0
2, 10794600, Note_on_c, 0, 54, 100
2, 10794840, Note_on_c, 0, 54, 0
2, 10794840, Note_on_c, 0, 55, 100
2, 10795440, Note_on_c, 0, 55, 0
2, 10795440, Note_on_c, 0, 50, 100
2, 10795680, Note_on_c, 0, 50, 0
2, 10795680, Note_on_c, 0, 53, 100
2, 10795800, Note_on_c, 0, 53, 0
2, 10795800, Note_on_c, 0, 55, 100
2, 10795920, Note_on_c, 0, 55, 0
2, 10795920, Note_on_c, 0, 56, 100
2, 10796160, Note_on_c, 0, 56, 0
2, 10796160, Note_on_c, 0, 55, 100
2, 10796400, Note_on_c, 0, 55, 0
2, 10796400, Note_on_c, 0, 57, 100
2, 10796880, Note_on_c, 0, 57, 0
2, 10796880, Note_on_c, 0, 52, 100
2, 10797120, Note_on_c, 0, 52, 0
2, 10797120, Note_on_c, 0, 55, 100
2, 10797240, Note_on_c, 0, 55, 0
2, 10797240, Note_on_c, 0, 57, 100
2, 10797360, Note_on_c, 0, 57, 0
2, 10797360, Note_on_c, 0, 58, 100
2, 10797600, Note_on_c, 0, 58, 0
2, 10797600, Note_on_c, 0, 57, 100
2, 10798320, Note_on_c, 0, 57, 0
2, 10798320, Note_on_c, 0, 55, 100
2, 10798560, Note_on_c, 0, 55, 0
2, 10798560, Note_on_c, 0, 54, 100
2, 10798800, Note_on_c, 0, 54, 0
2, 10798800, Note_on_c, 0, 55, 100
2, 10799280, Note_on_c, 0, 55, 0
2, 10799280, Note_on_c, 0, 54, 100
2, 10799400, Note_on_c, 0, 54, 0
2, 10799400, Note_on_c, 0, 55, 100
2, 10799520, Note_on_c, 0, 55, 0
2, 10799520, Note_on_c, 0, 50, 100
2, 10799640, Note_on_c, 0, 50, 0
2, 10799640, Note_on_c, 0, 51, 100
2, 10799880, Note_on_c, 0, 51, 0
2, 10799880, Note_on_c, 0, 50, 100
2, 10800060, Note_on_c, 0, 50, 0
2, 10800060, Note_on_c, 0, 55, 100
2, 10800120, Note_on_c, 0, 55, 0
2, 10800120, Note_on_c, 0, 54, 100
2, 10800300, Note_on_c, 0, 54, 0
2, 10800300, Note_on_c, 0, 60, 100
2, 10800360, Note_on_c, 0, 60, 0
2, 10800360, Note_on_c, 0, 58, 100
2, 10800600, Note_on_c, 0, 58, 0
2, 10800600, Note_on_c, 0, 57, 100
2, 10800660, Note_on_c, 0, 57, 0
2, 10800660, Note_on_c, 0, 58, 100
2, 10800720, Note_on_c, 0, 58, 0
2, 10800720, Note_on_c, 0, 67, 100
2, 10801920, Note_on_c, 0, 67, 0
2, 10801920, Note_on_c, 0, 66, 100
2, 10802160, Note_on_c, 0, 66, 0
2, 10802160, Note_on_c, 0, 65, 100
2, 10803360, Note_on_c, 0, 65, 0
2, 10803360, Note_on_c, 0, 64, 100
2, 10803600, Note_on_c, 0, 64, 0
2, 10803600, Note_on_c, 0, 63, 100
2, 10804320, Note_on_c, 0, 63, 0
2, 10804320, Note_on_c, 0, 62, 100
2, 10804800, Note_on_c, 0, 62, 0
2, 10804800, Note_on_c, 0, 61, 100
2, 10805040, Note_on_c, 0, 61, 0
2, 10805040, Note_on_c, 0, 62, 100
2, 10806720, Note_on_c, 0, 62, 0
2, 10806720, Note_on_c, 0, 63, 100
2, 10807200, Note_on_c, 0, 63, 0
2, 10807200, Note_on_c, 0, 64, 100
2, 10808160, Note_on_c, 0, 64, 0
2, 10808160, Note_on_c, 0, 65, 100
2, 10808640, Note_on_c, 0, 65, 0
2, 10808640, Note_on_c, 0, 66, 100
2, 10809600, Note_on_c, 0, 66, 0
2, 10809600, Note_on_c, 0, 67, 100
2, 10810080, Note_on_c, 0, 67, 0
2, 10810080, Note_on_c, 0, 66, 100
2, 10810800, Note_on_c, 0, 66, 0
2, 10810800, Note_on_c, 0, 64, 100
2, 10810920, Note_on_c, 0, 64, 0
2, 10810920, Note_on_c, 0, 66, 100
2, 10811040, Note_on_c, 0, 66, 0
2, 10811040, Note_on_c, 0, 58, 100
2, 10812000, Note_on_c, 0, 58, 0
2, 10812000, Note_on_c, 0, 62, 100
2, 10812720, Note_on_c, 0, 62, 0
2, 10812720, Note_on_c, 0, 60, 100
2, 10812960, Note_on_c, 0, 60, 0
2, 10812960, Note_on_c, 0, 58, 100
2, 10813200, Note_on_c, 0, 58, 0
2, 10813200, Note_on_c, 0, 57, 100
2, 10813440, Note_on_c, 0, 57, 0
2, 10813440, Note_on_c, 0, 60, 100
2, 10814160, Note_on_c, 0, 60, 0
2, 10814160, Note_on_c, 0, 58, 100
2, 10814400, Note_on_c, 0, 58, 0
2, 10814400, Note_on_c, 0, 56, 100
2, 10814640, Note_on_c, 0, 56, 0
2, 10814640, Note_on_c, 0, 55, 100
2, 10814880, Note_on_c, 0, 55, 0
2, 10814880, Note_on_c, 0, 58, 100
2, 10815600, Note_on_c, 0, 58, 0
2, 10815600, Note_on_c, 0, 57, 100
2, 10815840, Note_on_c, 0, 57, 0
2, 10815840, Note_on_c, 0, 55, 100
2, 10816080, Note_on_c, 0, 55, 0
2, 10816080, Note_on_c, 0, 54, 100
2, 10816560, Note_on_c, 0, 54, 0
2, 10816560, Note_on_c, 0, 52, 100
2, 10816680, Note_on_c, 0, 52, 0
2, 10816680, Note_on_c, 0, 54, 100
2, 10816800, Note_on_c, 0, 54, 0
2, 10816800, Note_on_c, 0, 57, 100
2, 10816920, Note_on_c, 0, 57, 0
2, 10816920, Note_on_c, 0, 60, 100
2, 10817160, Note_on_c, 0, 60, 0
2, 10817160, Note_on_c, 0, 54, 100
2, 10817400, Note_on_c, 0, 54, 0
2, 10817400, Note_on_c, 0, 57, 100
2, 10817640, Note_on_c, 0, 57, 0
2, 10817640, Note_on_c, 0, 54, 100
2, 10817880, Note_on_c, 0, 54, 0
2, 10817880, Note_on_c, 0, 55, 100
2, 10818480, Note_on_c, 0, 55, 0
2, 10818480, Note_on_c, 0, 50, 100
2, 10818720, Note_on_c, 0, 50, 0
2, 10818720, Note_on_c, 0, 53, 100
2, 10818840, Note_on_c, 0, 53, 0
2, 10818840, Note_on_c, 0, 55, 100
2, 10818960, Note_on_c, 0, 55, 0
2, 10818960, Note_on_c, 0, 56, 100
2, 10819200, Note_on_c, 0, 56, 0
2, 10819200, Note_on_c, 0, 55, 100
2, 10819440, Note_on_c, 0, 55, 0
2, 10819440, Note_on_c, 0, 57, 100
2, 10819920, Note_on_c, 0, 57, 0
2, 10819920, Note_on_c, 0, 52, 100
2, 10820160, Note_on_c, 0, 52, 0
2, 10820160, Note_on_c, 0, 55, 100
2, 10820280, Note_on_c, 0, 55, 0
2, 10820280, Note_on_c, 0, 57, 100
2, 10820400, Note_on_c, 0, 57, 0
2, 10820400, Note_on_c, 0, 58, 100
2, 10820640, Note_on_c, 0, 58, 0
2, 10820640, Note_on_c, 0, 57, 100
2, 10821360, Note_on_c, 0, 57, 0
2, 10821360, Note_on_c, 0, 55, 100
2, 10821600, Note_on_c, 0, 55, 0
2, 10821600, Note_on_c, 0, 54, 100
2, 10821840, Note_on_c, 0, 54, 0
2, 10821840, Note_on_c, 0, 55, 100
2, 10822320, Note_on_c, 0, 55, 0
2, 10822320, Note_on_c, 0, 54, 100
2, 10822440, Note_on_c, 0, 54, 0
2, 10822440, Note_on_c, 0, 55, 100
2, 10822560, Note_on_c, 0, 55, 0
2, 10822560, Note_on_c, 0, 50, 100
2, 10822680, Note_on_c, 0, 50, 0
2, 10822680, Note_on_c, 0, 51, 100
2, 10822920, Note_on_c, 0, 51, 0
2, 10822920, Note_on_c, 0, 50, 100
2, 10823100, Note_on_c, 0, 50, 0
2, 10823100, Note_on_c, 0, 55, 100
2, 10823160, Note_on_c, 0, 55, 0
2, 10823160, Note_on_c, 0, 54, 100
2, 10823340, Note_on_c, 0, 54, 0
2, 10823340, Note_on_c, 0, 60, 100
2, 10823400, Note_on_c, 0, 60, 0
2, 10823400, Note_on_c, 0, 58, 100
2, 10823640, Note_on_c, 0, 58, 0
2, 10823640, Note_on_c, 0, 57, 100
2, 10823700, Note_on_c, 0, 57, 0
2, 10823700, Note_on_c, 0, 58, 100
2, 10823760, Note_on_c, 0, 58, 0
2, 10823760, Note_on_c, 0, 67, 100
2, 10824960, Note_on_c, 0, 67, 0
2, 10824960, Note_on_c, 0, 66, 100
2, 10825200, Note_on_c, 0, 66, 0
2, 10825200, Note_on_c, 0, 65, 100
2, 10826400, Note_on_c, 0, 65, 0
2, 10826400, Note_on_c, 0, 64, 100
2, 10826640, Note_on_c, 0, 64, 0
2, 10826640, Note_on_c, 0, 63, 100
2, 10827360, Note_on_c, 0, 63, 0
2, 10827360, Note_on_c, 0, 62, 100
2, 10827840, Note_on_c, 0, 62, 0
2, 10827840, Note_on_c, 0, 61, 100
2, 10828080, Note_on_c, 0, 61, 0
2, 10828080, Note_on_c, 0, 62, 100
2, 10829760, Note_on_c, 0, 62, 0
2, 10829760, Note_on_c, 0, 63, 100
2, 10830240, Note_on_c, 0, 63, 0
2, 10830240, Note_on_c, 0, 64, 100
2, 10831200, Note_on_c, 0, 64, 0
2, 10831200, Note_on_c, 0, 65, 100
2, 10831680, Note_on_c, 0, 65, 0
2, 10831680, Note_on_c, 0, 66, 100
2, 10832640, Note_on_c, 0, 66, 0
2, 10832640, Note_on_c, 0, 67, 100
2, 10833120, Note_on_c, 0, 67, 0
2, 10833120, Note_on_c, 0, 66, 100
2, 10833840, Note_on_c, 0, 66, 0
2, 10833840, Note_on_c, 0, 64, 100
2, 10833960, Note_on_c, 0, 64, 0
2, 10833960, Note_on_c, 0, 66, 100
2, 10834080, Note_on_c, 0, 66, 0
2, 10834080, Note_on_c, 0, 65, 100
2, 10835520, Note_on_c, 0, 65, 0
2, 10835520, Note_on_c, 0, 66, 100
2, 10836000, Note_on_c, 0, 66, 0
2, 10836000, Note_on_c, 0, 67, 100
2, 10836480, Note_on_c, 0, 67, 0
2, 10836480, Note_on_c, 0, 62, 100
2, 10836720, Note_on_c, 0, 62, 0
2, 10836720, Note_on_c, 0, 65, 100
2, 10837440, Note_on_c, 0, 65, 0
2, 10837440, Note_on_c, 0, 63, 100
2, 10837920, Note_on_c, 0, 63, 0
2, 10837920, Note_on_c, 0, 62, 100
2, 10838160, Note_on_c, 0, 62, 0
2, 10838160, Note_on_c, 0, 63, 100
2, 10838400, Note_on_c, 0, 63, 0
2, 10838400, Note_on_c, 0, 64, 100
2, 10838640, Note_on_c, 0, 64, 0
2, 10838640, Note_on_c, 0, 65, 100
2, 10838880, Note_on_c, 0, 65, 0
2, 10838880, Note_on_c, 0, 66, 100
2, 10839120, Note_on_c, 0, 66, 0
2, 10839120, Note_on_c, 0, 65, 100
2, 10839600, Note_on_c, 0, 65, 0
2, 10839600, Note_on_c, 0, 66, 100
2, 10839720, Note_on_c, 0, 66, 0
2, 10839720, Note_on_c, 0, 68, 100
2, 10839840, Note_on_c, 0, 68, 0
2, 10839840, Note_on_c, 0, 62, 100
2, 10839960, Note_on_c, 0, 62, 0
2, 10839960, Note_on_c, 0, 63, 100
2, 10840200, Note_on_c, 0, 63, 0
2, 10840200, Note_on_c, 0, 65, 100
2, 10840260, Note_on_c, 0, 65, 0
2, 10840260, Note_on_c, 0, 66, 100
2, 10840320, Note_on_c, 0, 66, 0
2, 10840320, Note_on_c, 0, 63, 100
2, 10840380, Note_on_c, 0, 63, 0
2, 10840380, Note_on_c, 0, 65, 100
2, 10840440, Note_on_c, 0, 65, 0
2, 10840440, Note_on_c, 0, 59, 100
2, 10840800, Note_on_c, 0, 59, 0
2, 10840800, Note_on_c, 0, 58, 100
2, 10840920, Note_on_c, 0, 58, 0
2, 10840920, Note_on_c, 0, 63, 100
2, 10841280, Note_on_c, 0, 63, 0
2, 10841280, Note_on_c, 0, 64, 100
2, 10841760, Note_on_c, 0, 64, 0
2, 10841760, Note_on_c, 0, 65, 100
2, 10842720, Note_on_c, 0, 65, 0
2, 10842720, Note_on_c, 0, 66, 100
2, 10843200, Note_on_c, 0, 66, 0
2, 10843200, Note_on_c, 0, 67, 100
2, 10844160, Note_on_c, 0, 67, 0
2, 10844160, Note_on_c, 0, 68, 100
2, 10844640, Note_on_c, 0, 68, 0
2, 10844640, Note_on_c, 0, 67, 100
2, 10845360, Note_on_c, 0, 67, 0
2, 10845360, Note_on_c, 0, 65, 100
2, 10845480, Note_on_c, 0, 65, 0
2, 10845480, Note_on_c, 0, 67, 100
2, 10845600, Note_on_c, 0, 67, 0
2, 10845600, Note_on_c, 0, 69, 100
2, 10845960, Note_on_c, 0, 69, 0
2, 10845960, Note_on_c, 0, 71, 100
2, 10846020, Note_on_c, 0, 71, 0
2, 10846020, Note_on_c, 0, 72, 100
2, 10846080, Note_on_c, 0, 72, 0
2, 10846080, Note_on_c, 0, 65, 100
2, 10846140, Note_on_c, 0, 65, 0
2, 10846140, Note_on_c, 0, 68, 100
2, 10846200, Note_on_c, 0, 68, 0
2, 10846200, Note_on_c, 0, 67, 100
2, 10846440, Note_on_c, 0, 67, 0
2, 10846440, Note_on_c, 0, 65, 100
2, 10846560, Note_on_c, 0, 65, 0
2, 10846560, Note_on_c, 0, 63, 100
2, 10846800, Note_on_c, 0, 63, 0
2, 10846800, Note_on_c, 0, 67, 100
2, 10847280, Note_on_c, 0, 67, 0
2, 10847280, Note_on_c, 0, 65, 100
2, 10847520, Note_on_c, 0, 65, 0
2, 10847520, Note_on_c, 0, 63, 100
2, 10847760, Note_on_c, 0, 63, 0
2, 10847760, Note_on_c, 0, 62, 100
2, 10848000, Note_on_c, 0, 62, 0
2, 10848000, Note_on_c, 0, 65, 100
2, 10848720, Note_on_c, 0, 65, 0
2, 10848720, Note_on_c, 0, 63, 100
2, 10848960, Note_on_c, 0, 63, 0
2, 10848960, Note_on_c, 0, 61, 100
2, 10849200, Note_on_c, 0, 61, 0
2, 10849200, Note_on_c, 0, 60, 100
2, 10849440, Note_on_c, 0, 60, 0
2, 10849440, Note_on_c, 0, 63, 100
2, 10850160, Note_on_c, 0, 63, 0
2, 10850160, Note_on_c, 0, 62, 100
2, 10850280, Note_on_c, 0, 62, 0
2, 10850280, Note_on_c, 0, 60, 100
2, 10850400, Note_on_c, 0, 60, 0
2, 10850400, Note_on_c, 0, 58, 100
2, 10850640, Note_on_c, 0, 58, 0
2, 10850640, Note_on_c, 0, 57, 100
2, 10851240, Note_on_c, 0, 57, 0
2, 10851240, Note_on_c, 0, 62, 100
2, 10851360, Note_on_c, 0, 62, 0
2, 10851360, Note_on_c, 0, 60, 100
2, 10851600, Note_on_c, 0, 60, 0
2, 10851600, Note_on_c, 0, 58, 100
2, 10851840, Note_on_c, 0, 58, 0
2, 10851840, Note_on_c, 0, 57, 100
2, 10852080, Note_on_c, 0, 57, 0
2, 10852080, Note_on_c, 0, 50, 100
2, 10852320, Note_on_c, 0, 50, 0
2, 10852320, Note_on_c, 0, 54, 100
2, 10852800, Note_on_c, 0, 54, 0
2, 10852800, Note_on_c, 0, 55, 100
2, 10853280, Note_on_c, 0, 55, 0
2, 10853280, Note_on_c, 0, 56, 100
2, 10853520, Note_on_c, 0, 56, 0
2, 10853520, Note_on_c, 0, 55, 100
2, 10854240, Note_on_c, 0, 55, 0
2, 10854240, Note_on_c, 0, 57, 100
2, 10854720, Note_on_c, 0, 57, 0
2, 10854720, Note_on_c, 0, 58, 100
2, 10854960, Note_on_c, 0, 58, 0
2, 10854960, Note_on_c, 0, 57, 100
2, 10855680, Note_on_c, 0, 57, 0
2, 10855680, Note_on_c, 0, 58, 100
2, 10856160, Note_on_c, 0, 58, 0
2, 10856160, Note_on_c, 0, 60, 100
2, 10856400, Note_on_c, 0, 60, 0
2, 10856400, Note_on_c, 0, 58, 100
2, 10856880, Note_on_c, 0, 58, 0
2, 10856880, Note_on_c, 0, 57, 100
2, 10857000, Note_on_c, 0, 57, 0
2, 10857000, Note_on_c, 0, 58, 100
2, 10857120, Note_on_c, 0, 58, 0
2, 10857120, Note_on_c, 0, 65, 100
2, 10858560, Note_on_c, 0, 65, 0
2, 10858560, Note_on_c, 0, 66, 100
2, 10859040, Note_on_c, 0, 66, 0
2, 10859040, Note_on_c, 0, 67, 100
2, 10859520, Note_on_c, 0, 67, 0
2, 10859520, Note_on_c, 0, 62, 100
2, 10859760, Note_on_c, 0, 62, 0
2, 10859760, Note_on_c, 0, 65, 100
2, 10860480, Note_on_c, 0, 65, 0
2, 10860480, Note_on_c, 0, 63, 100
2, 10860960, Note_on_c, 0, 63, 0
2, 10860960, Note_on_c, 0, 62, 100
2, 10861200, Note_on_c, 0, 62, 0
2, 10861200, Note_on_c, 0, 63, 100
2, 10861440, Note_on_c, 0, 63, 0
2, 10861440, Note_on_c, 0, 64, 100
2, 10861680, Note_on_c, 0, 64, 0
2, 10861680, Note_on_c, 0, 65, 100
2, 10861920, Note_on_c, 0, 65, 0
2, 10861920, Note_on_c, 0, 66, 100
2, 10862160, Note_on_c, 0, 66, 0
2, 10862160, Note_on_c, 0, 65, 100
2, 10862640, Note_on_c, 0, 65, 0
2, 10862640, Note_on_c, 0, 66, 100
2, 10862760, Note_on_c, 0, 66, 0
2, 10862760, Note_on_c, 0, 68, 100
2, 10862880, Note_on_c, 0, 68, 0
2, 10862880, Note_on_c, 0, 62, 100
2, 10863000, Note_on_c, 0, 62, 0
2, 10863000, Note_on_c, 0, 63, 100
2, 10863240, Note_on_c, 0, 63, 0
2, 10863240, Note_on_c, 0, 65, 100
2, 10863300, Note_on_c, 0, 65, 0
2, 10863300, Note_on_c, 0, 66, 100
2, 10863360, Note_on_c, 0, 66, 0
2, 10863360, Note_on_c, 0, 63, 100
2, 10863420, Note_on_c, 0, 63, 0
2, 10863420, Note_on_c, 0, 65, 100
2, 10863480, Note_on_c, 0, 65, 0
2, 10863480, Note_on_c, 0, 59, 100
2, 10863840, Note_on_c, 0, 59, 0
2, 10863840, Note_on_c, 0, 58, 100
2, 10863960, Note_on_c, 0, 58, 0
2, 10863960, Note_on_c, 0, 63, 100
2, 10864320, Note_on_c, 0, 63, 0
2, 10864320, Note_on_c, 0, 64, 100
2, 10864800, Note_on_c, 0, 64, 0
2, 10864800, Note_on_c, 0, 65, 100
2, 10865760, Note_on_c, 0, 65, 0
2, 10865760, Note_on_c, 0, 66, 100
2, 10866240, Note_on_c, 0, 66, 0
2, 10866240, Note_on_c, 0, 67, 100
2, 10867200, Note_on_c, 0, 67, 0
2, 10867200, Note_on_c, 0, 68, 100
2, 10867680, Note_on_c, 0, 68, 0
2, 10867680, Note_on_c, 0, 67, 100
2, 10868400, Note_on_c, 0, 67, 0
2, 10868400, Note_on_c, 0, 65, 100
2, 10868520, Note_on_c, 0, 65, 0
2, 10868520, Note_on_c, 0, 67, 100
2, 10868640, Note_on_c, 0, 67, 0
2, 10868640, Note_on_c, 0, 69, 100
2, 10869000, Note_on_c, 0, 69, 0
2, 10869000, Note_on_c, 0, 71, 100
2, 10869060, Note_on_c, 0, 71, 0
2, 10869060, Note_on_c, 0, 72, 100
2, 10869120, Note_on_c, 0, 72, 0
2, 10869120, Note_on_c, 0, 65, 100
2, 10869180, Note_on_c, 0, 65, 0
2, 10869180, Note_on_c, 0, 68, 100
2, 10869240, Note_on_c, 0, 68, 0
2, 10869240, Note_on_c, 0, 67, 100
2, 10869480, Note_on_c, 0, 67, 0
2, 10869480, Note_on_c, 0, 65, 100
2, 10869600, Note_on_c, 0, 65, 0
2, 10869600, Note_on_c, 0, 63, 100
2, 10869840, Note_on_c, 0, 63, 0
2, 10869840, Note_on_c, 0, 67, 100
2, 10870320, Note_on_c, 0, 67, 0
2, 10870320, Note_on_c, 0, 65, 100
2, 10870560, Note_on_c, 0, 65, 0
2, 10870560, Note_on_c, 0, 63, 100
2, 10870800, Note_on_c, 0, 63, 0
2, 10870800, Note_on_c, 0, 62, 100
2, 10871040, Note_on_c, 0, 62, 0
2, 10871040, Note_on_c, 0, 65, 100
2, 10871760, Note_on_c, 0, 65, 0
2, 10871760, Note_on_c, 0, 63, 100
2, 10872000, Note_on_c, 0, 63, 0
2, 10872000, Note_on_c, 0, 61, 100
2, 10872240, Note_on_c, 0, 61, 0
2, 10872240, Note_on_c, 0, 60, 100
2, 10872480, Note_on_c, 0, 60, 0
2, 10872480, Note_on_c, 0, 63, 100
2, 10873200, Note_on_c, 0, 63, 0
2, 10873200, Note_on_c, 0, 62, 100
2, 10873320, Note_on_c, 0, 62, 0
2, 10873320, Note_on_c, 0, 60, 100
2, 10873440, Note_on_c, 0, 60, 0
2, 10873440, Note_on_c, 0, 58, 100
2, 10873680, Note_on_c, 0, 58, 0
2, 10873680, Note_on_c, 0, 57, 100
2, 10874280, Note_on_c, 0, 57, 0
2, 10874280, Note_on_c, 0, 62, 100
2, 10874400, Note_on_c, 0, 62, 0
2, 10874400, Note_on_c, 0, 60, 100
2, 10874640, Note_on_c, 0, 60, 0
2, 10874640, Note_on_c, 0, 58, 100
2, 10874880, Note_on_c, 0, 58, 0
2, 10874880, Note_on_c, 0, 57, 100
2, 10875120, Note_on_c, 0, 57, 0
2, 10875120, Note_on_c, 0, 50, 100
2, 10875360, Note_on_c, 0, 50, 0
2, 10875360, Note_on_c, 0, 54, 100
2, 10875840, Note_on_c, 0, 54, 0
2, 10875840, Note_on_c, 0, 55, 100
2, 10876320, Note_on_c, 0, 55, 0
2, 10876320, Note_on_c, 0, 56, 100
2, 10876560, Note_on_c, 0, 56, 0
2, 10876560, Note_on_c, 0, 55, 100
2, 10877280, Note_on_c, 0, 55, 0
2, 10877280, Note_on_c, 0, 57, 100
2, 10877760, Note_on_c, 0, 57, 0
2, 10877760, Note_on_c, 0, 58, 100
2, 10878000, Note_on_c, 0, 58, 0
2, 10878000, Note_on_c, 0, 57, 100
2, 10878720, Note_on_c, 0, 57, 0
2, 10878720, Note_on_c, 0, 58, 100
2, 10879200, Note_on_c, 0, 58, 0
2, 10879200, Note_on_c, 0, 60, 100
2, 10879440, Note_on_c, 0, 60, 0
2, 10879440, Note_on_c, 0, 58, 100
2, 10879920, Note_on_c, 0, 58, 0
2, 10879920, Note_on_c, 0, 57, 100
2, 10880040, Note_on_c, 0, 57, 0
2, 10880040, Note_on_c, 0, 58, 100
2, 10880160, Note_on_c, 0, 58, 0
2, 10880160, Note_on_c, 0, 71, 100
2, 10882320, Note_on_c, 0, 71, 0
2, 10882320, Note_on_c, 0, 69, 100
2, 10883040, Note_on_c, 0, 69, 0
2, 10883040, Note_on_c, 0, 74, 100
2, 10884480, Note_on_c, 0, 74, 0
2, 10884480, Note_on_c, 0, 73, 100
2, 10884520, Note_on_c, 0, 73, 0
2, 10884520, Note_on_c, 0, 74, 100
2, 10884560, Note_on_c, 0, 74, 0
2, 10884560, Note_on_c, 0, 73, 100
2, 10884600, Note_on_c, 0, 73, 0
2, 10884600, Note_on_c, 0, 67, 100
2, 10885440, Note_on_c, 0, 67, 0
2, 10885440, Note_on_c, 0, 64, 100
2, 10885920, Note_on_c, 0, 64, 0
2, 10885920, Note_on_c, 0, 66, 100
2, 10885980, Note_on_c, 0, 66, 0
2, 10885980, Note_on_c, 0, 69, 100
2, 10886640, Note_on_c, 0, 69, 0
2, 10886640, Note_on_c, 0, 62, 100
2, 10886880, Note_on_c, 0, 62, 0
2, 10886880, Note_on_c, 0, 64, 100
2, 10887240, Note_on_c, 0, 64, 0
2, 10887240, Note_on_c, 0, 65, 100
2, 10887360, Note_on_c, 0, 65, 0
2, 10887360, Note_on_c, 0, 67, 100
2, 10888320, Note_on_c, 0, 67, 0
2, 10888320, Note_on_c, 0, 64, 100
2, 10888680, Note_on_c, 0, 64, 0
2, 10888680, Note_on_c, 0, 62, 100
2, 10888800, Note_on_c, 0, 62, 0
2, 10888800, Note_on_c, 0, 60, 100
2, 10888860, Note_on_c, 0, 60, 0
2, 10888860, Note_on_c, 0, 64, 100
2, 10889520, Note_on_c, 0, 64, 0
2, 10889520, Note_on_c, 0, 57, 100
2, 10889760, Note_on_c, 0, 57, 0
2, 10889760, Note_on_c, 0, 59, 100
2, 10890120, Note_on_c, 0, 59, 0
2, 10890120, Note_on_c, 0, 60, 100
2, 10890240, Note_on_c, 0, 60, 0
2, 10890240, Note_on_c, 0, 62, 100
2, 10891200, Note_on_c, 0, 62, 0
2, 10891200, Note_on_c, 0, 59, 100
2, 10891560, Note_on_c, 0, 59, 0
2, 10891560, Note_on_c, 0, 55, 100
2, 10891680, Note_on_c, 0, 55, 0
2, 10891680, Note_on_c, 0, 71, 100
2, 10893120, Note_on_c, 0, 71, 0
2, 10893120, Note_on_c, 0, 79, 100
2, 10894080, Note_on_c, 0, 79, 0
2, 10894080, Note_on_c, 0, 76, 100
2, 10894440, Note_on_c, 0, 76, 0
2, 10894440, Note_on_c, 0, 78, 100
2, 10894560, Note_on_c, 0, 78, 0
2, 10894560, Note_on_c, 0, 76, 100
2, 10894620, Note_on_c, 0, 76, 0
2, 10894620, Note_on_c, 0, 78, 100
2, 10894680, Note_on_c, 0, 78, 0
2, 10894680, Note_on_c, 0, 72, 100
2, 10895280, Note_on_c, 0, 72, 0
2, 10895280, Note_on_c, 0, 71, 100
2, 10895520, Note_on_c, 0, 71, 0
2, 10895520, Note_on_c, 0, 75, 100
2, 10895880, Note_on_c, 0, 75, 0
2, 10895880, Note_on_c, 0, 76, 100
2, 10896000, Note_on_c, 0, 76, 0
2, 10896000, Note_on_c, 0, 75, 100
2, 10896060, Note_on_c, 0, 75, 0
2, 10896060, Note_on_c, 0, 76, 100
2, 10896720, Note_on_c, 0, 76, 0
2, 10896720, Note_on_c, 0, 69, 100
2, 10896960, Note_on_c, 0, 69, 0
2, 10896960, Note_on_c, 0, 73, 100
2, 10897320, Note_on_c, 0, 73, 0
2, 10897320, Note_on_c, 0, 71, 100
2, 10897440, Note_on_c, 0, 71, 0
2, 10897440, Note_on_c, 0, 69, 100
2, 10897500, Note_on_c, 0, 69, 0
2, 10897500, Note_on_c, 0, 73, 100
2, 10898400, Note_on_c, 0, 73, 0
2, 10898400, Note_on_c, 0, 74, 100
2, 10900320, Note_on_c, 0, 74, 0
2, 10900320, Note_on_c, 0, 76, 100
2, 10901040, Note_on_c, 0, 76, 0
2, 10901040, Note_on_c, 0, 69, 100
2, 10901280, Note_on_c, 0, 69, 0
2, 10901280, Note_on_c, 0, 67, 100
2, 10901640, Note_on_c, 0, 67, 0
2, 10901640, Note_on_c, 0, 66, 100
2, 10901760, Note_on_c, 0, 66, 0
2, 10901760, Note_on_c, 0, 64, 100
2, 10901820, Note_on_c, 0, 64, 0
2, 10901820, Note_on_c, 0, 57, 100
2, 10902480, Note_on_c, 0, 57, 0
2, 10902480, Note_on_c, 0, 62, 100
2, 10903200, Note_on_c, 0, 62, 0
2, 10903200, Note_on_c, 0, 71, 100
2, 10905360, Note_on_c, 0, 71, 0
2, 10905360, Note_on_c, 0, 69, 100
2, 10906080, Note_on_c, 0, 69, 0
2, 10906080, Note_on_c, 0, 74, 100
2, 10907520, Note_on_c, 0, 74, 0
2, 10907520, Note_on_c, 0, 73, 100
2, 10907560, Note_on_c, 0, 73, 0
2, 10907560, Note_on_c, 0, 74, 100
2, 10907600, Note_on_c, 0, 74, 0
2, 10907600, Note_on_c, 0, 73, 100
2, 10907640, Note_on_c, 0, 73, 0
2, 10907640, Note_on_c, 0, 67, 100
2, 10908480, Note_on_c, 0, 67, 0
2, 10908480, Note_on_c, 0, 64, 100
2, 10908960, Note_on_c, 0, 64, 0
2, 10908960, Note_on_c, 0, 66, 100
2, 10909020, Note_on_c, 0, 66, 0
2, 10909020, Note_on_c, 0, 69, 100
2, 10909680, Note_on_c, 0, 69, 0
2, 10909680, Note_on_c, 0, 62, 100
2, 10909920, Note_on_c, 0, 62, 0
2, 10909920, Note_on_c, 0, 64, 100
2, 10910280, Note_on_c, 0, 64, 0
2, 10910280, Note_on_c, 0, 65, 100
2, 10910400, Note_on_c, 0, 65, 0
2, 10910400, Note_on_c, 0, 67, 100
2, 10911360, Note_on_c, 0, 67, 0
2, 10911360, Note_on_c, 0, 64, 100
2, 10911720, Note_on_c, 0, 64, 0
2, 10911720, Note_on_c, 0, 62, 100
2, 10911840, Note_on_c, 0, 62, 0
2, 10911840, Note_on_c, 0, 60, 100
2, 10911900, Note_on_c, 0, 60, 0
2, 10911900, Note_on_c, 0, 64, 100
2, 10912560, Note_on_c, 0, 64, 0
2, 10912560, Note_on_c, 0, 57, 100
2, 10912800, Note_on_c, 0, 57, 0
2, 10912800, Note_on_c, 0, 59, 100
2, 10913160, Note_on_c, 0, 59, 0
2, 10913160, Note_on_c, 0, 60, 100
2, 10913280, Note_on_c, 0, 60, 0
2, 10913280, Note_on_c, 0, 62, 100
2, 10914240, Note_on_c, 0, 62, 0
2, 10914240, Note_on_c, 0, 59, 100
2, 10914600, Note_on_c, 0, 59, 0
2, 10914600, Note_on_c, 0, 55, 100
2, 10914720, Note_on_c, 0, 55, 0
2, 10914720, Note_on_c, 0, 71, 100
2, 10916160, Note_on_c, 0, 71, 0
2, 10916160, Note_on_c, 0, 79, 100
2, 10917120, Note_on_c, 0, 79, 0
2, 10917120, Note_on_c, 0, 76, 100
2, 10917480, Note_on_c, 0, 76, 0
2, 10917480, Note_on_c, 0, 78, 100
2, 10917600, Note_on_c, 0, 78, 0
2, 10917600, Note_on_c, 0, 76, 100
2, 10917660, Note_on_c, 0, 76, 0
2, 10917660, Note_on_c, 0, 78, 100
2, 10917720, Note_on_c, 0, 78, 0
2, 10917720, Note_on_c, 0, 72, 100
2, 10918320, Note_on_c, 0, 72, 0
2, 10918320, Note_on_c, 0, 71, 100
2, 10918560, Note_on_c, 0, 71, 0
2, 10918560, Note_on_c, 0, 75, 100
2, 10918920, Note_on_c, 0, 75, 0
2, 10918920, Note_on_c, 0, 76, 100
2, 10919040, Note_on_c, 0, 76, 0
2, 10919040, Note_on_c, 0, 75, 100
2, 10919100, Note_on_c, 0, 75, 0
2, 10919100, Note_on_c, 0, 76, 100
2, 10919760, Note_on_c, 0, 76, 0
2, 10919760, Note_on_c, 0, 69, 100
2, 10920000, Note_on_c, 0, 69, 0
2, 10920000, Note_on_c, 0, 73, 100
2, 10920360, Note_on_c, 0, 73, 0
2, 10920360, Note_on_c, 0, 71, 100
2, 10920480, Note_on_c, 0, 71, 0
2, 10920480, Note_on_c, 0, 69, 100
2, 10920540, Note_on_c, 0, 69, 0
2, 10920540, Note_on_c, 0, 73, 100
2, 10921440, Note_on_c, 0, 73, 0
2, 10921440, Note_on_c, 0, 74, 100
2, 10923360, Note_on_c, 0, 74, 0
2, 10923360, Note_on_c, 0, 76, 100
2, 10924080, Note_on_c, 0, 76, 0
2, 10924080, Note_on_c, 0, 69, 100
2, 10924320, Note_on_c, 0, 69, 0
2, 10924320, Note_on_c, 0, 67, 100
2, 10924680, Note_on_c, 0, 67, 0
2, 10924680, Note_on_c, 0, 66, 100
2, 10924800, Note_on_c, 0, 66, 0
2, 10924800, Note_on_c, 0, 64, 100
2, 10924860, Note_on_c, 0, 64, 0
2, 10924860, Note_on_c, 0, 57, 100
2, 10925520, Note_on_c, 0, 57, 0
2, 10925520, Note_on_c, 0, 62, 100
2, 10926240, Note_on_c, 0, 62, 0
2, 10926240, Note_on_c, 0, 66, 100
2, 10927200, Note_on_c, 0, 66, 0
2, 10927200, Note_on_c, 0, 64, 100
2, 10927680, Note_on_c, 0, 64, 0
2, 10927680, Note_on_c, 0, 66, 100
2, 10927740, Note_on_c, 0, 66, 0
2, 10927740, Note_on_c, 0, 62, 100
2, 10928400, Note_on_c, 0, 62, 0
2, 10928400, Note_on_c, 0, 67, 100
2, 10928640, Note_on_c, 0, 67, 0
2, 10928640, Note_on_c, 0, 69, 100
2, 10929120, Note_on_c, 0, 69, 0
2, 10929120, Note_on_c, 0, 71, 100
2, 10929180, Note_on_c, 0, 71, 0
2, 10929180, Note_on_c, 0, 79, 100
2, 10929840, Note_on_c, 0, 79, 0
2, 10929840, Note_on_c, 0, 76, 100
2, 10930080, Note_on_c, 0, 76, 0
2, 10930080, Note_on_c, 0, 83, 100
2, 10930560, Note_on_c, 0, 83, 0
2, 10930560, Note_on_c, 0, 81, 100
2, 10931520, Note_on_c, 0, 81, 0
2, 10931520, Note_on_c, 0, 78, 100
2, 10931880, Note_on_c, 0, 78, 0
2, 10931880, Note_on_c, 0, 76, 100
2, 10932000, Note_on_c, 0, 76, 0
2, 10932000, Note_on_c, 0, 75, 100
2, 10932060, Note_on_c, 0, 75, 0
2, 10932060, Note_on_c, 0, 78, 100
2, 10932720, Note_on_c, 0, 78, 0
2, 10932720, Note_on_c, 0, 79, 100
2, 10932960, Note_on_c, 0, 79, 0
2, 10932960, Note_on_c, 0, 78, 100
2, 10933440, Note_on_c, 0, 78, 0
2, 10933440, Note_on_c, 0, 76, 100
2, 10933500, Note_on_c, 0, 76, 0
2, 10933500, Note_on_c, 0, 79, 100
2, 10934400, Note_on_c, 0, 79, 0
2, 10934400, Note_on_c, 0, 77, 100
2, 10934880, Note_on_c, 0, 77, 0
2, 10934880, Note_on_c, 0, 81, 100
2, 10935840, Note_on_c, 0, 81, 0
2, 10935840, Note_on_c, 0, 78, 100
2, 10936320, Note_on_c, 0, 78, 0
2, 10936320, Note_on_c, 0, 75, 100
2, 10936380, Note_on_c, 0, 75, 0
2, 10936380, Note_on_c, 0, 78, 100
2, 10937280, Note_on_c, 0, 78, 0
2, 10937280, Note_on_c, 0, 75, 100
2, 10937640, Note_on_c, 0, 75, 0
2, 10937640, Note_on_c, 0, 76, 100
2, 10937760, Note_on_c, 0, 76, 0
2, 10937760, Note_on_c, 0, 75, 100
2, 10937820, Note_on_c, 0, 75, 0
2, 10937820, Note_on_c, 0, 76, 100
2, 10937880, Note_on_c, 0, 76, 0
2, 10937880, Note_on_c, 0, 68, 100
2, 10939080, Note_on_c, 0, 68, 0
2, 10939080, Note_on_c, 0, 69, 100
2, 10939200, Note_on_c, 0, 69, 0
2, 10939200, Note_on_c, 0, 71, 100
2, 10939560, Note_on_c, 0, 71, 0
2, 10939560, Note_on_c, 0, 72, 100
2, 10939680, Note_on_c, 0, 72, 0
2, 10939680, Note_on_c, 0, 66, 100
2, 10940520, Note_on_c, 0, 66, 0
2, 10940520, Note_on_c, 0, 67, 100
2, 10940640, Note_on_c, 0, 67, 0
2, 10940640, Note_on_c, 0, 69, 100
2, 10941000, Note_on_c, 0, 69, 0
2, 10941000, Note_on_c, 0, 71, 100
2, 10941120, Note_on_c, 0, 71, 0
2, 10941120, Note_on_c, 0, 64, 100
2, 10941960, Note_on_c, 0, 64, 0
2, 10941960, Note_on_c, 0, 66, 100
2, 10942080, Note_on_c, 0, 66, 0
2, 10942080, Note_on_c, 0, 67, 100
2, 10942440, Note_on_c, 0, 67, 0
2, 10942440, Note_on_c, 0, 69, 100
2, 10942560, Note_on_c, 0, 69, 0
2, 10942560, Note_on_c, 0, 67, 100
2, 10942920, Note_on_c, 0, 67, 0
2, 10942920, Note_on_c, 0, 66, 100
2, 10943040, Note_on_c, 0, 66, 0
2, 10943040, Note_on_c, 0, 67, 100
2, 10943120, Note_on_c, 0, 67, 0
2, 10943120, Note_on_c, 0, 66, 100
2, 10943200, Note_on_c, 0, 66, 0
2, 10943200, Note_on_c, 0, 61, 100
2, 10943280, Note_on_c, 0, 61, 0
2, 10943280, Note_on_c, 0, 62, 100
2, 10943360, Note_on_c, 0, 62, 0
2, 10943360, Note_on_c, 0, 64, 100
2, 10943440, Note_on_c, 0, 64, 0
2, 10943440, Note_on_c, 0, 66, 100
2, 10943520, Note_on_c, 0, 66, 0
2, 10943520, Note_on_c, 0, 64, 100
2, 10943600, Note_on_c, 0, 64, 0
2, 10943600, Note_on_c, 0, 66, 100
2, 10943680, Note_on_c, 0, 66, 0
2, 10943680, Note_on_c, 0, 67, 100
2, 10943760, Note_on_c, 0, 67, 0
2, 10943760, Note_on_c, 0, 66, 100
2, 10943840, Note_on_c, 0, 66, 0
2, 10943840, Note_on_c, 0, 67, 100
2, 10943920, Note_on_c, 0, 67, 0
2, 10943920, Note_on_c, 0, 69, 100
2, 10944000, Note_on_c, 0, 69, 0
2, 10944000, Note_on_c, 0, 67, 100
2, 10944080, Note_on_c, 0, 67, 0
2, 10944080, Note_on_c, 0, 69, 100
2, 10944160, Note_on_c, 0, 69, 0
2, 10944160, Note_on_c, 0, 71, 100
2, 10944240, Note_on_c, 0, 71, 0
2, 10944240, Note_on_c, 0, 67, 100
2, 10944320, Note_on_c, 0, 67, 0
2, 10944320, Note_on_c, 0, 69, 100
2, 10944400, Note_on_c, 0, 69, 0
2, 10944400, Note_on_c, 0, 71, 100
2, 10944480, Note_on_c, 0, 71, 0
2, 10944480, Note_on_c, 0, 72, 100
2, 10944560, Note_on_c, 0, 72, 0
2, 10944560, Note_on_c, 0, 71, 100
2, 10944640, Note_on_c, 0, 71, 0
2, 10944640, Note_on_c, 0, 66, 100
2, 10944720, Note_on_c, 0, 66, 0
2, 10944720, Note_on_c, 0, 67, 100
2, 10944800, Note_on_c, 0, 67, 0
2, 10944800, Note_on_c, 0, 69, 100
2, 10944880, Note_on_c, 0, 69, 0
2, 10944880, Note_on_c, 0, 71, 100
2, 10944960, Note_on_c, 0, 71, 0
2, 10944960, Note_on_c, 0, 69, 100
2, 10945040, Note_on_c, 0, 69, 0
2, 10945040, Note_on_c, 0, 71, 100
2, 10945120, Note_on_c, 0, 71, 0
2, 10945120, Note_on_c, 0, 72, 100
2, 10945200, Note_on_c, 0, 72, 0
2, 10945200, Note_on_c, 0, 71, 100
2, 10945280, Note_on_c, 0, 71, 0
2, 10945280, Note_on_c, 0, 72, 100
2, 10945360, Note_on_c, 0, 72, 0
2, 10945360, Note_on_c, 0, 74, 100
2, 10945440, Note_on_c, 0, 74, 0
2, 10945440, Note_on_c, 0, 72, 100
2, 10945520, Note_on_c, 0, 72, 0
2, 10945520, Note_on_c, 0, 74, 100
2, 10945600, Note_on_c, 0, 74, 0
2, 10945600, Note_on_c, 0, 76, 100
2, 10945680, Note_on_c, 0, 76, 0
2, 10945680, Note_on_c, 0, 72, 100
2, 10945760, Note_on_c, 0, 72, 0
2, 10945760, Note_on_c, 0, 74, 100
2, 10945840, Note_on_c, 0, 74, 0
2, 10945840, Note_on_c, 0, 76, 100
2, 10945920, Note_on_c, 0, 76, 0
2, 10945920, Note_on_c, 0, 77, 100
2, 10946000, Note_on_c, 0, 77, 0
2, 10946000, Note_on_c, 0, 76, 100
2, 10946080, Note_on_c, 0, 76, 0
2, 10946080, Note_on_c, 0, 71, 100
2, 10946160, Note_on_c, 0, 71, 0
2, 10946160, Note_on_c, 0, 72, 100
2, 10946240, Note_on_c, 0, 72, 0
2, 10946240, Note_on_c, 0, 74, 100
2, 10946320, Note_on_c, 0, 74, 0
2, 10946320, Note_on_c, 0, 76, 100
2, 10946400, Note_on_c, 0, 76, 0
2, 10946400, Note_on_c, 0, 74, 100
2, 10946480, Note_on_c, 0, 74, 0
2, 10946480, Note_on_c, 0, 76, 100
2, 10946560, Note_on_c, 0, 76, 0
2, 10946560, Note_on_c, 0, 78, 100
2, 10946640, Note_on_c, 0, 78, 0
2, 10946640, Note_on_c, 0, 76, 100
2, 10946720, Note_on_c, 0, 76, 0
2, 10946720, Note_on_c, 0, 78, 100
2, 10946800, Note_on_c, 0, 78, 0
2, 10946800, Note_on_c, 0, 79, 100
2, 10946880, Note_on_c, 0, 79, 0
2, 10946880, Note_on_c, 0, 78, 100
2, 10946960, Note_on_c, 0, 78, 0
2, 10946960, Note_on_c, 0, 79, 100
2, 10947040, Note_on_c, 0, 79, 0
2, 10947040, Note_on_c, 0, 81, 100
2, 10947120, Note_on_c, 0, 81, 0
2, 10947120, Note_on_c, 0, 78, 100
2, 10947200, Note_on_c, 0, 78, 0
2, 10947200, Note_on_c, 0, 79, 100
2, 10947280, Note_on_c, 0, 79, 0
2, 10947280, Note_on_c, 0, 81, 100
2, 10947360, Note_on_c, 0, 81, 0
2, 10947360, Note_on_c, 0, 83, 100
2, 10947440, Note_on_c, 0, 83, 0
2, 10947440, Note_on_c, 0, 81, 100
2, 10947520, Note_on_c, 0, 81, 0
2, 10947520, Note_on_c, 0, 78, 100
2, 10947600, Note_on_c, 0, 78, 0
2, 10947600, Note_on_c, 0, 79, 100
2, 10947680, Note_on_c, 0, 79, 0
2, 10947680, Note_on_c, 0, 81, 100
2, 10947760, Note_on_c, 0, 81, 0
2, 10947760, Note_on_c, 0, 83, 100
2, 10947840, Note_on_c, 0, 83, 0
2, 10947840, Note_on_c, 0, 81, 100
2, 10947920, Note_on_c, 0, 81, 0
2, 10947920, Note_on_c, 0, 83, 100
2, 10948000, Note_on_c, 0, 83, 0
2, 10948000, Note_on_c, 0, 86, 100
2, 10948080, Note_on_c, 0, 86, 0
2, 10948080, Note_on_c, 0, 84, 100
2, 10948160, Note_on_c, 0, 84, 0
2, 10948160, Note_on_c, 0, 83, 100
2, 10948240, Note_on_c, 0, 83, 0
2, 10948240, Note_on_c, 0, 81, 100
2, 10948320, Note_on_c, 0, 81, 0
2, 10948320, Note_on_c, 0, 79, 100
2, 10948400, Note_on_c, 0, 79, 0
2, 10948400, Note_on_c, 0, 78, 100
2, 10948480, Note_on_c, 0, 78, 0
2, 10948480, Note_on_c, 0, 76, 100
2, 10948560, Note_on_c, 0, 76, 0
2, 10948560, Note_on_c, 0, 74, 100
2, 10948640, Note_on_c, 0, 74, 0
2, 10948640, Note_on_c, 0, 72, 100
2, 10948720, Note_on_c, 0, 72, 0
2, 10948720, Note_on_c, 0, 71, 100
2, 10948800, Note_on_c, 0, 71, 0
2, 10948800, Note_on_c, 0, 69, 100
2, 10948880, Note_on_c, 0, 69, 0
2, 10948880, Note_on_c, 0, 67, 100
2, 10948960, Note_on_c, 0, 67, 0
2, 10948960, Note_on_c, 0, 66, 100
2, 10949040, Note_on_c, 0, 66, 0
2, 10949040, Note_on_c, 0, 67, 100
2, 10949120, Note_on_c, 0, 67, 0
2, 10949120, Note_on_c, 0, 62, 100
2, 10949200, Note_on_c, 0, 62, 0
2, 10949200, Note_on_c, 0, 59, 100
2, 10949280, Note_on_c, 0, 59, 0
2, 10949280, Note_on_c, 0, 66, 100
2, 10950240, Note_on_c, 0, 66, 0
2, 10950240, Note_on_c, 0, 64, 100
2, 10950720, Note_on_c, 0, 64, 0
2, 10950720, Note_on_c, 0, 66, 100
2, 10950780, Note_on_c, 0, 66, 0
2, 10950780, Note_on_c, 0, 62, 100
2, 10951440, Note_on_c, 0, 62, 0
2, 10951440, Note_on_c, 0, 67, 100
2, 10951680, Note_on_c, 0, 67, 0
2, 10951680, Note_on_c, 0, 69, 100
2, 10952160, Note_on_c, 0, 69, 0
2, 10952160, Note_on_c, 0, 71, 100
2, 10952220, Note_on_c, 0, 71, 0
2, 10952220, Note_on_c, 0, 79, 100
2, 10952880, Note_on_c, 0, 79, 0
2, 10952880, Note_on_c, 0, 76, 100
2, 10953120, Note_on_c, 0, 76, 0
2, 10953120, Note_on_c, 0, 83, 100
2, 10953600, Note_on_c, 0, 83, 0
2, 10953600, Note_on_c, 0, 81, 100
2, 10954560, Note_on_c, 0, 81, 0
2, 10954560, Note_on_c, 0, 78, 100
2, 10954920, Note_on_c, 0, 78, 0
2, 10954920, Note_on_c, 0, 76, 100
2, 10955040, Note_on_c, 0, 76, 0
2, 10955040, Note_on_c, 0, 75, 100
2, 10955100, Note_on_c, 0, 75, 0
2, 10955100, Note_on_c, 0, 78, 100
2, 10955760, Note_on_c, 0, 78, 0
2, 10955760, Note_on_c, 0, 79, 100
2, 10956000, Note_on_c, 0, 79, 0
2, 10956000, Note_on_c, 0, 78, 100
2, 10956480, Note_on_c, 0, 78, 0
2, 10956480, Note_on_c, 0, 76, 100
2, 10956540, Note_on_c, 0, 76, 0
2, 10956540, Note_on_c, 0, 79, 100
2, 10957440, Note_on_c, 0, 79, 0
2, 10957440, Note_on_c, 0, 77, 100
2, 10957920, Note_on_c, 0, 77, 0
2, 10957920, Note_on_c, 0, 81, 100
2, 10958880, Note_on_c, 0, 81, 0
2, 10958880, Note_on_c, 0, 78, 100
2, 10959360, Note_on_c, 0, 78, 0
2, 10959360, Note_on_c, 0, 75, 100
2, 10959420, Note_on_c, 0, 75, 0
2, 10959420, Note_on_c, 0, 78, 100
2, 10960320, Note_on_c, 0, 78, 0
2, 10960320, Note_on_c, 0, 75, 100
2, 10960680, Note_on_c, 0, 75, 0
2, 10960680, Note_on_c, 0, 76, 100
2, 10960800, Note_on_c, 0, 76, 0
2, 10960800, Note_on_c, 0, 75, 100
2, 10960860, Note_on_c, 0, 75, 0
2, 10960860, Note_on_c, 0, 76, 100
2, 10960920, Note_on_c, 0, 76, 0
2, 10960920, Note_on_c, 0, 68, 100
2, 10962120, Note_on_c, 0, 68, 0
2, 10962120, Note_on_c, 0, 69, 100
2, 10962240, Note_on_c, 0, 69, 0
2, 10962240, Note_on_c, 0, 71, 100
2, 10962600, Note_on_c, 0, 71, 0
2, 10962600, Note_on_c, 0, 72, 100
2, 10962720, Note_on_c, 0, 72, 0
2, 10962720, Note_on_c, 0, 66, 100
2, 10963560, Note_on_c, 0, 66, 0
2, 10963560, Note_on_c, 0, 67, 100
2, 10963680, Note_on_c, 0, 67, 0
2, 10963680, Note_on_c, 0, 69, 100
2, 10964040, Note_on_c, 0, 69, 0
2, 10964040, Note_on_c, 0, 71, 100
2, 10964160, Note_on_c, 0, 71, 0
2, 10964160, Note_on_c, 0, 64, 100
2, 10965000, Note_on_c, 0, 64, 0
2, 10965000, Note_on_c, 0, 66, 100
2, 10965120, Note_on_c, 0, 66, 0
2, 10965120, Note_on_c, 0, 67, 100
2, 10965480, Note_on_c, 0, 67, 0
2, 10965480, Note_on_c, 0, 69, 100
2, 10965600, Note_on_c, 0, 69, 0
2, 10965600, Note_on_c, 0, 67, 100
2, 10965960, Note_on_c, 0, 67, 0
2, 10965960, Note_on_c, 0, 66, 100
2, 10966080, Note_on_c, 0, 66, 0
2, 10966080, Note_on_c, 0, 67, 100
2, 10966160, Note_on_c, 0, 67, 0
2, 10966160, Note_on_c, 0, 66, 100
2, 10966240, Note_on_c, 0, 66, 0
2, 10966240, Note_on_c, 0, 61, 100
2, 10966320, Note_on_c, 0, 61, 0
2, 10966320, Note_on_c, 0, 62, 100
2, 10966400, Note_on_c, 0, 62, 0
2, 10966400, Note_on_c, 0, 64, 100
2, 10966480, Note_on_c, 0, 64, 0
2, 10966480, Note_on_c, 0, 66, 100
2, 10966560, Note_on_c, 0, 66, 0
2, 10966560, Note_on_c, 0, 64, 100
2, 10966640, Note_on_c, 0, 64, 0
2, 10966640, Note_on_c, 0, 66, 100
2, 10966720, Note_on_c, 0, 66, 0
2, 10966720, Note_on_c, 0, 67, 100
2, 10966800, Note_on_c, 0, 67, 0
2, 10966800, Note_on_c, 0, 66, 100
2, 10966880, Note_on_c, 0, 66, 0
2, 10966880, Note_on_c, 0, 67, 100
2, 10966960, Note_on_c, 0, 67, 0
2, 10966960, Note_on_c, 0, 69, 100
2, 10967040, Note_on_c, 0, 69, 0
2, 10967040, Note_on_c, 0, 67, 100
2, 10967120, Note_on_c, 0, 67, 0
2, 10967120, Note_on_c, 0, 69, 100
2, 10967200, Note_on_c, 0, 69, 0
2, 10967200, Note_on_c, 0, 71, 100
2, 10967280, Note_on_c, 0, 71, 0
2, 10967280, Note_on_c, 0, 67, 100
2, 10967360, Note_on_c, 0, 67, 0
2, 10967360, Note_on_c, 0, 69, 100
2, 10967440, Note_on_c, 0, 69, 0
2, 10967440, Note_on_c, 0, 71, 100
2, 10967520, Note_on_c, 0, 71, 0
2, 10967520, Note_on_c, 0, 72, 100
2, 10967600, Note_on_c, 0, 72, 0
2, 10967600, Note_on_c, 0, 71, 100
2, 10967680, Note_on_c, 0, 71, 0
2, 10967680, Note_on_c, 0, 66, 100
2, 10967760, Note_on_c, 0, 66, 0
2, 10967760, Note_on_c, 0, 67, 100
2, 10967840, Note_on_c, 0, 67, 0
2, 10967840, Note_on_c, 0, 69, 100
2, 10967920, Note_on_c, 0, 69, 0
2, 10967920, Note_on_c, 0, 71, 100
2, 10968000, Note_on_c, 0, 71, 0
2, 10968000, Note_on_c, 0, 69, 100
2, 10968080, Note_on_c, 0, 69, 0
2, 10968080, Note_on_c, 0, 71, 100
2, 10968160, Note_on_c, 0, 71, 0
2, 10968160, Note_on_c, 0, 72, 100
2, 10968240, Note_on_c, 0, 72, 0
2, 10968240, Note_on_c, 0, 71, 100
2, 10968320, Note_on_c, 0, 71, 0
2, 10968320, Note_on_c, 0, 72, 100
2, 10968400, Note_on_c, 0, 72, 0
2, 10968400, Note_on_c, 0, 74, 100
2, 10968480, Note_on_c, 0, 74, 0
2, 10968480, Note_on_c, 0, 72, 100
2, 10968560, Note_on_c, 0, 72, 0
2, 10968560, Note_on_c, 0, 74, 100
2, 10968640, Note_on_c, 0, 74, 0
2, 10968640, Note_on_c, 0, 76, 100
2, 10968720, Note_on_c, 0, 76, 0
2, 10968720, Note_on_c, 0, 72, 100
2, 10968800, Note_on_c, 0, 72, 0
2, 10968800, Note_on_c, 0, 74, 100
2, 10968880, Note_on_c, 0, 74, 0
2, 10968880, Note_on_c, 0, 76, 100
2, 10968960, Note_on_c, 0, 76, 0
2, 10968960, Note_on_c, 0, 77, 100
2, 10969040, Note_on_c, 0, 77, 0
2, 10969040, Note_on_c, 0, 76, 100
2, 10969120, Note_on_c, 0, 76, 0
2, 10969120, Note_on_c, 0, 71, 100
2, 10969200, Note_on_c, 0, 71, 0
2, 10969200, Note_on_c, 0, 72, 100
2, 10969280, Note_on_c, 0, 72, 0
2, 10969280, Note_on_c, 0, 74, 100
2, 10969360, Note_on_c, 0, 74, 0
2, 10969360, Note_on_c, 0, 76, 100
2, 10969440, Note_on_c, 0, 76, 0
2, 10969440, Note_on_c, 0, 74, 100
2, 10969520, Note_on_c, 0, 74, 0
2, 10969520, Note_on_c, 0, 76, 100
2, 10969600, Note_on_c, 0, 76, 0
2, 10969600, Note_on_c, 0, 78, 100
2, 10969680, Note_on_c, 0, 78, 0
2, 10969680, Note_on_c, 0, 76, 100
2, 10969760, Note_on_c, 0, 76, 0
2, 10969760, Note_on_c, 0, 78, 100
2, 10969840, Note_on_c, 0, 78, 0
2, 10969840, Note_on_c, 0, 79, 100
2, 10969920, Note_on_c, 0, 79, 0
2, 10969920, Note_on_c, 0, 78, 100
2, 10970000, Note_on_c, 0, 78, 0
2, 10970000, Note_on_c, 0, 79, 100
2, 10970080, Note_on_c, 0, 79, 0
2, 10970080, Note_on_c, 0, 81, 100
2, 10970160, Note_on_c, 0, 81, 0
2, 10970160, Note_on_c, 0, 78, 100
2, 10970240, Note_on_c, 0, 78, 0
2, 10970240, Note_on_c, 0, 79, 100
2, 10970320, Note_on_c, 0, 79, 0
2, 10970320, Note_on_c, 0, 81, 100
2, 10970400, Note_on_c, 0, 81, 0
2, 10970400, Note_on_c, 0, 83, 100
2, 10970480, Note_on_c, 0, 83, 0
2, 10970480, Note_on_c, 0, 81, 100
2, 10970560, Note_on_c, 0, 81, 0
2, 10970560, Note_on_c, 0, 78, 100
2, 10970640, Note_on_c, 0, 78, 0
2, 10970640, Note_on_c, 0, 79, 100
2, 10970720, Note_on_c, 0, 79, 0
2, 10970720, Note_on_c, 0, 81, 100
2, 10970800, Note_on_c, 0, 81, 0
2, 10970800, Note_on_c, 0, 83, 100
2, 10970880, Note_on_c, 0, 83, 0
2, 10970880, Note_on_c, 0, 81, 100
2, 10970960, Note_on_c, 0, 81, 0
2, 10970960, Note_on_c, 0, 83, 100
2, 10971040, Note_on_c, 0, 83, 0
2, 10971040, Note_on_c, 0, 86, 100
2, 10971120, Note_on_c, 0, 86, 0
2, 10971120, Note_on_c, 0, 84, 100
2, 10971200, Note_on_c, 0, 84, 0
2, 10971200, Note_on_c, 0, 83, 100
2, 10971280, Note_on_c, 0, 83, 0
2, 10971280, Note_on_c, 0, 81, 100
2, 10971360, Note_on_c, 0, 81, 0
2, 10971360, Note_on_c, 0, 79, 100
2, 10971440, Note_on_c, 0, 79, 0
2, 10971440, Note_on_c, 0, 78, 100
2, 10971520, Note_on_c, 0, 78, 0
2, 10971520, Note_on_c, 0, 76, 100
2, 10971600, Note_on_c, 0, 76, 0
2, 10971600, Note_on_c, 0, 74, 100
2, 10971680, Note_on_c, 0, 74, 0
2, 10971680, Note_on_c, 0, 72, 100
2, 10971760, Note_on_c, 0, 72, 0
2, 10971760, Note_on_c, 0, 71, 100
2, 10971840, Note_on_c, 0, 71, 0
2, 10971840, Note_on_c, 0, 69, 100
2, 10971920, Note_on_c, 0, 69, 0
2, 10971920, Note_on_c, 0, 67, 100
2, 10972000, Note_on_c, 0, 67, 0
2, 10972000, Note_on_c, 0, 66, 100
2, 10972080, Note_on_c, 0, 66, 0
2, 10972080, Note_on_c, 0, 67, 100
2, 10972160, Note_on_c, 0, 67, 0
2, 10972160, Note_on_c, 0, 62, 100
2, 10972240, Note_on_c, 0, 62, 0
2, 10972240, Note_on_c, 0, 59, 100
2, 10972320, Note_on_c, 0, 59, 0
2, 10972320, Note_on_c, 0, 64, 100
2, 11457480, Note_on_c, 0, 64, 0
2, 11457480, Note_on_c, 0, 62, 100
2, 11457600, Note_on_c, 0, 62, 0
2, 11457600, Note_on_c, 0, 60, 100
2, 11457720, Note_on_c, 0, 60, 0
2, 11457720, Note_on_c, 0, 59, 100
2, 11457840, Note_on_c, 0, 59, 0
2, 11457840, Note_on_c, 0, 58, 100
2, 11458080, Note_on_c, 0, 58, 0
2, 11458080, Note_on_c, 0, 57, 100
2, 11458320, Note_on_c, 0, 57, 0
2, 11458320, Note_on_c, 0, 62, 100
2, 11458560, Note_on_c, 0, 62, 0
2, 11458560, Note_on_c, 0, 61, 100
2, 11458800, Note_on_c, 0, 61, 0
2, 11458800, Note_on_c, 0, 60, 100
2, 11459040, Note_on_c, 0, 60, 0
2, 11459040, Note_on_c, 0, 59, 100
2, 11459280, Note_on_c, 0, 59, 0
2, 11459280, Note_on_c, 0, 62, 100
2, 11459880, Note_on_c, 0, 62, 0
2, 11459880, Note_on_c, 0, 64, 100
2, 11460000, Note_on_c, 0, 64, 0
2, 11460000, Note_on_c, 0, 65, 100
2, 11460120, Note_on_c, 0, 65, 0
2, 11460120, Note_on_c, 0, 64, 100
2, 11460240, Note_on_c, 0, 64, 0
2, 11460240, Note_on_c, 0, 60, 100
2, 11460360, Note_on_c, 0, 60, 0
2, 11460360, Note_on_c, 0, 57, 100
2, 11460480, Note_on_c, 0, 57, 0
2, 11460480, Note_on_c, 0, 59, 100
2, 11460840, Note_on_c, 0, 59, 0
2, 11460840, Note_on_c, 0, 60, 100
2, 11460900, Note_on_c, 0, 60, 0
2, 11460900, Note_on_c, 0, 59, 100
2, 11460960, Note_on_c, 0, 59, 0
2, 11460960, Note_on_c, 0, 57, 100
2, 11461080, Note_on_c, 0, 57, 0
2, 11461080, Note_on_c, 0, 55, 100
2, 11461200, Note_on_c, 0, 55, 0
2, 11461200, Note_on_c, 0, 64, 100
2, 11461320, Note_on_c, 0, 64, 0
2, 11461320, Note_on_c, 0, 62, 100
2, 11461440, Note_on_c, 0, 62, 0
2, 11461440, Note_on_c, 0, 60, 100
2, 11461560, Note_on_c, 0, 60, 0
2, 11461560, Note_on_c, 0, 59, 100
2, 11461680, Note_on_c, 0, 59, 0
2, 11461680, Note_on_c, 0, 58, 100
2, 11461920, Note_on_c, 0, 58, 0
2, 11461920, Note_on_c, 0, 57, 100
2, 11462160, Note_on_c, 0, 57, 0
2, 11462160, Note_on_c, 0, 62, 100
2, 11462400, Note_on_c, 0, 62, 0
2, 11462400, Note_on_c, 0, 61, 100
2, 11462640, Note_on_c, 0, 61, 0
2, 11462640, Note_on_c, 0, 60, 100
2, 11462880, Note_on_c, 0, 60, 0
2, 11462880, Note_on_c, 0, 59, 100
2, 11463120, Note_on_c, 0, 59, 0
2, 11463120, Note_on_c, 0, 62, 100
2, 11463720, Note_on_c, 0, 62, 0
2, 11463720, Note_on_c, 0, 64, 100
2, 11463840, Note_on_c, 0, 64, 0
2, 11463840, Note_on_c, 0, 65, 100
2, 11463960, Note_on_c, 0, 65, 0
2, 11463960, Note_on_c, 0, 64, 100
2, 11464080, Note_on_c, 0, 64, 0
2, 11464080, Note_on_c, 0, 60, 100
2, 11464200, Note_on_c, 0, 60, 0
2, 11464200, Note_on_c, 0, 57, 100
2, 11464320, Note_on_c, 0, 57, 0
2, 11464320, Note_on_c, 0, 59, 100
2, 11464680, Note_on_c, 0, 59, 0
2, 11464680, Note_on_c, 0, 60, 100
2, 11464740, Note_on_c, 0, 60, 0
2, 11464740, Note_on_c, 0, 59, 100
2, 11464800, Note_on_c, 0, 59, 0
2, 11464800, Note_on_c, 0, 57, 100
2, 11464920, Note_on_c, 0, 57, 0
2, 11464920, Note_on_c, 0, 55, 100
2, 11465040, Note_on_c, 0, 55, 0
2, 11465040, Note_on_c, 0, 64, 100
2, 11465160, Note_on_c, 0, 64, 0
2, 11465160, Note_on_c, 0, 62, 100
2, 11465280, Note_on_c, 0, 62, 0
2, 11465280, Note_on_c, 0, 60, 100
2, 11465400, Note_on_c, 0, 60, 0
2, 11465400, Note_on_c, 0, 59, 100
2, 11465520, Note_on_c, 0, 59, 0
2, 11465520, Note_on_c, 0, 58, 100
2, 11465760, Note_on_c, 0, 58, 0
2, 11465760, Note_on_c, 0, 57, 100
2, 11466000, Note_on_c, 0, 57, 0
2, 11466000, Note_on_c, 0, 62, 100
2, 11466240, Note_on_c, 0, 62, 0
2, 11466240, Note_on_c, 0, 61, 100
2, 11466480, Note_on_c, 0, 61, 0
2, 11466480, Note_on_c, 0, 60, 100
2, 11466720, Note_on_c, 0, 60, 0
2, 11466720, Note_on_c, 0, 59, 100
2, 11466960, Note_on_c, 0, 59, 0
2, 11466960, Note_on_c, 0, 62, 100
2, 11467560, Note_on_c, 0, 62, 0
2, 11467560, Note_on_c, 0, 64, 100
2, 11467680, Note_on_c, 0, 64, 0
2, 11467680, Note_on_c, 0, 65, 100
2, 11467800, Note_on_c, 0, 65, 0
2, 11467800, Note_on_c, 0, 64, 100
2, 11467920, Note_on_c, 0, 64, 0
2, 11467920, Note_on_c, 0, 60, 100
2, 11468040, Note_on_c, 0, 60, 0
2, 11468040, Note_on_c, 0, 57, 100
2, 11468160, Note_on_c, 0, 57, 0
2, 11468160, Note_on_c, 0, 59, 100
2, 11468520, Note_on_c, 0, 59, 0
2, 11468520, Note_on_c, 0, 60, 100
2, 11468580, Note_on_c, 0, 60, 0
2, 11468580, Note_on_c, 0, 59, 100
2, 11468640, Note_on_c, 0, 59, 0
2, 11468640, Note_on_c, 0, 57, 100
2, 11468760, Note_on_c, 0, 57, 0
2, 11468760, Note_on_c, 0, 55, 100
2, 11468880, Note_on_c, 0, 55, 0
2, 11468880, Note_on_c, 0, 62, 100
2, 11469960, Note_on_c, 0, 62, 0
2, 11469960, Note_on_c, 0, 64, 100
2, 11470080, Note_on_c, 0, 64, 0
2, 11470080, Note_on_c, 0, 66, 100
2, 11470200, Note_on_c, 0, 66, 0
2, 11470200, Note_on_c, 0, 67, 100
2, 11470320, Note_on_c, 0, 67, 0
2, 11470320, Note_on_c, 0, 71, 100
2, 11470440, Note_on_c, 0, 71, 0
2, 11470440, Note_on_c, 0, 69, 100
2, 11470560, Note_on_c, 0, 69, 0
2, 11470560, Note_on_c, 0, 67, 100
2, 11470680, Note_on_c, 0, 67, 0
2, 11470680, Note_on_c, 0, 74, 100
2, 11470800, Note_on_c, 0, 74, 0
2, 11470800, Note_on_c, 0, 76, 100
2, 11471400, Note_on_c, 0, 76, 0
2, 11471400, Note_on_c, 0, 74, 100
2, 11471520, Note_on_c, 0, 74, 0
2, 11471520, Note_on_c, 0, 73, 100
2, 11471640, Note_on_c, 0, 73, 0
2, 11471640, Note_on_c, 0, 74, 100
2, 11471760, Note_on_c, 0, 74, 0
2, 11471760, Note_on_c, 0, 59, 100
2, 11472360, Note_on_c, 0, 59, 0
2, 11472360, Note_on_c, 0, 60, 100
2, 11472480, Note_on_c, 0, 60, 0
2, 11472480, Note_on_c, 0, 62, 100
2, 11472600, Note_on_c, 0, 62, 0
2, 11472600, Note_on_c, 0, 64, 100
2, 11472720, Note_on_c, 0, 64, 0
2, 11472720, Note_on_c, 0, 67, 100
2, 11472840, Note_on_c, 0, 67, 0
2, 11472840, Note_on_c, 0, 66, 100
2, 11472960, Note_on_c, 0, 66, 0
2, 11472960, Note_on_c, 0, 64, 100
2, 11473080, Note_on_c, 0, 64, 0
2, 11473080, Note_on_c, 0, 71, 100
2, 11473200, Note_on_c, 0, 71, 0
2, 11473200, Note_on_c, 0, 69, 100
2, 11473440, Note_on_c, 0, 69, 0
2, 11473440, Note_on_c, 0, 67, 100
2, 11473680, Note_on_c, 0, 67, 0
2, 11473680, Note_on_c, 0, 62, 100
2, 11473800, Note_on_c, 0, 62, 0
2, 11473800, Note_on_c, 0, 64, 100
2, 11473920, Note_on_c, 0, 64, 0
2, 11473920, Note_on_c, 0, 66, 100
2, 11474040, Note_on_c, 0, 66, 0
2, 11474040, Note_on_c, 0, 67, 100
2, 11474160, Note_on_c, 0, 67, 0
2, 11474160, Note_on_c, 0, 71, 100
2, 11474280, Note_on_c, 0, 71, 0
2, 11474280, Note_on_c, 0, 69, 100
2, 11474400, Note_on_c, 0, 69, 0
2, 11474400, Note_on_c, 0, 67, 100
2, 11474520, Note_on_c, 0, 67, 0
2, 11474520, Note_on_c, 0, 74, 100
2, 11474640, Note_on_c, 0, 74, 0
2, 11474640, Note_on_c, 0, 76, 100
2, 11475240, Note_on_c, 0, 76, 0
2, 11475240, Note_on_c, 0, 74, 100
2, 11475360, Note_on_c, 0, 74, 0
2, 11475360, Note_on_c, 0, 73, 100
2, 11475480, Note_on_c, 0, 73, 0
2, 11475480, Note_on_c, 0, 74, 100
2, 11475600, Note_on_c, 0, 74, 0
2, 11475600, Note_on_c, 0, 59, 100
2, 11476200, Note_on_c, 0, 59, 0
2, 11476200, Note_on_c, 0, 60, 100
2, 11476320, Note_on_c, 0, 60, 0
2, 11476320, Note_on_c, 0, 62, 100
2, 11476440, Note_on_c, 0, 62, 0
2, 11476440, Note_on_c, 0, 64, 100
2, 11476560, Note_on_c, 0, 64, 0
2, 11476560, Note_on_c, 0, 67, 100
2, 11476680, Note_on_c, 0, 67, 0
2, 11476680, Note_on_c, 0, 66, 100
2, 11476800, Note_on_c, 0, 66, 0
2, 11476800, Note_on_c, 0, 64, 100
2, 11476920, Note_on_c, 0, 64, 0
2, 11476920, Note_on_c, 0, 71, 100
2, 11477040, Note_on_c, 0, 71, 0
2, 11477040, Note_on_c, 0, 69, 100
2, 11477280, Note_on_c, 0, 69, 0
2, 11477280, Note_on_c, 0, 67, 100
2, 11477520, Note_on_c, 0, 67, 0
2, 11477520, Note_on_c, 0, 62, 100
2, 11477640, Note_on_c, 0, 62, 0
2, 11477640, Note_on_c, 0, 64, 100
2, 11477760, Note_on_c, 0, 64, 0
2, 11477760, Note_on_c, 0, 66, 100
2, 11477880, Note_on_c, 0, 66, 0
2, 11477880, Note_on_c, 0, 67, 100
2, 11478000, Note_on_c, 0, 67, 0
2, 11478000, Note_on_c, 0, 71, 100
2, 11478120, Note_on_c, 0, 71, 0
2, 11478120, Note_on_c, 0, 69, 100
2, 11478240, Note_on_c, 0, 69, 0
2, 11478240, Note_on_c, 0, 67, 100
2, 11478360, Note_on_c, 0, 67, 0
2, 11478360, Note_on_c, 0, 62, 100
2, 11478480, Note_on_c, 0, 62, 0
2, 11478480, Note_on_c, 0, 59, 100
2, 11478600, Note_on_c, 0, 59, 0
2, 11478600, Note_on_c, 0, 60, 100
2, 11478720, Note_on_c, 0, 60, 0
2, 11478720, Note_on_c, 0, 62, 100
2, 11478840, Note_on_c, 0, 62, 0
2, 11478840, Note_on_c, 0, 55, 100
2, 11478960, Note_on_c, 0, 55, 0
2, 11478960, Note_on_c, 0, 54, 100
2, 11479560, Note_on_c, 0, 54, 0
2, 11479560, Note_on_c, 0, 55, 100
2, 11479680, Note_on_c, 0, 55, 0
2, 11479680, Note_on_c, 0, 57, 100
2, 11479800, Note_on_c, 0, 57, 0
2, 11479800, Note_on_c, 0, 55, 100
2, 11479920, Note_on_c, 0, 55, 0
2, 11479920, Note_on_c, 0, 71, 100
2, 11480520, Note_on_c, 0, 71, 0
2, 11480520, Note_on_c, 0, 69, 100
2, 11480640, Note_on_c, 0, 69, 0
2, 11480640, Note_on_c, 0, 67, 100
2, 11480760, Note_on_c, 0, 67, 0
2, 11480760, Note_on_c, 0, 66, 100
2, 11480880, Note_on_c, 0, 66, 0
2, 11480880, Note_on_c, 0, 62, 100
2, 11481000, Note_on_c, 0, 62, 0
2, 11481000, Note_on_c, 0, 64, 100
2, 11481120, Note_on_c, 0, 64, 0
2, 11481120, Note_on_c, 0, 66, 100
2, 11481240, Note_on_c, 0, 66, 0
2, 11481240, Note_on_c, 0, 59, 100
2, 11481360, Note_on_c, 0, 59, 0
2, 11481360, Note_on_c, 0, 67, 100
2, 11482800, Note_on_c, 0, 67, 0
2, 11482800, Note_on_c, 0, 66, 100
2, 11483280, Note_on_c, 0, 66, 0
2, 11483280, Note_on_c, 0, 64, 100
2, 11483760, Note_on_c, 0, 64, 0
2, 11483760, Note_on_c, 0, 62, 100
2, 11484240, Note_on_c, 0, 62, 0
2, 11484240, Note_on_c, 0, 59, 100
2, 11484720, Note_on_c, 0, 59, 0
2, 11484720, Note_on_c, 0, 60, 100
2, 11485200, Note_on_c, 0, 60, 0
2, 11485200, Note_on_c, 0, 62, 100
2, 11485680, Note_on_c, 0, 62, 0
2, 11485680, Note_on_c, 0, 55, 100
2, 11486160, Note_on_c, 0, 55, 0
2, 11486160, Note_on_c, 0, 67, 100
2, 11486640, Note_on_c, 0, 67, 0
2, 11486640, Note_on_c, 0, 66, 100
2, 11487120, Note_on_c, 0, 66, 0
2, 11487120, Note_on_c, 0, 64, 100
2, 11487600, Note_on_c, 0, 64, 0
2, 11487600, Note_on_c, 0, 62, 100
2, 11488080, Note_on_c, 0, 62, 0
2, 11488080, Note_on_c, 0, 59, 100
2, 11488560, Note_on_c, 0, 59, 0
2, 11488560, Note_on_c, 0, 60, 100
2, 11489040, Note_on_c, 0, 60, 0
2, 11489040, Note_on_c, 0, 62, 100
2, 11489520, Note_on_c, 0, 62, 0
2, 11489520, Note_on_c, 0, 55, 100
2, 11490000, Note_on_c, 0, 55, 0
2, 11490000, Note_on_c, 0, 67, 100
2, 11490480, Note_on_c, 0, 67, 0
2, 11490480, Note_on_c, 0, 66, 100
2, 11490960, Note_on_c, 0, 66, 0
2, 11490960, Note_on_c, 0, 64, 100
2, 11491440, Note_on_c, 0, 64, 0
2, 11491440, Note_on_c, 0, 62, 100
2, 11491920, Note_on_c, 0, 62, 0
2, 11491920, Note_on_c, 0, 59, 100
2, 11492400, Note_on_c, 0, 59, 0
2, 11492400, Note_on_c, 0, 60, 100
2, 11492880, Note_on_c, 0, 60, 0
2, 11492880, Note_on_c, 0, 62, 100
2, 11493360, Note_on_c, 0, 62, 0
2, 11493360, Note_on_c, 0, 55, 100
2, 11493840, Note_on_c, 0, 55, 0
2, 11493840, Note_on_c, 0, 67, 100
2, 11494800, Note_on_c, 0, 67, 0
2, 11494800, Note_on_c, 0, 71, 100
2, 11494920, Note_on_c, 0, 71, 0
2, 11494920, Note_on_c, 0, 74, 100
2, 11495040, Note_on_c, 0, 74, 0
2, 11495040, Note_on_c, 0, 79, 100
2, 11495160, Note_on_c, 0, 79, 0
2, 11495160, Note_on_c, 0, 74, 100
2, 11495280, Note_on_c, 0, 74, 0
2, 11495280, Note_on_c, 0, 71, 100
2, 11495400, Note_on_c, 0, 71, 0
2, 11495400, Note_on_c, 0, 67, 100
2, 11495520, Note_on_c, 0, 67, 0
2, 11495520, Note_on_c, 0, 74, 100
2, 11495640, Note_on_c, 0, 74, 0
2, 11495640, Note_on_c, 0, 62, 100
2, 11495760, Note_on_c, 0, 62, 0
2, 11495760, Note_on_c, 0, 67, 100
2, 11495880, Note_on_c, 0, 67, 0
2, 11495880, Note_on_c, 0, 71, 100
2, 11496000, Note_on_c, 0, 71, 0
2, 11496000, Note_on_c, 0, 61, 100
2, 11496120, Note_on_c, 0, 61, 0
2, 11496120, Note_on_c, 0, 64, 100
2, 11496240, Note_on_c, 0, 64, 0
2, 11496240, Note_on_c, 0, 67, 100
2, 11496360, Note_on_c, 0, 67, 0
2, 11496360, Note_on_c, 0, 73, 100
2, 11496480, Note_on_c, 0, 73, 0
2, 11496480, Note_on_c, 0, 74, 100
2, 11496720, Note_on_c, 0, 74, 0
2, 11496720, Note_on_c, 0, 69, 100
2, 11496840, Note_on_c, 0, 69, 0
2, 11496840, Note_on_c, 0, 66, 100
2, 11496960, Note_on_c, 0, 66, 0
2, 11496960, Note_on_c, 0, 62, 100
2, 11497080, Note_on_c, 0, 62, 0
2, 11497080, Note_on_c, 0, 67, 100
2, 11497200, Note_on_c, 0, 67, 0
2, 11497200, Note_on_c, 0, 71, 100
2, 11497320, Note_on_c, 0, 71, 0
2, 11497320, Note_on_c, 0, 74, 100
2, 11497440, Note_on_c, 0, 74, 0
2, 11497440, Note_on_c, 0, 67, 100
2, 11497560, Note_on_c, 0, 67, 0
2, 11497560, Note_on_c, 0, 74, 100
2, 11497680, Note_on_c, 0, 74, 0
2, 11497680, Note_on_c, 0, 72, 100
2, 11497800, Note_on_c, 0, 72, 0
2, 11497800, Note_on_c, 0, 69, 100
2, 11497920, Note_on_c, 0, 69, 0
2, 11497920, Note_on_c, 0, 71, 100
2, 11498040, Note_on_c, 0, 71, 0
2, 11498040, Note_on_c, 0, 66, 100
2, 11498160, Note_on_c, 0, 66, 0
2, 11498160, Note_on_c, 0, 69, 100
2, 11498280, Note_on_c, 0, 69, 0
2, 11498280, Note_on_c, 0, 74, 100
2, 11498400, Note_on_c, 0, 74, 0
2, 11498400, Note_on_c, 0, 72, 100
2, 11498460, Note_on_c, 0, 72, 0
2, 11498460, Note_on_c, 0, 71, 100
2, 11498520, Note_on_c, 0, 71, 0
2, 11498520, Note_on_c, 0, 69, 100
2, 11498580, Note_on_c, 0, 69, 0
2, 11498580, Note_on_c, 0, 67, 100
2, 11498640, Note_on_c, 0, 67, 0
2, 11498640, Note_on_c, 0, 71, 100
2, 11498760, Note_on_c, 0, 71, 0
2, 11498760, Note_on_c, 0, 74, 100
2, 11498880, Note_on_c, 0, 74, 0
2, 11498880, Note_on_c, 0, 79, 100
2, 11499000, Note_on_c, 0, 79, 0
2, 11499000, Note_on_c, 0, 74, 100
2, 11499120, Note_on_c, 0, 74, 0
2, 11499120, Note_on_c, 0, 71, 100
2, 11499240, Note_on_c, 0, 71, 0
2, 11499240, Note_on_c, 0, 67, 100
2, 11499360, Note_on_c, 0, 67, 0
2, 11499360, Note_on_c, 0, 74, 100
2, 11499480, Note_on_c, 0, 74, 0
2, 11499480, Note_on_c, 0, 62, 100
2, 11499600, Note_on_c, 0, 62, 0
2, 11499600, Note_on_c, 0, 67, 100
2, 11499720, Note_on_c, 0, 67, 0
2, 11499720, Note_on_c, 0, 71, 100
2, 11499840, Note_on_c, 0, 71, 0
2, 11499840, Note_on_c, 0, 61, 100
2, 11499960, Note_on_c, 0, 61, 0
2, 11499960, Note_on_c, 0, 64, 100
2, 11500080, Note_on_c, 0, 64, 0
2, 11500080, Note_on_c, 0, 67, 100
2, 11500200, Note_on_c, 0, 67, 0
2, 11500200, Note_on_c, 0, 73, 100
2, 11500320, Note_on_c, 0, 73, 0
2, 11500320, Note_on_c, 0, 74, 100
2, 11500560, Note_on_c, 0, 74, 0
2, 11500560, Note_on_c, 0, 69, 100
2, 11500680, Note_on_c, 0, 69, 0
2, 11500680, Note_on_c, 0, 66, 100
2, 11500800, Note_on_c, 0, 66, 0
2, 11500800, Note_on_c, 0, 62, 100
2, 11500920, Note_on_c, 0, 62, 0
2, 11500920, Note_on_c, 0, 67, 100
2, 11501040, Note_on_c, 0, 67, 0
2, 11501040, Note_on_c, 0, 71, 100
2, 11501160, Note_on_c, 0, 71, 0
2, 11501160, Note_on_c, 0, 74, 100
2, 11501280, Note_on_c, 0, 74, 0
2, 11501280, Note_on_c, 0, 67, 100
2, 11501400, Note_on_c, 0, 67, 0
2, 11501400, Note_on_c, 0, 74, 100
2, 11501520, Note_on_c, 0, 74, 0
2, 11501520, Note_on_c, 0, 72, 100
2, 11501640, Note_on_c, 0, 72, 0
2, 11501640, Note_on_c, 0, 69, 100
2, 11501760, Note_on_c, 0, 69, 0
2, 11501760, Note_on_c, 0, 71, 100
2, 11501880, Note_on_c, 0, 71, 0
2, 11501880, Note_on_c, 0, 66, 100
2, 11502000, Note_on_c, 0, 66, 0
2, 11502000, Note_on_c, 0, 69, 100
2, 11502120, Note_on_c, 0, 69, 0
2, 11502120, Note_on_c, 0, 74, 100
2, 11502240, Note_on_c, 0, 74, 0
2, 11502240, Note_on_c, 0, 72, 100
2, 11502300, Note_on_c, 0, 72, 0
2, 11502300, Note_on_c, 0, 71, 100
2, 11502360, Note_on_c, 0, 71, 0
2, 11502360, Note_on_c, 0, 69, 100
2, 11502420, Note_on_c, 0, 69, 0
2, 11502420, Note_on_c, 0, 67, 100
2, 11502480, Note_on_c, 0, 67, 0
2, 11502480, Note_on_c, 0, 71, 100
2, 11502600, Note_on_c, 0, 71, 0
2, 11502600, Note_on_c, 0, 74, 100
2, 11502720, Note_on_c, 0, 74, 0
2, 11502720, Note_on_c, 0, 79, 100
2, 11502840, Note_on_c, 0, 79, 0
2, 11502840, Note_on_c, 0, 74, 100
2, 11502960, Note_on_c, 0, 74, 0
2, 11502960, Note_on_c, 0, 71, 100
2, 11503080, Note_on_c, 0, 71, 0
2, 11503080, Note_on_c, 0, 67, 100
2, 11503200, Note_on_c, 0, 67, 0
2, 11503200, Note_on_c, 0, 74, 100
2, 11503320, Note_on_c, 0, 74, 0
2, 11503320, Note_on_c, 0, 62, 100
2, 11503440, Note_on_c, 0, 62, 0
2, 11503440, Note_on_c, 0, 67, 100
2, 11503560, Note_on_c, 0, 67, 0
2, 11503560, Note_on_c, 0, 71, 100
2, 11503680, Note_on_c, 0, 71, 0
2, 11503680, Note_on_c, 0, 61, 100
2, 11503800, Note_on_c, 0, 61, 0
2, 11503800, Note_on_c, 0, 64, 100
2, 11503920, Note_on_c, 0, 64, 0
2, 11503920, Note_on_c, 0, 67, 100
2, 11504040, Note_on_c, 0, 67, 0
2, 11504040, Note_on_c, 0, 73, 100
2, 11504160, Note_on_c, 0, 73, 0
2, 11504160, Note_on_c, 0, 74, 100
2, 11504400, Note_on_c, 0, 74, 0
2, 11504400, Note_on_c, 0, 69, 100
2, 11504520, Note_on_c, 0, 69, 0
2, 11504520, Note_on_c, 0, 66, 100
2, 11504640, Note_on_c, 0, 66, 0
2, 11504640, Note_on_c, 0, 62, 100
2, 11504760, Note_on_c, 0, 62, 0
2, 11504760, Note_on_c, 0, 67, 100
2, 11504880, Note_on_c, 0, 67, 0
2, 11504880, Note_on_c, 0, 71, 100
2, 11505000, Note_on_c, 0, 71, 0
2, 11505000, Note_on_c, 0, 74, 100
2, 11505120, Note_on_c, 0, 74, 0
2, 11505120, Note_on_c, 0, 67, 100
2, 11505240, Note_on_c, 0, 67, 0
2, 11505240, Note_on_c, 0, 74, 100
2, 11505360, Note_on_c, 0, 74, 0
2, 11505360, Note_on_c, 0, 72, 100
2, 11505480, Note_on_c, 0, 72, 0
2, 11505480, Note_on_c, 0, 69, 100
2, 11505600, Note_on_c, 0, 69, 0
2, 11505600, Note_on_c, 0, 71, 100
2, 11505720, Note_on_c, 0, 71, 0
2, 11505720, Note_on_c, 0, 66, 100
2, 11505840, Note_on_c, 0, 66, 0
2, 11505840, Note_on_c, 0, 69, 100
2, 11505960, Note_on_c, 0, 69, 0
2, 11505960, Note_on_c, 0, 74, 100
2, 11506080, Note_on_c, 0, 74, 0
2, 11506080, Note_on_c, 0, 72, 100
2, 11506140, Note_on_c, 0, 72, 0
2, 11506140, Note_on_c, 0, 71, 100
2, 11506200, Note_on_c, 0, 71, 0
2, 11506200, Note_on_c, 0, 69, 100
2, 11506260, Note_on_c, 0, 69, 0
2, 11506260, Note_on_c, 0, 67, 100
2, 11506320, Note_on_c, 0, 67, 0
2, 11506320, Note_on_c, 0, 62, 100
2, 11522400, Note_on_c, 0, 62, 0
2, 11522400, Note_on_c, 0, 60, 100
2, 11522640, Note_on_c, 0, 60, 0
2, 11522640, Note_on_c, 0, 58, 100
2, 11522880, Note_on_c, 0, 58, 0
2, 11522880, Note_on_c, 0, 57, 100
2, 11523120, Note_on_c, 0, 57, 0
2, 11523120, Note_on_c, 0, 62, 100
2, 11523360, Note_on_c, 0, 62, 0
2, 11523360, Note_on_c, 0, 60, 100
2, 11523480, Note_on_c, 0, 60, 0
2, 11523480, Note_on_c, 0, 59, 100
2, 11523600, Note_on_c, 0, 59, 0
2, 11523600, Note_on_c, 0, 64, 100
2, 11523840, Note_on_c, 0, 64, 0
2, 11523840, Note_on_c, 0, 62, 100
2, 11524080, Note_on_c, 0, 62, 0
2, 11524080, Note_on_c, 0, 61, 100
2, 11524200, Note_on_c, 0, 61, 0
2, 11524200, Note_on_c, 0, 62, 100
2, 11524320, Note_on_c, 0, 62, 0
2, 11524320, Note_on_c, 0, 64, 100
2, 11524440, Note_on_c, 0, 64, 0
2, 11524440, Note_on_c, 0, 66, 100
2, 11524560, Note_on_c, 0, 66, 0
2, 11524560, Note_on_c, 0, 71, 100
2, 11525280, Note_on_c, 0, 71, 0
2, 11525280, Note_on_c, 0, 59, 100
2, 11525640, Note_on_c, 0, 59, 0
2, 11525640, Note_on_c, 0, 61, 100
2, 11525880, Note_on_c, 0, 61, 0
2, 11525880, Note_on_c, 0, 62, 100
2, 11526000, Note_on_c, 0, 62, 0
2, 11526000, Note_on_c, 0, 64, 100
2, 11526120, Note_on_c, 0, 64, 0
2, 11526120, Note_on_c, 0, 62, 100
2, 11526240, Note_on_c, 0, 62, 0
2, 11526240, Note_on_c, 0, 60, 100
2, 11526480, Note_on_c, 0, 60, 0
2, 11526480, Note_on_c, 0, 58, 100
2, 11526720, Note_on_c, 0, 58, 0
2, 11526720, Note_on_c, 0, 57, 100
2, 11526960, Note_on_c, 0, 57, 0
2, 11526960, Note_on_c, 0, 62, 100
2, 11527200, Note_on_c, 0, 62, 0
2, 11527200, Note_on_c, 0, 60, 100
2, 11527320, Note_on_c, 0, 60, 0
2, 11527320, Note_on_c, 0, 59, 100
2, 11527440, Note_on_c, 0, 59, 0
2, 11527440, Note_on_c, 0, 64, 100
2, 11527680, Note_on_c, 0, 64, 0
2, 11527680, Note_on_c, 0, 62, 100
2, 11527920, Note_on_c, 0, 62, 0
2, 11527920, Note_on_c, 0, 61, 100
2, 11528040, Note_on_c, 0, 61, 0
2, 11528040, Note_on_c, 0, 62, 100
2, 11528160, Note_on_c, 0, 62, 0
2, 11528160, Note_on_c, 0, 64, 100
2, 11528280, Note_on_c, 0, 64, 0
2, 11528280, Note_on_c, 0, 66, 100
2, 11528400, Note_on_c, 0, 66, 0
2, 11528400, Note_on_c, 0, 71, 100
2, 11529120, Note_on_c, 0, 71, 0
2, 11529120, Note_on_c, 0, 59, 100
2, 11529480, Note_on_c, 0, 59, 0
2, 11529480, Note_on_c, 0, 61, 100
2, 11529720, Note_on_c, 0, 61, 0
2, 11529720, Note_on_c, 0, 62, 100
2, 11529840, Note_on_c, 0, 62, 0
2, 11529840, Note_on_c, 0, 64, 100
2, 11529960, Note_on_c, 0, 64, 0
2, 11529960, Note_on_c, 0, 62, 100
2, 11530080, Note_on_c, 0, 62, 0
2, 11530080, Note_on_c, 0, 60, 100
2, 11530320, Note_on_c, 0, 60, 0
2, 11530320, Note_on_c, 0, 58, 100
2, 11530560, Note_on_c, 0, 58, 0
2, 11530560, Note_on_c, 0, 57, 100
2, 11530800, Note_on_c, 0, 57, 0
2, 11530800, Note_on_c, 0, 62, 100
2, 11531040, Note_on_c, 0, 62, 0
2, 11531040, Note_on_c, 0, 60, 100
2, 11531160, Note_on_c, 0, 60, 0
2, 11531160, Note_on_c, 0, 59, 100
2, 11531280, Note_on_c, 0, 59, 0
2, 11531280, Note_on_c, 0, 62, 100
2, 11534400, Note_on_c, 0, 62, 0
2, 11534400, Note_on_c, 0, 64, 100
2, 11534640, Note_on_c, 0, 64, 0
2, 11534640, Note_on_c, 0, 66, 100
2, 11534880, Note_on_c, 0, 66, 0
2, 11534880, Note_on_c, 0, 67, 100
2, 11535120, Note_on_c, 0, 67, 0
2, 11535120, Note_on_c, 0, 71, 100
2, 11535360, Note_on_c, 0, 71, 0
2, 11535360, Note_on_c, 0, 69, 100
2, 11535600, Note_on_c, 0, 69, 0
2, 11535600, Note_on_c, 0, 67, 100
2, 11535840, Note_on_c, 0, 67, 0
2, 11535840, Note_on_c, 0, 74, 100
2, 11536080, Note_on_c, 0, 74, 0
2, 11536080, Note_on_c, 0, 62, 100
2, 11536320, Note_on_c, 0, 62, 0
2, 11536320, Note_on_c, 0, 69, 100
2, 11536560, Note_on_c, 0, 69, 0
2, 11536560, Note_on_c, 0, 67, 100
2, 11537040, Note_on_c, 0, 67, 0
2, 11537040, Note_on_c, 0, 71, 100
2, 11538240, Note_on_c, 0, 71, 0
2, 11538240, Note_on_c, 0, 69, 100
2, 11538480, Note_on_c, 0, 69, 0
2, 11538480, Note_on_c, 0, 67, 100
2, 11538720, Note_on_c, 0, 67, 0
2, 11538720, Note_on_c, 0, 66, 100
2, 11538960, Note_on_c, 0, 66, 0
2, 11538960, Note_on_c, 0, 62, 100
2, 11539200, Note_on_c, 0, 62, 0
2, 11539200, Note_on_c, 0, 64, 100
2, 11539440, Note_on_c, 0, 64, 0
2, 11539440, Note_on_c, 0, 66, 100
2, 11539680, Note_on_c, 0, 66, 0
2, 11539680, Note_on_c, 0, 67, 100
2, 11539920, Note_on_c, 0, 67, 0
2, 11539920, Note_on_c, 0, 69, 100
2, 11540640, Note_on_c, 0, 69, 0
2, 11540640, Note_on_c, 0, 71, 100
2, 11540880, Note_on_c, 0, 71, 0
2, 11540880, Note_on_c, 0, 62, 100
2, 11542080, Note_on_c, 0, 62, 0
2, 11542080, Note_on_c, 0, 64, 100
2, 11542320, Note_on_c, 0, 64, 0
2, 11542320, Note_on_c, 0, 66, 100
2, 11542560, Note_on_c, 0, 66, 0
2, 11542560, Note_on_c, 0, 67, 100
2, 11542800, Note_on_c, 0, 67, 0
2, 11542800, Note_on_c, 0, 71, 100
2, 11543040, Note_on_c, 0, 71, 0
2, 11543040, Note_on_c, 0, 69, 100
2, 11543280, Note_on_c, 0, 69, 0
2, 11543280, Note_on_c, 0, 67, 100
2, 11543520, Note_on_c, 0, 67, 0
2, 11543520, Note_on_c, 0, 74, 100
2, 11543760, Note_on_c, 0, 74, 0
2, 11543760, Note_on_c, 0, 62, 100
2, 11544000, Note_on_c, 0, 62, 0
2, 11544000, Note_on_c, 0, 69, 100
2, 11544240, Note_on_c, 0, 69, 0
2, 11544240, Note_on_c, 0, 67, 100
2, 11544720, Note_on_c, 0, 67, 0
2, 11544720, Note_on_c, 0, 71, 100
2, 11545920, Note_on_c, 0, 71, 0
2, 11545920, Note_on_c, 0, 69, 100
2, 11546160, Note_on_c, 0, 69, 0
2, 11546160, Note_on_c, 0, 67, 100
2, 11546400, Note_on_c, 0, 67, 0
2, 11546400, Note_on_c, 0, 66, 100
2, 11546640, Note_on_c, 0, 66, 0
2, 11546640, Note_on_c, 0, 62, 100
2, 11546880, Note_on_c, 0, 62, 0
2, 11546880, Note_on_c, 0, 64, 100
2, 11547120, Note_on_c, 0, 64, 0
2, 11547120, Note_on_c, 0, 66, 100
2, 11547360, Note_on_c, 0, 66, 0
2, 11547360, Note_on_c, 0, 67, 100
2, 11547600, Note_on_c, 0, 67, 0
2, 11547600, Note_on_c, 0, 69, 100
2, 11548320, Note_on_c, 0, 69, 0
2, 11548320, Note_on_c, 0, 71, 100
2, 11548560, Note_on_c, 0, 71, 0
2, 11548560, Note_on_c, 0, 62, 100
2, 11549760, Note_on_c, 0, 62, 0
2, 11549760, Note_on_c, 0, 64, 100
2, 11550000, Note_on_c, 0, 64, 0
2, 11550000, Note_on_c, 0, 66, 100
2, 11550240, Note_on_c, 0, 66, 0
2, 11550240, Note_on_c, 0, 67, 100
2, 11550480, Note_on_c, 0, 67, 0
2, 11550480, Note_on_c, 0, 71, 100
2, 11550720, Note_on_c, 0, 71, 0
2, 11550720, Note_on_c, 0, 69, 100
2, 11550960, Note_on_c, 0, 69, 0
2, 11550960, Note_on_c, 0, 67, 100
2, 11551200, Note_on_c, 0, 67, 0
2, 11551200, Note_on_c, 0, 74, 100
2, 11551440, Note_on_c, 0, 74, 0
2, 11551440, Note_on_c, 0, 62, 100
2, 11551680, Note_on_c, 0, 62, 0
2, 11551680, Note_on_c, 0, 69, 100
2, 11551920, Note_on_c, 0, 69, 0
2, 11551920, Note_on_c, 0, 57, 100
2, 11553360, Note_on_c, 0, 57, 0
2, 11553360, Note_on_c, 0, 55, 100
2, 11554800, Note_on_c, 0, 55, 0
2, 11554800, Note_on_c, 0, 54, 100
2, 11556240, Note_on_c, 0, 54, 0
2, 11556240, Note_on_c, 0, 50, 100
2, 11557680, Note_on_c, 0, 50, 0
2, 11557680, Note_on_c, 0, 52, 100
2, 11559120, Note_on_c, 0, 52, 0
2, 11559120, Note_on_c, 0, 64, 100
2, 11563920, Note_on_c, 0, 64, 0
2, 11563920, Note_on_c, 0, 74, 100
2, 11564880, Note_on_c, 0, 74, 0
2, 11564880, Note_on_c, 0, 64, 100
2, 11566320, Note_on_c, 0, 64, 0
2, 11566320, Note_on_c, 0, 62, 100
2, 11567040, Note_on_c, 0, 62, 0
2, 11567040, Note_on_c, 0, 61, 100
2, 11567280, Note_on_c, 0, 61, 0
2, 11567280, Note_on_c, 0, 62, 100
2, 11567520, Note_on_c, 0, 62, 0
2, 11567520, Note_on_c, 0, 64, 100
2, 11567760, Note_on_c, 0, 64, 0
2, 11567760, Note_on_c, 0, 62, 100
2, 11569680, Note_on_c, 0, 62, 0
2, 11569680, Note_on_c, 0, 64, 100
2, 11571120, Note_on_c, 0, 64, 0
2, 11571120, Note_on_c, 0, 66, 100
2, 11571600, Note_on_c, 0, 66, 0
2, 11571600, Note_on_c, 0, 64, 100
2, 11572080, Note_on_c, 0, 64, 0
2, 11572080, Note_on_c, 0, 66, 100
2, 11572440, Note_on_c, 0, 66, 0
2, 11572440, Note_on_c, 0, 67, 100
2, 11572560, Note_on_c, 0, 67, 0
2, 11572560, Note_on_c, 0, 66, 100
2, 11573520, Note_on_c, 0, 66, 0
2, 11573520, Note_on_c, 0, 59, 100
2, 11574960, Note_on_c, 0, 59, 0
2, 11574960, Note_on_c, 0, 57, 100
2, 11576400, Note_on_c, 0, 57, 0
2, 11576400, Note_on_c, 0, 55, 100
2, 11577840, Note_on_c, 0, 55, 0
2, 11577840, Note_on_c, 0, 54, 100
2, 11579280, Note_on_c, 0, 54, 0
2, 11579280, Note_on_c, 0, 50, 100
2, 11580720, Note_on_c, 0, 50, 0
2, 11580720, Note_on_c, 0, 52, 100
2, 11582160, Note_on_c, 0, 52, 0
2, 11582160, Note_on_c, 0, 64, 100
2, 11586960, Note_on_c, 0, 64, 0
2, 11586960, Note_on_c, 0, 74, 100
2, 11587920, Note_on_c, 0, 74, 0
2, 11587920, Note_on_c, 0, 64, 100
2, 11589360, Note_on_c, 0, 64, 0
2, 11589360, Note_on_c, 0, 62, 100
2, 11590080, Note_on_c, 0, 62, 0
2, 11590080, Note_on_c, 0, 61, 100
2, 11590320, Note_on_c, 0, 61, 0
2, 11590320, Note_on_c, 0, 62, 100
2, 11590560, Note_on_c, 0, 62, 0
2, 11590560, Note_on_c, 0, 64, 100
2, 11590800, Note_on_c, 0, 64, 0
2, 11590800, Note_on_c, 0, 62, 100
2, 11592720, Note_on_c, 0, 62, 0
2, 11592720, Note_on_c, 0, 64, 100
2, 11594160, Note_on_c, 0, 64, 0
2, 11594160, Note_on_c, 0, 66, 100
2, 11594640, Note_on_c, 0, 66, 0
2, 11594640, Note_on_c, 0, 64, 100
2, 11595120, Note_on_c, 0, 64, 0
2, 11595120, Note_on_c, 0, 66, 100
2, 11595480, Note_on_c, 0, 66, 0
2, 11595480, Note_on_c, 0, 67, 100
2, 11595600, Note_on_c, 0, 67, 0
2, 11595600, Note_on_c, 0, 66, 100
2, 11596560, Note_on_c, 0, 66, 0
2, 11596560, Note_on_c, 0, 64, 100
2, 11597760, Note_on_c, 0, 64, 0
2, 11597760, Note_on_c, 0, 66, 100
2, 11598000, Note_on_c, 0, 66, 0
2, 11598000, Note_on_c, 0, 64, 100
2, 11598030, Note_on_c, 0, 64, 0
2, 11598030, Note_on_c, 0, 66, 100
2, 11598060, Note_on_c, 0, 66, 0
2, 11598060, Note_on_c, 0, 60, 100
2, 11599200, Note_on_c, 0, 60, 0
2, 11599200, Note_on_c, 0, 62, 100
2, 11599440, Note_on_c, 0, 62, 0
2, 11599440, Note_on_c, 0, 64, 100
2, 11600640, Note_on_c, 0, 64, 0
2, 11600640, Note_on_c, 0, 67, 100
2, 11601360, Note_on_c, 0, 67, 0
2, 11601360, Note_on_c, 0, 66, 100
2, 11601400, Note_on_c, 0, 66, 0
2, 11601400, Note_on_c, 0, 67, 100
2, 11601440, Note_on_c, 0, 67, 0
2, 11601440, Note_on_c, 0, 66, 100
2, 11601480, Note_on_c, 0, 66, 0
2, 11601480, Note_on_c, 0, 64, 100
2, 11601600, Note_on_c, 0, 64, 0
2, 11601600, Note_on_c, 0, 63, 100
2, 11601840, Note_on_c, 0, 63, 0
2, 11601840, Note_on_c, 0, 64, 100
2, 11602080, Note_on_c, 0, 64, 0
2, 11602080, Note_on_c, 0, 66, 100
2, 11602320, Note_on_c, 0, 66, 0
2, 11602320, Note_on_c, 0, 57, 100
2, 11603760, Note_on_c, 0, 57, 0
2, 11603760, Note_on_c, 0, 55, 100
2, 11603800, Note_on_c, 0, 55, 0
2, 11603800, Note_on_c, 0, 57, 100
2, 11603840, Note_on_c, 0, 57, 0
2, 11603840, Note_on_c, 0, 55, 100
2, 11603880, Note_on_c, 0, 55, 0
2, 11603880, Note_on_c, 0, 54, 100
2, 11604000, Note_on_c, 0, 54, 0
2, 11604000, Note_on_c, 0, 55, 100
2, 11604240, Note_on_c, 0, 55, 0
2, 11604240, Note_on_c, 0, 57, 100
2, 11605200, Note_on_c, 0, 57, 0
2, 11605200, Note_on_c, 0, 55, 100
2, 11605240, Note_on_c, 0, 55, 0
2, 11605240, Note_on_c, 0, 57, 100
2, 11605280, Note_on_c, 0, 57, 0
2, 11605280, Note_on_c, 0, 55, 100
2, 11605320, Note_on_c, 0, 55, 0
2, 11605320, Note_on_c, 0, 54, 100
2, 11605440, Note_on_c, 0, 54, 0
2, 11605440, Note_on_c, 0, 55, 100
2, 11605680, Note_on_c, 0, 55, 0
2, 11605680, Note_on_c, 0, 59, 100
2, 11605920, Note_on_c, 0, 59, 0
2, 11605920, Note_on_c, 0, 51, 100
2, 11607360, Note_on_c, 0, 51, 0
2, 11607360, Note_on_c, 0, 52, 100
2, 11609520, Note_on_c, 0, 52, 0
2, 11609520, Note_on_c, 0, 64, 100
2, 11620800, Note_on_c, 0, 64, 0
2, 11620800, Note_on_c, 0, 66, 100
2, 11621040, Note_on_c, 0, 66, 0
2, 11621040, Note_on_c, 0, 64, 100
2, 11621070, Note_on_c, 0, 64, 0
2, 11621070, Note_on_c, 0, 66, 100
2, 11621100, Note_on_c, 0, 66, 0
2, 11621100, Note_on_c, 0, 60, 100
2, 11622240, Note_on_c, 0, 60, 0
2, 11622240, Note_on_c, 0, 62, 100
2, 11622480, Note_on_c, 0, 62, 0
2, 11622480, Note_on_c, 0, 64, 100
2, 11623680, Note_on_c, 0, 64, 0
2, 11623680, Note_on_c, 0, 67, 100
2, 11624400, Note_on_c, 0, 67, 0
2, 11624400, Note_on_c, 0, 66, 100
2, 11624440, Note_on_c, 0, 66, 0
2, 11624440, Note_on_c, 0, 67, 100
2, 11624480, Note_on_c, 0, 67, 0
2, 11624480, Note_on_c, 0, 66, 100
2, 11624520, Note_on_c, 0, 66, 0
2, 11624520, Note_on_c, 0, 64, 100
2, 11624640, Note_on_c, 0, 64, 0
2, 11624640, Note_on_c, 0, 63, 100
2, 11624880, Note_on_c, 0, 63, 0
2, 11624880, Note_on_c, 0, 64, 100
2, 11625120, Note_on_c, 0, 64, 0
2, 11625120, Note_on_c, 0, 66, 100
2, 11625360, Note_on_c, 0, 66, 0
2, 11625360, Note_on_c, 0, 57, 100
2, 11626800, Note_on_c, 0, 57, 0
2, 11626800, Note_on_c, 0, 55, 100
2, 11626840, Note_on_c, 0, 55, 0
2, 11626840, Note_on_c, 0, 57, 100
2, 11626880, Note_on_c, 0, 57, 0
2, 11626880, Note_on_c, 0, 55, 100
2, 11626920, Note_on_c, 0, 55, 0
2, 11626920, Note_on_c, 0, 54, 100
2, 11627040, Note_on_c, 0, 54, 0
2, 11627040, Note_on_c, 0, 55, 100
2, 11627280, Note_on_c, 0, 55, 0
2, 11627280, Note_on_c, 0, 57, 100
2, 11628240, Note_on_c, 0, 57, 0
2, 11628240, Note_on_c, 0, 55, 100
2, 11628280, Note_on_c, 0, 55, 0
2, 11628280, Note_on_c, 0, 57, 100
2, 11628320, Note_on_c, 0, 57, 0
2, 11628320, Note_on_c, 0, 55, 100
2, 11628360, Note_on_c, 0, 55, 0
2, 11628360, Note_on_c, 0, 54, 100
2, 11628480, Note_on_c, 0, 54, 0
2, 11628480, Note_on_c, 0, 55, 100
2, 11628720, Note_on_c, 0, 55, 0
2, 11628720, Note_on_c, 0, 59, 100
2, 11628960, Note_on_c, 0, 59, 0
2, 11628960, Note_on_c, 0, 51, 100
2, 11630400, Note_on_c, 0, 51, 0
2, 11630400, Note_on_c, 0, 52, 100
2, 11632560, Note_on_c, 0, 52, 0
2, 11632560, Note_on_c, 0, 43, 100
2, 11643600, Note_on_c, 0, 43, 0
2, 11643600, Note_on_c, 0, 59, 100
2, 11643840, Note_on_c, 0, 59, 0
2, 11643840, Note_on_c, 0, 57, 100
2, 11643960, Note_on_c, 0, 57, 0
2, 11643960, Note_on_c, 0, 59, 100
2, 11644080, Note_on_c, 0, 59, 0
2, 11644080, Note_on_c, 0, 55, 100
2, 11644320, Note_on_c, 0, 55, 0
2, 11644320, Note_on_c, 0, 43, 100
2, 11644560, Note_on_c, 0, 43, 0
2, 11644560, Note_on_c, 0, 55, 100
2, 11644800, Note_on_c, 0, 55, 0
2, 11644800, Note_on_c, 0, 42, 100
2, 11645040, Note_on_c, 0, 42, 0
2, 11645040, Note_on_c, 0, 54, 100
2, 11645280, Note_on_c, 0, 54, 0
2, 11645280, Note_on_c, 0, 52, 100
2, 11645400, Note_on_c, 0, 52, 0
2, 11645400, Note_on_c, 0, 54, 100
2, 11645520, Note_on_c, 0, 54, 0
2, 11645520, Note_on_c, 0, 50, 100
2, 11645760, Note_on_c, 0, 50, 0
2, 11645760, Note_on_c, 0, 42, 100
2, 11646000, Note_on_c, 0, 42, 0
2, 11646000, Note_on_c, 0, 50, 100
2, 11646240, Note_on_c, 0, 50, 0
2, 11646240, Note_on_c, 0, 40, 100
2, 11646480, Note_on_c, 0, 40, 0
2, 11646480, Note_on_c, 0, 52, 100
2, 11646720, Note_on_c, 0, 52, 0
2, 11646720, Note_on_c, 0, 50, 100
2, 11646840, Note_on_c, 0, 50, 0
2, 11646840, Note_on_c, 0, 52, 100
2, 11646960, Note_on_c, 0, 52, 0
2, 11646960, Note_on_c, 0, 55, 100
2, 11647200, Note_on_c, 0, 55, 0
2, 11647200, Note_on_c, 0, 45, 100
2, 11647440, Note_on_c, 0, 45, 0
2, 11647440, Note_on_c, 0, 61, 100
2, 11647680, Note_on_c, 0, 61, 0
2, 11647680, Note_on_c, 0, 50, 100
2, 11647920, Note_on_c, 0, 50, 0
2, 11647920, Note_on_c, 0, 54, 100
2, 11648160, Note_on_c, 0, 54, 0
2, 11648160, Note_on_c, 0, 52, 100
2, 11648280, Note_on_c, 0, 52, 0
2, 11648280, Note_on_c, 0, 54, 100
2, 11648400, Note_on_c, 0, 54, 0
2, 11648400, Note_on_c, 0, 50, 100
2, 11648640, Note_on_c, 0, 50, 0
2, 11648640, Note_on_c, 0, 38, 100
2, 11648880, Note_on_c, 0, 38, 0
2, 11648880, Note_on_c, 0, 48, 100
2, 11649240, Note_on_c, 0, 48, 0
2, 11649240, Note_on_c, 0, 47, 100
2, 11649360, Note_on_c, 0, 47, 0
2, 11649360, Note_on_c, 0, 45, 100
2, 11649480, Note_on_c, 0, 45, 0
2, 11649480, Note_on_c, 0, 47, 100
2, 11649600, Note_on_c, 0, 47, 0
2, 11649600, Note_on_c, 0, 50, 100
2, 11649960, Note_on_c, 0, 50, 0
2, 11649960, Note_on_c, 0, 52, 100
2, 11650080, Note_on_c, 0, 52, 0
2, 11650080, Note_on_c, 0, 54, 100
2, 11650200, Note_on_c, 0, 54, 0
2, 11650200, Note_on_c, 0, 55, 100
2, 11650320, Note_on_c, 0, 55, 0
2, 11650320, Note_on_c, 0, 57, 100
2, 11650440, Note_on_c, 0, 57, 0
2, 11650440, Note_on_c, 0, 59, 100
2, 11650560, Note_on_c, 0, 59, 0
2, 11650560, Note_on_c, 0, 55, 100
2, 11650680, Note_on_c, 0, 55, 0
2, 11650680, Note_on_c, 0, 48, 100
2, 11650800, Note_on_c, 0, 48, 0
2, 11650800, Note_on_c, 0, 47, 100
2, 11650920, Note_on_c, 0, 47, 0
2, 11650920, Note_on_c, 0, 48, 100
2, 11651040, Note_on_c, 0, 48, 0
2, 11651040, Note_on_c, 0, 52, 100
2, 11651400, Note_on_c, 0, 52, 0
2, 11651400, Note_on_c, 0, 54, 100
2, 11651520, Note_on_c, 0, 54, 0
2, 11651520, Note_on_c, 0, 55, 100
2, 11651640, Note_on_c, 0, 55, 0
2, 11651640, Note_on_c, 0, 57, 100
2, 11651760, Note_on_c, 0, 57, 0
2, 11651760, Note_on_c, 0, 59, 100
2, 11651880, Note_on_c, 0, 59, 0
2, 11651880, Note_on_c, 0, 60, 100
2, 11652000, Note_on_c, 0, 60, 0
2, 11652000, Note_on_c, 0, 57, 100
2, 11652120, Note_on_c, 0, 57, 0
2, 11652120, Note_on_c, 0, 50, 100
2, 11652240, Note_on_c, 0, 50, 0
2, 11652240, Note_on_c, 0, 49, 100
2, 11652360, Note_on_c, 0, 49, 0
2, 11652360, Note_on_c, 0, 50, 100
2, 11652480, Note_on_c, 0, 50, 0
2, 11652480, Note_on_c, 0, 57, 100
2, 11652840, Note_on_c, 0, 57, 0
2, 11652840, Note_on_c, 0, 59, 100
2, 11652960, Note_on_c, 0, 59, 0
2, 11652960, Note_on_c, 0, 60, 100
2, 11653080, Note_on_c, 0, 60, 0
2, 11653080, Note_on_c, 0, 62, 100
2, 11653200, Note_on_c, 0, 62, 0
2, 11653200, Note_on_c, 0, 64, 100
2, 11653320, Note_on_c, 0, 64, 0
2, 11653320, Note_on_c, 0, 66, 100
2, 11653440, Note_on_c, 0, 66, 0
2, 11653440, Note_on_c, 0, 62, 100
2, 11653560, Note_on_c, 0, 62, 0
2, 11653560, Note_on_c, 0, 67, 100
2, 11653680, Note_on_c, 0, 67, 0
2, 11653680, Note_on_c, 0, 66, 100
2, 11653800, Note_on_c, 0, 66, 0
2, 11653800, Note_on_c, 0, 67, 100
2, 11653920, Note_on_c, 0, 67, 0
2, 11653920, Note_on_c, 0, 62, 100
2, 11654040, Note_on_c, 0, 62, 0
2, 11654040, Note_on_c, 0, 59, 100
2, 11654160, Note_on_c, 0, 59, 0
2, 11654160, Note_on_c, 0, 62, 100
2, 11654280, Note_on_c, 0, 62, 0
2, 11654280, Note_on_c, 0, 55, 100
2, 11654400, Note_on_c, 0, 55, 0
2, 11654400, Note_on_c, 0, 59, 100
2, 11654520, Note_on_c, 0, 59, 0
2, 11654520, Note_on_c, 0, 50, 100
2, 11654640, Note_on_c, 0, 50, 0
2, 11654640, Note_on_c, 0, 55, 100
2, 11654760, Note_on_c, 0, 55, 0
2, 11654760, Note_on_c, 0, 47, 100
2, 11654880, Note_on_c, 0, 47, 0
2, 11654880, Note_on_c, 0, 50, 100
2, 11655000, Note_on_c, 0, 50, 0
2, 11655000, Note_on_c, 0, 43, 100
2, 11655120, Note_on_c, 0, 43, 0
2, 11655120, Note_on_c, 0, 55, 100
2, 11655360, Note_on_c, 0, 55, 0
2, 11655360, Note_on_c, 0, 59, 100
2, 11655600, Note_on_c, 0, 59, 0
2, 11655600, Note_on_c, 0, 55, 100
2, 11655840, Note_on_c, 0, 55, 0
2, 11655840, Note_on_c, 0, 43, 100
2, 11656080, Note_on_c, 0, 43, 0
2, 11656080, Note_on_c, 0, 55, 100
2, 11656320, Note_on_c, 0, 55, 0
2, 11656320, Note_on_c, 0, 42, 100
2, 11656560, Note_on_c, 0, 42, 0
2, 11656560, Note_on_c, 0, 54, 100
2, 11656800, Note_on_c, 0, 54, 0
2, 11656800, Note_on_c, 0, 57, 100
2, 11657040, Note_on_c, 0, 57, 0
2, 11657040, Note_on_c, 0, 54, 100
2, 11657280, Note_on_c, 0, 54, 0
2, 11657280, Note_on_c, 0, 42, 100
2, 11657520, Note_on_c, 0, 42, 0
2, 11657520, Note_on_c, 0, 54, 100
2, 11657760, Note_on_c, 0, 54, 0
2, 11657760, Note_on_c, 0, 40, 100
2, 11658000, Note_on_c, 0, 40, 0
2, 11658000, Note_on_c, 0, 52, 100
2, 11658240, Note_on_c, 0, 52, 0
2, 11658240, Note_on_c, 0, 55, 100
2, 11658480, Note_on_c, 0, 55, 0
2, 11658480, Note_on_c, 0, 52, 100
2, 11658720, Note_on_c, 0, 52, 0
2, 11658720, Note_on_c, 0, 40, 100
2, 11658960, Note_on_c, 0, 40, 0
2, 11658960, Note_on_c, 0, 55, 100
2, 11659200, Note_on_c, 0, 55, 0
2, 11659200, Note_on_c, 0, 45, 100
2, 11659440, Note_on_c, 0, 45, 0
2, 11659440, Note_on_c, 0, 52, 100
2, 11659680, Note_on_c, 0, 52, 0
2, 11659680, Note_on_c, 0, 55, 100
2, 11659920, Note_on_c, 0, 55, 0
2, 11659920, Note_on_c, 0, 52, 100
2, 11660160, Note_on_c, 0, 52, 0
2, 11660160, Note_on_c, 0, 45, 100
2, 11660400, Note_on_c, 0, 45, 0
2, 11660400, Note_on_c, 0, 55, 100
2, 11660640, Note_on_c, 0, 55, 0
2, 11660640, Note_on_c, 0, 54, 100
2, 11660880, Note_on_c, 0, 54, 0
2, 11660880, Note_on_c, 0, 57, 100
2, 11661000, Note_on_c, 0, 57, 0
2, 11661000, Note_on_c, 0, 62, 100
2, 11661120, Note_on_c, 0, 62, 0
2, 11661120, Note_on_c, 0, 66, 100
2, 11661240, Note_on_c, 0, 66, 0
2, 11661240, Note_on_c, 0, 69, 100
2, 11661360, Note_on_c, 0, 69, 0
2, 11661360, Note_on_c, 0, 66, 100
2, 11661480, Note_on_c, 0, 66, 0
2, 11661480, Note_on_c, 0, 62, 100
2, 11661600, Note_on_c, 0, 62, 0
2, 11661600, Note_on_c, 0, 57, 100
2, 11661720, Note_on_c, 0, 57, 0
2, 11661720, Note_on_c, 0, 54, 100
2, 11661840, Note_on_c, 0, 54, 0
2, 11661840, Note_on_c, 0, 57, 100
2, 11661960, Note_on_c, 0, 57, 0
2, 11661960, Note_on_c, 0, 50, 100
2, 11662080, Note_on_c, 0, 50, 0
2, 11662080, Note_on_c, 0, 54, 100
2, 11662200, Note_on_c, 0, 54, 0
2, 11662200, Note_on_c, 0, 55, 100
2, 11662320, Note_on_c, 0, 55, 0
2, 11662320, Note_on_c, 0, 59, 100
2, 11662440, Note_on_c, 0, 59, 0
2, 11662440, Note_on_c, 0, 62, 100
2, 11662560, Note_on_c, 0, 62, 0
2, 11662560, Note_on_c, 0, 67, 100
2, 11662680, Note_on_c, 0, 67, 0
2, 11662680, Note_on_c, 0, 71, 100
2, 11662800, Note_on_c, 0, 71, 0
2, 11662800, Note_on_c, 0, 67, 100
2, 11662920, Note_on_c, 0, 67, 0
2, 11662920, Note_on_c, 0, 62, 100
2, 11663040, Note_on_c, 0, 62, 0
2, 11663040, Note_on_c, 0, 59, 100
2, 11663160, Note_on_c, 0, 59, 0
2, 11663160, Note_on_c, 0, 55, 100
2, 11663280, Note_on_c, 0, 55, 0
2, 11663280, Note_on_c, 0, 59, 100
2, 11663400, Note_on_c, 0, 59, 0
2, 11663400, Note_on_c, 0, 52, 100
2, 11663520, Note_on_c, 0, 52, 0
2, 11663520, Note_on_c, 0, 55, 100
2, 11663640, Note_on_c, 0, 55, 0
2, 11663640, Note_on_c, 0, 57, 100
2, 11663760, Note_on_c, 0, 57, 0
2, 11663760, Note_on_c, 0, 61, 100
2, 11664000, Note_on_c, 0, 61, 0
2, 11664000, Note_on_c, 0, 62, 100
2, 11664240, Note_on_c, 0, 62, 0
2, 11664240, Note_on_c, 0, 57, 100
2, 11664360, Note_on_c, 0, 57, 0
2, 11664360, Note_on_c, 0, 54, 100
2, 11664480, Note_on_c, 0, 54, 0
2, 11664480, Note_on_c, 0, 50, 100
2, 11664600, Note_on_c, 0, 50, 0
2, 11664600, Note_on_c, 0, 57, 100
2, 11664720, Note_on_c, 0, 57, 0
2, 11664720, Note_on_c, 0, 45, 100
2, 11664960, Note_on_c, 0, 45, 0
2, 11664960, Note_on_c, 0, 38, 100
2, 11665200, Note_on_c, 0, 38, 0
2, 11665200, Note_on_c, 0, 50, 100
2, 11665320, Note_on_c, 0, 50, 0
2, 11665320, Note_on_c, 0, 52, 100
2, 11665440, Note_on_c, 0, 52, 0
2, 11665440, Note_on_c, 0, 54, 100
2, 11665560, Note_on_c, 0, 54, 0
2, 11665560, Note_on_c, 0, 55, 100
2, 11665680, Note_on_c, 0, 55, 0
2, 11665680, Note_on_c, 0, 57, 100
2, 11665800, Note_on_c, 0, 57, 0
2, 11665800, Note_on_c, 0, 59, 100
2, 11665920, Note_on_c, 0, 59, 0
2, 11665920, Note_on_c, 0, 61, 100
2, 11666040, Note_on_c, 0, 61, 0
2, 11666040, Note_on_c, 0, 62, 100
2, 11666160, Note_on_c, 0, 62, 0
2, 11666160, Note_on_c, 0, 43, 100
2, 11666640, Note_on_c, 0, 43, 0
2, 11666640, Note_on_c, 0, 59, 100
2, 11666880, Note_on_c, 0, 59, 0
2, 11666880, Note_on_c, 0, 57, 100
2, 11667000, Note_on_c, 0, 57, 0
2, 11667000, Note_on_c, 0, 59, 100
2, 11667120, Note_on_c, 0, 59, 0
2, 11667120, Note_on_c, 0, 55, 100
2, 11667360, Note_on_c, 0, 55, 0
2, 11667360, Note_on_c, 0, 43, 100
2, 11667600, Note_on_c, 0, 43, 0
2, 11667600, Note_on_c, 0, 55, 100
2, 11667840, Note_on_c, 0, 55, 0
2, 11667840, Note_on_c, 0, 42, 100
2, 11668080, Note_on_c, 0, 42, 0
2, 11668080, Note_on_c, 0, 54, 100
2, 11668320, Note_on_c, 0, 54, 0
2, 11668320, Note_on_c, 0, 52, 100
2, 11668440, Note_on_c, 0, 52, 0
2, 11668440, Note_on_c, 0, 54, 100
2, 11668560, Note_on_c, 0, 54, 0
2, 11668560, Note_on_c, 0, 50, 100
2, 11668800, Note_on_c, 0, 50, 0
2, 11668800, Note_on_c, 0, 42, 100
2, 11669040, Note_on_c, 0, 42, 0
2, 11669040, Note_on_c, 0, 50, 100
2, 11669280, Note_on_c, 0, 50, 0
2, 11669280, Note_on_c, 0, 40, 100
2, 11669520, Note_on_c, 0, 40, 0
2, 11669520, Note_on_c, 0, 52, 100
2, 11669760, Note_on_c, 0, 52, 0
2, 11669760, Note_on_c, 0, 50, 100
2, 11669880, Note_on_c, 0, 50, 0
2, 11669880, Note_on_c, 0, 52, 100
2, 11670000, Note_on_c, 0, 52, 0
2, 11670000, Note_on_c, 0, 55, 100
2, 11670240, Note_on_c, 0, 55, 0
2, 11670240, Note_on_c, 0, 45, 100
2, 11670480, Note_on_c, 0, 45, 0
2, 11670480, Note_on_c, 0, 61, 100
2, 11670720, Note_on_c, 0, 61, 0
2, 11670720, Note_on_c, 0, 50, 100
2, 11670960, Note_on_c, 0, 50, 0
2, 11670960, Note_on_c, 0, 54, 100
2, 11671200, Note_on_c, 0, 54, 0
2, 11671200, Note_on_c, 0, 52, 100
2, 11671320, Note_on_c, 0, 52, 0
2, 11671320, Note_on_c, 0, 54, 100
2, 11671440, Note_on_c, 0, 54, 0
2, 11671440, Note_on_c, 0, 50, 100
2, 11671680, Note_on_c, 0, 50, 0
2, 11671680, Note_on_c, 0, 38, 100
2, 11671920, Note_on_c, 0, 38, 0
2, 11671920, Note_on_c, 0, 48, 100
2, 11672280, Note_on_c, 0, 48, 0
2, 11672280, Note_on_c, 0, 47, 100
2, 11672400, Note_on_c, 0, 47, 0
2, 11672400, Note_on_c, 0, 45, 100
2, 11672520, Note_on_c, 0, 45, 0
2, 11672520, Note_on_c, 0, 47, 100
2, 11672640, Note_on_c, 0, 47, 0
2, 11672640, Note_on_c, 0, 50, 100
2, 11673000, Note_on_c, 0, 50, 0
2, 11673000, Note_on_c, 0, 52, 100
2, 11673120, Note_on_c, 0, 52, 0
2, 11673120, Note_on_c, 0, 54, 100
2, 11673240, Note_on_c, 0, 54, 0
2, 11673240, Note_on_c, 0, 55, 100
2, 11673360, Note_on_c, 0, 55, 0
2, 11673360, Note_on_c, 0, 57, 100
2, 11673480, Note_on_c, 0, 57, 0
2, 11673480, Note_on_c, 0, 59, 100
2, 11673600, Note_on_c, 0, 59, 0
2, 11673600, Note_on_c, 0, 55, 100
2, 11673720, Note_on_c, 0, 55, 0
2, 11673720, Note_on_c, 0, 48, 100
2, 11673840, Note_on_c, 0, 48, 0
2, 11673840, Note_on_c, 0, 47, 100
2, 11673960, Note_on_c, 0, 47, 0
2, 11673960, Note_on_c, 0, 48, 100
2, 11674080, Note_on_c, 0, 48, 0
2, 11674080, Note_on_c, 0, 52, 100
2, 11674440, Note_on_c, 0, 52, 0
2, 11674440, Note_on_c, 0, 54, 100
2, 11674560, Note_on_c, 0, 54, 0
2, 11674560, Note_on_c, 0, 55, 100
2, 11674680, Note_on_c, 0, 55, 0
2, 11674680, Note_on_c, 0, 57, 100
2, 11674800, Note_on_c, 0, 57, 0
2, 11674800, Note_on_c, 0, 59, 100
2, 11674920, Note_on_c, 0, 59, 0
2, 11674920, Note_on_c, 0, 60, 100
2, 11675040, Note_on_c, 0, 60, 0
2, 11675040, Note_on_c, 0, 57, 100
2, 11675160, Note_on_c, 0, 57, 0
2, 11675160, Note_on_c, 0, 50, 100
2, 11675280, Note_on_c, 0, 50, 0
2, 11675280, Note_on_c, 0, 49, 100
2, 11675400, Note_on_c, 0, 49, 0
2, 11675400, Note_on_c, 0, 50, 100
2, 11675520, Note_on_c, 0, 50, 0
2, 11675520, Note_on_c, 0, 57, 100
2, 11675880, Note_on_c, 0, 57, 0
2, 11675880, Note_on_c, 0, 59, 100
2, 11676000, Note_on_c, 0, 59, 0
2, 11676000, Note_on_c, 0, 60, 100
2, 11676120, Note_on_c, 0, 60, 0
2, 11676120, Note_on_c, 0, 62, 100
2, 11676240, Note_on_c, 0, 62, 0
2, 11676240, Note_on_c, 0, 64, 100
2, 11676360, Note_on_c, 0, 64, 0
2, 11676360, Note_on_c, 0, 66, 100
2, 11676480, Note_on_c, 0, 66, 0
2, 11676480, Note_on_c, 0, 62, 100
2, 11676600, Note_on_c, 0, 62, 0
2, 11676600, Note_on_c, 0, 67, 100
2, 11676720, Note_on_c, 0, 67, 0
2, 11676720, Note_on_c, 0, 66, 100
2, 11676840, Note_on_c, 0, 66, 0
2, 11676840, Note_on_c, 0, 67, 100
2, 11676960, Note_on_c, 0, 67, 0
2, 11676960, Note_on_c, 0, 62, 100
2, 11677080, Note_on_c, 0, 62, 0
2, 11677080, Note_on_c, 0, 59, 100
2, 11677200, Note_on_c, 0, 59, 0
2, 11677200, Note_on_c, 0, 62, 100
2, 11677320, Note_on_c, 0, 62, 0
2, 11677320, Note_on_c, 0, 55, 100
2, 11677440, Note_on_c, 0, 55, 0
2, 11677440, Note_on_c, 0, 59, 100
2, 11677560, Note_on_c, 0, 59, 0
2, 11677560, Note_on_c, 0, 50, 100
2, 11677680, Note_on_c, 0, 50, 0
2, 11677680, Note_on_c, 0, 55, 100
2, 11677800, Note_on_c, 0, 55, 0
2, 11677800, Note_on_c, 0, 47, 100
2, 11677920, Note_on_c, 0, 47, 0
2, 11677920, Note_on_c, 0, 50, 100
2, 11678040, Note_on_c, 0, 50, 0
2, 11678040, Note_on_c, 0, 43, 100
2, 11678160, Note_on_c, 0, 43, 0
2, 11678160, Note_on_c, 0, 55, 100
2, 11678400, Note_on_c, 0, 55, 0
2, 11678400, Note_on_c, 0, 59, 100
2, 11678640, Note_on_c, 0, 59, 0
2, 11678640, Note_on_c, 0, 55, 100
2, 11678880, Note_on_c, 0, 55, 0
2, 11678880, Note_on_c, 0, 43, 100
2, 11679120, Note_on_c, 0, 43, 0
2, 11679120, Note_on_c, 0, 55, 100
2, 11679360, Note_on_c, 0, 55, 0
2, 11679360, Note_on_c, 0, 42, 100
2, 11679600, Note_on_c, 0, 42, 0
2, 11679600, Note_on_c, 0, 54, 100
2, 11679840, Note_on_c, 0, 54, 0
2, 11679840, Note_on_c, 0, 57, 100
2, 11680080, Note_on_c, 0, 57, 0
2, 11680080, Note_on_c, 0, 54, 100
2, 11680320, Note_on_c, 0, 54, 0
2, 11680320, Note_on_c, 0, 42, 100
2, 11680560, Note_on_c, 0, 42, 0
2, 11680560, Note_on_c, 0, 54, 100
2, 11680800, Note_on_c, 0, 54, 0
2, 11680800, Note_on_c, 0, 40, 100
2, 11681040, Note_on_c, 0, 40, 0
2, 11681040, Note_on_c, 0, 52, 100
2, 11681280, Note_on_c, 0, 52, 0
2, 11681280, Note_on_c, 0, 55, 100
2, 11681520, Note_on_c, 0, 55, 0
2, 11681520, Note_on_c, 0, 52, 100
2, 11681760, Note_on_c, 0, 52, 0
2, 11681760, Note_on_c, 0, 40, 100
2, 11682000, Note_on_c, 0, 40, 0
2, 11682000, Note_on_c, 0, 55, 100
2, 11682240, Note_on_c, 0, 55, 0
2, 11682240, Note_on_c, 0, 45, 100
2, 11682480, Note_on_c, 0, 45, 0
2, 11682480, Note_on_c, 0, 52, 100
2, 11682720, Note_on_c, 0, 52, 0
2, 11682720, Note_on_c, 0, 55, 100
2, 11682960, Note_on_c, 0, 55, 0
2, 11682960, Note_on_c, 0, 52, 100
2, 11683200, Note_on_c, 0, 52, 0
2, 11683200, Note_on_c, 0, 45, 100
2, 11683440, Note_on_c, 0, 45, 0
2, 11683440, Note_on_c, 0, 55, 100
2, 11683680, Note_on_c, 0, 55, 0
2, 11683680, Note_on_c, 0, 54, 100
2, 11683920, Note_on_c, 0, 54, 0
2, 11683920, Note_on_c, 0, 57, 100
2, 11684040, Note_on_c, 0, 57, 0
2, 11684040, Note_on_c, 0, 62, 100
2, 11684160, Note_on_c, 0, 62, 0
2, 11684160, Note_on_c, 0, 66, 100
2, 11684280, Note_on_c, 0, 66, 0
2, 11684280, Note_on_c, 0, 69, 100
2, 11684400, Note_on_c, 0, 69, 0
2, 11684400, Note_on_c, 0, 66, 100
2, 11684520, Note_on_c, 0, 66, 0
2, 11684520, Note_on_c, 0, 62, 100
2, 11684640, Note_on_c, 0, 62, 0
2, 11684640, Note_on_c, 0, 57, 100
2, 11684760, Note_on_c, 0, 57, 0
2, 11684760, Note_on_c, 0, 54, 100
2, 11684880, Note_on_c, 0, 54, 0
2, 11684880, Note_on_c, 0, 57, 100
2, 11685000, Note_on_c, 0, 57, 0
2, 11685000, Note_on_c, 0, 50, 100
2, 11685120, Note_on_c, 0, 50, 0
2, 11685120, Note_on_c, 0, 54, 100
2, 11685240, Note_on_c, 0, 54, 0
2, 11685240, Note_on_c, 0, 55, 100
2, 11685360, Note_on_c, 0, 55, 0
2, 11685360, Note_on_c, 0, 59, 100
2, 11685480, Note_on_c, 0, 59, 0
2, 11685480, Note_on_c, 0, 62, 100
2, 11685600, Note_on_c, 0, 62, 0
2, 11685600, Note_on_c, 0, 67, 100
2, 11685720, Note_on_c, 0, 67, 0
2, 11685720, Note_on_c, 0, 71, 100
2, 11685840, Note_on_c, 0, 71, 0
2, 11685840, Note_on_c, 0, 67, 100
2, 11685960, Note_on_c, 0, 67, 0
2, 11685960, Note_on_c, 0, 62, 100
2, 11686080, Note_on_c, 0, 62, 0
2, 11686080, Note_on_c, 0, 59, 100
2, 11686200, Note_on_c, 0, 59, 0
2, 11686200, Note_on_c, 0, 55, 100
2, 11686320, Note_on_c, 0, 55, 0
2, 11686320, Note_on_c, 0, 59, 100
2, 11686440, Note_on_c, 0, 59, 0
2, 11686440, Note_on_c, 0, 52, 100
2, 11686560, Note_on_c, 0, 52, 0
2, 11686560, Note_on_c, 0, 55, 100
2, 11686680, Note_on_c, 0, 55, 0
2, 11686680, Note_on_c, 0, 57, 100
2, 11686800, Note_on_c, 0, 57, 0
2, 11686800, Note_on_c, 0, 61, 100
2, 11687040, Note_on_c, 0, 61, 0
2, 11687040, Note_on_c, 0, 62, 100
2, 11687280, Note_on_c, 0, 62, 0
2, 11687280, Note_on_c, 0, 57, 100
2, 11687400, Note_on_c, 0, 57, 0
2, 11687400, Note_on_c, 0, 54, 100
2, 11687520, Note_on_c, 0, 54, 0
2, 11687520, Note_on_c, 0, 50, 100
2, 11687640, Note_on_c, 0, 50, 0
2, 11687640, Note_on_c, 0, 57, 100
2, 11687760, Note_on_c, 0, 57, 0
2, 11687760, Note_on_c, 0, 45, 100
2, 11688000, Note_on_c, 0, 45, 0
2, 11688000, Note_on_c, 0, 38, 100
2, 11688240, Note_on_c, 0, 38, 0
2, 11688240, Note_on_c, 0, 50, 100
2, 11688360, Note_on_c, 0, 50, 0
2, 11688360, Note_on_c, 0, 52, 100
2, 11688480, Note_on_c, 0, 52, 0
2, 11688480, Note_on_c, 0, 54, 100
2, 11688600, Note_on_c, 0, 54, 0
2, 11688600, Note_on_c, 0, 55, 100
2, 11688720, Note_on_c, 0, 55, 0
2, 11688720, Note_on_c, 0, 57, 100
2, 11688840, Note_on_c, 0, 57, 0
2, 11688840, Note_on_c, 0, 59, 100
2, 11688960, Note_on_c, 0, 59, 0
2, 11688960, Note_on_c, 0, 61, 100
2, 11689080, Note_on_c, 0, 61, 0
2, 11689080, Note_on_c, 0, 62, 100
2, 11689200, Note_on_c, 0, 62, 0
2, 11689200, Note_on_c, 0, 38, 100
2, 11689680, Note_on_c, 0, 38, 0
2, 11689680, Note_on_c, 0, 54, 100
2, 11689920, Note_on_c, 0, 54, 0
2, 11689920, Note_on_c, 0, 52, 100
2, 11690040, Note_on_c, 0, 52, 0
2, 11690040, Note_on_c, 0, 54, 100
2, 11690160, Note_on_c, 0, 54, 0
2, 11690160, Note_on_c, 0, 50, 100
2, 11690400, Note_on_c, 0, 50, 0
2, 11690400, Note_on_c, 0, 38, 100
2, 11690640, Note_on_c, 0, 38, 0
2, 11690640, Note_on_c, 0, 54, 100
2, 11690880, Note_on_c, 0, 54, 0
2, 11690880, Note_on_c, 0, 43, 100
2, 11691120, Note_on_c, 0, 43, 0
2, 11691120, Note_on_c, 0, 59, 100
2, 11691360, Note_on_c, 0, 59, 0
2, 11691360, Note_on_c, 0, 57, 100
2, 11691480, Note_on_c, 0, 57, 0
2, 11691480, Note_on_c, 0, 59, 100
2, 11691600, Note_on_c, 0, 59, 0
2, 11691600, Note_on_c, 0, 55, 100
2, 11691840, Note_on_c, 0, 55, 0
2, 11691840, Note_on_c, 0, 43, 100
2, 11692080, Note_on_c, 0, 43, 0
2, 11692080, Note_on_c, 0, 59, 100
2, 11692320, Note_on_c, 0, 59, 0
2, 11692320, Note_on_c, 0, 48, 100
2, 11692560, Note_on_c, 0, 48, 0
2, 11692560, Note_on_c, 0, 60, 100
2, 11692800, Note_on_c, 0, 60, 0
2, 11692800, Note_on_c, 0, 59, 100
2, 11692920, Note_on_c, 0, 59, 0
2, 11692920, Note_on_c, 0, 60, 100
2, 11693040, Note_on_c, 0, 60, 0
2, 11693040, Note_on_c, 0, 54, 100
2, 11693280, Note_on_c, 0, 54, 0
2, 11693280, Note_on_c, 0, 57, 100
2, 11693520, Note_on_c, 0, 57, 0
2, 11693520, Note_on_c, 0, 60, 100
2, 11693760, Note_on_c, 0, 60, 0
2, 11693760, Note_on_c, 0, 57, 100
2, 11694000, Note_on_c, 0, 57, 0
2, 11694000, Note_on_c, 0, 54, 100
2, 11694240, Note_on_c, 0, 54, 0
2, 11694240, Note_on_c, 0, 51, 100
2, 11694480, Note_on_c, 0, 51, 0
2, 11694480, Note_on_c, 0, 47, 100
2, 11694600, Note_on_c, 0, 47, 0
2, 11694600, Note_on_c, 0, 51, 100
2, 11694720, Note_on_c, 0, 51, 0
2, 11694720, Note_on_c, 0, 54, 100
2, 11694840, Note_on_c, 0, 54, 0
2, 11694840, Note_on_c, 0, 59, 100
2, 11694960, Note_on_c, 0, 59, 0
2, 11694960, Note_on_c, 0, 63, 100
2, 11695080, Note_on_c, 0, 63, 0
2, 11695080, Note_on_c, 0, 66, 100
2, 11695200, Note_on_c, 0, 66, 0
2, 11695200, Note_on_c, 0, 69, 100
2, 11695320, Note_on_c, 0, 69, 0
2, 11695320, Note_on_c, 0, 67, 100
2, 11695440, Note_on_c, 0, 67, 0
2, 11695440, Note_on_c, 0, 66, 100
2, 11695800, Note_on_c, 0, 66, 0
2, 11695800, Note_on_c, 0, 67, 100
2, 11695920, Note_on_c, 0, 67, 0
2, 11695920, Note_on_c, 0, 54, 100
2, 11696280, Note_on_c, 0, 54, 0
2, 11696280, Note_on_c, 0, 55, 100
2, 11696400, Note_on_c, 0, 55, 0
2, 11696400, Note_on_c, 0, 47, 100
2, 11696760, Note_on_c, 0, 47, 0
2, 11696760, Note_on_c, 0, 48, 100
2, 11696880, Note_on_c, 0, 48, 0
2, 11696880, Note_on_c, 0, 71, 100
2, 11697240, Note_on_c, 0, 71, 0
2, 11697240, Note_on_c, 0, 72, 100
2, 11697360, Note_on_c, 0, 72, 0
2, 11697360, Note_on_c, 0, 59, 100
2, 11697720, Note_on_c, 0, 59, 0
2, 11697720, Note_on_c, 0, 60, 100
2, 11697840, Note_on_c, 0, 60, 0
2, 11697840, Note_on_c, 0, 52, 100
2, 11698200, Note_on_c, 0, 52, 0
2, 11698200, Note_on_c, 0, 51, 100
2, 11698320, Note_on_c, 0, 51, 0
2, 11698320, Note_on_c, 0, 57, 100
2, 11698560, Note_on_c, 0, 57, 0
2, 11698560, Note_on_c, 0, 55, 100
2, 11698800, Note_on_c, 0, 55, 0
2, 11698800, Note_on_c, 0, 46, 100
2, 11699040, Note_on_c, 0, 46, 0
2, 11699040, Note_on_c, 0, 47, 100
2, 11699280, Note_on_c, 0, 47, 0
2, 11699280, Note_on_c, 0, 54, 100
2, 11699520, Note_on_c, 0, 54, 0
2, 11699520, Note_on_c, 0, 52, 100
2, 11699760, Note_on_c, 0, 52, 0
2, 11699760, Note_on_c, 0, 55, 100
2, 11700000, Note_on_c, 0, 55, 0
2, 11700000, Note_on_c, 0, 54, 100
2, 11700120, Note_on_c, 0, 54, 0
2, 11700120, Note_on_c, 0, 55, 100
2, 11700240, Note_on_c, 0, 55, 0
2, 11700240, Note_on_c, 0, 52, 100
2, 11700480, Note_on_c, 0, 52, 0
2, 11700480, Note_on_c, 0, 40, 100
2, 11700720, Note_on_c, 0, 40, 0
2, 11700720, Note_on_c, 0, 50, 100
2, 11701080, Note_on_c, 0, 50, 0
2, 11701080, Note_on_c, 0, 48, 100
2, 11701200, Note_on_c, 0, 48, 0
2, 11701200, Note_on_c, 0, 52, 100
2, 11701320, Note_on_c, 0, 52, 0
2, 11701320, Note_on_c, 0, 57, 100
2, 11701440, Note_on_c, 0, 57, 0
2, 11701440, Note_on_c, 0, 60, 100
2, 11701560, Note_on_c, 0, 60, 0
2, 11701560, Note_on_c, 0, 64, 100
2, 11701680, Note_on_c, 0, 64, 0
2, 11701680, Note_on_c, 0, 60, 100
2, 11701800, Note_on_c, 0, 60, 0
2, 11701800, Note_on_c, 0, 57, 100
2, 11701920, Note_on_c, 0, 57, 0
2, 11701920, Note_on_c, 0, 52, 100
2, 11702040, Note_on_c, 0, 52, 0
2, 11702040, Note_on_c, 0, 48, 100
2, 11702160, Note_on_c, 0, 48, 0
2, 11702160, Note_on_c, 0, 52, 100
2, 11702280, Note_on_c, 0, 52, 0
2, 11702280, Note_on_c, 0, 50, 100
2, 11702400, Note_on_c, 0, 50, 0
2, 11702400, Note_on_c, 0, 48, 100
2, 11702520, Note_on_c, 0, 48, 0
2, 11702520, Note_on_c, 0, 47, 100
2, 11702640, Note_on_c, 0, 47, 0
2, 11702640, Note_on_c, 0, 50, 100
2, 11702760, Note_on_c, 0, 50, 0
2, 11702760, Note_on_c, 0, 55, 100
2, 11702880, Note_on_c, 0, 55, 0
2, 11702880, Note_on_c, 0, 59, 100
2, 11703000, Note_on_c, 0, 59, 0
2, 11703000, Note_on_c, 0, 62, 100
2, 11703120, Note_on_c, 0, 62, 0
2, 11703120, Note_on_c, 0, 59, 100
2, 11703240, Note_on_c, 0, 59, 0
2, 11703240, Note_on_c, 0, 55, 100
2, 11703360, Note_on_c, 0, 55, 0
2, 11703360, Note_on_c, 0, 50, 100
2, 11703480, Note_on_c, 0, 50, 0
2, 11703480, Note_on_c, 0, 47, 100
2, 11703600, Note_on_c, 0, 47, 0
2, 11703600, Note_on_c, 0, 50, 100
2, 11703720, Note_on_c, 0, 50, 0
2, 11703720, Note_on_c, 0, 48, 100
2, 11703840, Note_on_c, 0, 48, 0
2, 11703840, Note_on_c, 0, 47, 100
2, 11703960, Note_on_c, 0, 47, 0
2, 11703960, Note_on_c, 0, 45, 100
2, 11704080, Note_on_c, 0, 45, 0
2, 11704080, Note_on_c, 0, 48, 100
2, 11704320, Note_on_c, 0, 48, 0
2, 11704320, Note_on_c, 0, 52, 100
2, 11704560, Note_on_c, 0, 52, 0
2, 11704560, Note_on_c, 0, 55, 100
2, 11704800, Note_on_c, 0, 55, 0
2, 11704800, Note_on_c, 0, 54, 100
2, 11705040, Note_on_c, 0, 54, 0
2, 11705040, Note_on_c, 0, 52, 100
2, 11705280, Note_on_c, 0, 52, 0
2, 11705280, Note_on_c, 0, 50, 100
2, 11705520, Note_on_c, 0, 50, 0
2, 11705520, Note_on_c, 0, 54, 100
2, 11705760, Note_on_c, 0, 54, 0
2, 11705760, Note_on_c, 0, 57, 100
2, 11706000, Note_on_c, 0, 57, 0
2, 11706000, Note_on_c, 0, 60, 100
2, 11706240, Note_on_c, 0, 60, 0
2, 11706240, Note_on_c, 0, 59, 100
2, 11706480, Note_on_c, 0, 59, 0
2, 11706480, Note_on_c, 0, 57, 100
2, 11706720, Note_on_c, 0, 57, 0
2, 11706720, Note_on_c, 0, 55, 100
2, 11706960, Note_on_c, 0, 55, 0
2, 11706960, Note_on_c, 0, 59, 100
2, 11707200, Note_on_c, 0, 59, 0
2, 11707200, Note_on_c, 0, 62, 100
2, 11707440, Note_on_c, 0, 62, 0
2, 11707440, Note_on_c, 0, 65, 100
2, 11707680, Note_on_c, 0, 65, 0
2, 11707680, Note_on_c, 0, 64, 100
2, 11707920, Note_on_c, 0, 64, 0
2, 11707920, Note_on_c, 0, 62, 100
2, 11708160, Note_on_c, 0, 62, 0
2, 11708160, Note_on_c, 0, 60, 100
2, 11708400, Note_on_c, 0, 60, 0
2, 11708400, Note_on_c, 0, 64, 100
2, 11708640, Note_on_c, 0, 64, 0
2, 11708640, Note_on_c, 0, 66, 100
2, 11708880, Note_on_c, 0, 66, 0
2, 11708880, Note_on_c, 0, 68, 100
2, 11709120, Note_on_c, 0, 68, 0
2, 11709120, Note_on_c, 0, 69, 100
2, 11709360, Note_on_c, 0, 69, 0
2, 11709360, Note_on_c, 0, 67, 100
2, 11709600, Note_on_c, 0, 67, 0
2, 11709600, Note_on_c, 0, 66, 100
2, 11709840, Note_on_c, 0, 66, 0
2, 11709840, Note_on_c, 0, 62, 100
2, 11710080, Note_on_c, 0, 62, 0
2, 11710080, Note_on_c, 0, 67, 100
2, 11710320, Note_on_c, 0, 67, 0
2, 11710320, Note_on_c, 0, 55, 100
2, 11710560, Note_on_c, 0, 55, 0
2, 11710560, Note_on_c, 0, 62, 100
2, 11710800, Note_on_c, 0, 62, 0
2, 11710800, Note_on_c, 0, 50, 100
2, 11711040, Note_on_c, 0, 50, 0
2, 11711040, Note_on_c, 0, 55, 100
2, 11711280, Note_on_c, 0, 55, 0
2, 11711280, Note_on_c, 0, 43, 100
2, 11711400, Note_on_c, 0, 43, 0
2, 11711400, Note_on_c, 0, 45, 100
2, 11711520, Note_on_c, 0, 45, 0
2, 11711520, Note_on_c, 0, 47, 100
2, 11711640, Note_on_c, 0, 47, 0
2, 11711640, Note_on_c, 0, 48, 100
2, 11711760, Note_on_c, 0, 48, 0
2, 11711760, Note_on_c, 0, 50, 100
2, 11711880, Note_on_c, 0, 50, 0
2, 11711880, Note_on_c, 0, 52, 100
2, 11712000, Note_on_c, 0, 52, 0
2, 11712000, Note_on_c, 0, 54, 100
2, 11712120, Note_on_c, 0, 54, 0
2, 11712120, Note_on_c, 0, 55, 100
2, 11712240, Note_on_c, 0, 55, 0
2, 11712240, Note_on_c, 0, 38, 100
2, 11712720, Note_on_c, 0, 38, 0
2, 11712720, Note_on_c, 0, 54, 100
2, 11712960, Note_on_c, 0, 54, 0
2, 11712960, Note_on_c, 0, 52, 100
2, 11713080, Note_on_c, 0, 52, 0
2, 11713080, Note_on_c, 0, 54, 100
2, 11713200, Note_on_c, 0, 54, 0
2, 11713200, Note_on_c, 0, 50, 100
2, 11713440, Note_on_c, 0, 50, 0
2, 11713440, Note_on_c, 0, 38, 100
2, 11713680, Note_on_c, 0, 38, 0
2, 11713680, Note_on_c, 0, 54, 100
2, 11713920, Note_on_c, 0, 54, 0
2, 11713920, Note_on_c, 0, 43, 100
2, 11714160, Note_on_c, 0, 43, 0
2, 11714160, Note_on_c, 0, 59, 100
2, 11714400, Note_on_c, 0, 59, 0
2, 11714400, Note_on_c, 0, 57, 100
2, 11714520, Note_on_c, 0, 57, 0
2, 11714520, Note_on_c, 0, 59, 100
2, 11714640, Note_on_c, 0, 59, 0
2, 11714640, Note_on_c, 0, 55, 100
2, 11714880, Note_on_c, 0, 55, 0
2, 11714880, Note_on_c, 0, 43, 100
2, 11715120, Note_on_c, 0, 43, 0
2, 11715120, Note_on_c, 0, 59, 100
2, 11715360, Note_on_c, 0, 59, 0
2, 11715360, Note_on_c, 0, 48, 100
2, 11715600, Note_on_c, 0, 48, 0
2, 11715600, Note_on_c, 0, 60, 100
2, 11715840, Note_on_c, 0, 60, 0
2, 11715840, Note_on_c, 0, 59, 100
2, 11715960, Note_on_c, 0, 59, 0
2, 11715960, Note_on_c, 0, 60, 100
2, 11716080, Note_on_c, 0, 60, 0
2, 11716080, Note_on_c, 0, 54, 100
2, 11716320, Note_on_c, 0, 54, 0
2, 11716320, Note_on_c, 0, 57, 100
2, 11716560, Note_on_c, 0, 57, 0
2, 11716560, Note_on_c, 0, 60, 100
2, 11716800, Note_on_c, 0, 60, 0
2, 11716800, Note_on_c, 0, 57, 100
2, 11717040, Note_on_c, 0, 57, 0
2, 11717040, Note_on_c, 0, 54, 100
2, 11717280, Note_on_c, 0, 54, 0
2, 11717280, Note_on_c, 0, 51, 100
2, 11717520, Note_on_c, 0, 51, 0
2, 11717520, Note_on_c, 0, 47, 100
2, 11717640, Note_on_c, 0, 47, 0
2, 11717640, Note_on_c, 0, 51, 100
2, 11717760, Note_on_c, 0, 51, 0
2, 11717760, Note_on_c, 0, 54, 100
2, 11717880, Note_on_c, 0, 54, 0
2, 11717880, Note_on_c, 0, 59, 100
2, 11718000, Note_on_c, 0, 59, 0
2, 11718000, Note_on_c, 0, 63, 100
2, 11718120, Note_on_c, 0, 63, 0
2, 11718120, Note_on_c, 0, 66, 100
2, 11718240, Note_on_c, 0, 66, 0
2, 11718240, Note_on_c, 0, 69, 100
2, 11718360, Note_on_c, 0, 69, 0
2, 11718360, Note_on_c, 0, 67, 100
2, 11718480, Note_on_c, 0, 67, 0
2, 11718480, Note_on_c, 0, 66, 100
2, 11718840, Note_on_c, 0, 66, 0
2, 11718840, Note_on_c, 0, 67, 100
2, 11718960, Note_on_c, 0, 67, 0
2, 11718960, Note_on_c, 0, 54, 100
2, 11719320, Note_on_c, 0, 54, 0
2, 11719320, Note_on_c, 0, 55, 100
2, 11719440, Note_on_c, 0, 55, 0
2, 11719440, Note_on_c, 0, 47, 100
2, 11719800, Note_on_c, 0, 47, 0
2, 11719800, Note_on_c, 0, 48, 100
2, 11719920, Note_on_c, 0, 48, 0
2, 11719920, Note_on_c, 0, 71, 100
2, 11720280, Note_on_c, 0, 71, 0
2, 11720280, Note_on_c, 0, 72, 100
2, 11720400, Note_on_c, 0, 72, 0
2, 11720400, Note_on_c, 0, 59, 100
2, 11720760, Note_on_c, 0, 59, 0
2, 11720760, Note_on_c, 0, 60, 100
2, 11720880, Note_on_c, 0, 60, 0
2, 11720880, Note_on_c, 0, 52, 100
2, 11721240, Note_on_c, 0, 52, 0
2, 11721240, Note_on_c, 0, 51, 100
2, 11721360, Note_on_c, 0, 51, 0
2, 11721360, Note_on_c, 0, 57, 100
2, 11721600, Note_on_c, 0, 57, 0
2, 11721600, Note_on_c, 0, 55, 100
2, 11721840, Note_on_c, 0, 55, 0
2, 11721840, Note_on_c, 0, 46, 100
2, 11722080, Note_on_c, 0, 46, 0
2, 11722080, Note_on_c, 0, 47, 100
2, 11722320, Note_on_c, 0, 47, 0
2, 11722320, Note_on_c, 0, 54, 100
2, 11722560, Note_on_c, 0, 54, 0
2, 11722560, Note_on_c, 0, 52, 100
2, 11722800, Note_on_c, 0, 52, 0
2, 11722800, Note_on_c, 0, 55, 100
2, 11723040, Note_on_c, 0, 55, 0
2, 11723040, Note_on_c, 0, 54, 100
2, 11723160, Note_on_c, 0, 54, 0
2, 11723160, Note_on_c, 0, 55, 100
2, 11723280, Note_on_c, 0, 55, 0
2, 11723280, Note_on_c, 0, 52, 100
2, 11723520, Note_on_c, 0, 52, 0
2, 11723520, Note_on_c, 0, 40, 100
2, 11723760, Note_on_c, 0, 40, 0
2, 11723760, Note_on_c, 0, 50, 100
2, 11724120, Note_on_c, 0, 50, 0
2, 11724120, Note_on_c, 0, 48, 100
2, 11724240, Note_on_c, 0, 48, 0
2, 11724240, Note_on_c, 0, 52, 100
2, 11724360, Note_on_c, 0, 52, 0
2, 11724360, Note_on_c, 0, 57, 100
2, 11724480, Note_on_c, 0, 57, 0
2, 11724480, Note_on_c, 0, 60, 100
2, 11724600, Note_on_c, 0, 60, 0
2, 11724600, Note_on_c, 0, 64, 100
2, 11724720, Note_on_c, 0, 64, 0
2, 11724720, Note_on_c, 0, 60, 100
2, 11724840, Note_on_c, 0, 60, 0
2, 11724840, Note_on_c, 0, 57, 100
2, 11724960, Note_on_c, 0, 57, 0
2, 11724960, Note_on_c, 0, 52, 100
2, 11725080, Note_on_c, 0, 52, 0
2, 11725080, Note_on_c, 0, 48, 100
2, 11725200, Note_on_c, 0, 48, 0
2, 11725200, Note_on_c, 0, 52, 100
2, 11725320, Note_on_c, 0, 52, 0
2, 11725320, Note_on_c, 0, 50, 100
2, 11725440, Note_on_c, 0, 50, 0
2, 11725440, Note_on_c, 0, 48, 100
2, 11725560, Note_on_c, 0, 48, 0
2, 11725560, Note_on_c, 0, 47, 100
2, 11725680, Note_on_c, 0, 47, 0
2, 11725680, Note_on_c, 0, 50, 100
2, 11725800, Note_on_c, 0, 50, 0
2, 11725800, Note_on_c, 0, 55, 100
2, 11725920, Note_on_c, 0, 55, 0
2, 11725920, Note_on_c, 0, 59, 100
2, 11726040, Note_on_c, 0, 59, 0
2, 11726040, Note_on_c, 0, 62, 100
2, 11726160, Note_on_c, 0, 62, 0
2, 11726160, Note_on_c, 0, 59, 100
2, 11726280, Note_on_c, 0, 59, 0
2, 11726280, Note_on_c, 0, 55, 100
2, 11726400, Note_on_c, 0, 55, 0
2, 11726400, Note_on_c, 0, 50, 100
2, 11726520, Note_on_c, 0, 50, 0
2, 11726520, Note_on_c, 0, 47, 100
2, 11726640, Note_on_c, 0, 47, 0
2, 11726640, Note_on_c, 0, 50, 100
2, 11726760, Note_on_c, 0, 50, 0
2, 11726760, Note_on_c, 0, 48, 100
2, 11726880, Note_on_c, 0, 48, 0
2, 11726880, Note_on_c, 0, 47, 100
2, 11727000, Note_on_c, 0, 47, 0
2, 11727000, Note_on_c, 0, 45, 100
2, 11727120, Note_on_c, 0, 45, 0
2, 11727120, Note_on_c, 0, 48, 100
2, 11727360, Note_on_c, 0, 48, 0
2, 11727360, Note_on_c, 0, 52, 100
2, 11727600, Note_on_c, 0, 52, 0
2, 11727600, Note_on_c, 0, 55, 100
2, 11727840, Note_on_c, 0, 55, 0
2, 11727840, Note_on_c, 0, 54, 100
2, 11728080, Note_on_c, 0, 54, 0
2, 11728080, Note_on_c, 0, 52, 100
2, 11728320, Note_on_c, 0, 52, 0
2, 11728320, Note_on_c, 0, 50, 100
2, 11728560, Note_on_c, 0, 50, 0
2, 11728560, Note_on_c, 0, 54, 100
2, 11728800, Note_on_c, 0, 54, 0
2, 11728800, Note_on_c, 0, 57, 100
2, 11729040, Note_on_c, 0, 57, 0
2, 11729040, Note_on_c, 0, 60, 100
2, 11729280, Note_on_c, 0, 60, 0
2, 11729280, Note_on_c, 0, 59, 100
2, 11729520, Note_on_c, 0, 59, 0
2, 11729520, Note_on_c, 0, 57, 100
2, 11729760, Note_on_c, 0, 57, 0
2, 11729760, Note_on_c, 0, 55, 100
2, 11730000, Note_on_c, 0, 55, 0
2, 11730000, Note_on_c, 0, 59, 100
2, 11730240, Note_on_c, 0, 59, 0
2, 11730240, Note_on_c, 0, 62, 100
2, 11730480, Note_on_c, 0, 62, 0
2, 11730480, Note_on_c, 0, 65, 100
2, 11730720, Note_on_c, 0, 65, 0
2, 11730720, Note_on_c, 0, 64, 100
2, 11730960, Note_on_c, 0, 64, 0
2, 11730960, Note_on_c, 0, 62, 100
2, 11731200, Note_on_c, 0, 62, 0
2, 11731200, Note_on_c, 0, 60, 100
2, 11731440, Note_on_c, 0, 60, 0
2, 11731440, Note_on_c, 0, 64, 100
2, 11731680, Note_on_c, 0, 64, 0
2, 11731680, Note_on_c, 0, 66, 100
2, 11731920, Note_on_c, 0, 66, 0
2, 11731920, Note_on_c, 0, 68, 100
2, 11732160, Note_on_c, 0, 68, 0
2, 11732160, Note_on_c, 0, 69, 100
2, 11732400, Note_on_c, 0, 69, 0
2, 11732400, Note_on_c, 0, 67, 100
2, 11732640, Note_on_c, 0, 67, 0
2, 11732640, Note_on_c, 0, 66, 100
2, 11732880, Note_on_c, 0, 66, 0
2, 11732880, Note_on_c, 0, 62, 100
2, 11733120, Note_on_c, 0, 62, 0
2, 11733120, Note_on_c, 0, 67, 100
2, 11733360, Note_on_c, 0, 67, 0
2, 11733360, Note_on_c, 0, 55, 100
2, 11733600, Note_on_c, 0, 55, 0
2, 11733600, Note_on_c, 0, 62, 100
2, 11733840, Note_on_c, 0, 62, 0
2, 11733840, Note_on_c, 0, 50, 100
2, 11734080, Note_on_c, 0, 50, 0
2, 11734080, Note_on_c, 0, 55, 100
2, 11734320, Note_on_c, 0, 55, 0
2, 11734320, Note_on_c, 0, 43, 100
2, 11734440, Note_on_c, 0, 43, 0
2, 11734440, Note_on_c, 0, 45, 100
2, 11734560, Note_on_c, 0, 45, 0
2, 11734560, Note_on_c, 0, 47, 100
2, 11734680, Note_on_c, 0, 47, 0
2, 11734680, Note_on_c, 0, 48, 100
2, 11734800, Note_on_c, 0, 48, 0
2, 11734800, Note_on_c, 0, 50, 100
2, 11734920, Note_on_c, 0, 50, 0
2, 11734920, Note_on_c, 0, 52, 100
2, 11735040, Note_on_c, 0, 52, 0
2, 11735040, Note_on_c, 0, 54, 100
2, 11735160, Note_on_c, 0, 54, 0
2, 11735160, Note_on_c, 0, 55, 100
2, 11735280, Note_on_c, 0, 55, 0
2, 11735280, Note_on_c, 0, 59, 100
2, 11891040, Note_on_c, 0, 59, 0
2, 11891040, Note_on_c, 0, 55, 100
2, 11891280, Note_on_c, 0, 55, 0
2, 11891280, Note_on_c, 0, 62, 100
2, 11891520, Note_on_c, 0, 62, 0
2, 11891520, Note_on_c, 0, 55, 100
2, 11892480, Note_on_c, 0, 55, 0
2, 11892480, Note_on_c, 0, 59, 100
2, 11892720, Note_on_c, 0, 59, 0
2, 11892720, Note_on_c, 0, 52, 100
2, 11892960, Note_on_c, 0, 52, 0
2, 11892960, Note_on_c, 0, 57, 100
2, 11893200, Note_on_c, 0, 57, 0
2, 11893200, Note_on_c, 0, 55, 100
2, 11893440, Note_on_c, 0, 55, 0
2, 11893440, Note_on_c, 0, 54, 100
2, 11893920, Note_on_c, 0, 54, 0
2, 11893920, Note_on_c, 0, 52, 100
2, 11894040, Note_on_c, 0, 52, 0
2, 11894040, Note_on_c, 0, 54, 100
2, 11894160, Note_on_c, 0, 54, 0
2, 11894160, Note_on_c, 0, 55, 100
2, 11894400, Note_on_c, 0, 55, 0
2, 11894400, Note_on_c, 0, 50, 100
2, 11894640, Note_on_c, 0, 50, 0
2, 11894640, Note_on_c, 0, 62, 100
2, 11896080, Note_on_c, 0, 62, 0
2, 11896080, Note_on_c, 0, 66, 100
2, 11896320, Note_on_c, 0, 66, 0
2, 11896320, Note_on_c, 0, 59, 100
2, 11896560, Note_on_c, 0, 59, 0
2, 11896560, Note_on_c, 0, 64, 100
2, 11896800, Note_on_c, 0, 64, 0
2, 11896800, Note_on_c, 0, 61, 100
2, 11897520, Note_on_c, 0, 61, 0
2, 11897520, Note_on_c, 0, 64, 100
2, 11897760, Note_on_c, 0, 64, 0
2, 11897760, Note_on_c, 0, 57, 100
2, 11898000, Note_on_c, 0, 57, 0
2, 11898000, Note_on_c, 0, 55, 100
2, 11898960, Note_on_c, 0, 55, 0
2, 11898960, Note_on_c, 0, 59, 100
2, 11899200, Note_on_c, 0, 59, 0
2, 11899200, Note_on_c, 0, 52, 100
2, 11899440, Note_on_c, 0, 52, 0
2, 11899440, Note_on_c, 0, 54, 100
2, 11899680, Note_on_c, 0, 54, 0
2, 11899680, Note_on_c, 0, 52, 100
2, 11899920, Note_on_c, 0, 52, 0
2, 11899920, Note_on_c, 0, 50, 100
2, 11900160, Note_on_c, 0, 50, 0
2, 11900160, Note_on_c, 0, 59, 100
2, 11902560, Note_on_c, 0, 59, 0
2, 11902560, Note_on_c, 0, 55, 100
2, 11902800, Note_on_c, 0, 55, 0
2, 11902800, Note_on_c, 0, 62, 100
2, 11903040, Note_on_c, 0, 62, 0
2, 11903040, Note_on_c, 0, 55, 100
2, 11904000, Note_on_c, 0, 55, 0
2, 11904000, Note_on_c, 0, 59, 100
2, 11904240, Note_on_c, 0, 59, 0
2, 11904240, Note_on_c, 0, 52, 100
2, 11904480, Note_on_c, 0, 52, 0
2, 11904480, Note_on_c, 0, 57, 100
2, 11904720, Note_on_c, 0, 57, 0
2, 11904720, Note_on_c, 0, 55, 100
2, 11904960, Note_on_c, 0, 55, 0
2, 11904960, Note_on_c, 0, 54, 100
2, 11905440, Note_on_c, 0, 54, 0
2, 11905440, Note_on_c, 0, 52, 100
2, 11905560, Note_on_c, 0, 52, 0
2, 11905560, Note_on_c, 0, 54, 100
2, 11905680, Note_on_c, 0, 54, 0
2, 11905680, Note_on_c, 0, 55, 100
2, 11905920, Note_on_c, 0, 55, 0
2, 11905920, Note_on_c, 0, 50, 100
2, 11906160, Note_on_c, 0, 50, 0
2, 11906160, Note_on_c, 0, 62, 100
2, 11907600, Note_on_c, 0, 62, 0
2, 11907600, Note_on_c, 0, 66, 100
2, 11907840, Note_on_c, 0, 66, 0
2, 11907840, Note_on_c, 0, 59, 100
2, 11908080, Note_on_c, 0, 59, 0
2, 11908080, Note_on_c, 0, 64, 100
2, 11908320, Note_on_c, 0, 64, 0
2, 11908320, Note_on_c, 0, 61, 100
2, 11909040, Note_on_c, 0, 61, 0
2, 11909040, Note_on_c, 0, 64, 100
2, 11909280, Note_on_c, 0, 64, 0
2, 11909280, Note_on_c, 0, 57, 100
2, 11909520, Note_on_c, 0, 57, 0
2, 11909520, Note_on_c, 0, 55, 100
2, 11910480, Note_on_c, 0, 55, 0
2, 11910480, Note_on_c, 0, 59, 100
2, 11910720, Note_on_c, 0, 59, 0
2, 11910720, Note_on_c, 0, 52, 100
2, 11910960, Note_on_c, 0, 52, 0
2, 11910960, Note_on_c, 0, 54, 100
2, 11911200, Note_on_c, 0, 54, 0
2, 11911200, Note_on_c, 0, 52, 100
2, 11911440, Note_on_c, 0, 52, 0
2, 11911440, Note_on_c, 0, 50, 100
2, 11911680, Note_on_c, 0, 50, 0
2, 11911680, Note_on_c, 0, 62, 100
2, 11913360, Note_on_c, 0, 62, 0
2, 11913360, Note_on_c, 0, 67, 100
2, 11913600, Note_on_c, 0, 67, 0
2, 11913600, Note_on_c, 0, 64, 100
2, 11913840, Note_on_c, 0, 64, 0
2, 11913840, Note_on_c, 0, 60, 100
2, 11914080, Note_on_c, 0, 60, 0
2, 11914080, Note_on_c, 0, 59, 100
2, 11914800, Note_on_c, 0, 59, 0
2, 11914800, Note_on_c, 0, 57, 100
2, 11914920, Note_on_c, 0, 57, 0
2, 11914920, Note_on_c, 0, 55, 100
2, 11915040, Note_on_c, 0, 55, 0
2, 11915040, Note_on_c, 0, 54, 100
2, 11915160, Note_on_c, 0, 54, 0
2, 11915160, Note_on_c, 0, 55, 100
2, 11915280, Note_on_c, 0, 55, 0
2, 11915280, Note_on_c, 0, 57, 100
2, 11915400, Note_on_c, 0, 57, 0
2, 11915400, Note_on_c, 0, 59, 100
2, 11915520, Note_on_c, 0, 59, 0
2, 11915520, Note_on_c, 0, 57, 100
2, 11916240, Note_on_c, 0, 57, 0
2, 11916240, Note_on_c, 0, 59, 100
2, 11916480, Note_on_c, 0, 59, 0
2, 11916480, Note_on_c, 0, 60, 100
2, 11916720, Note_on_c, 0, 60, 0
2, 11916720, Note_on_c, 0, 59, 100
2, 11916960, Note_on_c, 0, 59, 0
2, 11916960, Note_on_c, 0, 55, 100
2, 11917680, Note_on_c, 0, 55, 0
2, 11917680, Note_on_c, 0, 59, 100
2, 11917920, Note_on_c, 0, 59, 0
2, 11917920, Note_on_c, 0, 52, 100
2, 11918160, Note_on_c, 0, 52, 0
2, 11918160, Note_on_c, 0, 57, 100
2, 11918400, Note_on_c, 0, 57, 0
2, 11918400, Note_on_c, 0, 55, 100
2, 11918520, Note_on_c, 0, 55, 0
2, 11918520, Note_on_c, 0, 54, 100
2, 11918640, Note_on_c, 0, 54, 0
2, 11918640, Note_on_c, 0, 55, 100
2, 11918760, Note_on_c, 0, 55, 0
2, 11918760, Note_on_c, 0, 62, 100
2, 11918880, Note_on_c, 0, 62, 0
2, 11918880, Note_on_c, 0, 60, 100
2, 11919600, Note_on_c, 0, 60, 0
2, 11919600, Note_on_c, 0, 54, 100
2, 11919840, Note_on_c, 0, 54, 0
2, 11919840, Note_on_c, 0, 57, 100
2, 11920080, Note_on_c, 0, 57, 0
2, 11920080, Note_on_c, 0, 50, 100
2, 11920320, Note_on_c, 0, 50, 0
2, 11920320, Note_on_c, 0, 55, 100
2, 11921520, Note_on_c, 0, 55, 0
2, 11921520, Note_on_c, 0, 57, 100
2, 11922000, Note_on_c, 0, 57, 0
2, 11922000, Note_on_c, 0, 60, 100
2, 11922240, Note_on_c, 0, 60, 0
2, 11922240, Note_on_c, 0, 54, 100
2, 11922480, Note_on_c, 0, 54, 0
2, 11922480, Note_on_c, 0, 55, 100
2, 11922720, Note_on_c, 0, 55, 0
2, 11922720, Note_on_c, 0, 57, 100
2, 11922960, Note_on_c, 0, 57, 0
2, 11922960, Note_on_c, 0, 55, 100
2, 11923200, Note_on_c, 0, 55, 0
2, 11923200, Note_on_c, 0, 62, 100
2, 11924880, Note_on_c, 0, 62, 0
2, 11924880, Note_on_c, 0, 67, 100
2, 11925120, Note_on_c, 0, 67, 0
2, 11925120, Note_on_c, 0, 64, 100
2, 11925360, Note_on_c, 0, 64, 0
2, 11925360, Note_on_c, 0, 60, 100
2, 11925600, Note_on_c, 0, 60, 0
2, 11925600, Note_on_c, 0, 59, 100
2, 11926320, Note_on_c, 0, 59, 0
2, 11926320, Note_on_c, 0, 57, 100
2, 11926440, Note_on_c, 0, 57, 0
2, 11926440, Note_on_c, 0, 55, 100
2, 11926560, Note_on_c, 0, 55, 0
2, 11926560, Note_on_c, 0, 54, 100
2, 11926680, Note_on_c, 0, 54, 0
2, 11926680, Note_on_c, 0, 55, 100
2, 11926800, Note_on_c, 0, 55, 0
2, 11926800, Note_on_c, 0, 57, 100
2, 11926920, Note_on_c, 0, 57, 0
2, 11926920, Note_on_c, 0, 59, 100
2, 11927040, Note_on_c, 0, 59, 0
2, 11927040, Note_on_c, 0, 57, 100
2, 11927760, Note_on_c, 0, 57, 0
2, 11927760, Note_on_c, 0, 59, 100
2, 11928000, Note_on_c, 0, 59, 0
2, 11928000, Note_on_c, 0, 60, 100
2, 11928240, Note_on_c, 0, 60, 0
2, 11928240, Note_on_c, 0, 59, 100
2, 11928480, Note_on_c, 0, 59, 0
2, 11928480, Note_on_c, 0, 55, 100
2, 11929200, Note_on_c, 0, 55, 0
2, 11929200, Note_on_c, 0, 59, 100
2, 11929440, Note_on_c, 0, 59, 0
2, 11929440, Note_on_c, 0, 52, 100
2, 11929680, Note_on_c, 0, 52, 0
2, 11929680, Note_on_c, 0, 57, 100
2, 11929920, Note_on_c, 0, 57, 0
2, 11929920, Note_on_c, 0, 55, 100
2, 11930040, Note_on_c, 0, 55, 0
2, 11930040, Note_on_c, 0, 54, 100
2, 11930160, Note_on_c, 0, 54, 0
2, 11930160, Note_on_c, 0, 55, 100
2, 11930280, Note_on_c, 0, 55, 0
2, 11930280, Note_on_c, 0, 62, 100
2, 11930400, Note_on_c, 0, 62, 0
2, 11930400, Note_on_c, 0, 60, 100
2, 11931120, Note_on_c, 0, 60, 0
2, 11931120, Note_on_c, 0, 54, 100
2, 11931360, Note_on_c, 0, 54, 0
2, 11931360, Note_on_c, 0, 57, 100
2, 11931600, Note_on_c, 0, 57, 0
2, 11931600, Note_on_c, 0, 50, 100
2, 11931840, Note_on_c, 0, 50, 0
2, 11931840, Note_on_c, 0, 55, 100
2, 11933040, Note_on_c, 0, 55, 0
2, 11933040, Note_on_c, 0, 57, 100
2, 11933520, Note_on_c, 0, 57, 0
2, 11933520, Note_on_c, 0, 60, 100
2, 11933760, Note_on_c, 0, 60, 0
2, 11933760, Note_on_c, 0, 54, 100
2, 11934000, Note_on_c, 0, 54, 0
2, 11934000, Note_on_c, 0, 55, 100
2, 11934240, Note_on_c, 0, 55, 0
2, 11934240, Note_on_c, 0, 57, 100
2, 11934480, Note_on_c, 0, 57, 0
2, 11934480, Note_on_c, 0, 55, 100
2, 11935440, Note_on_c, 0, 55, 0
2, 11935440, Note_on_c, 0, 71, 100
2, 11935920, Note_on_c, 0, 71, 0
2, 11935920, Note_on_c, 0, 55, 100
2, 11936400, Note_on_c, 0, 55, 0
2, 11936400, Note_on_c, 0, 54, 100
2, 11936880, Note_on_c, 0, 54, 0
2, 11936880, Note_on_c, 0, 69, 100
2, 11937360, Note_on_c, 0, 69, 0
2, 11937360, Note_on_c, 0, 54, 100
2, 11937840, Note_on_c, 0, 54, 0
2, 11937840, Note_on_c, 0, 52, 100
2, 11938320, Note_on_c, 0, 52, 0
2, 11938320, Note_on_c, 0, 67, 100
2, 11938800, Note_on_c, 0, 67, 0
2, 11938800, Note_on_c, 0, 52, 100
2, 11939280, Note_on_c, 0, 52, 0
2, 11939280, Note_on_c, 0, 50, 100
2, 11939760, Note_on_c, 0, 50, 0
2, 11939760, Note_on_c, 0, 66, 100
2, 11940240, Note_on_c, 0, 66, 0
2, 11940240, Note_on_c, 0, 50, 100
2, 11940720, Note_on_c, 0, 50, 0
2, 11940720, Note_on_c, 0, 48, 100
2, 11940960, Note_on_c, 0, 48, 0
2, 11940960, Note_on_c, 0, 47, 100
2, 11941200, Note_on_c, 0, 47, 0
2, 11941200, Note_on_c, 0, 74, 100
2, 11941680, Note_on_c, 0, 74, 0
2, 11941680, Note_on_c, 0, 47, 100
2, 11942160, Note_on_c, 0, 47, 0
2, 11942160, Note_on_c, 0, 48, 100
2, 11942640, Note_on_c, 0, 48, 0
2, 11942640, Note_on_c, 0, 76, 100
2, 11943120, Note_on_c, 0, 76, 0
2, 11943120, Note_on_c, 0, 48, 100
2, 11943600, Note_on_c, 0, 48, 0
2, 11943600, Note_on_c, 0, 50, 100
2, 11944080, Note_on_c, 0, 50, 0
2, 11944080, Note_on_c, 0, 69, 100
2, 11944560, Note_on_c, 0, 69, 0
2, 11944560, Note_on_c, 0, 50, 100
2, 11945040, Note_on_c, 0, 50, 0
2, 11945040, Note_on_c, 0, 43, 100
2, 11945520, Note_on_c, 0, 43, 0
2, 11945520, Note_on_c, 0, 71, 100
2, 11946000, Note_on_c, 0, 71, 0
2, 11946000, Note_on_c, 0, 69, 100
2, 11946600, Note_on_c, 0, 69, 0
2, 11946600, Note_on_c, 0, 67, 100
2, 11946720, Note_on_c, 0, 67, 0
2, 11946720, Note_on_c, 0, 66, 100
2, 11946840, Note_on_c, 0, 66, 0
2, 11946840, Note_on_c, 0, 67, 100
2, 11946960, Note_on_c, 0, 67, 0
2, 11946960, Note_on_c, 0, 71, 100
2, 11947080, Note_on_c, 0, 71, 0
2, 11947080, Note_on_c, 0, 73, 100
2, 11947200, Note_on_c, 0, 73, 0
2, 11947200, Note_on_c, 0, 74, 100
2, 11947320, Note_on_c, 0, 74, 0
2, 11947320, Note_on_c, 0, 76, 100
2, 11947440, Note_on_c, 0, 76, 0
2, 11947440, Note_on_c, 0, 78, 100
2, 11947560, Note_on_c, 0, 78, 0
2, 11947560, Note_on_c, 0, 76, 100
2, 11947680, Note_on_c, 0, 76, 0
2, 11947680, Note_on_c, 0, 74, 100
2, 11947800, Note_on_c, 0, 74, 0
2, 11947800, Note_on_c, 0, 73, 100
2, 11947920, Note_on_c, 0, 73, 0
2, 11947920, Note_on_c, 0, 71, 100
2, 11948040, Note_on_c, 0, 71, 0
2, 11948040, Note_on_c, 0, 69, 100
2, 11948160, Note_on_c, 0, 69, 0
2, 11948160, Note_on_c, 0, 67, 100
2, 11948280, Note_on_c, 0, 67, 0
2, 11948280, Note_on_c, 0, 66, 100
2, 11948400, Note_on_c, 0, 66, 0
2, 11948400, Note_on_c, 0, 69, 100
2, 11948520, Note_on_c, 0, 69, 0
2, 11948520, Note_on_c, 0, 71, 100
2, 11948640, Note_on_c, 0, 71, 0
2, 11948640, Note_on_c, 0, 73, 100
2, 11948760, Note_on_c, 0, 73, 0
2, 11948760, Note_on_c, 0, 74, 100
2, 11948880, Note_on_c, 0, 74, 0
2, 11948880, Note_on_c, 0, 76, 100
2, 11949000, Note_on_c, 0, 76, 0
2, 11949000, Note_on_c, 0, 74, 100
2, 11949120, Note_on_c, 0, 74, 0
2, 11949120, Note_on_c, 0, 73, 100
2, 11949240, Note_on_c, 0, 73, 0
2, 11949240, Note_on_c, 0, 71, 100
2, 11949360, Note_on_c, 0, 71, 0
2, 11949360, Note_on_c, 0, 69, 100
2, 11949480, Note_on_c, 0, 69, 0
2, 11949480, Note_on_c, 0, 67, 100
2, 11949600, Note_on_c, 0, 67, 0
2, 11949600, Note_on_c, 0, 66, 100
2, 11949720, Note_on_c, 0, 66, 0
2, 11949720, Note_on_c, 0, 64, 100
2, 11949840, Note_on_c, 0, 64, 0
2, 11949840, Note_on_c, 0, 66, 100
2, 11950080, Note_on_c, 0, 66, 0
2, 11950080, Note_on_c, 0, 67, 100
2, 11950320, Note_on_c, 0, 67, 0
2, 11950320, Note_on_c, 0, 71, 100
2, 11950560, Note_on_c, 0, 71, 0
2, 11950560, Note_on_c, 0, 76, 100
2, 11950800, Note_on_c, 0, 76, 0
2, 11950800, Note_on_c, 0, 74, 100
2, 11950840, Note_on_c, 0, 74, 0
2, 11950840, Note_on_c, 0, 76, 100
2, 11950880, Note_on_c, 0, 76, 0
2, 11950880, Note_on_c, 0, 74, 100
2, 11951520, Note_on_c, 0, 74, 0
2, 11951520, Note_on_c, 0, 73, 100
2, 11951760, Note_on_c, 0, 73, 0
2, 11951760, Note_on_c, 0, 76, 100
2, 11951880, Note_on_c, 0, 76, 0
2, 11951880, Note_on_c, 0, 71, 100
2, 11952000, Note_on_c, 0, 71, 0
2, 11952000, Note_on_c, 0, 76, 100
2, 11952120, Note_on_c, 0, 76, 0
2, 11952120, Note_on_c, 0, 69, 100
2, 11952240, Note_on_c, 0, 69, 0
2, 11952240, Note_on_c, 0, 76, 100
2, 11952360, Note_on_c, 0, 76, 0
2, 11952360, Note_on_c, 0, 67, 100
2, 11952480, Note_on_c, 0, 67, 0
2, 11952480, Note_on_c, 0, 76, 100
2, 11952600, Note_on_c, 0, 76, 0
2, 11952600, Note_on_c, 0, 66, 100
2, 11952720, Note_on_c, 0, 66, 0
2, 11952720, Note_on_c, 0, 76, 100
2, 11952840, Note_on_c, 0, 76, 0
2, 11952840, Note_on_c, 0, 74, 100
2, 11952960, Note_on_c, 0, 74, 0
2, 11952960, Note_on_c, 0, 73, 100
2, 11953080, Note_on_c, 0, 73, 0
2, 11953080, Note_on_c, 0, 74, 100
2, 11953200, Note_on_c, 0, 74, 0
2, 11953200, Note_on_c, 0, 69, 100
2, 11953320, Note_on_c, 0, 69, 0
2, 11953320, Note_on_c, 0, 62, 100
2, 11953440, Note_on_c, 0, 62, 0
2, 11953440, Note_on_c, 0, 74, 100
2, 11953560, Note_on_c, 0, 74, 0
2, 11953560, Note_on_c, 0, 64, 100
2, 11953680, Note_on_c, 0, 64, 0
2, 11953680, Note_on_c, 0, 74, 100
2, 11953800, Note_on_c, 0, 74, 0
2, 11953800, Note_on_c, 0, 66, 100
2, 11953920, Note_on_c, 0, 66, 0
2, 11953920, Note_on_c, 0, 76, 100
2, 11954040, Note_on_c, 0, 76, 0
2, 11954040, Note_on_c, 0, 67, 100
2, 11954160, Note_on_c, 0, 67, 0
2, 11954160, Note_on_c, 0, 76, 100
2, 11954280, Note_on_c, 0, 76, 0
2, 11954280, Note_on_c, 0, 74, 100
2, 11954400, Note_on_c, 0, 74, 0
2, 11954400, Note_on_c, 0, 73, 100
2, 11954520, Note_on_c, 0, 73, 0
2, 11954520, Note_on_c, 0, 74, 100
2, 11954640, Note_on_c, 0, 74, 0
2, 11954640, Note_on_c, 0, 71, 100
2, 11954760, Note_on_c, 0, 71, 0
2, 11954760, Note_on_c, 0, 64, 100
2, 11954880, Note_on_c, 0, 64, 0
2, 11954880, Note_on_c, 0, 74, 100
2, 11955000, Note_on_c, 0, 74, 0
2, 11955000, Note_on_c, 0, 66, 100
2, 11955120, Note_on_c, 0, 66, 0
2, 11955120, Note_on_c, 0, 74, 100
2, 11955240, Note_on_c, 0, 74, 0
2, 11955240, Note_on_c, 0, 67, 100
2, 11955360, Note_on_c, 0, 67, 0
2, 11955360, Note_on_c, 0, 74, 100
2, 11955480, Note_on_c, 0, 74, 0
2, 11955480, Note_on_c, 0, 69, 100
2, 11955600, Note_on_c, 0, 69, 0
2, 11955600, Note_on_c, 0, 74, 100
2, 11955720, Note_on_c, 0, 74, 0
2, 11955720, Note_on_c, 0, 73, 100
2, 11955840, Note_on_c, 0, 73, 0
2, 11955840, Note_on_c, 0, 71, 100
2, 11955960, Note_on_c, 0, 71, 0
2, 11955960, Note_on_c, 0, 73, 100
2, 11956080, Note_on_c, 0, 73, 0
2, 11956080, Note_on_c, 0, 76, 100
2, 11956200, Note_on_c, 0, 76, 0
2, 11956200, Note_on_c, 0, 69, 100
2, 11956320, Note_on_c, 0, 69, 0
2, 11956320, Note_on_c, 0, 73, 100
2, 11956440, Note_on_c, 0, 73, 0
2, 11956440, Note_on_c, 0, 64, 100
2, 11956560, Note_on_c, 0, 64, 0
2, 11956560, Note_on_c, 0, 67, 100
2, 11956680, Note_on_c, 0, 67, 0
2, 11956680, Note_on_c, 0, 66, 100
2, 11956800, Note_on_c, 0, 66, 0
2, 11956800, Note_on_c, 0, 64, 100
2, 11956920, Note_on_c, 0, 64, 0
2, 11956920, Note_on_c, 0, 66, 100
2, 11957040, Note_on_c, 0, 66, 0
2, 11957040, Note_on_c, 0, 69, 100
2, 11957160, Note_on_c, 0, 69, 0
2, 11957160, Note_on_c, 0, 62, 100
2, 11957280, Note_on_c, 0, 62, 0
2, 11957280, Note_on_c, 0, 66, 100
2, 11957400, Note_on_c, 0, 66, 0
2, 11957400, Note_on_c, 0, 57, 100
2, 11957520, Note_on_c, 0, 57, 0
2, 11957520, Note_on_c, 0, 62, 100
2, 11957640, Note_on_c, 0, 62, 0
2, 11957640, Note_on_c, 0, 54, 100
2, 11957760, Note_on_c, 0, 54, 0
2, 11957760, Note_on_c, 0, 57, 100
2, 11957880, Note_on_c, 0, 57, 0
2, 11957880, Note_on_c, 0, 50, 100
2, 11958000, Note_on_c, 0, 50, 0
2, 11958000, Note_on_c, 0, 55, 100
2, 11958480, Note_on_c, 0, 55, 0
2, 11958480, Note_on_c, 0, 71, 100
2, 11958960, Note_on_c, 0, 71, 0
2, 11958960, Note_on_c, 0, 55, 100
2, 11959440, Note_on_c, 0, 55, 0
2, 11959440, Note_on_c, 0, 54, 100
2, 11959920, Note_on_c, 0, 54, 0
2, 11959920, Note_on_c, 0, 69, 100
2, 11960400, Note_on_c, 0, 69, 0
2, 11960400, Note_on_c, 0, 54, 100
2, 11960880, Note_on_c, 0, 54, 0
2, 11960880, Note_on_c, 0, 52, 100
2, 11961360, Note_on_c, 0, 52, 0
2, 11961360, Note_on_c, 0, 67, 100
2, 11961840, Note_on_c, 0, 67, 0
2, 11961840, Note_on_c, 0, 52, 100
2, 11962320, Note_on_c, 0, 52, 0
2, 11962320, Note_on_c, 0, 50, 100
2, 11962800, Note_on_c, 0, 50, 0
2, 11962800, Note_on_c, 0, 66, 100
2, 11963280, Note_on_c, 0, 66, 0
2, 11963280, Note_on_c, 0, 50, 100
2, 11963760, Note_on_c, 0, 50, 0
2, 11963760, Note_on_c, 0, 48, 100
2, 11964000, Note_on_c, 0, 48, 0
2, 11964000, Note_on_c, 0, 47, 100
2, 11964240, Note_on_c, 0, 47, 0
2, 11964240, Note_on_c, 0, 74, 100
2, 11964720, Note_on_c, 0, 74, 0
2, 11964720, Note_on_c, 0, 47, 100
2, 11965200, Note_on_c, 0, 47, 0
2, 11965200, Note_on_c, 0, 48, 100
2, 11965680, Note_on_c, 0, 48, 0
2, 11965680, Note_on_c, 0, 76, 100
2, 11966160, Note_on_c, 0, 76, 0
2, 11966160, Note_on_c, 0, 48, 100
2, 11966640, Note_on_c, 0, 48, 0
2, 11966640, Note_on_c, 0, 50, 100
2, 11967120, Note_on_c, 0, 50, 0
2, 11967120, Note_on_c, 0, 69, 100
2, 11967600, Note_on_c, 0, 69, 0
2, 11967600, Note_on_c, 0, 50, 100
2, 11968080, Note_on_c, 0, 50, 0
2, 11968080, Note_on_c, 0, 43, 100
2, 11968560, Note_on_c, 0, 43, 0
2, 11968560, Note_on_c, 0, 71, 100
2, 11969040, Note_on_c, 0, 71, 0
2, 11969040, Note_on_c, 0, 69, 100
2, 11969640, Note_on_c, 0, 69, 0
2, 11969640, Note_on_c, 0, 67, 100
2, 11969760, Note_on_c, 0, 67, 0
2, 11969760, Note_on_c, 0, 66, 100
2, 11969880, Note_on_c, 0, 66, 0
2, 11969880, Note_on_c, 0, 67, 100
2, 11970000, Note_on_c, 0, 67, 0
2, 11970000, Note_on_c, 0, 71, 100
2, 11970120, Note_on_c, 0, 71, 0
2, 11970120, Note_on_c, 0, 73, 100
2, 11970240, Note_on_c, 0, 73, 0
2, 11970240, Note_on_c, 0, 74, 100
2, 11970360, Note_on_c, 0, 74, 0
2, 11970360, Note_on_c, 0, 76, 100
2, 11970480, Note_on_c, 0, 76, 0
2, 11970480, Note_on_c, 0, 78, 100
2, 11970600, Note_on_c, 0, 78, 0
2, 11970600, Note_on_c, 0, 76, 100
2, 11970720, Note_on_c, 0, 76, 0
2, 11970720, Note_on_c, 0, 74, 100
2, 11970840, Note_on_c, 0, 74, 0
2, 11970840, Note_on_c, 0, 73, 100
2, 11970960, Note_on_c, 0, 73, 0
2, 11970960, Note_on_c, 0, 71, 100
2, 11971080, Note_on_c, 0, 71, 0
2, 11971080, Note_on_c, 0, 69, 100
2, 11971200, Note_on_c, 0, 69, 0
2, 11971200, Note_on_c, 0, 67, 100
2, 11971320, Note_on_c, 0, 67, 0
2, 11971320, Note_on_c, 0, 66, 100
2, 11971440, Note_on_c, 0, 66, 0
2, 11971440, Note_on_c, 0, 69, 100
2, 11971560, Note_on_c, 0, 69, 0
2, 11971560, Note_on_c, 0, 71, 100
2, 11971680, Note_on_c, 0, 71, 0
2, 11971680, Note_on_c, 0, 73, 100
2, 11971800, Note_on_c, 0, 73, 0
2, 11971800, Note_on_c, 0, 74, 100
2, 11971920, Note_on_c, 0, 74, 0
2, 11971920, Note_on_c, 0, 76, 100
2, 11972040, Note_on_c, 0, 76, 0
2, 11972040, Note_on_c, 0, 74, 100
2, 11972160, Note_on_c, 0, 74, 0
2, 11972160, Note_on_c, 0, 73, 100
2, 11972280, Note_on_c, 0, 73, 0
2, 11972280, Note_on_c, 0, 71, 100
2, 11972400, Note_on_c, 0, 71, 0
2, 11972400, Note_on_c, 0, 69, 100
2, 11972520, Note_on_c, 0, 69, 0
2, 11972520, Note_on_c, 0, 67, 100
2, 11972640, Note_on_c, 0, 67, 0
2, 11972640, Note_on_c, 0, 66, 100
2, 11972760, Note_on_c, 0, 66, 0
2, 11972760, Note_on_c, 0, 64, 100
2, 11972880, Note_on_c, 0, 64, 0
2, 11972880, Note_on_c, 0, 66, 100
2, 11973120, Note_on_c, 0, 66, 0
2, 11973120, Note_on_c, 0, 67, 100
2, 11973360, Note_on_c, 0, 67, 0
2, 11973360, Note_on_c, 0, 71, 100
2, 11973600, Note_on_c, 0, 71, 0
2, 11973600, Note_on_c, 0, 76, 100
2, 11973840, Note_on_c, 0, 76, 0
2, 11973840, Note_on_c, 0, 74, 100
2, 11973880, Note_on_c, 0, 74, 0
2, 11973880, Note_on_c, 0, 76, 100
2, 11973920, Note_on_c, 0, 76, 0
2, 11973920, Note_on_c, 0, 74, 100
2, 11974560, Note_on_c, 0, 74, 0
2, 11974560, Note_on_c, 0, 73, 100
2, 11974800, Note_on_c, 0, 73, 0
2, 11974800, Note_on_c, 0, 76, 100
2, 11974920, Note_on_c, 0, 76, 0
2, 11974920, Note_on_c, 0, 71, 100
2, 11975040, Note_on_c, 0, 71, 0
2, 11975040, Note_on_c, 0, 76, 100
2, 11975160, Note_on_c, 0, 76, 0
2, 11975160, Note_on_c, 0, 69, 100
2, 11975280, Note_on_c, 0, 69, 0
2, 11975280, Note_on_c, 0, 76, 100
2, 11975400, Note_on_c, 0, 76, 0
2, 11975400, Note_on_c, 0, 67, 100
2, 11975520, Note_on_c, 0, 67, 0
2, 11975520, Note_on_c, 0, 76, 100
2, 11975640, Note_on_c, 0, 76, 0
2, 11975640, Note_on_c, 0, 66, 100
2, 11975760, Note_on_c, 0, 66, 0
2, 11975760, Note_on_c, 0, 76, 100
2, 11975880, Note_on_c, 0, 76, 0
2, 11975880, Note_on_c, 0, 74, 100
2, 11976000, Note_on_c, 0, 74, 0
2, 11976000, Note_on_c, 0, 73, 100
2, 11976120, Note_on_c, 0, 73, 0
2, 11976120, Note_on_c, 0, 74, 100
2, 11976240, Note_on_c, 0, 74, 0
2, 11976240, Note_on_c, 0, 69, 100
2, 11976360, Note_on_c, 0, 69, 0
2, 11976360, Note_on_c, 0, 62, 100
2, 11976480, Note_on_c, 0, 62, 0
2, 11976480, Note_on_c, 0, 74, 100
2, 11976600, Note_on_c, 0, 74, 0
2, 11976600, Note_on_c, 0, 64, 100
2, 11976720, Note_on_c, 0, 64, 0
2, 11976720, Note_on_c, 0, 74, 100
2, 11976840, Note_on_c, 0, 74, 0
2, 11976840, Note_on_c, 0, 66, 100
2, 11976960, Note_on_c, 0, 66, 0
2, 11976960, Note_on_c, 0, 76, 100
2, 11977080, Note_on_c, 0, 76, 0
2, 11977080, Note_on_c, 0, 67, 100
2, 11977200, Note_on_c, 0, 67, 0
2, 11977200, Note_on_c, 0, 76, 100
2, 11977320, Note_on_c, 0, 76, 0
2, 11977320, Note_on_c, 0, 74, 100
2, 11977440, Note_on_c, 0, 74, 0
2, 11977440, Note_on_c, 0, 73, 100
2, 11977560, Note_on_c, 0, 73, 0
2, 11977560, Note_on_c, 0, 74, 100
2, 11977680, Note_on_c, 0, 74, 0
2, 11977680, Note_on_c, 0, 71, 100
2, 11977800, Note_on_c, 0, 71, 0
2, 11977800, Note_on_c, 0, 64, 100
2, 11977920, Note_on_c, 0, 64, 0
2, 11977920, Note_on_c, 0, 74, 100
2, 11978040, Note_on_c, 0, 74, 0
2, 11978040, Note_on_c, 0, 66, 100
2, 11978160, Note_on_c, 0, 66, 0
2, 11978160, Note_on_c, 0, 74, 100
2, 11978280, Note_on_c, 0, 74, 0
2, 11978280, Note_on_c, 0, 67, 100
2, 11978400, Note_on_c, 0, 67, 0
2, 11978400, Note_on_c, 0, 74, 100
2, 11978520, Note_on_c, 0, 74, 0
2, 11978520, Note_on_c, 0, 69, 100
2, 11978640, Note_on_c, 0, 69, 0
2, 11978640, Note_on_c, 0, 74, 100
2, 11978760, Note_on_c, 0, 74, 0
2, 11978760, Note_on_c, 0, 73, 100
2, 11978880, Note_on_c, 0, 73, 0
2, 11978880, Note_on_c, 0, 71, 100
2, 11979000, Note_on_c, 0, 71, 0
2, 11979000, Note_on_c, 0, 73, 100
2, 11979120, Note_on_c, 0, 73, 0
2, 11979120, Note_on_c, 0, 76, 100
2, 11979240, Note_on_c, 0, 76, 0
2, 11979240, Note_on_c, 0, 69, 100
2, 11979360, Note_on_c, 0, 69, 0
2, 11979360, Note_on_c, 0, 73, 100
2, 11979480, Note_on_c, 0, 73, 0
2, 11979480, Note_on_c, 0, 64, 100
2, 11979600, Note_on_c, 0, 64, 0
2, 11979600, Note_on_c, 0, 67, 100
2, 11979720, Note_on_c, 0, 67, 0
2, 11979720, Note_on_c, 0, 66, 100
2, 11979840, Note_on_c, 0, 66, 0
2, 11979840, Note_on_c, 0, 64, 100
2, 11979960, Note_on_c, 0, 64, 0
2, 11979960, Note_on_c, 0, 66, 100
2, 11980080, Note_on_c, 0, 66, 0
2, 11980080, Note_on_c, 0, 69, 100
2, 11980200, Note_on_c, 0, 69, 0
2, 11980200, Note_on_c, 0, 62, 100
2, 11980320, Note_on_c, 0, 62, 0
2, 11980320, Note_on_c, 0, 66, 100
2, 11980440, Note_on_c, 0, 66, 0
2, 11980440, Note_on_c, 0, 57, 100
2, 11980560, Note_on_c, 0, 57, 0
2, 11980560, Note_on_c, 0, 62, 100
2, 11980680, Note_on_c, 0, 62, 0
2, 11980680, Note_on_c, 0, 54, 100
2, 11980800, Note_on_c, 0, 54, 0
2, 11980800, Note_on_c, 0, 57, 100
2, 11980920, Note_on_c, 0, 57, 0
2, 11980920, Note_on_c, 0, 50, 100
2, 11981040, Note_on_c, 0, 50, 0
2, 11981040, Note_on_c, 0, 74, 100
2, 11981640, Note_on_c, 0, 74, 0
2, 11981640, Note_on_c, 0, 72, 100
2, 11981760, Note_on_c, 0, 72, 0
2, 11981760, Note_on_c, 0, 71, 100
2, 11981880, Note_on_c, 0, 71, 0
2, 11981880, Note_on_c, 0, 69, 100
2, 11982000, Note_on_c, 0, 69, 0
2, 11982000, Note_on_c, 0, 67, 100
2, 11982120, Note_on_c, 0, 67, 0
2, 11982120, Note_on_c, 0, 66, 100
2, 11982240, Note_on_c, 0, 66, 0
2, 11982240, Note_on_c, 0, 64, 100
2, 11982360, Note_on_c, 0, 64, 0
2, 11982360, Note_on_c, 0, 62, 100
2, 11982480, Note_on_c, 0, 62, 0
2, 11982480, Note_on_c, 0, 72, 100
2, 11982600, Note_on_c, 0, 72, 0
2, 11982600, Note_on_c, 0, 71, 100
2, 11982720, Note_on_c, 0, 71, 0
2, 11982720, Note_on_c, 0, 69, 100
2, 11982840, Note_on_c, 0, 69, 0
2, 11982840, Note_on_c, 0, 71, 100
2, 11982960, Note_on_c, 0, 71, 0
2, 11982960, Note_on_c, 0, 67, 100
2, 11983080, Note_on_c, 0, 67, 0
2, 11983080, Note_on_c, 0, 66, 100
2, 11983200, Note_on_c, 0, 66, 0
2, 11983200, Note_on_c, 0, 64, 100
2, 11983320, Note_on_c, 0, 64, 0
2, 11983320, Note_on_c, 0, 62, 100
2, 11983440, Note_on_c, 0, 62, 0
2, 11983440, Note_on_c, 0, 60, 100
2, 11983560, Note_on_c, 0, 60, 0
2, 11983560, Note_on_c, 0, 59, 100
2, 11983680, Note_on_c, 0, 59, 0
2, 11983680, Note_on_c, 0, 57, 100
2, 11983800, Note_on_c, 0, 57, 0
2, 11983800, Note_on_c, 0, 55, 100
2, 11983920, Note_on_c, 0, 55, 0
2, 11983920, Note_on_c, 0, 67, 100
2, 11984040, Note_on_c, 0, 67, 0
2, 11984040, Note_on_c, 0, 69, 100
2, 11984160, Note_on_c, 0, 69, 0
2, 11984160, Note_on_c, 0, 71, 100
2, 11984280, Note_on_c, 0, 71, 0
2, 11984280, Note_on_c, 0, 72, 100
2, 11984400, Note_on_c, 0, 72, 0
2, 11984400, Note_on_c, 0, 74, 100
2, 11984520, Note_on_c, 0, 74, 0
2, 11984520, Note_on_c, 0, 76, 100
2, 11984640, Note_on_c, 0, 76, 0
2, 11984640, Note_on_c, 0, 74, 100
2, 11984760, Note_on_c, 0, 74, 0
2, 11984760, Note_on_c, 0, 72, 100
2, 11984880, Note_on_c, 0, 72, 0
2, 11984880, Note_on_c, 0, 71, 100
2, 11985000, Note_on_c, 0, 71, 0
2, 11985000, Note_on_c, 0, 69, 100
2, 11985120, Note_on_c, 0, 69, 0
2, 11985120, Note_on_c, 0, 67, 100
2, 11985240, Note_on_c, 0, 67, 0
2, 11985240, Note_on_c, 0, 69, 100
2, 11985360, Note_on_c, 0, 69, 0
2, 11985360, Note_on_c, 0, 71, 100
2, 11985480, Note_on_c, 0, 71, 0
2, 11985480, Note_on_c, 0, 72, 100
2, 11985600, Note_on_c, 0, 72, 0
2, 11985600, Note_on_c, 0, 69, 100
2, 11985720, Note_on_c, 0, 69, 0
2, 11985720, Note_on_c, 0, 71, 100
2, 11985840, Note_on_c, 0, 71, 0
2, 11985840, Note_on_c, 0, 69, 100
2, 11985960, Note_on_c, 0, 69, 0
2, 11985960, Note_on_c, 0, 71, 100
2, 11986080, Note_on_c, 0, 71, 0
2, 11986080, Note_on_c, 0, 66, 100
2, 11986200, Note_on_c, 0, 66, 0
2, 11986200, Note_on_c, 0, 59, 100
2, 11986320, Note_on_c, 0, 59, 0
2, 11986320, Note_on_c, 0, 61, 100
2, 11986440, Note_on_c, 0, 61, 0
2, 11986440, Note_on_c, 0, 63, 100
2, 11986560, Note_on_c, 0, 63, 0
2, 11986560, Note_on_c, 0, 64, 100
2, 11986680, Note_on_c, 0, 64, 0
2, 11986680, Note_on_c, 0, 66, 100
2, 11986800, Note_on_c, 0, 66, 0
2, 11986800, Note_on_c, 0, 67, 100
2, 11986920, Note_on_c, 0, 67, 0
2, 11986920, Note_on_c, 0, 69, 100
2, 11987040, Note_on_c, 0, 69, 0
2, 11987040, Note_on_c, 0, 66, 100
2, 11987160, Note_on_c, 0, 66, 0
2, 11987160, Note_on_c, 0, 67, 100
2, 11987280, Note_on_c, 0, 67, 0
2, 11987280, Note_on_c, 0, 71, 100
2, 11987400, Note_on_c, 0, 71, 0
2, 11987400, Note_on_c, 0, 67, 100
2, 11987520, Note_on_c, 0, 67, 0
2, 11987520, Note_on_c, 0, 64, 100
2, 11987640, Note_on_c, 0, 64, 0
2, 11987640, Note_on_c, 0, 67, 100
2, 11987760, Note_on_c, 0, 67, 0
2, 11987760, Note_on_c, 0, 71, 100
2, 11987880, Note_on_c, 0, 71, 0
2, 11987880, Note_on_c, 0, 67, 100
2, 11988000, Note_on_c, 0, 67, 0
2, 11988000, Note_on_c, 0, 64, 100
2, 11988120, Note_on_c, 0, 64, 0
2, 11988120, Note_on_c, 0, 67, 100
2, 11988240, Note_on_c, 0, 67, 0
2, 11988240, Note_on_c, 0, 71, 100
2, 11988360, Note_on_c, 0, 71, 0
2, 11988360, Note_on_c, 0, 67, 100
2, 11988480, Note_on_c, 0, 67, 0
2, 11988480, Note_on_c, 0, 64, 100
2, 11988600, Note_on_c, 0, 64, 0
2, 11988600, Note_on_c, 0, 69, 100
2, 11988720, Note_on_c, 0, 69, 0
2, 11988720, Note_on_c, 0, 72, 100
2, 11988840, Note_on_c, 0, 72, 0
2, 11988840, Note_on_c, 0, 69, 100
2, 11988960, Note_on_c, 0, 69, 0
2, 11988960, Note_on_c, 0, 64, 100
2, 11989080, Note_on_c, 0, 64, 0
2, 11989080, Note_on_c, 0, 67, 100
2, 11989200, Note_on_c, 0, 67, 0
2, 11989200, Note_on_c, 0, 72, 100
2, 11989320, Note_on_c, 0, 72, 0
2, 11989320, Note_on_c, 0, 67, 100
2, 11989440, Note_on_c, 0, 67, 0
2, 11989440, Note_on_c, 0, 64, 100
2, 11989560, Note_on_c, 0, 64, 0
2, 11989560, Note_on_c, 0, 66, 100
2, 11989680, Note_on_c, 0, 66, 0
2, 11989680, Note_on_c, 0, 72, 100
2, 11989800, Note_on_c, 0, 72, 0
2, 11989800, Note_on_c, 0, 66, 100
2, 11989920, Note_on_c, 0, 66, 0
2, 11989920, Note_on_c, 0, 64, 100
2, 11990040, Note_on_c, 0, 64, 0
2, 11990040, Note_on_c, 0, 67, 100
2, 11990160, Note_on_c, 0, 67, 0
2, 11990160, Note_on_c, 0, 71, 100
2, 11990280, Note_on_c, 0, 71, 0
2, 11990280, Note_on_c, 0, 67, 100
2, 11990400, Note_on_c, 0, 67, 0
2, 11990400, Note_on_c, 0, 64, 100
2, 11990520, Note_on_c, 0, 64, 0
2, 11990520, Note_on_c, 0, 59, 100
2, 11990640, Note_on_c, 0, 59, 0
2, 11990640, Note_on_c, 0, 71, 100
2, 11990760, Note_on_c, 0, 71, 0
2, 11990760, Note_on_c, 0, 69, 100
2, 11990880, Note_on_c, 0, 69, 0
2, 11990880, Note_on_c, 0, 71, 100
2, 11991000, Note_on_c, 0, 71, 0
2, 11991000, Note_on_c, 0, 67, 100
2, 11991120, Note_on_c, 0, 67, 0
2, 11991120, Note_on_c, 0, 71, 100
2, 11991240, Note_on_c, 0, 71, 0
2, 11991240, Note_on_c, 0, 66, 100
2, 11991360, Note_on_c, 0, 66, 0
2, 11991360, Note_on_c, 0, 71, 100
2, 11991480, Note_on_c, 0, 71, 0
2, 11991480, Note_on_c, 0, 67, 100
2, 11991600, Note_on_c, 0, 67, 0
2, 11991600, Note_on_c, 0, 64, 100
2, 11991720, Note_on_c, 0, 64, 0
2, 11991720, Note_on_c, 0, 67, 100
2, 11991840, Note_on_c, 0, 67, 0
2, 11991840, Note_on_c, 0, 71, 100
2, 11991960, Note_on_c, 0, 71, 0
2, 11991960, Note_on_c, 0, 76, 100
2, 11992080, Note_on_c, 0, 76, 0
2, 11992080, Note_on_c, 0, 71, 100
2, 11992200, Note_on_c, 0, 71, 0
2, 11992200, Note_on_c, 0, 67, 100
2, 11992320, Note_on_c, 0, 67, 0
2, 11992320, Note_on_c, 0, 71, 100
2, 11992440, Note_on_c, 0, 71, 0
2, 11992440, Note_on_c, 0, 64, 100
2, 11993040, Note_on_c, 0, 64, 0
2, 11993040, Note_on_c, 0, 48, 100
2, 11993520, Note_on_c, 0, 48, 0
2, 11993520, Note_on_c, 0, 64, 100
2, 11994000, Note_on_c, 0, 64, 0
2, 11994000, Note_on_c, 0, 62, 100
2, 11994480, Note_on_c, 0, 62, 0
2, 11994480, Note_on_c, 0, 47, 100
2, 11994960, Note_on_c, 0, 47, 0
2, 11994960, Note_on_c, 0, 62, 100
2, 11995440, Note_on_c, 0, 62, 0
2, 11995440, Note_on_c, 0, 60, 100
2, 11995920, Note_on_c, 0, 60, 0
2, 11995920, Note_on_c, 0, 59, 100
2, 11996160, Note_on_c, 0, 59, 0
2, 11996160, Note_on_c, 0, 57, 100
2, 11996400, Note_on_c, 0, 57, 0
2, 11996400, Note_on_c, 0, 55, 100
2, 11996640, Note_on_c, 0, 55, 0
2, 11996640, Note_on_c, 0, 54, 100
2, 11996880, Note_on_c, 0, 54, 0
2, 11996880, Note_on_c, 0, 52, 100
2, 11997120, Note_on_c, 0, 52, 0
2, 11997120, Note_on_c, 0, 54, 100
2, 11997360, Note_on_c, 0, 54, 0
2, 11997360, Note_on_c, 0, 55, 100
2, 11997600, Note_on_c, 0, 55, 0
2, 11997600, Note_on_c, 0, 57, 100
2, 11997720, Note_on_c, 0, 57, 0
2, 11997720, Note_on_c, 0, 50, 100
2, 11997840, Note_on_c, 0, 50, 0
2, 11997840, Note_on_c, 0, 60, 100
2, 11998440, Note_on_c, 0, 60, 0
2, 11998440, Note_on_c, 0, 59, 100
2, 11998560, Note_on_c, 0, 59, 0
2, 11998560, Note_on_c, 0, 57, 100
2, 11998680, Note_on_c, 0, 57, 0
2, 11998680, Note_on_c, 0, 59, 100
2, 11998800, Note_on_c, 0, 59, 0
2, 11998800, Note_on_c, 0, 55, 100
2, 11998920, Note_on_c, 0, 55, 0
2, 11998920, Note_on_c, 0, 54, 100
2, 11999040, Note_on_c, 0, 54, 0
2, 11999040, Note_on_c, 0, 55, 100
2, 11999160, Note_on_c, 0, 55, 0
2, 11999160, Note_on_c, 0, 57, 100
2, 11999280, Note_on_c, 0, 57, 0
2, 11999280, Note_on_c, 0, 55, 100
2, 11999400, Note_on_c, 0, 55, 0
2, 11999400, Note_on_c, 0, 59, 100
2, 11999520, Note_on_c, 0, 59, 0
2, 11999520, Note_on_c, 0, 55, 100
2, 11999640, Note_on_c, 0, 55, 0
2, 11999640, Note_on_c, 0, 60, 100
2, 11999760, Note_on_c, 0, 60, 0
2, 11999760, Note_on_c, 0, 55, 100
2, 11999880, Note_on_c, 0, 55, 0
2, 11999880, Note_on_c, 0, 62, 100
2, 12000000, Note_on_c, 0, 62, 0
2, 12000000, Note_on_c, 0, 55, 100
2, 12000120, Note_on_c, 0, 55, 0
2, 12000120, Note_on_c, 0, 64, 100
2, 12000240, Note_on_c, 0, 64, 0
2, 12000240, Note_on_c, 0, 55, 100
2, 12000480, Note_on_c, 0, 55, 0
2, 12000480, Note_on_c, 0, 59, 100
2, 12000960, Note_on_c, 0, 59, 0
2, 12000960, Note_on_c, 0, 57, 100
2, 12001200, Note_on_c, 0, 57, 0
2, 12001200, Note_on_c, 0, 55, 100
2, 12001440, Note_on_c, 0, 55, 0
2, 12001440, Note_on_c, 0, 54, 100
2, 12001680, Note_on_c, 0, 54, 0
2, 12001680, Note_on_c, 0, 62, 100
2, 12001800, Note_on_c, 0, 62, 0
2, 12001800, Note_on_c, 0, 64, 100
2, 12001920, Note_on_c, 0, 64, 0
2, 12001920, Note_on_c, 0, 66, 100
2, 12002040, Note_on_c, 0, 66, 0
2, 12002040, Note_on_c, 0, 67, 100
2, 12002160, Note_on_c, 0, 67, 0
2, 12002160, Note_on_c, 0, 62, 100
2, 12002280, Note_on_c, 0, 62, 0
2, 12002280, Note_on_c, 0, 59, 100
2, 12002400, Note_on_c, 0, 59, 0
2, 12002400, Note_on_c, 0, 55, 100
2, 12002520, Note_on_c, 0, 55, 0
2, 12002520, Note_on_c, 0, 57, 100
2, 12002640, Note_on_c, 0, 57, 0
2, 12002640, Note_on_c, 0, 60, 100
2, 12002760, Note_on_c, 0, 60, 0
2, 12002760, Note_on_c, 0, 67, 100
2, 12002880, Note_on_c, 0, 67, 0
2, 12002880, Note_on_c, 0, 66, 100
2, 12003000, Note_on_c, 0, 66, 0
2, 12003000, Note_on_c, 0, 67, 100
2, 12003120, Note_on_c, 0, 67, 0
2, 12003120, Note_on_c, 0, 55, 100
2, 12003360, Note_on_c, 0, 55, 0
2, 12003360, Note_on_c, 0, 50, 100
2, 12003600, Note_on_c, 0, 50, 0
2, 12003600, Note_on_c, 0, 47, 100
2, 12003840, Note_on_c, 0, 47, 0
2, 12003840, Note_on_c, 0, 43, 100
2, 12004080, Note_on_c, 0, 43, 0
2, 12004080, Note_on_c, 0, 74, 100
2, 12004680, Note_on_c, 0, 74, 0
2, 12004680, Note_on_c, 0, 72, 100
2, 12004800, Note_on_c, 0, 72, 0
2, 12004800, Note_on_c, 0, 71, 100
2, 12004920, Note_on_c, 0, 71, 0
2, 12004920, Note_on_c, 0, 69, 100
2, 12005040, Note_on_c, 0, 69, 0
2, 12005040, Note_on_c, 0, 67, 100
2, 12005160, Note_on_c, 0, 67, 0
2, 12005160, Note_on_c, 0, 66, 100
2, 12005280, Note_on_c, 0, 66, 0
2, 12005280, Note_on_c, 0, 64, 100
2, 12005400, Note_on_c, 0, 64, 0
2, 12005400, Note_on_c, 0, 62, 100
2, 12005520, Note_on_c, 0, 62, 0
2, 12005520, Note_on_c, 0, 72, 100
2, 12005640, Note_on_c, 0, 72, 0
2, 12005640, Note_on_c, 0, 71, 100
2, 12005760, Note_on_c, 0, 71, 0
2, 12005760, Note_on_c, 0, 69, 100
2, 12005880, Note_on_c, 0, 69, 0
2, 12005880, Note_on_c, 0, 71, 100
2, 12006000, Note_on_c, 0, 71, 0
2, 12006000, Note_on_c, 0, 67, 100
2, 12006120, Note_on_c, 0, 67, 0
2, 12006120, Note_on_c, 0, 66, 100
2, 12006240, Note_on_c, 0, 66, 0
2, 12006240, Note_on_c, 0, 64, 100
2, 12006360, Note_on_c, 0, 64, 0
2, 12006360, Note_on_c, 0, 62, 100
2, 12006480, Note_on_c, 0, 62, 0
2, 12006480, Note_on_c, 0, 60, 100
2, 12006600, Note_on_c, 0, 60, 0
2, 12006600, Note_on_c, 0, 59, 100
2, 12006720, Note_on_c, 0, 59, 0
2, 12006720, Note_on_c, 0, 57, 100
2, 12006840, Note_on_c, 0, 57, 0
2, 12006840, Note_on_c, 0, 55, 100
2, 12006960, Note_on_c, 0, 55, 0
2, 12006960, Note_on_c, 0, 67, 100
2, 12007080, Note_on_c, 0, 67, 0
2, 12007080, Note_on_c, 0, 69, 100
2, 12007200, Note_on_c, 0, 69, 0
2, 12007200, Note_on_c, 0, 71, 100
2, 12007320, Note_on_c, 0, 71, 0
2, 12007320, Note_on_c, 0, 72, 100
2, 12007440, Note_on_c, 0, 72, 0
2, 12007440, Note_on_c, 0, 74, 100
2, 12007560, Note_on_c, 0, 74, 0
2, 12007560, Note_on_c, 0, 76, 100
2, 12007680, Note_on_c, 0, 76, 0
2, 12007680, Note_on_c, 0, 74, 100
2, 12007800, Note_on_c, 0, 74, 0
2, 12007800, Note_on_c, 0, 72, 100
2, 12007920, Note_on_c, 0, 72, 0
2, 12007920, Note_on_c, 0, 71, 100
2, 12008040, Note_on_c, 0, 71, 0
2, 12008040, Note_on_c, 0, 69, 100
2, 12008160, Note_on_c, 0, 69, 0
2, 12008160, Note_on_c, 0, 67, 100
2, 12008280, Note_on_c, 0, 67, 0
2, 12008280, Note_on_c, 0, 69, 100
2, 12008400, Note_on_c, 0, 69, 0
2, 12008400, Note_on_c, 0, 71, 100
2, 12008520, Note_on_c, 0, 71, 0
2, 12008520, Note_on_c, 0, 72, 100
2, 12008640, Note_on_c, 0, 72, 0
2, 12008640, Note_on_c, 0, 69, 100
2, 12008760, Note_on_c, 0, 69, 0
2, 12008760, Note_on_c, 0, 71, 100
2, 12008880, Note_on_c, 0, 71, 0
2, 12008880, Note_on_c, 0, 69, 100
2, 12009000, Note_on_c, 0, 69, 0
2, 12009000, Note_on_c, 0, 71, 100
2, 12009120, Note_on_c, 0, 71, 0
2, 12009120, Note_on_c, 0, 66, 100
2, 12009240, Note_on_c, 0, 66, 0
2, 12009240, Note_on_c, 0, 59, 100
2, 12009360, Note_on_c, 0, 59, 0
2, 12009360, Note_on_c, 0, 61, 100
2, 12009480, Note_on_c, 0, 61, 0
2, 12009480, Note_on_c, 0, 63, 100
2, 12009600, Note_on_c, 0, 63, 0
2, 12009600, Note_on_c, 0, 64, 100
2, 12009720, Note_on_c, 0, 64, 0
2, 12009720, Note_on_c, 0, 66, 100
2, 12009840, Note_on_c, 0, 66, 0
2, 12009840, Note_on_c, 0, 67, 100
2, 12009960, Note_on_c, 0, 67, 0
2, 12009960, Note_on_c, 0, 69, 100
2, 12010080, Note_on_c, 0, 69, 0
2, 12010080, Note_on_c, 0, 66, 100
2, 12010200, Note_on_c, 0, 66, 0
2, 12010200, Note_on_c, 0, 67, 100
2, 12010320, Note_on_c, 0, 67, 0
2, 12010320, Note_on_c, 0, 71, 100
2, 12010440, Note_on_c, 0, 71, 0
2, 12010440, Note_on_c, 0, 67, 100
2, 12010560, Note_on_c, 0, 67, 0
2, 12010560, Note_on_c, 0, 64, 100
2, 12010680, Note_on_c, 0, 64, 0
2, 12010680, Note_on_c, 0, 67, 100
2, 12010800, Note_on_c, 0, 67, 0
2, 12010800, Note_on_c, 0, 71, 100
2, 12010920, Note_on_c, 0, 71, 0
2, 12010920, Note_on_c, 0, 67, 100
2, 12011040, Note_on_c, 0, 67, 0
2, 12011040, Note_on_c, 0, 64, 100
2, 12011160, Note_on_c, 0, 64, 0
2, 12011160, Note_on_c, 0, 67, 100
2, 12011280, Note_on_c, 0, 67, 0
2, 12011280, Note_on_c, 0, 71, 100
2, 12011400, Note_on_c, 0, 71, 0
2, 12011400, Note_on_c, 0, 67, 100
2, 12011520, Note_on_c, 0, 67, 0
2, 12011520, Note_on_c, 0, 64, 100
2, 12011640, Note_on_c, 0, 64, 0
2, 12011640, Note_on_c, 0, 69, 100
2, 12011760, Note_on_c, 0, 69, 0
2, 12011760, Note_on_c, 0, 72, 100
2, 12011880, Note_on_c, 0, 72, 0
2, 12011880, Note_on_c, 0, 69, 100
2, 12012000, Note_on_c, 0, 69, 0
2, 12012000, Note_on_c, 0, 64, 100
2, 12012120, Note_on_c, 0, 64, 0
2, 12012120, Note_on_c, 0, 67, 100
2, 12012240, Note_on_c, 0, 67, 0
2, 12012240, Note_on_c, 0, 72, 100
2, 12012360, Note_on_c, 0, 72, 0
2, 12012360, Note_on_c, 0, 67, 100
2, 12012480, Note_on_c, 0, 67, 0
2, 12012480, Note_on_c, 0, 64, 100
2, 12012600, Note_on_c, 0, 64, 0
2, 12012600, Note_on_c, 0, 66, 100
2, 12012720, Note_on_c, 0, 66, 0
2, 12012720, Note_on_c, 0, 72, 100
2, 12012840, Note_on_c, 0, 72, 0
2, 12012840, Note_on_c, 0, 66, 100
2, 12012960, Note_on_c, 0, 66, 0
2, 12012960, Note_on_c, 0, 64, 100
2, 12013080, Note_on_c, 0, 64, 0
2, 12013080, Note_on_c, 0, 67, 100
2, 12013200, Note_on_c, 0, 67, 0
2, 12013200, Note_on_c, 0, 71, 100
2, 12013320, Note_on_c, 0, 71, 0
2, 12013320, Note_on_c, 0, 67, 100
2, 12013440, Note_on_c, 0, 67, 0
2, 12013440, Note_on_c, 0, 64, 100
2, 12013560, Note_on_c, 0, 64, 0
2, 12013560, Note_on_c, 0, 59, 100
2, 12013680, Note_on_c, 0, 59, 0
2, 12013680, Note_on_c, 0, 71, 100
2, 12013800, Note_on_c, 0, 71, 0
2, 12013800, Note_on_c, 0, 69, 100
2, 12013920, Note_on_c, 0, 69, 0
2, 12013920, Note_on_c, 0, 71, 100
2, 12014040, Note_on_c, 0, 71, 0
2, 12014040, Note_on_c, 0, 67, 100
2, 12014160, Note_on_c, 0, 67, 0
2, 12014160, Note_on_c, 0, 71, 100
2, 12014280, Note_on_c, 0, 71, 0
2, 12014280, Note_on_c, 0, 66, 100
2, 12014400, Note_on_c, 0, 66, 0
2, 12014400, Note_on_c, 0, 71, 100
2, 12014520, Note_on_c, 0, 71, 0
2, 12014520, Note_on_c, 0, 67, 100
2, 12014640, Note_on_c, 0, 67, 0
2, 12014640, Note_on_c, 0, 64, 100
2, 12014760, Note_on_c, 0, 64, 0
2, 12014760, Note_on_c, 0, 67, 100
2, 12014880, Note_on_c, 0, 67, 0
2, 12014880, Note_on_c, 0, 71, 100
2, 12015000, Note_on_c, 0, 71, 0
2, 12015000, Note_on_c, 0, 76, 100
2, 12015120, Note_on_c, 0, 76, 0
2, 12015120, Note_on_c, 0, 71, 100
2, 12015240, Note_on_c, 0, 71, 0
2, 12015240, Note_on_c, 0, 67, 100
2, 12015360, Note_on_c, 0, 67, 0
2, 12015360, Note_on_c, 0, 71, 100
2, 12015480, Note_on_c, 0, 71, 0
2, 12015480, Note_on_c, 0, 64, 100
2, 12016080, Note_on_c, 0, 64, 0
2, 12016080, Note_on_c, 0, 48, 100
2, 12016560, Note_on_c, 0, 48, 0
2, 12016560, Note_on_c, 0, 64, 100
2, 12017040, Note_on_c, 0, 64, 0
2, 12017040, Note_on_c, 0, 62, 100
2, 12017520, Note_on_c, 0, 62, 0
2, 12017520, Note_on_c, 0, 47, 100
2, 12018000, Note_on_c, 0, 47, 0
2, 12018000, Note_on_c, 0, 62, 100
2, 12018480, Note_on_c, 0, 62, 0
2, 12018480, Note_on_c, 0, 60, 100
2, 12018960, Note_on_c, 0, 60, 0
2, 12018960, Note_on_c, 0, 59, 100
2, 12019200, Note_on_c, 0, 59, 0
2, 12019200, Note_on_c, 0, 57, 100
2, 12019440, Note_on_c, 0, 57, 0
2, 12019440, Note_on_c, 0, 55, 100
2, 12019680, Note_on_c, 0, 55, 0
2, 12019680, Note_on_c, 0, 54, 100
2, 12019920, Note_on_c, 0, 54, 0
2, 12019920, Note_on_c, 0, 52, 100
2, 12020160, Note_on_c, 0, 52, 0
2, 12020160, Note_on_c, 0, 54, 100
2, 12020400, Note_on_c, 0, 54, 0
2, 12020400, Note_on_c, 0, 55, 100
2, 12020640, Note_on_c, 0, 55, 0
2, 12020640, Note_on_c, 0, 57, 100
2, 12020760, Note_on_c, 0, 57, 0
2, 12020760, Note_on_c, 0, 50, 100
2, 12020880, Note_on_c, 0, 50, 0
2, 12020880, Note_on_c, 0, 60, 100
2, 12021480, Note_on_c, 0, 60, 0
2, 12021480, Note_on_c, 0, 59, 100
2, 12021600, Note_on_c, 0, 59, 0
2, 12021600, Note_on_c, 0, 57, 100
2, 12021720, Note_on_c, 0, 57, 0
2, 12021720, Note_on_c, 0, 59, 100
2, 12021840, Note_on_c, 0, 59, 0
2, 12021840, Note_on_c, 0, 55, 100
2, 12021960, Note_on_c, 0, 55, 0
2, 12021960, Note_on_c, 0, 54, 100
2, 12022080, Note_on_c, 0, 54, 0
2, 12022080, Note_on_c, 0, 55, 100
2, 12022200, Note_on_c, 0, 55, 0
2, 12022200, Note_on_c, 0, 57, 100
2, 12022320, Note_on_c, 0, 57, 0
2, 12022320, Note_on_c, 0, 55, 100
2, 12022440, Note_on_c, 0, 55, 0
2, 12022440, Note_on_c, 0, 59, 100
2, 12022560, Note_on_c, 0, 59, 0
2, 12022560, Note_on_c, 0, 55, 100
2, 12022680, Note_on_c, 0, 55, 0
2, 12022680, Note_on_c, 0, 60, 100
2, 12022800, Note_on_c, 0, 60, 0
2, 12022800, Note_on_c, 0, 55, 100
2, 12022920, Note_on_c, 0, 55, 0
2, 12022920, Note_on_c, 0, 62, 100
2, 12023040, Note_on_c, 0, 62, 0
2, 12023040, Note_on_c, 0, 55, 100
2, 12023160, Note_on_c, 0, 55, 0
2, 12023160, Note_on_c, 0, 64, 100
2, 12023280, Note_on_c, 0, 64, 0
2, 12023280, Note_on_c, 0, 55, 100
2, 12023520, Note_on_c, 0, 55, 0
2, 12023520, Note_on_c, 0, 59, 100
2, 12024000, Note_on_c, 0, 59, 0
2, 12024000, Note_on_c, 0, 57, 100
2, 12024240, Note_on_c, 0, 57, 0
2, 12024240, Note_on_c, 0, 55, 100
2, 12024480, Note_on_c, 0, 55, 0
2, 12024480, Note_on_c, 0, 54, 100
2, 12024720, Note_on_c, 0, 54, 0
2, 12024720, Note_on_c, 0, 62, 100
2, 12024840, Note_on_c, 0, 62, 0
2, 12024840, Note_on_c, 0, 64, 100
2, 12024960, Note_on_c, 0, 64, 0
2, 12024960, Note_on_c, 0, 66, 100
2, 12025080, Note_on_c, 0, 66, 0
2, 12025080, Note_on_c, 0, 67, 100
2, 12025200, Note_on_c, 0, 67, 0
2, 12025200, Note_on_c, 0, 62, 100
2, 12025320, Note_on_c, 0, 62, 0
2, 12025320, Note_on_c, 0, 59, 100
2, 12025440, Note_on_c, 0, 59, 0
2, 12025440, Note_on_c, 0, 55, 100
2, 12025560, Note_on_c, 0, 55, 0
2, 12025560, Note_on_c, 0, 57, 100
2, 12025680, Note_on_c, 0, 57, 0
2, 12025680, Note_on_c, 0, 60, 100
2, 12025800, Note_on_c, 0, 60, 0
2, 12025800, Note_on_c, 0, 67, 100
2, 12025920, Note_on_c, 0, 67, 0
2, 12025920, Note_on_c, 0, 66, 100
2, 12026040, Note_on_c, 0, 66, 0
2, 12026040, Note_on_c, 0, 67, 100
2, 12026160, Note_on_c, 0, 67, 0
2, 12026160, Note_on_c, 0, 55, 100
2, 12026400, Note_on_c, 0, 55, 0
2, 12026400, Note_on_c, 0, 50, 100
2, 12026640, Note_on_c, 0, 50, 0
2, 12026640, Note_on_c, 0, 47, 100
2, 12026880, Note_on_c, 0, 47, 0
2, 12026880, Note_on_c, 0, 43, 100
2, 12027120, Note_on_c, 0, 43, 0
2, 12027120, Note_on_c, 0, 55, 100
2, 12073680, Note_on_c, 0, 55, 0
2, 12073680, Note_on_c, 0, 54, 100
2, 12073740, Note_on_c, 0, 54, 0
2, 12073740, Note_on_c, 0, 55, 100
2, 12073800, Note_on_c, 0, 55, 0
2, 12073800, Note_on_c, 0, 43, 100
2, 12074160, Note_on_c, 0, 43, 0
2, 12074160, Note_on_c, 0, 55, 100
2, 12074400, Note_on_c, 0, 55, 0
2, 12074400, Note_on_c, 0, 54, 100
2, 12074460, Note_on_c, 0, 54, 0
2, 12074460, Note_on_c, 0, 55, 100
2, 12075840, Note_on_c, 0, 55, 0
2, 12075840, Note_on_c, 0, 54, 100
2, 12075900, Note_on_c, 0, 54, 0
2, 12075900, Note_on_c, 0, 55, 100
2, 12075960, Note_on_c, 0, 55, 0
2, 12075960, Note_on_c, 0, 54, 100
2, 12076020, Note_on_c, 0, 54, 0
2, 12076020, Note_on_c, 0, 52, 100
2, 12076200, Note_on_c, 0, 52, 0
2, 12076200, Note_on_c, 0, 50, 100
2, 12076320, Note_on_c, 0, 50, 0
2, 12076320, Note_on_c, 0, 52, 100
2, 12076560, Note_on_c, 0, 52, 0
2, 12076560, Note_on_c, 0, 62, 100
2, 12077040, Note_on_c, 0, 62, 0
2, 12077040, Note_on_c, 0, 61, 100
2, 12077280, Note_on_c, 0, 61, 0
2, 12077280, Note_on_c, 0, 57, 100
2, 12077760, Note_on_c, 0, 57, 0
2, 12077760, Note_on_c, 0, 62, 100
2, 12078000, Note_on_c, 0, 62, 0
2, 12078000, Note_on_c, 0, 64, 100
2, 12079080, Note_on_c, 0, 64, 0
2, 12079080, Note_on_c, 0, 60, 100
2, 12079200, Note_on_c, 0, 60, 0
2, 12079200, Note_on_c, 0, 59, 100
2, 12079440, Note_on_c, 0, 59, 0
2, 12079440, Note_on_c, 0, 60, 100
2, 12079800, Note_on_c, 0, 60, 0
2, 12079800, Note_on_c, 0, 57, 100
2, 12079920, Note_on_c, 0, 57, 0
2, 12079920, Note_on_c, 0, 55, 100
2, 12080160, Note_on_c, 0, 55, 0
2, 12080160, Note_on_c, 0, 57, 100
2, 12080520, Note_on_c, 0, 57, 0
2, 12080520, Note_on_c, 0, 59, 100
2, 12080640, Note_on_c, 0, 59, 0
2, 12080640, Note_on_c, 0, 60, 100
2, 12080880, Note_on_c, 0, 60, 0
2, 12080880, Note_on_c, 0, 62, 100
2, 12081240, Note_on_c, 0, 62, 0
2, 12081240, Note_on_c, 0, 59, 100
2, 12081360, Note_on_c, 0, 59, 0
2, 12081360, Note_on_c, 0, 57, 100
2, 12081600, Note_on_c, 0, 57, 0
2, 12081600, Note_on_c, 0, 59, 100
2, 12081960, Note_on_c, 0, 59, 0
2, 12081960, Note_on_c, 0, 60, 100
2, 12082080, Note_on_c, 0, 60, 0
2, 12082080, Note_on_c, 0, 62, 100
2, 12082320, Note_on_c, 0, 62, 0
2, 12082320, Note_on_c, 0, 60, 100
2, 12082680, Note_on_c, 0, 60, 0
2, 12082680, Note_on_c, 0, 59, 100
2, 12082800, Note_on_c, 0, 59, 0
2, 12082800, Note_on_c, 0, 60, 100
2, 12083040, Note_on_c, 0, 60, 0
2, 12083040, Note_on_c, 0, 62, 100
2, 12083520, Note_on_c, 0, 62, 0
2, 12083520, Note_on_c, 0, 55, 100
2, 12083760, Note_on_c, 0, 55, 0
2, 12083760, Note_on_c, 0, 54, 100
2, 12084120, Note_on_c, 0, 54, 0
2, 12084120, Note_on_c, 0, 55, 100
2, 12084240, Note_on_c, 0, 55, 0
2, 12084240, Note_on_c, 0, 50, 100
2, 12084480, Note_on_c, 0, 50, 0
2, 12084480, Note_on_c, 0, 57, 100
2, 12084840, Note_on_c, 0, 57, 0
2, 12084840, Note_on_c, 0, 60, 100
2, 12085200, Note_on_c, 0, 60, 0
2, 12085200, Note_on_c, 0, 59, 100
2, 12085260, Note_on_c, 0, 59, 0
2, 12085260, Note_on_c, 0, 60, 100
2, 12085320, Note_on_c, 0, 60, 0
2, 12085320, Note_on_c, 0, 59, 100
2, 12085380, Note_on_c, 0, 59, 0
2, 12085380, Note_on_c, 0, 57, 100
2, 12085560, Note_on_c, 0, 57, 0
2, 12085560, Note_on_c, 0, 59, 100
2, 12085680, Note_on_c, 0, 59, 0
2, 12085680, Note_on_c, 0, 52, 100
2, 12085920, Note_on_c, 0, 52, 0
2, 12085920, Note_on_c, 0, 59, 100
2, 12086280, Note_on_c, 0, 59, 0
2, 12086280, Note_on_c, 0, 62, 100
2, 12086640, Note_on_c, 0, 62, 0
2, 12086640, Note_on_c, 0, 61, 100
2, 12086700, Note_on_c, 0, 61, 0
2, 12086700, Note_on_c, 0, 62, 100
2, 12086760, Note_on_c, 0, 62, 0
2, 12086760, Note_on_c, 0, 61, 100
2, 12086820, Note_on_c, 0, 61, 0
2, 12086820, Note_on_c, 0, 59, 100
2, 12087000, Note_on_c, 0, 59, 0
2, 12087000, Note_on_c, 0, 57, 100
2, 12087120, Note_on_c, 0, 57, 0
2, 12087120, Note_on_c, 0, 62, 100
2, 12087360, Note_on_c, 0, 62, 0
2, 12087360, Note_on_c, 0, 60, 100
2, 12087720, Note_on_c, 0, 60, 0
2, 12087720, Note_on_c, 0, 62, 100
2, 12087840, Note_on_c, 0, 62, 0
2, 12087840, Note_on_c, 0, 55, 100
2, 12088080, Note_on_c, 0, 55, 0
2, 12088080, Note_on_c, 0, 59, 100
2, 12088440, Note_on_c, 0, 59, 0
2, 12088440, Note_on_c, 0, 62, 100
2, 12088560, Note_on_c, 0, 62, 0
2, 12088560, Note_on_c, 0, 67, 100
2, 12088800, Note_on_c, 0, 67, 0
2, 12088800, Note_on_c, 0, 69, 100
2, 12089760, Note_on_c, 0, 69, 0
2, 12089760, Note_on_c, 0, 67, 100
2, 12089880, Note_on_c, 0, 67, 0
2, 12089880, Note_on_c, 0, 66, 100
2, 12090000, Note_on_c, 0, 66, 0
2, 12090000, Note_on_c, 0, 64, 100
2, 12090120, Note_on_c, 0, 64, 0
2, 12090120, Note_on_c, 0, 66, 100
2, 12090240, Note_on_c, 0, 66, 0
2, 12090240, Note_on_c, 0, 67, 100
2, 12090600, Note_on_c, 0, 67, 0
2, 12090600, Note_on_c, 0, 69, 100
2, 12090720, Note_on_c, 0, 69, 0
2, 12090720, Note_on_c, 0, 62, 100
2, 12090960, Note_on_c, 0, 62, 0
2, 12090960, Note_on_c, 0, 57, 100
2, 12091320, Note_on_c, 0, 57, 0
2, 12091320, Note_on_c, 0, 54, 100
2, 12091440, Note_on_c, 0, 54, 0
2, 12091440, Note_on_c, 0, 50, 100
2, 12091680, Note_on_c, 0, 50, 0
2, 12091680, Note_on_c, 0, 52, 100
2, 12092040, Note_on_c, 0, 52, 0
2, 12092040, Note_on_c, 0, 54, 100
2, 12092160, Note_on_c, 0, 54, 0
2, 12092160, Note_on_c, 0, 55, 100
2, 12092400, Note_on_c, 0, 55, 0
2, 12092400, Note_on_c, 0, 57, 100
2, 12092760, Note_on_c, 0, 57, 0
2, 12092760, Note_on_c, 0, 54, 100
2, 12092880, Note_on_c, 0, 54, 0
2, 12092880, Note_on_c, 0, 52, 100
2, 12093120, Note_on_c, 0, 52, 0
2, 12093120, Note_on_c, 0, 54, 100
2, 12093480, Note_on_c, 0, 54, 0
2, 12093480, Note_on_c, 0, 55, 100
2, 12093600, Note_on_c, 0, 55, 0
2, 12093600, Note_on_c, 0, 57, 100
2, 12093840, Note_on_c, 0, 57, 0
2, 12093840, Note_on_c, 0, 55, 100
2, 12094200, Note_on_c, 0, 55, 0
2, 12094200, Note_on_c, 0, 54, 100
2, 12094320, Note_on_c, 0, 54, 0
2, 12094320, Note_on_c, 0, 59, 100
2, 12094560, Note_on_c, 0, 59, 0
2, 12094560, Note_on_c, 0, 55, 100
2, 12094920, Note_on_c, 0, 55, 0
2, 12094920, Note_on_c, 0, 57, 100
2, 12095040, Note_on_c, 0, 57, 0
2, 12095040, Note_on_c, 0, 50, 100
2, 12095280, Note_on_c, 0, 50, 0
2, 12095280, Note_on_c, 0, 54, 100
2, 12095640, Note_on_c, 0, 54, 0
2, 12095640, Note_on_c, 0, 57, 100
2, 12095760, Note_on_c, 0, 57, 0
2, 12095760, Note_on_c, 0, 62, 100
2, 12096000, Note_on_c, 0, 62, 0
2, 12096000, Note_on_c, 0, 55, 100
2, 12096720, Note_on_c, 0, 55, 0
2, 12096720, Note_on_c, 0, 54, 100
2, 12096780, Note_on_c, 0, 54, 0
2, 12096780, Note_on_c, 0, 55, 100
2, 12096840, Note_on_c, 0, 55, 0
2, 12096840, Note_on_c, 0, 43, 100
2, 12097200, Note_on_c, 0, 43, 0
2, 12097200, Note_on_c, 0, 55, 100
2, 12097440, Note_on_c, 0, 55, 0
2, 12097440, Note_on_c, 0, 54, 100
2, 12097500, Note_on_c, 0, 54, 0
2, 12097500, Note_on_c, 0, 55, 100
2, 12098880, Note_on_c, 0, 55, 0
2, 12098880, Note_on_c, 0, 54, 100
2, 12098940, Note_on_c, 0, 54, 0
2, 12098940, Note_on_c, 0, 55, 100
2, 12099000, Note_on_c, 0, 55, 0
2, 12099000, Note_on_c, 0, 54, 100
2, 12099060, Note_on_c, 0, 54, 0
2, 12099060, Note_on_c, 0, 52, 100
2, 12099240, Note_on_c, 0, 52, 0
2, 12099240, Note_on_c, 0, 50, 100
2, 12099360, Note_on_c, 0, 50, 0
2, 12099360, Note_on_c, 0, 52, 100
2, 12099600, Note_on_c, 0, 52, 0
2, 12099600, Note_on_c, 0, 62, 100
2, 12100080, Note_on_c, 0, 62, 0
2, 12100080, Note_on_c, 0, 61, 100
2, 12100320, Note_on_c, 0, 61, 0
2, 12100320, Note_on_c, 0, 57, 100
2, 12100800, Note_on_c, 0, 57, 0
2, 12100800, Note_on_c, 0, 62, 100
2, 12101040, Note_on_c, 0, 62, 0
2, 12101040, Note_on_c, 0, 64, 100
2, 12102120, Note_on_c, 0, 64, 0
2, 12102120, Note_on_c, 0, 60, 100
2, 12102240, Note_on_c, 0, 60, 0
2, 12102240, Note_on_c, 0, 59, 100
2, 12102480, Note_on_c, 0, 59, 0
2, 12102480, Note_on_c, 0, 60, 100
2, 12102840, Note_on_c, 0, 60, 0
2, 12102840, Note_on_c, 0, 57, 100
2, 12102960, Note_on_c, 0, 57, 0
2, 12102960, Note_on_c, 0, 55, 100
2, 12103200, Note_on_c, 0, 55, 0
2, 12103200, Note_on_c, 0, 57, 100
2, 12103560, Note_on_c, 0, 57, 0
2, 12103560, Note_on_c, 0, 59, 100
2, 12103680, Note_on_c, 0, 59, 0
2, 12103680, Note_on_c, 0, 60, 100
2, 12103920, Note_on_c, 0, 60, 0
2, 12103920, Note_on_c, 0, 62, 100
2, 12104280, Note_on_c, 0, 62, 0
2, 12104280, Note_on_c, 0, 59, 100
2, 12104400, Note_on_c, 0, 59, 0
2, 12104400, Note_on_c, 0, 57, 100
2, 12104640, Note_on_c, 0, 57, 0
2, 12104640, Note_on_c, 0, 59, 100
2, 12105000, Note_on_c, 0, 59, 0
2, 12105000, Note_on_c, 0, 60, 100
2, 12105120, Note_on_c, 0, 60, 0
2, 12105120, Note_on_c, 0, 62, 100
2, 12105360, Note_on_c, 0, 62, 0
2, 12105360, Note_on_c, 0, 60, 100
2, 12105720, Note_on_c, 0, 60, 0
2, 12105720, Note_on_c, 0, 59, 100
2, 12105840, Note_on_c, 0, 59, 0
2, 12105840, Note_on_c, 0, 60, 100
2, 12106080, Note_on_c, 0, 60, 0
2, 12106080, Note_on_c, 0, 62, 100
2, 12106560, Note_on_c, 0, 62, 0
2, 12106560, Note_on_c, 0, 55, 100
2, 12106800, Note_on_c, 0, 55, 0
2, 12106800, Note_on_c, 0, 54, 100
2, 12107160, Note_on_c, 0, 54, 0
2, 12107160, Note_on_c, 0, 55, 100
2, 12107280, Note_on_c, 0, 55, 0
2, 12107280, Note_on_c, 0, 50, 100
2, 12107520, Note_on_c, 0, 50, 0
2, 12107520, Note_on_c, 0, 57, 100
2, 12107880, Note_on_c, 0, 57, 0
2, 12107880, Note_on_c, 0, 60, 100
2, 12108240, Note_on_c, 0, 60, 0
2, 12108240, Note_on_c, 0, 59, 100
2, 12108300, Note_on_c, 0, 59, 0
2, 12108300, Note_on_c, 0, 60, 100
2, 12108360, Note_on_c, 0, 60, 0
2, 12108360, Note_on_c, 0, 59, 100
2, 12108420, Note_on_c, 0, 59, 0
2, 12108420, Note_on_c, 0, 57, 100
2, 12108600, Note_on_c, 0, 57, 0
2, 12108600, Note_on_c, 0, 59, 100
2, 12108720, Note_on_c, 0, 59, 0
2, 12108720, Note_on_c, 0, 52, 100
2, 12108960, Note_on_c, 0, 52, 0
2, 12108960, Note_on_c, 0, 59, 100
2, 12109320, Note_on_c, 0, 59, 0
2, 12109320, Note_on_c, 0, 62, 100
2, 12109680, Note_on_c, 0, 62, 0
2, 12109680, Note_on_c, 0, 61, 100
2, 12109740, Note_on_c, 0, 61, 0
2, 12109740, Note_on_c, 0, 62, 100
2, 12109800, Note_on_c, 0, 62, 0
2, 12109800, Note_on_c, 0, 61, 100
2, 12109860, Note_on_c, 0, 61, 0
2, 12109860, Note_on_c, 0, 59, 100
2, 12110040, Note_on_c, 0, 59, 0
2, 12110040, Note_on_c, 0, 57, 100
2, 12110160, Note_on_c, 0, 57, 0
2, 12110160, Note_on_c, 0, 62, 100
2, 12110400, Note_on_c, 0, 62, 0
2, 12110400, Note_on_c, 0, 60, 100
2, 12110760, Note_on_c, 0, 60, 0
2, 12110760, Note_on_c, 0, 62, 100
2, 12110880, Note_on_c, 0, 62, 0
2, 12110880, Note_on_c, 0, 55, 100
2, 12111120, Note_on_c, 0, 55, 0
2, 12111120, Note_on_c, 0, 59, 100
2, 12111480, Note_on_c, 0, 59, 0
2, 12111480, Note_on_c, 0, 62, 100
2, 12111600, Note_on_c, 0, 62, 0
2, 12111600, Note_on_c, 0, 67, 100
2, 12111840, Note_on_c, 0, 67, 0
2, 12111840, Note_on_c, 0, 69, 100
2, 12112800, Note_on_c, 0, 69, 0
2, 12112800, Note_on_c, 0, 67, 100
2, 12112920, Note_on_c, 0, 67, 0
2, 12112920, Note_on_c, 0, 66, 100
2, 12113040, Note_on_c, 0, 66, 0
2, 12113040, Note_on_c, 0, 64, 100
2, 12113160, Note_on_c, 0, 64, 0
2, 12113160, Note_on_c, 0, 66, 100
2, 12113280, Note_on_c, 0, 66, 0
2, 12113280, Note_on_c, 0, 67, 100
2, 12113640, Note_on_c, 0, 67, 0
2, 12113640, Note_on_c, 0, 69, 100
2, 12113760, Note_on_c, 0, 69, 0
2, 12113760, Note_on_c, 0, 62, 100
2, 12114000, Note_on_c, 0, 62, 0
2, 12114000, Note_on_c, 0, 57, 100
2, 12114360, Note_on_c, 0, 57, 0
2, 12114360, Note_on_c, 0, 54, 100
2, 12114480, Note_on_c, 0, 54, 0
2, 12114480, Note_on_c, 0, 50, 100
2, 12114720, Note_on_c, 0, 50, 0
2, 12114720, Note_on_c, 0, 52, 100
2, 12115080, Note_on_c, 0, 52, 0
2, 12115080, Note_on_c, 0, 54, 100
2, 12115200, Note_on_c, 0, 54, 0
2, 12115200, Note_on_c, 0, 55, 100
2, 12115440, Note_on_c, 0, 55, 0
2, 12115440, Note_on_c, 0, 57, 100
2, 12115800, Note_on_c, 0, 57, 0
2, 12115800, Note_on_c, 0, 54, 100
2, 12115920, Note_on_c, 0, 54, 0
2, 12115920, Note_on_c, 0, 52, 100
2, 12116160, Note_on_c, 0, 52, 0
2, 12116160, Note_on_c, 0, 54, 100
2, 12116520, Note_on_c, 0, 54, 0
2, 12116520, Note_on_c, 0, 55, 100
2, 12116640, Note_on_c, 0, 55, 0
2, 12116640, Note_on_c, 0, 57, 100
2, 12116880, Note_on_c, 0, 57, 0
2, 12116880, Note_on_c, 0, 55, 100
2, 12117240, Note_on_c, 0, 55, 0
2, 12117240, Note_on_c, 0, 54, 100
2, 12117360, Note_on_c, 0, 54, 0
2, 12117360, Note_on_c, 0, 59, 100
2, 12117600, Note_on_c, 0, 59, 0
2, 12117600, Note_on_c, 0, 55, 100
2, 12117960, Note_on_c, 0, 55, 0
2, 12117960, Note_on_c, 0, 57, 100
2, 12118080, Note_on_c, 0, 57, 0
2, 12118080, Note_on_c, 0, 50, 100
2, 12118320, Note_on_c, 0, 50, 0
2, 12118320, Note_on_c, 0, 54, 100
2, 12118680, Note_on_c, 0, 54, 0
2, 12118680, Note_on_c, 0, 57, 100
2, 12118800, Note_on_c, 0, 57, 0
2, 12118800, Note_on_c, 0, 62, 100
2, 12119760, Note_on_c, 0, 62, 0
2, 12119760, Note_on_c, 0, 50, 100
2, 12120240, Note_on_c, 0, 50, 0
2, 12120240, Note_on_c, 0, 62, 100
2, 12120480, Note_on_c, 0, 62, 0
2, 12120480, Note_on_c, 0, 60, 100
2, 12121200, Note_on_c, 0, 60, 0
2, 12121200, Note_on_c, 0, 59, 100
2, 12121260, Note_on_c, 0, 59, 0
2, 12121260, Note_on_c, 0, 60, 100
2, 12121320, Note_on_c, 0, 60, 0
2, 12121320, Note_on_c, 0, 59, 100
2, 12121380, Note_on_c, 0, 59, 0
2, 12121380, Note_on_c, 0, 57, 100
2, 12121560, Note_on_c, 0, 57, 0
2, 12121560, Note_on_c, 0, 59, 100
2, 12121680, Note_on_c, 0, 59, 0
2, 12121680, Note_on_c, 0, 55, 100
2, 12121920, Note_on_c, 0, 55, 0
2, 12121920, Note_on_c, 0, 57, 100
2, 12122280, Note_on_c, 0, 57, 0
2, 12122280, Note_on_c, 0, 59, 100
2, 12122400, Note_on_c, 0, 59, 0
2, 12122400, Note_on_c, 0, 60, 100
2, 12122640, Note_on_c, 0, 60, 0
2, 12122640, Note_on_c, 0, 62, 100
2, 12123000, Note_on_c, 0, 62, 0
2, 12123000, Note_on_c, 0, 59, 100
2, 12123120, Note_on_c, 0, 59, 0
2, 12123120, Note_on_c, 0, 57, 100
2, 12123360, Note_on_c, 0, 57, 0
2, 12123360, Note_on_c, 0, 59, 100
2, 12123720, Note_on_c, 0, 59, 0
2, 12123720, Note_on_c, 0, 60, 100
2, 12123840, Note_on_c, 0, 60, 0
2, 12123840, Note_on_c, 0, 59, 100
2, 12124080, Note_on_c, 0, 59, 0
2, 12124080, Note_on_c, 0, 47, 100
2, 12124560, Note_on_c, 0, 47, 0
2, 12124560, Note_on_c, 0, 59, 100
2, 12124800, Note_on_c, 0, 59, 0
2, 12124800, Note_on_c, 0, 57, 100
2, 12125160, Note_on_c, 0, 57, 0
2, 12125160, Note_on_c, 0, 59, 100
2, 12125280, Note_on_c, 0, 59, 0
2, 12125280, Note_on_c, 0, 55, 100
2, 12125520, Note_on_c, 0, 55, 0
2, 12125520, Note_on_c, 0, 57, 100
2, 12126000, Note_on_c, 0, 57, 0
2, 12126000, Note_on_c, 0, 59, 100
2, 12126060, Note_on_c, 0, 59, 0
2, 12126060, Note_on_c, 0, 61, 100
2, 12126120, Note_on_c, 0, 61, 0
2, 12126120, Note_on_c, 0, 63, 100
2, 12126180, Note_on_c, 0, 63, 0
2, 12126180, Note_on_c, 0, 64, 100
2, 12126240, Note_on_c, 0, 64, 0
2, 12126240, Note_on_c, 0, 59, 100
2, 12126600, Note_on_c, 0, 59, 0
2, 12126600, Note_on_c, 0, 55, 100
2, 12126720, Note_on_c, 0, 55, 0
2, 12126720, Note_on_c, 0, 57, 100
2, 12126960, Note_on_c, 0, 57, 0
2, 12126960, Note_on_c, 0, 59, 100
2, 12127440, Note_on_c, 0, 59, 0
2, 12127440, Note_on_c, 0, 60, 100
2, 12127500, Note_on_c, 0, 60, 0
2, 12127500, Note_on_c, 0, 62, 100
2, 12127560, Note_on_c, 0, 62, 0
2, 12127560, Note_on_c, 0, 64, 100
2, 12127620, Note_on_c, 0, 64, 0
2, 12127620, Note_on_c, 0, 65, 100
2, 12127680, Note_on_c, 0, 65, 0
2, 12127680, Note_on_c, 0, 64, 100
2, 12128040, Note_on_c, 0, 64, 0
2, 12128040, Note_on_c, 0, 63, 100
2, 12128160, Note_on_c, 0, 63, 0
2, 12128160, Note_on_c, 0, 64, 100
2, 12128400, Note_on_c, 0, 64, 0
2, 12128400, Note_on_c, 0, 55, 100
2, 12128880, Note_on_c, 0, 55, 0
2, 12128880, Note_on_c, 0, 60, 100
2, 12129120, Note_on_c, 0, 60, 0
2, 12129120, Note_on_c, 0, 57, 100
2, 12129480, Note_on_c, 0, 57, 0
2, 12129480, Note_on_c, 0, 59, 100
2, 12129600, Note_on_c, 0, 59, 0
2, 12129600, Note_on_c, 0, 52, 100
2, 12129840, Note_on_c, 0, 52, 0
2, 12129840, Note_on_c, 0, 64, 100
2, 12130920, Note_on_c, 0, 64, 0
2, 12130920, Note_on_c, 0, 62, 100
2, 12131280, Note_on_c, 0, 62, 0
2, 12131280, Note_on_c, 0, 60, 100
2, 12131340, Note_on_c, 0, 60, 0
2, 12131340, Note_on_c, 0, 62, 100
2, 12131400, Note_on_c, 0, 62, 0
2, 12131400, Note_on_c, 0, 60, 100
2, 12131460, Note_on_c, 0, 60, 0
2, 12131460, Note_on_c, 0, 59, 100
2, 12131640, Note_on_c, 0, 59, 0
2, 12131640, Note_on_c, 0, 60, 100
2, 12131760, Note_on_c, 0, 60, 0
2, 12131760, Note_on_c, 0, 56, 100
2, 12132000, Note_on_c, 0, 56, 0
2, 12132000, Note_on_c, 0, 59, 100
2, 12132360, Note_on_c, 0, 59, 0
2, 12132360, Note_on_c, 0, 52, 100
2, 12132480, Note_on_c, 0, 52, 0
2, 12132480, Note_on_c, 0, 57, 100
2, 12132720, Note_on_c, 0, 57, 0
2, 12132720, Note_on_c, 0, 60, 100
2, 12133080, Note_on_c, 0, 60, 0
2, 12133080, Note_on_c, 0, 59, 100
2, 12133200, Note_on_c, 0, 59, 0
2, 12133200, Note_on_c, 0, 60, 100
2, 12133440, Note_on_c, 0, 60, 0
2, 12133440, Note_on_c, 0, 59, 100
2, 12133800, Note_on_c, 0, 59, 0
2, 12133800, Note_on_c, 0, 57, 100
2, 12133920, Note_on_c, 0, 57, 0
2, 12133920, Note_on_c, 0, 59, 100
2, 12134160, Note_on_c, 0, 59, 0
2, 12134160, Note_on_c, 0, 64, 100
2, 12134520, Note_on_c, 0, 64, 0
2, 12134520, Note_on_c, 0, 62, 100
2, 12134880, Note_on_c, 0, 62, 0
2, 12134880, Note_on_c, 0, 61, 100
2, 12134940, Note_on_c, 0, 61, 0
2, 12134940, Note_on_c, 0, 62, 100
2, 12135000, Note_on_c, 0, 62, 0
2, 12135000, Note_on_c, 0, 61, 100
2, 12135060, Note_on_c, 0, 61, 0
2, 12135060, Note_on_c, 0, 59, 100
2, 12135240, Note_on_c, 0, 59, 0
2, 12135240, Note_on_c, 0, 61, 100
2, 12135360, Note_on_c, 0, 61, 0
2, 12135360, Note_on_c, 0, 62, 100
2, 12135600, Note_on_c, 0, 62, 0
2, 12135600, Note_on_c, 0, 64, 100
2, 12136680, Note_on_c, 0, 64, 0
2, 12136680, Note_on_c, 0, 60, 100
2, 12136800, Note_on_c, 0, 60, 0
2, 12136800, Note_on_c, 0, 59, 100
2, 12137040, Note_on_c, 0, 59, 0
2, 12137040, Note_on_c, 0, 60, 100
2, 12137400, Note_on_c, 0, 60, 0
2, 12137400, Note_on_c, 0, 57, 100
2, 12137520, Note_on_c, 0, 57, 0
2, 12137520, Note_on_c, 0, 55, 100
2, 12137760, Note_on_c, 0, 55, 0
2, 12137760, Note_on_c, 0, 57, 100
2, 12138120, Note_on_c, 0, 57, 0
2, 12138120, Note_on_c, 0, 59, 100
2, 12138240, Note_on_c, 0, 59, 0
2, 12138240, Note_on_c, 0, 60, 100
2, 12138480, Note_on_c, 0, 60, 0
2, 12138480, Note_on_c, 0, 62, 100
2, 12138840, Note_on_c, 0, 62, 0
2, 12138840, Note_on_c, 0, 59, 100
2, 12138960, Note_on_c, 0, 59, 0
2, 12138960, Note_on_c, 0, 57, 100
2, 12139200, Note_on_c, 0, 57, 0
2, 12139200, Note_on_c, 0, 59, 100
2, 12139560, Note_on_c, 0, 59, 0
2, 12139560, Note_on_c, 0, 60, 100
2, 12139680, Note_on_c, 0, 60, 0
2, 12139680, Note_on_c, 0, 62, 100
2, 12139920, Note_on_c, 0, 62, 0
2, 12139920, Note_on_c, 0, 60, 100
2, 12140280, Note_on_c, 0, 60, 0
2, 12140280, Note_on_c, 0, 59, 100
2, 12140400, Note_on_c, 0, 59, 0
2, 12140400, Note_on_c, 0, 64, 100
2, 12140640, Note_on_c, 0, 64, 0
2, 12140640, Note_on_c, 0, 60, 100
2, 12141000, Note_on_c, 0, 60, 0
2, 12141000, Note_on_c, 0, 62, 100
2, 12141120, Note_on_c, 0, 62, 0
2, 12141120, Note_on_c, 0, 55, 100
2, 12141360, Note_on_c, 0, 55, 0
2, 12141360, Note_on_c, 0, 50, 100
2, 12141720, Note_on_c, 0, 50, 0
2, 12141720, Note_on_c, 0, 47, 100
2, 12141840, Note_on_c, 0, 47, 0
2, 12141840, Note_on_c, 0, 43, 100
2, 12142080, Note_on_c, 0, 43, 0
2, 12142080, Note_on_c, 0, 62, 100
2, 12142800, Note_on_c, 0, 62, 0
2, 12142800, Note_on_c, 0, 50, 100
2, 12143280, Note_on_c, 0, 50, 0
2, 12143280, Note_on_c, 0, 62, 100
2, 12143520, Note_on_c, 0, 62, 0
2, 12143520, Note_on_c, 0, 60, 100
2, 12144240, Note_on_c, 0, 60, 0
2, 12144240, Note_on_c, 0, 59, 100
2, 12144300, Note_on_c, 0, 59, 0
2, 12144300, Note_on_c, 0, 60, 100
2, 12144360, Note_on_c, 0, 60, 0
2, 12144360, Note_on_c, 0, 59, 100
2, 12144420, Note_on_c, 0, 59, 0
2, 12144420, Note_on_c, 0, 57, 100
2, 12144600, Note_on_c, 0, 57, 0
2, 12144600, Note_on_c, 0, 59, 100
2, 12144720, Note_on_c, 0, 59, 0
2, 12144720, Note_on_c, 0, 55, 100
2, 12144960, Note_on_c, 0, 55, 0
2, 12144960, Note_on_c, 0, 57, 100
2, 12145320, Note_on_c, 0, 57, 0
2, 12145320, Note_on_c, 0, 59, 100
2, 12145440, Note_on_c, 0, 59, 0
2, 12145440, Note_on_c, 0, 60, 100
2, 12145680, Note_on_c, 0, 60, 0
2, 12145680, Note_on_c, 0, 62, 100
2, 12146040, Note_on_c, 0, 62, 0
2, 12146040, Note_on_c, 0, 59, 100
2, 12146160, Note_on_c, 0, 59, 0
2, 12146160, Note_on_c, 0, 57, 100
2, 12146400, Note_on_c, 0, 57, 0
2, 12146400, Note_on_c, 0, 59, 100
2, 12146760, Note_on_c, 0, 59, 0
2, 12146760, Note_on_c, 0, 60, 100
2, 12146880, Note_on_c, 0, 60, 0
2, 12146880, Note_on_c, 0, 59, 100
2, 12147120, Note_on_c, 0, 59, 0
2, 12147120, Note_on_c, 0, 47, 100
2, 12147600, Note_on_c, 0, 47, 0
2, 12147600, Note_on_c, 0, 59, 100
2, 12147840, Note_on_c, 0, 59, 0
2, 12147840, Note_on_c, 0, 57, 100
2, 12148200, Note_on_c, 0, 57, 0
2, 12148200, Note_on_c, 0, 59, 100
2, 12148320, Note_on_c, 0, 59, 0
2, 12148320, Note_on_c, 0, 55, 100
2, 12148560, Note_on_c, 0, 55, 0
2, 12148560, Note_on_c, 0, 57, 100
2, 12149040, Note_on_c, 0, 57, 0
2, 12149040, Note_on_c, 0, 59, 100
2, 12149100, Note_on_c, 0, 59, 0
2, 12149100, Note_on_c, 0, 61, 100
2, 12149160, Note_on_c, 0, 61, 0
2, 12149160, Note_on_c, 0, 63, 100
2, 12149220, Note_on_c, 0, 63, 0
2, 12149220, Note_on_c, 0, 64, 100
2, 12149280, Note_on_c, 0, 64, 0
2, 12149280, Note_on_c, 0, 59, 100
2, 12149640, Note_on_c, 0, 59, 0
2, 12149640, Note_on_c, 0, 55, 100
2, 12149760, Note_on_c, 0, 55, 0
2, 12149760, Note_on_c, 0, 57, 100
2, 12150000, Note_on_c, 0, 57, 0
2, 12150000, Note_on_c, 0, 59, 100
2, 12150480, Note_on_c, 0, 59, 0
2, 12150480, Note_on_c, 0, 60, 100
2, 12150540, Note_on_c, 0, 60, 0
2, 12150540, Note_on_c, 0, 62, 100
2, 12150600, Note_on_c, 0, 62, 0
2, 12150600, Note_on_c, 0, 64, 100
2, 12150660, Note_on_c, 0, 64, 0
2, 12150660, Note_on_c, 0, 65, 100
2, 12150720, Note_on_c, 0, 65, 0
2, 12150720, Note_on_c, 0, 64, 100
2, 12151080, Note_on_c, 0, 64, 0
2, 12151080, Note_on_c, 0, 63, 100
2, 12151200, Note_on_c, 0, 63, 0
2, 12151200, Note_on_c, 0, 64, 100
2, 12151440, Note_on_c, 0, 64, 0
2, 12151440, Note_on_c, 0, 55, 100
2, 12151920, Note_on_c, 0, 55, 0
2, 12151920, Note_on_c, 0, 60, 100
2, 12152160, Note_on_c, 0, 60, 0
2, 12152160, Note_on_c, 0, 57, 100
2, 12152520, Note_on_c, 0, 57, 0
2, 12152520, Note_on_c, 0, 59, 100
2, 12152640, Note_on_c, 0, 59, 0
2, 12152640, Note_on_c, 0, 52, 100
2, 12152880, Note_on_c, 0, 52, 0
2, 12152880, Note_on_c, 0, 64, 100
2, 12153960, Note_on_c, 0, 64, 0
2, 12153960, Note_on_c, 0, 62, 100
2, 12154320, Note_on_c, 0, 62, 0
2, 12154320, Note_on_c, 0, 60, 100
2, 12154380, Note_on_c, 0, 60, 0
2, 12154380, Note_on_c, 0, 62, 100
2, 12154440, Note_on_c, 0, 62, 0
2, 12154440, Note_on_c, 0, 60, 100
2, 12154500, Note_on_c, 0, 60, 0
2, 12154500, Note_on_c, 0, 59, 100
2, 12154680, Note_on_c, 0, 59, 0
2, 12154680, Note_on_c, 0, 60, 100
2, 12154800, Note_on_c, 0, 60, 0
2, 12154800, Note_on_c, 0, 56, 100
2, 12155040, Note_on_c, 0, 56, 0
2, 12155040, Note_on_c, 0, 59, 100
2, 12155400, Note_on_c, 0, 59, 0
2, 12155400, Note_on_c, 0, 52, 100
2, 12155520, Note_on_c, 0, 52, 0
2, 12155520, Note_on_c, 0, 57, 100
2, 12155760, Note_on_c, 0, 57, 0
2, 12155760, Note_on_c, 0, 60, 100
2, 12156120, Note_on_c, 0, 60, 0
2, 12156120, Note_on_c, 0, 59, 100
2, 12156240, Note_on_c, 0, 59, 0
2, 12156240, Note_on_c, 0, 60, 100
2, 12156480, Note_on_c, 0, 60, 0
2, 12156480, Note_on_c, 0, 59, 100
2, 12156840, Note_on_c, 0, 59, 0
2, 12156840, Note_on_c, 0, 57, 100
2, 12156960, Note_on_c, 0, 57, 0
2, 12156960, Note_on_c, 0, 59, 100
2, 12157200, Note_on_c, 0, 59, 0
2, 12157200, Note_on_c, 0, 64, 100
2, 12157560, Note_on_c, 0, 64, 0
2, 12157560, Note_on_c, 0, 62, 100
2, 12157920, Note_on_c, 0, 62, 0
2, 12157920, Note_on_c, 0, 61, 100
2, 12157980, Note_on_c, 0, 61, 0
2, 12157980, Note_on_c, 0, 62, 100
2, 12158040, Note_on_c, 0, 62, 0
2, 12158040, Note_on_c, 0, 61, 100
2, 12158100, Note_on_c, 0, 61, 0
2, 12158100, Note_on_c, 0, 59, 100
2, 12158280, Note_on_c, 0, 59, 0
2, 12158280, Note_on_c, 0, 61, 100
2, 12158400, Note_on_c, 0, 61, 0
2, 12158400, Note_on_c, 0, 62, 100
2, 12158640, Note_on_c, 0, 62, 0
2, 12158640, Note_on_c, 0, 64, 100
2, 12159720, Note_on_c, 0, 64, 0
2, 12159720, Note_on_c, 0, 60, 100
2, 12159840, Note_on_c, 0, 60, 0
2, 12159840, Note_on_c, 0, 59, 100
2, 12160080, Note_on_c, 0, 59, 0
2, 12160080, Note_on_c, 0, 60, 100
2, 12160440, Note_on_c, 0, 60, 0
2, 12160440, Note_on_c, 0, 57, 100
2, 12160560, Note_on_c, 0, 57, 0
2, 12160560, Note_on_c, 0, 55, 100
2, 12160800, Note_on_c, 0, 55, 0
2, 12160800, Note_on_c, 0, 57, 100
2, 12161160, Note_on_c, 0, 57, 0
2, 12161160, Note_on_c, 0, 59, 100
2, 12161280, Note_on_c, 0, 59, 0
2, 12161280, Note_on_c, 0, 60, 100
2, 12161520, Note_on_c, 0, 60, 0
2, 12161520, Note_on_c, 0, 62, 100
2, 12161880, Note_on_c, 0, 62, 0
2, 12161880, Note_on_c, 0, 59, 100
2, 12162000, Note_on_c, 0, 59, 0
2, 12162000, Note_on_c, 0, 57, 100
2, 12162240, Note_on_c, 0, 57, 0
2, 12162240, Note_on_c, 0, 59, 100
2, 12162600, Note_on_c, 0, 59, 0
2, 12162600, Note_on_c, 0, 60, 100
2, 12162720, Note_on_c, 0, 60, 0
2, 12162720, Note_on_c, 0, 62, 100
2, 12162960, Note_on_c, 0, 62, 0
2, 12162960, Note_on_c, 0, 60, 100
2, 12163320, Note_on_c, 0, 60, 0
2, 12163320, Note_on_c, 0, 59, 100
2, 12163440, Note_on_c, 0, 59, 0
2, 12163440, Note_on_c, 0, 64, 100
2, 12163680, Note_on_c, 0, 64, 0
2, 12163680, Note_on_c, 0, 60, 100
2, 12164040, Note_on_c, 0, 60, 0
2, 12164040, Note_on_c, 0, 62, 100
2, 12164160, Note_on_c, 0, 62, 0
2, 12164160, Note_on_c, 0, 55, 100
2, 12164400, Note_on_c, 0, 55, 0
2, 12164400, Note_on_c, 0, 50, 100
2, 12164760, Note_on_c, 0, 50, 0
2, 12164760, Note_on_c, 0, 47, 100
2, 12164880, Note_on_c, 0, 47, 0
2, 12164880, Note_on_c, 0, 43, 100
2, 12165120, Note_on_c, 0, 43, 0
2, 12165120, Note_on_c, 0, 55, 100
2, 12165840, Note_on_c, 0, 55, 0
2, 12165840, Note_on_c, 0, 50, 100
2, 12166080, Note_on_c, 0, 50, 0
2, 12166080, Note_on_c, 0, 47, 100
2, 12166320, Note_on_c, 0, 47, 0
2, 12166320, Note_on_c, 0, 43, 100
2, 12166560, Note_on_c, 0, 43, 0
2, 12166560, Note_on_c, 0, 55, 100
2, 12166920, Note_on_c, 0, 55, 0
2, 12166920, Note_on_c, 0, 54, 100
2, 12167040, Note_on_c, 0, 54, 0
2, 12167040, Note_on_c, 0, 52, 100
2, 12167160, Note_on_c, 0, 52, 0
2, 12167160, Note_on_c, 0, 54, 100
2, 12167280, Note_on_c, 0, 54, 0
2, 12167280, Note_on_c, 0, 50, 100
2, 12167520, Note_on_c, 0, 50, 0
2, 12167520, Note_on_c, 0, 45, 100
2, 12167760, Note_on_c, 0, 45, 0
2, 12167760, Note_on_c, 0, 42, 100
2, 12168000, Note_on_c, 0, 42, 0
2, 12168000, Note_on_c, 0, 54, 100
2, 12168360, Note_on_c, 0, 54, 0
2, 12168360, Note_on_c, 0, 52, 100
2, 12168480, Note_on_c, 0, 52, 0
2, 12168480, Note_on_c, 0, 50, 100
2, 12168600, Note_on_c, 0, 50, 0
2, 12168600, Note_on_c, 0, 52, 100
2, 12168720, Note_on_c, 0, 52, 0
2, 12168720, Note_on_c, 0, 47, 100
2, 12168960, Note_on_c, 0, 47, 0
2, 12168960, Note_on_c, 0, 43, 100
2, 12169200, Note_on_c, 0, 43, 0
2, 12169200, Note_on_c, 0, 40, 100
2, 12169440, Note_on_c, 0, 40, 0
2, 12169440, Note_on_c, 0, 52, 100
2, 12169800, Note_on_c, 0, 52, 0
2, 12169800, Note_on_c, 0, 50, 100
2, 12169920, Note_on_c, 0, 50, 0
2, 12169920, Note_on_c, 0, 49, 100
2, 12170040, Note_on_c, 0, 49, 0
2, 12170040, Note_on_c, 0, 50, 100
2, 12170160, Note_on_c, 0, 50, 0
2, 12170160, Note_on_c, 0, 45, 100
2, 12170400, Note_on_c, 0, 45, 0
2, 12170400, Note_on_c, 0, 42, 100
2, 12170640, Note_on_c, 0, 42, 0
2, 12170640, Note_on_c, 0, 38, 100
2, 12170880, Note_on_c, 0, 38, 0
2, 12170880, Note_on_c, 0, 48, 100
2, 12171240, Note_on_c, 0, 48, 0
2, 12171240, Note_on_c, 0, 47, 100
2, 12171360, Note_on_c, 0, 47, 0
2, 12171360, Note_on_c, 0, 45, 100
2, 12171480, Note_on_c, 0, 45, 0
2, 12171480, Note_on_c, 0, 47, 100
2, 12171600, Note_on_c, 0, 47, 0
2, 12171600, Note_on_c, 0, 50, 100
2, 12171840, Note_on_c, 0, 50, 0
2, 12171840, Note_on_c, 0, 55, 100
2, 12172080, Note_on_c, 0, 55, 0
2, 12172080, Note_on_c, 0, 59, 100
2, 12172320, Note_on_c, 0, 59, 0
2, 12172320, Note_on_c, 0, 55, 100
2, 12172680, Note_on_c, 0, 55, 0
2, 12172680, Note_on_c, 0, 53, 100
2, 12172800, Note_on_c, 0, 53, 0
2, 12172800, Note_on_c, 0, 55, 100
2, 12172920, Note_on_c, 0, 55, 0
2, 12172920, Note_on_c, 0, 48, 100
2, 12173040, Note_on_c, 0, 48, 0
2, 12173040, Note_on_c, 0, 52, 100
2, 12173280, Note_on_c, 0, 52, 0
2, 12173280, Note_on_c, 0, 57, 100
2, 12173520, Note_on_c, 0, 57, 0
2, 12173520, Note_on_c, 0, 60, 100
2, 12173760, Note_on_c, 0, 60, 0
2, 12173760, Note_on_c, 0, 57, 100
2, 12174120, Note_on_c, 0, 57, 0
2, 12174120, Note_on_c, 0, 55, 100
2, 12174240, Note_on_c, 0, 55, 0
2, 12174240, Note_on_c, 0, 57, 100
2, 12174360, Note_on_c, 0, 57, 0
2, 12174360, Note_on_c, 0, 50, 100
2, 12174480, Note_on_c, 0, 50, 0
2, 12174480, Note_on_c, 0, 54, 100
2, 12174720, Note_on_c, 0, 54, 0
2, 12174720, Note_on_c, 0, 57, 100
2, 12174960, Note_on_c, 0, 57, 0
2, 12174960, Note_on_c, 0, 62, 100
2, 12175200, Note_on_c, 0, 62, 0
2, 12175200, Note_on_c, 0, 50, 100
2, 12175560, Note_on_c, 0, 50, 0
2, 12175560, Note_on_c, 0, 48, 100
2, 12175680, Note_on_c, 0, 48, 0
2, 12175680, Note_on_c, 0, 50, 100
2, 12175800, Note_on_c, 0, 50, 0
2, 12175800, Note_on_c, 0, 43, 100
2, 12175920, Note_on_c, 0, 43, 0
2, 12175920, Note_on_c, 0, 55, 100
2, 12176160, Note_on_c, 0, 55, 0
2, 12176160, Note_on_c, 0, 47, 100
2, 12176400, Note_on_c, 0, 47, 0
2, 12176400, Note_on_c, 0, 50, 100
2, 12176640, Note_on_c, 0, 50, 0
2, 12176640, Note_on_c, 0, 43, 100
2, 12176880, Note_on_c, 0, 43, 0
2, 12176880, Note_on_c, 0, 55, 100
2, 12177360, Note_on_c, 0, 55, 0
2, 12177360, Note_on_c, 0, 59, 100
2, 12177480, Note_on_c, 0, 59, 0
2, 12177480, Note_on_c, 0, 62, 100
2, 12177600, Note_on_c, 0, 62, 0
2, 12177600, Note_on_c, 0, 60, 100
2, 12177720, Note_on_c, 0, 60, 0
2, 12177720, Note_on_c, 0, 59, 100
2, 12177840, Note_on_c, 0, 59, 0
2, 12177840, Note_on_c, 0, 62, 100
2, 12177960, Note_on_c, 0, 62, 0
2, 12177960, Note_on_c, 0, 67, 100
2, 12178080, Note_on_c, 0, 67, 0
2, 12178080, Note_on_c, 0, 66, 100
2, 12178200, Note_on_c, 0, 66, 0
2, 12178200, Note_on_c, 0, 64, 100
2, 12178320, Note_on_c, 0, 64, 0
2, 12178320, Note_on_c, 0, 67, 100
2, 12178440, Note_on_c, 0, 67, 0
2, 12178440, Note_on_c, 0, 71, 100
2, 12178560, Note_on_c, 0, 71, 0
2, 12178560, Note_on_c, 0, 54, 100
2, 12178800, Note_on_c, 0, 54, 0
2, 12178800, Note_on_c, 0, 57, 100
2, 12178920, Note_on_c, 0, 57, 0
2, 12178920, Note_on_c, 0, 61, 100
2, 12179040, Note_on_c, 0, 61, 0
2, 12179040, Note_on_c, 0, 59, 100
2, 12179160, Note_on_c, 0, 59, 0
2, 12179160, Note_on_c, 0, 57, 100
2, 12179280, Note_on_c, 0, 57, 0
2, 12179280, Note_on_c, 0, 61, 100
2, 12179400, Note_on_c, 0, 61, 0
2, 12179400, Note_on_c, 0, 66, 100
2, 12179520, Note_on_c, 0, 66, 0
2, 12179520, Note_on_c, 0, 64, 100
2, 12179640, Note_on_c, 0, 64, 0
2, 12179640, Note_on_c, 0, 62, 100
2, 12179760, Note_on_c, 0, 62, 0
2, 12179760, Note_on_c, 0, 66, 100
2, 12179880, Note_on_c, 0, 66, 0
2, 12179880, Note_on_c, 0, 69, 100
2, 12180000, Note_on_c, 0, 69, 0
2, 12180000, Note_on_c, 0, 52, 100
2, 12180240, Note_on_c, 0, 52, 0
2, 12180240, Note_on_c, 0, 55, 100
2, 12180360, Note_on_c, 0, 55, 0
2, 12180360, Note_on_c, 0, 59, 100
2, 12180480, Note_on_c, 0, 59, 0
2, 12180480, Note_on_c, 0, 57, 100
2, 12180600, Note_on_c, 0, 57, 0
2, 12180600, Note_on_c, 0, 55, 100
2, 12180720, Note_on_c, 0, 55, 0
2, 12180720, Note_on_c, 0, 59, 100
2, 12180840, Note_on_c, 0, 59, 0
2, 12180840, Note_on_c, 0, 64, 100
2, 12180960, Note_on_c, 0, 64, 0
2, 12180960, Note_on_c, 0, 62, 100
2, 12181080, Note_on_c, 0, 62, 0
2, 12181080, Note_on_c, 0, 61, 100
2, 12181200, Note_on_c, 0, 61, 0
2, 12181200, Note_on_c, 0, 64, 100
2, 12181320, Note_on_c, 0, 64, 0
2, 12181320, Note_on_c, 0, 67, 100
2, 12181440, Note_on_c, 0, 67, 0
2, 12181440, Note_on_c, 0, 66, 100
2, 12181560, Note_on_c, 0, 66, 0
2, 12181560, Note_on_c, 0, 64, 100
2, 12181680, Note_on_c, 0, 64, 0
2, 12181680, Note_on_c, 0, 67, 100
2, 12181800, Note_on_c, 0, 67, 0
2, 12181800, Note_on_c, 0, 73, 100
2, 12181920, Note_on_c, 0, 73, 0
2, 12181920, Note_on_c, 0, 71, 100
2, 12182040, Note_on_c, 0, 71, 0
2, 12182040, Note_on_c, 0, 69, 100
2, 12182160, Note_on_c, 0, 69, 0
2, 12182160, Note_on_c, 0, 73, 100
2, 12182280, Note_on_c, 0, 73, 0
2, 12182280, Note_on_c, 0, 76, 100
2, 12182400, Note_on_c, 0, 76, 0
2, 12182400, Note_on_c, 0, 74, 100
2, 12182520, Note_on_c, 0, 74, 0
2, 12182520, Note_on_c, 0, 73, 100
2, 12182640, Note_on_c, 0, 73, 0
2, 12182640, Note_on_c, 0, 76, 100
2, 12182760, Note_on_c, 0, 76, 0
2, 12182760, Note_on_c, 0, 81, 100
2, 12182880, Note_on_c, 0, 81, 0
2, 12182880, Note_on_c, 0, 79, 100
2, 12183000, Note_on_c, 0, 79, 0
2, 12183000, Note_on_c, 0, 78, 100
2, 12183120, Note_on_c, 0, 78, 0
2, 12183120, Note_on_c, 0, 81, 100
2, 12183240, Note_on_c, 0, 81, 0
2, 12183240, Note_on_c, 0, 74, 100
2, 12183360, Note_on_c, 0, 74, 0
2, 12183360, Note_on_c, 0, 76, 100
2, 12183480, Note_on_c, 0, 76, 0
2, 12183480, Note_on_c, 0, 78, 100
2, 12183600, Note_on_c, 0, 78, 0
2, 12183600, Note_on_c, 0, 74, 100
2, 12183720, Note_on_c, 0, 74, 0
2, 12183720, Note_on_c, 0, 69, 100
2, 12183840, Note_on_c, 0, 69, 0
2, 12183840, Note_on_c, 0, 71, 100
2, 12183960, Note_on_c, 0, 71, 0
2, 12183960, Note_on_c, 0, 72, 100
2, 12184080, Note_on_c, 0, 72, 0
2, 12184080, Note_on_c, 0, 69, 100
2, 12184200, Note_on_c, 0, 69, 0
2, 12184200, Note_on_c, 0, 66, 100
2, 12184320, Note_on_c, 0, 66, 0
2, 12184320, Note_on_c, 0, 69, 100
2, 12184440, Note_on_c, 0, 69, 0
2, 12184440, Note_on_c, 0, 71, 100
2, 12184560, Note_on_c, 0, 71, 0
2, 12184560, Note_on_c, 0, 74, 100
2, 12184680, Note_on_c, 0, 74, 0
2, 12184680, Note_on_c, 0, 67, 100
2, 12184800, Note_on_c, 0, 67, 0
2, 12184800, Note_on_c, 0, 69, 100
2, 12184920, Note_on_c, 0, 69, 0
2, 12184920, Note_on_c, 0, 71, 100
2, 12185040, Note_on_c, 0, 71, 0
2, 12185040, Note_on_c, 0, 67, 100
2, 12185160, Note_on_c, 0, 67, 0
2, 12185160, Note_on_c, 0, 64, 100
2, 12185280, Note_on_c, 0, 64, 0
2, 12185280, Note_on_c, 0, 66, 100
2, 12185400, Note_on_c, 0, 66, 0
2, 12185400, Note_on_c, 0, 67, 100
2, 12185520, Note_on_c, 0, 67, 0
2, 12185520, Note_on_c, 0, 64, 100
2, 12185640, Note_on_c, 0, 64, 0
2, 12185640, Note_on_c, 0, 59, 100
2, 12185760, Note_on_c, 0, 59, 0
2, 12185760, Note_on_c, 0, 62, 100
2, 12185880, Note_on_c, 0, 62, 0
2, 12185880, Note_on_c, 0, 61, 100
2, 12186000, Note_on_c, 0, 61, 0
2, 12186000, Note_on_c, 0, 64, 100
2, 12186120, Note_on_c, 0, 64, 0
2, 12186120, Note_on_c, 0, 57, 100
2, 12186240, Note_on_c, 0, 57, 0
2, 12186240, Note_on_c, 0, 59, 100
2, 12186360, Note_on_c, 0, 59, 0
2, 12186360, Note_on_c, 0, 61, 100
2, 12186480, Note_on_c, 0, 61, 0
2, 12186480, Note_on_c, 0, 57, 100
2, 12186600, Note_on_c, 0, 57, 0
2, 12186600, Note_on_c, 0, 52, 100
2, 12186720, Note_on_c, 0, 52, 0
2, 12186720, Note_on_c, 0, 54, 100
2, 12186840, Note_on_c, 0, 54, 0
2, 12186840, Note_on_c, 0, 55, 100
2, 12186960, Note_on_c, 0, 55, 0
2, 12186960, Note_on_c, 0, 52, 100
2, 12187080, Note_on_c, 0, 52, 0
2, 12187080, Note_on_c, 0, 49, 100
2, 12187200, Note_on_c, 0, 49, 0
2, 12187200, Note_on_c, 0, 52, 100
2, 12187320, Note_on_c, 0, 52, 0
2, 12187320, Note_on_c, 0, 54, 100
2, 12187440, Note_on_c, 0, 54, 0
2, 12187440, Note_on_c, 0, 57, 100
2, 12187560, Note_on_c, 0, 57, 0
2, 12187560, Note_on_c, 0, 50, 100
2, 12187680, Note_on_c, 0, 50, 0
2, 12187680, Note_on_c, 0, 52, 100
2, 12187800, Note_on_c, 0, 52, 0
2, 12187800, Note_on_c, 0, 54, 100
2, 12187920, Note_on_c, 0, 54, 0
2, 12187920, Note_on_c, 0, 50, 100
2, 12188040, Note_on_c, 0, 50, 0
2, 12188040, Note_on_c, 0, 54, 100
2, 12188160, Note_on_c, 0, 54, 0
2, 12188160, Note_on_c, 0, 57, 100
2, 12188280, Note_on_c, 0, 57, 0
2, 12188280, Note_on_c, 0, 62, 100
2, 12188400, Note_on_c, 0, 62, 0
2, 12188400, Note_on_c, 0, 55, 100
2, 12188880, Note_on_c, 0, 55, 0
2, 12188880, Note_on_c, 0, 50, 100
2, 12189120, Note_on_c, 0, 50, 0
2, 12189120, Note_on_c, 0, 47, 100
2, 12189360, Note_on_c, 0, 47, 0
2, 12189360, Note_on_c, 0, 43, 100
2, 12189600, Note_on_c, 0, 43, 0
2, 12189600, Note_on_c, 0, 55, 100
2, 12189960, Note_on_c, 0, 55, 0
2, 12189960, Note_on_c, 0, 54, 100
2, 12190080, Note_on_c, 0, 54, 0
2, 12190080, Note_on_c, 0, 52, 100
2, 12190200, Note_on_c, 0, 52, 0
2, 12190200, Note_on_c, 0, 54, 100
2, 12190320, Note_on_c, 0, 54, 0
2, 12190320, Note_on_c, 0, 50, 100
2, 12190560, Note_on_c, 0, 50, 0
2, 12190560, Note_on_c, 0, 45, 100
2, 12190800, Note_on_c, 0, 45, 0
2, 12190800, Note_on_c, 0, 42, 100
2, 12191040, Note_on_c, 0, 42, 0
2, 12191040, Note_on_c, 0, 54, 100
2, 12191400, Note_on_c, 0, 54, 0
2, 12191400, Note_on_c, 0, 52, 100
2, 12191520, Note_on_c, 0, 52, 0
2, 12191520, Note_on_c, 0, 50, 100
2, 12191640, Note_on_c, 0, 50, 0
2, 12191640, Note_on_c, 0, 52, 100
2, 12191760, Note_on_c, 0, 52, 0
2, 12191760, Note_on_c, 0, 47, 100
2, 12192000, Note_on_c, 0, 47, 0
2, 12192000, Note_on_c, 0, 43, 100
2, 12192240, Note_on_c, 0, 43, 0
2, 12192240, Note_on_c, 0, 40, 100
2, 12192480, Note_on_c, 0, 40, 0
2, 12192480, Note_on_c, 0, 52, 100
2, 12192840, Note_on_c, 0, 52, 0
2, 12192840, Note_on_c, 0, 50, 100
2, 12192960, Note_on_c, 0, 50, 0
2, 12192960, Note_on_c, 0, 49, 100
2, 12193080, Note_on_c, 0, 49, 0
2, 12193080, Note_on_c, 0, 50, 100
2, 12193200, Note_on_c, 0, 50, 0
2, 12193200, Note_on_c, 0, 45, 100
2, 12193440, Note_on_c, 0, 45, 0
2, 12193440, Note_on_c, 0, 42, 100
2, 12193680, Note_on_c, 0, 42, 0
2, 12193680, Note_on_c, 0, 38, 100
2, 12193920, Note_on_c, 0, 38, 0
2, 12193920, Note_on_c, 0, 48, 100
2, 12194280, Note_on_c, 0, 48, 0
2, 12194280, Note_on_c, 0, 47, 100
2, 12194400, Note_on_c, 0, 47, 0
2, 12194400, Note_on_c, 0, 45, 100
2, 12194520, Note_on_c, 0, 45, 0
2, 12194520, Note_on_c, 0, 47, 100
2, 12194640, Note_on_c, 0, 47, 0
2, 12194640, Note_on_c, 0, 50, 100
2, 12194880, Note_on_c, 0, 50, 0
2, 12194880, Note_on_c, 0, 55, 100
2, 12195120, Note_on_c, 0, 55, 0
2, 12195120, Note_on_c, 0, 59, 100
2, 12195360, Note_on_c, 0, 59, 0
2, 12195360, Note_on_c, 0, 55, 100
2, 12195720, Note_on_c, 0, 55, 0
2, 12195720, Note_on_c, 0, 53, 100
2, 12195840, Note_on_c, 0, 53, 0
2, 12195840, Note_on_c, 0, 55, 100
2, 12195960, Note_on_c, 0, 55, 0
2, 12195960, Note_on_c, 0, 48, 100
2, 12196080, Note_on_c, 0, 48, 0
2, 12196080, Note_on_c, 0, 52, 100
2, 12196320, Note_on_c, 0, 52, 0
2, 12196320, Note_on_c, 0, 57, 100
2, 12196560, Note_on_c, 0, 57, 0
2, 12196560, Note_on_c, 0, 60, 100
2, 12196800, Note_on_c, 0, 60, 0
2, 12196800, Note_on_c, 0, 57, 100
2, 12197160, Note_on_c, 0, 57, 0
2, 12197160, Note_on_c, 0, 55, 100
2, 12197280, Note_on_c, 0, 55, 0
2, 12197280, Note_on_c, 0, 57, 100
2, 12197400, Note_on_c, 0, 57, 0
2, 12197400, Note_on_c, 0, 50, 100
2, 12197520, Note_on_c, 0, 50, 0
2, 12197520, Note_on_c, 0, 54, 100
2, 12197760, Note_on_c, 0, 54, 0
2, 12197760, Note_on_c, 0, 57, 100
2, 12198000, Note_on_c, 0, 57, 0
2, 12198000, Note_on_c, 0, 62, 100
2, 12198240, Note_on_c, 0, 62, 0
2, 12198240, Note_on_c, 0, 50, 100
2, 12198600, Note_on_c, 0, 50, 0
2, 12198600, Note_on_c, 0, 48, 100
2, 12198720, Note_on_c, 0, 48, 0
2, 12198720, Note_on_c, 0, 50, 100
2, 12198840, Note_on_c, 0, 50, 0
2, 12198840, Note_on_c, 0, 43, 100
2, 12198960, Note_on_c, 0, 43, 0
2, 12198960, Note_on_c, 0, 55, 100
2, 12199200, Note_on_c, 0, 55, 0
2, 12199200, Note_on_c, 0, 47, 100
2, 12199440, Note_on_c, 0, 47, 0
2, 12199440, Note_on_c, 0, 50, 100
2, 12199680, Note_on_c, 0, 50, 0
2, 12199680, Note_on_c, 0, 43, 100
2, 12199920, Note_on_c, 0, 43, 0
2, 12199920, Note_on_c, 0, 55, 100
2, 12200400, Note_on_c, 0, 55, 0
2, 12200400, Note_on_c, 0, 59, 100
2, 12200520, Note_on_c, 0, 59, 0
2, 12200520, Note_on_c, 0, 62, 100
2, 12200640, Note_on_c, 0, 62, 0
2, 12200640, Note_on_c, 0, 60, 100
2, 12200760, Note_on_c, 0, 60, 0
2, 12200760, Note_on_c, 0, 59, 100
2, 12200880, Note_on_c, 0, 59, 0
2, 12200880, Note_on_c, 0, 62, 100
2, 12201000, Note_on_c, 0, 62, 0
2, 12201000, Note_on_c, 0, 67, 100
2, 12201120, Note_on_c, 0, 67, 0
2, 12201120, Note_on_c, 0, 66, 100
2, 12201240, Note_on_c, 0, 66, 0
2, 12201240, Note_on_c, 0, 64, 100
2, 12201360, Note_on_c, 0, 64, 0
2, 12201360, Note_on_c, 0, 67, 100
2, 12201480, Note_on_c, 0, 67, 0
2, 12201480, Note_on_c, 0, 71, 100
2, 12201600, Note_on_c, 0, 71, 0
2, 12201600, Note_on_c, 0, 54, 100
2, 12201840, Note_on_c, 0, 54, 0
2, 12201840, Note_on_c, 0, 57, 100
2, 12201960, Note_on_c, 0, 57, 0
2, 12201960, Note_on_c, 0, 61, 100
2, 12202080, Note_on_c, 0, 61, 0
2, 12202080, Note_on_c, 0, 59, 100
2, 12202200, Note_on_c, 0, 59, 0
2, 12202200, Note_on_c, 0, 57, 100
2, 12202320, Note_on_c, 0, 57, 0
2, 12202320, Note_on_c, 0, 61, 100
2, 12202440, Note_on_c, 0, 61, 0
2, 12202440, Note_on_c, 0, 66, 100
2, 12202560, Note_on_c, 0, 66, 0
2, 12202560, Note_on_c, 0, 64, 100
2, 12202680, Note_on_c, 0, 64, 0
2, 12202680, Note_on_c, 0, 62, 100
2, 12202800, Note_on_c, 0, 62, 0
2, 12202800, Note_on_c, 0, 66, 100
2, 12202920, Note_on_c, 0, 66, 0
2, 12202920, Note_on_c, 0, 69, 100
2, 12203040, Note_on_c, 0, 69, 0
2, 12203040, Note_on_c, 0, 52, 100
2, 12203280, Note_on_c, 0, 52, 0
2, 12203280, Note_on_c, 0, 55, 100
2, 12203400, Note_on_c, 0, 55, 0
2, 12203400, Note_on_c, 0, 59, 100
2, 12203520, Note_on_c, 0, 59, 0
2, 12203520, Note_on_c, 0, 57, 100
2, 12203640, Note_on_c, 0, 57, 0
2, 12203640, Note_on_c, 0, 55, 100
2, 12203760, Note_on_c, 0, 55, 0
2, 12203760, Note_on_c, 0, 59, 100
2, 12203880, Note_on_c, 0, 59, 0
2, 12203880, Note_on_c, 0, 64, 100
2, 12204000, Note_on_c, 0, 64, 0
2, 12204000, Note_on_c, 0, 62, 100
2, 12204120, Note_on_c, 0, 62, 0
2, 12204120, Note_on_c, 0, 61, 100
2, 12204240, Note_on_c, 0, 61, 0
2, 12204240, Note_on_c, 0, 64, 100
2, 12204360, Note_on_c, 0, 64, 0
2, 12204360, Note_on_c, 0, 67, 100
2, 12204480, Note_on_c, 0, 67, 0
2, 12204480, Note_on_c, 0, 66, 100
2, 12204600, Note_on_c, 0, 66, 0
2, 12204600, Note_on_c, 0, 64, 100
2, 12204720, Note_on_c, 0, 64, 0
2, 12204720, Note_on_c, 0, 67, 100
2, 12204840, Note_on_c, 0, 67, 0
2, 12204840, Note_on_c, 0, 73, 100
2, 12204960, Note_on_c, 0, 73, 0
2, 12204960, Note_on_c, 0, 71, 100
2, 12205080, Note_on_c, 0, 71, 0
2, 12205080, Note_on_c, 0, 69, 100
2, 12205200, Note_on_c, 0, 69, 0
2, 12205200, Note_on_c, 0, 73, 100
2, 12205320, Note_on_c, 0, 73, 0
2, 12205320, Note_on_c, 0, 76, 100
2, 12205440, Note_on_c, 0, 76, 0
2, 12205440, Note_on_c, 0, 74, 100
2, 12205560, Note_on_c, 0, 74, 0
2, 12205560, Note_on_c, 0, 73, 100
2, 12205680, Note_on_c, 0, 73, 0
2, 12205680, Note_on_c, 0, 76, 100
2, 12205800, Note_on_c, 0, 76, 0
2, 12205800, Note_on_c, 0, 81, 100
2, 12205920, Note_on_c, 0, 81, 0
2, 12205920, Note_on_c, 0, 79, 100
2, 12206040, Note_on_c, 0, 79, 0
2, 12206040, Note_on_c, 0, 78, 100
2, 12206160, Note_on_c, 0, 78, 0
2, 12206160, Note_on_c, 0, 81, 100
2, 12206280, Note_on_c, 0, 81, 0
2, 12206280, Note_on_c, 0, 74, 100
2, 12206400, Note_on_c, 0, 74, 0
2, 12206400, Note_on_c, 0, 76, 100
2, 12206520, Note_on_c, 0, 76, 0
2, 12206520, Note_on_c, 0, 78, 100
2, 12206640, Note_on_c, 0, 78, 0
2, 12206640, Note_on_c, 0, 74, 100
2, 12206760, Note_on_c, 0, 74, 0
2, 12206760, Note_on_c, 0, 69, 100
2, 12206880, Note_on_c, 0, 69, 0
2, 12206880, Note_on_c, 0, 71, 100
2, 12207000, Note_on_c, 0, 71, 0
2, 12207000, Note_on_c, 0, 72, 100
2, 12207120, Note_on_c, 0, 72, 0
2, 12207120, Note_on_c, 0, 69, 100
2, 12207240, Note_on_c, 0, 69, 0
2, 12207240, Note_on_c, 0, 66, 100
2, 12207360, Note_on_c, 0, 66, 0
2, 12207360, Note_on_c, 0, 69, 100
2, 12207480, Note_on_c, 0, 69, 0
2, 12207480, Note_on_c, 0, 71, 100
2, 12207600, Note_on_c, 0, 71, 0
2, 12207600, Note_on_c, 0, 74, 100
2, 12207720, Note_on_c, 0, 74, 0
2, 12207720, Note_on_c, 0, 67, 100
2, 12207840, Note_on_c, 0, 67, 0
2, 12207840, Note_on_c, 0, 69, 100
2, 12207960, Note_on_c, 0, 69, 0
2, 12207960, Note_on_c, 0, 71, 100
2, 12208080, Note_on_c, 0, 71, 0
2, 12208080, Note_on_c, 0, 67, 100
2, 12208200, Note_on_c, 0, 67, 0
2, 12208200, Note_on_c, 0, 64, 100
2, 12208320, Note_on_c, 0, 64, 0
2, 12208320, Note_on_c, 0, 66, 100
2, 12208440, Note_on_c, 0, 66, 0
2, 12208440, Note_on_c, 0, 67, 100
2, 12208560, Note_on_c, 0, 67, 0
2, 12208560, Note_on_c, 0, 64, 100
2, 12208680, Note_on_c, 0, 64, 0
2, 12208680, Note_on_c, 0, 59, 100
2, 12208800, Note_on_c, 0, 59, 0
2, 12208800, Note_on_c, 0, 62, 100
2, 12208920, Note_on_c, 0, 62, 0
2, 12208920, Note_on_c, 0, 61, 100
2, 12209040, Note_on_c, 0, 61, 0
2, 12209040, Note_on_c, 0, 64, 100
2, 12209160, Note_on_c, 0, 64, 0
2, 12209160, Note_on_c, 0, 57, 100
2, 12209280, Note_on_c, 0, 57, 0
2, 12209280, Note_on_c, 0, 59, 100
2, 12209400, Note_on_c, 0, 59, 0
2, 12209400, Note_on_c, 0, 61, 100
2, 12209520, Note_on_c, 0, 61, 0
2, 12209520, Note_on_c, 0, 57, 100
2, 12209640, Note_on_c, 0, 57, 0
2, 12209640, Note_on_c, 0, 52, 100
2, 12209760, Note_on_c, 0, 52, 0
2, 12209760, Note_on_c, 0, 54, 100
2, 12209880, Note_on_c, 0, 54, 0
2, 12209880, Note_on_c, 0, 55, 100
2, 12210000, Note_on_c, 0, 55, 0
2, 12210000, Note_on_c, 0, 52, 100
2, 12210120, Note_on_c, 0, 52, 0
2, 12210120, Note_on_c, 0, 49, 100
2, 12210240, Note_on_c, 0, 49, 0
2, 12210240, Note_on_c, 0, 52, 100
2, 12210360, Note_on_c, 0, 52, 0
2, 12210360, Note_on_c, 0, 54, 100
2, 12210480, Note_on_c, 0, 54, 0
2, 12210480, Note_on_c, 0, 57, 100
2, 12210600, Note_on_c, 0, 57, 0
2, 12210600, Note_on_c, 0, 50, 100
2, 12210720, Note_on_c, 0, 50, 0
2, 12210720, Note_on_c, 0, 52, 100
2, 12210840, Note_on_c, 0, 52, 0
2, 12210840, Note_on_c, 0, 54, 100
2, 12210960, Note_on_c, 0, 54, 0
2, 12210960, Note_on_c, 0, 50, 100
2, 12211080, Note_on_c, 0, 50, 0
2, 12211080, Note_on_c, 0, 54, 100
2, 12211200, Note_on_c, 0, 54, 0
2, 12211200, Note_on_c, 0, 57, 100
2, 12211320, Note_on_c, 0, 57, 0
2, 12211320, Note_on_c, 0, 62, 100
2, 12211920, Note_on_c, 0, 62, 0
2, 12211920, Note_on_c, 0, 57, 100
2, 12212160, Note_on_c, 0, 57, 0
2, 12212160, Note_on_c, 0, 54, 100
2, 12212400, Note_on_c, 0, 54, 0
2, 12212400, Note_on_c, 0, 50, 100
2, 12212640, Note_on_c, 0, 50, 0
2, 12212640, Note_on_c, 0, 60, 100
2, 12213000, Note_on_c, 0, 60, 0
2, 12213000, Note_on_c, 0, 59, 100
2, 12213120, Note_on_c, 0, 59, 0
2, 12213120, Note_on_c, 0, 57, 100
2, 12213240, Note_on_c, 0, 57, 0
2, 12213240, Note_on_c, 0, 55, 100
2, 12213360, Note_on_c, 0, 55, 0
2, 12213360, Note_on_c, 0, 50, 100
2, 12213600, Note_on_c, 0, 50, 0
2, 12213600, Note_on_c, 0, 47, 100
2, 12213840, Note_on_c, 0, 47, 0
2, 12213840, Note_on_c, 0, 43, 100
2, 12214080, Note_on_c, 0, 43, 0
2, 12214080, Note_on_c, 0, 53, 100
2, 12214440, Note_on_c, 0, 53, 0
2, 12214440, Note_on_c, 0, 52, 100
2, 12214560, Note_on_c, 0, 52, 0
2, 12214560, Note_on_c, 0, 50, 100
2, 12214680, Note_on_c, 0, 50, 0
2, 12214680, Note_on_c, 0, 48, 100
2, 12214800, Note_on_c, 0, 48, 0
2, 12214800, Note_on_c, 0, 52, 100
2, 12214920, Note_on_c, 0, 52, 0
2, 12214920, Note_on_c, 0, 57, 100
2, 12215040, Note_on_c, 0, 57, 0
2, 12215040, Note_on_c, 0, 55, 100
2, 12215160, Note_on_c, 0, 55, 0
2, 12215160, Note_on_c, 0, 54, 100
2, 12215280, Note_on_c, 0, 54, 0
2, 12215280, Note_on_c, 0, 57, 100
2, 12215400, Note_on_c, 0, 57, 0
2, 12215400, Note_on_c, 0, 60, 100
2, 12215520, Note_on_c, 0, 60, 0
2, 12215520, Note_on_c, 0, 59, 100
2, 12215640, Note_on_c, 0, 59, 0
2, 12215640, Note_on_c, 0, 57, 100
2, 12215760, Note_on_c, 0, 57, 0
2, 12215760, Note_on_c, 0, 60, 100
2, 12215880, Note_on_c, 0, 60, 0
2, 12215880, Note_on_c, 0, 63, 100
2, 12216000, Note_on_c, 0, 63, 0
2, 12216000, Note_on_c, 0, 61, 100
2, 12216120, Note_on_c, 0, 61, 0
2, 12216120, Note_on_c, 0, 59, 100
2, 12216240, Note_on_c, 0, 59, 0
2, 12216240, Note_on_c, 0, 63, 100
2, 12216360, Note_on_c, 0, 63, 0
2, 12216360, Note_on_c, 0, 66, 100
2, 12216480, Note_on_c, 0, 66, 0
2, 12216480, Note_on_c, 0, 64, 100
2, 12216600, Note_on_c, 0, 64, 0
2, 12216600, Note_on_c, 0, 63, 100
2, 12216720, Note_on_c, 0, 63, 0
2, 12216720, Note_on_c, 0, 66, 100
2, 12216840, Note_on_c, 0, 66, 0
2, 12216840, Note_on_c, 0, 69, 100
2, 12216960, Note_on_c, 0, 69, 0
2, 12216960, Note_on_c, 0, 67, 100
2, 12217080, Note_on_c, 0, 67, 0
2, 12217080, Note_on_c, 0, 66, 100
2, 12217200, Note_on_c, 0, 66, 0
2, 12217200, Note_on_c, 0, 69, 100
2, 12217320, Note_on_c, 0, 69, 0
2, 12217320, Note_on_c, 0, 72, 100
2, 12217440, Note_on_c, 0, 72, 0
2, 12217440, Note_on_c, 0, 69, 100
2, 12217560, Note_on_c, 0, 69, 0
2, 12217560, Note_on_c, 0, 71, 100
2, 12217680, Note_on_c, 0, 71, 0
2, 12217680, Note_on_c, 0, 67, 100
2, 12217800, Note_on_c, 0, 67, 0
2, 12217800, Note_on_c, 0, 64, 100
2, 12217920, Note_on_c, 0, 64, 0
2, 12217920, Note_on_c, 0, 66, 100
2, 12218040, Note_on_c, 0, 66, 0
2, 12218040, Note_on_c, 0, 67, 100
2, 12218160, Note_on_c, 0, 67, 0
2, 12218160, Note_on_c, 0, 64, 100
2, 12218280, Note_on_c, 0, 64, 0
2, 12218280, Note_on_c, 0, 59, 100
2, 12218400, Note_on_c, 0, 59, 0
2, 12218400, Note_on_c, 0, 63, 100
2, 12218520, Note_on_c, 0, 63, 0
2, 12218520, Note_on_c, 0, 64, 100
2, 12218640, Note_on_c, 0, 64, 0
2, 12218640, Note_on_c, 0, 59, 100
2, 12218760, Note_on_c, 0, 59, 0
2, 12218760, Note_on_c, 0, 55, 100
2, 12218880, Note_on_c, 0, 55, 0
2, 12218880, Note_on_c, 0, 59, 100
2, 12219000, Note_on_c, 0, 59, 0
2, 12219000, Note_on_c, 0, 60, 100
2, 12219120, Note_on_c, 0, 60, 0
2, 12219120, Note_on_c, 0, 57, 100
2, 12219240, Note_on_c, 0, 57, 0
2, 12219240, Note_on_c, 0, 52, 100
2, 12219360, Note_on_c, 0, 52, 0
2, 12219360, Note_on_c, 0, 56, 100
2, 12219480, Note_on_c, 0, 56, 0
2, 12219480, Note_on_c, 0, 57, 100
2, 12219600, Note_on_c, 0, 57, 0
2, 12219600, Note_on_c, 0, 52, 100
2, 12219720, Note_on_c, 0, 52, 0
2, 12219720, Note_on_c, 0, 48, 100
2, 12219840, Note_on_c, 0, 48, 0
2, 12219840, Note_on_c, 0, 50, 100
2, 12219960, Note_on_c, 0, 50, 0
2, 12219960, Note_on_c, 0, 52, 100
2, 12220080, Note_on_c, 0, 52, 0
2, 12220080, Note_on_c, 0, 48, 100
2, 12220200, Note_on_c, 0, 48, 0
2, 12220200, Note_on_c, 0, 45, 100
2, 12220320, Note_on_c, 0, 45, 0
2, 12220320, Note_on_c, 0, 48, 100
2, 12220440, Note_on_c, 0, 48, 0
2, 12220440, Note_on_c, 0, 39, 100
2, 12220560, Note_on_c, 0, 39, 0
2, 12220560, Note_on_c, 0, 51, 100
2, 12220800, Note_on_c, 0, 51, 0
2, 12220800, Note_on_c, 0, 52, 100
2, 12221040, Note_on_c, 0, 52, 0
2, 12221040, Note_on_c, 0, 48, 100
2, 12221280, Note_on_c, 0, 48, 0
2, 12221280, Note_on_c, 0, 45, 100
2, 12221520, Note_on_c, 0, 45, 0
2, 12221520, Note_on_c, 0, 47, 100
2, 12221760, Note_on_c, 0, 47, 0
2, 12221760, Note_on_c, 0, 40, 100
2, 12222000, Note_on_c, 0, 40, 0
2, 12222000, Note_on_c, 0, 43, 100
2, 12222240, Note_on_c, 0, 43, 0
2, 12222240, Note_on_c, 0, 47, 100
2, 12222480, Note_on_c, 0, 47, 0
2, 12222480, Note_on_c, 0, 52, 100
2, 12222720, Note_on_c, 0, 52, 0
2, 12222720, Note_on_c, 0, 50, 100
2, 12223080, Note_on_c, 0, 50, 0
2, 12223080, Note_on_c, 0, 48, 100
2, 12223200, Note_on_c, 0, 48, 0
2, 12223200, Note_on_c, 0, 47, 100
2, 12223320, Note_on_c, 0, 47, 0
2, 12223320, Note_on_c, 0, 48, 100
2, 12223440, Note_on_c, 0, 48, 0
2, 12223440, Note_on_c, 0, 52, 100
2, 12223560, Note_on_c, 0, 52, 0
2, 12223560, Note_on_c, 0, 55, 100
2, 12223680, Note_on_c, 0, 55, 0
2, 12223680, Note_on_c, 0, 53, 100
2, 12223800, Note_on_c, 0, 53, 0
2, 12223800, Note_on_c, 0, 52, 100
2, 12223920, Note_on_c, 0, 52, 0
2, 12223920, Note_on_c, 0, 55, 100
2, 12224040, Note_on_c, 0, 55, 0
2, 12224040, Note_on_c, 0, 60, 100
2, 12224160, Note_on_c, 0, 60, 0
2, 12224160, Note_on_c, 0, 59, 100
2, 12224280, Note_on_c, 0, 59, 0
2, 12224280, Note_on_c, 0, 58, 100
2, 12224400, Note_on_c, 0, 58, 0
2, 12224400, Note_on_c, 0, 61, 100
2, 12224520, Note_on_c, 0, 61, 0
2, 12224520, Note_on_c, 0, 66, 100
2, 12224640, Note_on_c, 0, 66, 0
2, 12224640, Note_on_c, 0, 47, 100
2, 12224880, Note_on_c, 0, 47, 0
2, 12224880, Note_on_c, 0, 50, 100
2, 12225000, Note_on_c, 0, 50, 0
2, 12225000, Note_on_c, 0, 54, 100
2, 12225120, Note_on_c, 0, 54, 0
2, 12225120, Note_on_c, 0, 52, 100
2, 12225240, Note_on_c, 0, 52, 0
2, 12225240, Note_on_c, 0, 50, 100
2, 12225360, Note_on_c, 0, 50, 0
2, 12225360, Note_on_c, 0, 54, 100
2, 12225480, Note_on_c, 0, 54, 0
2, 12225480, Note_on_c, 0, 59, 100
2, 12225600, Note_on_c, 0, 59, 0
2, 12225600, Note_on_c, 0, 57, 100
2, 12225720, Note_on_c, 0, 57, 0
2, 12225720, Note_on_c, 0, 56, 100
2, 12225840, Note_on_c, 0, 56, 0
2, 12225840, Note_on_c, 0, 59, 100
2, 12225960, Note_on_c, 0, 59, 0
2, 12225960, Note_on_c, 0, 64, 100
2, 12226080, Note_on_c, 0, 64, 0
2, 12226080, Note_on_c, 0, 45, 100
2, 12226320, Note_on_c, 0, 45, 0
2, 12226320, Note_on_c, 0, 48, 100
2, 12226440, Note_on_c, 0, 48, 0
2, 12226440, Note_on_c, 0, 52, 100
2, 12226560, Note_on_c, 0, 52, 0
2, 12226560, Note_on_c, 0, 50, 100
2, 12226680, Note_on_c, 0, 50, 0
2, 12226680, Note_on_c, 0, 48, 100
2, 12226800, Note_on_c, 0, 48, 0
2, 12226800, Note_on_c, 0, 45, 100
2, 12226920, Note_on_c, 0, 45, 0
2, 12226920, Note_on_c, 0, 48, 100
2, 12227040, Note_on_c, 0, 48, 0
2, 12227040, Note_on_c, 0, 52, 100
2, 12227160, Note_on_c, 0, 52, 0
2, 12227160, Note_on_c, 0, 57, 100
2, 12227280, Note_on_c, 0, 57, 0
2, 12227280, Note_on_c, 0, 60, 100
2, 12227400, Note_on_c, 0, 60, 0
2, 12227400, Note_on_c, 0, 54, 100
2, 12227520, Note_on_c, 0, 54, 0
2, 12227520, Note_on_c, 0, 55, 100
2, 12227640, Note_on_c, 0, 55, 0
2, 12227640, Note_on_c, 0, 57, 100
2, 12227760, Note_on_c, 0, 57, 0
2, 12227760, Note_on_c, 0, 54, 100
2, 12227880, Note_on_c, 0, 54, 0
2, 12227880, Note_on_c, 0, 50, 100
2, 12228000, Note_on_c, 0, 50, 0
2, 12228000, Note_on_c, 0, 52, 100
2, 12228120, Note_on_c, 0, 52, 0
2, 12228120, Note_on_c, 0, 54, 100
2, 12228240, Note_on_c, 0, 54, 0
2, 12228240, Note_on_c, 0, 50, 100
2, 12228360, Note_on_c, 0, 50, 0
2, 12228360, Note_on_c, 0, 45, 100
2, 12228480, Note_on_c, 0, 45, 0
2, 12228480, Note_on_c, 0, 47, 100
2, 12228600, Note_on_c, 0, 47, 0
2, 12228600, Note_on_c, 0, 48, 100
2, 12228720, Note_on_c, 0, 48, 0
2, 12228720, Note_on_c, 0, 45, 100
2, 12228840, Note_on_c, 0, 45, 0
2, 12228840, Note_on_c, 0, 42, 100
2, 12228960, Note_on_c, 0, 42, 0
2, 12228960, Note_on_c, 0, 38, 100
2, 12229080, Note_on_c, 0, 38, 0
2, 12229080, Note_on_c, 0, 43, 100
2, 12229200, Note_on_c, 0, 43, 0
2, 12229200, Note_on_c, 0, 47, 100
2, 12229440, Note_on_c, 0, 47, 0
2, 12229440, Note_on_c, 0, 50, 100
2, 12229680, Note_on_c, 0, 50, 0
2, 12229680, Note_on_c, 0, 53, 100
2, 12230280, Note_on_c, 0, 53, 0
2, 12230280, Note_on_c, 0, 52, 100
2, 12230400, Note_on_c, 0, 52, 0
2, 12230400, Note_on_c, 0, 50, 100
2, 12230520, Note_on_c, 0, 50, 0
2, 12230520, Note_on_c, 0, 48, 100
2, 12230640, Note_on_c, 0, 48, 0
2, 12230640, Note_on_c, 0, 52, 100
2, 12230880, Note_on_c, 0, 52, 0
2, 12230880, Note_on_c, 0, 55, 100
2, 12231120, Note_on_c, 0, 55, 0
2, 12231120, Note_on_c, 0, 60, 100
2, 12231720, Note_on_c, 0, 60, 0
2, 12231720, Note_on_c, 0, 59, 100
2, 12231840, Note_on_c, 0, 59, 0
2, 12231840, Note_on_c, 0, 60, 100
2, 12231960, Note_on_c, 0, 60, 0
2, 12231960, Note_on_c, 0, 50, 100
2, 12232080, Note_on_c, 0, 50, 0
2, 12232080, Note_on_c, 0, 54, 100
2, 12232320, Note_on_c, 0, 54, 0
2, 12232320, Note_on_c, 0, 57, 100
2, 12232560, Note_on_c, 0, 57, 0
2, 12232560, Note_on_c, 0, 60, 100
2, 12233160, Note_on_c, 0, 60, 0
2, 12233160, Note_on_c, 0, 62, 100
2, 12233280, Note_on_c, 0, 62, 0
2, 12233280, Note_on_c, 0, 54, 100
2, 12233400, Note_on_c, 0, 54, 0
2, 12233400, Note_on_c, 0, 55, 100
2, 12233520, Note_on_c, 0, 55, 0
2, 12233520, Note_on_c, 0, 59, 100
2, 12233640, Note_on_c, 0, 59, 0
2, 12233640, Note_on_c, 0, 62, 100
2, 12233760, Note_on_c, 0, 62, 0
2, 12233760, Note_on_c, 0, 66, 100
2, 12233880, Note_on_c, 0, 66, 0
2, 12233880, Note_on_c, 0, 67, 100
2, 12234000, Note_on_c, 0, 67, 0
2, 12234000, Note_on_c, 0, 66, 100
2, 12234120, Note_on_c, 0, 66, 0
2, 12234120, Note_on_c, 0, 64, 100
2, 12234180, Note_on_c, 0, 64, 0
2, 12234180, Note_on_c, 0, 62, 100
2, 12234240, Note_on_c, 0, 62, 0
2, 12234240, Note_on_c, 0, 60, 100
2, 12234300, Note_on_c, 0, 60, 0
2, 12234300, Note_on_c, 0, 59, 100
2, 12234360, Note_on_c, 0, 59, 0
2, 12234360, Note_on_c, 0, 57, 100
2, 12234420, Note_on_c, 0, 57, 0
2, 12234420, Note_on_c, 0, 55, 100
2, 12234480, Note_on_c, 0, 55, 0
2, 12234480, Note_on_c, 0, 62, 100
2, 12234960, Note_on_c, 0, 62, 0
2, 12234960, Note_on_c, 0, 57, 100
2, 12235200, Note_on_c, 0, 57, 0
2, 12235200, Note_on_c, 0, 54, 100
2, 12235440, Note_on_c, 0, 54, 0
2, 12235440, Note_on_c, 0, 50, 100
2, 12235680, Note_on_c, 0, 50, 0
2, 12235680, Note_on_c, 0, 60, 100
2, 12236040, Note_on_c, 0, 60, 0
2, 12236040, Note_on_c, 0, 59, 100
2, 12236160, Note_on_c, 0, 59, 0
2, 12236160, Note_on_c, 0, 57, 100
2, 12236280, Note_on_c, 0, 57, 0
2, 12236280, Note_on_c, 0, 55, 100
2, 12236400, Note_on_c, 0, 55, 0
2, 12236400, Note_on_c, 0, 50, 100
2, 12236640, Note_on_c, 0, 50, 0
2, 12236640, Note_on_c, 0, 47, 100
2, 12236880, Note_on_c, 0, 47, 0
2, 12236880, Note_on_c, 0, 43, 100
2, 12237120, Note_on_c, 0, 43, 0
2, 12237120, Note_on_c, 0, 53, 100
2, 12237480, Note_on_c, 0, 53, 0
2, 12237480, Note_on_c, 0, 52, 100
2, 12237600, Note_on_c, 0, 52, 0
2, 12237600, Note_on_c, 0, 50, 100
2, 12237720, Note_on_c, 0, 50, 0
2, 12237720, Note_on_c, 0, 48, 100
2, 12237840, Note_on_c, 0, 48, 0
2, 12237840, Note_on_c, 0, 52, 100
2, 12237960, Note_on_c, 0, 52, 0
2, 12237960, Note_on_c, 0, 57, 100
2, 12238080, Note_on_c, 0, 57, 0
2, 12238080, Note_on_c, 0, 55, 100
2, 12238200, Note_on_c, 0, 55, 0
2, 12238200, Note_on_c, 0, 54, 100
2, 12238320, Note_on_c, 0, 54, 0
2, 12238320, Note_on_c, 0, 57, 100
2, 12238440, Note_on_c, 0, 57, 0
2, 12238440, Note_on_c, 0, 60, 100
2, 12238560, Note_on_c, 0, 60, 0
2, 12238560, Note_on_c, 0, 59, 100
2, 12238680, Note_on_c, 0, 59, 0
2, 12238680, Note_on_c, 0, 57, 100
2, 12238800, Note_on_c, 0, 57, 0
2, 12238800, Note_on_c, 0, 60, 100
2, 12238920, Note_on_c, 0, 60, 0
2, 12238920, Note_on_c, 0, 63, 100
2, 12239040, Note_on_c, 0, 63, 0
2, 12239040, Note_on_c, 0, 61, 100
2, 12239160, Note_on_c, 0, 61, 0
2, 12239160, Note_on_c, 0, 59, 100
2, 12239280, Note_on_c, 0, 59, 0
2, 12239280, Note_on_c, 0, 63, 100
2, 12239400, Note_on_c, 0, 63, 0
2, 12239400, Note_on_c, 0, 66, 100
2, 12239520, Note_on_c, 0, 66, 0
2, 12239520, Note_on_c, 0, 64, 100
2, 12239640, Note_on_c, 0, 64, 0
2, 12239640, Note_on_c, 0, 63, 100
2, 12239760, Note_on_c, 0, 63, 0
2, 12239760, Note_on_c, 0, 66, 100
2, 12239880, Note_on_c, 0, 66, 0
2, 12239880, Note_on_c, 0, 69, 100
2, 12240000, Note_on_c, 0, 69, 0
2, 12240000, Note_on_c, 0, 67, 100
2, 12240120, Note_on_c, 0, 67, 0
2, 12240120, Note_on_c, 0, 66, 100
2, 12240240, Note_on_c, 0, 66, 0
2, 12240240, Note_on_c, 0, 69, 100
2, 12240360, Note_on_c, 0, 69, 0
2, 12240360, Note_on_c, 0, 72, 100
2, 12240480, Note_on_c, 0, 72, 0
2, 12240480, Note_on_c, 0, 69, 100
2, 12240600, Note_on_c, 0, 69, 0
2, 12240600, Note_on_c, 0, 71, 100
2, 12240720, Note_on_c, 0, 71, 0
2, 12240720, Note_on_c, 0, 67, 100
2, 12240840, Note_on_c, 0, 67, 0
2, 12240840, Note_on_c, 0, 64, 100
2, 12240960, Note_on_c, 0, 64, 0
2, 12240960, Note_on_c, 0, 66, 100
2, 12241080, Note_on_c, 0, 66, 0
2, 12241080, Note_on_c, 0, 67, 100
2, 12241200, Note_on_c, 0, 67, 0
2, 12241200, Note_on_c, 0, 64, 100
2, 12241320, Note_on_c, 0, 64, 0
2, 12241320, Note_on_c, 0, 59, 100
2, 12241440, Note_on_c, 0, 59, 0
2, 12241440, Note_on_c, 0, 63, 100
2, 12241560, Note_on_c, 0, 63, 0
2, 12241560, Note_on_c, 0, 64, 100
2, 12241680, Note_on_c, 0, 64, 0
2, 12241680, Note_on_c, 0, 59, 100
2, 12241800, Note_on_c, 0, 59, 0
2, 12241800, Note_on_c, 0, 55, 100
2, 12241920, Note_on_c, 0, 55, 0
2, 12241920, Note_on_c, 0, 59, 100
2, 12242040, Note_on_c, 0, 59, 0
2, 12242040, Note_on_c, 0, 60, 100
2, 12242160, Note_on_c, 0, 60, 0
2, 12242160, Note_on_c, 0, 57, 100
2, 12242280, Note_on_c, 0, 57, 0
2, 12242280, Note_on_c, 0, 52, 100
2, 12242400, Note_on_c, 0, 52, 0
2, 12242400, Note_on_c, 0, 56, 100
2, 12242520, Note_on_c, 0, 56, 0
2, 12242520, Note_on_c, 0, 57, 100
2, 12242640, Note_on_c, 0, 57, 0
2, 12242640, Note_on_c, 0, 52, 100
2, 12242760, Note_on_c, 0, 52, 0
2, 12242760, Note_on_c, 0, 48, 100
2, 12242880, Note_on_c, 0, 48, 0
2, 12242880, Note_on_c, 0, 50, 100
2, 12243000, Note_on_c, 0, 50, 0
2, 12243000, Note_on_c, 0, 52, 100
2, 12243120, Note_on_c, 0, 52, 0
2, 12243120, Note_on_c, 0, 48, 100
2, 12243240, Note_on_c, 0, 48, 0
2, 12243240, Note_on_c, 0, 45, 100
2, 12243360, Note_on_c, 0, 45, 0
2, 12243360, Note_on_c, 0, 48, 100
2, 12243480, Note_on_c, 0, 48, 0
2, 12243480, Note_on_c, 0, 39, 100
2, 12243600, Note_on_c, 0, 39, 0
2, 12243600, Note_on_c, 0, 51, 100
2, 12243840, Note_on_c, 0, 51, 0
2, 12243840, Note_on_c, 0, 52, 100
2, 12244080, Note_on_c, 0, 52, 0
2, 12244080, Note_on_c, 0, 48, 100
2, 12244320, Note_on_c, 0, 48, 0
2, 12244320, Note_on_c, 0, 45, 100
2, 12244560, Note_on_c, 0, 45, 0
2, 12244560, Note_on_c, 0, 47, 100
2, 12244800, Note_on_c, 0, 47, 0
2, 12244800, Note_on_c, 0, 40, 100
2, 12245040, Note_on_c, 0, 40, 0
2, 12245040, Note_on_c, 0, 43, 100
2, 12245280, Note_on_c, 0, 43, 0
2, 12245280, Note_on_c, 0, 47, 100
2, 12245520, Note_on_c, 0, 47, 0
2, 12245520, Note_on_c, 0, 52, 100
2, 12245760, Note_on_c, 0, 52, 0
2, 12245760, Note_on_c, 0, 50, 100
2, 12246120, Note_on_c, 0, 50, 0
2, 12246120, Note_on_c, 0, 48, 100
2, 12246240, Note_on_c, 0, 48, 0
2, 12246240, Note_on_c, 0, 47, 100
2, 12246360, Note_on_c, 0, 47, 0
2, 12246360, Note_on_c, 0, 48, 100
2, 12246480, Note_on_c, 0, 48, 0
2, 12246480, Note_on_c, 0, 52, 100
2, 12246600, Note_on_c, 0, 52, 0
2, 12246600, Note_on_c, 0, 55, 100
2, 12246720, Note_on_c, 0, 55, 0
2, 12246720, Note_on_c, 0, 53, 100
2, 12246840, Note_on_c, 0, 53, 0
2, 12246840, Note_on_c, 0, 52, 100
2, 12246960, Note_on_c, 0, 52, 0
2, 12246960, Note_on_c, 0, 55, 100
2, 12247080, Note_on_c, 0, 55, 0
2, 12247080, Note_on_c, 0, 60, 100
2, 12247200, Note_on_c, 0, 60, 0
2, 12247200, Note_on_c, 0, 59, 100
2, 12247320, Note_on_c, 0, 59, 0
2, 12247320, Note_on_c, 0, 58, 100
2, 12247440, Note_on_c, 0, 58, 0
2, 12247440, Note_on_c, 0, 61, 100
2, 12247560, Note_on_c, 0, 61, 0
2, 12247560, Note_on_c, 0, 66, 100
2, 12247680, Note_on_c, 0, 66, 0
2, 12247680, Note_on_c, 0, 47, 100
2, 12247920, Note_on_c, 0, 47, 0
2, 12247920, Note_on_c, 0, 50, 100
2, 12248040, Note_on_c, 0, 50, 0
2, 12248040, Note_on_c, 0, 54, 100
2, 12248160, Note_on_c, 0, 54, 0
2, 12248160, Note_on_c, 0, 52, 100
2, 12248280, Note_on_c, 0, 52, 0
2, 12248280, Note_on_c, 0, 50, 100
2, 12248400, Note_on_c, 0, 50, 0
2, 12248400, Note_on_c, 0, 54, 100
2, 12248520, Note_on_c, 0, 54, 0
2, 12248520, Note_on_c, 0, 59, 100
2, 12248640, Note_on_c, 0, 59, 0
2, 12248640, Note_on_c, 0, 57, 100
2, 12248760, Note_on_c, 0, 57, 0
2, 12248760, Note_on_c, 0, 56, 100
2, 12248880, Note_on_c, 0, 56, 0
2, 12248880, Note_on_c, 0, 59, 100
2, 12249000, Note_on_c, 0, 59, 0
2, 12249000, Note_on_c, 0, 64, 100
2, 12249120, Note_on_c, 0, 64, 0
2, 12249120, Note_on_c, 0, 45, 100
2, 12249360, Note_on_c, 0, 45, 0
2, 12249360, Note_on_c, 0, 48, 100
2, 12249480, Note_on_c, 0, 48, 0
2, 12249480, Note_on_c, 0, 52, 100
2, 12249600, Note_on_c, 0, 52, 0
2, 12249600, Note_on_c, 0, 50, 100
2, 12249720, Note_on_c, 0, 50, 0
2, 12249720, Note_on_c, 0, 48, 100
2, 12249840, Note_on_c, 0, 48, 0
2, 12249840, Note_on_c, 0, 45, 100
2, 12249960, Note_on_c, 0, 45, 0
2, 12249960, Note_on_c, 0, 48, 100
2, 12250080, Note_on_c, 0, 48, 0
2, 12250080, Note_on_c, 0, 52, 100
2, 12250200, Note_on_c, 0, 52, 0
2, 12250200, Note_on_c, 0, 57, 100
2, 12250320, Note_on_c, 0, 57, 0
2, 12250320, Note_on_c, 0, 60, 100
2, 12250440, Note_on_c, 0, 60, 0
2, 12250440, Note_on_c, 0, 54, 100
2, 12250560, Note_on_c, 0, 54, 0
2, 12250560, Note_on_c, 0, 55, 100
2, 12250680, Note_on_c, 0, 55, 0
2, 12250680, Note_on_c, 0, 57, 100
2, 12250800, Note_on_c, 0, 57, 0
2, 12250800, Note_on_c, 0, 54, 100
2, 12250920, Note_on_c, 0, 54, 0
2, 12250920, Note_on_c, 0, 50, 100
2, 12251040, Note_on_c, 0, 50, 0
2, 12251040, Note_on_c, 0, 52, 100
2, 12251160, Note_on_c, 0, 52, 0
2, 12251160, Note_on_c, 0, 54, 100
2, 12251280, Note_on_c, 0, 54, 0
2, 12251280, Note_on_c, 0, 50, 100
2, 12251400, Note_on_c, 0, 50, 0
2, 12251400, Note_on_c, 0, 45, 100
2, 12251520, Note_on_c, 0, 45, 0
2, 12251520, Note_on_c, 0, 47, 100
2, 12251640, Note_on_c, 0, 47, 0
2, 12251640, Note_on_c, 0, 48, 100
2, 12251760, Note_on_c, 0, 48, 0
2, 12251760, Note_on_c, 0, 45, 100
2, 12251880, Note_on_c, 0, 45, 0
2, 12251880, Note_on_c, 0, 42, 100
2, 12252000, Note_on_c, 0, 42, 0
2, 12252000, Note_on_c, 0, 38, 100
2, 12252120, Note_on_c, 0, 38, 0
2, 12252120, Note_on_c, 0, 43, 100
2, 12252240, Note_on_c, 0, 43, 0
2, 12252240, Note_on_c, 0, 47, 100
2, 12252480, Note_on_c, 0, 47, 0
2, 12252480, Note_on_c, 0, 50, 100
2, 12252720, Note_on_c, 0, 50, 0
2, 12252720, Note_on_c, 0, 53, 100
2, 12253320, Note_on_c, 0, 53, 0
2, 12253320, Note_on_c, 0, 52, 100
2, 12253440, Note_on_c, 0, 52, 0
2, 12253440, Note_on_c, 0, 50, 100
2, 12253560, Note_on_c, 0, 50, 0
2, 12253560, Note_on_c, 0, 48, 100
2, 12253680, Note_on_c, 0, 48, 0
2, 12253680, Note_on_c, 0, 52, 100
2, 12253920, Note_on_c, 0, 52, 0
2, 12253920, Note_on_c, 0, 55, 100
2, 12254160, Note_on_c, 0, 55, 0
2, 12254160, Note_on_c, 0, 60, 100
2, 12254760, Note_on_c, 0, 60, 0
2, 12254760, Note_on_c, 0, 59, 100
2, 12254880, Note_on_c, 0, 59, 0
2, 12254880, Note_on_c, 0, 60, 100
2, 12255000, Note_on_c, 0, 60, 0
2, 12255000, Note_on_c, 0, 50, 100
2, 12255120, Note_on_c, 0, 50, 0
2, 12255120, Note_on_c, 0, 54, 100
2, 12255360, Note_on_c, 0, 54, 0
2, 12255360, Note_on_c, 0, 57, 100
2, 12255600, Note_on_c, 0, 57, 0
2, 12255600, Note_on_c, 0, 60, 100
2, 12256200, Note_on_c, 0, 60, 0
2, 12256200, Note_on_c, 0, 62, 100
2, 12256320, Note_on_c, 0, 62, 0
2, 12256320, Note_on_c, 0, 54, 100
2, 12256440, Note_on_c, 0, 54, 0
2, 12256440, Note_on_c, 0, 55, 100
2, 12256560, Note_on_c, 0, 55, 0
2, 12256560, Note_on_c, 0, 59, 100
2, 12256680, Note_on_c, 0, 59, 0
2, 12256680, Note_on_c, 0, 62, 100
2, 12256800, Note_on_c, 0, 62, 0
2, 12256800, Note_on_c, 0, 66, 100
2, 12256920, Note_on_c, 0, 66, 0
2, 12256920, Note_on_c, 0, 67, 100
2, 12257040, Note_on_c, 0, 67, 0
2, 12257040, Note_on_c, 0, 66, 100
2, 12257160, Note_on_c, 0, 66, 0
2, 12257160, Note_on_c, 0, 64, 100
2, 12257220, Note_on_c, 0, 64, 0
2, 12257220, Note_on_c, 0, 62, 100
2, 12257280, Note_on_c, 0, 62, 0
2, 12257280, Note_on_c, 0, 60, 100
2, 12257340, Note_on_c, 0, 60, 0
2, 12257340, Note_on_c, 0, 59, 100
2, 12257400, Note_on_c, 0, 59, 0
2, 12257400, Note_on_c, 0, 57, 100
2, 12257460, Note_on_c, 0, 57, 0
2, 12257460, Note_on_c, 0, 55, 100
2, 12257520, Note_on_c, 0, 55, 0
2, 12257520, Note_on_c, 0, 62, 100
2, 12327120, Note_on_c, 0, 62, 0
2, 12327120, Note_on_c, 0, 60, 100
2, 12327240, Note_on_c, 0, 60, 0
2, 12327240, Note_on_c, 0, 62, 100
2, 12327360, Note_on_c, 0, 62, 0
2, 12327360, Note_on_c, 0, 64, 100
2, 12328080, Note_on_c, 0, 64, 0
2, 12328080, Note_on_c, 0, 62, 100
2, 12328200, Note_on_c, 0, 62, 0
2, 12328200, Note_on_c, 0, 64, 100
2, 12328320, Note_on_c, 0, 64, 0
2, 12328320, Note_on_c, 0, 62, 100
2, 12328440, Note_on_c, 0, 62, 0
2, 12328440, Note_on_c, 0, 64, 100
2, 12328560, Note_on_c, 0, 64, 0
2, 12328560, Note_on_c, 0, 62, 100
2, 12328680, Note_on_c, 0, 62, 0
2, 12328680, Note_on_c, 0, 60, 100
2, 12328800, Note_on_c, 0, 60, 0
2, 12328800, Note_on_c, 0, 62, 100
2, 12328920, Note_on_c, 0, 62, 0
2, 12328920, Note_on_c, 0, 64, 100
2, 12329040, Note_on_c, 0, 64, 0
2, 12329040, Note_on_c, 0, 60, 100
2, 12329520, Note_on_c, 0, 60, 0
2, 12329520, Note_on_c, 0, 57, 100
2, 12330000, Note_on_c, 0, 57, 0
2, 12330000, Note_on_c, 0, 60, 100
2, 12330480, Note_on_c, 0, 60, 0
2, 12330480, Note_on_c, 0, 57, 100
2, 12330960, Note_on_c, 0, 57, 0
2, 12330960, Note_on_c, 0, 62, 100
2, 12331440, Note_on_c, 0, 62, 0
2, 12331440, Note_on_c, 0, 50, 100
2, 12331920, Note_on_c, 0, 50, 0
2, 12331920, Note_on_c, 0, 60, 100
2, 12332880, Note_on_c, 0, 60, 0
2, 12332880, Note_on_c, 0, 59, 100
2, 12332960, Note_on_c, 0, 59, 0
2, 12332960, Note_on_c, 0, 60, 100
2, 12333040, Note_on_c, 0, 60, 0
2, 12333040, Note_on_c, 0, 59, 100
2, 12333120, Note_on_c, 0, 59, 0
2, 12333120, Note_on_c, 0, 57, 100
2, 12333360, Note_on_c, 0, 57, 0
2, 12333360, Note_on_c, 0, 59, 100
2, 12333600, Note_on_c, 0, 59, 0
2, 12333600, Note_on_c, 0, 55, 100
2, 12333840, Note_on_c, 0, 55, 0
2, 12333840, Note_on_c, 0, 59, 100
2, 12334080, Note_on_c, 0, 59, 0
2, 12334080, Note_on_c, 0, 57, 100
2, 12334320, Note_on_c, 0, 57, 0
2, 12334320, Note_on_c, 0, 60, 100
2, 12334560, Note_on_c, 0, 60, 0
2, 12334560, Note_on_c, 0, 59, 100
2, 12334800, Note_on_c, 0, 59, 0
2, 12334800, Note_on_c, 0, 57, 100
2, 12335040, Note_on_c, 0, 57, 0
2, 12335040, Note_on_c, 0, 59, 100
2, 12335280, Note_on_c, 0, 59, 0
2, 12335280, Note_on_c, 0, 64, 100
2, 12335760, Note_on_c, 0, 64, 0
2, 12335760, Note_on_c, 0, 57, 100
2, 12337200, Note_on_c, 0, 57, 0
2, 12337200, Note_on_c, 0, 62, 100
2, 12337680, Note_on_c, 0, 62, 0
2, 12337680, Note_on_c, 0, 59, 100
2, 12339120, Note_on_c, 0, 59, 0
2, 12339120, Note_on_c, 0, 64, 100
2, 12339600, Note_on_c, 0, 64, 0
2, 12339600, Note_on_c, 0, 62, 100
2, 12341040, Note_on_c, 0, 62, 0
2, 12341040, Note_on_c, 0, 61, 100
2, 12341520, Note_on_c, 0, 61, 0
2, 12341520, Note_on_c, 0, 64, 100
2, 12342000, Note_on_c, 0, 64, 0
2, 12342000, Note_on_c, 0, 57, 100
2, 12342480, Note_on_c, 0, 57, 0
2, 12342480, Note_on_c, 0, 59, 100
2, 12342720, Note_on_c, 0, 59, 0
2, 12342720, Note_on_c, 0, 57, 100
2, 12342960, Note_on_c, 0, 57, 0
2, 12342960, Note_on_c, 0, 55, 100
2, 12343200, Note_on_c, 0, 55, 0
2, 12343200, Note_on_c, 0, 54, 100
2, 12343440, Note_on_c, 0, 54, 0
2, 12343440, Note_on_c, 0, 55, 100
2, 12344400, Note_on_c, 0, 55, 0
2, 12344400, Note_on_c, 0, 52, 100
2, 12346800, Note_on_c, 0, 52, 0
2, 12346800, Note_on_c, 0, 57, 100
2, 12348480, Note_on_c, 0, 57, 0
2, 12348480, Note_on_c, 0, 55, 100
2, 12348720, Note_on_c, 0, 55, 0
2, 12348720, Note_on_c, 0, 57, 100
2, 12348960, Note_on_c, 0, 57, 0
2, 12348960, Note_on_c, 0, 54, 100
2, 12349200, Note_on_c, 0, 54, 0
2, 12349200, Note_on_c, 0, 62, 100
2, 12357840, Note_on_c, 0, 62, 0
2, 12357840, Note_on_c, 0, 60, 100
2, 12357960, Note_on_c, 0, 60, 0
2, 12357960, Note_on_c, 0, 62, 100
2, 12358080, Note_on_c, 0, 62, 0
2, 12358080, Note_on_c, 0, 64, 100
2, 12358800, Note_on_c, 0, 64, 0
2, 12358800, Note_on_c, 0, 62, 100
2, 12358920, Note_on_c, 0, 62, 0
2, 12358920, Note_on_c, 0, 64, 100
2, 12359040, Note_on_c, 0, 64, 0
2, 12359040, Note_on_c, 0, 62, 100
2, 12359160, Note_on_c, 0, 62, 0
2, 12359160, Note_on_c, 0, 64, 100
2, 12359280, Note_on_c, 0, 64, 0
2, 12359280, Note_on_c, 0, 62, 100
2, 12359400, Note_on_c, 0, 62, 0
2, 12359400, Note_on_c, 0, 60, 100
2, 12359520, Note_on_c, 0, 60, 0
2, 12359520, Note_on_c, 0, 62, 100
2, 12359640, Note_on_c, 0, 62, 0
2, 12359640, Note_on_c, 0, 64, 100
2, 12359760, Note_on_c, 0, 64, 0
2, 12359760, Note_on_c, 0, 60, 100
2, 12360240, Note_on_c, 0, 60, 0
2, 12360240, Note_on_c, 0, 57, 100
2, 12360720, Note_on_c, 0, 57, 0
2, 12360720, Note_on_c, 0, 60, 100
2, 12361200, Note_on_c, 0, 60, 0
2, 12361200, Note_on_c, 0, 57, 100
2, 12361680, Note_on_c, 0, 57, 0
2, 12361680, Note_on_c, 0, 62, 100
2, 12362160, Note_on_c, 0, 62, 0
2, 12362160, Note_on_c, 0, 50, 100
2, 12362640, Note_on_c, 0, 50, 0
2, 12362640, Note_on_c, 0, 60, 100
2, 12363600, Note_on_c, 0, 60, 0
2, 12363600, Note_on_c, 0, 59, 100
2, 12363680, Note_on_c, 0, 59, 0
2, 12363680, Note_on_c, 0, 60, 100
2, 12363760, Note_on_c, 0, 60, 0
2, 12363760, Note_on_c, 0, 59, 100
2, 12363840, Note_on_c, 0, 59, 0
2, 12363840, Note_on_c, 0, 57, 100
2, 12364080, Note_on_c, 0, 57, 0
2, 12364080, Note_on_c, 0, 59, 100
2, 12364320, Note_on_c, 0, 59, 0
2, 12364320, Note_on_c, 0, 55, 100
2, 12364560, Note_on_c, 0, 55, 0
2, 12364560, Note_on_c, 0, 59, 100
2, 12364800, Note_on_c, 0, 59, 0
2, 12364800, Note_on_c, 0, 57, 100
2, 12365040, Note_on_c, 0, 57, 0
2, 12365040, Note_on_c, 0, 60, 100
2, 12365280, Note_on_c, 0, 60, 0
2, 12365280, Note_on_c, 0, 59, 100
2, 12365520, Note_on_c, 0, 59, 0
2, 12365520, Note_on_c, 0, 57, 100
2, 12365760, Note_on_c, 0, 57, 0
2, 12365760, Note_on_c, 0, 59, 100
2, 12366000, Note_on_c, 0, 59, 0
2, 12366000, Note_on_c, 0, 64, 100
2, 12366480, Note_on_c, 0, 64, 0
2, 12366480, Note_on_c, 0, 57, 100
2, 12367920, Note_on_c, 0, 57, 0
2, 12367920, Note_on_c, 0, 62, 100
2, 12368400, Note_on_c, 0, 62, 0
2, 12368400, Note_on_c, 0, 59, 100
2, 12369840, Note_on_c, 0, 59, 0
2, 12369840, Note_on_c, 0, 64, 100
2, 12370320, Note_on_c, 0, 64, 0
2, 12370320, Note_on_c, 0, 62, 100
2, 12371760, Note_on_c, 0, 62, 0
2, 12371760, Note_on_c, 0, 61, 100
2, 12372240, Note_on_c, 0, 61, 0
2, 12372240, Note_on_c, 0, 64, 100
2, 12372720, Note_on_c, 0, 64, 0
2, 12372720, Note_on_c, 0, 57, 100
2, 12373200, Note_on_c, 0, 57, 0
2, 12373200, Note_on_c, 0, 59, 100
2, 12373440, Note_on_c, 0, 59, 0
2, 12373440, Note_on_c, 0, 57, 100
2, 12373680, Note_on_c, 0, 57, 0
2, 12373680, Note_on_c, 0, 55, 100
2, 12373920, Note_on_c, 0, 55, 0
2, 12373920, Note_on_c, 0, 54, 100
2, 12374160, Note_on_c, 0, 54, 0
2, 12374160, Note_on_c, 0, 55, 100
2, 12375120, Note_on_c, 0, 55, 0
2, 12375120, Note_on_c, 0, 52, 100
2, 12377520, Note_on_c, 0, 52, 0
2, 12377520, Note_on_c, 0, 57, 100
2, 12379200, Note_on_c, 0, 57, 0
2, 12379200, Note_on_c, 0, 55, 100
2, 12379440, Note_on_c, 0, 55, 0
2, 12379440, Note_on_c, 0, 57, 100
2, 12379680, Note_on_c, 0, 57, 0
2, 12379680, Note_on_c, 0, 54, 100
2, 12379920, Note_on_c, 0, 54, 0
2, 12379920, Note_on_c, 0, 62, 100
2, 12403920, Note_on_c, 0, 62, 0
2, 12403920, Note_on_c, 0, 64, 100
2, 12404880, Note_on_c, 0, 64, 0
2, 12404880, Note_on_c, 0, 62, 100
2, 12405000, Note_on_c, 0, 62, 0
2, 12405000, Note_on_c, 0, 64, 100
2, 12405120, Note_on_c, 0, 64, 0
2, 12405120, Note_on_c, 0, 62, 100
2, 12405240, Note_on_c, 0, 62, 0
2, 12405240, Note_on_c, 0, 64, 100
2, 12405360, Note_on_c, 0, 64, 0
2, 12405360, Note_on_c, 0, 62, 100
2, 12405480, Note_on_c, 0, 62, 0
2, 12405480, Note_on_c, 0, 60, 100
2, 12405600, Note_on_c, 0, 60, 0
2, 12405600, Note_on_c, 0, 62, 100
2, 12405720, Note_on_c, 0, 62, 0
2, 12405720, Note_on_c, 0, 64, 100
2, 12405840, Note_on_c, 0, 64, 0
2, 12405840, Note_on_c, 0, 60, 100
2, 12406320, Note_on_c, 0, 60, 0
2, 12406320, Note_on_c, 0, 57, 100
2, 12406800, Note_on_c, 0, 57, 0
2, 12406800, Note_on_c, 0, 60, 100
2, 12407280, Note_on_c, 0, 60, 0
2, 12407280, Note_on_c, 0, 57, 100
2, 12407760, Note_on_c, 0, 57, 0
2, 12407760, Note_on_c, 0, 62, 100
2, 12408240, Note_on_c, 0, 62, 0
2, 12408240, Note_on_c, 0, 50, 100
2, 12408720, Note_on_c, 0, 50, 0
2, 12408720, Note_on_c, 0, 60, 100
2, 12409680, Note_on_c, 0, 60, 0
2, 12409680, Note_on_c, 0, 59, 100
2, 12409760, Note_on_c, 0, 59, 0
2, 12409760, Note_on_c, 0, 60, 100
2, 12409840, Note_on_c, 0, 60, 0
2, 12409840, Note_on_c, 0, 59, 100
2, 12409920, Note_on_c, 0, 59, 0
2, 12409920, Note_on_c, 0, 57, 100
2, 12410160, Note_on_c, 0, 57, 0
2, 12410160, Note_on_c, 0, 59, 100
2, 12410400, Note_on_c, 0, 59, 0
2, 12410400, Note_on_c, 0, 55, 100
2, 12410640, Note_on_c, 0, 55, 0
2, 12410640, Note_on_c, 0, 62, 100
2, 12434640, Note_on_c, 0, 62, 0
2, 12434640, Note_on_c, 0, 64, 100
2, 12435600, Note_on_c, 0, 64, 0
2, 12435600, Note_on_c, 0, 62, 100
2, 12435720, Note_on_c, 0, 62, 0
2, 12435720, Note_on_c, 0, 64, 100
2, 12435840, Note_on_c, 0, 64, 0
2, 12435840, Note_on_c, 0, 62, 100
2, 12435960, Note_on_c, 0, 62, 0
2, 12435960, Note_on_c, 0, 64, 100
2, 12436080, Note_on_c, 0, 64, 0
2, 12436080, Note_on_c, 0, 62, 100
2, 12436200, Note_on_c, 0, 62, 0
2, 12436200, Note_on_c, 0, 60, 100
2, 12436320, Note_on_c, 0, 60, 0
2, 12436320, Note_on_c, 0, 62, 100
2, 12436440, Note_on_c, 0, 62, 0
2, 12436440, Note_on_c, 0, 64, 100
2, 12436560, Note_on_c, 0, 64, 0
2, 12436560, Note_on_c, 0, 60, 100
2, 12437040, Note_on_c, 0, 60, 0
2, 12437040, Note_on_c, 0, 57, 100
2, 12437520, Note_on_c, 0, 57, 0
2, 12437520, Note_on_c, 0, 60, 100
2, 12438000, Note_on_c, 0, 60, 0
2, 12438000, Note_on_c, 0, 57, 100
2, 12438480, Note_on_c, 0, 57, 0
2, 12438480, Note_on_c, 0, 62, 100
2, 12438960, Note_on_c, 0, 62, 0
2, 12438960, Note_on_c, 0, 50, 100
2, 12439440, Note_on_c, 0, 50, 0
2, 12439440, Note_on_c, 0, 60, 100
2, 12440400, Note_on_c, 0, 60, 0
2, 12440400, Note_on_c, 0, 59, 100
2, 12440480, Note_on_c, 0, 59, 0
2, 12440480, Note_on_c, 0, 60, 100
2, 12440560, Note_on_c, 0, 60, 0
2, 12440560, Note_on_c, 0, 59, 100
2, 12440640, Note_on_c, 0, 59, 0
2, 12440640, Note_on_c, 0, 57, 100
2, 12440880, Note_on_c, 0, 57, 0
2, 12440880, Note_on_c, 0, 59, 100
2, 12441120, Note_on_c, 0, 59, 0
2, 12441120, Note_on_c, 0, 55, 100
2, 12442320, Note_on_c, 0, 55, 0
2, 12442320, Note_on_c, 0, 59, 100
2, 12442920, Note_on_c, 0, 59, 0
2, 12442920, Note_on_c, 0, 64, 100
2, 12443040, Note_on_c, 0, 64, 0
2, 12443040, Note_on_c, 0, 62, 100
2, 12443160, Note_on_c, 0, 62, 0
2, 12443160, Note_on_c, 0, 61, 100
2, 12443280, Note_on_c, 0, 61, 0
2, 12443280, Note_on_c, 0, 59, 100
2, 12443400, Note_on_c, 0, 59, 0
2, 12443400, Note_on_c, 0, 57, 100
2, 12443520, Note_on_c, 0, 57, 0
2, 12443520, Note_on_c, 0, 55, 100
2, 12443640, Note_on_c, 0, 55, 0
2, 12443640, Note_on_c, 0, 54, 100
2, 12443760, Note_on_c, 0, 54, 0
2, 12443760, Note_on_c, 0, 64, 100
2, 12444360, Note_on_c, 0, 64, 0
2, 12444360, Note_on_c, 0, 62, 100
2, 12444480, Note_on_c, 0, 62, 0
2, 12444480, Note_on_c, 0, 61, 100
2, 12444600, Note_on_c, 0, 61, 0
2, 12444600, Note_on_c, 0, 59, 100
2, 12444720, Note_on_c, 0, 59, 0
2, 12444720, Note_on_c, 0, 57, 100
2, 12444840, Note_on_c, 0, 57, 0
2, 12444840, Note_on_c, 0, 55, 100
2, 12444960, Note_on_c, 0, 55, 0
2, 12444960, Note_on_c, 0, 54, 100
2, 12445080, Note_on_c, 0, 54, 0
2, 12445080, Note_on_c, 0, 52, 100
2, 12445200, Note_on_c, 0, 52, 0
2, 12445200, Note_on_c, 0, 55, 100
2, 12445440, Note_on_c, 0, 55, 0
2, 12445440, Note_on_c, 0, 59, 100
2, 12445560, Note_on_c, 0, 59, 0
2, 12445560, Note_on_c, 0, 62, 100
2, 12445800, Note_on_c, 0, 62, 0
2, 12445800, Note_on_c, 0, 61, 100
2, 12445920, Note_on_c, 0, 61, 0
2, 12445920, Note_on_c, 0, 59, 100
2, 12446040, Note_on_c, 0, 59, 0
2, 12446040, Note_on_c, 0, 57, 100
2, 12446160, Note_on_c, 0, 57, 0
2, 12446160, Note_on_c, 0, 55, 100
2, 12446280, Note_on_c, 0, 55, 0
2, 12446280, Note_on_c, 0, 54, 100
2, 12446400, Note_on_c, 0, 54, 0
2, 12446400, Note_on_c, 0, 52, 100
2, 12446520, Note_on_c, 0, 52, 0
2, 12446520, Note_on_c, 0, 50, 100
2, 12446640, Note_on_c, 0, 50, 0
2, 12446640, Note_on_c, 0, 52, 100
2, 12446760, Note_on_c, 0, 52, 0
2, 12446760, Note_on_c, 0, 54, 100
2, 12446880, Note_on_c, 0, 54, 0
2, 12446880, Note_on_c, 0, 55, 100
2, 12447000, Note_on_c, 0, 55, 0
2, 12447000, Note_on_c, 0, 57, 100
2, 12447120, Note_on_c, 0, 57, 0
2, 12447120, Note_on_c, 0, 59, 100
2, 12447240, Note_on_c, 0, 59, 0
2, 12447240, Note_on_c, 0, 61, 100
2, 12447360, Note_on_c, 0, 61, 0
2, 12447360, Note_on_c, 0, 62, 100
2, 12447480, Note_on_c, 0, 62, 0
2, 12447480, Note_on_c, 0, 64, 100
2, 12447600, Note_on_c, 0, 64, 0
2, 12447600, Note_on_c, 0, 66, 100
2, 12447720, Note_on_c, 0, 66, 0
2, 12447720, Note_on_c, 0, 67, 100
2, 12447840, Note_on_c, 0, 67, 0
2, 12447840, Note_on_c, 0, 69, 100
2, 12448080, Note_on_c, 0, 69, 0
2, 12448080, Note_on_c, 0, 67, 100
2, 12448200, Note_on_c, 0, 67, 0
2, 12448200, Note_on_c, 0, 69, 100
2, 12448260, Note_on_c, 0, 69, 0
2, 12448260, Note_on_c, 0, 67, 100
2, 12448320, Note_on_c, 0, 67, 0
2, 12448320, Note_on_c, 0, 69, 100
2, 12448380, Note_on_c, 0, 69, 0
2, 12448380, Note_on_c, 0, 67, 100
2, 12448440, Note_on_c, 0, 67, 0
2, 12448440, Note_on_c, 0, 69, 100
2, 12448500, Note_on_c, 0, 69, 0
2, 12448500, Note_on_c, 0, 67, 100
2, 12448560, Note_on_c, 0, 67, 0
2, 12448560, Note_on_c, 0, 69, 100
2, 12448620, Note_on_c, 0, 69, 0
2, 12448620, Note_on_c, 0, 67, 100
2, 12448680, Note_on_c, 0, 67, 0
2, 12448680, Note_on_c, 0, 69, 100
2, 12448740, Note_on_c, 0, 69, 0
2, 12448740, Note_on_c, 0, 67, 100
2, 12448800, Note_on_c, 0, 67, 0
2, 12448800, Note_on_c, 0, 59, 100
2, 12449040, Note_on_c, 0, 59, 0
2, 12449040, Note_on_c, 0, 62, 100
2, 12449160, Note_on_c, 0, 62, 0
2, 12449160, Note_on_c, 0, 67, 100
2, 12449400, Note_on_c, 0, 67, 0
2, 12449400, Note_on_c, 0, 66, 100
2, 12449520, Note_on_c, 0, 66, 0
2, 12449520, Note_on_c, 0, 67, 100
2, 12449640, Note_on_c, 0, 67, 0
2, 12449640, Note_on_c, 0, 69, 100
2, 12449700, Note_on_c, 0, 69, 0
2, 12449700, Note_on_c, 0, 67, 100
2, 12449760, Note_on_c, 0, 67, 0
2, 12449760, Note_on_c, 0, 69, 100
2, 12449820, Note_on_c, 0, 69, 0
2, 12449820, Note_on_c, 0, 67, 100
2, 12449880, Note_on_c, 0, 67, 0
2, 12449880, Note_on_c, 0, 69, 100
2, 12449940, Note_on_c, 0, 69, 0
2, 12449940, Note_on_c, 0, 67, 100
2, 12450000, Note_on_c, 0, 67, 0
2, 12450000, Note_on_c, 0, 69, 100
2, 12450060, Note_on_c, 0, 69, 0
2, 12450060, Note_on_c, 0, 67, 100
2, 12450120, Note_on_c, 0, 67, 0
2, 12450120, Note_on_c, 0, 69, 100
2, 12450180, Note_on_c, 0, 69, 0
2, 12450180, Note_on_c, 0, 67, 100
2, 12450240, Note_on_c, 0, 67, 0
2, 12450240, Note_on_c, 0, 61, 100
2, 12450480, Note_on_c, 0, 61, 0
2, 12450480, Note_on_c, 0, 64, 100
2, 12450600, Note_on_c, 0, 64, 0
2, 12450600, Note_on_c, 0, 67, 100
2, 12450840, Note_on_c, 0, 67, 0
2, 12450840, Note_on_c, 0, 66, 100
2, 12450960, Note_on_c, 0, 66, 0
2, 12450960, Note_on_c, 0, 67, 100
2, 12451080, Note_on_c, 0, 67, 0
2, 12451080, Note_on_c, 0, 69, 100
2, 12451140, Note_on_c, 0, 69, 0
2, 12451140, Note_on_c, 0, 67, 100
2, 12451200, Note_on_c, 0, 67, 0
2, 12451200, Note_on_c, 0, 69, 100
2, 12451260, Note_on_c, 0, 69, 0
2, 12451260, Note_on_c, 0, 67, 100
2, 12451320, Note_on_c, 0, 67, 0
2, 12451320, Note_on_c, 0, 69, 100
2, 12451380, Note_on_c, 0, 69, 0
2, 12451380, Note_on_c, 0, 67, 100
2, 12451440, Note_on_c, 0, 67, 0
2, 12451440, Note_on_c, 0, 69, 100
2, 12451500, Note_on_c, 0, 69, 0
2, 12451500, Note_on_c, 0, 67, 100
2, 12451560, Note_on_c, 0, 67, 0
2, 12451560, Note_on_c, 0, 69, 100
2, 12451620, Note_on_c, 0, 69, 0
2, 12451620, Note_on_c, 0, 67, 100
2, 12451680, Note_on_c, 0, 67, 0
2, 12451680, Note_on_c, 0, 69, 100
2, 12451800, Note_on_c, 0, 69, 0
2, 12451800, Note_on_c, 0, 72, 100
2, 12451920, Note_on_c, 0, 72, 0
2, 12451920, Note_on_c, 0, 66, 100
2, 12452040, Note_on_c, 0, 66, 0
2, 12452040, Note_on_c, 0, 69, 100
2, 12452160, Note_on_c, 0, 69, 0
2, 12452160, Note_on_c, 0, 72, 100
2, 12452280, Note_on_c, 0, 72, 0
2, 12452280, Note_on_c, 0, 71, 100
2, 12452400, Note_on_c, 0, 71, 0
2, 12452400, Note_on_c, 0, 67, 100
2, 12452880, Note_on_c, 0, 67, 0
2, 12452880, Note_on_c, 0, 62, 100
2, 12453000, Note_on_c, 0, 62, 0
2, 12453000, Note_on_c, 0, 59, 100
2, 12453120, Note_on_c, 0, 59, 0
2, 12453120, Note_on_c, 0, 55, 100
2, 12453240, Note_on_c, 0, 55, 0
2, 12453240, Note_on_c, 0, 59, 100
2, 12453360, Note_on_c, 0, 59, 0
2, 12453360, Note_on_c, 0, 62, 100
2, 12453480, Note_on_c, 0, 62, 0
2, 12453480, Note_on_c, 0, 67, 100
2, 12453600, Note_on_c, 0, 67, 0
2, 12453600, Note_on_c, 0, 69, 100
2, 12453720, Note_on_c, 0, 69, 0
2, 12453720, Note_on_c, 0, 71, 100
2, 12453840, Note_on_c, 0, 71, 0
2, 12453840, Note_on_c, 0, 69, 100
2, 12453960, Note_on_c, 0, 69, 0
2, 12453960, Note_on_c, 0, 67, 100
2, 12454080, Note_on_c, 0, 67, 0
2, 12454080, Note_on_c, 0, 66, 100
2, 12454200, Note_on_c, 0, 66, 0
2, 12454200, Note_on_c, 0, 64, 100
2, 12454320, Note_on_c, 0, 64, 0
2, 12454320, Note_on_c, 0, 62, 100
2, 12454440, Note_on_c, 0, 62, 0
2, 12454440, Note_on_c, 0, 61, 100
2, 12454560, Note_on_c, 0, 61, 0
2, 12454560, Note_on_c, 0, 64, 100
2, 12455160, Note_on_c, 0, 64, 0
2, 12455160, Note_on_c, 0, 69, 100
2, 12455280, Note_on_c, 0, 69, 0
2, 12455280, Note_on_c, 0, 67, 100
2, 12455400, Note_on_c, 0, 67, 0
2, 12455400, Note_on_c, 0, 66, 100
2, 12455520, Note_on_c, 0, 66, 0
2, 12455520, Note_on_c, 0, 64, 100
2, 12455640, Note_on_c, 0, 64, 0
2, 12455640, Note_on_c, 0, 62, 100
2, 12455760, Note_on_c, 0, 62, 0
2, 12455760, Note_on_c, 0, 61, 100
2, 12455880, Note_on_c, 0, 61, 0
2, 12455880, Note_on_c, 0, 59, 100
2, 12456000, Note_on_c, 0, 59, 0
2, 12456000, Note_on_c, 0, 69, 100
2, 12456600, Note_on_c, 0, 69, 0
2, 12456600, Note_on_c, 0, 67, 100
2, 12456720, Note_on_c, 0, 67, 0
2, 12456720, Note_on_c, 0, 66, 100
2, 12456840, Note_on_c, 0, 66, 0
2, 12456840, Note_on_c, 0, 64, 100
2, 12456960, Note_on_c, 0, 64, 0
2, 12456960, Note_on_c, 0, 62, 100
2, 12457080, Note_on_c, 0, 62, 0
2, 12457080, Note_on_c, 0, 61, 100
2, 12457200, Note_on_c, 0, 61, 0
2, 12457200, Note_on_c, 0, 59, 100
2, 12457320, Note_on_c, 0, 59, 0
2, 12457320, Note_on_c, 0, 64, 100
2, 12457440, Note_on_c, 0, 64, 0
2, 12457440, Note_on_c, 0, 62, 100
2, 12457560, Note_on_c, 0, 62, 0
2, 12457560, Note_on_c, 0, 61, 100
2, 12457680, Note_on_c, 0, 61, 0
2, 12457680, Note_on_c, 0, 59, 100
2, 12457800, Note_on_c, 0, 59, 0
2, 12457800, Note_on_c, 0, 57, 100
2, 12457920, Note_on_c, 0, 57, 0
2, 12457920, Note_on_c, 0, 55, 100
2, 12458040, Note_on_c, 0, 55, 0
2, 12458040, Note_on_c, 0, 61, 100
2, 12458160, Note_on_c, 0, 61, 0
2, 12458160, Note_on_c, 0, 59, 100
2, 12458280, Note_on_c, 0, 59, 0
2, 12458280, Note_on_c, 0, 57, 100
2, 12458400, Note_on_c, 0, 57, 0
2, 12458400, Note_on_c, 0, 55, 100
2, 12458520, Note_on_c, 0, 55, 0
2, 12458520, Note_on_c, 0, 54, 100
2, 12458640, Note_on_c, 0, 54, 0
2, 12458640, Note_on_c, 0, 52, 100
2, 12458760, Note_on_c, 0, 52, 0
2, 12458760, Note_on_c, 0, 57, 100
2, 12458880, Note_on_c, 0, 57, 0
2, 12458880, Note_on_c, 0, 55, 100
2, 12459000, Note_on_c, 0, 55, 0
2, 12459000, Note_on_c, 0, 54, 100
2, 12459120, Note_on_c, 0, 54, 0
2, 12459120, Note_on_c, 0, 52, 100
2, 12459240, Note_on_c, 0, 52, 0
2, 12459240, Note_on_c, 0, 54, 100
2, 12459360, Note_on_c, 0, 54, 0
2, 12459360, Note_on_c, 0, 55, 100
2, 12459480, Note_on_c, 0, 55, 0
2, 12459480, Note_on_c, 0, 54, 100
2, 12459600, Note_on_c, 0, 54, 0
2, 12459600, Note_on_c, 0, 57, 100
2, 12459720, Note_on_c, 0, 57, 0
2, 12459720, Note_on_c, 0, 62, 100
2, 12459840, Note_on_c, 0, 62, 0
2, 12459840, Note_on_c, 0, 66, 100
2, 12459960, Note_on_c, 0, 66, 0
2, 12459960, Note_on_c, 0, 69, 100
2, 12460080, Note_on_c, 0, 69, 0
2, 12460080, Note_on_c, 0, 74, 100
2, 12460200, Note_on_c, 0, 74, 0
2, 12460200, Note_on_c, 0, 69, 100
2, 12460320, Note_on_c, 0, 69, 0
2, 12460320, Note_on_c, 0, 66, 100
2, 12460440, Note_on_c, 0, 66, 0
2, 12460440, Note_on_c, 0, 62, 100
2, 12460560, Note_on_c, 0, 62, 0
2, 12460560, Note_on_c, 0, 60, 100
2, 12460680, Note_on_c, 0, 60, 0
2, 12460680, Note_on_c, 0, 59, 100
2, 12460800, Note_on_c, 0, 59, 0
2, 12460800, Note_on_c, 0, 57, 100
2, 12460920, Note_on_c, 0, 57, 0
2, 12460920, Note_on_c, 0, 56, 100
2, 12461040, Note_on_c, 0, 56, 0
2, 12461040, Note_on_c, 0, 59, 100
2, 12461160, Note_on_c, 0, 59, 0
2, 12461160, Note_on_c, 0, 62, 100
2, 12461280, Note_on_c, 0, 62, 0
2, 12461280, Note_on_c, 0, 65, 100
2, 12461400, Note_on_c, 0, 65, 0
2, 12461400, Note_on_c, 0, 71, 100
2, 12461520, Note_on_c, 0, 71, 0
2, 12461520, Note_on_c, 0, 74, 100
2, 12461640, Note_on_c, 0, 74, 0
2, 12461640, Note_on_c, 0, 71, 100
2, 12461760, Note_on_c, 0, 71, 0
2, 12461760, Note_on_c, 0, 65, 100
2, 12461880, Note_on_c, 0, 65, 0
2, 12461880, Note_on_c, 0, 64, 100
2, 12462000, Note_on_c, 0, 64, 0
2, 12462000, Note_on_c, 0, 62, 100
2, 12462120, Note_on_c, 0, 62, 0
2, 12462120, Note_on_c, 0, 61, 100
2, 12462240, Note_on_c, 0, 61, 0
2, 12462240, Note_on_c, 0, 59, 100
2, 12462360, Note_on_c, 0, 59, 0
2, 12462360, Note_on_c, 0, 57, 100
2, 12462480, Note_on_c, 0, 57, 0
2, 12462480, Note_on_c, 0, 62, 100
2, 12462600, Note_on_c, 0, 62, 0
2, 12462600, Note_on_c, 0, 66, 100
2, 12462720, Note_on_c, 0, 66, 0
2, 12462720, Note_on_c, 0, 69, 100
2, 12462840, Note_on_c, 0, 69, 0
2, 12462840, Note_on_c, 0, 74, 100
2, 12462960, Note_on_c, 0, 74, 0
2, 12462960, Note_on_c, 0, 78, 100
2, 12463080, Note_on_c, 0, 78, 0
2, 12463080, Note_on_c, 0, 76, 100
2, 12463200, Note_on_c, 0, 76, 0
2, 12463200, Note_on_c, 0, 73, 100
2, 12463320, Note_on_c, 0, 73, 0
2, 12463320, Note_on_c, 0, 69, 100
2, 12463440, Note_on_c, 0, 69, 0
2, 12463440, Note_on_c, 0, 67, 100
2, 12463560, Note_on_c, 0, 67, 0
2, 12463560, Note_on_c, 0, 66, 100
2, 12463680, Note_on_c, 0, 66, 0
2, 12463680, Note_on_c, 0, 64, 100
2, 12463800, Note_on_c, 0, 64, 0
2, 12463800, Note_on_c, 0, 62, 100
2, 12463920, Note_on_c, 0, 62, 0
2, 12463920, Note_on_c, 0, 57, 100
2, 12464040, Note_on_c, 0, 57, 0
2, 12464040, Note_on_c, 0, 54, 100
2, 12464160, Note_on_c, 0, 54, 0
2, 12464160, Note_on_c, 0, 50, 100
2, 12464280, Note_on_c, 0, 50, 0
2, 12464280, Note_on_c, 0, 45, 100
2, 12464400, Note_on_c, 0, 45, 0
2, 12464400, Note_on_c, 0, 42, 100
2, 12464520, Note_on_c, 0, 42, 0
2, 12464520, Note_on_c, 0, 38, 100
2, 12464640, Note_on_c, 0, 38, 0
2, 12464640, Note_on_c, 0, 42, 100
2, 12464760, Note_on_c, 0, 42, 0
2, 12464760, Note_on_c, 0, 45, 100
2, 12464880, Note_on_c, 0, 45, 0
2, 12464880, Note_on_c, 0, 50, 100
2, 12465000, Note_on_c, 0, 50, 0
2, 12465000, Note_on_c, 0, 55, 100
2, 12465360, Note_on_c, 0, 55, 0
2, 12465360, Note_on_c, 0, 59, 100
2, 12465960, Note_on_c, 0, 59, 0
2, 12465960, Note_on_c, 0, 64, 100
2, 12466080, Note_on_c, 0, 64, 0
2, 12466080, Note_on_c, 0, 62, 100
2, 12466200, Note_on_c, 0, 62, 0
2, 12466200, Note_on_c, 0, 61, 100
2, 12466320, Note_on_c, 0, 61, 0
2, 12466320, Note_on_c, 0, 59, 100
2, 12466440, Note_on_c, 0, 59, 0
2, 12466440, Note_on_c, 0, 57, 100
2, 12466560, Note_on_c, 0, 57, 0
2, 12466560, Note_on_c, 0, 55, 100
2, 12466680, Note_on_c, 0, 55, 0
2, 12466680, Note_on_c, 0, 54, 100
2, 12466800, Note_on_c, 0, 54, 0
2, 12466800, Note_on_c, 0, 64, 100
2, 12467400, Note_on_c, 0, 64, 0
2, 12467400, Note_on_c, 0, 62, 100
2, 12467520, Note_on_c, 0, 62, 0
2, 12467520, Note_on_c, 0, 61, 100
2, 12467640, Note_on_c, 0, 61, 0
2, 12467640, Note_on_c, 0, 59, 100
2, 12467760, Note_on_c, 0, 59, 0
2, 12467760, Note_on_c, 0, 57, 100
2, 12467880, Note_on_c, 0, 57, 0
2, 12467880, Note_on_c, 0, 55, 100
2, 12468000, Note_on_c, 0, 55, 0
2, 12468000, Note_on_c, 0, 54, 100
2, 12468120, Note_on_c, 0, 54, 0
2, 12468120, Note_on_c, 0, 52, 100
2, 12468240, Note_on_c, 0, 52, 0
2, 12468240, Note_on_c, 0, 55, 100
2, 12468480, Note_on_c, 0, 55, 0
2, 12468480, Note_on_c, 0, 59, 100
2, 12468600, Note_on_c, 0, 59, 0
2, 12468600, Note_on_c, 0, 62, 100
2, 12468840, Note_on_c, 0, 62, 0
2, 12468840, Note_on_c, 0, 61, 100
2, 12468960, Note_on_c, 0, 61, 0
2, 12468960, Note_on_c, 0, 59, 100
2, 12469080, Note_on_c, 0, 59, 0
2, 12469080, Note_on_c, 0, 57, 100
2, 12469200, Note_on_c, 0, 57, 0
2, 12469200, Note_on_c, 0, 55, 100
2, 12469320, Note_on_c, 0, 55, 0
2, 12469320, Note_on_c, 0, 54, 100
2, 12469440, Note_on_c, 0, 54, 0
2, 12469440, Note_on_c, 0, 52, 100
2, 12469560, Note_on_c, 0, 52, 0
2, 12469560, Note_on_c, 0, 50, 100
2, 12469680, Note_on_c, 0, 50, 0
2, 12469680, Note_on_c, 0, 52, 100
2, 12469800, Note_on_c, 0, 52, 0
2, 12469800, Note_on_c, 0, 54, 100
2, 12469920, Note_on_c, 0, 54, 0
2, 12469920, Note_on_c, 0, 55, 100
2, 12470040, Note_on_c, 0, 55, 0
2, 12470040, Note_on_c, 0, 57, 100
2, 12470160, Note_on_c, 0, 57, 0
2, 12470160, Note_on_c, 0, 59, 100
2, 12470280, Note_on_c, 0, 59, 0
2, 12470280, Note_on_c, 0, 61, 100
2, 12470400, Note_on_c, 0, 61, 0
2, 12470400, Note_on_c, 0, 62, 100
2, 12470520, Note_on_c, 0, 62, 0
2, 12470520, Note_on_c, 0, 64, 100
2, 12470640, Note_on_c, 0, 64, 0
2, 12470640, Note_on_c, 0, 66, 100
2, 12470760, Note_on_c, 0, 66, 0
2, 12470760, Note_on_c, 0, 67, 100
2, 12470880, Note_on_c, 0, 67, 0
2, 12470880, Note_on_c, 0, 69, 100
2, 12471120, Note_on_c, 0, 69, 0
2, 12471120, Note_on_c, 0, 67, 100
2, 12471240, Note_on_c, 0, 67, 0
2, 12471240, Note_on_c, 0, 69, 100
2, 12471300, Note_on_c, 0, 69, 0
2, 12471300, Note_on_c, 0, 67, 100
2, 12471360, Note_on_c, 0, 67, 0
2, 12471360, Note_on_c, 0, 69, 100
2, 12471420, Note_on_c, 0, 69, 0
2, 12471420, Note_on_c, 0, 67, 100
2, 12471480, Note_on_c, 0, 67, 0
2, 12471480, Note_on_c, 0, 69, 100
2, 12471540, Note_on_c, 0, 69, 0
2, 12471540, Note_on_c, 0, 67, 100
2, 12471600, Note_on_c, 0, 67, 0
2, 12471600, Note_on_c, 0, 69, 100
2, 12471660, Note_on_c, 0, 69, 0
2, 12471660, Note_on_c, 0, 67, 100
2, 12471720, Note_on_c, 0, 67, 0
2, 12471720, Note_on_c, 0, 69, 100
2, 12471780, Note_on_c, 0, 69, 0
2, 12471780, Note_on_c, 0, 67, 100
2, 12471840, Note_on_c, 0, 67, 0
2, 12471840, Note_on_c, 0, 59, 100
2, 12472080, Note_on_c, 0, 59, 0
2, 12472080, Note_on_c, 0, 62, 100
2, 12472200, Note_on_c, 0, 62, 0
2, 12472200, Note_on_c, 0, 67, 100
2, 12472440, Note_on_c, 0, 67, 0
2, 12472440, Note_on_c, 0, 66, 100
2, 12472560, Note_on_c, 0, 66, 0
2, 12472560, Note_on_c, 0, 67, 100
2, 12472680, Note_on_c, 0, 67, 0
2, 12472680, Note_on_c, 0, 69, 100
2, 12472740, Note_on_c, 0, 69, 0
2, 12472740, Note_on_c, 0, 67, 100
2, 12472800, Note_on_c, 0, 67, 0
2, 12472800, Note_on_c, 0, 69, 100
2, 12472860, Note_on_c, 0, 69, 0
2, 12472860, Note_on_c, 0, 67, 100
2, 12472920, Note_on_c, 0, 67, 0
2, 12472920, Note_on_c, 0, 69, 100
2, 12472980, Note_on_c, 0, 69, 0
2, 12472980, Note_on_c, 0, 67, 100
2, 12473040, Note_on_c, 0, 67, 0
2, 12473040, Note_on_c, 0, 69, 100
2, 12473100, Note_on_c, 0, 69, 0
2, 12473100, Note_on_c, 0, 67, 100
2, 12473160, Note_on_c, 0, 67, 0
2, 12473160, Note_on_c, 0, 69, 100
2, 12473220, Note_on_c, 0, 69, 0
2, 12473220, Note_on_c, 0, 67, 100
2, 12473280, Note_on_c, 0, 67, 0
2, 12473280, Note_on_c, 0, 61, 100
2, 12473520, Note_on_c, 0, 61, 0
2, 12473520, Note_on_c, 0, 64, 100
2, 12473640, Note_on_c, 0, 64, 0
2, 12473640, Note_on_c, 0, 67, 100
2, 12473880, Note_on_c, 0, 67, 0
2, 12473880, Note_on_c, 0, 66, 100
2, 12474000, Note_on_c, 0, 66, 0
2, 12474000, Note_on_c, 0, 67, 100
2, 12474120, Note_on_c, 0, 67, 0
2, 12474120, Note_on_c, 0, 69, 100
2, 12474180, Note_on_c, 0, 69, 0
2, 12474180, Note_on_c, 0, 67, 100
2, 12474240, Note_on_c, 0, 67, 0
2, 12474240, Note_on_c, 0, 69, 100
2, 12474300, Note_on_c, 0, 69, 0
2, 12474300, Note_on_c, 0, 67, 100
2, 12474360, Note_on_c, 0, 67, 0
2, 12474360, Note_on_c, 0, 69, 100
2, 12474420, Note_on_c, 0, 69, 0
2, 12474420, Note_on_c, 0, 67, 100
2, 12474480, Note_on_c, 0, 67, 0
2, 12474480, Note_on_c, 0, 69, 100
2, 12474540, Note_on_c, 0, 69, 0
2, 12474540, Note_on_c, 0, 67, 100
2, 12474600, Note_on_c, 0, 67, 0
2, 12474600, Note_on_c, 0, 69, 100
2, 12474660, Note_on_c, 0, 69, 0
2, 12474660, Note_on_c, 0, 67, 100
2, 12474720, Note_on_c, 0, 67, 0
2, 12474720, Note_on_c, 0, 69, 100
2, 12474840, Note_on_c, 0, 69, 0
2, 12474840, Note_on_c, 0, 72, 100
2, 12474960, Note_on_c, 0, 72, 0
2, 12474960, Note_on_c, 0, 66, 100
2, 12475080, Note_on_c, 0, 66, 0
2, 12475080, Note_on_c, 0, 69, 100
2, 12475200, Note_on_c, 0, 69, 0
2, 12475200, Note_on_c, 0, 72, 100
2, 12475320, Note_on_c, 0, 72, 0
2, 12475320, Note_on_c, 0, 71, 100
2, 12475440, Note_on_c, 0, 71, 0
2, 12475440, Note_on_c, 0, 67, 100
2, 12475920, Note_on_c, 0, 67, 0
2, 12475920, Note_on_c, 0, 62, 100
2, 12476040, Note_on_c, 0, 62, 0
2, 12476040, Note_on_c, 0, 59, 100
2, 12476160, Note_on_c, 0, 59, 0
2, 12476160, Note_on_c, 0, 55, 100
2, 12476280, Note_on_c, 0, 55, 0
2, 12476280, Note_on_c, 0, 59, 100
2, 12476400, Note_on_c, 0, 59, 0
2, 12476400, Note_on_c, 0, 62, 100
2, 12476520, Note_on_c, 0, 62, 0
2, 12476520, Note_on_c, 0, 67, 100
2, 12476640, Note_on_c, 0, 67, 0
2, 12476640, Note_on_c, 0, 69, 100
2, 12476760, Note_on_c, 0, 69, 0
2, 12476760, Note_on_c, 0, 71, 100
2, 12476880, Note_on_c, 0, 71, 0
2, 12476880, Note_on_c, 0, 69, 100
2, 12477000, Note_on_c, 0, 69, 0
2, 12477000, Note_on_c, 0, 67, 100
2, 12477120, Note_on_c, 0, 67, 0
2, 12477120, Note_on_c, 0, 66, 100
2, 12477240, Note_on_c, 0, 66, 0
2, 12477240, Note_on_c, 0, 64, 100
2, 12477360, Note_on_c, 0, 64, 0
2, 12477360, Note_on_c, 0, 62, 100
2, 12477480, Note_on_c, 0, 62, 0
2, 12477480, Note_on_c, 0, 61, 100
2, 12477600, Note_on_c, 0, 61, 0
2, 12477600, Note_on_c, 0, 64, 100
2, 12478200, Note_on_c, 0, 64, 0
2, 12478200, Note_on_c, 0, 69, 100
2, 12478320, Note_on_c, 0, 69, 0
2, 12478320, Note_on_c, 0, 67, 100
2, 12478440, Note_on_c, 0, 67, 0
2, 12478440, Note_on_c, 0, 66, 100
2, 12478560, Note_on_c, 0, 66, 0
2, 12478560, Note_on_c, 0, 64, 100
2, 12478680, Note_on_c, 0, 64, 0
2, 12478680, Note_on_c, 0, 62, 100
2, 12478800, Note_on_c, 0, 62, 0
2, 12478800, Note_on_c, 0, 61, 100
2, 12478920, Note_on_c, 0, 61, 0
2, 12478920, Note_on_c, 0, 59, 100
2, 12479040, Note_on_c, 0, 59, 0
2, 12479040, Note_on_c, 0, 69, 100
2, 12479640, Note_on_c, 0, 69, 0
2, 12479640, Note_on_c, 0, 67, 100
2, 12479760, Note_on_c, 0, 67, 0
2, 12479760, Note_on_c, 0, 66, 100
2, 12479880, Note_on_c, 0, 66, 0
2, 12479880, Note_on_c, 0, 64, 100
2, 12480000, Note_on_c, 0, 64, 0
2, 12480000, Note_on_c, 0, 62, 100
2, 12480120, Note_on_c, 0, 62, 0
2, 12480120, Note_on_c, 0, 61, 100
2, 12480240, Note_on_c, 0, 61, 0
2, 12480240, Note_on_c, 0, 59, 100
2, 12480360, Note_on_c, 0, 59, 0
2, 12480360, Note_on_c, 0, 64, 100
2, 12480480, Note_on_c, 0, 64, 0
2, 12480480, Note_on_c, 0, 62, 100
2, 12480600, Note_on_c, 0, 62, 0
2, 12480600, Note_on_c, 0, 61, 100
2, 12480720, Note_on_c, 0, 61, 0
2, 12480720, Note_on_c, 0, 59, 100
2, 12480840, Note_on_c, 0, 59, 0
2, 12480840, Note_on_c, 0, 57, 100
2, 12480960, Note_on_c, 0, 57, 0
2, 12480960, Note_on_c, 0, 55, 100
2, 12481080, Note_on_c, 0, 55, 0
2, 12481080, Note_on_c, 0, 61, 100
2, 12481200, Note_on_c, 0, 61, 0
2, 12481200, Note_on_c, 0, 59, 100
2, 12481320, Note_on_c, 0, 59, 0
2, 12481320, Note_on_c, 0, 57, 100
2, 12481440, Note_on_c, 0, 57, 0
2, 12481440, Note_on_c, 0, 55, 100
2, 12481560, Note_on_c, 0, 55, 0
2, 12481560, Note_on_c, 0, 54, 100
2, 12481680, Note_on_c, 0, 54, 0
2, 12481680, Note_on_c, 0, 52, 100
2, 12481800, Note_on_c, 0, 52, 0
2, 12481800, Note_on_c, 0, 57, 100
2, 12481920, Note_on_c, 0, 57, 0
2, 12481920, Note_on_c, 0, 55, 100
2, 12482040, Note_on_c, 0, 55, 0
2, 12482040, Note_on_c, 0, 54, 100
2, 12482160, Note_on_c, 0, 54, 0
2, 12482160, Note_on_c, 0, 52, 100
2, 12482280, Note_on_c, 0, 52, 0
2, 12482280, Note_on_c, 0, 54, 100
2, 12482400, Note_on_c, 0, 54, 0
2, 12482400, Note_on_c, 0, 55, 100
2, 12482520, Note_on_c, 0, 55, 0
2, 12482520, Note_on_c, 0, 54, 100
2, 12482640, Note_on_c, 0, 54, 0
2, 12482640, Note_on_c, 0, 57, 100
2, 12482760, Note_on_c, 0, 57, 0
2, 12482760, Note_on_c, 0, 62, 100
2, 12482880, Note_on_c, 0, 62, 0
2, 12482880, Note_on_c, 0, 66, 100
2, 12483000, Note_on_c, 0, 66, 0
2, 12483000, Note_on_c, 0, 69, 100
2, 12483120, Note_on_c, 0, 69, 0
2, 12483120, Note_on_c, 0, 74, 100
2, 12483240, Note_on_c, 0, 74, 0
2, 12483240, Note_on_c, 0, 69, 100
2, 12483360, Note_on_c, 0, 69, 0
2, 12483360, Note_on_c, 0, 66, 100
2, 12483480, Note_on_c, 0, 66, 0
2, 12483480, Note_on_c, 0, 62, 100
2, 12483600, Note_on_c, 0, 62, 0
2, 12483600, Note_on_c, 0, 60, 100
2, 12483720, Note_on_c, 0, 60, 0
2, 12483720, Note_on_c, 0, 59, 100
2, 12483840, Note_on_c, 0, 59, 0
2, 12483840, Note_on_c, 0, 57, 100
2, 12483960, Note_on_c, 0, 57, 0
2, 12483960, Note_on_c, 0, 56, 100
2, 12484080, Note_on_c, 0, 56, 0
2, 12484080, Note_on_c, 0, 59, 100
2, 12484200, Note_on_c, 0, 59, 0
2, 12484200, Note_on_c, 0, 62, 100
2, 12484320, Note_on_c, 0, 62, 0
2, 12484320, Note_on_c, 0, 65, 100
2, 12484440, Note_on_c, 0, 65, 0
2, 12484440, Note_on_c, 0, 71, 100
2, 12484560, Note_on_c, 0, 71, 0
2, 12484560, Note_on_c, 0, 74, 100
2, 12484680, Note_on_c, 0, 74, 0
2, 12484680, Note_on_c, 0, 71, 100
2, 12484800, Note_on_c, 0, 71, 0
2, 12484800, Note_on_c, 0, 65, 100
2, 12484920, Note_on_c, 0, 65, 0
2, 12484920, Note_on_c, 0, 64, 100
2, 12485040, Note_on_c, 0, 64, 0
2, 12485040, Note_on_c, 0, 62, 100
2, 12485160, Note_on_c, 0, 62, 0
2, 12485160, Note_on_c, 0, 61, 100
2, 12485280, Note_on_c, 0, 61, 0
2, 12485280, Note_on_c, 0, 59, 100
2, 12485400, Note_on_c, 0, 59, 0
2, 12485400, Note_on_c, 0, 57, 100
2, 12485520, Note_on_c, 0, 57, 0
2, 12485520, Note_on_c, 0, 62, 100
2, 12485640, Note_on_c, 0, 62, 0
2, 12485640, Note_on_c, 0, 66, 100
2, 12485760, Note_on_c, 0, 66, 0
2, 12485760, Note_on_c, 0, 69, 100
2, 12485880, Note_on_c, 0, 69, 0
2, 12485880, Note_on_c, 0, 74, 100
2, 12486000, Note_on_c, 0, 74, 0
2, 12486000, Note_on_c, 0, 78, 100
2, 12486120, Note_on_c, 0, 78, 0
2, 12486120, Note_on_c, 0, 76, 100
2, 12486240, Note_on_c, 0, 76, 0
2, 12486240, Note_on_c, 0, 73, 100
2, 12486360, Note_on_c, 0, 73, 0
2, 12486360, Note_on_c, 0, 69, 100
2, 12486480, Note_on_c, 0, 69, 0
2, 12486480, Note_on_c, 0, 67, 100
2, 12486600, Note_on_c, 0, 67, 0
2, 12486600, Note_on_c, 0, 66, 100
2, 12486720, Note_on_c, 0, 66, 0
2, 12486720, Note_on_c, 0, 64, 100
2, 12486840, Note_on_c, 0, 64, 0
2, 12486840, Note_on_c, 0, 62, 100
2, 12486960, Note_on_c, 0, 62, 0
2, 12486960, Note_on_c, 0, 57, 100
2, 12487080, Note_on_c, 0, 57, 0
2, 12487080, Note_on_c, 0, 54, 100
2, 12487200, Note_on_c, 0, 54, 0
2, 12487200, Note_on_c, 0, 50, 100
2, 12487320, Note_on_c, 0, 50, 0
2, 12487320, Note_on_c, 0, 45, 100
2, 12487440, Note_on_c, 0, 45, 0
2, 12487440, Note_on_c, 0, 42, 100
2, 12487560, Note_on_c, 0, 42, 0
2, 12487560, Note_on_c, 0, 38, 100
2, 12487680, Note_on_c, 0, 38, 0
2, 12487680, Note_on_c, 0, 42, 100
2, 12487800, Note_on_c, 0, 42, 0
2, 12487800, Note_on_c, 0, 45, 100
2, 12487920, Note_on_c, 0, 45, 0
2, 12487920, Note_on_c, 0, 50, 100
2, 12488400, Note_on_c, 0, 50, 0
2, 12488400, Note_on_c, 0, 52, 100
2, 12488520, Note_on_c, 0, 52, 0
2, 12488520, Note_on_c, 0, 54, 100
2, 12488640, Note_on_c, 0, 54, 0
2, 12488640, Note_on_c, 0, 55, 100
2, 12488760, Note_on_c, 0, 55, 0
2, 12488760, Note_on_c, 0, 57, 100
2, 12488880, Note_on_c, 0, 57, 0
2, 12488880, Note_on_c, 0, 59, 100
2, 12489000, Note_on_c, 0, 59, 0
2, 12489000, Note_on_c, 0, 60, 100
2, 12489120, Note_on_c, 0, 60, 0
2, 12489120, Note_on_c, 0, 50, 100
2, 12489240, Note_on_c, 0, 50, 0
2, 12489240, Note_on_c, 0, 60, 100
2, 12489360, Note_on_c, 0, 60, 0
2, 12489360, Note_on_c, 0, 59, 100
2, 12489600, Note_on_c, 0, 59, 0
2, 12489600, Note_on_c, 0, 57, 100
2, 12489720, Note_on_c, 0, 57, 0
2, 12489720, Note_on_c, 0, 55, 100
2, 12489840, Note_on_c, 0, 55, 0
2, 12489840, Note_on_c, 0, 57, 100
2, 12489960, Note_on_c, 0, 57, 0
2, 12489960, Note_on_c, 0, 59, 100
2, 12490080, Note_on_c, 0, 59, 0
2, 12490080, Note_on_c, 0, 60, 100
2, 12490200, Note_on_c, 0, 60, 0
2, 12490200, Note_on_c, 0, 62, 100
2, 12490320, Note_on_c, 0, 62, 0
2, 12490320, Note_on_c, 0, 64, 100
2, 12490440, Note_on_c, 0, 64, 0
2, 12490440, Note_on_c, 0, 65, 100
2, 12490560, Note_on_c, 0, 65, 0
2, 12490560, Note_on_c, 0, 55, 100
2, 12490680, Note_on_c, 0, 55, 0
2, 12490680, Note_on_c, 0, 65, 100
2, 12490800, Note_on_c, 0, 65, 0
2, 12490800, Note_on_c, 0, 64, 100
2, 12491040, Note_on_c, 0, 64, 0
2, 12491040, Note_on_c, 0, 62, 100
2, 12491160, Note_on_c, 0, 62, 0
2, 12491160, Note_on_c, 0, 60, 100
2, 12491280, Note_on_c, 0, 60, 0
2, 12491280, Note_on_c, 0, 64, 100
2, 12491760, Note_on_c, 0, 64, 0
2, 12491760, Note_on_c, 0, 67, 100
2, 12491880, Note_on_c, 0, 67, 0
2, 12491880, Note_on_c, 0, 72, 100
2, 12492000, Note_on_c, 0, 72, 0
2, 12492000, Note_on_c, 0, 71, 100
2, 12492120, Note_on_c, 0, 71, 0
2, 12492120, Note_on_c, 0, 69, 100
2, 12492240, Note_on_c, 0, 69, 0
2, 12492240, Note_on_c, 0, 67, 100
2, 12492360, Note_on_c, 0, 67, 0
2, 12492360, Note_on_c, 0, 66, 100
2, 12492480, Note_on_c, 0, 66, 0
2, 12492480, Note_on_c, 0, 64, 100
2, 12492600, Note_on_c, 0, 64, 0
2, 12492600, Note_on_c, 0, 63, 100
2, 12492720, Note_on_c, 0, 63, 0
2, 12492720, Note_on_c, 0, 61, 100
2, 12492840, Note_on_c, 0, 61, 0
2, 12492840, Note_on_c, 0, 59, 100
2, 12492960, Note_on_c, 0, 59, 0
2, 12492960, Note_on_c, 0, 57, 100
2, 12493080, Note_on_c, 0, 57, 0
2, 12493080, Note_on_c, 0, 55, 100
2, 12493200, Note_on_c, 0, 55, 0
2, 12493200, Note_on_c, 0, 54, 100
2, 12493320, Note_on_c, 0, 54, 0
2, 12493320, Note_on_c, 0, 52, 100
2, 12493440, Note_on_c, 0, 52, 0
2, 12493440, Note_on_c, 0, 51, 100
2, 12493560, Note_on_c, 0, 51, 0
2, 12493560, Note_on_c, 0, 49, 100
2, 12493680, Note_on_c, 0, 49, 0
2, 12493680, Note_on_c, 0, 47, 100
2, 12493800, Note_on_c, 0, 47, 0
2, 12493800, Note_on_c, 0, 48, 100
2, 12493920, Note_on_c, 0, 48, 0
2, 12493920, Note_on_c, 0, 45, 100
2, 12494040, Note_on_c, 0, 45, 0
2, 12494040, Note_on_c, 0, 43, 100
2, 12494160, Note_on_c, 0, 43, 0
2, 12494160, Note_on_c, 0, 47, 100
2, 12494640, Note_on_c, 0, 47, 0
2, 12494640, Note_on_c, 0, 52, 100
2, 12494760, Note_on_c, 0, 52, 0
2, 12494760, Note_on_c, 0, 55, 100
2, 12494880, Note_on_c, 0, 55, 0
2, 12494880, Note_on_c, 0, 59, 100
2, 12495000, Note_on_c, 0, 59, 0
2, 12495000, Note_on_c, 0, 63, 100
2, 12495120, Note_on_c, 0, 63, 0
2, 12495120, Note_on_c, 0, 64, 100
2, 12495240, Note_on_c, 0, 64, 0
2, 12495240, Note_on_c, 0, 43, 100
2, 12495480, Note_on_c, 0, 43, 0
2, 12495480, Note_on_c, 0, 45, 100
2, 12495600, Note_on_c, 0, 45, 0
2, 12495600, Note_on_c, 0, 48, 100
2, 12496080, Note_on_c, 0, 48, 0
2, 12496080, Note_on_c, 0, 53, 100
2, 12496200, Note_on_c, 0, 53, 0
2, 12496200, Note_on_c, 0, 57, 100
2, 12496320, Note_on_c, 0, 57, 0
2, 12496320, Note_on_c, 0, 60, 100
2, 12496440, Note_on_c, 0, 60, 0
2, 12496440, Note_on_c, 0, 63, 100
2, 12496560, Note_on_c, 0, 63, 0
2, 12496560, Note_on_c, 0, 64, 100
2, 12496680, Note_on_c, 0, 64, 0
2, 12496680, Note_on_c, 0, 46, 100
2, 12496920, Note_on_c, 0, 46, 0
2, 12496920, Note_on_c, 0, 47, 100
2, 12497040, Note_on_c, 0, 47, 0
2, 12497040, Note_on_c, 0, 49, 100
2, 12497520, Note_on_c, 0, 49, 0
2, 12497520, Note_on_c, 0, 51, 100
2, 12497640, Note_on_c, 0, 51, 0
2, 12497640, Note_on_c, 0, 52, 100
2, 12497760, Note_on_c, 0, 52, 0
2, 12497760, Note_on_c, 0, 54, 100
2, 12497880, Note_on_c, 0, 54, 0
2, 12497880, Note_on_c, 0, 55, 100
2, 12498000, Note_on_c, 0, 55, 0
2, 12498000, Note_on_c, 0, 57, 100
2, 12498120, Note_on_c, 0, 57, 0
2, 12498120, Note_on_c, 0, 55, 100
2, 12498240, Note_on_c, 0, 55, 0
2, 12498240, Note_on_c, 0, 54, 100
2, 12498360, Note_on_c, 0, 54, 0
2, 12498360, Note_on_c, 0, 55, 100
2, 12498480, Note_on_c, 0, 55, 0
2, 12498480, Note_on_c, 0, 52, 100
2, 12498600, Note_on_c, 0, 52, 0
2, 12498600, Note_on_c, 0, 55, 100
2, 12498720, Note_on_c, 0, 55, 0
2, 12498720, Note_on_c, 0, 59, 100
2, 12498840, Note_on_c, 0, 59, 0
2, 12498840, Note_on_c, 0, 64, 100
2, 12498960, Note_on_c, 0, 64, 0
2, 12498960, Note_on_c, 0, 63, 100
2, 12499080, Note_on_c, 0, 63, 0
2, 12499080, Note_on_c, 0, 64, 100
2, 12499200, Note_on_c, 0, 64, 0
2, 12499200, Note_on_c, 0, 67, 100
2, 12499320, Note_on_c, 0, 67, 0
2, 12499320, Note_on_c, 0, 64, 100
2, 12499440, Note_on_c, 0, 64, 0
2, 12499440, Note_on_c, 0, 59, 100
2, 12499560, Note_on_c, 0, 59, 0
2, 12499560, Note_on_c, 0, 55, 100
2, 12499680, Note_on_c, 0, 55, 0
2, 12499680, Note_on_c, 0, 59, 100
2, 12499800, Note_on_c, 0, 59, 0
2, 12499800, Note_on_c, 0, 48, 100
2, 12499920, Note_on_c, 0, 48, 0
2, 12499920, Note_on_c, 0, 64, 100
2, 12500520, Note_on_c, 0, 64, 0
2, 12500520, Note_on_c, 0, 69, 100
2, 12500640, Note_on_c, 0, 69, 0
2, 12500640, Note_on_c, 0, 67, 100
2, 12500760, Note_on_c, 0, 67, 0
2, 12500760, Note_on_c, 0, 66, 100
2, 12500880, Note_on_c, 0, 66, 0
2, 12500880, Note_on_c, 0, 64, 100
2, 12501000, Note_on_c, 0, 64, 0
2, 12501000, Note_on_c, 0, 62, 100
2, 12501120, Note_on_c, 0, 62, 0
2, 12501120, Note_on_c, 0, 60, 100
2, 12501240, Note_on_c, 0, 60, 0
2, 12501240, Note_on_c, 0, 59, 100
2, 12501360, Note_on_c, 0, 59, 0
2, 12501360, Note_on_c, 0, 69, 100
2, 12501960, Note_on_c, 0, 69, 0
2, 12501960, Note_on_c, 0, 67, 100
2, 12502080, Note_on_c, 0, 67, 0
2, 12502080, Note_on_c, 0, 66, 100
2, 12502200, Note_on_c, 0, 66, 0
2, 12502200, Note_on_c, 0, 64, 100
2, 12502320, Note_on_c, 0, 64, 0
2, 12502320, Note_on_c, 0, 62, 100
2, 12502440, Note_on_c, 0, 62, 0
2, 12502440, Note_on_c, 0, 60, 100
2, 12502560, Note_on_c, 0, 60, 0
2, 12502560, Note_on_c, 0, 59, 100
2, 12502680, Note_on_c, 0, 59, 0
2, 12502680, Note_on_c, 0, 57, 100
2, 12502800, Note_on_c, 0, 57, 0
2, 12502800, Note_on_c, 0, 59, 100
2, 12503280, Note_on_c, 0, 59, 0
2, 12503280, Note_on_c, 0, 60, 100
2, 12503400, Note_on_c, 0, 60, 0
2, 12503400, Note_on_c, 0, 62, 100
2, 12503520, Note_on_c, 0, 62, 0
2, 12503520, Note_on_c, 0, 64, 100
2, 12503640, Note_on_c, 0, 64, 0
2, 12503640, Note_on_c, 0, 66, 100
2, 12503760, Note_on_c, 0, 66, 0
2, 12503760, Note_on_c, 0, 67, 100
2, 12503880, Note_on_c, 0, 67, 0
2, 12503880, Note_on_c, 0, 66, 100
2, 12504000, Note_on_c, 0, 66, 0
2, 12504000, Note_on_c, 0, 64, 100
2, 12504120, Note_on_c, 0, 64, 0
2, 12504120, Note_on_c, 0, 62, 100
2, 12504240, Note_on_c, 0, 62, 0
2, 12504240, Note_on_c, 0, 64, 100
2, 12504720, Note_on_c, 0, 64, 0
2, 12504720, Note_on_c, 0, 66, 100
2, 12504840, Note_on_c, 0, 66, 0
2, 12504840, Note_on_c, 0, 67, 100
2, 12504960, Note_on_c, 0, 67, 0
2, 12504960, Note_on_c, 0, 69, 100
2, 12505080, Note_on_c, 0, 69, 0
2, 12505080, Note_on_c, 0, 71, 100
2, 12505200, Note_on_c, 0, 71, 0
2, 12505200, Note_on_c, 0, 72, 100
2, 12505320, Note_on_c, 0, 72, 0
2, 12505320, Note_on_c, 0, 71, 100
2, 12505440, Note_on_c, 0, 71, 0
2, 12505440, Note_on_c, 0, 69, 100
2, 12505560, Note_on_c, 0, 69, 0
2, 12505560, Note_on_c, 0, 67, 100
2, 12505680, Note_on_c, 0, 67, 0
2, 12505680, Note_on_c, 0, 69, 100
2, 12506160, Note_on_c, 0, 69, 0
2, 12506160, Note_on_c, 0, 71, 100
2, 12506280, Note_on_c, 0, 71, 0
2, 12506280, Note_on_c, 0, 72, 100
2, 12506400, Note_on_c, 0, 72, 0
2, 12506400, Note_on_c, 0, 74, 100
2, 12506520, Note_on_c, 0, 74, 0
2, 12506520, Note_on_c, 0, 76, 100
2, 12506640, Note_on_c, 0, 76, 0
2, 12506640, Note_on_c, 0, 77, 100
2, 12506760, Note_on_c, 0, 77, 0
2, 12506760, Note_on_c, 0, 76, 100
2, 12506880, Note_on_c, 0, 76, 0
2, 12506880, Note_on_c, 0, 74, 100
2, 12507000, Note_on_c, 0, 74, 0
2, 12507000, Note_on_c, 0, 72, 100
2, 12507120, Note_on_c, 0, 72, 0
2, 12507120, Note_on_c, 0, 76, 100
2, 12507600, Note_on_c, 0, 76, 0
2, 12507600, Note_on_c, 0, 72, 100
2, 12507720, Note_on_c, 0, 72, 0
2, 12507720, Note_on_c, 0, 69, 100
2, 12507840, Note_on_c, 0, 69, 0
2, 12507840, Note_on_c, 0, 64, 100
2, 12507960, Note_on_c, 0, 64, 0
2, 12507960, Note_on_c, 0, 60, 100
2, 12508080, Note_on_c, 0, 60, 0
2, 12508080, Note_on_c, 0, 57, 100
2, 12508200, Note_on_c, 0, 57, 0
2, 12508200, Note_on_c, 0, 60, 100
2, 12508320, Note_on_c, 0, 60, 0
2, 12508320, Note_on_c, 0, 64, 100
2, 12508440, Note_on_c, 0, 64, 0
2, 12508440, Note_on_c, 0, 69, 100
2, 12508560, Note_on_c, 0, 69, 0
2, 12508560, Note_on_c, 0, 72, 100
2, 12508680, Note_on_c, 0, 72, 0
2, 12508680, Note_on_c, 0, 69, 100
2, 12508800, Note_on_c, 0, 69, 0
2, 12508800, Note_on_c, 0, 66, 100
2, 12508920, Note_on_c, 0, 66, 0
2, 12508920, Note_on_c, 0, 62, 100
2, 12509040, Note_on_c, 0, 62, 0
2, 12509040, Note_on_c, 0, 57, 100
2, 12509160, Note_on_c, 0, 57, 0
2, 12509160, Note_on_c, 0, 54, 100
2, 12509280, Note_on_c, 0, 54, 0
2, 12509280, Note_on_c, 0, 50, 100
2, 12509400, Note_on_c, 0, 50, 0
2, 12509400, Note_on_c, 0, 54, 100
2, 12509520, Note_on_c, 0, 54, 0
2, 12509520, Note_on_c, 0, 57, 100
2, 12509640, Note_on_c, 0, 57, 0
2, 12509640, Note_on_c, 0, 60, 100
2, 12509760, Note_on_c, 0, 60, 0
2, 12509760, Note_on_c, 0, 54, 100
2, 12509880, Note_on_c, 0, 54, 0
2, 12509880, Note_on_c, 0, 55, 100
2, 12510000, Note_on_c, 0, 55, 0
2, 12510000, Note_on_c, 0, 59, 100
2, 12510120, Note_on_c, 0, 59, 0
2, 12510120, Note_on_c, 0, 62, 100
2, 12510240, Note_on_c, 0, 62, 0
2, 12510240, Note_on_c, 0, 67, 100
2, 12510360, Note_on_c, 0, 67, 0
2, 12510360, Note_on_c, 0, 71, 100
2, 12510480, Note_on_c, 0, 71, 0
2, 12510480, Note_on_c, 0, 74, 100
2, 12510600, Note_on_c, 0, 74, 0
2, 12510600, Note_on_c, 0, 79, 100
2, 12510720, Note_on_c, 0, 79, 0
2, 12510720, Note_on_c, 0, 74, 100
2, 12510840, Note_on_c, 0, 74, 0
2, 12510840, Note_on_c, 0, 71, 100
2, 12510960, Note_on_c, 0, 71, 0
2, 12510960, Note_on_c, 0, 67, 100
2, 12511080, Note_on_c, 0, 67, 0
2, 12511080, Note_on_c, 0, 50, 100
2, 12511440, Note_on_c, 0, 50, 0
2, 12511440, Note_on_c, 0, 52, 100
2, 12511560, Note_on_c, 0, 52, 0
2, 12511560, Note_on_c, 0, 54, 100
2, 12511680, Note_on_c, 0, 54, 0
2, 12511680, Note_on_c, 0, 55, 100
2, 12511800, Note_on_c, 0, 55, 0
2, 12511800, Note_on_c, 0, 57, 100
2, 12511920, Note_on_c, 0, 57, 0
2, 12511920, Note_on_c, 0, 59, 100
2, 12512040, Note_on_c, 0, 59, 0
2, 12512040, Note_on_c, 0, 60, 100
2, 12512160, Note_on_c, 0, 60, 0
2, 12512160, Note_on_c, 0, 50, 100
2, 12512280, Note_on_c, 0, 50, 0
2, 12512280, Note_on_c, 0, 60, 100
2, 12512400, Note_on_c, 0, 60, 0
2, 12512400, Note_on_c, 0, 59, 100
2, 12512640, Note_on_c, 0, 59, 0
2, 12512640, Note_on_c, 0, 57, 100
2, 12512760, Note_on_c, 0, 57, 0
2, 12512760, Note_on_c, 0, 55, 100
2, 12512880, Note_on_c, 0, 55, 0
2, 12512880, Note_on_c, 0, 57, 100
2, 12513000, Note_on_c, 0, 57, 0
2, 12513000, Note_on_c, 0, 59, 100
2, 12513120, Note_on_c, 0, 59, 0
2, 12513120, Note_on_c, 0, 60, 100
2, 12513240, Note_on_c, 0, 60, 0
2, 12513240, Note_on_c, 0, 62, 100
2, 12513360, Note_on_c, 0, 62, 0
2, 12513360, Note_on_c, 0, 64, 100
2, 12513480, Note_on_c, 0, 64, 0
2, 12513480, Note_on_c, 0, 65, 100
2, 12513600, Note_on_c, 0, 65, 0
2, 12513600, Note_on_c, 0, 55, 100
2, 12513720, Note_on_c, 0, 55, 0
2, 12513720, Note_on_c, 0, 65, 100
2, 12513840, Note_on_c, 0, 65, 0
2, 12513840, Note_on_c, 0, 64, 100
2, 12514080, Note_on_c, 0, 64, 0
2, 12514080, Note_on_c, 0, 62, 100
2, 12514200, Note_on_c, 0, 62, 0
2, 12514200, Note_on_c, 0, 60, 100
2, 12514320, Note_on_c, 0, 60, 0
2, 12514320, Note_on_c, 0, 64, 100
2, 12514800, Note_on_c, 0, 64, 0
2, 12514800, Note_on_c, 0, 67, 100
2, 12514920, Note_on_c, 0, 67, 0
2, 12514920, Note_on_c, 0, 72, 100
2, 12515040, Note_on_c, 0, 72, 0
2, 12515040, Note_on_c, 0, 71, 100
2, 12515160, Note_on_c, 0, 71, 0
2, 12515160, Note_on_c, 0, 69, 100
2, 12515280, Note_on_c, 0, 69, 0
2, 12515280, Note_on_c, 0, 67, 100
2, 12515400, Note_on_c, 0, 67, 0
2, 12515400, Note_on_c, 0, 66, 100
2, 12515520, Note_on_c, 0, 66, 0
2, 12515520, Note_on_c, 0, 64, 100
2, 12515640, Note_on_c, 0, 64, 0
2, 12515640, Note_on_c, 0, 63, 100
2, 12515760, Note_on_c, 0, 63, 0
2, 12515760, Note_on_c, 0, 61, 100
2, 12515880, Note_on_c, 0, 61, 0
2, 12515880, Note_on_c, 0, 59, 100
2, 12516000, Note_on_c, 0, 59, 0
2, 12516000, Note_on_c, 0, 57, 100
2, 12516120, Note_on_c, 0, 57, 0
2, 12516120, Note_on_c, 0, 55, 100
2, 12516240, Note_on_c, 0, 55, 0
2, 12516240, Note_on_c, 0, 54, 100
2, 12516360, Note_on_c, 0, 54, 0
2, 12516360, Note_on_c, 0, 52, 100
2, 12516480, Note_on_c, 0, 52, 0
2, 12516480, Note_on_c, 0, 51, 100
2, 12516600, Note_on_c, 0, 51, 0
2, 12516600, Note_on_c, 0, 49, 100
2, 12516720, Note_on_c, 0, 49, 0
2, 12516720, Note_on_c, 0, 47, 100
2, 12516840, Note_on_c, 0, 47, 0
2, 12516840, Note_on_c, 0, 48, 100
2, 12516960, Note_on_c, 0, 48, 0
2, 12516960, Note_on_c, 0, 45, 100
2, 12517080, Note_on_c, 0, 45, 0
2, 12517080, Note_on_c, 0, 43, 100
2, 12517200, Note_on_c, 0, 43, 0
2, 12517200, Note_on_c, 0, 47, 100
2, 12517680, Note_on_c, 0, 47, 0
2, 12517680, Note_on_c, 0, 52, 100
2, 12517800, Note_on_c, 0, 52, 0
2, 12517800, Note_on_c, 0, 55, 100
2, 12517920, Note_on_c, 0, 55, 0
2, 12517920, Note_on_c, 0, 59, 100
2, 12518040, Note_on_c, 0, 59, 0
2, 12518040, Note_on_c, 0, 63, 100
2, 12518160, Note_on_c, 0, 63, 0
2, 12518160, Note_on_c, 0, 64, 100
2, 12518280, Note_on_c, 0, 64, 0
2, 12518280, Note_on_c, 0, 43, 100
2, 12518520, Note_on_c, 0, 43, 0
2, 12518520, Note_on_c, 0, 45, 100
2, 12518640, Note_on_c, 0, 45, 0
2, 12518640, Note_on_c, 0, 48, 100
2, 12519120, Note_on_c, 0, 48, 0
2, 12519120, Note_on_c, 0, 53, 100
2, 12519240, Note_on_c, 0, 53, 0
2, 12519240, Note_on_c, 0, 57, 100
2, 12519360, Note_on_c, 0, 57, 0
2, 12519360, Note_on_c, 0, 60, 100
2, 12519480, Note_on_c, 0, 60, 0
2, 12519480, Note_on_c, 0, 63, 100
2, 12519600, Note_on_c, 0, 63, 0
2, 12519600, Note_on_c, 0, 64, 100
2, 12519720, Note_on_c, 0, 64, 0
2, 12519720, Note_on_c, 0, 46, 100
2, 12519960, Note_on_c, 0, 46, 0
2, 12519960, Note_on_c, 0, 47, 100
2, 12520080, Note_on_c, 0, 47, 0
2, 12520080, Note_on_c, 0, 49, 100
2, 12520560, Note_on_c, 0, 49, 0
2, 12520560, Note_on_c, 0, 51, 100
2, 12520680, Note_on_c, 0, 51, 0
2, 12520680, Note_on_c, 0, 52, 100
2, 12520800, Note_on_c, 0, 52, 0
2, 12520800, Note_on_c, 0, 54, 100
2, 12520920, Note_on_c, 0, 54, 0
2, 12520920, Note_on_c, 0, 55, 100
2, 12521040, Note_on_c, 0, 55, 0
2, 12521040, Note_on_c, 0, 57, 100
2, 12521160, Note_on_c, 0, 57, 0
2, 12521160, Note_on_c, 0, 55, 100
2, 12521280, Note_on_c, 0, 55, 0
2, 12521280, Note_on_c, 0, 54, 100
2, 12521400, Note_on_c, 0, 54, 0
2, 12521400, Note_on_c, 0, 55, 100
2, 12521520, Note_on_c, 0, 55, 0
2, 12521520, Note_on_c, 0, 52, 100
2, 12521640, Note_on_c, 0, 52, 0
2, 12521640, Note_on_c, 0, 55, 100
2, 12521760, Note_on_c, 0, 55, 0
2, 12521760, Note_on_c, 0, 59, 100
2, 12521880, Note_on_c, 0, 59, 0
2, 12521880, Note_on_c, 0, 64, 100
2, 12522000, Note_on_c, 0, 64, 0
2, 12522000, Note_on_c, 0, 63, 100
2, 12522120, Note_on_c, 0, 63, 0
2, 12522120, Note_on_c, 0, 64, 100
2, 12522240, Note_on_c, 0, 64, 0
2, 12522240, Note_on_c, 0, 67, 100
2, 12522360, Note_on_c, 0, 67, 0
2, 12522360, Note_on_c, 0, 64, 100
2, 12522480, Note_on_c, 0, 64, 0
2, 12522480, Note_on_c, 0, 59, 100
2, 12522600, Note_on_c, 0, 59, 0
2, 12522600, Note_on_c, 0, 55, 100
2, 12522720, Note_on_c, 0, 55, 0
2, 12522720, Note_on_c, 0, 59, 100
2, 12522840, Note_on_c, 0, 59, 0
2, 12522840, Note_on_c, 0, 48, 100
2, 12522960, Note_on_c, 0, 48, 0
2, 12522960, Note_on_c, 0, 64, 100
2, 12523560, Note_on_c, 0, 64, 0
2, 12523560, Note_on_c, 0, 69, 100
2, 12523680, Note_on_c, 0, 69, 0
2, 12523680, Note_on_c, 0, 67, 100
2, 12523800, Note_on_c, 0, 67, 0
2, 12523800, Note_on_c, 0, 66, 100
2, 12523920, Note_on_c, 0, 66, 0
2, 12523920, Note_on_c, 0, 64, 100
2, 12524040, Note_on_c, 0, 64, 0
2, 12524040, Note_on_c, 0, 62, 100
2, 12524160, Note_on_c, 0, 62, 0
2, 12524160, Note_on_c, 0, 60, 100
2, 12524280, Note_on_c, 0, 60, 0
2, 12524280, Note_on_c, 0, 59, 100
2, 12524400, Note_on_c, 0, 59, 0
2, 12524400, Note_on_c, 0, 69, 100
2, 12525000, Note_on_c, 0, 69, 0
2, 12525000, Note_on_c, 0, 67, 100
2, 12525120, Note_on_c, 0, 67, 0
2, 12525120, Note_on_c, 0, 66, 100
2, 12525240, Note_on_c, 0, 66, 0
2, 12525240, Note_on_c, 0, 64, 100
2, 12525360, Note_on_c, 0, 64, 0
2, 12525360, Note_on_c, 0, 62, 100
2, 12525480, Note_on_c, 0, 62, 0
2, 12525480, Note_on_c, 0, 60, 100
2, 12525600, Note_on_c, 0, 60, 0
2, 12525600, Note_on_c, 0, 59, 100
2, 12525720, Note_on_c, 0, 59, 0
2, 12525720, Note_on_c, 0, 57, 100
2, 12525840, Note_on_c, 0, 57, 0
2, 12525840, Note_on_c, 0, 59, 100
2, 12526320, Note_on_c, 0, 59, 0
2, 12526320, Note_on_c, 0, 60, 100
2, 12526440, Note_on_c, 0, 60, 0
2, 12526440, Note_on_c, 0, 62, 100
2, 12526560, Note_on_c, 0, 62, 0
2, 12526560, Note_on_c, 0, 64, 100
2, 12526680, Note_on_c, 0, 64, 0
2, 12526680, Note_on_c, 0, 66, 100
2, 12526800, Note_on_c, 0, 66, 0
2, 12526800, Note_on_c, 0, 67, 100
2, 12526920, Note_on_c, 0, 67, 0
2, 12526920, Note_on_c, 0, 66, 100
2, 12527040, Note_on_c, 0, 66, 0
2, 12527040, Note_on_c, 0, 64, 100
2, 12527160, Note_on_c, 0, 64, 0
2, 12527160, Note_on_c, 0, 62, 100
2, 12527280, Note_on_c, 0, 62, 0
2, 12527280, Note_on_c, 0, 64, 100
2, 12527760, Note_on_c, 0, 64, 0
2, 12527760, Note_on_c, 0, 66, 100
2, 12527880, Note_on_c, 0, 66, 0
2, 12527880, Note_on_c, 0, 67, 100
2, 12528000, Note_on_c, 0, 67, 0
2, 12528000, Note_on_c, 0, 69, 100
2, 12528120, Note_on_c, 0, 69, 0
2, 12528120, Note_on_c, 0, 71, 100
2, 12528240, Note_on_c, 0, 71, 0
2, 12528240, Note_on_c, 0, 72, 100
2, 12528360, Note_on_c, 0, 72, 0
2, 12528360, Note_on_c, 0, 71, 100
2, 12528480, Note_on_c, 0, 71, 0
2, 12528480, Note_on_c, 0, 69, 100
2, 12528600, Note_on_c, 0, 69, 0
2, 12528600, Note_on_c, 0, 67, 100
2, 12528720, Note_on_c, 0, 67, 0
2, 12528720, Note_on_c, 0, 69, 100
2, 12529200, Note_on_c, 0, 69, 0
2, 12529200, Note_on_c, 0, 71, 100
2, 12529320, Note_on_c, 0, 71, 0
2, 12529320, Note_on_c, 0, 72, 100
2, 12529440, Note_on_c, 0, 72, 0
2, 12529440, Note_on_c, 0, 74, 100
2, 12529560, Note_on_c, 0, 74, 0
2, 12529560, Note_on_c, 0, 76, 100
2, 12529680, Note_on_c, 0, 76, 0
2, 12529680, Note_on_c, 0, 77, 100
2, 12529800, Note_on_c, 0, 77, 0
2, 12529800, Note_on_c, 0, 76, 100
2, 12529920, Note_on_c, 0, 76, 0
2, 12529920, Note_on_c, 0, 74, 100
2, 12530040, Note_on_c, 0, 74, 0
2, 12530040, Note_on_c, 0, 72, 100
2, 12530160, Note_on_c, 0, 72, 0
2, 12530160, Note_on_c, 0, 76, 100
2, 12530640, Note_on_c, 0, 76, 0
2, 12530640, Note_on_c, 0, 72, 100
2, 12530760, Note_on_c, 0, 72, 0
2, 12530760, Note_on_c, 0, 69, 100
2, 12530880, Note_on_c, 0, 69, 0
2, 12530880, Note_on_c, 0, 64, 100
2, 12531000, Note_on_c, 0, 64, 0
2, 12531000, Note_on_c, 0, 60, 100
2, 12531120, Note_on_c, 0, 60, 0
2, 12531120, Note_on_c, 0, 57, 100
2, 12531240, Note_on_c, 0, 57, 0
2, 12531240, Note_on_c, 0, 60, 100
2, 12531360, Note_on_c, 0, 60, 0
2, 12531360, Note_on_c, 0, 64, 100
2, 12531480, Note_on_c, 0, 64, 0
2, 12531480, Note_on_c, 0, 69, 100
2, 12531600, Note_on_c, 0, 69, 0
2, 12531600, Note_on_c, 0, 72, 100
2, 12531720, Note_on_c, 0, 72, 0
2, 12531720, Note_on_c, 0, 69, 100
2, 12531840, Note_on_c, 0, 69, 0
2, 12531840, Note_on_c, 0, 66, 100
2, 12531960, Note_on_c, 0, 66, 0
2, 12531960, Note_on_c, 0, 62, 100
2, 12532080, Note_on_c, 0, 62, 0
2, 12532080, Note_on_c, 0, 57, 100
2, 12532200, Note_on_c, 0, 57, 0
2, 12532200, Note_on_c, 0, 54, 100
2, 12532320, Note_on_c, 0, 54, 0
2, 12532320, Note_on_c, 0, 50, 100
2, 12532440, Note_on_c, 0, 50, 0
2, 12532440, Note_on_c, 0, 54, 100
2, 12532560, Note_on_c, 0, 54, 0
2, 12532560, Note_on_c, 0, 57, 100
2, 12532680, Note_on_c, 0, 57, 0
2, 12532680, Note_on_c, 0, 60, 100
2, 12532800, Note_on_c, 0, 60, 0
2, 12532800, Note_on_c, 0, 54, 100
2, 12532920, Note_on_c, 0, 54, 0
2, 12532920, Note_on_c, 0, 55, 100
2, 12533040, Note_on_c, 0, 55, 0
2, 12533040, Note_on_c, 0, 59, 100
2, 12533160, Note_on_c, 0, 59, 0
2, 12533160, Note_on_c, 0, 62, 100
2, 12533280, Note_on_c, 0, 62, 0
2, 12533280, Note_on_c, 0, 67, 100
2, 12533400, Note_on_c, 0, 67, 0
2, 12533400, Note_on_c, 0, 71, 100
2, 12533520, Note_on_c, 0, 71, 0
2, 12533520, Note_on_c, 0, 74, 100
2, 12533640, Note_on_c, 0, 74, 0
2, 12533640, Note_on_c, 0, 79, 100
2, 12533760, Note_on_c, 0, 79, 0
2, 12533760, Note_on_c, 0, 74, 100
2, 12533880, Note_on_c, 0, 74, 0
2, 12533880, Note_on_c, 0, 71, 100
2, 12534000, Note_on_c, 0, 71, 0
2, 12534000, Note_on_c, 0, 67, 100
2, 12534120, Note_on_c, 0, 67, 0
2, 12534120, Note_on_c, 0, 59, 100
2, 12718800, Note_on_c, 0, 59, 0
2, 12718800, Note_on_c, 0, 55, 100
2, 12718920, Note_on_c, 0, 55, 0
2, 12718920, Note_on_c, 0, 50, 100
2, 12719040, Note_on_c, 0, 50, 0
2, 12719040, Note_on_c, 0, 55, 100
2, 12719160, Note_on_c, 0, 55, 0
2, 12719160, Note_on_c, 0, 59, 100
2, 12719280, Note_on_c, 0, 59, 0
2, 12719280, Note_on_c, 0, 55, 100
2, 12719400, Note_on_c, 0, 55, 0
2, 12719400, Note_on_c, 0, 62, 100
2, 12719520, Note_on_c, 0, 62, 0
2, 12719520, Note_on_c, 0, 59, 100
2, 12719640, Note_on_c, 0, 59, 0
2, 12719640, Note_on_c, 0, 55, 100
2, 12719760, Note_on_c, 0, 55, 0
2, 12719760, Note_on_c, 0, 59, 100
2, 12719880, Note_on_c, 0, 59, 0
2, 12719880, Note_on_c, 0, 57, 100
2, 12720000, Note_on_c, 0, 57, 0
2, 12720000, Note_on_c, 0, 55, 100
2, 12720120, Note_on_c, 0, 55, 0
2, 12720120, Note_on_c, 0, 62, 100
2, 12720240, Note_on_c, 0, 62, 0
2, 12720240, Note_on_c, 0, 57, 100
2, 12720360, Note_on_c, 0, 57, 0
2, 12720360, Note_on_c, 0, 54, 100
2, 12720480, Note_on_c, 0, 54, 0
2, 12720480, Note_on_c, 0, 57, 100
2, 12720600, Note_on_c, 0, 57, 0
2, 12720600, Note_on_c, 0, 62, 100
2, 12720720, Note_on_c, 0, 62, 0
2, 12720720, Note_on_c, 0, 57, 100
2, 12720840, Note_on_c, 0, 57, 0
2, 12720840, Note_on_c, 0, 69, 100
2, 12720960, Note_on_c, 0, 69, 0
2, 12720960, Note_on_c, 0, 66, 100
2, 12721080, Note_on_c, 0, 66, 0
2, 12721080, Note_on_c, 0, 62, 100
2, 12721200, Note_on_c, 0, 62, 0
2, 12721200, Note_on_c, 0, 66, 100
2, 12721320, Note_on_c, 0, 66, 0
2, 12721320, Note_on_c, 0, 64, 100
2, 12721440, Note_on_c, 0, 64, 0
2, 12721440, Note_on_c, 0, 62, 100
2, 12721560, Note_on_c, 0, 62, 0
2, 12721560, Note_on_c, 0, 67, 100
2, 12721680, Note_on_c, 0, 67, 0
2, 12721680, Note_on_c, 0, 64, 100
2, 12721800, Note_on_c, 0, 64, 0
2, 12721800, Note_on_c, 0, 59, 100
2, 12721920, Note_on_c, 0, 59, 0
2, 12721920, Note_on_c, 0, 64, 100
2, 12722040, Note_on_c, 0, 64, 0
2, 12722040, Note_on_c, 0, 67, 100
2, 12722160, Note_on_c, 0, 67, 0
2, 12722160, Note_on_c, 0, 64, 100
2, 12722280, Note_on_c, 0, 64, 0
2, 12722280, Note_on_c, 0, 71, 100
2, 12722400, Note_on_c, 0, 71, 0
2, 12722400, Note_on_c, 0, 67, 100
2, 12722520, Note_on_c, 0, 67, 0
2, 12722520, Note_on_c, 0, 64, 100
2, 12722640, Note_on_c, 0, 64, 0
2, 12722640, Note_on_c, 0, 71, 100
2, 12722760, Note_on_c, 0, 71, 0
2, 12722760, Note_on_c, 0, 69, 100
2, 12722880, Note_on_c, 0, 69, 0
2, 12722880, Note_on_c, 0, 67, 100
2, 12723000, Note_on_c, 0, 67, 0
2, 12723000, Note_on_c, 0, 74, 100
2, 12723120, Note_on_c, 0, 74, 0
2, 12723120, Note_on_c, 0, 69, 100
2, 12723240, Note_on_c, 0, 69, 0
2, 12723240, Note_on_c, 0, 66, 100
2, 12723360, Note_on_c, 0, 66, 0
2, 12723360, Note_on_c, 0, 69, 100
2, 12723480, Note_on_c, 0, 69, 0
2, 12723480, Note_on_c, 0, 74, 100
2, 12723600, Note_on_c, 0, 74, 0
2, 12723600, Note_on_c, 0, 69, 100
2, 12723720, Note_on_c, 0, 69, 0
2, 12723720, Note_on_c, 0, 81, 100
2, 12723840, Note_on_c, 0, 81, 0
2, 12723840, Note_on_c, 0, 78, 100
2, 12723960, Note_on_c, 0, 78, 0
2, 12723960, Note_on_c, 0, 74, 100
2, 12724080, Note_on_c, 0, 74, 0
2, 12724080, Note_on_c, 0, 78, 100
2, 12724200, Note_on_c, 0, 78, 0
2, 12724200, Note_on_c, 0, 76, 100
2, 12724320, Note_on_c, 0, 76, 0
2, 12724320, Note_on_c, 0, 74, 100
2, 12724440, Note_on_c, 0, 74, 0
2, 12724440, Note_on_c, 0, 79, 100
2, 12724560, Note_on_c, 0, 79, 0
2, 12724560, Note_on_c, 0, 74, 100
2, 12724680, Note_on_c, 0, 74, 0
2, 12724680, Note_on_c, 0, 71, 100
2, 12724800, Note_on_c, 0, 71, 0
2, 12724800, Note_on_c, 0, 74, 100
2, 12724920, Note_on_c, 0, 74, 0
2, 12724920, Note_on_c, 0, 79, 100
2, 12725040, Note_on_c, 0, 79, 0
2, 12725040, Note_on_c, 0, 74, 100
2, 12725160, Note_on_c, 0, 74, 0
2, 12725160, Note_on_c, 0, 83, 100
2, 12725280, Note_on_c, 0, 83, 0
2, 12725280, Note_on_c, 0, 79, 100
2, 12725400, Note_on_c, 0, 79, 0
2, 12725400, Note_on_c, 0, 74, 100
2, 12725520, Note_on_c, 0, 74, 0
2, 12725520, Note_on_c, 0, 77, 100
2, 12725640, Note_on_c, 0, 77, 0
2, 12725640, Note_on_c, 0, 76, 100
2, 12725760, Note_on_c, 0, 76, 0
2, 12725760, Note_on_c, 0, 74, 100
2, 12725880, Note_on_c, 0, 74, 0
2, 12725880, Note_on_c, 0, 76, 100
2, 12726000, Note_on_c, 0, 76, 0
2, 12726000, Note_on_c, 0, 72, 100
2, 12726120, Note_on_c, 0, 72, 0
2, 12726120, Note_on_c, 0, 67, 100
2, 12726240, Note_on_c, 0, 67, 0
2, 12726240, Note_on_c, 0, 72, 100
2, 12726360, Note_on_c, 0, 72, 0
2, 12726360, Note_on_c, 0, 76, 100
2, 12726480, Note_on_c, 0, 76, 0
2, 12726480, Note_on_c, 0, 72, 100
2, 12726600, Note_on_c, 0, 72, 0
2, 12726600, Note_on_c, 0, 79, 100
2, 12726720, Note_on_c, 0, 79, 0
2, 12726720, Note_on_c, 0, 76, 100
2, 12726840, Note_on_c, 0, 76, 0
2, 12726840, Note_on_c, 0, 72, 100
2, 12726960, Note_on_c, 0, 72, 0
2, 12726960, Note_on_c, 0, 74, 100
2, 12727080, Note_on_c, 0, 74, 0
2, 12727080, Note_on_c, 0, 72, 100
2, 12727200, Note_on_c, 0, 72, 0
2, 12727200, Note_on_c, 0, 71, 100
2, 12727320, Note_on_c, 0, 71, 0
2, 12727320, Note_on_c, 0, 69, 100
2, 12727440, Note_on_c, 0, 69, 0
2, 12727440, Note_on_c, 0, 66, 100
2, 12727560, Note_on_c, 0, 66, 0
2, 12727560, Note_on_c, 0, 62, 100
2, 12727680, Note_on_c, 0, 62, 0
2, 12727680, Note_on_c, 0, 66, 100
2, 12727800, Note_on_c, 0, 66, 0
2, 12727800, Note_on_c, 0, 69, 100
2, 12727920, Note_on_c, 0, 69, 0
2, 12727920, Note_on_c, 0, 66, 100
2, 12728040, Note_on_c, 0, 66, 0
2, 12728040, Note_on_c, 0, 74, 100
2, 12728160, Note_on_c, 0, 74, 0
2, 12728160, Note_on_c, 0, 69, 100
2, 12728280, Note_on_c, 0, 69, 0
2, 12728280, Note_on_c, 0, 66, 100
2, 12728400, Note_on_c, 0, 66, 0
2, 12728400, Note_on_c, 0, 69, 100
2, 12728520, Note_on_c, 0, 69, 0
2, 12728520, Note_on_c, 0, 67, 100
2, 12728640, Note_on_c, 0, 67, 0
2, 12728640, Note_on_c, 0, 66, 100
2, 12728760, Note_on_c, 0, 66, 0
2, 12728760, Note_on_c, 0, 67, 100
2, 12728880, Note_on_c, 0, 67, 0
2, 12728880, Note_on_c, 0, 62, 100
2, 12729000, Note_on_c, 0, 62, 0
2, 12729000, Note_on_c, 0, 59, 100
2, 12729120, Note_on_c, 0, 59, 0
2, 12729120, Note_on_c, 0, 62, 100
2, 12729240, Note_on_c, 0, 62, 0
2, 12729240, Note_on_c, 0, 67, 100
2, 12729360, Note_on_c, 0, 67, 0
2, 12729360, Note_on_c, 0, 62, 100
2, 12729480, Note_on_c, 0, 62, 0
2, 12729480, Note_on_c, 0, 71, 100
2, 12729600, Note_on_c, 0, 71, 0
2, 12729600, Note_on_c, 0, 67, 100
2, 12729720, Note_on_c, 0, 67, 0
2, 12729720, Note_on_c, 0, 74, 100
2, 12729840, Note_on_c, 0, 74, 0
2, 12729840, Note_on_c, 0, 72, 100
2, 12729960, Note_on_c, 0, 72, 0
2, 12729960, Note_on_c, 0, 71, 100
2, 12730080, Note_on_c, 0, 71, 0
2, 12730080, Note_on_c, 0, 69, 100
2, 12730200, Note_on_c, 0, 69, 0
2, 12730200, Note_on_c, 0, 67, 100
2, 12730320, Note_on_c, 0, 67, 0
2, 12730320, Note_on_c, 0, 79, 100
2, 12730680, Note_on_c, 0, 79, 0
2, 12730680, Note_on_c, 0, 78, 100
2, 12730740, Note_on_c, 0, 78, 0
2, 12730740, Note_on_c, 0, 79, 100
2, 12730800, Note_on_c, 0, 79, 0
2, 12730800, Note_on_c, 0, 73, 100
2, 12731160, Note_on_c, 0, 73, 0
2, 12731160, Note_on_c, 0, 71, 100
2, 12731220, Note_on_c, 0, 71, 0
2, 12731220, Note_on_c, 0, 73, 100
2, 12731280, Note_on_c, 0, 73, 0
2, 12731280, Note_on_c, 0, 66, 100
2, 12731640, Note_on_c, 0, 66, 0
2, 12731640, Note_on_c, 0, 64, 100
2, 12731700, Note_on_c, 0, 64, 0
2, 12731700, Note_on_c, 0, 66, 100
2, 12731760, Note_on_c, 0, 66, 0
2, 12731760, Note_on_c, 0, 78, 100
2, 12732120, Note_on_c, 0, 78, 0
2, 12732120, Note_on_c, 0, 76, 100
2, 12732180, Note_on_c, 0, 76, 0
2, 12732180, Note_on_c, 0, 78, 100
2, 12732240, Note_on_c, 0, 78, 0
2, 12732240, Note_on_c, 0, 71, 100
2, 12732600, Note_on_c, 0, 71, 0
2, 12732600, Note_on_c, 0, 69, 100
2, 12732660, Note_on_c, 0, 69, 0
2, 12732660, Note_on_c, 0, 71, 100
2, 12732720, Note_on_c, 0, 71, 0
2, 12732720, Note_on_c, 0, 64, 100
2, 12733080, Note_on_c, 0, 64, 0
2, 12733080, Note_on_c, 0, 62, 100
2, 12733140, Note_on_c, 0, 62, 0
2, 12733140, Note_on_c, 0, 64, 100
2, 12733200, Note_on_c, 0, 64, 0
2, 12733200, Note_on_c, 0, 76, 100
2, 12733560, Note_on_c, 0, 76, 0
2, 12733560, Note_on_c, 0, 74, 100
2, 12733620, Note_on_c, 0, 74, 0
2, 12733620, Note_on_c, 0, 76, 100
2, 12733680, Note_on_c, 0, 76, 0
2, 12733680, Note_on_c, 0, 67, 100
2, 12734040, Note_on_c, 0, 67, 0
2, 12734040, Note_on_c, 0, 66, 100
2, 12734100, Note_on_c, 0, 66, 0
2, 12734100, Note_on_c, 0, 67, 100
2, 12734160, Note_on_c, 0, 67, 0
2, 12734160, Note_on_c, 0, 61, 100
2, 12734520, Note_on_c, 0, 61, 0
2, 12734520, Note_on_c, 0, 59, 100
2, 12734580, Note_on_c, 0, 59, 0
2, 12734580, Note_on_c, 0, 61, 100
2, 12734640, Note_on_c, 0, 61, 0
2, 12734640, Note_on_c, 0, 52, 100
2, 12735000, Note_on_c, 0, 52, 0
2, 12735000, Note_on_c, 0, 50, 100
2, 12735060, Note_on_c, 0, 50, 0
2, 12735060, Note_on_c, 0, 52, 100
2, 12735120, Note_on_c, 0, 52, 0
2, 12735120, Note_on_c, 0, 45, 100
2, 12735480, Note_on_c, 0, 45, 0
2, 12735480, Note_on_c, 0, 43, 100
2, 12735540, Note_on_c, 0, 43, 0
2, 12735540, Note_on_c, 0, 45, 100
2, 12735600, Note_on_c, 0, 45, 0
2, 12735600, Note_on_c, 0, 42, 100
2, 12735960, Note_on_c, 0, 42, 0
2, 12735960, Note_on_c, 0, 40, 100
2, 12736020, Note_on_c, 0, 40, 0
2, 12736020, Note_on_c, 0, 42, 100
2, 12736080, Note_on_c, 0, 42, 0
2, 12736080, Note_on_c, 0, 74, 100
2, 12736560, Note_on_c, 0, 74, 0
2, 12736560, Note_on_c, 0, 72, 100
2, 12737040, Note_on_c, 0, 72, 0
2, 12737040, Note_on_c, 0, 55, 100
2, 12737580, Note_on_c, 0, 55, 0
2, 12737580, Note_on_c, 0, 57, 100
2, 12737640, Note_on_c, 0, 57, 0
2, 12737640, Note_on_c, 0, 59, 100
2, 12737700, Note_on_c, 0, 59, 0
2, 12737700, Note_on_c, 0, 62, 100
2, 12737760, Note_on_c, 0, 62, 0
2, 12737760, Note_on_c, 0, 59, 100
2, 12737820, Note_on_c, 0, 59, 0
2, 12737820, Note_on_c, 0, 57, 100
2, 12737880, Note_on_c, 0, 57, 0
2, 12737880, Note_on_c, 0, 55, 100
2, 12738060, Note_on_c, 0, 55, 0
2, 12738060, Note_on_c, 0, 57, 100
2, 12738120, Note_on_c, 0, 57, 0
2, 12738120, Note_on_c, 0, 58, 100
2, 12738180, Note_on_c, 0, 58, 0
2, 12738180, Note_on_c, 0, 62, 100
2, 12738240, Note_on_c, 0, 62, 0
2, 12738240, Note_on_c, 0, 58, 100
2, 12738300, Note_on_c, 0, 58, 0
2, 12738300, Note_on_c, 0, 57, 100
2, 12738360, Note_on_c, 0, 57, 0
2, 12738360, Note_on_c, 0, 55, 100
2, 12738420, Note_on_c, 0, 55, 0
2, 12738420, Note_on_c, 0, 56, 100
2, 12738540, Note_on_c, 0, 56, 0
2, 12738540, Note_on_c, 0, 57, 100
2, 12738600, Note_on_c, 0, 57, 0
2, 12738600, Note_on_c, 0, 59, 100
2, 12738660, Note_on_c, 0, 59, 0
2, 12738660, Note_on_c, 0, 62, 100
2, 12738720, Note_on_c, 0, 62, 0
2, 12738720, Note_on_c, 0, 59, 100
2, 12738780, Note_on_c, 0, 59, 0
2, 12738780, Note_on_c, 0, 57, 100
2, 12738840, Note_on_c, 0, 57, 0
2, 12738840, Note_on_c, 0, 56, 100
2, 12738900, Note_on_c, 0, 56, 0
2, 12738900, Note_on_c, 0, 57, 100
2, 12738960, Note_on_c, 0, 57, 0
2, 12738960, Note_on_c, 0, 61, 100
2, 12739080, Note_on_c, 0, 61, 0
2, 12739080, Note_on_c, 0, 59, 100
2, 12739140, Note_on_c, 0, 59, 0
2, 12739140, Note_on_c, 0, 61, 100
2, 12739200, Note_on_c, 0, 61, 0
2, 12739200, Note_on_c, 0, 54, 100
2, 12739320, Note_on_c, 0, 54, 0
2, 12739320, Note_on_c, 0, 52, 100
2, 12739380, Note_on_c, 0, 52, 0
2, 12739380, Note_on_c, 0, 54, 100
2, 12739440, Note_on_c, 0, 54, 0
2, 12739440, Note_on_c, 0, 59, 100
2, 12739560, Note_on_c, 0, 59, 0
2, 12739560, Note_on_c, 0, 57, 100
2, 12739620, Note_on_c, 0, 57, 0
2, 12739620, Note_on_c, 0, 59, 100
2, 12739680, Note_on_c, 0, 59, 0
2, 12739680, Note_on_c, 0, 52, 100
2, 12739800, Note_on_c, 0, 52, 0
2, 12739800, Note_on_c, 0, 50, 100
2, 12739860, Note_on_c, 0, 50, 0
2, 12739860, Note_on_c, 0, 52, 100
2, 12739920, Note_on_c, 0, 52, 0
2, 12739920, Note_on_c, 0, 57, 100
2, 12740040, Note_on_c, 0, 57, 0
2, 12740040, Note_on_c, 0, 55, 100
2, 12740100, Note_on_c, 0, 55, 0
2, 12740100, Note_on_c, 0, 57, 100
2, 12740160, Note_on_c, 0, 57, 0
2, 12740160, Note_on_c, 0, 50, 100
2, 12740280, Note_on_c, 0, 50, 0
2, 12740280, Note_on_c, 0, 49, 100
2, 12740340, Note_on_c, 0, 49, 0
2, 12740340, Note_on_c, 0, 50, 100
2, 12740400, Note_on_c, 0, 50, 0
2, 12740400, Note_on_c, 0, 52, 100
2, 12740460, Note_on_c, 0, 52, 0
2, 12740460, Note_on_c, 0, 54, 100
2, 12740520, Note_on_c, 0, 54, 0
2, 12740520, Note_on_c, 0, 55, 100
2, 12740580, Note_on_c, 0, 55, 0
2, 12740580, Note_on_c, 0, 57, 100
2, 12740640, Note_on_c, 0, 57, 0
2, 12740640, Note_on_c, 0, 55, 100
2, 12740700, Note_on_c, 0, 55, 0
2, 12740700, Note_on_c, 0, 54, 100
2, 12740760, Note_on_c, 0, 54, 0
2, 12740760, Note_on_c, 0, 52, 100
2, 12740820, Note_on_c, 0, 52, 0
2, 12740820, Note_on_c, 0, 50, 100
2, 12740880, Note_on_c, 0, 50, 0
2, 12740880, Note_on_c, 0, 54, 100
2, 12741000, Note_on_c, 0, 54, 0
2, 12741000, Note_on_c, 0, 45, 100
2, 12741120, Note_on_c, 0, 45, 0
2, 12741120, Note_on_c, 0, 50, 100
2, 12741240, Note_on_c, 0, 50, 0
2, 12741240, Note_on_c, 0, 38, 100
2, 12741360, Note_on_c, 0, 38, 0
2, 12741360, Note_on_c, 0, 59, 100
2, 12741840, Note_on_c, 0, 59, 0
2, 12741840, Note_on_c, 0, 55, 100
2, 12741960, Note_on_c, 0, 55, 0
2, 12741960, Note_on_c, 0, 50, 100
2, 12742080, Note_on_c, 0, 50, 0
2, 12742080, Note_on_c, 0, 55, 100
2, 12742200, Note_on_c, 0, 55, 0
2, 12742200, Note_on_c, 0, 59, 100
2, 12742320, Note_on_c, 0, 59, 0
2, 12742320, Note_on_c, 0, 55, 100
2, 12742440, Note_on_c, 0, 55, 0
2, 12742440, Note_on_c, 0, 62, 100
2, 12742560, Note_on_c, 0, 62, 0
2, 12742560, Note_on_c, 0, 59, 100
2, 12742680, Note_on_c, 0, 59, 0
2, 12742680, Note_on_c, 0, 55, 100
2, 12742800, Note_on_c, 0, 55, 0
2, 12742800, Note_on_c, 0, 59, 100
2, 12742920, Note_on_c, 0, 59, 0
2, 12742920, Note_on_c, 0, 57, 100
2, 12743040, Note_on_c, 0, 57, 0
2, 12743040, Note_on_c, 0, 55, 100
2, 12743160, Note_on_c, 0, 55, 0
2, 12743160, Note_on_c, 0, 62, 100
2, 12743280, Note_on_c, 0, 62, 0
2, 12743280, Note_on_c, 0, 57, 100
2, 12743400, Note_on_c, 0, 57, 0
2, 12743400, Note_on_c, 0, 54, 100
2, 12743520, Note_on_c, 0, 54, 0
2, 12743520, Note_on_c, 0, 57, 100
2, 12743640, Note_on_c, 0, 57, 0
2, 12743640, Note_on_c, 0, 62, 100
2, 12743760, Note_on_c, 0, 62, 0
2, 12743760, Note_on_c, 0, 57, 100
2, 12743880, Note_on_c, 0, 57, 0
2, 12743880, Note_on_c, 0, 69, 100
2, 12744000, Note_on_c, 0, 69, 0
2, 12744000, Note_on_c, 0, 66, 100
2, 12744120, Note_on_c, 0, 66, 0
2, 12744120, Note_on_c, 0, 62, 100
2, 12744240, Note_on_c, 0, 62, 0
2, 12744240, Note_on_c, 0, 66, 100
2, 12744360, Note_on_c, 0, 66, 0
2, 12744360, Note_on_c, 0, 64, 100
2, 12744480, Note_on_c, 0, 64, 0
2, 12744480, Note_on_c, 0, 62, 100
2, 12744600, Note_on_c, 0, 62, 0
2, 12744600, Note_on_c, 0, 67, 100
2, 12744720, Note_on_c, 0, 67, 0
2, 12744720, Note_on_c, 0, 64, 100
2, 12744840, Note_on_c, 0, 64, 0
2, 12744840, Note_on_c, 0, 59, 100
2, 12744960, Note_on_c, 0, 59, 0
2, 12744960, Note_on_c, 0, 64, 100
2, 12745080, Note_on_c, 0, 64, 0
2, 12745080, Note_on_c, 0, 67, 100
2, 12745200, Note_on_c, 0, 67, 0
2, 12745200, Note_on_c, 0, 64, 100
2, 12745320, Note_on_c, 0, 64, 0
2, 12745320, Note_on_c, 0, 71, 100
2, 12745440, Note_on_c, 0, 71, 0
2, 12745440, Note_on_c, 0, 67, 100
2, 12745560, Note_on_c, 0, 67, 0
2, 12745560, Note_on_c, 0, 64, 100
2, 12745680, Note_on_c, 0, 64, 0
2, 12745680, Note_on_c, 0, 71, 100
2, 12745800, Note_on_c, 0, 71, 0
2, 12745800, Note_on_c, 0, 69, 100
2, 12745920, Note_on_c, 0, 69, 0
2, 12745920, Note_on_c, 0, 67, 100
2, 12746040, Note_on_c, 0, 67, 0
2, 12746040, Note_on_c, 0, 74, 100
2, 12746160, Note_on_c, 0, 74, 0
2, 12746160, Note_on_c, 0, 69, 100
2, 12746280, Note_on_c, 0, 69, 0
2, 12746280, Note_on_c, 0, 66, 100
2, 12746400, Note_on_c, 0, 66, 0
2, 12746400, Note_on_c, 0, 69, 100
2, 12746520, Note_on_c, 0, 69, 0
2, 12746520, Note_on_c, 0, 74, 100
2, 12746640, Note_on_c, 0, 74, 0
2, 12746640, Note_on_c, 0, 69, 100
2, 12746760, Note_on_c, 0, 69, 0
2, 12746760, Note_on_c, 0, 81, 100
2, 12746880, Note_on_c, 0, 81, 0
2, 12746880, Note_on_c, 0, 78, 100
2, 12747000, Note_on_c, 0, 78, 0
2, 12747000, Note_on_c, 0, 74, 100
2, 12747120, Note_on_c, 0, 74, 0
2, 12747120, Note_on_c, 0, 78, 100
2, 12747240, Note_on_c, 0, 78, 0
2, 12747240, Note_on_c, 0, 76, 100
2, 12747360, Note_on_c, 0, 76, 0
2, 12747360, Note_on_c, 0, 74, 100
2, 12747480, Note_on_c, 0, 74, 0
2, 12747480, Note_on_c, 0, 79, 100
2, 12747600, Note_on_c, 0, 79, 0
2, 12747600, Note_on_c, 0, 74, 100
2, 12747720, Note_on_c, 0, 74, 0
2, 12747720, Note_on_c, 0, 71, 100
2, 12747840, Note_on_c, 0, 71, 0
2, 12747840, Note_on_c, 0, 74, 100
2, 12747960, Note_on_c, 0, 74, 0
2, 12747960, Note_on_c, 0, 79, 100
2, 12748080, Note_on_c, 0, 79, 0
2, 12748080, Note_on_c, 0, 74, 100
2, 12748200, Note_on_c, 0, 74, 0
2, 12748200, Note_on_c, 0, 83, 100
2, 12748320, Note_on_c, 0, 83, 0
2, 12748320, Note_on_c, 0, 79, 100
2, 12748440, Note_on_c, 0, 79, 0
2, 12748440, Note_on_c, 0, 74, 100
2, 12748560, Note_on_c, 0, 74, 0
2, 12748560, Note_on_c, 0, 77, 100
2, 12748680, Note_on_c, 0, 77, 0
2, 12748680, Note_on_c, 0, 76, 100
2, 12748800, Note_on_c, 0, 76, 0
2, 12748800, Note_on_c, 0, 74, 100
2, 12748920, Note_on_c, 0, 74, 0
2, 12748920, Note_on_c, 0, 76, 100
2, 12749040, Note_on_c, 0, 76, 0
2, 12749040, Note_on_c, 0, 72, 100
2, 12749160, Note_on_c, 0, 72, 0
2, 12749160, Note_on_c, 0, 67, 100
2, 12749280, Note_on_c, 0, 67, 0
2, 12749280, Note_on_c, 0, 72, 100
2, 12749400, Note_on_c, 0, 72, 0
2, 12749400, Note_on_c, 0, 76, 100
2, 12749520, Note_on_c, 0, 76, 0
2, 12749520, Note_on_c, 0, 72, 100
2, 12749640, Note_on_c, 0, 72, 0
2, 12749640, Note_on_c, 0, 79, 100
2, 12749760, Note_on_c, 0, 79, 0
2, 12749760, Note_on_c, 0, 76, 100
2, 12749880, Note_on_c, 0, 76, 0
2, 12749880, Note_on_c, 0, 72, 100
2, 12750000, Note_on_c, 0, 72, 0
2, 12750000, Note_on_c, 0, 74, 100
2, 12750120, Note_on_c, 0, 74, 0
2, 12750120, Note_on_c, 0, 72, 100
2, 12750240, Note_on_c, 0, 72, 0
2, 12750240, Note_on_c, 0, 71, 100
2, 12750360, Note_on_c, 0, 71, 0
2, 12750360, Note_on_c, 0, 69, 100
2, 12750480, Note_on_c, 0, 69, 0
2, 12750480, Note_on_c, 0, 66, 100
2, 12750600, Note_on_c, 0, 66, 0
2, 12750600, Note_on_c, 0, 62, 100
2, 12750720, Note_on_c, 0, 62, 0
2, 12750720, Note_on_c, 0, 66, 100
2, 12750840, Note_on_c, 0, 66, 0
2, 12750840, Note_on_c, 0, 69, 100
2, 12750960, Note_on_c, 0, 69, 0
2, 12750960, Note_on_c, 0, 66, 100
2, 12751080, Note_on_c, 0, 66, 0
2, 12751080, Note_on_c, 0, 74, 100
2, 12751200, Note_on_c, 0, 74, 0
2, 12751200, Note_on_c, 0, 69, 100
2, 12751320, Note_on_c, 0, 69, 0
2, 12751320, Note_on_c, 0, 66, 100
2, 12751440, Note_on_c, 0, 66, 0
2, 12751440, Note_on_c, 0, 69, 100
2, 12751560, Note_on_c, 0, 69, 0
2, 12751560, Note_on_c, 0, 67, 100
2, 12751680, Note_on_c, 0, 67, 0
2, 12751680, Note_on_c, 0, 66, 100
2, 12751800, Note_on_c, 0, 66, 0
2, 12751800, Note_on_c, 0, 67, 100
2, 12751920, Note_on_c, 0, 67, 0
2, 12751920, Note_on_c, 0, 62, 100
2, 12752040, Note_on_c, 0, 62, 0
2, 12752040, Note_on_c, 0, 59, 100
2, 12752160, Note_on_c, 0, 59, 0
2, 12752160, Note_on_c, 0, 62, 100
2, 12752280, Note_on_c, 0, 62, 0
2, 12752280, Note_on_c, 0, 67, 100
2, 12752400, Note_on_c, 0, 67, 0
2, 12752400, Note_on_c, 0, 62, 100
2, 12752520, Note_on_c, 0, 62, 0
2, 12752520, Note_on_c, 0, 71, 100
2, 12752640, Note_on_c, 0, 71, 0
2, 12752640, Note_on_c, 0, 67, 100
2, 12752760, Note_on_c, 0, 67, 0
2, 12752760, Note_on_c, 0, 74, 100
2, 12752880, Note_on_c, 0, 74, 0
2, 12752880, Note_on_c, 0, 72, 100
2, 12753000, Note_on_c, 0, 72, 0
2, 12753000, Note_on_c, 0, 71, 100
2, 12753120, Note_on_c, 0, 71, 0
2, 12753120, Note_on_c, 0, 69, 100
2, 12753240, Note_on_c, 0, 69, 0
2, 12753240, Note_on_c, 0, 67, 100
2, 12753360, Note_on_c, 0, 67, 0
2, 12753360, Note_on_c, 0, 79, 100
2, 12753720, Note_on_c, 0, 79, 0
2, 12753720, Note_on_c, 0, 78, 100
2, 12753780, Note_on_c, 0, 78, 0
2, 12753780, Note_on_c, 0, 79, 100
2, 12753840, Note_on_c, 0, 79, 0
2, 12753840, Note_on_c, 0, 73, 100
2, 12754200, Note_on_c, 0, 73, 0
2, 12754200, Note_on_c, 0, 71, 100
2, 12754260, Note_on_c, 0, 71, 0
2, 12754260, Note_on_c, 0, 73, 100
2, 12754320, Note_on_c, 0, 73, 0
2, 12754320, Note_on_c, 0, 66, 100
2, 12754680, Note_on_c, 0, 66, 0
2, 12754680, Note_on_c, 0, 64, 100
2, 12754740, Note_on_c, 0, 64, 0
2, 12754740, Note_on_c, 0, 66, 100
2, 12754800, Note_on_c, 0, 66, 0
2, 12754800, Note_on_c, 0, 78, 100
2, 12755160, Note_on_c, 0, 78, 0
2, 12755160, Note_on_c, 0, 76, 100
2, 12755220, Note_on_c, 0, 76, 0
2, 12755220, Note_on_c, 0, 78, 100
2, 12755280, Note_on_c, 0, 78, 0
2, 12755280, Note_on_c, 0, 71, 100
2, 12755640, Note_on_c, 0, 71, 0
2, 12755640, Note_on_c, 0, 69, 100
2, 12755700, Note_on_c, 0, 69, 0
2, 12755700, Note_on_c, 0, 71, 100
2, 12755760, Note_on_c, 0, 71, 0
2, 12755760, Note_on_c, 0, 64, 100
2, 12756120, Note_on_c, 0, 64, 0
2, 12756120, Note_on_c, 0, 62, 100
2, 12756180, Note_on_c, 0, 62, 0
2, 12756180, Note_on_c, 0, 64, 100
2, 12756240, Note_on_c, 0, 64, 0
2, 12756240, Note_on_c, 0, 76, 100
2, 12756600, Note_on_c, 0, 76, 0
2, 12756600, Note_on_c, 0, 74, 100
2, 12756660, Note_on_c, 0, 74, 0
2, 12756660, Note_on_c, 0, 76, 100
2, 12756720, Note_on_c, 0, 76, 0
2, 12756720, Note_on_c, 0, 67, 100
2, 12757080, Note_on_c, 0, 67, 0
2, 12757080, Note_on_c, 0, 66, 100
2, 12757140, Note_on_c, 0, 66, 0
2, 12757140, Note_on_c, 0, 67, 100
2, 12757200, Note_on_c, 0, 67, 0
2, 12757200, Note_on_c, 0, 61, 100
2, 12757560, Note_on_c, 0, 61, 0
2, 12757560, Note_on_c, 0, 59, 100
2, 12757620, Note_on_c, 0, 59, 0
2, 12757620, Note_on_c, 0, 61, 100
2, 12757680, Note_on_c, 0, 61, 0
2, 12757680, Note_on_c, 0, 52, 100
2, 12758040, Note_on_c, 0, 52, 0
2, 12758040, Note_on_c, 0, 50, 100
2, 12758100, Note_on_c, 0, 50, 0
2, 12758100, Note_on_c, 0, 52, 100
2, 12758160, Note_on_c, 0, 52, 0
2, 12758160, Note_on_c, 0, 45, 100
2, 12758520, Note_on_c, 0, 45, 0
2, 12758520, Note_on_c, 0, 43, 100
2, 12758580, Note_on_c, 0, 43, 0
2, 12758580, Note_on_c, 0, 45, 100
2, 12758640, Note_on_c, 0, 45, 0
2, 12758640, Note_on_c, 0, 42, 100
2, 12759000, Note_on_c, 0, 42, 0
2, 12759000, Note_on_c, 0, 40, 100
2, 12759060, Note_on_c, 0, 40, 0
2, 12759060, Note_on_c, 0, 42, 100
2, 12759120, Note_on_c, 0, 42, 0
2, 12759120, Note_on_c, 0, 74, 100
2, 12759600, Note_on_c, 0, 74, 0
2, 12759600, Note_on_c, 0, 72, 100
2, 12760080, Note_on_c, 0, 72, 0
2, 12760080, Note_on_c, 0, 55, 100
2, 12760620, Note_on_c, 0, 55, 0
2, 12760620, Note_on_c, 0, 57, 100
2, 12760680, Note_on_c, 0, 57, 0
2, 12760680, Note_on_c, 0, 59, 100
2, 12760740, Note_on_c, 0, 59, 0
2, 12760740, Note_on_c, 0, 62, 100
2, 12760800, Note_on_c, 0, 62, 0
2, 12760800, Note_on_c, 0, 59, 100
2, 12760860, Note_on_c, 0, 59, 0
2, 12760860, Note_on_c, 0, 57, 100
2, 12760920, Note_on_c, 0, 57, 0
2, 12760920, Note_on_c, 0, 55, 100
2, 12761100, Note_on_c, 0, 55, 0
2, 12761100, Note_on_c, 0, 57, 100
2, 12761160, Note_on_c, 0, 57, 0
2, 12761160, Note_on_c, 0, 58, 100
2, 12761220, Note_on_c, 0, 58, 0
2, 12761220, Note_on_c, 0, 62, 100
2, 12761280, Note_on_c, 0, 62, 0
2, 12761280, Note_on_c, 0, 58, 100
2, 12761340, Note_on_c, 0, 58, 0
2, 12761340, Note_on_c, 0, 57, 100
2, 12761400, Note_on_c, 0, 57, 0
2, 12761400, Note_on_c, 0, 55, 100
2, 12761460, Note_on_c, 0, 55, 0
2, 12761460, Note_on_c, 0, 56, 100
2, 12761580, Note_on_c, 0, 56, 0
2, 12761580, Note_on_c, 0, 57, 100
2, 12761640, Note_on_c, 0, 57, 0
2, 12761640, Note_on_c, 0, 59, 100
2, 12761700, Note_on_c, 0, 59, 0
2, 12761700, Note_on_c, 0, 62, 100
2, 12761760, Note_on_c, 0, 62, 0
2, 12761760, Note_on_c, 0, 59, 100
2, 12761820, Note_on_c, 0, 59, 0
2, 12761820, Note_on_c, 0, 57, 100
2, 12761880, Note_on_c, 0, 57, 0
2, 12761880, Note_on_c, 0, 56, 100
2, 12761940, Note_on_c, 0, 56, 0
2, 12761940, Note_on_c, 0, 57, 100
2, 12762000, Note_on_c, 0, 57, 0
2, 12762000, Note_on_c, 0, 61, 100
2, 12762120, Note_on_c, 0, 61, 0
2, 12762120, Note_on_c, 0, 59, 100
2, 12762180, Note_on_c, 0, 59, 0
2, 12762180, Note_on_c, 0, 61, 100
2, 12762240, Note_on_c, 0, 61, 0
2, 12762240, Note_on_c, 0, 54, 100
2, 12762360, Note_on_c, 0, 54, 0
2, 12762360, Note_on_c, 0, 52, 100
2, 12762420, Note_on_c, 0, 52, 0
2, 12762420, Note_on_c, 0, 54, 100
2, 12762480, Note_on_c, 0, 54, 0
2, 12762480, Note_on_c, 0, 59, 100
2, 12762600, Note_on_c, 0, 59, 0
2, 12762600, Note_on_c, 0, 57, 100
2, 12762660, Note_on_c, 0, 57, 0
2, 12762660, Note_on_c, 0, 59, 100
2, 12762720, Note_on_c, 0, 59, 0
2, 12762720, Note_on_c, 0, 52, 100
2, 12762840, Note_on_c, 0, 52, 0
2, 12762840, Note_on_c, 0, 50, 100
2, 12762900, Note_on_c, 0, 50, 0
2, 12762900, Note_on_c, 0, 52, 100
2, 12762960, Note_on_c, 0, 52, 0
2, 12762960, Note_on_c, 0, 57, 100
2, 12763080, Note_on_c, 0, 57, 0
2, 12763080, Note_on_c, 0, 55, 100
2, 12763140, Note_on_c, 0, 55, 0
2, 12763140, Note_on_c, 0, 57, 100
2, 12763200, Note_on_c, 0, 57, 0
2, 12763200, Note_on_c, 0, 50, 100
2, 12763320, Note_on_c, 0, 50, 0
2, 12763320, Note_on_c, 0, 49, 100
2, 12763380, Note_on_c, 0, 49, 0
2, 12763380, Note_on_c, 0, 50, 100
2, 12763440, Note_on_c, 0, 50, 0
2, 12763440, Note_on_c, 0, 52, 100
2, 12763500, Note_on_c, 0, 52, 0
2, 12763500, Note_on_c, 0, 54, 100
2, 12763560, Note_on_c, 0, 54, 0
2, 12763560, Note_on_c, 0, 55, 100
2, 12763620, Note_on_c, 0, 55, 0
2, 12763620, Note_on_c, 0, 57, 100
2, 12763680, Note_on_c, 0, 57, 0
2, 12763680, Note_on_c, 0, 55, 100
2, 12763740, Note_on_c, 0, 55, 0
2, 12763740, Note_on_c, 0, 54, 100
2, 12763800, Note_on_c, 0, 54, 0
2, 12763800, Note_on_c, 0, 52, 100
2, 12763860, Note_on_c, 0, 52, 0
2, 12763860, Note_on_c, 0, 50, 100
2, 12763920, Note_on_c, 0, 50, 0
2, 12763920, Note_on_c, 0, 54, 100
2, 12764040, Note_on_c, 0, 54, 0
2, 12764040, Note_on_c, 0, 45, 100
2, 12764160, Note_on_c, 0, 45, 0
2, 12764160, Note_on_c, 0, 50, 100
2, 12764280, Note_on_c, 0, 50, 0
2, 12764280, Note_on_c, 0, 38, 100
2, 12764400, Note_on_c, 0, 38, 0
2, 12764400, Note_on_c, 0, 50, 100
2, 12764880, Note_on_c, 0, 50, 0
2, 12764880, Note_on_c, 0, 83, 100
2, 12765360, Note_on_c, 0, 83, 0
2, 12765360, Note_on_c, 0, 84, 100
2, 12765420, Note_on_c, 0, 84, 0
2, 12765420, Note_on_c, 0, 86, 100
2, 12765480, Note_on_c, 0, 86, 0
2, 12765480, Note_on_c, 0, 84, 100
2, 12765540, Note_on_c, 0, 84, 0
2, 12765540, Note_on_c, 0, 86, 100
2, 12765600, Note_on_c, 0, 86, 0
2, 12765600, Note_on_c, 0, 84, 100
2, 12765660, Note_on_c, 0, 84, 0
2, 12765660, Note_on_c, 0, 86, 100
2, 12765720, Note_on_c, 0, 86, 0
2, 12765720, Note_on_c, 0, 84, 100
2, 12765780, Note_on_c, 0, 84, 0
2, 12765780, Note_on_c, 0, 86, 100
2, 12765840, Note_on_c, 0, 86, 0
2, 12765840, Note_on_c, 0, 84, 100
2, 12765900, Note_on_c, 0, 84, 0
2, 12765900, Note_on_c, 0, 86, 100
2, 12765960, Note_on_c, 0, 86, 0
2, 12765960, Note_on_c, 0, 84, 100
2, 12766020, Note_on_c, 0, 84, 0
2, 12766020, Note_on_c, 0, 86, 100
2, 12766080, Note_on_c, 0, 86, 0
2, 12766080, Note_on_c, 0, 84, 100
2, 12766140, Note_on_c, 0, 84, 0
2, 12766140, Note_on_c, 0, 83, 100
2, 12766200, Note_on_c, 0, 83, 0
2, 12766200, Note_on_c, 0, 84, 100
2, 12766260, Note_on_c, 0, 84, 0
2, 12766260, Note_on_c, 0, 83, 100
2, 12766320, Note_on_c, 0, 83, 0
2, 12766320, Note_on_c, 0, 65, 100
2, 12766800, Note_on_c, 0, 65, 0
2, 12766800, Note_on_c, 0, 64, 100
2, 12766860, Note_on_c, 0, 64, 0
2, 12766860, Note_on_c, 0, 65, 100
2, 12766920, Note_on_c, 0, 65, 0
2, 12766920, Note_on_c, 0, 69, 100
2, 12767400, Note_on_c, 0, 69, 0
2, 12767400, Note_on_c, 0, 67, 100
2, 12767520, Note_on_c, 0, 67, 0
2, 12767520, Note_on_c, 0, 65, 100
2, 12767640, Note_on_c, 0, 65, 0
2, 12767640, Note_on_c, 0, 64, 100
2, 12767760, Note_on_c, 0, 64, 0
2, 12767760, Note_on_c, 0, 78, 100
2, 12768240, Note_on_c, 0, 78, 0
2, 12768240, Note_on_c, 0, 81, 100
2, 12768480, Note_on_c, 0, 81, 0
2, 12768480, Note_on_c, 0, 75, 100
2, 12768720, Note_on_c, 0, 75, 0
2, 12768720, Note_on_c, 0, 76, 100
2, 12768960, Note_on_c, 0, 76, 0
2, 12768960, Note_on_c, 0, 78, 100
2, 12769080, Note_on_c, 0, 78, 0
2, 12769080, Note_on_c, 0, 71, 100
2, 12769200, Note_on_c, 0, 71, 0
2, 12769200, Note_on_c, 0, 47, 100
2, 12769680, Note_on_c, 0, 47, 0
2, 12769680, Note_on_c, 0, 45, 100
2, 12769740, Note_on_c, 0, 45, 0
2, 12769740, Note_on_c, 0, 43, 100
2, 12769800, Note_on_c, 0, 43, 0
2, 12769800, Note_on_c, 0, 45, 100
2, 12769860, Note_on_c, 0, 45, 0
2, 12769860, Note_on_c, 0, 47, 100
2, 12769920, Note_on_c, 0, 47, 0
2, 12769920, Note_on_c, 0, 45, 100
2, 12769980, Note_on_c, 0, 45, 0
2, 12769980, Note_on_c, 0, 47, 100
2, 12770040, Note_on_c, 0, 47, 0
2, 12770040, Note_on_c, 0, 45, 100
2, 12770100, Note_on_c, 0, 45, 0
2, 12770100, Note_on_c, 0, 47, 100
2, 12770160, Note_on_c, 0, 47, 0
2, 12770160, Note_on_c, 0, 45, 100
2, 12770220, Note_on_c, 0, 45, 0
2, 12770220, Note_on_c, 0, 47, 100
2, 12770280, Note_on_c, 0, 47, 0
2, 12770280, Note_on_c, 0, 45, 100
2, 12770340, Note_on_c, 0, 45, 0
2, 12770340, Note_on_c, 0, 47, 100
2, 12770400, Note_on_c, 0, 47, 0
2, 12770400, Note_on_c, 0, 45, 100
2, 12770460, Note_on_c, 0, 45, 0
2, 12770460, Note_on_c, 0, 43, 100
2, 12770520, Note_on_c, 0, 43, 0
2, 12770520, Note_on_c, 0, 45, 100
2, 12770580, Note_on_c, 0, 45, 0
2, 12770580, Note_on_c, 0, 43, 100
2, 12770640, Note_on_c, 0, 43, 0
2, 12770640, Note_on_c, 0, 40, 100
2, 12770880, Note_on_c, 0, 40, 0
2, 12770880, Note_on_c, 0, 43, 100
2, 12771120, Note_on_c, 0, 43, 0
2, 12771120, Note_on_c, 0, 47, 100
2, 12771360, Note_on_c, 0, 47, 0
2, 12771360, Note_on_c, 0, 43, 100
2, 12771600, Note_on_c, 0, 43, 0
2, 12771600, Note_on_c, 0, 40, 100
2, 12771840, Note_on_c, 0, 40, 0
2, 12771840, Note_on_c, 0, 45, 100
2, 12772080, Note_on_c, 0, 45, 0
2, 12772080, Note_on_c, 0, 33, 100
2, 12772320, Note_on_c, 0, 33, 0
2, 12772320, Note_on_c, 0, 45, 100
2, 12772560, Note_on_c, 0, 45, 0
2, 12772560, Note_on_c, 0, 48, 100
2, 12772800, Note_on_c, 0, 48, 0
2, 12772800, Note_on_c, 0, 47, 100
2, 12773040, Note_on_c, 0, 47, 0
2, 12773040, Note_on_c, 0, 45, 100
2, 12773280, Note_on_c, 0, 45, 0
2, 12773280, Note_on_c, 0, 47, 100
2, 12773520, Note_on_c, 0, 47, 0
2, 12773520, Note_on_c, 0, 51, 100
2, 12773760, Note_on_c, 0, 51, 0
2, 12773760, Note_on_c, 0, 54, 100
2, 12774000, Note_on_c, 0, 54, 0
2, 12774000, Note_on_c, 0, 59, 100
2, 12774240, Note_on_c, 0, 59, 0
2, 12774240, Note_on_c, 0, 47, 100
2, 12774480, Note_on_c, 0, 47, 0
2, 12774480, Note_on_c, 0, 64, 100
2, 12774720, Note_on_c, 0, 64, 0
2, 12774720, Note_on_c, 0, 63, 100
2, 12774840, Note_on_c, 0, 63, 0
2, 12774840, Note_on_c, 0, 64, 100
2, 12774960, Note_on_c, 0, 64, 0
2, 12774960, Note_on_c, 0, 67, 100
2, 12775200, Note_on_c, 0, 67, 0
2, 12775200, Note_on_c, 0, 71, 100
2, 12775440, Note_on_c, 0, 71, 0
2, 12775440, Note_on_c, 0, 76, 100
2, 12775680, Note_on_c, 0, 76, 0
2, 12775680, Note_on_c, 0, 75, 100
2, 12775800, Note_on_c, 0, 75, 0
2, 12775800, Note_on_c, 0, 76, 100
2, 12775920, Note_on_c, 0, 76, 0
2, 12775920, Note_on_c, 0, 48, 100
2, 12776520, Note_on_c, 0, 48, 0
2, 12776520, Note_on_c, 0, 47, 100
2, 12776580, Note_on_c, 0, 47, 0
2, 12776580, Note_on_c, 0, 48, 100
2, 12776640, Note_on_c, 0, 48, 0
2, 12776640, Note_on_c, 0, 57, 100
2, 12777000, Note_on_c, 0, 57, 0
2, 12777000, Note_on_c, 0, 56, 100
2, 12777060, Note_on_c, 0, 56, 0
2, 12777060, Note_on_c, 0, 57, 100
2, 12777120, Note_on_c, 0, 57, 0
2, 12777120, Note_on_c, 0, 64, 100
2, 12777480, Note_on_c, 0, 64, 0
2, 12777480, Note_on_c, 0, 62, 100
2, 12777540, Note_on_c, 0, 62, 0
2, 12777540, Note_on_c, 0, 64, 100
2, 12777600, Note_on_c, 0, 64, 0
2, 12777600, Note_on_c, 0, 47, 100
2, 12777960, Note_on_c, 0, 47, 0
2, 12777960, Note_on_c, 0, 45, 100
2, 12778020, Note_on_c, 0, 45, 0
2, 12778020, Note_on_c, 0, 47, 100
2, 12778080, Note_on_c, 0, 47, 0
2, 12778080, Note_on_c, 0, 55, 100
2, 12778440, Note_on_c, 0, 55, 0
2, 12778440, Note_on_c, 0, 54, 100
2, 12778500, Note_on_c, 0, 54, 0
2, 12778500, Note_on_c, 0, 55, 100
2, 12778560, Note_on_c, 0, 55, 0
2, 12778560, Note_on_c, 0, 62, 100
2, 12778920, Note_on_c, 0, 62, 0
2, 12778920, Note_on_c, 0, 60, 100
2, 12778980, Note_on_c, 0, 60, 0
2, 12778980, Note_on_c, 0, 62, 100
2, 12779040, Note_on_c, 0, 62, 0
2, 12779040, Note_on_c, 0, 45, 100
2, 12779400, Note_on_c, 0, 45, 0
2, 12779400, Note_on_c, 0, 43, 100
2, 12779460, Note_on_c, 0, 43, 0
2, 12779460, Note_on_c, 0, 45, 100
2, 12779520, Note_on_c, 0, 45, 0
2, 12779520, Note_on_c, 0, 52, 100
2, 12779880, Note_on_c, 0, 52, 0
2, 12779880, Note_on_c, 0, 50, 100
2, 12779940, Note_on_c, 0, 50, 0
2, 12779940, Note_on_c, 0, 52, 100
2, 12780000, Note_on_c, 0, 52, 0
2, 12780000, Note_on_c, 0, 60, 100
2, 12780360, Note_on_c, 0, 60, 0
2, 12780360, Note_on_c, 0, 59, 100
2, 12780420, Note_on_c, 0, 59, 0
2, 12780420, Note_on_c, 0, 60, 100
2, 12780480, Note_on_c, 0, 60, 0
2, 12780480, Note_on_c, 0, 69, 100
2, 12780840, Note_on_c, 0, 69, 0
2, 12780840, Note_on_c, 0, 67, 100
2, 12780900, Note_on_c, 0, 67, 0
2, 12780900, Note_on_c, 0, 69, 100
2, 12780960, Note_on_c, 0, 69, 0
2, 12780960, Note_on_c, 0, 78, 100
2, 12781320, Note_on_c, 0, 78, 0
2, 12781320, Note_on_c, 0, 76, 100
2, 12781380, Note_on_c, 0, 76, 0
2, 12781380, Note_on_c, 0, 78, 100
2, 12781440, Note_on_c, 0, 78, 0
2, 12781440, Note_on_c, 0, 81, 100
2, 12781800, Note_on_c, 0, 81, 0
2, 12781800, Note_on_c, 0, 79, 100
2, 12781860, Note_on_c, 0, 79, 0
2, 12781860, Note_on_c, 0, 81, 100
2, 12781920, Note_on_c, 0, 81, 0
2, 12781920, Note_on_c, 0, 67, 100
2, 12782220, Note_on_c, 0, 67, 0
2, 12782220, Note_on_c, 0, 69, 100
2, 12782280, Note_on_c, 0, 69, 0
2, 12782280, Note_on_c, 0, 71, 100
2, 12782340, Note_on_c, 0, 71, 0
2, 12782340, Note_on_c, 0, 74, 100
2, 12782400, Note_on_c, 0, 74, 0
2, 12782400, Note_on_c, 0, 71, 100
2, 12782460, Note_on_c, 0, 71, 0
2, 12782460, Note_on_c, 0, 69, 100
2, 12782520, Note_on_c, 0, 69, 0
2, 12782520, Note_on_c, 0, 67, 100
2, 12782700, Note_on_c, 0, 67, 0
2, 12782700, Note_on_c, 0, 69, 100
2, 12782760, Note_on_c, 0, 69, 0
2, 12782760, Note_on_c, 0, 71, 100
2, 12782820, Note_on_c, 0, 71, 0
2, 12782820, Note_on_c, 0, 74, 100
2, 12782880, Note_on_c, 0, 74, 0
2, 12782880, Note_on_c, 0, 71, 100
2, 12782940, Note_on_c, 0, 71, 0
2, 12782940, Note_on_c, 0, 69, 100
2, 12783000, Note_on_c, 0, 69, 0
2, 12783000, Note_on_c, 0, 67, 100
2, 12783180, Note_on_c, 0, 67, 0
2, 12783180, Note_on_c, 0, 69, 100
2, 12783240, Note_on_c, 0, 69, 0
2, 12783240, Note_on_c, 0, 71, 100
2, 12783300, Note_on_c, 0, 71, 0
2, 12783300, Note_on_c, 0, 74, 100
2, 12783360, Note_on_c, 0, 74, 0
2, 12783360, Note_on_c, 0, 71, 100
2, 12783420, Note_on_c, 0, 71, 0
2, 12783420, Note_on_c, 0, 69, 100
2, 12783480, Note_on_c, 0, 69, 0
2, 12783480, Note_on_c, 0, 67, 100
2, 12783540, Note_on_c, 0, 67, 0
2, 12783540, Note_on_c, 0, 72, 100
2, 12783600, Note_on_c, 0, 72, 0
2, 12783600, Note_on_c, 0, 57, 100
2, 12784080, Note_on_c, 0, 57, 0
2, 12784080, Note_on_c, 0, 52, 100
2, 12784560, Note_on_c, 0, 52, 0
2, 12784560, Note_on_c, 0, 54, 100
2, 12785040, Note_on_c, 0, 54, 0
2, 12785040, Note_on_c, 0, 57, 100
2, 12785160, Note_on_c, 0, 57, 0
2, 12785160, Note_on_c, 0, 55, 100
2, 12785220, Note_on_c, 0, 55, 0
2, 12785220, Note_on_c, 0, 57, 100
2, 12785280, Note_on_c, 0, 57, 0
2, 12785280, Note_on_c, 0, 62, 100
2, 12785400, Note_on_c, 0, 62, 0
2, 12785400, Note_on_c, 0, 60, 100
2, 12785460, Note_on_c, 0, 60, 0
2, 12785460, Note_on_c, 0, 62, 100
2, 12785520, Note_on_c, 0, 62, 0
2, 12785520, Note_on_c, 0, 55, 100
2, 12785640, Note_on_c, 0, 55, 0
2, 12785640, Note_on_c, 0, 54, 100
2, 12785700, Note_on_c, 0, 54, 0
2, 12785700, Note_on_c, 0, 55, 100
2, 12785760, Note_on_c, 0, 55, 0
2, 12785760, Note_on_c, 0, 60, 100
2, 12785880, Note_on_c, 0, 60, 0
2, 12785880, Note_on_c, 0, 59, 100
2, 12785940, Note_on_c, 0, 59, 0
2, 12785940, Note_on_c, 0, 60, 100
2, 12786000, Note_on_c, 0, 60, 0
2, 12786000, Note_on_c, 0, 54, 100
2, 12786120, Note_on_c, 0, 54, 0
2, 12786120, Note_on_c, 0, 52, 100
2, 12786180, Note_on_c, 0, 52, 0
2, 12786180, Note_on_c, 0, 54, 100
2, 12786240, Note_on_c, 0, 54, 0
2, 12786240, Note_on_c, 0, 59, 100
2, 12786360, Note_on_c, 0, 59, 0
2, 12786360, Note_on_c, 0, 57, 100
2, 12786420, Note_on_c, 0, 57, 0
2, 12786420, Note_on_c, 0, 59, 100
2, 12786480, Note_on_c, 0, 59, 0
2, 12786480, Note_on_c, 0, 55, 100
2, 12786600, Note_on_c, 0, 55, 0
2, 12786600, Note_on_c, 0, 54, 100
2, 12786720, Note_on_c, 0, 54, 0
2, 12786720, Note_on_c, 0, 55, 100
2, 12786840, Note_on_c, 0, 55, 0
2, 12786840, Note_on_c, 0, 59, 100
2, 12786960, Note_on_c, 0, 59, 0
2, 12786960, Note_on_c, 0, 57, 100
2, 12787020, Note_on_c, 0, 57, 0
2, 12787020, Note_on_c, 0, 55, 100
2, 12787080, Note_on_c, 0, 55, 0
2, 12787080, Note_on_c, 0, 62, 100
2, 12787200, Note_on_c, 0, 62, 0
2, 12787200, Note_on_c, 0, 60, 100
2, 12787260, Note_on_c, 0, 60, 0
2, 12787260, Note_on_c, 0, 59, 100
2, 12787320, Note_on_c, 0, 59, 0
2, 12787320, Note_on_c, 0, 67, 100
2, 12787440, Note_on_c, 0, 67, 0
2, 12787440, Note_on_c, 0, 50, 100
2, 12787920, Note_on_c, 0, 50, 0
2, 12787920, Note_on_c, 0, 83, 100
2, 12788400, Note_on_c, 0, 83, 0
2, 12788400, Note_on_c, 0, 84, 100
2, 12788460, Note_on_c, 0, 84, 0
2, 12788460, Note_on_c, 0, 86, 100
2, 12788520, Note_on_c, 0, 86, 0
2, 12788520, Note_on_c, 0, 84, 100
2, 12788580, Note_on_c, 0, 84, 0
2, 12788580, Note_on_c, 0, 86, 100
2, 12788640, Note_on_c, 0, 86, 0
2, 12788640, Note_on_c, 0, 84, 100
2, 12788700, Note_on_c, 0, 84, 0
2, 12788700, Note_on_c, 0, 86, 100
2, 12788760, Note_on_c, 0, 86, 0
2, 12788760, Note_on_c, 0, 84, 100
2, 12788820, Note_on_c, 0, 84, 0
2, 12788820, Note_on_c, 0, 86, 100
2, 12788880, Note_on_c, 0, 86, 0
2, 12788880, Note_on_c, 0, 84, 100
2, 12788940, Note_on_c, 0, 84, 0
2, 12788940, Note_on_c, 0, 86, 100
2, 12789000, Note_on_c, 0, 86, 0
2, 12789000, Note_on_c, 0, 84, 100
2, 12789060, Note_on_c, 0, 84, 0
2, 12789060, Note_on_c, 0, 86, 100
2, 12789120, Note_on_c, 0, 86, 0
2, 12789120, Note_on_c, 0, 84, 100
2, 12789180, Note_on_c, 0, 84, 0
2, 12789180, Note_on_c, 0, 83, 100
2, 12789240, Note_on_c, 0, 83, 0
2, 12789240, Note_on_c, 0, 84, 100
2, 12789300, Note_on_c, 0, 84, 0
2, 12789300, Note_on_c, 0, 83, 100
2, 12789360, Note_on_c, 0, 83, 0
2, 12789360, Note_on_c, 0, 65, 100
2, 12789840, Note_on_c, 0, 65, 0
2, 12789840, Note_on_c, 0, 64, 100
2, 12789900, Note_on_c, 0, 64, 0
2, 12789900, Note_on_c, 0, 65, 100
2, 12789960, Note_on_c, 0, 65, 0
2, 12789960, Note_on_c, 0, 69, 100
2, 12790440, Note_on_c, 0, 69, 0
2, 12790440, Note_on_c, 0, 67, 100
2, 12790560, Note_on_c, 0, 67, 0
2, 12790560, Note_on_c, 0, 65, 100
2, 12790680, Note_on_c, 0, 65, 0
2, 12790680, Note_on_c, 0, 64, 100
2, 12790800, Note_on_c, 0, 64, 0
2, 12790800, Note_on_c, 0, 78, 100
2, 12791280, Note_on_c, 0, 78, 0
2, 12791280, Note_on_c, 0, 81, 100
2, 12791520, Note_on_c, 0, 81, 0
2, 12791520, Note_on_c, 0, 75, 100
2, 12791760, Note_on_c, 0, 75, 0
2, 12791760, Note_on_c, 0, 76, 100
2, 12792000, Note_on_c, 0, 76, 0
2, 12792000, Note_on_c, 0, 78, 100
2, 12792120, Note_on_c, 0, 78, 0
2, 12792120, Note_on_c, 0, 71, 100
2, 12792240, Note_on_c, 0, 71, 0
2, 12792240, Note_on_c, 0, 47, 100
2, 12792720, Note_on_c, 0, 47, 0
2, 12792720, Note_on_c, 0, 45, 100
2, 12792780, Note_on_c, 0, 45, 0
2, 12792780, Note_on_c, 0, 43, 100
2, 12792840, Note_on_c, 0, 43, 0
2, 12792840, Note_on_c, 0, 45, 100
2, 12792900, Note_on_c, 0, 45, 0
2, 12792900, Note_on_c, 0, 47, 100
2, 12792960, Note_on_c, 0, 47, 0
2, 12792960, Note_on_c, 0, 45, 100
2, 12793020, Note_on_c, 0, 45, 0
2, 12793020, Note_on_c, 0, 47, 100
2, 12793080, Note_on_c, 0, 47, 0
2, 12793080, Note_on_c, 0, 45, 100
2, 12793140, Note_on_c, 0, 45, 0
2, 12793140, Note_on_c, 0, 47, 100
2, 12793200, Note_on_c, 0, 47, 0
2, 12793200, Note_on_c, 0, 45, 100
2, 12793260, Note_on_c, 0, 45, 0
2, 12793260, Note_on_c, 0, 47, 100
2, 12793320, Note_on_c, 0, 47, 0
2, 12793320, Note_on_c, 0, 45, 100
2, 12793380, Note_on_c, 0, 45, 0
2, 12793380, Note_on_c, 0, 47, 100
2, 12793440, Note_on_c, 0, 47, 0
2, 12793440, Note_on_c, 0, 45, 100
2, 12793500, Note_on_c, 0, 45, 0
2, 12793500, Note_on_c, 0, 43, 100
2, 12793560, Note_on_c, 0, 43, 0
2, 12793560, Note_on_c, 0, 45, 100
2, 12793620, Note_on_c, 0, 45, 0
2, 12793620, Note_on_c, 0, 43, 100
2, 12793680, Note_on_c, 0, 43, 0
2, 12793680, Note_on_c, 0, 40, 100
2, 12793920, Note_on_c, 0, 40, 0
2, 12793920, Note_on_c, 0, 43, 100
2, 12794160, Note_on_c, 0, 43, 0
2, 12794160, Note_on_c, 0, 47, 100
2, 12794400, Note_on_c, 0, 47, 0
2, 12794400, Note_on_c, 0, 43, 100
2, 12794640, Note_on_c, 0, 43, 0
2, 12794640, Note_on_c, 0, 40, 100
2, 12794880, Note_on_c, 0, 40, 0
2, 12794880, Note_on_c, 0, 45, 100
2, 12795120, Note_on_c, 0, 45, 0
2, 12795120, Note_on_c, 0, 33, 100
2, 12795360, Note_on_c, 0, 33, 0
2, 12795360, Note_on_c, 0, 45, 100
2, 12795600, Note_on_c, 0, 45, 0
2, 12795600, Note_on_c, 0, 48, 100
2, 12795840, Note_on_c, 0, 48, 0
2, 12795840, Note_on_c, 0, 47, 100
2, 12796080, Note_on_c, 0, 47, 0
2, 12796080, Note_on_c, 0, 45, 100
2, 12796320, Note_on_c, 0, 45, 0
2, 12796320, Note_on_c, 0, 47, 100
2, 12796560, Note_on_c, 0, 47, 0
2, 12796560, Note_on_c, 0, 51, 100
2, 12796800, Note_on_c, 0, 51, 0
2, 12796800, Note_on_c, 0, 54, 100
2, 12797040, Note_on_c, 0, 54, 0
2, 12797040, Note_on_c, 0, 59, 100
2, 12797280, Note_on_c, 0, 59, 0
2, 12797280, Note_on_c, 0, 47, 100
2, 12797520, Note_on_c, 0, 47, 0
2, 12797520, Note_on_c, 0, 64, 100
2, 12797760, Note_on_c, 0, 64, 0
2, 12797760, Note_on_c, 0, 63, 100
2, 12797880, Note_on_c, 0, 63, 0
2, 12797880, Note_on_c, 0, 64, 100
2, 12798000, Note_on_c, 0, 64, 0
2, 12798000, Note_on_c, 0, 67, 100
2, 12798240, Note_on_c, 0, 67, 0
2, 12798240, Note_on_c, 0, 71, 100
2, 12798480, Note_on_c, 0, 71, 0
2, 12798480, Note_on_c, 0, 76, 100
2, 12798720, Note_on_c, 0, 76, 0
2, 12798720, Note_on_c, 0, 75, 100
2, 12798840, Note_on_c, 0, 75, 0
2, 12798840, Note_on_c, 0, 76, 100
2, 12798960, Note_on_c, 0, 76, 0
2, 12798960, Note_on_c, 0, 48, 100
2, 12799560, Note_on_c, 0, 48, 0
2, 12799560, Note_on_c, 0, 47, 100
2, 12799620, Note_on_c, 0, 47, 0
2, 12799620, Note_on_c, 0, 48, 100
2, 12799680, Note_on_c, 0, 48, 0
2, 12799680, Note_on_c, 0, 57, 100
2, 12800040, Note_on_c, 0, 57, 0
2, 12800040, Note_on_c, 0, 56, 100
2, 12800100, Note_on_c, 0, 56, 0
2, 12800100, Note_on_c, 0, 57, 100
2, 12800160, Note_on_c, 0, 57, 0
2, 12800160, Note_on_c, 0, 64, 100
2, 12800520, Note_on_c, 0, 64, 0
2, 12800520, Note_on_c, 0, 62, 100
2, 12800580, Note_on_c, 0, 62, 0
2, 12800580, Note_on_c, 0, 64, 100
2, 12800640, Note_on_c, 0, 64, 0
2, 12800640, Note_on_c, 0, 47, 100
2, 12801000, Note_on_c, 0, 47, 0
2, 12801000, Note_on_c, 0, 45, 100
2, 12801060, Note_on_c, 0, 45, 0
2, 12801060, Note_on_c, 0, 47, 100
2, 12801120, Note_on_c, 0, 47, 0
2, 12801120, Note_on_c, 0, 55, 100
2, 12801480, Note_on_c, 0, 55, 0
2, 12801480, Note_on_c, 0, 54, 100
2, 12801540, Note_on_c, 0, 54, 0
2, 12801540, Note_on_c, 0, 55, 100
2, 12801600, Note_on_c, 0, 55, 0
2, 12801600, Note_on_c, 0, 62, 100
2, 12801960, Note_on_c, 0, 62, 0
2, 12801960, Note_on_c, 0, 60, 100
2, 12802020, Note_on_c, 0, 60, 0
2, 12802020, Note_on_c, 0, 62, 100
2, 12802080, Note_on_c, 0, 62, 0
2, 12802080, Note_on_c, 0, 45, 100
2, 12802440, Note_on_c, 0, 45, 0
2, 12802440, Note_on_c, 0, 43, 100
2, 12802500, Note_on_c, 0, 43, 0
2, 12802500, Note_on_c, 0, 45, 100
2, 12802560, Note_on_c, 0, 45, 0
2, 12802560, Note_on_c, 0, 52, 100
2, 12802920, Note_on_c, 0, 52, 0
2, 12802920, Note_on_c, 0, 50, 100
2, 12802980, Note_on_c, 0, 50, 0
2, 12802980, Note_on_c, 0, 52, 100
2, 12803040, Note_on_c, 0, 52, 0
2, 12803040, Note_on_c, 0, 60, 100
2, 12803400, Note_on_c, 0, 60, 0
2, 12803400, Note_on_c, 0, 59, 100
2, 12803460, Note_on_c, 0, 59, 0
2, 12803460, Note_on_c, 0, 60, 100
2, 12803520, Note_on_c, 0, 60, 0
2, 12803520, Note_on_c, 0, 69, 100
2, 12803880, Note_on_c, 0, 69, 0
2, 12803880, Note_on_c, 0, 67, 100
2, 12803940, Note_on_c, 0, 67, 0
2, 12803940, Note_on_c, 0, 69, 100
2, 12804000, Note_on_c, 0, 69, 0
2, 12804000, Note_on_c, 0, 78, 100
2, 12804360, Note_on_c, 0, 78, 0
2, 12804360, Note_on_c, 0, 76, 100
2, 12804420, Note_on_c, 0, 76, 0
2, 12804420, Note_on_c, 0, 78, 100
2, 12804480, Note_on_c, 0, 78, 0
2, 12804480, Note_on_c, 0, 81, 100
2, 12804840, Note_on_c, 0, 81, 0
2, 12804840, Note_on_c, 0, 79, 100
2, 12804900, Note_on_c, 0, 79, 0
2, 12804900, Note_on_c, 0, 81, 100
2, 12804960, Note_on_c, 0, 81, 0
2, 12804960, Note_on_c, 0, 67, 100
2, 12805260, Note_on_c, 0, 67, 0
2, 12805260, Note_on_c, 0, 69, 100
2, 12805320, Note_on_c, 0, 69, 0
2, 12805320, Note_on_c, 0, 71, 100
2, 12805380, Note_on_c, 0, 71, 0
2, 12805380, Note_on_c, 0, 74, 100
2, 12805440, Note_on_c, 0, 74, 0
2, 12805440, Note_on_c, 0, 71, 100
2, 12805500, Note_on_c, 0, 71, 0
2, 12805500, Note_on_c, 0, 69, 100
2, 12805560, Note_on_c, 0, 69, 0
2, 12805560, Note_on_c, 0, 67, 100
2, 12805740, Note_on_c, 0, 67, 0
2, 12805740, Note_on_c, 0, 69, 100
2, 12805800, Note_on_c, 0, 69, 0
2, 12805800, Note_on_c, 0, 71, 100
2, 12805860, Note_on_c, 0, 71, 0
2, 12805860, Note_on_c, 0, 74, 100
2, 12805920, Note_on_c, 0, 74, 0
2, 12805920, Note_on_c, 0, 71, 100
2, 12805980, Note_on_c, 0, 71, 0
2, 12805980, Note_on_c, 0, 69, 100
2, 12806040, Note_on_c, 0, 69, 0
2, 12806040, Note_on_c, 0, 67, 100
2, 12806220, Note_on_c, 0, 67, 0
2, 12806220, Note_on_c, 0, 69, 100
2, 12806280, Note_on_c, 0, 69, 0
2, 12806280, Note_on_c, 0, 71, 100
2, 12806340, Note_on_c, 0, 71, 0
2, 12806340, Note_on_c, 0, 74, 100
2, 12806400, Note_on_c, 0, 74, 0
2, 12806400, Note_on_c, 0, 71, 100
2, 12806460, Note_on_c, 0, 71, 0
2, 12806460, Note_on_c, 0, 69, 100
2, 12806520, Note_on_c, 0, 69, 0
2, 12806520, Note_on_c, 0, 67, 100
2, 12806580, Note_on_c, 0, 67, 0
2, 12806580, Note_on_c, 0, 72, 100
2, 12806640, Note_on_c, 0, 72, 0
2, 12806640, Note_on_c, 0, 57, 100
2, 12807120, Note_on_c, 0, 57, 0
2, 12807120, Note_on_c, 0, 52, 100
2, 12807600, Note_on_c, 0, 52, 0
2, 12807600, Note_on_c, 0, 54, 100
2, 12808080, Note_on_c, 0, 54, 0
2, 12808080, Note_on_c, 0, 57, 100
2, 12808200, Note_on_c, 0, 57, 0
2, 12808200, Note_on_c, 0, 55, 100
2, 12808260, Note_on_c, 0, 55, 0
2, 12808260, Note_on_c, 0, 57, 100
2, 12808320, Note_on_c, 0, 57, 0
2, 12808320, Note_on_c, 0, 62, 100
2, 12808440, Note_on_c, 0, 62, 0
2, 12808440, Note_on_c, 0, 60, 100
2, 12808500, Note_on_c, 0, 60, 0
2, 12808500, Note_on_c, 0, 62, 100
2, 12808560, Note_on_c, 0, 62, 0
2, 12808560, Note_on_c, 0, 55, 100
2, 12808680, Note_on_c, 0, 55, 0
2, 12808680, Note_on_c, 0, 54, 100
2, 12808740, Note_on_c, 0, 54, 0
2, 12808740, Note_on_c, 0, 55, 100
2, 12808800, Note_on_c, 0, 55, 0
2, 12808800, Note_on_c, 0, 60, 100
2, 12808920, Note_on_c, 0, 60, 0
2, 12808920, Note_on_c, 0, 59, 100
2, 12808980, Note_on_c, 0, 59, 0
2, 12808980, Note_on_c, 0, 60, 100
2, 12809040, Note_on_c, 0, 60, 0
2, 12809040, Note_on_c, 0, 54, 100
2, 12809160, Note_on_c, 0, 54, 0
2, 12809160, Note_on_c, 0, 52, 100
2, 12809220, Note_on_c, 0, 52, 0
2, 12809220, Note_on_c, 0, 54, 100
2, 12809280, Note_on_c, 0, 54, 0
2, 12809280, Note_on_c, 0, 59, 100
2, 12809400, Note_on_c, 0, 59, 0
2, 12809400, Note_on_c, 0, 57, 100
2, 12809460, Note_on_c, 0, 57, 0
2, 12809460, Note_on_c, 0, 59, 100
2, 12809520, Note_on_c, 0, 59, 0
2, 12809520, Note_on_c, 0, 55, 100
2, 12809640, Note_on_c, 0, 55, 0
2, 12809640, Note_on_c, 0, 54, 100
2, 12809760, Note_on_c, 0, 54, 0
2, 12809760, Note_on_c, 0, 55, 100
2, 12809880, Note_on_c, 0, 55, 0
2, 12809880, Note_on_c, 0, 59, 100
2, 12810000, Note_on_c, 0, 59, 0
2, 12810000, Note_on_c, 0, 57, 100
2, 12810060, Note_on_c, 0, 57, 0
2, 12810060, Note_on_c, 0, 55, 100
2, 12810120, Note_on_c, 0, 55, 0
2, 12810120, Note_on_c, 0, 62, 100
2, 12810240, Note_on_c, 0, 62, 0
2, 12810240, Note_on_c, 0, 60, 100
2, 12810300, Note_on_c, 0, 60, 0
2, 12810300, Note_on_c, 0, 59, 100
2, 12810360, Note_on_c, 0, 59, 0
2, 12810360, Note_on_c, 0, 67, 100
2, 12810480, Note_on_c, 0, 67, 0
2, 12810480, Note_on_c, 0, 55, 100
2, 12872400, Note_on_c, 0, 55, 0
2, 12872400, Note_on_c, 0, 59, 100
2, 12874200, Note_on_c, 0, 59, 0
2, 12874200, Note_on_c, 0, 57, 100
2, 12874320, Note_on_c, 0, 57, 0
2, 12874320, Note_on_c, 0, 71, 100
2, 12883890, Note_on_c, 0, 71, 0
2, 12883890, Note_on_c, 0, 66, 100
2, 12896400, Note_on_c, 0, 66, 0
2, 12896400, Note_on_c, 0, 59, 100
2, 12898200, Note_on_c, 0, 59, 0
2, 12898200, Note_on_c, 0, 61, 100
2, 12898320, Note_on_c, 0, 61, 0
2, 12898320, Note_on_c, 0, 69, 100
2, 12901200, Note_on_c, 0, 69, 0
2, 12901200, Note_on_c, 0, 55, 100
2, 12903120, Note_on_c, 0, 55, 0
2, 12903120, Note_on_c, 0, 59, 100
2, 12904920, Note_on_c, 0, 59, 0
2, 12904920, Note_on_c, 0, 57, 100
2, 12905040, Note_on_c, 0, 57, 0
2, 12905040, Note_on_c, 0, 71, 100
2, 12914610, Note_on_c, 0, 71, 0
2, 12914610, Note_on_c, 0, 66, 100
2, 12927120, Note_on_c, 0, 66, 0
2, 12927120, Note_on_c, 0, 59, 100
2, 12928920, Note_on_c, 0, 59, 0
2, 12928920, Note_on_c, 0, 61, 100
2, 12929040, Note_on_c, 0, 61, 0
2, 12929040, Note_on_c, 0, 69, 100
2, 12935040, Note_on_c, 0, 69, 0
2, 12935040, Note_on_c, 0, 67, 100
2, 12935160, Note_on_c, 0, 67, 0
2, 12935160, Note_on_c, 0, 66, 100
2, 12935280, Note_on_c, 0, 66, 0
2, 12935280, Note_on_c, 0, 64, 100
2, 12935400, Note_on_c, 0, 64, 0
2, 12935400, Note_on_c, 0, 66, 100
2, 12935520, Note_on_c, 0, 66, 0
2, 12935520, Note_on_c, 0, 67, 100
2, 12935760, Note_on_c, 0, 67, 0
2, 12935760, Note_on_c, 0, 69, 100
2, 12936000, Note_on_c, 0, 69, 0
2, 12936000, Note_on_c, 0, 63, 100
2, 12936240, Note_on_c, 0, 63, 0
2, 12936240, Note_on_c, 0, 66, 100
2, 12936360, Note_on_c, 0, 66, 0
2, 12936360, Note_on_c, 0, 64, 100
2, 12936480, Note_on_c, 0, 64, 0
2, 12936480, Note_on_c, 0, 67, 100
2, 12936600, Note_on_c, 0, 67, 0
2, 12936600, Note_on_c, 0, 66, 100
2, 12936720, Note_on_c, 0, 66, 0
2, 12936720, Note_on_c, 0, 69, 100
2, 12936840, Note_on_c, 0, 69, 0
2, 12936840, Note_on_c, 0, 67, 100
2, 12936960, Note_on_c, 0, 67, 0
2, 12936960, Note_on_c, 0, 66, 100
2, 12937200, Note_on_c, 0, 66, 0
2, 12937200, Note_on_c, 0, 64, 100
2, 12937920, Note_on_c, 0, 64, 0
2, 12937920, Note_on_c, 0, 63, 100
2, 12938160, Note_on_c, 0, 63, 0
2, 12938160, Note_on_c, 0, 64, 100
2, 12942960, Note_on_c, 0, 64, 0
2, 12942960, Note_on_c, 0, 62, 100
2, 12943080, Note_on_c, 0, 62, 0
2, 12943080, Note_on_c, 0, 60, 100
2, 12943200, Note_on_c, 0, 60, 0
2, 12943200, Note_on_c, 0, 59, 100
2, 12943320, Note_on_c, 0, 59, 0
2, 12943320, Note_on_c, 0, 60, 100
2, 12943440, Note_on_c, 0, 60, 0
2, 12943440, Note_on_c, 0, 62, 100
2, 12943680, Note_on_c, 0, 62, 0
2, 12943680, Note_on_c, 0, 64, 100
2, 12943920, Note_on_c, 0, 64, 0
2, 12943920, Note_on_c, 0, 57, 100
2, 12944160, Note_on_c, 0, 57, 0
2, 12944160, Note_on_c, 0, 60, 100
2, 12944280, Note_on_c, 0, 60, 0
2, 12944280, Note_on_c, 0, 59, 100
2, 12944400, Note_on_c, 0, 59, 0
2, 12944400, Note_on_c, 0, 62, 100
2, 12944520, Note_on_c, 0, 62, 0
2, 12944520, Note_on_c, 0, 61, 100
2, 12944640, Note_on_c, 0, 61, 0
2, 12944640, Note_on_c, 0, 64, 100
2, 12944760, Note_on_c, 0, 64, 0
2, 12944760, Note_on_c, 0, 62, 100
2, 12944880, Note_on_c, 0, 62, 0
2, 12944880, Note_on_c, 0, 55, 100
2, 12946560, Note_on_c, 0, 55, 0
2, 12946560, Note_on_c, 0, 54, 100
2, 12946800, Note_on_c, 0, 54, 0
2, 12946800, Note_on_c, 0, 55, 100
2, 12947040, Note_on_c, 0, 55, 0
2, 12947040, Note_on_c, 0, 69, 100
2, 12958080, Note_on_c, 0, 69, 0
2, 12958080, Note_on_c, 0, 67, 100
2, 12958200, Note_on_c, 0, 67, 0
2, 12958200, Note_on_c, 0, 66, 100
2, 12958320, Note_on_c, 0, 66, 0
2, 12958320, Note_on_c, 0, 64, 100
2, 12958440, Note_on_c, 0, 64, 0
2, 12958440, Note_on_c, 0, 66, 100
2, 12958560, Note_on_c, 0, 66, 0
2, 12958560, Note_on_c, 0, 67, 100
2, 12958800, Note_on_c, 0, 67, 0
2, 12958800, Note_on_c, 0, 69, 100
2, 12959040, Note_on_c, 0, 69, 0
2, 12959040, Note_on_c, 0, 63, 100
2, 12959280, Note_on_c, 0, 63, 0
2, 12959280, Note_on_c, 0, 66, 100
2, 12959400, Note_on_c, 0, 66, 0
2, 12959400, Note_on_c, 0, 64, 100
2, 12959520, Note_on_c, 0, 64, 0
2, 12959520, Note_on_c, 0, 67, 100
2, 12959640, Note_on_c, 0, 67, 0
2, 12959640, Note_on_c, 0, 66, 100
2, 12959760, Note_on_c, 0, 66, 0
2, 12959760, Note_on_c, 0, 69, 100
2, 12959880, Note_on_c, 0, 69, 0
2, 12959880, Note_on_c, 0, 67, 100
2, 12960000, Note_on_c, 0, 67, 0
2, 12960000, Note_on_c, 0, 66, 100
2, 12960240, Note_on_c, 0, 66, 0
2, 12960240, Note_on_c, 0, 64, 100
2, 12960960, Note_on_c, 0, 64, 0
2, 12960960, Note_on_c, 0, 63, 100
2, 12961200, Note_on_c, 0, 63, 0
2, 12961200, Note_on_c, 0, 64, 100
2, 12966000, Note_on_c, 0, 64, 0
2, 12966000, Note_on_c, 0, 62, 100
2, 12966120, Note_on_c, 0, 62, 0
2, 12966120, Note_on_c, 0, 60, 100
2, 12966240, Note_on_c, 0, 60, 0
2, 12966240, Note_on_c, 0, 59, 100
2, 12966360, Note_on_c, 0, 59, 0
2, 12966360, Note_on_c, 0, 60, 100
2, 12966480, Note_on_c, 0, 60, 0
2, 12966480, Note_on_c, 0, 62, 100
2, 12966720, Note_on_c, 0, 62, 0
2, 12966720, Note_on_c, 0, 64, 100
2, 12966960, Note_on_c, 0, 64, 0
2, 12966960, Note_on_c, 0, 57, 100
2, 12967200, Note_on_c, 0, 57, 0
2, 12967200, Note_on_c, 0, 60, 100
2, 12967320, Note_on_c, 0, 60, 0
2, 12967320, Note_on_c, 0, 59, 100
2, 12967440, Note_on_c, 0, 59, 0
2, 12967440, Note_on_c, 0, 62, 100
2, 12967560, Note_on_c, 0, 62, 0
2, 12967560, Note_on_c, 0, 61, 100
2, 12967680, Note_on_c, 0, 61, 0
2, 12967680, Note_on_c, 0, 64, 100
2, 12967800, Note_on_c, 0, 64, 0
2, 12967800, Note_on_c, 0, 62, 100
2, 12967920, Note_on_c, 0, 62, 0
2, 12967920, Note_on_c, 0, 55, 100
2, 12969600, Note_on_c, 0, 55, 0
2, 12969600, Note_on_c, 0, 54, 100
2, 12969840, Note_on_c, 0, 54, 0
2, 12969840, Note_on_c, 0, 55, 100
2, 12970080, Note_on_c, 0, 55, 0
2, 12970080, Note_on_c, 0, 59, 100
2, 12977280, Note_on_c, 0, 59, 0
2, 12977280, Note_on_c, 0, 43, 100
2, 12979200, Note_on_c, 0, 43, 0
2, 12979200, Note_on_c, 0, 47, 100
2, 12979320, Note_on_c, 0, 47, 0
2, 12979320, Note_on_c, 0, 45, 100
2, 12979440, Note_on_c, 0, 45, 0
2, 12979440, Note_on_c, 0, 48, 100
2, 12979560, Note_on_c, 0, 48, 0
2, 12979560, Note_on_c, 0, 47, 100
2, 12979680, Note_on_c, 0, 47, 0
2, 12979680, Note_on_c, 0, 50, 100
2, 12979800, Note_on_c, 0, 50, 0
2, 12979800, Note_on_c, 0, 48, 100
2, 12979920, Note_on_c, 0, 48, 0
2, 12979920, Note_on_c, 0, 52, 100
2, 12980040, Note_on_c, 0, 52, 0
2, 12980040, Note_on_c, 0, 50, 100
2, 12980160, Note_on_c, 0, 50, 0
2, 12980160, Note_on_c, 0, 54, 100
2, 12980280, Note_on_c, 0, 54, 0
2, 12980280, Note_on_c, 0, 52, 100
2, 12980400, Note_on_c, 0, 52, 0
2, 12980400, Note_on_c, 0, 55, 100
2, 12980520, Note_on_c, 0, 55, 0
2, 12980520, Note_on_c, 0, 54, 100
2, 12980640, Note_on_c, 0, 54, 0
2, 12980640, Note_on_c, 0, 57, 100
2, 12980760, Note_on_c, 0, 57, 0
2, 12980760, Note_on_c, 0, 55, 100
2, 12980880, Note_on_c, 0, 55, 0
2, 12980880, Note_on_c, 0, 59, 100
2, 12981000, Note_on_c, 0, 59, 0
2, 12981000, Note_on_c, 0, 57, 100
2, 12981120, Note_on_c, 0, 57, 0
2, 12981120, Note_on_c, 0, 61, 100
2, 12981240, Note_on_c, 0, 61, 0
2, 12981240, Note_on_c, 0, 59, 100
2, 12981360, Note_on_c, 0, 59, 0
2, 12981360, Note_on_c, 0, 62, 100
2, 12981480, Note_on_c, 0, 62, 0
2, 12981480, Note_on_c, 0, 61, 100
2, 12981600, Note_on_c, 0, 61, 0
2, 12981600, Note_on_c, 0, 64, 100
2, 12981720, Note_on_c, 0, 64, 0
2, 12981720, Note_on_c, 0, 62, 100
2, 12981840, Note_on_c, 0, 62, 0
2, 12981840, Note_on_c, 0, 66, 100
2, 12981960, Note_on_c, 0, 66, 0
2, 12981960, Note_on_c, 0, 64, 100
2, 12982080, Note_on_c, 0, 64, 0
2, 12982080, Note_on_c, 0, 67, 100
2, 12982200, Note_on_c, 0, 67, 0
2, 12982200, Note_on_c, 0, 66, 100
2, 12982320, Note_on_c, 0, 66, 0
2, 12982320, Note_on_c, 0, 69, 100
2, 12982440, Note_on_c, 0, 69, 0
2, 12982440, Note_on_c, 0, 67, 100
2, 12982560, Note_on_c, 0, 67, 0
2, 12982560, Note_on_c, 0, 71, 100
2, 12982680, Note_on_c, 0, 71, 0
2, 12982680, Note_on_c, 0, 69, 100
2, 12982800, Note_on_c, 0, 69, 0
2, 12982800, Note_on_c, 0, 73, 100
2, 12982920, Note_on_c, 0, 73, 0
2, 12982920, Note_on_c, 0, 71, 100
2, 12983040, Note_on_c, 0, 71, 0
2, 12983040, Note_on_c, 0, 74, 100
2, 12983160, Note_on_c, 0, 74, 0
2, 12983160, Note_on_c, 0, 73, 100
2, 12983280, Note_on_c, 0, 73, 0
2, 12983280, Note_on_c, 0, 76, 100
2, 12983400, Note_on_c, 0, 76, 0
2, 12983400, Note_on_c, 0, 74, 100
2, 12983520, Note_on_c, 0, 74, 0
2, 12983520, Note_on_c, 0, 73, 100
2, 12983640, Note_on_c, 0, 73, 0
2, 12983640, Note_on_c, 0, 74, 100
2, 12983760, Note_on_c, 0, 74, 0
2, 12983760, Note_on_c, 0, 73, 100
2, 12983880, Note_on_c, 0, 73, 0
2, 12983880, Note_on_c, 0, 74, 100
2, 12984000, Note_on_c, 0, 74, 0
2, 12984000, Note_on_c, 0, 71, 100
2, 12985080, Note_on_c, 0, 71, 0
2, 12985080, Note_on_c, 0, 72, 100
2, 12985200, Note_on_c, 0, 72, 0
2, 12985200, Note_on_c, 0, 69, 100
2, 12985320, Note_on_c, 0, 69, 0
2, 12985320, Note_on_c, 0, 71, 100
2, 12985440, Note_on_c, 0, 71, 0
2, 12985440, Note_on_c, 0, 67, 100
2, 12985560, Note_on_c, 0, 67, 0
2, 12985560, Note_on_c, 0, 69, 100
2, 12985680, Note_on_c, 0, 69, 0
2, 12985680, Note_on_c, 0, 65, 100
2, 12985800, Note_on_c, 0, 65, 0
2, 12985800, Note_on_c, 0, 67, 100
2, 12985920, Note_on_c, 0, 67, 0
2, 12985920, Note_on_c, 0, 64, 100
2, 12986040, Note_on_c, 0, 64, 0
2, 12986040, Note_on_c, 0, 65, 100
2, 12986160, Note_on_c, 0, 65, 0
2, 12986160, Note_on_c, 0, 62, 100
2, 12986280, Note_on_c, 0, 62, 0
2, 12986280, Note_on_c, 0, 64, 100
2, 12986400, Note_on_c, 0, 64, 0
2, 12986400, Note_on_c, 0, 60, 100
2, 12986520, Note_on_c, 0, 60, 0
2, 12986520, Note_on_c, 0, 62, 100
2, 12986640, Note_on_c, 0, 62, 0
2, 12986640, Note_on_c, 0, 59, 100
2, 12986760, Note_on_c, 0, 59, 0
2, 12986760, Note_on_c, 0, 60, 100
2, 12986880, Note_on_c, 0, 60, 0
2, 12986880, Note_on_c, 0, 57, 100
2, 12987000, Note_on_c, 0, 57, 0
2, 12987000, Note_on_c, 0, 59, 100
2, 12987120, Note_on_c, 0, 59, 0
2, 12987120, Note_on_c, 0, 55, 100
2, 12987240, Note_on_c, 0, 55, 0
2, 12987240, Note_on_c, 0, 57, 100
2, 12987360, Note_on_c, 0, 57, 0
2, 12987360, Note_on_c, 0, 54, 100
2, 12987480, Note_on_c, 0, 54, 0
2, 12987480, Note_on_c, 0, 55, 100
2, 12987600, Note_on_c, 0, 55, 0
2, 12987600, Note_on_c, 0, 52, 100
2, 12987720, Note_on_c, 0, 52, 0
2, 12987720, Note_on_c, 0, 54, 100
2, 12987840, Note_on_c, 0, 54, 0
2, 12987840, Note_on_c, 0, 50, 100
2, 12987960, Note_on_c, 0, 50, 0
2, 12987960, Note_on_c, 0, 52, 100
2, 12988080, Note_on_c, 0, 52, 0
2, 12988080, Note_on_c, 0, 48, 100
2, 12988200, Note_on_c, 0, 48, 0
2, 12988200, Note_on_c, 0, 50, 100
2, 12988320, Note_on_c, 0, 50, 0
2, 12988320, Note_on_c, 0, 47, 100
2, 12988440, Note_on_c, 0, 47, 0
2, 12988440, Note_on_c, 0, 48, 100
2, 12988560, Note_on_c, 0, 48, 0
2, 12988560, Note_on_c, 0, 45, 100
2, 12988680, Note_on_c, 0, 45, 0
2, 12988680, Note_on_c, 0, 47, 100
2, 12988800, Note_on_c, 0, 47, 0
2, 12988800, Note_on_c, 0, 43, 100
2, 12988920, Note_on_c, 0, 43, 0
2, 12988920, Note_on_c, 0, 45, 100
2, 12989040, Note_on_c, 0, 45, 0
2, 12989040, Note_on_c, 0, 42, 100
2, 12989160, Note_on_c, 0, 42, 0
2, 12989160, Note_on_c, 0, 43, 100
2, 12989280, Note_on_c, 0, 43, 0
2, 12989280, Note_on_c, 0, 42, 100
2, 12989400, Note_on_c, 0, 42, 0
2, 12989400, Note_on_c, 0, 43, 100
2, 12989520, Note_on_c, 0, 43, 0
2, 12989520, Note_on_c, 0, 42, 100
2, 12989640, Note_on_c, 0, 42, 0
2, 12989640, Note_on_c, 0, 43, 100
2, 12989760, Note_on_c, 0, 43, 0
2, 12989760, Note_on_c, 0, 50, 100
2, 12990360, Note_on_c, 0, 50, 0
2, 12990360, Note_on_c, 0, 55, 100
2, 12990480, Note_on_c, 0, 55, 0
2, 12990480, Note_on_c, 0, 54, 100
2, 12990600, Note_on_c, 0, 54, 0
2, 12990600, Note_on_c, 0, 55, 100
2, 12990720, Note_on_c, 0, 55, 0
2, 12990720, Note_on_c, 0, 59, 100
2, 12990840, Note_on_c, 0, 59, 0
2, 12990840, Note_on_c, 0, 62, 100
2, 12990960, Note_on_c, 0, 62, 0
2, 12990960, Note_on_c, 0, 66, 100
2, 12991080, Note_on_c, 0, 66, 0
2, 12991080, Note_on_c, 0, 67, 100
2, 12991200, Note_on_c, 0, 67, 0
2, 12991200, Note_on_c, 0, 69, 100
2, 12991560, Note_on_c, 0, 69, 0
2, 12991560, Note_on_c, 0, 71, 100
2, 12991680, Note_on_c, 0, 71, 0
2, 12991680, Note_on_c, 0, 73, 100
2, 12991800, Note_on_c, 0, 73, 0
2, 12991800, Note_on_c, 0, 74, 100
2, 12991920, Note_on_c, 0, 74, 0
2, 12991920, Note_on_c, 0, 71, 100
2, 12992040, Note_on_c, 0, 71, 0
2, 12992040, Note_on_c, 0, 73, 100
2, 12992160, Note_on_c, 0, 73, 0
2, 12992160, Note_on_c, 0, 71, 100
2, 12992280, Note_on_c, 0, 71, 0
2, 12992280, Note_on_c, 0, 69, 100
2, 12992400, Note_on_c, 0, 69, 0
2, 12992400, Note_on_c, 0, 67, 100
2, 12992520, Note_on_c, 0, 67, 0
2, 12992520, Note_on_c, 0, 66, 100
2, 12992640, Note_on_c, 0, 66, 0
2, 12992640, Note_on_c, 0, 64, 100
2, 12992760, Note_on_c, 0, 64, 0
2, 12992760, Note_on_c, 0, 63, 100
2, 12992880, Note_on_c, 0, 63, 0
2, 12992880, Note_on_c, 0, 61, 100
2, 12993000, Note_on_c, 0, 61, 0
2, 12993000, Note_on_c, 0, 59, 100
2, 12993120, Note_on_c, 0, 59, 0
2, 12993120, Note_on_c, 0, 57, 100
2, 12993240, Note_on_c, 0, 57, 0
2, 12993240, Note_on_c, 0, 55, 100
2, 12993360, Note_on_c, 0, 55, 0
2, 12993360, Note_on_c, 0, 54, 100
2, 12993480, Note_on_c, 0, 54, 0
2, 12993480, Note_on_c, 0, 52, 100
2, 12993600, Note_on_c, 0, 52, 0
2, 12993600, Note_on_c, 0, 55, 100
2, 12993720, Note_on_c, 0, 55, 0
2, 12993720, Note_on_c, 0, 59, 100
2, 12993840, Note_on_c, 0, 59, 0
2, 12993840, Note_on_c, 0, 63, 100
2, 12993960, Note_on_c, 0, 63, 0
2, 12993960, Note_on_c, 0, 64, 100
2, 12994080, Note_on_c, 0, 64, 0
2, 12994080, Note_on_c, 0, 66, 100
2, 12994440, Note_on_c, 0, 66, 0
2, 12994440, Note_on_c, 0, 67, 100
2, 12994560, Note_on_c, 0, 67, 0
2, 12994560, Note_on_c, 0, 69, 100
2, 12994680, Note_on_c, 0, 69, 0
2, 12994680, Note_on_c, 0, 71, 100
2, 12994800, Note_on_c, 0, 71, 0
2, 12994800, Note_on_c, 0, 67, 100
2, 12994920, Note_on_c, 0, 67, 0
2, 12994920, Note_on_c, 0, 69, 100
2, 12995040, Note_on_c, 0, 69, 0
2, 12995040, Note_on_c, 0, 62, 100
2, 12995160, Note_on_c, 0, 62, 0
2, 12995160, Note_on_c, 0, 61, 100
2, 12995280, Note_on_c, 0, 61, 0
2, 12995280, Note_on_c, 0, 59, 100
2, 12995400, Note_on_c, 0, 59, 0
2, 12995400, Note_on_c, 0, 61, 100
2, 12995520, Note_on_c, 0, 61, 0
2, 12995520, Note_on_c, 0, 64, 100
2, 12995640, Note_on_c, 0, 64, 0
2, 12995640, Note_on_c, 0, 69, 100
2, 12995760, Note_on_c, 0, 69, 0
2, 12995760, Note_on_c, 0, 71, 100
2, 12995880, Note_on_c, 0, 71, 0
2, 12995880, Note_on_c, 0, 73, 100
2, 12996000, Note_on_c, 0, 73, 0
2, 12996000, Note_on_c, 0, 76, 100
2, 12996120, Note_on_c, 0, 76, 0
2, 12996120, Note_on_c, 0, 79, 100
2, 12996240, Note_on_c, 0, 79, 0
2, 12996240, Note_on_c, 0, 71, 100
2, 12996360, Note_on_c, 0, 71, 0
2, 12996360, Note_on_c, 0, 69, 100
2, 12996480, Note_on_c, 0, 69, 0
2, 12996480, Note_on_c, 0, 78, 100
2, 12996600, Note_on_c, 0, 78, 0
2, 12996600, Note_on_c, 0, 67, 100
2, 12996720, Note_on_c, 0, 67, 0
2, 12996720, Note_on_c, 0, 76, 100
2, 12996840, Note_on_c, 0, 76, 0
2, 12996840, Note_on_c, 0, 66, 100
2, 12996960, Note_on_c, 0, 66, 0
2, 12996960, Note_on_c, 0, 74, 100
2, 12997080, Note_on_c, 0, 74, 0
2, 12997080, Note_on_c, 0, 64, 100
2, 12997200, Note_on_c, 0, 64, 0
2, 12997200, Note_on_c, 0, 72, 100
2, 12997320, Note_on_c, 0, 72, 0
2, 12997320, Note_on_c, 0, 62, 100
2, 12997440, Note_on_c, 0, 62, 0
2, 12997440, Note_on_c, 0, 71, 100
2, 12997560, Note_on_c, 0, 71, 0
2, 12997560, Note_on_c, 0, 60, 100
2, 12997680, Note_on_c, 0, 60, 0
2, 12997680, Note_on_c, 0, 69, 100
2, 12997800, Note_on_c, 0, 69, 0
2, 12997800, Note_on_c, 0, 59, 100
2, 12997920, Note_on_c, 0, 59, 0
2, 12997920, Note_on_c, 0, 67, 100
2, 12998040, Note_on_c, 0, 67, 0
2, 12998040, Note_on_c, 0, 57, 100
2, 12998160, Note_on_c, 0, 57, 0
2, 12998160, Note_on_c, 0, 66, 100
2, 12998280, Note_on_c, 0, 66, 0
2, 12998280, Note_on_c, 0, 55, 100
2, 12998400, Note_on_c, 0, 55, 0
2, 12998400, Note_on_c, 0, 64, 100
2, 12998520, Note_on_c, 0, 64, 0
2, 12998520, Note_on_c, 0, 54, 100
2, 12998640, Note_on_c, 0, 54, 0
2, 12998640, Note_on_c, 0, 62, 100
2, 12998760, Note_on_c, 0, 62, 0
2, 12998760, Note_on_c, 0, 52, 100
2, 12998880, Note_on_c, 0, 52, 0
2, 12998880, Note_on_c, 0, 61, 100
2, 12999000, Note_on_c, 0, 61, 0
2, 12999000, Note_on_c, 0, 50, 100
2, 12999120, Note_on_c, 0, 50, 0
2, 12999120, Note_on_c, 0, 59, 100
2, 12999240, Note_on_c, 0, 59, 0
2, 12999240, Note_on_c, 0, 49, 100
2, 12999360, Note_on_c, 0, 49, 0
2, 12999360, Note_on_c, 0, 57, 100
2, 12999480, Note_on_c, 0, 57, 0
2, 12999480, Note_on_c, 0, 47, 100
2, 12999600, Note_on_c, 0, 47, 0
2, 12999600, Note_on_c, 0, 55, 100
2, 12999720, Note_on_c, 0, 55, 0
2, 12999720, Note_on_c, 0, 45, 100
2, 12999840, Note_on_c, 0, 45, 0
2, 12999840, Note_on_c, 0, 54, 100
2, 12999960, Note_on_c, 0, 54, 0
2, 12999960, Note_on_c, 0, 43, 100
2, 13000080, Note_on_c, 0, 43, 0
2, 13000080, Note_on_c, 0, 52, 100
2, 13000200, Note_on_c, 0, 52, 0
2, 13000200, Note_on_c, 0, 42, 100
2, 13000320, Note_on_c, 0, 42, 0
2, 13000320, Note_on_c, 0, 50, 100
2, 13000440, Note_on_c, 0, 50, 0
2, 13000440, Note_on_c, 0, 40, 100
2, 13000560, Note_on_c, 0, 40, 0
2, 13000560, Note_on_c, 0, 49, 100
2, 13000680, Note_on_c, 0, 49, 0
2, 13000680, Note_on_c, 0, 50, 100
2, 13000800, Note_on_c, 0, 50, 0
2, 13000800, Note_on_c, 0, 49, 100
2, 13000920, Note_on_c, 0, 49, 0
2, 13000920, Note_on_c, 0, 50, 100
2, 13001040, Note_on_c, 0, 50, 0
2, 13001040, Note_on_c, 0, 49, 100
2, 13001160, Note_on_c, 0, 49, 0
2, 13001160, Note_on_c, 0, 50, 100
2, 13001280, Note_on_c, 0, 50, 0
2, 13001280, Note_on_c, 0, 45, 100
2, 13001400, Note_on_c, 0, 45, 0
2, 13001400, Note_on_c, 0, 42, 100
2, 13001520, Note_on_c, 0, 42, 0
2, 13001520, Note_on_c, 0, 45, 100
2, 13001640, Note_on_c, 0, 45, 0
2, 13001640, Note_on_c, 0, 38, 100
2, 13001760, Note_on_c, 0, 38, 0
2, 13001760, Note_on_c, 0, 43, 100
2, 13002240, Note_on_c, 0, 43, 0
2, 13002240, Note_on_c, 0, 47, 100
2, 13002360, Note_on_c, 0, 47, 0
2, 13002360, Note_on_c, 0, 45, 100
2, 13002480, Note_on_c, 0, 45, 0
2, 13002480, Note_on_c, 0, 48, 100
2, 13002600, Note_on_c, 0, 48, 0
2, 13002600, Note_on_c, 0, 47, 100
2, 13002720, Note_on_c, 0, 47, 0
2, 13002720, Note_on_c, 0, 50, 100
2, 13002840, Note_on_c, 0, 50, 0
2, 13002840, Note_on_c, 0, 48, 100
2, 13002960, Note_on_c, 0, 48, 0
2, 13002960, Note_on_c, 0, 52, 100
2, 13003080, Note_on_c, 0, 52, 0
2, 13003080, Note_on_c, 0, 50, 100
2, 13003200, Note_on_c, 0, 50, 0
2, 13003200, Note_on_c, 0, 54, 100
2, 13003320, Note_on_c, 0, 54, 0
2, 13003320, Note_on_c, 0, 52, 100
2, 13003440, Note_on_c, 0, 52, 0
2, 13003440, Note_on_c, 0, 55, 100
2, 13003560, Note_on_c, 0, 55, 0
2, 13003560, Note_on_c, 0, 54, 100
2, 13003680, Note_on_c, 0, 54, 0
2, 13003680, Note_on_c, 0, 57, 100
2, 13003800, Note_on_c, 0, 57, 0
2, 13003800, Note_on_c, 0, 55, 100
2, 13003920, Note_on_c, 0, 55, 0
2, 13003920, Note_on_c, 0, 59, 100
2, 13004040, Note_on_c, 0, 59, 0
2, 13004040, Note_on_c, 0, 57, 100
2, 13004160, Note_on_c, 0, 57, 0
2, 13004160, Note_on_c, 0, 61, 100
2, 13004280, Note_on_c, 0, 61, 0
2, 13004280, Note_on_c, 0, 59, 100
2, 13004400, Note_on_c, 0, 59, 0
2, 13004400, Note_on_c, 0, 62, 100
2, 13004520, Note_on_c, 0, 62, 0
2, 13004520, Note_on_c, 0, 61, 100
2, 13004640, Note_on_c, 0, 61, 0
2, 13004640, Note_on_c, 0, 64, 100
2, 13004760, Note_on_c, 0, 64, 0
2, 13004760, Note_on_c, 0, 62, 100
2, 13004880, Note_on_c, 0, 62, 0
2, 13004880, Note_on_c, 0, 66, 100
2, 13005000, Note_on_c, 0, 66, 0
2, 13005000, Note_on_c, 0, 64, 100
2, 13005120, Note_on_c, 0, 64, 0
2, 13005120, Note_on_c, 0, 67, 100
2, 13005240, Note_on_c, 0, 67, 0
2, 13005240, Note_on_c, 0, 66, 100
2, 13005360, Note_on_c, 0, 66, 0
2, 13005360, Note_on_c, 0, 69, 100
2, 13005480, Note_on_c, 0, 69, 0
2, 13005480, Note_on_c, 0, 67, 100
2, 13005600, Note_on_c, 0, 67, 0
2, 13005600, Note_on_c, 0, 71, 100
2, 13005720, Note_on_c, 0, 71, 0
2, 13005720, Note_on_c, 0, 69, 100
2, 13005840, Note_on_c, 0, 69, 0
2, 13005840, Note_on_c, 0, 73, 100
2, 13005960, Note_on_c, 0, 73, 0
2, 13005960, Note_on_c, 0, 71, 100
2, 13006080, Note_on_c, 0, 71, 0
2, 13006080, Note_on_c, 0, 74, 100
2, 13006200, Note_on_c, 0, 74, 0
2, 13006200, Note_on_c, 0, 73, 100
2, 13006320, Note_on_c, 0, 73, 0
2, 13006320, Note_on_c, 0, 76, 100
2, 13006440, Note_on_c, 0, 76, 0
2, 13006440, Note_on_c, 0, 74, 100
2, 13006560, Note_on_c, 0, 74, 0
2, 13006560, Note_on_c, 0, 73, 100
2, 13006680, Note_on_c, 0, 73, 0
2, 13006680, Note_on_c, 0, 74, 100
2, 13006800, Note_on_c, 0, 74, 0
2, 13006800, Note_on_c, 0, 73, 100
2, 13006920, Note_on_c, 0, 73, 0
2, 13006920, Note_on_c, 0, 74, 100
2, 13007040, Note_on_c, 0, 74, 0
2, 13007040, Note_on_c, 0, 71, 100
2, 13008120, Note_on_c, 0, 71, 0
2, 13008120, Note_on_c, 0, 72, 100
2, 13008240, Note_on_c, 0, 72, 0
2, 13008240, Note_on_c, 0, 69, 100
2, 13008360, Note_on_c, 0, 69, 0
2, 13008360, Note_on_c, 0, 71, 100
2, 13008480, Note_on_c, 0, 71, 0
2, 13008480, Note_on_c, 0, 67, 100
2, 13008600, Note_on_c, 0, 67, 0
2, 13008600, Note_on_c, 0, 69, 100
2, 13008720, Note_on_c, 0, 69, 0
2, 13008720, Note_on_c, 0, 65, 100
2, 13008840, Note_on_c, 0, 65, 0
2, 13008840, Note_on_c, 0, 67, 100
2, 13008960, Note_on_c, 0, 67, 0
2, 13008960, Note_on_c, 0, 64, 100
2, 13009080, Note_on_c, 0, 64, 0
2, 13009080, Note_on_c, 0, 65, 100
2, 13009200, Note_on_c, 0, 65, 0
2, 13009200, Note_on_c, 0, 62, 100
2, 13009320, Note_on_c, 0, 62, 0
2, 13009320, Note_on_c, 0, 64, 100
2, 13009440, Note_on_c, 0, 64, 0
2, 13009440, Note_on_c, 0, 60, 100
2, 13009560, Note_on_c, 0, 60, 0
2, 13009560, Note_on_c, 0, 62, 100
2, 13009680, Note_on_c, 0, 62, 0
2, 13009680, Note_on_c, 0, 59, 100
2, 13009800, Note_on_c, 0, 59, 0
2, 13009800, Note_on_c, 0, 60, 100
2, 13009920, Note_on_c, 0, 60, 0
2, 13009920, Note_on_c, 0, 57, 100
2, 13010040, Note_on_c, 0, 57, 0
2, 13010040, Note_on_c, 0, 59, 100
2, 13010160, Note_on_c, 0, 59, 0
2, 13010160, Note_on_c, 0, 55, 100
2, 13010280, Note_on_c, 0, 55, 0
2, 13010280, Note_on_c, 0, 57, 100
2, 13010400, Note_on_c, 0, 57, 0
2, 13010400, Note_on_c, 0, 54, 100
2, 13010520, Note_on_c, 0, 54, 0
2, 13010520, Note_on_c, 0, 55, 100
2, 13010640, Note_on_c, 0, 55, 0
2, 13010640, Note_on_c, 0, 52, 100
2, 13010760, Note_on_c, 0, 52, 0
2, 13010760, Note_on_c, 0, 54, 100
2, 13010880, Note_on_c, 0, 54, 0
2, 13010880, Note_on_c, 0, 50, 100
2, 13011000, Note_on_c, 0, 50, 0
2, 13011000, Note_on_c, 0, 52, 100
2, 13011120, Note_on_c, 0, 52, 0
2, 13011120, Note_on_c, 0, 48, 100
2, 13011240, Note_on_c, 0, 48, 0
2, 13011240, Note_on_c, 0, 50, 100
2, 13011360, Note_on_c, 0, 50, 0
2, 13011360, Note_on_c, 0, 47, 100
2, 13011480, Note_on_c, 0, 47, 0
2, 13011480, Note_on_c, 0, 48, 100
2, 13011600, Note_on_c, 0, 48, 0
2, 13011600, Note_on_c, 0, 45, 100
2, 13011720, Note_on_c, 0, 45, 0
2, 13011720, Note_on_c, 0, 47, 100
2, 13011840, Note_on_c, 0, 47, 0
2, 13011840, Note_on_c, 0, 43, 100
2, 13011960, Note_on_c, 0, 43, 0
2, 13011960, Note_on_c, 0, 45, 100
2, 13012080, Note_on_c, 0, 45, 0
2, 13012080, Note_on_c, 0, 42, 100
2, 13012200, Note_on_c, 0, 42, 0
2, 13012200, Note_on_c, 0, 43, 100
2, 13012320, Note_on_c, 0, 43, 0
2, 13012320, Note_on_c, 0, 42, 100
2, 13012440, Note_on_c, 0, 42, 0
2, 13012440, Note_on_c, 0, 43, 100
2, 13012560, Note_on_c, 0, 43, 0
2, 13012560, Note_on_c, 0, 42, 100
2, 13012680, Note_on_c, 0, 42, 0
2, 13012680, Note_on_c, 0, 43, 100
2, 13012800, Note_on_c, 0, 43, 0
2, 13012800, Note_on_c, 0, 50, 100
2, 13013400, Note_on_c, 0, 50, 0
2, 13013400, Note_on_c, 0, 55, 100
2, 13013520, Note_on_c, 0, 55, 0
2, 13013520, Note_on_c, 0, 54, 100
2, 13013640, Note_on_c, 0, 54, 0
2, 13013640, Note_on_c, 0, 55, 100
2, 13013760, Note_on_c, 0, 55, 0
2, 13013760, Note_on_c, 0, 59, 100
2, 13013880, Note_on_c, 0, 59, 0
2, 13013880, Note_on_c, 0, 62, 100
2, 13014000, Note_on_c, 0, 62, 0
2, 13014000, Note_on_c, 0, 66, 100
2, 13014120, Note_on_c, 0, 66, 0
2, 13014120, Note_on_c, 0, 67, 100
2, 13014240, Note_on_c, 0, 67, 0
2, 13014240, Note_on_c, 0, 69, 100
2, 13014600, Note_on_c, 0, 69, 0
2, 13014600, Note_on_c, 0, 71, 100
2, 13014720, Note_on_c, 0, 71, 0
2, 13014720, Note_on_c, 0, 73, 100
2, 13014840, Note_on_c, 0, 73, 0
2, 13014840, Note_on_c, 0, 74, 100
2, 13014960, Note_on_c, 0, 74, 0
2, 13014960, Note_on_c, 0, 71, 100
2, 13015080, Note_on_c, 0, 71, 0
2, 13015080, Note_on_c, 0, 73, 100
2, 13015200, Note_on_c, 0, 73, 0
2, 13015200, Note_on_c, 0, 71, 100
2, 13015320, Note_on_c, 0, 71, 0
2, 13015320, Note_on_c, 0, 69, 100
2, 13015440, Note_on_c, 0, 69, 0
2, 13015440, Note_on_c, 0, 67, 100
2, 13015560, Note_on_c, 0, 67, 0
2, 13015560, Note_on_c, 0, 66, 100
2, 13015680, Note_on_c, 0, 66, 0
2, 13015680, Note_on_c, 0, 64, 100
2, 13015800, Note_on_c, 0, 64, 0
2, 13015800, Note_on_c, 0, 63, 100
2, 13015920, Note_on_c, 0, 63, 0
2, 13015920, Note_on_c, 0, 61, 100
2, 13016040, Note_on_c, 0, 61, 0
2, 13016040, Note_on_c, 0, 59, 100
2, 13016160, Note_on_c, 0, 59, 0
2, 13016160, Note_on_c, 0, 57, 100
2, 13016280, Note_on_c, 0, 57, 0
2, 13016280, Note_on_c, 0, 55, 100
2, 13016400, Note_on_c, 0, 55, 0
2, 13016400, Note_on_c, 0, 54, 100
2, 13016520, Note_on_c, 0, 54, 0
2, 13016520, Note_on_c, 0, 52, 100
2, 13016640, Note_on_c, 0, 52, 0
2, 13016640, Note_on_c, 0, 55, 100
2, 13016760, Note_on_c, 0, 55, 0
2, 13016760, Note_on_c, 0, 59, 100
2, 13016880, Note_on_c, 0, 59, 0
2, 13016880, Note_on_c, 0, 63, 100
2, 13017000, Note_on_c, 0, 63, 0
2, 13017000, Note_on_c, 0, 64, 100
2, 13017120, Note_on_c, 0, 64, 0
2, 13017120, Note_on_c, 0, 66, 100
2, 13017480, Note_on_c, 0, 66, 0
2, 13017480, Note_on_c, 0, 67, 100
2, 13017600, Note_on_c, 0, 67, 0
2, 13017600, Note_on_c, 0, 69, 100
2, 13017720, Note_on_c, 0, 69, 0
2, 13017720, Note_on_c, 0, 71, 100
2, 13017840, Note_on_c, 0, 71, 0
2, 13017840, Note_on_c, 0, 67, 100
2, 13017960, Note_on_c, 0, 67, 0
2, 13017960, Note_on_c, 0, 69, 100
2, 13018080, Note_on_c, 0, 69, 0
2, 13018080, Note_on_c, 0, 62, 100
2, 13018200, Note_on_c, 0, 62, 0
2, 13018200, Note_on_c, 0, 61, 100
2, 13018320, Note_on_c, 0, 61, 0
2, 13018320, Note_on_c, 0, 59, 100
2, 13018440, Note_on_c, 0, 59, 0
2, 13018440, Note_on_c, 0, 61, 100
2, 13018560, Note_on_c, 0, 61, 0
2, 13018560, Note_on_c, 0, 64, 100
2, 13018680, Note_on_c, 0, 64, 0
2, 13018680, Note_on_c, 0, 69, 100
2, 13018800, Note_on_c, 0, 69, 0
2, 13018800, Note_on_c, 0, 71, 100
2, 13018920, Note_on_c, 0, 71, 0
2, 13018920, Note_on_c, 0, 73, 100
2, 13019040, Note_on_c, 0, 73, 0
2, 13019040, Note_on_c, 0, 76, 100
2, 13019160, Note_on_c, 0, 76, 0
2, 13019160, Note_on_c, 0, 79, 100
2, 13019280, Note_on_c, 0, 79, 0
2, 13019280, Note_on_c, 0, 71, 100
2, 13019400, Note_on_c, 0, 71, 0
2, 13019400, Note_on_c, 0, 69, 100
2, 13019520, Note_on_c, 0, 69, 0
2, 13019520, Note_on_c, 0, 78, 100
2, 13019640, Note_on_c, 0, 78, 0
2, 13019640, Note_on_c, 0, 67, 100
2, 13019760, Note_on_c, 0, 67, 0
2, 13019760, Note_on_c, 0, 76, 100
2, 13019880, Note_on_c, 0, 76, 0
2, 13019880, Note_on_c, 0, 66, 100
2, 13020000, Note_on_c, 0, 66, 0
2, 13020000, Note_on_c, 0, 74, 100
2, 13020120, Note_on_c, 0, 74, 0
2, 13020120, Note_on_c, 0, 64, 100
2, 13020240, Note_on_c, 0, 64, 0
2, 13020240, Note_on_c, 0, 72, 100
2, 13020360, Note_on_c, 0, 72, 0
2, 13020360, Note_on_c, 0, 62, 100
2, 13020480, Note_on_c, 0, 62, 0
2, 13020480, Note_on_c, 0, 71, 100
2, 13020600, Note_on_c, 0, 71, 0
2, 13020600, Note_on_c, 0, 60, 100
2, 13020720, Note_on_c, 0, 60, 0
2, 13020720, Note_on_c, 0, 69, 100
2, 13020840, Note_on_c, 0, 69, 0
2, 13020840, Note_on_c, 0, 59, 100
2, 13020960, Note_on_c, 0, 59, 0
2, 13020960, Note_on_c, 0, 67, 100
2, 13021080, Note_on_c, 0, 67, 0
2, 13021080, Note_on_c, 0, 57, 100
2, 13021200, Note_on_c, 0, 57, 0
2, 13021200, Note_on_c, 0, 66, 100
2, 13021320, Note_on_c, 0, 66, 0
2, 13021320, Note_on_c, 0, 55, 100
2, 13021440, Note_on_c, 0, 55, 0
2, 13021440, Note_on_c, 0, 64, 100
2, 13021560, Note_on_c, 0, 64, 0
2, 13021560, Note_on_c, 0, 54, 100
2, 13021680, Note_on_c, 0, 54, 0
2, 13021680, Note_on_c, 0, 62, 100
2, 13021800, Note_on_c, 0, 62, 0
2, 13021800, Note_on_c, 0, 52, 100
2, 13021920, Note_on_c, 0, 52, 0
2, 13021920, Note_on_c, 0, 61, 100
2, 13022040, Note_on_c, 0, 61, 0
2, 13022040, Note_on_c, 0, 50, 100
2, 13022160, Note_on_c, 0, 50, 0
2, 13022160, Note_on_c, 0, 59, 100
2, 13022280, Note_on_c, 0, 59, 0
2, 13022280, Note_on_c, 0, 49, 100
2, 13022400, Note_on_c, 0, 49, 0
2, 13022400, Note_on_c, 0, 57, 100
2, 13022520, Note_on_c, 0, 57, 0
2, 13022520, Note_on_c, 0, 47, 100
2, 13022640, Note_on_c, 0, 47, 0
2, 13022640, Note_on_c, 0, 55, 100
2, 13022760, Note_on_c, 0, 55, 0
2, 13022760, Note_on_c, 0, 45, 100
2, 13022880, Note_on_c, 0, 45, 0
2, 13022880, Note_on_c, 0, 54, 100
2, 13023000, Note_on_c, 0, 54, 0
2, 13023000, Note_on_c, 0, 43, 100
2, 13023120, Note_on_c, 0, 43, 0
2, 13023120, Note_on_c, 0, 52, 100
2, 13023240, Note_on_c, 0, 52, 0
2, 13023240, Note_on_c, 0, 42, 100
2, 13023360, Note_on_c, 0, 42, 0
2, 13023360, Note_on_c, 0, 50, 100
2, 13023480, Note_on_c, 0, 50, 0
2, 13023480, Note_on_c, 0, 40, 100
2, 13023600, Note_on_c, 0, 40, 0
2, 13023600, Note_on_c, 0, 49, 100
2, 13023720, Note_on_c, 0, 49, 0
2, 13023720, Note_on_c, 0, 50, 100
2, 13023840, Note_on_c, 0, 50, 0
2, 13023840, Note_on_c, 0, 49, 100
2, 13023960, Note_on_c, 0, 49, 0
2, 13023960, Note_on_c, 0, 50, 100
2, 13024080, Note_on_c, 0, 50, 0
2, 13024080, Note_on_c, 0, 49, 100
2, 13024200, Note_on_c, 0, 49, 0
2, 13024200, Note_on_c, 0, 50, 100
2, 13024320, Note_on_c, 0, 50, 0
2, 13024320, Note_on_c, 0, 45, 100
2, 13024440, Note_on_c, 0, 45, 0
2, 13024440, Note_on_c, 0, 42, 100
2, 13024560, Note_on_c, 0, 42, 0
2, 13024560, Note_on_c, 0, 45, 100
2, 13024680, Note_on_c, 0, 45, 0
2, 13024680, Note_on_c, 0, 38, 100
2, 13025280, Note_on_c, 0, 38, 0
2, 13025280, Note_on_c, 0, 42, 100
2, 13025400, Note_on_c, 0, 42, 0
2, 13025400, Note_on_c, 0, 45, 100
2, 13025520, Note_on_c, 0, 45, 0
2, 13025520, Note_on_c, 0, 49, 100
2, 13025640, Note_on_c, 0, 49, 0
2, 13025640, Note_on_c, 0, 50, 100
2, 13025760, Note_on_c, 0, 50, 0
2, 13025760, Note_on_c, 0, 52, 100
2, 13026120, Note_on_c, 0, 52, 0
2, 13026120, Note_on_c, 0, 54, 100
2, 13026240, Note_on_c, 0, 54, 0
2, 13026240, Note_on_c, 0, 55, 100
2, 13026360, Note_on_c, 0, 55, 0
2, 13026360, Note_on_c, 0, 57, 100
2, 13026480, Note_on_c, 0, 57, 0
2, 13026480, Note_on_c, 0, 54, 100
2, 13026600, Note_on_c, 0, 54, 0
2, 13026600, Note_on_c, 0, 55, 100
2, 13026720, Note_on_c, 0, 55, 0
2, 13026720, Note_on_c, 0, 47, 100
2, 13026840, Note_on_c, 0, 47, 0
2, 13026840, Note_on_c, 0, 48, 100
2, 13026960, Note_on_c, 0, 48, 0
2, 13026960, Note_on_c, 0, 50, 100
2, 13027080, Note_on_c, 0, 50, 0
2, 13027080, Note_on_c, 0, 43, 100
2, 13027200, Note_on_c, 0, 43, 0
2, 13027200, Note_on_c, 0, 54, 100
2, 13027560, Note_on_c, 0, 54, 0
2, 13027560, Note_on_c, 0, 55, 100
2, 13027680, Note_on_c, 0, 55, 0
2, 13027680, Note_on_c, 0, 57, 100
2, 13027800, Note_on_c, 0, 57, 0
2, 13027800, Note_on_c, 0, 59, 100
2, 13027920, Note_on_c, 0, 59, 0
2, 13027920, Note_on_c, 0, 56, 100
2, 13028040, Note_on_c, 0, 56, 0
2, 13028040, Note_on_c, 0, 57, 100
2, 13028160, Note_on_c, 0, 57, 0
2, 13028160, Note_on_c, 0, 48, 100
2, 13028280, Note_on_c, 0, 48, 0
2, 13028280, Note_on_c, 0, 50, 100
2, 13028400, Note_on_c, 0, 50, 0
2, 13028400, Note_on_c, 0, 52, 100
2, 13028520, Note_on_c, 0, 52, 0
2, 13028520, Note_on_c, 0, 45, 100
2, 13028640, Note_on_c, 0, 45, 0
2, 13028640, Note_on_c, 0, 56, 100
2, 13029000, Note_on_c, 0, 56, 0
2, 13029000, Note_on_c, 0, 57, 100
2, 13029120, Note_on_c, 0, 57, 0
2, 13029120, Note_on_c, 0, 59, 100
2, 13029240, Note_on_c, 0, 59, 0
2, 13029240, Note_on_c, 0, 60, 100
2, 13029360, Note_on_c, 0, 60, 0
2, 13029360, Note_on_c, 0, 58, 100
2, 13029480, Note_on_c, 0, 58, 0
2, 13029480, Note_on_c, 0, 59, 100
2, 13029600, Note_on_c, 0, 59, 0
2, 13029600, Note_on_c, 0, 58, 100
2, 13029720, Note_on_c, 0, 58, 0
2, 13029720, Note_on_c, 0, 59, 100
2, 13029840, Note_on_c, 0, 59, 0
2, 13029840, Note_on_c, 0, 58, 100
2, 13029960, Note_on_c, 0, 58, 0
2, 13029960, Note_on_c, 0, 59, 100
2, 13030080, Note_on_c, 0, 59, 0
2, 13030080, Note_on_c, 0, 54, 100
2, 13030200, Note_on_c, 0, 54, 0
2, 13030200, Note_on_c, 0, 55, 100
2, 13030320, Note_on_c, 0, 55, 0
2, 13030320, Note_on_c, 0, 57, 100
2, 13030440, Note_on_c, 0, 57, 0
2, 13030440, Note_on_c, 0, 47, 100
2, 13030560, Note_on_c, 0, 47, 0
2, 13030560, Note_on_c, 0, 64, 100
2, 13030800, Note_on_c, 0, 64, 0
2, 13030800, Note_on_c, 0, 63, 100
2, 13030860, Note_on_c, 0, 63, 0
2, 13030860, Note_on_c, 0, 60, 100
2, 13030920, Note_on_c, 0, 60, 0
2, 13030920, Note_on_c, 0, 63, 100
2, 13030980, Note_on_c, 0, 63, 0
2, 13030980, Note_on_c, 0, 64, 100
2, 13031040, Note_on_c, 0, 64, 0
2, 13031040, Note_on_c, 0, 67, 100
2, 13031160, Note_on_c, 0, 67, 0
2, 13031160, Note_on_c, 0, 66, 100
2, 13031280, Note_on_c, 0, 66, 0
2, 13031280, Note_on_c, 0, 69, 100
2, 13031400, Note_on_c, 0, 69, 0
2, 13031400, Note_on_c, 0, 67, 100
2, 13031520, Note_on_c, 0, 67, 0
2, 13031520, Note_on_c, 0, 66, 100
2, 13031640, Note_on_c, 0, 66, 0
2, 13031640, Note_on_c, 0, 64, 100
2, 13031760, Note_on_c, 0, 64, 0
2, 13031760, Note_on_c, 0, 67, 100
2, 13031880, Note_on_c, 0, 67, 0
2, 13031880, Note_on_c, 0, 66, 100
2, 13032000, Note_on_c, 0, 66, 0
2, 13032000, Note_on_c, 0, 63, 100
2, 13032120, Note_on_c, 0, 63, 0
2, 13032120, Note_on_c, 0, 64, 100
2, 13032240, Note_on_c, 0, 64, 0
2, 13032240, Note_on_c, 0, 61, 100
2, 13032360, Note_on_c, 0, 61, 0
2, 13032360, Note_on_c, 0, 63, 100
2, 13032480, Note_on_c, 0, 63, 0
2, 13032480, Note_on_c, 0, 61, 100
2, 13032600, Note_on_c, 0, 61, 0
2, 13032600, Note_on_c, 0, 59, 100
2, 13032720, Note_on_c, 0, 59, 0
2, 13032720, Note_on_c, 0, 62, 100
2, 13032840, Note_on_c, 0, 62, 0
2, 13032840, Note_on_c, 0, 60, 100
2, 13032960, Note_on_c, 0, 60, 0
2, 13032960, Note_on_c, 0, 57, 100
2, 13033080, Note_on_c, 0, 57, 0
2, 13033080, Note_on_c, 0, 59, 100
2, 13033200, Note_on_c, 0, 59, 0
2, 13033200, Note_on_c, 0, 56, 100
2, 13033320, Note_on_c, 0, 56, 0
2, 13033320, Note_on_c, 0, 57, 100
2, 13033440, Note_on_c, 0, 57, 0
2, 13033440, Note_on_c, 0, 55, 100
2, 13033560, Note_on_c, 0, 55, 0
2, 13033560, Note_on_c, 0, 54, 100
2, 13033680, Note_on_c, 0, 54, 0
2, 13033680, Note_on_c, 0, 57, 100
2, 13033800, Note_on_c, 0, 57, 0
2, 13033800, Note_on_c, 0, 55, 100
2, 13033920, Note_on_c, 0, 55, 0
2, 13033920, Note_on_c, 0, 52, 100
2, 13034040, Note_on_c, 0, 52, 0
2, 13034040, Note_on_c, 0, 54, 100
2, 13034160, Note_on_c, 0, 54, 0
2, 13034160, Note_on_c, 0, 51, 100
2, 13034280, Note_on_c, 0, 51, 0
2, 13034280, Note_on_c, 0, 52, 100
2, 13034400, Note_on_c, 0, 52, 0
2, 13034400, Note_on_c, 0, 51, 100
2, 13034520, Note_on_c, 0, 51, 0
2, 13034520, Note_on_c, 0, 49, 100
2, 13034640, Note_on_c, 0, 49, 0
2, 13034640, Note_on_c, 0, 52, 100
2, 13034760, Note_on_c, 0, 52, 0
2, 13034760, Note_on_c, 0, 51, 100
2, 13034880, Note_on_c, 0, 51, 0
2, 13034880, Note_on_c, 0, 52, 100
2, 13035000, Note_on_c, 0, 52, 0
2, 13035000, Note_on_c, 0, 54, 100
2, 13035120, Note_on_c, 0, 54, 0
2, 13035120, Note_on_c, 0, 51, 100
2, 13035240, Note_on_c, 0, 51, 0
2, 13035240, Note_on_c, 0, 52, 100
2, 13035360, Note_on_c, 0, 52, 0
2, 13035360, Note_on_c, 0, 43, 100
2, 13035480, Note_on_c, 0, 43, 0
2, 13035480, Note_on_c, 0, 45, 100
2, 13035600, Note_on_c, 0, 45, 0
2, 13035600, Note_on_c, 0, 47, 100
2, 13035720, Note_on_c, 0, 47, 0
2, 13035720, Note_on_c, 0, 40, 100
2, 13035840, Note_on_c, 0, 40, 0
2, 13035840, Note_on_c, 0, 42, 100
2, 13035960, Note_on_c, 0, 42, 0
2, 13035960, Note_on_c, 0, 43, 100
2, 13036080, Note_on_c, 0, 43, 0
2, 13036080, Note_on_c, 0, 45, 100
2, 13036200, Note_on_c, 0, 45, 0
2, 13036200, Note_on_c, 0, 47, 100
2, 13036320, Note_on_c, 0, 47, 0
2, 13036320, Note_on_c, 0, 48, 100
2, 13036440, Note_on_c, 0, 48, 0
2, 13036440, Note_on_c, 0, 50, 100
2, 13036560, Note_on_c, 0, 50, 0
2, 13036560, Note_on_c, 0, 47, 100
2, 13036680, Note_on_c, 0, 47, 0
2, 13036680, Note_on_c, 0, 48, 100
2, 13036800, Note_on_c, 0, 48, 0
2, 13036800, Note_on_c, 0, 52, 100
2, 13036920, Note_on_c, 0, 52, 0
2, 13036920, Note_on_c, 0, 50, 100
2, 13037040, Note_on_c, 0, 50, 0
2, 13037040, Note_on_c, 0, 53, 100
2, 13037160, Note_on_c, 0, 53, 0
2, 13037160, Note_on_c, 0, 52, 100
2, 13037280, Note_on_c, 0, 52, 0
2, 13037280, Note_on_c, 0, 55, 100
2, 13037400, Note_on_c, 0, 55, 0
2, 13037400, Note_on_c, 0, 54, 100
2, 13037520, Note_on_c, 0, 54, 0
2, 13037520, Note_on_c, 0, 57, 100
2, 13037640, Note_on_c, 0, 57, 0
2, 13037640, Note_on_c, 0, 56, 100
2, 13037760, Note_on_c, 0, 56, 0
2, 13037760, Note_on_c, 0, 59, 100
2, 13037880, Note_on_c, 0, 59, 0
2, 13037880, Note_on_c, 0, 57, 100
2, 13038000, Note_on_c, 0, 57, 0
2, 13038000, Note_on_c, 0, 60, 100
2, 13038120, Note_on_c, 0, 60, 0
2, 13038120, Note_on_c, 0, 59, 100
2, 13038240, Note_on_c, 0, 59, 0
2, 13038240, Note_on_c, 0, 62, 100
2, 13038360, Note_on_c, 0, 62, 0
2, 13038360, Note_on_c, 0, 60, 100
2, 13038480, Note_on_c, 0, 60, 0
2, 13038480, Note_on_c, 0, 64, 100
2, 13038600, Note_on_c, 0, 64, 0
2, 13038600, Note_on_c, 0, 62, 100
2, 13038720, Note_on_c, 0, 62, 0
2, 13038720, Note_on_c, 0, 65, 100
2, 13038840, Note_on_c, 0, 65, 0
2, 13038840, Note_on_c, 0, 64, 100
2, 13038960, Note_on_c, 0, 64, 0
2, 13038960, Note_on_c, 0, 68, 100
2, 13039080, Note_on_c, 0, 68, 0
2, 13039080, Note_on_c, 0, 66, 100
2, 13039200, Note_on_c, 0, 66, 0
2, 13039200, Note_on_c, 0, 69, 100
2, 13039320, Note_on_c, 0, 69, 0
2, 13039320, Note_on_c, 0, 68, 100
2, 13039440, Note_on_c, 0, 68, 0
2, 13039440, Note_on_c, 0, 71, 100
2, 13039560, Note_on_c, 0, 71, 0
2, 13039560, Note_on_c, 0, 69, 100
2, 13039680, Note_on_c, 0, 69, 0
2, 13039680, Note_on_c, 0, 72, 100
2, 13039800, Note_on_c, 0, 72, 0
2, 13039800, Note_on_c, 0, 71, 100
2, 13039920, Note_on_c, 0, 71, 0
2, 13039920, Note_on_c, 0, 74, 100
2, 13040040, Note_on_c, 0, 74, 0
2, 13040040, Note_on_c, 0, 72, 100
2, 13040160, Note_on_c, 0, 72, 0
2, 13040160, Note_on_c, 0, 69, 100
2, 13040280, Note_on_c, 0, 69, 0
2, 13040280, Note_on_c, 0, 71, 100
2, 13040400, Note_on_c, 0, 71, 0
2, 13040400, Note_on_c, 0, 67, 100
2, 13040520, Note_on_c, 0, 67, 0
2, 13040520, Note_on_c, 0, 69, 100
2, 13040640, Note_on_c, 0, 69, 0
2, 13040640, Note_on_c, 0, 66, 100
2, 13040760, Note_on_c, 0, 66, 0
2, 13040760, Note_on_c, 0, 67, 100
2, 13040880, Note_on_c, 0, 67, 0
2, 13040880, Note_on_c, 0, 64, 100
2, 13041000, Note_on_c, 0, 64, 0
2, 13041000, Note_on_c, 0, 66, 100
2, 13041120, Note_on_c, 0, 66, 0
2, 13041120, Note_on_c, 0, 62, 100
2, 13041240, Note_on_c, 0, 62, 0
2, 13041240, Note_on_c, 0, 64, 100
2, 13041360, Note_on_c, 0, 64, 0
2, 13041360, Note_on_c, 0, 61, 100
2, 13041480, Note_on_c, 0, 61, 0
2, 13041480, Note_on_c, 0, 62, 100
2, 13041600, Note_on_c, 0, 62, 0
2, 13041600, Note_on_c, 0, 71, 100
2, 13041720, Note_on_c, 0, 71, 0
2, 13041720, Note_on_c, 0, 60, 100
2, 13041840, Note_on_c, 0, 60, 0
2, 13041840, Note_on_c, 0, 69, 100
2, 13041960, Note_on_c, 0, 69, 0
2, 13041960, Note_on_c, 0, 59, 100
2, 13042080, Note_on_c, 0, 59, 0
2, 13042080, Note_on_c, 0, 67, 100
2, 13042200, Note_on_c, 0, 67, 0
2, 13042200, Note_on_c, 0, 57, 100
2, 13042320, Note_on_c, 0, 57, 0
2, 13042320, Note_on_c, 0, 66, 100
2, 13042440, Note_on_c, 0, 66, 0
2, 13042440, Note_on_c, 0, 59, 100
2, 13042560, Note_on_c, 0, 59, 0
2, 13042560, Note_on_c, 0, 62, 100
2, 13042860, Note_on_c, 0, 62, 0
2, 13042860, Note_on_c, 0, 64, 100
2, 13042920, Note_on_c, 0, 64, 0
2, 13042920, Note_on_c, 0, 66, 100
2, 13042980, Note_on_c, 0, 66, 0
2, 13042980, Note_on_c, 0, 67, 100
2, 13043040, Note_on_c, 0, 67, 0
2, 13043040, Note_on_c, 0, 64, 100
2, 13043160, Note_on_c, 0, 64, 0
2, 13043160, Note_on_c, 0, 65, 100
2, 13043280, Note_on_c, 0, 65, 0
2, 13043280, Note_on_c, 0, 62, 100
2, 13043400, Note_on_c, 0, 62, 0
2, 13043400, Note_on_c, 0, 64, 100
2, 13043520, Note_on_c, 0, 64, 0
2, 13043520, Note_on_c, 0, 60, 100
2, 13043640, Note_on_c, 0, 60, 0
2, 13043640, Note_on_c, 0, 62, 100
2, 13043760, Note_on_c, 0, 62, 0
2, 13043760, Note_on_c, 0, 59, 100
2, 13043880, Note_on_c, 0, 59, 0
2, 13043880, Note_on_c, 0, 55, 100
2, 13044000, Note_on_c, 0, 55, 0
2, 13044000, Note_on_c, 0, 52, 100
2, 13044120, Note_on_c, 0, 52, 0
2, 13044120, Note_on_c, 0, 53, 100
2, 13044240, Note_on_c, 0, 53, 0
2, 13044240, Note_on_c, 0, 50, 100
2, 13044360, Note_on_c, 0, 50, 0
2, 13044360, Note_on_c, 0, 52, 100
2, 13044480, Note_on_c, 0, 52, 0
2, 13044480, Note_on_c, 0, 60, 100
2, 13044600, Note_on_c, 0, 60, 0
2, 13044600, Note_on_c, 0, 50, 100
2, 13044720, Note_on_c, 0, 50, 0
2, 13044720, Note_on_c, 0, 59, 100
2, 13044840, Note_on_c, 0, 59, 0
2, 13044840, Note_on_c, 0, 48, 100
2, 13044960, Note_on_c, 0, 48, 0
2, 13044960, Note_on_c, 0, 57, 100
2, 13045080, Note_on_c, 0, 57, 0
2, 13045080, Note_on_c, 0, 47, 100
2, 13045200, Note_on_c, 0, 47, 0
2, 13045200, Note_on_c, 0, 55, 100
2, 13045320, Note_on_c, 0, 55, 0
2, 13045320, Note_on_c, 0, 45, 100
2, 13045440, Note_on_c, 0, 45, 0
2, 13045440, Note_on_c, 0, 55, 100
2, 13045560, Note_on_c, 0, 55, 0
2, 13045560, Note_on_c, 0, 54, 100
2, 13045680, Note_on_c, 0, 54, 0
2, 13045680, Note_on_c, 0, 48, 100
2, 13045800, Note_on_c, 0, 48, 0
2, 13045800, Note_on_c, 0, 47, 100
2, 13045920, Note_on_c, 0, 47, 0
2, 13045920, Note_on_c, 0, 50, 100
2, 13046040, Note_on_c, 0, 50, 0
2, 13046040, Note_on_c, 0, 55, 100
2, 13046160, Note_on_c, 0, 55, 0
2, 13046160, Note_on_c, 0, 59, 100
2, 13046280, Note_on_c, 0, 59, 0
2, 13046280, Note_on_c, 0, 62, 100
2, 13046400, Note_on_c, 0, 62, 0
2, 13046400, Note_on_c, 0, 59, 100
2, 13046520, Note_on_c, 0, 59, 0
2, 13046520, Note_on_c, 0, 60, 100
2, 13046640, Note_on_c, 0, 60, 0
2, 13046640, Note_on_c, 0, 57, 100
2, 13046760, Note_on_c, 0, 57, 0
2, 13046760, Note_on_c, 0, 59, 100
2, 13046880, Note_on_c, 0, 59, 0
2, 13046880, Note_on_c, 0, 57, 100
2, 13047000, Note_on_c, 0, 57, 0
2, 13047000, Note_on_c, 0, 59, 100
2, 13047120, Note_on_c, 0, 59, 0
2, 13047120, Note_on_c, 0, 57, 100
2, 13047240, Note_on_c, 0, 57, 0
2, 13047240, Note_on_c, 0, 59, 100
2, 13047360, Note_on_c, 0, 59, 0
2, 13047360, Note_on_c, 0, 55, 100
2, 13047480, Note_on_c, 0, 55, 0
2, 13047480, Note_on_c, 0, 50, 100
2, 13047600, Note_on_c, 0, 50, 0
2, 13047600, Note_on_c, 0, 47, 100
2, 13047720, Note_on_c, 0, 47, 0
2, 13047720, Note_on_c, 0, 43, 100
2, 13047840, Note_on_c, 0, 43, 0
2, 13047840, Note_on_c, 0, 38, 100
2, 13048320, Note_on_c, 0, 38, 0
2, 13048320, Note_on_c, 0, 42, 100
2, 13048440, Note_on_c, 0, 42, 0
2, 13048440, Note_on_c, 0, 45, 100
2, 13048560, Note_on_c, 0, 45, 0
2, 13048560, Note_on_c, 0, 49, 100
2, 13048680, Note_on_c, 0, 49, 0
2, 13048680, Note_on_c, 0, 50, 100
2, 13048800, Note_on_c, 0, 50, 0
2, 13048800, Note_on_c, 0, 52, 100
2, 13049160, Note_on_c, 0, 52, 0
2, 13049160, Note_on_c, 0, 54, 100
2, 13049280, Note_on_c, 0, 54, 0
2, 13049280, Note_on_c, 0, 55, 100
2, 13049400, Note_on_c, 0, 55, 0
2, 13049400, Note_on_c, 0, 57, 100
2, 13049520, Note_on_c, 0, 57, 0
2, 13049520, Note_on_c, 0, 54, 100
2, 13049640, Note_on_c, 0, 54, 0
2, 13049640, Note_on_c, 0, 55, 100
2, 13049760, Note_on_c, 0, 55, 0
2, 13049760, Note_on_c, 0, 47, 100
2, 13049880, Note_on_c, 0, 47, 0
2, 13049880, Note_on_c, 0, 48, 100
2, 13050000, Note_on_c, 0, 48, 0
2, 13050000, Note_on_c, 0, 50, 100
2, 13050120, Note_on_c, 0, 50, 0
2, 13050120, Note_on_c, 0, 43, 100
2, 13050240, Note_on_c, 0, 43, 0
2, 13050240, Note_on_c, 0, 54, 100
2, 13050600, Note_on_c, 0, 54, 0
2, 13050600, Note_on_c, 0, 55, 100
2, 13050720, Note_on_c, 0, 55, 0
2, 13050720, Note_on_c, 0, 57, 100
2, 13050840, Note_on_c, 0, 57, 0
2, 13050840, Note_on_c, 0, 59, 100
2, 13050960, Note_on_c, 0, 59, 0
2, 13050960, Note_on_c, 0, 56, 100
2, 13051080, Note_on_c, 0, 56, 0
2, 13051080, Note_on_c, 0, 57, 100
2, 13051200, Note_on_c, 0, 57, 0
2, 13051200, Note_on_c, 0, 48, 100
2, 13051320, Note_on_c, 0, 48, 0
2, 13051320, Note_on_c, 0, 50, 100
2, 13051440, Note_on_c, 0, 50, 0
2, 13051440, Note_on_c, 0, 52, 100
2, 13051560, Note_on_c, 0, 52, 0
2, 13051560, Note_on_c, 0, 45, 100
2, 13051680, Note_on_c, 0, 45, 0
2, 13051680, Note_on_c, 0, 56, 100
2, 13052040, Note_on_c, 0, 56, 0
2, 13052040, Note_on_c, 0, 57, 100
2, 13052160, Note_on_c, 0, 57, 0
2, 13052160, Note_on_c, 0, 59, 100
2, 13052280, Note_on_c, 0, 59, 0
2, 13052280, Note_on_c, 0, 60, 100
2, 13052400, Note_on_c, 0, 60, 0
2, 13052400, Note_on_c, 0, 58, 100
2, 13052520, Note_on_c, 0, 58, 0
2, 13052520, Note_on_c, 0, 59, 100
2, 13052640, Note_on_c, 0, 59, 0
2, 13052640, Note_on_c, 0, 58, 100
2, 13052760, Note_on_c, 0, 58, 0
2, 13052760, Note_on_c, 0, 59, 100
2, 13052880, Note_on_c, 0, 59, 0
2, 13052880, Note_on_c, 0, 58, 100
2, 13053000, Note_on_c, 0, 58, 0
2, 13053000, Note_on_c, 0, 59, 100
2, 13053120, Note_on_c, 0, 59, 0
2, 13053120, Note_on_c, 0, 54, 100
2, 13053240, Note_on_c, 0, 54, 0
2, 13053240, Note_on_c, 0, 55, 100
2, 13053360, Note_on_c, 0, 55, 0
2, 13053360, Note_on_c, 0, 57, 100
2, 13053480, Note_on_c, 0, 57, 0
2, 13053480, Note_on_c, 0, 47, 100
2, 13053600, Note_on_c, 0, 47, 0
2, 13053600, Note_on_c, 0, 64, 100
2, 13053840, Note_on_c, 0, 64, 0
2, 13053840, Note_on_c, 0, 63, 100
2, 13053900, Note_on_c, 0, 63, 0
2, 13053900, Note_on_c, 0, 60, 100
2, 13053960, Note_on_c, 0, 60, 0
2, 13053960, Note_on_c, 0, 63, 100
2, 13054020, Note_on_c, 0, 63, 0
2, 13054020, Note_on_c, 0, 64, 100
2, 13054080, Note_on_c, 0, 64, 0
2, 13054080, Note_on_c, 0, 67, 100
2, 13054200, Note_on_c, 0, 67, 0
2, 13054200, Note_on_c, 0, 66, 100
2, 13054320, Note_on_c, 0, 66, 0
2, 13054320, Note_on_c, 0, 69, 100
2, 13054440, Note_on_c, 0, 69, 0
2, 13054440, Note_on_c, 0, 67, 100
2, 13054560, Note_on_c, 0, 67, 0
2, 13054560, Note_on_c, 0, 66, 100
2, 13054680, Note_on_c, 0, 66, 0
2, 13054680, Note_on_c, 0, 64, 100
2, 13054800, Note_on_c, 0, 64, 0
2, 13054800, Note_on_c, 0, 67, 100
2, 13054920, Note_on_c, 0, 67, 0
2, 13054920, Note_on_c, 0, 66, 100
2, 13055040, Note_on_c, 0, 66, 0
2, 13055040, Note_on_c, 0, 63, 100
2, 13055160, Note_on_c, 0, 63, 0
2, 13055160, Note_on_c, 0, 64, 100
2, 13055280, Note_on_c, 0, 64, 0
2, 13055280, Note_on_c, 0, 61, 100
2, 13055400, Note_on_c, 0, 61, 0
2, 13055400, Note_on_c, 0, 63, 100
2, 13055520, Note_on_c, 0, 63, 0
2, 13055520, Note_on_c, 0, 61, 100
2, 13055640, Note_on_c, 0, 61, 0
2, 13055640, Note_on_c, 0, 59, 100
2, 13055760, Note_on_c, 0, 59, 0
2, 13055760, Note_on_c, 0, 62, 100
2, 13055880, Note_on_c, 0, 62, 0
2, 13055880, Note_on_c, 0, 60, 100
2, 13056000, Note_on_c, 0, 60, 0
2, 13056000, Note_on_c, 0, 57, 100
2, 13056120, Note_on_c, 0, 57, 0
2, 13056120, Note_on_c, 0, 59, 100
2, 13056240, Note_on_c, 0, 59, 0
2, 13056240, Note_on_c, 0, 56, 100
2, 13056360, Note_on_c, 0, 56, 0
2, 13056360, Note_on_c, 0, 57, 100
2, 13056480, Note_on_c, 0, 57, 0
2, 13056480, Note_on_c, 0, 55, 100
2, 13056600, Note_on_c, 0, 55, 0
2, 13056600, Note_on_c, 0, 54, 100
2, 13056720, Note_on_c, 0, 54, 0
2, 13056720, Note_on_c, 0, 57, 100
2, 13056840, Note_on_c, 0, 57, 0
2, 13056840, Note_on_c, 0, 55, 100
2, 13056960, Note_on_c, 0, 55, 0
2, 13056960, Note_on_c, 0, 52, 100
2, 13057080, Note_on_c, 0, 52, 0
2, 13057080, Note_on_c, 0, 54, 100
2, 13057200, Note_on_c, 0, 54, 0
2, 13057200, Note_on_c, 0, 51, 100
2, 13057320, Note_on_c, 0, 51, 0
2, 13057320, Note_on_c, 0, 52, 100
2, 13057440, Note_on_c, 0, 52, 0
2, 13057440, Note_on_c, 0, 51, 100
2, 13057560, Note_on_c, 0, 51, 0
2, 13057560, Note_on_c, 0, 49, 100
2, 13057680, Note_on_c, 0, 49, 0
2, 13057680, Note_on_c, 0, 52, 100
2, 13057800, Note_on_c, 0, 52, 0
2, 13057800, Note_on_c, 0, 51, 100
2, 13057920, Note_on_c, 0, 51, 0
2, 13057920, Note_on_c, 0, 52, 100
2, 13058040, Note_on_c, 0, 52, 0
2, 13058040, Note_on_c, 0, 54, 100
2, 13058160, Note_on_c, 0, 54, 0
2, 13058160, Note_on_c, 0, 51, 100
2, 13058280, Note_on_c, 0, 51, 0
2, 13058280, Note_on_c, 0, 52, 100
2, 13058400, Note_on_c, 0, 52, 0
2, 13058400, Note_on_c, 0, 43, 100
2, 13058520, Note_on_c, 0, 43, 0
2, 13058520, Note_on_c, 0, 45, 100
2, 13058640, Note_on_c, 0, 45, 0
2, 13058640, Note_on_c, 0, 47, 100
2, 13058760, Note_on_c, 0, 47, 0
2, 13058760, Note_on_c, 0, 40, 100
2, 13058880, Note_on_c, 0, 40, 0
2, 13058880, Note_on_c, 0, 42, 100
2, 13059000, Note_on_c, 0, 42, 0
2, 13059000, Note_on_c, 0, 43, 100
2, 13059120, Note_on_c, 0, 43, 0
2, 13059120, Note_on_c, 0, 45, 100
2, 13059240, Note_on_c, 0, 45, 0
2, 13059240, Note_on_c, 0, 47, 100
2, 13059360, Note_on_c, 0, 47, 0
2, 13059360, Note_on_c, 0, 48, 100
2, 13059480, Note_on_c, 0, 48, 0
2, 13059480, Note_on_c, 0, 50, 100
2, 13059600, Note_on_c, 0, 50, 0
2, 13059600, Note_on_c, 0, 47, 100
2, 13059720, Note_on_c, 0, 47, 0
2, 13059720, Note_on_c, 0, 48, 100
2, 13059840, Note_on_c, 0, 48, 0
2, 13059840, Note_on_c, 0, 52, 100
2, 13059960, Note_on_c, 0, 52, 0
2, 13059960, Note_on_c, 0, 50, 100
2, 13060080, Note_on_c, 0, 50, 0
2, 13060080, Note_on_c, 0, 53, 100
2, 13060200, Note_on_c, 0, 53, 0
2, 13060200, Note_on_c, 0, 52, 100
2, 13060320, Note_on_c, 0, 52, 0
2, 13060320, Note_on_c, 0, 55, 100
2, 13060440, Note_on_c, 0, 55, 0
2, 13060440, Note_on_c, 0, 54, 100
2, 13060560, Note_on_c, 0, 54, 0
2, 13060560, Note_on_c, 0, 57, 100
2, 13060680, Note_on_c, 0, 57, 0
2, 13060680, Note_on_c, 0, 56, 100
2, 13060800, Note_on_c, 0, 56, 0
2, 13060800, Note_on_c, 0, 59, 100
2, 13060920, Note_on_c, 0, 59, 0
2, 13060920, Note_on_c, 0, 57, 100
2, 13061040, Note_on_c, 0, 57, 0
2, 13061040, Note_on_c, 0, 60, 100
2, 13061160, Note_on_c, 0, 60, 0
2, 13061160, Note_on_c, 0, 59, 100
2, 13061280, Note_on_c, 0, 59, 0
2, 13061280, Note_on_c, 0, 62, 100
2, 13061400, Note_on_c, 0, 62, 0
2, 13061400, Note_on_c, 0, 60, 100
2, 13061520, Note_on_c, 0, 60, 0
2, 13061520, Note_on_c, 0, 64, 100
2, 13061640, Note_on_c, 0, 64, 0
2, 13061640, Note_on_c, 0, 62, 100
2, 13061760, Note_on_c, 0, 62, 0
2, 13061760, Note_on_c, 0, 65, 100
2, 13061880, Note_on_c, 0, 65, 0
2, 13061880, Note_on_c, 0, 64, 100
2, 13062000, Note_on_c, 0, 64, 0
2, 13062000, Note_on_c, 0, 68, 100
2, 13062120, Note_on_c, 0, 68, 0
2, 13062120, Note_on_c, 0, 66, 100
2, 13062240, Note_on_c, 0, 66, 0
2, 13062240, Note_on_c, 0, 69, 100
2, 13062360, Note_on_c, 0, 69, 0
2, 13062360, Note_on_c, 0, 68, 100
2, 13062480, Note_on_c, 0, 68, 0
2, 13062480, Note_on_c, 0, 71, 100
2, 13062600, Note_on_c, 0, 71, 0
2, 13062600, Note_on_c, 0, 69, 100
2, 13062720, Note_on_c, 0, 69, 0
2, 13062720, Note_on_c, 0, 72, 100
2, 13062840, Note_on_c, 0, 72, 0
2, 13062840, Note_on_c, 0, 71, 100
2, 13062960, Note_on_c, 0, 71, 0
2, 13062960, Note_on_c, 0, 74, 100
2, 13063080, Note_on_c, 0, 74, 0
2, 13063080, Note_on_c, 0, 72, 100
2, 13063200, Note_on_c, 0, 72, 0
2, 13063200, Note_on_c, 0, 69, 100
2, 13063320, Note_on_c, 0, 69, 0
2, 13063320, Note_on_c, 0, 71, 100
2, 13063440, Note_on_c, 0, 71, 0
2, 13063440, Note_on_c, 0, 67, 100
2, 13063560, Note_on_c, 0, 67, 0
2, 13063560, Note_on_c, 0, 69, 100
2, 13063680, Note_on_c, 0, 69, 0
2, 13063680, Note_on_c, 0, 66, 100
2, 13063800, Note_on_c, 0, 66, 0
2, 13063800, Note_on_c, 0, 67, 100
2, 13063920, Note_on_c, 0, 67, 0
2, 13063920, Note_on_c, 0, 64, 100
2, 13064040, Note_on_c, 0, 64, 0
2, 13064040, Note_on_c, 0, 66, 100
2, 13064160, Note_on_c, 0, 66, 0
2, 13064160, Note_on_c, 0, 62, 100
2, 13064280, Note_on_c, 0, 62, 0
2, 13064280, Note_on_c, 0, 64, 100
2, 13064400, Note_on_c, 0, 64, 0
2, 13064400, Note_on_c, 0, 61, 100
2, 13064520, Note_on_c, 0, 61, 0
2, 13064520, Note_on_c, 0, 62, 100
2, 13064640, Note_on_c, 0, 62, 0
2, 13064640, Note_on_c, 0, 71, 100
2, 13064760, Note_on_c, 0, 71, 0
2, 13064760, Note_on_c, 0, 60, 100
2, 13064880, Note_on_c, 0, 60, 0
2, 13064880, Note_on_c, 0, 69, 100
2, 13065000, Note_on_c, 0, 69, 0
2, 13065000, Note_on_c, 0, 59, 100
2, 13065120, Note_on_c, 0, 59, 0
2, 13065120, Note_on_c, 0, 67, 100
2, 13065240, Note_on_c, 0, 67, 0
2, 13065240, Note_on_c, 0, 57, 100
2, 13065360, Note_on_c, 0, 57, 0
2, 13065360, Note_on_c, 0, 66, 100
2, 13065480, Note_on_c, 0, 66, 0
2, 13065480, Note_on_c, 0, 59, 100
2, 13065600, Note_on_c, 0, 59, 0
2, 13065600, Note_on_c, 0, 62, 100
2, 13065900, Note_on_c, 0, 62, 0
2, 13065900, Note_on_c, 0, 64, 100
2, 13065960, Note_on_c, 0, 64, 0
2, 13065960, Note_on_c, 0, 66, 100
2, 13066020, Note_on_c, 0, 66, 0
2, 13066020, Note_on_c, 0, 67, 100
2, 13066080, Note_on_c, 0, 67, 0
2, 13066080, Note_on_c, 0, 64, 100
2, 13066200, Note_on_c, 0, 64, 0
2, 13066200, Note_on_c, 0, 65, 100
2, 13066320, Note_on_c, 0, 65, 0
2, 13066320, Note_on_c, 0, 62, 100
2, 13066440, Note_on_c, 0, 62, 0
2, 13066440, Note_on_c, 0, 64, 100
2, 13066560, Note_on_c, 0, 64, 0
2, 13066560, Note_on_c, 0, 60, 100
2, 13066680, Note_on_c, 0, 60, 0
2, 13066680, Note_on_c, 0, 62, 100
2, 13066800, Note_on_c, 0, 62, 0
2, 13066800, Note_on_c, 0, 59, 100
2, 13066920, Note_on_c, 0, 59, 0
2, 13066920, Note_on_c, 0, 55, 100
2, 13067040, Note_on_c, 0, 55, 0
2, 13067040, Note_on_c, 0, 52, 100
2, 13067160, Note_on_c, 0, 52, 0
2, 13067160, Note_on_c, 0, 53, 100
2, 13067280, Note_on_c, 0, 53, 0
2, 13067280, Note_on_c, 0, 50, 100
2, 13067400, Note_on_c, 0, 50, 0
2, 13067400, Note_on_c, 0, 52, 100
2, 13067520, Note_on_c, 0, 52, 0
2, 13067520, Note_on_c, 0, 60, 100
2, 13067640, Note_on_c, 0, 60, 0
2, 13067640, Note_on_c, 0, 50, 100
2, 13067760, Note_on_c, 0, 50, 0
2, 13067760, Note_on_c, 0, 59, 100
2, 13067880, Note_on_c, 0, 59, 0
2, 13067880, Note_on_c, 0, 48, 100
2, 13068000, Note_on_c, 0, 48, 0
2, 13068000, Note_on_c, 0, 57, 100
2, 13068120, Note_on_c, 0, 57, 0
2, 13068120, Note_on_c, 0, 47, 100
2, 13068240, Note_on_c, 0, 47, 0
2, 13068240, Note_on_c, 0, 55, 100
2, 13068360, Note_on_c, 0, 55, 0
2, 13068360, Note_on_c, 0, 45, 100
2, 13068480, Note_on_c, 0, 45, 0
2, 13068480, Note_on_c, 0, 55, 100
2, 13068600, Note_on_c, 0, 55, 0
2, 13068600, Note_on_c, 0, 54, 100
2, 13068720, Note_on_c, 0, 54, 0
2, 13068720, Note_on_c, 0, 48, 100
2, 13068840, Note_on_c, 0, 48, 0
2, 13068840, Note_on_c, 0, 47, 100
2, 13068960, Note_on_c, 0, 47, 0
2, 13068960, Note_on_c, 0, 50, 100
2, 13069080, Note_on_c, 0, 50, 0
2, 13069080, Note_on_c, 0, 55, 100
2, 13069200, Note_on_c, 0, 55, 0
2, 13069200, Note_on_c, 0, 59, 100
2, 13069320, Note_on_c, 0, 59, 0
2, 13069320, Note_on_c, 0, 62, 100
2, 13069440, Note_on_c, 0, 62, 0
2, 13069440, Note_on_c, 0, 59, 100
2, 13069560, Note_on_c, 0, 59, 0
2, 13069560, Note_on_c, 0, 60, 100
2, 13069680, Note_on_c, 0, 60, 0
2, 13069680, Note_on_c, 0, 57, 100
2, 13069800, Note_on_c, 0, 57, 0
2, 13069800, Note_on_c, 0, 59, 100
2, 13069920, Note_on_c, 0, 59, 0
2, 13069920, Note_on_c, 0, 57, 100
2, 13070040, Note_on_c, 0, 57, 0
2, 13070040, Note_on_c, 0, 59, 100
2, 13070160, Note_on_c, 0, 59, 0
2, 13070160, Note_on_c, 0, 57, 100
2, 13070280, Note_on_c, 0, 57, 0
2, 13070280, Note_on_c, 0, 59, 100
2, 13070400, Note_on_c, 0, 59, 0
2, 13070400, Note_on_c, 0, 55, 100
2, 13070520, Note_on_c, 0, 55, 0
2, 13070520, Note_on_c, 0, 50, 100
2, 13070640, Note_on_c, 0, 50, 0
2, 13070640, Note_on_c, 0, 47, 100
2, 13070760, Note_on_c, 0, 47, 0
2, 13070760, Note_on_c, 0, 43, 100
2, 13070880, Note_on_c, 0, 43, 0
2, 13070880, Note_on_c, 0, 55, 100
2, 13240320, Note_on_c, 0, 55, 0
2, 13240320, Note_on_c, 0, 59, 100
2, 13240560, Note_on_c, 0, 59, 0
2, 13240560, Note_on_c, 0, 62, 100
2, 13240800, Note_on_c, 0, 62, 0
2, 13240800, Note_on_c, 0, 67, 100
2, 13241040, Note_on_c, 0, 67, 0
2, 13241040, Note_on_c, 0, 71, 100
2, 13241280, Note_on_c, 0, 71, 0
2, 13241280, Note_on_c, 0, 73, 100
2, 13241520, Note_on_c, 0, 73, 0
2, 13241520, Note_on_c, 0, 74, 100
2, 13241880, Note_on_c, 0, 74, 0
2, 13241880, Note_on_c, 0, 69, 100
2, 13242120, Note_on_c, 0, 69, 0
2, 13242120, Note_on_c, 0, 66, 100
2, 13242360, Note_on_c, 0, 66, 0
2, 13242360, Note_on_c, 0, 62, 100
2, 13242600, Note_on_c, 0, 62, 0
2, 13242600, Note_on_c, 0, 57, 100
2, 13242840, Note_on_c, 0, 57, 0
2, 13242840, Note_on_c, 0, 55, 100
2, 13242960, Note_on_c, 0, 55, 0
2, 13242960, Note_on_c, 0, 54, 100
2, 13243080, Note_on_c, 0, 54, 0
2, 13243080, Note_on_c, 0, 52, 100
2, 13243200, Note_on_c, 0, 52, 0
2, 13243200, Note_on_c, 0, 55, 100
2, 13243440, Note_on_c, 0, 55, 0
2, 13243440, Note_on_c, 0, 57, 100
2, 13243680, Note_on_c, 0, 57, 0
2, 13243680, Note_on_c, 0, 61, 100
2, 13243920, Note_on_c, 0, 61, 0
2, 13243920, Note_on_c, 0, 64, 100
2, 13244160, Note_on_c, 0, 64, 0
2, 13244160, Note_on_c, 0, 67, 100
2, 13244400, Note_on_c, 0, 67, 0
2, 13244400, Note_on_c, 0, 66, 100
2, 13244760, Note_on_c, 0, 66, 0
2, 13244760, Note_on_c, 0, 62, 100
2, 13245000, Note_on_c, 0, 62, 0
2, 13245000, Note_on_c, 0, 57, 100
2, 13245240, Note_on_c, 0, 57, 0
2, 13245240, Note_on_c, 0, 54, 100
2, 13245480, Note_on_c, 0, 54, 0
2, 13245480, Note_on_c, 0, 52, 100
2, 13245720, Note_on_c, 0, 52, 0
2, 13245720, Note_on_c, 0, 50, 100
2, 13245840, Note_on_c, 0, 50, 0
2, 13245840, Note_on_c, 0, 48, 100
2, 13245960, Note_on_c, 0, 48, 0
2, 13245960, Note_on_c, 0, 47, 100
2, 13246080, Note_on_c, 0, 47, 0
2, 13246080, Note_on_c, 0, 50, 100
2, 13246320, Note_on_c, 0, 50, 0
2, 13246320, Note_on_c, 0, 55, 100
2, 13246560, Note_on_c, 0, 55, 0
2, 13246560, Note_on_c, 0, 59, 100
2, 13246800, Note_on_c, 0, 59, 0
2, 13246800, Note_on_c, 0, 62, 100
2, 13247040, Note_on_c, 0, 62, 0
2, 13247040, Note_on_c, 0, 65, 100
2, 13247280, Note_on_c, 0, 65, 0
2, 13247280, Note_on_c, 0, 64, 100
2, 13247640, Note_on_c, 0, 64, 0
2, 13247640, Note_on_c, 0, 60, 100
2, 13247880, Note_on_c, 0, 60, 0
2, 13247880, Note_on_c, 0, 55, 100
2, 13248120, Note_on_c, 0, 55, 0
2, 13248120, Note_on_c, 0, 52, 100
2, 13248360, Note_on_c, 0, 52, 0
2, 13248360, Note_on_c, 0, 48, 100
2, 13248600, Note_on_c, 0, 48, 0
2, 13248600, Note_on_c, 0, 47, 100
2, 13248720, Note_on_c, 0, 47, 0
2, 13248720, Note_on_c, 0, 45, 100
2, 13248840, Note_on_c, 0, 45, 0
2, 13248840, Note_on_c, 0, 50, 100
2, 13248960, Note_on_c, 0, 50, 0
2, 13248960, Note_on_c, 0, 54, 100
2, 13249200, Note_on_c, 0, 54, 0
2, 13249200, Note_on_c, 0, 57, 100
2, 13249440, Note_on_c, 0, 57, 0
2, 13249440, Note_on_c, 0, 62, 100
2, 13249680, Note_on_c, 0, 62, 0
2, 13249680, Note_on_c, 0, 66, 100
2, 13249920, Note_on_c, 0, 66, 0
2, 13249920, Note_on_c, 0, 69, 100
2, 13250160, Note_on_c, 0, 69, 0
2, 13250160, Note_on_c, 0, 71, 100
2, 13250520, Note_on_c, 0, 71, 0
2, 13250520, Note_on_c, 0, 67, 100
2, 13250760, Note_on_c, 0, 67, 0
2, 13250760, Note_on_c, 0, 62, 100
2, 13251000, Note_on_c, 0, 62, 0
2, 13251000, Note_on_c, 0, 59, 100
2, 13251240, Note_on_c, 0, 59, 0
2, 13251240, Note_on_c, 0, 57, 100
2, 13251480, Note_on_c, 0, 57, 0
2, 13251480, Note_on_c, 0, 55, 100
2, 13251600, Note_on_c, 0, 55, 0
2, 13251600, Note_on_c, 0, 54, 100
2, 13251720, Note_on_c, 0, 54, 0
2, 13251720, Note_on_c, 0, 55, 100
2, 13251840, Note_on_c, 0, 55, 0
2, 13251840, Note_on_c, 0, 83, 100
2, 13252320, Note_on_c, 0, 83, 0
2, 13252320, Note_on_c, 0, 81, 100
2, 13252360, Note_on_c, 0, 81, 0
2, 13252360, Note_on_c, 0, 83, 100
2, 13252400, Note_on_c, 0, 83, 0
2, 13252400, Note_on_c, 0, 64, 100
2, 13253040, Note_on_c, 0, 64, 0
2, 13253040, Note_on_c, 0, 54, 100
2, 13253280, Note_on_c, 0, 54, 0
2, 13253280, Note_on_c, 0, 81, 100
2, 13253760, Note_on_c, 0, 81, 0
2, 13253760, Note_on_c, 0, 79, 100
2, 13253800, Note_on_c, 0, 79, 0
2, 13253800, Note_on_c, 0, 81, 100
2, 13253840, Note_on_c, 0, 81, 0
2, 13253840, Note_on_c, 0, 62, 100
2, 13254480, Note_on_c, 0, 62, 0
2, 13254480, Note_on_c, 0, 71, 100
2, 13254720, Note_on_c, 0, 71, 0
2, 13254720, Note_on_c, 0, 72, 100
2, 13254800, Note_on_c, 0, 72, 0
2, 13254800, Note_on_c, 0, 71, 100
2, 13254880, Note_on_c, 0, 71, 0
2, 13254880, Note_on_c, 0, 69, 100
2, 13254960, Note_on_c, 0, 69, 0
2, 13254960, Note_on_c, 0, 71, 100
2, 13255040, Note_on_c, 0, 71, 0
2, 13255040, Note_on_c, 0, 69, 100
2, 13255120, Note_on_c, 0, 69, 0
2, 13255120, Note_on_c, 0, 67, 100
2, 13255200, Note_on_c, 0, 67, 0
2, 13255200, Note_on_c, 0, 69, 100
2, 13255280, Note_on_c, 0, 69, 0
2, 13255280, Note_on_c, 0, 67, 100
2, 13255360, Note_on_c, 0, 67, 0
2, 13255360, Note_on_c, 0, 66, 100
2, 13255440, Note_on_c, 0, 66, 0
2, 13255440, Note_on_c, 0, 67, 100
2, 13255520, Note_on_c, 0, 67, 0
2, 13255520, Note_on_c, 0, 66, 100
2, 13255600, Note_on_c, 0, 66, 0
2, 13255600, Note_on_c, 0, 64, 100
2, 13255680, Note_on_c, 0, 64, 0
2, 13255680, Note_on_c, 0, 66, 100
2, 13255760, Note_on_c, 0, 66, 0
2, 13255760, Note_on_c, 0, 64, 100
2, 13255840, Note_on_c, 0, 64, 0
2, 13255840, Note_on_c, 0, 62, 100
2, 13255920, Note_on_c, 0, 62, 0
2, 13255920, Note_on_c, 0, 64, 100
2, 13256000, Note_on_c, 0, 64, 0
2, 13256000, Note_on_c, 0, 62, 100
2, 13256080, Note_on_c, 0, 62, 0
2, 13256080, Note_on_c, 0, 61, 100
2, 13256160, Note_on_c, 0, 61, 0
2, 13256160, Note_on_c, 0, 62, 100
2, 13256240, Note_on_c, 0, 62, 0
2, 13256240, Note_on_c, 0, 61, 100
2, 13256320, Note_on_c, 0, 61, 0
2, 13256320, Note_on_c, 0, 59, 100
2, 13256400, Note_on_c, 0, 59, 0
2, 13256400, Note_on_c, 0, 61, 100
2, 13256480, Note_on_c, 0, 61, 0
2, 13256480, Note_on_c, 0, 59, 100
2, 13256560, Note_on_c, 0, 59, 0
2, 13256560, Note_on_c, 0, 57, 100
2, 13256640, Note_on_c, 0, 57, 0
2, 13256640, Note_on_c, 0, 59, 100
2, 13256720, Note_on_c, 0, 59, 0
2, 13256720, Note_on_c, 0, 57, 100
2, 13256800, Note_on_c, 0, 57, 0
2, 13256800, Note_on_c, 0, 55, 100
2, 13256880, Note_on_c, 0, 55, 0
2, 13256880, Note_on_c, 0, 57, 100
2, 13256960, Note_on_c, 0, 57, 0
2, 13256960, Note_on_c, 0, 55, 100
2, 13257040, Note_on_c, 0, 55, 0
2, 13257040, Note_on_c, 0, 54, 100
2, 13257120, Note_on_c, 0, 54, 0
2, 13257120, Note_on_c, 0, 55, 100
2, 13257200, Note_on_c, 0, 55, 0
2, 13257200, Note_on_c, 0, 54, 100
2, 13257280, Note_on_c, 0, 54, 0
2, 13257280, Note_on_c, 0, 52, 100
2, 13257360, Note_on_c, 0, 52, 0
2, 13257360, Note_on_c, 0, 54, 100
2, 13257440, Note_on_c, 0, 54, 0
2, 13257440, Note_on_c, 0, 52, 100
2, 13257520, Note_on_c, 0, 52, 0
2, 13257520, Note_on_c, 0, 50, 100
2, 13257600, Note_on_c, 0, 50, 0
2, 13257600, Note_on_c, 0, 57, 100
2, 13257840, Note_on_c, 0, 57, 0
2, 13257840, Note_on_c, 0, 66, 100
2, 13258080, Note_on_c, 0, 66, 0
2, 13258080, Note_on_c, 0, 57, 100
2, 13258320, Note_on_c, 0, 57, 0
2, 13258320, Note_on_c, 0, 50, 100
2, 13258560, Note_on_c, 0, 50, 0
2, 13258560, Note_on_c, 0, 60, 100
2, 13258800, Note_on_c, 0, 60, 0
2, 13258800, Note_on_c, 0, 59, 100
2, 13259040, Note_on_c, 0, 59, 0
2, 13259040, Note_on_c, 0, 55, 100
2, 13259120, Note_on_c, 0, 55, 0
2, 13259120, Note_on_c, 0, 62, 100
2, 13259200, Note_on_c, 0, 62, 0
2, 13259200, Note_on_c, 0, 61, 100
2, 13259280, Note_on_c, 0, 61, 0
2, 13259280, Note_on_c, 0, 57, 100
2, 13259360, Note_on_c, 0, 57, 0
2, 13259360, Note_on_c, 0, 64, 100
2, 13259440, Note_on_c, 0, 64, 0
2, 13259440, Note_on_c, 0, 62, 100
2, 13259520, Note_on_c, 0, 62, 0
2, 13259520, Note_on_c, 0, 59, 100
2, 13259600, Note_on_c, 0, 59, 0
2, 13259600, Note_on_c, 0, 66, 100
2, 13259680, Note_on_c, 0, 66, 0
2, 13259680, Note_on_c, 0, 64, 100
2, 13259760, Note_on_c, 0, 64, 0
2, 13259760, Note_on_c, 0, 61, 100
2, 13259840, Note_on_c, 0, 61, 0
2, 13259840, Note_on_c, 0, 67, 100
2, 13259920, Note_on_c, 0, 67, 0
2, 13259920, Note_on_c, 0, 66, 100
2, 13260000, Note_on_c, 0, 66, 0
2, 13260000, Note_on_c, 0, 62, 100
2, 13260080, Note_on_c, 0, 62, 0
2, 13260080, Note_on_c, 0, 69, 100
2, 13260160, Note_on_c, 0, 69, 0
2, 13260160, Note_on_c, 0, 67, 100
2, 13260240, Note_on_c, 0, 67, 0
2, 13260240, Note_on_c, 0, 64, 100
2, 13260320, Note_on_c, 0, 64, 0
2, 13260320, Note_on_c, 0, 71, 100
2, 13260400, Note_on_c, 0, 71, 0
2, 13260400, Note_on_c, 0, 69, 100
2, 13260480, Note_on_c, 0, 69, 0
2, 13260480, Note_on_c, 0, 71, 100
2, 13260800, Note_on_c, 0, 71, 0
2, 13260800, Note_on_c, 0, 73, 100
2, 13260880, Note_on_c, 0, 73, 0
2, 13260880, Note_on_c, 0, 74, 100
2, 13260960, Note_on_c, 0, 74, 0
2, 13260960, Note_on_c, 0, 73, 100
2, 13261040, Note_on_c, 0, 73, 0
2, 13261040, Note_on_c, 0, 71, 100
2, 13261120, Note_on_c, 0, 71, 0
2, 13261120, Note_on_c, 0, 69, 100
2, 13261200, Note_on_c, 0, 69, 0
2, 13261200, Note_on_c, 0, 67, 100
2, 13261520, Note_on_c, 0, 67, 0
2, 13261520, Note_on_c, 0, 66, 100
2, 13261600, Note_on_c, 0, 66, 0
2, 13261600, Note_on_c, 0, 64, 100
2, 13261680, Note_on_c, 0, 64, 0
2, 13261680, Note_on_c, 0, 66, 100
2, 13261760, Note_on_c, 0, 66, 0
2, 13261760, Note_on_c, 0, 67, 100
2, 13261840, Note_on_c, 0, 67, 0
2, 13261840, Note_on_c, 0, 66, 100
2, 13262480, Note_on_c, 0, 66, 0
2, 13262480, Note_on_c, 0, 69, 100
2, 13262560, Note_on_c, 0, 69, 0
2, 13262560, Note_on_c, 0, 74, 100
2, 13262640, Note_on_c, 0, 74, 0
2, 13262640, Note_on_c, 0, 78, 100
2, 13262720, Note_on_c, 0, 78, 0
2, 13262720, Note_on_c, 0, 81, 100
2, 13262800, Note_on_c, 0, 81, 0
2, 13262800, Note_on_c, 0, 86, 100
2, 13262880, Note_on_c, 0, 86, 0
2, 13262880, Note_on_c, 0, 55, 100
2, 13263360, Note_on_c, 0, 55, 0
2, 13263360, Note_on_c, 0, 59, 100
2, 13263600, Note_on_c, 0, 59, 0
2, 13263600, Note_on_c, 0, 62, 100
2, 13263840, Note_on_c, 0, 62, 0
2, 13263840, Note_on_c, 0, 67, 100
2, 13264080, Note_on_c, 0, 67, 0
2, 13264080, Note_on_c, 0, 71, 100
2, 13264320, Note_on_c, 0, 71, 0
2, 13264320, Note_on_c, 0, 73, 100
2, 13264560, Note_on_c, 0, 73, 0
2, 13264560, Note_on_c, 0, 74, 100
2, 13264920, Note_on_c, 0, 74, 0
2, 13264920, Note_on_c, 0, 69, 100
2, 13265160, Note_on_c, 0, 69, 0
2, 13265160, Note_on_c, 0, 66, 100
2, 13265400, Note_on_c, 0, 66, 0
2, 13265400, Note_on_c, 0, 62, 100
2, 13265640, Note_on_c, 0, 62, 0
2, 13265640, Note_on_c, 0, 57, 100
2, 13265880, Note_on_c, 0, 57, 0
2, 13265880, Note_on_c, 0, 55, 100
2, 13266000, Note_on_c, 0, 55, 0
2, 13266000, Note_on_c, 0, 54, 100
2, 13266120, Note_on_c, 0, 54, 0
2, 13266120, Note_on_c, 0, 52, 100
2, 13266240, Note_on_c, 0, 52, 0
2, 13266240, Note_on_c, 0, 55, 100
2, 13266480, Note_on_c, 0, 55, 0
2, 13266480, Note_on_c, 0, 57, 100
2, 13266720, Note_on_c, 0, 57, 0
2, 13266720, Note_on_c, 0, 61, 100
2, 13266960, Note_on_c, 0, 61, 0
2, 13266960, Note_on_c, 0, 64, 100
2, 13267200, Note_on_c, 0, 64, 0
2, 13267200, Note_on_c, 0, 67, 100
2, 13267440, Note_on_c, 0, 67, 0
2, 13267440, Note_on_c, 0, 66, 100
2, 13267800, Note_on_c, 0, 66, 0
2, 13267800, Note_on_c, 0, 62, 100
2, 13268040, Note_on_c, 0, 62, 0
2, 13268040, Note_on_c, 0, 57, 100
2, 13268280, Note_on_c, 0, 57, 0
2, 13268280, Note_on_c, 0, 54, 100
2, 13268520, Note_on_c, 0, 54, 0
2, 13268520, Note_on_c, 0, 52, 100
2, 13268760, Note_on_c, 0, 52, 0
2, 13268760, Note_on_c, 0, 50, 100
2, 13268880, Note_on_c, 0, 50, 0
2, 13268880, Note_on_c, 0, 48, 100
2, 13269000, Note_on_c, 0, 48, 0
2, 13269000, Note_on_c, 0, 47, 100
2, 13269120, Note_on_c, 0, 47, 0
2, 13269120, Note_on_c, 0, 50, 100
2, 13269360, Note_on_c, 0, 50, 0
2, 13269360, Note_on_c, 0, 55, 100
2, 13269600, Note_on_c, 0, 55, 0
2, 13269600, Note_on_c, 0, 59, 100
2, 13269840, Note_on_c, 0, 59, 0
2, 13269840, Note_on_c, 0, 62, 100
2, 13270080, Note_on_c, 0, 62, 0
2, 13270080, Note_on_c, 0, 65, 100
2, 13270320, Note_on_c, 0, 65, 0
2, 13270320, Note_on_c, 0, 64, 100
2, 13270680, Note_on_c, 0, 64, 0
2, 13270680, Note_on_c, 0, 60, 100
2, 13270920, Note_on_c, 0, 60, 0
2, 13270920, Note_on_c, 0, 55, 100
2, 13271160, Note_on_c, 0, 55, 0
2, 13271160, Note_on_c, 0, 52, 100
2, 13271400, Note_on_c, 0, 52, 0
2, 13271400, Note_on_c, 0, 48, 100
2, 13271640, Note_on_c, 0, 48, 0
2, 13271640, Note_on_c, 0, 47, 100
2, 13271760, Note_on_c, 0, 47, 0
2, 13271760, Note_on_c, 0, 45, 100
2, 13271880, Note_on_c, 0, 45, 0
2, 13271880, Note_on_c, 0, 50, 100
2, 13272000, Note_on_c, 0, 50, 0
2, 13272000, Note_on_c, 0, 54, 100
2, 13272240, Note_on_c, 0, 54, 0
2, 13272240, Note_on_c, 0, 57, 100
2, 13272480, Note_on_c, 0, 57, 0
2, 13272480, Note_on_c, 0, 62, 100
2, 13272720, Note_on_c, 0, 62, 0
2, 13272720, Note_on_c, 0, 66, 100
2, 13272960, Note_on_c, 0, 66, 0
2, 13272960, Note_on_c, 0, 69, 100
2, 13273200, Note_on_c, 0, 69, 0
2, 13273200, Note_on_c, 0, 71, 100
2, 13273560, Note_on_c, 0, 71, 0
2, 13273560, Note_on_c, 0, 67, 100
2, 13273800, Note_on_c, 0, 67, 0
2, 13273800, Note_on_c, 0, 62, 100
2, 13274040, Note_on_c, 0, 62, 0
2, 13274040, Note_on_c, 0, 59, 100
2, 13274280, Note_on_c, 0, 59, 0
2, 13274280, Note_on_c, 0, 57, 100
2, 13274520, Note_on_c, 0, 57, 0
2, 13274520, Note_on_c, 0, 55, 100
2, 13274640, Note_on_c, 0, 55, 0
2, 13274640, Note_on_c, 0, 54, 100
2, 13274760, Note_on_c, 0, 54, 0
2, 13274760, Note_on_c, 0, 55, 100
2, 13274880, Note_on_c, 0, 55, 0
2, 13274880, Note_on_c, 0, 83, 100
2, 13275360, Note_on_c, 0, 83, 0
2, 13275360, Note_on_c, 0, 81, 100
2, 13275400, Note_on_c, 0, 81, 0
2, 13275400, Note_on_c, 0, 83, 100
2, 13275440, Note_on_c, 0, 83, 0
2, 13275440, Note_on_c, 0, 64, 100
2, 13276080, Note_on_c, 0, 64, 0
2, 13276080, Note_on_c, 0, 54, 100
2, 13276320, Note_on_c, 0, 54, 0
2, 13276320, Note_on_c, 0, 81, 100
2, 13276800, Note_on_c, 0, 81, 0
2, 13276800, Note_on_c, 0, 79, 100
2, 13276840, Note_on_c, 0, 79, 0
2, 13276840, Note_on_c, 0, 81, 100
2, 13276880, Note_on_c, 0, 81, 0
2, 13276880, Note_on_c, 0, 62, 100
2, 13277520, Note_on_c, 0, 62, 0
2, 13277520, Note_on_c, 0, 71, 100
2, 13277760, Note_on_c, 0, 71, 0
2, 13277760, Note_on_c, 0, 72, 100
2, 13277840, Note_on_c, 0, 72, 0
2, 13277840, Note_on_c, 0, 71, 100
2, 13277920, Note_on_c, 0, 71, 0
2, 13277920, Note_on_c, 0, 69, 100
2, 13278000, Note_on_c, 0, 69, 0
2, 13278000, Note_on_c, 0, 71, 100
2, 13278080, Note_on_c, 0, 71, 0
2, 13278080, Note_on_c, 0, 69, 100
2, 13278160, Note_on_c, 0, 69, 0
2, 13278160, Note_on_c, 0, 67, 100
2, 13278240, Note_on_c, 0, 67, 0
2, 13278240, Note_on_c, 0, 69, 100
2, 13278320, Note_on_c, 0, 69, 0
2, 13278320, Note_on_c, 0, 67, 100
2, 13278400, Note_on_c, 0, 67, 0
2, 13278400, Note_on_c, 0, 66, 100
2, 13278480, Note_on_c, 0, 66, 0
2, 13278480, Note_on_c, 0, 67, 100
2, 13278560, Note_on_c, 0, 67, 0
2, 13278560, Note_on_c, 0, 66, 100
2, 13278640, Note_on_c, 0, 66, 0
2, 13278640, Note_on_c, 0, 64, 100
2, 13278720, Note_on_c, 0, 64, 0
2, 13278720, Note_on_c, 0, 66, 100
2, 13278800, Note_on_c, 0, 66, 0
2, 13278800, Note_on_c, 0, 64, 100
2, 13278880, Note_on_c, 0, 64, 0
2, 13278880, Note_on_c, 0, 62, 100
2, 13278960, Note_on_c, 0, 62, 0
2, 13278960, Note_on_c, 0, 64, 100
2, 13279040, Note_on_c, 0, 64, 0
2, 13279040, Note_on_c, 0, 62, 100
2, 13279120, Note_on_c, 0, 62, 0
2, 13279120, Note_on_c, 0, 61, 100
2, 13279200, Note_on_c, 0, 61, 0
2, 13279200, Note_on_c, 0, 62, 100
2, 13279280, Note_on_c, 0, 62, 0
2, 13279280, Note_on_c, 0, 61, 100
2, 13279360, Note_on_c, 0, 61, 0
2, 13279360, Note_on_c, 0, 59, 100
2, 13279440, Note_on_c, 0, 59, 0
2, 13279440, Note_on_c, 0, 61, 100
2, 13279520, Note_on_c, 0, 61, 0
2, 13279520, Note_on_c, 0, 59, 100
2, 13279600, Note_on_c, 0, 59, 0
2, 13279600, Note_on_c, 0, 57, 100
2, 13279680, Note_on_c, 0, 57, 0
2, 13279680, Note_on_c, 0, 59, 100
2, 13279760, Note_on_c, 0, 59, 0
2, 13279760, Note_on_c, 0, 57, 100
2, 13279840, Note_on_c, 0, 57, 0
2, 13279840, Note_on_c, 0, 55, 100
2, 13279920, Note_on_c, 0, 55, 0
2, 13279920, Note_on_c, 0, 57, 100
2, 13280000, Note_on_c, 0, 57, 0
2, 13280000, Note_on_c, 0, 55, 100
2, 13280080, Note_on_c, 0, 55, 0
2, 13280080, Note_on_c, 0, 54, 100
2, 13280160, Note_on_c, 0, 54, 0
2, 13280160, Note_on_c, 0, 55, 100
2, 13280240, Note_on_c, 0, 55, 0
2, 13280240, Note_on_c, 0, 54, 100
2, 13280320, Note_on_c, 0, 54, 0
2, 13280320, Note_on_c, 0, 52, 100
2, 13280400, Note_on_c, 0, 52, 0
2, 13280400, Note_on_c, 0, 54, 100
2, 13280480, Note_on_c, 0, 54, 0
2, 13280480, Note_on_c, 0, 52, 100
2, 13280560, Note_on_c, 0, 52, 0
2, 13280560, Note_on_c, 0, 50, 100
2, 13280640, Note_on_c, 0, 50, 0
2, 13280640, Note_on_c, 0, 57, 100
2, 13280880, Note_on_c, 0, 57, 0
2, 13280880, Note_on_c, 0, 66, 100
2, 13281120, Note_on_c, 0, 66, 0
2, 13281120, Note_on_c, 0, 57, 100
2, 13281360, Note_on_c, 0, 57, 0
2, 13281360, Note_on_c, 0, 50, 100
2, 13281600, Note_on_c, 0, 50, 0
2, 13281600, Note_on_c, 0, 60, 100
2, 13281840, Note_on_c, 0, 60, 0
2, 13281840, Note_on_c, 0, 59, 100
2, 13282080, Note_on_c, 0, 59, 0
2, 13282080, Note_on_c, 0, 55, 100
2, 13282160, Note_on_c, 0, 55, 0
2, 13282160, Note_on_c, 0, 62, 100
2, 13282240, Note_on_c, 0, 62, 0
2, 13282240, Note_on_c, 0, 61, 100
2, 13282320, Note_on_c, 0, 61, 0
2, 13282320, Note_on_c, 0, 57, 100
2, 13282400, Note_on_c, 0, 57, 0
2, 13282400, Note_on_c, 0, 64, 100
2, 13282480, Note_on_c, 0, 64, 0
2, 13282480, Note_on_c, 0, 62, 100
2, 13282560, Note_on_c, 0, 62, 0
2, 13282560, Note_on_c, 0, 59, 100
2, 13282640, Note_on_c, 0, 59, 0
2, 13282640, Note_on_c, 0, 66, 100
2, 13282720, Note_on_c, 0, 66, 0
2, 13282720, Note_on_c, 0, 64, 100
2, 13282800, Note_on_c, 0, 64, 0
2, 13282800, Note_on_c, 0, 61, 100
2, 13282880, Note_on_c, 0, 61, 0
2, 13282880, Note_on_c, 0, 67, 100
2, 13282960, Note_on_c, 0, 67, 0
2, 13282960, Note_on_c, 0, 66, 100
2, 13283040, Note_on_c, 0, 66, 0
2, 13283040, Note_on_c, 0, 62, 100
2, 13283120, Note_on_c, 0, 62, 0
2, 13283120, Note_on_c, 0, 69, 100
2, 13283200, Note_on_c, 0, 69, 0
2, 13283200, Note_on_c, 0, 67, 100
2, 13283280, Note_on_c, 0, 67, 0
2, 13283280, Note_on_c, 0, 64, 100
2, 13283360, Note_on_c, 0, 64, 0
2, 13283360, Note_on_c, 0, 71, 100
2, 13283440, Note_on_c, 0, 71, 0
2, 13283440, Note_on_c, 0, 69, 100
2, 13283520, Note_on_c, 0, 69, 0
2, 13283520, Note_on_c, 0, 71, 100
2, 13283840, Note_on_c, 0, 71, 0
2, 13283840, Note_on_c, 0, 73, 100
2, 13283920, Note_on_c, 0, 73, 0
2, 13283920, Note_on_c, 0, 74, 100
2, 13284000, Note_on_c, 0, 74, 0
2, 13284000, Note_on_c, 0, 73, 100
2, 13284080, Note_on_c, 0, 73, 0
2, 13284080, Note_on_c, 0, 71, 100
2, 13284160, Note_on_c, 0, 71, 0
2, 13284160, Note_on_c, 0, 69, 100
2, 13284240, Note_on_c, 0, 69, 0
2, 13284240, Note_on_c, 0, 67, 100
2, 13284560, Note_on_c, 0, 67, 0
2, 13284560, Note_on_c, 0, 66, 100
2, 13284640, Note_on_c, 0, 66, 0
2, 13284640, Note_on_c, 0, 64, 100
2, 13284720, Note_on_c, 0, 64, 0
2, 13284720, Note_on_c, 0, 66, 100
2, 13284800, Note_on_c, 0, 66, 0
2, 13284800, Note_on_c, 0, 67, 100
2, 13284880, Note_on_c, 0, 67, 0
2, 13284880, Note_on_c, 0, 66, 100
2, 13285520, Note_on_c, 0, 66, 0
2, 13285520, Note_on_c, 0, 69, 100
2, 13285600, Note_on_c, 0, 69, 0
2, 13285600, Note_on_c, 0, 74, 100
2, 13285680, Note_on_c, 0, 74, 0
2, 13285680, Note_on_c, 0, 78, 100
2, 13285760, Note_on_c, 0, 78, 0
2, 13285760, Note_on_c, 0, 81, 100
2, 13285840, Note_on_c, 0, 81, 0
2, 13285840, Note_on_c, 0, 86, 100
2, 13285920, Note_on_c, 0, 86, 0
2, 13285920, Note_on_c, 0, 50, 100
2, 13286400, Note_on_c, 0, 50, 0
2, 13286400, Note_on_c, 0, 38, 100
2, 13286640, Note_on_c, 0, 38, 0
2, 13286640, Note_on_c, 0, 42, 100
2, 13286880, Note_on_c, 0, 42, 0
2, 13286880, Note_on_c, 0, 45, 100
2, 13287120, Note_on_c, 0, 45, 0
2, 13287120, Note_on_c, 0, 50, 100
2, 13287360, Note_on_c, 0, 50, 0
2, 13287360, Note_on_c, 0, 54, 100
2, 13287600, Note_on_c, 0, 54, 0
2, 13287600, Note_on_c, 0, 55, 100
2, 13287840, Note_on_c, 0, 55, 0
2, 13287840, Note_on_c, 0, 59, 100
2, 13288080, Note_on_c, 0, 59, 0
2, 13288080, Note_on_c, 0, 62, 100
2, 13288320, Note_on_c, 0, 62, 0
2, 13288320, Note_on_c, 0, 67, 100
2, 13288560, Note_on_c, 0, 67, 0
2, 13288560, Note_on_c, 0, 71, 100
2, 13288800, Note_on_c, 0, 71, 0
2, 13288800, Note_on_c, 0, 69, 100
2, 13288860, Note_on_c, 0, 69, 0
2, 13288860, Note_on_c, 0, 71, 100
2, 13288920, Note_on_c, 0, 71, 0
2, 13288920, Note_on_c, 0, 64, 100
2, 13289360, Note_on_c, 0, 64, 0
2, 13289360, Note_on_c, 0, 63, 100
2, 13289440, Note_on_c, 0, 63, 0
2, 13289440, Note_on_c, 0, 64, 100
2, 13289520, Note_on_c, 0, 64, 0
2, 13289520, Note_on_c, 0, 66, 100
2, 13289600, Note_on_c, 0, 66, 0
2, 13289600, Note_on_c, 0, 67, 100
2, 13289680, Note_on_c, 0, 67, 0
2, 13289680, Note_on_c, 0, 69, 100
2, 13289760, Note_on_c, 0, 69, 0
2, 13289760, Note_on_c, 0, 67, 100
2, 13289840, Note_on_c, 0, 67, 0
2, 13289840, Note_on_c, 0, 66, 100
2, 13289920, Note_on_c, 0, 66, 0
2, 13289920, Note_on_c, 0, 67, 100
2, 13290000, Note_on_c, 0, 67, 0
2, 13290000, Note_on_c, 0, 69, 100
2, 13290080, Note_on_c, 0, 69, 0
2, 13290080, Note_on_c, 0, 71, 100
2, 13290160, Note_on_c, 0, 71, 0
2, 13290160, Note_on_c, 0, 72, 100
2, 13290240, Note_on_c, 0, 72, 0
2, 13290240, Note_on_c, 0, 71, 100
2, 13290320, Note_on_c, 0, 71, 0
2, 13290320, Note_on_c, 0, 69, 100
2, 13290400, Note_on_c, 0, 69, 0
2, 13290400, Note_on_c, 0, 67, 100
2, 13290480, Note_on_c, 0, 67, 0
2, 13290480, Note_on_c, 0, 66, 100
2, 13290560, Note_on_c, 0, 66, 0
2, 13290560, Note_on_c, 0, 64, 100
2, 13290640, Note_on_c, 0, 64, 0
2, 13290640, Note_on_c, 0, 63, 100
2, 13290720, Note_on_c, 0, 63, 0
2, 13290720, Note_on_c, 0, 64, 100
2, 13291040, Note_on_c, 0, 64, 0
2, 13291040, Note_on_c, 0, 66, 100
2, 13291120, Note_on_c, 0, 66, 0
2, 13291120, Note_on_c, 0, 67, 100
2, 13291200, Note_on_c, 0, 67, 0
2, 13291200, Note_on_c, 0, 66, 100
2, 13291280, Note_on_c, 0, 66, 0
2, 13291280, Note_on_c, 0, 64, 100
2, 13291360, Note_on_c, 0, 64, 0
2, 13291360, Note_on_c, 0, 66, 100
2, 13291440, Note_on_c, 0, 66, 0
2, 13291440, Note_on_c, 0, 67, 100
2, 13291520, Note_on_c, 0, 67, 0
2, 13291520, Note_on_c, 0, 69, 100
2, 13291600, Note_on_c, 0, 69, 0
2, 13291600, Note_on_c, 0, 59, 100
2, 13291680, Note_on_c, 0, 59, 0
2, 13291680, Note_on_c, 0, 57, 100
2, 13291920, Note_on_c, 0, 57, 0
2, 13291920, Note_on_c, 0, 55, 100
2, 13292160, Note_on_c, 0, 55, 0
2, 13292160, Note_on_c, 0, 54, 100
2, 13292240, Note_on_c, 0, 54, 0
2, 13292240, Note_on_c, 0, 52, 100
2, 13292320, Note_on_c, 0, 52, 0
2, 13292320, Note_on_c, 0, 51, 100
2, 13292480, Note_on_c, 0, 51, 0
2, 13292480, Note_on_c, 0, 52, 100
2, 13292560, Note_on_c, 0, 52, 0
2, 13292560, Note_on_c, 0, 53, 100
2, 13292640, Note_on_c, 0, 53, 0
2, 13292640, Note_on_c, 0, 52, 100
2, 13292720, Note_on_c, 0, 52, 0
2, 13292720, Note_on_c, 0, 53, 100
2, 13292800, Note_on_c, 0, 53, 0
2, 13292800, Note_on_c, 0, 54, 100
2, 13292880, Note_on_c, 0, 54, 0
2, 13292880, Note_on_c, 0, 52, 100
2, 13292960, Note_on_c, 0, 52, 0
2, 13292960, Note_on_c, 0, 54, 100
2, 13293040, Note_on_c, 0, 54, 0
2, 13293040, Note_on_c, 0, 55, 100
2, 13293120, Note_on_c, 0, 55, 0
2, 13293120, Note_on_c, 0, 54, 100
2, 13293200, Note_on_c, 0, 54, 0
2, 13293200, Note_on_c, 0, 55, 100
2, 13293280, Note_on_c, 0, 55, 0
2, 13293280, Note_on_c, 0, 56, 100
2, 13293360, Note_on_c, 0, 56, 0
2, 13293360, Note_on_c, 0, 54, 100
2, 13293440, Note_on_c, 0, 54, 0
2, 13293440, Note_on_c, 0, 56, 100
2, 13293520, Note_on_c, 0, 56, 0
2, 13293520, Note_on_c, 0, 57, 100
2, 13293600, Note_on_c, 0, 57, 0
2, 13293600, Note_on_c, 0, 58, 100
2, 13293930, Note_on_c, 0, 58, 0
2, 13293930, Note_on_c, 0, 59, 100
2, 13294000, Note_on_c, 0, 59, 0
2, 13294000, Note_on_c, 0, 60, 100
2, 13294080, Note_on_c, 0, 60, 0
2, 13294080, Note_on_c, 0, 59, 100
2, 13294160, Note_on_c, 0, 59, 0
2, 13294160, Note_on_c, 0, 60, 100
2, 13294240, Note_on_c, 0, 60, 0
2, 13294240, Note_on_c, 0, 61, 100
2, 13294320, Note_on_c, 0, 61, 0
2, 13294320, Note_on_c, 0, 59, 100
2, 13294400, Note_on_c, 0, 59, 0
2, 13294400, Note_on_c, 0, 61, 100
2, 13294480, Note_on_c, 0, 61, 0
2, 13294480, Note_on_c, 0, 62, 100
2, 13294560, Note_on_c, 0, 62, 0
2, 13294560, Note_on_c, 0, 61, 100
2, 13294640, Note_on_c, 0, 61, 0
2, 13294640, Note_on_c, 0, 62, 100
2, 13294720, Note_on_c, 0, 62, 0
2, 13294720, Note_on_c, 0, 63, 100
2, 13294800, Note_on_c, 0, 63, 0
2, 13294800, Note_on_c, 0, 61, 100
2, 13294880, Note_on_c, 0, 61, 0
2, 13294880, Note_on_c, 0, 63, 100
2, 13294960, Note_on_c, 0, 63, 0
2, 13294960, Note_on_c, 0, 64, 100
2, 13295040, Note_on_c, 0, 64, 0
2, 13295040, Note_on_c, 0, 63, 100
2, 13295120, Note_on_c, 0, 63, 0
2, 13295120, Note_on_c, 0, 64, 100
2, 13295200, Note_on_c, 0, 64, 0
2, 13295200, Note_on_c, 0, 66, 100
2, 13295280, Note_on_c, 0, 66, 0
2, 13295280, Note_on_c, 0, 64, 100
2, 13295360, Note_on_c, 0, 64, 0
2, 13295360, Note_on_c, 0, 66, 100
2, 13295440, Note_on_c, 0, 66, 0
2, 13295440, Note_on_c, 0, 67, 100
2, 13295520, Note_on_c, 0, 67, 0
2, 13295520, Note_on_c, 0, 66, 100
2, 13295600, Note_on_c, 0, 66, 0
2, 13295600, Note_on_c, 0, 67, 100
2, 13295680, Note_on_c, 0, 67, 0
2, 13295680, Note_on_c, 0, 69, 100
2, 13295760, Note_on_c, 0, 69, 0
2, 13295760, Note_on_c, 0, 67, 100
2, 13295840, Note_on_c, 0, 67, 0
2, 13295840, Note_on_c, 0, 69, 100
2, 13295920, Note_on_c, 0, 69, 0
2, 13295920, Note_on_c, 0, 71, 100
2, 13296000, Note_on_c, 0, 71, 0
2, 13296000, Note_on_c, 0, 69, 100
2, 13296080, Note_on_c, 0, 69, 0
2, 13296080, Note_on_c, 0, 71, 100
2, 13296160, Note_on_c, 0, 71, 0
2, 13296160, Note_on_c, 0, 72, 100
2, 13296240, Note_on_c, 0, 72, 0
2, 13296240, Note_on_c, 0, 71, 100
2, 13296320, Note_on_c, 0, 71, 0
2, 13296320, Note_on_c, 0, 69, 100
2, 13296400, Note_on_c, 0, 69, 0
2, 13296400, Note_on_c, 0, 67, 100
2, 13296480, Note_on_c, 0, 67, 0
2, 13296480, Note_on_c, 0, 66, 100
2, 13296560, Note_on_c, 0, 66, 0
2, 13296560, Note_on_c, 0, 67, 100
2, 13296640, Note_on_c, 0, 67, 0
2, 13296640, Note_on_c, 0, 69, 100
2, 13296720, Note_on_c, 0, 69, 0
2, 13296720, Note_on_c, 0, 67, 100
2, 13296800, Note_on_c, 0, 67, 0
2, 13296800, Note_on_c, 0, 66, 100
2, 13296880, Note_on_c, 0, 66, 0
2, 13296880, Note_on_c, 0, 64, 100
2, 13296960, Note_on_c, 0, 64, 0
2, 13296960, Note_on_c, 0, 50, 100
2, 13297680, Note_on_c, 0, 50, 0
2, 13297680, Note_on_c, 0, 48, 100
2, 13297920, Note_on_c, 0, 48, 0
2, 13297920, Note_on_c, 0, 64, 100
2, 13298880, Note_on_c, 0, 64, 0
2, 13298880, Note_on_c, 0, 48, 100
2, 13299120, Note_on_c, 0, 48, 0
2, 13299120, Note_on_c, 0, 47, 100
2, 13299360, Note_on_c, 0, 47, 0
2, 13299360, Note_on_c, 0, 62, 100
2, 13300320, Note_on_c, 0, 62, 0
2, 13300320, Note_on_c, 0, 47, 100
2, 13300560, Note_on_c, 0, 47, 0
2, 13300560, Note_on_c, 0, 45, 100
2, 13300800, Note_on_c, 0, 45, 0
2, 13300800, Note_on_c, 0, 59, 100
2, 13301120, Note_on_c, 0, 59, 0
2, 13301120, Note_on_c, 0, 67, 100
2, 13301200, Note_on_c, 0, 67, 0
2, 13301200, Note_on_c, 0, 57, 100
2, 13301360, Note_on_c, 0, 57, 0
2, 13301360, Note_on_c, 0, 66, 100
2, 13301440, Note_on_c, 0, 66, 0
2, 13301440, Note_on_c, 0, 55, 100
2, 13301600, Note_on_c, 0, 55, 0
2, 13301600, Note_on_c, 0, 64, 100
2, 13301680, Note_on_c, 0, 64, 0
2, 13301680, Note_on_c, 0, 54, 100
2, 13301840, Note_on_c, 0, 54, 0
2, 13301840, Note_on_c, 0, 62, 100
2, 13301920, Note_on_c, 0, 62, 0
2, 13301920, Note_on_c, 0, 55, 100
2, 13302080, Note_on_c, 0, 55, 0
2, 13302080, Note_on_c, 0, 64, 100
2, 13302160, Note_on_c, 0, 64, 0
2, 13302160, Note_on_c, 0, 50, 100
2, 13302240, Note_on_c, 0, 50, 0
2, 13302240, Note_on_c, 0, 57, 100
2, 13302560, Note_on_c, 0, 57, 0
2, 13302560, Note_on_c, 0, 66, 100
2, 13302640, Note_on_c, 0, 66, 0
2, 13302640, Note_on_c, 0, 59, 100
2, 13302800, Note_on_c, 0, 59, 0
2, 13302800, Note_on_c, 0, 67, 100
2, 13302880, Note_on_c, 0, 67, 0
2, 13302880, Note_on_c, 0, 60, 100
2, 13303040, Note_on_c, 0, 60, 0
2, 13303040, Note_on_c, 0, 69, 100
2, 13303120, Note_on_c, 0, 69, 0
2, 13303120, Note_on_c, 0, 59, 100
2, 13303280, Note_on_c, 0, 59, 0
2, 13303280, Note_on_c, 0, 67, 100
2, 13303360, Note_on_c, 0, 67, 0
2, 13303360, Note_on_c, 0, 57, 100
2, 13303520, Note_on_c, 0, 57, 0
2, 13303520, Note_on_c, 0, 66, 100
2, 13303600, Note_on_c, 0, 66, 0
2, 13303600, Note_on_c, 0, 55, 100
2, 13303680, Note_on_c, 0, 55, 0
2, 13303680, Note_on_c, 0, 67, 100
2, 13303920, Note_on_c, 0, 67, 0
2, 13303920, Note_on_c, 0, 71, 100
2, 13304240, Note_on_c, 0, 71, 0
2, 13304240, Note_on_c, 0, 64, 100
2, 13304320, Note_on_c, 0, 64, 0
2, 13304320, Note_on_c, 0, 65, 100
2, 13304400, Note_on_c, 0, 65, 0
2, 13304400, Note_on_c, 0, 69, 100
2, 13304480, Note_on_c, 0, 69, 0
2, 13304480, Note_on_c, 0, 62, 100
2, 13304560, Note_on_c, 0, 62, 0
2, 13304560, Note_on_c, 0, 64, 100
2, 13304640, Note_on_c, 0, 64, 0
2, 13304640, Note_on_c, 0, 67, 100
2, 13304720, Note_on_c, 0, 67, 0
2, 13304720, Note_on_c, 0, 60, 100
2, 13304800, Note_on_c, 0, 60, 0
2, 13304800, Note_on_c, 0, 62, 100
2, 13304880, Note_on_c, 0, 62, 0
2, 13304880, Note_on_c, 0, 65, 100
2, 13304960, Note_on_c, 0, 65, 0
2, 13304960, Note_on_c, 0, 59, 100
2, 13305040, Note_on_c, 0, 59, 0
2, 13305040, Note_on_c, 0, 60, 100
2, 13305120, Note_on_c, 0, 60, 0
2, 13305120, Note_on_c, 0, 55, 100
2, 13305200, Note_on_c, 0, 55, 0
2, 13305200, Note_on_c, 0, 64, 100
2, 13305280, Note_on_c, 0, 64, 0
2, 13305280, Note_on_c, 0, 62, 100
2, 13305360, Note_on_c, 0, 62, 0
2, 13305360, Note_on_c, 0, 59, 100
2, 13305440, Note_on_c, 0, 59, 0
2, 13305440, Note_on_c, 0, 65, 100
2, 13305520, Note_on_c, 0, 65, 0
2, 13305520, Note_on_c, 0, 64, 100
2, 13305600, Note_on_c, 0, 64, 0
2, 13305600, Note_on_c, 0, 79, 100
2, 13305840, Note_on_c, 0, 79, 0
2, 13305840, Note_on_c, 0, 84, 100
2, 13306080, Note_on_c, 0, 84, 0
2, 13306080, Note_on_c, 0, 76, 100
2, 13306320, Note_on_c, 0, 76, 0
2, 13306320, Note_on_c, 0, 74, 100
2, 13306560, Note_on_c, 0, 74, 0
2, 13306560, Note_on_c, 0, 76, 100
2, 13306880, Note_on_c, 0, 76, 0
2, 13306880, Note_on_c, 0, 78, 100
2, 13306960, Note_on_c, 0, 78, 0
2, 13306960, Note_on_c, 0, 79, 100
2, 13307040, Note_on_c, 0, 79, 0
2, 13307040, Note_on_c, 0, 78, 100
2, 13307120, Note_on_c, 0, 78, 0
2, 13307120, Note_on_c, 0, 76, 100
2, 13307200, Note_on_c, 0, 76, 0
2, 13307200, Note_on_c, 0, 74, 100
2, 13307280, Note_on_c, 0, 74, 0
2, 13307280, Note_on_c, 0, 72, 100
2, 13307600, Note_on_c, 0, 72, 0
2, 13307600, Note_on_c, 0, 71, 100
2, 13307680, Note_on_c, 0, 71, 0
2, 13307680, Note_on_c, 0, 69, 100
2, 13307760, Note_on_c, 0, 69, 0
2, 13307760, Note_on_c, 0, 71, 100
2, 13307840, Note_on_c, 0, 71, 0
2, 13307840, Note_on_c, 0, 72, 100
2, 13307920, Note_on_c, 0, 72, 0
2, 13307920, Note_on_c, 0, 71, 100
2, 13308000, Note_on_c, 0, 71, 0
2, 13308000, Note_on_c, 0, 59, 100
2, 13308560, Note_on_c, 0, 59, 0
2, 13308560, Note_on_c, 0, 62, 100
2, 13308640, Note_on_c, 0, 62, 0
2, 13308640, Note_on_c, 0, 67, 100
2, 13308720, Note_on_c, 0, 67, 0
2, 13308720, Note_on_c, 0, 71, 100
2, 13308800, Note_on_c, 0, 71, 0
2, 13308800, Note_on_c, 0, 74, 100
2, 13308880, Note_on_c, 0, 74, 0
2, 13308880, Note_on_c, 0, 79, 100
2, 13308960, Note_on_c, 0, 79, 0
2, 13308960, Note_on_c, 0, 50, 100
2, 13309440, Note_on_c, 0, 50, 0
2, 13309440, Note_on_c, 0, 38, 100
2, 13309680, Note_on_c, 0, 38, 0
2, 13309680, Note_on_c, 0, 42, 100
2, 13309920, Note_on_c, 0, 42, 0
2, 13309920, Note_on_c, 0, 45, 100
2, 13310160, Note_on_c, 0, 45, 0
2, 13310160, Note_on_c, 0, 50, 100
2, 13310400, Note_on_c, 0, 50, 0
2, 13310400, Note_on_c, 0, 54, 100
2, 13310640, Note_on_c, 0, 54, 0
2, 13310640, Note_on_c, 0, 55, 100
2, 13310880, Note_on_c, 0, 55, 0
2, 13310880, Note_on_c, 0, 59, 100
2, 13311120, Note_on_c, 0, 59, 0
2, 13311120, Note_on_c, 0, 62, 100
2, 13311360, Note_on_c, 0, 62, 0
2, 13311360, Note_on_c, 0, 67, 100
2, 13311600, Note_on_c, 0, 67, 0
2, 13311600, Note_on_c, 0, 71, 100
2, 13311840, Note_on_c, 0, 71, 0
2, 13311840, Note_on_c, 0, 69, 100
2, 13311900, Note_on_c, 0, 69, 0
2, 13311900, Note_on_c, 0, 71, 100
2, 13311960, Note_on_c, 0, 71, 0
2, 13311960, Note_on_c, 0, 64, 100
2, 13312400, Note_on_c, 0, 64, 0
2, 13312400, Note_on_c, 0, 63, 100
2, 13312480, Note_on_c, 0, 63, 0
2, 13312480, Note_on_c, 0, 64, 100
2, 13312560, Note_on_c, 0, 64, 0
2, 13312560, Note_on_c, 0, 66, 100
2, 13312640, Note_on_c, 0, 66, 0
2, 13312640, Note_on_c, 0, 67, 100
2, 13312720, Note_on_c, 0, 67, 0
2, 13312720, Note_on_c, 0, 69, 100
2, 13312800, Note_on_c, 0, 69, 0
2, 13312800, Note_on_c, 0, 67, 100
2, 13312880, Note_on_c, 0, 67, 0
2, 13312880, Note_on_c, 0, 66, 100
2, 13312960, Note_on_c, 0, 66, 0
2, 13312960, Note_on_c, 0, 67, 100
2, 13313040, Note_on_c, 0, 67, 0
2, 13313040, Note_on_c, 0, 69, 100
2, 13313120, Note_on_c, 0, 69, 0
2, 13313120, Note_on_c, 0, 71, 100
2, 13313200, Note_on_c, 0, 71, 0
2, 13313200, Note_on_c, 0, 72, 100
2, 13313280, Note_on_c, 0, 72, 0
2, 13313280, Note_on_c, 0, 71, 100
2, 13313360, Note_on_c, 0, 71, 0
2, 13313360, Note_on_c, 0, 69, 100
2, 13313440, Note_on_c, 0, 69, 0
2, 13313440, Note_on_c, 0, 67, 100
2, 13313520, Note_on_c, 0, 67, 0
2, 13313520, Note_on_c, 0, 66, 100
2, 13313600, Note_on_c, 0, 66, 0
2, 13313600, Note_on_c, 0, 64, 100
2, 13313680, Note_on_c, 0, 64, 0
2, 13313680, Note_on_c, 0, 63, 100
2, 13313760, Note_on_c, 0, 63, 0
2, 13313760, Note_on_c, 0, 64, 100
2, 13314080, Note_on_c, 0, 64, 0
2, 13314080, Note_on_c, 0, 66, 100
2, 13314160, Note_on_c, 0, 66, 0
2, 13314160, Note_on_c, 0, 67, 100
2, 13314240, Note_on_c, 0, 67, 0
2, 13314240, Note_on_c, 0, 66, 100
2, 13314320, Note_on_c, 0, 66, 0
2, 13314320, Note_on_c, 0, 64, 100
2, 13314400, Note_on_c, 0, 64, 0
2, 13314400, Note_on_c, 0, 66, 100
2, 13314480, Note_on_c, 0, 66, 0
2, 13314480, Note_on_c, 0, 67, 100
2, 13314560, Note_on_c, 0, 67, 0
2, 13314560, Note_on_c, 0, 69, 100
2, 13314640, Note_on_c, 0, 69, 0
2, 13314640, Note_on_c, 0, 59, 100
2, 13314720, Note_on_c, 0, 59, 0
2, 13314720, Note_on_c, 0, 57, 100
2, 13314960, Note_on_c, 0, 57, 0
2, 13314960, Note_on_c, 0, 55, 100
2, 13315200, Note_on_c, 0, 55, 0
2, 13315200, Note_on_c, 0, 54, 100
2, 13315280, Note_on_c, 0, 54, 0
2, 13315280, Note_on_c, 0, 52, 100
2, 13315360, Note_on_c, 0, 52, 0
2, 13315360, Note_on_c, 0, 51, 100
2, 13315520, Note_on_c, 0, 51, 0
2, 13315520, Note_on_c, 0, 52, 100
2, 13315600, Note_on_c, 0, 52, 0
2, 13315600, Note_on_c, 0, 53, 100
2, 13315680, Note_on_c, 0, 53, 0
2, 13315680, Note_on_c, 0, 52, 100
2, 13315760, Note_on_c, 0, 52, 0
2, 13315760, Note_on_c, 0, 53, 100
2, 13315840, Note_on_c, 0, 53, 0
2, 13315840, Note_on_c, 0, 54, 100
2, 13315920, Note_on_c, 0, 54, 0
2, 13315920, Note_on_c, 0, 52, 100
2, 13316000, Note_on_c, 0, 52, 0
2, 13316000, Note_on_c, 0, 54, 100
2, 13316080, Note_on_c, 0, 54, 0
2, 13316080, Note_on_c, 0, 55, 100
2, 13316160, Note_on_c, 0, 55, 0
2, 13316160, Note_on_c, 0, 54, 100
2, 13316240, Note_on_c, 0, 54, 0
2, 13316240, Note_on_c, 0, 55, 100
2, 13316320, Note_on_c, 0, 55, 0
2, 13316320, Note_on_c, 0, 56, 100
2, 13316400, Note_on_c, 0, 56, 0
2, 13316400, Note_on_c, 0, 54, 100
2, 13316480, Note_on_c, 0, 54, 0
2, 13316480, Note_on_c, 0, 56, 100
2, 13316560, Note_on_c, 0, 56, 0
2, 13316560, Note_on_c, 0, 57, 100
2, 13316640, Note_on_c, 0, 57, 0
2, 13316640, Note_on_c, 0, 58, 100
2, 13316970, Note_on_c, 0, 58, 0
2, 13316970, Note_on_c, 0, 59, 100
2, 13317040, Note_on_c, 0, 59, 0
2, 13317040, Note_on_c, 0, 60, 100
2, 13317120, Note_on_c, 0, 60, 0
2, 13317120, Note_on_c, 0, 59, 100
2, 13317200, Note_on_c, 0, 59, 0
2, 13317200, Note_on_c, 0, 60, 100
2, 13317280, Note_on_c, 0, 60, 0
2, 13317280, Note_on_c, 0, 61, 100
2, 13317360, Note_on_c, 0, 61, 0
2, 13317360, Note_on_c, 0, 59, 100
2, 13317440, Note_on_c, 0, 59, 0
2, 13317440, Note_on_c, 0, 61, 100
2, 13317520, Note_on_c, 0, 61, 0
2, 13317520, Note_on_c, 0, 62, 100
2, 13317600, Note_on_c, 0, 62, 0
2, 13317600, Note_on_c, 0, 61, 100
2, 13317680, Note_on_c, 0, 61, 0
2, 13317680, Note_on_c, 0, 62, 100
2, 13317760, Note_on_c, 0, 62, 0
2, 13317760, Note_on_c, 0, 63, 100
2, 13317840, Note_on_c, 0, 63, 0
2, 13317840, Note_on_c, 0, 61, 100
2, 13317920, Note_on_c, 0, 61, 0
2, 13317920, Note_on_c, 0, 63, 100
2, 13318000, Note_on_c, 0, 63, 0
2, 13318000, Note_on_c, 0, 64, 100
2, 13318080, Note_on_c, 0, 64, 0
2, 13318080, Note_on_c, 0, 63, 100
2, 13318160, Note_on_c, 0, 63, 0
2, 13318160, Note_on_c, 0, 64, 100
2, 13318240, Note_on_c, 0, 64, 0
2, 13318240, Note_on_c, 0, 66, 100
2, 13318320, Note_on_c, 0, 66, 0
2, 13318320, Note_on_c, 0, 64, 100
2, 13318400, Note_on_c, 0, 64, 0
2, 13318400, Note_on_c, 0, 66, 100
2, 13318480, Note_on_c, 0, 66, 0
2, 13318480, Note_on_c, 0, 67, 100
2, 13318560, Note_on_c, 0, 67, 0
2, 13318560, Note_on_c, 0, 66, 100
2, 13318640, Note_on_c, 0, 66, 0
2, 13318640, Note_on_c, 0, 67, 100
2, 13318720, Note_on_c, 0, 67, 0
2, 13318720, Note_on_c, 0, 69, 100
2, 13318800, Note_on_c, 0, 69, 0
2, 13318800, Note_on_c, 0, 67, 100
2, 13318880, Note_on_c, 0, 67, 0
2, 13318880, Note_on_c, 0, 69, 100
2, 13318960, Note_on_c, 0, 69, 0
2, 13318960, Note_on_c, 0, 71, 100
2, 13319040, Note_on_c, 0, 71, 0
2, 13319040, Note_on_c, 0, 69, 100
2, 13319120, Note_on_c, 0, 69, 0
2, 13319120, Note_on_c, 0, 71, 100
2, 13319200, Note_on_c, 0, 71, 0
2, 13319200, Note_on_c, 0, 72, 100
2, 13319280, Note_on_c, 0, 72, 0
2, 13319280, Note_on_c, 0, 71, 100
2, 13319360, Note_on_c, 0, 71, 0
2, 13319360, Note_on_c, 0, 69, 100
2, 13319440, Note_on_c, 0, 69, 0
2, 13319440, Note_on_c, 0, 67, 100
2, 13319520, Note_on_c, 0, 67, 0
2, 13319520, Note_on_c, 0, 66, 100
2, 13319600, Note_on_c, 0, 66, 0
2, 13319600, Note_on_c, 0, 67, 100
2, 13319680, Note_on_c, 0, 67, 0
2, 13319680, Note_on_c, 0, 69, 100
2, 13319760, Note_on_c, 0, 69, 0
2, 13319760, Note_on_c, 0, 67, 100
2, 13319840, Note_on_c, 0, 67, 0
2, 13319840, Note_on_c, 0, 66, 100
2, 13319920, Note_on_c, 0, 66, 0
2, 13319920, Note_on_c, 0, 64, 100
2, 13320000, Note_on_c, 0, 64, 0
2, 13320000, Note_on_c, 0, 50, 100
2, 13320720, Note_on_c, 0, 50, 0
2, 13320720, Note_on_c, 0, 48, 100
2, 13320960, Note_on_c, 0, 48, 0
2, 13320960, Note_on_c, 0, 64, 100
2, 13321920, Note_on_c, 0, 64, 0
2, 13321920, Note_on_c, 0, 48, 100
2, 13322160, Note_on_c, 0, 48, 0
2, 13322160, Note_on_c, 0, 47, 100
2, 13322400, Note_on_c, 0, 47, 0
2, 13322400, Note_on_c, 0, 62, 100
2, 13323360, Note_on_c, 0, 62, 0
2, 13323360, Note_on_c, 0, 47, 100
2, 13323600, Note_on_c, 0, 47, 0
2, 13323600, Note_on_c, 0, 45, 100
2, 13323840, Note_on_c, 0, 45, 0
2, 13323840, Note_on_c, 0, 59, 100
2, 13324160, Note_on_c, 0, 59, 0
2, 13324160, Note_on_c, 0, 67, 100
2, 13324240, Note_on_c, 0, 67, 0
2, 13324240, Note_on_c, 0, 57, 100
2, 13324400, Note_on_c, 0, 57, 0
2, 13324400, Note_on_c, 0, 66, 100
2, 13324480, Note_on_c, 0, 66, 0
2, 13324480, Note_on_c, 0, 55, 100
2, 13324640, Note_on_c, 0, 55, 0
2, 13324640, Note_on_c, 0, 64, 100
2, 13324720, Note_on_c, 0, 64, 0
2, 13324720, Note_on_c, 0, 54, 100
2, 13324880, Note_on_c, 0, 54, 0
2, 13324880, Note_on_c, 0, 62, 100
2, 13324960, Note_on_c, 0, 62, 0
2, 13324960, Note_on_c, 0, 55, 100
2, 13325120, Note_on_c, 0, 55, 0
2, 13325120, Note_on_c, 0, 64, 100
2, 13325200, Note_on_c, 0, 64, 0
2, 13325200, Note_on_c, 0, 50, 100
2, 13325280, Note_on_c, 0, 50, 0
2, 13325280, Note_on_c, 0, 57, 100
2, 13325600, Note_on_c, 0, 57, 0
2, 13325600, Note_on_c, 0, 66, 100
2, 13325680, Note_on_c, 0, 66, 0
2, 13325680, Note_on_c, 0, 59, 100
2, 13325840, Note_on_c, 0, 59, 0
2, 13325840, Note_on_c, 0, 67, 100
2, 13325920, Note_on_c, 0, 67, 0
2, 13325920, Note_on_c, 0, 60, 100
2, 13326080, Note_on_c, 0, 60, 0
2, 13326080, Note_on_c, 0, 69, 100
2, 13326160, Note_on_c, 0, 69, 0
2, 13326160, Note_on_c, 0, 59, 100
2, 13326320, Note_on_c, 0, 59, 0
2, 13326320, Note_on_c, 0, 67, 100
2, 13326400, Note_on_c, 0, 67, 0
2, 13326400, Note_on_c, 0, 57, 100
2, 13326560, Note_on_c, 0, 57, 0
2, 13326560, Note_on_c, 0, 66, 100
2, 13326640, Note_on_c, 0, 66, 0
2, 13326640, Note_on_c, 0, 55, 100
2, 13326720, Note_on_c, 0, 55, 0
2, 13326720, Note_on_c, 0, 67, 100
2, 13326960, Note_on_c, 0, 67, 0
2, 13326960, Note_on_c, 0, 71, 100
2, 13327280, Note_on_c, 0, 71, 0
2, 13327280, Note_on_c, 0, 64, 100
2, 13327360, Note_on_c, 0, 64, 0
2, 13327360, Note_on_c, 0, 65, 100
2, 13327440, Note_on_c, 0, 65, 0
2, 13327440, Note_on_c, 0, 69, 100
2, 13327520, Note_on_c, 0, 69, 0
2, 13327520, Note_on_c, 0, 62, 100
2, 13327600, Note_on_c, 0, 62, 0
2, 13327600, Note_on_c, 0, 64, 100
2, 13327680, Note_on_c, 0, 64, 0
2, 13327680, Note_on_c, 0, 67, 100
2, 13327760, Note_on_c, 0, 67, 0
2, 13327760, Note_on_c, 0, 60, 100
2, 13327840, Note_on_c, 0, 60, 0
2, 13327840, Note_on_c, 0, 62, 100
2, 13327920, Note_on_c, 0, 62, 0
2, 13327920, Note_on_c, 0, 65, 100
2, 13328000, Note_on_c, 0, 65, 0
2, 13328000, Note_on_c, 0, 59, 100
2, 13328080, Note_on_c, 0, 59, 0
2, 13328080, Note_on_c, 0, 60, 100
2, 13328160, Note_on_c, 0, 60, 0
2, 13328160, Note_on_c, 0, 55, 100
2, 13328240, Note_on_c, 0, 55, 0
2, 13328240, Note_on_c, 0, 64, 100
2, 13328320, Note_on_c, 0, 64, 0
2, 13328320, Note_on_c, 0, 62, 100
2, 13328400, Note_on_c, 0, 62, 0
2, 13328400, Note_on_c, 0, 59, 100
2, 13328480, Note_on_c, 0, 59, 0
2, 13328480, Note_on_c, 0, 65, 100
2, 13328560, Note_on_c, 0, 65, 0
2, 13328560, Note_on_c, 0, 64, 100
2, 13328640, Note_on_c, 0, 64, 0
2, 13328640, Note_on_c, 0, 79, 100
2, 13328880, Note_on_c, 0, 79, 0
2, 13328880, Note_on_c, 0, 84, 100
2, 13329120, Note_on_c, 0, 84, 0
2, 13329120, Note_on_c, 0, 76, 100
2, 13329360, Note_on_c, 0, 76, 0
2, 13329360, Note_on_c, 0, 74, 100
2, 13329600, Note_on_c, 0, 74, 0
2, 13329600, Note_on_c, 0, 76, 100
2, 13329920, Note_on_c, 0, 76, 0
2, 13329920, Note_on_c, 0, 78, 100
2, 13330000, Note_on_c, 0, 78, 0
2, 13330000, Note_on_c, 0, 79, 100
2, 13330080, Note_on_c, 0, 79, 0
2, 13330080, Note_on_c, 0, 78, 100
2, 13330160, Note_on_c, 0, 78, 0
2, 13330160, Note_on_c, 0, 76, 100
2, 13330240, Note_on_c, 0, 76, 0
2, 13330240, Note_on_c, 0, 74, 100
2, 13330320, Note_on_c, 0, 74, 0
2, 13330320, Note_on_c, 0, 72, 100
2, 13330640, Note_on_c, 0, 72, 0
2, 13330640, Note_on_c, 0, 71, 100
2, 13330720, Note_on_c, 0, 71, 0
2, 13330720, Note_on_c, 0, 69, 100
2, 13330800, Note_on_c, 0, 69, 0
2, 13330800, Note_on_c, 0, 71, 100
2, 13330880, Note_on_c, 0, 71, 0
2, 13330880, Note_on_c, 0, 72, 100
2, 13330960, Note_on_c, 0, 72, 0
2, 13330960, Note_on_c, 0, 71, 100
2, 13331040, Note_on_c, 0, 71, 0
2, 13331040, Note_on_c, 0, 59, 100
2, 13331600, Note_on_c, 0, 59, 0
2, 13331600, Note_on_c, 0, 62, 100
2, 13331680, Note_on_c, 0, 62, 0
2, 13331680, Note_on_c, 0, 67, 100
2, 13331760, Note_on_c, 0, 67, 0
2, 13331760, Note_on_c, 0, 71, 100
2, 13331840, Note_on_c, 0, 71, 0
2, 13331840, Note_on_c, 0, 74, 100
2, 13331920, Note_on_c, 0, 74, 0
2, 13331920, Note_on_c, 0, 79, 100
2, 13332000, Note_on_c, 0, 79, 0
2, 13332000, Note_on_c, 0, 64, 100
2, 13394880, Note_on_c, 0, 64, 0
2, 13394880, Note_on_c, 0, 62, 100
2, 13396320, Note_on_c, 0, 62, 0
2, 13396320, Note_on_c, 0, 61, 100
2, 13396560, Note_on_c, 0, 61, 0
2, 13396560, Note_on_c, 0, 62, 100
2, 13396800, Note_on_c, 0, 62, 0
2, 13396800, Note_on_c, 0, 61, 100
2, 13398240, Note_on_c, 0, 61, 0
2, 13398240, Note_on_c, 0, 59, 100
2, 13398480, Note_on_c, 0, 59, 0
2, 13398480, Note_on_c, 0, 61, 100
2, 13398720, Note_on_c, 0, 61, 0
2, 13398720, Note_on_c, 0, 64, 100
2, 13399200, Note_on_c, 0, 64, 0
2, 13399200, Note_on_c, 0, 57, 100
2, 13399680, Note_on_c, 0, 57, 0
2, 13399680, Note_on_c, 0, 55, 100
2, 13402080, Note_on_c, 0, 55, 0
2, 13402080, Note_on_c, 0, 54, 100
2, 13402320, Note_on_c, 0, 54, 0
2, 13402320, Note_on_c, 0, 55, 100
2, 13402560, Note_on_c, 0, 55, 0
2, 13402560, Note_on_c, 0, 52, 100
2, 13404000, Note_on_c, 0, 52, 0
2, 13404000, Note_on_c, 0, 57, 100
2, 13405920, Note_on_c, 0, 57, 0
2, 13405920, Note_on_c, 0, 55, 100
2, 13406160, Note_on_c, 0, 55, 0
2, 13406160, Note_on_c, 0, 57, 100
2, 13406400, Note_on_c, 0, 57, 0
2, 13406400, Note_on_c, 0, 54, 100
2, 13406880, Note_on_c, 0, 54, 0
2, 13406880, Note_on_c, 0, 62, 100
2, 13407360, Note_on_c, 0, 62, 0
2, 13407360, Note_on_c, 0, 64, 100
2, 13410240, Note_on_c, 0, 64, 0
2, 13410240, Note_on_c, 0, 62, 100
2, 13411680, Note_on_c, 0, 62, 0
2, 13411680, Note_on_c, 0, 61, 100
2, 13411920, Note_on_c, 0, 61, 0
2, 13411920, Note_on_c, 0, 62, 100
2, 13412160, Note_on_c, 0, 62, 0
2, 13412160, Note_on_c, 0, 61, 100
2, 13413600, Note_on_c, 0, 61, 0
2, 13413600, Note_on_c, 0, 59, 100
2, 13413840, Note_on_c, 0, 59, 0
2, 13413840, Note_on_c, 0, 61, 100
2, 13414080, Note_on_c, 0, 61, 0
2, 13414080, Note_on_c, 0, 64, 100
2, 13414560, Note_on_c, 0, 64, 0
2, 13414560, Note_on_c, 0, 57, 100
2, 13417920, Note_on_c, 0, 57, 0
2, 13417920, Note_on_c, 0, 55, 100
2, 13419360, Note_on_c, 0, 55, 0
2, 13419360, Note_on_c, 0, 54, 100
2, 13419600, Note_on_c, 0, 54, 0
2, 13419600, Note_on_c, 0, 55, 100
2, 13419840, Note_on_c, 0, 55, 0
2, 13419840, Note_on_c, 0, 59, 100
2, 13420320, Note_on_c, 0, 59, 0
2, 13420320, Note_on_c, 0, 49, 100
2, 13420800, Note_on_c, 0, 49, 0
2, 13420800, Note_on_c, 0, 50, 100
2, 13421280, Note_on_c, 0, 50, 0
2, 13421280, Note_on_c, 0, 52, 100
2, 13421760, Note_on_c, 0, 52, 0
2, 13421760, Note_on_c, 0, 54, 100
2, 13422000, Note_on_c, 0, 54, 0
2, 13422000, Note_on_c, 0, 55, 100
2, 13422240, Note_on_c, 0, 55, 0
2, 13422240, Note_on_c, 0, 54, 100
2, 13423200, Note_on_c, 0, 54, 0
2, 13423200, Note_on_c, 0, 52, 100
2, 13423440, Note_on_c, 0, 52, 0
2, 13423440, Note_on_c, 0, 54, 100
2, 13423680, Note_on_c, 0, 54, 0
2, 13423680, Note_on_c, 0, 64, 100
2, 13425600, Note_on_c, 0, 64, 0
2, 13425600, Note_on_c, 0, 62, 100
2, 13427040, Note_on_c, 0, 62, 0
2, 13427040, Note_on_c, 0, 61, 100
2, 13427280, Note_on_c, 0, 61, 0
2, 13427280, Note_on_c, 0, 62, 100
2, 13427520, Note_on_c, 0, 62, 0
2, 13427520, Note_on_c, 0, 61, 100
2, 13428960, Note_on_c, 0, 61, 0
2, 13428960, Note_on_c, 0, 59, 100
2, 13429200, Note_on_c, 0, 59, 0
2, 13429200, Note_on_c, 0, 61, 100
2, 13429440, Note_on_c, 0, 61, 0
2, 13429440, Note_on_c, 0, 64, 100
2, 13429920, Note_on_c, 0, 64, 0
2, 13429920, Note_on_c, 0, 57, 100
2, 13430400, Note_on_c, 0, 57, 0
2, 13430400, Note_on_c, 0, 55, 100
2, 13432800, Note_on_c, 0, 55, 0
2, 13432800, Note_on_c, 0, 54, 100
2, 13433040, Note_on_c, 0, 54, 0
2, 13433040, Note_on_c, 0, 55, 100
2, 13433280, Note_on_c, 0, 55, 0
2, 13433280, Note_on_c, 0, 52, 100
2, 13434720, Note_on_c, 0, 52, 0
2, 13434720, Note_on_c, 0, 57, 100
2, 13436640, Note_on_c, 0, 57, 0
2, 13436640, Note_on_c, 0, 55, 100
2, 13436880, Note_on_c, 0, 55, 0
2, 13436880, Note_on_c, 0, 57, 100
2, 13437120, Note_on_c, 0, 57, 0
2, 13437120, Note_on_c, 0, 54, 100
2, 13437600, Note_on_c, 0, 54, 0
2, 13437600, Note_on_c, 0, 62, 100
2, 13438080, Note_on_c, 0, 62, 0
2, 13438080, Note_on_c, 0, 64, 100
2, 13440960, Note_on_c, 0, 64, 0
2, 13440960, Note_on_c, 0, 62, 100
2, 13442400, Note_on_c, 0, 62, 0
2, 13442400, Note_on_c, 0, 61, 100
2, 13442640, Note_on_c, 0, 61, 0
2, 13442640, Note_on_c, 0, 62, 100
2, 13442880, Note_on_c, 0, 62, 0
2, 13442880, Note_on_c, 0, 61, 100
2, 13444320, Note_on_c, 0, 61, 0
2, 13444320, Note_on_c, 0, 59, 100
2, 13444560, Note_on_c, 0, 59, 0
2, 13444560, Note_on_c, 0, 61, 100
2, 13444800, Note_on_c, 0, 61, 0
2, 13444800, Note_on_c, 0, 64, 100
2, 13445280, Note_on_c, 0, 64, 0
2, 13445280, Note_on_c, 0, 57, 100
2, 13448640, Note_on_c, 0, 57, 0
2, 13448640, Note_on_c, 0, 55, 100
2, 13450080, Note_on_c, 0, 55, 0
2, 13450080, Note_on_c, 0, 54, 100
2, 13450320, Note_on_c, 0, 54, 0
2, 13450320, Note_on_c, 0, 55, 100
2, 13450560, Note_on_c, 0, 55, 0
2, 13450560, Note_on_c, 0, 59, 100
2, 13451040, Note_on_c, 0, 59, 0
2, 13451040, Note_on_c, 0, 49, 100
2, 13451520, Note_on_c, 0, 49, 0
2, 13451520, Note_on_c, 0, 50, 100
2, 13452000, Note_on_c, 0, 50, 0
2, 13452000, Note_on_c, 0, 52, 100
2, 13452480, Note_on_c, 0, 52, 0
2, 13452480, Note_on_c, 0, 54, 100
2, 13452720, Note_on_c, 0, 54, 0
2, 13452720, Note_on_c, 0, 55, 100
2, 13452960, Note_on_c, 0, 55, 0
2, 13452960, Note_on_c, 0, 54, 100
2, 13453920, Note_on_c, 0, 54, 0
2, 13453920, Note_on_c, 0, 52, 100
2, 13454160, Note_on_c, 0, 52, 0
2, 13454160, Note_on_c, 0, 54, 100
2, 13454400, Note_on_c, 0, 54, 0
2, 13454400, Note_on_c, 0, 66, 100
2, 13462080, Note_on_c, 0, 66, 0
2, 13462080, Note_on_c, 0, 64, 100
2, 13463520, Note_on_c, 0, 64, 0
2, 13463520, Note_on_c, 0, 63, 100
2, 13463760, Note_on_c, 0, 63, 0
2, 13463760, Note_on_c, 0, 64, 100
2, 13464000, Note_on_c, 0, 64, 0
2, 13464000, Note_on_c, 0, 67, 100
2, 13464480, Note_on_c, 0, 67, 0
2, 13464480, Note_on_c, 0, 60, 100
2, 13464960, Note_on_c, 0, 60, 0
2, 13464960, Note_on_c, 0, 64, 100
2, 13465440, Note_on_c, 0, 64, 0
2, 13465440, Note_on_c, 0, 69, 100
2, 13465920, Note_on_c, 0, 69, 0
2, 13465920, Note_on_c, 0, 67, 100
2, 13467360, Note_on_c, 0, 67, 0
2, 13467360, Note_on_c, 0, 66, 100
2, 13467840, Note_on_c, 0, 66, 0
2, 13467840, Note_on_c, 0, 64, 100
2, 13468800, Note_on_c, 0, 64, 0
2, 13468800, Note_on_c, 0, 60, 100
2, 13475520, Note_on_c, 0, 60, 0
2, 13475520, Note_on_c, 0, 59, 100
2, 13476960, Note_on_c, 0, 59, 0
2, 13476960, Note_on_c, 0, 57, 100
2, 13477200, Note_on_c, 0, 57, 0
2, 13477200, Note_on_c, 0, 59, 100
2, 13477440, Note_on_c, 0, 59, 0
2, 13477440, Note_on_c, 0, 62, 100
2, 13477920, Note_on_c, 0, 62, 0
2, 13477920, Note_on_c, 0, 55, 100
2, 13478400, Note_on_c, 0, 55, 0
2, 13478400, Note_on_c, 0, 59, 100
2, 13479840, Note_on_c, 0, 59, 0
2, 13479840, Note_on_c, 0, 52, 100
2, 13480320, Note_on_c, 0, 52, 0
2, 13480320, Note_on_c, 0, 57, 100
2, 13482720, Note_on_c, 0, 57, 0
2, 13482720, Note_on_c, 0, 55, 100
2, 13482960, Note_on_c, 0, 55, 0
2, 13482960, Note_on_c, 0, 57, 100
2, 13483200, Note_on_c, 0, 57, 0
2, 13483200, Note_on_c, 0, 54, 100
2, 13483680, Note_on_c, 0, 54, 0
2, 13483680, Note_on_c, 0, 62, 100
2, 13484160, Note_on_c, 0, 62, 0
2, 13484160, Note_on_c, 0, 66, 100
2, 13492800, Note_on_c, 0, 66, 0
2, 13492800, Note_on_c, 0, 64, 100
2, 13494240, Note_on_c, 0, 64, 0
2, 13494240, Note_on_c, 0, 63, 100
2, 13494480, Note_on_c, 0, 63, 0
2, 13494480, Note_on_c, 0, 64, 100
2, 13494720, Note_on_c, 0, 64, 0
2, 13494720, Note_on_c, 0, 67, 100
2, 13495200, Note_on_c, 0, 67, 0
2, 13495200, Note_on_c, 0, 60, 100
2, 13495680, Note_on_c, 0, 60, 0
2, 13495680, Note_on_c, 0, 64, 100
2, 13496160, Note_on_c, 0, 64, 0
2, 13496160, Note_on_c, 0, 69, 100
2, 13496640, Note_on_c, 0, 69, 0
2, 13496640, Note_on_c, 0, 67, 100
2, 13498080, Note_on_c, 0, 67, 0
2, 13498080, Note_on_c, 0, 66, 100
2, 13498560, Note_on_c, 0, 66, 0
2, 13498560, Note_on_c, 0, 64, 100
2, 13499520, Note_on_c, 0, 64, 0
2, 13499520, Note_on_c, 0, 60, 100
2, 13506240, Note_on_c, 0, 60, 0
2, 13506240, Note_on_c, 0, 59, 100
2, 13507680, Note_on_c, 0, 59, 0
2, 13507680, Note_on_c, 0, 57, 100
2, 13507920, Note_on_c, 0, 57, 0
2, 13507920, Note_on_c, 0, 59, 100
2, 13508160, Note_on_c, 0, 59, 0
2, 13508160, Note_on_c, 0, 62, 100
2, 13508640, Note_on_c, 0, 62, 0
2, 13508640, Note_on_c, 0, 55, 100
2, 13509120, Note_on_c, 0, 55, 0
2, 13509120, Note_on_c, 0, 59, 100
2, 13510560, Note_on_c, 0, 59, 0
2, 13510560, Note_on_c, 0, 52, 100
2, 13511040, Note_on_c, 0, 52, 0
2, 13511040, Note_on_c, 0, 57, 100
2, 13513440, Note_on_c, 0, 57, 0
2, 13513440, Note_on_c, 0, 55, 100
2, 13513680, Note_on_c, 0, 55, 0
2, 13513680, Note_on_c, 0, 57, 100
2, 13513920, Note_on_c, 0, 57, 0
2, 13513920, Note_on_c, 0, 54, 100
2, 13514400, Note_on_c, 0, 54, 0
2, 13514400, Note_on_c, 0, 62, 100
2, 13514880, Note_on_c, 0, 62, 0
2, 13514880, Note_on_c, 0, 67, 100
2, 13516800, Note_on_c, 0, 67, 0
2, 13516800, Note_on_c, 0, 83, 100
2, 13517040, Note_on_c, 0, 83, 0
2, 13517040, Note_on_c, 0, 81, 100
2, 13517160, Note_on_c, 0, 81, 0
2, 13517160, Note_on_c, 0, 79, 100
2, 13517280, Note_on_c, 0, 79, 0
2, 13517280, Note_on_c, 0, 78, 100
2, 13517400, Note_on_c, 0, 78, 0
2, 13517400, Note_on_c, 0, 76, 100
2, 13517520, Note_on_c, 0, 76, 0
2, 13517520, Note_on_c, 0, 74, 100
2, 13517640, Note_on_c, 0, 74, 0
2, 13517640, Note_on_c, 0, 73, 100
2, 13517760, Note_on_c, 0, 73, 0
2, 13517760, Note_on_c, 0, 71, 100
2, 13517880, Note_on_c, 0, 71, 0
2, 13517880, Note_on_c, 0, 69, 100
2, 13518000, Note_on_c, 0, 69, 0
2, 13518000, Note_on_c, 0, 67, 100
2, 13518120, Note_on_c, 0, 67, 0
2, 13518120, Note_on_c, 0, 66, 100
2, 13518240, Note_on_c, 0, 66, 0
2, 13518240, Note_on_c, 0, 81, 100
2, 13518480, Note_on_c, 0, 81, 0
2, 13518480, Note_on_c, 0, 79, 100
2, 13518600, Note_on_c, 0, 79, 0
2, 13518600, Note_on_c, 0, 78, 100
2, 13518720, Note_on_c, 0, 78, 0
2, 13518720, Note_on_c, 0, 76, 100
2, 13518840, Note_on_c, 0, 76, 0
2, 13518840, Note_on_c, 0, 74, 100
2, 13518960, Note_on_c, 0, 74, 0
2, 13518960, Note_on_c, 0, 73, 100
2, 13519080, Note_on_c, 0, 73, 0
2, 13519080, Note_on_c, 0, 71, 100
2, 13519200, Note_on_c, 0, 71, 0
2, 13519200, Note_on_c, 0, 69, 100
2, 13519320, Note_on_c, 0, 69, 0
2, 13519320, Note_on_c, 0, 67, 100
2, 13519440, Note_on_c, 0, 67, 0
2, 13519440, Note_on_c, 0, 66, 100
2, 13519560, Note_on_c, 0, 66, 0
2, 13519560, Note_on_c, 0, 64, 100
2, 13519680, Note_on_c, 0, 64, 0
2, 13519680, Note_on_c, 0, 79, 100
2, 13519920, Note_on_c, 0, 79, 0
2, 13519920, Note_on_c, 0, 78, 100
2, 13520040, Note_on_c, 0, 78, 0
2, 13520040, Note_on_c, 0, 76, 100
2, 13520160, Note_on_c, 0, 76, 0
2, 13520160, Note_on_c, 0, 74, 100
2, 13520280, Note_on_c, 0, 74, 0
2, 13520280, Note_on_c, 0, 73, 100
2, 13520400, Note_on_c, 0, 73, 0
2, 13520400, Note_on_c, 0, 71, 100
2, 13520520, Note_on_c, 0, 71, 0
2, 13520520, Note_on_c, 0, 69, 100
2, 13520640, Note_on_c, 0, 69, 0
2, 13520640, Note_on_c, 0, 67, 100
2, 13520760, Note_on_c, 0, 67, 0
2, 13520760, Note_on_c, 0, 66, 100
2, 13520880, Note_on_c, 0, 66, 0
2, 13520880, Note_on_c, 0, 64, 100
2, 13521000, Note_on_c, 0, 64, 0
2, 13521000, Note_on_c, 0, 62, 100
2, 13521120, Note_on_c, 0, 62, 0
2, 13521120, Note_on_c, 0, 60, 100
2, 13521480, Note_on_c, 0, 60, 0
2, 13521480, Note_on_c, 0, 59, 100
2, 13521540, Note_on_c, 0, 59, 0
2, 13521540, Note_on_c, 0, 57, 100
2, 13521600, Note_on_c, 0, 57, 0
2, 13521600, Note_on_c, 0, 55, 100
2, 13521660, Note_on_c, 0, 55, 0
2, 13521660, Note_on_c, 0, 54, 100
2, 13521720, Note_on_c, 0, 54, 0
2, 13521720, Note_on_c, 0, 52, 100
2, 13521780, Note_on_c, 0, 52, 0
2, 13521780, Note_on_c, 0, 50, 100
2, 13521840, Note_on_c, 0, 50, 0
2, 13521840, Note_on_c, 0, 48, 100
2, 13522440, Note_on_c, 0, 48, 0
2, 13522440, Note_on_c, 0, 47, 100
2, 13522560, Note_on_c, 0, 47, 0
2, 13522560, Note_on_c, 0, 59, 100
2, 13523040, Note_on_c, 0, 59, 0
2, 13523040, Note_on_c, 0, 60, 100
2, 13523160, Note_on_c, 0, 60, 0
2, 13523160, Note_on_c, 0, 62, 100
2, 13523280, Note_on_c, 0, 62, 0
2, 13523280, Note_on_c, 0, 64, 100
2, 13523400, Note_on_c, 0, 64, 0
2, 13523400, Note_on_c, 0, 66, 100
2, 13523520, Note_on_c, 0, 66, 0
2, 13523520, Note_on_c, 0, 67, 100
2, 13523640, Note_on_c, 0, 67, 0
2, 13523640, Note_on_c, 0, 69, 100
2, 13523760, Note_on_c, 0, 69, 0
2, 13523760, Note_on_c, 0, 71, 100
2, 13523880, Note_on_c, 0, 71, 0
2, 13523880, Note_on_c, 0, 72, 100
2, 13524000, Note_on_c, 0, 72, 0
2, 13524000, Note_on_c, 0, 74, 100
2, 13524120, Note_on_c, 0, 74, 0
2, 13524120, Note_on_c, 0, 76, 100
2, 13524240, Note_on_c, 0, 76, 0
2, 13524240, Note_on_c, 0, 60, 100
2, 13524480, Note_on_c, 0, 60, 0
2, 13524480, Note_on_c, 0, 62, 100
2, 13524600, Note_on_c, 0, 62, 0
2, 13524600, Note_on_c, 0, 64, 100
2, 13524720, Note_on_c, 0, 64, 0
2, 13524720, Note_on_c, 0, 66, 100
2, 13524840, Note_on_c, 0, 66, 0
2, 13524840, Note_on_c, 0, 67, 100
2, 13524960, Note_on_c, 0, 67, 0
2, 13524960, Note_on_c, 0, 69, 100
2, 13525080, Note_on_c, 0, 69, 0
2, 13525080, Note_on_c, 0, 71, 100
2, 13525200, Note_on_c, 0, 71, 0
2, 13525200, Note_on_c, 0, 72, 100
2, 13525320, Note_on_c, 0, 72, 0
2, 13525320, Note_on_c, 0, 74, 100
2, 13525440, Note_on_c, 0, 74, 0
2, 13525440, Note_on_c, 0, 76, 100
2, 13525560, Note_on_c, 0, 76, 0
2, 13525560, Note_on_c, 0, 78, 100
2, 13525680, Note_on_c, 0, 78, 0
2, 13525680, Note_on_c, 0, 62, 100
2, 13525920, Note_on_c, 0, 62, 0
2, 13525920, Note_on_c, 0, 64, 100
2, 13526040, Note_on_c, 0, 64, 0
2, 13526040, Note_on_c, 0, 66, 100
2, 13526160, Note_on_c, 0, 66, 0
2, 13526160, Note_on_c, 0, 67, 100
2, 13526280, Note_on_c, 0, 67, 0
2, 13526280, Note_on_c, 0, 69, 100
2, 13526400, Note_on_c, 0, 69, 0
2, 13526400, Note_on_c, 0, 71, 100
2, 13526520, Note_on_c, 0, 71, 0
2, 13526520, Note_on_c, 0, 72, 100
2, 13526640, Note_on_c, 0, 72, 0
2, 13526640, Note_on_c, 0, 69, 100
2, 13526760, Note_on_c, 0, 69, 0
2, 13526760, Note_on_c, 0, 71, 100
2, 13526880, Note_on_c, 0, 71, 0
2, 13526880, Note_on_c, 0, 67, 100
2, 13526940, Note_on_c, 0, 67, 0
2, 13526940, Note_on_c, 0, 69, 100
2, 13527000, Note_on_c, 0, 69, 0
2, 13527000, Note_on_c, 0, 71, 100
2, 13527060, Note_on_c, 0, 71, 0
2, 13527060, Note_on_c, 0, 72, 100
2, 13527120, Note_on_c, 0, 72, 0
2, 13527120, Note_on_c, 0, 74, 100
2, 13527180, Note_on_c, 0, 74, 0
2, 13527180, Note_on_c, 0, 76, 100
2, 13527240, Note_on_c, 0, 76, 0
2, 13527240, Note_on_c, 0, 78, 100
2, 13527300, Note_on_c, 0, 78, 0
2, 13527300, Note_on_c, 0, 79, 100
2, 13527360, Note_on_c, 0, 79, 0
2, 13527360, Note_on_c, 0, 66, 100
2, 13527960, Note_on_c, 0, 66, 0
2, 13527960, Note_on_c, 0, 64, 100
2, 13528020, Note_on_c, 0, 64, 0
2, 13528020, Note_on_c, 0, 62, 100
2, 13528080, Note_on_c, 0, 62, 0
2, 13528080, Note_on_c, 0, 60, 100
2, 13528140, Note_on_c, 0, 60, 0
2, 13528140, Note_on_c, 0, 59, 100
2, 13528200, Note_on_c, 0, 59, 0
2, 13528200, Note_on_c, 0, 57, 100
2, 13528260, Note_on_c, 0, 57, 0
2, 13528260, Note_on_c, 0, 55, 100
2, 13528320, Note_on_c, 0, 55, 0
2, 13528320, Note_on_c, 0, 57, 100
2, 13528680, Note_on_c, 0, 57, 0
2, 13528680, Note_on_c, 0, 59, 100
2, 13528800, Note_on_c, 0, 59, 0
2, 13528800, Note_on_c, 0, 57, 100
2, 13528860, Note_on_c, 0, 57, 0
2, 13528860, Note_on_c, 0, 59, 100
2, 13528920, Note_on_c, 0, 59, 0
2, 13528920, Note_on_c, 0, 60, 100
2, 13529160, Note_on_c, 0, 60, 0
2, 13529160, Note_on_c, 0, 62, 100
2, 13529280, Note_on_c, 0, 62, 0
2, 13529280, Note_on_c, 0, 60, 100
2, 13529340, Note_on_c, 0, 60, 0
2, 13529340, Note_on_c, 0, 62, 100
2, 13529400, Note_on_c, 0, 62, 0
2, 13529400, Note_on_c, 0, 64, 100
2, 13529640, Note_on_c, 0, 64, 0
2, 13529640, Note_on_c, 0, 66, 100
2, 13529760, Note_on_c, 0, 66, 0
2, 13529760, Note_on_c, 0, 64, 100
2, 13529820, Note_on_c, 0, 64, 0
2, 13529820, Note_on_c, 0, 66, 100
2, 13529880, Note_on_c, 0, 66, 0
2, 13529880, Note_on_c, 0, 67, 100
2, 13530120, Note_on_c, 0, 67, 0
2, 13530120, Note_on_c, 0, 69, 100
2, 13530240, Note_on_c, 0, 69, 0
2, 13530240, Note_on_c, 0, 67, 100
2, 13530300, Note_on_c, 0, 67, 0
2, 13530300, Note_on_c, 0, 69, 100
2, 13530360, Note_on_c, 0, 69, 0
2, 13530360, Note_on_c, 0, 71, 100
2, 13530600, Note_on_c, 0, 71, 0
2, 13530600, Note_on_c, 0, 73, 100
2, 13530720, Note_on_c, 0, 73, 0
2, 13530720, Note_on_c, 0, 71, 100
2, 13530780, Note_on_c, 0, 71, 0
2, 13530780, Note_on_c, 0, 73, 100
2, 13530840, Note_on_c, 0, 73, 0
2, 13530840, Note_on_c, 0, 74, 100
2, 13531080, Note_on_c, 0, 74, 0
2, 13531080, Note_on_c, 0, 76, 100
2, 13531200, Note_on_c, 0, 76, 0
2, 13531200, Note_on_c, 0, 74, 100
2, 13531260, Note_on_c, 0, 74, 0
2, 13531260, Note_on_c, 0, 76, 100
2, 13531320, Note_on_c, 0, 76, 0
2, 13531320, Note_on_c, 0, 78, 100
2, 13531560, Note_on_c, 0, 78, 0
2, 13531560, Note_on_c, 0, 79, 100
2, 13531680, Note_on_c, 0, 79, 0
2, 13531680, Note_on_c, 0, 78, 100
2, 13531740, Note_on_c, 0, 78, 0
2, 13531740, Note_on_c, 0, 79, 100
2, 13531800, Note_on_c, 0, 79, 0
2, 13531800, Note_on_c, 0, 81, 100
2, 13532040, Note_on_c, 0, 81, 0
2, 13532040, Note_on_c, 0, 83, 100
2, 13532160, Note_on_c, 0, 83, 0
2, 13532160, Note_on_c, 0, 81, 100
2, 13532220, Note_on_c, 0, 81, 0
2, 13532220, Note_on_c, 0, 83, 100
2, 13532280, Note_on_c, 0, 83, 0
2, 13532280, Note_on_c, 0, 74, 100
2, 13532520, Note_on_c, 0, 74, 0
2, 13532520, Note_on_c, 0, 73, 100
2, 13532640, Note_on_c, 0, 73, 0
2, 13532640, Note_on_c, 0, 76, 100
2, 13533000, Note_on_c, 0, 76, 0
2, 13533000, Note_on_c, 0, 67, 100
2, 13533120, Note_on_c, 0, 67, 0
2, 13533120, Note_on_c, 0, 71, 100
2, 13533600, Note_on_c, 0, 71, 0
2, 13533600, Note_on_c, 0, 69, 100
2, 13533640, Note_on_c, 0, 69, 0
2, 13533640, Note_on_c, 0, 71, 100
2, 13533680, Note_on_c, 0, 71, 0
2, 13533680, Note_on_c, 0, 69, 100
2, 13533720, Note_on_c, 0, 69, 0
2, 13533720, Note_on_c, 0, 67, 100
2, 13534080, Note_on_c, 0, 67, 0
2, 13534080, Note_on_c, 0, 66, 100
2, 13534120, Note_on_c, 0, 66, 0
2, 13534120, Note_on_c, 0, 67, 100
2, 13534160, Note_on_c, 0, 67, 0
2, 13534160, Note_on_c, 0, 66, 100
2, 13534200, Note_on_c, 0, 66, 0
2, 13534200, Note_on_c, 0, 57, 100
2, 13534440, Note_on_c, 0, 57, 0
2, 13534440, Note_on_c, 0, 69, 100
2, 13534560, Note_on_c, 0, 69, 0
2, 13534560, Note_on_c, 0, 67, 100
2, 13534680, Note_on_c, 0, 67, 0
2, 13534680, Note_on_c, 0, 66, 100
2, 13534800, Note_on_c, 0, 66, 0
2, 13534800, Note_on_c, 0, 64, 100
2, 13534920, Note_on_c, 0, 64, 0
2, 13534920, Note_on_c, 0, 62, 100
2, 13535040, Note_on_c, 0, 62, 0
2, 13535040, Note_on_c, 0, 60, 100
2, 13535160, Note_on_c, 0, 60, 0
2, 13535160, Note_on_c, 0, 59, 100
2, 13535280, Note_on_c, 0, 59, 0
2, 13535280, Note_on_c, 0, 57, 100
2, 13535400, Note_on_c, 0, 57, 0
2, 13535400, Note_on_c, 0, 55, 100
2, 13535520, Note_on_c, 0, 55, 0
2, 13535520, Note_on_c, 0, 59, 100
2, 13535640, Note_on_c, 0, 59, 0
2, 13535640, Note_on_c, 0, 62, 100
2, 13535760, Note_on_c, 0, 62, 0
2, 13535760, Note_on_c, 0, 60, 100
2, 13535880, Note_on_c, 0, 60, 0
2, 13535880, Note_on_c, 0, 59, 100
2, 13536000, Note_on_c, 0, 59, 0
2, 13536000, Note_on_c, 0, 57, 100
2, 13536120, Note_on_c, 0, 57, 0
2, 13536120, Note_on_c, 0, 55, 100
2, 13536240, Note_on_c, 0, 55, 0
2, 13536240, Note_on_c, 0, 54, 100
2, 13536360, Note_on_c, 0, 54, 0
2, 13536360, Note_on_c, 0, 52, 100
2, 13536480, Note_on_c, 0, 52, 0
2, 13536480, Note_on_c, 0, 50, 100
2, 13536600, Note_on_c, 0, 50, 0
2, 13536600, Note_on_c, 0, 49, 100
2, 13536720, Note_on_c, 0, 49, 0
2, 13536720, Note_on_c, 0, 47, 100
2, 13536840, Note_on_c, 0, 47, 0
2, 13536840, Note_on_c, 0, 45, 100
2, 13536960, Note_on_c, 0, 45, 0
2, 13536960, Note_on_c, 0, 52, 100
2, 13537080, Note_on_c, 0, 52, 0
2, 13537080, Note_on_c, 0, 55, 100
2, 13537200, Note_on_c, 0, 55, 0
2, 13537200, Note_on_c, 0, 54, 100
2, 13537320, Note_on_c, 0, 54, 0
2, 13537320, Note_on_c, 0, 52, 100
2, 13537440, Note_on_c, 0, 52, 0
2, 13537440, Note_on_c, 0, 50, 100
2, 13537560, Note_on_c, 0, 50, 0
2, 13537560, Note_on_c, 0, 49, 100
2, 13537680, Note_on_c, 0, 49, 0
2, 13537680, Note_on_c, 0, 47, 100
2, 13537800, Note_on_c, 0, 47, 0
2, 13537800, Note_on_c, 0, 45, 100
2, 13537920, Note_on_c, 0, 45, 0
2, 13537920, Note_on_c, 0, 43, 100
2, 13538040, Note_on_c, 0, 43, 0
2, 13538040, Note_on_c, 0, 42, 100
2, 13538160, Note_on_c, 0, 42, 0
2, 13538160, Note_on_c, 0, 40, 100
2, 13538280, Note_on_c, 0, 40, 0
2, 13538280, Note_on_c, 0, 38, 100
2, 13538400, Note_on_c, 0, 38, 0
2, 13538400, Note_on_c, 0, 40, 100
2, 13539000, Note_on_c, 0, 40, 0
2, 13539000, Note_on_c, 0, 42, 100
2, 13539060, Note_on_c, 0, 42, 0
2, 13539060, Note_on_c, 0, 43, 100
2, 13539120, Note_on_c, 0, 43, 0
2, 13539120, Note_on_c, 0, 45, 100
2, 13539180, Note_on_c, 0, 45, 0
2, 13539180, Note_on_c, 0, 47, 100
2, 13539240, Note_on_c, 0, 47, 0
2, 13539240, Note_on_c, 0, 49, 100
2, 13539300, Note_on_c, 0, 49, 0
2, 13539300, Note_on_c, 0, 50, 100
2, 13539360, Note_on_c, 0, 50, 0
2, 13539360, Note_on_c, 0, 67, 100
2, 13539840, Note_on_c, 0, 67, 0
2, 13539840, Note_on_c, 0, 83, 100
2, 13540080, Note_on_c, 0, 83, 0
2, 13540080, Note_on_c, 0, 81, 100
2, 13540200, Note_on_c, 0, 81, 0
2, 13540200, Note_on_c, 0, 79, 100
2, 13540320, Note_on_c, 0, 79, 0
2, 13540320, Note_on_c, 0, 78, 100
2, 13540440, Note_on_c, 0, 78, 0
2, 13540440, Note_on_c, 0, 76, 100
2, 13540560, Note_on_c, 0, 76, 0
2, 13540560, Note_on_c, 0, 74, 100
2, 13540680, Note_on_c, 0, 74, 0
2, 13540680, Note_on_c, 0, 73, 100
2, 13540800, Note_on_c, 0, 73, 0
2, 13540800, Note_on_c, 0, 71, 100
2, 13540920, Note_on_c, 0, 71, 0
2, 13540920, Note_on_c, 0, 69, 100
2, 13541040, Note_on_c, 0, 69, 0
2, 13541040, Note_on_c, 0, 67, 100
2, 13541160, Note_on_c, 0, 67, 0
2, 13541160, Note_on_c, 0, 66, 100
2, 13541280, Note_on_c, 0, 66, 0
2, 13541280, Note_on_c, 0, 81, 100
2, 13541520, Note_on_c, 0, 81, 0
2, 13541520, Note_on_c, 0, 79, 100
2, 13541640, Note_on_c, 0, 79, 0
2, 13541640, Note_on_c, 0, 78, 100
2, 13541760, Note_on_c, 0, 78, 0
2, 13541760, Note_on_c, 0, 76, 100
2, 13541880, Note_on_c, 0, 76, 0
2, 13541880, Note_on_c, 0, 74, 100
2, 13542000, Note_on_c, 0, 74, 0
2, 13542000, Note_on_c, 0, 73, 100
2, 13542120, Note_on_c, 0, 73, 0
2, 13542120, Note_on_c, 0, 71, 100
2, 13542240, Note_on_c, 0, 71, 0
2, 13542240, Note_on_c, 0, 69, 100
2, 13542360, Note_on_c, 0, 69, 0
2, 13542360, Note_on_c, 0, 67, 100
2, 13542480, Note_on_c, 0, 67, 0
2, 13542480, Note_on_c, 0, 66, 100
2, 13542600, Note_on_c, 0, 66, 0
2, 13542600, Note_on_c, 0, 64, 100
2, 13542720, Note_on_c, 0, 64, 0
2, 13542720, Note_on_c, 0, 79, 100
2, 13542960, Note_on_c, 0, 79, 0
2, 13542960, Note_on_c, 0, 78, 100
2, 13543080, Note_on_c, 0, 78, 0
2, 13543080, Note_on_c, 0, 76, 100
2, 13543200, Note_on_c, 0, 76, 0
2, 13543200, Note_on_c, 0, 74, 100
2, 13543320, Note_on_c, 0, 74, 0
2, 13543320, Note_on_c, 0, 73, 100
2, 13543440, Note_on_c, 0, 73, 0
2, 13543440, Note_on_c, 0, 71, 100
2, 13543560, Note_on_c, 0, 71, 0
2, 13543560, Note_on_c, 0, 69, 100
2, 13543680, Note_on_c, 0, 69, 0
2, 13543680, Note_on_c, 0, 67, 100
2, 13543800, Note_on_c, 0, 67, 0
2, 13543800, Note_on_c, 0, 66, 100
2, 13543920, Note_on_c, 0, 66, 0
2, 13543920, Note_on_c, 0, 64, 100
2, 13544040, Note_on_c, 0, 64, 0
2, 13544040, Note_on_c, 0, 62, 100
2, 13544160, Note_on_c, 0, 62, 0
2, 13544160, Note_on_c, 0, 60, 100
2, 13544520, Note_on_c, 0, 60, 0
2, 13544520, Note_on_c, 0, 59, 100
2, 13544580, Note_on_c, 0, 59, 0
2, 13544580, Note_on_c, 0, 57, 100
2, 13544640, Note_on_c, 0, 57, 0
2, 13544640, Note_on_c, 0, 55, 100
2, 13544700, Note_on_c, 0, 55, 0
2, 13544700, Note_on_c, 0, 54, 100
2, 13544760, Note_on_c, 0, 54, 0
2, 13544760, Note_on_c, 0, 52, 100
2, 13544820, Note_on_c, 0, 52, 0
2, 13544820, Note_on_c, 0, 50, 100
2, 13544880, Note_on_c, 0, 50, 0
2, 13544880, Note_on_c, 0, 48, 100
2, 13545480, Note_on_c, 0, 48, 0
2, 13545480, Note_on_c, 0, 47, 100
2, 13545600, Note_on_c, 0, 47, 0
2, 13545600, Note_on_c, 0, 59, 100
2, 13546080, Note_on_c, 0, 59, 0
2, 13546080, Note_on_c, 0, 60, 100
2, 13546200, Note_on_c, 0, 60, 0
2, 13546200, Note_on_c, 0, 62, 100
2, 13546320, Note_on_c, 0, 62, 0
2, 13546320, Note_on_c, 0, 64, 100
2, 13546440, Note_on_c, 0, 64, 0
2, 13546440, Note_on_c, 0, 66, 100
2, 13546560, Note_on_c, 0, 66, 0
2, 13546560, Note_on_c, 0, 67, 100
2, 13546680, Note_on_c, 0, 67, 0
2, 13546680, Note_on_c, 0, 69, 100
2, 13546800, Note_on_c, 0, 69, 0
2, 13546800, Note_on_c, 0, 71, 100
2, 13546920, Note_on_c, 0, 71, 0
2, 13546920, Note_on_c, 0, 72, 100
2, 13547040, Note_on_c, 0, 72, 0
2, 13547040, Note_on_c, 0, 74, 100
2, 13547160, Note_on_c, 0, 74, 0
2, 13547160, Note_on_c, 0, 76, 100
2, 13547280, Note_on_c, 0, 76, 0
2, 13547280, Note_on_c, 0, 60, 100
2, 13547520, Note_on_c, 0, 60, 0
2, 13547520, Note_on_c, 0, 62, 100
2, 13547640, Note_on_c, 0, 62, 0
2, 13547640, Note_on_c, 0, 64, 100
2, 13547760, Note_on_c, 0, 64, 0
2, 13547760, Note_on_c, 0, 66, 100
2, 13547880, Note_on_c, 0, 66, 0
2, 13547880, Note_on_c, 0, 67, 100
2, 13548000, Note_on_c, 0, 67, 0
2, 13548000, Note_on_c, 0, 69, 100
2, 13548120, Note_on_c, 0, 69, 0
2, 13548120, Note_on_c, 0, 71, 100
2, 13548240, Note_on_c, 0, 71, 0
2, 13548240, Note_on_c, 0, 72, 100
2, 13548360, Note_on_c, 0, 72, 0
2, 13548360, Note_on_c, 0, 74, 100
2, 13548480, Note_on_c, 0, 74, 0
2, 13548480, Note_on_c, 0, 76, 100
2, 13548600, Note_on_c, 0, 76, 0
2, 13548600, Note_on_c, 0, 78, 100
2, 13548720, Note_on_c, 0, 78, 0
2, 13548720, Note_on_c, 0, 62, 100
2, 13548960, Note_on_c, 0, 62, 0
2, 13548960, Note_on_c, 0, 64, 100
2, 13549080, Note_on_c, 0, 64, 0
2, 13549080, Note_on_c, 0, 66, 100
2, 13549200, Note_on_c, 0, 66, 0
2, 13549200, Note_on_c, 0, 67, 100
2, 13549320, Note_on_c, 0, 67, 0
2, 13549320, Note_on_c, 0, 69, 100
2, 13549440, Note_on_c, 0, 69, 0
2, 13549440, Note_on_c, 0, 71, 100
2, 13549560, Note_on_c, 0, 71, 0
2, 13549560, Note_on_c, 0, 72, 100
2, 13549680, Note_on_c, 0, 72, 0
2, 13549680, Note_on_c, 0, 69, 100
2, 13549800, Note_on_c, 0, 69, 0
2, 13549800, Note_on_c, 0, 71, 100
2, 13549920, Note_on_c, 0, 71, 0
2, 13549920, Note_on_c, 0, 67, 100
2, 13549980, Note_on_c, 0, 67, 0
2, 13549980, Note_on_c, 0, 69, 100
2, 13550040, Note_on_c, 0, 69, 0
2, 13550040, Note_on_c, 0, 71, 100
2, 13550100, Note_on_c, 0, 71, 0
2, 13550100, Note_on_c, 0, 72, 100
2, 13550160, Note_on_c, 0, 72, 0
2, 13550160, Note_on_c, 0, 74, 100
2, 13550220, Note_on_c, 0, 74, 0
2, 13550220, Note_on_c, 0, 76, 100
2, 13550280, Note_on_c, 0, 76, 0
2, 13550280, Note_on_c, 0, 78, 100
2, 13550340, Note_on_c, 0, 78, 0
2, 13550340, Note_on_c, 0, 79, 100
2, 13550400, Note_on_c, 0, 79, 0
2, 13550400, Note_on_c, 0, 66, 100
2, 13551000, Note_on_c, 0, 66, 0
2, 13551000, Note_on_c, 0, 64, 100
2, 13551060, Note_on_c, 0, 64, 0
2, 13551060, Note_on_c, 0, 62, 100
2, 13551120, Note_on_c, 0, 62, 0
2, 13551120, Note_on_c, 0, 60, 100
2, 13551180, Note_on_c, 0, 60, 0
2, 13551180, Note_on_c, 0, 59, 100
2, 13551240, Note_on_c, 0, 59, 0
2, 13551240, Note_on_c, 0, 57, 100
2, 13551300, Note_on_c, 0, 57, 0
2, 13551300, Note_on_c, 0, 55, 100
2, 13551360, Note_on_c, 0, 55, 0
2, 13551360, Note_on_c, 0, 57, 100
2, 13551720, Note_on_c, 0, 57, 0
2, 13551720, Note_on_c, 0, 59, 100
2, 13551840, Note_on_c, 0, 59, 0
2, 13551840, Note_on_c, 0, 57, 100
2, 13551900, Note_on_c, 0, 57, 0
2, 13551900, Note_on_c, 0, 59, 100
2, 13551960, Note_on_c, 0, 59, 0
2, 13551960, Note_on_c, 0, 60, 100
2, 13552200, Note_on_c, 0, 60, 0
2, 13552200, Note_on_c, 0, 62, 100
2, 13552320, Note_on_c, 0, 62, 0
2, 13552320, Note_on_c, 0, 60, 100
2, 13552380, Note_on_c, 0, 60, 0
2, 13552380, Note_on_c, 0, 62, 100
2, 13552440, Note_on_c, 0, 62, 0
2, 13552440, Note_on_c, 0, 64, 100
2, 13552680, Note_on_c, 0, 64, 0
2, 13552680, Note_on_c, 0, 66, 100
2, 13552800, Note_on_c, 0, 66, 0
2, 13552800, Note_on_c, 0, 64, 100
2, 13552860, Note_on_c, 0, 64, 0
2, 13552860, Note_on_c, 0, 66, 100
2, 13552920, Note_on_c, 0, 66, 0
2, 13552920, Note_on_c, 0, 67, 100
2, 13553160, Note_on_c, 0, 67, 0
2, 13553160, Note_on_c, 0, 69, 100
2, 13553280, Note_on_c, 0, 69, 0
2, 13553280, Note_on_c, 0, 67, 100
2, 13553340, Note_on_c, 0, 67, 0
2, 13553340, Note_on_c, 0, 69, 100
2, 13553400, Note_on_c, 0, 69, 0
2, 13553400, Note_on_c, 0, 71, 100
2, 13553640, Note_on_c, 0, 71, 0
2, 13553640, Note_on_c, 0, 73, 100
2, 13553760, Note_on_c, 0, 73, 0
2, 13553760, Note_on_c, 0, 71, 100
2, 13553820, Note_on_c, 0, 71, 0
2, 13553820, Note_on_c, 0, 73, 100
2, 13553880, Note_on_c, 0, 73, 0
2, 13553880, Note_on_c, 0, 74, 100
2, 13554120, Note_on_c, 0, 74, 0
2, 13554120, Note_on_c, 0, 76, 100
2, 13554240, Note_on_c, 0, 76, 0
2, 13554240, Note_on_c, 0, 74, 100
2, 13554300, Note_on_c, 0, 74, 0
2, 13554300, Note_on_c, 0, 76, 100
2, 13554360, Note_on_c, 0, 76, 0
2, 13554360, Note_on_c, 0, 78, 100
2, 13554600, Note_on_c, 0, 78, 0
2, 13554600, Note_on_c, 0, 79, 100
2, 13554720, Note_on_c, 0, 79, 0
2, 13554720, Note_on_c, 0, 78, 100
2, 13554780, Note_on_c, 0, 78, 0
2, 13554780, Note_on_c, 0, 79, 100
2, 13554840, Note_on_c, 0, 79, 0
2, 13554840, Note_on_c, 0, 81, 100
2, 13555080, Note_on_c, 0, 81, 0
2, 13555080, Note_on_c, 0, 83, 100
2, 13555200, Note_on_c, 0, 83, 0
2, 13555200, Note_on_c, 0, 81, 100
2, 13555260, Note_on_c, 0, 81, 0
2, 13555260, Note_on_c, 0, 83, 100
2, 13555320, Note_on_c, 0, 83, 0
2, 13555320, Note_on_c, 0, 74, 100
2, 13555560, Note_on_c, 0, 74, 0
2, 13555560, Note_on_c, 0, 73, 100
2, 13555680, Note_on_c, 0, 73, 0
2, 13555680, Note_on_c, 0, 76, 100
2, 13556040, Note_on_c, 0, 76, 0
2, 13556040, Note_on_c, 0, 67, 100
2, 13556160, Note_on_c, 0, 67, 0
2, 13556160, Note_on_c, 0, 71, 100
2, 13556640, Note_on_c, 0, 71, 0
2, 13556640, Note_on_c, 0, 69, 100
2, 13556680, Note_on_c, 0, 69, 0
2, 13556680, Note_on_c, 0, 71, 100
2, 13556720, Note_on_c, 0, 71, 0
2, 13556720, Note_on_c, 0, 69, 100
2, 13556760, Note_on_c, 0, 69, 0
2, 13556760, Note_on_c, 0, 67, 100
2, 13557120, Note_on_c, 0, 67, 0
2, 13557120, Note_on_c, 0, 66, 100
2, 13557160, Note_on_c, 0, 66, 0
2, 13557160, Note_on_c, 0, 67, 100
2, 13557200, Note_on_c, 0, 67, 0
2, 13557200, Note_on_c, 0, 66, 100
2, 13557240, Note_on_c, 0, 66, 0
2, 13557240, Note_on_c, 0, 57, 100
2, 13557480, Note_on_c, 0, 57, 0
2, 13557480, Note_on_c, 0, 69, 100
2, 13557600, Note_on_c, 0, 69, 0
2, 13557600, Note_on_c, 0, 67, 100
2, 13557720, Note_on_c, 0, 67, 0
2, 13557720, Note_on_c, 0, 66, 100
2, 13557840, Note_on_c, 0, 66, 0
2, 13557840, Note_on_c, 0, 64, 100
2, 13557960, Note_on_c, 0, 64, 0
2, 13557960, Note_on_c, 0, 62, 100
2, 13558080, Note_on_c, 0, 62, 0
2, 13558080, Note_on_c, 0, 60, 100
2, 13558200, Note_on_c, 0, 60, 0
2, 13558200, Note_on_c, 0, 59, 100
2, 13558320, Note_on_c, 0, 59, 0
2, 13558320, Note_on_c, 0, 57, 100
2, 13558440, Note_on_c, 0, 57, 0
2, 13558440, Note_on_c, 0, 55, 100
2, 13558560, Note_on_c, 0, 55, 0
2, 13558560, Note_on_c, 0, 59, 100
2, 13558680, Note_on_c, 0, 59, 0
2, 13558680, Note_on_c, 0, 62, 100
2, 13558800, Note_on_c, 0, 62, 0
2, 13558800, Note_on_c, 0, 60, 100
2, 13558920, Note_on_c, 0, 60, 0
2, 13558920, Note_on_c, 0, 59, 100
2, 13559040, Note_on_c, 0, 59, 0
2, 13559040, Note_on_c, 0, 57, 100
2, 13559160, Note_on_c, 0, 57, 0
2, 13559160, Note_on_c, 0, 55, 100
2, 13559280, Note_on_c, 0, 55, 0
2, 13559280, Note_on_c, 0, 54, 100
2, 13559400, Note_on_c, 0, 54, 0
2, 13559400, Note_on_c, 0, 52, 100
2, 13559520, Note_on_c, 0, 52, 0
2, 13559520, Note_on_c, 0, 50, 100
2, 13559640, Note_on_c, 0, 50, 0
2, 13559640, Note_on_c, 0, 49, 100
2, 13559760, Note_on_c, 0, 49, 0
2, 13559760, Note_on_c, 0, 47, 100
2, 13559880, Note_on_c, 0, 47, 0
2, 13559880, Note_on_c, 0, 45, 100
2, 13560000, Note_on_c, 0, 45, 0
2, 13560000, Note_on_c, 0, 52, 100
2, 13560120, Note_on_c, 0, 52, 0
2, 13560120, Note_on_c, 0, 55, 100
2, 13560240, Note_on_c, 0, 55, 0
2, 13560240, Note_on_c, 0, 54, 100
2, 13560360, Note_on_c, 0, 54, 0
2, 13560360, Note_on_c, 0, 52, 100
2, 13560480, Note_on_c, 0, 52, 0
2, 13560480, Note_on_c, 0, 50, 100
2, 13560600, Note_on_c, 0, 50, 0
2, 13560600, Note_on_c, 0, 49, 100
2, 13560720, Note_on_c, 0, 49, 0
2, 13560720, Note_on_c, 0, 47, 100
2, 13560840, Note_on_c, 0, 47, 0
2, 13560840, Note_on_c, 0, 45, 100
2, 13560960, Note_on_c, 0, 45, 0
2, 13560960, Note_on_c, 0, 43, 100
2, 13561080, Note_on_c, 0, 43, 0
2, 13561080, Note_on_c, 0, 42, 100
2, 13561200, Note_on_c, 0, 42, 0
2, 13561200, Note_on_c, 0, 40, 100
2, 13561320, Note_on_c, 0, 40, 0
2, 13561320, Note_on_c, 0, 38, 100
2, 13561440, Note_on_c, 0, 38, 0
2, 13561440, Note_on_c, 0, 40, 100
2, 13562040, Note_on_c, 0, 40, 0
2, 13562040, Note_on_c, 0, 42, 100
2, 13562100, Note_on_c, 0, 42, 0
2, 13562100, Note_on_c, 0, 43, 100
2, 13562160, Note_on_c, 0, 43, 0
2, 13562160, Note_on_c, 0, 45, 100
2, 13562220, Note_on_c, 0, 45, 0
2, 13562220, Note_on_c, 0, 47, 100
2, 13562280, Note_on_c, 0, 47, 0
2, 13562280, Note_on_c, 0, 49, 100
2, 13562340, Note_on_c, 0, 49, 0
2, 13562340, Note_on_c, 0, 50, 100
2, 13563120, Note_on_c, 0, 50, 0
2, 13563120, Note_on_c, 0, 52, 100
2, 13563420, Note_on_c, 0, 52, 0
2, 13563420, Note_on_c, 0, 54, 100
2, 13563480, Note_on_c, 0, 54, 0
2, 13563480, Note_on_c, 0, 55, 100
2, 13563540, Note_on_c, 0, 55, 0
2, 13563540, Note_on_c, 0, 57, 100
2, 13563900, Note_on_c, 0, 57, 0
2, 13563900, Note_on_c, 0, 59, 100
2, 13563960, Note_on_c, 0, 59, 0
2, 13563960, Note_on_c, 0, 60, 100
2, 13564020, Note_on_c, 0, 60, 0
2, 13564020, Note_on_c, 0, 62, 100
2, 13564080, Note_on_c, 0, 62, 0
2, 13564080, Note_on_c, 0, 55, 100
2, 13564560, Note_on_c, 0, 55, 0
2, 13564560, Note_on_c, 0, 62, 100
2, 13564860, Note_on_c, 0, 62, 0
2, 13564860, Note_on_c, 0, 64, 100
2, 13564920, Note_on_c, 0, 64, 0
2, 13564920, Note_on_c, 0, 66, 100
2, 13564980, Note_on_c, 0, 66, 0
2, 13564980, Note_on_c, 0, 67, 100
2, 13565040, Note_on_c, 0, 67, 0
2, 13565040, Note_on_c, 0, 66, 100
2, 13565340, Note_on_c, 0, 66, 0
2, 13565340, Note_on_c, 0, 67, 100
2, 13565400, Note_on_c, 0, 67, 0
2, 13565400, Note_on_c, 0, 69, 100
2, 13565460, Note_on_c, 0, 69, 0
2, 13565460, Note_on_c, 0, 71, 100
2, 13565520, Note_on_c, 0, 71, 0
2, 13565520, Note_on_c, 0, 69, 100
2, 13566000, Note_on_c, 0, 69, 0
2, 13566000, Note_on_c, 0, 71, 100
2, 13566300, Note_on_c, 0, 71, 0
2, 13566300, Note_on_c, 0, 72, 100
2, 13566360, Note_on_c, 0, 72, 0
2, 13566360, Note_on_c, 0, 74, 100
2, 13566420, Note_on_c, 0, 74, 0
2, 13566420, Note_on_c, 0, 76, 100
2, 13566780, Note_on_c, 0, 76, 0
2, 13566780, Note_on_c, 0, 78, 100
2, 13566840, Note_on_c, 0, 78, 0
2, 13566840, Note_on_c, 0, 79, 100
2, 13566900, Note_on_c, 0, 79, 0
2, 13566900, Note_on_c, 0, 81, 100
2, 13566960, Note_on_c, 0, 81, 0
2, 13566960, Note_on_c, 0, 84, 100
2, 13567440, Note_on_c, 0, 84, 0
2, 13567440, Note_on_c, 0, 83, 100
2, 13567740, Note_on_c, 0, 83, 0
2, 13567740, Note_on_c, 0, 81, 100
2, 13567800, Note_on_c, 0, 81, 0
2, 13567800, Note_on_c, 0, 79, 100
2, 13567860, Note_on_c, 0, 79, 0
2, 13567860, Note_on_c, 0, 78, 100
2, 13567920, Note_on_c, 0, 78, 0
2, 13567920, Note_on_c, 0, 79, 100
2, 13568220, Note_on_c, 0, 79, 0
2, 13568220, Note_on_c, 0, 78, 100
2, 13568280, Note_on_c, 0, 78, 0
2, 13568280, Note_on_c, 0, 76, 100
2, 13568340, Note_on_c, 0, 76, 0
2, 13568340, Note_on_c, 0, 75, 100
2, 13568400, Note_on_c, 0, 75, 0
2, 13568400, Note_on_c, 0, 76, 100
2, 13568760, Note_on_c, 0, 76, 0
2, 13568760, Note_on_c, 0, 74, 100
2, 13568880, Note_on_c, 0, 74, 0
2, 13568880, Note_on_c, 0, 72, 100
2, 13569000, Note_on_c, 0, 72, 0
2, 13569000, Note_on_c, 0, 71, 100
2, 13569120, Note_on_c, 0, 71, 0
2, 13569120, Note_on_c, 0, 69, 100
2, 13569240, Note_on_c, 0, 69, 0
2, 13569240, Note_on_c, 0, 67, 100
2, 13569360, Note_on_c, 0, 67, 0
2, 13569360, Note_on_c, 0, 66, 100
2, 13569480, Note_on_c, 0, 66, 0
2, 13569480, Note_on_c, 0, 64, 100
2, 13569600, Note_on_c, 0, 64, 0
2, 13569600, Note_on_c, 0, 62, 100
2, 13569720, Note_on_c, 0, 62, 0
2, 13569720, Note_on_c, 0, 60, 100
2, 13569840, Note_on_c, 0, 60, 0
2, 13569840, Note_on_c, 0, 59, 100
2, 13569960, Note_on_c, 0, 59, 0
2, 13569960, Note_on_c, 0, 57, 100
2, 13570080, Note_on_c, 0, 57, 0
2, 13570080, Note_on_c, 0, 56, 100
2, 13570680, Note_on_c, 0, 56, 0
2, 13570680, Note_on_c, 0, 57, 100
2, 13570800, Note_on_c, 0, 57, 0
2, 13570800, Note_on_c, 0, 59, 100
2, 13570920, Note_on_c, 0, 59, 0
2, 13570920, Note_on_c, 0, 60, 100
2, 13571040, Note_on_c, 0, 60, 0
2, 13571040, Note_on_c, 0, 61, 100
2, 13571160, Note_on_c, 0, 61, 0
2, 13571160, Note_on_c, 0, 62, 100
2, 13571280, Note_on_c, 0, 62, 0
2, 13571280, Note_on_c, 0, 64, 100
2, 13571400, Note_on_c, 0, 64, 0
2, 13571400, Note_on_c, 0, 66, 100
2, 13571520, Note_on_c, 0, 66, 0
2, 13571520, Note_on_c, 0, 57, 100
2, 13571880, Note_on_c, 0, 57, 0
2, 13571880, Note_on_c, 0, 55, 100
2, 13572000, Note_on_c, 0, 55, 0
2, 13572000, Note_on_c, 0, 60, 100
2, 13572240, Note_on_c, 0, 60, 0
2, 13572240, Note_on_c, 0, 57, 100
2, 13572480, Note_on_c, 0, 57, 0
2, 13572480, Note_on_c, 0, 59, 100
2, 13572720, Note_on_c, 0, 59, 0
2, 13572720, Note_on_c, 0, 52, 100
2, 13572960, Note_on_c, 0, 52, 0
2, 13572960, Note_on_c, 0, 69, 100
2, 13573260, Note_on_c, 0, 69, 0
2, 13573260, Note_on_c, 0, 67, 100
2, 13573320, Note_on_c, 0, 67, 0
2, 13573320, Note_on_c, 0, 66, 100
2, 13573380, Note_on_c, 0, 66, 0
2, 13573380, Note_on_c, 0, 67, 100
2, 13573440, Note_on_c, 0, 67, 0
2, 13573440, Note_on_c, 0, 60, 100
2, 13573740, Note_on_c, 0, 60, 0
2, 13573740, Note_on_c, 0, 59, 100
2, 13573800, Note_on_c, 0, 59, 0
2, 13573800, Note_on_c, 0, 57, 100
2, 13573860, Note_on_c, 0, 57, 0
2, 13573860, Note_on_c, 0, 59, 100
2, 13573920, Note_on_c, 0, 59, 0
2, 13573920, Note_on_c, 0, 53, 100
2, 13574220, Note_on_c, 0, 53, 0
2, 13574220, Note_on_c, 0, 52, 100
2, 13574280, Note_on_c, 0, 52, 0
2, 13574280, Note_on_c, 0, 50, 100
2, 13574340, Note_on_c, 0, 50, 0
2, 13574340, Note_on_c, 0, 48, 100
2, 13574400, Note_on_c, 0, 48, 0
2, 13574400, Note_on_c, 0, 62, 100
2, 13575000, Note_on_c, 0, 62, 0
2, 13575000, Note_on_c, 0, 60, 100
2, 13575120, Note_on_c, 0, 60, 0
2, 13575120, Note_on_c, 0, 59, 100
2, 13575240, Note_on_c, 0, 59, 0
2, 13575240, Note_on_c, 0, 57, 100
2, 13575360, Note_on_c, 0, 57, 0
2, 13575360, Note_on_c, 0, 55, 100
2, 13575480, Note_on_c, 0, 55, 0
2, 13575480, Note_on_c, 0, 54, 100
2, 13575600, Note_on_c, 0, 54, 0
2, 13575600, Note_on_c, 0, 52, 100
2, 13575720, Note_on_c, 0, 52, 0
2, 13575720, Note_on_c, 0, 50, 100
2, 13575840, Note_on_c, 0, 50, 0
2, 13575840, Note_on_c, 0, 48, 100
2, 13576440, Note_on_c, 0, 48, 0
2, 13576440, Note_on_c, 0, 50, 100
2, 13576560, Note_on_c, 0, 50, 0
2, 13576560, Note_on_c, 0, 52, 100
2, 13576680, Note_on_c, 0, 52, 0
2, 13576680, Note_on_c, 0, 54, 100
2, 13576800, Note_on_c, 0, 54, 0
2, 13576800, Note_on_c, 0, 55, 100
2, 13576920, Note_on_c, 0, 55, 0
2, 13576920, Note_on_c, 0, 57, 100
2, 13577040, Note_on_c, 0, 57, 0
2, 13577040, Note_on_c, 0, 59, 100
2, 13577160, Note_on_c, 0, 59, 0
2, 13577160, Note_on_c, 0, 60, 100
2, 13578000, Note_on_c, 0, 60, 0
2, 13578000, Note_on_c, 0, 57, 100
2, 13578480, Note_on_c, 0, 57, 0
2, 13578480, Note_on_c, 0, 54, 100
2, 13579440, Note_on_c, 0, 54, 0
2, 13579440, Note_on_c, 0, 50, 100
2, 13579920, Note_on_c, 0, 50, 0
2, 13579920, Note_on_c, 0, 47, 100
2, 13580640, Note_on_c, 0, 47, 0
2, 13580640, Note_on_c, 0, 50, 100
2, 13580880, Note_on_c, 0, 50, 0
2, 13580880, Note_on_c, 0, 53, 100
2, 13581120, Note_on_c, 0, 53, 0
2, 13581120, Note_on_c, 0, 57, 100
2, 13581360, Note_on_c, 0, 57, 0
2, 13581360, Note_on_c, 0, 60, 100
2, 13582080, Note_on_c, 0, 60, 0
2, 13582080, Note_on_c, 0, 64, 100
2, 13582320, Note_on_c, 0, 64, 0
2, 13582320, Note_on_c, 0, 67, 100
2, 13582560, Note_on_c, 0, 67, 0
2, 13582560, Note_on_c, 0, 71, 100
2, 13582800, Note_on_c, 0, 71, 0
2, 13582800, Note_on_c, 0, 74, 100
2, 13583040, Note_on_c, 0, 74, 0
2, 13583040, Note_on_c, 0, 64, 100
2, 13583640, Note_on_c, 0, 64, 0
2, 13583640, Note_on_c, 0, 62, 100
2, 13583760, Note_on_c, 0, 62, 0
2, 13583760, Note_on_c, 0, 60, 100
2, 13583880, Note_on_c, 0, 60, 0
2, 13583880, Note_on_c, 0, 59, 100
2, 13584000, Note_on_c, 0, 59, 0
2, 13584000, Note_on_c, 0, 57, 100
2, 13584120, Note_on_c, 0, 57, 0
2, 13584120, Note_on_c, 0, 55, 100
2, 13584240, Note_on_c, 0, 55, 0
2, 13584240, Note_on_c, 0, 54, 100
2, 13584360, Note_on_c, 0, 54, 0
2, 13584360, Note_on_c, 0, 55, 100
2, 13584480, Note_on_c, 0, 55, 0
2, 13584480, Note_on_c, 0, 47, 100
2, 13584600, Note_on_c, 0, 47, 0
2, 13584600, Note_on_c, 0, 48, 100
2, 13584720, Note_on_c, 0, 48, 0
2, 13584720, Note_on_c, 0, 50, 100
2, 13584840, Note_on_c, 0, 50, 0
2, 13584840, Note_on_c, 0, 52, 100
2, 13584960, Note_on_c, 0, 52, 0
2, 13584960, Note_on_c, 0, 54, 100
2, 13585080, Note_on_c, 0, 54, 0
2, 13585080, Note_on_c, 0, 55, 100
2, 13585200, Note_on_c, 0, 55, 0
2, 13585200, Note_on_c, 0, 57, 100
2, 13585320, Note_on_c, 0, 57, 0
2, 13585320, Note_on_c, 0, 59, 100
2, 13585440, Note_on_c, 0, 59, 0
2, 13585440, Note_on_c, 0, 50, 100
2, 13586160, Note_on_c, 0, 50, 0
2, 13586160, Note_on_c, 0, 52, 100
2, 13586460, Note_on_c, 0, 52, 0
2, 13586460, Note_on_c, 0, 54, 100
2, 13586520, Note_on_c, 0, 54, 0
2, 13586520, Note_on_c, 0, 55, 100
2, 13586580, Note_on_c, 0, 55, 0
2, 13586580, Note_on_c, 0, 57, 100
2, 13586940, Note_on_c, 0, 57, 0
2, 13586940, Note_on_c, 0, 59, 100
2, 13587000, Note_on_c, 0, 59, 0
2, 13587000, Note_on_c, 0, 60, 100
2, 13587060, Note_on_c, 0, 60, 0
2, 13587060, Note_on_c, 0, 62, 100
2, 13587120, Note_on_c, 0, 62, 0
2, 13587120, Note_on_c, 0, 55, 100
2, 13587600, Note_on_c, 0, 55, 0
2, 13587600, Note_on_c, 0, 62, 100
2, 13587900, Note_on_c, 0, 62, 0
2, 13587900, Note_on_c, 0, 64, 100
2, 13587960, Note_on_c, 0, 64, 0
2, 13587960, Note_on_c, 0, 66, 100
2, 13588020, Note_on_c, 0, 66, 0
2, 13588020, Note_on_c, 0, 67, 100
2, 13588080, Note_on_c, 0, 67, 0
2, 13588080, Note_on_c, 0, 66, 100
2, 13588380, Note_on_c, 0, 66, 0
2, 13588380, Note_on_c, 0, 67, 100
2, 13588440, Note_on_c, 0, 67, 0
2, 13588440, Note_on_c, 0, 69, 100
2, 13588500, Note_on_c, 0, 69, 0
2, 13588500, Note_on_c, 0, 71, 100
2, 13588560, Note_on_c, 0, 71, 0
2, 13588560, Note_on_c, 0, 69, 100
2, 13589040, Note_on_c, 0, 69, 0
2, 13589040, Note_on_c, 0, 71, 100
2, 13589340, Note_on_c, 0, 71, 0
2, 13589340, Note_on_c, 0, 72, 100
2, 13589400, Note_on_c, 0, 72, 0
2, 13589400, Note_on_c, 0, 74, 100
2, 13589460, Note_on_c, 0, 74, 0
2, 13589460, Note_on_c, 0, 76, 100
2, 13589820, Note_on_c, 0, 76, 0
2, 13589820, Note_on_c, 0, 78, 100
2, 13589880, Note_on_c, 0, 78, 0
2, 13589880, Note_on_c, 0, 79, 100
2, 13589940, Note_on_c, 0, 79, 0
2, 13589940, Note_on_c, 0, 81, 100
2, 13590000, Note_on_c, 0, 81, 0
2, 13590000, Note_on_c, 0, 84, 100
2, 13590480, Note_on_c, 0, 84, 0
2, 13590480, Note_on_c, 0, 83, 100
2, 13590780, Note_on_c, 0, 83, 0
2, 13590780, Note_on_c, 0, 81, 100
2, 13590840, Note_on_c, 0, 81, 0
2, 13590840, Note_on_c, 0, 79, 100
2, 13590900, Note_on_c, 0, 79, 0
2, 13590900, Note_on_c, 0, 78, 100
2, 13590960, Note_on_c, 0, 78, 0
2, 13590960, Note_on_c, 0, 79, 100
2, 13591260, Note_on_c, 0, 79, 0
2, 13591260, Note_on_c, 0, 78, 100
2, 13591320, Note_on_c, 0, 78, 0
2, 13591320, Note_on_c, 0, 76, 100
2, 13591380, Note_on_c, 0, 76, 0
2, 13591380, Note_on_c, 0, 75, 100
2, 13591440, Note_on_c, 0, 75, 0
2, 13591440, Note_on_c, 0, 76, 100
2, 13591800, Note_on_c, 0, 76, 0
2, 13591800, Note_on_c, 0, 74, 100
2, 13591920, Note_on_c, 0, 74, 0
2, 13591920, Note_on_c, 0, 72, 100
2, 13592040, Note_on_c, 0, 72, 0
2, 13592040, Note_on_c, 0, 71, 100
2, 13592160, Note_on_c, 0, 71, 0
2, 13592160, Note_on_c, 0, 69, 100
2, 13592280, Note_on_c, 0, 69, 0
2, 13592280, Note_on_c, 0, 67, 100
2, 13592400, Note_on_c, 0, 67, 0
2, 13592400, Note_on_c, 0, 66, 100
2, 13592520, Note_on_c, 0, 66, 0
2, 13592520, Note_on_c, 0, 64, 100
2, 13592640, Note_on_c, 0, 64, 0
2, 13592640, Note_on_c, 0, 62, 100
2, 13592760, Note_on_c, 0, 62, 0
2, 13592760, Note_on_c, 0, 60, 100
2, 13592880, Note_on_c, 0, 60, 0
2, 13592880, Note_on_c, 0, 59, 100
2, 13593000, Note_on_c, 0, 59, 0
2, 13593000, Note_on_c, 0, 57, 100
2, 13593120, Note_on_c, 0, 57, 0
2, 13593120, Note_on_c, 0, 56, 100
2, 13593720, Note_on_c, 0, 56, 0
2, 13593720, Note_on_c, 0, 57, 100
2, 13593840, Note_on_c, 0, 57, 0
2, 13593840, Note_on_c, 0, 59, 100
2, 13593960, Note_on_c, 0, 59, 0
2, 13593960, Note_on_c, 0, 60, 100
2, 13594080, Note_on_c, 0, 60, 0
2, 13594080, Note_on_c, 0, 61, 100
2, 13594200, Note_on_c, 0, 61, 0
2, 13594200, Note_on_c, 0, 62, 100
2, 13594320, Note_on_c, 0, 62, 0
2, 13594320, Note_on_c, 0, 64, 100
2, 13594440, Note_on_c, 0, 64, 0
2, 13594440, Note_on_c, 0, 66, 100
2, 13594560, Note_on_c, 0, 66, 0
2, 13594560, Note_on_c, 0, 57, 100
2, 13594920, Note_on_c, 0, 57, 0
2, 13594920, Note_on_c, 0, 55, 100
2, 13595040, Note_on_c, 0, 55, 0
2, 13595040, Note_on_c, 0, 60, 100
2, 13595280, Note_on_c, 0, 60, 0
2, 13595280, Note_on_c, 0, 57, 100
2, 13595520, Note_on_c, 0, 57, 0
2, 13595520, Note_on_c, 0, 59, 100
2, 13595760, Note_on_c, 0, 59, 0
2, 13595760, Note_on_c, 0, 52, 100
2, 13596000, Note_on_c, 0, 52, 0
2, 13596000, Note_on_c, 0, 69, 100
2, 13596300, Note_on_c, 0, 69, 0
2, 13596300, Note_on_c, 0, 67, 100
2, 13596360, Note_on_c, 0, 67, 0
2, 13596360, Note_on_c, 0, 66, 100
2, 13596420, Note_on_c, 0, 66, 0
2, 13596420, Note_on_c, 0, 67, 100
2, 13596480, Note_on_c, 0, 67, 0
2, 13596480, Note_on_c, 0, 60, 100
2, 13596780, Note_on_c, 0, 60, 0
2, 13596780, Note_on_c, 0, 59, 100
2, 13596840, Note_on_c, 0, 59, 0
2, 13596840, Note_on_c, 0, 57, 100
2, 13596900, Note_on_c, 0, 57, 0
2, 13596900, Note_on_c, 0, 59, 100
2, 13596960, Note_on_c, 0, 59, 0
2, 13596960, Note_on_c, 0, 53, 100
2, 13597260, Note_on_c, 0, 53, 0
2, 13597260, Note_on_c, 0, 52, 100
2, 13597320, Note_on_c, 0, 52, 0
2, 13597320, Note_on_c, 0, 50, 100
2, 13597380, Note_on_c, 0, 50, 0
2, 13597380, Note_on_c, 0, 48, 100
2, 13597440, Note_on_c, 0, 48, 0
2, 13597440, Note_on_c, 0, 62, 100
2, 13598040, Note_on_c, 0, 62, 0
2, 13598040, Note_on_c, 0, 60, 100
2, 13598160, Note_on_c, 0, 60, 0
2, 13598160, Note_on_c, 0, 59, 100
2, 13598280, Note_on_c, 0, 59, 0
2, 13598280, Note_on_c, 0, 57, 100
2, 13598400, Note_on_c, 0, 57, 0
2, 13598400, Note_on_c, 0, 55, 100
2, 13598520, Note_on_c, 0, 55, 0
2, 13598520, Note_on_c, 0, 54, 100
2, 13598640, Note_on_c, 0, 54, 0
2, 13598640, Note_on_c, 0, 52, 100
2, 13598760, Note_on_c, 0, 52, 0
2, 13598760, Note_on_c, 0, 50, 100
2, 13598880, Note_on_c, 0, 50, 0
2, 13598880, Note_on_c, 0, 48, 100
2, 13599480, Note_on_c, 0, 48, 0
2, 13599480, Note_on_c, 0, 50, 100
2, 13599600, Note_on_c, 0, 50, 0
2, 13599600, Note_on_c, 0, 52, 100
2, 13599720, Note_on_c, 0, 52, 0
2, 13599720, Note_on_c, 0, 54, 100
2, 13599840, Note_on_c, 0, 54, 0
2, 13599840, Note_on_c, 0, 55, 100
2, 13599960, Note_on_c, 0, 55, 0
2, 13599960, Note_on_c, 0, 57, 100
2, 13600080, Note_on_c, 0, 57, 0
2, 13600080, Note_on_c, 0, 59, 100
2, 13600200, Note_on_c, 0, 59, 0
2, 13600200, Note_on_c, 0, 60, 100
2, 13601040, Note_on_c, 0, 60, 0
2, 13601040, Note_on_c, 0, 57, 100
2, 13601520, Note_on_c, 0, 57, 0
2, 13601520, Note_on_c, 0, 54, 100
2, 13602480, Note_on_c, 0, 54, 0
2, 13602480, Note_on_c, 0, 50, 100
2, 13602960, Note_on_c, 0, 50, 0
2, 13602960, Note_on_c, 0, 47, 100
2, 13603680, Note_on_c, 0, 47, 0
2, 13603680, Note_on_c, 0, 50, 100
2, 13603920, Note_on_c, 0, 50, 0
2, 13603920, Note_on_c, 0, 53, 100
2, 13604160, Note_on_c, 0, 53, 0
2, 13604160, Note_on_c, 0, 57, 100
2, 13604400, Note_on_c, 0, 57, 0
2, 13604400, Note_on_c, 0, 60, 100
2, 13605120, Note_on_c, 0, 60, 0
2, 13605120, Note_on_c, 0, 64, 100
2, 13605360, Note_on_c, 0, 64, 0
2, 13605360, Note_on_c, 0, 67, 100
2, 13605600, Note_on_c, 0, 67, 0
2, 13605600, Note_on_c, 0, 71, 100
2, 13605840, Note_on_c, 0, 71, 0
2, 13605840, Note_on_c, 0, 74, 100
2, 13606080, Note_on_c, 0, 74, 0
2, 13606080, Note_on_c, 0, 64, 100
2, 13606680, Note_on_c, 0, 64, 0
2, 13606680, Note_on_c, 0, 62, 100
2, 13606800, Note_on_c, 0, 62, 0
2, 13606800, Note_on_c, 0, 60, 100
2, 13606920, Note_on_c, 0, 60, 0
2, 13606920, Note_on_c, 0, 59, 100
2, 13607040, Note_on_c, 0, 59, 0
2, 13607040, Note_on_c, 0, 57, 100
2, 13607160, Note_on_c, 0, 57, 0
2, 13607160, Note_on_c, 0, 55, 100
2, 13607280, Note_on_c, 0, 55, 0
2, 13607280, Note_on_c, 0, 54, 100
2, 13607400, Note_on_c, 0, 54, 0
2, 13607400, Note_on_c, 0, 55, 100
2, 13607520, Note_on_c, 0, 55, 0
2, 13607520, Note_on_c, 0, 47, 100
2, 13607640, Note_on_c, 0, 47, 0
2, 13607640, Note_on_c, 0, 48, 100
2, 13607760, Note_on_c, 0, 48, 0
2, 13607760, Note_on_c, 0, 50, 100
2, 13607880, Note_on_c, 0, 50, 0
2, 13607880, Note_on_c, 0, 52, 100
2, 13608000, Note_on_c, 0, 52, 0
2, 13608000, Note_on_c, 0, 54, 100
2, 13608120, Note_on_c, 0, 54, 0
2, 13608120, Note_on_c, 0, 55, 100
2, 13608240, Note_on_c, 0, 55, 0
2, 13608240, Note_on_c, 0, 57, 100
2, 13608360, Note_on_c, 0, 57, 0
2, 13608360, Note_on_c, 0, 59, 100
2, 13608480, Note_on_c, 0, 59, 0
2, 13608480, Note_on_c, 0, 55, 100
2, 13931520, Note_on_c, 0, 55, 0
2, 13931520, Note_on_c, 0, 57, 100
2, 13931760, Note_on_c, 0, 57, 0
2, 13931760, Note_on_c, 0, 59, 100
2, 13931880, Note_on_c, 0, 59, 0
2, 13931880, Note_on_c, 0, 60, 100
2, 13932000, Note_on_c, 0, 60, 0
2, 13932000, Note_on_c, 0, 62, 100
2, 13932120, Note_on_c, 0, 62, 0
2, 13932120, Note_on_c, 0, 64, 100
2, 13932240, Note_on_c, 0, 64, 0
2, 13932240, Note_on_c, 0, 62, 100
2, 13932360, Note_on_c, 0, 62, 0
2, 13932360, Note_on_c, 0, 60, 100
2, 13932480, Note_on_c, 0, 60, 0
2, 13932480, Note_on_c, 0, 62, 100
2, 13932600, Note_on_c, 0, 62, 0
2, 13932600, Note_on_c, 0, 64, 100
2, 13932720, Note_on_c, 0, 64, 0
2, 13932720, Note_on_c, 0, 54, 100
2, 13932960, Note_on_c, 0, 54, 0
2, 13932960, Note_on_c, 0, 62, 100
2, 13933680, Note_on_c, 0, 62, 0
2, 13933680, Note_on_c, 0, 52, 100
2, 13934400, Note_on_c, 0, 52, 0
2, 13934400, Note_on_c, 0, 54, 100
2, 13934640, Note_on_c, 0, 54, 0
2, 13934640, Note_on_c, 0, 55, 100
2, 13934760, Note_on_c, 0, 55, 0
2, 13934760, Note_on_c, 0, 57, 100
2, 13934880, Note_on_c, 0, 57, 0
2, 13934880, Note_on_c, 0, 59, 100
2, 13935000, Note_on_c, 0, 59, 0
2, 13935000, Note_on_c, 0, 60, 100
2, 13935120, Note_on_c, 0, 60, 0
2, 13935120, Note_on_c, 0, 62, 100
2, 13935240, Note_on_c, 0, 62, 0
2, 13935240, Note_on_c, 0, 60, 100
2, 13935360, Note_on_c, 0, 60, 0
2, 13935360, Note_on_c, 0, 59, 100
2, 13935480, Note_on_c, 0, 59, 0
2, 13935480, Note_on_c, 0, 60, 100
2, 13935840, Note_on_c, 0, 60, 0
2, 13935840, Note_on_c, 0, 54, 100
2, 13936560, Note_on_c, 0, 54, 0
2, 13936560, Note_on_c, 0, 59, 100
2, 13937280, Note_on_c, 0, 59, 0
2, 13937280, Note_on_c, 0, 60, 100
2, 13937400, Note_on_c, 0, 60, 0
2, 13937400, Note_on_c, 0, 59, 100
2, 13937520, Note_on_c, 0, 59, 0
2, 13937520, Note_on_c, 0, 57, 100
2, 13937640, Note_on_c, 0, 57, 0
2, 13937640, Note_on_c, 0, 55, 100
2, 13937760, Note_on_c, 0, 55, 0
2, 13937760, Note_on_c, 0, 54, 100
2, 13937880, Note_on_c, 0, 54, 0
2, 13937880, Note_on_c, 0, 52, 100
2, 13938000, Note_on_c, 0, 52, 0
2, 13938000, Note_on_c, 0, 55, 100
2, 13938120, Note_on_c, 0, 55, 0
2, 13938120, Note_on_c, 0, 59, 100
2, 13938240, Note_on_c, 0, 59, 0
2, 13938240, Note_on_c, 0, 62, 100
2, 13938360, Note_on_c, 0, 62, 0
2, 13938360, Note_on_c, 0, 60, 100
2, 13938480, Note_on_c, 0, 60, 0
2, 13938480, Note_on_c, 0, 59, 100
2, 13938600, Note_on_c, 0, 59, 0
2, 13938600, Note_on_c, 0, 57, 100
2, 13938720, Note_on_c, 0, 57, 0
2, 13938720, Note_on_c, 0, 59, 100
2, 13938840, Note_on_c, 0, 59, 0
2, 13938840, Note_on_c, 0, 57, 100
2, 13938960, Note_on_c, 0, 57, 0
2, 13938960, Note_on_c, 0, 55, 100
2, 13939080, Note_on_c, 0, 55, 0
2, 13939080, Note_on_c, 0, 54, 100
2, 13939200, Note_on_c, 0, 54, 0
2, 13939200, Note_on_c, 0, 52, 100
2, 13939320, Note_on_c, 0, 52, 0
2, 13939320, Note_on_c, 0, 50, 100
2, 13939440, Note_on_c, 0, 50, 0
2, 13939440, Note_on_c, 0, 54, 100
2, 13939560, Note_on_c, 0, 54, 0
2, 13939560, Note_on_c, 0, 57, 100
2, 13939680, Note_on_c, 0, 57, 0
2, 13939680, Note_on_c, 0, 60, 100
2, 13939800, Note_on_c, 0, 60, 0
2, 13939800, Note_on_c, 0, 59, 100
2, 13939920, Note_on_c, 0, 59, 0
2, 13939920, Note_on_c, 0, 57, 100
2, 13940040, Note_on_c, 0, 57, 0
2, 13940040, Note_on_c, 0, 55, 100
2, 13940160, Note_on_c, 0, 55, 0
2, 13940160, Note_on_c, 0, 59, 100
2, 13940400, Note_on_c, 0, 59, 0
2, 13940400, Note_on_c, 0, 57, 100
2, 13940460, Note_on_c, 0, 57, 0
2, 13940460, Note_on_c, 0, 55, 100
2, 13940520, Note_on_c, 0, 55, 0
2, 13940520, Note_on_c, 0, 57, 100
2, 13940580, Note_on_c, 0, 57, 0
2, 13940580, Note_on_c, 0, 59, 100
2, 13940640, Note_on_c, 0, 59, 0
2, 13940640, Note_on_c, 0, 48, 100
2, 13940880, Note_on_c, 0, 48, 0
2, 13940880, Note_on_c, 0, 60, 100
2, 13941120, Note_on_c, 0, 60, 0
2, 13941120, Note_on_c, 0, 64, 100
2, 13941720, Note_on_c, 0, 64, 0
2, 13941720, Note_on_c, 0, 62, 100
2, 13941840, Note_on_c, 0, 62, 0
2, 13941840, Note_on_c, 0, 60, 100
2, 13941960, Note_on_c, 0, 60, 0
2, 13941960, Note_on_c, 0, 59, 100
2, 13942080, Note_on_c, 0, 59, 0
2, 13942080, Note_on_c, 0, 57, 100
2, 13942200, Note_on_c, 0, 57, 0
2, 13942200, Note_on_c, 0, 59, 100
2, 13942320, Note_on_c, 0, 59, 0
2, 13942320, Note_on_c, 0, 60, 100
2, 13942440, Note_on_c, 0, 60, 0
2, 13942440, Note_on_c, 0, 62, 100
2, 13942560, Note_on_c, 0, 62, 0
2, 13942560, Note_on_c, 0, 59, 100
2, 13942680, Note_on_c, 0, 59, 0
2, 13942680, Note_on_c, 0, 60, 100
2, 13942800, Note_on_c, 0, 60, 0
2, 13942800, Note_on_c, 0, 62, 100
2, 13942920, Note_on_c, 0, 62, 0
2, 13942920, Note_on_c, 0, 55, 100
2, 13943040, Note_on_c, 0, 55, 0
2, 13943040, Note_on_c, 0, 54, 100
2, 13943100, Note_on_c, 0, 54, 0
2, 13943100, Note_on_c, 0, 55, 100
2, 13944600, Note_on_c, 0, 55, 0
2, 13944600, Note_on_c, 0, 54, 100
2, 13944720, Note_on_c, 0, 54, 0
2, 13944720, Note_on_c, 0, 52, 100
2, 13944840, Note_on_c, 0, 52, 0
2, 13944840, Note_on_c, 0, 50, 100
2, 13944960, Note_on_c, 0, 50, 0
2, 13944960, Note_on_c, 0, 49, 100
2, 13945080, Note_on_c, 0, 49, 0
2, 13945080, Note_on_c, 0, 47, 100
2, 13945200, Note_on_c, 0, 47, 0
2, 13945200, Note_on_c, 0, 49, 100
2, 13945320, Note_on_c, 0, 49, 0
2, 13945320, Note_on_c, 0, 50, 100
2, 13945440, Note_on_c, 0, 50, 0
2, 13945440, Note_on_c, 0, 49, 100
2, 13945560, Note_on_c, 0, 49, 0
2, 13945560, Note_on_c, 0, 50, 100
2, 13945680, Note_on_c, 0, 50, 0
2, 13945680, Note_on_c, 0, 47, 100
2, 13945800, Note_on_c, 0, 47, 0
2, 13945800, Note_on_c, 0, 52, 100
2, 13945920, Note_on_c, 0, 52, 0
2, 13945920, Note_on_c, 0, 45, 100
2, 13946640, Note_on_c, 0, 45, 0
2, 13946640, Note_on_c, 0, 57, 100
2, 13947360, Note_on_c, 0, 57, 0
2, 13947360, Note_on_c, 0, 59, 100
2, 13947480, Note_on_c, 0, 59, 0
2, 13947480, Note_on_c, 0, 57, 100
2, 13947600, Note_on_c, 0, 57, 0
2, 13947600, Note_on_c, 0, 55, 100
2, 13947720, Note_on_c, 0, 55, 0
2, 13947720, Note_on_c, 0, 54, 100
2, 13947840, Note_on_c, 0, 54, 0
2, 13947840, Note_on_c, 0, 52, 100
2, 13947960, Note_on_c, 0, 52, 0
2, 13947960, Note_on_c, 0, 50, 100
2, 13948080, Note_on_c, 0, 50, 0
2, 13948080, Note_on_c, 0, 54, 100
2, 13948200, Note_on_c, 0, 54, 0
2, 13948200, Note_on_c, 0, 57, 100
2, 13948320, Note_on_c, 0, 57, 0
2, 13948320, Note_on_c, 0, 60, 100
2, 13948440, Note_on_c, 0, 60, 0
2, 13948440, Note_on_c, 0, 59, 100
2, 13948560, Note_on_c, 0, 59, 0
2, 13948560, Note_on_c, 0, 57, 100
2, 13948680, Note_on_c, 0, 57, 0
2, 13948680, Note_on_c, 0, 55, 100
2, 13948800, Note_on_c, 0, 55, 0
2, 13948800, Note_on_c, 0, 57, 100
2, 13948920, Note_on_c, 0, 57, 0
2, 13948920, Note_on_c, 0, 55, 100
2, 13949040, Note_on_c, 0, 55, 0
2, 13949040, Note_on_c, 0, 54, 100
2, 13949160, Note_on_c, 0, 54, 0
2, 13949160, Note_on_c, 0, 52, 100
2, 13949280, Note_on_c, 0, 52, 0
2, 13949280, Note_on_c, 0, 50, 100
2, 13949400, Note_on_c, 0, 50, 0
2, 13949400, Note_on_c, 0, 49, 100
2, 13949520, Note_on_c, 0, 49, 0
2, 13949520, Note_on_c, 0, 52, 100
2, 13949640, Note_on_c, 0, 52, 0
2, 13949640, Note_on_c, 0, 55, 100
2, 13949760, Note_on_c, 0, 55, 0
2, 13949760, Note_on_c, 0, 59, 100
2, 13949880, Note_on_c, 0, 59, 0
2, 13949880, Note_on_c, 0, 57, 100
2, 13950000, Note_on_c, 0, 57, 0
2, 13950000, Note_on_c, 0, 55, 100
2, 13950120, Note_on_c, 0, 55, 0
2, 13950120, Note_on_c, 0, 54, 100
2, 13950240, Note_on_c, 0, 54, 0
2, 13950240, Note_on_c, 0, 57, 100
2, 13950480, Note_on_c, 0, 57, 0
2, 13950480, Note_on_c, 0, 55, 100
2, 13950540, Note_on_c, 0, 55, 0
2, 13950540, Note_on_c, 0, 54, 100
2, 13950600, Note_on_c, 0, 54, 0
2, 13950600, Note_on_c, 0, 55, 100
2, 13950660, Note_on_c, 0, 55, 0
2, 13950660, Note_on_c, 0, 57, 100
2, 13950720, Note_on_c, 0, 57, 0
2, 13950720, Note_on_c, 0, 55, 100
2, 13951200, Note_on_c, 0, 55, 0
2, 13951200, Note_on_c, 0, 54, 100
2, 13951440, Note_on_c, 0, 54, 0
2, 13951440, Note_on_c, 0, 52, 100
2, 13951800, Note_on_c, 0, 52, 0
2, 13951800, Note_on_c, 0, 50, 100
2, 13951920, Note_on_c, 0, 50, 0
2, 13951920, Note_on_c, 0, 49, 100
2, 13952040, Note_on_c, 0, 49, 0
2, 13952040, Note_on_c, 0, 50, 100
2, 13952160, Note_on_c, 0, 50, 0
2, 13952160, Note_on_c, 0, 47, 100
2, 13952280, Note_on_c, 0, 47, 0
2, 13952280, Note_on_c, 0, 50, 100
2, 13952400, Note_on_c, 0, 50, 0
2, 13952400, Note_on_c, 0, 49, 100
2, 13952460, Note_on_c, 0, 49, 0
2, 13952460, Note_on_c, 0, 50, 100
2, 13952520, Note_on_c, 0, 50, 0
2, 13952520, Note_on_c, 0, 49, 100
2, 13952580, Note_on_c, 0, 49, 0
2, 13952580, Note_on_c, 0, 50, 100
2, 13952640, Note_on_c, 0, 50, 0
2, 13952640, Note_on_c, 0, 49, 100
2, 13952700, Note_on_c, 0, 49, 0
2, 13952700, Note_on_c, 0, 50, 100
2, 13952760, Note_on_c, 0, 50, 0
2, 13952760, Note_on_c, 0, 49, 100
2, 13952820, Note_on_c, 0, 49, 0
2, 13952820, Note_on_c, 0, 50, 100
2, 13952880, Note_on_c, 0, 50, 0
2, 13952880, Note_on_c, 0, 49, 100
2, 13952940, Note_on_c, 0, 49, 0
2, 13952940, Note_on_c, 0, 47, 100
2, 13953000, Note_on_c, 0, 47, 0
2, 13953000, Note_on_c, 0, 49, 100
2, 13953060, Note_on_c, 0, 49, 0
2, 13953060, Note_on_c, 0, 50, 100
2, 13953120, Note_on_c, 0, 50, 0
2, 13953120, Note_on_c, 0, 42, 100
2, 13953360, Note_on_c, 0, 42, 0
2, 13953360, Note_on_c, 0, 45, 100
2, 13953600, Note_on_c, 0, 45, 0
2, 13953600, Note_on_c, 0, 38, 100
2, 13953840, Note_on_c, 0, 38, 0
2, 13953840, Note_on_c, 0, 55, 100
2, 13954560, Note_on_c, 0, 55, 0
2, 13954560, Note_on_c, 0, 57, 100
2, 13954800, Note_on_c, 0, 57, 0
2, 13954800, Note_on_c, 0, 59, 100
2, 13954920, Note_on_c, 0, 59, 0
2, 13954920, Note_on_c, 0, 60, 100
2, 13955040, Note_on_c, 0, 60, 0
2, 13955040, Note_on_c, 0, 62, 100
2, 13955160, Note_on_c, 0, 62, 0
2, 13955160, Note_on_c, 0, 64, 100
2, 13955280, Note_on_c, 0, 64, 0
2, 13955280, Note_on_c, 0, 62, 100
2, 13955400, Note_on_c, 0, 62, 0
2, 13955400, Note_on_c, 0, 60, 100
2, 13955520, Note_on_c, 0, 60, 0
2, 13955520, Note_on_c, 0, 62, 100
2, 13955640, Note_on_c, 0, 62, 0
2, 13955640, Note_on_c, 0, 64, 100
2, 13955760, Note_on_c, 0, 64, 0
2, 13955760, Note_on_c, 0, 54, 100
2, 13956000, Note_on_c, 0, 54, 0
2, 13956000, Note_on_c, 0, 62, 100
2, 13956720, Note_on_c, 0, 62, 0
2, 13956720, Note_on_c, 0, 52, 100
2, 13957440, Note_on_c, 0, 52, 0
2, 13957440, Note_on_c, 0, 54, 100
2, 13957680, Note_on_c, 0, 54, 0
2, 13957680, Note_on_c, 0, 55, 100
2, 13957800, Note_on_c, 0, 55, 0
2, 13957800, Note_on_c, 0, 57, 100
2, 13957920, Note_on_c, 0, 57, 0
2, 13957920, Note_on_c, 0, 59, 100
2, 13958040, Note_on_c, 0, 59, 0
2, 13958040, Note_on_c, 0, 60, 100
2, 13958160, Note_on_c, 0, 60, 0
2, 13958160, Note_on_c, 0, 62, 100
2, 13958280, Note_on_c, 0, 62, 0
2, 13958280, Note_on_c, 0, 60, 100
2, 13958400, Note_on_c, 0, 60, 0
2, 13958400, Note_on_c, 0, 59, 100
2, 13958520, Note_on_c, 0, 59, 0
2, 13958520, Note_on_c, 0, 60, 100
2, 13958880, Note_on_c, 0, 60, 0
2, 13958880, Note_on_c, 0, 54, 100
2, 13959600, Note_on_c, 0, 54, 0
2, 13959600, Note_on_c, 0, 59, 100
2, 13960320, Note_on_c, 0, 59, 0
2, 13960320, Note_on_c, 0, 60, 100
2, 13960440, Note_on_c, 0, 60, 0
2, 13960440, Note_on_c, 0, 59, 100
2, 13960560, Note_on_c, 0, 59, 0
2, 13960560, Note_on_c, 0, 57, 100
2, 13960680, Note_on_c, 0, 57, 0
2, 13960680, Note_on_c, 0, 55, 100
2, 13960800, Note_on_c, 0, 55, 0
2, 13960800, Note_on_c, 0, 54, 100
2, 13960920, Note_on_c, 0, 54, 0
2, 13960920, Note_on_c, 0, 52, 100
2, 13961040, Note_on_c, 0, 52, 0
2, 13961040, Note_on_c, 0, 55, 100
2, 13961160, Note_on_c, 0, 55, 0
2, 13961160, Note_on_c, 0, 59, 100
2, 13961280, Note_on_c, 0, 59, 0
2, 13961280, Note_on_c, 0, 62, 100
2, 13961400, Note_on_c, 0, 62, 0
2, 13961400, Note_on_c, 0, 60, 100
2, 13961520, Note_on_c, 0, 60, 0
2, 13961520, Note_on_c, 0, 59, 100
2, 13961640, Note_on_c, 0, 59, 0
2, 13961640, Note_on_c, 0, 57, 100
2, 13961760, Note_on_c, 0, 57, 0
2, 13961760, Note_on_c, 0, 59, 100
2, 13961880, Note_on_c, 0, 59, 0
2, 13961880, Note_on_c, 0, 57, 100
2, 13962000, Note_on_c, 0, 57, 0
2, 13962000, Note_on_c, 0, 55, 100
2, 13962120, Note_on_c, 0, 55, 0
2, 13962120, Note_on_c, 0, 54, 100
2, 13962240, Note_on_c, 0, 54, 0
2, 13962240, Note_on_c, 0, 52, 100
2, 13962360, Note_on_c, 0, 52, 0
2, 13962360, Note_on_c, 0, 50, 100
2, 13962480, Note_on_c, 0, 50, 0
2, 13962480, Note_on_c, 0, 54, 100
2, 13962600, Note_on_c, 0, 54, 0
2, 13962600, Note_on_c, 0, 57, 100
2, 13962720, Note_on_c, 0, 57, 0
2, 13962720, Note_on_c, 0, 60, 100
2, 13962840, Note_on_c, 0, 60, 0
2, 13962840, Note_on_c, 0, 59, 100
2, 13962960, Note_on_c, 0, 59, 0
2, 13962960, Note_on_c, 0, 57, 100
2, 13963080, Note_on_c, 0, 57, 0
2, 13963080, Note_on_c, 0, 55, 100
2, 13963200, Note_on_c, 0, 55, 0
2, 13963200, Note_on_c, 0, 59, 100
2, 13963440, Note_on_c, 0, 59, 0
2, 13963440, Note_on_c, 0, 57, 100
2, 13963500, Note_on_c, 0, 57, 0
2, 13963500, Note_on_c, 0, 55, 100
2, 13963560, Note_on_c, 0, 55, 0
2, 13963560, Note_on_c, 0, 57, 100
2, 13963620, Note_on_c, 0, 57, 0
2, 13963620, Note_on_c, 0, 59, 100
2, 13963680, Note_on_c, 0, 59, 0
2, 13963680, Note_on_c, 0, 48, 100
2, 13963920, Note_on_c, 0, 48, 0
2, 13963920, Note_on_c, 0, 60, 100
2, 13964160, Note_on_c, 0, 60, 0
2, 13964160, Note_on_c, 0, 64, 100
2, 13964760, Note_on_c, 0, 64, 0
2, 13964760, Note_on_c, 0, 62, 100
2, 13964880, Note_on_c, 0, 62, 0
2, 13964880, Note_on_c, 0, 60, 100
2, 13965000, Note_on_c, 0, 60, 0
2, 13965000, Note_on_c, 0, 59, 100
2, 13965120, Note_on_c, 0, 59, 0
2, 13965120, Note_on_c, 0, 57, 100
2, 13965240, Note_on_c, 0, 57, 0
2, 13965240, Note_on_c, 0, 59, 100
2, 13965360, Note_on_c, 0, 59, 0
2, 13965360, Note_on_c, 0, 60, 100
2, 13965480, Note_on_c, 0, 60, 0
2, 13965480, Note_on_c, 0, 62, 100
2, 13965600, Note_on_c, 0, 62, 0
2, 13965600, Note_on_c, 0, 59, 100
2, 13965720, Note_on_c, 0, 59, 0
2, 13965720, Note_on_c, 0, 60, 100
2, 13965840, Note_on_c, 0, 60, 0
2, 13965840, Note_on_c, 0, 62, 100
2, 13965960, Note_on_c, 0, 62, 0
2, 13965960, Note_on_c, 0, 55, 100
2, 13966080, Note_on_c, 0, 55, 0
2, 13966080, Note_on_c, 0, 54, 100
2, 13966140, Note_on_c, 0, 54, 0
2, 13966140, Note_on_c, 0, 55, 100
2, 13967640, Note_on_c, 0, 55, 0
2, 13967640, Note_on_c, 0, 54, 100
2, 13967760, Note_on_c, 0, 54, 0
2, 13967760, Note_on_c, 0, 52, 100
2, 13967880, Note_on_c, 0, 52, 0
2, 13967880, Note_on_c, 0, 50, 100
2, 13968000, Note_on_c, 0, 50, 0
2, 13968000, Note_on_c, 0, 49, 100
2, 13968120, Note_on_c, 0, 49, 0
2, 13968120, Note_on_c, 0, 47, 100
2, 13968240, Note_on_c, 0, 47, 0
2, 13968240, Note_on_c, 0, 49, 100
2, 13968360, Note_on_c, 0, 49, 0
2, 13968360, Note_on_c, 0, 50, 100
2, 13968480, Note_on_c, 0, 50, 0
2, 13968480, Note_on_c, 0, 49, 100
2, 13968600, Note_on_c, 0, 49, 0
2, 13968600, Note_on_c, 0, 50, 100
2, 13968720, Note_on_c, 0, 50, 0
2, 13968720, Note_on_c, 0, 47, 100
2, 13968840, Note_on_c, 0, 47, 0
2, 13968840, Note_on_c, 0, 52, 100
2, 13968960, Note_on_c, 0, 52, 0
2, 13968960, Note_on_c, 0, 45, 100
2, 13969680, Note_on_c, 0, 45, 0
2, 13969680, Note_on_c, 0, 57, 100
2, 13970400, Note_on_c, 0, 57, 0
2, 13970400, Note_on_c, 0, 59, 100
2, 13970520, Note_on_c, 0, 59, 0
2, 13970520, Note_on_c, 0, 57, 100
2, 13970640, Note_on_c, 0, 57, 0
2, 13970640, Note_on_c, 0, 55, 100
2, 13970760, Note_on_c, 0, 55, 0
2, 13970760, Note_on_c, 0, 54, 100
2, 13970880, Note_on_c, 0, 54, 0
2, 13970880, Note_on_c, 0, 52, 100
2, 13971000, Note_on_c, 0, 52, 0
2, 13971000, Note_on_c, 0, 50, 100
2, 13971120, Note_on_c, 0, 50, 0
2, 13971120, Note_on_c, 0, 54, 100
2, 13971240, Note_on_c, 0, 54, 0
2, 13971240, Note_on_c, 0, 57, 100
2, 13971360, Note_on_c, 0, 57, 0
2, 13971360, Note_on_c, 0, 60, 100
2, 13971480, Note_on_c, 0, 60, 0
2, 13971480, Note_on_c, 0, 59, 100
2, 13971600, Note_on_c, 0, 59, 0
2, 13971600, Note_on_c, 0, 57, 100
2, 13971720, Note_on_c, 0, 57, 0
2, 13971720, Note_on_c, 0, 55, 100
2, 13971840, Note_on_c, 0, 55, 0
2, 13971840, Note_on_c, 0, 57, 100
2, 13971960, Note_on_c, 0, 57, 0
2, 13971960, Note_on_c, 0, 55, 100
2, 13972080, Note_on_c, 0, 55, 0
2, 13972080, Note_on_c, 0, 54, 100
2, 13972200, Note_on_c, 0, 54, 0
2, 13972200, Note_on_c, 0, 52, 100
2, 13972320, Note_on_c, 0, 52, 0
2, 13972320, Note_on_c, 0, 50, 100
2, 13972440, Note_on_c, 0, 50, 0
2, 13972440, Note_on_c, 0, 49, 100
2, 13972560, Note_on_c, 0, 49, 0
2, 13972560, Note_on_c, 0, 52, 100
2, 13972680, Note_on_c, 0, 52, 0
2, 13972680, Note_on_c, 0, 55, 100
2, 13972800, Note_on_c, 0, 55, 0
2, 13972800, Note_on_c, 0, 59, 100
2, 13972920, Note_on_c, 0, 59, 0
2, 13972920, Note_on_c, 0, 57, 100
2, 13973040, Note_on_c, 0, 57, 0
2, 13973040, Note_on_c, 0, 55, 100
2, 13973160, Note_on_c, 0, 55, 0
2, 13973160, Note_on_c, 0, 54, 100
2, 13973280, Note_on_c, 0, 54, 0
2, 13973280, Note_on_c, 0, 57, 100
2, 13973520, Note_on_c, 0, 57, 0
2, 13973520, Note_on_c, 0, 55, 100
2, 13973580, Note_on_c, 0, 55, 0
2, 13973580, Note_on_c, 0, 54, 100
2, 13973640, Note_on_c, 0, 54, 0
2, 13973640, Note_on_c, 0, 55, 100
2, 13973700, Note_on_c, 0, 55, 0
2, 13973700, Note_on_c, 0, 57, 100
2, 13973760, Note_on_c, 0, 57, 0
2, 13973760, Note_on_c, 0, 55, 100
2, 13974240, Note_on_c, 0, 55, 0
2, 13974240, Note_on_c, 0, 54, 100
2, 13974480, Note_on_c, 0, 54, 0
2, 13974480, Note_on_c, 0, 52, 100
2, 13974840, Note_on_c, 0, 52, 0
2, 13974840, Note_on_c, 0, 50, 100
2, 13974960, Note_on_c, 0, 50, 0
2, 13974960, Note_on_c, 0, 49, 100
2, 13975080, Note_on_c, 0, 49, 0
2, 13975080, Note_on_c, 0, 50, 100
2, 13975200, Note_on_c, 0, 50, 0
2, 13975200, Note_on_c, 0, 47, 100
2, 13975320, Note_on_c, 0, 47, 0
2, 13975320, Note_on_c, 0, 50, 100
2, 13975440, Note_on_c, 0, 50, 0
2, 13975440, Note_on_c, 0, 49, 100
2, 13975500, Note_on_c, 0, 49, 0
2, 13975500, Note_on_c, 0, 50, 100
2, 13975560, Note_on_c, 0, 50, 0
2, 13975560, Note_on_c, 0, 49, 100
2, 13975620, Note_on_c, 0, 49, 0
2, 13975620, Note_on_c, 0, 50, 100
2, 13975680, Note_on_c, 0, 50, 0
2, 13975680, Note_on_c, 0, 49, 100
2, 13975740, Note_on_c, 0, 49, 0
2, 13975740, Note_on_c, 0, 50, 100
2, 13975800, Note_on_c, 0, 50, 0
2, 13975800, Note_on_c, 0, 49, 100
2, 13975860, Note_on_c, 0, 49, 0
2, 13975860, Note_on_c, 0, 50, 100
2, 13975920, Note_on_c, 0, 50, 0
2, 13975920, Note_on_c, 0, 49, 100
2, 13975980, Note_on_c, 0, 49, 0
2, 13975980, Note_on_c, 0, 47, 100
2, 13976040, Note_on_c, 0, 47, 0
2, 13976040, Note_on_c, 0, 49, 100
2, 13976100, Note_on_c, 0, 49, 0
2, 13976100, Note_on_c, 0, 50, 100
2, 13976160, Note_on_c, 0, 50, 0
2, 13976160, Note_on_c, 0, 42, 100
2, 13976400, Note_on_c, 0, 42, 0
2, 13976400, Note_on_c, 0, 45, 100
2, 13976640, Note_on_c, 0, 45, 0
2, 13976640, Note_on_c, 0, 38, 100
2, 13976880, Note_on_c, 0, 38, 0
2, 13976880, Note_on_c, 0, 67, 100
2, 13979040, Note_on_c, 0, 67, 0
2, 13979040, Note_on_c, 0, 66, 100
2, 13979280, Note_on_c, 0, 66, 0
2, 13979280, Note_on_c, 0, 64, 100
2, 13979400, Note_on_c, 0, 64, 0
2, 13979400, Note_on_c, 0, 62, 100
2, 13979520, Note_on_c, 0, 62, 0
2, 13979520, Note_on_c, 0, 60, 100
2, 13979640, Note_on_c, 0, 60, 0
2, 13979640, Note_on_c, 0, 59, 100
2, 13979760, Note_on_c, 0, 59, 0
2, 13979760, Note_on_c, 0, 60, 100
2, 13979880, Note_on_c, 0, 60, 0
2, 13979880, Note_on_c, 0, 62, 100
2, 13980000, Note_on_c, 0, 62, 0
2, 13980000, Note_on_c, 0, 60, 100
2, 13980120, Note_on_c, 0, 60, 0
2, 13980120, Note_on_c, 0, 59, 100
2, 13980240, Note_on_c, 0, 59, 0
2, 13980240, Note_on_c, 0, 67, 100
2, 13980360, Note_on_c, 0, 67, 0
2, 13980360, Note_on_c, 0, 57, 100
2, 13980480, Note_on_c, 0, 57, 0
2, 13980480, Note_on_c, 0, 66, 100
2, 13981200, Note_on_c, 0, 66, 0
2, 13981200, Note_on_c, 0, 71, 100
2, 13981920, Note_on_c, 0, 71, 0
2, 13981920, Note_on_c, 0, 72, 100
2, 13982040, Note_on_c, 0, 72, 0
2, 13982040, Note_on_c, 0, 71, 100
2, 13982160, Note_on_c, 0, 71, 0
2, 13982160, Note_on_c, 0, 69, 100
2, 13982280, Note_on_c, 0, 69, 0
2, 13982280, Note_on_c, 0, 67, 100
2, 13982400, Note_on_c, 0, 67, 0
2, 13982400, Note_on_c, 0, 66, 100
2, 13982520, Note_on_c, 0, 66, 0
2, 13982520, Note_on_c, 0, 67, 100
2, 13982640, Note_on_c, 0, 67, 0
2, 13982640, Note_on_c, 0, 69, 100
2, 13982760, Note_on_c, 0, 69, 0
2, 13982760, Note_on_c, 0, 67, 100
2, 13982880, Note_on_c, 0, 67, 0
2, 13982880, Note_on_c, 0, 66, 100
2, 13983000, Note_on_c, 0, 66, 0
2, 13983000, Note_on_c, 0, 64, 100
2, 13983120, Note_on_c, 0, 64, 0
2, 13983120, Note_on_c, 0, 62, 100
2, 13983240, Note_on_c, 0, 62, 0
2, 13983240, Note_on_c, 0, 60, 100
2, 13983360, Note_on_c, 0, 60, 0
2, 13983360, Note_on_c, 0, 64, 100
2, 13983600, Note_on_c, 0, 64, 0
2, 13983600, Note_on_c, 0, 62, 100
2, 13983660, Note_on_c, 0, 62, 0
2, 13983660, Note_on_c, 0, 60, 100
2, 13983720, Note_on_c, 0, 60, 0
2, 13983720, Note_on_c, 0, 62, 100
2, 13983780, Note_on_c, 0, 62, 0
2, 13983780, Note_on_c, 0, 64, 100
2, 13983840, Note_on_c, 0, 64, 0
2, 13983840, Note_on_c, 0, 57, 100
2, 13984080, Note_on_c, 0, 57, 0
2, 13984080, Note_on_c, 0, 55, 100
2, 13984920, Note_on_c, 0, 55, 0
2, 13984920, Note_on_c, 0, 57, 100
2, 13985040, Note_on_c, 0, 57, 0
2, 13985040, Note_on_c, 0, 60, 100
2, 13985160, Note_on_c, 0, 60, 0
2, 13985160, Note_on_c, 0, 59, 100
2, 13985280, Note_on_c, 0, 59, 0
2, 13985280, Note_on_c, 0, 57, 100
2, 13985400, Note_on_c, 0, 57, 0
2, 13985400, Note_on_c, 0, 59, 100
2, 13985520, Note_on_c, 0, 59, 0
2, 13985520, Note_on_c, 0, 64, 100
2, 13985640, Note_on_c, 0, 64, 0
2, 13985640, Note_on_c, 0, 59, 100
2, 13985760, Note_on_c, 0, 59, 0
2, 13985760, Note_on_c, 0, 55, 100
2, 13985880, Note_on_c, 0, 55, 0
2, 13985880, Note_on_c, 0, 52, 100
2, 13986000, Note_on_c, 0, 52, 0
2, 13986000, Note_on_c, 0, 55, 100
2, 13986120, Note_on_c, 0, 55, 0
2, 13986120, Note_on_c, 0, 49, 100
2, 13986240, Note_on_c, 0, 49, 0
2, 13986240, Note_on_c, 0, 51, 100
2, 13986360, Note_on_c, 0, 51, 0
2, 13986360, Note_on_c, 0, 52, 100
2, 13986480, Note_on_c, 0, 52, 0
2, 13986480, Note_on_c, 0, 55, 100
2, 13986600, Note_on_c, 0, 55, 0
2, 13986600, Note_on_c, 0, 54, 100
2, 13986720, Note_on_c, 0, 54, 0
2, 13986720, Note_on_c, 0, 52, 100
2, 13986840, Note_on_c, 0, 52, 0
2, 13986840, Note_on_c, 0, 54, 100
2, 13986960, Note_on_c, 0, 54, 0
2, 13986960, Note_on_c, 0, 55, 100
2, 13987200, Note_on_c, 0, 55, 0
2, 13987200, Note_on_c, 0, 54, 100
2, 13987260, Note_on_c, 0, 54, 0
2, 13987260, Note_on_c, 0, 55, 100
2, 13987320, Note_on_c, 0, 55, 0
2, 13987320, Note_on_c, 0, 54, 100
2, 13987380, Note_on_c, 0, 54, 0
2, 13987380, Note_on_c, 0, 55, 100
2, 13987440, Note_on_c, 0, 55, 0
2, 13987440, Note_on_c, 0, 54, 100
2, 13987500, Note_on_c, 0, 54, 0
2, 13987500, Note_on_c, 0, 52, 100
2, 13987560, Note_on_c, 0, 52, 0
2, 13987560, Note_on_c, 0, 54, 100
2, 13987620, Note_on_c, 0, 54, 0
2, 13987620, Note_on_c, 0, 55, 100
2, 13987680, Note_on_c, 0, 55, 0
2, 13987680, Note_on_c, 0, 57, 100
2, 13987800, Note_on_c, 0, 57, 0
2, 13987800, Note_on_c, 0, 59, 100
2, 13987920, Note_on_c, 0, 59, 0
2, 13987920, Note_on_c, 0, 57, 100
2, 13988040, Note_on_c, 0, 57, 0
2, 13988040, Note_on_c, 0, 55, 100
2, 13988160, Note_on_c, 0, 55, 0
2, 13988160, Note_on_c, 0, 57, 100
2, 13988400, Note_on_c, 0, 57, 0
2, 13988400, Note_on_c, 0, 56, 100
2, 13988460, Note_on_c, 0, 56, 0
2, 13988460, Note_on_c, 0, 54, 100
2, 13988520, Note_on_c, 0, 54, 0
2, 13988520, Note_on_c, 0, 56, 100
2, 13988580, Note_on_c, 0, 56, 0
2, 13988580, Note_on_c, 0, 52, 100
2, 13989240, Note_on_c, 0, 52, 0
2, 13989240, Note_on_c, 0, 54, 100
2, 13989360, Note_on_c, 0, 54, 0
2, 13989360, Note_on_c, 0, 56, 100
2, 13989480, Note_on_c, 0, 56, 0
2, 13989480, Note_on_c, 0, 57, 100
2, 13989600, Note_on_c, 0, 57, 0
2, 13989600, Note_on_c, 0, 59, 100
2, 13989720, Note_on_c, 0, 59, 0
2, 13989720, Note_on_c, 0, 60, 100
2, 13989840, Note_on_c, 0, 60, 0
2, 13989840, Note_on_c, 0, 59, 100
2, 13989960, Note_on_c, 0, 59, 0
2, 13989960, Note_on_c, 0, 57, 100
2, 13990080, Note_on_c, 0, 57, 0
2, 13990080, Note_on_c, 0, 55, 100
2, 13990200, Note_on_c, 0, 55, 0
2, 13990200, Note_on_c, 0, 54, 100
2, 13990320, Note_on_c, 0, 54, 0
2, 13990320, Note_on_c, 0, 52, 100
2, 13990440, Note_on_c, 0, 52, 0
2, 13990440, Note_on_c, 0, 50, 100
2, 13990560, Note_on_c, 0, 50, 0
2, 13990560, Note_on_c, 0, 54, 100
2, 13990680, Note_on_c, 0, 54, 0
2, 13990680, Note_on_c, 0, 55, 100
2, 13990800, Note_on_c, 0, 55, 0
2, 13990800, Note_on_c, 0, 57, 100
2, 13990920, Note_on_c, 0, 57, 0
2, 13990920, Note_on_c, 0, 59, 100
2, 13991040, Note_on_c, 0, 59, 0
2, 13991040, Note_on_c, 0, 60, 100
2, 13991160, Note_on_c, 0, 60, 0
2, 13991160, Note_on_c, 0, 62, 100
2, 13991280, Note_on_c, 0, 62, 0
2, 13991280, Note_on_c, 0, 60, 100
2, 13991400, Note_on_c, 0, 60, 0
2, 13991400, Note_on_c, 0, 59, 100
2, 13991520, Note_on_c, 0, 59, 0
2, 13991520, Note_on_c, 0, 60, 100
2, 13991640, Note_on_c, 0, 60, 0
2, 13991640, Note_on_c, 0, 62, 100
2, 13991760, Note_on_c, 0, 62, 0
2, 13991760, Note_on_c, 0, 55, 100
2, 13992000, Note_on_c, 0, 55, 0
2, 13992000, Note_on_c, 0, 64, 100
2, 13992720, Note_on_c, 0, 64, 0
2, 13992720, Note_on_c, 0, 57, 100
2, 13993440, Note_on_c, 0, 57, 0
2, 13993440, Note_on_c, 0, 59, 100
2, 13993680, Note_on_c, 0, 59, 0
2, 13993680, Note_on_c, 0, 60, 100
2, 13993800, Note_on_c, 0, 60, 0
2, 13993800, Note_on_c, 0, 62, 100
2, 13993920, Note_on_c, 0, 62, 0
2, 13993920, Note_on_c, 0, 64, 100
2, 13994040, Note_on_c, 0, 64, 0
2, 13994040, Note_on_c, 0, 66, 100
2, 13994160, Note_on_c, 0, 66, 0
2, 13994160, Note_on_c, 0, 67, 100
2, 13994280, Note_on_c, 0, 67, 0
2, 13994280, Note_on_c, 0, 66, 100
2, 13994400, Note_on_c, 0, 66, 0
2, 13994400, Note_on_c, 0, 64, 100
2, 13994520, Note_on_c, 0, 64, 0
2, 13994520, Note_on_c, 0, 66, 100
2, 13994640, Note_on_c, 0, 66, 0
2, 13994640, Note_on_c, 0, 62, 100
2, 13994760, Note_on_c, 0, 62, 0
2, 13994760, Note_on_c, 0, 71, 100
2, 13994880, Note_on_c, 0, 71, 0
2, 13994880, Note_on_c, 0, 69, 100
2, 13995000, Note_on_c, 0, 69, 0
2, 13995000, Note_on_c, 0, 67, 100
2, 13995120, Note_on_c, 0, 67, 0
2, 13995120, Note_on_c, 0, 66, 100
2, 13995240, Note_on_c, 0, 66, 0
2, 13995240, Note_on_c, 0, 64, 100
2, 13995360, Note_on_c, 0, 64, 0
2, 13995360, Note_on_c, 0, 62, 100
2, 13995480, Note_on_c, 0, 62, 0
2, 13995480, Note_on_c, 0, 60, 100
2, 13995600, Note_on_c, 0, 60, 0
2, 13995600, Note_on_c, 0, 59, 100
2, 13996440, Note_on_c, 0, 59, 0
2, 13996440, Note_on_c, 0, 60, 100
2, 13996560, Note_on_c, 0, 60, 0
2, 13996560, Note_on_c, 0, 62, 100
2, 13996680, Note_on_c, 0, 62, 0
2, 13996680, Note_on_c, 0, 64, 100
2, 13996800, Note_on_c, 0, 64, 0
2, 13996800, Note_on_c, 0, 66, 100
2, 13996920, Note_on_c, 0, 66, 0
2, 13996920, Note_on_c, 0, 67, 100
2, 13997040, Note_on_c, 0, 67, 0
2, 13997040, Note_on_c, 0, 62, 100
2, 13997160, Note_on_c, 0, 62, 0
2, 13997160, Note_on_c, 0, 59, 100
2, 13997280, Note_on_c, 0, 59, 0
2, 13997280, Note_on_c, 0, 55, 100
2, 13997400, Note_on_c, 0, 55, 0
2, 13997400, Note_on_c, 0, 57, 100
2, 13997520, Note_on_c, 0, 57, 0
2, 13997520, Note_on_c, 0, 59, 100
2, 13997640, Note_on_c, 0, 59, 0
2, 13997640, Note_on_c, 0, 52, 100
2, 13997760, Note_on_c, 0, 52, 0
2, 13997760, Note_on_c, 0, 54, 100
2, 13997880, Note_on_c, 0, 54, 0
2, 13997880, Note_on_c, 0, 55, 100
2, 13998000, Note_on_c, 0, 55, 0
2, 13998000, Note_on_c, 0, 57, 100
2, 13998120, Note_on_c, 0, 57, 0
2, 13998120, Note_on_c, 0, 59, 100
2, 13998240, Note_on_c, 0, 59, 0
2, 13998240, Note_on_c, 0, 55, 100
2, 13998360, Note_on_c, 0, 55, 0
2, 13998360, Note_on_c, 0, 57, 100
2, 13998480, Note_on_c, 0, 57, 0
2, 13998480, Note_on_c, 0, 60, 100
2, 13998600, Note_on_c, 0, 60, 0
2, 13998600, Note_on_c, 0, 66, 100
2, 13998720, Note_on_c, 0, 66, 0
2, 13998720, Note_on_c, 0, 62, 100
2, 13999440, Note_on_c, 0, 62, 0
2, 13999440, Note_on_c, 0, 60, 100
2, 13999680, Note_on_c, 0, 60, 0
2, 13999680, Note_on_c, 0, 59, 100
2, 13999920, Note_on_c, 0, 59, 0
2, 13999920, Note_on_c, 0, 60, 100
2, 14000160, Note_on_c, 0, 60, 0
2, 14000160, Note_on_c, 0, 59, 100
2, 14000280, Note_on_c, 0, 59, 0
2, 14000280, Note_on_c, 0, 57, 100
2, 14000400, Note_on_c, 0, 57, 0
2, 14000400, Note_on_c, 0, 55, 100
2, 14000520, Note_on_c, 0, 55, 0
2, 14000520, Note_on_c, 0, 67, 100
2, 14002080, Note_on_c, 0, 67, 0
2, 14002080, Note_on_c, 0, 66, 100
2, 14002320, Note_on_c, 0, 66, 0
2, 14002320, Note_on_c, 0, 64, 100
2, 14002440, Note_on_c, 0, 64, 0
2, 14002440, Note_on_c, 0, 62, 100
2, 14002560, Note_on_c, 0, 62, 0
2, 14002560, Note_on_c, 0, 60, 100
2, 14002680, Note_on_c, 0, 60, 0
2, 14002680, Note_on_c, 0, 59, 100
2, 14002800, Note_on_c, 0, 59, 0
2, 14002800, Note_on_c, 0, 60, 100
2, 14002920, Note_on_c, 0, 60, 0
2, 14002920, Note_on_c, 0, 62, 100
2, 14003040, Note_on_c, 0, 62, 0
2, 14003040, Note_on_c, 0, 60, 100
2, 14003160, Note_on_c, 0, 60, 0
2, 14003160, Note_on_c, 0, 59, 100
2, 14003280, Note_on_c, 0, 59, 0
2, 14003280, Note_on_c, 0, 67, 100
2, 14003400, Note_on_c, 0, 67, 0
2, 14003400, Note_on_c, 0, 57, 100
2, 14003520, Note_on_c, 0, 57, 0
2, 14003520, Note_on_c, 0, 66, 100
2, 14004240, Note_on_c, 0, 66, 0
2, 14004240, Note_on_c, 0, 71, 100
2, 14004960, Note_on_c, 0, 71, 0
2, 14004960, Note_on_c, 0, 72, 100
2, 14005080, Note_on_c, 0, 72, 0
2, 14005080, Note_on_c, 0, 71, 100
2, 14005200, Note_on_c, 0, 71, 0
2, 14005200, Note_on_c, 0, 69, 100
2, 14005320, Note_on_c, 0, 69, 0
2, 14005320, Note_on_c, 0, 67, 100
2, 14005440, Note_on_c, 0, 67, 0
2, 14005440, Note_on_c, 0, 66, 100
2, 14005560, Note_on_c, 0, 66, 0
2, 14005560, Note_on_c, 0, 67, 100
2, 14005680, Note_on_c, 0, 67, 0
2, 14005680, Note_on_c, 0, 69, 100
2, 14005800, Note_on_c, 0, 69, 0
2, 14005800, Note_on_c, 0, 67, 100
2, 14005920, Note_on_c, 0, 67, 0
2, 14005920, Note_on_c, 0, 66, 100
2, 14006040, Note_on_c, 0, 66, 0
2, 14006040, Note_on_c, 0, 64, 100
2, 14006160, Note_on_c, 0, 64, 0
2, 14006160, Note_on_c, 0, 62, 100
2, 14006280, Note_on_c, 0, 62, 0
2, 14006280, Note_on_c, 0, 60, 100
2, 14006400, Note_on_c, 0, 60, 0
2, 14006400, Note_on_c, 0, 64, 100
2, 14006640, Note_on_c, 0, 64, 0
2, 14006640, Note_on_c, 0, 62, 100
2, 14006700, Note_on_c, 0, 62, 0
2, 14006700, Note_on_c, 0, 60, 100
2, 14006760, Note_on_c, 0, 60, 0
2, 14006760, Note_on_c, 0, 62, 100
2, 14006820, Note_on_c, 0, 62, 0
2, 14006820, Note_on_c, 0, 64, 100
2, 14006880, Note_on_c, 0, 64, 0
2, 14006880, Note_on_c, 0, 57, 100
2, 14007120, Note_on_c, 0, 57, 0
2, 14007120, Note_on_c, 0, 55, 100
2, 14007960, Note_on_c, 0, 55, 0
2, 14007960, Note_on_c, 0, 57, 100
2, 14008080, Note_on_c, 0, 57, 0
2, 14008080, Note_on_c, 0, 60, 100
2, 14008200, Note_on_c, 0, 60, 0
2, 14008200, Note_on_c, 0, 59, 100
2, 14008320, Note_on_c, 0, 59, 0
2, 14008320, Note_on_c, 0, 57, 100
2, 14008440, Note_on_c, 0, 57, 0
2, 14008440, Note_on_c, 0, 59, 100
2, 14008560, Note_on_c, 0, 59, 0
2, 14008560, Note_on_c, 0, 64, 100
2, 14008680, Note_on_c, 0, 64, 0
2, 14008680, Note_on_c, 0, 59, 100
2, 14008800, Note_on_c, 0, 59, 0
2, 14008800, Note_on_c, 0, 55, 100
2, 14008920, Note_on_c, 0, 55, 0
2, 14008920, Note_on_c, 0, 52, 100
2, 14009040, Note_on_c, 0, 52, 0
2, 14009040, Note_on_c, 0, 55, 100
2, 14009160, Note_on_c, 0, 55, 0
2, 14009160, Note_on_c, 0, 49, 100
2, 14009280, Note_on_c, 0, 49, 0
2, 14009280, Note_on_c, 0, 51, 100
2, 14009400, Note_on_c, 0, 51, 0
2, 14009400, Note_on_c, 0, 52, 100
2, 14009520, Note_on_c, 0, 52, 0
2, 14009520, Note_on_c, 0, 55, 100
2, 14009640, Note_on_c, 0, 55, 0
2, 14009640, Note_on_c, 0, 54, 100
2, 14009760, Note_on_c, 0, 54, 0
2, 14009760, Note_on_c, 0, 52, 100
2, 14009880, Note_on_c, 0, 52, 0
2, 14009880, Note_on_c, 0, 54, 100
2, 14010000, Note_on_c, 0, 54, 0
2, 14010000, Note_on_c, 0, 55, 100
2, 14010240, Note_on_c, 0, 55, 0
2, 14010240, Note_on_c, 0, 54, 100
2, 14010300, Note_on_c, 0, 54, 0
2, 14010300, Note_on_c, 0, 55, 100
2, 14010360, Note_on_c, 0, 55, 0
2, 14010360, Note_on_c, 0, 54, 100
2, 14010420, Note_on_c, 0, 54, 0
2, 14010420, Note_on_c, 0, 55, 100
2, 14010480, Note_on_c, 0, 55, 0
2, 14010480, Note_on_c, 0, 54, 100
2, 14010540, Note_on_c, 0, 54, 0
2, 14010540, Note_on_c, 0, 52, 100
2, 14010600, Note_on_c, 0, 52, 0
2, 14010600, Note_on_c, 0, 54, 100
2, 14010660, Note_on_c, 0, 54, 0
2, 14010660, Note_on_c, 0, 55, 100
2, 14010720, Note_on_c, 0, 55, 0
2, 14010720, Note_on_c, 0, 57, 100
2, 14010840, Note_on_c, 0, 57, 0
2, 14010840, Note_on_c, 0, 59, 100
2, 14010960, Note_on_c, 0, 59, 0
2, 14010960, Note_on_c, 0, 57, 100
2, 14011080, Note_on_c, 0, 57, 0
2, 14011080, Note_on_c, 0, 55, 100
2, 14011200, Note_on_c, 0, 55, 0
2, 14011200, Note_on_c, 0, 57, 100
2, 14011440, Note_on_c, 0, 57, 0
2, 14011440, Note_on_c, 0, 56, 100
2, 14011500, Note_on_c, 0, 56, 0
2, 14011500, Note_on_c, 0, 54, 100
2, 14011560, Note_on_c, 0, 54, 0
2, 14011560, Note_on_c, 0, 56, 100
2, 14011620, Note_on_c, 0, 56, 0
2, 14011620, Note_on_c, 0, 52, 100
2, 14012280, Note_on_c, 0, 52, 0
2, 14012280, Note_on_c, 0, 54, 100
2, 14012400, Note_on_c, 0, 54, 0
2, 14012400, Note_on_c, 0, 56, 100
2, 14012520, Note_on_c, 0, 56, 0
2, 14012520, Note_on_c, 0, 57, 100
2, 14012640, Note_on_c, 0, 57, 0
2, 14012640, Note_on_c, 0, 59, 100
2, 14012760, Note_on_c, 0, 59, 0
2, 14012760, Note_on_c, 0, 60, 100
2, 14012880, Note_on_c, 0, 60, 0
2, 14012880, Note_on_c, 0, 59, 100
2, 14013000, Note_on_c, 0, 59, 0
2, 14013000, Note_on_c, 0, 57, 100
2, 14013120, Note_on_c, 0, 57, 0
2, 14013120, Note_on_c, 0, 55, 100
2, 14013240, Note_on_c, 0, 55, 0
2, 14013240, Note_on_c, 0, 54, 100
2, 14013360, Note_on_c, 0, 54, 0
2, 14013360, Note_on_c, 0, 52, 100
2, 14013480, Note_on_c, 0, 52, 0
2, 14013480, Note_on_c, 0, 50, 100
2, 14013600, Note_on_c, 0, 50, 0
2, 14013600, Note_on_c, 0, 54, 100
2, 14013720, Note_on_c, 0, 54, 0
2, 14013720, Note_on_c, 0, 55, 100
2, 14013840, Note_on_c, 0, 55, 0
2, 14013840, Note_on_c, 0, 57, 100
2, 14013960, Note_on_c, 0, 57, 0
2, 14013960, Note_on_c, 0, 59, 100
2, 14014080, Note_on_c, 0, 59, 0
2, 14014080, Note_on_c, 0, 60, 100
2, 14014200, Note_on_c, 0, 60, 0
2, 14014200, Note_on_c, 0, 62, 100
2, 14014320, Note_on_c, 0, 62, 0
2, 14014320, Note_on_c, 0, 60, 100
2, 14014440, Note_on_c, 0, 60, 0
2, 14014440, Note_on_c, 0, 59, 100
2, 14014560, Note_on_c, 0, 59, 0
2, 14014560, Note_on_c, 0, 60, 100
2, 14014680, Note_on_c, 0, 60, 0
2, 14014680, Note_on_c, 0, 62, 100
2, 14014800, Note_on_c, 0, 62, 0
2, 14014800, Note_on_c, 0, 55, 100
2, 14015040, Note_on_c, 0, 55, 0
2, 14015040, Note_on_c, 0, 64, 100
2, 14015760, Note_on_c, 0, 64, 0
2, 14015760, Note_on_c, 0, 57, 100
2, 14016480, Note_on_c, 0, 57, 0
2, 14016480, Note_on_c, 0, 59, 100
2, 14016720, Note_on_c, 0, 59, 0
2, 14016720, Note_on_c, 0, 60, 100
2, 14016840, Note_on_c, 0, 60, 0
2, 14016840, Note_on_c, 0, 62, 100
2, 14016960, Note_on_c, 0, 62, 0
2, 14016960, Note_on_c, 0, 64, 100
2, 14017080, Note_on_c, 0, 64, 0
2, 14017080, Note_on_c, 0, 66, 100
2, 14017200, Note_on_c, 0, 66, 0
2, 14017200, Note_on_c, 0, 67, 100
2, 14017320, Note_on_c, 0, 67, 0
2, 14017320, Note_on_c, 0, 66, 100
2, 14017440, Note_on_c, 0, 66, 0
2, 14017440, Note_on_c, 0, 64, 100
2, 14017560, Note_on_c, 0, 64, 0
2, 14017560, Note_on_c, 0, 66, 100
2, 14017680, Note_on_c, 0, 66, 0
2, 14017680, Note_on_c, 0, 62, 100
2, 14017800, Note_on_c, 0, 62, 0
2, 14017800, Note_on_c, 0, 71, 100
2, 14017920, Note_on_c, 0, 71, 0
2, 14017920, Note_on_c, 0, 69, 100
2, 14018040, Note_on_c, 0, 69, 0
2, 14018040, Note_on_c, 0, 67, 100
2, 14018160, Note_on_c, 0, 67, 0
2, 14018160, Note_on_c, 0, 66, 100
2, 14018280, Note_on_c, 0, 66, 0
2, 14018280, Note_on_c, 0, 64, 100
2, 14018400, Note_on_c, 0, 64, 0
2, 14018400, Note_on_c, 0, 62, 100
2, 14018520, Note_on_c, 0, 62, 0
2, 14018520, Note_on_c, 0, 60, 100
2, 14018640, Note_on_c, 0, 60, 0
2, 14018640, Note_on_c, 0, 59, 100
2, 14019480, Note_on_c, 0, 59, 0
2, 14019480, Note_on_c, 0, 60, 100
2, 14019600, Note_on_c, 0, 60, 0
2, 14019600, Note_on_c, 0, 62, 100
2, 14019720, Note_on_c, 0, 62, 0
2, 14019720, Note_on_c, 0, 64, 100
2, 14019840, Note_on_c, 0, 64, 0
2, 14019840, Note_on_c, 0, 66, 100
2, 14019960, Note_on_c, 0, 66, 0
2, 14019960, Note_on_c, 0, 67, 100
2, 14020080, Note_on_c, 0, 67, 0
2, 14020080, Note_on_c, 0, 62, 100
2, 14020200, Note_on_c, 0, 62, 0
2, 14020200, Note_on_c, 0, 59, 100
2, 14020320, Note_on_c, 0, 59, 0
2, 14020320, Note_on_c, 0, 55, 100
2, 14020440, Note_on_c, 0, 55, 0
2, 14020440, Note_on_c, 0, 57, 100
2, 14020560, Note_on_c, 0, 57, 0
2, 14020560, Note_on_c, 0, 59, 100
2, 14020680, Note_on_c, 0, 59, 0
2, 14020680, Note_on_c, 0, 52, 100
2, 14020800, Note_on_c, 0, 52, 0
2, 14020800, Note_on_c, 0, 54, 100
2, 14020920, Note_on_c, 0, 54, 0
2, 14020920, Note_on_c, 0, 55, 100
2, 14021040, Note_on_c, 0, 55, 0
2, 14021040, Note_on_c, 0, 57, 100
2, 14021160, Note_on_c, 0, 57, 0
2, 14021160, Note_on_c, 0, 59, 100
2, 14021280, Note_on_c, 0, 59, 0
2, 14021280, Note_on_c, 0, 55, 100
2, 14021400, Note_on_c, 0, 55, 0
2, 14021400, Note_on_c, 0, 57, 100
2, 14021520, Note_on_c, 0, 57, 0
2, 14021520, Note_on_c, 0, 60, 100
2, 14021640, Note_on_c, 0, 60, 0
2, 14021640, Note_on_c, 0, 66, 100
2, 14021760, Note_on_c, 0, 66, 0
2, 14021760, Note_on_c, 0, 62, 100
2, 14022480, Note_on_c, 0, 62, 0
2, 14022480, Note_on_c, 0, 60, 100
2, 14022720, Note_on_c, 0, 60, 0
2, 14022720, Note_on_c, 0, 59, 100
2, 14022960, Note_on_c, 0, 59, 0
2, 14022960, Note_on_c, 0, 60, 100
2, 14023200, Note_on_c, 0, 60, 0
2, 14023200, Note_on_c, 0, 59, 100
2, 14023320, Note_on_c, 0, 59, 0
2, 14023320, Note_on_c, 0, 57, 100
2, 14023440, Note_on_c, 0, 57, 0
2, 14023440, Note_on_c, 0, 55, 100
2, 14023560, Note_on_c, 0, 55, 0
2, 14023560, Note_on_c, 0, 67, 100
2, 14029500, Note_on_c, 0, 67, 0
2, 14029500, Note_on_c, 0, 69, 100
2, 14029560, Note_on_c, 0, 69, 0
2, 14029560, Note_on_c, 0, 67, 100
2, 14029620, Note_on_c, 0, 67, 0
2, 14029620, Note_on_c, 0, 69, 100
2, 14029680, Note_on_c, 0, 69, 0
2, 14029680, Note_on_c, 0, 67, 100
2, 14029740, Note_on_c, 0, 67, 0
2, 14029740, Note_on_c, 0, 69, 100
2, 14029800, Note_on_c, 0, 69, 0
2, 14029800, Note_on_c, 0, 67, 100
2, 14029980, Note_on_c, 0, 67, 0
2, 14029980, Note_on_c, 0, 69, 100
2, 14030040, Note_on_c, 0, 69, 0
2, 14030040, Note_on_c, 0, 67, 100
2, 14030100, Note_on_c, 0, 67, 0
2, 14030100, Note_on_c, 0, 69, 100
2, 14030160, Note_on_c, 0, 69, 0
2, 14030160, Note_on_c, 0, 67, 100
2, 14030220, Note_on_c, 0, 67, 0
2, 14030220, Note_on_c, 0, 69, 100
2, 14030280, Note_on_c, 0, 69, 0
2, 14030280, Note_on_c, 0, 67, 100
2, 14030460, Note_on_c, 0, 67, 0
2, 14030460, Note_on_c, 0, 69, 100
2, 14030520, Note_on_c, 0, 69, 0
2, 14030520, Note_on_c, 0, 67, 100
2, 14030580, Note_on_c, 0, 67, 0
2, 14030580, Note_on_c, 0, 69, 100
2, 14030640, Note_on_c, 0, 69, 0
2, 14030640, Note_on_c, 0, 67, 100
2, 14030700, Note_on_c, 0, 67, 0
2, 14030700, Note_on_c, 0, 69, 100
2, 14030760, Note_on_c, 0, 69, 0
2, 14030760, Note_on_c, 0, 67, 100
2, 14030940, Note_on_c, 0, 67, 0
2, 14030940, Note_on_c, 0, 69, 100
2, 14031000, Note_on_c, 0, 69, 0
2, 14031000, Note_on_c, 0, 67, 100
2, 14031060, Note_on_c, 0, 67, 0
2, 14031060, Note_on_c, 0, 69, 100
2, 14031120, Note_on_c, 0, 69, 0
2, 14031120, Note_on_c, 0, 67, 100
2, 14031180, Note_on_c, 0, 67, 0
2, 14031180, Note_on_c, 0, 69, 100
2, 14031240, Note_on_c, 0, 69, 0
2, 14031240, Note_on_c, 0, 67, 100
2, 14031420, Note_on_c, 0, 67, 0
2, 14031420, Note_on_c, 0, 69, 100
2, 14031480, Note_on_c, 0, 69, 0
2, 14031480, Note_on_c, 0, 67, 100
2, 14031540, Note_on_c, 0, 67, 0
2, 14031540, Note_on_c, 0, 69, 100
2, 14031600, Note_on_c, 0, 69, 0
2, 14031600, Note_on_c, 0, 67, 100
2, 14031660, Note_on_c, 0, 67, 0
2, 14031660, Note_on_c, 0, 69, 100
2, 14031720, Note_on_c, 0, 69, 0
2, 14031720, Note_on_c, 0, 67, 100
2, 14031900, Note_on_c, 0, 67, 0
2, 14031900, Note_on_c, 0, 69, 100
2, 14031960, Note_on_c, 0, 69, 0
2, 14031960, Note_on_c, 0, 67, 100
2, 14032020, Note_on_c, 0, 67, 0
2, 14032020, Note_on_c, 0, 69, 100
2, 14032080, Note_on_c, 0, 69, 0
2, 14032080, Note_on_c, 0, 67, 100
2, 14032140, Note_on_c, 0, 67, 0
2, 14032140, Note_on_c, 0, 69, 100
2, 14032200, Note_on_c, 0, 69, 0
2, 14032200, Note_on_c, 0, 67, 100
2, 14032380, Note_on_c, 0, 67, 0
2, 14032380, Note_on_c, 0, 69, 100
2, 14032440, Note_on_c, 0, 69, 0
2, 14032440, Note_on_c, 0, 67, 100
2, 14032500, Note_on_c, 0, 67, 0
2, 14032500, Note_on_c, 0, 69, 100
2, 14032560, Note_on_c, 0, 69, 0
2, 14032560, Note_on_c, 0, 67, 100
2, 14032620, Note_on_c, 0, 67, 0
2, 14032620, Note_on_c, 0, 69, 100
2, 14032680, Note_on_c, 0, 69, 0
2, 14032680, Note_on_c, 0, 67, 100
2, 14032860, Note_on_c, 0, 67, 0
2, 14032860, Note_on_c, 0, 69, 100
2, 14032920, Note_on_c, 0, 69, 0
2, 14032920, Note_on_c, 0, 67, 100
2, 14032980, Note_on_c, 0, 67, 0
2, 14032980, Note_on_c, 0, 69, 100
2, 14033040, Note_on_c, 0, 69, 0
2, 14033040, Note_on_c, 0, 67, 100
2, 14033100, Note_on_c, 0, 67, 0
2, 14033100, Note_on_c, 0, 69, 100
2, 14033160, Note_on_c, 0, 69, 0
2, 14033160, Note_on_c, 0, 67, 100
2, 14033340, Note_on_c, 0, 67, 0
2, 14033340, Note_on_c, 0, 69, 100
2, 14033400, Note_on_c, 0, 69, 0
2, 14033400, Note_on_c, 0, 67, 100
2, 14033460, Note_on_c, 0, 67, 0
2, 14033460, Note_on_c, 0, 69, 100
2, 14033520, Note_on_c, 0, 69, 0
2, 14033520, Note_on_c, 0, 67, 100
2, 14033580, Note_on_c, 0, 67, 0
2, 14033580, Note_on_c, 0, 69, 100
2, 14033640, Note_on_c, 0, 69, 0
2, 14033640, Note_on_c, 0, 67, 100
2, 14033820, Note_on_c, 0, 67, 0
2, 14033820, Note_on_c, 0, 69, 100
2, 14033880, Note_on_c, 0, 69, 0
2, 14033880, Note_on_c, 0, 67, 100
2, 14033940, Note_on_c, 0, 67, 0
2, 14033940, Note_on_c, 0, 69, 100
2, 14034000, Note_on_c, 0, 69, 0
2, 14034000, Note_on_c, 0, 67, 100
2, 14034060, Note_on_c, 0, 67, 0
2, 14034060, Note_on_c, 0, 69, 100
2, 14034120, Note_on_c, 0, 69, 0
2, 14034120, Note_on_c, 0, 67, 100
2, 14034300, Note_on_c, 0, 67, 0
2, 14034300, Note_on_c, 0, 69, 100
2, 14034360, Note_on_c, 0, 69, 0
2, 14034360, Note_on_c, 0, 67, 100
2, 14034420, Note_on_c, 0, 67, 0
2, 14034420, Note_on_c, 0, 69, 100
2, 14034480, Note_on_c, 0, 69, 0
2, 14034480, Note_on_c, 0, 67, 100
2, 14034540, Note_on_c, 0, 67, 0
2, 14034540, Note_on_c, 0, 69, 100
2, 14034600, Note_on_c, 0, 69, 0
2, 14034600, Note_on_c, 0, 67, 100
2, 14034780, Note_on_c, 0, 67, 0
2, 14034780, Note_on_c, 0, 69, 100
2, 14034840, Note_on_c, 0, 69, 0
2, 14034840, Note_on_c, 0, 67, 100
2, 14034900, Note_on_c, 0, 67, 0
2, 14034900, Note_on_c, 0, 69, 100
2, 14034960, Note_on_c, 0, 69, 0
2, 14034960, Note_on_c, 0, 67, 100
2, 14035020, Note_on_c, 0, 67, 0
2, 14035020, Note_on_c, 0, 69, 100
2, 14035080, Note_on_c, 0, 69, 0
2, 14035080, Note_on_c, 0, 67, 100
2, 14035140, Note_on_c, 0, 67, 0
2, 14035140, Note_on_c, 0, 55, 100
2, 14035200, Note_on_c, 0, 55, 0
2, 14035200, Note_on_c, 0, 59, 100
2, 14035320, Note_on_c, 0, 59, 0
2, 14035320, Note_on_c, 0, 57, 100
2, 14035440, Note_on_c, 0, 57, 0
2, 14035440, Note_on_c, 0, 59, 100
2, 14035560, Note_on_c, 0, 59, 0
2, 14035560, Note_on_c, 0, 64, 100
2, 14035680, Note_on_c, 0, 64, 0
2, 14035680, Note_on_c, 0, 67, 100
2, 14035800, Note_on_c, 0, 67, 0
2, 14035800, Note_on_c, 0, 66, 100
2, 14035920, Note_on_c, 0, 66, 0
2, 14035920, Note_on_c, 0, 67, 100
2, 14036040, Note_on_c, 0, 67, 0
2, 14036040, Note_on_c, 0, 71, 100
2, 14036160, Note_on_c, 0, 71, 0
2, 14036160, Note_on_c, 0, 67, 100
2, 14036280, Note_on_c, 0, 67, 0
2, 14036280, Note_on_c, 0, 64, 100
2, 14036400, Note_on_c, 0, 64, 0
2, 14036400, Note_on_c, 0, 61, 100
2, 14036520, Note_on_c, 0, 61, 0
2, 14036520, Note_on_c, 0, 54, 100
2, 14036640, Note_on_c, 0, 54, 0
2, 14036640, Note_on_c, 0, 57, 100
2, 14036760, Note_on_c, 0, 57, 0
2, 14036760, Note_on_c, 0, 55, 100
2, 14036880, Note_on_c, 0, 55, 0
2, 14036880, Note_on_c, 0, 57, 100
2, 14037000, Note_on_c, 0, 57, 0
2, 14037000, Note_on_c, 0, 62, 100
2, 14037120, Note_on_c, 0, 62, 0
2, 14037120, Note_on_c, 0, 66, 100
2, 14037240, Note_on_c, 0, 66, 0
2, 14037240, Note_on_c, 0, 64, 100
2, 14037360, Note_on_c, 0, 64, 0
2, 14037360, Note_on_c, 0, 66, 100
2, 14037480, Note_on_c, 0, 66, 0
2, 14037480, Note_on_c, 0, 69, 100
2, 14037600, Note_on_c, 0, 69, 0
2, 14037600, Note_on_c, 0, 66, 100
2, 14037720, Note_on_c, 0, 66, 0
2, 14037720, Note_on_c, 0, 62, 100
2, 14037840, Note_on_c, 0, 62, 0
2, 14037840, Note_on_c, 0, 59, 100
2, 14037960, Note_on_c, 0, 59, 0
2, 14037960, Note_on_c, 0, 52, 100
2, 14038080, Note_on_c, 0, 52, 0
2, 14038080, Note_on_c, 0, 55, 100
2, 14038200, Note_on_c, 0, 55, 0
2, 14038200, Note_on_c, 0, 54, 100
2, 14038320, Note_on_c, 0, 54, 0
2, 14038320, Note_on_c, 0, 55, 100
2, 14038440, Note_on_c, 0, 55, 0
2, 14038440, Note_on_c, 0, 59, 100
2, 14038560, Note_on_c, 0, 59, 0
2, 14038560, Note_on_c, 0, 64, 100
2, 14038680, Note_on_c, 0, 64, 0
2, 14038680, Note_on_c, 0, 63, 100
2, 14038800, Note_on_c, 0, 63, 0
2, 14038800, Note_on_c, 0, 64, 100
2, 14038920, Note_on_c, 0, 64, 0
2, 14038920, Note_on_c, 0, 67, 100
2, 14039040, Note_on_c, 0, 67, 0
2, 14039040, Note_on_c, 0, 64, 100
2, 14039160, Note_on_c, 0, 64, 0
2, 14039160, Note_on_c, 0, 59, 100
2, 14039280, Note_on_c, 0, 59, 0
2, 14039280, Note_on_c, 0, 55, 100
2, 14039400, Note_on_c, 0, 55, 0
2, 14039400, Note_on_c, 0, 57, 100
2, 14039520, Note_on_c, 0, 57, 0
2, 14039520, Note_on_c, 0, 64, 100
2, 14039640, Note_on_c, 0, 64, 0
2, 14039640, Note_on_c, 0, 62, 100
2, 14039760, Note_on_c, 0, 62, 0
2, 14039760, Note_on_c, 0, 64, 100
2, 14039880, Note_on_c, 0, 64, 0
2, 14039880, Note_on_c, 0, 67, 100
2, 14040000, Note_on_c, 0, 67, 0
2, 14040000, Note_on_c, 0, 69, 100
2, 14040120, Note_on_c, 0, 69, 0
2, 14040120, Note_on_c, 0, 67, 100
2, 14040240, Note_on_c, 0, 67, 0
2, 14040240, Note_on_c, 0, 69, 100
2, 14040360, Note_on_c, 0, 69, 0
2, 14040360, Note_on_c, 0, 67, 100
2, 14040480, Note_on_c, 0, 67, 0
2, 14040480, Note_on_c, 0, 64, 100
2, 14040600, Note_on_c, 0, 64, 0
2, 14040600, Note_on_c, 0, 61, 100
2, 14040720, Note_on_c, 0, 61, 0
2, 14040720, Note_on_c, 0, 57, 100
2, 14040840, Note_on_c, 0, 57, 0
2, 14040840, Note_on_c, 0, 54, 100
2, 14041020, Note_on_c, 0, 54, 0
2, 14041020, Note_on_c, 0, 55, 100
2, 14041080, Note_on_c, 0, 55, 0
2, 14041080, Note_on_c, 0, 54, 100
2, 14041140, Note_on_c, 0, 54, 0
2, 14041140, Note_on_c, 0, 55, 100
2, 14041200, Note_on_c, 0, 55, 0
2, 14041200, Note_on_c, 0, 54, 100
2, 14041260, Note_on_c, 0, 54, 0
2, 14041260, Note_on_c, 0, 55, 100
2, 14041320, Note_on_c, 0, 55, 0
2, 14041320, Note_on_c, 0, 54, 100
2, 14041500, Note_on_c, 0, 54, 0
2, 14041500, Note_on_c, 0, 55, 100
2, 14041560, Note_on_c, 0, 55, 0
2, 14041560, Note_on_c, 0, 54, 100
2, 14041620, Note_on_c, 0, 54, 0
2, 14041620, Note_on_c, 0, 55, 100
2, 14041680, Note_on_c, 0, 55, 0
2, 14041680, Note_on_c, 0, 54, 100
2, 14041740, Note_on_c, 0, 54, 0
2, 14041740, Note_on_c, 0, 55, 100
2, 14041800, Note_on_c, 0, 55, 0
2, 14041800, Note_on_c, 0, 54, 100
2, 14041980, Note_on_c, 0, 54, 0
2, 14041980, Note_on_c, 0, 55, 100
2, 14042040, Note_on_c, 0, 55, 0
2, 14042040, Note_on_c, 0, 54, 100
2, 14042100, Note_on_c, 0, 54, 0
2, 14042100, Note_on_c, 0, 55, 100
2, 14042160, Note_on_c, 0, 55, 0
2, 14042160, Note_on_c, 0, 54, 100
2, 14042220, Note_on_c, 0, 54, 0
2, 14042220, Note_on_c, 0, 55, 100
2, 14042280, Note_on_c, 0, 55, 0
2, 14042280, Note_on_c, 0, 54, 100
2, 14042460, Note_on_c, 0, 54, 0
2, 14042460, Note_on_c, 0, 55, 100
2, 14042520, Note_on_c, 0, 55, 0
2, 14042520, Note_on_c, 0, 54, 100
2, 14042580, Note_on_c, 0, 54, 0
2, 14042580, Note_on_c, 0, 55, 100
2, 14042640, Note_on_c, 0, 55, 0
2, 14042640, Note_on_c, 0, 54, 100
2, 14042700, Note_on_c, 0, 54, 0
2, 14042700, Note_on_c, 0, 55, 100
2, 14042760, Note_on_c, 0, 55, 0
2, 14042760, Note_on_c, 0, 54, 100
2, 14042940, Note_on_c, 0, 54, 0
2, 14042940, Note_on_c, 0, 55, 100
2, 14043000, Note_on_c, 0, 55, 0
2, 14043000, Note_on_c, 0, 54, 100
2, 14043060, Note_on_c, 0, 54, 0
2, 14043060, Note_on_c, 0, 55, 100
2, 14043120, Note_on_c, 0, 55, 0
2, 14043120, Note_on_c, 0, 54, 100
2, 14043180, Note_on_c, 0, 54, 0
2, 14043180, Note_on_c, 0, 55, 100
2, 14043240, Note_on_c, 0, 55, 0
2, 14043240, Note_on_c, 0, 54, 100
2, 14043420, Note_on_c, 0, 54, 0
2, 14043420, Note_on_c, 0, 55, 100
2, 14043480, Note_on_c, 0, 55, 0
2, 14043480, Note_on_c, 0, 54, 100
2, 14043540, Note_on_c, 0, 54, 0
2, 14043540, Note_on_c, 0, 55, 100
2, 14043600, Note_on_c, 0, 55, 0
2, 14043600, Note_on_c, 0, 54, 100
2, 14043660, Note_on_c, 0, 54, 0
2, 14043660, Note_on_c, 0, 55, 100
2, 14043720, Note_on_c, 0, 55, 0
2, 14043720, Note_on_c, 0, 54, 100
2, 14043900, Note_on_c, 0, 54, 0
2, 14043900, Note_on_c, 0, 55, 100
2, 14043960, Note_on_c, 0, 55, 0
2, 14043960, Note_on_c, 0, 54, 100
2, 14044020, Note_on_c, 0, 54, 0
2, 14044020, Note_on_c, 0, 55, 100
2, 14044080, Note_on_c, 0, 55, 0
2, 14044080, Note_on_c, 0, 54, 100
2, 14044140, Note_on_c, 0, 54, 0
2, 14044140, Note_on_c, 0, 55, 100
2, 14044200, Note_on_c, 0, 55, 0
2, 14044200, Note_on_c, 0, 54, 100
2, 14044380, Note_on_c, 0, 54, 0
2, 14044380, Note_on_c, 0, 55, 100
2, 14044440, Note_on_c, 0, 55, 0
2, 14044440, Note_on_c, 0, 54, 100
2, 14044500, Note_on_c, 0, 54, 0
2, 14044500, Note_on_c, 0, 55, 100
2, 14044560, Note_on_c, 0, 55, 0
2, 14044560, Note_on_c, 0, 54, 100
2, 14044620, Note_on_c, 0, 54, 0
2, 14044620, Note_on_c, 0, 55, 100
2, 14044680, Note_on_c, 0, 55, 0
2, 14044680, Note_on_c, 0, 54, 100
2, 14044740, Note_on_c, 0, 54, 0
2, 14044740, Note_on_c, 0, 52, 100
2, 14044860, Note_on_c, 0, 52, 0
2, 14044860, Note_on_c, 0, 54, 100
2, 14044920, Note_on_c, 0, 54, 0
2, 14044920, Note_on_c, 0, 52, 100
2, 14044980, Note_on_c, 0, 52, 0
2, 14044980, Note_on_c, 0, 54, 100
2, 14045040, Note_on_c, 0, 54, 0
2, 14045040, Note_on_c, 0, 52, 100
2, 14045100, Note_on_c, 0, 52, 0
2, 14045100, Note_on_c, 0, 54, 100
2, 14045160, Note_on_c, 0, 54, 0
2, 14045160, Note_on_c, 0, 52, 100
2, 14045220, Note_on_c, 0, 52, 0
2, 14045220, Note_on_c, 0, 38, 100
2, 14045280, Note_on_c, 0, 38, 0
2, 14045280, Note_on_c, 0, 42, 100
2, 14045400, Note_on_c, 0, 42, 0
2, 14045400, Note_on_c, 0, 40, 100
2, 14045520, Note_on_c, 0, 40, 0
2, 14045520, Note_on_c, 0, 42, 100
2, 14045640, Note_on_c, 0, 42, 0
2, 14045640, Note_on_c, 0, 45, 100
2, 14045760, Note_on_c, 0, 45, 0
2, 14045760, Note_on_c, 0, 50, 100
2, 14045880, Note_on_c, 0, 50, 0
2, 14045880, Note_on_c, 0, 49, 100
2, 14046000, Note_on_c, 0, 49, 0
2, 14046000, Note_on_c, 0, 50, 100
2, 14046120, Note_on_c, 0, 50, 0
2, 14046120, Note_on_c, 0, 54, 100
2, 14046240, Note_on_c, 0, 54, 0
2, 14046240, Note_on_c, 0, 67, 100
2, 14052540, Note_on_c, 0, 67, 0
2, 14052540, Note_on_c, 0, 69, 100
2, 14052600, Note_on_c, 0, 69, 0
2, 14052600, Note_on_c, 0, 67, 100
2, 14052660, Note_on_c, 0, 67, 0
2, 14052660, Note_on_c, 0, 69, 100
2, 14052720, Note_on_c, 0, 69, 0
2, 14052720, Note_on_c, 0, 67, 100
2, 14052780, Note_on_c, 0, 67, 0
2, 14052780, Note_on_c, 0, 69, 100
2, 14052840, Note_on_c, 0, 69, 0
2, 14052840, Note_on_c, 0, 67, 100
2, 14053020, Note_on_c, 0, 67, 0
2, 14053020, Note_on_c, 0, 69, 100
2, 14053080, Note_on_c, 0, 69, 0
2, 14053080, Note_on_c, 0, 67, 100
2, 14053140, Note_on_c, 0, 67, 0
2, 14053140, Note_on_c, 0, 69, 100
2, 14053200, Note_on_c, 0, 69, 0
2, 14053200, Note_on_c, 0, 67, 100
2, 14053260, Note_on_c, 0, 67, 0
2, 14053260, Note_on_c, 0, 69, 100
2, 14053320, Note_on_c, 0, 69, 0
2, 14053320, Note_on_c, 0, 67, 100
2, 14053500, Note_on_c, 0, 67, 0
2, 14053500, Note_on_c, 0, 69, 100
2, 14053560, Note_on_c, 0, 69, 0
2, 14053560, Note_on_c, 0, 67, 100
2, 14053620, Note_on_c, 0, 67, 0
2, 14053620, Note_on_c, 0, 69, 100
2, 14053680, Note_on_c, 0, 69, 0
2, 14053680, Note_on_c, 0, 67, 100
2, 14053740, Note_on_c, 0, 67, 0
2, 14053740, Note_on_c, 0, 69, 100
2, 14053800, Note_on_c, 0, 69, 0
2, 14053800, Note_on_c, 0, 67, 100
2, 14053980, Note_on_c, 0, 67, 0
2, 14053980, Note_on_c, 0, 69, 100
2, 14054040, Note_on_c, 0, 69, 0
2, 14054040, Note_on_c, 0, 67, 100
2, 14054100, Note_on_c, 0, 67, 0
2, 14054100, Note_on_c, 0, 69, 100
2, 14054160, Note_on_c, 0, 69, 0
2, 14054160, Note_on_c, 0, 67, 100
2, 14054220, Note_on_c, 0, 67, 0
2, 14054220, Note_on_c, 0, 69, 100
2, 14054280, Note_on_c, 0, 69, 0
2, 14054280, Note_on_c, 0, 67, 100
2, 14054460, Note_on_c, 0, 67, 0
2, 14054460, Note_on_c, 0, 69, 100
2, 14054520, Note_on_c, 0, 69, 0
2, 14054520, Note_on_c, 0, 67, 100
2, 14054580, Note_on_c, 0, 67, 0
2, 14054580, Note_on_c, 0, 69, 100
2, 14054640, Note_on_c, 0, 69, 0
2, 14054640, Note_on_c, 0, 67, 100
2, 14054700, Note_on_c, 0, 67, 0
2, 14054700, Note_on_c, 0, 69, 100
2, 14054760, Note_on_c, 0, 69, 0
2, 14054760, Note_on_c, 0, 67, 100
2, 14054940, Note_on_c, 0, 67, 0
2, 14054940, Note_on_c, 0, 69, 100
2, 14055000, Note_on_c, 0, 69, 0
2, 14055000, Note_on_c, 0, 67, 100
2, 14055060, Note_on_c, 0, 67, 0
2, 14055060, Note_on_c, 0, 69, 100
2, 14055120, Note_on_c, 0, 69, 0
2, 14055120, Note_on_c, 0, 67, 100
2, 14055180, Note_on_c, 0, 67, 0
2, 14055180, Note_on_c, 0, 69, 100
2, 14055240, Note_on_c, 0, 69, 0
2, 14055240, Note_on_c, 0, 67, 100
2, 14055420, Note_on_c, 0, 67, 0
2, 14055420, Note_on_c, 0, 69, 100
2, 14055480, Note_on_c, 0, 69, 0
2, 14055480, Note_on_c, 0, 67, 100
2, 14055540, Note_on_c, 0, 67, 0
2, 14055540, Note_on_c, 0, 69, 100
2, 14055600, Note_on_c, 0, 69, 0
2, 14055600, Note_on_c, 0, 67, 100
2, 14055660, Note_on_c, 0, 67, 0
2, 14055660, Note_on_c, 0, 69, 100
2, 14055720, Note_on_c, 0, 69, 0
2, 14055720, Note_on_c, 0, 67, 100
2, 14055900, Note_on_c, 0, 67, 0
2, 14055900, Note_on_c, 0, 69, 100
2, 14055960, Note_on_c, 0, 69, 0
2, 14055960, Note_on_c, 0, 67, 100
2, 14056020, Note_on_c, 0, 67, 0
2, 14056020, Note_on_c, 0, 69, 100
2, 14056080, Note_on_c, 0, 69, 0
2, 14056080, Note_on_c, 0, 67, 100
2, 14056140, Note_on_c, 0, 67, 0
2, 14056140, Note_on_c, 0, 69, 100
2, 14056200, Note_on_c, 0, 69, 0
2, 14056200, Note_on_c, 0, 67, 100
2, 14056380, Note_on_c, 0, 67, 0
2, 14056380, Note_on_c, 0, 69, 100
2, 14056440, Note_on_c, 0, 69, 0
2, 14056440, Note_on_c, 0, 67, 100
2, 14056500, Note_on_c, 0, 67, 0
2, 14056500, Note_on_c, 0, 69, 100
2, 14056560, Note_on_c, 0, 69, 0
2, 14056560, Note_on_c, 0, 67, 100
2, 14056620, Note_on_c, 0, 67, 0
2, 14056620, Note_on_c, 0, 69, 100
2, 14056680, Note_on_c, 0, 69, 0
2, 14056680, Note_on_c, 0, 67, 100
2, 14056860, Note_on_c, 0, 67, 0
2, 14056860, Note_on_c, 0, 69, 100
2, 14056920, Note_on_c, 0, 69, 0
2, 14056920, Note_on_c, 0, 67, 100
2, 14056980, Note_on_c, 0, 67, 0
2, 14056980, Note_on_c, 0, 69, 100
2, 14057040, Note_on_c, 0, 69, 0
2, 14057040, Note_on_c, 0, 67, 100
2, 14057100, Note_on_c, 0, 67, 0
2, 14057100, Note_on_c, 0, 69, 100
2, 14057160, Note_on_c, 0, 69, 0
2, 14057160, Note_on_c, 0, 67, 100
2, 14057340, Note_on_c, 0, 67, 0
2, 14057340, Note_on_c, 0, 69, 100
2, 14057400, Note_on_c, 0, 69, 0
2, 14057400, Note_on_c, 0, 67, 100
2, 14057460, Note_on_c, 0, 67, 0
2, 14057460, Note_on_c, 0, 69, 100
2, 14057520, Note_on_c, 0, 69, 0
2, 14057520, Note_on_c, 0, 67, 100
2, 14057580, Note_on_c, 0, 67, 0
2, 14057580, Note_on_c, 0, 69, 100
2, 14057640, Note_on_c, 0, 69, 0
2, 14057640, Note_on_c, 0, 67, 100
2, 14057820, Note_on_c, 0, 67, 0
2, 14057820, Note_on_c, 0, 69, 100
2, 14057880, Note_on_c, 0, 69, 0
2, 14057880, Note_on_c, 0, 67, 100
2, 14057940, Note_on_c, 0, 67, 0
2, 14057940, Note_on_c, 0, 69, 100
2, 14058000, Note_on_c, 0, 69, 0
2, 14058000, Note_on_c, 0, 67, 100
2, 14058060, Note_on_c, 0, 67, 0
2, 14058060, Note_on_c, 0, 69, 100
2, 14058120, Note_on_c, 0, 69, 0
2, 14058120, Note_on_c, 0, 67, 100
2, 14058180, Note_on_c, 0, 67, 0
2, 14058180, Note_on_c, 0, 55, 100
2, 14058240, Note_on_c, 0, 55, 0
2, 14058240, Note_on_c, 0, 59, 100
2, 14058360, Note_on_c, 0, 59, 0
2, 14058360, Note_on_c, 0, 57, 100
2, 14058480, Note_on_c, 0, 57, 0
2, 14058480, Note_on_c, 0, 59, 100
2, 14058600, Note_on_c, 0, 59, 0
2, 14058600, Note_on_c, 0, 64, 100
2, 14058720, Note_on_c, 0, 64, 0
2, 14058720, Note_on_c, 0, 67, 100
2, 14058840, Note_on_c, 0, 67, 0
2, 14058840, Note_on_c, 0, 66, 100
2, 14058960, Note_on_c, 0, 66, 0
2, 14058960, Note_on_c, 0, 67, 100
2, 14059080, Note_on_c, 0, 67, 0
2, 14059080, Note_on_c, 0, 71, 100
2, 14059200, Note_on_c, 0, 71, 0
2, 14059200, Note_on_c, 0, 67, 100
2, 14059320, Note_on_c, 0, 67, 0
2, 14059320, Note_on_c, 0, 64, 100
2, 14059440, Note_on_c, 0, 64, 0
2, 14059440, Note_on_c, 0, 61, 100
2, 14059560, Note_on_c, 0, 61, 0
2, 14059560, Note_on_c, 0, 54, 100
2, 14059680, Note_on_c, 0, 54, 0
2, 14059680, Note_on_c, 0, 57, 100
2, 14059800, Note_on_c, 0, 57, 0
2, 14059800, Note_on_c, 0, 55, 100
2, 14059920, Note_on_c, 0, 55, 0
2, 14059920, Note_on_c, 0, 57, 100
2, 14060040, Note_on_c, 0, 57, 0
2, 14060040, Note_on_c, 0, 62, 100
2, 14060160, Note_on_c, 0, 62, 0
2, 14060160, Note_on_c, 0, 66, 100
2, 14060280, Note_on_c, 0, 66, 0
2, 14060280, Note_on_c, 0, 64, 100
2, 14060400, Note_on_c, 0, 64, 0
2, 14060400, Note_on_c, 0, 66, 100
2, 14060520, Note_on_c, 0, 66, 0
2, 14060520, Note_on_c, 0, 69, 100
2, 14060640, Note_on_c, 0, 69, 0
2, 14060640, Note_on_c, 0, 66, 100
2, 14060760, Note_on_c, 0, 66, 0
2, 14060760, Note_on_c, 0, 62, 100
2, 14060880, Note_on_c, 0, 62, 0
2, 14060880, Note_on_c, 0, 59, 100
2, 14061000, Note_on_c, 0, 59, 0
2, 14061000, Note_on_c, 0, 52, 100
2, 14061120, Note_on_c, 0, 52, 0
2, 14061120, Note_on_c, 0, 55, 100
2, 14061240, Note_on_c, 0, 55, 0
2, 14061240, Note_on_c, 0, 54, 100
2, 14061360, Note_on_c, 0, 54, 0
2, 14061360, Note_on_c, 0, 55, 100
2, 14061480, Note_on_c, 0, 55, 0
2, 14061480, Note_on_c, 0, 59, 100
2, 14061600, Note_on_c, 0, 59, 0
2, 14061600, Note_on_c, 0, 64, 100
2, 14061720, Note_on_c, 0, 64, 0
2, 14061720, Note_on_c, 0, 63, 100
2, 14061840, Note_on_c, 0, 63, 0
2, 14061840, Note_on_c, 0, 64, 100
2, 14061960, Note_on_c, 0, 64, 0
2, 14061960, Note_on_c, 0, 67, 100
2, 14062080, Note_on_c, 0, 67, 0
2, 14062080, Note_on_c, 0, 64, 100
2, 14062200, Note_on_c, 0, 64, 0
2, 14062200, Note_on_c, 0, 59, 100
2, 14062320, Note_on_c, 0, 59, 0
2, 14062320, Note_on_c, 0, 55, 100
2, 14062440, Note_on_c, 0, 55, 0
2, 14062440, Note_on_c, 0, 57, 100
2, 14062560, Note_on_c, 0, 57, 0
2, 14062560, Note_on_c, 0, 64, 100
2, 14062680, Note_on_c, 0, 64, 0
2, 14062680, Note_on_c, 0, 62, 100
2, 14062800, Note_on_c, 0, 62, 0
2, 14062800, Note_on_c, 0, 64, 100
2, 14062920, Note_on_c, 0, 64, 0
2, 14062920, Note_on_c, 0, 67, 100
2, 14063040, Note_on_c, 0, 67, 0
2, 14063040, Note_on_c, 0, 69, 100
2, 14063160, Note_on_c, 0, 69, 0
2, 14063160, Note_on_c, 0, 67, 100
2, 14063280, Note_on_c, 0, 67, 0
2, 14063280, Note_on_c, 0, 69, 100
2, 14063400, Note_on_c, 0, 69, 0
2, 14063400, Note_on_c, 0, 67, 100
2, 14063520, Note_on_c, 0, 67, 0
2, 14063520, Note_on_c, 0, 64, 100
2, 14063640, Note_on_c, 0, 64, 0
2, 14063640, Note_on_c, 0, 61, 100
2, 14063760, Note_on_c, 0, 61, 0
2, 14063760, Note_on_c, 0, 57, 100
2, 14063880, Note_on_c, 0, 57, 0
2, 14063880, Note_on_c, 0, 54, 100
2, 14064060, Note_on_c, 0, 54, 0
2, 14064060, Note_on_c, 0, 55, 100
2, 14064120, Note_on_c, 0, 55, 0
2, 14064120, Note_on_c, 0, 54, 100
2, 14064180, Note_on_c, 0, 54, 0
2, 14064180, Note_on_c, 0, 55, 100
2, 14064240, Note_on_c, 0, 55, 0
2, 14064240, Note_on_c, 0, 54, 100
2, 14064300, Note_on_c, 0, 54, 0
2, 14064300, Note_on_c, 0, 55, 100
2, 14064360, Note_on_c, 0, 55, 0
2, 14064360, Note_on_c, 0, 54, 100
2, 14064540, Note_on_c, 0, 54, 0
2, 14064540, Note_on_c, 0, 55, 100
2, 14064600, Note_on_c, 0, 55, 0
2, 14064600, Note_on_c, 0, 54, 100
2, 14064660, Note_on_c, 0, 54, 0
2, 14064660, Note_on_c, 0, 55, 100
2, 14064720, Note_on_c, 0, 55, 0
2, 14064720, Note_on_c, 0, 54, 100
2, 14064780, Note_on_c, 0, 54, 0
2, 14064780, Note_on_c, 0, 55, 100
2, 14064840, Note_on_c, 0, 55, 0
2, 14064840, Note_on_c, 0, 54, 100
2, 14065020, Note_on_c, 0, 54, 0
2, 14065020, Note_on_c, 0, 55, 100
2, 14065080, Note_on_c, 0, 55, 0
2, 14065080, Note_on_c, 0, 54, 100
2, 14065140, Note_on_c, 0, 54, 0
2, 14065140, Note_on_c, 0, 55, 100
2, 14065200, Note_on_c, 0, 55, 0
2, 14065200, Note_on_c, 0, 54, 100
2, 14065260, Note_on_c, 0, 54, 0
2, 14065260, Note_on_c, 0, 55, 100
2, 14065320, Note_on_c, 0, 55, 0
2, 14065320, Note_on_c, 0, 54, 100
2, 14065500, Note_on_c, 0, 54, 0
2, 14065500, Note_on_c, 0, 55, 100
2, 14065560, Note_on_c, 0, 55, 0
2, 14065560, Note_on_c, 0, 54, 100
2, 14065620, Note_on_c, 0, 54, 0
2, 14065620, Note_on_c, 0, 55, 100
2, 14065680, Note_on_c, 0, 55, 0
2, 14065680, Note_on_c, 0, 54, 100
2, 14065740, Note_on_c, 0, 54, 0
2, 14065740, Note_on_c, 0, 55, 100
2, 14065800, Note_on_c, 0, 55, 0
2, 14065800, Note_on_c, 0, 54, 100
2, 14065980, Note_on_c, 0, 54, 0
2, 14065980, Note_on_c, 0, 55, 100
2, 14066040, Note_on_c, 0, 55, 0
2, 14066040, Note_on_c, 0, 54, 100
2, 14066100, Note_on_c, 0, 54, 0
2, 14066100, Note_on_c, 0, 55, 100
2, 14066160, Note_on_c, 0, 55, 0
2, 14066160, Note_on_c, 0, 54, 100
2, 14066220, Note_on_c, 0, 54, 0
2, 14066220, Note_on_c, 0, 55, 100
2, 14066280, Note_on_c, 0, 55, 0
2, 14066280, Note_on_c, 0, 54, 100
2, 14066460, Note_on_c, 0, 54, 0
2, 14066460, Note_on_c, 0, 55, 100
2, 14066520, Note_on_c, 0, 55, 0
2, 14066520, Note_on_c, 0, 54, 100
2, 14066580, Note_on_c, 0, 54, 0
2, 14066580, Note_on_c, 0, 55, 100
2, 14066640, Note_on_c, 0, 55, 0
2, 14066640, Note_on_c, 0, 54, 100
2, 14066700, Note_on_c, 0, 54, 0
2, 14066700, Note_on_c, 0, 55, 100
2, 14066760, Note_on_c, 0, 55, 0
2, 14066760, Note_on_c, 0, 54, 100
2, 14066940, Note_on_c, 0, 54, 0
2, 14066940, Note_on_c, 0, 55, 100
2, 14067000, Note_on_c, 0, 55, 0
2, 14067000, Note_on_c, 0, 54, 100
2, 14067060, Note_on_c, 0, 54, 0
2, 14067060, Note_on_c, 0, 55, 100
2, 14067120, Note_on_c, 0, 55, 0
2, 14067120, Note_on_c, 0, 54, 100
2, 14067180, Note_on_c, 0, 54, 0
2, 14067180, Note_on_c, 0, 55, 100
2, 14067240, Note_on_c, 0, 55, 0
2, 14067240, Note_on_c, 0, 54, 100
2, 14067420, Note_on_c, 0, 54, 0
2, 14067420, Note_on_c, 0, 55, 100
2, 14067480, Note_on_c, 0, 55, 0
2, 14067480, Note_on_c, 0, 54, 100
2, 14067540, Note_on_c, 0, 54, 0
2, 14067540, Note_on_c, 0, 55, 100
2, 14067600, Note_on_c, 0, 55, 0
2, 14067600, Note_on_c, 0, 54, 100
2, 14067660, Note_on_c, 0, 54, 0
2, 14067660, Note_on_c, 0, 55, 100
2, 14067720, Note_on_c, 0, 55, 0
2, 14067720, Note_on_c, 0, 54, 100
2, 14067780, Note_on_c, 0, 54, 0
2, 14067780, Note_on_c, 0, 52, 100
2, 14067900, Note_on_c, 0, 52, 0
2, 14067900, Note_on_c, 0, 54, 100
2, 14067960, Note_on_c, 0, 54, 0
2, 14067960, Note_on_c, 0, 52, 100
2, 14068020, Note_on_c, 0, 52, 0
2, 14068020, Note_on_c, 0, 54, 100
2, 14068080, Note_on_c, 0, 54, 0
2, 14068080, Note_on_c, 0, 52, 100
2, 14068140, Note_on_c, 0, 52, 0
2, 14068140, Note_on_c, 0, 54, 100
2, 14068200, Note_on_c, 0, 54, 0
2, 14068200, Note_on_c, 0, 52, 100
2, 14068260, Note_on_c, 0, 52, 0
2, 14068260, Note_on_c, 0, 38, 100
2, 14068320, Note_on_c, 0, 38, 0
2, 14068320, Note_on_c, 0, 42, 100
2, 14068440, Note_on_c, 0, 42, 0
2, 14068440, Note_on_c, 0, 40, 100
2, 14068560, Note_on_c, 0, 40, 0
2, 14068560, Note_on_c, 0, 42, 100
2, 14068680, Note_on_c, 0, 42, 0
2, 14068680, Note_on_c, 0, 45, 100
2, 14068800, Note_on_c, 0, 45, 0
2, 14068800, Note_on_c, 0, 50, 100
2, 14068920, Note_on_c, 0, 50, 0
2, 14068920, Note_on_c, 0, 49, 100
2, 14069040, Note_on_c, 0, 49, 0
2, 14069040, Note_on_c, 0, 50, 100
2, 14069160, Note_on_c, 0, 50, 0
2, 14069160, Note_on_c, 0, 54, 100
2, 14069280, Note_on_c, 0, 54, 0
2, 14069280, Note_on_c, 0, 62, 100
2, 14069760, Note_on_c, 0, 62, 0
2, 14069760, Note_on_c, 0, 52, 100
2, 14070000, Note_on_c, 0, 52, 0
2, 14070000, Note_on_c, 0, 54, 100
2, 14070240, Note_on_c, 0, 54, 0
2, 14070240, Note_on_c, 0, 60, 100
2, 14070480, Note_on_c, 0, 60, 0
2, 14070480, Note_on_c, 0, 50, 100
2, 14070720, Note_on_c, 0, 50, 0
2, 14070720, Note_on_c, 0, 66, 100
2, 14070960, Note_on_c, 0, 66, 0
2, 14070960, Note_on_c, 0, 67, 100
2, 14071200, Note_on_c, 0, 67, 0
2, 14071200, Note_on_c, 0, 57, 100
2, 14071440, Note_on_c, 0, 57, 0
2, 14071440, Note_on_c, 0, 59, 100
2, 14071680, Note_on_c, 0, 59, 0
2, 14071680, Note_on_c, 0, 65, 100
2, 14071920, Note_on_c, 0, 65, 0
2, 14071920, Note_on_c, 0, 55, 100
2, 14072160, Note_on_c, 0, 55, 0
2, 14072160, Note_on_c, 0, 71, 100
2, 14072400, Note_on_c, 0, 71, 0
2, 14072400, Note_on_c, 0, 72, 100
2, 14072640, Note_on_c, 0, 72, 0
2, 14072640, Note_on_c, 0, 67, 100
2, 14072760, Note_on_c, 0, 67, 0
2, 14072760, Note_on_c, 0, 65, 100
2, 14072880, Note_on_c, 0, 65, 0
2, 14072880, Note_on_c, 0, 67, 100
2, 14073000, Note_on_c, 0, 67, 0
2, 14073000, Note_on_c, 0, 64, 100
2, 14073120, Note_on_c, 0, 64, 0
2, 14073120, Note_on_c, 0, 60, 100
2, 14073240, Note_on_c, 0, 60, 0
2, 14073240, Note_on_c, 0, 59, 100
2, 14073360, Note_on_c, 0, 59, 0
2, 14073360, Note_on_c, 0, 60, 100
2, 14073480, Note_on_c, 0, 60, 0
2, 14073480, Note_on_c, 0, 57, 100
2, 14073600, Note_on_c, 0, 57, 0
2, 14073600, Note_on_c, 0, 60, 100
2, 14073720, Note_on_c, 0, 60, 0
2, 14073720, Note_on_c, 0, 64, 100
2, 14073840, Note_on_c, 0, 64, 0
2, 14073840, Note_on_c, 0, 69, 100
2, 14073960, Note_on_c, 0, 69, 0
2, 14073960, Note_on_c, 0, 63, 100
2, 14074080, Note_on_c, 0, 63, 0
2, 14074080, Note_on_c, 0, 59, 100
2, 14074200, Note_on_c, 0, 59, 0
2, 14074200, Note_on_c, 0, 58, 100
2, 14074320, Note_on_c, 0, 58, 0
2, 14074320, Note_on_c, 0, 59, 100
2, 14074440, Note_on_c, 0, 59, 0
2, 14074440, Note_on_c, 0, 54, 100
2, 14074560, Note_on_c, 0, 54, 0
2, 14074560, Note_on_c, 0, 51, 100
2, 14074680, Note_on_c, 0, 51, 0
2, 14074680, Note_on_c, 0, 49, 100
2, 14074800, Note_on_c, 0, 49, 0
2, 14074800, Note_on_c, 0, 51, 100
2, 14074920, Note_on_c, 0, 51, 0
2, 14074920, Note_on_c, 0, 47, 100
2, 14075040, Note_on_c, 0, 47, 0
2, 14075040, Note_on_c, 0, 51, 100
2, 14075160, Note_on_c, 0, 51, 0
2, 14075160, Note_on_c, 0, 54, 100
2, 14075280, Note_on_c, 0, 54, 0
2, 14075280, Note_on_c, 0, 57, 100
2, 14075400, Note_on_c, 0, 57, 0
2, 14075400, Note_on_c, 0, 64, 100
2, 14075580, Note_on_c, 0, 64, 0
2, 14075580, Note_on_c, 0, 66, 100
2, 14075640, Note_on_c, 0, 66, 0
2, 14075640, Note_on_c, 0, 64, 100
2, 14075700, Note_on_c, 0, 64, 0
2, 14075700, Note_on_c, 0, 66, 100
2, 14075760, Note_on_c, 0, 66, 0
2, 14075760, Note_on_c, 0, 64, 100
2, 14075820, Note_on_c, 0, 64, 0
2, 14075820, Note_on_c, 0, 66, 100
2, 14075880, Note_on_c, 0, 66, 0
2, 14075880, Note_on_c, 0, 64, 100
2, 14076060, Note_on_c, 0, 64, 0
2, 14076060, Note_on_c, 0, 66, 100
2, 14076120, Note_on_c, 0, 66, 0
2, 14076120, Note_on_c, 0, 64, 100
2, 14076180, Note_on_c, 0, 64, 0
2, 14076180, Note_on_c, 0, 66, 100
2, 14076240, Note_on_c, 0, 66, 0
2, 14076240, Note_on_c, 0, 64, 100
2, 14076300, Note_on_c, 0, 64, 0
2, 14076300, Note_on_c, 0, 66, 100
2, 14076360, Note_on_c, 0, 66, 0
2, 14076360, Note_on_c, 0, 64, 100
2, 14076540, Note_on_c, 0, 64, 0
2, 14076540, Note_on_c, 0, 66, 100
2, 14076600, Note_on_c, 0, 66, 0
2, 14076600, Note_on_c, 0, 64, 100
2, 14076660, Note_on_c, 0, 64, 0
2, 14076660, Note_on_c, 0, 66, 100
2, 14076720, Note_on_c, 0, 66, 0
2, 14076720, Note_on_c, 0, 64, 100
2, 14076780, Note_on_c, 0, 64, 0
2, 14076780, Note_on_c, 0, 66, 100
2, 14076840, Note_on_c, 0, 66, 0
2, 14076840, Note_on_c, 0, 64, 100
2, 14077020, Note_on_c, 0, 64, 0
2, 14077020, Note_on_c, 0, 66, 100
2, 14077080, Note_on_c, 0, 66, 0
2, 14077080, Note_on_c, 0, 64, 100
2, 14077140, Note_on_c, 0, 64, 0
2, 14077140, Note_on_c, 0, 66, 100
2, 14077200, Note_on_c, 0, 66, 0
2, 14077200, Note_on_c, 0, 64, 100
2, 14077260, Note_on_c, 0, 64, 0
2, 14077260, Note_on_c, 0, 66, 100
2, 14077320, Note_on_c, 0, 66, 0
2, 14077320, Note_on_c, 0, 64, 100
2, 14077500, Note_on_c, 0, 64, 0
2, 14077500, Note_on_c, 0, 66, 100
2, 14077560, Note_on_c, 0, 66, 0
2, 14077560, Note_on_c, 0, 64, 100
2, 14077620, Note_on_c, 0, 64, 0
2, 14077620, Note_on_c, 0, 66, 100
2, 14077680, Note_on_c, 0, 66, 0
2, 14077680, Note_on_c, 0, 64, 100
2, 14077740, Note_on_c, 0, 64, 0
2, 14077740, Note_on_c, 0, 66, 100
2, 14077800, Note_on_c, 0, 66, 0
2, 14077800, Note_on_c, 0, 64, 100
2, 14077980, Note_on_c, 0, 64, 0
2, 14077980, Note_on_c, 0, 66, 100
2, 14078040, Note_on_c, 0, 66, 0
2, 14078040, Note_on_c, 0, 64, 100
2, 14078100, Note_on_c, 0, 64, 0
2, 14078100, Note_on_c, 0, 66, 100
2, 14078160, Note_on_c, 0, 66, 0
2, 14078160, Note_on_c, 0, 64, 100
2, 14078220, Note_on_c, 0, 64, 0
2, 14078220, Note_on_c, 0, 66, 100
2, 14078280, Note_on_c, 0, 66, 0
2, 14078280, Note_on_c, 0, 64, 100
2, 14078460, Note_on_c, 0, 64, 0
2, 14078460, Note_on_c, 0, 66, 100
2, 14078520, Note_on_c, 0, 66, 0
2, 14078520, Note_on_c, 0, 64, 100
2, 14078580, Note_on_c, 0, 64, 0
2, 14078580, Note_on_c, 0, 66, 100
2, 14078640, Note_on_c, 0, 66, 0
2, 14078640, Note_on_c, 0, 64, 100
2, 14078700, Note_on_c, 0, 64, 0
2, 14078700, Note_on_c, 0, 66, 100
2, 14078760, Note_on_c, 0, 66, 0
2, 14078760, Note_on_c, 0, 64, 100
2, 14078940, Note_on_c, 0, 64, 0
2, 14078940, Note_on_c, 0, 66, 100
2, 14079000, Note_on_c, 0, 66, 0
2, 14079000, Note_on_c, 0, 64, 100
2, 14079060, Note_on_c, 0, 64, 0
2, 14079060, Note_on_c, 0, 66, 100
2, 14079120, Note_on_c, 0, 66, 0
2, 14079120, Note_on_c, 0, 64, 100
2, 14079180, Note_on_c, 0, 64, 0
2, 14079180, Note_on_c, 0, 66, 100
2, 14079240, Note_on_c, 0, 66, 0
2, 14079240, Note_on_c, 0, 64, 100
2, 14079300, Note_on_c, 0, 64, 0
2, 14079300, Note_on_c, 0, 63, 100
2, 14079420, Note_on_c, 0, 63, 0
2, 14079420, Note_on_c, 0, 64, 100
2, 14079480, Note_on_c, 0, 64, 0
2, 14079480, Note_on_c, 0, 63, 100
2, 14079540, Note_on_c, 0, 63, 0
2, 14079540, Note_on_c, 0, 64, 100
2, 14079600, Note_on_c, 0, 64, 0
2, 14079600, Note_on_c, 0, 63, 100
2, 14079660, Note_on_c, 0, 63, 0
2, 14079660, Note_on_c, 0, 64, 100
2, 14079720, Note_on_c, 0, 64, 0
2, 14079720, Note_on_c, 0, 63, 100
2, 14079780, Note_on_c, 0, 63, 0
2, 14079780, Note_on_c, 0, 62, 100
2, 14092800, Note_on_c, 0, 62, 0
2, 14092800, Note_on_c, 0, 52, 100
2, 14093040, Note_on_c, 0, 52, 0
2, 14093040, Note_on_c, 0, 54, 100
2, 14093280, Note_on_c, 0, 54, 0
2, 14093280, Note_on_c, 0, 60, 100
2, 14093520, Note_on_c, 0, 60, 0
2, 14093520, Note_on_c, 0, 50, 100
2, 14093760, Note_on_c, 0, 50, 0
2, 14093760, Note_on_c, 0, 66, 100
2, 14094000, Note_on_c, 0, 66, 0
2, 14094000, Note_on_c, 0, 67, 100
2, 14094240, Note_on_c, 0, 67, 0
2, 14094240, Note_on_c, 0, 57, 100
2, 14094480, Note_on_c, 0, 57, 0
2, 14094480, Note_on_c, 0, 59, 100
2, 14094720, Note_on_c, 0, 59, 0
2, 14094720, Note_on_c, 0, 65, 100
2, 14094960, Note_on_c, 0, 65, 0
2, 14094960, Note_on_c, 0, 55, 100
2, 14095200, Note_on_c, 0, 55, 0
2, 14095200, Note_on_c, 0, 71, 100
2, 14095440, Note_on_c, 0, 71, 0
2, 14095440, Note_on_c, 0, 72, 100
2, 14095680, Note_on_c, 0, 72, 0
2, 14095680, Note_on_c, 0, 67, 100
2, 14095800, Note_on_c, 0, 67, 0
2, 14095800, Note_on_c, 0, 65, 100
2, 14095920, Note_on_c, 0, 65, 0
2, 14095920, Note_on_c, 0, 67, 100
2, 14096040, Note_on_c, 0, 67, 0
2, 14096040, Note_on_c, 0, 64, 100
2, 14096160, Note_on_c, 0, 64, 0
2, 14096160, Note_on_c, 0, 60, 100
2, 14096280, Note_on_c, 0, 60, 0
2, 14096280, Note_on_c, 0, 59, 100
2, 14096400, Note_on_c, 0, 59, 0
2, 14096400, Note_on_c, 0, 60, 100
2, 14096520, Note_on_c, 0, 60, 0
2, 14096520, Note_on_c, 0, 57, 100
2, 14096640, Note_on_c, 0, 57, 0
2, 14096640, Note_on_c, 0, 60, 100
2, 14096760, Note_on_c, 0, 60, 0
2, 14096760, Note_on_c, 0, 64, 100
2, 14096880, Note_on_c, 0, 64, 0
2, 14096880, Note_on_c, 0, 69, 100
2, 14097000, Note_on_c, 0, 69, 0
2, 14097000, Note_on_c, 0, 63, 100
2, 14097120, Note_on_c, 0, 63, 0
2, 14097120, Note_on_c, 0, 59, 100
2, 14097240, Note_on_c, 0, 59, 0
2, 14097240, Note_on_c, 0, 58, 100
2, 14097360, Note_on_c, 0, 58, 0
2, 14097360, Note_on_c, 0, 59, 100
2, 14097480, Note_on_c, 0, 59, 0
2, 14097480, Note_on_c, 0, 54, 100
2, 14097600, Note_on_c, 0, 54, 0
2, 14097600, Note_on_c, 0, 51, 100
2, 14097720, Note_on_c, 0, 51, 0
2, 14097720, Note_on_c, 0, 49, 100
2, 14097840, Note_on_c, 0, 49, 0
2, 14097840, Note_on_c, 0, 51, 100
2, 14097960, Note_on_c, 0, 51, 0
2, 14097960, Note_on_c, 0, 47, 100
2, 14098080, Note_on_c, 0, 47, 0
2, 14098080, Note_on_c, 0, 51, 100
2, 14098200, Note_on_c, 0, 51, 0
2, 14098200, Note_on_c, 0, 54, 100
2, 14098320, Note_on_c, 0, 54, 0
2, 14098320, Note_on_c, 0, 57, 100
2, 14098440, Note_on_c, 0, 57, 0
2, 14098440, Note_on_c, 0, 64, 100
2, 14098620, Note_on_c, 0, 64, 0
2, 14098620, Note_on_c, 0, 66, 100
2, 14098680, Note_on_c, 0, 66, 0
2, 14098680, Note_on_c, 0, 64, 100
2, 14098740, Note_on_c, 0, 64, 0
2, 14098740, Note_on_c, 0, 66, 100
2, 14098800, Note_on_c, 0, 66, 0
2, 14098800, Note_on_c, 0, 64, 100
2, 14098860, Note_on_c, 0, 64, 0
2, 14098860, Note_on_c, 0, 66, 100
2, 14098920, Note_on_c, 0, 66, 0
2, 14098920, Note_on_c, 0, 64, 100
2, 14099100, Note_on_c, 0, 64, 0
2, 14099100, Note_on_c, 0, 66, 100
2, 14099160, Note_on_c, 0, 66, 0
2, 14099160, Note_on_c, 0, 64, 100
2, 14099220, Note_on_c, 0, 64, 0
2, 14099220, Note_on_c, 0, 66, 100
2, 14099280, Note_on_c, 0, 66, 0
2, 14099280, Note_on_c, 0, 64, 100
2, 14099340, Note_on_c, 0, 64, 0
2, 14099340, Note_on_c, 0, 66, 100
2, 14099400, Note_on_c, 0, 66, 0
2, 14099400, Note_on_c, 0, 64, 100
2, 14099580, Note_on_c, 0, 64, 0
2, 14099580, Note_on_c, 0, 66, 100
2, 14099640, Note_on_c, 0, 66, 0
2, 14099640, Note_on_c, 0, 64, 100
2, 14099700, Note_on_c, 0, 64, 0
2, 14099700, Note_on_c, 0, 66, 100
2, 14099760, Note_on_c, 0, 66, 0
2, 14099760, Note_on_c, 0, 64, 100
2, 14099820, Note_on_c, 0, 64, 0
2, 14099820, Note_on_c, 0, 66, 100
2, 14099880, Note_on_c, 0, 66, 0
2, 14099880, Note_on_c, 0, 64, 100
2, 14100060, Note_on_c, 0, 64, 0
2, 14100060, Note_on_c, 0, 66, 100
2, 14100120, Note_on_c, 0, 66, 0
2, 14100120, Note_on_c, 0, 64, 100
2, 14100180, Note_on_c, 0, 64, 0
2, 14100180, Note_on_c, 0, 66, 100
2, 14100240, Note_on_c, 0, 66, 0
2, 14100240, Note_on_c, 0, 64, 100
2, 14100300, Note_on_c, 0, 64, 0
2, 14100300, Note_on_c, 0, 66, 100
2, 14100360, Note_on_c, 0, 66, 0
2, 14100360, Note_on_c, 0, 64, 100
2, 14100540, Note_on_c, 0, 64, 0
2, 14100540, Note_on_c, 0, 66, 100
2, 14100600, Note_on_c, 0, 66, 0
2, 14100600, Note_on_c, 0, 64, 100
2, 14100660, Note_on_c, 0, 64, 0
2, 14100660, Note_on_c, 0, 66, 100
2, 14100720, Note_on_c, 0, 66, 0
2, 14100720, Note_on_c, 0, 64, 100
2, 14100780, Note_on_c, 0, 64, 0
2, 14100780, Note_on_c, 0, 66, 100
2, 14100840, Note_on_c, 0, 66, 0
2, 14100840, Note_on_c, 0, 64, 100
2, 14101020, Note_on_c, 0, 64, 0
2, 14101020, Note_on_c, 0, 66, 100
2, 14101080, Note_on_c, 0, 66, 0
2, 14101080, Note_on_c, 0, 64, 100
2, 14101140, Note_on_c, 0, 64, 0
2, 14101140, Note_on_c, 0, 66, 100
2, 14101200, Note_on_c, 0, 66, 0
2, 14101200, Note_on_c, 0, 64, 100
2, 14101260, Note_on_c, 0, 64, 0
2, 14101260, Note_on_c, 0, 66, 100
2, 14101320, Note_on_c, 0, 66, 0
2, 14101320, Note_on_c, 0, 64, 100
2, 14101500, Note_on_c, 0, 64, 0
2, 14101500, Note_on_c, 0, 66, 100
2, 14101560, Note_on_c, 0, 66, 0
2, 14101560, Note_on_c, 0, 64, 100
2, 14101620, Note_on_c, 0, 64, 0
2, 14101620, Note_on_c, 0, 66, 100
2, 14101680, Note_on_c, 0, 66, 0
2, 14101680, Note_on_c, 0, 64, 100
2, 14101740, Note_on_c, 0, 64, 0
2, 14101740, Note_on_c, 0, 66, 100
2, 14101800, Note_on_c, 0, 66, 0
2, 14101800, Note_on_c, 0, 64, 100
2, 14101980, Note_on_c, 0, 64, 0
2, 14101980, Note_on_c, 0, 66, 100
2, 14102040, Note_on_c, 0, 66, 0
2, 14102040, Note_on_c, 0, 64, 100
2, 14102100, Note_on_c, 0, 64, 0
2, 14102100, Note_on_c, 0, 66, 100
2, 14102160, Note_on_c, 0, 66, 0
2, 14102160, Note_on_c, 0, 64, 100
2, 14102220, Note_on_c, 0, 64, 0
2, 14102220, Note_on_c, 0, 66, 100
2, 14102280, Note_on_c, 0, 66, 0
2, 14102280, Note_on_c, 0, 64, 100
2, 14102340, Note_on_c, 0, 64, 0
2, 14102340, Note_on_c, 0, 63, 100
2, 14102460, Note_on_c, 0, 63, 0
2, 14102460, Note_on_c, 0, 64, 100
2, 14102520, Note_on_c, 0, 64, 0
2, 14102520, Note_on_c, 0, 63, 100
2, 14102580, Note_on_c, 0, 63, 0
2, 14102580, Note_on_c, 0, 64, 100
2, 14102640, Note_on_c, 0, 64, 0
2, 14102640, Note_on_c, 0, 63, 100
2, 14102700, Note_on_c, 0, 63, 0
2, 14102700, Note_on_c, 0, 64, 100
2, 14102760, Note_on_c, 0, 64, 0
2, 14102760, Note_on_c, 0, 63, 100
2, 14102820, Note_on_c, 0, 63, 0
2, 14102820, Note_on_c, 0, 50, 100
2, 14208000, Note_on_c, 0, 50, 0
2, 14208000, Note_on_c, 0, 55, 100
2, 14208240, Note_on_c, 0, 55, 0
2, 14208240, Note_on_c, 0, 57, 100
2, 14208480, Note_on_c, 0, 57, 0
2, 14208480, Note_on_c, 0, 59, 100
2, 14208720, Note_on_c, 0, 59, 0
2, 14208720, Note_on_c, 0, 60, 100
2, 14208960, Note_on_c, 0, 60, 0
2, 14208960, Note_on_c, 0, 62, 100
2, 14209200, Note_on_c, 0, 62, 0
2, 14209200, Note_on_c, 0, 60, 100
2, 14209440, Note_on_c, 0, 60, 0
2, 14209440, Note_on_c, 0, 59, 100
2, 14209560, Note_on_c, 0, 59, 0
2, 14209560, Note_on_c, 0, 57, 100
2, 14209680, Note_on_c, 0, 57, 0
2, 14209680, Note_on_c, 0, 55, 100
2, 14209920, Note_on_c, 0, 55, 0
2, 14209920, Note_on_c, 0, 57, 100
2, 14210040, Note_on_c, 0, 57, 0
2, 14210040, Note_on_c, 0, 59, 100
2, 14210160, Note_on_c, 0, 59, 0
2, 14210160, Note_on_c, 0, 57, 100
2, 14210400, Note_on_c, 0, 57, 0
2, 14210400, Note_on_c, 0, 55, 100
2, 14211600, Note_on_c, 0, 55, 0
2, 14211600, Note_on_c, 0, 54, 100
2, 14211660, Note_on_c, 0, 54, 0
2, 14211660, Note_on_c, 0, 55, 100
2, 14211720, Note_on_c, 0, 55, 0
2, 14211720, Note_on_c, 0, 54, 100
2, 14211780, Note_on_c, 0, 54, 0
2, 14211780, Note_on_c, 0, 52, 100
2, 14211840, Note_on_c, 0, 52, 0
2, 14211840, Note_on_c, 0, 54, 100
2, 14211960, Note_on_c, 0, 54, 0
2, 14211960, Note_on_c, 0, 55, 100
2, 14212080, Note_on_c, 0, 55, 0
2, 14212080, Note_on_c, 0, 62, 100
2, 14212800, Note_on_c, 0, 62, 0
2, 14212800, Note_on_c, 0, 60, 100
2, 14213040, Note_on_c, 0, 60, 0
2, 14213040, Note_on_c, 0, 59, 100
2, 14213280, Note_on_c, 0, 59, 0
2, 14213280, Note_on_c, 0, 57, 100
2, 14213520, Note_on_c, 0, 57, 0
2, 14213520, Note_on_c, 0, 55, 100
2, 14214000, Note_on_c, 0, 55, 0
2, 14214000, Note_on_c, 0, 54, 100
2, 14214080, Note_on_c, 0, 54, 0
2, 14214080, Note_on_c, 0, 55, 100
2, 14214160, Note_on_c, 0, 55, 0
2, 14214160, Note_on_c, 0, 54, 100
2, 14214240, Note_on_c, 0, 54, 0
2, 14214240, Note_on_c, 0, 55, 100
2, 14214320, Note_on_c, 0, 55, 0
2, 14214320, Note_on_c, 0, 54, 100
2, 14214400, Note_on_c, 0, 54, 0
2, 14214400, Note_on_c, 0, 55, 100
2, 14214480, Note_on_c, 0, 55, 0
2, 14214480, Note_on_c, 0, 54, 100
2, 14214540, Note_on_c, 0, 54, 0
2, 14214540, Note_on_c, 0, 52, 100
2, 14214600, Note_on_c, 0, 52, 0
2, 14214600, Note_on_c, 0, 54, 100
2, 14214660, Note_on_c, 0, 54, 0
2, 14214660, Note_on_c, 0, 50, 100
2, 14214720, Note_on_c, 0, 50, 0
2, 14214720, Note_on_c, 0, 67, 100
2, 14216400, Note_on_c, 0, 67, 0
2, 14216400, Note_on_c, 0, 69, 100
2, 14217360, Note_on_c, 0, 69, 0
2, 14217360, Note_on_c, 0, 67, 100
2, 14217840, Note_on_c, 0, 67, 0
2, 14217840, Note_on_c, 0, 69, 100
2, 14218080, Note_on_c, 0, 69, 0
2, 14218080, Note_on_c, 0, 67, 100
2, 14218320, Note_on_c, 0, 67, 0
2, 14218320, Note_on_c, 0, 66, 100
2, 14218560, Note_on_c, 0, 66, 0
2, 14218560, Note_on_c, 0, 64, 100
2, 14218800, Note_on_c, 0, 64, 0
2, 14218800, Note_on_c, 0, 62, 100
2, 14219040, Note_on_c, 0, 62, 0
2, 14219040, Note_on_c, 0, 61, 100
2, 14219280, Note_on_c, 0, 61, 0
2, 14219280, Note_on_c, 0, 54, 100
2, 14219760, Note_on_c, 0, 54, 0
2, 14219760, Note_on_c, 0, 55, 100
2, 14220000, Note_on_c, 0, 55, 0
2, 14220000, Note_on_c, 0, 57, 100
2, 14220240, Note_on_c, 0, 57, 0
2, 14220240, Note_on_c, 0, 54, 100
2, 14220480, Note_on_c, 0, 54, 0
2, 14220480, Note_on_c, 0, 55, 100
2, 14220720, Note_on_c, 0, 55, 0
2, 14220720, Note_on_c, 0, 54, 100
2, 14220960, Note_on_c, 0, 54, 0
2, 14220960, Note_on_c, 0, 52, 100
2, 14221200, Note_on_c, 0, 52, 0
2, 14221200, Note_on_c, 0, 50, 100
2, 14221440, Note_on_c, 0, 50, 0
2, 14221440, Note_on_c, 0, 49, 100
2, 14221680, Note_on_c, 0, 49, 0
2, 14221680, Note_on_c, 0, 50, 100
2, 14221920, Note_on_c, 0, 50, 0
2, 14221920, Note_on_c, 0, 52, 100
2, 14222160, Note_on_c, 0, 52, 0
2, 14222160, Note_on_c, 0, 49, 100
2, 14222400, Note_on_c, 0, 49, 0
2, 14222400, Note_on_c, 0, 50, 100
2, 14223360, Note_on_c, 0, 50, 0
2, 14223360, Note_on_c, 0, 55, 100
2, 14223600, Note_on_c, 0, 55, 0
2, 14223600, Note_on_c, 0, 57, 100
2, 14223840, Note_on_c, 0, 57, 0
2, 14223840, Note_on_c, 0, 59, 100
2, 14224080, Note_on_c, 0, 59, 0
2, 14224080, Note_on_c, 0, 60, 100
2, 14224320, Note_on_c, 0, 60, 0
2, 14224320, Note_on_c, 0, 62, 100
2, 14224560, Note_on_c, 0, 62, 0
2, 14224560, Note_on_c, 0, 60, 100
2, 14224800, Note_on_c, 0, 60, 0
2, 14224800, Note_on_c, 0, 59, 100
2, 14224920, Note_on_c, 0, 59, 0
2, 14224920, Note_on_c, 0, 57, 100
2, 14225040, Note_on_c, 0, 57, 0
2, 14225040, Note_on_c, 0, 55, 100
2, 14225280, Note_on_c, 0, 55, 0
2, 14225280, Note_on_c, 0, 57, 100
2, 14225400, Note_on_c, 0, 57, 0
2, 14225400, Note_on_c, 0, 59, 100
2, 14225520, Note_on_c, 0, 59, 0
2, 14225520, Note_on_c, 0, 57, 100
2, 14225760, Note_on_c, 0, 57, 0
2, 14225760, Note_on_c, 0, 55, 100
2, 14226960, Note_on_c, 0, 55, 0
2, 14226960, Note_on_c, 0, 54, 100
2, 14227020, Note_on_c, 0, 54, 0
2, 14227020, Note_on_c, 0, 55, 100
2, 14227080, Note_on_c, 0, 55, 0
2, 14227080, Note_on_c, 0, 54, 100
2, 14227140, Note_on_c, 0, 54, 0
2, 14227140, Note_on_c, 0, 52, 100
2, 14227200, Note_on_c, 0, 52, 0
2, 14227200, Note_on_c, 0, 54, 100
2, 14227320, Note_on_c, 0, 54, 0
2, 14227320, Note_on_c, 0, 55, 100
2, 14227440, Note_on_c, 0, 55, 0
2, 14227440, Note_on_c, 0, 62, 100
2, 14228160, Note_on_c, 0, 62, 0
2, 14228160, Note_on_c, 0, 60, 100
2, 14228400, Note_on_c, 0, 60, 0
2, 14228400, Note_on_c, 0, 59, 100
2, 14228640, Note_on_c, 0, 59, 0
2, 14228640, Note_on_c, 0, 57, 100
2, 14228880, Note_on_c, 0, 57, 0
2, 14228880, Note_on_c, 0, 55, 100
2, 14229360, Note_on_c, 0, 55, 0
2, 14229360, Note_on_c, 0, 54, 100
2, 14229440, Note_on_c, 0, 54, 0
2, 14229440, Note_on_c, 0, 55, 100
2, 14229520, Note_on_c, 0, 55, 0
2, 14229520, Note_on_c, 0, 54, 100
2, 14229600, Note_on_c, 0, 54, 0
2, 14229600, Note_on_c, 0, 55, 100
2, 14229680, Note_on_c, 0, 55, 0
2, 14229680, Note_on_c, 0, 54, 100
2, 14229760, Note_on_c, 0, 54, 0
2, 14229760, Note_on_c, 0, 55, 100
2, 14229840, Note_on_c, 0, 55, 0
2, 14229840, Note_on_c, 0, 54, 100
2, 14229900, Note_on_c, 0, 54, 0
2, 14229900, Note_on_c, 0, 52, 100
2, 14229960, Note_on_c, 0, 52, 0
2, 14229960, Note_on_c, 0, 54, 100
2, 14230020, Note_on_c, 0, 54, 0
2, 14230020, Note_on_c, 0, 50, 100
2, 14230080, Note_on_c, 0, 50, 0
2, 14230080, Note_on_c, 0, 67, 100
2, 14231760, Note_on_c, 0, 67, 0
2, 14231760, Note_on_c, 0, 69, 100
2, 14232720, Note_on_c, 0, 69, 0
2, 14232720, Note_on_c, 0, 67, 100
2, 14233200, Note_on_c, 0, 67, 0
2, 14233200, Note_on_c, 0, 69, 100
2, 14233440, Note_on_c, 0, 69, 0
2, 14233440, Note_on_c, 0, 67, 100
2, 14233680, Note_on_c, 0, 67, 0
2, 14233680, Note_on_c, 0, 66, 100
2, 14233920, Note_on_c, 0, 66, 0
2, 14233920, Note_on_c, 0, 64, 100
2, 14234160, Note_on_c, 0, 64, 0
2, 14234160, Note_on_c, 0, 62, 100
2, 14234400, Note_on_c, 0, 62, 0
2, 14234400, Note_on_c, 0, 61, 100
2, 14234640, Note_on_c, 0, 61, 0
2, 14234640, Note_on_c, 0, 54, 100
2, 14235120, Note_on_c, 0, 54, 0
2, 14235120, Note_on_c, 0, 55, 100
2, 14235360, Note_on_c, 0, 55, 0
2, 14235360, Note_on_c, 0, 57, 100
2, 14235600, Note_on_c, 0, 57, 0
2, 14235600, Note_on_c, 0, 54, 100
2, 14235840, Note_on_c, 0, 54, 0
2, 14235840, Note_on_c, 0, 55, 100
2, 14236080, Note_on_c, 0, 55, 0
2, 14236080, Note_on_c, 0, 54, 100
2, 14236320, Note_on_c, 0, 54, 0
2, 14236320, Note_on_c, 0, 52, 100
2, 14236560, Note_on_c, 0, 52, 0
2, 14236560, Note_on_c, 0, 50, 100
2, 14236800, Note_on_c, 0, 50, 0
2, 14236800, Note_on_c, 0, 49, 100
2, 14237040, Note_on_c, 0, 49, 0
2, 14237040, Note_on_c, 0, 50, 100
2, 14237280, Note_on_c, 0, 50, 0
2, 14237280, Note_on_c, 0, 52, 100
2, 14237520, Note_on_c, 0, 52, 0
2, 14237520, Note_on_c, 0, 49, 100
2, 14237760, Note_on_c, 0, 49, 0
2, 14237760, Note_on_c, 0, 50, 100
2, 14238480, Note_on_c, 0, 50, 0
2, 14238480, Note_on_c, 0, 66, 100
2, 14238720, Note_on_c, 0, 66, 0
2, 14238720, Note_on_c, 0, 62, 100
2, 14238960, Note_on_c, 0, 62, 0
2, 14238960, Note_on_c, 0, 66, 100
2, 14239200, Note_on_c, 0, 66, 0
2, 14239200, Note_on_c, 0, 62, 100
2, 14239440, Note_on_c, 0, 62, 0
2, 14239440, Note_on_c, 0, 66, 100
2, 14239680, Note_on_c, 0, 66, 0
2, 14239680, Note_on_c, 0, 67, 100
2, 14239920, Note_on_c, 0, 67, 0
2, 14239920, Note_on_c, 0, 62, 100
2, 14240400, Note_on_c, 0, 62, 0
2, 14240400, Note_on_c, 0, 67, 100
2, 14240640, Note_on_c, 0, 67, 0
2, 14240640, Note_on_c, 0, 64, 100
2, 14240880, Note_on_c, 0, 64, 0
2, 14240880, Note_on_c, 0, 66, 100
2, 14242320, Note_on_c, 0, 66, 0
2, 14242320, Note_on_c, 0, 67, 100
2, 14243280, Note_on_c, 0, 67, 0
2, 14243280, Note_on_c, 0, 66, 100
2, 14243760, Note_on_c, 0, 66, 0
2, 14243760, Note_on_c, 0, 67, 100
2, 14244000, Note_on_c, 0, 67, 0
2, 14244000, Note_on_c, 0, 66, 100
2, 14244240, Note_on_c, 0, 66, 0
2, 14244240, Note_on_c, 0, 64, 100
2, 14244480, Note_on_c, 0, 64, 0
2, 14244480, Note_on_c, 0, 63, 100
2, 14244720, Note_on_c, 0, 63, 0
2, 14244720, Note_on_c, 0, 64, 100
2, 14244960, Note_on_c, 0, 64, 0
2, 14244960, Note_on_c, 0, 66, 100
2, 14245080, Note_on_c, 0, 66, 0
2, 14245080, Note_on_c, 0, 59, 100
2, 14245200, Note_on_c, 0, 59, 0
2, 14245200, Note_on_c, 0, 57, 100
2, 14245920, Note_on_c, 0, 57, 0
2, 14245920, Note_on_c, 0, 59, 100
2, 14246040, Note_on_c, 0, 59, 0
2, 14246040, Note_on_c, 0, 55, 100
2, 14246160, Note_on_c, 0, 55, 0
2, 14246160, Note_on_c, 0, 57, 100
2, 14246400, Note_on_c, 0, 57, 0
2, 14246400, Note_on_c, 0, 59, 100
2, 14246520, Note_on_c, 0, 59, 0
2, 14246520, Note_on_c, 0, 60, 100
2, 14246640, Note_on_c, 0, 60, 0
2, 14246640, Note_on_c, 0, 62, 100
2, 14246880, Note_on_c, 0, 62, 0
2, 14246880, Note_on_c, 0, 64, 100
2, 14247120, Note_on_c, 0, 64, 0
2, 14247120, Note_on_c, 0, 66, 100
2, 14247360, Note_on_c, 0, 66, 0
2, 14247360, Note_on_c, 0, 67, 100
2, 14247600, Note_on_c, 0, 67, 0
2, 14247600, Note_on_c, 0, 66, 100
2, 14247840, Note_on_c, 0, 66, 0
2, 14247840, Note_on_c, 0, 64, 100
2, 14247960, Note_on_c, 0, 64, 0
2, 14247960, Note_on_c, 0, 62, 100
2, 14248080, Note_on_c, 0, 62, 0
2, 14248080, Note_on_c, 0, 69, 100
2, 14248800, Note_on_c, 0, 69, 0
2, 14248800, Note_on_c, 0, 64, 100
2, 14249040, Note_on_c, 0, 64, 0
2, 14249040, Note_on_c, 0, 62, 100
2, 14249280, Note_on_c, 0, 62, 0
2, 14249280, Note_on_c, 0, 64, 100
2, 14249400, Note_on_c, 0, 64, 0
2, 14249400, Note_on_c, 0, 66, 100
2, 14249520, Note_on_c, 0, 66, 0
2, 14249520, Note_on_c, 0, 67, 100
2, 14249760, Note_on_c, 0, 67, 0
2, 14249760, Note_on_c, 0, 66, 100
2, 14250240, Note_on_c, 0, 66, 0
2, 14250240, Note_on_c, 0, 62, 100
2, 14250960, Note_on_c, 0, 62, 0
2, 14250960, Note_on_c, 0, 64, 100
2, 14251920, Note_on_c, 0, 64, 0
2, 14251920, Note_on_c, 0, 62, 100
2, 14252400, Note_on_c, 0, 62, 0
2, 14252400, Note_on_c, 0, 64, 100
2, 14252640, Note_on_c, 0, 64, 0
2, 14252640, Note_on_c, 0, 62, 100
2, 14252880, Note_on_c, 0, 62, 0
2, 14252880, Note_on_c, 0, 60, 100
2, 14253120, Note_on_c, 0, 60, 0
2, 14253120, Note_on_c, 0, 59, 100
2, 14253360, Note_on_c, 0, 59, 0
2, 14253360, Note_on_c, 0, 57, 100
2, 14253600, Note_on_c, 0, 57, 0
2, 14253600, Note_on_c, 0, 55, 100
2, 14253840, Note_on_c, 0, 55, 0
2, 14253840, Note_on_c, 0, 66, 100
2, 14254080, Note_on_c, 0, 66, 0
2, 14254080, Note_on_c, 0, 62, 100
2, 14254320, Note_on_c, 0, 62, 0
2, 14254320, Note_on_c, 0, 66, 100
2, 14254560, Note_on_c, 0, 66, 0
2, 14254560, Note_on_c, 0, 62, 100
2, 14254800, Note_on_c, 0, 62, 0
2, 14254800, Note_on_c, 0, 66, 100
2, 14255040, Note_on_c, 0, 66, 0
2, 14255040, Note_on_c, 0, 67, 100
2, 14255280, Note_on_c, 0, 67, 0
2, 14255280, Note_on_c, 0, 62, 100
2, 14255760, Note_on_c, 0, 62, 0
2, 14255760, Note_on_c, 0, 67, 100
2, 14256000, Note_on_c, 0, 67, 0
2, 14256000, Note_on_c, 0, 64, 100
2, 14256240, Note_on_c, 0, 64, 0
2, 14256240, Note_on_c, 0, 66, 100
2, 14257680, Note_on_c, 0, 66, 0
2, 14257680, Note_on_c, 0, 67, 100
2, 14258640, Note_on_c, 0, 67, 0
2, 14258640, Note_on_c, 0, 66, 100
2, 14259120, Note_on_c, 0, 66, 0
2, 14259120, Note_on_c, 0, 67, 100
2, 14259360, Note_on_c, 0, 67, 0
2, 14259360, Note_on_c, 0, 66, 100
2, 14259600, Note_on_c, 0, 66, 0
2, 14259600, Note_on_c, 0, 64, 100
2, 14259840, Note_on_c, 0, 64, 0
2, 14259840, Note_on_c, 0, 63, 100
2, 14260080, Note_on_c, 0, 63, 0
2, 14260080, Note_on_c, 0, 64, 100
2, 14260320, Note_on_c, 0, 64, 0
2, 14260320, Note_on_c, 0, 66, 100
2, 14260440, Note_on_c, 0, 66, 0
2, 14260440, Note_on_c, 0, 59, 100
2, 14260560, Note_on_c, 0, 59, 0
2, 14260560, Note_on_c, 0, 57, 100
2, 14261280, Note_on_c, 0, 57, 0
2, 14261280, Note_on_c, 0, 59, 100
2, 14261400, Note_on_c, 0, 59, 0
2, 14261400, Note_on_c, 0, 55, 100
2, 14261520, Note_on_c, 0, 55, 0
2, 14261520, Note_on_c, 0, 57, 100
2, 14261760, Note_on_c, 0, 57, 0
2, 14261760, Note_on_c, 0, 59, 100
2, 14261880, Note_on_c, 0, 59, 0
2, 14261880, Note_on_c, 0, 60, 100
2, 14262000, Note_on_c, 0, 60, 0
2, 14262000, Note_on_c, 0, 62, 100
2, 14262240, Note_on_c, 0, 62, 0
2, 14262240, Note_on_c, 0, 64, 100
2, 14262480, Note_on_c, 0, 64, 0
2, 14262480, Note_on_c, 0, 66, 100
2, 14262720, Note_on_c, 0, 66, 0
2, 14262720, Note_on_c, 0, 67, 100
2, 14262960, Note_on_c, 0, 67, 0
2, 14262960, Note_on_c, 0, 66, 100
2, 14263200, Note_on_c, 0, 66, 0
2, 14263200, Note_on_c, 0, 64, 100
2, 14263320, Note_on_c, 0, 64, 0
2, 14263320, Note_on_c, 0, 62, 100
2, 14263440, Note_on_c, 0, 62, 0
2, 14263440, Note_on_c, 0, 69, 100
2, 14264160, Note_on_c, 0, 69, 0
2, 14264160, Note_on_c, 0, 64, 100
2, 14264400, Note_on_c, 0, 64, 0
2, 14264400, Note_on_c, 0, 62, 100
2, 14264640, Note_on_c, 0, 62, 0
2, 14264640, Note_on_c, 0, 64, 100
2, 14264760, Note_on_c, 0, 64, 0
2, 14264760, Note_on_c, 0, 66, 100
2, 14264880, Note_on_c, 0, 66, 0
2, 14264880, Note_on_c, 0, 67, 100
2, 14265120, Note_on_c, 0, 67, 0
2, 14265120, Note_on_c, 0, 66, 100
2, 14265600, Note_on_c, 0, 66, 0
2, 14265600, Note_on_c, 0, 62, 100
2, 14266320, Note_on_c, 0, 62, 0
2, 14266320, Note_on_c, 0, 64, 100
2, 14267280, Note_on_c, 0, 64, 0
2, 14267280, Note_on_c, 0, 62, 100
2, 14267760, Note_on_c, 0, 62, 0
2, 14267760, Note_on_c, 0, 64, 100
2, 14268000, Note_on_c, 0, 64, 0
2, 14268000, Note_on_c, 0, 62, 100
2, 14268240, Note_on_c, 0, 62, 0
2, 14268240, Note_on_c, 0, 60, 100
2, 14268480, Note_on_c, 0, 60, 0
2, 14268480, Note_on_c, 0, 59, 100
2, 14268720, Note_on_c, 0, 59, 0
2, 14268720, Note_on_c, 0, 57, 100
2, 14268960, Note_on_c, 0, 57, 0
2, 14268960, Note_on_c, 0, 55, 100
2, 14269200, Note_on_c, 0, 55, 0
2, 14269200, Note_on_c, 0, 59, 100
2, 14270160, Note_on_c, 0, 59, 0
2, 14270160, Note_on_c, 0, 57, 100
2, 14271600, Note_on_c, 0, 57, 0
2, 14271600, Note_on_c, 0, 55, 100
2, 14273040, Note_on_c, 0, 55, 0
2, 14273040, Note_on_c, 0, 54, 100
2, 14274480, Note_on_c, 0, 54, 0
2, 14274480, Note_on_c, 0, 50, 100
2, 14275920, Note_on_c, 0, 50, 0
2, 14275920, Note_on_c, 0, 52, 100
2, 14277360, Note_on_c, 0, 52, 0
2, 14277360, Note_on_c, 0, 64, 100
2, 14282160, Note_on_c, 0, 64, 0
2, 14282160, Note_on_c, 0, 74, 100
2, 14283120, Note_on_c, 0, 74, 0
2, 14283120, Note_on_c, 0, 64, 100
2, 14284560, Note_on_c, 0, 64, 0
2, 14284560, Note_on_c, 0, 62, 100
2, 14285280, Note_on_c, 0, 62, 0
2, 14285280, Note_on_c, 0, 61, 100
2, 14285520, Note_on_c, 0, 61, 0
2, 14285520, Note_on_c, 0, 62, 100
2, 14285760, Note_on_c, 0, 62, 0
2, 14285760, Note_on_c, 0, 64, 100
2, 14286000, Note_on_c, 0, 64, 0
2, 14286000, Note_on_c, 0, 62, 100
2, 14287920, Note_on_c, 0, 62, 0
2, 14287920, Note_on_c, 0, 64, 100
2, 14289360, Note_on_c, 0, 64, 0
2, 14289360, Note_on_c, 0, 66, 100
2, 14289840, Note_on_c, 0, 66, 0
2, 14289840, Note_on_c, 0, 64, 100
2, 14290320, Note_on_c, 0, 64, 0
2, 14290320, Note_on_c, 0, 66, 100
2, 14290680, Note_on_c, 0, 66, 0
2, 14290680, Note_on_c, 0, 67, 100
2, 14290800, Note_on_c, 0, 67, 0
2, 14290800, Note_on_c, 0, 66, 100
2, 14291760, Note_on_c, 0, 66, 0
2, 14291760, Note_on_c, 0, 59, 100
2, 14293200, Note_on_c, 0, 59, 0
2, 14293200, Note_on_c, 0, 57, 100
2, 14294640, Note_on_c, 0, 57, 0
2, 14294640, Note_on_c, 0, 55, 100
2, 14296080, Note_on_c, 0, 55, 0
2, 14296080, Note_on_c, 0, 54, 100
2, 14297520, Note_on_c, 0, 54, 0
2, 14297520, Note_on_c, 0, 50, 100
2, 14298960, Note_on_c, 0, 50, 0
2, 14298960, Note_on_c, 0, 52, 100
2, 14300400, Note_on_c, 0, 52, 0
2, 14300400, Note_on_c, 0, 64, 100
2, 14305200, Note_on_c, 0, 64, 0
2, 14305200, Note_on_c, 0, 74, 100
2, 14306160, Note_on_c, 0, 74, 0
2, 14306160, Note_on_c, 0, 64, 100
2, 14307600, Note_on_c, 0, 64, 0
2, 14307600, Note_on_c, 0, 62, 100
2, 14308320, Note_on_c, 0, 62, 0
2, 14308320, Note_on_c, 0, 61, 100
2, 14308560, Note_on_c, 0, 61, 0
2, 14308560, Note_on_c, 0, 62, 100
2, 14308800, Note_on_c, 0, 62, 0
2, 14308800, Note_on_c, 0, 64, 100
2, 14309040, Note_on_c, 0, 64, 0
2, 14309040, Note_on_c, 0, 62, 100
2, 14310960, Note_on_c, 0, 62, 0
2, 14310960, Note_on_c, 0, 64, 100
2, 14312400, Note_on_c, 0, 64, 0
2, 14312400, Note_on_c, 0, 66, 100
2, 14312880, Note_on_c, 0, 66, 0
2, 14312880, Note_on_c, 0, 64, 100
2, 14313360, Note_on_c, 0, 64, 0
2, 14313360, Note_on_c, 0, 66, 100
2, 14313720, Note_on_c, 0, 66, 0
2, 14313720, Note_on_c, 0, 67, 100
2, 14313840, Note_on_c, 0, 67, 0
2, 14313840, Note_on_c, 0, 66, 100
2, 14314800, Note_on_c, 0, 66, 0
2, 14314800, Note_on_c, 0, 64, 100
2, 14316000, Note_on_c, 0, 64, 0
2, 14316000, Note_on_c, 0, 66, 100
2, 14316240, Note_on_c, 0, 66, 0
2, 14316240, Note_on_c, 0, 64, 100
2, 14316270, Note_on_c, 0, 64, 0
2, 14316270, Note_on_c, 0, 66, 100
2, 14316300, Note_on_c, 0, 66, 0
2, 14316300, Note_on_c, 0, 60, 100
2, 14317440, Note_on_c, 0, 60, 0
2, 14317440, Note_on_c, 0, 62, 100
2, 14317680, Note_on_c, 0, 62, 0
2, 14317680, Note_on_c, 0, 64, 100
2, 14318880, Note_on_c, 0, 64, 0
2, 14318880, Note_on_c, 0, 67, 100
2, 14319600, Note_on_c, 0, 67, 0
2, 14319600, Note_on_c, 0, 66, 100
2, 14319640, Note_on_c, 0, 66, 0
2, 14319640, Note_on_c, 0, 67, 100
2, 14319680, Note_on_c, 0, 67, 0
2, 14319680, Note_on_c, 0, 66, 100
2, 14319720, Note_on_c, 0, 66, 0
2, 14319720, Note_on_c, 0, 64, 100
2, 14319840, Note_on_c, 0, 64, 0
2, 14319840, Note_on_c, 0, 63, 100
2, 14320080, Note_on_c, 0, 63, 0
2, 14320080, Note_on_c, 0, 64, 100
2, 14320320, Note_on_c, 0, 64, 0
2, 14320320, Note_on_c, 0, 66, 100
2, 14320560, Note_on_c, 0, 66, 0
2, 14320560, Note_on_c, 0, 57, 100
2, 14322000, Note_on_c, 0, 57, 0
2, 14322000, Note_on_c, 0, 55, 100
2, 14322040, Note_on_c, 0, 55, 0
2, 14322040, Note_on_c, 0, 57, 100
2, 14322080, Note_on_c, 0, 57, 0
2, 14322080, Note_on_c, 0, 55, 100
2, 14322120, Note_on_c, 0, 55, 0
2, 14322120, Note_on_c, 0, 54, 100
2, 14322240, Note_on_c, 0, 54, 0
2, 14322240, Note_on_c, 0, 55, 100
2, 14322480, Note_on_c, 0, 55, 0
2, 14322480, Note_on_c, 0, 57, 100
2, 14323440, Note_on_c, 0, 57, 0
2, 14323440, Note_on_c, 0, 55, 100
2, 14323480, Note_on_c, 0, 55, 0
2, 14323480, Note_on_c, 0, 57, 100
2, 14323520, Note_on_c, 0, 57, 0
2, 14323520, Note_on_c, 0, 55, 100
2, 14323560, Note_on_c, 0, 55, 0
2, 14323560, Note_on_c, 0, 54, 100
2, 14323680, Note_on_c, 0, 54, 0
2, 14323680, Note_on_c, 0, 55, 100
2, 14323920, Note_on_c, 0, 55, 0
2, 14323920, Note_on_c, 0, 59, 100
2, 14324160, Note_on_c, 0, 59, 0
2, 14324160, Note_on_c, 0, 51, 100
2, 14325600, Note_on_c, 0, 51, 0
2, 14325600, Note_on_c, 0, 52, 100
2, 14327760, Note_on_c, 0, 52, 0
2, 14327760, Note_on_c, 0, 64, 100
2, 14339040, Note_on_c, 0, 64, 0
2, 14339040, Note_on_c, 0, 66, 100
2, 14339280, Note_on_c, 0, 66, 0
2, 14339280, Note_on_c, 0, 64, 100
2, 14339310, Note_on_c, 0, 64, 0
2, 14339310, Note_on_c, 0, 66, 100
2, 14339340, Note_on_c, 0, 66, 0
2, 14339340, Note_on_c, 0, 60, 100
2, 14340480, Note_on_c, 0, 60, 0
2, 14340480, Note_on_c, 0, 62, 100
2, 14340720, Note_on_c, 0, 62, 0
2, 14340720, Note_on_c, 0, 64, 100
2, 14341920, Note_on_c, 0, 64, 0
2, 14341920, Note_on_c, 0, 67, 100
2, 14342640, Note_on_c, 0, 67, 0
2, 14342640, Note_on_c, 0, 66, 100
2, 14342680, Note_on_c, 0, 66, 0
2, 14342680, Note_on_c, 0, 67, 100
2, 14342720, Note_on_c, 0, 67, 0
2, 14342720, Note_on_c, 0, 66, 100
2, 14342760, Note_on_c, 0, 66, 0
2, 14342760, Note_on_c, 0, 64, 100
2, 14342880, Note_on_c, 0, 64, 0
2, 14342880, Note_on_c, 0, 63, 100
2, 14343120, Note_on_c, 0, 63, 0
2, 14343120, Note_on_c, 0, 64, 100
2, 14343360, Note_on_c, 0, 64, 0
2, 14343360, Note_on_c, 0, 66, 100
2, 14343600, Note_on_c, 0, 66, 0
2, 14343600, Note_on_c, 0, 57, 100
2, 14345040, Note_on_c, 0, 57, 0
2, 14345040, Note_on_c, 0, 55, 100
2, 14345080, Note_on_c, 0, 55, 0
2, 14345080, Note_on_c, 0, 57, 100
2, 14345120, Note_on_c, 0, 57, 0
2, 14345120, Note_on_c, 0, 55, 100
2, 14345160, Note_on_c, 0, 55, 0
2, 14345160, Note_on_c, 0, 54, 100
2, 14345280, Note_on_c, 0, 54, 0
2, 14345280, Note_on_c, 0, 55, 100
2, 14345520, Note_on_c, 0, 55, 0
2, 14345520, Note_on_c, 0, 57, 100
2, 14346480, Note_on_c, 0, 57, 0
2, 14346480, Note_on_c, 0, 55, 100
2, 14346520, Note_on_c, 0, 55, 0
2, 14346520, Note_on_c, 0, 57, 100
2, 14346560, Note_on_c, 0, 57, 0
2, 14346560, Note_on_c, 0, 55, 100
2, 14346600, Note_on_c, 0, 55, 0
2, 14346600, Note_on_c, 0, 54, 100
2, 14346720, Note_on_c, 0, 54, 0
2, 14346720, Note_on_c, 0, 55, 100
2, 14346960, Note_on_c, 0, 55, 0
2, 14346960, Note_on_c, 0, 59, 100
2, 14347200, Note_on_c, 0, 59, 0
2, 14347200, Note_on_c, 0, 51, 100
2, 14348640, Note_on_c, 0, 51, 0
2, 14348640, Note_on_c, 0, 52, 100
2, 14350800, Note_on_c, 0, 52, 0
2, 14350800, Note_on_c, 0, 55, 100
2, 14363280, Note_on_c, 0, 55, 0
2, 14363280, Note_on_c, 0, 54, 100
2, 14363760, Note_on_c, 0, 54, 0
2, 14363760, Note_on_c, 0, 52, 100
2, 14364240, Note_on_c, 0, 52, 0
2, 14364240, Note_on_c, 0, 50, 100
2, 14364720, Note_on_c, 0, 50, 0
2, 14364720, Note_on_c, 0, 47, 100
2, 14365200, Note_on_c, 0, 47, 0
2, 14365200, Note_on_c, 0, 48, 100
2, 14365680, Note_on_c, 0, 48, 0
2, 14365680, Note_on_c, 0, 50, 100
2, 14366160, Note_on_c, 0, 50, 0
2, 14366160, Note_on_c, 0, 43, 100
2, 14366640, Note_on_c, 0, 43, 0
2, 14366640, Note_on_c, 0, 55, 100
2, 14367120, Note_on_c, 0, 55, 0
2, 14367120, Note_on_c, 0, 54, 100
2, 14367600, Note_on_c, 0, 54, 0
2, 14367600, Note_on_c, 0, 52, 100
2, 14368080, Note_on_c, 0, 52, 0
2, 14368080, Note_on_c, 0, 50, 100
2, 14368560, Note_on_c, 0, 50, 0
2, 14368560, Note_on_c, 0, 47, 100
2, 14369040, Note_on_c, 0, 47, 0
2, 14369040, Note_on_c, 0, 48, 100
2, 14369520, Note_on_c, 0, 48, 0
2, 14369520, Note_on_c, 0, 50, 100
2, 14370000, Note_on_c, 0, 50, 0
2, 14370000, Note_on_c, 0, 43, 100
2, 14370480, Note_on_c, 0, 43, 0
2, 14370480, Note_on_c, 0, 50, 100
2, 14371920, Note_on_c, 0, 50, 0
2, 14371920, Note_on_c, 0, 52, 100
2, 14372400, Note_on_c, 0, 52, 0
2, 14372400, Note_on_c, 0, 54, 100
2, 14372880, Note_on_c, 0, 54, 0
2, 14372880, Note_on_c, 0, 55, 100
2, 14373360, Note_on_c, 0, 55, 0
2, 14373360, Note_on_c, 0, 59, 100
2, 14373840, Note_on_c, 0, 59, 0
2, 14373840, Note_on_c, 0, 57, 100
2, 14374320, Note_on_c, 0, 57, 0
2, 14374320, Note_on_c, 0, 55, 100
2, 14374800, Note_on_c, 0, 55, 0
2, 14374800, Note_on_c, 0, 62, 100
2, 14375280, Note_on_c, 0, 62, 0
2, 14375280, Note_on_c, 0, 50, 100
2, 14375760, Note_on_c, 0, 50, 0
2, 14375760, Note_on_c, 0, 52, 100
2, 14376240, Note_on_c, 0, 52, 0
2, 14376240, Note_on_c, 0, 54, 100
2, 14376720, Note_on_c, 0, 54, 0
2, 14376720, Note_on_c, 0, 55, 100
2, 14377200, Note_on_c, 0, 55, 0
2, 14377200, Note_on_c, 0, 59, 100
2, 14377680, Note_on_c, 0, 59, 0
2, 14377680, Note_on_c, 0, 57, 100
2, 14378160, Note_on_c, 0, 57, 0
2, 14378160, Note_on_c, 0, 55, 100
2, 14378640, Note_on_c, 0, 55, 0
2, 14378640, Note_on_c, 0, 62, 100
2, 14379120, Note_on_c, 0, 62, 0
2, 14379120, Note_on_c, 0, 55, 100
2, 14380560, Note_on_c, 0, 55, 0
2, 14380560, Note_on_c, 0, 54, 100
2, 14381040, Note_on_c, 0, 54, 0
2, 14381040, Note_on_c, 0, 52, 100
2, 14381520, Note_on_c, 0, 52, 0
2, 14381520, Note_on_c, 0, 50, 100
2, 14382000, Note_on_c, 0, 50, 0
2, 14382000, Note_on_c, 0, 47, 100
2, 14382480, Note_on_c, 0, 47, 0
2, 14382480, Note_on_c, 0, 48, 100
2, 14382960, Note_on_c, 0, 48, 0
2, 14382960, Note_on_c, 0, 50, 100
2, 14383440, Note_on_c, 0, 50, 0
2, 14383440, Note_on_c, 0, 43, 100
2, 14383920, Note_on_c, 0, 43, 0
2, 14383920, Note_on_c, 0, 55, 100
2, 14384400, Note_on_c, 0, 55, 0
2, 14384400, Note_on_c, 0, 54, 100
2, 14384880, Note_on_c, 0, 54, 0
2, 14384880, Note_on_c, 0, 52, 100
2, 14385360, Note_on_c, 0, 52, 0
2, 14385360, Note_on_c, 0, 50, 100
2, 14385840, Note_on_c, 0, 50, 0
2, 14385840, Note_on_c, 0, 47, 100
2, 14386320, Note_on_c, 0, 47, 0
2, 14386320, Note_on_c, 0, 48, 100
2, 14386800, Note_on_c, 0, 48, 0
2, 14386800, Note_on_c, 0, 50, 100
2, 14387280, Note_on_c, 0, 50, 0
2, 14387280, Note_on_c, 0, 43, 100
2, 14387760, Note_on_c, 0, 43, 0
2, 14387760, Note_on_c, 0, 55, 100
2, 14388240, Note_on_c, 0, 55, 0
2, 14388240, Note_on_c, 0, 54, 100
2, 14388720, Note_on_c, 0, 54, 0
2, 14388720, Note_on_c, 0, 52, 100
2, 14389200, Note_on_c, 0, 52, 0
2, 14389200, Note_on_c, 0, 50, 100
2, 14389680, Note_on_c, 0, 50, 0
2, 14389680, Note_on_c, 0, 47, 100
2, 14390160, Note_on_c, 0, 47, 0
2, 14390160, Note_on_c, 0, 48, 100
2, 14390640, Note_on_c, 0, 48, 0
2, 14390640, Note_on_c, 0, 50, 100
2, 14391120, Note_on_c, 0, 50, 0
2, 14391120, Note_on_c, 0, 43, 100
2, 14391600, Note_on_c, 0, 43, 0
2, 14391600, Note_on_c, 0, 50, 100
2, 14393040, Note_on_c, 0, 50, 0
2, 14393040, Note_on_c, 0, 52, 100
2, 14393520, Note_on_c, 0, 52, 0
2, 14393520, Note_on_c, 0, 54, 100
2, 14394000, Note_on_c, 0, 54, 0
2, 14394000, Note_on_c, 0, 55, 100
2, 14394480, Note_on_c, 0, 55, 0
2, 14394480, Note_on_c, 0, 59, 100
2, 14394960, Note_on_c, 0, 59, 0
2, 14394960, Note_on_c, 0, 57, 100
2, 14395440, Note_on_c, 0, 57, 0
2, 14395440, Note_on_c, 0, 55, 100
2, 14395920, Note_on_c, 0, 55, 0
2, 14395920, Note_on_c, 0, 62, 100
2, 14396400, Note_on_c, 0, 62, 0
2, 14396400, Note_on_c, 0, 50, 100
2, 14396880, Note_on_c, 0, 50, 0
2, 14396880, Note_on_c, 0, 52, 100
2, 14397360, Note_on_c, 0, 52, 0
2, 14397360, Note_on_c, 0, 54, 100
2, 14397840, Note_on_c, 0, 54, 0
2, 14397840, Note_on_c, 0, 55, 100
2, 14398320, Note_on_c, 0, 55, 0
2, 14398320, Note_on_c, 0, 59, 100
2, 14398800, Note_on_c, 0, 59, 0
2, 14398800, Note_on_c, 0, 57, 100
2, 14399280, Note_on_c, 0, 57, 0
2, 14399280, Note_on_c, 0, 55, 100
2, 14399760, Note_on_c, 0, 55, 0
2, 14399760, Note_on_c, 0, 62, 100
2, 14400240, Note_on_c, 0, 62, 0
2, 14400240, Note_on_c, 0, 50, 100
2, 14400720, Note_on_c, 0, 50, 0
2, 14400720, Note_on_c, 0, 52, 100
2, 14401200, Note_on_c, 0, 52, 0
2, 14401200, Note_on_c, 0, 54, 100
2, 14401680, Note_on_c, 0, 54, 0
2, 14401680, Note_on_c, 0, 55, 100
2, 14402160, Note_on_c, 0, 55, 0
2, 14402160, Note_on_c, 0, 50, 100
2, 14405520, Note_on_c, 0, 50, 0
2, 14405520, Note_on_c, 0, 52, 100
2, 14406000, Note_on_c, 0, 52, 0
2, 14406000, Note_on_c, 0, 54, 100
2, 14406480, Note_on_c, 0, 54, 0
2, 14406480, Note_on_c, 0, 55, 100
2, 14406960, Note_on_c, 0, 55, 0
2, 14406960, Note_on_c, 0, 59, 100
2, 14407440, Note_on_c, 0, 59, 0
2, 14407440, Note_on_c, 0, 57, 100
2, 14407920, Note_on_c, 0, 57, 0
2, 14407920, Note_on_c, 0, 55, 100
2, 14408400, Note_on_c, 0, 55, 0
2, 14408400, Note_on_c, 0, 62, 100
2, 14408880, Note_on_c, 0, 62, 0
2, 14408880, Note_on_c, 0, 50, 100
2, 14409360, Note_on_c, 0, 50, 0
2, 14409360, Note_on_c, 0, 52, 100
2, 14409840, Note_on_c, 0, 52, 0
2, 14409840, Note_on_c, 0, 54, 100
2, 14410320, Note_on_c, 0, 54, 0
2, 14410320, Note_on_c, 0, 55, 100
2, 14410800, Note_on_c, 0, 55, 0
2, 14410800, Note_on_c, 0, 59, 100
2, 14411280, Note_on_c, 0, 59, 0
2, 14411280, Note_on_c, 0, 57, 100
2, 14411760, Note_on_c, 0, 57, 0
2, 14411760, Note_on_c, 0, 55, 100
2, 14412240, Note_on_c, 0, 55, 0
2, 14412240, Note_on_c, 0, 62, 100
2, 14412720, Note_on_c, 0, 62, 0
2, 14412720, Note_on_c, 0, 50, 100
2, 14413200, Note_on_c, 0, 50, 0
2, 14413200, Note_on_c, 0, 52, 100
2, 14413680, Note_on_c, 0, 52, 0
2, 14413680, Note_on_c, 0, 54, 100
2, 14414160, Note_on_c, 0, 54, 0
2, 14414160, Note_on_c, 0, 55, 100
2, 14466000, Note_on_c, 0, 55, 0
2, 14466000, Note_on_c, 0, 54, 100
2, 14466480, Note_on_c, 0, 54, 0
2, 14466480, Note_on_c, 0, 52, 100
2, 14466960, Note_on_c, 0, 52, 0
2, 14466960, Note_on_c, 0, 50, 100
2, 14467440, Note_on_c, 0, 50, 0
2, 14467440, Note_on_c, 0, 47, 100
2, 14467920, Note_on_c, 0, 47, 0
2, 14467920, Note_on_c, 0, 48, 100
2, 14468400, Note_on_c, 0, 48, 0
2, 14468400, Note_on_c, 0, 50, 100
2, 14468880, Note_on_c, 0, 50, 0
2, 14468880, Note_on_c, 0, 43, 100
2, 14469360, Note_on_c, 0, 43, 0
2, 14469360, Note_on_c, 0, 55, 100
2, 14469840, Note_on_c, 0, 55, 0
2, 14469840, Note_on_c, 0, 54, 100
2, 14470320, Note_on_c, 0, 54, 0
2, 14470320, Note_on_c, 0, 52, 100
2, 14470800, Note_on_c, 0, 52, 0
2, 14470800, Note_on_c, 0, 50, 100
2, 14471280, Note_on_c, 0, 50, 0
2, 14471280, Note_on_c, 0, 47, 100
2, 14471760, Note_on_c, 0, 47, 0
2, 14471760, Note_on_c, 0, 48, 100
2, 14472240, Note_on_c, 0, 48, 0
2, 14472240, Note_on_c, 0, 50, 100
2, 14472720, Note_on_c, 0, 50, 0
2, 14472720, Note_on_c, 0, 43, 100
2, 14473200, Note_on_c, 0, 43, 0
2, 14473200, Note_on_c, 0, 55, 100
2, 14473680, Note_on_c, 0, 55, 0
2, 14473680, Note_on_c, 0, 54, 100
2, 14474160, Note_on_c, 0, 54, 0
2, 14474160, Note_on_c, 0, 52, 100
2, 14474640, Note_on_c, 0, 52, 0
2, 14474640, Note_on_c, 0, 50, 100
2, 14475120, Note_on_c, 0, 50, 0
2, 14475120, Note_on_c, 0, 47, 100
2, 14475600, Note_on_c, 0, 47, 0
2, 14475600, Note_on_c, 0, 48, 100
2, 14476080, Note_on_c, 0, 48, 0
2, 14476080, Note_on_c, 0, 50, 100
2, 14476560, Note_on_c, 0, 50, 0
2, 14476560, Note_on_c, 0, 43, 100
2, 14477040, Note_on_c, 0, 43, 0
2, 14477040, Note_on_c, 0, 59, 100
2, 14478720, Note_on_c, 0, 59, 0
2, 14478720, Note_on_c, 0, 61, 100
2, 14478960, Note_on_c, 0, 61, 0
2, 14478960, Note_on_c, 0, 63, 100
2, 14479200, Note_on_c, 0, 63, 0
2, 14479200, Note_on_c, 0, 64, 100
2, 14479440, Note_on_c, 0, 64, 0
2, 14479440, Note_on_c, 0, 59, 100
2, 14479680, Note_on_c, 0, 59, 0
2, 14479680, Note_on_c, 0, 61, 100
2, 14479800, Note_on_c, 0, 61, 0
2, 14479800, Note_on_c, 0, 62, 100
2, 14479920, Note_on_c, 0, 62, 0
2, 14479920, Note_on_c, 0, 57, 100
2, 14480160, Note_on_c, 0, 57, 0
2, 14480160, Note_on_c, 0, 59, 100
2, 14480400, Note_on_c, 0, 59, 0
2, 14480400, Note_on_c, 0, 60, 100
2, 14480520, Note_on_c, 0, 60, 0
2, 14480520, Note_on_c, 0, 59, 100
2, 14480640, Note_on_c, 0, 59, 0
2, 14480640, Note_on_c, 0, 57, 100
2, 14480760, Note_on_c, 0, 57, 0
2, 14480760, Note_on_c, 0, 55, 100
2, 14480880, Note_on_c, 0, 55, 0
2, 14480880, Note_on_c, 0, 50, 100
2, 14481600, Note_on_c, 0, 50, 0
2, 14481600, Note_on_c, 0, 62, 100
2, 14481960, Note_on_c, 0, 62, 0
2, 14481960, Note_on_c, 0, 60, 100
2, 14482200, Note_on_c, 0, 60, 0
2, 14482200, Note_on_c, 0, 59, 100
2, 14482320, Note_on_c, 0, 59, 0
2, 14482320, Note_on_c, 0, 57, 100
2, 14482440, Note_on_c, 0, 57, 0
2, 14482440, Note_on_c, 0, 59, 100
2, 14482560, Note_on_c, 0, 59, 0
2, 14482560, Note_on_c, 0, 61, 100
2, 14482800, Note_on_c, 0, 61, 0
2, 14482800, Note_on_c, 0, 63, 100
2, 14483040, Note_on_c, 0, 63, 0
2, 14483040, Note_on_c, 0, 64, 100
2, 14483280, Note_on_c, 0, 64, 0
2, 14483280, Note_on_c, 0, 59, 100
2, 14483520, Note_on_c, 0, 59, 0
2, 14483520, Note_on_c, 0, 61, 100
2, 14483640, Note_on_c, 0, 61, 0
2, 14483640, Note_on_c, 0, 62, 100
2, 14483760, Note_on_c, 0, 62, 0
2, 14483760, Note_on_c, 0, 57, 100
2, 14484000, Note_on_c, 0, 57, 0
2, 14484000, Note_on_c, 0, 59, 100
2, 14484240, Note_on_c, 0, 59, 0
2, 14484240, Note_on_c, 0, 60, 100
2, 14484360, Note_on_c, 0, 60, 0
2, 14484360, Note_on_c, 0, 59, 100
2, 14484480, Note_on_c, 0, 59, 0
2, 14484480, Note_on_c, 0, 57, 100
2, 14484600, Note_on_c, 0, 57, 0
2, 14484600, Note_on_c, 0, 55, 100
2, 14484720, Note_on_c, 0, 55, 0
2, 14484720, Note_on_c, 0, 50, 100
2, 14485440, Note_on_c, 0, 50, 0
2, 14485440, Note_on_c, 0, 62, 100
2, 14485800, Note_on_c, 0, 62, 0
2, 14485800, Note_on_c, 0, 60, 100
2, 14486040, Note_on_c, 0, 60, 0
2, 14486040, Note_on_c, 0, 59, 100
2, 14486160, Note_on_c, 0, 59, 0
2, 14486160, Note_on_c, 0, 57, 100
2, 14486280, Note_on_c, 0, 57, 0
2, 14486280, Note_on_c, 0, 59, 100
2, 14486400, Note_on_c, 0, 59, 0
2, 14486400, Note_on_c, 0, 61, 100
2, 14486640, Note_on_c, 0, 61, 0
2, 14486640, Note_on_c, 0, 63, 100
2, 14486880, Note_on_c, 0, 63, 0
2, 14486880, Note_on_c, 0, 64, 100
2, 14487120, Note_on_c, 0, 64, 0
2, 14487120, Note_on_c, 0, 59, 100
2, 14487360, Note_on_c, 0, 59, 0
2, 14487360, Note_on_c, 0, 61, 100
2, 14487480, Note_on_c, 0, 61, 0
2, 14487480, Note_on_c, 0, 62, 100
2, 14487600, Note_on_c, 0, 62, 0
2, 14487600, Note_on_c, 0, 57, 100
2, 14487840, Note_on_c, 0, 57, 0
2, 14487840, Note_on_c, 0, 59, 100
2, 14488080, Note_on_c, 0, 59, 0
2, 14488080, Note_on_c, 0, 60, 100
2, 14488200, Note_on_c, 0, 60, 0
2, 14488200, Note_on_c, 0, 59, 100
2, 14488320, Note_on_c, 0, 59, 0
2, 14488320, Note_on_c, 0, 57, 100
2, 14488440, Note_on_c, 0, 57, 0
2, 14488440, Note_on_c, 0, 55, 100
2, 14488560, Note_on_c, 0, 55, 0
2, 14488560, Note_on_c, 0, 50, 100
2, 14489280, Note_on_c, 0, 50, 0
2, 14489280, Note_on_c, 0, 67, 100
2, 14491680, Note_on_c, 0, 67, 0
2, 14491680, Note_on_c, 0, 66, 100
2, 14491920, Note_on_c, 0, 66, 0
2, 14491920, Note_on_c, 0, 64, 100
2, 14492160, Note_on_c, 0, 64, 0
2, 14492160, Note_on_c, 0, 62, 100
2, 14492400, Note_on_c, 0, 62, 0
2, 14492400, Note_on_c, 0, 59, 100
2, 14492640, Note_on_c, 0, 59, 0
2, 14492640, Note_on_c, 0, 61, 100
2, 14492880, Note_on_c, 0, 61, 0
2, 14492880, Note_on_c, 0, 62, 100
2, 14493120, Note_on_c, 0, 62, 0
2, 14493120, Note_on_c, 0, 55, 100
2, 14493360, Note_on_c, 0, 55, 0
2, 14493360, Note_on_c, 0, 67, 100
2, 14493600, Note_on_c, 0, 67, 0
2, 14493600, Note_on_c, 0, 61, 100
2, 14493840, Note_on_c, 0, 61, 0
2, 14493840, Note_on_c, 0, 62, 100
2, 14494320, Note_on_c, 0, 62, 0
2, 14494320, Note_on_c, 0, 59, 100
2, 14495520, Note_on_c, 0, 59, 0
2, 14495520, Note_on_c, 0, 60, 100
2, 14495760, Note_on_c, 0, 60, 0
2, 14495760, Note_on_c, 0, 62, 100
2, 14496000, Note_on_c, 0, 62, 0
2, 14496000, Note_on_c, 0, 64, 100
2, 14496240, Note_on_c, 0, 64, 0
2, 14496240, Note_on_c, 0, 67, 100
2, 14496480, Note_on_c, 0, 67, 0
2, 14496480, Note_on_c, 0, 66, 100
2, 14496720, Note_on_c, 0, 66, 0
2, 14496720, Note_on_c, 0, 64, 100
2, 14496960, Note_on_c, 0, 64, 0
2, 14496960, Note_on_c, 0, 62, 100
2, 14497200, Note_on_c, 0, 62, 0
2, 14497200, Note_on_c, 0, 60, 100
2, 14497920, Note_on_c, 0, 60, 0
2, 14497920, Note_on_c, 0, 59, 100
2, 14498160, Note_on_c, 0, 59, 0
2, 14498160, Note_on_c, 0, 67, 100
2, 14499360, Note_on_c, 0, 67, 0
2, 14499360, Note_on_c, 0, 66, 100
2, 14499600, Note_on_c, 0, 66, 0
2, 14499600, Note_on_c, 0, 64, 100
2, 14499840, Note_on_c, 0, 64, 0
2, 14499840, Note_on_c, 0, 62, 100
2, 14500080, Note_on_c, 0, 62, 0
2, 14500080, Note_on_c, 0, 59, 100
2, 14500320, Note_on_c, 0, 59, 0
2, 14500320, Note_on_c, 0, 61, 100
2, 14500560, Note_on_c, 0, 61, 0
2, 14500560, Note_on_c, 0, 62, 100
2, 14500800, Note_on_c, 0, 62, 0
2, 14500800, Note_on_c, 0, 55, 100
2, 14501040, Note_on_c, 0, 55, 0
2, 14501040, Note_on_c, 0, 67, 100
2, 14501280, Note_on_c, 0, 67, 0
2, 14501280, Note_on_c, 0, 61, 100
2, 14501520, Note_on_c, 0, 61, 0
2, 14501520, Note_on_c, 0, 62, 100
2, 14502000, Note_on_c, 0, 62, 0
2, 14502000, Note_on_c, 0, 59, 100
2, 14503200, Note_on_c, 0, 59, 0
2, 14503200, Note_on_c, 0, 60, 100
2, 14503440, Note_on_c, 0, 60, 0
2, 14503440, Note_on_c, 0, 62, 100
2, 14503680, Note_on_c, 0, 62, 0
2, 14503680, Note_on_c, 0, 64, 100
2, 14503920, Note_on_c, 0, 64, 0
2, 14503920, Note_on_c, 0, 67, 100
2, 14504160, Note_on_c, 0, 67, 0
2, 14504160, Note_on_c, 0, 66, 100
2, 14504400, Note_on_c, 0, 66, 0
2, 14504400, Note_on_c, 0, 64, 100
2, 14504640, Note_on_c, 0, 64, 0
2, 14504640, Note_on_c, 0, 62, 100
2, 14504880, Note_on_c, 0, 62, 0
2, 14504880, Note_on_c, 0, 60, 100
2, 14505600, Note_on_c, 0, 60, 0
2, 14505600, Note_on_c, 0, 59, 100
2, 14505840, Note_on_c, 0, 59, 0
2, 14505840, Note_on_c, 0, 67, 100
2, 14507040, Note_on_c, 0, 67, 0
2, 14507040, Note_on_c, 0, 66, 100
2, 14507280, Note_on_c, 0, 66, 0
2, 14507280, Note_on_c, 0, 64, 100
2, 14507520, Note_on_c, 0, 64, 0
2, 14507520, Note_on_c, 0, 62, 100
2, 14507760, Note_on_c, 0, 62, 0
2, 14507760, Note_on_c, 0, 59, 100
2, 14508000, Note_on_c, 0, 59, 0
2, 14508000, Note_on_c, 0, 61, 100
2, 14508240, Note_on_c, 0, 61, 0
2, 14508240, Note_on_c, 0, 62, 100
2, 14508480, Note_on_c, 0, 62, 0
2, 14508480, Note_on_c, 0, 55, 100
2, 14508720, Note_on_c, 0, 55, 0
2, 14508720, Note_on_c, 0, 67, 100
2, 14508960, Note_on_c, 0, 67, 0
2, 14508960, Note_on_c, 0, 61, 100
2, 14509200, Note_on_c, 0, 61, 0
2, 14509200, Note_on_c, 0, 62, 100
2, 14509680, Note_on_c, 0, 62, 0
2, 14509680, Note_on_c, 0, 55, 100
2, 14511600, Note_on_c, 0, 55, 0
2, 14511600, Note_on_c, 0, 57, 100
2, 14512560, Note_on_c, 0, 57, 0
2, 14512560, Note_on_c, 0, 60, 100
2, 14513040, Note_on_c, 0, 60, 0
2, 14513040, Note_on_c, 0, 59, 100
2, 14513520, Note_on_c, 0, 59, 0
2, 14513520, Note_on_c, 0, 57, 100
2, 14514480, Note_on_c, 0, 57, 0
2, 14514480, Note_on_c, 0, 55, 100
2, 14515440, Note_on_c, 0, 55, 0
2, 14515440, Note_on_c, 0, 57, 100
2, 14516400, Note_on_c, 0, 57, 0
2, 14516400, Note_on_c, 0, 60, 100
2, 14516880, Note_on_c, 0, 60, 0
2, 14516880, Note_on_c, 0, 59, 100
2, 14517360, Note_on_c, 0, 59, 0
2, 14517360, Note_on_c, 0, 57, 100
2, 14518320, Note_on_c, 0, 57, 0
2, 14518320, Note_on_c, 0, 55, 100
2, 14519280, Note_on_c, 0, 55, 0
2, 14519280, Note_on_c, 0, 57, 100
2, 14520240, Note_on_c, 0, 57, 0
2, 14520240, Note_on_c, 0, 60, 100
2, 14520720, Note_on_c, 0, 60, 0
2, 14520720, Note_on_c, 0, 59, 100
2, 14521200, Note_on_c, 0, 59, 0
2, 14521200, Note_on_c, 0, 57, 100
2, 14522160, Note_on_c, 0, 57, 0
2, 14522160, Note_on_c, 0, 55, 100
2, 14523120, Note_on_c, 0, 55, 0
2, 14523120, Note_on_c, 0, 57, 100
2, 14527440, Note_on_c, 0, 57, 0
2, 14527440, Note_on_c, 0, 59, 100
2, 14527920, Note_on_c, 0, 59, 0
2, 14527920, Note_on_c, 0, 61, 100
2, 14528400, Note_on_c, 0, 61, 0
2, 14528400, Note_on_c, 0, 62, 100
2, 14528880, Note_on_c, 0, 62, 0
2, 14528880, Note_on_c, 0, 66, 100
2, 14529360, Note_on_c, 0, 66, 0
2, 14529360, Note_on_c, 0, 64, 100
2, 14529840, Note_on_c, 0, 64, 0
2, 14529840, Note_on_c, 0, 62, 100
2, 14530320, Note_on_c, 0, 62, 0
2, 14530320, Note_on_c, 0, 69, 100
2, 14530800, Note_on_c, 0, 69, 0
2, 14530800, Note_on_c, 0, 67, 100
2, 14531280, Note_on_c, 0, 67, 0
2, 14531280, Note_on_c, 0, 66, 100
2, 14531760, Note_on_c, 0, 66, 0
2, 14531760, Note_on_c, 0, 74, 100
2, 14532240, Note_on_c, 0, 74, 0
2, 14532240, Note_on_c, 0, 76, 100
2, 14533200, Note_on_c, 0, 76, 0
2, 14533200, Note_on_c, 0, 78, 100
2, 14533440, Note_on_c, 0, 78, 0
2, 14533440, Note_on_c, 0, 79, 100
2, 14533680, Note_on_c, 0, 79, 0
2, 14533680, Note_on_c, 0, 67, 100
2, 14534160, Note_on_c, 0, 67, 0
2, 14534160, Note_on_c, 0, 57, 100
2, 14535120, Note_on_c, 0, 57, 0
2, 14535120, Note_on_c, 0, 59, 100
2, 14535600, Note_on_c, 0, 59, 0
2, 14535600, Note_on_c, 0, 61, 100
2, 14536080, Note_on_c, 0, 61, 0
2, 14536080, Note_on_c, 0, 62, 100
2, 14536560, Note_on_c, 0, 62, 0
2, 14536560, Note_on_c, 0, 66, 100
2, 14537040, Note_on_c, 0, 66, 0
2, 14537040, Note_on_c, 0, 64, 100
2, 14537520, Note_on_c, 0, 64, 0
2, 14537520, Note_on_c, 0, 62, 100
2, 14538000, Note_on_c, 0, 62, 0
2, 14538000, Note_on_c, 0, 69, 100
2, 14538480, Note_on_c, 0, 69, 0
2, 14538480, Note_on_c, 0, 67, 100
2, 14538960, Note_on_c, 0, 67, 0
2, 14538960, Note_on_c, 0, 66, 100
2, 14539440, Note_on_c, 0, 66, 0
2, 14539440, Note_on_c, 0, 74, 100
2, 14539920, Note_on_c, 0, 74, 0
2, 14539920, Note_on_c, 0, 76, 100
2, 14540880, Note_on_c, 0, 76, 0
2, 14540880, Note_on_c, 0, 78, 100
2, 14541120, Note_on_c, 0, 78, 0
2, 14541120, Note_on_c, 0, 79, 100
2, 14541360, Note_on_c, 0, 79, 0
2, 14541360, Note_on_c, 0, 67, 100
2, 14541840, Note_on_c, 0, 67, 0
2, 14541840, Note_on_c, 0, 57, 100
2, 14542800, Note_on_c, 0, 57, 0
2, 14542800, Note_on_c, 0, 59, 100
2, 14543280, Note_on_c, 0, 59, 0
2, 14543280, Note_on_c, 0, 61, 100
2, 14543760, Note_on_c, 0, 61, 0
2, 14543760, Note_on_c, 0, 62, 100
2, 14544240, Note_on_c, 0, 62, 0
2, 14544240, Note_on_c, 0, 66, 100
2, 14544720, Note_on_c, 0, 66, 0
2, 14544720, Note_on_c, 0, 64, 100
2, 14545200, Note_on_c, 0, 64, 0
2, 14545200, Note_on_c, 0, 62, 100
2, 14545680, Note_on_c, 0, 62, 0
2, 14545680, Note_on_c, 0, 69, 100
2, 14546160, Note_on_c, 0, 69, 0
2, 14546160, Note_on_c, 0, 67, 100
2, 14546640, Note_on_c, 0, 67, 0
2, 14546640, Note_on_c, 0, 66, 100
2, 14547120, Note_on_c, 0, 66, 0
2, 14547120, Note_on_c, 0, 74, 100
2, 14547600, Note_on_c, 0, 74, 0
2, 14547600, Note_on_c, 0, 67, 100
2, 14548080, Note_on_c, 0, 67, 0
2, 14548080, Note_on_c, 0, 54, 100
2, 14548320, Note_on_c, 0, 54, 0
2, 14548320, Note_on_c, 0, 55, 100
2, 14548560, Note_on_c, 0, 55, 0
2, 14548560, Note_on_c, 0, 52, 100
2, 14548800, Note_on_c, 0, 52, 0
2, 14548800, Note_on_c, 0, 54, 100
2, 14549040, Note_on_c, 0, 54, 0
2, 14549040, Note_on_c, 0, 52, 100
2, 14549280, Note_on_c, 0, 52, 0
2, 14549280, Note_on_c, 0, 54, 100
2, 14549520, Note_on_c, 0, 54, 0
2, 14549520, Note_on_c, 0, 50, 100
2, 14549760, Note_on_c, 0, 50, 0
2, 14549760, Note_on_c, 0, 52, 100
2, 14550000, Note_on_c, 0, 52, 0
2, 14550000, Note_on_c, 0, 50, 100
2, 14550240, Note_on_c, 0, 50, 0
2, 14550240, Note_on_c, 0, 52, 100
2, 14550480, Note_on_c, 0, 52, 0
2, 14550480, Note_on_c, 0, 48, 100
2, 14550720, Note_on_c, 0, 48, 0
2, 14550720, Note_on_c, 0, 50, 100
2, 14550960, Note_on_c, 0, 50, 0
2, 14550960, Note_on_c, 0, 38, 100
2, 14551200, Note_on_c, 0, 38, 0
2, 14551200, Note_on_c, 0, 50, 100
2, 14551440, Note_on_c, 0, 50, 0
2, 14551440, Note_on_c, 0, 48, 100
2, 14551560, Note_on_c, 0, 48, 0
2, 14551560, Note_on_c, 0, 47, 100
2, 14551680, Note_on_c, 0, 47, 0
2, 14551680, Note_on_c, 0, 45, 100
2, 14551800, Note_on_c, 0, 45, 0
2, 14551800, Note_on_c, 0, 47, 100
2, 14551920, Note_on_c, 0, 47, 0
2, 14551920, Note_on_c, 0, 45, 100
2, 14552160, Note_on_c, 0, 45, 0
2, 14552160, Note_on_c, 0, 47, 100
2, 14552400, Note_on_c, 0, 47, 0
2, 14552400, Note_on_c, 0, 43, 100
2, 14552640, Note_on_c, 0, 43, 0
2, 14552640, Note_on_c, 0, 48, 100
2, 14552880, Note_on_c, 0, 48, 0
2, 14552880, Note_on_c, 0, 47, 100
2, 14553120, Note_on_c, 0, 47, 0
2, 14553120, Note_on_c, 0, 48, 100
2, 14553360, Note_on_c, 0, 48, 0
2, 14553360, Note_on_c, 0, 45, 100
2, 14553600, Note_on_c, 0, 45, 0
2, 14553600, Note_on_c, 0, 50, 100
2, 14553840, Note_on_c, 0, 50, 0
2, 14553840, Note_on_c, 0, 48, 100
2, 14554080, Note_on_c, 0, 48, 0
2, 14554080, Note_on_c, 0, 50, 100
2, 14554320, Note_on_c, 0, 50, 0
2, 14554320, Note_on_c, 0, 38, 100
2, 14554560, Note_on_c, 0, 38, 0
2, 14554560, Note_on_c, 0, 43, 100
2, 14554800, Note_on_c, 0, 43, 0
2, 14554800, Note_on_c, 0, 55, 100
2, 14555040, Note_on_c, 0, 55, 0
2, 14555040, Note_on_c, 0, 59, 100
2, 14555280, Note_on_c, 0, 59, 0
2, 14555280, Note_on_c, 0, 62, 100
2, 14555520, Note_on_c, 0, 62, 0
2, 14555520, Note_on_c, 0, 67, 100
2, 14555760, Note_on_c, 0, 67, 0
2, 14555760, Note_on_c, 0, 66, 100
2, 14556000, Note_on_c, 0, 66, 0
2, 14556000, Note_on_c, 0, 67, 100
2, 14556240, Note_on_c, 0, 67, 0
2, 14556240, Note_on_c, 0, 64, 100
2, 14556480, Note_on_c, 0, 64, 0
2, 14556480, Note_on_c, 0, 66, 100
2, 14556720, Note_on_c, 0, 66, 0
2, 14556720, Note_on_c, 0, 64, 100
2, 14556960, Note_on_c, 0, 64, 0
2, 14556960, Note_on_c, 0, 66, 100
2, 14557200, Note_on_c, 0, 66, 0
2, 14557200, Note_on_c, 0, 62, 100
2, 14557440, Note_on_c, 0, 62, 0
2, 14557440, Note_on_c, 0, 64, 100
2, 14557680, Note_on_c, 0, 64, 0
2, 14557680, Note_on_c, 0, 62, 100
2, 14557920, Note_on_c, 0, 62, 0
2, 14557920, Note_on_c, 0, 64, 100
2, 14558160, Note_on_c, 0, 64, 0
2, 14558160, Note_on_c, 0, 59, 100
2, 14558400, Note_on_c, 0, 59, 0
2, 14558400, Note_on_c, 0, 61, 100
2, 14558640, Note_on_c, 0, 61, 0
2, 14558640, Note_on_c, 0, 64, 100
2, 14558880, Note_on_c, 0, 64, 0
2, 14558880, Note_on_c, 0, 62, 100
2, 14559000, Note_on_c, 0, 62, 0
2, 14559000, Note_on_c, 0, 61, 100
2, 14559120, Note_on_c, 0, 61, 0
2, 14559120, Note_on_c, 0, 59, 100
2, 14559240, Note_on_c, 0, 59, 0
2, 14559240, Note_on_c, 0, 57, 100
2, 14559360, Note_on_c, 0, 57, 0
2, 14559360, Note_on_c, 0, 55, 100
2, 14559480, Note_on_c, 0, 55, 0
2, 14559480, Note_on_c, 0, 54, 100
2, 14559600, Note_on_c, 0, 54, 0
2, 14559600, Note_on_c, 0, 52, 100
2, 14559840, Note_on_c, 0, 52, 0
2, 14559840, Note_on_c, 0, 54, 100
2, 14560080, Note_on_c, 0, 54, 0
2, 14560080, Note_on_c, 0, 50, 100
2, 14560320, Note_on_c, 0, 50, 0
2, 14560320, Note_on_c, 0, 55, 100
2, 14560560, Note_on_c, 0, 55, 0
2, 14560560, Note_on_c, 0, 54, 100
2, 14560800, Note_on_c, 0, 54, 0
2, 14560800, Note_on_c, 0, 55, 100
2, 14561040, Note_on_c, 0, 55, 0
2, 14561040, Note_on_c, 0, 52, 100
2, 14561280, Note_on_c, 0, 52, 0
2, 14561280, Note_on_c, 0, 57, 100
2, 14561520, Note_on_c, 0, 57, 0
2, 14561520, Note_on_c, 0, 55, 100
2, 14561760, Note_on_c, 0, 55, 0
2, 14561760, Note_on_c, 0, 57, 100
2, 14562000, Note_on_c, 0, 57, 0
2, 14562000, Note_on_c, 0, 45, 100
2, 14562240, Note_on_c, 0, 45, 0
2, 14562240, Note_on_c, 0, 50, 100
2, 14562480, Note_on_c, 0, 50, 0
2, 14562480, Note_on_c, 0, 62, 100
2, 14562720, Note_on_c, 0, 62, 0
2, 14562720, Note_on_c, 0, 60, 100
2, 14562840, Note_on_c, 0, 60, 0
2, 14562840, Note_on_c, 0, 62, 100
2, 14562960, Note_on_c, 0, 62, 0
2, 14562960, Note_on_c, 0, 60, 100
2, 14563080, Note_on_c, 0, 60, 0
2, 14563080, Note_on_c, 0, 59, 100
2, 14563200, Note_on_c, 0, 59, 0
2, 14563200, Note_on_c, 0, 57, 100
2, 14563320, Note_on_c, 0, 57, 0
2, 14563320, Note_on_c, 0, 55, 100
2, 14563440, Note_on_c, 0, 55, 0
2, 14563440, Note_on_c, 0, 54, 100
2, 14563680, Note_on_c, 0, 54, 0
2, 14563680, Note_on_c, 0, 55, 100
2, 14563920, Note_on_c, 0, 55, 0
2, 14563920, Note_on_c, 0, 52, 100
2, 14564160, Note_on_c, 0, 52, 0
2, 14564160, Note_on_c, 0, 54, 100
2, 14564400, Note_on_c, 0, 54, 0
2, 14564400, Note_on_c, 0, 52, 100
2, 14564640, Note_on_c, 0, 52, 0
2, 14564640, Note_on_c, 0, 54, 100
2, 14564880, Note_on_c, 0, 54, 0
2, 14564880, Note_on_c, 0, 50, 100
2, 14565120, Note_on_c, 0, 50, 0
2, 14565120, Note_on_c, 0, 52, 100
2, 14565360, Note_on_c, 0, 52, 0
2, 14565360, Note_on_c, 0, 50, 100
2, 14565600, Note_on_c, 0, 50, 0
2, 14565600, Note_on_c, 0, 52, 100
2, 14565840, Note_on_c, 0, 52, 0
2, 14565840, Note_on_c, 0, 48, 100
2, 14566080, Note_on_c, 0, 48, 0
2, 14566080, Note_on_c, 0, 50, 100
2, 14566320, Note_on_c, 0, 50, 0
2, 14566320, Note_on_c, 0, 38, 100
2, 14566560, Note_on_c, 0, 38, 0
2, 14566560, Note_on_c, 0, 50, 100
2, 14566800, Note_on_c, 0, 50, 0
2, 14566800, Note_on_c, 0, 48, 100
2, 14566920, Note_on_c, 0, 48, 0
2, 14566920, Note_on_c, 0, 47, 100
2, 14567040, Note_on_c, 0, 47, 0
2, 14567040, Note_on_c, 0, 45, 100
2, 14567160, Note_on_c, 0, 45, 0
2, 14567160, Note_on_c, 0, 47, 100
2, 14567280, Note_on_c, 0, 47, 0
2, 14567280, Note_on_c, 0, 45, 100
2, 14567520, Note_on_c, 0, 45, 0
2, 14567520, Note_on_c, 0, 47, 100
2, 14567760, Note_on_c, 0, 47, 0
2, 14567760, Note_on_c, 0, 43, 100
2, 14568000, Note_on_c, 0, 43, 0
2, 14568000, Note_on_c, 0, 48, 100
2, 14568240, Note_on_c, 0, 48, 0
2, 14568240, Note_on_c, 0, 47, 100
2, 14568480, Note_on_c, 0, 47, 0
2, 14568480, Note_on_c, 0, 48, 100
2, 14568720, Note_on_c, 0, 48, 0
2, 14568720, Note_on_c, 0, 45, 100
2, 14568960, Note_on_c, 0, 45, 0
2, 14568960, Note_on_c, 0, 50, 100
2, 14569200, Note_on_c, 0, 50, 0
2, 14569200, Note_on_c, 0, 48, 100
2, 14569440, Note_on_c, 0, 48, 0
2, 14569440, Note_on_c, 0, 50, 100
2, 14569680, Note_on_c, 0, 50, 0
2, 14569680, Note_on_c, 0, 38, 100
2, 14569920, Note_on_c, 0, 38, 0
2, 14569920, Note_on_c, 0, 43, 100
2, 14570160, Note_on_c, 0, 43, 0
2, 14570160, Note_on_c, 0, 55, 100
2, 14570400, Note_on_c, 0, 55, 0
2, 14570400, Note_on_c, 0, 59, 100
2, 14570640, Note_on_c, 0, 59, 0
2, 14570640, Note_on_c, 0, 62, 100
2, 14570880, Note_on_c, 0, 62, 0
2, 14570880, Note_on_c, 0, 67, 100
2, 14571120, Note_on_c, 0, 67, 0
2, 14571120, Note_on_c, 0, 66, 100
2, 14571360, Note_on_c, 0, 66, 0
2, 14571360, Note_on_c, 0, 67, 100
2, 14571600, Note_on_c, 0, 67, 0
2, 14571600, Note_on_c, 0, 64, 100
2, 14571840, Note_on_c, 0, 64, 0
2, 14571840, Note_on_c, 0, 66, 100
2, 14572080, Note_on_c, 0, 66, 0
2, 14572080, Note_on_c, 0, 64, 100
2, 14572320, Note_on_c, 0, 64, 0
2, 14572320, Note_on_c, 0, 66, 100
2, 14572560, Note_on_c, 0, 66, 0
2, 14572560, Note_on_c, 0, 62, 100
2, 14572800, Note_on_c, 0, 62, 0
2, 14572800, Note_on_c, 0, 64, 100
2, 14573040, Note_on_c, 0, 64, 0
2, 14573040, Note_on_c, 0, 62, 100
2, 14573280, Note_on_c, 0, 62, 0
2, 14573280, Note_on_c, 0, 64, 100
2, 14573520, Note_on_c, 0, 64, 0
2, 14573520, Note_on_c, 0, 59, 100
2, 14573760, Note_on_c, 0, 59, 0
2, 14573760, Note_on_c, 0, 61, 100
2, 14574000, Note_on_c, 0, 61, 0
2, 14574000, Note_on_c, 0, 64, 100
2, 14574240, Note_on_c, 0, 64, 0
2, 14574240, Note_on_c, 0, 62, 100
2, 14574360, Note_on_c, 0, 62, 0
2, 14574360, Note_on_c, 0, 61, 100
2, 14574480, Note_on_c, 0, 61, 0
2, 14574480, Note_on_c, 0, 59, 100
2, 14574600, Note_on_c, 0, 59, 0
2, 14574600, Note_on_c, 0, 57, 100
2, 14574720, Note_on_c, 0, 57, 0
2, 14574720, Note_on_c, 0, 55, 100
2, 14574840, Note_on_c, 0, 55, 0
2, 14574840, Note_on_c, 0, 54, 100
2, 14574960, Note_on_c, 0, 54, 0
2, 14574960, Note_on_c, 0, 52, 100
2, 14575200, Note_on_c, 0, 52, 0
2, 14575200, Note_on_c, 0, 54, 100
2, 14575440, Note_on_c, 0, 54, 0
2, 14575440, Note_on_c, 0, 50, 100
2, 14575680, Note_on_c, 0, 50, 0
2, 14575680, Note_on_c, 0, 55, 100
2, 14575920, Note_on_c, 0, 55, 0
2, 14575920, Note_on_c, 0, 54, 100
2, 14576160, Note_on_c, 0, 54, 0
2, 14576160, Note_on_c, 0, 55, 100
2, 14576400, Note_on_c, 0, 55, 0
2, 14576400, Note_on_c, 0, 52, 100
2, 14576640, Note_on_c, 0, 52, 0
2, 14576640, Note_on_c, 0, 57, 100
2, 14576880, Note_on_c, 0, 57, 0
2, 14576880, Note_on_c, 0, 55, 100
2, 14577120, Note_on_c, 0, 55, 0
2, 14577120, Note_on_c, 0, 57, 100
2, 14577360, Note_on_c, 0, 57, 0
2, 14577360, Note_on_c, 0, 45, 100
2, 14577600, Note_on_c, 0, 45, 0
2, 14577600, Note_on_c, 0, 50, 100
2, 14577840, Note_on_c, 0, 50, 0
2, 14577840, Note_on_c, 0, 45, 100
2, 14578080, Note_on_c, 0, 45, 0
2, 14578080, Note_on_c, 0, 38, 100
2, 14578320, Note_on_c, 0, 38, 0
2, 14578320, Note_on_c, 0, 62, 100
2, 14578800, Note_on_c, 0, 62, 0
2, 14578800, Note_on_c, 0, 61, 100
2, 14579040, Note_on_c, 0, 61, 0
2, 14579040, Note_on_c, 0, 62, 100
2, 14579280, Note_on_c, 0, 62, 0
2, 14579280, Note_on_c, 0, 57, 100
2, 14579520, Note_on_c, 0, 57, 0
2, 14579520, Note_on_c, 0, 59, 100
2, 14579760, Note_on_c, 0, 59, 0
2, 14579760, Note_on_c, 0, 57, 100
2, 14580000, Note_on_c, 0, 57, 0
2, 14580000, Note_on_c, 0, 59, 100
2, 14580240, Note_on_c, 0, 59, 0
2, 14580240, Note_on_c, 0, 55, 100
2, 14580480, Note_on_c, 0, 55, 0
2, 14580480, Note_on_c, 0, 60, 100
2, 14580720, Note_on_c, 0, 60, 0
2, 14580720, Note_on_c, 0, 48, 100
2, 14580840, Note_on_c, 0, 48, 0
2, 14580840, Note_on_c, 0, 47, 100
2, 14580960, Note_on_c, 0, 47, 0
2, 14580960, Note_on_c, 0, 50, 100
2, 14581080, Note_on_c, 0, 50, 0
2, 14581080, Note_on_c, 0, 48, 100
2, 14581200, Note_on_c, 0, 48, 0
2, 14581200, Note_on_c, 0, 47, 100
2, 14581320, Note_on_c, 0, 47, 0
2, 14581320, Note_on_c, 0, 45, 100
2, 14581440, Note_on_c, 0, 45, 0
2, 14581440, Note_on_c, 0, 48, 100
2, 14581560, Note_on_c, 0, 48, 0
2, 14581560, Note_on_c, 0, 47, 100
2, 14581680, Note_on_c, 0, 47, 0
2, 14581680, Note_on_c, 0, 59, 100
2, 14581800, Note_on_c, 0, 59, 0
2, 14581800, Note_on_c, 0, 57, 100
2, 14581920, Note_on_c, 0, 57, 0
2, 14581920, Note_on_c, 0, 60, 100
2, 14582040, Note_on_c, 0, 60, 0
2, 14582040, Note_on_c, 0, 59, 100
2, 14582160, Note_on_c, 0, 59, 0
2, 14582160, Note_on_c, 0, 57, 100
2, 14582280, Note_on_c, 0, 57, 0
2, 14582280, Note_on_c, 0, 55, 100
2, 14582400, Note_on_c, 0, 55, 0
2, 14582400, Note_on_c, 0, 54, 100
2, 14582520, Note_on_c, 0, 54, 0
2, 14582520, Note_on_c, 0, 55, 100
2, 14582640, Note_on_c, 0, 55, 0
2, 14582640, Note_on_c, 0, 54, 100
2, 14582880, Note_on_c, 0, 54, 0
2, 14582880, Note_on_c, 0, 55, 100
2, 14583120, Note_on_c, 0, 55, 0
2, 14583120, Note_on_c, 0, 52, 100
2, 14583360, Note_on_c, 0, 52, 0
2, 14583360, Note_on_c, 0, 57, 100
2, 14583600, Note_on_c, 0, 57, 0
2, 14583600, Note_on_c, 0, 55, 100
2, 14583840, Note_on_c, 0, 55, 0
2, 14583840, Note_on_c, 0, 57, 100
2, 14584080, Note_on_c, 0, 57, 0
2, 14584080, Note_on_c, 0, 54, 100
2, 14584320, Note_on_c, 0, 54, 0
2, 14584320, Note_on_c, 0, 59, 100
2, 14584560, Note_on_c, 0, 59, 0
2, 14584560, Note_on_c, 0, 58, 100
2, 14584800, Note_on_c, 0, 58, 0
2, 14584800, Note_on_c, 0, 59, 100
2, 14585040, Note_on_c, 0, 59, 0
2, 14585040, Note_on_c, 0, 47, 100
2, 14585280, Note_on_c, 0, 47, 0
2, 14585280, Note_on_c, 0, 40, 100
2, 14585520, Note_on_c, 0, 40, 0
2, 14585520, Note_on_c, 0, 52, 100
2, 14585640, Note_on_c, 0, 52, 0
2, 14585640, Note_on_c, 0, 51, 100
2, 14585760, Note_on_c, 0, 51, 0
2, 14585760, Note_on_c, 0, 54, 100
2, 14585880, Note_on_c, 0, 54, 0
2, 14585880, Note_on_c, 0, 52, 100
2, 14586000, Note_on_c, 0, 52, 0
2, 14586000, Note_on_c, 0, 50, 100
2, 14586120, Note_on_c, 0, 50, 0
2, 14586120, Note_on_c, 0, 48, 100
2, 14586240, Note_on_c, 0, 48, 0
2, 14586240, Note_on_c, 0, 47, 100
2, 14586360, Note_on_c, 0, 47, 0
2, 14586360, Note_on_c, 0, 48, 100
2, 14586480, Note_on_c, 0, 48, 0
2, 14586480, Note_on_c, 0, 47, 100
2, 14586720, Note_on_c, 0, 47, 0
2, 14586720, Note_on_c, 0, 48, 100
2, 14586960, Note_on_c, 0, 48, 0
2, 14586960, Note_on_c, 0, 57, 100
2, 14587200, Note_on_c, 0, 57, 0
2, 14587200, Note_on_c, 0, 47, 100
2, 14587440, Note_on_c, 0, 47, 0
2, 14587440, Note_on_c, 0, 45, 100
2, 14587680, Note_on_c, 0, 45, 0
2, 14587680, Note_on_c, 0, 47, 100
2, 14587920, Note_on_c, 0, 47, 0
2, 14587920, Note_on_c, 0, 55, 100
2, 14588160, Note_on_c, 0, 55, 0
2, 14588160, Note_on_c, 0, 45, 100
2, 14588400, Note_on_c, 0, 45, 0
2, 14588400, Note_on_c, 0, 43, 100
2, 14588640, Note_on_c, 0, 43, 0
2, 14588640, Note_on_c, 0, 45, 100
2, 14588880, Note_on_c, 0, 45, 0
2, 14588880, Note_on_c, 0, 55, 100
2, 14589120, Note_on_c, 0, 55, 0
2, 14589120, Note_on_c, 0, 54, 100
2, 14589360, Note_on_c, 0, 54, 0
2, 14589360, Note_on_c, 0, 50, 100
2, 14589480, Note_on_c, 0, 50, 0
2, 14589480, Note_on_c, 0, 48, 100
2, 14589600, Note_on_c, 0, 48, 0
2, 14589600, Note_on_c, 0, 52, 100
2, 14589720, Note_on_c, 0, 52, 0
2, 14589720, Note_on_c, 0, 50, 100
2, 14589840, Note_on_c, 0, 50, 0
2, 14589840, Note_on_c, 0, 48, 100
2, 14589960, Note_on_c, 0, 48, 0
2, 14589960, Note_on_c, 0, 47, 100
2, 14590080, Note_on_c, 0, 47, 0
2, 14590080, Note_on_c, 0, 45, 100
2, 14590200, Note_on_c, 0, 45, 0
2, 14590200, Note_on_c, 0, 43, 100
2, 14590320, Note_on_c, 0, 43, 0
2, 14590320, Note_on_c, 0, 55, 100
2, 14590440, Note_on_c, 0, 55, 0
2, 14590440, Note_on_c, 0, 53, 100
2, 14590560, Note_on_c, 0, 53, 0
2, 14590560, Note_on_c, 0, 57, 100
2, 14590680, Note_on_c, 0, 57, 0
2, 14590680, Note_on_c, 0, 55, 100
2, 14590800, Note_on_c, 0, 55, 0
2, 14590800, Note_on_c, 0, 53, 100
2, 14590920, Note_on_c, 0, 53, 0
2, 14590920, Note_on_c, 0, 52, 100
2, 14591040, Note_on_c, 0, 52, 0
2, 14591040, Note_on_c, 0, 50, 100
2, 14591160, Note_on_c, 0, 50, 0
2, 14591160, Note_on_c, 0, 48, 100
2, 14591280, Note_on_c, 0, 48, 0
2, 14591280, Note_on_c, 0, 60, 100
2, 14591400, Note_on_c, 0, 60, 0
2, 14591400, Note_on_c, 0, 59, 100
2, 14591520, Note_on_c, 0, 59, 0
2, 14591520, Note_on_c, 0, 62, 100
2, 14591640, Note_on_c, 0, 62, 0
2, 14591640, Note_on_c, 0, 60, 100
2, 14591760, Note_on_c, 0, 60, 0
2, 14591760, Note_on_c, 0, 59, 100
2, 14591880, Note_on_c, 0, 59, 0
2, 14591880, Note_on_c, 0, 57, 100
2, 14592000, Note_on_c, 0, 57, 0
2, 14592000, Note_on_c, 0, 55, 100
2, 14592120, Note_on_c, 0, 55, 0
2, 14592120, Note_on_c, 0, 54, 100
2, 14592240, Note_on_c, 0, 54, 0
2, 14592240, Note_on_c, 0, 55, 100
2, 14592360, Note_on_c, 0, 55, 0
2, 14592360, Note_on_c, 0, 54, 100
2, 14592480, Note_on_c, 0, 54, 0
2, 14592480, Note_on_c, 0, 57, 100
2, 14592600, Note_on_c, 0, 57, 0
2, 14592600, Note_on_c, 0, 47, 100
2, 14592720, Note_on_c, 0, 47, 0
2, 14592720, Note_on_c, 0, 50, 100
2, 14592960, Note_on_c, 0, 50, 0
2, 14592960, Note_on_c, 0, 43, 100
2, 14593200, Note_on_c, 0, 43, 0
2, 14593200, Note_on_c, 0, 55, 100
2, 14593440, Note_on_c, 0, 55, 0
2, 14593440, Note_on_c, 0, 54, 100
2, 14593560, Note_on_c, 0, 54, 0
2, 14593560, Note_on_c, 0, 55, 100
2, 14593680, Note_on_c, 0, 55, 0
2, 14593680, Note_on_c, 0, 57, 100
2, 14593800, Note_on_c, 0, 57, 0
2, 14593800, Note_on_c, 0, 59, 100
2, 14593920, Note_on_c, 0, 59, 0
2, 14593920, Note_on_c, 0, 60, 100
2, 14594040, Note_on_c, 0, 60, 0
2, 14594040, Note_on_c, 0, 62, 100
2, 14594160, Note_on_c, 0, 62, 0
2, 14594160, Note_on_c, 0, 61, 100
2, 14594400, Note_on_c, 0, 61, 0
2, 14594400, Note_on_c, 0, 62, 100
2, 14594640, Note_on_c, 0, 62, 0
2, 14594640, Note_on_c, 0, 57, 100
2, 14594880, Note_on_c, 0, 57, 0
2, 14594880, Note_on_c, 0, 59, 100
2, 14595120, Note_on_c, 0, 59, 0
2, 14595120, Note_on_c, 0, 57, 100
2, 14595360, Note_on_c, 0, 57, 0
2, 14595360, Note_on_c, 0, 59, 100
2, 14595600, Note_on_c, 0, 59, 0
2, 14595600, Note_on_c, 0, 55, 100
2, 14595840, Note_on_c, 0, 55, 0
2, 14595840, Note_on_c, 0, 60, 100
2, 14596080, Note_on_c, 0, 60, 0
2, 14596080, Note_on_c, 0, 48, 100
2, 14596200, Note_on_c, 0, 48, 0
2, 14596200, Note_on_c, 0, 47, 100
2, 14596320, Note_on_c, 0, 47, 0
2, 14596320, Note_on_c, 0, 50, 100
2, 14596440, Note_on_c, 0, 50, 0
2, 14596440, Note_on_c, 0, 48, 100
2, 14596560, Note_on_c, 0, 48, 0
2, 14596560, Note_on_c, 0, 47, 100
2, 14596680, Note_on_c, 0, 47, 0
2, 14596680, Note_on_c, 0, 45, 100
2, 14596800, Note_on_c, 0, 45, 0
2, 14596800, Note_on_c, 0, 48, 100
2, 14596920, Note_on_c, 0, 48, 0
2, 14596920, Note_on_c, 0, 47, 100
2, 14597040, Note_on_c, 0, 47, 0
2, 14597040, Note_on_c, 0, 59, 100
2, 14597160, Note_on_c, 0, 59, 0
2, 14597160, Note_on_c, 0, 57, 100
2, 14597280, Note_on_c, 0, 57, 0
2, 14597280, Note_on_c, 0, 60, 100
2, 14597400, Note_on_c, 0, 60, 0
2, 14597400, Note_on_c, 0, 59, 100
2, 14597520, Note_on_c, 0, 59, 0
2, 14597520, Note_on_c, 0, 57, 100
2, 14597640, Note_on_c, 0, 57, 0
2, 14597640, Note_on_c, 0, 55, 100
2, 14597760, Note_on_c, 0, 55, 0
2, 14597760, Note_on_c, 0, 54, 100
2, 14597880, Note_on_c, 0, 54, 0
2, 14597880, Note_on_c, 0, 55, 100
2, 14598000, Note_on_c, 0, 55, 0
2, 14598000, Note_on_c, 0, 54, 100
2, 14598240, Note_on_c, 0, 54, 0
2, 14598240, Note_on_c, 0, 55, 100
2, 14598480, Note_on_c, 0, 55, 0
2, 14598480, Note_on_c, 0, 52, 100
2, 14598720, Note_on_c, 0, 52, 0
2, 14598720, Note_on_c, 0, 57, 100
2, 14598960, Note_on_c, 0, 57, 0
2, 14598960, Note_on_c, 0, 55, 100
2, 14599200, Note_on_c, 0, 55, 0
2, 14599200, Note_on_c, 0, 57, 100
2, 14599440, Note_on_c, 0, 57, 0
2, 14599440, Note_on_c, 0, 54, 100
2, 14599680, Note_on_c, 0, 54, 0
2, 14599680, Note_on_c, 0, 59, 100
2, 14599920, Note_on_c, 0, 59, 0
2, 14599920, Note_on_c, 0, 58, 100
2, 14600160, Note_on_c, 0, 58, 0
2, 14600160, Note_on_c, 0, 59, 100
2, 14600400, Note_on_c, 0, 59, 0
2, 14600400, Note_on_c, 0, 47, 100
2, 14600640, Note_on_c, 0, 47, 0
2, 14600640, Note_on_c, 0, 40, 100
2, 14600880, Note_on_c, 0, 40, 0
2, 14600880, Note_on_c, 0, 52, 100
2, 14601000, Note_on_c, 0, 52, 0
2, 14601000, Note_on_c, 0, 51, 100
2, 14601120, Note_on_c, 0, 51, 0
2, 14601120, Note_on_c, 0, 54, 100
2, 14601240, Note_on_c, 0, 54, 0
2, 14601240, Note_on_c, 0, 52, 100
2, 14601360, Note_on_c, 0, 52, 0
2, 14601360, Note_on_c, 0, 50, 100
2, 14601480, Note_on_c, 0, 50, 0
2, 14601480, Note_on_c, 0, 48, 100
2, 14601600, Note_on_c, 0, 48, 0
2, 14601600, Note_on_c, 0, 47, 100
2, 14601720, Note_on_c, 0, 47, 0
2, 14601720, Note_on_c, 0, 48, 100
2, 14601840, Note_on_c, 0, 48, 0
2, 14601840, Note_on_c, 0, 47, 100
2, 14602080, Note_on_c, 0, 47, 0
2, 14602080, Note_on_c, 0, 48, 100
2, 14602320, Note_on_c, 0, 48, 0
2, 14602320, Note_on_c, 0, 57, 100
2, 14602560, Note_on_c, 0, 57, 0
2, 14602560, Note_on_c, 0, 47, 100
2, 14602800, Note_on_c, 0, 47, 0
2, 14602800, Note_on_c, 0, 45, 100
2, 14603040, Note_on_c, 0, 45, 0
2, 14603040, Note_on_c, 0, 47, 100
2, 14603280, Note_on_c, 0, 47, 0
2, 14603280, Note_on_c, 0, 55, 100
2, 14603520, Note_on_c, 0, 55, 0
2, 14603520, Note_on_c, 0, 45, 100
2, 14603760, Note_on_c, 0, 45, 0
2, 14603760, Note_on_c, 0, 43, 100
2, 14604000, Note_on_c, 0, 43, 0
2, 14604000, Note_on_c, 0, 45, 100
2, 14604240, Note_on_c, 0, 45, 0
2, 14604240, Note_on_c, 0, 55, 100
2, 14604480, Note_on_c, 0, 55, 0
2, 14604480, Note_on_c, 0, 54, 100
2, 14604720, Note_on_c, 0, 54, 0
2, 14604720, Note_on_c, 0, 50, 100
2, 14604840, Note_on_c, 0, 50, 0
2, 14604840, Note_on_c, 0, 48, 100
2, 14604960, Note_on_c, 0, 48, 0
2, 14604960, Note_on_c, 0, 52, 100
2, 14605080, Note_on_c, 0, 52, 0
2, 14605080, Note_on_c, 0, 50, 100
2, 14605200, Note_on_c, 0, 50, 0
2, 14605200, Note_on_c, 0, 48, 100
2, 14605320, Note_on_c, 0, 48, 0
2, 14605320, Note_on_c, 0, 47, 100
2, 14605440, Note_on_c, 0, 47, 0
2, 14605440, Note_on_c, 0, 45, 100
2, 14605560, Note_on_c, 0, 45, 0
2, 14605560, Note_on_c, 0, 43, 100
2, 14605680, Note_on_c, 0, 43, 0
2, 14605680, Note_on_c, 0, 55, 100
2, 14605800, Note_on_c, 0, 55, 0
2, 14605800, Note_on_c, 0, 53, 100
2, 14605920, Note_on_c, 0, 53, 0
2, 14605920, Note_on_c, 0, 57, 100
2, 14606040, Note_on_c, 0, 57, 0
2, 14606040, Note_on_c, 0, 55, 100
2, 14606160, Note_on_c, 0, 55, 0
2, 14606160, Note_on_c, 0, 53, 100
2, 14606280, Note_on_c, 0, 53, 0
2, 14606280, Note_on_c, 0, 52, 100
2, 14606400, Note_on_c, 0, 52, 0
2, 14606400, Note_on_c, 0, 50, 100
2, 14606520, Note_on_c, 0, 50, 0
2, 14606520, Note_on_c, 0, 48, 100
2, 14606640, Note_on_c, 0, 48, 0
2, 14606640, Note_on_c, 0, 60, 100
2, 14606760, Note_on_c, 0, 60, 0
2, 14606760, Note_on_c, 0, 59, 100
2, 14606880, Note_on_c, 0, 59, 0
2, 14606880, Note_on_c, 0, 62, 100
2, 14607000, Note_on_c, 0, 62, 0
2, 14607000, Note_on_c, 0, 60, 100
2, 14607120, Note_on_c, 0, 60, 0
2, 14607120, Note_on_c, 0, 59, 100
2, 14607240, Note_on_c, 0, 59, 0
2, 14607240, Note_on_c, 0, 57, 100
2, 14607360, Note_on_c, 0, 57, 0
2, 14607360, Note_on_c, 0, 55, 100
2, 14607480, Note_on_c, 0, 55, 0
2, 14607480, Note_on_c, 0, 54, 100
2, 14607600, Note_on_c, 0, 54, 0
2, 14607600, Note_on_c, 0, 55, 100
2, 14607720, Note_on_c, 0, 55, 0
2, 14607720, Note_on_c, 0, 54, 100
2, 14607840, Note_on_c, 0, 54, 0
2, 14607840, Note_on_c, 0, 57, 100
2, 14607960, Note_on_c, 0, 57, 0
2, 14607960, Note_on_c, 0, 47, 100
2, 14608080, Note_on_c, 0, 47, 0
2, 14608080, Note_on_c, 0, 50, 100
2, 14608320, Note_on_c, 0, 50, 0
2, 14608320, Note_on_c, 0, 55, 100
2, 14608560, Note_on_c, 0, 55, 0
2, 14608560, Note_on_c, 0, 50, 100
2, 14608800, Note_on_c, 0, 50, 0
2, 14608800, Note_on_c, 0, 43, 100
2, 14609520, Note_on_c, 0, 43, 0
2, 14609520, Note_on_c, 0, 47, 100
2, 14609760, Note_on_c, 0, 47, 0
2, 14609760, Note_on_c, 0, 50, 100
2, 14610000, Note_on_c, 0, 50, 0
2, 14610000, Note_on_c, 0, 55, 100
2, 14610240, Note_on_c, 0, 55, 0
2, 14610240, Note_on_c, 0, 59, 100
2, 14610480, Note_on_c, 0, 59, 0
2, 14610480, Note_on_c, 0, 52, 100
2, 14610720, Note_on_c, 0, 52, 0
2, 14610720, Note_on_c, 0, 42, 100
2, 14610960, Note_on_c, 0, 42, 0
2, 14610960, Note_on_c, 0, 45, 100
2, 14611200, Note_on_c, 0, 45, 0
2, 14611200, Note_on_c, 0, 50, 100
2, 14611440, Note_on_c, 0, 50, 0
2, 14611440, Note_on_c, 0, 54, 100
2, 14611680, Note_on_c, 0, 54, 0
2, 14611680, Note_on_c, 0, 57, 100
2, 14611920, Note_on_c, 0, 57, 0
2, 14611920, Note_on_c, 0, 50, 100
2, 14612160, Note_on_c, 0, 50, 0
2, 14612160, Note_on_c, 0, 40, 100
2, 14612400, Note_on_c, 0, 40, 0
2, 14612400, Note_on_c, 0, 43, 100
2, 14612640, Note_on_c, 0, 43, 0
2, 14612640, Note_on_c, 0, 47, 100
2, 14612880, Note_on_c, 0, 47, 0
2, 14612880, Note_on_c, 0, 52, 100
2, 14613120, Note_on_c, 0, 52, 0
2, 14613120, Note_on_c, 0, 47, 100
2, 14613360, Note_on_c, 0, 47, 0
2, 14613360, Note_on_c, 0, 49, 100
2, 14613600, Note_on_c, 0, 49, 0
2, 14613600, Note_on_c, 0, 38, 100
2, 14613840, Note_on_c, 0, 38, 0
2, 14613840, Note_on_c, 0, 42, 100
2, 14614080, Note_on_c, 0, 42, 0
2, 14614080, Note_on_c, 0, 45, 100
2, 14614320, Note_on_c, 0, 45, 0
2, 14614320, Note_on_c, 0, 50, 100
2, 14614560, Note_on_c, 0, 50, 0
2, 14614560, Note_on_c, 0, 54, 100
2, 14614800, Note_on_c, 0, 54, 0
2, 14614800, Note_on_c, 0, 45, 100
2, 14615040, Note_on_c, 0, 45, 0
2, 14615040, Note_on_c, 0, 47, 100
2, 14615280, Note_on_c, 0, 47, 0
2, 14615280, Note_on_c, 0, 45, 100
2, 14615400, Note_on_c, 0, 45, 0
2, 14615400, Note_on_c, 0, 47, 100
2, 14615520, Note_on_c, 0, 47, 0
2, 14615520, Note_on_c, 0, 48, 100
2, 14615640, Note_on_c, 0, 48, 0
2, 14615640, Note_on_c, 0, 50, 100
2, 14615760, Note_on_c, 0, 50, 0
2, 14615760, Note_on_c, 0, 43, 100
2, 14616120, Note_on_c, 0, 43, 0
2, 14616120, Note_on_c, 0, 45, 100
2, 14616240, Note_on_c, 0, 45, 0
2, 14616240, Note_on_c, 0, 47, 100
2, 14616360, Note_on_c, 0, 47, 0
2, 14616360, Note_on_c, 0, 48, 100
2, 14616480, Note_on_c, 0, 48, 0
2, 14616480, Note_on_c, 0, 50, 100
2, 14616600, Note_on_c, 0, 50, 0
2, 14616600, Note_on_c, 0, 52, 100
2, 14616720, Note_on_c, 0, 52, 0
2, 14616720, Note_on_c, 0, 50, 100
2, 14616840, Note_on_c, 0, 50, 0
2, 14616840, Note_on_c, 0, 48, 100
2, 14616960, Note_on_c, 0, 48, 0
2, 14616960, Note_on_c, 0, 47, 100
2, 14617080, Note_on_c, 0, 47, 0
2, 14617080, Note_on_c, 0, 48, 100
2, 14617200, Note_on_c, 0, 48, 0
2, 14617200, Note_on_c, 0, 52, 100
2, 14617320, Note_on_c, 0, 52, 0
2, 14617320, Note_on_c, 0, 42, 100
2, 14617440, Note_on_c, 0, 42, 0
2, 14617440, Note_on_c, 0, 45, 100
2, 14617560, Note_on_c, 0, 45, 0
2, 14617560, Note_on_c, 0, 43, 100
2, 14617680, Note_on_c, 0, 43, 0
2, 14617680, Note_on_c, 0, 42, 100
2, 14617800, Note_on_c, 0, 42, 0
2, 14617800, Note_on_c, 0, 40, 100
2, 14617920, Note_on_c, 0, 40, 0
2, 14617920, Note_on_c, 0, 38, 100
2, 14618040, Note_on_c, 0, 38, 0
2, 14618040, Note_on_c, 0, 43, 100
2, 14618160, Note_on_c, 0, 43, 0
2, 14618160, Note_on_c, 0, 42, 100
2, 14618280, Note_on_c, 0, 42, 0
2, 14618280, Note_on_c, 0, 43, 100
2, 14618400, Note_on_c, 0, 43, 0
2, 14618400, Note_on_c, 0, 45, 100
2, 14618520, Note_on_c, 0, 45, 0
2, 14618520, Note_on_c, 0, 47, 100
2, 14618640, Note_on_c, 0, 47, 0
2, 14618640, Note_on_c, 0, 48, 100
2, 14618760, Note_on_c, 0, 48, 0
2, 14618760, Note_on_c, 0, 50, 100
2, 14618880, Note_on_c, 0, 50, 0
2, 14618880, Note_on_c, 0, 52, 100
2, 14619000, Note_on_c, 0, 52, 0
2, 14619000, Note_on_c, 0, 45, 100
2, 14619120, Note_on_c, 0, 45, 0
2, 14619120, Note_on_c, 0, 47, 100
2, 14619240, Note_on_c, 0, 47, 0
2, 14619240, Note_on_c, 0, 48, 100
2, 14619360, Note_on_c, 0, 48, 0
2, 14619360, Note_on_c, 0, 45, 100
2, 14619480, Note_on_c, 0, 45, 0
2, 14619480, Note_on_c, 0, 47, 100
2, 14619600, Note_on_c, 0, 47, 0
2, 14619600, Note_on_c, 0, 45, 100
2, 14619720, Note_on_c, 0, 45, 0
2, 14619720, Note_on_c, 0, 43, 100
2, 14619840, Note_on_c, 0, 43, 0
2, 14619840, Note_on_c, 0, 42, 100
2, 14619960, Note_on_c, 0, 42, 0
2, 14619960, Note_on_c, 0, 43, 100
2, 14620080, Note_on_c, 0, 43, 0
2, 14620080, Note_on_c, 0, 42, 100
2, 14620440, Note_on_c, 0, 42, 0
2, 14620440, Note_on_c, 0, 40, 100
2, 14620560, Note_on_c, 0, 40, 0
2, 14620560, Note_on_c, 0, 38, 100
2, 14620680, Note_on_c, 0, 38, 0
2, 14620680, Note_on_c, 0, 40, 100
2, 14620800, Note_on_c, 0, 40, 0
2, 14620800, Note_on_c, 0, 42, 100
2, 14620920, Note_on_c, 0, 42, 0
2, 14620920, Note_on_c, 0, 43, 100
2, 14621040, Note_on_c, 0, 43, 0
2, 14621040, Note_on_c, 0, 42, 100
2, 14621160, Note_on_c, 0, 42, 0
2, 14621160, Note_on_c, 0, 43, 100
2, 14621280, Note_on_c, 0, 43, 0
2, 14621280, Note_on_c, 0, 45, 100
2, 14621400, Note_on_c, 0, 45, 0
2, 14621400, Note_on_c, 0, 43, 100
2, 14621520, Note_on_c, 0, 43, 0
2, 14621520, Note_on_c, 0, 42, 100
2, 14621640, Note_on_c, 0, 42, 0
2, 14621640, Note_on_c, 0, 40, 100
2, 14621760, Note_on_c, 0, 40, 0
2, 14621760, Note_on_c, 0, 42, 100
2, 14621880, Note_on_c, 0, 42, 0
2, 14621880, Note_on_c, 0, 43, 100
2, 14622000, Note_on_c, 0, 43, 0
2, 14622000, Note_on_c, 0, 40, 100
2, 14622120, Note_on_c, 0, 40, 0
2, 14622120, Note_on_c, 0, 42, 100
2, 14622240, Note_on_c, 0, 42, 0
2, 14622240, Note_on_c, 0, 43, 100
2, 14622360, Note_on_c, 0, 43, 0
2, 14622360, Note_on_c, 0, 45, 100
2, 14622480, Note_on_c, 0, 45, 0
2, 14622480, Note_on_c, 0, 43, 100
2, 14622600, Note_on_c, 0, 43, 0
2, 14622600, Note_on_c, 0, 45, 100
2, 14622720, Note_on_c, 0, 45, 0
2, 14622720, Note_on_c, 0, 47, 100
2, 14622840, Note_on_c, 0, 47, 0
2, 14622840, Note_on_c, 0, 45, 100
2, 14622960, Note_on_c, 0, 45, 0
2, 14622960, Note_on_c, 0, 43, 100
2, 14623080, Note_on_c, 0, 43, 0
2, 14623080, Note_on_c, 0, 42, 100
2, 14623200, Note_on_c, 0, 42, 0
2, 14623200, Note_on_c, 0, 54, 100
2, 14623320, Note_on_c, 0, 54, 0
2, 14623320, Note_on_c, 0, 55, 100
2, 14623440, Note_on_c, 0, 55, 0
2, 14623440, Note_on_c, 0, 54, 100
2, 14623560, Note_on_c, 0, 54, 0
2, 14623560, Note_on_c, 0, 52, 100
2, 14623680, Note_on_c, 0, 52, 0
2, 14623680, Note_on_c, 0, 54, 100
2, 14623800, Note_on_c, 0, 54, 0
2, 14623800, Note_on_c, 0, 47, 100
2, 14623920, Note_on_c, 0, 47, 0
2, 14623920, Note_on_c, 0, 45, 100
2, 14624040, Note_on_c, 0, 45, 0
2, 14624040, Note_on_c, 0, 47, 100
2, 14624160, Note_on_c, 0, 47, 0
2, 14624160, Note_on_c, 0, 48, 100
2, 14624280, Note_on_c, 0, 48, 0
2, 14624280, Note_on_c, 0, 50, 100
2, 14624400, Note_on_c, 0, 50, 0
2, 14624400, Note_on_c, 0, 47, 100
2, 14624520, Note_on_c, 0, 47, 0
2, 14624520, Note_on_c, 0, 49, 100
2, 14624640, Note_on_c, 0, 49, 0
2, 14624640, Note_on_c, 0, 50, 100
2, 14624760, Note_on_c, 0, 50, 0
2, 14624760, Note_on_c, 0, 52, 100
2, 14624880, Note_on_c, 0, 52, 0
2, 14624880, Note_on_c, 0, 50, 100
2, 14625000, Note_on_c, 0, 50, 0
2, 14625000, Note_on_c, 0, 49, 100
2, 14625120, Note_on_c, 0, 49, 0
2, 14625120, Note_on_c, 0, 47, 100
2, 14625240, Note_on_c, 0, 47, 0
2, 14625240, Note_on_c, 0, 45, 100
2, 14625360, Note_on_c, 0, 45, 0
2, 14625360, Note_on_c, 0, 52, 100
2, 14625480, Note_on_c, 0, 52, 0
2, 14625480, Note_on_c, 0, 50, 100
2, 14625600, Note_on_c, 0, 50, 0
2, 14625600, Note_on_c, 0, 49, 100
2, 14625720, Note_on_c, 0, 49, 0
2, 14625720, Note_on_c, 0, 50, 100
2, 14625840, Note_on_c, 0, 50, 0
2, 14625840, Note_on_c, 0, 47, 100
2, 14625960, Note_on_c, 0, 47, 0
2, 14625960, Note_on_c, 0, 49, 100
2, 14626080, Note_on_c, 0, 49, 0
2, 14626080, Note_on_c, 0, 45, 100
2, 14626200, Note_on_c, 0, 45, 0
2, 14626200, Note_on_c, 0, 47, 100
2, 14626320, Note_on_c, 0, 47, 0
2, 14626320, Note_on_c, 0, 49, 100
2, 14626440, Note_on_c, 0, 49, 0
2, 14626440, Note_on_c, 0, 50, 100
2, 14626560, Note_on_c, 0, 50, 0
2, 14626560, Note_on_c, 0, 52, 100
2, 14626680, Note_on_c, 0, 52, 0
2, 14626680, Note_on_c, 0, 54, 100
2, 14626800, Note_on_c, 0, 54, 0
2, 14626800, Note_on_c, 0, 47, 100
2, 14626920, Note_on_c, 0, 47, 0
2, 14626920, Note_on_c, 0, 49, 100
2, 14627040, Note_on_c, 0, 49, 0
2, 14627040, Note_on_c, 0, 50, 100
2, 14627160, Note_on_c, 0, 50, 0
2, 14627160, Note_on_c, 0, 52, 100
2, 14627280, Note_on_c, 0, 52, 0
2, 14627280, Note_on_c, 0, 54, 100
2, 14627400, Note_on_c, 0, 54, 0
2, 14627400, Note_on_c, 0, 55, 100
2, 14627520, Note_on_c, 0, 55, 0
2, 14627520, Note_on_c, 0, 54, 100
2, 14627640, Note_on_c, 0, 54, 0
2, 14627640, Note_on_c, 0, 52, 100
2, 14627760, Note_on_c, 0, 52, 0
2, 14627760, Note_on_c, 0, 50, 100
2, 14627880, Note_on_c, 0, 50, 0
2, 14627880, Note_on_c, 0, 52, 100
2, 14628000, Note_on_c, 0, 52, 0
2, 14628000, Note_on_c, 0, 46, 100
2, 14628120, Note_on_c, 0, 46, 0
2, 14628120, Note_on_c, 0, 47, 100
2, 14628240, Note_on_c, 0, 47, 0
2, 14628240, Note_on_c, 0, 49, 100
2, 14628360, Note_on_c, 0, 49, 0
2, 14628360, Note_on_c, 0, 50, 100
2, 14628480, Note_on_c, 0, 50, 0
2, 14628480, Note_on_c, 0, 49, 100
2, 14628600, Note_on_c, 0, 49, 0
2, 14628600, Note_on_c, 0, 47, 100
2, 14628720, Note_on_c, 0, 47, 0
2, 14628720, Note_on_c, 0, 45, 100
2, 14628840, Note_on_c, 0, 45, 0
2, 14628840, Note_on_c, 0, 43, 100
2, 14628960, Note_on_c, 0, 43, 0
2, 14628960, Note_on_c, 0, 42, 100
2, 14629080, Note_on_c, 0, 42, 0
2, 14629080, Note_on_c, 0, 43, 100
2, 14629200, Note_on_c, 0, 43, 0
2, 14629200, Note_on_c, 0, 47, 100
2, 14629320, Note_on_c, 0, 47, 0
2, 14629320, Note_on_c, 0, 45, 100
2, 14629440, Note_on_c, 0, 45, 0
2, 14629440, Note_on_c, 0, 43, 100
2, 14629560, Note_on_c, 0, 43, 0
2, 14629560, Note_on_c, 0, 42, 100
2, 14629680, Note_on_c, 0, 42, 0
2, 14629680, Note_on_c, 0, 45, 100
2, 14629800, Note_on_c, 0, 45, 0
2, 14629800, Note_on_c, 0, 43, 100
2, 14629920, Note_on_c, 0, 43, 0
2, 14629920, Note_on_c, 0, 42, 100
2, 14630040, Note_on_c, 0, 42, 0
2, 14630040, Note_on_c, 0, 40, 100
2, 14630160, Note_on_c, 0, 40, 0
2, 14630160, Note_on_c, 0, 38, 100
2, 14630280, Note_on_c, 0, 38, 0
2, 14630280, Note_on_c, 0, 43, 100
2, 14630400, Note_on_c, 0, 43, 0
2, 14630400, Note_on_c, 0, 40, 100
2, 14630640, Note_on_c, 0, 40, 0
2, 14630640, Note_on_c, 0, 45, 100
2, 14630880, Note_on_c, 0, 45, 0
2, 14630880, Note_on_c, 0, 38, 100
2, 14631120, Note_on_c, 0, 38, 0
2, 14631120, Note_on_c, 0, 42, 100
2, 14631240, Note_on_c, 0, 42, 0
2, 14631240, Note_on_c, 0, 45, 100
2, 14631360, Note_on_c, 0, 45, 0
2, 14631360, Note_on_c, 0, 50, 100
2, 14631480, Note_on_c, 0, 50, 0
2, 14631480, Note_on_c, 0, 45, 100
2, 14631600, Note_on_c, 0, 45, 0
2, 14631600, Note_on_c, 0, 42, 100
2, 14631720, Note_on_c, 0, 42, 0
2, 14631720, Note_on_c, 0, 38, 100
2, 14631840, Note_on_c, 0, 38, 0
2, 14631840, Note_on_c, 0, 43, 100
2, 14632560, Note_on_c, 0, 43, 0
2, 14632560, Note_on_c, 0, 47, 100
2, 14632800, Note_on_c, 0, 47, 0
2, 14632800, Note_on_c, 0, 50, 100
2, 14633040, Note_on_c, 0, 50, 0
2, 14633040, Note_on_c, 0, 55, 100
2, 14633280, Note_on_c, 0, 55, 0
2, 14633280, Note_on_c, 0, 59, 100
2, 14633520, Note_on_c, 0, 59, 0
2, 14633520, Note_on_c, 0, 52, 100
2, 14633760, Note_on_c, 0, 52, 0
2, 14633760, Note_on_c, 0, 42, 100
2, 14634000, Note_on_c, 0, 42, 0
2, 14634000, Note_on_c, 0, 45, 100
2, 14634240, Note_on_c, 0, 45, 0
2, 14634240, Note_on_c, 0, 50, 100
2, 14634480, Note_on_c, 0, 50, 0
2, 14634480, Note_on_c, 0, 54, 100
2, 14634720, Note_on_c, 0, 54, 0
2, 14634720, Note_on_c, 0, 57, 100
2, 14634960, Note_on_c, 0, 57, 0
2, 14634960, Note_on_c, 0, 50, 100
2, 14635200, Note_on_c, 0, 50, 0
2, 14635200, Note_on_c, 0, 40, 100
2, 14635440, Note_on_c, 0, 40, 0
2, 14635440, Note_on_c, 0, 43, 100
2, 14635680, Note_on_c, 0, 43, 0
2, 14635680, Note_on_c, 0, 47, 100
2, 14635920, Note_on_c, 0, 47, 0
2, 14635920, Note_on_c, 0, 52, 100
2, 14636160, Note_on_c, 0, 52, 0
2, 14636160, Note_on_c, 0, 47, 100
2, 14636400, Note_on_c, 0, 47, 0
2, 14636400, Note_on_c, 0, 49, 100
2, 14636640, Note_on_c, 0, 49, 0
2, 14636640, Note_on_c, 0, 38, 100
2, 14636880, Note_on_c, 0, 38, 0
2, 14636880, Note_on_c, 0, 42, 100
2, 14637120, Note_on_c, 0, 42, 0
2, 14637120, Note_on_c, 0, 45, 100
2, 14637360, Note_on_c, 0, 45, 0
2, 14637360, Note_on_c, 0, 50, 100
2, 14637600, Note_on_c, 0, 50, 0
2, 14637600, Note_on_c, 0, 54, 100
2, 14637840, Note_on_c, 0, 54, 0
2, 14637840, Note_on_c, 0, 45, 100
2, 14638080, Note_on_c, 0, 45, 0
2, 14638080, Note_on_c, 0, 47, 100
2, 14638320, Note_on_c, 0, 47, 0
2, 14638320, Note_on_c, 0, 45, 100
2, 14638440, Note_on_c, 0, 45, 0
2, 14638440, Note_on_c, 0, 47, 100
2, 14638560, Note_on_c, 0, 47, 0
2, 14638560, Note_on_c, 0, 48, 100
2, 14638680, Note_on_c, 0, 48, 0
2, 14638680, Note_on_c, 0, 50, 100
2, 14638800, Note_on_c, 0, 50, 0
2, 14638800, Note_on_c, 0, 43, 100
2, 14639160, Note_on_c, 0, 43, 0
2, 14639160, Note_on_c, 0, 45, 100
2, 14639280, Note_on_c, 0, 45, 0
2, 14639280, Note_on_c, 0, 47, 100
2, 14639400, Note_on_c, 0, 47, 0
2, 14639400, Note_on_c, 0, 48, 100
2, 14639520, Note_on_c, 0, 48, 0
2, 14639520, Note_on_c, 0, 50, 100
2, 14639640, Note_on_c, 0, 50, 0
2, 14639640, Note_on_c, 0, 52, 100
2, 14639760, Note_on_c, 0, 52, 0
2, 14639760, Note_on_c, 0, 50, 100
2, 14639880, Note_on_c, 0, 50, 0
2, 14639880, Note_on_c, 0, 48, 100
2, 14640000, Note_on_c, 0, 48, 0
2, 14640000, Note_on_c, 0, 47, 100
2, 14640120, Note_on_c, 0, 47, 0
2, 14640120, Note_on_c, 0, 48, 100
2, 14640240, Note_on_c, 0, 48, 0
2, 14640240, Note_on_c, 0, 52, 100
2, 14640360, Note_on_c, 0, 52, 0
2, 14640360, Note_on_c, 0, 42, 100
2, 14640480, Note_on_c, 0, 42, 0
2, 14640480, Note_on_c, 0, 45, 100
2, 14640600, Note_on_c, 0, 45, 0
2, 14640600, Note_on_c, 0, 43, 100
2, 14640720, Note_on_c, 0, 43, 0
2, 14640720, Note_on_c, 0, 42, 100
2, 14640840, Note_on_c, 0, 42, 0
2, 14640840, Note_on_c, 0, 40, 100
2, 14640960, Note_on_c, 0, 40, 0
2, 14640960, Note_on_c, 0, 38, 100
2, 14641080, Note_on_c, 0, 38, 0
2, 14641080, Note_on_c, 0, 43, 100
2, 14641200, Note_on_c, 0, 43, 0
2, 14641200, Note_on_c, 0, 42, 100
2, 14641320, Note_on_c, 0, 42, 0
2, 14641320, Note_on_c, 0, 43, 100
2, 14641440, Note_on_c, 0, 43, 0
2, 14641440, Note_on_c, 0, 45, 100
2, 14641560, Note_on_c, 0, 45, 0
2, 14641560, Note_on_c, 0, 47, 100
2, 14641680, Note_on_c, 0, 47, 0
2, 14641680, Note_on_c, 0, 48, 100
2, 14641800, Note_on_c, 0, 48, 0
2, 14641800, Note_on_c, 0, 50, 100
2, 14641920, Note_on_c, 0, 50, 0
2, 14641920, Note_on_c, 0, 52, 100
2, 14642040, Note_on_c, 0, 52, 0
2, 14642040, Note_on_c, 0, 45, 100
2, 14642160, Note_on_c, 0, 45, 0
2, 14642160, Note_on_c, 0, 47, 100
2, 14642280, Note_on_c, 0, 47, 0
2, 14642280, Note_on_c, 0, 48, 100
2, 14642400, Note_on_c, 0, 48, 0
2, 14642400, Note_on_c, 0, 45, 100
2, 14642520, Note_on_c, 0, 45, 0
2, 14642520, Note_on_c, 0, 47, 100
2, 14642640, Note_on_c, 0, 47, 0
2, 14642640, Note_on_c, 0, 45, 100
2, 14642760, Note_on_c, 0, 45, 0
2, 14642760, Note_on_c, 0, 43, 100
2, 14642880, Note_on_c, 0, 43, 0
2, 14642880, Note_on_c, 0, 42, 100
2, 14643000, Note_on_c, 0, 42, 0
2, 14643000, Note_on_c, 0, 43, 100
2, 14643120, Note_on_c, 0, 43, 0
2, 14643120, Note_on_c, 0, 42, 100
2, 14643480, Note_on_c, 0, 42, 0
2, 14643480, Note_on_c, 0, 40, 100
2, 14643600, Note_on_c, 0, 40, 0
2, 14643600, Note_on_c, 0, 38, 100
2, 14643720, Note_on_c, 0, 38, 0
2, 14643720, Note_on_c, 0, 40, 100
2, 14643840, Note_on_c, 0, 40, 0
2, 14643840, Note_on_c, 0, 42, 100
2, 14643960, Note_on_c, 0, 42, 0
2, 14643960, Note_on_c, 0, 43, 100
2, 14644080, Note_on_c, 0, 43, 0
2, 14644080, Note_on_c, 0, 42, 100
2, 14644200, Note_on_c, 0, 42, 0
2, 14644200, Note_on_c, 0, 43, 100
2, 14644320, Note_on_c, 0, 43, 0
2, 14644320, Note_on_c, 0, 45, 100
2, 14644440, Note_on_c, 0, 45, 0
2, 14644440, Note_on_c, 0, 43, 100
2, 14644560, Note_on_c, 0, 43, 0
2, 14644560, Note_on_c, 0, 42, 100
2, 14644680, Note_on_c, 0, 42, 0
2, 14644680, Note_on_c, 0, 40, 100
2, 14644800, Note_on_c, 0, 40, 0
2, 14644800, Note_on_c, 0, 42, 100
2, 14644920, Note_on_c, 0, 42, 0
2, 14644920, Note_on_c, 0, 43, 100
2, 14645040, Note_on_c, 0, 43, 0
2, 14645040, Note_on_c, 0, 40, 100
2, 14645160, Note_on_c, 0, 40, 0
2, 14645160, Note_on_c, 0, 42, 100
2, 14645280, Note_on_c, 0, 42, 0
2, 14645280, Note_on_c, 0, 43, 100
2, 14645400, Note_on_c, 0, 43, 0
2, 14645400, Note_on_c, 0, 45, 100
2, 14645520, Note_on_c, 0, 45, 0
2, 14645520, Note_on_c, 0, 43, 100
2, 14645640, Note_on_c, 0, 43, 0
2, 14645640, Note_on_c, 0, 45, 100
2, 14645760, Note_on_c, 0, 45, 0
2, 14645760, Note_on_c, 0, 47, 100
2, 14645880, Note_on_c, 0, 47, 0
2, 14645880, Note_on_c, 0, 45, 100
2, 14646000, Note_on_c, 0, 45, 0
2, 14646000, Note_on_c, 0, 43, 100
2, 14646120, Note_on_c, 0, 43, 0
2, 14646120, Note_on_c, 0, 42, 100
2, 14646240, Note_on_c, 0, 42, 0
2, 14646240, Note_on_c, 0, 54, 100
2, 14646360, Note_on_c, 0, 54, 0
2, 14646360, Note_on_c, 0, 55, 100
2, 14646480, Note_on_c, 0, 55, 0
2, 14646480, Note_on_c, 0, 54, 100
2, 14646600, Note_on_c, 0, 54, 0
2, 14646600, Note_on_c, 0, 52, 100
2, 14646720, Note_on_c, 0, 52, 0
2, 14646720, Note_on_c, 0, 54, 100
2, 14646840, Note_on_c, 0, 54, 0
2, 14646840, Note_on_c, 0, 47, 100
2, 14646960, Note_on_c, 0, 47, 0
2, 14646960, Note_on_c, 0, 45, 100
2, 14647080, Note_on_c, 0, 45, 0
2, 14647080, Note_on_c, 0, 47, 100
2, 14647200, Note_on_c, 0, 47, 0
2, 14647200, Note_on_c, 0, 48, 100
2, 14647320, Note_on_c, 0, 48, 0
2, 14647320, Note_on_c, 0, 50, 100
2, 14647440, Note_on_c, 0, 50, 0
2, 14647440, Note_on_c, 0, 47, 100
2, 14647560, Note_on_c, 0, 47, 0
2, 14647560, Note_on_c, 0, 49, 100
2, 14647680, Note_on_c, 0, 49, 0
2, 14647680, Note_on_c, 0, 50, 100
2, 14647800, Note_on_c, 0, 50, 0
2, 14647800, Note_on_c, 0, 52, 100
2, 14647920, Note_on_c, 0, 52, 0
2, 14647920, Note_on_c, 0, 50, 100
2, 14648040, Note_on_c, 0, 50, 0
2, 14648040, Note_on_c, 0, 49, 100
2, 14648160, Note_on_c, 0, 49, 0
2, 14648160, Note_on_c, 0, 47, 100
2, 14648280, Note_on_c, 0, 47, 0
2, 14648280, Note_on_c, 0, 45, 100
2, 14648400, Note_on_c, 0, 45, 0
2, 14648400, Note_on_c, 0, 52, 100
2, 14648520, Note_on_c, 0, 52, 0
2, 14648520, Note_on_c, 0, 50, 100
2, 14648640, Note_on_c, 0, 50, 0
2, 14648640, Note_on_c, 0, 49, 100
2, 14648760, Note_on_c, 0, 49, 0
2, 14648760, Note_on_c, 0, 50, 100
2, 14648880, Note_on_c, 0, 50, 0
2, 14648880, Note_on_c, 0, 47, 100
2, 14649000, Note_on_c, 0, 47, 0
2, 14649000, Note_on_c, 0, 49, 100
2, 14649120, Note_on_c, 0, 49, 0
2, 14649120, Note_on_c, 0, 45, 100
2, 14649240, Note_on_c, 0, 45, 0
2, 14649240, Note_on_c, 0, 47, 100
2, 14649360, Note_on_c, 0, 47, 0
2, 14649360, Note_on_c, 0, 49, 100
2, 14649480, Note_on_c, 0, 49, 0
2, 14649480, Note_on_c, 0, 50, 100
2, 14649600, Note_on_c, 0, 50, 0
2, 14649600, Note_on_c, 0, 52, 100
2, 14649720, Note_on_c, 0, 52, 0
2, 14649720, Note_on_c, 0, 54, 100
2, 14649840, Note_on_c, 0, 54, 0
2, 14649840, Note_on_c, 0, 47, 100
2, 14649960, Note_on_c, 0, 47, 0
2, 14649960, Note_on_c, 0, 49, 100
2, 14650080, Note_on_c, 0, 49, 0
2, 14650080, Note_on_c, 0, 50, 100
2, 14650200, Note_on_c, 0, 50, 0
2, 14650200, Note_on_c, 0, 52, 100
2, 14650320, Note_on_c, 0, 52, 0
2, 14650320, Note_on_c, 0, 54, 100
2, 14650440, Note_on_c, 0, 54, 0
2, 14650440, Note_on_c, 0, 55, 100
2, 14650560, Note_on_c, 0, 55, 0
2, 14650560, Note_on_c, 0, 54, 100
2, 14650680, Note_on_c, 0, 54, 0
2, 14650680, Note_on_c, 0, 52, 100
2, 14650800, Note_on_c, 0, 52, 0
2, 14650800, Note_on_c, 0, 50, 100
2, 14650920, Note_on_c, 0, 50, 0
2, 14650920, Note_on_c, 0, 52, 100
2, 14651040, Note_on_c, 0, 52, 0
2, 14651040, Note_on_c, 0, 46, 100
2, 14651160, Note_on_c, 0, 46, 0
2, 14651160, Note_on_c, 0, 47, 100
2, 14651280, Note_on_c, 0, 47, 0
2, 14651280, Note_on_c, 0, 49, 100
2, 14651400, Note_on_c, 0, 49, 0
2, 14651400, Note_on_c, 0, 50, 100
2, 14651520, Note_on_c, 0, 50, 0
2, 14651520, Note_on_c, 0, 49, 100
2, 14651640, Note_on_c, 0, 49, 0
2, 14651640, Note_on_c, 0, 47, 100
2, 14651760, Note_on_c, 0, 47, 0
2, 14651760, Note_on_c, 0, 45, 100
2, 14651880, Note_on_c, 0, 45, 0
2, 14651880, Note_on_c, 0, 43, 100
2, 14652000, Note_on_c, 0, 43, 0
2, 14652000, Note_on_c, 0, 42, 100
2, 14652120, Note_on_c, 0, 42, 0
2, 14652120, Note_on_c, 0, 43, 100
2, 14652240, Note_on_c, 0, 43, 0
2, 14652240, Note_on_c, 0, 47, 100
2, 14652360, Note_on_c, 0, 47, 0
2, 14652360, Note_on_c, 0, 45, 100
2, 14652480, Note_on_c, 0, 45, 0
2, 14652480, Note_on_c, 0, 43, 100
2, 14652600, Note_on_c, 0, 43, 0
2, 14652600, Note_on_c, 0, 42, 100
2, 14652720, Note_on_c, 0, 42, 0
2, 14652720, Note_on_c, 0, 45, 100
2, 14652840, Note_on_c, 0, 45, 0
2, 14652840, Note_on_c, 0, 43, 100
2, 14652960, Note_on_c, 0, 43, 0
2, 14652960, Note_on_c, 0, 42, 100
2, 14653080, Note_on_c, 0, 42, 0
2, 14653080, Note_on_c, 0, 40, 100
2, 14653200, Note_on_c, 0, 40, 0
2, 14653200, Note_on_c, 0, 38, 100
2, 14653320, Note_on_c, 0, 38, 0
2, 14653320, Note_on_c, 0, 43, 100
2, 14653440, Note_on_c, 0, 43, 0
2, 14653440, Note_on_c, 0, 40, 100
2, 14653680, Note_on_c, 0, 40, 0
2, 14653680, Note_on_c, 0, 45, 100
2, 14653920, Note_on_c, 0, 45, 0
2, 14653920, Note_on_c, 0, 38, 100
2, 14654160, Note_on_c, 0, 38, 0
2, 14654160, Note_on_c, 0, 42, 100
2, 14654280, Note_on_c, 0, 42, 0
2, 14654280, Note_on_c, 0, 45, 100
2, 14654400, Note_on_c, 0, 45, 0
2, 14654400, Note_on_c, 0, 50, 100
2, 14654520, Note_on_c, 0, 50, 0
2, 14654520, Note_on_c, 0, 45, 100
2, 14654640, Note_on_c, 0, 45, 0
2, 14654640, Note_on_c, 0, 42, 100
2, 14654760, Note_on_c, 0, 42, 0
2, 14654760, Note_on_c, 0, 38, 100
2, 14654880, Note_on_c, 0, 38, 0
2, 14654880, Note_on_c, 0, 50, 100
2, 14655600, Note_on_c, 0, 50, 0
2, 14655600, Note_on_c, 0, 54, 100
2, 14655840, Note_on_c, 0, 54, 0
2, 14655840, Note_on_c, 0, 57, 100
2, 14656080, Note_on_c, 0, 57, 0
2, 14656080, Note_on_c, 0, 62, 100
2, 14656320, Note_on_c, 0, 62, 0
2, 14656320, Note_on_c, 0, 60, 100
2, 14656560, Note_on_c, 0, 60, 0
2, 14656560, Note_on_c, 0, 59, 100
2, 14656680, Note_on_c, 0, 59, 0
2, 14656680, Note_on_c, 0, 57, 100
2, 14656800, Note_on_c, 0, 57, 0
2, 14656800, Note_on_c, 0, 55, 100
2, 14656920, Note_on_c, 0, 55, 0
2, 14656920, Note_on_c, 0, 54, 100
2, 14657040, Note_on_c, 0, 54, 0
2, 14657040, Note_on_c, 0, 57, 100
2, 14657280, Note_on_c, 0, 57, 0
2, 14657280, Note_on_c, 0, 50, 100
2, 14657520, Note_on_c, 0, 50, 0
2, 14657520, Note_on_c, 0, 55, 100
2, 14657760, Note_on_c, 0, 55, 0
2, 14657760, Note_on_c, 0, 57, 100
2, 14658000, Note_on_c, 0, 57, 0
2, 14658000, Note_on_c, 0, 59, 100
2, 14658240, Note_on_c, 0, 59, 0
2, 14658240, Note_on_c, 0, 60, 100
2, 14658480, Note_on_c, 0, 60, 0
2, 14658480, Note_on_c, 0, 62, 100
2, 14658600, Note_on_c, 0, 62, 0
2, 14658600, Note_on_c, 0, 60, 100
2, 14658720, Note_on_c, 0, 60, 0
2, 14658720, Note_on_c, 0, 59, 100
2, 14658840, Note_on_c, 0, 59, 0
2, 14658840, Note_on_c, 0, 57, 100
2, 14658960, Note_on_c, 0, 57, 0
2, 14658960, Note_on_c, 0, 55, 100
2, 14659080, Note_on_c, 0, 55, 0
2, 14659080, Note_on_c, 0, 54, 100
2, 14659200, Note_on_c, 0, 54, 0
2, 14659200, Note_on_c, 0, 52, 100
2, 14659320, Note_on_c, 0, 52, 0
2, 14659320, Note_on_c, 0, 54, 100
2, 14659440, Note_on_c, 0, 54, 0
2, 14659440, Note_on_c, 0, 55, 100
2, 14659560, Note_on_c, 0, 55, 0
2, 14659560, Note_on_c, 0, 57, 100
2, 14659680, Note_on_c, 0, 57, 0
2, 14659680, Note_on_c, 0, 54, 100
2, 14659800, Note_on_c, 0, 54, 0
2, 14659800, Note_on_c, 0, 59, 100
2, 14659920, Note_on_c, 0, 59, 0
2, 14659920, Note_on_c, 0, 54, 100
2, 14660160, Note_on_c, 0, 54, 0
2, 14660160, Note_on_c, 0, 55, 100
2, 14660400, Note_on_c, 0, 55, 0
2, 14660400, Note_on_c, 0, 57, 100
2, 14660640, Note_on_c, 0, 57, 0
2, 14660640, Note_on_c, 0, 60, 100
2, 14660760, Note_on_c, 0, 60, 0
2, 14660760, Note_on_c, 0, 59, 100
2, 14660880, Note_on_c, 0, 59, 0
2, 14660880, Note_on_c, 0, 57, 100
2, 14661000, Note_on_c, 0, 57, 0
2, 14661000, Note_on_c, 0, 55, 100
2, 14661120, Note_on_c, 0, 55, 0
2, 14661120, Note_on_c, 0, 54, 100
2, 14661240, Note_on_c, 0, 54, 0
2, 14661240, Note_on_c, 0, 55, 100
2, 14661360, Note_on_c, 0, 55, 0
2, 14661360, Note_on_c, 0, 57, 100
2, 14661480, Note_on_c, 0, 57, 0
2, 14661480, Note_on_c, 0, 55, 100
2, 14661600, Note_on_c, 0, 55, 0
2, 14661600, Note_on_c, 0, 54, 100
2, 14661720, Note_on_c, 0, 54, 0
2, 14661720, Note_on_c, 0, 52, 100
2, 14661840, Note_on_c, 0, 52, 0
2, 14661840, Note_on_c, 0, 50, 100
2, 14661960, Note_on_c, 0, 50, 0
2, 14661960, Note_on_c, 0, 48, 100
2, 14662080, Note_on_c, 0, 48, 0
2, 14662080, Note_on_c, 0, 47, 100
2, 14662200, Note_on_c, 0, 47, 0
2, 14662200, Note_on_c, 0, 45, 100
2, 14662320, Note_on_c, 0, 45, 0
2, 14662320, Note_on_c, 0, 47, 100
2, 14662440, Note_on_c, 0, 47, 0
2, 14662440, Note_on_c, 0, 48, 100
2, 14662560, Note_on_c, 0, 48, 0
2, 14662560, Note_on_c, 0, 45, 100
2, 14662680, Note_on_c, 0, 45, 0
2, 14662680, Note_on_c, 0, 47, 100
2, 14662800, Note_on_c, 0, 47, 0
2, 14662800, Note_on_c, 0, 54, 100
2, 14663040, Note_on_c, 0, 54, 0
2, 14663040, Note_on_c, 0, 59, 100
2, 14663280, Note_on_c, 0, 59, 0
2, 14663280, Note_on_c, 0, 55, 100
2, 14663760, Note_on_c, 0, 55, 0
2, 14663760, Note_on_c, 0, 52, 100
2, 14664000, Note_on_c, 0, 52, 0
2, 14664000, Note_on_c, 0, 60, 100
2, 14664240, Note_on_c, 0, 60, 0
2, 14664240, Note_on_c, 0, 62, 100
2, 14664360, Note_on_c, 0, 62, 0
2, 14664360, Note_on_c, 0, 60, 100
2, 14664480, Note_on_c, 0, 60, 0
2, 14664480, Note_on_c, 0, 59, 100
2, 14664600, Note_on_c, 0, 59, 0
2, 14664600, Note_on_c, 0, 57, 100
2, 14664720, Note_on_c, 0, 57, 0
2, 14664720, Note_on_c, 0, 55, 100
2, 14664840, Note_on_c, 0, 55, 0
2, 14664840, Note_on_c, 0, 54, 100
2, 14664960, Note_on_c, 0, 54, 0
2, 14664960, Note_on_c, 0, 52, 100
2, 14665080, Note_on_c, 0, 52, 0
2, 14665080, Note_on_c, 0, 54, 100
2, 14665200, Note_on_c, 0, 54, 0
2, 14665200, Note_on_c, 0, 59, 100
2, 14665320, Note_on_c, 0, 59, 0
2, 14665320, Note_on_c, 0, 57, 100
2, 14665440, Note_on_c, 0, 57, 0
2, 14665440, Note_on_c, 0, 59, 100
2, 14665560, Note_on_c, 0, 59, 0
2, 14665560, Note_on_c, 0, 52, 100
2, 14665680, Note_on_c, 0, 52, 0
2, 14665680, Note_on_c, 0, 55, 100
2, 14665920, Note_on_c, 0, 55, 0
2, 14665920, Note_on_c, 0, 59, 100
2, 14666160, Note_on_c, 0, 59, 0
2, 14666160, Note_on_c, 0, 64, 100
2, 14666400, Note_on_c, 0, 64, 0
2, 14666400, Note_on_c, 0, 52, 100
2, 14666640, Note_on_c, 0, 52, 0
2, 14666640, Note_on_c, 0, 50, 100
2, 14666880, Note_on_c, 0, 50, 0
2, 14666880, Note_on_c, 0, 48, 100
2, 14667120, Note_on_c, 0, 48, 0
2, 14667120, Note_on_c, 0, 60, 100
2, 14667360, Note_on_c, 0, 60, 0
2, 14667360, Note_on_c, 0, 59, 100
2, 14667600, Note_on_c, 0, 59, 0
2, 14667600, Note_on_c, 0, 57, 100
2, 14667840, Note_on_c, 0, 57, 0
2, 14667840, Note_on_c, 0, 60, 100
2, 14668800, Note_on_c, 0, 60, 0
2, 14668800, Note_on_c, 0, 57, 100
2, 14669040, Note_on_c, 0, 57, 0
2, 14669040, Note_on_c, 0, 54, 100
2, 14669280, Note_on_c, 0, 54, 0
2, 14669280, Note_on_c, 0, 50, 100
2, 14669520, Note_on_c, 0, 50, 0
2, 14669520, Note_on_c, 0, 62, 100
2, 14669760, Note_on_c, 0, 62, 0
2, 14669760, Note_on_c, 0, 55, 100
2, 14670000, Note_on_c, 0, 55, 0
2, 14670000, Note_on_c, 0, 57, 100
2, 14670120, Note_on_c, 0, 57, 0
2, 14670120, Note_on_c, 0, 55, 100
2, 14670240, Note_on_c, 0, 55, 0
2, 14670240, Note_on_c, 0, 53, 100
2, 14670360, Note_on_c, 0, 53, 0
2, 14670360, Note_on_c, 0, 52, 100
2, 14670480, Note_on_c, 0, 52, 0
2, 14670480, Note_on_c, 0, 50, 100
2, 14670600, Note_on_c, 0, 50, 0
2, 14670600, Note_on_c, 0, 48, 100
2, 14670720, Note_on_c, 0, 48, 0
2, 14670720, Note_on_c, 0, 52, 100
2, 14670960, Note_on_c, 0, 52, 0
2, 14670960, Note_on_c, 0, 48, 100
2, 14671200, Note_on_c, 0, 48, 0
2, 14671200, Note_on_c, 0, 45, 100
2, 14671440, Note_on_c, 0, 45, 0
2, 14671440, Note_on_c, 0, 47, 100
2, 14671560, Note_on_c, 0, 47, 0
2, 14671560, Note_on_c, 0, 48, 100
2, 14671680, Note_on_c, 0, 48, 0
2, 14671680, Note_on_c, 0, 45, 100
2, 14671800, Note_on_c, 0, 45, 0
2, 14671800, Note_on_c, 0, 47, 100
2, 14671920, Note_on_c, 0, 47, 0
2, 14671920, Note_on_c, 0, 48, 100
2, 14672040, Note_on_c, 0, 48, 0
2, 14672040, Note_on_c, 0, 50, 100
2, 14672160, Note_on_c, 0, 50, 0
2, 14672160, Note_on_c, 0, 38, 100
2, 14672400, Note_on_c, 0, 38, 0
2, 14672400, Note_on_c, 0, 54, 100
2, 14672640, Note_on_c, 0, 54, 0
2, 14672640, Note_on_c, 0, 55, 100
2, 14672880, Note_on_c, 0, 55, 0
2, 14672880, Note_on_c, 0, 57, 100
2, 14673000, Note_on_c, 0, 57, 0
2, 14673000, Note_on_c, 0, 59, 100
2, 14673120, Note_on_c, 0, 59, 0
2, 14673120, Note_on_c, 0, 55, 100
2, 14673240, Note_on_c, 0, 55, 0
2, 14673240, Note_on_c, 0, 57, 100
2, 14673360, Note_on_c, 0, 57, 0
2, 14673360, Note_on_c, 0, 59, 100
2, 14673480, Note_on_c, 0, 59, 0
2, 14673480, Note_on_c, 0, 60, 100
2, 14673600, Note_on_c, 0, 60, 0
2, 14673600, Note_on_c, 0, 64, 100
2, 14673840, Note_on_c, 0, 64, 0
2, 14673840, Note_on_c, 0, 57, 100
2, 14674080, Note_on_c, 0, 57, 0
2, 14674080, Note_on_c, 0, 62, 100
2, 14674320, Note_on_c, 0, 62, 0
2, 14674320, Note_on_c, 0, 60, 100
2, 14674440, Note_on_c, 0, 60, 0
2, 14674440, Note_on_c, 0, 59, 100
2, 14674560, Note_on_c, 0, 59, 0
2, 14674560, Note_on_c, 0, 62, 100
2, 14674680, Note_on_c, 0, 62, 0
2, 14674680, Note_on_c, 0, 60, 100
2, 14674800, Note_on_c, 0, 60, 0
2, 14674800, Note_on_c, 0, 59, 100
2, 14674920, Note_on_c, 0, 59, 0
2, 14674920, Note_on_c, 0, 60, 100
2, 14675040, Note_on_c, 0, 60, 0
2, 14675040, Note_on_c, 0, 59, 100
2, 14675160, Note_on_c, 0, 59, 0
2, 14675160, Note_on_c, 0, 57, 100
2, 14675280, Note_on_c, 0, 57, 0
2, 14675280, Note_on_c, 0, 55, 100
2, 14675400, Note_on_c, 0, 55, 0
2, 14675400, Note_on_c, 0, 54, 100
2, 14675520, Note_on_c, 0, 54, 0
2, 14675520, Note_on_c, 0, 57, 100
2, 14675640, Note_on_c, 0, 57, 0
2, 14675640, Note_on_c, 0, 55, 100
2, 14675760, Note_on_c, 0, 55, 0
2, 14675760, Note_on_c, 0, 54, 100
2, 14675880, Note_on_c, 0, 54, 0
2, 14675880, Note_on_c, 0, 52, 100
2, 14676000, Note_on_c, 0, 52, 0
2, 14676000, Note_on_c, 0, 50, 100
2, 14676120, Note_on_c, 0, 50, 0
2, 14676120, Note_on_c, 0, 48, 100
2, 14676240, Note_on_c, 0, 48, 0
2, 14676240, Note_on_c, 0, 47, 100
2, 14676360, Note_on_c, 0, 47, 0
2, 14676360, Note_on_c, 0, 48, 100
2, 14676480, Note_on_c, 0, 48, 0
2, 14676480, Note_on_c, 0, 45, 100
2, 14676720, Note_on_c, 0, 45, 0
2, 14676720, Note_on_c, 0, 50, 100
2, 14676960, Note_on_c, 0, 50, 0
2, 14676960, Note_on_c, 0, 43, 100
2, 14677200, Note_on_c, 0, 43, 0
2, 14677200, Note_on_c, 0, 47, 100
2, 14677320, Note_on_c, 0, 47, 0
2, 14677320, Note_on_c, 0, 50, 100
2, 14677440, Note_on_c, 0, 50, 0
2, 14677440, Note_on_c, 0, 55, 100
2, 14677560, Note_on_c, 0, 55, 0
2, 14677560, Note_on_c, 0, 50, 100
2, 14677680, Note_on_c, 0, 50, 0
2, 14677680, Note_on_c, 0, 47, 100
2, 14677800, Note_on_c, 0, 47, 0
2, 14677800, Note_on_c, 0, 43, 100
2, 14677920, Note_on_c, 0, 43, 0
2, 14677920, Note_on_c, 0, 50, 100
2, 14678640, Note_on_c, 0, 50, 0
2, 14678640, Note_on_c, 0, 54, 100
2, 14678880, Note_on_c, 0, 54, 0
2, 14678880, Note_on_c, 0, 57, 100
2, 14679120, Note_on_c, 0, 57, 0
2, 14679120, Note_on_c, 0, 62, 100
2, 14679360, Note_on_c, 0, 62, 0
2, 14679360, Note_on_c, 0, 60, 100
2, 14679600, Note_on_c, 0, 60, 0
2, 14679600, Note_on_c, 0, 59, 100
2, 14679720, Note_on_c, 0, 59, 0
2, 14679720, Note_on_c, 0, 57, 100
2, 14679840, Note_on_c, 0, 57, 0
2, 14679840, Note_on_c, 0, 55, 100
2, 14679960, Note_on_c, 0, 55, 0
2, 14679960, Note_on_c, 0, 54, 100
2, 14680080, Note_on_c, 0, 54, 0
2, 14680080, Note_on_c, 0, 57, 100
2, 14680320, Note_on_c, 0, 57, 0
2, 14680320, Note_on_c, 0, 50, 100
2, 14680560, Note_on_c, 0, 50, 0
2, 14680560, Note_on_c, 0, 55, 100
2, 14680800, Note_on_c, 0, 55, 0
2, 14680800, Note_on_c, 0, 57, 100
2, 14681040, Note_on_c, 0, 57, 0
2, 14681040, Note_on_c, 0, 59, 100
2, 14681280, Note_on_c, 0, 59, 0
2, 14681280, Note_on_c, 0, 60, 100
2, 14681520, Note_on_c, 0, 60, 0
2, 14681520, Note_on_c, 0, 62, 100
2, 14681640, Note_on_c, 0, 62, 0
2, 14681640, Note_on_c, 0, 60, 100
2, 14681760, Note_on_c, 0, 60, 0
2, 14681760, Note_on_c, 0, 59, 100
2, 14681880, Note_on_c, 0, 59, 0
2, 14681880, Note_on_c, 0, 57, 100
2, 14682000, Note_on_c, 0, 57, 0
2, 14682000, Note_on_c, 0, 55, 100
2, 14682120, Note_on_c, 0, 55, 0
2, 14682120, Note_on_c, 0, 54, 100
2, 14682240, Note_on_c, 0, 54, 0
2, 14682240, Note_on_c, 0, 52, 100
2, 14682360, Note_on_c, 0, 52, 0
2, 14682360, Note_on_c, 0, 54, 100
2, 14682480, Note_on_c, 0, 54, 0
2, 14682480, Note_on_c, 0, 55, 100
2, 14682600, Note_on_c, 0, 55, 0
2, 14682600, Note_on_c, 0, 57, 100
2, 14682720, Note_on_c, 0, 57, 0
2, 14682720, Note_on_c, 0, 54, 100
2, 14682840, Note_on_c, 0, 54, 0
2, 14682840, Note_on_c, 0, 59, 100
2, 14682960, Note_on_c, 0, 59, 0
2, 14682960, Note_on_c, 0, 54, 100
2, 14683200, Note_on_c, 0, 54, 0
2, 14683200, Note_on_c, 0, 55, 100
2, 14683440, Note_on_c, 0, 55, 0
2, 14683440, Note_on_c, 0, 57, 100
2, 14683680, Note_on_c, 0, 57, 0
2, 14683680, Note_on_c, 0, 60, 100
2, 14683800, Note_on_c, 0, 60, 0
2, 14683800, Note_on_c, 0, 59, 100
2, 14683920, Note_on_c, 0, 59, 0
2, 14683920, Note_on_c, 0, 57, 100
2, 14684040, Note_on_c, 0, 57, 0
2, 14684040, Note_on_c, 0, 55, 100
2, 14684160, Note_on_c, 0, 55, 0
2, 14684160, Note_on_c, 0, 54, 100
2, 14684280, Note_on_c, 0, 54, 0
2, 14684280, Note_on_c, 0, 55, 100
2, 14684400, Note_on_c, 0, 55, 0
2, 14684400, Note_on_c, 0, 57, 100
2, 14684520, Note_on_c, 0, 57, 0
2, 14684520, Note_on_c, 0, 55, 100
2, 14684640, Note_on_c, 0, 55, 0
2, 14684640, Note_on_c, 0, 54, 100
2, 14684760, Note_on_c, 0, 54, 0
2, 14684760, Note_on_c, 0, 52, 100
2, 14684880, Note_on_c, 0, 52, 0
2, 14684880, Note_on_c, 0, 50, 100
2, 14685000, Note_on_c, 0, 50, 0
2, 14685000, Note_on_c, 0, 48, 100
2, 14685120, Note_on_c, 0, 48, 0
2, 14685120, Note_on_c, 0, 47, 100
2, 14685240, Note_on_c, 0, 47, 0
2, 14685240, Note_on_c, 0, 45, 100
2, 14685360, Note_on_c, 0, 45, 0
2, 14685360, Note_on_c, 0, 47, 100
2, 14685480, Note_on_c, 0, 47, 0
2, 14685480, Note_on_c, 0, 48, 100
2, 14685600, Note_on_c, 0, 48, 0
2, 14685600, Note_on_c, 0, 45, 100
2, 14685720, Note_on_c, 0, 45, 0
2, 14685720, Note_on_c, 0, 47, 100
2, 14685840, Note_on_c, 0, 47, 0
2, 14685840, Note_on_c, 0, 54, 100
2, 14686080, Note_on_c, 0, 54, 0
2, 14686080, Note_on_c, 0, 59, 100
2, 14686320, Note_on_c, 0, 59, 0
2, 14686320, Note_on_c, 0, 55, 100
2, 14686800, Note_on_c, 0, 55, 0
2, 14686800, Note_on_c, 0, 52, 100
2, 14687040, Note_on_c, 0, 52, 0
2, 14687040, Note_on_c, 0, 60, 100
2, 14687280, Note_on_c, 0, 60, 0
2, 14687280, Note_on_c, 0, 62, 100
2, 14687400, Note_on_c, 0, 62, 0
2, 14687400, Note_on_c, 0, 60, 100
2, 14687520, Note_on_c, 0, 60, 0
2, 14687520, Note_on_c, 0, 59, 100
2, 14687640, Note_on_c, 0, 59, 0
2, 14687640, Note_on_c, 0, 57, 100
2, 14687760, Note_on_c, 0, 57, 0
2, 14687760, Note_on_c, 0, 55, 100
2, 14687880, Note_on_c, 0, 55, 0
2, 14687880, Note_on_c, 0, 54, 100
2, 14688000, Note_on_c, 0, 54, 0
2, 14688000, Note_on_c, 0, 52, 100
2, 14688120, Note_on_c, 0, 52, 0
2, 14688120, Note_on_c, 0, 54, 100
2, 14688240, Note_on_c, 0, 54, 0
2, 14688240, Note_on_c, 0, 59, 100
2, 14688360, Note_on_c, 0, 59, 0
2, 14688360, Note_on_c, 0, 57, 100
2, 14688480, Note_on_c, 0, 57, 0
2, 14688480, Note_on_c, 0, 59, 100
2, 14688600, Note_on_c, 0, 59, 0
2, 14688600, Note_on_c, 0, 52, 100
2, 14688720, Note_on_c, 0, 52, 0
2, 14688720, Note_on_c, 0, 55, 100
2, 14688960, Note_on_c, 0, 55, 0
2, 14688960, Note_on_c, 0, 59, 100
2, 14689200, Note_on_c, 0, 59, 0
2, 14689200, Note_on_c, 0, 64, 100
2, 14689440, Note_on_c, 0, 64, 0
2, 14689440, Note_on_c, 0, 52, 100
2, 14689680, Note_on_c, 0, 52, 0
2, 14689680, Note_on_c, 0, 50, 100
2, 14689920, Note_on_c, 0, 50, 0
2, 14689920, Note_on_c, 0, 48, 100
2, 14690160, Note_on_c, 0, 48, 0
2, 14690160, Note_on_c, 0, 60, 100
2, 14690400, Note_on_c, 0, 60, 0
2, 14690400, Note_on_c, 0, 59, 100
2, 14690640, Note_on_c, 0, 59, 0
2, 14690640, Note_on_c, 0, 57, 100
2, 14690880, Note_on_c, 0, 57, 0
2, 14690880, Note_on_c, 0, 60, 100
2, 14691840, Note_on_c, 0, 60, 0
2, 14691840, Note_on_c, 0, 57, 100
2, 14692080, Note_on_c, 0, 57, 0
2, 14692080, Note_on_c, 0, 54, 100
2, 14692320, Note_on_c, 0, 54, 0
2, 14692320, Note_on_c, 0, 50, 100
2, 14692560, Note_on_c, 0, 50, 0
2, 14692560, Note_on_c, 0, 62, 100
2, 14692800, Note_on_c, 0, 62, 0
2, 14692800, Note_on_c, 0, 55, 100
2, 14693040, Note_on_c, 0, 55, 0
2, 14693040, Note_on_c, 0, 57, 100
2, 14693160, Note_on_c, 0, 57, 0
2, 14693160, Note_on_c, 0, 55, 100
2, 14693280, Note_on_c, 0, 55, 0
2, 14693280, Note_on_c, 0, 53, 100
2, 14693400, Note_on_c, 0, 53, 0
2, 14693400, Note_on_c, 0, 52, 100
2, 14693520, Note_on_c, 0, 52, 0
2, 14693520, Note_on_c, 0, 50, 100
2, 14693640, Note_on_c, 0, 50, 0
2, 14693640, Note_on_c, 0, 48, 100
2, 14693760, Note_on_c, 0, 48, 0
2, 14693760, Note_on_c, 0, 52, 100
2, 14694000, Note_on_c, 0, 52, 0
2, 14694000, Note_on_c, 0, 48, 100
2, 14694240, Note_on_c, 0, 48, 0
2, 14694240, Note_on_c, 0, 45, 100
2, 14694480, Note_on_c, 0, 45, 0
2, 14694480, Note_on_c, 0, 47, 100
2, 14694600, Note_on_c, 0, 47, 0
2, 14694600, Note_on_c, 0, 48, 100
2, 14694720, Note_on_c, 0, 48, 0
2, 14694720, Note_on_c, 0, 45, 100
2, 14694840, Note_on_c, 0, 45, 0
2, 14694840, Note_on_c, 0, 47, 100
2, 14694960, Note_on_c, 0, 47, 0
2, 14694960, Note_on_c, 0, 48, 100
2, 14695080, Note_on_c, 0, 48, 0
2, 14695080, Note_on_c, 0, 50, 100
2, 14695200, Note_on_c, 0, 50, 0
2, 14695200, Note_on_c, 0, 38, 100
2, 14695440, Note_on_c, 0, 38, 0
2, 14695440, Note_on_c, 0, 54, 100
2, 14695680, Note_on_c, 0, 54, 0
2, 14695680, Note_on_c, 0, 55, 100
2, 14695920, Note_on_c, 0, 55, 0
2, 14695920, Note_on_c, 0, 57, 100
2, 14696040, Note_on_c, 0, 57, 0
2, 14696040, Note_on_c, 0, 59, 100
2, 14696160, Note_on_c, 0, 59, 0
2, 14696160, Note_on_c, 0, 55, 100
2, 14696280, Note_on_c, 0, 55, 0
2, 14696280, Note_on_c, 0, 57, 100
2, 14696400, Note_on_c, 0, 57, 0
2, 14696400, Note_on_c, 0, 59, 100
2, 14696520, Note_on_c, 0, 59, 0
2, 14696520, Note_on_c, 0, 60, 100
2, 14696640, Note_on_c, 0, 60, 0
2, 14696640, Note_on_c, 0, 64, 100
2, 14696880, Note_on_c, 0, 64, 0
2, 14696880, Note_on_c, 0, 57, 100
2, 14697120, Note_on_c, 0, 57, 0
2, 14697120, Note_on_c, 0, 62, 100
2, 14697360, Note_on_c, 0, 62, 0
2, 14697360, Note_on_c, 0, 60, 100
2, 14697480, Note_on_c, 0, 60, 0
2, 14697480, Note_on_c, 0, 59, 100
2, 14697600, Note_on_c, 0, 59, 0
2, 14697600, Note_on_c, 0, 62, 100
2, 14697720, Note_on_c, 0, 62, 0
2, 14697720, Note_on_c, 0, 60, 100
2, 14697840, Note_on_c, 0, 60, 0
2, 14697840, Note_on_c, 0, 59, 100
2, 14697960, Note_on_c, 0, 59, 0
2, 14697960, Note_on_c, 0, 60, 100
2, 14698080, Note_on_c, 0, 60, 0
2, 14698080, Note_on_c, 0, 59, 100
2, 14698200, Note_on_c, 0, 59, 0
2, 14698200, Note_on_c, 0, 57, 100
2, 14698320, Note_on_c, 0, 57, 0
2, 14698320, Note_on_c, 0, 55, 100
2, 14698440, Note_on_c, 0, 55, 0
2, 14698440, Note_on_c, 0, 54, 100
2, 14698560, Note_on_c, 0, 54, 0
2, 14698560, Note_on_c, 0, 57, 100
2, 14698680, Note_on_c, 0, 57, 0
2, 14698680, Note_on_c, 0, 55, 100
2, 14698800, Note_on_c, 0, 55, 0
2, 14698800, Note_on_c, 0, 54, 100
2, 14698920, Note_on_c, 0, 54, 0
2, 14698920, Note_on_c, 0, 52, 100
2, 14699040, Note_on_c, 0, 52, 0
2, 14699040, Note_on_c, 0, 50, 100
2, 14699160, Note_on_c, 0, 50, 0
2, 14699160, Note_on_c, 0, 48, 100
2, 14699280, Note_on_c, 0, 48, 0
2, 14699280, Note_on_c, 0, 47, 100
2, 14699400, Note_on_c, 0, 47, 0
2, 14699400, Note_on_c, 0, 48, 100
2, 14699520, Note_on_c, 0, 48, 0
2, 14699520, Note_on_c, 0, 45, 100
2, 14699760, Note_on_c, 0, 45, 0
2, 14699760, Note_on_c, 0, 50, 100
2, 14700000, Note_on_c, 0, 50, 0
2, 14700000, Note_on_c, 0, 43, 100
2, 14700240, Note_on_c, 0, 43, 0
2, 14700240, Note_on_c, 0, 47, 100
2, 14700360, Note_on_c, 0, 47, 0
2, 14700360, Note_on_c, 0, 50, 100
2, 14700480, Note_on_c, 0, 50, 0
2, 14700480, Note_on_c, 0, 55, 100
2, 14700600, Note_on_c, 0, 55, 0
2, 14700600, Note_on_c, 0, 50, 100
2, 14700720, Note_on_c, 0, 50, 0
2, 14700720, Note_on_c, 0, 47, 100
2, 14700840, Note_on_c, 0, 47, 0
2, 14700840, Note_on_c, 0, 43, 100
2, 14839920, Note_on_c, 0, 43, 0
2, 14839920, Note_on_c, 0, 42, 100
2, 14840040, Note_on_c, 0, 42, 0
2, 14840040, Note_on_c, 0, 43, 100
2, 14840160, Note_on_c, 0, 43, 0
2, 14840160, Note_on_c, 0, 45, 100
2, 14840280, Note_on_c, 0, 45, 0
2, 14840280, Note_on_c, 0, 47, 100
2, 14840400, Note_on_c, 0, 47, 0
2, 14840400, Note_on_c, 0, 43, 100
2, 14840520, Note_on_c, 0, 43, 0
2, 14840520, Note_on_c, 0, 50, 100
2, 14840640, Note_on_c, 0, 50, 0
2, 14840640, Note_on_c, 0, 48, 100
2, 14840760, Note_on_c, 0, 48, 0
2, 14840760, Note_on_c, 0, 50, 100
2, 14840880, Note_on_c, 0, 50, 0
2, 14840880, Note_on_c, 0, 52, 100
2, 14841000, Note_on_c, 0, 52, 0
2, 14841000, Note_on_c, 0, 54, 100
2, 14841120, Note_on_c, 0, 54, 0
2, 14841120, Note_on_c, 0, 50, 100
2, 14841240, Note_on_c, 0, 50, 0
2, 14841240, Note_on_c, 0, 55, 100
2, 14841360, Note_on_c, 0, 55, 0
2, 14841360, Note_on_c, 0, 54, 100
2, 14841480, Note_on_c, 0, 54, 0
2, 14841480, Note_on_c, 0, 52, 100
2, 14841600, Note_on_c, 0, 52, 0
2, 14841600, Note_on_c, 0, 54, 100
2, 14841720, Note_on_c, 0, 54, 0
2, 14841720, Note_on_c, 0, 55, 100
2, 14841840, Note_on_c, 0, 55, 0
2, 14841840, Note_on_c, 0, 52, 100
2, 14841960, Note_on_c, 0, 52, 0
2, 14841960, Note_on_c, 0, 57, 100
2, 14842080, Note_on_c, 0, 57, 0
2, 14842080, Note_on_c, 0, 55, 100
2, 14842200, Note_on_c, 0, 55, 0
2, 14842200, Note_on_c, 0, 54, 100
2, 14842320, Note_on_c, 0, 54, 0
2, 14842320, Note_on_c, 0, 55, 100
2, 14842440, Note_on_c, 0, 55, 0
2, 14842440, Note_on_c, 0, 57, 100
2, 14842560, Note_on_c, 0, 57, 0
2, 14842560, Note_on_c, 0, 54, 100
2, 14842680, Note_on_c, 0, 54, 0
2, 14842680, Note_on_c, 0, 59, 100
2, 14842800, Note_on_c, 0, 59, 0
2, 14842800, Note_on_c, 0, 57, 100
2, 14842920, Note_on_c, 0, 57, 0
2, 14842920, Note_on_c, 0, 55, 100
2, 14843040, Note_on_c, 0, 55, 0
2, 14843040, Note_on_c, 0, 57, 100
2, 14843160, Note_on_c, 0, 57, 0
2, 14843160, Note_on_c, 0, 59, 100
2, 14843280, Note_on_c, 0, 59, 0
2, 14843280, Note_on_c, 0, 55, 100
2, 14843400, Note_on_c, 0, 55, 0
2, 14843400, Note_on_c, 0, 60, 100
2, 14843520, Note_on_c, 0, 60, 0
2, 14843520, Note_on_c, 0, 59, 100
2, 14843640, Note_on_c, 0, 59, 0
2, 14843640, Note_on_c, 0, 57, 100
2, 14843760, Note_on_c, 0, 57, 0
2, 14843760, Note_on_c, 0, 55, 100
2, 14843880, Note_on_c, 0, 55, 0
2, 14843880, Note_on_c, 0, 54, 100
2, 14844000, Note_on_c, 0, 54, 0
2, 14844000, Note_on_c, 0, 52, 100
2, 14844120, Note_on_c, 0, 52, 0
2, 14844120, Note_on_c, 0, 54, 100
2, 14844240, Note_on_c, 0, 54, 0
2, 14844240, Note_on_c, 0, 52, 100
2, 14844360, Note_on_c, 0, 52, 0
2, 14844360, Note_on_c, 0, 54, 100
2, 14844480, Note_on_c, 0, 54, 0
2, 14844480, Note_on_c, 0, 50, 100
2, 14844600, Note_on_c, 0, 50, 0
2, 14844600, Note_on_c, 0, 52, 100
2, 14844720, Note_on_c, 0, 52, 0
2, 14844720, Note_on_c, 0, 54, 100
2, 14844840, Note_on_c, 0, 54, 0
2, 14844840, Note_on_c, 0, 55, 100
2, 14844960, Note_on_c, 0, 55, 0
2, 14844960, Note_on_c, 0, 52, 100
2, 14845080, Note_on_c, 0, 52, 0
2, 14845080, Note_on_c, 0, 50, 100
2, 14845200, Note_on_c, 0, 50, 0
2, 14845200, Note_on_c, 0, 48, 100
2, 14845320, Note_on_c, 0, 48, 0
2, 14845320, Note_on_c, 0, 47, 100
2, 14845440, Note_on_c, 0, 47, 0
2, 14845440, Note_on_c, 0, 45, 100
2, 14845560, Note_on_c, 0, 45, 0
2, 14845560, Note_on_c, 0, 43, 100
2, 14845680, Note_on_c, 0, 43, 0
2, 14845680, Note_on_c, 0, 54, 100
2, 14845800, Note_on_c, 0, 54, 0
2, 14845800, Note_on_c, 0, 52, 100
2, 14845920, Note_on_c, 0, 52, 0
2, 14845920, Note_on_c, 0, 50, 100
2, 14846040, Note_on_c, 0, 50, 0
2, 14846040, Note_on_c, 0, 48, 100
2, 14846160, Note_on_c, 0, 48, 0
2, 14846160, Note_on_c, 0, 47, 100
2, 14846280, Note_on_c, 0, 47, 0
2, 14846280, Note_on_c, 0, 49, 100
2, 14846400, Note_on_c, 0, 49, 0
2, 14846400, Note_on_c, 0, 45, 100
2, 14846520, Note_on_c, 0, 45, 0
2, 14846520, Note_on_c, 0, 50, 100
2, 14846640, Note_on_c, 0, 50, 0
2, 14846640, Note_on_c, 0, 52, 100
2, 14846760, Note_on_c, 0, 52, 0
2, 14846760, Note_on_c, 0, 54, 100
2, 14846880, Note_on_c, 0, 54, 0
2, 14846880, Note_on_c, 0, 50, 100
2, 14847000, Note_on_c, 0, 50, 0
2, 14847000, Note_on_c, 0, 55, 100
2, 14847120, Note_on_c, 0, 55, 0
2, 14847120, Note_on_c, 0, 54, 100
2, 14847240, Note_on_c, 0, 54, 0
2, 14847240, Note_on_c, 0, 52, 100
2, 14847360, Note_on_c, 0, 52, 0
2, 14847360, Note_on_c, 0, 54, 100
2, 14847480, Note_on_c, 0, 54, 0
2, 14847480, Note_on_c, 0, 55, 100
2, 14847600, Note_on_c, 0, 55, 0
2, 14847600, Note_on_c, 0, 52, 100
2, 14847720, Note_on_c, 0, 52, 0
2, 14847720, Note_on_c, 0, 57, 100
2, 14847840, Note_on_c, 0, 57, 0
2, 14847840, Note_on_c, 0, 55, 100
2, 14847960, Note_on_c, 0, 55, 0
2, 14847960, Note_on_c, 0, 54, 100
2, 14848080, Note_on_c, 0, 54, 0
2, 14848080, Note_on_c, 0, 55, 100
2, 14848200, Note_on_c, 0, 55, 0
2, 14848200, Note_on_c, 0, 57, 100
2, 14848320, Note_on_c, 0, 57, 0
2, 14848320, Note_on_c, 0, 54, 100
2, 14848440, Note_on_c, 0, 54, 0
2, 14848440, Note_on_c, 0, 59, 100
2, 14848560, Note_on_c, 0, 59, 0
2, 14848560, Note_on_c, 0, 57, 100
2, 14848680, Note_on_c, 0, 57, 0
2, 14848680, Note_on_c, 0, 55, 100
2, 14848800, Note_on_c, 0, 55, 0
2, 14848800, Note_on_c, 0, 57, 100
2, 14848920, Note_on_c, 0, 57, 0
2, 14848920, Note_on_c, 0, 59, 100
2, 14849040, Note_on_c, 0, 59, 0
2, 14849040, Note_on_c, 0, 57, 100
2, 14849160, Note_on_c, 0, 57, 0
2, 14849160, Note_on_c, 0, 56, 100
2, 14849280, Note_on_c, 0, 56, 0
2, 14849280, Note_on_c, 0, 44, 100
2, 14849520, Note_on_c, 0, 44, 0
2, 14849520, Note_on_c, 0, 45, 100
2, 14850000, Note_on_c, 0, 45, 0
2, 14850000, Note_on_c, 0, 33, 100
2, 14850240, Note_on_c, 0, 33, 0
2, 14850240, Note_on_c, 0, 38, 100
2, 14850720, Note_on_c, 0, 38, 0
2, 14850720, Note_on_c, 0, 50, 100
2, 14850960, Note_on_c, 0, 50, 0
2, 14850960, Note_on_c, 0, 48, 100
2, 14851080, Note_on_c, 0, 48, 0
2, 14851080, Note_on_c, 0, 47, 100
2, 14851200, Note_on_c, 0, 47, 0
2, 14851200, Note_on_c, 0, 45, 100
2, 14851320, Note_on_c, 0, 45, 0
2, 14851320, Note_on_c, 0, 43, 100
2, 14851440, Note_on_c, 0, 43, 0
2, 14851440, Note_on_c, 0, 42, 100
2, 14851560, Note_on_c, 0, 42, 0
2, 14851560, Note_on_c, 0, 43, 100
2, 14851680, Note_on_c, 0, 43, 0
2, 14851680, Note_on_c, 0, 45, 100
2, 14851800, Note_on_c, 0, 45, 0
2, 14851800, Note_on_c, 0, 47, 100
2, 14851920, Note_on_c, 0, 47, 0
2, 14851920, Note_on_c, 0, 43, 100
2, 14852040, Note_on_c, 0, 43, 0
2, 14852040, Note_on_c, 0, 50, 100
2, 14852160, Note_on_c, 0, 50, 0
2, 14852160, Note_on_c, 0, 48, 100
2, 14852280, Note_on_c, 0, 48, 0
2, 14852280, Note_on_c, 0, 50, 100
2, 14852400, Note_on_c, 0, 50, 0
2, 14852400, Note_on_c, 0, 52, 100
2, 14852520, Note_on_c, 0, 52, 0
2, 14852520, Note_on_c, 0, 54, 100
2, 14852640, Note_on_c, 0, 54, 0
2, 14852640, Note_on_c, 0, 50, 100
2, 14852760, Note_on_c, 0, 50, 0
2, 14852760, Note_on_c, 0, 55, 100
2, 14852880, Note_on_c, 0, 55, 0
2, 14852880, Note_on_c, 0, 54, 100
2, 14853000, Note_on_c, 0, 54, 0
2, 14853000, Note_on_c, 0, 52, 100
2, 14853120, Note_on_c, 0, 52, 0
2, 14853120, Note_on_c, 0, 54, 100
2, 14853240, Note_on_c, 0, 54, 0
2, 14853240, Note_on_c, 0, 55, 100
2, 14853360, Note_on_c, 0, 55, 0
2, 14853360, Note_on_c, 0, 52, 100
2, 14853480, Note_on_c, 0, 52, 0
2, 14853480, Note_on_c, 0, 57, 100
2, 14853600, Note_on_c, 0, 57, 0
2, 14853600, Note_on_c, 0, 55, 100
2, 14853720, Note_on_c, 0, 55, 0
2, 14853720, Note_on_c, 0, 54, 100
2, 14853840, Note_on_c, 0, 54, 0
2, 14853840, Note_on_c, 0, 55, 100
2, 14853960, Note_on_c, 0, 55, 0
2, 14853960, Note_on_c, 0, 57, 100
2, 14854080, Note_on_c, 0, 57, 0
2, 14854080, Note_on_c, 0, 54, 100
2, 14854200, Note_on_c, 0, 54, 0
2, 14854200, Note_on_c, 0, 59, 100
2, 14854320, Note_on_c, 0, 59, 0
2, 14854320, Note_on_c, 0, 57, 100
2, 14854440, Note_on_c, 0, 57, 0
2, 14854440, Note_on_c, 0, 55, 100
2, 14854560, Note_on_c, 0, 55, 0
2, 14854560, Note_on_c, 0, 57, 100
2, 14854680, Note_on_c, 0, 57, 0
2, 14854680, Note_on_c, 0, 59, 100
2, 14854800, Note_on_c, 0, 59, 0
2, 14854800, Note_on_c, 0, 55, 100
2, 14854920, Note_on_c, 0, 55, 0
2, 14854920, Note_on_c, 0, 60, 100
2, 14855040, Note_on_c, 0, 60, 0
2, 14855040, Note_on_c, 0, 59, 100
2, 14855160, Note_on_c, 0, 59, 0
2, 14855160, Note_on_c, 0, 57, 100
2, 14855280, Note_on_c, 0, 57, 0
2, 14855280, Note_on_c, 0, 55, 100
2, 14855400, Note_on_c, 0, 55, 0
2, 14855400, Note_on_c, 0, 54, 100
2, 14855520, Note_on_c, 0, 54, 0
2, 14855520, Note_on_c, 0, 52, 100
2, 14855640, Note_on_c, 0, 52, 0
2, 14855640, Note_on_c, 0, 54, 100
2, 14855760, Note_on_c, 0, 54, 0
2, 14855760, Note_on_c, 0, 52, 100
2, 14855880, Note_on_c, 0, 52, 0
2, 14855880, Note_on_c, 0, 54, 100
2, 14856000, Note_on_c, 0, 54, 0
2, 14856000, Note_on_c, 0, 50, 100
2, 14856120, Note_on_c, 0, 50, 0
2, 14856120, Note_on_c, 0, 52, 100
2, 14856240, Note_on_c, 0, 52, 0
2, 14856240, Note_on_c, 0, 54, 100
2, 14856360, Note_on_c, 0, 54, 0
2, 14856360, Note_on_c, 0, 55, 100
2, 14856480, Note_on_c, 0, 55, 0
2, 14856480, Note_on_c, 0, 52, 100
2, 14856600, Note_on_c, 0, 52, 0
2, 14856600, Note_on_c, 0, 50, 100
2, 14856720, Note_on_c, 0, 50, 0
2, 14856720, Note_on_c, 0, 48, 100
2, 14856840, Note_on_c, 0, 48, 0
2, 14856840, Note_on_c, 0, 47, 100
2, 14856960, Note_on_c, 0, 47, 0
2, 14856960, Note_on_c, 0, 45, 100
2, 14857080, Note_on_c, 0, 45, 0
2, 14857080, Note_on_c, 0, 43, 100
2, 14857200, Note_on_c, 0, 43, 0
2, 14857200, Note_on_c, 0, 54, 100
2, 14857320, Note_on_c, 0, 54, 0
2, 14857320, Note_on_c, 0, 52, 100
2, 14857440, Note_on_c, 0, 52, 0
2, 14857440, Note_on_c, 0, 50, 100
2, 14857560, Note_on_c, 0, 50, 0
2, 14857560, Note_on_c, 0, 48, 100
2, 14857680, Note_on_c, 0, 48, 0
2, 14857680, Note_on_c, 0, 47, 100
2, 14857800, Note_on_c, 0, 47, 0
2, 14857800, Note_on_c, 0, 49, 100
2, 14857920, Note_on_c, 0, 49, 0
2, 14857920, Note_on_c, 0, 45, 100
2, 14858040, Note_on_c, 0, 45, 0
2, 14858040, Note_on_c, 0, 50, 100
2, 14858160, Note_on_c, 0, 50, 0
2, 14858160, Note_on_c, 0, 52, 100
2, 14858280, Note_on_c, 0, 52, 0
2, 14858280, Note_on_c, 0, 54, 100
2, 14858400, Note_on_c, 0, 54, 0
2, 14858400, Note_on_c, 0, 50, 100
2, 14858520, Note_on_c, 0, 50, 0
2, 14858520, Note_on_c, 0, 55, 100
2, 14858640, Note_on_c, 0, 55, 0
2, 14858640, Note_on_c, 0, 54, 100
2, 14858760, Note_on_c, 0, 54, 0
2, 14858760, Note_on_c, 0, 52, 100
2, 14858880, Note_on_c, 0, 52, 0
2, 14858880, Note_on_c, 0, 54, 100
2, 14859000, Note_on_c, 0, 54, 0
2, 14859000, Note_on_c, 0, 55, 100
2, 14859120, Note_on_c, 0, 55, 0
2, 14859120, Note_on_c, 0, 52, 100
2, 14859240, Note_on_c, 0, 52, 0
2, 14859240, Note_on_c, 0, 57, 100
2, 14859360, Note_on_c, 0, 57, 0
2, 14859360, Note_on_c, 0, 55, 100
2, 14859480, Note_on_c, 0, 55, 0
2, 14859480, Note_on_c, 0, 54, 100
2, 14859600, Note_on_c, 0, 54, 0
2, 14859600, Note_on_c, 0, 55, 100
2, 14859720, Note_on_c, 0, 55, 0
2, 14859720, Note_on_c, 0, 57, 100
2, 14859840, Note_on_c, 0, 57, 0
2, 14859840, Note_on_c, 0, 54, 100
2, 14859960, Note_on_c, 0, 54, 0
2, 14859960, Note_on_c, 0, 59, 100
2, 14860080, Note_on_c, 0, 59, 0
2, 14860080, Note_on_c, 0, 57, 100
2, 14860200, Note_on_c, 0, 57, 0
2, 14860200, Note_on_c, 0, 55, 100
2, 14860320, Note_on_c, 0, 55, 0
2, 14860320, Note_on_c, 0, 57, 100
2, 14860440, Note_on_c, 0, 57, 0
2, 14860440, Note_on_c, 0, 59, 100
2, 14860560, Note_on_c, 0, 59, 0
2, 14860560, Note_on_c, 0, 57, 100
2, 14860680, Note_on_c, 0, 57, 0
2, 14860680, Note_on_c, 0, 56, 100
2, 14860800, Note_on_c, 0, 56, 0
2, 14860800, Note_on_c, 0, 44, 100
2, 14861040, Note_on_c, 0, 44, 0
2, 14861040, Note_on_c, 0, 45, 100
2, 14861520, Note_on_c, 0, 45, 0
2, 14861520, Note_on_c, 0, 33, 100
2, 14861760, Note_on_c, 0, 33, 0
2, 14861760, Note_on_c, 0, 38, 100
2, 14862240, Note_on_c, 0, 38, 0
2, 14862240, Note_on_c, 0, 42, 100
2, 14862480, Note_on_c, 0, 42, 0
2, 14862480, Note_on_c, 0, 45, 100
2, 14862720, Note_on_c, 0, 45, 0
2, 14862720, Note_on_c, 0, 50, 100
2, 14862960, Note_on_c, 0, 50, 0
2, 14862960, Note_on_c, 0, 49, 100
2, 14863080, Note_on_c, 0, 49, 0
2, 14863080, Note_on_c, 0, 50, 100
2, 14863200, Note_on_c, 0, 50, 0
2, 14863200, Note_on_c, 0, 52, 100
2, 14863320, Note_on_c, 0, 52, 0
2, 14863320, Note_on_c, 0, 54, 100
2, 14863440, Note_on_c, 0, 54, 0
2, 14863440, Note_on_c, 0, 50, 100
2, 14863560, Note_on_c, 0, 50, 0
2, 14863560, Note_on_c, 0, 55, 100
2, 14863680, Note_on_c, 0, 55, 0
2, 14863680, Note_on_c, 0, 54, 100
2, 14863800, Note_on_c, 0, 54, 0
2, 14863800, Note_on_c, 0, 52, 100
2, 14863920, Note_on_c, 0, 52, 0
2, 14863920, Note_on_c, 0, 54, 100
2, 14864040, Note_on_c, 0, 54, 0
2, 14864040, Note_on_c, 0, 55, 100
2, 14864160, Note_on_c, 0, 55, 0
2, 14864160, Note_on_c, 0, 52, 100
2, 14864280, Note_on_c, 0, 52, 0
2, 14864280, Note_on_c, 0, 57, 100
2, 14864400, Note_on_c, 0, 57, 0
2, 14864400, Note_on_c, 0, 55, 100
2, 14864520, Note_on_c, 0, 55, 0
2, 14864520, Note_on_c, 0, 54, 100
2, 14864640, Note_on_c, 0, 54, 0
2, 14864640, Note_on_c, 0, 55, 100
2, 14864760, Note_on_c, 0, 55, 0
2, 14864760, Note_on_c, 0, 57, 100
2, 14864880, Note_on_c, 0, 57, 0
2, 14864880, Note_on_c, 0, 54, 100
2, 14865000, Note_on_c, 0, 54, 0
2, 14865000, Note_on_c, 0, 59, 100
2, 14865120, Note_on_c, 0, 59, 0
2, 14865120, Note_on_c, 0, 57, 100
2, 14865240, Note_on_c, 0, 57, 0
2, 14865240, Note_on_c, 0, 56, 100
2, 14865360, Note_on_c, 0, 56, 0
2, 14865360, Note_on_c, 0, 57, 100
2, 14865480, Note_on_c, 0, 57, 0
2, 14865480, Note_on_c, 0, 59, 100
2, 14865600, Note_on_c, 0, 59, 0
2, 14865600, Note_on_c, 0, 56, 100
2, 14865720, Note_on_c, 0, 56, 0
2, 14865720, Note_on_c, 0, 60, 100
2, 14865840, Note_on_c, 0, 60, 0
2, 14865840, Note_on_c, 0, 59, 100
2, 14865960, Note_on_c, 0, 59, 0
2, 14865960, Note_on_c, 0, 57, 100
2, 14866080, Note_on_c, 0, 57, 0
2, 14866080, Note_on_c, 0, 59, 100
2, 14866200, Note_on_c, 0, 59, 0
2, 14866200, Note_on_c, 0, 60, 100
2, 14866320, Note_on_c, 0, 60, 0
2, 14866320, Note_on_c, 0, 59, 100
2, 14866440, Note_on_c, 0, 59, 0
2, 14866440, Note_on_c, 0, 58, 100
2, 14866560, Note_on_c, 0, 58, 0
2, 14866560, Note_on_c, 0, 46, 100
2, 14866800, Note_on_c, 0, 46, 0
2, 14866800, Note_on_c, 0, 47, 100
2, 14867280, Note_on_c, 0, 47, 0
2, 14867280, Note_on_c, 0, 35, 100
2, 14867520, Note_on_c, 0, 35, 0
2, 14867520, Note_on_c, 0, 40, 100
2, 14868000, Note_on_c, 0, 40, 0
2, 14868000, Note_on_c, 0, 52, 100
2, 14868240, Note_on_c, 0, 52, 0
2, 14868240, Note_on_c, 0, 50, 100
2, 14868360, Note_on_c, 0, 50, 0
2, 14868360, Note_on_c, 0, 48, 100
2, 14868480, Note_on_c, 0, 48, 0
2, 14868480, Note_on_c, 0, 47, 100
2, 14868600, Note_on_c, 0, 47, 0
2, 14868600, Note_on_c, 0, 45, 100
2, 14868720, Note_on_c, 0, 45, 0
2, 14868720, Note_on_c, 0, 48, 100
2, 14868840, Note_on_c, 0, 48, 0
2, 14868840, Note_on_c, 0, 52, 100
2, 14868960, Note_on_c, 0, 52, 0
2, 14868960, Note_on_c, 0, 55, 100
2, 14869080, Note_on_c, 0, 55, 0
2, 14869080, Note_on_c, 0, 54, 100
2, 14869200, Note_on_c, 0, 54, 0
2, 14869200, Note_on_c, 0, 52, 100
2, 14869320, Note_on_c, 0, 52, 0
2, 14869320, Note_on_c, 0, 54, 100
2, 14869440, Note_on_c, 0, 54, 0
2, 14869440, Note_on_c, 0, 43, 100
2, 14869680, Note_on_c, 0, 43, 0
2, 14869680, Note_on_c, 0, 55, 100
2, 14870160, Note_on_c, 0, 55, 0
2, 14870160, Note_on_c, 0, 45, 100
2, 14870400, Note_on_c, 0, 45, 0
2, 14870400, Note_on_c, 0, 57, 100
2, 14870880, Note_on_c, 0, 57, 0
2, 14870880, Note_on_c, 0, 47, 100
2, 14871120, Note_on_c, 0, 47, 0
2, 14871120, Note_on_c, 0, 59, 100
2, 14871600, Note_on_c, 0, 59, 0
2, 14871600, Note_on_c, 0, 48, 100
2, 14871840, Note_on_c, 0, 48, 0
2, 14871840, Note_on_c, 0, 49, 100
2, 14872320, Note_on_c, 0, 49, 0
2, 14872320, Note_on_c, 0, 37, 100
2, 14872560, Note_on_c, 0, 37, 0
2, 14872560, Note_on_c, 0, 49, 100
2, 14872800, Note_on_c, 0, 49, 0
2, 14872800, Note_on_c, 0, 50, 100
2, 14873040, Note_on_c, 0, 50, 0
2, 14873040, Note_on_c, 0, 38, 100
2, 14873280, Note_on_c, 0, 38, 0
2, 14873280, Note_on_c, 0, 50, 100
2, 14873520, Note_on_c, 0, 50, 0
2, 14873520, Note_on_c, 0, 43, 100
2, 14873760, Note_on_c, 0, 43, 0
2, 14873760, Note_on_c, 0, 55, 100
2, 14874000, Note_on_c, 0, 55, 0
2, 14874000, Note_on_c, 0, 54, 100
2, 14874120, Note_on_c, 0, 54, 0
2, 14874120, Note_on_c, 0, 52, 100
2, 14874240, Note_on_c, 0, 52, 0
2, 14874240, Note_on_c, 0, 55, 100
2, 14874360, Note_on_c, 0, 55, 0
2, 14874360, Note_on_c, 0, 54, 100
2, 14874480, Note_on_c, 0, 54, 0
2, 14874480, Note_on_c, 0, 52, 100
2, 14874600, Note_on_c, 0, 52, 0
2, 14874600, Note_on_c, 0, 50, 100
2, 14874720, Note_on_c, 0, 50, 0
2, 14874720, Note_on_c, 0, 52, 100
2, 14874840, Note_on_c, 0, 52, 0
2, 14874840, Note_on_c, 0, 54, 100
2, 14874960, Note_on_c, 0, 54, 0
2, 14874960, Note_on_c, 0, 50, 100
2, 14875080, Note_on_c, 0, 50, 0
2, 14875080, Note_on_c, 0, 55, 100
2, 14875200, Note_on_c, 0, 55, 0
2, 14875200, Note_on_c, 0, 54, 100
2, 14875320, Note_on_c, 0, 54, 0
2, 14875320, Note_on_c, 0, 52, 100
2, 14875440, Note_on_c, 0, 52, 0
2, 14875440, Note_on_c, 0, 54, 100
2, 14875560, Note_on_c, 0, 54, 0
2, 14875560, Note_on_c, 0, 55, 100
2, 14875680, Note_on_c, 0, 55, 0
2, 14875680, Note_on_c, 0, 52, 100
2, 14875800, Note_on_c, 0, 52, 0
2, 14875800, Note_on_c, 0, 57, 100
2, 14875920, Note_on_c, 0, 57, 0
2, 14875920, Note_on_c, 0, 55, 100
2, 14876040, Note_on_c, 0, 55, 0
2, 14876040, Note_on_c, 0, 54, 100
2, 14876160, Note_on_c, 0, 54, 0
2, 14876160, Note_on_c, 0, 55, 100
2, 14876280, Note_on_c, 0, 55, 0
2, 14876280, Note_on_c, 0, 57, 100
2, 14876400, Note_on_c, 0, 57, 0
2, 14876400, Note_on_c, 0, 54, 100
2, 14876520, Note_on_c, 0, 54, 0
2, 14876520, Note_on_c, 0, 59, 100
2, 14876640, Note_on_c, 0, 59, 0
2, 14876640, Note_on_c, 0, 57, 100
2, 14876760, Note_on_c, 0, 57, 0
2, 14876760, Note_on_c, 0, 56, 100
2, 14876880, Note_on_c, 0, 56, 0
2, 14876880, Note_on_c, 0, 57, 100
2, 14877000, Note_on_c, 0, 57, 0
2, 14877000, Note_on_c, 0, 59, 100
2, 14877120, Note_on_c, 0, 59, 0
2, 14877120, Note_on_c, 0, 56, 100
2, 14877240, Note_on_c, 0, 56, 0
2, 14877240, Note_on_c, 0, 60, 100
2, 14877360, Note_on_c, 0, 60, 0
2, 14877360, Note_on_c, 0, 59, 100
2, 14877480, Note_on_c, 0, 59, 0
2, 14877480, Note_on_c, 0, 57, 100
2, 14877600, Note_on_c, 0, 57, 0
2, 14877600, Note_on_c, 0, 59, 100
2, 14877720, Note_on_c, 0, 59, 0
2, 14877720, Note_on_c, 0, 60, 100
2, 14877840, Note_on_c, 0, 60, 0
2, 14877840, Note_on_c, 0, 59, 100
2, 14877960, Note_on_c, 0, 59, 0
2, 14877960, Note_on_c, 0, 58, 100
2, 14878080, Note_on_c, 0, 58, 0
2, 14878080, Note_on_c, 0, 46, 100
2, 14878320, Note_on_c, 0, 46, 0
2, 14878320, Note_on_c, 0, 47, 100
2, 14878800, Note_on_c, 0, 47, 0
2, 14878800, Note_on_c, 0, 35, 100
2, 14879040, Note_on_c, 0, 35, 0
2, 14879040, Note_on_c, 0, 40, 100
2, 14879520, Note_on_c, 0, 40, 0
2, 14879520, Note_on_c, 0, 52, 100
2, 14879760, Note_on_c, 0, 52, 0
2, 14879760, Note_on_c, 0, 50, 100
2, 14879880, Note_on_c, 0, 50, 0
2, 14879880, Note_on_c, 0, 48, 100
2, 14880000, Note_on_c, 0, 48, 0
2, 14880000, Note_on_c, 0, 47, 100
2, 14880120, Note_on_c, 0, 47, 0
2, 14880120, Note_on_c, 0, 45, 100
2, 14880240, Note_on_c, 0, 45, 0
2, 14880240, Note_on_c, 0, 48, 100
2, 14880360, Note_on_c, 0, 48, 0
2, 14880360, Note_on_c, 0, 52, 100
2, 14880480, Note_on_c, 0, 52, 0
2, 14880480, Note_on_c, 0, 55, 100
2, 14880600, Note_on_c, 0, 55, 0
2, 14880600, Note_on_c, 0, 54, 100
2, 14880720, Note_on_c, 0, 54, 0
2, 14880720, Note_on_c, 0, 52, 100
2, 14880840, Note_on_c, 0, 52, 0
2, 14880840, Note_on_c, 0, 54, 100
2, 14880960, Note_on_c, 0, 54, 0
2, 14880960, Note_on_c, 0, 43, 100
2, 14881200, Note_on_c, 0, 43, 0
2, 14881200, Note_on_c, 0, 55, 100
2, 14881680, Note_on_c, 0, 55, 0
2, 14881680, Note_on_c, 0, 45, 100
2, 14881920, Note_on_c, 0, 45, 0
2, 14881920, Note_on_c, 0, 57, 100
2, 14882400, Note_on_c, 0, 57, 0
2, 14882400, Note_on_c, 0, 47, 100
2, 14882640, Note_on_c, 0, 47, 0
2, 14882640, Note_on_c, 0, 59, 100
2, 14883120, Note_on_c, 0, 59, 0
2, 14883120, Note_on_c, 0, 48, 100
2, 14883360, Note_on_c, 0, 48, 0
2, 14883360, Note_on_c, 0, 49, 100
2, 14883840, Note_on_c, 0, 49, 0
2, 14883840, Note_on_c, 0, 37, 100
2, 14884080, Note_on_c, 0, 37, 0
2, 14884080, Note_on_c, 0, 49, 100
2, 14884320, Note_on_c, 0, 49, 0
2, 14884320, Note_on_c, 0, 50, 100
2, 14884560, Note_on_c, 0, 50, 0
2, 14884560, Note_on_c, 0, 38, 100
2, 14884800, Note_on_c, 0, 38, 0
2, 14884800, Note_on_c, 0, 50, 100
2, 14885040, Note_on_c, 0, 50, 0
2, 14885040, Note_on_c, 0, 43, 100
2, 14885280, Note_on_c, 0, 43, 0
2, 14885280, Note_on_c, 0, 50, 100
2, 14885520, Note_on_c, 0, 50, 0
2, 14885520, Note_on_c, 0, 55, 100
2, 14885760, Note_on_c, 0, 55, 0
2, 14885760, Note_on_c, 0, 43, 100
2, 15070320, Note_on_c, 0, 43, 0
2, 15070320, Note_on_c, 0, 55, 100
2, 15070800, Note_on_c, 0, 55, 0
2, 15070800, Note_on_c, 0, 54, 100
2, 15071520, Note_on_c, 0, 54, 0
2, 15071520, Note_on_c, 0, 52, 100
2, 15071640, Note_on_c, 0, 52, 0
2, 15071640, Note_on_c, 0, 54, 100
2, 15071760, Note_on_c, 0, 54, 0
2, 15071760, Note_on_c, 0, 50, 100
2, 15072000, Note_on_c, 0, 50, 0
2, 15072000, Note_on_c, 0, 55, 100
2, 15072240, Note_on_c, 0, 55, 0
2, 15072240, Note_on_c, 0, 57, 100
2, 15072480, Note_on_c, 0, 57, 0
2, 15072480, Note_on_c, 0, 59, 100
2, 15072720, Note_on_c, 0, 59, 0
2, 15072720, Note_on_c, 0, 60, 100
2, 15072960, Note_on_c, 0, 60, 0
2, 15072960, Note_on_c, 0, 62, 100
2, 15073200, Note_on_c, 0, 62, 0
2, 15073200, Note_on_c, 0, 63, 100
2, 15073920, Note_on_c, 0, 63, 0
2, 15073920, Note_on_c, 0, 64, 100
2, 15074160, Note_on_c, 0, 64, 0
2, 15074160, Note_on_c, 0, 60, 100
2, 15074880, Note_on_c, 0, 60, 0
2, 15074880, Note_on_c, 0, 55, 100
2, 15075120, Note_on_c, 0, 55, 0
2, 15075120, Note_on_c, 0, 62, 100
2, 15075360, Note_on_c, 0, 62, 0
2, 15075360, Note_on_c, 0, 67, 100
2, 15075600, Note_on_c, 0, 67, 0
2, 15075600, Note_on_c, 0, 69, 100
2, 15075840, Note_on_c, 0, 69, 0
2, 15075840, Note_on_c, 0, 71, 100
2, 15075960, Note_on_c, 0, 71, 0
2, 15075960, Note_on_c, 0, 72, 100
2, 15076080, Note_on_c, 0, 72, 0
2, 15076080, Note_on_c, 0, 71, 100
2, 15076320, Note_on_c, 0, 71, 0
2, 15076320, Note_on_c, 0, 69, 100
2, 15076560, Note_on_c, 0, 69, 0
2, 15076560, Note_on_c, 0, 74, 100
2, 15076800, Note_on_c, 0, 74, 0
2, 15076800, Note_on_c, 0, 67, 100
2, 15077040, Note_on_c, 0, 67, 0
2, 15077040, Note_on_c, 0, 55, 100
2, 15078240, Note_on_c, 0, 55, 0
2, 15078240, Note_on_c, 0, 54, 100
2, 15078720, Note_on_c, 0, 54, 0
2, 15078720, Note_on_c, 0, 52, 100
2, 15078960, Note_on_c, 0, 52, 0
2, 15078960, Note_on_c, 0, 64, 100
2, 15079200, Note_on_c, 0, 64, 0
2, 15079200, Note_on_c, 0, 63, 100
2, 15079320, Note_on_c, 0, 63, 0
2, 15079320, Note_on_c, 0, 64, 100
2, 15079440, Note_on_c, 0, 64, 0
2, 15079440, Note_on_c, 0, 52, 100
2, 15080160, Note_on_c, 0, 52, 0
2, 15080160, Note_on_c, 0, 50, 100
2, 15080640, Note_on_c, 0, 50, 0
2, 15080640, Note_on_c, 0, 48, 100
2, 15080880, Note_on_c, 0, 48, 0
2, 15080880, Note_on_c, 0, 60, 100
2, 15081120, Note_on_c, 0, 60, 0
2, 15081120, Note_on_c, 0, 59, 100
2, 15081240, Note_on_c, 0, 59, 0
2, 15081240, Note_on_c, 0, 60, 100
2, 15081360, Note_on_c, 0, 60, 0
2, 15081360, Note_on_c, 0, 62, 100
2, 15081480, Note_on_c, 0, 62, 0
2, 15081480, Note_on_c, 0, 64, 100
2, 15081600, Note_on_c, 0, 64, 0
2, 15081600, Note_on_c, 0, 62, 100
2, 15081720, Note_on_c, 0, 62, 0
2, 15081720, Note_on_c, 0, 61, 100
2, 15081840, Note_on_c, 0, 61, 0
2, 15081840, Note_on_c, 0, 57, 100
2, 15081960, Note_on_c, 0, 57, 0
2, 15081960, Note_on_c, 0, 62, 100
2, 15082080, Note_on_c, 0, 62, 0
2, 15082080, Note_on_c, 0, 61, 100
2, 15082200, Note_on_c, 0, 61, 0
2, 15082200, Note_on_c, 0, 59, 100
2, 15082320, Note_on_c, 0, 59, 0
2, 15082320, Note_on_c, 0, 57, 100
2, 15082440, Note_on_c, 0, 57, 0
2, 15082440, Note_on_c, 0, 59, 100
2, 15082560, Note_on_c, 0, 59, 0
2, 15082560, Note_on_c, 0, 56, 100
2, 15082680, Note_on_c, 0, 56, 0
2, 15082680, Note_on_c, 0, 57, 100
2, 15082800, Note_on_c, 0, 57, 0
2, 15082800, Note_on_c, 0, 59, 100
2, 15082920, Note_on_c, 0, 59, 0
2, 15082920, Note_on_c, 0, 57, 100
2, 15083040, Note_on_c, 0, 57, 0
2, 15083040, Note_on_c, 0, 55, 100
2, 15083160, Note_on_c, 0, 55, 0
2, 15083160, Note_on_c, 0, 54, 100
2, 15083280, Note_on_c, 0, 54, 0
2, 15083280, Note_on_c, 0, 52, 100
2, 15083400, Note_on_c, 0, 52, 0
2, 15083400, Note_on_c, 0, 50, 100
2, 15083520, Note_on_c, 0, 50, 0
2, 15083520, Note_on_c, 0, 49, 100
2, 15083640, Note_on_c, 0, 49, 0
2, 15083640, Note_on_c, 0, 50, 100
2, 15083760, Note_on_c, 0, 50, 0
2, 15083760, Note_on_c, 0, 49, 100
2, 15083880, Note_on_c, 0, 49, 0
2, 15083880, Note_on_c, 0, 47, 100
2, 15084000, Note_on_c, 0, 47, 0
2, 15084000, Note_on_c, 0, 45, 100
2, 15084120, Note_on_c, 0, 45, 0
2, 15084120, Note_on_c, 0, 43, 100
2, 15084240, Note_on_c, 0, 43, 0
2, 15084240, Note_on_c, 0, 40, 100
2, 15084360, Note_on_c, 0, 40, 0
2, 15084360, Note_on_c, 0, 45, 100
2, 15084480, Note_on_c, 0, 45, 0
2, 15084480, Note_on_c, 0, 38, 100
2, 15084720, Note_on_c, 0, 38, 0
2, 15084720, Note_on_c, 0, 42, 100
2, 15084960, Note_on_c, 0, 42, 0
2, 15084960, Note_on_c, 0, 45, 100
2, 15085080, Note_on_c, 0, 45, 0
2, 15085080, Note_on_c, 0, 50, 100
2, 15085200, Note_on_c, 0, 50, 0
2, 15085200, Note_on_c, 0, 43, 100
2, 15085680, Note_on_c, 0, 43, 0
2, 15085680, Note_on_c, 0, 55, 100
2, 15086160, Note_on_c, 0, 55, 0
2, 15086160, Note_on_c, 0, 54, 100
2, 15086880, Note_on_c, 0, 54, 0
2, 15086880, Note_on_c, 0, 52, 100
2, 15087000, Note_on_c, 0, 52, 0
2, 15087000, Note_on_c, 0, 54, 100
2, 15087120, Note_on_c, 0, 54, 0
2, 15087120, Note_on_c, 0, 50, 100
2, 15087360, Note_on_c, 0, 50, 0
2, 15087360, Note_on_c, 0, 55, 100
2, 15087600, Note_on_c, 0, 55, 0
2, 15087600, Note_on_c, 0, 57, 100
2, 15087840, Note_on_c, 0, 57, 0
2, 15087840, Note_on_c, 0, 59, 100
2, 15088080, Note_on_c, 0, 59, 0
2, 15088080, Note_on_c, 0, 60, 100
2, 15088320, Note_on_c, 0, 60, 0
2, 15088320, Note_on_c, 0, 62, 100
2, 15088560, Note_on_c, 0, 62, 0
2, 15088560, Note_on_c, 0, 63, 100
2, 15089280, Note_on_c, 0, 63, 0
2, 15089280, Note_on_c, 0, 64, 100
2, 15089520, Note_on_c, 0, 64, 0
2, 15089520, Note_on_c, 0, 60, 100
2, 15090240, Note_on_c, 0, 60, 0
2, 15090240, Note_on_c, 0, 55, 100
2, 15090480, Note_on_c, 0, 55, 0
2, 15090480, Note_on_c, 0, 62, 100
2, 15090720, Note_on_c, 0, 62, 0
2, 15090720, Note_on_c, 0, 67, 100
2, 15090960, Note_on_c, 0, 67, 0
2, 15090960, Note_on_c, 0, 69, 100
2, 15091200, Note_on_c, 0, 69, 0
2, 15091200, Note_on_c, 0, 71, 100
2, 15091320, Note_on_c, 0, 71, 0
2, 15091320, Note_on_c, 0, 72, 100
2, 15091440, Note_on_c, 0, 72, 0
2, 15091440, Note_on_c, 0, 71, 100
2, 15091680, Note_on_c, 0, 71, 0
2, 15091680, Note_on_c, 0, 69, 100
2, 15091920, Note_on_c, 0, 69, 0
2, 15091920, Note_on_c, 0, 74, 100
2, 15092160, Note_on_c, 0, 74, 0
2, 15092160, Note_on_c, 0, 67, 100
2, 15092400, Note_on_c, 0, 67, 0
2, 15092400, Note_on_c, 0, 55, 100
2, 15093600, Note_on_c, 0, 55, 0
2, 15093600, Note_on_c, 0, 54, 100
2, 15094080, Note_on_c, 0, 54, 0
2, 15094080, Note_on_c, 0, 52, 100
2, 15094320, Note_on_c, 0, 52, 0
2, 15094320, Note_on_c, 0, 64, 100
2, 15094560, Note_on_c, 0, 64, 0
2, 15094560, Note_on_c, 0, 63, 100
2, 15094680, Note_on_c, 0, 63, 0
2, 15094680, Note_on_c, 0, 64, 100
2, 15094800, Note_on_c, 0, 64, 0
2, 15094800, Note_on_c, 0, 52, 100
2, 15095520, Note_on_c, 0, 52, 0
2, 15095520, Note_on_c, 0, 50, 100
2, 15096000, Note_on_c, 0, 50, 0
2, 15096000, Note_on_c, 0, 48, 100
2, 15096240, Note_on_c, 0, 48, 0
2, 15096240, Note_on_c, 0, 60, 100
2, 15096480, Note_on_c, 0, 60, 0
2, 15096480, Note_on_c, 0, 59, 100
2, 15096600, Note_on_c, 0, 59, 0
2, 15096600, Note_on_c, 0, 60, 100
2, 15096720, Note_on_c, 0, 60, 0
2, 15096720, Note_on_c, 0, 62, 100
2, 15096840, Note_on_c, 0, 62, 0
2, 15096840, Note_on_c, 0, 64, 100
2, 15096960, Note_on_c, 0, 64, 0
2, 15096960, Note_on_c, 0, 62, 100
2, 15097080, Note_on_c, 0, 62, 0
2, 15097080, Note_on_c, 0, 61, 100
2, 15097200, Note_on_c, 0, 61, 0
2, 15097200, Note_on_c, 0, 57, 100
2, 15097320, Note_on_c, 0, 57, 0
2, 15097320, Note_on_c, 0, 62, 100
2, 15097440, Note_on_c, 0, 62, 0
2, 15097440, Note_on_c, 0, 61, 100
2, 15097560, Note_on_c, 0, 61, 0
2, 15097560, Note_on_c, 0, 59, 100
2, 15097680, Note_on_c, 0, 59, 0
2, 15097680, Note_on_c, 0, 57, 100
2, 15097800, Note_on_c, 0, 57, 0
2, 15097800, Note_on_c, 0, 59, 100
2, 15097920, Note_on_c, 0, 59, 0
2, 15097920, Note_on_c, 0, 56, 100
2, 15098040, Note_on_c, 0, 56, 0
2, 15098040, Note_on_c, 0, 57, 100
2, 15098160, Note_on_c, 0, 57, 0
2, 15098160, Note_on_c, 0, 59, 100
2, 15098280, Note_on_c, 0, 59, 0
2, 15098280, Note_on_c, 0, 57, 100
2, 15098400, Note_on_c, 0, 57, 0
2, 15098400, Note_on_c, 0, 55, 100
2, 15098520, Note_on_c, 0, 55, 0
2, 15098520, Note_on_c, 0, 54, 100
2, 15098640, Note_on_c, 0, 54, 0
2, 15098640, Note_on_c, 0, 52, 100
2, 15098760, Note_on_c, 0, 52, 0
2, 15098760, Note_on_c, 0, 50, 100
2, 15098880, Note_on_c, 0, 50, 0
2, 15098880, Note_on_c, 0, 49, 100
2, 15099000, Note_on_c, 0, 49, 0
2, 15099000, Note_on_c, 0, 50, 100
2, 15099120, Note_on_c, 0, 50, 0
2, 15099120, Note_on_c, 0, 49, 100
2, 15099240, Note_on_c, 0, 49, 0
2, 15099240, Note_on_c, 0, 47, 100
2, 15099360, Note_on_c, 0, 47, 0
2, 15099360, Note_on_c, 0, 45, 100
2, 15099480, Note_on_c, 0, 45, 0
2, 15099480, Note_on_c, 0, 43, 100
2, 15099600, Note_on_c, 0, 43, 0
2, 15099600, Note_on_c, 0, 40, 100
2, 15099720, Note_on_c, 0, 40, 0
2, 15099720, Note_on_c, 0, 45, 100
2, 15099840, Note_on_c, 0, 45, 0
2, 15099840, Note_on_c, 0, 38, 100
2, 15100080, Note_on_c, 0, 38, 0
2, 15100080, Note_on_c, 0, 42, 100
2, 15100320, Note_on_c, 0, 42, 0
2, 15100320, Note_on_c, 0, 45, 100
2, 15100440, Note_on_c, 0, 45, 0
2, 15100440, Note_on_c, 0, 50, 100
2, 15101040, Note_on_c, 0, 50, 0
2, 15101040, Note_on_c, 0, 62, 100
2, 15101280, Note_on_c, 0, 62, 0
2, 15101280, Note_on_c, 0, 60, 100
2, 15101760, Note_on_c, 0, 60, 0
2, 15101760, Note_on_c, 0, 59, 100
2, 15102000, Note_on_c, 0, 59, 0
2, 15102000, Note_on_c, 0, 57, 100
2, 15102120, Note_on_c, 0, 57, 0
2, 15102120, Note_on_c, 0, 59, 100
2, 15102240, Note_on_c, 0, 59, 0
2, 15102240, Note_on_c, 0, 60, 100
2, 15102360, Note_on_c, 0, 60, 0
2, 15102360, Note_on_c, 0, 59, 100
2, 15102480, Note_on_c, 0, 59, 0
2, 15102480, Note_on_c, 0, 57, 100
2, 15102600, Note_on_c, 0, 57, 0
2, 15102600, Note_on_c, 0, 55, 100
2, 15102720, Note_on_c, 0, 55, 0
2, 15102720, Note_on_c, 0, 54, 100
2, 15102840, Note_on_c, 0, 54, 0
2, 15102840, Note_on_c, 0, 55, 100
2, 15102960, Note_on_c, 0, 55, 0
2, 15102960, Note_on_c, 0, 67, 100
2, 15103200, Note_on_c, 0, 67, 0
2, 15103200, Note_on_c, 0, 66, 100
2, 15103680, Note_on_c, 0, 66, 0
2, 15103680, Note_on_c, 0, 64, 100
2, 15103920, Note_on_c, 0, 64, 0
2, 15103920, Note_on_c, 0, 63, 100
2, 15104040, Note_on_c, 0, 63, 0
2, 15104040, Note_on_c, 0, 64, 100
2, 15104160, Note_on_c, 0, 64, 0
2, 15104160, Note_on_c, 0, 66, 100
2, 15104280, Note_on_c, 0, 66, 0
2, 15104280, Note_on_c, 0, 64, 100
2, 15104400, Note_on_c, 0, 64, 0
2, 15104400, Note_on_c, 0, 62, 100
2, 15104520, Note_on_c, 0, 62, 0
2, 15104520, Note_on_c, 0, 60, 100
2, 15104640, Note_on_c, 0, 60, 0
2, 15104640, Note_on_c, 0, 59, 100
2, 15104760, Note_on_c, 0, 59, 0
2, 15104760, Note_on_c, 0, 58, 100
2, 15104880, Note_on_c, 0, 58, 0
2, 15104880, Note_on_c, 0, 64, 100
2, 15105000, Note_on_c, 0, 64, 0
2, 15105000, Note_on_c, 0, 66, 100
2, 15105120, Note_on_c, 0, 66, 0
2, 15105120, Note_on_c, 0, 67, 100
2, 15105240, Note_on_c, 0, 67, 0
2, 15105240, Note_on_c, 0, 69, 100
2, 15105360, Note_on_c, 0, 69, 0
2, 15105360, Note_on_c, 0, 57, 100
2, 15105600, Note_on_c, 0, 57, 0
2, 15105600, Note_on_c, 0, 55, 100
2, 15105840, Note_on_c, 0, 55, 0
2, 15105840, Note_on_c, 0, 57, 100
2, 15105960, Note_on_c, 0, 57, 0
2, 15105960, Note_on_c, 0, 59, 100
2, 15106080, Note_on_c, 0, 59, 0
2, 15106080, Note_on_c, 0, 55, 100
2, 15106200, Note_on_c, 0, 55, 0
2, 15106200, Note_on_c, 0, 52, 100
2, 15106320, Note_on_c, 0, 52, 0
2, 15106320, Note_on_c, 0, 54, 100
2, 15106440, Note_on_c, 0, 54, 0
2, 15106440, Note_on_c, 0, 55, 100
2, 15106560, Note_on_c, 0, 55, 0
2, 15106560, Note_on_c, 0, 52, 100
2, 15106680, Note_on_c, 0, 52, 0
2, 15106680, Note_on_c, 0, 60, 100
2, 15106800, Note_on_c, 0, 60, 0
2, 15106800, Note_on_c, 0, 57, 100
2, 15107040, Note_on_c, 0, 57, 0
2, 15107040, Note_on_c, 0, 59, 100
2, 15107280, Note_on_c, 0, 59, 0
2, 15107280, Note_on_c, 0, 47, 100
2, 15107520, Note_on_c, 0, 47, 0
2, 15107520, Note_on_c, 0, 40, 100
2, 15107760, Note_on_c, 0, 40, 0
2, 15107760, Note_on_c, 0, 52, 100
2, 15108480, Note_on_c, 0, 52, 0
2, 15108480, Note_on_c, 0, 48, 100
2, 15108960, Note_on_c, 0, 48, 0
2, 15108960, Note_on_c, 0, 50, 100
2, 15109200, Note_on_c, 0, 50, 0
2, 15109200, Note_on_c, 0, 52, 100
2, 15109440, Note_on_c, 0, 52, 0
2, 15109440, Note_on_c, 0, 45, 100
2, 15109680, Note_on_c, 0, 45, 0
2, 15109680, Note_on_c, 0, 57, 100
2, 15109920, Note_on_c, 0, 57, 0
2, 15109920, Note_on_c, 0, 52, 100
2, 15110160, Note_on_c, 0, 52, 0
2, 15110160, Note_on_c, 0, 50, 100
2, 15110280, Note_on_c, 0, 50, 0
2, 15110280, Note_on_c, 0, 52, 100
2, 15110400, Note_on_c, 0, 52, 0
2, 15110400, Note_on_c, 0, 54, 100
2, 15110520, Note_on_c, 0, 54, 0
2, 15110520, Note_on_c, 0, 55, 100
2, 15110640, Note_on_c, 0, 55, 0
2, 15110640, Note_on_c, 0, 57, 100
2, 15110760, Note_on_c, 0, 57, 0
2, 15110760, Note_on_c, 0, 59, 100
2, 15110880, Note_on_c, 0, 59, 0
2, 15110880, Note_on_c, 0, 55, 100
2, 15111000, Note_on_c, 0, 55, 0
2, 15111000, Note_on_c, 0, 57, 100
2, 15111120, Note_on_c, 0, 57, 0
2, 15111120, Note_on_c, 0, 54, 100
2, 15111240, Note_on_c, 0, 54, 0
2, 15111240, Note_on_c, 0, 55, 100
2, 15111360, Note_on_c, 0, 55, 0
2, 15111360, Note_on_c, 0, 57, 100
2, 15111480, Note_on_c, 0, 57, 0
2, 15111480, Note_on_c, 0, 50, 100
2, 15111600, Note_on_c, 0, 50, 0
2, 15111600, Note_on_c, 0, 52, 100
2, 15111720, Note_on_c, 0, 52, 0
2, 15111720, Note_on_c, 0, 54, 100
2, 15111840, Note_on_c, 0, 54, 0
2, 15111840, Note_on_c, 0, 55, 100
2, 15111960, Note_on_c, 0, 55, 0
2, 15111960, Note_on_c, 0, 54, 100
2, 15112080, Note_on_c, 0, 54, 0
2, 15112080, Note_on_c, 0, 52, 100
2, 15112200, Note_on_c, 0, 52, 0
2, 15112200, Note_on_c, 0, 50, 100
2, 15112320, Note_on_c, 0, 50, 0
2, 15112320, Note_on_c, 0, 48, 100
2, 15112440, Note_on_c, 0, 48, 0
2, 15112440, Note_on_c, 0, 47, 100
2, 15112560, Note_on_c, 0, 47, 0
2, 15112560, Note_on_c, 0, 43, 100
2, 15112680, Note_on_c, 0, 43, 0
2, 15112680, Note_on_c, 0, 45, 100
2, 15112800, Note_on_c, 0, 45, 0
2, 15112800, Note_on_c, 0, 47, 100
2, 15112920, Note_on_c, 0, 47, 0
2, 15112920, Note_on_c, 0, 48, 100
2, 15113040, Note_on_c, 0, 48, 0
2, 15113040, Note_on_c, 0, 50, 100
2, 15113160, Note_on_c, 0, 50, 0
2, 15113160, Note_on_c, 0, 52, 100
2, 15113280, Note_on_c, 0, 52, 0
2, 15113280, Note_on_c, 0, 54, 100
2, 15113400, Note_on_c, 0, 54, 0
2, 15113400, Note_on_c, 0, 55, 100
2, 15113520, Note_on_c, 0, 55, 0
2, 15113520, Note_on_c, 0, 57, 100
2, 15113640, Note_on_c, 0, 57, 0
2, 15113640, Note_on_c, 0, 59, 100
2, 15113760, Note_on_c, 0, 59, 0
2, 15113760, Note_on_c, 0, 57, 100
2, 15113880, Note_on_c, 0, 57, 0
2, 15113880, Note_on_c, 0, 55, 100
2, 15114000, Note_on_c, 0, 55, 0
2, 15114000, Note_on_c, 0, 54, 100
2, 15114120, Note_on_c, 0, 54, 0
2, 15114120, Note_on_c, 0, 52, 100
2, 15114240, Note_on_c, 0, 52, 0
2, 15114240, Note_on_c, 0, 50, 100
2, 15114360, Note_on_c, 0, 50, 0
2, 15114360, Note_on_c, 0, 48, 100
2, 15114480, Note_on_c, 0, 48, 0
2, 15114480, Note_on_c, 0, 47, 100
2, 15114600, Note_on_c, 0, 47, 0
2, 15114600, Note_on_c, 0, 48, 100
2, 15114720, Note_on_c, 0, 48, 0
2, 15114720, Note_on_c, 0, 45, 100
2, 15114840, Note_on_c, 0, 45, 0
2, 15114840, Note_on_c, 0, 50, 100
2, 15114960, Note_on_c, 0, 50, 0
2, 15114960, Note_on_c, 0, 38, 100
2, 15115200, Note_on_c, 0, 38, 0
2, 15115200, Note_on_c, 0, 43, 100
2, 15115440, Note_on_c, 0, 43, 0
2, 15115440, Note_on_c, 0, 47, 100
2, 15115680, Note_on_c, 0, 47, 0
2, 15115680, Note_on_c, 0, 50, 100
2, 15115800, Note_on_c, 0, 50, 0
2, 15115800, Note_on_c, 0, 55, 100
2, 15115920, Note_on_c, 0, 55, 0
2, 15115920, Note_on_c, 0, 50, 100
2, 15116400, Note_on_c, 0, 50, 0
2, 15116400, Note_on_c, 0, 62, 100
2, 15116640, Note_on_c, 0, 62, 0
2, 15116640, Note_on_c, 0, 60, 100
2, 15117120, Note_on_c, 0, 60, 0
2, 15117120, Note_on_c, 0, 59, 100
2, 15117360, Note_on_c, 0, 59, 0
2, 15117360, Note_on_c, 0, 57, 100
2, 15117480, Note_on_c, 0, 57, 0
2, 15117480, Note_on_c, 0, 59, 100
2, 15117600, Note_on_c, 0, 59, 0
2, 15117600, Note_on_c, 0, 60, 100
2, 15117720, Note_on_c, 0, 60, 0
2, 15117720, Note_on_c, 0, 59, 100
2, 15117840, Note_on_c, 0, 59, 0
2, 15117840, Note_on_c, 0, 57, 100
2, 15117960, Note_on_c, 0, 57, 0
2, 15117960, Note_on_c, 0, 55, 100
2, 15118080, Note_on_c, 0, 55, 0
2, 15118080, Note_on_c, 0, 54, 100
2, 15118200, Note_on_c, 0, 54, 0
2, 15118200, Note_on_c, 0, 55, 100
2, 15118320, Note_on_c, 0, 55, 0
2, 15118320, Note_on_c, 0, 67, 100
2, 15118560, Note_on_c, 0, 67, 0
2, 15118560, Note_on_c, 0, 66, 100
2, 15119040, Note_on_c, 0, 66, 0
2, 15119040, Note_on_c, 0, 64, 100
2, 15119280, Note_on_c, 0, 64, 0
2, 15119280, Note_on_c, 0, 63, 100
2, 15119400, Note_on_c, 0, 63, 0
2, 15119400, Note_on_c, 0, 64, 100
2, 15119520, Note_on_c, 0, 64, 0
2, 15119520, Note_on_c, 0, 66, 100
2, 15119640, Note_on_c, 0, 66, 0
2, 15119640, Note_on_c, 0, 64, 100
2, 15119760, Note_on_c, 0, 64, 0
2, 15119760, Note_on_c, 0, 62, 100
2, 15119880, Note_on_c, 0, 62, 0
2, 15119880, Note_on_c, 0, 60, 100
2, 15120000, Note_on_c, 0, 60, 0
2, 15120000, Note_on_c, 0, 59, 100
2, 15120120, Note_on_c, 0, 59, 0
2, 15120120, Note_on_c, 0, 58, 100
2, 15120240, Note_on_c, 0, 58, 0
2, 15120240, Note_on_c, 0, 64, 100
2, 15120360, Note_on_c, 0, 64, 0
2, 15120360, Note_on_c, 0, 66, 100
2, 15120480, Note_on_c, 0, 66, 0
2, 15120480, Note_on_c, 0, 67, 100
2, 15120600, Note_on_c, 0, 67, 0
2, 15120600, Note_on_c, 0, 69, 100
2, 15120720, Note_on_c, 0, 69, 0
2, 15120720, Note_on_c, 0, 57, 100
2, 15120960, Note_on_c, 0, 57, 0
2, 15120960, Note_on_c, 0, 55, 100
2, 15121200, Note_on_c, 0, 55, 0
2, 15121200, Note_on_c, 0, 57, 100
2, 15121320, Note_on_c, 0, 57, 0
2, 15121320, Note_on_c, 0, 59, 100
2, 15121440, Note_on_c, 0, 59, 0
2, 15121440, Note_on_c, 0, 55, 100
2, 15121560, Note_on_c, 0, 55, 0
2, 15121560, Note_on_c, 0, 52, 100
2, 15121680, Note_on_c, 0, 52, 0
2, 15121680, Note_on_c, 0, 54, 100
2, 15121800, Note_on_c, 0, 54, 0
2, 15121800, Note_on_c, 0, 55, 100
2, 15121920, Note_on_c, 0, 55, 0
2, 15121920, Note_on_c, 0, 52, 100
2, 15122040, Note_on_c, 0, 52, 0
2, 15122040, Note_on_c, 0, 60, 100
2, 15122160, Note_on_c, 0, 60, 0
2, 15122160, Note_on_c, 0, 57, 100
2, 15122400, Note_on_c, 0, 57, 0
2, 15122400, Note_on_c, 0, 59, 100
2, 15122640, Note_on_c, 0, 59, 0
2, 15122640, Note_on_c, 0, 47, 100
2, 15122880, Note_on_c, 0, 47, 0
2, 15122880, Note_on_c, 0, 40, 100
2, 15123120, Note_on_c, 0, 40, 0
2, 15123120, Note_on_c, 0, 52, 100
2, 15123840, Note_on_c, 0, 52, 0
2, 15123840, Note_on_c, 0, 48, 100
2, 15124320, Note_on_c, 0, 48, 0
2, 15124320, Note_on_c, 0, 50, 100
2, 15124560, Note_on_c, 0, 50, 0
2, 15124560, Note_on_c, 0, 52, 100
2, 15124800, Note_on_c, 0, 52, 0
2, 15124800, Note_on_c, 0, 45, 100
2, 15125040, Note_on_c, 0, 45, 0
2, 15125040, Note_on_c, 0, 57, 100
2, 15125280, Note_on_c, 0, 57, 0
2, 15125280, Note_on_c, 0, 52, 100
2, 15125520, Note_on_c, 0, 52, 0
2, 15125520, Note_on_c, 0, 50, 100
2, 15125640, Note_on_c, 0, 50, 0
2, 15125640, Note_on_c, 0, 52, 100
2, 15125760, Note_on_c, 0, 52, 0
2, 15125760, Note_on_c, 0, 54, 100
2, 15125880, Note_on_c, 0, 54, 0
2, 15125880, Note_on_c, 0, 55, 100
2, 15126000, Note_on_c, 0, 55, 0
2, 15126000, Note_on_c, 0, 57, 100
2, 15126120, Note_on_c, 0, 57, 0
2, 15126120, Note_on_c, 0, 59, 100
2, 15126240, Note_on_c, 0, 59, 0
2, 15126240, Note_on_c, 0, 55, 100
2, 15126360, Note_on_c, 0, 55, 0
2, 15126360, Note_on_c, 0, 57, 100
2, 15126480, Note_on_c, 0, 57, 0
2, 15126480, Note_on_c, 0, 54, 100
2, 15126600, Note_on_c, 0, 54, 0
2, 15126600, Note_on_c, 0, 55, 100
2, 15126720, Note_on_c, 0, 55, 0
2, 15126720, Note_on_c, 0, 57, 100
2, 15126840, Note_on_c, 0, 57, 0
2, 15126840, Note_on_c, 0, 50, 100
2, 15126960, Note_on_c, 0, 50, 0
2, 15126960, Note_on_c, 0, 52, 100
2, 15127080, Note_on_c, 0, 52, 0
2, 15127080, Note_on_c, 0, 54, 100
2, 15127200, Note_on_c, 0, 54, 0
2, 15127200, Note_on_c, 0, 55, 100
2, 15127320, Note_on_c, 0, 55, 0
2, 15127320, Note_on_c, 0, 54, 100
2, 15127440, Note_on_c, 0, 54, 0
2, 15127440, Note_on_c, 0, 52, 100
2, 15127560, Note_on_c, 0, 52, 0
2, 15127560, Note_on_c, 0, 50, 100
2, 15127680, Note_on_c, 0, 50, 0
2, 15127680, Note_on_c, 0, 48, 100
2, 15127800, Note_on_c, 0, 48, 0
2, 15127800, Note_on_c, 0, 47, 100
2, 15127920, Note_on_c, 0, 47, 0
2, 15127920, Note_on_c, 0, 43, 100
2, 15128040, Note_on_c, 0, 43, 0
2, 15128040, Note_on_c, 0, 45, 100
2, 15128160, Note_on_c, 0, 45, 0
2, 15128160, Note_on_c, 0, 47, 100
2, 15128280, Note_on_c, 0, 47, 0
2, 15128280, Note_on_c, 0, 48, 100
2, 15128400, Note_on_c, 0, 48, 0
2, 15128400, Note_on_c, 0, 50, 100
2, 15128520, Note_on_c, 0, 50, 0
2, 15128520, Note_on_c, 0, 52, 100
2, 15128640, Note_on_c, 0, 52, 0
2, 15128640, Note_on_c, 0, 54, 100
2, 15128760, Note_on_c, 0, 54, 0
2, 15128760, Note_on_c, 0, 55, 100
2, 15128880, Note_on_c, 0, 55, 0
2, 15128880, Note_on_c, 0, 57, 100
2, 15129000, Note_on_c, 0, 57, 0
2, 15129000, Note_on_c, 0, 59, 100
2, 15129120, Note_on_c, 0, 59, 0
2, 15129120, Note_on_c, 0, 57, 100
2, 15129240, Note_on_c, 0, 57, 0
2, 15129240, Note_on_c, 0, 55, 100
2, 15129360, Note_on_c, 0, 55, 0
2, 15129360, Note_on_c, 0, 54, 100
2, 15129480, Note_on_c, 0, 54, 0
2, 15129480, Note_on_c, 0, 52, 100
2, 15129600, Note_on_c, 0, 52, 0
2, 15129600, Note_on_c, 0, 50, 100
2, 15129720, Note_on_c, 0, 50, 0
2, 15129720, Note_on_c, 0, 48, 100
2, 15129840, Note_on_c, 0, 48, 0
2, 15129840, Note_on_c, 0, 47, 100
2, 15129960, Note_on_c, 0, 47, 0
2, 15129960, Note_on_c, 0, 48, 100
2, 15130080, Note_on_c, 0, 48, 0
2, 15130080, Note_on_c, 0, 45, 100
2, 15130200, Note_on_c, 0, 45, 0
2, 15130200, Note_on_c, 0, 50, 100
2, 15130320, Note_on_c, 0, 50, 0
2, 15130320, Note_on_c, 0, 38, 100
2, 15130560, Note_on_c, 0, 38, 0
2, 15130560, Note_on_c, 0, 43, 100
2, 15130800, Note_on_c, 0, 43, 0
2, 15130800, Note_on_c, 0, 47, 100
2, 15131040, Note_on_c, 0, 47, 0
2, 15131040, Note_on_c, 0, 50, 100
2, 15131160, Note_on_c, 0, 50, 0
2, 15131160, Note_on_c, 0, 55, 100
2, 15347760, Note_on_c, 0, 55, 0
2, 15347760, Note_on_c, 0, 54, 100
2, 15349200, Note_on_c, 0, 54, 0
2, 15349200, Note_on_c, 0, 52, 100
2, 15350640, Note_on_c, 0, 52, 0
2, 15350640, Note_on_c, 0, 50, 100
2, 15351120, Note_on_c, 0, 50, 0
2, 15351120, Note_on_c, 0, 38, 100
2, 15351240, Note_on_c, 0, 38, 0
2, 15351240, Note_on_c, 0, 50, 100
2, 15351360, Note_on_c, 0, 50, 0
2, 15351360, Note_on_c, 0, 48, 100
2, 15351840, Note_on_c, 0, 48, 0
2, 15351840, Note_on_c, 0, 47, 100
2, 15351960, Note_on_c, 0, 47, 0
2, 15351960, Note_on_c, 0, 45, 100
2, 15352080, Note_on_c, 0, 45, 0
2, 15352080, Note_on_c, 0, 48, 100
2, 15352320, Note_on_c, 0, 48, 0
2, 15352320, Note_on_c, 0, 47, 100
2, 15353520, Note_on_c, 0, 47, 0
2, 15353520, Note_on_c, 0, 48, 100
2, 15354960, Note_on_c, 0, 48, 0
2, 15354960, Note_on_c, 0, 50, 100
2, 15356400, Note_on_c, 0, 50, 0
2, 15356400, Note_on_c, 0, 55, 100
2, 15356880, Note_on_c, 0, 55, 0
2, 15356880, Note_on_c, 0, 47, 100
2, 15357240, Note_on_c, 0, 47, 0
2, 15357240, Note_on_c, 0, 52, 100
2, 15357360, Note_on_c, 0, 52, 0
2, 15357360, Note_on_c, 0, 50, 100
2, 15357480, Note_on_c, 0, 50, 0
2, 15357480, Note_on_c, 0, 48, 100
2, 15357600, Note_on_c, 0, 48, 0
2, 15357600, Note_on_c, 0, 52, 100
2, 15357720, Note_on_c, 0, 52, 0
2, 15357720, Note_on_c, 0, 50, 100
2, 15357840, Note_on_c, 0, 50, 0
2, 15357840, Note_on_c, 0, 48, 100
2, 15357960, Note_on_c, 0, 48, 0
2, 15357960, Note_on_c, 0, 47, 100
2, 15358080, Note_on_c, 0, 47, 0
2, 15358080, Note_on_c, 0, 45, 100
2, 15358200, Note_on_c, 0, 45, 0
2, 15358200, Note_on_c, 0, 47, 100
2, 15358320, Note_on_c, 0, 47, 0
2, 15358320, Note_on_c, 0, 43, 100
2, 15358560, Note_on_c, 0, 43, 0
2, 15358560, Note_on_c, 0, 55, 100
2, 15359040, Note_on_c, 0, 55, 0
2, 15359040, Note_on_c, 0, 54, 100
2, 15359160, Note_on_c, 0, 54, 0
2, 15359160, Note_on_c, 0, 55, 100
2, 15359280, Note_on_c, 0, 55, 0
2, 15359280, Note_on_c, 0, 52, 100
2, 15359520, Note_on_c, 0, 52, 0
2, 15359520, Note_on_c, 0, 54, 100
2, 15359760, Note_on_c, 0, 54, 0
2, 15359760, Note_on_c, 0, 59, 100
2, 15360000, Note_on_c, 0, 59, 0
2, 15360000, Note_on_c, 0, 47, 100
2, 15360480, Note_on_c, 0, 47, 0
2, 15360480, Note_on_c, 0, 49, 100
2, 15360600, Note_on_c, 0, 49, 0
2, 15360600, Note_on_c, 0, 50, 100
2, 15360720, Note_on_c, 0, 50, 0
2, 15360720, Note_on_c, 0, 47, 100
2, 15360960, Note_on_c, 0, 47, 0
2, 15360960, Note_on_c, 0, 52, 100
2, 15361200, Note_on_c, 0, 52, 0
2, 15361200, Note_on_c, 0, 54, 100
2, 15361320, Note_on_c, 0, 54, 0
2, 15361320, Note_on_c, 0, 55, 100
2, 15361440, Note_on_c, 0, 55, 0
2, 15361440, Note_on_c, 0, 54, 100
2, 15361560, Note_on_c, 0, 54, 0
2, 15361560, Note_on_c, 0, 52, 100
2, 15361680, Note_on_c, 0, 52, 0
2, 15361680, Note_on_c, 0, 54, 100
2, 15361920, Note_on_c, 0, 54, 0
2, 15361920, Note_on_c, 0, 52, 100
2, 15362160, Note_on_c, 0, 52, 0
2, 15362160, Note_on_c, 0, 50, 100
2, 15362400, Note_on_c, 0, 50, 0
2, 15362400, Note_on_c, 0, 49, 100
2, 15362640, Note_on_c, 0, 49, 0
2, 15362640, Note_on_c, 0, 50, 100
2, 15362760, Note_on_c, 0, 50, 0
2, 15362760, Note_on_c, 0, 52, 100
2, 15362880, Note_on_c, 0, 52, 0
2, 15362880, Note_on_c, 0, 50, 100
2, 15363000, Note_on_c, 0, 50, 0
2, 15363000, Note_on_c, 0, 49, 100
2, 15363120, Note_on_c, 0, 49, 0
2, 15363120, Note_on_c, 0, 52, 100
2, 15363360, Note_on_c, 0, 52, 0
2, 15363360, Note_on_c, 0, 49, 100
2, 15363600, Note_on_c, 0, 49, 0
2, 15363600, Note_on_c, 0, 45, 100
2, 15363840, Note_on_c, 0, 45, 0
2, 15363840, Note_on_c, 0, 50, 100
2, 15364680, Note_on_c, 0, 50, 0
2, 15364680, Note_on_c, 0, 52, 100
2, 15364800, Note_on_c, 0, 52, 0
2, 15364800, Note_on_c, 0, 54, 100
2, 15364920, Note_on_c, 0, 54, 0
2, 15364920, Note_on_c, 0, 55, 100
2, 15365040, Note_on_c, 0, 55, 0
2, 15365040, Note_on_c, 0, 57, 100
2, 15365160, Note_on_c, 0, 57, 0
2, 15365160, Note_on_c, 0, 55, 100
2, 15365280, Note_on_c, 0, 55, 0
2, 15365280, Note_on_c, 0, 54, 100
2, 15365400, Note_on_c, 0, 54, 0
2, 15365400, Note_on_c, 0, 55, 100
2, 15365520, Note_on_c, 0, 55, 0
2, 15365520, Note_on_c, 0, 43, 100
2, 15365760, Note_on_c, 0, 43, 0
2, 15365760, Note_on_c, 0, 52, 100
2, 15366120, Note_on_c, 0, 52, 0
2, 15366120, Note_on_c, 0, 54, 100
2, 15366240, Note_on_c, 0, 54, 0
2, 15366240, Note_on_c, 0, 55, 100
2, 15366360, Note_on_c, 0, 55, 0
2, 15366360, Note_on_c, 0, 57, 100
2, 15366480, Note_on_c, 0, 57, 0
2, 15366480, Note_on_c, 0, 54, 100
2, 15366600, Note_on_c, 0, 54, 0
2, 15366600, Note_on_c, 0, 52, 100
2, 15366720, Note_on_c, 0, 52, 0
2, 15366720, Note_on_c, 0, 50, 100
2, 15366840, Note_on_c, 0, 50, 0
2, 15366840, Note_on_c, 0, 59, 100
2, 15366960, Note_on_c, 0, 59, 0
2, 15366960, Note_on_c, 0, 47, 100
2, 15367080, Note_on_c, 0, 47, 0
2, 15367080, Note_on_c, 0, 52, 100
2, 15367200, Note_on_c, 0, 52, 0
2, 15367200, Note_on_c, 0, 50, 100
2, 15367320, Note_on_c, 0, 50, 0
2, 15367320, Note_on_c, 0, 49, 100
2, 15367440, Note_on_c, 0, 49, 0
2, 15367440, Note_on_c, 0, 45, 100
2, 15367560, Note_on_c, 0, 45, 0
2, 15367560, Note_on_c, 0, 50, 100
2, 15367680, Note_on_c, 0, 50, 0
2, 15367680, Note_on_c, 0, 55, 100
2, 15367800, Note_on_c, 0, 55, 0
2, 15367800, Note_on_c, 0, 57, 100
2, 15367920, Note_on_c, 0, 57, 0
2, 15367920, Note_on_c, 0, 52, 100
2, 15368040, Note_on_c, 0, 52, 0
2, 15368040, Note_on_c, 0, 49, 100
2, 15368160, Note_on_c, 0, 49, 0
2, 15368160, Note_on_c, 0, 45, 100
2, 15368280, Note_on_c, 0, 45, 0
2, 15368280, Note_on_c, 0, 50, 100
2, 15368400, Note_on_c, 0, 50, 0
2, 15368400, Note_on_c, 0, 52, 100
2, 15368520, Note_on_c, 0, 52, 0
2, 15368520, Note_on_c, 0, 50, 100
2, 15368640, Note_on_c, 0, 50, 0
2, 15368640, Note_on_c, 0, 49, 100
2, 15368760, Note_on_c, 0, 49, 0
2, 15368760, Note_on_c, 0, 50, 100
2, 15368880, Note_on_c, 0, 50, 0
2, 15368880, Note_on_c, 0, 45, 100
2, 15369120, Note_on_c, 0, 45, 0
2, 15369120, Note_on_c, 0, 38, 100
2, 15369360, Note_on_c, 0, 38, 0
2, 15369360, Note_on_c, 0, 55, 100
2, 15370800, Note_on_c, 0, 55, 0
2, 15370800, Note_on_c, 0, 54, 100
2, 15372240, Note_on_c, 0, 54, 0
2, 15372240, Note_on_c, 0, 52, 100
2, 15373680, Note_on_c, 0, 52, 0
2, 15373680, Note_on_c, 0, 50, 100
2, 15374160, Note_on_c, 0, 50, 0
2, 15374160, Note_on_c, 0, 38, 100
2, 15374280, Note_on_c, 0, 38, 0
2, 15374280, Note_on_c, 0, 50, 100
2, 15374400, Note_on_c, 0, 50, 0
2, 15374400, Note_on_c, 0, 48, 100
2, 15374880, Note_on_c, 0, 48, 0
2, 15374880, Note_on_c, 0, 47, 100
2, 15375000, Note_on_c, 0, 47, 0
2, 15375000, Note_on_c, 0, 45, 100
2, 15375120, Note_on_c, 0, 45, 0
2, 15375120, Note_on_c, 0, 48, 100
2, 15375360, Note_on_c, 0, 48, 0
2, 15375360, Note_on_c, 0, 47, 100
2, 15376560, Note_on_c, 0, 47, 0
2, 15376560, Note_on_c, 0, 48, 100
2, 15378000, Note_on_c, 0, 48, 0
2, 15378000, Note_on_c, 0, 50, 100
2, 15379440, Note_on_c, 0, 50, 0
2, 15379440, Note_on_c, 0, 55, 100
2, 15379920, Note_on_c, 0, 55, 0
2, 15379920, Note_on_c, 0, 47, 100
2, 15380280, Note_on_c, 0, 47, 0
2, 15380280, Note_on_c, 0, 52, 100
2, 15380400, Note_on_c, 0, 52, 0
2, 15380400, Note_on_c, 0, 50, 100
2, 15380520, Note_on_c, 0, 50, 0
2, 15380520, Note_on_c, 0, 48, 100
2, 15380640, Note_on_c, 0, 48, 0
2, 15380640, Note_on_c, 0, 52, 100
2, 15380760, Note_on_c, 0, 52, 0
2, 15380760, Note_on_c, 0, 50, 100
2, 15380880, Note_on_c, 0, 50, 0
2, 15380880, Note_on_c, 0, 48, 100
2, 15381000, Note_on_c, 0, 48, 0
2, 15381000, Note_on_c, 0, 47, 100
2, 15381120, Note_on_c, 0, 47, 0
2, 15381120, Note_on_c, 0, 45, 100
2, 15381240, Note_on_c, 0, 45, 0
2, 15381240, Note_on_c, 0, 47, 100
2, 15381360, Note_on_c, 0, 47, 0
2, 15381360, Note_on_c, 0, 43, 100
2, 15381600, Note_on_c, 0, 43, 0
2, 15381600, Note_on_c, 0, 55, 100
2, 15382080, Note_on_c, 0, 55, 0
2, 15382080, Note_on_c, 0, 54, 100
2, 15382200, Note_on_c, 0, 54, 0
2, 15382200, Note_on_c, 0, 55, 100
2, 15382320, Note_on_c, 0, 55, 0
2, 15382320, Note_on_c, 0, 52, 100
2, 15382560, Note_on_c, 0, 52, 0
2, 15382560, Note_on_c, 0, 54, 100
2, 15382800, Note_on_c, 0, 54, 0
2, 15382800, Note_on_c, 0, 59, 100
2, 15383040, Note_on_c, 0, 59, 0
2, 15383040, Note_on_c, 0, 47, 100
2, 15383520, Note_on_c, 0, 47, 0
2, 15383520, Note_on_c, 0, 49, 100
2, 15383640, Note_on_c, 0, 49, 0
2, 15383640, Note_on_c, 0, 50, 100
2, 15383760, Note_on_c, 0, 50, 0
2, 15383760, Note_on_c, 0, 47, 100
2, 15384000, Note_on_c, 0, 47, 0
2, 15384000, Note_on_c, 0, 52, 100
2, 15384240, Note_on_c, 0, 52, 0
2, 15384240, Note_on_c, 0, 54, 100
2, 15384360, Note_on_c, 0, 54, 0
2, 15384360, Note_on_c, 0, 55, 100
2, 15384480, Note_on_c, 0, 55, 0
2, 15384480, Note_on_c, 0, 54, 100
2, 15384600, Note_on_c, 0, 54, 0
2, 15384600, Note_on_c, 0, 52, 100
2, 15384720, Note_on_c, 0, 52, 0
2, 15384720, Note_on_c, 0, 54, 100
2, 15384960, Note_on_c, 0, 54, 0
2, 15384960, Note_on_c, 0, 52, 100
2, 15385200, Note_on_c, 0, 52, 0
2, 15385200, Note_on_c, 0, 50, 100
2, 15385440, Note_on_c, 0, 50, 0
2, 15385440, Note_on_c, 0, 49, 100
2, 15385680, Note_on_c, 0, 49, 0
2, 15385680, Note_on_c, 0, 50, 100
2, 15385800, Note_on_c, 0, 50, 0
2, 15385800, Note_on_c, 0, 52, 100
2, 15385920, Note_on_c, 0, 52, 0
2, 15385920, Note_on_c, 0, 50, 100
2, 15386040, Note_on_c, 0, 50, 0
2, 15386040, Note_on_c, 0, 49, 100
2, 15386160, Note_on_c, 0, 49, 0
2, 15386160, Note_on_c, 0, 52, 100
2, 15386400, Note_on_c, 0, 52, 0
2, 15386400, Note_on_c, 0, 49, 100
2, 15386640, Note_on_c, 0, 49, 0
2, 15386640, Note_on_c, 0, 45, 100
2, 15386880, Note_on_c, 0, 45, 0
2, 15386880, Note_on_c, 0, 50, 100
2, 15387720, Note_on_c, 0, 50, 0
2, 15387720, Note_on_c, 0, 52, 100
2, 15387840, Note_on_c, 0, 52, 0
2, 15387840, Note_on_c, 0, 54, 100
2, 15387960, Note_on_c, 0, 54, 0
2, 15387960, Note_on_c, 0, 55, 100
2, 15388080, Note_on_c, 0, 55, 0
2, 15388080, Note_on_c, 0, 57, 100
2, 15388200, Note_on_c, 0, 57, 0
2, 15388200, Note_on_c, 0, 55, 100
2, 15388320, Note_on_c, 0, 55, 0
2, 15388320, Note_on_c, 0, 54, 100
2, 15388440, Note_on_c, 0, 54, 0
2, 15388440, Note_on_c, 0, 55, 100
2, 15388560, Note_on_c, 0, 55, 0
2, 15388560, Note_on_c, 0, 43, 100
2, 15388800, Note_on_c, 0, 43, 0
2, 15388800, Note_on_c, 0, 52, 100
2, 15389160, Note_on_c, 0, 52, 0
2, 15389160, Note_on_c, 0, 54, 100
2, 15389280, Note_on_c, 0, 54, 0
2, 15389280, Note_on_c, 0, 55, 100
2, 15389400, Note_on_c, 0, 55, 0
2, 15389400, Note_on_c, 0, 57, 100
2, 15389520, Note_on_c, 0, 57, 0
2, 15389520, Note_on_c, 0, 54, 100
2, 15389640, Note_on_c, 0, 54, 0
2, 15389640, Note_on_c, 0, 52, 100
2, 15389760, Note_on_c, 0, 52, 0
2, 15389760, Note_on_c, 0, 50, 100
2, 15389880, Note_on_c, 0, 50, 0
2, 15389880, Note_on_c, 0, 59, 100
2, 15390000, Note_on_c, 0, 59, 0
2, 15390000, Note_on_c, 0, 47, 100
2, 15390120, Note_on_c, 0, 47, 0
2, 15390120, Note_on_c, 0, 52, 100
2, 15390240, Note_on_c, 0, 52, 0
2, 15390240, Note_on_c, 0, 50, 100
2, 15390360, Note_on_c, 0, 50, 0
2, 15390360, Note_on_c, 0, 49, 100
2, 15390480, Note_on_c, 0, 49, 0
2, 15390480, Note_on_c, 0, 45, 100
2, 15390600, Note_on_c, 0, 45, 0
2, 15390600, Note_on_c, 0, 50, 100
2, 15390720, Note_on_c, 0, 50, 0
2, 15390720, Note_on_c, 0, 55, 100
2, 15390840, Note_on_c, 0, 55, 0
2, 15390840, Note_on_c, 0, 57, 100
2, 15390960, Note_on_c, 0, 57, 0
2, 15390960, Note_on_c, 0, 52, 100
2, 15391080, Note_on_c, 0, 52, 0
2, 15391080, Note_on_c, 0, 49, 100
2, 15391200, Note_on_c, 0, 49, 0
2, 15391200, Note_on_c, 0, 45, 100
2, 15391320, Note_on_c, 0, 45, 0
2, 15391320, Note_on_c, 0, 50, 100
2, 15391440, Note_on_c, 0, 50, 0
2, 15391440, Note_on_c, 0, 52, 100
2, 15391560, Note_on_c, 0, 52, 0
2, 15391560, Note_on_c, 0, 50, 100
2, 15391680, Note_on_c, 0, 50, 0
2, 15391680, Note_on_c, 0, 49, 100
2, 15391800, Note_on_c, 0, 49, 0
2, 15391800, Note_on_c, 0, 50, 100
2, 15391920, Note_on_c, 0, 50, 0
2, 15391920, Note_on_c, 0, 45, 100
2, 15392160, Note_on_c, 0, 45, 0
2, 15392160, Note_on_c, 0, 38, 100
2, 15392400, Note_on_c, 0, 38, 0
2, 15392400, Note_on_c, 0, 50, 100
2, 15393360, Note_on_c, 0, 50, 0
2, 15393360, Note_on_c, 0, 48, 100
2, 15393840, Note_on_c, 0, 48, 0
2, 15393840, Note_on_c, 0, 47, 100
2, 15394320, Note_on_c, 0, 47, 0
2, 15394320, Note_on_c, 0, 48, 100
2, 15394560, Note_on_c, 0, 48, 0
2, 15394560, Note_on_c, 0, 47, 100
2, 15394800, Note_on_c, 0, 47, 0
2, 15394800, Note_on_c, 0, 45, 100
2, 15395040, Note_on_c, 0, 45, 0
2, 15395040, Note_on_c, 0, 43, 100
2, 15395280, Note_on_c, 0, 43, 0
2, 15395280, Note_on_c, 0, 45, 100
2, 15395520, Note_on_c, 0, 45, 0
2, 15395520, Note_on_c, 0, 47, 100
2, 15395640, Note_on_c, 0, 47, 0
2, 15395640, Note_on_c, 0, 48, 100
2, 15395760, Note_on_c, 0, 48, 0
2, 15395760, Note_on_c, 0, 47, 100
2, 15396000, Note_on_c, 0, 47, 0
2, 15396000, Note_on_c, 0, 48, 100
2, 15396240, Note_on_c, 0, 48, 0
2, 15396240, Note_on_c, 0, 52, 100
2, 15396480, Note_on_c, 0, 52, 0
2, 15396480, Note_on_c, 0, 45, 100
2, 15396720, Note_on_c, 0, 45, 0
2, 15396720, Note_on_c, 0, 48, 100
2, 15396960, Note_on_c, 0, 48, 0
2, 15396960, Note_on_c, 0, 47, 100
2, 15397200, Note_on_c, 0, 47, 0
2, 15397200, Note_on_c, 0, 52, 100
2, 15398880, Note_on_c, 0, 52, 0
2, 15398880, Note_on_c, 0, 54, 100
2, 15399120, Note_on_c, 0, 54, 0
2, 15399120, Note_on_c, 0, 55, 100
2, 15399360, Note_on_c, 0, 55, 0
2, 15399360, Note_on_c, 0, 57, 100
2, 15399600, Note_on_c, 0, 57, 0
2, 15399600, Note_on_c, 0, 59, 100
2, 15399840, Note_on_c, 0, 59, 0
2, 15399840, Note_on_c, 0, 60, 100
2, 15400080, Note_on_c, 0, 60, 0
2, 15400080, Note_on_c, 0, 62, 100
2, 15400200, Note_on_c, 0, 62, 0
2, 15400200, Note_on_c, 0, 60, 100
2, 15400320, Note_on_c, 0, 60, 0
2, 15400320, Note_on_c, 0, 59, 100
2, 15400440, Note_on_c, 0, 59, 0
2, 15400440, Note_on_c, 0, 60, 100
2, 15400560, Note_on_c, 0, 60, 0
2, 15400560, Note_on_c, 0, 59, 100
2, 15400680, Note_on_c, 0, 59, 0
2, 15400680, Note_on_c, 0, 57, 100
2, 15400800, Note_on_c, 0, 57, 0
2, 15400800, Note_on_c, 0, 55, 100
2, 15400920, Note_on_c, 0, 55, 0
2, 15400920, Note_on_c, 0, 57, 100
2, 15401040, Note_on_c, 0, 57, 0
2, 15401040, Note_on_c, 0, 54, 100
2, 15401160, Note_on_c, 0, 54, 0
2, 15401160, Note_on_c, 0, 55, 100
2, 15401280, Note_on_c, 0, 55, 0
2, 15401280, Note_on_c, 0, 57, 100
2, 15401400, Note_on_c, 0, 57, 0
2, 15401400, Note_on_c, 0, 59, 100
2, 15401520, Note_on_c, 0, 59, 0
2, 15401520, Note_on_c, 0, 60, 100
2, 15401640, Note_on_c, 0, 60, 0
2, 15401640, Note_on_c, 0, 59, 100
2, 15401760, Note_on_c, 0, 59, 0
2, 15401760, Note_on_c, 0, 57, 100
2, 15401880, Note_on_c, 0, 57, 0
2, 15401880, Note_on_c, 0, 59, 100
2, 15402000, Note_on_c, 0, 59, 0
2, 15402000, Note_on_c, 0, 54, 100
2, 15402120, Note_on_c, 0, 54, 0
2, 15402120, Note_on_c, 0, 51, 100
2, 15402240, Note_on_c, 0, 51, 0
2, 15402240, Note_on_c, 0, 54, 100
2, 15402360, Note_on_c, 0, 54, 0
2, 15402360, Note_on_c, 0, 47, 100
2, 15402480, Note_on_c, 0, 47, 0
2, 15402480, Note_on_c, 0, 51, 100
2, 15402600, Note_on_c, 0, 51, 0
2, 15402600, Note_on_c, 0, 49, 100
2, 15402720, Note_on_c, 0, 49, 0
2, 15402720, Note_on_c, 0, 47, 100
2, 15402840, Note_on_c, 0, 47, 0
2, 15402840, Note_on_c, 0, 52, 100
2, 15402960, Note_on_c, 0, 52, 0
2, 15402960, Note_on_c, 0, 48, 100
2, 15403080, Note_on_c, 0, 48, 0
2, 15403080, Note_on_c, 0, 47, 100
2, 15403200, Note_on_c, 0, 47, 0
2, 15403200, Note_on_c, 0, 45, 100
2, 15403320, Note_on_c, 0, 45, 0
2, 15403320, Note_on_c, 0, 43, 100
2, 15403440, Note_on_c, 0, 43, 0
2, 15403440, Note_on_c, 0, 47, 100
2, 15403560, Note_on_c, 0, 47, 0
2, 15403560, Note_on_c, 0, 52, 100
2, 15403680, Note_on_c, 0, 52, 0
2, 15403680, Note_on_c, 0, 51, 100
2, 15403800, Note_on_c, 0, 51, 0
2, 15403800, Note_on_c, 0, 52, 100
2, 15403920, Note_on_c, 0, 52, 0
2, 15403920, Note_on_c, 0, 50, 100
2, 15404160, Note_on_c, 0, 50, 0
2, 15404160, Note_on_c, 0, 48, 100
2, 15404400, Note_on_c, 0, 48, 0
2, 15404400, Note_on_c, 0, 60, 100
2, 15404640, Note_on_c, 0, 60, 0
2, 15404640, Note_on_c, 0, 52, 100
2, 15405000, Note_on_c, 0, 52, 0
2, 15405000, Note_on_c, 0, 50, 100
2, 15405120, Note_on_c, 0, 50, 0
2, 15405120, Note_on_c, 0, 48, 100
2, 15405240, Note_on_c, 0, 48, 0
2, 15405240, Note_on_c, 0, 50, 100
2, 15405360, Note_on_c, 0, 50, 0
2, 15405360, Note_on_c, 0, 48, 100
2, 15405480, Note_on_c, 0, 48, 0
2, 15405480, Note_on_c, 0, 47, 100
2, 15405600, Note_on_c, 0, 47, 0
2, 15405600, Note_on_c, 0, 45, 100
2, 15405720, Note_on_c, 0, 45, 0
2, 15405720, Note_on_c, 0, 47, 100
2, 15405840, Note_on_c, 0, 47, 0
2, 15405840, Note_on_c, 0, 59, 100
2, 15406080, Note_on_c, 0, 59, 0
2, 15406080, Note_on_c, 0, 50, 100
2, 15406440, Note_on_c, 0, 50, 0
2, 15406440, Note_on_c, 0, 48, 100
2, 15406560, Note_on_c, 0, 48, 0
2, 15406560, Note_on_c, 0, 47, 100
2, 15406680, Note_on_c, 0, 47, 0
2, 15406680, Note_on_c, 0, 48, 100
2, 15406800, Note_on_c, 0, 48, 0
2, 15406800, Note_on_c, 0, 47, 100
2, 15406920, Note_on_c, 0, 47, 0
2, 15406920, Note_on_c, 0, 45, 100
2, 15407040, Note_on_c, 0, 45, 0
2, 15407040, Note_on_c, 0, 44, 100
2, 15407160, Note_on_c, 0, 44, 0
2, 15407160, Note_on_c, 0, 45, 100
2, 15407280, Note_on_c, 0, 45, 0
2, 15407280, Note_on_c, 0, 57, 100
2, 15407520, Note_on_c, 0, 57, 0
2, 15407520, Note_on_c, 0, 59, 100
2, 15407880, Note_on_c, 0, 59, 0
2, 15407880, Note_on_c, 0, 57, 100
2, 15408000, Note_on_c, 0, 57, 0
2, 15408000, Note_on_c, 0, 55, 100
2, 15408120, Note_on_c, 0, 55, 0
2, 15408120, Note_on_c, 0, 57, 100
2, 15408240, Note_on_c, 0, 57, 0
2, 15408240, Note_on_c, 0, 55, 100
2, 15408360, Note_on_c, 0, 55, 0
2, 15408360, Note_on_c, 0, 54, 100
2, 15408480, Note_on_c, 0, 54, 0
2, 15408480, Note_on_c, 0, 52, 100
2, 15408600, Note_on_c, 0, 52, 0
2, 15408600, Note_on_c, 0, 54, 100
2, 15408720, Note_on_c, 0, 54, 0
2, 15408720, Note_on_c, 0, 52, 100
2, 15408840, Note_on_c, 0, 52, 0
2, 15408840, Note_on_c, 0, 50, 100
2, 15408960, Note_on_c, 0, 50, 0
2, 15408960, Note_on_c, 0, 49, 100
2, 15409080, Note_on_c, 0, 49, 0
2, 15409080, Note_on_c, 0, 50, 100
2, 15409200, Note_on_c, 0, 50, 0
2, 15409200, Note_on_c, 0, 48, 100
2, 15409320, Note_on_c, 0, 48, 0
2, 15409320, Note_on_c, 0, 47, 100
2, 15409440, Note_on_c, 0, 47, 0
2, 15409440, Note_on_c, 0, 45, 100
2, 15409560, Note_on_c, 0, 45, 0
2, 15409560, Note_on_c, 0, 47, 100
2, 15409680, Note_on_c, 0, 47, 0
2, 15409680, Note_on_c, 0, 45, 100
2, 15409800, Note_on_c, 0, 45, 0
2, 15409800, Note_on_c, 0, 43, 100
2, 15409920, Note_on_c, 0, 43, 0
2, 15409920, Note_on_c, 0, 42, 100
2, 15410040, Note_on_c, 0, 42, 0
2, 15410040, Note_on_c, 0, 43, 100
2, 15410160, Note_on_c, 0, 43, 0
2, 15410160, Note_on_c, 0, 57, 100
2, 15410280, Note_on_c, 0, 57, 0
2, 15410280, Note_on_c, 0, 55, 100
2, 15410400, Note_on_c, 0, 55, 0
2, 15410400, Note_on_c, 0, 54, 100
2, 15410520, Note_on_c, 0, 54, 0
2, 15410520, Note_on_c, 0, 55, 100
2, 15410640, Note_on_c, 0, 55, 0
2, 15410640, Note_on_c, 0, 54, 100
2, 15410760, Note_on_c, 0, 54, 0
2, 15410760, Note_on_c, 0, 52, 100
2, 15410880, Note_on_c, 0, 52, 0
2, 15410880, Note_on_c, 0, 51, 100
2, 15411000, Note_on_c, 0, 51, 0
2, 15411000, Note_on_c, 0, 52, 100
2, 15411120, Note_on_c, 0, 52, 0
2, 15411120, Note_on_c, 0, 50, 100
2, 15411720, Note_on_c, 0, 50, 0
2, 15411720, Note_on_c, 0, 48, 100
2, 15411840, Note_on_c, 0, 48, 0
2, 15411840, Note_on_c, 0, 52, 100
2, 15411960, Note_on_c, 0, 52, 0
2, 15411960, Note_on_c, 0, 50, 100
2, 15412080, Note_on_c, 0, 50, 0
2, 15412080, Note_on_c, 0, 45, 100
2, 15412800, Note_on_c, 0, 45, 0
2, 15412800, Note_on_c, 0, 47, 100
2, 15413040, Note_on_c, 0, 47, 0
2, 15413040, Note_on_c, 0, 52, 100
2, 15413760, Note_on_c, 0, 52, 0
2, 15413760, Note_on_c, 0, 48, 100
2, 15414000, Note_on_c, 0, 48, 0
2, 15414000, Note_on_c, 0, 50, 100
2, 15414240, Note_on_c, 0, 50, 0
2, 15414240, Note_on_c, 0, 43, 100
2, 15414480, Note_on_c, 0, 43, 0
2, 15414480, Note_on_c, 0, 47, 100
2, 15415080, Note_on_c, 0, 47, 0
2, 15415080, Note_on_c, 0, 50, 100
2, 15415200, Note_on_c, 0, 50, 0
2, 15415200, Note_on_c, 0, 54, 100
2, 15415320, Note_on_c, 0, 54, 0
2, 15415320, Note_on_c, 0, 55, 100
2, 15415440, Note_on_c, 0, 55, 0
2, 15415440, Note_on_c, 0, 50, 100
2, 15416400, Note_on_c, 0, 50, 0
2, 15416400, Note_on_c, 0, 48, 100
2, 15416880, Note_on_c, 0, 48, 0
2, 15416880, Note_on_c, 0, 47, 100
2, 15417360, Note_on_c, 0, 47, 0
2, 15417360, Note_on_c, 0, 48, 100
2, 15417600, Note_on_c, 0, 48, 0
2, 15417600, Note_on_c, 0, 47, 100
2, 15417840, Note_on_c, 0, 47, 0
2, 15417840, Note_on_c, 0, 45, 100
2, 15418080, Note_on_c, 0, 45, 0
2, 15418080, Note_on_c, 0, 43, 100
2, 15418320, Note_on_c, 0, 43, 0
2, 15418320, Note_on_c, 0, 45, 100
2, 15418560, Note_on_c, 0, 45, 0
2, 15418560, Note_on_c, 0, 47, 100
2, 15418680, Note_on_c, 0, 47, 0
2, 15418680, Note_on_c, 0, 48, 100
2, 15418800, Note_on_c, 0, 48, 0
2, 15418800, Note_on_c, 0, 47, 100
2, 15419040, Note_on_c, 0, 47, 0
2, 15419040, Note_on_c, 0, 48, 100
2, 15419280, Note_on_c, 0, 48, 0
2, 15419280, Note_on_c, 0, 52, 100
2, 15419520, Note_on_c, 0, 52, 0
2, 15419520, Note_on_c, 0, 45, 100
2, 15419760, Note_on_c, 0, 45, 0
2, 15419760, Note_on_c, 0, 48, 100
2, 15420000, Note_on_c, 0, 48, 0
2, 15420000, Note_on_c, 0, 47, 100
2, 15420240, Note_on_c, 0, 47, 0
2, 15420240, Note_on_c, 0, 52, 100
2, 15421920, Note_on_c, 0, 52, 0
2, 15421920, Note_on_c, 0, 54, 100
2, 15422160, Note_on_c, 0, 54, 0
2, 15422160, Note_on_c, 0, 55, 100
2, 15422400, Note_on_c, 0, 55, 0
2, 15422400, Note_on_c, 0, 57, 100
2, 15422640, Note_on_c, 0, 57, 0
2, 15422640, Note_on_c, 0, 59, 100
2, 15422880, Note_on_c, 0, 59, 0
2, 15422880, Note_on_c, 0, 60, 100
2, 15423120, Note_on_c, 0, 60, 0
2, 15423120, Note_on_c, 0, 62, 100
2, 15423240, Note_on_c, 0, 62, 0
2, 15423240, Note_on_c, 0, 60, 100
2, 15423360, Note_on_c, 0, 60, 0
2, 15423360, Note_on_c, 0, 59, 100
2, 15423480, Note_on_c, 0, 59, 0
2, 15423480, Note_on_c, 0, 60, 100
2, 15423600, Note_on_c, 0, 60, 0
2, 15423600, Note_on_c, 0, 59, 100
2, 15423720, Note_on_c, 0, 59, 0
2, 15423720, Note_on_c, 0, 57, 100
2, 15423840, Note_on_c, 0, 57, 0
2, 15423840, Note_on_c, 0, 55, 100
2, 15423960, Note_on_c, 0, 55, 0
2, 15423960, Note_on_c, 0, 57, 100
2, 15424080, Note_on_c, 0, 57, 0
2, 15424080, Note_on_c, 0, 54, 100
2, 15424200, Note_on_c, 0, 54, 0
2, 15424200, Note_on_c, 0, 55, 100
2, 15424320, Note_on_c, 0, 55, 0
2, 15424320, Note_on_c, 0, 57, 100
2, 15424440, Note_on_c, 0, 57, 0
2, 15424440, Note_on_c, 0, 59, 100
2, 15424560, Note_on_c, 0, 59, 0
2, 15424560, Note_on_c, 0, 60, 100
2, 15424680, Note_on_c, 0, 60, 0
2, 15424680, Note_on_c, 0, 59, 100
2, 15424800, Note_on_c, 0, 59, 0
2, 15424800, Note_on_c, 0, 57, 100
2, 15424920, Note_on_c, 0, 57, 0
2, 15424920, Note_on_c, 0, 59, 100
2, 15425040, Note_on_c, 0, 59, 0
2, 15425040, Note_on_c, 0, 54, 100
2, 15425160, Note_on_c, 0, 54, 0
2, 15425160, Note_on_c, 0, 51, 100
2, 15425280, Note_on_c, 0, 51, 0
2, 15425280, Note_on_c, 0, 54, 100
2, 15425400, Note_on_c, 0, 54, 0
2, 15425400, Note_on_c, 0, 47, 100
2, 15425520, Note_on_c, 0, 47, 0
2, 15425520, Note_on_c, 0, 51, 100
2, 15425640, Note_on_c, 0, 51, 0
2, 15425640, Note_on_c, 0, 49, 100
2, 15425760, Note_on_c, 0, 49, 0
2, 15425760, Note_on_c, 0, 47, 100
2, 15425880, Note_on_c, 0, 47, 0
2, 15425880, Note_on_c, 0, 52, 100
2, 15426000, Note_on_c, 0, 52, 0
2, 15426000, Note_on_c, 0, 48, 100
2, 15426120, Note_on_c, 0, 48, 0
2, 15426120, Note_on_c, 0, 47, 100
2, 15426240, Note_on_c, 0, 47, 0
2, 15426240, Note_on_c, 0, 45, 100
2, 15426360, Note_on_c, 0, 45, 0
2, 15426360, Note_on_c, 0, 43, 100
2, 15426480, Note_on_c, 0, 43, 0
2, 15426480, Note_on_c, 0, 47, 100
2, 15426600, Note_on_c, 0, 47, 0
2, 15426600, Note_on_c, 0, 52, 100
2, 15426720, Note_on_c, 0, 52, 0
2, 15426720, Note_on_c, 0, 51, 100
2, 15426840, Note_on_c, 0, 51, 0
2, 15426840, Note_on_c, 0, 52, 100
2, 15426960, Note_on_c, 0, 52, 0
2, 15426960, Note_on_c, 0, 50, 100
2, 15427200, Note_on_c, 0, 50, 0
2, 15427200, Note_on_c, 0, 48, 100
2, 15427440, Note_on_c, 0, 48, 0
2, 15427440, Note_on_c, 0, 60, 100
2, 15427680, Note_on_c, 0, 60, 0
2, 15427680, Note_on_c, 0, 52, 100
2, 15428040, Note_on_c, 0, 52, 0
2, 15428040, Note_on_c, 0, 50, 100
2, 15428160, Note_on_c, 0, 50, 0
2, 15428160, Note_on_c, 0, 48, 100
2, 15428280, Note_on_c, 0, 48, 0
2, 15428280, Note_on_c, 0, 50, 100
2, 15428400, Note_on_c, 0, 50, 0
2, 15428400, Note_on_c, 0, 48, 100
2, 15428520, Note_on_c, 0, 48, 0
2, 15428520, Note_on_c, 0, 47, 100
2, 15428640, Note_on_c, 0, 47, 0
2, 15428640, Note_on_c, 0, 45, 100
2, 15428760, Note_on_c, 0, 45, 0
2, 15428760, Note_on_c, 0, 47, 100
2, 15428880, Note_on_c, 0, 47, 0
2, 15428880, Note_on_c, 0, 59, 100
2, 15429120, Note_on_c, 0, 59, 0
2, 15429120, Note_on_c, 0, 50, 100
2, 15429480, Note_on_c, 0, 50, 0
2, 15429480, Note_on_c, 0, 48, 100
2, 15429600, Note_on_c, 0, 48, 0
2, 15429600, Note_on_c, 0, 47, 100
2, 15429720, Note_on_c, 0, 47, 0
2, 15429720, Note_on_c, 0, 48, 100
2, 15429840, Note_on_c, 0, 48, 0
2, 15429840, Note_on_c, 0, 47, 100
2, 15429960, Note_on_c, 0, 47, 0
2, 15429960, Note_on_c, 0, 45, 100
2, 15430080, Note_on_c, 0, 45, 0
2, 15430080, Note_on_c, 0, 44, 100
2, 15430200, Note_on_c, 0, 44, 0
2, 15430200, Note_on_c, 0, 45, 100
2, 15430320, Note_on_c, 0, 45, 0
2, 15430320, Note_on_c, 0, 57, 100
2, 15430560, Note_on_c, 0, 57, 0
2, 15430560, Note_on_c, 0, 59, 100
2, 15430920, Note_on_c, 0, 59, 0
2, 15430920, Note_on_c, 0, 57, 100
2, 15431040, Note_on_c, 0, 57, 0
2, 15431040, Note_on_c, 0, 55, 100
2, 15431160, Note_on_c, 0, 55, 0
2, 15431160, Note_on_c, 0, 57, 100
2, 15431280, Note_on_c, 0, 57, 0
2, 15431280, Note_on_c, 0, 55, 100
2, 15431400, Note_on_c, 0, 55, 0
2, 15431400, Note_on_c, 0, 54, 100
2, 15431520, Note_on_c, 0, 54, 0
2, 15431520, Note_on_c, 0, 52, 100
2, 15431640, Note_on_c, 0, 52, 0
2, 15431640, Note_on_c, 0, 54, 100
2, 15431760, Note_on_c, 0, 54, 0
2, 15431760, Note_on_c, 0, 52, 100
2, 15431880, Note_on_c, 0, 52, 0
2, 15431880, Note_on_c, 0, 50, 100
2, 15432000, Note_on_c, 0, 50, 0
2, 15432000, Note_on_c, 0, 49, 100
2, 15432120, Note_on_c, 0, 49, 0
2, 15432120, Note_on_c, 0, 50, 100
2, 15432240, Note_on_c, 0, 50, 0
2, 15432240, Note_on_c, 0, 48, 100
2, 15432360, Note_on_c, 0, 48, 0
2, 15432360, Note_on_c, 0, 47, 100
2, 15432480, Note_on_c, 0, 47, 0
2, 15432480, Note_on_c, 0, 45, 100
2, 15432600, Note_on_c, 0, 45, 0
2, 15432600, Note_on_c, 0, 47, 100
2, 15432720, Note_on_c, 0, 47, 0
2, 15432720, Note_on_c, 0, 45, 100
2, 15432840, Note_on_c, 0, 45, 0
2, 15432840, Note_on_c, 0, 43, 100
2, 15432960, Note_on_c, 0, 43, 0
2, 15432960, Note_on_c, 0, 42, 100
2, 15433080, Note_on_c, 0, 42, 0
2, 15433080, Note_on_c, 0, 43, 100
2, 15433200, Note_on_c, 0, 43, 0
2, 15433200, Note_on_c, 0, 57, 100
2, 15433320, Note_on_c, 0, 57, 0
2, 15433320, Note_on_c, 0, 55, 100
2, 15433440, Note_on_c, 0, 55, 0
2, 15433440, Note_on_c, 0, 54, 100
2, 15433560, Note_on_c, 0, 54, 0
2, 15433560, Note_on_c, 0, 55, 100
2, 15433680, Note_on_c, 0, 55, 0
2, 15433680, Note_on_c, 0, 54, 100
2, 15433800, Note_on_c, 0, 54, 0
2, 15433800, Note_on_c, 0, 52, 100
2, 15433920, Note_on_c, 0, 52, 0
2, 15433920, Note_on_c, 0, 51, 100
2, 15434040, Note_on_c, 0, 51, 0
2, 15434040, Note_on_c, 0, 52, 100
2, 15434160, Note_on_c, 0, 52, 0
2, 15434160, Note_on_c, 0, 50, 100
2, 15434760, Note_on_c, 0, 50, 0
2, 15434760, Note_on_c, 0, 48, 100
2, 15434880, Note_on_c, 0, 48, 0
2, 15434880, Note_on_c, 0, 52, 100
2, 15435000, Note_on_c, 0, 52, 0
2, 15435000, Note_on_c, 0, 50, 100
2, 15435120, Note_on_c, 0, 50, 0
2, 15435120, Note_on_c, 0, 45, 100
2, 15435840, Note_on_c, 0, 45, 0
2, 15435840, Note_on_c, 0, 47, 100
2, 15436080, Note_on_c, 0, 47, 0
2, 15436080, Note_on_c, 0, 52, 100
2, 15436800, Note_on_c, 0, 52, 0
2, 15436800, Note_on_c, 0, 48, 100
2, 15437040, Note_on_c, 0, 48, 0
2, 15437040, Note_on_c, 0, 50, 100
2, 15437280, Note_on_c, 0, 50, 0
2, 15437280, Note_on_c, 0, 43, 100
2, 15437520, Note_on_c, 0, 43, 0
2, 15437520, Note_on_c, 0, 47, 100
2, 15438120, Note_on_c, 0, 47, 0
2, 15438120, Note_on_c, 0, 50, 100
2, 15438240, Note_on_c, 0, 50, 0
2, 15438240, Note_on_c, 0, 54, 100
2, 15438360, Note_on_c, 0, 54, 0
2, 15438360, Note_on_c, 0, 55, 100
2, 15439680, Note_on_c, 0, 55, 0
2, 15439680, Note_on_c, 0, 54, 100
2, 15439920, Note_on_c, 0, 54, 0
2, 15439920, Note_on_c, 0, 52, 100
2, 15440160, Note_on_c, 0, 52, 0
2, 15440160, Note_on_c, 0, 54, 100
2, 15440400, Note_on_c, 0, 54, 0
2, 15440400, Note_on_c, 0, 59, 100
2, 15441120, Note_on_c, 0, 59, 0
2, 15441120, Note_on_c, 0, 57, 100
2, 15441360, Note_on_c, 0, 57, 0
2, 15441360, Note_on_c, 0, 59, 100
2, 15441600, Note_on_c, 0, 59, 0
2, 15441600, Note_on_c, 0, 52, 100
2, 15441840, Note_on_c, 0, 52, 0
2, 15441840, Note_on_c, 0, 57, 100
2, 15442560, Note_on_c, 0, 57, 0
2, 15442560, Note_on_c, 0, 55, 100
2, 15442800, Note_on_c, 0, 55, 0
2, 15442800, Note_on_c, 0, 57, 100
2, 15443040, Note_on_c, 0, 57, 0
2, 15443040, Note_on_c, 0, 50, 100
2, 15443280, Note_on_c, 0, 50, 0
2, 15443280, Note_on_c, 0, 52, 100
2, 15444000, Note_on_c, 0, 52, 0
2, 15444000, Note_on_c, 0, 50, 100
2, 15444240, Note_on_c, 0, 50, 0
2, 15444240, Note_on_c, 0, 48, 100
2, 15444480, Note_on_c, 0, 48, 0
2, 15444480, Note_on_c, 0, 47, 100
2, 15444720, Note_on_c, 0, 47, 0
2, 15444720, Note_on_c, 0, 43, 100
2, 15445440, Note_on_c, 0, 43, 0
2, 15445440, Note_on_c, 0, 45, 100
2, 15445680, Note_on_c, 0, 45, 0
2, 15445680, Note_on_c, 0, 47, 100
2, 15445920, Note_on_c, 0, 47, 0
2, 15445920, Note_on_c, 0, 48, 100
2, 15446160, Note_on_c, 0, 48, 0
2, 15446160, Note_on_c, 0, 45, 100
2, 15446880, Note_on_c, 0, 45, 0
2, 15446880, Note_on_c, 0, 47, 100
2, 15447120, Note_on_c, 0, 47, 0
2, 15447120, Note_on_c, 0, 48, 100
2, 15447360, Note_on_c, 0, 48, 0
2, 15447360, Note_on_c, 0, 50, 100
2, 15448320, Note_on_c, 0, 50, 0
2, 15448320, Note_on_c, 0, 48, 100
2, 15448560, Note_on_c, 0, 48, 0
2, 15448560, Note_on_c, 0, 50, 100
2, 15448800, Note_on_c, 0, 50, 0
2, 15448800, Note_on_c, 0, 43, 100
2, 15449760, Note_on_c, 0, 43, 0
2, 15449760, Note_on_c, 0, 47, 100
2, 15450000, Note_on_c, 0, 47, 0
2, 15450000, Note_on_c, 0, 50, 100
2, 15450240, Note_on_c, 0, 50, 0
2, 15450240, Note_on_c, 0, 55, 100
2, 15451200, Note_on_c, 0, 55, 0
2, 15451200, Note_on_c, 0, 54, 100
2, 15451440, Note_on_c, 0, 54, 0
2, 15451440, Note_on_c, 0, 52, 100
2, 15451680, Note_on_c, 0, 52, 0
2, 15451680, Note_on_c, 0, 54, 100
2, 15451920, Note_on_c, 0, 54, 0
2, 15451920, Note_on_c, 0, 59, 100
2, 15452640, Note_on_c, 0, 59, 0
2, 15452640, Note_on_c, 0, 57, 100
2, 15452880, Note_on_c, 0, 57, 0
2, 15452880, Note_on_c, 0, 59, 100
2, 15453120, Note_on_c, 0, 59, 0
2, 15453120, Note_on_c, 0, 52, 100
2, 15453360, Note_on_c, 0, 52, 0
2, 15453360, Note_on_c, 0, 54, 100
2, 15454080, Note_on_c, 0, 54, 0
2, 15454080, Note_on_c, 0, 52, 100
2, 15454320, Note_on_c, 0, 52, 0
2, 15454320, Note_on_c, 0, 50, 100
2, 15454560, Note_on_c, 0, 50, 0
2, 15454560, Note_on_c, 0, 49, 100
2, 15454800, Note_on_c, 0, 49, 0
2, 15454800, Note_on_c, 0, 52, 100
2, 15455520, Note_on_c, 0, 52, 0
2, 15455520, Note_on_c, 0, 45, 100
2, 15455760, Note_on_c, 0, 45, 0
2, 15455760, Note_on_c, 0, 43, 100
2, 15456000, Note_on_c, 0, 43, 0
2, 15456000, Note_on_c, 0, 42, 100
2, 15456240, Note_on_c, 0, 42, 0
2, 15456240, Note_on_c, 0, 54, 100
2, 15456480, Note_on_c, 0, 54, 0
2, 15456480, Note_on_c, 0, 52, 100
2, 15456660, Note_on_c, 0, 52, 0
2, 15456660, Note_on_c, 0, 54, 100
2, 15456720, Note_on_c, 0, 54, 0
2, 15456720, Note_on_c, 0, 57, 100
2, 15456960, Note_on_c, 0, 57, 0
2, 15456960, Note_on_c, 0, 50, 100
2, 15457200, Note_on_c, 0, 50, 0
2, 15457200, Note_on_c, 0, 54, 100
2, 15457440, Note_on_c, 0, 54, 0
2, 15457440, Note_on_c, 0, 43, 100
2, 15457680, Note_on_c, 0, 43, 0
2, 15457680, Note_on_c, 0, 55, 100
2, 15457920, Note_on_c, 0, 55, 0
2, 15457920, Note_on_c, 0, 54, 100
2, 15458100, Note_on_c, 0, 54, 0
2, 15458100, Note_on_c, 0, 55, 100
2, 15458160, Note_on_c, 0, 55, 0
2, 15458160, Note_on_c, 0, 59, 100
2, 15458400, Note_on_c, 0, 59, 0
2, 15458400, Note_on_c, 0, 52, 100
2, 15458640, Note_on_c, 0, 52, 0
2, 15458640, Note_on_c, 0, 55, 100
2, 15458880, Note_on_c, 0, 55, 0
2, 15458880, Note_on_c, 0, 45, 100
2, 15459120, Note_on_c, 0, 45, 0
2, 15459120, Note_on_c, 0, 57, 100
2, 15459360, Note_on_c, 0, 57, 0
2, 15459360, Note_on_c, 0, 55, 100
2, 15459540, Note_on_c, 0, 55, 0
2, 15459540, Note_on_c, 0, 57, 100
2, 15460320, Note_on_c, 0, 57, 0
2, 15460320, Note_on_c, 0, 50, 100
2, 15460560, Note_on_c, 0, 50, 0
2, 15460560, Note_on_c, 0, 61, 100
2, 15461280, Note_on_c, 0, 61, 0
2, 15461280, Note_on_c, 0, 62, 100
2, 15461520, Note_on_c, 0, 62, 0
2, 15461520, Note_on_c, 0, 55, 100
2, 15462720, Note_on_c, 0, 55, 0
2, 15462720, Note_on_c, 0, 54, 100
2, 15462960, Note_on_c, 0, 54, 0
2, 15462960, Note_on_c, 0, 52, 100
2, 15463200, Note_on_c, 0, 52, 0
2, 15463200, Note_on_c, 0, 54, 100
2, 15463440, Note_on_c, 0, 54, 0
2, 15463440, Note_on_c, 0, 59, 100
2, 15464160, Note_on_c, 0, 59, 0
2, 15464160, Note_on_c, 0, 57, 100
2, 15464400, Note_on_c, 0, 57, 0
2, 15464400, Note_on_c, 0, 59, 100
2, 15464640, Note_on_c, 0, 59, 0
2, 15464640, Note_on_c, 0, 52, 100
2, 15464880, Note_on_c, 0, 52, 0
2, 15464880, Note_on_c, 0, 57, 100
2, 15465600, Note_on_c, 0, 57, 0
2, 15465600, Note_on_c, 0, 55, 100
2, 15465840, Note_on_c, 0, 55, 0
2, 15465840, Note_on_c, 0, 57, 100
2, 15466080, Note_on_c, 0, 57, 0
2, 15466080, Note_on_c, 0, 50, 100
2, 15466320, Note_on_c, 0, 50, 0
2, 15466320, Note_on_c, 0, 52, 100
2, 15467040, Note_on_c, 0, 52, 0
2, 15467040, Note_on_c, 0, 50, 100
2, 15467280, Note_on_c, 0, 50, 0
2, 15467280, Note_on_c, 0, 48, 100
2, 15467520, Note_on_c, 0, 48, 0
2, 15467520, Note_on_c, 0, 47, 100
2, 15467760, Note_on_c, 0, 47, 0
2, 15467760, Note_on_c, 0, 43, 100
2, 15468480, Note_on_c, 0, 43, 0
2, 15468480, Note_on_c, 0, 45, 100
2, 15468720, Note_on_c, 0, 45, 0
2, 15468720, Note_on_c, 0, 47, 100
2, 15468960, Note_on_c, 0, 47, 0
2, 15468960, Note_on_c, 0, 48, 100
2, 15469200, Note_on_c, 0, 48, 0
2, 15469200, Note_on_c, 0, 45, 100
2, 15469920, Note_on_c, 0, 45, 0
2, 15469920, Note_on_c, 0, 47, 100
2, 15470160, Note_on_c, 0, 47, 0
2, 15470160, Note_on_c, 0, 48, 100
2, 15470400, Note_on_c, 0, 48, 0
2, 15470400, Note_on_c, 0, 50, 100
2, 15471360, Note_on_c, 0, 50, 0
2, 15471360, Note_on_c, 0, 48, 100
2, 15471600, Note_on_c, 0, 48, 0
2, 15471600, Note_on_c, 0, 50, 100
2, 15471840, Note_on_c, 0, 50, 0
2, 15471840, Note_on_c, 0, 43, 100
2, 15472800, Note_on_c, 0, 43, 0
2, 15472800, Note_on_c, 0, 47, 100
2, 15473040, Note_on_c, 0, 47, 0
2, 15473040, Note_on_c, 0, 50, 100
2, 15473280, Note_on_c, 0, 50, 0
2, 15473280, Note_on_c, 0, 55, 100
2, 15474240, Note_on_c, 0, 55, 0
2, 15474240, Note_on_c, 0, 54, 100
2, 15474480, Note_on_c, 0, 54, 0
2, 15474480, Note_on_c, 0, 52, 100
2, 15474720, Note_on_c, 0, 52, 0
2, 15474720, Note_on_c, 0, 54, 100
2, 15474960, Note_on_c, 0, 54, 0
2, 15474960, Note_on_c, 0, 59, 100
2, 15475680, Note_on_c, 0, 59, 0
2, 15475680, Note_on_c, 0, 57, 100
2, 15475920, Note_on_c, 0, 57, 0
2, 15475920, Note_on_c, 0, 59, 100
2, 15476160, Note_on_c, 0, 59, 0
2, 15476160, Note_on_c, 0, 52, 100
2, 15476400, Note_on_c, 0, 52, 0
2, 15476400, Note_on_c, 0, 54, 100
2, 15477120, Note_on_c, 0, 54, 0
2, 15477120, Note_on_c, 0, 52, 100
2, 15477360, Note_on_c, 0, 52, 0
2, 15477360, Note_on_c, 0, 50, 100
2, 15477600, Note_on_c, 0, 50, 0
2, 15477600, Note_on_c, 0, 49, 100
2, 15477840, Note_on_c, 0, 49, 0
2, 15477840, Note_on_c, 0, 52, 100
2, 15478560, Note_on_c, 0, 52, 0
2, 15478560, Note_on_c, 0, 45, 100
2, 15478800, Note_on_c, 0, 45, 0
2, 15478800, Note_on_c, 0, 43, 100
2, 15479040, Note_on_c, 0, 43, 0
2, 15479040, Note_on_c, 0, 42, 100
2, 15479280, Note_on_c, 0, 42, 0
2, 15479280, Note_on_c, 0, 54, 100
2, 15479520, Note_on_c, 0, 54, 0
2, 15479520, Note_on_c, 0, 52, 100
2, 15479700, Note_on_c, 0, 52, 0
2, 15479700, Note_on_c, 0, 54, 100
2, 15479760, Note_on_c, 0, 54, 0
2, 15479760, Note_on_c, 0, 57, 100
2, 15480000, Note_on_c, 0, 57, 0
2, 15480000, Note_on_c, 0, 50, 100
2, 15480240, Note_on_c, 0, 50, 0
2, 15480240, Note_on_c, 0, 54, 100
2, 15480480, Note_on_c, 0, 54, 0
2, 15480480, Note_on_c, 0, 43, 100
2, 15480720, Note_on_c, 0, 43, 0
2, 15480720, Note_on_c, 0, 55, 100
2, 15480960, Note_on_c, 0, 55, 0
2, 15480960, Note_on_c, 0, 54, 100
2, 15481140, Note_on_c, 0, 54, 0
2, 15481140, Note_on_c, 0, 55, 100
2, 15481200, Note_on_c, 0, 55, 0
2, 15481200, Note_on_c, 0, 59, 100
2, 15481440, Note_on_c, 0, 59, 0
2, 15481440, Note_on_c, 0, 52, 100
2, 15481680, Note_on_c, 0, 52, 0
2, 15481680, Note_on_c, 0, 55, 100
2, 15481920, Note_on_c, 0, 55, 0
2, 15481920, Note_on_c, 0, 45, 100
2, 15482160, Note_on_c, 0, 45, 0
2, 15482160, Note_on_c, 0, 57, 100
2, 15482400, Note_on_c, 0, 57, 0
2, 15482400, Note_on_c, 0, 55, 100
2, 15482580, Note_on_c, 0, 55, 0
2, 15482580, Note_on_c, 0, 57, 100
2, 15483360, Note_on_c, 0, 57, 0
2, 15483360, Note_on_c, 0, 50, 100
2, 15483600, Note_on_c, 0, 50, 0
2, 15483600, Note_on_c, 0, 61, 100
2, 15484320, Note_on_c, 0, 61, 0
2, 15484320, Note_on_c, 0, 62, 100
2, 15485040, Note_on_c, 0, 62, 0
2, 15485040, Note_on_c, 0, 60, 100
2, 15485760, Note_on_c, 0, 60, 0
2, 15485760, Note_on_c, 0, 59, 100
2, 15485880, Note_on_c, 0, 59, 0
2, 15485880, Note_on_c, 0, 60, 100
2, 15486000, Note_on_c, 0, 60, 0
2, 15486000, Note_on_c, 0, 57, 100
2, 15486240, Note_on_c, 0, 57, 0
2, 15486240, Note_on_c, 0, 59, 100
2, 15486480, Note_on_c, 0, 59, 0
2, 15486480, Note_on_c, 0, 62, 100
2, 15487200, Note_on_c, 0, 62, 0
2, 15487200, Note_on_c, 0, 55, 100
2, 15487440, Note_on_c, 0, 55, 0
2, 15487440, Note_on_c, 0, 59, 100
2, 15487680, Note_on_c, 0, 59, 0
2, 15487680, Note_on_c, 0, 60, 100
2, 15487920, Note_on_c, 0, 60, 0
2, 15487920, Note_on_c, 0, 59, 100
2, 15488640, Note_on_c, 0, 59, 0
2, 15488640, Note_on_c, 0, 60, 100
2, 15488880, Note_on_c, 0, 60, 0
2, 15488880, Note_on_c, 0, 57, 100
2, 15489120, Note_on_c, 0, 57, 0
2, 15489120, Note_on_c, 0, 59, 100
2, 15489360, Note_on_c, 0, 59, 0
2, 15489360, Note_on_c, 0, 47, 100
2, 15490080, Note_on_c, 0, 47, 0
2, 15490080, Note_on_c, 0, 49, 100
2, 15490320, Note_on_c, 0, 49, 0
2, 15490320, Note_on_c, 0, 51, 100
2, 15490560, Note_on_c, 0, 51, 0
2, 15490560, Note_on_c, 0, 40, 100
2, 15490800, Note_on_c, 0, 40, 0
2, 15490800, Note_on_c, 0, 55, 100
2, 15491040, Note_on_c, 0, 55, 0
2, 15491040, Note_on_c, 0, 57, 100
2, 15491160, Note_on_c, 0, 57, 0
2, 15491160, Note_on_c, 0, 55, 100
2, 15491280, Note_on_c, 0, 55, 0
2, 15491280, Note_on_c, 0, 54, 100
2, 15491520, Note_on_c, 0, 54, 0
2, 15491520, Note_on_c, 0, 52, 100
2, 15491760, Note_on_c, 0, 52, 0
2, 15491760, Note_on_c, 0, 45, 100
2, 15492240, Note_on_c, 0, 45, 0
2, 15492240, Note_on_c, 0, 57, 100
2, 15492480, Note_on_c, 0, 57, 0
2, 15492480, Note_on_c, 0, 55, 100
2, 15492600, Note_on_c, 0, 55, 0
2, 15492600, Note_on_c, 0, 57, 100
2, 15492720, Note_on_c, 0, 57, 0
2, 15492720, Note_on_c, 0, 60, 100
2, 15492960, Note_on_c, 0, 60, 0
2, 15492960, Note_on_c, 0, 57, 100
2, 15493200, Note_on_c, 0, 57, 0
2, 15493200, Note_on_c, 0, 54, 100
2, 15493440, Note_on_c, 0, 54, 0
2, 15493440, Note_on_c, 0, 47, 100
2, 15493680, Note_on_c, 0, 47, 0
2, 15493680, Note_on_c, 0, 51, 100
2, 15493920, Note_on_c, 0, 51, 0
2, 15493920, Note_on_c, 0, 52, 100
2, 15494160, Note_on_c, 0, 52, 0
2, 15494160, Note_on_c, 0, 55, 100
2, 15494400, Note_on_c, 0, 55, 0
2, 15494400, Note_on_c, 0, 59, 100
2, 15494640, Note_on_c, 0, 59, 0
2, 15494640, Note_on_c, 0, 52, 100
2, 15495120, Note_on_c, 0, 52, 0
2, 15495120, Note_on_c, 0, 50, 100
2, 15496320, Note_on_c, 0, 50, 0
2, 15496320, Note_on_c, 0, 48, 100
2, 15496560, Note_on_c, 0, 48, 0
2, 15496560, Note_on_c, 0, 60, 100
2, 15497280, Note_on_c, 0, 60, 0
2, 15497280, Note_on_c, 0, 59, 100
2, 15497520, Note_on_c, 0, 59, 0
2, 15497520, Note_on_c, 0, 58, 100
2, 15497760, Note_on_c, 0, 58, 0
2, 15497760, Note_on_c, 0, 59, 100
2, 15498000, Note_on_c, 0, 59, 0
2, 15498000, Note_on_c, 0, 47, 100
2, 15498240, Note_on_c, 0, 47, 0
2, 15498240, Note_on_c, 0, 59, 100
2, 15498720, Note_on_c, 0, 59, 0
2, 15498720, Note_on_c, 0, 57, 100
2, 15498960, Note_on_c, 0, 57, 0
2, 15498960, Note_on_c, 0, 56, 100
2, 15499200, Note_on_c, 0, 56, 0
2, 15499200, Note_on_c, 0, 57, 100
2, 15499440, Note_on_c, 0, 57, 0
2, 15499440, Note_on_c, 0, 45, 100
2, 15501120, Note_on_c, 0, 45, 0
2, 15501120, Note_on_c, 0, 38, 100
2, 15501360, Note_on_c, 0, 38, 0
2, 15501360, Note_on_c, 0, 42, 100
2, 15501600, Note_on_c, 0, 42, 0
2, 15501600, Note_on_c, 0, 45, 100
2, 15501840, Note_on_c, 0, 45, 0
2, 15501840, Note_on_c, 0, 50, 100
2, 15502080, Note_on_c, 0, 50, 0
2, 15502080, Note_on_c, 0, 43, 100
2, 15502320, Note_on_c, 0, 43, 0
2, 15502320, Note_on_c, 0, 55, 100
2, 15502560, Note_on_c, 0, 55, 0
2, 15502560, Note_on_c, 0, 57, 100
2, 15502800, Note_on_c, 0, 57, 0
2, 15502800, Note_on_c, 0, 59, 100
2, 15503040, Note_on_c, 0, 59, 0
2, 15503040, Note_on_c, 0, 55, 100
2, 15503520, Note_on_c, 0, 55, 0
2, 15503520, Note_on_c, 0, 48, 100
2, 15503760, Note_on_c, 0, 48, 0
2, 15503760, Note_on_c, 0, 52, 100
2, 15504000, Note_on_c, 0, 52, 0
2, 15504000, Note_on_c, 0, 53, 100
2, 15504240, Note_on_c, 0, 53, 0
2, 15504240, Note_on_c, 0, 54, 100
2, 15504480, Note_on_c, 0, 54, 0
2, 15504480, Note_on_c, 0, 55, 100
2, 15504720, Note_on_c, 0, 55, 0
2, 15504720, Note_on_c, 0, 54, 100
2, 15504960, Note_on_c, 0, 54, 0
2, 15504960, Note_on_c, 0, 52, 100
2, 15505080, Note_on_c, 0, 52, 0
2, 15505080, Note_on_c, 0, 50, 100
2, 15505200, Note_on_c, 0, 50, 0
2, 15505200, Note_on_c, 0, 54, 100
2, 15505920, Note_on_c, 0, 54, 0
2, 15505920, Note_on_c, 0, 52, 100
2, 15506160, Note_on_c, 0, 52, 0
2, 15506160, Note_on_c, 0, 50, 100
2, 15506400, Note_on_c, 0, 50, 0
2, 15506400, Note_on_c, 0, 43, 100
2, 15506640, Note_on_c, 0, 43, 0
2, 15506640, Note_on_c, 0, 51, 100
2, 15507360, Note_on_c, 0, 51, 0
2, 15507360, Note_on_c, 0, 43, 100
2, 15507600, Note_on_c, 0, 43, 0
2, 15507600, Note_on_c, 0, 62, 100
2, 15508080, Note_on_c, 0, 62, 0
2, 15508080, Note_on_c, 0, 60, 100
2, 15508800, Note_on_c, 0, 60, 0
2, 15508800, Note_on_c, 0, 59, 100
2, 15508920, Note_on_c, 0, 59, 0
2, 15508920, Note_on_c, 0, 60, 100
2, 15509040, Note_on_c, 0, 60, 0
2, 15509040, Note_on_c, 0, 57, 100
2, 15509280, Note_on_c, 0, 57, 0
2, 15509280, Note_on_c, 0, 59, 100
2, 15509520, Note_on_c, 0, 59, 0
2, 15509520, Note_on_c, 0, 62, 100
2, 15510240, Note_on_c, 0, 62, 0
2, 15510240, Note_on_c, 0, 55, 100
2, 15510480, Note_on_c, 0, 55, 0
2, 15510480, Note_on_c, 0, 59, 100
2, 15510720, Note_on_c, 0, 59, 0
2, 15510720, Note_on_c, 0, 60, 100
2, 15510960, Note_on_c, 0, 60, 0
2, 15510960, Note_on_c, 0, 59, 100
2, 15511680, Note_on_c, 0, 59, 0
2, 15511680, Note_on_c, 0, 60, 100
2, 15511920, Note_on_c, 0, 60, 0
2, 15511920, Note_on_c, 0, 57, 100
2, 15512160, Note_on_c, 0, 57, 0
2, 15512160, Note_on_c, 0, 59, 100
2, 15512400, Note_on_c, 0, 59, 0
2, 15512400, Note_on_c, 0, 47, 100
2, 15513120, Note_on_c, 0, 47, 0
2, 15513120, Note_on_c, 0, 49, 100
2, 15513360, Note_on_c, 0, 49, 0
2, 15513360, Note_on_c, 0, 51, 100
2, 15513600, Note_on_c, 0, 51, 0
2, 15513600, Note_on_c, 0, 40, 100
2, 15513840, Note_on_c, 0, 40, 0
2, 15513840, Note_on_c, 0, 55, 100
2, 15514080, Note_on_c, 0, 55, 0
2, 15514080, Note_on_c, 0, 57, 100
2, 15514200, Note_on_c, 0, 57, 0
2, 15514200, Note_on_c, 0, 55, 100
2, 15514320, Note_on_c, 0, 55, 0
2, 15514320, Note_on_c, 0, 54, 100
2, 15514560, Note_on_c, 0, 54, 0
2, 15514560, Note_on_c, 0, 52, 100
2, 15514800, Note_on_c, 0, 52, 0
2, 15514800, Note_on_c, 0, 45, 100
2, 15515280, Note_on_c, 0, 45, 0
2, 15515280, Note_on_c, 0, 57, 100
2, 15515520, Note_on_c, 0, 57, 0
2, 15515520, Note_on_c, 0, 55, 100
2, 15515640, Note_on_c, 0, 55, 0
2, 15515640, Note_on_c, 0, 57, 100
2, 15515760, Note_on_c, 0, 57, 0
2, 15515760, Note_on_c, 0, 60, 100
2, 15516000, Note_on_c, 0, 60, 0
2, 15516000, Note_on_c, 0, 57, 100
2, 15516240, Note_on_c, 0, 57, 0
2, 15516240, Note_on_c, 0, 54, 100
2, 15516480, Note_on_c, 0, 54, 0
2, 15516480, Note_on_c, 0, 47, 100
2, 15516720, Note_on_c, 0, 47, 0
2, 15516720, Note_on_c, 0, 51, 100
2, 15516960, Note_on_c, 0, 51, 0
2, 15516960, Note_on_c, 0, 52, 100
2, 15517200, Note_on_c, 0, 52, 0
2, 15517200, Note_on_c, 0, 55, 100
2, 15517440, Note_on_c, 0, 55, 0
2, 15517440, Note_on_c, 0, 59, 100
2, 15517680, Note_on_c, 0, 59, 0
2, 15517680, Note_on_c, 0, 52, 100
2, 15518160, Note_on_c, 0, 52, 0
2, 15518160, Note_on_c, 0, 50, 100
2, 15519360, Note_on_c, 0, 50, 0
2, 15519360, Note_on_c, 0, 48, 100
2, 15519600, Note_on_c, 0, 48, 0
2, 15519600, Note_on_c, 0, 60, 100
2, 15520320, Note_on_c, 0, 60, 0
2, 15520320, Note_on_c, 0, 59, 100
2, 15520560, Note_on_c, 0, 59, 0
2, 15520560, Note_on_c, 0, 58, 100
2, 15520800, Note_on_c, 0, 58, 0
2, 15520800, Note_on_c, 0, 59, 100
2, 15521040, Note_on_c, 0, 59, 0
2, 15521040, Note_on_c, 0, 47, 100
2, 15521280, Note_on_c, 0, 47, 0
2, 15521280, Note_on_c, 0, 59, 100
2, 15521760, Note_on_c, 0, 59, 0
2, 15521760, Note_on_c, 0, 57, 100
2, 15522000, Note_on_c, 0, 57, 0
2, 15522000, Note_on_c, 0, 56, 100
2, 15522240, Note_on_c, 0, 56, 0
2, 15522240, Note_on_c, 0, 57, 100
2, 15522480, Note_on_c, 0, 57, 0
2, 15522480, Note_on_c, 0, 45, 100
2, 15524160, Note_on_c, 0, 45, 0
2, 15524160, Note_on_c, 0, 38, 100
2, 15524400, Note_on_c, 0, 38, 0
2, 15524400, Note_on_c, 0, 42, 100
2, 15524640, Note_on_c, 0, 42, 0
2, 15524640, Note_on_c, 0, 45, 100
2, 15524880, Note_on_c, 0, 45, 0
2, 15524880, Note_on_c, 0, 50, 100
2, 15525120, Note_on_c, 0, 50, 0
2, 15525120, Note_on_c, 0, 43, 100
2, 15525360, Note_on_c, 0, 43, 0
2, 15525360, Note_on_c, 0, 55, 100
2, 15525600, Note_on_c, 0, 55, 0
2, 15525600, Note_on_c, 0, 57, 100
2, 15525840, Note_on_c, 0, 57, 0
2, 15525840, Note_on_c, 0, 59, 100
2, 15526080, Note_on_c, 0, 59, 0
2, 15526080, Note_on_c, 0, 55, 100
2, 15526560, Note_on_c, 0, 55, 0
2, 15526560, Note_on_c, 0, 48, 100
2, 15526800, Note_on_c, 0, 48, 0
2, 15526800, Note_on_c, 0, 52, 100
2, 15527040, Note_on_c, 0, 52, 0
2, 15527040, Note_on_c, 0, 53, 100
2, 15527280, Note_on_c, 0, 53, 0
2, 15527280, Note_on_c, 0, 54, 100
2, 15527520, Note_on_c, 0, 54, 0
2, 15527520, Note_on_c, 0, 55, 100
2, 15527760, Note_on_c, 0, 55, 0
2, 15527760, Note_on_c, 0, 54, 100
2, 15528000, Note_on_c, 0, 54, 0
2, 15528000, Note_on_c, 0, 52, 100
2, 15528120, Note_on_c, 0, 52, 0
2, 15528120, Note_on_c, 0, 50, 100
2, 15528240, Note_on_c, 0, 50, 0
2, 15528240, Note_on_c, 0, 54, 100
2, 15528960, Note_on_c, 0, 54, 0
2, 15528960, Note_on_c, 0, 52, 100
2, 15529200, Note_on_c, 0, 52, 0
2, 15529200, Note_on_c, 0, 50, 100
2, 15529440, Note_on_c, 0, 50, 0
2, 15529440, Note_on_c, 0, 43, 100
2, 15529680, Note_on_c, 0, 43, 0
2, 15529680, Note_on_c, 0, 51, 100
2, 15530400, Note_on_c, 0, 51, 0
2, 15530400, Note_on_c, 0, 43, 100
2, 15530640, Note_on_c, 0, 43, 0
2, 15530640, Note_on_c, 0, 55, 100
2, 15623280, Note_on_c, 0, 55, 0
2, 15623280, Note_on_c, 0, 43, 100
2, 15623520, Note_on_c, 0, 43, 0
2, 15623520, Note_on_c, 0, 55, 100
2, 15624000, Note_on_c, 0, 55, 0
2, 15624000, Note_on_c, 0, 54, 100
2, 15624360, Note_on_c, 0, 54, 0
2, 15624360, Note_on_c, 0, 52, 100
2, 15624420, Note_on_c, 0, 52, 0
2, 15624420, Note_on_c, 0, 54, 100
2, 15624480, Note_on_c, 0, 54, 0
2, 15624480, Note_on_c, 0, 50, 100
2, 15624960, Note_on_c, 0, 50, 0
2, 15624960, Note_on_c, 0, 51, 100
2, 15625200, Note_on_c, 0, 51, 0
2, 15625200, Note_on_c, 0, 52, 100
2, 15625440, Note_on_c, 0, 52, 0
2, 15625440, Note_on_c, 0, 63, 100
2, 15625920, Note_on_c, 0, 63, 0
2, 15625920, Note_on_c, 0, 62, 100
2, 15626160, Note_on_c, 0, 62, 0
2, 15626160, Note_on_c, 0, 61, 100
2, 15626280, Note_on_c, 0, 61, 0
2, 15626280, Note_on_c, 0, 62, 100
2, 15626400, Note_on_c, 0, 62, 0
2, 15626400, Note_on_c, 0, 60, 100
2, 15626760, Note_on_c, 0, 60, 0
2, 15626760, Note_on_c, 0, 58, 100
2, 15626880, Note_on_c, 0, 58, 0
2, 15626880, Note_on_c, 0, 57, 100
2, 15627000, Note_on_c, 0, 57, 0
2, 15627000, Note_on_c, 0, 55, 100
2, 15627120, Note_on_c, 0, 55, 0
2, 15627120, Note_on_c, 0, 54, 100
2, 15627180, Note_on_c, 0, 54, 0
2, 15627180, Note_on_c, 0, 55, 100
2, 15627240, Note_on_c, 0, 55, 0
2, 15627240, Note_on_c, 0, 48, 100
2, 15627360, Note_on_c, 0, 48, 0
2, 15627360, Note_on_c, 0, 55, 100
2, 15627480, Note_on_c, 0, 55, 0
2, 15627480, Note_on_c, 0, 60, 100
2, 15627600, Note_on_c, 0, 60, 0
2, 15627600, Note_on_c, 0, 54, 100
2, 15627840, Note_on_c, 0, 54, 0
2, 15627840, Note_on_c, 0, 55, 100
2, 15628080, Note_on_c, 0, 55, 0
2, 15628080, Note_on_c, 0, 54, 100
2, 15628200, Note_on_c, 0, 54, 0
2, 15628200, Note_on_c, 0, 55, 100
2, 15628320, Note_on_c, 0, 55, 0
2, 15628320, Note_on_c, 0, 57, 100
2, 15628440, Note_on_c, 0, 57, 0
2, 15628440, Note_on_c, 0, 50, 100
2, 15628560, Note_on_c, 0, 50, 0
2, 15628560, Note_on_c, 0, 51, 100
2, 15628800, Note_on_c, 0, 51, 0
2, 15628800, Note_on_c, 0, 46, 100
2, 15629040, Note_on_c, 0, 46, 0
2, 15629040, Note_on_c, 0, 58, 100
2, 15629280, Note_on_c, 0, 58, 0
2, 15629280, Note_on_c, 0, 60, 100
2, 15629400, Note_on_c, 0, 60, 0
2, 15629400, Note_on_c, 0, 62, 100
2, 15629760, Note_on_c, 0, 62, 0
2, 15629760, Note_on_c, 0, 55, 100
2, 15630000, Note_on_c, 0, 55, 0
2, 15630000, Note_on_c, 0, 46, 100
2, 15630240, Note_on_c, 0, 46, 0
2, 15630240, Note_on_c, 0, 48, 100
2, 15630300, Note_on_c, 0, 48, 0
2, 15630300, Note_on_c, 0, 50, 100
2, 15630360, Note_on_c, 0, 50, 0
2, 15630360, Note_on_c, 0, 46, 100
2, 15630420, Note_on_c, 0, 46, 0
2, 15630420, Note_on_c, 0, 43, 100
2, 15630480, Note_on_c, 0, 43, 0
2, 15630480, Note_on_c, 0, 54, 100
2, 15631080, Note_on_c, 0, 54, 0
2, 15631080, Note_on_c, 0, 55, 100
2, 15631200, Note_on_c, 0, 55, 0
2, 15631200, Note_on_c, 0, 57, 100
2, 15631320, Note_on_c, 0, 57, 0
2, 15631320, Note_on_c, 0, 58, 100
2, 15631440, Note_on_c, 0, 58, 0
2, 15631440, Note_on_c, 0, 57, 100
2, 15631680, Note_on_c, 0, 57, 0
2, 15631680, Note_on_c, 0, 55, 100
2, 15631920, Note_on_c, 0, 55, 0
2, 15631920, Note_on_c, 0, 54, 100
2, 15632040, Note_on_c, 0, 54, 0
2, 15632040, Note_on_c, 0, 52, 100
2, 15632280, Note_on_c, 0, 52, 0
2, 15632280, Note_on_c, 0, 54, 100
2, 15632400, Note_on_c, 0, 54, 0
2, 15632400, Note_on_c, 0, 57, 100
2, 15632460, Note_on_c, 0, 57, 0
2, 15632460, Note_on_c, 0, 55, 100
2, 15632520, Note_on_c, 0, 55, 0
2, 15632520, Note_on_c, 0, 54, 100
2, 15632760, Note_on_c, 0, 54, 0
2, 15632760, Note_on_c, 0, 55, 100
2, 15632880, Note_on_c, 0, 55, 0
2, 15632880, Note_on_c, 0, 57, 100
2, 15633000, Note_on_c, 0, 57, 0
2, 15633000, Note_on_c, 0, 58, 100
2, 15633120, Note_on_c, 0, 58, 0
2, 15633120, Note_on_c, 0, 57, 100
2, 15633240, Note_on_c, 0, 57, 0
2, 15633240, Note_on_c, 0, 55, 100
2, 15633360, Note_on_c, 0, 55, 0
2, 15633360, Note_on_c, 0, 57, 100
2, 15633420, Note_on_c, 0, 57, 0
2, 15633420, Note_on_c, 0, 55, 100
2, 15633480, Note_on_c, 0, 55, 0
2, 15633480, Note_on_c, 0, 53, 100
2, 15633600, Note_on_c, 0, 53, 0
2, 15633600, Note_on_c, 0, 55, 100
2, 15633660, Note_on_c, 0, 55, 0
2, 15633660, Note_on_c, 0, 53, 100
2, 15633720, Note_on_c, 0, 53, 0
2, 15633720, Note_on_c, 0, 52, 100
2, 15633840, Note_on_c, 0, 52, 0
2, 15633840, Note_on_c, 0, 53, 100
2, 15633960, Note_on_c, 0, 53, 0
2, 15633960, Note_on_c, 0, 55, 100
2, 15634080, Note_on_c, 0, 55, 0
2, 15634080, Note_on_c, 0, 52, 100
2, 15634200, Note_on_c, 0, 52, 0
2, 15634200, Note_on_c, 0, 49, 100
2, 15634320, Note_on_c, 0, 49, 0
2, 15634320, Note_on_c, 0, 50, 100
2, 15634440, Note_on_c, 0, 50, 0
2, 15634440, Note_on_c, 0, 52, 100
2, 15634560, Note_on_c, 0, 52, 0
2, 15634560, Note_on_c, 0, 49, 100
2, 15634680, Note_on_c, 0, 49, 0
2, 15634680, Note_on_c, 0, 53, 100
2, 15634800, Note_on_c, 0, 53, 0
2, 15634800, Note_on_c, 0, 52, 100
2, 15634860, Note_on_c, 0, 52, 0
2, 15634860, Note_on_c, 0, 50, 100
2, 15634920, Note_on_c, 0, 50, 0
2, 15634920, Note_on_c, 0, 55, 100
2, 15635040, Note_on_c, 0, 55, 0
2, 15635040, Note_on_c, 0, 54, 100
2, 15635520, Note_on_c, 0, 54, 0
2, 15635520, Note_on_c, 0, 58, 100
2, 15635760, Note_on_c, 0, 58, 0
2, 15635760, Note_on_c, 0, 52, 100
2, 15636000, Note_on_c, 0, 52, 0
2, 15636000, Note_on_c, 0, 57, 100
2, 15636240, Note_on_c, 0, 57, 0
2, 15636240, Note_on_c, 0, 49, 100
2, 15636480, Note_on_c, 0, 49, 0
2, 15636480, Note_on_c, 0, 50, 100
2, 15636720, Note_on_c, 0, 50, 0
2, 15636720, Note_on_c, 0, 53, 100
2, 15636960, Note_on_c, 0, 53, 0
2, 15636960, Note_on_c, 0, 52, 100
2, 15637080, Note_on_c, 0, 52, 0
2, 15637080, Note_on_c, 0, 53, 100
2, 15637200, Note_on_c, 0, 53, 0
2, 15637200, Note_on_c, 0, 57, 100
2, 15637440, Note_on_c, 0, 57, 0
2, 15637440, Note_on_c, 0, 62, 100
2, 15637680, Note_on_c, 0, 62, 0
2, 15637680, Note_on_c, 0, 60, 100
2, 15637800, Note_on_c, 0, 60, 0
2, 15637800, Note_on_c, 0, 58, 100
2, 15637860, Note_on_c, 0, 58, 0
2, 15637860, Note_on_c, 0, 57, 100
2, 15637920, Note_on_c, 0, 57, 0
2, 15637920, Note_on_c, 0, 55, 100
2, 15637980, Note_on_c, 0, 55, 0
2, 15637980, Note_on_c, 0, 57, 100
2, 15638040, Note_on_c, 0, 57, 0
2, 15638040, Note_on_c, 0, 50, 100
2, 15638160, Note_on_c, 0, 50, 0
2, 15638160, Note_on_c, 0, 55, 100
2, 15638640, Note_on_c, 0, 55, 0
2, 15638640, Note_on_c, 0, 43, 100
2, 15638880, Note_on_c, 0, 43, 0
2, 15638880, Note_on_c, 0, 55, 100
2, 15639360, Note_on_c, 0, 55, 0
2, 15639360, Note_on_c, 0, 54, 100
2, 15639720, Note_on_c, 0, 54, 0
2, 15639720, Note_on_c, 0, 52, 100
2, 15639780, Note_on_c, 0, 52, 0
2, 15639780, Note_on_c, 0, 54, 100
2, 15639840, Note_on_c, 0, 54, 0
2, 15639840, Note_on_c, 0, 50, 100
2, 15640320, Note_on_c, 0, 50, 0
2, 15640320, Note_on_c, 0, 51, 100
2, 15640560, Note_on_c, 0, 51, 0
2, 15640560, Note_on_c, 0, 52, 100
2, 15640800, Note_on_c, 0, 52, 0
2, 15640800, Note_on_c, 0, 63, 100
2, 15641280, Note_on_c, 0, 63, 0
2, 15641280, Note_on_c, 0, 62, 100
2, 15641520, Note_on_c, 0, 62, 0
2, 15641520, Note_on_c, 0, 61, 100
2, 15641640, Note_on_c, 0, 61, 0
2, 15641640, Note_on_c, 0, 62, 100
2, 15641760, Note_on_c, 0, 62, 0
2, 15641760, Note_on_c, 0, 60, 100
2, 15642120, Note_on_c, 0, 60, 0
2, 15642120, Note_on_c, 0, 58, 100
2, 15642240, Note_on_c, 0, 58, 0
2, 15642240, Note_on_c, 0, 57, 100
2, 15642360, Note_on_c, 0, 57, 0
2, 15642360, Note_on_c, 0, 55, 100
2, 15642480, Note_on_c, 0, 55, 0
2, 15642480, Note_on_c, 0, 54, 100
2, 15642540, Note_on_c, 0, 54, 0
2, 15642540, Note_on_c, 0, 55, 100
2, 15642600, Note_on_c, 0, 55, 0
2, 15642600, Note_on_c, 0, 48, 100
2, 15642720, Note_on_c, 0, 48, 0
2, 15642720, Note_on_c, 0, 55, 100
2, 15642840, Note_on_c, 0, 55, 0
2, 15642840, Note_on_c, 0, 60, 100
2, 15642960, Note_on_c, 0, 60, 0
2, 15642960, Note_on_c, 0, 54, 100
2, 15643200, Note_on_c, 0, 54, 0
2, 15643200, Note_on_c, 0, 55, 100
2, 15643440, Note_on_c, 0, 55, 0
2, 15643440, Note_on_c, 0, 54, 100
2, 15643560, Note_on_c, 0, 54, 0
2, 15643560, Note_on_c, 0, 55, 100
2, 15643680, Note_on_c, 0, 55, 0
2, 15643680, Note_on_c, 0, 57, 100
2, 15643800, Note_on_c, 0, 57, 0
2, 15643800, Note_on_c, 0, 50, 100
2, 15643920, Note_on_c, 0, 50, 0
2, 15643920, Note_on_c, 0, 51, 100
2, 15644160, Note_on_c, 0, 51, 0
2, 15644160, Note_on_c, 0, 46, 100
2, 15644400, Note_on_c, 0, 46, 0
2, 15644400, Note_on_c, 0, 58, 100
2, 15644640, Note_on_c, 0, 58, 0
2, 15644640, Note_on_c, 0, 60, 100
2, 15644760, Note_on_c, 0, 60, 0
2, 15644760, Note_on_c, 0, 62, 100
2, 15645120, Note_on_c, 0, 62, 0
2, 15645120, Note_on_c, 0, 55, 100
2, 15645360, Note_on_c, 0, 55, 0
2, 15645360, Note_on_c, 0, 46, 100
2, 15645600, Note_on_c, 0, 46, 0
2, 15645600, Note_on_c, 0, 48, 100
2, 15645660, Note_on_c, 0, 48, 0
2, 15645660, Note_on_c, 0, 50, 100
2, 15645720, Note_on_c, 0, 50, 0
2, 15645720, Note_on_c, 0, 46, 100
2, 15645780, Note_on_c, 0, 46, 0
2, 15645780, Note_on_c, 0, 43, 100
2, 15645840, Note_on_c, 0, 43, 0
2, 15645840, Note_on_c, 0, 54, 100
2, 15646440, Note_on_c, 0, 54, 0
2, 15646440, Note_on_c, 0, 55, 100
2, 15646560, Note_on_c, 0, 55, 0
2, 15646560, Note_on_c, 0, 57, 100
2, 15646680, Note_on_c, 0, 57, 0
2, 15646680, Note_on_c, 0, 58, 100
2, 15646800, Note_on_c, 0, 58, 0
2, 15646800, Note_on_c, 0, 57, 100
2, 15647040, Note_on_c, 0, 57, 0
2, 15647040, Note_on_c, 0, 55, 100
2, 15647280, Note_on_c, 0, 55, 0
2, 15647280, Note_on_c, 0, 54, 100
2, 15647400, Note_on_c, 0, 54, 0
2, 15647400, Note_on_c, 0, 52, 100
2, 15647640, Note_on_c, 0, 52, 0
2, 15647640, Note_on_c, 0, 54, 100
2, 15647760, Note_on_c, 0, 54, 0
2, 15647760, Note_on_c, 0, 57, 100
2, 15647820, Note_on_c, 0, 57, 0
2, 15647820, Note_on_c, 0, 55, 100
2, 15647880, Note_on_c, 0, 55, 0
2, 15647880, Note_on_c, 0, 54, 100
2, 15648120, Note_on_c, 0, 54, 0
2, 15648120, Note_on_c, 0, 55, 100
2, 15648240, Note_on_c, 0, 55, 0
2, 15648240, Note_on_c, 0, 57, 100
2, 15648360, Note_on_c, 0, 57, 0
2, 15648360, Note_on_c, 0, 58, 100
2, 15648480, Note_on_c, 0, 58, 0
2, 15648480, Note_on_c, 0, 57, 100
2, 15648600, Note_on_c, 0, 57, 0
2, 15648600, Note_on_c, 0, 55, 100
2, 15648720, Note_on_c, 0, 55, 0
2, 15648720, Note_on_c, 0, 57, 100
2, 15648780, Note_on_c, 0, 57, 0
2, 15648780, Note_on_c, 0, 55, 100
2, 15648840, Note_on_c, 0, 55, 0
2, 15648840, Note_on_c, 0, 53, 100
2, 15648960, Note_on_c, 0, 53, 0
2, 15648960, Note_on_c, 0, 55, 100
2, 15649020, Note_on_c, 0, 55, 0
2, 15649020, Note_on_c, 0, 53, 100
2, 15649080, Note_on_c, 0, 53, 0
2, 15649080, Note_on_c, 0, 52, 100
2, 15649200, Note_on_c, 0, 52, 0
2, 15649200, Note_on_c, 0, 53, 100
2, 15649320, Note_on_c, 0, 53, 0
2, 15649320, Note_on_c, 0, 55, 100
2, 15649440, Note_on_c, 0, 55, 0
2, 15649440, Note_on_c, 0, 52, 100
2, 15649560, Note_on_c, 0, 52, 0
2, 15649560, Note_on_c, 0, 49, 100
2, 15649680, Note_on_c, 0, 49, 0
2, 15649680, Note_on_c, 0, 50, 100
2, 15649800, Note_on_c, 0, 50, 0
2, 15649800, Note_on_c, 0, 52, 100
2, 15649920, Note_on_c, 0, 52, 0
2, 15649920, Note_on_c, 0, 49, 100
2, 15650040, Note_on_c, 0, 49, 0
2, 15650040, Note_on_c, 0, 53, 100
2, 15650160, Note_on_c, 0, 53, 0
2, 15650160, Note_on_c, 0, 52, 100
2, 15650220, Note_on_c, 0, 52, 0
2, 15650220, Note_on_c, 0, 50, 100
2, 15650280, Note_on_c, 0, 50, 0
2, 15650280, Note_on_c, 0, 55, 100
2, 15650400, Note_on_c, 0, 55, 0
2, 15650400, Note_on_c, 0, 54, 100
2, 15650880, Note_on_c, 0, 54, 0
2, 15650880, Note_on_c, 0, 58, 100
2, 15651120, Note_on_c, 0, 58, 0
2, 15651120, Note_on_c, 0, 52, 100
2, 15651360, Note_on_c, 0, 52, 0
2, 15651360, Note_on_c, 0, 57, 100
2, 15651600, Note_on_c, 0, 57, 0
2, 15651600, Note_on_c, 0, 49, 100
2, 15651840, Note_on_c, 0, 49, 0
2, 15651840, Note_on_c, 0, 50, 100
2, 15652080, Note_on_c, 0, 50, 0
2, 15652080, Note_on_c, 0, 53, 100
2, 15652320, Note_on_c, 0, 53, 0
2, 15652320, Note_on_c, 0, 52, 100
2, 15652440, Note_on_c, 0, 52, 0
2, 15652440, Note_on_c, 0, 53, 100
2, 15652560, Note_on_c, 0, 53, 0
2, 15652560, Note_on_c, 0, 57, 100
2, 15652800, Note_on_c, 0, 57, 0
2, 15652800, Note_on_c, 0, 62, 100
2, 15653040, Note_on_c, 0, 62, 0
2, 15653040, Note_on_c, 0, 60, 100
2, 15653160, Note_on_c, 0, 60, 0
2, 15653160, Note_on_c, 0, 58, 100
2, 15653220, Note_on_c, 0, 58, 0
2, 15653220, Note_on_c, 0, 57, 100
2, 15653280, Note_on_c, 0, 57, 0
2, 15653280, Note_on_c, 0, 55, 100
2, 15653340, Note_on_c, 0, 55, 0
2, 15653340, Note_on_c, 0, 57, 100
2, 15653400, Note_on_c, 0, 57, 0
2, 15653400, Note_on_c, 0, 50, 100
2, 15654000, Note_on_c, 0, 50, 0
2, 15654000, Note_on_c, 0, 63, 100
2, 15654240, Note_on_c, 0, 63, 0
2, 15654240, Note_on_c, 0, 62, 100
2, 15654480, Note_on_c, 0, 62, 0
2, 15654480, Note_on_c, 0, 60, 100
2, 15654720, Note_on_c, 0, 60, 0
2, 15654720, Note_on_c, 0, 58, 100
2, 15654960, Note_on_c, 0, 58, 0
2, 15654960, Note_on_c, 0, 54, 100
2, 15655200, Note_on_c, 0, 54, 0
2, 15655200, Note_on_c, 0, 55, 100
2, 15655440, Note_on_c, 0, 55, 0
2, 15655440, Note_on_c, 0, 50, 100
2, 15655680, Note_on_c, 0, 50, 0
2, 15655680, Note_on_c, 0, 48, 100
2, 15656040, Note_on_c, 0, 48, 0
2, 15656040, Note_on_c, 0, 46, 100
2, 15656100, Note_on_c, 0, 46, 0
2, 15656100, Note_on_c, 0, 48, 100
2, 15656160, Note_on_c, 0, 48, 0
2, 15656160, Note_on_c, 0, 41, 100
2, 15656280, Note_on_c, 0, 41, 0
2, 15656280, Note_on_c, 0, 53, 100
2, 15656400, Note_on_c, 0, 53, 0
2, 15656400, Note_on_c, 0, 46, 100
2, 15656520, Note_on_c, 0, 46, 0
2, 15656520, Note_on_c, 0, 51, 100
2, 15656640, Note_on_c, 0, 51, 0
2, 15656640, Note_on_c, 0, 50, 100
2, 15657000, Note_on_c, 0, 50, 0
2, 15657000, Note_on_c, 0, 48, 100
2, 15657060, Note_on_c, 0, 48, 0
2, 15657060, Note_on_c, 0, 50, 100
2, 15657120, Note_on_c, 0, 50, 0
2, 15657120, Note_on_c, 0, 48, 100
2, 15657180, Note_on_c, 0, 48, 0
2, 15657180, Note_on_c, 0, 46, 100
2, 15657240, Note_on_c, 0, 46, 0
2, 15657240, Note_on_c, 0, 51, 100
2, 15657360, Note_on_c, 0, 51, 0
2, 15657360, Note_on_c, 0, 43, 100
2, 15657480, Note_on_c, 0, 43, 0
2, 15657480, Note_on_c, 0, 44, 100
2, 15657600, Note_on_c, 0, 44, 0
2, 15657600, Note_on_c, 0, 46, 100
2, 15657720, Note_on_c, 0, 46, 0
2, 15657720, Note_on_c, 0, 36, 100
2, 15657840, Note_on_c, 0, 36, 0
2, 15657840, Note_on_c, 0, 43, 100
2, 15657960, Note_on_c, 0, 43, 0
2, 15657960, Note_on_c, 0, 48, 100
2, 15658080, Note_on_c, 0, 48, 0
2, 15658080, Note_on_c, 0, 46, 100
2, 15658200, Note_on_c, 0, 46, 0
2, 15658200, Note_on_c, 0, 44, 100
2, 15658320, Note_on_c, 0, 44, 0
2, 15658320, Note_on_c, 0, 43, 100
2, 15658440, Note_on_c, 0, 43, 0
2, 15658440, Note_on_c, 0, 44, 100
2, 15658560, Note_on_c, 0, 44, 0
2, 15658560, Note_on_c, 0, 56, 100
2, 15658920, Note_on_c, 0, 56, 0
2, 15658920, Note_on_c, 0, 58, 100
2, 15659040, Note_on_c, 0, 58, 0
2, 15659040, Note_on_c, 0, 56, 100
2, 15659160, Note_on_c, 0, 56, 0
2, 15659160, Note_on_c, 0, 55, 100
2, 15659280, Note_on_c, 0, 55, 0
2, 15659280, Note_on_c, 0, 53, 100
2, 15659400, Note_on_c, 0, 53, 0
2, 15659400, Note_on_c, 0, 51, 100
2, 15659520, Note_on_c, 0, 51, 0
2, 15659520, Note_on_c, 0, 53, 100
2, 15659640, Note_on_c, 0, 53, 0
2, 15659640, Note_on_c, 0, 55, 100
2, 15659760, Note_on_c, 0, 55, 0
2, 15659760, Note_on_c, 0, 56, 100
2, 15659880, Note_on_c, 0, 56, 0
2, 15659880, Note_on_c, 0, 58, 100
2, 15660000, Note_on_c, 0, 58, 0
2, 15660000, Note_on_c, 0, 46, 100
2, 15660240, Note_on_c, 0, 46, 0
2, 15660240, Note_on_c, 0, 56, 100
2, 15660600, Note_on_c, 0, 56, 0
2, 15660600, Note_on_c, 0, 55, 100
2, 15660720, Note_on_c, 0, 55, 0
2, 15660720, Note_on_c, 0, 53, 100
2, 15660960, Note_on_c, 0, 53, 0
2, 15660960, Note_on_c, 0, 51, 100
2, 15661080, Note_on_c, 0, 51, 0
2, 15661080, Note_on_c, 0, 53, 100
2, 15661200, Note_on_c, 0, 53, 0
2, 15661200, Note_on_c, 0, 55, 100
2, 15661440, Note_on_c, 0, 55, 0
2, 15661440, Note_on_c, 0, 56, 100
2, 15661560, Note_on_c, 0, 56, 0
2, 15661560, Note_on_c, 0, 48, 100
2, 15661680, Note_on_c, 0, 48, 0
2, 15661680, Note_on_c, 0, 47, 100
2, 15661920, Note_on_c, 0, 47, 0
2, 15661920, Note_on_c, 0, 45, 100
2, 15662280, Note_on_c, 0, 45, 0
2, 15662280, Note_on_c, 0, 47, 100
2, 15662400, Note_on_c, 0, 47, 0
2, 15662400, Note_on_c, 0, 43, 100
2, 15662520, Note_on_c, 0, 43, 0
2, 15662520, Note_on_c, 0, 48, 100
2, 15662640, Note_on_c, 0, 48, 0
2, 15662640, Note_on_c, 0, 60, 100
2, 15662880, Note_on_c, 0, 60, 0
2, 15662880, Note_on_c, 0, 48, 100
2, 15663360, Note_on_c, 0, 48, 0
2, 15663360, Note_on_c, 0, 62, 100
2, 15663720, Note_on_c, 0, 62, 0
2, 15663720, Note_on_c, 0, 63, 100
2, 15663840, Note_on_c, 0, 63, 0
2, 15663840, Note_on_c, 0, 58, 100
2, 15663960, Note_on_c, 0, 58, 0
2, 15663960, Note_on_c, 0, 57, 100
2, 15664080, Note_on_c, 0, 57, 0
2, 15664080, Note_on_c, 0, 58, 100
2, 15664200, Note_on_c, 0, 58, 0
2, 15664200, Note_on_c, 0, 60, 100
2, 15664320, Note_on_c, 0, 60, 0
2, 15664320, Note_on_c, 0, 55, 100
2, 15664560, Note_on_c, 0, 55, 0
2, 15664560, Note_on_c, 0, 54, 100
2, 15664800, Note_on_c, 0, 54, 0
2, 15664800, Note_on_c, 0, 55, 100
2, 15664920, Note_on_c, 0, 55, 0
2, 15664920, Note_on_c, 0, 57, 100
2, 15665040, Note_on_c, 0, 57, 0
2, 15665040, Note_on_c, 0, 58, 100
2, 15665160, Note_on_c, 0, 58, 0
2, 15665160, Note_on_c, 0, 60, 100
2, 15665220, Note_on_c, 0, 60, 0
2, 15665220, Note_on_c, 0, 62, 100
2, 15665280, Note_on_c, 0, 62, 0
2, 15665280, Note_on_c, 0, 63, 100
2, 15665340, Note_on_c, 0, 63, 0
2, 15665340, Note_on_c, 0, 60, 100
2, 15665400, Note_on_c, 0, 60, 0
2, 15665400, Note_on_c, 0, 58, 100
2, 15665520, Note_on_c, 0, 58, 0
2, 15665520, Note_on_c, 0, 62, 100
2, 15665580, Note_on_c, 0, 62, 0
2, 15665580, Note_on_c, 0, 60, 100
2, 15665640, Note_on_c, 0, 60, 0
2, 15665640, Note_on_c, 0, 58, 100
2, 15665760, Note_on_c, 0, 58, 0
2, 15665760, Note_on_c, 0, 60, 100
2, 15665820, Note_on_c, 0, 60, 0
2, 15665820, Note_on_c, 0, 57, 100
2, 15665880, Note_on_c, 0, 57, 0
2, 15665880, Note_on_c, 0, 55, 100
2, 15666000, Note_on_c, 0, 55, 0
2, 15666000, Note_on_c, 0, 57, 100
2, 15666060, Note_on_c, 0, 57, 0
2, 15666060, Note_on_c, 0, 53, 100
2, 15666120, Note_on_c, 0, 53, 0
2, 15666120, Note_on_c, 0, 51, 100
2, 15666240, Note_on_c, 0, 51, 0
2, 15666240, Note_on_c, 0, 53, 100
2, 15666300, Note_on_c, 0, 53, 0
2, 15666300, Note_on_c, 0, 50, 100
2, 15666360, Note_on_c, 0, 50, 0
2, 15666360, Note_on_c, 0, 48, 100
2, 15666480, Note_on_c, 0, 48, 0
2, 15666480, Note_on_c, 0, 51, 100
2, 15666600, Note_on_c, 0, 51, 0
2, 15666600, Note_on_c, 0, 50, 100
2, 15666660, Note_on_c, 0, 50, 0
2, 15666660, Note_on_c, 0, 51, 100
2, 15666720, Note_on_c, 0, 51, 0
2, 15666720, Note_on_c, 0, 42, 100
2, 15666840, Note_on_c, 0, 42, 0
2, 15666840, Note_on_c, 0, 43, 100
2, 15666960, Note_on_c, 0, 43, 0
2, 15666960, Note_on_c, 0, 48, 100
2, 15667320, Note_on_c, 0, 48, 0
2, 15667320, Note_on_c, 0, 50, 100
2, 15667440, Note_on_c, 0, 50, 0
2, 15667440, Note_on_c, 0, 51, 100
2, 15667800, Note_on_c, 0, 51, 0
2, 15667800, Note_on_c, 0, 48, 100
2, 15667920, Note_on_c, 0, 48, 0
2, 15667920, Note_on_c, 0, 50, 100
2, 15668160, Note_on_c, 0, 50, 0
2, 15668160, Note_on_c, 0, 55, 100
2, 15668400, Note_on_c, 0, 55, 0
2, 15668400, Note_on_c, 0, 50, 100
2, 15668520, Note_on_c, 0, 50, 0
2, 15668520, Note_on_c, 0, 48, 100
2, 15668580, Note_on_c, 0, 48, 0
2, 15668580, Note_on_c, 0, 46, 100
2, 15668640, Note_on_c, 0, 46, 0
2, 15668640, Note_on_c, 0, 48, 100
2, 15668700, Note_on_c, 0, 48, 0
2, 15668700, Note_on_c, 0, 45, 100
2, 15668760, Note_on_c, 0, 45, 0
2, 15668760, Note_on_c, 0, 43, 100
2, 15668880, Note_on_c, 0, 43, 0
2, 15668880, Note_on_c, 0, 50, 100
2, 15669360, Note_on_c, 0, 50, 0
2, 15669360, Note_on_c, 0, 63, 100
2, 15669600, Note_on_c, 0, 63, 0
2, 15669600, Note_on_c, 0, 62, 100
2, 15669840, Note_on_c, 0, 62, 0
2, 15669840, Note_on_c, 0, 60, 100
2, 15670080, Note_on_c, 0, 60, 0
2, 15670080, Note_on_c, 0, 58, 100
2, 15670320, Note_on_c, 0, 58, 0
2, 15670320, Note_on_c, 0, 54, 100
2, 15670560, Note_on_c, 0, 54, 0
2, 15670560, Note_on_c, 0, 55, 100
2, 15670800, Note_on_c, 0, 55, 0
2, 15670800, Note_on_c, 0, 50, 100
2, 15671040, Note_on_c, 0, 50, 0
2, 15671040, Note_on_c, 0, 48, 100
2, 15671400, Note_on_c, 0, 48, 0
2, 15671400, Note_on_c, 0, 46, 100
2, 15671460, Note_on_c, 0, 46, 0
2, 15671460, Note_on_c, 0, 48, 100
2, 15671520, Note_on_c, 0, 48, 0
2, 15671520, Note_on_c, 0, 41, 100
2, 15671640, Note_on_c, 0, 41, 0
2, 15671640, Note_on_c, 0, 53, 100
2, 15671760, Note_on_c, 0, 53, 0
2, 15671760, Note_on_c, 0, 46, 100
2, 15671880, Note_on_c, 0, 46, 0
2, 15671880, Note_on_c, 0, 51, 100
2, 15672000, Note_on_c, 0, 51, 0
2, 15672000, Note_on_c, 0, 50, 100
2, 15672360, Note_on_c, 0, 50, 0
2, 15672360, Note_on_c, 0, 48, 100
2, 15672420, Note_on_c, 0, 48, 0
2, 15672420, Note_on_c, 0, 50, 100
2, 15672480, Note_on_c, 0, 50, 0
2, 15672480, Note_on_c, 0, 48, 100
2, 15672540, Note_on_c, 0, 48, 0
2, 15672540, Note_on_c, 0, 46, 100
2, 15672600, Note_on_c, 0, 46, 0
2, 15672600, Note_on_c, 0, 51, 100
2, 15672720, Note_on_c, 0, 51, 0
2, 15672720, Note_on_c, 0, 43, 100
2, 15672840, Note_on_c, 0, 43, 0
2, 15672840, Note_on_c, 0, 44, 100
2, 15672960, Note_on_c, 0, 44, 0
2, 15672960, Note_on_c, 0, 46, 100
2, 15673080, Note_on_c, 0, 46, 0
2, 15673080, Note_on_c, 0, 36, 100
2, 15673200, Note_on_c, 0, 36, 0
2, 15673200, Note_on_c, 0, 43, 100
2, 15673320, Note_on_c, 0, 43, 0
2, 15673320, Note_on_c, 0, 48, 100
2, 15673440, Note_on_c, 0, 48, 0
2, 15673440, Note_on_c, 0, 46, 100
2, 15673560, Note_on_c, 0, 46, 0
2, 15673560, Note_on_c, 0, 44, 100
2, 15673680, Note_on_c, 0, 44, 0
2, 15673680, Note_on_c, 0, 43, 100
2, 15673800, Note_on_c, 0, 43, 0
2, 15673800, Note_on_c, 0, 44, 100
2, 15673920, Note_on_c, 0, 44, 0
2, 15673920, Note_on_c, 0, 56, 100
2, 15674280, Note_on_c, 0, 56, 0
2, 15674280, Note_on_c, 0, 58, 100
2, 15674400, Note_on_c, 0, 58, 0
2, 15674400, Note_on_c, 0, 56, 100
2, 15674520, Note_on_c, 0, 56, 0
2, 15674520, Note_on_c, 0, 55, 100
2, 15674640, Note_on_c, 0, 55, 0
2, 15674640, Note_on_c, 0, 53, 100
2, 15674760, Note_on_c, 0, 53, 0
2, 15674760, Note_on_c, 0, 51, 100
2, 15674880, Note_on_c, 0, 51, 0
2, 15674880, Note_on_c, 0, 53, 100
2, 15675000, Note_on_c, 0, 53, 0
2, 15675000, Note_on_c, 0, 55, 100
2, 15675120, Note_on_c, 0, 55, 0
2, 15675120, Note_on_c, 0, 56, 100
2, 15675240, Note_on_c, 0, 56, 0
2, 15675240, Note_on_c, 0, 58, 100
2, 15675360, Note_on_c, 0, 58, 0
2, 15675360, Note_on_c, 0, 46, 100
2, 15675600, Note_on_c, 0, 46, 0
2, 15675600, Note_on_c, 0, 56, 100
2, 15675960, Note_on_c, 0, 56, 0
2, 15675960, Note_on_c, 0, 55, 100
2, 15676080, Note_on_c, 0, 55, 0
2, 15676080, Note_on_c, 0, 53, 100
2, 15676320, Note_on_c, 0, 53, 0
2, 15676320, Note_on_c, 0, 51, 100
2, 15676440, Note_on_c, 0, 51, 0
2, 15676440, Note_on_c, 0, 53, 100
2, 15676560, Note_on_c, 0, 53, 0
2, 15676560, Note_on_c, 0, 55, 100
2, 15676800, Note_on_c, 0, 55, 0
2, 15676800, Note_on_c, 0, 56, 100
2, 15676920, Note_on_c, 0, 56, 0
2, 15676920, Note_on_c, 0, 48, 100
2, 15677040, Note_on_c, 0, 48, 0
2, 15677040, Note_on_c, 0, 47, 100
2, 15677280, Note_on_c, 0, 47, 0
2, 15677280, Note_on_c, 0, 45, 100
2, 15677640, Note_on_c, 0, 45, 0
2, 15677640, Note_on_c, 0, 47, 100
2, 15677760, Note_on_c, 0, 47, 0
2, 15677760, Note_on_c, 0, 43, 100
2, 15677880, Note_on_c, 0, 43, 0
2, 15677880, Note_on_c, 0, 48, 100
2, 15678000, Note_on_c, 0, 48, 0
2, 15678000, Note_on_c, 0, 60, 100
2, 15678240, Note_on_c, 0, 60, 0
2, 15678240, Note_on_c, 0, 48, 100
2, 15678720, Note_on_c, 0, 48, 0
2, 15678720, Note_on_c, 0, 62, 100
2, 15679080, Note_on_c, 0, 62, 0
2, 15679080, Note_on_c, 0, 63, 100
2, 15679200, Note_on_c, 0, 63, 0
2, 15679200, Note_on_c, 0, 58, 100
2, 15679320, Note_on_c, 0, 58, 0
2, 15679320, Note_on_c, 0, 57, 100
2, 15679440, Note_on_c, 0, 57, 0
2, 15679440, Note_on_c, 0, 58, 100
2, 15679560, Note_on_c, 0, 58, 0
2, 15679560, Note_on_c, 0, 60, 100
2, 15679680, Note_on_c, 0, 60, 0
2, 15679680, Note_on_c, 0, 55, 100
2, 15679920, Note_on_c, 0, 55, 0
2, 15679920, Note_on_c, 0, 54, 100
2, 15680160, Note_on_c, 0, 54, 0
2, 15680160, Note_on_c, 0, 55, 100
2, 15680280, Note_on_c, 0, 55, 0
2, 15680280, Note_on_c, 0, 57, 100
2, 15680400, Note_on_c, 0, 57, 0
2, 15680400, Note_on_c, 0, 58, 100
2, 15680520, Note_on_c, 0, 58, 0
2, 15680520, Note_on_c, 0, 60, 100
2, 15680580, Note_on_c, 0, 60, 0
2, 15680580, Note_on_c, 0, 62, 100
2, 15680640, Note_on_c, 0, 62, 0
2, 15680640, Note_on_c, 0, 63, 100
2, 15680700, Note_on_c, 0, 63, 0
2, 15680700, Note_on_c, 0, 60, 100
2, 15680760, Note_on_c, 0, 60, 0
2, 15680760, Note_on_c, 0, 58, 100
2, 15680880, Note_on_c, 0, 58, 0
2, 15680880, Note_on_c, 0, 62, 100
2, 15680940, Note_on_c, 0, 62, 0
2, 15680940, Note_on_c, 0, 60, 100
2, 15681000, Note_on_c, 0, 60, 0
2, 15681000, Note_on_c, 0, 58, 100
2, 15681120, Note_on_c, 0, 58, 0
2, 15681120, Note_on_c, 0, 60, 100
2, 15681180, Note_on_c, 0, 60, 0
2, 15681180, Note_on_c, 0, 57, 100
2, 15681240, Note_on_c, 0, 57, 0
2, 15681240, Note_on_c, 0, 55, 100
2, 15681360, Note_on_c, 0, 55, 0
2, 15681360, Note_on_c, 0, 57, 100
2, 15681420, Note_on_c, 0, 57, 0
2, 15681420, Note_on_c, 0, 53, 100
2, 15681480, Note_on_c, 0, 53, 0
2, 15681480, Note_on_c, 0, 51, 100
2, 15681600, Note_on_c, 0, 51, 0
2, 15681600, Note_on_c, 0, 53, 100
2, 15681660, Note_on_c, 0, 53, 0
2, 15681660, Note_on_c, 0, 50, 100
2, 15681720, Note_on_c, 0, 50, 0
2, 15681720, Note_on_c, 0, 48, 100
2, 15681840, Note_on_c, 0, 48, 0
2, 15681840, Note_on_c, 0, 51, 100
2, 15681960, Note_on_c, 0, 51, 0
2, 15681960, Note_on_c, 0, 50, 100
2, 15682020, Note_on_c, 0, 50, 0
2, 15682020, Note_on_c, 0, 51, 100
2, 15682080, Note_on_c, 0, 51, 0
2, 15682080, Note_on_c, 0, 42, 100
2, 15682200, Note_on_c, 0, 42, 0
2, 15682200, Note_on_c, 0, 43, 100
2, 15682320, Note_on_c, 0, 43, 0
2, 15682320, Note_on_c, 0, 48, 100
2, 15682680, Note_on_c, 0, 48, 0
2, 15682680, Note_on_c, 0, 50, 100
2, 15682800, Note_on_c, 0, 50, 0
2, 15682800, Note_on_c, 0, 51, 100
2, 15683160, Note_on_c, 0, 51, 0
2, 15683160, Note_on_c, 0, 48, 100
2, 15683280, Note_on_c, 0, 48, 0
2, 15683280, Note_on_c, 0, 50, 100
2, 15683520, Note_on_c, 0, 50, 0
2, 15683520, Note_on_c, 0, 55, 100
2, 15683760, Note_on_c, 0, 55, 0
2, 15683760, Note_on_c, 0, 50, 100
2, 15683880, Note_on_c, 0, 50, 0
2, 15683880, Note_on_c, 0, 48, 100
2, 15683940, Note_on_c, 0, 48, 0
2, 15683940, Note_on_c, 0, 46, 100
2, 15684000, Note_on_c, 0, 46, 0
2, 15684000, Note_on_c, 0, 48, 100
2, 15684060, Note_on_c, 0, 48, 0
2, 15684060, Note_on_c, 0, 45, 100
2, 15684120, Note_on_c, 0, 45, 0
2, 15684120, Note_on_c, 0, 43, 100
2, 15684240, Note_on_c, 0, 43, 0
2, 15684240, Note_on_c, 0, 55, 100
2, 15884160, Note_on_c, 0, 55, 0
2, 15884160, Note_on_c, 0, 57, 100
2, 15884400, Note_on_c, 0, 57, 0
2, 15884400, Note_on_c, 0, 59, 100
2, 15884640, Note_on_c, 0, 59, 0
2, 15884640, Note_on_c, 0, 60, 100
2, 15885120, Note_on_c, 0, 60, 0
2, 15885120, Note_on_c, 0, 62, 100
2, 15885600, Note_on_c, 0, 62, 0
2, 15885600, Note_on_c, 0, 50, 100
2, 15886080, Note_on_c, 0, 50, 0
2, 15886080, Note_on_c, 0, 62, 100
2, 15886560, Note_on_c, 0, 62, 0
2, 15886560, Note_on_c, 0, 64, 100
2, 15888000, Note_on_c, 0, 64, 0
2, 15888000, Note_on_c, 0, 62, 100
2, 15888240, Note_on_c, 0, 62, 0
2, 15888240, Note_on_c, 0, 61, 100
2, 15888480, Note_on_c, 0, 61, 0
2, 15888480, Note_on_c, 0, 57, 100
2, 15888960, Note_on_c, 0, 57, 0
2, 15888960, Note_on_c, 0, 62, 100
2, 15889440, Note_on_c, 0, 62, 0
2, 15889440, Note_on_c, 0, 50, 100
2, 15889920, Note_on_c, 0, 50, 0
2, 15889920, Note_on_c, 0, 62, 100
2, 15890400, Note_on_c, 0, 62, 0
2, 15890400, Note_on_c, 0, 60, 100
2, 15891360, Note_on_c, 0, 60, 0
2, 15891360, Note_on_c, 0, 59, 100
2, 15891440, Note_on_c, 0, 59, 0
2, 15891440, Note_on_c, 0, 60, 100
2, 15891520, Note_on_c, 0, 60, 0
2, 15891520, Note_on_c, 0, 59, 100
2, 15891600, Note_on_c, 0, 59, 0
2, 15891600, Note_on_c, 0, 57, 100
2, 15891840, Note_on_c, 0, 57, 0
2, 15891840, Note_on_c, 0, 59, 100
2, 15892080, Note_on_c, 0, 59, 0
2, 15892080, Note_on_c, 0, 60, 100
2, 15892320, Note_on_c, 0, 60, 0
2, 15892320, Note_on_c, 0, 48, 100
2, 15892800, Note_on_c, 0, 48, 0
2, 15892800, Note_on_c, 0, 60, 100
2, 15893280, Note_on_c, 0, 60, 0
2, 15893280, Note_on_c, 0, 59, 100
2, 15893760, Note_on_c, 0, 59, 0
2, 15893760, Note_on_c, 0, 60, 100
2, 15894000, Note_on_c, 0, 60, 0
2, 15894000, Note_on_c, 0, 62, 100
2, 15894240, Note_on_c, 0, 62, 0
2, 15894240, Note_on_c, 0, 57, 100
2, 15894720, Note_on_c, 0, 57, 0
2, 15894720, Note_on_c, 0, 50, 100
2, 15895200, Note_on_c, 0, 50, 0
2, 15895200, Note_on_c, 0, 54, 100
2, 15895680, Note_on_c, 0, 54, 0
2, 15895680, Note_on_c, 0, 52, 100
2, 15895920, Note_on_c, 0, 52, 0
2, 15895920, Note_on_c, 0, 54, 100
2, 15896160, Note_on_c, 0, 54, 0
2, 15896160, Note_on_c, 0, 50, 100
2, 15896640, Note_on_c, 0, 50, 0
2, 15896640, Note_on_c, 0, 55, 100
2, 15897120, Note_on_c, 0, 55, 0
2, 15897120, Note_on_c, 0, 50, 100
2, 15897600, Note_on_c, 0, 50, 0
2, 15897600, Note_on_c, 0, 43, 100
2, 15898080, Note_on_c, 0, 43, 0
2, 15898080, Note_on_c, 0, 55, 100
2, 15898560, Note_on_c, 0, 55, 0
2, 15898560, Note_on_c, 0, 57, 100
2, 15898800, Note_on_c, 0, 57, 0
2, 15898800, Note_on_c, 0, 59, 100
2, 15899040, Note_on_c, 0, 59, 0
2, 15899040, Note_on_c, 0, 57, 100
2, 15899520, Note_on_c, 0, 57, 0
2, 15899520, Note_on_c, 0, 59, 100
2, 15899760, Note_on_c, 0, 59, 0
2, 15899760, Note_on_c, 0, 61, 100
2, 15900000, Note_on_c, 0, 61, 0
2, 15900000, Note_on_c, 0, 59, 100
2, 15900480, Note_on_c, 0, 59, 0
2, 15900480, Note_on_c, 0, 61, 100
2, 15900720, Note_on_c, 0, 61, 0
2, 15900720, Note_on_c, 0, 62, 100
2, 15900960, Note_on_c, 0, 62, 0
2, 15900960, Note_on_c, 0, 61, 100
2, 15901440, Note_on_c, 0, 61, 0
2, 15901440, Note_on_c, 0, 59, 100
2, 15901920, Note_on_c, 0, 59, 0
2, 15901920, Note_on_c, 0, 57, 100
2, 15902400, Note_on_c, 0, 57, 0
2, 15902400, Note_on_c, 0, 55, 100
2, 15902880, Note_on_c, 0, 55, 0
2, 15902880, Note_on_c, 0, 54, 100
2, 15903360, Note_on_c, 0, 54, 0
2, 15903360, Note_on_c, 0, 52, 100
2, 15903840, Note_on_c, 0, 52, 0
2, 15903840, Note_on_c, 0, 50, 100
2, 15904320, Note_on_c, 0, 50, 0
2, 15904320, Note_on_c, 0, 49, 100
2, 15904800, Note_on_c, 0, 49, 0
2, 15904800, Note_on_c, 0, 47, 100
2, 15905280, Note_on_c, 0, 47, 0
2, 15905280, Note_on_c, 0, 49, 100
2, 15905520, Note_on_c, 0, 49, 0
2, 15905520, Note_on_c, 0, 50, 100
2, 15905760, Note_on_c, 0, 50, 0
2, 15905760, Note_on_c, 0, 49, 100
2, 15906240, Note_on_c, 0, 49, 0
2, 15906240, Note_on_c, 0, 50, 100
2, 15906480, Note_on_c, 0, 50, 0
2, 15906480, Note_on_c, 0, 47, 100
2, 15906720, Note_on_c, 0, 47, 0
2, 15906720, Note_on_c, 0, 45, 100
2, 15907200, Note_on_c, 0, 45, 0
2, 15907200, Note_on_c, 0, 47, 100
2, 15907440, Note_on_c, 0, 47, 0
2, 15907440, Note_on_c, 0, 49, 100
2, 15907680, Note_on_c, 0, 49, 0
2, 15907680, Note_on_c, 0, 47, 100
2, 15908160, Note_on_c, 0, 47, 0
2, 15908160, Note_on_c, 0, 49, 100
2, 15908400, Note_on_c, 0, 49, 0
2, 15908400, Note_on_c, 0, 46, 100
2, 15908640, Note_on_c, 0, 46, 0
2, 15908640, Note_on_c, 0, 44, 100
2, 15909120, Note_on_c, 0, 44, 0
2, 15909120, Note_on_c, 0, 46, 100
2, 15909360, Note_on_c, 0, 46, 0
2, 15909360, Note_on_c, 0, 47, 100
2, 15909600, Note_on_c, 0, 47, 0
2, 15909600, Note_on_c, 0, 45, 100
2, 15909840, Note_on_c, 0, 45, 0
2, 15909840, Note_on_c, 0, 43, 100
2, 15910080, Note_on_c, 0, 43, 0
2, 15910080, Note_on_c, 0, 42, 100
2, 15910320, Note_on_c, 0, 42, 0
2, 15910320, Note_on_c, 0, 43, 100
2, 15910560, Note_on_c, 0, 43, 0
2, 15910560, Note_on_c, 0, 40, 100
2, 15911040, Note_on_c, 0, 40, 0
2, 15911040, Note_on_c, 0, 45, 100
2, 15911520, Note_on_c, 0, 45, 0
2, 15911520, Note_on_c, 0, 33, 100
2, 15912000, Note_on_c, 0, 33, 0
2, 15912000, Note_on_c, 0, 38, 100
2, 15912480, Note_on_c, 0, 38, 0
2, 15912480, Note_on_c, 0, 45, 100
2, 15912960, Note_on_c, 0, 45, 0
2, 15912960, Note_on_c, 0, 50, 100
2, 15913440, Note_on_c, 0, 50, 0
2, 15913440, Note_on_c, 0, 55, 100
2, 15914880, Note_on_c, 0, 55, 0
2, 15914880, Note_on_c, 0, 57, 100
2, 15915120, Note_on_c, 0, 57, 0
2, 15915120, Note_on_c, 0, 59, 100
2, 15915360, Note_on_c, 0, 59, 0
2, 15915360, Note_on_c, 0, 60, 100
2, 15915840, Note_on_c, 0, 60, 0
2, 15915840, Note_on_c, 0, 62, 100
2, 15916320, Note_on_c, 0, 62, 0
2, 15916320, Note_on_c, 0, 50, 100
2, 15916800, Note_on_c, 0, 50, 0
2, 15916800, Note_on_c, 0, 62, 100
2, 15917280, Note_on_c, 0, 62, 0
2, 15917280, Note_on_c, 0, 64, 100
2, 15918720, Note_on_c, 0, 64, 0
2, 15918720, Note_on_c, 0, 62, 100
2, 15918960, Note_on_c, 0, 62, 0
2, 15918960, Note_on_c, 0, 61, 100
2, 15919200, Note_on_c, 0, 61, 0
2, 15919200, Note_on_c, 0, 57, 100
2, 15919680, Note_on_c, 0, 57, 0
2, 15919680, Note_on_c, 0, 62, 100
2, 15920160, Note_on_c, 0, 62, 0
2, 15920160, Note_on_c, 0, 50, 100
2, 15920640, Note_on_c, 0, 50, 0
2, 15920640, Note_on_c, 0, 62, 100
2, 15921120, Note_on_c, 0, 62, 0
2, 15921120, Note_on_c, 0, 60, 100
2, 15922080, Note_on_c, 0, 60, 0
2, 15922080, Note_on_c, 0, 59, 100
2, 15922160, Note_on_c, 0, 59, 0
2, 15922160, Note_on_c, 0, 60, 100
2, 15922240, Note_on_c, 0, 60, 0
2, 15922240, Note_on_c, 0, 59, 100
2, 15922320, Note_on_c, 0, 59, 0
2, 15922320, Note_on_c, 0, 57, 100
2, 15922560, Note_on_c, 0, 57, 0
2, 15922560, Note_on_c, 0, 59, 100
2, 15922800, Note_on_c, 0, 59, 0
2, 15922800, Note_on_c, 0, 60, 100
2, 15923040, Note_on_c, 0, 60, 0
2, 15923040, Note_on_c, 0, 48, 100
2, 15923520, Note_on_c, 0, 48, 0
2, 15923520, Note_on_c, 0, 60, 100
2, 15924000, Note_on_c, 0, 60, 0
2, 15924000, Note_on_c, 0, 59, 100
2, 15924480, Note_on_c, 0, 59, 0
2, 15924480, Note_on_c, 0, 60, 100
2, 15924720, Note_on_c, 0, 60, 0
2, 15924720, Note_on_c, 0, 62, 100
2, 15924960, Note_on_c, 0, 62, 0
2, 15924960, Note_on_c, 0, 57, 100
2, 15925440, Note_on_c, 0, 57, 0
2, 15925440, Note_on_c, 0, 50, 100
2, 15925920, Note_on_c, 0, 50, 0
2, 15925920, Note_on_c, 0, 54, 100
2, 15926400, Note_on_c, 0, 54, 0
2, 15926400, Note_on_c, 0, 52, 100
2, 15926640, Note_on_c, 0, 52, 0
2, 15926640, Note_on_c, 0, 54, 100
2, 15926880, Note_on_c, 0, 54, 0
2, 15926880, Note_on_c, 0, 50, 100
2, 15927360, Note_on_c, 0, 50, 0
2, 15927360, Note_on_c, 0, 55, 100
2, 15927840, Note_on_c, 0, 55, 0
2, 15927840, Note_on_c, 0, 50, 100
2, 15928320, Note_on_c, 0, 50, 0
2, 15928320, Note_on_c, 0, 43, 100
2, 15928800, Note_on_c, 0, 43, 0
2, 15928800, Note_on_c, 0, 55, 100
2, 15929280, Note_on_c, 0, 55, 0
2, 15929280, Note_on_c, 0, 57, 100
2, 15929520, Note_on_c, 0, 57, 0
2, 15929520, Note_on_c, 0, 59, 100
2, 15929760, Note_on_c, 0, 59, 0
2, 15929760, Note_on_c, 0, 57, 100
2, 15930240, Note_on_c, 0, 57, 0
2, 15930240, Note_on_c, 0, 59, 100
2, 15930480, Note_on_c, 0, 59, 0
2, 15930480, Note_on_c, 0, 61, 100
2, 15930720, Note_on_c, 0, 61, 0
2, 15930720, Note_on_c, 0, 59, 100
2, 15931200, Note_on_c, 0, 59, 0
2, 15931200, Note_on_c, 0, 61, 100
2, 15931440, Note_on_c, 0, 61, 0
2, 15931440, Note_on_c, 0, 62, 100
2, 15931680, Note_on_c, 0, 62, 0
2, 15931680, Note_on_c, 0, 61, 100
2, 15932160, Note_on_c, 0, 61, 0
2, 15932160, Note_on_c, 0, 59, 100
2, 15932640, Note_on_c, 0, 59, 0
2, 15932640, Note_on_c, 0, 57, 100
2, 15933120, Note_on_c, 0, 57, 0
2, 15933120, Note_on_c, 0, 55, 100
2, 15933600, Note_on_c, 0, 55, 0
2, 15933600, Note_on_c, 0, 54, 100
2, 15934080, Note_on_c, 0, 54, 0
2, 15934080, Note_on_c, 0, 52, 100
2, 15934560, Note_on_c, 0, 52, 0
2, 15934560, Note_on_c, 0, 50, 100
2, 15935040, Note_on_c, 0, 50, 0
2, 15935040, Note_on_c, 0, 49, 100
2, 15935520, Note_on_c, 0, 49, 0
2, 15935520, Note_on_c, 0, 47, 100
2, 15936000, Note_on_c, 0, 47, 0
2, 15936000, Note_on_c, 0, 49, 100
2, 15936240, Note_on_c, 0, 49, 0
2, 15936240, Note_on_c, 0, 50, 100
2, 15936480, Note_on_c, 0, 50, 0
2, 15936480, Note_on_c, 0, 49, 100
2, 15936960, Note_on_c, 0, 49, 0
2, 15936960, Note_on_c, 0, 50, 100
2, 15937200, Note_on_c, 0, 50, 0
2, 15937200, Note_on_c, 0, 47, 100
2, 15937440, Note_on_c, 0, 47, 0
2, 15937440, Note_on_c, 0, 45, 100
2, 15937920, Note_on_c, 0, 45, 0
2, 15937920, Note_on_c, 0, 47, 100
2, 15938160, Note_on_c, 0, 47, 0
2, 15938160, Note_on_c, 0, 49, 100
2, 15938400, Note_on_c, 0, 49, 0
2, 15938400, Note_on_c, 0, 47, 100
2, 15938880, Note_on_c, 0, 47, 0
2, 15938880, Note_on_c, 0, 49, 100
2, 15939120, Note_on_c, 0, 49, 0
2, 15939120, Note_on_c, 0, 46, 100
2, 15939360, Note_on_c, 0, 46, 0
2, 15939360, Note_on_c, 0, 44, 100
2, 15939840, Note_on_c, 0, 44, 0
2, 15939840, Note_on_c, 0, 46, 100
2, 15940080, Note_on_c, 0, 46, 0
2, 15940080, Note_on_c, 0, 47, 100
2, 15940320, Note_on_c, 0, 47, 0
2, 15940320, Note_on_c, 0, 45, 100
2, 15940560, Note_on_c, 0, 45, 0
2, 15940560, Note_on_c, 0, 43, 100
2, 15940800, Note_on_c, 0, 43, 0
2, 15940800, Note_on_c, 0, 42, 100
2, 15941040, Note_on_c, 0, 42, 0
2, 15941040, Note_on_c, 0, 43, 100
2, 15941280, Note_on_c, 0, 43, 0
2, 15941280, Note_on_c, 0, 40, 100
2, 15941760, Note_on_c, 0, 40, 0
2, 15941760, Note_on_c, 0, 45, 100
2, 15942240, Note_on_c, 0, 45, 0
2, 15942240, Note_on_c, 0, 33, 100
2, 15942720, Note_on_c, 0, 33, 0
2, 15942720, Note_on_c, 0, 38, 100
2, 15943200, Note_on_c, 0, 38, 0
2, 15943200, Note_on_c, 0, 45, 100
2, 15943680, Note_on_c, 0, 45, 0
2, 15943680, Note_on_c, 0, 50, 100
2, 15945600, Note_on_c, 0, 50, 0
2, 15945600, Note_on_c, 0, 52, 100
2, 15945840, Note_on_c, 0, 52, 0
2, 15945840, Note_on_c, 0, 54, 100
2, 15946080, Note_on_c, 0, 54, 0
2, 15946080, Note_on_c, 0, 50, 100
2, 15946560, Note_on_c, 0, 50, 0
2, 15946560, Note_on_c, 0, 55, 100
2, 15947040, Note_on_c, 0, 55, 0
2, 15947040, Note_on_c, 0, 43, 100
2, 15947520, Note_on_c, 0, 43, 0
2, 15947520, Note_on_c, 0, 55, 100
2, 15948000, Note_on_c, 0, 55, 0
2, 15948000, Note_on_c, 0, 57, 100
2, 15948480, Note_on_c, 0, 57, 0
2, 15948480, Note_on_c, 0, 59, 100
2, 15948720, Note_on_c, 0, 59, 0
2, 15948720, Note_on_c, 0, 60, 100
2, 15948960, Note_on_c, 0, 60, 0
2, 15948960, Note_on_c, 0, 59, 100
2, 15949440, Note_on_c, 0, 59, 0
2, 15949440, Note_on_c, 0, 57, 100
2, 15949920, Note_on_c, 0, 57, 0
2, 15949920, Note_on_c, 0, 55, 100
2, 15950400, Note_on_c, 0, 55, 0
2, 15950400, Note_on_c, 0, 57, 100
2, 15950640, Note_on_c, 0, 57, 0
2, 15950640, Note_on_c, 0, 59, 100
2, 15950880, Note_on_c, 0, 59, 0
2, 15950880, Note_on_c, 0, 57, 100
2, 15951600, Note_on_c, 0, 57, 0
2, 15951600, Note_on_c, 0, 55, 100
2, 15951840, Note_on_c, 0, 55, 0
2, 15951840, Note_on_c, 0, 54, 100
2, 15952080, Note_on_c, 0, 54, 0
2, 15952080, Note_on_c, 0, 52, 100
2, 15952320, Note_on_c, 0, 52, 0
2, 15952320, Note_on_c, 0, 51, 100
2, 15952560, Note_on_c, 0, 51, 0
2, 15952560, Note_on_c, 0, 52, 100
2, 15952800, Note_on_c, 0, 52, 0
2, 15952800, Note_on_c, 0, 64, 100
2, 15953280, Note_on_c, 0, 64, 0
2, 15953280, Note_on_c, 0, 62, 100
2, 15953520, Note_on_c, 0, 62, 0
2, 15953520, Note_on_c, 0, 60, 100
2, 15953760, Note_on_c, 0, 60, 0
2, 15953760, Note_on_c, 0, 59, 100
2, 15954240, Note_on_c, 0, 59, 0
2, 15954240, Note_on_c, 0, 57, 100
2, 15954720, Note_on_c, 0, 57, 0
2, 15954720, Note_on_c, 0, 59, 100
2, 15955200, Note_on_c, 0, 59, 0
2, 15955200, Note_on_c, 0, 60, 100
2, 15955440, Note_on_c, 0, 60, 0
2, 15955440, Note_on_c, 0, 54, 100
2, 15955680, Note_on_c, 0, 54, 0
2, 15955680, Note_on_c, 0, 55, 100
2, 15956160, Note_on_c, 0, 55, 0
2, 15956160, Note_on_c, 0, 57, 100
2, 15956400, Note_on_c, 0, 57, 0
2, 15956400, Note_on_c, 0, 51, 100
2, 15956640, Note_on_c, 0, 51, 0
2, 15956640, Note_on_c, 0, 52, 100
2, 15957120, Note_on_c, 0, 52, 0
2, 15957120, Note_on_c, 0, 54, 100
2, 15957360, Note_on_c, 0, 54, 0
2, 15957360, Note_on_c, 0, 47, 100
2, 15957600, Note_on_c, 0, 47, 0
2, 15957600, Note_on_c, 0, 49, 100
2, 15958080, Note_on_c, 0, 49, 0
2, 15958080, Note_on_c, 0, 51, 100
2, 15958320, Note_on_c, 0, 51, 0
2, 15958320, Note_on_c, 0, 52, 100
2, 15958560, Note_on_c, 0, 52, 0
2, 15958560, Note_on_c, 0, 64, 100
2, 15959040, Note_on_c, 0, 64, 0
2, 15959040, Note_on_c, 0, 63, 100
2, 15959280, Note_on_c, 0, 63, 0
2, 15959280, Note_on_c, 0, 64, 100
2, 15959520, Note_on_c, 0, 64, 0
2, 15959520, Note_on_c, 0, 66, 100
2, 15960000, Note_on_c, 0, 66, 0
2, 15960000, Note_on_c, 0, 67, 100
2, 15960240, Note_on_c, 0, 67, 0
2, 15960240, Note_on_c, 0, 69, 100
2, 15960480, Note_on_c, 0, 69, 0
2, 15960480, Note_on_c, 0, 67, 100
2, 15960960, Note_on_c, 0, 67, 0
2, 15960960, Note_on_c, 0, 69, 100
2, 15961200, Note_on_c, 0, 69, 0
2, 15961200, Note_on_c, 0, 66, 100
2, 15961440, Note_on_c, 0, 66, 0
2, 15961440, Note_on_c, 0, 64, 100
2, 15961920, Note_on_c, 0, 64, 0
2, 15961920, Note_on_c, 0, 66, 100
2, 15962160, Note_on_c, 0, 66, 0
2, 15962160, Note_on_c, 0, 67, 100
2, 15962400, Note_on_c, 0, 67, 0
2, 15962400, Note_on_c, 0, 66, 100
2, 15962880, Note_on_c, 0, 66, 0
2, 15962880, Note_on_c, 0, 64, 100
2, 15963360, Note_on_c, 0, 64, 0
2, 15963360, Note_on_c, 0, 62, 100
2, 15963840, Note_on_c, 0, 62, 0
2, 15963840, Note_on_c, 0, 60, 100
2, 15964320, Note_on_c, 0, 60, 0
2, 15964320, Note_on_c, 0, 59, 100
2, 15964800, Note_on_c, 0, 59, 0
2, 15964800, Note_on_c, 0, 57, 100
2, 15965280, Note_on_c, 0, 57, 0
2, 15965280, Note_on_c, 0, 55, 100
2, 15965760, Note_on_c, 0, 55, 0
2, 15965760, Note_on_c, 0, 54, 100
2, 15966240, Note_on_c, 0, 54, 0
2, 15966240, Note_on_c, 0, 52, 100
2, 15966720, Note_on_c, 0, 52, 0
2, 15966720, Note_on_c, 0, 54, 100
2, 15966960, Note_on_c, 0, 54, 0
2, 15966960, Note_on_c, 0, 55, 100
2, 15967200, Note_on_c, 0, 55, 0
2, 15967200, Note_on_c, 0, 54, 100
2, 15967680, Note_on_c, 0, 54, 0
2, 15967680, Note_on_c, 0, 55, 100
2, 15967920, Note_on_c, 0, 55, 0
2, 15967920, Note_on_c, 0, 52, 100
2, 15968160, Note_on_c, 0, 52, 0
2, 15968160, Note_on_c, 0, 50, 100
2, 15968640, Note_on_c, 0, 50, 0
2, 15968640, Note_on_c, 0, 52, 100
2, 15968880, Note_on_c, 0, 52, 0
2, 15968880, Note_on_c, 0, 54, 100
2, 15969120, Note_on_c, 0, 54, 0
2, 15969120, Note_on_c, 0, 52, 100
2, 15969600, Note_on_c, 0, 52, 0
2, 15969600, Note_on_c, 0, 54, 100
2, 15969840, Note_on_c, 0, 54, 0
2, 15969840, Note_on_c, 0, 51, 100
2, 15970080, Note_on_c, 0, 51, 0
2, 15970080, Note_on_c, 0, 49, 100
2, 15970560, Note_on_c, 0, 49, 0
2, 15970560, Note_on_c, 0, 51, 100
2, 15970800, Note_on_c, 0, 51, 0
2, 15970800, Note_on_c, 0, 52, 100
2, 15971040, Note_on_c, 0, 52, 0
2, 15971040, Note_on_c, 0, 50, 100
2, 15971280, Note_on_c, 0, 50, 0
2, 15971280, Note_on_c, 0, 48, 100
2, 15971520, Note_on_c, 0, 48, 0
2, 15971520, Note_on_c, 0, 47, 100
2, 15971760, Note_on_c, 0, 47, 0
2, 15971760, Note_on_c, 0, 48, 100
2, 15972000, Note_on_c, 0, 48, 0
2, 15972000, Note_on_c, 0, 45, 100
2, 15972480, Note_on_c, 0, 45, 0
2, 15972480, Note_on_c, 0, 50, 100
2, 15972960, Note_on_c, 0, 50, 0
2, 15972960, Note_on_c, 0, 38, 100
2, 15973440, Note_on_c, 0, 38, 0
2, 15973440, Note_on_c, 0, 43, 100
2, 15973920, Note_on_c, 0, 43, 0
2, 15973920, Note_on_c, 0, 50, 100
2, 15974400, Note_on_c, 0, 50, 0
2, 15974400, Note_on_c, 0, 55, 100
2, 15974880, Note_on_c, 0, 55, 0
2, 15974880, Note_on_c, 0, 50, 100
2, 15976320, Note_on_c, 0, 50, 0
2, 15976320, Note_on_c, 0, 52, 100
2, 15976560, Note_on_c, 0, 52, 0
2, 15976560, Note_on_c, 0, 54, 100
2, 15976800, Note_on_c, 0, 54, 0
2, 15976800, Note_on_c, 0, 50, 100
2, 15977280, Note_on_c, 0, 50, 0
2, 15977280, Note_on_c, 0, 55, 100
2, 15977760, Note_on_c, 0, 55, 0
2, 15977760, Note_on_c, 0, 43, 100
2, 15978240, Note_on_c, 0, 43, 0
2, 15978240, Note_on_c, 0, 55, 100
2, 15978720, Note_on_c, 0, 55, 0
2, 15978720, Note_on_c, 0, 57, 100
2, 15979200, Note_on_c, 0, 57, 0
2, 15979200, Note_on_c, 0, 59, 100
2, 15979440, Note_on_c, 0, 59, 0
2, 15979440, Note_on_c, 0, 60, 100
2, 15979680, Note_on_c, 0, 60, 0
2, 15979680, Note_on_c, 0, 59, 100
2, 15980160, Note_on_c, 0, 59, 0
2, 15980160, Note_on_c, 0, 57, 100
2, 15980640, Note_on_c, 0, 57, 0
2, 15980640, Note_on_c, 0, 55, 100
2, 15981120, Note_on_c, 0, 55, 0
2, 15981120, Note_on_c, 0, 57, 100
2, 15981360, Note_on_c, 0, 57, 0
2, 15981360, Note_on_c, 0, 59, 100
2, 15981600, Note_on_c, 0, 59, 0
2, 15981600, Note_on_c, 0, 57, 100
2, 15982320, Note_on_c, 0, 57, 0
2, 15982320, Note_on_c, 0, 55, 100
2, 15982560, Note_on_c, 0, 55, 0
2, 15982560, Note_on_c, 0, 54, 100
2, 15982800, Note_on_c, 0, 54, 0
2, 15982800, Note_on_c, 0, 52, 100
2, 15983040, Note_on_c, 0, 52, 0
2, 15983040, Note_on_c, 0, 51, 100
2, 15983280, Note_on_c, 0, 51, 0
2, 15983280, Note_on_c, 0, 52, 100
2, 15983520, Note_on_c, 0, 52, 0
2, 15983520, Note_on_c, 0, 64, 100
2, 15984000, Note_on_c, 0, 64, 0
2, 15984000, Note_on_c, 0, 62, 100
2, 15984240, Note_on_c, 0, 62, 0
2, 15984240, Note_on_c, 0, 60, 100
2, 15984480, Note_on_c, 0, 60, 0
2, 15984480, Note_on_c, 0, 59, 100
2, 15984960, Note_on_c, 0, 59, 0
2, 15984960, Note_on_c, 0, 57, 100
2, 15985440, Note_on_c, 0, 57, 0
2, 15985440, Note_on_c, 0, 59, 100
2, 15985920, Note_on_c, 0, 59, 0
2, 15985920, Note_on_c, 0, 60, 100
2, 15986160, Note_on_c, 0, 60, 0
2, 15986160, Note_on_c, 0, 54, 100
2, 15986400, Note_on_c, 0, 54, 0
2, 15986400, Note_on_c, 0, 55, 100
2, 15986880, Note_on_c, 0, 55, 0
2, 15986880, Note_on_c, 0, 57, 100
2, 15987120, Note_on_c, 0, 57, 0
2, 15987120, Note_on_c, 0, 51, 100
2, 15987360, Note_on_c, 0, 51, 0
2, 15987360, Note_on_c, 0, 52, 100
2, 15987840, Note_on_c, 0, 52, 0
2, 15987840, Note_on_c, 0, 54, 100
2, 15988080, Note_on_c, 0, 54, 0
2, 15988080, Note_on_c, 0, 47, 100
2, 15988320, Note_on_c, 0, 47, 0
2, 15988320, Note_on_c, 0, 49, 100
2, 15988800, Note_on_c, 0, 49, 0
2, 15988800, Note_on_c, 0, 51, 100
2, 15989040, Note_on_c, 0, 51, 0
2, 15989040, Note_on_c, 0, 52, 100
2, 15989280, Note_on_c, 0, 52, 0
2, 15989280, Note_on_c, 0, 64, 100
2, 15989760, Note_on_c, 0, 64, 0
2, 15989760, Note_on_c, 0, 63, 100
2, 15990000, Note_on_c, 0, 63, 0
2, 15990000, Note_on_c, 0, 64, 100
2, 15990240, Note_on_c, 0, 64, 0
2, 15990240, Note_on_c, 0, 66, 100
2, 15990720, Note_on_c, 0, 66, 0
2, 15990720, Note_on_c, 0, 67, 100
2, 15990960, Note_on_c, 0, 67, 0
2, 15990960, Note_on_c, 0, 69, 100
2, 15991200, Note_on_c, 0, 69, 0
2, 15991200, Note_on_c, 0, 67, 100
2, 15991680, Note_on_c, 0, 67, 0
2, 15991680, Note_on_c, 0, 69, 100
2, 15991920, Note_on_c, 0, 69, 0
2, 15991920, Note_on_c, 0, 66, 100
2, 15992160, Note_on_c, 0, 66, 0
2, 15992160, Note_on_c, 0, 64, 100
2, 15992640, Note_on_c, 0, 64, 0
2, 15992640, Note_on_c, 0, 66, 100
2, 15992880, Note_on_c, 0, 66, 0
2, 15992880, Note_on_c, 0, 67, 100
2, 15993120, Note_on_c, 0, 67, 0
2, 15993120, Note_on_c, 0, 66, 100
2, 15993600, Note_on_c, 0, 66, 0
2, 15993600, Note_on_c, 0, 64, 100
2, 15994080, Note_on_c, 0, 64, 0
2, 15994080, Note_on_c, 0, 62, 100
2, 15994560, Note_on_c, 0, 62, 0
2, 15994560, Note_on_c, 0, 60, 100
2, 15995040, Note_on_c, 0, 60, 0
2, 15995040, Note_on_c, 0, 59, 100
2, 15995520, Note_on_c, 0, 59, 0
2, 15995520, Note_on_c, 0, 57, 100
2, 15996000, Note_on_c, 0, 57, 0
2, 15996000, Note_on_c, 0, 55, 100
2, 15996480, Note_on_c, 0, 55, 0
2, 15996480, Note_on_c, 0, 54, 100
2, 15996960, Note_on_c, 0, 54, 0
2, 15996960, Note_on_c, 0, 52, 100
2, 15997440, Note_on_c, 0, 52, 0
2, 15997440, Note_on_c, 0, 54, 100
2, 15997680, Note_on_c, 0, 54, 0
2, 15997680, Note_on_c, 0, 55, 100
2, 15997920, Note_on_c, 0, 55, 0
2, 15997920, Note_on_c, 0, 54, 100
2, 15998400, Note_on_c, 0, 54, 0
2, 15998400, Note_on_c, 0, 55, 100
2, 15998640, Note_on_c, 0, 55, 0
2, 15998640, Note_on_c, 0, 52, 100
2, 15998880, Note_on_c, 0, 52, 0
2, 15998880, Note_on_c, 0, 50, 100
2, 15999360, Note_on_c, 0, 50, 0
2, 15999360, Note_on_c, 0, 52, 100
2, 15999600, Note_on_c, 0, 52, 0
2, 15999600, Note_on_c, 0, 54, 100
2, 15999840, Note_on_c, 0, 54, 0
2, 15999840, Note_on_c, 0, 52, 100
2, 16000320, Note_on_c, 0, 52, 0
2, 16000320, Note_on_c, 0, 54, 100
2, 16000560, Note_on_c, 0, 54, 0
2, 16000560, Note_on_c, 0, 51, 100
2, 16000800, Note_on_c, 0, 51, 0
2, 16000800, Note_on_c, 0, 49, 100
2, 16001280, Note_on_c, 0, 49, 0
2, 16001280, Note_on_c, 0, 51, 100
2, 16001520, Note_on_c, 0, 51, 0
2, 16001520, Note_on_c, 0, 52, 100
2, 16001760, Note_on_c, 0, 52, 0
2, 16001760, Note_on_c, 0, 50, 100
2, 16002000, Note_on_c, 0, 50, 0
2, 16002000, Note_on_c, 0, 48, 100
2, 16002240, Note_on_c, 0, 48, 0
2, 16002240, Note_on_c, 0, 47, 100
2, 16002480, Note_on_c, 0, 47, 0
2, 16002480, Note_on_c, 0, 48, 100
2, 16002720, Note_on_c, 0, 48, 0
2, 16002720, Note_on_c, 0, 45, 100
2, 16003200, Note_on_c, 0, 45, 0
2, 16003200, Note_on_c, 0, 50, 100
2, 16003680, Note_on_c, 0, 50, 0
2, 16003680, Note_on_c, 0, 38, 100
2, 16004160, Note_on_c, 0, 38, 0
2, 16004160, Note_on_c, 0, 43, 100
2, 16004640, Note_on_c, 0, 43, 0
2, 16004640, Note_on_c, 0, 50, 100
2, 16005120, Note_on_c, 0, 50, 0
2, 16005120, Note_on_c, 0, 55, 100
2, 16006560, Note_on_c, 0, 55, 0
2, 16006560, Note_on_c, 0, 43, 100
2, 16006800, Note_on_c, 0, 43, 0
2, 16006800, Note_on_c, 0, 55, 100
2, 16007040, Note_on_c, 0, 55, 0
2, 16007040, Note_on_c, 0, 54, 100
2, 16007280, Note_on_c, 0, 54, 0
2, 16007280, Note_on_c, 0, 42, 100
2, 16007520, Note_on_c, 0, 42, 0
2, 16007520, Note_on_c, 0, 54, 100
2, 16007760, Note_on_c, 0, 54, 0
2, 16007760, Note_on_c, 0, 52, 100
2, 16008000, Note_on_c, 0, 52, 0
2, 16008000, Note_on_c, 0, 40, 100
2, 16008240, Note_on_c, 0, 40, 0
2, 16008240, Note_on_c, 0, 52, 100
2, 16008480, Note_on_c, 0, 52, 0
2, 16008480, Note_on_c, 0, 50, 100
2, 16008720, Note_on_c, 0, 50, 0
2, 16008720, Note_on_c, 0, 38, 100
2, 16008960, Note_on_c, 0, 38, 0
2, 16008960, Note_on_c, 0, 48, 100
2, 16009200, Note_on_c, 0, 48, 0
2, 16009200, Note_on_c, 0, 47, 100
2, 16009440, Note_on_c, 0, 47, 0
2, 16009440, Note_on_c, 0, 59, 100
2, 16009680, Note_on_c, 0, 59, 0
2, 16009680, Note_on_c, 0, 55, 100
2, 16009920, Note_on_c, 0, 55, 0
2, 16009920, Note_on_c, 0, 60, 100
2, 16010160, Note_on_c, 0, 60, 0
2, 16010160, Note_on_c, 0, 48, 100
2, 16010400, Note_on_c, 0, 48, 0
2, 16010400, Note_on_c, 0, 60, 100
2, 16010640, Note_on_c, 0, 60, 0
2, 16010640, Note_on_c, 0, 59, 100
2, 16010880, Note_on_c, 0, 59, 0
2, 16010880, Note_on_c, 0, 57, 100
2, 16011000, Note_on_c, 0, 57, 0
2, 16011000, Note_on_c, 0, 55, 100
2, 16011120, Note_on_c, 0, 55, 0
2, 16011120, Note_on_c, 0, 57, 100
2, 16011240, Note_on_c, 0, 57, 0
2, 16011240, Note_on_c, 0, 59, 100
2, 16011360, Note_on_c, 0, 59, 0
2, 16011360, Note_on_c, 0, 55, 100
2, 16011600, Note_on_c, 0, 55, 0
2, 16011600, Note_on_c, 0, 43, 100
2, 16011840, Note_on_c, 0, 43, 0
2, 16011840, Note_on_c, 0, 50, 100
2, 16011960, Note_on_c, 0, 50, 0
2, 16011960, Note_on_c, 0, 55, 100
2, 16012080, Note_on_c, 0, 55, 0
2, 16012080, Note_on_c, 0, 57, 100
2, 16012200, Note_on_c, 0, 57, 0
2, 16012200, Note_on_c, 0, 59, 100
2, 16012320, Note_on_c, 0, 59, 0
2, 16012320, Note_on_c, 0, 57, 100
2, 16012440, Note_on_c, 0, 57, 0
2, 16012440, Note_on_c, 0, 59, 100
2, 16012560, Note_on_c, 0, 59, 0
2, 16012560, Note_on_c, 0, 55, 100
2, 16012680, Note_on_c, 0, 55, 0
2, 16012680, Note_on_c, 0, 52, 100
2, 16012800, Note_on_c, 0, 52, 0
2, 16012800, Note_on_c, 0, 55, 100
2, 16012920, Note_on_c, 0, 55, 0
2, 16012920, Note_on_c, 0, 57, 100
2, 16013040, Note_on_c, 0, 57, 0
2, 16013040, Note_on_c, 0, 55, 100
2, 16013160, Note_on_c, 0, 55, 0
2, 16013160, Note_on_c, 0, 57, 100
2, 16013280, Note_on_c, 0, 57, 0
2, 16013280, Note_on_c, 0, 54, 100
2, 16013400, Note_on_c, 0, 54, 0
2, 16013400, Note_on_c, 0, 50, 100
2, 16013520, Note_on_c, 0, 50, 0
2, 16013520, Note_on_c, 0, 54, 100
2, 16013640, Note_on_c, 0, 54, 0
2, 16013640, Note_on_c, 0, 55, 100
2, 16013760, Note_on_c, 0, 55, 0
2, 16013760, Note_on_c, 0, 54, 100
2, 16013880, Note_on_c, 0, 54, 0
2, 16013880, Note_on_c, 0, 55, 100
2, 16014000, Note_on_c, 0, 55, 0
2, 16014000, Note_on_c, 0, 52, 100
2, 16014120, Note_on_c, 0, 52, 0
2, 16014120, Note_on_c, 0, 47, 100
2, 16014240, Note_on_c, 0, 47, 0
2, 16014240, Note_on_c, 0, 52, 100
2, 16014360, Note_on_c, 0, 52, 0
2, 16014360, Note_on_c, 0, 55, 100
2, 16014480, Note_on_c, 0, 55, 0
2, 16014480, Note_on_c, 0, 54, 100
2, 16014600, Note_on_c, 0, 54, 0
2, 16014600, Note_on_c, 0, 55, 100
2, 16014720, Note_on_c, 0, 55, 0
2, 16014720, Note_on_c, 0, 52, 100
2, 16014840, Note_on_c, 0, 52, 0
2, 16014840, Note_on_c, 0, 49, 100
2, 16014960, Note_on_c, 0, 49, 0
2, 16014960, Note_on_c, 0, 52, 100
2, 16015080, Note_on_c, 0, 52, 0
2, 16015080, Note_on_c, 0, 57, 100
2, 16015200, Note_on_c, 0, 57, 0
2, 16015200, Note_on_c, 0, 55, 100
2, 16015320, Note_on_c, 0, 55, 0
2, 16015320, Note_on_c, 0, 57, 100
2, 16015440, Note_on_c, 0, 57, 0
2, 16015440, Note_on_c, 0, 54, 100
2, 16015560, Note_on_c, 0, 54, 0
2, 16015560, Note_on_c, 0, 50, 100
2, 16015680, Note_on_c, 0, 50, 0
2, 16015680, Note_on_c, 0, 54, 100
2, 16015800, Note_on_c, 0, 54, 0
2, 16015800, Note_on_c, 0, 59, 100
2, 16015920, Note_on_c, 0, 59, 0
2, 16015920, Note_on_c, 0, 57, 100
2, 16016040, Note_on_c, 0, 57, 0
2, 16016040, Note_on_c, 0, 59, 100
2, 16016160, Note_on_c, 0, 59, 0
2, 16016160, Note_on_c, 0, 55, 100
2, 16016280, Note_on_c, 0, 55, 0
2, 16016280, Note_on_c, 0, 52, 100
2, 16016400, Note_on_c, 0, 52, 0
2, 16016400, Note_on_c, 0, 55, 100
2, 16016520, Note_on_c, 0, 55, 0
2, 16016520, Note_on_c, 0, 57, 100
2, 16016640, Note_on_c, 0, 57, 0
2, 16016640, Note_on_c, 0, 45, 100
2, 16016880, Note_on_c, 0, 45, 0
2, 16016880, Note_on_c, 0, 57, 100
2, 16017120, Note_on_c, 0, 57, 0
2, 16017120, Note_on_c, 0, 62, 100
2, 16017360, Note_on_c, 0, 62, 0
2, 16017360, Note_on_c, 0, 61, 100
2, 16017480, Note_on_c, 0, 61, 0
2, 16017480, Note_on_c, 0, 62, 100
2, 16017600, Note_on_c, 0, 62, 0
2, 16017600, Note_on_c, 0, 57, 100
2, 16017720, Note_on_c, 0, 57, 0
2, 16017720, Note_on_c, 0, 54, 100
2, 16017840, Note_on_c, 0, 54, 0
2, 16017840, Note_on_c, 0, 50, 100
2, 16017960, Note_on_c, 0, 50, 0
2, 16017960, Note_on_c, 0, 55, 100
2, 16018080, Note_on_c, 0, 55, 0
2, 16018080, Note_on_c, 0, 43, 100
2, 16018320, Note_on_c, 0, 43, 0
2, 16018320, Note_on_c, 0, 55, 100
2, 16018560, Note_on_c, 0, 55, 0
2, 16018560, Note_on_c, 0, 54, 100
2, 16018800, Note_on_c, 0, 54, 0
2, 16018800, Note_on_c, 0, 42, 100
2, 16019040, Note_on_c, 0, 42, 0
2, 16019040, Note_on_c, 0, 54, 100
2, 16019280, Note_on_c, 0, 54, 0
2, 16019280, Note_on_c, 0, 52, 100
2, 16019520, Note_on_c, 0, 52, 0
2, 16019520, Note_on_c, 0, 40, 100
2, 16019760, Note_on_c, 0, 40, 0
2, 16019760, Note_on_c, 0, 52, 100
2, 16020000, Note_on_c, 0, 52, 0
2, 16020000, Note_on_c, 0, 50, 100
2, 16020240, Note_on_c, 0, 50, 0
2, 16020240, Note_on_c, 0, 38, 100
2, 16020480, Note_on_c, 0, 38, 0
2, 16020480, Note_on_c, 0, 48, 100
2, 16020720, Note_on_c, 0, 48, 0
2, 16020720, Note_on_c, 0, 47, 100
2, 16020960, Note_on_c, 0, 47, 0
2, 16020960, Note_on_c, 0, 59, 100
2, 16021200, Note_on_c, 0, 59, 0
2, 16021200, Note_on_c, 0, 55, 100
2, 16021440, Note_on_c, 0, 55, 0
2, 16021440, Note_on_c, 0, 60, 100
2, 16021680, Note_on_c, 0, 60, 0
2, 16021680, Note_on_c, 0, 48, 100
2, 16021920, Note_on_c, 0, 48, 0
2, 16021920, Note_on_c, 0, 60, 100
2, 16022160, Note_on_c, 0, 60, 0
2, 16022160, Note_on_c, 0, 59, 100
2, 16022400, Note_on_c, 0, 59, 0
2, 16022400, Note_on_c, 0, 57, 100
2, 16022520, Note_on_c, 0, 57, 0
2, 16022520, Note_on_c, 0, 55, 100
2, 16022640, Note_on_c, 0, 55, 0
2, 16022640, Note_on_c, 0, 57, 100
2, 16022760, Note_on_c, 0, 57, 0
2, 16022760, Note_on_c, 0, 59, 100
2, 16022880, Note_on_c, 0, 59, 0
2, 16022880, Note_on_c, 0, 55, 100
2, 16023120, Note_on_c, 0, 55, 0
2, 16023120, Note_on_c, 0, 43, 100
2, 16023360, Note_on_c, 0, 43, 0
2, 16023360, Note_on_c, 0, 50, 100
2, 16023480, Note_on_c, 0, 50, 0
2, 16023480, Note_on_c, 0, 55, 100
2, 16023600, Note_on_c, 0, 55, 0
2, 16023600, Note_on_c, 0, 57, 100
2, 16023720, Note_on_c, 0, 57, 0
2, 16023720, Note_on_c, 0, 59, 100
2, 16023840, Note_on_c, 0, 59, 0
2, 16023840, Note_on_c, 0, 57, 100
2, 16023960, Note_on_c, 0, 57, 0
2, 16023960, Note_on_c, 0, 59, 100
2, 16024080, Note_on_c, 0, 59, 0
2, 16024080, Note_on_c, 0, 55, 100
2, 16024200, Note_on_c, 0, 55, 0
2, 16024200, Note_on_c, 0, 52, 100
2, 16024320, Note_on_c, 0, 52, 0
2, 16024320, Note_on_c, 0, 55, 100
2, 16024440, Note_on_c, 0, 55, 0
2, 16024440, Note_on_c, 0, 57, 100
2, 16024560, Note_on_c, 0, 57, 0
2, 16024560, Note_on_c, 0, 55, 100
2, 16024680, Note_on_c, 0, 55, 0
2, 16024680, Note_on_c, 0, 57, 100
2, 16024800, Note_on_c, 0, 57, 0
2, 16024800, Note_on_c, 0, 54, 100
2, 16024920, Note_on_c, 0, 54, 0
2, 16024920, Note_on_c, 0, 50, 100
2, 16025040, Note_on_c, 0, 50, 0
2, 16025040, Note_on_c, 0, 54, 100
2, 16025160, Note_on_c, 0, 54, 0
2, 16025160, Note_on_c, 0, 55, 100
2, 16025280, Note_on_c, 0, 55, 0
2, 16025280, Note_on_c, 0, 54, 100
2, 16025400, Note_on_c, 0, 54, 0
2, 16025400, Note_on_c, 0, 55, 100
2, 16025520, Note_on_c, 0, 55, 0
2, 16025520, Note_on_c, 0, 52, 100
2, 16025640, Note_on_c, 0, 52, 0
2, 16025640, Note_on_c, 0, 47, 100
2, 16025760, Note_on_c, 0, 47, 0
2, 16025760, Note_on_c, 0, 52, 100
2, 16025880, Note_on_c, 0, 52, 0
2, 16025880, Note_on_c, 0, 55, 100
2, 16026000, Note_on_c, 0, 55, 0
2, 16026000, Note_on_c, 0, 54, 100
2, 16026120, Note_on_c, 0, 54, 0
2, 16026120, Note_on_c, 0, 55, 100
2, 16026240, Note_on_c, 0, 55, 0
2, 16026240, Note_on_c, 0, 52, 100
2, 16026360, Note_on_c, 0, 52, 0
2, 16026360, Note_on_c, 0, 49, 100
2, 16026480, Note_on_c, 0, 49, 0
2, 16026480, Note_on_c, 0, 52, 100
2, 16026600, Note_on_c, 0, 52, 0
2, 16026600, Note_on_c, 0, 57, 100
2, 16026720, Note_on_c, 0, 57, 0
2, 16026720, Note_on_c, 0, 55, 100
2, 16026840, Note_on_c, 0, 55, 0
2, 16026840, Note_on_c, 0, 57, 100
2, 16026960, Note_on_c, 0, 57, 0
2, 16026960, Note_on_c, 0, 54, 100
2, 16027080, Note_on_c, 0, 54, 0
2, 16027080, Note_on_c, 0, 50, 100
2, 16027200, Note_on_c, 0, 50, 0
2, 16027200, Note_on_c, 0, 54, 100
2, 16027320, Note_on_c, 0, 54, 0
2, 16027320, Note_on_c, 0, 59, 100
2, 16027440, Note_on_c, 0, 59, 0
2, 16027440, Note_on_c, 0, 57, 100
2, 16027560, Note_on_c, 0, 57, 0
2, 16027560, Note_on_c, 0, 59, 100
2, 16027680, Note_on_c, 0, 59, 0
2, 16027680, Note_on_c, 0, 55, 100
2, 16027800, Note_on_c, 0, 55, 0
2, 16027800, Note_on_c, 0, 52, 100
2, 16027920, Note_on_c, 0, 52, 0
2, 16027920, Note_on_c, 0, 55, 100
2, 16028040, Note_on_c, 0, 55, 0
2, 16028040, Note_on_c, 0, 57, 100
2, 16028160, Note_on_c, 0, 57, 0
2, 16028160, Note_on_c, 0, 45, 100
2, 16028400, Note_on_c, 0, 45, 0
2, 16028400, Note_on_c, 0, 57, 100
2, 16028640, Note_on_c, 0, 57, 0
2, 16028640, Note_on_c, 0, 62, 100
2, 16028880, Note_on_c, 0, 62, 0
2, 16028880, Note_on_c, 0, 61, 100
2, 16029000, Note_on_c, 0, 61, 0
2, 16029000, Note_on_c, 0, 62, 100
2, 16029120, Note_on_c, 0, 62, 0
2, 16029120, Note_on_c, 0, 57, 100
2, 16029240, Note_on_c, 0, 57, 0
2, 16029240, Note_on_c, 0, 54, 100
2, 16029360, Note_on_c, 0, 54, 0
2, 16029360, Note_on_c, 0, 50, 100
2, 16029480, Note_on_c, 0, 50, 0
2, 16029480, Note_on_c, 0, 62, 100
2, 16029600, Note_on_c, 0, 62, 0
2, 16029600, Note_on_c, 0, 50, 100
2, 16029840, Note_on_c, 0, 50, 0
2, 16029840, Note_on_c, 0, 60, 100
2, 16030080, Note_on_c, 0, 60, 0
2, 16030080, Note_on_c, 0, 59, 100
2, 16030320, Note_on_c, 0, 59, 0
2, 16030320, Note_on_c, 0, 55, 100
2, 16030560, Note_on_c, 0, 55, 0
2, 16030560, Note_on_c, 0, 59, 100
2, 16030800, Note_on_c, 0, 59, 0
2, 16030800, Note_on_c, 0, 60, 100
2, 16031040, Note_on_c, 0, 60, 0
2, 16031040, Note_on_c, 0, 59, 100
2, 16031280, Note_on_c, 0, 59, 0
2, 16031280, Note_on_c, 0, 57, 100
2, 16031520, Note_on_c, 0, 57, 0
2, 16031520, Note_on_c, 0, 59, 100
2, 16031760, Note_on_c, 0, 59, 0
2, 16031760, Note_on_c, 0, 57, 100
2, 16032000, Note_on_c, 0, 57, 0
2, 16032000, Note_on_c, 0, 55, 100
2, 16032120, Note_on_c, 0, 55, 0
2, 16032120, Note_on_c, 0, 57, 100
2, 16032240, Note_on_c, 0, 57, 0
2, 16032240, Note_on_c, 0, 54, 100
2, 16032360, Note_on_c, 0, 54, 0
2, 16032360, Note_on_c, 0, 55, 100
2, 16032480, Note_on_c, 0, 55, 0
2, 16032480, Note_on_c, 0, 52, 100
2, 16032720, Note_on_c, 0, 52, 0
2, 16032720, Note_on_c, 0, 55, 100
2, 16032960, Note_on_c, 0, 55, 0
2, 16032960, Note_on_c, 0, 57, 100
2, 16033200, Note_on_c, 0, 57, 0
2, 16033200, Note_on_c, 0, 45, 100
2, 16033440, Note_on_c, 0, 45, 0
2, 16033440, Note_on_c, 0, 57, 100
2, 16033680, Note_on_c, 0, 57, 0
2, 16033680, Note_on_c, 0, 55, 100
2, 16033920, Note_on_c, 0, 55, 0
2, 16033920, Note_on_c, 0, 54, 100
2, 16034040, Note_on_c, 0, 54, 0
2, 16034040, Note_on_c, 0, 55, 100
2, 16034160, Note_on_c, 0, 55, 0
2, 16034160, Note_on_c, 0, 57, 100
2, 16034280, Note_on_c, 0, 57, 0
2, 16034280, Note_on_c, 0, 59, 100
2, 16034400, Note_on_c, 0, 59, 0
2, 16034400, Note_on_c, 0, 52, 100
2, 16034640, Note_on_c, 0, 52, 0
2, 16034640, Note_on_c, 0, 64, 100
2, 16034880, Note_on_c, 0, 64, 0
2, 16034880, Note_on_c, 0, 62, 100
2, 16035120, Note_on_c, 0, 62, 0
2, 16035120, Note_on_c, 0, 60, 100
2, 16035360, Note_on_c, 0, 60, 0
2, 16035360, Note_on_c, 0, 59, 100
2, 16035480, Note_on_c, 0, 59, 0
2, 16035480, Note_on_c, 0, 60, 100
2, 16035600, Note_on_c, 0, 60, 0
2, 16035600, Note_on_c, 0, 57, 100
2, 16035720, Note_on_c, 0, 57, 0
2, 16035720, Note_on_c, 0, 54, 100
2, 16035840, Note_on_c, 0, 54, 0
2, 16035840, Note_on_c, 0, 57, 100
2, 16035960, Note_on_c, 0, 57, 0
2, 16035960, Note_on_c, 0, 59, 100
2, 16036080, Note_on_c, 0, 59, 0
2, 16036080, Note_on_c, 0, 57, 100
2, 16036200, Note_on_c, 0, 57, 0
2, 16036200, Note_on_c, 0, 59, 100
2, 16036320, Note_on_c, 0, 59, 0
2, 16036320, Note_on_c, 0, 55, 100
2, 16036440, Note_on_c, 0, 55, 0
2, 16036440, Note_on_c, 0, 52, 100
2, 16036560, Note_on_c, 0, 52, 0
2, 16036560, Note_on_c, 0, 55, 100
2, 16036680, Note_on_c, 0, 55, 0
2, 16036680, Note_on_c, 0, 57, 100
2, 16036800, Note_on_c, 0, 57, 0
2, 16036800, Note_on_c, 0, 55, 100
2, 16036920, Note_on_c, 0, 55, 0
2, 16036920, Note_on_c, 0, 57, 100
2, 16037040, Note_on_c, 0, 57, 0
2, 16037040, Note_on_c, 0, 60, 100
2, 16037160, Note_on_c, 0, 60, 0
2, 16037160, Note_on_c, 0, 52, 100
2, 16037280, Note_on_c, 0, 52, 0
2, 16037280, Note_on_c, 0, 55, 100
2, 16037400, Note_on_c, 0, 55, 0
2, 16037400, Note_on_c, 0, 54, 100
2, 16037520, Note_on_c, 0, 54, 0
2, 16037520, Note_on_c, 0, 52, 100
2, 16037640, Note_on_c, 0, 52, 0
2, 16037640, Note_on_c, 0, 54, 100
2, 16037760, Note_on_c, 0, 54, 0
2, 16037760, Note_on_c, 0, 57, 100
2, 16037880, Note_on_c, 0, 57, 0
2, 16037880, Note_on_c, 0, 50, 100
2, 16038000, Note_on_c, 0, 50, 0
2, 16038000, Note_on_c, 0, 54, 100
2, 16038120, Note_on_c, 0, 54, 0
2, 16038120, Note_on_c, 0, 47, 100
2, 16038240, Note_on_c, 0, 47, 0
2, 16038240, Note_on_c, 0, 43, 100
2, 16038480, Note_on_c, 0, 43, 0
2, 16038480, Note_on_c, 0, 47, 100
2, 16038720, Note_on_c, 0, 47, 0
2, 16038720, Note_on_c, 0, 48, 100
2, 16038960, Note_on_c, 0, 48, 0
2, 16038960, Note_on_c, 0, 45, 100
2, 16039200, Note_on_c, 0, 45, 0
2, 16039200, Note_on_c, 0, 48, 100
2, 16039440, Note_on_c, 0, 48, 0
2, 16039440, Note_on_c, 0, 50, 100
2, 16039680, Note_on_c, 0, 50, 0
2, 16039680, Note_on_c, 0, 48, 100
2, 16039920, Note_on_c, 0, 48, 0
2, 16039920, Note_on_c, 0, 50, 100
2, 16040160, Note_on_c, 0, 50, 0
2, 16040160, Note_on_c, 0, 55, 100
2, 16040400, Note_on_c, 0, 55, 0
2, 16040400, Note_on_c, 0, 62, 100
2, 16041120, Note_on_c, 0, 62, 0
2, 16041120, Note_on_c, 0, 50, 100
2, 16041360, Note_on_c, 0, 50, 0
2, 16041360, Note_on_c, 0, 60, 100
2, 16041600, Note_on_c, 0, 60, 0
2, 16041600, Note_on_c, 0, 59, 100
2, 16041840, Note_on_c, 0, 59, 0
2, 16041840, Note_on_c, 0, 55, 100
2, 16042080, Note_on_c, 0, 55, 0
2, 16042080, Note_on_c, 0, 59, 100
2, 16042320, Note_on_c, 0, 59, 0
2, 16042320, Note_on_c, 0, 60, 100
2, 16042560, Note_on_c, 0, 60, 0
2, 16042560, Note_on_c, 0, 59, 100
2, 16042800, Note_on_c, 0, 59, 0
2, 16042800, Note_on_c, 0, 57, 100
2, 16043040, Note_on_c, 0, 57, 0
2, 16043040, Note_on_c, 0, 59, 100
2, 16043280, Note_on_c, 0, 59, 0
2, 16043280, Note_on_c, 0, 57, 100
2, 16043520, Note_on_c, 0, 57, 0
2, 16043520, Note_on_c, 0, 55, 100
2, 16043640, Note_on_c, 0, 55, 0
2, 16043640, Note_on_c, 0, 57, 100
2, 16043760, Note_on_c, 0, 57, 0
2, 16043760, Note_on_c, 0, 54, 100
2, 16043880, Note_on_c, 0, 54, 0
2, 16043880, Note_on_c, 0, 55, 100
2, 16044000, Note_on_c, 0, 55, 0
2, 16044000, Note_on_c, 0, 52, 100
2, 16044240, Note_on_c, 0, 52, 0
2, 16044240, Note_on_c, 0, 55, 100
2, 16044480, Note_on_c, 0, 55, 0
2, 16044480, Note_on_c, 0, 57, 100
2, 16044720, Note_on_c, 0, 57, 0
2, 16044720, Note_on_c, 0, 45, 100
2, 16044960, Note_on_c, 0, 45, 0
2, 16044960, Note_on_c, 0, 57, 100
2, 16045200, Note_on_c, 0, 57, 0
2, 16045200, Note_on_c, 0, 55, 100
2, 16045440, Note_on_c, 0, 55, 0
2, 16045440, Note_on_c, 0, 54, 100
2, 16045560, Note_on_c, 0, 54, 0
2, 16045560, Note_on_c, 0, 55, 100
2, 16045680, Note_on_c, 0, 55, 0
2, 16045680, Note_on_c, 0, 57, 100
2, 16045800, Note_on_c, 0, 57, 0
2, 16045800, Note_on_c, 0, 59, 100
2, 16045920, Note_on_c, 0, 59, 0
2, 16045920, Note_on_c, 0, 52, 100
2, 16046160, Note_on_c, 0, 52, 0
2, 16046160, Note_on_c, 0, 64, 100
2, 16046400, Note_on_c, 0, 64, 0
2, 16046400, Note_on_c, 0, 62, 100
2, 16046640, Note_on_c, 0, 62, 0
2, 16046640, Note_on_c, 0, 60, 100
2, 16046880, Note_on_c, 0, 60, 0
2, 16046880, Note_on_c, 0, 59, 100
2, 16047000, Note_on_c, 0, 59, 0
2, 16047000, Note_on_c, 0, 60, 100
2, 16047120, Note_on_c, 0, 60, 0
2, 16047120, Note_on_c, 0, 57, 100
2, 16047240, Note_on_c, 0, 57, 0
2, 16047240, Note_on_c, 0, 54, 100
2, 16047360, Note_on_c, 0, 54, 0
2, 16047360, Note_on_c, 0, 57, 100
2, 16047480, Note_on_c, 0, 57, 0
2, 16047480, Note_on_c, 0, 59, 100
2, 16047600, Note_on_c, 0, 59, 0
2, 16047600, Note_on_c, 0, 57, 100
2, 16047720, Note_on_c, 0, 57, 0
2, 16047720, Note_on_c, 0, 59, 100
2, 16047840, Note_on_c, 0, 59, 0
2, 16047840, Note_on_c, 0, 55, 100
2, 16047960, Note_on_c, 0, 55, 0
2, 16047960, Note_on_c, 0, 52, 100
2, 16048080, Note_on_c, 0, 52, 0
2, 16048080, Note_on_c, 0, 55, 100
2, 16048200, Note_on_c, 0, 55, 0
2, 16048200, Note_on_c, 0, 57, 100
2, 16048320, Note_on_c, 0, 57, 0
2, 16048320, Note_on_c, 0, 55, 100
2, 16048440, Note_on_c, 0, 55, 0
2, 16048440, Note_on_c, 0, 57, 100
2, 16048560, Note_on_c, 0, 57, 0
2, 16048560, Note_on_c, 0, 60, 100
2, 16048680, Note_on_c, 0, 60, 0
2, 16048680, Note_on_c, 0, 52, 100
2, 16048800, Note_on_c, 0, 52, 0
2, 16048800, Note_on_c, 0, 55, 100
2, 16048920, Note_on_c, 0, 55, 0
2, 16048920, Note_on_c, 0, 54, 100
2, 16049040, Note_on_c, 0, 54, 0
2, 16049040, Note_on_c, 0, 52, 100
2, 16049160, Note_on_c, 0, 52, 0
2, 16049160, Note_on_c, 0, 54, 100
2, 16049280, Note_on_c, 0, 54, 0
2, 16049280, Note_on_c, 0, 57, 100
2, 16049400, Note_on_c, 0, 57, 0
2, 16049400, Note_on_c, 0, 50, 100
2, 16049520, Note_on_c, 0, 50, 0
2, 16049520, Note_on_c, 0, 54, 100
2, 16049640, Note_on_c, 0, 54, 0
2, 16049640, Note_on_c, 0, 47, 100
2, 16049760, Note_on_c, 0, 47, 0
2, 16049760, Note_on_c, 0, 43, 100
2, 16050000, Note_on_c, 0, 43, 0
2, 16050000, Note_on_c, 0, 47, 100
2, 16050240, Note_on_c, 0, 47, 0
2, 16050240, Note_on_c, 0, 48, 100
2, 16050480, Note_on_c, 0, 48, 0
2, 16050480, Note_on_c, 0, 45, 100
2, 16050720, Note_on_c, 0, 45, 0
2, 16050720, Note_on_c, 0, 48, 100
2, 16050960, Note_on_c, 0, 48, 0
2, 16050960, Note_on_c, 0, 50, 100
2, 16051200, Note_on_c, 0, 50, 0
2, 16051200, Note_on_c, 0, 48, 100
2, 16051440, Note_on_c, 0, 48, 0
2, 16051440, Note_on_c, 0, 50, 100
2, 16051680, Note_on_c, 0, 50, 0
2, 16051680, Note_on_c, 0, 55, 100
2, 16051920, Note_on_c, 0, 55, 0
2, 16051920, Note_on_c, 0, 43, 100
2, 16144800, Note_on_c, 0, 43, 0
2, 16144800, Note_on_c, 0, 55, 100
2, 16145280, Note_on_c, 0, 55, 0
2, 16145280, Note_on_c, 0, 54, 100
2, 16145760, Note_on_c, 0, 54, 0
2, 16145760, Note_on_c, 0, 53, 100
2, 16146240, Note_on_c, 0, 53, 0
2, 16146240, Note_on_c, 0, 52, 100
2, 16146720, Note_on_c, 0, 52, 0
2, 16146720, Note_on_c, 0, 51, 100
2, 16147200, Note_on_c, 0, 51, 0
2, 16147200, Note_on_c, 0, 50, 100
2, 16147680, Note_on_c, 0, 50, 0
2, 16147680, Note_on_c, 0, 45, 100
2, 16147800, Note_on_c, 0, 45, 0
2, 16147800, Note_on_c, 0, 46, 100
2, 16147920, Note_on_c, 0, 46, 0
2, 16147920, Note_on_c, 0, 48, 100
2, 16148040, Note_on_c, 0, 48, 0
2, 16148040, Note_on_c, 0, 50, 100
2, 16148160, Note_on_c, 0, 50, 0
2, 16148160, Note_on_c, 0, 38, 100
2, 16148400, Note_on_c, 0, 38, 0
2, 16148400, Note_on_c, 0, 43, 100
2, 16148640, Note_on_c, 0, 43, 0
2, 16148640, Note_on_c, 0, 50, 100
2, 16148760, Note_on_c, 0, 50, 0
2, 16148760, Note_on_c, 0, 52, 100
2, 16148880, Note_on_c, 0, 52, 0
2, 16148880, Note_on_c, 0, 54, 100
2, 16149000, Note_on_c, 0, 54, 0
2, 16149000, Note_on_c, 0, 55, 100
2, 16149120, Note_on_c, 0, 55, 0
2, 16149120, Note_on_c, 0, 53, 100
2, 16149240, Note_on_c, 0, 53, 0
2, 16149240, Note_on_c, 0, 51, 100
2, 16149360, Note_on_c, 0, 51, 0
2, 16149360, Note_on_c, 0, 50, 100
2, 16149480, Note_on_c, 0, 50, 0
2, 16149480, Note_on_c, 0, 48, 100
2, 16149600, Note_on_c, 0, 48, 0
2, 16149600, Note_on_c, 0, 47, 100
2, 16149840, Note_on_c, 0, 47, 0
2, 16149840, Note_on_c, 0, 48, 100
2, 16150080, Note_on_c, 0, 48, 0
2, 16150080, Note_on_c, 0, 49, 100
2, 16150320, Note_on_c, 0, 49, 0
2, 16150320, Note_on_c, 0, 50, 100
2, 16150560, Note_on_c, 0, 50, 0
2, 16150560, Note_on_c, 0, 46, 100
2, 16150800, Note_on_c, 0, 46, 0
2, 16150800, Note_on_c, 0, 48, 100
2, 16151040, Note_on_c, 0, 48, 0
2, 16151040, Note_on_c, 0, 50, 100
2, 16151280, Note_on_c, 0, 50, 0
2, 16151280, Note_on_c, 0, 55, 100
2, 16151520, Note_on_c, 0, 55, 0
2, 16151520, Note_on_c, 0, 54, 100
2, 16152120, Note_on_c, 0, 54, 0
2, 16152120, Note_on_c, 0, 55, 100
2, 16152240, Note_on_c, 0, 55, 0
2, 16152240, Note_on_c, 0, 57, 100
2, 16152360, Note_on_c, 0, 57, 0
2, 16152360, Note_on_c, 0, 58, 100
2, 16152480, Note_on_c, 0, 58, 0
2, 16152480, Note_on_c, 0, 60, 100
2, 16152600, Note_on_c, 0, 60, 0
2, 16152600, Note_on_c, 0, 62, 100
2, 16152720, Note_on_c, 0, 62, 0
2, 16152720, Note_on_c, 0, 55, 100
2, 16152960, Note_on_c, 0, 55, 0
2, 16152960, Note_on_c, 0, 67, 100
2, 16153200, Note_on_c, 0, 67, 0
2, 16153200, Note_on_c, 0, 62, 100
2, 16153440, Note_on_c, 0, 62, 0
2, 16153440, Note_on_c, 0, 60, 100
2, 16154160, Note_on_c, 0, 60, 0
2, 16154160, Note_on_c, 0, 58, 100
2, 16154400, Note_on_c, 0, 58, 0
2, 16154400, Note_on_c, 0, 57, 100
2, 16154640, Note_on_c, 0, 57, 0
2, 16154640, Note_on_c, 0, 58, 100
2, 16154880, Note_on_c, 0, 58, 0
2, 16154880, Note_on_c, 0, 55, 100
2, 16155120, Note_on_c, 0, 55, 0
2, 16155120, Note_on_c, 0, 57, 100
2, 16155360, Note_on_c, 0, 57, 0
2, 16155360, Note_on_c, 0, 52, 100
2, 16155480, Note_on_c, 0, 52, 0
2, 16155480, Note_on_c, 0, 53, 100
2, 16155600, Note_on_c, 0, 53, 0
2, 16155600, Note_on_c, 0, 55, 100
2, 16155720, Note_on_c, 0, 55, 0
2, 16155720, Note_on_c, 0, 57, 100
2, 16155840, Note_on_c, 0, 57, 0
2, 16155840, Note_on_c, 0, 59, 100
2, 16155960, Note_on_c, 0, 59, 0
2, 16155960, Note_on_c, 0, 61, 100
2, 16156080, Note_on_c, 0, 61, 0
2, 16156080, Note_on_c, 0, 57, 100
2, 16156200, Note_on_c, 0, 57, 0
2, 16156200, Note_on_c, 0, 62, 100
2, 16156320, Note_on_c, 0, 62, 0
2, 16156320, Note_on_c, 0, 53, 100
2, 16156440, Note_on_c, 0, 53, 0
2, 16156440, Note_on_c, 0, 55, 100
2, 16156560, Note_on_c, 0, 55, 0
2, 16156560, Note_on_c, 0, 57, 100
2, 16156680, Note_on_c, 0, 57, 0
2, 16156680, Note_on_c, 0, 50, 100
2, 16156800, Note_on_c, 0, 50, 0
2, 16156800, Note_on_c, 0, 60, 100
2, 16156920, Note_on_c, 0, 60, 0
2, 16156920, Note_on_c, 0, 58, 100
2, 16157040, Note_on_c, 0, 58, 0
2, 16157040, Note_on_c, 0, 57, 100
2, 16157160, Note_on_c, 0, 57, 0
2, 16157160, Note_on_c, 0, 55, 100
2, 16157280, Note_on_c, 0, 55, 0
2, 16157280, Note_on_c, 0, 46, 100
2, 16157400, Note_on_c, 0, 46, 0
2, 16157400, Note_on_c, 0, 48, 100
2, 16157520, Note_on_c, 0, 48, 0
2, 16157520, Note_on_c, 0, 50, 100
2, 16157640, Note_on_c, 0, 50, 0
2, 16157640, Note_on_c, 0, 43, 100
2, 16157760, Note_on_c, 0, 43, 0
2, 16157760, Note_on_c, 0, 55, 100
2, 16157880, Note_on_c, 0, 55, 0
2, 16157880, Note_on_c, 0, 49, 100
2, 16158120, Note_on_c, 0, 49, 0
2, 16158120, Note_on_c, 0, 50, 100
2, 16158240, Note_on_c, 0, 50, 0
2, 16158240, Note_on_c, 0, 57, 100
2, 16158360, Note_on_c, 0, 57, 0
2, 16158360, Note_on_c, 0, 62, 100
2, 16158480, Note_on_c, 0, 62, 0
2, 16158480, Note_on_c, 0, 61, 100
2, 16159080, Note_on_c, 0, 61, 0
2, 16159080, Note_on_c, 0, 62, 100
2, 16159200, Note_on_c, 0, 62, 0
2, 16159200, Note_on_c, 0, 58, 100
2, 16159320, Note_on_c, 0, 58, 0
2, 16159320, Note_on_c, 0, 57, 100
2, 16159440, Note_on_c, 0, 57, 0
2, 16159440, Note_on_c, 0, 55, 100
2, 16159560, Note_on_c, 0, 55, 0
2, 16159560, Note_on_c, 0, 54, 100
2, 16159680, Note_on_c, 0, 54, 0
2, 16159680, Note_on_c, 0, 57, 100
2, 16159800, Note_on_c, 0, 57, 0
2, 16159800, Note_on_c, 0, 54, 100
2, 16159920, Note_on_c, 0, 54, 0
2, 16159920, Note_on_c, 0, 50, 100
2, 16160040, Note_on_c, 0, 50, 0
2, 16160040, Note_on_c, 0, 43, 100
2, 16160160, Note_on_c, 0, 43, 0
2, 16160160, Note_on_c, 0, 55, 100
2, 16160640, Note_on_c, 0, 55, 0
2, 16160640, Note_on_c, 0, 54, 100
2, 16161120, Note_on_c, 0, 54, 0
2, 16161120, Note_on_c, 0, 53, 100
2, 16161600, Note_on_c, 0, 53, 0
2, 16161600, Note_on_c, 0, 52, 100
2, 16162080, Note_on_c, 0, 52, 0
2, 16162080, Note_on_c, 0, 51, 100
2, 16162560, Note_on_c, 0, 51, 0
2, 16162560, Note_on_c, 0, 50, 100
2, 16163040, Note_on_c, 0, 50, 0
2, 16163040, Note_on_c, 0, 45, 100
2, 16163160, Note_on_c, 0, 45, 0
2, 16163160, Note_on_c, 0, 46, 100
2, 16163280, Note_on_c, 0, 46, 0
2, 16163280, Note_on_c, 0, 48, 100
2, 16163400, Note_on_c, 0, 48, 0
2, 16163400, Note_on_c, 0, 50, 100
2, 16163520, Note_on_c, 0, 50, 0
2, 16163520, Note_on_c, 0, 38, 100
2, 16163760, Note_on_c, 0, 38, 0
2, 16163760, Note_on_c, 0, 43, 100
2, 16164000, Note_on_c, 0, 43, 0
2, 16164000, Note_on_c, 0, 50, 100
2, 16164120, Note_on_c, 0, 50, 0
2, 16164120, Note_on_c, 0, 52, 100
2, 16164240, Note_on_c, 0, 52, 0
2, 16164240, Note_on_c, 0, 54, 100
2, 16164360, Note_on_c, 0, 54, 0
2, 16164360, Note_on_c, 0, 55, 100
2, 16164480, Note_on_c, 0, 55, 0
2, 16164480, Note_on_c, 0, 53, 100
2, 16164600, Note_on_c, 0, 53, 0
2, 16164600, Note_on_c, 0, 51, 100
2, 16164720, Note_on_c, 0, 51, 0
2, 16164720, Note_on_c, 0, 50, 100
2, 16164840, Note_on_c, 0, 50, 0
2, 16164840, Note_on_c, 0, 48, 100
2, 16164960, Note_on_c, 0, 48, 0
2, 16164960, Note_on_c, 0, 47, 100
2, 16165200, Note_on_c, 0, 47, 0
2, 16165200, Note_on_c, 0, 48, 100
2, 16165440, Note_on_c, 0, 48, 0
2, 16165440, Note_on_c, 0, 49, 100
2, 16165680, Note_on_c, 0, 49, 0
2, 16165680, Note_on_c, 0, 50, 100
2, 16165920, Note_on_c, 0, 50, 0
2, 16165920, Note_on_c, 0, 46, 100
2, 16166160, Note_on_c, 0, 46, 0
2, 16166160, Note_on_c, 0, 48, 100
2, 16166400, Note_on_c, 0, 48, 0
2, 16166400, Note_on_c, 0, 50, 100
2, 16166640, Note_on_c, 0, 50, 0
2, 16166640, Note_on_c, 0, 55, 100
2, 16166880, Note_on_c, 0, 55, 0
2, 16166880, Note_on_c, 0, 54, 100
2, 16167480, Note_on_c, 0, 54, 0
2, 16167480, Note_on_c, 0, 55, 100
2, 16167600, Note_on_c, 0, 55, 0
2, 16167600, Note_on_c, 0, 57, 100
2, 16167720, Note_on_c, 0, 57, 0
2, 16167720, Note_on_c, 0, 58, 100
2, 16167840, Note_on_c, 0, 58, 0
2, 16167840, Note_on_c, 0, 60, 100
2, 16167960, Note_on_c, 0, 60, 0
2, 16167960, Note_on_c, 0, 62, 100
2, 16168080, Note_on_c, 0, 62, 0
2, 16168080, Note_on_c, 0, 55, 100
2, 16168320, Note_on_c, 0, 55, 0
2, 16168320, Note_on_c, 0, 67, 100
2, 16168560, Note_on_c, 0, 67, 0
2, 16168560, Note_on_c, 0, 62, 100
2, 16168800, Note_on_c, 0, 62, 0
2, 16168800, Note_on_c, 0, 60, 100
2, 16169520, Note_on_c, 0, 60, 0
2, 16169520, Note_on_c, 0, 58, 100
2, 16169760, Note_on_c, 0, 58, 0
2, 16169760, Note_on_c, 0, 57, 100
2, 16170000, Note_on_c, 0, 57, 0
2, 16170000, Note_on_c, 0, 58, 100
2, 16170240, Note_on_c, 0, 58, 0
2, 16170240, Note_on_c, 0, 55, 100
2, 16170480, Note_on_c, 0, 55, 0
2, 16170480, Note_on_c, 0, 57, 100
2, 16170720, Note_on_c, 0, 57, 0
2, 16170720, Note_on_c, 0, 52, 100
2, 16170840, Note_on_c, 0, 52, 0
2, 16170840, Note_on_c, 0, 53, 100
2, 16170960, Note_on_c, 0, 53, 0
2, 16170960, Note_on_c, 0, 55, 100
2, 16171080, Note_on_c, 0, 55, 0
2, 16171080, Note_on_c, 0, 57, 100
2, 16171200, Note_on_c, 0, 57, 0
2, 16171200, Note_on_c, 0, 59, 100
2, 16171320, Note_on_c, 0, 59, 0
2, 16171320, Note_on_c, 0, 61, 100
2, 16171440, Note_on_c, 0, 61, 0
2, 16171440, Note_on_c, 0, 57, 100
2, 16171560, Note_on_c, 0, 57, 0
2, 16171560, Note_on_c, 0, 62, 100
2, 16171680, Note_on_c, 0, 62, 0
2, 16171680, Note_on_c, 0, 53, 100
2, 16171800, Note_on_c, 0, 53, 0
2, 16171800, Note_on_c, 0, 55, 100
2, 16171920, Note_on_c, 0, 55, 0
2, 16171920, Note_on_c, 0, 57, 100
2, 16172040, Note_on_c, 0, 57, 0
2, 16172040, Note_on_c, 0, 50, 100
2, 16172160, Note_on_c, 0, 50, 0
2, 16172160, Note_on_c, 0, 60, 100
2, 16172280, Note_on_c, 0, 60, 0
2, 16172280, Note_on_c, 0, 58, 100
2, 16172400, Note_on_c, 0, 58, 0
2, 16172400, Note_on_c, 0, 57, 100
2, 16172520, Note_on_c, 0, 57, 0
2, 16172520, Note_on_c, 0, 55, 100
2, 16172640, Note_on_c, 0, 55, 0
2, 16172640, Note_on_c, 0, 46, 100
2, 16172760, Note_on_c, 0, 46, 0
2, 16172760, Note_on_c, 0, 48, 100
2, 16172880, Note_on_c, 0, 48, 0
2, 16172880, Note_on_c, 0, 50, 100
2, 16173000, Note_on_c, 0, 50, 0
2, 16173000, Note_on_c, 0, 43, 100
2, 16173120, Note_on_c, 0, 43, 0
2, 16173120, Note_on_c, 0, 55, 100
2, 16173240, Note_on_c, 0, 55, 0
2, 16173240, Note_on_c, 0, 49, 100
2, 16173480, Note_on_c, 0, 49, 0
2, 16173480, Note_on_c, 0, 50, 100
2, 16173600, Note_on_c, 0, 50, 0
2, 16173600, Note_on_c, 0, 57, 100
2, 16173720, Note_on_c, 0, 57, 0
2, 16173720, Note_on_c, 0, 62, 100
2, 16173840, Note_on_c, 0, 62, 0
2, 16173840, Note_on_c, 0, 61, 100
2, 16174440, Note_on_c, 0, 61, 0
2, 16174440, Note_on_c, 0, 62, 100
2, 16174560, Note_on_c, 0, 62, 0
2, 16174560, Note_on_c, 0, 58, 100
2, 16174680, Note_on_c, 0, 58, 0
2, 16174680, Note_on_c, 0, 57, 100
2, 16174800, Note_on_c, 0, 57, 0
2, 16174800, Note_on_c, 0, 55, 100
2, 16174920, Note_on_c, 0, 55, 0
2, 16174920, Note_on_c, 0, 54, 100
2, 16175040, Note_on_c, 0, 54, 0
2, 16175040, Note_on_c, 0, 57, 100
2, 16175160, Note_on_c, 0, 57, 0
2, 16175160, Note_on_c, 0, 54, 100
2, 16175280, Note_on_c, 0, 54, 0
2, 16175280, Note_on_c, 0, 50, 100
2, 16175520, Note_on_c, 0, 50, 0
2, 16175520, Note_on_c, 0, 62, 100
2, 16175760, Note_on_c, 0, 62, 0
2, 16175760, Note_on_c, 0, 60, 100
2, 16176240, Note_on_c, 0, 60, 0
2, 16176240, Note_on_c, 0, 59, 100
2, 16176480, Note_on_c, 0, 59, 0
2, 16176480, Note_on_c, 0, 58, 100
2, 16176720, Note_on_c, 0, 58, 0
2, 16176720, Note_on_c, 0, 57, 100
2, 16177200, Note_on_c, 0, 57, 0
2, 16177200, Note_on_c, 0, 55, 100
2, 16177320, Note_on_c, 0, 55, 0
2, 16177320, Note_on_c, 0, 57, 100
2, 16177440, Note_on_c, 0, 57, 0
2, 16177440, Note_on_c, 0, 56, 100
2, 16177680, Note_on_c, 0, 56, 0
2, 16177680, Note_on_c, 0, 55, 100
2, 16178160, Note_on_c, 0, 55, 0
2, 16178160, Note_on_c, 0, 50, 100
2, 16178400, Note_on_c, 0, 50, 0
2, 16178400, Note_on_c, 0, 51, 100
2, 16178640, Note_on_c, 0, 51, 0
2, 16178640, Note_on_c, 0, 53, 100
2, 16178880, Note_on_c, 0, 53, 0
2, 16178880, Note_on_c, 0, 46, 100
2, 16179120, Note_on_c, 0, 46, 0
2, 16179120, Note_on_c, 0, 51, 100
2, 16180080, Note_on_c, 0, 51, 0
2, 16180080, Note_on_c, 0, 56, 100
2, 16180320, Note_on_c, 0, 56, 0
2, 16180320, Note_on_c, 0, 55, 100
2, 16181040, Note_on_c, 0, 55, 0
2, 16181040, Note_on_c, 0, 53, 100
2, 16181160, Note_on_c, 0, 53, 0
2, 16181160, Note_on_c, 0, 55, 100
2, 16181280, Note_on_c, 0, 55, 0
2, 16181280, Note_on_c, 0, 53, 100
2, 16181880, Note_on_c, 0, 53, 0
2, 16181880, Note_on_c, 0, 51, 100
2, 16182000, Note_on_c, 0, 51, 0
2, 16182000, Note_on_c, 0, 50, 100
2, 16182120, Note_on_c, 0, 50, 0
2, 16182120, Note_on_c, 0, 51, 100
2, 16182240, Note_on_c, 0, 51, 0
2, 16182240, Note_on_c, 0, 43, 100
2, 16182360, Note_on_c, 0, 43, 0
2, 16182360, Note_on_c, 0, 44, 100
2, 16182480, Note_on_c, 0, 44, 0
2, 16182480, Note_on_c, 0, 46, 100
2, 16182600, Note_on_c, 0, 46, 0
2, 16182600, Note_on_c, 0, 39, 100
2, 16182720, Note_on_c, 0, 39, 0
2, 16182720, Note_on_c, 0, 43, 100
2, 16182840, Note_on_c, 0, 43, 0
2, 16182840, Note_on_c, 0, 45, 100
2, 16182960, Note_on_c, 0, 45, 0
2, 16182960, Note_on_c, 0, 47, 100
2, 16183080, Note_on_c, 0, 47, 0
2, 16183080, Note_on_c, 0, 48, 100
2, 16183920, Note_on_c, 0, 48, 0
2, 16183920, Note_on_c, 0, 46, 100
2, 16184880, Note_on_c, 0, 46, 0
2, 16184880, Note_on_c, 0, 45, 100
2, 16185120, Note_on_c, 0, 45, 0
2, 16185120, Note_on_c, 0, 43, 100
2, 16185240, Note_on_c, 0, 43, 0
2, 16185240, Note_on_c, 0, 45, 100
2, 16185360, Note_on_c, 0, 45, 0
2, 16185360, Note_on_c, 0, 46, 100
2, 16185480, Note_on_c, 0, 46, 0
2, 16185480, Note_on_c, 0, 45, 100
2, 16185600, Note_on_c, 0, 45, 0
2, 16185600, Note_on_c, 0, 43, 100
2, 16185720, Note_on_c, 0, 43, 0
2, 16185720, Note_on_c, 0, 42, 100
2, 16185840, Note_on_c, 0, 42, 0
2, 16185840, Note_on_c, 0, 40, 100
2, 16185960, Note_on_c, 0, 40, 0
2, 16185960, Note_on_c, 0, 38, 100
2, 16186080, Note_on_c, 0, 38, 0
2, 16186080, Note_on_c, 0, 48, 100
2, 16186200, Note_on_c, 0, 48, 0
2, 16186200, Note_on_c, 0, 50, 100
2, 16186320, Note_on_c, 0, 50, 0
2, 16186320, Note_on_c, 0, 51, 100
2, 16186440, Note_on_c, 0, 51, 0
2, 16186440, Note_on_c, 0, 50, 100
2, 16186560, Note_on_c, 0, 50, 0
2, 16186560, Note_on_c, 0, 48, 100
2, 16186680, Note_on_c, 0, 48, 0
2, 16186680, Note_on_c, 0, 46, 100
2, 16186800, Note_on_c, 0, 46, 0
2, 16186800, Note_on_c, 0, 45, 100
2, 16186920, Note_on_c, 0, 45, 0
2, 16186920, Note_on_c, 0, 43, 100
2, 16187040, Note_on_c, 0, 43, 0
2, 16187040, Note_on_c, 0, 53, 100
2, 16187160, Note_on_c, 0, 53, 0
2, 16187160, Note_on_c, 0, 55, 100
2, 16187280, Note_on_c, 0, 55, 0
2, 16187280, Note_on_c, 0, 56, 100
2, 16187400, Note_on_c, 0, 56, 0
2, 16187400, Note_on_c, 0, 55, 100
2, 16187520, Note_on_c, 0, 55, 0
2, 16187520, Note_on_c, 0, 53, 100
2, 16187640, Note_on_c, 0, 53, 0
2, 16187640, Note_on_c, 0, 51, 100
2, 16187760, Note_on_c, 0, 51, 0
2, 16187760, Note_on_c, 0, 50, 100
2, 16187880, Note_on_c, 0, 50, 0
2, 16187880, Note_on_c, 0, 48, 100
2, 16188000, Note_on_c, 0, 48, 0
2, 16188000, Note_on_c, 0, 47, 100
2, 16188120, Note_on_c, 0, 47, 0
2, 16188120, Note_on_c, 0, 48, 100
2, 16188240, Note_on_c, 0, 48, 0
2, 16188240, Note_on_c, 0, 49, 100
2, 16188360, Note_on_c, 0, 49, 0
2, 16188360, Note_on_c, 0, 50, 100
2, 16188480, Note_on_c, 0, 50, 0
2, 16188480, Note_on_c, 0, 51, 100
2, 16188600, Note_on_c, 0, 51, 0
2, 16188600, Note_on_c, 0, 50, 100
2, 16188720, Note_on_c, 0, 50, 0
2, 16188720, Note_on_c, 0, 48, 100
2, 16188840, Note_on_c, 0, 48, 0
2, 16188840, Note_on_c, 0, 46, 100
2, 16188960, Note_on_c, 0, 46, 0
2, 16188960, Note_on_c, 0, 45, 100
2, 16189080, Note_on_c, 0, 45, 0
2, 16189080, Note_on_c, 0, 46, 100
2, 16189200, Note_on_c, 0, 46, 0
2, 16189200, Note_on_c, 0, 47, 100
2, 16189320, Note_on_c, 0, 47, 0
2, 16189320, Note_on_c, 0, 48, 100
2, 16189440, Note_on_c, 0, 48, 0
2, 16189440, Note_on_c, 0, 50, 100
2, 16189680, Note_on_c, 0, 50, 0
2, 16189680, Note_on_c, 0, 43, 100
2, 16189920, Note_on_c, 0, 43, 0
2, 16189920, Note_on_c, 0, 50, 100
2, 16190040, Note_on_c, 0, 50, 0
2, 16190040, Note_on_c, 0, 46, 100
2, 16190160, Note_on_c, 0, 46, 0
2, 16190160, Note_on_c, 0, 50, 100
2, 16190280, Note_on_c, 0, 50, 0
2, 16190280, Note_on_c, 0, 55, 100
2, 16190400, Note_on_c, 0, 55, 0
2, 16190400, Note_on_c, 0, 50, 100
2, 16190520, Note_on_c, 0, 50, 0
2, 16190520, Note_on_c, 0, 46, 100
2, 16190640, Note_on_c, 0, 46, 0
2, 16190640, Note_on_c, 0, 43, 100
2, 16190760, Note_on_c, 0, 43, 0
2, 16190760, Note_on_c, 0, 50, 100
2, 16190880, Note_on_c, 0, 50, 0
2, 16190880, Note_on_c, 0, 62, 100
2, 16191120, Note_on_c, 0, 62, 0
2, 16191120, Note_on_c, 0, 60, 100
2, 16191600, Note_on_c, 0, 60, 0
2, 16191600, Note_on_c, 0, 59, 100
2, 16191840, Note_on_c, 0, 59, 0
2, 16191840, Note_on_c, 0, 58, 100
2, 16192080, Note_on_c, 0, 58, 0
2, 16192080, Note_on_c, 0, 57, 100
2, 16192560, Note_on_c, 0, 57, 0
2, 16192560, Note_on_c, 0, 55, 100
2, 16192680, Note_on_c, 0, 55, 0
2, 16192680, Note_on_c, 0, 57, 100
2, 16192800, Note_on_c, 0, 57, 0
2, 16192800, Note_on_c, 0, 56, 100
2, 16193040, Note_on_c, 0, 56, 0
2, 16193040, Note_on_c, 0, 55, 100
2, 16193520, Note_on_c, 0, 55, 0
2, 16193520, Note_on_c, 0, 50, 100
2, 16193760, Note_on_c, 0, 50, 0
2, 16193760, Note_on_c, 0, 51, 100
2, 16194000, Note_on_c, 0, 51, 0
2, 16194000, Note_on_c, 0, 53, 100
2, 16194240, Note_on_c, 0, 53, 0
2, 16194240, Note_on_c, 0, 46, 100
2, 16194480, Note_on_c, 0, 46, 0
2, 16194480, Note_on_c, 0, 51, 100
2, 16195440, Note_on_c, 0, 51, 0
2, 16195440, Note_on_c, 0, 56, 100
2, 16195680, Note_on_c, 0, 56, 0
2, 16195680, Note_on_c, 0, 55, 100
2, 16196400, Note_on_c, 0, 55, 0
2, 16196400, Note_on_c, 0, 53, 100
2, 16196520, Note_on_c, 0, 53, 0
2, 16196520, Note_on_c, 0, 55, 100
2, 16196640, Note_on_c, 0, 55, 0
2, 16196640, Note_on_c, 0, 53, 100
2, 16197240, Note_on_c, 0, 53, 0
2, 16197240, Note_on_c, 0, 51, 100
2, 16197360, Note_on_c, 0, 51, 0
2, 16197360, Note_on_c, 0, 50, 100
2, 16197480, Note_on_c, 0, 50, 0
2, 16197480, Note_on_c, 0, 51, 100
2, 16197600, Note_on_c, 0, 51, 0
2, 16197600, Note_on_c, 0, 43, 100
2, 16197720, Note_on_c, 0, 43, 0
2, 16197720, Note_on_c, 0, 44, 100
2, 16197840, Note_on_c, 0, 44, 0
2, 16197840, Note_on_c, 0, 46, 100
2, 16197960, Note_on_c, 0, 46, 0
2, 16197960, Note_on_c, 0, 39, 100
2, 16198080, Note_on_c, 0, 39, 0
2, 16198080, Note_on_c, 0, 43, 100
2, 16198200, Note_on_c, 0, 43, 0
2, 16198200, Note_on_c, 0, 45, 100
2, 16198320, Note_on_c, 0, 45, 0
2, 16198320, Note_on_c, 0, 47, 100
2, 16198440, Note_on_c, 0, 47, 0
2, 16198440, Note_on_c, 0, 48, 100
2, 16199280, Note_on_c, 0, 48, 0
2, 16199280, Note_on_c, 0, 46, 100
2, 16200240, Note_on_c, 0, 46, 0
2, 16200240, Note_on_c, 0, 45, 100
2, 16200480, Note_on_c, 0, 45, 0
2, 16200480, Note_on_c, 0, 43, 100
2, 16200600, Note_on_c, 0, 43, 0
2, 16200600, Note_on_c, 0, 45, 100
2, 16200720, Note_on_c, 0, 45, 0
2, 16200720, Note_on_c, 0, 46, 100
2, 16200840, Note_on_c, 0, 46, 0
2, 16200840, Note_on_c, 0, 45, 100
2, 16200960, Note_on_c, 0, 45, 0
2, 16200960, Note_on_c, 0, 43, 100
2, 16201080, Note_on_c, 0, 43, 0
2, 16201080, Note_on_c, 0, 42, 100
2, 16201200, Note_on_c, 0, 42, 0
2, 16201200, Note_on_c, 0, 40, 100
2, 16201320, Note_on_c, 0, 40, 0
2, 16201320, Note_on_c, 0, 38, 100
2, 16201440, Note_on_c, 0, 38, 0
2, 16201440, Note_on_c, 0, 48, 100
2, 16201560, Note_on_c, 0, 48, 0
2, 16201560, Note_on_c, 0, 50, 100
2, 16201680, Note_on_c, 0, 50, 0
2, 16201680, Note_on_c, 0, 51, 100
2, 16201800, Note_on_c, 0, 51, 0
2, 16201800, Note_on_c, 0, 50, 100
2, 16201920, Note_on_c, 0, 50, 0
2, 16201920, Note_on_c, 0, 48, 100
2, 16202040, Note_on_c, 0, 48, 0
2, 16202040, Note_on_c, 0, 46, 100
2, 16202160, Note_on_c, 0, 46, 0
2, 16202160, Note_on_c, 0, 45, 100
2, 16202280, Note_on_c, 0, 45, 0
2, 16202280, Note_on_c, 0, 43, 100
2, 16202400, Note_on_c, 0, 43, 0
2, 16202400, Note_on_c, 0, 53, 100
2, 16202520, Note_on_c, 0, 53, 0
2, 16202520, Note_on_c, 0, 55, 100
2, 16202640, Note_on_c, 0, 55, 0
2, 16202640, Note_on_c, 0, 56, 100
2, 16202760, Note_on_c, 0, 56, 0
2, 16202760, Note_on_c, 0, 55, 100
2, 16202880, Note_on_c, 0, 55, 0
2, 16202880, Note_on_c, 0, 53, 100
2, 16203000, Note_on_c, 0, 53, 0
2, 16203000, Note_on_c, 0, 51, 100
2, 16203120, Note_on_c, 0, 51, 0
2, 16203120, Note_on_c, 0, 50, 100
2, 16203240, Note_on_c, 0, 50, 0
2, 16203240, Note_on_c, 0, 48, 100
2, 16203360, Note_on_c, 0, 48, 0
2, 16203360, Note_on_c, 0, 47, 100
2, 16203480, Note_on_c, 0, 47, 0
2, 16203480, Note_on_c, 0, 48, 100
2, 16203600, Note_on_c, 0, 48, 0
2, 16203600, Note_on_c, 0, 49, 100
2, 16203720, Note_on_c, 0, 49, 0
2, 16203720, Note_on_c, 0, 50, 100
2, 16203840, Note_on_c, 0, 50, 0
2, 16203840, Note_on_c, 0, 51, 100
2, 16203960, Note_on_c, 0, 51, 0
2, 16203960, Note_on_c, 0, 50, 100
2, 16204080, Note_on_c, 0, 50, 0
2, 16204080, Note_on_c, 0, 48, 100
2, 16204200, Note_on_c, 0, 48, 0
2, 16204200, Note_on_c, 0, 46, 100
2, 16204320, Note_on_c, 0, 46, 0
2, 16204320, Note_on_c, 0, 45, 100
2, 16204440, Note_on_c, 0, 45, 0
2, 16204440, Note_on_c, 0, 46, 100
2, 16204560, Note_on_c, 0, 46, 0
2, 16204560, Note_on_c, 0, 47, 100
2, 16204680, Note_on_c, 0, 47, 0
2, 16204680, Note_on_c, 0, 48, 100
2, 16204800, Note_on_c, 0, 48, 0
2, 16204800, Note_on_c, 0, 50, 100
2, 16205040, Note_on_c, 0, 50, 0
2, 16205040, Note_on_c, 0, 43, 100
2, 16205280, Note_on_c, 0, 43, 0
2, 16205280, Note_on_c, 0, 50, 100
2, 16205400, Note_on_c, 0, 50, 0
2, 16205400, Note_on_c, 0, 46, 100
2, 16205520, Note_on_c, 0, 46, 0
2, 16205520, Note_on_c, 0, 50, 100
2, 16205640, Note_on_c, 0, 50, 0
2, 16205640, Note_on_c, 0, 55, 100
2, 16205760, Note_on_c, 0, 55, 0
2, 16205760, Note_on_c, 0, 50, 100
2, 16205880, Note_on_c, 0, 50, 0
2, 16205880, Note_on_c, 0, 46, 100
2, 16206000, Note_on_c, 0, 46, 0
2, 16206000, Note_on_c, 0, 43, 100
2, 16206120, Note_on_c, 0, 43, 0
2, 16206120, Note_on_c, 0, 55, 100
2, 16421280, Note_on_c, 0, 55, 0
2, 16421280, Note_on_c, 0, 54, 100
2, 16422480, Note_on_c, 0, 54, 0
2, 16422480, Note_on_c, 0, 55, 100
2, 16422720, Note_on_c, 0, 55, 0
2, 16422720, Note_on_c, 0, 52, 100
2, 16423200, Note_on_c, 0, 52, 0
2, 16423200, Note_on_c, 0, 54, 100
2, 16423440, Note_on_c, 0, 54, 0
2, 16423440, Note_on_c, 0, 57, 100
2, 16424640, Note_on_c, 0, 57, 0
2, 16424640, Note_on_c, 0, 50, 100
2, 16424880, Note_on_c, 0, 50, 0
2, 16424880, Note_on_c, 0, 54, 100
2, 16425360, Note_on_c, 0, 54, 0
2, 16425360, Note_on_c, 0, 52, 100
2, 16425600, Note_on_c, 0, 52, 0
2, 16425600, Note_on_c, 0, 57, 100
2, 16427520, Note_on_c, 0, 57, 0
2, 16427520, Note_on_c, 0, 50, 100
2, 16427760, Note_on_c, 0, 50, 0
2, 16427760, Note_on_c, 0, 60, 100
2, 16429680, Note_on_c, 0, 60, 0
2, 16429680, Note_on_c, 0, 59, 100
2, 16429920, Note_on_c, 0, 59, 0
2, 16429920, Note_on_c, 0, 62, 100
2, 16431120, Note_on_c, 0, 62, 0
2, 16431120, Note_on_c, 0, 55, 100
2, 16431360, Note_on_c, 0, 55, 0
2, 16431360, Note_on_c, 0, 59, 100
2, 16431840, Note_on_c, 0, 59, 0
2, 16431840, Note_on_c, 0, 64, 100
2, 16432080, Note_on_c, 0, 64, 0
2, 16432080, Note_on_c, 0, 57, 100
2, 16433280, Note_on_c, 0, 57, 0
2, 16433280, Note_on_c, 0, 59, 100
2, 16433520, Note_on_c, 0, 59, 0
2, 16433520, Note_on_c, 0, 57, 100
2, 16433760, Note_on_c, 0, 57, 0
2, 16433760, Note_on_c, 0, 59, 100
2, 16434000, Note_on_c, 0, 59, 0
2, 16434000, Note_on_c, 0, 60, 100
2, 16434240, Note_on_c, 0, 60, 0
2, 16434240, Note_on_c, 0, 59, 100
2, 16434480, Note_on_c, 0, 59, 0
2, 16434480, Note_on_c, 0, 57, 100
2, 16434720, Note_on_c, 0, 57, 0
2, 16434720, Note_on_c, 0, 59, 100
2, 16434960, Note_on_c, 0, 59, 0
2, 16434960, Note_on_c, 0, 62, 100
2, 16435200, Note_on_c, 0, 62, 0
2, 16435200, Note_on_c, 0, 60, 100
2, 16435440, Note_on_c, 0, 60, 0
2, 16435440, Note_on_c, 0, 62, 100
2, 16435680, Note_on_c, 0, 62, 0
2, 16435680, Note_on_c, 0, 50, 100
2, 16436160, Note_on_c, 0, 50, 0
2, 16436160, Note_on_c, 0, 55, 100
2, 16436400, Note_on_c, 0, 55, 0
2, 16436400, Note_on_c, 0, 43, 100
2, 16437120, Note_on_c, 0, 43, 0
2, 16437120, Note_on_c, 0, 55, 100
2, 16437840, Note_on_c, 0, 55, 0
2, 16437840, Note_on_c, 0, 54, 100
2, 16438080, Note_on_c, 0, 54, 0
2, 16438080, Note_on_c, 0, 52, 100
2, 16438200, Note_on_c, 0, 52, 0
2, 16438200, Note_on_c, 0, 50, 100
2, 16438320, Note_on_c, 0, 50, 0
2, 16438320, Note_on_c, 0, 48, 100
2, 16438440, Note_on_c, 0, 48, 0
2, 16438440, Note_on_c, 0, 47, 100
2, 16438560, Note_on_c, 0, 47, 0
2, 16438560, Note_on_c, 0, 43, 100
2, 16438800, Note_on_c, 0, 43, 0
2, 16438800, Note_on_c, 0, 45, 100
2, 16439040, Note_on_c, 0, 45, 0
2, 16439040, Note_on_c, 0, 47, 100
2, 16439280, Note_on_c, 0, 47, 0
2, 16439280, Note_on_c, 0, 48, 100
2, 16439520, Note_on_c, 0, 48, 0
2, 16439520, Note_on_c, 0, 50, 100
2, 16439760, Note_on_c, 0, 50, 0
2, 16439760, Note_on_c, 0, 43, 100
2, 16440000, Note_on_c, 0, 43, 0
2, 16440000, Note_on_c, 0, 55, 100
2, 16440480, Note_on_c, 0, 55, 0
2, 16440480, Note_on_c, 0, 54, 100
2, 16440960, Note_on_c, 0, 54, 0
2, 16440960, Note_on_c, 0, 52, 100
2, 16441200, Note_on_c, 0, 52, 0
2, 16441200, Note_on_c, 0, 57, 100
2, 16441440, Note_on_c, 0, 57, 0
2, 16441440, Note_on_c, 0, 55, 100
2, 16441920, Note_on_c, 0, 55, 0
2, 16441920, Note_on_c, 0, 54, 100
2, 16442160, Note_on_c, 0, 54, 0
2, 16442160, Note_on_c, 0, 55, 100
2, 16442400, Note_on_c, 0, 55, 0
2, 16442400, Note_on_c, 0, 57, 100
2, 16442640, Note_on_c, 0, 57, 0
2, 16442640, Note_on_c, 0, 59, 100
2, 16442880, Note_on_c, 0, 59, 0
2, 16442880, Note_on_c, 0, 57, 100
2, 16444080, Note_on_c, 0, 57, 0
2, 16444080, Note_on_c, 0, 55, 100
2, 16444320, Note_on_c, 0, 55, 0
2, 16444320, Note_on_c, 0, 52, 100
2, 16444800, Note_on_c, 0, 52, 0
2, 16444800, Note_on_c, 0, 45, 100
2, 16445040, Note_on_c, 0, 45, 0
2, 16445040, Note_on_c, 0, 55, 100
2, 16446240, Note_on_c, 0, 55, 0
2, 16446240, Note_on_c, 0, 54, 100
2, 16446480, Note_on_c, 0, 54, 0
2, 16446480, Note_on_c, 0, 52, 100
2, 16446960, Note_on_c, 0, 52, 0
2, 16446960, Note_on_c, 0, 54, 100
2, 16447200, Note_on_c, 0, 54, 0
2, 16447200, Note_on_c, 0, 57, 100
2, 16447680, Note_on_c, 0, 57, 0
2, 16447680, Note_on_c, 0, 59, 100
2, 16447920, Note_on_c, 0, 59, 0
2, 16447920, Note_on_c, 0, 61, 100
2, 16448400, Note_on_c, 0, 61, 0
2, 16448400, Note_on_c, 0, 62, 100
2, 16448640, Note_on_c, 0, 62, 0
2, 16448640, Note_on_c, 0, 50, 100
2, 16449120, Note_on_c, 0, 50, 0
2, 16449120, Note_on_c, 0, 55, 100
2, 16449360, Note_on_c, 0, 55, 0
2, 16449360, Note_on_c, 0, 47, 100
2, 16449840, Note_on_c, 0, 47, 0
2, 16449840, Note_on_c, 0, 49, 100
2, 16450080, Note_on_c, 0, 49, 0
2, 16450080, Note_on_c, 0, 50, 100
2, 16450320, Note_on_c, 0, 50, 0
2, 16450320, Note_on_c, 0, 52, 100
2, 16450560, Note_on_c, 0, 52, 0
2, 16450560, Note_on_c, 0, 54, 100
2, 16450800, Note_on_c, 0, 54, 0
2, 16450800, Note_on_c, 0, 52, 100
2, 16451040, Note_on_c, 0, 52, 0
2, 16451040, Note_on_c, 0, 54, 100
2, 16451280, Note_on_c, 0, 54, 0
2, 16451280, Note_on_c, 0, 55, 100
2, 16451520, Note_on_c, 0, 55, 0
2, 16451520, Note_on_c, 0, 54, 100
2, 16451760, Note_on_c, 0, 54, 0
2, 16451760, Note_on_c, 0, 52, 100
2, 16452000, Note_on_c, 0, 52, 0
2, 16452000, Note_on_c, 0, 54, 100
2, 16452240, Note_on_c, 0, 54, 0
2, 16452240, Note_on_c, 0, 57, 100
2, 16452480, Note_on_c, 0, 57, 0
2, 16452480, Note_on_c, 0, 55, 100
2, 16452720, Note_on_c, 0, 55, 0
2, 16452720, Note_on_c, 0, 57, 100
2, 16452960, Note_on_c, 0, 57, 0
2, 16452960, Note_on_c, 0, 45, 100
2, 16453440, Note_on_c, 0, 45, 0
2, 16453440, Note_on_c, 0, 50, 100
2, 16453680, Note_on_c, 0, 50, 0
2, 16453680, Note_on_c, 0, 38, 100
2, 16454400, Note_on_c, 0, 38, 0
2, 16454400, Note_on_c, 0, 50, 100
2, 16455120, Note_on_c, 0, 50, 0
2, 16455120, Note_on_c, 0, 55, 100
2, 16455840, Note_on_c, 0, 55, 0
2, 16455840, Note_on_c, 0, 54, 100
2, 16457040, Note_on_c, 0, 54, 0
2, 16457040, Note_on_c, 0, 55, 100
2, 16457280, Note_on_c, 0, 55, 0
2, 16457280, Note_on_c, 0, 52, 100
2, 16457760, Note_on_c, 0, 52, 0
2, 16457760, Note_on_c, 0, 54, 100
2, 16458000, Note_on_c, 0, 54, 0
2, 16458000, Note_on_c, 0, 57, 100
2, 16459200, Note_on_c, 0, 57, 0
2, 16459200, Note_on_c, 0, 50, 100
2, 16459440, Note_on_c, 0, 50, 0
2, 16459440, Note_on_c, 0, 54, 100
2, 16459920, Note_on_c, 0, 54, 0
2, 16459920, Note_on_c, 0, 52, 100
2, 16460160, Note_on_c, 0, 52, 0
2, 16460160, Note_on_c, 0, 57, 100
2, 16462080, Note_on_c, 0, 57, 0
2, 16462080, Note_on_c, 0, 50, 100
2, 16462320, Note_on_c, 0, 50, 0
2, 16462320, Note_on_c, 0, 60, 100
2, 16464240, Note_on_c, 0, 60, 0
2, 16464240, Note_on_c, 0, 59, 100
2, 16464480, Note_on_c, 0, 59, 0
2, 16464480, Note_on_c, 0, 62, 100
2, 16465680, Note_on_c, 0, 62, 0
2, 16465680, Note_on_c, 0, 55, 100
2, 16465920, Note_on_c, 0, 55, 0
2, 16465920, Note_on_c, 0, 59, 100
2, 16466400, Note_on_c, 0, 59, 0
2, 16466400, Note_on_c, 0, 64, 100
2, 16466640, Note_on_c, 0, 64, 0
2, 16466640, Note_on_c, 0, 57, 100
2, 16467840, Note_on_c, 0, 57, 0
2, 16467840, Note_on_c, 0, 59, 100
2, 16468080, Note_on_c, 0, 59, 0
2, 16468080, Note_on_c, 0, 57, 100
2, 16468320, Note_on_c, 0, 57, 0
2, 16468320, Note_on_c, 0, 59, 100
2, 16468560, Note_on_c, 0, 59, 0
2, 16468560, Note_on_c, 0, 60, 100
2, 16468800, Note_on_c, 0, 60, 0
2, 16468800, Note_on_c, 0, 59, 100
2, 16469040, Note_on_c, 0, 59, 0
2, 16469040, Note_on_c, 0, 57, 100
2, 16469280, Note_on_c, 0, 57, 0
2, 16469280, Note_on_c, 0, 59, 100
2, 16469520, Note_on_c, 0, 59, 0
2, 16469520, Note_on_c, 0, 62, 100
2, 16469760, Note_on_c, 0, 62, 0
2, 16469760, Note_on_c, 0, 60, 100
2, 16470000, Note_on_c, 0, 60, 0
2, 16470000, Note_on_c, 0, 62, 100
2, 16470240, Note_on_c, 0, 62, 0
2, 16470240, Note_on_c, 0, 50, 100
2, 16470720, Note_on_c, 0, 50, 0
2, 16470720, Note_on_c, 0, 55, 100
2, 16470960, Note_on_c, 0, 55, 0
2, 16470960, Note_on_c, 0, 43, 100
2, 16471680, Note_on_c, 0, 43, 0
2, 16471680, Note_on_c, 0, 55, 100
2, 16472400, Note_on_c, 0, 55, 0
2, 16472400, Note_on_c, 0, 54, 100
2, 16472640, Note_on_c, 0, 54, 0
2, 16472640, Note_on_c, 0, 52, 100
2, 16472760, Note_on_c, 0, 52, 0
2, 16472760, Note_on_c, 0, 50, 100
2, 16472880, Note_on_c, 0, 50, 0
2, 16472880, Note_on_c, 0, 48, 100
2, 16473000, Note_on_c, 0, 48, 0
2, 16473000, Note_on_c, 0, 47, 100
2, 16473120, Note_on_c, 0, 47, 0
2, 16473120, Note_on_c, 0, 43, 100
2, 16473360, Note_on_c, 0, 43, 0
2, 16473360, Note_on_c, 0, 45, 100
2, 16473600, Note_on_c, 0, 45, 0
2, 16473600, Note_on_c, 0, 47, 100
2, 16473840, Note_on_c, 0, 47, 0
2, 16473840, Note_on_c, 0, 48, 100
2, 16474080, Note_on_c, 0, 48, 0
2, 16474080, Note_on_c, 0, 50, 100
2, 16474320, Note_on_c, 0, 50, 0
2, 16474320, Note_on_c, 0, 43, 100
2, 16474560, Note_on_c, 0, 43, 0
2, 16474560, Note_on_c, 0, 55, 100
2, 16475040, Note_on_c, 0, 55, 0
2, 16475040, Note_on_c, 0, 54, 100
2, 16475520, Note_on_c, 0, 54, 0
2, 16475520, Note_on_c, 0, 52, 100
2, 16475760, Note_on_c, 0, 52, 0
2, 16475760, Note_on_c, 0, 57, 100
2, 16476000, Note_on_c, 0, 57, 0
2, 16476000, Note_on_c, 0, 55, 100
2, 16476480, Note_on_c, 0, 55, 0
2, 16476480, Note_on_c, 0, 54, 100
2, 16476720, Note_on_c, 0, 54, 0
2, 16476720, Note_on_c, 0, 55, 100
2, 16476960, Note_on_c, 0, 55, 0
2, 16476960, Note_on_c, 0, 57, 100
2, 16477200, Note_on_c, 0, 57, 0
2, 16477200, Note_on_c, 0, 59, 100
2, 16477440, Note_on_c, 0, 59, 0
2, 16477440, Note_on_c, 0, 57, 100
2, 16478640, Note_on_c, 0, 57, 0
2, 16478640, Note_on_c, 0, 55, 100
2, 16478880, Note_on_c, 0, 55, 0
2, 16478880, Note_on_c, 0, 52, 100
2, 16479360, Note_on_c, 0, 52, 0
2, 16479360, Note_on_c, 0, 45, 100
2, 16479600, Note_on_c, 0, 45, 0
2, 16479600, Note_on_c, 0, 55, 100
2, 16480800, Note_on_c, 0, 55, 0
2, 16480800, Note_on_c, 0, 54, 100
2, 16481040, Note_on_c, 0, 54, 0
2, 16481040, Note_on_c, 0, 52, 100
2, 16481520, Note_on_c, 0, 52, 0
2, 16481520, Note_on_c, 0, 54, 100
2, 16481760, Note_on_c, 0, 54, 0
2, 16481760, Note_on_c, 0, 57, 100
2, 16482240, Note_on_c, 0, 57, 0
2, 16482240, Note_on_c, 0, 59, 100
2, 16482480, Note_on_c, 0, 59, 0
2, 16482480, Note_on_c, 0, 61, 100
2, 16482960, Note_on_c, 0, 61, 0
2, 16482960, Note_on_c, 0, 62, 100
2, 16483200, Note_on_c, 0, 62, 0
2, 16483200, Note_on_c, 0, 50, 100
2, 16483680, Note_on_c, 0, 50, 0
2, 16483680, Note_on_c, 0, 55, 100
2, 16483920, Note_on_c, 0, 55, 0
2, 16483920, Note_on_c, 0, 47, 100
2, 16484400, Note_on_c, 0, 47, 0
2, 16484400, Note_on_c, 0, 49, 100
2, 16484640, Note_on_c, 0, 49, 0
2, 16484640, Note_on_c, 0, 50, 100
2, 16484880, Note_on_c, 0, 50, 0
2, 16484880, Note_on_c, 0, 52, 100
2, 16485120, Note_on_c, 0, 52, 0
2, 16485120, Note_on_c, 0, 54, 100
2, 16485360, Note_on_c, 0, 54, 0
2, 16485360, Note_on_c, 0, 52, 100
2, 16485600, Note_on_c, 0, 52, 0
2, 16485600, Note_on_c, 0, 54, 100
2, 16485840, Note_on_c, 0, 54, 0
2, 16485840, Note_on_c, 0, 55, 100
2, 16486080, Note_on_c, 0, 55, 0
2, 16486080, Note_on_c, 0, 54, 100
2, 16486320, Note_on_c, 0, 54, 0
2, 16486320, Note_on_c, 0, 52, 100
2, 16486560, Note_on_c, 0, 52, 0
2, 16486560, Note_on_c, 0, 54, 100
2, 16486800, Note_on_c, 0, 54, 0
2, 16486800, Note_on_c, 0, 57, 100
2, 16487040, Note_on_c, 0, 57, 0
2, 16487040, Note_on_c, 0, 55, 100
2, 16487280, Note_on_c, 0, 55, 0
2, 16487280, Note_on_c, 0, 57, 100
2, 16487520, Note_on_c, 0, 57, 0
2, 16487520, Note_on_c, 0, 45, 100
2, 16488000, Note_on_c, 0, 45, 0
2, 16488000, Note_on_c, 0, 50, 100
2, 16488240, Note_on_c, 0, 50, 0
2, 16488240, Note_on_c, 0, 38, 100
2, 16488960, Note_on_c, 0, 38, 0
2, 16488960, Note_on_c, 0, 50, 100
2, 16490400, Note_on_c, 0, 50, 0
2, 16490400, Note_on_c, 0, 54, 100
2, 16490640, Note_on_c, 0, 54, 0
2, 16490640, Note_on_c, 0, 57, 100
2, 16490880, Note_on_c, 0, 57, 0
2, 16490880, Note_on_c, 0, 62, 100
2, 16491120, Note_on_c, 0, 62, 0
2, 16491120, Note_on_c, 0, 64, 100
2, 16491360, Note_on_c, 0, 64, 0
2, 16491360, Note_on_c, 0, 62, 100
2, 16491480, Note_on_c, 0, 62, 0
2, 16491480, Note_on_c, 0, 60, 100
2, 16491600, Note_on_c, 0, 60, 0
2, 16491600, Note_on_c, 0, 59, 100
2, 16491720, Note_on_c, 0, 59, 0
2, 16491720, Note_on_c, 0, 60, 100
2, 16491840, Note_on_c, 0, 60, 0
2, 16491840, Note_on_c, 0, 62, 100
2, 16492080, Note_on_c, 0, 62, 0
2, 16492080, Note_on_c, 0, 60, 100
2, 16492200, Note_on_c, 0, 60, 0
2, 16492200, Note_on_c, 0, 59, 100
2, 16492320, Note_on_c, 0, 59, 0
2, 16492320, Note_on_c, 0, 57, 100
2, 16492440, Note_on_c, 0, 57, 0
2, 16492440, Note_on_c, 0, 59, 100
2, 16492560, Note_on_c, 0, 59, 0
2, 16492560, Note_on_c, 0, 60, 100
2, 16493520, Note_on_c, 0, 60, 0
2, 16493520, Note_on_c, 0, 62, 100
2, 16493760, Note_on_c, 0, 62, 0
2, 16493760, Note_on_c, 0, 55, 100
2, 16494000, Note_on_c, 0, 55, 0
2, 16494000, Note_on_c, 0, 57, 100
2, 16494240, Note_on_c, 0, 57, 0
2, 16494240, Note_on_c, 0, 59, 100
2, 16494480, Note_on_c, 0, 59, 0
2, 16494480, Note_on_c, 0, 60, 100
2, 16494720, Note_on_c, 0, 60, 0
2, 16494720, Note_on_c, 0, 57, 100
2, 16495440, Note_on_c, 0, 57, 0
2, 16495440, Note_on_c, 0, 54, 100
2, 16496160, Note_on_c, 0, 54, 0
2, 16496160, Note_on_c, 0, 51, 100
2, 16496880, Note_on_c, 0, 51, 0
2, 16496880, Note_on_c, 0, 54, 100
2, 16497360, Note_on_c, 0, 54, 0
2, 16497360, Note_on_c, 0, 59, 100
2, 16497600, Note_on_c, 0, 59, 0
2, 16497600, Note_on_c, 0, 55, 100
2, 16498560, Note_on_c, 0, 55, 0
2, 16498560, Note_on_c, 0, 57, 100
2, 16498800, Note_on_c, 0, 57, 0
2, 16498800, Note_on_c, 0, 55, 100
2, 16499040, Note_on_c, 0, 55, 0
2, 16499040, Note_on_c, 0, 52, 100
2, 16499760, Note_on_c, 0, 52, 0
2, 16499760, Note_on_c, 0, 48, 100
2, 16500480, Note_on_c, 0, 48, 0
2, 16500480, Note_on_c, 0, 45, 100
2, 16501200, Note_on_c, 0, 45, 0
2, 16501200, Note_on_c, 0, 46, 100
2, 16501680, Note_on_c, 0, 46, 0
2, 16501680, Note_on_c, 0, 47, 100
2, 16501920, Note_on_c, 0, 47, 0
2, 16501920, Note_on_c, 0, 60, 100
2, 16502160, Note_on_c, 0, 60, 0
2, 16502160, Note_on_c, 0, 59, 100
2, 16502280, Note_on_c, 0, 59, 0
2, 16502280, Note_on_c, 0, 57, 100
2, 16502400, Note_on_c, 0, 57, 0
2, 16502400, Note_on_c, 0, 55, 100
2, 16502520, Note_on_c, 0, 55, 0
2, 16502520, Note_on_c, 0, 57, 100
2, 16502640, Note_on_c, 0, 57, 0
2, 16502640, Note_on_c, 0, 59, 100
2, 16502880, Note_on_c, 0, 59, 0
2, 16502880, Note_on_c, 0, 57, 100
2, 16503000, Note_on_c, 0, 57, 0
2, 16503000, Note_on_c, 0, 55, 100
2, 16503120, Note_on_c, 0, 55, 0
2, 16503120, Note_on_c, 0, 54, 100
2, 16503240, Note_on_c, 0, 54, 0
2, 16503240, Note_on_c, 0, 55, 100
2, 16503360, Note_on_c, 0, 55, 0
2, 16503360, Note_on_c, 0, 57, 100
2, 16503600, Note_on_c, 0, 57, 0
2, 16503600, Note_on_c, 0, 55, 100
2, 16503720, Note_on_c, 0, 55, 0
2, 16503720, Note_on_c, 0, 54, 100
2, 16503840, Note_on_c, 0, 54, 0
2, 16503840, Note_on_c, 0, 52, 100
2, 16503960, Note_on_c, 0, 52, 0
2, 16503960, Note_on_c, 0, 60, 100
2, 16504080, Note_on_c, 0, 60, 0
2, 16504080, Note_on_c, 0, 51, 100
2, 16504320, Note_on_c, 0, 51, 0
2, 16504320, Note_on_c, 0, 52, 100
2, 16504560, Note_on_c, 0, 52, 0
2, 16504560, Note_on_c, 0, 47, 100
2, 16504800, Note_on_c, 0, 47, 0
2, 16504800, Note_on_c, 0, 52, 100
2, 16505040, Note_on_c, 0, 52, 0
2, 16505040, Note_on_c, 0, 51, 100
2, 16505280, Note_on_c, 0, 51, 0
2, 16505280, Note_on_c, 0, 52, 100
2, 16505520, Note_on_c, 0, 52, 0
2, 16505520, Note_on_c, 0, 50, 100
2, 16505580, Note_on_c, 0, 50, 0
2, 16505580, Note_on_c, 0, 52, 100
2, 16505640, Note_on_c, 0, 52, 0
2, 16505640, Note_on_c, 0, 55, 100
2, 16506480, Note_on_c, 0, 55, 0
2, 16506480, Note_on_c, 0, 59, 100
2, 16506720, Note_on_c, 0, 59, 0
2, 16506720, Note_on_c, 0, 64, 100
2, 16506960, Note_on_c, 0, 64, 0
2, 16506960, Note_on_c, 0, 62, 100
2, 16507440, Note_on_c, 0, 62, 0
2, 16507440, Note_on_c, 0, 60, 100
2, 16507680, Note_on_c, 0, 60, 0
2, 16507680, Note_on_c, 0, 59, 100
2, 16508640, Note_on_c, 0, 59, 0
2, 16508640, Note_on_c, 0, 60, 100
2, 16508880, Note_on_c, 0, 60, 0
2, 16508880, Note_on_c, 0, 54, 100
2, 16509120, Note_on_c, 0, 54, 0
2, 16509120, Note_on_c, 0, 55, 100
2, 16509360, Note_on_c, 0, 55, 0
2, 16509360, Note_on_c, 0, 57, 100
2, 16509600, Note_on_c, 0, 57, 0
2, 16509600, Note_on_c, 0, 59, 100
2, 16509840, Note_on_c, 0, 59, 0
2, 16509840, Note_on_c, 0, 50, 100
2, 16510080, Note_on_c, 0, 50, 0
2, 16510080, Note_on_c, 0, 54, 100
2, 16510320, Note_on_c, 0, 54, 0
2, 16510320, Note_on_c, 0, 47, 100
2, 16510560, Note_on_c, 0, 47, 0
2, 16510560, Note_on_c, 0, 48, 100
2, 16510800, Note_on_c, 0, 48, 0
2, 16510800, Note_on_c, 0, 50, 100
2, 16511040, Note_on_c, 0, 50, 0
2, 16511040, Note_on_c, 0, 43, 100
2, 16511280, Note_on_c, 0, 43, 0
2, 16511280, Note_on_c, 0, 45, 100
2, 16511520, Note_on_c, 0, 45, 0
2, 16511520, Note_on_c, 0, 47, 100
2, 16511760, Note_on_c, 0, 47, 0
2, 16511760, Note_on_c, 0, 48, 100
2, 16513440, Note_on_c, 0, 48, 0
2, 16513440, Note_on_c, 0, 50, 100
2, 16514400, Note_on_c, 0, 50, 0
2, 16514400, Note_on_c, 0, 48, 100
2, 16514520, Note_on_c, 0, 48, 0
2, 16514520, Note_on_c, 0, 47, 100
2, 16514640, Note_on_c, 0, 47, 0
2, 16514640, Note_on_c, 0, 45, 100
2, 16514760, Note_on_c, 0, 45, 0
2, 16514760, Note_on_c, 0, 47, 100
2, 16514880, Note_on_c, 0, 47, 0
2, 16514880, Note_on_c, 0, 48, 100
2, 16515120, Note_on_c, 0, 48, 0
2, 16515120, Note_on_c, 0, 50, 100
2, 16515360, Note_on_c, 0, 50, 0
2, 16515360, Note_on_c, 0, 43, 100
2, 16515600, Note_on_c, 0, 43, 0
2, 16515600, Note_on_c, 0, 45, 100
2, 16515840, Note_on_c, 0, 45, 0
2, 16515840, Note_on_c, 0, 47, 100
2, 16516080, Note_on_c, 0, 47, 0
2, 16516080, Note_on_c, 0, 40, 100
2, 16516320, Note_on_c, 0, 40, 0
2, 16516320, Note_on_c, 0, 52, 100
2, 16517040, Note_on_c, 0, 52, 0
2, 16517040, Note_on_c, 0, 45, 100
2, 16517760, Note_on_c, 0, 45, 0
2, 16517760, Note_on_c, 0, 43, 100
2, 16518480, Note_on_c, 0, 43, 0
2, 16518480, Note_on_c, 0, 45, 100
2, 16518720, Note_on_c, 0, 45, 0
2, 16518720, Note_on_c, 0, 47, 100
2, 16518960, Note_on_c, 0, 47, 0
2, 16518960, Note_on_c, 0, 48, 100
2, 16519200, Note_on_c, 0, 48, 0
2, 16519200, Note_on_c, 0, 47, 100
2, 16519440, Note_on_c, 0, 47, 0
2, 16519440, Note_on_c, 0, 45, 100
2, 16519680, Note_on_c, 0, 45, 0
2, 16519680, Note_on_c, 0, 47, 100
2, 16519920, Note_on_c, 0, 47, 0
2, 16519920, Note_on_c, 0, 43, 100
2, 16520160, Note_on_c, 0, 43, 0
2, 16520160, Note_on_c, 0, 45, 100
2, 16520400, Note_on_c, 0, 45, 0
2, 16520400, Note_on_c, 0, 47, 100
2, 16520640, Note_on_c, 0, 47, 0
2, 16520640, Note_on_c, 0, 45, 100
2, 16521600, Note_on_c, 0, 45, 0
2, 16521600, Note_on_c, 0, 43, 100
2, 16521840, Note_on_c, 0, 43, 0
2, 16521840, Note_on_c, 0, 50, 100
2, 16522080, Note_on_c, 0, 50, 0
2, 16522080, Note_on_c, 0, 38, 100
2, 16522560, Note_on_c, 0, 38, 0
2, 16522560, Note_on_c, 0, 43, 100
2, 16522800, Note_on_c, 0, 43, 0
2, 16522800, Note_on_c, 0, 31, 100
2, 16523520, Note_on_c, 0, 31, 0
2, 16523520, Note_on_c, 0, 43, 100
2, 16524240, Note_on_c, 0, 43, 0
2, 16524240, Note_on_c, 0, 50, 100
2, 16524960, Note_on_c, 0, 50, 0
2, 16524960, Note_on_c, 0, 54, 100
2, 16525200, Note_on_c, 0, 54, 0
2, 16525200, Note_on_c, 0, 57, 100
2, 16525440, Note_on_c, 0, 57, 0
2, 16525440, Note_on_c, 0, 62, 100
2, 16525680, Note_on_c, 0, 62, 0
2, 16525680, Note_on_c, 0, 64, 100
2, 16525920, Note_on_c, 0, 64, 0
2, 16525920, Note_on_c, 0, 62, 100
2, 16526040, Note_on_c, 0, 62, 0
2, 16526040, Note_on_c, 0, 60, 100
2, 16526160, Note_on_c, 0, 60, 0
2, 16526160, Note_on_c, 0, 59, 100
2, 16526280, Note_on_c, 0, 59, 0
2, 16526280, Note_on_c, 0, 60, 100
2, 16526400, Note_on_c, 0, 60, 0
2, 16526400, Note_on_c, 0, 62, 100
2, 16526640, Note_on_c, 0, 62, 0
2, 16526640, Note_on_c, 0, 60, 100
2, 16526760, Note_on_c, 0, 60, 0
2, 16526760, Note_on_c, 0, 59, 100
2, 16526880, Note_on_c, 0, 59, 0
2, 16526880, Note_on_c, 0, 57, 100
2, 16527000, Note_on_c, 0, 57, 0
2, 16527000, Note_on_c, 0, 59, 100
2, 16527120, Note_on_c, 0, 59, 0
2, 16527120, Note_on_c, 0, 60, 100
2, 16528080, Note_on_c, 0, 60, 0
2, 16528080, Note_on_c, 0, 62, 100
2, 16528320, Note_on_c, 0, 62, 0
2, 16528320, Note_on_c, 0, 55, 100
2, 16528560, Note_on_c, 0, 55, 0
2, 16528560, Note_on_c, 0, 57, 100
2, 16528800, Note_on_c, 0, 57, 0
2, 16528800, Note_on_c, 0, 59, 100
2, 16529040, Note_on_c, 0, 59, 0
2, 16529040, Note_on_c, 0, 60, 100
2, 16529280, Note_on_c, 0, 60, 0
2, 16529280, Note_on_c, 0, 57, 100
2, 16530000, Note_on_c, 0, 57, 0
2, 16530000, Note_on_c, 0, 54, 100
2, 16530720, Note_on_c, 0, 54, 0
2, 16530720, Note_on_c, 0, 51, 100
2, 16531440, Note_on_c, 0, 51, 0
2, 16531440, Note_on_c, 0, 54, 100
2, 16531920, Note_on_c, 0, 54, 0
2, 16531920, Note_on_c, 0, 59, 100
2, 16532160, Note_on_c, 0, 59, 0
2, 16532160, Note_on_c, 0, 55, 100
2, 16533120, Note_on_c, 0, 55, 0
2, 16533120, Note_on_c, 0, 57, 100
2, 16533360, Note_on_c, 0, 57, 0
2, 16533360, Note_on_c, 0, 55, 100
2, 16533600, Note_on_c, 0, 55, 0
2, 16533600, Note_on_c, 0, 52, 100
2, 16534320, Note_on_c, 0, 52, 0
2, 16534320, Note_on_c, 0, 48, 100
2, 16535040, Note_on_c, 0, 48, 0
2, 16535040, Note_on_c, 0, 45, 100
2, 16535760, Note_on_c, 0, 45, 0
2, 16535760, Note_on_c, 0, 46, 100
2, 16536240, Note_on_c, 0, 46, 0
2, 16536240, Note_on_c, 0, 47, 100
2, 16536480, Note_on_c, 0, 47, 0
2, 16536480, Note_on_c, 0, 60, 100
2, 16536720, Note_on_c, 0, 60, 0
2, 16536720, Note_on_c, 0, 59, 100
2, 16536840, Note_on_c, 0, 59, 0
2, 16536840, Note_on_c, 0, 57, 100
2, 16536960, Note_on_c, 0, 57, 0
2, 16536960, Note_on_c, 0, 55, 100
2, 16537080, Note_on_c, 0, 55, 0
2, 16537080, Note_on_c, 0, 57, 100
2, 16537200, Note_on_c, 0, 57, 0
2, 16537200, Note_on_c, 0, 59, 100
2, 16537440, Note_on_c, 0, 59, 0
2, 16537440, Note_on_c, 0, 57, 100
2, 16537560, Note_on_c, 0, 57, 0
2, 16537560, Note_on_c, 0, 55, 100
2, 16537680, Note_on_c, 0, 55, 0
2, 16537680, Note_on_c, 0, 54, 100
2, 16537800, Note_on_c, 0, 54, 0
2, 16537800, Note_on_c, 0, 55, 100
2, 16537920, Note_on_c, 0, 55, 0
2, 16537920, Note_on_c, 0, 57, 100
2, 16538160, Note_on_c, 0, 57, 0
2, 16538160, Note_on_c, 0, 55, 100
2, 16538280, Note_on_c, 0, 55, 0
2, 16538280, Note_on_c, 0, 54, 100
2, 16538400, Note_on_c, 0, 54, 0
2, 16538400, Note_on_c, 0, 52, 100
2, 16538520, Note_on_c, 0, 52, 0
2, 16538520, Note_on_c, 0, 60, 100
2, 16538640, Note_on_c, 0, 60, 0
2, 16538640, Note_on_c, 0, 51, 100
2, 16538880, Note_on_c, 0, 51, 0
2, 16538880, Note_on_c, 0, 52, 100
2, 16539120, Note_on_c, 0, 52, 0
2, 16539120, Note_on_c, 0, 47, 100
2, 16539360, Note_on_c, 0, 47, 0
2, 16539360, Note_on_c, 0, 52, 100
2, 16539600, Note_on_c, 0, 52, 0
2, 16539600, Note_on_c, 0, 51, 100
2, 16539840, Note_on_c, 0, 51, 0
2, 16539840, Note_on_c, 0, 52, 100
2, 16540080, Note_on_c, 0, 52, 0
2, 16540080, Note_on_c, 0, 50, 100
2, 16540140, Note_on_c, 0, 50, 0
2, 16540140, Note_on_c, 0, 52, 100
2, 16540200, Note_on_c, 0, 52, 0
2, 16540200, Note_on_c, 0, 55, 100
2, 16541040, Note_on_c, 0, 55, 0
2, 16541040, Note_on_c, 0, 59, 100
2, 16541280, Note_on_c, 0, 59, 0
2, 16541280, Note_on_c, 0, 64, 100
2, 16541520, Note_on_c, 0, 64, 0
2, 16541520, Note_on_c, 0, 62, 100
2, 16542000, Note_on_c, 0, 62, 0
2, 16542000, Note_on_c, 0, 60, 100
2, 16542240, Note_on_c, 0, 60, 0
2, 16542240, Note_on_c, 0, 59, 100
2, 16543200, Note_on_c, 0, 59, 0
2, 16543200, Note_on_c, 0, 60, 100
2, 16543440, Note_on_c, 0, 60, 0
2, 16543440, Note_on_c, 0, 54, 100
2, 16543680, Note_on_c, 0, 54, 0
2, 16543680, Note_on_c, 0, 55, 100
2, 16543920, Note_on_c, 0, 55, 0
2, 16543920, Note_on_c, 0, 57, 100
2, 16544160, Note_on_c, 0, 57, 0
2, 16544160, Note_on_c, 0, 59, 100
2, 16544400, Note_on_c, 0, 59, 0
2, 16544400, Note_on_c, 0, 50, 100
2, 16544640, Note_on_c, 0, 50, 0
2, 16544640, Note_on_c, 0, 54, 100
2, 16544880, Note_on_c, 0, 54, 0
2, 16544880, Note_on_c, 0, 47, 100
2, 16545120, Note_on_c, 0, 47, 0
2, 16545120, Note_on_c, 0, 48, 100
2, 16545360, Note_on_c, 0, 48, 0
2, 16545360, Note_on_c, 0, 50, 100
2, 16545600, Note_on_c, 0, 50, 0
2, 16545600, Note_on_c, 0, 43, 100
2, 16545840, Note_on_c, 0, 43, 0
2, 16545840, Note_on_c, 0, 45, 100
2, 16546080, Note_on_c, 0, 45, 0
2, 16546080, Note_on_c, 0, 47, 100
2, 16546320, Note_on_c, 0, 47, 0
2, 16546320, Note_on_c, 0, 48, 100
2, 16548000, Note_on_c, 0, 48, 0
2, 16548000, Note_on_c, 0, 50, 100
2, 16548960, Note_on_c, 0, 50, 0
2, 16548960, Note_on_c, 0, 48, 100
2, 16549080, Note_on_c, 0, 48, 0
2, 16549080, Note_on_c, 0, 47, 100
2, 16549200, Note_on_c, 0, 47, 0
2, 16549200, Note_on_c, 0, 45, 100
2, 16549320, Note_on_c, 0, 45, 0
2, 16549320, Note_on_c, 0, 47, 100
2, 16549440, Note_on_c, 0, 47, 0
2, 16549440, Note_on_c, 0, 48, 100
2, 16549680, Note_on_c, 0, 48, 0
2, 16549680, Note_on_c, 0, 50, 100
2, 16549920, Note_on_c, 0, 50, 0
2, 16549920, Note_on_c, 0, 43, 100
2, 16550160, Note_on_c, 0, 43, 0
2, 16550160, Note_on_c, 0, 45, 100
2, 16550400, Note_on_c, 0, 45, 0
2, 16550400, Note_on_c, 0, 47, 100
2, 16550640, Note_on_c, 0, 47, 0
2, 16550640, Note_on_c, 0, 40, 100
2, 16550880, Note_on_c, 0, 40, 0
2, 16550880, Note_on_c, 0, 52, 100
2, 16551600, Note_on_c, 0, 52, 0
2, 16551600, Note_on_c, 0, 45, 100
2, 16552320, Note_on_c, 0, 45, 0
2, 16552320, Note_on_c, 0, 43, 100
2, 16553040, Note_on_c, 0, 43, 0
2, 16553040, Note_on_c, 0, 45, 100
2, 16553280, Note_on_c, 0, 45, 0
2, 16553280, Note_on_c, 0, 47, 100
2, 16553520, Note_on_c, 0, 47, 0
2, 16553520, Note_on_c, 0, 48, 100
2, 16553760, Note_on_c, 0, 48, 0
2, 16553760, Note_on_c, 0, 47, 100
2, 16554000, Note_on_c, 0, 47, 0
2, 16554000, Note_on_c, 0, 45, 100
2, 16554240, Note_on_c, 0, 45, 0
2, 16554240, Note_on_c, 0, 47, 100
2, 16554480, Note_on_c, 0, 47, 0
2, 16554480, Note_on_c, 0, 43, 100
2, 16554720, Note_on_c, 0, 43, 0
2, 16554720, Note_on_c, 0, 45, 100
2, 16554960, Note_on_c, 0, 45, 0
2, 16554960, Note_on_c, 0, 47, 100
2, 16555200, Note_on_c, 0, 47, 0
2, 16555200, Note_on_c, 0, 45, 100
2, 16556160, Note_on_c, 0, 45, 0
2, 16556160, Note_on_c, 0, 43, 100
2, 16556400, Note_on_c, 0, 43, 0
2, 16556400, Note_on_c, 0, 50, 100
2, 16556640, Note_on_c, 0, 50, 0
2, 16556640, Note_on_c, 0, 38, 100
2, 16557120, Note_on_c, 0, 38, 0
2, 16557120, Note_on_c, 0, 43, 100
2, 16557360, Note_on_c, 0, 43, 0
2, 16557360, Note_on_c, 0, 31, 100
2, 16558080, Note_on_c, 0, 31, 0
2, 16558080, Note_on_c, 0, 43, 100
2, 16558800, Note_on_c, 0, 43, 0
2, 16558800, Note_on_c, 0, 55, 100
2, 16560960, Note_on_c, 0, 55, 0
2, 16560960, Note_on_c, 0, 54, 100
2, 16561200, Note_on_c, 0, 54, 0
2, 16561200, Note_on_c, 0, 53, 100
2, 16562400, Note_on_c, 0, 53, 0
2, 16562400, Note_on_c, 0, 52, 100
2, 16562640, Note_on_c, 0, 52, 0
2, 16562640, Note_on_c, 0, 51, 100
2, 16563600, Note_on_c, 0, 51, 0
2, 16563600, Note_on_c, 0, 50, 100
2, 16563840, Note_on_c, 0, 50, 0
2, 16563840, Note_on_c, 0, 51, 100
2, 16564560, Note_on_c, 0, 51, 0
2, 16564560, Note_on_c, 0, 50, 100
2, 16564800, Note_on_c, 0, 50, 0
2, 16564800, Note_on_c, 0, 48, 100
2, 16565040, Note_on_c, 0, 48, 0
2, 16565040, Note_on_c, 0, 46, 100
2, 16566000, Note_on_c, 0, 46, 0
2, 16566000, Note_on_c, 0, 47, 100
2, 16566720, Note_on_c, 0, 47, 0
2, 16566720, Note_on_c, 0, 48, 100
2, 16567440, Note_on_c, 0, 48, 0
2, 16567440, Note_on_c, 0, 49, 100
2, 16568160, Note_on_c, 0, 49, 0
2, 16568160, Note_on_c, 0, 50, 100
2, 16569360, Note_on_c, 0, 50, 0
2, 16569360, Note_on_c, 0, 43, 100
2, 16570320, Note_on_c, 0, 43, 0
2, 16570320, Note_on_c, 0, 46, 100
2, 16570560, Note_on_c, 0, 46, 0
2, 16570560, Note_on_c, 0, 50, 100
2, 16570800, Note_on_c, 0, 50, 0
2, 16570800, Note_on_c, 0, 55, 100
2, 16571040, Note_on_c, 0, 55, 0
2, 16571040, Note_on_c, 0, 62, 100
2, 16571400, Note_on_c, 0, 62, 0
2, 16571400, Note_on_c, 0, 67, 100
2, 16571520, Note_on_c, 0, 67, 0
2, 16571520, Note_on_c, 0, 65, 100
2, 16571760, Note_on_c, 0, 65, 0
2, 16571760, Note_on_c, 0, 63, 100
2, 16572000, Note_on_c, 0, 63, 0
2, 16572000, Note_on_c, 0, 62, 100
2, 16572240, Note_on_c, 0, 62, 0
2, 16572240, Note_on_c, 0, 61, 100
2, 16572480, Note_on_c, 0, 61, 0
2, 16572480, Note_on_c, 0, 57, 100
2, 16572720, Note_on_c, 0, 57, 0
2, 16572720, Note_on_c, 0, 62, 100
2, 16572960, Note_on_c, 0, 62, 0
2, 16572960, Note_on_c, 0, 60, 100
2, 16573200, Note_on_c, 0, 60, 0
2, 16573200, Note_on_c, 0, 58, 100
2, 16573440, Note_on_c, 0, 58, 0
2, 16573440, Note_on_c, 0, 57, 100
2, 16573680, Note_on_c, 0, 57, 0
2, 16573680, Note_on_c, 0, 55, 100
2, 16573920, Note_on_c, 0, 55, 0
2, 16573920, Note_on_c, 0, 60, 100
2, 16574160, Note_on_c, 0, 60, 0
2, 16574160, Note_on_c, 0, 53, 100
2, 16574400, Note_on_c, 0, 53, 0
2, 16574400, Note_on_c, 0, 54, 100
2, 16574640, Note_on_c, 0, 54, 0
2, 16574640, Note_on_c, 0, 55, 100
2, 16574880, Note_on_c, 0, 55, 0
2, 16574880, Note_on_c, 0, 56, 100
2, 16575120, Note_on_c, 0, 56, 0
2, 16575120, Note_on_c, 0, 57, 100
2, 16575360, Note_on_c, 0, 57, 0
2, 16575360, Note_on_c, 0, 58, 100
2, 16575600, Note_on_c, 0, 58, 0
2, 16575600, Note_on_c, 0, 57, 100
2, 16575840, Note_on_c, 0, 57, 0
2, 16575840, Note_on_c, 0, 55, 100
2, 16576080, Note_on_c, 0, 55, 0
2, 16576080, Note_on_c, 0, 53, 100
2, 16576320, Note_on_c, 0, 53, 0
2, 16576320, Note_on_c, 0, 52, 100
2, 16576560, Note_on_c, 0, 52, 0
2, 16576560, Note_on_c, 0, 53, 100
2, 16576800, Note_on_c, 0, 53, 0
2, 16576800, Note_on_c, 0, 54, 100
2, 16577760, Note_on_c, 0, 54, 0
2, 16577760, Note_on_c, 0, 55, 100
2, 16578240, Note_on_c, 0, 55, 0
2, 16578240, Note_on_c, 0, 56, 100
2, 16579200, Note_on_c, 0, 56, 0
2, 16579200, Note_on_c, 0, 57, 100
2, 16580400, Note_on_c, 0, 57, 0
2, 16580400, Note_on_c, 0, 61, 100
2, 16580640, Note_on_c, 0, 61, 0
2, 16580640, Note_on_c, 0, 57, 100
2, 16580880, Note_on_c, 0, 57, 0
2, 16580880, Note_on_c, 0, 62, 100
2, 16581120, Note_on_c, 0, 62, 0
2, 16581120, Note_on_c, 0, 60, 100
2, 16581840, Note_on_c, 0, 60, 0
2, 16581840, Note_on_c, 0, 58, 100
2, 16582080, Note_on_c, 0, 58, 0
2, 16582080, Note_on_c, 0, 57, 100
2, 16582320, Note_on_c, 0, 57, 0
2, 16582320, Note_on_c, 0, 55, 100
2, 16584000, Note_on_c, 0, 55, 0
2, 16584000, Note_on_c, 0, 54, 100
2, 16584240, Note_on_c, 0, 54, 0
2, 16584240, Note_on_c, 0, 53, 100
2, 16585440, Note_on_c, 0, 53, 0
2, 16585440, Note_on_c, 0, 52, 100
2, 16585680, Note_on_c, 0, 52, 0
2, 16585680, Note_on_c, 0, 51, 100
2, 16586640, Note_on_c, 0, 51, 0
2, 16586640, Note_on_c, 0, 50, 100
2, 16586880, Note_on_c, 0, 50, 0
2, 16586880, Note_on_c, 0, 51, 100
2, 16587600, Note_on_c, 0, 51, 0
2, 16587600, Note_on_c, 0, 50, 100
2, 16587840, Note_on_c, 0, 50, 0
2, 16587840, Note_on_c, 0, 48, 100
2, 16588080, Note_on_c, 0, 48, 0
2, 16588080, Note_on_c, 0, 46, 100
2, 16589040, Note_on_c, 0, 46, 0
2, 16589040, Note_on_c, 0, 47, 100
2, 16589760, Note_on_c, 0, 47, 0
2, 16589760, Note_on_c, 0, 48, 100
2, 16590480, Note_on_c, 0, 48, 0
2, 16590480, Note_on_c, 0, 49, 100
2, 16591200, Note_on_c, 0, 49, 0
2, 16591200, Note_on_c, 0, 50, 100
2, 16592400, Note_on_c, 0, 50, 0
2, 16592400, Note_on_c, 0, 43, 100
2, 16593360, Note_on_c, 0, 43, 0
2, 16593360, Note_on_c, 0, 46, 100
2, 16593600, Note_on_c, 0, 46, 0
2, 16593600, Note_on_c, 0, 50, 100
2, 16593840, Note_on_c, 0, 50, 0
2, 16593840, Note_on_c, 0, 55, 100
2, 16594080, Note_on_c, 0, 55, 0
2, 16594080, Note_on_c, 0, 62, 100
2, 16594440, Note_on_c, 0, 62, 0
2, 16594440, Note_on_c, 0, 67, 100
2, 16594560, Note_on_c, 0, 67, 0
2, 16594560, Note_on_c, 0, 65, 100
2, 16594800, Note_on_c, 0, 65, 0
2, 16594800, Note_on_c, 0, 63, 100
2, 16595040, Note_on_c, 0, 63, 0
2, 16595040, Note_on_c, 0, 62, 100
2, 16595280, Note_on_c, 0, 62, 0
2, 16595280, Note_on_c, 0, 61, 100
2, 16595520, Note_on_c, 0, 61, 0
2, 16595520, Note_on_c, 0, 57, 100
2, 16595760, Note_on_c, 0, 57, 0
2, 16595760, Note_on_c, 0, 62, 100
2, 16596000, Note_on_c, 0, 62, 0
2, 16596000, Note_on_c, 0, 60, 100
2, 16596240, Note_on_c, 0, 60, 0
2, 16596240, Note_on_c, 0, 58, 100
2, 16596480, Note_on_c, 0, 58, 0
2, 16596480, Note_on_c, 0, 57, 100
2, 16596720, Note_on_c, 0, 57, 0
2, 16596720, Note_on_c, 0, 55, 100
2, 16596960, Note_on_c, 0, 55, 0
2, 16596960, Note_on_c, 0, 60, 100
2, 16597200, Note_on_c, 0, 60, 0
2, 16597200, Note_on_c, 0, 53, 100
2, 16597440, Note_on_c, 0, 53, 0
2, 16597440, Note_on_c, 0, 54, 100
2, 16597680, Note_on_c, 0, 54, 0
2, 16597680, Note_on_c, 0, 55, 100
2, 16597920, Note_on_c, 0, 55, 0
2, 16597920, Note_on_c, 0, 56, 100
2, 16598160, Note_on_c, 0, 56, 0
2, 16598160, Note_on_c, 0, 57, 100
2, 16598400, Note_on_c, 0, 57, 0
2, 16598400, Note_on_c, 0, 58, 100
2, 16598640, Note_on_c, 0, 58, 0
2, 16598640, Note_on_c, 0, 57, 100
2, 16598880, Note_on_c, 0, 57, 0
2, 16598880, Note_on_c, 0, 55, 100
2, 16599120, Note_on_c, 0, 55, 0
2, 16599120, Note_on_c, 0, 53, 100
2, 16599360, Note_on_c, 0, 53, 0
2, 16599360, Note_on_c, 0, 52, 100
2, 16599600, Note_on_c, 0, 52, 0
2, 16599600, Note_on_c, 0, 53, 100
2, 16599840, Note_on_c, 0, 53, 0
2, 16599840, Note_on_c, 0, 54, 100
2, 16600800, Note_on_c, 0, 54, 0
2, 16600800, Note_on_c, 0, 55, 100
2, 16601280, Note_on_c, 0, 55, 0
2, 16601280, Note_on_c, 0, 56, 100
2, 16602240, Note_on_c, 0, 56, 0
2, 16602240, Note_on_c, 0, 57, 100
2, 16603440, Note_on_c, 0, 57, 0
2, 16603440, Note_on_c, 0, 61, 100
2, 16603680, Note_on_c, 0, 61, 0
2, 16603680, Note_on_c, 0, 57, 100
2, 16603920, Note_on_c, 0, 57, 0
2, 16603920, Note_on_c, 0, 62, 100
2, 16604160, Note_on_c, 0, 62, 0
2, 16604160, Note_on_c, 0, 57, 100
2, 16604880, Note_on_c, 0, 57, 0
2, 16604880, Note_on_c, 0, 50, 100
2, 16605120, Note_on_c, 0, 50, 0
2, 16605120, Note_on_c, 0, 62, 100
2, 16605600, Note_on_c, 0, 62, 0
2, 16605600, Note_on_c, 0, 60, 100
2, 16606560, Note_on_c, 0, 60, 0
2, 16606560, Note_on_c, 0, 58, 100
2, 16607040, Note_on_c, 0, 58, 0
2, 16607040, Note_on_c, 0, 55, 100
2, 16607280, Note_on_c, 0, 55, 0
2, 16607280, Note_on_c, 0, 57, 100
2, 16607400, Note_on_c, 0, 57, 0
2, 16607400, Note_on_c, 0, 58, 100
2, 16607520, Note_on_c, 0, 58, 0
2, 16607520, Note_on_c, 0, 59, 100
2, 16608000, Note_on_c, 0, 59, 0
2, 16608000, Note_on_c, 0, 60, 100
2, 16608480, Note_on_c, 0, 60, 0
2, 16608480, Note_on_c, 0, 55, 100
2, 16609200, Note_on_c, 0, 55, 0
2, 16609200, Note_on_c, 0, 56, 100
2, 16609440, Note_on_c, 0, 56, 0
2, 16609440, Note_on_c, 0, 57, 100
2, 16609680, Note_on_c, 0, 57, 0
2, 16609680, Note_on_c, 0, 58, 100
2, 16609920, Note_on_c, 0, 58, 0
2, 16609920, Note_on_c, 0, 59, 100
2, 16610640, Note_on_c, 0, 59, 0
2, 16610640, Note_on_c, 0, 58, 100
2, 16610880, Note_on_c, 0, 58, 0
2, 16610880, Note_on_c, 0, 56, 100
2, 16611120, Note_on_c, 0, 56, 0
2, 16611120, Note_on_c, 0, 54, 100
2, 16611360, Note_on_c, 0, 54, 0
2, 16611360, Note_on_c, 0, 55, 100
2, 16612320, Note_on_c, 0, 55, 0
2, 16612320, Note_on_c, 0, 56, 100
2, 16612800, Note_on_c, 0, 56, 0
2, 16612800, Note_on_c, 0, 57, 100
2, 16613760, Note_on_c, 0, 57, 0
2, 16613760, Note_on_c, 0, 58, 100
2, 16614960, Note_on_c, 0, 58, 0
2, 16614960, Note_on_c, 0, 62, 100
2, 16615200, Note_on_c, 0, 62, 0
2, 16615200, Note_on_c, 0, 58, 100
2, 16615440, Note_on_c, 0, 58, 0
2, 16615440, Note_on_c, 0, 63, 100
2, 16615680, Note_on_c, 0, 63, 0
2, 16615680, Note_on_c, 0, 65, 100
2, 16616400, Note_on_c, 0, 65, 0
2, 16616400, Note_on_c, 0, 63, 100
2, 16616640, Note_on_c, 0, 63, 0
2, 16616640, Note_on_c, 0, 62, 100
2, 16616880, Note_on_c, 0, 62, 0
2, 16616880, Note_on_c, 0, 60, 100
2, 16618560, Note_on_c, 0, 60, 0
2, 16618560, Note_on_c, 0, 59, 100
2, 16618800, Note_on_c, 0, 59, 0
2, 16618800, Note_on_c, 0, 58, 100
2, 16620000, Note_on_c, 0, 58, 0
2, 16620000, Note_on_c, 0, 57, 100
2, 16620240, Note_on_c, 0, 57, 0
2, 16620240, Note_on_c, 0, 56, 100
2, 16620960, Note_on_c, 0, 56, 0
2, 16620960, Note_on_c, 0, 55, 100
2, 16621440, Note_on_c, 0, 55, 0
2, 16621440, Note_on_c, 0, 54, 100
2, 16622160, Note_on_c, 0, 54, 0
2, 16622160, Note_on_c, 0, 55, 100
2, 16622400, Note_on_c, 0, 55, 0
2, 16622400, Note_on_c, 0, 48, 100
2, 16622640, Note_on_c, 0, 48, 0
2, 16622640, Note_on_c, 0, 46, 100
2, 16623840, Note_on_c, 0, 46, 0
2, 16623840, Note_on_c, 0, 47, 100
2, 16624320, Note_on_c, 0, 47, 0
2, 16624320, Note_on_c, 0, 50, 100
2, 16624440, Note_on_c, 0, 50, 0
2, 16624440, Note_on_c, 0, 48, 100
2, 16625280, Note_on_c, 0, 48, 0
2, 16625280, Note_on_c, 0, 49, 100
2, 16625760, Note_on_c, 0, 49, 0
2, 16625760, Note_on_c, 0, 52, 100
2, 16625880, Note_on_c, 0, 52, 0
2, 16625880, Note_on_c, 0, 50, 100
2, 16626960, Note_on_c, 0, 50, 0
2, 16626960, Note_on_c, 0, 55, 100
2, 16627200, Note_on_c, 0, 55, 0
2, 16627200, Note_on_c, 0, 50, 100
2, 16627920, Note_on_c, 0, 50, 0
2, 16627920, Note_on_c, 0, 43, 100
2, 16628160, Note_on_c, 0, 43, 0
2, 16628160, Note_on_c, 0, 57, 100
2, 16628280, Note_on_c, 0, 57, 0
2, 16628280, Note_on_c, 0, 58, 100
2, 16628400, Note_on_c, 0, 58, 0
2, 16628400, Note_on_c, 0, 60, 100
2, 16628520, Note_on_c, 0, 60, 0
2, 16628520, Note_on_c, 0, 62, 100
2, 16628640, Note_on_c, 0, 62, 0
2, 16628640, Note_on_c, 0, 60, 100
2, 16629600, Note_on_c, 0, 60, 0
2, 16629600, Note_on_c, 0, 58, 100
2, 16630080, Note_on_c, 0, 58, 0
2, 16630080, Note_on_c, 0, 55, 100
2, 16630320, Note_on_c, 0, 55, 0
2, 16630320, Note_on_c, 0, 57, 100
2, 16630440, Note_on_c, 0, 57, 0
2, 16630440, Note_on_c, 0, 58, 100
2, 16630560, Note_on_c, 0, 58, 0
2, 16630560, Note_on_c, 0, 59, 100
2, 16631040, Note_on_c, 0, 59, 0
2, 16631040, Note_on_c, 0, 60, 100
2, 16631520, Note_on_c, 0, 60, 0
2, 16631520, Note_on_c, 0, 55, 100
2, 16632240, Note_on_c, 0, 55, 0
2, 16632240, Note_on_c, 0, 56, 100
2, 16632480, Note_on_c, 0, 56, 0
2, 16632480, Note_on_c, 0, 57, 100
2, 16632720, Note_on_c, 0, 57, 0
2, 16632720, Note_on_c, 0, 58, 100
2, 16632960, Note_on_c, 0, 58, 0
2, 16632960, Note_on_c, 0, 59, 100
2, 16633680, Note_on_c, 0, 59, 0
2, 16633680, Note_on_c, 0, 58, 100
2, 16633920, Note_on_c, 0, 58, 0
2, 16633920, Note_on_c, 0, 56, 100
2, 16634160, Note_on_c, 0, 56, 0
2, 16634160, Note_on_c, 0, 54, 100
2, 16634400, Note_on_c, 0, 54, 0
2, 16634400, Note_on_c, 0, 55, 100
2, 16635360, Note_on_c, 0, 55, 0
2, 16635360, Note_on_c, 0, 56, 100
2, 16635840, Note_on_c, 0, 56, 0
2, 16635840, Note_on_c, 0, 57, 100
2, 16636800, Note_on_c, 0, 57, 0
2, 16636800, Note_on_c, 0, 58, 100
2, 16638000, Note_on_c, 0, 58, 0
2, 16638000, Note_on_c, 0, 62, 100
2, 16638240, Note_on_c, 0, 62, 0
2, 16638240, Note_on_c, 0, 58, 100
2, 16638480, Note_on_c, 0, 58, 0
2, 16638480, Note_on_c, 0, 63, 100
2, 16638720, Note_on_c, 0, 63, 0
2, 16638720, Note_on_c, 0, 65, 100
2, 16639440, Note_on_c, 0, 65, 0
2, 16639440, Note_on_c, 0, 63, 100
2, 16639680, Note_on_c, 0, 63, 0
2, 16639680, Note_on_c, 0, 62, 100
2, 16639920, Note_on_c, 0, 62, 0
2, 16639920, Note_on_c, 0, 60, 100
2, 16641600, Note_on_c, 0, 60, 0
2, 16641600, Note_on_c, 0, 59, 100
2, 16641840, Note_on_c, 0, 59, 0
2, 16641840, Note_on_c, 0, 58, 100
2, 16643040, Note_on_c, 0, 58, 0
2, 16643040, Note_on_c, 0, 57, 100
2, 16643280, Note_on_c, 0, 57, 0
2, 16643280, Note_on_c, 0, 56, 100
2, 16644000, Note_on_c, 0, 56, 0
2, 16644000, Note_on_c, 0, 55, 100
2, 16644480, Note_on_c, 0, 55, 0
2, 16644480, Note_on_c, 0, 54, 100
2, 16645200, Note_on_c, 0, 54, 0
2, 16645200, Note_on_c, 0, 55, 100
2, 16645440, Note_on_c, 0, 55, 0
2, 16645440, Note_on_c, 0, 48, 100
2, 16645680, Note_on_c, 0, 48, 0
2, 16645680, Note_on_c, 0, 46, 100
2, 16646880, Note_on_c, 0, 46, 0
2, 16646880, Note_on_c, 0, 47, 100
2, 16647360, Note_on_c, 0, 47, 0
2, 16647360, Note_on_c, 0, 50, 100
2, 16647480, Note_on_c, 0, 50, 0
2, 16647480, Note_on_c, 0, 48, 100
2, 16648320, Note_on_c, 0, 48, 0
2, 16648320, Note_on_c, 0, 49, 100
2, 16648800, Note_on_c, 0, 49, 0
2, 16648800, Note_on_c, 0, 52, 100
2, 16648920, Note_on_c, 0, 52, 0
2, 16648920, Note_on_c, 0, 50, 100
2, 16650000, Note_on_c, 0, 50, 0
2, 16650000, Note_on_c, 0, 55, 100
2, 16650240, Note_on_c, 0, 55, 0
2, 16650240, Note_on_c, 0, 54, 100
2, 16650840, Note_on_c, 0, 54, 0
2, 16650840, Note_on_c, 0, 55, 100
2, 16650960, Note_on_c, 0, 55, 0
2, 16650960, Note_on_c, 0, 50, 100
2, 16651080, Note_on_c, 0, 50, 0
2, 16651080, Note_on_c, 0, 43, 100
2, 16651200, Note_on_c, 0, 43, 0
2, 16651200, Note_on_c, 0, 67, 100
2, 16651680, Note_on_c, 0, 67, 0
2, 16651680, Note_on_c, 0, 62, 100
2, 16652160, Note_on_c, 0, 62, 0
2, 16652160, Note_on_c, 0, 67, 100
2, 16653120, Note_on_c, 0, 67, 0
2, 16653120, Note_on_c, 0, 64, 100
2, 16653600, Note_on_c, 0, 64, 0
2, 16653600, Note_on_c, 0, 66, 100
2, 16653660, Note_on_c, 0, 66, 0
2, 16653660, Note_on_c, 0, 69, 100
2, 16654320, Note_on_c, 0, 69, 0
2, 16654320, Note_on_c, 0, 71, 100
2, 16654560, Note_on_c, 0, 71, 0
2, 16654560, Note_on_c, 0, 67, 100
2, 16654920, Note_on_c, 0, 67, 0
2, 16654920, Note_on_c, 0, 64, 100
2, 16655040, Note_on_c, 0, 64, 0
2, 16655040, Note_on_c, 0, 57, 100
2, 16655760, Note_on_c, 0, 57, 0
2, 16655760, Note_on_c, 0, 62, 100
2, 16656480, Note_on_c, 0, 62, 0
2, 16656480, Note_on_c, 0, 60, 100
2, 16657200, Note_on_c, 0, 60, 0
2, 16657200, Note_on_c, 0, 59, 100
2, 16657440, Note_on_c, 0, 59, 0
2, 16657440, Note_on_c, 0, 60, 100
2, 16657800, Note_on_c, 0, 60, 0
2, 16657800, Note_on_c, 0, 62, 100
2, 16657920, Note_on_c, 0, 62, 0
2, 16657920, Note_on_c, 0, 55, 100
2, 16658640, Note_on_c, 0, 55, 0
2, 16658640, Note_on_c, 0, 60, 100
2, 16658880, Note_on_c, 0, 60, 0
2, 16658880, Note_on_c, 0, 52, 100
2, 16659360, Note_on_c, 0, 52, 0
2, 16659360, Note_on_c, 0, 55, 100
2, 16660080, Note_on_c, 0, 55, 0
2, 16660080, Note_on_c, 0, 54, 100
2, 16660320, Note_on_c, 0, 54, 0
2, 16660320, Note_on_c, 0, 55, 100
2, 16660680, Note_on_c, 0, 55, 0
2, 16660680, Note_on_c, 0, 57, 100
2, 16660800, Note_on_c, 0, 57, 0
2, 16660800, Note_on_c, 0, 50, 100
2, 16661520, Note_on_c, 0, 50, 0
2, 16661520, Note_on_c, 0, 55, 100
2, 16661760, Note_on_c, 0, 55, 0
2, 16661760, Note_on_c, 0, 43, 100
2, 16663200, Note_on_c, 0, 43, 0
2, 16663200, Note_on_c, 0, 45, 100
2, 16663280, Note_on_c, 0, 45, 0
2, 16663280, Note_on_c, 0, 43, 100
2, 16663360, Note_on_c, 0, 43, 0
2, 16663360, Note_on_c, 0, 38, 100
2, 16663440, Note_on_c, 0, 38, 0
2, 16663440, Note_on_c, 0, 40, 100
2, 16663520, Note_on_c, 0, 40, 0
2, 16663520, Note_on_c, 0, 42, 100
2, 16663600, Note_on_c, 0, 42, 0
2, 16663600, Note_on_c, 0, 43, 100
2, 16663680, Note_on_c, 0, 43, 0
2, 16663680, Note_on_c, 0, 42, 100
2, 16663760, Note_on_c, 0, 42, 0
2, 16663760, Note_on_c, 0, 43, 100
2, 16663840, Note_on_c, 0, 43, 0
2, 16663840, Note_on_c, 0, 45, 100
2, 16663920, Note_on_c, 0, 45, 0
2, 16663920, Note_on_c, 0, 43, 100
2, 16664000, Note_on_c, 0, 43, 0
2, 16664000, Note_on_c, 0, 45, 100
2, 16664080, Note_on_c, 0, 45, 0
2, 16664080, Note_on_c, 0, 47, 100
2, 16664160, Note_on_c, 0, 47, 0
2, 16664160, Note_on_c, 0, 45, 100
2, 16664240, Note_on_c, 0, 45, 0
2, 16664240, Note_on_c, 0, 47, 100
2, 16664320, Note_on_c, 0, 47, 0
2, 16664320, Note_on_c, 0, 48, 100
2, 16664400, Note_on_c, 0, 48, 0
2, 16664400, Note_on_c, 0, 47, 100
2, 16664480, Note_on_c, 0, 47, 0
2, 16664480, Note_on_c, 0, 49, 100
2, 16664560, Note_on_c, 0, 49, 0
2, 16664560, Note_on_c, 0, 50, 100
2, 16664640, Note_on_c, 0, 50, 0
2, 16664640, Note_on_c, 0, 52, 100
2, 16664720, Note_on_c, 0, 52, 0
2, 16664720, Note_on_c, 0, 50, 100
2, 16664800, Note_on_c, 0, 50, 0
2, 16664800, Note_on_c, 0, 45, 100
2, 16664880, Note_on_c, 0, 45, 0
2, 16664880, Note_on_c, 0, 47, 100
2, 16664960, Note_on_c, 0, 47, 0
2, 16664960, Note_on_c, 0, 49, 100
2, 16665040, Note_on_c, 0, 49, 0
2, 16665040, Note_on_c, 0, 50, 100
2, 16665120, Note_on_c, 0, 50, 0
2, 16665120, Note_on_c, 0, 49, 100
2, 16665200, Note_on_c, 0, 49, 0
2, 16665200, Note_on_c, 0, 50, 100
2, 16665280, Note_on_c, 0, 50, 0
2, 16665280, Note_on_c, 0, 52, 100
2, 16665360, Note_on_c, 0, 52, 0
2, 16665360, Note_on_c, 0, 50, 100
2, 16665440, Note_on_c, 0, 50, 0
2, 16665440, Note_on_c, 0, 52, 100
2, 16665520, Note_on_c, 0, 52, 0
2, 16665520, Note_on_c, 0, 54, 100
2, 16665600, Note_on_c, 0, 54, 0
2, 16665600, Note_on_c, 0, 52, 100
2, 16665680, Note_on_c, 0, 52, 0
2, 16665680, Note_on_c, 0, 54, 100
2, 16665760, Note_on_c, 0, 54, 0
2, 16665760, Note_on_c, 0, 55, 100
2, 16665840, Note_on_c, 0, 55, 0
2, 16665840, Note_on_c, 0, 52, 100
2, 16665920, Note_on_c, 0, 52, 0
2, 16665920, Note_on_c, 0, 54, 100
2, 16666000, Note_on_c, 0, 54, 0
2, 16666000, Note_on_c, 0, 55, 100
2, 16666080, Note_on_c, 0, 55, 0
2, 16666080, Note_on_c, 0, 57, 100
2, 16666160, Note_on_c, 0, 57, 0
2, 16666160, Note_on_c, 0, 55, 100
2, 16666240, Note_on_c, 0, 55, 0
2, 16666240, Note_on_c, 0, 47, 100
2, 16666320, Note_on_c, 0, 47, 0
2, 16666320, Note_on_c, 0, 52, 100
2, 16666400, Note_on_c, 0, 52, 0
2, 16666400, Note_on_c, 0, 54, 100
2, 16666480, Note_on_c, 0, 54, 0
2, 16666480, Note_on_c, 0, 55, 100
2, 16666560, Note_on_c, 0, 55, 0
2, 16666560, Note_on_c, 0, 54, 100
2, 16666640, Note_on_c, 0, 54, 0
2, 16666640, Note_on_c, 0, 55, 100
2, 16666720, Note_on_c, 0, 55, 0
2, 16666720, Note_on_c, 0, 57, 100
2, 16666800, Note_on_c, 0, 57, 0
2, 16666800, Note_on_c, 0, 55, 100
2, 16666880, Note_on_c, 0, 55, 0
2, 16666880, Note_on_c, 0, 57, 100
2, 16666960, Note_on_c, 0, 57, 0
2, 16666960, Note_on_c, 0, 59, 100
2, 16667040, Note_on_c, 0, 59, 0
2, 16667040, Note_on_c, 0, 57, 100
2, 16667120, Note_on_c, 0, 57, 0
2, 16667120, Note_on_c, 0, 59, 100
2, 16667200, Note_on_c, 0, 59, 0
2, 16667200, Note_on_c, 0, 61, 100
2, 16667280, Note_on_c, 0, 61, 0
2, 16667280, Note_on_c, 0, 57, 100
2, 16667360, Note_on_c, 0, 57, 0
2, 16667360, Note_on_c, 0, 59, 100
2, 16667440, Note_on_c, 0, 59, 0
2, 16667440, Note_on_c, 0, 61, 100
2, 16667520, Note_on_c, 0, 61, 0
2, 16667520, Note_on_c, 0, 62, 100
2, 16667600, Note_on_c, 0, 62, 0
2, 16667600, Note_on_c, 0, 61, 100
2, 16667680, Note_on_c, 0, 61, 0
2, 16667680, Note_on_c, 0, 52, 100
2, 16667760, Note_on_c, 0, 52, 0
2, 16667760, Note_on_c, 0, 57, 100
2, 16667840, Note_on_c, 0, 57, 0
2, 16667840, Note_on_c, 0, 59, 100
2, 16667920, Note_on_c, 0, 59, 0
2, 16667920, Note_on_c, 0, 61, 100
2, 16668000, Note_on_c, 0, 61, 0
2, 16668000, Note_on_c, 0, 59, 100
2, 16668080, Note_on_c, 0, 59, 0
2, 16668080, Note_on_c, 0, 61, 100
2, 16668160, Note_on_c, 0, 61, 0
2, 16668160, Note_on_c, 0, 62, 100
2, 16668240, Note_on_c, 0, 62, 0
2, 16668240, Note_on_c, 0, 61, 100
2, 16668320, Note_on_c, 0, 61, 0
2, 16668320, Note_on_c, 0, 62, 100
2, 16668400, Note_on_c, 0, 62, 0
2, 16668400, Note_on_c, 0, 64, 100
2, 16668480, Note_on_c, 0, 64, 0
2, 16668480, Note_on_c, 0, 62, 100
2, 16668560, Note_on_c, 0, 62, 0
2, 16668560, Note_on_c, 0, 64, 100
2, 16668640, Note_on_c, 0, 64, 0
2, 16668640, Note_on_c, 0, 66, 100
2, 16668720, Note_on_c, 0, 66, 0
2, 16668720, Note_on_c, 0, 62, 100
2, 16668800, Note_on_c, 0, 62, 0
2, 16668800, Note_on_c, 0, 64, 100
2, 16668880, Note_on_c, 0, 64, 0
2, 16668880, Note_on_c, 0, 66, 100
2, 16668960, Note_on_c, 0, 66, 0
2, 16668960, Note_on_c, 0, 64, 100
2, 16669040, Note_on_c, 0, 64, 0
2, 16669040, Note_on_c, 0, 66, 100
2, 16669120, Note_on_c, 0, 66, 0
2, 16669120, Note_on_c, 0, 69, 100
2, 16669200, Note_on_c, 0, 69, 0
2, 16669200, Note_on_c, 0, 67, 100
2, 16669280, Note_on_c, 0, 67, 0
2, 16669280, Note_on_c, 0, 69, 100
2, 16669360, Note_on_c, 0, 69, 0
2, 16669360, Note_on_c, 0, 62, 100
2, 16669440, Note_on_c, 0, 62, 0
2, 16669440, Note_on_c, 0, 61, 100
2, 16669520, Note_on_c, 0, 61, 0
2, 16669520, Note_on_c, 0, 62, 100
2, 16669600, Note_on_c, 0, 62, 0
2, 16669600, Note_on_c, 0, 66, 100
2, 16669680, Note_on_c, 0, 66, 0
2, 16669680, Note_on_c, 0, 69, 100
2, 16669760, Note_on_c, 0, 69, 0
2, 16669760, Note_on_c, 0, 71, 100
2, 16669840, Note_on_c, 0, 71, 0
2, 16669840, Note_on_c, 0, 72, 100
2, 16669920, Note_on_c, 0, 72, 0
2, 16669920, Note_on_c, 0, 71, 100
2, 16670000, Note_on_c, 0, 71, 0
2, 16670000, Note_on_c, 0, 72, 100
2, 16670080, Note_on_c, 0, 72, 0
2, 16670080, Note_on_c, 0, 69, 100
2, 16670160, Note_on_c, 0, 69, 0
2, 16670160, Note_on_c, 0, 66, 100
2, 16670240, Note_on_c, 0, 66, 0
2, 16670240, Note_on_c, 0, 69, 100
2, 16670320, Note_on_c, 0, 69, 0
2, 16670320, Note_on_c, 0, 67, 100
2, 16670400, Note_on_c, 0, 67, 0
2, 16670400, Note_on_c, 0, 66, 100
2, 16670480, Note_on_c, 0, 66, 0
2, 16670480, Note_on_c, 0, 67, 100
2, 16670560, Note_on_c, 0, 67, 0
2, 16670560, Note_on_c, 0, 71, 100
2, 16670640, Note_on_c, 0, 71, 0
2, 16670640, Note_on_c, 0, 69, 100
2, 16670720, Note_on_c, 0, 69, 0
2, 16670720, Note_on_c, 0, 71, 100
2, 16670800, Note_on_c, 0, 71, 0
2, 16670800, Note_on_c, 0, 64, 100
2, 16670880, Note_on_c, 0, 64, 0
2, 16670880, Note_on_c, 0, 63, 100
2, 16670960, Note_on_c, 0, 63, 0
2, 16670960, Note_on_c, 0, 64, 100
2, 16671040, Note_on_c, 0, 64, 0
2, 16671040, Note_on_c, 0, 67, 100
2, 16671120, Note_on_c, 0, 67, 0
2, 16671120, Note_on_c, 0, 71, 100
2, 16671200, Note_on_c, 0, 71, 0
2, 16671200, Note_on_c, 0, 73, 100
2, 16671280, Note_on_c, 0, 73, 0
2, 16671280, Note_on_c, 0, 74, 100
2, 16671360, Note_on_c, 0, 74, 0
2, 16671360, Note_on_c, 0, 73, 100
2, 16671440, Note_on_c, 0, 73, 0
2, 16671440, Note_on_c, 0, 74, 100
2, 16671520, Note_on_c, 0, 74, 0
2, 16671520, Note_on_c, 0, 71, 100
2, 16671600, Note_on_c, 0, 71, 0
2, 16671600, Note_on_c, 0, 67, 100
2, 16671680, Note_on_c, 0, 67, 0
2, 16671680, Note_on_c, 0, 71, 100
2, 16671760, Note_on_c, 0, 71, 0
2, 16671760, Note_on_c, 0, 73, 100
2, 16671840, Note_on_c, 0, 73, 0
2, 16671840, Note_on_c, 0, 71, 100
2, 16671920, Note_on_c, 0, 71, 0
2, 16671920, Note_on_c, 0, 73, 100
2, 16672000, Note_on_c, 0, 73, 0
2, 16672000, Note_on_c, 0, 76, 100
2, 16672080, Note_on_c, 0, 76, 0
2, 16672080, Note_on_c, 0, 74, 100
2, 16672160, Note_on_c, 0, 74, 0
2, 16672160, Note_on_c, 0, 76, 100
2, 16672240, Note_on_c, 0, 76, 0
2, 16672240, Note_on_c, 0, 69, 100
2, 16672320, Note_on_c, 0, 69, 0
2, 16672320, Note_on_c, 0, 68, 100
2, 16672400, Note_on_c, 0, 68, 0
2, 16672400, Note_on_c, 0, 69, 100
2, 16672480, Note_on_c, 0, 69, 0
2, 16672480, Note_on_c, 0, 73, 100
2, 16672560, Note_on_c, 0, 73, 0
2, 16672560, Note_on_c, 0, 76, 100
2, 16672640, Note_on_c, 0, 76, 0
2, 16672640, Note_on_c, 0, 78, 100
2, 16672720, Note_on_c, 0, 78, 0
2, 16672720, Note_on_c, 0, 79, 100
2, 16672800, Note_on_c, 0, 79, 0
2, 16672800, Note_on_c, 0, 78, 100
2, 16672880, Note_on_c, 0, 78, 0
2, 16672880, Note_on_c, 0, 79, 100
2, 16672960, Note_on_c, 0, 79, 0
2, 16672960, Note_on_c, 0, 76, 100
2, 16673040, Note_on_c, 0, 76, 0
2, 16673040, Note_on_c, 0, 73, 100
2, 16673120, Note_on_c, 0, 73, 0
2, 16673120, Note_on_c, 0, 76, 100
2, 16673200, Note_on_c, 0, 76, 0
2, 16673200, Note_on_c, 0, 78, 100
2, 16673280, Note_on_c, 0, 78, 0
2, 16673280, Note_on_c, 0, 76, 100
2, 16673360, Note_on_c, 0, 76, 0
2, 16673360, Note_on_c, 0, 78, 100
2, 16673440, Note_on_c, 0, 78, 0
2, 16673440, Note_on_c, 0, 81, 100
2, 16673520, Note_on_c, 0, 81, 0
2, 16673520, Note_on_c, 0, 79, 100
2, 16673600, Note_on_c, 0, 79, 0
2, 16673600, Note_on_c, 0, 81, 100
2, 16673680, Note_on_c, 0, 81, 0
2, 16673680, Note_on_c, 0, 74, 100
2, 16673760, Note_on_c, 0, 74, 0
2, 16673760, Note_on_c, 0, 73, 100
2, 16673840, Note_on_c, 0, 73, 0
2, 16673840, Note_on_c, 0, 74, 100
2, 16673920, Note_on_c, 0, 74, 0
2, 16673920, Note_on_c, 0, 78, 100
2, 16674000, Note_on_c, 0, 78, 0
2, 16674000, Note_on_c, 0, 81, 100
2, 16674080, Note_on_c, 0, 81, 0
2, 16674080, Note_on_c, 0, 85, 100
2, 16674160, Note_on_c, 0, 85, 0
2, 16674160, Note_on_c, 0, 86, 100
2, 16674240, Note_on_c, 0, 86, 0
2, 16674240, Note_on_c, 0, 85, 100
2, 16674300, Note_on_c, 0, 85, 0
2, 16674300, Note_on_c, 0, 86, 100
2, 16674360, Note_on_c, 0, 86, 0
2, 16674360, Note_on_c, 0, 67, 100
2, 16674720, Note_on_c, 0, 67, 0
2, 16674720, Note_on_c, 0, 62, 100
2, 16675200, Note_on_c, 0, 62, 0
2, 16675200, Note_on_c, 0, 67, 100
2, 16676160, Note_on_c, 0, 67, 0
2, 16676160, Note_on_c, 0, 64, 100
2, 16676640, Note_on_c, 0, 64, 0
2, 16676640, Note_on_c, 0, 66, 100
2, 16676700, Note_on_c, 0, 66, 0
2, 16676700, Note_on_c, 0, 69, 100
2, 16677360, Note_on_c, 0, 69, 0
2, 16677360, Note_on_c, 0, 71, 100
2, 16677600, Note_on_c, 0, 71, 0
2, 16677600, Note_on_c, 0, 67, 100
2, 16677960, Note_on_c, 0, 67, 0
2, 16677960, Note_on_c, 0, 64, 100
2, 16678080, Note_on_c, 0, 64, 0
2, 16678080, Note_on_c, 0, 57, 100
2, 16678800, Note_on_c, 0, 57, 0
2, 16678800, Note_on_c, 0, 62, 100
2, 16679520, Note_on_c, 0, 62, 0
2, 16679520, Note_on_c, 0, 60, 100
2, 16680240, Note_on_c, 0, 60, 0
2, 16680240, Note_on_c, 0, 59, 100
2, 16680480, Note_on_c, 0, 59, 0
2, 16680480, Note_on_c, 0, 60, 100
2, 16680840, Note_on_c, 0, 60, 0
2, 16680840, Note_on_c, 0, 62, 100
2, 16680960, Note_on_c, 0, 62, 0
2, 16680960, Note_on_c, 0, 55, 100
2, 16681680, Note_on_c, 0, 55, 0
2, 16681680, Note_on_c, 0, 60, 100
2, 16681920, Note_on_c, 0, 60, 0
2, 16681920, Note_on_c, 0, 52, 100
2, 16682400, Note_on_c, 0, 52, 0
2, 16682400, Note_on_c, 0, 55, 100
2, 16683120, Note_on_c, 0, 55, 0
2, 16683120, Note_on_c, 0, 54, 100
2, 16683360, Note_on_c, 0, 54, 0
2, 16683360, Note_on_c, 0, 55, 100
2, 16683720, Note_on_c, 0, 55, 0
2, 16683720, Note_on_c, 0, 57, 100
2, 16683840, Note_on_c, 0, 57, 0
2, 16683840, Note_on_c, 0, 50, 100
2, 16684560, Note_on_c, 0, 50, 0
2, 16684560, Note_on_c, 0, 55, 100
2, 16684800, Note_on_c, 0, 55, 0
2, 16684800, Note_on_c, 0, 43, 100
2, 16686240, Note_on_c, 0, 43, 0
2, 16686240, Note_on_c, 0, 45, 100
2, 16686320, Note_on_c, 0, 45, 0
2, 16686320, Note_on_c, 0, 43, 100
2, 16686400, Note_on_c, 0, 43, 0
2, 16686400, Note_on_c, 0, 38, 100
2, 16686480, Note_on_c, 0, 38, 0
2, 16686480, Note_on_c, 0, 40, 100
2, 16686560, Note_on_c, 0, 40, 0
2, 16686560, Note_on_c, 0, 42, 100
2, 16686640, Note_on_c, 0, 42, 0
2, 16686640, Note_on_c, 0, 43, 100
2, 16686720, Note_on_c, 0, 43, 0
2, 16686720, Note_on_c, 0, 42, 100
2, 16686800, Note_on_c, 0, 42, 0
2, 16686800, Note_on_c, 0, 43, 100
2, 16686880, Note_on_c, 0, 43, 0
2, 16686880, Note_on_c, 0, 45, 100
2, 16686960, Note_on_c, 0, 45, 0
2, 16686960, Note_on_c, 0, 43, 100
2, 16687040, Note_on_c, 0, 43, 0
2, 16687040, Note_on_c, 0, 45, 100
2, 16687120, Note_on_c, 0, 45, 0
2, 16687120, Note_on_c, 0, 47, 100
2, 16687200, Note_on_c, 0, 47, 0
2, 16687200, Note_on_c, 0, 45, 100
2, 16687280, Note_on_c, 0, 45, 0
2, 16687280, Note_on_c, 0, 47, 100
2, 16687360, Note_on_c, 0, 47, 0
2, 16687360, Note_on_c, 0, 48, 100
2, 16687440, Note_on_c, 0, 48, 0
2, 16687440, Note_on_c, 0, 47, 100
2, 16687520, Note_on_c, 0, 47, 0
2, 16687520, Note_on_c, 0, 49, 100
2, 16687600, Note_on_c, 0, 49, 0
2, 16687600, Note_on_c, 0, 50, 100
2, 16687680, Note_on_c, 0, 50, 0
2, 16687680, Note_on_c, 0, 52, 100
2, 16687760, Note_on_c, 0, 52, 0
2, 16687760, Note_on_c, 0, 50, 100
2, 16687840, Note_on_c, 0, 50, 0
2, 16687840, Note_on_c, 0, 45, 100
2, 16687920, Note_on_c, 0, 45, 0
2, 16687920, Note_on_c, 0, 47, 100
2, 16688000, Note_on_c, 0, 47, 0
2, 16688000, Note_on_c, 0, 49, 100
2, 16688080, Note_on_c, 0, 49, 0
2, 16688080, Note_on_c, 0, 50, 100
2, 16688160, Note_on_c, 0, 50, 0
2, 16688160, Note_on_c, 0, 49, 100
2, 16688240, Note_on_c, 0, 49, 0
2, 16688240, Note_on_c, 0, 50, 100
2, 16688320, Note_on_c, 0, 50, 0
2, 16688320, Note_on_c, 0, 52, 100
2, 16688400, Note_on_c, 0, 52, 0
2, 16688400, Note_on_c, 0, 50, 100
2, 16688480, Note_on_c, 0, 50, 0
2, 16688480, Note_on_c, 0, 52, 100
2, 16688560, Note_on_c, 0, 52, 0
2, 16688560, Note_on_c, 0, 54, 100
2, 16688640, Note_on_c, 0, 54, 0
2, 16688640, Note_on_c, 0, 52, 100
2, 16688720, Note_on_c, 0, 52, 0
2, 16688720, Note_on_c, 0, 54, 100
2, 16688800, Note_on_c, 0, 54, 0
2, 16688800, Note_on_c, 0, 55, 100
2, 16688880, Note_on_c, 0, 55, 0
2, 16688880, Note_on_c, 0, 52, 100
2, 16688960, Note_on_c, 0, 52, 0
2, 16688960, Note_on_c, 0, 54, 100
2, 16689040, Note_on_c, 0, 54, 0
2, 16689040, Note_on_c, 0, 55, 100
2, 16689120, Note_on_c, 0, 55, 0
2, 16689120, Note_on_c, 0, 57, 100
2, 16689200, Note_on_c, 0, 57, 0
2, 16689200, Note_on_c, 0, 55, 100
2, 16689280, Note_on_c, 0, 55, 0
2, 16689280, Note_on_c, 0, 47, 100
2, 16689360, Note_on_c, 0, 47, 0
2, 16689360, Note_on_c, 0, 52, 100
2, 16689440, Note_on_c, 0, 52, 0
2, 16689440, Note_on_c, 0, 54, 100
2, 16689520, Note_on_c, 0, 54, 0
2, 16689520, Note_on_c, 0, 55, 100
2, 16689600, Note_on_c, 0, 55, 0
2, 16689600, Note_on_c, 0, 54, 100
2, 16689680, Note_on_c, 0, 54, 0
2, 16689680, Note_on_c, 0, 55, 100
2, 16689760, Note_on_c, 0, 55, 0
2, 16689760, Note_on_c, 0, 57, 100
2, 16689840, Note_on_c, 0, 57, 0
2, 16689840, Note_on_c, 0, 55, 100
2, 16689920, Note_on_c, 0, 55, 0
2, 16689920, Note_on_c, 0, 57, 100
2, 16690000, Note_on_c, 0, 57, 0
2, 16690000, Note_on_c, 0, 59, 100
2, 16690080, Note_on_c, 0, 59, 0
2, 16690080, Note_on_c, 0, 57, 100
2, 16690160, Note_on_c, 0, 57, 0
2, 16690160, Note_on_c, 0, 59, 100
2, 16690240, Note_on_c, 0, 59, 0
2, 16690240, Note_on_c, 0, 61, 100
2, 16690320, Note_on_c, 0, 61, 0
2, 16690320, Note_on_c, 0, 57, 100
2, 16690400, Note_on_c, 0, 57, 0
2, 16690400, Note_on_c, 0, 59, 100
2, 16690480, Note_on_c, 0, 59, 0
2, 16690480, Note_on_c, 0, 61, 100
2, 16690560, Note_on_c, 0, 61, 0
2, 16690560, Note_on_c, 0, 62, 100
2, 16690640, Note_on_c, 0, 62, 0
2, 16690640, Note_on_c, 0, 61, 100
2, 16690720, Note_on_c, 0, 61, 0
2, 16690720, Note_on_c, 0, 52, 100
2, 16690800, Note_on_c, 0, 52, 0
2, 16690800, Note_on_c, 0, 57, 100
2, 16690880, Note_on_c, 0, 57, 0
2, 16690880, Note_on_c, 0, 59, 100
2, 16690960, Note_on_c, 0, 59, 0
2, 16690960, Note_on_c, 0, 61, 100
2, 16691040, Note_on_c, 0, 61, 0
2, 16691040, Note_on_c, 0, 59, 100
2, 16691120, Note_on_c, 0, 59, 0
2, 16691120, Note_on_c, 0, 61, 100
2, 16691200, Note_on_c, 0, 61, 0
2, 16691200, Note_on_c, 0, 62, 100
2, 16691280, Note_on_c, 0, 62, 0
2, 16691280, Note_on_c, 0, 61, 100
2, 16691360, Note_on_c, 0, 61, 0
2, 16691360, Note_on_c, 0, 62, 100
2, 16691440, Note_on_c, 0, 62, 0
2, 16691440, Note_on_c, 0, 64, 100
2, 16691520, Note_on_c, 0, 64, 0
2, 16691520, Note_on_c, 0, 62, 100
2, 16691600, Note_on_c, 0, 62, 0
2, 16691600, Note_on_c, 0, 64, 100
2, 16691680, Note_on_c, 0, 64, 0
2, 16691680, Note_on_c, 0, 66, 100
2, 16691760, Note_on_c, 0, 66, 0
2, 16691760, Note_on_c, 0, 62, 100
2, 16691840, Note_on_c, 0, 62, 0
2, 16691840, Note_on_c, 0, 64, 100
2, 16691920, Note_on_c, 0, 64, 0
2, 16691920, Note_on_c, 0, 66, 100
2, 16692000, Note_on_c, 0, 66, 0
2, 16692000, Note_on_c, 0, 64, 100
2, 16692080, Note_on_c, 0, 64, 0
2, 16692080, Note_on_c, 0, 66, 100
2, 16692160, Note_on_c, 0, 66, 0
2, 16692160, Note_on_c, 0, 69, 100
2, 16692240, Note_on_c, 0, 69, 0
2, 16692240, Note_on_c, 0, 67, 100
2, 16692320, Note_on_c, 0, 67, 0
2, 16692320, Note_on_c, 0, 69, 100
2, 16692400, Note_on_c, 0, 69, 0
2, 16692400, Note_on_c, 0, 62, 100
2, 16692480, Note_on_c, 0, 62, 0
2, 16692480, Note_on_c, 0, 61, 100
2, 16692560, Note_on_c, 0, 61, 0
2, 16692560, Note_on_c, 0, 62, 100
2, 16692640, Note_on_c, 0, 62, 0
2, 16692640, Note_on_c, 0, 66, 100
2, 16692720, Note_on_c, 0, 66, 0
2, 16692720, Note_on_c, 0, 69, 100
2, 16692800, Note_on_c, 0, 69, 0
2, 16692800, Note_on_c, 0, 71, 100
2, 16692880, Note_on_c, 0, 71, 0
2, 16692880, Note_on_c, 0, 72, 100
2, 16692960, Note_on_c, 0, 72, 0
2, 16692960, Note_on_c, 0, 71, 100
2, 16693040, Note_on_c, 0, 71, 0
2, 16693040, Note_on_c, 0, 72, 100
2, 16693120, Note_on_c, 0, 72, 0
2, 16693120, Note_on_c, 0, 69, 100
2, 16693200, Note_on_c, 0, 69, 0
2, 16693200, Note_on_c, 0, 66, 100
2, 16693280, Note_on_c, 0, 66, 0
2, 16693280, Note_on_c, 0, 69, 100
2, 16693360, Note_on_c, 0, 69, 0
2, 16693360, Note_on_c, 0, 67, 100
2, 16693440, Note_on_c, 0, 67, 0
2, 16693440, Note_on_c, 0, 66, 100
2, 16693520, Note_on_c, 0, 66, 0
2, 16693520, Note_on_c, 0, 67, 100
2, 16693600, Note_on_c, 0, 67, 0
2, 16693600, Note_on_c, 0, 71, 100
2, 16693680, Note_on_c, 0, 71, 0
2, 16693680, Note_on_c, 0, 69, 100
2, 16693760, Note_on_c, 0, 69, 0
2, 16693760, Note_on_c, 0, 71, 100
2, 16693840, Note_on_c, 0, 71, 0
2, 16693840, Note_on_c, 0, 64, 100
2, 16693920, Note_on_c, 0, 64, 0
2, 16693920, Note_on_c, 0, 63, 100
2, 16694000, Note_on_c, 0, 63, 0
2, 16694000, Note_on_c, 0, 64, 100
2, 16694080, Note_on_c, 0, 64, 0
2, 16694080, Note_on_c, 0, 67, 100
2, 16694160, Note_on_c, 0, 67, 0
2, 16694160, Note_on_c, 0, 71, 100
2, 16694240, Note_on_c, 0, 71, 0
2, 16694240, Note_on_c, 0, 73, 100
2, 16694320, Note_on_c, 0, 73, 0
2, 16694320, Note_on_c, 0, 74, 100
2, 16694400, Note_on_c, 0, 74, 0
2, 16694400, Note_on_c, 0, 73, 100
2, 16694480, Note_on_c, 0, 73, 0
2, 16694480, Note_on_c, 0, 74, 100
2, 16694560, Note_on_c, 0, 74, 0
2, 16694560, Note_on_c, 0, 71, 100
2, 16694640, Note_on_c, 0, 71, 0
2, 16694640, Note_on_c, 0, 67, 100
2, 16694720, Note_on_c, 0, 67, 0
2, 16694720, Note_on_c, 0, 71, 100
2, 16694800, Note_on_c, 0, 71, 0
2, 16694800, Note_on_c, 0, 73, 100
2, 16694880, Note_on_c, 0, 73, 0
2, 16694880, Note_on_c, 0, 71, 100
2, 16694960, Note_on_c, 0, 71, 0
2, 16694960, Note_on_c, 0, 73, 100
2, 16695040, Note_on_c, 0, 73, 0
2, 16695040, Note_on_c, 0, 76, 100
2, 16695120, Note_on_c, 0, 76, 0
2, 16695120, Note_on_c, 0, 74, 100
2, 16695200, Note_on_c, 0, 74, 0
2, 16695200, Note_on_c, 0, 76, 100
2, 16695280, Note_on_c, 0, 76, 0
2, 16695280, Note_on_c, 0, 69, 100
2, 16695360, Note_on_c, 0, 69, 0
2, 16695360, Note_on_c, 0, 68, 100
2, 16695440, Note_on_c, 0, 68, 0
2, 16695440, Note_on_c, 0, 69, 100
2, 16695520, Note_on_c, 0, 69, 0
2, 16695520, Note_on_c, 0, 73, 100
2, 16695600, Note_on_c, 0, 73, 0
2, 16695600, Note_on_c, 0, 76, 100
2, 16695680, Note_on_c, 0, 76, 0
2, 16695680, Note_on_c, 0, 78, 100
2, 16695760, Note_on_c, 0, 78, 0
2, 16695760, Note_on_c, 0, 79, 100
2, 16695840, Note_on_c, 0, 79, 0
2, 16695840, Note_on_c, 0, 78, 100
2, 16695920, Note_on_c, 0, 78, 0
2, 16695920, Note_on_c, 0, 79, 100
2, 16696000, Note_on_c, 0, 79, 0
2, 16696000, Note_on_c, 0, 76, 100
2, 16696080, Note_on_c, 0, 76, 0
2, 16696080, Note_on_c, 0, 73, 100
2, 16696160, Note_on_c, 0, 73, 0
2, 16696160, Note_on_c, 0, 76, 100
2, 16696240, Note_on_c, 0, 76, 0
2, 16696240, Note_on_c, 0, 78, 100
2, 16696320, Note_on_c, 0, 78, 0
2, 16696320, Note_on_c, 0, 76, 100
2, 16696400, Note_on_c, 0, 76, 0
2, 16696400, Note_on_c, 0, 78, 100
2, 16696480, Note_on_c, 0, 78, 0
2, 16696480, Note_on_c, 0, 81, 100
2, 16696560, Note_on_c, 0, 81, 0
2, 16696560, Note_on_c, 0, 79, 100
2, 16696640, Note_on_c, 0, 79, 0
2, 16696640, Note_on_c, 0, 81, 100
2, 16696720, Note_on_c, 0, 81, 0
2, 16696720, Note_on_c, 0, 74, 100
2, 16696800, Note_on_c, 0, 74, 0
2, 16696800, Note_on_c, 0, 73, 100
2, 16696880, Note_on_c, 0, 73, 0
2, 16696880, Note_on_c, 0, 74, 100
2, 16696960, Note_on_c, 0, 74, 0
2, 16696960, Note_on_c, 0, 78, 100
2, 16697040, Note_on_c, 0, 78, 0
2, 16697040, Note_on_c, 0, 81, 100
2, 16697120, Note_on_c, 0, 81, 0
2, 16697120, Note_on_c, 0, 85, 100
2, 16697200, Note_on_c, 0, 85, 0
2, 16697200, Note_on_c, 0, 86, 100
2, 16697280, Note_on_c, 0, 86, 0
2, 16697280, Note_on_c, 0, 85, 100
2, 16697340, Note_on_c, 0, 85, 0
2, 16697340, Note_on_c, 0, 86, 100
2, 16697400, Note_on_c, 0, 86, 0
2, 16697400, Note_on_c, 0, 62, 100
2, 16697760, Note_on_c, 0, 62, 0
2, 16697760, Note_on_c, 0, 60, 100
2, 16698960, Note_on_c, 0, 60, 0
2, 16698960, Note_on_c, 0, 59, 100
2, 16699200, Note_on_c, 0, 59, 0
2, 16699200, Note_on_c, 0, 62, 100
2, 16699560, Note_on_c, 0, 62, 0
2, 16699560, Note_on_c, 0, 67, 100
2, 16699680, Note_on_c, 0, 67, 0
2, 16699680, Note_on_c, 0, 74, 100
2, 16700400, Note_on_c, 0, 74, 0
2, 16700400, Note_on_c, 0, 73, 100
2, 16700640, Note_on_c, 0, 73, 0
2, 16700640, Note_on_c, 0, 75, 100
2, 16701120, Note_on_c, 0, 75, 0
2, 16701120, Note_on_c, 0, 76, 100
2, 16701840, Note_on_c, 0, 76, 0
2, 16701840, Note_on_c, 0, 75, 100
2, 16702080, Note_on_c, 0, 75, 0
2, 16702080, Note_on_c, 0, 66, 100
2, 16702560, Note_on_c, 0, 66, 0
2, 16702560, Note_on_c, 0, 75, 100
2, 16703280, Note_on_c, 0, 75, 0
2, 16703280, Note_on_c, 0, 76, 100
2, 16703520, Note_on_c, 0, 76, 0
2, 16703520, Note_on_c, 0, 71, 100
2, 16704720, Note_on_c, 0, 71, 0
2, 16704720, Note_on_c, 0, 69, 100
2, 16704960, Note_on_c, 0, 69, 0
2, 16704960, Note_on_c, 0, 71, 100
2, 16705440, Note_on_c, 0, 71, 0
2, 16705440, Note_on_c, 0, 72, 100
2, 16706160, Note_on_c, 0, 72, 0
2, 16706160, Note_on_c, 0, 71, 100
2, 16706400, Note_on_c, 0, 71, 0
2, 16706400, Note_on_c, 0, 69, 100
2, 16707840, Note_on_c, 0, 69, 0
2, 16707840, Note_on_c, 0, 66, 100
2, 16708200, Note_on_c, 0, 66, 0
2, 16708200, Note_on_c, 0, 67, 100
2, 16708320, Note_on_c, 0, 67, 0
2, 16708320, Note_on_c, 0, 66, 100
2, 16708380, Note_on_c, 0, 66, 0
2, 16708380, Note_on_c, 0, 67, 100
2, 16708440, Note_on_c, 0, 67, 0
2, 16708440, Note_on_c, 0, 52, 100
2, 16708880, Note_on_c, 0, 52, 0
2, 16708880, Note_on_c, 0, 54, 100
2, 16708960, Note_on_c, 0, 54, 0
2, 16708960, Note_on_c, 0, 55, 100
2, 16709040, Note_on_c, 0, 55, 0
2, 16709040, Note_on_c, 0, 57, 100
2, 16709120, Note_on_c, 0, 57, 0
2, 16709120, Note_on_c, 0, 59, 100
2, 16709200, Note_on_c, 0, 59, 0
2, 16709200, Note_on_c, 0, 60, 100
2, 16709280, Note_on_c, 0, 60, 0
2, 16709280, Note_on_c, 0, 59, 100
2, 16709360, Note_on_c, 0, 59, 0
2, 16709360, Note_on_c, 0, 60, 100
2, 16709440, Note_on_c, 0, 60, 0
2, 16709440, Note_on_c, 0, 65, 100
2, 16709520, Note_on_c, 0, 65, 0
2, 16709520, Note_on_c, 0, 64, 100
2, 16709600, Note_on_c, 0, 64, 0
2, 16709600, Note_on_c, 0, 62, 100
2, 16709680, Note_on_c, 0, 62, 0
2, 16709680, Note_on_c, 0, 60, 100
2, 16709760, Note_on_c, 0, 60, 0
2, 16709760, Note_on_c, 0, 62, 100
2, 16709840, Note_on_c, 0, 62, 0
2, 16709840, Note_on_c, 0, 60, 100
2, 16709920, Note_on_c, 0, 60, 0
2, 16709920, Note_on_c, 0, 59, 100
2, 16710000, Note_on_c, 0, 59, 0
2, 16710000, Note_on_c, 0, 60, 100
2, 16710080, Note_on_c, 0, 60, 0
2, 16710080, Note_on_c, 0, 59, 100
2, 16710160, Note_on_c, 0, 59, 0
2, 16710160, Note_on_c, 0, 57, 100
2, 16710240, Note_on_c, 0, 57, 0
2, 16710240, Note_on_c, 0, 59, 100
2, 16710320, Note_on_c, 0, 59, 0
2, 16710320, Note_on_c, 0, 57, 100
2, 16710400, Note_on_c, 0, 57, 0
2, 16710400, Note_on_c, 0, 55, 100
2, 16710480, Note_on_c, 0, 55, 0
2, 16710480, Note_on_c, 0, 57, 100
2, 16710560, Note_on_c, 0, 57, 0
2, 16710560, Note_on_c, 0, 54, 100
2, 16710640, Note_on_c, 0, 54, 0
2, 16710640, Note_on_c, 0, 59, 100
2, 16710720, Note_on_c, 0, 59, 0
2, 16710720, Note_on_c, 0, 57, 100
2, 16710800, Note_on_c, 0, 57, 0
2, 16710800, Note_on_c, 0, 59, 100
2, 16710880, Note_on_c, 0, 59, 0
2, 16710880, Note_on_c, 0, 64, 100
2, 16710960, Note_on_c, 0, 64, 0
2, 16710960, Note_on_c, 0, 62, 100
2, 16711040, Note_on_c, 0, 62, 0
2, 16711040, Note_on_c, 0, 60, 100
2, 16711120, Note_on_c, 0, 60, 0
2, 16711120, Note_on_c, 0, 59, 100
2, 16711200, Note_on_c, 0, 59, 0
2, 16711200, Note_on_c, 0, 60, 100
2, 16711280, Note_on_c, 0, 60, 0
2, 16711280, Note_on_c, 0, 59, 100
2, 16711360, Note_on_c, 0, 59, 0
2, 16711360, Note_on_c, 0, 57, 100
2, 16711440, Note_on_c, 0, 57, 0
2, 16711440, Note_on_c, 0, 59, 100
2, 16711520, Note_on_c, 0, 59, 0
2, 16711520, Note_on_c, 0, 57, 100
2, 16711600, Note_on_c, 0, 57, 0
2, 16711600, Note_on_c, 0, 55, 100
2, 16711680, Note_on_c, 0, 55, 0
2, 16711680, Note_on_c, 0, 57, 100
2, 16711760, Note_on_c, 0, 57, 0
2, 16711760, Note_on_c, 0, 55, 100
2, 16711840, Note_on_c, 0, 55, 0
2, 16711840, Note_on_c, 0, 54, 100
2, 16711920, Note_on_c, 0, 54, 0
2, 16711920, Note_on_c, 0, 55, 100
2, 16712000, Note_on_c, 0, 55, 0
2, 16712000, Note_on_c, 0, 52, 100
2, 16712080, Note_on_c, 0, 52, 0
2, 16712080, Note_on_c, 0, 57, 100
2, 16712160, Note_on_c, 0, 57, 0
2, 16712160, Note_on_c, 0, 55, 100
2, 16712240, Note_on_c, 0, 55, 0
2, 16712240, Note_on_c, 0, 57, 100
2, 16712320, Note_on_c, 0, 57, 0
2, 16712320, Note_on_c, 0, 62, 100
2, 16712400, Note_on_c, 0, 62, 0
2, 16712400, Note_on_c, 0, 60, 100
2, 16712480, Note_on_c, 0, 60, 0
2, 16712480, Note_on_c, 0, 59, 100
2, 16712560, Note_on_c, 0, 59, 0
2, 16712560, Note_on_c, 0, 57, 100
2, 16712640, Note_on_c, 0, 57, 0
2, 16712640, Note_on_c, 0, 59, 100
2, 16712720, Note_on_c, 0, 59, 0
2, 16712720, Note_on_c, 0, 57, 100
2, 16712800, Note_on_c, 0, 57, 0
2, 16712800, Note_on_c, 0, 55, 100
2, 16712880, Note_on_c, 0, 55, 0
2, 16712880, Note_on_c, 0, 57, 100
2, 16712960, Note_on_c, 0, 57, 0
2, 16712960, Note_on_c, 0, 55, 100
2, 16713040, Note_on_c, 0, 55, 0
2, 16713040, Note_on_c, 0, 54, 100
2, 16713120, Note_on_c, 0, 54, 0
2, 16713120, Note_on_c, 0, 55, 100
2, 16713200, Note_on_c, 0, 55, 0
2, 16713200, Note_on_c, 0, 54, 100
2, 16713280, Note_on_c, 0, 54, 0
2, 16713280, Note_on_c, 0, 52, 100
2, 16713360, Note_on_c, 0, 52, 0
2, 16713360, Note_on_c, 0, 54, 100
2, 16713440, Note_on_c, 0, 54, 0
2, 16713440, Note_on_c, 0, 52, 100
2, 16713520, Note_on_c, 0, 52, 0
2, 16713520, Note_on_c, 0, 50, 100
2, 16713600, Note_on_c, 0, 50, 0
2, 16713600, Note_on_c, 0, 49, 100
2, 16713680, Note_on_c, 0, 49, 0
2, 16713680, Note_on_c, 0, 50, 100
2, 16713760, Note_on_c, 0, 50, 0
2, 16713760, Note_on_c, 0, 55, 100
2, 16713840, Note_on_c, 0, 55, 0
2, 16713840, Note_on_c, 0, 54, 100
2, 16713920, Note_on_c, 0, 54, 0
2, 16713920, Note_on_c, 0, 52, 100
2, 16714000, Note_on_c, 0, 52, 0
2, 16714000, Note_on_c, 0, 50, 100
2, 16714080, Note_on_c, 0, 50, 0
2, 16714080, Note_on_c, 0, 52, 100
2, 16714160, Note_on_c, 0, 52, 0
2, 16714160, Note_on_c, 0, 50, 100
2, 16714240, Note_on_c, 0, 50, 0
2, 16714240, Note_on_c, 0, 48, 100
2, 16714320, Note_on_c, 0, 48, 0
2, 16714320, Note_on_c, 0, 50, 100
2, 16714400, Note_on_c, 0, 50, 0
2, 16714400, Note_on_c, 0, 48, 100
2, 16714480, Note_on_c, 0, 48, 0
2, 16714480, Note_on_c, 0, 47, 100
2, 16714560, Note_on_c, 0, 47, 0
2, 16714560, Note_on_c, 0, 48, 100
2, 16714640, Note_on_c, 0, 48, 0
2, 16714640, Note_on_c, 0, 47, 100
2, 16714720, Note_on_c, 0, 47, 0
2, 16714720, Note_on_c, 0, 45, 100
2, 16714800, Note_on_c, 0, 45, 0
2, 16714800, Note_on_c, 0, 47, 100
2, 16714880, Note_on_c, 0, 47, 0
2, 16714880, Note_on_c, 0, 45, 100
2, 16714960, Note_on_c, 0, 45, 0
2, 16714960, Note_on_c, 0, 43, 100
2, 16715040, Note_on_c, 0, 43, 0
2, 16715040, Note_on_c, 0, 42, 100
2, 16715120, Note_on_c, 0, 42, 0
2, 16715120, Note_on_c, 0, 43, 100
2, 16715200, Note_on_c, 0, 43, 0
2, 16715200, Note_on_c, 0, 48, 100
2, 16715280, Note_on_c, 0, 48, 0
2, 16715280, Note_on_c, 0, 47, 100
2, 16715360, Note_on_c, 0, 47, 0
2, 16715360, Note_on_c, 0, 45, 100
2, 16715440, Note_on_c, 0, 45, 0
2, 16715440, Note_on_c, 0, 43, 100
2, 16715520, Note_on_c, 0, 43, 0
2, 16715520, Note_on_c, 0, 45, 100
2, 16715600, Note_on_c, 0, 45, 0
2, 16715600, Note_on_c, 0, 43, 100
2, 16715680, Note_on_c, 0, 43, 0
2, 16715680, Note_on_c, 0, 41, 100
2, 16715760, Note_on_c, 0, 41, 0
2, 16715760, Note_on_c, 0, 43, 100
2, 16715840, Note_on_c, 0, 43, 0
2, 16715840, Note_on_c, 0, 41, 100
2, 16715920, Note_on_c, 0, 41, 0
2, 16715920, Note_on_c, 0, 40, 100
2, 16716000, Note_on_c, 0, 40, 0
2, 16716000, Note_on_c, 0, 41, 100
2, 16716080, Note_on_c, 0, 41, 0
2, 16716080, Note_on_c, 0, 40, 100
2, 16716160, Note_on_c, 0, 40, 0
2, 16716160, Note_on_c, 0, 38, 100
2, 16716240, Note_on_c, 0, 38, 0
2, 16716240, Note_on_c, 0, 40, 100
2, 16716320, Note_on_c, 0, 40, 0
2, 16716320, Note_on_c, 0, 38, 100
2, 16716400, Note_on_c, 0, 38, 0
2, 16716400, Note_on_c, 0, 36, 100
2, 16716480, Note_on_c, 0, 36, 0
2, 16716480, Note_on_c, 0, 43, 100
2, 16716720, Note_on_c, 0, 43, 0
2, 16716720, Note_on_c, 0, 45, 100
2, 16716800, Note_on_c, 0, 45, 0
2, 16716800, Note_on_c, 0, 47, 100
2, 16716880, Note_on_c, 0, 47, 0
2, 16716880, Note_on_c, 0, 48, 100
2, 16716960, Note_on_c, 0, 48, 0
2, 16716960, Note_on_c, 0, 47, 100
2, 16717040, Note_on_c, 0, 47, 0
2, 16717040, Note_on_c, 0, 48, 100
2, 16717120, Note_on_c, 0, 48, 0
2, 16717120, Note_on_c, 0, 50, 100
2, 16717200, Note_on_c, 0, 50, 0
2, 16717200, Note_on_c, 0, 48, 100
2, 16717280, Note_on_c, 0, 48, 0
2, 16717280, Note_on_c, 0, 50, 100
2, 16717360, Note_on_c, 0, 50, 0
2, 16717360, Note_on_c, 0, 52, 100
2, 16717440, Note_on_c, 0, 52, 0
2, 16717440, Note_on_c, 0, 50, 100
2, 16717520, Note_on_c, 0, 50, 0
2, 16717520, Note_on_c, 0, 48, 100
2, 16717600, Note_on_c, 0, 48, 0
2, 16717600, Note_on_c, 0, 47, 100
2, 16717680, Note_on_c, 0, 47, 0
2, 16717680, Note_on_c, 0, 45, 100
2, 16717760, Note_on_c, 0, 45, 0
2, 16717760, Note_on_c, 0, 43, 100
2, 16717840, Note_on_c, 0, 43, 0
2, 16717840, Note_on_c, 0, 42, 100
2, 16717920, Note_on_c, 0, 42, 0
2, 16717920, Note_on_c, 0, 40, 100
2, 16718000, Note_on_c, 0, 40, 0
2, 16718000, Note_on_c, 0, 42, 100
2, 16718080, Note_on_c, 0, 42, 0
2, 16718080, Note_on_c, 0, 38, 100
2, 16718160, Note_on_c, 0, 38, 0
2, 16718160, Note_on_c, 0, 40, 100
2, 16718240, Note_on_c, 0, 40, 0
2, 16718240, Note_on_c, 0, 42, 100
2, 16718320, Note_on_c, 0, 42, 0
2, 16718320, Note_on_c, 0, 43, 100
2, 16718400, Note_on_c, 0, 43, 0
2, 16718400, Note_on_c, 0, 42, 100
2, 16718480, Note_on_c, 0, 42, 0
2, 16718480, Note_on_c, 0, 43, 100
2, 16718560, Note_on_c, 0, 43, 0
2, 16718560, Note_on_c, 0, 45, 100
2, 16718640, Note_on_c, 0, 45, 0
2, 16718640, Note_on_c, 0, 47, 100
2, 16718720, Note_on_c, 0, 47, 0
2, 16718720, Note_on_c, 0, 48, 100
2, 16718800, Note_on_c, 0, 48, 0
2, 16718800, Note_on_c, 0, 50, 100
2, 16718880, Note_on_c, 0, 50, 0
2, 16718880, Note_on_c, 0, 49, 100
2, 16718960, Note_on_c, 0, 49, 0
2, 16718960, Note_on_c, 0, 50, 100
2, 16719040, Note_on_c, 0, 50, 0
2, 16719040, Note_on_c, 0, 52, 100
2, 16719120, Note_on_c, 0, 52, 0
2, 16719120, Note_on_c, 0, 54, 100
2, 16719200, Note_on_c, 0, 54, 0
2, 16719200, Note_on_c, 0, 50, 100
2, 16719280, Note_on_c, 0, 50, 0
2, 16719280, Note_on_c, 0, 55, 100
2, 16719360, Note_on_c, 0, 55, 0
2, 16719360, Note_on_c, 0, 57, 100
2, 16719920, Note_on_c, 0, 57, 0
2, 16719920, Note_on_c, 0, 55, 100
2, 16720000, Note_on_c, 0, 55, 0
2, 16720000, Note_on_c, 0, 54, 100
2, 16720080, Note_on_c, 0, 54, 0
2, 16720080, Note_on_c, 0, 55, 100
2, 16720160, Note_on_c, 0, 55, 0
2, 16720160, Note_on_c, 0, 50, 100
2, 16720240, Note_on_c, 0, 50, 0
2, 16720240, Note_on_c, 0, 43, 100
2, 16720320, Note_on_c, 0, 43, 0
2, 16720320, Note_on_c, 0, 62, 100
2, 16720800, Note_on_c, 0, 62, 0
2, 16720800, Note_on_c, 0, 60, 100
2, 16722000, Note_on_c, 0, 60, 0
2, 16722000, Note_on_c, 0, 59, 100
2, 16722240, Note_on_c, 0, 59, 0
2, 16722240, Note_on_c, 0, 62, 100
2, 16722600, Note_on_c, 0, 62, 0
2, 16722600, Note_on_c, 0, 67, 100
2, 16722720, Note_on_c, 0, 67, 0
2, 16722720, Note_on_c, 0, 74, 100
2, 16723440, Note_on_c, 0, 74, 0
2, 16723440, Note_on_c, 0, 73, 100
2, 16723680, Note_on_c, 0, 73, 0
2, 16723680, Note_on_c, 0, 75, 100
2, 16724160, Note_on_c, 0, 75, 0
2, 16724160, Note_on_c, 0, 76, 100
2, 16724880, Note_on_c, 0, 76, 0
2, 16724880, Note_on_c, 0, 75, 100
2, 16725120, Note_on_c, 0, 75, 0
2, 16725120, Note_on_c, 0, 66, 100
2, 16725600, Note_on_c, 0, 66, 0
2, 16725600, Note_on_c, 0, 75, 100
2, 16726320, Note_on_c, 0, 75, 0
2, 16726320, Note_on_c, 0, 76, 100
2, 16726560, Note_on_c, 0, 76, 0
2, 16726560, Note_on_c, 0, 71, 100
2, 16727760, Note_on_c, 0, 71, 0
2, 16727760, Note_on_c, 0, 69, 100
2, 16728000, Note_on_c, 0, 69, 0
2, 16728000, Note_on_c, 0, 71, 100
2, 16728480, Note_on_c, 0, 71, 0
2, 16728480, Note_on_c, 0, 72, 100
2, 16729200, Note_on_c, 0, 72, 0
2, 16729200, Note_on_c, 0, 71, 100
2, 16729440, Note_on_c, 0, 71, 0
2, 16729440, Note_on_c, 0, 69, 100
2, 16730880, Note_on_c, 0, 69, 0
2, 16730880, Note_on_c, 0, 66, 100
2, 16731240, Note_on_c, 0, 66, 0
2, 16731240, Note_on_c, 0, 67, 100
2, 16731360, Note_on_c, 0, 67, 0
2, 16731360, Note_on_c, 0, 66, 100
2, 16731420, Note_on_c, 0, 66, 0
2, 16731420, Note_on_c, 0, 67, 100
2, 16731480, Note_on_c, 0, 67, 0
2, 16731480, Note_on_c, 0, 52, 100
2, 16731920, Note_on_c, 0, 52, 0
2, 16731920, Note_on_c, 0, 54, 100
2, 16732000, Note_on_c, 0, 54, 0
2, 16732000, Note_on_c, 0, 55, 100
2, 16732080, Note_on_c, 0, 55, 0
2, 16732080, Note_on_c, 0, 57, 100
2, 16732160, Note_on_c, 0, 57, 0
2, 16732160, Note_on_c, 0, 59, 100
2, 16732240, Note_on_c, 0, 59, 0
2, 16732240, Note_on_c, 0, 60, 100
2, 16732320, Note_on_c, 0, 60, 0
2, 16732320, Note_on_c, 0, 59, 100
2, 16732400, Note_on_c, 0, 59, 0
2, 16732400, Note_on_c, 0, 60, 100
2, 16732480, Note_on_c, 0, 60, 0
2, 16732480, Note_on_c, 0, 65, 100
2, 16732560, Note_on_c, 0, 65, 0
2, 16732560, Note_on_c, 0, 64, 100
2, 16732640, Note_on_c, 0, 64, 0
2, 16732640, Note_on_c, 0, 62, 100
2, 16732720, Note_on_c, 0, 62, 0
2, 16732720, Note_on_c, 0, 60, 100
2, 16732800, Note_on_c, 0, 60, 0
2, 16732800, Note_on_c, 0, 62, 100
2, 16732880, Note_on_c, 0, 62, 0
2, 16732880, Note_on_c, 0, 60, 100
2, 16732960, Note_on_c, 0, 60, 0
2, 16732960, Note_on_c, 0, 59, 100
2, 16733040, Note_on_c, 0, 59, 0
2, 16733040, Note_on_c, 0, 60, 100
2, 16733120, Note_on_c, 0, 60, 0
2, 16733120, Note_on_c, 0, 59, 100
2, 16733200, Note_on_c, 0, 59, 0
2, 16733200, Note_on_c, 0, 57, 100
2, 16733280, Note_on_c, 0, 57, 0
2, 16733280, Note_on_c, 0, 59, 100
2, 16733360, Note_on_c, 0, 59, 0
2, 16733360, Note_on_c, 0, 57, 100
2, 16733440, Note_on_c, 0, 57, 0
2, 16733440, Note_on_c, 0, 55, 100
2, 16733520, Note_on_c, 0, 55, 0
2, 16733520, Note_on_c, 0, 57, 100
2, 16733600, Note_on_c, 0, 57, 0
2, 16733600, Note_on_c, 0, 54, 100
2, 16733680, Note_on_c, 0, 54, 0
2, 16733680, Note_on_c, 0, 59, 100
2, 16733760, Note_on_c, 0, 59, 0
2, 16733760, Note_on_c, 0, 57, 100
2, 16733840, Note_on_c, 0, 57, 0
2, 16733840, Note_on_c, 0, 59, 100
2, 16733920, Note_on_c, 0, 59, 0
2, 16733920, Note_on_c, 0, 64, 100
2, 16734000, Note_on_c, 0, 64, 0
2, 16734000, Note_on_c, 0, 62, 100
2, 16734080, Note_on_c, 0, 62, 0
2, 16734080, Note_on_c, 0, 60, 100
2, 16734160, Note_on_c, 0, 60, 0
2, 16734160, Note_on_c, 0, 59, 100
2, 16734240, Note_on_c, 0, 59, 0
2, 16734240, Note_on_c, 0, 60, 100
2, 16734320, Note_on_c, 0, 60, 0
2, 16734320, Note_on_c, 0, 59, 100
2, 16734400, Note_on_c, 0, 59, 0
2, 16734400, Note_on_c, 0, 57, 100
2, 16734480, Note_on_c, 0, 57, 0
2, 16734480, Note_on_c, 0, 59, 100
2, 16734560, Note_on_c, 0, 59, 0
2, 16734560, Note_on_c, 0, 57, 100
2, 16734640, Note_on_c, 0, 57, 0
2, 16734640, Note_on_c, 0, 55, 100
2, 16734720, Note_on_c, 0, 55, 0
2, 16734720, Note_on_c, 0, 57, 100
2, 16734800, Note_on_c, 0, 57, 0
2, 16734800, Note_on_c, 0, 55, 100
2, 16734880, Note_on_c, 0, 55, 0
2, 16734880, Note_on_c, 0, 54, 100
2, 16734960, Note_on_c, 0, 54, 0
2, 16734960, Note_on_c, 0, 55, 100
2, 16735040, Note_on_c, 0, 55, 0
2, 16735040, Note_on_c, 0, 52, 100
2, 16735120, Note_on_c, 0, 52, 0
2, 16735120, Note_on_c, 0, 57, 100
2, 16735200, Note_on_c, 0, 57, 0
2, 16735200, Note_on_c, 0, 55, 100
2, 16735280, Note_on_c, 0, 55, 0
2, 16735280, Note_on_c, 0, 57, 100
2, 16735360, Note_on_c, 0, 57, 0
2, 16735360, Note_on_c, 0, 62, 100
2, 16735440, Note_on_c, 0, 62, 0
2, 16735440, Note_on_c, 0, 60, 100
2, 16735520, Note_on_c, 0, 60, 0
2, 16735520, Note_on_c, 0, 59, 100
2, 16735600, Note_on_c, 0, 59, 0
2, 16735600, Note_on_c, 0, 57, 100
2, 16735680, Note_on_c, 0, 57, 0
2, 16735680, Note_on_c, 0, 59, 100
2, 16735760, Note_on_c, 0, 59, 0
2, 16735760, Note_on_c, 0, 57, 100
2, 16735840, Note_on_c, 0, 57, 0
2, 16735840, Note_on_c, 0, 55, 100
2, 16735920, Note_on_c, 0, 55, 0
2, 16735920, Note_on_c, 0, 57, 100
2, 16736000, Note_on_c, 0, 57, 0
2, 16736000, Note_on_c, 0, 55, 100
2, 16736080, Note_on_c, 0, 55, 0
2, 16736080, Note_on_c, 0, 54, 100
2, 16736160, Note_on_c, 0, 54, 0
2, 16736160, Note_on_c, 0, 55, 100
2, 16736240, Note_on_c, 0, 55, 0
2, 16736240, Note_on_c, 0, 54, 100
2, 16736320, Note_on_c, 0, 54, 0
2, 16736320, Note_on_c, 0, 52, 100
2, 16736400, Note_on_c, 0, 52, 0
2, 16736400, Note_on_c, 0, 54, 100
2, 16736480, Note_on_c, 0, 54, 0
2, 16736480, Note_on_c, 0, 52, 100
2, 16736560, Note_on_c, 0, 52, 0
2, 16736560, Note_on_c, 0, 50, 100
2, 16736640, Note_on_c, 0, 50, 0
2, 16736640, Note_on_c, 0, 49, 100
2, 16736720, Note_on_c, 0, 49, 0
2, 16736720, Note_on_c, 0, 50, 100
2, 16736800, Note_on_c, 0, 50, 0
2, 16736800, Note_on_c, 0, 55, 100
2, 16736880, Note_on_c, 0, 55, 0
2, 16736880, Note_on_c, 0, 54, 100
2, 16736960, Note_on_c, 0, 54, 0
2, 16736960, Note_on_c, 0, 52, 100
2, 16737040, Note_on_c, 0, 52, 0
2, 16737040, Note_on_c, 0, 50, 100
2, 16737120, Note_on_c, 0, 50, 0
2, 16737120, Note_on_c, 0, 52, 100
2, 16737200, Note_on_c, 0, 52, 0
2, 16737200, Note_on_c, 0, 50, 100
2, 16737280, Note_on_c, 0, 50, 0
2, 16737280, Note_on_c, 0, 48, 100
2, 16737360, Note_on_c, 0, 48, 0
2, 16737360, Note_on_c, 0, 50, 100
2, 16737440, Note_on_c, 0, 50, 0
2, 16737440, Note_on_c, 0, 48, 100
2, 16737520, Note_on_c, 0, 48, 0
2, 16737520, Note_on_c, 0, 47, 100
2, 16737600, Note_on_c, 0, 47, 0
2, 16737600, Note_on_c, 0, 48, 100
2, 16737680, Note_on_c, 0, 48, 0
2, 16737680, Note_on_c, 0, 47, 100
2, 16737760, Note_on_c, 0, 47, 0
2, 16737760, Note_on_c, 0, 45, 100
2, 16737840, Note_on_c, 0, 45, 0
2, 16737840, Note_on_c, 0, 47, 100
2, 16737920, Note_on_c, 0, 47, 0
2, 16737920, Note_on_c, 0, 45, 100
2, 16738000, Note_on_c, 0, 45, 0
2, 16738000, Note_on_c, 0, 43, 100
2, 16738080, Note_on_c, 0, 43, 0
2, 16738080, Note_on_c, 0, 42, 100
2, 16738160, Note_on_c, 0, 42, 0
2, 16738160, Note_on_c, 0, 43, 100
2, 16738240, Note_on_c, 0, 43, 0
2, 16738240, Note_on_c, 0, 48, 100
2, 16738320, Note_on_c, 0, 48, 0
2, 16738320, Note_on_c, 0, 47, 100
2, 16738400, Note_on_c, 0, 47, 0
2, 16738400, Note_on_c, 0, 45, 100
2, 16738480, Note_on_c, 0, 45, 0
2, 16738480, Note_on_c, 0, 43, 100
2, 16738560, Note_on_c, 0, 43, 0
2, 16738560, Note_on_c, 0, 45, 100
2, 16738640, Note_on_c, 0, 45, 0
2, 16738640, Note_on_c, 0, 43, 100
2, 16738720, Note_on_c, 0, 43, 0
2, 16738720, Note_on_c, 0, 41, 100
2, 16738800, Note_on_c, 0, 41, 0
2, 16738800, Note_on_c, 0, 43, 100
2, 16738880, Note_on_c, 0, 43, 0
2, 16738880, Note_on_c, 0, 41, 100
2, 16738960, Note_on_c, 0, 41, 0
2, 16738960, Note_on_c, 0, 40, 100
2, 16739040, Note_on_c, 0, 40, 0
2, 16739040, Note_on_c, 0, 41, 100
2, 16739120, Note_on_c, 0, 41, 0
2, 16739120, Note_on_c, 0, 40, 100
2, 16739200, Note_on_c, 0, 40, 0
2, 16739200, Note_on_c, 0, 38, 100
2, 16739280, Note_on_c, 0, 38, 0
2, 16739280, Note_on_c, 0, 40, 100
2, 16739360, Note_on_c, 0, 40, 0
2, 16739360, Note_on_c, 0, 38, 100
2, 16739440, Note_on_c, 0, 38, 0
2, 16739440, Note_on_c, 0, 36, 100
2, 16739520, Note_on_c, 0, 36, 0
2, 16739520, Note_on_c, 0, 43, 100
2, 16739760, Note_on_c, 0, 43, 0
2, 16739760, Note_on_c, 0, 45, 100
2, 16739840, Note_on_c, 0, 45, 0
2, 16739840, Note_on_c, 0, 47, 100
2, 16739920, Note_on_c, 0, 47, 0
2, 16739920, Note_on_c, 0, 48, 100
2, 16740000, Note_on_c, 0, 48, 0
2, 16740000, Note_on_c, 0, 47, 100
2, 16740080, Note_on_c, 0, 47, 0
2, 16740080, Note_on_c, 0, 48, 100
2, 16740160, Note_on_c, 0, 48, 0
2, 16740160, Note_on_c, 0, 50, 100
2, 16740240, Note_on_c, 0, 50, 0
2, 16740240, Note_on_c, 0, 48, 100
2, 16740320, Note_on_c, 0, 48, 0
2, 16740320, Note_on_c, 0, 50, 100
2, 16740400, Note_on_c, 0, 50, 0
2, 16740400, Note_on_c, 0, 52, 100
2, 16740480, Note_on_c, 0, 52, 0
2, 16740480, Note_on_c, 0, 50, 100
2, 16740560, Note_on_c, 0, 50, 0
2, 16740560, Note_on_c, 0, 48, 100
2, 16740640, Note_on_c, 0, 48, 0
2, 16740640, Note_on_c, 0, 47, 100
2, 16740720, Note_on_c, 0, 47, 0
2, 16740720, Note_on_c, 0, 45, 100
2, 16740800, Note_on_c, 0, 45, 0
2, 16740800, Note_on_c, 0, 43, 100
2, 16740880, Note_on_c, 0, 43, 0
2, 16740880, Note_on_c, 0, 42, 100
2, 16740960, Note_on_c, 0, 42, 0
2, 16740960, Note_on_c, 0, 40, 100
2, 16741040, Note_on_c, 0, 40, 0
2, 16741040, Note_on_c, 0, 42, 100
2, 16741120, Note_on_c, 0, 42, 0
2, 16741120, Note_on_c, 0, 38, 100
2, 16741200, Note_on_c, 0, 38, 0
2, 16741200, Note_on_c, 0, 40, 100
2, 16741280, Note_on_c, 0, 40, 0
2, 16741280, Note_on_c, 0, 42, 100
2, 16741360, Note_on_c, 0, 42, 0
2, 16741360, Note_on_c, 0, 43, 100
2, 16741440, Note_on_c, 0, 43, 0
2, 16741440, Note_on_c, 0, 42, 100
2, 16741520, Note_on_c, 0, 42, 0
2, 16741520, Note_on_c, 0, 43, 100
2, 16741600, Note_on_c, 0, 43, 0
2, 16741600, Note_on_c, 0, 45, 100
2, 16741680, Note_on_c, 0, 45, 0
2, 16741680, Note_on_c, 0, 47, 100
2, 16741760, Note_on_c, 0, 47, 0
2, 16741760, Note_on_c, 0, 48, 100
2, 16741840, Note_on_c, 0, 48, 0
2, 16741840, Note_on_c, 0, 50, 100
2, 16741920, Note_on_c, 0, 50, 0
2, 16741920, Note_on_c, 0, 49, 100
2, 16742000, Note_on_c, 0, 49, 0
2, 16742000, Note_on_c, 0, 50, 100
2, 16742080, Note_on_c, 0, 50, 0
2, 16742080, Note_on_c, 0, 52, 100
2, 16742160, Note_on_c, 0, 52, 0
2, 16742160, Note_on_c, 0, 54, 100
2, 16742240, Note_on_c, 0, 54, 0
2, 16742240, Note_on_c, 0, 50, 100
2, 16742320, Note_on_c, 0, 50, 0
2, 16742320, Note_on_c, 0, 55, 100
2, 16742400, Note_on_c, 0, 55, 0
2, 16742400, Note_on_c, 0, 57, 100
2, 16742960, Note_on_c, 0, 57, 0
2, 16742960, Note_on_c, 0, 55, 100
2, 16743040, Note_on_c, 0, 55, 0
2, 16743040, Note_on_c, 0, 54, 100
2, 16743120, Note_on_c, 0, 54, 0
2, 16743120, Note_on_c, 0, 55, 100
2, 16743200, Note_on_c, 0, 55, 0
2, 16743200, Note_on_c, 0, 50, 100
2, 16743280, Note_on_c, 0, 50, 0
2, 16743280, Note_on_c, 0, 43, 100
2, 16743360, Note_on_c, 0, 43, 0
2, 16743360, Note_on_c, 0, 55, 100
2, 17228400, Note_on_c, 0, 55, 0
2, 17228400, Note_on_c, 0, 54, 100
2, 17228880, Note_on_c, 0, 54, 0
2, 17228880, Note_on_c, 0, 52, 100
2, 17229360, Note_on_c, 0, 52, 0
2, 17229360, Note_on_c, 0, 50, 100
2, 17229840, Note_on_c, 0, 50, 0
2, 17229840, Note_on_c, 0, 47, 100
2, 17230320, Note_on_c, 0, 47, 0
2, 17230320, Note_on_c, 0, 48, 100
2, 17230800, Note_on_c, 0, 48, 0
2, 17230800, Note_on_c, 0, 50, 100
2, 17231280, Note_on_c, 0, 50, 0
2, 17231280, Note_on_c, 0, 43, 100
2, 17231760, Note_on_c, 0, 43, 0
2, 17231760, Note_on_c, 0, 55, 100
2, 17232240, Note_on_c, 0, 55, 0
2, 17232240, Note_on_c, 0, 54, 100
2, 17232720, Note_on_c, 0, 54, 0
2, 17232720, Note_on_c, 0, 52, 100
2, 17233200, Note_on_c, 0, 52, 0
2, 17233200, Note_on_c, 0, 50, 100
2, 17233680, Note_on_c, 0, 50, 0
2, 17233680, Note_on_c, 0, 47, 100
2, 17234160, Note_on_c, 0, 47, 0
2, 17234160, Note_on_c, 0, 48, 100
2, 17234640, Note_on_c, 0, 48, 0
2, 17234640, Note_on_c, 0, 50, 100
2, 17235120, Note_on_c, 0, 50, 0
2, 17235120, Note_on_c, 0, 43, 100
2, 17235600, Note_on_c, 0, 43, 0
2, 17235600, Note_on_c, 0, 55, 100
2, 17236080, Note_on_c, 0, 55, 0
2, 17236080, Note_on_c, 0, 54, 100
2, 17236560, Note_on_c, 0, 54, 0
2, 17236560, Note_on_c, 0, 52, 100
2, 17237040, Note_on_c, 0, 52, 0
2, 17237040, Note_on_c, 0, 50, 100
2, 17237520, Note_on_c, 0, 50, 0
2, 17237520, Note_on_c, 0, 47, 100
2, 17238000, Note_on_c, 0, 47, 0
2, 17238000, Note_on_c, 0, 48, 100
2, 17238480, Note_on_c, 0, 48, 0
2, 17238480, Note_on_c, 0, 50, 100
2, 17238960, Note_on_c, 0, 50, 0
2, 17238960, Note_on_c, 0, 43, 100
2, 17239440, Note_on_c, 0, 43, 0
2, 17239440, Note_on_c, 0, 55, 100
2, 17240880, Note_on_c, 0, 55, 0
2, 17240880, Note_on_c, 0, 54, 100
2, 17241360, Note_on_c, 0, 54, 0
2, 17241360, Note_on_c, 0, 52, 100
2, 17241840, Note_on_c, 0, 52, 0
2, 17241840, Note_on_c, 0, 50, 100
2, 17242320, Note_on_c, 0, 50, 0
2, 17242320, Note_on_c, 0, 47, 100
2, 17242800, Note_on_c, 0, 47, 0
2, 17242800, Note_on_c, 0, 48, 100
2, 17243280, Note_on_c, 0, 48, 0
2, 17243280, Note_on_c, 0, 50, 100
2, 17243760, Note_on_c, 0, 50, 0
2, 17243760, Note_on_c, 0, 43, 100
2, 17244240, Note_on_c, 0, 43, 0
2, 17244240, Note_on_c, 0, 55, 100
2, 17244720, Note_on_c, 0, 55, 0
2, 17244720, Note_on_c, 0, 54, 100
2, 17245200, Note_on_c, 0, 54, 0
2, 17245200, Note_on_c, 0, 52, 100
2, 17245680, Note_on_c, 0, 52, 0
2, 17245680, Note_on_c, 0, 50, 100
2, 17246160, Note_on_c, 0, 50, 0
2, 17246160, Note_on_c, 0, 47, 100
2, 17246640, Note_on_c, 0, 47, 0
2, 17246640, Note_on_c, 0, 48, 100
2, 17247120, Note_on_c, 0, 48, 0
2, 17247120, Note_on_c, 0, 50, 100
2, 17247600, Note_on_c, 0, 50, 0
2, 17247600, Note_on_c, 0, 43, 100
2, 17248080, Note_on_c, 0, 43, 0
2, 17248080, Note_on_c, 0, 55, 100
2, 17248560, Note_on_c, 0, 55, 0
2, 17248560, Note_on_c, 0, 54, 100
2, 17249040, Note_on_c, 0, 54, 0
2, 17249040, Note_on_c, 0, 52, 100
2, 17249520, Note_on_c, 0, 52, 0
2, 17249520, Note_on_c, 0, 50, 100
2, 17250000, Note_on_c, 0, 50, 0
2, 17250000, Note_on_c, 0, 47, 100
2, 17250480, Note_on_c, 0, 47, 0
2, 17250480, Note_on_c, 0, 48, 100
2, 17250960, Note_on_c, 0, 48, 0
2, 17250960, Note_on_c, 0, 50, 100
2, 17251440, Note_on_c, 0, 50, 0
2, 17251440, Note_on_c, 0, 43, 100
2, 17251920, Note_on_c, 0, 43, 0
2, 17251920, Note_on_c, 0, 64, 100
2, 17253120, Note_on_c, 0, 64, 0
2, 17253120, Note_on_c, 0, 62, 100
2, 17253240, Note_on_c, 0, 62, 0
2, 17253240, Note_on_c, 0, 60, 100
2, 17253360, Note_on_c, 0, 60, 0
2, 17253360, Note_on_c, 0, 58, 100
2, 17253600, Note_on_c, 0, 58, 0
2, 17253600, Note_on_c, 0, 57, 100
2, 17253840, Note_on_c, 0, 57, 0
2, 17253840, Note_on_c, 0, 54, 100
2, 17254080, Note_on_c, 0, 54, 0
2, 17254080, Note_on_c, 0, 55, 100
2, 17254320, Note_on_c, 0, 55, 0
2, 17254320, Note_on_c, 0, 57, 100
2, 17254560, Note_on_c, 0, 57, 0
2, 17254560, Note_on_c, 0, 50, 100
2, 17254800, Note_on_c, 0, 50, 0
2, 17254800, Note_on_c, 0, 52, 100
2, 17255520, Note_on_c, 0, 52, 0
2, 17255520, Note_on_c, 0, 45, 100
2, 17255760, Note_on_c, 0, 45, 0
2, 17255760, Note_on_c, 0, 57, 100
2, 17256000, Note_on_c, 0, 57, 0
2, 17256000, Note_on_c, 0, 55, 100
2, 17256240, Note_on_c, 0, 55, 0
2, 17256240, Note_on_c, 0, 53, 100
2, 17256480, Note_on_c, 0, 53, 0
2, 17256480, Note_on_c, 0, 52, 100
2, 17256720, Note_on_c, 0, 52, 0
2, 17256720, Note_on_c, 0, 64, 100
2, 17256960, Note_on_c, 0, 64, 0
2, 17256960, Note_on_c, 0, 62, 100
2, 17257080, Note_on_c, 0, 62, 0
2, 17257080, Note_on_c, 0, 60, 100
2, 17257200, Note_on_c, 0, 60, 0
2, 17257200, Note_on_c, 0, 58, 100
2, 17257440, Note_on_c, 0, 58, 0
2, 17257440, Note_on_c, 0, 57, 100
2, 17257680, Note_on_c, 0, 57, 0
2, 17257680, Note_on_c, 0, 54, 100
2, 17257920, Note_on_c, 0, 54, 0
2, 17257920, Note_on_c, 0, 55, 100
2, 17258160, Note_on_c, 0, 55, 0
2, 17258160, Note_on_c, 0, 57, 100
2, 17258400, Note_on_c, 0, 57, 0
2, 17258400, Note_on_c, 0, 50, 100
2, 17258640, Note_on_c, 0, 50, 0
2, 17258640, Note_on_c, 0, 52, 100
2, 17259360, Note_on_c, 0, 52, 0
2, 17259360, Note_on_c, 0, 45, 100
2, 17259600, Note_on_c, 0, 45, 0
2, 17259600, Note_on_c, 0, 57, 100
2, 17259840, Note_on_c, 0, 57, 0
2, 17259840, Note_on_c, 0, 55, 100
2, 17260080, Note_on_c, 0, 55, 0
2, 17260080, Note_on_c, 0, 53, 100
2, 17260320, Note_on_c, 0, 53, 0
2, 17260320, Note_on_c, 0, 52, 100
2, 17260560, Note_on_c, 0, 52, 0
2, 17260560, Note_on_c, 0, 64, 100
2, 17260800, Note_on_c, 0, 64, 0
2, 17260800, Note_on_c, 0, 62, 100
2, 17260920, Note_on_c, 0, 62, 0
2, 17260920, Note_on_c, 0, 60, 100
2, 17261040, Note_on_c, 0, 60, 0
2, 17261040, Note_on_c, 0, 58, 100
2, 17261280, Note_on_c, 0, 58, 0
2, 17261280, Note_on_c, 0, 57, 100
2, 17261520, Note_on_c, 0, 57, 0
2, 17261520, Note_on_c, 0, 54, 100
2, 17261760, Note_on_c, 0, 54, 0
2, 17261760, Note_on_c, 0, 55, 100
2, 17262000, Note_on_c, 0, 55, 0
2, 17262000, Note_on_c, 0, 57, 100
2, 17262240, Note_on_c, 0, 57, 0
2, 17262240, Note_on_c, 0, 50, 100
2, 17262480, Note_on_c, 0, 50, 0
2, 17262480, Note_on_c, 0, 52, 100
2, 17263200, Note_on_c, 0, 52, 0
2, 17263200, Note_on_c, 0, 45, 100
2, 17263440, Note_on_c, 0, 45, 0
2, 17263440, Note_on_c, 0, 57, 100
2, 17263680, Note_on_c, 0, 57, 0
2, 17263680, Note_on_c, 0, 55, 100
2, 17263920, Note_on_c, 0, 55, 0
2, 17263920, Note_on_c, 0, 53, 100
2, 17264160, Note_on_c, 0, 53, 0
2, 17264160, Note_on_c, 0, 52, 100
2, 17264400, Note_on_c, 0, 52, 0
2, 17264400, Note_on_c, 0, 55, 100
2, 17265840, Note_on_c, 0, 55, 0
2, 17265840, Note_on_c, 0, 54, 100
2, 17266320, Note_on_c, 0, 54, 0
2, 17266320, Note_on_c, 0, 52, 100
2, 17266800, Note_on_c, 0, 52, 0
2, 17266800, Note_on_c, 0, 50, 100
2, 17267280, Note_on_c, 0, 50, 0
2, 17267280, Note_on_c, 0, 47, 100
2, 17267760, Note_on_c, 0, 47, 0
2, 17267760, Note_on_c, 0, 48, 100
2, 17268240, Note_on_c, 0, 48, 0
2, 17268240, Note_on_c, 0, 50, 100
2, 17268720, Note_on_c, 0, 50, 0
2, 17268720, Note_on_c, 0, 43, 100
2, 17269200, Note_on_c, 0, 43, 0
2, 17269200, Note_on_c, 0, 55, 100
2, 17269680, Note_on_c, 0, 55, 0
2, 17269680, Note_on_c, 0, 54, 100
2, 17270160, Note_on_c, 0, 54, 0
2, 17270160, Note_on_c, 0, 52, 100
2, 17270640, Note_on_c, 0, 52, 0
2, 17270640, Note_on_c, 0, 50, 100
2, 17271120, Note_on_c, 0, 50, 0
2, 17271120, Note_on_c, 0, 47, 100
2, 17271600, Note_on_c, 0, 47, 0
2, 17271600, Note_on_c, 0, 48, 100
2, 17272080, Note_on_c, 0, 48, 0
2, 17272080, Note_on_c, 0, 50, 100
2, 17272560, Note_on_c, 0, 50, 0
2, 17272560, Note_on_c, 0, 43, 100
2, 17273040, Note_on_c, 0, 43, 0
2, 17273040, Note_on_c, 0, 55, 100
2, 17273520, Note_on_c, 0, 55, 0
2, 17273520, Note_on_c, 0, 54, 100
2, 17274000, Note_on_c, 0, 54, 0
2, 17274000, Note_on_c, 0, 52, 100
2, 17274480, Note_on_c, 0, 52, 0
2, 17274480, Note_on_c, 0, 50, 100
2, 17274960, Note_on_c, 0, 50, 0
2, 17274960, Note_on_c, 0, 47, 100
2, 17275440, Note_on_c, 0, 47, 0
2, 17275440, Note_on_c, 0, 48, 100
2, 17275920, Note_on_c, 0, 48, 0
2, 17275920, Note_on_c, 0, 50, 100
2, 17276400, Note_on_c, 0, 50, 0
2, 17276400, Note_on_c, 0, 43, 100
2, 17276880, Note_on_c, 0, 43, 0
2, 17276880, Note_on_c, 0, 55, 100
2, 17290800, Note_on_c, 0, 55, 0
2, 17290800, Note_on_c, 0, 54, 100
2, 17291280, Note_on_c, 0, 54, 0
2, 17291280, Note_on_c, 0, 52, 100
2, 17291760, Note_on_c, 0, 52, 0
2, 17291760, Note_on_c, 0, 50, 100
2, 17292240, Note_on_c, 0, 50, 0
2, 17292240, Note_on_c, 0, 47, 100
2, 17292720, Note_on_c, 0, 47, 0
2, 17292720, Note_on_c, 0, 48, 100
2, 17293200, Note_on_c, 0, 48, 0
2, 17293200, Note_on_c, 0, 50, 100
2, 17293680, Note_on_c, 0, 50, 0
2, 17293680, Note_on_c, 0, 43, 100
2, 17294160, Note_on_c, 0, 43, 0
2, 17294160, Note_on_c, 0, 55, 100
2, 17294640, Note_on_c, 0, 55, 0
2, 17294640, Note_on_c, 0, 54, 100
2, 17295120, Note_on_c, 0, 54, 0
2, 17295120, Note_on_c, 0, 52, 100
2, 17295600, Note_on_c, 0, 52, 0
2, 17295600, Note_on_c, 0, 50, 100
2, 17296080, Note_on_c, 0, 50, 0
2, 17296080, Note_on_c, 0, 47, 100
2, 17296560, Note_on_c, 0, 47, 0
2, 17296560, Note_on_c, 0, 48, 100
2, 17297040, Note_on_c, 0, 48, 0
2, 17297040, Note_on_c, 0, 50, 100
2, 17297520, Note_on_c, 0, 50, 0
2, 17297520, Note_on_c, 0, 43, 100
2, 17298000, Note_on_c, 0, 43, 0
2, 17298000, Note_on_c, 0, 55, 100
2, 17298480, Note_on_c, 0, 55, 0
2, 17298480, Note_on_c, 0, 54, 100
2, 17298960, Note_on_c, 0, 54, 0
2, 17298960, Note_on_c, 0, 52, 100
2, 17299440, Note_on_c, 0, 52, 0
2, 17299440, Note_on_c, 0, 50, 100
2, 17299920, Note_on_c, 0, 50, 0
2, 17299920, Note_on_c, 0, 47, 100
2, 17300400, Note_on_c, 0, 47, 0
2, 17300400, Note_on_c, 0, 48, 100
2, 17300880, Note_on_c, 0, 48, 0
2, 17300880, Note_on_c, 0, 50, 100
2, 17301360, Note_on_c, 0, 50, 0
2, 17301360, Note_on_c, 0, 43, 100
2, 17301840, Note_on_c, 0, 43, 0
2, 17301840, Note_on_c, 0, 55, 100
2, 17303760, Note_on_c, 0, 55, 0
2, 17303760, Note_on_c, 0, 54, 100
2, 17304720, Note_on_c, 0, 54, 0
2, 17304720, Note_on_c, 0, 52, 100
2, 17305680, Note_on_c, 0, 52, 0
2, 17305680, Note_on_c, 0, 50, 100
2, 17306640, Note_on_c, 0, 50, 0
2, 17306640, Note_on_c, 0, 47, 100
2, 17307600, Note_on_c, 0, 47, 0
2, 17307600, Note_on_c, 0, 48, 100
2, 17308560, Note_on_c, 0, 48, 0
2, 17308560, Note_on_c, 0, 50, 100
2, 17309520, Note_on_c, 0, 50, 0
2, 17309520, Note_on_c, 0, 43, 100
2, 17310480, Note_on_c, 0, 43, 0
2, 17310480, Note_on_c, 0, 55, 100
2, 17311440, Note_on_c, 0, 55, 0
2, 17311440, Note_on_c, 0, 54, 100
2, 17312400, Note_on_c, 0, 54, 0
2, 17312400, Note_on_c, 0, 52, 100
2, 17313360, Note_on_c, 0, 52, 0
2, 17313360, Note_on_c, 0, 50, 100
2, 17314320, Note_on_c, 0, 50, 0
2, 17314320, Note_on_c, 0, 47, 100
2, 17315280, Note_on_c, 0, 47, 0
2, 17315280, Note_on_c, 0, 48, 100
2, 17316240, Note_on_c, 0, 48, 0
2, 17316240, Note_on_c, 0, 50, 100
2, 17317200, Note_on_c, 0, 50, 0
2, 17317200, Note_on_c, 0, 43, 100
2, 17318160, Note_on_c, 0, 43, 0
2, 17318160, Note_on_c, 0, 55, 100
2, 17319120, Note_on_c, 0, 55, 0
2, 17319120, Note_on_c, 0, 54, 100
2, 17320080, Note_on_c, 0, 54, 0
2, 17320080, Note_on_c, 0, 52, 100
2, 17321040, Note_on_c, 0, 52, 0
2, 17321040, Note_on_c, 0, 50, 100
2, 17326320, Note_on_c, 0, 50, 0
2, 17326320, Note_on_c, 0, 52, 100
2, 17326800, Note_on_c, 0, 52, 0
2, 17326800, Note_on_c, 0, 54, 100
2, 17327280, Note_on_c, 0, 54, 0
2, 17327280, Note_on_c, 0, 55, 100
2, 17327760, Note_on_c, 0, 55, 0
2, 17327760, Note_on_c, 0, 59, 100
2, 17328240, Note_on_c, 0, 59, 0
2, 17328240, Note_on_c, 0, 57, 100
2, 17328720, Note_on_c, 0, 57, 0
2, 17328720, Note_on_c, 0, 55, 100
2, 17329200, Note_on_c, 0, 55, 0
2, 17329200, Note_on_c, 0, 62, 100
2, 17329680, Note_on_c, 0, 62, 0
2, 17329680, Note_on_c, 0, 50, 100
2, 17330160, Note_on_c, 0, 50, 0
2, 17330160, Note_on_c, 0, 52, 100
2, 17330640, Note_on_c, 0, 52, 0
2, 17330640, Note_on_c, 0, 54, 100
2, 17331120, Note_on_c, 0, 54, 0
2, 17331120, Note_on_c, 0, 55, 100
2, 17331600, Note_on_c, 0, 55, 0
2, 17331600, Note_on_c, 0, 59, 100
2, 17332080, Note_on_c, 0, 59, 0
2, 17332080, Note_on_c, 0, 57, 100
2, 17332560, Note_on_c, 0, 57, 0
2, 17332560, Note_on_c, 0, 55, 100
2, 17333040, Note_on_c, 0, 55, 0
2, 17333040, Note_on_c, 0, 62, 100
2, 17333520, Note_on_c, 0, 62, 0
2, 17333520, Note_on_c, 0, 50, 100
2, 17334000, Note_on_c, 0, 50, 0
2, 17334000, Note_on_c, 0, 52, 100
2, 17334480, Note_on_c, 0, 52, 0
2, 17334480, Note_on_c, 0, 54, 100
2, 17334960, Note_on_c, 0, 54, 0
2, 17334960, Note_on_c, 0, 55, 100
2, 17335440, Note_on_c, 0, 55, 0
2, 17335440, Note_on_c, 0, 54, 100
2, 17336880, Note_on_c, 0, 54, 0
2, 17336880, Note_on_c, 0, 52, 100
2, 17338320, Note_on_c, 0, 52, 0
2, 17338320, Note_on_c, 0, 50, 100
2, 17339760, Note_on_c, 0, 50, 0
2, 17339760, Note_on_c, 0, 48, 100
2, 17340960, Note_on_c, 0, 48, 0
2, 17340960, Note_on_c, 0, 47, 100
2, 17341200, Note_on_c, 0, 47, 0
2, 17341200, Note_on_c, 0, 48, 100
2, 17342640, Note_on_c, 0, 48, 0
2, 17342640, Note_on_c, 0, 50, 100
2, 17343840, Note_on_c, 0, 50, 0
2, 17343840, Note_on_c, 0, 52, 100
2, 17344080, Note_on_c, 0, 52, 0
2, 17344080, Note_on_c, 0, 48, 100
2, 17344320, Note_on_c, 0, 48, 0
2, 17344320, Note_on_c, 0, 50, 100
2, 17344560, Note_on_c, 0, 50, 0
2, 17344560, Note_on_c, 0, 43, 100
2, 17345520, Note_on_c, 0, 43, 0
2, 17345520, Note_on_c, 0, 50, 100
2, 17346240, Note_on_c, 0, 50, 0
2, 17346240, Note_on_c, 0, 52, 100
2, 17346480, Note_on_c, 0, 52, 0
2, 17346480, Note_on_c, 0, 50, 100
2, 17346510, Note_on_c, 0, 50, 0
2, 17346510, Note_on_c, 0, 52, 100
2, 17346540, Note_on_c, 0, 52, 0
2, 17346540, Note_on_c, 0, 54, 100
2, 17346840, Note_on_c, 0, 54, 0
2, 17346840, Note_on_c, 0, 55, 100
2, 17348880, Note_on_c, 0, 55, 0
2, 17348880, Note_on_c, 0, 54, 100
2, 17348920, Note_on_c, 0, 54, 0
2, 17348920, Note_on_c, 0, 55, 100
2, 17348960, Note_on_c, 0, 55, 0
2, 17348960, Note_on_c, 0, 54, 100
2, 17349000, Note_on_c, 0, 54, 0
2, 17349000, Note_on_c, 0, 52, 100
2, 17349120, Note_on_c, 0, 52, 0
2, 17349120, Note_on_c, 0, 54, 100
2, 17349360, Note_on_c, 0, 54, 0
2, 17349360, Note_on_c, 0, 59, 100
2, 17349600, Note_on_c, 0, 59, 0
2, 17349600, Note_on_c, 0, 52, 100
2, 17350560, Note_on_c, 0, 52, 0
2, 17350560, Note_on_c, 0, 54, 100
2, 17350800, Note_on_c, 0, 54, 0
2, 17350800, Note_on_c, 0, 55, 100
2, 17351040, Note_on_c, 0, 55, 0
2, 17351040, Note_on_c, 0, 57, 100
2, 17351280, Note_on_c, 0, 57, 0
2, 17351280, Note_on_c, 0, 59, 100
2, 17352000, Note_on_c, 0, 59, 0
2, 17352000, Note_on_c, 0, 57, 100
2, 17352240, Note_on_c, 0, 57, 0
2, 17352240, Note_on_c, 0, 55, 100
2, 17352480, Note_on_c, 0, 55, 0
2, 17352480, Note_on_c, 0, 54, 100
2, 17352720, Note_on_c, 0, 54, 0
2, 17352720, Note_on_c, 0, 55, 100
2, 17354160, Note_on_c, 0, 55, 0
2, 17354160, Note_on_c, 0, 57, 100
2, 17355600, Note_on_c, 0, 57, 0
2, 17355600, Note_on_c, 0, 50, 100
2, 17357040, Note_on_c, 0, 50, 0
2, 17357040, Note_on_c, 0, 55, 100
2, 17358480, Note_on_c, 0, 55, 0
2, 17358480, Note_on_c, 0, 54, 100
2, 17359920, Note_on_c, 0, 54, 0
2, 17359920, Note_on_c, 0, 52, 100
2, 17361360, Note_on_c, 0, 52, 0
2, 17361360, Note_on_c, 0, 50, 100
2, 17362800, Note_on_c, 0, 50, 0
2, 17362800, Note_on_c, 0, 48, 100
2, 17364000, Note_on_c, 0, 48, 0
2, 17364000, Note_on_c, 0, 47, 100
2, 17364240, Note_on_c, 0, 47, 0
2, 17364240, Note_on_c, 0, 48, 100
2, 17365680, Note_on_c, 0, 48, 0
2, 17365680, Note_on_c, 0, 50, 100
2, 17366880, Note_on_c, 0, 50, 0
2, 17366880, Note_on_c, 0, 52, 100
2, 17367120, Note_on_c, 0, 52, 0
2, 17367120, Note_on_c, 0, 48, 100
2, 17367360, Note_on_c, 0, 48, 0
2, 17367360, Note_on_c, 0, 50, 100
2, 17367600, Note_on_c, 0, 50, 0
2, 17367600, Note_on_c, 0, 43, 100
2, 17368560, Note_on_c, 0, 43, 0
2, 17368560, Note_on_c, 0, 50, 100
2, 17369280, Note_on_c, 0, 50, 0
2, 17369280, Note_on_c, 0, 52, 100
2, 17369520, Note_on_c, 0, 52, 0
2, 17369520, Note_on_c, 0, 50, 100
2, 17369550, Note_on_c, 0, 50, 0
2, 17369550, Note_on_c, 0, 52, 100
2, 17369580, Note_on_c, 0, 52, 0
2, 17369580, Note_on_c, 0, 54, 100
2, 17369880, Note_on_c, 0, 54, 0
2, 17369880, Note_on_c, 0, 55, 100
2, 17371920, Note_on_c, 0, 55, 0
2, 17371920, Note_on_c, 0, 54, 100
2, 17371960, Note_on_c, 0, 54, 0
2, 17371960, Note_on_c, 0, 55, 100
2, 17372000, Note_on_c, 0, 55, 0
2, 17372000, Note_on_c, 0, 54, 100
2, 17372040, Note_on_c, 0, 54, 0
2, 17372040, Note_on_c, 0, 52, 100
2, 17372160, Note_on_c, 0, 52, 0
2, 17372160, Note_on_c, 0, 54, 100
2, 17372400, Note_on_c, 0, 54, 0
2, 17372400, Note_on_c, 0, 59, 100
2, 17372640, Note_on_c, 0, 59, 0
2, 17372640, Note_on_c, 0, 52, 100
2, 17373600, Note_on_c, 0, 52, 0
2, 17373600, Note_on_c, 0, 54, 100
2, 17373840, Note_on_c, 0, 54, 0
2, 17373840, Note_on_c, 0, 55, 100
2, 17374080, Note_on_c, 0, 55, 0
2, 17374080, Note_on_c, 0, 57, 100
2, 17374320, Note_on_c, 0, 57, 0
2, 17374320, Note_on_c, 0, 59, 100
2, 17375040, Note_on_c, 0, 59, 0
2, 17375040, Note_on_c, 0, 57, 100
2, 17375280, Note_on_c, 0, 57, 0
2, 17375280, Note_on_c, 0, 55, 100
2, 17375520, Note_on_c, 0, 55, 0
2, 17375520, Note_on_c, 0, 54, 100
2, 17375760, Note_on_c, 0, 54, 0
2, 17375760, Note_on_c, 0, 55, 100
2, 17377200, Note_on_c, 0, 55, 0
2, 17377200, Note_on_c, 0, 57, 100
2, 17378640, Note_on_c, 0, 57, 0
2, 17378640, Note_on_c, 0, 50, 100
2, 17380080, Note_on_c, 0, 50, 0
2, 17380080, Note_on_c, 0, 66, 100
2, 17390160, Note_on_c, 0, 66, 0
2, 17390160, Note_on_c, 0, 72, 100
2, 17390880, Note_on_c, 0, 72, 0
2, 17390880, Note_on_c, 0, 71, 100
2, 17391120, Note_on_c, 0, 71, 0
2, 17391120, Note_on_c, 0, 69, 100
2, 17391360, Note_on_c, 0, 69, 0
2, 17391360, Note_on_c, 0, 67, 100
2, 17392080, Note_on_c, 0, 67, 0
2, 17392080, Note_on_c, 0, 57, 100
2, 17394000, Note_on_c, 0, 57, 0
2, 17394000, Note_on_c, 0, 54, 100
2, 17394720, Note_on_c, 0, 54, 0
2, 17394720, Note_on_c, 0, 52, 100
2, 17394960, Note_on_c, 0, 52, 0
2, 17394960, Note_on_c, 0, 50, 100
2, 17395080, Note_on_c, 0, 50, 0
2, 17395080, Note_on_c, 0, 52, 100
2, 17395200, Note_on_c, 0, 52, 0
2, 17395200, Note_on_c, 0, 54, 100
2, 17395320, Note_on_c, 0, 54, 0
2, 17395320, Note_on_c, 0, 55, 100
2, 17395440, Note_on_c, 0, 55, 0
2, 17395440, Note_on_c, 0, 54, 100
2, 17395560, Note_on_c, 0, 54, 0
2, 17395560, Note_on_c, 0, 55, 100
2, 17395680, Note_on_c, 0, 55, 0
2, 17395680, Note_on_c, 0, 52, 100
2, 17396160, Note_on_c, 0, 52, 0
2, 17396160, Note_on_c, 0, 57, 100
2, 17396400, Note_on_c, 0, 57, 0
2, 17396400, Note_on_c, 0, 64, 100
2, 17396640, Note_on_c, 0, 64, 0
2, 17396640, Note_on_c, 0, 71, 100
2, 17397000, Note_on_c, 0, 71, 0
2, 17397000, Note_on_c, 0, 69, 100
2, 17397120, Note_on_c, 0, 69, 0
2, 17397120, Note_on_c, 0, 67, 100
2, 17397240, Note_on_c, 0, 67, 0
2, 17397240, Note_on_c, 0, 66, 100
2, 17398080, Note_on_c, 0, 66, 0
2, 17398080, Note_on_c, 0, 67, 100
2, 17398800, Note_on_c, 0, 67, 0
2, 17398800, Note_on_c, 0, 62, 100
2, 17399520, Note_on_c, 0, 62, 0
2, 17399520, Note_on_c, 0, 67, 100
2, 17400960, Note_on_c, 0, 67, 0
2, 17400960, Note_on_c, 0, 72, 100
2, 17401320, Note_on_c, 0, 72, 0
2, 17401320, Note_on_c, 0, 60, 100
2, 17403240, Note_on_c, 0, 60, 0
2, 17403240, Note_on_c, 0, 59, 100
2, 17403360, Note_on_c, 0, 59, 0
2, 17403360, Note_on_c, 0, 57, 100
2, 17403480, Note_on_c, 0, 57, 0
2, 17403480, Note_on_c, 0, 59, 100
2, 17403600, Note_on_c, 0, 59, 0
2, 17403600, Note_on_c, 0, 66, 100
2, 17413200, Note_on_c, 0, 66, 0
2, 17413200, Note_on_c, 0, 72, 100
2, 17413920, Note_on_c, 0, 72, 0
2, 17413920, Note_on_c, 0, 71, 100
2, 17414160, Note_on_c, 0, 71, 0
2, 17414160, Note_on_c, 0, 69, 100
2, 17414400, Note_on_c, 0, 69, 0
2, 17414400, Note_on_c, 0, 67, 100
2, 17415120, Note_on_c, 0, 67, 0
2, 17415120, Note_on_c, 0, 57, 100
2, 17417040, Note_on_c, 0, 57, 0
2, 17417040, Note_on_c, 0, 54, 100
2, 17417760, Note_on_c, 0, 54, 0
2, 17417760, Note_on_c, 0, 52, 100
2, 17418000, Note_on_c, 0, 52, 0
2, 17418000, Note_on_c, 0, 50, 100
2, 17418120, Note_on_c, 0, 50, 0
2, 17418120, Note_on_c, 0, 52, 100
2, 17418240, Note_on_c, 0, 52, 0
2, 17418240, Note_on_c, 0, 54, 100
2, 17418360, Note_on_c, 0, 54, 0
2, 17418360, Note_on_c, 0, 55, 100
2, 17418480, Note_on_c, 0, 55, 0
2, 17418480, Note_on_c, 0, 54, 100
2, 17418600, Note_on_c, 0, 54, 0
2, 17418600, Note_on_c, 0, 55, 100
2, 17418720, Note_on_c, 0, 55, 0
2, 17418720, Note_on_c, 0, 52, 100
2, 17419200, Note_on_c, 0, 52, 0
2, 17419200, Note_on_c, 0, 57, 100
2, 17419440, Note_on_c, 0, 57, 0
2, 17419440, Note_on_c, 0, 64, 100
2, 17419680, Note_on_c, 0, 64, 0
2, 17419680, Note_on_c, 0, 71, 100
2, 17420040, Note_on_c, 0, 71, 0
2, 17420040, Note_on_c, 0, 69, 100
2, 17420160, Note_on_c, 0, 69, 0
2, 17420160, Note_on_c, 0, 67, 100
2, 17420280, Note_on_c, 0, 67, 0
2, 17420280, Note_on_c, 0, 66, 100
2, 17421120, Note_on_c, 0, 66, 0
2, 17421120, Note_on_c, 0, 67, 100
2, 17421840, Note_on_c, 0, 67, 0
2, 17421840, Note_on_c, 0, 62, 100
2, 17422560, Note_on_c, 0, 62, 0
2, 17422560, Note_on_c, 0, 67, 100
2, 17424000, Note_on_c, 0, 67, 0
2, 17424000, Note_on_c, 0, 72, 100
2, 17424360, Note_on_c, 0, 72, 0
2, 17424360, Note_on_c, 0, 60, 100
2, 17426280, Note_on_c, 0, 60, 0
2, 17426280, Note_on_c, 0, 59, 100
2, 17426400, Note_on_c, 0, 59, 0
2, 17426400, Note_on_c, 0, 57, 100
2, 17426520, Note_on_c, 0, 57, 0
2, 17426520, Note_on_c, 0, 59, 100
2, 17426640, Note_on_c, 0, 59, 0
2, 17426640, Note_on_c, 0, 55, 100
2, 17673360, Note_on_c, 0, 55, 0
2, 17673360, Note_on_c, 0, 54, 100
2, 17674080, Note_on_c, 0, 54, 0
2, 17674080, Note_on_c, 0, 52, 100
2, 17674800, Note_on_c, 0, 52, 0
2, 17674800, Note_on_c, 0, 50, 100
2, 17675760, Note_on_c, 0, 50, 0
2, 17675760, Note_on_c, 0, 54, 100
2, 17676000, Note_on_c, 0, 54, 0
2, 17676000, Note_on_c, 0, 47, 100
2, 17676240, Note_on_c, 0, 47, 0
2, 17676240, Note_on_c, 0, 48, 100
2, 17676960, Note_on_c, 0, 48, 0
2, 17676960, Note_on_c, 0, 50, 100
2, 17677680, Note_on_c, 0, 50, 0
2, 17677680, Note_on_c, 0, 47, 100
2, 17678640, Note_on_c, 0, 47, 0
2, 17678640, Note_on_c, 0, 50, 100
2, 17678880, Note_on_c, 0, 50, 0
2, 17678880, Note_on_c, 0, 43, 100
2, 17679120, Note_on_c, 0, 43, 0
2, 17679120, Note_on_c, 0, 55, 100
2, 17679360, Note_on_c, 0, 55, 0
2, 17679360, Note_on_c, 0, 54, 100
2, 17680080, Note_on_c, 0, 54, 0
2, 17680080, Note_on_c, 0, 52, 100
2, 17680800, Note_on_c, 0, 52, 0
2, 17680800, Note_on_c, 0, 55, 100
2, 17681040, Note_on_c, 0, 55, 0
2, 17681040, Note_on_c, 0, 49, 100
2, 17681280, Note_on_c, 0, 49, 0
2, 17681280, Note_on_c, 0, 57, 100
2, 17681520, Note_on_c, 0, 57, 0
2, 17681520, Note_on_c, 0, 61, 100
2, 17681760, Note_on_c, 0, 61, 0
2, 17681760, Note_on_c, 0, 54, 100
2, 17682000, Note_on_c, 0, 54, 0
2, 17682000, Note_on_c, 0, 55, 100
2, 17682720, Note_on_c, 0, 55, 0
2, 17682720, Note_on_c, 0, 43, 100
2, 17682960, Note_on_c, 0, 43, 0
2, 17682960, Note_on_c, 0, 42, 100
2, 17683680, Note_on_c, 0, 42, 0
2, 17683680, Note_on_c, 0, 45, 100
2, 17683920, Note_on_c, 0, 45, 0
2, 17683920, Note_on_c, 0, 38, 100
2, 17684160, Note_on_c, 0, 38, 0
2, 17684160, Note_on_c, 0, 50, 100
2, 17684520, Note_on_c, 0, 50, 0
2, 17684520, Note_on_c, 0, 52, 100
2, 17684640, Note_on_c, 0, 52, 0
2, 17684640, Note_on_c, 0, 54, 100
2, 17684760, Note_on_c, 0, 54, 0
2, 17684760, Note_on_c, 0, 55, 100
2, 17684880, Note_on_c, 0, 55, 0
2, 17684880, Note_on_c, 0, 54, 100
2, 17685600, Note_on_c, 0, 54, 0
2, 17685600, Note_on_c, 0, 52, 100
2, 17686320, Note_on_c, 0, 52, 0
2, 17686320, Note_on_c, 0, 50, 100
2, 17687280, Note_on_c, 0, 50, 0
2, 17687280, Note_on_c, 0, 54, 100
2, 17687520, Note_on_c, 0, 54, 0
2, 17687520, Note_on_c, 0, 47, 100
2, 17687760, Note_on_c, 0, 47, 0
2, 17687760, Note_on_c, 0, 48, 100
2, 17688480, Note_on_c, 0, 48, 0
2, 17688480, Note_on_c, 0, 50, 100
2, 17689200, Note_on_c, 0, 50, 0
2, 17689200, Note_on_c, 0, 47, 100
2, 17690160, Note_on_c, 0, 47, 0
2, 17690160, Note_on_c, 0, 50, 100
2, 17690400, Note_on_c, 0, 50, 0
2, 17690400, Note_on_c, 0, 43, 100
2, 17690640, Note_on_c, 0, 43, 0
2, 17690640, Note_on_c, 0, 55, 100
2, 17690880, Note_on_c, 0, 55, 0
2, 17690880, Note_on_c, 0, 54, 100
2, 17691600, Note_on_c, 0, 54, 0
2, 17691600, Note_on_c, 0, 52, 100
2, 17692320, Note_on_c, 0, 52, 0
2, 17692320, Note_on_c, 0, 55, 100
2, 17692560, Note_on_c, 0, 55, 0
2, 17692560, Note_on_c, 0, 49, 100
2, 17692800, Note_on_c, 0, 49, 0
2, 17692800, Note_on_c, 0, 57, 100
2, 17693040, Note_on_c, 0, 57, 0
2, 17693040, Note_on_c, 0, 61, 100
2, 17693280, Note_on_c, 0, 61, 0
2, 17693280, Note_on_c, 0, 54, 100
2, 17693520, Note_on_c, 0, 54, 0
2, 17693520, Note_on_c, 0, 55, 100
2, 17694240, Note_on_c, 0, 55, 0
2, 17694240, Note_on_c, 0, 43, 100
2, 17694480, Note_on_c, 0, 43, 0
2, 17694480, Note_on_c, 0, 42, 100
2, 17695200, Note_on_c, 0, 42, 0
2, 17695200, Note_on_c, 0, 45, 100
2, 17695440, Note_on_c, 0, 45, 0
2, 17695440, Note_on_c, 0, 38, 100
2, 17695680, Note_on_c, 0, 38, 0
2, 17695680, Note_on_c, 0, 57, 100
2, 17696040, Note_on_c, 0, 57, 0
2, 17696040, Note_on_c, 0, 59, 100
2, 17696160, Note_on_c, 0, 59, 0
2, 17696160, Note_on_c, 0, 61, 100
2, 17696280, Note_on_c, 0, 61, 0
2, 17696280, Note_on_c, 0, 62, 100
2, 17696400, Note_on_c, 0, 62, 0
2, 17696400, Note_on_c, 0, 60, 100
2, 17696880, Note_on_c, 0, 60, 0
2, 17696880, Note_on_c, 0, 59, 100
2, 17697120, Note_on_c, 0, 59, 0
2, 17697120, Note_on_c, 0, 55, 100
2, 17697600, Note_on_c, 0, 55, 0
2, 17697600, Note_on_c, 0, 60, 100
2, 17697840, Note_on_c, 0, 60, 0
2, 17697840, Note_on_c, 0, 54, 100
2, 17698080, Note_on_c, 0, 54, 0
2, 17698080, Note_on_c, 0, 57, 100
2, 17698320, Note_on_c, 0, 57, 0
2, 17698320, Note_on_c, 0, 59, 100
2, 17698560, Note_on_c, 0, 59, 0
2, 17698560, Note_on_c, 0, 51, 100
2, 17698800, Note_on_c, 0, 51, 0
2, 17698800, Note_on_c, 0, 47, 100
2, 17699040, Note_on_c, 0, 47, 0
2, 17699040, Note_on_c, 0, 52, 100
2, 17699280, Note_on_c, 0, 52, 0
2, 17699280, Note_on_c, 0, 55, 100
2, 17699520, Note_on_c, 0, 55, 0
2, 17699520, Note_on_c, 0, 52, 100
2, 17699760, Note_on_c, 0, 52, 0
2, 17699760, Note_on_c, 0, 57, 100
2, 17700000, Note_on_c, 0, 57, 0
2, 17700000, Note_on_c, 0, 54, 100
2, 17700240, Note_on_c, 0, 54, 0
2, 17700240, Note_on_c, 0, 52, 100
2, 17700480, Note_on_c, 0, 52, 0
2, 17700480, Note_on_c, 0, 57, 100
2, 17700720, Note_on_c, 0, 57, 0
2, 17700720, Note_on_c, 0, 59, 100
2, 17700960, Note_on_c, 0, 59, 0
2, 17700960, Note_on_c, 0, 47, 100
2, 17701200, Note_on_c, 0, 47, 0
2, 17701200, Note_on_c, 0, 52, 100
2, 17701440, Note_on_c, 0, 52, 0
2, 17701440, Note_on_c, 0, 50, 100
2, 17701920, Note_on_c, 0, 50, 0
2, 17701920, Note_on_c, 0, 48, 100
2, 17702160, Note_on_c, 0, 48, 0
2, 17702160, Note_on_c, 0, 47, 100
2, 17703120, Note_on_c, 0, 47, 0
2, 17703120, Note_on_c, 0, 45, 100
2, 17703840, Note_on_c, 0, 45, 0
2, 17703840, Note_on_c, 0, 48, 100
2, 17704080, Note_on_c, 0, 48, 0
2, 17704080, Note_on_c, 0, 42, 100
2, 17704320, Note_on_c, 0, 42, 0
2, 17704320, Note_on_c, 0, 38, 100
2, 17704560, Note_on_c, 0, 38, 0
2, 17704560, Note_on_c, 0, 42, 100
2, 17704800, Note_on_c, 0, 42, 0
2, 17704800, Note_on_c, 0, 43, 100
2, 17705040, Note_on_c, 0, 43, 0
2, 17705040, Note_on_c, 0, 47, 100
2, 17705280, Note_on_c, 0, 47, 0
2, 17705280, Note_on_c, 0, 43, 100
2, 17705520, Note_on_c, 0, 43, 0
2, 17705520, Note_on_c, 0, 48, 100
2, 17705760, Note_on_c, 0, 48, 0
2, 17705760, Note_on_c, 0, 47, 100
2, 17706720, Note_on_c, 0, 47, 0
2, 17706720, Note_on_c, 0, 50, 100
2, 17706960, Note_on_c, 0, 50, 0
2, 17706960, Note_on_c, 0, 43, 100
2, 17707200, Note_on_c, 0, 43, 0
2, 17707200, Note_on_c, 0, 57, 100
2, 17707560, Note_on_c, 0, 57, 0
2, 17707560, Note_on_c, 0, 59, 100
2, 17707680, Note_on_c, 0, 59, 0
2, 17707680, Note_on_c, 0, 61, 100
2, 17707800, Note_on_c, 0, 61, 0
2, 17707800, Note_on_c, 0, 62, 100
2, 17707920, Note_on_c, 0, 62, 0
2, 17707920, Note_on_c, 0, 60, 100
2, 17708400, Note_on_c, 0, 60, 0
2, 17708400, Note_on_c, 0, 59, 100
2, 17708640, Note_on_c, 0, 59, 0
2, 17708640, Note_on_c, 0, 55, 100
2, 17709120, Note_on_c, 0, 55, 0
2, 17709120, Note_on_c, 0, 60, 100
2, 17709360, Note_on_c, 0, 60, 0
2, 17709360, Note_on_c, 0, 54, 100
2, 17709600, Note_on_c, 0, 54, 0
2, 17709600, Note_on_c, 0, 57, 100
2, 17709840, Note_on_c, 0, 57, 0
2, 17709840, Note_on_c, 0, 59, 100
2, 17710080, Note_on_c, 0, 59, 0
2, 17710080, Note_on_c, 0, 51, 100
2, 17710320, Note_on_c, 0, 51, 0
2, 17710320, Note_on_c, 0, 47, 100
2, 17710560, Note_on_c, 0, 47, 0
2, 17710560, Note_on_c, 0, 52, 100
2, 17710800, Note_on_c, 0, 52, 0
2, 17710800, Note_on_c, 0, 55, 100
2, 17711040, Note_on_c, 0, 55, 0
2, 17711040, Note_on_c, 0, 52, 100
2, 17711280, Note_on_c, 0, 52, 0
2, 17711280, Note_on_c, 0, 57, 100
2, 17711520, Note_on_c, 0, 57, 0
2, 17711520, Note_on_c, 0, 54, 100
2, 17711760, Note_on_c, 0, 54, 0
2, 17711760, Note_on_c, 0, 52, 100
2, 17712000, Note_on_c, 0, 52, 0
2, 17712000, Note_on_c, 0, 57, 100
2, 17712240, Note_on_c, 0, 57, 0
2, 17712240, Note_on_c, 0, 59, 100
2, 17712480, Note_on_c, 0, 59, 0
2, 17712480, Note_on_c, 0, 47, 100
2, 17712720, Note_on_c, 0, 47, 0
2, 17712720, Note_on_c, 0, 52, 100
2, 17712960, Note_on_c, 0, 52, 0
2, 17712960, Note_on_c, 0, 50, 100
2, 17713440, Note_on_c, 0, 50, 0
2, 17713440, Note_on_c, 0, 48, 100
2, 17713680, Note_on_c, 0, 48, 0
2, 17713680, Note_on_c, 0, 47, 100
2, 17714640, Note_on_c, 0, 47, 0
2, 17714640, Note_on_c, 0, 45, 100
2, 17715360, Note_on_c, 0, 45, 0
2, 17715360, Note_on_c, 0, 48, 100
2, 17715600, Note_on_c, 0, 48, 0
2, 17715600, Note_on_c, 0, 42, 100
2, 17715840, Note_on_c, 0, 42, 0
2, 17715840, Note_on_c, 0, 38, 100
2, 17716080, Note_on_c, 0, 38, 0
2, 17716080, Note_on_c, 0, 42, 100
2, 17716320, Note_on_c, 0, 42, 0
2, 17716320, Note_on_c, 0, 43, 100
2, 17716560, Note_on_c, 0, 43, 0
2, 17716560, Note_on_c, 0, 47, 100
2, 17716800, Note_on_c, 0, 47, 0
2, 17716800, Note_on_c, 0, 43, 100
2, 17717040, Note_on_c, 0, 43, 0
2, 17717040, Note_on_c, 0, 48, 100
2, 17717280, Note_on_c, 0, 48, 0
2, 17717280, Note_on_c, 0, 47, 100
2, 17718240, Note_on_c, 0, 47, 0
2, 17718240, Note_on_c, 0, 50, 100
2, 17718480, Note_on_c, 0, 50, 0
2, 17718480, Note_on_c, 0, 43, 100
2, 17718720, Note_on_c, 0, 43, 0
2, 17718720, Note_on_c, 0, 55, 100
2, 18103440, Note_on_c, 0, 55, 0
2, 18103440, Note_on_c, 0, 54, 100
2, 18103560, Note_on_c, 0, 54, 0
2, 18103560, Note_on_c, 0, 55, 100
2, 18103680, Note_on_c, 0, 55, 0
2, 18103680, Note_on_c, 0, 57, 100
2, 18104400, Note_on_c, 0, 57, 0
2, 18104400, Note_on_c, 0, 55, 100
2, 18104520, Note_on_c, 0, 55, 0
2, 18104520, Note_on_c, 0, 57, 100
2, 18104640, Note_on_c, 0, 57, 0
2, 18104640, Note_on_c, 0, 55, 100
2, 18104760, Note_on_c, 0, 55, 0
2, 18104760, Note_on_c, 0, 57, 100
2, 18104880, Note_on_c, 0, 57, 0
2, 18104880, Note_on_c, 0, 55, 100
2, 18105000, Note_on_c, 0, 55, 0
2, 18105000, Note_on_c, 0, 54, 100
2, 18105120, Note_on_c, 0, 54, 0
2, 18105120, Note_on_c, 0, 55, 100
2, 18105240, Note_on_c, 0, 55, 0
2, 18105240, Note_on_c, 0, 57, 100
2, 18105360, Note_on_c, 0, 57, 0
2, 18105360, Note_on_c, 0, 54, 100
2, 18105840, Note_on_c, 0, 54, 0
2, 18105840, Note_on_c, 0, 50, 100
2, 18106320, Note_on_c, 0, 50, 0
2, 18106320, Note_on_c, 0, 54, 100
2, 18106800, Note_on_c, 0, 54, 0
2, 18106800, Note_on_c, 0, 52, 100
2, 18107280, Note_on_c, 0, 52, 0
2, 18107280, Note_on_c, 0, 57, 100
2, 18107760, Note_on_c, 0, 57, 0
2, 18107760, Note_on_c, 0, 45, 100
2, 18108240, Note_on_c, 0, 45, 0
2, 18108240, Note_on_c, 0, 55, 100
2, 18109200, Note_on_c, 0, 55, 0
2, 18109200, Note_on_c, 0, 54, 100
2, 18109280, Note_on_c, 0, 54, 0
2, 18109280, Note_on_c, 0, 55, 100
2, 18109360, Note_on_c, 0, 55, 0
2, 18109360, Note_on_c, 0, 54, 100
2, 18109440, Note_on_c, 0, 54, 0
2, 18109440, Note_on_c, 0, 52, 100
2, 18109680, Note_on_c, 0, 52, 0
2, 18109680, Note_on_c, 0, 54, 100
2, 18109920, Note_on_c, 0, 54, 0
2, 18109920, Note_on_c, 0, 50, 100
2, 18110160, Note_on_c, 0, 50, 0
2, 18110160, Note_on_c, 0, 52, 100
2, 18110400, Note_on_c, 0, 52, 0
2, 18110400, Note_on_c, 0, 48, 100
2, 18110640, Note_on_c, 0, 48, 0
2, 18110640, Note_on_c, 0, 50, 100
2, 18110880, Note_on_c, 0, 50, 0
2, 18110880, Note_on_c, 0, 47, 100
2, 18111120, Note_on_c, 0, 47, 0
2, 18111120, Note_on_c, 0, 50, 100
2, 18111360, Note_on_c, 0, 50, 0
2, 18111360, Note_on_c, 0, 52, 100
2, 18111600, Note_on_c, 0, 52, 0
2, 18111600, Note_on_c, 0, 54, 100
2, 18111840, Note_on_c, 0, 54, 0
2, 18111840, Note_on_c, 0, 55, 100
2, 18112080, Note_on_c, 0, 55, 0
2, 18112080, Note_on_c, 0, 47, 100
2, 18112560, Note_on_c, 0, 47, 0
2, 18112560, Note_on_c, 0, 48, 100
2, 18113040, Note_on_c, 0, 48, 0
2, 18113040, Note_on_c, 0, 45, 100
2, 18114480, Note_on_c, 0, 45, 0
2, 18114480, Note_on_c, 0, 42, 100
2, 18114960, Note_on_c, 0, 42, 0
2, 18114960, Note_on_c, 0, 38, 100
2, 18116400, Note_on_c, 0, 38, 0
2, 18116400, Note_on_c, 0, 43, 100
2, 18116880, Note_on_c, 0, 43, 0
2, 18116880, Note_on_c, 0, 50, 100
2, 18117360, Note_on_c, 0, 50, 0
2, 18117360, Note_on_c, 0, 47, 100
2, 18117840, Note_on_c, 0, 47, 0
2, 18117840, Note_on_c, 0, 50, 100
2, 18118320, Note_on_c, 0, 50, 0
2, 18118320, Note_on_c, 0, 55, 100
2, 18118800, Note_on_c, 0, 55, 0
2, 18118800, Note_on_c, 0, 52, 100
2, 18120240, Note_on_c, 0, 52, 0
2, 18120240, Note_on_c, 0, 54, 100
2, 18120720, Note_on_c, 0, 54, 0
2, 18120720, Note_on_c, 0, 50, 100
2, 18122160, Note_on_c, 0, 50, 0
2, 18122160, Note_on_c, 0, 55, 100
2, 18122640, Note_on_c, 0, 55, 0
2, 18122640, Note_on_c, 0, 52, 100
2, 18124080, Note_on_c, 0, 52, 0
2, 18124080, Note_on_c, 0, 57, 100
2, 18124560, Note_on_c, 0, 57, 0
2, 18124560, Note_on_c, 0, 55, 100
2, 18126000, Note_on_c, 0, 55, 0
2, 18126000, Note_on_c, 0, 54, 100
2, 18126480, Note_on_c, 0, 54, 0
2, 18126480, Note_on_c, 0, 50, 100
2, 18127920, Note_on_c, 0, 50, 0
2, 18127920, Note_on_c, 0, 43, 100
2, 18128400, Note_on_c, 0, 43, 0
2, 18128400, Note_on_c, 0, 47, 100
2, 18128880, Note_on_c, 0, 47, 0
2, 18128880, Note_on_c, 0, 43, 100
2, 18129360, Note_on_c, 0, 43, 0
2, 18129360, Note_on_c, 0, 40, 100
2, 18129840, Note_on_c, 0, 40, 0
2, 18129840, Note_on_c, 0, 45, 100
2, 18131760, Note_on_c, 0, 45, 0
2, 18131760, Note_on_c, 0, 50, 100
2, 18132240, Note_on_c, 0, 50, 0
2, 18132240, Note_on_c, 0, 55, 100
2, 18134160, Note_on_c, 0, 55, 0
2, 18134160, Note_on_c, 0, 54, 100
2, 18134280, Note_on_c, 0, 54, 0
2, 18134280, Note_on_c, 0, 55, 100
2, 18134400, Note_on_c, 0, 55, 0
2, 18134400, Note_on_c, 0, 57, 100
2, 18135120, Note_on_c, 0, 57, 0
2, 18135120, Note_on_c, 0, 55, 100
2, 18135240, Note_on_c, 0, 55, 0
2, 18135240, Note_on_c, 0, 57, 100
2, 18135360, Note_on_c, 0, 57, 0
2, 18135360, Note_on_c, 0, 55, 100
2, 18135480, Note_on_c, 0, 55, 0
2, 18135480, Note_on_c, 0, 57, 100
2, 18135600, Note_on_c, 0, 57, 0
2, 18135600, Note_on_c, 0, 55, 100
2, 18135720, Note_on_c, 0, 55, 0
2, 18135720, Note_on_c, 0, 54, 100
2, 18135840, Note_on_c, 0, 54, 0
2, 18135840, Note_on_c, 0, 55, 100
2, 18135960, Note_on_c, 0, 55, 0
2, 18135960, Note_on_c, 0, 57, 100
2, 18136080, Note_on_c, 0, 57, 0
2, 18136080, Note_on_c, 0, 54, 100
2, 18136560, Note_on_c, 0, 54, 0
2, 18136560, Note_on_c, 0, 50, 100
2, 18137040, Note_on_c, 0, 50, 0
2, 18137040, Note_on_c, 0, 54, 100
2, 18137520, Note_on_c, 0, 54, 0
2, 18137520, Note_on_c, 0, 52, 100
2, 18138000, Note_on_c, 0, 52, 0
2, 18138000, Note_on_c, 0, 57, 100
2, 18138480, Note_on_c, 0, 57, 0
2, 18138480, Note_on_c, 0, 45, 100
2, 18138960, Note_on_c, 0, 45, 0
2, 18138960, Note_on_c, 0, 55, 100
2, 18139920, Note_on_c, 0, 55, 0
2, 18139920, Note_on_c, 0, 54, 100
2, 18140000, Note_on_c, 0, 54, 0
2, 18140000, Note_on_c, 0, 55, 100
2, 18140080, Note_on_c, 0, 55, 0
2, 18140080, Note_on_c, 0, 54, 100
2, 18140160, Note_on_c, 0, 54, 0
2, 18140160, Note_on_c, 0, 52, 100
2, 18140400, Note_on_c, 0, 52, 0
2, 18140400, Note_on_c, 0, 54, 100
2, 18140640, Note_on_c, 0, 54, 0
2, 18140640, Note_on_c, 0, 50, 100
2, 18140880, Note_on_c, 0, 50, 0
2, 18140880, Note_on_c, 0, 52, 100
2, 18141120, Note_on_c, 0, 52, 0
2, 18141120, Note_on_c, 0, 48, 100
2, 18141360, Note_on_c, 0, 48, 0
2, 18141360, Note_on_c, 0, 50, 100
2, 18141600, Note_on_c, 0, 50, 0
2, 18141600, Note_on_c, 0, 47, 100
2, 18141840, Note_on_c, 0, 47, 0
2, 18141840, Note_on_c, 0, 50, 100
2, 18142080, Note_on_c, 0, 50, 0
2, 18142080, Note_on_c, 0, 52, 100
2, 18142320, Note_on_c, 0, 52, 0
2, 18142320, Note_on_c, 0, 54, 100
2, 18142560, Note_on_c, 0, 54, 0
2, 18142560, Note_on_c, 0, 55, 100
2, 18142800, Note_on_c, 0, 55, 0
2, 18142800, Note_on_c, 0, 47, 100
2, 18143280, Note_on_c, 0, 47, 0
2, 18143280, Note_on_c, 0, 48, 100
2, 18143760, Note_on_c, 0, 48, 0
2, 18143760, Note_on_c, 0, 45, 100
2, 18145200, Note_on_c, 0, 45, 0
2, 18145200, Note_on_c, 0, 42, 100
2, 18145680, Note_on_c, 0, 42, 0
2, 18145680, Note_on_c, 0, 38, 100
2, 18147120, Note_on_c, 0, 38, 0
2, 18147120, Note_on_c, 0, 43, 100
2, 18147600, Note_on_c, 0, 43, 0
2, 18147600, Note_on_c, 0, 50, 100
2, 18148080, Note_on_c, 0, 50, 0
2, 18148080, Note_on_c, 0, 47, 100
2, 18148560, Note_on_c, 0, 47, 0
2, 18148560, Note_on_c, 0, 50, 100
2, 18149040, Note_on_c, 0, 50, 0
2, 18149040, Note_on_c, 0, 55, 100
2, 18149520, Note_on_c, 0, 55, 0
2, 18149520, Note_on_c, 0, 52, 100
2, 18150960, Note_on_c, 0, 52, 0
2, 18150960, Note_on_c, 0, 54, 100
2, 18151440, Note_on_c, 0, 54, 0
2, 18151440, Note_on_c, 0, 50, 100
2, 18152880, Note_on_c, 0, 50, 0
2, 18152880, Note_on_c, 0, 55, 100
2, 18153360, Note_on_c, 0, 55, 0
2, 18153360, Note_on_c, 0, 52, 100
2, 18154800, Note_on_c, 0, 52, 0
2, 18154800, Note_on_c, 0, 57, 100
2, 18155280, Note_on_c, 0, 57, 0
2, 18155280, Note_on_c, 0, 55, 100
2, 18156720, Note_on_c, 0, 55, 0
2, 18156720, Note_on_c, 0, 54, 100
2, 18157200, Note_on_c, 0, 54, 0
2, 18157200, Note_on_c, 0, 50, 100
2, 18158640, Note_on_c, 0, 50, 0
2, 18158640, Note_on_c, 0, 43, 100
2, 18159120, Note_on_c, 0, 43, 0
2, 18159120, Note_on_c, 0, 47, 100
2, 18159600, Note_on_c, 0, 47, 0
2, 18159600, Note_on_c, 0, 43, 100
2, 18160080, Note_on_c, 0, 43, 0
2, 18160080, Note_on_c, 0, 40, 100
2, 18160560, Note_on_c, 0, 40, 0
2, 18160560, Note_on_c, 0, 45, 100
2, 18162480, Note_on_c, 0, 45, 0
2, 18162480, Note_on_c, 0, 50, 100
2, 18164880, Note_on_c, 0, 50, 0
2, 18164880, Note_on_c, 0, 52, 100
2, 18165120, Note_on_c, 0, 52, 0
2, 18165120, Note_on_c, 0, 54, 100
2, 18165360, Note_on_c, 0, 54, 0
2, 18165360, Note_on_c, 0, 55, 100
2, 18165600, Note_on_c, 0, 55, 0
2, 18165600, Note_on_c, 0, 57, 100
2, 18165840, Note_on_c, 0, 57, 0
2, 18165840, Note_on_c, 0, 48, 100
2, 18166320, Note_on_c, 0, 48, 0
2, 18166320, Note_on_c, 0, 47, 100
2, 18166800, Note_on_c, 0, 47, 0
2, 18166800, Note_on_c, 0, 50, 100
2, 18167040, Note_on_c, 0, 50, 0
2, 18167040, Note_on_c, 0, 52, 100
2, 18167280, Note_on_c, 0, 52, 0
2, 18167280, Note_on_c, 0, 54, 100
2, 18167520, Note_on_c, 0, 54, 0
2, 18167520, Note_on_c, 0, 55, 100
2, 18167760, Note_on_c, 0, 55, 0
2, 18167760, Note_on_c, 0, 57, 100
2, 18168000, Note_on_c, 0, 57, 0
2, 18168000, Note_on_c, 0, 59, 100
2, 18168240, Note_on_c, 0, 59, 0
2, 18168240, Note_on_c, 0, 57, 100
2, 18169200, Note_on_c, 0, 57, 0
2, 18169200, Note_on_c, 0, 56, 100
2, 18169440, Note_on_c, 0, 56, 0
2, 18169440, Note_on_c, 0, 57, 100
2, 18169680, Note_on_c, 0, 57, 0
2, 18169680, Note_on_c, 0, 54, 100
2, 18171120, Note_on_c, 0, 54, 0
2, 18171120, Note_on_c, 0, 59, 100
2, 18171600, Note_on_c, 0, 59, 0
2, 18171600, Note_on_c, 0, 57, 100
2, 18172080, Note_on_c, 0, 57, 0
2, 18172080, Note_on_c, 0, 55, 100
2, 18172560, Note_on_c, 0, 55, 0
2, 18172560, Note_on_c, 0, 57, 100
2, 18172800, Note_on_c, 0, 57, 0
2, 18172800, Note_on_c, 0, 59, 100
2, 18173040, Note_on_c, 0, 59, 0
2, 18173040, Note_on_c, 0, 57, 100
2, 18173280, Note_on_c, 0, 57, 0
2, 18173280, Note_on_c, 0, 55, 100
2, 18173520, Note_on_c, 0, 55, 0
2, 18173520, Note_on_c, 0, 54, 100
2, 18173760, Note_on_c, 0, 54, 0
2, 18173760, Note_on_c, 0, 55, 100
2, 18174000, Note_on_c, 0, 55, 0
2, 18174000, Note_on_c, 0, 52, 100
2, 18174240, Note_on_c, 0, 52, 0
2, 18174240, Note_on_c, 0, 57, 100
2, 18174480, Note_on_c, 0, 57, 0
2, 18174480, Note_on_c, 0, 59, 100
2, 18174720, Note_on_c, 0, 59, 0
2, 18174720, Note_on_c, 0, 60, 100
2, 18174960, Note_on_c, 0, 60, 0
2, 18174960, Note_on_c, 0, 59, 100
2, 18175200, Note_on_c, 0, 59, 0
2, 18175200, Note_on_c, 0, 57, 100
2, 18175440, Note_on_c, 0, 57, 0
2, 18175440, Note_on_c, 0, 55, 100
2, 18175680, Note_on_c, 0, 55, 0
2, 18175680, Note_on_c, 0, 57, 100
2, 18175920, Note_on_c, 0, 57, 0
2, 18175920, Note_on_c, 0, 54, 100
2, 18176160, Note_on_c, 0, 54, 0
2, 18176160, Note_on_c, 0, 59, 100
2, 18176400, Note_on_c, 0, 59, 0
2, 18176400, Note_on_c, 0, 57, 100
2, 18176640, Note_on_c, 0, 57, 0
2, 18176640, Note_on_c, 0, 55, 100
2, 18176880, Note_on_c, 0, 55, 0
2, 18176880, Note_on_c, 0, 57, 100
2, 18177120, Note_on_c, 0, 57, 0
2, 18177120, Note_on_c, 0, 59, 100
2, 18177360, Note_on_c, 0, 59, 0
2, 18177360, Note_on_c, 0, 57, 100
2, 18177600, Note_on_c, 0, 57, 0
2, 18177600, Note_on_c, 0, 59, 100
2, 18177840, Note_on_c, 0, 59, 0
2, 18177840, Note_on_c, 0, 47, 100
2, 18178080, Note_on_c, 0, 47, 0
2, 18178080, Note_on_c, 0, 52, 100
2, 18178320, Note_on_c, 0, 52, 0
2, 18178320, Note_on_c, 0, 47, 100
2, 18178560, Note_on_c, 0, 47, 0
2, 18178560, Note_on_c, 0, 45, 100
2, 18178800, Note_on_c, 0, 45, 0
2, 18178800, Note_on_c, 0, 47, 100
2, 18179040, Note_on_c, 0, 47, 0
2, 18179040, Note_on_c, 0, 43, 100
2, 18179280, Note_on_c, 0, 43, 0
2, 18179280, Note_on_c, 0, 42, 100
2, 18179520, Note_on_c, 0, 42, 0
2, 18179520, Note_on_c, 0, 43, 100
2, 18179760, Note_on_c, 0, 43, 0
2, 18179760, Note_on_c, 0, 40, 100
2, 18180000, Note_on_c, 0, 40, 0
2, 18180000, Note_on_c, 0, 49, 100
2, 18180240, Note_on_c, 0, 49, 0
2, 18180240, Note_on_c, 0, 50, 100
2, 18181200, Note_on_c, 0, 50, 0
2, 18181200, Note_on_c, 0, 49, 100
2, 18181320, Note_on_c, 0, 49, 0
2, 18181320, Note_on_c, 0, 50, 100
2, 18181440, Note_on_c, 0, 50, 0
2, 18181440, Note_on_c, 0, 49, 100
2, 18181560, Note_on_c, 0, 49, 0
2, 18181560, Note_on_c, 0, 50, 100
2, 18181680, Note_on_c, 0, 50, 0
2, 18181680, Note_on_c, 0, 49, 100
2, 18181800, Note_on_c, 0, 49, 0
2, 18181800, Note_on_c, 0, 47, 100
2, 18181920, Note_on_c, 0, 47, 0
2, 18181920, Note_on_c, 0, 49, 100
2, 18182040, Note_on_c, 0, 49, 0
2, 18182040, Note_on_c, 0, 50, 100
2, 18182160, Note_on_c, 0, 50, 0
2, 18182160, Note_on_c, 0, 47, 100
2, 18182640, Note_on_c, 0, 47, 0
2, 18182640, Note_on_c, 0, 43, 100
2, 18183120, Note_on_c, 0, 43, 0
2, 18183120, Note_on_c, 0, 47, 100
2, 18183600, Note_on_c, 0, 47, 0
2, 18183600, Note_on_c, 0, 48, 100
2, 18184080, Note_on_c, 0, 48, 0
2, 18184080, Note_on_c, 0, 52, 100
2, 18184560, Note_on_c, 0, 52, 0
2, 18184560, Note_on_c, 0, 45, 100
2, 18185040, Note_on_c, 0, 45, 0
2, 18185040, Note_on_c, 0, 55, 100
2, 18186000, Note_on_c, 0, 55, 0
2, 18186000, Note_on_c, 0, 54, 100
2, 18186080, Note_on_c, 0, 54, 0
2, 18186080, Note_on_c, 0, 55, 100
2, 18186160, Note_on_c, 0, 55, 0
2, 18186160, Note_on_c, 0, 54, 100
2, 18186240, Note_on_c, 0, 54, 0
2, 18186240, Note_on_c, 0, 52, 100
2, 18186480, Note_on_c, 0, 52, 0
2, 18186480, Note_on_c, 0, 54, 100
2, 18186720, Note_on_c, 0, 54, 0
2, 18186720, Note_on_c, 0, 50, 100
2, 18186960, Note_on_c, 0, 50, 0
2, 18186960, Note_on_c, 0, 52, 100
2, 18187200, Note_on_c, 0, 52, 0
2, 18187200, Note_on_c, 0, 54, 100
2, 18187440, Note_on_c, 0, 54, 0
2, 18187440, Note_on_c, 0, 50, 100
2, 18187680, Note_on_c, 0, 50, 0
2, 18187680, Note_on_c, 0, 55, 100
2, 18187920, Note_on_c, 0, 55, 0
2, 18187920, Note_on_c, 0, 57, 100
2, 18188400, Note_on_c, 0, 57, 0
2, 18188400, Note_on_c, 0, 59, 100
2, 18188880, Note_on_c, 0, 59, 0
2, 18188880, Note_on_c, 0, 55, 100
2, 18189360, Note_on_c, 0, 55, 0
2, 18189360, Note_on_c, 0, 48, 100
2, 18189840, Note_on_c, 0, 48, 0
2, 18189840, Note_on_c, 0, 57, 100
2, 18191280, Note_on_c, 0, 57, 0
2, 18191280, Note_on_c, 0, 50, 100
2, 18193200, Note_on_c, 0, 50, 0
2, 18193200, Note_on_c, 0, 55, 100
2, 18193680, Note_on_c, 0, 55, 0
2, 18193680, Note_on_c, 0, 43, 100
2, 18194640, Note_on_c, 0, 43, 0
2, 18194640, Note_on_c, 0, 50, 100
2, 18195600, Note_on_c, 0, 50, 0
2, 18195600, Note_on_c, 0, 52, 100
2, 18195840, Note_on_c, 0, 52, 0
2, 18195840, Note_on_c, 0, 54, 100
2, 18196080, Note_on_c, 0, 54, 0
2, 18196080, Note_on_c, 0, 55, 100
2, 18196320, Note_on_c, 0, 55, 0
2, 18196320, Note_on_c, 0, 57, 100
2, 18196560, Note_on_c, 0, 57, 0
2, 18196560, Note_on_c, 0, 48, 100
2, 18197040, Note_on_c, 0, 48, 0
2, 18197040, Note_on_c, 0, 47, 100
2, 18197520, Note_on_c, 0, 47, 0
2, 18197520, Note_on_c, 0, 50, 100
2, 18197760, Note_on_c, 0, 50, 0
2, 18197760, Note_on_c, 0, 52, 100
2, 18198000, Note_on_c, 0, 52, 0
2, 18198000, Note_on_c, 0, 54, 100
2, 18198240, Note_on_c, 0, 54, 0
2, 18198240, Note_on_c, 0, 55, 100
2, 18198480, Note_on_c, 0, 55, 0
2, 18198480, Note_on_c, 0, 57, 100
2, 18198720, Note_on_c, 0, 57, 0
2, 18198720, Note_on_c, 0, 59, 100
2, 18198960, Note_on_c, 0, 59, 0
2, 18198960, Note_on_c, 0, 57, 100
2, 18199920, Note_on_c, 0, 57, 0
2, 18199920, Note_on_c, 0, 56, 100
2, 18200160, Note_on_c, 0, 56, 0
2, 18200160, Note_on_c, 0, 57, 100
2, 18200400, Note_on_c, 0, 57, 0
2, 18200400, Note_on_c, 0, 54, 100
2, 18201840, Note_on_c, 0, 54, 0
2, 18201840, Note_on_c, 0, 59, 100
2, 18202320, Note_on_c, 0, 59, 0
2, 18202320, Note_on_c, 0, 57, 100
2, 18202800, Note_on_c, 0, 57, 0
2, 18202800, Note_on_c, 0, 55, 100
2, 18203280, Note_on_c, 0, 55, 0
2, 18203280, Note_on_c, 0, 57, 100
2, 18203520, Note_on_c, 0, 57, 0
2, 18203520, Note_on_c, 0, 59, 100
2, 18203760, Note_on_c, 0, 59, 0
2, 18203760, Note_on_c, 0, 57, 100
2, 18204000, Note_on_c, 0, 57, 0
2, 18204000, Note_on_c, 0, 55, 100
2, 18204240, Note_on_c, 0, 55, 0
2, 18204240, Note_on_c, 0, 54, 100
2, 18204480, Note_on_c, 0, 54, 0
2, 18204480, Note_on_c, 0, 55, 100
2, 18204720, Note_on_c, 0, 55, 0
2, 18204720, Note_on_c, 0, 52, 100
2, 18204960, Note_on_c, 0, 52, 0
2, 18204960, Note_on_c, 0, 57, 100
2, 18205200, Note_on_c, 0, 57, 0
2, 18205200, Note_on_c, 0, 59, 100
2, 18205440, Note_on_c, 0, 59, 0
2, 18205440, Note_on_c, 0, 60, 100
2, 18205680, Note_on_c, 0, 60, 0
2, 18205680, Note_on_c, 0, 59, 100
2, 18205920, Note_on_c, 0, 59, 0
2, 18205920, Note_on_c, 0, 57, 100
2, 18206160, Note_on_c, 0, 57, 0
2, 18206160, Note_on_c, 0, 55, 100
2, 18206400, Note_on_c, 0, 55, 0
2, 18206400, Note_on_c, 0, 57, 100
2, 18206640, Note_on_c, 0, 57, 0
2, 18206640, Note_on_c, 0, 54, 100
2, 18206880, Note_on_c, 0, 54, 0
2, 18206880, Note_on_c, 0, 59, 100
2, 18207120, Note_on_c, 0, 59, 0
2, 18207120, Note_on_c, 0, 57, 100
2, 18207360, Note_on_c, 0, 57, 0
2, 18207360, Note_on_c, 0, 55, 100
2, 18207600, Note_on_c, 0, 55, 0
2, 18207600, Note_on_c, 0, 57, 100
2, 18207840, Note_on_c, 0, 57, 0
2, 18207840, Note_on_c, 0, 59, 100
2, 18208080, Note_on_c, 0, 59, 0
2, 18208080, Note_on_c, 0, 57, 100
2, 18208320, Note_on_c, 0, 57, 0
2, 18208320, Note_on_c, 0, 59, 100
2, 18208560, Note_on_c, 0, 59, 0
2, 18208560, Note_on_c, 0, 47, 100
2, 18208800, Note_on_c, 0, 47, 0
2, 18208800, Note_on_c, 0, 52, 100
2, 18209040, Note_on_c, 0, 52, 0
2, 18209040, Note_on_c, 0, 47, 100
2, 18209280, Note_on_c, 0, 47, 0
2, 18209280, Note_on_c, 0, 45, 100
2, 18209520, Note_on_c, 0, 45, 0
2, 18209520, Note_on_c, 0, 47, 100
2, 18209760, Note_on_c, 0, 47, 0
2, 18209760, Note_on_c, 0, 43, 100
2, 18210000, Note_on_c, 0, 43, 0
2, 18210000, Note_on_c, 0, 42, 100
2, 18210240, Note_on_c, 0, 42, 0
2, 18210240, Note_on_c, 0, 43, 100
2, 18210480, Note_on_c, 0, 43, 0
2, 18210480, Note_on_c, 0, 40, 100
2, 18210720, Note_on_c, 0, 40, 0
2, 18210720, Note_on_c, 0, 49, 100
2, 18210960, Note_on_c, 0, 49, 0
2, 18210960, Note_on_c, 0, 50, 100
2, 18211920, Note_on_c, 0, 50, 0
2, 18211920, Note_on_c, 0, 49, 100
2, 18212040, Note_on_c, 0, 49, 0
2, 18212040, Note_on_c, 0, 50, 100
2, 18212160, Note_on_c, 0, 50, 0
2, 18212160, Note_on_c, 0, 49, 100
2, 18212280, Note_on_c, 0, 49, 0
2, 18212280, Note_on_c, 0, 50, 100
2, 18212400, Note_on_c, 0, 50, 0
2, 18212400, Note_on_c, 0, 49, 100
2, 18212520, Note_on_c, 0, 49, 0
2, 18212520, Note_on_c, 0, 47, 100
2, 18212640, Note_on_c, 0, 47, 0
2, 18212640, Note_on_c, 0, 49, 100
2, 18212760, Note_on_c, 0, 49, 0
2, 18212760, Note_on_c, 0, 50, 100
2, 18212880, Note_on_c, 0, 50, 0
2, 18212880, Note_on_c, 0, 47, 100
2, 18213360, Note_on_c, 0, 47, 0
2, 18213360, Note_on_c, 0, 43, 100
2, 18213840, Note_on_c, 0, 43, 0
2, 18213840, Note_on_c, 0, 47, 100
2, 18214320, Note_on_c, 0, 47, 0
2, 18214320, Note_on_c, 0, 48, 100
2, 18214800, Note_on_c, 0, 48, 0
2, 18214800, Note_on_c, 0, 52, 100
2, 18215280, Note_on_c, 0, 52, 0
2, 18215280, Note_on_c, 0, 45, 100
2, 18215760, Note_on_c, 0, 45, 0
2, 18215760, Note_on_c, 0, 55, 100
2, 18216720, Note_on_c, 0, 55, 0
2, 18216720, Note_on_c, 0, 54, 100
2, 18216800, Note_on_c, 0, 54, 0
2, 18216800, Note_on_c, 0, 55, 100
2, 18216880, Note_on_c, 0, 55, 0
2, 18216880, Note_on_c, 0, 54, 100
2, 18216960, Note_on_c, 0, 54, 0
2, 18216960, Note_on_c, 0, 52, 100
2, 18217200, Note_on_c, 0, 52, 0
2, 18217200, Note_on_c, 0, 54, 100
2, 18217440, Note_on_c, 0, 54, 0
2, 18217440, Note_on_c, 0, 50, 100
2, 18217680, Note_on_c, 0, 50, 0
2, 18217680, Note_on_c, 0, 52, 100
2, 18217920, Note_on_c, 0, 52, 0
2, 18217920, Note_on_c, 0, 54, 100
2, 18218160, Note_on_c, 0, 54, 0
2, 18218160, Note_on_c, 0, 50, 100
2, 18218400, Note_on_c, 0, 50, 0
2, 18218400, Note_on_c, 0, 55, 100
2, 18218640, Note_on_c, 0, 55, 0
2, 18218640, Note_on_c, 0, 57, 100
2, 18219120, Note_on_c, 0, 57, 0
2, 18219120, Note_on_c, 0, 59, 100
2, 18219600, Note_on_c, 0, 59, 0
2, 18219600, Note_on_c, 0, 55, 100
2, 18220080, Note_on_c, 0, 55, 0
2, 18220080, Note_on_c, 0, 48, 100
2, 18220560, Note_on_c, 0, 48, 0
2, 18220560, Note_on_c, 0, 57, 100
2, 18222000, Note_on_c, 0, 57, 0
2, 18222000, Note_on_c, 0, 50, 100
2, 18223920, Note_on_c, 0, 50, 0
2, 18223920, Note_on_c, 0, 55, 100
2, 18224400, Note_on_c, 0, 55, 0
2, 18224400, Note_on_c, 0, 43, 100
2, 18225360, Note_on_c, 0, 43, 0
2, 18225360, Note_on_c, 0, 47, 100
2, 18656400, Note_on_c, 0, 47, 0
2, 18656400, Note_on_c, 0, 55, 100
2, 18658200, Note_on_c, 0, 55, 0
2, 18658200, Note_on_c, 0, 54, 100
2, 18658320, Note_on_c, 0, 54, 0
2, 18658320, Note_on_c, 0, 50, 100
2, 18658860, Note_on_c, 0, 50, 0
2, 18658860, Note_on_c, 0, 52, 100
2, 18658920, Note_on_c, 0, 52, 0
2, 18658920, Note_on_c, 0, 54, 100
2, 18658980, Note_on_c, 0, 54, 0
2, 18658980, Note_on_c, 0, 55, 100
2, 18659040, Note_on_c, 0, 55, 0
2, 18659040, Note_on_c, 0, 57, 100
2, 18659100, Note_on_c, 0, 57, 0
2, 18659100, Note_on_c, 0, 59, 100
2, 18659160, Note_on_c, 0, 59, 0
2, 18659160, Note_on_c, 0, 60, 100
2, 18659220, Note_on_c, 0, 60, 0
2, 18659220, Note_on_c, 0, 62, 100
2, 18659280, Note_on_c, 0, 62, 0
2, 18659280, Note_on_c, 0, 57, 100
2, 18659640, Note_on_c, 0, 57, 0
2, 18659640, Note_on_c, 0, 54, 100
2, 18659760, Note_on_c, 0, 54, 0
2, 18659760, Note_on_c, 0, 50, 100
2, 18660120, Note_on_c, 0, 50, 0
2, 18660120, Note_on_c, 0, 52, 100
2, 18660240, Note_on_c, 0, 52, 0
2, 18660240, Note_on_c, 0, 55, 100
2, 18660960, Note_on_c, 0, 55, 0
2, 18660960, Note_on_c, 0, 54, 100
2, 18661200, Note_on_c, 0, 54, 0
2, 18661200, Note_on_c, 0, 52, 100
2, 18661260, Note_on_c, 0, 52, 0
2, 18661260, Note_on_c, 0, 50, 100
2, 18661320, Note_on_c, 0, 50, 0
2, 18661320, Note_on_c, 0, 52, 100
2, 18661380, Note_on_c, 0, 52, 0
2, 18661380, Note_on_c, 0, 54, 100
2, 18661440, Note_on_c, 0, 54, 0
2, 18661440, Note_on_c, 0, 52, 100
2, 18661480, Note_on_c, 0, 52, 0
2, 18661480, Note_on_c, 0, 54, 100
2, 18661520, Note_on_c, 0, 54, 0
2, 18661520, Note_on_c, 0, 52, 100
2, 18661560, Note_on_c, 0, 52, 0
2, 18661560, Note_on_c, 0, 54, 100
2, 18661600, Note_on_c, 0, 54, 0
2, 18661600, Note_on_c, 0, 52, 100
2, 18661640, Note_on_c, 0, 52, 0
2, 18661640, Note_on_c, 0, 54, 100
2, 18661680, Note_on_c, 0, 54, 0
2, 18661680, Note_on_c, 0, 52, 100
2, 18661720, Note_on_c, 0, 52, 0
2, 18661720, Note_on_c, 0, 54, 100
2, 18661760, Note_on_c, 0, 54, 0
2, 18661760, Note_on_c, 0, 52, 100
2, 18661800, Note_on_c, 0, 52, 0
2, 18661800, Note_on_c, 0, 54, 100
2, 18661840, Note_on_c, 0, 54, 0
2, 18661840, Note_on_c, 0, 52, 100
2, 18661880, Note_on_c, 0, 52, 0
2, 18661880, Note_on_c, 0, 50, 100
2, 18661980, Note_on_c, 0, 50, 0
2, 18661980, Note_on_c, 0, 52, 100
2, 18662040, Note_on_c, 0, 52, 0
2, 18662040, Note_on_c, 0, 54, 100
2, 18662100, Note_on_c, 0, 54, 0
2, 18662100, Note_on_c, 0, 50, 100
2, 18662160, Note_on_c, 0, 50, 0
2, 18662160, Note_on_c, 0, 60, 100
2, 18662520, Note_on_c, 0, 60, 0
2, 18662520, Note_on_c, 0, 59, 100
2, 18662580, Note_on_c, 0, 59, 0
2, 18662580, Note_on_c, 0, 60, 100
2, 18662640, Note_on_c, 0, 60, 0
2, 18662640, Note_on_c, 0, 57, 100
2, 18663000, Note_on_c, 0, 57, 0
2, 18663000, Note_on_c, 0, 54, 100
2, 18663120, Note_on_c, 0, 54, 0
2, 18663120, Note_on_c, 0, 64, 100
2, 18663480, Note_on_c, 0, 64, 0
2, 18663480, Note_on_c, 0, 62, 100
2, 18663600, Note_on_c, 0, 62, 0
2, 18663600, Note_on_c, 0, 60, 100
2, 18664080, Note_on_c, 0, 60, 0
2, 18664080, Note_on_c, 0, 59, 100
2, 18664140, Note_on_c, 0, 59, 0
2, 18664140, Note_on_c, 0, 57, 100
2, 18664200, Note_on_c, 0, 57, 0
2, 18664200, Note_on_c, 0, 59, 100
2, 18664260, Note_on_c, 0, 59, 0
2, 18664260, Note_on_c, 0, 60, 100
2, 18664320, Note_on_c, 0, 60, 0
2, 18664320, Note_on_c, 0, 59, 100
2, 18664360, Note_on_c, 0, 59, 0
2, 18664360, Note_on_c, 0, 60, 100
2, 18664400, Note_on_c, 0, 60, 0
2, 18664400, Note_on_c, 0, 59, 100
2, 18664440, Note_on_c, 0, 59, 0
2, 18664440, Note_on_c, 0, 60, 100
2, 18664480, Note_on_c, 0, 60, 0
2, 18664480, Note_on_c, 0, 59, 100
2, 18665040, Note_on_c, 0, 59, 0
2, 18665040, Note_on_c, 0, 60, 100
2, 18665340, Note_on_c, 0, 60, 0
2, 18665340, Note_on_c, 0, 59, 100
2, 18665400, Note_on_c, 0, 59, 0
2, 18665400, Note_on_c, 0, 57, 100
2, 18665460, Note_on_c, 0, 57, 0
2, 18665460, Note_on_c, 0, 59, 100
2, 18665520, Note_on_c, 0, 59, 0
2, 18665520, Note_on_c, 0, 55, 100
2, 18665880, Note_on_c, 0, 55, 0
2, 18665880, Note_on_c, 0, 60, 100
2, 18666000, Note_on_c, 0, 60, 0
2, 18666000, Note_on_c, 0, 59, 100
2, 18666060, Note_on_c, 0, 59, 0
2, 18666060, Note_on_c, 0, 60, 100
2, 18666120, Note_on_c, 0, 60, 0
2, 18666120, Note_on_c, 0, 62, 100
2, 18666780, Note_on_c, 0, 62, 0
2, 18666780, Note_on_c, 0, 60, 100
2, 18666840, Note_on_c, 0, 60, 0
2, 18666840, Note_on_c, 0, 59, 100
2, 18666900, Note_on_c, 0, 59, 0
2, 18666900, Note_on_c, 0, 60, 100
2, 18666960, Note_on_c, 0, 60, 0
2, 18666960, Note_on_c, 0, 59, 100
2, 18667260, Note_on_c, 0, 59, 0
2, 18667260, Note_on_c, 0, 57, 100
2, 18667320, Note_on_c, 0, 57, 0
2, 18667320, Note_on_c, 0, 55, 100
2, 18667380, Note_on_c, 0, 55, 0
2, 18667380, Note_on_c, 0, 57, 100
2, 18667440, Note_on_c, 0, 57, 0
2, 18667440, Note_on_c, 0, 55, 100
2, 18667740, Note_on_c, 0, 55, 0
2, 18667740, Note_on_c, 0, 54, 100
2, 18667800, Note_on_c, 0, 54, 0
2, 18667800, Note_on_c, 0, 52, 100
2, 18667860, Note_on_c, 0, 52, 0
2, 18667860, Note_on_c, 0, 50, 100
2, 18667920, Note_on_c, 0, 50, 0
2, 18667920, Note_on_c, 0, 48, 100
2, 18669000, Note_on_c, 0, 48, 0
2, 18669000, Note_on_c, 0, 47, 100
2, 18669060, Note_on_c, 0, 47, 0
2, 18669060, Note_on_c, 0, 45, 100
2, 18669120, Note_on_c, 0, 45, 0
2, 18669120, Note_on_c, 0, 43, 100
2, 18669180, Note_on_c, 0, 43, 0
2, 18669180, Note_on_c, 0, 42, 100
2, 18669240, Note_on_c, 0, 42, 0
2, 18669240, Note_on_c, 0, 40, 100
2, 18669300, Note_on_c, 0, 40, 0
2, 18669300, Note_on_c, 0, 38, 100
2, 18669360, Note_on_c, 0, 38, 0
2, 18669360, Note_on_c, 0, 42, 100
2, 18669480, Note_on_c, 0, 42, 0
2, 18669480, Note_on_c, 0, 45, 100
2, 18669600, Note_on_c, 0, 45, 0
2, 18669600, Note_on_c, 0, 50, 100
2, 18669720, Note_on_c, 0, 50, 0
2, 18669720, Note_on_c, 0, 43, 100
2, 18669840, Note_on_c, 0, 43, 0
2, 18669840, Note_on_c, 0, 50, 100
2, 18669960, Note_on_c, 0, 50, 0
2, 18669960, Note_on_c, 0, 52, 100
2, 18670080, Note_on_c, 0, 52, 0
2, 18670080, Note_on_c, 0, 54, 100
2, 18670200, Note_on_c, 0, 54, 0
2, 18670200, Note_on_c, 0, 55, 100
2, 18670320, Note_on_c, 0, 55, 0
2, 18670320, Note_on_c, 0, 54, 100
2, 18670440, Note_on_c, 0, 54, 0
2, 18670440, Note_on_c, 0, 55, 100
2, 18670560, Note_on_c, 0, 55, 0
2, 18670560, Note_on_c, 0, 57, 100
2, 18670680, Note_on_c, 0, 57, 0
2, 18670680, Note_on_c, 0, 60, 100
2, 18670800, Note_on_c, 0, 60, 0
2, 18670800, Note_on_c, 0, 59, 100
2, 18670860, Note_on_c, 0, 59, 0
2, 18670860, Note_on_c, 0, 60, 100
2, 18670920, Note_on_c, 0, 60, 0
2, 18670920, Note_on_c, 0, 59, 100
2, 18670980, Note_on_c, 0, 59, 0
2, 18670980, Note_on_c, 0, 60, 100
2, 18671040, Note_on_c, 0, 60, 0
2, 18671040, Note_on_c, 0, 59, 100
2, 18671080, Note_on_c, 0, 59, 0
2, 18671080, Note_on_c, 0, 60, 100
2, 18671120, Note_on_c, 0, 60, 0
2, 18671120, Note_on_c, 0, 59, 100
2, 18671160, Note_on_c, 0, 59, 0
2, 18671160, Note_on_c, 0, 60, 100
2, 18671200, Note_on_c, 0, 60, 0
2, 18671200, Note_on_c, 0, 59, 100
2, 18671240, Note_on_c, 0, 59, 0
2, 18671240, Note_on_c, 0, 57, 100
2, 18671580, Note_on_c, 0, 57, 0
2, 18671580, Note_on_c, 0, 55, 100
2, 18671640, Note_on_c, 0, 55, 0
2, 18671640, Note_on_c, 0, 54, 100
2, 18671700, Note_on_c, 0, 54, 0
2, 18671700, Note_on_c, 0, 55, 100
2, 18671760, Note_on_c, 0, 55, 0
2, 18671760, Note_on_c, 0, 59, 100
2, 18671880, Note_on_c, 0, 59, 0
2, 18671880, Note_on_c, 0, 61, 100
2, 18672000, Note_on_c, 0, 61, 0
2, 18672000, Note_on_c, 0, 63, 100
2, 18672120, Note_on_c, 0, 63, 0
2, 18672120, Note_on_c, 0, 64, 100
2, 18672240, Note_on_c, 0, 64, 0
2, 18672240, Note_on_c, 0, 63, 100
2, 18672360, Note_on_c, 0, 63, 0
2, 18672360, Note_on_c, 0, 64, 100
2, 18672480, Note_on_c, 0, 64, 0
2, 18672480, Note_on_c, 0, 66, 100
2, 18672600, Note_on_c, 0, 66, 0
2, 18672600, Note_on_c, 0, 67, 100
2, 18672720, Note_on_c, 0, 67, 0
2, 18672720, Note_on_c, 0, 55, 100
2, 18673080, Note_on_c, 0, 55, 0
2, 18673080, Note_on_c, 0, 67, 100
2, 18674460, Note_on_c, 0, 67, 0
2, 18674460, Note_on_c, 0, 66, 100
2, 18674520, Note_on_c, 0, 66, 0
2, 18674520, Note_on_c, 0, 64, 100
2, 18674580, Note_on_c, 0, 64, 0
2, 18674580, Note_on_c, 0, 66, 100
2, 18674640, Note_on_c, 0, 66, 0
2, 18674640, Note_on_c, 0, 59, 100
2, 18674940, Note_on_c, 0, 59, 0
2, 18674940, Note_on_c, 0, 61, 100
2, 18675000, Note_on_c, 0, 61, 0
2, 18675000, Note_on_c, 0, 63, 100
2, 18675060, Note_on_c, 0, 63, 0
2, 18675060, Note_on_c, 0, 64, 100
2, 18675600, Note_on_c, 0, 64, 0
2, 18675600, Note_on_c, 0, 60, 100
2, 18676380, Note_on_c, 0, 60, 0
2, 18676380, Note_on_c, 0, 59, 100
2, 18676440, Note_on_c, 0, 59, 0
2, 18676440, Note_on_c, 0, 57, 100
2, 18676500, Note_on_c, 0, 57, 0
2, 18676500, Note_on_c, 0, 56, 100
2, 18676560, Note_on_c, 0, 56, 0
2, 18676560, Note_on_c, 0, 59, 100
2, 18676920, Note_on_c, 0, 59, 0
2, 18676920, Note_on_c, 0, 52, 100
2, 18677040, Note_on_c, 0, 52, 0
2, 18677040, Note_on_c, 0, 56, 100
2, 18677400, Note_on_c, 0, 56, 0
2, 18677400, Note_on_c, 0, 57, 100
2, 18677520, Note_on_c, 0, 57, 0
2, 18677520, Note_on_c, 0, 45, 100
2, 18678120, Note_on_c, 0, 45, 0
2, 18678120, Note_on_c, 0, 47, 100
2, 18678180, Note_on_c, 0, 47, 0
2, 18678180, Note_on_c, 0, 49, 100
2, 18678240, Note_on_c, 0, 49, 0
2, 18678240, Note_on_c, 0, 50, 100
2, 18678300, Note_on_c, 0, 50, 0
2, 18678300, Note_on_c, 0, 52, 100
2, 18678360, Note_on_c, 0, 52, 0
2, 18678360, Note_on_c, 0, 54, 100
2, 18678420, Note_on_c, 0, 54, 0
2, 18678420, Note_on_c, 0, 55, 100
2, 18678480, Note_on_c, 0, 55, 0
2, 18678480, Note_on_c, 0, 52, 100
2, 18678840, Note_on_c, 0, 52, 0
2, 18678840, Note_on_c, 0, 49, 100
2, 18678960, Note_on_c, 0, 49, 0
2, 18678960, Note_on_c, 0, 45, 100
2, 18679320, Note_on_c, 0, 45, 0
2, 18679320, Note_on_c, 0, 54, 100
2, 18679440, Note_on_c, 0, 54, 0
2, 18679440, Note_on_c, 0, 55, 100
2, 18680220, Note_on_c, 0, 55, 0
2, 18680220, Note_on_c, 0, 54, 100
2, 18680280, Note_on_c, 0, 54, 0
2, 18680280, Note_on_c, 0, 52, 100
2, 18680340, Note_on_c, 0, 52, 0
2, 18680340, Note_on_c, 0, 50, 100
2, 18680400, Note_on_c, 0, 50, 0
2, 18680400, Note_on_c, 0, 48, 100
2, 18680700, Note_on_c, 0, 48, 0
2, 18680700, Note_on_c, 0, 47, 100
2, 18680760, Note_on_c, 0, 47, 0
2, 18680760, Note_on_c, 0, 45, 100
2, 18680820, Note_on_c, 0, 45, 0
2, 18680820, Note_on_c, 0, 43, 100
2, 18680880, Note_on_c, 0, 43, 0
2, 18680880, Note_on_c, 0, 50, 100
2, 18681180, Note_on_c, 0, 50, 0
2, 18681180, Note_on_c, 0, 52, 100
2, 18681240, Note_on_c, 0, 52, 0
2, 18681240, Note_on_c, 0, 54, 100
2, 18681300, Note_on_c, 0, 54, 0
2, 18681300, Note_on_c, 0, 55, 100
2, 18681360, Note_on_c, 0, 55, 0
2, 18681360, Note_on_c, 0, 54, 100
2, 18681420, Note_on_c, 0, 54, 0
2, 18681420, Note_on_c, 0, 55, 100
2, 18681480, Note_on_c, 0, 55, 0
2, 18681480, Note_on_c, 0, 43, 100
2, 18681720, Note_on_c, 0, 43, 0
2, 18681720, Note_on_c, 0, 55, 100
2, 18683100, Note_on_c, 0, 55, 0
2, 18683100, Note_on_c, 0, 54, 100
2, 18683160, Note_on_c, 0, 54, 0
2, 18683160, Note_on_c, 0, 52, 100
2, 18683220, Note_on_c, 0, 52, 0
2, 18683220, Note_on_c, 0, 54, 100
2, 18683280, Note_on_c, 0, 54, 0
2, 18683280, Note_on_c, 0, 50, 100
2, 18683460, Note_on_c, 0, 50, 0
2, 18683460, Note_on_c, 0, 52, 100
2, 18683520, Note_on_c, 0, 52, 0
2, 18683520, Note_on_c, 0, 54, 100
2, 18683580, Note_on_c, 0, 54, 0
2, 18683580, Note_on_c, 0, 55, 100
2, 18683640, Note_on_c, 0, 55, 0
2, 18683640, Note_on_c, 0, 57, 100
2, 18683700, Note_on_c, 0, 57, 0
2, 18683700, Note_on_c, 0, 59, 100
2, 18683760, Note_on_c, 0, 59, 0
2, 18683760, Note_on_c, 0, 55, 100
2, 18684120, Note_on_c, 0, 55, 0
2, 18684120, Note_on_c, 0, 57, 100
2, 18684240, Note_on_c, 0, 57, 0
2, 18684240, Note_on_c, 0, 45, 100
2, 18684720, Note_on_c, 0, 45, 0
2, 18684720, Note_on_c, 0, 38, 100
2, 18685200, Note_on_c, 0, 38, 0
2, 18685200, Note_on_c, 0, 50, 100
2, 18685800, Note_on_c, 0, 50, 0
2, 18685800, Note_on_c, 0, 52, 100
2, 18685860, Note_on_c, 0, 52, 0
2, 18685860, Note_on_c, 0, 54, 100
2, 18685920, Note_on_c, 0, 54, 0
2, 18685920, Note_on_c, 0, 55, 100
2, 18685980, Note_on_c, 0, 55, 0
2, 18685980, Note_on_c, 0, 57, 100
2, 18686040, Note_on_c, 0, 57, 0
2, 18686040, Note_on_c, 0, 59, 100
2, 18686100, Note_on_c, 0, 59, 0
2, 18686100, Note_on_c, 0, 60, 100
2, 18686160, Note_on_c, 0, 60, 0
2, 18686160, Note_on_c, 0, 57, 100
2, 18686520, Note_on_c, 0, 57, 0
2, 18686520, Note_on_c, 0, 54, 100
2, 18686640, Note_on_c, 0, 54, 0
2, 18686640, Note_on_c, 0, 50, 100
2, 18687000, Note_on_c, 0, 50, 0
2, 18687000, Note_on_c, 0, 47, 100
2, 18687120, Note_on_c, 0, 47, 0
2, 18687120, Note_on_c, 0, 55, 100
2, 18688920, Note_on_c, 0, 55, 0
2, 18688920, Note_on_c, 0, 54, 100
2, 18689040, Note_on_c, 0, 54, 0
2, 18689040, Note_on_c, 0, 50, 100
2, 18689580, Note_on_c, 0, 50, 0
2, 18689580, Note_on_c, 0, 52, 100
2, 18689640, Note_on_c, 0, 52, 0
2, 18689640, Note_on_c, 0, 54, 100
2, 18689700, Note_on_c, 0, 54, 0
2, 18689700, Note_on_c, 0, 55, 100
2, 18689760, Note_on_c, 0, 55, 0
2, 18689760, Note_on_c, 0, 57, 100
2, 18689820, Note_on_c, 0, 57, 0
2, 18689820, Note_on_c, 0, 59, 100
2, 18689880, Note_on_c, 0, 59, 0
2, 18689880, Note_on_c, 0, 60, 100
2, 18689940, Note_on_c, 0, 60, 0
2, 18689940, Note_on_c, 0, 62, 100
2, 18690000, Note_on_c, 0, 62, 0
2, 18690000, Note_on_c, 0, 57, 100
2, 18690360, Note_on_c, 0, 57, 0
2, 18690360, Note_on_c, 0, 54, 100
2, 18690480, Note_on_c, 0, 54, 0
2, 18690480, Note_on_c, 0, 50, 100
2, 18690840, Note_on_c, 0, 50, 0
2, 18690840, Note_on_c, 0, 52, 100
2, 18690960, Note_on_c, 0, 52, 0
2, 18690960, Note_on_c, 0, 55, 100
2, 18691680, Note_on_c, 0, 55, 0
2, 18691680, Note_on_c, 0, 54, 100
2, 18691920, Note_on_c, 0, 54, 0
2, 18691920, Note_on_c, 0, 52, 100
2, 18691980, Note_on_c, 0, 52, 0
2, 18691980, Note_on_c, 0, 50, 100
2, 18692040, Note_on_c, 0, 50, 0
2, 18692040, Note_on_c, 0, 52, 100
2, 18692100, Note_on_c, 0, 52, 0
2, 18692100, Note_on_c, 0, 54, 100
2, 18692160, Note_on_c, 0, 54, 0
2, 18692160, Note_on_c, 0, 52, 100
2, 18692200, Note_on_c, 0, 52, 0
2, 18692200, Note_on_c, 0, 54, 100
2, 18692240, Note_on_c, 0, 54, 0
2, 18692240, Note_on_c, 0, 52, 100
2, 18692280, Note_on_c, 0, 52, 0
2, 18692280, Note_on_c, 0, 54, 100
2, 18692320, Note_on_c, 0, 54, 0
2, 18692320, Note_on_c, 0, 52, 100
2, 18692360, Note_on_c, 0, 52, 0
2, 18692360, Note_on_c, 0, 54, 100
2, 18692400, Note_on_c, 0, 54, 0
2, 18692400, Note_on_c, 0, 52, 100
2, 18692440, Note_on_c, 0, 52, 0
2, 18692440, Note_on_c, 0, 54, 100
2, 18692480, Note_on_c, 0, 54, 0
2, 18692480, Note_on_c, 0, 52, 100
2, 18692520, Note_on_c, 0, 52, 0
2, 18692520, Note_on_c, 0, 54, 100
2, 18692560, Note_on_c, 0, 54, 0
2, 18692560, Note_on_c, 0, 52, 100
2, 18692600, Note_on_c, 0, 52, 0
2, 18692600, Note_on_c, 0, 50, 100
2, 18692700, Note_on_c, 0, 50, 0
2, 18692700, Note_on_c, 0, 52, 100
2, 18692760, Note_on_c, 0, 52, 0
2, 18692760, Note_on_c, 0, 54, 100
2, 18692820, Note_on_c, 0, 54, 0
2, 18692820, Note_on_c, 0, 50, 100
2, 18692880, Note_on_c, 0, 50, 0
2, 18692880, Note_on_c, 0, 60, 100
2, 18693240, Note_on_c, 0, 60, 0
2, 18693240, Note_on_c, 0, 59, 100
2, 18693300, Note_on_c, 0, 59, 0
2, 18693300, Note_on_c, 0, 60, 100
2, 18693360, Note_on_c, 0, 60, 0
2, 18693360, Note_on_c, 0, 57, 100
2, 18693720, Note_on_c, 0, 57, 0
2, 18693720, Note_on_c, 0, 54, 100
2, 18693840, Note_on_c, 0, 54, 0
2, 18693840, Note_on_c, 0, 64, 100
2, 18694200, Note_on_c, 0, 64, 0
2, 18694200, Note_on_c, 0, 62, 100
2, 18694320, Note_on_c, 0, 62, 0
2, 18694320, Note_on_c, 0, 60, 100
2, 18694800, Note_on_c, 0, 60, 0
2, 18694800, Note_on_c, 0, 59, 100
2, 18694860, Note_on_c, 0, 59, 0
2, 18694860, Note_on_c, 0, 57, 100
2, 18694920, Note_on_c, 0, 57, 0
2, 18694920, Note_on_c, 0, 59, 100
2, 18694980, Note_on_c, 0, 59, 0
2, 18694980, Note_on_c, 0, 60, 100
2, 18695040, Note_on_c, 0, 60, 0
2, 18695040, Note_on_c, 0, 59, 100
2, 18695080, Note_on_c, 0, 59, 0
2, 18695080, Note_on_c, 0, 60, 100
2, 18695120, Note_on_c, 0, 60, 0
2, 18695120, Note_on_c, 0, 59, 100
2, 18695160, Note_on_c, 0, 59, 0
2, 18695160, Note_on_c, 0, 60, 100
2, 18695200, Note_on_c, 0, 60, 0
2, 18695200, Note_on_c, 0, 59, 100
2, 18695760, Note_on_c, 0, 59, 0
2, 18695760, Note_on_c, 0, 60, 100
2, 18696060, Note_on_c, 0, 60, 0
2, 18696060, Note_on_c, 0, 59, 100
2, 18696120, Note_on_c, 0, 59, 0
2, 18696120, Note_on_c, 0, 57, 100
2, 18696180, Note_on_c, 0, 57, 0
2, 18696180, Note_on_c, 0, 59, 100
2, 18696240, Note_on_c, 0, 59, 0
2, 18696240, Note_on_c, 0, 55, 100
2, 18696600, Note_on_c, 0, 55, 0
2, 18696600, Note_on_c, 0, 60, 100
2, 18696720, Note_on_c, 0, 60, 0
2, 18696720, Note_on_c, 0, 59, 100
2, 18696780, Note_on_c, 0, 59, 0
2, 18696780, Note_on_c, 0, 60, 100
2, 18696840, Note_on_c, 0, 60, 0
2, 18696840, Note_on_c, 0, 62, 100
2, 18697500, Note_on_c, 0, 62, 0
2, 18697500, Note_on_c, 0, 60, 100
2, 18697560, Note_on_c, 0, 60, 0
2, 18697560, Note_on_c, 0, 59, 100
2, 18697620, Note_on_c, 0, 59, 0
2, 18697620, Note_on_c, 0, 60, 100
2, 18697680, Note_on_c, 0, 60, 0
2, 18697680, Note_on_c, 0, 59, 100
2, 18697980, Note_on_c, 0, 59, 0
2, 18697980, Note_on_c, 0, 57, 100
2, 18698040, Note_on_c, 0, 57, 0
2, 18698040, Note_on_c, 0, 55, 100
2, 18698100, Note_on_c, 0, 55, 0
2, 18698100, Note_on_c, 0, 57, 100
2, 18698160, Note_on_c, 0, 57, 0
2, 18698160, Note_on_c, 0, 55, 100
2, 18698460, Note_on_c, 0, 55, 0
2, 18698460, Note_on_c, 0, 54, 100
2, 18698520, Note_on_c, 0, 54, 0
2, 18698520, Note_on_c, 0, 52, 100
2, 18698580, Note_on_c, 0, 52, 0
2, 18698580, Note_on_c, 0, 50, 100
2, 18698640, Note_on_c, 0, 50, 0
2, 18698640, Note_on_c, 0, 48, 100
2, 18699720, Note_on_c, 0, 48, 0
2, 18699720, Note_on_c, 0, 47, 100
2, 18699780, Note_on_c, 0, 47, 0
2, 18699780, Note_on_c, 0, 45, 100
2, 18699840, Note_on_c, 0, 45, 0
2, 18699840, Note_on_c, 0, 43, 100
2, 18699900, Note_on_c, 0, 43, 0
2, 18699900, Note_on_c, 0, 42, 100
2, 18699960, Note_on_c, 0, 42, 0
2, 18699960, Note_on_c, 0, 40, 100
2, 18700020, Note_on_c, 0, 40, 0
2, 18700020, Note_on_c, 0, 38, 100
2, 18700080, Note_on_c, 0, 38, 0
2, 18700080, Note_on_c, 0, 42, 100
2, 18700200, Note_on_c, 0, 42, 0
2, 18700200, Note_on_c, 0, 45, 100
2, 18700320, Note_on_c, 0, 45, 0
2, 18700320, Note_on_c, 0, 50, 100
2, 18700440, Note_on_c, 0, 50, 0
2, 18700440, Note_on_c, 0, 43, 100
2, 18700560, Note_on_c, 0, 43, 0
2, 18700560, Note_on_c, 0, 50, 100
2, 18700680, Note_on_c, 0, 50, 0
2, 18700680, Note_on_c, 0, 52, 100
2, 18700800, Note_on_c, 0, 52, 0
2, 18700800, Note_on_c, 0, 54, 100
2, 18700920, Note_on_c, 0, 54, 0
2, 18700920, Note_on_c, 0, 55, 100
2, 18701040, Note_on_c, 0, 55, 0
2, 18701040, Note_on_c, 0, 54, 100
2, 18701160, Note_on_c, 0, 54, 0
2, 18701160, Note_on_c, 0, 55, 100
2, 18701280, Note_on_c, 0, 55, 0
2, 18701280, Note_on_c, 0, 57, 100
2, 18701400, Note_on_c, 0, 57, 0
2, 18701400, Note_on_c, 0, 60, 100
2, 18701520, Note_on_c, 0, 60, 0
2, 18701520, Note_on_c, 0, 59, 100
2, 18701580, Note_on_c, 0, 59, 0
2, 18701580, Note_on_c, 0, 60, 100
2, 18701640, Note_on_c, 0, 60, 0
2, 18701640, Note_on_c, 0, 59, 100
2, 18701700, Note_on_c, 0, 59, 0
2, 18701700, Note_on_c, 0, 60, 100
2, 18701760, Note_on_c, 0, 60, 0
2, 18701760, Note_on_c, 0, 59, 100
2, 18701800, Note_on_c, 0, 59, 0
2, 18701800, Note_on_c, 0, 60, 100
2, 18701840, Note_on_c, 0, 60, 0
2, 18701840, Note_on_c, 0, 59, 100
2, 18701880, Note_on_c, 0, 59, 0
2, 18701880, Note_on_c, 0, 60, 100
2, 18701920, Note_on_c, 0, 60, 0
2, 18701920, Note_on_c, 0, 59, 100
2, 18701960, Note_on_c, 0, 59, 0
2, 18701960, Note_on_c, 0, 57, 100
2, 18702300, Note_on_c, 0, 57, 0
2, 18702300, Note_on_c, 0, 55, 100
2, 18702360, Note_on_c, 0, 55, 0
2, 18702360, Note_on_c, 0, 54, 100
2, 18702420, Note_on_c, 0, 54, 0
2, 18702420, Note_on_c, 0, 55, 100
2, 18702480, Note_on_c, 0, 55, 0
2, 18702480, Note_on_c, 0, 59, 100
2, 18702600, Note_on_c, 0, 59, 0
2, 18702600, Note_on_c, 0, 61, 100
2, 18702720, Note_on_c, 0, 61, 0
2, 18702720, Note_on_c, 0, 63, 100
2, 18702840, Note_on_c, 0, 63, 0
2, 18702840, Note_on_c, 0, 64, 100
2, 18702960, Note_on_c, 0, 64, 0
2, 18702960, Note_on_c, 0, 63, 100
2, 18703080, Note_on_c, 0, 63, 0
2, 18703080, Note_on_c, 0, 64, 100
2, 18703200, Note_on_c, 0, 64, 0
2, 18703200, Note_on_c, 0, 66, 100
2, 18703320, Note_on_c, 0, 66, 0
2, 18703320, Note_on_c, 0, 67, 100
2, 18703440, Note_on_c, 0, 67, 0
2, 18703440, Note_on_c, 0, 55, 100
2, 18703800, Note_on_c, 0, 55, 0
2, 18703800, Note_on_c, 0, 67, 100
2, 18705180, Note_on_c, 0, 67, 0
2, 18705180, Note_on_c, 0, 66, 100
2, 18705240, Note_on_c, 0, 66, 0
2, 18705240, Note_on_c, 0, 64, 100
2, 18705300, Note_on_c, 0, 64, 0
2, 18705300, Note_on_c, 0, 66, 100
2, 18705360, Note_on_c, 0, 66, 0
2, 18705360, Note_on_c, 0, 59, 100
2, 18705660, Note_on_c, 0, 59, 0
2, 18705660, Note_on_c, 0, 61, 100
2, 18705720, Note_on_c, 0, 61, 0
2, 18705720, Note_on_c, 0, 63, 100
2, 18705780, Note_on_c, 0, 63, 0
2, 18705780, Note_on_c, 0, 64, 100
2, 18706320, Note_on_c, 0, 64, 0
2, 18706320, Note_on_c, 0, 60, 100
2, 18707100, Note_on_c, 0, 60, 0
2, 18707100, Note_on_c, 0, 59, 100
2, 18707160, Note_on_c, 0, 59, 0
2, 18707160, Note_on_c, 0, 57, 100
2, 18707220, Note_on_c, 0, 57, 0
2, 18707220, Note_on_c, 0, 56, 100
2, 18707280, Note_on_c, 0, 56, 0
2, 18707280, Note_on_c, 0, 59, 100
2, 18707640, Note_on_c, 0, 59, 0
2, 18707640, Note_on_c, 0, 52, 100
2, 18707760, Note_on_c, 0, 52, 0
2, 18707760, Note_on_c, 0, 56, 100
2, 18708120, Note_on_c, 0, 56, 0
2, 18708120, Note_on_c, 0, 57, 100
2, 18708240, Note_on_c, 0, 57, 0
2, 18708240, Note_on_c, 0, 45, 100
2, 18708840, Note_on_c, 0, 45, 0
2, 18708840, Note_on_c, 0, 47, 100
2, 18708900, Note_on_c, 0, 47, 0
2, 18708900, Note_on_c, 0, 49, 100
2, 18708960, Note_on_c, 0, 49, 0
2, 18708960, Note_on_c, 0, 50, 100
2, 18709020, Note_on_c, 0, 50, 0
2, 18709020, Note_on_c, 0, 52, 100
2, 18709080, Note_on_c, 0, 52, 0
2, 18709080, Note_on_c, 0, 54, 100
2, 18709140, Note_on_c, 0, 54, 0
2, 18709140, Note_on_c, 0, 55, 100
2, 18709200, Note_on_c, 0, 55, 0
2, 18709200, Note_on_c, 0, 52, 100
2, 18709560, Note_on_c, 0, 52, 0
2, 18709560, Note_on_c, 0, 49, 100
2, 18709680, Note_on_c, 0, 49, 0
2, 18709680, Note_on_c, 0, 45, 100
2, 18710040, Note_on_c, 0, 45, 0
2, 18710040, Note_on_c, 0, 54, 100
2, 18710160, Note_on_c, 0, 54, 0
2, 18710160, Note_on_c, 0, 55, 100
2, 18710940, Note_on_c, 0, 55, 0
2, 18710940, Note_on_c, 0, 54, 100
2, 18711000, Note_on_c, 0, 54, 0
2, 18711000, Note_on_c, 0, 52, 100
2, 18711060, Note_on_c, 0, 52, 0
2, 18711060, Note_on_c, 0, 50, 100
2, 18711120, Note_on_c, 0, 50, 0
2, 18711120, Note_on_c, 0, 48, 100
2, 18711420, Note_on_c, 0, 48, 0
2, 18711420, Note_on_c, 0, 47, 100
2, 18711480, Note_on_c, 0, 47, 0
2, 18711480, Note_on_c, 0, 45, 100
2, 18711540, Note_on_c, 0, 45, 0
2, 18711540, Note_on_c, 0, 43, 100
2, 18711600, Note_on_c, 0, 43, 0
2, 18711600, Note_on_c, 0, 50, 100
2, 18711900, Note_on_c, 0, 50, 0
2, 18711900, Note_on_c, 0, 52, 100
2, 18711960, Note_on_c, 0, 52, 0
2, 18711960, Note_on_c, 0, 54, 100
2, 18712020, Note_on_c, 0, 54, 0
2, 18712020, Note_on_c, 0, 55, 100
2, 18712080, Note_on_c, 0, 55, 0
2, 18712080, Note_on_c, 0, 54, 100
2, 18712140, Note_on_c, 0, 54, 0
2, 18712140, Note_on_c, 0, 55, 100
2, 18712200, Note_on_c, 0, 55, 0
2, 18712200, Note_on_c, 0, 43, 100
2, 18712440, Note_on_c, 0, 43, 0
2, 18712440, Note_on_c, 0, 55, 100
2, 18713820, Note_on_c, 0, 55, 0
2, 18713820, Note_on_c, 0, 54, 100
2, 18713880, Note_on_c, 0, 54, 0
2, 18713880, Note_on_c, 0, 52, 100
2, 18713940, Note_on_c, 0, 52, 0
2, 18713940, Note_on_c, 0, 54, 100
2, 18714000, Note_on_c, 0, 54, 0
2, 18714000, Note_on_c, 0, 50, 100
2, 18714180, Note_on_c, 0, 50, 0
2, 18714180, Note_on_c, 0, 52, 100
2, 18714240, Note_on_c, 0, 52, 0
2, 18714240, Note_on_c, 0, 54, 100
2, 18714300, Note_on_c, 0, 54, 0
2, 18714300, Note_on_c, 0, 55, 100
2, 18714360, Note_on_c, 0, 55, 0
2, 18714360, Note_on_c, 0, 57, 100
2, 18714420, Note_on_c, 0, 57, 0
2, 18714420, Note_on_c, 0, 59, 100
2, 18714480, Note_on_c, 0, 59, 0
2, 18714480, Note_on_c, 0, 55, 100
2, 18714840, Note_on_c, 0, 55, 0
2, 18714840, Note_on_c, 0, 57, 100
2, 18714960, Note_on_c, 0, 57, 0
2, 18714960, Note_on_c, 0, 45, 100
2, 18715440, Note_on_c, 0, 45, 0
2, 18715440, Note_on_c, 0, 38, 100
2, 18715920, Note_on_c, 0, 38, 0
2, 18715920, Note_on_c, 0, 59, 100
2, 18721200, Note_on_c, 0, 59, 0
2, 18721200, Note_on_c, 0, 57, 100
2, 18721320, Note_on_c, 0, 57, 0
2, 18721320, Note_on_c, 0, 55, 100
2, 18721440, Note_on_c, 0, 55, 0
2, 18721440, Note_on_c, 0, 54, 100
2, 18721560, Note_on_c, 0, 54, 0
2, 18721560, Note_on_c, 0, 55, 100
2, 18721680, Note_on_c, 0, 55, 0
2, 18721680, Note_on_c, 0, 57, 100
2, 18721920, Note_on_c, 0, 57, 0
2, 18721920, Note_on_c, 0, 59, 100
2, 18722160, Note_on_c, 0, 59, 0
2, 18722160, Note_on_c, 0, 52, 100
2, 18722400, Note_on_c, 0, 52, 0
2, 18722400, Note_on_c, 0, 55, 100
2, 18722520, Note_on_c, 0, 55, 0
2, 18722520, Note_on_c, 0, 54, 100
2, 18722640, Note_on_c, 0, 54, 0
2, 18722640, Note_on_c, 0, 57, 100
2, 18722760, Note_on_c, 0, 57, 0
2, 18722760, Note_on_c, 0, 55, 100
2, 18722880, Note_on_c, 0, 55, 0
2, 18722880, Note_on_c, 0, 59, 100
2, 18723000, Note_on_c, 0, 59, 0
2, 18723000, Note_on_c, 0, 57, 100
2, 18723120, Note_on_c, 0, 57, 0
2, 18723120, Note_on_c, 0, 59, 100
2, 18723360, Note_on_c, 0, 59, 0
2, 18723360, Note_on_c, 0, 60, 100
2, 18723600, Note_on_c, 0, 60, 0
2, 18723600, Note_on_c, 0, 54, 100
2, 18723840, Note_on_c, 0, 54, 0
2, 18723840, Note_on_c, 0, 57, 100
2, 18723960, Note_on_c, 0, 57, 0
2, 18723960, Note_on_c, 0, 55, 100
2, 18724080, Note_on_c, 0, 55, 0
2, 18724080, Note_on_c, 0, 59, 100
2, 18724200, Note_on_c, 0, 59, 0
2, 18724200, Note_on_c, 0, 57, 100
2, 18724320, Note_on_c, 0, 57, 0
2, 18724320, Note_on_c, 0, 60, 100
2, 18724440, Note_on_c, 0, 60, 0
2, 18724440, Note_on_c, 0, 59, 100
2, 18724560, Note_on_c, 0, 59, 0
2, 18724560, Note_on_c, 0, 60, 100
2, 18724800, Note_on_c, 0, 60, 0
2, 18724800, Note_on_c, 0, 62, 100
2, 18725040, Note_on_c, 0, 62, 0
2, 18725040, Note_on_c, 0, 55, 100
2, 18725280, Note_on_c, 0, 55, 0
2, 18725280, Note_on_c, 0, 59, 100
2, 18725400, Note_on_c, 0, 59, 0
2, 18725400, Note_on_c, 0, 57, 100
2, 18725520, Note_on_c, 0, 57, 0
2, 18725520, Note_on_c, 0, 60, 100
2, 18725640, Note_on_c, 0, 60, 0
2, 18725640, Note_on_c, 0, 59, 100
2, 18725760, Note_on_c, 0, 59, 0
2, 18725760, Note_on_c, 0, 62, 100
2, 18725880, Note_on_c, 0, 62, 0
2, 18725880, Note_on_c, 0, 60, 100
2, 18726000, Note_on_c, 0, 60, 0
2, 18726000, Note_on_c, 0, 57, 100
2, 18726240, Note_on_c, 0, 57, 0
2, 18726240, Note_on_c, 0, 59, 100
2, 18726480, Note_on_c, 0, 59, 0
2, 18726480, Note_on_c, 0, 52, 100
2, 18726720, Note_on_c, 0, 52, 0
2, 18726720, Note_on_c, 0, 50, 100
2, 18729840, Note_on_c, 0, 50, 0
2, 18729840, Note_on_c, 0, 48, 100
2, 18729960, Note_on_c, 0, 48, 0
2, 18729960, Note_on_c, 0, 47, 100
2, 18730080, Note_on_c, 0, 47, 0
2, 18730080, Note_on_c, 0, 45, 100
2, 18730200, Note_on_c, 0, 45, 0
2, 18730200, Note_on_c, 0, 47, 100
2, 18730320, Note_on_c, 0, 47, 0
2, 18730320, Note_on_c, 0, 48, 100
2, 18730560, Note_on_c, 0, 48, 0
2, 18730560, Note_on_c, 0, 50, 100
2, 18730800, Note_on_c, 0, 50, 0
2, 18730800, Note_on_c, 0, 43, 100
2, 18731040, Note_on_c, 0, 43, 0
2, 18731040, Note_on_c, 0, 47, 100
2, 18731160, Note_on_c, 0, 47, 0
2, 18731160, Note_on_c, 0, 45, 100
2, 18731280, Note_on_c, 0, 45, 0
2, 18731280, Note_on_c, 0, 48, 100
2, 18731400, Note_on_c, 0, 48, 0
2, 18731400, Note_on_c, 0, 47, 100
2, 18731520, Note_on_c, 0, 47, 0
2, 18731520, Note_on_c, 0, 50, 100
2, 18731640, Note_on_c, 0, 50, 0
2, 18731640, Note_on_c, 0, 48, 100
2, 18731760, Note_on_c, 0, 48, 0
2, 18731760, Note_on_c, 0, 47, 100
2, 18731880, Note_on_c, 0, 47, 0
2, 18731880, Note_on_c, 0, 45, 100
2, 18732000, Note_on_c, 0, 45, 0
2, 18732000, Note_on_c, 0, 43, 100
2, 18732120, Note_on_c, 0, 43, 0
2, 18732120, Note_on_c, 0, 42, 100
2, 18732240, Note_on_c, 0, 42, 0
2, 18732240, Note_on_c, 0, 40, 100
2, 18732360, Note_on_c, 0, 40, 0
2, 18732360, Note_on_c, 0, 42, 100
2, 18732480, Note_on_c, 0, 42, 0
2, 18732480, Note_on_c, 0, 45, 100
2, 18732720, Note_on_c, 0, 45, 0
2, 18732720, Note_on_c, 0, 43, 100
2, 18732780, Note_on_c, 0, 43, 0
2, 18732780, Note_on_c, 0, 42, 100
2, 18732840, Note_on_c, 0, 42, 0
2, 18732840, Note_on_c, 0, 43, 100
2, 18732900, Note_on_c, 0, 43, 0
2, 18732900, Note_on_c, 0, 45, 100
2, 18732960, Note_on_c, 0, 45, 0
2, 18732960, Note_on_c, 0, 38, 100
2, 18733200, Note_on_c, 0, 38, 0
2, 18733200, Note_on_c, 0, 42, 100
2, 18733320, Note_on_c, 0, 42, 0
2, 18733320, Note_on_c, 0, 40, 100
2, 18733440, Note_on_c, 0, 40, 0
2, 18733440, Note_on_c, 0, 43, 100
2, 18733560, Note_on_c, 0, 43, 0
2, 18733560, Note_on_c, 0, 42, 100
2, 18733680, Note_on_c, 0, 42, 0
2, 18733680, Note_on_c, 0, 45, 100
2, 18733800, Note_on_c, 0, 45, 0
2, 18733800, Note_on_c, 0, 43, 100
2, 18733920, Note_on_c, 0, 43, 0
2, 18733920, Note_on_c, 0, 47, 100
2, 18734160, Note_on_c, 0, 47, 0
2, 18734160, Note_on_c, 0, 45, 100
2, 18734220, Note_on_c, 0, 45, 0
2, 18734220, Note_on_c, 0, 43, 100
2, 18734280, Note_on_c, 0, 43, 0
2, 18734280, Note_on_c, 0, 45, 100
2, 18734340, Note_on_c, 0, 45, 0
2, 18734340, Note_on_c, 0, 47, 100
2, 18734400, Note_on_c, 0, 47, 0
2, 18734400, Note_on_c, 0, 40, 100
2, 18734640, Note_on_c, 0, 40, 0
2, 18734640, Note_on_c, 0, 44, 100
2, 18734760, Note_on_c, 0, 44, 0
2, 18734760, Note_on_c, 0, 42, 100
2, 18734880, Note_on_c, 0, 42, 0
2, 18734880, Note_on_c, 0, 45, 100
2, 18735000, Note_on_c, 0, 45, 0
2, 18735000, Note_on_c, 0, 44, 100
2, 18735120, Note_on_c, 0, 44, 0
2, 18735120, Note_on_c, 0, 47, 100
2, 18735240, Note_on_c, 0, 47, 0
2, 18735240, Note_on_c, 0, 45, 100
2, 18735360, Note_on_c, 0, 45, 0
2, 18735360, Note_on_c, 0, 52, 100
2, 18735480, Note_on_c, 0, 52, 0
2, 18735480, Note_on_c, 0, 57, 100
2, 18735600, Note_on_c, 0, 57, 0
2, 18735600, Note_on_c, 0, 55, 100
2, 18735720, Note_on_c, 0, 55, 0
2, 18735720, Note_on_c, 0, 54, 100
2, 18735840, Note_on_c, 0, 54, 0
2, 18735840, Note_on_c, 0, 52, 100
2, 18735960, Note_on_c, 0, 52, 0
2, 18735960, Note_on_c, 0, 54, 100
2, 18736080, Note_on_c, 0, 54, 0
2, 18736080, Note_on_c, 0, 55, 100
2, 18736200, Note_on_c, 0, 55, 0
2, 18736200, Note_on_c, 0, 54, 100
2, 18736320, Note_on_c, 0, 54, 0
2, 18736320, Note_on_c, 0, 52, 100
2, 18736440, Note_on_c, 0, 52, 0
2, 18736440, Note_on_c, 0, 50, 100
2, 18736560, Note_on_c, 0, 50, 0
2, 18736560, Note_on_c, 0, 48, 100
2, 18736680, Note_on_c, 0, 48, 0
2, 18736680, Note_on_c, 0, 47, 100
2, 18736800, Note_on_c, 0, 47, 0
2, 18736800, Note_on_c, 0, 50, 100
2, 18736920, Note_on_c, 0, 50, 0
2, 18736920, Note_on_c, 0, 48, 100
2, 18737040, Note_on_c, 0, 48, 0
2, 18737040, Note_on_c, 0, 52, 100
2, 18737160, Note_on_c, 0, 52, 0
2, 18737160, Note_on_c, 0, 50, 100
2, 18737280, Note_on_c, 0, 50, 0
2, 18737280, Note_on_c, 0, 54, 100
2, 18737400, Note_on_c, 0, 54, 0
2, 18737400, Note_on_c, 0, 52, 100
2, 18737520, Note_on_c, 0, 52, 0
2, 18737520, Note_on_c, 0, 48, 100
2, 18737760, Note_on_c, 0, 48, 0
2, 18737760, Note_on_c, 0, 50, 100
2, 18738000, Note_on_c, 0, 50, 0
2, 18738000, Note_on_c, 0, 43, 100
2, 18738240, Note_on_c, 0, 43, 0
2, 18738240, Note_on_c, 0, 42, 100
2, 18738360, Note_on_c, 0, 42, 0
2, 18738360, Note_on_c, 0, 43, 100
2, 18738480, Note_on_c, 0, 43, 0
2, 18738480, Note_on_c, 0, 45, 100
2, 18738600, Note_on_c, 0, 45, 0
2, 18738600, Note_on_c, 0, 47, 100
2, 18738720, Note_on_c, 0, 47, 0
2, 18738720, Note_on_c, 0, 48, 100
2, 18738840, Note_on_c, 0, 48, 0
2, 18738840, Note_on_c, 0, 50, 100
2, 18738960, Note_on_c, 0, 50, 0
2, 18738960, Note_on_c, 0, 38, 100
2, 18739200, Note_on_c, 0, 38, 0
2, 18739200, Note_on_c, 0, 59, 100
2, 18744240, Note_on_c, 0, 59, 0
2, 18744240, Note_on_c, 0, 57, 100
2, 18744360, Note_on_c, 0, 57, 0
2, 18744360, Note_on_c, 0, 55, 100
2, 18744480, Note_on_c, 0, 55, 0
2, 18744480, Note_on_c, 0, 54, 100
2, 18744600, Note_on_c, 0, 54, 0
2, 18744600, Note_on_c, 0, 55, 100
2, 18744720, Note_on_c, 0, 55, 0
2, 18744720, Note_on_c, 0, 57, 100
2, 18744960, Note_on_c, 0, 57, 0
2, 18744960, Note_on_c, 0, 59, 100
2, 18745200, Note_on_c, 0, 59, 0
2, 18745200, Note_on_c, 0, 52, 100
2, 18745440, Note_on_c, 0, 52, 0
2, 18745440, Note_on_c, 0, 55, 100
2, 18745560, Note_on_c, 0, 55, 0
2, 18745560, Note_on_c, 0, 54, 100
2, 18745680, Note_on_c, 0, 54, 0
2, 18745680, Note_on_c, 0, 57, 100
2, 18745800, Note_on_c, 0, 57, 0
2, 18745800, Note_on_c, 0, 55, 100
2, 18745920, Note_on_c, 0, 55, 0
2, 18745920, Note_on_c, 0, 59, 100
2, 18746040, Note_on_c, 0, 59, 0
2, 18746040, Note_on_c, 0, 57, 100
2, 18746160, Note_on_c, 0, 57, 0
2, 18746160, Note_on_c, 0, 59, 100
2, 18746400, Note_on_c, 0, 59, 0
2, 18746400, Note_on_c, 0, 60, 100
2, 18746640, Note_on_c, 0, 60, 0
2, 18746640, Note_on_c, 0, 54, 100
2, 18746880, Note_on_c, 0, 54, 0
2, 18746880, Note_on_c, 0, 57, 100
2, 18747000, Note_on_c, 0, 57, 0
2, 18747000, Note_on_c, 0, 55, 100
2, 18747120, Note_on_c, 0, 55, 0
2, 18747120, Note_on_c, 0, 59, 100
2, 18747240, Note_on_c, 0, 59, 0
2, 18747240, Note_on_c, 0, 57, 100
2, 18747360, Note_on_c, 0, 57, 0
2, 18747360, Note_on_c, 0, 60, 100
2, 18747480, Note_on_c, 0, 60, 0
2, 18747480, Note_on_c, 0, 59, 100
2, 18747600, Note_on_c, 0, 59, 0
2, 18747600, Note_on_c, 0, 60, 100
2, 18747840, Note_on_c, 0, 60, 0
2, 18747840, Note_on_c, 0, 62, 100
2, 18748080, Note_on_c, 0, 62, 0
2, 18748080, Note_on_c, 0, 55, 100
2, 18748320, Note_on_c, 0, 55, 0
2, 18748320, Note_on_c, 0, 59, 100
2, 18748440, Note_on_c, 0, 59, 0
2, 18748440, Note_on_c, 0, 57, 100
2, 18748560, Note_on_c, 0, 57, 0
2, 18748560, Note_on_c, 0, 60, 100
2, 18748680, Note_on_c, 0, 60, 0
2, 18748680, Note_on_c, 0, 59, 100
2, 18748800, Note_on_c, 0, 59, 0
2, 18748800, Note_on_c, 0, 62, 100
2, 18748920, Note_on_c, 0, 62, 0
2, 18748920, Note_on_c, 0, 60, 100
2, 18749040, Note_on_c, 0, 60, 0
2, 18749040, Note_on_c, 0, 57, 100
2, 18749280, Note_on_c, 0, 57, 0
2, 18749280, Note_on_c, 0, 59, 100
2, 18749520, Note_on_c, 0, 59, 0
2, 18749520, Note_on_c, 0, 52, 100
2, 18749760, Note_on_c, 0, 52, 0
2, 18749760, Note_on_c, 0, 50, 100
2, 18752880, Note_on_c, 0, 50, 0
2, 18752880, Note_on_c, 0, 48, 100
2, 18753000, Note_on_c, 0, 48, 0
2, 18753000, Note_on_c, 0, 47, 100
2, 18753120, Note_on_c, 0, 47, 0
2, 18753120, Note_on_c, 0, 45, 100
2, 18753240, Note_on_c, 0, 45, 0
2, 18753240, Note_on_c, 0, 47, 100
2, 18753360, Note_on_c, 0, 47, 0
2, 18753360, Note_on_c, 0, 48, 100
2, 18753600, Note_on_c, 0, 48, 0
2, 18753600, Note_on_c, 0, 50, 100
2, 18753840, Note_on_c, 0, 50, 0
2, 18753840, Note_on_c, 0, 43, 100
2, 18754080, Note_on_c, 0, 43, 0
2, 18754080, Note_on_c, 0, 47, 100
2, 18754200, Note_on_c, 0, 47, 0
2, 18754200, Note_on_c, 0, 45, 100
2, 18754320, Note_on_c, 0, 45, 0
2, 18754320, Note_on_c, 0, 48, 100
2, 18754440, Note_on_c, 0, 48, 0
2, 18754440, Note_on_c, 0, 47, 100
2, 18754560, Note_on_c, 0, 47, 0
2, 18754560, Note_on_c, 0, 50, 100
2, 18754680, Note_on_c, 0, 50, 0
2, 18754680, Note_on_c, 0, 48, 100
2, 18754800, Note_on_c, 0, 48, 0
2, 18754800, Note_on_c, 0, 47, 100
2, 18754920, Note_on_c, 0, 47, 0
2, 18754920, Note_on_c, 0, 45, 100
2, 18755040, Note_on_c, 0, 45, 0
2, 18755040, Note_on_c, 0, 43, 100
2, 18755160, Note_on_c, 0, 43, 0
2, 18755160, Note_on_c, 0, 42, 100
2, 18755280, Note_on_c, 0, 42, 0
2, 18755280, Note_on_c, 0, 40, 100
2, 18755400, Note_on_c, 0, 40, 0
2, 18755400, Note_on_c, 0, 42, 100
2, 18755520, Note_on_c, 0, 42, 0
2, 18755520, Note_on_c, 0, 45, 100
2, 18755760, Note_on_c, 0, 45, 0
2, 18755760, Note_on_c, 0, 43, 100
2, 18755820, Note_on_c, 0, 43, 0
2, 18755820, Note_on_c, 0, 42, 100
2, 18755880, Note_on_c, 0, 42, 0
2, 18755880, Note_on_c, 0, 43, 100
2, 18755940, Note_on_c, 0, 43, 0
2, 18755940, Note_on_c, 0, 45, 100
2, 18756000, Note_on_c, 0, 45, 0
2, 18756000, Note_on_c, 0, 38, 100
2, 18756240, Note_on_c, 0, 38, 0
2, 18756240, Note_on_c, 0, 42, 100
2, 18756360, Note_on_c, 0, 42, 0
2, 18756360, Note_on_c, 0, 40, 100
2, 18756480, Note_on_c, 0, 40, 0
2, 18756480, Note_on_c, 0, 43, 100
2, 18756600, Note_on_c, 0, 43, 0
2, 18756600, Note_on_c, 0, 42, 100
2, 18756720, Note_on_c, 0, 42, 0
2, 18756720, Note_on_c, 0, 45, 100
2, 18756840, Note_on_c, 0, 45, 0
2, 18756840, Note_on_c, 0, 43, 100
2, 18756960, Note_on_c, 0, 43, 0
2, 18756960, Note_on_c, 0, 47, 100
2, 18757200, Note_on_c, 0, 47, 0
2, 18757200, Note_on_c, 0, 45, 100
2, 18757260, Note_on_c, 0, 45, 0
2, 18757260, Note_on_c, 0, 43, 100
2, 18757320, Note_on_c, 0, 43, 0
2, 18757320, Note_on_c, 0, 45, 100
2, 18757380, Note_on_c, 0, 45, 0
2, 18757380, Note_on_c, 0, 47, 100
2, 18757440, Note_on_c, 0, 47, 0
2, 18757440, Note_on_c, 0, 40, 100
2, 18757680, Note_on_c, 0, 40, 0
2, 18757680, Note_on_c, 0, 44, 100
2, 18757800, Note_on_c, 0, 44, 0
2, 18757800, Note_on_c, 0, 42, 100
2, 18757920, Note_on_c, 0, 42, 0
2, 18757920, Note_on_c, 0, 45, 100
2, 18758040, Note_on_c, 0, 45, 0
2, 18758040, Note_on_c, 0, 44, 100
2, 18758160, Note_on_c, 0, 44, 0
2, 18758160, Note_on_c, 0, 47, 100
2, 18758280, Note_on_c, 0, 47, 0
2, 18758280, Note_on_c, 0, 45, 100
2, 18758400, Note_on_c, 0, 45, 0
2, 18758400, Note_on_c, 0, 52, 100
2, 18758520, Note_on_c, 0, 52, 0
2, 18758520, Note_on_c, 0, 57, 100
2, 18758640, Note_on_c, 0, 57, 0
2, 18758640, Note_on_c, 0, 55, 100
2, 18758760, Note_on_c, 0, 55, 0
2, 18758760, Note_on_c, 0, 54, 100
2, 18758880, Note_on_c, 0, 54, 0
2, 18758880, Note_on_c, 0, 52, 100
2, 18759000, Note_on_c, 0, 52, 0
2, 18759000, Note_on_c, 0, 54, 100
2, 18759120, Note_on_c, 0, 54, 0
2, 18759120, Note_on_c, 0, 55, 100
2, 18759240, Note_on_c, 0, 55, 0
2, 18759240, Note_on_c, 0, 54, 100
2, 18759360, Note_on_c, 0, 54, 0
2, 18759360, Note_on_c, 0, 52, 100
2, 18759480, Note_on_c, 0, 52, 0
2, 18759480, Note_on_c, 0, 50, 100
2, 18759600, Note_on_c, 0, 50, 0
2, 18759600, Note_on_c, 0, 48, 100
2, 18759720, Note_on_c, 0, 48, 0
2, 18759720, Note_on_c, 0, 47, 100
2, 18759840, Note_on_c, 0, 47, 0
2, 18759840, Note_on_c, 0, 50, 100
2, 18759960, Note_on_c, 0, 50, 0
2, 18759960, Note_on_c, 0, 48, 100
2, 18760080, Note_on_c, 0, 48, 0
2, 18760080, Note_on_c, 0, 52, 100
2, 18760200, Note_on_c, 0, 52, 0
2, 18760200, Note_on_c, 0, 50, 100
2, 18760320, Note_on_c, 0, 50, 0
2, 18760320, Note_on_c, 0, 54, 100
2, 18760440, Note_on_c, 0, 54, 0
2, 18760440, Note_on_c, 0, 52, 100
2, 18760560, Note_on_c, 0, 52, 0
2, 18760560, Note_on_c, 0, 48, 100
2, 18760800, Note_on_c, 0, 48, 0
2, 18760800, Note_on_c, 0, 50, 100
2, 18761040, Note_on_c, 0, 50, 0
2, 18761040, Note_on_c, 0, 43, 100
2, 18761280, Note_on_c, 0, 43, 0
2, 18761280, Note_on_c, 0, 55, 100
2, 19177920, Note_on_c, 0, 55, 0
2, 19177920, Note_on_c, 0, 54, 100
2, 19179840, Note_on_c, 0, 54, 0
2, 19179840, Note_on_c, 0, 52, 100
2, 19181760, Note_on_c, 0, 52, 0
2, 19181760, Note_on_c, 0, 50, 100
2, 19183680, Note_on_c, 0, 50, 0
2, 19183680, Note_on_c, 0, 48, 100
2, 19185120, Note_on_c, 0, 48, 0
2, 19185120, Note_on_c, 0, 47, 100
2, 19185600, Note_on_c, 0, 47, 0
2, 19185600, Note_on_c, 0, 48, 100
2, 19187520, Note_on_c, 0, 48, 0
2, 19187520, Note_on_c, 0, 50, 100
2, 19189440, Note_on_c, 0, 50, 0
2, 19189440, Note_on_c, 0, 43, 100
2, 19191360, Note_on_c, 0, 43, 0
2, 19191360, Note_on_c, 0, 55, 100
2, 19193760, Note_on_c, 0, 55, 0
2, 19193760, Note_on_c, 0, 54, 100
2, 19194000, Note_on_c, 0, 54, 0
2, 19194000, Note_on_c, 0, 55, 100
2, 19194240, Note_on_c, 0, 55, 0
2, 19194240, Note_on_c, 0, 54, 100
2, 19195680, Note_on_c, 0, 54, 0
2, 19195680, Note_on_c, 0, 52, 100
2, 19195920, Note_on_c, 0, 52, 0
2, 19195920, Note_on_c, 0, 54, 100
2, 19196160, Note_on_c, 0, 54, 0
2, 19196160, Note_on_c, 0, 59, 100
2, 19196640, Note_on_c, 0, 59, 0
2, 19196640, Note_on_c, 0, 52, 100
2, 19197120, Note_on_c, 0, 52, 0
2, 19197120, Note_on_c, 0, 50, 100
2, 19198560, Note_on_c, 0, 50, 0
2, 19198560, Note_on_c, 0, 49, 100
2, 19199520, Note_on_c, 0, 49, 0
2, 19199520, Note_on_c, 0, 47, 100
2, 19199760, Note_on_c, 0, 47, 0
2, 19199760, Note_on_c, 0, 49, 100
2, 19200000, Note_on_c, 0, 49, 0
2, 19200000, Note_on_c, 0, 52, 100
2, 19200480, Note_on_c, 0, 52, 0
2, 19200480, Note_on_c, 0, 42, 100
2, 19200960, Note_on_c, 0, 42, 0
2, 19200960, Note_on_c, 0, 54, 100
2, 19201920, Note_on_c, 0, 54, 0
2, 19201920, Note_on_c, 0, 43, 100
2, 19202880, Note_on_c, 0, 43, 0
2, 19202880, Note_on_c, 0, 52, 100
2, 19203840, Note_on_c, 0, 52, 0
2, 19203840, Note_on_c, 0, 45, 100
2, 19204800, Note_on_c, 0, 45, 0
2, 19204800, Note_on_c, 0, 50, 100
2, 19206720, Note_on_c, 0, 50, 0
2, 19206720, Note_on_c, 0, 55, 100
2, 19208640, Note_on_c, 0, 55, 0
2, 19208640, Note_on_c, 0, 54, 100
2, 19210560, Note_on_c, 0, 54, 0
2, 19210560, Note_on_c, 0, 52, 100
2, 19212480, Note_on_c, 0, 52, 0
2, 19212480, Note_on_c, 0, 50, 100
2, 19214400, Note_on_c, 0, 50, 0
2, 19214400, Note_on_c, 0, 48, 100
2, 19215840, Note_on_c, 0, 48, 0
2, 19215840, Note_on_c, 0, 47, 100
2, 19216320, Note_on_c, 0, 47, 0
2, 19216320, Note_on_c, 0, 48, 100
2, 19218240, Note_on_c, 0, 48, 0
2, 19218240, Note_on_c, 0, 50, 100
2, 19220160, Note_on_c, 0, 50, 0
2, 19220160, Note_on_c, 0, 43, 100
2, 19222080, Note_on_c, 0, 43, 0
2, 19222080, Note_on_c, 0, 55, 100
2, 19224480, Note_on_c, 0, 55, 0
2, 19224480, Note_on_c, 0, 54, 100
2, 19224720, Note_on_c, 0, 54, 0
2, 19224720, Note_on_c, 0, 55, 100
2, 19224960, Note_on_c, 0, 55, 0
2, 19224960, Note_on_c, 0, 54, 100
2, 19226400, Note_on_c, 0, 54, 0
2, 19226400, Note_on_c, 0, 52, 100
2, 19226640, Note_on_c, 0, 52, 0
2, 19226640, Note_on_c, 0, 54, 100
2, 19226880, Note_on_c, 0, 54, 0
2, 19226880, Note_on_c, 0, 59, 100
2, 19227360, Note_on_c, 0, 59, 0
2, 19227360, Note_on_c, 0, 52, 100
2, 19227840, Note_on_c, 0, 52, 0
2, 19227840, Note_on_c, 0, 50, 100
2, 19229280, Note_on_c, 0, 50, 0
2, 19229280, Note_on_c, 0, 49, 100
2, 19230240, Note_on_c, 0, 49, 0
2, 19230240, Note_on_c, 0, 47, 100
2, 19230480, Note_on_c, 0, 47, 0
2, 19230480, Note_on_c, 0, 49, 100
2, 19230720, Note_on_c, 0, 49, 0
2, 19230720, Note_on_c, 0, 52, 100
2, 19231200, Note_on_c, 0, 52, 0
2, 19231200, Note_on_c, 0, 42, 100
2, 19231680, Note_on_c, 0, 42, 0
2, 19231680, Note_on_c, 0, 54, 100
2, 19232640, Note_on_c, 0, 54, 0
2, 19232640, Note_on_c, 0, 43, 100
2, 19233600, Note_on_c, 0, 43, 0
2, 19233600, Note_on_c, 0, 52, 100
2, 19234560, Note_on_c, 0, 52, 0
2, 19234560, Note_on_c, 0, 45, 100
2, 19235520, Note_on_c, 0, 45, 0
2, 19235520, Note_on_c, 0, 50, 100
2, 19237440, Note_on_c, 0, 50, 0
2, 19237440, Note_on_c, 0, 62, 100
2, 19239360, Note_on_c, 0, 62, 0
2, 19239360, Note_on_c, 0, 60, 100
2, 19240800, Note_on_c, 0, 60, 0
2, 19240800, Note_on_c, 0, 59, 100
2, 19241280, Note_on_c, 0, 59, 0
2, 19241280, Note_on_c, 0, 62, 100
2, 19241760, Note_on_c, 0, 62, 0
2, 19241760, Note_on_c, 0, 67, 100
2, 19242240, Note_on_c, 0, 67, 0
2, 19242240, Note_on_c, 0, 55, 100
2, 19242720, Note_on_c, 0, 55, 0
2, 19242720, Note_on_c, 0, 60, 100
2, 19243200, Note_on_c, 0, 60, 0
2, 19243200, Note_on_c, 0, 64, 100
2, 19243680, Note_on_c, 0, 64, 0
2, 19243680, Note_on_c, 0, 60, 100
2, 19244160, Note_on_c, 0, 60, 0
2, 19244160, Note_on_c, 0, 57, 100
2, 19244640, Note_on_c, 0, 57, 0
2, 19244640, Note_on_c, 0, 59, 100
2, 19245120, Note_on_c, 0, 59, 0
2, 19245120, Note_on_c, 0, 47, 100
2, 19245600, Note_on_c, 0, 47, 0
2, 19245600, Note_on_c, 0, 59, 100
2, 19246080, Note_on_c, 0, 59, 0
2, 19246080, Note_on_c, 0, 57, 100
2, 19246560, Note_on_c, 0, 57, 0
2, 19246560, Note_on_c, 0, 55, 100
2, 19247040, Note_on_c, 0, 55, 0
2, 19247040, Note_on_c, 0, 57, 100
2, 19248960, Note_on_c, 0, 57, 0
2, 19248960, Note_on_c, 0, 59, 100
2, 19250880, Note_on_c, 0, 59, 0
2, 19250880, Note_on_c, 0, 52, 100
2, 19252800, Note_on_c, 0, 52, 0
2, 19252800, Note_on_c, 0, 50, 100
2, 19254240, Note_on_c, 0, 50, 0
2, 19254240, Note_on_c, 0, 48, 100
2, 19254720, Note_on_c, 0, 48, 0
2, 19254720, Note_on_c, 0, 60, 100
2, 19255680, Note_on_c, 0, 60, 0
2, 19255680, Note_on_c, 0, 59, 100
2, 19257120, Note_on_c, 0, 59, 0
2, 19257120, Note_on_c, 0, 57, 100
2, 19257360, Note_on_c, 0, 57, 0
2, 19257360, Note_on_c, 0, 59, 100
2, 19257600, Note_on_c, 0, 59, 0
2, 19257600, Note_on_c, 0, 64, 100
2, 19258080, Note_on_c, 0, 64, 0
2, 19258080, Note_on_c, 0, 57, 100
2, 19258560, Note_on_c, 0, 57, 0
2, 19258560, Note_on_c, 0, 55, 100
2, 19260000, Note_on_c, 0, 55, 0
2, 19260000, Note_on_c, 0, 54, 100
2, 19260480, Note_on_c, 0, 54, 0
2, 19260480, Note_on_c, 0, 55, 100
2, 19261440, Note_on_c, 0, 55, 0
2, 19261440, Note_on_c, 0, 52, 100
2, 19262400, Note_on_c, 0, 52, 0
2, 19262400, Note_on_c, 0, 50, 100
2, 19263840, Note_on_c, 0, 50, 0
2, 19263840, Note_on_c, 0, 48, 100
2, 19264320, Note_on_c, 0, 48, 0
2, 19264320, Note_on_c, 0, 49, 100
2, 19265280, Note_on_c, 0, 49, 0
2, 19265280, Note_on_c, 0, 50, 100
2, 19266240, Note_on_c, 0, 50, 0
2, 19266240, Note_on_c, 0, 43, 100
2, 19268160, Note_on_c, 0, 43, 0
2, 19268160, Note_on_c, 0, 62, 100
2, 19270080, Note_on_c, 0, 62, 0
2, 19270080, Note_on_c, 0, 60, 100
2, 19271520, Note_on_c, 0, 60, 0
2, 19271520, Note_on_c, 0, 59, 100
2, 19272000, Note_on_c, 0, 59, 0
2, 19272000, Note_on_c, 0, 62, 100
2, 19272480, Note_on_c, 0, 62, 0
2, 19272480, Note_on_c, 0, 67, 100
2, 19272960, Note_on_c, 0, 67, 0
2, 19272960, Note_on_c, 0, 55, 100
2, 19273440, Note_on_c, 0, 55, 0
2, 19273440, Note_on_c, 0, 60, 100
2, 19273920, Note_on_c, 0, 60, 0
2, 19273920, Note_on_c, 0, 64, 100
2, 19274400, Note_on_c, 0, 64, 0
2, 19274400, Note_on_c, 0, 60, 100
2, 19274880, Note_on_c, 0, 60, 0
2, 19274880, Note_on_c, 0, 57, 100
2, 19275360, Note_on_c, 0, 57, 0
2, 19275360, Note_on_c, 0, 59, 100
2, 19275840, Note_on_c, 0, 59, 0
2, 19275840, Note_on_c, 0, 47, 100
2, 19276320, Note_on_c, 0, 47, 0
2, 19276320, Note_on_c, 0, 59, 100
2, 19276800, Note_on_c, 0, 59, 0
2, 19276800, Note_on_c, 0, 57, 100
2, 19277280, Note_on_c, 0, 57, 0
2, 19277280, Note_on_c, 0, 55, 100
2, 19277760, Note_on_c, 0, 55, 0
2, 19277760, Note_on_c, 0, 57, 100
2, 19279680, Note_on_c, 0, 57, 0
2, 19279680, Note_on_c, 0, 59, 100
2, 19281600, Note_on_c, 0, 59, 0
2, 19281600, Note_on_c, 0, 52, 100
2, 19283520, Note_on_c, 0, 52, 0
2, 19283520, Note_on_c, 0, 50, 100
2, 19284960, Note_on_c, 0, 50, 0
2, 19284960, Note_on_c, 0, 48, 100
2, 19285440, Note_on_c, 0, 48, 0
2, 19285440, Note_on_c, 0, 60, 100
2, 19286400, Note_on_c, 0, 60, 0
2, 19286400, Note_on_c, 0, 59, 100
2, 19287840, Note_on_c, 0, 59, 0
2, 19287840, Note_on_c, 0, 57, 100
2, 19288080, Note_on_c, 0, 57, 0
2, 19288080, Note_on_c, 0, 59, 100
2, 19288320, Note_on_c, 0, 59, 0
2, 19288320, Note_on_c, 0, 64, 100
2, 19288800, Note_on_c, 0, 64, 0
2, 19288800, Note_on_c, 0, 57, 100
2, 19289280, Note_on_c, 0, 57, 0
2, 19289280, Note_on_c, 0, 55, 100
2, 19290720, Note_on_c, 0, 55, 0
2, 19290720, Note_on_c, 0, 54, 100
2, 19291200, Note_on_c, 0, 54, 0
2, 19291200, Note_on_c, 0, 55, 100
2, 19292160, Note_on_c, 0, 55, 0
2, 19292160, Note_on_c, 0, 52, 100
2, 19293120, Note_on_c, 0, 52, 0
2, 19293120, Note_on_c, 0, 50, 100
2, 19294560, Note_on_c, 0, 50, 0
2, 19294560, Note_on_c, 0, 48, 100
2, 19295040, Note_on_c, 0, 48, 0
2, 19295040, Note_on_c, 0, 49, 100
2, 19296000, Note_on_c, 0, 49, 0
2, 19296000, Note_on_c, 0, 50, 100
2, 19296960, Note_on_c, 0, 50, 0
2, 19296960, Note_on_c, 0, 43, 100
2, 19298880, Note_on_c, 0, 43, 0
2, 19298880, Note_on_c, 0, 38, 100
2, 19347120, Note_on_c, 0, 38, 0
2, 19347120, Note_on_c, 0, 43, 100
2, 19348560, Note_on_c, 0, 43, 0
2, 19348560, Note_on_c, 0, 64, 100
2, 19350000, Note_on_c, 0, 64, 0
2, 19350000, Note_on_c, 0, 81, 100
2, 19351440, Note_on_c, 0, 81, 0
2, 19351440, Note_on_c, 0, 59, 100
2, 19359000, Note_on_c, 0, 59, 0
2, 19359000, Note_on_c, 0, 57, 100
2, 19359120, Note_on_c, 0, 57, 0
2, 19359120, Note_on_c, 0, 55, 100
2, 19359240, Note_on_c, 0, 55, 0
2, 19359240, Note_on_c, 0, 54, 100
2, 19359360, Note_on_c, 0, 54, 0
2, 19359360, Note_on_c, 0, 52, 100
2, 19359480, Note_on_c, 0, 52, 0
2, 19359480, Note_on_c, 0, 50, 100
2, 19359600, Note_on_c, 0, 50, 0
2, 19359600, Note_on_c, 0, 48, 100
2, 19359720, Note_on_c, 0, 48, 0
2, 19359720, Note_on_c, 0, 47, 100
2, 19359840, Note_on_c, 0, 47, 0
2, 19359840, Note_on_c, 0, 45, 100
2, 19360440, Note_on_c, 0, 45, 0
2, 19360440, Note_on_c, 0, 47, 100
2, 19360560, Note_on_c, 0, 47, 0
2, 19360560, Note_on_c, 0, 48, 100
2, 19360680, Note_on_c, 0, 48, 0
2, 19360680, Note_on_c, 0, 50, 100
2, 19360800, Note_on_c, 0, 50, 0
2, 19360800, Note_on_c, 0, 52, 100
2, 19360920, Note_on_c, 0, 52, 0
2, 19360920, Note_on_c, 0, 54, 100
2, 19361040, Note_on_c, 0, 54, 0
2, 19361040, Note_on_c, 0, 55, 100
2, 19361160, Note_on_c, 0, 55, 0
2, 19361160, Note_on_c, 0, 57, 100
2, 19362000, Note_on_c, 0, 57, 0
2, 19362000, Note_on_c, 0, 54, 100
2, 19362480, Note_on_c, 0, 54, 0
2, 19362480, Note_on_c, 0, 50, 100
2, 19363440, Note_on_c, 0, 50, 0
2, 19363440, Note_on_c, 0, 47, 100
2, 19363920, Note_on_c, 0, 47, 0
2, 19363920, Note_on_c, 0, 43, 100
2, 19364640, Note_on_c, 0, 43, 0
2, 19364640, Note_on_c, 0, 47, 100
2, 19364880, Note_on_c, 0, 47, 0
2, 19364880, Note_on_c, 0, 50, 100
2, 19365120, Note_on_c, 0, 50, 0
2, 19365120, Note_on_c, 0, 53, 100
2, 19365360, Note_on_c, 0, 53, 0
2, 19365360, Note_on_c, 0, 52, 100
2, 19366080, Note_on_c, 0, 52, 0
2, 19366080, Note_on_c, 0, 55, 100
2, 19366320, Note_on_c, 0, 55, 0
2, 19366320, Note_on_c, 0, 59, 100
2, 19366560, Note_on_c, 0, 59, 0
2, 19366560, Note_on_c, 0, 62, 100
2, 19366800, Note_on_c, 0, 62, 0
2, 19366800, Note_on_c, 0, 66, 100
2, 19367040, Note_on_c, 0, 66, 0
2, 19367040, Note_on_c, 0, 55, 100
2, 19367640, Note_on_c, 0, 55, 0
2, 19367640, Note_on_c, 0, 54, 100
2, 19367760, Note_on_c, 0, 54, 0
2, 19367760, Note_on_c, 0, 52, 100
2, 19367880, Note_on_c, 0, 52, 0
2, 19367880, Note_on_c, 0, 50, 100
2, 19368000, Note_on_c, 0, 50, 0
2, 19368000, Note_on_c, 0, 48, 100
2, 19368120, Note_on_c, 0, 48, 0
2, 19368120, Note_on_c, 0, 47, 100
2, 19368240, Note_on_c, 0, 47, 0
2, 19368240, Note_on_c, 0, 45, 100
2, 19368360, Note_on_c, 0, 45, 0
2, 19368360, Note_on_c, 0, 43, 100
2, 19368480, Note_on_c, 0, 43, 0
2, 19368480, Note_on_c, 0, 45, 100
2, 19368720, Note_on_c, 0, 45, 0
2, 19368720, Note_on_c, 0, 47, 100
2, 19368840, Note_on_c, 0, 47, 0
2, 19368840, Note_on_c, 0, 48, 100
2, 19368960, Note_on_c, 0, 48, 0
2, 19368960, Note_on_c, 0, 50, 100
2, 19369080, Note_on_c, 0, 50, 0
2, 19369080, Note_on_c, 0, 52, 100
2, 19369200, Note_on_c, 0, 52, 0
2, 19369200, Note_on_c, 0, 54, 100
2, 19369320, Note_on_c, 0, 54, 0
2, 19369320, Note_on_c, 0, 55, 100
2, 19369440, Note_on_c, 0, 55, 0
2, 19369440, Note_on_c, 0, 38, 100
2, 19370160, Note_on_c, 0, 38, 0
2, 19370160, Note_on_c, 0, 43, 100
2, 19371600, Note_on_c, 0, 43, 0
2, 19371600, Note_on_c, 0, 64, 100
2, 19373040, Note_on_c, 0, 64, 0
2, 19373040, Note_on_c, 0, 81, 100
2, 19374480, Note_on_c, 0, 81, 0
2, 19374480, Note_on_c, 0, 59, 100
2, 19382040, Note_on_c, 0, 59, 0
2, 19382040, Note_on_c, 0, 57, 100
2, 19382160, Note_on_c, 0, 57, 0
2, 19382160, Note_on_c, 0, 55, 100
2, 19382280, Note_on_c, 0, 55, 0
2, 19382280, Note_on_c, 0, 54, 100
2, 19382400, Note_on_c, 0, 54, 0
2, 19382400, Note_on_c, 0, 52, 100
2, 19382520, Note_on_c, 0, 52, 0
2, 19382520, Note_on_c, 0, 50, 100
2, 19382640, Note_on_c, 0, 50, 0
2, 19382640, Note_on_c, 0, 48, 100
2, 19382760, Note_on_c, 0, 48, 0
2, 19382760, Note_on_c, 0, 47, 100
2, 19382880, Note_on_c, 0, 47, 0
2, 19382880, Note_on_c, 0, 45, 100
2, 19383480, Note_on_c, 0, 45, 0
2, 19383480, Note_on_c, 0, 47, 100
2, 19383600, Note_on_c, 0, 47, 0
2, 19383600, Note_on_c, 0, 48, 100
2, 19383720, Note_on_c, 0, 48, 0
2, 19383720, Note_on_c, 0, 50, 100
2, 19383840, Note_on_c, 0, 50, 0
2, 19383840, Note_on_c, 0, 52, 100
2, 19383960, Note_on_c, 0, 52, 0
2, 19383960, Note_on_c, 0, 54, 100
2, 19384080, Note_on_c, 0, 54, 0
2, 19384080, Note_on_c, 0, 55, 100
2, 19384200, Note_on_c, 0, 55, 0
2, 19384200, Note_on_c, 0, 57, 100
2, 19385040, Note_on_c, 0, 57, 0
2, 19385040, Note_on_c, 0, 54, 100
2, 19385520, Note_on_c, 0, 54, 0
2, 19385520, Note_on_c, 0, 50, 100
2, 19386480, Note_on_c, 0, 50, 0
2, 19386480, Note_on_c, 0, 47, 100
2, 19386960, Note_on_c, 0, 47, 0
2, 19386960, Note_on_c, 0, 43, 100
2, 19387680, Note_on_c, 0, 43, 0
2, 19387680, Note_on_c, 0, 47, 100
2, 19387920, Note_on_c, 0, 47, 0
2, 19387920, Note_on_c, 0, 50, 100
2, 19388160, Note_on_c, 0, 50, 0
2, 19388160, Note_on_c, 0, 53, 100
2, 19388400, Note_on_c, 0, 53, 0
2, 19388400, Note_on_c, 0, 52, 100
2, 19389120, Note_on_c, 0, 52, 0
2, 19389120, Note_on_c, 0, 55, 100
2, 19389360, Note_on_c, 0, 55, 0
2, 19389360, Note_on_c, 0, 59, 100
2, 19389600, Note_on_c, 0, 59, 0
2, 19389600, Note_on_c, 0, 62, 100
2, 19389840, Note_on_c, 0, 62, 0
2, 19389840, Note_on_c, 0, 66, 100
2, 19390080, Note_on_c, 0, 66, 0
2, 19390080, Note_on_c, 0, 55, 100
2, 19390680, Note_on_c, 0, 55, 0
2, 19390680, Note_on_c, 0, 54, 100
2, 19390800, Note_on_c, 0, 54, 0
2, 19390800, Note_on_c, 0, 52, 100
2, 19390920, Note_on_c, 0, 52, 0
2, 19390920, Note_on_c, 0, 50, 100
2, 19391040, Note_on_c, 0, 50, 0
2, 19391040, Note_on_c, 0, 48, 100
2, 19391160, Note_on_c, 0, 48, 0
2, 19391160, Note_on_c, 0, 47, 100
2, 19391280, Note_on_c, 0, 47, 0
2, 19391280, Note_on_c, 0, 45, 100
2, 19391400, Note_on_c, 0, 45, 0
2, 19391400, Note_on_c, 0, 43, 100
2, 19391520, Note_on_c, 0, 43, 0
2, 19391520, Note_on_c, 0, 45, 100
2, 19391760, Note_on_c, 0, 45, 0
2, 19391760, Note_on_c, 0, 47, 100
2, 19391880, Note_on_c, 0, 47, 0
2, 19391880, Note_on_c, 0, 48, 100
2, 19392000, Note_on_c, 0, 48, 0
2, 19392000, Note_on_c, 0, 50, 100
2, 19392120, Note_on_c, 0, 50, 0
2, 19392120, Note_on_c, 0, 52, 100
2, 19392240, Note_on_c, 0, 52, 0
2, 19392240, Note_on_c, 0, 54, 100
2, 19392360, Note_on_c, 0, 54, 0
2, 19392360, Note_on_c, 0, 55, 100
2, 19807680, Note_on_c, 0, 55, 0
2, 19807680, Note_on_c, 0, 71, 100
2, 19807920, Note_on_c, 0, 71, 0
2, 19807920, Note_on_c, 0, 69, 100
2, 19808160, Note_on_c, 0, 69, 0
2, 19808160, Note_on_c, 0, 54, 100
2, 19808400, Note_on_c, 0, 54, 0
2, 19808400, Note_on_c, 0, 52, 100
2, 19808640, Note_on_c, 0, 52, 0
2, 19808640, Note_on_c, 0, 67, 100
2, 19808880, Note_on_c, 0, 67, 0
2, 19808880, Note_on_c, 0, 54, 100
2, 19809120, Note_on_c, 0, 54, 0
2, 19809120, Note_on_c, 0, 69, 100
2, 19809360, Note_on_c, 0, 69, 0
2, 19809360, Note_on_c, 0, 67, 100
2, 19809600, Note_on_c, 0, 67, 0
2, 19809600, Note_on_c, 0, 52, 100
2, 19809840, Note_on_c, 0, 52, 0
2, 19809840, Note_on_c, 0, 50, 100
2, 19810080, Note_on_c, 0, 50, 0
2, 19810080, Note_on_c, 0, 66, 100
2, 19810320, Note_on_c, 0, 66, 0
2, 19810320, Note_on_c, 0, 52, 100
2, 19810560, Note_on_c, 0, 52, 0
2, 19810560, Note_on_c, 0, 67, 100
2, 19810800, Note_on_c, 0, 67, 0
2, 19810800, Note_on_c, 0, 66, 100
2, 19811040, Note_on_c, 0, 66, 0
2, 19811040, Note_on_c, 0, 55, 100
2, 19811280, Note_on_c, 0, 55, 0
2, 19811280, Note_on_c, 0, 57, 100
2, 19811520, Note_on_c, 0, 57, 0
2, 19811520, Note_on_c, 0, 64, 100
2, 19811760, Note_on_c, 0, 64, 0
2, 19811760, Note_on_c, 0, 50, 100
2, 19812000, Note_on_c, 0, 50, 0
2, 19812000, Note_on_c, 0, 66, 100
2, 19812240, Note_on_c, 0, 66, 0
2, 19812240, Note_on_c, 0, 64, 100
2, 19812480, Note_on_c, 0, 64, 0
2, 19812480, Note_on_c, 0, 55, 100
2, 19812720, Note_on_c, 0, 55, 0
2, 19812720, Note_on_c, 0, 54, 100
2, 19812960, Note_on_c, 0, 54, 0
2, 19812960, Note_on_c, 0, 60, 100
2, 19813200, Note_on_c, 0, 60, 0
2, 19813200, Note_on_c, 0, 59, 100
2, 19813440, Note_on_c, 0, 59, 0
2, 19813440, Note_on_c, 0, 60, 100
2, 19813920, Note_on_c, 0, 60, 0
2, 19813920, Note_on_c, 0, 62, 100
2, 19814400, Note_on_c, 0, 62, 0
2, 19814400, Note_on_c, 0, 60, 100
2, 19814880, Note_on_c, 0, 60, 0
2, 19814880, Note_on_c, 0, 62, 100
2, 19815360, Note_on_c, 0, 62, 0
2, 19815360, Note_on_c, 0, 64, 100
2, 19815840, Note_on_c, 0, 64, 0
2, 19815840, Note_on_c, 0, 62, 100
2, 19816320, Note_on_c, 0, 62, 0
2, 19816320, Note_on_c, 0, 64, 100
2, 19816800, Note_on_c, 0, 64, 0
2, 19816800, Note_on_c, 0, 57, 100
2, 19817280, Note_on_c, 0, 57, 0
2, 19817280, Note_on_c, 0, 59, 100
2, 19817760, Note_on_c, 0, 59, 0
2, 19817760, Note_on_c, 0, 60, 100
2, 19818240, Note_on_c, 0, 60, 0
2, 19818240, Note_on_c, 0, 62, 100
2, 19818720, Note_on_c, 0, 62, 0
2, 19818720, Note_on_c, 0, 74, 100
2, 19819200, Note_on_c, 0, 74, 0
2, 19819200, Note_on_c, 0, 50, 100
2, 19824960, Note_on_c, 0, 50, 0
2, 19824960, Note_on_c, 0, 47, 100
2, 19825440, Note_on_c, 0, 47, 0
2, 19825440, Note_on_c, 0, 45, 100
2, 19825920, Note_on_c, 0, 45, 0
2, 19825920, Note_on_c, 0, 43, 100
2, 19826400, Note_on_c, 0, 43, 0
2, 19826400, Note_on_c, 0, 45, 100
2, 19826880, Note_on_c, 0, 45, 0
2, 19826880, Note_on_c, 0, 47, 100
2, 19827360, Note_on_c, 0, 47, 0
2, 19827360, Note_on_c, 0, 45, 100
2, 19827840, Note_on_c, 0, 45, 0
2, 19827840, Note_on_c, 0, 43, 100
2, 19828320, Note_on_c, 0, 43, 0
2, 19828320, Note_on_c, 0, 45, 100
2, 19828800, Note_on_c, 0, 45, 0
2, 19828800, Note_on_c, 0, 55, 100
2, 19830720, Note_on_c, 0, 55, 0
2, 19830720, Note_on_c, 0, 71, 100
2, 19830960, Note_on_c, 0, 71, 0
2, 19830960, Note_on_c, 0, 69, 100
2, 19831200, Note_on_c, 0, 69, 0
2, 19831200, Note_on_c, 0, 54, 100
2, 19831440, Note_on_c, 0, 54, 0
2, 19831440, Note_on_c, 0, 52, 100
2, 19831680, Note_on_c, 0, 52, 0
2, 19831680, Note_on_c, 0, 67, 100
2, 19831920, Note_on_c, 0, 67, 0
2, 19831920, Note_on_c, 0, 54, 100
2, 19832160, Note_on_c, 0, 54, 0
2, 19832160, Note_on_c, 0, 69, 100
2, 19832400, Note_on_c, 0, 69, 0
2, 19832400, Note_on_c, 0, 67, 100
2, 19832640, Note_on_c, 0, 67, 0
2, 19832640, Note_on_c, 0, 52, 100
2, 19832880, Note_on_c, 0, 52, 0
2, 19832880, Note_on_c, 0, 50, 100
2, 19833120, Note_on_c, 0, 50, 0
2, 19833120, Note_on_c, 0, 66, 100
2, 19833360, Note_on_c, 0, 66, 0
2, 19833360, Note_on_c, 0, 52, 100
2, 19833600, Note_on_c, 0, 52, 0
2, 19833600, Note_on_c, 0, 67, 100
2, 19833840, Note_on_c, 0, 67, 0
2, 19833840, Note_on_c, 0, 66, 100
2, 19834080, Note_on_c, 0, 66, 0
2, 19834080, Note_on_c, 0, 55, 100
2, 19834320, Note_on_c, 0, 55, 0
2, 19834320, Note_on_c, 0, 57, 100
2, 19834560, Note_on_c, 0, 57, 0
2, 19834560, Note_on_c, 0, 64, 100
2, 19834800, Note_on_c, 0, 64, 0
2, 19834800, Note_on_c, 0, 50, 100
2, 19835040, Note_on_c, 0, 50, 0
2, 19835040, Note_on_c, 0, 66, 100
2, 19835280, Note_on_c, 0, 66, 0
2, 19835280, Note_on_c, 0, 64, 100
2, 19835520, Note_on_c, 0, 64, 0
2, 19835520, Note_on_c, 0, 55, 100
2, 19835760, Note_on_c, 0, 55, 0
2, 19835760, Note_on_c, 0, 54, 100
2, 19836000, Note_on_c, 0, 54, 0
2, 19836000, Note_on_c, 0, 60, 100
2, 19836240, Note_on_c, 0, 60, 0
2, 19836240, Note_on_c, 0, 59, 100
2, 19836480, Note_on_c, 0, 59, 0
2, 19836480, Note_on_c, 0, 60, 100
2, 19836960, Note_on_c, 0, 60, 0
2, 19836960, Note_on_c, 0, 62, 100
2, 19837440, Note_on_c, 0, 62, 0
2, 19837440, Note_on_c, 0, 60, 100
2, 19837920, Note_on_c, 0, 60, 0
2, 19837920, Note_on_c, 0, 62, 100
2, 19838400, Note_on_c, 0, 62, 0
2, 19838400, Note_on_c, 0, 64, 100
2, 19838880, Note_on_c, 0, 64, 0
2, 19838880, Note_on_c, 0, 62, 100
2, 19839360, Note_on_c, 0, 62, 0
2, 19839360, Note_on_c, 0, 64, 100
2, 19839840, Note_on_c, 0, 64, 0
2, 19839840, Note_on_c, 0, 57, 100
2, 19840320, Note_on_c, 0, 57, 0
2, 19840320, Note_on_c, 0, 59, 100
2, 19840800, Note_on_c, 0, 59, 0
2, 19840800, Note_on_c, 0, 60, 100
2, 19841280, Note_on_c, 0, 60, 0
2, 19841280, Note_on_c, 0, 62, 100
2, 19841760, Note_on_c, 0, 62, 0
2, 19841760, Note_on_c, 0, 74, 100
2, 19842240, Note_on_c, 0, 74, 0
2, 19842240, Note_on_c, 0, 50, 100
2, 19848000, Note_on_c, 0, 50, 0
2, 19848000, Note_on_c, 0, 47, 100
2, 19848480, Note_on_c, 0, 47, 0
2, 19848480, Note_on_c, 0, 45, 100
2, 19848960, Note_on_c, 0, 45, 0
2, 19848960, Note_on_c, 0, 43, 100
2, 19849440, Note_on_c, 0, 43, 0
2, 19849440, Note_on_c, 0, 45, 100
2, 19849920, Note_on_c, 0, 45, 0
2, 19849920, Note_on_c, 0, 47, 100
2, 19850400, Note_on_c, 0, 47, 0
2, 19850400, Note_on_c, 0, 45, 100
2, 19850880, Note_on_c, 0, 45, 0
2, 19850880, Note_on_c, 0, 43, 100
2, 19851360, Note_on_c, 0, 43, 0
2, 19851360, Note_on_c, 0, 45, 100
2, 19851840, Note_on_c, 0, 45, 0
2, 19851840, Note_on_c, 0, 55, 100
2, 19859520, Note_on_c, 0, 55, 0
2, 19859520, Note_on_c, 0, 57, 100
2, 19860000, Note_on_c, 0, 57, 0
2, 19860000, Note_on_c, 0, 59, 100
2, 19860480, Note_on_c, 0, 59, 0
2, 19860480, Note_on_c, 0, 60, 100
2, 19860960, Note_on_c, 0, 60, 0
2, 19860960, Note_on_c, 0, 59, 100
2, 19861440, Note_on_c, 0, 59, 0
2, 19861440, Note_on_c, 0, 60, 100
2, 19861920, Note_on_c, 0, 60, 0
2, 19861920, Note_on_c, 0, 58, 100
2, 19862400, Note_on_c, 0, 58, 0
2, 19862400, Note_on_c, 0, 59, 100
2, 19863360, Note_on_c, 0, 59, 0
2, 19863360, Note_on_c, 0, 52, 100
2, 19863840, Note_on_c, 0, 52, 0
2, 19863840, Note_on_c, 0, 64, 100
2, 19863960, Note_on_c, 0, 64, 0
2, 19863960, Note_on_c, 0, 63, 100
2, 19864080, Note_on_c, 0, 63, 0
2, 19864080, Note_on_c, 0, 64, 100
2, 19864200, Note_on_c, 0, 64, 0
2, 19864200, Note_on_c, 0, 59, 100
2, 19864320, Note_on_c, 0, 59, 0
2, 19864320, Note_on_c, 0, 55, 100
2, 19864440, Note_on_c, 0, 55, 0
2, 19864440, Note_on_c, 0, 54, 100
2, 19864560, Note_on_c, 0, 54, 0
2, 19864560, Note_on_c, 0, 55, 100
2, 19864680, Note_on_c, 0, 55, 0
2, 19864680, Note_on_c, 0, 52, 100
2, 19864800, Note_on_c, 0, 52, 0
2, 19864800, Note_on_c, 0, 55, 100
2, 19864920, Note_on_c, 0, 55, 0
2, 19864920, Note_on_c, 0, 59, 100
2, 19865040, Note_on_c, 0, 59, 0
2, 19865040, Note_on_c, 0, 62, 100
2, 19865160, Note_on_c, 0, 62, 0
2, 19865160, Note_on_c, 0, 60, 100
2, 19865280, Note_on_c, 0, 60, 0
2, 19865280, Note_on_c, 0, 59, 100
2, 19865760, Note_on_c, 0, 59, 0
2, 19865760, Note_on_c, 0, 57, 100
2, 19866240, Note_on_c, 0, 57, 0
2, 19866240, Note_on_c, 0, 59, 100
2, 19866720, Note_on_c, 0, 59, 0
2, 19866720, Note_on_c, 0, 57, 100
2, 19867200, Note_on_c, 0, 57, 0
2, 19867200, Note_on_c, 0, 55, 100
2, 19867680, Note_on_c, 0, 55, 0
2, 19867680, Note_on_c, 0, 57, 100
2, 19868160, Note_on_c, 0, 57, 0
2, 19868160, Note_on_c, 0, 76, 100
2, 19868400, Note_on_c, 0, 76, 0
2, 19868400, Note_on_c, 0, 77, 100
2, 19868640, Note_on_c, 0, 77, 0
2, 19868640, Note_on_c, 0, 78, 100
2, 19868880, Note_on_c, 0, 78, 0
2, 19868880, Note_on_c, 0, 79, 100
2, 19869120, Note_on_c, 0, 79, 0
2, 19869120, Note_on_c, 0, 57, 100
2, 19869360, Note_on_c, 0, 57, 0
2, 19869360, Note_on_c, 0, 50, 100
2, 19869600, Note_on_c, 0, 50, 0
2, 19869600, Note_on_c, 0, 78, 100
2, 19869840, Note_on_c, 0, 78, 0
2, 19869840, Note_on_c, 0, 79, 100
2, 19870080, Note_on_c, 0, 79, 0
2, 19870080, Note_on_c, 0, 80, 100
2, 19870320, Note_on_c, 0, 80, 0
2, 19870320, Note_on_c, 0, 81, 100
2, 19870560, Note_on_c, 0, 81, 0
2, 19870560, Note_on_c, 0, 62, 100
2, 19870800, Note_on_c, 0, 62, 0
2, 19870800, Note_on_c, 0, 59, 100
2, 19871040, Note_on_c, 0, 59, 0
2, 19871040, Note_on_c, 0, 43, 100
2, 19871280, Note_on_c, 0, 43, 0
2, 19871280, Note_on_c, 0, 44, 100
2, 19871520, Note_on_c, 0, 44, 0
2, 19871520, Note_on_c, 0, 45, 100
2, 19871760, Note_on_c, 0, 45, 0
2, 19871760, Note_on_c, 0, 46, 100
2, 19872000, Note_on_c, 0, 46, 0
2, 19872000, Note_on_c, 0, 47, 100
2, 19872240, Note_on_c, 0, 47, 0
2, 19872240, Note_on_c, 0, 48, 100
2, 19872480, Note_on_c, 0, 48, 0
2, 19872480, Note_on_c, 0, 50, 100
2, 19872960, Note_on_c, 0, 50, 0
2, 19872960, Note_on_c, 0, 52, 100
2, 19873440, Note_on_c, 0, 52, 0
2, 19873440, Note_on_c, 0, 54, 100
2, 19873920, Note_on_c, 0, 54, 0
2, 19873920, Note_on_c, 0, 62, 100
2, 19874040, Note_on_c, 0, 62, 0
2, 19874040, Note_on_c, 0, 60, 100
2, 19874160, Note_on_c, 0, 60, 0
2, 19874160, Note_on_c, 0, 62, 100
2, 19874280, Note_on_c, 0, 62, 0
2, 19874280, Note_on_c, 0, 59, 100
2, 19874400, Note_on_c, 0, 59, 0
2, 19874400, Note_on_c, 0, 55, 100
2, 19874520, Note_on_c, 0, 55, 0
2, 19874520, Note_on_c, 0, 54, 100
2, 19874640, Note_on_c, 0, 54, 0
2, 19874640, Note_on_c, 0, 55, 100
2, 19874760, Note_on_c, 0, 55, 0
2, 19874760, Note_on_c, 0, 50, 100
2, 19874880, Note_on_c, 0, 50, 0
2, 19874880, Note_on_c, 0, 54, 100
2, 19875000, Note_on_c, 0, 54, 0
2, 19875000, Note_on_c, 0, 57, 100
2, 19875120, Note_on_c, 0, 57, 0
2, 19875120, Note_on_c, 0, 60, 100
2, 19875240, Note_on_c, 0, 60, 0
2, 19875240, Note_on_c, 0, 59, 100
2, 19875360, Note_on_c, 0, 59, 0
2, 19875360, Note_on_c, 0, 55, 100
2, 19875480, Note_on_c, 0, 55, 0
2, 19875480, Note_on_c, 0, 54, 100
2, 19875600, Note_on_c, 0, 54, 0
2, 19875600, Note_on_c, 0, 55, 100
2, 19875720, Note_on_c, 0, 55, 0
2, 19875720, Note_on_c, 0, 50, 100
2, 19875840, Note_on_c, 0, 50, 0
2, 19875840, Note_on_c, 0, 47, 100
2, 19875960, Note_on_c, 0, 47, 0
2, 19875960, Note_on_c, 0, 45, 100
2, 19876080, Note_on_c, 0, 45, 0
2, 19876080, Note_on_c, 0, 47, 100
2, 19876200, Note_on_c, 0, 47, 0
2, 19876200, Note_on_c, 0, 43, 100
2, 19876320, Note_on_c, 0, 43, 0
2, 19876320, Note_on_c, 0, 55, 100
2, 19882560, Note_on_c, 0, 55, 0
2, 19882560, Note_on_c, 0, 57, 100
2, 19883040, Note_on_c, 0, 57, 0
2, 19883040, Note_on_c, 0, 59, 100
2, 19883520, Note_on_c, 0, 59, 0
2, 19883520, Note_on_c, 0, 60, 100
2, 19884000, Note_on_c, 0, 60, 0
2, 19884000, Note_on_c, 0, 59, 100
2, 19884480, Note_on_c, 0, 59, 0
2, 19884480, Note_on_c, 0, 60, 100
2, 19884960, Note_on_c, 0, 60, 0
2, 19884960, Note_on_c, 0, 58, 100
2, 19885440, Note_on_c, 0, 58, 0
2, 19885440, Note_on_c, 0, 59, 100
2, 19886400, Note_on_c, 0, 59, 0
2, 19886400, Note_on_c, 0, 52, 100
2, 19886880, Note_on_c, 0, 52, 0
2, 19886880, Note_on_c, 0, 64, 100
2, 19887000, Note_on_c, 0, 64, 0
2, 19887000, Note_on_c, 0, 63, 100
2, 19887120, Note_on_c, 0, 63, 0
2, 19887120, Note_on_c, 0, 64, 100
2, 19887240, Note_on_c, 0, 64, 0
2, 19887240, Note_on_c, 0, 59, 100
2, 19887360, Note_on_c, 0, 59, 0
2, 19887360, Note_on_c, 0, 55, 100
2, 19887480, Note_on_c, 0, 55, 0
2, 19887480, Note_on_c, 0, 54, 100
2, 19887600, Note_on_c, 0, 54, 0
2, 19887600, Note_on_c, 0, 55, 100
2, 19887720, Note_on_c, 0, 55, 0
2, 19887720, Note_on_c, 0, 52, 100
2, 19887840, Note_on_c, 0, 52, 0
2, 19887840, Note_on_c, 0, 55, 100
2, 19887960, Note_on_c, 0, 55, 0
2, 19887960, Note_on_c, 0, 59, 100
2, 19888080, Note_on_c, 0, 59, 0
2, 19888080, Note_on_c, 0, 62, 100
2, 19888200, Note_on_c, 0, 62, 0
2, 19888200, Note_on_c, 0, 60, 100
2, 19888320, Note_on_c, 0, 60, 0
2, 19888320, Note_on_c, 0, 59, 100
2, 19888800, Note_on_c, 0, 59, 0
2, 19888800, Note_on_c, 0, 57, 100
2, 19889280, Note_on_c, 0, 57, 0
2, 19889280, Note_on_c, 0, 59, 100
2, 19889760, Note_on_c, 0, 59, 0
2, 19889760, Note_on_c, 0, 57, 100
2, 19890240, Note_on_c, 0, 57, 0
2, 19890240, Note_on_c, 0, 55, 100
2, 19890720, Note_on_c, 0, 55, 0
2, 19890720, Note_on_c, 0, 57, 100
2, 19891200, Note_on_c, 0, 57, 0
2, 19891200, Note_on_c, 0, 76, 100
2, 19891440, Note_on_c, 0, 76, 0
2, 19891440, Note_on_c, 0, 77, 100
2, 19891680, Note_on_c, 0, 77, 0
2, 19891680, Note_on_c, 0, 78, 100
2, 19891920, Note_on_c, 0, 78, 0
2, 19891920, Note_on_c, 0, 79, 100
2, 19892160, Note_on_c, 0, 79, 0
2, 19892160, Note_on_c, 0, 57, 100
2, 19892400, Note_on_c, 0, 57, 0
2, 19892400, Note_on_c, 0, 50, 100
2, 19892640, Note_on_c, 0, 50, 0
2, 19892640, Note_on_c, 0, 78, 100
2, 19892880, Note_on_c, 0, 78, 0
2, 19892880, Note_on_c, 0, 79, 100
2, 19893120, Note_on_c, 0, 79, 0
2, 19893120, Note_on_c, 0, 80, 100
2, 19893360, Note_on_c, 0, 80, 0
2, 19893360, Note_on_c, 0, 81, 100
2, 19893600, Note_on_c, 0, 81, 0
2, 19893600, Note_on_c, 0, 62, 100
2, 19893840, Note_on_c, 0, 62, 0
2, 19893840, Note_on_c, 0, 59, 100
2, 19894080, Note_on_c, 0, 59, 0
2, 19894080, Note_on_c, 0, 43, 100
2, 19894320, Note_on_c, 0, 43, 0
2, 19894320, Note_on_c, 0, 44, 100
2, 19894560, Note_on_c, 0, 44, 0
2, 19894560, Note_on_c, 0, 45, 100
2, 19894800, Note_on_c, 0, 45, 0
2, 19894800, Note_on_c, 0, 46, 100
2, 19895040, Note_on_c, 0, 46, 0
2, 19895040, Note_on_c, 0, 47, 100
2, 19895280, Note_on_c, 0, 47, 0
2, 19895280, Note_on_c, 0, 48, 100
2, 19895520, Note_on_c, 0, 48, 0
2, 19895520, Note_on_c, 0, 50, 100
2, 19896000, Note_on_c, 0, 50, 0
2, 19896000, Note_on_c, 0, 52, 100
2, 19896480, Note_on_c, 0, 52, 0
2, 19896480, Note_on_c, 0, 54, 100
2, 19896960, Note_on_c, 0, 54, 0
2, 19896960, Note_on_c, 0, 62, 100
2, 19897080, Note_on_c, 0, 62, 0
2, 19897080, Note_on_c, 0, 60, 100
2, 19897200, Note_on_c, 0, 60, 0
2, 19897200, Note_on_c, 0, 62, 100
2, 19897320, Note_on_c, 0, 62, 0
2, 19897320, Note_on_c, 0, 59, 100
2, 19897440, Note_on_c, 0, 59, 0
2, 19897440, Note_on_c, 0, 55, 100
2, 19897560, Note_on_c, 0, 55, 0
2, 19897560, Note_on_c, 0, 54, 100
2, 19897680, Note_on_c, 0, 54, 0
2, 19897680, Note_on_c, 0, 55, 100
2, 19897800, Note_on_c, 0, 55, 0
2, 19897800, Note_on_c, 0, 50, 100
2, 19897920, Note_on_c, 0, 50, 0
2, 19897920, Note_on_c, 0, 54, 100
2, 19898040, Note_on_c, 0, 54, 0
2, 19898040, Note_on_c, 0, 57, 100
2, 19898160, Note_on_c, 0, 57, 0
2, 19898160, Note_on_c, 0, 60, 100
2, 19898280, Note_on_c, 0, 60, 0
2, 19898280, Note_on_c, 0, 59, 100
2, 19898400, Note_on_c, 0, 59, 0
2, 19898400, Note_on_c, 0, 55, 100
2, 19898520, Note_on_c, 0, 55, 0
2, 19898520, Note_on_c, 0, 54, 100
2, 19898640, Note_on_c, 0, 54, 0
2, 19898640, Note_on_c, 0, 55, 100
2, 19898760, Note_on_c, 0, 55, 0
2, 19898760, Note_on_c, 0, 50, 100
2, 19898880, Note_on_c, 0, 50, 0
2, 19898880, Note_on_c, 0, 47, 100
2, 19899000, Note_on_c, 0, 47, 0
2, 19899000, Note_on_c, 0, 45, 100
2, 19899120, Note_on_c, 0, 45, 0
2, 19899120, Note_on_c, 0, 47, 100
2, 19899240, Note_on_c, 0, 47, 0
2, 19899240, Note_on_c, 0, 43, 100
2, 19899360, Note_on_c, 0, 43, 0
2, 19899360, Note_on_c, 0, 55, 100
2, 19899840, Note_on_c, 0, 55, 0
2, 19899840, Note_on_c, 0, 43, 100
2, 19900080, Note_on_c, 0, 43, 0
2, 19900080, Note_on_c, 0, 57, 100
2, 19901040, Note_on_c, 0, 57, 0
2, 19901040, Note_on_c, 0, 54, 100
2, 19901280, Note_on_c, 0, 54, 0
2, 19901280, Note_on_c, 0, 42, 100
2, 19901520, Note_on_c, 0, 42, 0
2, 19901520, Note_on_c, 0, 64, 100
2, 19902480, Note_on_c, 0, 64, 0
2, 19902480, Note_on_c, 0, 52, 100
2, 19902720, Note_on_c, 0, 52, 0
2, 19902720, Note_on_c, 0, 40, 100
2, 19902960, Note_on_c, 0, 40, 0
2, 19902960, Note_on_c, 0, 69, 100
2, 19903200, Note_on_c, 0, 69, 0
2, 19903200, Note_on_c, 0, 67, 100
2, 19903440, Note_on_c, 0, 67, 0
2, 19903440, Note_on_c, 0, 74, 100
2, 19903680, Note_on_c, 0, 74, 0
2, 19903680, Note_on_c, 0, 73, 100
2, 19903920, Note_on_c, 0, 73, 0
2, 19903920, Note_on_c, 0, 62, 100
2, 19904280, Note_on_c, 0, 62, 0
2, 19904280, Note_on_c, 0, 57, 100
2, 19904400, Note_on_c, 0, 57, 0
2, 19904400, Note_on_c, 0, 54, 100
2, 19904520, Note_on_c, 0, 54, 0
2, 19904520, Note_on_c, 0, 50, 100
2, 19904640, Note_on_c, 0, 50, 0
2, 19904640, Note_on_c, 0, 62, 100
2, 19904800, Note_on_c, 0, 62, 0
2, 19904800, Note_on_c, 0, 52, 100
2, 19904880, Note_on_c, 0, 52, 0
2, 19904880, Note_on_c, 0, 60, 100
2, 19905040, Note_on_c, 0, 60, 0
2, 19905040, Note_on_c, 0, 50, 100
2, 19905120, Note_on_c, 0, 50, 0
2, 19905120, Note_on_c, 0, 59, 100
2, 19905280, Note_on_c, 0, 59, 0
2, 19905280, Note_on_c, 0, 48, 100
2, 19905360, Note_on_c, 0, 48, 0
2, 19905360, Note_on_c, 0, 57, 100
2, 19905520, Note_on_c, 0, 57, 0
2, 19905520, Note_on_c, 0, 47, 100
2, 19905600, Note_on_c, 0, 47, 0
2, 19905600, Note_on_c, 0, 59, 100
2, 19905840, Note_on_c, 0, 59, 0
2, 19905840, Note_on_c, 0, 78, 100
2, 19906080, Note_on_c, 0, 78, 0
2, 19906080, Note_on_c, 0, 72, 100
2, 19906320, Note_on_c, 0, 72, 0
2, 19906320, Note_on_c, 0, 78, 100
2, 19906560, Note_on_c, 0, 78, 0
2, 19906560, Note_on_c, 0, 74, 100
2, 19906800, Note_on_c, 0, 74, 0
2, 19906800, Note_on_c, 0, 48, 100
2, 19907040, Note_on_c, 0, 48, 0
2, 19907040, Note_on_c, 0, 60, 100
2, 19907280, Note_on_c, 0, 60, 0
2, 19907280, Note_on_c, 0, 71, 100
2, 19907520, Note_on_c, 0, 71, 0
2, 19907520, Note_on_c, 0, 74, 100
2, 19907760, Note_on_c, 0, 74, 0
2, 19907760, Note_on_c, 0, 65, 100
2, 19908000, Note_on_c, 0, 65, 0
2, 19908000, Note_on_c, 0, 69, 100
2, 19908240, Note_on_c, 0, 69, 0
2, 19908240, Note_on_c, 0, 50, 100
2, 19908480, Note_on_c, 0, 50, 0
2, 19908480, Note_on_c, 0, 62, 100
2, 19908720, Note_on_c, 0, 62, 0
2, 19908720, Note_on_c, 0, 73, 100
2, 19908960, Note_on_c, 0, 73, 0
2, 19908960, Note_on_c, 0, 64, 100
2, 19909200, Note_on_c, 0, 64, 0
2, 19909200, Note_on_c, 0, 73, 100
2, 19909440, Note_on_c, 0, 73, 0
2, 19909440, Note_on_c, 0, 62, 100
2, 19909680, Note_on_c, 0, 62, 0
2, 19909680, Note_on_c, 0, 55, 100
2, 19910040, Note_on_c, 0, 55, 0
2, 19910040, Note_on_c, 0, 50, 100
2, 19910160, Note_on_c, 0, 50, 0
2, 19910160, Note_on_c, 0, 47, 100
2, 19910280, Note_on_c, 0, 47, 0
2, 19910280, Note_on_c, 0, 43, 100
2, 19910400, Note_on_c, 0, 43, 0
2, 19910400, Note_on_c, 0, 55, 100
2, 19910560, Note_on_c, 0, 55, 0
2, 19910560, Note_on_c, 0, 54, 100
2, 19910640, Note_on_c, 0, 54, 0
2, 19910640, Note_on_c, 0, 62, 100
2, 19910800, Note_on_c, 0, 62, 0
2, 19910800, Note_on_c, 0, 55, 100
2, 19910880, Note_on_c, 0, 55, 0
2, 19910880, Note_on_c, 0, 64, 100
2, 19911040, Note_on_c, 0, 64, 0
2, 19911040, Note_on_c, 0, 57, 100
2, 19911120, Note_on_c, 0, 57, 0
2, 19911120, Note_on_c, 0, 66, 100
2, 19911280, Note_on_c, 0, 66, 0
2, 19911280, Note_on_c, 0, 59, 100
2, 19911360, Note_on_c, 0, 59, 0
2, 19911360, Note_on_c, 0, 62, 100
2, 19911440, Note_on_c, 0, 62, 0
2, 19911440, Note_on_c, 0, 57, 100
2, 19911760, Note_on_c, 0, 57, 0
2, 19911760, Note_on_c, 0, 59, 100
2, 19911840, Note_on_c, 0, 59, 0
2, 19911840, Note_on_c, 0, 62, 100
2, 19911920, Note_on_c, 0, 62, 0
2, 19911920, Note_on_c, 0, 60, 100
2, 19912240, Note_on_c, 0, 60, 0
2, 19912240, Note_on_c, 0, 62, 100
2, 19912320, Note_on_c, 0, 62, 0
2, 19912320, Note_on_c, 0, 67, 100
2, 19912400, Note_on_c, 0, 67, 0
2, 19912400, Note_on_c, 0, 64, 100
2, 19912720, Note_on_c, 0, 64, 0
2, 19912720, Note_on_c, 0, 66, 100
2, 19912800, Note_on_c, 0, 66, 0
2, 19912800, Note_on_c, 0, 69, 100
2, 19912880, Note_on_c, 0, 69, 0
2, 19912880, Note_on_c, 0, 64, 100
2, 19913200, Note_on_c, 0, 64, 0
2, 19913200, Note_on_c, 0, 66, 100
2, 19913280, Note_on_c, 0, 66, 0
2, 19913280, Note_on_c, 0, 69, 100
2, 19913360, Note_on_c, 0, 69, 0
2, 19913360, Note_on_c, 0, 67, 100
2, 19913680, Note_on_c, 0, 67, 0
2, 19913680, Note_on_c, 0, 69, 100
2, 19913760, Note_on_c, 0, 69, 0
2, 19913760, Note_on_c, 0, 74, 100
2, 19913840, Note_on_c, 0, 74, 0
2, 19913840, Note_on_c, 0, 69, 100
2, 19914160, Note_on_c, 0, 69, 0
2, 19914160, Note_on_c, 0, 67, 100
2, 19914240, Note_on_c, 0, 67, 0
2, 19914240, Note_on_c, 0, 71, 100
2, 19914320, Note_on_c, 0, 71, 0
2, 19914320, Note_on_c, 0, 66, 100
2, 19914640, Note_on_c, 0, 66, 0
2, 19914640, Note_on_c, 0, 64, 100
2, 19914720, Note_on_c, 0, 64, 0
2, 19914720, Note_on_c, 0, 67, 100
2, 19914800, Note_on_c, 0, 67, 0
2, 19914800, Note_on_c, 0, 62, 100
2, 19915120, Note_on_c, 0, 62, 0
2, 19915120, Note_on_c, 0, 61, 100
2, 19915200, Note_on_c, 0, 61, 0
2, 19915200, Note_on_c, 0, 64, 100
2, 19915280, Note_on_c, 0, 64, 0
2, 19915280, Note_on_c, 0, 59, 100
2, 19915600, Note_on_c, 0, 59, 0
2, 19915600, Note_on_c, 0, 57, 100
2, 19915680, Note_on_c, 0, 57, 0
2, 19915680, Note_on_c, 0, 61, 100
2, 19915760, Note_on_c, 0, 61, 0
2, 19915760, Note_on_c, 0, 59, 100
2, 19916080, Note_on_c, 0, 59, 0
2, 19916080, Note_on_c, 0, 57, 100
2, 19916160, Note_on_c, 0, 57, 0
2, 19916160, Note_on_c, 0, 61, 100
2, 19916240, Note_on_c, 0, 61, 0
2, 19916240, Note_on_c, 0, 55, 100
2, 19916560, Note_on_c, 0, 55, 0
2, 19916560, Note_on_c, 0, 54, 100
2, 19916640, Note_on_c, 0, 54, 0
2, 19916640, Note_on_c, 0, 57, 100
2, 19916720, Note_on_c, 0, 57, 0
2, 19916720, Note_on_c, 0, 52, 100
2, 19917040, Note_on_c, 0, 52, 0
2, 19917040, Note_on_c, 0, 50, 100
2, 19917120, Note_on_c, 0, 50, 0
2, 19917120, Note_on_c, 0, 54, 100
2, 19917200, Note_on_c, 0, 54, 0
2, 19917200, Note_on_c, 0, 52, 100
2, 19917520, Note_on_c, 0, 52, 0
2, 19917520, Note_on_c, 0, 50, 100
2, 19917600, Note_on_c, 0, 50, 0
2, 19917600, Note_on_c, 0, 54, 100
2, 19917680, Note_on_c, 0, 54, 0
2, 19917680, Note_on_c, 0, 48, 100
2, 19918000, Note_on_c, 0, 48, 0
2, 19918000, Note_on_c, 0, 47, 100
2, 19918080, Note_on_c, 0, 47, 0
2, 19918080, Note_on_c, 0, 50, 100
2, 19918160, Note_on_c, 0, 50, 0
2, 19918160, Note_on_c, 0, 45, 100
2, 19918480, Note_on_c, 0, 45, 0
2, 19918480, Note_on_c, 0, 43, 100
2, 19918560, Note_on_c, 0, 43, 0
2, 19918560, Note_on_c, 0, 47, 100
2, 19918640, Note_on_c, 0, 47, 0
2, 19918640, Note_on_c, 0, 45, 100
2, 19918960, Note_on_c, 0, 45, 0
2, 19918960, Note_on_c, 0, 43, 100
2, 19919040, Note_on_c, 0, 43, 0
2, 19919040, Note_on_c, 0, 47, 100
2, 19919120, Note_on_c, 0, 47, 0
2, 19919120, Note_on_c, 0, 42, 100
2, 19919440, Note_on_c, 0, 42, 0
2, 19919440, Note_on_c, 0, 40, 100
2, 19919520, Note_on_c, 0, 40, 0
2, 19919520, Note_on_c, 0, 43, 100
2, 19919600, Note_on_c, 0, 43, 0
2, 19919600, Note_on_c, 0, 38, 100
2, 19919920, Note_on_c, 0, 38, 0
2, 19919920, Note_on_c, 0, 37, 100
2, 19920000, Note_on_c, 0, 37, 0
2, 19920000, Note_on_c, 0, 49, 100
2, 19920240, Note_on_c, 0, 49, 0
2, 19920240, Note_on_c, 0, 50, 100
2, 19920480, Note_on_c, 0, 50, 0
2, 19920480, Note_on_c, 0, 42, 100
2, 19920720, Note_on_c, 0, 42, 0
2, 19920720, Note_on_c, 0, 43, 100
2, 19920960, Note_on_c, 0, 43, 0
2, 19920960, Note_on_c, 0, 45, 100
2, 19921200, Note_on_c, 0, 45, 0
2, 19921200, Note_on_c, 0, 38, 100
2, 19921440, Note_on_c, 0, 38, 0
2, 19921440, Note_on_c, 0, 50, 100
2, 19921680, Note_on_c, 0, 50, 0
2, 19921680, Note_on_c, 0, 52, 100
2, 19922160, Note_on_c, 0, 52, 0
2, 19922160, Note_on_c, 0, 38, 100
2, 19922400, Note_on_c, 0, 38, 0
2, 19922400, Note_on_c, 0, 55, 100
2, 19922880, Note_on_c, 0, 55, 0
2, 19922880, Note_on_c, 0, 43, 100
2, 19923120, Note_on_c, 0, 43, 0
2, 19923120, Note_on_c, 0, 57, 100
2, 19924080, Note_on_c, 0, 57, 0
2, 19924080, Note_on_c, 0, 54, 100
2, 19924320, Note_on_c, 0, 54, 0
2, 19924320, Note_on_c, 0, 42, 100
2, 19924560, Note_on_c, 0, 42, 0
2, 19924560, Note_on_c, 0, 64, 100
2, 19925520, Note_on_c, 0, 64, 0
2, 19925520, Note_on_c, 0, 52, 100
2, 19925760, Note_on_c, 0, 52, 0
2, 19925760, Note_on_c, 0, 40, 100
2, 19926000, Note_on_c, 0, 40, 0
2, 19926000, Note_on_c, 0, 69, 100
2, 19926240, Note_on_c, 0, 69, 0
2, 19926240, Note_on_c, 0, 67, 100
2, 19926480, Note_on_c, 0, 67, 0
2, 19926480, Note_on_c, 0, 74, 100
2, 19926720, Note_on_c, 0, 74, 0
2, 19926720, Note_on_c, 0, 73, 100
2, 19926960, Note_on_c, 0, 73, 0
2, 19926960, Note_on_c, 0, 62, 100
2, 19927320, Note_on_c, 0, 62, 0
2, 19927320, Note_on_c, 0, 57, 100
2, 19927440, Note_on_c, 0, 57, 0
2, 19927440, Note_on_c, 0, 54, 100
2, 19927560, Note_on_c, 0, 54, 0
2, 19927560, Note_on_c, 0, 50, 100
2, 19927680, Note_on_c, 0, 50, 0
2, 19927680, Note_on_c, 0, 62, 100
2, 19927840, Note_on_c, 0, 62, 0
2, 19927840, Note_on_c, 0, 52, 100
2, 19927920, Note_on_c, 0, 52, 0
2, 19927920, Note_on_c, 0, 60, 100
2, 19928080, Note_on_c, 0, 60, 0
2, 19928080, Note_on_c, 0, 50, 100
2, 19928160, Note_on_c, 0, 50, 0
2, 19928160, Note_on_c, 0, 59, 100
2, 19928320, Note_on_c, 0, 59, 0
2, 19928320, Note_on_c, 0, 48, 100
2, 19928400, Note_on_c, 0, 48, 0
2, 19928400, Note_on_c, 0, 57, 100
2, 19928560, Note_on_c, 0, 57, 0
2, 19928560, Note_on_c, 0, 47, 100
2, 19928640, Note_on_c, 0, 47, 0
2, 19928640, Note_on_c, 0, 59, 100
2, 19928880, Note_on_c, 0, 59, 0
2, 19928880, Note_on_c, 0, 78, 100
2, 19929120, Note_on_c, 0, 78, 0
2, 19929120, Note_on_c, 0, 72, 100
2, 19929360, Note_on_c, 0, 72, 0
2, 19929360, Note_on_c, 0, 78, 100
2, 19929600, Note_on_c, 0, 78, 0
2, 19929600, Note_on_c, 0, 74, 100
2, 19929840, Note_on_c, 0, 74, 0
2, 19929840, Note_on_c, 0, 48, 100
2, 19930080, Note_on_c, 0, 48, 0
2, 19930080, Note_on_c, 0, 60, 100
2, 19930320, Note_on_c, 0, 60, 0
2, 19930320, Note_on_c, 0, 71, 100
2, 19930560, Note_on_c, 0, 71, 0
2, 19930560, Note_on_c, 0, 74, 100
2, 19930800, Note_on_c, 0, 74, 0
2, 19930800, Note_on_c, 0, 65, 100
2, 19931040, Note_on_c, 0, 65, 0
2, 19931040, Note_on_c, 0, 69, 100
2, 19931280, Note_on_c, 0, 69, 0
2, 19931280, Note_on_c, 0, 50, 100
2, 19931520, Note_on_c, 0, 50, 0
2, 19931520, Note_on_c, 0, 62, 100
2, 19931760, Note_on_c, 0, 62, 0
2, 19931760, Note_on_c, 0, 73, 100
2, 19932000, Note_on_c, 0, 73, 0
2, 19932000, Note_on_c, 0, 64, 100
2, 19932240, Note_on_c, 0, 64, 0
2, 19932240, Note_on_c, 0, 73, 100
2, 19932480, Note_on_c, 0, 73, 0
2, 19932480, Note_on_c, 0, 62, 100
2, 19932720, Note_on_c, 0, 62, 0
2, 19932720, Note_on_c, 0, 55, 100
2, 19933080, Note_on_c, 0, 55, 0
2, 19933080, Note_on_c, 0, 50, 100
2, 19933200, Note_on_c, 0, 50, 0
2, 19933200, Note_on_c, 0, 47, 100
2, 19933320, Note_on_c, 0, 47, 0
2, 19933320, Note_on_c, 0, 43, 100
2, 19933440, Note_on_c, 0, 43, 0
2, 19933440, Note_on_c, 0, 55, 100
2, 19933600, Note_on_c, 0, 55, 0
2, 19933600, Note_on_c, 0, 54, 100
2, 19933680, Note_on_c, 0, 54, 0
2, 19933680, Note_on_c, 0, 62, 100
2, 19933840, Note_on_c, 0, 62, 0
2, 19933840, Note_on_c, 0, 55, 100
2, 19933920, Note_on_c, 0, 55, 0
2, 19933920, Note_on_c, 0, 64, 100
2, 19934080, Note_on_c, 0, 64, 0
2, 19934080, Note_on_c, 0, 57, 100
2, 19934160, Note_on_c, 0, 57, 0
2, 19934160, Note_on_c, 0, 66, 100
2, 19934320, Note_on_c, 0, 66, 0
2, 19934320, Note_on_c, 0, 59, 100
2, 19934400, Note_on_c, 0, 59, 0
2, 19934400, Note_on_c, 0, 62, 100
2, 19934480, Note_on_c, 0, 62, 0
2, 19934480, Note_on_c, 0, 57, 100
2, 19934800, Note_on_c, 0, 57, 0
2, 19934800, Note_on_c, 0, 59, 100
2, 19934880, Note_on_c, 0, 59, 0
2, 19934880, Note_on_c, 0, 62, 100
2, 19934960, Note_on_c, 0, 62, 0
2, 19934960, Note_on_c, 0, 60, 100
2, 19935280, Note_on_c, 0, 60, 0
2, 19935280, Note_on_c, 0, 62, 100
2, 19935360, Note_on_c, 0, 62, 0
2, 19935360, Note_on_c, 0, 67, 100
2, 19935440, Note_on_c, 0, 67, 0
2, 19935440, Note_on_c, 0, 64, 100
2, 19935760, Note_on_c, 0, 64, 0
2, 19935760, Note_on_c, 0, 66, 100
2, 19935840, Note_on_c, 0, 66, 0
2, 19935840, Note_on_c, 0, 69, 100
2, 19935920, Note_on_c, 0, 69, 0
2, 19935920, Note_on_c, 0, 64, 100
2, 19936240, Note_on_c, 0, 64, 0
2, 19936240, Note_on_c, 0, 66, 100
2, 19936320, Note_on_c, 0, 66, 0
2, 19936320, Note_on_c, 0, 69, 100
2, 19936400, Note_on_c, 0, 69, 0
2, 19936400, Note_on_c, 0, 67, 100
2, 19936720, Note_on_c, 0, 67, 0
2, 19936720, Note_on_c, 0, 69, 100
2, 19936800, Note_on_c, 0, 69, 0
2, 19936800, Note_on_c, 0, 74, 100
2, 19936880, Note_on_c, 0, 74, 0
2, 19936880, Note_on_c, 0, 69, 100
2, 19937200, Note_on_c, 0, 69, 0
2, 19937200, Note_on_c, 0, 67, 100
2, 19937280, Note_on_c, 0, 67, 0
2, 19937280, Note_on_c, 0, 71, 100
2, 19937360, Note_on_c, 0, 71, 0
2, 19937360, Note_on_c, 0, 66, 100
2, 19937680, Note_on_c, 0, 66, 0
2, 19937680, Note_on_c, 0, 64, 100
2, 19937760, Note_on_c, 0, 64, 0
2, 19937760, Note_on_c, 0, 67, 100
2, 19937840, Note_on_c, 0, 67, 0
2, 19937840, Note_on_c, 0, 62, 100
2, 19938160, Note_on_c, 0, 62, 0
2, 19938160, Note_on_c, 0, 61, 100
2, 19938240, Note_on_c, 0, 61, 0
2, 19938240, Note_on_c, 0, 64, 100
2, 19938320, Note_on_c, 0, 64, 0
2, 19938320, Note_on_c, 0, 59, 100
2, 19938640, Note_on_c, 0, 59, 0
2, 19938640, Note_on_c, 0, 57, 100
2, 19938720, Note_on_c, 0, 57, 0
2, 19938720, Note_on_c, 0, 61, 100
2, 19938800, Note_on_c, 0, 61, 0
2, 19938800, Note_on_c, 0, 59, 100
2, 19939120, Note_on_c, 0, 59, 0
2, 19939120, Note_on_c, 0, 57, 100
2, 19939200, Note_on_c, 0, 57, 0
2, 19939200, Note_on_c, 0, 61, 100
2, 19939280, Note_on_c, 0, 61, 0
2, 19939280, Note_on_c, 0, 55, 100
2, 19939600, Note_on_c, 0, 55, 0
2, 19939600, Note_on_c, 0, 54, 100
2, 19939680, Note_on_c, 0, 54, 0
2, 19939680, Note_on_c, 0, 57, 100
2, 19939760, Note_on_c, 0, 57, 0
2, 19939760, Note_on_c, 0, 52, 100
2, 19940080, Note_on_c, 0, 52, 0
2, 19940080, Note_on_c, 0, 50, 100
2, 19940160, Note_on_c, 0, 50, 0
2, 19940160, Note_on_c, 0, 54, 100
2, 19940240, Note_on_c, 0, 54, 0
2, 19940240, Note_on_c, 0, 52, 100
2, 19940560, Note_on_c, 0, 52, 0
2, 19940560, Note_on_c, 0, 50, 100
2, 19940640, Note_on_c, 0, 50, 0
2, 19940640, Note_on_c, 0, 54, 100
2, 19940720, Note_on_c, 0, 54, 0
2, 19940720, Note_on_c, 0, 48, 100
2, 19941040, Note_on_c, 0, 48, 0
2, 19941040, Note_on_c, 0, 47, 100
2, 19941120, Note_on_c, 0, 47, 0
2, 19941120, Note_on_c, 0, 50, 100
2, 19941200, Note_on_c, 0, 50, 0
2, 19941200, Note_on_c, 0, 45, 100
2, 19941520, Note_on_c, 0, 45, 0
2, 19941520, Note_on_c, 0, 43, 100
2, 19941600, Note_on_c, 0, 43, 0
2, 19941600, Note_on_c, 0, 47, 100
2, 19941680, Note_on_c, 0, 47, 0
2, 19941680, Note_on_c, 0, 45, 100
2, 19942000, Note_on_c, 0, 45, 0
2, 19942000, Note_on_c, 0, 43, 100
2, 19942080, Note_on_c, 0, 43, 0
2, 19942080, Note_on_c, 0, 47, 100
2, 19942160, Note_on_c, 0, 47, 0
2, 19942160, Note_on_c, 0, 42, 100
2, 19942480, Note_on_c, 0, 42, 0
2, 19942480, Note_on_c, 0, 40, 100
2, 19942560, Note_on_c, 0, 40, 0
2, 19942560, Note_on_c, 0, 43, 100
2, 19942640, Note_on_c, 0, 43, 0
2, 19942640, Note_on_c, 0, 38, 100
2, 19942960, Note_on_c, 0, 38, 0
2, 19942960, Note_on_c, 0, 37, 100
2, 19943040, Note_on_c, 0, 37, 0
2, 19943040, Note_on_c, 0, 49, 100
2, 19943280, Note_on_c, 0, 49, 0
2, 19943280, Note_on_c, 0, 50, 100
2, 19943520, Note_on_c, 0, 50, 0
2, 19943520, Note_on_c, 0, 42, 100
2, 19943760, Note_on_c, 0, 42, 0
2, 19943760, Note_on_c, 0, 43, 100
2, 19944000, Note_on_c, 0, 43, 0
2, 19944000, Note_on_c, 0, 45, 100
2, 19944240, Note_on_c, 0, 45, 0
2, 19944240, Note_on_c, 0, 38, 100
2, 19944480, Note_on_c, 0, 38, 0
2, 19944480, Note_on_c, 0, 50, 100
2, 19944720, Note_on_c, 0, 50, 0
2, 19944720, Note_on_c, 0, 52, 100
2, 19945200, Note_on_c, 0, 52, 0
2, 19945200, Note_on_c, 0, 38, 100
2, 19945440, Note_on_c, 0, 38, 0
2, 19945440, Note_on_c, 0, 74, 100
2, 19945920, Note_on_c, 0, 74, 0
2, 19945920, Note_on_c, 0, 78, 100
2, 19946000, Note_on_c, 0, 78, 0
2, 19946000, Note_on_c, 0, 76, 100
2, 19946320, Note_on_c, 0, 76, 0
2, 19946320, Note_on_c, 0, 74, 100
2, 19946400, Note_on_c, 0, 74, 0
2, 19946400, Note_on_c, 0, 78, 100
2, 19946480, Note_on_c, 0, 78, 0
2, 19946480, Note_on_c, 0, 72, 100
2, 19946800, Note_on_c, 0, 72, 0
2, 19946800, Note_on_c, 0, 71, 100
2, 19946880, Note_on_c, 0, 71, 0
2, 19946880, Note_on_c, 0, 74, 100
2, 19946960, Note_on_c, 0, 74, 0
2, 19946960, Note_on_c, 0, 69, 100
2, 19947280, Note_on_c, 0, 69, 0
2, 19947280, Note_on_c, 0, 67, 100
2, 19947360, Note_on_c, 0, 67, 0
2, 19947360, Note_on_c, 0, 71, 100
2, 19947440, Note_on_c, 0, 71, 0
2, 19947440, Note_on_c, 0, 69, 100
2, 19947760, Note_on_c, 0, 69, 0
2, 19947760, Note_on_c, 0, 67, 100
2, 19947840, Note_on_c, 0, 67, 0
2, 19947840, Note_on_c, 0, 71, 100
2, 19947920, Note_on_c, 0, 71, 0
2, 19947920, Note_on_c, 0, 66, 100
2, 19948240, Note_on_c, 0, 66, 0
2, 19948240, Note_on_c, 0, 64, 100
2, 19948320, Note_on_c, 0, 64, 0
2, 19948320, Note_on_c, 0, 67, 100
2, 19948400, Note_on_c, 0, 67, 0
2, 19948400, Note_on_c, 0, 62, 100
2, 19948720, Note_on_c, 0, 62, 0
2, 19948720, Note_on_c, 0, 60, 100
2, 19948800, Note_on_c, 0, 60, 0
2, 19948800, Note_on_c, 0, 64, 100
2, 19948880, Note_on_c, 0, 64, 0
2, 19948880, Note_on_c, 0, 59, 100
2, 19949200, Note_on_c, 0, 59, 0
2, 19949200, Note_on_c, 0, 57, 100
2, 19949280, Note_on_c, 0, 57, 0
2, 19949280, Note_on_c, 0, 60, 100
2, 19949360, Note_on_c, 0, 60, 0
2, 19949360, Note_on_c, 0, 55, 100
2, 19949680, Note_on_c, 0, 55, 0
2, 19949680, Note_on_c, 0, 54, 100
2, 19949760, Note_on_c, 0, 54, 0
2, 19949760, Note_on_c, 0, 57, 100
2, 19949840, Note_on_c, 0, 57, 0
2, 19949840, Note_on_c, 0, 52, 100
2, 19950160, Note_on_c, 0, 52, 0
2, 19950160, Note_on_c, 0, 51, 100
2, 19950240, Note_on_c, 0, 51, 0
2, 19950240, Note_on_c, 0, 54, 100
2, 19950320, Note_on_c, 0, 54, 0
2, 19950320, Note_on_c, 0, 49, 100
2, 19950640, Note_on_c, 0, 49, 0
2, 19950640, Note_on_c, 0, 47, 100
2, 19950720, Note_on_c, 0, 47, 0
2, 19950720, Note_on_c, 0, 51, 100
2, 19950800, Note_on_c, 0, 51, 0
2, 19950800, Note_on_c, 0, 45, 100
2, 19951120, Note_on_c, 0, 45, 0
2, 19951120, Note_on_c, 0, 43, 100
2, 19951200, Note_on_c, 0, 43, 0
2, 19951200, Note_on_c, 0, 47, 100
2, 19951280, Note_on_c, 0, 47, 0
2, 19951280, Note_on_c, 0, 42, 100
2, 19951600, Note_on_c, 0, 42, 0
2, 19951600, Note_on_c, 0, 40, 100
2, 19951680, Note_on_c, 0, 40, 0
2, 19951680, Note_on_c, 0, 52, 100
2, 19951920, Note_on_c, 0, 52, 0
2, 19951920, Note_on_c, 0, 66, 100
2, 19952160, Note_on_c, 0, 66, 0
2, 19952160, Note_on_c, 0, 75, 100
2, 19952400, Note_on_c, 0, 75, 0
2, 19952400, Note_on_c, 0, 67, 100
2, 19952640, Note_on_c, 0, 67, 0
2, 19952640, Note_on_c, 0, 75, 100
2, 19952880, Note_on_c, 0, 75, 0
2, 19952880, Note_on_c, 0, 48, 100
2, 19953120, Note_on_c, 0, 48, 0
2, 19953120, Note_on_c, 0, 60, 100
2, 19953360, Note_on_c, 0, 60, 0
2, 19953360, Note_on_c, 0, 66, 100
2, 19953600, Note_on_c, 0, 66, 0
2, 19953600, Note_on_c, 0, 75, 100
2, 19953840, Note_on_c, 0, 75, 0
2, 19953840, Note_on_c, 0, 59, 100
2, 19954080, Note_on_c, 0, 59, 0
2, 19954080, Note_on_c, 0, 75, 100
2, 19954320, Note_on_c, 0, 75, 0
2, 19954320, Note_on_c, 0, 57, 100
2, 19954560, Note_on_c, 0, 57, 0
2, 19954560, Note_on_c, 0, 51, 100
2, 19954800, Note_on_c, 0, 51, 0
2, 19954800, Note_on_c, 0, 52, 100
2, 19955040, Note_on_c, 0, 52, 0
2, 19955040, Note_on_c, 0, 57, 100
2, 19955280, Note_on_c, 0, 57, 0
2, 19955280, Note_on_c, 0, 59, 100
2, 19955520, Note_on_c, 0, 59, 0
2, 19955520, Note_on_c, 0, 47, 100
2, 19955760, Note_on_c, 0, 47, 0
2, 19955760, Note_on_c, 0, 52, 100
2, 19956000, Note_on_c, 0, 52, 0
2, 19956000, Note_on_c, 0, 66, 100
2, 19956240, Note_on_c, 0, 66, 0
2, 19956240, Note_on_c, 0, 63, 100
2, 19956480, Note_on_c, 0, 63, 0
2, 19956480, Note_on_c, 0, 71, 100
2, 19956720, Note_on_c, 0, 71, 0
2, 19956720, Note_on_c, 0, 66, 100
2, 19956960, Note_on_c, 0, 66, 0
2, 19956960, Note_on_c, 0, 63, 100
2, 19957200, Note_on_c, 0, 63, 0
2, 19957200, Note_on_c, 0, 48, 100
2, 19957440, Note_on_c, 0, 48, 0
2, 19957440, Note_on_c, 0, 59, 100
2, 19957680, Note_on_c, 0, 59, 0
2, 19957680, Note_on_c, 0, 57, 100
2, 19957920, Note_on_c, 0, 57, 0
2, 19957920, Note_on_c, 0, 56, 100
2, 19958160, Note_on_c, 0, 56, 0
2, 19958160, Note_on_c, 0, 57, 100
2, 19958400, Note_on_c, 0, 57, 0
2, 19958400, Note_on_c, 0, 48, 100
2, 19958640, Note_on_c, 0, 48, 0
2, 19958640, Note_on_c, 0, 47, 100
2, 19958880, Note_on_c, 0, 47, 0
2, 19958880, Note_on_c, 0, 57, 100
2, 19959120, Note_on_c, 0, 57, 0
2, 19959120, Note_on_c, 0, 55, 100
2, 19959360, Note_on_c, 0, 55, 0
2, 19959360, Note_on_c, 0, 54, 100
2, 19959600, Note_on_c, 0, 54, 0
2, 19959600, Note_on_c, 0, 55, 100
2, 19959840, Note_on_c, 0, 55, 0
2, 19959840, Note_on_c, 0, 47, 100
2, 19960080, Note_on_c, 0, 47, 0
2, 19960080, Note_on_c, 0, 45, 100
2, 19960320, Note_on_c, 0, 45, 0
2, 19960320, Note_on_c, 0, 57, 100
2, 19960400, Note_on_c, 0, 57, 0
2, 19960400, Note_on_c, 0, 59, 100
2, 19960720, Note_on_c, 0, 59, 0
2, 19960720, Note_on_c, 0, 57, 100
2, 19960800, Note_on_c, 0, 57, 0
2, 19960800, Note_on_c, 0, 60, 100
2, 19960880, Note_on_c, 0, 60, 0
2, 19960880, Note_on_c, 0, 55, 100
2, 19961200, Note_on_c, 0, 55, 0
2, 19961200, Note_on_c, 0, 54, 100
2, 19961280, Note_on_c, 0, 54, 0
2, 19961280, Note_on_c, 0, 57, 100
2, 19961360, Note_on_c, 0, 57, 0
2, 19961360, Note_on_c, 0, 52, 100
2, 19961680, Note_on_c, 0, 52, 0
2, 19961680, Note_on_c, 0, 50, 100
2, 19961760, Note_on_c, 0, 50, 0
2, 19961760, Note_on_c, 0, 62, 100
2, 19961840, Note_on_c, 0, 62, 0
2, 19961840, Note_on_c, 0, 64, 100
2, 19962160, Note_on_c, 0, 64, 0
2, 19962160, Note_on_c, 0, 62, 100
2, 19962240, Note_on_c, 0, 62, 0
2, 19962240, Note_on_c, 0, 66, 100
2, 19962320, Note_on_c, 0, 66, 0
2, 19962320, Note_on_c, 0, 60, 100
2, 19962640, Note_on_c, 0, 60, 0
2, 19962640, Note_on_c, 0, 59, 100
2, 19962720, Note_on_c, 0, 59, 0
2, 19962720, Note_on_c, 0, 62, 100
2, 19962800, Note_on_c, 0, 62, 0
2, 19962800, Note_on_c, 0, 57, 100
2, 19963120, Note_on_c, 0, 57, 0
2, 19963120, Note_on_c, 0, 55, 100
2, 19963200, Note_on_c, 0, 55, 0
2, 19963200, Note_on_c, 0, 67, 100
2, 19963280, Note_on_c, 0, 67, 0
2, 19963280, Note_on_c, 0, 69, 100
2, 19963600, Note_on_c, 0, 69, 0
2, 19963600, Note_on_c, 0, 67, 100
2, 19963680, Note_on_c, 0, 67, 0
2, 19963680, Note_on_c, 0, 71, 100
2, 19963760, Note_on_c, 0, 71, 0
2, 19963760, Note_on_c, 0, 65, 100
2, 19964080, Note_on_c, 0, 65, 0
2, 19964080, Note_on_c, 0, 64, 100
2, 19964160, Note_on_c, 0, 64, 0
2, 19964160, Note_on_c, 0, 67, 100
2, 19964240, Note_on_c, 0, 67, 0
2, 19964240, Note_on_c, 0, 62, 100
2, 19964560, Note_on_c, 0, 62, 0
2, 19964560, Note_on_c, 0, 60, 100
2, 19964640, Note_on_c, 0, 60, 0
2, 19964640, Note_on_c, 0, 72, 100
2, 19964720, Note_on_c, 0, 72, 0
2, 19964720, Note_on_c, 0, 74, 100
2, 19965040, Note_on_c, 0, 74, 0
2, 19965040, Note_on_c, 0, 72, 100
2, 19965120, Note_on_c, 0, 72, 0
2, 19965120, Note_on_c, 0, 76, 100
2, 19965200, Note_on_c, 0, 76, 0
2, 19965200, Note_on_c, 0, 71, 100
2, 19965520, Note_on_c, 0, 71, 0
2, 19965520, Note_on_c, 0, 69, 100
2, 19965600, Note_on_c, 0, 69, 0
2, 19965600, Note_on_c, 0, 72, 100
2, 19965680, Note_on_c, 0, 72, 0
2, 19965680, Note_on_c, 0, 67, 100
2, 19966000, Note_on_c, 0, 67, 0
2, 19966000, Note_on_c, 0, 66, 100
2, 19966080, Note_on_c, 0, 66, 0
2, 19966080, Note_on_c, 0, 57, 100
2, 19966320, Note_on_c, 0, 57, 0
2, 19966320, Note_on_c, 0, 59, 100
2, 19966560, Note_on_c, 0, 59, 0
2, 19966560, Note_on_c, 0, 60, 100
2, 19966800, Note_on_c, 0, 60, 0
2, 19966800, Note_on_c, 0, 62, 100
2, 19967040, Note_on_c, 0, 62, 0
2, 19967040, Note_on_c, 0, 50, 100
2, 19967280, Note_on_c, 0, 50, 0
2, 19967280, Note_on_c, 0, 55, 100
2, 19967520, Note_on_c, 0, 55, 0
2, 19967520, Note_on_c, 0, 43, 100
2, 19967760, Note_on_c, 0, 43, 0
2, 19967760, Note_on_c, 0, 78, 100
2, 19968000, Note_on_c, 0, 78, 0
2, 19968000, Note_on_c, 0, 72, 100
2, 19968240, Note_on_c, 0, 72, 0
2, 19968240, Note_on_c, 0, 55, 100
2, 19968480, Note_on_c, 0, 55, 0
2, 19968480, Note_on_c, 0, 74, 100
2, 19968960, Note_on_c, 0, 74, 0
2, 19968960, Note_on_c, 0, 78, 100
2, 19969040, Note_on_c, 0, 78, 0
2, 19969040, Note_on_c, 0, 76, 100
2, 19969360, Note_on_c, 0, 76, 0
2, 19969360, Note_on_c, 0, 74, 100
2, 19969440, Note_on_c, 0, 74, 0
2, 19969440, Note_on_c, 0, 78, 100
2, 19969520, Note_on_c, 0, 78, 0
2, 19969520, Note_on_c, 0, 72, 100
2, 19969840, Note_on_c, 0, 72, 0
2, 19969840, Note_on_c, 0, 71, 100
2, 19969920, Note_on_c, 0, 71, 0
2, 19969920, Note_on_c, 0, 74, 100
2, 19970000, Note_on_c, 0, 74, 0
2, 19970000, Note_on_c, 0, 69, 100
2, 19970320, Note_on_c, 0, 69, 0
2, 19970320, Note_on_c, 0, 67, 100
2, 19970400, Note_on_c, 0, 67, 0
2, 19970400, Note_on_c, 0, 71, 100
2, 19970480, Note_on_c, 0, 71, 0
2, 19970480, Note_on_c, 0, 69, 100
2, 19970800, Note_on_c, 0, 69, 0
2, 19970800, Note_on_c, 0, 67, 100
2, 19970880, Note_on_c, 0, 67, 0
2, 19970880, Note_on_c, 0, 71, 100
2, 19970960, Note_on_c, 0, 71, 0
2, 19970960, Note_on_c, 0, 66, 100
2, 19971280, Note_on_c, 0, 66, 0
2, 19971280, Note_on_c, 0, 64, 100
2, 19971360, Note_on_c, 0, 64, 0
2, 19971360, Note_on_c, 0, 67, 100
2, 19971440, Note_on_c, 0, 67, 0
2, 19971440, Note_on_c, 0, 62, 100
2, 19971760, Note_on_c, 0, 62, 0
2, 19971760, Note_on_c, 0, 60, 100
2, 19971840, Note_on_c, 0, 60, 0
2, 19971840, Note_on_c, 0, 64, 100
2, 19971920, Note_on_c, 0, 64, 0
2, 19971920, Note_on_c, 0, 59, 100
2, 19972240, Note_on_c, 0, 59, 0
2, 19972240, Note_on_c, 0, 57, 100
2, 19972320, Note_on_c, 0, 57, 0
2, 19972320, Note_on_c, 0, 60, 100
2, 19972400, Note_on_c, 0, 60, 0
2, 19972400, Note_on_c, 0, 55, 100
2, 19972720, Note_on_c, 0, 55, 0
2, 19972720, Note_on_c, 0, 54, 100
2, 19972800, Note_on_c, 0, 54, 0
2, 19972800, Note_on_c, 0, 57, 100
2, 19972880, Note_on_c, 0, 57, 0
2, 19972880, Note_on_c, 0, 52, 100
2, 19973200, Note_on_c, 0, 52, 0
2, 19973200, Note_on_c, 0, 51, 100
2, 19973280, Note_on_c, 0, 51, 0
2, 19973280, Note_on_c, 0, 54, 100
2, 19973360, Note_on_c, 0, 54, 0
2, 19973360, Note_on_c, 0, 49, 100
2, 19973680, Note_on_c, 0, 49, 0
2, 19973680, Note_on_c, 0, 47, 100
2, 19973760, Note_on_c, 0, 47, 0
2, 19973760, Note_on_c, 0, 51, 100
2, 19973840, Note_on_c, 0, 51, 0
2, 19973840, Note_on_c, 0, 45, 100
2, 19974160, Note_on_c, 0, 45, 0
2, 19974160, Note_on_c, 0, 43, 100
2, 19974240, Note_on_c, 0, 43, 0
2, 19974240, Note_on_c, 0, 47, 100
2, 19974320, Note_on_c, 0, 47, 0
2, 19974320, Note_on_c, 0, 42, 100
2, 19974640, Note_on_c, 0, 42, 0
2, 19974640, Note_on_c, 0, 40, 100
2, 19974720, Note_on_c, 0, 40, 0
2, 19974720, Note_on_c, 0, 52, 100
2, 19974960, Note_on_c, 0, 52, 0
2, 19974960, Note_on_c, 0, 66, 100
2, 19975200, Note_on_c, 0, 66, 0
2, 19975200, Note_on_c, 0, 75, 100
2, 19975440, Note_on_c, 0, 75, 0
2, 19975440, Note_on_c, 0, 67, 100
2, 19975680, Note_on_c, 0, 67, 0
2, 19975680, Note_on_c, 0, 75, 100
2, 19975920, Note_on_c, 0, 75, 0
2, 19975920, Note_on_c, 0, 48, 100
2, 19976160, Note_on_c, 0, 48, 0
2, 19976160, Note_on_c, 0, 60, 100
2, 19976400, Note_on_c, 0, 60, 0
2, 19976400, Note_on_c, 0, 66, 100
2, 19976640, Note_on_c, 0, 66, 0
2, 19976640, Note_on_c, 0, 75, 100
2, 19976880, Note_on_c, 0, 75, 0
2, 19976880, Note_on_c, 0, 59, 100
2, 19977120, Note_on_c, 0, 59, 0
2, 19977120, Note_on_c, 0, 75, 100
2, 19977360, Note_on_c, 0, 75, 0
2, 19977360, Note_on_c, 0, 57, 100
2, 19977600, Note_on_c, 0, 57, 0
2, 19977600, Note_on_c, 0, 51, 100
2, 19977840, Note_on_c, 0, 51, 0
2, 19977840, Note_on_c, 0, 52, 100
2, 19978080, Note_on_c, 0, 52, 0
2, 19978080, Note_on_c, 0, 57, 100
2, 19978320, Note_on_c, 0, 57, 0
2, 19978320, Note_on_c, 0, 59, 100
2, 19978560, Note_on_c, 0, 59, 0
2, 19978560, Note_on_c, 0, 47, 100
2, 19978800, Note_on_c, 0, 47, 0
2, 19978800, Note_on_c, 0, 52, 100
2, 19979040, Note_on_c, 0, 52, 0
2, 19979040, Note_on_c, 0, 66, 100
2, 19979280, Note_on_c, 0, 66, 0
2, 19979280, Note_on_c, 0, 63, 100
2, 19979520, Note_on_c, 0, 63, 0
2, 19979520, Note_on_c, 0, 71, 100
2, 19979760, Note_on_c, 0, 71, 0
2, 19979760, Note_on_c, 0, 66, 100
2, 19980000, Note_on_c, 0, 66, 0
2, 19980000, Note_on_c, 0, 63, 100
2, 19980240, Note_on_c, 0, 63, 0
2, 19980240, Note_on_c, 0, 48, 100
2, 19980480, Note_on_c, 0, 48, 0
2, 19980480, Note_on_c, 0, 59, 100
2, 19980720, Note_on_c, 0, 59, 0
2, 19980720, Note_on_c, 0, 57, 100
2, 19980960, Note_on_c, 0, 57, 0
2, 19980960, Note_on_c, 0, 56, 100
2, 19981200, Note_on_c, 0, 56, 0
2, 19981200, Note_on_c, 0, 57, 100
2, 19981440, Note_on_c, 0, 57, 0
2, 19981440, Note_on_c, 0, 48, 100
2, 19981680, Note_on_c, 0, 48, 0
2, 19981680, Note_on_c, 0, 47, 100
2, 19981920, Note_on_c, 0, 47, 0
2, 19981920, Note_on_c, 0, 57, 100
2, 19982160, Note_on_c, 0, 57, 0
2, 19982160, Note_on_c, 0, 55, 100
2, 19982400, Note_on_c, 0, 55, 0
2, 19982400, Note_on_c, 0, 54, 100
2, 19982640, Note_on_c, 0, 54, 0
2, 19982640, Note_on_c, 0, 55, 100
2, 19982880, Note_on_c, 0, 55, 0
2, 19982880, Note_on_c, 0, 47, 100
2, 19983120, Note_on_c, 0, 47, 0
2, 19983120, Note_on_c, 0, 45, 100
2, 19983360, Note_on_c, 0, 45, 0
2, 19983360, Note_on_c, 0, 57, 100
2, 19983440, Note_on_c, 0, 57, 0
2, 19983440, Note_on_c, 0, 59, 100
2, 19983760, Note_on_c, 0, 59, 0
2, 19983760, Note_on_c, 0, 57, 100
2, 19983840, Note_on_c, 0, 57, 0
2, 19983840, Note_on_c, 0, 60, 100
2, 19983920, Note_on_c, 0, 60, 0
2, 19983920, Note_on_c, 0, 55, 100
2, 19984240, Note_on_c, 0, 55, 0
2, 19984240, Note_on_c, 0, 54, 100
2, 19984320, Note_on_c, 0, 54, 0
2, 19984320, Note_on_c, 0, 57, 100
2, 19984400, Note_on_c, 0, 57, 0
2, 19984400, Note_on_c, 0, 52, 100
2, 19984720, Note_on_c, 0, 52, 0
2, 19984720, Note_on_c, 0, 50, 100
2, 19984800, Note_on_c, 0, 50, 0
2, 19984800, Note_on_c, 0, 62, 100
2, 19984880, Note_on_c, 0, 62, 0
2, 19984880, Note_on_c, 0, 64, 100
2, 19985200, Note_on_c, 0, 64, 0
2, 19985200, Note_on_c, 0, 62, 100
2, 19985280, Note_on_c, 0, 62, 0
2, 19985280, Note_on_c, 0, 66, 100
2, 19985360, Note_on_c, 0, 66, 0
2, 19985360, Note_on_c, 0, 60, 100
2, 19985680, Note_on_c, 0, 60, 0
2, 19985680, Note_on_c, 0, 59, 100
2, 19985760, Note_on_c, 0, 59, 0
2, 19985760, Note_on_c, 0, 62, 100
2, 19985840, Note_on_c, 0, 62, 0
2, 19985840, Note_on_c, 0, 57, 100
2, 19986160, Note_on_c, 0, 57, 0
2, 19986160, Note_on_c, 0, 55, 100
2, 19986240, Note_on_c, 0, 55, 0
2, 19986240, Note_on_c, 0, 67, 100
2, 19986320, Note_on_c, 0, 67, 0
2, 19986320, Note_on_c, 0, 69, 100
2, 19986640, Note_on_c, 0, 69, 0
2, 19986640, Note_on_c, 0, 67, 100
2, 19986720, Note_on_c, 0, 67, 0
2, 19986720, Note_on_c, 0, 71, 100
2, 19986800, Note_on_c, 0, 71, 0
2, 19986800, Note_on_c, 0, 65, 100
2, 19987120, Note_on_c, 0, 65, 0
2, 19987120, Note_on_c, 0, 64, 100
2, 19987200, Note_on_c, 0, 64, 0
2, 19987200, Note_on_c, 0, 67, 100
2, 19987280, Note_on_c, 0, 67, 0
2, 19987280, Note_on_c, 0, 62, 100
2, 19987600, Note_on_c, 0, 62, 0
2, 19987600, Note_on_c, 0, 60, 100
2, 19987680, Note_on_c, 0, 60, 0
2, 19987680, Note_on_c, 0, 72, 100
2, 19987760, Note_on_c, 0, 72, 0
2, 19987760, Note_on_c, 0, 74, 100
2, 19988080, Note_on_c, 0, 74, 0
2, 19988080, Note_on_c, 0, 72, 100
2, 19988160, Note_on_c, 0, 72, 0
2, 19988160, Note_on_c, 0, 76, 100
2, 19988240, Note_on_c, 0, 76, 0
2, 19988240, Note_on_c, 0, 71, 100
2, 19988560, Note_on_c, 0, 71, 0
2, 19988560, Note_on_c, 0, 69, 100
2, 19988640, Note_on_c, 0, 69, 0
2, 19988640, Note_on_c, 0, 72, 100
2, 19988720, Note_on_c, 0, 72, 0
2, 19988720, Note_on_c, 0, 67, 100
2, 19989040, Note_on_c, 0, 67, 0
2, 19989040, Note_on_c, 0, 66, 100
2, 19989120, Note_on_c, 0, 66, 0
2, 19989120, Note_on_c, 0, 57, 100
2, 19989360, Note_on_c, 0, 57, 0
2, 19989360, Note_on_c, 0, 59, 100
2, 19989600, Note_on_c, 0, 59, 0
2, 19989600, Note_on_c, 0, 60, 100
2, 19989840, Note_on_c, 0, 60, 0
2, 19989840, Note_on_c, 0, 62, 100
2, 19990080, Note_on_c, 0, 62, 0
2, 19990080, Note_on_c, 0, 50, 100
2, 19990320, Note_on_c, 0, 50, 0
2, 19990320, Note_on_c, 0, 55, 100
2, 19990560, Note_on_c, 0, 55, 0
2, 19990560, Note_on_c, 0, 43, 100
2, 19990800, Note_on_c, 0, 43, 0
2, 19990800, Note_on_c, 0, 78, 100
2, 19991040, Note_on_c, 0, 78, 0
2, 19991040, Note_on_c, 0, 72, 100
2, 19991280, Note_on_c, 0, 72, 0
2, 19991280, Note_on_c, 0, 55, 100
2, 19992240, Note_on_c, 0, 55, 0
2, 19992240, Note_on_c, 0, 54, 100
2, 19993200, Note_on_c, 0, 54, 0
2, 19993200, Note_on_c, 0, 52, 100
2, 19994160, Note_on_c, 0, 52, 0
2, 19994160, Note_on_c, 0, 50, 100
2, 19995120, Note_on_c, 0, 50, 0
2, 19995120, Note_on_c, 0, 48, 100
2, 19995840, Note_on_c, 0, 48, 0
2, 19995840, Note_on_c, 0, 47, 100
2, 19996080, Note_on_c, 0, 47, 0
2, 19996080, Note_on_c, 0, 48, 100
2, 19997040, Note_on_c, 0, 48, 0
2, 19997040, Note_on_c, 0, 50, 100
2, 19998000, Note_on_c, 0, 50, 0
2, 19998000, Note_on_c, 0, 43, 100
2, 19998960, Note_on_c, 0, 43, 0
2, 19998960, Note_on_c, 0, 59, 100
2, 19999680, Note_on_c, 0, 59, 0
2, 19999680, Note_on_c, 0, 57, 100
2, 19999800, Note_on_c, 0, 57, 0
2, 19999800, Note_on_c, 0, 55, 100
2, 19999920, Note_on_c, 0, 55, 0
2, 19999920, Note_on_c, 0, 54, 100
2, 20000160, Note_on_c, 0, 54, 0
2, 20000160, Note_on_c, 0, 55, 100
2, 20000280, Note_on_c, 0, 55, 0
2, 20000280, Note_on_c, 0, 52, 100
2, 20000400, Note_on_c, 0, 52, 0
2, 20000400, Note_on_c, 0, 50, 100
2, 20000640, Note_on_c, 0, 50, 0
2, 20000640, Note_on_c, 0, 52, 100
2, 20000760, Note_on_c, 0, 52, 0
2, 20000760, Note_on_c, 0, 54, 100
2, 20000880, Note_on_c, 0, 54, 0
2, 20000880, Note_on_c, 0, 59, 100
2, 20001600, Note_on_c, 0, 59, 0
2, 20001600, Note_on_c, 0, 52, 100
2, 20001840, Note_on_c, 0, 52, 0
2, 20001840, Note_on_c, 0, 54, 100
2, 20002560, Note_on_c, 0, 54, 0
2, 20002560, Note_on_c, 0, 55, 100
2, 20002680, Note_on_c, 0, 55, 0
2, 20002680, Note_on_c, 0, 57, 100
2, 20002800, Note_on_c, 0, 57, 0
2, 20002800, Note_on_c, 0, 55, 100
2, 20003400, Note_on_c, 0, 55, 0
2, 20003400, Note_on_c, 0, 54, 100
2, 20003520, Note_on_c, 0, 54, 0
2, 20003520, Note_on_c, 0, 52, 100
2, 20003640, Note_on_c, 0, 52, 0
2, 20003640, Note_on_c, 0, 54, 100
2, 20003760, Note_on_c, 0, 54, 0
2, 20003760, Note_on_c, 0, 50, 100
2, 20004240, Note_on_c, 0, 50, 0
2, 20004240, Note_on_c, 0, 55, 100
2, 20004720, Note_on_c, 0, 55, 0
2, 20004720, Note_on_c, 0, 43, 100
2, 20005200, Note_on_c, 0, 43, 0
2, 20005200, Note_on_c, 0, 45, 100
2, 20005680, Note_on_c, 0, 45, 0
2, 20005680, Note_on_c, 0, 38, 100
2, 20006640, Note_on_c, 0, 38, 0
2, 20006640, Note_on_c, 0, 55, 100
2, 20007600, Note_on_c, 0, 55, 0
2, 20007600, Note_on_c, 0, 54, 100
2, 20008560, Note_on_c, 0, 54, 0
2, 20008560, Note_on_c, 0, 52, 100
2, 20009520, Note_on_c, 0, 52, 0
2, 20009520, Note_on_c, 0, 50, 100
2, 20010480, Note_on_c, 0, 50, 0
2, 20010480, Note_on_c, 0, 48, 100
2, 20011200, Note_on_c, 0, 48, 0
2, 20011200, Note_on_c, 0, 47, 100
2, 20011440, Note_on_c, 0, 47, 0
2, 20011440, Note_on_c, 0, 48, 100
2, 20012400, Note_on_c, 0, 48, 0
2, 20012400, Note_on_c, 0, 50, 100
2, 20013360, Note_on_c, 0, 50, 0
2, 20013360, Note_on_c, 0, 43, 100
2, 20014320, Note_on_c, 0, 43, 0
2, 20014320, Note_on_c, 0, 59, 100
2, 20015040, Note_on_c, 0, 59, 0
2, 20015040, Note_on_c, 0, 57, 100
2, 20015160, Note_on_c, 0, 57, 0
2, 20015160, Note_on_c, 0, 55, 100
2, 20015280, Note_on_c, 0, 55, 0
2, 20015280, Note_on_c, 0, 54, 100
2, 20015520, Note_on_c, 0, 54, 0
2, 20015520, Note_on_c, 0, 55, 100
2, 20015640, Note_on_c, 0, 55, 0
2, 20015640, Note_on_c, 0, 52, 100
2, 20015760, Note_on_c, 0, 52, 0
2, 20015760, Note_on_c, 0, 50, 100
2, 20016000, Note_on_c, 0, 50, 0
2, 20016000, Note_on_c, 0, 52, 100
2, 20016120, Note_on_c, 0, 52, 0
2, 20016120, Note_on_c, 0, 54, 100
2, 20016240, Note_on_c, 0, 54, 0
2, 20016240, Note_on_c, 0, 59, 100
2, 20016960, Note_on_c, 0, 59, 0
2, 20016960, Note_on_c, 0, 52, 100
2, 20017200, Note_on_c, 0, 52, 0
2, 20017200, Note_on_c, 0, 54, 100
2, 20017920, Note_on_c, 0, 54, 0
2, 20017920, Note_on_c, 0, 55, 100
2, 20018040, Note_on_c, 0, 55, 0
2, 20018040, Note_on_c, 0, 57, 100
2, 20018160, Note_on_c, 0, 57, 0
2, 20018160, Note_on_c, 0, 55, 100
2, 20018760, Note_on_c, 0, 55, 0
2, 20018760, Note_on_c, 0, 54, 100
2, 20018880, Note_on_c, 0, 54, 0
2, 20018880, Note_on_c, 0, 52, 100
2, 20019000, Note_on_c, 0, 52, 0
2, 20019000, Note_on_c, 0, 54, 100
2, 20019120, Note_on_c, 0, 54, 0
2, 20019120, Note_on_c, 0, 50, 100
2, 20019600, Note_on_c, 0, 50, 0
2, 20019600, Note_on_c, 0, 55, 100
2, 20020080, Note_on_c, 0, 55, 0
2, 20020080, Note_on_c, 0, 43, 100
2, 20020560, Note_on_c, 0, 43, 0
2, 20020560, Note_on_c, 0, 45, 100
2, 20021040, Note_on_c, 0, 45, 0
2, 20021040, Note_on_c, 0, 38, 100
2, 20022000, Note_on_c, 0, 38, 0
2, 20022000, Note_on_c, 0, 62, 100
2, 20022960, Note_on_c, 0, 62, 0
2, 20022960, Note_on_c, 0, 60, 100
2, 20023440, Note_on_c, 0, 60, 0
2, 20023440, Note_on_c, 0, 59, 100
2, 20023920, Note_on_c, 0, 59, 0
2, 20023920, Note_on_c, 0, 55, 100
2, 20024400, Note_on_c, 0, 55, 0
2, 20024400, Note_on_c, 0, 60, 100
2, 20024880, Note_on_c, 0, 60, 0
2, 20024880, Note_on_c, 0, 59, 100
2, 20025120, Note_on_c, 0, 59, 0
2, 20025120, Note_on_c, 0, 60, 100
2, 20025360, Note_on_c, 0, 60, 0
2, 20025360, Note_on_c, 0, 57, 100
2, 20025600, Note_on_c, 0, 57, 0
2, 20025600, Note_on_c, 0, 59, 100
2, 20025840, Note_on_c, 0, 59, 0
2, 20025840, Note_on_c, 0, 57, 100
2, 20026560, Note_on_c, 0, 57, 0
2, 20026560, Note_on_c, 0, 55, 100
2, 20026800, Note_on_c, 0, 55, 0
2, 20026800, Note_on_c, 0, 64, 100
2, 20027040, Note_on_c, 0, 64, 0
2, 20027040, Note_on_c, 0, 55, 100
2, 20027280, Note_on_c, 0, 55, 0
2, 20027280, Note_on_c, 0, 64, 100
2, 20027520, Note_on_c, 0, 64, 0
2, 20027520, Note_on_c, 0, 57, 100
2, 20027760, Note_on_c, 0, 57, 0
2, 20027760, Note_on_c, 0, 58, 100
2, 20028480, Note_on_c, 0, 58, 0
2, 20028480, Note_on_c, 0, 59, 100
2, 20028720, Note_on_c, 0, 59, 0
2, 20028720, Note_on_c, 0, 47, 100
2, 20029200, Note_on_c, 0, 47, 0
2, 20029200, Note_on_c, 0, 52, 100
2, 20029680, Note_on_c, 0, 52, 0
2, 20029680, Note_on_c, 0, 50, 100
2, 20030400, Note_on_c, 0, 50, 0
2, 20030400, Note_on_c, 0, 48, 100
2, 20030640, Note_on_c, 0, 48, 0
2, 20030640, Note_on_c, 0, 60, 100
2, 20031120, Note_on_c, 0, 60, 0
2, 20031120, Note_on_c, 0, 59, 100
2, 20031600, Note_on_c, 0, 59, 0
2, 20031600, Note_on_c, 0, 60, 100
2, 20032320, Note_on_c, 0, 60, 0
2, 20032320, Note_on_c, 0, 59, 100
2, 20032440, Note_on_c, 0, 59, 0
2, 20032440, Note_on_c, 0, 57, 100
2, 20032560, Note_on_c, 0, 57, 0
2, 20032560, Note_on_c, 0, 59, 100
2, 20033280, Note_on_c, 0, 59, 0
2, 20033280, Note_on_c, 0, 60, 100
2, 20033400, Note_on_c, 0, 60, 0
2, 20033400, Note_on_c, 0, 62, 100
2, 20033520, Note_on_c, 0, 62, 0
2, 20033520, Note_on_c, 0, 60, 100
2, 20034240, Note_on_c, 0, 60, 0
2, 20034240, Note_on_c, 0, 62, 100
2, 20034360, Note_on_c, 0, 62, 0
2, 20034360, Note_on_c, 0, 55, 100
2, 20034480, Note_on_c, 0, 55, 0
2, 20034480, Note_on_c, 0, 57, 100
2, 20034720, Note_on_c, 0, 57, 0
2, 20034720, Note_on_c, 0, 59, 100
2, 20034960, Note_on_c, 0, 59, 0
2, 20034960, Note_on_c, 0, 55, 100
2, 20035200, Note_on_c, 0, 55, 0
2, 20035200, Note_on_c, 0, 60, 100
2, 20035440, Note_on_c, 0, 60, 0
2, 20035440, Note_on_c, 0, 61, 100
2, 20036160, Note_on_c, 0, 61, 0
2, 20036160, Note_on_c, 0, 62, 100
2, 20036400, Note_on_c, 0, 62, 0
2, 20036400, Note_on_c, 0, 50, 100
2, 20036880, Note_on_c, 0, 50, 0
2, 20036880, Note_on_c, 0, 55, 100
2, 20037360, Note_on_c, 0, 55, 0
2, 20037360, Note_on_c, 0, 43, 100
2, 20037840, Note_on_c, 0, 43, 0
2, 20037840, Note_on_c, 0, 62, 100
2, 20038320, Note_on_c, 0, 62, 0
2, 20038320, Note_on_c, 0, 60, 100
2, 20038800, Note_on_c, 0, 60, 0
2, 20038800, Note_on_c, 0, 59, 100
2, 20039280, Note_on_c, 0, 59, 0
2, 20039280, Note_on_c, 0, 55, 100
2, 20039760, Note_on_c, 0, 55, 0
2, 20039760, Note_on_c, 0, 60, 100
2, 20040240, Note_on_c, 0, 60, 0
2, 20040240, Note_on_c, 0, 59, 100
2, 20040480, Note_on_c, 0, 59, 0
2, 20040480, Note_on_c, 0, 60, 100
2, 20040720, Note_on_c, 0, 60, 0
2, 20040720, Note_on_c, 0, 57, 100
2, 20040960, Note_on_c, 0, 57, 0
2, 20040960, Note_on_c, 0, 59, 100
2, 20041200, Note_on_c, 0, 59, 0
2, 20041200, Note_on_c, 0, 57, 100
2, 20041920, Note_on_c, 0, 57, 0
2, 20041920, Note_on_c, 0, 55, 100
2, 20042160, Note_on_c, 0, 55, 0
2, 20042160, Note_on_c, 0, 64, 100
2, 20042400, Note_on_c, 0, 64, 0
2, 20042400, Note_on_c, 0, 55, 100
2, 20042640, Note_on_c, 0, 55, 0
2, 20042640, Note_on_c, 0, 64, 100
2, 20042880, Note_on_c, 0, 64, 0
2, 20042880, Note_on_c, 0, 57, 100
2, 20043120, Note_on_c, 0, 57, 0
2, 20043120, Note_on_c, 0, 58, 100
2, 20043840, Note_on_c, 0, 58, 0
2, 20043840, Note_on_c, 0, 59, 100
2, 20044080, Note_on_c, 0, 59, 0
2, 20044080, Note_on_c, 0, 47, 100
2, 20044560, Note_on_c, 0, 47, 0
2, 20044560, Note_on_c, 0, 52, 100
2, 20045040, Note_on_c, 0, 52, 0
2, 20045040, Note_on_c, 0, 50, 100
2, 20045760, Note_on_c, 0, 50, 0
2, 20045760, Note_on_c, 0, 48, 100
2, 20046000, Note_on_c, 0, 48, 0
2, 20046000, Note_on_c, 0, 60, 100
2, 20046480, Note_on_c, 0, 60, 0
2, 20046480, Note_on_c, 0, 59, 100
2, 20046960, Note_on_c, 0, 59, 0
2, 20046960, Note_on_c, 0, 60, 100
2, 20047680, Note_on_c, 0, 60, 0
2, 20047680, Note_on_c, 0, 59, 100
2, 20047800, Note_on_c, 0, 59, 0
2, 20047800, Note_on_c, 0, 57, 100
2, 20047920, Note_on_c, 0, 57, 0
2, 20047920, Note_on_c, 0, 59, 100
2, 20048640, Note_on_c, 0, 59, 0
2, 20048640, Note_on_c, 0, 60, 100
2, 20048760, Note_on_c, 0, 60, 0
2, 20048760, Note_on_c, 0, 62, 100
2, 20048880, Note_on_c, 0, 62, 0
2, 20048880, Note_on_c, 0, 60, 100
2, 20049600, Note_on_c, 0, 60, 0
2, 20049600, Note_on_c, 0, 62, 100
2, 20049720, Note_on_c, 0, 62, 0
2, 20049720, Note_on_c, 0, 55, 100
2, 20049840, Note_on_c, 0, 55, 0
2, 20049840, Note_on_c, 0, 57, 100
2, 20050080, Note_on_c, 0, 57, 0
2, 20050080, Note_on_c, 0, 59, 100
2, 20050320, Note_on_c, 0, 59, 0
2, 20050320, Note_on_c, 0, 55, 100
2, 20050560, Note_on_c, 0, 55, 0
2, 20050560, Note_on_c, 0, 60, 100
2, 20050800, Note_on_c, 0, 60, 0
2, 20050800, Note_on_c, 0, 61, 100
2, 20051520, Note_on_c, 0, 61, 0
2, 20051520, Note_on_c, 0, 62, 100
2, 20051760, Note_on_c, 0, 62, 0
2, 20051760, Note_on_c, 0, 50, 100
2, 20052240, Note_on_c, 0, 50, 0
2, 20052240, Note_on_c, 0, 55, 100
2, 20052720, Note_on_c, 0, 55, 0
2, 20052720, Note_on_c, 0, 43, 100
2, 20053200, Note_on_c, 0, 43, 0
2, 20053200, Note_on_c, 0, 55, 100
2, 20053680, Note_on_c, 0, 55, 0
2, 20053680, Note_on_c, 0, 54, 100
2, 20055120, Note_on_c, 0, 54, 0
2, 20055120, Note_on_c, 0, 52, 100
2, 20056560, Note_on_c, 0, 52, 0
2, 20056560, Note_on_c, 0, 50, 100
2, 20058000, Note_on_c, 0, 50, 0
2, 20058000, Note_on_c, 0, 48, 100
2, 20059200, Note_on_c, 0, 48, 0
2, 20059200, Note_on_c, 0, 47, 100
2, 20059440, Note_on_c, 0, 47, 0
2, 20059440, Note_on_c, 0, 48, 100
2, 20060880, Note_on_c, 0, 48, 0
2, 20060880, Note_on_c, 0, 50, 100
2, 20062080, Note_on_c, 0, 50, 0
2, 20062080, Note_on_c, 0, 52, 100
2, 20062320, Note_on_c, 0, 52, 0
2, 20062320, Note_on_c, 0, 48, 100
2, 20062560, Note_on_c, 0, 48, 0
2, 20062560, Note_on_c, 0, 50, 100
2, 20062800, Note_on_c, 0, 50, 0
2, 20062800, Note_on_c, 0, 43, 100
2, 20063760, Note_on_c, 0, 43, 0
2, 20063760, Note_on_c, 0, 50, 100
2, 20064480, Note_on_c, 0, 50, 0
2, 20064480, Note_on_c, 0, 52, 100
2, 20064720, Note_on_c, 0, 52, 0
2, 20064720, Note_on_c, 0, 50, 100
2, 20064750, Note_on_c, 0, 50, 0
2, 20064750, Note_on_c, 0, 52, 100
2, 20064780, Note_on_c, 0, 52, 0
2, 20064780, Note_on_c, 0, 54, 100
2, 20065080, Note_on_c, 0, 54, 0
2, 20065080, Note_on_c, 0, 55, 100
2, 20067120, Note_on_c, 0, 55, 0
2, 20067120, Note_on_c, 0, 54, 100
2, 20067160, Note_on_c, 0, 54, 0
2, 20067160, Note_on_c, 0, 55, 100
2, 20067200, Note_on_c, 0, 55, 0
2, 20067200, Note_on_c, 0, 54, 100
2, 20067240, Note_on_c, 0, 54, 0
2, 20067240, Note_on_c, 0, 52, 100
2, 20067360, Note_on_c, 0, 52, 0
2, 20067360, Note_on_c, 0, 54, 100
2, 20067600, Note_on_c, 0, 54, 0
2, 20067600, Note_on_c, 0, 59, 100
2, 20067840, Note_on_c, 0, 59, 0
2, 20067840, Note_on_c, 0, 52, 100
2, 20068800, Note_on_c, 0, 52, 0
2, 20068800, Note_on_c, 0, 54, 100
2, 20069040, Note_on_c, 0, 54, 0
2, 20069040, Note_on_c, 0, 55, 100
2, 20069280, Note_on_c, 0, 55, 0
2, 20069280, Note_on_c, 0, 57, 100
2, 20069520, Note_on_c, 0, 57, 0
2, 20069520, Note_on_c, 0, 59, 100
2, 20070240, Note_on_c, 0, 59, 0
2, 20070240, Note_on_c, 0, 57, 100
2, 20070480, Note_on_c, 0, 57, 0
2, 20070480, Note_on_c, 0, 55, 100
2, 20070720, Note_on_c, 0, 55, 0
2, 20070720, Note_on_c, 0, 54, 100
2, 20070960, Note_on_c, 0, 54, 0
2, 20070960, Note_on_c, 0, 55, 100
2, 20072400, Note_on_c, 0, 55, 0
2, 20072400, Note_on_c, 0, 57, 100
2, 20073840, Note_on_c, 0, 57, 0
2, 20073840, Note_on_c, 0, 50, 100
2, 20075280, Note_on_c, 0, 50, 0
2, 20075280, Note_on_c, 0, 55, 100
2, 20076720, Note_on_c, 0, 55, 0
2, 20076720, Note_on_c, 0, 54, 100
2, 20078160, Note_on_c, 0, 54, 0
2, 20078160, Note_on_c, 0, 52, 100
2, 20079600, Note_on_c, 0, 52, 0
2, 20079600, Note_on_c, 0, 50, 100
2, 20081040, Note_on_c, 0, 50, 0
2, 20081040, Note_on_c, 0, 48, 100
2, 20082240, Note_on_c, 0, 48, 0
2, 20082240, Note_on_c, 0, 47, 100
2, 20082480, Note_on_c, 0, 47, 0
2, 20082480, Note_on_c, 0, 48, 100
2, 20083920, Note_on_c, 0, 48, 0
2, 20083920, Note_on_c, 0, 50, 100
2, 20085120, Note_on_c, 0, 50, 0
2, 20085120, Note_on_c, 0, 52, 100
2, 20085360, Note_on_c, 0, 52, 0
2, 20085360, Note_on_c, 0, 48, 100
2, 20085600, Note_on_c, 0, 48, 0
2, 20085600, Note_on_c, 0, 50, 100
2, 20085840, Note_on_c, 0, 50, 0
2, 20085840, Note_on_c, 0, 43, 100
2, 20086800, Note_on_c, 0, 43, 0
2, 20086800, Note_on_c, 0, 50, 100
2, 20087520, Note_on_c, 0, 50, 0
2, 20087520, Note_on_c, 0, 52, 100
2, 20087760, Note_on_c, 0, 52, 0
2, 20087760, Note_on_c, 0, 50, 100
2, 20087790, Note_on_c, 0, 50, 0
2, 20087790, Note_on_c, 0, 52, 100
2, 20087820, Note_on_c, 0, 52, 0
2, 20087820, Note_on_c, 0, 54, 100
2, 20088120, Note_on_c, 0, 54, 0
2, 20088120, Note_on_c, 0, 55, 100
2, 20090160, Note_on_c, 0, 55, 0
2, 20090160, Note_on_c, 0, 54, 100
2, 20090200, Note_on_c, 0, 54, 0
2, 20090200, Note_on_c, 0, 55, 100
2, 20090240, Note_on_c, 0, 55, 0
2, 20090240, Note_on_c, 0, 54, 100
2, 20090280, Note_on_c, 0, 54, 0
2, 20090280, Note_on_c, 0, 52, 100
2, 20090400, Note_on_c, 0, 52, 0
2, 20090400, Note_on_c, 0, 54, 100
2, 20090640, Note_on_c, 0, 54, 0
2, 20090640, Note_on_c, 0, 59, 100
2, 20090880, Note_on_c, 0, 59, 0
2, 20090880, Note_on_c, 0, 52, 100
2, 20091840, Note_on_c, 0, 52, 0
2, 20091840, Note_on_c, 0, 54, 100
2, 20092080, Note_on_c, 0, 54, 0
2, 20092080, Note_on_c, 0, 55, 100
2, 20092320, Note_on_c, 0, 55, 0
2, 20092320, Note_on_c, 0, 57, 100
2, 20092560, Note_on_c, 0, 57, 0
2, 20092560, Note_on_c, 0, 59, 100
2, 20093280, Note_on_c, 0, 59, 0
2, 20093280, Note_on_c, 0, 57, 100
2, 20093520, Note_on_c, 0, 57, 0
2, 20093520, Note_on_c, 0, 55, 100
2, 20093760, Note_on_c, 0, 55, 0
2, 20093760, Note_on_c, 0, 54, 100
2, 20094000, Note_on_c, 0, 54, 0
2, 20094000, Note_on_c, 0, 55, 100
2, 20095440, Note_on_c, 0, 55, 0
2, 20095440, Note_on_c, 0, 57, 100
2, 20096880, Note_on_c, 0, 57, 0
2, 20096880, Note_on_c, 0, 50, 100
2, 20098320, Note_on_c, 0, 50, 0
2, 20098320, Note_on_c, 0, 66, 100
2, 20108400, Note_on_c, 0, 66, 0
2, 20108400, Note_on_c, 0, 72, 100
2, 20109120, Note_on_c, 0, 72, 0
2, 20109120, Note_on_c, 0, 71, 100
2, 20109360, Note_on_c, 0, 71, 0
2, 20109360, Note_on_c, 0, 69, 100
2, 20109600, Note_on_c, 0, 69, 0
2, 20109600, Note_on_c, 0, 67, 100
2, 20110320, Note_on_c, 0, 67, 0
2, 20110320, Note_on_c, 0, 57, 100
2, 20112240, Note_on_c, 0, 57, 0
2, 20112240, Note_on_c, 0, 54, 100
2, 20112960, Note_on_c, 0, 54, 0
2, 20112960, Note_on_c, 0, 52, 100
2, 20113200, Note_on_c, 0, 52, 0
2, 20113200, Note_on_c, 0, 50, 100
2, 20113320, Note_on_c, 0, 50, 0
2, 20113320, Note_on_c, 0, 52, 100
2, 20113440, Note_on_c, 0, 52, 0
2, 20113440, Note_on_c, 0, 54, 100
2, 20113560, Note_on_c, 0, 54, 0
2, 20113560, Note_on_c, 0, 55, 100
2, 20113680, Note_on_c, 0, 55, 0
2, 20113680, Note_on_c, 0, 54, 100
2, 20113800, Note_on_c, 0, 54, 0
2, 20113800, Note_on_c, 0, 55, 100
2, 20113920, Note_on_c, 0, 55, 0
2, 20113920, Note_on_c, 0, 52, 100
2, 20114400, Note_on_c, 0, 52, 0
2, 20114400, Note_on_c, 0, 57, 100
2, 20114640, Note_on_c, 0, 57, 0
2, 20114640, Note_on_c, 0, 64, 100
2, 20114880, Note_on_c, 0, 64, 0
2, 20114880, Note_on_c, 0, 71, 100
2, 20115240, Note_on_c, 0, 71, 0
2, 20115240, Note_on_c, 0, 69, 100
2, 20115360, Note_on_c, 0, 69, 0
2, 20115360, Note_on_c, 0, 67, 100
2, 20115480, Note_on_c, 0, 67, 0
2, 20115480, Note_on_c, 0, 66, 100
2, 20116320, Note_on_c, 0, 66, 0
2, 20116320, Note_on_c, 0, 67, 100
2, 20117040, Note_on_c, 0, 67, 0
2, 20117040, Note_on_c, 0, 62, 100
2, 20117760, Note_on_c, 0, 62, 0
2, 20117760, Note_on_c, 0, 67, 100
2, 20119200, Note_on_c, 0, 67, 0
2, 20119200, Note_on_c, 0, 72, 100
2, 20119560, Note_on_c, 0, 72, 0
2, 20119560, Note_on_c, 0, 60, 100
2, 20121480, Note_on_c, 0, 60, 0
2, 20121480, Note_on_c, 0, 59, 100
2, 20121600, Note_on_c, 0, 59, 0
2, 20121600, Note_on_c, 0, 57, 100
2, 20121720, Note_on_c, 0, 57, 0
2, 20121720, Note_on_c, 0, 59, 100
2, 20121840, Note_on_c, 0, 59, 0
2, 20121840, Note_on_c, 0, 66, 100
2, 20131440, Note_on_c, 0, 66, 0
2, 20131440, Note_on_c, 0, 72, 100
2, 20132160, Note_on_c, 0, 72, 0
2, 20132160, Note_on_c, 0, 71, 100
2, 20132400, Note_on_c, 0, 71, 0
2, 20132400, Note_on_c, 0, 69, 100
2, 20132640, Note_on_c, 0, 69, 0
2, 20132640, Note_on_c, 0, 67, 100
2, 20133360, Note_on_c, 0, 67, 0
2, 20133360, Note_on_c, 0, 57, 100
2, 20135280, Note_on_c, 0, 57, 0
2, 20135280, Note_on_c, 0, 54, 100
2, 20136000, Note_on_c, 0, 54, 0
2, 20136000, Note_on_c, 0, 52, 100
2, 20136240, Note_on_c, 0, 52, 0
2, 20136240, Note_on_c, 0, 50, 100
2, 20136360, Note_on_c, 0, 50, 0
2, 20136360, Note_on_c, 0, 52, 100
2, 20136480, Note_on_c, 0, 52, 0
2, 20136480, Note_on_c, 0, 54, 100
2, 20136600, Note_on_c, 0, 54, 0
2, 20136600, Note_on_c, 0, 55, 100
2, 20136720, Note_on_c, 0, 55, 0
2, 20136720, Note_on_c, 0, 54, 100
2, 20136840, Note_on_c, 0, 54, 0
2, 20136840, Note_on_c, 0, 55, 100
2, 20136960, Note_on_c, 0, 55, 0
2, 20136960, Note_on_c, 0, 52, 100
2, 20137440, Note_on_c, 0, 52, 0
2, 20137440, Note_on_c, 0, 57, 100
2, 20137680, Note_on_c, 0, 57, 0
2, 20137680, Note_on_c, 0, 64, 100
2, 20137920, Note_on_c, 0, 64, 0
2, 20137920, Note_on_c, 0, 71, 100
2, 20138280, Note_on_c, 0, 71, 0
2, 20138280, Note_on_c, 0, 69, 100
2, 20138400, Note_on_c, 0, 69, 0
2, 20138400, Note_on_c, 0, 67, 100
2, 20138520, Note_on_c, 0, 67, 0
2, 20138520, Note_on_c, 0, 66, 100
2, 20139360, Note_on_c, 0, 66, 0
2, 20139360, Note_on_c, 0, 67, 100
2, 20140080, Note_on_c, 0, 67, 0
2, 20140080, Note_on_c, 0, 62, 100
2, 20140800, Note_on_c, 0, 62, 0
2, 20140800, Note_on_c, 0, 67, 100
2, 20142240, Note_on_c, 0, 67, 0
2, 20142240, Note_on_c, 0, 72, 100
2, 20142600, Note_on_c, 0, 72, 0
2, 20142600, Note_on_c, 0, 60, 100
2, 20144520, Note_on_c, 0, 60, 0
2, 20144520, Note_on_c, 0, 59, 100
2, 20144640, Note_on_c, 0, 59, 0
2, 20144640, Note_on_c, 0, 57, 100
2, 20144760, Note_on_c, 0, 57, 0
2, 20144760, Note_on_c, 0, 59, 100
2, 20144880, Note_on_c, 0, 59, 0
2, 20144880, Note_on_c, 0, 55, 100
2, 20187600, Note_on_c, 0, 55, 0
2, 20187600, Note_on_c, 0, 54, 100
2, 20188080, Note_on_c, 0, 54, 0
2, 20188080, Note_on_c, 0, 52, 100
2, 20188560, Note_on_c, 0, 52, 0
2, 20188560, Note_on_c, 0, 50, 100
2, 20189040, Note_on_c, 0, 50, 0
2, 20189040, Note_on_c, 0, 47, 100
2, 20189520, Note_on_c, 0, 47, 0
2, 20189520, Note_on_c, 0, 48, 100
2, 20190000, Note_on_c, 0, 48, 0
2, 20190000, Note_on_c, 0, 50, 100
2, 20190480, Note_on_c, 0, 50, 0
2, 20190480, Note_on_c, 0, 43, 100
2, 20190960, Note_on_c, 0, 43, 0
2, 20190960, Note_on_c, 0, 55, 100
2, 20191440, Note_on_c, 0, 55, 0
2, 20191440, Note_on_c, 0, 54, 100
2, 20191920, Note_on_c, 0, 54, 0
2, 20191920, Note_on_c, 0, 52, 100
2, 20192400, Note_on_c, 0, 52, 0
2, 20192400, Note_on_c, 0, 50, 100
2, 20192880, Note_on_c, 0, 50, 0
2, 20192880, Note_on_c, 0, 47, 100
2, 20193360, Note_on_c, 0, 47, 0
2, 20193360, Note_on_c, 0, 48, 100
2, 20193840, Note_on_c, 0, 48, 0
2, 20193840, Note_on_c, 0, 50, 100
2, 20194320, Note_on_c, 0, 50, 0
2, 20194320, Note_on_c, 0, 43, 100
2, 20194800, Note_on_c, 0, 43, 0
2, 20194800, Note_on_c, 0, 55, 100
2, 20195280, Note_on_c, 0, 55, 0
2, 20195280, Note_on_c, 0, 54, 100
2, 20195760, Note_on_c, 0, 54, 0
2, 20195760, Note_on_c, 0, 52, 100
2, 20196240, Note_on_c, 0, 52, 0
2, 20196240, Note_on_c, 0, 50, 100
2, 20196720, Note_on_c, 0, 50, 0
2, 20196720, Note_on_c, 0, 47, 100
2, 20197200, Note_on_c, 0, 47, 0
2, 20197200, Note_on_c, 0, 48, 100
2, 20197680, Note_on_c, 0, 48, 0
2, 20197680, Note_on_c, 0, 50, 100
2, 20198160, Note_on_c, 0, 50, 0
2, 20198160, Note_on_c, 0, 43, 100
2, 20198640, Note_on_c, 0, 43, 0
2, 20198640, Note_on_c, 0, 50, 100
2, 20251920, Note_on_c, 0, 50, 0
2, 20251920, Note_on_c, 0, 52, 100
2, 20252400, Note_on_c, 0, 52, 0
2, 20252400, Note_on_c, 0, 54, 100
2, 20252880, Note_on_c, 0, 54, 0
2, 20252880, Note_on_c, 0, 55, 100
2, 20253360, Note_on_c, 0, 55, 0
2, 20253360, Note_on_c, 0, 59, 100
2, 20253840, Note_on_c, 0, 59, 0
2, 20253840, Note_on_c, 0, 57, 100
2, 20254320, Note_on_c, 0, 57, 0
2, 20254320, Note_on_c, 0, 55, 100
2, 20254800, Note_on_c, 0, 55, 0
2, 20254800, Note_on_c, 0, 62, 100
2, 20255280, Note_on_c, 0, 62, 0
2, 20255280, Note_on_c, 0, 50, 100
2, 20255760, Note_on_c, 0, 50, 0
2, 20255760, Note_on_c, 0, 52, 100
2, 20256240, Note_on_c, 0, 52, 0
2, 20256240, Note_on_c, 0, 54, 100
2, 20256720, Note_on_c, 0, 54, 0
2, 20256720, Note_on_c, 0, 55, 100
2, 20257200, Note_on_c, 0, 55, 0
2, 20257200, Note_on_c, 0, 59, 100
2, 20257680, Note_on_c, 0, 59, 0
2, 20257680, Note_on_c, 0, 57, 100
2, 20258160, Note_on_c, 0, 57, 0
2, 20258160, Note_on_c, 0, 55, 100
2, 20258640, Note_on_c, 0, 55, 0
2, 20258640, Note_on_c, 0, 62, 100
2, 20259120, Note_on_c, 0, 62, 0
2, 20259120, Note_on_c, 0, 50, 100
2, 20259600, Note_on_c, 0, 50, 0
2, 20259600, Note_on_c, 0, 52, 100
2, 20260080, Note_on_c, 0, 52, 0
2, 20260080, Note_on_c, 0, 54, 100
2, 20260560, Note_on_c, 0, 54, 0
2, 20260560, Note_on_c, 0, 55, 100
2, 20296080, Note_on_c, 0, 55, 0
2, 20296080, Note_on_c, 0, 54, 100
2, 20296560, Note_on_c, 0, 54, 0
2, 20296560, Note_on_c, 0, 52, 100
2, 20297040, Note_on_c, 0, 52, 0
2, 20297040, Note_on_c, 0, 50, 100
2, 20297520, Note_on_c, 0, 50, 0
2, 20297520, Note_on_c, 0, 47, 100
2, 20298000, Note_on_c, 0, 47, 0
2, 20298000, Note_on_c, 0, 48, 100
2, 20298480, Note_on_c, 0, 48, 0
2, 20298480, Note_on_c, 0, 50, 100
2, 20298960, Note_on_c, 0, 50, 0
2, 20298960, Note_on_c, 0, 43, 100
2, 20299440, Note_on_c, 0, 43, 0
2, 20299440, Note_on_c, 0, 55, 100
2, 20299920, Note_on_c, 0, 55, 0
2, 20299920, Note_on_c, 0, 54, 100
2, 20300400, Note_on_c, 0, 54, 0
2, 20300400, Note_on_c, 0, 52, 100
2, 20300880, Note_on_c, 0, 52, 0
2, 20300880, Note_on_c, 0, 50, 100
2, 20301360, Note_on_c, 0, 50, 0
2, 20301360, Note_on_c, 0, 47, 100
2, 20301840, Note_on_c, 0, 47, 0
2, 20301840, Note_on_c, 0, 48, 100
2, 20302320, Note_on_c, 0, 48, 0
2, 20302320, Note_on_c, 0, 50, 100
2, 20302800, Note_on_c, 0, 50, 0
2, 20302800, Note_on_c, 0, 43, 100
2, 20303280, Note_on_c, 0, 43, 0
2, 20303280, Note_on_c, 0, 55, 100
2, 20303760, Note_on_c, 0, 55, 0
2, 20303760, Note_on_c, 0, 54, 100
2, 20304240, Note_on_c, 0, 54, 0
2, 20304240, Note_on_c, 0, 52, 100
2, 20304720, Note_on_c, 0, 52, 0
2, 20304720, Note_on_c, 0, 50, 100
2, 20305200, Note_on_c, 0, 50, 0
2, 20305200, Note_on_c, 0, 47, 100
2, 20305680, Note_on_c, 0, 47, 0
2, 20305680, Note_on_c, 0, 48, 100
2, 20306160, Note_on_c, 0, 48, 0
2, 20306160, Note_on_c, 0, 50, 100
2, 20306640, Note_on_c, 0, 50, 0
2, 20306640, Note_on_c, 0, 43, 100
2, 20307120, Note_on_c, 0, 43, 0
2, 20307120, Note_on_c, 0, 55, 100
2, 20310000, Note_on_c, 0, 55, 0
2, 20310000, Note_on_c, 0, 54, 100
2, 20310960, Note_on_c, 0, 54, 0
2, 20310960, Note_on_c, 0, 52, 100
2, 20311920, Note_on_c, 0, 52, 0
2, 20311920, Note_on_c, 0, 50, 100
2, 20312880, Note_on_c, 0, 50, 0
2, 20312880, Note_on_c, 0, 47, 100
2, 20313840, Note_on_c, 0, 47, 0
2, 20313840, Note_on_c, 0, 48, 100
2, 20314800, Note_on_c, 0, 48, 0
2, 20314800, Note_on_c, 0, 50, 100
2, 20315760, Note_on_c, 0, 50, 0
2, 20315760, Note_on_c, 0, 43, 100
2, 20316720, Note_on_c, 0, 43, 0
2, 20316720, Note_on_c, 0, 55, 100
2, 20317680, Note_on_c, 0, 55, 0
2, 20317680, Note_on_c, 0, 54, 100
2, 20318640, Note_on_c, 0, 54, 0
2, 20318640, Note_on_c, 0, 52, 100
2, 20319600, Note_on_c, 0, 52, 0
2, 20319600, Note_on_c, 0, 50, 100
2, 20320560, Note_on_c, 0, 50, 0
2, 20320560, Note_on_c, 0, 47, 100
2, 20321520, Note_on_c, 0, 47, 0
2, 20321520, Note_on_c, 0, 48, 100
2, 20322480, Note_on_c, 0, 48, 0
2, 20322480, Note_on_c, 0, 50, 100
2, 20323440, Note_on_c, 0, 50, 0
2, 20323440, Note_on_c, 0, 43, 100
2, 20324400, Note_on_c, 0, 43, 0
2, 20324400, Note_on_c, 0, 55, 100
2, 20325360, Note_on_c, 0, 55, 0
2, 20325360, Note_on_c, 0, 54, 100
2, 20326320, Note_on_c, 0, 54, 0
2, 20326320, Note_on_c, 0, 52, 100
2, 20327280, Note_on_c, 0, 52, 0
2, 20327280, Note_on_c, 0, 50, 100
2, 20328240, Note_on_c, 0, 50, 0
2, 20328240, Note_on_c, 0, 47, 100
2, 20329200, Note_on_c, 0, 47, 0
2, 20329200, Note_on_c, 0, 48, 100
2, 20330160, Note_on_c, 0, 48, 0
2, 20330160, Note_on_c, 0, 50, 100
2, 20331120, Note_on_c, 0, 50, 0
2, 20331120, Note_on_c, 0, 43, 100
2, 20332080, End_track
0, 0, End_of_file