0, 0, Header, 1, 2, 480
1, 0, Start_track
1, 0, Title_t, "Close Encounters"
1, 0, Text_t, "Sample for MIDIcsv Distribution"
1, 0, Copyright_t, "This file is in the public domain"
1, 0, Time_signature, 4, 2, 24, 8
1, 0, Tempo, 1100000
1, 0, End_track
2, 0, Start_track
2, 0, Instrument_name_t, "Solo Lute or Keyboard"
2, 0, Program_c, 0, 19
2, 110, Note_on_c, 0, 39, 0
2, 110, Note_on_c, 0, 66, 100
2, 583, Note_on_c, 0, 66, 0
2, 583, Note_on_c, 0, 67, 100
2, 693, Note_on_c, 0, 67, 0
2, 693, Note_on_c, 0, 66, 100
2, 1228, Note_on_c, 0, 66, 0
2, 1228, Note_on_c, 0, 67, 100
2, 1338, Note_on_c, 0, 67, 0
2, 1338, Note_on_c, 0, 66, 100
2, 1566, Note_on_c, 0, 66, 0
2, 1566, Note_on_c, 0, 67, 100
2, 1719, Note_on_c, 0, 67, 0
2, 1719, Note_on_c, 0, 66, 100
2, 1829, Note_on_c, 0, 66, 0
2, 1829, Note_on_c, 0, 71, 100
2, 2117, Note_on_c, 0, 71, 0
2, 2117, Note_on_c, 0, 67, 100
2, 2227, Note_on_c, 0, 67, 0
2, 2227, Note_on_c, 0, 62, 100
2, 2337, Note_on_c, 0, 62, 0
2, 2337, Note_on_c, 0, 59, 100
2, 2762, Note_on_c, 0, 59, 0
2, 2762, Note_on_c, 0, 57, 100
2, 2872, Note_on_c, 0, 57, 0
2, 2872, Note_on_c, 0, 54, 100
2, 2964, Note_on_c, 0, 54, 0
2, 2964, Note_on_c, 0, 52, 100
2, 3456, Note_on_c, 0, 52, 0
2, 3456, Note_on_c, 0, 47, 100
2, 3566, Note_on_c, 0, 47, 0
2, 3566, Note_on_c, 0, 48, 100
2, 3658, Note_on_c, 0, 48, 0
2, 3658, Note_on_c, 0, 47, 100
2, 3768, Note_on_c, 0, 47, 0
2, 3768, Note_on_c, 0, 48, 100
2, 3839, Note_on_c, 0, 48, 0
2, 3839, Note_on_c, 0, 47, 100
2, 3949, Note_on_c, 0, 47, 0
2, 3949, Note_on_c, 0, 45, 100
2, 4074, Note_on_c, 0, 45, 0
2, 4074, Note_on_c, 0, 43, 100
2, 4184, Note_on_c, 0, 43, 0
2, 4184, Note_on_c, 0, 50, 100
2, 4341, Note_on_c, 0, 50, 0
2, 4341, Note_on_c, 0, 55, 100
2, 4451, Note_on_c, 0, 55, 0
2, 4451, Note_on_c, 0, 54, 100
2, 4530, Note_on_c, 0, 54, 0
2, 4530, Note_on_c, 0, 55, 100
2, 4640, Note_on_c, 0, 55, 0
2, 4640, Note_on_c, 0, 57, 100
2, 5060, Note_on_c, 0, 57, 0
2, 5060, Note_on_c, 0, 55, 100
2, 5170, Note_on_c, 0, 55, 0
2, 5170, Note_on_c, 0, 57, 100
2, 5257, Note_on_c, 0, 57, 0
2, 5257, Note_on_c, 0, 59, 100
2, 5367, Note_on_c, 0, 59, 0
2, 5367, Note_on_c, 0, 57, 100
2, 5544, Note_on_c, 0, 57, 0
2, 5544, Note_on_c, 0, 62, 100
2, 5689, Note_on_c, 0, 62, 0
2, 5689, Note_on_c, 0, 69, 100
2, 6190, Note_on_c, 0, 69, 0
2, 6190, Note_on_c, 0, 67, 100
2, 6455, Note_on_c, 0, 67, 0
2, 6455, Note_on_c, 0, 66, 100
2, 6568, Note_on_c, 0, 66, 0
2, 6568, Note_on_c, 0, 71, 100
2, 6678, Note_on_c, 0, 71, 0
2, 6678, Note_on_c, 0, 73, 100
2, 6788, Note_on_c, 0, 73, 0
2, 6788, Note_on_c, 0, 74, 100
2, 7270, Note_on_c, 0, 74, 0
2, 7270, Note_on_c, 0, 72, 100
2, 7380, Note_on_c, 0, 72, 0
2, 7380, Note_on_c, 0, 74, 100
2, 7909, Note_on_c, 0, 74, 0
2, 7909, Note_on_c, 0, 72, 100
2, 8098, Note_on_c, 0, 72, 0
2, 8098, Note_on_c, 0, 71, 100
2, 8208, Note_on_c, 0, 71, 0
2, 8208, Note_on_c, 0, 73, 100
2, 8404, Note_on_c, 0, 73, 0
2, 8404, Note_on_c, 0, 71, 100
2, 8514, Note_on_c, 0, 71, 0
2, 8514, Note_on_c, 0, 72, 100
2, 8624, Note_on_c, 0, 72, 0
2, 8624, Note_on_c, 0, 71, 100
2, 8736, Note_on_c, 0, 71, 0
2, 8736, Note_on_c, 0, 74, 100
2, 9040, Note_on_c, 0, 74, 0
2, 9040, Note_on_c, 0, 72, 100
2, 9254, Note_on_c, 0, 72, 0
2, 9254, Note_on_c, 0, 70, 100
2, 9330, Note_on_c, 0, 70, 0
2, 9330, Note_on_c, 0, 67, 100
2, 9540, Note_on_c, 0, 67, 0
2, 9540, Note_on_c, 0, 62, 100
2, 9650, Note_on_c, 0, 62, 0
2, 9650, Note_on_c, 0, 67, 100
2, 9760, Note_on_c, 0, 67, 0
2, 9760, Note_on_c, 0, 66, 100
2, 10468, Note_on_c, 0, 66, 0
2, 10468, Note_on_c, 0, 67, 100
2, 10578, Note_on_c, 0, 67, 0
2, 10578, Note_on_c, 0, 72, 100
2, 10798, Note_on_c, 0, 72, 0
2, 10798, Note_on_c, 0, 74, 100
2, 11547, Note_on_c, 0, 74, 0
2, 11547, Note_on_c, 0, 76, 100
2, 11657, Note_on_c, 0, 76, 0
2, 11657, Note_on_c, 0, 74, 100
2, 11767, Note_on_c, 0, 74, 0
2, 11767, Note_on_c, 0, 76, 100
2, 11838, Note_on_c, 0, 76, 0
2, 11838, Note_on_c, 0, 72, 100
2, 11948, Note_on_c, 0, 72, 0
2, 11948, Note_on_c, 0, 74, 100
2, 12058, Note_on_c, 0, 74, 0
2, 12058, Note_on_c, 0, 72, 100
2, 12305, Note_on_c, 0, 72, 0
2, 12305, Note_on_c, 0, 71, 100
2, 12415, Note_on_c, 0, 71, 0
2, 12415, Note_on_c, 0, 74, 100
2, 12525, Note_on_c, 0, 74, 0
2, 12525, Note_on_c, 0, 76, 100
2, 12606, Note_on_c, 0, 76, 0
2, 12606, Note_on_c, 0, 78, 100
2, 12754, Note_on_c, 0, 78, 0
2, 12754, Note_on_c, 0, 79, 100
2, 12864, Note_on_c, 0, 79, 0
2, 12864, Note_on_c, 0, 81, 100
2, 12974, Note_on_c, 0, 81, 0
2, 12974, Note_on_c, 0, 79, 100
2, 13191, Note_on_c, 0, 79, 0
2, 13191, Note_on_c, 0, 78, 100
2, 13301, Note_on_c, 0, 78, 0
2, 13301, Note_on_c, 0, 79, 100
2, 13591, Note_on_c, 0, 79, 0
2, 13591, Note_on_c, 0, 83, 100
2, 13701, Note_on_c, 0, 83, 0
2, 13701, Note_on_c, 0, 81, 100
2, 14205, Note_on_c, 0, 81, 0
2, 14205, Note_on_c, 0, 83, 100
2, 14315, Note_on_c, 0, 83, 0
2, 14315, Note_on_c, 0, 79, 100
2, 14425, Note_on_c, 0, 79, 0
2, 14425, Note_on_c, 0, 52, 100
2, 14887, Note_on_c, 0, 52, 0
2, 14887, Note_on_c, 0, 58, 100
2, 15023, Note_on_c, 0, 58, 0
2, 15023, Note_on_c, 0, 57, 100
2, 15133, Note_on_c, 0, 57, 0
2, 15133, Note_on_c, 0, 59, 100
2, 15530, Note_on_c, 0, 59, 0
2, 15530, Note_on_c, 0, 60, 100
2, 15640, Note_on_c, 0, 60, 0
2, 15640, Note_on_c, 0, 59, 100
2, 16142, Note_on_c, 0, 59, 0
2, 16142, Note_on_c, 0, 55, 100
2, 16252, Note_on_c, 0, 55, 0
2, 16252, Note_on_c, 0, 57, 100
2, 16362, Note_on_c, 0, 57, 0
2, 16362, Note_on_c, 0, 59, 100
2, 16448, Note_on_c, 0, 59, 0
2, 16448, Note_on_c, 0, 71, 100
2, 16558, Note_on_c, 0, 71, 0
2, 16558, Note_on_c, 0, 72, 100
2, 16820, Note_on_c, 0, 72, 0
2, 16820, Note_on_c, 0, 70, 100
2, 16918, Note_on_c, 0, 70, 0
2, 16918, Note_on_c, 0, 69, 100
2, 17608, Note_on_c, 0, 69, 0
2, 17608, Note_on_c, 0, 71, 100
2, 18196, Note_on_c, 0, 71, 0
2, 18196, Note_on_c, 0, 57, 100
2, 18301, Note_on_c, 0, 57, 0
2, 18301, Note_on_c, 0, 54, 100
2, 18614, Note_on_c, 0, 54, 0
2, 18614, Note_on_c, 0, 52, 100
2, 18724, Note_on_c, 0, 52, 0
2, 18724, Note_on_c, 0, 55, 100
2, 18834, Note_on_c, 0, 55, 0
2, 18834, Note_on_c, 0, 54, 100
2, 18944, Note_on_c, 0, 54, 0
2, 18944, Note_on_c, 0, 55, 100
2, 19054, Note_on_c, 0, 55, 0
2, 19054, Note_on_c, 0, 57, 100
2, 19340, Note_on_c, 0, 57, 0
2, 19340, Note_on_c, 0, 59, 100
2, 19883, Note_on_c, 0, 59, 0
2, 19883, Note_on_c, 0, 69, 100
2, 20026, Note_on_c, 0, 69, 0
2, 20026, Note_on_c, 0, 74, 100
2, 20136, Note_on_c, 0, 74, 0
2, 20136, Note_on_c, 0, 72, 100
2, 20316, Note_on_c, 0, 72, 0
2, 20316, Note_on_c, 0, 71, 100
2, 20729, Note_on_c, 0, 71, 0
2, 20729, Note_on_c, 0, 69, 100
2, 20839, Note_on_c, 0, 69, 0
2, 20839, Note_on_c, 0, 67, 100
2, 21162, Note_on_c, 0, 67, 0
2, 21162, Note_on_c, 0, 69, 100
2, 21320, Note_on_c, 0, 69, 0
2, 21320, Note_on_c, 0, 79, 100
2, 21813, Note_on_c, 0, 79, 0
2, 21813, Note_on_c, 0, 81, 100
2, 21923, Note_on_c, 0, 81, 0
2, 21923, Note_on_c, 0, 79, 100
2, 22115, Note_on_c, 0, 79, 0
2, 22115, Note_on_c, 0, 78, 100
2, 22349, Note_on_c, 0, 78, 0
2, 22349, Note_on_c, 0, 76, 100
2, 22420, Note_on_c, 0, 76, 0
2, 22420, Note_on_c, 0, 73, 100
2, 22530, Note_on_c, 0, 73, 0
2, 22530, Note_on_c, 0, 71, 100
2, 22835, Note_on_c, 0, 71, 0
2, 22835, Note_on_c, 0, 69, 100
2, 23461, Note_on_c, 0, 69, 0
2, 23461, Note_on_c, 0, 71, 100
2, 23571, Note_on_c, 0, 71, 0
2, 23571, Note_on_c, 0, 67, 100
2, 23681, Note_on_c, 0, 67, 0
2, 23681, Note_on_c, 0, 66, 100
2, 23751, Note_on_c, 0, 66, 0
2, 23751, Note_on_c, 0, 67, 100
2, 23861, Note_on_c, 0, 67, 0
2, 23861, Note_on_c, 0, 74, 100
2, 23971, Note_on_c, 0, 74, 0
2, 23971, Note_on_c, 0, 76, 100
2, 24089, Note_on_c, 0, 76, 0
2, 24089, Note_on_c, 0, 69, 100
2, 24642, Note_on_c, 0, 69, 0
2, 24642, Note_on_c, 0, 74, 100
2, 25020, Note_on_c, 0, 74, 0
2, 25020, Note_on_c, 0, 76, 100
2, 25130, Note_on_c, 0, 76, 0
2, 25130, Note_on_c, 0, 74, 100
2, 25240, Note_on_c, 0, 74, 0
2, 25240, Note_on_c, 0, 72, 100
2, 25335, Note_on_c, 0, 72, 0
2, 25335, Note_on_c, 0, 74, 100
2, 25445, Note_on_c, 0, 74, 0
2, 25445, Note_on_c, 0, 78, 100
2, 25652, Note_on_c, 0, 78, 0
2, 25652, Note_on_c, 0, 67, 100
2, 25762, Note_on_c, 0, 67, 0
2, 25762, Note_on_c, 0, 72, 100
2, 26172, Note_on_c, 0, 72, 0
2, 26172, Note_on_c, 0, 75, 100
2, 26256, Note_on_c, 0, 75, 0
2, 26256, Note_on_c, 0, 73, 100
2, 26366, Note_on_c, 0, 73, 0
2, 26366, Note_on_c, 0, 71, 100
2, 26476, Note_on_c, 0, 71, 0
2, 26476, Note_on_c, 0, 72, 100
2, 26640, Note_on_c, 0, 72, 0
2, 26640, Note_on_c, 0, 71, 100
2, 26863, Note_on_c, 0, 71, 0
2, 26863, Note_on_c, 0, 81, 100
2, 27504, Note_on_c, 0, 81, 0
2, 27504, Note_on_c, 0, 79, 100
2, 27614, Note_on_c, 0, 79, 0
2, 27614, Note_on_c, 0, 78, 100
2, 27712, Note_on_c, 0, 78, 0
2, 27712, Note_on_c, 0, 76, 100
2, 27777, Note_on_c, 0, 76, 0
2, 27777, Note_on_c, 0, 78, 100
2, 27855, Note_on_c, 0, 78, 0
2, 27855, Note_on_c, 0, 81, 100
2, 28396, Note_on_c, 0, 81, 0
2, 28396, Note_on_c, 0, 79, 100
2, 28469, Note_on_c, 0, 79, 0
2, 28469, Note_on_c, 0, 76, 100
2, 28579, Note_on_c, 0, 76, 0
2, 28579, Note_on_c, 0, 78, 100
2, 28751, Note_on_c, 0, 78, 0
2, 28751, Note_on_c, 0, 79, 100
2, 28861, Note_on_c, 0, 79, 0
2, 28861, Note_on_c, 0, 81, 100
2, 29610, Note_on_c, 0, 81, 0
2, 29610, Note_on_c, 0, 75, 100
2, 29720, Note_on_c, 0, 75, 0
2, 29720, Note_on_c, 0, 73, 100
2, 29830, Note_on_c, 0, 73, 0
2, 29830, Note_on_c, 0, 69, 100
2, 29940, Note_on_c, 0, 69, 0
2, 29940, Note_on_c, 0, 67, 100
2, 30050, Note_on_c, 0, 67, 0
2, 30050, Note_on_c, 0, 65, 100
2, 30119, Note_on_c, 0, 65, 0
2, 30119, Note_on_c, 0, 64, 100
2, 30916, Note_on_c, 0, 64, 0
2, 30916, Note_on_c, 0, 71, 100
2, 31026, Note_on_c, 0, 71, 0
2, 31026, Note_on_c, 0, 67, 100
2, 31149, Note_on_c, 0, 67, 0
2, 31149, Note_on_c, 0, 66, 100
2, 31944, Note_on_c, 0, 66, 0
2, 31944, Note_on_c, 0, 71, 100
2, 32356, Note_on_c, 0, 71, 0
2, 32356, Note_on_c, 0, 67, 100
2, 32466, Note_on_c, 0, 67, 0
2, 32466, Note_on_c, 0, 74, 100
2, 32543, Note_on_c, 0, 74, 0
2, 32543, Note_on_c, 0, 72, 100
2, 32656, Note_on_c, 0, 72, 0
2, 32656, Note_on_c, 0, 74, 100
2, 32891, Note_on_c, 0, 74, 0
2, 32891, Note_on_c, 0, 72, 100
2, 33027, Note_on_c, 0, 72, 0
2, 33027, Note_on_c, 0, 71, 100
2, 33137, Note_on_c, 0, 71, 0
2, 33137, Note_on_c, 0, 69, 100
2, 33350, Note_on_c, 0, 69, 0
2, 33350, Note_on_c, 0, 67, 100
2, 33575, Note_on_c, 0, 67, 0
2, 33575, Note_on_c, 0, 66, 100
2, 33803, Note_on_c, 0, 66, 0
2, 33803, Note_on_c, 0, 69, 100
2, 33913, Note_on_c, 0, 69, 0
2, 33913, Note_on_c, 0, 70, 100
2, 34013, Note_on_c, 0, 70, 0
2, 34013, Note_on_c, 0, 69, 100
2, 34095, Note_on_c, 0, 69, 0
2, 34095, Note_on_c, 0, 78, 100
2, 34257, Note_on_c, 0, 78, 0
2, 34257, Note_on_c, 0, 76, 100
2, 34367, Note_on_c, 0, 76, 0
2, 34367, Note_on_c, 0, 74, 100
2, 34575, Note_on_c, 0, 74, 0
2, 34575, Note_on_c, 0, 72, 100
2, 34782, Note_on_c, 0, 72, 0
2, 34782, Note_on_c, 0, 70, 100
2, 34892, Note_on_c, 0, 70, 0
2, 34892, Note_on_c, 0, 72, 100
2, 35020, Note_on_c, 0, 72, 0
2, 35020, Note_on_c, 0, 70, 100
2, 35154, Note_on_c, 0, 70, 0
2, 35154, Note_on_c, 0, 72, 100
2, 35411, Note_on_c, 0, 72, 0
2, 35411, Note_on_c, 0, 71, 100
2, 35521, Note_on_c, 0, 71, 0
2, 35521, Note_on_c, 0, 69, 100
2, 35959, Note_on_c, 0, 69, 0
2, 35959, Note_on_c, 0, 78, 100
2, 36209, Note_on_c, 0, 78, 0
2, 36209, Note_on_c, 0, 76, 100
2, 36319, Note_on_c, 0, 76, 0
2, 36319, Note_on_c, 0, 74, 100
2, 36807, Note_on_c, 0, 74, 0
2, 36807, Note_on_c, 0, 76, 100
2, 36917, Note_on_c, 0, 76, 0
2, 36917, Note_on_c, 0, 74, 100
2, 37128, Note_on_c, 0, 74, 0
2, 37128, Note_on_c, 0, 72, 100
2, 37356, Note_on_c, 0, 72, 0
2, 37356, Note_on_c, 0, 74, 100
2, 37466, Note_on_c, 0, 74, 0
2, 37466, Note_on_c, 0, 72, 100
2, 37660, Note_on_c, 0, 72, 0
2, 37660, Note_on_c, 0, 71, 100
2, 38389, Note_on_c, 0, 71, 0
2, 38389, Note_on_c, 0, 73, 100
2, 38499, Note_on_c, 0, 73, 0
2, 38499, Note_on_c, 0, 67, 100
2, 38624, Note_on_c, 0, 67, 0
2, 38624, Note_on_c, 0, 66, 100
2, 38734, Note_on_c, 0, 66, 0
2, 38734, Note_on_c, 0, 67, 100
2, 38869, Note_on_c, 0, 67, 0
2, 38869, Note_on_c, 0, 66, 100
2, 38979, Note_on_c, 0, 66, 0
2, 38979, Note_on_c, 0, 64, 100
2, 39089, Note_on_c, 0, 64, 0
2, 39089, Note_on_c, 0, 67, 100
2, 39167, Note_on_c, 0, 67, 0
2, 39167, Note_on_c, 0, 69, 100
2, 39717, Note_on_c, 0, 69, 0
2, 39717, Note_on_c, 0, 67, 100
2, 40267, Note_on_c, 0, 67, 0
2, 40267, Note_on_c, 0, 71, 100
2, 40377, Note_on_c, 0, 71, 0
2, 40377, Note_on_c, 0, 67, 100
2, 40487, Note_on_c, 0, 67, 0
2, 40487, Note_on_c, 0, 65, 100
2, 40564, Note_on_c, 0, 65, 0
2, 40564, Note_on_c, 0, 76, 100
2, 40674, Note_on_c, 0, 76, 0
2, 40674, Note_on_c, 0, 78, 100
2, 40739, Note_on_c, 0, 78, 0
2, 40739, Note_on_c, 0, 76, 100
2, 40849, Note_on_c, 0, 76, 0
2, 40849, Note_on_c, 0, 71, 100
2, 41180, Note_on_c, 0, 71, 0
2, 41180, Note_on_c, 0, 69, 100
2, 41752, Note_on_c, 0, 69, 0
2, 41752, Note_on_c, 0, 71, 100
2, 41862, Note_on_c, 0, 71, 0
2, 41862, Note_on_c, 0, 66, 100
2, 42321, Note_on_c, 0, 66, 0
2, 42321, Note_on_c, 0, 64, 100
2, 42546, Note_on_c, 0, 64, 0
2, 42546, Note_on_c, 0, 62, 100
2, 42904, Note_on_c, 0, 62, 0
2, 42904, Note_on_c, 0, 64, 100
2, 43161, Note_on_c, 0, 64, 0
2, 43161, Note_on_c, 0, 73, 100
2, 43271, Note_on_c, 0, 73, 0
2, 43271, Note_on_c, 0, 69, 100
2, 43539, Note_on_c, 0, 69, 0
2, 43539, Note_on_c, 0, 67, 100
2, 43613, Note_on_c, 0, 67, 0
2, 43613, Note_on_c, 0, 69, 100
2, 43757, Note_on_c, 0, 69, 0
2, 43757, Note_on_c, 0, 70, 100
2, 43901, Note_on_c, 0, 70, 0
2, 43901, Note_on_c, 0, 67, 100
2, 44034, Note_on_c, 0, 67, 0
2, 44034, Note_on_c, 0, 66, 100
2, 44144, Note_on_c, 0, 66, 0
2, 44144, Note_on_c, 0, 62, 100
2, 44709, Note_on_c, 0, 62, 0
2, 44709, Note_on_c, 0, 61, 100
2, 44819, Note_on_c, 0, 61, 0
2, 44819, Note_on_c, 0, 62, 100
2, 45223, Note_on_c, 0, 62, 0
2, 45223, Note_on_c, 0, 60, 100
2, 45333, Note_on_c, 0, 60, 0
2, 45333, Note_on_c, 0, 59, 100
2, 45847, Note_on_c, 0, 59, 0
2, 45847, Note_on_c, 0, 60, 100
2, 45957, Note_on_c, 0, 60, 0
2, 45957, Note_on_c, 0, 64, 100
2, 46733, Note_on_c, 0, 64, 0
2, 46733, Note_on_c, 0, 73, 100
2, 46843, Note_on_c, 0, 73, 0
2, 46843, Note_on_c, 0, 71, 100
2, 47171, Note_on_c, 0, 71, 0
2, 47171, Note_on_c, 0, 69, 100
2, 47664, Note_on_c, 0, 69, 0
2, 47664, Note_on_c, 0, 71, 100
2, 47829, Note_on_c, 0, 71, 0
2, 47829, Note_on_c, 0, 69, 100
2, 47896, Note_on_c, 0, 69, 0
2, 47896, Note_on_c, 0, 67, 100
2, 48087, Note_on_c, 0, 67, 0
2, 48087, Note_on_c, 0, 66, 100
2, 48761, Note_on_c, 0, 66, 0
2, 48761, Note_on_c, 0, 62, 100
2, 49242, Note_on_c, 0, 62, 0
2, 49242, Note_on_c, 0, 67, 100
2, 49595, Note_on_c, 0, 67, 0
2, 49595, Note_on_c, 0, 69, 100
2, 50064, Note_on_c, 0, 69, 0
2, 50064, Note_on_c, 0, 50, 100
2, 50529, Note_on_c, 0, 50, 0
2, 50529, Note_on_c, 0, 74, 100
2, 50950, Note_on_c, 0, 74, 0
2, 50950, Note_on_c, 0, 72, 100
2, 51091, Note_on_c, 0, 72, 0
2, 51091, Note_on_c, 0, 71, 100
2, 51366, Note_on_c, 0, 71, 0
2, 51366, Note_on_c, 0, 69, 100
2, 51448, Note_on_c, 0, 69, 0
2, 51448, Note_on_c, 0, 67, 100
2, 51590, Note_on_c, 0, 67, 0
2, 51590, Note_on_c, 0, 62, 100
2, 51820, Note_on_c, 0, 62, 0
2, 51820, Note_on_c, 0, 64, 100
2, 51930, Note_on_c, 0, 64, 0
2, 51930, Note_on_c, 0, 62, 100
2, 52485, Note_on_c, 0, 62, 0
2, 52485, Note_on_c, 0, 64, 100
2, 53245, Note_on_c, 0, 64, 0
2, 53245, Note_on_c, 0, 57, 100
2, 53355, Note_on_c, 0, 57, 0
2, 53355, Note_on_c, 0, 55, 100
2, 53833, Note_on_c, 0, 55, 0
2, 53833, Note_on_c, 0, 54, 100
2, 53943, Note_on_c, 0, 54, 0
2, 53943, Note_on_c, 0, 55, 100
2, 54053, Note_on_c, 0, 55, 0
2, 54053, Note_on_c, 0, 57, 100
2, 54832, Note_on_c, 0, 57, 0
2, 54832, Note_on_c, 0, 54, 100
2, 54987, Note_on_c, 0, 54, 0
2, 54987, Note_on_c, 0, 52, 100
2, 55588, Note_on_c, 0, 52, 0
2, 55588, Note_on_c, 0, 50, 100
2, 55850, Note_on_c, 0, 50, 0
2, 55850, Note_on_c, 0, 55, 100
2, 55960, Note_on_c, 0, 55, 0
2, 55960, Note_on_c, 0, 54, 100
2, 56070, Note_on_c, 0, 54, 0
2, 56070, Note_on_c, 0, 55, 100
2, 56162, Note_on_c, 0, 55, 0
2, 56162, Note_on_c, 0, 57, 100
2, 56384, Note_on_c, 0, 57, 0
2, 56384, Note_on_c, 0, 55, 100
2, 56494, Note_on_c, 0, 55, 0
2, 56494, Note_on_c, 0, 54, 100
2, 56663, Note_on_c, 0, 54, 0
2, 56663, Note_on_c, 0, 55, 100
2, 56773, Note_on_c, 0, 55, 0
2, 56773, Note_on_c, 0, 57, 100
2, 56883, Note_on_c, 0, 57, 0
2, 56883, Note_on_c, 0, 54, 100
2, 57021, Note_on_c, 0, 54, 0
2, 57021, Note_on_c, 0, 55, 100
2, 57131, Note_on_c, 0, 55, 0
2, 57131, Note_on_c, 0, 57, 100
2, 57544, Note_on_c, 0, 57, 0
2, 57544, Note_on_c, 0, 55, 100
2, 57654, Note_on_c, 0, 55, 0
2, 57654, Note_on_c, 0, 57, 100
2, 58015, Note_on_c, 0, 57, 0
2, 58015, Note_on_c, 0, 55, 100
2, 58300, Note_on_c, 0, 55, 0
2, 58300, Note_on_c, 0, 59, 100
2, 58410, Note_on_c, 0, 59, 0
2, 58410, Note_on_c, 0, 60, 100
2, 58481, Note_on_c, 0, 60, 0
2, 58481, Note_on_c, 0, 59, 100
2, 59117, Note_on_c, 0, 59, 0
2, 59117, Note_on_c, 0, 64, 100
2, 59735, Note_on_c, 0, 64, 0
2, 59735, Note_on_c, 0, 57, 100
2, 59981, Note_on_c, 0, 57, 0
2, 59981, Note_on_c, 0, 64, 100
2, 60091, Note_on_c, 0, 64, 0
2, 60091, Note_on_c, 0, 62, 100
2, 60871, Note_on_c, 0, 62, 0
2, 60871, Note_on_c, 0, 60, 100
2, 61075, Note_on_c, 0, 60, 0
2, 61075, Note_on_c, 0, 62, 100
2, 61558, Note_on_c, 0, 62, 0
2, 61558, Note_on_c, 0, 60, 100
2, 61669, Note_on_c, 0, 60, 0
2, 61669, Note_on_c, 0, 69, 100
2, 61804, Note_on_c, 0, 69, 0
2, 61804, Note_on_c, 0, 74, 100
2, 62335, Note_on_c, 0, 74, 0
2, 62335, Note_on_c, 0, 72, 100
2, 62557, Note_on_c, 0, 72, 0
2, 62557, Note_on_c, 0, 71, 100
2, 62667, Note_on_c, 0, 71, 0
2, 62667, Note_on_c, 0, 67, 100
2, 62777, Note_on_c, 0, 67, 0
2, 62777, Note_on_c, 0, 64, 100
2, 62887, Note_on_c, 0, 64, 0
2, 62887, Note_on_c, 0, 66, 100
2, 63543, Note_on_c, 0, 66, 0
2, 63543, Note_on_c, 0, 67, 100
2, 63653, Note_on_c, 0, 67, 0
2, 63653, Note_on_c, 0, 69, 100
2, 63779, Note_on_c, 0, 69, 0
2, 63779, Note_on_c, 0, 73, 100
2, 63926, Note_on_c, 0, 73, 0
2, 63926, Note_on_c, 0, 69, 100
2, 64036, Note_on_c, 0, 69, 0
2, 64036, Note_on_c, 0, 66, 100
2, 64354, Note_on_c, 0, 66, 0
2, 64354, Note_on_c, 0, 67, 100
2, 64464, Note_on_c, 0, 67, 0
2, 64464, Note_on_c, 0, 69, 100
2, 64546, Note_on_c, 0, 69, 0
2, 64546, Note_on_c, 0, 71, 100
2, 64656, Note_on_c, 0, 71, 0
2, 64656, Note_on_c, 0, 62, 100
2, 64753, Note_on_c, 0, 62, 0
2, 64753, Note_on_c, 0, 54, 100
2, 64863, Note_on_c, 0, 54, 0
2, 64863, Note_on_c, 0, 57, 100
2, 64973, Note_on_c, 0, 57, 0
2, 64973, Note_on_c, 0, 55, 100
2, 65083, Note_on_c, 0, 55, 0
2, 65083, Note_on_c, 0, 57, 100
2, 65193, Note_on_c, 0, 57, 0
2, 65193, Note_on_c, 0, 64, 100
2, 65630, Note_on_c, 0, 64, 0
2, 65630, Note_on_c, 0, 66, 100
2, 65740, Note_on_c, 0, 66, 0
2, 65740, Note_on_c, 0, 43, 100
2, 65850, Note_on_c, 0, 43, 0
2, 65850, Note_on_c, 0, 69, 100
2, 66091, Note_on_c, 0, 69, 0
2, 66091, Note_on_c, 0, 67, 100
2, 66308, Note_on_c, 0, 67, 0
2, 66308, Note_on_c, 0, 66, 100
2, 66418, Note_on_c, 0, 66, 0
2, 66418, Note_on_c, 0, 67, 100
2, 66654, Note_on_c, 0, 67, 0
2, 66654, Note_on_c, 0, 66, 100
2, 66763, Note_on_c, 0, 66, 0
2, 66763, Note_on_c, 0, 67, 100
2, 66873, Note_on_c, 0, 67, 0
2, 66873, Note_on_c, 0, 69, 100
2, 67069, Note_on_c, 0, 69, 0
2, 67069, Note_on_c, 0, 72, 100
2, 67181, Note_on_c, 0, 72, 0
2, 67181, Note_on_c, 0, 74, 100
2, 67291, Note_on_c, 0, 74, 0
2, 67291, Note_on_c, 0, 72, 100
2, 67452, Note_on_c, 0, 72, 0
2, 67452, Note_on_c, 0, 70, 100
2, 67562, Note_on_c, 0, 70, 0
2, 67562, Note_on_c, 0, 72, 100
2, 67644, Note_on_c, 0, 72, 0
2, 67644, Note_on_c, 0, 71, 100
2, 67971, Note_on_c, 0, 71, 0
2, 67971, Note_on_c, 0, 60, 100
2, 68049, Note_on_c, 0, 60, 0
2, 68049, Note_on_c, 0, 59, 100
2, 68324, Note_on_c, 0, 59, 0
2, 68324, Note_on_c, 0, 75, 100
2, 68434, Note_on_c, 0, 75, 0
2, 68434, Note_on_c, 0, 62, 100
2, 68544, Note_on_c, 0, 62, 0
2, 68544, Note_on_c, 0, 52, 100
2, 69095, Note_on_c, 0, 52, 0
2, 69095, Note_on_c, 0, 54, 100
2, 69429, Note_on_c, 0, 54, 0
2, 69429, Note_on_c, 0, 62, 100
2, 69983, Note_on_c, 0, 62, 0
2, 69983, Note_on_c, 0, 64, 100
2, 70298, Note_on_c, 0, 64, 0
2, 70298, Note_on_c, 0, 66, 100
2, 71085, Note_on_c, 0, 66, 0
2, 71085, Note_on_c, 0, 67, 100
2, 71309, Note_on_c, 0, 67, 0
2, 71309, Note_on_c, 0, 66, 100
2, 71391, Note_on_c, 0, 66, 0
2, 71391, Note_on_c, 0, 67, 100
2, 71690, Note_on_c, 0, 67, 0
2, 71690, Note_on_c, 0, 74, 100
2, 71800, Note_on_c, 0, 74, 0
2, 71800, Note_on_c, 0, 75, 100
2, 71910, Note_on_c, 0, 75, 0
2, 71910, Note_on_c, 0, 79, 100
2, 72000, Note_on_c, 0, 79, 0
2, 72000, Note_on_c, 0, 81, 100
2, 72369, Note_on_c, 0, 81, 0
2, 72369, Note_on_c, 0, 78, 100
2, 72534, Note_on_c, 0, 78, 0
2, 72534, Note_on_c, 0, 76, 100
2, 72624, Note_on_c, 0, 76, 0
2, 72624, Note_on_c, 0, 74, 100
2, 72925, Note_on_c, 0, 74, 0
2, 72925, Note_on_c, 0, 71, 100
2, 73035, Note_on_c, 0, 71, 0
2, 73035, Note_on_c, 0, 73, 100
2, 73145, Note_on_c, 0, 73, 0
2, 73145, Note_on_c, 0, 71, 100
2, 73255, Note_on_c, 0, 71, 0
2, 73255, Note_on_c, 0, 74, 100
2, 73947, Note_on_c, 0, 74, 0
2, 73947, Note_on_c, 0, 71, 100
2, 74643, Note_on_c, 0, 71, 0
2, 74643, Note_on_c, 0, 69, 100
2, 74847, Note_on_c, 0, 69, 0
2, 74847, Note_on_c, 0, 71, 100
2, 74957, Note_on_c, 0, 71, 0
2, 74957, Note_on_c, 0, 69, 100
2, 75041, Note_on_c, 0, 69, 0
2, 75041, Note_on_c, 0, 67, 100
2, 75278, Note_on_c, 0, 67, 0
2, 75278, Note_on_c, 0, 57, 100
2, 75388, Note_on_c, 0, 57, 0
2, 75388, Note_on_c, 0, 64, 100
2, 76023, Note_on_c, 0, 64, 0
2, 76023, Note_on_c, 0, 66, 100
2, 76133, Note_on_c, 0, 66, 0
2, 76133, Note_on_c, 0, 67, 100
2, 76280, Note_on_c, 0, 67, 0
2, 76280, Note_on_c, 0, 71, 100
2, 76670, Note_on_c, 0, 71, 0
2, 76670, Note_on_c, 0, 69, 100
2, 77020, Note_on_c, 0, 69, 0
2, 77020, Note_on_c, 0, 71, 100
2, 77142, Note_on_c, 0, 71, 0
2, 77142, Note_on_c, 0, 69, 100
2, 77341, Note_on_c, 0, 69, 0
2, 77341, Note_on_c, 0, 67, 100
2, 77632, Note_on_c, 0, 67, 0
2, 77632, Note_on_c, 0, 66, 100
2, 78106, Note_on_c, 0, 66, 0
2, 78106, Note_on_c, 0, 63, 100
2, 78541, Note_on_c, 0, 63, 0
2, 78541, Note_on_c, 0, 64, 100
2, 78651, Note_on_c, 0, 64, 0
2, 78651, Note_on_c, 0, 62, 100
2, 78761, Note_on_c, 0, 62, 0
2, 78761, Note_on_c, 0, 64, 100
2, 78871, Note_on_c, 0, 64, 0
2, 78871, Note_on_c, 0, 62, 100
2, 78981, Note_on_c, 0, 62, 0
2, 78981, Note_on_c, 0, 57, 100
2, 79309, Note_on_c, 0, 57, 0
2, 79309, Note_on_c, 0, 54, 100
2, 79776, Note_on_c, 0, 54, 0
2, 79776, Note_on_c, 0, 55, 100
2, 79886, Note_on_c, 0, 55, 0
2, 79886, Note_on_c, 0, 54, 100
2, 79996, Note_on_c, 0, 54, 0
2, 79996, Note_on_c, 0, 55, 100
2, 80106, Note_on_c, 0, 55, 0
2, 80106, Note_on_c, 0, 57, 100
2, 80492, Note_on_c, 0, 57, 0
2, 80492, Note_on_c, 0, 55, 100
2, 80880, Note_on_c, 0, 55, 0
2, 80880, Note_on_c, 0, 57, 100
2, 81160, Note_on_c, 0, 57, 0
2, 81160, Note_on_c, 0, 55, 100
2, 81270, Note_on_c, 0, 55, 0
2, 81270, Note_on_c, 0, 57, 100
2, 81694, Note_on_c, 0, 57, 0
2, 81694, Note_on_c, 0, 55, 100
2, 81804, Note_on_c, 0, 55, 0
2, 81804, Note_on_c, 0, 54, 100
2, 81914, Note_on_c, 0, 54, 0
2, 81914, Note_on_c, 0, 57, 100
2, 82415, Note_on_c, 0, 57, 0
2, 82415, Note_on_c, 0, 59, 100
2, 82525, Note_on_c, 0, 59, 0
2, 82525, Note_on_c, 0, 62, 100
2, 82635, Note_on_c, 0, 62, 0
2, 82635, Note_on_c, 0, 60, 100
2, 82751, Note_on_c, 0, 60, 0
2, 82751, Note_on_c, 0, 48, 100
2, 82861, Note_on_c, 0, 48, 0
2, 82861, Note_on_c, 0, 50, 100
2, 83071, Note_on_c, 0, 50, 0
2, 83071, Note_on_c, 0, 48, 100
2, 83181, Note_on_c, 0, 48, 0
2, 83181, Note_on_c, 0, 50, 100
2, 83264, Note_on_c, 0, 50, 0
2, 83264, Note_on_c, 0, 52, 100
2, 83374, Note_on_c, 0, 52, 0
2, 83374, Note_on_c, 0, 72, 100
2, 83484, Note_on_c, 0, 72, 0
2, 83484, Note_on_c, 0, 70, 100
2, 83594, Note_on_c, 0, 70, 0
2, 83594, Note_on_c, 0, 69, 100
2, 83923, Note_on_c, 0, 69, 0
2, 83923, Note_on_c, 0, 67, 100
2, 84147, Note_on_c, 0, 67, 0
2, 84147, Note_on_c, 0, 69, 100
2, 84781, Note_on_c, 0, 69, 0
2, 84781, Note_on_c, 0, 57, 100
2, 85066, Note_on_c, 0, 57, 0
2, 85066, Note_on_c, 0, 55, 100
2, 85176, Note_on_c, 0, 55, 0
2, 85176, Note_on_c, 0, 54, 100
2, 85443, Note_on_c, 0, 54, 0
2, 85443, Note_on_c, 0, 55, 100
2, 85687, Note_on_c, 0, 55, 0
2, 85687, Note_on_c, 0, 62, 100
2, 85899, Note_on_c, 0, 62, 0
2, 85899, Note_on_c, 0, 69, 100
2, 86009, Note_on_c, 0, 69, 0
2, 86009, Note_on_c, 0, 71, 100
2, 86119, Note_on_c, 0, 71, 0
2, 86119, Note_on_c, 0, 72, 100
2, 86254, Note_on_c, 0, 72, 0
2, 86254, Note_on_c, 0, 66, 100
2, 86510, Note_on_c, 0, 66, 0
2, 86510, Note_on_c, 0, 67, 100
2, 86620, Note_on_c, 0, 67, 0
2, 86620, Note_on_c, 0, 62, 100
2, 87409, Note_on_c, 0, 62, 0
2, 87409, Note_on_c, 0, 60, 100
2, 87496, Note_on_c, 0, 60, 0
2, 87496, Note_on_c, 0, 62, 100
2, 88260, Note_on_c, 0, 62, 0
2, 88260, Note_on_c, 0, 64, 100
2, 88574, Note_on_c, 0, 64, 0
2, 88574, Note_on_c, 0, 66, 100
2, 88684, Note_on_c, 0, 66, 0
2, 88684, Note_on_c, 0, 71, 100
2, 88787, Note_on_c, 0, 71, 0
2, 88787, Note_on_c, 0, 81, 100
2, 88897, Note_on_c, 0, 81, 0
2, 88897, Note_on_c, 0, 79, 100
2, 89007, Note_on_c, 0, 79, 0
2, 89007, Note_on_c, 0, 78, 100
2, 89180, Note_on_c, 0, 78, 0
2, 89180, Note_on_c, 0, 76, 100
2, 89290, Note_on_c, 0, 76, 0
2, 89290, Note_on_c, 0, 78, 100
2, 89400, Note_on_c, 0, 78, 0
2, 89400, Note_on_c, 0, 76, 100
2, 89510, Note_on_c, 0, 76, 0
2, 89510, Note_on_c, 0, 74, 100
2, 89620, Note_on_c, 0, 74, 0
2, 89620, Note_on_c, 0, 69, 100
2, 90069, Note_on_c, 0, 69, 0
2, 90069, Note_on_c, 0, 67, 100
2, 90249, Note_on_c, 0, 67, 0
2, 90249, Note_on_c, 0, 66, 100
2, 90956, Note_on_c, 0, 66, 0
2, 90956, Note_on_c, 0, 67, 100
2, 91066, Note_on_c, 0, 67, 0
2, 91066, Note_on_c, 0, 66, 100
2, 91145, Note_on_c, 0, 66, 0
2, 91145, Note_on_c, 0, 67, 100
2, 91334, Note_on_c, 0, 67, 0
2, 91334, Note_on_c, 0, 66, 100
2, 91490, Note_on_c, 0, 66, 0
2, 91490, Note_on_c, 0, 67, 100
2, 91600, Note_on_c, 0, 67, 0
2, 91600, Note_on_c, 0, 72, 100
2, 91913, Note_on_c, 0, 72, 0
2, 91913, Note_on_c, 0, 76, 100
2, 91980, Note_on_c, 0, 76, 0
2, 91980, Note_on_c, 0, 48, 100
2, 92496, Note_on_c, 0, 48, 0
2, 92496, Note_on_c, 0, 52, 100
2, 92927, Note_on_c, 0, 52, 0
2, 92927, Note_on_c, 0, 57, 100
2, 93214, Note_on_c, 0, 57, 0
2, 93214, Note_on_c, 0, 54, 100
2, 93445, Note_on_c, 0, 54, 0
2, 93445, Note_on_c, 0, 59, 100
2, 93555, Note_on_c, 0, 59, 0
2, 93555, Note_on_c, 0, 52, 100
2, 93665, Note_on_c, 0, 52, 0
2, 93665, Note_on_c, 0, 50, 100
2, 93775, Note_on_c, 0, 50, 0
2, 93775, Note_on_c, 0, 52, 100
2, 93885, Note_on_c, 0, 52, 0
2, 93885, Note_on_c, 0, 48, 100
2, 94009, Note_on_c, 0, 48, 0
2, 94009, Note_on_c, 0, 54, 100
2, 94119, Note_on_c, 0, 54, 0
2, 94119, Note_on_c, 0, 55, 100
2, 94672, Note_on_c, 0, 55, 0
2, 94672, Note_on_c, 0, 74, 100
2, 94782, Note_on_c, 0, 74, 0
2, 94782, Note_on_c, 0, 72, 100
2, 94892, Note_on_c, 0, 72, 0
2, 94892, Note_on_c, 0, 71, 100
2, 95055, Note_on_c, 0, 71, 0
2, 95055, Note_on_c, 0, 74, 100
2, 95165, Note_on_c, 0, 74, 0
2, 95165, Note_on_c, 0, 66, 100
2, 95934, Note_on_c, 0, 66, 0
2, 95934, Note_on_c, 0, 67, 100
2, 96044, Note_on_c, 0, 67, 0
2, 96044, Note_on_c, 0, 72, 100
2, 96141, Note_on_c, 0, 72, 0
2, 96141, Note_on_c, 0, 71, 100
2, 96251, Note_on_c, 0, 71, 0
2, 96251, Note_on_c, 0, 72, 100
2, 96438, Note_on_c, 0, 72, 0
2, 96438, Note_on_c, 0, 75, 100
2, 96548, Note_on_c, 0, 75, 0
2, 96548, Note_on_c, 0, 73, 100
2, 96664, Note_on_c, 0, 73, 0
2, 96664, Note_on_c, 0, 67, 100
2, 96901, Note_on_c, 0, 67, 0
2, 96901, Note_on_c, 0, 69, 100
2, 97384, Note_on_c, 0, 69, 0
2, 97384, Note_on_c, 0, 67, 100
2, 97641, Note_on_c, 0, 67, 0
2, 97641, Note_on_c, 0, 69, 100
2, 97812, Note_on_c, 0, 69, 0
2, 97812, Note_on_c, 0, 67, 100
2, 98105, Note_on_c, 0, 67, 0
2, 98105, Note_on_c, 0, 66, 100
2, 98272, Note_on_c, 0, 66, 0
2, 98272, Note_on_c, 0, 67, 100
2, 98515, Note_on_c, 0, 67, 0
2, 98515, Note_on_c, 0, 64, 100
2, 98891, Note_on_c, 0, 64, 0
2, 98891, Note_on_c, 0, 62, 100
2, 99272, Note_on_c, 0, 62, 0
2, 99272, Note_on_c, 0, 60, 100
2, 99575, Note_on_c, 0, 60, 0
2, 99575, Note_on_c, 0, 66, 100
2, 99685, Note_on_c, 0, 66, 0
2, 99685, Note_on_c, 0, 67, 100
2, 99806, Note_on_c, 0, 67, 0
2, 99806, Note_on_c, 0, 66, 100
2, 100118, Note_on_c, 0, 66, 0
2, 100118, Note_on_c, 0, 64, 100
2, 100228, Note_on_c, 0, 64, 0
2, 100228, Note_on_c, 0, 67, 100
2, 100657, Note_on_c, 0, 67, 0
2, 100657, Note_on_c, 0, 69, 100
2, 100934, Note_on_c, 0, 69, 0
2, 100934, Note_on_c, 0, 73, 100
2, 101038, Note_on_c, 0, 73, 0
2, 101038, Note_on_c, 0, 72, 100
2, 101280, Note_on_c, 0, 72, 0
2, 101280, Note_on_c, 0, 75, 100
2, 101473, Note_on_c, 0, 75, 0
2, 101473, Note_on_c, 0, 76, 100
2, 101557, Note_on_c, 0, 76, 0
2, 101557, Note_on_c, 0, 74, 100
2, 101667, Note_on_c, 0, 74, 0
2, 101667, Note_on_c, 0, 72, 100
2, 101816, Note_on_c, 0, 72, 0
2, 101816, Note_on_c, 0, 71, 100
2, 102472, Note_on_c, 0, 71, 0
2, 102472, Note_on_c, 0, 75, 100
2, 102582, Note_on_c, 0, 75, 0
2, 102582, Note_on_c, 0, 55, 100
2, 102692, Note_on_c, 0, 55, 0
2, 102692, Note_on_c, 0, 57, 100
2, 102962, Note_on_c, 0, 57, 0
2, 102962, Note_on_c, 0, 45, 100
2, 103072, Note_on_c, 0, 45, 0
2, 103072, Note_on_c, 0, 72, 100
2, 103182, Note_on_c, 0, 72, 0
2, 103182, Note_on_c, 0, 76, 100
2, 103292, Note_on_c, 0, 76, 0
2, 103292, Note_on_c, 0, 74, 100
2, 103430, Note_on_c, 0, 74, 0
2, 103430, Note_on_c, 0, 72, 100
2, 103545, Note_on_c, 0, 72, 0
2, 103545, Note_on_c, 0, 78, 100
2, 103655, Note_on_c, 0, 78, 0
2, 103655, Note_on_c, 0, 81, 100
2, 103765, Note_on_c, 0, 81, 0
2, 103765, Note_on_c, 0, 78, 100
2, 103853, Note_on_c, 0, 78, 0
2, 103853, Note_on_c, 0, 76, 100
2, 103941, Note_on_c, 0, 76, 0
2, 103941, Note_on_c, 0, 79, 100
2, 104051, Note_on_c, 0, 79, 0
2, 104051, Note_on_c, 0, 78, 100
2, 104156, Note_on_c, 0, 78, 0
2, 104156, Note_on_c, 0, 79, 100
2, 104266, Note_on_c, 0, 79, 0
2, 104266, Note_on_c, 0, 83, 100
2, 104956, Note_on_c, 0, 83, 0
2, 104956, Note_on_c, 0, 84, 100
2, 105022, Note_on_c, 0, 84, 0
2, 105022, Note_on_c, 0, 83, 100
2, 105132, Note_on_c, 0, 83, 0
2, 105132, Note_on_c, 0, 72, 100
2, 105216, Note_on_c, 0, 72, 0
2, 105216, Note_on_c, 0, 69, 100
2, 105326, Note_on_c, 0, 69, 0
2, 105326, Note_on_c, 0, 67, 100
2, 105442, Note_on_c, 0, 67, 0
2, 105442, Note_on_c, 0, 74, 100
2, 106081, Note_on_c, 0, 74, 0
2, 106081, Note_on_c, 0, 69, 100
2, 106776, Note_on_c, 0, 69, 0
2, 106776, Note_on_c, 0, 66, 100
2, 106851, Note_on_c, 0, 66, 0
2, 106851, Note_on_c, 0, 69, 100
2, 106961, Note_on_c, 0, 69, 0
2, 106961, Note_on_c, 0, 67, 100
2, 107099, Note_on_c, 0, 67, 0
2, 107099, Note_on_c, 0, 66, 100
2, 107581, Note_on_c, 0, 66, 0
2, 107581, Note_on_c, 0, 67, 100
2, 107691, Note_on_c, 0, 67, 0
2, 107691, Note_on_c, 0, 66, 100
2, 108136, Note_on_c, 0, 66, 0
2, 108136, Note_on_c, 0, 64, 100
2, 108391, Note_on_c, 0, 64, 0
2, 108391, Note_on_c, 0, 62, 100
2, 108769, Note_on_c, 0, 62, 0
2, 108769, Note_on_c, 0, 71, 100
2, 109085, Note_on_c, 0, 71, 0
2, 109085, Note_on_c, 0, 79, 100
2, 109195, Note_on_c, 0, 79, 0
2, 109195, Note_on_c, 0, 69, 100
2, 109577, Note_on_c, 0, 69, 0
2, 109577, Note_on_c, 0, 74, 100
2, 109687, Note_on_c, 0, 74, 0
2, 109687, Note_on_c, 0, 81, 100
2, 109797, Note_on_c, 0, 81, 0
2, 109797, Note_on_c, 0, 79, 100
2, 110134, Note_on_c, 0, 79, 0
2, 110134, Note_on_c, 0, 78, 100
2, 110310, Note_on_c, 0, 78, 0
2, 110310, Note_on_c, 0, 76, 100
2, 110420, Note_on_c, 0, 76, 0
2, 110420, Note_on_c, 0, 78, 100
2, 110530, Note_on_c, 0, 78, 0
2, 110530, Note_on_c, 0, 76, 100
2, 110614, Note_on_c, 0, 76, 0
2, 110614, Note_on_c, 0, 79, 100
2, 110733, Note_on_c, 0, 79, 0
2, 110733, Note_on_c, 0, 77, 100
2, 110824, Note_on_c, 0, 77, 0
2, 110824, Note_on_c, 0, 74, 100
2, 111097, Note_on_c, 0, 74, 0
2, 111097, Note_on_c, 0, 73, 100
2, 111205, Note_on_c, 0, 73, 0
2, 111205, Note_on_c, 0, 72, 100
2, 111315, Note_on_c, 0, 72, 0
2, 111315, Note_on_c, 0, 71, 100
2, 111425, Note_on_c, 0, 71, 0
2, 111425, Note_on_c, 0, 69, 100
2, 111535, Note_on_c, 0, 69, 0
2, 111535, Note_on_c, 0, 67, 100
2, 111792, Note_on_c, 0, 67, 0
2, 111792, Note_on_c, 0, 64, 100
2, 112361, Note_on_c, 0, 64, 0
2, 112361, Note_on_c, 0, 73, 100
2, 112471, Note_on_c, 0, 73, 0
2, 112471, Note_on_c, 0, 71, 100
2, 112706, Note_on_c, 0, 71, 0
2, 112706, Note_on_c, 0, 67, 100
2, 112816, Note_on_c, 0, 67, 0
2, 112816, Note_on_c, 0, 74, 100
2, 113276, Note_on_c, 0, 74, 0
2, 113276, Note_on_c, 0, 57, 100
2, 113386, Note_on_c, 0, 57, 0
2, 113386, Note_on_c, 0, 60, 100
2, 113496, Note_on_c, 0, 60, 0
2, 113496, Note_on_c, 0, 57, 100
2, 113787, Note_on_c, 0, 57, 0
2, 113787, Note_on_c, 0, 55, 100
2, 113897, Note_on_c, 0, 55, 0
2, 113897, Note_on_c, 0, 57, 100
2, 114007, Note_on_c, 0, 57, 0
2, 114007, Note_on_c, 0, 50, 100
2, 114117, Note_on_c, 0, 50, 0
2, 114117, Note_on_c, 0, 55, 100
2, 114736, Note_on_c, 0, 55, 0
2, 114736, Note_on_c, 0, 57, 100
2, 114806, Note_on_c, 0, 57, 0
2, 114806, Note_on_c, 0, 55, 100
2, 114916, Note_on_c, 0, 55, 0
2, 114916, Note_on_c, 0, 54, 100
2, 115399, Note_on_c, 0, 54, 0
2, 115399, Note_on_c, 0, 52, 100
2, 115675, Note_on_c, 0, 52, 0
2, 115675, Note_on_c, 0, 54, 100
2, 115794, Note_on_c, 0, 54, 0
2, 115794, Note_on_c, 0, 55, 100
2, 116320, Note_on_c, 0, 55, 0
2, 116320, Note_on_c, 0, 57, 100
2, 116725, Note_on_c, 0, 57, 0
2, 116725, Note_on_c, 0, 55, 100
2, 116835, Note_on_c, 0, 55, 0
2, 116835, Note_on_c, 0, 57, 100
2, 116945, Note_on_c, 0, 57, 0
2, 116945, Note_on_c, 0, 59, 100
2, 117128, Note_on_c, 0, 59, 0
2, 117128, Note_on_c, 0, 57, 100
2, 117844, Note_on_c, 0, 57, 0
2, 117844, Note_on_c, 0, 54, 100
2, 117930, Note_on_c, 0, 54, 0
2, 117930, Note_on_c, 0, 55, 100
2, 118040, Note_on_c, 0, 55, 0
2, 118040, Note_on_c, 0, 57, 100
2, 118729, Note_on_c, 0, 57, 0
2, 118729, Note_on_c, 0, 59, 100
2, 118839, Note_on_c, 0, 59, 0
2, 118839, Note_on_c, 0, 57, 100
2, 119046, Note_on_c, 0, 57, 0
2, 119046, Note_on_c, 0, 55, 100
2, 119259, Note_on_c, 0, 55, 0
2, 119259, Note_on_c, 0, 59, 100
2, 119334, Note_on_c, 0, 59, 0
2, 119334, Note_on_c, 0, 57, 100
2, 119508, Note_on_c, 0, 57, 0
2, 119508, Note_on_c, 0, 55, 100
2, 119696, Note_on_c, 0, 55, 0
2, 119696, Note_on_c, 0, 57, 100
2, 119973, Note_on_c, 0, 57, 0
2, 119973, Note_on_c, 0, 59, 100
2, 120074, Note_on_c, 0, 59, 0
2, 120074, Note_on_c, 0, 57, 100
2, 120352, Note_on_c, 0, 57, 0
2, 120352, Note_on_c, 0, 54, 100
2, 120586, Note_on_c, 0, 54, 0
2, 120586, Note_on_c, 0, 50, 100
2, 121143, Note_on_c, 0, 50, 0
2, 121143, Note_on_c, 0, 54, 100
2, 121391, Note_on_c, 0, 54, 0
2, 121391, Note_on_c, 0, 50, 100
2, 121501, Note_on_c, 0, 50, 0
2, 121501, Note_on_c, 0, 43, 100
2, 121611, Note_on_c, 0, 43, 0
2, 121611, Note_on_c, 0, 54, 100
2, 122010, Note_on_c, 0, 54, 0
2, 122010, Note_on_c, 0, 55, 100
2, 122120, Note_on_c, 0, 55, 0
2, 122120, Note_on_c, 0, 57, 100
2, 122230, Note_on_c, 0, 57, 0
2, 122230, Note_on_c, 0, 59, 100
2, 122340, Note_on_c, 0, 59, 0
2, 122340, Note_on_c, 0, 52, 100
2, 122585, Note_on_c, 0, 52, 0
2, 122585, Note_on_c, 0, 55, 100
2, 122695, Note_on_c, 0, 55, 0
2, 122695, Note_on_c, 0, 59, 100
2, 122899, Note_on_c, 0, 59, 0
2, 122899, Note_on_c, 0, 55, 100
2, 123009, Note_on_c, 0, 55, 0
2, 123009, Note_on_c, 0, 60, 100
2, 123220, Note_on_c, 0, 60, 0
2, 123220, Note_on_c, 0, 59, 100
2, 123401, Note_on_c, 0, 59, 0
2, 123401, Note_on_c, 0, 57, 100
2, 124090, Note_on_c, 0, 57, 0
2, 124090, Note_on_c, 0, 59, 100
2, 124302, Note_on_c, 0, 59, 0
2, 124302, Note_on_c, 0, 60, 100
2, 124382, Note_on_c, 0, 60, 0
2, 124382, Note_on_c, 0, 47, 100
2, 124492, Note_on_c, 0, 47, 0
2, 124492, Note_on_c, 0, 50, 100
2, 124602, Note_on_c, 0, 50, 0
2, 124602, Note_on_c, 0, 43, 100
2, 124712, Note_on_c, 0, 43, 0
2, 124712, Note_on_c, 0, 55, 100
2, 124822, Note_on_c, 0, 55, 0
2, 124822, Note_on_c, 0, 54, 100
2, 124932, Note_on_c, 0, 54, 0
2, 124932, Note_on_c, 0, 52, 100
2, 125127, Note_on_c, 0, 52, 0
2, 125127, Note_on_c, 0, 54, 100
2, 125237, Note_on_c, 0, 54, 0
2, 125237, Note_on_c, 0, 57, 100
2, 125347, Note_on_c, 0, 57, 0
2, 125347, Note_on_c, 0, 45, 100
2, 125423, Note_on_c, 0, 45, 0
2, 125423, Note_on_c, 0, 47, 100
2, 125533, Note_on_c, 0, 47, 0
2, 125533, Note_on_c, 0, 48, 100
2, 125627, Note_on_c, 0, 48, 0
2, 125627, Note_on_c, 0, 47, 100
2, 125737, Note_on_c, 0, 47, 0
2, 125737, Note_on_c, 0, 48, 100
2, 125830, Note_on_c, 0, 48, 0
2, 125830, Note_on_c, 0, 52, 100
2, 126273, Note_on_c, 0, 52, 0
2, 126273, Note_on_c, 0, 54, 100
2, 126481, Note_on_c, 0, 54, 0
2, 126481, Note_on_c, 0, 52, 100
2, 126591, Note_on_c, 0, 52, 0
2, 126591, Note_on_c, 0, 54, 100
2, 126866, Note_on_c, 0, 54, 0
2, 126866, Note_on_c, 0, 55, 100
2, 126976, Note_on_c, 0, 55, 0
2, 126976, Note_on_c, 0, 57, 100
2, 127212, Note_on_c, 0, 57, 0
2, 127212, Note_on_c, 0, 50, 100
2, 127654, Note_on_c, 0, 50, 0
2, 127654, Note_on_c, 0, 60, 100
2, 128077, Note_on_c, 0, 60, 0
2, 128077, Note_on_c, 0, 59, 100
2, 128329, Note_on_c, 0, 59, 0
2, 128329, Note_on_c, 0, 64, 100
2, 128439, Note_on_c, 0, 64, 0
2, 128439, Note_on_c, 0, 62, 100
2, 128727, Note_on_c, 0, 62, 0
2, 128727, Note_on_c, 0, 60, 100
2, 128992, Note_on_c, 0, 60, 0
2, 128992, Note_on_c, 0, 57, 100
2, 129372, Note_on_c, 0, 57, 0
2, 129372, Note_on_c, 0, 62, 100
2, 130082, Note_on_c, 0, 62, 0
2, 130082, Note_on_c, 0, 60, 100
2, 130192, Note_on_c, 0, 60, 0
2, 130192, Note_on_c, 0, 66, 100
2, 130444, Note_on_c, 0, 66, 0
2, 130444, Note_on_c, 0, 54, 100
2, 130566, Note_on_c, 0, 54, 0
2, 130566, Note_on_c, 0, 55, 100
2, 130676, Note_on_c, 0, 55, 0
2, 130676, Note_on_c, 0, 57, 100
2, 131165, Note_on_c, 0, 57, 0
2, 131165, Note_on_c, 0, 54, 100
2, 131255, Note_on_c, 0, 54, 0
2, 131255, Note_on_c, 0, 57, 100
2, 131780, Note_on_c, 0, 57, 0
2, 131780, Note_on_c, 0, 59, 100
2, 131890, Note_on_c, 0, 59, 0
2, 131890, Note_on_c, 0, 57, 100
2, 132296, Note_on_c, 0, 57, 0
2, 132296, Note_on_c, 0, 55, 100
2, 132779, Note_on_c, 0, 55, 0
2, 132779, Note_on_c, 0, 54, 100
2, 132889, Note_on_c, 0, 54, 0
2, 132889, Note_on_c, 0, 59, 100
2, 132999, Note_on_c, 0, 59, 0
2, 132999, Note_on_c, 0, 57, 100
2, 133067, Note_on_c, 0, 57, 0
2, 133067, Note_on_c, 0, 62, 100
2, 133177, Note_on_c, 0, 62, 0
2, 133177, Note_on_c, 0, 60, 100
2, 133287, Note_on_c, 0, 60, 0
2, 133287, Note_on_c, 0, 59, 100
2, 133522, Note_on_c, 0, 59, 0
2, 133522, Note_on_c, 0, 52, 100
2, 133676, Note_on_c, 0, 52, 0
2, 133676, Note_on_c, 0, 48, 100
2, 134020, Note_on_c, 0, 48, 0
2, 134020, Note_on_c, 0, 47, 100
2, 134130, Note_on_c, 0, 47, 0
2, 134130, Note_on_c, 0, 50, 100
2, 134240, Note_on_c, 0, 50, 0
2, 134240, Note_on_c, 0, 49, 100
2, 134350, Note_on_c, 0, 49, 0
2, 134350, Note_on_c, 0, 50, 100
2, 134460, Note_on_c, 0, 50, 0
2, 134460, Note_on_c, 0, 47, 100
2, 134570, Note_on_c, 0, 47, 0
2, 134570, Note_on_c, 0, 48, 100
2, 134680, Note_on_c, 0, 48, 0
2, 134680, Note_on_c, 0, 47, 100
2, 135251, Note_on_c, 0, 47, 0
2, 135251, Note_on_c, 0, 48, 100
2, 135361, Note_on_c, 0, 48, 0
2, 135361, Note_on_c, 0, 57, 100
2, 135471, Note_on_c, 0, 57, 0
2, 135471, Note_on_c, 0, 59, 100
2, 135581, Note_on_c, 0, 59, 0
2, 135581, Note_on_c, 0, 57, 100
2, 135797, Note_on_c, 0, 57, 0
2, 135797, Note_on_c, 0, 55, 100
2, 135907, Note_on_c, 0, 55, 0
2, 135907, Note_on_c, 0, 57, 100
2, 136319, Note_on_c, 0, 57, 0
2, 136319, Note_on_c, 0, 55, 100
2, 136772, Note_on_c, 0, 55, 0
2, 136772, Note_on_c, 0, 57, 100
2, 137244, Note_on_c, 0, 57, 0
2, 137244, Note_on_c, 0, 59, 100
2, 137408, Note_on_c, 0, 59, 0
2, 137408, Note_on_c, 0, 62, 100
2, 137548, Note_on_c, 0, 62, 0
2, 137548, Note_on_c, 0, 67, 100
2, 137658, Note_on_c, 0, 67, 0
2, 137658, Note_on_c, 0, 57, 100
2, 137934, Note_on_c, 0, 57, 0
2, 137934, Note_on_c, 0, 55, 100
2, 138624, Note_on_c, 0, 55, 0
2, 138624, Note_on_c, 0, 57, 100
2, 139291, Note_on_c, 0, 57, 0
2, 139291, Note_on_c, 0, 50, 100
2, 139386, Note_on_c, 0, 50, 0
2, 139386, Note_on_c, 0, 52, 100
2, 139779, Note_on_c, 0, 52, 0
2, 139779, Note_on_c, 0, 72, 100
2, 139856, Note_on_c, 0, 72, 0
2, 139856, Note_on_c, 0, 81, 100
2, 140161, Note_on_c, 0, 81, 0
2, 140161, Note_on_c, 0, 79, 100
2, 140478, Note_on_c, 0, 79, 0
2, 140478, Note_on_c, 0, 83, 100
2, 140588, Note_on_c, 0, 83, 0
2, 140588, Note_on_c, 0, 67, 100
2, 140698, Note_on_c, 0, 67, 0
2, 140698, Note_on_c, 0, 76, 100
2, 140764, Note_on_c, 0, 76, 0
2, 140764, Note_on_c, 0, 74, 100
2, 140896, Note_on_c, 0, 74, 0
2, 140896, Note_on_c, 0, 72, 100
2, 141036, Note_on_c, 0, 72, 0
2, 141036, Note_on_c, 0, 66, 100
2, 141125, Note_on_c, 0, 66, 0
2, 141125, Note_on_c, 0, 54, 100
2, 141235, Note_on_c, 0, 54, 0
2, 141235, Note_on_c, 0, 52, 100
2, 141323, Note_on_c, 0, 52, 0
2, 141323, Note_on_c, 0, 54, 100
2, 141450, Note_on_c, 0, 54, 0
2, 141450, Note_on_c, 0, 55, 100
2, 141560, Note_on_c, 0, 55, 0
2, 141560, Note_on_c, 0, 57, 100
2, 142110, Note_on_c, 0, 57, 0
2, 142110, Note_on_c, 0, 55, 100
2, 142220, Note_on_c, 0, 55, 0
2, 142220, Note_on_c, 0, 43, 100
2, 142330, Note_on_c, 0, 43, 0
2, 142330, Note_on_c, 0, 45, 100
2, 142469, Note_on_c, 0, 45, 0
2, 142469, Note_on_c, 0, 43, 100
2, 142579, Note_on_c, 0, 43, 0
2, 142579, Note_on_c, 0, 78, 100
2, 142689, Note_on_c, 0, 78, 0
2, 142689, Note_on_c, 0, 79, 100
2, 142799, Note_on_c, 0, 79, 0
2, 142799, Note_on_c, 0, 78, 100
2, 142981, Note_on_c, 0, 78, 0
2, 142981, Note_on_c, 0, 81, 100
2, 143197, Note_on_c, 0, 81, 0
2, 143197, Note_on_c, 0, 79, 100
2, 143921, Note_on_c, 0, 79, 0
2, 143921, Note_on_c, 0, 81, 100
2, 144031, Note_on_c, 0, 81, 0
2, 144031, Note_on_c, 0, 74, 100
2, 144732, Note_on_c, 0, 74, 0
2, 144732, Note_on_c, 0, 76, 100
2, 144842, Note_on_c, 0, 76, 0
2, 144842, Note_on_c, 0, 79, 100
2, 144947, Note_on_c, 0, 79, 0
2, 144947, Note_on_c, 0, 83, 100
2, 145057, Note_on_c, 0, 83, 0
2, 145057, Note_on_c, 0, 81, 100
2, 145167, Note_on_c, 0, 81, 0
2, 145167, Note_on_c, 0, 54, 100
2, 145277, Note_on_c, 0, 54, 0
2, 145277, Note_on_c, 0, 81, 100
2, 145603, Note_on_c, 0, 81, 0
2, 145603, Note_on_c, 0, 79, 100
2, 145713, Note_on_c, 0, 79, 0
2, 145713, Note_on_c, 0, 78, 100
2, 145923, Note_on_c, 0, 78, 0
2, 145923, Note_on_c, 0, 72, 100
2, 146019, Note_on_c, 0, 72, 0
2, 146019, Note_on_c, 0, 74, 100
2, 146170, Note_on_c, 0, 74, 0
2, 146170, Note_on_c, 0, 72, 100
2, 146252, Note_on_c, 0, 72, 0
2, 146252, Note_on_c, 0, 71, 100
2, 146362, Note_on_c, 0, 71, 0
2, 146362, Note_on_c, 0, 73, 100
2, 146464, Note_on_c, 0, 73, 0
2, 146464, Note_on_c, 0, 72, 100
2, 146592, Note_on_c, 0, 72, 0
2, 146592, Note_on_c, 0, 67, 100
2, 146733, Note_on_c, 0, 67, 0
2, 146733, Note_on_c, 0, 66, 100
2, 146843, Note_on_c, 0, 66, 0
2, 146843, Note_on_c, 0, 67, 100
2, 146960, Note_on_c, 0, 67, 0
2, 146960, Note_on_c, 0, 71, 100
2, 147070, Note_on_c, 0, 71, 0
2, 147070, Note_on_c, 0, 69, 100
2, 147140, Note_on_c, 0, 69, 0
2, 147140, Note_on_c, 0, 79, 100
2, 147399, Note_on_c, 0, 79, 0
2, 147399, Note_on_c, 0, 78, 100
2, 147563, Note_on_c, 0, 78, 0
2, 147563, Note_on_c, 0, 81, 100
2, 148250, Note_on_c, 0, 81, 0
2, 148250, Note_on_c, 0, 70, 100
2, 148482, Note_on_c, 0, 70, 0
2, 148482, Note_on_c, 0, 69, 100
2, 148818, Note_on_c, 0, 69, 0
2, 148818, Note_on_c, 0, 78, 100
2, 149048, Note_on_c, 0, 78, 0
2, 149048, Note_on_c, 0, 79, 100
2, 149158, Note_on_c, 0, 79, 0
2, 149158, Note_on_c, 0, 78, 100
2, 149249, Note_on_c, 0, 78, 0
2, 149249, Note_on_c, 0, 76, 100
2, 149359, Note_on_c, 0, 76, 0
2, 149359, Note_on_c, 0, 74, 100
2, 149450, Note_on_c, 0, 74, 0
2, 149450, Note_on_c, 0, 76, 100
2, 149560, Note_on_c, 0, 76, 0
2, 149560, Note_on_c, 0, 71, 100
2, 150313, Note_on_c, 0, 71, 0
2, 150313, Note_on_c, 0, 69, 100
2, 150910, Note_on_c, 0, 69, 0
2, 150910, Note_on_c, 0, 67, 100
2, 151079, Note_on_c, 0, 67, 0
2, 151079, Note_on_c, 0, 64, 100
2, 151189, Note_on_c, 0, 64, 0
2, 151189, Note_on_c, 0, 79, 100
2, 151299, Note_on_c, 0, 79, 0
2, 151299, Note_on_c, 0, 78, 100
2, 151601, Note_on_c, 0, 78, 0
2, 151601, Note_on_c, 0, 76, 100
2, 151678, Note_on_c, 0, 76, 0
2, 151678, Note_on_c, 0, 78, 100
2, 151767, Note_on_c, 0, 78, 0
2, 151767, Note_on_c, 0, 61, 100
2, 151877, Note_on_c, 0, 61, 0
2, 151877, Note_on_c, 0, 62, 100
2, 151987, Note_on_c, 0, 62, 0
2, 151987, Note_on_c, 0, 61, 100
2, 152097, Note_on_c, 0, 61, 0
2, 152097, Note_on_c, 0, 57, 100
2, 152440, Note_on_c, 0, 57, 0
2, 152440, Note_on_c, 0, 55, 100
2, 152550, Note_on_c, 0, 55, 0
2, 152550, Note_on_c, 0, 54, 100
2, 153071, Note_on_c, 0, 54, 0
2, 153071, Note_on_c, 0, 55, 100
2, 153536, Note_on_c, 0, 55, 0
2, 153536, Note_on_c, 0, 54, 100
2, 153646, Note_on_c, 0, 54, 0
2, 153646, Note_on_c, 0, 55, 100
2, 153756, Note_on_c, 0, 55, 0
2, 153756, Note_on_c, 0, 57, 100
2, 154246, Note_on_c, 0, 57, 0
2, 154246, Note_on_c, 0, 54, 100
2, 154356, Note_on_c, 0, 54, 0
2, 154356, Note_on_c, 0, 55, 100
2, 154466, Note_on_c, 0, 55, 0
2, 154466, Note_on_c, 0, 57, 100
2, 154562, Note_on_c, 0, 57, 0
2, 154562, Note_on_c, 0, 59, 100
2, 154739, Note_on_c, 0, 59, 0
2, 154739, Note_on_c, 0, 84, 100
2, 154849, Note_on_c, 0, 84, 0
2, 154849, Note_on_c, 0, 43, 100
2, 155396, Note_on_c, 0, 43, 0
2, 155396, Note_on_c, 0, 54, 100
2, 155506, Note_on_c, 0, 54, 0
2, 155506, Note_on_c, 0, 55, 100
2, 155616, Note_on_c, 0, 55, 0
2, 155616, Note_on_c, 0, 57, 100
2, 155695, Note_on_c, 0, 57, 0
2, 155695, Note_on_c, 0, 59, 100
2, 156007, Note_on_c, 0, 59, 0
2, 156007, Note_on_c, 0, 57, 100
2, 156170, Note_on_c, 0, 57, 0
2, 156170, Note_on_c, 0, 48, 100
2, 156280, Note_on_c, 0, 48, 0
2, 156280, Note_on_c, 0, 74, 100
2, 156756, Note_on_c, 0, 74, 0
2, 156756, Note_on_c, 0, 76, 100
2, 156866, Note_on_c, 0, 76, 0
2, 156866, Note_on_c, 0, 78, 100
2, 157016, Note_on_c, 0, 78, 0
2, 157016, Note_on_c, 0, 81, 100
2, 157534, Note_on_c, 0, 81, 0
2, 157534, Note_on_c, 0, 78, 100
2, 157730, Note_on_c, 0, 78, 0
2, 157730, Note_on_c, 0, 81, 100
2, 157840, Note_on_c, 0, 81, 0
2, 157840, Note_on_c, 0, 78, 100
2, 157940, Note_on_c, 0, 78, 0
2, 157940, Note_on_c, 0, 76, 100
2, 158050, Note_on_c, 0, 76, 0
2, 158050, Note_on_c, 0, 73, 100
2, 158160, Note_on_c, 0, 73, 0
2, 158160, Note_on_c, 0, 71, 100
2, 158753, Note_on_c, 0, 71, 0
2, 158753, Note_on_c, 0, 67, 100
2, 159453, Note_on_c, 0, 67, 0
2, 159453, Note_on_c, 0, 74, 100
2, 159563, Note_on_c, 0, 74, 0
2, 159563, Note_on_c, 0, 69, 100
2, 159984, Note_on_c, 0, 69, 0
2, 159984, Note_on_c, 0, 67, 100
2, 160151, Note_on_c, 0, 67, 0
2, 160151, Note_on_c, 0, 64, 100
2, 160600, Note_on_c, 0, 64, 0
2, 160600, Note_on_c, 0, 66, 100
2, 160779, Note_on_c, 0, 66, 0
2, 160779, Note_on_c, 0, 67, 100
2, 160889, Note_on_c, 0, 67, 0
2, 160889, Note_on_c, 0, 66, 100
2, 160999, Note_on_c, 0, 66, 0
2, 160999, Note_on_c, 0, 67, 100
2, 161146, Note_on_c, 0, 67, 0
2, 161146, Note_on_c, 0, 66, 100
2, 161270, Note_on_c, 0, 66, 0
2, 161270, Note_on_c, 0, 64, 100
2, 161380, Note_on_c, 0, 64, 0
2, 161380, Note_on_c, 0, 55, 100
2, 161792, Note_on_c, 0, 55, 0
2, 161792, Note_on_c, 0, 47, 100
2, 162416, Note_on_c, 0, 47, 0
2, 162416, Note_on_c, 0, 69, 100
2, 162526, Note_on_c, 0, 69, 0
2, 162526, Note_on_c, 0, 81, 100
2, 162636, Note_on_c, 0, 81, 0
2, 162636, Note_on_c, 0, 74, 100
2, 163035, Note_on_c, 0, 74, 0
2, 163035, Note_on_c, 0, 69, 100
2, 163169, Note_on_c, 0, 69, 0
2, 163169, Note_on_c, 0, 71, 100
2, 163484, Note_on_c, 0, 71, 0
2, 163484, Note_on_c, 0, 69, 100
2, 164254, Note_on_c, 0, 69, 0
2, 164254, Note_on_c, 0, 67, 100
2, 164508, Note_on_c, 0, 67, 0
2, 164508, Note_on_c, 0, 65, 100
2, 164666, Note_on_c, 0, 65, 0
2, 164666, Note_on_c, 0, 63, 100
2, 164756, Note_on_c, 0, 63, 0
2, 164756, Note_on_c, 0, 54, 100
2, 164866, Note_on_c, 0, 54, 0
2, 164866, Note_on_c, 0, 50, 100
2, 165341, Note_on_c, 0, 50, 0
2, 165341, Note_on_c, 0, 59, 100
2, 165631, Note_on_c, 0, 59, 0
2, 165631, Note_on_c, 0, 60, 100
2, 165746, Note_on_c, 0, 60, 0
2, 165746, Note_on_c, 0, 67, 100
2, 165856, Note_on_c, 0, 67, 0
2, 165856, Note_on_c, 0, 72, 100
2, 166131, Note_on_c, 0, 72, 0
2, 166131, Note_on_c, 0, 71, 100
2, 166652, Note_on_c, 0, 71, 0
2, 166652, Note_on_c, 0, 69, 100
2, 167175, Note_on_c, 0, 69, 0
2, 167175, Note_on_c, 0, 74, 100
2, 167285, Note_on_c, 0, 74, 0
2, 167285, Note_on_c, 0, 73, 100
2, 167358, Note_on_c, 0, 73, 0
2, 167358, Note_on_c, 0, 75, 100
2, 167468, Note_on_c, 0, 75, 0
2, 167468, Note_on_c, 0, 76, 100
2, 167565, Note_on_c, 0, 76, 0
2, 167565, Note_on_c, 0, 78, 100
2, 167675, Note_on_c, 0, 78, 0
2, 167675, Note_on_c, 0, 76, 100
2, 167785, Note_on_c, 0, 76, 0
2, 167785, Note_on_c, 0, 71, 100
2, 167984, Note_on_c, 0, 71, 0
2, 167984, Note_on_c, 0, 69, 100
2, 168451, Note_on_c, 0, 69, 0
2, 168451, Note_on_c, 0, 79, 100
2, 168561, Note_on_c, 0, 79, 0
2, 168561, Note_on_c, 0, 78, 100
2, 168645, Note_on_c, 0, 78, 0
2, 168645, Note_on_c, 0, 79, 100
2, 168755, Note_on_c, 0, 79, 0
2, 168755, Note_on_c, 0, 78, 100
2, 168920, Note_on_c, 0, 78, 0
2, 168920, Note_on_c, 0, 50, 100
2, 169062, Note_on_c, 0, 50, 0
2, 169062, Note_on_c, 0, 52, 100
2, 169194, Note_on_c, 0, 52, 0
2, 169194, Note_on_c, 0, 50, 100
2, 169304, Note_on_c, 0, 50, 0
2, 169304, Note_on_c, 0, 49, 100
2, 169414, Note_on_c, 0, 49, 0
2, 169414, Note_on_c, 0, 47, 100
2, 169524, Note_on_c, 0, 47, 0
2, 169524, Note_on_c, 0, 54, 100
2, 170081, Note_on_c, 0, 54, 0
2, 170081, Note_on_c, 0, 55, 100
2, 170153, Note_on_c, 0, 55, 0
2, 170153, Note_on_c, 0, 54, 100
2, 170326, Note_on_c, 0, 54, 0
2, 170326, Note_on_c, 0, 52, 100
2, 170532, Note_on_c, 0, 52, 0
2, 170532, Note_on_c, 0, 50, 100
2, 170843, Note_on_c, 0, 50, 0
2, 170843, Note_on_c, 0, 52, 100
2, 170981, Note_on_c, 0, 52, 0
2, 170981, Note_on_c, 0, 55, 100
2, 171091, Note_on_c, 0, 55, 0
2, 171091, Note_on_c, 0, 57, 100
2, 171361, Note_on_c, 0, 57, 0
2, 171361, Note_on_c, 0, 59, 100
2, 171471, Note_on_c, 0, 59, 0
2, 171471, Note_on_c, 0, 60, 100
2, 171571, Note_on_c, 0, 60, 0
2, 171571, Note_on_c, 0, 62, 100
2, 171681, Note_on_c, 0, 62, 0
2, 171681, Note_on_c, 0, 59, 100
2, 171823, Note_on_c, 0, 59, 0
2, 171823, Note_on_c, 0, 57, 100
2, 171933, Note_on_c, 0, 57, 0
2, 171933, Note_on_c, 0, 55, 100
2, 172043, Note_on_c, 0, 55, 0
2, 172043, Note_on_c, 0, 60, 100
2, 172044, End_track
0, 0, End_of_file