0, 0, Header, 1, 2, 480
1, 0, Start_track
1, 0, Title_t, "Close Encounters"
1, 0, Text_t, "Sample for MIDIcsv Distribution"
1, 0, Copyright_t, "This file is in the public domain"
1, 0, Time_signature, 4, 2, 24, 8
1, 0, Tempo, 500000
1, 0, End_track
2, 0, Start_track
2, 0, Instrument_name_t, "Solo Lute or Keyboard"
2, 0, Program_c, 0, 19
2, 120, Note_on_c, 5, 57, 100
2, 240, Note_on_c, 6, 55, 100
2, 360, Note_on_c, 5, 54, 100
2, 480, Note_on_c, 5, 55, 100
2, 600, Note_on_c, 5, 57, 100
2, 720, Note_on_c, 5, 56, 100
2, 840, Note_on_c, 5, 57, 100
2, 960, Note_on_c, 5, 58, 100
2, 1080, Note_on_c, 5, 59, 100
2, 1200, Note_on_c, 5, 44, 100
2, 1320, Note_on_c, ,, 68, 100
2, 1440, Note_on_c, 5, 58, 100
2, 1560, Note_on_c, 5, 67, 100
2, 1680, Note_on_c, 5, 66, 100
2, 1800, Note_on_c, 5, 71, 100
2, 1920, Note_on_c, 5, 62, 100
2, 2040, Note_on_c, 5, 61, 100
2, 2160, Note_on_c, 5, 59, 100
2, 2280, Note_on_c, 5, 61, 100
2, 2400, Note_on_c, 5, 64, 100
2, 2520, Note_on_c, 5, 62, 100
2, 2640, Note_on_c, 5, 61, 100
2, 2760, Note_on_c, 5, 59, 100
2, 2880, Note_on_c, 5, 57, 100
2, 3000, Note_on_c, 5, 55, 100
2, 3120, Note_on_c, 5, 54, 100
2, 3240, Note_on_c, 5, 52, 100
2, 3360, Note_on_c, 5, 50, 100
2, 3480, Note_on_c, 5, 49, 100
2, 3600, Note_on_c, 5, 47, 100
2, 3720, Note_on_c, 5, 49, 100
2, 3840, Note_on_c, 5, 50, 100
2, 3960, Note_on_c, 5, 49, 100
2, 4080, Note_on_c, 5, 50, 100
2, 4200, Note_on_c, 5, 47, 100
2, 4320, Note_on_c, 5, 45, 100
2, 4440, Note_on_c, 5, 47, 100
2, 4560, Note_on_c, 5, 49, 100
2, 4680, Note_on_c, 5, 50, 100
2, 4800, Note_on_c, 5, 49, 100
2, 4920, Note_on_c, 5, 50, 100
2, 5040, Note_on_c, 5, 47, 100
2, 5160, Note_on_c, 5, 43, 100
2, 5280, Note_on_c, 5, 47, 100
2, 5400, Note_on_c, 5, 48, 100
2, 5520, Note_on_c, 5, 47, 100
2, 5640, Note_on_c, 5, 45, 100
2, 5760, Note_on_c, 5, 43, 100
2, 5880, Note_on_c, 5, 50, 100
2, 6000, Note_on_c, 5, 55, 100
2, 6120, Note_on_c, 5, 43, 100
2, 6240, Note_on_c, 5, 52, 100
2, 6360, Note_on_c, 5, 54, 100
2, 6480, Note_on_c, 5, 55, 100
2, 6600, Note_on_c, 5, 52, 100
2, 6720, Note_on_c, 5, 54, 100
2, 6840, Note_on_c, 5, 55, 100
2, 6960, Note_on_c, 5, 52, 100
2, 7080, Note_on_c, 5, 57, 100
2, 7200, Note_on_c, 5, 55, 100
2, 7320, Note_on_c, 5, 57, 100
2, 7440, Note_on_c, 5, 54, 100
2, 7560, Note_on_c, 5, 50, 100
2, 7680, Note_on_c, 5, 38, 100
2, 7800, Note_on_c, 5, 51, 100
2, 7920, Note_on_c, 5, 50, 100
2, 8040, Note_on_c, 5, 63, 100
2, 8160, Note_on_c, 5, 63, 100
2, 8280, Note_on_c, 5, 62, 100
2, 8400, Note_on_c, 5, 62, 100
2, 8520, Note_on_c, 5, 60, 100
2, 8640, Note_on_c, 5, 60, 100
2, 8760, Note_on_c, 5, 58, 100
2, 8880, Note_on_c, 5, 56, 100
2, 9000, Note_on_c, 5, 55, 100
2, 9120, Note_on_c, 5, 54, 100
2, 9240, Note_on_c, 5, 54, 100
2, 9360, Note_on_c, 5, 54, 100
2, 9480, Note_on_c, 5, 54, 100
2, 9600, Note_on_c, 5, 55, 100
2, 9720, Note_on_c, 5, 55, 100
2, 9840, Note_on_c, 5, 55, 100
2, 9960, Note_on_c, 5, 55, 100
2, 10080, Note_on_c, 5, 57, 100
2, 10200, Note_on_c, 5, 57, 100
2, 10320, Note_on_c, 5, 57, 100
2, 10440, Note_on_c, 5, 54, 100
2, 10560, Note_on_c, 5, 55, 100
2, 10680, Note_on_c, 5, 56, 100
2, 10800, Note_on_c, 5, 57, 100
2, 10920, Note_on_c, 5, 58, 100
2, 11040, Note_on_c, 5, 57, 100
2, 11160, Note_on_c, 5, 55, 100
2, 11280, Note_on_c, 5, 46, 100
2, 11400, Note_on_c, 5, 47, 100
2, 11520, Note_on_c, 5, 48, 100
2, 11640, Note_on_c, 5, 50, 100
2, 11760, Note_on_c, 5, 52, 100
2, 11880, Note_on_c, 5, 54, 100
2, 12000, Note_on_c, 5, 45, 100
2, 12120, Note_on_c, 5, 55, 100
2, 12240, Note_on_c, 5, 54, 100
2, 12360, Note_on_c, 5, 52, 100
2, 12480, Note_on_c, 5, 54, 100
2, 12600, Note_on_c, 5, 52, 100
2, 12720, Note_on_c, 5, 40, 100
2, 12840, Note_on_c, 5, 42, 100
2, 12960, Note_on_c, 5, 45, 100
2, 13080, Note_on_c, 5, 42, 100
2, 13200, Note_on_c, 5, 45, 100
2, 13320, Note_on_c, 5, 47, 100
2, 13440, Note_on_c, 5, 47, 100
2, 13560, Note_on_c, 5, 45, 100
2, 13680, Note_on_c, 5, 47, 100
2, 13800, Note_on_c, 5, 45, 100
2, 13920, Note_on_c, 5, 43, 100
2, 14040, Note_on_c, 5, 42, 100
2, 14160, Note_on_c, 5, 40, 100
2, 14280, Note_on_c, 5, 38, 100
2, 14400, Note_on_c, 5, 43, 100
2, 14520, Note_on_c, 5, 42, 100
2, 14640, Note_on_c, 5, 45, 100
2, 14760, Note_on_c, 5, 43, 100
2, 14880, Note_on_c, 5, 45, 100
2, 15000, Note_on_c, 5, 47, 100
2, 15120, Note_on_c, 5, 45, 100
2, 15240, Note_on_c, 5, 47, 100
2, 15360, Note_on_c, 5, 48, 100
2, 15480, Note_on_c, 5, 45, 100
2, 15600, Note_on_c, 5, 47, 100
2, 15720, Note_on_c, 5, 48, 100
2, 15840, Note_on_c, 5, 50, 100
2, 15960, Note_on_c, 5, 50, 100
2, 16080, Note_on_c, 5, 43, 100
2, 16200, Note_on_c, 5, 52, 100
2, 16320, Note_on_c, 5, 50, 100
2, 16440, Note_on_c, 5, 48, 100
2, 16560, Note_on_c, 5, 50, 100
2, 16680, Note_on_c, 5, 50, 100
2, 16800, Note_on_c, 5, 50, 100
2, 16920, Note_on_c, 5, 52, 100
2, 17040, Note_on_c, 5, 54, 100
2, 17160, Note_on_c, 5, 45, 100
2, 17280, Note_on_c, 5, 55, 100
2, 17400, Note_on_c, 5, 54, 100
2, 17520, Note_on_c, 5, 52, 100
2, 17640, Note_on_c, 5, 50, 100
2, 17760, Note_on_c, 5, 52, 100
2, 17880, Note_on_c, 5, 57, 100
2, 18000, Note_on_c, 5, 55, 100
2, 18120, Note_on_c, 5, 54, 100
2, 18240, Note_on_c, 5, 52, 100
2, 18360, Note_on_c, 5, 51, 100
2, 18480, Note_on_c, 5, 52, 100
2, 18600, Note_on_c, 5, 48, 100
2, 18720, Note_on_c, 5, 45, 100
2, 18840, Note_on_c,55, 47, 100
2, 18840, Note_on_c, 5, 47, 100
2, 18960, Note_on_c, 5, 47, 100
2, 19080, Note_on_c, 5, 49, 100
2, 19200, Note_on_c, 5, 50, 100
2, 19320, Note_on_c, 5, 52, 100
2, 19440, Note_on_c, 5, 50, 100
2, 19560, Note_on_c, 5, 49, 100
2, 19680, Note_on_c, 5, 47, 100
2, 19800, Note_on_c, 5, 45, 100
2, 19920, Note_on_c, 5, 52, 100
2, 20040, Note_on_c, 5, 51, 100
2, 20160, Note_on_c, 5, 54, 100
2, 20280, Note_on_c, 5, 52, 100
2, 20400, Note_on_c, 5, 54, 100
2, 20520, Note_on_c, 5, 55, 100
2, 20640, Note_on_c, 5, 52, 100
2, 20760, Note_on_c, 5, 55, 100
2, 20880, Note_on_c, 5, 59, 100
2, 21000, Note_on_c, 5, 47, 100
2, 21120, Note_on_c, 5, 49, 100
2, 21240, Note_on_c, 5, 50, 100
2, 21360, Note_on_c, 5, 47, 100
2, 21480, Note_on_c, 5, 49, 100
2, 21600, Note_on_c, 5, 50, 100
2, 21720, Note_on_c, 5, 52, 100
2, 21840, Note_on_c, 5, 50, 100
2, 21960, Note_on_c, 5, 45, 100
2, 22080, Note_on_c, 5, 47, 100
2, 22200, Note_on_c, 5, 49, 100
2, 22320, Note_on_c, 5, 45, 100
2, 22440, Note_on_c, 5, 47, 100
2, 22560, Note_on_c, 5, 48, 100
2, 22680, Note_on_c, 5, 50, 100
2, 22800, Note_on_c, 5, 51, 100
2, 22920, Note_on_c, 5, 60, 100
2, 23040, Note_on_c, 5, 57, 100
2, 23160, Note_on_c, 5, 59, 100
2, 23280, Note_on_c, 5, 57, 100
2, 23400, Note_on_c, 5, 59, 100
2, 23520, Note_on_c, 5, 55, 100
2, 23640, Note_on_c, 5, 57, 100
2, 23760, Note_on_c, 5, 55, 100
2, 23880, Note_on_c, 5, 54, 100
2, 24000, Note_on_c, 5, 55, 100
2, 24120, Note_on_c, 5, 57, 100
2, 24240, Note_on_c, 5, 59, 100
2, 24360, Note_on_c, 5, 47, 100
2, 24480, Note_on_c, 5, 62, 100
2, 24600, Note_on_c, 5, 64, 100
2, 24720, Note_on_c, 5, 62, 100
2, 24840, Note_on_c, 5, 60, 100
2, 24960, Note_on_c, 5, 59, 100
2, 25080, Note_on_c, 5, 60, 100
2, 25200, Note_on_c, 5, 62, 100
2, 25320, Note_on_c, 5, 60, 100
2, 25440, Note_on_c, 5, 59, 100
2, 25560, Note_on_c, 5, 57, 100
2, 25680, Note_on_c, 5, 59, 100
2, 25800, Note_on_c, 5, 64, 100
2, 25920, Note_on_c, 5, 62, 100
2, 26040, Note_on_c, 5, 60, 100
2, 26160, Note_on_c, 5, 59, 100
2, 26280, Note_on_c, 5, 60, 100
2, 26400, Note_on_c, 5, 57, 100
2, 26520, Note_on_c, 5, 59, 100
2, 26640, Note_on_c, 5, 47, 100
2, 26760, Note_on_c, 5, 49, 100
2, 26880, Note_on_c, 5, 51, 100
2, 27000, Note_on_c, 5, 40, 100
2, 27120, Note_on_c, 5, 55, 100
2, 27240, Note_on_c, 5, 57, 100
2, 27360, Note_on_c, 5, 55, 100
2, 27480, Note_on_c, 5, 54, 100
2, 27600, Note_on_c, 5, 55, 100
2, 27720, Note_on_c, 5, 54, 100
2, 27840, Note_on_c, 5, 52, 100
2, 27960, Note_on_c, 5, 54, 100
2, 28080, Note_on_c, 5, 52, 100
2, 28200, Note_on_c, 5, 50, 100
2, 28320, Note_on_c, 5, 49, 100
2, 28440, Note_on_c, 5, 50, 100
2, 28560, Note_on_c, 5, 47, 100
2, 28680, Note_on_c, 5, 43, 100
2, 28800, Note_on_c, 5, 47, 100
2, 28920, Note_on_c, 5, 45, 100
2, 29040, Note_on_c, 5, 43, 100
2, 29160, Note_on_c, 5, 45, 100
2, 29280, Note_on_c, 5, 47, 100
2, 29400, Note_on_c, 5, 48, 100
2, 29520, Note_on_c, 5, 47, 100
2, 29640, Note_on_c, 5, 48, 100
2, 29760, Note_on_c, 5, 50, 100
2, 29880, Note_on_c, 5, 43, 100
2, 30000, Note_on_c, 5, 55, 100
2, 30120, Note_on_c, 5, 57, 100
2, 30240, Note_on_c, 5, 59, 100
2, 30360, Note_on_c, 5, 60, 100
2, 30480, Note_on_c, 5, 54, 100
2, 30600, Note_on_c, 5, 55, 100
2, 30720, Note_on_c, 5, 57, 100
2, 30840, Note_on_c, 5, 59, 100
2, 30960, Note_on_c, 5, 50, 100
2, 31080, Note_on_c, 5, 48, 100
2, 31200, Note_on_c, 5, 47, 100
2, 31320, Note_on_c, 5, 48, 100
2, 31440, Note_on_c, 5, 47, 100
2, 31560, Note_on_c, 5, 45, 100
2, 31680, Note_on_c, 5, 43, 100
2, 31800, Note_on_c, 5, 45, 100
2, 31920, Note_on_c, 5, 47, 100
2, 32040, Note_on_c, 5, 48, 100
2, 32160, Note_on_c, 5, 50, 100
2, 32280, Note_on_c, 5, 48, 100
2, 32400, Note_on_c, 5, 49, 100
2, 32520, Note_on_c, 5, 50, 100
2, 32640, Note_on_c, 5, 48, 100
2, 32760, Note_on_c, 5, 47, 100
2, 32880, Note_on_c, 5, 43, 100
2, 33000, Note_on_c, 5, 45, 100
2, 33120, Note_on_c, 5, 47, 100
2, 33240, Note_on_c, 5, 40, 100
2, 33360, Note_on_c, 5, 43, 100
2, 33480, Note_on_c, 5, 42, 100
2, 33600, Note_on_c, 5, 40, 100
2, 33720, Note_on_c, 5, 38, 100
2, 33840, Note_on_c, 5, 43, 100
2, 33960, Note_on_c, 5, 50, 100
2, 34080, Note_on_c, 5, 48, 100
2, 34200, Note_on_c, 5, 50, 100
2, 34320, Note_on_c, 5, 55, 100
2, 34440, Note_on_c, 5, 50, 100
2, 34560, Note_on_c, 5, 48, 100
2, 34680, Note_on_c, 5, 46, 100
2, 34800, Note_on_c, 5, 48, 100
2, 34920, Note_on_c, 5, 47, 100
2, 35040, Note_on_c, 5, 45, 100
2, 35160, Note_on_c, 5, 46, 100
2, 35280, Note_on_c, 5, 43, 100
2, 35400, Note_on_c, 5, 42, 100
2, 35520, Note_on_c, 5, 40, 100
2, 35640, Note_on_c, 5, 38, 100
2, 35760, Note_on_c, 5, 43, 100
2, 35880, Note_on_c, 5, 47, 100
2, 36000, Note_on_c, 5, 45, 100
2, 36120, Note_on_c, 5, 43, 100
2, 36240, Note_on_c, 5, 50, 100
2, 36360, Note_on_c, 5, 55, 100
2, 36480, Note_on_c, 5, 43, 100
2, 36600, Note_on_c, 5, 52, 100
2, 36720, Note_on_c, 5, 54, 100
2, 36840, Note_on_c, 5, 55, 100
2, 36960, Note_on_c, 5, 52, 100
2, 37080, Note_on_c, 5, 54, 100
2, 37200, Note_on_c, 5, 55, 100
2, 37320, Note_on_c, 5, 57, 100
2, 37440, Note_on_c, 5, 59, 100
2, 37560, Note_on_c, 5, 57, 100
2, 37680, Note_on_c, 5, 55, 100
2, 37800, Note_on_c, 5, 54, 100
2, 37920, Note_on_c, 5, 52, 100
2, 38040, Note_on_c, 5, 54, 100
2, 38160, Note_on_c, 5, 52, 100
2, 38280, Note_on_c, 5, 54, 100
2, 38400, Note_on_c, 5, 52, 100
2, 38520, Note_on_c, 5, 50, 100
2, 38640, Note_on_c, 5, 49, 100
2, 38760, Note_on_c, 5, 50, 100
2, 38880, Note_on_c, 5, 47, 100
2, 39000, Note_on_c, 5, 49, 100
2, 39120, Note_on_c, 5, 45, 100
2, 39240, Note_on_c, 5, 47, 100
2, 39360, Note_on_c, 5, 48, 100
2, 39480, Note_on_c, 5, 50, 100
2, 39600, Note_on_c, 5, 48, 100
2, 39720, Note_on_c, 5, 47, 100
2, 39840, Note_on_c, 5, 45, 100
2, 39960, Note_on_c, 5, 40, 100
2, 40080, Note_on_c, 5, 45, 100
2, 40200, Note_on_c, 5, 47, 100
2, 40320, Note_on_c, 5, 48, 100
2, 40440, Note_on_c, 5, 50, 100
2, 40560, Note_on_c, 5, 48, 100
2, 40680, Note_on_c, 5, 49, 100
2, 40800, Note_on_c, 5, 50, 100
2, 40920, Note_on_c, 5, 55, 100
2, 41040, Note_on_c, 5, 52, 100
2, 41160, Note_on_c, 5, 50, 100
2, 41280, Note_on_c, 5, 43, 100
2, 41400, Note_on_c, 5, 41, 100
2, 41520, Note_on_c, 5, 43, 100
2, 41640, Note_on_c, 5, 54, 100
2, 41760, Note_on_c, 5, 55, 100
2, 41880, Note_on_c, 5, 51, 100
2, 42000, Note_on_c, 5, 50, 100
2, 42120, Note_on_c, 5, 50, 100
2, 42240, Note_on_c, 5, 49, 100
2, 42360, Note_on_c, 5, 47, 100
2, 42480, Note_on_c, 5, 45, 100
2, 42600, Note_on_c, 5, 33, 100
2, 42720, Note_on_c, 5, 54, 100
2, 42840, Note_on_c, 5, 59, 100
2, 42960, Note_on_c, 5, 50, 100
2, 43080, Note_on_c, 5, 52, 100
2, 43200, Note_on_c, 5, 50, 100
2, 43320, Note_on_c, 5, 48, 100
2, 43440, Note_on_c, 5, 47, 100
2, 43560, Note_on_c, 5, 45, 100
2, 43680, Note_on_c, 5, 43, 100
2, 43800, Note_on_c, 5, 42, 100
2, 43920, Note_on_c, 5, 43, 100
2, 44040, Note_on_c, 5, 47, 100
2, 44160, Note_on_c, 5, 50, 100
2, 44280, Note_on_c, 5, 59, 100
2, 44400, Note_on_c, 5, 57, 100
2, 44520, Note_on_c, 5, 55, 100
2, 44640, Note_on_c, 5, 54, 100
2, 44760, Note_on_c, 5, 52, 100
2, 44880, Note_on_c, 5, 57, 100
2, 45000, Note_on_c, 5, 55, 100
2, 45120, Note_on_c, 5, 54, 100
2, 45240, Note_on_c, 5, 52, 100
2, 45360, Note_on_c, 5, 50, 100
2, 45480, Note_on_c, 5, 48, 100
2, 45600, Note_on_c, 5, 47, 100
2, 45720, Note_on_c, 5, 48, 100
2, 45840, Note_on_c, 5, 47, 100
2, 45960, Note_on_c, 5, 48, 100
2, 46080, Note_on_c, 5, 57, 100
2, 46200, Note_on_c, 5, 47, 100
2, 46320, Note_on_c, 5, 45, 100
2, 46440, Note_on_c, 5, 47, 100
2, 46560, Note_on_c, 5, 55, 100
2, 46680, Note_on_c, 5, 45, 100
2, 46800, Note_on_c, 5, 43, 100
2, 46920, Note_on_c, 5, 45, 100
2, 47040, Note_on_c, 5, 55, 100
2, 47160, Note_on_c, 5, 54, 100
2, 47280, Note_on_c, 5, 50, 100
2, 47400, Note_on_c, 5, 48, 100
2, 47520, Note_on_c, 5, 52, 100
2, 47640, Note_on_c, 5, 50, 100
2, 47760, Note_on_c, 5, 48, 100
2, 47880, Note_on_c, 5, 47, 100
2, 48000, Note_on_c, 5, 45, 100
2, 48120, Note_on_c, 5, 48, 100
2, 48240, Note_on_c, 5, 52, 100
2, 48360, Note_on_c, 5, 50, 100
2, 48480, Note_on_c, 5, 48, 100
2, 48600, Note_on_c, 5, 47, 100
2, 48720, Note_on_c, 5, 45, 100
2, 48840, Note_on_c, 5, 48, 100
2, 48960, Note_on_c, 5, 52, 100
2, 49080, Note_on_c, 5, 55, 100
2, 49200, Note_on_c, 5, 54, 100
2, 49320, Note_on_c, 5, 52, 100
2, 49440, Note_on_c, 5, 54, 100
2, 49560, Note_on_c, 5, 43, 100
2, 49680, Note_on_c, 5, 55, 100
2, 49800, Note_on_c, 5, 54, 100
2, 49920, Note_on_c, 5, 57, 100
2, 50040, Note_on_c, 5, 50, 100
2, 50160, Note_on_c, 5, 50, 100
2, 50280, Note_on_c, 5, 46, 100
2, 50400, Note_on_c, 5, 47, 100
2, 50520, Note_on_c, 5, 49, 100
2, 50640, Note_on_c, 5, 50, 100
2, 50760, Note_on_c, 5, 52, 100
2, 50880, Note_on_c, 5, 54, 100
2, 51000, Note_on_c, 5, 52, 100
2, 51120, Note_on_c, 5, 50, 100
2, 51240, Note_on_c, 5, 49, 100
2, 51360, Note_on_c, 5, 47, 100
2, 51480, Note_on_c, 5, 49, 100
2, 51600, Note_on_c, 5, 50, 100
2, 51720, Note_on_c, 5, 47, 100
2, 51840, Note_on_c, 5, 52, 100
2, 51960, Note_on_c, 5, 54, 100
2, 52080, Note_on_c, 5, 55, 100
2, 52200, Note_on_c, 5, 54, 100
2, 52320, Note_on_c, 5, 52, 100
2, 52440, Note_on_c, 5, 54, 100
2, 52560, Note_on_c, 5, 50, 100
2, 52680, Note_on_c, 5, 55, 100
2, 52800, Note_on_c, 5, 54, 100
2, 52920, Note_on_c, 5, 52, 100
2, 53040, Note_on_c, 5, 54, 100
2, 53160, Note_on_c, 5, 57, 100
2, 53280, Note_on_c, 5, 59, 100
2, 53400, Note_on_c, 5, 61, 100
2, 53520, Note_on_c, 5, 62, 100
2, 53640, Note_on_c, 5, 60, 100
2, 53760, Note_on_c, 5, 59, 100
2, 53880, Note_on_c, 5, 57, 100
2, 54000, Note_on_c, 5, 59, 100
2, 54120, Note_on_c, 5, 60, 100
2, 54240, Note_on_c, 5, 59, 100
2, 54360, Note_on_c, 5, 57, 100
2, 54480, Note_on_c, 5, 59, 100
2, 54600, Note_on_c, 5, 64, 100
2, 54720, Note_on_c, 5, 62, 100
2, 54840, Note_on_c, 5, 60, 100
2, 54960, Note_on_c, 5, 59, 100
2, 55080, Note_on_c, 5, 60, 100
2, 55200, Note_on_c, 5, 54, 100
2, 55320, Note_on_c, 5, 55, 100
2, 55440, Note_on_c, 5, 57, 100
2, 55560, Note_on_c, 5, 59, 100
2, 55680, Note_on_c, 5, 71, 100
2, 55800, Note_on_c, 5, 72, 100
2, 55920, Note_on_c, 5, 71, 100
2, 56040, Note_on_c, 5, 69, 100
2, 56160, Note_on_c, 5, 71, 100
2, 56280, Note_on_c, 5, 71, 100
2, 56400, Note_on_c, 5, 69, 100
2, 56520, Note_on_c, 5, 71, 100
2, 56640, Note_on_c, 5, 73, 100
2, 56760, Note_on_c, 5, 76, 100
2, 56880, Note_on_c, 5, 78, 100
2, 57000, Note_on_c, 5, 71, 100
2, 57120, Note_on_c, 5, 78, 100
2, 57240, Note_on_c, 5, 76, 100
2, 57360, Note_on_c, 5, 75, 100
2, 57480, Note_on_c, 5, 76, 100
2, 57600, Note_on_c, 5, 71, 100
2, 57720, Note_on_c, 5, 69, 100
2, 57840, Note_on_c, 5, 67, 100
2, 57960, Note_on_c, 5, 66, 100
2, 58080, Note_on_c, 5, 67, 100
2, 58200, Note_on_c, 5, 64, 100
2, 58320, Note_on_c, 5, 57, 100
2, 58440, Note_on_c, 5, 62, 100
2, 58560, Note_on_c, 5, 62, 100
2, 58680, Note_on_c, 5, 60, 100
2, 58800, Note_on_c, 5, 59, 100
2, 58920, Note_on_c, 5, 60, 100
2, 59040, Note_on_c, 5, 59, 100
2, 59160, Note_on_c, 5, 57, 100
2, 59280, Note_on_c, 5, 55, 100
2, 59400, Note_on_c, 5, 57, 100
2, 59520, Note_on_c, 5, 54, 100
2, 59640, Note_on_c, 5, 55, 100
2, 59760, Note_on_c, 5, 52, 100
2, 59880, Note_on_c, 5, 57, 100
2, 60000, Note_on_c, 5, 55, 100
2, 60120, Note_on_c, 5, 57, 100
2, 60240, Note_on_c, 5, 59, 100
2, 60360, Note_on_c, 5, 60, 100
2, 60480, Note_on_c, 5, 59, 100
2, 60600, Note_on_c, 5, 57, 100
2, 60720, Note_on_c, 5, 57, 100
2, 60840, Note_on_c, 5, 59, 100
2, 60960, Note_on_c, 5, 57, 100
2, 61080, Note_on_c, 5, 56, 100
2, 61200, Note_on_c, 5, 44, 100
2, 61320, Note_on_c, 5, 55, 100
2, 61440, Note_on_c, 5, 57, 100
2, 61560, Note_on_c, 5, 59, 100
2, 61680, Note_on_c, 5, 55, 100
2, 61800, Note_on_c, 5, 43, 100
2, 61920, Note_on_c, 5, 55, 100
2, 62040, Note_on_c, 5, 54, 100
2, 62160, Note_on_c, 5, 54, 100
2, 62280, Note_on_c, 5, 52, 100
2, 62400, Note_on_c, 5, 50, 100
2, 62520, Note_on_c, 5, 52, 100
2, 62640, Note_on_c, 5, 50, 100
2, 62760, Note_on_c, 5, 48, 100
2, 62880, Note_on_c, 5, 50, 100
2, 63000, Note_on_c, 5, 48, 100
2, 63120, Note_on_c, 5, 47, 100
2, 63240, Note_on_c, 5, 49, 100
2, 63360, Note_on_c,55, 47, 100
2, 63360, Note_on_c, 5, 45, 100
2, 63480, Note_on_c, 5, 49, 100
2, 63600, Note_on_c, 5, 50, 100
2, 63720, Note_on_c, 5, 52, 100
2, 63840, Note_on_c, 5, 50, 100
2, 63960, Note_on_c, 5, 48, 100
2, 64080, Note_on_c, 5, 47, 100
2, 64200, Note_on_c, 5, 45, 100
2, 64320, Note_on_c, 5, 48, 100
2, 64440, Note_on_c, 5, 47, 100
2, 64560, Note_on_c, 5, 48, 100
2, 64680, Note_on_c, 5, 50, 100
2, 64800, Note_on_c, 5, 43, 100
2, 64920, Note_on_c, 5, 43, 100
2, 65040, Note_on_c, 5, 47, 100
2, 65160, Note_on_c, 5, 50, 100
2, 65280, Note_on_c, 5, 55, 100
2, 65400, Note_on_c, 5, 50, 100
2, 65520, Note_on_c, 5, 62, 100
2, 65640, Note_on_c, 5, 60, 100
2, 65760, Note_on_c, 5, 60, 100
2, 65880, Note_on_c, 5, 59, 100
2, 66000, Note_on_c, 5, 60, 100
2, 66120, Note_on_c, 5, 59, 100
2, 66240, Note_on_c, 5, 60, 100
2, 66360, Note_on_c, 5, 59, 100
2, 66480, Note_on_c, 5, 62, 100
2, 66600, Note_on_c, 5, 60, 100
2, 66720, Note_on_c, 5, 59, 100
2, 66840, Note_on_c, 5, 57, 100
2, 66960, Note_on_c, 5, 59, 100
2, 67080, Note_on_c, 5, 60, 100
2, 67200, Note_on_c, 5, 59, 100
2, 67320, Note_on_c, 5, 60, 100
2, 67440, Note_on_c, 5, 59, 100
2, 67560, Note_on_c, 5, 57, 100
2, 67680, Note_on_c, 5, 59, 100
2, 67800, Note_on_c, 5, 64, 100
2, 67920, Note_on_c, 5, 62, 100
2, 68040, Note_on_c, 5, 60, 100
2, 68160, Note_on_c, 5, 59, 100
2, 68280, Note_on_c, 5, 60, 100
2, 68400, Note_on_c, 5, 54, 100
2, 68520, Note_on_c, 5, 55, 100
2, 68640, Note_on_c, 5, 46, 100
2, 68760, Note_on_c, 5, 57, 100
2, 68880, Note_on_c, 5, 57, 100
2, 69000, Note_on_c, 5, 60, 100
2, 69120, Note_on_c, 5, 52, 100
2, 69240, Note_on_c, 5, 45, 100
2, 69360, Note_on_c, 5, 47, 100
2, 69480, Note_on_c, 5, 55, 100
2, 69600, Note_on_c, 5, 55, 100
2, 69720, Note_on_c, 5, 57, 100
2, 69840, Note_on_c, 5, 55, 100
2, 69960, Note_on_c, 5, 53, 100
2, 70080, Note_on_c, 5, 52, 100
2, 70200, Note_on_c, 5, 50, 100
2, 70320, Note_on_c, 5, 48, 100
2, 70440, Note_on_c, 5, 47, 100
2, 70560, Note_on_c, 5, 48, 100
2, 70680, Note_on_c, 5, 47, 100
2, 70800, Note_on_c, 5, 49, 100
2, 70920, Note_on_c, 5, 50, 100
2, 71040, Note_on_c, 5, 52, 100
2, 71160, Note_on_c, 5, 54, 100
2, 71280, Note_on_c, 5, 50, 100
2, 71400, Note_on_c, 5, 55, 100
2, 71520, Note_on_c, 5, 57, 100
2, 71640, Note_on_c, 5, 55, 100
2, 71760, Note_on_c, 5, 54, 100
2, 71880, Note_on_c, 5, 55, 100
2, 72000, Note_on_c, 5, 50, 100
2, 72120, Note_on_c, 5, 43, 100
2, 72240, Note_on_c, 5, 55, 100
2, 72360, Note_on_c, 5, 57, 100
2, 72480, Note_on_c, 5, 59, 100
2, 72600, Note_on_c, 5, 60, 100
2, 72720, Note_on_c, 5, 62, 100
2, 72840, Note_on_c, 5, 60, 100
2, 72960, Note_on_c, 5, 62, 100
2, 73080, Note_on_c, 5, 60, 100
2, 73200, Note_on_c, 5, 58, 100
2, 73320, Note_on_c, 5, 57, 100
2, 73440, Note_on_c, 5, 59, 100
2, 73560, Note_on_c, 5, 60, 100
2, 73680, Note_on_c, 5, 59, 100
2, 73800, Note_on_c, 5, 57, 100
2, 73920, Note_on_c, 5, 55, 100
2, 74040, Note_on_c, 5, 54, 100
2, 74160, Note_on_c, 5, 52, 100
2, 74280, Note_on_c, 5, 54, 100
2, 74400, Note_on_c, 5, 55, 100
2, 74520, Note_on_c, 5, 54, 100
2, 74640, Note_on_c, 5, 55, 100
2, 74760, Note_on_c, 5, 52, 100
2, 74880, Note_on_c, 5, 50, 100
2, 75000, Note_on_c, 5, 52, 100
2, 75120, Note_on_c, 5, 54, 100
2, 75240, Note_on_c, 5, 52, 100
2, 75360, Note_on_c, 5, 54, 100
2, 75480, Note_on_c, 5, 51, 100
2, 75600, Note_on_c, 5, 49, 100
2, 75720, Note_on_c, 5, 51, 100
2, 75840, Note_on_c, 5, 52, 100
2, 75960, Note_on_c, 5, 50, 100
2, 76080, Note_on_c, 5, 48, 100
2, 76200, Note_on_c, 5, 47, 100
2, 76320, Note_on_c, 5, 48, 100
2, 76440, Note_on_c, 5, 45, 100
2, 76560, Note_on_c, 5, 50, 100
2, 76680, Note_on_c, 5, 43, 100
2, 76800, Note_on_c, 5, 42, 100
2, 76920, Note_on_c, 5, 50, 100
2, 77040, Note_on_c, 5, 55, 100
2, 77160, Note_on_c, 5, 50, 100
2, 77280, Note_on_c, 5, 48, 100
2, 77400, Note_on_c, 5, 47, 100
2, 77520, Note_on_c, 5, 48, 100
2, 77640, Note_on_c, 5, 47, 100
2, 77760, Note_on_c, 5, 45, 100
2, 77880, Note_on_c, 5, 43, 100
2, 78000, Note_on_c, 5, 45, 100
2, 78120, Note_on_c, 5, 47, 100
2, 78240, Note_on_c, 5, 49, 100
2, 78360, Note_on_c, 5, 51, 100
2, 78480, Note_on_c, 5, 42, 100
2, 78600, Note_on_c, 5, 45, 100
2, 78720, Note_on_c, 5, 47, 100
2, 78840, Note_on_c, 5, 45, 100
2, 78960, Note_on_c, 5, 43, 100
2, 79080, Note_on_c, 5, 42, 100
2, 79200, Note_on_c, 5, 54, 100
2, 79320, Note_on_c, 5, 59, 100
2, 79440, Note_on_c, 5, 55, 100
2, 79560, Note_on_c, 5, 52, 100
2, 79680, Note_on_c, 5, 54, 100
2, 79800, Note_on_c, 5, 50, 100
2, 79920, Note_on_c, 5, 48, 100
2, 80040, Note_on_c, 5, 47, 100
2, 80160, Note_on_c, 5, 48, 100
2, 80280, Note_on_c, 5, 47, 100
2, 80400, Note_on_c, 5, 45, 100
2, 80520, Note_on_c, 5, 44, 100
2, 80640, Note_on_c, 5, 45, 100
2, 80760, Note_on_c, 5, 57, 100
2, 80880, Note_on_c, 5, 59, 100
2, 81000, Note_on_c, 5, 57, 100
2, 81120, Note_on_c, 5, 55, 100
2, 81240, Note_on_c, 5, 57, 100
2, 81360, Note_on_c, 5, 55, 100
2, 81480, Note_on_c, 5, 54, 100
2, 81600, Note_on_c, 5, 52, 100
2, 81720, Note_on_c, 5, 54, 100
2, 81840, Note_on_c, 5, 52, 100
2, 81960, Note_on_c, 5, 54, 100
2, 82080, Note_on_c, 5, 50, 100
2, 82200, Note_on_c, 5, 52, 100
2, 82320, Note_on_c, 5, 50, 100
2, 82440, Note_on_c, 5, 47, 100
2, 82560, Note_on_c, 5, 43, 100
2, 82680, Note_on_c, 5, 45, 100
2, 82800, Note_on_c, 5, 57, 100
2, 82920, Note_on_c, 5, 46, 100
2, 83040, Note_on_c, 5, 62, 100
2, 83160, Note_on_c, 5, 57, 100
2, 83280, Note_on_c, 5, 57, 100
2, 83400, Note_on_c, 5, 55, 100
2, 83520, Note_on_c, 5, 57, 100
2, 83640, Note_on_c, 5, 59, 100
2, 83760, Note_on_c, 5, 61, 100
2, 83880, Note_on_c, 5, 57, 100
2, 84000, Note_on_c, 5, 59, 100
2, 84120, Note_on_c, 5, 61, 100
2, 84240, Note_on_c, 5, 62, 100
2, 84360, Note_on_c, 5, 60, 100
2, 84480, Note_on_c, 5, 59, 100
2, 84600, Note_on_c, 5, 57, 100
2, 84720, Note_on_c, 5, 59, 100
2, 84840, Note_on_c, 5, 60, 100
2, 84960, Note_on_c, 5, 59, 100
2, 85080, Note_on_c, 5, 57, 100
2, 85200, Note_on_c, 5, 55, 100
2, 85320, Note_on_c, 5, 54, 100
2, 85440, Note_on_c, 5, 55, 100
2, 85560, Note_on_c, 5, 59, 100
2, 85680, Note_on_c, 5, 57, 100
2, 85800, Note_on_c, 5, 55, 100
2, 85920, Note_on_c, 5, 57, 100
2, 86040, Note_on_c, 5, 55, 100
2, 86160, Note_on_c, 5, 57, 100
2, 86280, Note_on_c, 5, 55, 100
2, 86400, Note_on_c, 5, 54, 100
2, 86520, Note_on_c, 5, 55, 100
2, 86640, Note_on_c, 5, 57, 100
2, 86760, Note_on_c, 5, 54, 100
2, 86880, Note_on_c, 5, 59, 100
2, 87000, Note_on_c, 5, 58, 100
2, 87120, Note_on_c, 5, 62, 100
2, 87240, Note_on_c, 5, 60, 100
2, 87360, Note_on_c, 5, 59, 100
2, 87480, Note_on_c, 5, 55, 100
2, 87600, Note_on_c, 5, 60, 100
2, 87720, Note_on_c, 5, 59, 100
2, 87840, Note_on_c, 5, 57, 100
2, 87960, Note_on_c, 5, 59, 100
2, 88080, Note_on_c, 5, 56, 100
2, 88200, Note_on_c, 5, 57, 100
2, 88320, Note_on_c, 5, 59, 100
2, 88440, Note_on_c, 5, 57, 100
2, 88560, Note_on_c, 5, 59, 100
2, 88680, Note_on_c, 5, 55, 100
2, 88800, Note_on_c, 5, 57, 100
2, 88920, Note_on_c, 5, 55, 100
2, 89040, Note_on_c, 5, 57, 100
2, 89160, Note_on_c, 5, 59, 100
2, 89280, Note_on_c, 5, 57, 100
2, 89400, Note_on_c, 5, 55, 100
2, 89520, Note_on_c, 5, 54, 100
2, 89640, Note_on_c, 5, 52, 100
2, 89760, Note_on_c, 5, 50, 100
2, 89880, Note_on_c, 5, 49, 100
2, 90000, Note_on_c, 5, 47, 100
2, 90120, Note_on_c, 5, 49, 100
2, 90240, Note_on_c, 5, 50, 100
2, 90360, Note_on_c, 5, 49, 100
2, 90480, Note_on_c, 5, 50, 100
2, 90600, Note_on_c, 5, 47, 100
2, 90720, Note_on_c, 5, 45, 100
2, 90840, Note_on_c, 5, 47, 100
2, 90960, Note_on_c, 5, 49, 100
2, 91080, Note_on_c, 5, 47, 100
2, 91200, Note_on_c, 5, 49, 100
2, 91320, Note_on_c, 5, 46, 100
2, 91440, Note_on_c, 5, 44, 100
2, 91560, Note_on_c, 5, 46, 100
2, 91680, Note_on_c, 5, 47, 100
2, 91800, Note_on_c, 5, 45, 100
2, 91920, Note_on_c, 5, 43, 100
2, 92040, Note_on_c, 5, 42, 100
2, 92160, Note_on_c, 5, 43, 100
2, 92280, Note_on_c, 5, 42, 100
2, 92400, Note_on_c, 5, 40, 100
2, 92520, Note_on_c, 5, 38, 100
2, 92640, Note_on_c, 5, 40, 100
2, 92760, Note_on_c, 5, 42, 100
2, 92880, Note_on_c, 5, 45, 100
2, 93000, Note_on_c, 5, 49, 100
2, 93120, Note_on_c, 5, 48, 100
2, 93240, Note_on_c, 5, 43, 100
2, 93360, Note_on_c, 5, 42, 100
2, 93480, Note_on_c, 5, 43, 100
2, 93600, Note_on_c, 5, 42, 100
2, 93720, Note_on_c, 5, 43, 100
2, 93840, Note_on_c, 5, 40, 100
2, 93960, Note_on_c, 5, 48, 100
2, 94080, Note_on_c, 5, 50, 100
2, 94200, Note_on_c, 5, 52, 100
2, 94320, Note_on_c, 5, 54, 100
2, 94440, Note_on_c, 5, 50, 100
2, 94560, Note_on_c, 5, 55, 100
2, 94680, Note_on_c, 5, 54, 100
2, 94800, Note_on_c, 5, 52, 100
2, 94920, Note_on_c, 5, 54, 100
2, 95040, Note_on_c, 5, 55, 100
2, 95160, Note_on_c, 5, 52, 100
2, 95280, Note_on_c, 5, 57, 100
2, 95400, Note_on_c, 5, 55, 100
2, 95520, Note_on_c, 5, 54, 100
2, 95640, Note_on_c, 5, 55, 100
2, 95760, Note_on_c, 5, 57, 100
2, 95880, Note_on_c, 5, 45, 100
2, 96000, Note_on_c, 5, 50, 100
2, 96120, Note_on_c, 5, 38, 100
2, 96240, Note_on_c, 5, 38, 100
2, 96360, Note_on_c, 5, 40, 100
2, 96480, Note_on_c, 5, 50, 100
2, 96600, Note_on_c, 5, 48, 100
2, 96720, Note_on_c, 5, 47, 100
2, 96840, Note_on_c, 5, 48, 100
2, 96960, Note_on_c, 5, 45, 100
2, 97080, Note_on_c, 5, 46, 100
2, 97200, Note_on_c, 5, 49, 100
2, 97320, Note_on_c, 5, 47, 100
2, 97440, Note_on_c, 5, 49, 100
2, 97560, Note_on_c, 5, 50, 100
2, 97680, Note_on_c, 5, 49, 100
2, 97800, Note_on_c, 5, 50, 100
2, 97920, Note_on_c, 5, 49, 100
2, 98040, Note_on_c, 5, 50, 100
2, 98160, Note_on_c, 5, 49, 100
2, 98280, Note_on_c, 5, 47, 100
2, 98400, Note_on_c, 5, 45, 100
2, 98520, Note_on_c, 5, 50, 100
2, 98640, Note_on_c, 5, 43, 100
2, 98760, Note_on_c, 5, 42, 100
2, 98880, Note_on_c, 5, 43, 100
2, 99000, Note_on_c, 5, 45, 100
2, 99120, Note_on_c, 5, 47, 100
2, 99240, Note_on_c, 5, 45, 100
2, 99360, Note_on_c, 5, 43, 100
2, 99480, Note_on_c, 5, 55, 100
2, 99600, Note_on_c, 5, 43, 100
2, 99720, Note_on_c, 5, 50, 100
2, 99840, Note_on_c, 5, 54, 100
2, 99960, Note_on_c, 5, 57, 100
2, 100080, Note_on_c, 5, 59, 100
2, 100200, Note_on_c, 5, 51, 100
2, 100320, Note_on_c, 5, 42, 100
2, 100440, Note_on_c, 5, 49, 100
2, 100560, Note_on_c, 5, 51, 100
2, 100680, Note_on_c, 5, 52, 100
2, 100800, Note_on_c, 5, 57, 100
2, 100920, Note_on_c, 5, 55, 100
2, 101040, Note_on_c, 5, 54, 100
2, 101160, Note_on_c, 5, 55, 100
2, 101280, Note_on_c, 5, 62, 100
2, 101400, Note_on_c, 5, 67, 100
2, 101520, Note_on_c, 5, 66, 100
2, 101640, Note_on_c, 5, 64, 100
2, 101760, Note_on_c, 5, 57, 100
2, 101880, Note_on_c, 5, 62, 100
2, 102000, Note_on_c, 5, 60, 100
2, 102120, Note_on_c, 5, 59, 100
2, 102240, Note_on_c, 5, 57, 100
2, 102360, Note_on_c, 5, 59, 100
2, 102480, Note_on_c, 5, 55, 100
2, 102600, Note_on_c, 5, 57, 100
2, 102720, Note_on_c, 5, 59, 100
2, 102840, Note_on_c, 5, 57, 100
2, 102960, Note_on_c, 5, 55, 100
2, 103080, Note_on_c, 5, 54, 100
2, 103200, Note_on_c, 5, 52, 100
2, 103320, Note_on_c, 5, 54, 100
2, 103440, Note_on_c, 5, 55, 100
2, 103560, Note_on_c, 5, 57, 100
2, 103680, Note_on_c, 5, 55, 100
2, 103800, Note_on_c, 5, 50, 100
2, 103920, Note_on_c, 5, 43, 100
2, 104040, Note_on_c, 5, 46, 100
2, 104160, Note_on_c, 5, 47, 100
2, 104280, Note_on_c, 5, 47, 100
2, 104400, Note_on_c, 5, 50, 100
2, 104520, Note_on_c, 5, 47, 100
2, 104640, Note_on_c, 5, 49, 100
2, 104760, Note_on_c, 5, 50, 100
2, 104880, Note_on_c, 5, 52, 100
2, 105000, Note_on_c, 5, 50, 100
2, 105120, Note_on_c, 5, 49, 100
2, 105240, Note_on_c, 5, 47, 100
2, 105360, Note_on_c, 5, 52, 100
2, 105480, Note_on_c, 5, 48, 100
2, 105600, Note_on_c, 5, 43, 100
2, 105720, Note_on_c, 5, 47, 100
2, 105840, Note_on_c, 5, 48, 100
2, 105960, Note_on_c, 5, 47, 100
2, 106080, Note_on_c, 5, 47, 100
2, 106200, Note_on_c, 5, 45, 100
2, 106320, Note_on_c, 5, 47, 100
2, 106440, Note_on_c, 5, 45, 100
2, 106560, Note_on_c, 5, 43, 100
2, 106680, Note_on_c, 5, 42, 100
2, 106800, Note_on_c, 5, 47, 100
2, 106920, Note_on_c, 5, 38, 100
2, 107040, Note_on_c, 5, 43, 100
2, 107160, Note_on_c, 5, 42, 100
2, 107280, Note_on_c, 5, 43, 100
2, 107400, Note_on_c, 5, 43, 100
2, 107520, Note_on_c, 5, 44, 100
2, 107640, Note_on_c, 5, 48, 100
2, 107760, Note_on_c, 5, 47, 100
2, 107880, Note_on_c, 5, 45, 100
2, 108000, Note_on_c, 5, 46, 100
2, 108120, Note_on_c, 5, 40, 100
2, 108240, Note_on_c, 5, 50, 100
2, 108360, Note_on_c, 5, 55, 100
2, 108480, Note_on_c, 5, 50, 100
2, 108600, Note_on_c, 5, 43, 100
2, 108720, Note_on_c, 5, 55, 100
2, 108840, Note_on_c, 5, 54, 100
2, 108960, Note_on_c, 5, 50, 100
2, 109080, Note_on_c, 5, 47, 100
2, 109200, Note_on_c, 5, 43, 100
2, 109320, Note_on_c, 5, 45, 100
2, 109440, Note_on_c, 5, 55, 100
2, 109560, Note_on_c, 5, 54, 100
2, 109680, Note_on_c, 5, 55, 100
2, 109800, Note_on_c, 5, 54, 100
2, 109920, Note_on_c, 5, 50, 100
2, 110040, Note_on_c, 5, 43, 100
2, 110160, Note_on_c, 5, 47, 100
2, 110280, Note_on_c, 5, 5 , 100
2, 110400, Note_on_c, 5, 51, 100
2, 110520, Note_on_c, 5, 52, 100
2, 110640, Note_on_c, 5, 41, 100
2, 110760, Note_on_c, 5, 43, 100
2, 110880, Note_on_c, 5, 55, 100
2, 111000, Note_on_c, 5, 55, 100
2, 111120, Note_on_c, 5, 53, 100
2, 111240, Note_on_c, 5, 53, 100
2, 111360, Note_on_c, 5, 55, 100
2, 111480, Note_on_c, 5, 46, 100
2, 111600, Note_on_c, 5, 47, 100
2, 111720, Note_on_c, 5, 45, 100
2, 111840, Note_on_c, 5, 47, 100
2, 111960, Note_on_c, 5, 48, 100
2, 112080, Note_on_c, 5, 48, 100
2, 112200, Note_on_c, 5, 48, 100
2, 112320, Note_on_c, 5, 49, 100
2, 112440, Note_on_c, 5, 50, 100
2, 112560, Note_on_c, 5, 55, 100
2, 112680, Note_on_c, 5, 55, 100
2, 112800, Note_on_c, 5, 54, 100
2, 112920, Note_on_c, 5, 55, 100
2, 113040, Note_on_c, 5, 57, 100
2, 113160, Note_on_c, 5, 59, 100
2, 113280, Note_on_c, 5, 60, 100
2, 113400, Note_on_c, 5, 62, 100
2, 113520, Note_on_c, 5, 55, 100
2, 113640, Note_on_c, 5, 57, 100
2, 113760, Note_on_c, 5, 59, 100
2, 113880, Note_on_c, 5, 51, 100
2, 114000, Note_on_c, 5, 50, 100
2, 114120, Note_on_c, 5, 49, 100
2, 114240, Note_on_c, 5, 51, 100
2, 114360, Note_on_c, 5, 42, 100
2, 114480, Note_on_c, 5, 43, 100
2, 114600, Note_on_c, 5, 42, 100
2, 114720, Note_on_c, 5, 38, 100
2, 114840, Note_on_c, 5, 40, 100
2, 114960, Note_on_c, 5, 45, 100
2, 115080, Note_on_c, 5, 47, 100
2, 115200, Note_on_c, 5, 49, 100
2, 115320, Note_on_c, 5, 50, 100
2, 115440, Note_on_c, 5, 45, 100
2, 115560, Note_on_c, 5, 47, 100
2, 115680, Note_on_c, 5, 52, 100
2, 115800, Note_on_c, 5, 51, 100
2, 115920, Note_on_c, 5, 52, 100
2, 116040, Note_on_c, 5, 55, 100
2, 116160, Note_on_c, 5, 54, 100
2, 116280, Note_on_c, 5, 55, 100
2, 116400, Note_on_c, 5, 52, 100
2, 116520, Note_on_c, 5, 50, 100
2, 116640, Note_on_c, 5, 52, 100
2, 116760, Note_on_c, 5, 54, 100
2, 116880, Note_on_c, 5, 55, 100
2, 117000, Note_on_c, 5, 55, 100
2, 117120, Note_on_c, 5, 54, 100
2, 117240, Note_on_c, 5, 52, 100
2, 117360, Note_on_c, 5, 50, 100
2, 117480, Note_on_c, 5, 48, 100
2, 117600, Note_on_c, 5, 47, 100
2, 117720, Note_on_c, 5, 48, 100
2, 117840, Note_on_c, 5, 47, 100
2, 117960, Note_on_c, 5, 45, 100
2, 118080, Note_on_c, 5, 43, 100
2, 118200, Note_on_c, 5, 42, 100
2, 118320, Note_on_c, 5, 40, 100
2, 118440, Note_on_c, 5, 38, 100
2, 118560, Note_on_c, 5, 43, 100
2, 118680, Note_on_c, 5, 42, 100
2, 118800, Note_on_c, 5, 40, 100
2, 118920, Note_on_c, 5, 43, 100
2, 119040, Note_on_c, 5, 47, 100
2, 119160, Note_on_c, 5, 40, 100
2, 119280, Note_on_c, 5, 38, 100
2, 119400, Note_on_c, 5, 40, 100
2, 119520, Note_on_c, 5, 43, 100
2, 119640, Note_on_c, 5, 45, 100
2, 119760, Note_on_c, 5, 46, 100
2, 119880, Note_on_c, 5, 48, 100
2, 120000, Note_on_c, 5, 47, 100
2, 120120, Note_on_c, 5, 45, 100
2, 120240, Note_on_c, 5, 43, 100
2, 120360, Note_on_c, 5, 42, 100
2, 120480, Note_on_c, 5, 38, 100
2, 120600, Note_on_c, 5, 40, 100
2, 120720, Note_on_c, 5, 42, 100
2, 120840, Note_on_c, 5, 45, 100
2, 120960, Note_on_c, 5, 47, 100
2, 121080, Note_on_c, 5, 48, 100
2, 121200, Note_on_c, 5, 50, 100
2, 121320, Note_on_c, 5, 52, 100
2, 121440, Note_on_c, 5, 50, 100
2, 121560, Note_on_c, 5, 48, 100
2, 121680, Note_on_c, 5, 47, 100
2, 121800, Note_on_c, 5, 48, 100
2, 121920, Note_on_c, 5, 52, 100
2, 122040, Note_on_c, 5, 50, 100
2, 122160, Note_on_c, 5, 48, 100
2, 122280, Note_on_c, 5, 50, 100
2, 122400, Note_on_c, 5, 55, 100
2, 122520, Note_on_c, 5, 54, 100
2, 122640, Note_on_c, 5, 52, 100
2, 122760, Note_on_c, 5, 54, 100
2, 122880, Note_on_c, 5, 57, 100
2, 123000, Note_on_c, 5, 50, 100
2, 123120, Note_on_c, 5, 54, 100
2, 123240, Note_on_c, 5, 52, 100
2, 123360, Note_on_c, 5, 57, 100
2, 123480, Note_on_c, 5, 71, 100
2, 123600, Note_on_c, 5, 72, 100
2, 123720, Note_on_c, 5, 50, 100
2, 123840, Note_on_c, 5, 52, 100
2, 123960, Note_on_c, 5, 50, 100
2, 124080, Note_on_c, 5, 59, 100
2, 124200, Note_on_c, 5, 55, 100
2, 124320, Note_on_c, 5, 62, 100
2, 124440, Note_on_c, 5, 50, 100
2, 124560, Note_on_c, 5, 55, 100
2, 124680, Note_on_c, 5, 43, 100
2, 124800, Note_on_c, 5, 55, 100
2, 124920, Note_on_c, 5, 54, 100
2, 125040, Note_on_c, 5, 52, 100
2, 125160, Note_on_c, 5, 54, 100
2, 125280, Note_on_c, 5, 50, 100
2, 125400, Note_on_c, 5, 55, 100
2, 125520, Note_on_c, 5, 57, 100
2, 125640, Note_on_c, 5, 50, 100
2, 125760, Note_on_c, 5, 50, 100
2, 125880, Note_on_c, 5, 46, 100
2, 126000, Note_on_c, 5, 43, 100
2, 126120, Note_on_c, 5, 43, 100
2, 126240, Note_on_c, 5, 46, 100
2, 126360, Note_on_c, 5, 50, 100
2, 126480, Note_on_c, 5, 55, 100
2, 126600, Note_on_c, 5, 49, 100
2, 126720, Note_on_c, 5, 57, 100
2, 126840, Note_on_c, 5, 45, 100
2, 126960, Note_on_c, 5, 43, 100
2, 127080, Note_on_c, 5, 46, 100
2, 127200, Note_on_c, 5, 48, 100
2, 127320, Note_on_c, 5, 50, 100
2, 127440, Note_on_c, 5, 55, 100
2, 127560, Note_on_c, 5, 54, 100
2, 127680, Note_on_c, 5, 52, 100
2, 127800, Note_on_c, 5, 50, 100
2, 127920, Note_on_c, 5, 47, 100
2, 128040, Note_on_c, 5, 48, 100
2, 128160, Note_on_c, 5, 50, 100
2, 128280, Note_on_c, 5, 43, 100
2, 128400, Note_on_c, 5, 55, 100
2, 128520, Note_on_c, 5, 54, 100
2, 128640, Note_on_c, 5, 52, 100
2, 128760, Note_on_c, 5, 50, 100
2, 128880, Note_on_c, 5, 47, 100
2, 129000, Note_on_c, 5, 48, 100
2, 129120, Note_on_c, 5, 50, 100
2, 129240, Note_on_c, 5, 43, 100
2, 129360, Note_on_c, 5, 55, 100
2, 129480, Note_on_c, 5, 54, 100
2, 129600, Note_on_c, 5, 52, 100
2, 129720, Note_on_c, 5, 50, 100
2, 129840, Note_on_c, 5, 47, 100
2, 129960, Note_on_c, 5, 48, 100
2, 130080, Note_on_c, 5, 50, 100
2, 130200, Note_on_c, 5, 43, 100
2, 130320, Note_on_c, 5, 55, 100
2, 130440, Note_on_c, 5, 54, 100
2, 130560, Note_on_c, 5, 52, 100
2, 130680, Note_on_c, 5, 50, 100
2, 130800, Note_on_c, 5, 47, 100
2, 130920, Note_on_c, 5, 48, 100
2, 131040, Note_on_c, 5, 50, 100
2, 131160, Note_on_c, 5, 43, 100
2, 131280, Note_on_c, 5, 55, 100
2, 131400, Note_on_c, 5, 54, 100
2, 131520, Note_on_c, 5, 52, 100
2, 131640, Note_on_c, 5, 50, 100
2, 131760, Note_on_c, 5, 47, 100
2, 131880, Note_on_c, 5, 48, 100
2, 132000, Note_on_c, 5, 50, 100
2, 132120, Note_on_c, 5, 43, 100
2, 132240, Note_on_c, 5, 55, 100
2, 132360, Note_on_c, 5, 54, 100
2, 132480, Note_on_c, 5, 52, 100
2, 132600, Note_on_c, 5, 50, 100
2, 132720, Note_on_c, 5, 47, 100
2, 132840, Note_on_c, 5, 48, 100
2, 132960, Note_on_c, 5, 50, 100
2, 133080, Note_on_c, 5, 43, 100
2, 133200, Note_on_c, 5, 55, 100
2, 133320, Note_on_c, 5, 54, 100
2, 133440, Note_on_c, 5, 52, 100
2, 133560, Note_on_c, 5, 50, 100
2, 133680, Note_on_c, 5, 47, 100
2, 133800, Note_on_c, 5, 48, 100
2, 133920, Note_on_c, 5, 50, 100
2, 134040, Note_on_c, 5, 43, 100
2, 134160, Note_on_c, 5, 55, 100
2, 134280, Note_on_c, 5, 54, 100
2, 134400, Note_on_c, 5, 52, 100
2, 134520, Note_on_c, 5, 50, 100
2, 134640, Note_on_c, 5, 47, 100
2, 134760, Note_on_c, 5, 48, 100
2, 134880, Note_on_c, 5, 50, 100
2, 135000, Note_on_c, 5, 43, 100
2, 135120, Note_on_c, 5, 55, 100
2, 135240, Note_on_c, 5, 54, 100
2, 135360, Note_on_c, 5, 52, 100
2, 135480, Note_on_c, 5, 50, 100
2, 135600, Note_on_c, 5, 47, 100
2, 135720, Note_on_c, 5, 48, 100
2, 135840, Note_on_c, 5, 50, 100
2, 135960, Note_on_c, 5, 43, 100
2, 136080, Note_on_c, 5, 55, 100
2, 136200, Note_on_c, 5, 54, 100
2, 136320, Note_on_c, 5, 52, 100
2, 136440, Note_on_c, 5, 50, 100
2, 136560, Note_on_c, 5, 47, 100
2, 136680, Note_on_c, 5, 48, 100
2, 136800, Note_on_c, 5, 50, 100
2, 136920, Note_on_c, 5, 43, 100
2, 137040, Note_on_c, 5, 55, 100
2, 137160, Note_on_c, 5, 54, 100
2, 137280, Note_on_c, 5, 52, 100
2, 137400, Note_on_c, 5, 50, 100
2, 137520, Note_on_c, 5, 47, 100
2, 137640, Note_on_c, 5, 48, 100
2, 137760, Note_on_c, 5, 50, 100
2, 137880, Note_on_c, 5, 43, 100
2, 138000, Note_on_c, 5, 55, 100
2, 138120, Note_on_c, 5, 54, 100
2, 138240, Note_on_c, 5, 52, 100
2, 138360, Note_on_c, 5, 50, 100
2, 138480, Note_on_c, 5, 47, 100
2, 138600, Note_on_c, 5, 48, 100
2, 138720, Note_on_c, 5, 51, 100
2, 138840, Note_on_c, 5, 43, 100
2, 138960, Note_on_c, 5, 55, 100
2, 139080, Note_on_c, 5, 54, 100
2, 139200, Note_on_c, 5, 52, 100
2, 139320, Note_on_c, 5, 50, 100
2, 139440, Note_on_c, 5, 47, 100
2, 139560, Note_on_c, 5, 48, 100
2, 139680, Note_on_c, 5, 50, 100
2, 139800, Note_on_c, 5, 43, 100
2, 139920, Note_on_c, 5, 55, 100
2, 140040, Note_on_c, 5, 54, 100
2, 140160, Note_on_c, 5, 52, 100
2, 140280, Note_on_c, 5, 50, 100
2, 140400, Note_on_c, 5, 47, 100
2, 140520, Note_on_c, 5, 48, 100
2, 140640, Note_on_c, 5, 50, 100
2, 140760, Note_on_c, 5, 43, 100
2, 140880, Note_on_c, 5, 55, 100
2, 141000, Note_on_c, 5, 54, 100
2, 141120, Note_on_c, 5, 52, 100
2, 141240, Note_on_c, 5, 50, 100
2, 141360, Note_on_c, 5, 47, 100
2, 141480, Note_on_c, 5, 48, 100
2, 141600, Note_on_c, 5, 50, 100
2, 141720, Note_on_c, 5, 43, 100
2, 141840, Note_on_c, 5, 55, 100
2, 141960, Note_on_c, 5, 54, 100
2, 142080, Note_on_c, 5, 52, 100
2, 142200, Note_on_c, 5, 50, 100
2, 142320, Note_on_c, 5, 47, 100
2, 142440, Note_on_c, 5, 48, 100
2, 142560, Note_on_c, 5, 50, 100
2, 142680, Note_on_c, 5, 43, 100
2, 142800, Note_on_c, 5, 55, 100
2, 142920, Note_on_c, 5, 54, 100
2, 143040, Note_on_c, 5, 52, 100
2, 143160, Note_on_c, 5, 50, 100
2, 143280, Note_on_c, 5, 47, 100
2, 143400, Note_on_c, 5, 48, 100
2, 143520, Note_on_c, 5, 50, 100
2, 143640, Note_on_c, 5, 43, 100
2, 143760, Note_on_c, 5, 55, 100
2, 143880, Note_on_c, 5, 54, 100
2, 144000, Note_on_c, 5, 52, 100
2, 144120, Note_on_c, 5, 50, 100
2, 144240, Note_on_c, 5, 47, 100
2, 144360, Note_on_c, 5, 48, 100
2, 144480, Note_on_c, 5, 50, 100
2, 144600, Note_on_c, 5, 43, 100
2, 144720, Note_on_c, 5, 55, 100
2, 144840, Note_on_c, 5, 49, 100
2, 144960, Note_on_c, 5, 47, 100
2, 145080, Note_on_c, 5, 52, 100
2, 145200, Note_on_c, 5, 43, 100
2, 145320, Note_on_c, 5, 50, 100
2, 145440, Note_on_c, 5, 55, 100
2, 145560, Note_on_c, 5, 54, 100
2, 145680, Note_on_c, 5, 52, 100
2, 145800, Note_on_c, 5, 50, 100
2, 145920, Note_on_c, 5, 47, 100
2, 146040, Note_on_c, 5, 48, 100
2, 146160, Note_on_c, 5, 50, 100
2, 146280, Note_on_c, 5, 43, 100
2, 146400, Note_on_c, 5, 55, 100
2, 146520, Note_on_c, 5, 54, 100
2, 146640, Note_on_c, 5, 52, 100
2, 146760, Note_on_c, 5, 50, 100
2, 146880, Note_on_c, 5, 47, 100
2, 147000, Note_on_c, 5, 48, 100
2, 147120, Note_on_c, 5, 50, 100
2, 147240, Note_on_c, 5, 43, 100
2, 147360, Note_on_c, 5, 55, 100
2, 147480, Note_on_c, 5, 54, 100
2, 147600, Note_on_c, 5, 52, 100
2, 147720, Note_on_c, 5, 50, 100
2, 147840, Note_on_c, 5, 47, 100
2, 147960, Note_on_c, 5, 48, 100
2, 148080, Note_on_c, 5, 50, 100
2, 148200, Note_on_c, 5, 43, 100
2, 148320, Note_on_c, 5, 55, 100
2, 148440, Note_on_c, 5, 54, 100
2, 148560, Note_on_c, 5, 52, 100
2, 148680, Note_on_c, 5, 50, 100
2, 148800, Note_on_c, 5, 47, 100
2, 148920, Note_on_c, 5, 48, 100
2, 149040, Note_on_c, 5, 50, 100
2, 149160, Note_on_c, 5, 43, 100
2, 149280, Note_on_c, 5, 55, 100
2, 149400, Note_on_c, 5, 54, 100
2, 149520, Note_on_c, 5, 52, 100
2, 149640, Note_on_c, 5, 50, 100
2, 149760, Note_on_c, 5, 47, 100
2, 149880, Note_on_c, 5, 48, 100
2, 150000, Note_on_c, 5, 50, 100
2, 150120, Note_on_c, 5, 43, 100
2, 150240, Note_on_c, 5, 55, 100
2, 150360, Note_on_c, 5, 54, 100
2, 150480, Note_on_c, 5, 52, 100
2, 150600, Note_on_c, 5, 50, 100
2, 150720, Note_on_c, 5, 47, 100
2, 150840, Note_on_c, 5, 48, 100
2, 150960, Note_on_c, 5, 50, 100
2, 151080, Note_on_c, 5, 43, 100
2, 151200, Note_on_c, 5, 55, 100
2, 151320, Note_on_c, 5, 54, 100
2, 151440, Note_on_c, 5, 52, 100
2, 151560, Note_on_c, 5, 55, 100
2, 151680, Note_on_c, 5, 52, 100
2, 151800, Note_on_c, 5, 57, 100
2, 151920, Note_on_c, 5, 55, 100
2, 152040, Note_on_c, 5, 54, 100
2, 152160, Note_on_c, 5, 55, 100
2, 152280, Note_on_c, 5, 57, 100
2, 152400, Note_on_c, 5, 54, 100
2, 152520, Note_on_c, 5, 59, 100
2, 152640, Note_on_c, 5, 57, 100
2, 152760, Note_on_c, 5, 55, 100
2, 152880, Note_on_c, 5, 57, 100
2, 153000, Note_on_c, 5, 59, 100
2, 153120, Note_on_c, 5, 55, 100
2, 153240, Note_on_c, 5, 50, 100
2, 153360, Note_on_c, 5, 45, 100
2, 153480, Note_on_c, 5, 43, 100
2, 153600, Note_on_c, 5, 47, 100
2, 153720, Note_on_c, 5, 75, 100
2, 153840, Note_on_c, 5, 78, 100
2, 153960, Note_on_c, 5, 79, 100
2, 154080, Note_on_c, 5, 81, 100
2, 154200, Note_on_c, 5, 72, 100
2, 154320, Note_on_c, 5, 71, 100
2, 154440, Note_on_c, 5, 72, 100
2, 154560, Note_on_c, 5, 71, 100
2, 154680, Note_on_c, 5, 69, 100
2, 154800, Note_on_c, 5, 67, 100
2, 154920, Note_on_c, 5, 69, 100
2, 155040, Note_on_c, 5, 62, 100
2, 155160, Note_on_c, 5, 64, 100
2, 155280, Note_on_c, 5, 67, 100
2, 155400, Note_on_c, 5, 62, 100
2, 155520, Note_on_c, 5, 61, 100
2, 155640, Note_on_c, 5, 62, 100
2, 155760, Note_on_c, 5, 61, 100
2, 155880, Note_on_c, 5, 59, 100
2, 156000, Note_on_c, 5, 61, 100
2, 156120, Note_on_c, 5, 64, 100
2, 156240, Note_on_c, 5, 62, 100
2, 156360, Note_on_c, 5, 61, 100
2, 156480, Note_on_c, 5, 62, 100
2, 156600, Note_on_c, 5, 64, 100
2, 156720, Note_on_c, 5, 76, 100
2, 156840, Note_on_c, 5, 74, 100
2, 156960, Note_on_c, 5, 72, 100
2, 157080, Note_on_c, 5, 71, 100
2, 157200, Note_on_c, 5, 69, 100
2, 157320, Note_on_c, 5, 57, 100
2, 157440, Note_on_c, 5, 66, 100
2, 157560, Note_on_c, 5, 64, 100
2, 157680, Note_on_c, 5, 62, 100
2, 157800, Note_on_c, 5, 61, 100
2, 157920, Note_on_c, 5, 64, 100
2, 158040, Note_on_c, 5, 62, 100
2, 158160, Note_on_c, 5, 61, 100
2, 158280, Note_on_c, 5, 59, 100
2, 158400, Note_on_c, 5, 57, 100
2, 158520, Note_on_c, 5, 60, 100
2, 158640, Note_on_c, 5, 44, 100
2, 158760, Note_on_c, 5, 47, 100
2, 158880, Note_on_c, 4, 52, 100
2, 159000, Note_on_c, 5, 50, 100
2, 159120, Note_on_c, 5, 48, 100
2, 159240, Note_on_c, 5, 50, 100
2, 159360, Note_on_c, 4, 50, 100
2, 159480, Note_on_c, 5, 45, 100
2, 159600, Note_on_c, 5, 43, 100
2, 159720, Note_on_c, 5, 55, 100
2, 159840, Note_on_c, 5, 54, 100
2, 159960, Note_on_c, 5, 57, 100
2, 160080, Note_on_c, 5, 55, 100
2, 160200, Note_on_c, 5, 54, 100
2, 160320, Note_on_c, 5, 55, 100
2, 160440, Note_on_c, 5, 52, 100
2, 160560, Note_on_c, 5, 57, 100
2, 160680, Note_on_c, 5, 57, 100
2, 160800, Note_on_c, 5, 55, 100
2, 160920, Note_on_c, 5, 57, 100
2, 161040, Note_on_c, 5, 50, 100
2, 161160, Note_on_c, 5, 50, 100
2, 161280, Note_on_c, 5, 48, 100
2, 161400, Note_on_c, 5, 50, 100
2, 161520, Note_on_c, 5, 55, 100
2, 161640, Note_on_c, 5, 43, 100
2, 161760, Note_on_c, 5, 55, 100
2, 161880, Note_on_c, 5, 54, 100
2, 162000, Note_on_c, 5, 52, 100
2, 162120, Note_on_c, 5, 50, 100
2, 162240, Note_on_c, 5, 48, 100
2, 162360, Note_on_c, 5, 47, 100
2, 162480, Note_on_c, 5, 48, 100
2, 162600, Note_on_c, 5, 45, 100
2, 162720, Note_on_c, 5, 50, 100
2, 162840, Note_on_c, 5, 43, 100
2, 162960, Note_on_c, 5, 47, 100
2, 163080, Note_on_c, 5, 47, 100
2, 163200, Note_on_c, 5, 50, 100
2, 163320, Note_on_c, 5, 48, 100
2, 163440, Note_on_c, 5, 46, 100
2, 163560, Note_on_c, 5, 48, 100
2, 163680, Note_on_c, 5, 47, 100
2, 163800, Note_on_c, 5, 55, 100
2, 163920, Note_on_c, 5, 47, 100
2, 164160, Note_on_c, 5, 47, 100
2, 164280, Note_on_c, 5, 48, 100
2, 164400, Note_on_c, 5, 47, 100
2, 164520, Note_on_c, 5, 49, 100
2, 164640, Note_on_c, 5, 45, 100
2, 164760, Note_on_c, 5, 47, 100
2, 164880, Note_on_c, 5, 48, 100
2, 165000, Note_on_c, 5, 50, 100
2, 165120, Note_on_c, 5, 50, 100
2, 165240, Note_on_c, 5, 48, 100
2, 165360, Note_on_c, 5, 50, 100
2, 165480, Note_on_c, 5, 55, 100
2, 165600, Note_on_c, 5, 47, 100
2, 165720, Note_on_c, 5, 50, 100
2, 165840, Note_on_c, 5, 43, 100
2, 165960, Note_on_c, 5, 45, 100
2, 166080, Note_on_c, 5, 47, 100
2, 166200, Note_on_c, 5, 48, 100
2, 166320, Note_on_c, 5, 47, 100
2, 166440, Note_on_c, 5, 48, 100
2, 166560, Note_on_c, 5, 47, 100
2, 166680, Note_on_c, 5, 48, 100
2, 166800, Note_on_c, 5, 45, 100
2, 166920, Note_on_c, 5, 50, 100
2, 167040, Note_on_c, 5, 50, 100
2, 167160, Note_on_c, 5, 52, 100
2, 167280, Note_on_c, 5, 50, 100
2, 167400, Note_on_c, 5, 48, 100
2, 167520, Note_on_c, 5, 60, 100
2, 167640, Note_on_c, 5, 48, 100
2, 167760, Note_on_c, 5, 47, 100
2, 167880, Note_on_c, 5, 47, 100
2, 168000, Note_on_c, 5, 48, 100
2, 168120, Note_on_c, 5, 47, 100
2, 168240, Note_on_c, 5, 50, 100
2, 168360, Note_on_c, 5, 50, 100
2, 168480, Note_on_c, 5, 45, 100
2, 168600, Note_on_c, 5, 47, 100
2, 168720, Note_on_c, 5, 48, 100
2, 168840, Note_on_c, 5, 50, 100
2, 168960, Note_on_c, 5, 43, 100
2, 169080, Note_on_c, 5, 45, 100
2, 169200, Note_on_c, 5, 47, 100
2, 169320, Note_on_c, 5, 48, 100
2, 169440, Note_on_c, 5, 50, 100
2, 169560, Note_on_c, 5, 42, 100
2, 169680, Note_on_c, 5, 45, 100
2, 169800, Note_on_c, 5, 43, 100
2, 169920, Note_on_c, 5, 45, 100
2, 170040, Note_on_c, 5, 47, 100
2, 170160, Note_on_c, 5, 48, 100
2, 170280, Note_on_c, 5, 47, 100
2, 170400, Note_on_c, 5, 40, 100
2, 170520, Note_on_c, 5, 42, 100
2, 170640, Note_on_c, 5, 43, 100
2, 170760, Note_on_c, 5, 42, 100
2, 170880, Note_on_c, 5, 43, 100
2, 171000, Note_on_c, 5, 45, 100
2, 171120, Note_on_c, 5, 43, 100
2, 171240, Note_on_c, 5, 45, 100
2, 171360, Note_on_c, 5, 47, 100
2, 171480, Note_on_c, 5, 45, 100
2, 171600, Note_on_c, 5, 47, 100
2, 171720, Note_on_c, 5, 43, 100
2, 171840, Note_on_c, 5, 42, 100
2, 171960, Note_on_c, 5, 43, 100
2, 172080, Note_on_c, 5, 43, 100
2, 172200, Note_on_c, 5, 45, 100
2, 172320, Note_on_c, 5, 43, 100
2, 172440, Note_on_c, 5, 45, 100
2, 172560, Note_on_c, 5, 43, 100
2, 172680, Note_on_c, 5, 43, 100
2, 172800, Note_on_c, 5, 42, 100
2, 172920, Note_on_c, 5, 40, 100
2, 173040, Note_on_c, 5, 38, 100
2, 173160, Note_on_c, 5, 43, 100
2, 173280, Note_on_c, 5, 40, 100
2, 173400, Note_on_c, 5, 45, 100
2, 173520, Note_on_c, 5, 38, 100
2, 173640, Note_on_c, 5, 42, 100
2, 173760, Note_on_c, 5, 45, 100
2, 173880, Note_on_c, 5, 50, 100
2, 174000, Note_on_c, 5, 45, 100
2, 174120, Note_on_c, 5, 45, 100
2, 174240, Note_on_c, 5, 43, 100
2, 174360, Note_on_c, 5, 45, 100
2, 174480, Note_on_c, 5, 55, 100
2, 174600, Note_on_c, 5, 45, 100
2, 174720, Note_on_c, 5, 43, 100
2, 174840, Note_on_c, 5, 45, 100
2, 174960, Note_on_c, 5, 50, 100
2, 175080, Note_on_c, 5, 55, 100
2, 175200, Note_on_c, 5, 57, 100
2, 175320, Note_on_c, 5, 59, 100
2, 175440, Note_on_c, 5, 57, 100
2, 175560, Note_on_c, 5, 59, 100
2, 175680, Note_on_c, 5, 60, 100
2, 175800, Note_on_c, 5, 49, 100
2, 175920, Note_on_c, 5, 57, 100
2, 176040, Note_on_c, 5, 55, 100
2, 176160, Note_on_c, 5, 57, 100
2, 176280, Note_on_c, 5, 57, 100
2, 176400, Note_on_c, 5, 55, 100
2, 176520, Note_on_c, 5, 43, 100
2, 176640, Note_on_c, 5, 47, 100
2, 176760, Note_on_c, 5, 50, 100
2, 176880, Note_on_c, 5, 48, 100
2, 177000, Note_on_c, 5, 47, 100
2, 177120, Note_on_c, 5, 45, 100
2, 177240, Note_on_c, 5, 47, 100
2, 177360, Note_on_c, 5, 48, 100
2, 177480, Note_on_c, 5, 40, 100
2, 177600, Note_on_c, 5, 42, 100
2, 177720, Note_on_c, 5, 43, 100
2, 177840, Note_on_c, 5, 42, 100
2, 177960, Note_on_c, 5, 43, 100
2, 178080, Note_on_c, 5, 45, 100
2, 178200, Note_on_c, 5, 43, 100
2, 178320, Note_on_c, 5, 42, 100
2, 178440, Note_on_c, 5, 40, 100
2, 178560, Note_on_c, 5, 42, 100
2, 178680, Note_on_c, 5, 40, 100
2, 178800, Note_on_c, 5, 42, 100
2, 178920, Note_on_c, 5, 43, 100
2, 179040, Note_on_c, 5, 42, 100
2, 179160, Note_on_c, 5, 43, 100
2, 179280, Note_on_c, 5, 45, 100
2, 179400, Note_on_c, 5, 43, 100
2, 179520, Note_on_c, 5, 45, 100
2, 179640, Note_on_c, 5, 47, 100
2, 179760, Note_on_c, 5, 49, 100
2, 179880, Note_on_c, 5, 50, 100
2, 180000, Note_on_c, 5, 47, 100
2, 180120, Note_on_c, 5, 49, 100
2, 180240, Note_on_c, 5, 51, 100
2, 180360, Note_on_c, 5, 52, 100
2, 180480, Note_on_c, 5, 43, 100
2, 180600, Note_on_c, 5, 45, 100
2, 180720, Note_on_c, 5, 55, 100
2, 180840, Note_on_c, 5, 55, 100
2, 180960, Note_on_c, 5, 54, 100
2, 181080, Note_on_c, 5, 52, 100
2, 181200, Note_on_c, 5, 54, 100
2, 181320, Note_on_c, 5, 52, 100
2, 181440, Note_on_c, 5, 50, 100
2, 181560, Note_on_c, 5, 49, 100
2, 181680, Note_on_c, 5, 50, 100
2, 181800, Note_on_c, 5, 45, 100
2, 181920, Note_on_c, 5, 43, 100
2, 182040, Note_on_c, 5, 44, 100
2, 182160, Note_on_c, 5, 46, 100
2, 182280, Note_on_c, 5, 50, 100
2, 182400, Note_on_c, 5, 55, 100
2, 182520, Note_on_c, 5, 48, 100
2, 182640, Note_on_c, 5, 52, 100
2, 182760, Note_on_c,55, 54, 100
2, 182760, Note_on_c, 5, 45, 100
2, 182880, Note_on_c, 5, 55, 100
2, 183000, Note_on_c, 5, 57, 100
2, 183120, Note_on_c, 5, 59, 100
2, 183240, Note_on_c, 5, 60, 100
2, 183360, Note_on_c, 5, 62, 100
2, 183480, Note_on_c, 5, 60, 100
2, 183600, Note_on_c, 5, 59, 100
2, 183720, Note_on_c, 5, 60, 100
2, 183840, Note_on_c, 5, 59, 100
2, 183960, Note_on_c, 5, 57, 100
2, 184080, Note_on_c, 5, 55, 100
2, 184200, Note_on_c, 5, 54, 100
2, 184320, Note_on_c, 5, 57, 100
2, 184440, Note_on_c, 5, 59, 100
2, 184560, Note_on_c, 5, 60, 100
2, 184680, Note_on_c, 5, 59, 100
2, 184800, Note_on_c, 5, 57, 100
2, 184920, Note_on_c, 5, 55, 100
2, 185040, Note_on_c, 5, 54, 100
2, 185160, Note_on_c, 5, 57, 100
2, 185280, Note_on_c, 5, 59, 100
2, 185400, Note_on_c, 5, 60, 100
2, 185520, Note_on_c, 5, 59, 100
2, 185640, Note_on_c, 5, 57, 100
2, 185760, Note_on_c, 5, 59, 100
2, 185880, Note_on_c, 5, 60, 100
2, 186000, Note_on_c, 5, 58, 100
2, 186120, Note_on_c, 5, 62, 100
2, 186240, Note_on_c, 5, 50, 100
2, 186360, Note_on_c, 5, 48, 100
2, 186480, Note_on_c, 5, 47, 100
2, 186600, Note_on_c, 5, 50, 100
2, 186720, Note_on_c, 5, 48, 100
2, 186840, Note_on_c, 5, 47, 100
2, 186960, Note_on_c, 5, 45, 100
2, 187080, Note_on_c, 5, 47, 100
2, 187200, Note_on_c, 5, 45, 100
2, 187320, Note_on_c, 5, 43, 100
2, 187440, Note_on_c, 5, 42, 100
2, 187560, Note_on_c, 5, 45, 100
2, 187680, Note_on_c, 5, 49, 100
2, 187800, Note_on_c, 5, 50, 100
2, 187920, Note_on_c, 5, 52, 100
2, 188040, Note_on_c, 5, 54, 100
2, 188160, Note_on_c, 5, 52, 100
2, 188280, Note_on_c, 5, 50, 100
2, 188400, Note_on_c, 5, 49, 100
2, 188520, Note_on_c, 5, 50, 100
2, 188640, Note_on_c, 5, 55, 100
2, 188760, Note_on_c, 5, 54, 100
2, 188880, Note_on_c, 5, 43, 100
2, 189000, Note_on_c, 5, 55, 100
2, 189120, Note_on_c, 5, 55, 100
2, 189240, Note_on_c, 5, 54, 100
2, 189360, Note_on_c, 5, 52, 100
2, 189480, Note_on_c, 5, 54, 100
2, 189600, Note_on_c, 5, 55, 100
2, 189720, Note_on_c, 5, 52, 100
2, 189840, Note_on_c, 5, 57, 100
2, 189960, Note_on_c, 5, 55, 100
2, 190080, Note_on_c, 5, 54, 100
2, 190200, Note_on_c, 5, 55, 100
2, 190320, Note_on_c, 5, 50, 100
2, 190440, Note_on_c, 5, 43, 100
2, 190560, Note_on_c, 5, 62, 100
2, 190680, Note_on_c, 5, 50, 100
2, 190800, Note_on_c, 5, 48, 100
2, 190920, Note_on_c, 5, 47, 100
2, 191040, Note_on_c, 5, 45, 100
2, 191160, Note_on_c, 5, 47, 100
2, 191280, Note_on_c, 5, 43, 100
2, 191400, Note_on_c, 5, 45, 100
2, 191520, Note_on_c, 5, 47, 100
2, 191640, Note_on_c, 5, 45, 100
2, 191760, Note_on_c, 5, 43, 100
2, 191880, Note_on_c, 5, 42, 100
2, 192000, Note_on_c, 5, 43, 100
2, 192120, Note_on_c, 5, 40, 100
2, 192240, Note_on_c, 5, 45, 100
2, 192360, Note_on_c, 5, 38, 100
2, 192480, Note_on_c, 5, 40, 100
2, 192600, Note_on_c, 5, 48, 100
2, 192720, Note_on_c, 5, 47, 100
2, 192840, Note_on_c, 5, 45, 100
2, 192960, Note_on_c, 5, 43, 100
2, 193080, Note_on_c, 5, 45, 100
2, 193200, Note_on_c, 5, 47, 100
2, 193320, Note_on_c, 5, 50, 100
2, 193440, Note_on_c, 5, 43, 100
2, 193560, Note_on_c, 5, 32, 100
2, 193680, Note_on_c, 5, 40, 100
2, 193800, Note_on_c, 5, 38, 100
2, 193920, Note_on_c, 5, 46, 100
2, 194040, Note_on_c, 5, 40, 100
2, 194160, Note_on_c, 5, 43, 100
2, 194280, Note_on_c, 5, 42, 100
2, 194400, Note_on_c, 5, 40, 100
2, 194520, Note_on_c, 5, 38, 100
2, 194640, Note_on_c, 5, 43, 100
2, 194760, Note_on_c, 5, 40, 100
2, 194880, Note_on_c, 5, 48, 100
2, 195000, Note_on_c, 5, 49, 100
2, 195120, Note_on_c, 5, 50, 100
2, 195240, Note_on_c, 5, 55, 100
2, 195360, Note_on_c, 5, 54, 100
2, 195480, Note_on_c, 5, 55, 100
2, 195600, Note_on_c, 5, 52, 100
2, 195720, Note_on_c, 5, 54, 100
2, 195840, Note_on_c, 5, 57, 100
2, 195960, Note_on_c, 5, 45, 100
2, 196080, Note_on_c, 5, 47, 100
2, 196200, Note_on_c, 5, 48, 100
2, 196320, Note_on_c, 5, 47, 100
2, 196440, Note_on_c, 5, 45, 100
2, 196560, Note_on_c, 5, 47, 100
2, 196680, Note_on_c, 5, 48, 100
2, 196800, Note_on_c, 5, 50, 100
2, 196920, Note_on_c, 5, 50, 100
2, 197040, Note_on_c, 5, 48, 100
2, 197160, Note_on_c, 5, 50, 100
2, 197280, Note_on_c, 5, 55, 100
2, 197400, Note_on_c, 5, 43, 100
2, 197520, Note_on_c, 5, 43, 100
2, 197640, Note_on_c, 5, 45, 100
2, 197760, Note_on_c, 5, 45, 100
2, 197880, Note_on_c, 5, 43, 100
2, 198000, Note_on_c, 5, 44, 100
2, 198120, Note_on_c, 5, 52, 100
2, 198240, Note_on_c, 5, 51, 100
2, 198360, Note_on_c, 5, 55, 100
2, 198600, Note_on_c, 5, 49, 100
2, 198720, Note_on_c, 5, 50, 100
2, 198840, Note_on_c, 5, 49, 100
2, 198960, Note_on_c, 5, 47, 100
2, 199080, Note_on_c, 5, 45, 100
2, 199200, Note_on_c, 5, 43, 100
2, 199320, Note_on_c, 5, 42, 100
2, 199440, Note_on_c, 5, 43, 100
2, 199560, Note_on_c, 5, 40, 100
2, 199680, Note_on_c, 5, 42, 100
2, 199800, Note_on_c, 5, 43, 100
2, 199920, Note_on_c, 5, 42, 100
2, 200040, Note_on_c, 5, 43, 100
2, 200160, Note_on_c, 5, 40, 100
2, 200280, Note_on_c, 5, 43, 100
2, 200400, Note_on_c, 5, 45, 100
2, 200520, Note_on_c, 5, 43, 100
2, 200640, Note_on_c, 5, 45, 100
2, 200760, Note_on_c, 5, 48, 100
2, 200880, Note_on_c, 5, 47, 100
2, 201000, Note_on_c, 5, 49, 100
2, 201120, Note_on_c, 5, 48, 100
2, 201240, Note_on_c, 5, 49, 100
2, 201360, Note_on_c, 5, 38, 100
2, 201480, Note_on_c, 5, 40, 100
2, 201600, Note_on_c, 5, 42, 100
2, 201720, Note_on_c, 5, 45, 100
2, 201840, Note_on_c, 5, 47, 100
2, 201960, Note_on_c, 5, 48, 100
2, 202080, Note_on_c, 5, 50, 100
2, 202200, Note_on_c, 5, 52, 100
2, 202320, Note_on_c, 5, 50, 100
2, 202440, Note_on_c, 5, 40, 100
2, 202560, Note_on_c, 5, 47, 100
2, 202680, Note_on_c, 5, 49, 100
2, 202800, Note_on_c, 5, 50, 100
2, 202920, Note_on_c, 5, 42, 100
2, 203040, Note_on_c, 5, 43, 100
2, 203160, Note_on_c, 5, 42, 100
2, 203280, Note_on_c, 5, 40, 100
2, 203400, Note_on_c, 5, 42, 100
2, 203520, Note_on_c, 5, 43, 100
2, 203640, Note_on_c, 5, 42, 100
2, 203760, Note_on_c, 5, 43, 100
2, 203880, Note_on_c, 5, 47, 100
2, 204000, Note_on_c, 5, 50, 100
2, 204120, Note_on_c, 5, 55, 100
2, 204240, Note_on_c, 5, 46, 100
2, 204360, Note_on_c, 5, 52, 100
2, 204480, Note_on_c, 5, 43, 100
2, 204600, Note_on_c, 5, 45, 100
2, 204720, Note_on_c, 5, 57, 100
2, 204840, Note_on_c, 5, 55, 100
2, 204960, Note_on_c, 5, 54, 100
2, 205080, Note_on_c, 5, 55, 100
2, 205200, Note_on_c, 5, 57, 100
2, 205320, Note_on_c, 5, 59, 100
2, 205440, Note_on_c, 5, 60, 100
2, 205560, Note_on_c, 5, 54, 100
2, 205680, Note_on_c, 5, 55, 100
2, 205800, Note_on_c, 5, 57, 100
2, 205920, Note_on_c, 5, 59, 100
2, 206040, Note_on_c, 5, 52, 100
2, 206160, Note_on_c, 5, 50, 100
2, 206280, Note_on_c, 5, 48, 100
2, 206400, Note_on_c, 5, 47, 100
2, 206520, Note_on_c, 5, 45, 100
2, 206640, Note_on_c, 5, 43, 100
2, 206760, Note_on_c, 5, 55, 100
2, 206880, Note_on_c, 5, 54, 100
2, 207000, Note_on_c, 5, 52, 100
2, 207120, Note_on_c, 5, 50, 100
2, 207240, Note_on_c, 5, 47, 100
2, 207360, Note_on_c, 5, 48, 100
2, 207480, Note_on_c, 5, 50, 100
2, 207600, Note_on_c, 5, 43, 100
2, 207720, Note_on_c, 5, 55, 100
2, 207840, Note_on_c, 5, 54, 100
2, 207960, Note_on_c, 5, 52, 100
2, 208080, Note_on_c, 5, 50, 100
2, 208200, Note_on_c, 5, 47, 100
2, 208320, Note_on_c, 5, 48, 100
2, 208440, Note_on_c, 5, 50, 100
2, 208560, Note_on_c, 5, 43, 100
2, 208680, Note_on_c, 5, 55, 100
2, 208800, Note_on_c, 5, 54, 100
2, 208920, Note_on_c, 5, 52, 100
2, 209040, Note_on_c, 5, 50, 100
2, 209160, Note_on_c, 5, 47, 100
2, 209280, Note_on_c, 5, 48, 100
2, 209400, Note_on_c, 5, 50, 100
2, 209520, Note_on_c, 5, 43, 100
2, 209640, Note_on_c, 5, 55, 100
2, 209760, Note_on_c, 5, 54, 100
2, 209880, Note_on_c, 5, 52, 100
2, 210000, Note_on_c, 5, 50, 100
2, 210120, Note_on_c, 5, 47, 100
2, 210240, Note_on_c, 5, 48, 100
2, 210360, Note_on_c, 5, 50, 100
2, 210480, Note_on_c, 5, 43, 100
2, 210600, Note_on_c, 5, 55, 100
2, 210720, Note_on_c, 5, 54, 100
2, 210840, Note_on_c, 5, 52, 100
2, 210960, Note_on_c, 5, 50, 100
2, 211080, Note_on_c, 5, 47, 100
2, 211200, Note_on_c, 5, 48, 100
2, 211320, Note_on_c, 5, 50, 100
2, 211440, Note_on_c, 5, 43, 100
2, 211560, Note_on_c, 5, 55, 100
2, 211680, Note_on_c, 5, 54, 100
2, 211800, Note_on_c, 5, 52, 100
2, 211920, Note_on_c, 5, 50, 100
2, 212040, Note_on_c, 5, 47, 100
2, 212160, Note_on_c, 5, 48, 100
2, 212280, Note_on_c, 5, 50, 100
2, 212400, Note_on_c, 5, 43, 100
2, 212520, Note_on_c, 5, 55, 100
2, 212640, Note_on_c, 5, 54, 100
2, 212760, Note_on_c, 5, 52, 100
2, 212880, Note_on_c, 5, 50, 100
2, 213000, Note_on_c, 5, 47, 100
2, 213120, Note_on_c, 5, 48, 100
2, 213240, Note_on_c, 5, 50, 100
2, 213360, Note_on_c, 5, 43, 100
2, 213480, Note_on_c, 5, 55, 100
2, 213600, Note_on_c, 5, 54, 100
2, 213720, Note_on_c, 5, 52, 100
2, 213840, Note_on_c, 5, 50, 100
2, 213960, Note_on_c, 5, 47, 100
2, 214080, Note_on_c, 5, 48, 100
2, 214200, Note_on_c, 5, 50, 100
2, 214320, Note_on_c, 5, 43, 100
2, 214440, Note_on_c, 5, 55, 100
2, 214560, Note_on_c, 5, 54, 100
2, 214680, Note_on_c, 5, 52, 100
2, 214800, Note_on_c, 5, 50, 100
2, 214920, Note_on_c, 5, 47, 100
2, 215040, Note_on_c, 5, 48, 100
2, 215160, Note_on_c, 5, 50, 100
2, 215280, Note_on_c, 5, 43, 100
2, 215400, Note_on_c, 5, 50, 100
2, 215520, Note_on_c, 5, 55, 100
2, 215640, Note_on_c, 5, 54, 100
2, 215760, Note_on_c, 5, 55, 100
2, 215880, Note_on_c, 5, 52, 100
2, 216000, Note_on_c, 5, 51, 100
2, 216120, Note_on_c, 5, 52, 100
2, 216240, Note_on_c, 5, 50, 100
2, 216360, Note_on_c, 5, 48, 100
2, 216480, Note_on_c, 5, 60, 100
2, 216600, Note_on_c, 5, 59, 100
2, 216720, Note_on_c, 5, 58, 100
2, 216840, Note_on_c, 5, 59, 100
2, 216960, Note_on_c, 5, 60, 100
2, 217080, Note_on_c, 5, 57, 100
2, 217200, Note_on_c, 5, 50, 100
2, 217320, Note_on_c, 5, 51, 100
2, 217440, Note_on_c, 5, 50, 100
2, 217560, Note_on_c, 5, 48, 100
2, 217680, Note_on_c, 5, 46, 100
2, 217800, Note_on_c, 5, 48, 100
2, 217920, Note_on_c, 5, 47, 100
2, 218040, Note_on_c, 5, 47, 100
2, 218160, Note_on_c, 5, 48, 100
2, 218280, Note_on_c, 5, 46, 100
2, 218400, Note_on_c, 5, 46, 100
2, 218520, Note_on_c, 5, 45, 100
2, 218640, Note_on_c, 5, 43, 100
2, 218760, Note_on_c, 5, 45, 100
2, 218880, Note_on_c, 5, 46, 100
2, 219000, Note_on_c, 5, 43, 100
2, 219120, Note_on_c, 5, 44, 100
2, 219240, Note_on_c, 5, 46, 100
2, 219360, Note_on_c, 5, 36, 100
2, 219480, Note_on_c, 5, 40, 100
2, 219600, Note_on_c, 5, 40, 100
2, 219720, Note_on_c, 5, 60, 100
2, 219840, Note_on_c, 5, 59, 100
2, 219960, Note_on_c, 5, 60, 100
2, 220080, Note_on_c, 5, 60, 100
2, 220200, Note_on_c, 5, 59, 100
2, 220320, Note_on_c, 5, 57, 100
2, 220440, Note_on_c, 5, 59, 100
2, 220560, Note_on_c, 5, 57, 100
2, 220680, Note_on_c, 5, 55, 100
2, 220800, Note_on_c, 5, 57, 100
2, 220920, Note_on_c, 5, 55, 100
2, 221040, Note_on_c, 5, 54, 100
2, 221160, Note_on_c, 5, 55, 100
2, 221280, Note_on_c, 5, 60, 100
2, 221400, Note_on_c, 5, 59, 100
2, 221520, Note_on_c, 5, 57, 100
2, 221640, Note_on_c, 5, 59, 100
2, 221760, Note_on_c, 5, 57, 100
2, 221880, Note_on_c, 5, 55, 100
2, 222000, Note_on_c, 5, 57, 100
2, 222120, Note_on_c, 5, 59, 100
2, 222240, Note_on_c, 5, 56, 100
2, 222360, Note_on_c, 5, 60, 100
2, 222480, Note_on_c, 5, 59, 100
2, 222600, Note_on_c, 5, 57, 100
2, 222720, Note_on_c, 5, 59, 100
2, 222840, Note_on_c, 5, 64, 100
2, 222960, Note_on_c, 5, 62, 100
2, 223080, Note_on_c, 5, 60, 100
2, 223200, Note_on_c, 5, 59, 100
2, 223320, Note_on_c, 5, 60, 100
2, 223440, Note_on_c, 5, 57, 100
2, 223560, Note_on_c, 5, 59, 100
2, 223680, Note_on_c, 5, 57, 100
2, 223800, Note_on_c, 5, 59, 100
2, 223920, Note_on_c, 5, 61, 100
2, 224040, Note_on_c, 5, 57, 100
2, 224160, Note_on_c, 5, 59, 100
2, 224280, Note_on_c, 5, 61, 100
2, 224400, Note_on_c, 5, 62, 100
2, 224520, Note_on_c, 5, 61, 100
2, 224640, Note_on_c, 5, 59, 100
2, 224760, Note_on_c, 5, 52, 100
2, 224880, Note_on_c, 5, 51, 100
2, 225000, Note_on_c, 5, 54, 100
2, 225120, Note_on_c, 5, 49, 100
2, 225240, Note_on_c, 5, 45, 100
2, 225360, Note_on_c, 5, 50, 100
2, 225480, Note_on_c, 5, 47, 100
2, 225600, Note_on_c, 5, 51, 100
2, 225720, Note_on_c, 5, 52, 100
2, 225840, Note_on_c, 5, 45, 100
2, 225960, Note_on_c, 5, 47, 100
2, 226080, Note_on_c, 5, 48, 100
2, 226200, Note_on_c, 5, 50, 100
2, 226320, Note_on_c, 5, 47, 100
2, 226440, Note_on_c, 5, 43, 100
2, 226560, Note_on_c, 5, 45, 100
2, 226680, Note_on_c, 5, 47, 100
2, 226800, Note_on_c, 5, 45, 100
2, 226920, Note_on_c, 5, 45, 100
2, 227040, Note_on_c, 5, 43, 100
2, 227160, Note_on_c, 5, 55, 100
2, 227280, Note_on_c, 5, 47, 100
2, 227400, Note_on_c, 5, 52, 100
2, 227520, Note_on_c, 5, 45, 100
2, 227640, Note_on_c, 5, 45, 100
2, 227760, Note_on_c, 5, 43, 100
2, 227880, Note_on_c, 5, 42, 100
2, 228000, Note_on_c, 5, 45, 100
2, 228120, Note_on_c, 5, 42, 100
2, 228240, Note_on_c, 5, 43, 100
2, 228360, Note_on_c, 5, 40, 100
2, 228480, Note_on_c, 5, 45, 100
2, 228600, Note_on_c, 5, 38, 100
2, 228720, Note_on_c, 5, 42, 100
2, 228840, Note_on_c, 5, 45, 100
2, 228960, Note_on_c, 5, 50, 100
2, 229080, Note_on_c, 5, 45, 100
2, 229200, Note_on_c, 5, 42, 100
2, 229320, Note_on_c, 5, 38, 100
2, 229440, Note_on_c, 5, 33, 100
2, 229560, Note_on_c, 5, 43, 100
2, 229680, Note_on_c, 5, 45, 100
2, 229800, Note_on_c, 5, 50, 100
2, 229920, Note_on_c, 5, 51, 100
2, 230040, Note_on_c, 5, 50, 100
2, 230160, Note_on_c, 5, 52, 100
2, 230280, Note_on_c, 5, 45, 100
2, 230400, Note_on_c, 5, 43, 100
2, 230520, Note_on_c, 5, 43, 100
2, 230640, Note_on_c, 5, 55, 100
2, 230760, Note_on_c, 5, 54, 100
2, 230880, Note_on_c, 5, 50, 100
2, 231000, Note_on_c, 5, 48, 100
2, 231120, Note_on_c, 5, 50, 100
2, 231240, Note_on_c, 5, 48, 100
2, 231360, Note_on_c, 5, 47, 100
2, 231480, Note_on_c, 5, 48, 100
2, 231600, Note_on_c, 5, 47, 100
2, 231720, Note_on_c, 5, 45, 100
2, 231840, Note_on_c, 5, 44, 100
2, 231960, Note_on_c, 5, 45, 100
2, 232080, Note_on_c, 5, 47, 100
2, 232200, Note_on_c, 5, 48, 100
2, 232320, Note_on_c, 5, 50, 100
2, 232440, Note_on_c, 5, 43, 100
2, 232560, Note_on_c, 5, 45, 100
2, 232680, Note_on_c, 5, 43, 100
2, 232800, Note_on_c, 5, 45, 100
2, 232920, Note_on_c, 5, 47, 100
2, 233040, Note_on_c, 5, 48, 100
2, 233160, Note_on_c, 5, 47, 100
2, 233280, Note_on_c, 5, 48, 100
2, 233400, Note_on_c, 5, 47, 100
2, 233520, Note_on_c, 5, 45, 100
2, 233640, Note_on_c, 5, 44, 100
2, 233760, Note_on_c, 5, 45, 100
2, 233880, Note_on_c, 5, 57, 100
2, 234000, Note_on_c, 5, 59, 100
2, 234120, Note_on_c, 5, 57, 100
2, 234240, Note_on_c, 5, 55, 100
2, 234360, Note_on_c, 5, 57, 100
2, 234480, Note_on_c, 5, 55, 100
2, 234600, Note_on_c, 5, 54, 100
2, 234720, Note_on_c, 5, 52, 100
2, 234840, Note_on_c, 5, 54, 100
2, 234960, Note_on_c, 5, 52, 100
2, 235080, Note_on_c, 5, 50, 100
2, 235200, Note_on_c, 5, 49, 100
2, 235320, Note_on_c, 5, 50, 100
2, 235440, Note_on_c, 5, 49, 100
2, 235560, Note_on_c, 5, 43, 100
2, 235680, Note_on_c, 5, 42, 100
2, 235800, Note_on_c, 5, 43, 100
2, 235920, Note_on_c, 5, 40, 100
2, 236040, Note_on_c, 5, 38, 100
2, 236160, Note_on_c, 5, 40, 100
2, 236280, Note_on_c, 5, 38, 100
2, 236400, Note_on_c, 5, 40, 100
2, 236520, Note_on_c, 5, 43, 100
2, 236640, Note_on_c, 5, 43, 100
2, 236760, Note_on_c, 5, 50, 100
2, 236880, Note_on_c, 5, 55, 100
2, 237000, Note_on_c, 5, 56, 100
2, 237120, Note_on_c, 5, 55, 100
2, 237240, Note_on_c, 5, 54, 100
2, 237360, Note_on_c, 5, 52, 100
2, 237480, Note_on_c, 5, 51, 100
2, 237600, Note_on_c, 5, 55, 100
2, 237720, Note_on_c, 5, 54, 100
2, 237840, Note_on_c, 5, 55, 100
2, 237960, Note_on_c, 5, 52, 100
2, 238080, Note_on_c, 5, 57, 100
2, 238200, Note_on_c, 5, 57, 100
2, 238320, Note_on_c, 5, 59, 100
2, 238440, Note_on_c, 5, 60, 100
2, 238560, Note_on_c, 5, 62, 100
2, 238680, Note_on_c, 5, 61, 100
2, 238800, Note_on_c, 5, 52, 100
2, 238920, Note_on_c, 5, 57, 100
2, 239040, Note_on_c, 5, 59, 100
2, 239160, Note_on_c, 5, 60, 100
2, 239280, Note_on_c, 5, 62, 100
2, 239400, Note_on_c, 5, 50, 100
2, 239520, Note_on_c, 5, 52, 100
2, 239760, Note_on_c, 5, 45, 100
2, 239880, Note_on_c, 5, 47, 100
2, 240000, Note_on_c, 5, 49, 100
2, 240120, Note_on_c, 5, 50, 100
2, 240240, Note_on_c, 5, 49, 100
2, 240360, Note_on_c, 5, 47, 100
2, 240480, Note_on_c, 5, 45, 100
2, 240600, Note_on_c, 5, 43, 100
2, 240720, Note_on_c, 5, 42, 100
2, 240840, Note_on_c, 5, 43, 100
2, 240960, Note_on_c, 5, 45, 100
2, 241080, Note_on_c, 5, 47, 100
2, 241200, Note_on_c, 5, 49, 100
2, 241320, Note_on_c, 5, 50, 100
2, 241440, Note_on_c, 5, 52, 100
2, 241560, Note_on_c, 5, 50, 100
2, 241680, Note_on_c, 5, 49, 100
2, 241800, Note_on_c, 5, 47, 100
2, 241920, Note_on_c, 5, 52, 100
2, 242040, Note_on_c, 5, 43, 100
2, 242160, Note_on_c, 5, 45, 100
2, 242280, Note_on_c, 5, 47, 100
2, 242400, Note_on_c, 5, 45, 100
2, 242520, Note_on_c, 5, 43, 100
2, 242640, Note_on_c, 5, 42, 100
2, 242760, Note_on_c, 5, 43, 100
2, 242880, Note_on_c, 5, 45, 100
2, 243000, Note_on_c, 5, 47, 100
2, 243120, Note_on_c, 5, 45, 100
2, 243240, Note_on_c, 5, 43, 100
2, 243360, Note_on_c, 5, 42, 100
2, 243480, Note_on_c, 5, 43, 100
2, 243600, Note_on_c, 5, 42, 100
2, 243720, Note_on_c, 5, 40, 100
2, 243840, Note_on_c, 5, 38, 100
2, 243960, Note_on_c, 5, 40, 100
2, 244080, Note_on_c, 5, 42, 100
2, 244200, Note_on_c, 5, 43, 100
2, 244320, Note_on_c, 5, 42, 100
2, 244440, Note_on_c, 5, 43, 100
2, 244560, Note_on_c, 5, 45, 100
2, 244680, Note_on_c, 5, 43, 100
2, 244800, Note_on_c, 5, 42, 100
2, 244920, Note_on_c, 5, 40, 100
2, 245040, Note_on_c, 5, 43, 100
2, 245160, Note_on_c, 5, 47, 100
2, 245280, Note_on_c, 5, 52, 100
2, 245400, Note_on_c, 5, 45, 100
2, 245520, Note_on_c, 5, 45, 100
2, 245640, Note_on_c, 5, 50, 100
2, 245760, Note_on_c, 5, 49, 100
2, 245880, Note_on_c, 5, 55, 100
2, 246000, Note_on_c, 5, 54, 100
2, 246120, Note_on_c, 5, 55, 100
2, 246240, Note_on_c, 5, 57, 100
2, 246360, Note_on_c, 5, 59, 100
2, 246480, Note_on_c, 5, 60, 100
2, 246600, Note_on_c, 5, 54, 100
2, 246720, Note_on_c, 5, 55, 100
2, 246840, Note_on_c, 5, 57, 100
2, 246960, Note_on_c, 5, 59, 100
2, 247080, Note_on_c, 5, 55, 100
2, 247200, Note_on_c, 5, 54, 100
2, 247320, Note_on_c, 5, 55, 100
2, 247440, Note_on_c, 5, 57, 100
2, 247560, Note_on_c, 5, 54, 100
2, 247680, Note_on_c, 5, 52, 100
2, 247800, Note_on_c, 5, 54, 100
2, 247920, Note_on_c, 5, 50, 100
2, 248040, Note_on_c, 5, 55, 100
2, 248160, Note_on_c, 5, 54, 100
2, 248280, Note_on_c, 5, 52, 100
2, 248400, Note_on_c, 5, 50, 100
2, 248520, Note_on_c, 5, 47, 100
2, 248640, Note_on_c, 5, 48, 100
2, 248760, Note_on_c, 5, 50, 100
2, 248880, Note_on_c, 5, 43, 100
2, 249000, Note_on_c, 5, 55, 100
2, 249120, Note_on_c, 5, 54, 100
2, 249240, Note_on_c, 5, 52, 100
2, 249360, Note_on_c, 5, 50, 100
2, 249480, Note_on_c, 5, 47, 100
2, 249600, Note_on_c, 5, 48, 100
2, 249720, Note_on_c, 5, 50, 100
2, 249840, Note_on_c, 5, 43, 100
2, 249960, Note_on_c, 5, 55, 100
2, 250080, Note_on_c, 5, 54, 100
2, 250200, Note_on_c, 5, 52, 100
2, 250320, Note_on_c, 5, 50, 100
2, 250440, Note_on_c, 5, 47, 100
2, 250560, Note_on_c, 5, 48, 100
2, 250680, Note_on_c, 5, 50, 100
2, 250800, Note_on_c, 5, 43, 100
2, 250920, Note_on_c, 5, 55, 100
2, 251040, Note_on_c, 5, 54, 100
2, 251160, Note_on_c, 5, 52, 100
2, 251280, Note_on_c, 5, 50, 100
2, 251400, Note_on_c, 5, 47, 100
2, 251520, Note_on_c, 5, 48, 100
2, 251640, Note_on_c, 5, 50, 100
2, 251760, Note_on_c, 5, 43, 100
2, 251880, Note_on_c, 5, 55, 100
2, 252000, Note_on_c, 5, 54, 100
2, 252120, Note_on_c, 5, 52, 100
2, 252240, Note_on_c, 5, 50, 100
2, 252360, Note_on_c, 5, 47, 100
2, 252480, Note_on_c, 5, 48, 100
2, 252600, Note_on_c, 5, 50, 100
2, 252720, Note_on_c, 5, 43, 100
2, 252840, Note_on_c, 5, 55, 100
2, 252960, Note_on_c, 5, 54, 100
2, 253080, Note_on_c, 5, 52, 100
2, 253200, Note_on_c, 5, 50, 100
2, 253320, Note_on_c, 5, 47, 100
2, 253440, Note_on_c, 5, 48, 100
2, 253560, Note_on_c, 5, 50, 100
2, 253680, Note_on_c, 5, 43, 100
2, 253800, Note_on_c, 5, 55, 100
2, 253920, Note_on_c, 5, 54, 100
2, 254040, Note_on_c, 5, 52, 100
2, 254160, Note_on_c, 5, 50, 100
2, 254280, Note_on_c, 5, 50, 100
2, 254400, Note_on_c, 5, 52, 100
2, 254520, Note_on_c, 5, 55, 100
2, 254640, Note_on_c, 5, 54, 100
2, 254760, Note_on_c, 5, 55, 100
2, 254880, Note_on_c, 6, 59, 100
2, 255000, Note_on_c, 5, 62, 100
2, 255120, Note_on_c, 5, 66, 100
2, 255240, Note_on_c, 5, 64, 100
2, 255360, Note_on_c, 5, 62, 100
2, 255480, Note_on_c, 5, 61, 100
2, 255600, Note_on_c, 5, 64, 100
2, 255720, Note_on_c, 5, 62, 100
2, 255840, Note_on_c, 5, 64, 100
2, 255960, Note_on_c, 5, 62, 100
2, 256080, Note_on_c, 5, 64, 100
2, 256200, Note_on_c, 5, 66, 100
2, 256320, Note_on_c, 5, 64, 100
2, 256440, Note_on_c, 5, 62, 100
2, 256560, Note_on_c, 5, 61, 100
2, 256680, Note_on_c, 5, 62, 100
2, 256800, Note_on_c, 5, 63, 100
2, 256920, Note_on_c, 5, 62, 100
2, 257040, Note_on_c, 5, 63, 100
2, 257160, Note_on_c, 5, 64, 100
2, 257280, Note_on_c, 5, 62, 100
2, 257400, Note_on_c, 5, 61, 100
2, 257520, Note_on_c, 5, 59, 100
2, 257640, Note_on_c, 5, 60, 100
2, 257760, Note_on_c, 5, 64, 100
2, 257880, Note_on_c, 5, 64, 100
2, 258000, Note_on_c, 5, 66, 100
2, 258120, Note_on_c, 5, 67, 100
2, 258240, Note_on_c, 5, 60, 100
2, 258360, Note_on_c, 5, 59, 100
2, 258480, Note_on_c, 5, 60, 100
2, 258600, Note_on_c, 5, 62, 100
2, 258720, Note_on_c, 5, 50, 100
2, 258840, Note_on_c, 5, 58, 100
2, 258960, Note_on_c, 5, 57, 100
2, 259080, Note_on_c, 5, 55, 100
2, 259200, Note_on_c, 5, 54, 100
2, 259320, Note_on_c, 5, 52, 100
2, 259440, Note_on_c, 5, 54, 100
2, 259560, Note_on_c, 5, 52, 100
2, 259680, Note_on_c, 5, 50, 100
2, 259800, Note_on_c, 5, 49, 100
2, 259920, Note_on_c, 5, 50, 100
2, 260040, Note_on_c, 5, 49, 100
2, 260160, Note_on_c, 5, 47, 100
2, 260280, Note_on_c, 5, 49, 100
2, 260400, Note_on_c, 5, 45, 100
2, 260520, Note_on_c, 5, 47, 100
2, 260640, Note_on_c, 5, 49, 100
2, 260760, Note_on_c, 5, 50, 100
2, 260880, Note_on_c, 5, 52, 100
2, 261000, Note_on_c, 5, 50, 100
2, 261120, Note_on_c, 5, 42, 100
2, 261240, Note_on_c, 5, 47, 100
2, 261360, Note_on_c, 5, 49, 100
2, 261480, Note_on_c, 5, 47, 100
2, 261600, Note_on_c, 5, 49, 100
2, 261720, Note_on_c, 5, 45, 100
2, 261840, Note_on_c, 5, 47, 100
2, 261960, Note_on_c, 5, 43, 100
2, 262080, Note_on_c, 5, 45, 100
2, 262200, Note_on_c, 5, 46, 100
2, 262320, Note_on_c, 5, 47, 100
2, 262440, Note_on_c, 5, 47, 100
2, 262560, Note_on_c, 5, 45, 100
2, 262680, Note_on_c, 5, 47, 100
2, 262800, Note_on_c, 5, 59, 100
2, 262920, Note_on_c, 5, 50, 100
2, 263040, Note_on_c, 5, 48, 100
2, 263160, Note_on_c, 5, 47, 100
2, 263280, Note_on_c, 5, 48, 100
2, 263400, Note_on_c, 5, 52, 100
2, 263520, Note_on_c, 5, 50, 100
2, 263640, Note_on_c, 5, 48, 100
2, 263760, Note_on_c, 5, 47, 100
2, 263880, Note_on_c, 5, 45, 100
2, 264000, Note_on_c, 5, 47, 100
2, 264120, Note_on_c, 5, 43, 100
2, 264240, Note_on_c, 5, 45, 100
2, 264360, Note_on_c, 5, 47, 100
2, 264480, Note_on_c, 5, 45, 100
2, 264600, Note_on_c, 5, 43, 100
2, 264720, Note_on_c, 5, 52, 100
2, 264840, Note_on_c, 5, 53, 100
2, 264960, Note_on_c, 5, 54, 100
2, 265080, Note_on_c, 5, 55, 100
2, 265200, Note_on_c, 5, 54, 100
2, 265320, Note_on_c, 5, 52, 100
2, 265440, Note_on_c, 5, 54, 100
2, 265560, Note_on_c, 5, 52, 100
2, 265680, Note_on_c, 5, 50, 100
2, 265800, Note_on_c, 5, 49, 100
2, 265920, Note_on_c, 5, 50, 100
2, 266040, Note_on_c, 5, 47, 100
2, 266160, Note_on_c, 5, 49, 100
2, 266280, Note_on_c, 5, 50, 100
2, 266400, Note_on_c, 5, 52, 100
2, 266520, Note_on_c, 5, 50, 100
2, 266640, Note_on_c, 5, 49, 100
2, 266760, Note_on_c, 5, 47, 100
2, 266880, Note_on_c, 5, 49, 100
2, 267000, Note_on_c, 5, 50, 100
2, 267120, Note_on_c, 5, 42, 100
2, 267240, Note_on_c, 5, 50, 100
2, 267360, Note_on_c, 5, 47, 100
2, 267480, Note_on_c, 5, 48, 100
2, 267600, Note_on_c, 5, 50, 100
2, 267720, Note_on_c, 5, 47, 100
2, 267840, Note_on_c, 5, 49, 100
2, 267960, Note_on_c, 5, 45, 100
2, 268080, Note_on_c, 5, 47, 100
2, 268200, Note_on_c, 5, 43, 100
2, 268320, Note_on_c, 5, 43, 100
2, 268440, Note_on_c, 5, 55, 100
2, 268560, Note_on_c, 5, 54, 100
2, 268680, Note_on_c, 5, 50, 100
2, 268800, Note_on_c, 5, 50, 100
2, 268920, Note_on_c, 5, 50, 100
2, 269040, Note_on_c, 5, 50, 100
2, 269160, Note_on_c, 5, 48, 100
2, 269280, Note_on_c, 5, 47, 100
2, 269400, Note_on_c, 5, 48, 100
2, 269520, Note_on_c, 5, 49, 100
2, 269640, Note_on_c, 5, 46, 100
2, 269760, Note_on_c, 5, 49, 100
2, 269880, Note_on_c, 5, 47, 100
2, 270000, Note_on_c, 5, 45, 100
2, 270120, Note_on_c, 5, 43, 100
2, 270240, Note_on_c, 5, 42, 100
2, 270360, Note_on_c, 5, 43, 100
2, 270480, Note_on_c, 5, 42, 100
2, 270600, Note_on_c, 5, 40, 100
2, 270720, Note_on_c, 5, 42, 100
2, 270840, Note_on_c, 5, 43, 100
2, 270960, Note_on_c, 5, 42, 100
2, 271080, Note_on_c, 5, 45, 100
2, 271200, Note_on_c, 5, 43, 100
2, 271320, Note_on_c, 5, 45, 100
2, 271440, Note_on_c, 5, 47, 100
2, 271560, Note_on_c, 5, 48, 100
2, 271680, Note_on_c, 5, 49, 100
2, 271800, Note_on_c, 5, 47, 100
2, 271920, Note_on_c, 5, 49, 100
2, 272040, Note_on_c, 5, 50, 100
2, 272160, Note_on_c, 5, 42, 100
2, 272280, Note_on_c, 5, 47, 100
2, 272400, Note_on_c, 5, 52, 100
2, 272520, Note_on_c, 5, 53, 100
2, 272640, Note_on_c, 5, 55, 100
2, 272760, Note_on_c, 5, 54, 100
2, 272880, Note_on_c, 5, 52, 100
2, 273000, Note_on_c, 5, 50, 100
2, 273120, Note_on_c, 5, 47, 100
2, 273240, Note_on_c, 5, 48, 100
2, 273360, Note_on_c, 5, 50, 100
2, 273480, Note_on_c, 5, 43, 100
2, 273600, Note_on_c, 5, 55, 100
2, 273720, Note_on_c, 5, 54, 100
2, 273840, Note_on_c, 5, 52, 100
2, 273960, Note_on_c, 5, 50, 100
2, 274080, Note_on_c, 5, 50, 100
2, 274200, Note_on_c, 5, 52, 100
2, 274320, Note_on_c, 5, 54, 100
2, 274440, Note_on_c, 5, 55, 100
2, 274560, Note_on_c, 5, 59, 100
2, 274680, Note_on_c, 5, 57, 100
2, 274800, Note_on_c, 5, 55, 100
2, 274920, Note_on_c, 5, 62, 100
2, 275040, Note_on_c, 5, 50, 100
2, 275160, Note_on_c, 5, 52, 100
2, 275280, Note_on_c, 5, 54, 100
2, 275400, Note_on_c, 5, 55, 100
2, 275520, Note_on_c, 5, 55, 100
2, 275640, Note_on_c, 6, 55, 100
2, 275760, Note_on_c, 5, 54, 100
2, 275880, Note_on_c, 5, 52, 100
2, 276000, Note_on_c, 5, 51, 100
2, 276120, Note_on_c, 5, 52, 100
2, 276240, Note_on_c, 5, 62, 100
2, 276360, Note_on_c, 5, 64, 100
2, 276480, Note_on_c, 5, 66, 100
2, 276600, Note_on_c, 5, 64, 100
2, 276720, Note_on_c, 5, 62, 100
2, 276840, Note_on_c, 5, 61, 100
2, 276960, Note_on_c, 5, 54, 100
2, 277080, Note_on_c, 5, 55, 100
2, 277200, Note_on_c, 5, 57, 100
2, 277320, Note_on_c, 5, 60, 100
2, 277440, Note_on_c, 5, 52, 100
2, 277560, Note_on_c, 5, 52, 100
2, 277680, Note_on_c, 5, 54, 100
2, 277800, Note_on_c, 5, 55, 100
2, 277920, Note_on_c, 5, 55, 100
2, 278040, Note_on_c, 5, 54, 100
2, 278160, Note_on_c, 5, 55, 100
2, 278280, Note_on_c, 5, 52, 100
2, 278400, Note_on_c, 5, 57, 100
2, 278520, Note_on_c, 5, 57, 100
2, 278640, Note_on_c, 5, 55, 100
2, 278760, Note_on_c, 5, 47, 100
2, 278880, Note_on_c, 5, 50, 100
2, 279000, Note_on_c, 5, 43, 100
2, 279120, Note_on_c, 5, 54, 100
2, 279240, Note_on_c, 5, 55, 100
2, 279360, Note_on_c, 5, 55, 100
2, 279480, Note_on_c, 5, 57, 100
2, 279600, Note_on_c, 5, 50, 100
2, 279720, Note_on_c, 5, 57, 100
2, 279840, Note_on_c, 5, 50, 100
2, 279960, Note_on_c, 5, 43, 100
2, 280080, Note_on_c, 5, 43, 100
2, 280200, Note_on_c, 5, 43, 100
2, 280320, Note_on_c, 5, 46, 100
2, 280440, Note_on_c, 5, 50, 100
2, 280560, Note_on_c, 5, 58, 100
2, 280680, Note_on_c, 5, 62, 100
2, 280800, Note_on_c, 5, 50, 100
2, 280920, Note_on_c, 5, 48, 100
2, 281040, Note_on_c, 5, 47, 100
2, 281160, Note_on_c, 5, 48, 100
2, 281280, Note_on_c, 5, 52, 100
2, 281400, Note_on_c, 5, 55, 100
2, 281520, Note_on_c, 5, 54, 100
2, 281640, Note_on_c, 5, 55, 100
2, 281760, Note_on_c, 5, 59, 100
2, 281880, Note_on_c, 5, 60, 100
2, 282000, Note_on_c, 5, 59, 100
2, 282120, Note_on_c, 5, 57, 100
2, 282240, Note_on_c, 5, 59, 100
2, 282360, Note_on_c, 5, 57, 100
2, 282480, Note_on_c, 5, 55, 100
2, 282600, Note_on_c, 5, 57, 100
2, 282720, Note_on_c, 5, 55, 100
2, 282840, Note_on_c, 5, 57, 100
2, 282960, Note_on_c, 5, 55, 100
2, 283080, Note_on_c, 5, 54, 100
2, 283200, Note_on_c, 5, 52, 100
2, 283320, Note_on_c, 5, 54, 100
2, 283440, Note_on_c, 5, 47, 100
2, 283560, Note_on_c, 5, 45, 100
2, 283680, Note_on_c, 5, 47, 100
2, 283800, Note_on_c, 5, 48, 100
2, 283920, Note_on_c, 5, 50, 100
2, 284040, Note_on_c, 5, 47, 100
2, 284160, Note_on_c, 5, 45, 100
2, 284280, Note_on_c, 5, 47, 100
2, 284400, Note_on_c, 5, 45, 100
2, 284520, Note_on_c, 5, 47, 100
2, 284640, Note_on_c, 5, 48, 100
2, 284760, Note_on_c, 5, 50, 100
2, 284880, Note_on_c, 5, 52, 100
2, 285000, Note_on_c, 5, 50, 100
2, 285120, Note_on_c, 5, 48, 100
2, 285240, Note_on_c, 5, 47, 100
2, 285360, Note_on_c, 5, 45, 100
2, 285480, Note_on_c, 5, 43, 100
2, 285600, Note_on_c, 5, 42, 100
2, 285720, Note_on_c, 5, 45, 100
2, 285840, Note_on_c, 5, 47, 100
2, 285960, Note_on_c, 5, 48, 100
2, 286080, Note_on_c, 5, 50, 100
2, 286200, Note_on_c, 5, 43, 100
2, 286320, Note_on_c, 5, 55, 100
2, 286440, Note_on_c, 5, 57, 100
2, 286560, Note_on_c, 5, 59, 100
2, 286680, Note_on_c, 5, 60, 100
2, 286800, Note_on_c, 5, 59, 100
2, 286920, Note_on_c, 5, 57, 100
2, 287040, Note_on_c, 5, 55, 100
2, 287160, Note_on_c, 5, 54, 100
2, 287280, Note_on_c, 5, 52, 100
2, 287400, Note_on_c, 5, 57, 100
2, 287520, Note_on_c, 5, 55, 100
2, 287640, Note_on_c, 5, 54, 100
2, 287760, Note_on_c, 5, 52, 100
2, 287880, Note_on_c, 5, 50, 100
2, 288000, Note_on_c, 5, 47, 100
2, 288120, Note_on_c, 5, 48, 100
2, 288240, Note_on_c, 5, 50, 100
2, 288360, Note_on_c, 5, 43, 100
2, 288480, Note_on_c, 5, 55, 100
2, 288600, Note_on_c, 5, 54, 100
2, 288720, Note_on_c, 5, 52, 100
2, 288840, Note_on_c, 5, 50, 100
2, 288960, Note_on_c, 5, 47, 100
2, 289080, Note_on_c, 5, 48, 100
2, 289200, Note_on_c, 5, 50, 100
2, 289320, Note_on_c, 5, 43, 100
2, 289440, Note_on_c, 5, 55, 100
2, 289560, Note_on_c, 5, 54, 100
2, 289680, Note_on_c, 5, 52, 100
2, 289800, Note_on_c, 5, 50, 100
2, 289920, Note_on_c, 5, 47, 100
2, 290040, Note_on_c, 5, 48, 100
2, 290160, Note_on_c, 5, 50, 100
2, 290280, Note_on_c, 5, 43, 100
2, 290400, Note_on_c, 5, 55, 100
2, 290520, Note_on_c, 5, 54, 100
2, 290640, Note_on_c, 5, 52, 100
2, 290760, Note_on_c, 5, 50, 100
2, 290880, Note_on_c, 5, 47, 100
2, 291000, Note_on_c, 5, 48, 100
2, 291120, Note_on_c, 5, 50, 100
2, 291240, Note_on_c, 5, 43, 100
2, 291360, Note_on_c, 5, 55, 100
2, 291480, Note_on_c, 5, 54, 100
2, 291600, Note_on_c, 5, 52, 100
2, 291720, Note_on_c, 5, 50, 100
2, 291840, Note_on_c, 5, 50, 100
2, 291960, Note_on_c, 5, 52, 100
2, 292080, Note_on_c, 5, 54, 100
2, 292200, Note_on_c, 5, 55, 100
2, 292320, Note_on_c, 5, 59, 100
2, 292440, Note_on_c, 5, 62, 100
2, 292560, Note_on_c, 5, 67, 100
2, 292680, Note_on_c, 5, 72, 100
2, 292800, Note_on_c, 5, 71, 100
2, 292920, Note_on_c, 5, 72, 100
2, 293040, Note_on_c, 5, 71, 100
2, 293160, Note_on_c, 5, 69, 100
2, 293280, Note_on_c, 5, 66, 100
2, 293400, Note_on_c, 6, 69, 100
2, 293520, Note_on_c, 5, 64, 100
2, 293640, Note_on_c, 5, 64, 100
2, 293760, Note_on_c, 5, 66, 100
2, 293880, Note_on_c, 5, 57, 100
2, 294000, Note_on_c, 5, 57, 100
2, 294120, Note_on_c, 5, 58, 100
2, 294240, Note_on_c, 5, 58, 100
2, 294360, Note_on_c, 5, 57, 100
2, 294480, Note_on_c, 5, 55, 100
2, 294600, Note_on_c, 5, 57, 100
2, 294720, Note_on_c, 5, 59, 100
2, 294840, Note_on_c, 5, 60, 100
2, 294960, Note_on_c, 5, 59, 100
2, 295080, Note_on_c, 5, 57, 100
2, 295200, Note_on_c, 5, 55, 100
2, 295320, Note_on_c, 5, 54, 100
2, 295440, Note_on_c, 5, 52, 100
2, 295560, Note_on_c, 5, 54, 100
2, 295680, Note_on_c, 5, 52, 100
2, 295800, Note_on_c, 5, 54, 100
2, 295920, Note_on_c, 5, 50, 100
2, 296040, Note_on_c, 5, 52, 100
2, 296160, Note_on_c, 5, 50, 100
2, 296280, Note_on_c, 5, 47, 100
2, 296400, Note_on_c, 5, 42, 100
2, 296520, Note_on_c, 5, 45, 100
2, 296640, Note_on_c, 5, 47, 100
2, 296760, Note_on_c, 5, 48, 100
2, 296880, Note_on_c, 5, 50, 100
2, 297000, Note_on_c, 5, 43, 100
2, 297120, Note_on_c, 5, 55, 100
2, 297240, Note_on_c, 5, 54, 100
2, 297360, Note_on_c, 5, 52, 100
2, 297480, Note_on_c, 5, 57, 100
2, 297600, Note_on_c, 5, 55, 100
2, 297720, Note_on_c, 5, 54, 100
2, 297840, Note_on_c, 5, 55, 100
2, 297960, Note_on_c, 5, 57, 100
2, 298080, Note_on_c, 5, 59, 100
2, 298200, Note_on_c, 5, 60, 100
2, 298320, Note_on_c, 5, 59, 100
2, 298440, Note_on_c, 5, 60, 100
2, 298560, Note_on_c, 5, 65, 100
2, 298680, Note_on_c, 5, 57, 100
2, 298800, Note_on_c, 5, 59, 100
2, 298920, Note_on_c, 5, 57, 100
2, 299040, Note_on_c, 5, 55, 100
2, 299160, Note_on_c, 5, 54, 100
2, 299280, Note_on_c, 5, 52, 100
2, 299400, Note_on_c, 5, 64, 100
2, 299520, Note_on_c, 5, 64, 100
2, 299640, Note_on_c, 5, 62, 100
2, 299760, Note_on_c, 5, 59, 100
2, 299880, Note_on_c, 5, 57, 100
2, 300000, Note_on_c, 5, 59, 100
2, 300120, Note_on_c, 5, 55, 100
2, 300240, Note_on_c, 5, 57, 100
2, 300360, Note_on_c, 5, 54, 100
2, 300480, Note_on_c, 5, 50, 100
2, 300600, Note_on_c, 5, 54, 100
2, 300720, Note_on_c, 5, 59, 100
2, 300840, Note_on_c, 5, 57, 100
2, 300960, Note_on_c, 5, 55, 100
2, 301080, Note_on_c, 5, 57, 100
2, 301200, Note_on_c, 5, 55, 100
2, 301320, Note_on_c, 5, 54, 100
2, 301440, Note_on_c, 5, 52, 100
2, 301560, Note_on_c, 5, 54, 100
2, 301680, Note_on_c, 5, 55, 100
2, 301800, Note_on_c, 5, 52, 100
2, 301920, Note_on_c, 5, 54, 100
2, 302040, Note_on_c, 5, 55, 100
2, 302160, Note_on_c, 5, 57, 100
2, 302280, Note_on_c, 5, 55, 100
2, 302400, Note_on_c, 5, 54, 100
2, 302520, Note_on_c, 5, 55, 100
2, 302640, Note_on_c, 5, 54, 100
2, 302760, Note_on_c, 5, 52, 100
2, 302880, Note_on_c, 5, 50, 100
2, 303000, Note_on_c, 5, 49, 100
2, 303120, Note_on_c, 5, 50, 100
2, 303240, Note_on_c, 5, 47, 100
2, 303360, Note_on_c, 5, 49, 100
2, 303480, Note_on_c, 5, 47, 100
2, 303600, Note_on_c, 5, 49, 100
2, 303720, Note_on_c, 5, 46, 100
2, 303840, Note_on_c, 5, 44, 100
2, 303960, Note_on_c, 5, 46, 100
2, 304080, Note_on_c, 5, 47, 100
2, 304200, Note_on_c, 5, 48, 100
2, 304320, Note_on_c, 5, 47, 100
2, 304440, Note_on_c, 5, 45, 100
2, 304560, Note_on_c, 5, 43, 100
2, 304680, Note_on_c, 5, 45, 100
2, 304800, Note_on_c, 5, 47, 100
2, 304920, Note_on_c, 5, 48, 100
2, 305040, Note_on_c, 5, 47, 100
2, 305160, Note_on_c, 5, 52, 100
2, 305280, Note_on_c, 5, 50, 100
2, 305400, Note_on_c, 5, 48, 100
2, 305520, Note_on_c, 5, 47, 100
2, 305640, Note_on_c, 5, 45, 100
2, 305760, Note_on_c, 5, 43, 100
2, 305880, Note_on_c, 5, 42, 100
2, 306000, Note_on_c, 5, 40, 100
2, 306120, Note_on_c, 5, 38, 100
2, 306240, Note_on_c, 5, 43, 100
2, 306360, Note_on_c, 5, 40, 100
2, 306480, Note_on_c, 5, 45, 100
2, 306600, Note_on_c, 5, 38, 100
2, 306720, Note_on_c, 5, 42, 100
2, 306840, Note_on_c, 5, 38, 100
2, 306960, Note_on_c, 5, 40, 100
2, 307080, Note_on_c, 5, 45, 100
2, 307200, Note_on_c, 5, 43, 100
2, 307320, Note_on_c, 5, 38, 100
2, 307440, Note_on_c, 5, 50, 100
2, 307560, Note_on_c, 5, 50, 100
2, 307680, Note_on_c, 5, 48, 100
2, 307800, Note_on_c, 5, 57, 100
2, 307920, Note_on_c, 5, 58, 100
2, 308040, Note_on_c, 5, 57, 100
2, 308160, Note_on_c, 5, 55, 100
2, 308280, Note_on_c, 5, 54, 100
2, 308400, Note_on_c, 5, 57, 100
2, 308520, Note_on_c, 5, 50, 100
2, 308640, Note_on_c, 5, 50, 100
2, 308760, Note_on_c, 5, 48, 100
2, 308880, Note_on_c, 5, 46, 100
2, 309000, Note_on_c, 5, 45, 100
2, 309120, Note_on_c, 5, 43, 100
2, 309240, Note_on_c, 5, 55, 100
2, 309360, Note_on_c, 5, 54, 100
2, 309480, Note_on_c, 5, 52, 100
2, 309600, Note_on_c, 5, 50, 100
2, 309720, Note_on_c, 5, 49, 100
2, 309840, Note_on_c, 5, 47, 100
2, 309960, Note_on_c, 5, 45, 100
2, 310080, Note_on_c, 5, 43, 100
2, 310200, Note_on_c, 5, 54, 100
2, 310320, Note_on_c, 5, 50, 100
2, 310440, Note_on_c, 5, 51, 100
2, 310560, Note_on_c, 5, 47, 100
2, 310680, Note_on_c, 5, 48, 100
2, 310800, Note_on_c, 5, 50, 100
2, 310920, Note_on_c, 5, 43, 100
2, 311040, Note_on_c, 5, 43, 100
2, 311160, Note_on_c, 5, 47, 100
2, 311280, Note_on_c, 5, 50, 100
2, 311400, Note_on_c, 5, 55, 100
2, 311520, Note_on_c, 5, 48, 100
2, 311640, Note_on_c, 5, 56, 100
2, 311760, Note_on_c, 5, 57, 100
2, 311880, Note_on_c, 5, 59, 100
2, 312000, Note_on_c, 5, 60, 100
2, 312120, Note_on_c, 5, 59, 100
2, 312240, Note_on_c, 5, 57, 100
2, 312360, Note_on_c, 5, 55, 100
2, 312480, Note_on_c, 5, 57, 100
2, 312600, Note_on_c, 5, 59, 100
2, 312720, Note_on_c, 5, 50, 100
2, 312840, Note_on_c, 5, 49, 100
2, 312960, Note_on_c, 5, 47, 100
2, 313080, Note_on_c, 5, 48, 100
2, 313200, Note_on_c, 5, 50, 100
2, 313320, Note_on_c, 5, 43, 100
2, 313440, Note_on_c, 5, 55, 100
2, 313560, Note_on_c, 5, 54, 100
2, 313680, Note_on_c, 5, 52, 100
2, 313800, Note_on_c, 5, 50, 100
2, 313920, Note_on_c, 5, 49, 100
2, 314040, Note_on_c, 5, 47, 100
2, 314160, Note_on_c, 5, 49, 100
2, 314280, Note_on_c, 5, 50, 100
2, 314400, Note_on_c, 5, 49, 100
2, 314520, Note_on_c, 5, 50, 100
2, 314640, Note_on_c, 5, 47, 100
2, 314760, Note_on_c, 5, 45, 100
2, 314880, Note_on_c, 5, 47, 100
2, 315000, Note_on_c, 5, 49, 100
2, 315120, Note_on_c, 5, 47, 100
2, 315240, Note_on_c, 5, 38, 100
2, 315360, Note_on_c, 5, 41, 100
2, 315480, Note_on_c, 5, 40, 100
2, 315600, Note_on_c, 5, 42, 100
2, 315720, Note_on_c, 5, 43, 100
2, 315840, Note_on_c, 5, 42, 100
2, 315960, Note_on_c, 5, 43, 100
2, 316080, Note_on_c, 5, 42, 100
2, 316200, Note_on_c, 5, 43, 100
2, 316320, Note_on_c, 5, 47, 100
2, 316440, Note_on_c, 5, 38, 100
2, 316560, Note_on_c, 5, 50, 100
2, 316680, Note_on_c, 5, 52, 100
2, 316800, Note_on_c, 5, 50, 100
2, 316920, Note_on_c, 5, 48, 100
2, 317040, Note_on_c, 5, 50, 100
2, 317160, Note_on_c, 5, 54, 100
2, 317280, Note_on_c, 5, 57, 100
2, 317400, Note_on_c, 5, 66, 100
2, 317520, Note_on_c, 5, 57, 100
2, 317640, Note_on_c, 5, 59, 100
2, 317760, Note_on_c, 5, 60, 100
2, 317880, Note_on_c, 5, 59, 100
2, 318000, Note_on_c, 5, 57, 100
2, 318120, Note_on_c, 5, 55, 100
2, 318240, Note_on_c, 5, 57, 100
2, 318360, Note_on_c, 5, 54, 100
2, 318480, Note_on_c, 5, 55, 100
2, 318600, Note_on_c, 5, 57, 100
2, 318720, Note_on_c, 5, 59, 100
2, 318840, Note_on_c, 5, 60, 100
2, 318960, Note_on_c, 5, 59, 100
2, 319080, Note_on_c, 5, 57, 100
2, 319200, Note_on_c, 5, 55, 100
2, 319320, Note_on_c, 5, 54, 100
2, 319440, Note_on_c, 5, 52, 100
2, 319560, Note_on_c, 5, 54, 100
2, 319680, Note_on_c, 5, 52, 100
2, 319800, Note_on_c, 5, 50, 100
2, 319920, Note_on_c, 5, 72, 100
2, 320040, Note_on_c, 5, 71, 100
2, 320160, Note_on_c, 5, 72, 100
2, 320280, Note_on_c, 5, 71, 100
2, 320400, Note_on_c, 5, 60, 100
2, 320520, Note_on_c, 5, 47, 100
2, 320640, Note_on_c, 5, 59, 100
2, 320760, Note_on_c, 5, 47, 100
2, 320880, Note_on_c, 5, 49, 100
2, 321000, Note_on_c, 5, 45, 100
2, 321120, Note_on_c, 5, 42, 100
2, 321240, Note_on_c, 5, 50, 100
2, 321360, Note_on_c, 5, 45, 100
2, 321480, Note_on_c, 5, 47, 100
2, 321600, Note_on_c, 5, 47, 100
2, 321720, Note_on_c, 5, 45, 100
2, 321840, Note_on_c, 5, 47, 100
2, 321960, Note_on_c, 5, 48, 100
2, 322080, Note_on_c, 5, 45, 100
2, 322200, Note_on_c, 5, 47, 100
2, 322320, Note_on_c, 5, 45, 100
2, 322440, Note_on_c, 5, 47, 100
2, 322560, Note_on_c, 5, 49, 100
2, 322680, Note_on_c, 5, 51, 100
2, 322800, Note_on_c, 5, 57, 100
2, 322920, Note_on_c, 5, 62, 100
2, 323040, Note_on_c, 5, 60, 100
2, 323160, Note_on_c, 5, 59, 100
2, 323280, Note_on_c, 5, 57, 100
2, 323400, Note_on_c, 5, 59, 100
2, 323520, Note_on_c, 5, 60, 100
2, 323640, Note_on_c, 5, 48, 100
2, 323760, Note_on_c, 5, 60, 100
2, 323880, Note_on_c, 5, 59, 100
2, 324000, Note_on_c, 5, 57, 100
2, 324120, Note_on_c, 5, 55, 100
2, 324240, Note_on_c, 5, 54, 100
2, 324360, Note_on_c, 5, 55, 100
2, 324480, Note_on_c, 5, 54, 100
2, 324600, Note_on_c, 5, 55, 100
2, 324720, Note_on_c, 5, 52, 100
2, 324840, Note_on_c, 5, 57, 100
2, 324960, Note_on_c, 5, 55, 100
2, 325080, Note_on_c, 5, 57, 100
2, 325200, Note_on_c, 5, 46, 100
2, 325320, Note_on_c, 5, 50, 100
2, 325440, Note_on_c, 5, 43, 100
2, 325560, Note_on_c, 5, 55, 100
2, 325680, Note_on_c, 5, 46, 100
2, 325800, Note_on_c, 5, 50, 100
2, 325920, Note_on_c, 5, 46, 100
2, 326040, Note_on_c, 5, 47, 100
2, 326160, Note_on_c, 5, 47, 100
2, 326280, Note_on_c, 5, 48, 100
2, 326400, Note_on_c, 5, 50, 100
2, 326520, Note_on_c, 5, 43, 100
2, 326640, Note_on_c, 5, 55, 100
2, 326760, Note_on_c, 5, 57, 100
2, 326880, Note_on_c, 5, 59, 100
2, 327000, Note_on_c, 5, 57, 100
2, 327120, Note_on_c, 5, 59, 100
2, 327240, Note_on_c, 5, 64, 100
2, 327360, Note_on_c, 5, 62, 100
2, 327480, Note_on_c, 5, 64, 100
2, 327600, Note_on_c, 5, 62, 100
2, 327720, Note_on_c, 5, 60, 100
2, 327840, Note_on_c, 5, 59, 100
2, 327960, Note_on_c, 5, 60, 100
2, 328080, Note_on_c, 5, 59, 100
2, 328200, Note_on_c, 5, 57, 100
2, 328320, Note_on_c, 5, 59, 100
2, 328440, Note_on_c, 5, 60, 100
2, 328560, Note_on_c, 5, 48, 100
2, 328680, Note_on_c, 5, 60, 100
2, 328800, Note_on_c, 5, 59, 100
2, 328920, Note_on_c, 5, 60, 100
2, 329040, Note_on_c, 5, 64, 100
2, 329160, Note_on_c, 5, 57, 100
2, 329280, Note_on_c, 5, 57, 100
2, 329400, Note_on_c, 5, 51, 100
2, 329520, Note_on_c, 5,,58, 100
2, 329760, Note_on_c, 5, 45, 100
2, 329880, Note_on_c, 5, 47, 100
2, 330000, Note_on_c, 5, 48, 100
2, 330120, Note_on_c, 5, 50, 100
2, 330240, Note_on_c, 5, 47, 100
2, 330360, Note_on_c, 5, 48, 100
2, 330480, Note_on_c, 5, 47, 100
2, 330600, Note_on_c, 5, 50, 100
2, 330720, Note_on_c, 5, 55, 100
2, 330840, Note_on_c, 5, 59, 100
2, 330960, Note_on_c, 5, 62, 100
2, 331080, Note_on_c, 5, 67, 100
2, 331200, Note_on_c, 5, 69, 100
2, 331320, Note_on_c, 5, 67, 100
2, 331440, Note_on_c, 5, 55, 100
2, 331560, Note_on_c, 5, 57, 100
2, 331680, Note_on_c, 5, 55, 100
2, 331800, Note_on_c, 5, 54, 100
2, 331920, Note_on_c, 5, 53, 100
2, 332040, Note_on_c, 5, 54, 100
2, 332160, Note_on_c, 5, 55, 100
2, 332280, Note_on_c, 5, 52, 100
2, 332400, Note_on_c, 5, 57, 100
2, 332520, Note_on_c, 5, 55, 100
2, 332640, Note_on_c, 5, 54, 100
2, 332760, Note_on_c, 5, 55, 100
2, 332880, Note_on_c, 5, 57, 100
2, 333000, Note_on_c, 5, 54, 100
2, 333120, Note_on_c, 5, 52, 100
2, 333240, Note_on_c, 5, 43, 100
2, 333360, Note_on_c, 5, 42, 100
2, 333480, Note_on_c, 5, 50, 100
2, 333600, Note_on_c, 5, 49, 100
2, 333720, Note_on_c, 5, 50, 100
2, 333840, Note_on_c, 5, 52, 100
2, 333960, Note_on_c, 5, 40, 100
2, 334080, Note_on_c, 5, 49, 100
2, 334200, Note_on_c, 5, 38, 100
2, 334320, Note_on_c, 5, 49, 100
2, 334440, Note_on_c, 5, 45, 100
2, 334560, Note_on_c, 5, 47, 100
2, 334680, Note_on_c, 5, 48, 100
2, 334800, Note_on_c, 5, 50, 100
2, 334920, Note_on_c, 5, 52, 100
2, 335040, Note_on_c, 5, 50, 100
2, 335160, Note_on_c, 5, 45, 100
2, 335280, Note_on_c, 5, 47, 100
2, 335400, Note_on_c, 5, 45, 100
2, 335520, Note_on_c, 5, 47, 100
2, 335640, Note_on_c, 5, 48, 100
2, 335760, Note_on_c, 5, 45, 100
2, 335880, Note_on_c, 5, 47, 100
2, 336000, Note_on_c, 5, 45, 100
2, 336120, Note_on_c, 5, 48, 100
2, 336240, Note_on_c, 5, 47, 100
2, 336360, Note_on_c, 5, 45, 100
2, 336480, Note_on_c, 5, 43, 100
2, 336600, Note_on_c, 5, 42, 100
2, 336720, Note_on_c, 5, 43, 100
2, 336840, Note_on_c, 5, 40, 100
2, 336960, Note_on_c, 5, 45, 100
2, 337080, Note_on_c, 5, 38, 100
2, 337200, Note_on_c, 5, 43, 100
2, 337320, Note_on_c, 5, 45, 100
2, 337440, Note_on_c, 5, 47, 100
2, 337560, Note_on_c, 5, 45, 100
2, 337680, Note_on_c, 5, 43, 100
2, 337800, Note_on_c, 5, 42, 100
2, 337920, Note_on_c, 5, 43, 100
2, 338040, Note_on_c, 5, 45, 100
2, 338160, Note_on_c, 5, 47, 100
2, 338280, Note_on_c, 5, 48, 100
2, 338400, Note_on_c, 5, 50, 100
2, 338520, Note_on_c, 5, 48, 100
2, 338640, Note_on_c, 5, 49, 100
2, 338760, Note_on_c, 5, 50, 100
2, 338880, Note_on_c, 5, 52, 100
2, 339000, Note_on_c, 5, 54, 100
2, 339120, Note_on_c, 5, 50, 100
2, 339240, Note_on_c, 5, 55, 100
2, 339360, Note_on_c, 5, 54, 100
2, 339480, Note_on_c, 5, 52, 100
2, 339600, Note_on_c, 5, 54, 100
2, 339720, Note_on_c, 5, 55, 100
2, 339840, Note_on_c, 5, 52, 100
2, 339960, Note_on_c, 5, 57, 100
2, 340080, Note_on_c, 5, 55, 100
2, 340200, Note_on_c, 5, 54, 100
2, 340320, Note_on_c, 5, 55, 100
2, 340440, Note_on_c, 5, 52, 100
2, 340560, Note_on_c, 5, 57, 100
2, 340680, Note_on_c, 5, 55, 100
2, 340800, Note_on_c, 5, 57, 100
2, 340920, Note_on_c, 5, 60, 100
2, 341040, Note_on_c, 5, 54, 100
2, 341160, Note_on_c, 5, 55, 100
2, 341280, Note_on_c, 5, 57, 100
2, 341400, Note_on_c, 5, 57, 100
2, 341520, Note_on_c, 5, 50, 100
2, 341640, Note_on_c, 5, 61, 100
2, 341760, Note_on_c, 5, 52, 100
2, 341880, Note_on_c, 5, 55, 100
2, 342000, Note_on_c, 5, 56, 100
2, 342120, Note_on_c, 5, 54, 100
2, 342240, Note_on_c, 5, 52, 100
2, 342360, Note_on_c, 5, 57, 100
2, 342480, Note_on_c, 5, 55, 100
2, 342600, Note_on_c, 5, 57, 100
2, 342720, Note_on_c, 5, 55, 100
2, 342840, Note_on_c, 5, 54, 100
2, 342960, Note_on_c, 5, 55, 100
2, 343080, Note_on_c, 5, 52, 100
2, 343200, Note_on_c, 5, 57, 100
2, 343320, Note_on_c, 5, 55, 100
2, 343440, Note_on_c, 5, 54, 100
2, 343560, Note_on_c, 5, 55, 100
2, 343680, Note_on_c, 5, 57, 100
2, 343800, Note_on_c, 5, 54, 100
2, 343920, Note_on_c, 5, 52, 100
2, 344040, Note_on_c, 5, 50, 100
2, 344160, Note_on_c, 5, 52, 100
2, 344280, Note_on_c,85, 50, 100
2, 344280, Note_on_c, 5, 54, 100
2, 344400, Note_on_c, 5, 52, 100
2, 344520, Note_on_c, 5, 50, 100
2, 344640, Note_on_c, 5, 49, 100
2, 344760, Note_on_c, 5, 47, 100
2, 344880, Note_on_c, 5, 45, 100
2, 345000, Note_on_c, 5, 50, 100
2, 345120, Note_on_c, 5, 48, 100
2, 345240, Note_on_c, 5, 47, 100
2, 345360, Note_on_c, 5, 45, 100
2, 345480, Note_on_c, 5, 50, 100
2, 345600, Note_on_c, 5, 48, 100
2, 345720, Note_on_c, 5, 47, 100
2, 345840, Note_on_c, 5, 45, 100
2, 345960, Note_on_c, 5, 48, 100
2, 346080, Note_on_c, 5, 47, 100
2, 346200, Note_on_c, 5, 45, 100
2, 346320, Note_on_c, 5, 43, 100
2, 346440, Note_on_c, 5, 42, 100
2, 346560, Note_on_c, 5, 45, 100
2, 346680, Note_on_c, 5, 38, 100
2, 346800, Note_on_c, 5, 47, 100
2, 346920, Note_on_c, 5, 45, 100
2, 347040, Note_on_c, 5, 47, 100
2, 347160, Note_on_c, 5, 48, 100
2, 347280, Note_on_c, 5, 50, 100
2, 347400, Note_on_c, 5, 52, 100
2, 347520, Note_on_c, 5, 50, 100
2, 347640, Note_on_c, 5, 48, 100
2, 347760, Note_on_c, 5, 47, 100
2, 347880, Note_on_c, 5, 48, 100
2, 348000, Note_on_c, 5, 52, 100
2, 348360, Note_on_c, 5, 43, 100
2, 348480, Note_on_c, 5, 57, 100
2, 348600, Note_on_c, 5, 59, 100
2, 348720, Note_on_c, 5, 57, 100
2, 348840, Note_on_c, 5, 55, 100
2, 348960, Note_on_c, 5, 54, 100
2, 349080, Note_on_c, 5, 52, 100
2, 349200, Note_on_c, 5, 57, 100
2, 349320, Note_on_c, 5, 55, 100
2, 349440, Note_on_c, 5, 54, 100
2, 349560, Note_on_c, 5, 52, 100
2, 349680, Note_on_c, 5, 50, 100
2, 349800, Note_on_c, 5, 48, 100
2, 349920, Note_on_c, 5, 47, 100
2, 350040, Note_on_c, 5, 43, 100
2, 350160, Note_on_c, 5, 45, 100
2, 350280, Note_on_c, 5, 47, 100
2, 350400, Note_on_c, 5, 48, 100
2, 350520, Note_on_c, 5, 45, 100
2, 350640, Note_on_c, 5, 47, 100
2, 350760, Note_on_c, 5, 48, 100
2, 350880, Note_on_c, 5, 50, 100
2, 351000, Note_on_c, 5, 50, 100
2, 351120, Note_on_c, 5, 48, 100
2, 351240, Note_on_c, 5, 50, 100
2, 351360, Note_on_c, 5, 55, 100
2, 351480, Note_on_c, 5, 50, 100
2, 351600, Note_on_c, 5, 43, 100
2, 351720, Note_on_c, 5, 62, 100
2, 351840, Note_on_c, 5, 60, 100
2, 351960, Note_on_c, 5, 58, 100
2, 352080, Note_on_c, 5, 58, 100
2, 352200, Note_on_c, 5, 58, 100
2, 352320, Note_on_c, 5, 56, 100
2, 352440, Note_on_c, 5, 56, 100
2, 352560, Note_on_c, 5, 55, 100
2, 352680, Note_on_c, 5, 55, 100
2, 352800, Note_on_c, 5, 54, 100
2, 352920, Note_on_c, 5, 54, 100
2, 353040, Note_on_c, 5, 55, 100
2, 353160, Note_on_c, 5, 48, 100
2, 353280, Note_on_c, 5, 46, 100
2, 353400, Note_on_c, 5, 49, 100
2, 353520, Note_on_c, 5, 50, 100
2, 353640, Note_on_c, 5, 52, 100
2, 353760, Note_on_c, 5, 50, 100
2, 353880, Note_on_c, 5, 48, 100
2, 354000, Note_on_c, 5, 47, 100
2, 354120, Note_on_c, 5, 48, 100
2, 354240, Note_on_c, 5, 50, 100
2, 354360, Note_on_c, 5, 43, 100
2, 354480, Note_on_c, 5, 55, 100
2, 354600, Note_on_c, 5, 54, 100
2, 354720, Note_on_c, 5, 52, 100
2, 354840, Note_on_c, 5, 57, 100
2, 354960, Note_on_c, 5, 55, 100
2, 355200, Note_on_c, 55 55, 100
2, 355320, Note_on_c, 5, 55, 100
2, 355440, Note_on_c, 5, 54, 100
2, 355560, Note_on_c, 5, 52, 100
2, 355680, Note_on_c, 5, 54, 100
2, 355800, Note_on_c, 5, 52, 100
2, 355920, Note_on_c, 5, 54, 100
2, 356040, Note_on_c, 5, 50, 100
2, 356160, Note_on_c, 5, 52, 100
2, 356280, Note_on_c, 5, 50, 100
2, 356400, Note_on_c, 5, 47, 100
2, 356520, Note_on_c, 5, 46, 100
2, 356640, Note_on_c, 5, 47, 100
2, 356760, Note_on_c, 5, 50, 100
2, 356880, Note_on_c, 5, 48, 100
2, 357000, Note_on_c, 5, 47, 100
2, 357120, Note_on_c, 5, 45, 100
2, 357240, Note_on_c, 5, 47, 100
2, 357360, Note_on_c, 5, 48, 100
2, 357480, Note_on_c, 5, 47, 100
2, 357600, Note_on_c, 5, 49, 100
2, 357720, Note_on_c, 5, 45, 100
2, 357840, Note_on_c, 5, 40, 100
2, 357960, Note_on_c, 5, 38, 100
2, 358080, Note_on_c, 5, 40, 100
2, 358200, Note_on_c, 5, 42, 100
2, 358320, Note_on_c, 5, 54, 100
2, 358440, Note_on_c, 5, 55, 100
2, 358560, Note_on_c, 5, 54, 100
2, 358680, Note_on_c, 5, 52, 100
2, 358800, Note_on_c, 5, 54, 100
2, 358920, Note_on_c, 5, 52, 100
2, 359040, Note_on_c, 5, 54, 100
2, 359160, Note_on_c, 5, 50, 100
2, 359280, Note_on_c, 5, 52, 100
2, 359400, Note_on_c, 5, 48, 100
2, 359520, Note_on_c, 5, 47, 100
2, 359640, Note_on_c, 5, 55, 100
2, 359760, Note_on_c, 5, 50, 100
2, 359880, Note_on_c, 5, 47, 100
2, 360000, Note_on_c, 5, 43, 100
2, 360120, Note_on_c, 5, 45, 100
2, 360240, Note_on_c, 5, 47, 100
2, 360360, Note_on_c, 5, 48, 100
2, 360480, Note_on_c, 5, 45, 100
2, 360600, Note_on_c, 5, 47, 100
2, 360720, Note_on_c, 5, 45, 100
2, 360840, Note_on_c, 5, 43, 100
2, 360960, Note_on_c, 5, 42, 100
2, 361080, Note_on_c, 5, 40, 100
2, 361200, Note_on_c, 5, 38, 100
2, 361320, Note_on_c, 5, 43, 100
2, 361440, Note_on_c, 5, 40, 100
2, 361560, Note_on_c, 5, 42, 100
2, 361680, Note_on_c, 5, 45, 100
2, 361800, Note_on_c, 5, 43, 100
2, 361920, Note_on_c, 5, 45, 100
2, 362040, Note_on_c, 5, 47, 100
2, 362160, Note_on_c, 5, 45, 100
2, 362280, Note_on_c, 5, 47, 100
2, 362400, Note_on_c, 5, 48, 100
2, 362520, Note_on_c, 5, 47, 100
2, 362640, Note_on_c, 5, 49, 100
2, 362760, Note_on_c, 5, 50, 100
2, 362880, Note_on_c, 5, 52, 100
2, 363000, Note_on_c, 5, 50, 100
2, 363120, Note_on_c, 5, 49, 100
2, 363240, Note_on_c, 5, 47, 100
2, 363360, Note_on_c, 5, 52, 100
2, 363480, Note_on_c, 5, 43, 100
2, 363600, Note_on_c, 5, 42, 100
2, 363720, Note_on_c, 5, 45, 100
2, 363840, Note_on_c, 5, 43, 100
2, 363960, Note_on_c, 5, 42, 100
2, 364080, Note_on_c, 5, 43, 100
2, 364200, Note_on_c, 5, 42, 100
2, 364320, Note_on_c, 5, 40, 100
2, 364440, Note_on_c, 5, 38, 100
2, 364560, Note_on_c, 5, 40, 100
2, 364680, Note_on_c, 5, 45, 100
2, 364800, Note_on_c, 5, 43, 100
2, 364920, Note_on_c, 5, 52, 100
2, 365040, Note_on_c, 5, 51, 100
2, 365160, Note_on_c, 5, 50, 100
2, 365280, Note_on_c, 5, 52, 100
2, 365400, Note_on_c, 5, 50, 100
2, 365520, Note_on_c, 5, 48, 100
2, 365640, Note_on_c, 5, 47, 100
2, 365760, Note_on_c, 5, 43, 100
2, 365880, Note_on_c, 5, 45, 100
2, 366000, Note_on_c, 5, 47, 100
2, 366120, Note_on_c, 5, 48, 100
2, 366240, Note_on_c, 5, 50, 100
2, 366360, Note_on_c, 5, 43, 100
2, 366480, Note_on_c, 5, 55, 100
2, 366600, Note_on_c, 5, 54, 100
2, 366720, Note_on_c, 5, 52, 100
2, 366840, Note_on_c, 5, 54, 100
2, 366960, Note_on_c, 5, 50, 100
2, 367080, Note_on_c, 5, 50, 100
2, 367200, Note_on_c, 5, 62, 100
2, 367320, Note_on_c, 5, 64, 100
2, 367440, Note_on_c, 5, 62, 100
2, 367560, Note_on_c, 5, 62, 100
2, 367680, Note_on_c, 5, 60, 100
2, 367800, Note_on_c, 5, 52, 100
2, 367920, Note_on_c, 5, 54, 100
2, 368040, Note_on_c, 5, 55, 100
2, 368160, Note_on_c, 5, 57, 100
2, 368280, Note_on_c, 5, 59, 100
2, 368400, Note_on_c, 5, 57, 100
2, 368520, Note_on_c, 5, 55, 100
2, 368640, Note_on_c, 5, 57, 100
2, 368760, Note_on_c, 5, 59, 100
2, 368880, Note_on_c, 5, 57, 100
2, 369000, Note_on_c, 5, 59, 100
2, 369120, Note_on_c, 5, 64, 100
2, 369240, Note_on_c, 5, 62, 100
2, 369360, Note_on_c, 5, 60, 100
2, 369480, Note_on_c, 5, 59, 100
2, 369600, Note_on_c, 5, 60, 100
2, 369720, Note_on_c, 5, 57, 100
2, 369840, Note_on_c, 5, 55, 100
2, 369960, Note_on_c, 5, 57, 100
2, 370080, Note_on_c, 5, 59, 100
2, 370200, Note_on_c, 5, 60, 100
2, 370320, Note_on_c, 5, 62, 100
2, 370440, Note_on_c, 5, 50, 100
2, 370560, Note_on_c, 5, 62, 100
2, 370680, Note_on_c, 5, 64, 100
2, 370800, Note_on_c, 5, 62, 100
2, 370920, Note_on_c, 5, 61, 100
2, 371040, Note_on_c, 5, 57, 100
2, 371160, Note_on_c, 5, 62, 100
2, 371280, Note_on_c, 5, 50, 100
2, 371400, Note_on_c, 5, 6 , 100
2, 371520, Note_on_c, 5, 64, 100
2, 371640, Note_on_c, 5, 62, 100
2, 371760, Note_on_c, 5, 62, 100
2, 371880, Note_on_c, 5, 61, 100
2, 372000, Note_on_c, 5, 57, 100
2, 372120, Note_on_c, 5, 59, 100
2, 372240, Note_on_c, 5, 61, 100
2, 372360, Note_on_c, 5, 62, 100
2, 372480, Note_on_c, 5, 61, 100
2, 372600, Note_on_c, 5, 59, 100
2, 372720, Note_on_c, 5, 61, 100
2, 372840, Note_on_c, 5, 62, 100
2, 372960, Note_on_c, 5, 61, 100
2, 373080, Note_on_c, 5, 59, 100
2, 373200, Note_on_c, 5, 52, 100
2, 373320, Note_on_c, 5, 55, 100
2, 373440, Note_on_c, 5, 59, 100
2, 373560, Note_on_c, 5, 61, 100
2, 373680, Note_on_c, 5, 64, 100
2, 373800, Note_on_c, 5, 62, 100
2, 373920, Note_on_c, 5, 61, 100
2, 374040, Note_on_c, 5, 59, 100
2, 374160, Note_on_c, 5, 57, 100
2, 374280, Note_on_c, 5, 55, 100
2, 374400, Note_on_c, 5, 52, 100
2, 374520, Note_on_c, 5, 57, 100
2, 374640, Note_on_c, 5, 55, 100
2, 374760, Note_on_c, 5, 47, 100
2, 374880, Note_on_c, 5, 54, 100
2, 375000, Note_on_c, 5, 52, 100
2, 375120, Note_on_c, 5, 51, 100
2, 375240, Note_on_c, 5, 50, 100
2, 375360, Note_on_c, 5, 49, 100
2, 375480, Note_on_c, 5, 47, 100
2, 375600, Note_on_c, 5, 45, 100
2, 375720, Note_on_c, 5, 47, 100
2, 375840, Note_on_c, 5, 49, 100
2, 375960, Note_on_c, 5, 50, 100
2, 376080, Note_on_c, 4, 47, 100
2, 376200, Note_on_c, 5, 50, 100
2, 376320, Note_on_c, 4, 44, 100
2, 376440, Note_on_c, 4, 72, 100
2, 376560, Note_on_c, 4, 71, 100
2, 376680, Note_on_c, 4, 62, 100
2, 376800, Note_on_c, 4, 67, 100
2, 376920, Note_on_c, 4, 66, 100
2, 377040, Note_on_c, 4, 57, 100
2, 377160, Note_on_c, 4, 59, 100
2, 377280, Note_on_c, 5, 57, 100
2, 377400, Note_on_c, 4, 55, 100
2, 377520, Note_on_c, 4, 57, 100
2, 377640, Note_on_c, 4, 59, 100
2, 377760, Note_on_c, 4, 57, 100
2, 377880, Note_on_c, 4, 55, 100
2, 378000, Note_on_c, 4, 57, 100
2, 378120, Note_on_c, 4, 50, 100
2, 378240, Note_on_c, 4, 54, 100
2, 378360, Note_on_c, 4, 55, 100
2, 378480, Note_on_c, 4, 59, 100
2, 378600, Note_on_c, 4, 62, 100
2, 378720, Note_on_c, 4, 66, 100
2, 378840, Note_on_c, 4, 69, 100
2, 378960, Note_on_c, 4, 74, 100
2, 379080, Note_on_c, 4, 67, 100
2, 379200, Note_on_c, 4, 66, 100
2, 379320, Note_on_c, 4, 63, 100
2, 379440, Note_on_c, 4, 67, 100
2, 379560, Note_on_c, 4, 64, 100
2, 379680, Note_on_c, 4, 60, 100
2, 379800, Note_on_c, 4, 59, 100
2, 379920, Note_on_c, 4, 57, 100
2, 380040, Note_on_c, 4, 55, 100
2, 380160, Note_on_c, 4, 57, 100
2, 380280, Note_on_c, 4, 60, 100
2, 380400, Note_on_c, 4, 59, 100
2, 380520, Note_on_c, 4, 57, 100
2, 380640, Note_on_c, 4, 55, 100
2, 380760, Note_on_c, 4, 54, 100
2, 380880, Note_on_c, 4, 52, 100
2, 381000, Note_on_c, 4, 50, 100
2, 381120, Note_on_c, 4, 54, 100
2, 381240, Note_on_c, 4, 57, 100
2, 381360, Note_on_c, 4, 60, 100
2, 381480, Note_on_c, 4, 59, 100
2, 381600, Note_on_c, 4, 57, 100
2, 381720, Note_on_c, 4, 55, 100
2, 381840, Note_on_c, 4, 55, 100
2, 381960, Note_on_c, 4, 54, 100
2, 382080, Note_on_c, 4, 55, 100
2, 382200, Note_on_c, 4, 54, 100
2, 382320, Note_on_c, 4, 52, 100
2, 382440, Note_on_c, 4, 54, 100
2, 382560, Note_on_c, 4, 50, 100
2, 382680, Note_on_c, 4, 60, 100
2, 382800, Note_on_c, 4, 62, 100
2, 382920, Note_on_c, 4, 48, 100
2, 383040, Note_on_c, 4, 50, 100
2, 383160, Note_on_c, 4, 52, 100
2, 383280, Note_on_c, 4, 54, 100
2, 383400, Note_on_c, 4, 55, 100
2, 383520, Note_on_c, 4, 57, 100
2, 383640, Note_on_c, 4, 54, 100
2, 383760, Note_on_c, 4, 52, 100
2, 383880, Note_on_c, 4, 55, 100
2, 384000, Note_on_c, 4, 54, 100
2, 384120, Note_on_c, 4, 52, 100
2, 384240, Note_on_c, 4, 54, 100
2, 384360, Note_on_c, 4, 55, 100
2, 384480, Note_on_c, 4, 59, 100
2, 384600, Note_on_c, 4, 62, 100
2, 384720, Note_on_c, 4, 66, 100
2, 384840, Note_on_c, 4, 69, 100
2, 384960, Note_on_c, 4, 71, 100
2, 385080, Note_on_c, 4, 74, 100
2, 385200, Note_on_c, 4, 76, 100
2, 385320, Note_on_c, 4, 78, 100
2, 385440, Note_on_c, 4, 79, 100
2, 385560, Note_on_c, 4, 76, 100
2, 385680, Note_on_c, 4, 74, 100
2, 385800, Note_on_c, 4, 71, 100
2, 385920, Note_on_c, 4, 72, 100
2, 386040, Note_on_c, 4, 71, 100
2, 386160, Note_on_c, 4, 69, 100
2, 386280, Note_on_c, 4, 67, 100
2, 386400, Note_on_c, 4, 69, 100
2, 386520, Note_on_c, 4, 71, 100
2, 386640, Note_on_c, 4, 72, 100
2, 386760, Note_on_c, 4, 74, 100
2, 386880, Note_on_c, 4, 76, 100
2, 387000, Note_on_c, 4, 78, 100
2, 387120, Note_on_c, 4, 79, 100
2, 387240, Note_on_c, 4, 66, 100
2, 387360, Note_on_c, 4, 64, 100
2, 387480, Note_on_c, 4, 61, 100
2, 387600, Note_on_c, 4, 59, 100
2, 387720, Note_on_c, 4, 57, 100
2, 387840, Note_on_c, 4, 55, 100
2, 387960, Note_on_c, 4, 54, 100
2, 388080, Note_on_c, 4, 64, 100
2, 388200, Note_on_c, 4, 62, 100
2, 388320, Note_on_c, 4, 61, 100
2, 388440, Note_on_c, 4, 59, 100
2, 388560, Note_on_c, 4, 57, 100
2, 388680, Note_on_c, 4, 55, 100
2, 388800, Note_on_c, 4, 54, 100
2, 388920, Note_on_c, 4, 52, 100
2, 389040, Note_on_c, 4, 57, 100
2, 389160, Note_on_c, 4, 55, 100
2, 389280, Note_on_c, 4, 54, 100
2, 389400, Note_on_c, 4, 52, 100
2, 389520, Note_on_c, 4, 50, 100
2, 389640, Note_on_c, 4, 49, 100
2, 389760, Note_on_c, 4, 47, 100
2, 389880, Note_on_c, 4, 45, 100
2, 390000, Note_on_c, 4, 43, 100
2, 390120, Note_on_c, 4, 42, 100
2, 390240, Note_on_c, 4, 40, 100
2, 390360, Note_on_c, 4, 49, 100
2, 390480, Note_on_c, 4, 50, 100
2, 390600, Note_on_c, 4, 49, 100
2, 390720, Note_on_c, 4, 50, 100
2, 390840, Note_on_c, 4, 49, 100
2, 390960, Note_on_c, 4, 50, 100
2, 391080, Note_on_c, 4, 49, 100
2, 391200, Note_on_c, 4, 50, 100
2, 391320, Note_on_c, 4, 49, 100
2, 391440, Note_on_c, 4, 50, 100
2, 391560, Note_on_c, 4, 49, 100
2, 391680, Note_on_c, 4, 50, 100
2, 391800, Note_on_c, 4, 49, 100
2, 391920, Note_on_c, 4, 50, 100
2, 392040, Note_on_c, 4, 49, 100
2, 392160, Note_on_c, 4, 47, 100
2, 392280, Note_on_c, 4, 49, 100
2, 392400, Note_on_c, 4, 50, 100
2, 392520, Note_on_c, 4, 47, 100
2, 392640, Note_on_c, 4, 52, 100
2, 392760, Note_on_c, 4, 45, 100
2, 392880, Note_on_c, 4, 47, 100
2, 393000, Note_on_c, 4, 45, 100
2, 393120, Note_on_c, 4, 47, 100
2, 393240, Note_on_c, 4, 48, 100
2, 393360, Note_on_c, 4, 52, 100
2, 393480, Note_on_c, 4, 45, 100
2, 393600, Note_on_c, 4, 47, 100
2, 393720, Note_on_c, 4, 45, 100
2, 393840, Note_on_c, 4, 43, 100
2, 393960, Note_on_c, 4, 45, 100
2, 394080, Note_on_c, 4, 43, 100
2, 394200, Note_on_c, 4, 42, 100
2, 394320, Note_on_c, 4, 40, 100
2, 394440, Note_on_c, 4, 38, 100
2, 394560, Note_on_c, 4, 47, 100
2, 394680, Note_on_c, 4, 50, 100
2, 394800, Note_on_c, 4, 48, 100
2, 394920, Note_on_c, 4, 52, 100
2, 395040, Note_on_c, 4, 55, 100
2, 395160, Note_on_c, 4, 55, 100
2, 395280, Note_on_c, 4, 47, 100
2, 395400, Note_on_c, 4, 51, 100
2, 395520, Note_on_c, 4, 54, 100
2, 395640, Note_on_c, 4, 59, 100
2, 395760, Note_on_c, 4, 43, 100
2, 395880, Note_on_c, 4, 54, 100
2, 396000, Note_on_c, 4, 42, 100
2, 396120, Note_on_c, 4, 50, 100
2, 396240, Note_on_c, 4, 49, 100
2, 396360, Note_on_c, 4, 50, 100
2, 396480, Note_on_c, 4, 49, 100
2, 396600, Note_on_c, 4, 50, 100
2, 396720, Note_on_c, 4, 52, 100
2, 396840, Note_on_c, 4, 54, 100
2, 396960, Note_on_c, 4, 55, 100
2, 397080, Note_on_c, 4, 57, 100
2, 397200, Note_on_c, 4, 55, 100
2, 397320, Note_on_c, 4, 54, 100
2, 397440, Note_on_c, 4, 55, 100
2, 397560, Note_on_c, 4, 52, 100
2, 397680, Note_on_c, 4, 54, 100
2, 397800, Note_on_c, 4, 55, 100
2, 397920, Note_on_c, 4, 57, 100
2, 398040, Note_on_c, 4, 54, 100
2, 398160, Note_on_c, 4, 57, 100
2, 398280, Note_on_c, 4, 56, 100
2, 398400, Note_on_c, 4, 54, 100
2, 398520, Note_on_c, 4, 55, 100
2, 398640, Note_on_c, 4, 59, 100
2, 398760, Note_on_c, 4, 55, 100
2, 398880, Note_on_c, 4, 62, 100
2, 399000, Note_on_c, 4, 60, 100
2, 399120, Note_on_c, 4, 59, 100
2, 399240, Note_on_c, 4, 62, 100
2, 399360, End_track
0, 0, End_of_file
