0, 0, Header, 1, 17, 480
1, 0, Start_track
1, 0, Title_t, "The Goldberg Variations - BWV 988"
1, 0, Title_t, "Aria with 30 Variations for Harpsichord with 2 Manuals"
1, 0, Copyright_t, "Copyright © 1997 by David J. Grossman"
1, 0, Text_t, "Johann Sebastian Bach (1685-1750)"
1, 0, Text_t, "Sequenced by David J. Grossman with Cakewalk Pro Audio 5.0\012"
1, 0, Text_t, "Johann Sebastian Bach (1685-1750)\012"
1, 0, Text_t, "The Goldberg Variations - BWV 988\012"
1, 0, Text_t, "Aria with 30 Variations for Harpsichord with 2 Manuals\012"
1, 0, Text_t, "Aria\012"
1, 0, Text_t, "Variatio 1 a 1 Clav.\012"
1, 0, Text_t, "Variatio 2 a 1 Clav.\012"
1, 0, Text_t, "Variatio 3 a 1 Clav. Canone all'Unisono\012"
1, 0, Text_t, "Variatio 4 a 1 Clav.\012"
1, 0, Text_t, "Variatio 5 a 1 ovvero 2 Clav.\012"
1, 0, Text_t, "Variatio 6 a 1 Clav. Canone alla Seconda\012"
1, 0, Text_t, "Variatio 7 a 1 ovvero 2 Clav. - al tempo di Giga\012"
1, 0, Text_t, "Variatio 8 a 2 Clav.\012"
1, 0, Text_t, "Variatio 9 a 1 Clav. Canone alla Terza\012"
1, 0, Text_t, "Variatio 10 a 1 Clav. Fughetta\012"
1, 0, Text_t, "Variatio 11 a 2 Clav.\012"
1, 0, Text_t, "Variatio 12 Canone alla Quarta\012"
1, 0, Text_t, "Variatio 13 a 2 Clav.\012"
1, 0, Text_t, "Variatio 14 a 2 Clav.\012"
1, 0, Text_t, "Variatio 15 a 1 Clav. Canone alla Quinta - Andante\012"
1, 0, Text_t, "Variatio 16 a 1 Clav. Ouverture\012"
1, 0, Text_t, "Variatio 17 a 2 Clav.\012"
1, 0, Text_t, "Variatio 18 a 1 Clav. Canone alla Sesta\012"
1, 0, Text_t, "Variatio 19 a 1 Clav.\012"
1, 0, Text_t, "Variatio 20 a 2 Clav.\012"
1, 0, Text_t, "Variatio 21 Canone alla Settima\012"
1, 0, Text_t, "Variatio 22 a 1 Clav. Alla breve\012"
1, 0, Text_t, "Variatio 23 a 2 Clav.\012"
1, 0, Text_t, "Variatio 24 a 1 Clav. Canone all'Ottava\012"
1, 0, Text_t, "Variatio 25 a 2 Clav. - adagio\012"
1, 0, Text_t, "Variatio 26 a 2 Clav.\012"
1, 0, Text_t, "Variatio 27 a 2 Clav. Canone alla Nona\012"
1, 0, Text_t, "Variatio 28 a 2 Clav.\012"
1, 0, Text_t, "Variatio 29 a 1 ovvero 2 Clav.\012"
1, 0, Text_t, "Variatio 30 a 1 Clav. Quodlibet\012"
1, 0, Text_t, "Aria da Capo\012"
1, 0, SMPTE_offset, 96, 0, 3, 0, 0
1, 0, Time_signature, 3, 2, 24, 8
1, 0, Key_signature, 1, "major"
1, 0, Tempo, 1200000
1, 0, Marker_t, "Aria"
1, 46080, Marker_t, "/"
1, 90720, Tempo, 1250000
1, 90764, Tempo, 1263158
1, 90804, Tempo, 1276596
1, 90848, Tempo, 1290323
1, 90888, Tempo, 1304348
1, 90936, Tempo, 1318681
1, 90976, Tempo, 1333333
1, 91020, Tempo, 1348315
1, 91060, Tempo, 1363636
1, 91108, Tempo, 1379310
1, 91148, Tempo, 1395349
1, 91192, Tempo, 1411765
1, 91232, Tempo, 1428571
1, 91280, Tempo, 1445783
1, 91320, Tempo, 1463415
1, 91364, Tempo, 1481481
1, 91404, Tempo, 1500000
1, 91448, Tempo, 1518987
1, 91488, Tempo, 1538462
1, 91536, Tempo, 1558442
1, 91576, Tempo, 1578947
1, 91620, Tempo, 1600000
1, 91660, Tempo, 1621622
1, 91680, Tempo, 3157895
1, 92160, Tempo, 600000
1, 92160, Marker_t, "Variatio 1 a 1 Clav."
1, 138240, Marker_t, "/"
1, 183840, Tempo, 1200000
1, 184320, Time_signature, 2, 2, 24, 8
1, 184320, Tempo, 600000
1, 184320, Marker_t, "Variatio 2 a 1 Clav."
1, 215040, Marker_t, "/"
1, 245760, Time_signature, 12, 3, 12, 8
1, 245760, Marker_t, "Variatio 3 a 1 Clav. Canone all'Unisono"
1, 291840, Marker_t, "/"
1, 337920, Time_signature, 3, 3, 12, 8
1, 337920, Marker_t, "Variatio 4 a 1 Clav."
1, 360960, Marker_t, "/"
1, 384000, Time_signature, 3, 2, 24, 8
1, 384000, Marker_t, "Variatio 5 a 1 ovvero 2 Clav."
1, 430080, Marker_t, "/"
1, 475680, Tempo, 1200000
1, 476160, Time_signature, 3, 3, 12, 8
1, 476160, Tempo, 600000
1, 476160, Marker_t, "Variatio 6 a 1 Clav. Canone alla Seconda"
1, 499920, Marker_t, "/"
1, 522240, Time_signature, 6, 3, 12, 8
1, 522240, Marker_t, "Variatio 7 a 1 ovvero 2 Clav. - al tempo di Giga"
1, 568320, Marker_t, "/"
1, 614400, Time_signature, 3, 2, 24, 8
1, 614400, Marker_t, "Variatio 8 a 2 Clav."
1, 660480, Marker_t, "/"
1, 706080, Tempo, 1200000
1, 706560, Time_signature, 4, 2, 24, 8
1, 706560, Tempo, 600000
1, 706560, Marker_t, "Variatio 9 a 1 Clav. Canone alla Terza"
1, 737280, Marker_t, "/"
1, 768000, Tempo, 300000
1, 768000, Marker_t, "Variatio 10 a 1 Clav. Fughetta"
1, 829440, Marker_t, "/"
1, 889920, Tempo, 600000
1, 890880, Time_signature, 12, 4, 6, 8
1, 890880, Marker_t, "Variatio 11 a 2 Clav."
1, 936960, Marker_t, "/"
1, 983040, Time_signature, 3, 2, 24, 8
1, 983040, Marker_t, "Variatio 12 Canone alla Quarta"
1, 1029120, Marker_t, "/"
1, 1075200, Tempo, 1200000
1, 1075200, Marker_t, "Variatio 13 a 2 Clav."
1, 1121280, Marker_t, "/"
1, 1167360, Tempo, 600000
1, 1167360, Marker_t, "Variatio 14 a 2 Clav."
1, 1213440, Marker_t, "/"
1, 1259520, Time_signature, 2, 2, 24, 8
1, 1259520, Key_signature, -2, "major"
1, 1259520, Tempo, 1818182
1, 1259520, Marker_t, "Variatio 15 a 1 Clav. Canone alla Quinta - Andante"
1, 1290240, Marker_t, "/"
1, 1320960, Time_signature, 4, 2, 24, 8
1, 1320960, Key_signature, 1, "major"
1, 1320960, Tempo, 1090909
1, 1320960, Marker_t, "Variatio 16 a 1 Clav. Ouverture"
1, 1320984, Tempo, 1081081
1, 1321008, Tempo, 1071429
1, 1321032, Tempo, 1061947
1, 1321056, Tempo, 1052632
1, 1321080, Tempo, 1043478
1, 1321104, Tempo, 1034483
1, 1321128, Tempo, 1025641
1, 1321152, Tempo, 1016949
1, 1321176, Tempo, 1008403
1, 1321200, Tempo, 1000000
1, 1321224, Tempo, 991736
1, 1321248, Tempo, 983607
1, 1321272, Tempo, 975610
1, 1321296, Tempo, 967742
1, 1321320, Tempo, 960000
1, 1321344, Tempo, 952381
1, 1321368, Tempo, 944882
1, 1321392, Tempo, 937500
1, 1321416, Tempo, 930233
1, 1321440, Tempo, 923077
1, 1321464, Tempo, 916031
1, 1321488, Tempo, 909091
1, 1321512, Tempo, 902256
1, 1321536, Tempo, 895522
1, 1321560, Tempo, 888889
1, 1321584, Tempo, 882353
1, 1321608, Tempo, 875912
1, 1321632, Tempo, 869565
1, 1321656, Tempo, 863309
1, 1321680, Tempo, 857143
1, 1321704, Tempo, 851064
1, 1321728, Tempo, 845070
1, 1321752, Tempo, 839161
1, 1321776, Tempo, 833333
1, 1321800, Tempo, 827586
1, 1321824, Tempo, 821918
1, 1321848, Tempo, 816327
1, 1321872, Tempo, 810811
1, 1321896, Tempo, 805369
1, 1321920, Tempo, 800000
1, 1351680, Tempo, 1090909
1, 1351704, Tempo, 1081081
1, 1351728, Tempo, 1071429
1, 1351752, Tempo, 1061947
1, 1351776, Tempo, 1052632
1, 1351800, Tempo, 1043478
1, 1351824, Tempo, 1034483
1, 1351848, Tempo, 1025641
1, 1351872, Tempo, 1016949
1, 1351896, Tempo, 1008403
1, 1351920, Tempo, 1000000
1, 1351944, Tempo, 991736
1, 1351968, Tempo, 983607
1, 1351992, Tempo, 975610
1, 1352016, Tempo, 967742
1, 1352040, Tempo, 960000
1, 1352064, Tempo, 952381
1, 1352088, Tempo, 944882
1, 1352112, Tempo, 937500
1, 1352136, Tempo, 930233
1, 1352160, Tempo, 923077
1, 1352184, Tempo, 916031
1, 1352208, Tempo, 909091
1, 1352232, Tempo, 902256
1, 1352256, Tempo, 895522
1, 1352280, Tempo, 888889
1, 1352304, Tempo, 882353
1, 1352328, Tempo, 875912
1, 1352352, Tempo, 869565
1, 1352376, Tempo, 863309
1, 1352400, Tempo, 857143
1, 1352424, Tempo, 851064
1, 1352448, Tempo, 845070
1, 1352472, Tempo, 839161
1, 1352496, Tempo, 833333
1, 1352520, Tempo, 827586
1, 1352544, Tempo, 821918
1, 1352568, Tempo, 816327
1, 1352592, Tempo, 810811
1, 1352616, Tempo, 805369
1, 1352640, Tempo, 800000
1, 1380480, Time_signature, 3, 3, 12, 8
1, 1380480, Tempo, 600000
1, 1380480, Marker_t, "/"
1, 1425840, Time_signature, 4, 2, 24, 8
1, 1427760, Time_signature, 3, 2, 24, 8
1, 1427760, Marker_t, "Variatio 17 a 2 Clav."
1, 1473840, Marker_t, "/"
1, 1519920, Time_signature, 4, 2, 24, 8
1, 1519920, Tempo, 300000
1, 1519920, Marker_t, "Variatio 18 a 1 Clav. Canone alla Sesta"
1, 1581360, Marker_t, "/"
1, 1642800, Time_signature, 3, 3, 12, 8
1, 1642800, Tempo, 899955
1, 1642800, Marker_t, "Variatio 19 a 1 Clav."
1, 1665840, Marker_t, "/"
1, 1688880, Time_signature, 3, 2, 24, 8
1, 1688880, Tempo, 600000
1, 1688880, Marker_t, "Variatio 20 a 2 Clav."
1, 1734960, Marker_t, "/"
1, 1781040, Time_signature, 4, 2, 24, 8
1, 1781040, Key_signature, -2, "major"
1, 1781040, Tempo, 1200000
1, 1781040, Marker_t, "Variatio 21 Canone alla Settima"
1, 1811760, Marker_t, "/"
1, 1842480, Tempo, 300000
1, 1842480, Marker_t, "Variatio 22 a 1 Clav. Alla breve"
1, 1903920, Marker_t, "/"
1, 1965360, Time_signature, 3, 2, 24, 8
1, 1965360, Key_signature, 1, "major"
1, 1965360, Tempo, 600000
1, 1965360, Marker_t, "Variatio 23 a 2 Clav."
1, 2011440, Marker_t, "/"
1, 2057520, Time_signature, 9, 3, 12, 8
1, 2057520, Marker_t, "Variatio 24 a 1 Clav. Canone all'Ottava"
1, 2126640, Marker_t, "/"
1, 2195040, Tempo, 1200000
1, 2195760, Time_signature, 3, 2, 24, 8
1, 2195760, Key_signature, -2, "major"
1, 2195760, Tempo, 1800180
1, 2195760, Marker_t, "Variatio 25 a 2 Clav. - adagio"
1, 2241840, Marker_t, "/"
1, 2287920, Key_signature, 1, "major"
1, 2287920, Tempo, 600000
1, 2287920, Marker_t, "Variatio 26 a 2 Clav."
1, 2334000, Marker_t, "/"
1, 2379600, Tempo, 1200000
1, 2380080, Time_signature, 6, 3, 12, 8
1, 2380080, Tempo, 600000
1, 2380080, Marker_t, "Variatio 27 a 2 Clav. Canone alla Nona"
1, 2426160, Marker_t, "/"
1, 2472240, Time_signature, 3, 2, 24, 8
1, 2472240, Marker_t, "Variatio 28 a 2 Clav."
1, 2518320, Marker_t, "/"
1, 2563920, Tempo, 1200000
1, 2564400, Tempo, 600000
1, 2564400, Marker_t, "Variatio 29 a 1 ovvero 2 Clav."
1, 2610480, Marker_t, "/"
1, 2656080, Tempo, 1200000
1, 2656560, Time_signature, 1, 3, 12, 8
1, 2656560, Tempo, 600000
1, 2656560, Marker_t, "Variatio 30 a 1 Clav. Quodlibet"
1, 2656800, Time_signature, 4, 2, 24, 8
1, 2687520, Marker_t, "/"
1, 2717760, Tempo, 4800000
1, 2718000, Tempo, 300000
1, 2718240, Tempo, 1200000
1, 2718240, Marker_t, "Aria da Capo"
1, 2764320, Marker_t, "/"
1, 2807522, Tempo, 1200000
1, 2807618, Tempo, 1212121
1, 2807718, Tempo, 1224490
1, 2807814, Tempo, 1237113
1, 2807906, Tempo, 1250000
1, 2808002, Tempo, 1263158
1, 2808098, Tempo, 1276596
1, 2808198, Tempo, 1290323
1, 2808290, Tempo, 1304348
1, 2808386, Tempo, 1318681
1, 2808482, Tempo, 1333333
1, 2808578, Tempo, 1348315
1, 2808670, Tempo, 1363636
1, 2808770, Tempo, 1379310
1, 2808866, Tempo, 1395349
1, 2808958, Tempo, 1411765
1, 2809014, Tempo, 1428571
1, 2809070, Tempo, 1445783
1, 2809130, Tempo, 1463415
1, 2809186, Tempo, 1481481
1, 2809238, Tempo, 1500000
1, 2809294, Tempo, 1518987
1, 2809350, Tempo, 1538462
1, 2809410, Tempo, 1558442
1, 2809458, Tempo, 1578947
1, 2809518, Tempo, 1600000
1, 2809574, Tempo, 1621622
1, 2809630, Tempo, 1643836
1, 2809682, Tempo, 1666667
1, 2809738, Tempo, 1690141
1, 2809798, Tempo, 1714286
1, 2809854, Tempo, 1739130
1, 2809920, Tempo, 3000000
1, 2810160, Tempo, 7500000
1, 2810400, Time_signature, 2, 2, 24, 8
1, 2810400, Tempo, 600000
1, 2810400, Marker_t, "End"
1, 2811360, Marker_t, "Canon 1"
1, 2820000, Marker_t, "Canon 2"
1, 2828640, Marker_t, "Canon 3"
1, 2841120, Marker_t, "Canon 4"
1, 2851680, Marker_t, "Canon 5"
1, 2864160, Marker_t, "Canon 6"
1, 2876640, Marker_t, "Canon 7"
1, 2889120, Marker_t, "Canon 8"
1, 2901600, Marker_t, "Canon 9"
1, 2914080, Marker_t, "Canon 10"
1, 2926560, Marker_t, "Canon 11"
1, 2939040, Marker_t, "Canon 12"
1, 2960160, Marker_t, "Canon 13"
1, 2973600, Marker_t, "Canon 14"
1, 2973600, End_track
2, 0, Start_track
2, 0, MIDI_port, 0
2, 0, Title_t, "Solo Harpsichord with 2 Manuals"
2, 0, Program_c, 0, 6
2, 0, Control_c, 0, 7, 100
2, 0, Control_c, 0, 10, 79
2, 0, Note_on_c, 0, 79, 100
2, 480, Note_on_c, 0, 79, 0
2, 480, Note_on_c, 0, 79, 100
2, 960, Note_on_c, 0, 79, 0
2, 960, Note_on_c, 0, 81, 100
2, 1020, Note_on_c, 0, 81, 0
2, 1020, Note_on_c, 0, 79, 100
2, 1080, Note_on_c, 0, 79, 0
2, 1080, Note_on_c, 0, 81, 100
2, 1320, Note_on_c, 0, 81, 0
2, 1320, Note_on_c, 0, 83, 100
2, 1440, Note_on_c, 0, 83, 0
2, 1440, Note_on_c, 0, 81, 100
2, 1680, Note_on_c, 0, 81, 0
2, 1680, Note_on_c, 0, 79, 100
2, 1800, Note_on_c, 0, 79, 0
2, 1800, Note_on_c, 0, 78, 100
2, 1920, Note_on_c, 0, 78, 0
2, 1920, Note_on_c, 0, 76, 100
2, 2160, Note_on_c, 0, 76, 0
2, 2160, Note_on_c, 0, 74, 100
2, 2880, Note_on_c, 0, 74, 0
2, 2880, Note_on_c, 0, 67, 100
2, 2940, Note_on_c, 0, 67, 0
2, 2940, Note_on_c, 0, 66, 100
2, 3000, Note_on_c, 0, 66, 0
2, 3000, Note_on_c, 0, 67, 100
2, 3360, Note_on_c, 0, 67, 0
2, 3360, Note_on_c, 0, 69, 100
2, 3420, Note_on_c, 0, 69, 0
2, 3420, Note_on_c, 0, 67, 100
2, 3480, Note_on_c, 0, 67, 0
2, 3480, Note_on_c, 0, 66, 100
2, 3540, Note_on_c, 0, 66, 0
2, 3540, Note_on_c, 0, 67, 100
2, 3600, Note_on_c, 0, 67, 0
2, 3600, Note_on_c, 0, 69, 100
2, 3660, Note_on_c, 0, 69, 0
2, 3660, Note_on_c, 0, 67, 100
2, 3720, Note_on_c, 0, 67, 0
2, 3720, Note_on_c, 0, 69, 100
2, 3780, Note_on_c, 0, 69, 0
2, 3780, Note_on_c, 0, 67, 100
2, 3840, Note_on_c, 0, 67, 0
2, 3840, Note_on_c, 0, 69, 100
2, 3880, Note_on_c, 0, 69, 0
2, 3880, Note_on_c, 0, 67, 100
2, 3920, Note_on_c, 0, 67, 0
2, 3920, Note_on_c, 0, 69, 100
2, 3960, Note_on_c, 0, 69, 0
2, 3960, Note_on_c, 0, 67, 100
2, 4000, Note_on_c, 0, 67, 0
2, 4000, Note_on_c, 0, 69, 100
2, 4040, Note_on_c, 0, 69, 0
2, 4041, Note_on_c, 0, 67, 100
2, 4080, Note_on_c, 0, 66, 100
2, 4081, Note_on_c, 0, 67, 0
2, 4200, Note_on_c, 0, 66, 0
2, 4200, Note_on_c, 0, 67, 100
2, 4320, Note_on_c, 0, 67, 0
2, 4320, Note_on_c, 0, 69, 100
2, 4380, Note_on_c, 0, 69, 0
2, 4380, Note_on_c, 0, 67, 100
2, 4440, Note_on_c, 0, 67, 0
2, 4440, Note_on_c, 0, 66, 100
2, 4560, Note_on_c, 0, 66, 0
2, 4560, Note_on_c, 0, 67, 100
2, 4620, Note_on_c, 0, 67, 0
2, 4620, Note_on_c, 0, 66, 100
2, 4680, Note_on_c, 0, 66, 0
2, 4680, Note_on_c, 0, 64, 100
2, 4800, Note_on_c, 0, 64, 0
2, 4800, Note_on_c, 0, 64, 100
2, 5040, Note_on_c, 0, 64, 0
2, 5040, Note_on_c, 0, 62, 100
2, 5760, Note_on_c, 0, 62, 0
2, 5760, Note_on_c, 0, 74, 100
2, 6240, Note_on_c, 0, 74, 0
2, 6240, Note_on_c, 0, 74, 100
2, 6720, Note_on_c, 0, 74, 0
2, 6720, Note_on_c, 0, 76, 100
2, 6780, Note_on_c, 0, 76, 0
2, 6780, Note_on_c, 0, 74, 100
2, 6840, Note_on_c, 0, 74, 0
2, 6840, Note_on_c, 0, 76, 100
2, 7080, Note_on_c, 0, 76, 0
2, 7080, Note_on_c, 0, 77, 100
2, 7200, Note_on_c, 0, 77, 0
2, 7200, Note_on_c, 0, 76, 100
2, 7440, Note_on_c, 0, 76, 0
2, 7440, Note_on_c, 0, 74, 100
2, 7560, Note_on_c, 0, 74, 0
2, 7560, Note_on_c, 0, 72, 100
2, 7680, Note_on_c, 0, 72, 0
2, 7680, Note_on_c, 0, 71, 100
2, 7920, Note_on_c, 0, 71, 0
2, 7920, Note_on_c, 0, 69, 100
2, 8400, Note_on_c, 0, 69, 0
2, 8400, Note_on_c, 0, 79, 100
2, 8460, Note_on_c, 0, 79, 0
2, 8460, Note_on_c, 0, 78, 100
2, 8520, Note_on_c, 0, 78, 0
2, 8520, Note_on_c, 0, 76, 100
2, 8580, Note_on_c, 0, 76, 0
2, 8580, Note_on_c, 0, 78, 100
2, 8640, Note_on_c, 0, 78, 0
2, 8640, Note_on_c, 0, 79, 100
2, 8700, Note_on_c, 0, 79, 0
2, 8700, Note_on_c, 0, 78, 100
2, 8880, Note_on_c, 0, 78, 0
2, 8880, Note_on_c, 0, 81, 100
2, 8940, Note_on_c, 0, 81, 0
2, 8940, Note_on_c, 0, 79, 100
2, 9120, Note_on_c, 0, 79, 0
2, 9120, Note_on_c, 0, 78, 100
2, 9180, Note_on_c, 0, 78, 0
2, 9180, Note_on_c, 0, 76, 100
2, 9360, Note_on_c, 0, 76, 0
2, 9360, Note_on_c, 0, 74, 100
2, 9420, Note_on_c, 0, 74, 0
2, 9420, Note_on_c, 0, 72, 100
2, 9600, Note_on_c, 0, 72, 0
2, 9600, Note_on_c, 0, 72, 100
2, 9720, Note_on_c, 0, 72, 0
2, 9720, Note_on_c, 0, 81, 100
2, 9960, Note_on_c, 0, 81, 0
2, 9960, Note_on_c, 0, 72, 100
2, 10080, Note_on_c, 0, 72, 0
2, 10080, Note_on_c, 0, 71, 100
2, 10140, Note_on_c, 0, 71, 0
2, 10140, Note_on_c, 0, 67, 100
2, 10440, Note_on_c, 0, 67, 0
2, 10440, Note_on_c, 0, 66, 100
2, 10560, Note_on_c, 0, 66, 0
2, 10560, Note_on_c, 0, 66, 100
2, 10800, Note_on_c, 0, 66, 0
2, 10800, Note_on_c, 0, 67, 100
2, 10860, Note_on_c, 0, 67, 0
2, 10860, Note_on_c, 0, 66, 100
2, 10920, Note_on_c, 0, 66, 0
2, 10920, Note_on_c, 0, 67, 100
2, 11520, Note_on_c, 0, 67, 0
2, 11520, Note_on_c, 0, 71, 100
2, 12000, Note_on_c, 0, 71, 0
2, 12000, Note_on_c, 0, 71, 100
2, 12480, Note_on_c, 0, 71, 0
2, 12480, Note_on_c, 0, 73, 100
2, 12540, Note_on_c, 0, 73, 0
2, 12540, Note_on_c, 0, 71, 100
2, 12600, Note_on_c, 0, 71, 0
2, 12600, Note_on_c, 0, 73, 100
2, 12840, Note_on_c, 0, 73, 0
2, 12840, Note_on_c, 0, 74, 100
2, 12960, Note_on_c, 0, 74, 0
2, 12960, Note_on_c, 0, 74, 100
2, 13080, Note_on_c, 0, 74, 0
2, 13080, Note_on_c, 0, 73, 100
2, 13200, Note_on_c, 0, 73, 0
2, 13200, Note_on_c, 0, 71, 100
2, 13320, Note_on_c, 0, 71, 0
2, 13320, Note_on_c, 0, 69, 100
2, 14310, Note_on_c, 0, 69, 0
2, 14310, Note_on_c, 0, 67, 100
2, 14340, Note_on_c, 0, 71, 100
2, 14370, Note_on_c, 0, 76, 100
2, 14400, Note_on_c, 0, 79, 100
2, 14790, Note_on_c, 0, 67, 0
2, 14820, Note_on_c, 0, 71, 0
2, 14850, Note_on_c, 0, 76, 0
2, 14880, Note_on_c, 0, 79, 0
2, 14880, Note_on_c, 0, 81, 100
2, 14940, Note_on_c, 0, 81, 0
2, 14940, Note_on_c, 0, 79, 100
2, 15000, Note_on_c, 0, 79, 0
2, 15000, Note_on_c, 0, 78, 100
2, 15060, Note_on_c, 0, 78, 0
2, 15060, Note_on_c, 0, 79, 100
2, 15120, Note_on_c, 0, 79, 0
2, 15120, Note_on_c, 0, 81, 100
2, 15180, Note_on_c, 0, 81, 0
2, 15180, Note_on_c, 0, 79, 100
2, 15240, Note_on_c, 0, 79, 0
2, 15240, Note_on_c, 0, 81, 100
2, 15300, Note_on_c, 0, 81, 0
2, 15300, Note_on_c, 0, 79, 100
2, 15360, Note_on_c, 0, 79, 0
2, 15360, Note_on_c, 0, 81, 100
2, 15400, Note_on_c, 0, 81, 0
2, 15400, Note_on_c, 0, 79, 100
2, 15440, Note_on_c, 0, 79, 0
2, 15440, Note_on_c, 0, 81, 100
2, 15480, Note_on_c, 0, 81, 0
2, 15480, Note_on_c, 0, 79, 100
2, 15520, Note_on_c, 0, 79, 0
2, 15520, Note_on_c, 0, 81, 100
2, 15560, Note_on_c, 0, 81, 0
2, 15560, Note_on_c, 0, 79, 100
2, 15600, Note_on_c, 0, 79, 0
2, 15600, Note_on_c, 0, 78, 100
2, 15720, Note_on_c, 0, 78, 0
2, 15720, Note_on_c, 0, 79, 100
2, 15840, Note_on_c, 0, 79, 0
2, 15840, Note_on_c, 0, 79, 100
2, 16080, Note_on_c, 0, 79, 0
2, 16080, Note_on_c, 0, 78, 100
2, 16200, Note_on_c, 0, 78, 0
2, 16200, Note_on_c, 0, 76, 100
2, 16320, Note_on_c, 0, 76, 0
2, 16320, Note_on_c, 0, 74, 100
2, 16380, Note_on_c, 0, 74, 0
2, 16380, Note_on_c, 0, 73, 100
2, 16440, Note_on_c, 0, 73, 0
2, 16440, Note_on_c, 0, 71, 100
2, 16500, Note_on_c, 0, 71, 0
2, 16500, Note_on_c, 0, 73, 100
2, 16560, Note_on_c, 0, 73, 0
2, 16560, Note_on_c, 0, 74, 100
2, 16620, Note_on_c, 0, 74, 0
2, 16620, Note_on_c, 0, 73, 100
2, 16680, Note_on_c, 0, 73, 0
2, 16680, Note_on_c, 0, 74, 100
2, 16720, Note_on_c, 0, 74, 0
2, 16720, Note_on_c, 0, 73, 100
2, 16760, Note_on_c, 0, 73, 0
2, 16760, Note_on_c, 0, 74, 100
2, 16800, Note_on_c, 0, 74, 0
2, 16800, Note_on_c, 0, 73, 100
2, 17040, Note_on_c, 0, 73, 0
2, 17040, Note_on_c, 0, 76, 100
2, 17280, Note_on_c, 0, 76, 0
2, 17280, Note_on_c, 0, 81, 100
2, 17400, Note_on_c, 0, 81, 0
2, 17400, Note_on_c, 0, 79, 100
2, 17520, Note_on_c, 0, 79, 0
2, 17520, Note_on_c, 0, 78, 100
2, 17640, Note_on_c, 0, 78, 0
2, 17640, Note_on_c, 0, 76, 100
2, 17760, Note_on_c, 0, 76, 0
2, 17760, Note_on_c, 0, 74, 100
2, 18000, Note_on_c, 0, 74, 0
2, 18000, Note_on_c, 0, 69, 100
2, 18540, Note_on_c, 0, 69, 0
2, 18540, Note_on_c, 0, 71, 100
2, 18600, Note_on_c, 0, 71, 0
2, 18600, Note_on_c, 0, 72, 100
2, 18720, Note_on_c, 0, 72, 0
2, 18720, Note_on_c, 0, 71, 100
2, 18840, Note_on_c, 0, 71, 0
2, 18840, Note_on_c, 0, 69, 100
2, 18960, Note_on_c, 0, 69, 0
2, 18960, Note_on_c, 0, 67, 100
2, 19080, Note_on_c, 0, 67, 0
2, 19080, Note_on_c, 0, 66, 100
2, 19200, Note_on_c, 0, 66, 0
2, 19200, Note_on_c, 0, 64, 100
2, 19440, Note_on_c, 0, 64, 0
2, 19440, Note_on_c, 0, 74, 100
2, 19560, Note_on_c, 0, 74, 0
2, 19560, Note_on_c, 0, 73, 100
2, 19980, Note_on_c, 0, 73, 0
2, 19980, Note_on_c, 0, 74, 100
2, 20040, Note_on_c, 0, 74, 0
2, 20040, Note_on_c, 0, 76, 100
2, 20160, Note_on_c, 0, 76, 0
2, 20160, Note_on_c, 0, 74, 100
2, 20280, Note_on_c, 0, 74, 0
2, 20280, Note_on_c, 0, 73, 100
2, 20400, Note_on_c, 0, 73, 0
2, 20400, Note_on_c, 0, 71, 100
2, 20520, Note_on_c, 0, 71, 0
2, 20520, Note_on_c, 0, 69, 100
2, 20640, Note_on_c, 0, 69, 0
2, 20640, Note_on_c, 0, 79, 100
2, 20880, Note_on_c, 0, 79, 0
2, 20880, Note_on_c, 0, 71, 100
2, 21360, Note_on_c, 0, 71, 0
2, 21360, Note_on_c, 0, 73, 100
2, 21600, Note_on_c, 0, 73, 0
2, 21600, Note_on_c, 0, 73, 100
2, 21720, Note_on_c, 0, 73, 0
2, 21720, Note_on_c, 0, 74, 100
2, 21900, Note_on_c, 0, 74, 0
2, 21900, Note_on_c, 0, 76, 100
2, 21960, Note_on_c, 0, 76, 0
2, 21960, Note_on_c, 0, 74, 100
2, 22020, Note_on_c, 0, 74, 0
2, 22020, Note_on_c, 0, 73, 100
2, 22080, Note_on_c, 0, 73, 0
2, 22080, Note_on_c, 0, 73, 100
2, 22320, Note_on_c, 0, 73, 0
2, 22320, Note_on_c, 0, 74, 100
2, 23040, Note_on_c, 0, 74, 0
2, 23040, Note_on_c, 0, 79, 100
2, 23520, Note_on_c, 0, 79, 0
2, 23520, Note_on_c, 0, 79, 100
2, 24000, Note_on_c, 0, 79, 0
2, 24000, Note_on_c, 0, 81, 100
2, 24060, Note_on_c, 0, 81, 0
2, 24060, Note_on_c, 0, 79, 100
2, 24120, Note_on_c, 0, 79, 0
2, 24120, Note_on_c, 0, 81, 100
2, 24360, Note_on_c, 0, 81, 0
2, 24360, Note_on_c, 0, 83, 100
2, 24480, Note_on_c, 0, 83, 0
2, 24480, Note_on_c, 0, 81, 100
2, 24720, Note_on_c, 0, 81, 0
2, 24720, Note_on_c, 0, 79, 100
2, 24840, Note_on_c, 0, 79, 0
2, 24840, Note_on_c, 0, 78, 100
2, 24960, Note_on_c, 0, 78, 0
2, 24960, Note_on_c, 0, 76, 100
2, 25200, Note_on_c, 0, 76, 0
2, 25200, Note_on_c, 0, 74, 100
2, 25920, Note_on_c, 0, 74, 0
2, 25920, Note_on_c, 0, 67, 100
2, 25980, Note_on_c, 0, 67, 0
2, 25980, Note_on_c, 0, 66, 100
2, 26040, Note_on_c, 0, 66, 0
2, 26040, Note_on_c, 0, 67, 100
2, 26400, Note_on_c, 0, 67, 0
2, 26400, Note_on_c, 0, 69, 100
2, 26460, Note_on_c, 0, 69, 0
2, 26460, Note_on_c, 0, 67, 100
2, 26520, Note_on_c, 0, 67, 0
2, 26520, Note_on_c, 0, 66, 100
2, 26580, Note_on_c, 0, 66, 0
2, 26580, Note_on_c, 0, 67, 100
2, 26640, Note_on_c, 0, 67, 0
2, 26640, Note_on_c, 0, 69, 100
2, 26700, Note_on_c, 0, 69, 0
2, 26700, Note_on_c, 0, 67, 100
2, 26760, Note_on_c, 0, 67, 0
2, 26760, Note_on_c, 0, 69, 100
2, 26820, Note_on_c, 0, 69, 0
2, 26820, Note_on_c, 0, 67, 100
2, 26880, Note_on_c, 0, 67, 0
2, 26880, Note_on_c, 0, 69, 100
2, 26920, Note_on_c, 0, 69, 0
2, 26920, Note_on_c, 0, 67, 100
2, 26960, Note_on_c, 0, 67, 0
2, 26960, Note_on_c, 0, 69, 100
2, 27000, Note_on_c, 0, 69, 0
2, 27000, Note_on_c, 0, 67, 100
2, 27040, Note_on_c, 0, 67, 0
2, 27040, Note_on_c, 0, 69, 100
2, 27080, Note_on_c, 0, 69, 0
2, 27081, Note_on_c, 0, 67, 100
2, 27120, Note_on_c, 0, 66, 100
2, 27121, Note_on_c, 0, 67, 0
2, 27240, Note_on_c, 0, 66, 0
2, 27240, Note_on_c, 0, 67, 100
2, 27360, Note_on_c, 0, 67, 0
2, 27360, Note_on_c, 0, 69, 100
2, 27420, Note_on_c, 0, 69, 0
2, 27420, Note_on_c, 0, 67, 100
2, 27480, Note_on_c, 0, 67, 0
2, 27480, Note_on_c, 0, 66, 100
2, 27600, Note_on_c, 0, 66, 0
2, 27600, Note_on_c, 0, 67, 100
2, 27660, Note_on_c, 0, 67, 0
2, 27660, Note_on_c, 0, 66, 100
2, 27720, Note_on_c, 0, 66, 0
2, 27720, Note_on_c, 0, 64, 100
2, 27840, Note_on_c, 0, 64, 0
2, 27840, Note_on_c, 0, 64, 100
2, 28080, Note_on_c, 0, 64, 0
2, 28080, Note_on_c, 0, 62, 100
2, 28800, Note_on_c, 0, 62, 0
2, 28800, Note_on_c, 0, 74, 100
2, 29280, Note_on_c, 0, 74, 0
2, 29280, Note_on_c, 0, 74, 100
2, 29760, Note_on_c, 0, 74, 0
2, 29760, Note_on_c, 0, 76, 100
2, 29820, Note_on_c, 0, 76, 0
2, 29820, Note_on_c, 0, 74, 100
2, 29880, Note_on_c, 0, 74, 0
2, 29880, Note_on_c, 0, 76, 100
2, 30120, Note_on_c, 0, 76, 0
2, 30120, Note_on_c, 0, 77, 100
2, 30240, Note_on_c, 0, 77, 0
2, 30240, Note_on_c, 0, 76, 100
2, 30480, Note_on_c, 0, 76, 0
2, 30480, Note_on_c, 0, 74, 100
2, 30600, Note_on_c, 0, 74, 0
2, 30600, Note_on_c, 0, 72, 100
2, 30720, Note_on_c, 0, 72, 0
2, 30720, Note_on_c, 0, 71, 100
2, 30960, Note_on_c, 0, 71, 0
2, 30960, Note_on_c, 0, 69, 100
2, 31440, Note_on_c, 0, 69, 0
2, 31440, Note_on_c, 0, 79, 100
2, 31500, Note_on_c, 0, 79, 0
2, 31500, Note_on_c, 0, 78, 100
2, 31560, Note_on_c, 0, 78, 0
2, 31560, Note_on_c, 0, 76, 100
2, 31620, Note_on_c, 0, 76, 0
2, 31620, Note_on_c, 0, 78, 100
2, 31680, Note_on_c, 0, 78, 0
2, 31680, Note_on_c, 0, 79, 100
2, 31740, Note_on_c, 0, 79, 0
2, 31740, Note_on_c, 0, 78, 100
2, 31920, Note_on_c, 0, 78, 0
2, 31920, Note_on_c, 0, 81, 100
2, 31980, Note_on_c, 0, 81, 0
2, 31980, Note_on_c, 0, 79, 100
2, 32160, Note_on_c, 0, 79, 0
2, 32160, Note_on_c, 0, 78, 100
2, 32220, Note_on_c, 0, 78, 0
2, 32220, Note_on_c, 0, 76, 100
2, 32400, Note_on_c, 0, 76, 0
2, 32400, Note_on_c, 0, 74, 100
2, 32460, Note_on_c, 0, 74, 0
2, 32460, Note_on_c, 0, 72, 100
2, 32640, Note_on_c, 0, 72, 0
2, 32640, Note_on_c, 0, 72, 100
2, 32760, Note_on_c, 0, 72, 0
2, 32760, Note_on_c, 0, 81, 100
2, 33000, Note_on_c, 0, 81, 0
2, 33000, Note_on_c, 0, 72, 100
2, 33120, Note_on_c, 0, 72, 0
2, 33120, Note_on_c, 0, 71, 100
2, 33180, Note_on_c, 0, 71, 0
2, 33180, Note_on_c, 0, 67, 100
2, 33480, Note_on_c, 0, 67, 0
2, 33480, Note_on_c, 0, 66, 100
2, 33600, Note_on_c, 0, 66, 0
2, 33600, Note_on_c, 0, 66, 100
2, 33840, Note_on_c, 0, 66, 0
2, 33840, Note_on_c, 0, 67, 100
2, 33900, Note_on_c, 0, 67, 0
2, 33900, Note_on_c, 0, 66, 100
2, 33960, Note_on_c, 0, 66, 0
2, 33960, Note_on_c, 0, 67, 100
2, 34560, Note_on_c, 0, 67, 0
2, 34560, Note_on_c, 0, 71, 100
2, 35040, Note_on_c, 0, 71, 0
2, 35040, Note_on_c, 0, 71, 100
2, 35520, Note_on_c, 0, 71, 0
2, 35520, Note_on_c, 0, 73, 100
2, 35580, Note_on_c, 0, 73, 0
2, 35580, Note_on_c, 0, 71, 100
2, 35640, Note_on_c, 0, 71, 0
2, 35640, Note_on_c, 0, 73, 100
2, 35880, Note_on_c, 0, 73, 0
2, 35880, Note_on_c, 0, 74, 100
2, 36000, Note_on_c, 0, 74, 0
2, 36000, Note_on_c, 0, 74, 100
2, 36120, Note_on_c, 0, 74, 0
2, 36120, Note_on_c, 0, 73, 100
2, 36240, Note_on_c, 0, 73, 0
2, 36240, Note_on_c, 0, 71, 100
2, 36360, Note_on_c, 0, 71, 0
2, 36360, Note_on_c, 0, 69, 100
2, 37350, Note_on_c, 0, 69, 0
2, 37350, Note_on_c, 0, 67, 100
2, 37380, Note_on_c, 0, 71, 100
2, 37410, Note_on_c, 0, 76, 100
2, 37440, Note_on_c, 0, 79, 100
2, 37830, Note_on_c, 0, 67, 0
2, 37860, Note_on_c, 0, 71, 0
2, 37890, Note_on_c, 0, 76, 0
2, 37920, Note_on_c, 0, 79, 0
2, 37920, Note_on_c, 0, 81, 100
2, 37980, Note_on_c, 0, 81, 0
2, 37980, Note_on_c, 0, 79, 100
2, 38040, Note_on_c, 0, 79, 0
2, 38040, Note_on_c, 0, 78, 100
2, 38100, Note_on_c, 0, 78, 0
2, 38100, Note_on_c, 0, 79, 100
2, 38160, Note_on_c, 0, 79, 0
2, 38160, Note_on_c, 0, 81, 100
2, 38220, Note_on_c, 0, 81, 0
2, 38220, Note_on_c, 0, 79, 100
2, 38280, Note_on_c, 0, 79, 0
2, 38280, Note_on_c, 0, 81, 100
2, 38340, Note_on_c, 0, 81, 0
2, 38340, Note_on_c, 0, 79, 100
2, 38400, Note_on_c, 0, 79, 0
2, 38400, Note_on_c, 0, 81, 100
2, 38440, Note_on_c, 0, 81, 0
2, 38440, Note_on_c, 0, 79, 100
2, 38480, Note_on_c, 0, 79, 0
2, 38480, Note_on_c, 0, 81, 100
2, 38520, Note_on_c, 0, 81, 0
2, 38520, Note_on_c, 0, 79, 100
2, 38560, Note_on_c, 0, 79, 0
2, 38560, Note_on_c, 0, 81, 100
2, 38600, Note_on_c, 0, 81, 0
2, 38600, Note_on_c, 0, 79, 100
2, 38640, Note_on_c, 0, 79, 0
2, 38640, Note_on_c, 0, 78, 100
2, 38760, Note_on_c, 0, 78, 0
2, 38760, Note_on_c, 0, 79, 100
2, 38880, Note_on_c, 0, 79, 0
2, 38880, Note_on_c, 0, 79, 100
2, 39120, Note_on_c, 0, 79, 0
2, 39120, Note_on_c, 0, 78, 100
2, 39240, Note_on_c, 0, 78, 0
2, 39240, Note_on_c, 0, 76, 100
2, 39360, Note_on_c, 0, 76, 0
2, 39360, Note_on_c, 0, 74, 100
2, 39420, Note_on_c, 0, 74, 0
2, 39420, Note_on_c, 0, 73, 100
2, 39480, Note_on_c, 0, 73, 0
2, 39480, Note_on_c, 0, 71, 100
2, 39540, Note_on_c, 0, 71, 0
2, 39540, Note_on_c, 0, 73, 100
2, 39600, Note_on_c, 0, 73, 0
2, 39600, Note_on_c, 0, 74, 100
2, 39660, Note_on_c, 0, 74, 0
2, 39660, Note_on_c, 0, 73, 100
2, 39720, Note_on_c, 0, 73, 0
2, 39720, Note_on_c, 0, 74, 100
2, 39760, Note_on_c, 0, 74, 0
2, 39760, Note_on_c, 0, 73, 100
2, 39800, Note_on_c, 0, 73, 0
2, 39800, Note_on_c, 0, 74, 100
2, 39840, Note_on_c, 0, 74, 0
2, 39840, Note_on_c, 0, 73, 100
2, 40080, Note_on_c, 0, 73, 0
2, 40080, Note_on_c, 0, 76, 100
2, 40320, Note_on_c, 0, 76, 0
2, 40320, Note_on_c, 0, 81, 100
2, 40440, Note_on_c, 0, 81, 0
2, 40440, Note_on_c, 0, 79, 100
2, 40560, Note_on_c, 0, 79, 0
2, 40560, Note_on_c, 0, 78, 100
2, 40680, Note_on_c, 0, 78, 0
2, 40680, Note_on_c, 0, 76, 100
2, 40800, Note_on_c, 0, 76, 0
2, 40800, Note_on_c, 0, 74, 100
2, 41040, Note_on_c, 0, 74, 0
2, 41040, Note_on_c, 0, 69, 100
2, 41580, Note_on_c, 0, 69, 0
2, 41580, Note_on_c, 0, 71, 100
2, 41640, Note_on_c, 0, 71, 0
2, 41640, Note_on_c, 0, 72, 100
2, 41760, Note_on_c, 0, 72, 0
2, 41760, Note_on_c, 0, 71, 100
2, 41880, Note_on_c, 0, 71, 0
2, 41880, Note_on_c, 0, 69, 100
2, 42000, Note_on_c, 0, 69, 0
2, 42000, Note_on_c, 0, 67, 100
2, 42120, Note_on_c, 0, 67, 0
2, 42120, Note_on_c, 0, 66, 100
2, 42240, Note_on_c, 0, 66, 0
2, 42240, Note_on_c, 0, 64, 100
2, 42480, Note_on_c, 0, 64, 0
2, 42480, Note_on_c, 0, 74, 100
2, 42600, Note_on_c, 0, 74, 0
2, 42600, Note_on_c, 0, 73, 100
2, 43020, Note_on_c, 0, 73, 0
2, 43020, Note_on_c, 0, 74, 100
2, 43080, Note_on_c, 0, 74, 0
2, 43080, Note_on_c, 0, 76, 100
2, 43200, Note_on_c, 0, 76, 0
2, 43200, Note_on_c, 0, 74, 100
2, 43320, Note_on_c, 0, 74, 0
2, 43320, Note_on_c, 0, 73, 100
2, 43440, Note_on_c, 0, 73, 0
2, 43440, Note_on_c, 0, 71, 100
2, 43560, Note_on_c, 0, 71, 0
2, 43560, Note_on_c, 0, 69, 100
2, 43680, Note_on_c, 0, 69, 0
2, 43680, Note_on_c, 0, 79, 100
2, 43920, Note_on_c, 0, 79, 0
2, 43920, Note_on_c, 0, 71, 100
2, 44400, Note_on_c, 0, 71, 0
2, 44400, Note_on_c, 0, 73, 100
2, 44640, Note_on_c, 0, 73, 0
2, 44640, Note_on_c, 0, 73, 100
2, 44760, Note_on_c, 0, 73, 0
2, 44760, Note_on_c, 0, 74, 100
2, 44940, Note_on_c, 0, 74, 0
2, 44940, Note_on_c, 0, 76, 100
2, 45000, Note_on_c, 0, 76, 0
2, 45000, Note_on_c, 0, 74, 100
2, 45060, Note_on_c, 0, 74, 0
2, 45060, Note_on_c, 0, 73, 100
2, 45120, Note_on_c, 0, 73, 0
2, 45120, Note_on_c, 0, 73, 100
2, 45360, Note_on_c, 0, 73, 0
2, 45360, Note_on_c, 0, 74, 100
2, 46080, Note_on_c, 0, 74, 0
2, 46080, Note_on_c, 0, 69, 100
2, 46140, Note_on_c, 0, 69, 0
2, 46140, Note_on_c, 0, 67, 100
2, 46200, Note_on_c, 0, 67, 0
2, 46200, Note_on_c, 0, 69, 100
2, 46560, Note_on_c, 0, 69, 0
2, 46560, Note_on_c, 0, 71, 100
2, 46620, Note_on_c, 0, 71, 0
2, 46620, Note_on_c, 0, 69, 100
2, 46680, Note_on_c, 0, 69, 0
2, 46680, Note_on_c, 0, 67, 100
2, 46740, Note_on_c, 0, 67, 0
2, 46740, Note_on_c, 0, 69, 100
2, 46800, Note_on_c, 0, 69, 0
2, 46800, Note_on_c, 0, 71, 100
2, 46840, Note_on_c, 0, 71, 0
2, 46840, Note_on_c, 0, 69, 100
2, 46880, Note_on_c, 0, 69, 0
2, 46880, Note_on_c, 0, 71, 100
2, 46920, Note_on_c, 0, 71, 0
2, 46920, Note_on_c, 0, 69, 100
2, 46960, Note_on_c, 0, 69, 0
2, 46960, Note_on_c, 0, 71, 100
2, 47000, Note_on_c, 0, 71, 0
2, 47001, Note_on_c, 0, 69, 100
2, 47040, Note_on_c, 0, 71, 100
2, 47041, Note_on_c, 0, 69, 0
2, 47080, Note_on_c, 0, 71, 0
2, 47080, Note_on_c, 0, 69, 100
2, 47120, Note_on_c, 0, 69, 0
2, 47120, Note_on_c, 0, 71, 100
2, 47160, Note_on_c, 0, 71, 0
2, 47160, Note_on_c, 0, 69, 100
2, 47220, Note_on_c, 0, 69, 0
2, 47220, Note_on_c, 0, 71, 100
2, 47280, Note_on_c, 0, 71, 0
2, 47280, Note_on_c, 0, 72, 100
2, 47340, Note_on_c, 0, 72, 0
2, 47340, Note_on_c, 0, 74, 100
2, 47400, Note_on_c, 0, 74, 0
2, 47400, Note_on_c, 0, 76, 100
2, 47520, Note_on_c, 0, 76, 0
2, 47520, Note_on_c, 0, 76, 100
2, 47640, Note_on_c, 0, 76, 0
2, 47640, Note_on_c, 0, 74, 100
2, 47760, Note_on_c, 0, 74, 0
2, 47760, Note_on_c, 0, 72, 100
2, 47880, Note_on_c, 0, 72, 0
2, 47880, Note_on_c, 0, 71, 100
2, 48000, Note_on_c, 0, 71, 0
2, 48000, Note_on_c, 0, 69, 100
2, 48240, Note_on_c, 0, 69, 0
2, 48240, Note_on_c, 0, 67, 100
2, 48720, Note_on_c, 0, 67, 0
2, 48720, Note_on_c, 0, 79, 100
2, 48960, Note_on_c, 0, 79, 0
2, 48960, Note_on_c, 0, 78, 100
2, 49080, Note_on_c, 0, 78, 0
2, 49080, Note_on_c, 0, 76, 100
2, 49320, Note_on_c, 0, 76, 0
2, 49320, Note_on_c, 0, 78, 100
2, 49380, Note_on_c, 0, 78, 0
2, 49380, Note_on_c, 0, 75, 100
2, 49440, Note_on_c, 0, 75, 0
2, 49440, Note_on_c, 0, 75, 100
2, 49680, Note_on_c, 0, 75, 0
2, 49680, Note_on_c, 0, 76, 100
2, 49710, Note_on_c, 0, 76, 0
2, 49710, Note_on_c, 0, 75, 100
2, 49740, Note_on_c, 0, 75, 0
2, 49740, Note_on_c, 0, 76, 100
2, 50160, Note_on_c, 0, 76, 0
2, 50160, Note_on_c, 0, 81, 100
2, 50220, Note_on_c, 0, 81, 0
2, 50220, Note_on_c, 0, 83, 100
2, 50280, Note_on_c, 0, 83, 0
2, 50280, Note_on_c, 0, 81, 100
2, 50340, Note_on_c, 0, 81, 0
2, 50340, Note_on_c, 0, 79, 100
2, 50400, Note_on_c, 0, 79, 0
2, 50400, Note_on_c, 0, 81, 100
2, 50760, Note_on_c, 0, 81, 0
2, 50760, Note_on_c, 0, 78, 100
2, 50880, Note_on_c, 0, 78, 0
2, 50880, Note_on_c, 0, 76, 100
2, 51120, Note_on_c, 0, 76, 0
2, 51120, Note_on_c, 0, 75, 100
2, 51600, Note_on_c, 0, 75, 0
2, 51600, Note_on_c, 0, 71, 100
2, 51840, Note_on_c, 0, 71, 0
2, 51840, Note_on_c, 0, 76, 100
2, 51900, Note_on_c, 0, 76, 0
2, 51900, Note_on_c, 0, 78, 100
2, 51960, Note_on_c, 0, 78, 0
2, 51960, Note_on_c, 0, 79, 100
2, 52200, Note_on_c, 0, 79, 0
2, 52200, Note_on_c, 0, 78, 100
2, 52320, Note_on_c, 0, 78, 0
2, 52320, Note_on_c, 0, 78, 100
2, 52560, Note_on_c, 0, 78, 0
2, 52560, Note_on_c, 0, 76, 100
2, 52920, Note_on_c, 0, 76, 0
2, 52920, Note_on_c, 0, 71, 100
2, 53040, Note_on_c, 0, 71, 0
2, 53040, Note_on_c, 0, 72, 100
2, 53100, Note_on_c, 0, 72, 0
2, 53100, Note_on_c, 0, 71, 100
2, 53160, Note_on_c, 0, 71, 0
2, 53160, Note_on_c, 0, 69, 100
2, 53220, Note_on_c, 0, 69, 0
2, 53220, Note_on_c, 0, 71, 100
2, 53280, Note_on_c, 0, 71, 0
2, 53280, Note_on_c, 0, 79, 100
2, 53340, Note_on_c, 0, 79, 0
2, 53340, Note_on_c, 0, 76, 100
2, 53520, Note_on_c, 0, 76, 0
2, 53520, Note_on_c, 0, 78, 100
2, 53580, Note_on_c, 0, 78, 0
2, 53580, Note_on_c, 0, 75, 100
2, 53760, Note_on_c, 0, 75, 0
2, 53760, Note_on_c, 0, 75, 100
2, 53880, Note_on_c, 0, 75, 0
2, 53880, Note_on_c, 0, 76, 100
2, 54360, Note_on_c, 0, 76, 0
2, 54360, Note_on_c, 0, 67, 100
2, 54480, Note_on_c, 0, 67, 0
2, 54480, Note_on_c, 0, 66, 100
2, 54600, Note_on_c, 0, 66, 0
2, 54600, Note_on_c, 0, 64, 100
2, 54720, Note_on_c, 0, 64, 0
2, 54720, Note_on_c, 0, 66, 100
2, 55080, Note_on_c, 0, 66, 0
2, 55080, Note_on_c, 0, 76, 100
2, 55200, Note_on_c, 0, 76, 0
2, 55200, Note_on_c, 0, 76, 100
2, 55320, Note_on_c, 0, 76, 0
2, 55320, Note_on_c, 0, 75, 100
2, 55440, Note_on_c, 0, 75, 0
2, 55440, Note_on_c, 0, 78, 100
2, 55500, Note_on_c, 0, 78, 0
2, 55500, Note_on_c, 0, 79, 100
2, 55560, Note_on_c, 0, 79, 0
2, 55560, Note_on_c, 0, 81, 100
2, 55680, Note_on_c, 0, 81, 0
2, 55680, Note_on_c, 0, 79, 100
2, 55920, Note_on_c, 0, 79, 0
2, 55920, Note_on_c, 0, 78, 100
2, 56160, Note_on_c, 0, 78, 0
2, 56160, Note_on_c, 0, 78, 100
2, 56280, Note_on_c, 0, 78, 0
2, 56280, Note_on_c, 0, 76, 100
2, 56520, Note_on_c, 0, 76, 0
2, 56520, Note_on_c, 0, 78, 100
2, 56580, Note_on_c, 0, 78, 0
2, 56580, Note_on_c, 0, 75, 100
2, 56640, Note_on_c, 0, 75, 0
2, 56640, Note_on_c, 0, 75, 100
2, 56880, Note_on_c, 0, 75, 0
2, 56880, Note_on_c, 0, 76, 100
2, 57600, Note_on_c, 0, 76, 0
2, 57600, Note_on_c, 0, 76, 100
2, 57840, Note_on_c, 0, 76, 0
2, 57840, Note_on_c, 0, 74, 100
2, 57960, Note_on_c, 0, 74, 0
2, 57960, Note_on_c, 0, 72, 100
2, 58080, Note_on_c, 0, 72, 0
2, 58080, Note_on_c, 0, 71, 100
2, 58320, Note_on_c, 0, 71, 0
2, 58320, Note_on_c, 0, 69, 100
2, 58800, Note_on_c, 0, 69, 0
2, 58800, Note_on_c, 0, 71, 100
2, 58920, Note_on_c, 0, 71, 0
2, 58920, Note_on_c, 0, 72, 100
2, 59040, Note_on_c, 0, 72, 0
2, 59040, Note_on_c, 0, 74, 100
2, 59100, Note_on_c, 0, 74, 0
2, 59100, Note_on_c, 0, 72, 100
2, 59160, Note_on_c, 0, 72, 0
2, 59160, Note_on_c, 0, 71, 100
2, 59280, Note_on_c, 0, 71, 0
2, 59280, Note_on_c, 0, 72, 100
2, 59340, Note_on_c, 0, 72, 0
2, 59340, Note_on_c, 0, 71, 100
2, 59400, Note_on_c, 0, 71, 0
2, 59400, Note_on_c, 0, 69, 100
2, 59520, Note_on_c, 0, 69, 0
2, 59520, Note_on_c, 0, 69, 100
2, 59760, Note_on_c, 0, 69, 0
2, 59760, Note_on_c, 0, 67, 100
2, 60240, Note_on_c, 0, 67, 0
2, 60240, Note_on_c, 0, 69, 100
2, 60360, Note_on_c, 0, 69, 0
2, 60360, Note_on_c, 0, 71, 100
2, 60480, Note_on_c, 0, 71, 0
2, 60480, Note_on_c, 0, 72, 100
2, 60600, Note_on_c, 0, 72, 0
2, 60600, Note_on_c, 0, 74, 100
2, 60720, Note_on_c, 0, 74, 0
2, 60720, Note_on_c, 0, 72, 100
2, 60840, Note_on_c, 0, 72, 0
2, 60840, Note_on_c, 0, 71, 100
2, 60960, Note_on_c, 0, 71, 0
2, 60960, Note_on_c, 0, 72, 100
2, 61080, Note_on_c, 0, 72, 0
2, 61080, Note_on_c, 0, 69, 100
2, 61200, Note_on_c, 0, 69, 0
2, 61200, Note_on_c, 0, 64, 100
2, 61320, Note_on_c, 0, 64, 0
2, 61320, Note_on_c, 0, 69, 100
2, 61440, Note_on_c, 0, 69, 0
2, 61440, Note_on_c, 0, 72, 100
2, 62040, Note_on_c, 0, 72, 0
2, 62040, Note_on_c, 0, 74, 100
2, 62160, Note_on_c, 0, 74, 0
2, 62160, Note_on_c, 0, 72, 100
2, 62280, Note_on_c, 0, 72, 0
2, 62280, Note_on_c, 0, 71, 100
2, 62400, Note_on_c, 0, 71, 0
2, 62400, Note_on_c, 0, 72, 100
2, 62520, Note_on_c, 0, 72, 0
2, 62520, Note_on_c, 0, 69, 100
2, 62640, Note_on_c, 0, 69, 0
2, 62640, Note_on_c, 0, 66, 100
2, 62760, Note_on_c, 0, 66, 0
2, 62760, Note_on_c, 0, 69, 100
2, 62880, Note_on_c, 0, 69, 0
2, 62880, Note_on_c, 0, 72, 100
2, 63000, Note_on_c, 0, 72, 0
2, 63000, Note_on_c, 0, 76, 100
2, 63120, Note_on_c, 0, 76, 0
2, 63120, Note_on_c, 0, 74, 100
2, 63240, Note_on_c, 0, 74, 0
2, 63240, Note_on_c, 0, 72, 100
2, 63360, Note_on_c, 0, 72, 0
2, 63360, Note_on_c, 0, 71, 100
2, 63480, Note_on_c, 0, 71, 0
2, 63480, Note_on_c, 0, 72, 100
2, 63600, Note_on_c, 0, 72, 0
2, 63600, Note_on_c, 0, 71, 100
2, 63720, Note_on_c, 0, 71, 0
2, 63720, Note_on_c, 0, 69, 100
2, 63840, Note_on_c, 0, 69, 0
2, 63840, Note_on_c, 0, 71, 100
2, 63960, Note_on_c, 0, 71, 0
2, 63960, Note_on_c, 0, 67, 100
2, 64080, Note_on_c, 0, 67, 0
2, 64080, Note_on_c, 0, 62, 100
2, 64200, Note_on_c, 0, 62, 0
2, 64200, Note_on_c, 0, 67, 100
2, 64320, Note_on_c, 0, 67, 0
2, 64320, Note_on_c, 0, 71, 100
2, 64440, Note_on_c, 0, 71, 0
2, 64440, Note_on_c, 0, 67, 100
2, 64560, Note_on_c, 0, 67, 0
2, 64560, Note_on_c, 0, 72, 100
2, 64680, Note_on_c, 0, 72, 0
2, 64680, Note_on_c, 0, 74, 100
2, 64800, Note_on_c, 0, 74, 0
2, 64800, Note_on_c, 0, 76, 100
2, 64920, Note_on_c, 0, 76, 0
2, 64920, Note_on_c, 0, 77, 100
2, 65040, Note_on_c, 0, 77, 0
2, 65040, Note_on_c, 0, 76, 100
2, 65160, Note_on_c, 0, 76, 0
2, 65160, Note_on_c, 0, 74, 100
2, 65280, Note_on_c, 0, 74, 0
2, 65280, Note_on_c, 0, 76, 100
2, 65400, Note_on_c, 0, 76, 0
2, 65400, Note_on_c, 0, 72, 100
2, 65520, Note_on_c, 0, 72, 0
2, 65520, Note_on_c, 0, 67, 100
2, 65640, Note_on_c, 0, 67, 0
2, 65640, Note_on_c, 0, 72, 100
2, 65760, Note_on_c, 0, 72, 0
2, 65760, Note_on_c, 0, 76, 100
2, 65880, Note_on_c, 0, 76, 0
2, 65880, Note_on_c, 0, 72, 100
2, 66000, Note_on_c, 0, 72, 0
2, 66000, Note_on_c, 0, 78, 100
2, 66120, Note_on_c, 0, 78, 0
2, 66120, Note_on_c, 0, 79, 100
2, 66240, Note_on_c, 0, 79, 0
2, 66240, Note_on_c, 0, 81, 100
2, 66360, Note_on_c, 0, 81, 0
2, 66360, Note_on_c, 0, 72, 100
2, 66480, Note_on_c, 0, 72, 0
2, 66480, Note_on_c, 0, 71, 100
2, 66600, Note_on_c, 0, 71, 0
2, 66600, Note_on_c, 0, 69, 100
2, 66720, Note_on_c, 0, 69, 0
2, 66720, Note_on_c, 0, 71, 100
2, 66840, Note_on_c, 0, 71, 0
2, 66840, Note_on_c, 0, 72, 100
2, 66960, Note_on_c, 0, 72, 0
2, 66960, Note_on_c, 0, 74, 100
2, 67080, Note_on_c, 0, 74, 0
2, 67080, Note_on_c, 0, 67, 100
2, 67200, Note_on_c, 0, 67, 0
2, 67200, Note_on_c, 0, 71, 100
2, 67320, Note_on_c, 0, 71, 0
2, 67320, Note_on_c, 0, 69, 100
2, 67440, Note_on_c, 0, 69, 0
2, 67440, Note_on_c, 0, 67, 100
2, 67560, Note_on_c, 0, 67, 0
2, 67560, Note_on_c, 0, 66, 100
2, 67680, Note_on_c, 0, 66, 0
2, 67680, Note_on_c, 0, 67, 100
2, 68280, Note_on_c, 0, 67, 0
2, 68280, Note_on_c, 0, 62, 100
2, 68400, Note_on_c, 0, 62, 0
2, 68400, Note_on_c, 0, 67, 100
2, 68520, Note_on_c, 0, 67, 0
2, 68520, Note_on_c, 0, 66, 100
2, 68640, Note_on_c, 0, 66, 0
2, 68640, Note_on_c, 0, 66, 100
2, 68760, Note_on_c, 0, 66, 0
2, 68760, Note_on_c, 0, 67, 100
2, 69120, Note_on_c, 0, 67, 0
2, 69120, Note_on_c, 0, 69, 100
2, 69180, Note_on_c, 0, 69, 0
2, 69180, Note_on_c, 0, 67, 100
2, 69240, Note_on_c, 0, 67, 0
2, 69240, Note_on_c, 0, 69, 100
2, 69600, Note_on_c, 0, 69, 0
2, 69600, Note_on_c, 0, 71, 100
2, 69660, Note_on_c, 0, 71, 0
2, 69660, Note_on_c, 0, 69, 100
2, 69720, Note_on_c, 0, 69, 0
2, 69720, Note_on_c, 0, 67, 100
2, 69780, Note_on_c, 0, 67, 0
2, 69780, Note_on_c, 0, 69, 100
2, 69840, Note_on_c, 0, 69, 0
2, 69840, Note_on_c, 0, 71, 100
2, 69880, Note_on_c, 0, 71, 0
2, 69880, Note_on_c, 0, 69, 100
2, 69920, Note_on_c, 0, 69, 0
2, 69920, Note_on_c, 0, 71, 100
2, 69960, Note_on_c, 0, 71, 0
2, 69960, Note_on_c, 0, 69, 100
2, 70000, Note_on_c, 0, 69, 0
2, 70000, Note_on_c, 0, 71, 100
2, 70040, Note_on_c, 0, 71, 0
2, 70041, Note_on_c, 0, 69, 100
2, 70080, Note_on_c, 0, 71, 100
2, 70081, Note_on_c, 0, 69, 0
2, 70120, Note_on_c, 0, 71, 0
2, 70120, Note_on_c, 0, 69, 100
2, 70160, Note_on_c, 0, 69, 0
2, 70160, Note_on_c, 0, 71, 100
2, 70200, Note_on_c, 0, 71, 0
2, 70200, Note_on_c, 0, 69, 100
2, 70260, Note_on_c, 0, 69, 0
2, 70260, Note_on_c, 0, 71, 100
2, 70320, Note_on_c, 0, 71, 0
2, 70320, Note_on_c, 0, 72, 100
2, 70380, Note_on_c, 0, 72, 0
2, 70380, Note_on_c, 0, 74, 100
2, 70440, Note_on_c, 0, 74, 0
2, 70440, Note_on_c, 0, 76, 100
2, 70560, Note_on_c, 0, 76, 0
2, 70560, Note_on_c, 0, 76, 100
2, 70680, Note_on_c, 0, 76, 0
2, 70680, Note_on_c, 0, 74, 100
2, 70800, Note_on_c, 0, 74, 0
2, 70800, Note_on_c, 0, 72, 100
2, 70920, Note_on_c, 0, 72, 0
2, 70920, Note_on_c, 0, 71, 100
2, 71040, Note_on_c, 0, 71, 0
2, 71040, Note_on_c, 0, 69, 100
2, 71280, Note_on_c, 0, 69, 0
2, 71280, Note_on_c, 0, 67, 100
2, 71760, Note_on_c, 0, 67, 0
2, 71760, Note_on_c, 0, 79, 100
2, 72000, Note_on_c, 0, 79, 0
2, 72000, Note_on_c, 0, 78, 100
2, 72120, Note_on_c, 0, 78, 0
2, 72120, Note_on_c, 0, 76, 100
2, 72360, Note_on_c, 0, 76, 0
2, 72360, Note_on_c, 0, 78, 100
2, 72420, Note_on_c, 0, 78, 0
2, 72420, Note_on_c, 0, 75, 100
2, 72480, Note_on_c, 0, 75, 0
2, 72480, Note_on_c, 0, 75, 100
2, 72720, Note_on_c, 0, 75, 0
2, 72720, Note_on_c, 0, 76, 100
2, 72750, Note_on_c, 0, 76, 0
2, 72750, Note_on_c, 0, 75, 100
2, 72780, Note_on_c, 0, 75, 0
2, 72780, Note_on_c, 0, 76, 100
2, 73200, Note_on_c, 0, 76, 0
2, 73200, Note_on_c, 0, 81, 100
2, 73260, Note_on_c, 0, 81, 0
2, 73260, Note_on_c, 0, 83, 100
2, 73320, Note_on_c, 0, 83, 0
2, 73320, Note_on_c, 0, 81, 100
2, 73380, Note_on_c, 0, 81, 0
2, 73380, Note_on_c, 0, 79, 100
2, 73440, Note_on_c, 0, 79, 0
2, 73440, Note_on_c, 0, 81, 100
2, 73800, Note_on_c, 0, 81, 0
2, 73800, Note_on_c, 0, 78, 100
2, 73920, Note_on_c, 0, 78, 0
2, 73920, Note_on_c, 0, 76, 100
2, 74160, Note_on_c, 0, 76, 0
2, 74160, Note_on_c, 0, 75, 100
2, 74640, Note_on_c, 0, 75, 0
2, 74640, Note_on_c, 0, 71, 100
2, 74880, Note_on_c, 0, 71, 0
2, 74880, Note_on_c, 0, 76, 100
2, 74940, Note_on_c, 0, 76, 0
2, 74940, Note_on_c, 0, 78, 100
2, 75000, Note_on_c, 0, 78, 0
2, 75000, Note_on_c, 0, 79, 100
2, 75240, Note_on_c, 0, 79, 0
2, 75240, Note_on_c, 0, 78, 100
2, 75360, Note_on_c, 0, 78, 0
2, 75360, Note_on_c, 0, 78, 100
2, 75600, Note_on_c, 0, 78, 0
2, 75600, Note_on_c, 0, 76, 100
2, 75960, Note_on_c, 0, 76, 0
2, 75960, Note_on_c, 0, 71, 100
2, 76080, Note_on_c, 0, 71, 0
2, 76080, Note_on_c, 0, 72, 100
2, 76140, Note_on_c, 0, 72, 0
2, 76140, Note_on_c, 0, 71, 100
2, 76200, Note_on_c, 0, 71, 0
2, 76200, Note_on_c, 0, 69, 100
2, 76260, Note_on_c, 0, 69, 0
2, 76260, Note_on_c, 0, 71, 100
2, 76320, Note_on_c, 0, 71, 0
2, 76320, Note_on_c, 0, 79, 100
2, 76380, Note_on_c, 0, 79, 0
2, 76380, Note_on_c, 0, 76, 100
2, 76560, Note_on_c, 0, 76, 0
2, 76560, Note_on_c, 0, 78, 100
2, 76620, Note_on_c, 0, 78, 0
2, 76620, Note_on_c, 0, 75, 100
2, 76800, Note_on_c, 0, 75, 0
2, 76800, Note_on_c, 0, 75, 100
2, 76920, Note_on_c, 0, 75, 0
2, 76920, Note_on_c, 0, 76, 100
2, 77400, Note_on_c, 0, 76, 0
2, 77400, Note_on_c, 0, 67, 100
2, 77520, Note_on_c, 0, 67, 0
2, 77520, Note_on_c, 0, 66, 100
2, 77640, Note_on_c, 0, 66, 0
2, 77640, Note_on_c, 0, 64, 100
2, 77760, Note_on_c, 0, 64, 0
2, 77760, Note_on_c, 0, 66, 100
2, 78120, Note_on_c, 0, 66, 0
2, 78120, Note_on_c, 0, 76, 100
2, 78240, Note_on_c, 0, 76, 0
2, 78240, Note_on_c, 0, 76, 100
2, 78360, Note_on_c, 0, 76, 0
2, 78360, Note_on_c, 0, 75, 100
2, 78480, Note_on_c, 0, 75, 0
2, 78480, Note_on_c, 0, 78, 100
2, 78540, Note_on_c, 0, 78, 0
2, 78540, Note_on_c, 0, 79, 100
2, 78600, Note_on_c, 0, 79, 0
2, 78600, Note_on_c, 0, 81, 100
2, 78720, Note_on_c, 0, 81, 0
2, 78720, Note_on_c, 0, 79, 100
2, 78960, Note_on_c, 0, 79, 0
2, 78960, Note_on_c, 0, 78, 100
2, 79200, Note_on_c, 0, 78, 0
2, 79200, Note_on_c, 0, 78, 100
2, 79320, Note_on_c, 0, 78, 0
2, 79320, Note_on_c, 0, 76, 100
2, 79560, Note_on_c, 0, 76, 0
2, 79560, Note_on_c, 0, 78, 100
2, 79620, Note_on_c, 0, 78, 0
2, 79620, Note_on_c, 0, 75, 100
2, 79680, Note_on_c, 0, 75, 0
2, 79680, Note_on_c, 0, 75, 100
2, 79920, Note_on_c, 0, 75, 0
2, 79920, Note_on_c, 0, 76, 100
2, 80640, Note_on_c, 0, 76, 0
2, 80640, Note_on_c, 0, 76, 100
2, 80880, Note_on_c, 0, 76, 0
2, 80880, Note_on_c, 0, 74, 100
2, 81000, Note_on_c, 0, 74, 0
2, 81000, Note_on_c, 0, 72, 100
2, 81120, Note_on_c, 0, 72, 0
2, 81120, Note_on_c, 0, 71, 100
2, 81360, Note_on_c, 0, 71, 0
2, 81360, Note_on_c, 0, 69, 100
2, 81840, Note_on_c, 0, 69, 0
2, 81840, Note_on_c, 0, 71, 100
2, 81960, Note_on_c, 0, 71, 0
2, 81960, Note_on_c, 0, 72, 100
2, 82080, Note_on_c, 0, 72, 0
2, 82080, Note_on_c, 0, 74, 100
2, 82140, Note_on_c, 0, 74, 0
2, 82140, Note_on_c, 0, 72, 100
2, 82200, Note_on_c, 0, 72, 0
2, 82200, Note_on_c, 0, 71, 100
2, 82320, Note_on_c, 0, 71, 0
2, 82320, Note_on_c, 0, 72, 100
2, 82380, Note_on_c, 0, 72, 0
2, 82380, Note_on_c, 0, 71, 100
2, 82440, Note_on_c, 0, 71, 0
2, 82440, Note_on_c, 0, 69, 100
2, 82560, Note_on_c, 0, 69, 0
2, 82560, Note_on_c, 0, 69, 100
2, 82800, Note_on_c, 0, 69, 0
2, 82800, Note_on_c, 0, 67, 100
2, 83280, Note_on_c, 0, 67, 0
2, 83280, Note_on_c, 0, 69, 100
2, 83400, Note_on_c, 0, 69, 0
2, 83400, Note_on_c, 0, 71, 100
2, 83520, Note_on_c, 0, 71, 0
2, 83520, Note_on_c, 0, 72, 100
2, 83640, Note_on_c, 0, 72, 0
2, 83640, Note_on_c, 0, 74, 100
2, 83760, Note_on_c, 0, 74, 0
2, 83760, Note_on_c, 0, 72, 100
2, 83880, Note_on_c, 0, 72, 0
2, 83880, Note_on_c, 0, 71, 100
2, 84000, Note_on_c, 0, 71, 0
2, 84000, Note_on_c, 0, 72, 100
2, 84120, Note_on_c, 0, 72, 0
2, 84120, Note_on_c, 0, 69, 100
2, 84240, Note_on_c, 0, 69, 0
2, 84240, Note_on_c, 0, 64, 100
2, 84360, Note_on_c, 0, 64, 0
2, 84360, Note_on_c, 0, 69, 100
2, 84480, Note_on_c, 0, 69, 0
2, 84480, Note_on_c, 0, 72, 100
2, 85080, Note_on_c, 0, 72, 0
2, 85080, Note_on_c, 0, 74, 100
2, 85200, Note_on_c, 0, 74, 0
2, 85200, Note_on_c, 0, 72, 100
2, 85320, Note_on_c, 0, 72, 0
2, 85320, Note_on_c, 0, 71, 100
2, 85440, Note_on_c, 0, 71, 0
2, 85440, Note_on_c, 0, 72, 100
2, 85560, Note_on_c, 0, 72, 0
2, 85560, Note_on_c, 0, 69, 100
2, 85680, Note_on_c, 0, 69, 0
2, 85680, Note_on_c, 0, 66, 100
2, 85800, Note_on_c, 0, 66, 0
2, 85800, Note_on_c, 0, 69, 100
2, 85920, Note_on_c, 0, 69, 0
2, 85920, Note_on_c, 0, 72, 100
2, 86040, Note_on_c, 0, 72, 0
2, 86040, Note_on_c, 0, 76, 100
2, 86160, Note_on_c, 0, 76, 0
2, 86160, Note_on_c, 0, 74, 100
2, 86280, Note_on_c, 0, 74, 0
2, 86280, Note_on_c, 0, 72, 100
2, 86400, Note_on_c, 0, 72, 0
2, 86400, Note_on_c, 0, 71, 100
2, 86520, Note_on_c, 0, 71, 0
2, 86520, Note_on_c, 0, 72, 100
2, 86640, Note_on_c, 0, 72, 0
2, 86640, Note_on_c, 0, 71, 100
2, 86760, Note_on_c, 0, 71, 0
2, 86760, Note_on_c, 0, 69, 100
2, 86880, Note_on_c, 0, 69, 0
2, 86880, Note_on_c, 0, 71, 100
2, 87000, Note_on_c, 0, 71, 0
2, 87000, Note_on_c, 0, 67, 100
2, 87120, Note_on_c, 0, 67, 0
2, 87120, Note_on_c, 0, 62, 100
2, 87240, Note_on_c, 0, 62, 0
2, 87240, Note_on_c, 0, 67, 100
2, 87360, Note_on_c, 0, 67, 0
2, 87360, Note_on_c, 0, 71, 100
2, 87480, Note_on_c, 0, 71, 0
2, 87480, Note_on_c, 0, 67, 100
2, 87600, Note_on_c, 0, 67, 0
2, 87600, Note_on_c, 0, 72, 100
2, 87720, Note_on_c, 0, 72, 0
2, 87720, Note_on_c, 0, 74, 100
2, 87840, Note_on_c, 0, 74, 0
2, 87840, Note_on_c, 0, 76, 100
2, 87960, Note_on_c, 0, 76, 0
2, 87960, Note_on_c, 0, 77, 100
2, 88080, Note_on_c, 0, 77, 0
2, 88080, Note_on_c, 0, 76, 100
2, 88200, Note_on_c, 0, 76, 0
2, 88200, Note_on_c, 0, 74, 100
2, 88320, Note_on_c, 0, 74, 0
2, 88320, Note_on_c, 0, 76, 100
2, 88440, Note_on_c, 0, 76, 0
2, 88440, Note_on_c, 0, 72, 100
2, 88560, Note_on_c, 0, 72, 0
2, 88560, Note_on_c, 0, 67, 100
2, 88680, Note_on_c, 0, 67, 0
2, 88680, Note_on_c, 0, 72, 100
2, 88800, Note_on_c, 0, 72, 0
2, 88800, Note_on_c, 0, 76, 100
2, 88920, Note_on_c, 0, 76, 0
2, 88920, Note_on_c, 0, 72, 100
2, 89040, Note_on_c, 0, 72, 0
2, 89040, Note_on_c, 0, 78, 100
2, 89160, Note_on_c, 0, 78, 0
2, 89160, Note_on_c, 0, 79, 100
2, 89280, Note_on_c, 0, 79, 0
2, 89280, Note_on_c, 0, 81, 100
2, 89400, Note_on_c, 0, 81, 0
2, 89400, Note_on_c, 0, 72, 100
2, 89520, Note_on_c, 0, 72, 0
2, 89520, Note_on_c, 0, 71, 100
2, 89640, Note_on_c, 0, 71, 0
2, 89640, Note_on_c, 0, 69, 100
2, 89760, Note_on_c, 0, 69, 0
2, 89760, Note_on_c, 0, 71, 100
2, 89880, Note_on_c, 0, 71, 0
2, 89880, Note_on_c, 0, 72, 100
2, 90000, Note_on_c, 0, 72, 0
2, 90000, Note_on_c, 0, 74, 100
2, 90120, Note_on_c, 0, 74, 0
2, 90120, Note_on_c, 0, 67, 100
2, 90240, Note_on_c, 0, 67, 0
2, 90240, Note_on_c, 0, 71, 100
2, 90360, Note_on_c, 0, 71, 0
2, 90360, Note_on_c, 0, 69, 100
2, 90480, Note_on_c, 0, 69, 0
2, 90480, Note_on_c, 0, 67, 100
2, 90600, Note_on_c, 0, 67, 0
2, 90600, Note_on_c, 0, 66, 100
2, 90720, Note_on_c, 0, 66, 0
2, 90720, Note_on_c, 0, 67, 100
2, 91320, Note_on_c, 0, 67, 0
2, 91320, Note_on_c, 0, 62, 100
2, 91440, Note_on_c, 0, 62, 0
2, 91440, Note_on_c, 0, 67, 100
2, 91560, Note_on_c, 0, 67, 0
2, 91560, Note_on_c, 0, 66, 100
2, 91680, Note_on_c, 0, 66, 0
2, 91680, Note_on_c, 0, 66, 100
2, 91800, Note_on_c, 0, 66, 0
2, 91800, Note_on_c, 0, 67, 100
2, 92160, Note_on_c, 0, 67, 0
2, 338160, Note_on_c, 0, 71, 100
2, 338400, Note_on_c, 0, 71, 0
2, 338400, Note_on_c, 0, 67, 100
2, 338640, Note_on_c, 0, 67, 0
2, 338640, Note_on_c, 0, 74, 100
2, 338880, Note_on_c, 0, 74, 0
2, 338880, Note_on_c, 0, 69, 100
2, 339120, Note_on_c, 0, 69, 0
2, 339120, Note_on_c, 0, 74, 100
2, 339360, Note_on_c, 0, 74, 0
2, 339360, Note_on_c, 0, 79, 100
2, 340320, Note_on_c, 0, 79, 0
2, 340320, Note_on_c, 0, 78, 100
2, 340560, Note_on_c, 0, 78, 0
2, 342480, Note_on_c, 0, 69, 100
2, 342720, Note_on_c, 0, 69, 0
2, 342720, Note_on_c, 0, 72, 100
2, 343080, Note_on_c, 0, 72, 0
2, 343080, Note_on_c, 0, 69, 100
2, 343200, Note_on_c, 0, 69, 0
2, 343200, Note_on_c, 0, 71, 100
2, 343440, Note_on_c, 0, 71, 0
2, 343920, Note_on_c, 0, 76, 100
2, 344160, Note_on_c, 0, 76, 0
2, 344160, Note_on_c, 0, 79, 100
2, 344400, Note_on_c, 0, 79, 0
2, 344400, Note_on_c, 0, 73, 100
2, 344640, Note_on_c, 0, 73, 0
2, 344640, Note_on_c, 0, 81, 100
2, 345120, Note_on_c, 0, 81, 0
2, 345120, Note_on_c, 0, 74, 100
2, 345360, Note_on_c, 0, 74, 0
2, 345360, Note_on_c, 0, 79, 100
2, 346080, Note_on_c, 0, 79, 0
2, 346080, Note_on_c, 0, 78, 100
2, 346320, Note_on_c, 0, 78, 0
2, 346320, Note_on_c, 0, 76, 100
2, 346800, Note_on_c, 0, 76, 0
2, 346800, Note_on_c, 0, 74, 100
2, 347040, Note_on_c, 0, 74, 0
2, 347040, Note_on_c, 0, 72, 100
2, 347520, Note_on_c, 0, 72, 0
2, 347520, Note_on_c, 0, 71, 100
2, 348000, Note_on_c, 0, 71, 0
2, 348000, Note_on_c, 0, 69, 100
2, 348240, Note_on_c, 0, 69, 0
2, 348240, Note_on_c, 0, 74, 100
2, 348480, Note_on_c, 0, 74, 0
2, 348480, Note_on_c, 0, 73, 100
2, 348960, Note_on_c, 0, 73, 0
2, 348960, Note_on_c, 0, 74, 100
2, 349200, Note_on_c, 0, 74, 0
2, 349680, Note_on_c, 0, 71, 100
2, 349920, Note_on_c, 0, 71, 0
2, 349920, Note_on_c, 0, 67, 100
2, 350160, Note_on_c, 0, 67, 0
2, 350160, Note_on_c, 0, 74, 100
2, 350400, Note_on_c, 0, 74, 0
2, 350400, Note_on_c, 0, 69, 100
2, 350640, Note_on_c, 0, 69, 0
2, 350640, Note_on_c, 0, 74, 100
2, 350880, Note_on_c, 0, 74, 0
2, 350880, Note_on_c, 0, 79, 100
2, 351840, Note_on_c, 0, 79, 0
2, 351840, Note_on_c, 0, 78, 100
2, 352080, Note_on_c, 0, 78, 0
2, 354000, Note_on_c, 0, 69, 100
2, 354240, Note_on_c, 0, 69, 0
2, 354240, Note_on_c, 0, 72, 100
2, 354600, Note_on_c, 0, 72, 0
2, 354600, Note_on_c, 0, 69, 100
2, 354720, Note_on_c, 0, 69, 0
2, 354720, Note_on_c, 0, 71, 100
2, 354960, Note_on_c, 0, 71, 0
2, 355440, Note_on_c, 0, 76, 100
2, 355680, Note_on_c, 0, 76, 0
2, 355680, Note_on_c, 0, 79, 100
2, 355920, Note_on_c, 0, 79, 0
2, 355920, Note_on_c, 0, 73, 100
2, 356160, Note_on_c, 0, 73, 0
2, 356160, Note_on_c, 0, 81, 100
2, 356640, Note_on_c, 0, 81, 0
2, 356640, Note_on_c, 0, 74, 100
2, 356880, Note_on_c, 0, 74, 0
2, 356880, Note_on_c, 0, 79, 100
2, 357600, Note_on_c, 0, 79, 0
2, 357600, Note_on_c, 0, 78, 100
2, 357840, Note_on_c, 0, 78, 0
2, 357840, Note_on_c, 0, 76, 100
2, 358320, Note_on_c, 0, 76, 0
2, 358320, Note_on_c, 0, 74, 100
2, 358560, Note_on_c, 0, 74, 0
2, 358560, Note_on_c, 0, 72, 100
2, 359040, Note_on_c, 0, 72, 0
2, 359040, Note_on_c, 0, 71, 100
2, 359520, Note_on_c, 0, 71, 0
2, 359520, Note_on_c, 0, 69, 100
2, 359760, Note_on_c, 0, 69, 0
2, 359760, Note_on_c, 0, 74, 100
2, 360000, Note_on_c, 0, 74, 0
2, 360000, Note_on_c, 0, 73, 100
2, 360480, Note_on_c, 0, 73, 0
2, 360480, Note_on_c, 0, 74, 100
2, 360720, Note_on_c, 0, 74, 0
2, 361200, Note_on_c, 0, 78, 100
2, 361440, Note_on_c, 0, 78, 0
2, 361440, Note_on_c, 0, 74, 100
2, 361680, Note_on_c, 0, 74, 0
2, 361680, Note_on_c, 0, 79, 100
2, 361920, Note_on_c, 0, 79, 0
2, 361920, Note_on_c, 0, 83, 100
2, 362640, Note_on_c, 0, 83, 0
2, 362640, Note_on_c, 0, 81, 100
2, 362760, Note_on_c, 0, 81, 0
2, 362760, Note_on_c, 0, 79, 100
2, 362880, Note_on_c, 0, 79, 0
2, 362880, Note_on_c, 0, 78, 100
2, 363000, Note_on_c, 0, 78, 0
2, 363000, Note_on_c, 0, 76, 100
2, 363120, Note_on_c, 0, 76, 0
2, 363120, Note_on_c, 0, 75, 100
2, 363240, Note_on_c, 0, 75, 0
2, 363240, Note_on_c, 0, 76, 100
2, 363360, Note_on_c, 0, 76, 0
2, 363360, Note_on_c, 0, 78, 100
2, 364080, Note_on_c, 0, 78, 0
2, 364080, Note_on_c, 0, 76, 100
2, 364320, Note_on_c, 0, 76, 0
2, 364320, Note_on_c, 0, 79, 100
2, 364560, Note_on_c, 0, 79, 0
2, 364560, Note_on_c, 0, 73, 100
2, 364800, Note_on_c, 0, 73, 0
2, 364800, Note_on_c, 0, 75, 100
2, 365040, Note_on_c, 0, 75, 0
2, 365040, Note_on_c, 0, 76, 100
2, 365520, Note_on_c, 0, 76, 0
2, 365520, Note_on_c, 0, 75, 100
2, 365640, Note_on_c, 0, 75, 0
2, 365640, Note_on_c, 0, 73, 100
2, 365760, Note_on_c, 0, 73, 0
2, 365760, Note_on_c, 0, 71, 100
2, 365880, Note_on_c, 0, 71, 0
2, 365880, Note_on_c, 0, 69, 100
2, 366000, Note_on_c, 0, 69, 0
2, 366000, Note_on_c, 0, 69, 100
2, 366030, Note_on_c, 0, 69, 0
2, 366030, Note_on_c, 0, 67, 100
2, 366060, Note_on_c, 0, 67, 0
2, 366060, Note_on_c, 0, 69, 100
2, 366090, Note_on_c, 0, 69, 0
2, 366090, Note_on_c, 0, 67, 100
2, 366120, Note_on_c, 0, 67, 0
2, 366120, Note_on_c, 0, 66, 100
2, 366240, Note_on_c, 0, 66, 0
2, 366240, Note_on_c, 0, 64, 100
2, 366480, Note_on_c, 0, 64, 0
2, 366960, Note_on_c, 0, 72, 100
2, 367200, Note_on_c, 0, 72, 0
2, 367200, Note_on_c, 0, 76, 100
2, 367440, Note_on_c, 0, 76, 0
2, 367440, Note_on_c, 0, 69, 100
2, 367680, Note_on_c, 0, 69, 0
2, 367680, Note_on_c, 0, 71, 100
2, 367920, Note_on_c, 0, 71, 0
2, 367920, Note_on_c, 0, 74, 100
2, 368160, Note_on_c, 0, 74, 0
2, 368160, Note_on_c, 0, 67, 100
2, 368400, Note_on_c, 0, 67, 0
2, 368400, Note_on_c, 0, 72, 100
2, 369120, Note_on_c, 0, 72, 0
2, 369120, Note_on_c, 0, 74, 100
2, 369360, Note_on_c, 0, 74, 0
2, 369360, Note_on_c, 0, 72, 100
2, 369600, Note_on_c, 0, 72, 0
2, 369600, Note_on_c, 0, 71, 100
2, 369720, Note_on_c, 0, 71, 0
2, 369720, Note_on_c, 0, 72, 100
2, 369840, Note_on_c, 0, 72, 0
2, 369840, Note_on_c, 0, 74, 100
2, 370440, Note_on_c, 0, 74, 0
2, 370440, Note_on_c, 0, 72, 100
2, 370560, Note_on_c, 0, 72, 0
2, 370560, Note_on_c, 0, 74, 100
2, 370680, Note_on_c, 0, 74, 0
2, 370680, Note_on_c, 0, 72, 100
2, 370800, Note_on_c, 0, 72, 0
2, 370800, Note_on_c, 0, 71, 100
2, 370920, Note_on_c, 0, 71, 0
2, 370920, Note_on_c, 0, 69, 100
2, 371040, Note_on_c, 0, 69, 0
2, 371040, Note_on_c, 0, 74, 100
2, 371280, Note_on_c, 0, 74, 0
2, 371280, Note_on_c, 0, 67, 100
2, 371520, Note_on_c, 0, 67, 0
2, 371520, Note_on_c, 0, 66, 100
2, 372000, Note_on_c, 0, 66, 0
2, 372000, Note_on_c, 0, 67, 100
2, 372240, Note_on_c, 0, 67, 0
2, 372720, Note_on_c, 0, 78, 100
2, 372960, Note_on_c, 0, 78, 0
2, 372960, Note_on_c, 0, 74, 100
2, 373200, Note_on_c, 0, 74, 0
2, 373200, Note_on_c, 0, 79, 100
2, 373440, Note_on_c, 0, 79, 0
2, 373440, Note_on_c, 0, 83, 100
2, 374160, Note_on_c, 0, 83, 0
2, 374160, Note_on_c, 0, 81, 100
2, 374280, Note_on_c, 0, 81, 0
2, 374280, Note_on_c, 0, 79, 100
2, 374400, Note_on_c, 0, 79, 0
2, 374400, Note_on_c, 0, 78, 100
2, 374520, Note_on_c, 0, 78, 0
2, 374520, Note_on_c, 0, 76, 100
2, 374640, Note_on_c, 0, 76, 0
2, 374640, Note_on_c, 0, 75, 100
2, 374760, Note_on_c, 0, 75, 0
2, 374760, Note_on_c, 0, 76, 100
2, 374880, Note_on_c, 0, 76, 0
2, 374880, Note_on_c, 0, 78, 100
2, 375600, Note_on_c, 0, 78, 0
2, 375600, Note_on_c, 0, 76, 100
2, 375840, Note_on_c, 0, 76, 0
2, 375840, Note_on_c, 0, 79, 100
2, 376080, Note_on_c, 0, 79, 0
2, 376080, Note_on_c, 0, 73, 100
2, 376320, Note_on_c, 0, 73, 0
2, 376320, Note_on_c, 0, 75, 100
2, 376560, Note_on_c, 0, 75, 0
2, 376560, Note_on_c, 0, 76, 100
2, 377040, Note_on_c, 0, 76, 0
2, 377040, Note_on_c, 0, 75, 100
2, 377160, Note_on_c, 0, 75, 0
2, 377160, Note_on_c, 0, 73, 100
2, 377280, Note_on_c, 0, 73, 0
2, 377280, Note_on_c, 0, 71, 100
2, 377400, Note_on_c, 0, 71, 0
2, 377400, Note_on_c, 0, 69, 100
2, 377520, Note_on_c, 0, 69, 0
2, 377520, Note_on_c, 0, 67, 100
2, 377640, Note_on_c, 0, 67, 0
2, 377640, Note_on_c, 0, 66, 100
2, 377760, Note_on_c, 0, 66, 0
2, 377760, Note_on_c, 0, 64, 100
2, 378000, Note_on_c, 0, 64, 0
2, 378480, Note_on_c, 0, 72, 100
2, 378720, Note_on_c, 0, 72, 0
2, 378720, Note_on_c, 0, 76, 100
2, 378960, Note_on_c, 0, 76, 0
2, 378960, Note_on_c, 0, 69, 100
2, 379200, Note_on_c, 0, 69, 0
2, 379200, Note_on_c, 0, 71, 100
2, 379440, Note_on_c, 0, 71, 0
2, 379440, Note_on_c, 0, 74, 100
2, 379680, Note_on_c, 0, 74, 0
2, 379680, Note_on_c, 0, 67, 100
2, 379920, Note_on_c, 0, 67, 0
2, 379920, Note_on_c, 0, 72, 100
2, 380640, Note_on_c, 0, 72, 0
2, 380640, Note_on_c, 0, 74, 100
2, 380880, Note_on_c, 0, 74, 0
2, 380880, Note_on_c, 0, 72, 100
2, 381120, Note_on_c, 0, 72, 0
2, 381120, Note_on_c, 0, 71, 100
2, 381240, Note_on_c, 0, 71, 0
2, 381240, Note_on_c, 0, 72, 100
2, 381360, Note_on_c, 0, 72, 0
2, 381360, Note_on_c, 0, 74, 100
2, 381960, Note_on_c, 0, 74, 0
2, 381960, Note_on_c, 0, 72, 100
2, 382080, Note_on_c, 0, 72, 0
2, 382080, Note_on_c, 0, 74, 100
2, 382200, Note_on_c, 0, 74, 0
2, 382200, Note_on_c, 0, 72, 100
2, 382320, Note_on_c, 0, 72, 0
2, 382320, Note_on_c, 0, 71, 100
2, 382440, Note_on_c, 0, 71, 0
2, 382440, Note_on_c, 0, 69, 100
2, 382560, Note_on_c, 0, 69, 0
2, 382560, Note_on_c, 0, 74, 100
2, 382800, Note_on_c, 0, 74, 0
2, 382800, Note_on_c, 0, 67, 100
2, 383040, Note_on_c, 0, 67, 0
2, 383040, Note_on_c, 0, 66, 100
2, 383520, Note_on_c, 0, 66, 0
2, 383520, Note_on_c, 0, 67, 100
2, 383760, Note_on_c, 0, 67, 0
2, 791040, Note_on_c, 0, 69, 100
2, 792000, Note_on_c, 0, 69, 0
2, 792000, Note_on_c, 0, 71, 100
2, 792120, Note_on_c, 0, 71, 0
2, 792120, Note_on_c, 0, 69, 100
2, 792240, Note_on_c, 0, 69, 0
2, 792240, Note_on_c, 0, 71, 100
2, 792360, Note_on_c, 0, 71, 0
2, 792360, Note_on_c, 0, 69, 100
2, 792480, Note_on_c, 0, 69, 0
2, 792480, Note_on_c, 0, 71, 100
2, 792600, Note_on_c, 0, 71, 0
2, 792600, Note_on_c, 0, 69, 100
2, 792720, Note_on_c, 0, 69, 0
2, 792720, Note_on_c, 0, 67, 100
2, 792840, Note_on_c, 0, 67, 0
2, 792840, Note_on_c, 0, 69, 100
2, 792960, Note_on_c, 0, 69, 0
2, 792960, Note_on_c, 0, 71, 100
2, 793440, Note_on_c, 0, 71, 0
2, 793440, Note_on_c, 0, 67, 100
2, 793920, Note_on_c, 0, 67, 0
2, 793920, Note_on_c, 0, 64, 100
2, 794400, Note_on_c, 0, 64, 0
2, 794400, Note_on_c, 0, 67, 100
2, 794880, Note_on_c, 0, 67, 0
2, 794880, Note_on_c, 0, 64, 100
2, 795360, Note_on_c, 0, 64, 0
2, 795360, Note_on_c, 0, 69, 100
2, 795840, Note_on_c, 0, 69, 0
2, 795840, Note_on_c, 0, 57, 100
2, 796320, Note_on_c, 0, 57, 0
2, 796320, Note_on_c, 0, 67, 100
2, 796800, Note_on_c, 0, 67, 0
2, 796800, Note_on_c, 0, 67, 100
2, 796880, Note_on_c, 0, 67, 0
2, 796880, Note_on_c, 0, 66, 100
2, 796960, Note_on_c, 0, 66, 0
2, 796960, Note_on_c, 0, 67, 100
2, 797040, Note_on_c, 0, 67, 0
2, 797040, Note_on_c, 0, 66, 100
2, 797280, Note_on_c, 0, 66, 0
2, 797280, Note_on_c, 0, 64, 100
2, 797520, Note_on_c, 0, 64, 0
2, 797520, Note_on_c, 0, 66, 100
2, 797760, Note_on_c, 0, 66, 0
2, 797760, Note_on_c, 0, 62, 100
2, 798720, Note_on_c, 0, 62, 0
2, 821760, Note_on_c, 0, 69, 100
2, 822720, Note_on_c, 0, 69, 0
2, 822720, Note_on_c, 0, 71, 100
2, 822840, Note_on_c, 0, 71, 0
2, 822840, Note_on_c, 0, 69, 100
2, 822960, Note_on_c, 0, 69, 0
2, 822960, Note_on_c, 0, 71, 100
2, 823080, Note_on_c, 0, 71, 0
2, 823080, Note_on_c, 0, 69, 100
2, 823200, Note_on_c, 0, 69, 0
2, 823200, Note_on_c, 0, 71, 100
2, 823320, Note_on_c, 0, 71, 0
2, 823320, Note_on_c, 0, 69, 100
2, 823440, Note_on_c, 0, 69, 0
2, 823440, Note_on_c, 0, 67, 100
2, 823560, Note_on_c, 0, 67, 0
2, 823560, Note_on_c, 0, 69, 100
2, 823680, Note_on_c, 0, 69, 0
2, 823680, Note_on_c, 0, 71, 100
2, 824160, Note_on_c, 0, 71, 0
2, 824160, Note_on_c, 0, 67, 100
2, 824640, Note_on_c, 0, 67, 0
2, 824640, Note_on_c, 0, 64, 100
2, 825120, Note_on_c, 0, 64, 0
2, 825120, Note_on_c, 0, 67, 100
2, 825600, Note_on_c, 0, 67, 0
2, 825600, Note_on_c, 0, 64, 100
2, 826080, Note_on_c, 0, 64, 0
2, 826080, Note_on_c, 0, 69, 100
2, 826560, Note_on_c, 0, 69, 0
2, 826560, Note_on_c, 0, 57, 100
2, 827040, Note_on_c, 0, 57, 0
2, 827040, Note_on_c, 0, 67, 100
2, 827520, Note_on_c, 0, 67, 0
2, 827520, Note_on_c, 0, 67, 100
2, 827600, Note_on_c, 0, 67, 0
2, 827600, Note_on_c, 0, 66, 100
2, 827680, Note_on_c, 0, 66, 0
2, 827680, Note_on_c, 0, 67, 100
2, 827760, Note_on_c, 0, 67, 0
2, 827760, Note_on_c, 0, 66, 100
2, 828000, Note_on_c, 0, 66, 0
2, 828000, Note_on_c, 0, 64, 100
2, 828240, Note_on_c, 0, 64, 0
2, 828240, Note_on_c, 0, 66, 100
2, 828480, Note_on_c, 0, 66, 0
2, 828480, Note_on_c, 0, 62, 100
2, 829440, Note_on_c, 0, 62, 0
2, 829440, Note_on_c, 0, 78, 100
2, 829560, Note_on_c, 0, 78, 0
2, 829560, Note_on_c, 0, 76, 100
2, 829680, Note_on_c, 0, 76, 0
2, 829680, Note_on_c, 0, 78, 100
2, 830400, Note_on_c, 0, 78, 0
2, 830400, Note_on_c, 0, 79, 100
2, 830520, Note_on_c, 0, 79, 0
2, 830520, Note_on_c, 0, 78, 100
2, 830640, Note_on_c, 0, 78, 0
2, 830640, Note_on_c, 0, 79, 100
2, 830760, Note_on_c, 0, 79, 0
2, 830760, Note_on_c, 0, 78, 100
2, 830880, Note_on_c, 0, 78, 0
2, 830880, Note_on_c, 0, 79, 100
2, 831000, Note_on_c, 0, 79, 0
2, 831000, Note_on_c, 0, 78, 100
2, 831120, Note_on_c, 0, 78, 0
2, 831120, Note_on_c, 0, 76, 100
2, 831240, Note_on_c, 0, 76, 0
2, 831240, Note_on_c, 0, 78, 100
2, 831360, Note_on_c, 0, 78, 0
2, 831360, Note_on_c, 0, 79, 100
2, 831840, Note_on_c, 0, 79, 0
2, 831840, Note_on_c, 0, 74, 100
2, 832320, Note_on_c, 0, 74, 0
2, 832320, Note_on_c, 0, 71, 100
2, 832800, Note_on_c, 0, 71, 0
2, 832800, Note_on_c, 0, 74, 100
2, 833280, Note_on_c, 0, 74, 0
2, 833280, Note_on_c, 0, 72, 100
2, 833760, Note_on_c, 0, 72, 0
2, 833760, Note_on_c, 0, 77, 100
2, 834240, Note_on_c, 0, 77, 0
2, 834240, Note_on_c, 0, 65, 100
2, 834720, Note_on_c, 0, 65, 0
2, 834720, Note_on_c, 0, 76, 100
2, 835200, Note_on_c, 0, 76, 0
2, 835200, Note_on_c, 0, 76, 100
2, 835280, Note_on_c, 0, 76, 0
2, 835280, Note_on_c, 0, 75, 100
2, 835360, Note_on_c, 0, 75, 0
2, 835360, Note_on_c, 0, 76, 100
2, 835440, Note_on_c, 0, 76, 0
2, 835440, Note_on_c, 0, 75, 100
2, 835680, Note_on_c, 0, 75, 0
2, 835680, Note_on_c, 0, 73, 100
2, 835920, Note_on_c, 0, 73, 0
2, 835920, Note_on_c, 0, 75, 100
2, 836160, Note_on_c, 0, 75, 0
2, 836160, Note_on_c, 0, 71, 100
2, 836400, Note_on_c, 0, 71, 0
2, 836400, Note_on_c, 0, 73, 100
2, 836640, Note_on_c, 0, 73, 0
2, 836640, Note_on_c, 0, 75, 100
2, 836880, Note_on_c, 0, 75, 0
2, 836880, Note_on_c, 0, 71, 100
2, 837120, Note_on_c, 0, 71, 0
2, 837120, Note_on_c, 0, 76, 100
2, 837600, Note_on_c, 0, 76, 0
2, 837600, Note_on_c, 0, 64, 100
2, 838080, Note_on_c, 0, 64, 0
2, 838080, Note_on_c, 0, 76, 100
2, 839520, Note_on_c, 0, 76, 0
2, 839520, Note_on_c, 0, 64, 100
2, 840000, Note_on_c, 0, 64, 0
2, 840000, Note_on_c, 0, 76, 100
2, 841920, Note_on_c, 0, 76, 0
2, 841920, Note_on_c, 0, 75, 100
2, 842880, Note_on_c, 0, 75, 0
2, 842880, Note_on_c, 0, 76, 100
2, 844080, Note_on_c, 0, 76, 0
2, 844080, Note_on_c, 0, 74, 100
2, 844320, Note_on_c, 0, 74, 0
2, 844320, Note_on_c, 0, 73, 100
2, 844560, Note_on_c, 0, 73, 0
2, 844560, Note_on_c, 0, 71, 100
2, 844800, Note_on_c, 0, 71, 0
2, 844800, Note_on_c, 0, 69, 100
2, 845280, Note_on_c, 0, 69, 0
2, 845280, Note_on_c, 0, 79, 100
2, 846240, Note_on_c, 0, 79, 0
2, 846240, Note_on_c, 0, 77, 100
2, 846480, Note_on_c, 0, 77, 0
2, 846480, Note_on_c, 0, 76, 100
2, 846720, Note_on_c, 0, 76, 0
2, 846720, Note_on_c, 0, 77, 100
2, 848160, Note_on_c, 0, 77, 0
2, 848160, Note_on_c, 0, 76, 100
2, 848400, Note_on_c, 0, 76, 0
2, 848400, Note_on_c, 0, 74, 100
2, 848640, Note_on_c, 0, 74, 0
2, 848640, Note_on_c, 0, 76, 100
2, 850080, Note_on_c, 0, 76, 0
2, 850080, Note_on_c, 0, 78, 100
2, 850320, Note_on_c, 0, 78, 0
2, 850320, Note_on_c, 0, 79, 100
2, 850560, Note_on_c, 0, 79, 0
2, 850560, Note_on_c, 0, 81, 100
2, 850800, Note_on_c, 0, 81, 0
2, 850800, Note_on_c, 0, 83, 100
2, 851040, Note_on_c, 0, 83, 0
2, 851040, Note_on_c, 0, 79, 100
2, 851280, Note_on_c, 0, 79, 0
2, 851280, Note_on_c, 0, 81, 100
2, 851520, Note_on_c, 0, 81, 0
2, 851520, Note_on_c, 0, 78, 100
2, 852000, Note_on_c, 0, 78, 0
2, 852000, Note_on_c, 0, 81, 100
2, 852960, Note_on_c, 0, 81, 0
2, 852960, Note_on_c, 0, 79, 100
2, 853200, Note_on_c, 0, 79, 0
2, 853200, Note_on_c, 0, 78, 100
2, 853440, Note_on_c, 0, 78, 0
2, 853440, Note_on_c, 0, 79, 100
2, 853920, Note_on_c, 0, 79, 0
2, 853920, Note_on_c, 0, 71, 100
2, 854880, Note_on_c, 0, 71, 0
2, 854880, Note_on_c, 0, 69, 100
2, 855120, Note_on_c, 0, 69, 0
2, 855120, Note_on_c, 0, 71, 100
2, 855360, Note_on_c, 0, 71, 0
2, 855360, Note_on_c, 0, 72, 100
2, 856800, Note_on_c, 0, 72, 0
2, 856800, Note_on_c, 0, 71, 100
2, 857280, Note_on_c, 0, 71, 0
2, 857280, Note_on_c, 0, 69, 100
2, 858240, Note_on_c, 0, 69, 0
2, 858240, Note_on_c, 0, 67, 100
2, 860160, Note_on_c, 0, 67, 0
2, 860160, Note_on_c, 0, 78, 100
2, 860280, Note_on_c, 0, 78, 0
2, 860280, Note_on_c, 0, 76, 100
2, 860400, Note_on_c, 0, 76, 0
2, 860400, Note_on_c, 0, 78, 100
2, 861120, Note_on_c, 0, 78, 0
2, 861120, Note_on_c, 0, 79, 100
2, 861240, Note_on_c, 0, 79, 0
2, 861240, Note_on_c, 0, 78, 100
2, 861360, Note_on_c, 0, 78, 0
2, 861360, Note_on_c, 0, 79, 100
2, 861480, Note_on_c, 0, 79, 0
2, 861480, Note_on_c, 0, 78, 100
2, 861600, Note_on_c, 0, 78, 0
2, 861600, Note_on_c, 0, 79, 100
2, 861720, Note_on_c, 0, 79, 0
2, 861720, Note_on_c, 0, 78, 100
2, 861840, Note_on_c, 0, 78, 0
2, 861840, Note_on_c, 0, 76, 100
2, 861960, Note_on_c, 0, 76, 0
2, 861960, Note_on_c, 0, 78, 100
2, 862080, Note_on_c, 0, 78, 0
2, 862080, Note_on_c, 0, 79, 100
2, 862560, Note_on_c, 0, 79, 0
2, 862560, Note_on_c, 0, 74, 100
2, 863040, Note_on_c, 0, 74, 0
2, 863040, Note_on_c, 0, 71, 100
2, 863520, Note_on_c, 0, 71, 0
2, 863520, Note_on_c, 0, 74, 100
2, 864000, Note_on_c, 0, 74, 0
2, 864000, Note_on_c, 0, 72, 100
2, 864480, Note_on_c, 0, 72, 0
2, 864480, Note_on_c, 0, 77, 100
2, 864960, Note_on_c, 0, 77, 0
2, 864960, Note_on_c, 0, 65, 100
2, 865440, Note_on_c, 0, 65, 0
2, 865440, Note_on_c, 0, 76, 100
2, 865920, Note_on_c, 0, 76, 0
2, 865920, Note_on_c, 0, 76, 100
2, 866000, Note_on_c, 0, 76, 0
2, 866000, Note_on_c, 0, 75, 100
2, 866080, Note_on_c, 0, 75, 0
2, 866080, Note_on_c, 0, 76, 100
2, 866160, Note_on_c, 0, 76, 0
2, 866160, Note_on_c, 0, 75, 100
2, 866400, Note_on_c, 0, 75, 0
2, 866400, Note_on_c, 0, 73, 100
2, 866640, Note_on_c, 0, 73, 0
2, 866640, Note_on_c, 0, 75, 100
2, 866880, Note_on_c, 0, 75, 0
2, 866880, Note_on_c, 0, 71, 100
2, 867120, Note_on_c, 0, 71, 0
2, 867120, Note_on_c, 0, 73, 100
2, 867360, Note_on_c, 0, 73, 0
2, 867360, Note_on_c, 0, 75, 100
2, 867600, Note_on_c, 0, 75, 0
2, 867600, Note_on_c, 0, 71, 100
2, 867840, Note_on_c, 0, 71, 0
2, 867840, Note_on_c, 0, 76, 100
2, 868320, Note_on_c, 0, 76, 0
2, 868320, Note_on_c, 0, 64, 100
2, 868800, Note_on_c, 0, 64, 0
2, 868800, Note_on_c, 0, 76, 100
2, 870240, Note_on_c, 0, 76, 0
2, 870240, Note_on_c, 0, 64, 100
2, 870720, Note_on_c, 0, 64, 0
2, 870720, Note_on_c, 0, 76, 100
2, 872640, Note_on_c, 0, 76, 0
2, 872640, Note_on_c, 0, 75, 100
2, 873600, Note_on_c, 0, 75, 0
2, 873600, Note_on_c, 0, 76, 100
2, 874800, Note_on_c, 0, 76, 0
2, 874800, Note_on_c, 0, 74, 100
2, 875040, Note_on_c, 0, 74, 0
2, 875040, Note_on_c, 0, 73, 100
2, 875280, Note_on_c, 0, 73, 0
2, 875280, Note_on_c, 0, 71, 100
2, 875520, Note_on_c, 0, 71, 0
2, 875520, Note_on_c, 0, 69, 100
2, 876000, Note_on_c, 0, 69, 0
2, 876000, Note_on_c, 0, 79, 100
2, 876960, Note_on_c, 0, 79, 0
2, 876960, Note_on_c, 0, 77, 100
2, 877200, Note_on_c, 0, 77, 0
2, 877200, Note_on_c, 0, 76, 100
2, 877440, Note_on_c, 0, 76, 0
2, 877440, Note_on_c, 0, 77, 100
2, 878880, Note_on_c, 0, 77, 0
2, 878880, Note_on_c, 0, 76, 100
2, 879120, Note_on_c, 0, 76, 0
2, 879120, Note_on_c, 0, 74, 100
2, 879360, Note_on_c, 0, 74, 0
2, 879360, Note_on_c, 0, 76, 100
2, 880800, Note_on_c, 0, 76, 0
2, 880800, Note_on_c, 0, 78, 100
2, 881040, Note_on_c, 0, 78, 0
2, 881040, Note_on_c, 0, 79, 100
2, 881280, Note_on_c, 0, 79, 0
2, 881280, Note_on_c, 0, 81, 100
2, 881520, Note_on_c, 0, 81, 0
2, 881520, Note_on_c, 0, 83, 100
2, 881760, Note_on_c, 0, 83, 0
2, 881760, Note_on_c, 0, 79, 100
2, 882000, Note_on_c, 0, 79, 0
2, 882000, Note_on_c, 0, 81, 100
2, 882240, Note_on_c, 0, 81, 0
2, 882240, Note_on_c, 0, 78, 100
2, 882720, Note_on_c, 0, 78, 0
2, 882720, Note_on_c, 0, 81, 100
2, 883680, Note_on_c, 0, 81, 0
2, 883680, Note_on_c, 0, 79, 100
2, 883920, Note_on_c, 0, 79, 0
2, 883920, Note_on_c, 0, 78, 100
2, 884160, Note_on_c, 0, 78, 0
2, 884160, Note_on_c, 0, 79, 100
2, 884640, Note_on_c, 0, 79, 0
2, 884640, Note_on_c, 0, 71, 100
2, 885600, Note_on_c, 0, 71, 0
2, 885600, Note_on_c, 0, 69, 100
2, 885840, Note_on_c, 0, 69, 0
2, 885840, Note_on_c, 0, 71, 100
2, 886080, Note_on_c, 0, 71, 0
2, 886080, Note_on_c, 0, 72, 100
2, 887520, Note_on_c, 0, 72, 0
2, 887520, Note_on_c, 0, 71, 100
2, 888000, Note_on_c, 0, 71, 0
2, 888000, Note_on_c, 0, 69, 100
2, 888960, Note_on_c, 0, 69, 0
2, 888960, Note_on_c, 0, 67, 100
2, 890880, Note_on_c, 0, 67, 0
2, 1321500, Note_on_c, 0, 67, 100
2, 1321560, Note_on_c, 0, 67, 0
2, 1321560, Note_on_c, 0, 69, 100
2, 1321620, Note_on_c, 0, 69, 0
2, 1321620, Note_on_c, 0, 71, 100
2, 1321680, Note_on_c, 0, 71, 0
2, 1321680, Note_on_c, 0, 72, 100
2, 1321740, Note_on_c, 0, 72, 0
2, 1321740, Note_on_c, 0, 74, 100
2, 1321800, Note_on_c, 0, 74, 0
2, 1321800, Note_on_c, 0, 76, 100
2, 1321860, Note_on_c, 0, 76, 0
2, 1321860, Note_on_c, 0, 78, 100
2, 1321920, Note_on_c, 0, 78, 0
2, 1321920, Note_on_c, 0, 79, 100
2, 1322280, Note_on_c, 0, 79, 0
2, 1322280, Note_on_c, 0, 74, 100
2, 1322400, Note_on_c, 0, 74, 0
2, 1322400, Note_on_c, 0, 71, 100
2, 1322760, Note_on_c, 0, 71, 0
2, 1322760, Note_on_c, 0, 67, 100
2, 1322880, Note_on_c, 0, 67, 0
2, 1322880, Note_on_c, 0, 74, 100
2, 1322940, Note_on_c, 0, 74, 0
2, 1322940, Note_on_c, 0, 72, 100
2, 1323000, Note_on_c, 0, 72, 0
2, 1323000, Note_on_c, 0, 74, 100
2, 1323600, Note_on_c, 0, 74, 0
2, 1323600, Note_on_c, 0, 76, 100
2, 1323840, Note_on_c, 0, 76, 0
2, 1323840, Note_on_c, 0, 74, 100
2, 1323960, Note_on_c, 0, 74, 0
2, 1323960, Note_on_c, 0, 72, 100
2, 1324020, Note_on_c, 0, 72, 0
2, 1324020, Note_on_c, 0, 71, 100
2, 1324080, Note_on_c, 0, 71, 0
2, 1324080, Note_on_c, 0, 72, 100
2, 1324140, Note_on_c, 0, 72, 0
2, 1324140, Note_on_c, 0, 74, 100
2, 1324180, Note_on_c, 0, 74, 0
2, 1324180, Note_on_c, 0, 72, 100
2, 1324220, Note_on_c, 0, 72, 0
2, 1324220, Note_on_c, 0, 74, 100
2, 1324260, Note_on_c, 0, 74, 0
2, 1324260, Note_on_c, 0, 72, 100
2, 1324300, Note_on_c, 0, 72, 0
2, 1324300, Note_on_c, 0, 74, 100
2, 1324340, Note_on_c, 0, 74, 0
2, 1324340, Note_on_c, 0, 72, 100
2, 1324380, Note_on_c, 0, 72, 0
2, 1324380, Note_on_c, 0, 74, 100
2, 1324420, Note_on_c, 0, 74, 0
2, 1324420, Note_on_c, 0, 72, 100
2, 1324460, Note_on_c, 0, 72, 0
2, 1324460, Note_on_c, 0, 74, 100
2, 1324500, Note_on_c, 0, 74, 0
2, 1324500, Note_on_c, 0, 72, 100
2, 1324540, Note_on_c, 0, 72, 0
2, 1324540, Note_on_c, 0, 74, 100
2, 1324580, Note_on_c, 0, 74, 0
2, 1324580, Note_on_c, 0, 72, 100
2, 1324610, Note_on_c, 0, 72, 0
2, 1324620, Note_on_c, 0, 71, 100
2, 1324680, Note_on_c, 0, 71, 0
2, 1324680, Note_on_c, 0, 72, 100
2, 1324740, Note_on_c, 0, 72, 0
2, 1324740, Note_on_c, 0, 74, 100
2, 1324800, Note_on_c, 0, 74, 0
2, 1324800, Note_on_c, 0, 67, 100
2, 1325160, Note_on_c, 0, 67, 0
2, 1325160, Note_on_c, 0, 79, 100
2, 1325220, Note_on_c, 0, 79, 0
2, 1325220, Note_on_c, 0, 78, 100
2, 1325280, Note_on_c, 0, 78, 0
2, 1325280, Note_on_c, 0, 79, 100
2, 1325640, Note_on_c, 0, 79, 0
2, 1325640, Note_on_c, 0, 76, 100
2, 1325760, Note_on_c, 0, 76, 0
2, 1325760, Note_on_c, 0, 74, 100
2, 1325880, Note_on_c, 0, 74, 0
2, 1325880, Note_on_c, 0, 73, 100
2, 1326120, Note_on_c, 0, 73, 0
2, 1326120, Note_on_c, 0, 83, 100
2, 1326240, Note_on_c, 0, 83, 0
2, 1326240, Note_on_c, 0, 81, 100
2, 1326600, Note_on_c, 0, 81, 0
2, 1326600, Note_on_c, 0, 79, 100
2, 1326720, Note_on_c, 0, 79, 0
2, 1326720, Note_on_c, 0, 79, 100
2, 1326780, Note_on_c, 0, 79, 0
2, 1326780, Note_on_c, 0, 78, 100
2, 1326840, Note_on_c, 0, 78, 0
2, 1326840, Note_on_c, 0, 76, 100
2, 1326900, Note_on_c, 0, 76, 0
2, 1326900, Note_on_c, 0, 78, 100
2, 1326960, Note_on_c, 0, 78, 0
2, 1326960, Note_on_c, 0, 79, 100
2, 1327000, Note_on_c, 0, 79, 0
2, 1327000, Note_on_c, 0, 78, 100
2, 1327040, Note_on_c, 0, 78, 0
2, 1327040, Note_on_c, 0, 79, 100
2, 1327080, Note_on_c, 0, 79, 0
2, 1327080, Note_on_c, 0, 78, 100
2, 1327120, Note_on_c, 0, 78, 0
2, 1327120, Note_on_c, 0, 79, 100
2, 1327160, Note_on_c, 0, 79, 0
2, 1327160, Note_on_c, 0, 78, 100
2, 1327440, Note_on_c, 0, 78, 0
2, 1327440, Note_on_c, 0, 79, 100
2, 1327680, Note_on_c, 0, 79, 0
2, 1327680, Note_on_c, 0, 79, 100
2, 1327800, Note_on_c, 0, 79, 0
2, 1327800, Note_on_c, 0, 81, 100
2, 1328940, Note_on_c, 0, 81, 0
2, 1328940, Note_on_c, 0, 81, 100
2, 1329000, Note_on_c, 0, 81, 0
2, 1329000, Note_on_c, 0, 79, 100
2, 1329060, Note_on_c, 0, 79, 0
2, 1329060, Note_on_c, 0, 78, 100
2, 1329120, Note_on_c, 0, 78, 0
2, 1329120, Note_on_c, 0, 79, 100
2, 1329480, Note_on_c, 0, 79, 0
2, 1329480, Note_on_c, 0, 74, 100
2, 1330560, Note_on_c, 0, 74, 0
2, 1330560, Note_on_c, 0, 72, 100
2, 1330800, Note_on_c, 0, 72, 0
2, 1332000, Note_on_c, 0, 79, 100
2, 1332060, Note_on_c, 0, 79, 0
2, 1332060, Note_on_c, 0, 78, 100
2, 1332120, Note_on_c, 0, 78, 0
2, 1332120, Note_on_c, 0, 79, 100
2, 1332360, Note_on_c, 0, 79, 0
2, 1332360, Note_on_c, 0, 79, 100
2, 1332480, Note_on_c, 0, 79, 0
2, 1332480, Note_on_c, 0, 79, 100
2, 1333020, Note_on_c, 0, 79, 0
2, 1333020, Note_on_c, 0, 83, 100
2, 1333080, Note_on_c, 0, 83, 0
2, 1333080, Note_on_c, 0, 81, 100
2, 1333140, Note_on_c, 0, 81, 0
2, 1333140, Note_on_c, 0, 79, 100
2, 1333200, Note_on_c, 0, 79, 0
2, 1333200, Note_on_c, 0, 78, 100
2, 1333260, Note_on_c, 0, 78, 0
2, 1333260, Note_on_c, 0, 76, 100
2, 1333320, Note_on_c, 0, 76, 0
2, 1333320, Note_on_c, 0, 74, 100
2, 1333380, Note_on_c, 0, 74, 0
2, 1333380, Note_on_c, 0, 72, 100
2, 1333440, Note_on_c, 0, 72, 0
2, 1333440, Note_on_c, 0, 81, 100
2, 1333800, Note_on_c, 0, 81, 0
2, 1333800, Note_on_c, 0, 72, 100
2, 1333920, Note_on_c, 0, 72, 0
2, 1333920, Note_on_c, 0, 81, 100
2, 1334280, Note_on_c, 0, 81, 0
2, 1334280, Note_on_c, 0, 72, 100
2, 1334400, Note_on_c, 0, 72, 0
2, 1334400, Note_on_c, 0, 72, 100
2, 1334460, Note_on_c, 0, 72, 0
2, 1334460, Note_on_c, 0, 71, 100
2, 1334520, Note_on_c, 0, 71, 0
2, 1334520, Note_on_c, 0, 69, 100
2, 1334580, Note_on_c, 0, 69, 0
2, 1334580, Note_on_c, 0, 71, 100
2, 1334640, Note_on_c, 0, 71, 0
2, 1334640, Note_on_c, 0, 72, 100
2, 1334680, Note_on_c, 0, 72, 0
2, 1334680, Note_on_c, 0, 71, 100
2, 1334720, Note_on_c, 0, 71, 0
2, 1334720, Note_on_c, 0, 72, 100
2, 1334760, Note_on_c, 0, 72, 0
2, 1334760, Note_on_c, 0, 71, 100
2, 1334800, Note_on_c, 0, 71, 0
2, 1334800, Note_on_c, 0, 72, 100
2, 1334840, Note_on_c, 0, 72, 0
2, 1334840, Note_on_c, 0, 71, 100
2, 1335180, Note_on_c, 0, 71, 0
2, 1335180, Note_on_c, 0, 69, 100
2, 1335240, Note_on_c, 0, 69, 0
2, 1335240, Note_on_c, 0, 67, 100
2, 1335300, Note_on_c, 0, 67, 0
2, 1335300, Note_on_c, 0, 66, 100
2, 1335360, Note_on_c, 0, 66, 0
2, 1335360, Note_on_c, 0, 67, 100
2, 1335480, Note_on_c, 0, 67, 0
2, 1335480, Note_on_c, 0, 74, 100
2, 1335600, Note_on_c, 0, 74, 0
2, 1335600, Note_on_c, 0, 76, 100
2, 1335720, Note_on_c, 0, 76, 0
2, 1335720, Note_on_c, 0, 78, 100
2, 1335840, Note_on_c, 0, 78, 0
2, 1335840, Note_on_c, 0, 79, 100
2, 1335960, Note_on_c, 0, 79, 0
2, 1335960, Note_on_c, 0, 78, 100
2, 1336080, Note_on_c, 0, 78, 0
2, 1336080, Note_on_c, 0, 79, 100
2, 1336200, Note_on_c, 0, 79, 0
2, 1336200, Note_on_c, 0, 81, 100
2, 1336320, Note_on_c, 0, 81, 0
2, 1336320, Note_on_c, 0, 83, 100
2, 1336620, Note_on_c, 0, 83, 0
2, 1336620, Note_on_c, 0, 81, 100
2, 1336680, Note_on_c, 0, 81, 0
2, 1336680, Note_on_c, 0, 79, 100
2, 1336740, Note_on_c, 0, 79, 0
2, 1336740, Note_on_c, 0, 78, 100
2, 1336800, Note_on_c, 0, 78, 0
2, 1336800, Note_on_c, 0, 79, 100
2, 1337100, Note_on_c, 0, 79, 0
2, 1337100, Note_on_c, 0, 78, 100
2, 1337160, Note_on_c, 0, 78, 0
2, 1337160, Note_on_c, 0, 76, 100
2, 1337220, Note_on_c, 0, 76, 0
2, 1337220, Note_on_c, 0, 75, 100
2, 1337280, Note_on_c, 0, 75, 0
2, 1337280, Note_on_c, 0, 76, 100
2, 1337640, Note_on_c, 0, 76, 0
2, 1337640, Note_on_c, 0, 71, 100
2, 1337760, Note_on_c, 0, 71, 0
2, 1337760, Note_on_c, 0, 73, 100
2, 1337800, Note_on_c, 0, 73, 0
2, 1337800, Note_on_c, 0, 71, 100
2, 1337840, Note_on_c, 0, 71, 0
2, 1337840, Note_on_c, 0, 73, 100
2, 1338120, Note_on_c, 0, 73, 0
2, 1338120, Note_on_c, 0, 74, 100
2, 1338240, Note_on_c, 0, 74, 0
2, 1338240, Note_on_c, 0, 74, 100
2, 1338360, Note_on_c, 0, 74, 0
2, 1338360, Note_on_c, 0, 73, 100
2, 1338540, Note_on_c, 0, 73, 0
2, 1338540, Note_on_c, 0, 76, 100
2, 1338600, Note_on_c, 0, 76, 0
2, 1338600, Note_on_c, 0, 78, 100
2, 1338660, Note_on_c, 0, 78, 0
2, 1338660, Note_on_c, 0, 79, 100
2, 1338720, Note_on_c, 0, 79, 0
2, 1338720, Note_on_c, 0, 81, 100
2, 1339080, Note_on_c, 0, 81, 0
2, 1339080, Note_on_c, 0, 81, 100
2, 1339200, Note_on_c, 0, 81, 0
2, 1339200, Note_on_c, 0, 81, 100
2, 1339980, Note_on_c, 0, 81, 0
2, 1339980, Note_on_c, 0, 81, 100
2, 1340040, Note_on_c, 0, 81, 0
2, 1340040, Note_on_c, 0, 79, 100
2, 1340100, Note_on_c, 0, 79, 0
2, 1340100, Note_on_c, 0, 78, 100
2, 1340160, Note_on_c, 0, 78, 0
2, 1340160, Note_on_c, 0, 79, 100
2, 1340460, Note_on_c, 0, 79, 0
2, 1340460, Note_on_c, 0, 78, 100
2, 1340520, Note_on_c, 0, 78, 0
2, 1340520, Note_on_c, 0, 76, 100
2, 1340580, Note_on_c, 0, 76, 0
2, 1340580, Note_on_c, 0, 75, 100
2, 1340640, Note_on_c, 0, 75, 0
2, 1340640, Note_on_c, 0, 76, 100
2, 1341000, Note_on_c, 0, 76, 0
2, 1341000, Note_on_c, 0, 83, 100
2, 1341120, Note_on_c, 0, 83, 0
2, 1341120, Note_on_c, 0, 76, 100
2, 1341180, Note_on_c, 0, 76, 0
2, 1341180, Note_on_c, 0, 74, 100
2, 1341240, Note_on_c, 0, 74, 0
2, 1341240, Note_on_c, 0, 72, 100
2, 1341300, Note_on_c, 0, 72, 0
2, 1341300, Note_on_c, 0, 74, 100
2, 1341360, Note_on_c, 0, 74, 0
2, 1341360, Note_on_c, 0, 76, 100
2, 1341400, Note_on_c, 0, 76, 0
2, 1341400, Note_on_c, 0, 74, 100
2, 1341440, Note_on_c, 0, 74, 0
2, 1341440, Note_on_c, 0, 76, 100
2, 1341480, Note_on_c, 0, 76, 0
2, 1341480, Note_on_c, 0, 74, 100
2, 1341520, Note_on_c, 0, 74, 0
2, 1341520, Note_on_c, 0, 76, 100
2, 1341560, Note_on_c, 0, 76, 0
2, 1341560, Note_on_c, 0, 74, 100
2, 1341600, Note_on_c, 0, 74, 0
2, 1341600, Note_on_c, 0, 76, 100
2, 1341640, Note_on_c, 0, 76, 0
2, 1341640, Note_on_c, 0, 74, 100
2, 1341840, Note_on_c, 0, 74, 0
2, 1341840, Note_on_c, 0, 73, 100
2, 1341960, Note_on_c, 0, 73, 0
2, 1341960, Note_on_c, 0, 71, 100
2, 1342080, Note_on_c, 0, 71, 0
2, 1342080, Note_on_c, 0, 73, 100
2, 1342380, Note_on_c, 0, 73, 0
2, 1342380, Note_on_c, 0, 74, 100
2, 1342440, Note_on_c, 0, 74, 0
2, 1342440, Note_on_c, 0, 73, 100
2, 1342500, Note_on_c, 0, 73, 0
2, 1342500, Note_on_c, 0, 74, 100
2, 1342560, Note_on_c, 0, 74, 0
2, 1342560, Note_on_c, 0, 76, 100
2, 1342600, Note_on_c, 0, 76, 0
2, 1342600, Note_on_c, 0, 74, 100
2, 1342640, Note_on_c, 0, 74, 0
2, 1342640, Note_on_c, 0, 76, 100
2, 1342680, Note_on_c, 0, 76, 0
2, 1342680, Note_on_c, 0, 74, 100
2, 1342720, Note_on_c, 0, 74, 0
2, 1342720, Note_on_c, 0, 76, 100
2, 1342760, Note_on_c, 0, 76, 0
2, 1342760, Note_on_c, 0, 74, 100
2, 1342800, Note_on_c, 0, 74, 0
2, 1342800, Note_on_c, 0, 76, 100
2, 1342860, Note_on_c, 0, 76, 0
2, 1342860, Note_on_c, 0, 74, 100
2, 1342920, Note_on_c, 0, 74, 0
2, 1342920, Note_on_c, 0, 73, 100
2, 1342980, Note_on_c, 0, 73, 0
2, 1342980, Note_on_c, 0, 74, 100
2, 1343040, Note_on_c, 0, 74, 0
2, 1343040, Note_on_c, 0, 76, 100
2, 1343580, Note_on_c, 0, 76, 0
2, 1343580, Note_on_c, 0, 74, 100
2, 1343640, Note_on_c, 0, 74, 0
2, 1343640, Note_on_c, 0, 73, 100
2, 1343700, Note_on_c, 0, 73, 0
2, 1343700, Note_on_c, 0, 71, 100
2, 1343760, Note_on_c, 0, 71, 0
2, 1343760, Note_on_c, 0, 69, 100
2, 1343820, Note_on_c, 0, 69, 0
2, 1343820, Note_on_c, 0, 67, 100
2, 1343880, Note_on_c, 0, 67, 0
2, 1343880, Note_on_c, 0, 66, 100
2, 1343940, Note_on_c, 0, 66, 0
2, 1343940, Note_on_c, 0, 64, 100
2, 1344000, Note_on_c, 0, 64, 0
2, 1344000, Note_on_c, 0, 62, 100
2, 1344360, Note_on_c, 0, 62, 0
2, 1344360, Note_on_c, 0, 66, 100
2, 1344480, Note_on_c, 0, 66, 0
2, 1344480, Note_on_c, 0, 69, 100
2, 1344540, Note_on_c, 0, 69, 0
2, 1344540, Note_on_c, 0, 67, 100
2, 1344600, Note_on_c, 0, 67, 0
2, 1344600, Note_on_c, 0, 69, 100
2, 1344840, Note_on_c, 0, 69, 0
2, 1344840, Note_on_c, 0, 71, 100
2, 1344960, Note_on_c, 0, 71, 0
2, 1344960, Note_on_c, 0, 72, 100
2, 1345740, Note_on_c, 0, 72, 0
2, 1345740, Note_on_c, 0, 72, 100
2, 1345800, Note_on_c, 0, 72, 0
2, 1345800, Note_on_c, 0, 71, 100
2, 1345860, Note_on_c, 0, 71, 0
2, 1345860, Note_on_c, 0, 69, 100
2, 1345920, Note_on_c, 0, 69, 0
2, 1345920, Note_on_c, 0, 71, 100
2, 1346220, Note_on_c, 0, 71, 0
2, 1346220, Note_on_c, 0, 73, 100
2, 1346280, Note_on_c, 0, 73, 0
2, 1346280, Note_on_c, 0, 74, 100
2, 1346340, Note_on_c, 0, 74, 0
2, 1346340, Note_on_c, 0, 76, 100
2, 1346400, Note_on_c, 0, 76, 0
2, 1346400, Note_on_c, 0, 76, 100
2, 1346460, Note_on_c, 0, 76, 0
2, 1346460, Note_on_c, 0, 74, 100
2, 1346520, Note_on_c, 0, 74, 0
2, 1346520, Note_on_c, 0, 76, 100
2, 1346580, Note_on_c, 0, 76, 0
2, 1346580, Note_on_c, 0, 74, 100
2, 1346700, Note_on_c, 0, 74, 0
2, 1346700, Note_on_c, 0, 73, 100
2, 1346760, Note_on_c, 0, 73, 0
2, 1346760, Note_on_c, 0, 74, 100
2, 1346820, Note_on_c, 0, 74, 0
2, 1346820, Note_on_c, 0, 76, 100
2, 1346880, Note_on_c, 0, 76, 0
2, 1346880, Note_on_c, 0, 69, 100
2, 1347180, Note_on_c, 0, 69, 0
2, 1347180, Note_on_c, 0, 76, 100
2, 1347240, Note_on_c, 0, 76, 0
2, 1347240, Note_on_c, 0, 78, 100
2, 1347300, Note_on_c, 0, 78, 0
2, 1347300, Note_on_c, 0, 79, 100
2, 1347360, Note_on_c, 0, 79, 0
2, 1347360, Note_on_c, 0, 81, 100
2, 1347720, Note_on_c, 0, 81, 0
2, 1347720, Note_on_c, 0, 73, 100
2, 1347840, Note_on_c, 0, 73, 0
2, 1347840, Note_on_c, 0, 74, 100
2, 1348320, Note_on_c, 0, 74, 0
2, 1348320, Note_on_c, 0, 76, 100
2, 1348380, Note_on_c, 0, 76, 0
2, 1348380, Note_on_c, 0, 74, 100
2, 1348440, Note_on_c, 0, 74, 0
2, 1348440, Note_on_c, 0, 73, 100
2, 1348500, Note_on_c, 0, 73, 0
2, 1348500, Note_on_c, 0, 74, 100
2, 1348560, Note_on_c, 0, 74, 0
2, 1348560, Note_on_c, 0, 76, 100
2, 1348800, Note_on_c, 0, 76, 0
2, 1348800, Note_on_c, 0, 78, 100
2, 1348860, Note_on_c, 0, 78, 0
2, 1348860, Note_on_c, 0, 76, 100
2, 1348920, Note_on_c, 0, 76, 0
2, 1348920, Note_on_c, 0, 74, 100
2, 1348980, Note_on_c, 0, 74, 0
2, 1348980, Note_on_c, 0, 76, 100
2, 1349040, Note_on_c, 0, 76, 0
2, 1349040, Note_on_c, 0, 78, 100
2, 1349080, Note_on_c, 0, 78, 0
2, 1349080, Note_on_c, 0, 76, 100
2, 1349120, Note_on_c, 0, 76, 0
2, 1349120, Note_on_c, 0, 78, 100
2, 1349160, Note_on_c, 0, 78, 0
2, 1349160, Note_on_c, 0, 76, 100
2, 1349200, Note_on_c, 0, 76, 0
2, 1349200, Note_on_c, 0, 78, 100
2, 1349240, Note_on_c, 0, 78, 0
2, 1349240, Note_on_c, 0, 76, 100
2, 1349520, Note_on_c, 0, 76, 0
2, 1349520, Note_on_c, 0, 74, 100
2, 1349760, Note_on_c, 0, 74, 0
2, 1349760, Note_on_c, 0, 74, 100
2, 1351680, Note_on_c, 0, 74, 0
2, 1352220, Note_on_c, 0, 67, 100
2, 1352280, Note_on_c, 0, 67, 0
2, 1352280, Note_on_c, 0, 69, 100
2, 1352340, Note_on_c, 0, 69, 0
2, 1352340, Note_on_c, 0, 71, 100
2, 1352400, Note_on_c, 0, 71, 0
2, 1352400, Note_on_c, 0, 72, 100
2, 1352460, Note_on_c, 0, 72, 0
2, 1352460, Note_on_c, 0, 74, 100
2, 1352520, Note_on_c, 0, 74, 0
2, 1352520, Note_on_c, 0, 76, 100
2, 1352580, Note_on_c, 0, 76, 0
2, 1352580, Note_on_c, 0, 78, 100
2, 1352640, Note_on_c, 0, 78, 0
2, 1352640, Note_on_c, 0, 79, 100
2, 1353000, Note_on_c, 0, 79, 0
2, 1353000, Note_on_c, 0, 74, 100
2, 1353120, Note_on_c, 0, 74, 0
2, 1353120, Note_on_c, 0, 71, 100
2, 1353480, Note_on_c, 0, 71, 0
2, 1353480, Note_on_c, 0, 67, 100
2, 1353600, Note_on_c, 0, 67, 0
2, 1353600, Note_on_c, 0, 74, 100
2, 1353660, Note_on_c, 0, 74, 0
2, 1353660, Note_on_c, 0, 72, 100
2, 1353720, Note_on_c, 0, 72, 0
2, 1353720, Note_on_c, 0, 74, 100
2, 1354320, Note_on_c, 0, 74, 0
2, 1354320, Note_on_c, 0, 76, 100
2, 1354560, Note_on_c, 0, 76, 0
2, 1354560, Note_on_c, 0, 74, 100
2, 1354680, Note_on_c, 0, 74, 0
2, 1354680, Note_on_c, 0, 72, 100
2, 1354740, Note_on_c, 0, 72, 0
2, 1354740, Note_on_c, 0, 71, 100
2, 1354800, Note_on_c, 0, 71, 0
2, 1354800, Note_on_c, 0, 72, 100
2, 1354860, Note_on_c, 0, 72, 0
2, 1354860, Note_on_c, 0, 74, 100
2, 1354900, Note_on_c, 0, 74, 0
2, 1354900, Note_on_c, 0, 72, 100
2, 1354940, Note_on_c, 0, 72, 0
2, 1354940, Note_on_c, 0, 74, 100
2, 1354980, Note_on_c, 0, 74, 0
2, 1354980, Note_on_c, 0, 72, 100
2, 1355020, Note_on_c, 0, 72, 0
2, 1355020, Note_on_c, 0, 74, 100
2, 1355060, Note_on_c, 0, 74, 0
2, 1355060, Note_on_c, 0, 72, 100
2, 1355100, Note_on_c, 0, 72, 0
2, 1355100, Note_on_c, 0, 74, 100
2, 1355140, Note_on_c, 0, 74, 0
2, 1355140, Note_on_c, 0, 72, 100
2, 1355180, Note_on_c, 0, 72, 0
2, 1355180, Note_on_c, 0, 74, 100
2, 1355220, Note_on_c, 0, 74, 0
2, 1355220, Note_on_c, 0, 72, 100
2, 1355260, Note_on_c, 0, 72, 0
2, 1355260, Note_on_c, 0, 74, 100
2, 1355300, Note_on_c, 0, 74, 0
2, 1355300, Note_on_c, 0, 72, 100
2, 1355330, Note_on_c, 0, 72, 0
2, 1355340, Note_on_c, 0, 71, 100
2, 1355400, Note_on_c, 0, 71, 0
2, 1355400, Note_on_c, 0, 72, 100
2, 1355460, Note_on_c, 0, 72, 0
2, 1355460, Note_on_c, 0, 74, 100
2, 1355520, Note_on_c, 0, 74, 0
2, 1355520, Note_on_c, 0, 67, 100
2, 1355880, Note_on_c, 0, 67, 0
2, 1355880, Note_on_c, 0, 79, 100
2, 1355940, Note_on_c, 0, 79, 0
2, 1355940, Note_on_c, 0, 78, 100
2, 1356000, Note_on_c, 0, 78, 0
2, 1356000, Note_on_c, 0, 79, 100
2, 1356360, Note_on_c, 0, 79, 0
2, 1356360, Note_on_c, 0, 76, 100
2, 1356480, Note_on_c, 0, 76, 0
2, 1356480, Note_on_c, 0, 74, 100
2, 1356600, Note_on_c, 0, 74, 0
2, 1356600, Note_on_c, 0, 73, 100
2, 1356840, Note_on_c, 0, 73, 0
2, 1356840, Note_on_c, 0, 83, 100
2, 1356960, Note_on_c, 0, 83, 0
2, 1356960, Note_on_c, 0, 81, 100
2, 1357320, Note_on_c, 0, 81, 0
2, 1357320, Note_on_c, 0, 79, 100
2, 1357440, Note_on_c, 0, 79, 0
2, 1357440, Note_on_c, 0, 79, 100
2, 1357500, Note_on_c, 0, 79, 0
2, 1357500, Note_on_c, 0, 78, 100
2, 1357560, Note_on_c, 0, 78, 0
2, 1357560, Note_on_c, 0, 76, 100
2, 1357620, Note_on_c, 0, 76, 0
2, 1357620, Note_on_c, 0, 78, 100
2, 1357680, Note_on_c, 0, 78, 0
2, 1357680, Note_on_c, 0, 79, 100
2, 1357720, Note_on_c, 0, 79, 0
2, 1357720, Note_on_c, 0, 78, 100
2, 1357760, Note_on_c, 0, 78, 0
2, 1357760, Note_on_c, 0, 79, 100
2, 1357800, Note_on_c, 0, 79, 0
2, 1357800, Note_on_c, 0, 78, 100
2, 1357840, Note_on_c, 0, 78, 0
2, 1357840, Note_on_c, 0, 79, 100
2, 1357880, Note_on_c, 0, 79, 0
2, 1357880, Note_on_c, 0, 78, 100
2, 1358160, Note_on_c, 0, 78, 0
2, 1358160, Note_on_c, 0, 79, 100
2, 1358400, Note_on_c, 0, 79, 0
2, 1358400, Note_on_c, 0, 79, 100
2, 1358520, Note_on_c, 0, 79, 0
2, 1358520, Note_on_c, 0, 81, 100
2, 1359660, Note_on_c, 0, 81, 0
2, 1359660, Note_on_c, 0, 81, 100
2, 1359720, Note_on_c, 0, 81, 0
2, 1359720, Note_on_c, 0, 79, 100
2, 1359780, Note_on_c, 0, 79, 0
2, 1359780, Note_on_c, 0, 78, 100
2, 1359840, Note_on_c, 0, 78, 0
2, 1359840, Note_on_c, 0, 79, 100
2, 1360200, Note_on_c, 0, 79, 0
2, 1360200, Note_on_c, 0, 74, 100
2, 1361280, Note_on_c, 0, 74, 0
2, 1361280, Note_on_c, 0, 72, 100
2, 1361520, Note_on_c, 0, 72, 0
2, 1362720, Note_on_c, 0, 79, 100
2, 1362780, Note_on_c, 0, 79, 0
2, 1362780, Note_on_c, 0, 78, 100
2, 1362840, Note_on_c, 0, 78, 0
2, 1362840, Note_on_c, 0, 79, 100
2, 1363080, Note_on_c, 0, 79, 0
2, 1363080, Note_on_c, 0, 79, 100
2, 1363200, Note_on_c, 0, 79, 0
2, 1363200, Note_on_c, 0, 79, 100
2, 1363740, Note_on_c, 0, 79, 0
2, 1363740, Note_on_c, 0, 83, 100
2, 1363800, Note_on_c, 0, 83, 0
2, 1363800, Note_on_c, 0, 81, 100
2, 1363860, Note_on_c, 0, 81, 0
2, 1363860, Note_on_c, 0, 79, 100
2, 1363920, Note_on_c, 0, 79, 0
2, 1363920, Note_on_c, 0, 78, 100
2, 1363980, Note_on_c, 0, 78, 0
2, 1363980, Note_on_c, 0, 76, 100
2, 1364040, Note_on_c, 0, 76, 0
2, 1364040, Note_on_c, 0, 74, 100
2, 1364100, Note_on_c, 0, 74, 0
2, 1364100, Note_on_c, 0, 72, 100
2, 1364160, Note_on_c, 0, 72, 0
2, 1364160, Note_on_c, 0, 81, 100
2, 1364520, Note_on_c, 0, 81, 0
2, 1364520, Note_on_c, 0, 72, 100
2, 1364640, Note_on_c, 0, 72, 0
2, 1364640, Note_on_c, 0, 81, 100
2, 1365000, Note_on_c, 0, 81, 0
2, 1365000, Note_on_c, 0, 72, 100
2, 1365120, Note_on_c, 0, 72, 0
2, 1365120, Note_on_c, 0, 72, 100
2, 1365180, Note_on_c, 0, 72, 0
2, 1365180, Note_on_c, 0, 71, 100
2, 1365240, Note_on_c, 0, 71, 0
2, 1365240, Note_on_c, 0, 69, 100
2, 1365300, Note_on_c, 0, 69, 0
2, 1365300, Note_on_c, 0, 71, 100
2, 1365360, Note_on_c, 0, 71, 0
2, 1365360, Note_on_c, 0, 72, 100
2, 1365400, Note_on_c, 0, 72, 0
2, 1365400, Note_on_c, 0, 71, 100
2, 1365440, Note_on_c, 0, 71, 0
2, 1365440, Note_on_c, 0, 72, 100
2, 1365480, Note_on_c, 0, 72, 0
2, 1365480, Note_on_c, 0, 71, 100
2, 1365520, Note_on_c, 0, 71, 0
2, 1365520, Note_on_c, 0, 72, 100
2, 1365560, Note_on_c, 0, 72, 0
2, 1365560, Note_on_c, 0, 71, 100
2, 1365900, Note_on_c, 0, 71, 0
2, 1365900, Note_on_c, 0, 69, 100
2, 1365960, Note_on_c, 0, 69, 0
2, 1365960, Note_on_c, 0, 67, 100
2, 1366020, Note_on_c, 0, 67, 0
2, 1366020, Note_on_c, 0, 66, 100
2, 1366080, Note_on_c, 0, 66, 0
2, 1366080, Note_on_c, 0, 67, 100
2, 1366200, Note_on_c, 0, 67, 0
2, 1366200, Note_on_c, 0, 74, 100
2, 1366320, Note_on_c, 0, 74, 0
2, 1366320, Note_on_c, 0, 76, 100
2, 1366440, Note_on_c, 0, 76, 0
2, 1366440, Note_on_c, 0, 78, 100
2, 1366560, Note_on_c, 0, 78, 0
2, 1366560, Note_on_c, 0, 79, 100
2, 1366680, Note_on_c, 0, 79, 0
2, 1366680, Note_on_c, 0, 78, 100
2, 1366800, Note_on_c, 0, 78, 0
2, 1366800, Note_on_c, 0, 79, 100
2, 1366920, Note_on_c, 0, 79, 0
2, 1366920, Note_on_c, 0, 81, 100
2, 1367040, Note_on_c, 0, 81, 0
2, 1367040, Note_on_c, 0, 83, 100
2, 1367340, Note_on_c, 0, 83, 0
2, 1367340, Note_on_c, 0, 81, 100
2, 1367400, Note_on_c, 0, 81, 0
2, 1367400, Note_on_c, 0, 79, 100
2, 1367460, Note_on_c, 0, 79, 0
2, 1367460, Note_on_c, 0, 78, 100
2, 1367520, Note_on_c, 0, 78, 0
2, 1367520, Note_on_c, 0, 79, 100
2, 1367820, Note_on_c, 0, 79, 0
2, 1367820, Note_on_c, 0, 78, 100
2, 1367880, Note_on_c, 0, 78, 0
2, 1367880, Note_on_c, 0, 76, 100
2, 1367940, Note_on_c, 0, 76, 0
2, 1367940, Note_on_c, 0, 75, 100
2, 1368000, Note_on_c, 0, 75, 0
2, 1368000, Note_on_c, 0, 76, 100
2, 1368360, Note_on_c, 0, 76, 0
2, 1368360, Note_on_c, 0, 71, 100
2, 1368480, Note_on_c, 0, 71, 0
2, 1368480, Note_on_c, 0, 73, 100
2, 1368520, Note_on_c, 0, 73, 0
2, 1368520, Note_on_c, 0, 71, 100
2, 1368560, Note_on_c, 0, 71, 0
2, 1368560, Note_on_c, 0, 73, 100
2, 1368840, Note_on_c, 0, 73, 0
2, 1368840, Note_on_c, 0, 74, 100
2, 1368960, Note_on_c, 0, 74, 0
2, 1368960, Note_on_c, 0, 74, 100
2, 1369080, Note_on_c, 0, 74, 0
2, 1369080, Note_on_c, 0, 73, 100
2, 1369260, Note_on_c, 0, 73, 0
2, 1369260, Note_on_c, 0, 76, 100
2, 1369320, Note_on_c, 0, 76, 0
2, 1369320, Note_on_c, 0, 78, 100
2, 1369380, Note_on_c, 0, 78, 0
2, 1369380, Note_on_c, 0, 79, 100
2, 1369440, Note_on_c, 0, 79, 0
2, 1369440, Note_on_c, 0, 81, 100
2, 1369800, Note_on_c, 0, 81, 0
2, 1369800, Note_on_c, 0, 81, 100
2, 1369920, Note_on_c, 0, 81, 0
2, 1369920, Note_on_c, 0, 81, 100
2, 1370700, Note_on_c, 0, 81, 0
2, 1370700, Note_on_c, 0, 81, 100
2, 1370760, Note_on_c, 0, 81, 0
2, 1370760, Note_on_c, 0, 79, 100
2, 1370820, Note_on_c, 0, 79, 0
2, 1370820, Note_on_c, 0, 78, 100
2, 1370880, Note_on_c, 0, 78, 0
2, 1370880, Note_on_c, 0, 79, 100
2, 1371180, Note_on_c, 0, 79, 0
2, 1371180, Note_on_c, 0, 78, 100
2, 1371240, Note_on_c, 0, 78, 0
2, 1371240, Note_on_c, 0, 76, 100
2, 1371300, Note_on_c, 0, 76, 0
2, 1371300, Note_on_c, 0, 75, 100
2, 1371360, Note_on_c, 0, 75, 0
2, 1371360, Note_on_c, 0, 76, 100
2, 1371720, Note_on_c, 0, 76, 0
2, 1371720, Note_on_c, 0, 83, 100
2, 1371840, Note_on_c, 0, 83, 0
2, 1371840, Note_on_c, 0, 76, 100
2, 1371900, Note_on_c, 0, 76, 0
2, 1371900, Note_on_c, 0, 74, 100
2, 1371960, Note_on_c, 0, 74, 0
2, 1371960, Note_on_c, 0, 72, 100
2, 1372020, Note_on_c, 0, 72, 0
2, 1372020, Note_on_c, 0, 74, 100
2, 1372080, Note_on_c, 0, 74, 0
2, 1372080, Note_on_c, 0, 76, 100
2, 1372120, Note_on_c, 0, 76, 0
2, 1372120, Note_on_c, 0, 74, 100
2, 1372160, Note_on_c, 0, 74, 0
2, 1372160, Note_on_c, 0, 76, 100
2, 1372200, Note_on_c, 0, 76, 0
2, 1372200, Note_on_c, 0, 74, 100
2, 1372240, Note_on_c, 0, 74, 0
2, 1372240, Note_on_c, 0, 76, 100
2, 1372280, Note_on_c, 0, 76, 0
2, 1372280, Note_on_c, 0, 74, 100
2, 1372320, Note_on_c, 0, 74, 0
2, 1372320, Note_on_c, 0, 76, 100
2, 1372360, Note_on_c, 0, 76, 0
2, 1372360, Note_on_c, 0, 74, 100
2, 1372560, Note_on_c, 0, 74, 0
2, 1372560, Note_on_c, 0, 73, 100
2, 1372680, Note_on_c, 0, 73, 0
2, 1372680, Note_on_c, 0, 71, 100
2, 1372800, Note_on_c, 0, 71, 0
2, 1372800, Note_on_c, 0, 73, 100
2, 1373100, Note_on_c, 0, 73, 0
2, 1373100, Note_on_c, 0, 74, 100
2, 1373160, Note_on_c, 0, 74, 0
2, 1373160, Note_on_c, 0, 73, 100
2, 1373220, Note_on_c, 0, 73, 0
2, 1373220, Note_on_c, 0, 74, 100
2, 1373280, Note_on_c, 0, 74, 0
2, 1373280, Note_on_c, 0, 76, 100
2, 1373320, Note_on_c, 0, 76, 0
2, 1373320, Note_on_c, 0, 74, 100
2, 1373360, Note_on_c, 0, 74, 0
2, 1373360, Note_on_c, 0, 76, 100
2, 1373400, Note_on_c, 0, 76, 0
2, 1373400, Note_on_c, 0, 74, 100
2, 1373440, Note_on_c, 0, 74, 0
2, 1373440, Note_on_c, 0, 76, 100
2, 1373480, Note_on_c, 0, 76, 0
2, 1373480, Note_on_c, 0, 74, 100
2, 1373520, Note_on_c, 0, 74, 0
2, 1373520, Note_on_c, 0, 76, 100
2, 1373580, Note_on_c, 0, 76, 0
2, 1373580, Note_on_c, 0, 74, 100
2, 1373640, Note_on_c, 0, 74, 0
2, 1373640, Note_on_c, 0, 73, 100
2, 1373700, Note_on_c, 0, 73, 0
2, 1373700, Note_on_c, 0, 74, 100
2, 1373760, Note_on_c, 0, 74, 0
2, 1373760, Note_on_c, 0, 76, 100
2, 1374300, Note_on_c, 0, 76, 0
2, 1374300, Note_on_c, 0, 74, 100
2, 1374360, Note_on_c, 0, 74, 0
2, 1374360, Note_on_c, 0, 73, 100
2, 1374420, Note_on_c, 0, 73, 0
2, 1374420, Note_on_c, 0, 71, 100
2, 1374480, Note_on_c, 0, 71, 0
2, 1374480, Note_on_c, 0, 69, 100
2, 1374540, Note_on_c, 0, 69, 0
2, 1374540, Note_on_c, 0, 67, 100
2, 1374600, Note_on_c, 0, 67, 0
2, 1374600, Note_on_c, 0, 66, 100
2, 1374660, Note_on_c, 0, 66, 0
2, 1374660, Note_on_c, 0, 64, 100
2, 1374720, Note_on_c, 0, 64, 0
2, 1374720, Note_on_c, 0, 62, 100
2, 1375080, Note_on_c, 0, 62, 0
2, 1375080, Note_on_c, 0, 66, 100
2, 1375200, Note_on_c, 0, 66, 0
2, 1375200, Note_on_c, 0, 69, 100
2, 1375260, Note_on_c, 0, 69, 0
2, 1375260, Note_on_c, 0, 67, 100
2, 1375320, Note_on_c, 0, 67, 0
2, 1375320, Note_on_c, 0, 69, 100
2, 1375560, Note_on_c, 0, 69, 0
2, 1375560, Note_on_c, 0, 71, 100
2, 1375680, Note_on_c, 0, 71, 0
2, 1375680, Note_on_c, 0, 72, 100
2, 1376460, Note_on_c, 0, 72, 0
2, 1376460, Note_on_c, 0, 72, 100
2, 1376520, Note_on_c, 0, 72, 0
2, 1376520, Note_on_c, 0, 71, 100
2, 1376580, Note_on_c, 0, 71, 0
2, 1376580, Note_on_c, 0, 69, 100
2, 1376640, Note_on_c, 0, 69, 0
2, 1376640, Note_on_c, 0, 71, 100
2, 1376940, Note_on_c, 0, 71, 0
2, 1376940, Note_on_c, 0, 73, 100
2, 1377000, Note_on_c, 0, 73, 0
2, 1377000, Note_on_c, 0, 74, 100
2, 1377060, Note_on_c, 0, 74, 0
2, 1377060, Note_on_c, 0, 76, 100
2, 1377120, Note_on_c, 0, 76, 0
2, 1377120, Note_on_c, 0, 76, 100
2, 1377180, Note_on_c, 0, 76, 0
2, 1377180, Note_on_c, 0, 74, 100
2, 1377240, Note_on_c, 0, 74, 0
2, 1377240, Note_on_c, 0, 76, 100
2, 1377300, Note_on_c, 0, 76, 0
2, 1377300, Note_on_c, 0, 74, 100
2, 1377420, Note_on_c, 0, 74, 0
2, 1377420, Note_on_c, 0, 73, 100
2, 1377480, Note_on_c, 0, 73, 0
2, 1377480, Note_on_c, 0, 74, 100
2, 1377540, Note_on_c, 0, 74, 0
2, 1377540, Note_on_c, 0, 76, 100
2, 1377600, Note_on_c, 0, 76, 0
2, 1377600, Note_on_c, 0, 69, 100
2, 1377900, Note_on_c, 0, 69, 0
2, 1377900, Note_on_c, 0, 76, 100
2, 1377960, Note_on_c, 0, 76, 0
2, 1377960, Note_on_c, 0, 78, 100
2, 1378020, Note_on_c, 0, 78, 0
2, 1378020, Note_on_c, 0, 79, 100
2, 1378080, Note_on_c, 0, 79, 0
2, 1378080, Note_on_c, 0, 81, 100
2, 1378440, Note_on_c, 0, 81, 0
2, 1378440, Note_on_c, 0, 73, 100
2, 1378560, Note_on_c, 0, 73, 0
2, 1378560, Note_on_c, 0, 74, 100
2, 1379040, Note_on_c, 0, 74, 0
2, 1379040, Note_on_c, 0, 76, 100
2, 1379100, Note_on_c, 0, 76, 0
2, 1379100, Note_on_c, 0, 74, 100
2, 1379160, Note_on_c, 0, 74, 0
2, 1379160, Note_on_c, 0, 73, 100
2, 1379220, Note_on_c, 0, 73, 0
2, 1379220, Note_on_c, 0, 74, 100
2, 1379280, Note_on_c, 0, 74, 0
2, 1379280, Note_on_c, 0, 76, 100
2, 1379520, Note_on_c, 0, 76, 0
2, 1379520, Note_on_c, 0, 78, 100
2, 1379580, Note_on_c, 0, 78, 0
2, 1379580, Note_on_c, 0, 76, 100
2, 1379640, Note_on_c, 0, 76, 0
2, 1379640, Note_on_c, 0, 74, 100
2, 1379700, Note_on_c, 0, 74, 0
2, 1379700, Note_on_c, 0, 76, 100
2, 1379760, Note_on_c, 0, 76, 0
2, 1379760, Note_on_c, 0, 78, 100
2, 1379800, Note_on_c, 0, 78, 0
2, 1379800, Note_on_c, 0, 76, 100
2, 1379840, Note_on_c, 0, 76, 0
2, 1379840, Note_on_c, 0, 78, 100
2, 1379880, Note_on_c, 0, 78, 0
2, 1379880, Note_on_c, 0, 76, 100
2, 1379920, Note_on_c, 0, 76, 0
2, 1379920, Note_on_c, 0, 78, 100
2, 1379960, Note_on_c, 0, 78, 0
2, 1379960, Note_on_c, 0, 76, 100
2, 1380240, Note_on_c, 0, 76, 0
2, 1380240, Note_on_c, 0, 74, 100
2, 1380480, Note_on_c, 0, 74, 0
2, 1380480, Note_on_c, 0, 74, 100
2, 1380720, Note_on_c, 0, 74, 0
2, 1380720, Note_on_c, 0, 81, 100
2, 1380840, Note_on_c, 0, 81, 0
2, 1380840, Note_on_c, 0, 79, 100
2, 1380960, Note_on_c, 0, 79, 0
2, 1380960, Note_on_c, 0, 78, 100
2, 1381080, Note_on_c, 0, 78, 0
2, 1381080, Note_on_c, 0, 76, 100
2, 1381200, Note_on_c, 0, 76, 0
2, 1381200, Note_on_c, 0, 78, 100
2, 1381440, Note_on_c, 0, 78, 0
2, 1381440, Note_on_c, 0, 81, 100
2, 1381500, Note_on_c, 0, 81, 0
2, 1381500, Note_on_c, 0, 79, 100
2, 1381560, Note_on_c, 0, 79, 0
2, 1381560, Note_on_c, 0, 78, 100
2, 1381620, Note_on_c, 0, 78, 0
2, 1381620, Note_on_c, 0, 79, 100
2, 1381680, Note_on_c, 0, 79, 0
2, 1381680, Note_on_c, 0, 81, 100
2, 1381920, Note_on_c, 0, 81, 0
2, 1381920, Note_on_c, 0, 74, 100
2, 1382040, Note_on_c, 0, 74, 0
2, 1382040, Note_on_c, 0, 78, 100
2, 1382160, Note_on_c, 0, 78, 0
2, 1382160, Note_on_c, 0, 76, 100
2, 1382280, Note_on_c, 0, 76, 0
2, 1382280, Note_on_c, 0, 79, 100
2, 1382400, Note_on_c, 0, 79, 0
2, 1382400, Note_on_c, 0, 78, 100
2, 1382520, Note_on_c, 0, 78, 0
2, 1382520, Note_on_c, 0, 81, 100
2, 1382640, Note_on_c, 0, 81, 0
2, 1382640, Note_on_c, 0, 79, 100
2, 1382880, Note_on_c, 0, 79, 0
2, 1382880, Note_on_c, 0, 78, 100
2, 1383120, Note_on_c, 0, 78, 0
2, 1383120, Note_on_c, 0, 79, 100
2, 1383360, Note_on_c, 0, 79, 0
2, 1383360, Note_on_c, 0, 76, 100
2, 1383600, Note_on_c, 0, 76, 0
2, 1383600, Note_on_c, 0, 75, 100
2, 1383840, Note_on_c, 0, 75, 0
2, 1383840, Note_on_c, 0, 76, 100
2, 1384080, Note_on_c, 0, 76, 0
2, 1384080, Note_on_c, 0, 81, 100
2, 1385040, Note_on_c, 0, 81, 0
2, 1385040, Note_on_c, 0, 79, 100
2, 1385160, Note_on_c, 0, 79, 0
2, 1385160, Note_on_c, 0, 76, 100
2, 1385280, Note_on_c, 0, 76, 0
2, 1385280, Note_on_c, 0, 78, 100
2, 1385400, Note_on_c, 0, 78, 0
2, 1385400, Note_on_c, 0, 75, 100
2, 1385520, Note_on_c, 0, 75, 0
2, 1385520, Note_on_c, 0, 83, 100
2, 1386360, Note_on_c, 0, 83, 0
2, 1386360, Note_on_c, 0, 84, 100
2, 1386480, Note_on_c, 0, 84, 0
2, 1386480, Note_on_c, 0, 83, 100
2, 1386600, Note_on_c, 0, 83, 0
2, 1386600, Note_on_c, 0, 81, 100
2, 1386720, Note_on_c, 0, 81, 0
2, 1386720, Note_on_c, 0, 79, 100
2, 1386840, Note_on_c, 0, 79, 0
2, 1386840, Note_on_c, 0, 78, 100
2, 1386960, Note_on_c, 0, 78, 0
2, 1386960, Note_on_c, 0, 79, 100
2, 1387080, Note_on_c, 0, 79, 0
2, 1387080, Note_on_c, 0, 76, 100
2, 1387200, Note_on_c, 0, 76, 0
2, 1387200, Note_on_c, 0, 81, 100
2, 1387320, Note_on_c, 0, 81, 0
2, 1387320, Note_on_c, 0, 76, 100
2, 1387440, Note_on_c, 0, 76, 0
2, 1387440, Note_on_c, 0, 83, 100
2, 1387560, Note_on_c, 0, 83, 0
2, 1387560, Note_on_c, 0, 76, 100
2, 1387680, Note_on_c, 0, 76, 0
2, 1387680, Note_on_c, 0, 84, 100
2, 1387800, Note_on_c, 0, 84, 0
2, 1387800, Note_on_c, 0, 83, 100
2, 1387920, Note_on_c, 0, 83, 0
2, 1387920, Note_on_c, 0, 81, 100
2, 1388040, Note_on_c, 0, 81, 0
2, 1388040, Note_on_c, 0, 79, 100
2, 1388160, Note_on_c, 0, 79, 0
2, 1388160, Note_on_c, 0, 78, 100
2, 1388280, Note_on_c, 0, 78, 0
2, 1388280, Note_on_c, 0, 76, 100
2, 1388400, Note_on_c, 0, 76, 0
2, 1388400, Note_on_c, 0, 74, 100
2, 1388520, Note_on_c, 0, 74, 0
2, 1388520, Note_on_c, 0, 78, 100
2, 1388640, Note_on_c, 0, 78, 0
2, 1388640, Note_on_c, 0, 76, 100
2, 1388760, Note_on_c, 0, 76, 0
2, 1388760, Note_on_c, 0, 79, 100
2, 1388880, Note_on_c, 0, 79, 0
2, 1388880, Note_on_c, 0, 78, 100
2, 1389000, Note_on_c, 0, 78, 0
2, 1389000, Note_on_c, 0, 81, 100
2, 1389120, Note_on_c, 0, 81, 0
2, 1389120, Note_on_c, 0, 79, 100
2, 1389240, Note_on_c, 0, 79, 0
2, 1389240, Note_on_c, 0, 81, 100
2, 1389360, Note_on_c, 0, 81, 0
2, 1389360, Note_on_c, 0, 83, 100
2, 1389420, Note_on_c, 0, 83, 0
2, 1389420, Note_on_c, 0, 81, 100
2, 1389480, Note_on_c, 0, 81, 0
2, 1389480, Note_on_c, 0, 83, 100
2, 1389540, Note_on_c, 0, 83, 0
2, 1389540, Note_on_c, 0, 81, 100
2, 1389600, Note_on_c, 0, 81, 0
2, 1389600, Note_on_c, 0, 83, 100
2, 1389660, Note_on_c, 0, 83, 0
2, 1389660, Note_on_c, 0, 81, 100
2, 1389720, Note_on_c, 0, 81, 0
2, 1389720, Note_on_c, 0, 79, 100
2, 1389780, Note_on_c, 0, 79, 0
2, 1389780, Note_on_c, 0, 81, 100
2, 1389840, Note_on_c, 0, 81, 0
2, 1389840, Note_on_c, 0, 83, 100
2, 1390320, Note_on_c, 0, 83, 0
2, 1390320, Note_on_c, 0, 79, 100
2, 1390560, Note_on_c, 0, 79, 0
2, 1390560, Note_on_c, 0, 76, 100
2, 1390800, Note_on_c, 0, 76, 0
2, 1390800, Note_on_c, 0, 78, 100
2, 1391040, Note_on_c, 0, 78, 0
2, 1391040, Note_on_c, 0, 75, 100
2, 1391280, Note_on_c, 0, 75, 0
2, 1391280, Note_on_c, 0, 76, 100
2, 1391760, Note_on_c, 0, 76, 0
2, 1392240, Note_on_c, 0, 76, 100
2, 1392360, Note_on_c, 0, 76, 0
2, 1392360, Note_on_c, 0, 74, 100
2, 1392480, Note_on_c, 0, 74, 0
2, 1392480, Note_on_c, 0, 72, 100
2, 1392600, Note_on_c, 0, 72, 0
2, 1392600, Note_on_c, 0, 71, 100
2, 1392720, Note_on_c, 0, 71, 0
2, 1392720, Note_on_c, 0, 72, 100
2, 1392960, Note_on_c, 0, 72, 0
2, 1392960, Note_on_c, 0, 74, 100
2, 1393200, Note_on_c, 0, 74, 0
2, 1393200, Note_on_c, 0, 76, 100
2, 1393440, Note_on_c, 0, 76, 0
2, 1393440, Note_on_c, 0, 69, 100
2, 1393560, Note_on_c, 0, 69, 0
2, 1393560, Note_on_c, 0, 72, 100
2, 1393680, Note_on_c, 0, 72, 0
2, 1393680, Note_on_c, 0, 71, 100
2, 1393800, Note_on_c, 0, 71, 0
2, 1393800, Note_on_c, 0, 74, 100
2, 1393920, Note_on_c, 0, 74, 0
2, 1393920, Note_on_c, 0, 73, 100
2, 1394040, Note_on_c, 0, 73, 0
2, 1394040, Note_on_c, 0, 76, 100
2, 1394160, Note_on_c, 0, 76, 0
2, 1394160, Note_on_c, 0, 74, 100
2, 1394220, Note_on_c, 0, 74, 0
2, 1394220, Note_on_c, 0, 76, 100
2, 1394280, Note_on_c, 0, 76, 0
2, 1394280, Note_on_c, 0, 78, 100
2, 1394400, Note_on_c, 0, 78, 0
2, 1394400, Note_on_c, 0, 79, 100
2, 1394460, Note_on_c, 0, 79, 0
2, 1394460, Note_on_c, 0, 78, 100
2, 1394520, Note_on_c, 0, 78, 0
2, 1394520, Note_on_c, 0, 76, 100
2, 1394580, Note_on_c, 0, 76, 0
2, 1394580, Note_on_c, 0, 78, 100
2, 1394640, Note_on_c, 0, 78, 0
2, 1394640, Note_on_c, 0, 79, 100
2, 1394670, Note_on_c, 0, 79, 0
2, 1394670, Note_on_c, 0, 78, 100
2, 1394700, Note_on_c, 0, 78, 0
2, 1394700, Note_on_c, 0, 79, 100
2, 1394730, Note_on_c, 0, 79, 0
2, 1394730, Note_on_c, 0, 78, 100
2, 1394760, Note_on_c, 0, 78, 0
2, 1394760, Note_on_c, 0, 76, 100
2, 1394820, Note_on_c, 0, 76, 0
2, 1394820, Note_on_c, 0, 78, 100
2, 1394880, Note_on_c, 0, 78, 0
2, 1394880, Note_on_c, 0, 79, 100
2, 1395120, Note_on_c, 0, 79, 0
2, 1395120, Note_on_c, 0, 78, 100
2, 1395240, Note_on_c, 0, 78, 0
2, 1395240, Note_on_c, 0, 76, 100
2, 1395360, Note_on_c, 0, 76, 0
2, 1395360, Note_on_c, 0, 74, 100
2, 1395480, Note_on_c, 0, 74, 0
2, 1395480, Note_on_c, 0, 72, 100
2, 1395600, Note_on_c, 0, 72, 0
2, 1395600, Note_on_c, 0, 71, 100
2, 1395720, Note_on_c, 0, 71, 0
2, 1395720, Note_on_c, 0, 74, 100
2, 1395840, Note_on_c, 0, 74, 0
2, 1395840, Note_on_c, 0, 72, 100
2, 1395960, Note_on_c, 0, 72, 0
2, 1395960, Note_on_c, 0, 76, 100
2, 1396080, Note_on_c, 0, 76, 0
2, 1396080, Note_on_c, 0, 74, 100
2, 1396200, Note_on_c, 0, 74, 0
2, 1396200, Note_on_c, 0, 77, 100
2, 1396320, Note_on_c, 0, 77, 0
2, 1396320, Note_on_c, 0, 76, 100
2, 1397160, Note_on_c, 0, 76, 0
2, 1397160, Note_on_c, 0, 74, 100
2, 1397280, Note_on_c, 0, 74, 0
2, 1397280, Note_on_c, 0, 72, 100
2, 1397400, Note_on_c, 0, 72, 0
2, 1397400, Note_on_c, 0, 71, 100
2, 1397520, Note_on_c, 0, 71, 0
2, 1397520, Note_on_c, 0, 72, 100
2, 1397640, Note_on_c, 0, 72, 0
2, 1397640, Note_on_c, 0, 78, 100
2, 1397760, Note_on_c, 0, 78, 0
2, 1397760, Note_on_c, 0, 81, 100
2, 1397880, Note_on_c, 0, 81, 0
2, 1397880, Note_on_c, 0, 74, 100
2, 1398000, Note_on_c, 0, 74, 0
2, 1398000, Note_on_c, 0, 72, 100
2, 1398120, Note_on_c, 0, 72, 0
2, 1398120, Note_on_c, 0, 71, 100
2, 1398240, Note_on_c, 0, 71, 0
2, 1398240, Note_on_c, 0, 72, 100
2, 1398360, Note_on_c, 0, 72, 0
2, 1398360, Note_on_c, 0, 69, 100
2, 1398480, Note_on_c, 0, 69, 0
2, 1398480, Note_on_c, 0, 71, 100
2, 1398600, Note_on_c, 0, 71, 0
2, 1398600, Note_on_c, 0, 76, 100
2, 1398720, Note_on_c, 0, 76, 0
2, 1398720, Note_on_c, 0, 74, 100
2, 1398840, Note_on_c, 0, 74, 0
2, 1398840, Note_on_c, 0, 72, 100
2, 1398960, Note_on_c, 0, 72, 0
2, 1398960, Note_on_c, 0, 74, 100
2, 1399080, Note_on_c, 0, 74, 0
2, 1399080, Note_on_c, 0, 80, 100
2, 1399200, Note_on_c, 0, 80, 0
2, 1399200, Note_on_c, 0, 83, 100
2, 1399320, Note_on_c, 0, 83, 0
2, 1399320, Note_on_c, 0, 76, 100
2, 1399440, Note_on_c, 0, 76, 0
2, 1399440, Note_on_c, 0, 74, 100
2, 1399560, Note_on_c, 0, 74, 0
2, 1399560, Note_on_c, 0, 72, 100
2, 1399680, Note_on_c, 0, 72, 0
2, 1399680, Note_on_c, 0, 74, 100
2, 1399800, Note_on_c, 0, 74, 0
2, 1399800, Note_on_c, 0, 71, 100
2, 1399920, Note_on_c, 0, 71, 0
2, 1399920, Note_on_c, 0, 72, 100
2, 1400760, Note_on_c, 0, 72, 0
2, 1400760, Note_on_c, 0, 71, 100
2, 1400880, Note_on_c, 0, 71, 0
2, 1400880, Note_on_c, 0, 69, 100
2, 1401000, Note_on_c, 0, 69, 0
2, 1401000, Note_on_c, 0, 71, 100
2, 1401120, Note_on_c, 0, 71, 0
2, 1401120, Note_on_c, 0, 72, 100
2, 1401240, Note_on_c, 0, 72, 0
2, 1401240, Note_on_c, 0, 69, 100
2, 1401360, Note_on_c, 0, 69, 0
2, 1401360, Note_on_c, 0, 74, 100
2, 1401840, Note_on_c, 0, 74, 0
2, 1401840, Note_on_c, 0, 71, 100
2, 1402080, Note_on_c, 0, 71, 0
2, 1402080, Note_on_c, 0, 67, 100
2, 1402320, Note_on_c, 0, 67, 0
2, 1402320, Note_on_c, 0, 69, 100
2, 1402560, Note_on_c, 0, 69, 0
2, 1402560, Note_on_c, 0, 66, 100
2, 1402800, Note_on_c, 0, 66, 0
2, 1402800, Note_on_c, 0, 67, 100
2, 1403280, Note_on_c, 0, 67, 0
2, 1403760, Note_on_c, 0, 81, 100
2, 1403880, Note_on_c, 0, 81, 0
2, 1403880, Note_on_c, 0, 79, 100
2, 1404000, Note_on_c, 0, 79, 0
2, 1404000, Note_on_c, 0, 78, 100
2, 1404120, Note_on_c, 0, 78, 0
2, 1404120, Note_on_c, 0, 76, 100
2, 1404240, Note_on_c, 0, 76, 0
2, 1404240, Note_on_c, 0, 78, 100
2, 1404480, Note_on_c, 0, 78, 0
2, 1404480, Note_on_c, 0, 81, 100
2, 1404540, Note_on_c, 0, 81, 0
2, 1404540, Note_on_c, 0, 79, 100
2, 1404600, Note_on_c, 0, 79, 0
2, 1404600, Note_on_c, 0, 78, 100
2, 1404660, Note_on_c, 0, 78, 0
2, 1404660, Note_on_c, 0, 79, 100
2, 1404720, Note_on_c, 0, 79, 0
2, 1404720, Note_on_c, 0, 81, 100
2, 1404960, Note_on_c, 0, 81, 0
2, 1404960, Note_on_c, 0, 74, 100
2, 1405080, Note_on_c, 0, 74, 0
2, 1405080, Note_on_c, 0, 78, 100
2, 1405200, Note_on_c, 0, 78, 0
2, 1405200, Note_on_c, 0, 76, 100
2, 1405320, Note_on_c, 0, 76, 0
2, 1405320, Note_on_c, 0, 79, 100
2, 1405440, Note_on_c, 0, 79, 0
2, 1405440, Note_on_c, 0, 78, 100
2, 1405560, Note_on_c, 0, 78, 0
2, 1405560, Note_on_c, 0, 81, 100
2, 1405680, Note_on_c, 0, 81, 0
2, 1405680, Note_on_c, 0, 79, 100
2, 1405920, Note_on_c, 0, 79, 0
2, 1405920, Note_on_c, 0, 78, 100
2, 1406160, Note_on_c, 0, 78, 0
2, 1406160, Note_on_c, 0, 79, 100
2, 1406400, Note_on_c, 0, 79, 0
2, 1406400, Note_on_c, 0, 76, 100
2, 1406640, Note_on_c, 0, 76, 0
2, 1406640, Note_on_c, 0, 75, 100
2, 1406880, Note_on_c, 0, 75, 0
2, 1406880, Note_on_c, 0, 76, 100
2, 1407120, Note_on_c, 0, 76, 0
2, 1407120, Note_on_c, 0, 81, 100
2, 1408080, Note_on_c, 0, 81, 0
2, 1408080, Note_on_c, 0, 79, 100
2, 1408200, Note_on_c, 0, 79, 0
2, 1408200, Note_on_c, 0, 76, 100
2, 1408320, Note_on_c, 0, 76, 0
2, 1408320, Note_on_c, 0, 78, 100
2, 1408440, Note_on_c, 0, 78, 0
2, 1408440, Note_on_c, 0, 75, 100
2, 1408560, Note_on_c, 0, 75, 0
2, 1408560, Note_on_c, 0, 83, 100
2, 1409400, Note_on_c, 0, 83, 0
2, 1409400, Note_on_c, 0, 84, 100
2, 1409520, Note_on_c, 0, 84, 0
2, 1409520, Note_on_c, 0, 83, 100
2, 1409640, Note_on_c, 0, 83, 0
2, 1409640, Note_on_c, 0, 81, 100
2, 1409760, Note_on_c, 0, 81, 0
2, 1409760, Note_on_c, 0, 79, 100
2, 1409880, Note_on_c, 0, 79, 0
2, 1409880, Note_on_c, 0, 78, 100
2, 1410000, Note_on_c, 0, 78, 0
2, 1410000, Note_on_c, 0, 79, 100
2, 1410120, Note_on_c, 0, 79, 0
2, 1410120, Note_on_c, 0, 76, 100
2, 1410240, Note_on_c, 0, 76, 0
2, 1410240, Note_on_c, 0, 81, 100
2, 1410360, Note_on_c, 0, 81, 0
2, 1410360, Note_on_c, 0, 76, 100
2, 1410480, Note_on_c, 0, 76, 0
2, 1410480, Note_on_c, 0, 83, 100
2, 1410600, Note_on_c, 0, 83, 0
2, 1410600, Note_on_c, 0, 76, 100
2, 1410720, Note_on_c, 0, 76, 0
2, 1410720, Note_on_c, 0, 84, 100
2, 1410840, Note_on_c, 0, 84, 0
2, 1410840, Note_on_c, 0, 83, 100
2, 1410960, Note_on_c, 0, 83, 0
2, 1410960, Note_on_c, 0, 81, 100
2, 1411080, Note_on_c, 0, 81, 0
2, 1411080, Note_on_c, 0, 79, 100
2, 1411200, Note_on_c, 0, 79, 0
2, 1411200, Note_on_c, 0, 78, 100
2, 1411320, Note_on_c, 0, 78, 0
2, 1411320, Note_on_c, 0, 76, 100
2, 1411440, Note_on_c, 0, 76, 0
2, 1411440, Note_on_c, 0, 74, 100
2, 1411560, Note_on_c, 0, 74, 0
2, 1411560, Note_on_c, 0, 78, 100
2, 1411680, Note_on_c, 0, 78, 0
2, 1411680, Note_on_c, 0, 76, 100
2, 1411800, Note_on_c, 0, 76, 0
2, 1411800, Note_on_c, 0, 79, 100
2, 1411920, Note_on_c, 0, 79, 0
2, 1411920, Note_on_c, 0, 78, 100
2, 1412040, Note_on_c, 0, 78, 0
2, 1412040, Note_on_c, 0, 81, 100
2, 1412160, Note_on_c, 0, 81, 0
2, 1412160, Note_on_c, 0, 79, 100
2, 1412280, Note_on_c, 0, 79, 0
2, 1412280, Note_on_c, 0, 81, 100
2, 1412400, Note_on_c, 0, 81, 0
2, 1412400, Note_on_c, 0, 83, 100
2, 1412460, Note_on_c, 0, 83, 0
2, 1412460, Note_on_c, 0, 81, 100
2, 1412520, Note_on_c, 0, 81, 0
2, 1412520, Note_on_c, 0, 83, 100
2, 1412580, Note_on_c, 0, 83, 0
2, 1412580, Note_on_c, 0, 81, 100
2, 1412640, Note_on_c, 0, 81, 0
2, 1412640, Note_on_c, 0, 83, 100
2, 1412700, Note_on_c, 0, 83, 0
2, 1412700, Note_on_c, 0, 81, 100
2, 1412760, Note_on_c, 0, 81, 0
2, 1412760, Note_on_c, 0, 79, 100
2, 1412820, Note_on_c, 0, 79, 0
2, 1412820, Note_on_c, 0, 81, 100
2, 1412880, Note_on_c, 0, 81, 0
2, 1412880, Note_on_c, 0, 83, 100
2, 1413360, Note_on_c, 0, 83, 0
2, 1413360, Note_on_c, 0, 79, 100
2, 1413600, Note_on_c, 0, 79, 0
2, 1413600, Note_on_c, 0, 76, 100
2, 1413840, Note_on_c, 0, 76, 0
2, 1413840, Note_on_c, 0, 78, 100
2, 1414080, Note_on_c, 0, 78, 0
2, 1414080, Note_on_c, 0, 75, 100
2, 1414320, Note_on_c, 0, 75, 0
2, 1414320, Note_on_c, 0, 76, 100
2, 1414800, Note_on_c, 0, 76, 0
2, 1415280, Note_on_c, 0, 76, 100
2, 1415400, Note_on_c, 0, 76, 0
2, 1415400, Note_on_c, 0, 74, 100
2, 1415520, Note_on_c, 0, 74, 0
2, 1415520, Note_on_c, 0, 72, 100
2, 1415640, Note_on_c, 0, 72, 0
2, 1415640, Note_on_c, 0, 71, 100
2, 1415760, Note_on_c, 0, 71, 0
2, 1415760, Note_on_c, 0, 72, 100
2, 1416000, Note_on_c, 0, 72, 0
2, 1416000, Note_on_c, 0, 74, 100
2, 1416240, Note_on_c, 0, 74, 0
2, 1416240, Note_on_c, 0, 76, 100
2, 1416480, Note_on_c, 0, 76, 0
2, 1416480, Note_on_c, 0, 69, 100
2, 1416600, Note_on_c, 0, 69, 0
2, 1416600, Note_on_c, 0, 72, 100
2, 1416720, Note_on_c, 0, 72, 0
2, 1416720, Note_on_c, 0, 71, 100
2, 1416840, Note_on_c, 0, 71, 0
2, 1416840, Note_on_c, 0, 74, 100
2, 1416960, Note_on_c, 0, 74, 0
2, 1416960, Note_on_c, 0, 73, 100
2, 1417080, Note_on_c, 0, 73, 0
2, 1417080, Note_on_c, 0, 76, 100
2, 1417200, Note_on_c, 0, 76, 0
2, 1417200, Note_on_c, 0, 74, 100
2, 1417260, Note_on_c, 0, 74, 0
2, 1417260, Note_on_c, 0, 76, 100
2, 1417320, Note_on_c, 0, 76, 0
2, 1417320, Note_on_c, 0, 78, 100
2, 1417440, Note_on_c, 0, 78, 0
2, 1417440, Note_on_c, 0, 79, 100
2, 1417500, Note_on_c, 0, 79, 0
2, 1417500, Note_on_c, 0, 78, 100
2, 1417560, Note_on_c, 0, 78, 0
2, 1417560, Note_on_c, 0, 76, 100
2, 1417620, Note_on_c, 0, 76, 0
2, 1417620, Note_on_c, 0, 78, 100
2, 1417680, Note_on_c, 0, 78, 0
2, 1417680, Note_on_c, 0, 79, 100
2, 1417710, Note_on_c, 0, 79, 0
2, 1417710, Note_on_c, 0, 78, 100
2, 1417740, Note_on_c, 0, 78, 0
2, 1417740, Note_on_c, 0, 79, 100
2, 1417770, Note_on_c, 0, 79, 0
2, 1417770, Note_on_c, 0, 78, 100
2, 1417800, Note_on_c, 0, 78, 0
2, 1417800, Note_on_c, 0, 76, 100
2, 1417860, Note_on_c, 0, 76, 0
2, 1417860, Note_on_c, 0, 78, 100
2, 1417920, Note_on_c, 0, 78, 0
2, 1417920, Note_on_c, 0, 79, 100
2, 1418160, Note_on_c, 0, 79, 0
2, 1418160, Note_on_c, 0, 78, 100
2, 1418280, Note_on_c, 0, 78, 0
2, 1418280, Note_on_c, 0, 76, 100
2, 1418400, Note_on_c, 0, 76, 0
2, 1418400, Note_on_c, 0, 74, 100
2, 1418520, Note_on_c, 0, 74, 0
2, 1418520, Note_on_c, 0, 72, 100
2, 1418640, Note_on_c, 0, 72, 0
2, 1418640, Note_on_c, 0, 71, 100
2, 1418760, Note_on_c, 0, 71, 0
2, 1418760, Note_on_c, 0, 74, 100
2, 1418880, Note_on_c, 0, 74, 0
2, 1418880, Note_on_c, 0, 72, 100
2, 1419000, Note_on_c, 0, 72, 0
2, 1419000, Note_on_c, 0, 76, 100
2, 1419120, Note_on_c, 0, 76, 0
2, 1419120, Note_on_c, 0, 74, 100
2, 1419240, Note_on_c, 0, 74, 0
2, 1419240, Note_on_c, 0, 77, 100
2, 1419360, Note_on_c, 0, 77, 0
2, 1419360, Note_on_c, 0, 76, 100
2, 1420200, Note_on_c, 0, 76, 0
2, 1420200, Note_on_c, 0, 74, 100
2, 1420320, Note_on_c, 0, 74, 0
2, 1420320, Note_on_c, 0, 72, 100
2, 1420440, Note_on_c, 0, 72, 0
2, 1420440, Note_on_c, 0, 71, 100
2, 1420560, Note_on_c, 0, 71, 0
2, 1420560, Note_on_c, 0, 72, 100
2, 1420680, Note_on_c, 0, 72, 0
2, 1420680, Note_on_c, 0, 78, 100
2, 1420800, Note_on_c, 0, 78, 0
2, 1420800, Note_on_c, 0, 81, 100
2, 1420920, Note_on_c, 0, 81, 0
2, 1420920, Note_on_c, 0, 74, 100
2, 1421040, Note_on_c, 0, 74, 0
2, 1421040, Note_on_c, 0, 72, 100
2, 1421160, Note_on_c, 0, 72, 0
2, 1421160, Note_on_c, 0, 71, 100
2, 1421280, Note_on_c, 0, 71, 0
2, 1421280, Note_on_c, 0, 72, 100
2, 1421400, Note_on_c, 0, 72, 0
2, 1421400, Note_on_c, 0, 69, 100
2, 1421520, Note_on_c, 0, 69, 0
2, 1421520, Note_on_c, 0, 71, 100
2, 1421640, Note_on_c, 0, 71, 0
2, 1421640, Note_on_c, 0, 76, 100
2, 1421760, Note_on_c, 0, 76, 0
2, 1421760, Note_on_c, 0, 74, 100
2, 1421880, Note_on_c, 0, 74, 0
2, 1421880, Note_on_c, 0, 72, 100
2, 1422000, Note_on_c, 0, 72, 0
2, 1422000, Note_on_c, 0, 74, 100
2, 1422120, Note_on_c, 0, 74, 0
2, 1422120, Note_on_c, 0, 80, 100
2, 1422240, Note_on_c, 0, 80, 0
2, 1422240, Note_on_c, 0, 83, 100
2, 1422360, Note_on_c, 0, 83, 0
2, 1422360, Note_on_c, 0, 76, 100
2, 1422480, Note_on_c, 0, 76, 0
2, 1422480, Note_on_c, 0, 74, 100
2, 1422600, Note_on_c, 0, 74, 0
2, 1422600, Note_on_c, 0, 72, 100
2, 1422720, Note_on_c, 0, 72, 0
2, 1422720, Note_on_c, 0, 74, 100
2, 1422840, Note_on_c, 0, 74, 0
2, 1422840, Note_on_c, 0, 71, 100
2, 1422960, Note_on_c, 0, 71, 0
2, 1422960, Note_on_c, 0, 72, 100
2, 1423800, Note_on_c, 0, 72, 0
2, 1423800, Note_on_c, 0, 71, 100
2, 1423920, Note_on_c, 0, 71, 0
2, 1423920, Note_on_c, 0, 69, 100
2, 1424040, Note_on_c, 0, 69, 0
2, 1424040, Note_on_c, 0, 71, 100
2, 1424160, Note_on_c, 0, 71, 0
2, 1424160, Note_on_c, 0, 72, 100
2, 1424280, Note_on_c, 0, 72, 0
2, 1424280, Note_on_c, 0, 69, 100
2, 1424400, Note_on_c, 0, 69, 0
2, 1424400, Note_on_c, 0, 74, 100
2, 1424880, Note_on_c, 0, 74, 0
2, 1424880, Note_on_c, 0, 71, 100
2, 1425120, Note_on_c, 0, 71, 0
2, 1425120, Note_on_c, 0, 67, 100
2, 1425360, Note_on_c, 0, 67, 0
2, 1425360, Note_on_c, 0, 69, 100
2, 1425600, Note_on_c, 0, 69, 0
2, 1425600, Note_on_c, 0, 66, 100
2, 1425840, Note_on_c, 0, 66, 0
2, 1425840, Note_on_c, 0, 67, 100
2, 1427760, Note_on_c, 0, 67, 0
2, 1851120, Note_on_c, 0, 74, 100
2, 1852560, Note_on_c, 0, 74, 0
2, 1852560, Note_on_c, 0, 72, 100
2, 1852800, Note_on_c, 0, 72, 0
2, 1852800, Note_on_c, 0, 71, 100
2, 1853040, Note_on_c, 0, 71, 0
2, 1853040, Note_on_c, 0, 72, 100
2, 1853520, Note_on_c, 0, 72, 0
2, 1853520, Note_on_c, 0, 76, 100
2, 1854000, Note_on_c, 0, 76, 0
2, 1854000, Note_on_c, 0, 69, 100
2, 1854480, Note_on_c, 0, 69, 0
2, 1854480, Note_on_c, 0, 74, 100
2, 1855440, Note_on_c, 0, 74, 0
2, 1855440, Note_on_c, 0, 72, 100
2, 1856400, Note_on_c, 0, 72, 0
2, 1856400, Note_on_c, 0, 71, 100
2, 1856640, Note_on_c, 0, 71, 0
2, 1856640, Note_on_c, 0, 69, 100
2, 1856880, Note_on_c, 0, 69, 0
2, 1856880, Note_on_c, 0, 71, 100
2, 1858320, Note_on_c, 0, 71, 0
2, 1858320, Note_on_c, 0, 71, 100
2, 1858560, Note_on_c, 0, 71, 0
2, 1858560, Note_on_c, 0, 69, 100
2, 1858800, Note_on_c, 0, 69, 0
2, 1858800, Note_on_c, 0, 71, 100
2, 1859280, Note_on_c, 0, 71, 0
2, 1859280, Note_on_c, 0, 76, 100
2, 1859760, Note_on_c, 0, 76, 0
2, 1859760, Note_on_c, 0, 73, 100
2, 1860240, Note_on_c, 0, 73, 0
2, 1860240, Note_on_c, 0, 81, 100
2, 1861200, Note_on_c, 0, 81, 0
2, 1861200, Note_on_c, 0, 79, 100
2, 1861440, Note_on_c, 0, 79, 0
2, 1861440, Note_on_c, 0, 78, 100
2, 1861680, Note_on_c, 0, 78, 0
2, 1861680, Note_on_c, 0, 81, 100
2, 1861840, Note_on_c, 0, 81, 0
2, 1861840, Note_on_c, 0, 79, 100
2, 1862000, Note_on_c, 0, 79, 0
2, 1862000, Note_on_c, 0, 81, 100
2, 1862160, Note_on_c, 0, 81, 0
2, 1862160, Note_on_c, 0, 79, 100
2, 1862320, Note_on_c, 0, 79, 0
2, 1862320, Note_on_c, 0, 81, 100
2, 1862480, Note_on_c, 0, 81, 0
2, 1862480, Note_on_c, 0, 79, 100
2, 1862640, Note_on_c, 0, 79, 0
2, 1862640, Note_on_c, 0, 81, 100
2, 1862800, Note_on_c, 0, 81, 0
2, 1862800, Note_on_c, 0, 79, 100
2, 1862960, Note_on_c, 0, 79, 0
2, 1862960, Note_on_c, 0, 81, 100
2, 1863120, Note_on_c, 0, 81, 0
2, 1863120, Note_on_c, 0, 79, 100
2, 1863280, Note_on_c, 0, 79, 0
2, 1863280, Note_on_c, 0, 81, 100
2, 1863440, Note_on_c, 0, 81, 0
2, 1863440, Note_on_c, 0, 79, 100
2, 1863600, Note_on_c, 0, 79, 0
2, 1863600, Note_on_c, 0, 81, 100
2, 1863760, Note_on_c, 0, 81, 0
2, 1863760, Note_on_c, 0, 79, 100
2, 1863920, Note_on_c, 0, 79, 0
2, 1863920, Note_on_c, 0, 81, 100
2, 1864080, Note_on_c, 0, 81, 0
2, 1864080, Note_on_c, 0, 79, 100
2, 1864240, Note_on_c, 0, 79, 0
2, 1864240, Note_on_c, 0, 81, 100
2, 1864400, Note_on_c, 0, 81, 0
2, 1864400, Note_on_c, 0, 79, 100
2, 1864560, Note_on_c, 0, 79, 0
2, 1864560, Note_on_c, 0, 81, 100
2, 1864680, Note_on_c, 0, 81, 0
2, 1864680, Note_on_c, 0, 79, 100
2, 1864800, Note_on_c, 0, 79, 0
2, 1864800, Note_on_c, 0, 81, 100
2, 1864920, Note_on_c, 0, 81, 0
2, 1864920, Note_on_c, 0, 79, 100
2, 1865040, Note_on_c, 0, 79, 0
2, 1865040, Note_on_c, 0, 81, 100
2, 1865160, Note_on_c, 0, 81, 0
2, 1865160, Note_on_c, 0, 79, 100
2, 1865280, Note_on_c, 0, 79, 0
2, 1865280, Note_on_c, 0, 81, 100
2, 1865400, Note_on_c, 0, 81, 0
2, 1865400, Note_on_c, 0, 79, 100
2, 1865520, Note_on_c, 0, 79, 0
2, 1865520, Note_on_c, 0, 81, 100
2, 1865640, Note_on_c, 0, 81, 0
2, 1865640, Note_on_c, 0, 79, 100
2, 1865760, Note_on_c, 0, 79, 0
2, 1865760, Note_on_c, 0, 81, 100
2, 1865880, Note_on_c, 0, 81, 0
2, 1865880, Note_on_c, 0, 79, 100
2, 1866000, Note_on_c, 0, 79, 0
2, 1866000, Note_on_c, 0, 78, 100
2, 1866240, Note_on_c, 0, 78, 0
2, 1866240, Note_on_c, 0, 76, 100
2, 1866480, Note_on_c, 0, 76, 0
2, 1866480, Note_on_c, 0, 78, 100
2, 1866960, Note_on_c, 0, 78, 0
2, 1866960, Note_on_c, 0, 81, 100
2, 1867440, Note_on_c, 0, 81, 0
2, 1867440, Note_on_c, 0, 74, 100
2, 1868400, Note_on_c, 0, 74, 0
2, 1868400, Note_on_c, 0, 79, 100
2, 1869840, Note_on_c, 0, 79, 0
2, 1869840, Note_on_c, 0, 78, 100
2, 1870320, Note_on_c, 0, 78, 0
2, 1870320, Note_on_c, 0, 76, 100
2, 1871280, Note_on_c, 0, 76, 0
2, 1871280, Note_on_c, 0, 74, 100
2, 1873200, Note_on_c, 0, 74, 0
2, 1881840, Note_on_c, 0, 74, 100
2, 1883280, Note_on_c, 0, 74, 0
2, 1883280, Note_on_c, 0, 72, 100
2, 1883520, Note_on_c, 0, 72, 0
2, 1883520, Note_on_c, 0, 71, 100
2, 1883760, Note_on_c, 0, 71, 0
2, 1883760, Note_on_c, 0, 72, 100
2, 1884240, Note_on_c, 0, 72, 0
2, 1884240, Note_on_c, 0, 76, 100
2, 1884720, Note_on_c, 0, 76, 0
2, 1884720, Note_on_c, 0, 69, 100
2, 1885200, Note_on_c, 0, 69, 0
2, 1885200, Note_on_c, 0, 74, 100
2, 1886160, Note_on_c, 0, 74, 0
2, 1886160, Note_on_c, 0, 72, 100
2, 1887120, Note_on_c, 0, 72, 0
2, 1887120, Note_on_c, 0, 71, 100
2, 1887360, Note_on_c, 0, 71, 0
2, 1887360, Note_on_c, 0, 69, 100
2, 1887600, Note_on_c, 0, 69, 0
2, 1887600, Note_on_c, 0, 71, 100
2, 1889040, Note_on_c, 0, 71, 0
2, 1889040, Note_on_c, 0, 71, 100
2, 1889280, Note_on_c, 0, 71, 0
2, 1889280, Note_on_c, 0, 69, 100
2, 1889520, Note_on_c, 0, 69, 0
2, 1889520, Note_on_c, 0, 71, 100
2, 1890000, Note_on_c, 0, 71, 0
2, 1890000, Note_on_c, 0, 76, 100
2, 1890480, Note_on_c, 0, 76, 0
2, 1890480, Note_on_c, 0, 73, 100
2, 1890960, Note_on_c, 0, 73, 0
2, 1890960, Note_on_c, 0, 81, 100
2, 1891920, Note_on_c, 0, 81, 0
2, 1891920, Note_on_c, 0, 79, 100
2, 1892160, Note_on_c, 0, 79, 0
2, 1892160, Note_on_c, 0, 78, 100
2, 1892400, Note_on_c, 0, 78, 0
2, 1892400, Note_on_c, 0, 81, 100
2, 1892560, Note_on_c, 0, 81, 0
2, 1892560, Note_on_c, 0, 79, 100
2, 1892720, Note_on_c, 0, 79, 0
2, 1892720, Note_on_c, 0, 81, 100
2, 1892880, Note_on_c, 0, 81, 0
2, 1892880, Note_on_c, 0, 79, 100
2, 1893040, Note_on_c, 0, 79, 0
2, 1893040, Note_on_c, 0, 81, 100
2, 1893200, Note_on_c, 0, 81, 0
2, 1893200, Note_on_c, 0, 79, 100
2, 1893360, Note_on_c, 0, 79, 0
2, 1893360, Note_on_c, 0, 81, 100
2, 1893520, Note_on_c, 0, 81, 0
2, 1893520, Note_on_c, 0, 79, 100
2, 1893680, Note_on_c, 0, 79, 0
2, 1893680, Note_on_c, 0, 81, 100
2, 1893840, Note_on_c, 0, 81, 0
2, 1893840, Note_on_c, 0, 79, 100
2, 1894000, Note_on_c, 0, 79, 0
2, 1894000, Note_on_c, 0, 81, 100
2, 1894160, Note_on_c, 0, 81, 0
2, 1894160, Note_on_c, 0, 79, 100
2, 1894320, Note_on_c, 0, 79, 0
2, 1894320, Note_on_c, 0, 81, 100
2, 1894480, Note_on_c, 0, 81, 0
2, 1894480, Note_on_c, 0, 79, 100
2, 1894640, Note_on_c, 0, 79, 0
2, 1894640, Note_on_c, 0, 81, 100
2, 1894800, Note_on_c, 0, 81, 0
2, 1894800, Note_on_c, 0, 79, 100
2, 1894960, Note_on_c, 0, 79, 0
2, 1894960, Note_on_c, 0, 81, 100
2, 1895120, Note_on_c, 0, 81, 0
2, 1895120, Note_on_c, 0, 79, 100
2, 1895280, Note_on_c, 0, 79, 0
2, 1895280, Note_on_c, 0, 81, 100
2, 1895400, Note_on_c, 0, 81, 0
2, 1895400, Note_on_c, 0, 79, 100
2, 1895520, Note_on_c, 0, 79, 0
2, 1895520, Note_on_c, 0, 81, 100
2, 1895640, Note_on_c, 0, 81, 0
2, 1895640, Note_on_c, 0, 79, 100
2, 1895760, Note_on_c, 0, 79, 0
2, 1895760, Note_on_c, 0, 81, 100
2, 1895880, Note_on_c, 0, 81, 0
2, 1895880, Note_on_c, 0, 79, 100
2, 1896000, Note_on_c, 0, 79, 0
2, 1896000, Note_on_c, 0, 81, 100
2, 1896120, Note_on_c, 0, 81, 0
2, 1896120, Note_on_c, 0, 79, 100
2, 1896240, Note_on_c, 0, 79, 0
2, 1896240, Note_on_c, 0, 81, 100
2, 1896360, Note_on_c, 0, 81, 0
2, 1896360, Note_on_c, 0, 79, 100
2, 1896480, Note_on_c, 0, 79, 0
2, 1896480, Note_on_c, 0, 81, 100
2, 1896600, Note_on_c, 0, 81, 0
2, 1896600, Note_on_c, 0, 79, 100
2, 1896720, Note_on_c, 0, 79, 0
2, 1896720, Note_on_c, 0, 78, 100
2, 1896960, Note_on_c, 0, 78, 0
2, 1896960, Note_on_c, 0, 76, 100
2, 1897200, Note_on_c, 0, 76, 0
2, 1897200, Note_on_c, 0, 78, 100
2, 1897680, Note_on_c, 0, 78, 0
2, 1897680, Note_on_c, 0, 81, 100
2, 1898160, Note_on_c, 0, 81, 0
2, 1898160, Note_on_c, 0, 74, 100
2, 1899120, Note_on_c, 0, 74, 0
2, 1899120, Note_on_c, 0, 79, 100
2, 1900560, Note_on_c, 0, 79, 0
2, 1900560, Note_on_c, 0, 78, 100
2, 1901040, Note_on_c, 0, 78, 0
2, 1901040, Note_on_c, 0, 76, 100
2, 1902000, Note_on_c, 0, 76, 0
2, 1902000, Note_on_c, 0, 74, 100
2, 1903920, Note_on_c, 0, 74, 0
2, 1904880, Note_on_c, 0, 81, 100
2, 1906320, Note_on_c, 0, 81, 0
2, 1906320, Note_on_c, 0, 79, 100
2, 1906560, Note_on_c, 0, 79, 0
2, 1906560, Note_on_c, 0, 78, 100
2, 1906800, Note_on_c, 0, 78, 0
2, 1906800, Note_on_c, 0, 79, 100
2, 1907280, Note_on_c, 0, 79, 0
2, 1907280, Note_on_c, 0, 83, 100
2, 1907760, Note_on_c, 0, 83, 0
2, 1907760, Note_on_c, 0, 76, 100
2, 1910160, Note_on_c, 0, 76, 0
2, 1910160, Note_on_c, 0, 75, 100
2, 1910400, Note_on_c, 0, 75, 0
2, 1910400, Note_on_c, 0, 73, 100
2, 1910640, Note_on_c, 0, 73, 0
2, 1910640, Note_on_c, 0, 75, 100
2, 1911120, Note_on_c, 0, 75, 0
2, 1911120, Note_on_c, 0, 78, 100
2, 1911600, Note_on_c, 0, 78, 0
2, 1911600, Note_on_c, 0, 83, 100
2, 1912080, Note_on_c, 0, 83, 0
2, 1912080, Note_on_c, 0, 71, 100
2, 1912560, Note_on_c, 0, 71, 0
2, 1912560, Note_on_c, 0, 83, 100
2, 1914000, Note_on_c, 0, 83, 0
2, 1914000, Note_on_c, 0, 81, 100
2, 1914240, Note_on_c, 0, 81, 0
2, 1914240, Note_on_c, 0, 79, 100
2, 1914480, Note_on_c, 0, 79, 0
2, 1914480, Note_on_c, 0, 81, 100
2, 1914960, Note_on_c, 0, 81, 0
2, 1914960, Note_on_c, 0, 84, 100
2, 1915440, Note_on_c, 0, 84, 0
2, 1915440, Note_on_c, 0, 78, 100
2, 1915920, Note_on_c, 0, 78, 0
2, 1915920, Note_on_c, 0, 79, 100
2, 1916400, Note_on_c, 0, 79, 0
2, 1916400, Note_on_c, 0, 81, 100
2, 1917840, Note_on_c, 0, 81, 0
2, 1917840, Note_on_c, 0, 79, 100
2, 1918080, Note_on_c, 0, 79, 0
2, 1918080, Note_on_c, 0, 78, 100
2, 1918320, Note_on_c, 0, 78, 0
2, 1918320, Note_on_c, 0, 79, 100
2, 1918800, Note_on_c, 0, 79, 0
2, 1918800, Note_on_c, 0, 83, 100
2, 1919280, Note_on_c, 0, 83, 0
2, 1919280, Note_on_c, 0, 76, 100
2, 1921200, Note_on_c, 0, 76, 0
2, 1921200, Note_on_c, 0, 74, 100
2, 1923120, Note_on_c, 0, 74, 0
2, 1923120, Note_on_c, 0, 72, 100
2, 1925040, Note_on_c, 0, 72, 0
2, 1926000, Note_on_c, 0, 74, 100
2, 1927440, Note_on_c, 0, 74, 0
2, 1927440, Note_on_c, 0, 72, 100
2, 1927680, Note_on_c, 0, 72, 0
2, 1927680, Note_on_c, 0, 71, 100
2, 1927920, Note_on_c, 0, 71, 0
2, 1927920, Note_on_c, 0, 72, 100
2, 1928400, Note_on_c, 0, 72, 0
2, 1928400, Note_on_c, 0, 76, 100
2, 1928880, Note_on_c, 0, 76, 0
2, 1928880, Note_on_c, 0, 69, 100
2, 1930080, Note_on_c, 0, 69, 0
2, 1930080, Note_on_c, 0, 76, 100
2, 1930320, Note_on_c, 0, 76, 0
2, 1930320, Note_on_c, 0, 74, 100
2, 1930560, Note_on_c, 0, 74, 0
2, 1930560, Note_on_c, 0, 76, 100
2, 1930800, Note_on_c, 0, 76, 0
2, 1930800, Note_on_c, 0, 69, 100
2, 1931280, Note_on_c, 0, 69, 0
2, 1931280, Note_on_c, 0, 74, 100
2, 1932240, Note_on_c, 0, 74, 0
2, 1932240, Note_on_c, 0, 72, 100
2, 1933200, Note_on_c, 0, 72, 0
2, 1933200, Note_on_c, 0, 71, 100
2, 1933440, Note_on_c, 0, 71, 0
2, 1933440, Note_on_c, 0, 69, 100
2, 1933680, Note_on_c, 0, 69, 0
2, 1933680, Note_on_c, 0, 71, 100
2, 1934640, Note_on_c, 0, 71, 0
2, 1935600, Note_on_c, 0, 81, 100
2, 1937040, Note_on_c, 0, 81, 0
2, 1937040, Note_on_c, 0, 79, 100
2, 1937280, Note_on_c, 0, 79, 0
2, 1937280, Note_on_c, 0, 78, 100
2, 1937520, Note_on_c, 0, 78, 0
2, 1937520, Note_on_c, 0, 79, 100
2, 1938000, Note_on_c, 0, 79, 0
2, 1938000, Note_on_c, 0, 83, 100
2, 1938480, Note_on_c, 0, 83, 0
2, 1938480, Note_on_c, 0, 76, 100
2, 1940880, Note_on_c, 0, 76, 0
2, 1940880, Note_on_c, 0, 75, 100
2, 1941120, Note_on_c, 0, 75, 0
2, 1941120, Note_on_c, 0, 73, 100
2, 1941360, Note_on_c, 0, 73, 0
2, 1941360, Note_on_c, 0, 75, 100
2, 1941840, Note_on_c, 0, 75, 0
2, 1941840, Note_on_c, 0, 78, 100
2, 1942320, Note_on_c, 0, 78, 0
2, 1942320, Note_on_c, 0, 83, 100
2, 1942800, Note_on_c, 0, 83, 0
2, 1942800, Note_on_c, 0, 71, 100
2, 1943280, Note_on_c, 0, 71, 0
2, 1943280, Note_on_c, 0, 83, 100
2, 1944720, Note_on_c, 0, 83, 0
2, 1944720, Note_on_c, 0, 81, 100
2, 1944960, Note_on_c, 0, 81, 0
2, 1944960, Note_on_c, 0, 79, 100
2, 1945200, Note_on_c, 0, 79, 0
2, 1945200, Note_on_c, 0, 81, 100
2, 1945680, Note_on_c, 0, 81, 0
2, 1945680, Note_on_c, 0, 84, 100
2, 1946160, Note_on_c, 0, 84, 0
2, 1946160, Note_on_c, 0, 78, 100
2, 1946640, Note_on_c, 0, 78, 0
2, 1946640, Note_on_c, 0, 79, 100
2, 1947120, Note_on_c, 0, 79, 0
2, 1947120, Note_on_c, 0, 81, 100
2, 1948560, Note_on_c, 0, 81, 0
2, 1948560, Note_on_c, 0, 79, 100
2, 1948800, Note_on_c, 0, 79, 0
2, 1948800, Note_on_c, 0, 78, 100
2, 1949040, Note_on_c, 0, 78, 0
2, 1949040, Note_on_c, 0, 79, 100
2, 1949520, Note_on_c, 0, 79, 0
2, 1949520, Note_on_c, 0, 83, 100
2, 1950000, Note_on_c, 0, 83, 0
2, 1950000, Note_on_c, 0, 76, 100
2, 1951920, Note_on_c, 0, 76, 0
2, 1951920, Note_on_c, 0, 74, 100
2, 1953840, Note_on_c, 0, 74, 0
2, 1953840, Note_on_c, 0, 72, 100
2, 1955760, Note_on_c, 0, 72, 0
2, 1956720, Note_on_c, 0, 74, 100
2, 1958160, Note_on_c, 0, 74, 0
2, 1958160, Note_on_c, 0, 72, 100
2, 1958400, Note_on_c, 0, 72, 0
2, 1958400, Note_on_c, 0, 71, 100
2, 1958640, Note_on_c, 0, 71, 0
2, 1958640, Note_on_c, 0, 72, 100
2, 1959120, Note_on_c, 0, 72, 0
2, 1959120, Note_on_c, 0, 76, 100
2, 1959600, Note_on_c, 0, 76, 0
2, 1959600, Note_on_c, 0, 69, 100
2, 1960800, Note_on_c, 0, 69, 0
2, 1960800, Note_on_c, 0, 76, 100
2, 1961040, Note_on_c, 0, 76, 0
2, 1961040, Note_on_c, 0, 74, 100
2, 1961280, Note_on_c, 0, 74, 0
2, 1961280, Note_on_c, 0, 76, 100
2, 1961520, Note_on_c, 0, 76, 0
2, 1961520, Note_on_c, 0, 69, 100
2, 1962000, Note_on_c, 0, 69, 0
2, 1962000, Note_on_c, 0, 74, 100
2, 1962960, Note_on_c, 0, 74, 0
2, 1962960, Note_on_c, 0, 72, 100
2, 1963920, Note_on_c, 0, 72, 0
2, 1963920, Note_on_c, 0, 71, 100
2, 1964160, Note_on_c, 0, 71, 0
2, 1964160, Note_on_c, 0, 69, 100
2, 1964400, Note_on_c, 0, 69, 0
2, 1964400, Note_on_c, 0, 71, 100
2, 1965360, Note_on_c, 0, 71, 0
2, 1977000, Note_on_c, 0, 83, 100
2, 1977120, Note_on_c, 0, 83, 0
2, 1977120, Note_on_c, 0, 83, 100
2, 1977240, Note_on_c, 0, 83, 0
2, 1978440, Note_on_c, 0, 81, 100
2, 1978560, Note_on_c, 0, 81, 0
2, 1978560, Note_on_c, 0, 81, 100
2, 1978680, Note_on_c, 0, 81, 0
2, 1979880, Note_on_c, 0, 79, 100
2, 1980000, Note_on_c, 0, 79, 0
2, 1980000, Note_on_c, 0, 79, 100
2, 1980120, Note_on_c, 0, 79, 0
2, 1981320, Note_on_c, 0, 79, 100
2, 1981440, Note_on_c, 0, 79, 0
2, 1981440, Note_on_c, 0, 79, 100
2, 1981560, Note_on_c, 0, 79, 0
2, 2000040, Note_on_c, 0, 83, 100
2, 2000160, Note_on_c, 0, 83, 0
2, 2000160, Note_on_c, 0, 83, 100
2, 2000280, Note_on_c, 0, 83, 0
2, 2001480, Note_on_c, 0, 81, 100
2, 2001600, Note_on_c, 0, 81, 0
2, 2001600, Note_on_c, 0, 81, 100
2, 2001720, Note_on_c, 0, 81, 0
2, 2002920, Note_on_c, 0, 79, 100
2, 2003040, Note_on_c, 0, 79, 0
2, 2003040, Note_on_c, 0, 79, 100
2, 2003160, Note_on_c, 0, 79, 0
2, 2004360, Note_on_c, 0, 79, 100
2, 2004480, Note_on_c, 0, 79, 0
2, 2004480, Note_on_c, 0, 79, 100
2, 2004600, Note_on_c, 0, 79, 0
2, 2023080, Note_on_c, 0, 64, 100
2, 2023200, Note_on_c, 0, 64, 0
2, 2023200, Note_on_c, 0, 65, 100
2, 2023320, Note_on_c, 0, 65, 0
2, 2023320, Note_on_c, 0, 67, 100
2, 2023440, Note_on_c, 0, 67, 0
2, 2023440, Note_on_c, 0, 69, 100
2, 2023560, Note_on_c, 0, 69, 0
2, 2023560, Note_on_c, 0, 71, 100
2, 2023680, Note_on_c, 0, 71, 0
2, 2023680, Note_on_c, 0, 72, 100
2, 2023800, Note_on_c, 0, 72, 0
2, 2023800, Note_on_c, 0, 74, 100
2, 2023920, Note_on_c, 0, 74, 0
2, 2023920, Note_on_c, 0, 76, 100
2, 2024160, Note_on_c, 0, 76, 0
2, 2024520, Note_on_c, 0, 74, 100
2, 2024640, Note_on_c, 0, 74, 0
2, 2024640, Note_on_c, 0, 72, 100
2, 2024760, Note_on_c, 0, 72, 0
2, 2024760, Note_on_c, 0, 71, 100
2, 2024880, Note_on_c, 0, 71, 0
2, 2024880, Note_on_c, 0, 69, 100
2, 2025000, Note_on_c, 0, 69, 0
2, 2025000, Note_on_c, 0, 67, 100
2, 2025120, Note_on_c, 0, 67, 0
2, 2025120, Note_on_c, 0, 66, 100
2, 2025240, Note_on_c, 0, 66, 0
2, 2025240, Note_on_c, 0, 64, 100
2, 2025360, Note_on_c, 0, 64, 0
2, 2025360, Note_on_c, 0, 62, 100
2, 2025600, Note_on_c, 0, 62, 0
2, 2025960, Note_on_c, 0, 62, 100
2, 2026080, Note_on_c, 0, 62, 0
2, 2026200, Note_on_c, 0, 59, 100
2, 2026320, Note_on_c, 0, 59, 0
2, 2026440, Note_on_c, 0, 62, 100
2, 2026560, Note_on_c, 0, 62, 0
2, 2026680, Note_on_c, 0, 59, 100
2, 2026800, Note_on_c, 0, 59, 0
2, 2026920, Note_on_c, 0, 59, 100
2, 2027040, Note_on_c, 0, 59, 0
2, 2027160, Note_on_c, 0, 55, 100
2, 2027280, Note_on_c, 0, 55, 0
2, 2027400, Note_on_c, 0, 55, 100
2, 2027520, Note_on_c, 0, 55, 0
2, 2027640, Note_on_c, 0, 52, 100
2, 2027760, Note_on_c, 0, 52, 0
2, 2027880, Note_on_c, 0, 55, 100
2, 2028000, Note_on_c, 0, 55, 0
2, 2028120, Note_on_c, 0, 52, 100
2, 2028240, Note_on_c, 0, 52, 0
2, 2028360, Note_on_c, 0, 52, 100
2, 2028480, Note_on_c, 0, 52, 0
2, 2028600, Note_on_c, 0, 48, 100
2, 2028720, Note_on_c, 0, 48, 0
2, 2028840, Note_on_c, 0, 48, 100
2, 2028960, Note_on_c, 0, 48, 0
2, 2029080, Note_on_c, 0, 45, 100
2, 2029200, Note_on_c, 0, 45, 0
2, 2029320, Note_on_c, 0, 48, 100
2, 2029440, Note_on_c, 0, 48, 0
2, 2029560, Note_on_c, 0, 52, 100
2, 2029680, Note_on_c, 0, 52, 0
2, 2029800, Note_on_c, 0, 55, 100
2, 2029920, Note_on_c, 0, 55, 0
2, 2030040, Note_on_c, 0, 59, 100
2, 2030160, Note_on_c, 0, 59, 0
2, 2030280, Note_on_c, 0, 62, 100
2, 2030400, Note_on_c, 0, 62, 0
2, 2030520, Note_on_c, 0, 59, 100
2, 2030640, Note_on_c, 0, 59, 0
2, 2030760, Note_on_c, 0, 62, 100
2, 2030880, Note_on_c, 0, 62, 0
2, 2031000, Note_on_c, 0, 66, 100
2, 2031120, Note_on_c, 0, 66, 0
2, 2031240, Note_on_c, 0, 69, 100
2, 2031360, Note_on_c, 0, 69, 0
2, 2031480, Note_on_c, 0, 72, 100
2, 2031600, Note_on_c, 0, 72, 0
2, 2031720, Note_on_c, 0, 73, 100
2, 2031840, Note_on_c, 0, 73, 0
2, 2031840, Note_on_c, 0, 74, 100
2, 2031960, Note_on_c, 0, 74, 0
2, 2031960, Note_on_c, 0, 76, 100
2, 2032080, Note_on_c, 0, 76, 0
2, 2032080, Note_on_c, 0, 78, 100
2, 2032200, Note_on_c, 0, 78, 0
2, 2032200, Note_on_c, 0, 79, 100
2, 2032320, Note_on_c, 0, 79, 0
2, 2032320, Note_on_c, 0, 81, 100
2, 2032440, Note_on_c, 0, 81, 0
2, 2032440, Note_on_c, 0, 83, 100
2, 2032560, Note_on_c, 0, 83, 0
2, 2032560, Note_on_c, 0, 84, 100
2, 2032800, Note_on_c, 0, 84, 0
2, 2033160, Note_on_c, 0, 83, 100
2, 2033280, Note_on_c, 0, 83, 0
2, 2033280, Note_on_c, 0, 81, 100
2, 2033400, Note_on_c, 0, 81, 0
2, 2033400, Note_on_c, 0, 79, 100
2, 2033520, Note_on_c, 0, 79, 0
2, 2033520, Note_on_c, 0, 78, 100
2, 2033640, Note_on_c, 0, 78, 0
2, 2033640, Note_on_c, 0, 76, 100
2, 2033760, Note_on_c, 0, 76, 0
2, 2033760, Note_on_c, 0, 74, 100
2, 2033880, Note_on_c, 0, 74, 0
2, 2033880, Note_on_c, 0, 72, 100
2, 2034000, Note_on_c, 0, 72, 0
2, 2034000, Note_on_c, 0, 71, 100
2, 2034240, Note_on_c, 0, 71, 0
2, 2046120, Note_on_c, 0, 64, 100
2, 2046240, Note_on_c, 0, 64, 0
2, 2046240, Note_on_c, 0, 65, 100
2, 2046360, Note_on_c, 0, 65, 0
2, 2046360, Note_on_c, 0, 67, 100
2, 2046480, Note_on_c, 0, 67, 0
2, 2046480, Note_on_c, 0, 69, 100
2, 2046600, Note_on_c, 0, 69, 0
2, 2046600, Note_on_c, 0, 71, 100
2, 2046720, Note_on_c, 0, 71, 0
2, 2046720, Note_on_c, 0, 72, 100
2, 2046840, Note_on_c, 0, 72, 0
2, 2046840, Note_on_c, 0, 74, 100
2, 2046960, Note_on_c, 0, 74, 0
2, 2046960, Note_on_c, 0, 76, 100
2, 2047200, Note_on_c, 0, 76, 0
2, 2047560, Note_on_c, 0, 74, 100
2, 2047680, Note_on_c, 0, 74, 0
2, 2047680, Note_on_c, 0, 72, 100
2, 2047800, Note_on_c, 0, 72, 0
2, 2047800, Note_on_c, 0, 71, 100
2, 2047920, Note_on_c, 0, 71, 0
2, 2047920, Note_on_c, 0, 69, 100
2, 2048040, Note_on_c, 0, 69, 0
2, 2048040, Note_on_c, 0, 67, 100
2, 2048160, Note_on_c, 0, 67, 0
2, 2048160, Note_on_c, 0, 66, 100
2, 2048280, Note_on_c, 0, 66, 0
2, 2048280, Note_on_c, 0, 64, 100
2, 2048400, Note_on_c, 0, 64, 0
2, 2048400, Note_on_c, 0, 62, 100
2, 2048640, Note_on_c, 0, 62, 0
2, 2049000, Note_on_c, 0, 62, 100
2, 2049120, Note_on_c, 0, 62, 0
2, 2049240, Note_on_c, 0, 59, 100
2, 2049360, Note_on_c, 0, 59, 0
2, 2049480, Note_on_c, 0, 62, 100
2, 2049600, Note_on_c, 0, 62, 0
2, 2049720, Note_on_c, 0, 59, 100
2, 2049840, Note_on_c, 0, 59, 0
2, 2049960, Note_on_c, 0, 59, 100
2, 2050080, Note_on_c, 0, 59, 0
2, 2050200, Note_on_c, 0, 55, 100
2, 2050320, Note_on_c, 0, 55, 0
2, 2050440, Note_on_c, 0, 55, 100
2, 2050560, Note_on_c, 0, 55, 0
2, 2050680, Note_on_c, 0, 52, 100
2, 2050800, Note_on_c, 0, 52, 0
2, 2050920, Note_on_c, 0, 55, 100
2, 2051040, Note_on_c, 0, 55, 0
2, 2051160, Note_on_c, 0, 52, 100
2, 2051280, Note_on_c, 0, 52, 0
2, 2051400, Note_on_c, 0, 52, 100
2, 2051520, Note_on_c, 0, 52, 0
2, 2051640, Note_on_c, 0, 48, 100
2, 2051760, Note_on_c, 0, 48, 0
2, 2051880, Note_on_c, 0, 48, 100
2, 2052000, Note_on_c, 0, 48, 0
2, 2052120, Note_on_c, 0, 45, 100
2, 2052240, Note_on_c, 0, 45, 0
2, 2052360, Note_on_c, 0, 48, 100
2, 2052480, Note_on_c, 0, 48, 0
2, 2052600, Note_on_c, 0, 52, 100
2, 2052720, Note_on_c, 0, 52, 0
2, 2052840, Note_on_c, 0, 55, 100
2, 2052960, Note_on_c, 0, 55, 0
2, 2053080, Note_on_c, 0, 59, 100
2, 2053200, Note_on_c, 0, 59, 0
2, 2053320, Note_on_c, 0, 62, 100
2, 2053440, Note_on_c, 0, 62, 0
2, 2053560, Note_on_c, 0, 59, 100
2, 2053680, Note_on_c, 0, 59, 0
2, 2053800, Note_on_c, 0, 62, 100
2, 2053920, Note_on_c, 0, 62, 0
2, 2054040, Note_on_c, 0, 66, 100
2, 2054160, Note_on_c, 0, 66, 0
2, 2054280, Note_on_c, 0, 69, 100
2, 2054400, Note_on_c, 0, 69, 0
2, 2054520, Note_on_c, 0, 72, 100
2, 2054640, Note_on_c, 0, 72, 0
2, 2054760, Note_on_c, 0, 73, 100
2, 2054880, Note_on_c, 0, 73, 0
2, 2054880, Note_on_c, 0, 74, 100
2, 2055000, Note_on_c, 0, 74, 0
2, 2055000, Note_on_c, 0, 76, 100
2, 2055120, Note_on_c, 0, 76, 0
2, 2055120, Note_on_c, 0, 78, 100
2, 2055240, Note_on_c, 0, 78, 0
2, 2055240, Note_on_c, 0, 79, 100
2, 2055360, Note_on_c, 0, 79, 0
2, 2055360, Note_on_c, 0, 81, 100
2, 2055480, Note_on_c, 0, 81, 0
2, 2055480, Note_on_c, 0, 83, 100
2, 2055600, Note_on_c, 0, 83, 0
2, 2055600, Note_on_c, 0, 84, 100
2, 2055840, Note_on_c, 0, 84, 0
2, 2056200, Note_on_c, 0, 83, 100
2, 2056320, Note_on_c, 0, 83, 0
2, 2056320, Note_on_c, 0, 81, 100
2, 2056440, Note_on_c, 0, 81, 0
2, 2056440, Note_on_c, 0, 79, 100
2, 2056560, Note_on_c, 0, 79, 0
2, 2056560, Note_on_c, 0, 78, 100
2, 2056680, Note_on_c, 0, 78, 0
2, 2056680, Note_on_c, 0, 76, 100
2, 2056800, Note_on_c, 0, 76, 0
2, 2056800, Note_on_c, 0, 74, 100
2, 2056920, Note_on_c, 0, 74, 0
2, 2056920, Note_on_c, 0, 72, 100
2, 2057040, Note_on_c, 0, 72, 0
2, 2057040, Note_on_c, 0, 71, 100
2, 2057280, Note_on_c, 0, 71, 0
2, 2472240, Note_on_c, 0, 83, 100
2, 2472360, Note_on_c, 0, 83, 0
2, 2472720, Note_on_c, 0, 86, 100
2, 2472840, Note_on_c, 0, 86, 0
2, 2473200, Note_on_c, 0, 79, 100
2, 2473320, Note_on_c, 0, 79, 0
2, 2473680, Note_on_c, 0, 81, 100
2, 2473800, Note_on_c, 0, 81, 0
2, 2474160, Note_on_c, 0, 86, 100
2, 2474280, Note_on_c, 0, 86, 0
2, 2474640, Note_on_c, 0, 78, 100
2, 2474760, Note_on_c, 0, 78, 0
2, 2475120, Note_on_c, 0, 79, 100
2, 2475240, Note_on_c, 0, 79, 0
2, 2475600, Note_on_c, 0, 83, 100
2, 2475720, Note_on_c, 0, 83, 0
2, 2476080, Note_on_c, 0, 81, 100
2, 2476200, Note_on_c, 0, 81, 0
2, 2476560, Note_on_c, 0, 78, 100
2, 2476680, Note_on_c, 0, 78, 0
2, 2477040, Note_on_c, 0, 85, 100
2, 2477160, Note_on_c, 0, 85, 0
2, 2477520, Note_on_c, 0, 86, 100
2, 2477640, Note_on_c, 0, 86, 0
2, 2478000, Note_on_c, 0, 79, 100
2, 2478240, Note_on_c, 0, 79, 0
2, 2478240, Note_on_c, 0, 55, 100
2, 2478480, Note_on_c, 0, 55, 0
2, 2478480, Note_on_c, 0, 57, 100
2, 2478720, Note_on_c, 0, 57, 0
2, 2478720, Note_on_c, 0, 76, 100
2, 2478960, Note_on_c, 0, 76, 0
2, 2478960, Note_on_c, 0, 77, 100
2, 2479200, Note_on_c, 0, 77, 0
2, 2479200, Note_on_c, 0, 74, 100
2, 2479440, Note_on_c, 0, 74, 0
2, 2479440, Note_on_c, 0, 76, 100
2, 2479680, Note_on_c, 0, 76, 0
2, 2479680, Note_on_c, 0, 57, 100
2, 2479920, Note_on_c, 0, 57, 0
2, 2479920, Note_on_c, 0, 59, 100
2, 2480160, Note_on_c, 0, 59, 0
2, 2480160, Note_on_c, 0, 78, 100
2, 2480400, Note_on_c, 0, 78, 0
2, 2480400, Note_on_c, 0, 79, 100
2, 2480640, Note_on_c, 0, 79, 0
2, 2480640, Note_on_c, 0, 73, 100
2, 2480880, Note_on_c, 0, 73, 0
2, 2480880, Note_on_c, 0, 74, 100
2, 2481120, Note_on_c, 0, 74, 0
2, 2481120, Note_on_c, 0, 54, 100
2, 2481360, Note_on_c, 0, 54, 0
2, 2481360, Note_on_c, 0, 55, 100
2, 2481600, Note_on_c, 0, 55, 0
2, 2481600, Note_on_c, 0, 49, 100
2, 2481840, Note_on_c, 0, 49, 0
2, 2481840, Note_on_c, 0, 50, 100
2, 2482080, Note_on_c, 0, 50, 0
2, 2482080, Note_on_c, 0, 38, 100
2, 2482320, Note_on_c, 0, 38, 0
2, 2482320, Note_on_c, 0, 43, 100
2, 2482560, Note_on_c, 0, 43, 0
2, 2482560, Note_on_c, 0, 76, 100
2, 2482800, Note_on_c, 0, 76, 0
2, 2482800, Note_on_c, 0, 74, 100
2, 2483040, Note_on_c, 0, 74, 0
2, 2483040, Note_on_c, 0, 72, 100
2, 2483280, Note_on_c, 0, 72, 0
2, 2483280, Note_on_c, 0, 71, 100
2, 2483520, Note_on_c, 0, 71, 0
2, 2483520, Note_on_c, 0, 72, 100
2, 2483760, Note_on_c, 0, 72, 0
2, 2483760, Note_on_c, 0, 79, 100
2, 2483880, Note_on_c, 0, 79, 0
2, 2489520, Note_on_c, 0, 66, 100
2, 2489640, Note_on_c, 0, 66, 0
2, 2490000, Note_on_c, 0, 67, 100
2, 2490120, Note_on_c, 0, 67, 0
2, 2490480, Note_on_c, 0, 69, 100
2, 2490600, Note_on_c, 0, 69, 0
2, 2490960, Note_on_c, 0, 71, 100
2, 2491080, Note_on_c, 0, 71, 0
2, 2491440, Note_on_c, 0, 69, 100
2, 2491560, Note_on_c, 0, 69, 0
2, 2491920, Note_on_c, 0, 67, 100
2, 2492040, Note_on_c, 0, 67, 0
2, 2492400, Note_on_c, 0, 69, 100
2, 2492520, Note_on_c, 0, 69, 0
2, 2492880, Note_on_c, 0, 71, 100
2, 2493000, Note_on_c, 0, 71, 0
2, 2493360, Note_on_c, 0, 69, 100
2, 2493480, Note_on_c, 0, 69, 0
2, 2495280, Note_on_c, 0, 83, 100
2, 2495400, Note_on_c, 0, 83, 0
2, 2495760, Note_on_c, 0, 86, 100
2, 2495880, Note_on_c, 0, 86, 0
2, 2496240, Note_on_c, 0, 79, 100
2, 2496360, Note_on_c, 0, 79, 0
2, 2496720, Note_on_c, 0, 81, 100
2, 2496840, Note_on_c, 0, 81, 0
2, 2497200, Note_on_c, 0, 86, 100
2, 2497320, Note_on_c, 0, 86, 0
2, 2497680, Note_on_c, 0, 78, 100
2, 2497800, Note_on_c, 0, 78, 0
2, 2498160, Note_on_c, 0, 79, 100
2, 2498280, Note_on_c, 0, 79, 0
2, 2498640, Note_on_c, 0, 83, 100
2, 2498760, Note_on_c, 0, 83, 0
2, 2499120, Note_on_c, 0, 81, 100
2, 2499240, Note_on_c, 0, 81, 0
2, 2499600, Note_on_c, 0, 78, 100
2, 2499720, Note_on_c, 0, 78, 0
2, 2500080, Note_on_c, 0, 85, 100
2, 2500200, Note_on_c, 0, 85, 0
2, 2500560, Note_on_c, 0, 86, 100
2, 2500680, Note_on_c, 0, 86, 0
2, 2501040, Note_on_c, 0, 79, 100
2, 2501280, Note_on_c, 0, 79, 0
2, 2501280, Note_on_c, 0, 55, 100
2, 2501520, Note_on_c, 0, 55, 0
2, 2501520, Note_on_c, 0, 57, 100
2, 2501760, Note_on_c, 0, 57, 0
2, 2501760, Note_on_c, 0, 76, 100
2, 2502000, Note_on_c, 0, 76, 0
2, 2502000, Note_on_c, 0, 77, 100
2, 2502240, Note_on_c, 0, 77, 0
2, 2502240, Note_on_c, 0, 74, 100
2, 2502480, Note_on_c, 0, 74, 0
2, 2502480, Note_on_c, 0, 76, 100
2, 2502720, Note_on_c, 0, 76, 0
2, 2502720, Note_on_c, 0, 57, 100
2, 2502960, Note_on_c, 0, 57, 0
2, 2502960, Note_on_c, 0, 59, 100
2, 2503200, Note_on_c, 0, 59, 0
2, 2503200, Note_on_c, 0, 78, 100
2, 2503440, Note_on_c, 0, 78, 0
2, 2503440, Note_on_c, 0, 79, 100
2, 2503680, Note_on_c, 0, 79, 0
2, 2503680, Note_on_c, 0, 73, 100
2, 2503920, Note_on_c, 0, 73, 0
2, 2503920, Note_on_c, 0, 74, 100
2, 2504160, Note_on_c, 0, 74, 0
2, 2504160, Note_on_c, 0, 54, 100
2, 2504400, Note_on_c, 0, 54, 0
2, 2504400, Note_on_c, 0, 55, 100
2, 2504640, Note_on_c, 0, 55, 0
2, 2504640, Note_on_c, 0, 49, 100
2, 2504880, Note_on_c, 0, 49, 0
2, 2504880, Note_on_c, 0, 50, 100
2, 2505120, Note_on_c, 0, 50, 0
2, 2505120, Note_on_c, 0, 38, 100
2, 2505360, Note_on_c, 0, 38, 0
2, 2505360, Note_on_c, 0, 43, 100
2, 2505600, Note_on_c, 0, 43, 0
2, 2505600, Note_on_c, 0, 76, 100
2, 2505840, Note_on_c, 0, 76, 0
2, 2505840, Note_on_c, 0, 74, 100
2, 2506080, Note_on_c, 0, 74, 0
2, 2506080, Note_on_c, 0, 72, 100
2, 2506320, Note_on_c, 0, 72, 0
2, 2506320, Note_on_c, 0, 71, 100
2, 2506560, Note_on_c, 0, 71, 0
2, 2506560, Note_on_c, 0, 72, 100
2, 2506800, Note_on_c, 0, 72, 0
2, 2506800, Note_on_c, 0, 79, 100
2, 2506920, Note_on_c, 0, 79, 0
2, 2512560, Note_on_c, 0, 66, 100
2, 2512680, Note_on_c, 0, 66, 0
2, 2513040, Note_on_c, 0, 67, 100
2, 2513160, Note_on_c, 0, 67, 0
2, 2513520, Note_on_c, 0, 69, 100
2, 2513640, Note_on_c, 0, 69, 0
2, 2514000, Note_on_c, 0, 71, 100
2, 2514120, Note_on_c, 0, 71, 0
2, 2514480, Note_on_c, 0, 69, 100
2, 2514600, Note_on_c, 0, 69, 0
2, 2514960, Note_on_c, 0, 67, 100
2, 2515080, Note_on_c, 0, 67, 0
2, 2515440, Note_on_c, 0, 69, 100
2, 2515560, Note_on_c, 0, 69, 0
2, 2515920, Note_on_c, 0, 71, 100
2, 2516040, Note_on_c, 0, 71, 0
2, 2516400, Note_on_c, 0, 69, 100
2, 2516520, Note_on_c, 0, 69, 0
2, 2524140, Note_on_c, 0, 79, 100
2, 2524200, Note_on_c, 0, 79, 0
2, 2524200, Note_on_c, 0, 81, 100
2, 2524260, Note_on_c, 0, 81, 0
2, 2524260, Note_on_c, 0, 79, 100
2, 2524320, Note_on_c, 0, 79, 0
2, 2524320, Note_on_c, 0, 81, 100
2, 2524380, Note_on_c, 0, 81, 0
2, 2524380, Note_on_c, 0, 79, 100
2, 2524440, Note_on_c, 0, 79, 0
2, 2524440, Note_on_c, 0, 81, 100
2, 2524500, Note_on_c, 0, 81, 0
2, 2524500, Note_on_c, 0, 79, 100
2, 2524560, Note_on_c, 0, 79, 0
2, 2524620, Note_on_c, 0, 79, 100
2, 2524680, Note_on_c, 0, 79, 0
2, 2524680, Note_on_c, 0, 81, 100
2, 2524740, Note_on_c, 0, 81, 0
2, 2524740, Note_on_c, 0, 79, 100
2, 2524800, Note_on_c, 0, 79, 0
2, 2524800, Note_on_c, 0, 81, 100
2, 2524860, Note_on_c, 0, 81, 0
2, 2524860, Note_on_c, 0, 79, 100
2, 2524920, Note_on_c, 0, 79, 0
2, 2524920, Note_on_c, 0, 81, 100
2, 2524980, Note_on_c, 0, 81, 0
2, 2524980, Note_on_c, 0, 79, 100
2, 2525040, Note_on_c, 0, 79, 0
2, 2525100, Note_on_c, 0, 79, 100
2, 2525160, Note_on_c, 0, 79, 0
2, 2525160, Note_on_c, 0, 81, 100
2, 2525220, Note_on_c, 0, 81, 0
2, 2525220, Note_on_c, 0, 79, 100
2, 2525280, Note_on_c, 0, 79, 0
2, 2525280, Note_on_c, 0, 81, 100
2, 2525340, Note_on_c, 0, 81, 0
2, 2525340, Note_on_c, 0, 79, 100
2, 2525400, Note_on_c, 0, 79, 0
2, 2525400, Note_on_c, 0, 81, 100
2, 2525460, Note_on_c, 0, 81, 0
2, 2525460, Note_on_c, 0, 79, 100
2, 2525520, Note_on_c, 0, 79, 0
2, 2525580, Note_on_c, 0, 79, 100
2, 2525640, Note_on_c, 0, 79, 0
2, 2525640, Note_on_c, 0, 81, 100
2, 2525700, Note_on_c, 0, 81, 0
2, 2525700, Note_on_c, 0, 79, 100
2, 2525760, Note_on_c, 0, 79, 0
2, 2525760, Note_on_c, 0, 81, 100
2, 2525820, Note_on_c, 0, 81, 0
2, 2525820, Note_on_c, 0, 79, 100
2, 2525880, Note_on_c, 0, 79, 0
2, 2525880, Note_on_c, 0, 81, 100
2, 2525940, Note_on_c, 0, 81, 0
2, 2525940, Note_on_c, 0, 79, 100
2, 2526000, Note_on_c, 0, 79, 0
2, 2526060, Note_on_c, 0, 79, 100
2, 2526120, Note_on_c, 0, 79, 0
2, 2526120, Note_on_c, 0, 81, 100
2, 2526180, Note_on_c, 0, 81, 0
2, 2526180, Note_on_c, 0, 79, 100
2, 2526240, Note_on_c, 0, 79, 0
2, 2526240, Note_on_c, 0, 81, 100
2, 2526300, Note_on_c, 0, 81, 0
2, 2526300, Note_on_c, 0, 79, 100
2, 2526360, Note_on_c, 0, 79, 0
2, 2526360, Note_on_c, 0, 81, 100
2, 2526420, Note_on_c, 0, 81, 0
2, 2526420, Note_on_c, 0, 79, 100
2, 2526480, Note_on_c, 0, 79, 0
2, 2526540, Note_on_c, 0, 79, 100
2, 2526600, Note_on_c, 0, 79, 0
2, 2526600, Note_on_c, 0, 81, 100
2, 2526660, Note_on_c, 0, 81, 0
2, 2526660, Note_on_c, 0, 79, 100
2, 2526720, Note_on_c, 0, 79, 0
2, 2526720, Note_on_c, 0, 81, 100
2, 2526780, Note_on_c, 0, 81, 0
2, 2526780, Note_on_c, 0, 79, 100
2, 2526840, Note_on_c, 0, 79, 0
2, 2526840, Note_on_c, 0, 81, 100
2, 2526900, Note_on_c, 0, 81, 0
2, 2526900, Note_on_c, 0, 79, 100
2, 2526960, Note_on_c, 0, 79, 0
2, 2527020, Note_on_c, 0, 79, 100
2, 2527080, Note_on_c, 0, 79, 0
2, 2527080, Note_on_c, 0, 81, 100
2, 2527140, Note_on_c, 0, 81, 0
2, 2527140, Note_on_c, 0, 79, 100
2, 2527200, Note_on_c, 0, 79, 0
2, 2527200, Note_on_c, 0, 81, 100
2, 2527260, Note_on_c, 0, 81, 0
2, 2527260, Note_on_c, 0, 79, 100
2, 2527320, Note_on_c, 0, 79, 0
2, 2527320, Note_on_c, 0, 81, 100
2, 2527380, Note_on_c, 0, 81, 0
2, 2527380, Note_on_c, 0, 79, 100
2, 2527440, Note_on_c, 0, 79, 0
2, 2527500, Note_on_c, 0, 79, 100
2, 2527560, Note_on_c, 0, 79, 0
2, 2527560, Note_on_c, 0, 81, 100
2, 2527620, Note_on_c, 0, 81, 0
2, 2527620, Note_on_c, 0, 79, 100
2, 2527680, Note_on_c, 0, 79, 0
2, 2527680, Note_on_c, 0, 81, 100
2, 2527740, Note_on_c, 0, 81, 0
2, 2527740, Note_on_c, 0, 79, 100
2, 2527800, Note_on_c, 0, 79, 0
2, 2527800, Note_on_c, 0, 81, 100
2, 2527860, Note_on_c, 0, 81, 0
2, 2527860, Note_on_c, 0, 79, 100
2, 2527920, Note_on_c, 0, 79, 0
2, 2527980, Note_on_c, 0, 78, 100
2, 2528040, Note_on_c, 0, 78, 0
2, 2528040, Note_on_c, 0, 79, 100
2, 2528100, Note_on_c, 0, 79, 0
2, 2528100, Note_on_c, 0, 78, 100
2, 2528160, Note_on_c, 0, 78, 0
2, 2528160, Note_on_c, 0, 79, 100
2, 2528220, Note_on_c, 0, 79, 0
2, 2528220, Note_on_c, 0, 78, 100
2, 2528280, Note_on_c, 0, 78, 0
2, 2528280, Note_on_c, 0, 79, 100
2, 2528340, Note_on_c, 0, 79, 0
2, 2528340, Note_on_c, 0, 78, 100
2, 2528400, Note_on_c, 0, 78, 0
2, 2528400, Note_on_c, 0, 76, 100
2, 2528520, Note_on_c, 0, 76, 0
2, 2528520, Note_on_c, 0, 67, 100
2, 2528640, Note_on_c, 0, 67, 0
2, 2528640, Note_on_c, 0, 66, 100
2, 2528760, Note_on_c, 0, 66, 0
2, 2528760, Note_on_c, 0, 67, 100
2, 2528880, Note_on_c, 0, 67, 0
2, 2528880, Note_on_c, 0, 71, 100
2, 2529000, Note_on_c, 0, 71, 0
2, 2529000, Note_on_c, 0, 76, 100
2, 2529120, Note_on_c, 0, 76, 0
2, 2529120, Note_on_c, 0, 75, 100
2, 2529240, Note_on_c, 0, 75, 0
2, 2529240, Note_on_c, 0, 76, 100
2, 2529360, Note_on_c, 0, 76, 0
2, 2529360, Note_on_c, 0, 79, 100
2, 2529420, Note_on_c, 0, 79, 0
2, 2529420, Note_on_c, 0, 77, 100
2, 2529480, Note_on_c, 0, 77, 0
2, 2529480, Note_on_c, 0, 76, 100
2, 2529600, Note_on_c, 0, 76, 0
2, 2529600, Note_on_c, 0, 77, 100
2, 2529660, Note_on_c, 0, 77, 0
2, 2529660, Note_on_c, 0, 76, 100
2, 2529720, Note_on_c, 0, 76, 0
2, 2529720, Note_on_c, 0, 74, 100
2, 2529840, Note_on_c, 0, 74, 0
2, 2529840, Note_on_c, 0, 76, 100
2, 2530080, Note_on_c, 0, 76, 0
2, 2530080, Note_on_c, 0, 64, 100
2, 2530320, Note_on_c, 0, 64, 0
2, 2530320, Note_on_c, 0, 63, 100
2, 2530560, Note_on_c, 0, 63, 0
2, 2530560, Note_on_c, 0, 62, 100
2, 2530800, Note_on_c, 0, 62, 0
2, 2530800, Note_on_c, 0, 61, 100
2, 2531040, Note_on_c, 0, 61, 0
2, 2531040, Note_on_c, 0, 76, 100
2, 2531280, Note_on_c, 0, 76, 0
2, 2531280, Note_on_c, 0, 74, 100
2, 2531520, Note_on_c, 0, 74, 0
2, 2531520, Note_on_c, 0, 62, 100
2, 2531760, Note_on_c, 0, 62, 0
2, 2531760, Note_on_c, 0, 61, 100
2, 2532000, Note_on_c, 0, 61, 0
2, 2532000, Note_on_c, 0, 60, 100
2, 2532240, Note_on_c, 0, 60, 0
2, 2532240, Note_on_c, 0, 59, 100
2, 2532480, Note_on_c, 0, 59, 0
2, 2532480, Note_on_c, 0, 74, 100
2, 2532720, Note_on_c, 0, 74, 0
2, 2532780, Note_on_c, 0, 72, 100
2, 2532840, Note_on_c, 0, 72, 0
2, 2532840, Note_on_c, 0, 74, 100
2, 2532900, Note_on_c, 0, 74, 0
2, 2532900, Note_on_c, 0, 72, 100
2, 2532960, Note_on_c, 0, 72, 0
2, 2532960, Note_on_c, 0, 74, 100
2, 2533020, Note_on_c, 0, 74, 0
2, 2533020, Note_on_c, 0, 72, 100
2, 2533080, Note_on_c, 0, 72, 0
2, 2533080, Note_on_c, 0, 74, 100
2, 2533140, Note_on_c, 0, 74, 0
2, 2533140, Note_on_c, 0, 72, 100
2, 2533200, Note_on_c, 0, 72, 0
2, 2533260, Note_on_c, 0, 72, 100
2, 2533320, Note_on_c, 0, 72, 0
2, 2533320, Note_on_c, 0, 74, 100
2, 2533380, Note_on_c, 0, 74, 0
2, 2533380, Note_on_c, 0, 72, 100
2, 2533440, Note_on_c, 0, 72, 0
2, 2533440, Note_on_c, 0, 74, 100
2, 2533500, Note_on_c, 0, 74, 0
2, 2533500, Note_on_c, 0, 72, 100
2, 2533560, Note_on_c, 0, 72, 0
2, 2533560, Note_on_c, 0, 74, 100
2, 2533620, Note_on_c, 0, 74, 0
2, 2533620, Note_on_c, 0, 72, 100
2, 2533680, Note_on_c, 0, 72, 0
2, 2533740, Note_on_c, 0, 72, 100
2, 2533800, Note_on_c, 0, 72, 0
2, 2533800, Note_on_c, 0, 74, 100
2, 2533860, Note_on_c, 0, 74, 0
2, 2533860, Note_on_c, 0, 72, 100
2, 2533920, Note_on_c, 0, 72, 0
2, 2533920, Note_on_c, 0, 74, 100
2, 2533980, Note_on_c, 0, 74, 0
2, 2533980, Note_on_c, 0, 72, 100
2, 2534040, Note_on_c, 0, 72, 0
2, 2534040, Note_on_c, 0, 74, 100
2, 2534100, Note_on_c, 0, 74, 0
2, 2534100, Note_on_c, 0, 72, 100
2, 2534160, Note_on_c, 0, 72, 0
2, 2534220, Note_on_c, 0, 72, 100
2, 2534280, Note_on_c, 0, 72, 0
2, 2534280, Note_on_c, 0, 74, 100
2, 2534340, Note_on_c, 0, 74, 0
2, 2534340, Note_on_c, 0, 72, 100
2, 2534400, Note_on_c, 0, 72, 0
2, 2534400, Note_on_c, 0, 74, 100
2, 2534460, Note_on_c, 0, 74, 0
2, 2534460, Note_on_c, 0, 72, 100
2, 2534520, Note_on_c, 0, 72, 0
2, 2534520, Note_on_c, 0, 74, 100
2, 2534580, Note_on_c, 0, 74, 0
2, 2534580, Note_on_c, 0, 72, 100
2, 2534640, Note_on_c, 0, 72, 0
2, 2534700, Note_on_c, 0, 72, 100
2, 2534760, Note_on_c, 0, 72, 0
2, 2534760, Note_on_c, 0, 74, 100
2, 2534820, Note_on_c, 0, 74, 0
2, 2534820, Note_on_c, 0, 72, 100
2, 2534880, Note_on_c, 0, 72, 0
2, 2534880, Note_on_c, 0, 74, 100
2, 2534940, Note_on_c, 0, 74, 0
2, 2534940, Note_on_c, 0, 72, 100
2, 2535000, Note_on_c, 0, 72, 0
2, 2535000, Note_on_c, 0, 74, 100
2, 2535060, Note_on_c, 0, 74, 0
2, 2535060, Note_on_c, 0, 72, 100
2, 2535120, Note_on_c, 0, 72, 0
2, 2535180, Note_on_c, 0, 72, 100
2, 2535240, Note_on_c, 0, 72, 0
2, 2535240, Note_on_c, 0, 74, 100
2, 2535300, Note_on_c, 0, 74, 0
2, 2535300, Note_on_c, 0, 72, 100
2, 2535360, Note_on_c, 0, 72, 0
2, 2535360, Note_on_c, 0, 74, 100
2, 2535420, Note_on_c, 0, 74, 0
2, 2535420, Note_on_c, 0, 72, 100
2, 2535480, Note_on_c, 0, 72, 0
2, 2535480, Note_on_c, 0, 74, 100
2, 2535540, Note_on_c, 0, 74, 0
2, 2535540, Note_on_c, 0, 72, 100
2, 2535600, Note_on_c, 0, 72, 0
2, 2535600, Note_on_c, 0, 71, 100
2, 2535720, Note_on_c, 0, 71, 0
2, 2536080, Note_on_c, 0, 72, 100
2, 2536200, Note_on_c, 0, 72, 0
2, 2536560, Note_on_c, 0, 74, 100
2, 2536680, Note_on_c, 0, 74, 0
2, 2537040, Note_on_c, 0, 64, 100
2, 2537280, Note_on_c, 0, 64, 0
2, 2537280, Note_on_c, 0, 76, 100
2, 2537520, Note_on_c, 0, 76, 0
2, 2537520, Note_on_c, 0, 77, 100
2, 2537760, Note_on_c, 0, 77, 0
2, 2537760, Note_on_c, 0, 78, 100
2, 2538000, Note_on_c, 0, 78, 0
2, 2538000, Note_on_c, 0, 79, 100
2, 2538240, Note_on_c, 0, 79, 0
2, 2538240, Note_on_c, 0, 80, 100
2, 2538480, Note_on_c, 0, 80, 0
2, 2538480, Note_on_c, 0, 81, 100
2, 2538600, Note_on_c, 0, 81, 0
2, 2538600, Note_on_c, 0, 66, 100
2, 2538720, Note_on_c, 0, 66, 0
2, 2538720, Note_on_c, 0, 64, 100
2, 2538840, Note_on_c, 0, 64, 0
2, 2538840, Note_on_c, 0, 66, 100
2, 2538960, Note_on_c, 0, 66, 0
2, 2538960, Note_on_c, 0, 67, 100
2, 2539080, Note_on_c, 0, 67, 0
2, 2539080, Note_on_c, 0, 71, 100
2, 2539200, Note_on_c, 0, 71, 0
2, 2539200, Note_on_c, 0, 69, 100
2, 2539320, Note_on_c, 0, 69, 0
2, 2539320, Note_on_c, 0, 71, 100
2, 2539440, Note_on_c, 0, 71, 0
2, 2539440, Note_on_c, 0, 72, 100
2, 2539560, Note_on_c, 0, 72, 0
2, 2539560, Note_on_c, 0, 69, 100
2, 2539680, Note_on_c, 0, 69, 0
2, 2539680, Note_on_c, 0, 66, 100
2, 2539800, Note_on_c, 0, 66, 0
2, 2539800, Note_on_c, 0, 62, 100
2, 2539920, Note_on_c, 0, 62, 0
2, 2539920, Note_on_c, 0, 67, 100
2, 2540040, Note_on_c, 0, 67, 0
2, 2540040, Note_on_c, 0, 71, 100
2, 2540160, Note_on_c, 0, 71, 0
2, 2540160, Note_on_c, 0, 69, 100
2, 2540280, Note_on_c, 0, 69, 0
2, 2540280, Note_on_c, 0, 71, 100
2, 2540400, Note_on_c, 0, 71, 0
2, 2540400, Note_on_c, 0, 74, 100
2, 2540520, Note_on_c, 0, 74, 0
2, 2540520, Note_on_c, 0, 79, 100
2, 2540640, Note_on_c, 0, 79, 0
2, 2540640, Note_on_c, 0, 78, 100
2, 2540760, Note_on_c, 0, 78, 0
2, 2540760, Note_on_c, 0, 79, 100
2, 2540880, Note_on_c, 0, 79, 0
2, 2540880, Note_on_c, 0, 83, 100
2, 2541360, Note_on_c, 0, 83, 0
2, 2547180, Note_on_c, 0, 79, 100
2, 2547240, Note_on_c, 0, 79, 0
2, 2547240, Note_on_c, 0, 81, 100
2, 2547300, Note_on_c, 0, 81, 0
2, 2547300, Note_on_c, 0, 79, 100
2, 2547360, Note_on_c, 0, 79, 0
2, 2547360, Note_on_c, 0, 81, 100
2, 2547420, Note_on_c, 0, 81, 0
2, 2547420, Note_on_c, 0, 79, 100
2, 2547480, Note_on_c, 0, 79, 0
2, 2547480, Note_on_c, 0, 81, 100
2, 2547540, Note_on_c, 0, 81, 0
2, 2547540, Note_on_c, 0, 79, 100
2, 2547600, Note_on_c, 0, 79, 0
2, 2547660, Note_on_c, 0, 79, 100
2, 2547720, Note_on_c, 0, 79, 0
2, 2547720, Note_on_c, 0, 81, 100
2, 2547780, Note_on_c, 0, 81, 0
2, 2547780, Note_on_c, 0, 79, 100
2, 2547840, Note_on_c, 0, 79, 0
2, 2547840, Note_on_c, 0, 81, 100
2, 2547900, Note_on_c, 0, 81, 0
2, 2547900, Note_on_c, 0, 79, 100
2, 2547960, Note_on_c, 0, 79, 0
2, 2547960, Note_on_c, 0, 81, 100
2, 2548020, Note_on_c, 0, 81, 0
2, 2548020, Note_on_c, 0, 79, 100
2, 2548080, Note_on_c, 0, 79, 0
2, 2548140, Note_on_c, 0, 79, 100
2, 2548200, Note_on_c, 0, 79, 0
2, 2548200, Note_on_c, 0, 81, 100
2, 2548260, Note_on_c, 0, 81, 0
2, 2548260, Note_on_c, 0, 79, 100
2, 2548320, Note_on_c, 0, 79, 0
2, 2548320, Note_on_c, 0, 81, 100
2, 2548380, Note_on_c, 0, 81, 0
2, 2548380, Note_on_c, 0, 79, 100
2, 2548440, Note_on_c, 0, 79, 0
2, 2548440, Note_on_c, 0, 81, 100
2, 2548500, Note_on_c, 0, 81, 0
2, 2548500, Note_on_c, 0, 79, 100
2, 2548560, Note_on_c, 0, 79, 0
2, 2548620, Note_on_c, 0, 79, 100
2, 2548680, Note_on_c, 0, 79, 0
2, 2548680, Note_on_c, 0, 81, 100
2, 2548740, Note_on_c, 0, 81, 0
2, 2548740, Note_on_c, 0, 79, 100
2, 2548800, Note_on_c, 0, 79, 0
2, 2548800, Note_on_c, 0, 81, 100
2, 2548860, Note_on_c, 0, 81, 0
2, 2548860, Note_on_c, 0, 79, 100
2, 2548920, Note_on_c, 0, 79, 0
2, 2548920, Note_on_c, 0, 81, 100
2, 2548980, Note_on_c, 0, 81, 0
2, 2548980, Note_on_c, 0, 79, 100
2, 2549040, Note_on_c, 0, 79, 0
2, 2549100, Note_on_c, 0, 79, 100
2, 2549160, Note_on_c, 0, 79, 0
2, 2549160, Note_on_c, 0, 81, 100
2, 2549220, Note_on_c, 0, 81, 0
2, 2549220, Note_on_c, 0, 79, 100
2, 2549280, Note_on_c, 0, 79, 0
2, 2549280, Note_on_c, 0, 81, 100
2, 2549340, Note_on_c, 0, 81, 0
2, 2549340, Note_on_c, 0, 79, 100
2, 2549400, Note_on_c, 0, 79, 0
2, 2549400, Note_on_c, 0, 81, 100
2, 2549460, Note_on_c, 0, 81, 0
2, 2549460, Note_on_c, 0, 79, 100
2, 2549520, Note_on_c, 0, 79, 0
2, 2549580, Note_on_c, 0, 79, 100
2, 2549640, Note_on_c, 0, 79, 0
2, 2549640, Note_on_c, 0, 81, 100
2, 2549700, Note_on_c, 0, 81, 0
2, 2549700, Note_on_c, 0, 79, 100
2, 2549760, Note_on_c, 0, 79, 0
2, 2549760, Note_on_c, 0, 81, 100
2, 2549820, Note_on_c, 0, 81, 0
2, 2549820, Note_on_c, 0, 79, 100
2, 2549880, Note_on_c, 0, 79, 0
2, 2549880, Note_on_c, 0, 81, 100
2, 2549940, Note_on_c, 0, 81, 0
2, 2549940, Note_on_c, 0, 79, 100
2, 2550000, Note_on_c, 0, 79, 0
2, 2550060, Note_on_c, 0, 79, 100
2, 2550120, Note_on_c, 0, 79, 0
2, 2550120, Note_on_c, 0, 81, 100
2, 2550180, Note_on_c, 0, 81, 0
2, 2550180, Note_on_c, 0, 79, 100
2, 2550240, Note_on_c, 0, 79, 0
2, 2550240, Note_on_c, 0, 81, 100
2, 2550300, Note_on_c, 0, 81, 0
2, 2550300, Note_on_c, 0, 79, 100
2, 2550360, Note_on_c, 0, 79, 0
2, 2550360, Note_on_c, 0, 81, 100
2, 2550420, Note_on_c, 0, 81, 0
2, 2550420, Note_on_c, 0, 79, 100
2, 2550480, Note_on_c, 0, 79, 0
2, 2550540, Note_on_c, 0, 79, 100
2, 2550600, Note_on_c, 0, 79, 0
2, 2550600, Note_on_c, 0, 81, 100
2, 2550660, Note_on_c, 0, 81, 0
2, 2550660, Note_on_c, 0, 79, 100
2, 2550720, Note_on_c, 0, 79, 0
2, 2550720, Note_on_c, 0, 81, 100
2, 2550780, Note_on_c, 0, 81, 0
2, 2550780, Note_on_c, 0, 79, 100
2, 2550840, Note_on_c, 0, 79, 0
2, 2550840, Note_on_c, 0, 81, 100
2, 2550900, Note_on_c, 0, 81, 0
2, 2550900, Note_on_c, 0, 79, 100
2, 2550960, Note_on_c, 0, 79, 0
2, 2551020, Note_on_c, 0, 78, 100
2, 2551080, Note_on_c, 0, 78, 0
2, 2551080, Note_on_c, 0, 79, 100
2, 2551140, Note_on_c, 0, 79, 0
2, 2551140, Note_on_c, 0, 78, 100
2, 2551200, Note_on_c, 0, 78, 0
2, 2551200, Note_on_c, 0, 79, 100
2, 2551260, Note_on_c, 0, 79, 0
2, 2551260, Note_on_c, 0, 78, 100
2, 2551320, Note_on_c, 0, 78, 0
2, 2551320, Note_on_c, 0, 79, 100
2, 2551380, Note_on_c, 0, 79, 0
2, 2551380, Note_on_c, 0, 78, 100
2, 2551440, Note_on_c, 0, 78, 0
2, 2551440, Note_on_c, 0, 76, 100
2, 2551560, Note_on_c, 0, 76, 0
2, 2551560, Note_on_c, 0, 67, 100
2, 2551680, Note_on_c, 0, 67, 0
2, 2551680, Note_on_c, 0, 66, 100
2, 2551800, Note_on_c, 0, 66, 0
2, 2551800, Note_on_c, 0, 67, 100
2, 2551920, Note_on_c, 0, 67, 0
2, 2551920, Note_on_c, 0, 71, 100
2, 2552040, Note_on_c, 0, 71, 0
2, 2552040, Note_on_c, 0, 76, 100
2, 2552160, Note_on_c, 0, 76, 0
2, 2552160, Note_on_c, 0, 75, 100
2, 2552280, Note_on_c, 0, 75, 0
2, 2552280, Note_on_c, 0, 76, 100
2, 2552400, Note_on_c, 0, 76, 0
2, 2552400, Note_on_c, 0, 79, 100
2, 2552460, Note_on_c, 0, 79, 0
2, 2552460, Note_on_c, 0, 77, 100
2, 2552520, Note_on_c, 0, 77, 0
2, 2552520, Note_on_c, 0, 76, 100
2, 2552640, Note_on_c, 0, 76, 0
2, 2552640, Note_on_c, 0, 77, 100
2, 2552700, Note_on_c, 0, 77, 0
2, 2552700, Note_on_c, 0, 76, 100
2, 2552760, Note_on_c, 0, 76, 0
2, 2552760, Note_on_c, 0, 74, 100
2, 2552880, Note_on_c, 0, 74, 0
2, 2552880, Note_on_c, 0, 76, 100
2, 2553120, Note_on_c, 0, 76, 0
2, 2553120, Note_on_c, 0, 64, 100
2, 2553360, Note_on_c, 0, 64, 0
2, 2553360, Note_on_c, 0, 63, 100
2, 2553600, Note_on_c, 0, 63, 0
2, 2553600, Note_on_c, 0, 62, 100
2, 2553840, Note_on_c, 0, 62, 0
2, 2553840, Note_on_c, 0, 61, 100
2, 2554080, Note_on_c, 0, 61, 0
2, 2554080, Note_on_c, 0, 76, 100
2, 2554320, Note_on_c, 0, 76, 0
2, 2554320, Note_on_c, 0, 74, 100
2, 2554560, Note_on_c, 0, 74, 0
2, 2554560, Note_on_c, 0, 62, 100
2, 2554800, Note_on_c, 0, 62, 0
2, 2554800, Note_on_c, 0, 61, 100
2, 2555040, Note_on_c, 0, 61, 0
2, 2555040, Note_on_c, 0, 60, 100
2, 2555280, Note_on_c, 0, 60, 0
2, 2555280, Note_on_c, 0, 59, 100
2, 2555520, Note_on_c, 0, 59, 0
2, 2555520, Note_on_c, 0, 74, 100
2, 2555760, Note_on_c, 0, 74, 0
2, 2555820, Note_on_c, 0, 72, 100
2, 2555880, Note_on_c, 0, 72, 0
2, 2555880, Note_on_c, 0, 74, 100
2, 2555940, Note_on_c, 0, 74, 0
2, 2555940, Note_on_c, 0, 72, 100
2, 2556000, Note_on_c, 0, 72, 0
2, 2556000, Note_on_c, 0, 74, 100
2, 2556060, Note_on_c, 0, 74, 0
2, 2556060, Note_on_c, 0, 72, 100
2, 2556120, Note_on_c, 0, 72, 0
2, 2556120, Note_on_c, 0, 74, 100
2, 2556180, Note_on_c, 0, 74, 0
2, 2556180, Note_on_c, 0, 72, 100
2, 2556240, Note_on_c, 0, 72, 0
2, 2556300, Note_on_c, 0, 72, 100
2, 2556360, Note_on_c, 0, 72, 0
2, 2556360, Note_on_c, 0, 74, 100
2, 2556420, Note_on_c, 0, 74, 0
2, 2556420, Note_on_c, 0, 72, 100
2, 2556480, Note_on_c, 0, 72, 0
2, 2556480, Note_on_c, 0, 74, 100
2, 2556540, Note_on_c, 0, 74, 0
2, 2556540, Note_on_c, 0, 72, 100
2, 2556600, Note_on_c, 0, 72, 0
2, 2556600, Note_on_c, 0, 74, 100
2, 2556660, Note_on_c, 0, 74, 0
2, 2556660, Note_on_c, 0, 72, 100
2, 2556720, Note_on_c, 0, 72, 0
2, 2556780, Note_on_c, 0, 72, 100
2, 2556840, Note_on_c, 0, 72, 0
2, 2556840, Note_on_c, 0, 74, 100
2, 2556900, Note_on_c, 0, 74, 0
2, 2556900, Note_on_c, 0, 72, 100
2, 2556960, Note_on_c, 0, 72, 0
2, 2556960, Note_on_c, 0, 74, 100
2, 2557020, Note_on_c, 0, 74, 0
2, 2557020, Note_on_c, 0, 72, 100
2, 2557080, Note_on_c, 0, 72, 0
2, 2557080, Note_on_c, 0, 74, 100
2, 2557140, Note_on_c, 0, 74, 0
2, 2557140, Note_on_c, 0, 72, 100
2, 2557200, Note_on_c, 0, 72, 0
2, 2557260, Note_on_c, 0, 72, 100
2, 2557320, Note_on_c, 0, 72, 0
2, 2557320, Note_on_c, 0, 74, 100
2, 2557380, Note_on_c, 0, 74, 0
2, 2557380, Note_on_c, 0, 72, 100
2, 2557440, Note_on_c, 0, 72, 0
2, 2557440, Note_on_c, 0, 74, 100
2, 2557500, Note_on_c, 0, 74, 0
2, 2557500, Note_on_c, 0, 72, 100
2, 2557560, Note_on_c, 0, 72, 0
2, 2557560, Note_on_c, 0, 74, 100
2, 2557620, Note_on_c, 0, 74, 0
2, 2557620, Note_on_c, 0, 72, 100
2, 2557680, Note_on_c, 0, 72, 0
2, 2557740, Note_on_c, 0, 72, 100
2, 2557800, Note_on_c, 0, 72, 0
2, 2557800, Note_on_c, 0, 74, 100
2, 2557860, Note_on_c, 0, 74, 0
2, 2557860, Note_on_c, 0, 72, 100
2, 2557920, Note_on_c, 0, 72, 0
2, 2557920, Note_on_c, 0, 74, 100
2, 2557980, Note_on_c, 0, 74, 0
2, 2557980, Note_on_c, 0, 72, 100
2, 2558040, Note_on_c, 0, 72, 0
2, 2558040, Note_on_c, 0, 74, 100
2, 2558100, Note_on_c, 0, 74, 0
2, 2558100, Note_on_c, 0, 72, 100
2, 2558160, Note_on_c, 0, 72, 0
2, 2558220, Note_on_c, 0, 72, 100
2, 2558280, Note_on_c, 0, 72, 0
2, 2558280, Note_on_c, 0, 74, 100
2, 2558340, Note_on_c, 0, 74, 0
2, 2558340, Note_on_c, 0, 72, 100
2, 2558400, Note_on_c, 0, 72, 0
2, 2558400, Note_on_c, 0, 74, 100
2, 2558460, Note_on_c, 0, 74, 0
2, 2558460, Note_on_c, 0, 72, 100
2, 2558520, Note_on_c, 0, 72, 0
2, 2558520, Note_on_c, 0, 74, 100
2, 2558580, Note_on_c, 0, 74, 0
2, 2558580, Note_on_c, 0, 72, 100
2, 2558640, Note_on_c, 0, 72, 0
2, 2558640, Note_on_c, 0, 71, 100
2, 2558760, Note_on_c, 0, 71, 0
2, 2559120, Note_on_c, 0, 72, 100
2, 2559240, Note_on_c, 0, 72, 0
2, 2559600, Note_on_c, 0, 74, 100
2, 2559720, Note_on_c, 0, 74, 0
2, 2560080, Note_on_c, 0, 64, 100
2, 2560320, Note_on_c, 0, 64, 0
2, 2560320, Note_on_c, 0, 76, 100
2, 2560560, Note_on_c, 0, 76, 0
2, 2560560, Note_on_c, 0, 77, 100
2, 2560800, Note_on_c, 0, 77, 0
2, 2560800, Note_on_c, 0, 78, 100
2, 2561040, Note_on_c, 0, 78, 0
2, 2561040, Note_on_c, 0, 79, 100
2, 2561280, Note_on_c, 0, 79, 0
2, 2561280, Note_on_c, 0, 80, 100
2, 2561520, Note_on_c, 0, 80, 0
2, 2561520, Note_on_c, 0, 81, 100
2, 2561640, Note_on_c, 0, 81, 0
2, 2561640, Note_on_c, 0, 66, 100
2, 2561760, Note_on_c, 0, 66, 0
2, 2561760, Note_on_c, 0, 64, 100
2, 2561880, Note_on_c, 0, 64, 0
2, 2561880, Note_on_c, 0, 66, 100
2, 2562000, Note_on_c, 0, 66, 0
2, 2562000, Note_on_c, 0, 67, 100
2, 2562120, Note_on_c, 0, 67, 0
2, 2562120, Note_on_c, 0, 71, 100
2, 2562240, Note_on_c, 0, 71, 0
2, 2562240, Note_on_c, 0, 69, 100
2, 2562360, Note_on_c, 0, 69, 0
2, 2562360, Note_on_c, 0, 71, 100
2, 2562480, Note_on_c, 0, 71, 0
2, 2562480, Note_on_c, 0, 72, 100
2, 2562600, Note_on_c, 0, 72, 0
2, 2562600, Note_on_c, 0, 69, 100
2, 2562720, Note_on_c, 0, 69, 0
2, 2562720, Note_on_c, 0, 66, 100
2, 2562840, Note_on_c, 0, 66, 0
2, 2562840, Note_on_c, 0, 62, 100
2, 2562960, Note_on_c, 0, 62, 0
2, 2562960, Note_on_c, 0, 67, 100
2, 2563080, Note_on_c, 0, 67, 0
2, 2563080, Note_on_c, 0, 71, 100
2, 2563200, Note_on_c, 0, 71, 0
2, 2563200, Note_on_c, 0, 69, 100
2, 2563320, Note_on_c, 0, 69, 0
2, 2563320, Note_on_c, 0, 71, 100
2, 2563440, Note_on_c, 0, 71, 0
2, 2563440, Note_on_c, 0, 74, 100
2, 2563560, Note_on_c, 0, 74, 0
2, 2563560, Note_on_c, 0, 79, 100
2, 2563680, Note_on_c, 0, 79, 0
2, 2563680, Note_on_c, 0, 78, 100
2, 2563800, Note_on_c, 0, 78, 0
2, 2563800, Note_on_c, 0, 79, 100
2, 2563920, Note_on_c, 0, 79, 0
2, 2563920, Note_on_c, 0, 83, 100
2, 2564400, Note_on_c, 0, 83, 0
2, 2564760, Note_on_c, 0, 59, 100
2, 2564760, Note_on_c, 0, 62, 100
2, 2564760, Note_on_c, 0, 67, 100
2, 2564880, Note_on_c, 0, 67, 0
2, 2564880, Note_on_c, 0, 62, 0
2, 2564880, Note_on_c, 0, 59, 0
2, 2565000, Note_on_c, 0, 59, 100
2, 2565000, Note_on_c, 0, 62, 100
2, 2565000, Note_on_c, 0, 67, 100
2, 2565120, Note_on_c, 0, 67, 0
2, 2565120, Note_on_c, 0, 62, 0
2, 2565120, Note_on_c, 0, 59, 0
2, 2565240, Note_on_c, 0, 59, 100
2, 2565240, Note_on_c, 0, 62, 100
2, 2565240, Note_on_c, 0, 67, 100
2, 2565360, Note_on_c, 0, 67, 0
2, 2565360, Note_on_c, 0, 62, 0
2, 2565360, Note_on_c, 0, 59, 0
2, 2565480, Note_on_c, 0, 59, 100
2, 2565480, Note_on_c, 0, 62, 100
2, 2565480, Note_on_c, 0, 67, 100
2, 2565600, Note_on_c, 0, 67, 0
2, 2565600, Note_on_c, 0, 62, 0
2, 2565600, Note_on_c, 0, 59, 0
2, 2565720, Note_on_c, 0, 59, 100
2, 2565720, Note_on_c, 0, 62, 100
2, 2565720, Note_on_c, 0, 67, 100
2, 2565840, Note_on_c, 0, 67, 0
2, 2565840, Note_on_c, 0, 62, 0
2, 2565840, Note_on_c, 0, 59, 0
2, 2566200, Note_on_c, 0, 66, 100
2, 2566200, Note_on_c, 0, 69, 100
2, 2566200, Note_on_c, 0, 74, 100
2, 2566320, Note_on_c, 0, 74, 0
2, 2566320, Note_on_c, 0, 69, 0
2, 2566320, Note_on_c, 0, 66, 0
2, 2566440, Note_on_c, 0, 66, 100
2, 2566440, Note_on_c, 0, 69, 100
2, 2566440, Note_on_c, 0, 74, 100
2, 2566560, Note_on_c, 0, 74, 0
2, 2566560, Note_on_c, 0, 69, 0
2, 2566560, Note_on_c, 0, 66, 0
2, 2566680, Note_on_c, 0, 66, 100
2, 2566680, Note_on_c, 0, 69, 100
2, 2566680, Note_on_c, 0, 74, 100
2, 2566800, Note_on_c, 0, 74, 0
2, 2566800, Note_on_c, 0, 69, 0
2, 2566800, Note_on_c, 0, 66, 0
2, 2566920, Note_on_c, 0, 66, 100
2, 2566920, Note_on_c, 0, 69, 100
2, 2566920, Note_on_c, 0, 74, 100
2, 2567040, Note_on_c, 0, 74, 0
2, 2567040, Note_on_c, 0, 69, 0
2, 2567040, Note_on_c, 0, 66, 0
2, 2567160, Note_on_c, 0, 66, 100
2, 2567160, Note_on_c, 0, 69, 100
2, 2567160, Note_on_c, 0, 74, 100
2, 2567280, Note_on_c, 0, 74, 0
2, 2567280, Note_on_c, 0, 69, 0
2, 2567280, Note_on_c, 0, 66, 0
2, 2567640, Note_on_c, 0, 71, 100
2, 2567640, Note_on_c, 0, 79, 100
2, 2567640, Note_on_c, 0, 76, 100
2, 2567760, Note_on_c, 0, 76, 0
2, 2567760, Note_on_c, 0, 79, 0
2, 2567760, Note_on_c, 0, 71, 0
2, 2567880, Note_on_c, 0, 76, 100
2, 2567880, Note_on_c, 0, 71, 100
2, 2567880, Note_on_c, 0, 79, 100
2, 2568000, Note_on_c, 0, 79, 0
2, 2568000, Note_on_c, 0, 71, 0
2, 2568000, Note_on_c, 0, 76, 0
2, 2568120, Note_on_c, 0, 76, 100
2, 2568120, Note_on_c, 0, 71, 100
2, 2568120, Note_on_c, 0, 79, 100
2, 2568240, Note_on_c, 0, 79, 0
2, 2568240, Note_on_c, 0, 71, 0
2, 2568240, Note_on_c, 0, 76, 0
2, 2568360, Note_on_c, 0, 76, 100
2, 2568360, Note_on_c, 0, 71, 100
2, 2568360, Note_on_c, 0, 79, 100
2, 2568480, Note_on_c, 0, 79, 0
2, 2568480, Note_on_c, 0, 71, 0
2, 2568480, Note_on_c, 0, 76, 0
2, 2568600, Note_on_c, 0, 76, 100
2, 2568600, Note_on_c, 0, 79, 100
2, 2568600, Note_on_c, 0, 73, 100
2, 2568720, Note_on_c, 0, 73, 0
2, 2568720, Note_on_c, 0, 79, 0
2, 2568720, Note_on_c, 0, 76, 0
2, 2568720, Note_on_c, 0, 74, 100
2, 2568720, Note_on_c, 0, 69, 100
2, 2568720, Note_on_c, 0, 78, 100
2, 2568840, Note_on_c, 0, 78, 0
2, 2568840, Note_on_c, 0, 69, 0
2, 2568840, Note_on_c, 0, 74, 0
2, 2569280, Note_on_c, 0, 84, 100
2, 2569360, Note_on_c, 0, 84, 0
2, 2569360, Note_on_c, 0, 83, 100
2, 2569440, Note_on_c, 0, 83, 0
2, 2569440, Note_on_c, 0, 72, 100
2, 2569520, Note_on_c, 0, 72, 0
2, 2569520, Note_on_c, 0, 83, 100
2, 2569600, Note_on_c, 0, 83, 0
2, 2569600, Note_on_c, 0, 81, 100
2, 2569680, Note_on_c, 0, 81, 0
2, 2569680, Note_on_c, 0, 71, 100
2, 2569760, Note_on_c, 0, 71, 0
2, 2569760, Note_on_c, 0, 81, 100
2, 2569840, Note_on_c, 0, 81, 0
2, 2569840, Note_on_c, 0, 79, 100
2, 2569920, Note_on_c, 0, 79, 0
2, 2569920, Note_on_c, 0, 69, 100
2, 2570000, Note_on_c, 0, 69, 0
2, 2570000, Note_on_c, 0, 79, 100
2, 2570080, Note_on_c, 0, 79, 0
2, 2570080, Note_on_c, 0, 78, 100
2, 2570160, Note_on_c, 0, 78, 0
2, 2570160, Note_on_c, 0, 74, 100
2, 2570160, Note_on_c, 0, 79, 100
2, 2570160, Note_on_c, 0, 71, 100
2, 2570400, Note_on_c, 0, 71, 0
2, 2570400, Note_on_c, 0, 79, 0
2, 2570400, Note_on_c, 0, 74, 0
2, 2570520, Note_on_c, 0, 79, 100
2, 2570520, Note_on_c, 0, 71, 100
2, 2570520, Note_on_c, 0, 74, 100
2, 2570640, Note_on_c, 0, 74, 0
2, 2570640, Note_on_c, 0, 71, 0
2, 2570640, Note_on_c, 0, 79, 0
2, 2570760, Note_on_c, 0, 74, 100
2, 2570760, Note_on_c, 0, 71, 100
2, 2570760, Note_on_c, 0, 79, 100
2, 2570880, Note_on_c, 0, 79, 0
2, 2570880, Note_on_c, 0, 71, 0
2, 2570880, Note_on_c, 0, 74, 0
2, 2571000, Note_on_c, 0, 71, 100
2, 2571000, Note_on_c, 0, 79, 100
2, 2571000, Note_on_c, 0, 74, 100
2, 2571120, Note_on_c, 0, 74, 0
2, 2571120, Note_on_c, 0, 79, 0
2, 2571120, Note_on_c, 0, 71, 0
2, 2571240, Note_on_c, 0, 74, 100
2, 2571240, Note_on_c, 0, 71, 100
2, 2571240, Note_on_c, 0, 79, 100
2, 2571360, Note_on_c, 0, 79, 0
2, 2571360, Note_on_c, 0, 71, 0
2, 2571360, Note_on_c, 0, 74, 0
2, 2571480, Note_on_c, 0, 71, 100
2, 2571480, Note_on_c, 0, 74, 100
2, 2571480, Note_on_c, 0, 77, 100
2, 2571600, Note_on_c, 0, 77, 0
2, 2571600, Note_on_c, 0, 74, 0
2, 2571600, Note_on_c, 0, 71, 0
2, 2571960, Note_on_c, 0, 67, 100
2, 2571960, Note_on_c, 0, 72, 100
2, 2571960, Note_on_c, 0, 76, 100
2, 2572080, Note_on_c, 0, 76, 0
2, 2572080, Note_on_c, 0, 72, 0
2, 2572080, Note_on_c, 0, 67, 0
2, 2572200, Note_on_c, 0, 67, 100
2, 2572200, Note_on_c, 0, 72, 100
2, 2572200, Note_on_c, 0, 76, 100
2, 2572320, Note_on_c, 0, 76, 0
2, 2572320, Note_on_c, 0, 72, 0
2, 2572320, Note_on_c, 0, 67, 0
2, 2572440, Note_on_c, 0, 72, 100
2, 2572440, Note_on_c, 0, 67, 100
2, 2572440, Note_on_c, 0, 76, 100
2, 2572560, Note_on_c, 0, 76, 0
2, 2572560, Note_on_c, 0, 67, 0
2, 2572560, Note_on_c, 0, 72, 0
2, 2572680, Note_on_c, 0, 72, 100
2, 2572680, Note_on_c, 0, 67, 100
2, 2572680, Note_on_c, 0, 76, 100
2, 2572800, Note_on_c, 0, 76, 0
2, 2572800, Note_on_c, 0, 67, 0
2, 2572800, Note_on_c, 0, 72, 0
2, 2572920, Note_on_c, 0, 67, 100
2, 2572920, Note_on_c, 0, 72, 100
2, 2572920, Note_on_c, 0, 76, 100
2, 2573040, Note_on_c, 0, 76, 0
2, 2573040, Note_on_c, 0, 72, 0
2, 2573040, Note_on_c, 0, 67, 0
2, 2573400, Note_on_c, 0, 74, 100
2, 2573400, Note_on_c, 0, 69, 100
2, 2573400, Note_on_c, 0, 66, 100
2, 2573520, Note_on_c, 0, 66, 0
2, 2573520, Note_on_c, 0, 69, 0
2, 2573520, Note_on_c, 0, 74, 0
2, 2573640, Note_on_c, 0, 74, 100
2, 2573640, Note_on_c, 0, 66, 100
2, 2573640, Note_on_c, 0, 69, 100
2, 2573760, Note_on_c, 0, 69, 0
2, 2573760, Note_on_c, 0, 66, 0
2, 2573760, Note_on_c, 0, 74, 0
2, 2573880, Note_on_c, 0, 69, 100
2, 2573880, Note_on_c, 0, 74, 100
2, 2573880, Note_on_c, 0, 66, 100
2, 2574000, Note_on_c, 0, 66, 0
2, 2574000, Note_on_c, 0, 74, 0
2, 2574000, Note_on_c, 0, 69, 0
2, 2574120, Note_on_c, 0, 66, 100
2, 2574120, Note_on_c, 0, 74, 100
2, 2574120, Note_on_c, 0, 69, 100
2, 2574240, Note_on_c, 0, 69, 0
2, 2574240, Note_on_c, 0, 74, 0
2, 2574240, Note_on_c, 0, 66, 0
2, 2574360, Note_on_c, 0, 66, 100
2, 2574360, Note_on_c, 0, 69, 100
2, 2574360, Note_on_c, 0, 72, 100
2, 2574480, Note_on_c, 0, 72, 0
2, 2574480, Note_on_c, 0, 69, 0
2, 2574480, Note_on_c, 0, 66, 0
2, 2574480, Note_on_c, 0, 71, 100
2, 2574480, Note_on_c, 0, 67, 100
2, 2574480, Note_on_c, 0, 62, 100
2, 2574600, Note_on_c, 0, 62, 0
2, 2574600, Note_on_c, 0, 67, 0
2, 2574600, Note_on_c, 0, 71, 0
2, 2575040, Note_on_c, 0, 69, 100
2, 2575120, Note_on_c, 0, 69, 0
2, 2575120, Note_on_c, 0, 71, 100
2, 2575200, Note_on_c, 0, 71, 0
2, 2575200, Note_on_c, 0, 72, 100
2, 2575280, Note_on_c, 0, 72, 0
2, 2575280, Note_on_c, 0, 71, 100
2, 2575360, Note_on_c, 0, 71, 0
2, 2575360, Note_on_c, 0, 69, 100
2, 2575440, Note_on_c, 0, 69, 0
2, 2575440, Note_on_c, 0, 71, 100
2, 2575520, Note_on_c, 0, 71, 0
2, 2575520, Note_on_c, 0, 69, 100
2, 2575600, Note_on_c, 0, 69, 0
2, 2575600, Note_on_c, 0, 67, 100
2, 2575680, Note_on_c, 0, 67, 0
2, 2575680, Note_on_c, 0, 76, 100
2, 2575760, Note_on_c, 0, 76, 0
2, 2575760, Note_on_c, 0, 74, 100
2, 2575840, Note_on_c, 0, 74, 0
2, 2575840, Note_on_c, 0, 72, 100
2, 2575920, Note_on_c, 0, 72, 0
2, 2575920, Note_on_c, 0, 74, 100
2, 2576000, Note_on_c, 0, 74, 0
2, 2576080, Note_on_c, 0, 67, 100
2, 2576160, Note_on_c, 0, 67, 0
2, 2576160, Note_on_c, 0, 66, 100
2, 2576240, Note_on_c, 0, 66, 0
2, 2576240, Note_on_c, 0, 60, 100
2, 2576320, Note_on_c, 0, 60, 0
2, 2576560, Note_on_c, 0, 67, 100
2, 2576640, Note_on_c, 0, 67, 0
2, 2576640, Note_on_c, 0, 69, 100
2, 2576720, Note_on_c, 0, 69, 0
2, 2576720, Note_on_c, 0, 66, 100
2, 2576800, Note_on_c, 0, 66, 0
2, 2577040, Note_on_c, 0, 71, 100
2, 2577120, Note_on_c, 0, 71, 0
2, 2577120, Note_on_c, 0, 73, 100
2, 2577200, Note_on_c, 0, 73, 0
2, 2577200, Note_on_c, 0, 69, 100
2, 2577280, Note_on_c, 0, 69, 0
2, 2577520, Note_on_c, 0, 74, 100
2, 2577600, Note_on_c, 0, 74, 0
2, 2577600, Note_on_c, 0, 73, 100
2, 2577680, Note_on_c, 0, 73, 0
2, 2577680, Note_on_c, 0, 67, 100
2, 2577760, Note_on_c, 0, 67, 0
2, 2578000, Note_on_c, 0, 74, 100
2, 2578080, Note_on_c, 0, 74, 0
2, 2578080, Note_on_c, 0, 76, 100
2, 2578160, Note_on_c, 0, 76, 0
2, 2578160, Note_on_c, 0, 73, 100
2, 2578240, Note_on_c, 0, 73, 0
2, 2578480, Note_on_c, 0, 78, 100
2, 2578560, Note_on_c, 0, 78, 0
2, 2578560, Note_on_c, 0, 74, 100
2, 2578640, Note_on_c, 0, 74, 0
2, 2578640, Note_on_c, 0, 71, 100
2, 2578720, Note_on_c, 0, 71, 0
2, 2578960, Note_on_c, 0, 72, 100
2, 2579040, Note_on_c, 0, 72, 0
2, 2579040, Note_on_c, 0, 71, 100
2, 2579120, Note_on_c, 0, 71, 0
2, 2579120, Note_on_c, 0, 67, 100
2, 2579200, Note_on_c, 0, 67, 0
2, 2579440, Note_on_c, 0, 69, 100
2, 2579520, Note_on_c, 0, 69, 0
2, 2579520, Note_on_c, 0, 67, 100
2, 2579600, Note_on_c, 0, 67, 0
2, 2579600, Note_on_c, 0, 64, 100
2, 2579680, Note_on_c, 0, 64, 0
2, 2579920, Note_on_c, 0, 66, 100
2, 2580000, Note_on_c, 0, 66, 0
2, 2580000, Note_on_c, 0, 64, 100
2, 2580080, Note_on_c, 0, 64, 0
2, 2580080, Note_on_c, 0, 61, 100
2, 2580160, Note_on_c, 0, 61, 0
2, 2580400, Note_on_c, 0, 66, 100
2, 2580480, Note_on_c, 0, 66, 0
2, 2580480, Note_on_c, 0, 64, 100
2, 2580560, Note_on_c, 0, 64, 0
2, 2580560, Note_on_c, 0, 61, 100
2, 2580640, Note_on_c, 0, 61, 0
2, 2580880, Note_on_c, 0, 62, 100
2, 2580960, Note_on_c, 0, 62, 0
2, 2580960, Note_on_c, 0, 61, 100
2, 2581040, Note_on_c, 0, 61, 0
2, 2581040, Note_on_c, 0, 57, 100
2, 2581120, Note_on_c, 0, 57, 0
2, 2581360, Note_on_c, 0, 59, 100
2, 2581440, Note_on_c, 0, 59, 0
2, 2581440, Note_on_c, 0, 57, 100
2, 2581520, Note_on_c, 0, 57, 0
2, 2581520, Note_on_c, 0, 54, 100
2, 2581600, Note_on_c, 0, 54, 0
2, 2581840, Note_on_c, 0, 59, 100
2, 2581920, Note_on_c, 0, 59, 0
2, 2581920, Note_on_c, 0, 57, 100
2, 2582000, Note_on_c, 0, 57, 0
2, 2582000, Note_on_c, 0, 54, 100
2, 2582080, Note_on_c, 0, 54, 0
2, 2582320, Note_on_c, 0, 55, 100
2, 2582400, Note_on_c, 0, 55, 0
2, 2582400, Note_on_c, 0, 54, 100
2, 2582480, Note_on_c, 0, 54, 0
2, 2582480, Note_on_c, 0, 50, 100
2, 2582560, Note_on_c, 0, 50, 0
2, 2582800, Note_on_c, 0, 52, 100
2, 2582880, Note_on_c, 0, 52, 0
2, 2582880, Note_on_c, 0, 50, 100
2, 2582960, Note_on_c, 0, 50, 0
2, 2582960, Note_on_c, 0, 47, 100
2, 2583040, Note_on_c, 0, 47, 0
2, 2583280, Note_on_c, 0, 52, 100
2, 2583360, Note_on_c, 0, 52, 0
2, 2583360, Note_on_c, 0, 50, 100
2, 2583440, Note_on_c, 0, 50, 0
2, 2583440, Note_on_c, 0, 47, 100
2, 2583520, Note_on_c, 0, 47, 0
2, 2583760, Note_on_c, 0, 48, 100
2, 2583840, Note_on_c, 0, 48, 0
2, 2583840, Note_on_c, 0, 47, 100
2, 2583920, Note_on_c, 0, 47, 0
2, 2583920, Note_on_c, 0, 43, 100
2, 2584000, Note_on_c, 0, 43, 0
2, 2584240, Note_on_c, 0, 45, 100
2, 2584320, Note_on_c, 0, 45, 0
2, 2584320, Note_on_c, 0, 43, 100
2, 2584400, Note_on_c, 0, 43, 0
2, 2584400, Note_on_c, 0, 40, 100
2, 2584480, Note_on_c, 0, 40, 0
2, 2584640, Note_on_c, 0, 55, 100
2, 2584720, Note_on_c, 0, 55, 0
2, 2584720, Note_on_c, 0, 57, 100
2, 2584800, Note_on_c, 0, 57, 0
2, 2584800, Note_on_c, 0, 64, 100
2, 2584880, Note_on_c, 0, 64, 0
2, 2584880, Note_on_c, 0, 57, 100
2, 2584960, Note_on_c, 0, 57, 0
2, 2584960, Note_on_c, 0, 55, 100
2, 2585040, Note_on_c, 0, 55, 0
2, 2585120, Note_on_c, 0, 54, 100
2, 2585200, Note_on_c, 0, 54, 0
2, 2585200, Note_on_c, 0, 57, 100
2, 2585280, Note_on_c, 0, 57, 0
2, 2585280, Note_on_c, 0, 62, 100
2, 2585360, Note_on_c, 0, 62, 0
2, 2585360, Note_on_c, 0, 57, 100
2, 2585440, Note_on_c, 0, 57, 0
2, 2585440, Note_on_c, 0, 54, 100
2, 2585520, Note_on_c, 0, 54, 0
2, 2585600, Note_on_c, 0, 52, 100
2, 2585680, Note_on_c, 0, 52, 0
2, 2585680, Note_on_c, 0, 55, 100
2, 2585760, Note_on_c, 0, 55, 0
2, 2585760, Note_on_c, 0, 61, 100
2, 2585840, Note_on_c, 0, 61, 0
2, 2585840, Note_on_c, 0, 55, 100
2, 2585920, Note_on_c, 0, 55, 0
2, 2585920, Note_on_c, 0, 52, 100
2, 2586000, Note_on_c, 0, 52, 0
2, 2586360, Note_on_c, 0, 57, 100
2, 2586360, Note_on_c, 0, 62, 100
2, 2586360, Note_on_c, 0, 54, 100
2, 2586480, Note_on_c, 0, 54, 0
2, 2586480, Note_on_c, 0, 62, 0
2, 2586480, Note_on_c, 0, 57, 0
2, 2586600, Note_on_c, 0, 57, 100
2, 2586600, Note_on_c, 0, 62, 100
2, 2586600, Note_on_c, 0, 54, 100
2, 2586720, Note_on_c, 0, 54, 0
2, 2586720, Note_on_c, 0, 62, 0
2, 2586720, Note_on_c, 0, 57, 0
2, 2586840, Note_on_c, 0, 57, 100
2, 2586840, Note_on_c, 0, 62, 100
2, 2586840, Note_on_c, 0, 54, 100
2, 2586960, Note_on_c, 0, 54, 0
2, 2586960, Note_on_c, 0, 62, 0
2, 2586960, Note_on_c, 0, 57, 0
2, 2587800, Note_on_c, 0, 59, 100
2, 2587800, Note_on_c, 0, 62, 100
2, 2587800, Note_on_c, 0, 67, 100
2, 2587920, Note_on_c, 0, 67, 0
2, 2587920, Note_on_c, 0, 62, 0
2, 2587920, Note_on_c, 0, 59, 0
2, 2588040, Note_on_c, 0, 59, 100
2, 2588040, Note_on_c, 0, 62, 100
2, 2588040, Note_on_c, 0, 67, 100
2, 2588160, Note_on_c, 0, 67, 0
2, 2588160, Note_on_c, 0, 62, 0
2, 2588160, Note_on_c, 0, 59, 0
2, 2588280, Note_on_c, 0, 59, 100
2, 2588280, Note_on_c, 0, 62, 100
2, 2588280, Note_on_c, 0, 67, 100
2, 2588400, Note_on_c, 0, 67, 0
2, 2588400, Note_on_c, 0, 62, 0
2, 2588400, Note_on_c, 0, 59, 0
2, 2588520, Note_on_c, 0, 59, 100
2, 2588520, Note_on_c, 0, 62, 100
2, 2588520, Note_on_c, 0, 67, 100
2, 2588640, Note_on_c, 0, 67, 0
2, 2588640, Note_on_c, 0, 62, 0
2, 2588640, Note_on_c, 0, 59, 0
2, 2588760, Note_on_c, 0, 59, 100
2, 2588760, Note_on_c, 0, 62, 100
2, 2588760, Note_on_c, 0, 67, 100
2, 2588880, Note_on_c, 0, 67, 0
2, 2588880, Note_on_c, 0, 62, 0
2, 2588880, Note_on_c, 0, 59, 0
2, 2589240, Note_on_c, 0, 66, 100
2, 2589240, Note_on_c, 0, 69, 100
2, 2589240, Note_on_c, 0, 74, 100
2, 2589360, Note_on_c, 0, 74, 0
2, 2589360, Note_on_c, 0, 69, 0
2, 2589360, Note_on_c, 0, 66, 0
2, 2589480, Note_on_c, 0, 66, 100
2, 2589480, Note_on_c, 0, 69, 100
2, 2589480, Note_on_c, 0, 74, 100
2, 2589600, Note_on_c, 0, 74, 0
2, 2589600, Note_on_c, 0, 69, 0
2, 2589600, Note_on_c, 0, 66, 0
2, 2589720, Note_on_c, 0, 66, 100
2, 2589720, Note_on_c, 0, 69, 100
2, 2589720, Note_on_c, 0, 74, 100
2, 2589840, Note_on_c, 0, 74, 0
2, 2589840, Note_on_c, 0, 69, 0
2, 2589840, Note_on_c, 0, 66, 0
2, 2589960, Note_on_c, 0, 66, 100
2, 2589960, Note_on_c, 0, 69, 100
2, 2589960, Note_on_c, 0, 74, 100
2, 2590080, Note_on_c, 0, 74, 0
2, 2590080, Note_on_c, 0, 69, 0
2, 2590080, Note_on_c, 0, 66, 0
2, 2590200, Note_on_c, 0, 66, 100
2, 2590200, Note_on_c, 0, 69, 100
2, 2590200, Note_on_c, 0, 74, 100
2, 2590320, Note_on_c, 0, 74, 0
2, 2590320, Note_on_c, 0, 69, 0
2, 2590320, Note_on_c, 0, 66, 0
2, 2590680, Note_on_c, 0, 71, 100
2, 2590680, Note_on_c, 0, 79, 100
2, 2590680, Note_on_c, 0, 76, 100
2, 2590800, Note_on_c, 0, 76, 0
2, 2590800, Note_on_c, 0, 79, 0
2, 2590800, Note_on_c, 0, 71, 0
2, 2590920, Note_on_c, 0, 76, 100
2, 2590920, Note_on_c, 0, 71, 100
2, 2590920, Note_on_c, 0, 79, 100
2, 2591040, Note_on_c, 0, 79, 0
2, 2591040, Note_on_c, 0, 71, 0
2, 2591040, Note_on_c, 0, 76, 0
2, 2591160, Note_on_c, 0, 76, 100
2, 2591160, Note_on_c, 0, 71, 100
2, 2591160, Note_on_c, 0, 79, 100
2, 2591280, Note_on_c, 0, 79, 0
2, 2591280, Note_on_c, 0, 71, 0
2, 2591280, Note_on_c, 0, 76, 0
2, 2591400, Note_on_c, 0, 76, 100
2, 2591400, Note_on_c, 0, 71, 100
2, 2591400, Note_on_c, 0, 79, 100
2, 2591520, Note_on_c, 0, 79, 0
2, 2591520, Note_on_c, 0, 71, 0
2, 2591520, Note_on_c, 0, 76, 0
2, 2591640, Note_on_c, 0, 76, 100
2, 2591640, Note_on_c, 0, 79, 100
2, 2591640, Note_on_c, 0, 73, 100
2, 2591760, Note_on_c, 0, 73, 0
2, 2591760, Note_on_c, 0, 79, 0
2, 2591760, Note_on_c, 0, 76, 0
2, 2591760, Note_on_c, 0, 74, 100
2, 2591760, Note_on_c, 0, 69, 100
2, 2591760, Note_on_c, 0, 78, 100
2, 2591880, Note_on_c, 0, 78, 0
2, 2591880, Note_on_c, 0, 69, 0
2, 2591880, Note_on_c, 0, 74, 0
2, 2592320, Note_on_c, 0, 84, 100
2, 2592400, Note_on_c, 0, 84, 0
2, 2592400, Note_on_c, 0, 83, 100
2, 2592480, Note_on_c, 0, 83, 0
2, 2592480, Note_on_c, 0, 72, 100
2, 2592560, Note_on_c, 0, 72, 0
2, 2592560, Note_on_c, 0, 83, 100
2, 2592640, Note_on_c, 0, 83, 0
2, 2592640, Note_on_c, 0, 81, 100
2, 2592720, Note_on_c, 0, 81, 0
2, 2592720, Note_on_c, 0, 71, 100
2, 2592800, Note_on_c, 0, 71, 0
2, 2592800, Note_on_c, 0, 81, 100
2, 2592880, Note_on_c, 0, 81, 0
2, 2592880, Note_on_c, 0, 79, 100
2, 2592960, Note_on_c, 0, 79, 0
2, 2592960, Note_on_c, 0, 69, 100
2, 2593040, Note_on_c, 0, 69, 0
2, 2593040, Note_on_c, 0, 79, 100
2, 2593120, Note_on_c, 0, 79, 0
2, 2593120, Note_on_c, 0, 78, 100
2, 2593200, Note_on_c, 0, 78, 0
2, 2593200, Note_on_c, 0, 74, 100
2, 2593200, Note_on_c, 0, 79, 100
2, 2593200, Note_on_c, 0, 71, 100
2, 2593440, Note_on_c, 0, 71, 0
2, 2593440, Note_on_c, 0, 79, 0
2, 2593440, Note_on_c, 0, 74, 0
2, 2593560, Note_on_c, 0, 79, 100
2, 2593560, Note_on_c, 0, 71, 100
2, 2593560, Note_on_c, 0, 74, 100
2, 2593680, Note_on_c, 0, 74, 0
2, 2593680, Note_on_c, 0, 71, 0
2, 2593680, Note_on_c, 0, 79, 0
2, 2593800, Note_on_c, 0, 74, 100
2, 2593800, Note_on_c, 0, 71, 100
2, 2593800, Note_on_c, 0, 79, 100
2, 2593920, Note_on_c, 0, 79, 0
2, 2593920, Note_on_c, 0, 71, 0
2, 2593920, Note_on_c, 0, 74, 0
2, 2594040, Note_on_c, 0, 71, 100
2, 2594040, Note_on_c, 0, 79, 100
2, 2594040, Note_on_c, 0, 74, 100
2, 2594160, Note_on_c, 0, 74, 0
2, 2594160, Note_on_c, 0, 79, 0
2, 2594160, Note_on_c, 0, 71, 0
2, 2594280, Note_on_c, 0, 74, 100
2, 2594280, Note_on_c, 0, 71, 100
2, 2594280, Note_on_c, 0, 79, 100
2, 2594400, Note_on_c, 0, 79, 0
2, 2594400, Note_on_c, 0, 71, 0
2, 2594400, Note_on_c, 0, 74, 0
2, 2594520, Note_on_c, 0, 71, 100
2, 2594520, Note_on_c, 0, 74, 100
2, 2594520, Note_on_c, 0, 77, 100
2, 2594640, Note_on_c, 0, 77, 0
2, 2594640, Note_on_c, 0, 74, 0
2, 2594640, Note_on_c, 0, 71, 0
2, 2595000, Note_on_c, 0, 67, 100
2, 2595000, Note_on_c, 0, 72, 100
2, 2595000, Note_on_c, 0, 76, 100
2, 2595120, Note_on_c, 0, 76, 0
2, 2595120, Note_on_c, 0, 72, 0
2, 2595120, Note_on_c, 0, 67, 0
2, 2595240, Note_on_c, 0, 67, 100
2, 2595240, Note_on_c, 0, 72, 100
2, 2595240, Note_on_c, 0, 76, 100
2, 2595360, Note_on_c, 0, 76, 0
2, 2595360, Note_on_c, 0, 72, 0
2, 2595360, Note_on_c, 0, 67, 0
2, 2595480, Note_on_c, 0, 72, 100
2, 2595480, Note_on_c, 0, 67, 100
2, 2595480, Note_on_c, 0, 76, 100
2, 2595600, Note_on_c, 0, 76, 0
2, 2595600, Note_on_c, 0, 67, 0
2, 2595600, Note_on_c, 0, 72, 0
2, 2595720, Note_on_c, 0, 72, 100
2, 2595720, Note_on_c, 0, 67, 100
2, 2595720, Note_on_c, 0, 76, 100
2, 2595840, Note_on_c, 0, 76, 0
2, 2595840, Note_on_c, 0, 67, 0
2, 2595840, Note_on_c, 0, 72, 0
2, 2595960, Note_on_c, 0, 67, 100
2, 2595960, Note_on_c, 0, 72, 100
2, 2595960, Note_on_c, 0, 76, 100
2, 2596080, Note_on_c, 0, 76, 0
2, 2596080, Note_on_c, 0, 72, 0
2, 2596080, Note_on_c, 0, 67, 0
2, 2596440, Note_on_c, 0, 74, 100
2, 2596440, Note_on_c, 0, 69, 100
2, 2596440, Note_on_c, 0, 66, 100
2, 2596560, Note_on_c, 0, 66, 0
2, 2596560, Note_on_c, 0, 69, 0
2, 2596560, Note_on_c, 0, 74, 0
2, 2596680, Note_on_c, 0, 74, 100
2, 2596680, Note_on_c, 0, 66, 100
2, 2596680, Note_on_c, 0, 69, 100
2, 2596800, Note_on_c, 0, 69, 0
2, 2596800, Note_on_c, 0, 66, 0
2, 2596800, Note_on_c, 0, 74, 0
2, 2596920, Note_on_c, 0, 69, 100
2, 2596920, Note_on_c, 0, 74, 100
2, 2596920, Note_on_c, 0, 66, 100
2, 2597040, Note_on_c, 0, 66, 0
2, 2597040, Note_on_c, 0, 74, 0
2, 2597040, Note_on_c, 0, 69, 0
2, 2597160, Note_on_c, 0, 66, 100
2, 2597160, Note_on_c, 0, 74, 100
2, 2597160, Note_on_c, 0, 69, 100
2, 2597280, Note_on_c, 0, 69, 0
2, 2597280, Note_on_c, 0, 74, 0
2, 2597280, Note_on_c, 0, 66, 0
2, 2597400, Note_on_c, 0, 66, 100
2, 2597400, Note_on_c, 0, 69, 100
2, 2597400, Note_on_c, 0, 72, 100
2, 2597520, Note_on_c, 0, 72, 0
2, 2597520, Note_on_c, 0, 69, 0
2, 2597520, Note_on_c, 0, 66, 0
2, 2597520, Note_on_c, 0, 71, 100
2, 2597520, Note_on_c, 0, 67, 100
2, 2597520, Note_on_c, 0, 62, 100
2, 2597640, Note_on_c, 0, 62, 0
2, 2597640, Note_on_c, 0, 67, 0
2, 2597640, Note_on_c, 0, 71, 0
2, 2598080, Note_on_c, 0, 69, 100
2, 2598160, Note_on_c, 0, 69, 0
2, 2598160, Note_on_c, 0, 71, 100
2, 2598240, Note_on_c, 0, 71, 0
2, 2598240, Note_on_c, 0, 72, 100
2, 2598320, Note_on_c, 0, 72, 0
2, 2598320, Note_on_c, 0, 71, 100
2, 2598400, Note_on_c, 0, 71, 0
2, 2598400, Note_on_c, 0, 69, 100
2, 2598480, Note_on_c, 0, 69, 0
2, 2598480, Note_on_c, 0, 71, 100
2, 2598560, Note_on_c, 0, 71, 0
2, 2598560, Note_on_c, 0, 69, 100
2, 2598640, Note_on_c, 0, 69, 0
2, 2598640, Note_on_c, 0, 67, 100
2, 2598720, Note_on_c, 0, 67, 0
2, 2598720, Note_on_c, 0, 76, 100
2, 2598800, Note_on_c, 0, 76, 0
2, 2598800, Note_on_c, 0, 74, 100
2, 2598880, Note_on_c, 0, 74, 0
2, 2598880, Note_on_c, 0, 72, 100
2, 2598960, Note_on_c, 0, 72, 0
2, 2598960, Note_on_c, 0, 74, 100
2, 2599040, Note_on_c, 0, 74, 0
2, 2599120, Note_on_c, 0, 67, 100
2, 2599200, Note_on_c, 0, 67, 0
2, 2599200, Note_on_c, 0, 66, 100
2, 2599280, Note_on_c, 0, 66, 0
2, 2599280, Note_on_c, 0, 60, 100
2, 2599360, Note_on_c, 0, 60, 0
2, 2599600, Note_on_c, 0, 67, 100
2, 2599680, Note_on_c, 0, 67, 0
2, 2599680, Note_on_c, 0, 69, 100
2, 2599760, Note_on_c, 0, 69, 0
2, 2599760, Note_on_c, 0, 66, 100
2, 2599840, Note_on_c, 0, 66, 0
2, 2600080, Note_on_c, 0, 71, 100
2, 2600160, Note_on_c, 0, 71, 0
2, 2600160, Note_on_c, 0, 73, 100
2, 2600240, Note_on_c, 0, 73, 0
2, 2600240, Note_on_c, 0, 69, 100
2, 2600320, Note_on_c, 0, 69, 0
2, 2600560, Note_on_c, 0, 74, 100
2, 2600640, Note_on_c, 0, 74, 0
2, 2600640, Note_on_c, 0, 73, 100
2, 2600720, Note_on_c, 0, 73, 0
2, 2600720, Note_on_c, 0, 67, 100
2, 2600800, Note_on_c, 0, 67, 0
2, 2601040, Note_on_c, 0, 74, 100
2, 2601120, Note_on_c, 0, 74, 0
2, 2601120, Note_on_c, 0, 76, 100
2, 2601200, Note_on_c, 0, 76, 0
2, 2601200, Note_on_c, 0, 73, 100
2, 2601280, Note_on_c, 0, 73, 0
2, 2601520, Note_on_c, 0, 78, 100
2, 2601600, Note_on_c, 0, 78, 0
2, 2601600, Note_on_c, 0, 74, 100
2, 2601680, Note_on_c, 0, 74, 0
2, 2601680, Note_on_c, 0, 71, 100
2, 2601760, Note_on_c, 0, 71, 0
2, 2602000, Note_on_c, 0, 72, 100
2, 2602080, Note_on_c, 0, 72, 0
2, 2602080, Note_on_c, 0, 71, 100
2, 2602160, Note_on_c, 0, 71, 0
2, 2602160, Note_on_c, 0, 67, 100
2, 2602240, Note_on_c, 0, 67, 0
2, 2602480, Note_on_c, 0, 69, 100
2, 2602560, Note_on_c, 0, 69, 0
2, 2602560, Note_on_c, 0, 67, 100
2, 2602640, Note_on_c, 0, 67, 0
2, 2602640, Note_on_c, 0, 64, 100
2, 2602720, Note_on_c, 0, 64, 0
2, 2602960, Note_on_c, 0, 66, 100
2, 2603040, Note_on_c, 0, 66, 0
2, 2603040, Note_on_c, 0, 64, 100
2, 2603120, Note_on_c, 0, 64, 0
2, 2603120, Note_on_c, 0, 61, 100
2, 2603200, Note_on_c, 0, 61, 0
2, 2603440, Note_on_c, 0, 66, 100
2, 2603520, Note_on_c, 0, 66, 0
2, 2603520, Note_on_c, 0, 64, 100
2, 2603600, Note_on_c, 0, 64, 0
2, 2603600, Note_on_c, 0, 61, 100
2, 2603680, Note_on_c, 0, 61, 0
2, 2603920, Note_on_c, 0, 62, 100
2, 2604000, Note_on_c, 0, 62, 0
2, 2604000, Note_on_c, 0, 61, 100
2, 2604080, Note_on_c, 0, 61, 0
2, 2604080, Note_on_c, 0, 57, 100
2, 2604160, Note_on_c, 0, 57, 0
2, 2604400, Note_on_c, 0, 59, 100
2, 2604480, Note_on_c, 0, 59, 0
2, 2604480, Note_on_c, 0, 57, 100
2, 2604560, Note_on_c, 0, 57, 0
2, 2604560, Note_on_c, 0, 54, 100
2, 2604640, Note_on_c, 0, 54, 0
2, 2604880, Note_on_c, 0, 59, 100
2, 2604960, Note_on_c, 0, 59, 0
2, 2604960, Note_on_c, 0, 57, 100
2, 2605040, Note_on_c, 0, 57, 0
2, 2605040, Note_on_c, 0, 54, 100
2, 2605120, Note_on_c, 0, 54, 0
2, 2605360, Note_on_c, 0, 55, 100
2, 2605440, Note_on_c, 0, 55, 0
2, 2605440, Note_on_c, 0, 54, 100
2, 2605520, Note_on_c, 0, 54, 0
2, 2605520, Note_on_c, 0, 50, 100
2, 2605600, Note_on_c, 0, 50, 0
2, 2605840, Note_on_c, 0, 52, 100
2, 2605920, Note_on_c, 0, 52, 0
2, 2605920, Note_on_c, 0, 50, 100
2, 2606000, Note_on_c, 0, 50, 0
2, 2606000, Note_on_c, 0, 47, 100
2, 2606080, Note_on_c, 0, 47, 0
2, 2606320, Note_on_c, 0, 52, 100
2, 2606400, Note_on_c, 0, 52, 0
2, 2606400, Note_on_c, 0, 50, 100
2, 2606480, Note_on_c, 0, 50, 0
2, 2606480, Note_on_c, 0, 47, 100
2, 2606560, Note_on_c, 0, 47, 0
2, 2606800, Note_on_c, 0, 48, 100
2, 2606880, Note_on_c, 0, 48, 0
2, 2606880, Note_on_c, 0, 47, 100
2, 2606960, Note_on_c, 0, 47, 0
2, 2606960, Note_on_c, 0, 43, 100
2, 2607040, Note_on_c, 0, 43, 0
2, 2607280, Note_on_c, 0, 45, 100
2, 2607360, Note_on_c, 0, 45, 0
2, 2607360, Note_on_c, 0, 43, 100
2, 2607440, Note_on_c, 0, 43, 0
2, 2607440, Note_on_c, 0, 40, 100
2, 2607520, Note_on_c, 0, 40, 0
2, 2607680, Note_on_c, 0, 55, 100
2, 2607760, Note_on_c, 0, 55, 0
2, 2607760, Note_on_c, 0, 57, 100
2, 2607840, Note_on_c, 0, 57, 0
2, 2607840, Note_on_c, 0, 64, 100
2, 2607920, Note_on_c, 0, 64, 0
2, 2607920, Note_on_c, 0, 57, 100
2, 2608000, Note_on_c, 0, 57, 0
2, 2608000, Note_on_c, 0, 55, 100
2, 2608080, Note_on_c, 0, 55, 0
2, 2608160, Note_on_c, 0, 54, 100
2, 2608240, Note_on_c, 0, 54, 0
2, 2608240, Note_on_c, 0, 57, 100
2, 2608320, Note_on_c, 0, 57, 0
2, 2608320, Note_on_c, 0, 62, 100
2, 2608400, Note_on_c, 0, 62, 0
2, 2608400, Note_on_c, 0, 57, 100
2, 2608480, Note_on_c, 0, 57, 0
2, 2608480, Note_on_c, 0, 54, 100
2, 2608560, Note_on_c, 0, 54, 0
2, 2608640, Note_on_c, 0, 52, 100
2, 2608720, Note_on_c, 0, 52, 0
2, 2608720, Note_on_c, 0, 55, 100
2, 2608800, Note_on_c, 0, 55, 0
2, 2608800, Note_on_c, 0, 61, 100
2, 2608880, Note_on_c, 0, 61, 0
2, 2608880, Note_on_c, 0, 55, 100
2, 2608960, Note_on_c, 0, 55, 0
2, 2608960, Note_on_c, 0, 52, 100
2, 2609040, Note_on_c, 0, 52, 0
2, 2609400, Note_on_c, 0, 57, 100
2, 2609400, Note_on_c, 0, 62, 100
2, 2609400, Note_on_c, 0, 54, 100
2, 2609520, Note_on_c, 0, 54, 0
2, 2609520, Note_on_c, 0, 62, 0
2, 2609520, Note_on_c, 0, 57, 0
2, 2609640, Note_on_c, 0, 57, 100
2, 2609640, Note_on_c, 0, 62, 100
2, 2609640, Note_on_c, 0, 54, 100
2, 2609760, Note_on_c, 0, 54, 0
2, 2609760, Note_on_c, 0, 62, 0
2, 2609760, Note_on_c, 0, 57, 0
2, 2609880, Note_on_c, 0, 57, 100
2, 2609880, Note_on_c, 0, 62, 100
2, 2609880, Note_on_c, 0, 54, 100
2, 2610000, Note_on_c, 0, 54, 0
2, 2610000, Note_on_c, 0, 62, 0
2, 2610000, Note_on_c, 0, 57, 0
2, 2610640, Note_on_c, 0, 83, 100
2, 2610720, Note_on_c, 0, 83, 0
2, 2610720, Note_on_c, 0, 81, 100
2, 2610800, Note_on_c, 0, 81, 0
2, 2610800, Note_on_c, 0, 78, 100
2, 2610880, Note_on_c, 0, 78, 0
2, 2611120, Note_on_c, 0, 79, 100
2, 2611200, Note_on_c, 0, 79, 0
2, 2611200, Note_on_c, 0, 78, 100
2, 2611280, Note_on_c, 0, 78, 0
2, 2611280, Note_on_c, 0, 74, 100
2, 2611360, Note_on_c, 0, 74, 0
2, 2611600, Note_on_c, 0, 76, 100
2, 2611680, Note_on_c, 0, 76, 0
2, 2611680, Note_on_c, 0, 74, 100
2, 2611760, Note_on_c, 0, 74, 0
2, 2611760, Note_on_c, 0, 71, 100
2, 2611840, Note_on_c, 0, 71, 0
2, 2612080, Note_on_c, 0, 76, 100
2, 2612160, Note_on_c, 0, 76, 0
2, 2612160, Note_on_c, 0, 74, 100
2, 2612240, Note_on_c, 0, 74, 0
2, 2612240, Note_on_c, 0, 71, 100
2, 2612320, Note_on_c, 0, 71, 0
2, 2612560, Note_on_c, 0, 72, 100
2, 2612640, Note_on_c, 0, 72, 0
2, 2612640, Note_on_c, 0, 71, 100
2, 2612720, Note_on_c, 0, 71, 0
2, 2612720, Note_on_c, 0, 67, 100
2, 2612800, Note_on_c, 0, 67, 0
2, 2613040, Note_on_c, 0, 69, 100
2, 2613120, Note_on_c, 0, 69, 0
2, 2613120, Note_on_c, 0, 67, 100
2, 2613200, Note_on_c, 0, 67, 0
2, 2613200, Note_on_c, 0, 64, 100
2, 2613280, Note_on_c, 0, 64, 0
2, 2613520, Note_on_c, 0, 65, 100
2, 2613600, Note_on_c, 0, 65, 0
2, 2613600, Note_on_c, 0, 64, 100
2, 2613680, Note_on_c, 0, 64, 0
2, 2613680, Note_on_c, 0, 60, 100
2, 2613760, Note_on_c, 0, 60, 0
2, 2614000, Note_on_c, 0, 62, 100
2, 2614080, Note_on_c, 0, 62, 0
2, 2614080, Note_on_c, 0, 60, 100
2, 2614160, Note_on_c, 0, 60, 0
2, 2614160, Note_on_c, 0, 57, 100
2, 2614240, Note_on_c, 0, 57, 0
2, 2614480, Note_on_c, 0, 59, 100
2, 2614560, Note_on_c, 0, 59, 0
2, 2614560, Note_on_c, 0, 57, 100
2, 2614640, Note_on_c, 0, 57, 0
2, 2614640, Note_on_c, 0, 54, 100
2, 2614720, Note_on_c, 0, 54, 0
2, 2614960, Note_on_c, 0, 55, 100
2, 2615040, Note_on_c, 0, 55, 0
2, 2615040, Note_on_c, 0, 54, 100
2, 2615120, Note_on_c, 0, 54, 0
2, 2615120, Note_on_c, 0, 51, 100
2, 2615200, Note_on_c, 0, 51, 0
2, 2615440, Note_on_c, 0, 52, 100
2, 2615520, Note_on_c, 0, 52, 0
2, 2615520, Note_on_c, 0, 51, 100
2, 2615600, Note_on_c, 0, 51, 0
2, 2615600, Note_on_c, 0, 47, 100
2, 2615680, Note_on_c, 0, 47, 0
2, 2615920, Note_on_c, 0, 48, 100
2, 2616000, Note_on_c, 0, 48, 0
2, 2616000, Note_on_c, 0, 47, 100
2, 2616080, Note_on_c, 0, 47, 0
2, 2616080, Note_on_c, 0, 43, 100
2, 2616160, Note_on_c, 0, 43, 0
2, 2616600, Note_on_c, 0, 67, 100
2, 2616600, Note_on_c, 0, 71, 100
2, 2616600, Note_on_c, 0, 76, 100
2, 2616720, Note_on_c, 0, 76, 0
2, 2616720, Note_on_c, 0, 71, 0
2, 2616720, Note_on_c, 0, 67, 0
2, 2616840, Note_on_c, 0, 67, 100
2, 2616840, Note_on_c, 0, 71, 100
2, 2616840, Note_on_c, 0, 76, 100
2, 2616960, Note_on_c, 0, 76, 0
2, 2616960, Note_on_c, 0, 71, 0
2, 2616960, Note_on_c, 0, 67, 0
2, 2617080, Note_on_c, 0, 67, 100
2, 2617080, Note_on_c, 0, 71, 100
2, 2617080, Note_on_c, 0, 76, 100
2, 2617200, Note_on_c, 0, 76, 0
2, 2617200, Note_on_c, 0, 71, 0
2, 2617200, Note_on_c, 0, 67, 0
2, 2617320, Note_on_c, 0, 67, 100
2, 2617320, Note_on_c, 0, 71, 100
2, 2617320, Note_on_c, 0, 76, 100
2, 2617440, Note_on_c, 0, 76, 0
2, 2617440, Note_on_c, 0, 71, 0
2, 2617440, Note_on_c, 0, 67, 0
2, 2617560, Note_on_c, 0, 67, 100
2, 2617560, Note_on_c, 0, 71, 100
2, 2617560, Note_on_c, 0, 76, 100
2, 2617680, Note_on_c, 0, 76, 0
2, 2617680, Note_on_c, 0, 71, 0
2, 2617680, Note_on_c, 0, 67, 0
2, 2618040, Note_on_c, 0, 67, 100
2, 2618040, Note_on_c, 0, 71, 100
2, 2618040, Note_on_c, 0, 76, 100
2, 2618160, Note_on_c, 0, 76, 0
2, 2618160, Note_on_c, 0, 71, 0
2, 2618160, Note_on_c, 0, 67, 0
2, 2618280, Note_on_c, 0, 67, 100
2, 2618280, Note_on_c, 0, 71, 100
2, 2618280, Note_on_c, 0, 76, 100
2, 2618400, Note_on_c, 0, 76, 0
2, 2618400, Note_on_c, 0, 71, 0
2, 2618400, Note_on_c, 0, 67, 0
2, 2618520, Note_on_c, 0, 67, 100
2, 2618520, Note_on_c, 0, 71, 100
2, 2618520, Note_on_c, 0, 76, 100
2, 2618640, Note_on_c, 0, 76, 0
2, 2618640, Note_on_c, 0, 71, 0
2, 2618640, Note_on_c, 0, 67, 0
2, 2618760, Note_on_c, 0, 67, 100
2, 2618760, Note_on_c, 0, 71, 100
2, 2618760, Note_on_c, 0, 76, 100
2, 2618880, Note_on_c, 0, 76, 0
2, 2618880, Note_on_c, 0, 71, 0
2, 2618880, Note_on_c, 0, 67, 0
2, 2619000, Note_on_c, 0, 67, 100
2, 2619000, Note_on_c, 0, 71, 100
2, 2619000, Note_on_c, 0, 76, 100
2, 2619120, Note_on_c, 0, 76, 0
2, 2619120, Note_on_c, 0, 71, 0
2, 2619120, Note_on_c, 0, 67, 0
2, 2619200, Note_on_c, 0, 78, 100
2, 2619280, Note_on_c, 0, 78, 0
2, 2619280, Note_on_c, 0, 79, 100
2, 2619360, Note_on_c, 0, 79, 0
2, 2619360, Note_on_c, 0, 81, 100
2, 2619440, Note_on_c, 0, 81, 0
2, 2619440, Note_on_c, 0, 83, 100
2, 2619520, Note_on_c, 0, 83, 0
2, 2619520, Note_on_c, 0, 84, 100
2, 2619680, Note_on_c, 0, 84, 0
2, 2619680, Note_on_c, 0, 83, 100
2, 2619760, Note_on_c, 0, 83, 0
2, 2619760, Note_on_c, 0, 81, 100
2, 2619840, Note_on_c, 0, 81, 0
2, 2619840, Note_on_c, 0, 79, 100
2, 2619920, Note_on_c, 0, 79, 0
2, 2619920, Note_on_c, 0, 78, 100
2, 2620000, Note_on_c, 0, 78, 0
2, 2620000, Note_on_c, 0, 76, 100
2, 2620080, Note_on_c, 0, 76, 0
2, 2620080, Note_on_c, 0, 75, 100
2, 2620160, Note_on_c, 0, 75, 0
2, 2620160, Note_on_c, 0, 72, 100
2, 2620240, Note_on_c, 0, 72, 0
2, 2620240, Note_on_c, 0, 71, 100
2, 2620320, Note_on_c, 0, 71, 0
2, 2620320, Note_on_c, 0, 69, 100
2, 2620400, Note_on_c, 0, 69, 0
2, 2620400, Note_on_c, 0, 67, 100
2, 2620480, Note_on_c, 0, 67, 0
2, 2620480, Note_on_c, 0, 66, 100
2, 2620560, Note_on_c, 0, 66, 0
2, 2620560, Note_on_c, 0, 64, 100
2, 2620680, Note_on_c, 0, 64, 0
2, 2620680, Note_on_c, 0, 67, 100
2, 2620680, Note_on_c, 0, 71, 100
2, 2620680, Note_on_c, 0, 76, 100
2, 2620800, Note_on_c, 0, 76, 0
2, 2620800, Note_on_c, 0, 71, 0
2, 2620800, Note_on_c, 0, 67, 0
2, 2620920, Note_on_c, 0, 67, 100
2, 2620920, Note_on_c, 0, 71, 100
2, 2620920, Note_on_c, 0, 76, 100
2, 2621040, Note_on_c, 0, 76, 0
2, 2621040, Note_on_c, 0, 71, 0
2, 2621040, Note_on_c, 0, 67, 0
2, 2621160, Note_on_c, 0, 64, 100
2, 2621160, Note_on_c, 0, 67, 100
2, 2621160, Note_on_c, 0, 72, 100
2, 2621280, Note_on_c, 0, 72, 0
2, 2621280, Note_on_c, 0, 67, 0
2, 2621280, Note_on_c, 0, 64, 0
2, 2621400, Note_on_c, 0, 64, 100
2, 2621400, Note_on_c, 0, 67, 100
2, 2621400, Note_on_c, 0, 72, 100
2, 2621520, Note_on_c, 0, 72, 0
2, 2621520, Note_on_c, 0, 67, 0
2, 2621520, Note_on_c, 0, 64, 0
2, 2621640, Note_on_c, 0, 59, 100
2, 2621640, Note_on_c, 0, 67, 100
2, 2621640, Note_on_c, 0, 64, 100
2, 2621760, Note_on_c, 0, 64, 0
2, 2621760, Note_on_c, 0, 67, 0
2, 2621760, Note_on_c, 0, 59, 0
2, 2621880, Note_on_c, 0, 59, 100
2, 2621880, Note_on_c, 0, 67, 100
2, 2621880, Note_on_c, 0, 64, 100
2, 2622000, Note_on_c, 0, 64, 0
2, 2622000, Note_on_c, 0, 67, 0
2, 2622000, Note_on_c, 0, 59, 0
2, 2622080, Note_on_c, 0, 52, 100
2, 2622160, Note_on_c, 0, 52, 0
2, 2622160, Note_on_c, 0, 53, 100
2, 2622240, Note_on_c, 0, 53, 0
2, 2622240, Note_on_c, 0, 54, 100
2, 2622320, Note_on_c, 0, 54, 0
2, 2622320, Note_on_c, 0, 55, 100
2, 2622400, Note_on_c, 0, 55, 0
2, 2622400, Note_on_c, 0, 56, 100
2, 2622480, Note_on_c, 0, 56, 0
2, 2622560, Note_on_c, 0, 59, 100
2, 2622640, Note_on_c, 0, 59, 0
2, 2622640, Note_on_c, 0, 60, 100
2, 2622720, Note_on_c, 0, 60, 0
2, 2622720, Note_on_c, 0, 62, 100
2, 2622800, Note_on_c, 0, 62, 0
2, 2622800, Note_on_c, 0, 60, 100
2, 2622880, Note_on_c, 0, 60, 0
2, 2622880, Note_on_c, 0, 59, 100
2, 2622960, Note_on_c, 0, 59, 0
2, 2622960, Note_on_c, 0, 60, 100
2, 2623040, Note_on_c, 0, 60, 0
2, 2623040, Note_on_c, 0, 62, 100
2, 2623120, Note_on_c, 0, 62, 0
2, 2623120, Note_on_c, 0, 64, 100
2, 2623200, Note_on_c, 0, 64, 0
2, 2623200, Note_on_c, 0, 66, 100
2, 2623280, Note_on_c, 0, 66, 0
2, 2623280, Note_on_c, 0, 67, 100
2, 2623360, Note_on_c, 0, 67, 0
2, 2623360, Note_on_c, 0, 69, 100
2, 2623440, Note_on_c, 0, 69, 0
2, 2623520, Note_on_c, 0, 50, 100
2, 2623600, Note_on_c, 0, 50, 0
2, 2623600, Note_on_c, 0, 51, 100
2, 2623680, Note_on_c, 0, 51, 0
2, 2623680, Note_on_c, 0, 52, 100
2, 2623760, Note_on_c, 0, 52, 0
2, 2623760, Note_on_c, 0, 53, 100
2, 2623840, Note_on_c, 0, 53, 0
2, 2623840, Note_on_c, 0, 54, 100
2, 2623920, Note_on_c, 0, 54, 0
2, 2624000, Note_on_c, 0, 57, 100
2, 2624080, Note_on_c, 0, 57, 0
2, 2624080, Note_on_c, 0, 59, 100
2, 2624160, Note_on_c, 0, 59, 0
2, 2624160, Note_on_c, 0, 60, 100
2, 2624240, Note_on_c, 0, 60, 0
2, 2624240, Note_on_c, 0, 59, 100
2, 2624320, Note_on_c, 0, 59, 0
2, 2624320, Note_on_c, 0, 57, 100
2, 2624400, Note_on_c, 0, 57, 0
2, 2624400, Note_on_c, 0, 59, 100
2, 2624480, Note_on_c, 0, 59, 0
2, 2624480, Note_on_c, 0, 60, 100
2, 2624560, Note_on_c, 0, 60, 0
2, 2624560, Note_on_c, 0, 62, 100
2, 2624640, Note_on_c, 0, 62, 0
2, 2624640, Note_on_c, 0, 64, 100
2, 2624720, Note_on_c, 0, 64, 0
2, 2624720, Note_on_c, 0, 66, 100
2, 2624800, Note_on_c, 0, 66, 0
2, 2624800, Note_on_c, 0, 67, 100
2, 2624880, Note_on_c, 0, 67, 0
2, 2624880, Note_on_c, 0, 60, 100
2, 2624960, Note_on_c, 0, 60, 0
2, 2625040, Note_on_c, 0, 65, 100
2, 2625120, Note_on_c, 0, 65, 0
2, 2625120, Note_on_c, 0, 64, 100
2, 2625200, Note_on_c, 0, 64, 0
2, 2625200, Note_on_c, 0, 60, 100
2, 2625280, Note_on_c, 0, 60, 0
2, 2625520, Note_on_c, 0, 62, 100
2, 2625600, Note_on_c, 0, 62, 0
2, 2625600, Note_on_c, 0, 60, 100
2, 2625680, Note_on_c, 0, 60, 0
2, 2625680, Note_on_c, 0, 57, 100
2, 2625760, Note_on_c, 0, 57, 0
2, 2626000, Note_on_c, 0, 59, 100
2, 2626080, Note_on_c, 0, 59, 0
2, 2626080, Note_on_c, 0, 57, 100
2, 2626160, Note_on_c, 0, 57, 0
2, 2626160, Note_on_c, 0, 54, 100
2, 2626240, Note_on_c, 0, 54, 0
2, 2626480, Note_on_c, 0, 71, 100
2, 2626560, Note_on_c, 0, 71, 0
2, 2626560, Note_on_c, 0, 69, 100
2, 2626640, Note_on_c, 0, 69, 0
2, 2626640, Note_on_c, 0, 66, 100
2, 2626720, Note_on_c, 0, 66, 0
2, 2626960, Note_on_c, 0, 67, 100
2, 2627040, Note_on_c, 0, 67, 0
2, 2627040, Note_on_c, 0, 66, 100
2, 2627120, Note_on_c, 0, 66, 0
2, 2627120, Note_on_c, 0, 62, 100
2, 2627200, Note_on_c, 0, 62, 0
2, 2627440, Note_on_c, 0, 64, 100
2, 2627520, Note_on_c, 0, 64, 0
2, 2627520, Note_on_c, 0, 62, 100
2, 2627600, Note_on_c, 0, 62, 0
2, 2627600, Note_on_c, 0, 59, 100
2, 2627680, Note_on_c, 0, 59, 0
2, 2627920, Note_on_c, 0, 76, 100
2, 2628000, Note_on_c, 0, 76, 0
2, 2628000, Note_on_c, 0, 74, 100
2, 2628080, Note_on_c, 0, 74, 0
2, 2628080, Note_on_c, 0, 71, 100
2, 2628160, Note_on_c, 0, 71, 0
2, 2628400, Note_on_c, 0, 72, 100
2, 2628480, Note_on_c, 0, 72, 0
2, 2628480, Note_on_c, 0, 71, 100
2, 2628560, Note_on_c, 0, 71, 0
2, 2628560, Note_on_c, 0, 67, 100
2, 2628640, Note_on_c, 0, 67, 0
2, 2628880, Note_on_c, 0, 69, 100
2, 2628960, Note_on_c, 0, 69, 0
2, 2628960, Note_on_c, 0, 67, 100
2, 2629040, Note_on_c, 0, 67, 0
2, 2629040, Note_on_c, 0, 64, 100
2, 2629120, Note_on_c, 0, 64, 0
2, 2629360, Note_on_c, 0, 81, 100
2, 2629440, Note_on_c, 0, 81, 0
2, 2629440, Note_on_c, 0, 79, 100
2, 2629520, Note_on_c, 0, 79, 0
2, 2629520, Note_on_c, 0, 76, 100
2, 2629600, Note_on_c, 0, 76, 0
2, 2629840, Note_on_c, 0, 77, 100
2, 2629920, Note_on_c, 0, 77, 0
2, 2629920, Note_on_c, 0, 76, 100
2, 2630000, Note_on_c, 0, 76, 0
2, 2630000, Note_on_c, 0, 72, 100
2, 2630080, Note_on_c, 0, 72, 0
2, 2630320, Note_on_c, 0, 74, 100
2, 2630400, Note_on_c, 0, 74, 0
2, 2630400, Note_on_c, 0, 72, 100
2, 2630480, Note_on_c, 0, 72, 0
2, 2630480, Note_on_c, 0, 69, 100
2, 2630560, Note_on_c, 0, 69, 0
2, 2630720, Note_on_c, 0, 69, 100
2, 2630800, Note_on_c, 0, 69, 0
2, 2630800, Note_on_c, 0, 71, 100
2, 2630880, Note_on_c, 0, 71, 0
2, 2630880, Note_on_c, 0, 72, 100
2, 2630960, Note_on_c, 0, 72, 0
2, 2630960, Note_on_c, 0, 74, 100
2, 2631040, Note_on_c, 0, 74, 0
2, 2631040, Note_on_c, 0, 76, 100
2, 2631200, Note_on_c, 0, 76, 0
2, 2631200, Note_on_c, 0, 74, 100
2, 2631280, Note_on_c, 0, 74, 0
2, 2631280, Note_on_c, 0, 72, 100
2, 2631360, Note_on_c, 0, 72, 0
2, 2631360, Note_on_c, 0, 71, 100
2, 2631440, Note_on_c, 0, 71, 0
2, 2631440, Note_on_c, 0, 69, 100
2, 2631520, Note_on_c, 0, 69, 0
2, 2631520, Note_on_c, 0, 67, 100
2, 2631680, Note_on_c, 0, 67, 0
2, 2631680, Note_on_c, 0, 66, 100
2, 2631760, Note_on_c, 0, 66, 0
2, 2631760, Note_on_c, 0, 67, 100
2, 2631840, Note_on_c, 0, 67, 0
2, 2631840, Note_on_c, 0, 69, 100
2, 2631920, Note_on_c, 0, 69, 0
2, 2631920, Note_on_c, 0, 71, 100
2, 2632000, Note_on_c, 0, 71, 0
2, 2632000, Note_on_c, 0, 72, 100
2, 2632080, Note_on_c, 0, 72, 0
2, 2632080, Note_on_c, 0, 72, 100
2, 2632140, Note_on_c, 0, 72, 0
2, 2632140, Note_on_c, 0, 71, 100
2, 2632320, Note_on_c, 0, 71, 0
2, 2632440, Note_on_c, 0, 74, 100
2, 2632440, Note_on_c, 0, 79, 100
2, 2632440, Note_on_c, 0, 71, 100
2, 2632560, Note_on_c, 0, 71, 0
2, 2632560, Note_on_c, 0, 79, 0
2, 2632560, Note_on_c, 0, 74, 0
2, 2632680, Note_on_c, 0, 74, 100
2, 2632680, Note_on_c, 0, 79, 100
2, 2632680, Note_on_c, 0, 71, 100
2, 2632800, Note_on_c, 0, 71, 0
2, 2632800, Note_on_c, 0, 79, 0
2, 2632800, Note_on_c, 0, 74, 0
2, 2632920, Note_on_c, 0, 74, 100
2, 2632920, Note_on_c, 0, 79, 100
2, 2632920, Note_on_c, 0, 71, 100
2, 2633040, Note_on_c, 0, 71, 0
2, 2633040, Note_on_c, 0, 79, 0
2, 2633040, Note_on_c, 0, 74, 0
2, 2633680, Note_on_c, 0, 83, 100
2, 2633760, Note_on_c, 0, 83, 0
2, 2633760, Note_on_c, 0, 81, 100
2, 2633840, Note_on_c, 0, 81, 0
2, 2633840, Note_on_c, 0, 78, 100
2, 2633920, Note_on_c, 0, 78, 0
2, 2634160, Note_on_c, 0, 79, 100
2, 2634240, Note_on_c, 0, 79, 0
2, 2634240, Note_on_c, 0, 78, 100
2, 2634320, Note_on_c, 0, 78, 0
2, 2634320, Note_on_c, 0, 74, 100
2, 2634400, Note_on_c, 0, 74, 0
2, 2634640, Note_on_c, 0, 76, 100
2, 2634720, Note_on_c, 0, 76, 0
2, 2634720, Note_on_c, 0, 74, 100
2, 2634800, Note_on_c, 0, 74, 0
2, 2634800, Note_on_c, 0, 71, 100
2, 2634880, Note_on_c, 0, 71, 0
2, 2635120, Note_on_c, 0, 76, 100
2, 2635200, Note_on_c, 0, 76, 0
2, 2635200, Note_on_c, 0, 74, 100
2, 2635280, Note_on_c, 0, 74, 0
2, 2635280, Note_on_c, 0, 71, 100
2, 2635360, Note_on_c, 0, 71, 0
2, 2635600, Note_on_c, 0, 72, 100
2, 2635680, Note_on_c, 0, 72, 0
2, 2635680, Note_on_c, 0, 71, 100
2, 2635760, Note_on_c, 0, 71, 0
2, 2635760, Note_on_c, 0, 67, 100
2, 2635840, Note_on_c, 0, 67, 0
2, 2636080, Note_on_c, 0, 69, 100
2, 2636160, Note_on_c, 0, 69, 0
2, 2636160, Note_on_c, 0, 67, 100
2, 2636240, Note_on_c, 0, 67, 0
2, 2636240, Note_on_c, 0, 64, 100
2, 2636320, Note_on_c, 0, 64, 0
2, 2636560, Note_on_c, 0, 65, 100
2, 2636640, Note_on_c, 0, 65, 0
2, 2636640, Note_on_c, 0, 64, 100
2, 2636720, Note_on_c, 0, 64, 0
2, 2636720, Note_on_c, 0, 60, 100
2, 2636800, Note_on_c, 0, 60, 0
2, 2637040, Note_on_c, 0, 62, 100
2, 2637120, Note_on_c, 0, 62, 0
2, 2637120, Note_on_c, 0, 60, 100
2, 2637200, Note_on_c, 0, 60, 0
2, 2637200, Note_on_c, 0, 57, 100
2, 2637280, Note_on_c, 0, 57, 0
2, 2637520, Note_on_c, 0, 59, 100
2, 2637600, Note_on_c, 0, 59, 0
2, 2637600, Note_on_c, 0, 57, 100
2, 2637680, Note_on_c, 0, 57, 0
2, 2637680, Note_on_c, 0, 54, 100
2, 2637760, Note_on_c, 0, 54, 0
2, 2638000, Note_on_c, 0, 55, 100
2, 2638080, Note_on_c, 0, 55, 0
2, 2638080, Note_on_c, 0, 54, 100
2, 2638160, Note_on_c, 0, 54, 0
2, 2638160, Note_on_c, 0, 51, 100
2, 2638240, Note_on_c, 0, 51, 0
2, 2638480, Note_on_c, 0, 52, 100
2, 2638560, Note_on_c, 0, 52, 0
2, 2638560, Note_on_c, 0, 51, 100
2, 2638640, Note_on_c, 0, 51, 0
2, 2638640, Note_on_c, 0, 47, 100
2, 2638720, Note_on_c, 0, 47, 0
2, 2638960, Note_on_c, 0, 48, 100
2, 2639040, Note_on_c, 0, 48, 0
2, 2639040, Note_on_c, 0, 47, 100
2, 2639120, Note_on_c, 0, 47, 0
2, 2639120, Note_on_c, 0, 43, 100
2, 2639200, Note_on_c, 0, 43, 0
2, 2639640, Note_on_c, 0, 67, 100
2, 2639640, Note_on_c, 0, 71, 100
2, 2639640, Note_on_c, 0, 76, 100
2, 2639760, Note_on_c, 0, 76, 0
2, 2639760, Note_on_c, 0, 71, 0
2, 2639760, Note_on_c, 0, 67, 0
2, 2639880, Note_on_c, 0, 67, 100
2, 2639880, Note_on_c, 0, 71, 100
2, 2639880, Note_on_c, 0, 76, 100
2, 2640000, Note_on_c, 0, 76, 0
2, 2640000, Note_on_c, 0, 71, 0
2, 2640000, Note_on_c, 0, 67, 0
2, 2640120, Note_on_c, 0, 67, 100
2, 2640120, Note_on_c, 0, 71, 100
2, 2640120, Note_on_c, 0, 76, 100
2, 2640240, Note_on_c, 0, 76, 0
2, 2640240, Note_on_c, 0, 71, 0
2, 2640240, Note_on_c, 0, 67, 0
2, 2640360, Note_on_c, 0, 67, 100
2, 2640360, Note_on_c, 0, 71, 100
2, 2640360, Note_on_c, 0, 76, 100
2, 2640480, Note_on_c, 0, 76, 0
2, 2640480, Note_on_c, 0, 71, 0
2, 2640480, Note_on_c, 0, 67, 0
2, 2640600, Note_on_c, 0, 67, 100
2, 2640600, Note_on_c, 0, 71, 100
2, 2640600, Note_on_c, 0, 76, 100
2, 2640720, Note_on_c, 0, 76, 0
2, 2640720, Note_on_c, 0, 71, 0
2, 2640720, Note_on_c, 0, 67, 0
2, 2641080, Note_on_c, 0, 67, 100
2, 2641080, Note_on_c, 0, 71, 100
2, 2641080, Note_on_c, 0, 76, 100
2, 2641200, Note_on_c, 0, 76, 0
2, 2641200, Note_on_c, 0, 71, 0
2, 2641200, Note_on_c, 0, 67, 0
2, 2641320, Note_on_c, 0, 67, 100
2, 2641320, Note_on_c, 0, 71, 100
2, 2641320, Note_on_c, 0, 76, 100
2, 2641440, Note_on_c, 0, 76, 0
2, 2641440, Note_on_c, 0, 71, 0
2, 2641440, Note_on_c, 0, 67, 0
2, 2641560, Note_on_c, 0, 67, 100
2, 2641560, Note_on_c, 0, 71, 100
2, 2641560, Note_on_c, 0, 76, 100
2, 2641680, Note_on_c, 0, 76, 0
2, 2641680, Note_on_c, 0, 71, 0
2, 2641680, Note_on_c, 0, 67, 0
2, 2641800, Note_on_c, 0, 67, 100
2, 2641800, Note_on_c, 0, 71, 100
2, 2641800, Note_on_c, 0, 76, 100
2, 2641920, Note_on_c, 0, 76, 0
2, 2641920, Note_on_c, 0, 71, 0
2, 2641920, Note_on_c, 0, 67, 0
2, 2642040, Note_on_c, 0, 67, 100
2, 2642040, Note_on_c, 0, 71, 100
2, 2642040, Note_on_c, 0, 76, 100
2, 2642160, Note_on_c, 0, 76, 0
2, 2642160, Note_on_c, 0, 71, 0
2, 2642160, Note_on_c, 0, 67, 0
2, 2642240, Note_on_c, 0, 78, 100
2, 2642320, Note_on_c, 0, 78, 0
2, 2642320, Note_on_c, 0, 79, 100
2, 2642400, Note_on_c, 0, 79, 0
2, 2642400, Note_on_c, 0, 81, 100
2, 2642480, Note_on_c, 0, 81, 0
2, 2642480, Note_on_c, 0, 83, 100
2, 2642560, Note_on_c, 0, 83, 0
2, 2642560, Note_on_c, 0, 84, 100
2, 2642720, Note_on_c, 0, 84, 0
2, 2642720, Note_on_c, 0, 83, 100
2, 2642800, Note_on_c, 0, 83, 0
2, 2642800, Note_on_c, 0, 81, 100
2, 2642880, Note_on_c, 0, 81, 0
2, 2642880, Note_on_c, 0, 79, 100
2, 2642960, Note_on_c, 0, 79, 0
2, 2642960, Note_on_c, 0, 78, 100
2, 2643040, Note_on_c, 0, 78, 0
2, 2643040, Note_on_c, 0, 76, 100
2, 2643120, Note_on_c, 0, 76, 0
2, 2643120, Note_on_c, 0, 75, 100
2, 2643200, Note_on_c, 0, 75, 0
2, 2643200, Note_on_c, 0, 72, 100
2, 2643280, Note_on_c, 0, 72, 0
2, 2643280, Note_on_c, 0, 71, 100
2, 2643360, Note_on_c, 0, 71, 0
2, 2643360, Note_on_c, 0, 69, 100
2, 2643440, Note_on_c, 0, 69, 0
2, 2643440, Note_on_c, 0, 67, 100
2, 2643520, Note_on_c, 0, 67, 0
2, 2643520, Note_on_c, 0, 66, 100
2, 2643600, Note_on_c, 0, 66, 0
2, 2643600, Note_on_c, 0, 64, 100
2, 2643720, Note_on_c, 0, 64, 0
2, 2643720, Note_on_c, 0, 67, 100
2, 2643720, Note_on_c, 0, 71, 100
2, 2643720, Note_on_c, 0, 76, 100
2, 2643840, Note_on_c, 0, 76, 0
2, 2643840, Note_on_c, 0, 71, 0
2, 2643840, Note_on_c, 0, 67, 0
2, 2643960, Note_on_c, 0, 67, 100
2, 2643960, Note_on_c, 0, 71, 100
2, 2643960, Note_on_c, 0, 76, 100
2, 2644080, Note_on_c, 0, 76, 0
2, 2644080, Note_on_c, 0, 71, 0
2, 2644080, Note_on_c, 0, 67, 0
2, 2644200, Note_on_c, 0, 64, 100
2, 2644200, Note_on_c, 0, 67, 100
2, 2644200, Note_on_c, 0, 72, 100
2, 2644320, Note_on_c, 0, 72, 0
2, 2644320, Note_on_c, 0, 67, 0
2, 2644320, Note_on_c, 0, 64, 0
2, 2644440, Note_on_c, 0, 64, 100
2, 2644440, Note_on_c, 0, 67, 100
2, 2644440, Note_on_c, 0, 72, 100
2, 2644560, Note_on_c, 0, 72, 0
2, 2644560, Note_on_c, 0, 67, 0
2, 2644560, Note_on_c, 0, 64, 0
2, 2644680, Note_on_c, 0, 59, 100
2, 2644680, Note_on_c, 0, 67, 100
2, 2644680, Note_on_c, 0, 64, 100
2, 2644800, Note_on_c, 0, 64, 0
2, 2644800, Note_on_c, 0, 67, 0
2, 2644800, Note_on_c, 0, 59, 0
2, 2644920, Note_on_c, 0, 59, 100
2, 2644920, Note_on_c, 0, 67, 100
2, 2644920, Note_on_c, 0, 64, 100
2, 2645040, Note_on_c, 0, 64, 0
2, 2645040, Note_on_c, 0, 67, 0
2, 2645040, Note_on_c, 0, 59, 0
2, 2645120, Note_on_c, 0, 52, 100
2, 2645200, Note_on_c, 0, 52, 0
2, 2645200, Note_on_c, 0, 53, 100
2, 2645280, Note_on_c, 0, 53, 0
2, 2645280, Note_on_c, 0, 54, 100
2, 2645360, Note_on_c, 0, 54, 0
2, 2645360, Note_on_c, 0, 55, 100
2, 2645440, Note_on_c, 0, 55, 0
2, 2645440, Note_on_c, 0, 56, 100
2, 2645520, Note_on_c, 0, 56, 0
2, 2645600, Note_on_c, 0, 59, 100
2, 2645680, Note_on_c, 0, 59, 0
2, 2645680, Note_on_c, 0, 60, 100
2, 2645760, Note_on_c, 0, 60, 0
2, 2645760, Note_on_c, 0, 62, 100
2, 2645840, Note_on_c, 0, 62, 0
2, 2645840, Note_on_c, 0, 60, 100
2, 2645920, Note_on_c, 0, 60, 0
2, 2645920, Note_on_c, 0, 59, 100
2, 2646000, Note_on_c, 0, 59, 0
2, 2646000, Note_on_c, 0, 60, 100
2, 2646080, Note_on_c, 0, 60, 0
2, 2646080, Note_on_c, 0, 62, 100
2, 2646160, Note_on_c, 0, 62, 0
2, 2646160, Note_on_c, 0, 64, 100
2, 2646240, Note_on_c, 0, 64, 0
2, 2646240, Note_on_c, 0, 66, 100
2, 2646320, Note_on_c, 0, 66, 0
2, 2646320, Note_on_c, 0, 67, 100
2, 2646400, Note_on_c, 0, 67, 0
2, 2646400, Note_on_c, 0, 69, 100
2, 2646480, Note_on_c, 0, 69, 0
2, 2646560, Note_on_c, 0, 50, 100
2, 2646640, Note_on_c, 0, 50, 0
2, 2646640, Note_on_c, 0, 51, 100
2, 2646720, Note_on_c, 0, 51, 0
2, 2646720, Note_on_c, 0, 52, 100
2, 2646800, Note_on_c, 0, 52, 0
2, 2646800, Note_on_c, 0, 53, 100
2, 2646880, Note_on_c, 0, 53, 0
2, 2646880, Note_on_c, 0, 54, 100
2, 2646960, Note_on_c, 0, 54, 0
2, 2647040, Note_on_c, 0, 57, 100
2, 2647120, Note_on_c, 0, 57, 0
2, 2647120, Note_on_c, 0, 59, 100
2, 2647200, Note_on_c, 0, 59, 0
2, 2647200, Note_on_c, 0, 60, 100
2, 2647280, Note_on_c, 0, 60, 0
2, 2647280, Note_on_c, 0, 59, 100
2, 2647360, Note_on_c, 0, 59, 0
2, 2647360, Note_on_c, 0, 57, 100
2, 2647440, Note_on_c, 0, 57, 0
2, 2647440, Note_on_c, 0, 59, 100
2, 2647520, Note_on_c, 0, 59, 0
2, 2647520, Note_on_c, 0, 60, 100
2, 2647600, Note_on_c, 0, 60, 0
2, 2647600, Note_on_c, 0, 62, 100
2, 2647680, Note_on_c, 0, 62, 0
2, 2647680, Note_on_c, 0, 64, 100
2, 2647760, Note_on_c, 0, 64, 0
2, 2647760, Note_on_c, 0, 66, 100
2, 2647840, Note_on_c, 0, 66, 0
2, 2647840, Note_on_c, 0, 67, 100
2, 2647920, Note_on_c, 0, 67, 0
2, 2647920, Note_on_c, 0, 60, 100
2, 2648000, Note_on_c, 0, 60, 0
2, 2648080, Note_on_c, 0, 65, 100
2, 2648160, Note_on_c, 0, 65, 0
2, 2648160, Note_on_c, 0, 64, 100
2, 2648240, Note_on_c, 0, 64, 0
2, 2648240, Note_on_c, 0, 60, 100
2, 2648320, Note_on_c, 0, 60, 0
2, 2648560, Note_on_c, 0, 62, 100
2, 2648640, Note_on_c, 0, 62, 0
2, 2648640, Note_on_c, 0, 60, 100
2, 2648720, Note_on_c, 0, 60, 0
2, 2648720, Note_on_c, 0, 57, 100
2, 2648800, Note_on_c, 0, 57, 0
2, 2649040, Note_on_c, 0, 59, 100
2, 2649120, Note_on_c, 0, 59, 0
2, 2649120, Note_on_c, 0, 57, 100
2, 2649200, Note_on_c, 0, 57, 0
2, 2649200, Note_on_c, 0, 54, 100
2, 2649280, Note_on_c, 0, 54, 0
2, 2649520, Note_on_c, 0, 71, 100
2, 2649600, Note_on_c, 0, 71, 0
2, 2649600, Note_on_c, 0, 69, 100
2, 2649680, Note_on_c, 0, 69, 0
2, 2649680, Note_on_c, 0, 66, 100
2, 2649760, Note_on_c, 0, 66, 0
2, 2650000, Note_on_c, 0, 67, 100
2, 2650080, Note_on_c, 0, 67, 0
2, 2650080, Note_on_c, 0, 66, 100
2, 2650160, Note_on_c, 0, 66, 0
2, 2650160, Note_on_c, 0, 62, 100
2, 2650240, Note_on_c, 0, 62, 0
2, 2650480, Note_on_c, 0, 64, 100
2, 2650560, Note_on_c, 0, 64, 0
2, 2650560, Note_on_c, 0, 62, 100
2, 2650640, Note_on_c, 0, 62, 0
2, 2650640, Note_on_c, 0, 59, 100
2, 2650720, Note_on_c, 0, 59, 0
2, 2650960, Note_on_c, 0, 76, 100
2, 2651040, Note_on_c, 0, 76, 0
2, 2651040, Note_on_c, 0, 74, 100
2, 2651120, Note_on_c, 0, 74, 0
2, 2651120, Note_on_c, 0, 71, 100
2, 2651200, Note_on_c, 0, 71, 0
2, 2651440, Note_on_c, 0, 72, 100
2, 2651520, Note_on_c, 0, 72, 0
2, 2651520, Note_on_c, 0, 71, 100
2, 2651600, Note_on_c, 0, 71, 0
2, 2651600, Note_on_c, 0, 67, 100
2, 2651680, Note_on_c, 0, 67, 0
2, 2651920, Note_on_c, 0, 69, 100
2, 2652000, Note_on_c, 0, 69, 0
2, 2652000, Note_on_c, 0, 67, 100
2, 2652080, Note_on_c, 0, 67, 0
2, 2652080, Note_on_c, 0, 64, 100
2, 2652160, Note_on_c, 0, 64, 0
2, 2652400, Note_on_c, 0, 81, 100
2, 2652480, Note_on_c, 0, 81, 0
2, 2652480, Note_on_c, 0, 79, 100
2, 2652560, Note_on_c, 0, 79, 0
2, 2652560, Note_on_c, 0, 76, 100
2, 2652640, Note_on_c, 0, 76, 0
2, 2652880, Note_on_c, 0, 77, 100
2, 2652960, Note_on_c, 0, 77, 0
2, 2652960, Note_on_c, 0, 76, 100
2, 2653040, Note_on_c, 0, 76, 0
2, 2653040, Note_on_c, 0, 72, 100
2, 2653120, Note_on_c, 0, 72, 0
2, 2653360, Note_on_c, 0, 74, 100
2, 2653440, Note_on_c, 0, 74, 0
2, 2653440, Note_on_c, 0, 72, 100
2, 2653520, Note_on_c, 0, 72, 0
2, 2653520, Note_on_c, 0, 69, 100
2, 2653600, Note_on_c, 0, 69, 0
2, 2653760, Note_on_c, 0, 69, 100
2, 2653840, Note_on_c, 0, 69, 0
2, 2653840, Note_on_c, 0, 71, 100
2, 2653920, Note_on_c, 0, 71, 0
2, 2653920, Note_on_c, 0, 72, 100
2, 2654000, Note_on_c, 0, 72, 0
2, 2654000, Note_on_c, 0, 74, 100
2, 2654080, Note_on_c, 0, 74, 0
2, 2654080, Note_on_c, 0, 76, 100
2, 2654240, Note_on_c, 0, 76, 0
2, 2654240, Note_on_c, 0, 74, 100
2, 2654320, Note_on_c, 0, 74, 0
2, 2654320, Note_on_c, 0, 72, 100
2, 2654400, Note_on_c, 0, 72, 0
2, 2654400, Note_on_c, 0, 71, 100
2, 2654480, Note_on_c, 0, 71, 0
2, 2654480, Note_on_c, 0, 69, 100
2, 2654560, Note_on_c, 0, 69, 0
2, 2654560, Note_on_c, 0, 67, 100
2, 2654720, Note_on_c, 0, 67, 0
2, 2654720, Note_on_c, 0, 66, 100
2, 2654800, Note_on_c, 0, 66, 0
2, 2654800, Note_on_c, 0, 67, 100
2, 2654880, Note_on_c, 0, 67, 0
2, 2654880, Note_on_c, 0, 69, 100
2, 2654960, Note_on_c, 0, 69, 0
2, 2654960, Note_on_c, 0, 71, 100
2, 2655040, Note_on_c, 0, 71, 0
2, 2655040, Note_on_c, 0, 72, 100
2, 2655120, Note_on_c, 0, 72, 0
2, 2655120, Note_on_c, 0, 72, 100
2, 2655180, Note_on_c, 0, 72, 0
2, 2655180, Note_on_c, 0, 71, 100
2, 2655360, Note_on_c, 0, 71, 0
2, 2655480, Note_on_c, 0, 74, 100
2, 2655480, Note_on_c, 0, 79, 100
2, 2655480, Note_on_c, 0, 71, 100
2, 2655600, Note_on_c, 0, 71, 0
2, 2655600, Note_on_c, 0, 79, 0
2, 2655600, Note_on_c, 0, 74, 0
2, 2655720, Note_on_c, 0, 74, 100
2, 2655720, Note_on_c, 0, 79, 100
2, 2655720, Note_on_c, 0, 71, 100
2, 2655840, Note_on_c, 0, 71, 0
2, 2655840, Note_on_c, 0, 79, 0
2, 2655840, Note_on_c, 0, 74, 0
2, 2655960, Note_on_c, 0, 74, 100
2, 2655960, Note_on_c, 0, 79, 100
2, 2655960, Note_on_c, 0, 71, 100
2, 2656080, Note_on_c, 0, 71, 0
2, 2656080, Note_on_c, 0, 79, 0
2, 2656080, Note_on_c, 0, 74, 0
2, 2658480, Note_on_c, 0, 62, 100
2, 2658720, Note_on_c, 0, 62, 0
2, 2658720, Note_on_c, 0, 67, 100
2, 2658960, Note_on_c, 0, 67, 0
2, 2658960, Note_on_c, 0, 69, 100
2, 2659200, Note_on_c, 0, 69, 0
2, 2659200, Note_on_c, 0, 71, 100
2, 2659440, Note_on_c, 0, 71, 0
2, 2659440, Note_on_c, 0, 72, 100
2, 2659680, Note_on_c, 0, 72, 0
2, 2659680, Note_on_c, 0, 74, 100
2, 2659920, Note_on_c, 0, 74, 0
2, 2659920, Note_on_c, 0, 72, 100
2, 2660040, Note_on_c, 0, 72, 0
2, 2660040, Note_on_c, 0, 71, 100
2, 2660160, Note_on_c, 0, 71, 0
2, 2660160, Note_on_c, 0, 69, 100
2, 2660400, Note_on_c, 0, 69, 0
2, 2660640, Note_on_c, 0, 74, 100
2, 2661120, Note_on_c, 0, 74, 0
2, 2661120, Note_on_c, 0, 74, 100
2, 2661600, Note_on_c, 0, 74, 0
2, 2661600, Note_on_c, 0, 76, 100
2, 2662080, Note_on_c, 0, 76, 0
2, 2662080, Note_on_c, 0, 76, 100
2, 2662560, Note_on_c, 0, 76, 0
2, 2662560, Note_on_c, 0, 74, 100
2, 2662800, Note_on_c, 0, 74, 0
2, 2662800, Note_on_c, 0, 76, 100
2, 2663040, Note_on_c, 0, 76, 0
2, 2663040, Note_on_c, 0, 74, 100
2, 2663280, Note_on_c, 0, 74, 0
2, 2663280, Note_on_c, 0, 72, 100
2, 2663520, Note_on_c, 0, 72, 0
2, 2663520, Note_on_c, 0, 72, 100
2, 2663560, Note_on_c, 0, 72, 0
2, 2663560, Note_on_c, 0, 71, 100
2, 2663600, Note_on_c, 0, 71, 0
2, 2663600, Note_on_c, 0, 72, 100
2, 2663640, Note_on_c, 0, 72, 0
2, 2663640, Note_on_c, 0, 71, 100
2, 2663760, Note_on_c, 0, 71, 0
2, 2663760, Note_on_c, 0, 69, 100
2, 2664000, Note_on_c, 0, 69, 0
2, 2664000, Note_on_c, 0, 67, 100
2, 2664480, Note_on_c, 0, 67, 0
2, 2666160, Note_on_c, 0, 74, 100
2, 2666400, Note_on_c, 0, 74, 0
2, 2666400, Note_on_c, 0, 79, 100
2, 2666640, Note_on_c, 0, 79, 0
2, 2666640, Note_on_c, 0, 78, 100
2, 2666880, Note_on_c, 0, 78, 0
2, 2666880, Note_on_c, 0, 76, 100
2, 2667120, Note_on_c, 0, 76, 0
2, 2667120, Note_on_c, 0, 74, 100
2, 2667360, Note_on_c, 0, 74, 0
2, 2667360, Note_on_c, 0, 74, 100
2, 2667400, Note_on_c, 0, 74, 0
2, 2667400, Note_on_c, 0, 73, 100
2, 2667440, Note_on_c, 0, 73, 0
2, 2667440, Note_on_c, 0, 74, 100
2, 2667480, Note_on_c, 0, 74, 0
2, 2667480, Note_on_c, 0, 73, 100
2, 2667600, Note_on_c, 0, 73, 0
2, 2667600, Note_on_c, 0, 71, 100
2, 2667720, Note_on_c, 0, 71, 0
2, 2667720, Note_on_c, 0, 73, 100
2, 2667840, Note_on_c, 0, 73, 0
2, 2667840, Note_on_c, 0, 69, 100
2, 2668080, Note_on_c, 0, 69, 0
2, 2668320, Note_on_c, 0, 81, 100
2, 2668800, Note_on_c, 0, 81, 0
2, 2668800, Note_on_c, 0, 81, 100
2, 2669280, Note_on_c, 0, 81, 0
2, 2669280, Note_on_c, 0, 83, 100
2, 2669760, Note_on_c, 0, 83, 0
2, 2669760, Note_on_c, 0, 83, 100
2, 2670240, Note_on_c, 0, 83, 0
2, 2670240, Note_on_c, 0, 81, 100
2, 2670480, Note_on_c, 0, 81, 0
2, 2670480, Note_on_c, 0, 83, 100
2, 2670720, Note_on_c, 0, 83, 0
2, 2670720, Note_on_c, 0, 81, 100
2, 2670960, Note_on_c, 0, 81, 0
2, 2670960, Note_on_c, 0, 69, 100
2, 2670960, Note_on_c, 0, 79, 100
2, 2671200, Note_on_c, 0, 79, 0
2, 2671200, Note_on_c, 0, 78, 100
2, 2671440, Note_on_c, 0, 78, 0
2, 2671440, Note_on_c, 0, 69, 0
2, 2671440, Note_on_c, 0, 67, 100
2, 2671440, Note_on_c, 0, 76, 100
2, 2671680, Note_on_c, 0, 76, 0
2, 2671680, Note_on_c, 0, 67, 0
2, 2671680, Note_on_c, 0, 66, 100
2, 2671680, Note_on_c, 0, 74, 100
2, 2671920, Note_on_c, 0, 74, 0
2, 2671920, Note_on_c, 0, 66, 0
2, 2673840, Note_on_c, 0, 62, 100
2, 2674080, Note_on_c, 0, 62, 0
2, 2674080, Note_on_c, 0, 67, 100
2, 2674320, Note_on_c, 0, 67, 0
2, 2674320, Note_on_c, 0, 69, 100
2, 2674560, Note_on_c, 0, 69, 0
2, 2674560, Note_on_c, 0, 71, 100
2, 2674800, Note_on_c, 0, 71, 0
2, 2674800, Note_on_c, 0, 72, 100
2, 2675040, Note_on_c, 0, 72, 0
2, 2675040, Note_on_c, 0, 74, 100
2, 2675280, Note_on_c, 0, 74, 0
2, 2675280, Note_on_c, 0, 72, 100
2, 2675400, Note_on_c, 0, 72, 0
2, 2675400, Note_on_c, 0, 71, 100
2, 2675520, Note_on_c, 0, 71, 0
2, 2675520, Note_on_c, 0, 69, 100
2, 2675760, Note_on_c, 0, 69, 0
2, 2676000, Note_on_c, 0, 74, 100
2, 2676480, Note_on_c, 0, 74, 0
2, 2676480, Note_on_c, 0, 74, 100
2, 2676960, Note_on_c, 0, 74, 0
2, 2676960, Note_on_c, 0, 76, 100
2, 2677440, Note_on_c, 0, 76, 0
2, 2677440, Note_on_c, 0, 76, 100
2, 2677920, Note_on_c, 0, 76, 0
2, 2677920, Note_on_c, 0, 74, 100
2, 2678160, Note_on_c, 0, 74, 0
2, 2678160, Note_on_c, 0, 76, 100
2, 2678400, Note_on_c, 0, 76, 0
2, 2678400, Note_on_c, 0, 74, 100
2, 2678640, Note_on_c, 0, 74, 0
2, 2678640, Note_on_c, 0, 72, 100
2, 2678880, Note_on_c, 0, 72, 0
2, 2678880, Note_on_c, 0, 72, 100
2, 2678920, Note_on_c, 0, 72, 0
2, 2678920, Note_on_c, 0, 71, 100
2, 2678960, Note_on_c, 0, 71, 0
2, 2678960, Note_on_c, 0, 72, 100
2, 2679000, Note_on_c, 0, 72, 0
2, 2679000, Note_on_c, 0, 71, 100
2, 2679120, Note_on_c, 0, 71, 0
2, 2679120, Note_on_c, 0, 69, 100
2, 2679360, Note_on_c, 0, 69, 0
2, 2679360, Note_on_c, 0, 67, 100
2, 2679840, Note_on_c, 0, 67, 0
2, 2681520, Note_on_c, 0, 74, 100
2, 2681760, Note_on_c, 0, 74, 0
2, 2681760, Note_on_c, 0, 79, 100
2, 2682000, Note_on_c, 0, 79, 0
2, 2682000, Note_on_c, 0, 78, 100
2, 2682240, Note_on_c, 0, 78, 0
2, 2682240, Note_on_c, 0, 76, 100
2, 2682480, Note_on_c, 0, 76, 0
2, 2682480, Note_on_c, 0, 74, 100
2, 2682720, Note_on_c, 0, 74, 0
2, 2682720, Note_on_c, 0, 74, 100
2, 2682760, Note_on_c, 0, 74, 0
2, 2682760, Note_on_c, 0, 73, 100
2, 2682800, Note_on_c, 0, 73, 0
2, 2682800, Note_on_c, 0, 74, 100
2, 2682840, Note_on_c, 0, 74, 0
2, 2682840, Note_on_c, 0, 73, 100
2, 2682960, Note_on_c, 0, 73, 0
2, 2682960, Note_on_c, 0, 71, 100
2, 2683080, Note_on_c, 0, 71, 0
2, 2683080, Note_on_c, 0, 73, 100
2, 2683200, Note_on_c, 0, 73, 0
2, 2683200, Note_on_c, 0, 69, 100
2, 2683440, Note_on_c, 0, 69, 0
2, 2683680, Note_on_c, 0, 81, 100
2, 2684160, Note_on_c, 0, 81, 0
2, 2684160, Note_on_c, 0, 81, 100
2, 2684640, Note_on_c, 0, 81, 0
2, 2684640, Note_on_c, 0, 83, 100
2, 2685120, Note_on_c, 0, 83, 0
2, 2685120, Note_on_c, 0, 83, 100
2, 2685600, Note_on_c, 0, 83, 0
2, 2685600, Note_on_c, 0, 81, 100
2, 2685840, Note_on_c, 0, 81, 0
2, 2685840, Note_on_c, 0, 83, 100
2, 2686080, Note_on_c, 0, 83, 0
2, 2686080, Note_on_c, 0, 81, 100
2, 2686320, Note_on_c, 0, 81, 0
2, 2686320, Note_on_c, 0, 69, 100
2, 2686320, Note_on_c, 0, 79, 100
2, 2686560, Note_on_c, 0, 79, 0
2, 2686560, Note_on_c, 0, 78, 100
2, 2686800, Note_on_c, 0, 78, 0
2, 2686800, Note_on_c, 0, 69, 0
2, 2686800, Note_on_c, 0, 67, 100
2, 2686800, Note_on_c, 0, 76, 100
2, 2687040, Note_on_c, 0, 76, 0
2, 2687040, Note_on_c, 0, 67, 0
2, 2687040, Note_on_c, 0, 66, 100
2, 2687040, Note_on_c, 0, 74, 100
2, 2687280, Note_on_c, 0, 74, 0
2, 2687280, Note_on_c, 0, 66, 0
2, 2687280, Note_on_c, 0, 81, 100
2, 2687520, Note_on_c, 0, 81, 0
2, 2687520, Note_on_c, 0, 78, 100
2, 2687760, Note_on_c, 0, 78, 0
2, 2687760, Note_on_c, 0, 81, 100
2, 2688000, Note_on_c, 0, 81, 0
2, 2688000, Note_on_c, 0, 78, 100
2, 2688240, Note_on_c, 0, 78, 0
2, 2688240, Note_on_c, 0, 81, 100
2, 2688480, Note_on_c, 0, 81, 0
2, 2688480, Note_on_c, 0, 74, 100
2, 2688720, Note_on_c, 0, 74, 0
2, 2688720, Note_on_c, 0, 76, 100
2, 2688840, Note_on_c, 0, 76, 0
2, 2688840, Note_on_c, 0, 78, 100
2, 2688960, Note_on_c, 0, 78, 0
2, 2688960, Note_on_c, 0, 79, 100
2, 2689200, Note_on_c, 0, 79, 0
2, 2689200, Note_on_c, 0, 76, 100
2, 2689440, Note_on_c, 0, 76, 0
2, 2689440, Note_on_c, 0, 81, 100
2, 2689680, Note_on_c, 0, 81, 0
2, 2689680, Note_on_c, 0, 79, 100
2, 2689920, Note_on_c, 0, 79, 0
2, 2689920, Note_on_c, 0, 78, 100
2, 2690160, Note_on_c, 0, 78, 0
2, 2690160, Note_on_c, 0, 76, 100
2, 2690400, Note_on_c, 0, 76, 0
2, 2690400, Note_on_c, 0, 76, 100
2, 2690440, Note_on_c, 0, 76, 0
2, 2690440, Note_on_c, 0, 75, 100
2, 2690480, Note_on_c, 0, 75, 0
2, 2690480, Note_on_c, 0, 76, 100
2, 2690520, Note_on_c, 0, 76, 0
2, 2690520, Note_on_c, 0, 75, 100
2, 2690640, Note_on_c, 0, 75, 0
2, 2690640, Note_on_c, 0, 73, 100
2, 2690760, Note_on_c, 0, 73, 0
2, 2690760, Note_on_c, 0, 75, 100
2, 2690880, Note_on_c, 0, 75, 0
2, 2690880, Note_on_c, 0, 71, 100
2, 2691120, Note_on_c, 0, 71, 0
2, 2691120, Note_on_c, 0, 83, 100
2, 2691360, Note_on_c, 0, 83, 0
2, 2691360, Note_on_c, 0, 76, 100
2, 2691600, Note_on_c, 0, 76, 0
2, 2691600, Note_on_c, 0, 83, 100
2, 2691840, Note_on_c, 0, 83, 0
2, 2691840, Note_on_c, 0, 76, 100
2, 2692080, Note_on_c, 0, 76, 0
2, 2692080, Note_on_c, 0, 83, 100
2, 2692320, Note_on_c, 0, 83, 0
2, 2692320, Note_on_c, 0, 75, 100
2, 2692440, Note_on_c, 0, 75, 0
2, 2692440, Note_on_c, 0, 76, 100
2, 2692560, Note_on_c, 0, 76, 0
2, 2692560, Note_on_c, 0, 78, 100
2, 2692680, Note_on_c, 0, 78, 0
2, 2692680, Note_on_c, 0, 79, 100
2, 2692800, Note_on_c, 0, 79, 0
2, 2692800, Note_on_c, 0, 81, 100
2, 2693040, Note_on_c, 0, 81, 0
2, 2693040, Note_on_c, 0, 79, 100
2, 2693160, Note_on_c, 0, 79, 0
2, 2693160, Note_on_c, 0, 78, 100
2, 2693280, Note_on_c, 0, 78, 0
2, 2693280, Note_on_c, 0, 79, 100
2, 2693520, Note_on_c, 0, 79, 0
2, 2693520, Note_on_c, 0, 78, 100
2, 2693640, Note_on_c, 0, 78, 0
2, 2693640, Note_on_c, 0, 76, 100
2, 2693760, Note_on_c, 0, 76, 0
2, 2693760, Note_on_c, 0, 75, 100
2, 2693880, Note_on_c, 0, 75, 0
2, 2693880, Note_on_c, 0, 76, 100
2, 2694000, Note_on_c, 0, 76, 0
2, 2694000, Note_on_c, 0, 78, 100
2, 2694120, Note_on_c, 0, 78, 0
2, 2694120, Note_on_c, 0, 75, 100
2, 2694240, Note_on_c, 0, 75, 0
2, 2694240, Note_on_c, 0, 76, 100
2, 2695320, Note_on_c, 0, 76, 0
2, 2695320, Note_on_c, 0, 74, 100
2, 2695440, Note_on_c, 0, 74, 0
2, 2695440, Note_on_c, 0, 78, 100
2, 2695560, Note_on_c, 0, 78, 0
2, 2695560, Note_on_c, 0, 76, 100
2, 2695680, Note_on_c, 0, 76, 0
2, 2695680, Note_on_c, 0, 79, 100
2, 2695800, Note_on_c, 0, 79, 0
2, 2695800, Note_on_c, 0, 78, 100
2, 2695920, Note_on_c, 0, 78, 0
2, 2695920, Note_on_c, 0, 81, 100
2, 2696160, Note_on_c, 0, 81, 0
2, 2696160, Note_on_c, 0, 74, 100
2, 2696880, Note_on_c, 0, 74, 0
2, 2696880, Note_on_c, 0, 72, 100
2, 2697000, Note_on_c, 0, 72, 0
2, 2697000, Note_on_c, 0, 74, 100
2, 2697120, Note_on_c, 0, 74, 0
2, 2697120, Note_on_c, 0, 76, 100
2, 2697360, Note_on_c, 0, 76, 0
2, 2697360, Note_on_c, 0, 78, 100
2, 2697480, Note_on_c, 0, 78, 0
2, 2697480, Note_on_c, 0, 79, 100
2, 2697600, Note_on_c, 0, 79, 0
2, 2697600, Note_on_c, 0, 81, 100
2, 2697840, Note_on_c, 0, 81, 0
2, 2697840, Note_on_c, 0, 79, 100
2, 2698080, Note_on_c, 0, 79, 0
2, 2698080, Note_on_c, 0, 79, 100
2, 2698110, Note_on_c, 0, 79, 0
2, 2698110, Note_on_c, 0, 78, 100
2, 2698140, Note_on_c, 0, 78, 0
2, 2698140, Note_on_c, 0, 79, 100
2, 2698170, Note_on_c, 0, 79, 0
2, 2698170, Note_on_c, 0, 78, 100
2, 2698200, Note_on_c, 0, 78, 0
2, 2698200, Note_on_c, 0, 76, 100
2, 2698260, Note_on_c, 0, 76, 0
2, 2698260, Note_on_c, 0, 78, 100
2, 2698320, Note_on_c, 0, 78, 0
2, 2698320, Note_on_c, 0, 74, 100
2, 2698560, Note_on_c, 0, 74, 0
2, 2699040, Note_on_c, 0, 83, 100
2, 2699280, Note_on_c, 0, 83, 0
2, 2699280, Note_on_c, 0, 84, 100
2, 2699520, Note_on_c, 0, 84, 0
2, 2699520, Note_on_c, 0, 86, 100
2, 2699760, Note_on_c, 0, 86, 0
2, 2699760, Note_on_c, 0, 83, 100
2, 2700000, Note_on_c, 0, 83, 0
2, 2700000, Note_on_c, 0, 84, 100
2, 2700240, Note_on_c, 0, 84, 0
2, 2700240, Note_on_c, 0, 83, 100
2, 2700480, Note_on_c, 0, 83, 0
2, 2700480, Note_on_c, 0, 81, 100
2, 2700720, Note_on_c, 0, 81, 0
2, 2700720, Note_on_c, 0, 79, 100
2, 2700960, Note_on_c, 0, 79, 0
2, 2700960, Note_on_c, 0, 78, 100
2, 2701200, Note_on_c, 0, 78, 0
2, 2701200, Note_on_c, 0, 79, 100
2, 2701440, Note_on_c, 0, 79, 0
2, 2701440, Note_on_c, 0, 81, 100
2, 2701680, Note_on_c, 0, 81, 0
2, 2701680, Note_on_c, 0, 78, 100
2, 2701920, Note_on_c, 0, 78, 0
2, 2701920, Note_on_c, 0, 79, 100
2, 2702400, Note_on_c, 0, 79, 0
2, 2702400, Note_on_c, 0, 79, 100
2, 2702640, Note_on_c, 0, 79, 0
2, 2702640, Note_on_c, 0, 81, 100
2, 2702880, Note_on_c, 0, 81, 0
2, 2702880, Note_on_c, 0, 78, 100
2, 2703120, Note_on_c, 0, 78, 0
2, 2703120, Note_on_c, 0, 81, 100
2, 2703360, Note_on_c, 0, 81, 0
2, 2703360, Note_on_c, 0, 78, 100
2, 2703600, Note_on_c, 0, 78, 0
2, 2703600, Note_on_c, 0, 81, 100
2, 2703840, Note_on_c, 0, 81, 0
2, 2703840, Note_on_c, 0, 74, 100
2, 2704080, Note_on_c, 0, 74, 0
2, 2704080, Note_on_c, 0, 76, 100
2, 2704200, Note_on_c, 0, 76, 0
2, 2704200, Note_on_c, 0, 78, 100
2, 2704320, Note_on_c, 0, 78, 0
2, 2704320, Note_on_c, 0, 79, 100
2, 2704560, Note_on_c, 0, 79, 0
2, 2704560, Note_on_c, 0, 76, 100
2, 2704800, Note_on_c, 0, 76, 0
2, 2704800, Note_on_c, 0, 81, 100
2, 2705040, Note_on_c, 0, 81, 0
2, 2705040, Note_on_c, 0, 79, 100
2, 2705280, Note_on_c, 0, 79, 0
2, 2705280, Note_on_c, 0, 78, 100
2, 2705520, Note_on_c, 0, 78, 0
2, 2705520, Note_on_c, 0, 76, 100
2, 2705760, Note_on_c, 0, 76, 0
2, 2705760, Note_on_c, 0, 76, 100
2, 2705800, Note_on_c, 0, 76, 0
2, 2705800, Note_on_c, 0, 75, 100
2, 2705840, Note_on_c, 0, 75, 0
2, 2705840, Note_on_c, 0, 76, 100
2, 2705880, Note_on_c, 0, 76, 0
2, 2705880, Note_on_c, 0, 75, 100
2, 2706000, Note_on_c, 0, 75, 0
2, 2706000, Note_on_c, 0, 73, 100
2, 2706120, Note_on_c, 0, 73, 0
2, 2706120, Note_on_c, 0, 75, 100
2, 2706240, Note_on_c, 0, 75, 0
2, 2706240, Note_on_c, 0, 71, 100
2, 2706480, Note_on_c, 0, 71, 0
2, 2706480, Note_on_c, 0, 83, 100
2, 2706720, Note_on_c, 0, 83, 0
2, 2706720, Note_on_c, 0, 76, 100
2, 2706960, Note_on_c, 0, 76, 0
2, 2706960, Note_on_c, 0, 83, 100
2, 2707200, Note_on_c, 0, 83, 0
2, 2707200, Note_on_c, 0, 76, 100
2, 2707440, Note_on_c, 0, 76, 0
2, 2707440, Note_on_c, 0, 83, 100
2, 2707680, Note_on_c, 0, 83, 0
2, 2707680, Note_on_c, 0, 75, 100
2, 2707800, Note_on_c, 0, 75, 0
2, 2707800, Note_on_c, 0, 76, 100
2, 2707920, Note_on_c, 0, 76, 0
2, 2707920, Note_on_c, 0, 78, 100
2, 2708040, Note_on_c, 0, 78, 0
2, 2708040, Note_on_c, 0, 79, 100
2, 2708160, Note_on_c, 0, 79, 0
2, 2708160, Note_on_c, 0, 81, 100
2, 2708400, Note_on_c, 0, 81, 0
2, 2708400, Note_on_c, 0, 79, 100
2, 2708520, Note_on_c, 0, 79, 0
2, 2708520, Note_on_c, 0, 78, 100
2, 2708640, Note_on_c, 0, 78, 0
2, 2708640, Note_on_c, 0, 79, 100
2, 2708880, Note_on_c, 0, 79, 0
2, 2708880, Note_on_c, 0, 78, 100
2, 2709000, Note_on_c, 0, 78, 0
2, 2709000, Note_on_c, 0, 76, 100
2, 2709120, Note_on_c, 0, 76, 0
2, 2709120, Note_on_c, 0, 75, 100
2, 2709240, Note_on_c, 0, 75, 0
2, 2709240, Note_on_c, 0, 76, 100
2, 2709360, Note_on_c, 0, 76, 0
2, 2709360, Note_on_c, 0, 78, 100
2, 2709480, Note_on_c, 0, 78, 0
2, 2709480, Note_on_c, 0, 75, 100
2, 2709600, Note_on_c, 0, 75, 0
2, 2709600, Note_on_c, 0, 76, 100
2, 2710680, Note_on_c, 0, 76, 0
2, 2710680, Note_on_c, 0, 74, 100
2, 2710800, Note_on_c, 0, 74, 0
2, 2710800, Note_on_c, 0, 78, 100
2, 2710920, Note_on_c, 0, 78, 0
2, 2710920, Note_on_c, 0, 76, 100
2, 2711040, Note_on_c, 0, 76, 0
2, 2711040, Note_on_c, 0, 79, 100
2, 2711160, Note_on_c, 0, 79, 0
2, 2711160, Note_on_c, 0, 78, 100
2, 2711280, Note_on_c, 0, 78, 0
2, 2711280, Note_on_c, 0, 81, 100
2, 2711520, Note_on_c, 0, 81, 0
2, 2711520, Note_on_c, 0, 74, 100
2, 2712240, Note_on_c, 0, 74, 0
2, 2712240, Note_on_c, 0, 72, 100
2, 2712360, Note_on_c, 0, 72, 0
2, 2712360, Note_on_c, 0, 74, 100
2, 2712480, Note_on_c, 0, 74, 0
2, 2712480, Note_on_c, 0, 76, 100
2, 2712720, Note_on_c, 0, 76, 0
2, 2712720, Note_on_c, 0, 78, 100
2, 2712840, Note_on_c, 0, 78, 0
2, 2712840, Note_on_c, 0, 79, 100
2, 2712960, Note_on_c, 0, 79, 0
2, 2712960, Note_on_c, 0, 81, 100
2, 2713200, Note_on_c, 0, 81, 0
2, 2713200, Note_on_c, 0, 79, 100
2, 2713440, Note_on_c, 0, 79, 0
2, 2713440, Note_on_c, 0, 79, 100
2, 2713470, Note_on_c, 0, 79, 0
2, 2713470, Note_on_c, 0, 78, 100
2, 2713500, Note_on_c, 0, 78, 0
2, 2713500, Note_on_c, 0, 79, 100
2, 2713530, Note_on_c, 0, 79, 0
2, 2713530, Note_on_c, 0, 78, 100
2, 2713560, Note_on_c, 0, 78, 0
2, 2713560, Note_on_c, 0, 76, 100
2, 2713620, Note_on_c, 0, 76, 0
2, 2713620, Note_on_c, 0, 78, 100
2, 2713680, Note_on_c, 0, 78, 0
2, 2713680, Note_on_c, 0, 74, 100
2, 2713920, Note_on_c, 0, 74, 0
2, 2714400, Note_on_c, 0, 83, 100
2, 2714640, Note_on_c, 0, 83, 0
2, 2714640, Note_on_c, 0, 84, 100
2, 2714880, Note_on_c, 0, 84, 0
2, 2714880, Note_on_c, 0, 86, 100
2, 2715120, Note_on_c, 0, 86, 0
2, 2715120, Note_on_c, 0, 83, 100
2, 2715360, Note_on_c, 0, 83, 0
2, 2715360, Note_on_c, 0, 84, 100
2, 2715600, Note_on_c, 0, 84, 0
2, 2715600, Note_on_c, 0, 83, 100
2, 2715840, Note_on_c, 0, 83, 0
2, 2715840, Note_on_c, 0, 81, 100
2, 2716080, Note_on_c, 0, 81, 0
2, 2716080, Note_on_c, 0, 79, 100
2, 2716320, Note_on_c, 0, 79, 0
2, 2716320, Note_on_c, 0, 78, 100
2, 2716560, Note_on_c, 0, 78, 0
2, 2716560, Note_on_c, 0, 79, 100
2, 2716800, Note_on_c, 0, 79, 0
2, 2716800, Note_on_c, 0, 81, 100
2, 2717040, Note_on_c, 0, 81, 0
2, 2717040, Note_on_c, 0, 78, 100
2, 2717280, Note_on_c, 0, 78, 0
2, 2717280, Note_on_c, 0, 79, 100
2, 2717760, Note_on_c, 0, 79, 0
2, 2717760, Note_on_c, 0, 79, 100
2, 2718000, Note_on_c, 0, 79, 0
2, 2718240, Note_on_c, 0, 79, 100
2, 2718720, Note_on_c, 0, 79, 0
2, 2718720, Note_on_c, 0, 79, 100
2, 2719200, Note_on_c, 0, 79, 0
2, 2719200, Note_on_c, 0, 81, 100
2, 2719260, Note_on_c, 0, 81, 0
2, 2719260, Note_on_c, 0, 79, 100
2, 2719320, Note_on_c, 0, 79, 0
2, 2719320, Note_on_c, 0, 81, 100
2, 2719560, Note_on_c, 0, 81, 0
2, 2719560, Note_on_c, 0, 83, 100
2, 2719680, Note_on_c, 0, 83, 0
2, 2719680, Note_on_c, 0, 81, 100
2, 2719920, Note_on_c, 0, 81, 0
2, 2719920, Note_on_c, 0, 79, 100
2, 2720040, Note_on_c, 0, 79, 0
2, 2720040, Note_on_c, 0, 78, 100
2, 2720160, Note_on_c, 0, 78, 0
2, 2720160, Note_on_c, 0, 76, 100
2, 2720400, Note_on_c, 0, 76, 0
2, 2720400, Note_on_c, 0, 74, 100
2, 2721120, Note_on_c, 0, 74, 0
2, 2721120, Note_on_c, 0, 67, 100
2, 2721180, Note_on_c, 0, 67, 0
2, 2721180, Note_on_c, 0, 66, 100
2, 2721240, Note_on_c, 0, 66, 0
2, 2721240, Note_on_c, 0, 67, 100
2, 2721600, Note_on_c, 0, 67, 0
2, 2721600, Note_on_c, 0, 69, 100
2, 2721660, Note_on_c, 0, 69, 0
2, 2721660, Note_on_c, 0, 67, 100
2, 2721720, Note_on_c, 0, 67, 0
2, 2721720, Note_on_c, 0, 66, 100
2, 2721780, Note_on_c, 0, 66, 0
2, 2721780, Note_on_c, 0, 67, 100
2, 2721840, Note_on_c, 0, 67, 0
2, 2721840, Note_on_c, 0, 69, 100
2, 2721900, Note_on_c, 0, 69, 0
2, 2721900, Note_on_c, 0, 67, 100
2, 2721960, Note_on_c, 0, 67, 0
2, 2721960, Note_on_c, 0, 69, 100
2, 2722020, Note_on_c, 0, 69, 0
2, 2722020, Note_on_c, 0, 67, 100
2, 2722080, Note_on_c, 0, 67, 0
2, 2722080, Note_on_c, 0, 69, 100
2, 2722120, Note_on_c, 0, 69, 0
2, 2722120, Note_on_c, 0, 67, 100
2, 2722160, Note_on_c, 0, 67, 0
2, 2722160, Note_on_c, 0, 69, 100
2, 2722200, Note_on_c, 0, 69, 0
2, 2722200, Note_on_c, 0, 67, 100
2, 2722240, Note_on_c, 0, 67, 0
2, 2722240, Note_on_c, 0, 69, 100
2, 2722280, Note_on_c, 0, 69, 0
2, 2722281, Note_on_c, 0, 67, 100
2, 2722320, Note_on_c, 0, 66, 100
2, 2722321, Note_on_c, 0, 67, 0
2, 2722440, Note_on_c, 0, 66, 0
2, 2722440, Note_on_c, 0, 67, 100
2, 2722560, Note_on_c, 0, 67, 0
2, 2722560, Note_on_c, 0, 69, 100
2, 2722620, Note_on_c, 0, 69, 0
2, 2722620, Note_on_c, 0, 67, 100
2, 2722680, Note_on_c, 0, 67, 0
2, 2722680, Note_on_c, 0, 66, 100
2, 2722800, Note_on_c, 0, 66, 0
2, 2722800, Note_on_c, 0, 67, 100
2, 2722860, Note_on_c, 0, 67, 0
2, 2722860, Note_on_c, 0, 66, 100
2, 2722920, Note_on_c, 0, 66, 0
2, 2722920, Note_on_c, 0, 64, 100
2, 2723040, Note_on_c, 0, 64, 0
2, 2723040, Note_on_c, 0, 64, 100
2, 2723280, Note_on_c, 0, 64, 0
2, 2723280, Note_on_c, 0, 62, 100
2, 2724000, Note_on_c, 0, 62, 0
2, 2724000, Note_on_c, 0, 74, 100
2, 2724480, Note_on_c, 0, 74, 0
2, 2724480, Note_on_c, 0, 74, 100
2, 2724960, Note_on_c, 0, 74, 0
2, 2724960, Note_on_c, 0, 76, 100
2, 2725020, Note_on_c, 0, 76, 0
2, 2725020, Note_on_c, 0, 74, 100
2, 2725080, Note_on_c, 0, 74, 0
2, 2725080, Note_on_c, 0, 76, 100
2, 2725320, Note_on_c, 0, 76, 0
2, 2725320, Note_on_c, 0, 77, 100
2, 2725440, Note_on_c, 0, 77, 0
2, 2725440, Note_on_c, 0, 76, 100
2, 2725680, Note_on_c, 0, 76, 0
2, 2725680, Note_on_c, 0, 74, 100
2, 2725800, Note_on_c, 0, 74, 0
2, 2725800, Note_on_c, 0, 72, 100
2, 2725920, Note_on_c, 0, 72, 0
2, 2725920, Note_on_c, 0, 71, 100
2, 2726160, Note_on_c, 0, 71, 0
2, 2726160, Note_on_c, 0, 69, 100
2, 2726640, Note_on_c, 0, 69, 0
2, 2726640, Note_on_c, 0, 79, 100
2, 2726700, Note_on_c, 0, 79, 0
2, 2726700, Note_on_c, 0, 78, 100
2, 2726760, Note_on_c, 0, 78, 0
2, 2726760, Note_on_c, 0, 76, 100
2, 2726820, Note_on_c, 0, 76, 0
2, 2726820, Note_on_c, 0, 78, 100
2, 2726880, Note_on_c, 0, 78, 0
2, 2726880, Note_on_c, 0, 79, 100
2, 2726940, Note_on_c, 0, 79, 0
2, 2726940, Note_on_c, 0, 78, 100
2, 2727120, Note_on_c, 0, 78, 0
2, 2727120, Note_on_c, 0, 81, 100
2, 2727180, Note_on_c, 0, 81, 0
2, 2727180, Note_on_c, 0, 79, 100
2, 2727360, Note_on_c, 0, 79, 0
2, 2727360, Note_on_c, 0, 78, 100
2, 2727420, Note_on_c, 0, 78, 0
2, 2727420, Note_on_c, 0, 76, 100
2, 2727600, Note_on_c, 0, 76, 0
2, 2727600, Note_on_c, 0, 74, 100
2, 2727660, Note_on_c, 0, 74, 0
2, 2727660, Note_on_c, 0, 72, 100
2, 2727840, Note_on_c, 0, 72, 0
2, 2727840, Note_on_c, 0, 72, 100
2, 2727960, Note_on_c, 0, 72, 0
2, 2727960, Note_on_c, 0, 81, 100
2, 2728200, Note_on_c, 0, 81, 0
2, 2728200, Note_on_c, 0, 72, 100
2, 2728320, Note_on_c, 0, 72, 0
2, 2728320, Note_on_c, 0, 71, 100
2, 2728380, Note_on_c, 0, 71, 0
2, 2728380, Note_on_c, 0, 67, 100
2, 2728680, Note_on_c, 0, 67, 0
2, 2728680, Note_on_c, 0, 66, 100
2, 2728800, Note_on_c, 0, 66, 0
2, 2728800, Note_on_c, 0, 66, 100
2, 2729040, Note_on_c, 0, 66, 0
2, 2729040, Note_on_c, 0, 67, 100
2, 2729100, Note_on_c, 0, 67, 0
2, 2729100, Note_on_c, 0, 66, 100
2, 2729160, Note_on_c, 0, 66, 0
2, 2729160, Note_on_c, 0, 67, 100
2, 2729760, Note_on_c, 0, 67, 0
2, 2729760, Note_on_c, 0, 71, 100
2, 2730240, Note_on_c, 0, 71, 0
2, 2730240, Note_on_c, 0, 71, 100
2, 2730720, Note_on_c, 0, 71, 0
2, 2730720, Note_on_c, 0, 73, 100
2, 2730780, Note_on_c, 0, 73, 0
2, 2730780, Note_on_c, 0, 71, 100
2, 2730840, Note_on_c, 0, 71, 0
2, 2730840, Note_on_c, 0, 73, 100
2, 2731080, Note_on_c, 0, 73, 0
2, 2731080, Note_on_c, 0, 74, 100
2, 2731200, Note_on_c, 0, 74, 0
2, 2731200, Note_on_c, 0, 74, 100
2, 2731320, Note_on_c, 0, 74, 0
2, 2731320, Note_on_c, 0, 73, 100
2, 2731440, Note_on_c, 0, 73, 0
2, 2731440, Note_on_c, 0, 71, 100
2, 2731560, Note_on_c, 0, 71, 0
2, 2731560, Note_on_c, 0, 69, 100
2, 2732550, Note_on_c, 0, 69, 0
2, 2732550, Note_on_c, 0, 67, 100
2, 2732580, Note_on_c, 0, 71, 100
2, 2732610, Note_on_c, 0, 76, 100
2, 2732640, Note_on_c, 0, 79, 100
2, 2733120, Note_on_c, 0, 79, 0
2, 2733120, Note_on_c, 0, 67, 0
2, 2733120, Note_on_c, 0, 71, 0
2, 2733120, Note_on_c, 0, 76, 0
2, 2733120, Note_on_c, 0, 81, 100
2, 2733180, Note_on_c, 0, 81, 0
2, 2733180, Note_on_c, 0, 79, 100
2, 2733240, Note_on_c, 0, 79, 0
2, 2733240, Note_on_c, 0, 78, 100
2, 2733300, Note_on_c, 0, 78, 0
2, 2733300, Note_on_c, 0, 79, 100
2, 2733360, Note_on_c, 0, 79, 0
2, 2733360, Note_on_c, 0, 81, 100
2, 2733420, Note_on_c, 0, 81, 0
2, 2733420, Note_on_c, 0, 79, 100
2, 2733480, Note_on_c, 0, 79, 0
2, 2733480, Note_on_c, 0, 81, 100
2, 2733540, Note_on_c, 0, 81, 0
2, 2733540, Note_on_c, 0, 79, 100
2, 2733600, Note_on_c, 0, 79, 0
2, 2733600, Note_on_c, 0, 81, 100
2, 2733640, Note_on_c, 0, 81, 0
2, 2733640, Note_on_c, 0, 79, 100
2, 2733680, Note_on_c, 0, 79, 0
2, 2733680, Note_on_c, 0, 81, 100
2, 2733720, Note_on_c, 0, 81, 0
2, 2733720, Note_on_c, 0, 79, 100
2, 2733760, Note_on_c, 0, 79, 0
2, 2733760, Note_on_c, 0, 81, 100
2, 2733800, Note_on_c, 0, 81, 0
2, 2733800, Note_on_c, 0, 79, 100
2, 2733840, Note_on_c, 0, 79, 0
2, 2733840, Note_on_c, 0, 78, 100
2, 2733960, Note_on_c, 0, 78, 0
2, 2733960, Note_on_c, 0, 79, 100
2, 2734080, Note_on_c, 0, 79, 0
2, 2734080, Note_on_c, 0, 79, 100
2, 2734320, Note_on_c, 0, 79, 0
2, 2734320, Note_on_c, 0, 78, 100
2, 2734440, Note_on_c, 0, 78, 0
2, 2734440, Note_on_c, 0, 76, 100
2, 2734560, Note_on_c, 0, 76, 0
2, 2734560, Note_on_c, 0, 74, 100
2, 2734620, Note_on_c, 0, 74, 0
2, 2734620, Note_on_c, 0, 73, 100
2, 2734680, Note_on_c, 0, 73, 0
2, 2734680, Note_on_c, 0, 71, 100
2, 2734740, Note_on_c, 0, 71, 0
2, 2734740, Note_on_c, 0, 73, 100
2, 2734800, Note_on_c, 0, 73, 0
2, 2734800, Note_on_c, 0, 74, 100
2, 2734860, Note_on_c, 0, 74, 0
2, 2734860, Note_on_c, 0, 73, 100
2, 2734920, Note_on_c, 0, 73, 0
2, 2734920, Note_on_c, 0, 74, 100
2, 2734960, Note_on_c, 0, 74, 0
2, 2734960, Note_on_c, 0, 73, 100
2, 2735000, Note_on_c, 0, 73, 0
2, 2735000, Note_on_c, 0, 74, 100
2, 2735040, Note_on_c, 0, 74, 0
2, 2735040, Note_on_c, 0, 73, 100
2, 2735280, Note_on_c, 0, 73, 0
2, 2735280, Note_on_c, 0, 76, 100
2, 2735520, Note_on_c, 0, 76, 0
2, 2735520, Note_on_c, 0, 81, 100
2, 2735640, Note_on_c, 0, 81, 0
2, 2735640, Note_on_c, 0, 79, 100
2, 2735760, Note_on_c, 0, 79, 0
2, 2735760, Note_on_c, 0, 78, 100
2, 2735880, Note_on_c, 0, 78, 0
2, 2735880, Note_on_c, 0, 76, 100
2, 2736000, Note_on_c, 0, 76, 0
2, 2736000, Note_on_c, 0, 74, 100
2, 2736240, Note_on_c, 0, 74, 0
2, 2736240, Note_on_c, 0, 69, 100
2, 2736780, Note_on_c, 0, 69, 0
2, 2736780, Note_on_c, 0, 71, 100
2, 2736840, Note_on_c, 0, 71, 0
2, 2736840, Note_on_c, 0, 72, 100
2, 2736960, Note_on_c, 0, 72, 0
2, 2736960, Note_on_c, 0, 71, 100
2, 2737080, Note_on_c, 0, 71, 0
2, 2737080, Note_on_c, 0, 69, 100
2, 2737200, Note_on_c, 0, 69, 0
2, 2737200, Note_on_c, 0, 67, 100
2, 2737320, Note_on_c, 0, 67, 0
2, 2737320, Note_on_c, 0, 66, 100
2, 2737440, Note_on_c, 0, 66, 0
2, 2737440, Note_on_c, 0, 64, 100
2, 2737680, Note_on_c, 0, 64, 0
2, 2737680, Note_on_c, 0, 74, 100
2, 2737800, Note_on_c, 0, 74, 0
2, 2737800, Note_on_c, 0, 73, 100
2, 2738220, Note_on_c, 0, 73, 0
2, 2738220, Note_on_c, 0, 74, 100
2, 2738280, Note_on_c, 0, 74, 0
2, 2738280, Note_on_c, 0, 76, 100
2, 2738400, Note_on_c, 0, 76, 0
2, 2738400, Note_on_c, 0, 74, 100
2, 2738520, Note_on_c, 0, 74, 0
2, 2738520, Note_on_c, 0, 73, 100
2, 2738640, Note_on_c, 0, 73, 0
2, 2738640, Note_on_c, 0, 71, 100
2, 2738760, Note_on_c, 0, 71, 0
2, 2738760, Note_on_c, 0, 69, 100
2, 2738880, Note_on_c, 0, 69, 0
2, 2738880, Note_on_c, 0, 79, 100
2, 2739120, Note_on_c, 0, 79, 0
2, 2739120, Note_on_c, 0, 71, 100
2, 2739600, Note_on_c, 0, 71, 0
2, 2739600, Note_on_c, 0, 73, 100
2, 2739840, Note_on_c, 0, 73, 0
2, 2739840, Note_on_c, 0, 73, 100
2, 2739960, Note_on_c, 0, 73, 0
2, 2739960, Note_on_c, 0, 74, 100
2, 2740140, Note_on_c, 0, 74, 0
2, 2740140, Note_on_c, 0, 76, 100
2, 2740200, Note_on_c, 0, 76, 0
2, 2740200, Note_on_c, 0, 74, 100
2, 2740260, Note_on_c, 0, 74, 0
2, 2740260, Note_on_c, 0, 73, 100
2, 2740320, Note_on_c, 0, 73, 0
2, 2740320, Note_on_c, 0, 73, 100
2, 2740560, Note_on_c, 0, 73, 0
2, 2740560, Note_on_c, 0, 74, 100
2, 2741280, Note_on_c, 0, 74, 0
2, 2741280, Note_on_c, 0, 79, 100
2, 2741760, Note_on_c, 0, 79, 0
2, 2741760, Note_on_c, 0, 79, 100
2, 2742240, Note_on_c, 0, 79, 0
2, 2742240, Note_on_c, 0, 81, 100
2, 2742300, Note_on_c, 0, 81, 0
2, 2742300, Note_on_c, 0, 79, 100
2, 2742360, Note_on_c, 0, 79, 0
2, 2742360, Note_on_c, 0, 81, 100
2, 2742600, Note_on_c, 0, 81, 0
2, 2742600, Note_on_c, 0, 83, 100
2, 2742720, Note_on_c, 0, 83, 0
2, 2742720, Note_on_c, 0, 81, 100
2, 2742960, Note_on_c, 0, 81, 0
2, 2742960, Note_on_c, 0, 79, 100
2, 2743080, Note_on_c, 0, 79, 0
2, 2743080, Note_on_c, 0, 78, 100
2, 2743200, Note_on_c, 0, 78, 0
2, 2743200, Note_on_c, 0, 76, 100
2, 2743440, Note_on_c, 0, 76, 0
2, 2743440, Note_on_c, 0, 74, 100
2, 2744160, Note_on_c, 0, 74, 0
2, 2744160, Note_on_c, 0, 67, 100
2, 2744220, Note_on_c, 0, 67, 0
2, 2744220, Note_on_c, 0, 66, 100
2, 2744280, Note_on_c, 0, 66, 0
2, 2744280, Note_on_c, 0, 67, 100
2, 2744640, Note_on_c, 0, 67, 0
2, 2744640, Note_on_c, 0, 69, 100
2, 2744700, Note_on_c, 0, 69, 0
2, 2744700, Note_on_c, 0, 67, 100
2, 2744760, Note_on_c, 0, 67, 0
2, 2744760, Note_on_c, 0, 66, 100
2, 2744820, Note_on_c, 0, 66, 0
2, 2744820, Note_on_c, 0, 67, 100
2, 2744880, Note_on_c, 0, 67, 0
2, 2744880, Note_on_c, 0, 69, 100
2, 2744940, Note_on_c, 0, 69, 0
2, 2744940, Note_on_c, 0, 67, 100
2, 2745000, Note_on_c, 0, 67, 0
2, 2745000, Note_on_c, 0, 69, 100
2, 2745060, Note_on_c, 0, 69, 0
2, 2745060, Note_on_c, 0, 67, 100
2, 2745120, Note_on_c, 0, 67, 0
2, 2745120, Note_on_c, 0, 69, 100
2, 2745160, Note_on_c, 0, 69, 0
2, 2745160, Note_on_c, 0, 67, 100
2, 2745200, Note_on_c, 0, 67, 0
2, 2745200, Note_on_c, 0, 69, 100
2, 2745240, Note_on_c, 0, 69, 0
2, 2745240, Note_on_c, 0, 67, 100
2, 2745280, Note_on_c, 0, 67, 0
2, 2745280, Note_on_c, 0, 69, 100
2, 2745320, Note_on_c, 0, 69, 0
2, 2745321, Note_on_c, 0, 67, 100
2, 2745360, Note_on_c, 0, 66, 100
2, 2745361, Note_on_c, 0, 67, 0
2, 2745480, Note_on_c, 0, 66, 0
2, 2745480, Note_on_c, 0, 67, 100
2, 2745600, Note_on_c, 0, 67, 0
2, 2745600, Note_on_c, 0, 69, 100
2, 2745660, Note_on_c, 0, 69, 0
2, 2745660, Note_on_c, 0, 67, 100
2, 2745720, Note_on_c, 0, 67, 0
2, 2745720, Note_on_c, 0, 66, 100
2, 2745840, Note_on_c, 0, 66, 0
2, 2745840, Note_on_c, 0, 67, 100
2, 2745900, Note_on_c, 0, 67, 0
2, 2745900, Note_on_c, 0, 66, 100
2, 2745960, Note_on_c, 0, 66, 0
2, 2745960, Note_on_c, 0, 64, 100
2, 2746080, Note_on_c, 0, 64, 0
2, 2746080, Note_on_c, 0, 64, 100
2, 2746320, Note_on_c, 0, 64, 0
2, 2746320, Note_on_c, 0, 62, 100
2, 2747040, Note_on_c, 0, 62, 0
2, 2747040, Note_on_c, 0, 74, 100
2, 2747520, Note_on_c, 0, 74, 0
2, 2747520, Note_on_c, 0, 74, 100
2, 2748000, Note_on_c, 0, 74, 0
2, 2748000, Note_on_c, 0, 76, 100
2, 2748060, Note_on_c, 0, 76, 0
2, 2748060, Note_on_c, 0, 74, 100
2, 2748120, Note_on_c, 0, 74, 0
2, 2748120, Note_on_c, 0, 76, 100
2, 2748360, Note_on_c, 0, 76, 0
2, 2748360, Note_on_c, 0, 77, 100
2, 2748480, Note_on_c, 0, 77, 0
2, 2748480, Note_on_c, 0, 76, 100
2, 2748720, Note_on_c, 0, 76, 0
2, 2748720, Note_on_c, 0, 74, 100
2, 2748840, Note_on_c, 0, 74, 0
2, 2748840, Note_on_c, 0, 72, 100
2, 2748960, Note_on_c, 0, 72, 0
2, 2748960, Note_on_c, 0, 71, 100
2, 2749200, Note_on_c, 0, 71, 0
2, 2749200, Note_on_c, 0, 69, 100
2, 2749680, Note_on_c, 0, 69, 0
2, 2749680, Note_on_c, 0, 79, 100
2, 2749740, Note_on_c, 0, 79, 0
2, 2749740, Note_on_c, 0, 78, 100
2, 2749800, Note_on_c, 0, 78, 0
2, 2749800, Note_on_c, 0, 76, 100
2, 2749860, Note_on_c, 0, 76, 0
2, 2749860, Note_on_c, 0, 78, 100
2, 2749920, Note_on_c, 0, 78, 0
2, 2749920, Note_on_c, 0, 79, 100
2, 2749980, Note_on_c, 0, 79, 0
2, 2749980, Note_on_c, 0, 78, 100
2, 2750160, Note_on_c, 0, 78, 0
2, 2750160, Note_on_c, 0, 81, 100
2, 2750220, Note_on_c, 0, 81, 0
2, 2750220, Note_on_c, 0, 79, 100
2, 2750400, Note_on_c, 0, 79, 0
2, 2750400, Note_on_c, 0, 78, 100
2, 2750460, Note_on_c, 0, 78, 0
2, 2750460, Note_on_c, 0, 76, 100
2, 2750640, Note_on_c, 0, 76, 0
2, 2750640, Note_on_c, 0, 74, 100
2, 2750700, Note_on_c, 0, 74, 0
2, 2750700, Note_on_c, 0, 72, 100
2, 2750880, Note_on_c, 0, 72, 0
2, 2750880, Note_on_c, 0, 72, 100
2, 2751000, Note_on_c, 0, 72, 0
2, 2751000, Note_on_c, 0, 81, 100
2, 2751240, Note_on_c, 0, 81, 0
2, 2751240, Note_on_c, 0, 72, 100
2, 2751360, Note_on_c, 0, 72, 0
2, 2751360, Note_on_c, 0, 71, 100
2, 2751420, Note_on_c, 0, 71, 0
2, 2751420, Note_on_c, 0, 67, 100
2, 2751720, Note_on_c, 0, 67, 0
2, 2751720, Note_on_c, 0, 66, 100
2, 2751840, Note_on_c, 0, 66, 0
2, 2751840, Note_on_c, 0, 66, 100
2, 2752080, Note_on_c, 0, 66, 0
2, 2752080, Note_on_c, 0, 67, 100
2, 2752140, Note_on_c, 0, 67, 0
2, 2752140, Note_on_c, 0, 66, 100
2, 2752200, Note_on_c, 0, 66, 0
2, 2752200, Note_on_c, 0, 67, 100
2, 2752800, Note_on_c, 0, 67, 0
2, 2752800, Note_on_c, 0, 71, 100
2, 2753280, Note_on_c, 0, 71, 0
2, 2753280, Note_on_c, 0, 71, 100
2, 2753760, Note_on_c, 0, 71, 0
2, 2753760, Note_on_c, 0, 73, 100
2, 2753820, Note_on_c, 0, 73, 0
2, 2753820, Note_on_c, 0, 71, 100
2, 2753880, Note_on_c, 0, 71, 0
2, 2753880, Note_on_c, 0, 73, 100
2, 2754120, Note_on_c, 0, 73, 0
2, 2754120, Note_on_c, 0, 74, 100
2, 2754240, Note_on_c, 0, 74, 0
2, 2754240, Note_on_c, 0, 74, 100
2, 2754360, Note_on_c, 0, 74, 0
2, 2754360, Note_on_c, 0, 73, 100
2, 2754480, Note_on_c, 0, 73, 0
2, 2754480, Note_on_c, 0, 71, 100
2, 2754600, Note_on_c, 0, 71, 0
2, 2754600, Note_on_c, 0, 69, 100
2, 2755590, Note_on_c, 0, 69, 0
2, 2755590, Note_on_c, 0, 67, 100
2, 2755620, Note_on_c, 0, 71, 100
2, 2755650, Note_on_c, 0, 76, 100
2, 2755680, Note_on_c, 0, 79, 100
2, 2756160, Note_on_c, 0, 79, 0
2, 2756160, Note_on_c, 0, 67, 0
2, 2756160, Note_on_c, 0, 71, 0
2, 2756160, Note_on_c, 0, 76, 0
2, 2756160, Note_on_c, 0, 81, 100
2, 2756220, Note_on_c, 0, 81, 0
2, 2756220, Note_on_c, 0, 79, 100
2, 2756280, Note_on_c, 0, 79, 0
2, 2756280, Note_on_c, 0, 78, 100
2, 2756340, Note_on_c, 0, 78, 0
2, 2756340, Note_on_c, 0, 79, 100
2, 2756400, Note_on_c, 0, 79, 0
2, 2756400, Note_on_c, 0, 81, 100
2, 2756460, Note_on_c, 0, 81, 0
2, 2756460, Note_on_c, 0, 79, 100
2, 2756520, Note_on_c, 0, 79, 0
2, 2756520, Note_on_c, 0, 81, 100
2, 2756580, Note_on_c, 0, 81, 0
2, 2756580, Note_on_c, 0, 79, 100
2, 2756640, Note_on_c, 0, 79, 0
2, 2756640, Note_on_c, 0, 81, 100
2, 2756680, Note_on_c, 0, 81, 0
2, 2756680, Note_on_c, 0, 79, 100
2, 2756720, Note_on_c, 0, 79, 0
2, 2756720, Note_on_c, 0, 81, 100
2, 2756760, Note_on_c, 0, 81, 0
2, 2756760, Note_on_c, 0, 79, 100
2, 2756800, Note_on_c, 0, 79, 0
2, 2756800, Note_on_c, 0, 81, 100
2, 2756840, Note_on_c, 0, 81, 0
2, 2756840, Note_on_c, 0, 79, 100
2, 2756880, Note_on_c, 0, 79, 0
2, 2756880, Note_on_c, 0, 78, 100
2, 2757000, Note_on_c, 0, 78, 0
2, 2757000, Note_on_c, 0, 79, 100
2, 2757120, Note_on_c, 0, 79, 0
2, 2757120, Note_on_c, 0, 79, 100
2, 2757360, Note_on_c, 0, 79, 0
2, 2757360, Note_on_c, 0, 78, 100
2, 2757480, Note_on_c, 0, 78, 0
2, 2757480, Note_on_c, 0, 76, 100
2, 2757600, Note_on_c, 0, 76, 0
2, 2757600, Note_on_c, 0, 74, 100
2, 2757660, Note_on_c, 0, 74, 0
2, 2757660, Note_on_c, 0, 73, 100
2, 2757720, Note_on_c, 0, 73, 0
2, 2757720, Note_on_c, 0, 71, 100
2, 2757780, Note_on_c, 0, 71, 0
2, 2757780, Note_on_c, 0, 73, 100
2, 2757840, Note_on_c, 0, 73, 0
2, 2757840, Note_on_c, 0, 74, 100
2, 2757900, Note_on_c, 0, 74, 0
2, 2757900, Note_on_c, 0, 73, 100
2, 2757960, Note_on_c, 0, 73, 0
2, 2757960, Note_on_c, 0, 74, 100
2, 2758000, Note_on_c, 0, 74, 0
2, 2758000, Note_on_c, 0, 73, 100
2, 2758040, Note_on_c, 0, 73, 0
2, 2758040, Note_on_c, 0, 74, 100
2, 2758080, Note_on_c, 0, 74, 0
2, 2758080, Note_on_c, 0, 73, 100
2, 2758320, Note_on_c, 0, 73, 0
2, 2758320, Note_on_c, 0, 76, 100
2, 2758560, Note_on_c, 0, 76, 0
2, 2758560, Note_on_c, 0, 81, 100
2, 2758680, Note_on_c, 0, 81, 0
2, 2758680, Note_on_c, 0, 79, 100
2, 2758800, Note_on_c, 0, 79, 0
2, 2758800, Note_on_c, 0, 78, 100
2, 2758920, Note_on_c, 0, 78, 0
2, 2758920, Note_on_c, 0, 76, 100
2, 2759040, Note_on_c, 0, 76, 0
2, 2759040, Note_on_c, 0, 74, 100
2, 2759280, Note_on_c, 0, 74, 0
2, 2759280, Note_on_c, 0, 69, 100
2, 2759820, Note_on_c, 0, 69, 0
2, 2759820, Note_on_c, 0, 71, 100
2, 2759880, Note_on_c, 0, 71, 0
2, 2759880, Note_on_c, 0, 72, 100
2, 2760000, Note_on_c, 0, 72, 0
2, 2760000, Note_on_c, 0, 71, 100
2, 2760120, Note_on_c, 0, 71, 0
2, 2760120, Note_on_c, 0, 69, 100
2, 2760240, Note_on_c, 0, 69, 0
2, 2760240, Note_on_c, 0, 67, 100
2, 2760360, Note_on_c, 0, 67, 0
2, 2760360, Note_on_c, 0, 66, 100
2, 2760480, Note_on_c, 0, 66, 0
2, 2760480, Note_on_c, 0, 64, 100
2, 2760720, Note_on_c, 0, 64, 0
2, 2760720, Note_on_c, 0, 74, 100
2, 2760840, Note_on_c, 0, 74, 0
2, 2760840, Note_on_c, 0, 73, 100
2, 2761260, Note_on_c, 0, 73, 0
2, 2761260, Note_on_c, 0, 74, 100
2, 2761320, Note_on_c, 0, 74, 0
2, 2761320, Note_on_c, 0, 76, 100
2, 2761440, Note_on_c, 0, 76, 0
2, 2761440, Note_on_c, 0, 74, 100
2, 2761560, Note_on_c, 0, 74, 0
2, 2761560, Note_on_c, 0, 73, 100
2, 2761680, Note_on_c, 0, 73, 0
2, 2761680, Note_on_c, 0, 71, 100
2, 2761800, Note_on_c, 0, 71, 0
2, 2761800, Note_on_c, 0, 69, 100
2, 2761920, Note_on_c, 0, 69, 0
2, 2761920, Note_on_c, 0, 79, 100
2, 2762160, Note_on_c, 0, 79, 0
2, 2762160, Note_on_c, 0, 71, 100
2, 2762640, Note_on_c, 0, 71, 0
2, 2762640, Note_on_c, 0, 73, 100
2, 2762880, Note_on_c, 0, 73, 0
2, 2762880, Note_on_c, 0, 73, 100
2, 2763000, Note_on_c, 0, 73, 0
2, 2763000, Note_on_c, 0, 74, 100
2, 2763180, Note_on_c, 0, 74, 0
2, 2763180, Note_on_c, 0, 76, 100
2, 2763240, Note_on_c, 0, 76, 0
2, 2763240, Note_on_c, 0, 74, 100
2, 2763300, Note_on_c, 0, 74, 0
2, 2763300, Note_on_c, 0, 73, 100
2, 2763360, Note_on_c, 0, 73, 0
2, 2763360, Note_on_c, 0, 73, 100
2, 2763600, Note_on_c, 0, 73, 0
2, 2763600, Note_on_c, 0, 74, 100
2, 2764320, Note_on_c, 0, 74, 0
2, 2764320, Note_on_c, 0, 69, 100
2, 2764380, Note_on_c, 0, 69, 0
2, 2764380, Note_on_c, 0, 67, 100
2, 2764440, Note_on_c, 0, 67, 0
2, 2764440, Note_on_c, 0, 69, 100
2, 2764800, Note_on_c, 0, 69, 0
2, 2764800, Note_on_c, 0, 71, 100
2, 2764860, Note_on_c, 0, 71, 0
2, 2764860, Note_on_c, 0, 69, 100
2, 2764920, Note_on_c, 0, 69, 0
2, 2764920, Note_on_c, 0, 67, 100
2, 2764980, Note_on_c, 0, 67, 0
2, 2764980, Note_on_c, 0, 69, 100
2, 2765040, Note_on_c, 0, 69, 0
2, 2765040, Note_on_c, 0, 71, 100
2, 2765080, Note_on_c, 0, 71, 0
2, 2765080, Note_on_c, 0, 69, 100
2, 2765120, Note_on_c, 0, 69, 0
2, 2765120, Note_on_c, 0, 71, 100
2, 2765160, Note_on_c, 0, 71, 0
2, 2765160, Note_on_c, 0, 69, 100
2, 2765200, Note_on_c, 0, 69, 0
2, 2765200, Note_on_c, 0, 71, 100
2, 2765240, Note_on_c, 0, 71, 0
2, 2765241, Note_on_c, 0, 69, 100
2, 2765280, Note_on_c, 0, 71, 100
2, 2765281, Note_on_c, 0, 69, 0
2, 2765320, Note_on_c, 0, 71, 0
2, 2765320, Note_on_c, 0, 69, 100
2, 2765360, Note_on_c, 0, 69, 0
2, 2765360, Note_on_c, 0, 71, 100
2, 2765400, Note_on_c, 0, 71, 0
2, 2765400, Note_on_c, 0, 69, 100
2, 2765460, Note_on_c, 0, 69, 0
2, 2765460, Note_on_c, 0, 71, 100
2, 2765520, Note_on_c, 0, 71, 0
2, 2765520, Note_on_c, 0, 72, 100
2, 2765580, Note_on_c, 0, 72, 0
2, 2765580, Note_on_c, 0, 74, 100
2, 2765640, Note_on_c, 0, 74, 0
2, 2765640, Note_on_c, 0, 76, 100
2, 2765760, Note_on_c, 0, 76, 0
2, 2765760, Note_on_c, 0, 76, 100
2, 2765880, Note_on_c, 0, 76, 0
2, 2765880, Note_on_c, 0, 74, 100
2, 2766000, Note_on_c, 0, 74, 0
2, 2766000, Note_on_c, 0, 72, 100
2, 2766120, Note_on_c, 0, 72, 0
2, 2766120, Note_on_c, 0, 71, 100
2, 2766240, Note_on_c, 0, 71, 0
2, 2766240, Note_on_c, 0, 69, 100
2, 2766480, Note_on_c, 0, 69, 0
2, 2766480, Note_on_c, 0, 67, 100
2, 2766960, Note_on_c, 0, 67, 0
2, 2766960, Note_on_c, 0, 79, 100
2, 2767200, Note_on_c, 0, 79, 0
2, 2767200, Note_on_c, 0, 78, 100
2, 2767320, Note_on_c, 0, 78, 0
2, 2767320, Note_on_c, 0, 76, 100
2, 2767560, Note_on_c, 0, 76, 0
2, 2767560, Note_on_c, 0, 78, 100
2, 2767620, Note_on_c, 0, 78, 0
2, 2767620, Note_on_c, 0, 75, 100
2, 2767680, Note_on_c, 0, 75, 0
2, 2767680, Note_on_c, 0, 75, 100
2, 2767920, Note_on_c, 0, 75, 0
2, 2767920, Note_on_c, 0, 76, 100
2, 2767950, Note_on_c, 0, 76, 0
2, 2767950, Note_on_c, 0, 75, 100
2, 2767980, Note_on_c, 0, 75, 0
2, 2767980, Note_on_c, 0, 76, 100
2, 2768400, Note_on_c, 0, 76, 0
2, 2768400, Note_on_c, 0, 81, 100
2, 2768460, Note_on_c, 0, 81, 0
2, 2768460, Note_on_c, 0, 83, 100
2, 2768520, Note_on_c, 0, 83, 0
2, 2768520, Note_on_c, 0, 81, 100
2, 2768580, Note_on_c, 0, 81, 0
2, 2768580, Note_on_c, 0, 79, 100
2, 2768640, Note_on_c, 0, 79, 0
2, 2768640, Note_on_c, 0, 81, 100
2, 2769000, Note_on_c, 0, 81, 0
2, 2769000, Note_on_c, 0, 78, 100
2, 2769120, Note_on_c, 0, 78, 0
2, 2769120, Note_on_c, 0, 76, 100
2, 2769360, Note_on_c, 0, 76, 0
2, 2769360, Note_on_c, 0, 75, 100
2, 2769840, Note_on_c, 0, 75, 0
2, 2769840, Note_on_c, 0, 71, 100
2, 2770080, Note_on_c, 0, 71, 0
2, 2770080, Note_on_c, 0, 76, 100
2, 2770140, Note_on_c, 0, 76, 0
2, 2770140, Note_on_c, 0, 78, 100
2, 2770200, Note_on_c, 0, 78, 0
2, 2770200, Note_on_c, 0, 79, 100
2, 2770440, Note_on_c, 0, 79, 0
2, 2770440, Note_on_c, 0, 78, 100
2, 2770560, Note_on_c, 0, 78, 0
2, 2770560, Note_on_c, 0, 78, 100
2, 2770800, Note_on_c, 0, 78, 0
2, 2770800, Note_on_c, 0, 76, 100
2, 2771160, Note_on_c, 0, 76, 0
2, 2771160, Note_on_c, 0, 71, 100
2, 2771280, Note_on_c, 0, 71, 0
2, 2771280, Note_on_c, 0, 72, 100
2, 2771340, Note_on_c, 0, 72, 0
2, 2771340, Note_on_c, 0, 71, 100
2, 2771400, Note_on_c, 0, 71, 0
2, 2771400, Note_on_c, 0, 69, 100
2, 2771460, Note_on_c, 0, 69, 0
2, 2771460, Note_on_c, 0, 71, 100
2, 2771520, Note_on_c, 0, 71, 0
2, 2771520, Note_on_c, 0, 79, 100
2, 2771580, Note_on_c, 0, 79, 0
2, 2771580, Note_on_c, 0, 76, 100
2, 2771760, Note_on_c, 0, 76, 0
2, 2771760, Note_on_c, 0, 78, 100
2, 2771820, Note_on_c, 0, 78, 0
2, 2771820, Note_on_c, 0, 75, 100
2, 2772000, Note_on_c, 0, 75, 0
2, 2772000, Note_on_c, 0, 75, 100
2, 2772120, Note_on_c, 0, 75, 0
2, 2772120, Note_on_c, 0, 76, 100
2, 2772600, Note_on_c, 0, 76, 0
2, 2772600, Note_on_c, 0, 67, 100
2, 2772720, Note_on_c, 0, 67, 0
2, 2772720, Note_on_c, 0, 66, 100
2, 2772840, Note_on_c, 0, 66, 0
2, 2772840, Note_on_c, 0, 64, 100
2, 2772960, Note_on_c, 0, 64, 0
2, 2772960, Note_on_c, 0, 66, 100
2, 2773320, Note_on_c, 0, 66, 0
2, 2773320, Note_on_c, 0, 76, 100
2, 2773440, Note_on_c, 0, 76, 0
2, 2773440, Note_on_c, 0, 76, 100
2, 2773560, Note_on_c, 0, 76, 0
2, 2773560, Note_on_c, 0, 75, 100
2, 2773680, Note_on_c, 0, 75, 0
2, 2773680, Note_on_c, 0, 78, 100
2, 2773740, Note_on_c, 0, 78, 0
2, 2773740, Note_on_c, 0, 79, 100
2, 2773800, Note_on_c, 0, 79, 0
2, 2773800, Note_on_c, 0, 81, 100
2, 2773920, Note_on_c, 0, 81, 0
2, 2773920, Note_on_c, 0, 79, 100
2, 2774160, Note_on_c, 0, 79, 0
2, 2774160, Note_on_c, 0, 78, 100
2, 2774400, Note_on_c, 0, 78, 0
2, 2774400, Note_on_c, 0, 78, 100
2, 2774520, Note_on_c, 0, 78, 0
2, 2774520, Note_on_c, 0, 76, 100
2, 2774760, Note_on_c, 0, 76, 0
2, 2774760, Note_on_c, 0, 78, 100
2, 2774820, Note_on_c, 0, 78, 0
2, 2774820, Note_on_c, 0, 75, 100
2, 2774880, Note_on_c, 0, 75, 0
2, 2774880, Note_on_c, 0, 75, 100
2, 2775120, Note_on_c, 0, 75, 0
2, 2775120, Note_on_c, 0, 76, 100
2, 2775840, Note_on_c, 0, 76, 0
2, 2775840, Note_on_c, 0, 76, 100
2, 2776080, Note_on_c, 0, 76, 0
2, 2776080, Note_on_c, 0, 74, 100
2, 2776200, Note_on_c, 0, 74, 0
2, 2776200, Note_on_c, 0, 72, 100
2, 2776320, Note_on_c, 0, 72, 0
2, 2776320, Note_on_c, 0, 71, 100
2, 2776560, Note_on_c, 0, 71, 0
2, 2776560, Note_on_c, 0, 69, 100
2, 2777040, Note_on_c, 0, 69, 0
2, 2777040, Note_on_c, 0, 71, 100
2, 2777160, Note_on_c, 0, 71, 0
2, 2777160, Note_on_c, 0, 72, 100
2, 2777280, Note_on_c, 0, 72, 0
2, 2777280, Note_on_c, 0, 74, 100
2, 2777340, Note_on_c, 0, 74, 0
2, 2777340, Note_on_c, 0, 72, 100
2, 2777400, Note_on_c, 0, 72, 0
2, 2777400, Note_on_c, 0, 71, 100
2, 2777520, Note_on_c, 0, 71, 0
2, 2777520, Note_on_c, 0, 72, 100
2, 2777580, Note_on_c, 0, 72, 0
2, 2777580, Note_on_c, 0, 71, 100
2, 2777640, Note_on_c, 0, 71, 0
2, 2777640, Note_on_c, 0, 69, 100
2, 2777760, Note_on_c, 0, 69, 0
2, 2777760, Note_on_c, 0, 69, 100
2, 2778000, Note_on_c, 0, 69, 0
2, 2778000, Note_on_c, 0, 67, 100
2, 2778480, Note_on_c, 0, 67, 0
2, 2778480, Note_on_c, 0, 69, 100
2, 2778600, Note_on_c, 0, 69, 0
2, 2778600, Note_on_c, 0, 71, 100
2, 2778720, Note_on_c, 0, 71, 0
2, 2778720, Note_on_c, 0, 72, 100
2, 2778840, Note_on_c, 0, 72, 0
2, 2778840, Note_on_c, 0, 74, 100
2, 2778960, Note_on_c, 0, 74, 0
2, 2778960, Note_on_c, 0, 72, 100
2, 2779080, Note_on_c, 0, 72, 0
2, 2779080, Note_on_c, 0, 71, 100
2, 2779200, Note_on_c, 0, 71, 0
2, 2779200, Note_on_c, 0, 72, 100
2, 2779320, Note_on_c, 0, 72, 0
2, 2779320, Note_on_c, 0, 69, 100
2, 2779440, Note_on_c, 0, 69, 0
2, 2779440, Note_on_c, 0, 64, 100
2, 2779560, Note_on_c, 0, 64, 0
2, 2779560, Note_on_c, 0, 69, 100
2, 2779680, Note_on_c, 0, 69, 0
2, 2779680, Note_on_c, 0, 72, 100
2, 2780280, Note_on_c, 0, 72, 0
2, 2780280, Note_on_c, 0, 74, 100
2, 2780400, Note_on_c, 0, 74, 0
2, 2780400, Note_on_c, 0, 72, 100
2, 2780520, Note_on_c, 0, 72, 0
2, 2780520, Note_on_c, 0, 71, 100
2, 2780640, Note_on_c, 0, 71, 0
2, 2780640, Note_on_c, 0, 72, 100
2, 2780760, Note_on_c, 0, 72, 0
2, 2780760, Note_on_c, 0, 69, 100
2, 2780880, Note_on_c, 0, 69, 0
2, 2780880, Note_on_c, 0, 66, 100
2, 2781000, Note_on_c, 0, 66, 0
2, 2781000, Note_on_c, 0, 69, 100
2, 2781120, Note_on_c, 0, 69, 0
2, 2781120, Note_on_c, 0, 72, 100
2, 2781240, Note_on_c, 0, 72, 0
2, 2781240, Note_on_c, 0, 76, 100
2, 2781360, Note_on_c, 0, 76, 0
2, 2781360, Note_on_c, 0, 74, 100
2, 2781480, Note_on_c, 0, 74, 0
2, 2781480, Note_on_c, 0, 72, 100
2, 2781600, Note_on_c, 0, 72, 0
2, 2781600, Note_on_c, 0, 71, 100
2, 2781720, Note_on_c, 0, 71, 0
2, 2781720, Note_on_c, 0, 72, 100
2, 2781840, Note_on_c, 0, 72, 0
2, 2781840, Note_on_c, 0, 71, 100
2, 2781960, Note_on_c, 0, 71, 0
2, 2781960, Note_on_c, 0, 69, 100
2, 2782080, Note_on_c, 0, 69, 0
2, 2782080, Note_on_c, 0, 71, 100
2, 2782200, Note_on_c, 0, 71, 0
2, 2782200, Note_on_c, 0, 67, 100
2, 2782320, Note_on_c, 0, 67, 0
2, 2782320, Note_on_c, 0, 62, 100
2, 2782440, Note_on_c, 0, 62, 0
2, 2782440, Note_on_c, 0, 67, 100
2, 2782560, Note_on_c, 0, 67, 0
2, 2782560, Note_on_c, 0, 71, 100
2, 2782680, Note_on_c, 0, 71, 0
2, 2782680, Note_on_c, 0, 67, 100
2, 2782800, Note_on_c, 0, 67, 0
2, 2782800, Note_on_c, 0, 72, 100
2, 2782920, Note_on_c, 0, 72, 0
2, 2782920, Note_on_c, 0, 74, 100
2, 2783040, Note_on_c, 0, 74, 0
2, 2783040, Note_on_c, 0, 76, 100
2, 2783160, Note_on_c, 0, 76, 0
2, 2783160, Note_on_c, 0, 77, 100
2, 2783280, Note_on_c, 0, 77, 0
2, 2783280, Note_on_c, 0, 76, 100
2, 2783400, Note_on_c, 0, 76, 0
2, 2783400, Note_on_c, 0, 74, 100
2, 2783520, Note_on_c, 0, 74, 0
2, 2783520, Note_on_c, 0, 76, 100
2, 2783640, Note_on_c, 0, 76, 0
2, 2783640, Note_on_c, 0, 72, 100
2, 2783760, Note_on_c, 0, 72, 0
2, 2783760, Note_on_c, 0, 67, 100
2, 2783880, Note_on_c, 0, 67, 0
2, 2783880, Note_on_c, 0, 72, 100
2, 2784000, Note_on_c, 0, 72, 0
2, 2784000, Note_on_c, 0, 76, 100
2, 2784120, Note_on_c, 0, 76, 0
2, 2784120, Note_on_c, 0, 72, 100
2, 2784240, Note_on_c, 0, 72, 0
2, 2784240, Note_on_c, 0, 78, 100
2, 2784360, Note_on_c, 0, 78, 0
2, 2784360, Note_on_c, 0, 79, 100
2, 2784480, Note_on_c, 0, 79, 0
2, 2784480, Note_on_c, 0, 81, 100
2, 2784600, Note_on_c, 0, 81, 0
2, 2784600, Note_on_c, 0, 72, 100
2, 2784720, Note_on_c, 0, 72, 0
2, 2784720, Note_on_c, 0, 71, 100
2, 2784840, Note_on_c, 0, 71, 0
2, 2784840, Note_on_c, 0, 69, 100
2, 2784960, Note_on_c, 0, 69, 0
2, 2784960, Note_on_c, 0, 71, 100
2, 2785080, Note_on_c, 0, 71, 0
2, 2785080, Note_on_c, 0, 72, 100
2, 2785200, Note_on_c, 0, 72, 0
2, 2785200, Note_on_c, 0, 74, 100
2, 2785320, Note_on_c, 0, 74, 0
2, 2785320, Note_on_c, 0, 67, 100
2, 2785440, Note_on_c, 0, 67, 0
2, 2785440, Note_on_c, 0, 71, 100
2, 2785560, Note_on_c, 0, 71, 0
2, 2785560, Note_on_c, 0, 69, 100
2, 2785680, Note_on_c, 0, 69, 0
2, 2785680, Note_on_c, 0, 67, 100
2, 2785800, Note_on_c, 0, 67, 0
2, 2785800, Note_on_c, 0, 66, 100
2, 2785920, Note_on_c, 0, 66, 0
2, 2785920, Note_on_c, 0, 67, 100
2, 2786520, Note_on_c, 0, 67, 0
2, 2786520, Note_on_c, 0, 62, 100
2, 2786640, Note_on_c, 0, 62, 0
2, 2786640, Note_on_c, 0, 67, 100
2, 2786760, Note_on_c, 0, 67, 0
2, 2786760, Note_on_c, 0, 66, 100
2, 2786880, Note_on_c, 0, 66, 0
2, 2786880, Note_on_c, 0, 66, 100
2, 2787000, Note_on_c, 0, 66, 0
2, 2787000, Note_on_c, 0, 67, 100
2, 2787360, Note_on_c, 0, 67, 0
2, 2787360, Note_on_c, 0, 69, 100
2, 2787420, Note_on_c, 0, 69, 0
2, 2787420, Note_on_c, 0, 67, 100
2, 2787480, Note_on_c, 0, 67, 0
2, 2787480, Note_on_c, 0, 69, 100
2, 2787840, Note_on_c, 0, 69, 0
2, 2787840, Note_on_c, 0, 71, 100
2, 2787900, Note_on_c, 0, 71, 0
2, 2787900, Note_on_c, 0, 69, 100
2, 2787960, Note_on_c, 0, 69, 0
2, 2787960, Note_on_c, 0, 67, 100
2, 2788020, Note_on_c, 0, 67, 0
2, 2788020, Note_on_c, 0, 69, 100
2, 2788080, Note_on_c, 0, 69, 0
2, 2788080, Note_on_c, 0, 71, 100
2, 2788120, Note_on_c, 0, 71, 0
2, 2788120, Note_on_c, 0, 69, 100
2, 2788160, Note_on_c, 0, 69, 0
2, 2788160, Note_on_c, 0, 71, 100
2, 2788200, Note_on_c, 0, 71, 0
2, 2788200, Note_on_c, 0, 69, 100
2, 2788240, Note_on_c, 0, 69, 0
2, 2788240, Note_on_c, 0, 71, 100
2, 2788280, Note_on_c, 0, 71, 0
2, 2788281, Note_on_c, 0, 69, 100
2, 2788320, Note_on_c, 0, 71, 100
2, 2788321, Note_on_c, 0, 69, 0
2, 2788360, Note_on_c, 0, 71, 0
2, 2788360, Note_on_c, 0, 69, 100
2, 2788400, Note_on_c, 0, 69, 0
2, 2788400, Note_on_c, 0, 71, 100
2, 2788440, Note_on_c, 0, 71, 0
2, 2788440, Note_on_c, 0, 69, 100
2, 2788500, Note_on_c, 0, 69, 0
2, 2788500, Note_on_c, 0, 71, 100
2, 2788560, Note_on_c, 0, 71, 0
2, 2788560, Note_on_c, 0, 72, 100
2, 2788620, Note_on_c, 0, 72, 0
2, 2788620, Note_on_c, 0, 74, 100
2, 2788680, Note_on_c, 0, 74, 0
2, 2788680, Note_on_c, 0, 76, 100
2, 2788800, Note_on_c, 0, 76, 0
2, 2788800, Note_on_c, 0, 76, 100
2, 2788920, Note_on_c, 0, 76, 0
2, 2788920, Note_on_c, 0, 74, 100
2, 2789040, Note_on_c, 0, 74, 0
2, 2789040, Note_on_c, 0, 72, 100
2, 2789160, Note_on_c, 0, 72, 0
2, 2789160, Note_on_c, 0, 71, 100
2, 2789280, Note_on_c, 0, 71, 0
2, 2789280, Note_on_c, 0, 69, 100
2, 2789520, Note_on_c, 0, 69, 0
2, 2789520, Note_on_c, 0, 67, 100
2, 2790000, Note_on_c, 0, 67, 0
2, 2790000, Note_on_c, 0, 79, 100
2, 2790240, Note_on_c, 0, 79, 0
2, 2790240, Note_on_c, 0, 78, 100
2, 2790360, Note_on_c, 0, 78, 0
2, 2790360, Note_on_c, 0, 76, 100
2, 2790600, Note_on_c, 0, 76, 0
2, 2790600, Note_on_c, 0, 78, 100
2, 2790660, Note_on_c, 0, 78, 0
2, 2790660, Note_on_c, 0, 75, 100
2, 2790720, Note_on_c, 0, 75, 0
2, 2790720, Note_on_c, 0, 75, 100
2, 2790960, Note_on_c, 0, 75, 0
2, 2790960, Note_on_c, 0, 76, 100
2, 2790990, Note_on_c, 0, 76, 0
2, 2790990, Note_on_c, 0, 75, 100
2, 2791020, Note_on_c, 0, 75, 0
2, 2791020, Note_on_c, 0, 76, 100
2, 2791440, Note_on_c, 0, 76, 0
2, 2791440, Note_on_c, 0, 81, 100
2, 2791500, Note_on_c, 0, 81, 0
2, 2791500, Note_on_c, 0, 83, 100
2, 2791560, Note_on_c, 0, 83, 0
2, 2791560, Note_on_c, 0, 81, 100
2, 2791620, Note_on_c, 0, 81, 0
2, 2791620, Note_on_c, 0, 79, 100
2, 2791680, Note_on_c, 0, 79, 0
2, 2791680, Note_on_c, 0, 81, 100
2, 2792040, Note_on_c, 0, 81, 0
2, 2792040, Note_on_c, 0, 78, 100
2, 2792160, Note_on_c, 0, 78, 0
2, 2792160, Note_on_c, 0, 76, 100
2, 2792400, Note_on_c, 0, 76, 0
2, 2792400, Note_on_c, 0, 75, 100
2, 2792880, Note_on_c, 0, 75, 0
2, 2792880, Note_on_c, 0, 71, 100
2, 2793120, Note_on_c, 0, 71, 0
2, 2793120, Note_on_c, 0, 76, 100
2, 2793180, Note_on_c, 0, 76, 0
2, 2793180, Note_on_c, 0, 78, 100
2, 2793240, Note_on_c, 0, 78, 0
2, 2793240, Note_on_c, 0, 79, 100
2, 2793480, Note_on_c, 0, 79, 0
2, 2793480, Note_on_c, 0, 78, 100
2, 2793600, Note_on_c, 0, 78, 0
2, 2793600, Note_on_c, 0, 78, 100
2, 2793840, Note_on_c, 0, 78, 0
2, 2793840, Note_on_c, 0, 76, 100
2, 2794200, Note_on_c, 0, 76, 0
2, 2794200, Note_on_c, 0, 71, 100
2, 2794320, Note_on_c, 0, 71, 0
2, 2794320, Note_on_c, 0, 72, 100
2, 2794380, Note_on_c, 0, 72, 0
2, 2794380, Note_on_c, 0, 71, 100
2, 2794440, Note_on_c, 0, 71, 0
2, 2794440, Note_on_c, 0, 69, 100
2, 2794500, Note_on_c, 0, 69, 0
2, 2794500, Note_on_c, 0, 71, 100
2, 2794560, Note_on_c, 0, 71, 0
2, 2794560, Note_on_c, 0, 79, 100
2, 2794620, Note_on_c, 0, 79, 0
2, 2794620, Note_on_c, 0, 76, 100
2, 2794800, Note_on_c, 0, 76, 0
2, 2794800, Note_on_c, 0, 78, 100
2, 2794860, Note_on_c, 0, 78, 0
2, 2794860, Note_on_c, 0, 75, 100
2, 2795040, Note_on_c, 0, 75, 0
2, 2795040, Note_on_c, 0, 75, 100
2, 2795160, Note_on_c, 0, 75, 0
2, 2795160, Note_on_c, 0, 76, 100
2, 2795640, Note_on_c, 0, 76, 0
2, 2795640, Note_on_c, 0, 67, 100
2, 2795760, Note_on_c, 0, 67, 0
2, 2795760, Note_on_c, 0, 66, 100
2, 2795880, Note_on_c, 0, 66, 0
2, 2795880, Note_on_c, 0, 64, 100
2, 2796000, Note_on_c, 0, 64, 0
2, 2796000, Note_on_c, 0, 66, 100
2, 2796360, Note_on_c, 0, 66, 0
2, 2796360, Note_on_c, 0, 76, 100
2, 2796480, Note_on_c, 0, 76, 0
2, 2796480, Note_on_c, 0, 76, 100
2, 2796600, Note_on_c, 0, 76, 0
2, 2796600, Note_on_c, 0, 75, 100
2, 2796720, Note_on_c, 0, 75, 0
2, 2796720, Note_on_c, 0, 78, 100
2, 2796780, Note_on_c, 0, 78, 0
2, 2796780, Note_on_c, 0, 79, 100
2, 2796840, Note_on_c, 0, 79, 0
2, 2796840, Note_on_c, 0, 81, 100
2, 2796960, Note_on_c, 0, 81, 0
2, 2796960, Note_on_c, 0, 79, 100
2, 2797200, Note_on_c, 0, 79, 0
2, 2797200, Note_on_c, 0, 78, 100
2, 2797440, Note_on_c, 0, 78, 0
2, 2797440, Note_on_c, 0, 78, 100
2, 2797560, Note_on_c, 0, 78, 0
2, 2797560, Note_on_c, 0, 76, 100
2, 2797800, Note_on_c, 0, 76, 0
2, 2797800, Note_on_c, 0, 78, 100
2, 2797860, Note_on_c, 0, 78, 0
2, 2797860, Note_on_c, 0, 75, 100
2, 2797920, Note_on_c, 0, 75, 0
2, 2797920, Note_on_c, 0, 75, 100
2, 2798160, Note_on_c, 0, 75, 0
2, 2798160, Note_on_c, 0, 76, 100
2, 2798880, Note_on_c, 0, 76, 0
2, 2798880, Note_on_c, 0, 76, 100
2, 2799120, Note_on_c, 0, 76, 0
2, 2799120, Note_on_c, 0, 74, 100
2, 2799240, Note_on_c, 0, 74, 0
2, 2799240, Note_on_c, 0, 72, 100
2, 2799360, Note_on_c, 0, 72, 0
2, 2799360, Note_on_c, 0, 71, 100
2, 2799600, Note_on_c, 0, 71, 0
2, 2799600, Note_on_c, 0, 69, 100
2, 2800080, Note_on_c, 0, 69, 0
2, 2800080, Note_on_c, 0, 71, 100
2, 2800200, Note_on_c, 0, 71, 0
2, 2800200, Note_on_c, 0, 72, 100
2, 2800320, Note_on_c, 0, 72, 0
2, 2800320, Note_on_c, 0, 74, 100
2, 2800380, Note_on_c, 0, 74, 0
2, 2800380, Note_on_c, 0, 72, 100
2, 2800440, Note_on_c, 0, 72, 0
2, 2800440, Note_on_c, 0, 71, 100
2, 2800560, Note_on_c, 0, 71, 0
2, 2800560, Note_on_c, 0, 72, 100
2, 2800620, Note_on_c, 0, 72, 0
2, 2800620, Note_on_c, 0, 71, 100
2, 2800680, Note_on_c, 0, 71, 0
2, 2800680, Note_on_c, 0, 69, 100
2, 2800800, Note_on_c, 0, 69, 0
2, 2800800, Note_on_c, 0, 69, 100
2, 2801040, Note_on_c, 0, 69, 0
2, 2801040, Note_on_c, 0, 67, 100
2, 2801520, Note_on_c, 0, 67, 0
2, 2801520, Note_on_c, 0, 69, 100
2, 2801640, Note_on_c, 0, 69, 0
2, 2801640, Note_on_c, 0, 71, 100
2, 2801760, Note_on_c, 0, 71, 0
2, 2801760, Note_on_c, 0, 72, 100
2, 2801880, Note_on_c, 0, 72, 0
2, 2801880, Note_on_c, 0, 74, 100
2, 2802000, Note_on_c, 0, 74, 0
2, 2802000, Note_on_c, 0, 72, 100
2, 2802120, Note_on_c, 0, 72, 0
2, 2802120, Note_on_c, 0, 71, 100
2, 2802240, Note_on_c, 0, 71, 0
2, 2802240, Note_on_c, 0, 72, 100
2, 2802360, Note_on_c, 0, 72, 0
2, 2802360, Note_on_c, 0, 69, 100
2, 2802480, Note_on_c, 0, 69, 0
2, 2802480, Note_on_c, 0, 64, 100
2, 2802600, Note_on_c, 0, 64, 0
2, 2802600, Note_on_c, 0, 69, 100
2, 2802720, Note_on_c, 0, 69, 0
2, 2802720, Note_on_c, 0, 72, 100
2, 2803320, Note_on_c, 0, 72, 0
2, 2803320, Note_on_c, 0, 74, 100
2, 2803440, Note_on_c, 0, 74, 0
2, 2803440, Note_on_c, 0, 72, 100
2, 2803560, Note_on_c, 0, 72, 0
2, 2803560, Note_on_c, 0, 71, 100
2, 2803680, Note_on_c, 0, 71, 0
2, 2803680, Note_on_c, 0, 72, 100
2, 2803800, Note_on_c, 0, 72, 0
2, 2803800, Note_on_c, 0, 69, 100
2, 2803920, Note_on_c, 0, 69, 0
2, 2803920, Note_on_c, 0, 66, 100
2, 2804040, Note_on_c, 0, 66, 0
2, 2804040, Note_on_c, 0, 69, 100
2, 2804160, Note_on_c, 0, 69, 0
2, 2804160, Note_on_c, 0, 72, 100
2, 2804280, Note_on_c, 0, 72, 0
2, 2804280, Note_on_c, 0, 76, 100
2, 2804400, Note_on_c, 0, 76, 0
2, 2804400, Note_on_c, 0, 74, 100
2, 2804520, Note_on_c, 0, 74, 0
2, 2804520, Note_on_c, 0, 72, 100
2, 2804640, Note_on_c, 0, 72, 0
2, 2804640, Note_on_c, 0, 71, 100
2, 2804760, Note_on_c, 0, 71, 0
2, 2804760, Note_on_c, 0, 72, 100
2, 2804880, Note_on_c, 0, 72, 0
2, 2804880, Note_on_c, 0, 71, 100
2, 2805000, Note_on_c, 0, 71, 0
2, 2805000, Note_on_c, 0, 69, 100
2, 2805120, Note_on_c, 0, 69, 0
2, 2805120, Note_on_c, 0, 71, 100
2, 2805240, Note_on_c, 0, 71, 0
2, 2805240, Note_on_c, 0, 67, 100
2, 2805360, Note_on_c, 0, 67, 0
2, 2805360, Note_on_c, 0, 62, 100
2, 2805480, Note_on_c, 0, 62, 0
2, 2805480, Note_on_c, 0, 67, 100
2, 2805600, Note_on_c, 0, 67, 0
2, 2805600, Note_on_c, 0, 71, 100
2, 2805720, Note_on_c, 0, 71, 0
2, 2805720, Note_on_c, 0, 67, 100
2, 2805840, Note_on_c, 0, 67, 0
2, 2805840, Note_on_c, 0, 72, 100
2, 2805960, Note_on_c, 0, 72, 0
2, 2805960, Note_on_c, 0, 74, 100
2, 2806080, Note_on_c, 0, 74, 0
2, 2806080, Note_on_c, 0, 76, 100
2, 2806200, Note_on_c, 0, 76, 0
2, 2806200, Note_on_c, 0, 77, 100
2, 2806320, Note_on_c, 0, 77, 0
2, 2806320, Note_on_c, 0, 76, 100
2, 2806440, Note_on_c, 0, 76, 0
2, 2806440, Note_on_c, 0, 74, 100
2, 2806560, Note_on_c, 0, 74, 0
2, 2806560, Note_on_c, 0, 76, 100
2, 2806680, Note_on_c, 0, 76, 0
2, 2806680, Note_on_c, 0, 72, 100
2, 2806800, Note_on_c, 0, 72, 0
2, 2806800, Note_on_c, 0, 67, 100
2, 2806920, Note_on_c, 0, 67, 0
2, 2806920, Note_on_c, 0, 72, 100
2, 2807040, Note_on_c, 0, 72, 0
2, 2807040, Note_on_c, 0, 76, 100
2, 2807160, Note_on_c, 0, 76, 0
2, 2807160, Note_on_c, 0, 72, 100
2, 2807280, Note_on_c, 0, 72, 0
2, 2807280, Note_on_c, 0, 78, 100
2, 2807400, Note_on_c, 0, 78, 0
2, 2807400, Note_on_c, 0, 79, 100
2, 2807520, Note_on_c, 0, 79, 0
2, 2807520, Note_on_c, 0, 81, 100
2, 2807640, Note_on_c, 0, 81, 0
2, 2807640, Note_on_c, 0, 72, 100
2, 2807760, Note_on_c, 0, 72, 0
2, 2807760, Note_on_c, 0, 71, 100
2, 2807880, Note_on_c, 0, 71, 0
2, 2807880, Note_on_c, 0, 69, 100
2, 2808000, Note_on_c, 0, 69, 0
2, 2808000, Note_on_c, 0, 71, 100
2, 2808120, Note_on_c, 0, 71, 0
2, 2808120, Note_on_c, 0, 72, 100
2, 2808240, Note_on_c, 0, 72, 0
2, 2808240, Note_on_c, 0, 74, 100
2, 2808360, Note_on_c, 0, 74, 0
2, 2808360, Note_on_c, 0, 67, 100
2, 2808480, Note_on_c, 0, 67, 0
2, 2808480, Note_on_c, 0, 71, 100
2, 2808600, Note_on_c, 0, 71, 0
2, 2808600, Note_on_c, 0, 69, 100
2, 2808720, Note_on_c, 0, 69, 0
2, 2808720, Note_on_c, 0, 67, 100
2, 2808840, Note_on_c, 0, 67, 0
2, 2808840, Note_on_c, 0, 66, 100
2, 2808960, Note_on_c, 0, 66, 0
2, 2808960, Note_on_c, 0, 67, 100
2, 2809560, Note_on_c, 0, 67, 0
2, 2809560, Note_on_c, 0, 62, 100
2, 2809680, Note_on_c, 0, 62, 0
2, 2809680, Note_on_c, 0, 67, 100
2, 2809800, Note_on_c, 0, 67, 0
2, 2809800, Note_on_c, 0, 66, 100
2, 2809920, Note_on_c, 0, 66, 0
2, 2809920, Note_on_c, 0, 66, 100
2, 2810040, Note_on_c, 0, 66, 0
2, 2810040, Note_on_c, 0, 67, 100
2, 2810400, Note_on_c, 0, 67, 0
2, 2853840, Note_on_c, 0, 74, 100
2, 2853960, Note_on_c, 0, 74, 0
2, 2853960, Note_on_c, 0, 76, 100
2, 2854080, Note_on_c, 0, 76, 0
2, 2854080, Note_on_c, 0, 74, 100
2, 2854200, Note_on_c, 0, 74, 0
2, 2854200, Note_on_c, 0, 72, 100
2, 2854320, Note_on_c, 0, 72, 0
2, 2854320, Note_on_c, 0, 71, 100
2, 2854440, Note_on_c, 0, 71, 0
2, 2854440, Note_on_c, 0, 69, 100
2, 2854560, Note_on_c, 0, 69, 0
2, 2854560, Note_on_c, 0, 67, 100
2, 2854680, Note_on_c, 0, 67, 0
2, 2854680, Note_on_c, 0, 72, 100
2, 2854800, Note_on_c, 0, 72, 0
2, 2854800, Note_on_c, 0, 76, 100
2, 2854920, Note_on_c, 0, 76, 0
2, 2854920, Note_on_c, 0, 79, 100
2, 2855040, Note_on_c, 0, 79, 0
2, 2855040, Note_on_c, 0, 78, 100
2, 2855160, Note_on_c, 0, 78, 0
2, 2855160, Note_on_c, 0, 76, 100
2, 2855280, Note_on_c, 0, 76, 0
2, 2855280, Note_on_c, 0, 74, 100
2, 2855400, Note_on_c, 0, 74, 0
2, 2855400, Note_on_c, 0, 72, 100
2, 2855520, Note_on_c, 0, 72, 0
2, 2855520, Note_on_c, 0, 71, 100
2, 2855760, Note_on_c, 0, 71, 0
2, 2855760, Note_on_c, 0, 76, 100
2, 2856000, Note_on_c, 0, 76, 0
2, 2856000, Note_on_c, 0, 74, 100
2, 2856600, Note_on_c, 0, 74, 0
2, 2856600, Note_on_c, 0, 72, 100
2, 2856660, Note_on_c, 0, 72, 0
2, 2856660, Note_on_c, 0, 71, 100
2, 2856720, Note_on_c, 0, 71, 0
2, 2856720, Note_on_c, 0, 69, 100
2, 2856840, Note_on_c, 0, 69, 0
2, 2856840, Note_on_c, 0, 71, 100
2, 2856960, Note_on_c, 0, 71, 0
2, 2856960, Note_on_c, 0, 72, 100
2, 2857080, Note_on_c, 0, 72, 0
2, 2857080, Note_on_c, 0, 74, 100
2, 2857200, Note_on_c, 0, 74, 0
2, 2857200, Note_on_c, 0, 71, 100
2, 2857320, Note_on_c, 0, 71, 0
2, 2857320, Note_on_c, 0, 72, 100
2, 2857440, Note_on_c, 0, 72, 0
2, 2857440, Note_on_c, 0, 74, 100
2, 2857560, Note_on_c, 0, 74, 0
2, 2857560, Note_on_c, 0, 72, 100
2, 2857680, Note_on_c, 0, 72, 0
2, 2857680, Note_on_c, 0, 74, 100
2, 2857800, Note_on_c, 0, 74, 0
2, 2857800, Note_on_c, 0, 76, 100
2, 2857920, Note_on_c, 0, 76, 0
2, 2857920, Note_on_c, 0, 74, 100
2, 2858040, Note_on_c, 0, 74, 0
2, 2858040, Note_on_c, 0, 72, 100
2, 2858160, Note_on_c, 0, 72, 0
2, 2858160, Note_on_c, 0, 71, 100
2, 2858280, Note_on_c, 0, 71, 0
2, 2858280, Note_on_c, 0, 69, 100
2, 2858400, Note_on_c, 0, 69, 0
2, 2858400, Note_on_c, 0, 67, 100
2, 2858520, Note_on_c, 0, 67, 0
2, 2858520, Note_on_c, 0, 72, 100
2, 2858640, Note_on_c, 0, 72, 0
2, 2858640, Note_on_c, 0, 76, 100
2, 2858760, Note_on_c, 0, 76, 0
2, 2858760, Note_on_c, 0, 79, 100
2, 2858880, Note_on_c, 0, 79, 0
2, 2858880, Note_on_c, 0, 78, 100
2, 2859000, Note_on_c, 0, 78, 0
2, 2859000, Note_on_c, 0, 76, 100
2, 2859120, Note_on_c, 0, 76, 0
2, 2859120, Note_on_c, 0, 74, 100
2, 2859240, Note_on_c, 0, 74, 0
2, 2859240, Note_on_c, 0, 72, 100
2, 2859360, Note_on_c, 0, 72, 0
2, 2859360, Note_on_c, 0, 71, 100
2, 2859600, Note_on_c, 0, 71, 0
2, 2859600, Note_on_c, 0, 76, 100
2, 2859840, Note_on_c, 0, 76, 0
2, 2859840, Note_on_c, 0, 74, 100
2, 2860440, Note_on_c, 0, 74, 0
2, 2860440, Note_on_c, 0, 72, 100
2, 2860500, Note_on_c, 0, 72, 0
2, 2860500, Note_on_c, 0, 71, 100
2, 2860560, Note_on_c, 0, 71, 0
2, 2860560, Note_on_c, 0, 69, 100
2, 2860680, Note_on_c, 0, 69, 0
2, 2860680, Note_on_c, 0, 71, 100
2, 2860800, Note_on_c, 0, 71, 0
2, 2860800, Note_on_c, 0, 72, 100
2, 2860920, Note_on_c, 0, 72, 0
2, 2860920, Note_on_c, 0, 74, 100
2, 2861040, Note_on_c, 0, 74, 0
2, 2861040, Note_on_c, 0, 71, 100
2, 2861160, Note_on_c, 0, 71, 0
2, 2861160, Note_on_c, 0, 72, 100
2, 2861280, Note_on_c, 0, 72, 0
2, 2861280, Note_on_c, 0, 74, 100
2, 2861400, Note_on_c, 0, 74, 0
2, 2861400, Note_on_c, 0, 72, 100
2, 2861520, Note_on_c, 0, 72, 0
2, 2861520, Note_on_c, 0, 74, 100
2, 2861640, Note_on_c, 0, 74, 0
2, 2861640, Note_on_c, 0, 76, 100
2, 2861760, Note_on_c, 0, 76, 0
2, 2861760, Note_on_c, 0, 74, 100
2, 2861880, Note_on_c, 0, 74, 0
2, 2861880, Note_on_c, 0, 72, 100
2, 2862000, Note_on_c, 0, 72, 0
2, 2862000, Note_on_c, 0, 71, 100
2, 2862120, Note_on_c, 0, 71, 0
2, 2862120, Note_on_c, 0, 69, 100
2, 2862240, Note_on_c, 0, 69, 0
2, 2862240, Note_on_c, 0, 67, 100
2, 2862360, Note_on_c, 0, 67, 0
2, 2862360, Note_on_c, 0, 72, 100
2, 2862480, Note_on_c, 0, 72, 0
2, 2862480, Note_on_c, 0, 76, 100
2, 2862600, Note_on_c, 0, 76, 0
2, 2862600, Note_on_c, 0, 79, 100
2, 2862720, Note_on_c, 0, 79, 0
2, 2862720, Note_on_c, 0, 78, 100
2, 2862840, Note_on_c, 0, 78, 0
2, 2862840, Note_on_c, 0, 76, 100
2, 2862960, Note_on_c, 0, 76, 0
2, 2862960, Note_on_c, 0, 74, 100
2, 2863080, Note_on_c, 0, 74, 0
2, 2863080, Note_on_c, 0, 72, 100
2, 2863200, Note_on_c, 0, 72, 0
2, 2863200, Note_on_c, 0, 71, 100
2, 2864160, Note_on_c, 0, 71, 0
2, 2916720, Note_on_c, 0, 67, 100
2, 2917200, Note_on_c, 0, 67, 0
2, 2917200, Note_on_c, 0, 69, 100
2, 2917680, Note_on_c, 0, 69, 0
2, 2917680, Note_on_c, 0, 71, 100
2, 2918040, Note_on_c, 0, 71, 0
2, 2918040, Note_on_c, 0, 72, 100
2, 2918160, Note_on_c, 0, 72, 0
2, 2918160, Note_on_c, 0, 71, 100
2, 2918280, Note_on_c, 0, 71, 0
2, 2918280, Note_on_c, 0, 69, 100
2, 2918400, Note_on_c, 0, 69, 0
2, 2918400, Note_on_c, 0, 67, 100
2, 2918520, Note_on_c, 0, 67, 0
2, 2918520, Note_on_c, 0, 64, 100
2, 2918640, Note_on_c, 0, 64, 0
2, 2918640, Note_on_c, 0, 66, 100
2, 2918760, Note_on_c, 0, 66, 0
2, 2918760, Note_on_c, 0, 67, 100
2, 2918880, Note_on_c, 0, 67, 0
2, 2918880, Note_on_c, 0, 69, 100
2, 2919000, Note_on_c, 0, 69, 0
2, 2919000, Note_on_c, 0, 71, 100
2, 2919120, Note_on_c, 0, 71, 0
2, 2919120, Note_on_c, 0, 72, 100
2, 2919240, Note_on_c, 0, 72, 0
2, 2919240, Note_on_c, 0, 74, 100
2, 2919360, Note_on_c, 0, 74, 0
2, 2919360, Note_on_c, 0, 76, 100
2, 2919480, Note_on_c, 0, 76, 0
2, 2919480, Note_on_c, 0, 78, 100
2, 2919600, Note_on_c, 0, 78, 0
2, 2919600, Note_on_c, 0, 79, 100
2, 2919720, Note_on_c, 0, 79, 0
2, 2919720, Note_on_c, 0, 81, 100
2, 2919840, Note_on_c, 0, 81, 0
2, 2919840, Note_on_c, 0, 83, 100
2, 2919960, Note_on_c, 0, 83, 0
2, 2919960, Note_on_c, 0, 81, 100
2, 2920080, Note_on_c, 0, 81, 0
2, 2920080, Note_on_c, 0, 79, 100
2, 2920320, Note_on_c, 0, 79, 0
2, 2920560, Note_on_c, 0, 67, 100
2, 2921040, Note_on_c, 0, 67, 0
2, 2921040, Note_on_c, 0, 69, 100
2, 2921520, Note_on_c, 0, 69, 0
2, 2921520, Note_on_c, 0, 71, 100
2, 2921880, Note_on_c, 0, 71, 0
2, 2921880, Note_on_c, 0, 72, 100
2, 2922000, Note_on_c, 0, 72, 0
2, 2922000, Note_on_c, 0, 71, 100
2, 2922120, Note_on_c, 0, 71, 0
2, 2922120, Note_on_c, 0, 69, 100
2, 2922240, Note_on_c, 0, 69, 0
2, 2922240, Note_on_c, 0, 67, 100
2, 2922360, Note_on_c, 0, 67, 0
2, 2922360, Note_on_c, 0, 64, 100
2, 2922480, Note_on_c, 0, 64, 0
2, 2922480, Note_on_c, 0, 66, 100
2, 2922600, Note_on_c, 0, 66, 0
2, 2922600, Note_on_c, 0, 67, 100
2, 2922720, Note_on_c, 0, 67, 0
2, 2922720, Note_on_c, 0, 69, 100
2, 2922840, Note_on_c, 0, 69, 0
2, 2922840, Note_on_c, 0, 71, 100
2, 2922960, Note_on_c, 0, 71, 0
2, 2922960, Note_on_c, 0, 72, 100
2, 2923080, Note_on_c, 0, 72, 0
2, 2923080, Note_on_c, 0, 74, 100
2, 2923200, Note_on_c, 0, 74, 0
2, 2923200, Note_on_c, 0, 76, 100
2, 2923320, Note_on_c, 0, 76, 0
2, 2923320, Note_on_c, 0, 78, 100
2, 2923440, Note_on_c, 0, 78, 0
2, 2923440, Note_on_c, 0, 79, 100
2, 2923560, Note_on_c, 0, 79, 0
2, 2923560, Note_on_c, 0, 81, 100
2, 2923680, Note_on_c, 0, 81, 0
2, 2923680, Note_on_c, 0, 83, 100
2, 2923800, Note_on_c, 0, 83, 0
2, 2923800, Note_on_c, 0, 81, 100
2, 2923920, Note_on_c, 0, 81, 0
2, 2923920, Note_on_c, 0, 79, 100
2, 2924160, Note_on_c, 0, 79, 0
2, 2924400, Note_on_c, 0, 67, 100
2, 2924880, Note_on_c, 0, 67, 0
2, 2924880, Note_on_c, 0, 69, 100
2, 2925360, Note_on_c, 0, 69, 0
2, 2925360, Note_on_c, 0, 71, 100
2, 2925600, Note_on_c, 0, 71, 0
2, 2925600, Note_on_c, 0, 67, 100
2, 2926560, Note_on_c, 0, 67, 0
2, 2962560, Note_on_c, 0, 67, 100
2, 2963520, Note_on_c, 0, 67, 0
2, 2963520, Note_on_c, 0, 66, 100
2, 2964000, Note_on_c, 0, 66, 0
2, 2964000, Note_on_c, 0, 64, 100
2, 2964480, Note_on_c, 0, 64, 0
2, 2964480, Note_on_c, 0, 62, 100
2, 2964960, Note_on_c, 0, 62, 0
2, 2965200, Note_on_c, 0, 66, 100
2, 2965440, Note_on_c, 0, 66, 0
2, 2965440, Note_on_c, 0, 67, 100
2, 2965680, Note_on_c, 0, 67, 0
2, 2965680, Note_on_c, 0, 69, 100
2, 2965920, Note_on_c, 0, 69, 0
2, 2965920, Note_on_c, 0, 71, 100
2, 2966160, Note_on_c, 0, 71, 0
2, 2966160, Note_on_c, 0, 69, 100
2, 2966400, Note_on_c, 0, 69, 0
2, 2966400, Note_on_c, 0, 67, 100
2, 2967360, Note_on_c, 0, 67, 0
2, 2967360, Note_on_c, 0, 66, 100
2, 2967840, Note_on_c, 0, 66, 0
2, 2967840, Note_on_c, 0, 64, 100
2, 2968320, Note_on_c, 0, 64, 0
2, 2968320, Note_on_c, 0, 62, 100
2, 2968800, Note_on_c, 0, 62, 0
2, 2969040, Note_on_c, 0, 66, 100
2, 2969280, Note_on_c, 0, 66, 0
2, 2969280, Note_on_c, 0, 67, 100
2, 2969520, Note_on_c, 0, 67, 0
2, 2969520, Note_on_c, 0, 69, 100
2, 2969760, Note_on_c, 0, 69, 0
2, 2969760, Note_on_c, 0, 71, 100
2, 2970000, Note_on_c, 0, 71, 0
2, 2970000, Note_on_c, 0, 69, 100
2, 2970240, Note_on_c, 0, 69, 0
2, 2970240, Note_on_c, 0, 67, 100
2, 2971200, Note_on_c, 0, 67, 0
2, 2971200, Note_on_c, 0, 66, 100
2, 2971680, Note_on_c, 0, 66, 0
2, 2971680, Note_on_c, 0, 64, 100
2, 2973600, Note_on_c, 0, 64, 0
2, 2973720, Note_on_c, 0, 62, 100
2, 2973840, Note_on_c, 0, 62, 0
2, 2973840, Note_on_c, 0, 64, 100
2, 2973960, Note_on_c, 0, 64, 0
2, 2973960, Note_on_c, 0, 66, 100
2, 2974080, Note_on_c, 0, 66, 0
2, 2974080, Note_on_c, 0, 67, 100
2, 2974200, Note_on_c, 0, 67, 0
2, 2974200, Note_on_c, 0, 71, 100
2, 2974320, Note_on_c, 0, 71, 0
2, 2974320, Note_on_c, 0, 69, 100
2, 2974440, Note_on_c, 0, 69, 0
2, 2974440, Note_on_c, 0, 67, 100
2, 2974560, Note_on_c, 0, 67, 0
2, 2974560, Note_on_c, 0, 74, 100
2, 2974800, Note_on_c, 0, 74, 0
2, 2974800, Note_on_c, 0, 62, 100
2, 2975040, Note_on_c, 0, 62, 0
2, 2975160, Note_on_c, 0, 57, 100
2, 2975280, Note_on_c, 0, 57, 0
2, 2975280, Note_on_c, 0, 59, 100
2, 2975400, Note_on_c, 0, 59, 0
2, 2975400, Note_on_c, 0, 61, 100
2, 2975520, Note_on_c, 0, 61, 0
2, 2975520, Note_on_c, 0, 62, 100
2, 2975640, Note_on_c, 0, 62, 0
2, 2975640, Note_on_c, 0, 66, 100
2, 2975760, Note_on_c, 0, 66, 0
2, 2975760, Note_on_c, 0, 64, 100
2, 2975880, Note_on_c, 0, 64, 0
2, 2975880, Note_on_c, 0, 62, 100
2, 2976000, Note_on_c, 0, 62, 0
2, 2976000, Note_on_c, 0, 69, 100
2, 2976120, Note_on_c, 0, 69, 0
2, 2976120, Note_on_c, 0, 67, 100
2, 2976240, Note_on_c, 0, 67, 0
2, 2976240, Note_on_c, 0, 66, 100
2, 2976360, Note_on_c, 0, 66, 0
2, 2976360, Note_on_c, 0, 74, 100
2, 2976480, Note_on_c, 0, 74, 0
2, 2976600, Note_on_c, 0, 76, 100
2, 2976660, Note_on_c, 0, 76, 0
2, 2976660, Note_on_c, 0, 78, 100
2, 2976720, Note_on_c, 0, 78, 0
2, 2976720, Note_on_c, 0, 79, 100
2, 2976840, Note_on_c, 0, 79, 0
2, 2976840, Note_on_c, 0, 67, 100
2, 2977080, Note_on_c, 0, 67, 0
2, 2977080, Note_on_c, 0, 69, 100
2, 2977140, Note_on_c, 0, 69, 0
2, 2977140, Note_on_c, 0, 71, 100
2, 2977200, Note_on_c, 0, 71, 0
2, 2977200, Note_on_c, 0, 64, 100
2, 2977320, Note_on_c, 0, 64, 0
2, 2977320, Note_on_c, 0, 66, 100
2, 2977380, Note_on_c, 0, 66, 0
2, 2977380, Note_on_c, 0, 67, 100
2, 2977440, Note_on_c, 0, 67, 0
2, 2977440, Note_on_c, 0, 66, 100
2, 2977560, Note_on_c, 0, 66, 0
2, 2977560, Note_on_c, 0, 79, 100
2, 2977680, Note_on_c, 0, 79, 0
2, 2977680, Note_on_c, 0, 78, 100
2, 2977800, Note_on_c, 0, 78, 0
2, 2977800, Note_on_c, 0, 76, 100
2, 2977920, Note_on_c, 0, 76, 0
2, 2977920, Note_on_c, 0, 74, 100
2, 2978040, Note_on_c, 0, 74, 0
2, 2978040, Note_on_c, 0, 71, 100
2, 2978160, Note_on_c, 0, 71, 0
2, 2978160, Note_on_c, 0, 72, 100
2, 2978280, Note_on_c, 0, 72, 0
2, 2978280, Note_on_c, 0, 74, 100
2, 2978400, Note_on_c, 0, 74, 0
2, 2978400, Note_on_c, 0, 67, 100
2, 2978520, Note_on_c, 0, 67, 0
2, 2978520, Note_on_c, 0, 66, 100
2, 2978640, Note_on_c, 0, 66, 0
2, 2978640, Note_on_c, 0, 67, 100
2, 2978760, Note_on_c, 0, 67, 0
2, 2978760, Note_on_c, 0, 69, 100
2, 2978880, Note_on_c, 0, 69, 0
2, 2978880, Note_on_c, 0, 71, 100
2, 2979000, Note_on_c, 0, 71, 0
2, 2979000, Note_on_c, 0, 74, 100
2, 2979120, Note_on_c, 0, 74, 0
2, 2979120, Note_on_c, 0, 72, 100
2, 2979240, Note_on_c, 0, 72, 0
2, 2979240, Note_on_c, 0, 71, 100
2, 2979360, Note_on_c, 0, 71, 0
2, 2979360, Note_on_c, 0, 76, 100
2, 2979480, Note_on_c, 0, 76, 0
2, 2979480, Note_on_c, 0, 77, 100
2, 2979600, Note_on_c, 0, 77, 0
2, 2979600, Note_on_c, 0, 76, 100
2, 2979720, Note_on_c, 0, 76, 0
2, 2979720, Note_on_c, 0, 74, 100
2, 2979840, Note_on_c, 0, 74, 0
2, 2979840, Note_on_c, 0, 72, 100
2, 2979960, Note_on_c, 0, 72, 0
2, 2979960, Note_on_c, 0, 69, 100
2, 2980080, Note_on_c, 0, 69, 0
2, 2980080, Note_on_c, 0, 71, 100
2, 2980200, Note_on_c, 0, 71, 0
2, 2980200, Note_on_c, 0, 72, 100
2, 2980320, Note_on_c, 0, 72, 0
2, 2980320, Note_on_c, 0, 66, 100
2, 2980440, Note_on_c, 0, 66, 0
2, 2980440, Note_on_c, 0, 61, 100
2, 2980560, Note_on_c, 0, 61, 0
2, 2980560, Note_on_c, 0, 62, 100
2, 2980680, Note_on_c, 0, 62, 0
2, 2980680, Note_on_c, 0, 64, 100
2, 2980800, Note_on_c, 0, 64, 0
2, 2980800, Note_on_c, 0, 66, 100
2, 2980920, Note_on_c, 0, 66, 0
2, 2980920, Note_on_c, 0, 69, 100
2, 2981040, Note_on_c, 0, 69, 0
2, 2981040, Note_on_c, 0, 67, 100
2, 2981160, Note_on_c, 0, 67, 0
2, 2981160, Note_on_c, 0, 66, 100
2, 2981280, Note_on_c, 0, 66, 0
2, 2981280, Note_on_c, 0, 71, 100
2, 2981400, Note_on_c, 0, 71, 0
2, 2981400, Note_on_c, 0, 62, 100
2, 2981520, Note_on_c, 0, 62, 0
2, 2981520, Note_on_c, 0, 64, 100
2, 2981640, Note_on_c, 0, 64, 0
2, 2981640, Note_on_c, 0, 66, 100
2, 2981760, Note_on_c, 0, 66, 0
2, 2981760, Note_on_c, 0, 67, 100
2, 2981880, Note_on_c, 0, 67, 0
2, 2981880, Note_on_c, 0, 71, 100
2, 2982000, Note_on_c, 0, 71, 0
2, 2982000, Note_on_c, 0, 69, 100
2, 2982120, Note_on_c, 0, 69, 0
2, 2982120, Note_on_c, 0, 67, 100
2, 2982240, Note_on_c, 0, 67, 0
2, 2982240, Note_on_c, 0, 74, 100
2, 2982480, Note_on_c, 0, 74, 0
2, 2982480, Note_on_c, 0, 62, 100
2, 2982720, Note_on_c, 0, 62, 0
2, 2982840, Note_on_c, 0, 57, 100
2, 2982960, Note_on_c, 0, 57, 0
2, 2982960, Note_on_c, 0, 59, 100
2, 2983080, Note_on_c, 0, 59, 0
2, 2983080, Note_on_c, 0, 61, 100
2, 2983200, Note_on_c, 0, 61, 0
2, 2983200, Note_on_c, 0, 62, 100
2, 2983320, Note_on_c, 0, 62, 0
2, 2983320, Note_on_c, 0, 66, 100
2, 2983440, Note_on_c, 0, 66, 0
2, 2983440, Note_on_c, 0, 64, 100
2, 2983560, Note_on_c, 0, 64, 0
2, 2983560, Note_on_c, 0, 62, 100
2, 2983680, Note_on_c, 0, 62, 0
2, 2983680, Note_on_c, 0, 69, 100
2, 2983800, Note_on_c, 0, 69, 0
2, 2983800, Note_on_c, 0, 67, 100
2, 2983920, Note_on_c, 0, 67, 0
2, 2983920, Note_on_c, 0, 66, 100
2, 2984040, Note_on_c, 0, 66, 0
2, 2984040, Note_on_c, 0, 74, 100
2, 2984160, Note_on_c, 0, 74, 0
2, 2984280, Note_on_c, 0, 76, 100
2, 2984340, Note_on_c, 0, 76, 0
2, 2984340, Note_on_c, 0, 78, 100
2, 2984400, Note_on_c, 0, 78, 0
2, 2984400, Note_on_c, 0, 79, 100
2, 2984520, Note_on_c, 0, 79, 0
2, 2984520, Note_on_c, 0, 67, 100
2, 2984760, Note_on_c, 0, 67, 0
2, 2984760, Note_on_c, 0, 69, 100
2, 2984820, Note_on_c, 0, 69, 0
2, 2984820, Note_on_c, 0, 71, 100
2, 2984880, Note_on_c, 0, 71, 0
2, 2984880, Note_on_c, 0, 64, 100
2, 2985000, Note_on_c, 0, 64, 0
2, 2985000, Note_on_c, 0, 66, 100
2, 2985060, Note_on_c, 0, 66, 0
2, 2985060, Note_on_c, 0, 67, 100
2, 2985120, Note_on_c, 0, 67, 0
2, 2985120, Note_on_c, 0, 66, 100
2, 2985240, Note_on_c, 0, 66, 0
2, 2985240, Note_on_c, 0, 79, 100
2, 2985360, Note_on_c, 0, 79, 0
2, 2985360, Note_on_c, 0, 78, 100
2, 2985480, Note_on_c, 0, 78, 0
2, 2985480, Note_on_c, 0, 76, 100
2, 2985600, Note_on_c, 0, 76, 0
2, 2985600, Note_on_c, 0, 74, 100
2, 2985720, Note_on_c, 0, 74, 0
2, 2985720, Note_on_c, 0, 71, 100
2, 2985840, Note_on_c, 0, 71, 0
2, 2985840, Note_on_c, 0, 72, 100
2, 2985960, Note_on_c, 0, 72, 0
2, 2985960, Note_on_c, 0, 74, 100
2, 2986080, Note_on_c, 0, 74, 0
2, 2986080, Note_on_c, 0, 67, 100
2, 2986200, Note_on_c, 0, 67, 0
2, 2986200, Note_on_c, 0, 66, 100
2, 2986320, Note_on_c, 0, 66, 0
2, 2986320, Note_on_c, 0, 67, 100
2, 2986440, Note_on_c, 0, 67, 0
2, 2986440, Note_on_c, 0, 69, 100
2, 2986560, Note_on_c, 0, 69, 0
2, 2986560, Note_on_c, 0, 71, 100
2, 2986680, Note_on_c, 0, 71, 0
2, 2986680, Note_on_c, 0, 74, 100
2, 2986800, Note_on_c, 0, 74, 0
2, 2986800, Note_on_c, 0, 72, 100
2, 2986920, Note_on_c, 0, 72, 0
2, 2986920, Note_on_c, 0, 71, 100
2, 2987040, Note_on_c, 0, 71, 0
2, 2987040, Note_on_c, 0, 76, 100
2, 2987160, Note_on_c, 0, 76, 0
2, 2987160, Note_on_c, 0, 77, 100
2, 2987280, Note_on_c, 0, 77, 0
2, 2987280, Note_on_c, 0, 76, 100
2, 2987400, Note_on_c, 0, 76, 0
2, 2987400, Note_on_c, 0, 74, 100
2, 2987520, Note_on_c, 0, 74, 0
2, 2987520, Note_on_c, 0, 72, 100
2, 2987640, Note_on_c, 0, 72, 0
2, 2987640, Note_on_c, 0, 69, 100
2, 2987760, Note_on_c, 0, 69, 0
2, 2987760, Note_on_c, 0, 71, 100
2, 2987880, Note_on_c, 0, 71, 0
2, 2987880, Note_on_c, 0, 72, 100
2, 2988000, Note_on_c, 0, 72, 0
2, 2988000, Note_on_c, 0, 66, 100
2, 2988120, Note_on_c, 0, 66, 0
2, 2988120, Note_on_c, 0, 61, 100
2, 2988240, Note_on_c, 0, 61, 0
2, 2988240, Note_on_c, 0, 62, 100
2, 2988360, Note_on_c, 0, 62, 0
2, 2988360, Note_on_c, 0, 64, 100
2, 2988480, Note_on_c, 0, 64, 0
2, 2988480, Note_on_c, 0, 66, 100
2, 2988600, Note_on_c, 0, 66, 0
2, 2988600, Note_on_c, 0, 69, 100
2, 2988720, Note_on_c, 0, 69, 0
2, 2988720, Note_on_c, 0, 67, 100
2, 2988840, Note_on_c, 0, 67, 0
2, 2988840, Note_on_c, 0, 66, 100
2, 2988960, Note_on_c, 0, 66, 0
2, 2988960, Note_on_c, 0, 71, 100
2, 2989080, Note_on_c, 0, 71, 0
2, 2989080, Note_on_c, 0, 62, 100
2, 2989200, Note_on_c, 0, 62, 0
2, 2989200, Note_on_c, 0, 64, 100
2, 2989320, Note_on_c, 0, 64, 0
2, 2989320, Note_on_c, 0, 66, 100
2, 2989440, Note_on_c, 0, 66, 0
2, 2989440, Note_on_c, 0, 67, 100
2, 2989560, Note_on_c, 0, 67, 0
2, 2989560, Note_on_c, 0, 71, 100
2, 2989680, Note_on_c, 0, 71, 0
2, 2989680, Note_on_c, 0, 69, 100
2, 2989800, Note_on_c, 0, 69, 0
2, 2989800, Note_on_c, 0, 67, 100
2, 2989920, Note_on_c, 0, 67, 0
2, 2989920, Note_on_c, 0, 74, 100
2, 2990160, Note_on_c, 0, 74, 0
2, 2990160, Note_on_c, 0, 62, 100
2, 2990400, Note_on_c, 0, 62, 0
2, 2990520, Note_on_c, 0, 57, 100
2, 2990640, Note_on_c, 0, 57, 0
2, 2990640, Note_on_c, 0, 59, 100
2, 2990760, Note_on_c, 0, 59, 0
2, 2990760, Note_on_c, 0, 61, 100
2, 2990880, Note_on_c, 0, 61, 0
2, 2990880, Note_on_c, 0, 62, 100
2, 2991000, Note_on_c, 0, 62, 0
2, 2991000, Note_on_c, 0, 66, 100
2, 2991120, Note_on_c, 0, 66, 0
2, 2991120, Note_on_c, 0, 64, 100
2, 2991240, Note_on_c, 0, 64, 0
2, 2991240, Note_on_c, 0, 62, 100
2, 2991360, Note_on_c, 0, 62, 0
2, 2991360, Note_on_c, 0, 69, 100
2, 2991480, Note_on_c, 0, 69, 0
2, 2991480, Note_on_c, 0, 67, 100
2, 2991600, Note_on_c, 0, 67, 0
2, 2991600, Note_on_c, 0, 66, 100
2, 2991720, Note_on_c, 0, 66, 0
2, 2991720, Note_on_c, 0, 74, 100
2, 2991840, Note_on_c, 0, 74, 0
2, 2991960, Note_on_c, 0, 76, 100
2, 2992020, Note_on_c, 0, 76, 0
2, 2992020, Note_on_c, 0, 78, 100
2, 2992080, Note_on_c, 0, 78, 0
2, 2992080, Note_on_c, 0, 79, 100
2, 2992200, Note_on_c, 0, 79, 0
2, 2992200, Note_on_c, 0, 67, 100
2, 2992440, Note_on_c, 0, 67, 0
2, 2992440, Note_on_c, 0, 69, 100
2, 2992500, Note_on_c, 0, 69, 0
2, 2992500, Note_on_c, 0, 71, 100
2, 2992560, Note_on_c, 0, 71, 0
2, 2992560, Note_on_c, 0, 64, 100
2, 2992680, Note_on_c, 0, 64, 0
2, 2992680, Note_on_c, 0, 66, 100
2, 2992740, Note_on_c, 0, 66, 0
2, 2992740, Note_on_c, 0, 67, 100
2, 2992800, Note_on_c, 0, 67, 0
2, 2992800, Note_on_c, 0, 66, 100
2, 2992920, Note_on_c, 0, 66, 0
2, 2992920, Note_on_c, 0, 79, 100
2, 2993040, Note_on_c, 0, 79, 0
2, 2993040, Note_on_c, 0, 78, 100
2, 2993160, Note_on_c, 0, 78, 0
2, 2993160, Note_on_c, 0, 76, 100
2, 2993280, Note_on_c, 0, 76, 0
2, 2993280, Note_on_c, 0, 74, 100
2, 2993400, Note_on_c, 0, 74, 0
2, 2993400, Note_on_c, 0, 71, 100
2, 2993520, Note_on_c, 0, 71, 0
2, 2993520, Note_on_c, 0, 72, 100
2, 2993640, Note_on_c, 0, 72, 0
2, 2993640, Note_on_c, 0, 74, 100
2, 2993760, Note_on_c, 0, 74, 0
2, 2993760, Note_on_c, 0, 67, 100
2, 2993880, Note_on_c, 0, 67, 0
2, 2993880, Note_on_c, 0, 66, 100
2, 2994000, Note_on_c, 0, 66, 0
2, 2994000, Note_on_c, 0, 67, 100
2, 2994120, Note_on_c, 0, 67, 0
2, 2994120, Note_on_c, 0, 69, 100
2, 2994240, Note_on_c, 0, 69, 0
2, 2994240, Note_on_c, 0, 71, 100
2, 2994360, Note_on_c, 0, 71, 0
2, 2994360, Note_on_c, 0, 74, 100
2, 2994480, Note_on_c, 0, 74, 0
2, 2994480, Note_on_c, 0, 72, 100
2, 2994600, Note_on_c, 0, 72, 0
2, 2994600, Note_on_c, 0, 71, 100
2, 2994720, Note_on_c, 0, 71, 0
2, 2994720, Note_on_c, 0, 76, 100
2, 2994840, Note_on_c, 0, 76, 0
2, 2994840, Note_on_c, 0, 77, 100
2, 2994960, Note_on_c, 0, 77, 0
2, 2994960, Note_on_c, 0, 76, 100
2, 2995080, Note_on_c, 0, 76, 0
2, 2995080, Note_on_c, 0, 74, 100
2, 2995200, Note_on_c, 0, 74, 0
2, 2995200, Note_on_c, 0, 72, 100
2, 2995320, Note_on_c, 0, 72, 0
2, 2995320, Note_on_c, 0, 69, 100
2, 2995440, Note_on_c, 0, 69, 0
2, 2995440, Note_on_c, 0, 71, 100
2, 2995560, Note_on_c, 0, 71, 0
2, 2995560, Note_on_c, 0, 72, 100
2, 2995680, Note_on_c, 0, 72, 0
2, 2995680, Note_on_c, 0, 66, 100
2, 2995800, Note_on_c, 0, 66, 0
2, 2995800, Note_on_c, 0, 61, 100
2, 2995920, Note_on_c, 0, 61, 0
2, 2995920, Note_on_c, 0, 62, 100
2, 2996040, Note_on_c, 0, 62, 0
2, 2996040, Note_on_c, 0, 64, 100
2, 2996160, Note_on_c, 0, 64, 0
2, 2996160, Note_on_c, 0, 66, 100
2, 2996280, Note_on_c, 0, 66, 0
2, 2996280, Note_on_c, 0, 69, 100
2, 2996400, Note_on_c, 0, 69, 0
2, 2996400, Note_on_c, 0, 67, 100
2, 2996520, Note_on_c, 0, 67, 0
2, 2996520, Note_on_c, 0, 66, 100
2, 2996640, Note_on_c, 0, 66, 0
2, 2996640, Note_on_c, 0, 71, 100
2, 2998560, Note_on_c, 0, 71, 0
2, 2998560, End_track
3, 0, Start_track
3, 0, MIDI_port, 0
3, 0, Title_t, "--------------------------------------"
3, 0, Program_c, 1, 6
3, 0, Control_c, 1, 7, 100
3, 0, Control_c, 1, 10, 74
3, 186240, Note_on_c, 1, 79, 100
3, 186720, Note_on_c, 1, 79, 0
3, 186720, Note_on_c, 1, 84, 100
3, 186780, Note_on_c, 1, 84, 0
3, 186780, Note_on_c, 1, 83, 100
3, 186840, Note_on_c, 1, 83, 0
3, 186840, Note_on_c, 1, 84, 100
3, 187440, Note_on_c, 1, 84, 0
3, 187440, Note_on_c, 1, 83, 100
3, 187560, Note_on_c, 1, 83, 0
3, 187560, Note_on_c, 1, 81, 100
3, 187680, Note_on_c, 1, 81, 0
3, 187680, Note_on_c, 1, 83, 100
3, 187800, Note_on_c, 1, 83, 0
3, 187800, Note_on_c, 1, 81, 100
3, 187920, Note_on_c, 1, 81, 0
3, 187920, Note_on_c, 1, 79, 100
3, 188040, Note_on_c, 1, 79, 0
3, 188040, Note_on_c, 1, 78, 100
3, 188160, Note_on_c, 1, 78, 0
3, 188160, Note_on_c, 1, 79, 100
3, 188760, Note_on_c, 1, 79, 0
3, 188760, Note_on_c, 1, 77, 100
3, 188880, Note_on_c, 1, 77, 0
3, 188880, Note_on_c, 1, 76, 100
3, 189000, Note_on_c, 1, 76, 0
3, 189000, Note_on_c, 1, 74, 100
3, 189120, Note_on_c, 1, 74, 0
3, 189120, Note_on_c, 1, 76, 100
3, 189720, Note_on_c, 1, 76, 0
3, 189720, Note_on_c, 1, 74, 100
3, 189840, Note_on_c, 1, 74, 0
3, 189840, Note_on_c, 1, 72, 100
3, 189960, Note_on_c, 1, 72, 0
3, 189960, Note_on_c, 1, 71, 100
3, 190080, Note_on_c, 1, 71, 0
3, 190080, Note_on_c, 1, 69, 100
3, 190680, Note_on_c, 1, 69, 0
3, 190680, Note_on_c, 1, 72, 100
3, 190800, Note_on_c, 1, 72, 0
3, 190800, Note_on_c, 1, 71, 100
3, 190920, Note_on_c, 1, 71, 0
3, 190920, Note_on_c, 1, 69, 100
3, 191040, Note_on_c, 1, 69, 0
3, 191040, Note_on_c, 1, 71, 100
3, 191160, Note_on_c, 1, 71, 0
3, 191160, Note_on_c, 1, 79, 100
3, 191280, Note_on_c, 1, 79, 0
3, 191280, Note_on_c, 1, 78, 100
3, 191400, Note_on_c, 1, 78, 0
3, 191400, Note_on_c, 1, 81, 100
3, 191520, Note_on_c, 1, 81, 0
3, 191520, Note_on_c, 1, 79, 100
3, 191640, Note_on_c, 1, 79, 0
3, 191640, Note_on_c, 1, 78, 100
3, 191760, Note_on_c, 1, 78, 0
3, 191760, Note_on_c, 1, 76, 100
3, 191880, Note_on_c, 1, 76, 0
3, 191880, Note_on_c, 1, 74, 100
3, 192000, Note_on_c, 1, 74, 0
3, 192000, Note_on_c, 1, 84, 100
3, 192240, Note_on_c, 1, 84, 0
3, 192240, Note_on_c, 1, 83, 100
3, 192480, Note_on_c, 1, 83, 0
3, 193920, Note_on_c, 1, 71, 100
3, 194040, Note_on_c, 1, 71, 0
3, 194040, Note_on_c, 1, 75, 100
3, 194160, Note_on_c, 1, 75, 0
3, 194160, Note_on_c, 1, 76, 100
3, 194280, Note_on_c, 1, 76, 0
3, 194280, Note_on_c, 1, 79, 100
3, 194400, Note_on_c, 1, 79, 0
3, 194400, Note_on_c, 1, 83, 100
3, 195000, Note_on_c, 1, 83, 0
3, 195000, Note_on_c, 1, 81, 100
3, 195120, Note_on_c, 1, 81, 0
3, 195120, Note_on_c, 1, 79, 100
3, 195240, Note_on_c, 1, 79, 0
3, 195240, Note_on_c, 1, 83, 100
3, 195360, Note_on_c, 1, 83, 0
3, 195360, Note_on_c, 1, 81, 100
3, 195480, Note_on_c, 1, 81, 0
3, 195480, Note_on_c, 1, 79, 100
3, 195600, Note_on_c, 1, 79, 0
3, 195600, Note_on_c, 1, 78, 100
3, 195720, Note_on_c, 1, 78, 0
3, 195720, Note_on_c, 1, 76, 100
3, 195840, Note_on_c, 1, 76, 0
3, 195840, Note_on_c, 1, 74, 100
3, 196440, Note_on_c, 1, 74, 0
3, 196440, Note_on_c, 1, 72, 100
3, 196560, Note_on_c, 1, 72, 0
3, 196560, Note_on_c, 1, 71, 100
3, 196680, Note_on_c, 1, 71, 0
3, 196680, Note_on_c, 1, 69, 100
3, 196800, Note_on_c, 1, 69, 0
3, 196800, Note_on_c, 1, 71, 100
3, 197400, Note_on_c, 1, 71, 0
3, 197400, Note_on_c, 1, 69, 100
3, 197520, Note_on_c, 1, 69, 0
3, 197520, Note_on_c, 1, 67, 100
3, 197640, Note_on_c, 1, 67, 0
3, 197640, Note_on_c, 1, 66, 100
3, 197760, Note_on_c, 1, 66, 0
3, 197760, Note_on_c, 1, 64, 100
3, 198360, Note_on_c, 1, 64, 0
3, 198360, Note_on_c, 1, 67, 100
3, 198480, Note_on_c, 1, 67, 0
3, 198480, Note_on_c, 1, 66, 100
3, 198600, Note_on_c, 1, 66, 0
3, 198600, Note_on_c, 1, 64, 100
3, 198720, Note_on_c, 1, 64, 0
3, 198720, Note_on_c, 1, 62, 100
3, 198960, Note_on_c, 1, 62, 0
3, 201600, Note_on_c, 1, 79, 100
3, 202080, Note_on_c, 1, 79, 0
3, 202080, Note_on_c, 1, 84, 100
3, 202140, Note_on_c, 1, 84, 0
3, 202140, Note_on_c, 1, 83, 100
3, 202200, Note_on_c, 1, 83, 0
3, 202200, Note_on_c, 1, 84, 100
3, 202800, Note_on_c, 1, 84, 0
3, 202800, Note_on_c, 1, 83, 100
3, 202920, Note_on_c, 1, 83, 0
3, 202920, Note_on_c, 1, 81, 100
3, 203040, Note_on_c, 1, 81, 0
3, 203040, Note_on_c, 1, 83, 100
3, 203160, Note_on_c, 1, 83, 0
3, 203160, Note_on_c, 1, 81, 100
3, 203280, Note_on_c, 1, 81, 0
3, 203280, Note_on_c, 1, 79, 100
3, 203400, Note_on_c, 1, 79, 0
3, 203400, Note_on_c, 1, 78, 100
3, 203520, Note_on_c, 1, 78, 0
3, 203520, Note_on_c, 1, 79, 100
3, 204120, Note_on_c, 1, 79, 0
3, 204120, Note_on_c, 1, 77, 100
3, 204240, Note_on_c, 1, 77, 0
3, 204240, Note_on_c, 1, 76, 100
3, 204360, Note_on_c, 1, 76, 0
3, 204360, Note_on_c, 1, 74, 100
3, 204480, Note_on_c, 1, 74, 0
3, 204480, Note_on_c, 1, 76, 100
3, 205080, Note_on_c, 1, 76, 0
3, 205080, Note_on_c, 1, 74, 100
3, 205200, Note_on_c, 1, 74, 0
3, 205200, Note_on_c, 1, 72, 100
3, 205320, Note_on_c, 1, 72, 0
3, 205320, Note_on_c, 1, 71, 100
3, 205440, Note_on_c, 1, 71, 0
3, 205440, Note_on_c, 1, 69, 100
3, 206040, Note_on_c, 1, 69, 0
3, 206040, Note_on_c, 1, 72, 100
3, 206160, Note_on_c, 1, 72, 0
3, 206160, Note_on_c, 1, 71, 100
3, 206280, Note_on_c, 1, 71, 0
3, 206280, Note_on_c, 1, 69, 100
3, 206400, Note_on_c, 1, 69, 0
3, 206400, Note_on_c, 1, 71, 100
3, 206520, Note_on_c, 1, 71, 0
3, 206520, Note_on_c, 1, 79, 100
3, 206640, Note_on_c, 1, 79, 0
3, 206640, Note_on_c, 1, 78, 100
3, 206760, Note_on_c, 1, 78, 0
3, 206760, Note_on_c, 1, 81, 100
3, 206880, Note_on_c, 1, 81, 0
3, 206880, Note_on_c, 1, 79, 100
3, 207000, Note_on_c, 1, 79, 0
3, 207000, Note_on_c, 1, 78, 100
3, 207120, Note_on_c, 1, 78, 0
3, 207120, Note_on_c, 1, 76, 100
3, 207240, Note_on_c, 1, 76, 0
3, 207240, Note_on_c, 1, 74, 100
3, 207360, Note_on_c, 1, 74, 0
3, 207360, Note_on_c, 1, 84, 100
3, 207600, Note_on_c, 1, 84, 0
3, 207600, Note_on_c, 1, 83, 100
3, 207840, Note_on_c, 1, 83, 0
3, 209280, Note_on_c, 1, 71, 100
3, 209400, Note_on_c, 1, 71, 0
3, 209400, Note_on_c, 1, 75, 100
3, 209520, Note_on_c, 1, 75, 0
3, 209520, Note_on_c, 1, 76, 100
3, 209640, Note_on_c, 1, 76, 0
3, 209640, Note_on_c, 1, 79, 100
3, 209760, Note_on_c, 1, 79, 0
3, 209760, Note_on_c, 1, 83, 100
3, 210360, Note_on_c, 1, 83, 0
3, 210360, Note_on_c, 1, 81, 100
3, 210480, Note_on_c, 1, 81, 0
3, 210480, Note_on_c, 1, 79, 100
3, 210600, Note_on_c, 1, 79, 0
3, 210600, Note_on_c, 1, 83, 100
3, 210720, Note_on_c, 1, 83, 0
3, 210720, Note_on_c, 1, 81, 100
3, 210840, Note_on_c, 1, 81, 0
3, 210840, Note_on_c, 1, 79, 100
3, 210960, Note_on_c, 1, 79, 0
3, 210960, Note_on_c, 1, 78, 100
3, 211080, Note_on_c, 1, 78, 0
3, 211080, Note_on_c, 1, 76, 100
3, 211200, Note_on_c, 1, 76, 0
3, 211200, Note_on_c, 1, 74, 100
3, 211800, Note_on_c, 1, 74, 0
3, 211800, Note_on_c, 1, 72, 100
3, 211920, Note_on_c, 1, 72, 0
3, 211920, Note_on_c, 1, 71, 100
3, 212040, Note_on_c, 1, 71, 0
3, 212040, Note_on_c, 1, 69, 100
3, 212160, Note_on_c, 1, 69, 0
3, 212160, Note_on_c, 1, 71, 100
3, 212760, Note_on_c, 1, 71, 0
3, 212760, Note_on_c, 1, 69, 100
3, 212880, Note_on_c, 1, 69, 0
3, 212880, Note_on_c, 1, 67, 100
3, 213000, Note_on_c, 1, 67, 0
3, 213000, Note_on_c, 1, 66, 100
3, 213120, Note_on_c, 1, 66, 0
3, 213120, Note_on_c, 1, 64, 100
3, 213720, Note_on_c, 1, 64, 0
3, 213720, Note_on_c, 1, 67, 100
3, 213840, Note_on_c, 1, 67, 0
3, 213840, Note_on_c, 1, 66, 100
3, 213960, Note_on_c, 1, 66, 0
3, 213960, Note_on_c, 1, 64, 100
3, 214080, Note_on_c, 1, 64, 0
3, 214080, Note_on_c, 1, 62, 100
3, 214560, Note_on_c, 1, 62, 0
3, 215040, Note_on_c, 1, 69, 100
3, 215520, Note_on_c, 1, 69, 0
3, 215520, Note_on_c, 1, 81, 100
3, 216120, Note_on_c, 1, 81, 0
3, 216120, Note_on_c, 1, 79, 100
3, 216240, Note_on_c, 1, 79, 0
3, 216240, Note_on_c, 1, 78, 100
3, 216360, Note_on_c, 1, 78, 0
3, 216360, Note_on_c, 1, 81, 100
3, 216480, Note_on_c, 1, 81, 0
3, 216480, Note_on_c, 1, 79, 100
3, 216600, Note_on_c, 1, 79, 0
3, 216600, Note_on_c, 1, 78, 100
3, 216720, Note_on_c, 1, 78, 0
3, 216720, Note_on_c, 1, 76, 100
3, 216840, Note_on_c, 1, 76, 0
3, 216840, Note_on_c, 1, 75, 100
3, 216960, Note_on_c, 1, 75, 0
3, 216960, Note_on_c, 1, 76, 100
3, 217440, Note_on_c, 1, 76, 0
3, 217680, Note_on_c, 1, 78, 100
3, 217920, Note_on_c, 1, 78, 0
3, 217920, Note_on_c, 1, 75, 100
3, 218160, Note_on_c, 1, 75, 0
3, 218160, Note_on_c, 1, 71, 100
3, 218400, Note_on_c, 1, 71, 0
3, 218880, Note_on_c, 1, 76, 100
3, 219480, Note_on_c, 1, 76, 0
3, 219480, Note_on_c, 1, 74, 100
3, 219600, Note_on_c, 1, 74, 0
3, 219600, Note_on_c, 1, 72, 100
3, 219720, Note_on_c, 1, 72, 0
3, 219720, Note_on_c, 1, 71, 100
3, 219840, Note_on_c, 1, 71, 0
3, 219840, Note_on_c, 1, 72, 100
3, 220440, Note_on_c, 1, 72, 0
3, 220440, Note_on_c, 1, 71, 100
3, 220560, Note_on_c, 1, 71, 0
3, 220560, Note_on_c, 1, 69, 100
3, 220680, Note_on_c, 1, 69, 0
3, 220680, Note_on_c, 1, 67, 100
3, 220800, Note_on_c, 1, 67, 0
3, 220800, Note_on_c, 1, 66, 100
3, 221400, Note_on_c, 1, 66, 0
3, 221400, Note_on_c, 1, 69, 100
3, 221520, Note_on_c, 1, 69, 0
3, 221520, Note_on_c, 1, 67, 100
3, 221640, Note_on_c, 1, 67, 0
3, 221640, Note_on_c, 1, 66, 100
3, 221760, Note_on_c, 1, 66, 0
3, 221760, Note_on_c, 1, 67, 100
3, 222240, Note_on_c, 1, 67, 0
3, 222720, Note_on_c, 1, 64, 100
3, 223200, Note_on_c, 1, 64, 0
3, 223200, Note_on_c, 1, 69, 100
3, 223800, Note_on_c, 1, 69, 0
3, 223800, Note_on_c, 1, 67, 100
3, 223920, Note_on_c, 1, 67, 0
3, 223920, Note_on_c, 1, 66, 100
3, 224040, Note_on_c, 1, 66, 0
3, 224040, Note_on_c, 1, 69, 100
3, 224160, Note_on_c, 1, 69, 0
3, 224160, Note_on_c, 1, 67, 100
3, 224280, Note_on_c, 1, 67, 0
3, 224280, Note_on_c, 1, 66, 100
3, 224400, Note_on_c, 1, 66, 0
3, 224400, Note_on_c, 1, 64, 100
3, 224520, Note_on_c, 1, 64, 0
3, 224520, Note_on_c, 1, 62, 100
3, 224640, Note_on_c, 1, 62, 0
3, 224640, Note_on_c, 1, 60, 100
3, 225120, Note_on_c, 1, 60, 0
3, 225120, Note_on_c, 1, 72, 100
3, 225720, Note_on_c, 1, 72, 0
3, 225720, Note_on_c, 1, 71, 100
3, 225840, Note_on_c, 1, 71, 0
3, 225840, Note_on_c, 1, 69, 100
3, 225960, Note_on_c, 1, 69, 0
3, 225960, Note_on_c, 1, 72, 100
3, 226080, Note_on_c, 1, 72, 0
3, 226080, Note_on_c, 1, 71, 100
3, 226200, Note_on_c, 1, 71, 0
3, 226200, Note_on_c, 1, 69, 100
3, 226320, Note_on_c, 1, 69, 0
3, 226320, Note_on_c, 1, 67, 100
3, 226440, Note_on_c, 1, 67, 0
3, 226440, Note_on_c, 1, 66, 100
3, 226560, Note_on_c, 1, 66, 0
3, 226560, Note_on_c, 1, 71, 100
3, 226800, Note_on_c, 1, 71, 0
3, 226800, Note_on_c, 1, 67, 100
3, 227040, Note_on_c, 1, 67, 0
3, 227040, Note_on_c, 1, 71, 100
3, 227280, Note_on_c, 1, 71, 0
3, 227280, Note_on_c, 1, 74, 100
3, 227520, Note_on_c, 1, 74, 0
3, 227520, Note_on_c, 1, 79, 100
3, 228000, Note_on_c, 1, 79, 0
3, 228000, Note_on_c, 1, 84, 100
3, 228600, Note_on_c, 1, 84, 0
3, 228600, Note_on_c, 1, 83, 100
3, 228720, Note_on_c, 1, 83, 0
3, 228720, Note_on_c, 1, 81, 100
3, 228840, Note_on_c, 1, 81, 0
3, 228840, Note_on_c, 1, 84, 100
3, 228960, Note_on_c, 1, 84, 0
3, 228960, Note_on_c, 1, 83, 100
3, 229080, Note_on_c, 1, 83, 0
3, 229080, Note_on_c, 1, 81, 100
3, 229200, Note_on_c, 1, 81, 0
3, 229200, Note_on_c, 1, 79, 100
3, 229320, Note_on_c, 1, 79, 0
3, 229320, Note_on_c, 1, 78, 100
3, 229440, Note_on_c, 1, 78, 0
3, 229440, Note_on_c, 1, 79, 100
3, 229920, Note_on_c, 1, 79, 0
3, 230400, Note_on_c, 1, 69, 100
3, 230880, Note_on_c, 1, 69, 0
3, 230880, Note_on_c, 1, 81, 100
3, 231480, Note_on_c, 1, 81, 0
3, 231480, Note_on_c, 1, 79, 100
3, 231600, Note_on_c, 1, 79, 0
3, 231600, Note_on_c, 1, 78, 100
3, 231720, Note_on_c, 1, 78, 0
3, 231720, Note_on_c, 1, 81, 100
3, 231840, Note_on_c, 1, 81, 0
3, 231840, Note_on_c, 1, 79, 100
3, 231960, Note_on_c, 1, 79, 0
3, 231960, Note_on_c, 1, 78, 100
3, 232080, Note_on_c, 1, 78, 0
3, 232080, Note_on_c, 1, 76, 100
3, 232200, Note_on_c, 1, 76, 0
3, 232200, Note_on_c, 1, 75, 100
3, 232320, Note_on_c, 1, 75, 0
3, 232320, Note_on_c, 1, 76, 100
3, 232800, Note_on_c, 1, 76, 0
3, 233040, Note_on_c, 1, 78, 100
3, 233280, Note_on_c, 1, 78, 0
3, 233280, Note_on_c, 1, 75, 100
3, 233520, Note_on_c, 1, 75, 0
3, 233520, Note_on_c, 1, 71, 100
3, 233760, Note_on_c, 1, 71, 0
3, 234240, Note_on_c, 1, 76, 100
3, 234840, Note_on_c, 1, 76, 0
3, 234840, Note_on_c, 1, 74, 100
3, 234960, Note_on_c, 1, 74, 0
3, 234960, Note_on_c, 1, 72, 100
3, 235080, Note_on_c, 1, 72, 0
3, 235080, Note_on_c, 1, 71, 100
3, 235200, Note_on_c, 1, 71, 0
3, 235200, Note_on_c, 1, 72, 100
3, 235800, Note_on_c, 1, 72, 0
3, 235800, Note_on_c, 1, 71, 100
3, 235920, Note_on_c, 1, 71, 0
3, 235920, Note_on_c, 1, 69, 100
3, 236040, Note_on_c, 1, 69, 0
3, 236040, Note_on_c, 1, 67, 100
3, 236160, Note_on_c, 1, 67, 0
3, 236160, Note_on_c, 1, 66, 100
3, 236760, Note_on_c, 1, 66, 0
3, 236760, Note_on_c, 1, 69, 100
3, 236880, Note_on_c, 1, 69, 0
3, 236880, Note_on_c, 1, 67, 100
3, 237000, Note_on_c, 1, 67, 0
3, 237000, Note_on_c, 1, 66, 100
3, 237120, Note_on_c, 1, 66, 0
3, 237120, Note_on_c, 1, 67, 100
3, 237600, Note_on_c, 1, 67, 0
3, 238080, Note_on_c, 1, 64, 100
3, 238560, Note_on_c, 1, 64, 0
3, 238560, Note_on_c, 1, 69, 100
3, 239160, Note_on_c, 1, 69, 0
3, 239160, Note_on_c, 1, 67, 100
3, 239280, Note_on_c, 1, 67, 0
3, 239280, Note_on_c, 1, 66, 100
3, 239400, Note_on_c, 1, 66, 0
3, 239400, Note_on_c, 1, 69, 100
3, 239520, Note_on_c, 1, 69, 0
3, 239520, Note_on_c, 1, 67, 100
3, 239640, Note_on_c, 1, 67, 0
3, 239640, Note_on_c, 1, 66, 100
3, 239760, Note_on_c, 1, 66, 0
3, 239760, Note_on_c, 1, 64, 100
3, 239880, Note_on_c, 1, 64, 0
3, 239880, Note_on_c, 1, 62, 100
3, 240000, Note_on_c, 1, 62, 0
3, 240000, Note_on_c, 1, 60, 100
3, 240480, Note_on_c, 1, 60, 0
3, 240480, Note_on_c, 1, 72, 100
3, 241080, Note_on_c, 1, 72, 0
3, 241080, Note_on_c, 1, 71, 100
3, 241200, Note_on_c, 1, 71, 0
3, 241200, Note_on_c, 1, 69, 100
3, 241320, Note_on_c, 1, 69, 0
3, 241320, Note_on_c, 1, 72, 100
3, 241440, Note_on_c, 1, 72, 0
3, 241440, Note_on_c, 1, 71, 100
3, 241560, Note_on_c, 1, 71, 0
3, 241560, Note_on_c, 1, 69, 100
3, 241680, Note_on_c, 1, 69, 0
3, 241680, Note_on_c, 1, 67, 100
3, 241800, Note_on_c, 1, 67, 0
3, 241800, Note_on_c, 1, 66, 100
3, 241920, Note_on_c, 1, 66, 0
3, 241920, Note_on_c, 1, 71, 100
3, 242160, Note_on_c, 1, 71, 0
3, 242160, Note_on_c, 1, 67, 100
3, 242400, Note_on_c, 1, 67, 0
3, 242400, Note_on_c, 1, 71, 100
3, 242640, Note_on_c, 1, 71, 0
3, 242640, Note_on_c, 1, 74, 100
3, 242880, Note_on_c, 1, 74, 0
3, 242880, Note_on_c, 1, 79, 100
3, 243360, Note_on_c, 1, 79, 0
3, 243360, Note_on_c, 1, 84, 100
3, 243960, Note_on_c, 1, 84, 0
3, 243960, Note_on_c, 1, 83, 100
3, 244080, Note_on_c, 1, 83, 0
3, 244080, Note_on_c, 1, 81, 100
3, 244200, Note_on_c, 1, 81, 0
3, 244200, Note_on_c, 1, 84, 100
3, 244320, Note_on_c, 1, 84, 0
3, 244320, Note_on_c, 1, 83, 100
3, 244440, Note_on_c, 1, 83, 0
3, 244440, Note_on_c, 1, 81, 100
3, 244560, Note_on_c, 1, 81, 0
3, 244560, Note_on_c, 1, 79, 100
3, 244680, Note_on_c, 1, 79, 0
3, 244680, Note_on_c, 1, 78, 100
3, 244800, Note_on_c, 1, 78, 0
3, 244800, Note_on_c, 1, 79, 100
3, 245280, Note_on_c, 1, 79, 0
3, 245760, Note_on_c, 1, 71, 100
3, 246600, Note_on_c, 1, 71, 0
3, 246600, Note_on_c, 1, 72, 100
3, 246720, Note_on_c, 1, 72, 0
3, 246720, Note_on_c, 1, 74, 100
3, 246840, Note_on_c, 1, 74, 0
3, 246840, Note_on_c, 1, 72, 100
3, 246960, Note_on_c, 1, 72, 0
3, 246960, Note_on_c, 1, 74, 100
3, 247080, Note_on_c, 1, 74, 0
3, 247080, Note_on_c, 1, 76, 100
3, 247200, Note_on_c, 1, 76, 0
3, 247200, Note_on_c, 1, 69, 100
3, 248040, Note_on_c, 1, 69, 0
3, 248040, Note_on_c, 1, 71, 100
3, 248160, Note_on_c, 1, 71, 0
3, 248160, Note_on_c, 1, 72, 100
3, 248280, Note_on_c, 1, 72, 0
3, 248280, Note_on_c, 1, 71, 100
3, 248400, Note_on_c, 1, 71, 0
3, 248400, Note_on_c, 1, 72, 100
3, 248520, Note_on_c, 1, 72, 0
3, 248520, Note_on_c, 1, 74, 100
3, 248640, Note_on_c, 1, 74, 0
3, 248640, Note_on_c, 1, 67, 100
3, 249360, Note_on_c, 1, 67, 0
3, 249360, Note_on_c, 1, 79, 100
3, 250320, Note_on_c, 1, 79, 0
3, 250320, Note_on_c, 1, 81, 100
3, 250440, Note_on_c, 1, 81, 0
3, 250440, Note_on_c, 1, 79, 100
3, 250560, Note_on_c, 1, 79, 0
3, 250560, Note_on_c, 1, 78, 100
3, 250680, Note_on_c, 1, 78, 0
3, 250680, Note_on_c, 1, 79, 100
3, 250800, Note_on_c, 1, 79, 0
3, 250800, Note_on_c, 1, 81, 100
3, 251040, Note_on_c, 1, 81, 0
3, 251760, Note_on_c, 1, 74, 100
3, 251880, Note_on_c, 1, 74, 0
3, 251880, Note_on_c, 1, 72, 100
3, 252000, Note_on_c, 1, 72, 0
3, 252000, Note_on_c, 1, 71, 100
3, 252120, Note_on_c, 1, 71, 0
3, 252120, Note_on_c, 1, 69, 100
3, 252240, Note_on_c, 1, 69, 0
3, 252240, Note_on_c, 1, 71, 100
3, 252480, Note_on_c, 1, 71, 0
3, 252480, Note_on_c, 1, 72, 100
3, 252600, Note_on_c, 1, 72, 0
3, 252600, Note_on_c, 1, 71, 100
3, 252720, Note_on_c, 1, 71, 0
3, 252720, Note_on_c, 1, 69, 100
3, 252840, Note_on_c, 1, 69, 0
3, 252840, Note_on_c, 1, 71, 100
3, 252960, Note_on_c, 1, 71, 0
3, 252960, Note_on_c, 1, 67, 100
3, 253200, Note_on_c, 1, 67, 0
3, 253200, Note_on_c, 1, 76, 100
3, 253440, Note_on_c, 1, 76, 0
3, 253440, Note_on_c, 1, 74, 100
3, 253680, Note_on_c, 1, 74, 0
3, 253680, Note_on_c, 1, 72, 100
3, 253920, Note_on_c, 1, 72, 0
3, 253920, Note_on_c, 1, 78, 100
3, 254160, Note_on_c, 1, 78, 0
3, 254160, Note_on_c, 1, 81, 100
3, 254400, Note_on_c, 1, 81, 0
3, 254400, Note_on_c, 1, 71, 100
3, 254880, Note_on_c, 1, 71, 0
3, 254880, Note_on_c, 1, 79, 100
3, 255120, Note_on_c, 1, 79, 0
3, 255120, Note_on_c, 1, 79, 100
3, 255600, Note_on_c, 1, 79, 0
3, 255600, Note_on_c, 1, 78, 100
3, 255840, Note_on_c, 1, 78, 0
3, 256320, Note_on_c, 1, 83, 100
3, 256560, Note_on_c, 1, 83, 0
3, 256560, Note_on_c, 1, 81, 100
3, 257040, Note_on_c, 1, 81, 0
3, 257040, Note_on_c, 1, 74, 100
3, 257400, Note_on_c, 1, 74, 0
3, 257400, Note_on_c, 1, 76, 100
3, 257520, Note_on_c, 1, 76, 0
3, 257520, Note_on_c, 1, 74, 100
3, 257640, Note_on_c, 1, 74, 0
3, 257640, Note_on_c, 1, 72, 100
3, 257760, Note_on_c, 1, 72, 0
3, 257760, Note_on_c, 1, 71, 100
3, 258000, Note_on_c, 1, 71, 0
3, 258000, Note_on_c, 1, 76, 100
3, 258240, Note_on_c, 1, 76, 0
3, 258240, Note_on_c, 1, 71, 100
3, 258480, Note_on_c, 1, 71, 0
3, 258480, Note_on_c, 1, 74, 100
3, 258720, Note_on_c, 1, 74, 0
3, 258720, Note_on_c, 1, 73, 100
3, 258960, Note_on_c, 1, 73, 0
3, 258960, Note_on_c, 1, 74, 100
3, 259200, Note_on_c, 1, 74, 0
3, 259200, Note_on_c, 1, 76, 100
3, 259680, Note_on_c, 1, 76, 0
3, 259680, Note_on_c, 1, 73, 100
3, 259920, Note_on_c, 1, 73, 0
3, 259920, Note_on_c, 1, 69, 100
3, 260160, Note_on_c, 1, 69, 0
3, 260640, Note_on_c, 1, 74, 100
3, 260880, Note_on_c, 1, 74, 0
3, 260880, Note_on_c, 1, 67, 100
3, 261840, Note_on_c, 1, 67, 0
3, 261840, Note_on_c, 1, 66, 100
3, 262080, Note_on_c, 1, 66, 0
3, 262080, Note_on_c, 1, 67, 100
3, 262320, Note_on_c, 1, 67, 0
3, 262320, Note_on_c, 1, 64, 100
3, 262560, Note_on_c, 1, 64, 0
3, 262560, Note_on_c, 1, 69, 100
3, 262680, Note_on_c, 1, 69, 0
3, 262680, Note_on_c, 1, 67, 100
3, 262800, Note_on_c, 1, 67, 0
3, 262800, Note_on_c, 1, 66, 100
3, 262920, Note_on_c, 1, 66, 0
3, 262920, Note_on_c, 1, 64, 100
3, 263040, Note_on_c, 1, 64, 0
3, 263040, Note_on_c, 1, 62, 100
3, 263280, Note_on_c, 1, 62, 0
3, 263280, Note_on_c, 1, 64, 100
3, 263400, Note_on_c, 1, 64, 0
3, 263400, Note_on_c, 1, 66, 100
3, 263520, Note_on_c, 1, 66, 0
3, 263520, Note_on_c, 1, 67, 100
3, 263640, Note_on_c, 1, 67, 0
3, 263640, Note_on_c, 1, 69, 100
3, 263760, Note_on_c, 1, 69, 0
3, 263760, Note_on_c, 1, 71, 100
3, 264000, Note_on_c, 1, 71, 0
3, 264000, Note_on_c, 1, 74, 100
3, 264240, Note_on_c, 1, 74, 0
3, 264240, Note_on_c, 1, 73, 100
3, 264480, Note_on_c, 1, 73, 0
3, 264480, Note_on_c, 1, 74, 100
3, 265440, Note_on_c, 1, 74, 0
3, 265440, Note_on_c, 1, 73, 100
3, 265680, Note_on_c, 1, 73, 0
3, 265920, Note_on_c, 1, 74, 100
3, 266760, Note_on_c, 1, 74, 0
3, 266760, Note_on_c, 1, 69, 100
3, 266880, Note_on_c, 1, 69, 0
3, 266880, Note_on_c, 1, 67, 100
3, 267000, Note_on_c, 1, 67, 0
3, 267000, Note_on_c, 1, 66, 100
3, 267120, Note_on_c, 1, 66, 0
3, 267120, Note_on_c, 1, 67, 100
3, 267240, Note_on_c, 1, 67, 0
3, 267240, Note_on_c, 1, 64, 100
3, 267360, Note_on_c, 1, 64, 0
3, 267360, Note_on_c, 1, 66, 100
3, 268800, Note_on_c, 1, 66, 0
3, 268800, Note_on_c, 1, 71, 100
3, 269640, Note_on_c, 1, 71, 0
3, 269640, Note_on_c, 1, 72, 100
3, 269760, Note_on_c, 1, 72, 0
3, 269760, Note_on_c, 1, 74, 100
3, 269880, Note_on_c, 1, 74, 0
3, 269880, Note_on_c, 1, 72, 100
3, 270000, Note_on_c, 1, 72, 0
3, 270000, Note_on_c, 1, 74, 100
3, 270120, Note_on_c, 1, 74, 0
3, 270120, Note_on_c, 1, 76, 100
3, 270240, Note_on_c, 1, 76, 0
3, 270240, Note_on_c, 1, 69, 100
3, 271080, Note_on_c, 1, 69, 0
3, 271080, Note_on_c, 1, 71, 100
3, 271200, Note_on_c, 1, 71, 0
3, 271200, Note_on_c, 1, 72, 100
3, 271320, Note_on_c, 1, 72, 0
3, 271320, Note_on_c, 1, 71, 100
3, 271440, Note_on_c, 1, 71, 0
3, 271440, Note_on_c, 1, 72, 100
3, 271560, Note_on_c, 1, 72, 0
3, 271560, Note_on_c, 1, 74, 100
3, 271680, Note_on_c, 1, 74, 0
3, 271680, Note_on_c, 1, 67, 100
3, 272400, Note_on_c, 1, 67, 0
3, 272400, Note_on_c, 1, 79, 100
3, 273360, Note_on_c, 1, 79, 0
3, 273360, Note_on_c, 1, 81, 100
3, 273480, Note_on_c, 1, 81, 0
3, 273480, Note_on_c, 1, 79, 100
3, 273600, Note_on_c, 1, 79, 0
3, 273600, Note_on_c, 1, 78, 100
3, 273720, Note_on_c, 1, 78, 0
3, 273720, Note_on_c, 1, 79, 100
3, 273840, Note_on_c, 1, 79, 0
3, 273840, Note_on_c, 1, 81, 100
3, 274080, Note_on_c, 1, 81, 0
3, 274800, Note_on_c, 1, 74, 100
3, 274920, Note_on_c, 1, 74, 0
3, 274920, Note_on_c, 1, 72, 100
3, 275040, Note_on_c, 1, 72, 0
3, 275040, Note_on_c, 1, 71, 100
3, 275160, Note_on_c, 1, 71, 0
3, 275160, Note_on_c, 1, 69, 100
3, 275280, Note_on_c, 1, 69, 0
3, 275280, Note_on_c, 1, 71, 100
3, 275520, Note_on_c, 1, 71, 0
3, 275520, Note_on_c, 1, 72, 100
3, 275640, Note_on_c, 1, 72, 0
3, 275640, Note_on_c, 1, 71, 100
3, 275760, Note_on_c, 1, 71, 0
3, 275760, Note_on_c, 1, 69, 100
3, 275880, Note_on_c, 1, 69, 0
3, 275880, Note_on_c, 1, 71, 100
3, 276000, Note_on_c, 1, 71, 0
3, 276000, Note_on_c, 1, 67, 100
3, 276240, Note_on_c, 1, 67, 0
3, 276240, Note_on_c, 1, 76, 100
3, 276480, Note_on_c, 1, 76, 0
3, 276480, Note_on_c, 1, 74, 100
3, 276720, Note_on_c, 1, 74, 0
3, 276720, Note_on_c, 1, 72, 100
3, 276960, Note_on_c, 1, 72, 0
3, 276960, Note_on_c, 1, 78, 100
3, 277200, Note_on_c, 1, 78, 0
3, 277200, Note_on_c, 1, 81, 100
3, 277440, Note_on_c, 1, 81, 0
3, 277440, Note_on_c, 1, 71, 100
3, 277920, Note_on_c, 1, 71, 0
3, 277920, Note_on_c, 1, 79, 100
3, 278160, Note_on_c, 1, 79, 0
3, 278160, Note_on_c, 1, 79, 100
3, 278640, Note_on_c, 1, 79, 0
3, 278640, Note_on_c, 1, 78, 100
3, 278880, Note_on_c, 1, 78, 0
3, 279360, Note_on_c, 1, 83, 100
3, 279600, Note_on_c, 1, 83, 0
3, 279600, Note_on_c, 1, 81, 100
3, 280080, Note_on_c, 1, 81, 0
3, 280080, Note_on_c, 1, 74, 100
3, 280440, Note_on_c, 1, 74, 0
3, 280440, Note_on_c, 1, 76, 100
3, 280560, Note_on_c, 1, 76, 0
3, 280560, Note_on_c, 1, 74, 100
3, 280680, Note_on_c, 1, 74, 0
3, 280680, Note_on_c, 1, 72, 100
3, 280800, Note_on_c, 1, 72, 0
3, 280800, Note_on_c, 1, 71, 100
3, 281040, Note_on_c, 1, 71, 0
3, 281040, Note_on_c, 1, 76, 100
3, 281280, Note_on_c, 1, 76, 0
3, 281280, Note_on_c, 1, 71, 100
3, 281520, Note_on_c, 1, 71, 0
3, 281520, Note_on_c, 1, 74, 100
3, 281760, Note_on_c, 1, 74, 0
3, 281760, Note_on_c, 1, 73, 100
3, 282000, Note_on_c, 1, 73, 0
3, 282000, Note_on_c, 1, 74, 100
3, 282240, Note_on_c, 1, 74, 0
3, 282240, Note_on_c, 1, 76, 100
3, 282720, Note_on_c, 1, 76, 0
3, 282720, Note_on_c, 1, 73, 100
3, 282960, Note_on_c, 1, 73, 0
3, 282960, Note_on_c, 1, 69, 100
3, 283200, Note_on_c, 1, 69, 0
3, 283680, Note_on_c, 1, 74, 100
3, 283920, Note_on_c, 1, 74, 0
3, 283920, Note_on_c, 1, 67, 100
3, 284880, Note_on_c, 1, 67, 0
3, 284880, Note_on_c, 1, 66, 100
3, 285120, Note_on_c, 1, 66, 0
3, 285120, Note_on_c, 1, 67, 100
3, 285360, Note_on_c, 1, 67, 0
3, 285360, Note_on_c, 1, 64, 100
3, 285600, Note_on_c, 1, 64, 0
3, 285600, Note_on_c, 1, 69, 100
3, 285720, Note_on_c, 1, 69, 0
3, 285720, Note_on_c, 1, 67, 100
3, 285840, Note_on_c, 1, 67, 0
3, 285840, Note_on_c, 1, 66, 100
3, 285960, Note_on_c, 1, 66, 0
3, 285960, Note_on_c, 1, 64, 100
3, 286080, Note_on_c, 1, 64, 0
3, 286080, Note_on_c, 1, 62, 100
3, 286320, Note_on_c, 1, 62, 0
3, 286320, Note_on_c, 1, 64, 100
3, 286440, Note_on_c, 1, 64, 0
3, 286440, Note_on_c, 1, 66, 100
3, 286560, Note_on_c, 1, 66, 0
3, 286560, Note_on_c, 1, 67, 100
3, 286680, Note_on_c, 1, 67, 0
3, 286680, Note_on_c, 1, 69, 100
3, 286800, Note_on_c, 1, 69, 0
3, 286800, Note_on_c, 1, 71, 100
3, 287040, Note_on_c, 1, 71, 0
3, 287040, Note_on_c, 1, 74, 100
3, 287280, Note_on_c, 1, 74, 0
3, 287280, Note_on_c, 1, 73, 100
3, 287520, Note_on_c, 1, 73, 0
3, 287520, Note_on_c, 1, 74, 100
3, 288480, Note_on_c, 1, 74, 0
3, 288480, Note_on_c, 1, 73, 100
3, 288720, Note_on_c, 1, 73, 0
3, 288960, Note_on_c, 1, 74, 100
3, 289800, Note_on_c, 1, 74, 0
3, 289800, Note_on_c, 1, 69, 100
3, 289920, Note_on_c, 1, 69, 0
3, 289920, Note_on_c, 1, 67, 100
3, 290040, Note_on_c, 1, 67, 0
3, 290040, Note_on_c, 1, 66, 100
3, 290160, Note_on_c, 1, 66, 0
3, 290160, Note_on_c, 1, 67, 100
3, 290280, Note_on_c, 1, 67, 0
3, 290280, Note_on_c, 1, 64, 100
3, 290400, Note_on_c, 1, 64, 0
3, 290400, Note_on_c, 1, 66, 100
3, 291840, Note_on_c, 1, 66, 0
3, 292560, Note_on_c, 1, 81, 100
3, 293400, Note_on_c, 1, 81, 0
3, 293400, Note_on_c, 1, 83, 100
3, 293520, Note_on_c, 1, 83, 0
3, 293520, Note_on_c, 1, 84, 100
3, 293640, Note_on_c, 1, 84, 0
3, 293640, Note_on_c, 1, 81, 100
3, 293760, Note_on_c, 1, 81, 0
3, 293760, Note_on_c, 1, 83, 100
3, 293880, Note_on_c, 1, 83, 0
3, 293880, Note_on_c, 1, 84, 100
3, 294000, Note_on_c, 1, 84, 0
3, 294000, Note_on_c, 1, 83, 100
3, 294120, Note_on_c, 1, 83, 0
3, 294120, Note_on_c, 1, 81, 100
3, 294240, Note_on_c, 1, 81, 0
3, 294240, Note_on_c, 1, 79, 100
3, 294360, Note_on_c, 1, 79, 0
3, 294360, Note_on_c, 1, 78, 100
3, 294480, Note_on_c, 1, 78, 0
3, 294480, Note_on_c, 1, 76, 100
3, 294600, Note_on_c, 1, 76, 0
3, 294600, Note_on_c, 1, 75, 100
3, 294720, Note_on_c, 1, 75, 0
3, 294720, Note_on_c, 1, 76, 100
3, 294960, Note_on_c, 1, 76, 0
3, 294960, Note_on_c, 1, 78, 100
3, 295200, Note_on_c, 1, 78, 0
3, 295200, Note_on_c, 1, 79, 100
3, 295680, Note_on_c, 1, 79, 0
3, 295680, Note_on_c, 1, 78, 100
3, 295920, Note_on_c, 1, 78, 0
3, 295920, Note_on_c, 1, 76, 100
3, 296160, Note_on_c, 1, 76, 0
3, 296160, Note_on_c, 1, 75, 100
3, 297360, Note_on_c, 1, 75, 0
3, 298320, Note_on_c, 1, 69, 100
3, 299280, Note_on_c, 1, 69, 0
3, 299280, Note_on_c, 1, 71, 100
3, 299400, Note_on_c, 1, 71, 0
3, 299400, Note_on_c, 1, 69, 100
3, 299520, Note_on_c, 1, 69, 0
3, 299520, Note_on_c, 1, 67, 100
3, 299640, Note_on_c, 1, 67, 0
3, 299640, Note_on_c, 1, 66, 100
3, 299760, Note_on_c, 1, 66, 0
3, 299760, Note_on_c, 1, 67, 100
3, 299880, Note_on_c, 1, 67, 0
3, 299880, Note_on_c, 1, 69, 100
3, 300000, Note_on_c, 1, 69, 0
3, 300000, Note_on_c, 1, 71, 100
3, 300120, Note_on_c, 1, 71, 0
3, 300120, Note_on_c, 1, 67, 100
3, 300240, Note_on_c, 1, 67, 0
3, 300240, Note_on_c, 1, 69, 100
3, 300360, Note_on_c, 1, 69, 0
3, 300360, Note_on_c, 1, 71, 100
3, 300480, Note_on_c, 1, 71, 0
3, 300480, Note_on_c, 1, 64, 100
3, 300720, Note_on_c, 1, 64, 0
3, 300720, Note_on_c, 1, 66, 100
3, 300840, Note_on_c, 1, 66, 0
3, 300840, Note_on_c, 1, 67, 100
3, 300960, Note_on_c, 1, 67, 0
3, 300960, Note_on_c, 1, 69, 100
3, 301080, Note_on_c, 1, 69, 0
3, 301080, Note_on_c, 1, 71, 100
3, 301200, Note_on_c, 1, 71, 0
3, 301200, Note_on_c, 1, 72, 100
3, 301440, Note_on_c, 1, 72, 0
3, 301440, Note_on_c, 1, 64, 100
3, 301680, Note_on_c, 1, 64, 0
3, 301680, Note_on_c, 1, 63, 100
3, 301920, Note_on_c, 1, 63, 0
3, 301920, Note_on_c, 1, 64, 100
3, 302640, Note_on_c, 1, 64, 0
3, 303360, Note_on_c, 1, 76, 100
3, 304200, Note_on_c, 1, 76, 0
3, 304200, Note_on_c, 1, 78, 100
3, 304320, Note_on_c, 1, 78, 0
3, 304320, Note_on_c, 1, 79, 100
3, 304440, Note_on_c, 1, 79, 0
3, 304440, Note_on_c, 1, 76, 100
3, 304560, Note_on_c, 1, 76, 0
3, 304560, Note_on_c, 1, 78, 100
3, 304680, Note_on_c, 1, 78, 0
3, 304680, Note_on_c, 1, 79, 100
3, 304800, Note_on_c, 1, 79, 0
3, 304800, Note_on_c, 1, 72, 100
3, 304920, Note_on_c, 1, 72, 0
3, 304920, Note_on_c, 1, 74, 100
3, 305040, Note_on_c, 1, 74, 0
3, 305040, Note_on_c, 1, 76, 100
3, 305160, Note_on_c, 1, 76, 0
3, 305160, Note_on_c, 1, 72, 100
3, 305280, Note_on_c, 1, 72, 0
3, 305280, Note_on_c, 1, 74, 100
3, 305400, Note_on_c, 1, 74, 0
3, 305400, Note_on_c, 1, 76, 100
3, 305520, Note_on_c, 1, 76, 0
3, 305520, Note_on_c, 1, 69, 100
3, 305640, Note_on_c, 1, 69, 0
3, 305640, Note_on_c, 1, 71, 100
3, 305760, Note_on_c, 1, 71, 0
3, 305760, Note_on_c, 1, 72, 100
3, 305880, Note_on_c, 1, 72, 0
3, 305880, Note_on_c, 1, 69, 100
3, 306000, Note_on_c, 1, 69, 0
3, 306000, Note_on_c, 1, 71, 100
3, 306120, Note_on_c, 1, 71, 0
3, 306120, Note_on_c, 1, 72, 100
3, 306240, Note_on_c, 1, 72, 0
3, 306240, Note_on_c, 1, 71, 100
3, 306360, Note_on_c, 1, 71, 0
3, 306360, Note_on_c, 1, 72, 100
3, 306480, Note_on_c, 1, 72, 0
3, 306480, Note_on_c, 1, 74, 100
3, 306600, Note_on_c, 1, 74, 0
3, 306600, Note_on_c, 1, 71, 100
3, 306720, Note_on_c, 1, 71, 0
3, 306720, Note_on_c, 1, 72, 100
3, 306840, Note_on_c, 1, 72, 0
3, 306840, Note_on_c, 1, 74, 100
3, 306960, Note_on_c, 1, 74, 0
3, 306960, Note_on_c, 1, 67, 100
3, 307920, Note_on_c, 1, 67, 0
3, 307920, Note_on_c, 1, 79, 100
3, 308640, Note_on_c, 1, 79, 0
3, 308640, Note_on_c, 1, 78, 100
3, 308880, Note_on_c, 1, 78, 0
3, 308880, Note_on_c, 1, 81, 100
3, 309360, Note_on_c, 1, 81, 0
3, 309360, Note_on_c, 1, 79, 100
3, 309600, Note_on_c, 1, 79, 0
3, 309600, Note_on_c, 1, 77, 100
3, 309840, Note_on_c, 1, 77, 0
3, 309840, Note_on_c, 1, 76, 100
3, 309960, Note_on_c, 1, 76, 0
3, 309960, Note_on_c, 1, 74, 100
3, 310080, Note_on_c, 1, 74, 0
3, 310080, Note_on_c, 1, 72, 100
3, 310200, Note_on_c, 1, 72, 0
3, 310200, Note_on_c, 1, 76, 100
3, 310320, Note_on_c, 1, 76, 0
3, 310320, Note_on_c, 1, 74, 100
3, 310440, Note_on_c, 1, 74, 0
3, 310440, Note_on_c, 1, 72, 100
3, 310560, Note_on_c, 1, 72, 0
3, 310560, Note_on_c, 1, 71, 100
3, 311040, Note_on_c, 1, 71, 0
3, 311040, Note_on_c, 1, 83, 100
3, 311280, Note_on_c, 1, 83, 0
3, 311280, Note_on_c, 1, 81, 100
3, 311760, Note_on_c, 1, 81, 0
3, 311760, Note_on_c, 1, 84, 100
3, 312000, Note_on_c, 1, 84, 0
3, 312000, Note_on_c, 1, 83, 100
3, 312480, Note_on_c, 1, 83, 0
3, 312480, Note_on_c, 1, 86, 100
3, 312720, Note_on_c, 1, 86, 0
3, 312720, Note_on_c, 1, 79, 100
3, 312960, Note_on_c, 1, 79, 0
3, 312960, Note_on_c, 1, 81, 100
3, 313200, Note_on_c, 1, 81, 0
3, 313200, Note_on_c, 1, 78, 100
3, 313440, Note_on_c, 1, 78, 0
3, 313440, Note_on_c, 1, 79, 100
3, 314880, Note_on_c, 1, 79, 0
3, 315600, Note_on_c, 1, 81, 100
3, 316440, Note_on_c, 1, 81, 0
3, 316440, Note_on_c, 1, 83, 100
3, 316560, Note_on_c, 1, 83, 0
3, 316560, Note_on_c, 1, 84, 100
3, 316680, Note_on_c, 1, 84, 0
3, 316680, Note_on_c, 1, 81, 100
3, 316800, Note_on_c, 1, 81, 0
3, 316800, Note_on_c, 1, 83, 100
3, 316920, Note_on_c, 1, 83, 0
3, 316920, Note_on_c, 1, 84, 100
3, 317040, Note_on_c, 1, 84, 0
3, 317040, Note_on_c, 1, 83, 100
3, 317160, Note_on_c, 1, 83, 0
3, 317160, Note_on_c, 1, 81, 100
3, 317280, Note_on_c, 1, 81, 0
3, 317280, Note_on_c, 1, 79, 100
3, 317400, Note_on_c, 1, 79, 0
3, 317400, Note_on_c, 1, 78, 100
3, 317520, Note_on_c, 1, 78, 0
3, 317520, Note_on_c, 1, 76, 100
3, 317640, Note_on_c, 1, 76, 0
3, 317640, Note_on_c, 1, 75, 100
3, 317760, Note_on_c, 1, 75, 0
3, 317760, Note_on_c, 1, 76, 100
3, 318000, Note_on_c, 1, 76, 0
3, 318000, Note_on_c, 1, 78, 100
3, 318240, Note_on_c, 1, 78, 0
3, 318240, Note_on_c, 1, 79, 100
3, 318720, Note_on_c, 1, 79, 0
3, 318720, Note_on_c, 1, 78, 100
3, 318960, Note_on_c, 1, 78, 0
3, 318960, Note_on_c, 1, 76, 100
3, 319200, Note_on_c, 1, 76, 0
3, 319200, Note_on_c, 1, 75, 100
3, 320400, Note_on_c, 1, 75, 0
3, 321360, Note_on_c, 1, 69, 100
3, 322320, Note_on_c, 1, 69, 0
3, 322320, Note_on_c, 1, 71, 100
3, 322440, Note_on_c, 1, 71, 0
3, 322440, Note_on_c, 1, 69, 100
3, 322560, Note_on_c, 1, 69, 0
3, 322560, Note_on_c, 1, 67, 100
3, 322680, Note_on_c, 1, 67, 0
3, 322680, Note_on_c, 1, 66, 100
3, 322800, Note_on_c, 1, 66, 0
3, 322800, Note_on_c, 1, 67, 100
3, 322920, Note_on_c, 1, 67, 0
3, 322920, Note_on_c, 1, 69, 100
3, 323040, Note_on_c, 1, 69, 0
3, 323040, Note_on_c, 1, 71, 100
3, 323160, Note_on_c, 1, 71, 0
3, 323160, Note_on_c, 1, 67, 100
3, 323280, Note_on_c, 1, 67, 0
3, 323280, Note_on_c, 1, 69, 100
3, 323400, Note_on_c, 1, 69, 0
3, 323400, Note_on_c, 1, 71, 100
3, 323520, Note_on_c, 1, 71, 0
3, 323520, Note_on_c, 1, 64, 100
3, 323760, Note_on_c, 1, 64, 0
3, 323760, Note_on_c, 1, 66, 100
3, 323880, Note_on_c, 1, 66, 0
3, 323880, Note_on_c, 1, 67, 100
3, 324000, Note_on_c, 1, 67, 0
3, 324000, Note_on_c, 1, 69, 100
3, 324120, Note_on_c, 1, 69, 0
3, 324120, Note_on_c, 1, 71, 100
3, 324240, Note_on_c, 1, 71, 0
3, 324240, Note_on_c, 1, 72, 100
3, 324480, Note_on_c, 1, 72, 0
3, 324480, Note_on_c, 1, 64, 100
3, 324720, Note_on_c, 1, 64, 0
3, 324720, Note_on_c, 1, 63, 100
3, 324960, Note_on_c, 1, 63, 0
3, 324960, Note_on_c, 1, 64, 100
3, 325680, Note_on_c, 1, 64, 0
3, 326400, Note_on_c, 1, 76, 100
3, 327240, Note_on_c, 1, 76, 0
3, 327240, Note_on_c, 1, 78, 100
3, 327360, Note_on_c, 1, 78, 0
3, 327360, Note_on_c, 1, 79, 100
3, 327480, Note_on_c, 1, 79, 0
3, 327480, Note_on_c, 1, 76, 100
3, 327600, Note_on_c, 1, 76, 0
3, 327600, Note_on_c, 1, 78, 100
3, 327720, Note_on_c, 1, 78, 0
3, 327720, Note_on_c, 1, 79, 100
3, 327840, Note_on_c, 1, 79, 0
3, 327840, Note_on_c, 1, 72, 100
3, 327960, Note_on_c, 1, 72, 0
3, 327960, Note_on_c, 1, 74, 100
3, 328080, Note_on_c, 1, 74, 0
3, 328080, Note_on_c, 1, 76, 100
3, 328200, Note_on_c, 1, 76, 0
3, 328200, Note_on_c, 1, 72, 100
3, 328320, Note_on_c, 1, 72, 0
3, 328320, Note_on_c, 1, 74, 100
3, 328440, Note_on_c, 1, 74, 0
3, 328440, Note_on_c, 1, 76, 100
3, 328560, Note_on_c, 1, 76, 0
3, 328560, Note_on_c, 1, 69, 100
3, 328680, Note_on_c, 1, 69, 0
3, 328680, Note_on_c, 1, 71, 100
3, 328800, Note_on_c, 1, 71, 0
3, 328800, Note_on_c, 1, 72, 100
3, 328920, Note_on_c, 1, 72, 0
3, 328920, Note_on_c, 1, 69, 100
3, 329040, Note_on_c, 1, 69, 0
3, 329040, Note_on_c, 1, 71, 100
3, 329160, Note_on_c, 1, 71, 0
3, 329160, Note_on_c, 1, 72, 100
3, 329280, Note_on_c, 1, 72, 0
3, 329280, Note_on_c, 1, 71, 100
3, 329400, Note_on_c, 1, 71, 0
3, 329400, Note_on_c, 1, 72, 100
3, 329520, Note_on_c, 1, 72, 0
3, 329520, Note_on_c, 1, 74, 100
3, 329640, Note_on_c, 1, 74, 0
3, 329640, Note_on_c, 1, 71, 100
3, 329760, Note_on_c, 1, 71, 0
3, 329760, Note_on_c, 1, 72, 100
3, 329880, Note_on_c, 1, 72, 0
3, 329880, Note_on_c, 1, 74, 100
3, 330000, Note_on_c, 1, 74, 0
3, 330000, Note_on_c, 1, 67, 100
3, 330960, Note_on_c, 1, 67, 0
3, 330960, Note_on_c, 1, 79, 100
3, 331680, Note_on_c, 1, 79, 0
3, 331680, Note_on_c, 1, 78, 100
3, 331920, Note_on_c, 1, 78, 0
3, 331920, Note_on_c, 1, 81, 100
3, 332400, Note_on_c, 1, 81, 0
3, 332400, Note_on_c, 1, 79, 100
3, 332640, Note_on_c, 1, 79, 0
3, 332640, Note_on_c, 1, 77, 100
3, 332880, Note_on_c, 1, 77, 0
3, 332880, Note_on_c, 1, 76, 100
3, 333000, Note_on_c, 1, 76, 0
3, 333000, Note_on_c, 1, 74, 100
3, 333120, Note_on_c, 1, 74, 0
3, 333120, Note_on_c, 1, 72, 100
3, 333240, Note_on_c, 1, 72, 0
3, 333240, Note_on_c, 1, 76, 100
3, 333360, Note_on_c, 1, 76, 0
3, 333360, Note_on_c, 1, 74, 100
3, 333480, Note_on_c, 1, 74, 0
3, 333480, Note_on_c, 1, 72, 100
3, 333600, Note_on_c, 1, 72, 0
3, 333600, Note_on_c, 1, 71, 100
3, 334080, Note_on_c, 1, 71, 0
3, 334080, Note_on_c, 1, 83, 100
3, 334320, Note_on_c, 1, 83, 0
3, 334320, Note_on_c, 1, 81, 100
3, 334800, Note_on_c, 1, 81, 0
3, 334800, Note_on_c, 1, 84, 100
3, 335040, Note_on_c, 1, 84, 0
3, 335040, Note_on_c, 1, 83, 100
3, 335520, Note_on_c, 1, 83, 0
3, 335520, Note_on_c, 1, 86, 100
3, 335760, Note_on_c, 1, 86, 0
3, 335760, Note_on_c, 1, 79, 100
3, 336000, Note_on_c, 1, 79, 0
3, 336000, Note_on_c, 1, 81, 100
3, 336240, Note_on_c, 1, 81, 0
3, 336240, Note_on_c, 1, 78, 100
3, 336480, Note_on_c, 1, 78, 0
3, 336480, Note_on_c, 1, 79, 100
3, 337920, Note_on_c, 1, 79, 0
3, 476160, Note_on_c, 1, 79, 100
3, 477120, Note_on_c, 1, 79, 0
3, 477120, Note_on_c, 1, 78, 100
3, 477240, Note_on_c, 1, 78, 0
3, 477240, Note_on_c, 1, 76, 100
3, 477360, Note_on_c, 1, 76, 0
3, 477360, Note_on_c, 1, 74, 100
3, 477480, Note_on_c, 1, 74, 0
3, 477480, Note_on_c, 1, 72, 100
3, 477600, Note_on_c, 1, 72, 0
3, 477600, Note_on_c, 1, 71, 100
3, 478560, Note_on_c, 1, 71, 0
3, 478560, Note_on_c, 1, 69, 100
3, 478680, Note_on_c, 1, 69, 0
3, 478680, Note_on_c, 1, 67, 100
3, 478800, Note_on_c, 1, 67, 0
3, 478800, Note_on_c, 1, 66, 100
3, 478920, Note_on_c, 1, 66, 0
3, 478920, Note_on_c, 1, 64, 100
3, 479040, Note_on_c, 1, 64, 0
3, 479040, Note_on_c, 1, 62, 100
3, 480000, Note_on_c, 1, 62, 0
3, 480000, Note_on_c, 1, 60, 100
3, 480120, Note_on_c, 1, 60, 0
3, 480120, Note_on_c, 1, 59, 100
3, 480240, Note_on_c, 1, 59, 0
3, 480240, Note_on_c, 1, 57, 100
3, 480360, Note_on_c, 1, 57, 0
3, 480360, Note_on_c, 1, 55, 100
3, 480480, Note_on_c, 1, 55, 0
3, 480480, Note_on_c, 1, 57, 100
3, 481320, Note_on_c, 1, 57, 0
3, 481320, Note_on_c, 1, 55, 100
3, 481440, Note_on_c, 1, 55, 0
3, 481440, Note_on_c, 1, 59, 100
3, 481560, Note_on_c, 1, 59, 0
3, 481560, Note_on_c, 1, 57, 100
3, 481680, Note_on_c, 1, 57, 0
3, 481680, Note_on_c, 1, 55, 100
3, 481800, Note_on_c, 1, 55, 0
3, 481800, Note_on_c, 1, 54, 100
3, 481920, Note_on_c, 1, 54, 0
3, 481920, Note_on_c, 1, 55, 100
3, 482160, Note_on_c, 1, 55, 0
3, 482160, Note_on_c, 1, 67, 100
3, 482880, Note_on_c, 1, 67, 0
3, 482880, Note_on_c, 1, 66, 100
3, 483000, Note_on_c, 1, 66, 0
3, 483000, Note_on_c, 1, 64, 100
3, 483120, Note_on_c, 1, 64, 0
3, 483120, Note_on_c, 1, 62, 100
3, 483240, Note_on_c, 1, 62, 0
3, 483240, Note_on_c, 1, 60, 100
3, 483360, Note_on_c, 1, 60, 0
3, 483360, Note_on_c, 1, 59, 100
3, 483480, Note_on_c, 1, 59, 0
3, 483480, Note_on_c, 1, 62, 100
3, 483600, Note_on_c, 1, 62, 0
3, 483600, Note_on_c, 1, 67, 100
3, 483720, Note_on_c, 1, 67, 0
3, 483720, Note_on_c, 1, 69, 100
3, 483840, Note_on_c, 1, 69, 0
3, 483840, Note_on_c, 1, 70, 100
3, 484320, Note_on_c, 1, 70, 0
3, 484320, Note_on_c, 1, 69, 100
3, 484440, Note_on_c, 1, 69, 0
3, 484440, Note_on_c, 1, 67, 100
3, 484560, Note_on_c, 1, 67, 0
3, 484560, Note_on_c, 1, 66, 100
3, 484680, Note_on_c, 1, 66, 0
3, 484680, Note_on_c, 1, 64, 100
3, 484800, Note_on_c, 1, 64, 0
3, 484800, Note_on_c, 1, 62, 100
3, 485640, Note_on_c, 1, 62, 0
3, 485640, Note_on_c, 1, 61, 100
3, 485760, Note_on_c, 1, 61, 0
3, 485760, Note_on_c, 1, 59, 100
3, 485880, Note_on_c, 1, 59, 0
3, 485880, Note_on_c, 1, 62, 100
3, 486000, Note_on_c, 1, 62, 0
3, 486000, Note_on_c, 1, 61, 100
3, 486120, Note_on_c, 1, 61, 0
3, 486120, Note_on_c, 1, 59, 100
3, 486240, Note_on_c, 1, 59, 0
3, 486240, Note_on_c, 1, 61, 100
3, 486360, Note_on_c, 1, 61, 0
3, 486360, Note_on_c, 1, 59, 100
3, 486480, Note_on_c, 1, 59, 0
3, 486480, Note_on_c, 1, 57, 100
3, 486600, Note_on_c, 1, 57, 0
3, 486600, Note_on_c, 1, 55, 100
3, 486720, Note_on_c, 1, 55, 0
3, 486720, Note_on_c, 1, 54, 100
3, 486840, Note_on_c, 1, 54, 0
3, 486840, Note_on_c, 1, 52, 100
3, 486960, Note_on_c, 1, 52, 0
3, 486960, Note_on_c, 1, 54, 100
3, 487200, Note_on_c, 1, 54, 0
3, 487680, Note_on_c, 1, 79, 100
3, 488640, Note_on_c, 1, 79, 0
3, 488640, Note_on_c, 1, 78, 100
3, 488760, Note_on_c, 1, 78, 0
3, 488760, Note_on_c, 1, 76, 100
3, 488880, Note_on_c, 1, 76, 0
3, 488880, Note_on_c, 1, 74, 100
3, 489000, Note_on_c, 1, 74, 0
3, 489000, Note_on_c, 1, 72, 100
3, 489120, Note_on_c, 1, 72, 0
3, 489120, Note_on_c, 1, 71, 100
3, 490080, Note_on_c, 1, 71, 0
3, 490080, Note_on_c, 1, 69, 100
3, 490200, Note_on_c, 1, 69, 0
3, 490200, Note_on_c, 1, 67, 100
3, 490320, Note_on_c, 1, 67, 0
3, 490320, Note_on_c, 1, 66, 100
3, 490440, Note_on_c, 1, 66, 0
3, 490440, Note_on_c, 1, 64, 100
3, 490560, Note_on_c, 1, 64, 0
3, 490560, Note_on_c, 1, 62, 100
3, 491520, Note_on_c, 1, 62, 0
3, 491520, Note_on_c, 1, 60, 100
3, 491640, Note_on_c, 1, 60, 0
3, 491640, Note_on_c, 1, 59, 100
3, 491760, Note_on_c, 1, 59, 0
3, 491760, Note_on_c, 1, 57, 100
3, 491880, Note_on_c, 1, 57, 0
3, 491880, Note_on_c, 1, 55, 100
3, 492000, Note_on_c, 1, 55, 0
3, 492000, Note_on_c, 1, 57, 100
3, 492840, Note_on_c, 1, 57, 0
3, 492840, Note_on_c, 1, 55, 100
3, 492960, Note_on_c, 1, 55, 0
3, 492960, Note_on_c, 1, 59, 100
3, 493080, Note_on_c, 1, 59, 0
3, 493080, Note_on_c, 1, 57, 100
3, 493200, Note_on_c, 1, 57, 0
3, 493200, Note_on_c, 1, 55, 100
3, 493320, Note_on_c, 1, 55, 0
3, 493320, Note_on_c, 1, 54, 100
3, 493440, Note_on_c, 1, 54, 0
3, 493440, Note_on_c, 1, 55, 100
3, 493680, Note_on_c, 1, 55, 0
3, 493680, Note_on_c, 1, 67, 100
3, 494400, Note_on_c, 1, 67, 0
3, 494400, Note_on_c, 1, 66, 100
3, 494520, Note_on_c, 1, 66, 0
3, 494520, Note_on_c, 1, 64, 100
3, 494640, Note_on_c, 1, 64, 0
3, 494640, Note_on_c, 1, 62, 100
3, 494760, Note_on_c, 1, 62, 0
3, 494760, Note_on_c, 1, 60, 100
3, 494880, Note_on_c, 1, 60, 0
3, 494880, Note_on_c, 1, 59, 100
3, 495000, Note_on_c, 1, 59, 0
3, 495000, Note_on_c, 1, 62, 100
3, 495120, Note_on_c, 1, 62, 0
3, 495120, Note_on_c, 1, 67, 100
3, 495240, Note_on_c, 1, 67, 0
3, 495240, Note_on_c, 1, 69, 100
3, 495360, Note_on_c, 1, 69, 0
3, 495360, Note_on_c, 1, 70, 100
3, 495840, Note_on_c, 1, 70, 0
3, 495840, Note_on_c, 1, 69, 100
3, 495960, Note_on_c, 1, 69, 0
3, 495960, Note_on_c, 1, 67, 100
3, 496080, Note_on_c, 1, 67, 0
3, 496080, Note_on_c, 1, 66, 100
3, 496200, Note_on_c, 1, 66, 0
3, 496200, Note_on_c, 1, 64, 100
3, 496320, Note_on_c, 1, 64, 0
3, 496320, Note_on_c, 1, 62, 100
3, 497160, Note_on_c, 1, 62, 0
3, 497160, Note_on_c, 1, 61, 100
3, 497280, Note_on_c, 1, 61, 0
3, 497280, Note_on_c, 1, 59, 100
3, 497400, Note_on_c, 1, 59, 0
3, 497400, Note_on_c, 1, 62, 100
3, 497520, Note_on_c, 1, 62, 0
3, 497520, Note_on_c, 1, 61, 100
3, 497640, Note_on_c, 1, 61, 0
3, 497640, Note_on_c, 1, 59, 100
3, 497760, Note_on_c, 1, 59, 0
3, 497760, Note_on_c, 1, 61, 100
3, 497880, Note_on_c, 1, 61, 0
3, 497880, Note_on_c, 1, 59, 100
3, 498000, Note_on_c, 1, 59, 0
3, 498000, Note_on_c, 1, 57, 100
3, 498120, Note_on_c, 1, 57, 0
3, 498120, Note_on_c, 1, 55, 100
3, 498240, Note_on_c, 1, 55, 0
3, 498240, Note_on_c, 1, 54, 100
3, 498360, Note_on_c, 1, 54, 0
3, 498360, Note_on_c, 1, 52, 100
3, 498480, Note_on_c, 1, 52, 0
3, 498480, Note_on_c, 1, 54, 100
3, 499200, Note_on_c, 1, 54, 0
3, 499200, Note_on_c, 1, 81, 100
3, 500160, Note_on_c, 1, 81, 0
3, 500160, Note_on_c, 1, 79, 100
3, 500280, Note_on_c, 1, 79, 0
3, 500280, Note_on_c, 1, 78, 100
3, 500400, Note_on_c, 1, 78, 0
3, 500400, Note_on_c, 1, 76, 100
3, 500520, Note_on_c, 1, 76, 0
3, 500520, Note_on_c, 1, 74, 100
3, 500640, Note_on_c, 1, 74, 0
3, 500640, Note_on_c, 1, 73, 100
3, 500880, Note_on_c, 1, 73, 0
3, 500880, Note_on_c, 1, 72, 100
3, 501600, Note_on_c, 1, 72, 0
3, 501600, Note_on_c, 1, 71, 100
3, 501720, Note_on_c, 1, 71, 0
3, 501720, Note_on_c, 1, 69, 100
3, 501840, Note_on_c, 1, 69, 0
3, 501840, Note_on_c, 1, 68, 100
3, 501960, Note_on_c, 1, 68, 0
3, 501960, Note_on_c, 1, 66, 100
3, 502080, Note_on_c, 1, 66, 0
3, 502080, Note_on_c, 1, 64, 100
3, 502920, Note_on_c, 1, 64, 0
3, 502920, Note_on_c, 1, 63, 100
3, 503040, Note_on_c, 1, 63, 0
3, 503040, Note_on_c, 1, 61, 100
3, 503160, Note_on_c, 1, 61, 0
3, 503160, Note_on_c, 1, 64, 100
3, 503280, Note_on_c, 1, 64, 0
3, 503280, Note_on_c, 1, 63, 100
3, 503400, Note_on_c, 1, 63, 0
3, 503400, Note_on_c, 1, 61, 100
3, 503520, Note_on_c, 1, 61, 0
3, 503520, Note_on_c, 1, 63, 100
3, 503640, Note_on_c, 1, 63, 0
3, 503640, Note_on_c, 1, 61, 100
3, 503760, Note_on_c, 1, 61, 0
3, 503760, Note_on_c, 1, 59, 100
3, 503880, Note_on_c, 1, 59, 0
3, 503880, Note_on_c, 1, 57, 100
3, 504000, Note_on_c, 1, 57, 0
3, 504000, Note_on_c, 1, 55, 100
3, 504120, Note_on_c, 1, 55, 0
3, 504120, Note_on_c, 1, 54, 100
3, 504240, Note_on_c, 1, 54, 0
3, 504240, Note_on_c, 1, 55, 100
3, 504480, Note_on_c, 1, 55, 0
3, 504960, Note_on_c, 1, 60, 100
3, 505800, Note_on_c, 1, 60, 0
3, 505800, Note_on_c, 1, 57, 100
3, 505920, Note_on_c, 1, 57, 0
3, 505920, Note_on_c, 1, 59, 100
3, 506040, Note_on_c, 1, 59, 0
3, 506040, Note_on_c, 1, 55, 100
3, 506160, Note_on_c, 1, 55, 0
3, 506160, Note_on_c, 1, 59, 100
3, 506280, Note_on_c, 1, 59, 0
3, 506280, Note_on_c, 1, 62, 100
3, 506400, Note_on_c, 1, 62, 0
3, 506400, Note_on_c, 1, 64, 100
3, 507240, Note_on_c, 1, 64, 0
3, 507240, Note_on_c, 1, 61, 100
3, 507360, Note_on_c, 1, 61, 0
3, 507360, Note_on_c, 1, 62, 100
3, 507480, Note_on_c, 1, 62, 0
3, 507480, Note_on_c, 1, 59, 100
3, 507600, Note_on_c, 1, 59, 0
3, 507600, Note_on_c, 1, 62, 100
3, 507720, Note_on_c, 1, 62, 0
3, 507720, Note_on_c, 1, 66, 100
3, 507840, Note_on_c, 1, 66, 0
3, 507840, Note_on_c, 1, 67, 100
3, 508680, Note_on_c, 1, 67, 0
3, 508680, Note_on_c, 1, 66, 100
3, 508800, Note_on_c, 1, 66, 0
3, 508800, Note_on_c, 1, 64, 100
3, 508920, Note_on_c, 1, 64, 0
3, 508920, Note_on_c, 1, 67, 100
3, 509040, Note_on_c, 1, 67, 0
3, 509040, Note_on_c, 1, 66, 100
3, 509160, Note_on_c, 1, 66, 0
3, 509160, Note_on_c, 1, 64, 100
3, 509280, Note_on_c, 1, 64, 0
3, 509280, Note_on_c, 1, 66, 100
3, 509400, Note_on_c, 1, 66, 0
3, 509400, Note_on_c, 1, 64, 100
3, 509520, Note_on_c, 1, 64, 0
3, 509520, Note_on_c, 1, 62, 100
3, 509640, Note_on_c, 1, 62, 0
3, 509640, Note_on_c, 1, 60, 100
3, 509760, Note_on_c, 1, 60, 0
3, 509760, Note_on_c, 1, 59, 100
3, 509880, Note_on_c, 1, 59, 0
3, 509880, Note_on_c, 1, 57, 100
3, 510000, Note_on_c, 1, 57, 0
3, 510000, Note_on_c, 1, 55, 100
3, 510240, Note_on_c, 1, 55, 0
3, 510720, Note_on_c, 1, 81, 100
3, 511680, Note_on_c, 1, 81, 0
3, 511680, Note_on_c, 1, 79, 100
3, 511800, Note_on_c, 1, 79, 0
3, 511800, Note_on_c, 1, 78, 100
3, 511920, Note_on_c, 1, 78, 0
3, 511920, Note_on_c, 1, 76, 100
3, 512040, Note_on_c, 1, 76, 0
3, 512040, Note_on_c, 1, 74, 100
3, 512160, Note_on_c, 1, 74, 0
3, 512160, Note_on_c, 1, 73, 100
3, 512400, Note_on_c, 1, 73, 0
3, 512400, Note_on_c, 1, 72, 100
3, 513120, Note_on_c, 1, 72, 0
3, 513120, Note_on_c, 1, 71, 100
3, 513240, Note_on_c, 1, 71, 0
3, 513240, Note_on_c, 1, 69, 100
3, 513360, Note_on_c, 1, 69, 0
3, 513360, Note_on_c, 1, 68, 100
3, 513480, Note_on_c, 1, 68, 0
3, 513480, Note_on_c, 1, 66, 100
3, 513600, Note_on_c, 1, 66, 0
3, 513600, Note_on_c, 1, 64, 100
3, 514440, Note_on_c, 1, 64, 0
3, 514440, Note_on_c, 1, 63, 100
3, 514560, Note_on_c, 1, 63, 0
3, 514560, Note_on_c, 1, 61, 100
3, 514680, Note_on_c, 1, 61, 0
3, 514680, Note_on_c, 1, 64, 100
3, 514800, Note_on_c, 1, 64, 0
3, 514800, Note_on_c, 1, 63, 100
3, 514920, Note_on_c, 1, 63, 0
3, 514920, Note_on_c, 1, 61, 100
3, 515040, Note_on_c, 1, 61, 0
3, 515040, Note_on_c, 1, 63, 100
3, 515160, Note_on_c, 1, 63, 0
3, 515160, Note_on_c, 1, 61, 100
3, 515280, Note_on_c, 1, 61, 0
3, 515280, Note_on_c, 1, 59, 100
3, 515400, Note_on_c, 1, 59, 0
3, 515400, Note_on_c, 1, 57, 100
3, 515520, Note_on_c, 1, 57, 0
3, 515520, Note_on_c, 1, 55, 100
3, 515640, Note_on_c, 1, 55, 0
3, 515640, Note_on_c, 1, 54, 100
3, 515760, Note_on_c, 1, 54, 0
3, 515760, Note_on_c, 1, 55, 100
3, 516000, Note_on_c, 1, 55, 0
3, 516480, Note_on_c, 1, 60, 100
3, 517320, Note_on_c, 1, 60, 0
3, 517320, Note_on_c, 1, 57, 100
3, 517440, Note_on_c, 1, 57, 0
3, 517440, Note_on_c, 1, 59, 100
3, 517560, Note_on_c, 1, 59, 0
3, 517560, Note_on_c, 1, 55, 100
3, 517680, Note_on_c, 1, 55, 0
3, 517680, Note_on_c, 1, 59, 100
3, 517800, Note_on_c, 1, 59, 0
3, 517800, Note_on_c, 1, 62, 100
3, 517920, Note_on_c, 1, 62, 0
3, 517920, Note_on_c, 1, 64, 100
3, 518760, Note_on_c, 1, 64, 0
3, 518760, Note_on_c, 1, 61, 100
3, 518880, Note_on_c, 1, 61, 0
3, 518880, Note_on_c, 1, 62, 100
3, 519000, Note_on_c, 1, 62, 0
3, 519000, Note_on_c, 1, 59, 100
3, 519120, Note_on_c, 1, 59, 0
3, 519120, Note_on_c, 1, 62, 100
3, 519240, Note_on_c, 1, 62, 0
3, 519240, Note_on_c, 1, 66, 100
3, 519360, Note_on_c, 1, 66, 0
3, 519360, Note_on_c, 1, 67, 100
3, 520200, Note_on_c, 1, 67, 0
3, 520200, Note_on_c, 1, 66, 100
3, 520320, Note_on_c, 1, 66, 0
3, 520320, Note_on_c, 1, 64, 100
3, 520440, Note_on_c, 1, 64, 0
3, 520440, Note_on_c, 1, 67, 100
3, 520560, Note_on_c, 1, 67, 0
3, 520560, Note_on_c, 1, 66, 100
3, 520680, Note_on_c, 1, 66, 0
3, 520680, Note_on_c, 1, 64, 100
3, 520800, Note_on_c, 1, 64, 0
3, 520800, Note_on_c, 1, 66, 100
3, 520920, Note_on_c, 1, 66, 0
3, 520920, Note_on_c, 1, 64, 100
3, 521040, Note_on_c, 1, 64, 0
3, 521040, Note_on_c, 1, 62, 100
3, 521160, Note_on_c, 1, 62, 0
3, 521160, Note_on_c, 1, 60, 100
3, 521280, Note_on_c, 1, 60, 0
3, 521280, Note_on_c, 1, 59, 100
3, 521400, Note_on_c, 1, 59, 0
3, 521400, Note_on_c, 1, 57, 100
3, 521520, Note_on_c, 1, 57, 0
3, 521520, Note_on_c, 1, 59, 100
3, 522240, Note_on_c, 1, 59, 0
3, 706560, Note_on_c, 1, 71, 100
3, 706800, Note_on_c, 1, 71, 0
3, 706800, Note_on_c, 1, 69, 100
3, 707040, Note_on_c, 1, 69, 0
3, 707040, Note_on_c, 1, 71, 100
3, 707280, Note_on_c, 1, 71, 0
3, 707280, Note_on_c, 1, 72, 100
3, 707520, Note_on_c, 1, 72, 0
3, 707520, Note_on_c, 1, 74, 100
3, 707760, Note_on_c, 1, 74, 0
3, 707760, Note_on_c, 1, 69, 100
3, 708000, Note_on_c, 1, 69, 0
3, 708000, Note_on_c, 1, 74, 100
3, 708240, Note_on_c, 1, 74, 0
3, 708240, Note_on_c, 1, 72, 100
3, 708480, Note_on_c, 1, 72, 0
3, 708480, Note_on_c, 1, 71, 100
3, 708720, Note_on_c, 1, 71, 0
3, 708720, Note_on_c, 1, 74, 100
3, 708960, Note_on_c, 1, 74, 0
3, 708960, Note_on_c, 1, 79, 100
3, 709680, Note_on_c, 1, 79, 0
3, 709680, Note_on_c, 1, 81, 100
3, 709800, Note_on_c, 1, 81, 0
3, 709800, Note_on_c, 1, 79, 100
3, 709920, Note_on_c, 1, 79, 0
3, 709920, Note_on_c, 1, 78, 100
3, 710400, Note_on_c, 1, 78, 0
3, 710400, Note_on_c, 1, 79, 100
3, 710640, Note_on_c, 1, 79, 0
3, 710640, Note_on_c, 1, 78, 100
3, 710880, Note_on_c, 1, 78, 0
3, 710880, Note_on_c, 1, 79, 100
3, 711120, Note_on_c, 1, 79, 0
3, 711120, Note_on_c, 1, 81, 100
3, 711360, Note_on_c, 1, 81, 0
3, 711360, Note_on_c, 1, 83, 100
3, 711600, Note_on_c, 1, 83, 0
3, 711600, Note_on_c, 1, 78, 100
3, 711840, Note_on_c, 1, 78, 0
3, 711840, Note_on_c, 1, 83, 100
3, 712080, Note_on_c, 1, 83, 0
3, 712080, Note_on_c, 1, 81, 100
3, 712320, Note_on_c, 1, 81, 0
3, 712320, Note_on_c, 1, 79, 100
3, 712560, Note_on_c, 1, 79, 0
3, 712560, Note_on_c, 1, 81, 100
3, 712680, Note_on_c, 1, 81, 0
3, 712680, Note_on_c, 1, 83, 100
3, 712800, Note_on_c, 1, 83, 0
3, 712800, Note_on_c, 1, 84, 100
3, 713520, Note_on_c, 1, 84, 0
3, 713520, Note_on_c, 1, 83, 100
3, 713640, Note_on_c, 1, 83, 0
3, 713640, Note_on_c, 1, 81, 100
3, 713760, Note_on_c, 1, 81, 0
3, 713760, Note_on_c, 1, 83, 100
3, 714000, Note_on_c, 1, 83, 0
3, 714000, Note_on_c, 1, 71, 100
3, 714240, Note_on_c, 1, 71, 0
3, 714240, Note_on_c, 1, 73, 100
3, 714480, Note_on_c, 1, 73, 0
3, 714480, Note_on_c, 1, 71, 100
3, 714720, Note_on_c, 1, 71, 0
3, 714720, Note_on_c, 1, 73, 100
3, 714960, Note_on_c, 1, 73, 0
3, 714960, Note_on_c, 1, 75, 100
3, 715200, Note_on_c, 1, 75, 0
3, 715200, Note_on_c, 1, 76, 100
3, 715440, Note_on_c, 1, 76, 0
3, 715440, Note_on_c, 1, 71, 100
3, 715680, Note_on_c, 1, 71, 0
3, 715680, Note_on_c, 1, 76, 100
3, 715920, Note_on_c, 1, 76, 0
3, 715920, Note_on_c, 1, 74, 100
3, 716160, Note_on_c, 1, 74, 0
3, 716160, Note_on_c, 1, 72, 100
3, 716400, Note_on_c, 1, 72, 0
3, 716400, Note_on_c, 1, 74, 100
3, 716520, Note_on_c, 1, 74, 0
3, 716520, Note_on_c, 1, 76, 100
3, 716640, Note_on_c, 1, 76, 0
3, 716640, Note_on_c, 1, 77, 100
3, 717360, Note_on_c, 1, 77, 0
3, 717360, Note_on_c, 1, 76, 100
3, 717480, Note_on_c, 1, 76, 0
3, 717480, Note_on_c, 1, 74, 100
3, 717600, Note_on_c, 1, 74, 0
3, 717600, Note_on_c, 1, 76, 100
3, 717720, Note_on_c, 1, 76, 0
3, 717720, Note_on_c, 1, 78, 100
3, 717840, Note_on_c, 1, 78, 0
3, 717840, Note_on_c, 1, 79, 100
3, 718320, Note_on_c, 1, 79, 0
3, 718320, Note_on_c, 1, 78, 100
3, 718800, Note_on_c, 1, 78, 0
3, 718800, Note_on_c, 1, 76, 100
3, 719040, Note_on_c, 1, 76, 0
3, 719040, Note_on_c, 1, 78, 100
3, 719280, Note_on_c, 1, 78, 0
3, 719280, Note_on_c, 1, 79, 100
3, 719520, Note_on_c, 1, 79, 0
3, 719520, Note_on_c, 1, 81, 100
3, 719760, Note_on_c, 1, 81, 0
3, 719760, Note_on_c, 1, 79, 100
3, 720000, Note_on_c, 1, 79, 0
3, 720000, Note_on_c, 1, 78, 100
3, 720480, Note_on_c, 1, 78, 0
3, 720480, Note_on_c, 1, 76, 100
3, 720960, Note_on_c, 1, 76, 0
3, 720960, Note_on_c, 1, 74, 100
3, 721920, Note_on_c, 1, 74, 0
3, 721920, Note_on_c, 1, 71, 100
3, 722160, Note_on_c, 1, 71, 0
3, 722160, Note_on_c, 1, 69, 100
3, 722400, Note_on_c, 1, 69, 0
3, 722400, Note_on_c, 1, 71, 100
3, 722640, Note_on_c, 1, 71, 0
3, 722640, Note_on_c, 1, 72, 100
3, 722880, Note_on_c, 1, 72, 0
3, 722880, Note_on_c, 1, 74, 100
3, 723120, Note_on_c, 1, 74, 0
3, 723120, Note_on_c, 1, 69, 100
3, 723360, Note_on_c, 1, 69, 0
3, 723360, Note_on_c, 1, 74, 100
3, 723600, Note_on_c, 1, 74, 0
3, 723600, Note_on_c, 1, 72, 100
3, 723840, Note_on_c, 1, 72, 0
3, 723840, Note_on_c, 1, 71, 100
3, 724080, Note_on_c, 1, 71, 0
3, 724080, Note_on_c, 1, 74, 100
3, 724320, Note_on_c, 1, 74, 0
3, 724320, Note_on_c, 1, 79, 100
3, 725040, Note_on_c, 1, 79, 0
3, 725040, Note_on_c, 1, 81, 100
3, 725160, Note_on_c, 1, 81, 0
3, 725160, Note_on_c, 1, 79, 100
3, 725280, Note_on_c, 1, 79, 0
3, 725280, Note_on_c, 1, 78, 100
3, 725760, Note_on_c, 1, 78, 0
3, 725760, Note_on_c, 1, 79, 100
3, 726000, Note_on_c, 1, 79, 0
3, 726000, Note_on_c, 1, 78, 100
3, 726240, Note_on_c, 1, 78, 0
3, 726240, Note_on_c, 1, 79, 100
3, 726480, Note_on_c, 1, 79, 0
3, 726480, Note_on_c, 1, 81, 100
3, 726720, Note_on_c, 1, 81, 0
3, 726720, Note_on_c, 1, 83, 100
3, 726960, Note_on_c, 1, 83, 0
3, 726960, Note_on_c, 1, 78, 100
3, 727200, Note_on_c, 1, 78, 0
3, 727200, Note_on_c, 1, 83, 100
3, 727440, Note_on_c, 1, 83, 0
3, 727440, Note_on_c, 1, 81, 100
3, 727680, Note_on_c, 1, 81, 0
3, 727680, Note_on_c, 1, 79, 100
3, 727920, Note_on_c, 1, 79, 0
3, 727920, Note_on_c, 1, 81, 100
3, 728040, Note_on_c, 1, 81, 0
3, 728040, Note_on_c, 1, 83, 100
3, 728160, Note_on_c, 1, 83, 0
3, 728160, Note_on_c, 1, 84, 100
3, 728880, Note_on_c, 1, 84, 0
3, 728880, Note_on_c, 1, 83, 100
3, 729000, Note_on_c, 1, 83, 0
3, 729000, Note_on_c, 1, 81, 100
3, 729120, Note_on_c, 1, 81, 0
3, 729120, Note_on_c, 1, 83, 100
3, 729360, Note_on_c, 1, 83, 0
3, 729360, Note_on_c, 1, 71, 100
3, 729600, Note_on_c, 1, 71, 0
3, 729600, Note_on_c, 1, 73, 100
3, 729840, Note_on_c, 1, 73, 0
3, 729840, Note_on_c, 1, 71, 100
3, 730080, Note_on_c, 1, 71, 0
3, 730080, Note_on_c, 1, 73, 100
3, 730320, Note_on_c, 1, 73, 0
3, 730320, Note_on_c, 1, 75, 100
3, 730560, Note_on_c, 1, 75, 0
3, 730560, Note_on_c, 1, 76, 100
3, 730800, Note_on_c, 1, 76, 0
3, 730800, Note_on_c, 1, 71, 100
3, 731040, Note_on_c, 1, 71, 0
3, 731040, Note_on_c, 1, 76, 100
3, 731280, Note_on_c, 1, 76, 0
3, 731280, Note_on_c, 1, 74, 100
3, 731520, Note_on_c, 1, 74, 0
3, 731520, Note_on_c, 1, 72, 100
3, 731760, Note_on_c, 1, 72, 0
3, 731760, Note_on_c, 1, 74, 100
3, 731880, Note_on_c, 1, 74, 0
3, 731880, Note_on_c, 1, 76, 100
3, 732000, Note_on_c, 1, 76, 0
3, 732000, Note_on_c, 1, 77, 100
3, 732720, Note_on_c, 1, 77, 0
3, 732720, Note_on_c, 1, 76, 100
3, 732840, Note_on_c, 1, 76, 0
3, 732840, Note_on_c, 1, 74, 100
3, 732960, Note_on_c, 1, 74, 0
3, 732960, Note_on_c, 1, 76, 100
3, 733080, Note_on_c, 1, 76, 0
3, 733080, Note_on_c, 1, 78, 100
3, 733200, Note_on_c, 1, 78, 0
3, 733200, Note_on_c, 1, 79, 100
3, 733680, Note_on_c, 1, 79, 0
3, 733680, Note_on_c, 1, 78, 100
3, 734160, Note_on_c, 1, 78, 0
3, 734160, Note_on_c, 1, 76, 100
3, 734400, Note_on_c, 1, 76, 0
3, 734400, Note_on_c, 1, 78, 100
3, 734640, Note_on_c, 1, 78, 0
3, 734640, Note_on_c, 1, 79, 100
3, 734880, Note_on_c, 1, 79, 0
3, 734880, Note_on_c, 1, 81, 100
3, 735120, Note_on_c, 1, 81, 0
3, 735120, Note_on_c, 1, 79, 100
3, 735360, Note_on_c, 1, 79, 0
3, 735360, Note_on_c, 1, 78, 100
3, 735840, Note_on_c, 1, 78, 0
3, 735840, Note_on_c, 1, 76, 100
3, 736320, Note_on_c, 1, 76, 0
3, 736320, Note_on_c, 1, 74, 100
3, 737280, Note_on_c, 1, 74, 0
3, 737280, Note_on_c, 1, 78, 100
3, 737520, Note_on_c, 1, 78, 0
3, 737520, Note_on_c, 1, 74, 100
3, 737760, Note_on_c, 1, 74, 0
3, 737760, Note_on_c, 1, 76, 100
3, 738000, Note_on_c, 1, 76, 0
3, 738000, Note_on_c, 1, 78, 100
3, 738240, Note_on_c, 1, 78, 0
3, 738240, Note_on_c, 1, 79, 100
3, 738480, Note_on_c, 1, 79, 0
3, 738480, Note_on_c, 1, 74, 100
3, 738720, Note_on_c, 1, 74, 0
3, 738720, Note_on_c, 1, 79, 100
3, 738960, Note_on_c, 1, 79, 0
3, 738960, Note_on_c, 1, 81, 100
3, 739200, Note_on_c, 1, 81, 0
3, 739200, Note_on_c, 1, 83, 100
3, 739440, Note_on_c, 1, 83, 0
3, 739440, Note_on_c, 1, 76, 100
3, 739680, Note_on_c, 1, 76, 0
3, 739680, Note_on_c, 1, 81, 100
3, 740400, Note_on_c, 1, 81, 0
3, 740400, Note_on_c, 1, 79, 100
3, 740520, Note_on_c, 1, 79, 0
3, 740520, Note_on_c, 1, 78, 100
3, 740640, Note_on_c, 1, 78, 0
3, 740640, Note_on_c, 1, 79, 100
3, 740880, Note_on_c, 1, 79, 0
3, 741360, Note_on_c, 1, 76, 100
3, 741840, Note_on_c, 1, 76, 0
3, 741840, Note_on_c, 1, 74, 100
3, 741960, Note_on_c, 1, 74, 0
3, 741960, Note_on_c, 1, 72, 100
3, 742080, Note_on_c, 1, 72, 0
3, 742080, Note_on_c, 1, 71, 100
3, 742200, Note_on_c, 1, 71, 0
3, 742200, Note_on_c, 1, 69, 100
3, 742320, Note_on_c, 1, 69, 0
3, 742320, Note_on_c, 1, 67, 100
3, 742440, Note_on_c, 1, 67, 0
3, 742440, Note_on_c, 1, 66, 100
3, 742560, Note_on_c, 1, 66, 0
3, 742560, Note_on_c, 1, 67, 100
3, 742680, Note_on_c, 1, 67, 0
3, 742680, Note_on_c, 1, 69, 100
3, 742800, Note_on_c, 1, 69, 0
3, 742800, Note_on_c, 1, 71, 100
3, 742920, Note_on_c, 1, 71, 0
3, 742920, Note_on_c, 1, 67, 100
3, 743040, Note_on_c, 1, 67, 0
3, 743040, Note_on_c, 1, 66, 100
3, 743160, Note_on_c, 1, 66, 0
3, 743160, Note_on_c, 1, 64, 100
3, 743400, Note_on_c, 1, 64, 0
3, 743400, Note_on_c, 1, 66, 100
3, 743520, Note_on_c, 1, 66, 0
3, 743520, Note_on_c, 1, 64, 100
3, 743600, Note_on_c, 1, 64, 0
3, 743600, Note_on_c, 1, 63, 100
3, 743680, Note_on_c, 1, 63, 0
3, 743680, Note_on_c, 1, 64, 100
3, 743760, Note_on_c, 1, 64, 0
3, 743760, Note_on_c, 1, 63, 100
3, 744000, Note_on_c, 1, 63, 0
3, 744000, Note_on_c, 1, 64, 100
3, 744240, Note_on_c, 1, 64, 0
3, 744480, Note_on_c, 1, 71, 100
3, 745200, Note_on_c, 1, 71, 0
3, 745200, Note_on_c, 1, 69, 100
3, 745680, Note_on_c, 1, 69, 0
3, 745680, Note_on_c, 1, 68, 100
3, 745920, Note_on_c, 1, 68, 0
3, 745920, Note_on_c, 1, 69, 100
3, 746160, Note_on_c, 1, 69, 0
3, 746160, Note_on_c, 1, 72, 100
3, 746280, Note_on_c, 1, 72, 0
3, 746280, Note_on_c, 1, 71, 100
3, 746400, Note_on_c, 1, 71, 0
3, 746400, Note_on_c, 1, 72, 100
3, 746520, Note_on_c, 1, 72, 0
3, 746520, Note_on_c, 1, 76, 100
3, 746640, Note_on_c, 1, 76, 0
3, 746640, Note_on_c, 1, 74, 100
3, 746760, Note_on_c, 1, 74, 0
3, 746760, Note_on_c, 1, 72, 100
3, 746880, Note_on_c, 1, 72, 0
3, 746880, Note_on_c, 1, 71, 100
3, 747360, Note_on_c, 1, 71, 0
3, 747360, Note_on_c, 1, 73, 100
3, 747840, Note_on_c, 1, 73, 0
3, 747840, Note_on_c, 1, 74, 100
3, 749040, Note_on_c, 1, 74, 0
3, 749040, Note_on_c, 1, 79, 100
3, 749280, Note_on_c, 1, 79, 0
3, 749280, Note_on_c, 1, 78, 100
3, 749520, Note_on_c, 1, 78, 0
3, 749520, Note_on_c, 1, 76, 100
3, 749760, Note_on_c, 1, 76, 0
3, 749760, Note_on_c, 1, 74, 100
3, 750000, Note_on_c, 1, 74, 0
3, 750000, Note_on_c, 1, 79, 100
3, 750120, Note_on_c, 1, 79, 0
3, 750120, Note_on_c, 1, 78, 100
3, 750240, Note_on_c, 1, 78, 0
3, 750240, Note_on_c, 1, 79, 100
3, 750360, Note_on_c, 1, 79, 0
3, 750360, Note_on_c, 1, 81, 100
3, 750480, Note_on_c, 1, 81, 0
3, 750480, Note_on_c, 1, 83, 100
3, 750720, Note_on_c, 1, 83, 0
3, 750720, Note_on_c, 1, 76, 100
3, 750960, Note_on_c, 1, 76, 0
3, 750960, Note_on_c, 1, 81, 100
3, 751200, Note_on_c, 1, 81, 0
3, 751200, Note_on_c, 1, 79, 100
3, 751240, Note_on_c, 1, 79, 0
3, 751240, Note_on_c, 1, 78, 100
3, 751280, Note_on_c, 1, 78, 0
3, 751280, Note_on_c, 1, 79, 100
3, 751320, Note_on_c, 1, 79, 0
3, 751320, Note_on_c, 1, 78, 100
3, 751560, Note_on_c, 1, 78, 0
3, 751560, Note_on_c, 1, 79, 100
3, 751680, Note_on_c, 1, 79, 0
3, 751680, Note_on_c, 1, 79, 100
3, 752640, Note_on_c, 1, 79, 0
3, 752640, Note_on_c, 1, 78, 100
3, 752880, Note_on_c, 1, 78, 0
3, 752880, Note_on_c, 1, 74, 100
3, 753120, Note_on_c, 1, 74, 0
3, 753120, Note_on_c, 1, 76, 100
3, 753360, Note_on_c, 1, 76, 0
3, 753360, Note_on_c, 1, 78, 100
3, 753600, Note_on_c, 1, 78, 0
3, 753600, Note_on_c, 1, 79, 100
3, 753840, Note_on_c, 1, 79, 0
3, 753840, Note_on_c, 1, 74, 100
3, 754080, Note_on_c, 1, 74, 0
3, 754080, Note_on_c, 1, 79, 100
3, 754320, Note_on_c, 1, 79, 0
3, 754320, Note_on_c, 1, 81, 100
3, 754560, Note_on_c, 1, 81, 0
3, 754560, Note_on_c, 1, 83, 100
3, 754800, Note_on_c, 1, 83, 0
3, 754800, Note_on_c, 1, 76, 100
3, 755040, Note_on_c, 1, 76, 0
3, 755040, Note_on_c, 1, 81, 100
3, 755760, Note_on_c, 1, 81, 0
3, 755760, Note_on_c, 1, 79, 100
3, 755880, Note_on_c, 1, 79, 0
3, 755880, Note_on_c, 1, 78, 100
3, 756000, Note_on_c, 1, 78, 0
3, 756000, Note_on_c, 1, 79, 100
3, 756240, Note_on_c, 1, 79, 0
3, 756720, Note_on_c, 1, 76, 100
3, 757200, Note_on_c, 1, 76, 0
3, 757200, Note_on_c, 1, 74, 100
3, 757320, Note_on_c, 1, 74, 0
3, 757320, Note_on_c, 1, 72, 100
3, 757440, Note_on_c, 1, 72, 0
3, 757440, Note_on_c, 1, 71, 100
3, 757560, Note_on_c, 1, 71, 0
3, 757560, Note_on_c, 1, 69, 100
3, 757680, Note_on_c, 1, 69, 0
3, 757680, Note_on_c, 1, 67, 100
3, 757800, Note_on_c, 1, 67, 0
3, 757800, Note_on_c, 1, 66, 100
3, 757920, Note_on_c, 1, 66, 0
3, 757920, Note_on_c, 1, 67, 100
3, 758040, Note_on_c, 1, 67, 0
3, 758040, Note_on_c, 1, 69, 100
3, 758160, Note_on_c, 1, 69, 0
3, 758160, Note_on_c, 1, 71, 100
3, 758280, Note_on_c, 1, 71, 0
3, 758280, Note_on_c, 1, 67, 100
3, 758400, Note_on_c, 1, 67, 0
3, 758400, Note_on_c, 1, 66, 100
3, 758520, Note_on_c, 1, 66, 0
3, 758520, Note_on_c, 1, 64, 100
3, 758760, Note_on_c, 1, 64, 0
3, 758760, Note_on_c, 1, 66, 100
3, 758880, Note_on_c, 1, 66, 0
3, 758880, Note_on_c, 1, 64, 100
3, 758960, Note_on_c, 1, 64, 0
3, 758960, Note_on_c, 1, 63, 100
3, 759040, Note_on_c, 1, 63, 0
3, 759040, Note_on_c, 1, 64, 100
3, 759120, Note_on_c, 1, 64, 0
3, 759120, Note_on_c, 1, 63, 100
3, 759360, Note_on_c, 1, 63, 0
3, 759360, Note_on_c, 1, 64, 100
3, 759600, Note_on_c, 1, 64, 0
3, 759840, Note_on_c, 1, 71, 100
3, 760560, Note_on_c, 1, 71, 0
3, 760560, Note_on_c, 1, 69, 100
3, 761040, Note_on_c, 1, 69, 0
3, 761040, Note_on_c, 1, 68, 100
3, 761280, Note_on_c, 1, 68, 0
3, 761280, Note_on_c, 1, 69, 100
3, 761520, Note_on_c, 1, 69, 0
3, 761520, Note_on_c, 1, 72, 100
3, 761640, Note_on_c, 1, 72, 0
3, 761640, Note_on_c, 1, 71, 100
3, 761760, Note_on_c, 1, 71, 0
3, 761760, Note_on_c, 1, 72, 100
3, 761880, Note_on_c, 1, 72, 0
3, 761880, Note_on_c, 1, 76, 100
3, 762000, Note_on_c, 1, 76, 0
3, 762000, Note_on_c, 1, 74, 100
3, 762120, Note_on_c, 1, 74, 0
3, 762120, Note_on_c, 1, 72, 100
3, 762240, Note_on_c, 1, 72, 0
3, 762240, Note_on_c, 1, 71, 100
3, 762720, Note_on_c, 1, 71, 0
3, 762720, Note_on_c, 1, 73, 100
3, 763200, Note_on_c, 1, 73, 0
3, 763200, Note_on_c, 1, 74, 100
3, 764400, Note_on_c, 1, 74, 0
3, 764400, Note_on_c, 1, 79, 100
3, 764640, Note_on_c, 1, 79, 0
3, 764640, Note_on_c, 1, 78, 100
3, 764880, Note_on_c, 1, 78, 0
3, 764880, Note_on_c, 1, 76, 100
3, 765120, Note_on_c, 1, 76, 0
3, 765120, Note_on_c, 1, 74, 100
3, 765360, Note_on_c, 1, 74, 0
3, 765360, Note_on_c, 1, 79, 100
3, 765480, Note_on_c, 1, 79, 0
3, 765480, Note_on_c, 1, 78, 100
3, 765600, Note_on_c, 1, 78, 0
3, 765600, Note_on_c, 1, 79, 100
3, 765720, Note_on_c, 1, 79, 0
3, 765720, Note_on_c, 1, 81, 100
3, 765840, Note_on_c, 1, 81, 0
3, 765840, Note_on_c, 1, 83, 100
3, 766080, Note_on_c, 1, 83, 0
3, 766080, Note_on_c, 1, 76, 100
3, 766320, Note_on_c, 1, 76, 0
3, 766320, Note_on_c, 1, 81, 100
3, 766560, Note_on_c, 1, 81, 0
3, 766560, Note_on_c, 1, 79, 100
3, 766600, Note_on_c, 1, 79, 0
3, 766600, Note_on_c, 1, 78, 100
3, 766640, Note_on_c, 1, 78, 0
3, 766640, Note_on_c, 1, 79, 100
3, 766680, Note_on_c, 1, 79, 0
3, 766680, Note_on_c, 1, 78, 100
3, 766920, Note_on_c, 1, 78, 0
3, 766920, Note_on_c, 1, 79, 100
3, 767040, Note_on_c, 1, 79, 0
3, 767040, Note_on_c, 1, 79, 100
3, 768000, Note_on_c, 1, 79, 0
3, 983280, Note_on_c, 1, 67, 100
3, 983400, Note_on_c, 1, 67, 0
3, 983400, Note_on_c, 1, 66, 100
3, 983520, Note_on_c, 1, 66, 0
3, 983520, Note_on_c, 1, 67, 100
3, 983760, Note_on_c, 1, 67, 0
3, 983760, Note_on_c, 1, 69, 100
3, 983880, Note_on_c, 1, 69, 0
3, 983880, Note_on_c, 1, 71, 100
3, 984000, Note_on_c, 1, 71, 0
3, 984000, Note_on_c, 1, 72, 100
3, 984120, Note_on_c, 1, 72, 0
3, 984120, Note_on_c, 1, 71, 100
3, 984240, Note_on_c, 1, 71, 0
3, 984240, Note_on_c, 1, 69, 100
3, 984360, Note_on_c, 1, 69, 0
3, 984360, Note_on_c, 1, 67, 100
3, 984480, Note_on_c, 1, 67, 0
3, 984480, Note_on_c, 1, 74, 100
3, 984600, Note_on_c, 1, 74, 0
3, 984600, Note_on_c, 1, 69, 100
3, 984720, Note_on_c, 1, 69, 0
3, 984720, Note_on_c, 1, 71, 100
3, 984840, Note_on_c, 1, 71, 0
3, 984840, Note_on_c, 1, 73, 100
3, 984960, Note_on_c, 1, 73, 0
3, 984960, Note_on_c, 1, 74, 100
3, 985080, Note_on_c, 1, 74, 0
3, 985080, Note_on_c, 1, 76, 100
3, 985200, Note_on_c, 1, 76, 0
3, 985200, Note_on_c, 1, 78, 100
3, 985320, Note_on_c, 1, 78, 0
3, 985320, Note_on_c, 1, 79, 100
3, 985440, Note_on_c, 1, 79, 0
3, 985440, Note_on_c, 1, 81, 100
3, 985680, Note_on_c, 1, 81, 0
3, 986160, Note_on_c, 1, 79, 100
3, 986280, Note_on_c, 1, 79, 0
3, 986280, Note_on_c, 1, 78, 100
3, 986400, Note_on_c, 1, 78, 0
3, 986400, Note_on_c, 1, 76, 100
3, 986520, Note_on_c, 1, 76, 0
3, 986520, Note_on_c, 1, 74, 100
3, 986640, Note_on_c, 1, 74, 0
3, 986640, Note_on_c, 1, 73, 100
3, 986760, Note_on_c, 1, 73, 0
3, 986760, Note_on_c, 1, 71, 100
3, 986880, Note_on_c, 1, 71, 0
3, 986880, Note_on_c, 1, 69, 100
3, 987000, Note_on_c, 1, 69, 0
3, 987000, Note_on_c, 1, 67, 100
3, 987120, Note_on_c, 1, 67, 0
3, 987120, Note_on_c, 1, 66, 100
3, 987240, Note_on_c, 1, 66, 0
3, 987240, Note_on_c, 1, 67, 100
3, 987360, Note_on_c, 1, 67, 0
3, 987360, Note_on_c, 1, 67, 100
3, 987600, Note_on_c, 1, 67, 0
3, 987600, Note_on_c, 1, 67, 100
3, 987630, Note_on_c, 1, 67, 0
3, 987630, Note_on_c, 1, 66, 100
3, 987660, Note_on_c, 1, 66, 0
3, 987660, Note_on_c, 1, 67, 100
3, 987690, Note_on_c, 1, 67, 0
3, 987690, Note_on_c, 1, 66, 100
3, 987720, Note_on_c, 1, 66, 0
3, 987720, Note_on_c, 1, 64, 100
3, 987840, Note_on_c, 1, 64, 0
3, 987840, Note_on_c, 1, 62, 100
3, 988080, Note_on_c, 1, 62, 0
3, 988920, Note_on_c, 1, 74, 100
3, 989400, Note_on_c, 1, 74, 0
3, 989400, Note_on_c, 1, 71, 100
3, 989520, Note_on_c, 1, 71, 0
3, 989520, Note_on_c, 1, 69, 100
3, 989640, Note_on_c, 1, 69, 0
3, 989640, Note_on_c, 1, 67, 100
3, 989760, Note_on_c, 1, 67, 0
3, 989760, Note_on_c, 1, 65, 100
3, 989880, Note_on_c, 1, 65, 0
3, 989880, Note_on_c, 1, 64, 100
3, 990000, Note_on_c, 1, 64, 0
3, 990000, Note_on_c, 1, 62, 100
3, 990120, Note_on_c, 1, 62, 0
3, 990120, Note_on_c, 1, 65, 100
3, 990240, Note_on_c, 1, 65, 0
3, 990240, Note_on_c, 1, 64, 100
3, 990360, Note_on_c, 1, 64, 0
3, 990360, Note_on_c, 1, 67, 100
3, 990480, Note_on_c, 1, 67, 0
3, 990480, Note_on_c, 1, 72, 100
3, 990600, Note_on_c, 1, 72, 0
3, 990600, Note_on_c, 1, 74, 100
3, 990720, Note_on_c, 1, 74, 0
3, 990720, Note_on_c, 1, 76, 100
3, 990960, Note_on_c, 1, 76, 0
3, 990960, Note_on_c, 1, 69, 100
3, 991440, Note_on_c, 1, 69, 0
3, 991440, Note_on_c, 1, 69, 100
3, 991800, Note_on_c, 1, 69, 0
3, 991800, Note_on_c, 1, 71, 100
3, 991920, Note_on_c, 1, 71, 0
3, 991920, Note_on_c, 1, 66, 100
3, 992040, Note_on_c, 1, 66, 0
3, 992040, Note_on_c, 1, 67, 100
3, 992160, Note_on_c, 1, 67, 0
3, 992160, Note_on_c, 1, 69, 100
3, 992280, Note_on_c, 1, 69, 0
3, 992280, Note_on_c, 1, 67, 100
3, 992400, Note_on_c, 1, 67, 0
3, 992400, Note_on_c, 1, 66, 100
3, 992520, Note_on_c, 1, 66, 0
3, 992520, Note_on_c, 1, 76, 100
3, 992640, Note_on_c, 1, 76, 0
3, 992640, Note_on_c, 1, 74, 100
3, 992760, Note_on_c, 1, 74, 0
3, 992760, Note_on_c, 1, 72, 100
3, 992880, Note_on_c, 1, 72, 0
3, 992880, Note_on_c, 1, 71, 100
3, 993000, Note_on_c, 1, 71, 0
3, 993000, Note_on_c, 1, 69, 100
3, 993120, Note_on_c, 1, 69, 0
3, 993120, Note_on_c, 1, 67, 100
3, 993600, Note_on_c, 1, 67, 0
3, 994680, Note_on_c, 1, 66, 100
3, 994800, Note_on_c, 1, 66, 0
3, 994800, Note_on_c, 1, 67, 100
3, 994920, Note_on_c, 1, 67, 0
3, 994920, Note_on_c, 1, 69, 100
3, 995040, Note_on_c, 1, 69, 0
3, 995040, Note_on_c, 1, 71, 100
3, 995160, Note_on_c, 1, 71, 0
3, 995160, Note_on_c, 1, 73, 100
3, 995280, Note_on_c, 1, 73, 0
3, 995280, Note_on_c, 1, 74, 100
3, 995400, Note_on_c, 1, 74, 0
3, 995400, Note_on_c, 1, 78, 100
3, 995520, Note_on_c, 1, 78, 0
3, 995520, Note_on_c, 1, 76, 100
3, 995640, Note_on_c, 1, 76, 0
3, 995640, Note_on_c, 1, 74, 100
3, 995760, Note_on_c, 1, 74, 0
3, 995760, Note_on_c, 1, 73, 100
3, 995880, Note_on_c, 1, 73, 0
3, 995880, Note_on_c, 1, 71, 100
3, 996000, Note_on_c, 1, 71, 0
3, 996000, Note_on_c, 1, 69, 100
3, 996120, Note_on_c, 1, 69, 0
3, 996120, Note_on_c, 1, 67, 100
3, 996240, Note_on_c, 1, 67, 0
3, 996240, Note_on_c, 1, 66, 100
3, 996360, Note_on_c, 1, 66, 0
3, 996360, Note_on_c, 1, 64, 100
3, 996480, Note_on_c, 1, 64, 0
3, 996480, Note_on_c, 1, 62, 100
3, 996720, Note_on_c, 1, 62, 0
3, 997680, Note_on_c, 1, 73, 100
3, 998040, Note_on_c, 1, 73, 0
3, 998040, Note_on_c, 1, 71, 100
3, 998160, Note_on_c, 1, 71, 0
3, 998160, Note_on_c, 1, 69, 100
3, 998280, Note_on_c, 1, 69, 0
3, 998280, Note_on_c, 1, 71, 100
3, 998400, Note_on_c, 1, 71, 0
3, 998400, Note_on_c, 1, 73, 100
3, 998520, Note_on_c, 1, 73, 0
3, 998520, Note_on_c, 1, 74, 100
3, 998640, Note_on_c, 1, 74, 0
3, 998640, Note_on_c, 1, 76, 100
3, 998760, Note_on_c, 1, 76, 0
3, 998760, Note_on_c, 1, 78, 100
3, 998880, Note_on_c, 1, 78, 0
3, 998880, Note_on_c, 1, 79, 100
3, 999120, Note_on_c, 1, 79, 0
3, 999120, Note_on_c, 1, 67, 100
3, 999240, Note_on_c, 1, 67, 0
3, 999240, Note_on_c, 1, 66, 100
3, 999360, Note_on_c, 1, 66, 0
3, 999360, Note_on_c, 1, 67, 100
3, 999960, Note_on_c, 1, 67, 0
3, 999960, Note_on_c, 1, 71, 100
3, 1000080, Note_on_c, 1, 71, 0
3, 1000080, Note_on_c, 1, 69, 100
3, 1000200, Note_on_c, 1, 69, 0
3, 1000200, Note_on_c, 1, 67, 100
3, 1000320, Note_on_c, 1, 67, 0
3, 1000320, Note_on_c, 1, 66, 100
3, 1000440, Note_on_c, 1, 66, 0
3, 1000440, Note_on_c, 1, 64, 100
3, 1000560, Note_on_c, 1, 64, 0
3, 1000560, Note_on_c, 1, 66, 100
3, 1000680, Note_on_c, 1, 66, 0
3, 1000680, Note_on_c, 1, 67, 100
3, 1000800, Note_on_c, 1, 67, 0
3, 1000800, Note_on_c, 1, 66, 100
3, 1000920, Note_on_c, 1, 66, 0
3, 1000920, Note_on_c, 1, 69, 100
3, 1001040, Note_on_c, 1, 69, 0
3, 1001040, Note_on_c, 1, 67, 100
3, 1001160, Note_on_c, 1, 67, 0
3, 1001160, Note_on_c, 1, 66, 100
3, 1001280, Note_on_c, 1, 66, 0
3, 1001280, Note_on_c, 1, 64, 100
3, 1002000, Note_on_c, 1, 64, 0
3, 1002000, Note_on_c, 1, 74, 100
3, 1002240, Note_on_c, 1, 74, 0
3, 1002240, Note_on_c, 1, 73, 100
3, 1002480, Note_on_c, 1, 73, 0
3, 1002480, Note_on_c, 1, 71, 100
3, 1002720, Note_on_c, 1, 71, 0
3, 1002720, Note_on_c, 1, 69, 100
3, 1002960, Note_on_c, 1, 69, 0
3, 1002960, Note_on_c, 1, 78, 100
3, 1003200, Note_on_c, 1, 78, 0
3, 1003200, Note_on_c, 1, 67, 100
3, 1003920, Note_on_c, 1, 67, 0
3, 1003920, Note_on_c, 1, 66, 100
3, 1004160, Note_on_c, 1, 66, 0
3, 1004160, Note_on_c, 1, 64, 100
3, 1004280, Note_on_c, 1, 64, 0
3, 1004280, Note_on_c, 1, 69, 100
3, 1004400, Note_on_c, 1, 69, 0
3, 1004400, Note_on_c, 1, 67, 100
3, 1004880, Note_on_c, 1, 67, 0
3, 1004880, Note_on_c, 1, 66, 100
3, 1005000, Note_on_c, 1, 66, 0
3, 1005000, Note_on_c, 1, 64, 100
3, 1005120, Note_on_c, 1, 64, 0
3, 1005120, Note_on_c, 1, 66, 100
3, 1005240, Note_on_c, 1, 66, 0
3, 1005240, Note_on_c, 1, 74, 100
3, 1005480, Note_on_c, 1, 74, 0
3, 1005480, Note_on_c, 1, 73, 100
3, 1005600, Note_on_c, 1, 73, 0
3, 1005600, Note_on_c, 1, 74, 100
3, 1005840, Note_on_c, 1, 74, 0
3, 1006320, Note_on_c, 1, 67, 100
3, 1006440, Note_on_c, 1, 67, 0
3, 1006440, Note_on_c, 1, 66, 100
3, 1006560, Note_on_c, 1, 66, 0
3, 1006560, Note_on_c, 1, 67, 100
3, 1006800, Note_on_c, 1, 67, 0
3, 1006800, Note_on_c, 1, 69, 100
3, 1006920, Note_on_c, 1, 69, 0
3, 1006920, Note_on_c, 1, 71, 100
3, 1007040, Note_on_c, 1, 71, 0
3, 1007040, Note_on_c, 1, 72, 100
3, 1007160, Note_on_c, 1, 72, 0
3, 1007160, Note_on_c, 1, 71, 100
3, 1007280, Note_on_c, 1, 71, 0
3, 1007280, Note_on_c, 1, 69, 100
3, 1007400, Note_on_c, 1, 69, 0
3, 1007400, Note_on_c, 1, 67, 100
3, 1007520, Note_on_c, 1, 67, 0
3, 1007520, Note_on_c, 1, 74, 100
3, 1007640, Note_on_c, 1, 74, 0
3, 1007640, Note_on_c, 1, 69, 100
3, 1007760, Note_on_c, 1, 69, 0
3, 1007760, Note_on_c, 1, 71, 100
3, 1007880, Note_on_c, 1, 71, 0
3, 1007880, Note_on_c, 1, 73, 100
3, 1008000, Note_on_c, 1, 73, 0
3, 1008000, Note_on_c, 1, 74, 100
3, 1008120, Note_on_c, 1, 74, 0
3, 1008120, Note_on_c, 1, 76, 100
3, 1008240, Note_on_c, 1, 76, 0
3, 1008240, Note_on_c, 1, 78, 100
3, 1008360, Note_on_c, 1, 78, 0
3, 1008360, Note_on_c, 1, 79, 100
3, 1008480, Note_on_c, 1, 79, 0
3, 1008480, Note_on_c, 1, 81, 100
3, 1008720, Note_on_c, 1, 81, 0
3, 1009200, Note_on_c, 1, 79, 100
3, 1009320, Note_on_c, 1, 79, 0
3, 1009320, Note_on_c, 1, 78, 100
3, 1009440, Note_on_c, 1, 78, 0
3, 1009440, Note_on_c, 1, 76, 100
3, 1009560, Note_on_c, 1, 76, 0
3, 1009560, Note_on_c, 1, 74, 100
3, 1009680, Note_on_c, 1, 74, 0
3, 1009680, Note_on_c, 1, 73, 100
3, 1009800, Note_on_c, 1, 73, 0
3, 1009800, Note_on_c, 1, 71, 100
3, 1009920, Note_on_c, 1, 71, 0
3, 1009920, Note_on_c, 1, 69, 100
3, 1010040, Note_on_c, 1, 69, 0
3, 1010040, Note_on_c, 1, 67, 100
3, 1010160, Note_on_c, 1, 67, 0
3, 1010160, Note_on_c, 1, 66, 100
3, 1010280, Note_on_c, 1, 66, 0
3, 1010280, Note_on_c, 1, 67, 100
3, 1010400, Note_on_c, 1, 67, 0
3, 1010400, Note_on_c, 1, 67, 100
3, 1010640, Note_on_c, 1, 67, 0
3, 1010640, Note_on_c, 1, 67, 100
3, 1010670, Note_on_c, 1, 67, 0
3, 1010670, Note_on_c, 1, 66, 100
3, 1010700, Note_on_c, 1, 66, 0
3, 1010700, Note_on_c, 1, 67, 100
3, 1010730, Note_on_c, 1, 67, 0
3, 1010730, Note_on_c, 1, 66, 100
3, 1010760, Note_on_c, 1, 66, 0
3, 1010760, Note_on_c, 1, 64, 100
3, 1010880, Note_on_c, 1, 64, 0
3, 1010880, Note_on_c, 1, 62, 100
3, 1011120, Note_on_c, 1, 62, 0
3, 1011960, Note_on_c, 1, 74, 100
3, 1012440, Note_on_c, 1, 74, 0
3, 1012440, Note_on_c, 1, 71, 100
3, 1012560, Note_on_c, 1, 71, 0
3, 1012560, Note_on_c, 1, 69, 100
3, 1012680, Note_on_c, 1, 69, 0
3, 1012680, Note_on_c, 1, 67, 100
3, 1012800, Note_on_c, 1, 67, 0
3, 1012800, Note_on_c, 1, 65, 100
3, 1012920, Note_on_c, 1, 65, 0
3, 1012920, Note_on_c, 1, 64, 100
3, 1013040, Note_on_c, 1, 64, 0
3, 1013040, Note_on_c, 1, 62, 100
3, 1013160, Note_on_c, 1, 62, 0
3, 1013160, Note_on_c, 1, 65, 100
3, 1013280, Note_on_c, 1, 65, 0
3, 1013280, Note_on_c, 1, 64, 100
3, 1013400, Note_on_c, 1, 64, 0
3, 1013400, Note_on_c, 1, 67, 100
3, 1013520, Note_on_c, 1, 67, 0
3, 1013520, Note_on_c, 1, 72, 100
3, 1013640, Note_on_c, 1, 72, 0
3, 1013640, Note_on_c, 1, 74, 100
3, 1013760, Note_on_c, 1, 74, 0
3, 1013760, Note_on_c, 1, 76, 100
3, 1014000, Note_on_c, 1, 76, 0
3, 1014000, Note_on_c, 1, 69, 100
3, 1014480, Note_on_c, 1, 69, 0
3, 1014480, Note_on_c, 1, 69, 100
3, 1014840, Note_on_c, 1, 69, 0
3, 1014840, Note_on_c, 1, 71, 100
3, 1014960, Note_on_c, 1, 71, 0
3, 1014960, Note_on_c, 1, 66, 100
3, 1015080, Note_on_c, 1, 66, 0
3, 1015080, Note_on_c, 1, 67, 100
3, 1015200, Note_on_c, 1, 67, 0
3, 1015200, Note_on_c, 1, 69, 100
3, 1015320, Note_on_c, 1, 69, 0
3, 1015320, Note_on_c, 1, 67, 100
3, 1015440, Note_on_c, 1, 67, 0
3, 1015440, Note_on_c, 1, 66, 100
3, 1015560, Note_on_c, 1, 66, 0
3, 1015560, Note_on_c, 1, 76, 100
3, 1015680, Note_on_c, 1, 76, 0
3, 1015680, Note_on_c, 1, 74, 100
3, 1015800, Note_on_c, 1, 74, 0
3, 1015800, Note_on_c, 1, 72, 100
3, 1015920, Note_on_c, 1, 72, 0
3, 1015920, Note_on_c, 1, 71, 100
3, 1016040, Note_on_c, 1, 71, 0
3, 1016040, Note_on_c, 1, 69, 100
3, 1016160, Note_on_c, 1, 69, 0
3, 1016160, Note_on_c, 1, 67, 100
3, 1016640, Note_on_c, 1, 67, 0
3, 1017720, Note_on_c, 1, 66, 100
3, 1017840, Note_on_c, 1, 66, 0
3, 1017840, Note_on_c, 1, 67, 100
3, 1017960, Note_on_c, 1, 67, 0
3, 1017960, Note_on_c, 1, 69, 100
3, 1018080, Note_on_c, 1, 69, 0
3, 1018080, Note_on_c, 1, 71, 100
3, 1018200, Note_on_c, 1, 71, 0
3, 1018200, Note_on_c, 1, 73, 100
3, 1018320, Note_on_c, 1, 73, 0
3, 1018320, Note_on_c, 1, 74, 100
3, 1018440, Note_on_c, 1, 74, 0
3, 1018440, Note_on_c, 1, 78, 100
3, 1018560, Note_on_c, 1, 78, 0
3, 1018560, Note_on_c, 1, 76, 100
3, 1018680, Note_on_c, 1, 76, 0
3, 1018680, Note_on_c, 1, 74, 100
3, 1018800, Note_on_c, 1, 74, 0
3, 1018800, Note_on_c, 1, 73, 100
3, 1018920, Note_on_c, 1, 73, 0
3, 1018920, Note_on_c, 1, 71, 100
3, 1019040, Note_on_c, 1, 71, 0
3, 1019040, Note_on_c, 1, 69, 100
3, 1019160, Note_on_c, 1, 69, 0
3, 1019160, Note_on_c, 1, 67, 100
3, 1019280, Note_on_c, 1, 67, 0
3, 1019280, Note_on_c, 1, 66, 100
3, 1019400, Note_on_c, 1, 66, 0
3, 1019400, Note_on_c, 1, 64, 100
3, 1019520, Note_on_c, 1, 64, 0
3, 1019520, Note_on_c, 1, 62, 100
3, 1019760, Note_on_c, 1, 62, 0
3, 1020720, Note_on_c, 1, 73, 100
3, 1021080, Note_on_c, 1, 73, 0
3, 1021080, Note_on_c, 1, 71, 100
3, 1021200, Note_on_c, 1, 71, 0
3, 1021200, Note_on_c, 1, 69, 100
3, 1021320, Note_on_c, 1, 69, 0
3, 1021320, Note_on_c, 1, 71, 100
3, 1021440, Note_on_c, 1, 71, 0
3, 1021440, Note_on_c, 1, 73, 100
3, 1021560, Note_on_c, 1, 73, 0
3, 1021560, Note_on_c, 1, 74, 100
3, 1021680, Note_on_c, 1, 74, 0
3, 1021680, Note_on_c, 1, 76, 100
3, 1021800, Note_on_c, 1, 76, 0
3, 1021800, Note_on_c, 1, 78, 100
3, 1021920, Note_on_c, 1, 78, 0
3, 1021920, Note_on_c, 1, 79, 100
3, 1022160, Note_on_c, 1, 79, 0
3, 1022160, Note_on_c, 1, 67, 100
3, 1022280, Note_on_c, 1, 67, 0
3, 1022280, Note_on_c, 1, 66, 100
3, 1022400, Note_on_c, 1, 66, 0
3, 1022400, Note_on_c, 1, 67, 100
3, 1023000, Note_on_c, 1, 67, 0
3, 1023000, Note_on_c, 1, 71, 100
3, 1023120, Note_on_c, 1, 71, 0
3, 1023120, Note_on_c, 1, 69, 100
3, 1023240, Note_on_c, 1, 69, 0
3, 1023240, Note_on_c, 1, 67, 100
3, 1023360, Note_on_c, 1, 67, 0
3, 1023360, Note_on_c, 1, 66, 100
3, 1023480, Note_on_c, 1, 66, 0
3, 1023480, Note_on_c, 1, 64, 100
3, 1023600, Note_on_c, 1, 64, 0
3, 1023600, Note_on_c, 1, 66, 100
3, 1023720, Note_on_c, 1, 66, 0
3, 1023720, Note_on_c, 1, 67, 100
3, 1023840, Note_on_c, 1, 67, 0
3, 1023840, Note_on_c, 1, 66, 100
3, 1023960, Note_on_c, 1, 66, 0
3, 1023960, Note_on_c, 1, 69, 100
3, 1024080, Note_on_c, 1, 69, 0
3, 1024080, Note_on_c, 1, 67, 100
3, 1024200, Note_on_c, 1, 67, 0
3, 1024200, Note_on_c, 1, 66, 100
3, 1024320, Note_on_c, 1, 66, 0
3, 1024320, Note_on_c, 1, 64, 100
3, 1025040, Note_on_c, 1, 64, 0
3, 1025040, Note_on_c, 1, 74, 100
3, 1025280, Note_on_c, 1, 74, 0
3, 1025280, Note_on_c, 1, 73, 100
3, 1025520, Note_on_c, 1, 73, 0
3, 1025520, Note_on_c, 1, 71, 100
3, 1025760, Note_on_c, 1, 71, 0
3, 1025760, Note_on_c, 1, 69, 100
3, 1026000, Note_on_c, 1, 69, 0
3, 1026000, Note_on_c, 1, 78, 100
3, 1026240, Note_on_c, 1, 78, 0
3, 1026240, Note_on_c, 1, 67, 100
3, 1026960, Note_on_c, 1, 67, 0
3, 1026960, Note_on_c, 1, 66, 100
3, 1027200, Note_on_c, 1, 66, 0
3, 1027200, Note_on_c, 1, 64, 100
3, 1027320, Note_on_c, 1, 64, 0
3, 1027320, Note_on_c, 1, 69, 100
3, 1027440, Note_on_c, 1, 69, 0
3, 1027440, Note_on_c, 1, 67, 100
3, 1027920, Note_on_c, 1, 67, 0
3, 1027920, Note_on_c, 1, 66, 100
3, 1028040, Note_on_c, 1, 66, 0
3, 1028040, Note_on_c, 1, 64, 100
3, 1028160, Note_on_c, 1, 64, 0
3, 1028160, Note_on_c, 1, 66, 100
3, 1028280, Note_on_c, 1, 66, 0
3, 1028280, Note_on_c, 1, 74, 100
3, 1028520, Note_on_c, 1, 74, 0
3, 1028520, Note_on_c, 1, 73, 100
3, 1028640, Note_on_c, 1, 73, 0
3, 1028640, Note_on_c, 1, 74, 100
3, 1028880, Note_on_c, 1, 74, 0
3, 1030800, Note_on_c, 1, 67, 100
3, 1030920, Note_on_c, 1, 67, 0
3, 1030920, Note_on_c, 1, 66, 100
3, 1031040, Note_on_c, 1, 66, 0
3, 1031040, Note_on_c, 1, 67, 100
3, 1031280, Note_on_c, 1, 67, 0
3, 1031280, Note_on_c, 1, 69, 100
3, 1031400, Note_on_c, 1, 69, 0
3, 1031400, Note_on_c, 1, 71, 100
3, 1031520, Note_on_c, 1, 71, 0
3, 1031520, Note_on_c, 1, 72, 100
3, 1031640, Note_on_c, 1, 72, 0
3, 1031640, Note_on_c, 1, 71, 100
3, 1031760, Note_on_c, 1, 71, 0
3, 1031760, Note_on_c, 1, 69, 100
3, 1031880, Note_on_c, 1, 69, 0
3, 1031880, Note_on_c, 1, 67, 100
3, 1032000, Note_on_c, 1, 67, 0
3, 1032000, Note_on_c, 1, 79, 100
3, 1032600, Note_on_c, 1, 79, 0
3, 1032600, Note_on_c, 1, 78, 100
3, 1032720, Note_on_c, 1, 78, 0
3, 1032720, Note_on_c, 1, 81, 100
3, 1032840, Note_on_c, 1, 81, 0
3, 1032840, Note_on_c, 1, 79, 100
3, 1032960, Note_on_c, 1, 79, 0
3, 1032960, Note_on_c, 1, 78, 100
3, 1033080, Note_on_c, 1, 78, 0
3, 1033080, Note_on_c, 1, 79, 100
3, 1033200, Note_on_c, 1, 79, 0
3, 1033200, Note_on_c, 1, 76, 100
3, 1033440, Note_on_c, 1, 76, 0
3, 1033440, Note_on_c, 1, 76, 100
3, 1033560, Note_on_c, 1, 76, 0
3, 1033560, Note_on_c, 1, 78, 100
3, 1033740, Note_on_c, 1, 78, 0
3, 1033740, Note_on_c, 1, 77, 100
3, 1033800, Note_on_c, 1, 77, 0
3, 1033800, Note_on_c, 1, 78, 100
3, 1033860, Note_on_c, 1, 78, 0
3, 1033860, Note_on_c, 1, 79, 100
3, 1033920, Note_on_c, 1, 79, 0
3, 1033920, Note_on_c, 1, 78, 100
3, 1034160, Note_on_c, 1, 78, 0
3, 1034160, Note_on_c, 1, 69, 100
3, 1034400, Note_on_c, 1, 69, 0
3, 1034640, Note_on_c, 1, 78, 100
3, 1034880, Note_on_c, 1, 78, 0
3, 1034880, Note_on_c, 1, 79, 100
3, 1035000, Note_on_c, 1, 79, 0
3, 1035000, Note_on_c, 1, 78, 100
3, 1035120, Note_on_c, 1, 78, 0
3, 1035120, Note_on_c, 1, 79, 100
3, 1035240, Note_on_c, 1, 79, 0
3, 1035240, Note_on_c, 1, 81, 100
3, 1035360, Note_on_c, 1, 81, 0
3, 1035360, Note_on_c, 1, 79, 100
3, 1035480, Note_on_c, 1, 79, 0
3, 1035480, Note_on_c, 1, 78, 100
3, 1035600, Note_on_c, 1, 78, 0
3, 1035600, Note_on_c, 1, 76, 100
3, 1035720, Note_on_c, 1, 76, 0
3, 1035720, Note_on_c, 1, 74, 100
3, 1035840, Note_on_c, 1, 74, 0
3, 1035840, Note_on_c, 1, 72, 100
3, 1035960, Note_on_c, 1, 72, 0
3, 1035960, Note_on_c, 1, 71, 100
3, 1036080, Note_on_c, 1, 71, 0
3, 1036080, Note_on_c, 1, 69, 100
3, 1036200, Note_on_c, 1, 69, 0
3, 1036200, Note_on_c, 1, 67, 100
3, 1036320, Note_on_c, 1, 67, 0
3, 1036320, Note_on_c, 1, 66, 100
3, 1038000, Note_on_c, 1, 66, 0
3, 1038000, Note_on_c, 1, 66, 100
3, 1038120, Note_on_c, 1, 66, 0
3, 1038120, Note_on_c, 1, 67, 100
3, 1038240, Note_on_c, 1, 67, 0
3, 1038240, Note_on_c, 1, 66, 100
3, 1038480, Note_on_c, 1, 66, 0
3, 1038480, Note_on_c, 1, 66, 100
3, 1038720, Note_on_c, 1, 66, 0
3, 1038720, Note_on_c, 1, 66, 100
3, 1038960, Note_on_c, 1, 66, 0
3, 1038960, Note_on_c, 1, 67, 100
3, 1039080, Note_on_c, 1, 67, 0
3, 1039080, Note_on_c, 1, 69, 100
3, 1039200, Note_on_c, 1, 69, 0
3, 1039200, Note_on_c, 1, 67, 100
3, 1039680, Note_on_c, 1, 67, 0
3, 1040160, Note_on_c, 1, 64, 100
3, 1040760, Note_on_c, 1, 64, 0
3, 1040760, Note_on_c, 1, 66, 100
3, 1040880, Note_on_c, 1, 66, 0
3, 1040880, Note_on_c, 1, 67, 100
3, 1041000, Note_on_c, 1, 67, 0
3, 1041000, Note_on_c, 1, 64, 100
3, 1041120, Note_on_c, 1, 64, 0
3, 1041120, Note_on_c, 1, 66, 100
3, 1041240, Note_on_c, 1, 66, 0
3, 1041240, Note_on_c, 1, 67, 100
3, 1041360, Note_on_c, 1, 67, 0
3, 1041360, Note_on_c, 1, 68, 100
3, 1041480, Note_on_c, 1, 68, 0
3, 1041480, Note_on_c, 1, 69, 100
3, 1041600, Note_on_c, 1, 69, 0
3, 1041600, Note_on_c, 1, 71, 100
3, 1041720, Note_on_c, 1, 71, 0
3, 1041720, Note_on_c, 1, 72, 100
3, 1041840, Note_on_c, 1, 72, 0
3, 1041840, Note_on_c, 1, 74, 100
3, 1041960, Note_on_c, 1, 74, 0
3, 1041960, Note_on_c, 1, 76, 100
3, 1042080, Note_on_c, 1, 76, 0
3, 1042080, Note_on_c, 1, 74, 100
3, 1042320, Note_on_c, 1, 74, 0
3, 1043640, Note_on_c, 1, 60, 100
3, 1043760, Note_on_c, 1, 60, 0
3, 1043760, Note_on_c, 1, 62, 100
3, 1043880, Note_on_c, 1, 62, 0
3, 1043880, Note_on_c, 1, 64, 100
3, 1044000, Note_on_c, 1, 64, 0
3, 1044000, Note_on_c, 1, 62, 100
3, 1044120, Note_on_c, 1, 62, 0
3, 1044120, Note_on_c, 1, 63, 100
3, 1044240, Note_on_c, 1, 63, 0
3, 1044240, Note_on_c, 1, 66, 100
3, 1044360, Note_on_c, 1, 66, 0
3, 1044360, Note_on_c, 1, 67, 100
3, 1044480, Note_on_c, 1, 67, 0
3, 1044480, Note_on_c, 1, 66, 100
3, 1044600, Note_on_c, 1, 66, 0
3, 1044600, Note_on_c, 1, 67, 100
3, 1044720, Note_on_c, 1, 67, 0
3, 1044720, Note_on_c, 1, 69, 100
3, 1044840, Note_on_c, 1, 69, 0
3, 1044840, Note_on_c, 1, 71, 100
3, 1044960, Note_on_c, 1, 71, 0
3, 1044960, Note_on_c, 1, 69, 100
3, 1046640, Note_on_c, 1, 69, 0
3, 1046640, Note_on_c, 1, 62, 100
3, 1046880, Note_on_c, 1, 62, 0
3, 1046880, Note_on_c, 1, 64, 100
3, 1047120, Note_on_c, 1, 64, 0
3, 1047120, Note_on_c, 1, 66, 100
3, 1047360, Note_on_c, 1, 66, 0
3, 1047360, Note_on_c, 1, 67, 100
3, 1047480, Note_on_c, 1, 67, 0
3, 1047480, Note_on_c, 1, 71, 100
3, 1047600, Note_on_c, 1, 71, 0
3, 1047600, Note_on_c, 1, 69, 100
3, 1047720, Note_on_c, 1, 69, 0
3, 1047720, Note_on_c, 1, 72, 100
3, 1047840, Note_on_c, 1, 72, 0
3, 1047840, Note_on_c, 1, 71, 100
3, 1048080, Note_on_c, 1, 71, 0
3, 1048080, Note_on_c, 1, 69, 100
3, 1048320, Note_on_c, 1, 69, 0
3, 1048320, Note_on_c, 1, 71, 100
3, 1048560, Note_on_c, 1, 71, 0
3, 1048560, Note_on_c, 1, 72, 100
3, 1048800, Note_on_c, 1, 72, 0
3, 1048800, Note_on_c, 1, 74, 100
3, 1048860, Note_on_c, 1, 74, 0
3, 1048860, Note_on_c, 1, 72, 100
3, 1048920, Note_on_c, 1, 72, 0
3, 1048920, Note_on_c, 1, 74, 100
3, 1049160, Note_on_c, 1, 74, 0
3, 1049160, Note_on_c, 1, 76, 100
3, 1049280, Note_on_c, 1, 76, 0
3, 1049280, Note_on_c, 1, 74, 100
3, 1049880, Note_on_c, 1, 74, 0
3, 1049880, Note_on_c, 1, 71, 100
3, 1050000, Note_on_c, 1, 71, 0
3, 1050000, Note_on_c, 1, 72, 100
3, 1050120, Note_on_c, 1, 72, 0
3, 1050120, Note_on_c, 1, 74, 100
3, 1050240, Note_on_c, 1, 74, 0
3, 1050240, Note_on_c, 1, 76, 100
3, 1050360, Note_on_c, 1, 76, 0
3, 1050360, Note_on_c, 1, 78, 100
3, 1050480, Note_on_c, 1, 78, 0
3, 1050480, Note_on_c, 1, 79, 100
3, 1050600, Note_on_c, 1, 79, 0
3, 1050600, Note_on_c, 1, 81, 100
3, 1050720, Note_on_c, 1, 81, 0
3, 1050720, Note_on_c, 1, 83, 100
3, 1050840, Note_on_c, 1, 83, 0
3, 1050840, Note_on_c, 1, 79, 100
3, 1050960, Note_on_c, 1, 79, 0
3, 1050960, Note_on_c, 1, 74, 100
3, 1051080, Note_on_c, 1, 74, 0
3, 1051080, Note_on_c, 1, 71, 100
3, 1051200, Note_on_c, 1, 71, 0
3, 1051200, Note_on_c, 1, 67, 100
3, 1051440, Note_on_c, 1, 67, 0
3, 1053840, Note_on_c, 1, 67, 100
3, 1053960, Note_on_c, 1, 67, 0
3, 1053960, Note_on_c, 1, 66, 100
3, 1054080, Note_on_c, 1, 66, 0
3, 1054080, Note_on_c, 1, 67, 100
3, 1054320, Note_on_c, 1, 67, 0
3, 1054320, Note_on_c, 1, 69, 100
3, 1054440, Note_on_c, 1, 69, 0
3, 1054440, Note_on_c, 1, 71, 100
3, 1054560, Note_on_c, 1, 71, 0
3, 1054560, Note_on_c, 1, 72, 100
3, 1054680, Note_on_c, 1, 72, 0
3, 1054680, Note_on_c, 1, 71, 100
3, 1054800, Note_on_c, 1, 71, 0
3, 1054800, Note_on_c, 1, 69, 100
3, 1054920, Note_on_c, 1, 69, 0
3, 1054920, Note_on_c, 1, 67, 100
3, 1055040, Note_on_c, 1, 67, 0
3, 1055040, Note_on_c, 1, 79, 100
3, 1055640, Note_on_c, 1, 79, 0
3, 1055640, Note_on_c, 1, 78, 100
3, 1055760, Note_on_c, 1, 78, 0
3, 1055760, Note_on_c, 1, 81, 100
3, 1055880, Note_on_c, 1, 81, 0
3, 1055880, Note_on_c, 1, 79, 100
3, 1056000, Note_on_c, 1, 79, 0
3, 1056000, Note_on_c, 1, 78, 100
3, 1056120, Note_on_c, 1, 78, 0
3, 1056120, Note_on_c, 1, 79, 100
3, 1056240, Note_on_c, 1, 79, 0
3, 1056240, Note_on_c, 1, 76, 100
3, 1056480, Note_on_c, 1, 76, 0
3, 1056480, Note_on_c, 1, 76, 100
3, 1056600, Note_on_c, 1, 76, 0
3, 1056600, Note_on_c, 1, 78, 100
3, 1056780, Note_on_c, 1, 78, 0
3, 1056780, Note_on_c, 1, 77, 100
3, 1056840, Note_on_c, 1, 77, 0
3, 1056840, Note_on_c, 1, 78, 100
3, 1056900, Note_on_c, 1, 78, 0
3, 1056900, Note_on_c, 1, 79, 100
3, 1056960, Note_on_c, 1, 79, 0
3, 1056960, Note_on_c, 1, 78, 100
3, 1057200, Note_on_c, 1, 78, 0
3, 1057200, Note_on_c, 1, 69, 100
3, 1057440, Note_on_c, 1, 69, 0
3, 1057680, Note_on_c, 1, 78, 100
3, 1057920, Note_on_c, 1, 78, 0
3, 1057920, Note_on_c, 1, 79, 100
3, 1058040, Note_on_c, 1, 79, 0
3, 1058040, Note_on_c, 1, 78, 100
3, 1058160, Note_on_c, 1, 78, 0
3, 1058160, Note_on_c, 1, 79, 100
3, 1058280, Note_on_c, 1, 79, 0
3, 1058280, Note_on_c, 1, 81, 100
3, 1058400, Note_on_c, 1, 81, 0
3, 1058400, Note_on_c, 1, 79, 100
3, 1058520, Note_on_c, 1, 79, 0
3, 1058520, Note_on_c, 1, 78, 100
3, 1058640, Note_on_c, 1, 78, 0
3, 1058640, Note_on_c, 1, 76, 100
3, 1058760, Note_on_c, 1, 76, 0
3, 1058760, Note_on_c, 1, 74, 100
3, 1058880, Note_on_c, 1, 74, 0
3, 1058880, Note_on_c, 1, 72, 100
3, 1059000, Note_on_c, 1, 72, 0
3, 1059000, Note_on_c, 1, 71, 100
3, 1059120, Note_on_c, 1, 71, 0
3, 1059120, Note_on_c, 1, 69, 100
3, 1059240, Note_on_c, 1, 69, 0
3, 1059240, Note_on_c, 1, 67, 100
3, 1059360, Note_on_c, 1, 67, 0
3, 1059360, Note_on_c, 1, 66, 100
3, 1061040, Note_on_c, 1, 66, 0
3, 1061040, Note_on_c, 1, 66, 100
3, 1061160, Note_on_c, 1, 66, 0
3, 1061160, Note_on_c, 1, 67, 100
3, 1061280, Note_on_c, 1, 67, 0
3, 1061280, Note_on_c, 1, 66, 100
3, 1061520, Note_on_c, 1, 66, 0
3, 1061520, Note_on_c, 1, 66, 100
3, 1061760, Note_on_c, 1, 66, 0
3, 1061760, Note_on_c, 1, 66, 100
3, 1062000, Note_on_c, 1, 66, 0
3, 1062000, Note_on_c, 1, 67, 100
3, 1062120, Note_on_c, 1, 67, 0
3, 1062120, Note_on_c, 1, 69, 100
3, 1062240, Note_on_c, 1, 69, 0
3, 1062240, Note_on_c, 1, 67, 100
3, 1062720, Note_on_c, 1, 67, 0
3, 1063200, Note_on_c, 1, 64, 100
3, 1063800, Note_on_c, 1, 64, 0
3, 1063800, Note_on_c, 1, 66, 100
3, 1063920, Note_on_c, 1, 66, 0
3, 1063920, Note_on_c, 1, 67, 100
3, 1064040, Note_on_c, 1, 67, 0
3, 1064040, Note_on_c, 1, 64, 100
3, 1064160, Note_on_c, 1, 64, 0
3, 1064160, Note_on_c, 1, 66, 100
3, 1064280, Note_on_c, 1, 66, 0
3, 1064280, Note_on_c, 1, 67, 100
3, 1064400, Note_on_c, 1, 67, 0
3, 1064400, Note_on_c, 1, 68, 100
3, 1064520, Note_on_c, 1, 68, 0
3, 1064520, Note_on_c, 1, 69, 100
3, 1064640, Note_on_c, 1, 69, 0
3, 1064640, Note_on_c, 1, 71, 100
3, 1064760, Note_on_c, 1, 71, 0
3, 1064760, Note_on_c, 1, 72, 100
3, 1064880, Note_on_c, 1, 72, 0
3, 1064880, Note_on_c, 1, 74, 100
3, 1065000, Note_on_c, 1, 74, 0
3, 1065000, Note_on_c, 1, 76, 100
3, 1065120, Note_on_c, 1, 76, 0
3, 1065120, Note_on_c, 1, 74, 100
3, 1065360, Note_on_c, 1, 74, 0
3, 1066680, Note_on_c, 1, 60, 100
3, 1066800, Note_on_c, 1, 60, 0
3, 1066800, Note_on_c, 1, 62, 100
3, 1066920, Note_on_c, 1, 62, 0
3, 1066920, Note_on_c, 1, 64, 100
3, 1067040, Note_on_c, 1, 64, 0
3, 1067040, Note_on_c, 1, 62, 100
3, 1067160, Note_on_c, 1, 62, 0
3, 1067160, Note_on_c, 1, 63, 100
3, 1067280, Note_on_c, 1, 63, 0
3, 1067280, Note_on_c, 1, 66, 100
3, 1067400, Note_on_c, 1, 66, 0
3, 1067400, Note_on_c, 1, 67, 100
3, 1067520, Note_on_c, 1, 67, 0
3, 1067520, Note_on_c, 1, 66, 100
3, 1067640, Note_on_c, 1, 66, 0
3, 1067640, Note_on_c, 1, 67, 100
3, 1067760, Note_on_c, 1, 67, 0
3, 1067760, Note_on_c, 1, 69, 100
3, 1067880, Note_on_c, 1, 69, 0
3, 1067880, Note_on_c, 1, 71, 100
3, 1068000, Note_on_c, 1, 71, 0
3, 1068000, Note_on_c, 1, 69, 100
3, 1069680, Note_on_c, 1, 69, 0
3, 1069680, Note_on_c, 1, 62, 100
3, 1069920, Note_on_c, 1, 62, 0
3, 1069920, Note_on_c, 1, 64, 100
3, 1070160, Note_on_c, 1, 64, 0
3, 1070160, Note_on_c, 1, 66, 100
3, 1070400, Note_on_c, 1, 66, 0
3, 1070400, Note_on_c, 1, 67, 100
3, 1070520, Note_on_c, 1, 67, 0
3, 1070520, Note_on_c, 1, 71, 100
3, 1070640, Note_on_c, 1, 71, 0
3, 1070640, Note_on_c, 1, 69, 100
3, 1070760, Note_on_c, 1, 69, 0
3, 1070760, Note_on_c, 1, 72, 100
3, 1070880, Note_on_c, 1, 72, 0
3, 1070880, Note_on_c, 1, 71, 100
3, 1071120, Note_on_c, 1, 71, 0
3, 1071120, Note_on_c, 1, 69, 100
3, 1071360, Note_on_c, 1, 69, 0
3, 1071360, Note_on_c, 1, 71, 100
3, 1071600, Note_on_c, 1, 71, 0
3, 1071600, Note_on_c, 1, 72, 100
3, 1071840, Note_on_c, 1, 72, 0
3, 1071840, Note_on_c, 1, 74, 100
3, 1071900, Note_on_c, 1, 74, 0
3, 1071900, Note_on_c, 1, 72, 100
3, 1071960, Note_on_c, 1, 72, 0
3, 1071960, Note_on_c, 1, 74, 100
3, 1072200, Note_on_c, 1, 74, 0
3, 1072200, Note_on_c, 1, 76, 100
3, 1072320, Note_on_c, 1, 76, 0
3, 1072320, Note_on_c, 1, 74, 100
3, 1072920, Note_on_c, 1, 74, 0
3, 1072920, Note_on_c, 1, 71, 100
3, 1073040, Note_on_c, 1, 71, 0
3, 1073040, Note_on_c, 1, 72, 100
3, 1073160, Note_on_c, 1, 72, 0
3, 1073160, Note_on_c, 1, 74, 100
3, 1073280, Note_on_c, 1, 74, 0
3, 1073280, Note_on_c, 1, 76, 100
3, 1073400, Note_on_c, 1, 76, 0
3, 1073400, Note_on_c, 1, 78, 100
3, 1073520, Note_on_c, 1, 78, 0
3, 1073520, Note_on_c, 1, 79, 100
3, 1073640, Note_on_c, 1, 79, 0
3, 1073640, Note_on_c, 1, 81, 100
3, 1073760, Note_on_c, 1, 81, 0
3, 1073760, Note_on_c, 1, 83, 100
3, 1073880, Note_on_c, 1, 83, 0
3, 1073880, Note_on_c, 1, 79, 100
3, 1074000, Note_on_c, 1, 79, 0
3, 1074000, Note_on_c, 1, 74, 100
3, 1074120, Note_on_c, 1, 74, 0
3, 1074120, Note_on_c, 1, 71, 100
3, 1074240, Note_on_c, 1, 71, 0
3, 1074240, Note_on_c, 1, 67, 100
3, 1074480, Note_on_c, 1, 67, 0
3, 1075200, Note_on_c, 1, 71, 100
3, 1075260, Note_on_c, 1, 71, 0
3, 1075260, Note_on_c, 1, 72, 100
3, 1075320, Note_on_c, 1, 72, 0
3, 1075320, Note_on_c, 1, 71, 100
3, 1075380, Note_on_c, 1, 71, 0
3, 1075380, Note_on_c, 1, 69, 100
3, 1075440, Note_on_c, 1, 69, 0
3, 1075440, Note_on_c, 1, 71, 100
3, 1075740, Note_on_c, 1, 71, 0
3, 1075740, Note_on_c, 1, 66, 100
3, 1075800, Note_on_c, 1, 66, 0
3, 1075800, Note_on_c, 1, 67, 100
3, 1075860, Note_on_c, 1, 67, 0
3, 1075860, Note_on_c, 1, 69, 100
3, 1075920, Note_on_c, 1, 69, 0
3, 1075920, Note_on_c, 1, 71, 100
3, 1076040, Note_on_c, 1, 71, 0
3, 1076040, Note_on_c, 1, 72, 100
3, 1076160, Note_on_c, 1, 72, 0
3, 1076160, Note_on_c, 1, 74, 100
3, 1076190, Note_on_c, 1, 74, 0
3, 1076190, Note_on_c, 1, 72, 100
3, 1076280, Note_on_c, 1, 72, 0
3, 1076280, Note_on_c, 1, 71, 100
3, 1076400, Note_on_c, 1, 71, 0
3, 1076400, Note_on_c, 1, 69, 100
3, 1076520, Note_on_c, 1, 69, 0
3, 1076520, Note_on_c, 1, 67, 100
3, 1076640, Note_on_c, 1, 67, 0
3, 1076640, Note_on_c, 1, 74, 100
3, 1076700, Note_on_c, 1, 74, 0
3, 1076700, Note_on_c, 1, 76, 100
3, 1076760, Note_on_c, 1, 76, 0
3, 1076760, Note_on_c, 1, 74, 100
3, 1076820, Note_on_c, 1, 74, 0
3, 1076820, Note_on_c, 1, 73, 100
3, 1076880, Note_on_c, 1, 73, 0
3, 1076880, Note_on_c, 1, 74, 100
3, 1077180, Note_on_c, 1, 74, 0
3, 1077180, Note_on_c, 1, 73, 100
3, 1077240, Note_on_c, 1, 73, 0
3, 1077240, Note_on_c, 1, 74, 100
3, 1077300, Note_on_c, 1, 74, 0
3, 1077300, Note_on_c, 1, 76, 100
3, 1077360, Note_on_c, 1, 76, 0
3, 1077360, Note_on_c, 1, 78, 100
3, 1077480, Note_on_c, 1, 78, 0
3, 1077480, Note_on_c, 1, 79, 100
3, 1077600, Note_on_c, 1, 79, 0
3, 1077600, Note_on_c, 1, 81, 100
3, 1077630, Note_on_c, 1, 81, 0
3, 1077630, Note_on_c, 1, 79, 100
3, 1077720, Note_on_c, 1, 79, 0
3, 1077720, Note_on_c, 1, 78, 100
3, 1077840, Note_on_c, 1, 78, 0
3, 1077840, Note_on_c, 1, 76, 100
3, 1077960, Note_on_c, 1, 76, 0
3, 1077960, Note_on_c, 1, 74, 100
3, 1078080, Note_on_c, 1, 74, 0
3, 1078080, Note_on_c, 1, 79, 100
3, 1078140, Note_on_c, 1, 79, 0
3, 1078140, Note_on_c, 1, 81, 100
3, 1078200, Note_on_c, 1, 81, 0
3, 1078200, Note_on_c, 1, 79, 100
3, 1078260, Note_on_c, 1, 79, 0
3, 1078260, Note_on_c, 1, 78, 100
3, 1078320, Note_on_c, 1, 78, 0
3, 1078320, Note_on_c, 1, 79, 100
3, 1078620, Note_on_c, 1, 79, 0
3, 1078620, Note_on_c, 1, 78, 100
3, 1078680, Note_on_c, 1, 78, 0
3, 1078680, Note_on_c, 1, 76, 100
3, 1078740, Note_on_c, 1, 76, 0
3, 1078740, Note_on_c, 1, 78, 100
3, 1078800, Note_on_c, 1, 78, 0
3, 1078800, Note_on_c, 1, 79, 100
3, 1078920, Note_on_c, 1, 79, 0
3, 1078920, Note_on_c, 1, 76, 100
3, 1079040, Note_on_c, 1, 76, 0
3, 1079040, Note_on_c, 1, 69, 100
3, 1079160, Note_on_c, 1, 69, 0
3, 1079160, Note_on_c, 1, 83, 100
3, 1079280, Note_on_c, 1, 83, 0
3, 1079280, Note_on_c, 1, 81, 100
3, 1079400, Note_on_c, 1, 81, 0
3, 1079400, Note_on_c, 1, 79, 100
3, 1079520, Note_on_c, 1, 79, 0
3, 1079520, Note_on_c, 1, 79, 100
3, 1079535, Note_on_c, 1, 79, 0
3, 1079535, Note_on_c, 1, 78, 100
3, 1079580, Note_on_c, 1, 78, 0
3, 1079580, Note_on_c, 1, 76, 100
3, 1079640, Note_on_c, 1, 76, 0
3, 1079640, Note_on_c, 1, 78, 100
3, 1079700, Note_on_c, 1, 78, 0
3, 1079700, Note_on_c, 1, 76, 100
3, 1079760, Note_on_c, 1, 76, 0
3, 1079760, Note_on_c, 1, 74, 100
3, 1080060, Note_on_c, 1, 74, 0
3, 1080060, Note_on_c, 1, 73, 100
3, 1080120, Note_on_c, 1, 73, 0
3, 1080120, Note_on_c, 1, 74, 100
3, 1080180, Note_on_c, 1, 74, 0
3, 1080180, Note_on_c, 1, 76, 100
3, 1080240, Note_on_c, 1, 76, 0
3, 1080240, Note_on_c, 1, 78, 100
3, 1080360, Note_on_c, 1, 78, 0
3, 1080360, Note_on_c, 1, 79, 100
3, 1080480, Note_on_c, 1, 79, 0
3, 1080480, Note_on_c, 1, 81, 100
3, 1080600, Note_on_c, 1, 81, 0
3, 1080600, Note_on_c, 1, 83, 100
3, 1080660, Note_on_c, 1, 83, 0
3, 1080660, Note_on_c, 1, 84, 100
3, 1080720, Note_on_c, 1, 84, 0
3, 1080720, Note_on_c, 1, 83, 100
3, 1080840, Note_on_c, 1, 83, 0
3, 1080840, Note_on_c, 1, 81, 100
3, 1080960, Note_on_c, 1, 81, 0
3, 1080960, Note_on_c, 1, 79, 100
3, 1081020, Note_on_c, 1, 79, 0
3, 1081020, Note_on_c, 1, 77, 100
3, 1081080, Note_on_c, 1, 77, 0
3, 1081080, Note_on_c, 1, 76, 100
3, 1081200, Note_on_c, 1, 76, 0
3, 1081200, Note_on_c, 1, 77, 100
3, 1081230, Note_on_c, 1, 77, 0
3, 1081230, Note_on_c, 1, 76, 100
3, 1081260, Note_on_c, 1, 76, 0
3, 1081260, Note_on_c, 1, 77, 100
3, 1081500, Note_on_c, 1, 77, 0
3, 1081500, Note_on_c, 1, 74, 100
3, 1081560, Note_on_c, 1, 74, 0
3, 1081560, Note_on_c, 1, 79, 100
3, 1081620, Note_on_c, 1, 79, 0
3, 1081620, Note_on_c, 1, 81, 100
3, 1081680, Note_on_c, 1, 81, 0
3, 1081680, Note_on_c, 1, 83, 100
3, 1081740, Note_on_c, 1, 83, 0
3, 1081740, Note_on_c, 1, 84, 100
3, 1081800, Note_on_c, 1, 84, 0
3, 1081800, Note_on_c, 1, 86, 100
3, 1081920, Note_on_c, 1, 86, 0
3, 1081920, Note_on_c, 1, 84, 100
3, 1082040, Note_on_c, 1, 84, 0
3, 1082040, Note_on_c, 1, 83, 100
3, 1082160, Note_on_c, 1, 83, 0
3, 1082160, Note_on_c, 1, 81, 100
3, 1082280, Note_on_c, 1, 81, 0
3, 1082280, Note_on_c, 1, 79, 100
3, 1082400, Note_on_c, 1, 79, 0
3, 1082400, Note_on_c, 1, 77, 100
3, 1082460, Note_on_c, 1, 77, 0
3, 1082460, Note_on_c, 1, 76, 100
3, 1082520, Note_on_c, 1, 76, 0
3, 1082520, Note_on_c, 1, 74, 100
3, 1082640, Note_on_c, 1, 74, 0
3, 1082640, Note_on_c, 1, 74, 100
3, 1082700, Note_on_c, 1, 74, 0
3, 1082700, Note_on_c, 1, 76, 100
3, 1082940, Note_on_c, 1, 76, 0
3, 1082940, Note_on_c, 1, 74, 100
3, 1083000, Note_on_c, 1, 74, 0
3, 1083000, Note_on_c, 1, 72, 100
3, 1083060, Note_on_c, 1, 72, 0
3, 1083060, Note_on_c, 1, 71, 100
3, 1083120, Note_on_c, 1, 71, 0
3, 1083120, Note_on_c, 1, 72, 100
3, 1083180, Note_on_c, 1, 72, 0
3, 1083180, Note_on_c, 1, 74, 100
3, 1083240, Note_on_c, 1, 74, 0
3, 1083240, Note_on_c, 1, 76, 100
3, 1083360, Note_on_c, 1, 76, 0
3, 1083360, Note_on_c, 1, 74, 100
3, 1083480, Note_on_c, 1, 74, 0
3, 1083480, Note_on_c, 1, 79, 100
3, 1083600, Note_on_c, 1, 79, 0
3, 1083600, Note_on_c, 1, 76, 100
3, 1083720, Note_on_c, 1, 76, 0
3, 1083720, Note_on_c, 1, 72, 100
3, 1083840, Note_on_c, 1, 72, 0
3, 1083840, Note_on_c, 1, 71, 100
3, 1083900, Note_on_c, 1, 71, 0
3, 1083900, Note_on_c, 1, 69, 100
3, 1083960, Note_on_c, 1, 69, 0
3, 1083960, Note_on_c, 1, 67, 100
3, 1084080, Note_on_c, 1, 67, 0
3, 1084080, Note_on_c, 1, 69, 100
3, 1084380, Note_on_c, 1, 69, 0
3, 1084380, Note_on_c, 1, 67, 100
3, 1084440, Note_on_c, 1, 67, 0
3, 1084440, Note_on_c, 1, 69, 100
3, 1084500, Note_on_c, 1, 69, 0
3, 1084500, Note_on_c, 1, 71, 100
3, 1084560, Note_on_c, 1, 71, 0
3, 1084560, Note_on_c, 1, 72, 100
3, 1084620, Note_on_c, 1, 72, 0
3, 1084620, Note_on_c, 1, 66, 100
3, 1084680, Note_on_c, 1, 66, 0
3, 1084680, Note_on_c, 1, 67, 100
3, 1084740, Note_on_c, 1, 67, 0
3, 1084740, Note_on_c, 1, 69, 100
3, 1084800, Note_on_c, 1, 69, 0
3, 1084800, Note_on_c, 1, 62, 100
3, 1084860, Note_on_c, 1, 62, 0
3, 1084860, Note_on_c, 1, 66, 100
3, 1084920, Note_on_c, 1, 66, 0
3, 1084920, Note_on_c, 1, 64, 100
3, 1084980, Note_on_c, 1, 64, 0
3, 1084980, Note_on_c, 1, 62, 100
3, 1085040, Note_on_c, 1, 62, 0
3, 1085040, Note_on_c, 1, 69, 100
3, 1085100, Note_on_c, 1, 69, 0
3, 1085100, Note_on_c, 1, 67, 100
3, 1085160, Note_on_c, 1, 67, 0
3, 1085160, Note_on_c, 1, 66, 100
3, 1085220, Note_on_c, 1, 66, 0
3, 1085220, Note_on_c, 1, 72, 100
3, 1085280, Note_on_c, 1, 72, 0
3, 1085280, Note_on_c, 1, 72, 100
3, 1085340, Note_on_c, 1, 72, 0
3, 1085340, Note_on_c, 1, 71, 100
3, 1085400, Note_on_c, 1, 71, 0
3, 1085400, Note_on_c, 1, 69, 100
3, 1085520, Note_on_c, 1, 69, 0
3, 1085520, Note_on_c, 1, 71, 100
3, 1085820, Note_on_c, 1, 71, 0
3, 1085820, Note_on_c, 1, 69, 100
3, 1085880, Note_on_c, 1, 69, 0
3, 1085880, Note_on_c, 1, 67, 100
3, 1085940, Note_on_c, 1, 67, 0
3, 1085940, Note_on_c, 1, 66, 100
3, 1086000, Note_on_c, 1, 66, 0
3, 1086000, Note_on_c, 1, 67, 100
3, 1086060, Note_on_c, 1, 67, 0
3, 1086060, Note_on_c, 1, 71, 100
3, 1086120, Note_on_c, 1, 71, 0
3, 1086120, Note_on_c, 1, 74, 100
3, 1086180, Note_on_c, 1, 74, 0
3, 1086180, Note_on_c, 1, 78, 100
3, 1086240, Note_on_c, 1, 78, 0
3, 1086240, Note_on_c, 1, 79, 100
3, 1086300, Note_on_c, 1, 79, 0
3, 1086300, Note_on_c, 1, 78, 100
3, 1086360, Note_on_c, 1, 78, 0
3, 1086360, Note_on_c, 1, 76, 100
3, 1086420, Note_on_c, 1, 76, 0
3, 1086420, Note_on_c, 1, 74, 100
3, 1086480, Note_on_c, 1, 74, 0
3, 1086480, Note_on_c, 1, 78, 100
3, 1086540, Note_on_c, 1, 78, 0
3, 1086540, Note_on_c, 1, 81, 100
3, 1086600, Note_on_c, 1, 81, 0
3, 1086600, Note_on_c, 1, 83, 100
3, 1086660, Note_on_c, 1, 83, 0
3, 1086660, Note_on_c, 1, 84, 100
3, 1086720, Note_on_c, 1, 84, 0
3, 1086720, Note_on_c, 1, 83, 100
3, 1086780, Note_on_c, 1, 83, 0
3, 1086780, Note_on_c, 1, 81, 100
3, 1086840, Note_on_c, 1, 81, 0
3, 1086840, Note_on_c, 1, 79, 100
3, 1087020, Note_on_c, 1, 79, 0
3, 1087020, Note_on_c, 1, 78, 100
3, 1087080, Note_on_c, 1, 78, 0
3, 1087080, Note_on_c, 1, 76, 100
3, 1087260, Note_on_c, 1, 76, 0
3, 1087260, Note_on_c, 1, 75, 100
3, 1087320, Note_on_c, 1, 75, 0
3, 1087320, Note_on_c, 1, 76, 100
3, 1087500, Note_on_c, 1, 76, 0
3, 1087500, Note_on_c, 1, 78, 100
3, 1087560, Note_on_c, 1, 78, 0
3, 1087560, Note_on_c, 1, 79, 100
3, 1087740, Note_on_c, 1, 79, 0
3, 1087740, Note_on_c, 1, 81, 100
3, 1087800, Note_on_c, 1, 81, 0
3, 1087800, Note_on_c, 1, 83, 100
3, 1087980, Note_on_c, 1, 83, 0
3, 1087980, Note_on_c, 1, 79, 100
3, 1088040, Note_on_c, 1, 79, 0
3, 1088040, Note_on_c, 1, 78, 100
3, 1088100, Note_on_c, 1, 78, 0
3, 1088100, Note_on_c, 1, 76, 100
3, 1088160, Note_on_c, 1, 76, 0
3, 1088160, Note_on_c, 1, 81, 100
3, 1088220, Note_on_c, 1, 81, 0
3, 1088220, Note_on_c, 1, 79, 100
3, 1088280, Note_on_c, 1, 79, 0
3, 1088280, Note_on_c, 1, 78, 100
3, 1088460, Note_on_c, 1, 78, 0
3, 1088460, Note_on_c, 1, 76, 100
3, 1088520, Note_on_c, 1, 76, 0
3, 1088520, Note_on_c, 1, 74, 100
3, 1088700, Note_on_c, 1, 74, 0
3, 1088700, Note_on_c, 1, 73, 100
3, 1088760, Note_on_c, 1, 73, 0
3, 1088760, Note_on_c, 1, 74, 100
3, 1088940, Note_on_c, 1, 74, 0
3, 1088940, Note_on_c, 1, 76, 100
3, 1089000, Note_on_c, 1, 76, 0
3, 1089000, Note_on_c, 1, 78, 100
3, 1089180, Note_on_c, 1, 78, 0
3, 1089180, Note_on_c, 1, 79, 100
3, 1089240, Note_on_c, 1, 79, 0
3, 1089240, Note_on_c, 1, 81, 100
3, 1089420, Note_on_c, 1, 81, 0
3, 1089420, Note_on_c, 1, 78, 100
3, 1089480, Note_on_c, 1, 78, 0
3, 1089480, Note_on_c, 1, 76, 100
3, 1089540, Note_on_c, 1, 76, 0
3, 1089540, Note_on_c, 1, 74, 100
3, 1089600, Note_on_c, 1, 74, 0
3, 1089600, Note_on_c, 1, 79, 100
3, 1089660, Note_on_c, 1, 79, 0
3, 1089660, Note_on_c, 1, 81, 100
3, 1089720, Note_on_c, 1, 81, 0
3, 1089720, Note_on_c, 1, 83, 100
3, 1089780, Note_on_c, 1, 83, 0
3, 1089780, Note_on_c, 1, 81, 100
3, 1089840, Note_on_c, 1, 81, 0
3, 1089840, Note_on_c, 1, 79, 100
3, 1089960, Note_on_c, 1, 79, 0
3, 1089960, Note_on_c, 1, 78, 100
3, 1090080, Note_on_c, 1, 78, 0
3, 1090080, Note_on_c, 1, 76, 100
3, 1090140, Note_on_c, 1, 76, 0
3, 1090140, Note_on_c, 1, 78, 100
3, 1090200, Note_on_c, 1, 78, 0
3, 1090200, Note_on_c, 1, 79, 100
3, 1090260, Note_on_c, 1, 79, 0
3, 1090260, Note_on_c, 1, 78, 100
3, 1090320, Note_on_c, 1, 78, 0
3, 1090320, Note_on_c, 1, 76, 100
3, 1090440, Note_on_c, 1, 76, 0
3, 1090440, Note_on_c, 1, 74, 100
3, 1090560, Note_on_c, 1, 74, 0
3, 1090560, Note_on_c, 1, 73, 100
3, 1090620, Note_on_c, 1, 73, 0
3, 1090620, Note_on_c, 1, 74, 100
3, 1090680, Note_on_c, 1, 74, 0
3, 1090680, Note_on_c, 1, 76, 100
3, 1090740, Note_on_c, 1, 76, 0
3, 1090740, Note_on_c, 1, 74, 100
3, 1090800, Note_on_c, 1, 74, 0
3, 1090800, Note_on_c, 1, 73, 100
3, 1090920, Note_on_c, 1, 73, 0
3, 1090920, Note_on_c, 1, 71, 100
3, 1091040, Note_on_c, 1, 71, 0
3, 1091040, Note_on_c, 1, 71, 100
3, 1091080, Note_on_c, 1, 71, 0
3, 1091080, Note_on_c, 1, 69, 100
3, 1091120, Note_on_c, 1, 69, 0
3, 1091120, Note_on_c, 1, 71, 100
3, 1091160, Note_on_c, 1, 71, 0
3, 1091160, Note_on_c, 1, 69, 100
3, 1091200, Note_on_c, 1, 69, 0
3, 1091200, Note_on_c, 1, 71, 100
3, 1091240, Note_on_c, 1, 71, 0
3, 1091240, Note_on_c, 1, 69, 100
3, 1091280, Note_on_c, 1, 69, 0
3, 1091280, Note_on_c, 1, 71, 100
3, 1091320, Note_on_c, 1, 71, 0
3, 1091320, Note_on_c, 1, 69, 100
3, 1091360, Note_on_c, 1, 69, 0
3, 1091360, Note_on_c, 1, 71, 100
3, 1091400, Note_on_c, 1, 71, 0
3, 1091400, Note_on_c, 1, 69, 100
3, 1091440, Note_on_c, 1, 69, 0
3, 1091440, Note_on_c, 1, 71, 100
3, 1091480, Note_on_c, 1, 71, 0
3, 1091480, Note_on_c, 1, 69, 100
3, 1091520, Note_on_c, 1, 69, 0
3, 1091520, Note_on_c, 1, 71, 100
3, 1091560, Note_on_c, 1, 71, 0
3, 1091560, Note_on_c, 1, 69, 100
3, 1091600, Note_on_c, 1, 69, 0
3, 1091600, Note_on_c, 1, 71, 100
3, 1091640, Note_on_c, 1, 71, 0
3, 1091640, Note_on_c, 1, 69, 100
3, 1091820, Note_on_c, 1, 69, 0
3, 1091820, Note_on_c, 1, 73, 100
3, 1091880, Note_on_c, 1, 73, 0
3, 1091880, Note_on_c, 1, 71, 100
3, 1091940, Note_on_c, 1, 71, 0
3, 1091940, Note_on_c, 1, 69, 100
3, 1092000, Note_on_c, 1, 69, 0
3, 1092000, Note_on_c, 1, 71, 100
3, 1092060, Note_on_c, 1, 71, 0
3, 1092060, Note_on_c, 1, 73, 100
3, 1092120, Note_on_c, 1, 73, 0
3, 1092120, Note_on_c, 1, 74, 100
3, 1092180, Note_on_c, 1, 74, 0
3, 1092180, Note_on_c, 1, 76, 100
3, 1092240, Note_on_c, 1, 76, 0
3, 1092240, Note_on_c, 1, 78, 100
3, 1092360, Note_on_c, 1, 78, 0
3, 1092360, Note_on_c, 1, 81, 100
3, 1092390, Note_on_c, 1, 81, 0
3, 1092390, Note_on_c, 1, 79, 100
3, 1092420, Note_on_c, 1, 79, 0
3, 1092420, Note_on_c, 1, 78, 100
3, 1092450, Note_on_c, 1, 78, 0
3, 1092450, Note_on_c, 1, 79, 100
3, 1092480, Note_on_c, 1, 79, 0
3, 1092480, Note_on_c, 1, 81, 100
3, 1092540, Note_on_c, 1, 81, 0
3, 1092540, Note_on_c, 1, 74, 100
3, 1092600, Note_on_c, 1, 74, 0
3, 1092600, Note_on_c, 1, 73, 100
3, 1092660, Note_on_c, 1, 73, 0
3, 1092660, Note_on_c, 1, 74, 100
3, 1092720, Note_on_c, 1, 74, 0
3, 1092720, Note_on_c, 1, 76, 100
3, 1092780, Note_on_c, 1, 76, 0
3, 1092780, Note_on_c, 1, 74, 100
3, 1092840, Note_on_c, 1, 74, 0
3, 1092840, Note_on_c, 1, 73, 100
3, 1092900, Note_on_c, 1, 73, 0
3, 1092900, Note_on_c, 1, 74, 100
3, 1092960, Note_on_c, 1, 74, 0
3, 1092960, Note_on_c, 1, 69, 100
3, 1093020, Note_on_c, 1, 69, 0
3, 1093020, Note_on_c, 1, 74, 100
3, 1093080, Note_on_c, 1, 74, 0
3, 1093080, Note_on_c, 1, 67, 100
3, 1093140, Note_on_c, 1, 67, 0
3, 1093140, Note_on_c, 1, 74, 100
3, 1093200, Note_on_c, 1, 74, 0
3, 1093200, Note_on_c, 1, 66, 100
3, 1093260, Note_on_c, 1, 66, 0
3, 1093260, Note_on_c, 1, 74, 100
3, 1093320, Note_on_c, 1, 74, 0
3, 1093320, Note_on_c, 1, 64, 100
3, 1093380, Note_on_c, 1, 64, 0
3, 1093380, Note_on_c, 1, 74, 100
3, 1093440, Note_on_c, 1, 74, 0
3, 1093440, Note_on_c, 1, 66, 100
3, 1093500, Note_on_c, 1, 66, 0
3, 1093500, Note_on_c, 1, 74, 100
3, 1093560, Note_on_c, 1, 74, 0
3, 1093560, Note_on_c, 1, 69, 100
3, 1093620, Note_on_c, 1, 69, 0
3, 1093620, Note_on_c, 1, 74, 100
3, 1093680, Note_on_c, 1, 74, 0
3, 1093680, Note_on_c, 1, 66, 100
3, 1093740, Note_on_c, 1, 66, 0
3, 1093740, Note_on_c, 1, 74, 100
3, 1093800, Note_on_c, 1, 74, 0
3, 1093800, Note_on_c, 1, 62, 100
3, 1093860, Note_on_c, 1, 62, 0
3, 1093860, Note_on_c, 1, 72, 100
3, 1093920, Note_on_c, 1, 72, 0
3, 1093920, Note_on_c, 1, 71, 100
3, 1093980, Note_on_c, 1, 71, 0
3, 1093980, Note_on_c, 1, 74, 100
3, 1094040, Note_on_c, 1, 74, 0
3, 1094040, Note_on_c, 1, 73, 100
3, 1094100, Note_on_c, 1, 73, 0
3, 1094100, Note_on_c, 1, 74, 100
3, 1094160, Note_on_c, 1, 74, 0
3, 1094160, Note_on_c, 1, 76, 100
3, 1094220, Note_on_c, 1, 76, 0
3, 1094220, Note_on_c, 1, 74, 100
3, 1094280, Note_on_c, 1, 74, 0
3, 1094280, Note_on_c, 1, 73, 100
3, 1094340, Note_on_c, 1, 73, 0
3, 1094340, Note_on_c, 1, 74, 100
3, 1094400, Note_on_c, 1, 74, 0
3, 1094400, Note_on_c, 1, 71, 100
3, 1094460, Note_on_c, 1, 71, 0
3, 1094460, Note_on_c, 1, 74, 100
3, 1094520, Note_on_c, 1, 74, 0
3, 1094520, Note_on_c, 1, 69, 100
3, 1094580, Note_on_c, 1, 69, 0
3, 1094580, Note_on_c, 1, 74, 100
3, 1094640, Note_on_c, 1, 74, 0
3, 1094640, Note_on_c, 1, 67, 100
3, 1094700, Note_on_c, 1, 67, 0
3, 1094700, Note_on_c, 1, 74, 100
3, 1094760, Note_on_c, 1, 74, 0
3, 1094760, Note_on_c, 1, 66, 100
3, 1094820, Note_on_c, 1, 66, 0
3, 1094820, Note_on_c, 1, 74, 100
3, 1094880, Note_on_c, 1, 74, 0
3, 1094880, Note_on_c, 1, 67, 100
3, 1094940, Note_on_c, 1, 67, 0
3, 1094940, Note_on_c, 1, 74, 100
3, 1095000, Note_on_c, 1, 74, 0
3, 1095000, Note_on_c, 1, 71, 100
3, 1095060, Note_on_c, 1, 71, 0
3, 1095060, Note_on_c, 1, 74, 100
3, 1095120, Note_on_c, 1, 74, 0
3, 1095120, Note_on_c, 1, 67, 100
3, 1095180, Note_on_c, 1, 67, 0
3, 1095180, Note_on_c, 1, 74, 100
3, 1095240, Note_on_c, 1, 74, 0
3, 1095240, Note_on_c, 1, 64, 100
3, 1095300, Note_on_c, 1, 64, 0
3, 1095300, Note_on_c, 1, 74, 100
3, 1095360, Note_on_c, 1, 74, 0
3, 1095360, Note_on_c, 1, 73, 100
3, 1095420, Note_on_c, 1, 73, 0
3, 1095420, Note_on_c, 1, 67, 100
3, 1095480, Note_on_c, 1, 67, 0
3, 1095480, Note_on_c, 1, 66, 100
3, 1095540, Note_on_c, 1, 66, 0
3, 1095540, Note_on_c, 1, 67, 100
3, 1095600, Note_on_c, 1, 67, 0
3, 1095600, Note_on_c, 1, 69, 100
3, 1095660, Note_on_c, 1, 69, 0
3, 1095660, Note_on_c, 1, 67, 100
3, 1095720, Note_on_c, 1, 67, 0
3, 1095720, Note_on_c, 1, 66, 100
3, 1095780, Note_on_c, 1, 66, 0
3, 1095780, Note_on_c, 1, 67, 100
3, 1095840, Note_on_c, 1, 67, 0
3, 1095840, Note_on_c, 1, 76, 100
3, 1095900, Note_on_c, 1, 76, 0
3, 1095900, Note_on_c, 1, 73, 100
3, 1095960, Note_on_c, 1, 73, 0
3, 1095960, Note_on_c, 1, 71, 100
3, 1096020, Note_on_c, 1, 71, 0
3, 1096020, Note_on_c, 1, 73, 100
3, 1096080, Note_on_c, 1, 73, 0
3, 1096080, Note_on_c, 1, 74, 100
3, 1096140, Note_on_c, 1, 74, 0
3, 1096140, Note_on_c, 1, 73, 100
3, 1096200, Note_on_c, 1, 73, 0
3, 1096200, Note_on_c, 1, 71, 100
3, 1096260, Note_on_c, 1, 71, 0
3, 1096260, Note_on_c, 1, 73, 100
3, 1096320, Note_on_c, 1, 73, 0
3, 1096320, Note_on_c, 1, 79, 100
3, 1096380, Note_on_c, 1, 79, 0
3, 1096380, Note_on_c, 1, 76, 100
3, 1096440, Note_on_c, 1, 76, 0
3, 1096440, Note_on_c, 1, 74, 100
3, 1096500, Note_on_c, 1, 74, 0
3, 1096500, Note_on_c, 1, 76, 100
3, 1096560, Note_on_c, 1, 76, 0
3, 1096560, Note_on_c, 1, 81, 100
3, 1096620, Note_on_c, 1, 81, 0
3, 1096620, Note_on_c, 1, 79, 100
3, 1096680, Note_on_c, 1, 79, 0
3, 1096680, Note_on_c, 1, 78, 100
3, 1096740, Note_on_c, 1, 78, 0
3, 1096740, Note_on_c, 1, 76, 100
3, 1096800, Note_on_c, 1, 76, 0
3, 1096800, Note_on_c, 1, 78, 100
3, 1096920, Note_on_c, 1, 78, 0
3, 1096920, Note_on_c, 1, 73, 100
3, 1097040, Note_on_c, 1, 73, 0
3, 1097040, Note_on_c, 1, 73, 100
3, 1097160, Note_on_c, 1, 73, 0
3, 1097160, Note_on_c, 1, 74, 100
3, 1097280, Note_on_c, 1, 74, 0
3, 1097280, Note_on_c, 1, 74, 100
3, 1097400, Note_on_c, 1, 74, 0
3, 1097400, Note_on_c, 1, 67, 100
3, 1097520, Note_on_c, 1, 67, 0
3, 1097520, Note_on_c, 1, 67, 100
3, 1097640, Note_on_c, 1, 67, 0
3, 1097640, Note_on_c, 1, 66, 100
3, 1097760, Note_on_c, 1, 66, 0
3, 1097760, Note_on_c, 1, 66, 100
3, 1098240, Note_on_c, 1, 66, 0
3, 1098240, Note_on_c, 1, 71, 100
3, 1098300, Note_on_c, 1, 71, 0
3, 1098300, Note_on_c, 1, 72, 100
3, 1098360, Note_on_c, 1, 72, 0
3, 1098360, Note_on_c, 1, 71, 100
3, 1098420, Note_on_c, 1, 71, 0
3, 1098420, Note_on_c, 1, 69, 100
3, 1098480, Note_on_c, 1, 69, 0
3, 1098480, Note_on_c, 1, 71, 100
3, 1098780, Note_on_c, 1, 71, 0
3, 1098780, Note_on_c, 1, 66, 100
3, 1098840, Note_on_c, 1, 66, 0
3, 1098840, Note_on_c, 1, 67, 100
3, 1098900, Note_on_c, 1, 67, 0
3, 1098900, Note_on_c, 1, 69, 100
3, 1098960, Note_on_c, 1, 69, 0
3, 1098960, Note_on_c, 1, 71, 100
3, 1099080, Note_on_c, 1, 71, 0
3, 1099080, Note_on_c, 1, 72, 100
3, 1099200, Note_on_c, 1, 72, 0
3, 1099200, Note_on_c, 1, 74, 100
3, 1099230, Note_on_c, 1, 74, 0
3, 1099230, Note_on_c, 1, 72, 100
3, 1099320, Note_on_c, 1, 72, 0
3, 1099320, Note_on_c, 1, 71, 100
3, 1099440, Note_on_c, 1, 71, 0
3, 1099440, Note_on_c, 1, 69, 100
3, 1099560, Note_on_c, 1, 69, 0
3, 1099560, Note_on_c, 1, 67, 100
3, 1099680, Note_on_c, 1, 67, 0
3, 1099680, Note_on_c, 1, 74, 100
3, 1099740, Note_on_c, 1, 74, 0
3, 1099740, Note_on_c, 1, 76, 100
3, 1099800, Note_on_c, 1, 76, 0
3, 1099800, Note_on_c, 1, 74, 100
3, 1099860, Note_on_c, 1, 74, 0
3, 1099860, Note_on_c, 1, 73, 100
3, 1099920, Note_on_c, 1, 73, 0
3, 1099920, Note_on_c, 1, 74, 100
3, 1100220, Note_on_c, 1, 74, 0
3, 1100220, Note_on_c, 1, 73, 100
3, 1100280, Note_on_c, 1, 73, 0
3, 1100280, Note_on_c, 1, 74, 100
3, 1100340, Note_on_c, 1, 74, 0
3, 1100340, Note_on_c, 1, 76, 100
3, 1100400, Note_on_c, 1, 76, 0
3, 1100400, Note_on_c, 1, 78, 100
3, 1100520, Note_on_c, 1, 78, 0
3, 1100520, Note_on_c, 1, 79, 100
3, 1100640, Note_on_c, 1, 79, 0
3, 1100640, Note_on_c, 1, 81, 100
3, 1100670, Note_on_c, 1, 81, 0
3, 1100670, Note_on_c, 1, 79, 100
3, 1100760, Note_on_c, 1, 79, 0
3, 1100760, Note_on_c, 1, 78, 100
3, 1100880, Note_on_c, 1, 78, 0
3, 1100880, Note_on_c, 1, 76, 100
3, 1101000, Note_on_c, 1, 76, 0
3, 1101000, Note_on_c, 1, 74, 100
3, 1101120, Note_on_c, 1, 74, 0
3, 1101120, Note_on_c, 1, 79, 100
3, 1101180, Note_on_c, 1, 79, 0
3, 1101180, Note_on_c, 1, 81, 100
3, 1101240, Note_on_c, 1, 81, 0
3, 1101240, Note_on_c, 1, 79, 100
3, 1101300, Note_on_c, 1, 79, 0
3, 1101300, Note_on_c, 1, 78, 100
3, 1101360, Note_on_c, 1, 78, 0
3, 1101360, Note_on_c, 1, 79, 100
3, 1101660, Note_on_c, 1, 79, 0
3, 1101660, Note_on_c, 1, 78, 100
3, 1101720, Note_on_c, 1, 78, 0
3, 1101720, Note_on_c, 1, 76, 100
3, 1101780, Note_on_c, 1, 76, 0
3, 1101780, Note_on_c, 1, 78, 100
3, 1101840, Note_on_c, 1, 78, 0
3, 1101840, Note_on_c, 1, 79, 100
3, 1101960, Note_on_c, 1, 79, 0
3, 1101960, Note_on_c, 1, 76, 100
3, 1102080, Note_on_c, 1, 76, 0
3, 1102080, Note_on_c, 1, 69, 100
3, 1102200, Note_on_c, 1, 69, 0
3, 1102200, Note_on_c, 1, 83, 100
3, 1102320, Note_on_c, 1, 83, 0
3, 1102320, Note_on_c, 1, 81, 100
3, 1102440, Note_on_c, 1, 81, 0
3, 1102440, Note_on_c, 1, 79, 100
3, 1102560, Note_on_c, 1, 79, 0
3, 1102560, Note_on_c, 1, 79, 100
3, 1102575, Note_on_c, 1, 79, 0
3, 1102575, Note_on_c, 1, 78, 100
3, 1102620, Note_on_c, 1, 78, 0
3, 1102620, Note_on_c, 1, 76, 100
3, 1102680, Note_on_c, 1, 76, 0
3, 1102680, Note_on_c, 1, 78, 100
3, 1102740, Note_on_c, 1, 78, 0
3, 1102740, Note_on_c, 1, 76, 100
3, 1102800, Note_on_c, 1, 76, 0
3, 1102800, Note_on_c, 1, 74, 100
3, 1103100, Note_on_c, 1, 74, 0
3, 1103100, Note_on_c, 1, 73, 100
3, 1103160, Note_on_c, 1, 73, 0
3, 1103160, Note_on_c, 1, 74, 100
3, 1103220, Note_on_c, 1, 74, 0
3, 1103220, Note_on_c, 1, 76, 100
3, 1103280, Note_on_c, 1, 76, 0
3, 1103280, Note_on_c, 1, 78, 100
3, 1103400, Note_on_c, 1, 78, 0
3, 1103400, Note_on_c, 1, 79, 100
3, 1103520, Note_on_c, 1, 79, 0
3, 1103520, Note_on_c, 1, 81, 100
3, 1103640, Note_on_c, 1, 81, 0
3, 1103640, Note_on_c, 1, 83, 100
3, 1103700, Note_on_c, 1, 83, 0
3, 1103700, Note_on_c, 1, 84, 100
3, 1103760, Note_on_c, 1, 84, 0
3, 1103760, Note_on_c, 1, 83, 100
3, 1103880, Note_on_c, 1, 83, 0
3, 1103880, Note_on_c, 1, 81, 100
3, 1104000, Note_on_c, 1, 81, 0
3, 1104000, Note_on_c, 1, 79, 100
3, 1104060, Note_on_c, 1, 79, 0
3, 1104060, Note_on_c, 1, 77, 100
3, 1104120, Note_on_c, 1, 77, 0
3, 1104120, Note_on_c, 1, 76, 100
3, 1104240, Note_on_c, 1, 76, 0
3, 1104240, Note_on_c, 1, 77, 100
3, 1104270, Note_on_c, 1, 77, 0
3, 1104270, Note_on_c, 1, 76, 100
3, 1104300, Note_on_c, 1, 76, 0
3, 1104300, Note_on_c, 1, 77, 100
3, 1104540, Note_on_c, 1, 77, 0
3, 1104540, Note_on_c, 1, 74, 100
3, 1104600, Note_on_c, 1, 74, 0
3, 1104600, Note_on_c, 1, 79, 100
3, 1104660, Note_on_c, 1, 79, 0
3, 1104660, Note_on_c, 1, 81, 100
3, 1104720, Note_on_c, 1, 81, 0
3, 1104720, Note_on_c, 1, 83, 100
3, 1104780, Note_on_c, 1, 83, 0
3, 1104780, Note_on_c, 1, 84, 100
3, 1104840, Note_on_c, 1, 84, 0
3, 1104840, Note_on_c, 1, 86, 100
3, 1104960, Note_on_c, 1, 86, 0
3, 1104960, Note_on_c, 1, 84, 100
3, 1105080, Note_on_c, 1, 84, 0
3, 1105080, Note_on_c, 1, 83, 100
3, 1105200, Note_on_c, 1, 83, 0
3, 1105200, Note_on_c, 1, 81, 100
3, 1105320, Note_on_c, 1, 81, 0
3, 1105320, Note_on_c, 1, 79, 100
3, 1105440, Note_on_c, 1, 79, 0
3, 1105440, Note_on_c, 1, 77, 100
3, 1105500, Note_on_c, 1, 77, 0
3, 1105500, Note_on_c, 1, 76, 100
3, 1105560, Note_on_c, 1, 76, 0
3, 1105560, Note_on_c, 1, 74, 100
3, 1105680, Note_on_c, 1, 74, 0
3, 1105680, Note_on_c, 1, 74, 100
3, 1105740, Note_on_c, 1, 74, 0
3, 1105740, Note_on_c, 1, 76, 100
3, 1105980, Note_on_c, 1, 76, 0
3, 1105980, Note_on_c, 1, 74, 100
3, 1106040, Note_on_c, 1, 74, 0
3, 1106040, Note_on_c, 1, 72, 100
3, 1106100, Note_on_c, 1, 72, 0
3, 1106100, Note_on_c, 1, 71, 100
3, 1106160, Note_on_c, 1, 71, 0
3, 1106160, Note_on_c, 1, 72, 100
3, 1106220, Note_on_c, 1, 72, 0
3, 1106220, Note_on_c, 1, 74, 100
3, 1106280, Note_on_c, 1, 74, 0
3, 1106280, Note_on_c, 1, 76, 100
3, 1106400, Note_on_c, 1, 76, 0
3, 1106400, Note_on_c, 1, 74, 100
3, 1106520, Note_on_c, 1, 74, 0
3, 1106520, Note_on_c, 1, 79, 100
3, 1106640, Note_on_c, 1, 79, 0
3, 1106640, Note_on_c, 1, 76, 100
3, 1106760, Note_on_c, 1, 76, 0
3, 1106760, Note_on_c, 1, 72, 100
3, 1106880, Note_on_c, 1, 72, 0
3, 1106880, Note_on_c, 1, 71, 100
3, 1106940, Note_on_c, 1, 71, 0
3, 1106940, Note_on_c, 1, 69, 100
3, 1107000, Note_on_c, 1, 69, 0
3, 1107000, Note_on_c, 1, 67, 100
3, 1107120, Note_on_c, 1, 67, 0
3, 1107120, Note_on_c, 1, 69, 100
3, 1107420, Note_on_c, 1, 69, 0
3, 1107420, Note_on_c, 1, 67, 100
3, 1107480, Note_on_c, 1, 67, 0
3, 1107480, Note_on_c, 1, 69, 100
3, 1107540, Note_on_c, 1, 69, 0
3, 1107540, Note_on_c, 1, 71, 100
3, 1107600, Note_on_c, 1, 71, 0
3, 1107600, Note_on_c, 1, 72, 100
3, 1107660, Note_on_c, 1, 72, 0
3, 1107660, Note_on_c, 1, 66, 100
3, 1107720, Note_on_c, 1, 66, 0
3, 1107720, Note_on_c, 1, 67, 100
3, 1107780, Note_on_c, 1, 67, 0
3, 1107780, Note_on_c, 1, 69, 100
3, 1107840, Note_on_c, 1, 69, 0
3, 1107840, Note_on_c, 1, 62, 100
3, 1107900, Note_on_c, 1, 62, 0
3, 1107900, Note_on_c, 1, 66, 100
3, 1107960, Note_on_c, 1, 66, 0
3, 1107960, Note_on_c, 1, 64, 100
3, 1108020, Note_on_c, 1, 64, 0
3, 1108020, Note_on_c, 1, 62, 100
3, 1108080, Note_on_c, 1, 62, 0
3, 1108080, Note_on_c, 1, 69, 100
3, 1108140, Note_on_c, 1, 69, 0
3, 1108140, Note_on_c, 1, 67, 100
3, 1108200, Note_on_c, 1, 67, 0
3, 1108200, Note_on_c, 1, 66, 100
3, 1108260, Note_on_c, 1, 66, 0
3, 1108260, Note_on_c, 1, 72, 100
3, 1108320, Note_on_c, 1, 72, 0
3, 1108320, Note_on_c, 1, 72, 100
3, 1108380, Note_on_c, 1, 72, 0
3, 1108380, Note_on_c, 1, 71, 100
3, 1108440, Note_on_c, 1, 71, 0
3, 1108440, Note_on_c, 1, 69, 100
3, 1108560, Note_on_c, 1, 69, 0
3, 1108560, Note_on_c, 1, 71, 100
3, 1108860, Note_on_c, 1, 71, 0
3, 1108860, Note_on_c, 1, 69, 100
3, 1108920, Note_on_c, 1, 69, 0
3, 1108920, Note_on_c, 1, 67, 100
3, 1108980, Note_on_c, 1, 67, 0
3, 1108980, Note_on_c, 1, 66, 100
3, 1109040, Note_on_c, 1, 66, 0
3, 1109040, Note_on_c, 1, 67, 100
3, 1109100, Note_on_c, 1, 67, 0
3, 1109100, Note_on_c, 1, 71, 100
3, 1109160, Note_on_c, 1, 71, 0
3, 1109160, Note_on_c, 1, 74, 100
3, 1109220, Note_on_c, 1, 74, 0
3, 1109220, Note_on_c, 1, 78, 100
3, 1109280, Note_on_c, 1, 78, 0
3, 1109280, Note_on_c, 1, 79, 100
3, 1109340, Note_on_c, 1, 79, 0
3, 1109340, Note_on_c, 1, 78, 100
3, 1109400, Note_on_c, 1, 78, 0
3, 1109400, Note_on_c, 1, 76, 100
3, 1109460, Note_on_c, 1, 76, 0
3, 1109460, Note_on_c, 1, 74, 100
3, 1109520, Note_on_c, 1, 74, 0
3, 1109520, Note_on_c, 1, 78, 100
3, 1109580, Note_on_c, 1, 78, 0
3, 1109580, Note_on_c, 1, 81, 100
3, 1109640, Note_on_c, 1, 81, 0
3, 1109640, Note_on_c, 1, 83, 100
3, 1109700, Note_on_c, 1, 83, 0
3, 1109700, Note_on_c, 1, 84, 100
3, 1109760, Note_on_c, 1, 84, 0
3, 1109760, Note_on_c, 1, 83, 100
3, 1109820, Note_on_c, 1, 83, 0
3, 1109820, Note_on_c, 1, 81, 100
3, 1109880, Note_on_c, 1, 81, 0
3, 1109880, Note_on_c, 1, 79, 100
3, 1110060, Note_on_c, 1, 79, 0
3, 1110060, Note_on_c, 1, 78, 100
3, 1110120, Note_on_c, 1, 78, 0
3, 1110120, Note_on_c, 1, 76, 100
3, 1110300, Note_on_c, 1, 76, 0
3, 1110300, Note_on_c, 1, 75, 100
3, 1110360, Note_on_c, 1, 75, 0
3, 1110360, Note_on_c, 1, 76, 100
3, 1110540, Note_on_c, 1, 76, 0
3, 1110540, Note_on_c, 1, 78, 100
3, 1110600, Note_on_c, 1, 78, 0
3, 1110600, Note_on_c, 1, 79, 100
3, 1110780, Note_on_c, 1, 79, 0
3, 1110780, Note_on_c, 1, 81, 100
3, 1110840, Note_on_c, 1, 81, 0
3, 1110840, Note_on_c, 1, 83, 100
3, 1111020, Note_on_c, 1, 83, 0
3, 1111020, Note_on_c, 1, 79, 100
3, 1111080, Note_on_c, 1, 79, 0
3, 1111080, Note_on_c, 1, 78, 100
3, 1111140, Note_on_c, 1, 78, 0
3, 1111140, Note_on_c, 1, 76, 100
3, 1111200, Note_on_c, 1, 76, 0
3, 1111200, Note_on_c, 1, 81, 100
3, 1111260, Note_on_c, 1, 81, 0
3, 1111260, Note_on_c, 1, 79, 100
3, 1111320, Note_on_c, 1, 79, 0
3, 1111320, Note_on_c, 1, 78, 100
3, 1111500, Note_on_c, 1, 78, 0
3, 1111500, Note_on_c, 1, 76, 100
3, 1111560, Note_on_c, 1, 76, 0
3, 1111560, Note_on_c, 1, 74, 100
3, 1111740, Note_on_c, 1, 74, 0
3, 1111740, Note_on_c, 1, 73, 100
3, 1111800, Note_on_c, 1, 73, 0
3, 1111800, Note_on_c, 1, 74, 100
3, 1111980, Note_on_c, 1, 74, 0
3, 1111980, Note_on_c, 1, 76, 100
3, 1112040, Note_on_c, 1, 76, 0
3, 1112040, Note_on_c, 1, 78, 100
3, 1112220, Note_on_c, 1, 78, 0
3, 1112220, Note_on_c, 1, 79, 100
3, 1112280, Note_on_c, 1, 79, 0
3, 1112280, Note_on_c, 1, 81, 100
3, 1112460, Note_on_c, 1, 81, 0
3, 1112460, Note_on_c, 1, 78, 100
3, 1112520, Note_on_c, 1, 78, 0
3, 1112520, Note_on_c, 1, 76, 100
3, 1112580, Note_on_c, 1, 76, 0
3, 1112580, Note_on_c, 1, 74, 100
3, 1112640, Note_on_c, 1, 74, 0
3, 1112640, Note_on_c, 1, 79, 100
3, 1112700, Note_on_c, 1, 79, 0
3, 1112700, Note_on_c, 1, 81, 100
3, 1112760, Note_on_c, 1, 81, 0
3, 1112760, Note_on_c, 1, 83, 100
3, 1112820, Note_on_c, 1, 83, 0
3, 1112820, Note_on_c, 1, 81, 100
3, 1112880, Note_on_c, 1, 81, 0
3, 1112880, Note_on_c, 1, 79, 100
3, 1113000, Note_on_c, 1, 79, 0
3, 1113000, Note_on_c, 1, 78, 100
3, 1113120, Note_on_c, 1, 78, 0
3, 1113120, Note_on_c, 1, 76, 100
3, 1113180, Note_on_c, 1, 76, 0
3, 1113180, Note_on_c, 1, 78, 100
3, 1113240, Note_on_c, 1, 78, 0
3, 1113240, Note_on_c, 1, 79, 100
3, 1113300, Note_on_c, 1, 79, 0
3, 1113300, Note_on_c, 1, 78, 100
3, 1113360, Note_on_c, 1, 78, 0
3, 1113360, Note_on_c, 1, 76, 100
3, 1113480, Note_on_c, 1, 76, 0
3, 1113480, Note_on_c, 1, 74, 100
3, 1113600, Note_on_c, 1, 74, 0
3, 1113600, Note_on_c, 1, 73, 100
3, 1113660, Note_on_c, 1, 73, 0
3, 1113660, Note_on_c, 1, 74, 100
3, 1113720, Note_on_c, 1, 74, 0
3, 1113720, Note_on_c, 1, 76, 100
3, 1113780, Note_on_c, 1, 76, 0
3, 1113780, Note_on_c, 1, 74, 100
3, 1113840, Note_on_c, 1, 74, 0
3, 1113840, Note_on_c, 1, 73, 100
3, 1113960, Note_on_c, 1, 73, 0
3, 1113960, Note_on_c, 1, 71, 100
3, 1114080, Note_on_c, 1, 71, 0
3, 1114080, Note_on_c, 1, 71, 100
3, 1114120, Note_on_c, 1, 71, 0
3, 1114120, Note_on_c, 1, 69, 100
3, 1114160, Note_on_c, 1, 69, 0
3, 1114160, Note_on_c, 1, 71, 100
3, 1114200, Note_on_c, 1, 71, 0
3, 1114200, Note_on_c, 1, 69, 100
3, 1114240, Note_on_c, 1, 69, 0
3, 1114240, Note_on_c, 1, 71, 100
3, 1114280, Note_on_c, 1, 71, 0
3, 1114280, Note_on_c, 1, 69, 100
3, 1114320, Note_on_c, 1, 69, 0
3, 1114320, Note_on_c, 1, 71, 100
3, 1114360, Note_on_c, 1, 71, 0
3, 1114360, Note_on_c, 1, 69, 100
3, 1114400, Note_on_c, 1, 69, 0
3, 1114400, Note_on_c, 1, 71, 100
3, 1114440, Note_on_c, 1, 71, 0
3, 1114440, Note_on_c, 1, 69, 100
3, 1114480, Note_on_c, 1, 69, 0
3, 1114480, Note_on_c, 1, 71, 100
3, 1114520, Note_on_c, 1, 71, 0
3, 1114520, Note_on_c, 1, 69, 100
3, 1114560, Note_on_c, 1, 69, 0
3, 1114560, Note_on_c, 1, 71, 100
3, 1114600, Note_on_c, 1, 71, 0
3, 1114600, Note_on_c, 1, 69, 100
3, 1114640, Note_on_c, 1, 69, 0
3, 1114640, Note_on_c, 1, 71, 100
3, 1114680, Note_on_c, 1, 71, 0
3, 1114680, Note_on_c, 1, 69, 100
3, 1114860, Note_on_c, 1, 69, 0
3, 1114860, Note_on_c, 1, 73, 100
3, 1114920, Note_on_c, 1, 73, 0
3, 1114920, Note_on_c, 1, 71, 100
3, 1114980, Note_on_c, 1, 71, 0
3, 1114980, Note_on_c, 1, 69, 100
3, 1115040, Note_on_c, 1, 69, 0
3, 1115040, Note_on_c, 1, 71, 100
3, 1115100, Note_on_c, 1, 71, 0
3, 1115100, Note_on_c, 1, 73, 100
3, 1115160, Note_on_c, 1, 73, 0
3, 1115160, Note_on_c, 1, 74, 100
3, 1115220, Note_on_c, 1, 74, 0
3, 1115220, Note_on_c, 1, 76, 100
3, 1115280, Note_on_c, 1, 76, 0
3, 1115280, Note_on_c, 1, 78, 100
3, 1115400, Note_on_c, 1, 78, 0
3, 1115400, Note_on_c, 1, 81, 100
3, 1115430, Note_on_c, 1, 81, 0
3, 1115430, Note_on_c, 1, 79, 100
3, 1115460, Note_on_c, 1, 79, 0
3, 1115460, Note_on_c, 1, 78, 100
3, 1115490, Note_on_c, 1, 78, 0
3, 1115490, Note_on_c, 1, 79, 100
3, 1115520, Note_on_c, 1, 79, 0
3, 1115520, Note_on_c, 1, 81, 100
3, 1115580, Note_on_c, 1, 81, 0
3, 1115580, Note_on_c, 1, 74, 100
3, 1115640, Note_on_c, 1, 74, 0
3, 1115640, Note_on_c, 1, 73, 100
3, 1115700, Note_on_c, 1, 73, 0
3, 1115700, Note_on_c, 1, 74, 100
3, 1115760, Note_on_c, 1, 74, 0
3, 1115760, Note_on_c, 1, 76, 100
3, 1115820, Note_on_c, 1, 76, 0
3, 1115820, Note_on_c, 1, 74, 100
3, 1115880, Note_on_c, 1, 74, 0
3, 1115880, Note_on_c, 1, 73, 100
3, 1115940, Note_on_c, 1, 73, 0
3, 1115940, Note_on_c, 1, 74, 100
3, 1116000, Note_on_c, 1, 74, 0
3, 1116000, Note_on_c, 1, 69, 100
3, 1116060, Note_on_c, 1, 69, 0
3, 1116060, Note_on_c, 1, 74, 100
3, 1116120, Note_on_c, 1, 74, 0
3, 1116120, Note_on_c, 1, 67, 100
3, 1116180, Note_on_c, 1, 67, 0
3, 1116180, Note_on_c, 1, 74, 100
3, 1116240, Note_on_c, 1, 74, 0
3, 1116240, Note_on_c, 1, 66, 100
3, 1116300, Note_on_c, 1, 66, 0
3, 1116300, Note_on_c, 1, 74, 100
3, 1116360, Note_on_c, 1, 74, 0
3, 1116360, Note_on_c, 1, 64, 100
3, 1116420, Note_on_c, 1, 64, 0
3, 1116420, Note_on_c, 1, 74, 100
3, 1116480, Note_on_c, 1, 74, 0
3, 1116480, Note_on_c, 1, 66, 100
3, 1116540, Note_on_c, 1, 66, 0
3, 1116540, Note_on_c, 1, 74, 100
3, 1116600, Note_on_c, 1, 74, 0
3, 1116600, Note_on_c, 1, 69, 100
3, 1116660, Note_on_c, 1, 69, 0
3, 1116660, Note_on_c, 1, 74, 100
3, 1116720, Note_on_c, 1, 74, 0
3, 1116720, Note_on_c, 1, 66, 100
3, 1116780, Note_on_c, 1, 66, 0
3, 1116780, Note_on_c, 1, 74, 100
3, 1116840, Note_on_c, 1, 74, 0
3, 1116840, Note_on_c, 1, 62, 100
3, 1116900, Note_on_c, 1, 62, 0
3, 1116900, Note_on_c, 1, 72, 100
3, 1116960, Note_on_c, 1, 72, 0
3, 1116960, Note_on_c, 1, 71, 100
3, 1117020, Note_on_c, 1, 71, 0
3, 1117020, Note_on_c, 1, 74, 100
3, 1117080, Note_on_c, 1, 74, 0
3, 1117080, Note_on_c, 1, 73, 100
3, 1117140, Note_on_c, 1, 73, 0
3, 1117140, Note_on_c, 1, 74, 100
3, 1117200, Note_on_c, 1, 74, 0
3, 1117200, Note_on_c, 1, 76, 100
3, 1117260, Note_on_c, 1, 76, 0
3, 1117260, Note_on_c, 1, 74, 100
3, 1117320, Note_on_c, 1, 74, 0
3, 1117320, Note_on_c, 1, 73, 100
3, 1117380, Note_on_c, 1, 73, 0
3, 1117380, Note_on_c, 1, 74, 100
3, 1117440, Note_on_c, 1, 74, 0
3, 1117440, Note_on_c, 1, 71, 100
3, 1117500, Note_on_c, 1, 71, 0
3, 1117500, Note_on_c, 1, 74, 100
3, 1117560, Note_on_c, 1, 74, 0
3, 1117560, Note_on_c, 1, 69, 100
3, 1117620, Note_on_c, 1, 69, 0
3, 1117620, Note_on_c, 1, 74, 100
3, 1117680, Note_on_c, 1, 74, 0
3, 1117680, Note_on_c, 1, 67, 100
3, 1117740, Note_on_c, 1, 67, 0
3, 1117740, Note_on_c, 1, 74, 100
3, 1117800, Note_on_c, 1, 74, 0
3, 1117800, Note_on_c, 1, 66, 100
3, 1117860, Note_on_c, 1, 66, 0
3, 1117860, Note_on_c, 1, 74, 100
3, 1117920, Note_on_c, 1, 74, 0
3, 1117920, Note_on_c, 1, 67, 100
3, 1117980, Note_on_c, 1, 67, 0
3, 1117980, Note_on_c, 1, 74, 100
3, 1118040, Note_on_c, 1, 74, 0
3, 1118040, Note_on_c, 1, 71, 100
3, 1118100, Note_on_c, 1, 71, 0
3, 1118100, Note_on_c, 1, 74, 100
3, 1118160, Note_on_c, 1, 74, 0
3, 1118160, Note_on_c, 1, 67, 100
3, 1118220, Note_on_c, 1, 67, 0
3, 1118220, Note_on_c, 1, 74, 100
3, 1118280, Note_on_c, 1, 74, 0
3, 1118280, Note_on_c, 1, 64, 100
3, 1118340, Note_on_c, 1, 64, 0
3, 1118340, Note_on_c, 1, 74, 100
3, 1118400, Note_on_c, 1, 74, 0
3, 1118400, Note_on_c, 1, 73, 100
3, 1118460, Note_on_c, 1, 73, 0
3, 1118460, Note_on_c, 1, 67, 100
3, 1118520, Note_on_c, 1, 67, 0
3, 1118520, Note_on_c, 1, 66, 100
3, 1118580, Note_on_c, 1, 66, 0
3, 1118580, Note_on_c, 1, 67, 100
3, 1118640, Note_on_c, 1, 67, 0
3, 1118640, Note_on_c, 1, 69, 100
3, 1118700, Note_on_c, 1, 69, 0
3, 1118700, Note_on_c, 1, 67, 100
3, 1118760, Note_on_c, 1, 67, 0
3, 1118760, Note_on_c, 1, 66, 100
3, 1118820, Note_on_c, 1, 66, 0
3, 1118820, Note_on_c, 1, 67, 100
3, 1118880, Note_on_c, 1, 67, 0
3, 1118880, Note_on_c, 1, 76, 100
3, 1118940, Note_on_c, 1, 76, 0
3, 1118940, Note_on_c, 1, 73, 100
3, 1119000, Note_on_c, 1, 73, 0
3, 1119000, Note_on_c, 1, 71, 100
3, 1119060, Note_on_c, 1, 71, 0
3, 1119060, Note_on_c, 1, 73, 100
3, 1119120, Note_on_c, 1, 73, 0
3, 1119120, Note_on_c, 1, 74, 100
3, 1119180, Note_on_c, 1, 74, 0
3, 1119180, Note_on_c, 1, 73, 100
3, 1119240, Note_on_c, 1, 73, 0
3, 1119240, Note_on_c, 1, 71, 100
3, 1119300, Note_on_c, 1, 71, 0
3, 1119300, Note_on_c, 1, 73, 100
3, 1119360, Note_on_c, 1, 73, 0
3, 1119360, Note_on_c, 1, 79, 100
3, 1119420, Note_on_c, 1, 79, 0
3, 1119420, Note_on_c, 1, 76, 100
3, 1119480, Note_on_c, 1, 76, 0
3, 1119480, Note_on_c, 1, 74, 100
3, 1119540, Note_on_c, 1, 74, 0
3, 1119540, Note_on_c, 1, 76, 100
3, 1119600, Note_on_c, 1, 76, 0
3, 1119600, Note_on_c, 1, 81, 100
3, 1119660, Note_on_c, 1, 81, 0
3, 1119660, Note_on_c, 1, 79, 100
3, 1119720, Note_on_c, 1, 79, 0
3, 1119720, Note_on_c, 1, 78, 100
3, 1119780, Note_on_c, 1, 78, 0
3, 1119780, Note_on_c, 1, 76, 100
3, 1119840, Note_on_c, 1, 76, 0
3, 1119840, Note_on_c, 1, 78, 100
3, 1119960, Note_on_c, 1, 78, 0
3, 1119960, Note_on_c, 1, 73, 100
3, 1120080, Note_on_c, 1, 73, 0
3, 1120080, Note_on_c, 1, 73, 100
3, 1120200, Note_on_c, 1, 73, 0
3, 1120200, Note_on_c, 1, 74, 100
3, 1120320, Note_on_c, 1, 74, 0
3, 1120320, Note_on_c, 1, 74, 100
3, 1120440, Note_on_c, 1, 74, 0
3, 1120440, Note_on_c, 1, 67, 100
3, 1120560, Note_on_c, 1, 67, 0
3, 1120560, Note_on_c, 1, 67, 100
3, 1120680, Note_on_c, 1, 67, 0
3, 1120680, Note_on_c, 1, 66, 100
3, 1120800, Note_on_c, 1, 66, 0
3, 1120800, Note_on_c, 1, 66, 100
3, 1121280, Note_on_c, 1, 66, 0
3, 1121280, Note_on_c, 1, 78, 100
3, 1121340, Note_on_c, 1, 78, 0
3, 1121340, Note_on_c, 1, 79, 100
3, 1121400, Note_on_c, 1, 79, 0
3, 1121400, Note_on_c, 1, 78, 100
3, 1121460, Note_on_c, 1, 78, 0
3, 1121460, Note_on_c, 1, 76, 100
3, 1121520, Note_on_c, 1, 76, 0
3, 1121520, Note_on_c, 1, 78, 100
3, 1121820, Note_on_c, 1, 78, 0
3, 1121820, Note_on_c, 1, 76, 100
3, 1121880, Note_on_c, 1, 76, 0
3, 1121880, Note_on_c, 1, 78, 100
3, 1121940, Note_on_c, 1, 78, 0
3, 1121940, Note_on_c, 1, 79, 100
3, 1122000, Note_on_c, 1, 79, 0
3, 1122000, Note_on_c, 1, 81, 100
3, 1122120, Note_on_c, 1, 81, 0
3, 1122120, Note_on_c, 1, 83, 100
3, 1122240, Note_on_c, 1, 83, 0
3, 1122240, Note_on_c, 1, 84, 100
3, 1122270, Note_on_c, 1, 84, 0
3, 1122270, Note_on_c, 1, 83, 100
3, 1122360, Note_on_c, 1, 83, 0
3, 1122360, Note_on_c, 1, 81, 100
3, 1122480, Note_on_c, 1, 81, 0
3, 1122480, Note_on_c, 1, 79, 100
3, 1122600, Note_on_c, 1, 79, 0
3, 1122600, Note_on_c, 1, 78, 100
3, 1122720, Note_on_c, 1, 78, 0
3, 1122720, Note_on_c, 1, 79, 100
3, 1122780, Note_on_c, 1, 79, 0
3, 1122780, Note_on_c, 1, 81, 100
3, 1122840, Note_on_c, 1, 81, 0
3, 1122840, Note_on_c, 1, 79, 100
3, 1122900, Note_on_c, 1, 79, 0
3, 1122900, Note_on_c, 1, 78, 100
3, 1122960, Note_on_c, 1, 78, 0
3, 1122960, Note_on_c, 1, 79, 100
3, 1123260, Note_on_c, 1, 79, 0
3, 1123260, Note_on_c, 1, 66, 100
3, 1123320, Note_on_c, 1, 66, 0
3, 1123320, Note_on_c, 1, 67, 100
3, 1123380, Note_on_c, 1, 67, 0
3, 1123380, Note_on_c, 1, 69, 100
3, 1123440, Note_on_c, 1, 69, 0
3, 1123440, Note_on_c, 1, 71, 100
3, 1123560, Note_on_c, 1, 71, 0
3, 1123560, Note_on_c, 1, 72, 100
3, 1123680, Note_on_c, 1, 72, 0
3, 1123680, Note_on_c, 1, 74, 100
3, 1123710, Note_on_c, 1, 74, 0
3, 1123710, Note_on_c, 1, 72, 100
3, 1123800, Note_on_c, 1, 72, 0
3, 1123800, Note_on_c, 1, 71, 100
3, 1123920, Note_on_c, 1, 71, 0
3, 1123920, Note_on_c, 1, 69, 100
3, 1124040, Note_on_c, 1, 69, 0
3, 1124040, Note_on_c, 1, 67, 100
3, 1124160, Note_on_c, 1, 67, 0
3, 1124160, Note_on_c, 1, 76, 100
3, 1124220, Note_on_c, 1, 76, 0
3, 1124220, Note_on_c, 1, 78, 100
3, 1124280, Note_on_c, 1, 78, 0
3, 1124280, Note_on_c, 1, 76, 100
3, 1124340, Note_on_c, 1, 76, 0
3, 1124340, Note_on_c, 1, 75, 100
3, 1124400, Note_on_c, 1, 75, 0
3, 1124400, Note_on_c, 1, 76, 100
3, 1124760, Note_on_c, 1, 76, 0
3, 1124760, Note_on_c, 1, 80, 100
3, 1124880, Note_on_c, 1, 80, 0
3, 1124880, Note_on_c, 1, 80, 100
3, 1125000, Note_on_c, 1, 80, 0
3, 1125000, Note_on_c, 1, 81, 100
3, 1125120, Note_on_c, 1, 81, 0
3, 1125120, Note_on_c, 1, 81, 100
3, 1125240, Note_on_c, 1, 81, 0
3, 1125240, Note_on_c, 1, 83, 100
3, 1125360, Note_on_c, 1, 83, 0
3, 1125360, Note_on_c, 1, 83, 100
3, 1125480, Note_on_c, 1, 83, 0
3, 1125480, Note_on_c, 1, 84, 100
3, 1125600, Note_on_c, 1, 84, 0
3, 1125600, Note_on_c, 1, 76, 100
3, 1125660, Note_on_c, 1, 76, 0
3, 1125660, Note_on_c, 1, 75, 100
3, 1125720, Note_on_c, 1, 75, 0
3, 1125720, Note_on_c, 1, 73, 100
3, 1125840, Note_on_c, 1, 73, 0
3, 1125840, Note_on_c, 1, 75, 100
3, 1125870, Note_on_c, 1, 75, 0
3, 1125870, Note_on_c, 1, 73, 100
3, 1125900, Note_on_c, 1, 73, 0
3, 1125900, Note_on_c, 1, 75, 100
3, 1126380, Note_on_c, 1, 75, 0
3, 1126380, Note_on_c, 1, 75, 100
3, 1126440, Note_on_c, 1, 75, 0
3, 1126440, Note_on_c, 1, 76, 100
3, 1126500, Note_on_c, 1, 76, 0
3, 1126500, Note_on_c, 1, 78, 100
3, 1126560, Note_on_c, 1, 78, 0
3, 1126560, Note_on_c, 1, 76, 100
3, 1126620, Note_on_c, 1, 76, 0
3, 1126620, Note_on_c, 1, 75, 100
3, 1126680, Note_on_c, 1, 75, 0
3, 1126680, Note_on_c, 1, 73, 100
3, 1126740, Note_on_c, 1, 73, 0
3, 1126740, Note_on_c, 1, 71, 100
3, 1126800, Note_on_c, 1, 71, 0
3, 1126800, Note_on_c, 1, 69, 100
3, 1126860, Note_on_c, 1, 69, 0
3, 1126860, Note_on_c, 1, 67, 100
3, 1126920, Note_on_c, 1, 67, 0
3, 1126920, Note_on_c, 1, 69, 100
3, 1126980, Note_on_c, 1, 69, 0
3, 1126980, Note_on_c, 1, 78, 100
3, 1127040, Note_on_c, 1, 78, 0
3, 1127040, Note_on_c, 1, 67, 100
3, 1127100, Note_on_c, 1, 67, 0
3, 1127100, Note_on_c, 1, 76, 100
3, 1127160, Note_on_c, 1, 76, 0
3, 1127160, Note_on_c, 1, 75, 100
3, 1127220, Note_on_c, 1, 75, 0
3, 1127220, Note_on_c, 1, 76, 100
3, 1127280, Note_on_c, 1, 76, 0
3, 1127280, Note_on_c, 1, 77, 100
3, 1127340, Note_on_c, 1, 77, 0
3, 1127340, Note_on_c, 1, 76, 100
3, 1127400, Note_on_c, 1, 76, 0
3, 1127400, Note_on_c, 1, 75, 100
3, 1127460, Note_on_c, 1, 75, 0
3, 1127460, Note_on_c, 1, 76, 100
3, 1127520, Note_on_c, 1, 76, 0
3, 1127520, Note_on_c, 1, 78, 100
3, 1127580, Note_on_c, 1, 78, 0
3, 1127580, Note_on_c, 1, 76, 100
3, 1127640, Note_on_c, 1, 76, 0
3, 1127640, Note_on_c, 1, 79, 100
3, 1127700, Note_on_c, 1, 79, 0
3, 1127700, Note_on_c, 1, 76, 100
3, 1127760, Note_on_c, 1, 76, 0
3, 1127760, Note_on_c, 1, 81, 100
3, 1127820, Note_on_c, 1, 81, 0
3, 1127820, Note_on_c, 1, 76, 100
3, 1127880, Note_on_c, 1, 76, 0
3, 1127880, Note_on_c, 1, 83, 100
3, 1127940, Note_on_c, 1, 83, 0
3, 1127940, Note_on_c, 1, 76, 100
3, 1128000, Note_on_c, 1, 76, 0
3, 1128000, Note_on_c, 1, 84, 100
3, 1128060, Note_on_c, 1, 84, 0
3, 1128060, Note_on_c, 1, 76, 100
3, 1128120, Note_on_c, 1, 76, 0
3, 1128120, Note_on_c, 1, 86, 100
3, 1128180, Note_on_c, 1, 86, 0
3, 1128180, Note_on_c, 1, 76, 100
3, 1128240, Note_on_c, 1, 76, 0
3, 1128240, Note_on_c, 1, 84, 100
3, 1128300, Note_on_c, 1, 84, 0
3, 1128300, Note_on_c, 1, 76, 100
3, 1128360, Note_on_c, 1, 76, 0
3, 1128360, Note_on_c, 1, 83, 100
3, 1128420, Note_on_c, 1, 83, 0
3, 1128420, Note_on_c, 1, 76, 100
3, 1128480, Note_on_c, 1, 76, 0
3, 1128480, Note_on_c, 1, 84, 100
3, 1128540, Note_on_c, 1, 84, 0
3, 1128540, Note_on_c, 1, 76, 100
3, 1128600, Note_on_c, 1, 76, 0
3, 1128600, Note_on_c, 1, 75, 100
3, 1128660, Note_on_c, 1, 75, 0
3, 1128660, Note_on_c, 1, 76, 100
3, 1128720, Note_on_c, 1, 76, 0
3, 1128720, Note_on_c, 1, 77, 100
3, 1128780, Note_on_c, 1, 77, 0
3, 1128780, Note_on_c, 1, 76, 100
3, 1128840, Note_on_c, 1, 76, 0
3, 1128840, Note_on_c, 1, 75, 100
3, 1128900, Note_on_c, 1, 75, 0
3, 1128900, Note_on_c, 1, 76, 100
3, 1128960, Note_on_c, 1, 76, 0
3, 1128960, Note_on_c, 1, 84, 100
3, 1129020, Note_on_c, 1, 84, 0
3, 1129020, Note_on_c, 1, 76, 100
3, 1129080, Note_on_c, 1, 76, 0
3, 1129080, Note_on_c, 1, 83, 100
3, 1129140, Note_on_c, 1, 83, 0
3, 1129140, Note_on_c, 1, 76, 100
3, 1129200, Note_on_c, 1, 76, 0
3, 1129200, Note_on_c, 1, 81, 100
3, 1129260, Note_on_c, 1, 81, 0
3, 1129260, Note_on_c, 1, 76, 100
3, 1129320, Note_on_c, 1, 76, 0
3, 1129320, Note_on_c, 1, 79, 100
3, 1129380, Note_on_c, 1, 79, 0
3, 1129380, Note_on_c, 1, 76, 100
3, 1129440, Note_on_c, 1, 76, 0
3, 1129440, Note_on_c, 1, 78, 100
3, 1129500, Note_on_c, 1, 78, 0
3, 1129500, Note_on_c, 1, 76, 100
3, 1129560, Note_on_c, 1, 76, 0
3, 1129560, Note_on_c, 1, 79, 100
3, 1129620, Note_on_c, 1, 79, 0
3, 1129620, Note_on_c, 1, 76, 100
3, 1129680, Note_on_c, 1, 76, 0
3, 1129680, Note_on_c, 1, 81, 100
3, 1129740, Note_on_c, 1, 81, 0
3, 1129740, Note_on_c, 1, 76, 100
3, 1129800, Note_on_c, 1, 76, 0
3, 1129800, Note_on_c, 1, 75, 100
3, 1129860, Note_on_c, 1, 75, 0
3, 1129860, Note_on_c, 1, 73, 100
3, 1129920, Note_on_c, 1, 73, 0
3, 1129920, Note_on_c, 1, 75, 100
3, 1129980, Note_on_c, 1, 75, 0
3, 1129980, Note_on_c, 1, 81, 100
3, 1130040, Note_on_c, 1, 81, 0
3, 1130040, Note_on_c, 1, 79, 100
3, 1130100, Note_on_c, 1, 79, 0
3, 1130100, Note_on_c, 1, 81, 100
3, 1130160, Note_on_c, 1, 81, 0
3, 1130160, Note_on_c, 1, 83, 100
3, 1130220, Note_on_c, 1, 83, 0
3, 1130220, Note_on_c, 1, 81, 100
3, 1130280, Note_on_c, 1, 81, 0
3, 1130280, Note_on_c, 1, 79, 100
3, 1130340, Note_on_c, 1, 79, 0
3, 1130340, Note_on_c, 1, 81, 100
3, 1130400, Note_on_c, 1, 81, 0
3, 1130400, Note_on_c, 1, 71, 100
3, 1130460, Note_on_c, 1, 71, 0
3, 1130460, Note_on_c, 1, 79, 100
3, 1130520, Note_on_c, 1, 79, 0
3, 1130520, Note_on_c, 1, 78, 100
3, 1130580, Note_on_c, 1, 78, 0
3, 1130580, Note_on_c, 1, 79, 100
3, 1130640, Note_on_c, 1, 79, 0
3, 1130640, Note_on_c, 1, 81, 100
3, 1130700, Note_on_c, 1, 81, 0
3, 1130700, Note_on_c, 1, 79, 100
3, 1130760, Note_on_c, 1, 79, 0
3, 1130760, Note_on_c, 1, 78, 100
3, 1130820, Note_on_c, 1, 78, 0
3, 1130820, Note_on_c, 1, 79, 100
3, 1130880, Note_on_c, 1, 79, 0
3, 1130880, Note_on_c, 1, 69, 100
3, 1130940, Note_on_c, 1, 69, 0
3, 1130940, Note_on_c, 1, 78, 100
3, 1131000, Note_on_c, 1, 78, 0
3, 1131000, Note_on_c, 1, 76, 100
3, 1131060, Note_on_c, 1, 76, 0
3, 1131060, Note_on_c, 1, 78, 100
3, 1131120, Note_on_c, 1, 78, 0
3, 1131120, Note_on_c, 1, 79, 100
3, 1131180, Note_on_c, 1, 79, 0
3, 1131180, Note_on_c, 1, 81, 100
3, 1131240, Note_on_c, 1, 81, 0
3, 1131240, Note_on_c, 1, 79, 100
3, 1131300, Note_on_c, 1, 79, 0
3, 1131300, Note_on_c, 1, 78, 100
3, 1131360, Note_on_c, 1, 78, 0
3, 1131360, Note_on_c, 1, 79, 100
3, 1131480, Note_on_c, 1, 79, 0
3, 1131480, Note_on_c, 1, 75, 100
3, 1131600, Note_on_c, 1, 75, 0
3, 1131600, Note_on_c, 1, 75, 100
3, 1131720, Note_on_c, 1, 75, 0
3, 1131720, Note_on_c, 1, 76, 100
3, 1131840, Note_on_c, 1, 76, 0
3, 1131840, Note_on_c, 1, 76, 100
3, 1131960, Note_on_c, 1, 76, 0
3, 1131960, Note_on_c, 1, 69, 100
3, 1132080, Note_on_c, 1, 69, 0
3, 1132080, Note_on_c, 1, 69, 100
3, 1132200, Note_on_c, 1, 69, 0
3, 1132200, Note_on_c, 1, 67, 100
3, 1132320, Note_on_c, 1, 67, 0
3, 1132320, Note_on_c, 1, 67, 100
3, 1132380, Note_on_c, 1, 67, 0
3, 1132380, Note_on_c, 1, 66, 100
3, 1132440, Note_on_c, 1, 66, 0
3, 1132440, Note_on_c, 1, 67, 100
3, 1132620, Note_on_c, 1, 67, 0
3, 1132620, Note_on_c, 1, 71, 100
3, 1132680, Note_on_c, 1, 71, 0
3, 1132680, Note_on_c, 1, 72, 100
3, 1132740, Note_on_c, 1, 72, 0
3, 1132740, Note_on_c, 1, 74, 100
3, 1132800, Note_on_c, 1, 74, 0
3, 1132800, Note_on_c, 1, 76, 100
3, 1132860, Note_on_c, 1, 76, 0
3, 1132860, Note_on_c, 1, 77, 100
3, 1132920, Note_on_c, 1, 77, 0
3, 1132920, Note_on_c, 1, 76, 100
3, 1132980, Note_on_c, 1, 76, 0
3, 1132980, Note_on_c, 1, 75, 100
3, 1133040, Note_on_c, 1, 75, 0
3, 1133040, Note_on_c, 1, 76, 100
3, 1133400, Note_on_c, 1, 76, 0
3, 1133400, Note_on_c, 1, 69, 100
3, 1133520, Note_on_c, 1, 69, 0
3, 1133520, Note_on_c, 1, 71, 100
3, 1133550, Note_on_c, 1, 71, 0
3, 1133550, Note_on_c, 1, 69, 100
3, 1133640, Note_on_c, 1, 69, 0
3, 1133640, Note_on_c, 1, 67, 100
3, 1133760, Note_on_c, 1, 67, 0
3, 1133760, Note_on_c, 1, 69, 100
3, 1133790, Note_on_c, 1, 69, 0
3, 1133790, Note_on_c, 1, 67, 100
3, 1133880, Note_on_c, 1, 67, 0
3, 1133880, Note_on_c, 1, 66, 100
3, 1134000, Note_on_c, 1, 66, 0
3, 1134000, Note_on_c, 1, 66, 100
3, 1134120, Note_on_c, 1, 66, 0
3, 1134120, Note_on_c, 1, 76, 100
3, 1134240, Note_on_c, 1, 76, 0
3, 1134240, Note_on_c, 1, 74, 100
3, 1134300, Note_on_c, 1, 74, 0
3, 1134300, Note_on_c, 1, 76, 100
3, 1134360, Note_on_c, 1, 76, 0
3, 1134360, Note_on_c, 1, 74, 100
3, 1134420, Note_on_c, 1, 74, 0
3, 1134420, Note_on_c, 1, 73, 100
3, 1134480, Note_on_c, 1, 73, 0
3, 1134480, Note_on_c, 1, 74, 100
3, 1134840, Note_on_c, 1, 74, 0
3, 1134840, Note_on_c, 1, 67, 100
3, 1134960, Note_on_c, 1, 67, 0
3, 1134960, Note_on_c, 1, 69, 100
3, 1134990, Note_on_c, 1, 69, 0
3, 1134990, Note_on_c, 1, 67, 100
3, 1135080, Note_on_c, 1, 67, 0
3, 1135080, Note_on_c, 1, 65, 100
3, 1135200, Note_on_c, 1, 65, 0
3, 1135200, Note_on_c, 1, 67, 100
3, 1135230, Note_on_c, 1, 67, 0
3, 1135230, Note_on_c, 1, 65, 100
3, 1135320, Note_on_c, 1, 65, 0
3, 1135320, Note_on_c, 1, 64, 100
3, 1135440, Note_on_c, 1, 64, 0
3, 1135440, Note_on_c, 1, 64, 100
3, 1135560, Note_on_c, 1, 64, 0
3, 1135560, Note_on_c, 1, 74, 100
3, 1135680, Note_on_c, 1, 74, 0
3, 1135680, Note_on_c, 1, 72, 100
3, 1135740, Note_on_c, 1, 72, 0
3, 1135740, Note_on_c, 1, 71, 100
3, 1135800, Note_on_c, 1, 71, 0
3, 1135800, Note_on_c, 1, 69, 100
3, 1135980, Note_on_c, 1, 69, 0
3, 1135980, Note_on_c, 1, 67, 100
3, 1136040, Note_on_c, 1, 67, 0
3, 1136040, Note_on_c, 1, 66, 100
3, 1136220, Note_on_c, 1, 66, 0
3, 1136220, Note_on_c, 1, 64, 100
3, 1136280, Note_on_c, 1, 64, 0
3, 1136280, Note_on_c, 1, 62, 100
3, 1136460, Note_on_c, 1, 62, 0
3, 1136460, Note_on_c, 1, 64, 100
3, 1136520, Note_on_c, 1, 64, 0
3, 1136520, Note_on_c, 1, 66, 100
3, 1136700, Note_on_c, 1, 66, 0
3, 1136700, Note_on_c, 1, 67, 100
3, 1136760, Note_on_c, 1, 67, 0
3, 1136760, Note_on_c, 1, 69, 100
3, 1136940, Note_on_c, 1, 69, 0
3, 1136940, Note_on_c, 1, 71, 100
3, 1137000, Note_on_c, 1, 71, 0
3, 1137000, Note_on_c, 1, 72, 100
3, 1137180, Note_on_c, 1, 72, 0
3, 1137180, Note_on_c, 1, 74, 100
3, 1137240, Note_on_c, 1, 74, 0
3, 1137240, Note_on_c, 1, 72, 100
3, 1137300, Note_on_c, 1, 72, 0
3, 1137300, Note_on_c, 1, 71, 100
3, 1137360, Note_on_c, 1, 71, 0
3, 1137360, Note_on_c, 1, 72, 100
3, 1137420, Note_on_c, 1, 72, 0
3, 1137420, Note_on_c, 1, 79, 100
3, 1137480, Note_on_c, 1, 79, 0
3, 1137480, Note_on_c, 1, 78, 100
3, 1137540, Note_on_c, 1, 78, 0
3, 1137540, Note_on_c, 1, 76, 100
3, 1137600, Note_on_c, 1, 76, 0
3, 1137600, Note_on_c, 1, 78, 100
3, 1137660, Note_on_c, 1, 78, 0
3, 1137660, Note_on_c, 1, 83, 100
3, 1137720, Note_on_c, 1, 83, 0
3, 1137720, Note_on_c, 1, 81, 100
3, 1137780, Note_on_c, 1, 81, 0
3, 1137780, Note_on_c, 1, 79, 100
3, 1137840, Note_on_c, 1, 79, 0
3, 1137840, Note_on_c, 1, 81, 100
3, 1137900, Note_on_c, 1, 81, 0
3, 1137900, Note_on_c, 1, 86, 100
3, 1137960, Note_on_c, 1, 86, 0
3, 1137960, Note_on_c, 1, 84, 100
3, 1138020, Note_on_c, 1, 84, 0
3, 1138020, Note_on_c, 1, 83, 100
3, 1138080, Note_on_c, 1, 83, 0
3, 1138080, Note_on_c, 1, 84, 100
3, 1138140, Note_on_c, 1, 84, 0
3, 1138140, Note_on_c, 1, 83, 100
3, 1138200, Note_on_c, 1, 83, 0
3, 1138200, Note_on_c, 1, 81, 100
3, 1138260, Note_on_c, 1, 81, 0
3, 1138260, Note_on_c, 1, 79, 100
3, 1138320, Note_on_c, 1, 79, 0
3, 1138320, Note_on_c, 1, 78, 100
3, 1138380, Note_on_c, 1, 78, 0
3, 1138380, Note_on_c, 1, 76, 100
3, 1138440, Note_on_c, 1, 76, 0
3, 1138440, Note_on_c, 1, 74, 100
3, 1138500, Note_on_c, 1, 74, 0
3, 1138500, Note_on_c, 1, 72, 100
3, 1138560, Note_on_c, 1, 72, 0
3, 1138560, Note_on_c, 1, 71, 100
3, 1138620, Note_on_c, 1, 71, 0
3, 1138620, Note_on_c, 1, 79, 100
3, 1138680, Note_on_c, 1, 79, 0
3, 1138680, Note_on_c, 1, 78, 100
3, 1138740, Note_on_c, 1, 78, 0
3, 1138740, Note_on_c, 1, 79, 100
3, 1138800, Note_on_c, 1, 79, 0
3, 1138800, Note_on_c, 1, 81, 100
3, 1138860, Note_on_c, 1, 81, 0
3, 1138860, Note_on_c, 1, 79, 100
3, 1138920, Note_on_c, 1, 79, 0
3, 1138920, Note_on_c, 1, 78, 100
3, 1138980, Note_on_c, 1, 78, 0
3, 1138980, Note_on_c, 1, 79, 100
3, 1139040, Note_on_c, 1, 79, 0
3, 1139040, Note_on_c, 1, 72, 100
3, 1139100, Note_on_c, 1, 72, 0
3, 1139100, Note_on_c, 1, 78, 100
3, 1139160, Note_on_c, 1, 78, 0
3, 1139160, Note_on_c, 1, 76, 100
3, 1139220, Note_on_c, 1, 76, 0
3, 1139220, Note_on_c, 1, 78, 100
3, 1139280, Note_on_c, 1, 78, 0
3, 1139280, Note_on_c, 1, 79, 100
3, 1139340, Note_on_c, 1, 79, 0
3, 1139340, Note_on_c, 1, 78, 100
3, 1139400, Note_on_c, 1, 78, 0
3, 1139400, Note_on_c, 1, 76, 100
3, 1139460, Note_on_c, 1, 76, 0
3, 1139460, Note_on_c, 1, 78, 100
3, 1139520, Note_on_c, 1, 78, 0
3, 1139520, Note_on_c, 1, 74, 100
3, 1139580, Note_on_c, 1, 74, 0
3, 1139580, Note_on_c, 1, 77, 100
3, 1139640, Note_on_c, 1, 77, 0
3, 1139640, Note_on_c, 1, 76, 100
3, 1139700, Note_on_c, 1, 76, 0
3, 1139700, Note_on_c, 1, 77, 100
3, 1139760, Note_on_c, 1, 77, 0
3, 1139760, Note_on_c, 1, 79, 100
3, 1139820, Note_on_c, 1, 79, 0
3, 1139820, Note_on_c, 1, 77, 100
3, 1139880, Note_on_c, 1, 77, 0
3, 1139880, Note_on_c, 1, 76, 100
3, 1139940, Note_on_c, 1, 76, 0
3, 1139940, Note_on_c, 1, 74, 100
3, 1140000, Note_on_c, 1, 74, 0
3, 1140000, Note_on_c, 1, 76, 100
3, 1140060, Note_on_c, 1, 76, 0
3, 1140060, Note_on_c, 1, 72, 100
3, 1140120, Note_on_c, 1, 72, 0
3, 1140120, Note_on_c, 1, 71, 100
3, 1140180, Note_on_c, 1, 71, 0
3, 1140180, Note_on_c, 1, 72, 100
3, 1140240, Note_on_c, 1, 72, 0
3, 1140240, Note_on_c, 1, 74, 100
3, 1140300, Note_on_c, 1, 74, 0
3, 1140300, Note_on_c, 1, 72, 100
3, 1140360, Note_on_c, 1, 72, 0
3, 1140360, Note_on_c, 1, 71, 100
3, 1140420, Note_on_c, 1, 71, 0
3, 1140420, Note_on_c, 1, 72, 100
3, 1140480, Note_on_c, 1, 72, 0
3, 1140480, Note_on_c, 1, 74, 100
3, 1140540, Note_on_c, 1, 74, 0
3, 1140540, Note_on_c, 1, 71, 100
3, 1140600, Note_on_c, 1, 71, 0
3, 1140600, Note_on_c, 1, 69, 100
3, 1140660, Note_on_c, 1, 69, 0
3, 1140660, Note_on_c, 1, 71, 100
3, 1140720, Note_on_c, 1, 71, 0
3, 1140720, Note_on_c, 1, 72, 100
3, 1140780, Note_on_c, 1, 72, 0
3, 1140780, Note_on_c, 1, 71, 100
3, 1140840, Note_on_c, 1, 71, 0
3, 1140840, Note_on_c, 1, 69, 100
3, 1140900, Note_on_c, 1, 69, 0
3, 1140900, Note_on_c, 1, 71, 100
3, 1140960, Note_on_c, 1, 71, 0
3, 1140960, Note_on_c, 1, 73, 100
3, 1141020, Note_on_c, 1, 73, 0
3, 1141020, Note_on_c, 1, 70, 100
3, 1141080, Note_on_c, 1, 70, 0
3, 1141080, Note_on_c, 1, 69, 100
3, 1141140, Note_on_c, 1, 69, 0
3, 1141140, Note_on_c, 1, 70, 100
3, 1141200, Note_on_c, 1, 70, 0
3, 1141200, Note_on_c, 1, 72, 100
3, 1141260, Note_on_c, 1, 72, 0
3, 1141260, Note_on_c, 1, 70, 100
3, 1141320, Note_on_c, 1, 70, 0
3, 1141320, Note_on_c, 1, 69, 100
3, 1141380, Note_on_c, 1, 69, 0
3, 1141380, Note_on_c, 1, 67, 100
3, 1141440, Note_on_c, 1, 67, 0
3, 1141440, Note_on_c, 1, 66, 100
3, 1141500, Note_on_c, 1, 66, 0
3, 1141500, Note_on_c, 1, 72, 100
3, 1141560, Note_on_c, 1, 72, 0
3, 1141560, Note_on_c, 1, 71, 100
3, 1141620, Note_on_c, 1, 71, 0
3, 1141620, Note_on_c, 1, 72, 100
3, 1141680, Note_on_c, 1, 72, 0
3, 1141680, Note_on_c, 1, 74, 100
3, 1141740, Note_on_c, 1, 74, 0
3, 1141740, Note_on_c, 1, 72, 100
3, 1141800, Note_on_c, 1, 72, 0
3, 1141800, Note_on_c, 1, 71, 100
3, 1141860, Note_on_c, 1, 71, 0
3, 1141860, Note_on_c, 1, 72, 100
3, 1141920, Note_on_c, 1, 72, 0
3, 1141920, Note_on_c, 1, 78, 100
3, 1141980, Note_on_c, 1, 78, 0
3, 1141980, Note_on_c, 1, 72, 100
3, 1142040, Note_on_c, 1, 72, 0
3, 1142040, Note_on_c, 1, 71, 100
3, 1142100, Note_on_c, 1, 71, 0
3, 1142100, Note_on_c, 1, 72, 100
3, 1142160, Note_on_c, 1, 72, 0
3, 1142160, Note_on_c, 1, 74, 100
3, 1142220, Note_on_c, 1, 74, 0
3, 1142220, Note_on_c, 1, 72, 100
3, 1142280, Note_on_c, 1, 72, 0
3, 1142280, Note_on_c, 1, 71, 100
3, 1142340, Note_on_c, 1, 71, 0
3, 1142340, Note_on_c, 1, 72, 100
3, 1142400, Note_on_c, 1, 72, 0
3, 1142400, Note_on_c, 1, 81, 100
3, 1142460, Note_on_c, 1, 81, 0
3, 1142460, Note_on_c, 1, 72, 100
3, 1142520, Note_on_c, 1, 72, 0
3, 1142520, Note_on_c, 1, 71, 100
3, 1142580, Note_on_c, 1, 71, 0
3, 1142580, Note_on_c, 1, 72, 100
3, 1142640, Note_on_c, 1, 72, 0
3, 1142640, Note_on_c, 1, 74, 100
3, 1142700, Note_on_c, 1, 74, 0
3, 1142700, Note_on_c, 1, 72, 100
3, 1142760, Note_on_c, 1, 72, 0
3, 1142760, Note_on_c, 1, 71, 100
3, 1142820, Note_on_c, 1, 71, 0
3, 1142820, Note_on_c, 1, 69, 100
3, 1142880, Note_on_c, 1, 69, 0
3, 1142880, Note_on_c, 1, 71, 100
3, 1143000, Note_on_c, 1, 71, 0
3, 1143000, Note_on_c, 1, 66, 100
3, 1143120, Note_on_c, 1, 66, 0
3, 1143120, Note_on_c, 1, 66, 100
3, 1143240, Note_on_c, 1, 66, 0
3, 1143240, Note_on_c, 1, 67, 100
3, 1143360, Note_on_c, 1, 67, 0
3, 1143360, Note_on_c, 1, 67, 100
3, 1143480, Note_on_c, 1, 67, 0
3, 1143480, Note_on_c, 1, 60, 100
3, 1143600, Note_on_c, 1, 60, 0
3, 1143600, Note_on_c, 1, 60, 100
3, 1143720, Note_on_c, 1, 60, 0
3, 1143720, Note_on_c, 1, 59, 100
3, 1143840, Note_on_c, 1, 59, 0
3, 1143840, Note_on_c, 1, 59, 100
3, 1144320, Note_on_c, 1, 59, 0
3, 1144320, Note_on_c, 1, 78, 100
3, 1144380, Note_on_c, 1, 78, 0
3, 1144380, Note_on_c, 1, 79, 100
3, 1144440, Note_on_c, 1, 79, 0
3, 1144440, Note_on_c, 1, 78, 100
3, 1144500, Note_on_c, 1, 78, 0
3, 1144500, Note_on_c, 1, 76, 100
3, 1144560, Note_on_c, 1, 76, 0
3, 1144560, Note_on_c, 1, 78, 100
3, 1144860, Note_on_c, 1, 78, 0
3, 1144860, Note_on_c, 1, 76, 100
3, 1144920, Note_on_c, 1, 76, 0
3, 1144920, Note_on_c, 1, 78, 100
3, 1144980, Note_on_c, 1, 78, 0
3, 1144980, Note_on_c, 1, 79, 100
3, 1145040, Note_on_c, 1, 79, 0
3, 1145040, Note_on_c, 1, 81, 100
3, 1145160, Note_on_c, 1, 81, 0
3, 1145160, Note_on_c, 1, 83, 100
3, 1145280, Note_on_c, 1, 83, 0
3, 1145280, Note_on_c, 1, 84, 100
3, 1145310, Note_on_c, 1, 84, 0
3, 1145310, Note_on_c, 1, 83, 100
3, 1145400, Note_on_c, 1, 83, 0
3, 1145400, Note_on_c, 1, 81, 100
3, 1145520, Note_on_c, 1, 81, 0
3, 1145520, Note_on_c, 1, 79, 100
3, 1145640, Note_on_c, 1, 79, 0
3, 1145640, Note_on_c, 1, 78, 100
3, 1145760, Note_on_c, 1, 78, 0
3, 1145760, Note_on_c, 1, 79, 100
3, 1145820, Note_on_c, 1, 79, 0
3, 1145820, Note_on_c, 1, 81, 100
3, 1145880, Note_on_c, 1, 81, 0
3, 1145880, Note_on_c, 1, 79, 100
3, 1145940, Note_on_c, 1, 79, 0
3, 1145940, Note_on_c, 1, 78, 100
3, 1146000, Note_on_c, 1, 78, 0
3, 1146000, Note_on_c, 1, 79, 100
3, 1146300, Note_on_c, 1, 79, 0
3, 1146300, Note_on_c, 1, 66, 100
3, 1146360, Note_on_c, 1, 66, 0
3, 1146360, Note_on_c, 1, 67, 100
3, 1146420, Note_on_c, 1, 67, 0
3, 1146420, Note_on_c, 1, 69, 100
3, 1146480, Note_on_c, 1, 69, 0
3, 1146480, Note_on_c, 1, 71, 100
3, 1146600, Note_on_c, 1, 71, 0
3, 1146600, Note_on_c, 1, 72, 100
3, 1146720, Note_on_c, 1, 72, 0
3, 1146720, Note_on_c, 1, 74, 100
3, 1146750, Note_on_c, 1, 74, 0
3, 1146750, Note_on_c, 1, 72, 100
3, 1146840, Note_on_c, 1, 72, 0
3, 1146840, Note_on_c, 1, 71, 100
3, 1146960, Note_on_c, 1, 71, 0
3, 1146960, Note_on_c, 1, 69, 100
3, 1147080, Note_on_c, 1, 69, 0
3, 1147080, Note_on_c, 1, 67, 100
3, 1147200, Note_on_c, 1, 67, 0
3, 1147200, Note_on_c, 1, 76, 100
3, 1147260, Note_on_c, 1, 76, 0
3, 1147260, Note_on_c, 1, 78, 100
3, 1147320, Note_on_c, 1, 78, 0
3, 1147320, Note_on_c, 1, 76, 100
3, 1147380, Note_on_c, 1, 76, 0
3, 1147380, Note_on_c, 1, 75, 100
3, 1147440, Note_on_c, 1, 75, 0
3, 1147440, Note_on_c, 1, 76, 100
3, 1147800, Note_on_c, 1, 76, 0
3, 1147800, Note_on_c, 1, 80, 100
3, 1147920, Note_on_c, 1, 80, 0
3, 1147920, Note_on_c, 1, 80, 100
3, 1148040, Note_on_c, 1, 80, 0
3, 1148040, Note_on_c, 1, 81, 100
3, 1148160, Note_on_c, 1, 81, 0
3, 1148160, Note_on_c, 1, 81, 100
3, 1148280, Note_on_c, 1, 81, 0
3, 1148280, Note_on_c, 1, 83, 100
3, 1148400, Note_on_c, 1, 83, 0
3, 1148400, Note_on_c, 1, 83, 100
3, 1148520, Note_on_c, 1, 83, 0
3, 1148520, Note_on_c, 1, 84, 100
3, 1148640, Note_on_c, 1, 84, 0
3, 1148640, Note_on_c, 1, 76, 100
3, 1148700, Note_on_c, 1, 76, 0
3, 1148700, Note_on_c, 1, 75, 100
3, 1148760, Note_on_c, 1, 75, 0
3, 1148760, Note_on_c, 1, 73, 100
3, 1148880, Note_on_c, 1, 73, 0
3, 1148880, Note_on_c, 1, 75, 100
3, 1148910, Note_on_c, 1, 75, 0
3, 1148910, Note_on_c, 1, 73, 100
3, 1148940, Note_on_c, 1, 73, 0
3, 1148940, Note_on_c, 1, 75, 100
3, 1149420, Note_on_c, 1, 75, 0
3, 1149420, Note_on_c, 1, 75, 100
3, 1149480, Note_on_c, 1, 75, 0
3, 1149480, Note_on_c, 1, 76, 100
3, 1149540, Note_on_c, 1, 76, 0
3, 1149540, Note_on_c, 1, 78, 100
3, 1149600, Note_on_c, 1, 78, 0
3, 1149600, Note_on_c, 1, 76, 100
3, 1149660, Note_on_c, 1, 76, 0
3, 1149660, Note_on_c, 1, 75, 100
3, 1149720, Note_on_c, 1, 75, 0
3, 1149720, Note_on_c, 1, 73, 100
3, 1149780, Note_on_c, 1, 73, 0
3, 1149780, Note_on_c, 1, 71, 100
3, 1149840, Note_on_c, 1, 71, 0
3, 1149840, Note_on_c, 1, 69, 100
3, 1149900, Note_on_c, 1, 69, 0
3, 1149900, Note_on_c, 1, 67, 100
3, 1149960, Note_on_c, 1, 67, 0
3, 1149960, Note_on_c, 1, 69, 100
3, 1150020, Note_on_c, 1, 69, 0
3, 1150020, Note_on_c, 1, 78, 100
3, 1150080, Note_on_c, 1, 78, 0
3, 1150080, Note_on_c, 1, 67, 100
3, 1150140, Note_on_c, 1, 67, 0
3, 1150140, Note_on_c, 1, 76, 100
3, 1150200, Note_on_c, 1, 76, 0
3, 1150200, Note_on_c, 1, 75, 100
3, 1150260, Note_on_c, 1, 75, 0
3, 1150260, Note_on_c, 1, 76, 100
3, 1150320, Note_on_c, 1, 76, 0
3, 1150320, Note_on_c, 1, 77, 100
3, 1150380, Note_on_c, 1, 77, 0
3, 1150380, Note_on_c, 1, 76, 100
3, 1150440, Note_on_c, 1, 76, 0
3, 1150440, Note_on_c, 1, 75, 100
3, 1150500, Note_on_c, 1, 75, 0
3, 1150500, Note_on_c, 1, 76, 100
3, 1150560, Note_on_c, 1, 76, 0
3, 1150560, Note_on_c, 1, 78, 100
3, 1150620, Note_on_c, 1, 78, 0
3, 1150620, Note_on_c, 1, 76, 100
3, 1150680, Note_on_c, 1, 76, 0
3, 1150680, Note_on_c, 1, 79, 100
3, 1150740, Note_on_c, 1, 79, 0
3, 1150740, Note_on_c, 1, 76, 100
3, 1150800, Note_on_c, 1, 76, 0
3, 1150800, Note_on_c, 1, 81, 100
3, 1150860, Note_on_c, 1, 81, 0
3, 1150860, Note_on_c, 1, 76, 100
3, 1150920, Note_on_c, 1, 76, 0
3, 1150920, Note_on_c, 1, 83, 100
3, 1150980, Note_on_c, 1, 83, 0
3, 1150980, Note_on_c, 1, 76, 100
3, 1151040, Note_on_c, 1, 76, 0
3, 1151040, Note_on_c, 1, 84, 100
3, 1151100, Note_on_c, 1, 84, 0
3, 1151100, Note_on_c, 1, 76, 100
3, 1151160, Note_on_c, 1, 76, 0
3, 1151160, Note_on_c, 1, 86, 100
3, 1151220, Note_on_c, 1, 86, 0
3, 1151220, Note_on_c, 1, 76, 100
3, 1151280, Note_on_c, 1, 76, 0
3, 1151280, Note_on_c, 1, 84, 100
3, 1151340, Note_on_c, 1, 84, 0
3, 1151340, Note_on_c, 1, 76, 100
3, 1151400, Note_on_c, 1, 76, 0
3, 1151400, Note_on_c, 1, 83, 100
3, 1151460, Note_on_c, 1, 83, 0
3, 1151460, Note_on_c, 1, 76, 100
3, 1151520, Note_on_c, 1, 76, 0
3, 1151520, Note_on_c, 1, 84, 100
3, 1151580, Note_on_c, 1, 84, 0
3, 1151580, Note_on_c, 1, 76, 100
3, 1151640, Note_on_c, 1, 76, 0
3, 1151640, Note_on_c, 1, 75, 100
3, 1151700, Note_on_c, 1, 75, 0
3, 1151700, Note_on_c, 1, 76, 100
3, 1151760, Note_on_c, 1, 76, 0
3, 1151760, Note_on_c, 1, 77, 100
3, 1151820, Note_on_c, 1, 77, 0
3, 1151820, Note_on_c, 1, 76, 100
3, 1151880, Note_on_c, 1, 76, 0
3, 1151880, Note_on_c, 1, 75, 100
3, 1151940, Note_on_c, 1, 75, 0
3, 1151940, Note_on_c, 1, 76, 100
3, 1152000, Note_on_c, 1, 76, 0
3, 1152000, Note_on_c, 1, 84, 100
3, 1152060, Note_on_c, 1, 84, 0
3, 1152060, Note_on_c, 1, 76, 100
3, 1152120, Note_on_c, 1, 76, 0
3, 1152120, Note_on_c, 1, 83, 100
3, 1152180, Note_on_c, 1, 83, 0
3, 1152180, Note_on_c, 1, 76, 100
3, 1152240, Note_on_c, 1, 76, 0
3, 1152240, Note_on_c, 1, 81, 100
3, 1152300, Note_on_c, 1, 81, 0
3, 1152300, Note_on_c, 1, 76, 100
3, 1152360, Note_on_c, 1, 76, 0
3, 1152360, Note_on_c, 1, 79, 100
3, 1152420, Note_on_c, 1, 79, 0
3, 1152420, Note_on_c, 1, 76, 100
3, 1152480, Note_on_c, 1, 76, 0
3, 1152480, Note_on_c, 1, 78, 100
3, 1152540, Note_on_c, 1, 78, 0
3, 1152540, Note_on_c, 1, 76, 100
3, 1152600, Note_on_c, 1, 76, 0
3, 1152600, Note_on_c, 1, 79, 100
3, 1152660, Note_on_c, 1, 79, 0
3, 1152660, Note_on_c, 1, 76, 100
3, 1152720, Note_on_c, 1, 76, 0
3, 1152720, Note_on_c, 1, 81, 100
3, 1152780, Note_on_c, 1, 81, 0
3, 1152780, Note_on_c, 1, 76, 100
3, 1152840, Note_on_c, 1, 76, 0
3, 1152840, Note_on_c, 1, 75, 100
3, 1152900, Note_on_c, 1, 75, 0
3, 1152900, Note_on_c, 1, 73, 100
3, 1152960, Note_on_c, 1, 73, 0
3, 1152960, Note_on_c, 1, 75, 100
3, 1153020, Note_on_c, 1, 75, 0
3, 1153020, Note_on_c, 1, 81, 100
3, 1153080, Note_on_c, 1, 81, 0
3, 1153080, Note_on_c, 1, 79, 100
3, 1153140, Note_on_c, 1, 79, 0
3, 1153140, Note_on_c, 1, 81, 100
3, 1153200, Note_on_c, 1, 81, 0
3, 1153200, Note_on_c, 1, 83, 100
3, 1153260, Note_on_c, 1, 83, 0
3, 1153260, Note_on_c, 1, 81, 100
3, 1153320, Note_on_c, 1, 81, 0
3, 1153320, Note_on_c, 1, 79, 100
3, 1153380, Note_on_c, 1, 79, 0
3, 1153380, Note_on_c, 1, 81, 100
3, 1153440, Note_on_c, 1, 81, 0
3, 1153440, Note_on_c, 1, 71, 100
3, 1153500, Note_on_c, 1, 71, 0
3, 1153500, Note_on_c, 1, 79, 100
3, 1153560, Note_on_c, 1, 79, 0
3, 1153560, Note_on_c, 1, 78, 100
3, 1153620, Note_on_c, 1, 78, 0
3, 1153620, Note_on_c, 1, 79, 100
3, 1153680, Note_on_c, 1, 79, 0
3, 1153680, Note_on_c, 1, 81, 100
3, 1153740, Note_on_c, 1, 81, 0
3, 1153740, Note_on_c, 1, 79, 100
3, 1153800, Note_on_c, 1, 79, 0
3, 1153800, Note_on_c, 1, 78, 100
3, 1153860, Note_on_c, 1, 78, 0
3, 1153860, Note_on_c, 1, 79, 100
3, 1153920, Note_on_c, 1, 79, 0
3, 1153920, Note_on_c, 1, 69, 100
3, 1153980, Note_on_c, 1, 69, 0
3, 1153980, Note_on_c, 1, 78, 100
3, 1154040, Note_on_c, 1, 78, 0
3, 1154040, Note_on_c, 1, 76, 100
3, 1154100, Note_on_c, 1, 76, 0
3, 1154100, Note_on_c, 1, 78, 100
3, 1154160, Note_on_c, 1, 78, 0
3, 1154160, Note_on_c, 1, 79, 100
3, 1154220, Note_on_c, 1, 79, 0
3, 1154220, Note_on_c, 1, 81, 100
3, 1154280, Note_on_c, 1, 81, 0
3, 1154280, Note_on_c, 1, 79, 100
3, 1154340, Note_on_c, 1, 79, 0
3, 1154340, Note_on_c, 1, 78, 100
3, 1154400, Note_on_c, 1, 78, 0
3, 1154400, Note_on_c, 1, 79, 100
3, 1154520, Note_on_c, 1, 79, 0
3, 1154520, Note_on_c, 1, 75, 100
3, 1154640, Note_on_c, 1, 75, 0
3, 1154640, Note_on_c, 1, 75, 100
3, 1154760, Note_on_c, 1, 75, 0
3, 1154760, Note_on_c, 1, 76, 100
3, 1154880, Note_on_c, 1, 76, 0
3, 1154880, Note_on_c, 1, 76, 100
3, 1155000, Note_on_c, 1, 76, 0
3, 1155000, Note_on_c, 1, 69, 100
3, 1155120, Note_on_c, 1, 69, 0
3, 1155120, Note_on_c, 1, 69, 100
3, 1155240, Note_on_c, 1, 69, 0
3, 1155240, Note_on_c, 1, 67, 100
3, 1155360, Note_on_c, 1, 67, 0
3, 1155360, Note_on_c, 1, 67, 100
3, 1155420, Note_on_c, 1, 67, 0
3, 1155420, Note_on_c, 1, 66, 100
3, 1155480, Note_on_c, 1, 66, 0
3, 1155480, Note_on_c, 1, 67, 100
3, 1155660, Note_on_c, 1, 67, 0
3, 1155660, Note_on_c, 1, 71, 100
3, 1155720, Note_on_c, 1, 71, 0
3, 1155720, Note_on_c, 1, 72, 100
3, 1155780, Note_on_c, 1, 72, 0
3, 1155780, Note_on_c, 1, 74, 100
3, 1155840, Note_on_c, 1, 74, 0
3, 1155840, Note_on_c, 1, 76, 100
3, 1155900, Note_on_c, 1, 76, 0
3, 1155900, Note_on_c, 1, 77, 100
3, 1155960, Note_on_c, 1, 77, 0
3, 1155960, Note_on_c, 1, 76, 100
3, 1156020, Note_on_c, 1, 76, 0
3, 1156020, Note_on_c, 1, 75, 100
3, 1156080, Note_on_c, 1, 75, 0
3, 1156080, Note_on_c, 1, 76, 100
3, 1156440, Note_on_c, 1, 76, 0
3, 1156440, Note_on_c, 1, 69, 100
3, 1156560, Note_on_c, 1, 69, 0
3, 1156560, Note_on_c, 1, 71, 100
3, 1156590, Note_on_c, 1, 71, 0
3, 1156590, Note_on_c, 1, 69, 100
3, 1156680, Note_on_c, 1, 69, 0
3, 1156680, Note_on_c, 1, 67, 100
3, 1156800, Note_on_c, 1, 67, 0
3, 1156800, Note_on_c, 1, 69, 100
3, 1156830, Note_on_c, 1, 69, 0
3, 1156830, Note_on_c, 1, 67, 100
3, 1156920, Note_on_c, 1, 67, 0
3, 1156920, Note_on_c, 1, 66, 100
3, 1157040, Note_on_c, 1, 66, 0
3, 1157040, Note_on_c, 1, 66, 100
3, 1157160, Note_on_c, 1, 66, 0
3, 1157160, Note_on_c, 1, 76, 100
3, 1157280, Note_on_c, 1, 76, 0
3, 1157280, Note_on_c, 1, 74, 100
3, 1157340, Note_on_c, 1, 74, 0
3, 1157340, Note_on_c, 1, 76, 100
3, 1157400, Note_on_c, 1, 76, 0
3, 1157400, Note_on_c, 1, 74, 100
3, 1157460, Note_on_c, 1, 74, 0
3, 1157460, Note_on_c, 1, 73, 100
3, 1157520, Note_on_c, 1, 73, 0
3, 1157520, Note_on_c, 1, 74, 100
3, 1157880, Note_on_c, 1, 74, 0
3, 1157880, Note_on_c, 1, 67, 100
3, 1158000, Note_on_c, 1, 67, 0
3, 1158000, Note_on_c, 1, 69, 100
3, 1158030, Note_on_c, 1, 69, 0
3, 1158030, Note_on_c, 1, 67, 100
3, 1158120, Note_on_c, 1, 67, 0
3, 1158120, Note_on_c, 1, 65, 100
3, 1158240, Note_on_c, 1, 65, 0
3, 1158240, Note_on_c, 1, 67, 100
3, 1158270, Note_on_c, 1, 67, 0
3, 1158270, Note_on_c, 1, 65, 100
3, 1158360, Note_on_c, 1, 65, 0
3, 1158360, Note_on_c, 1, 64, 100
3, 1158480, Note_on_c, 1, 64, 0
3, 1158480, Note_on_c, 1, 64, 100
3, 1158600, Note_on_c, 1, 64, 0
3, 1158600, Note_on_c, 1, 74, 100
3, 1158720, Note_on_c, 1, 74, 0
3, 1158720, Note_on_c, 1, 72, 100
3, 1158780, Note_on_c, 1, 72, 0
3, 1158780, Note_on_c, 1, 71, 100
3, 1158840, Note_on_c, 1, 71, 0
3, 1158840, Note_on_c, 1, 69, 100
3, 1159020, Note_on_c, 1, 69, 0
3, 1159020, Note_on_c, 1, 67, 100
3, 1159080, Note_on_c, 1, 67, 0
3, 1159080, Note_on_c, 1, 66, 100
3, 1159260, Note_on_c, 1, 66, 0
3, 1159260, Note_on_c, 1, 64, 100
3, 1159320, Note_on_c, 1, 64, 0
3, 1159320, Note_on_c, 1, 62, 100
3, 1159500, Note_on_c, 1, 62, 0
3, 1159500, Note_on_c, 1, 64, 100
3, 1159560, Note_on_c, 1, 64, 0
3, 1159560, Note_on_c, 1, 66, 100
3, 1159740, Note_on_c, 1, 66, 0
3, 1159740, Note_on_c, 1, 67, 100
3, 1159800, Note_on_c, 1, 67, 0
3, 1159800, Note_on_c, 1, 69, 100
3, 1159980, Note_on_c, 1, 69, 0
3, 1159980, Note_on_c, 1, 71, 100
3, 1160040, Note_on_c, 1, 71, 0
3, 1160040, Note_on_c, 1, 72, 100
3, 1160220, Note_on_c, 1, 72, 0
3, 1160220, Note_on_c, 1, 74, 100
3, 1160280, Note_on_c, 1, 74, 0
3, 1160280, Note_on_c, 1, 72, 100
3, 1160340, Note_on_c, 1, 72, 0
3, 1160340, Note_on_c, 1, 71, 100
3, 1160400, Note_on_c, 1, 71, 0
3, 1160400, Note_on_c, 1, 72, 100
3, 1160460, Note_on_c, 1, 72, 0
3, 1160460, Note_on_c, 1, 79, 100
3, 1160520, Note_on_c, 1, 79, 0
3, 1160520, Note_on_c, 1, 78, 100
3, 1160580, Note_on_c, 1, 78, 0
3, 1160580, Note_on_c, 1, 76, 100
3, 1160640, Note_on_c, 1, 76, 0
3, 1160640, Note_on_c, 1, 78, 100
3, 1160700, Note_on_c, 1, 78, 0
3, 1160700, Note_on_c, 1, 83, 100
3, 1160760, Note_on_c, 1, 83, 0
3, 1160760, Note_on_c, 1, 81, 100
3, 1160820, Note_on_c, 1, 81, 0
3, 1160820, Note_on_c, 1, 79, 100
3, 1160880, Note_on_c, 1, 79, 0
3, 1160880, Note_on_c, 1, 81, 100
3, 1160940, Note_on_c, 1, 81, 0
3, 1160940, Note_on_c, 1, 86, 100
3, 1161000, Note_on_c, 1, 86, 0
3, 1161000, Note_on_c, 1, 84, 100
3, 1161060, Note_on_c, 1, 84, 0
3, 1161060, Note_on_c, 1, 83, 100
3, 1161120, Note_on_c, 1, 83, 0
3, 1161120, Note_on_c, 1, 84, 100
3, 1161180, Note_on_c, 1, 84, 0
3, 1161180, Note_on_c, 1, 83, 100
3, 1161240, Note_on_c, 1, 83, 0
3, 1161240, Note_on_c, 1, 81, 100
3, 1161300, Note_on_c, 1, 81, 0
3, 1161300, Note_on_c, 1, 79, 100
3, 1161360, Note_on_c, 1, 79, 0
3, 1161360, Note_on_c, 1, 78, 100
3, 1161420, Note_on_c, 1, 78, 0
3, 1161420, Note_on_c, 1, 76, 100
3, 1161480, Note_on_c, 1, 76, 0
3, 1161480, Note_on_c, 1, 74, 100
3, 1161540, Note_on_c, 1, 74, 0
3, 1161540, Note_on_c, 1, 72, 100
3, 1161600, Note_on_c, 1, 72, 0
3, 1161600, Note_on_c, 1, 71, 100
3, 1161660, Note_on_c, 1, 71, 0
3, 1161660, Note_on_c, 1, 79, 100
3, 1161720, Note_on_c, 1, 79, 0
3, 1161720, Note_on_c, 1, 78, 100
3, 1161780, Note_on_c, 1, 78, 0
3, 1161780, Note_on_c, 1, 79, 100
3, 1161840, Note_on_c, 1, 79, 0
3, 1161840, Note_on_c, 1, 81, 100
3, 1161900, Note_on_c, 1, 81, 0
3, 1161900, Note_on_c, 1, 79, 100
3, 1161960, Note_on_c, 1, 79, 0
3, 1161960, Note_on_c, 1, 78, 100
3, 1162020, Note_on_c, 1, 78, 0
3, 1162020, Note_on_c, 1, 79, 100
3, 1162080, Note_on_c, 1, 79, 0
3, 1162080, Note_on_c, 1, 72, 100
3, 1162140, Note_on_c, 1, 72, 0
3, 1162140, Note_on_c, 1, 78, 100
3, 1162200, Note_on_c, 1, 78, 0
3, 1162200, Note_on_c, 1, 76, 100
3, 1162260, Note_on_c, 1, 76, 0
3, 1162260, Note_on_c, 1, 78, 100
3, 1162320, Note_on_c, 1, 78, 0
3, 1162320, Note_on_c, 1, 79, 100
3, 1162380, Note_on_c, 1, 79, 0
3, 1162380, Note_on_c, 1, 78, 100
3, 1162440, Note_on_c, 1, 78, 0
3, 1162440, Note_on_c, 1, 76, 100
3, 1162500, Note_on_c, 1, 76, 0
3, 1162500, Note_on_c, 1, 78, 100
3, 1162560, Note_on_c, 1, 78, 0
3, 1162560, Note_on_c, 1, 74, 100
3, 1162620, Note_on_c, 1, 74, 0
3, 1162620, Note_on_c, 1, 77, 100
3, 1162680, Note_on_c, 1, 77, 0
3, 1162680, Note_on_c, 1, 76, 100
3, 1162740, Note_on_c, 1, 76, 0
3, 1162740, Note_on_c, 1, 77, 100
3, 1162800, Note_on_c, 1, 77, 0
3, 1162800, Note_on_c, 1, 79, 100
3, 1162860, Note_on_c, 1, 79, 0
3, 1162860, Note_on_c, 1, 77, 100
3, 1162920, Note_on_c, 1, 77, 0
3, 1162920, Note_on_c, 1, 76, 100
3, 1162980, Note_on_c, 1, 76, 0
3, 1162980, Note_on_c, 1, 74, 100
3, 1163040, Note_on_c, 1, 74, 0
3, 1163040, Note_on_c, 1, 76, 100
3, 1163100, Note_on_c, 1, 76, 0
3, 1163100, Note_on_c, 1, 72, 100
3, 1163160, Note_on_c, 1, 72, 0
3, 1163160, Note_on_c, 1, 71, 100
3, 1163220, Note_on_c, 1, 71, 0
3, 1163220, Note_on_c, 1, 72, 100
3, 1163280, Note_on_c, 1, 72, 0
3, 1163280, Note_on_c, 1, 74, 100
3, 1163340, Note_on_c, 1, 74, 0
3, 1163340, Note_on_c, 1, 72, 100
3, 1163400, Note_on_c, 1, 72, 0
3, 1163400, Note_on_c, 1, 71, 100
3, 1163460, Note_on_c, 1, 71, 0
3, 1163460, Note_on_c, 1, 72, 100
3, 1163520, Note_on_c, 1, 72, 0
3, 1163520, Note_on_c, 1, 74, 100
3, 1163580, Note_on_c, 1, 74, 0
3, 1163580, Note_on_c, 1, 71, 100
3, 1163640, Note_on_c, 1, 71, 0
3, 1163640, Note_on_c, 1, 69, 100
3, 1163700, Note_on_c, 1, 69, 0
3, 1163700, Note_on_c, 1, 71, 100
3, 1163760, Note_on_c, 1, 71, 0
3, 1163760, Note_on_c, 1, 72, 100
3, 1163820, Note_on_c, 1, 72, 0
3, 1163820, Note_on_c, 1, 71, 100
3, 1163880, Note_on_c, 1, 71, 0
3, 1163880, Note_on_c, 1, 69, 100
3, 1163940, Note_on_c, 1, 69, 0
3, 1163940, Note_on_c, 1, 71, 100
3, 1164000, Note_on_c, 1, 71, 0
3, 1164000, Note_on_c, 1, 73, 100
3, 1164060, Note_on_c, 1, 73, 0
3, 1164060, Note_on_c, 1, 70, 100
3, 1164120, Note_on_c, 1, 70, 0
3, 1164120, Note_on_c, 1, 69, 100
3, 1164180, Note_on_c, 1, 69, 0
3, 1164180, Note_on_c, 1, 70, 100
3, 1164240, Note_on_c, 1, 70, 0
3, 1164240, Note_on_c, 1, 72, 100
3, 1164300, Note_on_c, 1, 72, 0
3, 1164300, Note_on_c, 1, 70, 100
3, 1164360, Note_on_c, 1, 70, 0
3, 1164360, Note_on_c, 1, 69, 100
3, 1164420, Note_on_c, 1, 69, 0
3, 1164420, Note_on_c, 1, 67, 100
3, 1164480, Note_on_c, 1, 67, 0
3, 1164480, Note_on_c, 1, 66, 100
3, 1164540, Note_on_c, 1, 66, 0
3, 1164540, Note_on_c, 1, 72, 100
3, 1164600, Note_on_c, 1, 72, 0
3, 1164600, Note_on_c, 1, 71, 100
3, 1164660, Note_on_c, 1, 71, 0
3, 1164660, Note_on_c, 1, 72, 100
3, 1164720, Note_on_c, 1, 72, 0
3, 1164720, Note_on_c, 1, 74, 100
3, 1164780, Note_on_c, 1, 74, 0
3, 1164780, Note_on_c, 1, 72, 100
3, 1164840, Note_on_c, 1, 72, 0
3, 1164840, Note_on_c, 1, 71, 100
3, 1164900, Note_on_c, 1, 71, 0
3, 1164900, Note_on_c, 1, 72, 100
3, 1164960, Note_on_c, 1, 72, 0
3, 1164960, Note_on_c, 1, 78, 100
3, 1165020, Note_on_c, 1, 78, 0
3, 1165020, Note_on_c, 1, 72, 100
3, 1165080, Note_on_c, 1, 72, 0
3, 1165080, Note_on_c, 1, 71, 100
3, 1165140, Note_on_c, 1, 71, 0
3, 1165140, Note_on_c, 1, 72, 100
3, 1165200, Note_on_c, 1, 72, 0
3, 1165200, Note_on_c, 1, 74, 100
3, 1165260, Note_on_c, 1, 74, 0
3, 1165260, Note_on_c, 1, 72, 100
3, 1165320, Note_on_c, 1, 72, 0
3, 1165320, Note_on_c, 1, 71, 100
3, 1165380, Note_on_c, 1, 71, 0
3, 1165380, Note_on_c, 1, 72, 100
3, 1165440, Note_on_c, 1, 72, 0
3, 1165440, Note_on_c, 1, 81, 100
3, 1165500, Note_on_c, 1, 81, 0
3, 1165500, Note_on_c, 1, 72, 100
3, 1165560, Note_on_c, 1, 72, 0
3, 1165560, Note_on_c, 1, 71, 100
3, 1165620, Note_on_c, 1, 71, 0
3, 1165620, Note_on_c, 1, 72, 100
3, 1165680, Note_on_c, 1, 72, 0
3, 1165680, Note_on_c, 1, 74, 100
3, 1165740, Note_on_c, 1, 74, 0
3, 1165740, Note_on_c, 1, 72, 100
3, 1165800, Note_on_c, 1, 72, 0
3, 1165800, Note_on_c, 1, 71, 100
3, 1165860, Note_on_c, 1, 71, 0
3, 1165860, Note_on_c, 1, 69, 100
3, 1165920, Note_on_c, 1, 69, 0
3, 1165920, Note_on_c, 1, 71, 100
3, 1166040, Note_on_c, 1, 71, 0
3, 1166040, Note_on_c, 1, 66, 100
3, 1166160, Note_on_c, 1, 66, 0
3, 1166160, Note_on_c, 1, 66, 100
3, 1166280, Note_on_c, 1, 66, 0
3, 1166280, Note_on_c, 1, 67, 100
3, 1166400, Note_on_c, 1, 67, 0
3, 1166400, Note_on_c, 1, 67, 100
3, 1166520, Note_on_c, 1, 67, 0
3, 1166520, Note_on_c, 1, 60, 100
3, 1166640, Note_on_c, 1, 60, 0
3, 1166640, Note_on_c, 1, 60, 100
3, 1166760, Note_on_c, 1, 60, 0
3, 1166760, Note_on_c, 1, 59, 100
3, 1166880, Note_on_c, 1, 59, 0
3, 1166880, Note_on_c, 1, 59, 100
3, 1167360, Note_on_c, 1, 59, 0
3, 1259640, Note_on_c, 1, 67, 100
3, 1259760, Note_on_c, 1, 67, 0
3, 1259760, Note_on_c, 1, 67, 100
3, 1259880, Note_on_c, 1, 67, 0
3, 1259880, Note_on_c, 1, 65, 100
3, 1260000, Note_on_c, 1, 65, 0
3, 1260000, Note_on_c, 1, 65, 100
3, 1260120, Note_on_c, 1, 65, 0
3, 1260120, Note_on_c, 1, 63, 100
3, 1260240, Note_on_c, 1, 63, 0
3, 1260240, Note_on_c, 1, 63, 100
3, 1260360, Note_on_c, 1, 63, 0
3, 1260360, Note_on_c, 1, 62, 100
3, 1260480, Note_on_c, 1, 62, 0
3, 1260480, Note_on_c, 1, 62, 100
3, 1261080, Note_on_c, 1, 62, 0
3, 1261080, Note_on_c, 1, 60, 100
3, 1261200, Note_on_c, 1, 60, 0
3, 1261200, Note_on_c, 1, 58, 100
3, 1261320, Note_on_c, 1, 58, 0
3, 1261320, Note_on_c, 1, 57, 100
3, 1261440, Note_on_c, 1, 57, 0
3, 1261440, Note_on_c, 1, 55, 100
3, 1261560, Note_on_c, 1, 55, 0
3, 1261560, Note_on_c, 1, 61, 100
3, 1261680, Note_on_c, 1, 61, 0
3, 1261680, Note_on_c, 1, 61, 100
3, 1261740, Note_on_c, 1, 61, 0
3, 1261740, Note_on_c, 1, 62, 100
3, 1261800, Note_on_c, 1, 62, 0
3, 1261800, Note_on_c, 1, 61, 100
3, 1261920, Note_on_c, 1, 61, 0
3, 1261920, Note_on_c, 1, 67, 100
3, 1262640, Note_on_c, 1, 67, 0
3, 1262640, Note_on_c, 1, 66, 100
3, 1262760, Note_on_c, 1, 66, 0
3, 1262760, Note_on_c, 1, 64, 100
3, 1262880, Note_on_c, 1, 64, 0
3, 1262880, Note_on_c, 1, 66, 100
3, 1263000, Note_on_c, 1, 66, 0
3, 1263000, Note_on_c, 1, 67, 100
3, 1263120, Note_on_c, 1, 67, 0
3, 1263120, Note_on_c, 1, 67, 100
3, 1263240, Note_on_c, 1, 67, 0
3, 1263240, Note_on_c, 1, 69, 100
3, 1263360, Note_on_c, 1, 69, 0
3, 1263360, Note_on_c, 1, 70, 100
3, 1263600, Note_on_c, 1, 70, 0
3, 1264080, Note_on_c, 1, 69, 100
3, 1264320, Note_on_c, 1, 69, 0
3, 1264320, Note_on_c, 1, 62, 100
3, 1264380, Note_on_c, 1, 62, 0
3, 1264380, Note_on_c, 1, 60, 100
3, 1264440, Note_on_c, 1, 60, 0
3, 1264440, Note_on_c, 1, 63, 100
3, 1264560, Note_on_c, 1, 63, 0
3, 1264560, Note_on_c, 1, 62, 100
3, 1264680, Note_on_c, 1, 62, 0
3, 1264680, Note_on_c, 1, 60, 100
3, 1264800, Note_on_c, 1, 60, 0
3, 1264800, Note_on_c, 1, 58, 100
3, 1264920, Note_on_c, 1, 58, 0
3, 1264920, Note_on_c, 1, 57, 100
3, 1265040, Note_on_c, 1, 57, 0
3, 1265040, Note_on_c, 1, 55, 100
3, 1265160, Note_on_c, 1, 55, 0
3, 1265160, Note_on_c, 1, 57, 100
3, 1265280, Note_on_c, 1, 57, 0
3, 1265280, Note_on_c, 1, 58, 100
3, 1265400, Note_on_c, 1, 58, 0
3, 1265400, Note_on_c, 1, 62, 100
3, 1265520, Note_on_c, 1, 62, 0
3, 1265520, Note_on_c, 1, 67, 100
3, 1266000, Note_on_c, 1, 67, 0
3, 1266000, Note_on_c, 1, 66, 100
3, 1266240, Note_on_c, 1, 66, 0
3, 1266240, Note_on_c, 1, 67, 100
3, 1266480, Note_on_c, 1, 67, 0
3, 1266840, Note_on_c, 1, 66, 100
3, 1266960, Note_on_c, 1, 66, 0
3, 1266960, Note_on_c, 1, 67, 100
3, 1267080, Note_on_c, 1, 67, 0
3, 1267080, Note_on_c, 1, 69, 100
3, 1267200, Note_on_c, 1, 69, 0
3, 1267200, Note_on_c, 1, 70, 100
3, 1267320, Note_on_c, 1, 70, 0
3, 1267320, Note_on_c, 1, 69, 100
3, 1267440, Note_on_c, 1, 69, 0
3, 1267440, Note_on_c, 1, 69, 100
3, 1267560, Note_on_c, 1, 69, 0
3, 1267560, Note_on_c, 1, 67, 100
3, 1267680, Note_on_c, 1, 67, 0
3, 1267680, Note_on_c, 1, 67, 100
3, 1267800, Note_on_c, 1, 67, 0
3, 1267800, Note_on_c, 1, 66, 100
3, 1267920, Note_on_c, 1, 66, 0
3, 1267920, Note_on_c, 1, 66, 100
3, 1268040, Note_on_c, 1, 66, 0
3, 1268040, Note_on_c, 1, 67, 100
3, 1268160, Note_on_c, 1, 67, 0
3, 1268160, Note_on_c, 1, 67, 100
3, 1268400, Note_on_c, 1, 67, 0
3, 1268880, Note_on_c, 1, 60, 100
3, 1269120, Note_on_c, 1, 60, 0
3, 1269120, Note_on_c, 1, 58, 100
3, 1269360, Note_on_c, 1, 58, 0
3, 1269360, Note_on_c, 1, 67, 100
3, 1269480, Note_on_c, 1, 67, 0
3, 1269480, Note_on_c, 1, 65, 100
3, 1269720, Note_on_c, 1, 65, 0
3, 1269720, Note_on_c, 1, 64, 100
3, 1269960, Note_on_c, 1, 64, 0
3, 1269960, Note_on_c, 1, 62, 100
3, 1270080, Note_on_c, 1, 62, 0
3, 1270080, Note_on_c, 1, 61, 100
3, 1270320, Note_on_c, 1, 61, 0
3, 1270320, Note_on_c, 1, 70, 100
3, 1270560, Note_on_c, 1, 70, 0
3, 1270560, Note_on_c, 1, 69, 100
3, 1270800, Note_on_c, 1, 69, 0
3, 1270800, Note_on_c, 1, 61, 100
3, 1271040, Note_on_c, 1, 61, 0
3, 1271280, Note_on_c, 1, 62, 100
3, 1271340, Note_on_c, 1, 62, 0
3, 1271340, Note_on_c, 1, 61, 100
3, 1271400, Note_on_c, 1, 61, 0
3, 1271400, Note_on_c, 1, 62, 100
3, 1271640, Note_on_c, 1, 62, 0
3, 1271640, Note_on_c, 1, 62, 100
3, 1271880, Note_on_c, 1, 62, 0
3, 1271880, Note_on_c, 1, 62, 100
3, 1272120, Note_on_c, 1, 62, 0
3, 1272120, Note_on_c, 1, 64, 100
3, 1272180, Note_on_c, 1, 64, 0
3, 1272180, Note_on_c, 1, 62, 100
3, 1272240, Note_on_c, 1, 62, 0
3, 1272240, Note_on_c, 1, 61, 100
3, 1272360, Note_on_c, 1, 61, 0
3, 1272360, Note_on_c, 1, 59, 100
3, 1272480, Note_on_c, 1, 59, 0
3, 1272480, Note_on_c, 1, 61, 100
3, 1272600, Note_on_c, 1, 61, 0
3, 1272600, Note_on_c, 1, 64, 100
3, 1272720, Note_on_c, 1, 64, 0
3, 1272720, Note_on_c, 1, 69, 100
3, 1272960, Note_on_c, 1, 69, 0
3, 1273200, Note_on_c, 1, 62, 100
3, 1273560, Note_on_c, 1, 62, 0
3, 1273560, Note_on_c, 1, 64, 100
3, 1273620, Note_on_c, 1, 64, 0
3, 1273620, Note_on_c, 1, 65, 100
3, 1273680, Note_on_c, 1, 65, 0
3, 1273680, Note_on_c, 1, 64, 100
3, 1273740, Note_on_c, 1, 64, 0
3, 1273740, Note_on_c, 1, 62, 100
3, 1273800, Note_on_c, 1, 62, 0
3, 1273800, Note_on_c, 1, 64, 100
3, 1273920, Note_on_c, 1, 64, 0
3, 1273920, Note_on_c, 1, 62, 100
3, 1274400, Note_on_c, 1, 62, 0
3, 1275000, Note_on_c, 1, 67, 100
3, 1275120, Note_on_c, 1, 67, 0
3, 1275120, Note_on_c, 1, 67, 100
3, 1275240, Note_on_c, 1, 67, 0
3, 1275240, Note_on_c, 1, 65, 100
3, 1275360, Note_on_c, 1, 65, 0
3, 1275360, Note_on_c, 1, 65, 100
3, 1275480, Note_on_c, 1, 65, 0
3, 1275480, Note_on_c, 1, 63, 100
3, 1275600, Note_on_c, 1, 63, 0
3, 1275600, Note_on_c, 1, 63, 100
3, 1275720, Note_on_c, 1, 63, 0
3, 1275720, Note_on_c, 1, 62, 100
3, 1275840, Note_on_c, 1, 62, 0
3, 1275840, Note_on_c, 1, 62, 100
3, 1276440, Note_on_c, 1, 62, 0
3, 1276440, Note_on_c, 1, 60, 100
3, 1276560, Note_on_c, 1, 60, 0
3, 1276560, Note_on_c, 1, 58, 100
3, 1276680, Note_on_c, 1, 58, 0
3, 1276680, Note_on_c, 1, 57, 100
3, 1276800, Note_on_c, 1, 57, 0
3, 1276800, Note_on_c, 1, 55, 100
3, 1276920, Note_on_c, 1, 55, 0
3, 1276920, Note_on_c, 1, 61, 100
3, 1277040, Note_on_c, 1, 61, 0
3, 1277040, Note_on_c, 1, 61, 100
3, 1277100, Note_on_c, 1, 61, 0
3, 1277100, Note_on_c, 1, 62, 100
3, 1277160, Note_on_c, 1, 62, 0
3, 1277160, Note_on_c, 1, 61, 100
3, 1277280, Note_on_c, 1, 61, 0
3, 1277280, Note_on_c, 1, 67, 100
3, 1278000, Note_on_c, 1, 67, 0
3, 1278000, Note_on_c, 1, 66, 100
3, 1278120, Note_on_c, 1, 66, 0
3, 1278120, Note_on_c, 1, 64, 100
3, 1278240, Note_on_c, 1, 64, 0
3, 1278240, Note_on_c, 1, 66, 100
3, 1278360, Note_on_c, 1, 66, 0
3, 1278360, Note_on_c, 1, 67, 100
3, 1278480, Note_on_c, 1, 67, 0
3, 1278480, Note_on_c, 1, 67, 100
3, 1278600, Note_on_c, 1, 67, 0
3, 1278600, Note_on_c, 1, 69, 100
3, 1278720, Note_on_c, 1, 69, 0
3, 1278720, Note_on_c, 1, 70, 100
3, 1278960, Note_on_c, 1, 70, 0
3, 1279440, Note_on_c, 1, 69, 100
3, 1279680, Note_on_c, 1, 69, 0
3, 1279680, Note_on_c, 1, 62, 100
3, 1279740, Note_on_c, 1, 62, 0
3, 1279740, Note_on_c, 1, 60, 100
3, 1279800, Note_on_c, 1, 60, 0
3, 1279800, Note_on_c, 1, 63, 100
3, 1279920, Note_on_c, 1, 63, 0
3, 1279920, Note_on_c, 1, 62, 100
3, 1280040, Note_on_c, 1, 62, 0
3, 1280040, Note_on_c, 1, 60, 100
3, 1280160, Note_on_c, 1, 60, 0
3, 1280160, Note_on_c, 1, 58, 100
3, 1280280, Note_on_c, 1, 58, 0
3, 1280280, Note_on_c, 1, 57, 100
3, 1280400, Note_on_c, 1, 57, 0
3, 1280400, Note_on_c, 1, 55, 100
3, 1280520, Note_on_c, 1, 55, 0
3, 1280520, Note_on_c, 1, 57, 100
3, 1280640, Note_on_c, 1, 57, 0
3, 1280640, Note_on_c, 1, 58, 100
3, 1280760, Note_on_c, 1, 58, 0
3, 1280760, Note_on_c, 1, 62, 100
3, 1280880, Note_on_c, 1, 62, 0
3, 1280880, Note_on_c, 1, 67, 100
3, 1281360, Note_on_c, 1, 67, 0
3, 1281360, Note_on_c, 1, 66, 100
3, 1281600, Note_on_c, 1, 66, 0
3, 1281600, Note_on_c, 1, 67, 100
3, 1281840, Note_on_c, 1, 67, 0
3, 1282200, Note_on_c, 1, 66, 100
3, 1282320, Note_on_c, 1, 66, 0
3, 1282320, Note_on_c, 1, 67, 100
3, 1282440, Note_on_c, 1, 67, 0
3, 1282440, Note_on_c, 1, 69, 100
3, 1282560, Note_on_c, 1, 69, 0
3, 1282560, Note_on_c, 1, 70, 100
3, 1282680, Note_on_c, 1, 70, 0
3, 1282680, Note_on_c, 1, 69, 100
3, 1282800, Note_on_c, 1, 69, 0
3, 1282800, Note_on_c, 1, 69, 100
3, 1282920, Note_on_c, 1, 69, 0
3, 1282920, Note_on_c, 1, 67, 100
3, 1283040, Note_on_c, 1, 67, 0
3, 1283040, Note_on_c, 1, 67, 100
3, 1283160, Note_on_c, 1, 67, 0
3, 1283160, Note_on_c, 1, 66, 100
3, 1283280, Note_on_c, 1, 66, 0
3, 1283280, Note_on_c, 1, 66, 100
3, 1283400, Note_on_c, 1, 66, 0
3, 1283400, Note_on_c, 1, 67, 100
3, 1283520, Note_on_c, 1, 67, 0
3, 1283520, Note_on_c, 1, 67, 100
3, 1283760, Note_on_c, 1, 67, 0
3, 1284240, Note_on_c, 1, 60, 100
3, 1284480, Note_on_c, 1, 60, 0
3, 1284480, Note_on_c, 1, 58, 100
3, 1284720, Note_on_c, 1, 58, 0
3, 1284720, Note_on_c, 1, 67, 100
3, 1284840, Note_on_c, 1, 67, 0
3, 1284840, Note_on_c, 1, 65, 100
3, 1285080, Note_on_c, 1, 65, 0
3, 1285080, Note_on_c, 1, 64, 100
3, 1285320, Note_on_c, 1, 64, 0
3, 1285320, Note_on_c, 1, 62, 100
3, 1285440, Note_on_c, 1, 62, 0
3, 1285440, Note_on_c, 1, 61, 100
3, 1285680, Note_on_c, 1, 61, 0
3, 1285680, Note_on_c, 1, 70, 100
3, 1285920, Note_on_c, 1, 70, 0
3, 1285920, Note_on_c, 1, 69, 100
3, 1286160, Note_on_c, 1, 69, 0
3, 1286160, Note_on_c, 1, 61, 100
3, 1286400, Note_on_c, 1, 61, 0
3, 1286640, Note_on_c, 1, 62, 100
3, 1286700, Note_on_c, 1, 62, 0
3, 1286700, Note_on_c, 1, 61, 100
3, 1286760, Note_on_c, 1, 61, 0
3, 1286760, Note_on_c, 1, 62, 100
3, 1287000, Note_on_c, 1, 62, 0
3, 1287000, Note_on_c, 1, 62, 100
3, 1287240, Note_on_c, 1, 62, 0
3, 1287240, Note_on_c, 1, 62, 100
3, 1287480, Note_on_c, 1, 62, 0
3, 1287480, Note_on_c, 1, 64, 100
3, 1287540, Note_on_c, 1, 64, 0
3, 1287540, Note_on_c, 1, 62, 100
3, 1287600, Note_on_c, 1, 62, 0
3, 1287600, Note_on_c, 1, 61, 100
3, 1287720, Note_on_c, 1, 61, 0
3, 1287720, Note_on_c, 1, 59, 100
3, 1287840, Note_on_c, 1, 59, 0
3, 1287840, Note_on_c, 1, 61, 100
3, 1287960, Note_on_c, 1, 61, 0
3, 1287960, Note_on_c, 1, 64, 100
3, 1288080, Note_on_c, 1, 64, 0
3, 1288080, Note_on_c, 1, 69, 100
3, 1288320, Note_on_c, 1, 69, 0
3, 1288560, Note_on_c, 1, 62, 100
3, 1288920, Note_on_c, 1, 62, 0
3, 1288920, Note_on_c, 1, 64, 100
3, 1288980, Note_on_c, 1, 64, 0
3, 1288980, Note_on_c, 1, 65, 100
3, 1289040, Note_on_c, 1, 65, 0
3, 1289040, Note_on_c, 1, 64, 100
3, 1289100, Note_on_c, 1, 64, 0
3, 1289100, Note_on_c, 1, 62, 100
3, 1289160, Note_on_c, 1, 62, 0
3, 1289160, Note_on_c, 1, 64, 100
3, 1289280, Note_on_c, 1, 64, 0
3, 1289280, Note_on_c, 1, 62, 100
3, 1289760, Note_on_c, 1, 62, 0
3, 1290480, Note_on_c, 1, 66, 100
3, 1290720, Note_on_c, 1, 66, 0
3, 1290720, Note_on_c, 1, 67, 100
3, 1290960, Note_on_c, 1, 67, 0
3, 1290960, Note_on_c, 1, 69, 100
3, 1291200, Note_on_c, 1, 69, 0
3, 1291200, Note_on_c, 1, 62, 100
3, 1291320, Note_on_c, 1, 62, 0
3, 1291320, Note_on_c, 1, 74, 100
3, 1291560, Note_on_c, 1, 74, 0
3, 1291560, Note_on_c, 1, 72, 100
3, 1291800, Note_on_c, 1, 72, 0
3, 1291800, Note_on_c, 1, 70, 100
3, 1292040, Note_on_c, 1, 70, 0
3, 1292040, Note_on_c, 1, 69, 100
3, 1292160, Note_on_c, 1, 69, 0
3, 1292160, Note_on_c, 1, 70, 100
3, 1292400, Note_on_c, 1, 70, 0
3, 1292400, Note_on_c, 1, 63, 100
3, 1292640, Note_on_c, 1, 63, 0
3, 1292640, Note_on_c, 1, 62, 100
3, 1292880, Note_on_c, 1, 62, 0
3, 1292880, Note_on_c, 1, 67, 100
3, 1293120, Note_on_c, 1, 67, 0
3, 1293120, Note_on_c, 1, 65, 100
3, 1293240, Note_on_c, 1, 65, 0
3, 1293240, Note_on_c, 1, 67, 100
3, 1293360, Note_on_c, 1, 67, 0
3, 1293360, Note_on_c, 1, 68, 100
3, 1293600, Note_on_c, 1, 68, 0
3, 1293720, Note_on_c, 1, 70, 100
3, 1293960, Note_on_c, 1, 70, 0
3, 1293960, Note_on_c, 1, 68, 100
3, 1294080, Note_on_c, 1, 68, 0
3, 1294080, Note_on_c, 1, 67, 100
3, 1294200, Note_on_c, 1, 67, 0
3, 1294200, Note_on_c, 1, 70, 100
3, 1294320, Note_on_c, 1, 70, 0
3, 1294320, Note_on_c, 1, 75, 100
3, 1294440, Note_on_c, 1, 75, 0
3, 1294440, Note_on_c, 1, 79, 100
3, 1294560, Note_on_c, 1, 79, 0
3, 1294560, Note_on_c, 1, 77, 100
3, 1294680, Note_on_c, 1, 77, 0
3, 1294680, Note_on_c, 1, 75, 100
3, 1294800, Note_on_c, 1, 75, 0
3, 1294800, Note_on_c, 1, 74, 100
3, 1294920, Note_on_c, 1, 74, 0
3, 1294920, Note_on_c, 1, 72, 100
3, 1295040, Note_on_c, 1, 72, 0
3, 1295040, Note_on_c, 1, 70, 100
3, 1296120, Note_on_c, 1, 70, 0
3, 1296120, Note_on_c, 1, 68, 100
3, 1296180, Note_on_c, 1, 68, 0
3, 1296180, Note_on_c, 1, 67, 100
3, 1296240, Note_on_c, 1, 67, 0
3, 1296240, Note_on_c, 1, 65, 100
3, 1296300, Note_on_c, 1, 65, 0
3, 1296300, Note_on_c, 1, 67, 100
3, 1296360, Note_on_c, 1, 67, 0
3, 1296360, Note_on_c, 1, 68, 100
3, 1296480, Note_on_c, 1, 68, 0
3, 1296480, Note_on_c, 1, 67, 100
3, 1296600, Note_on_c, 1, 67, 0
3, 1296600, Note_on_c, 1, 65, 100
3, 1296660, Note_on_c, 1, 65, 0
3, 1296660, Note_on_c, 1, 63, 100
3, 1296720, Note_on_c, 1, 63, 0
3, 1296720, Note_on_c, 1, 65, 100
3, 1296780, Note_on_c, 1, 65, 0
3, 1296780, Note_on_c, 1, 63, 100
3, 1296840, Note_on_c, 1, 63, 0
3, 1296840, Note_on_c, 1, 62, 100
3, 1296960, Note_on_c, 1, 62, 0
3, 1296960, Note_on_c, 1, 63, 100
3, 1297200, Note_on_c, 1, 63, 0
3, 1298040, Note_on_c, 1, 68, 100
3, 1298160, Note_on_c, 1, 68, 0
3, 1298160, Note_on_c, 1, 68, 100
3, 1298280, Note_on_c, 1, 68, 0
3, 1298280, Note_on_c, 1, 67, 100
3, 1298400, Note_on_c, 1, 67, 0
3, 1298400, Note_on_c, 1, 66, 100
3, 1298520, Note_on_c, 1, 66, 0
3, 1298520, Note_on_c, 1, 65, 100
3, 1298640, Note_on_c, 1, 65, 0
3, 1298640, Note_on_c, 1, 74, 100
3, 1298760, Note_on_c, 1, 74, 0
3, 1298760, Note_on_c, 1, 65, 100
3, 1298880, Note_on_c, 1, 65, 0
3, 1298880, Note_on_c, 1, 63, 100
3, 1299480, Note_on_c, 1, 63, 0
3, 1299480, Note_on_c, 1, 62, 100
3, 1299600, Note_on_c, 1, 62, 0
3, 1299600, Note_on_c, 1, 60, 100
3, 1299720, Note_on_c, 1, 60, 0
3, 1299720, Note_on_c, 1, 58, 100
3, 1299840, Note_on_c, 1, 58, 0
3, 1299840, Note_on_c, 1, 57, 100
3, 1299960, Note_on_c, 1, 57, 0
3, 1299960, Note_on_c, 1, 58, 100
3, 1300080, Note_on_c, 1, 58, 0
3, 1300080, Note_on_c, 1, 60, 100
3, 1300200, Note_on_c, 1, 60, 0
3, 1300200, Note_on_c, 1, 62, 100
3, 1300320, Note_on_c, 1, 62, 0
3, 1300320, Note_on_c, 1, 63, 100
3, 1300440, Note_on_c, 1, 63, 0
3, 1300440, Note_on_c, 1, 62, 100
3, 1300560, Note_on_c, 1, 62, 0
3, 1300560, Note_on_c, 1, 63, 100
3, 1300920, Note_on_c, 1, 63, 0
3, 1300920, Note_on_c, 1, 60, 100
3, 1301040, Note_on_c, 1, 60, 0
3, 1301040, Note_on_c, 1, 62, 100
3, 1301280, Note_on_c, 1, 62, 0
3, 1301520, Note_on_c, 1, 69, 100
3, 1301760, Note_on_c, 1, 69, 0
3, 1301760, Note_on_c, 1, 74, 100
3, 1302120, Note_on_c, 1, 74, 0
3, 1302120, Note_on_c, 1, 72, 100
3, 1302240, Note_on_c, 1, 72, 0
3, 1302240, Note_on_c, 1, 70, 100
3, 1302360, Note_on_c, 1, 70, 0
3, 1302360, Note_on_c, 1, 69, 100
3, 1302480, Note_on_c, 1, 69, 0
3, 1302480, Note_on_c, 1, 67, 100
3, 1302600, Note_on_c, 1, 67, 0
3, 1302600, Note_on_c, 1, 65, 100
3, 1302720, Note_on_c, 1, 65, 0
3, 1302720, Note_on_c, 1, 63, 100
3, 1302840, Note_on_c, 1, 63, 0
3, 1302840, Note_on_c, 1, 62, 100
3, 1302960, Note_on_c, 1, 62, 0
3, 1302960, Note_on_c, 1, 60, 100
3, 1303080, Note_on_c, 1, 60, 0
3, 1303080, Note_on_c, 1, 63, 100
3, 1303200, Note_on_c, 1, 63, 0
3, 1303200, Note_on_c, 1, 62, 100
3, 1303320, Note_on_c, 1, 62, 0
3, 1303320, Note_on_c, 1, 64, 100
3, 1303440, Note_on_c, 1, 64, 0
3, 1303440, Note_on_c, 1, 66, 100
3, 1303500, Note_on_c, 1, 66, 0
3, 1303500, Note_on_c, 1, 67, 100
3, 1303560, Note_on_c, 1, 67, 0
3, 1303560, Note_on_c, 1, 57, 100
3, 1303800, Note_on_c, 1, 57, 0
3, 1303800, Note_on_c, 1, 63, 100
3, 1303920, Note_on_c, 1, 63, 0
3, 1303920, Note_on_c, 1, 62, 100
3, 1304040, Note_on_c, 1, 62, 0
3, 1304040, Note_on_c, 1, 60, 100
3, 1304160, Note_on_c, 1, 60, 0
3, 1304160, Note_on_c, 1, 58, 100
3, 1304280, Note_on_c, 1, 58, 0
3, 1304280, Note_on_c, 1, 57, 100
3, 1304400, Note_on_c, 1, 57, 0
3, 1304400, Note_on_c, 1, 55, 100
3, 1304520, Note_on_c, 1, 55, 0
3, 1304520, Note_on_c, 1, 54, 100
3, 1304640, Note_on_c, 1, 54, 0
3, 1304640, Note_on_c, 1, 55, 100
3, 1305120, Note_on_c, 1, 55, 0
3, 1305840, Note_on_c, 1, 66, 100
3, 1306080, Note_on_c, 1, 66, 0
3, 1306080, Note_on_c, 1, 67, 100
3, 1306320, Note_on_c, 1, 67, 0
3, 1306320, Note_on_c, 1, 69, 100
3, 1306560, Note_on_c, 1, 69, 0
3, 1306560, Note_on_c, 1, 62, 100
3, 1306680, Note_on_c, 1, 62, 0
3, 1306680, Note_on_c, 1, 74, 100
3, 1306920, Note_on_c, 1, 74, 0
3, 1306920, Note_on_c, 1, 72, 100
3, 1307160, Note_on_c, 1, 72, 0
3, 1307160, Note_on_c, 1, 70, 100
3, 1307400, Note_on_c, 1, 70, 0
3, 1307400, Note_on_c, 1, 69, 100
3, 1307520, Note_on_c, 1, 69, 0
3, 1307520, Note_on_c, 1, 70, 100
3, 1307760, Note_on_c, 1, 70, 0
3, 1307760, Note_on_c, 1, 63, 100
3, 1308000, Note_on_c, 1, 63, 0
3, 1308000, Note_on_c, 1, 62, 100
3, 1308240, Note_on_c, 1, 62, 0
3, 1308240, Note_on_c, 1, 67, 100
3, 1308480, Note_on_c, 1, 67, 0
3, 1308480, Note_on_c, 1, 65, 100
3, 1308600, Note_on_c, 1, 65, 0
3, 1308600, Note_on_c, 1, 67, 100
3, 1308720, Note_on_c, 1, 67, 0
3, 1308720, Note_on_c, 1, 68, 100
3, 1308960, Note_on_c, 1, 68, 0
3, 1309080, Note_on_c, 1, 70, 100
3, 1309320, Note_on_c, 1, 70, 0
3, 1309320, Note_on_c, 1, 68, 100
3, 1309440, Note_on_c, 1, 68, 0
3, 1309440, Note_on_c, 1, 67, 100
3, 1309560, Note_on_c, 1, 67, 0
3, 1309560, Note_on_c, 1, 70, 100
3, 1309680, Note_on_c, 1, 70, 0
3, 1309680, Note_on_c, 1, 75, 100
3, 1309800, Note_on_c, 1, 75, 0
3, 1309800, Note_on_c, 1, 79, 100
3, 1309920, Note_on_c, 1, 79, 0
3, 1309920, Note_on_c, 1, 77, 100
3, 1310040, Note_on_c, 1, 77, 0
3, 1310040, Note_on_c, 1, 75, 100
3, 1310160, Note_on_c, 1, 75, 0
3, 1310160, Note_on_c, 1, 74, 100
3, 1310280, Note_on_c, 1, 74, 0
3, 1310280, Note_on_c, 1, 72, 100
3, 1310400, Note_on_c, 1, 72, 0
3, 1310400, Note_on_c, 1, 70, 100
3, 1311480, Note_on_c, 1, 70, 0
3, 1311480, Note_on_c, 1, 68, 100
3, 1311540, Note_on_c, 1, 68, 0
3, 1311540, Note_on_c, 1, 67, 100
3, 1311600, Note_on_c, 1, 67, 0
3, 1311600, Note_on_c, 1, 65, 100
3, 1311660, Note_on_c, 1, 65, 0
3, 1311660, Note_on_c, 1, 67, 100
3, 1311720, Note_on_c, 1, 67, 0
3, 1311720, Note_on_c, 1, 68, 100
3, 1311840, Note_on_c, 1, 68, 0
3, 1311840, Note_on_c, 1, 67, 100
3, 1311960, Note_on_c, 1, 67, 0
3, 1311960, Note_on_c, 1, 65, 100
3, 1312020, Note_on_c, 1, 65, 0
3, 1312020, Note_on_c, 1, 63, 100
3, 1312080, Note_on_c, 1, 63, 0
3, 1312080, Note_on_c, 1, 65, 100
3, 1312140, Note_on_c, 1, 65, 0
3, 1312140, Note_on_c, 1, 63, 100
3, 1312200, Note_on_c, 1, 63, 0
3, 1312200, Note_on_c, 1, 62, 100
3, 1312320, Note_on_c, 1, 62, 0
3, 1312320, Note_on_c, 1, 63, 100
3, 1312560, Note_on_c, 1, 63, 0
3, 1313400, Note_on_c, 1, 68, 100
3, 1313520, Note_on_c, 1, 68, 0
3, 1313520, Note_on_c, 1, 68, 100
3, 1313640, Note_on_c, 1, 68, 0
3, 1313640, Note_on_c, 1, 67, 100
3, 1313760, Note_on_c, 1, 67, 0
3, 1313760, Note_on_c, 1, 66, 100
3, 1313880, Note_on_c, 1, 66, 0
3, 1313880, Note_on_c, 1, 65, 100
3, 1314000, Note_on_c, 1, 65, 0
3, 1314000, Note_on_c, 1, 74, 100
3, 1314120, Note_on_c, 1, 74, 0
3, 1314120, Note_on_c, 1, 65, 100
3, 1314240, Note_on_c, 1, 65, 0
3, 1314240, Note_on_c, 1, 63, 100
3, 1314840, Note_on_c, 1, 63, 0
3, 1314840, Note_on_c, 1, 62, 100
3, 1314960, Note_on_c, 1, 62, 0
3, 1314960, Note_on_c, 1, 60, 100
3, 1315080, Note_on_c, 1, 60, 0
3, 1315080, Note_on_c, 1, 58, 100
3, 1315200, Note_on_c, 1, 58, 0
3, 1315200, Note_on_c, 1, 57, 100
3, 1315320, Note_on_c, 1, 57, 0
3, 1315320, Note_on_c, 1, 58, 100
3, 1315440, Note_on_c, 1, 58, 0
3, 1315440, Note_on_c, 1, 60, 100
3, 1315560, Note_on_c, 1, 60, 0
3, 1315560, Note_on_c, 1, 62, 100
3, 1315680, Note_on_c, 1, 62, 0
3, 1315680, Note_on_c, 1, 63, 100
3, 1315800, Note_on_c, 1, 63, 0
3, 1315800, Note_on_c, 1, 62, 100
3, 1315920, Note_on_c, 1, 62, 0
3, 1315920, Note_on_c, 1, 63, 100
3, 1316280, Note_on_c, 1, 63, 0
3, 1316280, Note_on_c, 1, 60, 100
3, 1316400, Note_on_c, 1, 60, 0
3, 1316400, Note_on_c, 1, 62, 100
3, 1316640, Note_on_c, 1, 62, 0
3, 1316880, Note_on_c, 1, 69, 100
3, 1317120, Note_on_c, 1, 69, 0
3, 1317120, Note_on_c, 1, 74, 100
3, 1317480, Note_on_c, 1, 74, 0
3, 1317480, Note_on_c, 1, 72, 100
3, 1317600, Note_on_c, 1, 72, 0
3, 1317600, Note_on_c, 1, 70, 100
3, 1317720, Note_on_c, 1, 70, 0
3, 1317720, Note_on_c, 1, 69, 100
3, 1317840, Note_on_c, 1, 69, 0
3, 1317840, Note_on_c, 1, 67, 100
3, 1317960, Note_on_c, 1, 67, 0
3, 1317960, Note_on_c, 1, 65, 100
3, 1318080, Note_on_c, 1, 65, 0
3, 1318080, Note_on_c, 1, 63, 100
3, 1318200, Note_on_c, 1, 63, 0
3, 1318200, Note_on_c, 1, 62, 100
3, 1318320, Note_on_c, 1, 62, 0
3, 1318320, Note_on_c, 1, 60, 100
3, 1318440, Note_on_c, 1, 60, 0
3, 1318440, Note_on_c, 1, 63, 100
3, 1318560, Note_on_c, 1, 63, 0
3, 1318560, Note_on_c, 1, 62, 100
3, 1318680, Note_on_c, 1, 62, 0
3, 1318680, Note_on_c, 1, 64, 100
3, 1318800, Note_on_c, 1, 64, 0
3, 1318800, Note_on_c, 1, 66, 100
3, 1318860, Note_on_c, 1, 66, 0
3, 1318860, Note_on_c, 1, 67, 100
3, 1318920, Note_on_c, 1, 67, 0
3, 1318920, Note_on_c, 1, 57, 100
3, 1319160, Note_on_c, 1, 57, 0
3, 1319160, Note_on_c, 1, 63, 100
3, 1319280, Note_on_c, 1, 63, 0
3, 1319280, Note_on_c, 1, 62, 100
3, 1319400, Note_on_c, 1, 62, 0
3, 1319400, Note_on_c, 1, 60, 100
3, 1319520, Note_on_c, 1, 60, 0
3, 1319520, Note_on_c, 1, 58, 100
3, 1319640, Note_on_c, 1, 58, 0
3, 1319640, Note_on_c, 1, 57, 100
3, 1319760, Note_on_c, 1, 57, 0
3, 1319760, Note_on_c, 1, 55, 100
3, 1319880, Note_on_c, 1, 55, 0
3, 1319880, Note_on_c, 1, 54, 100
3, 1320000, Note_on_c, 1, 54, 0
3, 1320000, Note_on_c, 1, 55, 100
3, 1320480, Note_on_c, 1, 55, 0
3, 1519920, Note_on_c, 1, 71, 100
3, 1521840, Note_on_c, 1, 71, 0
3, 1521840, Note_on_c, 1, 69, 100
3, 1523280, Note_on_c, 1, 69, 0
3, 1523280, Note_on_c, 1, 71, 100
3, 1523520, Note_on_c, 1, 71, 0
3, 1523520, Note_on_c, 1, 69, 100
3, 1523760, Note_on_c, 1, 69, 0
3, 1523760, Note_on_c, 1, 67, 100
3, 1525200, Note_on_c, 1, 67, 0
3, 1525200, Note_on_c, 1, 66, 100
3, 1525440, Note_on_c, 1, 66, 0
3, 1525440, Note_on_c, 1, 64, 100
3, 1525680, Note_on_c, 1, 64, 0
3, 1525680, Note_on_c, 1, 66, 100
3, 1526640, Note_on_c, 1, 66, 0
3, 1527600, Note_on_c, 1, 67, 100
3, 1529040, Note_on_c, 1, 67, 0
3, 1529040, Note_on_c, 1, 66, 100
3, 1529280, Note_on_c, 1, 66, 0
3, 1529280, Note_on_c, 1, 67, 100
3, 1529520, Note_on_c, 1, 67, 0
3, 1529520, Note_on_c, 1, 69, 100
3, 1530960, Note_on_c, 1, 69, 0
3, 1530960, Note_on_c, 1, 72, 100
3, 1531200, Note_on_c, 1, 72, 0
3, 1531200, Note_on_c, 1, 71, 100
3, 1531440, Note_on_c, 1, 71, 0
3, 1531440, Note_on_c, 1, 72, 100
3, 1532640, Note_on_c, 1, 72, 0
3, 1532640, Note_on_c, 1, 71, 100
3, 1532880, Note_on_c, 1, 71, 0
3, 1532880, Note_on_c, 1, 72, 100
3, 1533120, Note_on_c, 1, 72, 0
3, 1533120, Note_on_c, 1, 69, 100
3, 1533360, Note_on_c, 1, 69, 0
3, 1533360, Note_on_c, 1, 71, 100
3, 1534320, Note_on_c, 1, 71, 0
3, 1535280, Note_on_c, 1, 67, 100
3, 1537200, Note_on_c, 1, 67, 0
3, 1537200, Note_on_c, 1, 66, 100
3, 1538640, Note_on_c, 1, 66, 0
3, 1538640, Note_on_c, 1, 67, 100
3, 1538880, Note_on_c, 1, 67, 0
3, 1538880, Note_on_c, 1, 69, 100
3, 1539120, Note_on_c, 1, 69, 0
3, 1539120, Note_on_c, 1, 71, 100
3, 1540320, Note_on_c, 1, 71, 0
3, 1540320, Note_on_c, 1, 69, 100
3, 1540560, Note_on_c, 1, 69, 0
3, 1540560, Note_on_c, 1, 71, 100
3, 1540800, Note_on_c, 1, 71, 0
3, 1540800, Note_on_c, 1, 67, 100
3, 1541040, Note_on_c, 1, 67, 0
3, 1541040, Note_on_c, 1, 69, 100
3, 1542480, Note_on_c, 1, 69, 0
3, 1542480, Note_on_c, 1, 69, 100
3, 1542960, Note_on_c, 1, 69, 0
3, 1542960, Note_on_c, 1, 67, 100
3, 1544400, Note_on_c, 1, 67, 0
3, 1544400, Note_on_c, 1, 67, 100
3, 1544880, Note_on_c, 1, 67, 0
3, 1544880, Note_on_c, 1, 66, 100
3, 1546320, Note_on_c, 1, 66, 0
3, 1546320, Note_on_c, 1, 71, 100
3, 1546800, Note_on_c, 1, 71, 0
3, 1546800, Note_on_c, 1, 64, 100
3, 1547040, Note_on_c, 1, 64, 0
3, 1547040, Note_on_c, 1, 66, 100
3, 1547280, Note_on_c, 1, 66, 0
3, 1547280, Note_on_c, 1, 67, 100
3, 1548720, Note_on_c, 1, 67, 0
3, 1548720, Note_on_c, 1, 66, 100
3, 1550640, Note_on_c, 1, 66, 0
3, 1550640, Note_on_c, 1, 71, 100
3, 1552560, Note_on_c, 1, 71, 0
3, 1552560, Note_on_c, 1, 69, 100
3, 1554000, Note_on_c, 1, 69, 0
3, 1554000, Note_on_c, 1, 71, 100
3, 1554240, Note_on_c, 1, 71, 0
3, 1554240, Note_on_c, 1, 69, 100
3, 1554480, Note_on_c, 1, 69, 0
3, 1554480, Note_on_c, 1, 67, 100
3, 1555920, Note_on_c, 1, 67, 0
3, 1555920, Note_on_c, 1, 66, 100
3, 1556160, Note_on_c, 1, 66, 0
3, 1556160, Note_on_c, 1, 64, 100
3, 1556400, Note_on_c, 1, 64, 0
3, 1556400, Note_on_c, 1, 66, 100
3, 1557360, Note_on_c, 1, 66, 0
3, 1558320, Note_on_c, 1, 67, 100
3, 1559760, Note_on_c, 1, 67, 0
3, 1559760, Note_on_c, 1, 66, 100
3, 1560000, Note_on_c, 1, 66, 0
3, 1560000, Note_on_c, 1, 67, 100
3, 1560240, Note_on_c, 1, 67, 0
3, 1560240, Note_on_c, 1, 69, 100
3, 1561680, Note_on_c, 1, 69, 0
3, 1561680, Note_on_c, 1, 72, 100
3, 1561920, Note_on_c, 1, 72, 0
3, 1561920, Note_on_c, 1, 71, 100
3, 1562160, Note_on_c, 1, 71, 0
3, 1562160, Note_on_c, 1, 72, 100
3, 1563360, Note_on_c, 1, 72, 0
3, 1563360, Note_on_c, 1, 71, 100
3, 1563600, Note_on_c, 1, 71, 0
3, 1563600, Note_on_c, 1, 72, 100
3, 1563840, Note_on_c, 1, 72, 0
3, 1563840, Note_on_c, 1, 69, 100
3, 1564080, Note_on_c, 1, 69, 0
3, 1564080, Note_on_c, 1, 71, 100
3, 1565040, Note_on_c, 1, 71, 0
3, 1566000, Note_on_c, 1, 67, 100
3, 1567920, Note_on_c, 1, 67, 0
3, 1567920, Note_on_c, 1, 66, 100
3, 1569360, Note_on_c, 1, 66, 0
3, 1569360, Note_on_c, 1, 67, 100
3, 1569600, Note_on_c, 1, 67, 0
3, 1569600, Note_on_c, 1, 69, 100
3, 1569840, Note_on_c, 1, 69, 0
3, 1569840, Note_on_c, 1, 71, 100
3, 1571040, Note_on_c, 1, 71, 0
3, 1571040, Note_on_c, 1, 69, 100
3, 1571280, Note_on_c, 1, 69, 0
3, 1571280, Note_on_c, 1, 71, 100
3, 1571520, Note_on_c, 1, 71, 0
3, 1571520, Note_on_c, 1, 67, 100
3, 1571760, Note_on_c, 1, 67, 0
3, 1571760, Note_on_c, 1, 69, 100
3, 1573200, Note_on_c, 1, 69, 0
3, 1573200, Note_on_c, 1, 69, 100
3, 1573680, Note_on_c, 1, 69, 0
3, 1573680, Note_on_c, 1, 67, 100
3, 1575120, Note_on_c, 1, 67, 0
3, 1575120, Note_on_c, 1, 67, 100
3, 1575600, Note_on_c, 1, 67, 0
3, 1575600, Note_on_c, 1, 66, 100
3, 1577040, Note_on_c, 1, 66, 0
3, 1577040, Note_on_c, 1, 71, 100
3, 1577520, Note_on_c, 1, 71, 0
3, 1577520, Note_on_c, 1, 64, 100
3, 1577760, Note_on_c, 1, 64, 0
3, 1577760, Note_on_c, 1, 66, 100
3, 1578000, Note_on_c, 1, 66, 0
3, 1578000, Note_on_c, 1, 67, 100
3, 1579440, Note_on_c, 1, 67, 0
3, 1579440, Note_on_c, 1, 66, 100
3, 1581360, Note_on_c, 1, 66, 0
3, 1581360, Note_on_c, 1, 72, 100
3, 1583280, Note_on_c, 1, 72, 0
3, 1583280, Note_on_c, 1, 71, 100
3, 1584720, Note_on_c, 1, 71, 0
3, 1584720, Note_on_c, 1, 72, 100
3, 1584960, Note_on_c, 1, 72, 0
3, 1584960, Note_on_c, 1, 74, 100
3, 1585200, Note_on_c, 1, 74, 0
3, 1585200, Note_on_c, 1, 76, 100
3, 1586400, Note_on_c, 1, 76, 0
3, 1586400, Note_on_c, 1, 75, 100
3, 1586640, Note_on_c, 1, 75, 0
3, 1586640, Note_on_c, 1, 76, 100
3, 1587120, Note_on_c, 1, 76, 0
3, 1587120, Note_on_c, 1, 75, 100
3, 1588080, Note_on_c, 1, 75, 0
3, 1589040, Note_on_c, 1, 67, 100
3, 1590960, Note_on_c, 1, 67, 0
3, 1590960, Note_on_c, 1, 66, 100
3, 1591440, Note_on_c, 1, 66, 0
3, 1591440, Note_on_c, 1, 67, 100
3, 1591920, Note_on_c, 1, 67, 0
3, 1591920, Note_on_c, 1, 69, 100
3, 1593360, Note_on_c, 1, 69, 0
3, 1593360, Note_on_c, 1, 67, 100
3, 1593600, Note_on_c, 1, 67, 0
3, 1593600, Note_on_c, 1, 69, 100
3, 1593840, Note_on_c, 1, 69, 0
3, 1593840, Note_on_c, 1, 71, 100
3, 1595040, Note_on_c, 1, 71, 0
3, 1595040, Note_on_c, 1, 69, 100
3, 1595280, Note_on_c, 1, 69, 0
3, 1595280, Note_on_c, 1, 67, 100
3, 1595520, Note_on_c, 1, 67, 0
3, 1595520, Note_on_c, 1, 66, 100
3, 1595760, Note_on_c, 1, 66, 0
3, 1595760, Note_on_c, 1, 64, 100
3, 1596240, Note_on_c, 1, 64, 0
3, 1596720, Note_on_c, 1, 72, 100
3, 1598640, Note_on_c, 1, 72, 0
3, 1598640, Note_on_c, 1, 71, 100
3, 1600080, Note_on_c, 1, 71, 0
3, 1600080, Note_on_c, 1, 72, 100
3, 1600320, Note_on_c, 1, 72, 0
3, 1600320, Note_on_c, 1, 74, 100
3, 1600560, Note_on_c, 1, 74, 0
3, 1600560, Note_on_c, 1, 76, 100
3, 1601760, Note_on_c, 1, 76, 0
3, 1601760, Note_on_c, 1, 74, 100
3, 1602000, Note_on_c, 1, 74, 0
3, 1602000, Note_on_c, 1, 76, 100
3, 1602240, Note_on_c, 1, 76, 0
3, 1602240, Note_on_c, 1, 72, 100
3, 1602480, Note_on_c, 1, 72, 0
3, 1602480, Note_on_c, 1, 74, 100
3, 1603920, Note_on_c, 1, 74, 0
3, 1603920, Note_on_c, 1, 74, 100
3, 1604400, Note_on_c, 1, 74, 0
3, 1604400, Note_on_c, 1, 72, 100
3, 1605840, Note_on_c, 1, 72, 0
3, 1605840, Note_on_c, 1, 72, 100
3, 1606320, Note_on_c, 1, 72, 0
3, 1606320, Note_on_c, 1, 71, 100
3, 1607760, Note_on_c, 1, 71, 0
3, 1607760, Note_on_c, 1, 76, 100
3, 1608240, Note_on_c, 1, 76, 0
3, 1608240, Note_on_c, 1, 69, 100
3, 1608480, Note_on_c, 1, 69, 0
3, 1608480, Note_on_c, 1, 71, 100
3, 1608720, Note_on_c, 1, 71, 0
3, 1608720, Note_on_c, 1, 72, 100
3, 1610160, Note_on_c, 1, 72, 0
3, 1610160, Note_on_c, 1, 71, 100
3, 1612080, Note_on_c, 1, 71, 0
3, 1612080, Note_on_c, 1, 72, 100
3, 1614000, Note_on_c, 1, 72, 0
3, 1614000, Note_on_c, 1, 71, 100
3, 1615440, Note_on_c, 1, 71, 0
3, 1615440, Note_on_c, 1, 72, 100
3, 1615680, Note_on_c, 1, 72, 0
3, 1615680, Note_on_c, 1, 74, 100
3, 1615920, Note_on_c, 1, 74, 0
3, 1615920, Note_on_c, 1, 76, 100
3, 1617120, Note_on_c, 1, 76, 0
3, 1617120, Note_on_c, 1, 75, 100
3, 1617360, Note_on_c, 1, 75, 0
3, 1617360, Note_on_c, 1, 76, 100
3, 1617840, Note_on_c, 1, 76, 0
3, 1617840, Note_on_c, 1, 75, 100
3, 1618800, Note_on_c, 1, 75, 0
3, 1619760, Note_on_c, 1, 67, 100
3, 1621680, Note_on_c, 1, 67, 0
3, 1621680, Note_on_c, 1, 66, 100
3, 1622160, Note_on_c, 1, 66, 0
3, 1622160, Note_on_c, 1, 67, 100
3, 1622640, Note_on_c, 1, 67, 0
3, 1622640, Note_on_c, 1, 69, 100
3, 1624080, Note_on_c, 1, 69, 0
3, 1624080, Note_on_c, 1, 67, 100
3, 1624320, Note_on_c, 1, 67, 0
3, 1624320, Note_on_c, 1, 69, 100
3, 1624560, Note_on_c, 1, 69, 0
3, 1624560, Note_on_c, 1, 71, 100
3, 1625760, Note_on_c, 1, 71, 0
3, 1625760, Note_on_c, 1, 69, 100
3, 1626000, Note_on_c, 1, 69, 0
3, 1626000, Note_on_c, 1, 67, 100
3, 1626240, Note_on_c, 1, 67, 0
3, 1626240, Note_on_c, 1, 66, 100
3, 1626480, Note_on_c, 1, 66, 0
3, 1626480, Note_on_c, 1, 64, 100
3, 1626960, Note_on_c, 1, 64, 0
3, 1627440, Note_on_c, 1, 72, 100
3, 1629360, Note_on_c, 1, 72, 0
3, 1629360, Note_on_c, 1, 71, 100
3, 1630800, Note_on_c, 1, 71, 0
3, 1630800, Note_on_c, 1, 72, 100
3, 1631040, Note_on_c, 1, 72, 0
3, 1631040, Note_on_c, 1, 74, 100
3, 1631280, Note_on_c, 1, 74, 0
3, 1631280, Note_on_c, 1, 76, 100
3, 1632480, Note_on_c, 1, 76, 0
3, 1632480, Note_on_c, 1, 74, 100
3, 1632720, Note_on_c, 1, 74, 0
3, 1632720, Note_on_c, 1, 76, 100
3, 1632960, Note_on_c, 1, 76, 0
3, 1632960, Note_on_c, 1, 72, 100
3, 1633200, Note_on_c, 1, 72, 0
3, 1633200, Note_on_c, 1, 74, 100
3, 1634640, Note_on_c, 1, 74, 0
3, 1634640, Note_on_c, 1, 74, 100
3, 1635120, Note_on_c, 1, 74, 0
3, 1635120, Note_on_c, 1, 72, 100
3, 1636560, Note_on_c, 1, 72, 0
3, 1636560, Note_on_c, 1, 72, 100
3, 1637040, Note_on_c, 1, 72, 0
3, 1637040, Note_on_c, 1, 71, 100
3, 1638480, Note_on_c, 1, 71, 0
3, 1638480, Note_on_c, 1, 76, 100
3, 1638960, Note_on_c, 1, 76, 0
3, 1638960, Note_on_c, 1, 69, 100
3, 1639200, Note_on_c, 1, 69, 0
3, 1639200, Note_on_c, 1, 71, 100
3, 1639440, Note_on_c, 1, 71, 0
3, 1639440, Note_on_c, 1, 72, 100
3, 1640880, Note_on_c, 1, 72, 0
3, 1640880, Note_on_c, 1, 71, 100
3, 1642800, Note_on_c, 1, 71, 0
3, 1642800, Note_on_c, 1, 74, 100
3, 1643040, Note_on_c, 1, 74, 0
3, 1643040, Note_on_c, 1, 74, 100
3, 1643760, Note_on_c, 1, 74, 0
3, 1643760, Note_on_c, 1, 74, 100
3, 1644480, Note_on_c, 1, 74, 0
3, 1644480, Note_on_c, 1, 74, 100
3, 1644720, Note_on_c, 1, 74, 0
3, 1644720, Note_on_c, 1, 73, 100
3, 1644960, Note_on_c, 1, 73, 0
3, 1644960, Note_on_c, 1, 74, 100
3, 1645440, Note_on_c, 1, 74, 0
3, 1645680, Note_on_c, 1, 79, 100
3, 1645800, Note_on_c, 1, 79, 0
3, 1645800, Note_on_c, 1, 78, 100
3, 1645920, Note_on_c, 1, 78, 0
3, 1645920, Note_on_c, 1, 79, 100
3, 1646040, Note_on_c, 1, 79, 0
3, 1646040, Note_on_c, 1, 74, 100
3, 1646160, Note_on_c, 1, 74, 0
3, 1646160, Note_on_c, 1, 71, 100
3, 1646280, Note_on_c, 1, 71, 0
3, 1646280, Note_on_c, 1, 74, 100
3, 1646400, Note_on_c, 1, 74, 0
3, 1646400, Note_on_c, 1, 76, 100
3, 1646520, Note_on_c, 1, 76, 0
3, 1646520, Note_on_c, 1, 74, 100
3, 1646640, Note_on_c, 1, 74, 0
3, 1646640, Note_on_c, 1, 76, 100
3, 1646760, Note_on_c, 1, 76, 0
3, 1646760, Note_on_c, 1, 72, 100
3, 1646880, Note_on_c, 1, 72, 0
3, 1646880, Note_on_c, 1, 69, 100
3, 1647000, Note_on_c, 1, 69, 0
3, 1647000, Note_on_c, 1, 72, 100
3, 1647120, Note_on_c, 1, 72, 0
3, 1647120, Note_on_c, 1, 74, 100
3, 1647240, Note_on_c, 1, 74, 0
3, 1647240, Note_on_c, 1, 72, 100
3, 1647360, Note_on_c, 1, 72, 0
3, 1647360, Note_on_c, 1, 74, 100
3, 1647480, Note_on_c, 1, 74, 0
3, 1647480, Note_on_c, 1, 76, 100
3, 1647600, Note_on_c, 1, 76, 0
3, 1647600, Note_on_c, 1, 74, 100
3, 1647720, Note_on_c, 1, 74, 0
3, 1647720, Note_on_c, 1, 72, 100
3, 1647840, Note_on_c, 1, 72, 0
3, 1647840, Note_on_c, 1, 71, 100
3, 1647960, Note_on_c, 1, 71, 0
3, 1647960, Note_on_c, 1, 69, 100
3, 1648080, Note_on_c, 1, 69, 0
3, 1648080, Note_on_c, 1, 71, 100
3, 1648200, Note_on_c, 1, 71, 0
3, 1648200, Note_on_c, 1, 72, 100
3, 1648320, Note_on_c, 1, 72, 0
3, 1648320, Note_on_c, 1, 71, 100
3, 1648440, Note_on_c, 1, 71, 0
3, 1648440, Note_on_c, 1, 69, 100
3, 1648560, Note_on_c, 1, 69, 0
3, 1648560, Note_on_c, 1, 67, 100
3, 1648800, Note_on_c, 1, 67, 0
3, 1648800, Note_on_c, 1, 79, 100
3, 1649520, Note_on_c, 1, 79, 0
3, 1649520, Note_on_c, 1, 78, 100
3, 1650240, Note_on_c, 1, 78, 0
3, 1650240, Note_on_c, 1, 76, 100
3, 1650480, Note_on_c, 1, 76, 0
3, 1650480, Note_on_c, 1, 74, 100
3, 1650720, Note_on_c, 1, 74, 0
3, 1650720, Note_on_c, 1, 73, 100
3, 1650840, Note_on_c, 1, 73, 0
3, 1650840, Note_on_c, 1, 74, 100
3, 1650960, Note_on_c, 1, 74, 0
3, 1650960, Note_on_c, 1, 76, 100
3, 1651680, Note_on_c, 1, 76, 0
3, 1651680, Note_on_c, 1, 74, 100
3, 1651920, Note_on_c, 1, 74, 0
3, 1651920, Note_on_c, 1, 72, 100
3, 1652400, Note_on_c, 1, 72, 0
3, 1652400, Note_on_c, 1, 71, 100
3, 1652640, Note_on_c, 1, 71, 0
3, 1652640, Note_on_c, 1, 79, 100
3, 1653000, Note_on_c, 1, 79, 0
3, 1653000, Note_on_c, 1, 76, 100
3, 1653120, Note_on_c, 1, 76, 0
3, 1653120, Note_on_c, 1, 78, 100
3, 1653240, Note_on_c, 1, 78, 0
3, 1653240, Note_on_c, 1, 74, 100
3, 1653360, Note_on_c, 1, 74, 0
3, 1653360, Note_on_c, 1, 76, 100
3, 1653480, Note_on_c, 1, 76, 0
3, 1653480, Note_on_c, 1, 73, 100
3, 1653600, Note_on_c, 1, 73, 0
3, 1653600, Note_on_c, 1, 74, 100
3, 1654320, Note_on_c, 1, 74, 0
3, 1654320, Note_on_c, 1, 74, 100
3, 1654560, Note_on_c, 1, 74, 0
3, 1654560, Note_on_c, 1, 74, 100
3, 1655280, Note_on_c, 1, 74, 0
3, 1655280, Note_on_c, 1, 74, 100
3, 1656000, Note_on_c, 1, 74, 0
3, 1656000, Note_on_c, 1, 74, 100
3, 1656240, Note_on_c, 1, 74, 0
3, 1656240, Note_on_c, 1, 73, 100
3, 1656480, Note_on_c, 1, 73, 0
3, 1656480, Note_on_c, 1, 74, 100
3, 1656960, Note_on_c, 1, 74, 0
3, 1657200, Note_on_c, 1, 79, 100
3, 1657320, Note_on_c, 1, 79, 0
3, 1657320, Note_on_c, 1, 78, 100
3, 1657440, Note_on_c, 1, 78, 0
3, 1657440, Note_on_c, 1, 79, 100
3, 1657560, Note_on_c, 1, 79, 0
3, 1657560, Note_on_c, 1, 74, 100
3, 1657680, Note_on_c, 1, 74, 0
3, 1657680, Note_on_c, 1, 71, 100
3, 1657800, Note_on_c, 1, 71, 0
3, 1657800, Note_on_c, 1, 74, 100
3, 1657920, Note_on_c, 1, 74, 0
3, 1657920, Note_on_c, 1, 76, 100
3, 1658040, Note_on_c, 1, 76, 0
3, 1658040, Note_on_c, 1, 74, 100
3, 1658160, Note_on_c, 1, 74, 0
3, 1658160, Note_on_c, 1, 76, 100
3, 1658280, Note_on_c, 1, 76, 0
3, 1658280, Note_on_c, 1, 72, 100
3, 1658400, Note_on_c, 1, 72, 0
3, 1658400, Note_on_c, 1, 69, 100
3, 1658520, Note_on_c, 1, 69, 0
3, 1658520, Note_on_c, 1, 72, 100
3, 1658640, Note_on_c, 1, 72, 0
3, 1658640, Note_on_c, 1, 74, 100
3, 1658760, Note_on_c, 1, 74, 0
3, 1658760, Note_on_c, 1, 72, 100
3, 1658880, Note_on_c, 1, 72, 0
3, 1658880, Note_on_c, 1, 74, 100
3, 1659000, Note_on_c, 1, 74, 0
3, 1659000, Note_on_c, 1, 76, 100
3, 1659120, Note_on_c, 1, 76, 0
3, 1659120, Note_on_c, 1, 74, 100
3, 1659240, Note_on_c, 1, 74, 0
3, 1659240, Note_on_c, 1, 72, 100
3, 1659360, Note_on_c, 1, 72, 0
3, 1659360, Note_on_c, 1, 71, 100
3, 1659480, Note_on_c, 1, 71, 0
3, 1659480, Note_on_c, 1, 69, 100
3, 1659600, Note_on_c, 1, 69, 0
3, 1659600, Note_on_c, 1, 71, 100
3, 1659720, Note_on_c, 1, 71, 0
3, 1659720, Note_on_c, 1, 72, 100
3, 1659840, Note_on_c, 1, 72, 0
3, 1659840, Note_on_c, 1, 71, 100
3, 1659960, Note_on_c, 1, 71, 0
3, 1659960, Note_on_c, 1, 69, 100
3, 1660080, Note_on_c, 1, 69, 0
3, 1660080, Note_on_c, 1, 67, 100
3, 1660320, Note_on_c, 1, 67, 0
3, 1660320, Note_on_c, 1, 79, 100
3, 1661040, Note_on_c, 1, 79, 0
3, 1661040, Note_on_c, 1, 78, 100
3, 1661760, Note_on_c, 1, 78, 0
3, 1661760, Note_on_c, 1, 76, 100
3, 1662000, Note_on_c, 1, 76, 0
3, 1662000, Note_on_c, 1, 74, 100
3, 1662240, Note_on_c, 1, 74, 0
3, 1662240, Note_on_c, 1, 73, 100
3, 1662360, Note_on_c, 1, 73, 0
3, 1662360, Note_on_c, 1, 74, 100
3, 1662480, Note_on_c, 1, 74, 0
3, 1662480, Note_on_c, 1, 76, 100
3, 1663200, Note_on_c, 1, 76, 0
3, 1663200, Note_on_c, 1, 74, 100
3, 1663440, Note_on_c, 1, 74, 0
3, 1663440, Note_on_c, 1, 72, 100
3, 1663920, Note_on_c, 1, 72, 0
3, 1663920, Note_on_c, 1, 71, 100
3, 1664160, Note_on_c, 1, 71, 0
3, 1664160, Note_on_c, 1, 79, 100
3, 1664520, Note_on_c, 1, 79, 0
3, 1664520, Note_on_c, 1, 76, 100
3, 1664640, Note_on_c, 1, 76, 0
3, 1664640, Note_on_c, 1, 78, 100
3, 1664760, Note_on_c, 1, 78, 0
3, 1664760, Note_on_c, 1, 74, 100
3, 1664880, Note_on_c, 1, 74, 0
3, 1664880, Note_on_c, 1, 76, 100
3, 1665000, Note_on_c, 1, 76, 0
3, 1665000, Note_on_c, 1, 73, 100
3, 1665120, Note_on_c, 1, 73, 0
3, 1665120, Note_on_c, 1, 74, 100
3, 1665840, Note_on_c, 1, 74, 0
3, 1665840, Note_on_c, 1, 78, 100
3, 1665960, Note_on_c, 1, 78, 0
3, 1665960, Note_on_c, 1, 76, 100
3, 1666080, Note_on_c, 1, 76, 0
3, 1666080, Note_on_c, 1, 78, 100
3, 1666200, Note_on_c, 1, 78, 0
3, 1666200, Note_on_c, 1, 74, 100
3, 1666320, Note_on_c, 1, 74, 0
3, 1666320, Note_on_c, 1, 69, 100
3, 1666440, Note_on_c, 1, 69, 0
3, 1666440, Note_on_c, 1, 74, 100
3, 1666560, Note_on_c, 1, 74, 0
3, 1666560, Note_on_c, 1, 79, 100
3, 1666680, Note_on_c, 1, 79, 0
3, 1666680, Note_on_c, 1, 78, 100
3, 1666800, Note_on_c, 1, 78, 0
3, 1666800, Note_on_c, 1, 79, 100
3, 1666920, Note_on_c, 1, 79, 0
3, 1666920, Note_on_c, 1, 74, 100
3, 1667040, Note_on_c, 1, 74, 0
3, 1667040, Note_on_c, 1, 71, 100
3, 1667160, Note_on_c, 1, 71, 0
3, 1667160, Note_on_c, 1, 74, 100
3, 1667280, Note_on_c, 1, 74, 0
3, 1667280, Note_on_c, 1, 76, 100
3, 1667400, Note_on_c, 1, 76, 0
3, 1667400, Note_on_c, 1, 75, 100
3, 1667520, Note_on_c, 1, 75, 0
3, 1667520, Note_on_c, 1, 76, 100
3, 1667640, Note_on_c, 1, 76, 0
3, 1667640, Note_on_c, 1, 79, 100
3, 1667760, Note_on_c, 1, 79, 0
3, 1667760, Note_on_c, 1, 78, 100
3, 1667880, Note_on_c, 1, 78, 0
3, 1667880, Note_on_c, 1, 76, 100
3, 1668000, Note_on_c, 1, 76, 0
3, 1668000, Note_on_c, 1, 75, 100
3, 1668120, Note_on_c, 1, 75, 0
3, 1668120, Note_on_c, 1, 76, 100
3, 1668240, Note_on_c, 1, 76, 0
3, 1668240, Note_on_c, 1, 78, 100
3, 1668360, Note_on_c, 1, 78, 0
3, 1668360, Note_on_c, 1, 75, 100
3, 1668480, Note_on_c, 1, 75, 0
3, 1668480, Note_on_c, 1, 71, 100
3, 1668600, Note_on_c, 1, 71, 0
3, 1668600, Note_on_c, 1, 75, 100
3, 1668720, Note_on_c, 1, 75, 0
3, 1668720, Note_on_c, 1, 76, 100
3, 1668960, Note_on_c, 1, 76, 0
3, 1668960, Note_on_c, 1, 76, 100
3, 1669680, Note_on_c, 1, 76, 0
3, 1669680, Note_on_c, 1, 76, 100
3, 1670400, Note_on_c, 1, 76, 0
3, 1670400, Note_on_c, 1, 76, 100
3, 1670640, Note_on_c, 1, 76, 0
3, 1670640, Note_on_c, 1, 75, 100
3, 1670880, Note_on_c, 1, 75, 0
3, 1670880, Note_on_c, 1, 76, 100
3, 1671360, Note_on_c, 1, 76, 0
3, 1671840, Note_on_c, 1, 76, 100
3, 1671960, Note_on_c, 1, 76, 0
3, 1671960, Note_on_c, 1, 72, 100
3, 1672080, Note_on_c, 1, 72, 0
3, 1672080, Note_on_c, 1, 69, 100
3, 1672200, Note_on_c, 1, 69, 0
3, 1672200, Note_on_c, 1, 72, 100
3, 1672320, Note_on_c, 1, 72, 0
3, 1672320, Note_on_c, 1, 74, 100
3, 1673280, Note_on_c, 1, 74, 0
3, 1673280, Note_on_c, 1, 72, 100
3, 1673400, Note_on_c, 1, 72, 0
3, 1673400, Note_on_c, 1, 71, 100
3, 1673520, Note_on_c, 1, 71, 0
3, 1673520, Note_on_c, 1, 72, 100
3, 1674000, Note_on_c, 1, 72, 0
3, 1674000, Note_on_c, 1, 74, 100
3, 1674120, Note_on_c, 1, 74, 0
3, 1674120, Note_on_c, 1, 72, 100
3, 1674240, Note_on_c, 1, 72, 0
3, 1674240, Note_on_c, 1, 71, 100
3, 1674360, Note_on_c, 1, 71, 0
3, 1674360, Note_on_c, 1, 69, 100
3, 1674480, Note_on_c, 1, 69, 0
3, 1674480, Note_on_c, 1, 74, 100
3, 1674600, Note_on_c, 1, 74, 0
3, 1674600, Note_on_c, 1, 72, 100
3, 1674720, Note_on_c, 1, 72, 0
3, 1674720, Note_on_c, 1, 74, 100
3, 1674840, Note_on_c, 1, 74, 0
3, 1674840, Note_on_c, 1, 71, 100
3, 1674960, Note_on_c, 1, 71, 0
3, 1674960, Note_on_c, 1, 67, 100
3, 1675080, Note_on_c, 1, 67, 0
3, 1675080, Note_on_c, 1, 71, 100
3, 1675200, Note_on_c, 1, 71, 0
3, 1675200, Note_on_c, 1, 76, 100
3, 1675320, Note_on_c, 1, 76, 0
3, 1675320, Note_on_c, 1, 74, 100
3, 1675440, Note_on_c, 1, 74, 0
3, 1675440, Note_on_c, 1, 76, 100
3, 1675560, Note_on_c, 1, 76, 0
3, 1675560, Note_on_c, 1, 72, 100
3, 1675680, Note_on_c, 1, 72, 0
3, 1675680, Note_on_c, 1, 69, 100
3, 1675800, Note_on_c, 1, 69, 0
3, 1675800, Note_on_c, 1, 72, 100
3, 1675920, Note_on_c, 1, 72, 0
3, 1675920, Note_on_c, 1, 78, 100
3, 1676040, Note_on_c, 1, 78, 0
3, 1676040, Note_on_c, 1, 76, 100
3, 1676160, Note_on_c, 1, 76, 0
3, 1676160, Note_on_c, 1, 78, 100
3, 1676280, Note_on_c, 1, 78, 0
3, 1676280, Note_on_c, 1, 81, 100
3, 1676400, Note_on_c, 1, 81, 0
3, 1676400, Note_on_c, 1, 74, 100
3, 1676520, Note_on_c, 1, 74, 0
3, 1676520, Note_on_c, 1, 78, 100
3, 1676640, Note_on_c, 1, 78, 0
3, 1676640, Note_on_c, 1, 79, 100
3, 1676760, Note_on_c, 1, 79, 0
3, 1676760, Note_on_c, 1, 78, 100
3, 1676880, Note_on_c, 1, 78, 0
3, 1676880, Note_on_c, 1, 79, 100
3, 1677000, Note_on_c, 1, 79, 0
3, 1677000, Note_on_c, 1, 74, 100
3, 1677120, Note_on_c, 1, 74, 0
3, 1677120, Note_on_c, 1, 71, 100
3, 1677240, Note_on_c, 1, 71, 0
3, 1677240, Note_on_c, 1, 67, 100
3, 1677360, Note_on_c, 1, 67, 0
3, 1677360, Note_on_c, 1, 78, 100
3, 1677480, Note_on_c, 1, 78, 0
3, 1677480, Note_on_c, 1, 76, 100
3, 1677600, Note_on_c, 1, 76, 0
3, 1677600, Note_on_c, 1, 78, 100
3, 1677720, Note_on_c, 1, 78, 0
3, 1677720, Note_on_c, 1, 74, 100
3, 1677840, Note_on_c, 1, 74, 0
3, 1677840, Note_on_c, 1, 69, 100
3, 1677960, Note_on_c, 1, 69, 0
3, 1677960, Note_on_c, 1, 74, 100
3, 1678080, Note_on_c, 1, 74, 0
3, 1678080, Note_on_c, 1, 79, 100
3, 1678200, Note_on_c, 1, 79, 0
3, 1678200, Note_on_c, 1, 78, 100
3, 1678320, Note_on_c, 1, 78, 0
3, 1678320, Note_on_c, 1, 79, 100
3, 1678440, Note_on_c, 1, 79, 0
3, 1678440, Note_on_c, 1, 74, 100
3, 1678560, Note_on_c, 1, 74, 0
3, 1678560, Note_on_c, 1, 71, 100
3, 1678680, Note_on_c, 1, 71, 0
3, 1678680, Note_on_c, 1, 74, 100
3, 1678800, Note_on_c, 1, 74, 0
3, 1678800, Note_on_c, 1, 76, 100
3, 1678920, Note_on_c, 1, 76, 0
3, 1678920, Note_on_c, 1, 75, 100
3, 1679040, Note_on_c, 1, 75, 0
3, 1679040, Note_on_c, 1, 76, 100
3, 1679160, Note_on_c, 1, 76, 0
3, 1679160, Note_on_c, 1, 79, 100
3, 1679280, Note_on_c, 1, 79, 0
3, 1679280, Note_on_c, 1, 78, 100
3, 1679400, Note_on_c, 1, 78, 0
3, 1679400, Note_on_c, 1, 76, 100
3, 1679520, Note_on_c, 1, 76, 0
3, 1679520, Note_on_c, 1, 75, 100
3, 1679640, Note_on_c, 1, 75, 0
3, 1679640, Note_on_c, 1, 76, 100
3, 1679760, Note_on_c, 1, 76, 0
3, 1679760, Note_on_c, 1, 78, 100
3, 1679880, Note_on_c, 1, 78, 0
3, 1679880, Note_on_c, 1, 75, 100
3, 1680000, Note_on_c, 1, 75, 0
3, 1680000, Note_on_c, 1, 71, 100
3, 1680120, Note_on_c, 1, 71, 0
3, 1680120, Note_on_c, 1, 75, 100
3, 1680240, Note_on_c, 1, 75, 0
3, 1680240, Note_on_c, 1, 76, 100
3, 1680480, Note_on_c, 1, 76, 0
3, 1680480, Note_on_c, 1, 76, 100
3, 1681200, Note_on_c, 1, 76, 0
3, 1681200, Note_on_c, 1, 76, 100
3, 1681920, Note_on_c, 1, 76, 0
3, 1681920, Note_on_c, 1, 76, 100
3, 1682160, Note_on_c, 1, 76, 0
3, 1682160, Note_on_c, 1, 75, 100
3, 1682400, Note_on_c, 1, 75, 0
3, 1682400, Note_on_c, 1, 76, 100
3, 1682880, Note_on_c, 1, 76, 0
3, 1683360, Note_on_c, 1, 76, 100
3, 1683480, Note_on_c, 1, 76, 0
3, 1683480, Note_on_c, 1, 72, 100
3, 1683600, Note_on_c, 1, 72, 0
3, 1683600, Note_on_c, 1, 69, 100
3, 1683720, Note_on_c, 1, 69, 0
3, 1683720, Note_on_c, 1, 72, 100
3, 1683840, Note_on_c, 1, 72, 0
3, 1683840, Note_on_c, 1, 74, 100
3, 1684800, Note_on_c, 1, 74, 0
3, 1684800, Note_on_c, 1, 72, 100
3, 1684920, Note_on_c, 1, 72, 0
3, 1684920, Note_on_c, 1, 71, 100
3, 1685040, Note_on_c, 1, 71, 0
3, 1685040, Note_on_c, 1, 72, 100
3, 1685520, Note_on_c, 1, 72, 0
3, 1685520, Note_on_c, 1, 74, 100
3, 1685640, Note_on_c, 1, 74, 0
3, 1685640, Note_on_c, 1, 72, 100
3, 1685760, Note_on_c, 1, 72, 0
3, 1685760, Note_on_c, 1, 71, 100
3, 1685880, Note_on_c, 1, 71, 0
3, 1685880, Note_on_c, 1, 69, 100
3, 1686000, Note_on_c, 1, 69, 0
3, 1686000, Note_on_c, 1, 74, 100
3, 1686120, Note_on_c, 1, 74, 0
3, 1686120, Note_on_c, 1, 72, 100
3, 1686240, Note_on_c, 1, 72, 0
3, 1686240, Note_on_c, 1, 74, 100
3, 1686360, Note_on_c, 1, 74, 0
3, 1686360, Note_on_c, 1, 71, 100
3, 1686480, Note_on_c, 1, 71, 0
3, 1686480, Note_on_c, 1, 67, 100
3, 1686600, Note_on_c, 1, 67, 0
3, 1686600, Note_on_c, 1, 71, 100
3, 1686720, Note_on_c, 1, 71, 0
3, 1686720, Note_on_c, 1, 76, 100
3, 1686840, Note_on_c, 1, 76, 0
3, 1686840, Note_on_c, 1, 74, 100
3, 1686960, Note_on_c, 1, 74, 0
3, 1686960, Note_on_c, 1, 76, 100
3, 1687080, Note_on_c, 1, 76, 0
3, 1687080, Note_on_c, 1, 72, 100
3, 1687200, Note_on_c, 1, 72, 0
3, 1687200, Note_on_c, 1, 69, 100
3, 1687320, Note_on_c, 1, 69, 0
3, 1687320, Note_on_c, 1, 72, 100
3, 1687440, Note_on_c, 1, 72, 0
3, 1687440, Note_on_c, 1, 78, 100
3, 1687560, Note_on_c, 1, 78, 0
3, 1687560, Note_on_c, 1, 76, 100
3, 1687680, Note_on_c, 1, 76, 0
3, 1687680, Note_on_c, 1, 78, 100
3, 1687800, Note_on_c, 1, 78, 0
3, 1687800, Note_on_c, 1, 81, 100
3, 1687920, Note_on_c, 1, 81, 0
3, 1687920, Note_on_c, 1, 74, 100
3, 1688040, Note_on_c, 1, 74, 0
3, 1688040, Note_on_c, 1, 78, 100
3, 1688160, Note_on_c, 1, 78, 0
3, 1688160, Note_on_c, 1, 79, 100
3, 1688280, Note_on_c, 1, 79, 0
3, 1688280, Note_on_c, 1, 78, 100
3, 1688400, Note_on_c, 1, 78, 0
3, 1688400, Note_on_c, 1, 79, 100
3, 1688520, Note_on_c, 1, 79, 0
3, 1688520, Note_on_c, 1, 74, 100
3, 1688640, Note_on_c, 1, 74, 0
3, 1688640, Note_on_c, 1, 71, 100
3, 1688760, Note_on_c, 1, 71, 0
3, 1688760, Note_on_c, 1, 67, 100
3, 1688880, Note_on_c, 1, 67, 0
3, 1782120, Note_on_c, 1, 69, 100
3, 1782240, Note_on_c, 1, 69, 0
3, 1782240, Note_on_c, 1, 70, 100
3, 1782360, Note_on_c, 1, 70, 0
3, 1782360, Note_on_c, 1, 72, 100
3, 1782480, Note_on_c, 1, 72, 0
3, 1782480, Note_on_c, 1, 74, 100
3, 1782600, Note_on_c, 1, 74, 0
3, 1782600, Note_on_c, 1, 72, 100
3, 1782720, Note_on_c, 1, 72, 0
3, 1782720, Note_on_c, 1, 70, 100
3, 1782840, Note_on_c, 1, 70, 0
3, 1782840, Note_on_c, 1, 69, 100
3, 1782960, Note_on_c, 1, 69, 0
3, 1782960, Note_on_c, 1, 67, 100
3, 1783200, Note_on_c, 1, 67, 0
3, 1783200, Note_on_c, 1, 74, 100
3, 1783440, Note_on_c, 1, 74, 0
3, 1783440, Note_on_c, 1, 67, 100
3, 1783680, Note_on_c, 1, 67, 0
3, 1783680, Note_on_c, 1, 72, 100
3, 1784040, Note_on_c, 1, 72, 0
3, 1784040, Note_on_c, 1, 66, 100
3, 1784160, Note_on_c, 1, 66, 0
3, 1784160, Note_on_c, 1, 67, 100
3, 1784280, Note_on_c, 1, 67, 0
3, 1784280, Note_on_c, 1, 69, 100
3, 1784400, Note_on_c, 1, 69, 0
3, 1784400, Note_on_c, 1, 70, 100
3, 1784520, Note_on_c, 1, 70, 0
3, 1784520, Note_on_c, 1, 69, 100
3, 1784640, Note_on_c, 1, 69, 0
3, 1784640, Note_on_c, 1, 67, 100
3, 1784760, Note_on_c, 1, 67, 0
3, 1784760, Note_on_c, 1, 66, 100
3, 1784880, Note_on_c, 1, 66, 0
3, 1784880, Note_on_c, 1, 67, 100
3, 1785120, Note_on_c, 1, 67, 0
3, 1785600, Note_on_c, 1, 67, 100
3, 1785840, Note_on_c, 1, 67, 0
3, 1785840, Note_on_c, 1, 68, 100
3, 1786080, Note_on_c, 1, 68, 0
3, 1786080, Note_on_c, 1, 67, 100
3, 1786320, Note_on_c, 1, 67, 0
3, 1786320, Note_on_c, 1, 68, 100
3, 1786560, Note_on_c, 1, 68, 0
3, 1786560, Note_on_c, 1, 69, 100
3, 1786800, Note_on_c, 1, 69, 0
3, 1786800, Note_on_c, 1, 70, 100
3, 1786920, Note_on_c, 1, 70, 0
3, 1786920, Note_on_c, 1, 72, 100
3, 1787040, Note_on_c, 1, 72, 0
3, 1787040, Note_on_c, 1, 74, 100
3, 1787160, Note_on_c, 1, 74, 0
3, 1787160, Note_on_c, 1, 72, 100
3, 1787280, Note_on_c, 1, 72, 0
3, 1787280, Note_on_c, 1, 70, 100
3, 1787400, Note_on_c, 1, 70, 0
3, 1787400, Note_on_c, 1, 69, 100
3, 1787520, Note_on_c, 1, 69, 0
3, 1787520, Note_on_c, 1, 67, 100
3, 1787640, Note_on_c, 1, 67, 0
3, 1787640, Note_on_c, 1, 66, 100
3, 1787760, Note_on_c, 1, 66, 0
3, 1787760, Note_on_c, 1, 75, 100
3, 1788000, Note_on_c, 1, 75, 0
3, 1788480, Note_on_c, 1, 72, 100
3, 1788840, Note_on_c, 1, 72, 0
3, 1788840, Note_on_c, 1, 72, 100
3, 1788960, Note_on_c, 1, 72, 0
3, 1788960, Note_on_c, 1, 70, 100
3, 1789080, Note_on_c, 1, 70, 0
3, 1789080, Note_on_c, 1, 69, 100
3, 1789200, Note_on_c, 1, 69, 0
3, 1789200, Note_on_c, 1, 70, 100
3, 1789320, Note_on_c, 1, 70, 0
3, 1789320, Note_on_c, 1, 72, 100
3, 1789440, Note_on_c, 1, 72, 0
3, 1789440, Note_on_c, 1, 74, 100
3, 1789560, Note_on_c, 1, 74, 0
3, 1789560, Note_on_c, 1, 76, 100
3, 1789680, Note_on_c, 1, 76, 0
3, 1789680, Note_on_c, 1, 77, 100
3, 1789920, Note_on_c, 1, 77, 0
3, 1789920, Note_on_c, 1, 76, 100
3, 1790160, Note_on_c, 1, 76, 0
3, 1790160, Note_on_c, 1, 77, 100
3, 1790280, Note_on_c, 1, 77, 0
3, 1790280, Note_on_c, 1, 79, 100
3, 1790400, Note_on_c, 1, 79, 0
3, 1790400, Note_on_c, 1, 81, 100
3, 1790760, Note_on_c, 1, 81, 0
3, 1790760, Note_on_c, 1, 79, 100
3, 1790880, Note_on_c, 1, 79, 0
3, 1790880, Note_on_c, 1, 77, 100
3, 1791000, Note_on_c, 1, 77, 0
3, 1791000, Note_on_c, 1, 81, 100
3, 1791120, Note_on_c, 1, 81, 0
3, 1791120, Note_on_c, 1, 79, 100
3, 1791240, Note_on_c, 1, 79, 0
3, 1791240, Note_on_c, 1, 77, 100
3, 1791360, Note_on_c, 1, 77, 0
3, 1791360, Note_on_c, 1, 76, 100
3, 1791480, Note_on_c, 1, 76, 0
3, 1791480, Note_on_c, 1, 74, 100
3, 1791600, Note_on_c, 1, 74, 0
3, 1791600, Note_on_c, 1, 74, 100
3, 1791660, Note_on_c, 1, 74, 0
3, 1791660, Note_on_c, 1, 73, 100
3, 1791720, Note_on_c, 1, 73, 0
3, 1791720, Note_on_c, 1, 71, 100
3, 1791780, Note_on_c, 1, 71, 0
3, 1791780, Note_on_c, 1, 73, 100
3, 1791840, Note_on_c, 1, 73, 0
3, 1791840, Note_on_c, 1, 74, 100
3, 1791870, Note_on_c, 1, 74, 0
3, 1791870, Note_on_c, 1, 73, 100
3, 1791900, Note_on_c, 1, 73, 0
3, 1791900, Note_on_c, 1, 74, 100
3, 1791930, Note_on_c, 1, 74, 0
3, 1791930, Note_on_c, 1, 73, 100
3, 1791960, Note_on_c, 1, 73, 0
3, 1791960, Note_on_c, 1, 71, 100
3, 1792080, Note_on_c, 1, 71, 0
3, 1792080, Note_on_c, 1, 73, 100
3, 1792200, Note_on_c, 1, 73, 0
3, 1792200, Note_on_c, 1, 74, 100
3, 1792320, Note_on_c, 1, 74, 0
3, 1792320, Note_on_c, 1, 76, 100
3, 1792560, Note_on_c, 1, 76, 0
3, 1792560, Note_on_c, 1, 74, 100
3, 1792800, Note_on_c, 1, 74, 0
3, 1793280, Note_on_c, 1, 74, 100
3, 1793520, Note_on_c, 1, 74, 0
3, 1793520, Note_on_c, 1, 75, 100
3, 1793760, Note_on_c, 1, 75, 0
3, 1793760, Note_on_c, 1, 74, 100
3, 1794000, Note_on_c, 1, 74, 0
3, 1794000, Note_on_c, 1, 75, 100
3, 1794240, Note_on_c, 1, 75, 0
3, 1794240, Note_on_c, 1, 76, 100
3, 1794480, Note_on_c, 1, 76, 0
3, 1794480, Note_on_c, 1, 77, 100
3, 1794720, Note_on_c, 1, 77, 0
3, 1794720, Note_on_c, 1, 79, 100
3, 1794960, Note_on_c, 1, 79, 0
3, 1794960, Note_on_c, 1, 81, 100
3, 1795200, Note_on_c, 1, 81, 0
3, 1795200, Note_on_c, 1, 79, 100
3, 1795680, Note_on_c, 1, 79, 0
3, 1795680, Note_on_c, 1, 78, 100
3, 1795800, Note_on_c, 1, 78, 0
3, 1795800, Note_on_c, 1, 76, 100
3, 1795920, Note_on_c, 1, 76, 0
3, 1795920, Note_on_c, 1, 74, 100
3, 1796040, Note_on_c, 1, 74, 0
3, 1796040, Note_on_c, 1, 73, 100
3, 1796160, Note_on_c, 1, 73, 0
3, 1796160, Note_on_c, 1, 74, 100
3, 1796400, Note_on_c, 1, 74, 0
3, 1797480, Note_on_c, 1, 69, 100
3, 1797600, Note_on_c, 1, 69, 0
3, 1797600, Note_on_c, 1, 70, 100
3, 1797720, Note_on_c, 1, 70, 0
3, 1797720, Note_on_c, 1, 72, 100
3, 1797840, Note_on_c, 1, 72, 0
3, 1797840, Note_on_c, 1, 74, 100
3, 1797960, Note_on_c, 1, 74, 0
3, 1797960, Note_on_c, 1, 72, 100
3, 1798080, Note_on_c, 1, 72, 0
3, 1798080, Note_on_c, 1, 70, 100
3, 1798200, Note_on_c, 1, 70, 0
3, 1798200, Note_on_c, 1, 69, 100
3, 1798320, Note_on_c, 1, 69, 0
3, 1798320, Note_on_c, 1, 67, 100
3, 1798560, Note_on_c, 1, 67, 0
3, 1798560, Note_on_c, 1, 74, 100
3, 1798800, Note_on_c, 1, 74, 0
3, 1798800, Note_on_c, 1, 67, 100
3, 1799040, Note_on_c, 1, 67, 0
3, 1799040, Note_on_c, 1, 72, 100
3, 1799400, Note_on_c, 1, 72, 0
3, 1799400, Note_on_c, 1, 66, 100
3, 1799520, Note_on_c, 1, 66, 0
3, 1799520, Note_on_c, 1, 67, 100
3, 1799640, Note_on_c, 1, 67, 0
3, 1799640, Note_on_c, 1, 69, 100
3, 1799760, Note_on_c, 1, 69, 0
3, 1799760, Note_on_c, 1, 70, 100
3, 1799880, Note_on_c, 1, 70, 0
3, 1799880, Note_on_c, 1, 69, 100
3, 1800000, Note_on_c, 1, 69, 0
3, 1800000, Note_on_c, 1, 67, 100
3, 1800120, Note_on_c, 1, 67, 0
3, 1800120, Note_on_c, 1, 66, 100
3, 1800240, Note_on_c, 1, 66, 0
3, 1800240, Note_on_c, 1, 67, 100
3, 1800480, Note_on_c, 1, 67, 0
3, 1800960, Note_on_c, 1, 67, 100
3, 1801200, Note_on_c, 1, 67, 0
3, 1801200, Note_on_c, 1, 68, 100
3, 1801440, Note_on_c, 1, 68, 0
3, 1801440, Note_on_c, 1, 67, 100
3, 1801680, Note_on_c, 1, 67, 0
3, 1801680, Note_on_c, 1, 68, 100
3, 1801920, Note_on_c, 1, 68, 0
3, 1801920, Note_on_c, 1, 69, 100
3, 1802160, Note_on_c, 1, 69, 0
3, 1802160, Note_on_c, 1, 70, 100
3, 1802280, Note_on_c, 1, 70, 0
3, 1802280, Note_on_c, 1, 72, 100
3, 1802400, Note_on_c, 1, 72, 0
3, 1802400, Note_on_c, 1, 74, 100
3, 1802520, Note_on_c, 1, 74, 0
3, 1802520, Note_on_c, 1, 72, 100
3, 1802640, Note_on_c, 1, 72, 0
3, 1802640, Note_on_c, 1, 70, 100
3, 1802760, Note_on_c, 1, 70, 0
3, 1802760, Note_on_c, 1, 69, 100
3, 1802880, Note_on_c, 1, 69, 0
3, 1802880, Note_on_c, 1, 67, 100
3, 1803000, Note_on_c, 1, 67, 0
3, 1803000, Note_on_c, 1, 66, 100
3, 1803120, Note_on_c, 1, 66, 0
3, 1803120, Note_on_c, 1, 75, 100
3, 1803360, Note_on_c, 1, 75, 0
3, 1803840, Note_on_c, 1, 72, 100
3, 1804200, Note_on_c, 1, 72, 0
3, 1804200, Note_on_c, 1, 72, 100
3, 1804320, Note_on_c, 1, 72, 0
3, 1804320, Note_on_c, 1, 70, 100
3, 1804440, Note_on_c, 1, 70, 0
3, 1804440, Note_on_c, 1, 69, 100
3, 1804560, Note_on_c, 1, 69, 0
3, 1804560, Note_on_c, 1, 70, 100
3, 1804680, Note_on_c, 1, 70, 0
3, 1804680, Note_on_c, 1, 72, 100
3, 1804800, Note_on_c, 1, 72, 0
3, 1804800, Note_on_c, 1, 74, 100
3, 1804920, Note_on_c, 1, 74, 0
3, 1804920, Note_on_c, 1, 76, 100
3, 1805040, Note_on_c, 1, 76, 0
3, 1805040, Note_on_c, 1, 77, 100
3, 1805280, Note_on_c, 1, 77, 0
3, 1805280, Note_on_c, 1, 76, 100
3, 1805520, Note_on_c, 1, 76, 0
3, 1805520, Note_on_c, 1, 77, 100
3, 1805640, Note_on_c, 1, 77, 0
3, 1805640, Note_on_c, 1, 79, 100
3, 1805760, Note_on_c, 1, 79, 0
3, 1805760, Note_on_c, 1, 81, 100
3, 1806120, Note_on_c, 1, 81, 0
3, 1806120, Note_on_c, 1, 79, 100
3, 1806240, Note_on_c, 1, 79, 0
3, 1806240, Note_on_c, 1, 77, 100
3, 1806360, Note_on_c, 1, 77, 0
3, 1806360, Note_on_c, 1, 81, 100
3, 1806480, Note_on_c, 1, 81, 0
3, 1806480, Note_on_c, 1, 79, 100
3, 1806600, Note_on_c, 1, 79, 0
3, 1806600, Note_on_c, 1, 77, 100
3, 1806720, Note_on_c, 1, 77, 0
3, 1806720, Note_on_c, 1, 76, 100
3, 1806840, Note_on_c, 1, 76, 0
3, 1806840, Note_on_c, 1, 74, 100
3, 1806960, Note_on_c, 1, 74, 0
3, 1806960, Note_on_c, 1, 74, 100
3, 1807020, Note_on_c, 1, 74, 0
3, 1807020, Note_on_c, 1, 73, 100
3, 1807080, Note_on_c, 1, 73, 0
3, 1807080, Note_on_c, 1, 71, 100
3, 1807140, Note_on_c, 1, 71, 0
3, 1807140, Note_on_c, 1, 73, 100
3, 1807200, Note_on_c, 1, 73, 0
3, 1807200, Note_on_c, 1, 74, 100
3, 1807230, Note_on_c, 1, 74, 0
3, 1807230, Note_on_c, 1, 73, 100
3, 1807260, Note_on_c, 1, 73, 0
3, 1807260, Note_on_c, 1, 74, 100
3, 1807290, Note_on_c, 1, 74, 0
3, 1807290, Note_on_c, 1, 73, 100
3, 1807320, Note_on_c, 1, 73, 0
3, 1807320, Note_on_c, 1, 71, 100
3, 1807440, Note_on_c, 1, 71, 0
3, 1807440, Note_on_c, 1, 73, 100
3, 1807560, Note_on_c, 1, 73, 0
3, 1807560, Note_on_c, 1, 74, 100
3, 1807680, Note_on_c, 1, 74, 0
3, 1807680, Note_on_c, 1, 76, 100
3, 1807920, Note_on_c, 1, 76, 0
3, 1807920, Note_on_c, 1, 74, 100
3, 1808160, Note_on_c, 1, 74, 0
3, 1808640, Note_on_c, 1, 74, 100
3, 1808880, Note_on_c, 1, 74, 0
3, 1808880, Note_on_c, 1, 75, 100
3, 1809120, Note_on_c, 1, 75, 0
3, 1809120, Note_on_c, 1, 74, 100
3, 1809360, Note_on_c, 1, 74, 0
3, 1809360, Note_on_c, 1, 75, 100
3, 1809600, Note_on_c, 1, 75, 0
3, 1809600, Note_on_c, 1, 76, 100
3, 1809840, Note_on_c, 1, 76, 0
3, 1809840, Note_on_c, 1, 77, 100
3, 1810080, Note_on_c, 1, 77, 0
3, 1810080, Note_on_c, 1, 79, 100
3, 1810320, Note_on_c, 1, 79, 0
3, 1810320, Note_on_c, 1, 81, 100
3, 1810560, Note_on_c, 1, 81, 0
3, 1810560, Note_on_c, 1, 79, 100
3, 1811040, Note_on_c, 1, 79, 0
3, 1811040, Note_on_c, 1, 78, 100
3, 1811160, Note_on_c, 1, 78, 0
3, 1811160, Note_on_c, 1, 76, 100
3, 1811280, Note_on_c, 1, 76, 0
3, 1811280, Note_on_c, 1, 74, 100
3, 1811400, Note_on_c, 1, 74, 0
3, 1811400, Note_on_c, 1, 73, 100
3, 1811520, Note_on_c, 1, 73, 0
3, 1811520, Note_on_c, 1, 74, 100
3, 1811760, Note_on_c, 1, 74, 0
3, 1812840, Note_on_c, 1, 80, 100
3, 1812960, Note_on_c, 1, 80, 0
3, 1812960, Note_on_c, 1, 79, 100
3, 1813080, Note_on_c, 1, 79, 0
3, 1813080, Note_on_c, 1, 77, 100
3, 1813200, Note_on_c, 1, 77, 0
3, 1813200, Note_on_c, 1, 76, 100
3, 1813320, Note_on_c, 1, 76, 0
3, 1813320, Note_on_c, 1, 77, 100
3, 1813440, Note_on_c, 1, 77, 0
3, 1813440, Note_on_c, 1, 79, 100
3, 1813560, Note_on_c, 1, 79, 0
3, 1813560, Note_on_c, 1, 76, 100
3, 1813680, Note_on_c, 1, 76, 0
3, 1813680, Note_on_c, 1, 72, 100
3, 1813920, Note_on_c, 1, 72, 0
3, 1813920, Note_on_c, 1, 74, 100
3, 1814040, Note_on_c, 1, 74, 0
3, 1814040, Note_on_c, 1, 75, 100
3, 1814160, Note_on_c, 1, 75, 0
3, 1814160, Note_on_c, 1, 77, 100
3, 1814400, Note_on_c, 1, 77, 0
3, 1814400, Note_on_c, 1, 70, 100
3, 1814640, Note_on_c, 1, 70, 0
3, 1814760, Note_on_c, 1, 77, 100
3, 1814880, Note_on_c, 1, 77, 0
3, 1814880, Note_on_c, 1, 75, 100
3, 1815000, Note_on_c, 1, 75, 0
3, 1815000, Note_on_c, 1, 74, 100
3, 1815120, Note_on_c, 1, 74, 0
3, 1815120, Note_on_c, 1, 72, 100
3, 1815240, Note_on_c, 1, 72, 0
3, 1815240, Note_on_c, 1, 75, 100
3, 1815360, Note_on_c, 1, 75, 0
3, 1815360, Note_on_c, 1, 74, 100
3, 1815480, Note_on_c, 1, 74, 0
3, 1815480, Note_on_c, 1, 77, 100
3, 1815600, Note_on_c, 1, 77, 0
3, 1815600, Note_on_c, 1, 75, 100
3, 1815840, Note_on_c, 1, 75, 0
3, 1815840, Note_on_c, 1, 77, 100
3, 1816080, Note_on_c, 1, 77, 0
3, 1816080, Note_on_c, 1, 79, 100
3, 1816680, Note_on_c, 1, 79, 0
3, 1816680, Note_on_c, 1, 77, 100
3, 1816800, Note_on_c, 1, 77, 0
3, 1816800, Note_on_c, 1, 79, 100
3, 1816920, Note_on_c, 1, 79, 0
3, 1816920, Note_on_c, 1, 80, 100
3, 1817040, Note_on_c, 1, 80, 0
3, 1817040, Note_on_c, 1, 74, 100
3, 1817160, Note_on_c, 1, 74, 0
3, 1817160, Note_on_c, 1, 72, 100
3, 1817280, Note_on_c, 1, 72, 0
3, 1817280, Note_on_c, 1, 74, 100
3, 1817400, Note_on_c, 1, 74, 0
3, 1817400, Note_on_c, 1, 77, 100
3, 1817520, Note_on_c, 1, 77, 0
3, 1817520, Note_on_c, 1, 70, 100
3, 1817640, Note_on_c, 1, 70, 0
3, 1817640, Note_on_c, 1, 72, 100
3, 1817760, Note_on_c, 1, 72, 0
3, 1817760, Note_on_c, 1, 74, 100
3, 1817880, Note_on_c, 1, 74, 0
3, 1817880, Note_on_c, 1, 70, 100
3, 1818000, Note_on_c, 1, 70, 0
3, 1818000, Note_on_c, 1, 75, 100
3, 1818240, Note_on_c, 1, 75, 0
3, 1818240, Note_on_c, 1, 68, 100
3, 1818720, Note_on_c, 1, 68, 0
3, 1818720, Note_on_c, 1, 67, 100
3, 1818840, Note_on_c, 1, 67, 0
3, 1818840, Note_on_c, 1, 65, 100
3, 1818960, Note_on_c, 1, 65, 0
3, 1818960, Note_on_c, 1, 67, 100
3, 1819200, Note_on_c, 1, 67, 0
3, 1819200, Note_on_c, 1, 75, 100
3, 1819680, Note_on_c, 1, 75, 0
3, 1819680, Note_on_c, 1, 74, 100
3, 1819800, Note_on_c, 1, 74, 0
3, 1819800, Note_on_c, 1, 72, 100
3, 1819920, Note_on_c, 1, 72, 0
3, 1819920, Note_on_c, 1, 74, 100
3, 1820160, Note_on_c, 1, 74, 0
3, 1820520, Note_on_c, 1, 64, 100
3, 1820640, Note_on_c, 1, 64, 0
3, 1820640, Note_on_c, 1, 65, 100
3, 1820760, Note_on_c, 1, 65, 0
3, 1820760, Note_on_c, 1, 67, 100
3, 1820880, Note_on_c, 1, 67, 0
3, 1820880, Note_on_c, 1, 65, 100
3, 1821000, Note_on_c, 1, 65, 0
3, 1821000, Note_on_c, 1, 64, 100
3, 1821120, Note_on_c, 1, 64, 0
3, 1821120, Note_on_c, 1, 62, 100
3, 1821240, Note_on_c, 1, 62, 0
3, 1821240, Note_on_c, 1, 60, 100
3, 1821360, Note_on_c, 1, 60, 0
3, 1821360, Note_on_c, 1, 72, 100
3, 1821480, Note_on_c, 1, 72, 0
3, 1821480, Note_on_c, 1, 70, 100
3, 1821600, Note_on_c, 1, 70, 0
3, 1821600, Note_on_c, 1, 72, 100
3, 1821840, Note_on_c, 1, 72, 0
3, 1821840, Note_on_c, 1, 66, 100
3, 1822080, Note_on_c, 1, 66, 0
3, 1822560, Note_on_c, 1, 74, 100
3, 1822680, Note_on_c, 1, 74, 0
3, 1822680, Note_on_c, 1, 72, 100
3, 1822800, Note_on_c, 1, 72, 0
3, 1822800, Note_on_c, 1, 70, 100
3, 1822920, Note_on_c, 1, 70, 0
3, 1822920, Note_on_c, 1, 69, 100
3, 1823040, Note_on_c, 1, 69, 0
3, 1823040, Note_on_c, 1, 67, 100
3, 1823160, Note_on_c, 1, 67, 0
3, 1823160, Note_on_c, 1, 65, 100
3, 1823280, Note_on_c, 1, 65, 0
3, 1823280, Note_on_c, 1, 63, 100
3, 1823520, Note_on_c, 1, 63, 0
3, 1824000, Note_on_c, 1, 72, 100
3, 1824480, Note_on_c, 1, 72, 0
3, 1824480, Note_on_c, 1, 70, 100
3, 1824720, Note_on_c, 1, 70, 0
3, 1824720, Note_on_c, 1, 69, 100
3, 1824960, Note_on_c, 1, 69, 0
3, 1824960, Note_on_c, 1, 70, 100
3, 1825080, Note_on_c, 1, 70, 0
3, 1825080, Note_on_c, 1, 72, 100
3, 1825200, Note_on_c, 1, 72, 0
3, 1825200, Note_on_c, 1, 74, 100
3, 1825440, Note_on_c, 1, 74, 0
3, 1825440, Note_on_c, 1, 65, 100
3, 1825680, Note_on_c, 1, 65, 0
3, 1825680, Note_on_c, 1, 63, 100
3, 1825920, Note_on_c, 1, 63, 0
3, 1825920, Note_on_c, 1, 72, 100
3, 1826280, Note_on_c, 1, 72, 0
3, 1826280, Note_on_c, 1, 70, 100
3, 1826340, Note_on_c, 1, 70, 0
3, 1826340, Note_on_c, 1, 69, 100
3, 1826400, Note_on_c, 1, 69, 0
3, 1826400, Note_on_c, 1, 67, 100
3, 1826460, Note_on_c, 1, 67, 0
3, 1826460, Note_on_c, 1, 69, 100
3, 1826520, Note_on_c, 1, 69, 0
3, 1826520, Note_on_c, 1, 66, 100
3, 1826640, Note_on_c, 1, 66, 0
3, 1826640, Note_on_c, 1, 67, 100
3, 1827120, Note_on_c, 1, 67, 0
3, 1828200, Note_on_c, 1, 80, 100
3, 1828320, Note_on_c, 1, 80, 0
3, 1828320, Note_on_c, 1, 79, 100
3, 1828440, Note_on_c, 1, 79, 0
3, 1828440, Note_on_c, 1, 77, 100
3, 1828560, Note_on_c, 1, 77, 0
3, 1828560, Note_on_c, 1, 76, 100
3, 1828680, Note_on_c, 1, 76, 0
3, 1828680, Note_on_c, 1, 77, 100
3, 1828800, Note_on_c, 1, 77, 0
3, 1828800, Note_on_c, 1, 79, 100
3, 1828920, Note_on_c, 1, 79, 0
3, 1828920, Note_on_c, 1, 76, 100
3, 1829040, Note_on_c, 1, 76, 0
3, 1829040, Note_on_c, 1, 72, 100
3, 1829280, Note_on_c, 1, 72, 0
3, 1829280, Note_on_c, 1, 74, 100
3, 1829400, Note_on_c, 1, 74, 0
3, 1829400, Note_on_c, 1, 75, 100
3, 1829520, Note_on_c, 1, 75, 0
3, 1829520, Note_on_c, 1, 77, 100
3, 1829760, Note_on_c, 1, 77, 0
3, 1829760, Note_on_c, 1, 70, 100
3, 1830000, Note_on_c, 1, 70, 0
3, 1830120, Note_on_c, 1, 77, 100
3, 1830240, Note_on_c, 1, 77, 0
3, 1830240, Note_on_c, 1, 75, 100
3, 1830360, Note_on_c, 1, 75, 0
3, 1830360, Note_on_c, 1, 74, 100
3, 1830480, Note_on_c, 1, 74, 0
3, 1830480, Note_on_c, 1, 72, 100
3, 1830600, Note_on_c, 1, 72, 0
3, 1830600, Note_on_c, 1, 75, 100
3, 1830720, Note_on_c, 1, 75, 0
3, 1830720, Note_on_c, 1, 74, 100
3, 1830840, Note_on_c, 1, 74, 0
3, 1830840, Note_on_c, 1, 77, 100
3, 1830960, Note_on_c, 1, 77, 0
3, 1830960, Note_on_c, 1, 75, 100
3, 1831200, Note_on_c, 1, 75, 0
3, 1831200, Note_on_c, 1, 77, 100
3, 1831440, Note_on_c, 1, 77, 0
3, 1831440, Note_on_c, 1, 79, 100
3, 1832040, Note_on_c, 1, 79, 0
3, 1832040, Note_on_c, 1, 77, 100
3, 1832160, Note_on_c, 1, 77, 0
3, 1832160, Note_on_c, 1, 79, 100
3, 1832280, Note_on_c, 1, 79, 0
3, 1832280, Note_on_c, 1, 80, 100
3, 1832400, Note_on_c, 1, 80, 0
3, 1832400, Note_on_c, 1, 74, 100
3, 1832520, Note_on_c, 1, 74, 0
3, 1832520, Note_on_c, 1, 72, 100
3, 1832640, Note_on_c, 1, 72, 0
3, 1832640, Note_on_c, 1, 74, 100
3, 1832760, Note_on_c, 1, 74, 0
3, 1832760, Note_on_c, 1, 77, 100
3, 1832880, Note_on_c, 1, 77, 0
3, 1832880, Note_on_c, 1, 70, 100
3, 1833000, Note_on_c, 1, 70, 0
3, 1833000, Note_on_c, 1, 72, 100
3, 1833120, Note_on_c, 1, 72, 0
3, 1833120, Note_on_c, 1, 74, 100
3, 1833240, Note_on_c, 1, 74, 0
3, 1833240, Note_on_c, 1, 70, 100
3, 1833360, Note_on_c, 1, 70, 0
3, 1833360, Note_on_c, 1, 75, 100
3, 1833600, Note_on_c, 1, 75, 0
3, 1833600, Note_on_c, 1, 68, 100
3, 1834080, Note_on_c, 1, 68, 0
3, 1834080, Note_on_c, 1, 67, 100
3, 1834200, Note_on_c, 1, 67, 0
3, 1834200, Note_on_c, 1, 65, 100
3, 1834320, Note_on_c, 1, 65, 0
3, 1834320, Note_on_c, 1, 67, 100
3, 1834560, Note_on_c, 1, 67, 0
3, 1834560, Note_on_c, 1, 75, 100
3, 1835040, Note_on_c, 1, 75, 0
3, 1835040, Note_on_c, 1, 74, 100
3, 1835160, Note_on_c, 1, 74, 0
3, 1835160, Note_on_c, 1, 72, 100
3, 1835280, Note_on_c, 1, 72, 0
3, 1835280, Note_on_c, 1, 74, 100
3, 1835520, Note_on_c, 1, 74, 0
3, 1835880, Note_on_c, 1, 64, 100
3, 1836000, Note_on_c, 1, 64, 0
3, 1836000, Note_on_c, 1, 65, 100
3, 1836120, Note_on_c, 1, 65, 0
3, 1836120, Note_on_c, 1, 67, 100
3, 1836240, Note_on_c, 1, 67, 0
3, 1836240, Note_on_c, 1, 65, 100
3, 1836360, Note_on_c, 1, 65, 0
3, 1836360, Note_on_c, 1, 64, 100
3, 1836480, Note_on_c, 1, 64, 0
3, 1836480, Note_on_c, 1, 62, 100
3, 1836600, Note_on_c, 1, 62, 0
3, 1836600, Note_on_c, 1, 60, 100
3, 1836720, Note_on_c, 1, 60, 0
3, 1836720, Note_on_c, 1, 72, 100
3, 1836840, Note_on_c, 1, 72, 0
3, 1836840, Note_on_c, 1, 70, 100
3, 1836960, Note_on_c, 1, 70, 0
3, 1836960, Note_on_c, 1, 72, 100
3, 1837200, Note_on_c, 1, 72, 0
3, 1837200, Note_on_c, 1, 66, 100
3, 1837440, Note_on_c, 1, 66, 0
3, 1837920, Note_on_c, 1, 74, 100
3, 1838040, Note_on_c, 1, 74, 0
3, 1838040, Note_on_c, 1, 72, 100
3, 1838160, Note_on_c, 1, 72, 0
3, 1838160, Note_on_c, 1, 70, 100
3, 1838280, Note_on_c, 1, 70, 0
3, 1838280, Note_on_c, 1, 69, 100
3, 1838400, Note_on_c, 1, 69, 0
3, 1838400, Note_on_c, 1, 67, 100
3, 1838520, Note_on_c, 1, 67, 0
3, 1838520, Note_on_c, 1, 65, 100
3, 1838640, Note_on_c, 1, 65, 0
3, 1838640, Note_on_c, 1, 63, 100
3, 1838880, Note_on_c, 1, 63, 0
3, 1839360, Note_on_c, 1, 72, 100
3, 1839840, Note_on_c, 1, 72, 0
3, 1839840, Note_on_c, 1, 70, 100
3, 1840080, Note_on_c, 1, 70, 0
3, 1840080, Note_on_c, 1, 69, 100
3, 1840320, Note_on_c, 1, 69, 0
3, 1840320, Note_on_c, 1, 70, 100
3, 1840440, Note_on_c, 1, 70, 0
3, 1840440, Note_on_c, 1, 72, 100
3, 1840560, Note_on_c, 1, 72, 0
3, 1840560, Note_on_c, 1, 74, 100
3, 1840800, Note_on_c, 1, 74, 0
3, 1840800, Note_on_c, 1, 65, 100
3, 1841040, Note_on_c, 1, 65, 0
3, 1841040, Note_on_c, 1, 63, 100
3, 1841280, Note_on_c, 1, 63, 0
3, 1841280, Note_on_c, 1, 72, 100
3, 1841640, Note_on_c, 1, 72, 0
3, 1841640, Note_on_c, 1, 70, 100
3, 1841700, Note_on_c, 1, 70, 0
3, 1841700, Note_on_c, 1, 69, 100
3, 1841760, Note_on_c, 1, 69, 0
3, 1841760, Note_on_c, 1, 67, 100
3, 1841820, Note_on_c, 1, 67, 0
3, 1841820, Note_on_c, 1, 69, 100
3, 1841880, Note_on_c, 1, 69, 0
3, 1841880, Note_on_c, 1, 66, 100
3, 1842000, Note_on_c, 1, 66, 0
3, 1842000, Note_on_c, 1, 67, 100
3, 1842480, Note_on_c, 1, 67, 0
3, 2057520, Note_on_c, 1, 67, 100
3, 2058000, Note_on_c, 1, 67, 0
3, 2058000, Note_on_c, 1, 66, 100
3, 2058240, Note_on_c, 1, 66, 0
3, 2058240, Note_on_c, 1, 67, 100
3, 2058720, Note_on_c, 1, 67, 0
3, 2058720, Note_on_c, 1, 69, 100
3, 2058960, Note_on_c, 1, 69, 0
3, 2058960, Note_on_c, 1, 71, 100
3, 2059200, Note_on_c, 1, 71, 0
3, 2059200, Note_on_c, 1, 74, 100
3, 2059440, Note_on_c, 1, 74, 0
3, 2059440, Note_on_c, 1, 73, 100
3, 2059680, Note_on_c, 1, 73, 0
3, 2059680, Note_on_c, 1, 74, 100
3, 2060160, Note_on_c, 1, 74, 0
3, 2060160, Note_on_c, 1, 69, 100
3, 2060400, Note_on_c, 1, 69, 0
3, 2060400, Note_on_c, 1, 74, 100
3, 2060880, Note_on_c, 1, 74, 0
3, 2060880, Note_on_c, 1, 76, 100
3, 2061120, Note_on_c, 1, 76, 0
3, 2061120, Note_on_c, 1, 76, 100
3, 2061150, Note_on_c, 1, 76, 0
3, 2061150, Note_on_c, 1, 78, 100
3, 2061240, Note_on_c, 1, 78, 0
3, 2061240, Note_on_c, 1, 79, 100
3, 2061360, Note_on_c, 1, 79, 0
3, 2061360, Note_on_c, 1, 78, 100
3, 2061480, Note_on_c, 1, 78, 0
3, 2061480, Note_on_c, 1, 76, 100
3, 2061600, Note_on_c, 1, 76, 0
3, 2061600, Note_on_c, 1, 74, 100
3, 2061840, Note_on_c, 1, 74, 0
3, 2061840, Note_on_c, 1, 79, 100
3, 2062080, Note_on_c, 1, 79, 0
3, 2062080, Note_on_c, 1, 83, 100
3, 2062320, Note_on_c, 1, 83, 0
3, 2062320, Note_on_c, 1, 81, 100
3, 2062560, Note_on_c, 1, 81, 0
3, 2062560, Note_on_c, 1, 83, 100
3, 2062800, Note_on_c, 1, 83, 0
3, 2062800, Note_on_c, 1, 79, 100
3, 2063040, Note_on_c, 1, 79, 0
3, 2063040, Note_on_c, 1, 78, 100
3, 2063280, Note_on_c, 1, 78, 0
3, 2063280, Note_on_c, 1, 79, 100
3, 2064240, Note_on_c, 1, 79, 0
3, 2064240, Note_on_c, 1, 78, 100
3, 2064480, Note_on_c, 1, 78, 0
3, 2064480, Note_on_c, 1, 76, 100
3, 2064720, Note_on_c, 1, 76, 0
3, 2064720, Note_on_c, 1, 78, 100
3, 2064960, Note_on_c, 1, 78, 0
3, 2064960, Note_on_c, 1, 79, 100
3, 2065200, Note_on_c, 1, 79, 0
3, 2065200, Note_on_c, 1, 81, 100
3, 2065440, Note_on_c, 1, 81, 0
3, 2065440, Note_on_c, 1, 74, 100
3, 2066400, Note_on_c, 1, 74, 0
3, 2066400, Note_on_c, 1, 79, 100
3, 2066640, Note_on_c, 1, 79, 0
3, 2066640, Note_on_c, 1, 78, 100
3, 2066880, Note_on_c, 1, 78, 0
3, 2066880, Note_on_c, 1, 79, 100
3, 2067120, Note_on_c, 1, 79, 0
3, 2067120, Note_on_c, 1, 83, 100
3, 2067360, Note_on_c, 1, 83, 0
3, 2067360, Note_on_c, 1, 81, 100
3, 2067600, Note_on_c, 1, 81, 0
3, 2067600, Note_on_c, 1, 83, 100
3, 2067840, Note_on_c, 1, 83, 0
3, 2067840, Note_on_c, 1, 86, 100
3, 2067960, Note_on_c, 1, 86, 0
3, 2067960, Note_on_c, 1, 84, 100
3, 2068080, Note_on_c, 1, 84, 0
3, 2068080, Note_on_c, 1, 83, 100
3, 2068200, Note_on_c, 1, 83, 0
3, 2068200, Note_on_c, 1, 81, 100
3, 2068320, Note_on_c, 1, 81, 0
3, 2068320, Note_on_c, 1, 83, 100
3, 2068560, Note_on_c, 1, 83, 0
3, 2068560, Note_on_c, 1, 84, 100
3, 2068680, Note_on_c, 1, 84, 0
3, 2068680, Note_on_c, 1, 83, 100
3, 2068800, Note_on_c, 1, 83, 0
3, 2068800, Note_on_c, 1, 81, 100
3, 2068920, Note_on_c, 1, 81, 0
3, 2068920, Note_on_c, 1, 79, 100
3, 2069040, Note_on_c, 1, 79, 0
3, 2069040, Note_on_c, 1, 81, 100
3, 2069280, Note_on_c, 1, 81, 0
3, 2069280, Note_on_c, 1, 83, 100
3, 2069400, Note_on_c, 1, 83, 0
3, 2069400, Note_on_c, 1, 81, 100
3, 2069520, Note_on_c, 1, 81, 0
3, 2069520, Note_on_c, 1, 79, 100
3, 2069640, Note_on_c, 1, 79, 0
3, 2069640, Note_on_c, 1, 78, 100
3, 2069760, Note_on_c, 1, 78, 0
3, 2069760, Note_on_c, 1, 79, 100
3, 2070000, Note_on_c, 1, 79, 0
3, 2070000, Note_on_c, 1, 81, 100
3, 2070120, Note_on_c, 1, 81, 0
3, 2070120, Note_on_c, 1, 79, 100
3, 2070240, Note_on_c, 1, 79, 0
3, 2070240, Note_on_c, 1, 78, 100
3, 2070360, Note_on_c, 1, 78, 0
3, 2070360, Note_on_c, 1, 76, 100
3, 2070480, Note_on_c, 1, 76, 0
3, 2070480, Note_on_c, 1, 74, 100
3, 2070720, Note_on_c, 1, 74, 0
3, 2071200, Note_on_c, 1, 79, 100
3, 2071440, Note_on_c, 1, 79, 0
3, 2071920, Note_on_c, 1, 78, 100
3, 2072160, Note_on_c, 1, 78, 0
3, 2072640, Note_on_c, 1, 79, 100
3, 2072880, Note_on_c, 1, 79, 0
3, 2073360, Note_on_c, 1, 72, 100
3, 2073600, Note_on_c, 1, 72, 0
3, 2074080, Note_on_c, 1, 71, 100
3, 2074320, Note_on_c, 1, 71, 0
3, 2079360, Note_on_c, 1, 83, 100
3, 2079600, Note_on_c, 1, 83, 0
3, 2079600, Note_on_c, 1, 81, 100
3, 2079840, Note_on_c, 1, 81, 0
3, 2079840, Note_on_c, 1, 79, 100
3, 2080080, Note_on_c, 1, 79, 0
3, 2080080, Note_on_c, 1, 81, 100
3, 2080320, Note_on_c, 1, 81, 0
3, 2080320, Note_on_c, 1, 78, 100
3, 2080560, Note_on_c, 1, 78, 0
3, 2080560, Note_on_c, 1, 76, 100
3, 2080680, Note_on_c, 1, 76, 0
3, 2080680, Note_on_c, 1, 74, 100
3, 2080800, Note_on_c, 1, 74, 0
3, 2080800, Note_on_c, 1, 73, 100
3, 2081040, Note_on_c, 1, 73, 0
3, 2081040, Note_on_c, 1, 74, 100
3, 2081280, Note_on_c, 1, 74, 0
3, 2081280, Note_on_c, 1, 74, 100
3, 2081400, Note_on_c, 1, 74, 0
3, 2081400, Note_on_c, 1, 73, 100
3, 2082240, Note_on_c, 1, 73, 0
3, 2082240, Note_on_c, 1, 74, 100
3, 2082480, Note_on_c, 1, 74, 0
3, 2082480, Note_on_c, 1, 76, 100
3, 2082720, Note_on_c, 1, 76, 0
3, 2082720, Note_on_c, 1, 69, 100
3, 2082960, Note_on_c, 1, 69, 0
3, 2082960, Note_on_c, 1, 71, 100
3, 2083200, Note_on_c, 1, 71, 0
3, 2083200, Note_on_c, 1, 73, 100
3, 2083440, Note_on_c, 1, 73, 0
3, 2083440, Note_on_c, 1, 74, 100
3, 2083920, Note_on_c, 1, 74, 0
3, 2083920, Note_on_c, 1, 78, 100
3, 2084160, Note_on_c, 1, 78, 0
3, 2084160, Note_on_c, 1, 79, 100
3, 2084640, Note_on_c, 1, 79, 0
3, 2084640, Note_on_c, 1, 81, 100
3, 2084880, Note_on_c, 1, 81, 0
3, 2084880, Note_on_c, 1, 71, 100
3, 2085840, Note_on_c, 1, 71, 0
3, 2085840, Note_on_c, 1, 69, 100
3, 2086080, Note_on_c, 1, 69, 0
3, 2086080, Note_on_c, 1, 67, 100
3, 2086320, Note_on_c, 1, 67, 0
3, 2086320, Note_on_c, 1, 69, 100
3, 2088000, Note_on_c, 1, 69, 0
3, 2088000, Note_on_c, 1, 74, 100
3, 2088240, Note_on_c, 1, 74, 0
3, 2088240, Note_on_c, 1, 73, 100
3, 2088480, Note_on_c, 1, 73, 0
3, 2088480, Note_on_c, 1, 74, 100
3, 2088600, Note_on_c, 1, 74, 0
3, 2088600, Note_on_c, 1, 76, 100
3, 2088720, Note_on_c, 1, 76, 0
3, 2088720, Note_on_c, 1, 78, 100
3, 2088960, Note_on_c, 1, 78, 0
3, 2088960, Note_on_c, 1, 76, 100
3, 2089200, Note_on_c, 1, 76, 0
3, 2089200, Note_on_c, 1, 78, 100
3, 2089440, Note_on_c, 1, 78, 0
3, 2089440, Note_on_c, 1, 81, 100
3, 2089560, Note_on_c, 1, 81, 0
3, 2089560, Note_on_c, 1, 79, 100
3, 2089680, Note_on_c, 1, 79, 0
3, 2089680, Note_on_c, 1, 78, 100
3, 2089800, Note_on_c, 1, 78, 0
3, 2089800, Note_on_c, 1, 76, 100
3, 2089920, Note_on_c, 1, 76, 0
3, 2089920, Note_on_c, 1, 78, 100
3, 2090160, Note_on_c, 1, 78, 0
3, 2090160, Note_on_c, 1, 79, 100
3, 2090280, Note_on_c, 1, 79, 0
3, 2090280, Note_on_c, 1, 78, 100
3, 2090400, Note_on_c, 1, 78, 0
3, 2090400, Note_on_c, 1, 76, 100
3, 2090520, Note_on_c, 1, 76, 0
3, 2090520, Note_on_c, 1, 74, 100
3, 2090640, Note_on_c, 1, 74, 0
3, 2090640, Note_on_c, 1, 76, 100
3, 2090880, Note_on_c, 1, 76, 0
3, 2090880, Note_on_c, 1, 78, 100
3, 2091000, Note_on_c, 1, 78, 0
3, 2091000, Note_on_c, 1, 76, 100
3, 2091120, Note_on_c, 1, 76, 0
3, 2091120, Note_on_c, 1, 74, 100
3, 2091240, Note_on_c, 1, 74, 0
3, 2091240, Note_on_c, 1, 73, 100
3, 2091360, Note_on_c, 1, 73, 0
3, 2091360, Note_on_c, 1, 74, 100
3, 2092080, Note_on_c, 1, 74, 0
3, 2092080, Note_on_c, 1, 67, 100
3, 2092560, Note_on_c, 1, 67, 0
3, 2092560, Note_on_c, 1, 66, 100
3, 2092800, Note_on_c, 1, 66, 0
3, 2092800, Note_on_c, 1, 67, 100
3, 2093280, Note_on_c, 1, 67, 0
3, 2093280, Note_on_c, 1, 69, 100
3, 2093520, Note_on_c, 1, 69, 0
3, 2093520, Note_on_c, 1, 71, 100
3, 2093760, Note_on_c, 1, 71, 0
3, 2093760, Note_on_c, 1, 74, 100
3, 2094000, Note_on_c, 1, 74, 0
3, 2094000, Note_on_c, 1, 73, 100
3, 2094240, Note_on_c, 1, 73, 0
3, 2094240, Note_on_c, 1, 74, 100
3, 2094720, Note_on_c, 1, 74, 0
3, 2094720, Note_on_c, 1, 69, 100
3, 2094960, Note_on_c, 1, 69, 0
3, 2094960, Note_on_c, 1, 74, 100
3, 2095440, Note_on_c, 1, 74, 0
3, 2095440, Note_on_c, 1, 76, 100
3, 2095680, Note_on_c, 1, 76, 0
3, 2095680, Note_on_c, 1, 76, 100
3, 2095710, Note_on_c, 1, 76, 0
3, 2095710, Note_on_c, 1, 78, 100
3, 2095800, Note_on_c, 1, 78, 0
3, 2095800, Note_on_c, 1, 79, 100
3, 2095920, Note_on_c, 1, 79, 0
3, 2095920, Note_on_c, 1, 78, 100
3, 2096040, Note_on_c, 1, 78, 0
3, 2096040, Note_on_c, 1, 76, 100
3, 2096160, Note_on_c, 1, 76, 0
3, 2096160, Note_on_c, 1, 74, 100
3, 2096400, Note_on_c, 1, 74, 0
3, 2096400, Note_on_c, 1, 79, 100
3, 2096640, Note_on_c, 1, 79, 0
3, 2096640, Note_on_c, 1, 83, 100
3, 2096880, Note_on_c, 1, 83, 0
3, 2096880, Note_on_c, 1, 81, 100
3, 2097120, Note_on_c, 1, 81, 0
3, 2097120, Note_on_c, 1, 83, 100
3, 2097360, Note_on_c, 1, 83, 0
3, 2097360, Note_on_c, 1, 79, 100
3, 2097600, Note_on_c, 1, 79, 0
3, 2097600, Note_on_c, 1, 78, 100
3, 2097840, Note_on_c, 1, 78, 0
3, 2097840, Note_on_c, 1, 79, 100
3, 2098800, Note_on_c, 1, 79, 0
3, 2098800, Note_on_c, 1, 78, 100
3, 2099040, Note_on_c, 1, 78, 0
3, 2099040, Note_on_c, 1, 76, 100
3, 2099280, Note_on_c, 1, 76, 0
3, 2099280, Note_on_c, 1, 78, 100
3, 2099520, Note_on_c, 1, 78, 0
3, 2099520, Note_on_c, 1, 79, 100
3, 2099760, Note_on_c, 1, 79, 0
3, 2099760, Note_on_c, 1, 81, 100
3, 2100000, Note_on_c, 1, 81, 0
3, 2100000, Note_on_c, 1, 74, 100
3, 2100960, Note_on_c, 1, 74, 0
3, 2100960, Note_on_c, 1, 79, 100
3, 2101200, Note_on_c, 1, 79, 0
3, 2101200, Note_on_c, 1, 78, 100
3, 2101440, Note_on_c, 1, 78, 0
3, 2101440, Note_on_c, 1, 79, 100
3, 2101680, Note_on_c, 1, 79, 0
3, 2101680, Note_on_c, 1, 83, 100
3, 2101920, Note_on_c, 1, 83, 0
3, 2101920, Note_on_c, 1, 81, 100
3, 2102160, Note_on_c, 1, 81, 0
3, 2102160, Note_on_c, 1, 83, 100
3, 2102400, Note_on_c, 1, 83, 0
3, 2102400, Note_on_c, 1, 86, 100
3, 2102520, Note_on_c, 1, 86, 0
3, 2102520, Note_on_c, 1, 84, 100
3, 2102640, Note_on_c, 1, 84, 0
3, 2102640, Note_on_c, 1, 83, 100
3, 2102760, Note_on_c, 1, 83, 0
3, 2102760, Note_on_c, 1, 81, 100
3, 2102880, Note_on_c, 1, 81, 0
3, 2102880, Note_on_c, 1, 83, 100
3, 2103120, Note_on_c, 1, 83, 0
3, 2103120, Note_on_c, 1, 84, 100
3, 2103240, Note_on_c, 1, 84, 0
3, 2103240, Note_on_c, 1, 83, 100
3, 2103360, Note_on_c, 1, 83, 0
3, 2103360, Note_on_c, 1, 81, 100
3, 2103480, Note_on_c, 1, 81, 0
3, 2103480, Note_on_c, 1, 79, 100
3, 2103600, Note_on_c, 1, 79, 0
3, 2103600, Note_on_c, 1, 81, 100
3, 2103840, Note_on_c, 1, 81, 0
3, 2103840, Note_on_c, 1, 83, 100
3, 2103960, Note_on_c, 1, 83, 0
3, 2103960, Note_on_c, 1, 81, 100
3, 2104080, Note_on_c, 1, 81, 0
3, 2104080, Note_on_c, 1, 79, 100
3, 2104200, Note_on_c, 1, 79, 0
3, 2104200, Note_on_c, 1, 78, 100
3, 2104320, Note_on_c, 1, 78, 0
3, 2104320, Note_on_c, 1, 79, 100
3, 2104560, Note_on_c, 1, 79, 0
3, 2104560, Note_on_c, 1, 81, 100
3, 2104680, Note_on_c, 1, 81, 0
3, 2104680, Note_on_c, 1, 79, 100
3, 2104800, Note_on_c, 1, 79, 0
3, 2104800, Note_on_c, 1, 78, 100
3, 2104920, Note_on_c, 1, 78, 0
3, 2104920, Note_on_c, 1, 76, 100
3, 2105040, Note_on_c, 1, 76, 0
3, 2105040, Note_on_c, 1, 74, 100
3, 2105280, Note_on_c, 1, 74, 0
3, 2105760, Note_on_c, 1, 79, 100
3, 2106000, Note_on_c, 1, 79, 0
3, 2106480, Note_on_c, 1, 78, 100
3, 2106720, Note_on_c, 1, 78, 0
3, 2107200, Note_on_c, 1, 79, 100
3, 2107440, Note_on_c, 1, 79, 0
3, 2107920, Note_on_c, 1, 72, 100
3, 2108160, Note_on_c, 1, 72, 0
3, 2108640, Note_on_c, 1, 71, 100
3, 2108880, Note_on_c, 1, 71, 0
3, 2113920, Note_on_c, 1, 83, 100
3, 2114160, Note_on_c, 1, 83, 0
3, 2114160, Note_on_c, 1, 81, 100
3, 2114400, Note_on_c, 1, 81, 0
3, 2114400, Note_on_c, 1, 79, 100
3, 2114640, Note_on_c, 1, 79, 0
3, 2114640, Note_on_c, 1, 81, 100
3, 2114880, Note_on_c, 1, 81, 0
3, 2114880, Note_on_c, 1, 78, 100
3, 2115120, Note_on_c, 1, 78, 0
3, 2115120, Note_on_c, 1, 76, 100
3, 2115240, Note_on_c, 1, 76, 0
3, 2115240, Note_on_c, 1, 74, 100
3, 2115360, Note_on_c, 1, 74, 0
3, 2115360, Note_on_c, 1, 73, 100
3, 2115600, Note_on_c, 1, 73, 0
3, 2115600, Note_on_c, 1, 74, 100
3, 2115840, Note_on_c, 1, 74, 0
3, 2115840, Note_on_c, 1, 74, 100
3, 2115960, Note_on_c, 1, 74, 0
3, 2115960, Note_on_c, 1, 73, 100
3, 2116800, Note_on_c, 1, 73, 0
3, 2116800, Note_on_c, 1, 74, 100
3, 2117040, Note_on_c, 1, 74, 0
3, 2117040, Note_on_c, 1, 76, 100
3, 2117280, Note_on_c, 1, 76, 0
3, 2117280, Note_on_c, 1, 69, 100
3, 2117520, Note_on_c, 1, 69, 0
3, 2117520, Note_on_c, 1, 71, 100
3, 2117760, Note_on_c, 1, 71, 0
3, 2117760, Note_on_c, 1, 73, 100
3, 2118000, Note_on_c, 1, 73, 0
3, 2118000, Note_on_c, 1, 74, 100
3, 2118480, Note_on_c, 1, 74, 0
3, 2118480, Note_on_c, 1, 78, 100
3, 2118720, Note_on_c, 1, 78, 0
3, 2118720, Note_on_c, 1, 79, 100
3, 2119200, Note_on_c, 1, 79, 0
3, 2119200, Note_on_c, 1, 81, 100
3, 2119440, Note_on_c, 1, 81, 0
3, 2119440, Note_on_c, 1, 71, 100
3, 2120400, Note_on_c, 1, 71, 0
3, 2120400, Note_on_c, 1, 69, 100
3, 2120640, Note_on_c, 1, 69, 0
3, 2120640, Note_on_c, 1, 67, 100
3, 2120880, Note_on_c, 1, 67, 0
3, 2120880, Note_on_c, 1, 69, 100
3, 2122560, Note_on_c, 1, 69, 0
3, 2122560, Note_on_c, 1, 74, 100
3, 2122800, Note_on_c, 1, 74, 0
3, 2122800, Note_on_c, 1, 73, 100
3, 2123040, Note_on_c, 1, 73, 0
3, 2123040, Note_on_c, 1, 74, 100
3, 2123160, Note_on_c, 1, 74, 0
3, 2123160, Note_on_c, 1, 76, 100
3, 2123280, Note_on_c, 1, 76, 0
3, 2123280, Note_on_c, 1, 78, 100
3, 2123520, Note_on_c, 1, 78, 0
3, 2123520, Note_on_c, 1, 76, 100
3, 2123760, Note_on_c, 1, 76, 0
3, 2123760, Note_on_c, 1, 78, 100
3, 2124000, Note_on_c, 1, 78, 0
3, 2124000, Note_on_c, 1, 81, 100
3, 2124120, Note_on_c, 1, 81, 0
3, 2124120, Note_on_c, 1, 79, 100
3, 2124240, Note_on_c, 1, 79, 0
3, 2124240, Note_on_c, 1, 78, 100
3, 2124360, Note_on_c, 1, 78, 0
3, 2124360, Note_on_c, 1, 76, 100
3, 2124480, Note_on_c, 1, 76, 0
3, 2124480, Note_on_c, 1, 78, 100
3, 2124720, Note_on_c, 1, 78, 0
3, 2124720, Note_on_c, 1, 79, 100
3, 2124840, Note_on_c, 1, 79, 0
3, 2124840, Note_on_c, 1, 78, 100
3, 2124960, Note_on_c, 1, 78, 0
3, 2124960, Note_on_c, 1, 76, 100
3, 2125080, Note_on_c, 1, 76, 0
3, 2125080, Note_on_c, 1, 74, 100
3, 2125200, Note_on_c, 1, 74, 0
3, 2125200, Note_on_c, 1, 76, 100
3, 2125440, Note_on_c, 1, 76, 0
3, 2125440, Note_on_c, 1, 78, 100
3, 2125560, Note_on_c, 1, 78, 0
3, 2125560, Note_on_c, 1, 76, 100
3, 2125680, Note_on_c, 1, 76, 0
3, 2125680, Note_on_c, 1, 74, 100
3, 2125800, Note_on_c, 1, 74, 0
3, 2125800, Note_on_c, 1, 73, 100
3, 2125920, Note_on_c, 1, 73, 0
3, 2125920, Note_on_c, 1, 74, 100
3, 2126640, Note_on_c, 1, 74, 0
3, 2130960, Note_on_c, 1, 83, 100
3, 2131080, Note_on_c, 1, 83, 0
3, 2131080, Note_on_c, 1, 81, 100
3, 2131200, Note_on_c, 1, 81, 0
3, 2131200, Note_on_c, 1, 79, 100
3, 2131320, Note_on_c, 1, 79, 0
3, 2131320, Note_on_c, 1, 81, 100
3, 2131440, Note_on_c, 1, 81, 0
3, 2131440, Note_on_c, 1, 83, 100
3, 2131500, Note_on_c, 1, 83, 0
3, 2131500, Note_on_c, 1, 81, 100
3, 2131560, Note_on_c, 1, 81, 0
3, 2131560, Note_on_c, 1, 83, 100
3, 2131620, Note_on_c, 1, 83, 0
3, 2131620, Note_on_c, 1, 81, 100
3, 2131680, Note_on_c, 1, 81, 0
3, 2131680, Note_on_c, 1, 83, 100
3, 2131740, Note_on_c, 1, 83, 0
3, 2131740, Note_on_c, 1, 81, 100
3, 2131800, Note_on_c, 1, 81, 0
3, 2131800, Note_on_c, 1, 83, 100
3, 2131860, Note_on_c, 1, 83, 0
3, 2131860, Note_on_c, 1, 81, 100
3, 2131920, Note_on_c, 1, 81, 0
3, 2131920, Note_on_c, 1, 83, 100
3, 2131980, Note_on_c, 1, 83, 0
3, 2131980, Note_on_c, 1, 81, 100
3, 2132040, Note_on_c, 1, 81, 0
3, 2132040, Note_on_c, 1, 83, 100
3, 2132100, Note_on_c, 1, 83, 0
3, 2132100, Note_on_c, 1, 81, 100
3, 2132160, Note_on_c, 1, 81, 0
3, 2132160, Note_on_c, 1, 83, 100
3, 2132220, Note_on_c, 1, 83, 0
3, 2132220, Note_on_c, 1, 81, 100
3, 2132280, Note_on_c, 1, 81, 0
3, 2132280, Note_on_c, 1, 83, 100
3, 2132340, Note_on_c, 1, 83, 0
3, 2132340, Note_on_c, 1, 81, 100
3, 2132400, Note_on_c, 1, 81, 0
3, 2132400, Note_on_c, 1, 83, 100
3, 2132460, Note_on_c, 1, 83, 0
3, 2132460, Note_on_c, 1, 81, 100
3, 2132520, Note_on_c, 1, 81, 0
3, 2132520, Note_on_c, 1, 83, 100
3, 2132580, Note_on_c, 1, 83, 0
3, 2132580, Note_on_c, 1, 81, 100
3, 2132640, Note_on_c, 1, 81, 0
3, 2132640, Note_on_c, 1, 83, 100
3, 2132700, Note_on_c, 1, 83, 0
3, 2132700, Note_on_c, 1, 81, 100
3, 2132760, Note_on_c, 1, 81, 0
3, 2132760, Note_on_c, 1, 83, 100
3, 2132820, Note_on_c, 1, 83, 0
3, 2132820, Note_on_c, 1, 81, 100
3, 2132880, Note_on_c, 1, 81, 0
3, 2132880, Note_on_c, 1, 83, 100
3, 2132940, Note_on_c, 1, 83, 0
3, 2132940, Note_on_c, 1, 81, 100
3, 2133000, Note_on_c, 1, 81, 0
3, 2133000, Note_on_c, 1, 83, 100
3, 2133060, Note_on_c, 1, 83, 0
3, 2133060, Note_on_c, 1, 81, 100
3, 2133120, Note_on_c, 1, 81, 0
3, 2133120, Note_on_c, 1, 83, 100
3, 2133240, Note_on_c, 1, 83, 0
3, 2133240, Note_on_c, 1, 81, 100
3, 2133360, Note_on_c, 1, 81, 0
3, 2133360, Note_on_c, 1, 79, 100
3, 2133600, Note_on_c, 1, 79, 0
3, 2133600, Note_on_c, 1, 78, 100
3, 2133840, Note_on_c, 1, 78, 0
3, 2133840, Note_on_c, 1, 79, 100
3, 2134080, Note_on_c, 1, 79, 0
3, 2134080, Note_on_c, 1, 83, 100
3, 2134320, Note_on_c, 1, 83, 0
3, 2134320, Note_on_c, 1, 81, 100
3, 2134560, Note_on_c, 1, 81, 0
3, 2134560, Note_on_c, 1, 83, 100
3, 2135040, Note_on_c, 1, 83, 0
3, 2135040, Note_on_c, 1, 75, 100
3, 2135280, Note_on_c, 1, 75, 0
3, 2135280, Note_on_c, 1, 76, 100
3, 2135520, Note_on_c, 1, 76, 0
3, 2135520, Note_on_c, 1, 79, 100
3, 2135640, Note_on_c, 1, 79, 0
3, 2135640, Note_on_c, 1, 78, 100
3, 2135760, Note_on_c, 1, 78, 0
3, 2135760, Note_on_c, 1, 76, 100
3, 2135880, Note_on_c, 1, 76, 0
3, 2135880, Note_on_c, 1, 74, 100
3, 2136000, Note_on_c, 1, 74, 0
3, 2136000, Note_on_c, 1, 72, 100
3, 2136240, Note_on_c, 1, 72, 0
3, 2136240, Note_on_c, 1, 76, 100
3, 2136360, Note_on_c, 1, 76, 0
3, 2136360, Note_on_c, 1, 74, 100
3, 2136480, Note_on_c, 1, 74, 0
3, 2136480, Note_on_c, 1, 72, 100
3, 2136600, Note_on_c, 1, 72, 0
3, 2136600, Note_on_c, 1, 71, 100
3, 2136720, Note_on_c, 1, 71, 0
3, 2136720, Note_on_c, 1, 69, 100
3, 2136960, Note_on_c, 1, 69, 0
3, 2136960, Note_on_c, 1, 72, 100
3, 2137080, Note_on_c, 1, 72, 0
3, 2137080, Note_on_c, 1, 71, 100
3, 2137200, Note_on_c, 1, 71, 0
3, 2137200, Note_on_c, 1, 69, 100
3, 2137320, Note_on_c, 1, 69, 0
3, 2137320, Note_on_c, 1, 67, 100
3, 2137440, Note_on_c, 1, 67, 0
3, 2137440, Note_on_c, 1, 66, 100
3, 2137920, Note_on_c, 1, 66, 0
3, 2137920, Note_on_c, 1, 76, 100
3, 2138160, Note_on_c, 1, 76, 0
3, 2138160, Note_on_c, 1, 75, 100
3, 2138400, Note_on_c, 1, 75, 0
3, 2138400, Note_on_c, 1, 78, 100
3, 2138460, Note_on_c, 1, 78, 0
3, 2138460, Note_on_c, 1, 76, 100
3, 2138520, Note_on_c, 1, 76, 0
3, 2138520, Note_on_c, 1, 75, 100
3, 2138580, Note_on_c, 1, 75, 0
3, 2138580, Note_on_c, 1, 76, 100
3, 2138640, Note_on_c, 1, 76, 0
3, 2138640, Note_on_c, 1, 78, 100
3, 2138880, Note_on_c, 1, 78, 0
3, 2138880, Note_on_c, 1, 71, 100
3, 2139840, Note_on_c, 1, 71, 0
3, 2139840, Note_on_c, 1, 75, 100
3, 2140080, Note_on_c, 1, 75, 0
3, 2140080, Note_on_c, 1, 76, 100
3, 2140440, Note_on_c, 1, 76, 0
3, 2140440, Note_on_c, 1, 74, 100
3, 2140560, Note_on_c, 1, 74, 0
3, 2140560, Note_on_c, 1, 72, 100
3, 2140680, Note_on_c, 1, 72, 0
3, 2140680, Note_on_c, 1, 71, 100
3, 2140800, Note_on_c, 1, 71, 0
3, 2140800, Note_on_c, 1, 72, 100
3, 2141160, Note_on_c, 1, 72, 0
3, 2141160, Note_on_c, 1, 71, 100
3, 2141280, Note_on_c, 1, 71, 0
3, 2141280, Note_on_c, 1, 69, 100
3, 2141400, Note_on_c, 1, 69, 0
3, 2141400, Note_on_c, 1, 67, 100
3, 2141520, Note_on_c, 1, 67, 0
3, 2141520, Note_on_c, 1, 69, 100
3, 2142000, Note_on_c, 1, 69, 0
3, 2142000, Note_on_c, 1, 66, 100
3, 2142240, Note_on_c, 1, 66, 0
3, 2142240, Note_on_c, 1, 67, 100
3, 2142480, Note_on_c, 1, 67, 0
3, 2142480, Note_on_c, 1, 71, 100
3, 2142540, Note_on_c, 1, 71, 0
3, 2142540, Note_on_c, 1, 69, 100
3, 2142600, Note_on_c, 1, 69, 0
3, 2142600, Note_on_c, 1, 71, 100
3, 2143440, Note_on_c, 1, 71, 0
3, 2143440, Note_on_c, 1, 72, 100
3, 2143680, Note_on_c, 1, 72, 0
3, 2143680, Note_on_c, 1, 74, 100
3, 2143920, Note_on_c, 1, 74, 0
3, 2143920, Note_on_c, 1, 76, 100
3, 2144160, Note_on_c, 1, 76, 0
3, 2144160, Note_on_c, 1, 68, 100
3, 2144400, Note_on_c, 1, 68, 0
3, 2144400, Note_on_c, 1, 71, 100
3, 2144640, Note_on_c, 1, 71, 0
3, 2144640, Note_on_c, 1, 69, 100
3, 2145600, Note_on_c, 1, 69, 0
3, 2145600, Note_on_c, 1, 71, 100
3, 2145840, Note_on_c, 1, 71, 0
3, 2145840, Note_on_c, 1, 72, 100
3, 2146080, Note_on_c, 1, 72, 0
3, 2146080, Note_on_c, 1, 74, 100
3, 2146320, Note_on_c, 1, 74, 0
3, 2146320, Note_on_c, 1, 66, 100
3, 2146560, Note_on_c, 1, 66, 0
3, 2146560, Note_on_c, 1, 69, 100
3, 2146800, Note_on_c, 1, 69, 0
3, 2146800, Note_on_c, 1, 62, 100
3, 2147280, Note_on_c, 1, 62, 0
3, 2147280, Note_on_c, 1, 66, 100
3, 2147520, Note_on_c, 1, 66, 0
3, 2147520, Note_on_c, 1, 71, 100
3, 2148720, Note_on_c, 1, 71, 0
3, 2148720, Note_on_c, 1, 63, 100
3, 2148960, Note_on_c, 1, 63, 0
3, 2148960, Note_on_c, 1, 64, 100
3, 2149200, Note_on_c, 1, 64, 0
3, 2149200, Note_on_c, 1, 66, 100
3, 2149440, Note_on_c, 1, 66, 0
3, 2149440, Note_on_c, 1, 67, 100
3, 2149680, Note_on_c, 1, 67, 0
3, 2149680, Note_on_c, 1, 66, 100
3, 2149920, Note_on_c, 1, 66, 0
3, 2149920, Note_on_c, 1, 67, 100
3, 2150160, Note_on_c, 1, 67, 0
3, 2150160, Note_on_c, 1, 69, 100
3, 2150400, Note_on_c, 1, 69, 0
3, 2150400, Note_on_c, 1, 62, 100
3, 2151120, Note_on_c, 1, 62, 0
3, 2151120, Note_on_c, 1, 62, 100
3, 2151840, Note_on_c, 1, 62, 0
3, 2151840, Note_on_c, 1, 62, 100
3, 2152800, Note_on_c, 1, 62, 0
3, 2152800, Note_on_c, 1, 67, 100
3, 2153040, Note_on_c, 1, 67, 0
3, 2153040, Note_on_c, 1, 66, 100
3, 2153280, Note_on_c, 1, 66, 0
3, 2153280, Note_on_c, 1, 67, 100
3, 2153520, Note_on_c, 1, 67, 0
3, 2153520, Note_on_c, 1, 69, 100
3, 2153760, Note_on_c, 1, 69, 0
3, 2153760, Note_on_c, 1, 71, 100
3, 2154000, Note_on_c, 1, 71, 0
3, 2154000, Note_on_c, 1, 72, 100
3, 2154240, Note_on_c, 1, 72, 0
3, 2154240, Note_on_c, 1, 74, 100
3, 2154360, Note_on_c, 1, 74, 0
3, 2154360, Note_on_c, 1, 72, 100
3, 2154480, Note_on_c, 1, 72, 0
3, 2154480, Note_on_c, 1, 71, 100
3, 2154600, Note_on_c, 1, 71, 0
3, 2154600, Note_on_c, 1, 69, 100
3, 2154720, Note_on_c, 1, 69, 0
3, 2154720, Note_on_c, 1, 71, 100
3, 2154960, Note_on_c, 1, 71, 0
3, 2154960, Note_on_c, 1, 72, 100
3, 2155080, Note_on_c, 1, 72, 0
3, 2155080, Note_on_c, 1, 71, 100
3, 2155200, Note_on_c, 1, 71, 0
3, 2155200, Note_on_c, 1, 69, 100
3, 2155320, Note_on_c, 1, 69, 0
3, 2155320, Note_on_c, 1, 67, 100
3, 2155440, Note_on_c, 1, 67, 0
3, 2155440, Note_on_c, 1, 69, 100
3, 2155680, Note_on_c, 1, 69, 0
3, 2155680, Note_on_c, 1, 71, 100
3, 2155800, Note_on_c, 1, 71, 0
3, 2155800, Note_on_c, 1, 69, 100
3, 2155920, Note_on_c, 1, 69, 0
3, 2155920, Note_on_c, 1, 67, 100
3, 2156040, Note_on_c, 1, 67, 0
3, 2156040, Note_on_c, 1, 66, 100
3, 2156160, Note_on_c, 1, 66, 0
3, 2156160, Note_on_c, 1, 67, 100
3, 2156400, Note_on_c, 1, 67, 0
3, 2156400, Note_on_c, 1, 71, 100
3, 2156520, Note_on_c, 1, 71, 0
3, 2156520, Note_on_c, 1, 69, 100
3, 2156640, Note_on_c, 1, 69, 0
3, 2156640, Note_on_c, 1, 67, 100
3, 2156760, Note_on_c, 1, 67, 0
3, 2156760, Note_on_c, 1, 66, 100
3, 2156880, Note_on_c, 1, 66, 0
3, 2156880, Note_on_c, 1, 67, 100
3, 2157120, Note_on_c, 1, 67, 0
3, 2157600, Note_on_c, 1, 62, 100
3, 2157840, Note_on_c, 1, 62, 0
3, 2158320, Note_on_c, 1, 66, 100
3, 2158560, Note_on_c, 1, 66, 0
3, 2159040, Note_on_c, 1, 67, 100
3, 2159280, Note_on_c, 1, 67, 0
3, 2159760, Note_on_c, 1, 60, 100
3, 2160000, Note_on_c, 1, 60, 0
3, 2160480, Note_on_c, 1, 59, 100
3, 2161200, Note_on_c, 1, 59, 0
3, 2165520, Note_on_c, 1, 83, 100
3, 2165640, Note_on_c, 1, 83, 0
3, 2165640, Note_on_c, 1, 81, 100
3, 2165760, Note_on_c, 1, 81, 0
3, 2165760, Note_on_c, 1, 79, 100
3, 2165880, Note_on_c, 1, 79, 0
3, 2165880, Note_on_c, 1, 81, 100
3, 2166000, Note_on_c, 1, 81, 0
3, 2166000, Note_on_c, 1, 83, 100
3, 2166060, Note_on_c, 1, 83, 0
3, 2166060, Note_on_c, 1, 81, 100
3, 2166120, Note_on_c, 1, 81, 0
3, 2166120, Note_on_c, 1, 83, 100
3, 2166180, Note_on_c, 1, 83, 0
3, 2166180, Note_on_c, 1, 81, 100
3, 2166240, Note_on_c, 1, 81, 0
3, 2166240, Note_on_c, 1, 83, 100
3, 2166300, Note_on_c, 1, 83, 0
3, 2166300, Note_on_c, 1, 81, 100
3, 2166360, Note_on_c, 1, 81, 0
3, 2166360, Note_on_c, 1, 83, 100
3, 2166420, Note_on_c, 1, 83, 0
3, 2166420, Note_on_c, 1, 81, 100
3, 2166480, Note_on_c, 1, 81, 0
3, 2166480, Note_on_c, 1, 83, 100
3, 2166540, Note_on_c, 1, 83, 0
3, 2166540, Note_on_c, 1, 81, 100
3, 2166600, Note_on_c, 1, 81, 0
3, 2166600, Note_on_c, 1, 83, 100
3, 2166660, Note_on_c, 1, 83, 0
3, 2166660, Note_on_c, 1, 81, 100
3, 2166720, Note_on_c, 1, 81, 0
3, 2166720, Note_on_c, 1, 83, 100
3, 2166780, Note_on_c, 1, 83, 0
3, 2166780, Note_on_c, 1, 81, 100
3, 2166840, Note_on_c, 1, 81, 0
3, 2166840, Note_on_c, 1, 83, 100
3, 2166900, Note_on_c, 1, 83, 0
3, 2166900, Note_on_c, 1, 81, 100
3, 2166960, Note_on_c, 1, 81, 0
3, 2166960, Note_on_c, 1, 83, 100
3, 2167020, Note_on_c, 1, 83, 0
3, 2167020, Note_on_c, 1, 81, 100
3, 2167080, Note_on_c, 1, 81, 0
3, 2167080, Note_on_c, 1, 83, 100
3, 2167140, Note_on_c, 1, 83, 0
3, 2167140, Note_on_c, 1, 81, 100
3, 2167200, Note_on_c, 1, 81, 0
3, 2167200, Note_on_c, 1, 83, 100
3, 2167260, Note_on_c, 1, 83, 0
3, 2167260, Note_on_c, 1, 81, 100
3, 2167320, Note_on_c, 1, 81, 0
3, 2167320, Note_on_c, 1, 83, 100
3, 2167380, Note_on_c, 1, 83, 0
3, 2167380, Note_on_c, 1, 81, 100
3, 2167440, Note_on_c, 1, 81, 0
3, 2167440, Note_on_c, 1, 83, 100
3, 2167500, Note_on_c, 1, 83, 0
3, 2167500, Note_on_c, 1, 81, 100
3, 2167560, Note_on_c, 1, 81, 0
3, 2167560, Note_on_c, 1, 83, 100
3, 2167620, Note_on_c, 1, 83, 0
3, 2167620, Note_on_c, 1, 81, 100
3, 2167680, Note_on_c, 1, 81, 0
3, 2167680, Note_on_c, 1, 83, 100
3, 2167800, Note_on_c, 1, 83, 0
3, 2167800, Note_on_c, 1, 81, 100
3, 2167920, Note_on_c, 1, 81, 0
3, 2167920, Note_on_c, 1, 79, 100
3, 2168160, Note_on_c, 1, 79, 0
3, 2168160, Note_on_c, 1, 78, 100
3, 2168400, Note_on_c, 1, 78, 0
3, 2168400, Note_on_c, 1, 79, 100
3, 2168640, Note_on_c, 1, 79, 0
3, 2168640, Note_on_c, 1, 83, 100
3, 2168880, Note_on_c, 1, 83, 0
3, 2168880, Note_on_c, 1, 81, 100
3, 2169120, Note_on_c, 1, 81, 0
3, 2169120, Note_on_c, 1, 83, 100
3, 2169600, Note_on_c, 1, 83, 0
3, 2169600, Note_on_c, 1, 75, 100
3, 2169840, Note_on_c, 1, 75, 0
3, 2169840, Note_on_c, 1, 76, 100
3, 2170080, Note_on_c, 1, 76, 0
3, 2170080, Note_on_c, 1, 79, 100
3, 2170200, Note_on_c, 1, 79, 0
3, 2170200, Note_on_c, 1, 78, 100
3, 2170320, Note_on_c, 1, 78, 0
3, 2170320, Note_on_c, 1, 76, 100
3, 2170440, Note_on_c, 1, 76, 0
3, 2170440, Note_on_c, 1, 74, 100
3, 2170560, Note_on_c, 1, 74, 0
3, 2170560, Note_on_c, 1, 72, 100
3, 2170800, Note_on_c, 1, 72, 0
3, 2170800, Note_on_c, 1, 76, 100
3, 2170920, Note_on_c, 1, 76, 0
3, 2170920, Note_on_c, 1, 74, 100
3, 2171040, Note_on_c, 1, 74, 0
3, 2171040, Note_on_c, 1, 72, 100
3, 2171160, Note_on_c, 1, 72, 0
3, 2171160, Note_on_c, 1, 71, 100
3, 2171280, Note_on_c, 1, 71, 0
3, 2171280, Note_on_c, 1, 69, 100
3, 2171520, Note_on_c, 1, 69, 0
3, 2171520, Note_on_c, 1, 72, 100
3, 2171640, Note_on_c, 1, 72, 0
3, 2171640, Note_on_c, 1, 71, 100
3, 2171760, Note_on_c, 1, 71, 0
3, 2171760, Note_on_c, 1, 69, 100
3, 2171880, Note_on_c, 1, 69, 0
3, 2171880, Note_on_c, 1, 67, 100
3, 2172000, Note_on_c, 1, 67, 0
3, 2172000, Note_on_c, 1, 66, 100
3, 2172480, Note_on_c, 1, 66, 0
3, 2172480, Note_on_c, 1, 76, 100
3, 2172720, Note_on_c, 1, 76, 0
3, 2172720, Note_on_c, 1, 75, 100
3, 2172960, Note_on_c, 1, 75, 0
3, 2172960, Note_on_c, 1, 78, 100
3, 2173020, Note_on_c, 1, 78, 0
3, 2173020, Note_on_c, 1, 76, 100
3, 2173080, Note_on_c, 1, 76, 0
3, 2173080, Note_on_c, 1, 75, 100
3, 2173140, Note_on_c, 1, 75, 0
3, 2173140, Note_on_c, 1, 76, 100
3, 2173200, Note_on_c, 1, 76, 0
3, 2173200, Note_on_c, 1, 78, 100
3, 2173440, Note_on_c, 1, 78, 0
3, 2173440, Note_on_c, 1, 71, 100
3, 2174400, Note_on_c, 1, 71, 0
3, 2174400, Note_on_c, 1, 75, 100
3, 2174640, Note_on_c, 1, 75, 0
3, 2174640, Note_on_c, 1, 76, 100
3, 2175000, Note_on_c, 1, 76, 0
3, 2175000, Note_on_c, 1, 74, 100
3, 2175120, Note_on_c, 1, 74, 0
3, 2175120, Note_on_c, 1, 72, 100
3, 2175240, Note_on_c, 1, 72, 0
3, 2175240, Note_on_c, 1, 71, 100
3, 2175360, Note_on_c, 1, 71, 0
3, 2175360, Note_on_c, 1, 72, 100
3, 2175720, Note_on_c, 1, 72, 0
3, 2175720, Note_on_c, 1, 71, 100
3, 2175840, Note_on_c, 1, 71, 0
3, 2175840, Note_on_c, 1, 69, 100
3, 2175960, Note_on_c, 1, 69, 0
3, 2175960, Note_on_c, 1, 67, 100
3, 2176080, Note_on_c, 1, 67, 0
3, 2176080, Note_on_c, 1, 69, 100
3, 2176560, Note_on_c, 1, 69, 0
3, 2176560, Note_on_c, 1, 66, 100
3, 2176800, Note_on_c, 1, 66, 0
3, 2176800, Note_on_c, 1, 67, 100
3, 2177040, Note_on_c, 1, 67, 0
3, 2177040, Note_on_c, 1, 71, 100
3, 2177100, Note_on_c, 1, 71, 0
3, 2177100, Note_on_c, 1, 69, 100
3, 2177160, Note_on_c, 1, 69, 0
3, 2177160, Note_on_c, 1, 71, 100
3, 2178000, Note_on_c, 1, 71, 0
3, 2178000, Note_on_c, 1, 72, 100
3, 2178240, Note_on_c, 1, 72, 0
3, 2178240, Note_on_c, 1, 74, 100
3, 2178480, Note_on_c, 1, 74, 0
3, 2178480, Note_on_c, 1, 76, 100
3, 2178720, Note_on_c, 1, 76, 0
3, 2178720, Note_on_c, 1, 68, 100
3, 2178960, Note_on_c, 1, 68, 0
3, 2178960, Note_on_c, 1, 71, 100
3, 2179200, Note_on_c, 1, 71, 0
3, 2179200, Note_on_c, 1, 69, 100
3, 2180160, Note_on_c, 1, 69, 0
3, 2180160, Note_on_c, 1, 71, 100
3, 2180400, Note_on_c, 1, 71, 0
3, 2180400, Note_on_c, 1, 72, 100
3, 2180640, Note_on_c, 1, 72, 0
3, 2180640, Note_on_c, 1, 74, 100
3, 2180880, Note_on_c, 1, 74, 0
3, 2180880, Note_on_c, 1, 66, 100
3, 2181120, Note_on_c, 1, 66, 0
3, 2181120, Note_on_c, 1, 69, 100
3, 2181360, Note_on_c, 1, 69, 0
3, 2181360, Note_on_c, 1, 62, 100
3, 2181840, Note_on_c, 1, 62, 0
3, 2181840, Note_on_c, 1, 66, 100
3, 2182080, Note_on_c, 1, 66, 0
3, 2182080, Note_on_c, 1, 71, 100
3, 2183280, Note_on_c, 1, 71, 0
3, 2183280, Note_on_c, 1, 63, 100
3, 2183520, Note_on_c, 1, 63, 0
3, 2183520, Note_on_c, 1, 64, 100
3, 2183760, Note_on_c, 1, 64, 0
3, 2183760, Note_on_c, 1, 66, 100
3, 2184000, Note_on_c, 1, 66, 0
3, 2184000, Note_on_c, 1, 67, 100
3, 2184240, Note_on_c, 1, 67, 0
3, 2184240, Note_on_c, 1, 66, 100
3, 2184480, Note_on_c, 1, 66, 0
3, 2184480, Note_on_c, 1, 67, 100
3, 2184720, Note_on_c, 1, 67, 0
3, 2184720, Note_on_c, 1, 69, 100
3, 2184960, Note_on_c, 1, 69, 0
3, 2184960, Note_on_c, 1, 62, 100
3, 2185680, Note_on_c, 1, 62, 0
3, 2185680, Note_on_c, 1, 62, 100
3, 2186400, Note_on_c, 1, 62, 0
3, 2186400, Note_on_c, 1, 62, 100
3, 2187360, Note_on_c, 1, 62, 0
3, 2187360, Note_on_c, 1, 67, 100
3, 2187600, Note_on_c, 1, 67, 0
3, 2187600, Note_on_c, 1, 66, 100
3, 2187840, Note_on_c, 1, 66, 0
3, 2187840, Note_on_c, 1, 67, 100
3, 2188080, Note_on_c, 1, 67, 0
3, 2188080, Note_on_c, 1, 69, 100
3, 2188320, Note_on_c, 1, 69, 0
3, 2188320, Note_on_c, 1, 71, 100
3, 2188560, Note_on_c, 1, 71, 0
3, 2188560, Note_on_c, 1, 72, 100
3, 2188800, Note_on_c, 1, 72, 0
3, 2188800, Note_on_c, 1, 74, 100
3, 2188920, Note_on_c, 1, 74, 0
3, 2188920, Note_on_c, 1, 72, 100
3, 2189040, Note_on_c, 1, 72, 0
3, 2189040, Note_on_c, 1, 71, 100
3, 2189160, Note_on_c, 1, 71, 0
3, 2189160, Note_on_c, 1, 69, 100
3, 2189280, Note_on_c, 1, 69, 0
3, 2189280, Note_on_c, 1, 71, 100
3, 2189520, Note_on_c, 1, 71, 0
3, 2189520, Note_on_c, 1, 72, 100
3, 2189640, Note_on_c, 1, 72, 0
3, 2189640, Note_on_c, 1, 71, 100
3, 2189760, Note_on_c, 1, 71, 0
3, 2189760, Note_on_c, 1, 69, 100
3, 2189880, Note_on_c, 1, 69, 0
3, 2189880, Note_on_c, 1, 67, 100
3, 2190000, Note_on_c, 1, 67, 0
3, 2190000, Note_on_c, 1, 69, 100
3, 2190240, Note_on_c, 1, 69, 0
3, 2190240, Note_on_c, 1, 71, 100
3, 2190360, Note_on_c, 1, 71, 0
3, 2190360, Note_on_c, 1, 69, 100
3, 2190480, Note_on_c, 1, 69, 0
3, 2190480, Note_on_c, 1, 67, 100
3, 2190600, Note_on_c, 1, 67, 0
3, 2190600, Note_on_c, 1, 66, 100
3, 2190720, Note_on_c, 1, 66, 0
3, 2190720, Note_on_c, 1, 67, 100
3, 2190960, Note_on_c, 1, 67, 0
3, 2190960, Note_on_c, 1, 71, 100
3, 2191080, Note_on_c, 1, 71, 0
3, 2191080, Note_on_c, 1, 69, 100
3, 2191200, Note_on_c, 1, 69, 0
3, 2191200, Note_on_c, 1, 67, 100
3, 2191320, Note_on_c, 1, 67, 0
3, 2191320, Note_on_c, 1, 66, 100
3, 2191440, Note_on_c, 1, 66, 0
3, 2191440, Note_on_c, 1, 67, 100
3, 2191680, Note_on_c, 1, 67, 0
3, 2192160, Note_on_c, 1, 62, 100
3, 2192400, Note_on_c, 1, 62, 0
3, 2192880, Note_on_c, 1, 66, 100
3, 2193120, Note_on_c, 1, 66, 0
3, 2193600, Note_on_c, 1, 67, 100
3, 2193840, Note_on_c, 1, 67, 0
3, 2194320, Note_on_c, 1, 60, 100
3, 2194560, Note_on_c, 1, 60, 0
3, 2195040, Note_on_c, 1, 59, 100
3, 2195760, Note_on_c, 1, 59, 0
3, 2195880, Note_on_c, 1, 74, 100
3, 2196000, Note_on_c, 1, 74, 0
3, 2196000, Note_on_c, 1, 75, 100
3, 2196015, Note_on_c, 1, 75, 0
3, 2196015, Note_on_c, 1, 74, 100
3, 2196060, Note_on_c, 1, 74, 0
3, 2196060, Note_on_c, 1, 73, 100
3, 2196120, Note_on_c, 1, 73, 0
3, 2196120, Note_on_c, 1, 74, 100
3, 2196240, Note_on_c, 1, 74, 0
3, 2196240, Note_on_c, 1, 74, 100
3, 2196300, Note_on_c, 1, 74, 0
3, 2196300, Note_on_c, 1, 82, 100
3, 2196540, Note_on_c, 1, 82, 0
3, 2196540, Note_on_c, 1, 81, 100
3, 2196600, Note_on_c, 1, 81, 0
3, 2196600, Note_on_c, 1, 79, 100
3, 2196660, Note_on_c, 1, 79, 0
3, 2196660, Note_on_c, 1, 77, 100
3, 2196720, Note_on_c, 1, 77, 0
3, 2196720, Note_on_c, 1, 75, 100
3, 2196840, Note_on_c, 1, 75, 0
3, 2196840, Note_on_c, 1, 74, 100
3, 2197080, Note_on_c, 1, 74, 0
3, 2197080, Note_on_c, 1, 73, 100
3, 2197320, Note_on_c, 1, 73, 0
3, 2197320, Note_on_c, 1, 72, 100
3, 2197440, Note_on_c, 1, 72, 0
3, 2197440, Note_on_c, 1, 74, 100
3, 2197455, Note_on_c, 1, 74, 0
3, 2197455, Note_on_c, 1, 72, 100
3, 2197500, Note_on_c, 1, 72, 0
3, 2197500, Note_on_c, 1, 71, 100
3, 2197560, Note_on_c, 1, 71, 0
3, 2197560, Note_on_c, 1, 72, 100
3, 2197680, Note_on_c, 1, 72, 0
3, 2197680, Note_on_c, 1, 72, 100
3, 2197740, Note_on_c, 1, 72, 0
3, 2197740, Note_on_c, 1, 80, 100
3, 2197980, Note_on_c, 1, 80, 0
3, 2197980, Note_on_c, 1, 79, 100
3, 2198040, Note_on_c, 1, 79, 0
3, 2198040, Note_on_c, 1, 77, 100
3, 2198100, Note_on_c, 1, 77, 0
3, 2198100, Note_on_c, 1, 75, 100
3, 2198160, Note_on_c, 1, 75, 0
3, 2198160, Note_on_c, 1, 73, 100
3, 2198280, Note_on_c, 1, 73, 0
3, 2198280, Note_on_c, 1, 72, 100
3, 2198520, Note_on_c, 1, 72, 0
3, 2198520, Note_on_c, 1, 71, 100
3, 2198760, Note_on_c, 1, 71, 0
3, 2198760, Note_on_c, 1, 70, 100
3, 2198880, Note_on_c, 1, 70, 0
3, 2198880, Note_on_c, 1, 72, 100
3, 2198895, Note_on_c, 1, 72, 0
3, 2198895, Note_on_c, 1, 70, 100
3, 2198940, Note_on_c, 1, 70, 0
3, 2198940, Note_on_c, 1, 69, 100
3, 2199000, Note_on_c, 1, 69, 0
3, 2199000, Note_on_c, 1, 70, 100
3, 2199120, Note_on_c, 1, 70, 0
3, 2199120, Note_on_c, 1, 78, 100
3, 2199240, Note_on_c, 1, 78, 0
3, 2199240, Note_on_c, 1, 79, 100
3, 2199480, Note_on_c, 1, 79, 0
3, 2199480, Note_on_c, 1, 73, 100
3, 2199720, Note_on_c, 1, 73, 0
3, 2199720, Note_on_c, 1, 74, 100
3, 2199960, Note_on_c, 1, 74, 0
3, 2199960, Note_on_c, 1, 67, 100
3, 2200080, Note_on_c, 1, 67, 0
3, 2200080, Note_on_c, 1, 67, 100
3, 2200200, Note_on_c, 1, 67, 0
3, 2200200, Note_on_c, 1, 69, 100
3, 2200260, Note_on_c, 1, 69, 0
3, 2200260, Note_on_c, 1, 70, 100
3, 2200320, Note_on_c, 1, 70, 0
3, 2200320, Note_on_c, 1, 69, 100
3, 2200560, Note_on_c, 1, 69, 0
3, 2201640, Note_on_c, 1, 62, 100
3, 2201760, Note_on_c, 1, 62, 0
3, 2201760, Note_on_c, 1, 63, 100
3, 2201775, Note_on_c, 1, 63, 0
3, 2201775, Note_on_c, 1, 62, 100
3, 2201820, Note_on_c, 1, 62, 0
3, 2201820, Note_on_c, 1, 61, 100
3, 2201880, Note_on_c, 1, 61, 0
3, 2201880, Note_on_c, 1, 62, 100
3, 2202000, Note_on_c, 1, 62, 0
3, 2202000, Note_on_c, 1, 62, 100
3, 2202060, Note_on_c, 1, 62, 0
3, 2202060, Note_on_c, 1, 74, 100
3, 2202300, Note_on_c, 1, 74, 0
3, 2202300, Note_on_c, 1, 72, 100
3, 2202360, Note_on_c, 1, 72, 0
3, 2202360, Note_on_c, 1, 70, 100
3, 2202420, Note_on_c, 1, 70, 0
3, 2202420, Note_on_c, 1, 69, 100
3, 2202480, Note_on_c, 1, 69, 0
3, 2202480, Note_on_c, 1, 67, 100
3, 2202540, Note_on_c, 1, 67, 0
3, 2202540, Note_on_c, 1, 65, 100
3, 2202600, Note_on_c, 1, 65, 0
3, 2202600, Note_on_c, 1, 68, 100
3, 2202780, Note_on_c, 1, 68, 0
3, 2202780, Note_on_c, 1, 62, 100
3, 2202840, Note_on_c, 1, 62, 0
3, 2202840, Note_on_c, 1, 65, 100
3, 2203080, Note_on_c, 1, 65, 0
3, 2203080, Note_on_c, 1, 63, 100
3, 2203200, Note_on_c, 1, 63, 0
3, 2203200, Note_on_c, 1, 65, 100
3, 2203215, Note_on_c, 1, 65, 0
3, 2203215, Note_on_c, 1, 63, 100
3, 2203260, Note_on_c, 1, 63, 0
3, 2203260, Note_on_c, 1, 62, 100
3, 2203320, Note_on_c, 1, 62, 0
3, 2203320, Note_on_c, 1, 63, 100
3, 2203440, Note_on_c, 1, 63, 0
3, 2203440, Note_on_c, 1, 63, 100
3, 2203500, Note_on_c, 1, 63, 0
3, 2203500, Note_on_c, 1, 75, 100
3, 2203740, Note_on_c, 1, 75, 0
3, 2203740, Note_on_c, 1, 74, 100
3, 2203800, Note_on_c, 1, 74, 0
3, 2203800, Note_on_c, 1, 72, 100
3, 2203860, Note_on_c, 1, 72, 0
3, 2203860, Note_on_c, 1, 70, 100
3, 2203920, Note_on_c, 1, 70, 0
3, 2203920, Note_on_c, 1, 69, 100
3, 2203980, Note_on_c, 1, 69, 0
3, 2203980, Note_on_c, 1, 67, 100
3, 2204040, Note_on_c, 1, 67, 0
3, 2204040, Note_on_c, 1, 70, 100
3, 2204220, Note_on_c, 1, 70, 0
3, 2204220, Note_on_c, 1, 64, 100
3, 2204280, Note_on_c, 1, 64, 0
3, 2204280, Note_on_c, 1, 67, 100
3, 2204520, Note_on_c, 1, 67, 0
3, 2204520, Note_on_c, 1, 66, 100
3, 2204640, Note_on_c, 1, 66, 0
3, 2204640, Note_on_c, 1, 67, 100
3, 2204655, Note_on_c, 1, 67, 0
3, 2204655, Note_on_c, 1, 66, 100
3, 2204700, Note_on_c, 1, 66, 0
3, 2204700, Note_on_c, 1, 64, 100
3, 2204760, Note_on_c, 1, 64, 0
3, 2204760, Note_on_c, 1, 66, 100
3, 2204880, Note_on_c, 1, 66, 0
3, 2204880, Note_on_c, 1, 71, 100
3, 2204960, Note_on_c, 1, 71, 0
3, 2204960, Note_on_c, 1, 72, 100
3, 2205040, Note_on_c, 1, 72, 0
3, 2205040, Note_on_c, 1, 75, 100
3, 2205120, Note_on_c, 1, 75, 0
3, 2205120, Note_on_c, 1, 73, 100
3, 2205200, Note_on_c, 1, 73, 0
3, 2205200, Note_on_c, 1, 74, 100
3, 2205280, Note_on_c, 1, 74, 0
3, 2205280, Note_on_c, 1, 66, 100
3, 2205360, Note_on_c, 1, 66, 0
3, 2205360, Note_on_c, 1, 70, 100
3, 2205440, Note_on_c, 1, 70, 0
3, 2205440, Note_on_c, 1, 69, 100
3, 2205520, Note_on_c, 1, 69, 0
3, 2205520, Note_on_c, 1, 62, 100
3, 2205600, Note_on_c, 1, 62, 0
3, 2205600, Note_on_c, 1, 63, 100
3, 2205680, Note_on_c, 1, 63, 0
3, 2205680, Note_on_c, 1, 59, 100
3, 2205760, Note_on_c, 1, 59, 0
3, 2205760, Note_on_c, 1, 60, 100
3, 2205960, Note_on_c, 1, 60, 0
3, 2205960, Note_on_c, 1, 58, 100
3, 2206020, Note_on_c, 1, 58, 0
3, 2206020, Note_on_c, 1, 57, 100
3, 2206080, Note_on_c, 1, 57, 0
3, 2206080, Note_on_c, 1, 58, 100
3, 2206320, Note_on_c, 1, 58, 0
3, 2207340, Note_on_c, 1, 62, 100
3, 2207400, Note_on_c, 1, 62, 0
3, 2207400, Note_on_c, 1, 64, 100
3, 2207460, Note_on_c, 1, 64, 0
3, 2207460, Note_on_c, 1, 66, 100
3, 2207520, Note_on_c, 1, 66, 0
3, 2207520, Note_on_c, 1, 67, 100
3, 2207580, Note_on_c, 1, 67, 0
3, 2207580, Note_on_c, 1, 70, 100
3, 2207640, Note_on_c, 1, 70, 0
3, 2207640, Note_on_c, 1, 69, 100
3, 2207880, Note_on_c, 1, 69, 0
3, 2207880, Note_on_c, 1, 70, 100
3, 2208120, Note_on_c, 1, 70, 0
3, 2208120, Note_on_c, 1, 71, 100
3, 2208240, Note_on_c, 1, 71, 0
3, 2208240, Note_on_c, 1, 72, 100
3, 2208360, Note_on_c, 1, 72, 0
3, 2208360, Note_on_c, 1, 73, 100
3, 2208600, Note_on_c, 1, 73, 0
3, 2208600, Note_on_c, 1, 74, 100
3, 2208720, Note_on_c, 1, 74, 0
3, 2208720, Note_on_c, 1, 75, 100
3, 2208840, Note_on_c, 1, 75, 0
3, 2208840, Note_on_c, 1, 76, 100
3, 2209020, Note_on_c, 1, 76, 0
3, 2209020, Note_on_c, 1, 82, 100
3, 2209080, Note_on_c, 1, 82, 0
3, 2209080, Note_on_c, 1, 81, 100
3, 2209140, Note_on_c, 1, 81, 0
3, 2209140, Note_on_c, 1, 79, 100
3, 2209200, Note_on_c, 1, 79, 0
3, 2209200, Note_on_c, 1, 78, 100
3, 2209260, Note_on_c, 1, 78, 0
3, 2209260, Note_on_c, 1, 76, 100
3, 2209320, Note_on_c, 1, 76, 0
3, 2209320, Note_on_c, 1, 74, 100
3, 2209560, Note_on_c, 1, 74, 0
3, 2209560, Note_on_c, 1, 74, 100
3, 2209680, Note_on_c, 1, 74, 0
3, 2209680, Note_on_c, 1, 86, 100
3, 2209800, Note_on_c, 1, 86, 0
3, 2209800, Note_on_c, 1, 85, 100
3, 2210040, Note_on_c, 1, 85, 0
3, 2210040, Note_on_c, 1, 84, 100
3, 2210160, Note_on_c, 1, 84, 0
3, 2210160, Note_on_c, 1, 83, 100
3, 2210280, Note_on_c, 1, 83, 0
3, 2210280, Note_on_c, 1, 82, 100
3, 2210460, Note_on_c, 1, 82, 0
3, 2210460, Note_on_c, 1, 81, 100
3, 2210520, Note_on_c, 1, 81, 0
3, 2210520, Note_on_c, 1, 80, 100
3, 2210760, Note_on_c, 1, 80, 0
3, 2210760, Note_on_c, 1, 81, 100
3, 2210940, Note_on_c, 1, 81, 0
3, 2210940, Note_on_c, 1, 74, 100
3, 2211000, Note_on_c, 1, 74, 0
3, 2211000, Note_on_c, 1, 72, 100
3, 2211060, Note_on_c, 1, 72, 0
3, 2211060, Note_on_c, 1, 70, 100
3, 2211120, Note_on_c, 1, 70, 0
3, 2211120, Note_on_c, 1, 72, 100
3, 2211180, Note_on_c, 1, 72, 0
3, 2211180, Note_on_c, 1, 69, 100
3, 2211240, Note_on_c, 1, 69, 0
3, 2211240, Note_on_c, 1, 70, 100
3, 2211300, Note_on_c, 1, 70, 0
3, 2211300, Note_on_c, 1, 67, 100
3, 2211360, Note_on_c, 1, 67, 0
3, 2211360, Note_on_c, 1, 65, 100
3, 2211420, Note_on_c, 1, 65, 0
3, 2211420, Note_on_c, 1, 64, 100
3, 2211480, Note_on_c, 1, 64, 0
3, 2211480, Note_on_c, 1, 65, 100
3, 2211540, Note_on_c, 1, 65, 0
3, 2211540, Note_on_c, 1, 74, 100
3, 2211600, Note_on_c, 1, 74, 0
3, 2211600, Note_on_c, 1, 67, 100
3, 2211615, Note_on_c, 1, 67, 0
3, 2211615, Note_on_c, 1, 65, 100
3, 2211630, Note_on_c, 1, 65, 0
3, 2211630, Note_on_c, 1, 67, 100
3, 2211645, Note_on_c, 1, 67, 0
3, 2211645, Note_on_c, 1, 65, 100
3, 2211660, Note_on_c, 1, 65, 0
3, 2211660, Note_on_c, 1, 64, 100
3, 2211720, Note_on_c, 1, 64, 0
3, 2211720, Note_on_c, 1, 65, 100
3, 2211840, Note_on_c, 1, 65, 0
3, 2211840, Note_on_c, 1, 64, 100
3, 2212080, Note_on_c, 1, 64, 0
3, 2212140, Note_on_c, 1, 62, 100
3, 2212200, Note_on_c, 1, 62, 0
3, 2212200, Note_on_c, 1, 61, 100
3, 2212260, Note_on_c, 1, 61, 0
3, 2212260, Note_on_c, 1, 62, 100
3, 2212320, Note_on_c, 1, 62, 0
3, 2212320, Note_on_c, 1, 64, 100
3, 2212380, Note_on_c, 1, 64, 0
3, 2212380, Note_on_c, 1, 65, 100
3, 2212440, Note_on_c, 1, 65, 0
3, 2212440, Note_on_c, 1, 67, 100
3, 2212500, Note_on_c, 1, 67, 0
3, 2212500, Note_on_c, 1, 69, 100
3, 2212560, Note_on_c, 1, 69, 0
3, 2212560, Note_on_c, 1, 70, 100
3, 2212620, Note_on_c, 1, 70, 0
3, 2212620, Note_on_c, 1, 69, 100
3, 2212680, Note_on_c, 1, 69, 0
3, 2212680, Note_on_c, 1, 74, 100
3, 2212860, Note_on_c, 1, 74, 0
3, 2212860, Note_on_c, 1, 73, 100
3, 2212920, Note_on_c, 1, 73, 0
3, 2212920, Note_on_c, 1, 76, 100
3, 2213160, Note_on_c, 1, 76, 0
3, 2213160, Note_on_c, 1, 69, 100
3, 2213280, Note_on_c, 1, 69, 0
3, 2213280, Note_on_c, 1, 70, 100
3, 2213295, Note_on_c, 1, 70, 0
3, 2213295, Note_on_c, 1, 69, 100
3, 2213340, Note_on_c, 1, 69, 0
3, 2213340, Note_on_c, 1, 68, 100
3, 2213400, Note_on_c, 1, 68, 0
3, 2213400, Note_on_c, 1, 69, 100
3, 2213520, Note_on_c, 1, 69, 0
3, 2213520, Note_on_c, 1, 69, 100
3, 2213580, Note_on_c, 1, 69, 0
3, 2213580, Note_on_c, 1, 81, 100
3, 2213820, Note_on_c, 1, 81, 0
3, 2213820, Note_on_c, 1, 82, 100
3, 2213880, Note_on_c, 1, 82, 0
3, 2213880, Note_on_c, 1, 81, 100
3, 2213940, Note_on_c, 1, 81, 0
3, 2213940, Note_on_c, 1, 80, 100
3, 2214000, Note_on_c, 1, 80, 0
3, 2214000, Note_on_c, 1, 81, 100
3, 2214045, Note_on_c, 1, 81, 0
3, 2214060, Note_on_c, 1, 74, 100
3, 2214120, Note_on_c, 1, 74, 0
3, 2214120, Note_on_c, 1, 72, 100
3, 2214180, Note_on_c, 1, 72, 0
3, 2214180, Note_on_c, 1, 70, 100
3, 2214240, Note_on_c, 1, 70, 0
3, 2214240, Note_on_c, 1, 72, 100
3, 2214285, Note_on_c, 1, 72, 0
3, 2214300, Note_on_c, 1, 72, 100
3, 2214360, Note_on_c, 1, 72, 0
3, 2214360, Note_on_c, 1, 70, 100
3, 2214420, Note_on_c, 1, 70, 0
3, 2214420, Note_on_c, 1, 69, 100
3, 2214480, Note_on_c, 1, 69, 0
3, 2214480, Note_on_c, 1, 69, 100
3, 2214600, Note_on_c, 1, 69, 0
3, 2214600, Note_on_c, 1, 70, 100
3, 2214720, Note_on_c, 1, 70, 0
3, 2214720, Note_on_c, 1, 72, 100
3, 2214735, Note_on_c, 1, 72, 0
3, 2214735, Note_on_c, 1, 70, 100
3, 2214780, Note_on_c, 1, 70, 0
3, 2214780, Note_on_c, 1, 69, 100
3, 2214840, Note_on_c, 1, 69, 0
3, 2214840, Note_on_c, 1, 70, 100
3, 2214960, Note_on_c, 1, 70, 0
3, 2214960, Note_on_c, 1, 70, 100
3, 2215020, Note_on_c, 1, 70, 0
3, 2215020, Note_on_c, 1, 82, 100
3, 2215260, Note_on_c, 1, 82, 0
3, 2215260, Note_on_c, 1, 75, 100
3, 2215320, Note_on_c, 1, 75, 0
3, 2215320, Note_on_c, 1, 74, 100
3, 2215380, Note_on_c, 1, 74, 0
3, 2215380, Note_on_c, 1, 73, 100
3, 2215440, Note_on_c, 1, 73, 0
3, 2215440, Note_on_c, 1, 74, 100
3, 2215500, Note_on_c, 1, 74, 0
3, 2215500, Note_on_c, 1, 84, 100
3, 2215560, Note_on_c, 1, 84, 0
3, 2215560, Note_on_c, 1, 83, 100
3, 2215800, Note_on_c, 1, 83, 0
3, 2215800, Note_on_c, 1, 74, 100
3, 2215920, Note_on_c, 1, 74, 0
3, 2215920, Note_on_c, 1, 73, 100
3, 2216040, Note_on_c, 1, 73, 0
3, 2216040, Note_on_c, 1, 70, 100
3, 2216280, Note_on_c, 1, 70, 0
3, 2216280, Note_on_c, 1, 69, 100
3, 2216400, Note_on_c, 1, 69, 0
3, 2216400, Note_on_c, 1, 75, 100
3, 2216520, Note_on_c, 1, 75, 0
3, 2216520, Note_on_c, 1, 74, 100
3, 2216700, Note_on_c, 1, 74, 0
3, 2216700, Note_on_c, 1, 73, 100
3, 2216760, Note_on_c, 1, 73, 0
3, 2216760, Note_on_c, 1, 76, 100
3, 2216820, Note_on_c, 1, 76, 0
3, 2216820, Note_on_c, 1, 79, 100
3, 2216880, Note_on_c, 1, 79, 0
3, 2216880, Note_on_c, 1, 82, 100
3, 2217000, Note_on_c, 1, 82, 0
3, 2217000, Note_on_c, 1, 81, 100
3, 2217150, Note_on_c, 1, 81, 0
3, 2217150, Note_on_c, 1, 79, 100
3, 2217180, Note_on_c, 1, 79, 0
3, 2217180, Note_on_c, 1, 77, 100
3, 2217210, Note_on_c, 1, 77, 0
3, 2217210, Note_on_c, 1, 76, 100
3, 2217240, Note_on_c, 1, 76, 0
3, 2217240, Note_on_c, 1, 74, 100
3, 2217300, Note_on_c, 1, 74, 0
3, 2217300, Note_on_c, 1, 73, 100
3, 2217360, Note_on_c, 1, 73, 0
3, 2217360, Note_on_c, 1, 73, 100
3, 2217600, Note_on_c, 1, 73, 0
3, 2217600, Note_on_c, 1, 74, 100
3, 2217840, Note_on_c, 1, 74, 0
3, 2218920, Note_on_c, 1, 74, 100
3, 2219040, Note_on_c, 1, 74, 0
3, 2219040, Note_on_c, 1, 75, 100
3, 2219055, Note_on_c, 1, 75, 0
3, 2219055, Note_on_c, 1, 74, 100
3, 2219100, Note_on_c, 1, 74, 0
3, 2219100, Note_on_c, 1, 73, 100
3, 2219160, Note_on_c, 1, 73, 0
3, 2219160, Note_on_c, 1, 74, 100
3, 2219280, Note_on_c, 1, 74, 0
3, 2219280, Note_on_c, 1, 74, 100
3, 2219340, Note_on_c, 1, 74, 0
3, 2219340, Note_on_c, 1, 82, 100
3, 2219580, Note_on_c, 1, 82, 0
3, 2219580, Note_on_c, 1, 81, 100
3, 2219640, Note_on_c, 1, 81, 0
3, 2219640, Note_on_c, 1, 79, 100
3, 2219700, Note_on_c, 1, 79, 0
3, 2219700, Note_on_c, 1, 77, 100
3, 2219760, Note_on_c, 1, 77, 0
3, 2219760, Note_on_c, 1, 75, 100
3, 2219880, Note_on_c, 1, 75, 0
3, 2219880, Note_on_c, 1, 74, 100
3, 2220120, Note_on_c, 1, 74, 0
3, 2220120, Note_on_c, 1, 73, 100
3, 2220360, Note_on_c, 1, 73, 0
3, 2220360, Note_on_c, 1, 72, 100
3, 2220480, Note_on_c, 1, 72, 0
3, 2220480, Note_on_c, 1, 74, 100
3, 2220495, Note_on_c, 1, 74, 0
3, 2220495, Note_on_c, 1, 72, 100
3, 2220540, Note_on_c, 1, 72, 0
3, 2220540, Note_on_c, 1, 71, 100
3, 2220600, Note_on_c, 1, 71, 0
3, 2220600, Note_on_c, 1, 72, 100
3, 2220720, Note_on_c, 1, 72, 0
3, 2220720, Note_on_c, 1, 72, 100
3, 2220780, Note_on_c, 1, 72, 0
3, 2220780, Note_on_c, 1, 80, 100
3, 2221020, Note_on_c, 1, 80, 0
3, 2221020, Note_on_c, 1, 79, 100
3, 2221080, Note_on_c, 1, 79, 0
3, 2221080, Note_on_c, 1, 77, 100
3, 2221140, Note_on_c, 1, 77, 0
3, 2221140, Note_on_c, 1, 75, 100
3, 2221200, Note_on_c, 1, 75, 0
3, 2221200, Note_on_c, 1, 73, 100
3, 2221320, Note_on_c, 1, 73, 0
3, 2221320, Note_on_c, 1, 72, 100
3, 2221560, Note_on_c, 1, 72, 0
3, 2221560, Note_on_c, 1, 71, 100
3, 2221800, Note_on_c, 1, 71, 0
3, 2221800, Note_on_c, 1, 70, 100
3, 2221920, Note_on_c, 1, 70, 0
3, 2221920, Note_on_c, 1, 72, 100
3, 2221935, Note_on_c, 1, 72, 0
3, 2221935, Note_on_c, 1, 70, 100
3, 2221980, Note_on_c, 1, 70, 0
3, 2221980, Note_on_c, 1, 69, 100
3, 2222040, Note_on_c, 1, 69, 0
3, 2222040, Note_on_c, 1, 70, 100
3, 2222160, Note_on_c, 1, 70, 0
3, 2222160, Note_on_c, 1, 78, 100
3, 2222280, Note_on_c, 1, 78, 0
3, 2222280, Note_on_c, 1, 79, 100
3, 2222520, Note_on_c, 1, 79, 0
3, 2222520, Note_on_c, 1, 73, 100
3, 2222760, Note_on_c, 1, 73, 0
3, 2222760, Note_on_c, 1, 74, 100
3, 2223000, Note_on_c, 1, 74, 0
3, 2223000, Note_on_c, 1, 67, 100
3, 2223120, Note_on_c, 1, 67, 0
3, 2223120, Note_on_c, 1, 67, 100
3, 2223240, Note_on_c, 1, 67, 0
3, 2223240, Note_on_c, 1, 69, 100
3, 2223300, Note_on_c, 1, 69, 0
3, 2223300, Note_on_c, 1, 70, 100
3, 2223360, Note_on_c, 1, 70, 0
3, 2223360, Note_on_c, 1, 69, 100
3, 2223600, Note_on_c, 1, 69, 0
3, 2224680, Note_on_c, 1, 62, 100
3, 2224800, Note_on_c, 1, 62, 0
3, 2224800, Note_on_c, 1, 63, 100
3, 2224815, Note_on_c, 1, 63, 0
3, 2224815, Note_on_c, 1, 62, 100
3, 2224860, Note_on_c, 1, 62, 0
3, 2224860, Note_on_c, 1, 61, 100
3, 2224920, Note_on_c, 1, 61, 0
3, 2224920, Note_on_c, 1, 62, 100
3, 2225040, Note_on_c, 1, 62, 0
3, 2225040, Note_on_c, 1, 62, 100
3, 2225100, Note_on_c, 1, 62, 0
3, 2225100, Note_on_c, 1, 74, 100
3, 2225340, Note_on_c, 1, 74, 0
3, 2225340, Note_on_c, 1, 72, 100
3, 2225400, Note_on_c, 1, 72, 0
3, 2225400, Note_on_c, 1, 70, 100
3, 2225460, Note_on_c, 1, 70, 0
3, 2225460, Note_on_c, 1, 69, 100
3, 2225520, Note_on_c, 1, 69, 0
3, 2225520, Note_on_c, 1, 67, 100
3, 2225580, Note_on_c, 1, 67, 0
3, 2225580, Note_on_c, 1, 65, 100
3, 2225640, Note_on_c, 1, 65, 0
3, 2225640, Note_on_c, 1, 68, 100
3, 2225820, Note_on_c, 1, 68, 0
3, 2225820, Note_on_c, 1, 62, 100
3, 2225880, Note_on_c, 1, 62, 0
3, 2225880, Note_on_c, 1, 65, 100
3, 2226120, Note_on_c, 1, 65, 0
3, 2226120, Note_on_c, 1, 63, 100
3, 2226240, Note_on_c, 1, 63, 0
3, 2226240, Note_on_c, 1, 65, 100
3, 2226255, Note_on_c, 1, 65, 0
3, 2226255, Note_on_c, 1, 63, 100
3, 2226300, Note_on_c, 1, 63, 0
3, 2226300, Note_on_c, 1, 62, 100
3, 2226360, Note_on_c, 1, 62, 0
3, 2226360, Note_on_c, 1, 63, 100
3, 2226480, Note_on_c, 1, 63, 0
3, 2226480, Note_on_c, 1, 63, 100
3, 2226540, Note_on_c, 1, 63, 0
3, 2226540, Note_on_c, 1, 75, 100
3, 2226780, Note_on_c, 1, 75, 0
3, 2226780, Note_on_c, 1, 74, 100
3, 2226840, Note_on_c, 1, 74, 0
3, 2226840, Note_on_c, 1, 72, 100
3, 2226900, Note_on_c, 1, 72, 0
3, 2226900, Note_on_c, 1, 70, 100
3, 2226960, Note_on_c, 1, 70, 0
3, 2226960, Note_on_c, 1, 69, 100
3, 2227020, Note_on_c, 1, 69, 0
3, 2227020, Note_on_c, 1, 67, 100
3, 2227080, Note_on_c, 1, 67, 0
3, 2227080, Note_on_c, 1, 70, 100
3, 2227260, Note_on_c, 1, 70, 0
3, 2227260, Note_on_c, 1, 64, 100
3, 2227320, Note_on_c, 1, 64, 0
3, 2227320, Note_on_c, 1, 67, 100
3, 2227560, Note_on_c, 1, 67, 0
3, 2227560, Note_on_c, 1, 66, 100
3, 2227680, Note_on_c, 1, 66, 0
3, 2227680, Note_on_c, 1, 67, 100
3, 2227695, Note_on_c, 1, 67, 0
3, 2227695, Note_on_c, 1, 66, 100
3, 2227740, Note_on_c, 1, 66, 0
3, 2227740, Note_on_c, 1, 64, 100
3, 2227800, Note_on_c, 1, 64, 0
3, 2227800, Note_on_c, 1, 66, 100
3, 2227920, Note_on_c, 1, 66, 0
3, 2227920, Note_on_c, 1, 71, 100
3, 2228000, Note_on_c, 1, 71, 0
3, 2228000, Note_on_c, 1, 72, 100
3, 2228080, Note_on_c, 1, 72, 0
3, 2228080, Note_on_c, 1, 75, 100
3, 2228160, Note_on_c, 1, 75, 0
3, 2228160, Note_on_c, 1, 73, 100
3, 2228240, Note_on_c, 1, 73, 0
3, 2228240, Note_on_c, 1, 74, 100
3, 2228320, Note_on_c, 1, 74, 0
3, 2228320, Note_on_c, 1, 66, 100
3, 2228400, Note_on_c, 1, 66, 0
3, 2228400, Note_on_c, 1, 70, 100
3, 2228480, Note_on_c, 1, 70, 0
3, 2228480, Note_on_c, 1, 69, 100
3, 2228560, Note_on_c, 1, 69, 0
3, 2228560, Note_on_c, 1, 62, 100
3, 2228640, Note_on_c, 1, 62, 0
3, 2228640, Note_on_c, 1, 63, 100
3, 2228720, Note_on_c, 1, 63, 0
3, 2228720, Note_on_c, 1, 59, 100
3, 2228800, Note_on_c, 1, 59, 0
3, 2228800, Note_on_c, 1, 60, 100
3, 2229000, Note_on_c, 1, 60, 0
3, 2229000, Note_on_c, 1, 58, 100
3, 2229060, Note_on_c, 1, 58, 0
3, 2229060, Note_on_c, 1, 57, 100
3, 2229120, Note_on_c, 1, 57, 0
3, 2229120, Note_on_c, 1, 58, 100
3, 2229360, Note_on_c, 1, 58, 0
3, 2230380, Note_on_c, 1, 62, 100
3, 2230440, Note_on_c, 1, 62, 0
3, 2230440, Note_on_c, 1, 64, 100
3, 2230500, Note_on_c, 1, 64, 0
3, 2230500, Note_on_c, 1, 66, 100
3, 2230560, Note_on_c, 1, 66, 0
3, 2230560, Note_on_c, 1, 67, 100
3, 2230620, Note_on_c, 1, 67, 0
3, 2230620, Note_on_c, 1, 70, 100
3, 2230680, Note_on_c, 1, 70, 0
3, 2230680, Note_on_c, 1, 69, 100
3, 2230920, Note_on_c, 1, 69, 0
3, 2230920, Note_on_c, 1, 70, 100
3, 2231160, Note_on_c, 1, 70, 0
3, 2231160, Note_on_c, 1, 71, 100
3, 2231280, Note_on_c, 1, 71, 0
3, 2231280, Note_on_c, 1, 72, 100
3, 2231400, Note_on_c, 1, 72, 0
3, 2231400, Note_on_c, 1, 73, 100
3, 2231640, Note_on_c, 1, 73, 0
3, 2231640, Note_on_c, 1, 74, 100
3, 2231760, Note_on_c, 1, 74, 0
3, 2231760, Note_on_c, 1, 75, 100
3, 2231880, Note_on_c, 1, 75, 0
3, 2231880, Note_on_c, 1, 76, 100
3, 2232060, Note_on_c, 1, 76, 0
3, 2232060, Note_on_c, 1, 82, 100
3, 2232120, Note_on_c, 1, 82, 0
3, 2232120, Note_on_c, 1, 81, 100
3, 2232180, Note_on_c, 1, 81, 0
3, 2232180, Note_on_c, 1, 79, 100
3, 2232240, Note_on_c, 1, 79, 0
3, 2232240, Note_on_c, 1, 78, 100
3, 2232300, Note_on_c, 1, 78, 0
3, 2232300, Note_on_c, 1, 76, 100
3, 2232360, Note_on_c, 1, 76, 0
3, 2232360, Note_on_c, 1, 74, 100
3, 2232600, Note_on_c, 1, 74, 0
3, 2232600, Note_on_c, 1, 74, 100
3, 2232720, Note_on_c, 1, 74, 0
3, 2232720, Note_on_c, 1, 86, 100
3, 2232840, Note_on_c, 1, 86, 0
3, 2232840, Note_on_c, 1, 85, 100
3, 2233080, Note_on_c, 1, 85, 0
3, 2233080, Note_on_c, 1, 84, 100
3, 2233200, Note_on_c, 1, 84, 0
3, 2233200, Note_on_c, 1, 83, 100
3, 2233320, Note_on_c, 1, 83, 0
3, 2233320, Note_on_c, 1, 82, 100
3, 2233500, Note_on_c, 1, 82, 0
3, 2233500, Note_on_c, 1, 81, 100
3, 2233560, Note_on_c, 1, 81, 0
3, 2233560, Note_on_c, 1, 80, 100
3, 2233800, Note_on_c, 1, 80, 0
3, 2233800, Note_on_c, 1, 81, 100
3, 2233980, Note_on_c, 1, 81, 0
3, 2233980, Note_on_c, 1, 74, 100
3, 2234040, Note_on_c, 1, 74, 0
3, 2234040, Note_on_c, 1, 72, 100
3, 2234100, Note_on_c, 1, 72, 0
3, 2234100, Note_on_c, 1, 70, 100
3, 2234160, Note_on_c, 1, 70, 0
3, 2234160, Note_on_c, 1, 72, 100
3, 2234220, Note_on_c, 1, 72, 0
3, 2234220, Note_on_c, 1, 69, 100
3, 2234280, Note_on_c, 1, 69, 0
3, 2234280, Note_on_c, 1, 70, 100
3, 2234340, Note_on_c, 1, 70, 0
3, 2234340, Note_on_c, 1, 67, 100
3, 2234400, Note_on_c, 1, 67, 0
3, 2234400, Note_on_c, 1, 65, 100
3, 2234460, Note_on_c, 1, 65, 0
3, 2234460, Note_on_c, 1, 64, 100
3, 2234520, Note_on_c, 1, 64, 0
3, 2234520, Note_on_c, 1, 65, 100
3, 2234580, Note_on_c, 1, 65, 0
3, 2234580, Note_on_c, 1, 74, 100
3, 2234640, Note_on_c, 1, 74, 0
3, 2234640, Note_on_c, 1, 67, 100
3, 2234655, Note_on_c, 1, 67, 0
3, 2234655, Note_on_c, 1, 65, 100
3, 2234670, Note_on_c, 1, 65, 0
3, 2234670, Note_on_c, 1, 67, 100
3, 2234685, Note_on_c, 1, 67, 0
3, 2234685, Note_on_c, 1, 65, 100
3, 2234700, Note_on_c, 1, 65, 0
3, 2234700, Note_on_c, 1, 64, 100
3, 2234760, Note_on_c, 1, 64, 0
3, 2234760, Note_on_c, 1, 65, 100
3, 2234880, Note_on_c, 1, 65, 0
3, 2234880, Note_on_c, 1, 64, 100
3, 2235120, Note_on_c, 1, 64, 0
3, 2235180, Note_on_c, 1, 62, 100
3, 2235240, Note_on_c, 1, 62, 0
3, 2235240, Note_on_c, 1, 61, 100
3, 2235300, Note_on_c, 1, 61, 0
3, 2235300, Note_on_c, 1, 62, 100
3, 2235360, Note_on_c, 1, 62, 0
3, 2235360, Note_on_c, 1, 64, 100
3, 2235420, Note_on_c, 1, 64, 0
3, 2235420, Note_on_c, 1, 65, 100
3, 2235480, Note_on_c, 1, 65, 0
3, 2235480, Note_on_c, 1, 67, 100
3, 2235540, Note_on_c, 1, 67, 0
3, 2235540, Note_on_c, 1, 69, 100
3, 2235600, Note_on_c, 1, 69, 0
3, 2235600, Note_on_c, 1, 70, 100
3, 2235660, Note_on_c, 1, 70, 0
3, 2235660, Note_on_c, 1, 69, 100
3, 2235720, Note_on_c, 1, 69, 0
3, 2235720, Note_on_c, 1, 74, 100
3, 2235900, Note_on_c, 1, 74, 0
3, 2235900, Note_on_c, 1, 73, 100
3, 2235960, Note_on_c, 1, 73, 0
3, 2235960, Note_on_c, 1, 76, 100
3, 2236200, Note_on_c, 1, 76, 0
3, 2236200, Note_on_c, 1, 69, 100
3, 2236320, Note_on_c, 1, 69, 0
3, 2236320, Note_on_c, 1, 70, 100
3, 2236335, Note_on_c, 1, 70, 0
3, 2236335, Note_on_c, 1, 69, 100
3, 2236380, Note_on_c, 1, 69, 0
3, 2236380, Note_on_c, 1, 68, 100
3, 2236440, Note_on_c, 1, 68, 0
3, 2236440, Note_on_c, 1, 69, 100
3, 2236560, Note_on_c, 1, 69, 0
3, 2236560, Note_on_c, 1, 69, 100
3, 2236620, Note_on_c, 1, 69, 0
3, 2236620, Note_on_c, 1, 81, 100
3, 2236860, Note_on_c, 1, 81, 0
3, 2236860, Note_on_c, 1, 82, 100
3, 2236920, Note_on_c, 1, 82, 0
3, 2236920, Note_on_c, 1, 81, 100
3, 2236980, Note_on_c, 1, 81, 0
3, 2236980, Note_on_c, 1, 80, 100
3, 2237040, Note_on_c, 1, 80, 0
3, 2237040, Note_on_c, 1, 81, 100
3, 2237085, Note_on_c, 1, 81, 0
3, 2237100, Note_on_c, 1, 74, 100
3, 2237160, Note_on_c, 1, 74, 0
3, 2237160, Note_on_c, 1, 72, 100
3, 2237220, Note_on_c, 1, 72, 0
3, 2237220, Note_on_c, 1, 70, 100
3, 2237280, Note_on_c, 1, 70, 0
3, 2237280, Note_on_c, 1, 72, 100
3, 2237325, Note_on_c, 1, 72, 0
3, 2237340, Note_on_c, 1, 72, 100
3, 2237400, Note_on_c, 1, 72, 0
3, 2237400, Note_on_c, 1, 70, 100
3, 2237460, Note_on_c, 1, 70, 0
3, 2237460, Note_on_c, 1, 69, 100
3, 2237520, Note_on_c, 1, 69, 0
3, 2237520, Note_on_c, 1, 69, 100
3, 2237640, Note_on_c, 1, 69, 0
3, 2237640, Note_on_c, 1, 70, 100
3, 2237760, Note_on_c, 1, 70, 0
3, 2237760, Note_on_c, 1, 72, 100
3, 2237775, Note_on_c, 1, 72, 0
3, 2237775, Note_on_c, 1, 70, 100
3, 2237820, Note_on_c, 1, 70, 0
3, 2237820, Note_on_c, 1, 69, 100
3, 2237880, Note_on_c, 1, 69, 0
3, 2237880, Note_on_c, 1, 70, 100
3, 2238000, Note_on_c, 1, 70, 0
3, 2238000, Note_on_c, 1, 70, 100
3, 2238060, Note_on_c, 1, 70, 0
3, 2238060, Note_on_c, 1, 82, 100
3, 2238300, Note_on_c, 1, 82, 0
3, 2238300, Note_on_c, 1, 75, 100
3, 2238360, Note_on_c, 1, 75, 0
3, 2238360, Note_on_c, 1, 74, 100
3, 2238420, Note_on_c, 1, 74, 0
3, 2238420, Note_on_c, 1, 73, 100
3, 2238480, Note_on_c, 1, 73, 0
3, 2238480, Note_on_c, 1, 74, 100
3, 2238540, Note_on_c, 1, 74, 0
3, 2238540, Note_on_c, 1, 84, 100
3, 2238600, Note_on_c, 1, 84, 0
3, 2238600, Note_on_c, 1, 83, 100
3, 2238840, Note_on_c, 1, 83, 0
3, 2238840, Note_on_c, 1, 74, 100
3, 2238960, Note_on_c, 1, 74, 0
3, 2238960, Note_on_c, 1, 73, 100
3, 2239080, Note_on_c, 1, 73, 0
3, 2239080, Note_on_c, 1, 70, 100
3, 2239320, Note_on_c, 1, 70, 0
3, 2239320, Note_on_c, 1, 69, 100
3, 2239440, Note_on_c, 1, 69, 0
3, 2239440, Note_on_c, 1, 75, 100
3, 2239560, Note_on_c, 1, 75, 0
3, 2239560, Note_on_c, 1, 74, 100
3, 2239740, Note_on_c, 1, 74, 0
3, 2239740, Note_on_c, 1, 73, 100
3, 2239800, Note_on_c, 1, 73, 0
3, 2239800, Note_on_c, 1, 76, 100
3, 2239860, Note_on_c, 1, 76, 0
3, 2239860, Note_on_c, 1, 79, 100
3, 2239920, Note_on_c, 1, 79, 0
3, 2239920, Note_on_c, 1, 82, 100
3, 2240040, Note_on_c, 1, 82, 0
3, 2240040, Note_on_c, 1, 81, 100
3, 2240190, Note_on_c, 1, 81, 0
3, 2240190, Note_on_c, 1, 79, 100
3, 2240220, Note_on_c, 1, 79, 0
3, 2240220, Note_on_c, 1, 77, 100
3, 2240250, Note_on_c, 1, 77, 0
3, 2240250, Note_on_c, 1, 76, 100
3, 2240280, Note_on_c, 1, 76, 0
3, 2240280, Note_on_c, 1, 74, 100
3, 2240340, Note_on_c, 1, 74, 0
3, 2240340, Note_on_c, 1, 73, 100
3, 2240400, Note_on_c, 1, 73, 0
3, 2240400, Note_on_c, 1, 73, 100
3, 2240640, Note_on_c, 1, 73, 0
3, 2240640, Note_on_c, 1, 74, 100
3, 2240880, Note_on_c, 1, 74, 0
3, 2241960, Note_on_c, 1, 81, 100
3, 2242080, Note_on_c, 1, 81, 0
3, 2242080, Note_on_c, 1, 82, 100
3, 2242095, Note_on_c, 1, 82, 0
3, 2242095, Note_on_c, 1, 81, 100
3, 2242140, Note_on_c, 1, 81, 0
3, 2242140, Note_on_c, 1, 80, 100
3, 2242200, Note_on_c, 1, 80, 0
3, 2242200, Note_on_c, 1, 81, 100
3, 2242320, Note_on_c, 1, 81, 0
3, 2242320, Note_on_c, 1, 75, 100
3, 2242440, Note_on_c, 1, 75, 0
3, 2242440, Note_on_c, 1, 74, 100
3, 2242620, Note_on_c, 1, 74, 0
3, 2242620, Note_on_c, 1, 76, 100
3, 2242680, Note_on_c, 1, 76, 0
3, 2242680, Note_on_c, 1, 78, 100
3, 2242740, Note_on_c, 1, 78, 0
3, 2242740, Note_on_c, 1, 79, 100
3, 2242800, Note_on_c, 1, 79, 0
3, 2242800, Note_on_c, 1, 81, 100
3, 2242860, Note_on_c, 1, 81, 0
3, 2242860, Note_on_c, 1, 72, 100
3, 2242920, Note_on_c, 1, 72, 0
3, 2242920, Note_on_c, 1, 75, 100
3, 2243160, Note_on_c, 1, 75, 0
3, 2243160, Note_on_c, 1, 74, 100
3, 2243400, Note_on_c, 1, 74, 0
3, 2243400, Note_on_c, 1, 77, 100
3, 2243520, Note_on_c, 1, 77, 0
3, 2243520, Note_on_c, 1, 79, 100
3, 2243535, Note_on_c, 1, 79, 0
3, 2243535, Note_on_c, 1, 77, 100
3, 2243580, Note_on_c, 1, 77, 0
3, 2243580, Note_on_c, 1, 75, 100
3, 2243640, Note_on_c, 1, 75, 0
3, 2243640, Note_on_c, 1, 77, 100
3, 2243760, Note_on_c, 1, 77, 0
3, 2243760, Note_on_c, 1, 68, 100
3, 2243880, Note_on_c, 1, 68, 0
3, 2243880, Note_on_c, 1, 67, 100
3, 2244060, Note_on_c, 1, 67, 0
3, 2244060, Note_on_c, 1, 69, 100
3, 2244120, Note_on_c, 1, 69, 0
3, 2244120, Note_on_c, 1, 71, 100
3, 2244180, Note_on_c, 1, 71, 0
3, 2244180, Note_on_c, 1, 72, 100
3, 2244240, Note_on_c, 1, 72, 0
3, 2244240, Note_on_c, 1, 74, 100
3, 2244300, Note_on_c, 1, 74, 0
3, 2244300, Note_on_c, 1, 65, 100
3, 2244360, Note_on_c, 1, 65, 0
3, 2244360, Note_on_c, 1, 68, 100
3, 2244600, Note_on_c, 1, 68, 0
3, 2244600, Note_on_c, 1, 67, 100
3, 2244840, Note_on_c, 1, 67, 0
3, 2244840, Note_on_c, 1, 72, 100
3, 2245080, Note_on_c, 1, 72, 0
3, 2245080, Note_on_c, 1, 71, 100
3, 2245200, Note_on_c, 1, 71, 0
3, 2245200, Note_on_c, 1, 72, 100
3, 2245260, Note_on_c, 1, 72, 0
3, 2245260, Note_on_c, 1, 75, 100
3, 2245320, Note_on_c, 1, 75, 0
3, 2245320, Note_on_c, 1, 73, 100
3, 2245560, Note_on_c, 1, 73, 0
3, 2245560, Note_on_c, 1, 72, 100
3, 2245740, Note_on_c, 1, 72, 0
3, 2245740, Note_on_c, 1, 77, 100
3, 2245800, Note_on_c, 1, 77, 0
3, 2245800, Note_on_c, 1, 75, 100
3, 2245980, Note_on_c, 1, 75, 0
3, 2245980, Note_on_c, 1, 77, 100
3, 2246040, Note_on_c, 1, 77, 0
3, 2246040, Note_on_c, 1, 75, 100
3, 2246100, Note_on_c, 1, 75, 0
3, 2246100, Note_on_c, 1, 74, 100
3, 2246160, Note_on_c, 1, 74, 0
3, 2246160, Note_on_c, 1, 75, 100
3, 2246220, Note_on_c, 1, 75, 0
3, 2246220, Note_on_c, 1, 81, 100
3, 2246280, Note_on_c, 1, 81, 0
3, 2246280, Note_on_c, 1, 82, 100
3, 2246400, Note_on_c, 1, 82, 0
3, 2246400, Note_on_c, 1, 75, 100
3, 2246520, Note_on_c, 1, 75, 0
3, 2246520, Note_on_c, 1, 74, 100
3, 2246640, Note_on_c, 1, 74, 0
3, 2247720, Note_on_c, 1, 70, 100
3, 2247840, Note_on_c, 1, 70, 0
3, 2247840, Note_on_c, 1, 71, 100
3, 2247855, Note_on_c, 1, 71, 0
3, 2247855, Note_on_c, 1, 70, 100
3, 2247900, Note_on_c, 1, 70, 0
3, 2247900, Note_on_c, 1, 68, 100
3, 2247960, Note_on_c, 1, 68, 0
3, 2247960, Note_on_c, 1, 70, 100
3, 2248080, Note_on_c, 1, 70, 0
3, 2248080, Note_on_c, 1, 70, 100
3, 2248200, Note_on_c, 1, 70, 0
3, 2248200, Note_on_c, 1, 82, 100
3, 2248380, Note_on_c, 1, 82, 0
3, 2248380, Note_on_c, 1, 83, 100
3, 2248440, Note_on_c, 1, 83, 0
3, 2248440, Note_on_c, 1, 82, 100
3, 2248500, Note_on_c, 1, 82, 0
3, 2248500, Note_on_c, 1, 80, 100
3, 2248560, Note_on_c, 1, 80, 0
3, 2248560, Note_on_c, 1, 82, 100
3, 2248680, Note_on_c, 1, 82, 0
3, 2248680, Note_on_c, 1, 73, 100
3, 2248860, Note_on_c, 1, 73, 0
3, 2248860, Note_on_c, 1, 71, 100
3, 2248920, Note_on_c, 1, 71, 0
3, 2248920, Note_on_c, 1, 70, 100
3, 2249160, Note_on_c, 1, 70, 0
3, 2249160, Note_on_c, 1, 71, 100
3, 2249280, Note_on_c, 1, 71, 0
3, 2249280, Note_on_c, 1, 73, 100
3, 2249295, Note_on_c, 1, 73, 0
3, 2249295, Note_on_c, 1, 71, 100
3, 2249340, Note_on_c, 1, 71, 0
3, 2249340, Note_on_c, 1, 70, 100
3, 2249400, Note_on_c, 1, 70, 0
3, 2249400, Note_on_c, 1, 71, 100
3, 2249520, Note_on_c, 1, 71, 0
3, 2249520, Note_on_c, 1, 71, 100
3, 2249640, Note_on_c, 1, 71, 0
3, 2249640, Note_on_c, 1, 83, 100
3, 2249820, Note_on_c, 1, 83, 0
3, 2249820, Note_on_c, 1, 76, 100
3, 2249880, Note_on_c, 1, 76, 0
3, 2249880, Note_on_c, 1, 75, 100
3, 2249940, Note_on_c, 1, 75, 0
3, 2249940, Note_on_c, 1, 74, 100
3, 2250000, Note_on_c, 1, 74, 0
3, 2250000, Note_on_c, 1, 75, 100
3, 2250060, Note_on_c, 1, 75, 0
3, 2250060, Note_on_c, 1, 85, 100
3, 2250120, Note_on_c, 1, 85, 0
3, 2250120, Note_on_c, 1, 84, 100
3, 2250360, Note_on_c, 1, 84, 0
3, 2250360, Note_on_c, 1, 75, 100
3, 2250480, Note_on_c, 1, 75, 0
3, 2250480, Note_on_c, 1, 74, 100
3, 2250600, Note_on_c, 1, 74, 0
3, 2250600, Note_on_c, 1, 71, 100
3, 2250840, Note_on_c, 1, 71, 0
3, 2250840, Note_on_c, 1, 70, 100
3, 2250960, Note_on_c, 1, 70, 0
3, 2250960, Note_on_c, 1, 76, 100
3, 2251080, Note_on_c, 1, 76, 0
3, 2251080, Note_on_c, 1, 75, 100
3, 2251260, Note_on_c, 1, 75, 0
3, 2251260, Note_on_c, 1, 74, 100
3, 2251320, Note_on_c, 1, 74, 0
3, 2251320, Note_on_c, 1, 77, 100
3, 2251380, Note_on_c, 1, 77, 0
3, 2251380, Note_on_c, 1, 80, 100
3, 2251440, Note_on_c, 1, 80, 0
3, 2251440, Note_on_c, 1, 83, 100
3, 2251560, Note_on_c, 1, 83, 0
3, 2251560, Note_on_c, 1, 82, 100
3, 2251710, Note_on_c, 1, 82, 0
3, 2251710, Note_on_c, 1, 80, 100
3, 2251740, Note_on_c, 1, 80, 0
3, 2251740, Note_on_c, 1, 78, 100
3, 2251770, Note_on_c, 1, 78, 0
3, 2251770, Note_on_c, 1, 77, 100
3, 2251800, Note_on_c, 1, 77, 0
3, 2251800, Note_on_c, 1, 75, 100
3, 2251860, Note_on_c, 1, 75, 0
3, 2251860, Note_on_c, 1, 74, 100
3, 2251920, Note_on_c, 1, 74, 0
3, 2251920, Note_on_c, 1, 74, 100
3, 2252160, Note_on_c, 1, 74, 0
3, 2252160, Note_on_c, 1, 75, 100
3, 2252400, Note_on_c, 1, 75, 0
3, 2253480, Note_on_c, 1, 67, 100
3, 2253600, Note_on_c, 1, 67, 0
3, 2253600, Note_on_c, 1, 68, 100
3, 2253615, Note_on_c, 1, 68, 0
3, 2253615, Note_on_c, 1, 67, 100
3, 2253660, Note_on_c, 1, 67, 0
3, 2253660, Note_on_c, 1, 66, 100
3, 2253720, Note_on_c, 1, 66, 0
3, 2253720, Note_on_c, 1, 67, 100
3, 2253840, Note_on_c, 1, 67, 0
3, 2253840, Note_on_c, 1, 67, 100
3, 2253900, Note_on_c, 1, 67, 0
3, 2253900, Note_on_c, 1, 75, 100
3, 2254140, Note_on_c, 1, 75, 0
3, 2254140, Note_on_c, 1, 74, 100
3, 2254200, Note_on_c, 1, 74, 0
3, 2254200, Note_on_c, 1, 72, 100
3, 2254260, Note_on_c, 1, 72, 0
3, 2254260, Note_on_c, 1, 70, 100
3, 2254320, Note_on_c, 1, 70, 0
3, 2254320, Note_on_c, 1, 68, 100
3, 2254440, Note_on_c, 1, 68, 0
3, 2254440, Note_on_c, 1, 67, 100
3, 2254680, Note_on_c, 1, 67, 0
3, 2254680, Note_on_c, 1, 66, 100
3, 2254920, Note_on_c, 1, 66, 0
3, 2254920, Note_on_c, 1, 65, 100
3, 2255040, Note_on_c, 1, 65, 0
3, 2255040, Note_on_c, 1, 67, 100
3, 2255055, Note_on_c, 1, 67, 0
3, 2255055, Note_on_c, 1, 65, 100
3, 2255100, Note_on_c, 1, 65, 0
3, 2255100, Note_on_c, 1, 64, 100
3, 2255160, Note_on_c, 1, 64, 0
3, 2255160, Note_on_c, 1, 65, 100
3, 2255280, Note_on_c, 1, 65, 0
3, 2255280, Note_on_c, 1, 73, 100
3, 2255580, Note_on_c, 1, 73, 0
3, 2255580, Note_on_c, 1, 72, 100
3, 2255640, Note_on_c, 1, 72, 0
3, 2255640, Note_on_c, 1, 70, 100
3, 2255700, Note_on_c, 1, 70, 0
3, 2255700, Note_on_c, 1, 68, 100
3, 2255760, Note_on_c, 1, 68, 0
3, 2255760, Note_on_c, 1, 66, 100
3, 2255880, Note_on_c, 1, 66, 0
3, 2255880, Note_on_c, 1, 65, 100
3, 2256120, Note_on_c, 1, 65, 0
3, 2256120, Note_on_c, 1, 64, 100
3, 2256360, Note_on_c, 1, 64, 0
3, 2256360, Note_on_c, 1, 63, 100
3, 2256480, Note_on_c, 1, 63, 0
3, 2256480, Note_on_c, 1, 65, 100
3, 2256495, Note_on_c, 1, 65, 0
3, 2256495, Note_on_c, 1, 63, 100
3, 2256540, Note_on_c, 1, 63, 0
3, 2256540, Note_on_c, 1, 62, 100
3, 2256600, Note_on_c, 1, 62, 0
3, 2256600, Note_on_c, 1, 63, 100
3, 2256720, Note_on_c, 1, 63, 0
3, 2256720, Note_on_c, 1, 72, 100
3, 2257020, Note_on_c, 1, 72, 0
3, 2257020, Note_on_c, 1, 70, 100
3, 2257080, Note_on_c, 1, 70, 0
3, 2257080, Note_on_c, 1, 68, 100
3, 2257140, Note_on_c, 1, 68, 0
3, 2257140, Note_on_c, 1, 67, 100
3, 2257200, Note_on_c, 1, 67, 0
3, 2257200, Note_on_c, 1, 66, 100
3, 2257320, Note_on_c, 1, 66, 0
3, 2257320, Note_on_c, 1, 75, 100
3, 2257500, Note_on_c, 1, 75, 0
3, 2257500, Note_on_c, 1, 74, 100
3, 2257560, Note_on_c, 1, 74, 0
3, 2257560, Note_on_c, 1, 73, 100
3, 2257680, Note_on_c, 1, 73, 0
3, 2257680, Note_on_c, 1, 73, 100
3, 2257800, Note_on_c, 1, 73, 0
3, 2257800, Note_on_c, 1, 74, 100
3, 2257920, Note_on_c, 1, 74, 0
3, 2257920, Note_on_c, 1, 63, 100
3, 2258040, Note_on_c, 1, 63, 0
3, 2258040, Note_on_c, 1, 62, 100
3, 2258160, Note_on_c, 1, 62, 0
3, 2258220, Note_on_c, 1, 64, 100
3, 2258280, Note_on_c, 1, 64, 0
3, 2258280, Note_on_c, 1, 66, 100
3, 2258340, Note_on_c, 1, 66, 0
3, 2258340, Note_on_c, 1, 67, 100
3, 2258400, Note_on_c, 1, 67, 0
3, 2258400, Note_on_c, 1, 69, 100
3, 2258460, Note_on_c, 1, 69, 0
3, 2258460, Note_on_c, 1, 70, 100
3, 2258520, Note_on_c, 1, 70, 0
3, 2258520, Note_on_c, 1, 72, 100
3, 2258580, Note_on_c, 1, 72, 0
3, 2258580, Note_on_c, 1, 74, 100
3, 2258640, Note_on_c, 1, 74, 0
3, 2258640, Note_on_c, 1, 75, 100
3, 2258700, Note_on_c, 1, 75, 0
3, 2258700, Note_on_c, 1, 74, 100
3, 2258760, Note_on_c, 1, 74, 0
3, 2258760, Note_on_c, 1, 79, 100
3, 2258940, Note_on_c, 1, 79, 0
3, 2258940, Note_on_c, 1, 78, 100
3, 2259000, Note_on_c, 1, 78, 0
3, 2259000, Note_on_c, 1, 81, 100
3, 2259240, Note_on_c, 1, 81, 0
3, 2259240, Note_on_c, 1, 74, 100
3, 2259360, Note_on_c, 1, 74, 0
3, 2259360, Note_on_c, 1, 75, 100
3, 2259375, Note_on_c, 1, 75, 0
3, 2259375, Note_on_c, 1, 74, 100
3, 2259420, Note_on_c, 1, 74, 0
3, 2259420, Note_on_c, 1, 73, 100
3, 2259480, Note_on_c, 1, 73, 0
3, 2259480, Note_on_c, 1, 74, 100
3, 2259600, Note_on_c, 1, 74, 0
3, 2259600, Note_on_c, 1, 86, 100
3, 2259900, Note_on_c, 1, 86, 0
3, 2259900, Note_on_c, 1, 84, 100
3, 2259960, Note_on_c, 1, 84, 0
3, 2259960, Note_on_c, 1, 82, 100
3, 2260020, Note_on_c, 1, 82, 0
3, 2260020, Note_on_c, 1, 81, 100
3, 2260080, Note_on_c, 1, 81, 0
3, 2260080, Note_on_c, 1, 79, 100
3, 2260140, Note_on_c, 1, 79, 0
3, 2260140, Note_on_c, 1, 86, 100
3, 2260200, Note_on_c, 1, 86, 0
3, 2260200, Note_on_c, 1, 77, 100
3, 2260380, Note_on_c, 1, 77, 0
3, 2260380, Note_on_c, 1, 75, 100
3, 2260440, Note_on_c, 1, 75, 0
3, 2260440, Note_on_c, 1, 74, 100
3, 2260500, Note_on_c, 1, 74, 0
3, 2260500, Note_on_c, 1, 72, 100
3, 2260560, Note_on_c, 1, 72, 0
3, 2260560, Note_on_c, 1, 74, 100
3, 2260620, Note_on_c, 1, 74, 0
3, 2260620, Note_on_c, 1, 80, 100
3, 2260680, Note_on_c, 1, 80, 0
3, 2260680, Note_on_c, 1, 79, 100
3, 2260740, Note_on_c, 1, 79, 0
3, 2260740, Note_on_c, 1, 77, 100
3, 2260800, Note_on_c, 1, 77, 0
3, 2260800, Note_on_c, 1, 75, 100
3, 2260860, Note_on_c, 1, 75, 0
3, 2260860, Note_on_c, 1, 74, 100
3, 2260920, Note_on_c, 1, 74, 0
3, 2260920, Note_on_c, 1, 72, 100
3, 2260980, Note_on_c, 1, 72, 0
3, 2260980, Note_on_c, 1, 71, 100
3, 2261040, Note_on_c, 1, 71, 0
3, 2261040, Note_on_c, 1, 72, 100
3, 2261100, Note_on_c, 1, 72, 0
3, 2261100, Note_on_c, 1, 77, 100
3, 2261160, Note_on_c, 1, 77, 0
3, 2261160, Note_on_c, 1, 75, 100
3, 2261220, Note_on_c, 1, 75, 0
3, 2261220, Note_on_c, 1, 74, 100
3, 2261280, Note_on_c, 1, 74, 0
3, 2261280, Note_on_c, 1, 72, 100
3, 2261340, Note_on_c, 1, 72, 0
3, 2261340, Note_on_c, 1, 70, 100
3, 2261400, Note_on_c, 1, 70, 0
3, 2261400, Note_on_c, 1, 69, 100
3, 2261460, Note_on_c, 1, 69, 0
3, 2261460, Note_on_c, 1, 67, 100
3, 2261520, Note_on_c, 1, 67, 0
3, 2261520, Note_on_c, 1, 69, 100
3, 2261580, Note_on_c, 1, 69, 0
3, 2261580, Note_on_c, 1, 74, 100
3, 2261640, Note_on_c, 1, 74, 0
3, 2261640, Note_on_c, 1, 72, 100
3, 2261700, Note_on_c, 1, 72, 0
3, 2261700, Note_on_c, 1, 70, 100
3, 2261760, Note_on_c, 1, 70, 0
3, 2261760, Note_on_c, 1, 69, 100
3, 2261820, Note_on_c, 1, 69, 0
3, 2261820, Note_on_c, 1, 67, 100
3, 2261880, Note_on_c, 1, 67, 0
3, 2261880, Note_on_c, 1, 66, 100
3, 2261940, Note_on_c, 1, 66, 0
3, 2261940, Note_on_c, 1, 64, 100
3, 2262000, Note_on_c, 1, 64, 0
3, 2262000, Note_on_c, 1, 66, 100
3, 2262060, Note_on_c, 1, 66, 0
3, 2262060, Note_on_c, 1, 70, 100
3, 2262120, Note_on_c, 1, 70, 0
3, 2262120, Note_on_c, 1, 69, 100
3, 2262180, Note_on_c, 1, 69, 0
3, 2262180, Note_on_c, 1, 67, 100
3, 2262240, Note_on_c, 1, 67, 0
3, 2262240, Note_on_c, 1, 66, 100
3, 2262300, Note_on_c, 1, 66, 0
3, 2262300, Note_on_c, 1, 64, 100
3, 2262360, Note_on_c, 1, 64, 0
3, 2262360, Note_on_c, 1, 62, 100
3, 2262420, Note_on_c, 1, 62, 0
3, 2262420, Note_on_c, 1, 61, 100
3, 2262480, Note_on_c, 1, 61, 0
3, 2262480, Note_on_c, 1, 62, 100
3, 2262540, Note_on_c, 1, 62, 0
3, 2262540, Note_on_c, 1, 67, 100
3, 2262600, Note_on_c, 1, 67, 0
3, 2262600, Note_on_c, 1, 66, 100
3, 2262660, Note_on_c, 1, 66, 0
3, 2262660, Note_on_c, 1, 64, 100
3, 2262720, Note_on_c, 1, 64, 0
3, 2262720, Note_on_c, 1, 62, 100
3, 2262780, Note_on_c, 1, 62, 0
3, 2262780, Note_on_c, 1, 60, 100
3, 2262840, Note_on_c, 1, 60, 0
3, 2262840, Note_on_c, 1, 58, 100
3, 2262900, Note_on_c, 1, 58, 0
3, 2262900, Note_on_c, 1, 57, 100
3, 2262960, Note_on_c, 1, 57, 0
3, 2262960, Note_on_c, 1, 58, 100
3, 2263020, Note_on_c, 1, 58, 0
3, 2263020, Note_on_c, 1, 63, 100
3, 2263080, Note_on_c, 1, 63, 0
3, 2263080, Note_on_c, 1, 62, 100
3, 2263140, Note_on_c, 1, 62, 0
3, 2263140, Note_on_c, 1, 60, 100
3, 2263200, Note_on_c, 1, 60, 0
3, 2263200, Note_on_c, 1, 58, 100
3, 2263260, Note_on_c, 1, 58, 0
3, 2263260, Note_on_c, 1, 57, 100
3, 2263320, Note_on_c, 1, 57, 0
3, 2263320, Note_on_c, 1, 55, 100
3, 2263380, Note_on_c, 1, 55, 0
3, 2263380, Note_on_c, 1, 54, 100
3, 2263440, Note_on_c, 1, 54, 0
3, 2263440, Note_on_c, 1, 54, 100
3, 2263560, Note_on_c, 1, 54, 0
3, 2263560, Note_on_c, 1, 55, 100
3, 2263920, Note_on_c, 1, 55, 0
3, 2265000, Note_on_c, 1, 81, 100
3, 2265120, Note_on_c, 1, 81, 0
3, 2265120, Note_on_c, 1, 82, 100
3, 2265135, Note_on_c, 1, 82, 0
3, 2265135, Note_on_c, 1, 81, 100
3, 2265180, Note_on_c, 1, 81, 0
3, 2265180, Note_on_c, 1, 80, 100
3, 2265240, Note_on_c, 1, 80, 0
3, 2265240, Note_on_c, 1, 81, 100
3, 2265360, Note_on_c, 1, 81, 0
3, 2265360, Note_on_c, 1, 75, 100
3, 2265480, Note_on_c, 1, 75, 0
3, 2265480, Note_on_c, 1, 74, 100
3, 2265660, Note_on_c, 1, 74, 0
3, 2265660, Note_on_c, 1, 76, 100
3, 2265720, Note_on_c, 1, 76, 0
3, 2265720, Note_on_c, 1, 78, 100
3, 2265780, Note_on_c, 1, 78, 0
3, 2265780, Note_on_c, 1, 79, 100
3, 2265840, Note_on_c, 1, 79, 0
3, 2265840, Note_on_c, 1, 81, 100
3, 2265900, Note_on_c, 1, 81, 0
3, 2265900, Note_on_c, 1, 72, 100
3, 2265960, Note_on_c, 1, 72, 0
3, 2265960, Note_on_c, 1, 75, 100
3, 2266200, Note_on_c, 1, 75, 0
3, 2266200, Note_on_c, 1, 74, 100
3, 2266440, Note_on_c, 1, 74, 0
3, 2266440, Note_on_c, 1, 77, 100
3, 2266560, Note_on_c, 1, 77, 0
3, 2266560, Note_on_c, 1, 79, 100
3, 2266575, Note_on_c, 1, 79, 0
3, 2266575, Note_on_c, 1, 77, 100
3, 2266620, Note_on_c, 1, 77, 0
3, 2266620, Note_on_c, 1, 75, 100
3, 2266680, Note_on_c, 1, 75, 0
3, 2266680, Note_on_c, 1, 77, 100
3, 2266800, Note_on_c, 1, 77, 0
3, 2266800, Note_on_c, 1, 68, 100
3, 2266920, Note_on_c, 1, 68, 0
3, 2266920, Note_on_c, 1, 67, 100
3, 2267100, Note_on_c, 1, 67, 0
3, 2267100, Note_on_c, 1, 69, 100
3, 2267160, Note_on_c, 1, 69, 0
3, 2267160, Note_on_c, 1, 71, 100
3, 2267220, Note_on_c, 1, 71, 0
3, 2267220, Note_on_c, 1, 72, 100
3, 2267280, Note_on_c, 1, 72, 0
3, 2267280, Note_on_c, 1, 74, 100
3, 2267340, Note_on_c, 1, 74, 0
3, 2267340, Note_on_c, 1, 65, 100
3, 2267400, Note_on_c, 1, 65, 0
3, 2267400, Note_on_c, 1, 68, 100
3, 2267640, Note_on_c, 1, 68, 0
3, 2267640, Note_on_c, 1, 67, 100
3, 2267880, Note_on_c, 1, 67, 0
3, 2267880, Note_on_c, 1, 72, 100
3, 2268120, Note_on_c, 1, 72, 0
3, 2268120, Note_on_c, 1, 71, 100
3, 2268240, Note_on_c, 1, 71, 0
3, 2268240, Note_on_c, 1, 72, 100
3, 2268300, Note_on_c, 1, 72, 0
3, 2268300, Note_on_c, 1, 75, 100
3, 2268360, Note_on_c, 1, 75, 0
3, 2268360, Note_on_c, 1, 73, 100
3, 2268600, Note_on_c, 1, 73, 0
3, 2268600, Note_on_c, 1, 72, 100
3, 2268780, Note_on_c, 1, 72, 0
3, 2268780, Note_on_c, 1, 77, 100
3, 2268840, Note_on_c, 1, 77, 0
3, 2268840, Note_on_c, 1, 75, 100
3, 2269020, Note_on_c, 1, 75, 0
3, 2269020, Note_on_c, 1, 77, 100
3, 2269080, Note_on_c, 1, 77, 0
3, 2269080, Note_on_c, 1, 75, 100
3, 2269140, Note_on_c, 1, 75, 0
3, 2269140, Note_on_c, 1, 74, 100
3, 2269200, Note_on_c, 1, 74, 0
3, 2269200, Note_on_c, 1, 75, 100
3, 2269260, Note_on_c, 1, 75, 0
3, 2269260, Note_on_c, 1, 81, 100
3, 2269320, Note_on_c, 1, 81, 0
3, 2269320, Note_on_c, 1, 82, 100
3, 2269440, Note_on_c, 1, 82, 0
3, 2269440, Note_on_c, 1, 75, 100
3, 2269560, Note_on_c, 1, 75, 0
3, 2269560, Note_on_c, 1, 74, 100
3, 2269680, Note_on_c, 1, 74, 0
3, 2270760, Note_on_c, 1, 70, 100
3, 2270880, Note_on_c, 1, 70, 0
3, 2270880, Note_on_c, 1, 71, 100
3, 2270895, Note_on_c, 1, 71, 0
3, 2270895, Note_on_c, 1, 70, 100
3, 2270940, Note_on_c, 1, 70, 0
3, 2270940, Note_on_c, 1, 68, 100
3, 2271000, Note_on_c, 1, 68, 0
3, 2271000, Note_on_c, 1, 70, 100
3, 2271120, Note_on_c, 1, 70, 0
3, 2271120, Note_on_c, 1, 70, 100
3, 2271240, Note_on_c, 1, 70, 0
3, 2271240, Note_on_c, 1, 82, 100
3, 2271420, Note_on_c, 1, 82, 0
3, 2271420, Note_on_c, 1, 83, 100
3, 2271480, Note_on_c, 1, 83, 0
3, 2271480, Note_on_c, 1, 82, 100
3, 2271540, Note_on_c, 1, 82, 0
3, 2271540, Note_on_c, 1, 80, 100
3, 2271600, Note_on_c, 1, 80, 0
3, 2271600, Note_on_c, 1, 82, 100
3, 2271720, Note_on_c, 1, 82, 0
3, 2271720, Note_on_c, 1, 73, 100
3, 2271900, Note_on_c, 1, 73, 0
3, 2271900, Note_on_c, 1, 71, 100
3, 2271960, Note_on_c, 1, 71, 0
3, 2271960, Note_on_c, 1, 70, 100
3, 2272200, Note_on_c, 1, 70, 0
3, 2272200, Note_on_c, 1, 71, 100
3, 2272320, Note_on_c, 1, 71, 0
3, 2272320, Note_on_c, 1, 73, 100
3, 2272335, Note_on_c, 1, 73, 0
3, 2272335, Note_on_c, 1, 71, 100
3, 2272380, Note_on_c, 1, 71, 0
3, 2272380, Note_on_c, 1, 70, 100
3, 2272440, Note_on_c, 1, 70, 0
3, 2272440, Note_on_c, 1, 71, 100
3, 2272560, Note_on_c, 1, 71, 0
3, 2272560, Note_on_c, 1, 71, 100
3, 2272680, Note_on_c, 1, 71, 0
3, 2272680, Note_on_c, 1, 83, 100
3, 2272860, Note_on_c, 1, 83, 0
3, 2272860, Note_on_c, 1, 76, 100
3, 2272920, Note_on_c, 1, 76, 0
3, 2272920, Note_on_c, 1, 75, 100
3, 2272980, Note_on_c, 1, 75, 0
3, 2272980, Note_on_c, 1, 74, 100
3, 2273040, Note_on_c, 1, 74, 0
3, 2273040, Note_on_c, 1, 75, 100
3, 2273100, Note_on_c, 1, 75, 0
3, 2273100, Note_on_c, 1, 85, 100
3, 2273160, Note_on_c, 1, 85, 0
3, 2273160, Note_on_c, 1, 84, 100
3, 2273400, Note_on_c, 1, 84, 0
3, 2273400, Note_on_c, 1, 75, 100
3, 2273520, Note_on_c, 1, 75, 0
3, 2273520, Note_on_c, 1, 74, 100
3, 2273640, Note_on_c, 1, 74, 0
3, 2273640, Note_on_c, 1, 71, 100
3, 2273880, Note_on_c, 1, 71, 0
3, 2273880, Note_on_c, 1, 70, 100
3, 2274000, Note_on_c, 1, 70, 0
3, 2274000, Note_on_c, 1, 76, 100
3, 2274120, Note_on_c, 1, 76, 0
3, 2274120, Note_on_c, 1, 75, 100
3, 2274300, Note_on_c, 1, 75, 0
3, 2274300, Note_on_c, 1, 74, 100
3, 2274360, Note_on_c, 1, 74, 0
3, 2274360, Note_on_c, 1, 77, 100
3, 2274420, Note_on_c, 1, 77, 0
3, 2274420, Note_on_c, 1, 80, 100
3, 2274480, Note_on_c, 1, 80, 0
3, 2274480, Note_on_c, 1, 83, 100
3, 2274600, Note_on_c, 1, 83, 0
3, 2274600, Note_on_c, 1, 82, 100
3, 2274750, Note_on_c, 1, 82, 0
3, 2274750, Note_on_c, 1, 80, 100
3, 2274780, Note_on_c, 1, 80, 0
3, 2274780, Note_on_c, 1, 78, 100
3, 2274810, Note_on_c, 1, 78, 0
3, 2274810, Note_on_c, 1, 77, 100
3, 2274840, Note_on_c, 1, 77, 0
3, 2274840, Note_on_c, 1, 75, 100
3, 2274900, Note_on_c, 1, 75, 0
3, 2274900, Note_on_c, 1, 74, 100
3, 2274960, Note_on_c, 1, 74, 0
3, 2274960, Note_on_c, 1, 74, 100
3, 2275200, Note_on_c, 1, 74, 0
3, 2275200, Note_on_c, 1, 75, 100
3, 2275440, Note_on_c, 1, 75, 0
3, 2276520, Note_on_c, 1, 67, 100
3, 2276640, Note_on_c, 1, 67, 0
3, 2276640, Note_on_c, 1, 68, 100
3, 2276655, Note_on_c, 1, 68, 0
3, 2276655, Note_on_c, 1, 67, 100
3, 2276700, Note_on_c, 1, 67, 0
3, 2276700, Note_on_c, 1, 66, 100
3, 2276760, Note_on_c, 1, 66, 0
3, 2276760, Note_on_c, 1, 67, 100
3, 2276880, Note_on_c, 1, 67, 0
3, 2276880, Note_on_c, 1, 67, 100
3, 2276940, Note_on_c, 1, 67, 0
3, 2276940, Note_on_c, 1, 75, 100
3, 2277180, Note_on_c, 1, 75, 0
3, 2277180, Note_on_c, 1, 74, 100
3, 2277240, Note_on_c, 1, 74, 0
3, 2277240, Note_on_c, 1, 72, 100
3, 2277300, Note_on_c, 1, 72, 0
3, 2277300, Note_on_c, 1, 70, 100
3, 2277360, Note_on_c, 1, 70, 0
3, 2277360, Note_on_c, 1, 68, 100
3, 2277480, Note_on_c, 1, 68, 0
3, 2277480, Note_on_c, 1, 67, 100
3, 2277720, Note_on_c, 1, 67, 0
3, 2277720, Note_on_c, 1, 66, 100
3, 2277960, Note_on_c, 1, 66, 0
3, 2277960, Note_on_c, 1, 65, 100
3, 2278080, Note_on_c, 1, 65, 0
3, 2278080, Note_on_c, 1, 67, 100
3, 2278095, Note_on_c, 1, 67, 0
3, 2278095, Note_on_c, 1, 65, 100
3, 2278140, Note_on_c, 1, 65, 0
3, 2278140, Note_on_c, 1, 64, 100
3, 2278200, Note_on_c, 1, 64, 0
3, 2278200, Note_on_c, 1, 65, 100
3, 2278320, Note_on_c, 1, 65, 0
3, 2278320, Note_on_c, 1, 73, 100
3, 2278620, Note_on_c, 1, 73, 0
3, 2278620, Note_on_c, 1, 72, 100
3, 2278680, Note_on_c, 1, 72, 0
3, 2278680, Note_on_c, 1, 70, 100
3, 2278740, Note_on_c, 1, 70, 0
3, 2278740, Note_on_c, 1, 68, 100
3, 2278800, Note_on_c, 1, 68, 0
3, 2278800, Note_on_c, 1, 66, 100
3, 2278920, Note_on_c, 1, 66, 0
3, 2278920, Note_on_c, 1, 65, 100
3, 2279160, Note_on_c, 1, 65, 0
3, 2279160, Note_on_c, 1, 64, 100
3, 2279400, Note_on_c, 1, 64, 0
3, 2279400, Note_on_c, 1, 63, 100
3, 2279520, Note_on_c, 1, 63, 0
3, 2279520, Note_on_c, 1, 65, 100
3, 2279535, Note_on_c, 1, 65, 0
3, 2279535, Note_on_c, 1, 63, 100
3, 2279580, Note_on_c, 1, 63, 0
3, 2279580, Note_on_c, 1, 62, 100
3, 2279640, Note_on_c, 1, 62, 0
3, 2279640, Note_on_c, 1, 63, 100
3, 2279760, Note_on_c, 1, 63, 0
3, 2279760, Note_on_c, 1, 72, 100
3, 2280060, Note_on_c, 1, 72, 0
3, 2280060, Note_on_c, 1, 70, 100
3, 2280120, Note_on_c, 1, 70, 0
3, 2280120, Note_on_c, 1, 68, 100
3, 2280180, Note_on_c, 1, 68, 0
3, 2280180, Note_on_c, 1, 67, 100
3, 2280240, Note_on_c, 1, 67, 0
3, 2280240, Note_on_c, 1, 66, 100
3, 2280360, Note_on_c, 1, 66, 0
3, 2280360, Note_on_c, 1, 75, 100
3, 2280540, Note_on_c, 1, 75, 0
3, 2280540, Note_on_c, 1, 74, 100
3, 2280600, Note_on_c, 1, 74, 0
3, 2280600, Note_on_c, 1, 73, 100
3, 2280720, Note_on_c, 1, 73, 0
3, 2280720, Note_on_c, 1, 73, 100
3, 2280840, Note_on_c, 1, 73, 0
3, 2280840, Note_on_c, 1, 74, 100
3, 2280960, Note_on_c, 1, 74, 0
3, 2280960, Note_on_c, 1, 63, 100
3, 2281080, Note_on_c, 1, 63, 0
3, 2281080, Note_on_c, 1, 62, 100
3, 2281200, Note_on_c, 1, 62, 0
3, 2281260, Note_on_c, 1, 64, 100
3, 2281320, Note_on_c, 1, 64, 0
3, 2281320, Note_on_c, 1, 66, 100
3, 2281380, Note_on_c, 1, 66, 0
3, 2281380, Note_on_c, 1, 67, 100
3, 2281440, Note_on_c, 1, 67, 0
3, 2281440, Note_on_c, 1, 69, 100
3, 2281500, Note_on_c, 1, 69, 0
3, 2281500, Note_on_c, 1, 70, 100
3, 2281560, Note_on_c, 1, 70, 0
3, 2281560, Note_on_c, 1, 72, 100
3, 2281620, Note_on_c, 1, 72, 0
3, 2281620, Note_on_c, 1, 74, 100
3, 2281680, Note_on_c, 1, 74, 0
3, 2281680, Note_on_c, 1, 75, 100
3, 2281740, Note_on_c, 1, 75, 0
3, 2281740, Note_on_c, 1, 74, 100
3, 2281800, Note_on_c, 1, 74, 0
3, 2281800, Note_on_c, 1, 79, 100
3, 2281980, Note_on_c, 1, 79, 0
3, 2281980, Note_on_c, 1, 78, 100
3, 2282040, Note_on_c, 1, 78, 0
3, 2282040, Note_on_c, 1, 81, 100
3, 2282280, Note_on_c, 1, 81, 0
3, 2282280, Note_on_c, 1, 74, 100
3, 2282400, Note_on_c, 1, 74, 0
3, 2282400, Note_on_c, 1, 75, 100
3, 2282415, Note_on_c, 1, 75, 0
3, 2282415, Note_on_c, 1, 74, 100
3, 2282460, Note_on_c, 1, 74, 0
3, 2282460, Note_on_c, 1, 73, 100
3, 2282520, Note_on_c, 1, 73, 0
3, 2282520, Note_on_c, 1, 74, 100
3, 2282640, Note_on_c, 1, 74, 0
3, 2282640, Note_on_c, 1, 86, 100
3, 2282940, Note_on_c, 1, 86, 0
3, 2282940, Note_on_c, 1, 84, 100
3, 2283000, Note_on_c, 1, 84, 0
3, 2283000, Note_on_c, 1, 82, 100
3, 2283060, Note_on_c, 1, 82, 0
3, 2283060, Note_on_c, 1, 81, 100
3, 2283120, Note_on_c, 1, 81, 0
3, 2283120, Note_on_c, 1, 79, 100
3, 2283180, Note_on_c, 1, 79, 0
3, 2283180, Note_on_c, 1, 86, 100
3, 2283240, Note_on_c, 1, 86, 0
3, 2283240, Note_on_c, 1, 77, 100
3, 2283420, Note_on_c, 1, 77, 0
3, 2283420, Note_on_c, 1, 75, 100
3, 2283480, Note_on_c, 1, 75, 0
3, 2283480, Note_on_c, 1, 74, 100
3, 2283540, Note_on_c, 1, 74, 0
3, 2283540, Note_on_c, 1, 72, 100
3, 2283600, Note_on_c, 1, 72, 0
3, 2283600, Note_on_c, 1, 74, 100
3, 2283660, Note_on_c, 1, 74, 0
3, 2283660, Note_on_c, 1, 80, 100
3, 2283720, Note_on_c, 1, 80, 0
3, 2283720, Note_on_c, 1, 79, 100
3, 2283780, Note_on_c, 1, 79, 0
3, 2283780, Note_on_c, 1, 77, 100
3, 2283840, Note_on_c, 1, 77, 0
3, 2283840, Note_on_c, 1, 75, 100
3, 2283900, Note_on_c, 1, 75, 0
3, 2283900, Note_on_c, 1, 74, 100
3, 2283960, Note_on_c, 1, 74, 0
3, 2283960, Note_on_c, 1, 72, 100
3, 2284020, Note_on_c, 1, 72, 0
3, 2284020, Note_on_c, 1, 71, 100
3, 2284080, Note_on_c, 1, 71, 0
3, 2284080, Note_on_c, 1, 72, 100
3, 2284140, Note_on_c, 1, 72, 0
3, 2284140, Note_on_c, 1, 77, 100
3, 2284200, Note_on_c, 1, 77, 0
3, 2284200, Note_on_c, 1, 75, 100
3, 2284260, Note_on_c, 1, 75, 0
3, 2284260, Note_on_c, 1, 74, 100
3, 2284320, Note_on_c, 1, 74, 0
3, 2284320, Note_on_c, 1, 72, 100
3, 2284380, Note_on_c, 1, 72, 0
3, 2284380, Note_on_c, 1, 70, 100
3, 2284440, Note_on_c, 1, 70, 0
3, 2284440, Note_on_c, 1, 69, 100
3, 2284500, Note_on_c, 1, 69, 0
3, 2284500, Note_on_c, 1, 67, 100
3, 2284560, Note_on_c, 1, 67, 0
3, 2284560, Note_on_c, 1, 69, 100
3, 2284620, Note_on_c, 1, 69, 0
3, 2284620, Note_on_c, 1, 74, 100
3, 2284680, Note_on_c, 1, 74, 0
3, 2284680, Note_on_c, 1, 72, 100
3, 2284740, Note_on_c, 1, 72, 0
3, 2284740, Note_on_c, 1, 70, 100
3, 2284800, Note_on_c, 1, 70, 0
3, 2284800, Note_on_c, 1, 69, 100
3, 2284860, Note_on_c, 1, 69, 0
3, 2284860, Note_on_c, 1, 67, 100
3, 2284920, Note_on_c, 1, 67, 0
3, 2284920, Note_on_c, 1, 66, 100
3, 2284980, Note_on_c, 1, 66, 0
3, 2284980, Note_on_c, 1, 64, 100
3, 2285040, Note_on_c, 1, 64, 0
3, 2285040, Note_on_c, 1, 66, 100
3, 2285100, Note_on_c, 1, 66, 0
3, 2285100, Note_on_c, 1, 70, 100
3, 2285160, Note_on_c, 1, 70, 0
3, 2285160, Note_on_c, 1, 69, 100
3, 2285220, Note_on_c, 1, 69, 0
3, 2285220, Note_on_c, 1, 67, 100
3, 2285280, Note_on_c, 1, 67, 0
3, 2285280, Note_on_c, 1, 66, 100
3, 2285340, Note_on_c, 1, 66, 0
3, 2285340, Note_on_c, 1, 64, 100
3, 2285400, Note_on_c, 1, 64, 0
3, 2285400, Note_on_c, 1, 62, 100
3, 2285460, Note_on_c, 1, 62, 0
3, 2285460, Note_on_c, 1, 61, 100
3, 2285520, Note_on_c, 1, 61, 0
3, 2285520, Note_on_c, 1, 62, 100
3, 2285580, Note_on_c, 1, 62, 0
3, 2285580, Note_on_c, 1, 67, 100
3, 2285640, Note_on_c, 1, 67, 0
3, 2285640, Note_on_c, 1, 66, 100
3, 2285700, Note_on_c, 1, 66, 0
3, 2285700, Note_on_c, 1, 64, 100
3, 2285760, Note_on_c, 1, 64, 0
3, 2285760, Note_on_c, 1, 62, 100
3, 2285820, Note_on_c, 1, 62, 0
3, 2285820, Note_on_c, 1, 60, 100
3, 2285880, Note_on_c, 1, 60, 0
3, 2285880, Note_on_c, 1, 58, 100
3, 2285940, Note_on_c, 1, 58, 0
3, 2285940, Note_on_c, 1, 57, 100
3, 2286000, Note_on_c, 1, 57, 0
3, 2286000, Note_on_c, 1, 58, 100
3, 2286060, Note_on_c, 1, 58, 0
3, 2286060, Note_on_c, 1, 63, 100
3, 2286120, Note_on_c, 1, 63, 0
3, 2286120, Note_on_c, 1, 62, 100
3, 2286180, Note_on_c, 1, 62, 0
3, 2286180, Note_on_c, 1, 60, 100
3, 2286240, Note_on_c, 1, 60, 0
3, 2286240, Note_on_c, 1, 58, 100
3, 2286300, Note_on_c, 1, 58, 0
3, 2286300, Note_on_c, 1, 57, 100
3, 2286360, Note_on_c, 1, 57, 0
3, 2286360, Note_on_c, 1, 55, 100
3, 2286420, Note_on_c, 1, 55, 0
3, 2286420, Note_on_c, 1, 54, 100
3, 2286480, Note_on_c, 1, 54, 0
3, 2286480, Note_on_c, 1, 55, 100
3, 2286960, Note_on_c, 1, 55, 0
3, 2287920, Note_on_c, 1, 55, 100
3, 2288000, Note_on_c, 1, 55, 0
3, 2288000, Note_on_c, 1, 57, 100
3, 2288080, Note_on_c, 1, 57, 0
3, 2288080, Note_on_c, 1, 55, 100
3, 2288160, Note_on_c, 1, 55, 0
3, 2288160, Note_on_c, 1, 50, 100
3, 2288240, Note_on_c, 1, 50, 0
3, 2288240, Note_on_c, 1, 52, 100
3, 2288320, Note_on_c, 1, 52, 0
3, 2288320, Note_on_c, 1, 54, 100
3, 2288400, Note_on_c, 1, 54, 0
3, 2288400, Note_on_c, 1, 55, 100
3, 2288480, Note_on_c, 1, 55, 0
3, 2288480, Note_on_c, 1, 54, 100
3, 2288560, Note_on_c, 1, 54, 0
3, 2288560, Note_on_c, 1, 55, 100
3, 2288640, Note_on_c, 1, 55, 0
3, 2288640, Note_on_c, 1, 57, 100
3, 2288720, Note_on_c, 1, 57, 0
3, 2288720, Note_on_c, 1, 55, 100
3, 2288800, Note_on_c, 1, 55, 0
3, 2288800, Note_on_c, 1, 57, 100
3, 2288880, Note_on_c, 1, 57, 0
3, 2288880, Note_on_c, 1, 59, 100
3, 2288960, Note_on_c, 1, 59, 0
3, 2288960, Note_on_c, 1, 57, 100
3, 2289040, Note_on_c, 1, 57, 0
3, 2289040, Note_on_c, 1, 59, 100
3, 2289120, Note_on_c, 1, 59, 0
3, 2289121, Note_on_c, 1, 60, 100
3, 2289201, Note_on_c, 1, 60, 0
3, 2289201, Note_on_c, 1, 59, 100
3, 2289281, Note_on_c, 1, 59, 0
3, 2289282, Note_on_c, 1, 61, 100
3, 2289362, Note_on_c, 1, 61, 0
3, 2289362, Note_on_c, 1, 62, 100
3, 2289442, Note_on_c, 1, 62, 0
3, 2289442, Note_on_c, 1, 64, 100
3, 2289522, Note_on_c, 1, 64, 0
3, 2289523, Note_on_c, 1, 62, 100
3, 2289603, Note_on_c, 1, 62, 0
3, 2289603, Note_on_c, 1, 57, 100
3, 2289683, Note_on_c, 1, 57, 0
3, 2289684, Note_on_c, 1, 59, 100
3, 2289764, Note_on_c, 1, 59, 0
3, 2289764, Note_on_c, 1, 61, 100
3, 2289840, Note_on_c, 1, 62, 100
3, 2289844, Note_on_c, 1, 61, 0
3, 2289920, Note_on_c, 1, 62, 0
3, 2289920, Note_on_c, 1, 61, 100
3, 2290000, Note_on_c, 1, 61, 0
3, 2290000, Note_on_c, 1, 62, 100
3, 2290080, Note_on_c, 1, 62, 0
3, 2290081, Note_on_c, 1, 64, 100
3, 2290161, Note_on_c, 1, 64, 0
3, 2290161, Note_on_c, 1, 62, 100
3, 2290241, Note_on_c, 1, 62, 0
3, 2290242, Note_on_c, 1, 64, 100
3, 2290322, Note_on_c, 1, 64, 0
3, 2290322, Note_on_c, 1, 66, 100
3, 2290402, Note_on_c, 1, 66, 0
3, 2290402, Note_on_c, 1, 64, 100
3, 2290482, Note_on_c, 1, 64, 0
3, 2290483, Note_on_c, 1, 66, 100
3, 2290563, Note_on_c, 1, 66, 0
3, 2290563, Note_on_c, 1, 67, 100
3, 2290643, Note_on_c, 1, 67, 0
3, 2290644, Note_on_c, 1, 64, 100
3, 2290724, Note_on_c, 1, 64, 0
3, 2290724, Note_on_c, 1, 66, 100
3, 2290800, Note_on_c, 1, 67, 100
3, 2290804, Note_on_c, 1, 66, 0
3, 2290880, Note_on_c, 1, 67, 0
3, 2290880, Note_on_c, 1, 69, 100
3, 2290960, Note_on_c, 1, 69, 0
3, 2290960, Note_on_c, 1, 67, 100
3, 2291040, Note_on_c, 1, 67, 0
3, 2291041, Note_on_c, 1, 59, 100
3, 2291121, Note_on_c, 1, 59, 0
3, 2291121, Note_on_c, 1, 64, 100
3, 2291201, Note_on_c, 1, 64, 0
3, 2291202, Note_on_c, 1, 66, 100
3, 2291282, Note_on_c, 1, 66, 0
3, 2291282, Note_on_c, 1, 67, 100
3, 2291362, Note_on_c, 1, 67, 0
3, 2291362, Note_on_c, 1, 66, 100
3, 2291442, Note_on_c, 1, 66, 0
3, 2291443, Note_on_c, 1, 67, 100
3, 2291523, Note_on_c, 1, 67, 0
3, 2291523, Note_on_c, 1, 69, 100
3, 2291603, Note_on_c, 1, 69, 0
3, 2291604, Note_on_c, 1, 67, 100
3, 2291684, Note_on_c, 1, 67, 0
3, 2291684, Note_on_c, 1, 69, 100
3, 2291760, Note_on_c, 1, 71, 100
3, 2291764, Note_on_c, 1, 69, 0
3, 2291840, Note_on_c, 1, 71, 0
3, 2291840, Note_on_c, 1, 69, 100
3, 2291920, Note_on_c, 1, 69, 0
3, 2291920, Note_on_c, 1, 71, 100
3, 2292000, Note_on_c, 1, 71, 0
3, 2292001, Note_on_c, 1, 73, 100
3, 2292081, Note_on_c, 1, 73, 0
3, 2292081, Note_on_c, 1, 71, 100
3, 2292161, Note_on_c, 1, 71, 0
3, 2292162, Note_on_c, 1, 73, 100
3, 2292242, Note_on_c, 1, 73, 0
3, 2292242, Note_on_c, 1, 74, 100
3, 2292322, Note_on_c, 1, 74, 0
3, 2292322, Note_on_c, 1, 76, 100
3, 2292402, Note_on_c, 1, 76, 0
3, 2292403, Note_on_c, 1, 74, 100
3, 2292483, Note_on_c, 1, 74, 0
3, 2292483, Note_on_c, 1, 69, 100
3, 2292563, Note_on_c, 1, 69, 0
3, 2292564, Note_on_c, 1, 71, 100
3, 2292644, Note_on_c, 1, 71, 0
3, 2292644, Note_on_c, 1, 73, 100
3, 2292720, Note_on_c, 1, 74, 100
3, 2292724, Note_on_c, 1, 73, 0
3, 2292800, Note_on_c, 1, 74, 0
3, 2292800, Note_on_c, 1, 73, 100
3, 2292880, Note_on_c, 1, 73, 0
3, 2292880, Note_on_c, 1, 74, 100
3, 2292960, Note_on_c, 1, 74, 0
3, 2292961, Note_on_c, 1, 76, 100
3, 2293041, Note_on_c, 1, 76, 0
3, 2293041, Note_on_c, 1, 74, 100
3, 2293121, Note_on_c, 1, 74, 0
3, 2293122, Note_on_c, 1, 76, 100
3, 2293202, Note_on_c, 1, 76, 0
3, 2293202, Note_on_c, 1, 78, 100
3, 2293282, Note_on_c, 1, 78, 0
3, 2293282, Note_on_c, 1, 76, 100
3, 2293362, Note_on_c, 1, 76, 0
3, 2293363, Note_on_c, 1, 78, 100
3, 2293443, Note_on_c, 1, 78, 0
3, 2293443, Note_on_c, 1, 79, 100
3, 2293523, Note_on_c, 1, 79, 0
3, 2293524, Note_on_c, 1, 76, 100
3, 2293604, Note_on_c, 1, 76, 0
3, 2293604, Note_on_c, 1, 78, 100
3, 2293680, Note_on_c, 1, 79, 100
3, 2293684, Note_on_c, 1, 78, 0
3, 2293760, Note_on_c, 1, 79, 0
3, 2293760, Note_on_c, 1, 78, 100
3, 2293840, Note_on_c, 1, 78, 0
3, 2293840, Note_on_c, 1, 79, 100
3, 2293920, Note_on_c, 1, 79, 0
3, 2293921, Note_on_c, 1, 74, 100
3, 2294001, Note_on_c, 1, 74, 0
3, 2294001, Note_on_c, 1, 72, 100
3, 2294081, Note_on_c, 1, 72, 0
3, 2294082, Note_on_c, 1, 74, 100
3, 2294162, Note_on_c, 1, 74, 0
3, 2294162, Note_on_c, 1, 71, 100
3, 2294242, Note_on_c, 1, 71, 0
3, 2294242, Note_on_c, 1, 67, 100
3, 2294322, Note_on_c, 1, 67, 0
3, 2294323, Note_on_c, 1, 66, 100
3, 2294403, Note_on_c, 1, 66, 0
3, 2294403, Note_on_c, 1, 67, 100
3, 2294483, Note_on_c, 1, 67, 0
3, 2294484, Note_on_c, 1, 71, 100
3, 2294564, Note_on_c, 1, 71, 0
3, 2294564, Note_on_c, 1, 74, 100
3, 2294640, Note_on_c, 1, 77, 100
3, 2294644, Note_on_c, 1, 74, 0
3, 2294720, Note_on_c, 1, 77, 0
3, 2294720, Note_on_c, 1, 76, 100
3, 2294800, Note_on_c, 1, 76, 0
3, 2294800, Note_on_c, 1, 77, 100
3, 2294880, Note_on_c, 1, 77, 0
3, 2294881, Note_on_c, 1, 74, 100
3, 2294961, Note_on_c, 1, 74, 0
3, 2294961, Note_on_c, 1, 71, 100
3, 2295041, Note_on_c, 1, 71, 0
3, 2295042, Note_on_c, 1, 74, 100
3, 2295122, Note_on_c, 1, 74, 0
3, 2295122, Note_on_c, 1, 76, 100
3, 2295202, Note_on_c, 1, 76, 0
3, 2295202, Note_on_c, 1, 74, 100
3, 2295282, Note_on_c, 1, 74, 0
3, 2295283, Note_on_c, 1, 76, 100
3, 2295363, Note_on_c, 1, 76, 0
3, 2295363, Note_on_c, 1, 72, 100
3, 2295443, Note_on_c, 1, 72, 0
3, 2295444, Note_on_c, 1, 71, 100
3, 2295524, Note_on_c, 1, 71, 0
3, 2295524, Note_on_c, 1, 72, 100
3, 2295600, Note_on_c, 1, 67, 100
3, 2295604, Note_on_c, 1, 72, 0
3, 2295680, Note_on_c, 1, 67, 0
3, 2295680, Note_on_c, 1, 64, 100
3, 2295760, Note_on_c, 1, 64, 0
3, 2295760, Note_on_c, 1, 62, 100
3, 2295840, Note_on_c, 1, 62, 0
3, 2295841, Note_on_c, 1, 64, 100
3, 2295921, Note_on_c, 1, 64, 0
3, 2295921, Note_on_c, 1, 67, 100
3, 2296001, Note_on_c, 1, 67, 0
3, 2296002, Note_on_c, 1, 72, 100
3, 2296082, Note_on_c, 1, 72, 0
3, 2296082, Note_on_c, 1, 76, 100
3, 2296162, Note_on_c, 1, 76, 0
3, 2296162, Note_on_c, 1, 74, 100
3, 2296242, Note_on_c, 1, 74, 0
3, 2296243, Note_on_c, 1, 76, 100
3, 2296323, Note_on_c, 1, 76, 0
3, 2296323, Note_on_c, 1, 72, 100
3, 2296403, Note_on_c, 1, 72, 0
3, 2296404, Note_on_c, 1, 69, 100
3, 2296484, Note_on_c, 1, 69, 0
3, 2296484, Note_on_c, 1, 72, 100
3, 2296560, Note_on_c, 1, 74, 100
3, 2296564, Note_on_c, 1, 72, 0
3, 2296640, Note_on_c, 1, 74, 0
3, 2296640, Note_on_c, 1, 72, 100
3, 2296720, Note_on_c, 1, 72, 0
3, 2296720, Note_on_c, 1, 74, 100
3, 2296800, Note_on_c, 1, 74, 0
3, 2296801, Note_on_c, 1, 69, 100
3, 2296881, Note_on_c, 1, 69, 0
3, 2296881, Note_on_c, 1, 67, 100
3, 2296961, Note_on_c, 1, 67, 0
3, 2296962, Note_on_c, 1, 69, 100
3, 2297042, Note_on_c, 1, 69, 0
3, 2297042, Note_on_c, 1, 66, 100
3, 2297122, Note_on_c, 1, 66, 0
3, 2297122, Note_on_c, 1, 62, 100
3, 2297202, Note_on_c, 1, 62, 0
3, 2297203, Note_on_c, 1, 61, 100
3, 2297283, Note_on_c, 1, 61, 0
3, 2297283, Note_on_c, 1, 62, 100
3, 2297363, Note_on_c, 1, 62, 0
3, 2297364, Note_on_c, 1, 66, 100
3, 2297444, Note_on_c, 1, 66, 0
3, 2297444, Note_on_c, 1, 69, 100
3, 2297520, Note_on_c, 1, 72, 100
3, 2297524, Note_on_c, 1, 69, 0
3, 2297600, Note_on_c, 1, 72, 0
3, 2297600, Note_on_c, 1, 71, 100
3, 2297680, Note_on_c, 1, 71, 0
3, 2297680, Note_on_c, 1, 72, 100
3, 2297760, Note_on_c, 1, 72, 0
3, 2297761, Note_on_c, 1, 69, 100
3, 2297841, Note_on_c, 1, 69, 0
3, 2297841, Note_on_c, 1, 66, 100
3, 2297921, Note_on_c, 1, 66, 0
3, 2297922, Note_on_c, 1, 69, 100
3, 2298002, Note_on_c, 1, 69, 0
3, 2298002, Note_on_c, 1, 71, 100
3, 2298082, Note_on_c, 1, 71, 0
3, 2298082, Note_on_c, 1, 69, 100
3, 2298162, Note_on_c, 1, 69, 0
3, 2298163, Note_on_c, 1, 71, 100
3, 2298243, Note_on_c, 1, 71, 0
3, 2298243, Note_on_c, 1, 67, 100
3, 2298323, Note_on_c, 1, 67, 0
3, 2298324, Note_on_c, 1, 66, 100
3, 2298404, Note_on_c, 1, 66, 0
3, 2298404, Note_on_c, 1, 67, 100
3, 2298480, Note_on_c, 1, 62, 100
3, 2298484, Note_on_c, 1, 67, 0
3, 2298560, Note_on_c, 1, 62, 0
3, 2298560, Note_on_c, 1, 59, 100
3, 2298640, Note_on_c, 1, 59, 0
3, 2298640, Note_on_c, 1, 57, 100
3, 2298720, Note_on_c, 1, 57, 0
3, 2298721, Note_on_c, 1, 59, 100
3, 2298801, Note_on_c, 1, 59, 0
3, 2298801, Note_on_c, 1, 62, 100
3, 2298881, Note_on_c, 1, 62, 0
3, 2298882, Note_on_c, 1, 67, 100
3, 2298962, Note_on_c, 1, 67, 0
3, 2298962, Note_on_c, 1, 71, 100
3, 2299042, Note_on_c, 1, 71, 0
3, 2299042, Note_on_c, 1, 67, 100
3, 2299122, Note_on_c, 1, 67, 0
3, 2299123, Note_on_c, 1, 66, 100
3, 2299203, Note_on_c, 1, 66, 0
3, 2299203, Note_on_c, 1, 67, 100
3, 2299283, Note_on_c, 1, 67, 0
3, 2299284, Note_on_c, 1, 71, 100
3, 2299364, Note_on_c, 1, 71, 0
3, 2299364, Note_on_c, 1, 74, 100
3, 2299440, Note_on_c, 1, 79, 100
3, 2299444, Note_on_c, 1, 74, 0
3, 2299800, Note_on_c, 1, 79, 0
3, 2299800, Note_on_c, 1, 78, 100
3, 2299860, Note_on_c, 1, 78, 0
3, 2299860, Note_on_c, 1, 76, 100
3, 2299920, Note_on_c, 1, 76, 0
3, 2299920, Note_on_c, 1, 74, 100
3, 2300400, Note_on_c, 1, 74, 0
3, 2300640, Note_on_c, 1, 83, 100
3, 2300880, Note_on_c, 1, 83, 0
3, 2300880, Note_on_c, 1, 81, 100
3, 2301360, Note_on_c, 1, 81, 0
3, 2301360, Note_on_c, 1, 81, 100
3, 2301840, Note_on_c, 1, 81, 0
3, 2302080, Note_on_c, 1, 81, 100
3, 2302320, Note_on_c, 1, 81, 0
3, 2302320, Note_on_c, 1, 81, 100
3, 2302800, Note_on_c, 1, 81, 0
3, 2302800, Note_on_c, 1, 79, 100
3, 2303280, Note_on_c, 1, 79, 0
3, 2303520, Note_on_c, 1, 79, 100
3, 2303760, Note_on_c, 1, 79, 0
3, 2303760, Note_on_c, 1, 79, 100
3, 2304120, Note_on_c, 1, 79, 0
3, 2304120, Note_on_c, 1, 76, 100
3, 2304240, Note_on_c, 1, 76, 0
3, 2304240, Note_on_c, 1, 64, 100
3, 2304720, Note_on_c, 1, 64, 0
3, 2304960, Note_on_c, 1, 79, 100
3, 2305200, Note_on_c, 1, 79, 0
3, 2305200, Note_on_c, 1, 79, 100
3, 2305560, Note_on_c, 1, 79, 0
3, 2305560, Note_on_c, 1, 76, 100
3, 2305680, Note_on_c, 1, 76, 0
3, 2305680, Note_on_c, 1, 76, 100
3, 2305740, Note_on_c, 1, 76, 0
3, 2305740, Note_on_c, 1, 78, 100
3, 2306160, Note_on_c, 1, 78, 0
3, 2306400, Note_on_c, 1, 81, 100
3, 2306640, Note_on_c, 1, 81, 0
3, 2306640, Note_on_c, 1, 83, 100
3, 2307000, Note_on_c, 1, 83, 0
3, 2307000, Note_on_c, 1, 78, 100
3, 2307120, Note_on_c, 1, 78, 0
3, 2307120, Note_on_c, 1, 78, 100
3, 2307180, Note_on_c, 1, 78, 0
3, 2307180, Note_on_c, 1, 79, 100
3, 2307600, Note_on_c, 1, 79, 0
3, 2307840, Note_on_c, 1, 79, 100
3, 2308080, Note_on_c, 1, 79, 0
3, 2308080, Note_on_c, 1, 79, 100
3, 2308560, Note_on_c, 1, 79, 0
3, 2308560, Note_on_c, 1, 73, 100
3, 2309040, Note_on_c, 1, 73, 0
3, 2309280, Note_on_c, 1, 69, 100
3, 2309520, Note_on_c, 1, 69, 0
3, 2309520, Note_on_c, 1, 69, 100
3, 2309880, Note_on_c, 1, 69, 0
3, 2309880, Note_on_c, 1, 64, 100
3, 2310000, Note_on_c, 1, 64, 0
3, 2310000, Note_on_c, 1, 64, 100
3, 2310060, Note_on_c, 1, 64, 0
3, 2310060, Note_on_c, 1, 66, 100
3, 2310480, Note_on_c, 1, 66, 0
3, 2310960, Note_on_c, 1, 55, 100
3, 2311040, Note_on_c, 1, 55, 0
3, 2311040, Note_on_c, 1, 57, 100
3, 2311120, Note_on_c, 1, 57, 0
3, 2311120, Note_on_c, 1, 55, 100
3, 2311200, Note_on_c, 1, 55, 0
3, 2311200, Note_on_c, 1, 50, 100
3, 2311280, Note_on_c, 1, 50, 0
3, 2311280, Note_on_c, 1, 52, 100
3, 2311360, Note_on_c, 1, 52, 0
3, 2311360, Note_on_c, 1, 54, 100
3, 2311440, Note_on_c, 1, 54, 0
3, 2311440, Note_on_c, 1, 55, 100
3, 2311520, Note_on_c, 1, 55, 0
3, 2311520, Note_on_c, 1, 54, 100
3, 2311600, Note_on_c, 1, 54, 0
3, 2311600, Note_on_c, 1, 55, 100
3, 2311680, Note_on_c, 1, 55, 0
3, 2311680, Note_on_c, 1, 57, 100
3, 2311760, Note_on_c, 1, 57, 0
3, 2311760, Note_on_c, 1, 55, 100
3, 2311840, Note_on_c, 1, 55, 0
3, 2311840, Note_on_c, 1, 57, 100
3, 2311920, Note_on_c, 1, 57, 0
3, 2311920, Note_on_c, 1, 59, 100
3, 2312000, Note_on_c, 1, 59, 0
3, 2312000, Note_on_c, 1, 57, 100
3, 2312080, Note_on_c, 1, 57, 0
3, 2312080, Note_on_c, 1, 59, 100
3, 2312160, Note_on_c, 1, 59, 0
3, 2312161, Note_on_c, 1, 60, 100
3, 2312241, Note_on_c, 1, 60, 0
3, 2312241, Note_on_c, 1, 59, 100
3, 2312321, Note_on_c, 1, 59, 0
3, 2312322, Note_on_c, 1, 61, 100
3, 2312402, Note_on_c, 1, 61, 0
3, 2312402, Note_on_c, 1, 62, 100
3, 2312482, Note_on_c, 1, 62, 0
3, 2312482, Note_on_c, 1, 64, 100
3, 2312562, Note_on_c, 1, 64, 0
3, 2312563, Note_on_c, 1, 62, 100
3, 2312643, Note_on_c, 1, 62, 0
3, 2312643, Note_on_c, 1, 57, 100
3, 2312723, Note_on_c, 1, 57, 0
3, 2312724, Note_on_c, 1, 59, 100
3, 2312804, Note_on_c, 1, 59, 0
3, 2312804, Note_on_c, 1, 61, 100
3, 2312880, Note_on_c, 1, 62, 100
3, 2312884, Note_on_c, 1, 61, 0
3, 2312960, Note_on_c, 1, 62, 0
3, 2312960, Note_on_c, 1, 61, 100
3, 2313040, Note_on_c, 1, 61, 0
3, 2313040, Note_on_c, 1, 62, 100
3, 2313120, Note_on_c, 1, 62, 0
3, 2313121, Note_on_c, 1, 64, 100
3, 2313201, Note_on_c, 1, 64, 0
3, 2313201, Note_on_c, 1, 62, 100
3, 2313281, Note_on_c, 1, 62, 0
3, 2313282, Note_on_c, 1, 64, 100
3, 2313362, Note_on_c, 1, 64, 0
3, 2313362, Note_on_c, 1, 66, 100
3, 2313442, Note_on_c, 1, 66, 0
3, 2313442, Note_on_c, 1, 64, 100
3, 2313522, Note_on_c, 1, 64, 0
3, 2313523, Note_on_c, 1, 66, 100
3, 2313603, Note_on_c, 1, 66, 0
3, 2313603, Note_on_c, 1, 67, 100
3, 2313683, Note_on_c, 1, 67, 0
3, 2313684, Note_on_c, 1, 64, 100
3, 2313764, Note_on_c, 1, 64, 0
3, 2313764, Note_on_c, 1, 66, 100
3, 2313840, Note_on_c, 1, 67, 100
3, 2313844, Note_on_c, 1, 66, 0
3, 2313920, Note_on_c, 1, 67, 0
3, 2313920, Note_on_c, 1, 69, 100
3, 2314000, Note_on_c, 1, 69, 0
3, 2314000, Note_on_c, 1, 67, 100
3, 2314080, Note_on_c, 1, 67, 0
3, 2314081, Note_on_c, 1, 59, 100
3, 2314161, Note_on_c, 1, 59, 0
3, 2314161, Note_on_c, 1, 64, 100
3, 2314241, Note_on_c, 1, 64, 0
3, 2314242, Note_on_c, 1, 66, 100
3, 2314322, Note_on_c, 1, 66, 0
3, 2314322, Note_on_c, 1, 67, 100
3, 2314402, Note_on_c, 1, 67, 0
3, 2314402, Note_on_c, 1, 66, 100
3, 2314482, Note_on_c, 1, 66, 0
3, 2314483, Note_on_c, 1, 67, 100
3, 2314563, Note_on_c, 1, 67, 0
3, 2314563, Note_on_c, 1, 69, 100
3, 2314643, Note_on_c, 1, 69, 0
3, 2314644, Note_on_c, 1, 67, 100
3, 2314724, Note_on_c, 1, 67, 0
3, 2314724, Note_on_c, 1, 69, 100
3, 2314800, Note_on_c, 1, 71, 100
3, 2314804, Note_on_c, 1, 69, 0
3, 2314880, Note_on_c, 1, 71, 0
3, 2314880, Note_on_c, 1, 69, 100
3, 2314960, Note_on_c, 1, 69, 0
3, 2314960, Note_on_c, 1, 71, 100
3, 2315040, Note_on_c, 1, 71, 0
3, 2315041, Note_on_c, 1, 73, 100
3, 2315121, Note_on_c, 1, 73, 0
3, 2315121, Note_on_c, 1, 71, 100
3, 2315201, Note_on_c, 1, 71, 0
3, 2315202, Note_on_c, 1, 73, 100
3, 2315282, Note_on_c, 1, 73, 0
3, 2315282, Note_on_c, 1, 74, 100
3, 2315362, Note_on_c, 1, 74, 0
3, 2315362, Note_on_c, 1, 76, 100
3, 2315442, Note_on_c, 1, 76, 0
3, 2315443, Note_on_c, 1, 74, 100
3, 2315523, Note_on_c, 1, 74, 0
3, 2315523, Note_on_c, 1, 69, 100
3, 2315603, Note_on_c, 1, 69, 0
3, 2315604, Note_on_c, 1, 71, 100
3, 2315684, Note_on_c, 1, 71, 0
3, 2315684, Note_on_c, 1, 73, 100
3, 2315760, Note_on_c, 1, 74, 100
3, 2315764, Note_on_c, 1, 73, 0
3, 2315840, Note_on_c, 1, 74, 0
3, 2315840, Note_on_c, 1, 73, 100
3, 2315920, Note_on_c, 1, 73, 0
3, 2315920, Note_on_c, 1, 74, 100
3, 2316000, Note_on_c, 1, 74, 0
3, 2316001, Note_on_c, 1, 76, 100
3, 2316081, Note_on_c, 1, 76, 0
3, 2316081, Note_on_c, 1, 74, 100
3, 2316161, Note_on_c, 1, 74, 0
3, 2316162, Note_on_c, 1, 76, 100
3, 2316242, Note_on_c, 1, 76, 0
3, 2316242, Note_on_c, 1, 78, 100
3, 2316322, Note_on_c, 1, 78, 0
3, 2316322, Note_on_c, 1, 76, 100
3, 2316402, Note_on_c, 1, 76, 0
3, 2316403, Note_on_c, 1, 78, 100
3, 2316483, Note_on_c, 1, 78, 0
3, 2316483, Note_on_c, 1, 79, 100
3, 2316563, Note_on_c, 1, 79, 0
3, 2316564, Note_on_c, 1, 76, 100
3, 2316644, Note_on_c, 1, 76, 0
3, 2316644, Note_on_c, 1, 78, 100
3, 2316720, Note_on_c, 1, 79, 100
3, 2316724, Note_on_c, 1, 78, 0
3, 2316800, Note_on_c, 1, 79, 0
3, 2316800, Note_on_c, 1, 78, 100
3, 2316880, Note_on_c, 1, 78, 0
3, 2316880, Note_on_c, 1, 79, 100
3, 2316960, Note_on_c, 1, 79, 0
3, 2316961, Note_on_c, 1, 74, 100
3, 2317041, Note_on_c, 1, 74, 0
3, 2317041, Note_on_c, 1, 72, 100
3, 2317121, Note_on_c, 1, 72, 0
3, 2317122, Note_on_c, 1, 74, 100
3, 2317202, Note_on_c, 1, 74, 0
3, 2317202, Note_on_c, 1, 71, 100
3, 2317282, Note_on_c, 1, 71, 0
3, 2317282, Note_on_c, 1, 67, 100
3, 2317362, Note_on_c, 1, 67, 0
3, 2317363, Note_on_c, 1, 66, 100
3, 2317443, Note_on_c, 1, 66, 0
3, 2317443, Note_on_c, 1, 67, 100
3, 2317523, Note_on_c, 1, 67, 0
3, 2317524, Note_on_c, 1, 71, 100
3, 2317604, Note_on_c, 1, 71, 0
3, 2317604, Note_on_c, 1, 74, 100
3, 2317680, Note_on_c, 1, 77, 100
3, 2317684, Note_on_c, 1, 74, 0
3, 2317760, Note_on_c, 1, 77, 0
3, 2317760, Note_on_c, 1, 76, 100
3, 2317840, Note_on_c, 1, 76, 0
3, 2317840, Note_on_c, 1, 77, 100
3, 2317920, Note_on_c, 1, 77, 0
3, 2317921, Note_on_c, 1, 74, 100
3, 2318001, Note_on_c, 1, 74, 0
3, 2318001, Note_on_c, 1, 71, 100
3, 2318081, Note_on_c, 1, 71, 0
3, 2318082, Note_on_c, 1, 74, 100
3, 2318162, Note_on_c, 1, 74, 0
3, 2318162, Note_on_c, 1, 76, 100
3, 2318242, Note_on_c, 1, 76, 0
3, 2318242, Note_on_c, 1, 74, 100
3, 2318322, Note_on_c, 1, 74, 0
3, 2318323, Note_on_c, 1, 76, 100
3, 2318403, Note_on_c, 1, 76, 0
3, 2318403, Note_on_c, 1, 72, 100
3, 2318483, Note_on_c, 1, 72, 0
3, 2318484, Note_on_c, 1, 71, 100
3, 2318564, Note_on_c, 1, 71, 0
3, 2318564, Note_on_c, 1, 72, 100
3, 2318640, Note_on_c, 1, 67, 100
3, 2318644, Note_on_c, 1, 72, 0
3, 2318720, Note_on_c, 1, 67, 0
3, 2318720, Note_on_c, 1, 64, 100
3, 2318800, Note_on_c, 1, 64, 0
3, 2318800, Note_on_c, 1, 62, 100
3, 2318880, Note_on_c, 1, 62, 0
3, 2318881, Note_on_c, 1, 64, 100
3, 2318961, Note_on_c, 1, 64, 0
3, 2318961, Note_on_c, 1, 67, 100
3, 2319041, Note_on_c, 1, 67, 0
3, 2319042, Note_on_c, 1, 72, 100
3, 2319122, Note_on_c, 1, 72, 0
3, 2319122, Note_on_c, 1, 76, 100
3, 2319202, Note_on_c, 1, 76, 0
3, 2319202, Note_on_c, 1, 74, 100
3, 2319282, Note_on_c, 1, 74, 0
3, 2319283, Note_on_c, 1, 76, 100
3, 2319363, Note_on_c, 1, 76, 0
3, 2319363, Note_on_c, 1, 72, 100
3, 2319443, Note_on_c, 1, 72, 0
3, 2319444, Note_on_c, 1, 69, 100
3, 2319524, Note_on_c, 1, 69, 0
3, 2319524, Note_on_c, 1, 72, 100
3, 2319600, Note_on_c, 1, 74, 100
3, 2319604, Note_on_c, 1, 72, 0
3, 2319680, Note_on_c, 1, 74, 0
3, 2319680, Note_on_c, 1, 72, 100
3, 2319760, Note_on_c, 1, 72, 0
3, 2319760, Note_on_c, 1, 74, 100
3, 2319840, Note_on_c, 1, 74, 0
3, 2319841, Note_on_c, 1, 69, 100
3, 2319921, Note_on_c, 1, 69, 0
3, 2319921, Note_on_c, 1, 67, 100
3, 2320001, Note_on_c, 1, 67, 0
3, 2320002, Note_on_c, 1, 69, 100
3, 2320082, Note_on_c, 1, 69, 0
3, 2320082, Note_on_c, 1, 66, 100
3, 2320162, Note_on_c, 1, 66, 0
3, 2320162, Note_on_c, 1, 62, 100
3, 2320242, Note_on_c, 1, 62, 0
3, 2320243, Note_on_c, 1, 61, 100
3, 2320323, Note_on_c, 1, 61, 0
3, 2320323, Note_on_c, 1, 62, 100
3, 2320403, Note_on_c, 1, 62, 0
3, 2320404, Note_on_c, 1, 66, 100
3, 2320484, Note_on_c, 1, 66, 0
3, 2320484, Note_on_c, 1, 69, 100
3, 2320560, Note_on_c, 1, 72, 100
3, 2320564, Note_on_c, 1, 69, 0
3, 2320640, Note_on_c, 1, 72, 0
3, 2320640, Note_on_c, 1, 71, 100
3, 2320720, Note_on_c, 1, 71, 0
3, 2320720, Note_on_c, 1, 72, 100
3, 2320800, Note_on_c, 1, 72, 0
3, 2320801, Note_on_c, 1, 69, 100
3, 2320881, Note_on_c, 1, 69, 0
3, 2320881, Note_on_c, 1, 66, 100
3, 2320961, Note_on_c, 1, 66, 0
3, 2320962, Note_on_c, 1, 69, 100
3, 2321042, Note_on_c, 1, 69, 0
3, 2321042, Note_on_c, 1, 71, 100
3, 2321122, Note_on_c, 1, 71, 0
3, 2321122, Note_on_c, 1, 69, 100
3, 2321202, Note_on_c, 1, 69, 0
3, 2321203, Note_on_c, 1, 71, 100
3, 2321283, Note_on_c, 1, 71, 0
3, 2321283, Note_on_c, 1, 67, 100
3, 2321363, Note_on_c, 1, 67, 0
3, 2321364, Note_on_c, 1, 66, 100
3, 2321444, Note_on_c, 1, 66, 0
3, 2321444, Note_on_c, 1, 67, 100
3, 2321520, Note_on_c, 1, 62, 100
3, 2321524, Note_on_c, 1, 67, 0
3, 2321600, Note_on_c, 1, 62, 0
3, 2321600, Note_on_c, 1, 59, 100
3, 2321680, Note_on_c, 1, 59, 0
3, 2321680, Note_on_c, 1, 57, 100
3, 2321760, Note_on_c, 1, 57, 0
3, 2321761, Note_on_c, 1, 59, 100
3, 2321841, Note_on_c, 1, 59, 0
3, 2321841, Note_on_c, 1, 62, 100
3, 2321921, Note_on_c, 1, 62, 0
3, 2321922, Note_on_c, 1, 67, 100
3, 2322002, Note_on_c, 1, 67, 0
3, 2322002, Note_on_c, 1, 71, 100
3, 2322082, Note_on_c, 1, 71, 0
3, 2322082, Note_on_c, 1, 67, 100
3, 2322162, Note_on_c, 1, 67, 0
3, 2322163, Note_on_c, 1, 66, 100
3, 2322243, Note_on_c, 1, 66, 0
3, 2322243, Note_on_c, 1, 67, 100
3, 2322323, Note_on_c, 1, 67, 0
3, 2322324, Note_on_c, 1, 71, 100
3, 2322404, Note_on_c, 1, 71, 0
3, 2322404, Note_on_c, 1, 74, 100
3, 2322480, Note_on_c, 1, 79, 100
3, 2322484, Note_on_c, 1, 74, 0
3, 2322840, Note_on_c, 1, 79, 0
3, 2322840, Note_on_c, 1, 78, 100
3, 2322900, Note_on_c, 1, 78, 0
3, 2322900, Note_on_c, 1, 76, 100
3, 2322960, Note_on_c, 1, 76, 0
3, 2322960, Note_on_c, 1, 74, 100
3, 2323440, Note_on_c, 1, 74, 0
3, 2323680, Note_on_c, 1, 83, 100
3, 2323920, Note_on_c, 1, 83, 0
3, 2323920, Note_on_c, 1, 81, 100
3, 2324400, Note_on_c, 1, 81, 0
3, 2324400, Note_on_c, 1, 81, 100
3, 2324880, Note_on_c, 1, 81, 0
3, 2325120, Note_on_c, 1, 81, 100
3, 2325360, Note_on_c, 1, 81, 0
3, 2325360, Note_on_c, 1, 81, 100
3, 2325840, Note_on_c, 1, 81, 0
3, 2325840, Note_on_c, 1, 79, 100
3, 2326320, Note_on_c, 1, 79, 0
3, 2326560, Note_on_c, 1, 79, 100
3, 2326800, Note_on_c, 1, 79, 0
3, 2326800, Note_on_c, 1, 79, 100
3, 2327160, Note_on_c, 1, 79, 0
3, 2327160, Note_on_c, 1, 76, 100
3, 2327280, Note_on_c, 1, 76, 0
3, 2327280, Note_on_c, 1, 64, 100
3, 2327760, Note_on_c, 1, 64, 0
3, 2328000, Note_on_c, 1, 79, 100
3, 2328240, Note_on_c, 1, 79, 0
3, 2328240, Note_on_c, 1, 79, 100
3, 2328600, Note_on_c, 1, 79, 0
3, 2328600, Note_on_c, 1, 76, 100
3, 2328720, Note_on_c, 1, 76, 0
3, 2328720, Note_on_c, 1, 76, 100
3, 2328780, Note_on_c, 1, 76, 0
3, 2328780, Note_on_c, 1, 78, 100
3, 2329200, Note_on_c, 1, 78, 0
3, 2329440, Note_on_c, 1, 81, 100
3, 2329680, Note_on_c, 1, 81, 0
3, 2329680, Note_on_c, 1, 83, 100
3, 2330040, Note_on_c, 1, 83, 0
3, 2330040, Note_on_c, 1, 78, 100
3, 2330160, Note_on_c, 1, 78, 0
3, 2330160, Note_on_c, 1, 78, 100
3, 2330220, Note_on_c, 1, 78, 0
3, 2330220, Note_on_c, 1, 79, 100
3, 2330640, Note_on_c, 1, 79, 0
3, 2330880, Note_on_c, 1, 79, 100
3, 2331120, Note_on_c, 1, 79, 0
3, 2331120, Note_on_c, 1, 79, 100
3, 2331600, Note_on_c, 1, 79, 0
3, 2331600, Note_on_c, 1, 73, 100
3, 2332080, Note_on_c, 1, 73, 0
3, 2332320, Note_on_c, 1, 69, 100
3, 2332560, Note_on_c, 1, 69, 0
3, 2332560, Note_on_c, 1, 69, 100
3, 2332920, Note_on_c, 1, 69, 0
3, 2332920, Note_on_c, 1, 64, 100
3, 2333040, Note_on_c, 1, 64, 0
3, 2333040, Note_on_c, 1, 64, 100
3, 2333100, Note_on_c, 1, 64, 0
3, 2333100, Note_on_c, 1, 66, 100
3, 2333520, Note_on_c, 1, 66, 0
3, 2334000, Note_on_c, 1, 81, 100
3, 2334080, Note_on_c, 1, 81, 0
3, 2334080, Note_on_c, 1, 79, 100
3, 2334160, Note_on_c, 1, 79, 0
3, 2334160, Note_on_c, 1, 81, 100
3, 2334240, Note_on_c, 1, 81, 0
3, 2334240, Note_on_c, 1, 86, 100
3, 2334320, Note_on_c, 1, 86, 0
3, 2334320, Note_on_c, 1, 84, 100
3, 2334400, Note_on_c, 1, 84, 0
3, 2334400, Note_on_c, 1, 83, 100
3, 2334480, Note_on_c, 1, 83, 0
3, 2334480, Note_on_c, 1, 81, 100
3, 2334560, Note_on_c, 1, 81, 0
3, 2334560, Note_on_c, 1, 83, 100
3, 2334640, Note_on_c, 1, 83, 0
3, 2334640, Note_on_c, 1, 81, 100
3, 2334720, Note_on_c, 1, 81, 0
3, 2334720, Note_on_c, 1, 79, 100
3, 2334800, Note_on_c, 1, 79, 0
3, 2334800, Note_on_c, 1, 81, 100
3, 2334880, Note_on_c, 1, 81, 0
3, 2334880, Note_on_c, 1, 79, 100
3, 2334960, Note_on_c, 1, 79, 0
3, 2334960, Note_on_c, 1, 78, 100
3, 2335040, Note_on_c, 1, 78, 0
3, 2335040, Note_on_c, 1, 79, 100
3, 2335120, Note_on_c, 1, 79, 0
3, 2335120, Note_on_c, 1, 78, 100
3, 2335200, Note_on_c, 1, 78, 0
3, 2335200, Note_on_c, 1, 76, 100
3, 2335280, Note_on_c, 1, 76, 0
3, 2335280, Note_on_c, 1, 78, 100
3, 2335360, Note_on_c, 1, 78, 0
3, 2335360, Note_on_c, 1, 76, 100
3, 2335440, Note_on_c, 1, 76, 0
3, 2335440, Note_on_c, 1, 74, 100
3, 2335520, Note_on_c, 1, 74, 0
3, 2335520, Note_on_c, 1, 72, 100
3, 2335600, Note_on_c, 1, 72, 0
3, 2335600, Note_on_c, 1, 74, 100
3, 2335680, Note_on_c, 1, 74, 0
3, 2335680, Note_on_c, 1, 79, 100
3, 2335760, Note_on_c, 1, 79, 0
3, 2335760, Note_on_c, 1, 78, 100
3, 2335840, Note_on_c, 1, 78, 0
3, 2335840, Note_on_c, 1, 76, 100
3, 2335920, Note_on_c, 1, 76, 0
3, 2335920, Note_on_c, 1, 74, 100
3, 2336000, Note_on_c, 1, 74, 0
3, 2336000, Note_on_c, 1, 76, 100
3, 2336080, Note_on_c, 1, 76, 0
3, 2336080, Note_on_c, 1, 74, 100
3, 2336160, Note_on_c, 1, 74, 0
3, 2336160, Note_on_c, 1, 72, 100
3, 2336240, Note_on_c, 1, 72, 0
3, 2336240, Note_on_c, 1, 74, 100
3, 2336320, Note_on_c, 1, 74, 0
3, 2336320, Note_on_c, 1, 72, 100
3, 2336400, Note_on_c, 1, 72, 0
3, 2336400, Note_on_c, 1, 71, 100
3, 2336480, Note_on_c, 1, 71, 0
3, 2336480, Note_on_c, 1, 72, 100
3, 2336560, Note_on_c, 1, 72, 0
3, 2336560, Note_on_c, 1, 71, 100
3, 2336640, Note_on_c, 1, 71, 0
3, 2336640, Note_on_c, 1, 69, 100
3, 2336720, Note_on_c, 1, 69, 0
3, 2336720, Note_on_c, 1, 71, 100
3, 2336800, Note_on_c, 1, 71, 0
3, 2336800, Note_on_c, 1, 69, 100
3, 2336880, Note_on_c, 1, 69, 0
3, 2336880, Note_on_c, 1, 67, 100
3, 2336960, Note_on_c, 1, 67, 0
3, 2336960, Note_on_c, 1, 66, 100
3, 2337040, Note_on_c, 1, 66, 0
3, 2337040, Note_on_c, 1, 67, 100
3, 2337120, Note_on_c, 1, 67, 0
3, 2337120, Note_on_c, 1, 71, 100
3, 2337200, Note_on_c, 1, 71, 0
3, 2337200, Note_on_c, 1, 69, 100
3, 2337280, Note_on_c, 1, 69, 0
3, 2337280, Note_on_c, 1, 67, 100
3, 2337360, Note_on_c, 1, 67, 0
3, 2337360, Note_on_c, 1, 66, 100
3, 2337440, Note_on_c, 1, 66, 0
3, 2337440, Note_on_c, 1, 67, 100
3, 2337520, Note_on_c, 1, 67, 0
3, 2337520, Note_on_c, 1, 66, 100
3, 2337600, Note_on_c, 1, 66, 0
3, 2337600, Note_on_c, 1, 64, 100
3, 2337680, Note_on_c, 1, 64, 0
3, 2337680, Note_on_c, 1, 66, 100
3, 2337760, Note_on_c, 1, 66, 0
3, 2337760, Note_on_c, 1, 64, 100
3, 2337840, Note_on_c, 1, 64, 0
3, 2337840, Note_on_c, 1, 63, 100
3, 2337920, Note_on_c, 1, 63, 0
3, 2337920, Note_on_c, 1, 64, 100
3, 2338000, Note_on_c, 1, 64, 0
3, 2338000, Note_on_c, 1, 63, 100
3, 2338080, Note_on_c, 1, 63, 0
3, 2338080, Note_on_c, 1, 61, 100
3, 2338160, Note_on_c, 1, 61, 0
3, 2338160, Note_on_c, 1, 63, 100
3, 2338240, Note_on_c, 1, 63, 0
3, 2338240, Note_on_c, 1, 61, 100
3, 2338320, Note_on_c, 1, 61, 0
3, 2338320, Note_on_c, 1, 59, 100
3, 2338400, Note_on_c, 1, 59, 0
3, 2338400, Note_on_c, 1, 58, 100
3, 2338480, Note_on_c, 1, 58, 0
3, 2338480, Note_on_c, 1, 59, 100
3, 2338560, Note_on_c, 1, 59, 0
3, 2338560, Note_on_c, 1, 64, 100
3, 2338640, Note_on_c, 1, 64, 0
3, 2338640, Note_on_c, 1, 63, 100
3, 2338720, Note_on_c, 1, 63, 0
3, 2338720, Note_on_c, 1, 61, 100
3, 2338800, Note_on_c, 1, 61, 0
3, 2338800, Note_on_c, 1, 59, 100
3, 2338880, Note_on_c, 1, 59, 0
3, 2338880, Note_on_c, 1, 60, 100
3, 2338960, Note_on_c, 1, 60, 0
3, 2338960, Note_on_c, 1, 59, 100
3, 2339040, Note_on_c, 1, 59, 0
3, 2339040, Note_on_c, 1, 57, 100
3, 2339120, Note_on_c, 1, 57, 0
3, 2339120, Note_on_c, 1, 59, 100
3, 2339200, Note_on_c, 1, 59, 0
3, 2339200, Note_on_c, 1, 57, 100
3, 2339280, Note_on_c, 1, 57, 0
3, 2339280, Note_on_c, 1, 55, 100
3, 2339360, Note_on_c, 1, 55, 0
3, 2339360, Note_on_c, 1, 57, 100
3, 2339440, Note_on_c, 1, 57, 0
3, 2339440, Note_on_c, 1, 55, 100
3, 2339520, Note_on_c, 1, 55, 0
3, 2339520, Note_on_c, 1, 54, 100
3, 2339600, Note_on_c, 1, 54, 0
3, 2339600, Note_on_c, 1, 55, 100
3, 2339680, Note_on_c, 1, 55, 0
3, 2339680, Note_on_c, 1, 54, 100
3, 2339760, Note_on_c, 1, 54, 0
3, 2339760, Note_on_c, 1, 52, 100
3, 2339840, Note_on_c, 1, 52, 0
3, 2339840, Note_on_c, 1, 51, 100
3, 2339920, Note_on_c, 1, 51, 0
3, 2339920, Note_on_c, 1, 52, 100
3, 2340000, Note_on_c, 1, 52, 0
3, 2340000, Note_on_c, 1, 59, 100
3, 2340080, Note_on_c, 1, 59, 0
3, 2340080, Note_on_c, 1, 57, 100
3, 2340160, Note_on_c, 1, 57, 0
3, 2340160, Note_on_c, 1, 59, 100
3, 2340240, Note_on_c, 1, 59, 0
3, 2340240, Note_on_c, 1, 55, 100
3, 2340320, Note_on_c, 1, 55, 0
3, 2340320, Note_on_c, 1, 54, 100
3, 2340400, Note_on_c, 1, 54, 0
3, 2340400, Note_on_c, 1, 55, 100
3, 2340480, Note_on_c, 1, 55, 0
3, 2340480, Note_on_c, 1, 59, 100
3, 2340560, Note_on_c, 1, 59, 0
3, 2340560, Note_on_c, 1, 64, 100
3, 2340640, Note_on_c, 1, 64, 0
3, 2340640, Note_on_c, 1, 66, 100
3, 2340720, Note_on_c, 1, 66, 0
3, 2340720, Note_on_c, 1, 67, 100
3, 2340800, Note_on_c, 1, 67, 0
3, 2340800, Note_on_c, 1, 66, 100
3, 2340880, Note_on_c, 1, 66, 0
3, 2340880, Note_on_c, 1, 67, 100
3, 2340960, Note_on_c, 1, 67, 0
3, 2340960, Note_on_c, 1, 64, 100
3, 2341040, Note_on_c, 1, 64, 0
3, 2341040, Note_on_c, 1, 63, 100
3, 2341120, Note_on_c, 1, 63, 0
3, 2341120, Note_on_c, 1, 64, 100
3, 2341200, Note_on_c, 1, 64, 0
3, 2341200, Note_on_c, 1, 60, 100
3, 2341280, Note_on_c, 1, 60, 0
3, 2341280, Note_on_c, 1, 59, 100
3, 2341360, Note_on_c, 1, 59, 0
3, 2341360, Note_on_c, 1, 60, 100
3, 2341440, Note_on_c, 1, 60, 0
3, 2341440, Note_on_c, 1, 64, 100
3, 2341520, Note_on_c, 1, 64, 0
3, 2341520, Note_on_c, 1, 62, 100
3, 2341600, Note_on_c, 1, 62, 0
3, 2341600, Note_on_c, 1, 64, 100
3, 2341680, Note_on_c, 1, 64, 0
3, 2341680, Note_on_c, 1, 57, 100
3, 2341760, Note_on_c, 1, 57, 0
3, 2341760, Note_on_c, 1, 56, 100
3, 2341840, Note_on_c, 1, 56, 0
3, 2341840, Note_on_c, 1, 57, 100
3, 2341920, Note_on_c, 1, 57, 0
3, 2341920, Note_on_c, 1, 60, 100
3, 2342000, Note_on_c, 1, 60, 0
3, 2342000, Note_on_c, 1, 65, 100
3, 2342080, Note_on_c, 1, 65, 0
3, 2342080, Note_on_c, 1, 69, 100
3, 2342160, Note_on_c, 1, 69, 0
3, 2342160, Note_on_c, 1, 72, 100
3, 2342240, Note_on_c, 1, 72, 0
3, 2342240, Note_on_c, 1, 71, 100
3, 2342320, Note_on_c, 1, 71, 0
3, 2342320, Note_on_c, 1, 72, 100
3, 2342400, Note_on_c, 1, 72, 0
3, 2342400, Note_on_c, 1, 69, 100
3, 2342480, Note_on_c, 1, 69, 0
3, 2342480, Note_on_c, 1, 66, 100
3, 2342560, Note_on_c, 1, 66, 0
3, 2342560, Note_on_c, 1, 69, 100
3, 2342640, Note_on_c, 1, 69, 0
3, 2342640, Note_on_c, 1, 63, 100
3, 2342720, Note_on_c, 1, 63, 0
3, 2342720, Note_on_c, 1, 61, 100
3, 2342800, Note_on_c, 1, 61, 0
3, 2342800, Note_on_c, 1, 63, 100
3, 2342880, Note_on_c, 1, 63, 0
3, 2342880, Note_on_c, 1, 66, 100
3, 2342960, Note_on_c, 1, 66, 0
3, 2342960, Note_on_c, 1, 64, 100
3, 2343040, Note_on_c, 1, 64, 0
3, 2343040, Note_on_c, 1, 66, 100
3, 2343120, Note_on_c, 1, 66, 0
3, 2343120, Note_on_c, 1, 59, 100
3, 2343200, Note_on_c, 1, 59, 0
3, 2343200, Note_on_c, 1, 58, 100
3, 2343280, Note_on_c, 1, 58, 0
3, 2343280, Note_on_c, 1, 59, 100
3, 2343360, Note_on_c, 1, 59, 0
3, 2343360, Note_on_c, 1, 63, 100
3, 2343440, Note_on_c, 1, 63, 0
3, 2343440, Note_on_c, 1, 66, 100
3, 2343520, Note_on_c, 1, 66, 0
3, 2343520, Note_on_c, 1, 67, 100
3, 2343600, Note_on_c, 1, 67, 0
3, 2343600, Note_on_c, 1, 69, 100
3, 2343680, Note_on_c, 1, 69, 0
3, 2343680, Note_on_c, 1, 67, 100
3, 2343760, Note_on_c, 1, 67, 0
3, 2343760, Note_on_c, 1, 69, 100
3, 2343840, Note_on_c, 1, 69, 0
3, 2343840, Note_on_c, 1, 66, 100
3, 2343920, Note_on_c, 1, 66, 0
3, 2343920, Note_on_c, 1, 63, 100
3, 2344000, Note_on_c, 1, 63, 0
3, 2344000, Note_on_c, 1, 66, 100
3, 2344080, Note_on_c, 1, 66, 0
3, 2344080, Note_on_c, 1, 67, 100
3, 2344160, Note_on_c, 1, 67, 0
3, 2344160, Note_on_c, 1, 66, 100
3, 2344240, Note_on_c, 1, 66, 0
3, 2344240, Note_on_c, 1, 67, 100
3, 2344320, Note_on_c, 1, 67, 0
3, 2344320, Note_on_c, 1, 71, 100
3, 2344400, Note_on_c, 1, 71, 0
3, 2344400, Note_on_c, 1, 69, 100
3, 2344480, Note_on_c, 1, 69, 0
3, 2344480, Note_on_c, 1, 71, 100
3, 2344560, Note_on_c, 1, 71, 0
3, 2344560, Note_on_c, 1, 64, 100
3, 2344640, Note_on_c, 1, 64, 0
3, 2344640, Note_on_c, 1, 63, 100
3, 2344720, Note_on_c, 1, 63, 0
3, 2344720, Note_on_c, 1, 64, 100
3, 2344800, Note_on_c, 1, 64, 0
3, 2344800, Note_on_c, 1, 67, 100
3, 2344880, Note_on_c, 1, 67, 0
3, 2344880, Note_on_c, 1, 71, 100
3, 2344960, Note_on_c, 1, 71, 0
3, 2344960, Note_on_c, 1, 75, 100
3, 2345040, Note_on_c, 1, 75, 0
3, 2345040, Note_on_c, 1, 76, 100
3, 2345120, Note_on_c, 1, 76, 0
3, 2345120, Note_on_c, 1, 72, 100
3, 2345200, Note_on_c, 1, 72, 0
3, 2345200, Note_on_c, 1, 71, 100
3, 2345280, Note_on_c, 1, 71, 0
3, 2345280, Note_on_c, 1, 69, 100
3, 2345360, Note_on_c, 1, 69, 0
3, 2345360, Note_on_c, 1, 67, 100
3, 2345440, Note_on_c, 1, 67, 0
3, 2345440, Note_on_c, 1, 66, 100
3, 2345520, Note_on_c, 1, 66, 0
3, 2345520, Note_on_c, 1, 64, 100
3, 2345760, Note_on_c, 1, 64, 0
3, 2346360, Note_on_c, 1, 79, 100
3, 2346480, Note_on_c, 1, 79, 0
3, 2346480, Note_on_c, 1, 79, 100
3, 2346540, Note_on_c, 1, 79, 0
3, 2346540, Note_on_c, 1, 78, 100
3, 2346840, Note_on_c, 1, 78, 0
3, 2346840, Note_on_c, 1, 76, 100
3, 2346960, Note_on_c, 1, 76, 0
3, 2346960, Note_on_c, 1, 76, 100
3, 2347020, Note_on_c, 1, 76, 0
3, 2347020, Note_on_c, 1, 74, 100
3, 2347800, Note_on_c, 1, 74, 0
3, 2347800, Note_on_c, 1, 77, 100
3, 2347920, Note_on_c, 1, 77, 0
3, 2347920, Note_on_c, 1, 77, 100
3, 2347980, Note_on_c, 1, 77, 0
3, 2347980, Note_on_c, 1, 76, 100
3, 2348280, Note_on_c, 1, 76, 0
3, 2348280, Note_on_c, 1, 74, 100
3, 2348400, Note_on_c, 1, 74, 0
3, 2348400, Note_on_c, 1, 74, 100
3, 2348460, Note_on_c, 1, 74, 0
3, 2348460, Note_on_c, 1, 72, 100
3, 2349720, Note_on_c, 1, 72, 0
3, 2349720, Note_on_c, 1, 72, 100
3, 2349840, Note_on_c, 1, 72, 0
3, 2349840, Note_on_c, 1, 72, 100
3, 2350080, Note_on_c, 1, 72, 0
3, 2350800, Note_on_c, 1, 66, 100
3, 2351040, Note_on_c, 1, 66, 0
3, 2351280, Note_on_c, 1, 67, 100
3, 2351520, Note_on_c, 1, 67, 0
3, 2352240, Note_on_c, 1, 71, 100
3, 2352480, Note_on_c, 1, 71, 0
3, 2352720, Note_on_c, 1, 72, 100
3, 2352960, Note_on_c, 1, 72, 0
3, 2357040, Note_on_c, 1, 81, 100
3, 2357120, Note_on_c, 1, 81, 0
3, 2357120, Note_on_c, 1, 79, 100
3, 2357200, Note_on_c, 1, 79, 0
3, 2357200, Note_on_c, 1, 81, 100
3, 2357280, Note_on_c, 1, 81, 0
3, 2357280, Note_on_c, 1, 86, 100
3, 2357360, Note_on_c, 1, 86, 0
3, 2357360, Note_on_c, 1, 84, 100
3, 2357440, Note_on_c, 1, 84, 0
3, 2357440, Note_on_c, 1, 83, 100
3, 2357520, Note_on_c, 1, 83, 0
3, 2357520, Note_on_c, 1, 81, 100
3, 2357600, Note_on_c, 1, 81, 0
3, 2357600, Note_on_c, 1, 83, 100
3, 2357680, Note_on_c, 1, 83, 0
3, 2357680, Note_on_c, 1, 81, 100
3, 2357760, Note_on_c, 1, 81, 0
3, 2357760, Note_on_c, 1, 79, 100
3, 2357840, Note_on_c, 1, 79, 0
3, 2357840, Note_on_c, 1, 81, 100
3, 2357920, Note_on_c, 1, 81, 0
3, 2357920, Note_on_c, 1, 79, 100
3, 2358000, Note_on_c, 1, 79, 0
3, 2358000, Note_on_c, 1, 78, 100
3, 2358080, Note_on_c, 1, 78, 0
3, 2358080, Note_on_c, 1, 79, 100
3, 2358160, Note_on_c, 1, 79, 0
3, 2358160, Note_on_c, 1, 78, 100
3, 2358240, Note_on_c, 1, 78, 0
3, 2358240, Note_on_c, 1, 76, 100
3, 2358320, Note_on_c, 1, 76, 0
3, 2358320, Note_on_c, 1, 78, 100
3, 2358400, Note_on_c, 1, 78, 0
3, 2358400, Note_on_c, 1, 76, 100
3, 2358480, Note_on_c, 1, 76, 0
3, 2358480, Note_on_c, 1, 74, 100
3, 2358560, Note_on_c, 1, 74, 0
3, 2358560, Note_on_c, 1, 72, 100
3, 2358640, Note_on_c, 1, 72, 0
3, 2358640, Note_on_c, 1, 74, 100
3, 2358720, Note_on_c, 1, 74, 0
3, 2358720, Note_on_c, 1, 79, 100
3, 2358800, Note_on_c, 1, 79, 0
3, 2358800, Note_on_c, 1, 78, 100
3, 2358880, Note_on_c, 1, 78, 0
3, 2358880, Note_on_c, 1, 76, 100
3, 2358960, Note_on_c, 1, 76, 0
3, 2358960, Note_on_c, 1, 74, 100
3, 2359040, Note_on_c, 1, 74, 0
3, 2359040, Note_on_c, 1, 76, 100
3, 2359120, Note_on_c, 1, 76, 0
3, 2359120, Note_on_c, 1, 74, 100
3, 2359200, Note_on_c, 1, 74, 0
3, 2359200, Note_on_c, 1, 72, 100
3, 2359280, Note_on_c, 1, 72, 0
3, 2359280, Note_on_c, 1, 74, 100
3, 2359360, Note_on_c, 1, 74, 0
3, 2359360, Note_on_c, 1, 72, 100
3, 2359440, Note_on_c, 1, 72, 0
3, 2359440, Note_on_c, 1, 71, 100
3, 2359520, Note_on_c, 1, 71, 0
3, 2359520, Note_on_c, 1, 72, 100
3, 2359600, Note_on_c, 1, 72, 0
3, 2359600, Note_on_c, 1, 71, 100
3, 2359680, Note_on_c, 1, 71, 0
3, 2359680, Note_on_c, 1, 69, 100
3, 2359760, Note_on_c, 1, 69, 0
3, 2359760, Note_on_c, 1, 71, 100
3, 2359840, Note_on_c, 1, 71, 0
3, 2359840, Note_on_c, 1, 69, 100
3, 2359920, Note_on_c, 1, 69, 0
3, 2359920, Note_on_c, 1, 67, 100
3, 2360000, Note_on_c, 1, 67, 0
3, 2360000, Note_on_c, 1, 66, 100
3, 2360080, Note_on_c, 1, 66, 0
3, 2360080, Note_on_c, 1, 67, 100
3, 2360160, Note_on_c, 1, 67, 0
3, 2360160, Note_on_c, 1, 71, 100
3, 2360240, Note_on_c, 1, 71, 0
3, 2360240, Note_on_c, 1, 69, 100
3, 2360320, Note_on_c, 1, 69, 0
3, 2360320, Note_on_c, 1, 67, 100
3, 2360400, Note_on_c, 1, 67, 0
3, 2360400, Note_on_c, 1, 66, 100
3, 2360480, Note_on_c, 1, 66, 0
3, 2360480, Note_on_c, 1, 67, 100
3, 2360560, Note_on_c, 1, 67, 0
3, 2360560, Note_on_c, 1, 66, 100
3, 2360640, Note_on_c, 1, 66, 0
3, 2360640, Note_on_c, 1, 64, 100
3, 2360720, Note_on_c, 1, 64, 0
3, 2360720, Note_on_c, 1, 66, 100
3, 2360800, Note_on_c, 1, 66, 0
3, 2360800, Note_on_c, 1, 64, 100
3, 2360880, Note_on_c, 1, 64, 0
3, 2360880, Note_on_c, 1, 63, 100
3, 2360960, Note_on_c, 1, 63, 0
3, 2360960, Note_on_c, 1, 64, 100
3, 2361040, Note_on_c, 1, 64, 0
3, 2361040, Note_on_c, 1, 63, 100
3, 2361120, Note_on_c, 1, 63, 0
3, 2361120, Note_on_c, 1, 61, 100
3, 2361200, Note_on_c, 1, 61, 0
3, 2361200, Note_on_c, 1, 63, 100
3, 2361280, Note_on_c, 1, 63, 0
3, 2361280, Note_on_c, 1, 61, 100
3, 2361360, Note_on_c, 1, 61, 0
3, 2361360, Note_on_c, 1, 59, 100
3, 2361440, Note_on_c, 1, 59, 0
3, 2361440, Note_on_c, 1, 58, 100
3, 2361520, Note_on_c, 1, 58, 0
3, 2361520, Note_on_c, 1, 59, 100
3, 2361600, Note_on_c, 1, 59, 0
3, 2361600, Note_on_c, 1, 64, 100
3, 2361680, Note_on_c, 1, 64, 0
3, 2361680, Note_on_c, 1, 63, 100
3, 2361760, Note_on_c, 1, 63, 0
3, 2361760, Note_on_c, 1, 61, 100
3, 2361840, Note_on_c, 1, 61, 0
3, 2361840, Note_on_c, 1, 59, 100
3, 2361920, Note_on_c, 1, 59, 0
3, 2361920, Note_on_c, 1, 60, 100
3, 2362000, Note_on_c, 1, 60, 0
3, 2362000, Note_on_c, 1, 59, 100
3, 2362080, Note_on_c, 1, 59, 0
3, 2362080, Note_on_c, 1, 57, 100
3, 2362160, Note_on_c, 1, 57, 0
3, 2362160, Note_on_c, 1, 59, 100
3, 2362240, Note_on_c, 1, 59, 0
3, 2362240, Note_on_c, 1, 57, 100
3, 2362320, Note_on_c, 1, 57, 0
3, 2362320, Note_on_c, 1, 55, 100
3, 2362400, Note_on_c, 1, 55, 0
3, 2362400, Note_on_c, 1, 57, 100
3, 2362480, Note_on_c, 1, 57, 0
3, 2362480, Note_on_c, 1, 55, 100
3, 2362560, Note_on_c, 1, 55, 0
3, 2362560, Note_on_c, 1, 54, 100
3, 2362640, Note_on_c, 1, 54, 0
3, 2362640, Note_on_c, 1, 55, 100
3, 2362720, Note_on_c, 1, 55, 0
3, 2362720, Note_on_c, 1, 54, 100
3, 2362800, Note_on_c, 1, 54, 0
3, 2362800, Note_on_c, 1, 52, 100
3, 2362880, Note_on_c, 1, 52, 0
3, 2362880, Note_on_c, 1, 51, 100
3, 2362960, Note_on_c, 1, 51, 0
3, 2362960, Note_on_c, 1, 52, 100
3, 2363040, Note_on_c, 1, 52, 0
3, 2363040, Note_on_c, 1, 59, 100
3, 2363120, Note_on_c, 1, 59, 0
3, 2363120, Note_on_c, 1, 57, 100
3, 2363200, Note_on_c, 1, 57, 0
3, 2363200, Note_on_c, 1, 59, 100
3, 2363280, Note_on_c, 1, 59, 0
3, 2363280, Note_on_c, 1, 55, 100
3, 2363360, Note_on_c, 1, 55, 0
3, 2363360, Note_on_c, 1, 54, 100
3, 2363440, Note_on_c, 1, 54, 0
3, 2363440, Note_on_c, 1, 55, 100
3, 2363520, Note_on_c, 1, 55, 0
3, 2363520, Note_on_c, 1, 59, 100
3, 2363600, Note_on_c, 1, 59, 0
3, 2363600, Note_on_c, 1, 64, 100
3, 2363680, Note_on_c, 1, 64, 0
3, 2363680, Note_on_c, 1, 66, 100
3, 2363760, Note_on_c, 1, 66, 0
3, 2363760, Note_on_c, 1, 67, 100
3, 2363840, Note_on_c, 1, 67, 0
3, 2363840, Note_on_c, 1, 66, 100
3, 2363920, Note_on_c, 1, 66, 0
3, 2363920, Note_on_c, 1, 67, 100
3, 2364000, Note_on_c, 1, 67, 0
3, 2364000, Note_on_c, 1, 64, 100
3, 2364080, Note_on_c, 1, 64, 0
3, 2364080, Note_on_c, 1, 63, 100
3, 2364160, Note_on_c, 1, 63, 0
3, 2364160, Note_on_c, 1, 64, 100
3, 2364240, Note_on_c, 1, 64, 0
3, 2364240, Note_on_c, 1, 60, 100
3, 2364320, Note_on_c, 1, 60, 0
3, 2364320, Note_on_c, 1, 59, 100
3, 2364400, Note_on_c, 1, 59, 0
3, 2364400, Note_on_c, 1, 60, 100
3, 2364480, Note_on_c, 1, 60, 0
3, 2364480, Note_on_c, 1, 64, 100
3, 2364560, Note_on_c, 1, 64, 0
3, 2364560, Note_on_c, 1, 62, 100
3, 2364640, Note_on_c, 1, 62, 0
3, 2364640, Note_on_c, 1, 64, 100
3, 2364720, Note_on_c, 1, 64, 0
3, 2364720, Note_on_c, 1, 57, 100
3, 2364800, Note_on_c, 1, 57, 0
3, 2364800, Note_on_c, 1, 56, 100
3, 2364880, Note_on_c, 1, 56, 0
3, 2364880, Note_on_c, 1, 57, 100
3, 2364960, Note_on_c, 1, 57, 0
3, 2364960, Note_on_c, 1, 60, 100
3, 2365040, Note_on_c, 1, 60, 0
3, 2365040, Note_on_c, 1, 65, 100
3, 2365120, Note_on_c, 1, 65, 0
3, 2365120, Note_on_c, 1, 69, 100
3, 2365200, Note_on_c, 1, 69, 0
3, 2365200, Note_on_c, 1, 72, 100
3, 2365280, Note_on_c, 1, 72, 0
3, 2365280, Note_on_c, 1, 71, 100
3, 2365360, Note_on_c, 1, 71, 0
3, 2365360, Note_on_c, 1, 72, 100
3, 2365440, Note_on_c, 1, 72, 0
3, 2365440, Note_on_c, 1, 69, 100
3, 2365520, Note_on_c, 1, 69, 0
3, 2365520, Note_on_c, 1, 66, 100
3, 2365600, Note_on_c, 1, 66, 0
3, 2365600, Note_on_c, 1, 69, 100
3, 2365680, Note_on_c, 1, 69, 0
3, 2365680, Note_on_c, 1, 63, 100
3, 2365760, Note_on_c, 1, 63, 0
3, 2365760, Note_on_c, 1, 61, 100
3, 2365840, Note_on_c, 1, 61, 0
3, 2365840, Note_on_c, 1, 63, 100
3, 2365920, Note_on_c, 1, 63, 0
3, 2365920, Note_on_c, 1, 66, 100
3, 2366000, Note_on_c, 1, 66, 0
3, 2366000, Note_on_c, 1, 64, 100
3, 2366080, Note_on_c, 1, 64, 0
3, 2366080, Note_on_c, 1, 66, 100
3, 2366160, Note_on_c, 1, 66, 0
3, 2366160, Note_on_c, 1, 59, 100
3, 2366240, Note_on_c, 1, 59, 0
3, 2366240, Note_on_c, 1, 58, 100
3, 2366320, Note_on_c, 1, 58, 0
3, 2366320, Note_on_c, 1, 59, 100
3, 2366400, Note_on_c, 1, 59, 0
3, 2366400, Note_on_c, 1, 63, 100
3, 2366480, Note_on_c, 1, 63, 0
3, 2366480, Note_on_c, 1, 66, 100
3, 2366560, Note_on_c, 1, 66, 0
3, 2366560, Note_on_c, 1, 67, 100
3, 2366640, Note_on_c, 1, 67, 0
3, 2366640, Note_on_c, 1, 69, 100
3, 2366720, Note_on_c, 1, 69, 0
3, 2366720, Note_on_c, 1, 67, 100
3, 2366800, Note_on_c, 1, 67, 0
3, 2366800, Note_on_c, 1, 69, 100
3, 2366880, Note_on_c, 1, 69, 0
3, 2366880, Note_on_c, 1, 66, 100
3, 2366960, Note_on_c, 1, 66, 0
3, 2366960, Note_on_c, 1, 63, 100
3, 2367040, Note_on_c, 1, 63, 0
3, 2367040, Note_on_c, 1, 66, 100
3, 2367120, Note_on_c, 1, 66, 0
3, 2367120, Note_on_c, 1, 67, 100
3, 2367200, Note_on_c, 1, 67, 0
3, 2367200, Note_on_c, 1, 66, 100
3, 2367280, Note_on_c, 1, 66, 0
3, 2367280, Note_on_c, 1, 67, 100
3, 2367360, Note_on_c, 1, 67, 0
3, 2367360, Note_on_c, 1, 71, 100
3, 2367440, Note_on_c, 1, 71, 0
3, 2367440, Note_on_c, 1, 69, 100
3, 2367520, Note_on_c, 1, 69, 0
3, 2367520, Note_on_c, 1, 71, 100
3, 2367600, Note_on_c, 1, 71, 0
3, 2367600, Note_on_c, 1, 64, 100
3, 2367680, Note_on_c, 1, 64, 0
3, 2367680, Note_on_c, 1, 63, 100
3, 2367760, Note_on_c, 1, 63, 0
3, 2367760, Note_on_c, 1, 64, 100
3, 2367840, Note_on_c, 1, 64, 0
3, 2367840, Note_on_c, 1, 67, 100
3, 2367920, Note_on_c, 1, 67, 0
3, 2367920, Note_on_c, 1, 71, 100
3, 2368000, Note_on_c, 1, 71, 0
3, 2368000, Note_on_c, 1, 75, 100
3, 2368080, Note_on_c, 1, 75, 0
3, 2368080, Note_on_c, 1, 76, 100
3, 2368160, Note_on_c, 1, 76, 0
3, 2368160, Note_on_c, 1, 72, 100
3, 2368240, Note_on_c, 1, 72, 0
3, 2368240, Note_on_c, 1, 71, 100
3, 2368320, Note_on_c, 1, 71, 0
3, 2368320, Note_on_c, 1, 69, 100
3, 2368400, Note_on_c, 1, 69, 0
3, 2368400, Note_on_c, 1, 67, 100
3, 2368480, Note_on_c, 1, 67, 0
3, 2368480, Note_on_c, 1, 66, 100
3, 2368560, Note_on_c, 1, 66, 0
3, 2368560, Note_on_c, 1, 64, 100
3, 2368800, Note_on_c, 1, 64, 0
3, 2369400, Note_on_c, 1, 79, 100
3, 2369520, Note_on_c, 1, 79, 0
3, 2369520, Note_on_c, 1, 79, 100
3, 2369580, Note_on_c, 1, 79, 0
3, 2369580, Note_on_c, 1, 78, 100
3, 2369880, Note_on_c, 1, 78, 0
3, 2369880, Note_on_c, 1, 76, 100
3, 2370000, Note_on_c, 1, 76, 0
3, 2370000, Note_on_c, 1, 76, 100
3, 2370060, Note_on_c, 1, 76, 0
3, 2370060, Note_on_c, 1, 74, 100
3, 2370840, Note_on_c, 1, 74, 0
3, 2370840, Note_on_c, 1, 77, 100
3, 2370960, Note_on_c, 1, 77, 0
3, 2370960, Note_on_c, 1, 77, 100
3, 2371020, Note_on_c, 1, 77, 0
3, 2371020, Note_on_c, 1, 76, 100
3, 2371320, Note_on_c, 1, 76, 0
3, 2371320, Note_on_c, 1, 74, 100
3, 2371440, Note_on_c, 1, 74, 0
3, 2371440, Note_on_c, 1, 74, 100
3, 2371500, Note_on_c, 1, 74, 0
3, 2371500, Note_on_c, 1, 72, 100
3, 2372760, Note_on_c, 1, 72, 0
3, 2372760, Note_on_c, 1, 72, 100
3, 2372880, Note_on_c, 1, 72, 0
3, 2372880, Note_on_c, 1, 72, 100
3, 2373120, Note_on_c, 1, 72, 0
3, 2373840, Note_on_c, 1, 66, 100
3, 2374080, Note_on_c, 1, 66, 0
3, 2374320, Note_on_c, 1, 67, 100
3, 2374560, Note_on_c, 1, 67, 0
3, 2375280, Note_on_c, 1, 71, 100
3, 2375520, Note_on_c, 1, 71, 0
3, 2375760, Note_on_c, 1, 72, 100
3, 2376000, Note_on_c, 1, 72, 0
3, 2866200, Note_on_c, 1, 62, 100
3, 2866320, Note_on_c, 1, 62, 0
3, 2866320, Note_on_c, 1, 64, 100
3, 2866440, Note_on_c, 1, 64, 0
3, 2866440, Note_on_c, 1, 66, 100
3, 2866560, Note_on_c, 1, 66, 0
3, 2866560, Note_on_c, 1, 67, 100
3, 2866800, Note_on_c, 1, 67, 0
3, 2866800, Note_on_c, 1, 68, 100
3, 2867040, Note_on_c, 1, 68, 0
3, 2867040, Note_on_c, 1, 69, 100
3, 2867280, Note_on_c, 1, 69, 0
3, 2867280, Note_on_c, 1, 64, 100
3, 2867520, Note_on_c, 1, 64, 0
3, 2867520, Note_on_c, 1, 65, 100
3, 2867760, Note_on_c, 1, 65, 0
3, 2867760, Note_on_c, 1, 66, 100
3, 2868000, Note_on_c, 1, 66, 0
3, 2868000, Note_on_c, 1, 67, 100
3, 2868480, Note_on_c, 1, 67, 0
3, 2868600, Note_on_c, 1, 64, 100
3, 2868720, Note_on_c, 1, 64, 0
3, 2868720, Note_on_c, 1, 62, 100
3, 2868840, Note_on_c, 1, 62, 0
3, 2868840, Note_on_c, 1, 61, 100
3, 2868960, Note_on_c, 1, 61, 0
3, 2868960, Note_on_c, 1, 62, 100
3, 2869080, Note_on_c, 1, 62, 0
3, 2869080, Note_on_c, 1, 66, 100
3, 2869200, Note_on_c, 1, 66, 0
3, 2869200, Note_on_c, 1, 69, 100
3, 2869560, Note_on_c, 1, 69, 0
3, 2869560, Note_on_c, 1, 67, 100
3, 2869620, Note_on_c, 1, 67, 0
3, 2869620, Note_on_c, 1, 66, 100
3, 2869680, Note_on_c, 1, 66, 0
3, 2869680, Note_on_c, 1, 67, 100
3, 2869800, Note_on_c, 1, 67, 0
3, 2869800, Note_on_c, 1, 69, 100
3, 2869920, Note_on_c, 1, 69, 0
3, 2869920, Note_on_c, 1, 71, 100
3, 2870040, Note_on_c, 1, 71, 0
3, 2870040, Note_on_c, 1, 62, 100
3, 2870160, Note_on_c, 1, 62, 0
3, 2870160, Note_on_c, 1, 64, 100
3, 2870280, Note_on_c, 1, 64, 0
3, 2870280, Note_on_c, 1, 66, 100
3, 2870400, Note_on_c, 1, 66, 0
3, 2870400, Note_on_c, 1, 67, 100
3, 2870640, Note_on_c, 1, 67, 0
3, 2870640, Note_on_c, 1, 68, 100
3, 2870880, Note_on_c, 1, 68, 0
3, 2870880, Note_on_c, 1, 69, 100
3, 2871120, Note_on_c, 1, 69, 0
3, 2871120, Note_on_c, 1, 64, 100
3, 2871360, Note_on_c, 1, 64, 0
3, 2871360, Note_on_c, 1, 65, 100
3, 2871600, Note_on_c, 1, 65, 0
3, 2871600, Note_on_c, 1, 66, 100
3, 2871840, Note_on_c, 1, 66, 0
3, 2871840, Note_on_c, 1, 67, 100
3, 2872320, Note_on_c, 1, 67, 0
3, 2872440, Note_on_c, 1, 64, 100
3, 2872560, Note_on_c, 1, 64, 0
3, 2872560, Note_on_c, 1, 62, 100
3, 2872680, Note_on_c, 1, 62, 0
3, 2872680, Note_on_c, 1, 61, 100
3, 2872800, Note_on_c, 1, 61, 0
3, 2872800, Note_on_c, 1, 62, 100
3, 2872920, Note_on_c, 1, 62, 0
3, 2872920, Note_on_c, 1, 66, 100
3, 2873040, Note_on_c, 1, 66, 0
3, 2873040, Note_on_c, 1, 69, 100
3, 2873400, Note_on_c, 1, 69, 0
3, 2873400, Note_on_c, 1, 67, 100
3, 2873460, Note_on_c, 1, 67, 0
3, 2873460, Note_on_c, 1, 66, 100
3, 2873520, Note_on_c, 1, 66, 0
3, 2873520, Note_on_c, 1, 67, 100
3, 2873640, Note_on_c, 1, 67, 0
3, 2873640, Note_on_c, 1, 69, 100
3, 2873760, Note_on_c, 1, 69, 0
3, 2873760, Note_on_c, 1, 71, 100
3, 2873880, Note_on_c, 1, 71, 0
3, 2873880, Note_on_c, 1, 62, 100
3, 2874000, Note_on_c, 1, 62, 0
3, 2874000, Note_on_c, 1, 64, 100
3, 2874120, Note_on_c, 1, 64, 0
3, 2874120, Note_on_c, 1, 66, 100
3, 2874240, Note_on_c, 1, 66, 0
3, 2874240, Note_on_c, 1, 67, 100
3, 2874480, Note_on_c, 1, 67, 0
3, 2874480, Note_on_c, 1, 68, 100
3, 2874720, Note_on_c, 1, 68, 0
3, 2874720, Note_on_c, 1, 69, 100
3, 2874960, Note_on_c, 1, 69, 0
3, 2874960, Note_on_c, 1, 64, 100
3, 2875200, Note_on_c, 1, 64, 0
3, 2875200, Note_on_c, 1, 65, 100
3, 2875440, Note_on_c, 1, 65, 0
3, 2875440, Note_on_c, 1, 66, 100
3, 2875680, Note_on_c, 1, 66, 0
3, 2875680, Note_on_c, 1, 67, 100
3, 2876640, Note_on_c, 1, 67, 0
3, 2877240, Note_on_c, 1, 67, 100
3, 2877360, Note_on_c, 1, 67, 0
3, 2877360, Note_on_c, 1, 66, 100
3, 2877480, Note_on_c, 1, 66, 0
3, 2877480, Note_on_c, 1, 64, 100
3, 2877600, Note_on_c, 1, 64, 0
3, 2877600, Note_on_c, 1, 62, 100
3, 2877720, Note_on_c, 1, 62, 0
3, 2877720, Note_on_c, 1, 59, 100
3, 2877840, Note_on_c, 1, 59, 0
3, 2877840, Note_on_c, 1, 60, 100
3, 2877960, Note_on_c, 1, 60, 0
3, 2877960, Note_on_c, 1, 62, 100
3, 2878080, Note_on_c, 1, 62, 0
3, 2878080, Note_on_c, 1, 55, 100
3, 2878680, Note_on_c, 1, 55, 0
3, 2878680, Note_on_c, 1, 54, 100
3, 2878800, Note_on_c, 1, 54, 0
3, 2878800, Note_on_c, 1, 55, 100
3, 2878920, Note_on_c, 1, 55, 0
3, 2878920, Note_on_c, 1, 57, 100
3, 2879040, Note_on_c, 1, 57, 0
3, 2879040, Note_on_c, 1, 55, 100
3, 2879640, Note_on_c, 1, 55, 0
3, 2879640, Note_on_c, 1, 71, 100
3, 2879760, Note_on_c, 1, 71, 0
3, 2879760, Note_on_c, 1, 69, 100
3, 2879880, Note_on_c, 1, 69, 0
3, 2879880, Note_on_c, 1, 67, 100
3, 2880000, Note_on_c, 1, 67, 0
3, 2880000, Note_on_c, 1, 66, 100
3, 2880120, Note_on_c, 1, 66, 0
3, 2880120, Note_on_c, 1, 62, 100
3, 2880240, Note_on_c, 1, 62, 0
3, 2880240, Note_on_c, 1, 64, 100
3, 2880360, Note_on_c, 1, 64, 0
3, 2880360, Note_on_c, 1, 66, 100
3, 2880480, Note_on_c, 1, 66, 0
3, 2880480, Note_on_c, 1, 59, 100
3, 2880720, Note_on_c, 1, 59, 0
3, 2880720, Note_on_c, 1, 60, 100
3, 2880960, Note_on_c, 1, 60, 0
3, 2880960, Note_on_c, 1, 62, 100
3, 2881080, Note_on_c, 1, 62, 0
3, 2881080, Note_on_c, 1, 67, 100
3, 2881200, Note_on_c, 1, 67, 0
3, 2881200, Note_on_c, 1, 66, 100
3, 2881320, Note_on_c, 1, 66, 0
3, 2881320, Note_on_c, 1, 64, 100
3, 2881440, Note_on_c, 1, 64, 0
3, 2881440, Note_on_c, 1, 62, 100
3, 2881560, Note_on_c, 1, 62, 0
3, 2881560, Note_on_c, 1, 59, 100
3, 2881680, Note_on_c, 1, 59, 0
3, 2881680, Note_on_c, 1, 60, 100
3, 2881800, Note_on_c, 1, 60, 0
3, 2881800, Note_on_c, 1, 62, 100
3, 2881920, Note_on_c, 1, 62, 0
3, 2881920, Note_on_c, 1, 55, 100
3, 2882520, Note_on_c, 1, 55, 0
3, 2882520, Note_on_c, 1, 54, 100
3, 2882640, Note_on_c, 1, 54, 0
3, 2882640, Note_on_c, 1, 55, 100
3, 2882760, Note_on_c, 1, 55, 0
3, 2882760, Note_on_c, 1, 57, 100
3, 2882880, Note_on_c, 1, 57, 0
3, 2882880, Note_on_c, 1, 55, 100
3, 2883480, Note_on_c, 1, 55, 0
3, 2883480, Note_on_c, 1, 71, 100
3, 2883600, Note_on_c, 1, 71, 0
3, 2883600, Note_on_c, 1, 69, 100
3, 2883720, Note_on_c, 1, 69, 0
3, 2883720, Note_on_c, 1, 67, 100
3, 2883840, Note_on_c, 1, 67, 0
3, 2883840, Note_on_c, 1, 66, 100
3, 2883960, Note_on_c, 1, 66, 0
3, 2883960, Note_on_c, 1, 62, 100
3, 2884080, Note_on_c, 1, 62, 0
3, 2884080, Note_on_c, 1, 64, 100
3, 2884200, Note_on_c, 1, 64, 0
3, 2884200, Note_on_c, 1, 66, 100
3, 2884320, Note_on_c, 1, 66, 0
3, 2884320, Note_on_c, 1, 59, 100
3, 2884560, Note_on_c, 1, 59, 0
3, 2884560, Note_on_c, 1, 60, 100
3, 2884800, Note_on_c, 1, 60, 0
3, 2884800, Note_on_c, 1, 62, 100
3, 2884920, Note_on_c, 1, 62, 0
3, 2884920, Note_on_c, 1, 67, 100
3, 2885040, Note_on_c, 1, 67, 0
3, 2885040, Note_on_c, 1, 66, 100
3, 2885160, Note_on_c, 1, 66, 0
3, 2885160, Note_on_c, 1, 64, 100
3, 2885280, Note_on_c, 1, 64, 0
3, 2885280, Note_on_c, 1, 74, 100
3, 2885880, Note_on_c, 1, 74, 0
3, 2885880, Note_on_c, 1, 76, 100
3, 2886000, Note_on_c, 1, 76, 0
3, 2886000, Note_on_c, 1, 74, 100
3, 2886120, Note_on_c, 1, 74, 0
3, 2886120, Note_on_c, 1, 73, 100
3, 2886240, Note_on_c, 1, 73, 0
3, 2886240, Note_on_c, 1, 74, 100
3, 2886840, Note_on_c, 1, 74, 0
3, 2886840, Note_on_c, 1, 59, 100
3, 2886960, Note_on_c, 1, 59, 0
3, 2886960, Note_on_c, 1, 60, 100
3, 2887080, Note_on_c, 1, 60, 0
3, 2887080, Note_on_c, 1, 62, 100
3, 2887200, Note_on_c, 1, 62, 0
3, 2887200, Note_on_c, 1, 64, 100
3, 2887320, Note_on_c, 1, 64, 0
3, 2887320, Note_on_c, 1, 67, 100
3, 2887440, Note_on_c, 1, 67, 0
3, 2887440, Note_on_c, 1, 66, 100
3, 2887560, Note_on_c, 1, 66, 0
3, 2887560, Note_on_c, 1, 64, 100
3, 2887680, Note_on_c, 1, 64, 0
3, 2887680, Note_on_c, 1, 71, 100
3, 2887920, Note_on_c, 1, 71, 0
3, 2887920, Note_on_c, 1, 69, 100
3, 2888160, Note_on_c, 1, 69, 0
3, 2888160, Note_on_c, 1, 67, 100
3, 2889120, Note_on_c, 1, 67, 0
3, 2891280, Note_on_c, 1, 62, 100
3, 2891400, Note_on_c, 1, 62, 0
3, 2891400, Note_on_c, 1, 64, 100
3, 2891520, Note_on_c, 1, 64, 0
3, 2891520, Note_on_c, 1, 66, 100
3, 2891760, Note_on_c, 1, 66, 0
3, 2891760, Note_on_c, 1, 68, 100
3, 2892000, Note_on_c, 1, 68, 0
3, 2892000, Note_on_c, 1, 69, 100
3, 2892240, Note_on_c, 1, 69, 0
3, 2892240, Note_on_c, 1, 72, 100
3, 2892480, Note_on_c, 1, 72, 0
3, 2892480, Note_on_c, 1, 71, 100
3, 2892720, Note_on_c, 1, 71, 0
3, 2892720, Note_on_c, 1, 69, 100
3, 2892960, Note_on_c, 1, 69, 0
3, 2892960, Note_on_c, 1, 76, 100
3, 2893440, Note_on_c, 1, 76, 0
3, 2893680, Note_on_c, 1, 74, 100
3, 2893920, Note_on_c, 1, 74, 0
3, 2893920, Note_on_c, 1, 81, 100
3, 2894160, Note_on_c, 1, 81, 0
3, 2894160, Note_on_c, 1, 69, 100
3, 2894400, Note_on_c, 1, 69, 0
3, 2894400, Note_on_c, 1, 71, 100
3, 2894640, Note_on_c, 1, 71, 0
3, 2894640, Note_on_c, 1, 73, 100
3, 2894880, Note_on_c, 1, 73, 0
3, 2894880, Note_on_c, 1, 74, 100
3, 2895120, Note_on_c, 1, 74, 0
3, 2895120, Note_on_c, 1, 62, 100
3, 2895240, Note_on_c, 1, 62, 0
3, 2895240, Note_on_c, 1, 64, 100
3, 2895360, Note_on_c, 1, 64, 0
3, 2895360, Note_on_c, 1, 66, 100
3, 2895600, Note_on_c, 1, 66, 0
3, 2895600, Note_on_c, 1, 68, 100
3, 2895840, Note_on_c, 1, 68, 0
3, 2895840, Note_on_c, 1, 69, 100
3, 2896080, Note_on_c, 1, 69, 0
3, 2896080, Note_on_c, 1, 72, 100
3, 2896320, Note_on_c, 1, 72, 0
3, 2896320, Note_on_c, 1, 71, 100
3, 2896560, Note_on_c, 1, 71, 0
3, 2896560, Note_on_c, 1, 69, 100
3, 2896800, Note_on_c, 1, 69, 0
3, 2896800, Note_on_c, 1, 76, 100
3, 2897280, Note_on_c, 1, 76, 0
3, 2897520, Note_on_c, 1, 74, 100
3, 2897760, Note_on_c, 1, 74, 0
3, 2897760, Note_on_c, 1, 81, 100
3, 2898000, Note_on_c, 1, 81, 0
3, 2898000, Note_on_c, 1, 69, 100
3, 2898240, Note_on_c, 1, 69, 0
3, 2898240, Note_on_c, 1, 71, 100
3, 2898480, Note_on_c, 1, 71, 0
3, 2898480, Note_on_c, 1, 73, 100
3, 2898720, Note_on_c, 1, 73, 0
3, 2898720, Note_on_c, 1, 74, 100
3, 2898960, Note_on_c, 1, 74, 0
3, 2898960, Note_on_c, 1, 62, 100
3, 2899080, Note_on_c, 1, 62, 0
3, 2899080, Note_on_c, 1, 64, 100
3, 2899200, Note_on_c, 1, 64, 0
3, 2899200, Note_on_c, 1, 66, 100
3, 2899440, Note_on_c, 1, 66, 0
3, 2899440, Note_on_c, 1, 68, 100
3, 2899680, Note_on_c, 1, 68, 0
3, 2899680, Note_on_c, 1, 69, 100
3, 2899920, Note_on_c, 1, 69, 0
3, 2899920, Note_on_c, 1, 72, 100
3, 2900160, Note_on_c, 1, 72, 0
3, 2900160, Note_on_c, 1, 71, 100
3, 2900400, Note_on_c, 1, 71, 0
3, 2900400, Note_on_c, 1, 69, 100
3, 2900640, Note_on_c, 1, 69, 0
3, 2900640, Note_on_c, 1, 76, 100
3, 2901600, Note_on_c, 1, 76, 0
3, 2901720, Note_on_c, 1, 67, 100
3, 2901840, Note_on_c, 1, 67, 0
3, 2901840, Note_on_c, 1, 71, 100
3, 2901960, Note_on_c, 1, 71, 0
3, 2901960, Note_on_c, 1, 74, 100
3, 2902080, Note_on_c, 1, 74, 0
3, 2902080, Note_on_c, 1, 79, 100
3, 2902200, Note_on_c, 1, 79, 0
3, 2902200, Note_on_c, 1, 74, 100
3, 2902320, Note_on_c, 1, 74, 0
3, 2902320, Note_on_c, 1, 71, 100
3, 2902440, Note_on_c, 1, 71, 0
3, 2902440, Note_on_c, 1, 67, 100
3, 2902560, Note_on_c, 1, 67, 0
3, 2902560, Note_on_c, 1, 74, 100
3, 2902680, Note_on_c, 1, 74, 0
3, 2902680, Note_on_c, 1, 62, 100
3, 2902800, Note_on_c, 1, 62, 0
3, 2902800, Note_on_c, 1, 67, 100
3, 2902920, Note_on_c, 1, 67, 0
3, 2902920, Note_on_c, 1, 71, 100
3, 2903040, Note_on_c, 1, 71, 0
3, 2903040, Note_on_c, 1, 61, 100
3, 2903160, Note_on_c, 1, 61, 0
3, 2903160, Note_on_c, 1, 64, 100
3, 2903280, Note_on_c, 1, 64, 0
3, 2903280, Note_on_c, 1, 67, 100
3, 2903400, Note_on_c, 1, 67, 0
3, 2903400, Note_on_c, 1, 73, 100
3, 2903520, Note_on_c, 1, 73, 0
3, 2903640, Note_on_c, 1, 74, 100
3, 2903760, Note_on_c, 1, 74, 0
3, 2903760, Note_on_c, 1, 69, 100
3, 2903880, Note_on_c, 1, 69, 0
3, 2903880, Note_on_c, 1, 66, 100
3, 2904000, Note_on_c, 1, 66, 0
3, 2904000, Note_on_c, 1, 62, 100
3, 2904120, Note_on_c, 1, 62, 0
3, 2904120, Note_on_c, 1, 67, 100
3, 2904240, Note_on_c, 1, 67, 0
3, 2904240, Note_on_c, 1, 71, 100
3, 2904360, Note_on_c, 1, 71, 0
3, 2904360, Note_on_c, 1, 74, 100
3, 2904480, Note_on_c, 1, 74, 0
3, 2904480, Note_on_c, 1, 67, 100
3, 2904600, Note_on_c, 1, 67, 0
3, 2904600, Note_on_c, 1, 74, 100
3, 2904720, Note_on_c, 1, 74, 0
3, 2904720, Note_on_c, 1, 72, 100
3, 2904840, Note_on_c, 1, 72, 0
3, 2904840, Note_on_c, 1, 69, 100
3, 2904960, Note_on_c, 1, 69, 0
3, 2904960, Note_on_c, 1, 71, 100
3, 2905080, Note_on_c, 1, 71, 0
3, 2905080, Note_on_c, 1, 66, 100
3, 2905200, Note_on_c, 1, 66, 0
3, 2905200, Note_on_c, 1, 69, 100
3, 2905320, Note_on_c, 1, 69, 0
3, 2905320, Note_on_c, 1, 74, 100
3, 2905380, Note_on_c, 1, 74, 0
3, 2905380, Note_on_c, 1, 72, 100
3, 2905440, Note_on_c, 1, 72, 0
3, 2905440, Note_on_c, 1, 71, 100
3, 2905500, Note_on_c, 1, 71, 0
3, 2905500, Note_on_c, 1, 69, 100
3, 2905560, Note_on_c, 1, 69, 0
3, 2905560, Note_on_c, 1, 67, 100
3, 2905680, Note_on_c, 1, 67, 0
3, 2905680, Note_on_c, 1, 71, 100
3, 2905800, Note_on_c, 1, 71, 0
3, 2905800, Note_on_c, 1, 74, 100
3, 2905920, Note_on_c, 1, 74, 0
3, 2905920, Note_on_c, 1, 79, 100
3, 2906040, Note_on_c, 1, 79, 0
3, 2906040, Note_on_c, 1, 74, 100
3, 2906160, Note_on_c, 1, 74, 0
3, 2906160, Note_on_c, 1, 71, 100
3, 2906280, Note_on_c, 1, 71, 0
3, 2906280, Note_on_c, 1, 67, 100
3, 2906400, Note_on_c, 1, 67, 0
3, 2906400, Note_on_c, 1, 74, 100
3, 2906520, Note_on_c, 1, 74, 0
3, 2906520, Note_on_c, 1, 62, 100
3, 2906640, Note_on_c, 1, 62, 0
3, 2906640, Note_on_c, 1, 67, 100
3, 2906760, Note_on_c, 1, 67, 0
3, 2906760, Note_on_c, 1, 71, 100
3, 2906880, Note_on_c, 1, 71, 0
3, 2906880, Note_on_c, 1, 61, 100
3, 2907000, Note_on_c, 1, 61, 0
3, 2907000, Note_on_c, 1, 64, 100
3, 2907120, Note_on_c, 1, 64, 0
3, 2907120, Note_on_c, 1, 67, 100
3, 2907240, Note_on_c, 1, 67, 0
3, 2907240, Note_on_c, 1, 73, 100
3, 2907360, Note_on_c, 1, 73, 0
3, 2907480, Note_on_c, 1, 74, 100
3, 2907600, Note_on_c, 1, 74, 0
3, 2907600, Note_on_c, 1, 69, 100
3, 2907720, Note_on_c, 1, 69, 0
3, 2907720, Note_on_c, 1, 66, 100
3, 2907840, Note_on_c, 1, 66, 0
3, 2907840, Note_on_c, 1, 62, 100
3, 2907960, Note_on_c, 1, 62, 0
3, 2907960, Note_on_c, 1, 67, 100
3, 2908080, Note_on_c, 1, 67, 0
3, 2908080, Note_on_c, 1, 71, 100
3, 2908200, Note_on_c, 1, 71, 0
3, 2908200, Note_on_c, 1, 74, 100
3, 2908320, Note_on_c, 1, 74, 0
3, 2908320, Note_on_c, 1, 67, 100
3, 2908440, Note_on_c, 1, 67, 0
3, 2908440, Note_on_c, 1, 74, 100
3, 2908560, Note_on_c, 1, 74, 0
3, 2908560, Note_on_c, 1, 72, 100
3, 2908680, Note_on_c, 1, 72, 0
3, 2908680, Note_on_c, 1, 69, 100
3, 2908800, Note_on_c, 1, 69, 0
3, 2908800, Note_on_c, 1, 71, 100
3, 2908920, Note_on_c, 1, 71, 0
3, 2908920, Note_on_c, 1, 66, 100
3, 2909040, Note_on_c, 1, 66, 0
3, 2909040, Note_on_c, 1, 69, 100
3, 2909160, Note_on_c, 1, 69, 0
3, 2909160, Note_on_c, 1, 74, 100
3, 2909220, Note_on_c, 1, 74, 0
3, 2909220, Note_on_c, 1, 72, 100
3, 2909280, Note_on_c, 1, 72, 0
3, 2909280, Note_on_c, 1, 71, 100
3, 2909340, Note_on_c, 1, 71, 0
3, 2909340, Note_on_c, 1, 69, 100
3, 2909400, Note_on_c, 1, 69, 0
3, 2909400, Note_on_c, 1, 67, 100
3, 2909520, Note_on_c, 1, 67, 0
3, 2909520, Note_on_c, 1, 71, 100
3, 2909640, Note_on_c, 1, 71, 0
3, 2909640, Note_on_c, 1, 74, 100
3, 2909760, Note_on_c, 1, 74, 0
3, 2909760, Note_on_c, 1, 79, 100
3, 2909880, Note_on_c, 1, 79, 0
3, 2909880, Note_on_c, 1, 74, 100
3, 2910000, Note_on_c, 1, 74, 0
3, 2910000, Note_on_c, 1, 71, 100
3, 2910120, Note_on_c, 1, 71, 0
3, 2910120, Note_on_c, 1, 67, 100
3, 2910240, Note_on_c, 1, 67, 0
3, 2910240, Note_on_c, 1, 74, 100
3, 2910360, Note_on_c, 1, 74, 0
3, 2910360, Note_on_c, 1, 62, 100
3, 2910480, Note_on_c, 1, 62, 0
3, 2910480, Note_on_c, 1, 67, 100
3, 2910600, Note_on_c, 1, 67, 0
3, 2910600, Note_on_c, 1, 71, 100
3, 2910720, Note_on_c, 1, 71, 0
3, 2910720, Note_on_c, 1, 61, 100
3, 2910840, Note_on_c, 1, 61, 0
3, 2910840, Note_on_c, 1, 64, 100
3, 2910960, Note_on_c, 1, 64, 0
3, 2910960, Note_on_c, 1, 67, 100
3, 2911080, Note_on_c, 1, 67, 0
3, 2911080, Note_on_c, 1, 73, 100
3, 2911200, Note_on_c, 1, 73, 0
3, 2911320, Note_on_c, 1, 74, 100
3, 2911440, Note_on_c, 1, 74, 0
3, 2911440, Note_on_c, 1, 69, 100
3, 2911560, Note_on_c, 1, 69, 0
3, 2911560, Note_on_c, 1, 66, 100
3, 2911680, Note_on_c, 1, 66, 0
3, 2911680, Note_on_c, 1, 62, 100
3, 2911800, Note_on_c, 1, 62, 0
3, 2911800, Note_on_c, 1, 67, 100
3, 2911920, Note_on_c, 1, 67, 0
3, 2911920, Note_on_c, 1, 71, 100
3, 2912040, Note_on_c, 1, 71, 0
3, 2912040, Note_on_c, 1, 74, 100
3, 2912160, Note_on_c, 1, 74, 0
3, 2912160, Note_on_c, 1, 67, 100
3, 2912280, Note_on_c, 1, 67, 0
3, 2912280, Note_on_c, 1, 74, 100
3, 2912400, Note_on_c, 1, 74, 0
3, 2912400, Note_on_c, 1, 72, 100
3, 2912520, Note_on_c, 1, 72, 0
3, 2912520, Note_on_c, 1, 69, 100
3, 2912640, Note_on_c, 1, 69, 0
3, 2912640, Note_on_c, 1, 71, 100
3, 2912760, Note_on_c, 1, 71, 0
3, 2912760, Note_on_c, 1, 66, 100
3, 2912880, Note_on_c, 1, 66, 0
3, 2912880, Note_on_c, 1, 69, 100
3, 2913000, Note_on_c, 1, 69, 0
3, 2913000, Note_on_c, 1, 74, 100
3, 2913060, Note_on_c, 1, 74, 0
3, 2913060, Note_on_c, 1, 72, 100
3, 2913120, Note_on_c, 1, 72, 0
3, 2913120, Note_on_c, 1, 71, 100
3, 2914080, Note_on_c, 1, 71, 0
3, 2929200, Note_on_c, 1, 74, 100
3, 2929440, Note_on_c, 1, 74, 0
3, 2929440, Note_on_c, 1, 75, 100
3, 2929680, Note_on_c, 1, 75, 0
3, 2929680, Note_on_c, 1, 76, 100
3, 2929920, Note_on_c, 1, 76, 0
3, 2929920, Note_on_c, 1, 77, 100
3, 2930160, Note_on_c, 1, 77, 0
3, 2930160, Note_on_c, 1, 78, 100
3, 2930400, Note_on_c, 1, 78, 0
3, 2930400, Note_on_c, 1, 79, 100
3, 2930520, Note_on_c, 1, 79, 0
3, 2930520, Note_on_c, 1, 78, 100
3, 2930640, Note_on_c, 1, 78, 0
3, 2930640, Note_on_c, 1, 79, 100
3, 2930760, Note_on_c, 1, 79, 0
3, 2930760, Note_on_c, 1, 81, 100
3, 2930880, Note_on_c, 1, 81, 0
3, 2930880, Note_on_c, 1, 83, 100
3, 2931120, Note_on_c, 1, 83, 0
3, 2931600, Note_on_c, 1, 78, 100
3, 2931840, Note_on_c, 1, 78, 0
3, 2931840, Note_on_c, 1, 71, 100
3, 2931960, Note_on_c, 1, 71, 0
3, 2931960, Note_on_c, 1, 73, 100
3, 2932080, Note_on_c, 1, 73, 0
3, 2932080, Note_on_c, 1, 74, 100
3, 2932200, Note_on_c, 1, 74, 0
3, 2932200, Note_on_c, 1, 76, 100
3, 2932320, Note_on_c, 1, 76, 0
3, 2932320, Note_on_c, 1, 78, 100
3, 2932800, Note_on_c, 1, 78, 0
3, 2933040, Note_on_c, 1, 74, 100
3, 2933280, Note_on_c, 1, 74, 0
3, 2933280, Note_on_c, 1, 75, 100
3, 2933520, Note_on_c, 1, 75, 0
3, 2933520, Note_on_c, 1, 76, 100
3, 2933760, Note_on_c, 1, 76, 0
3, 2933760, Note_on_c, 1, 77, 100
3, 2934000, Note_on_c, 1, 77, 0
3, 2934000, Note_on_c, 1, 78, 100
3, 2934240, Note_on_c, 1, 78, 0
3, 2934240, Note_on_c, 1, 79, 100
3, 2934360, Note_on_c, 1, 79, 0
3, 2934360, Note_on_c, 1, 78, 100
3, 2934480, Note_on_c, 1, 78, 0
3, 2934480, Note_on_c, 1, 79, 100
3, 2934600, Note_on_c, 1, 79, 0
3, 2934600, Note_on_c, 1, 81, 100
3, 2934720, Note_on_c, 1, 81, 0
3, 2934720, Note_on_c, 1, 83, 100
3, 2934960, Note_on_c, 1, 83, 0
3, 2935440, Note_on_c, 1, 78, 100
3, 2935680, Note_on_c, 1, 78, 0
3, 2935680, Note_on_c, 1, 71, 100
3, 2935800, Note_on_c, 1, 71, 0
3, 2935800, Note_on_c, 1, 73, 100
3, 2935920, Note_on_c, 1, 73, 0
3, 2935920, Note_on_c, 1, 74, 100
3, 2936040, Note_on_c, 1, 74, 0
3, 2936040, Note_on_c, 1, 76, 100
3, 2936160, Note_on_c, 1, 76, 0
3, 2936160, Note_on_c, 1, 78, 100
3, 2936640, Note_on_c, 1, 78, 0
3, 2936880, Note_on_c, 1, 74, 100
3, 2937120, Note_on_c, 1, 74, 0
3, 2937120, Note_on_c, 1, 75, 100
3, 2937360, Note_on_c, 1, 75, 0
3, 2937360, Note_on_c, 1, 76, 100
3, 2937600, Note_on_c, 1, 76, 0
3, 2937600, Note_on_c, 1, 77, 100
3, 2937840, Note_on_c, 1, 77, 0
3, 2937840, Note_on_c, 1, 78, 100
3, 2938080, Note_on_c, 1, 78, 0
3, 2938080, Note_on_c, 1, 79, 100
3, 2939040, Note_on_c, 1, 79, 0
3, 2939640, Note_on_c, 1, 62, 100
3, 2939760, Note_on_c, 1, 62, 0
3, 2939760, Note_on_c, 1, 64, 100
3, 2939880, Note_on_c, 1, 64, 0
3, 2939880, Note_on_c, 1, 66, 100
3, 2940000, Note_on_c, 1, 66, 0
3, 2940000, Note_on_c, 1, 67, 100
3, 2940120, Note_on_c, 1, 67, 0
3, 2940120, Note_on_c, 1, 71, 100
3, 2940240, Note_on_c, 1, 71, 0
3, 2940240, Note_on_c, 1, 69, 100
3, 2940360, Note_on_c, 1, 69, 0
3, 2940360, Note_on_c, 1, 67, 100
3, 2940480, Note_on_c, 1, 67, 0
3, 2940480, Note_on_c, 1, 74, 100
3, 2940600, Note_on_c, 1, 74, 0
3, 2940600, Note_on_c, 1, 79, 100
3, 2940720, Note_on_c, 1, 79, 0
3, 2940720, Note_on_c, 1, 83, 100
3, 2941320, Note_on_c, 1, 83, 0
3, 2941320, Note_on_c, 1, 81, 100
3, 2941440, Note_on_c, 1, 81, 0
3, 2941440, Note_on_c, 1, 79, 100
3, 2941560, Note_on_c, 1, 79, 0
3, 2941560, Note_on_c, 1, 78, 100
3, 2941680, Note_on_c, 1, 78, 0
3, 2941680, Note_on_c, 1, 76, 100
3, 2941800, Note_on_c, 1, 76, 0
3, 2941800, Note_on_c, 1, 74, 100
3, 2941920, Note_on_c, 1, 74, 0
3, 2941920, Note_on_c, 1, 73, 100
3, 2942160, Note_on_c, 1, 73, 0
3, 2942160, Note_on_c, 1, 79, 100
3, 2942400, Note_on_c, 1, 79, 0
3, 2942520, Note_on_c, 1, 76, 100
3, 2942640, Note_on_c, 1, 76, 0
3, 2942640, Note_on_c, 1, 78, 100
3, 2942760, Note_on_c, 1, 78, 0
3, 2942760, Note_on_c, 1, 79, 100
3, 2942880, Note_on_c, 1, 79, 0
3, 2942880, Note_on_c, 1, 78, 100
3, 2943120, Note_on_c, 1, 78, 0
3, 2943120, Note_on_c, 1, 69, 100
3, 2943360, Note_on_c, 1, 69, 0
3, 2943480, Note_on_c, 1, 62, 100
3, 2943600, Note_on_c, 1, 62, 0
3, 2943600, Note_on_c, 1, 64, 100
3, 2943720, Note_on_c, 1, 64, 0
3, 2943720, Note_on_c, 1, 66, 100
3, 2943840, Note_on_c, 1, 66, 0
3, 2943840, Note_on_c, 1, 67, 100
3, 2944080, Note_on_c, 1, 67, 0
3, 2944080, Note_on_c, 1, 79, 100
3, 2944320, Note_on_c, 1, 79, 0
3, 2944440, Note_on_c, 1, 71, 100
3, 2944560, Note_on_c, 1, 71, 0
3, 2944560, Note_on_c, 1, 69, 100
3, 2944680, Note_on_c, 1, 69, 0
3, 2944680, Note_on_c, 1, 67, 100
3, 2944800, Note_on_c, 1, 67, 0
3, 2944800, Note_on_c, 1, 76, 100
3, 2945040, Note_on_c, 1, 76, 0
3, 2945040, Note_on_c, 1, 64, 100
3, 2945280, Note_on_c, 1, 64, 0
3, 2945400, Note_on_c, 1, 66, 100
3, 2945520, Note_on_c, 1, 66, 0
3, 2945520, Note_on_c, 1, 67, 100
3, 2945640, Note_on_c, 1, 67, 0
3, 2945640, Note_on_c, 1, 69, 100
3, 2945760, Note_on_c, 1, 69, 0
3, 2945760, Note_on_c, 1, 69, 100
3, 2945880, Note_on_c, 1, 69, 0
3, 2945880, Note_on_c, 1, 60, 100
3, 2946000, Note_on_c, 1, 60, 0
3, 2946000, Note_on_c, 1, 69, 100
3, 2946240, Note_on_c, 1, 69, 0
3, 2946360, Note_on_c, 1, 72, 100
3, 2946480, Note_on_c, 1, 72, 0
3, 2946480, Note_on_c, 1, 69, 100
3, 2946600, Note_on_c, 1, 69, 0
3, 2946600, Note_on_c, 1, 64, 100
3, 2946720, Note_on_c, 1, 64, 0
3, 2946720, Note_on_c, 1, 62, 100
3, 2946960, Note_on_c, 1, 62, 0
3, 2946960, Note_on_c, 1, 60, 100
3, 2947200, Note_on_c, 1, 60, 0
3, 2947200, Note_on_c, 1, 59, 100
3, 2947320, Note_on_c, 1, 59, 0
3, 2947320, Note_on_c, 1, 62, 100
3, 2947440, Note_on_c, 1, 62, 0
3, 2947440, Note_on_c, 1, 64, 100
3, 2947560, Note_on_c, 1, 64, 0
3, 2947560, Note_on_c, 1, 66, 100
3, 2947680, Note_on_c, 1, 66, 0
3, 2947680, Note_on_c, 1, 67, 100
3, 2947800, Note_on_c, 1, 67, 0
3, 2947800, Note_on_c, 1, 71, 100
3, 2947920, Note_on_c, 1, 71, 0
3, 2947920, Note_on_c, 1, 69, 100
3, 2948040, Note_on_c, 1, 69, 0
3, 2948040, Note_on_c, 1, 67, 100
3, 2948160, Note_on_c, 1, 67, 0
3, 2948160, Note_on_c, 1, 74, 100
3, 2948280, Note_on_c, 1, 74, 0
3, 2948280, Note_on_c, 1, 79, 100
3, 2948400, Note_on_c, 1, 79, 0
3, 2948400, Note_on_c, 1, 83, 100
3, 2949000, Note_on_c, 1, 83, 0
3, 2949000, Note_on_c, 1, 81, 100
3, 2949120, Note_on_c, 1, 81, 0
3, 2949120, Note_on_c, 1, 79, 100
3, 2949240, Note_on_c, 1, 79, 0
3, 2949240, Note_on_c, 1, 78, 100
3, 2949360, Note_on_c, 1, 78, 0
3, 2949360, Note_on_c, 1, 76, 100
3, 2949480, Note_on_c, 1, 76, 0
3, 2949480, Note_on_c, 1, 74, 100
3, 2949600, Note_on_c, 1, 74, 0
3, 2949600, Note_on_c, 1, 73, 100
3, 2949840, Note_on_c, 1, 73, 0
3, 2949840, Note_on_c, 1, 79, 100
3, 2950080, Note_on_c, 1, 79, 0
3, 2950200, Note_on_c, 1, 76, 100
3, 2950320, Note_on_c, 1, 76, 0
3, 2950320, Note_on_c, 1, 78, 100
3, 2950440, Note_on_c, 1, 78, 0
3, 2950440, Note_on_c, 1, 79, 100
3, 2950560, Note_on_c, 1, 79, 0
3, 2950560, Note_on_c, 1, 78, 100
3, 2950800, Note_on_c, 1, 78, 0
3, 2950800, Note_on_c, 1, 69, 100
3, 2951040, Note_on_c, 1, 69, 0
3, 2951160, Note_on_c, 1, 62, 100
3, 2951280, Note_on_c, 1, 62, 0
3, 2951280, Note_on_c, 1, 64, 100
3, 2951400, Note_on_c, 1, 64, 0
3, 2951400, Note_on_c, 1, 66, 100
3, 2951520, Note_on_c, 1, 66, 0
3, 2951520, Note_on_c, 1, 67, 100
3, 2951760, Note_on_c, 1, 67, 0
3, 2951760, Note_on_c, 1, 79, 100
3, 2952000, Note_on_c, 1, 79, 0
3, 2952120, Note_on_c, 1, 71, 100
3, 2952240, Note_on_c, 1, 71, 0
3, 2952240, Note_on_c, 1, 69, 100
3, 2952360, Note_on_c, 1, 69, 0
3, 2952360, Note_on_c, 1, 67, 100
3, 2952480, Note_on_c, 1, 67, 0
3, 2952480, Note_on_c, 1, 76, 100
3, 2952720, Note_on_c, 1, 76, 0
3, 2952720, Note_on_c, 1, 64, 100
3, 2952960, Note_on_c, 1, 64, 0
3, 2953080, Note_on_c, 1, 66, 100
3, 2953200, Note_on_c, 1, 66, 0
3, 2953200, Note_on_c, 1, 67, 100
3, 2953320, Note_on_c, 1, 67, 0
3, 2953320, Note_on_c, 1, 69, 100
3, 2953440, Note_on_c, 1, 69, 0
3, 2953440, Note_on_c, 1, 69, 100
3, 2953560, Note_on_c, 1, 69, 0
3, 2953560, Note_on_c, 1, 60, 100
3, 2953680, Note_on_c, 1, 60, 0
3, 2953680, Note_on_c, 1, 69, 100
3, 2953920, Note_on_c, 1, 69, 0
3, 2954040, Note_on_c, 1, 72, 100
3, 2954160, Note_on_c, 1, 72, 0
3, 2954160, Note_on_c, 1, 69, 100
3, 2954280, Note_on_c, 1, 69, 0
3, 2954280, Note_on_c, 1, 64, 100
3, 2954400, Note_on_c, 1, 64, 0
3, 2954400, Note_on_c, 1, 62, 100
3, 2954640, Note_on_c, 1, 62, 0
3, 2954640, Note_on_c, 1, 60, 100
3, 2954880, Note_on_c, 1, 60, 0
3, 2954880, Note_on_c, 1, 59, 100
3, 2955000, Note_on_c, 1, 59, 0
3, 2955000, Note_on_c, 1, 62, 100
3, 2955120, Note_on_c, 1, 62, 0
3, 2955120, Note_on_c, 1, 64, 100
3, 2955240, Note_on_c, 1, 64, 0
3, 2955240, Note_on_c, 1, 66, 100
3, 2955360, Note_on_c, 1, 66, 0
3, 2955360, Note_on_c, 1, 67, 100
3, 2955480, Note_on_c, 1, 67, 0
3, 2955480, Note_on_c, 1, 71, 100
3, 2955600, Note_on_c, 1, 71, 0
3, 2955600, Note_on_c, 1, 69, 100
3, 2955720, Note_on_c, 1, 69, 0
3, 2955720, Note_on_c, 1, 67, 100
3, 2955840, Note_on_c, 1, 67, 0
3, 2955840, Note_on_c, 1, 74, 100
3, 2955960, Note_on_c, 1, 74, 0
3, 2955960, Note_on_c, 1, 79, 100
3, 2956080, Note_on_c, 1, 79, 0
3, 2956080, Note_on_c, 1, 83, 100
3, 2956680, Note_on_c, 1, 83, 0
3, 2956680, Note_on_c, 1, 81, 100
3, 2956800, Note_on_c, 1, 81, 0
3, 2956800, Note_on_c, 1, 79, 100
3, 2956920, Note_on_c, 1, 79, 0
3, 2956920, Note_on_c, 1, 78, 100
3, 2957040, Note_on_c, 1, 78, 0
3, 2957040, Note_on_c, 1, 76, 100
3, 2957160, Note_on_c, 1, 76, 0
3, 2957160, Note_on_c, 1, 74, 100
3, 2957280, Note_on_c, 1, 74, 0
3, 2957280, Note_on_c, 1, 73, 100
3, 2957520, Note_on_c, 1, 73, 0
3, 2957520, Note_on_c, 1, 79, 100
3, 2957760, Note_on_c, 1, 79, 0
3, 2957880, Note_on_c, 1, 76, 100
3, 2958000, Note_on_c, 1, 76, 0
3, 2958000, Note_on_c, 1, 78, 100
3, 2958120, Note_on_c, 1, 78, 0
3, 2958120, Note_on_c, 1, 79, 100
3, 2958240, Note_on_c, 1, 79, 0
3, 2958240, Note_on_c, 1, 78, 100
3, 2958480, Note_on_c, 1, 78, 0
3, 2958480, Note_on_c, 1, 69, 100
3, 2960160, Note_on_c, 1, 69, 0
3, 2960640, Note_on_c, 1, 62, 100
3, 2961600, Note_on_c, 1, 62, 0
3, 2961600, Note_on_c, 1, 64, 100
3, 2962080, Note_on_c, 1, 64, 0
3, 2962080, Note_on_c, 1, 66, 100
3, 2962560, Note_on_c, 1, 66, 0
3, 2962560, Note_on_c, 1, 67, 100
3, 2963040, Note_on_c, 1, 67, 0
3, 2963280, Note_on_c, 1, 64, 100
3, 2963520, Note_on_c, 1, 64, 0
3, 2963520, Note_on_c, 1, 62, 100
3, 2963760, Note_on_c, 1, 62, 0
3, 2963760, Note_on_c, 1, 60, 100
3, 2964000, Note_on_c, 1, 60, 0
3, 2964000, Note_on_c, 1, 59, 100
3, 2964240, Note_on_c, 1, 59, 0
3, 2964240, Note_on_c, 1, 60, 100
3, 2964480, Note_on_c, 1, 60, 0
3, 2964480, Note_on_c, 1, 62, 100
3, 2965440, Note_on_c, 1, 62, 0
3, 2965440, Note_on_c, 1, 64, 100
3, 2965920, Note_on_c, 1, 64, 0
3, 2965920, Note_on_c, 1, 66, 100
3, 2966400, Note_on_c, 1, 66, 0
3, 2966400, Note_on_c, 1, 67, 100
3, 2966880, Note_on_c, 1, 67, 0
3, 2967120, Note_on_c, 1, 64, 100
3, 2967360, Note_on_c, 1, 64, 0
3, 2967360, Note_on_c, 1, 62, 100
3, 2967600, Note_on_c, 1, 62, 0
3, 2967600, Note_on_c, 1, 60, 100
3, 2967840, Note_on_c, 1, 60, 0
3, 2967840, Note_on_c, 1, 59, 100
3, 2968080, Note_on_c, 1, 59, 0
3, 2968080, Note_on_c, 1, 60, 100
3, 2968320, Note_on_c, 1, 60, 0
3, 2968320, Note_on_c, 1, 62, 100
3, 2969280, Note_on_c, 1, 62, 0
3, 2969280, Note_on_c, 1, 64, 100
3, 2969760, Note_on_c, 1, 64, 0
3, 2969760, Note_on_c, 1, 66, 100
3, 2970240, Note_on_c, 1, 66, 0
3, 2970240, Note_on_c, 1, 67, 100
3, 2970720, Note_on_c, 1, 67, 0
3, 2970960, Note_on_c, 1, 64, 100
3, 2971200, Note_on_c, 1, 64, 0
3, 2971200, Note_on_c, 1, 62, 100
3, 2971440, Note_on_c, 1, 62, 0
3, 2971440, Note_on_c, 1, 60, 100
3, 2971680, Note_on_c, 1, 60, 0
3, 2971680, Note_on_c, 1, 59, 100
3, 2973600, Note_on_c, 1, 59, 0
3, 2973600, End_track
4, 0, Start_track
4, 0, MIDI_port, 0
4, 0, Title_t, "Johann Sebastian Bach  (1685-1750)"
4, 0, Program_c, 2, 6
4, 0, Control_c, 2, 7, 100
4, 0, Control_c, 2, 10, 69
4, 960, Note_on_c, 2, 62, 100
4, 1440, Note_on_c, 2, 62, 0
4, 2400, Note_on_c, 2, 62, 100
4, 2880, Note_on_c, 2, 62, 0
4, 3840, Note_on_c, 2, 61, 100
4, 4320, Note_on_c, 2, 61, 0
4, 5280, Note_on_c, 2, 57, 100
4, 5760, Note_on_c, 2, 57, 0
4, 6720, Note_on_c, 2, 55, 100
4, 7200, Note_on_c, 2, 55, 0
4, 8160, Note_on_c, 2, 57, 100
4, 8640, Note_on_c, 2, 57, 0
4, 8880, Note_on_c, 2, 60, 100
4, 9360, Note_on_c, 2, 60, 0
4, 9360, Note_on_c, 2, 59, 100
4, 9480, Note_on_c, 2, 59, 0
4, 9480, Note_on_c, 2, 57, 100
4, 9600, Note_on_c, 2, 57, 0
4, 9600, Note_on_c, 2, 55, 100
4, 9720, Note_on_c, 2, 55, 0
4, 9720, Note_on_c, 2, 54, 100
4, 9840, Note_on_c, 2, 54, 0
4, 9840, Note_on_c, 2, 52, 100
4, 9960, Note_on_c, 2, 52, 0
4, 9960, Note_on_c, 2, 54, 100
4, 10080, Note_on_c, 2, 54, 0
4, 10080, Note_on_c, 2, 55, 100
4, 10320, Note_on_c, 2, 55, 0
4, 10320, Note_on_c, 2, 57, 100
4, 10560, Note_on_c, 2, 57, 0
4, 10560, Note_on_c, 2, 59, 100
4, 11520, Note_on_c, 2, 59, 0
4, 12000, Note_on_c, 2, 59, 100
4, 12960, Note_on_c, 2, 59, 0
4, 12960, Note_on_c, 2, 57, 100
4, 13440, Note_on_c, 2, 57, 0
4, 14640, Note_on_c, 2, 59, 100
4, 14880, Note_on_c, 2, 59, 0
4, 17760, Note_on_c, 2, 57, 100
4, 18720, Note_on_c, 2, 57, 0
4, 19200, Note_on_c, 2, 59, 100
4, 19680, Note_on_c, 2, 59, 0
4, 22320, Note_on_c, 2, 57, 100
4, 22560, Note_on_c, 2, 57, 0
4, 22560, Note_on_c, 2, 62, 100
4, 23040, Note_on_c, 2, 62, 0
4, 24000, Note_on_c, 2, 62, 100
4, 24480, Note_on_c, 2, 62, 0
4, 25440, Note_on_c, 2, 62, 100
4, 25920, Note_on_c, 2, 62, 0
4, 26880, Note_on_c, 2, 61, 100
4, 27360, Note_on_c, 2, 61, 0
4, 28320, Note_on_c, 2, 57, 100
4, 28800, Note_on_c, 2, 57, 0
4, 29760, Note_on_c, 2, 55, 100
4, 30240, Note_on_c, 2, 55, 0
4, 31200, Note_on_c, 2, 57, 100
4, 31680, Note_on_c, 2, 57, 0
4, 31920, Note_on_c, 2, 60, 100
4, 32400, Note_on_c, 2, 60, 0
4, 32400, Note_on_c, 2, 59, 100
4, 32520, Note_on_c, 2, 59, 0
4, 32520, Note_on_c, 2, 57, 100
4, 32640, Note_on_c, 2, 57, 0
4, 32640, Note_on_c, 2, 55, 100
4, 32760, Note_on_c, 2, 55, 0
4, 32760, Note_on_c, 2, 54, 100
4, 32880, Note_on_c, 2, 54, 0
4, 32880, Note_on_c, 2, 52, 100
4, 33000, Note_on_c, 2, 52, 0
4, 33000, Note_on_c, 2, 54, 100
4, 33120, Note_on_c, 2, 54, 0
4, 33120, Note_on_c, 2, 55, 100
4, 33360, Note_on_c, 2, 55, 0
4, 33360, Note_on_c, 2, 57, 100
4, 33600, Note_on_c, 2, 57, 0
4, 33600, Note_on_c, 2, 59, 100
4, 34560, Note_on_c, 2, 59, 0
4, 35040, Note_on_c, 2, 59, 100
4, 36000, Note_on_c, 2, 59, 0
4, 36000, Note_on_c, 2, 57, 100
4, 36480, Note_on_c, 2, 57, 0
4, 37680, Note_on_c, 2, 59, 100
4, 37920, Note_on_c, 2, 59, 0
4, 40800, Note_on_c, 2, 57, 100
4, 41760, Note_on_c, 2, 57, 0
4, 42240, Note_on_c, 2, 59, 100
4, 42720, Note_on_c, 2, 59, 0
4, 45360, Note_on_c, 2, 57, 100
4, 45600, Note_on_c, 2, 57, 0
4, 45600, Note_on_c, 2, 62, 100
4, 46080, Note_on_c, 2, 62, 0
4, 46080, Note_on_c, 2, 62, 100
4, 47040, Note_on_c, 2, 62, 0
4, 47040, Note_on_c, 2, 60, 100
4, 47520, Note_on_c, 2, 60, 0
4, 47520, Note_on_c, 2, 59, 100
4, 48240, Note_on_c, 2, 59, 0
4, 48240, Note_on_c, 2, 57, 100
4, 48480, Note_on_c, 2, 57, 0
4, 48480, Note_on_c, 2, 59, 100
4, 48960, Note_on_c, 2, 59, 0
4, 48960, Note_on_c, 2, 60, 100
4, 49680, Note_on_c, 2, 60, 0
4, 49680, Note_on_c, 2, 59, 100
4, 49920, Note_on_c, 2, 59, 0
4, 49920, Note_on_c, 2, 57, 100
4, 50400, Note_on_c, 2, 57, 0
4, 50400, Note_on_c, 2, 59, 100
4, 51120, Note_on_c, 2, 59, 0
4, 51120, Note_on_c, 2, 57, 100
4, 51360, Note_on_c, 2, 57, 0
4, 51360, Note_on_c, 2, 55, 100
4, 51600, Note_on_c, 2, 55, 0
4, 51600, Note_on_c, 2, 54, 100
4, 51840, Note_on_c, 2, 54, 0
4, 51840, Note_on_c, 2, 52, 100
4, 52800, Note_on_c, 2, 52, 0
4, 52800, Note_on_c, 2, 50, 100
4, 53280, Note_on_c, 2, 50, 0
4, 53280, Note_on_c, 2, 48, 100
4, 54000, Note_on_c, 2, 48, 0
4, 54240, Note_on_c, 2, 47, 100
4, 54720, Note_on_c, 2, 47, 0
4, 54720, Note_on_c, 2, 45, 100
4, 54960, Note_on_c, 2, 45, 0
4, 54960, Note_on_c, 2, 48, 100
4, 55200, Note_on_c, 2, 48, 0
4, 55200, Note_on_c, 2, 47, 100
4, 55440, Note_on_c, 2, 47, 0
4, 55440, Note_on_c, 2, 45, 100
4, 55680, Note_on_c, 2, 45, 0
4, 55680, Note_on_c, 2, 47, 100
4, 56160, Note_on_c, 2, 47, 0
4, 56160, Note_on_c, 2, 52, 100
4, 56400, Note_on_c, 2, 52, 0
4, 56400, Note_on_c, 2, 47, 100
4, 56640, Note_on_c, 2, 47, 0
4, 56640, Note_on_c, 2, 40, 100
4, 56880, Note_on_c, 2, 40, 0
4, 56880, Note_on_c, 2, 47, 100
4, 57120, Note_on_c, 2, 47, 0
4, 57120, Note_on_c, 2, 52, 100
4, 57360, Note_on_c, 2, 52, 0
4, 57360, Note_on_c, 2, 50, 100
4, 57600, Note_on_c, 2, 50, 0
4, 57600, Note_on_c, 2, 48, 100
4, 59040, Note_on_c, 2, 48, 0
4, 59040, Note_on_c, 2, 47, 100
4, 60480, Note_on_c, 2, 47, 0
4, 60480, Note_on_c, 2, 45, 100
4, 61200, Note_on_c, 2, 45, 0
4, 61200, Note_on_c, 2, 43, 100
4, 61440, Note_on_c, 2, 43, 0
4, 61440, Note_on_c, 2, 42, 100
4, 61680, Note_on_c, 2, 42, 0
4, 61680, Note_on_c, 2, 40, 100
4, 61920, Note_on_c, 2, 40, 0
4, 61920, Note_on_c, 2, 38, 100
4, 62160, Note_on_c, 2, 38, 0
4, 62160, Note_on_c, 2, 45, 100
4, 62400, Note_on_c, 2, 45, 0
4, 62400, Note_on_c, 2, 50, 100
4, 62640, Note_on_c, 2, 50, 0
4, 62640, Note_on_c, 2, 48, 100
4, 62880, Note_on_c, 2, 48, 0
4, 62880, Note_on_c, 2, 47, 100
4, 63120, Note_on_c, 2, 47, 0
4, 63120, Note_on_c, 2, 45, 100
4, 63360, Note_on_c, 2, 45, 0
4, 63360, Note_on_c, 2, 43, 100
4, 63600, Note_on_c, 2, 43, 0
4, 63600, Note_on_c, 2, 50, 100
4, 63840, Note_on_c, 2, 50, 0
4, 63840, Note_on_c, 2, 55, 100
4, 64080, Note_on_c, 2, 55, 0
4, 64080, Note_on_c, 2, 53, 100
4, 64320, Note_on_c, 2, 53, 0
4, 64320, Note_on_c, 2, 52, 100
4, 64560, Note_on_c, 2, 52, 0
4, 64560, Note_on_c, 2, 50, 100
4, 64800, Note_on_c, 2, 50, 0
4, 64800, Note_on_c, 2, 48, 100
4, 65040, Note_on_c, 2, 48, 0
4, 65040, Note_on_c, 2, 55, 100
4, 65280, Note_on_c, 2, 55, 0
4, 65280, Note_on_c, 2, 60, 100
4, 65520, Note_on_c, 2, 60, 0
4, 65520, Note_on_c, 2, 59, 100
4, 65760, Note_on_c, 2, 59, 0
4, 65760, Note_on_c, 2, 57, 100
4, 66000, Note_on_c, 2, 57, 0
4, 66000, Note_on_c, 2, 55, 100
4, 66240, Note_on_c, 2, 55, 0
4, 66240, Note_on_c, 2, 54, 100
4, 66480, Note_on_c, 2, 54, 0
4, 66480, Note_on_c, 2, 50, 100
4, 66720, Note_on_c, 2, 50, 0
4, 66720, Note_on_c, 2, 55, 100
4, 66960, Note_on_c, 2, 55, 0
4, 66960, Note_on_c, 2, 59, 100
4, 67200, Note_on_c, 2, 59, 0
4, 67200, Note_on_c, 2, 62, 100
4, 67440, Note_on_c, 2, 62, 0
4, 67440, Note_on_c, 2, 50, 100
4, 67680, Note_on_c, 2, 50, 0
4, 67680, Note_on_c, 2, 55, 100
4, 68400, Note_on_c, 2, 55, 0
4, 68400, Note_on_c, 2, 50, 100
4, 68640, Note_on_c, 2, 50, 0
4, 68640, Note_on_c, 2, 43, 100
4, 69120, Note_on_c, 2, 43, 0
4, 69120, Note_on_c, 2, 62, 100
4, 70080, Note_on_c, 2, 62, 0
4, 70080, Note_on_c, 2, 60, 100
4, 70560, Note_on_c, 2, 60, 0
4, 70560, Note_on_c, 2, 59, 100
4, 71280, Note_on_c, 2, 59, 0
4, 71280, Note_on_c, 2, 57, 100
4, 71520, Note_on_c, 2, 57, 0
4, 71520, Note_on_c, 2, 59, 100
4, 72000, Note_on_c, 2, 59, 0
4, 72000, Note_on_c, 2, 60, 100
4, 72720, Note_on_c, 2, 60, 0
4, 72720, Note_on_c, 2, 59, 100
4, 72960, Note_on_c, 2, 59, 0
4, 72960, Note_on_c, 2, 57, 100
4, 73440, Note_on_c, 2, 57, 0
4, 73440, Note_on_c, 2, 59, 100
4, 74160, Note_on_c, 2, 59, 0
4, 74160, Note_on_c, 2, 57, 100
4, 74400, Note_on_c, 2, 57, 0
4, 74400, Note_on_c, 2, 55, 100
4, 74640, Note_on_c, 2, 55, 0
4, 74640, Note_on_c, 2, 54, 100
4, 74880, Note_on_c, 2, 54, 0
4, 74880, Note_on_c, 2, 52, 100
4, 75840, Note_on_c, 2, 52, 0
4, 75840, Note_on_c, 2, 50, 100
4, 76320, Note_on_c, 2, 50, 0
4, 76320, Note_on_c, 2, 48, 100
4, 77040, Note_on_c, 2, 48, 0
4, 77280, Note_on_c, 2, 47, 100
4, 77760, Note_on_c, 2, 47, 0
4, 77760, Note_on_c, 2, 45, 100
4, 78000, Note_on_c, 2, 45, 0
4, 78000, Note_on_c, 2, 48, 100
4, 78240, Note_on_c, 2, 48, 0
4, 78240, Note_on_c, 2, 47, 100
4, 78480, Note_on_c, 2, 47, 0
4, 78480, Note_on_c, 2, 45, 100
4, 78720, Note_on_c, 2, 45, 0
4, 78720, Note_on_c, 2, 47, 100
4, 79200, Note_on_c, 2, 47, 0
4, 79200, Note_on_c, 2, 52, 100
4, 79440, Note_on_c, 2, 52, 0
4, 79440, Note_on_c, 2, 47, 100
4, 79680, Note_on_c, 2, 47, 0
4, 79680, Note_on_c, 2, 40, 100
4, 79920, Note_on_c, 2, 40, 0
4, 79920, Note_on_c, 2, 47, 100
4, 80160, Note_on_c, 2, 47, 0
4, 80160, Note_on_c, 2, 52, 100
4, 80400, Note_on_c, 2, 52, 0
4, 80400, Note_on_c, 2, 50, 100
4, 80640, Note_on_c, 2, 50, 0
4, 80640, Note_on_c, 2, 48, 100
4, 82080, Note_on_c, 2, 48, 0
4, 82080, Note_on_c, 2, 47, 100
4, 83520, Note_on_c, 2, 47, 0
4, 83520, Note_on_c, 2, 45, 100
4, 84240, Note_on_c, 2, 45, 0
4, 84240, Note_on_c, 2, 43, 100
4, 84480, Note_on_c, 2, 43, 0
4, 84480, Note_on_c, 2, 42, 100
4, 84720, Note_on_c, 2, 42, 0
4, 84720, Note_on_c, 2, 40, 100
4, 84960, Note_on_c, 2, 40, 0
4, 84960, Note_on_c, 2, 38, 100
4, 85200, Note_on_c, 2, 38, 0
4, 85200, Note_on_c, 2, 45, 100
4, 85440, Note_on_c, 2, 45, 0
4, 85440, Note_on_c, 2, 50, 100
4, 85680, Note_on_c, 2, 50, 0
4, 85680, Note_on_c, 2, 48, 100
4, 85920, Note_on_c, 2, 48, 0
4, 85920, Note_on_c, 2, 47, 100
4, 86160, Note_on_c, 2, 47, 0
4, 86160, Note_on_c, 2, 45, 100
4, 86400, Note_on_c, 2, 45, 0
4, 86400, Note_on_c, 2, 43, 100
4, 86640, Note_on_c, 2, 43, 0
4, 86640, Note_on_c, 2, 50, 100
4, 86880, Note_on_c, 2, 50, 0
4, 86880, Note_on_c, 2, 55, 100
4, 87120, Note_on_c, 2, 55, 0
4, 87120, Note_on_c, 2, 53, 100
4, 87360, Note_on_c, 2, 53, 0
4, 87360, Note_on_c, 2, 52, 100
4, 87600, Note_on_c, 2, 52, 0
4, 87600, Note_on_c, 2, 50, 100
4, 87840, Note_on_c, 2, 50, 0
4, 87840, Note_on_c, 2, 48, 100
4, 88080, Note_on_c, 2, 48, 0
4, 88080, Note_on_c, 2, 55, 100
4, 88320, Note_on_c, 2, 55, 0
4, 88320, Note_on_c, 2, 60, 100
4, 88560, Note_on_c, 2, 60, 0
4, 88560, Note_on_c, 2, 59, 100
4, 88800, Note_on_c, 2, 59, 0
4, 88800, Note_on_c, 2, 57, 100
4, 89040, Note_on_c, 2, 57, 0
4, 89040, Note_on_c, 2, 55, 100
4, 89280, Note_on_c, 2, 55, 0
4, 89280, Note_on_c, 2, 54, 100
4, 89520, Note_on_c, 2, 54, 0
4, 89520, Note_on_c, 2, 50, 100
4, 89760, Note_on_c, 2, 50, 0
4, 89760, Note_on_c, 2, 55, 100
4, 90000, Note_on_c, 2, 55, 0
4, 90000, Note_on_c, 2, 59, 100
4, 90240, Note_on_c, 2, 59, 0
4, 90240, Note_on_c, 2, 62, 100
4, 90480, Note_on_c, 2, 62, 0
4, 90480, Note_on_c, 2, 50, 100
4, 90720, Note_on_c, 2, 50, 0
4, 90720, Note_on_c, 2, 55, 100
4, 91440, Note_on_c, 2, 55, 0
4, 91440, Note_on_c, 2, 50, 100
4, 91680, Note_on_c, 2, 50, 0
4, 91680, Note_on_c, 2, 43, 100
4, 92160, Note_on_c, 2, 43, 0
4, 92160, Note_on_c, 2, 67, 100
4, 92280, Note_on_c, 2, 67, 0
4, 92280, Note_on_c, 2, 66, 100
4, 92400, Note_on_c, 2, 66, 0
4, 92400, Note_on_c, 2, 67, 100
4, 92760, Note_on_c, 2, 67, 0
4, 92760, Note_on_c, 2, 62, 100
4, 92880, Note_on_c, 2, 62, 0
4, 92880, Note_on_c, 2, 64, 100
4, 93000, Note_on_c, 2, 64, 0
4, 93000, Note_on_c, 2, 66, 100
4, 93120, Note_on_c, 2, 66, 0
4, 93120, Note_on_c, 2, 67, 100
4, 93240, Note_on_c, 2, 67, 0
4, 93240, Note_on_c, 2, 69, 100
4, 93360, Note_on_c, 2, 69, 0
4, 93360, Note_on_c, 2, 71, 100
4, 93480, Note_on_c, 2, 71, 0
4, 93480, Note_on_c, 2, 73, 100
4, 93600, Note_on_c, 2, 73, 0
4, 93600, Note_on_c, 2, 74, 100
4, 93720, Note_on_c, 2, 74, 0
4, 93720, Note_on_c, 2, 73, 100
4, 93840, Note_on_c, 2, 73, 0
4, 93840, Note_on_c, 2, 74, 100
4, 94200, Note_on_c, 2, 74, 0
4, 94200, Note_on_c, 2, 69, 100
4, 94320, Note_on_c, 2, 69, 0
4, 94320, Note_on_c, 2, 71, 100
4, 94440, Note_on_c, 2, 71, 0
4, 94440, Note_on_c, 2, 73, 100
4, 94560, Note_on_c, 2, 73, 0
4, 94560, Note_on_c, 2, 74, 100
4, 94680, Note_on_c, 2, 74, 0
4, 94680, Note_on_c, 2, 76, 100
4, 94800, Note_on_c, 2, 76, 0
4, 94800, Note_on_c, 2, 78, 100
4, 94920, Note_on_c, 2, 78, 0
4, 94920, Note_on_c, 2, 74, 100
4, 95040, Note_on_c, 2, 74, 0
4, 95040, Note_on_c, 2, 79, 100
4, 95160, Note_on_c, 2, 79, 0
4, 95160, Note_on_c, 2, 78, 100
4, 95280, Note_on_c, 2, 78, 0
4, 95280, Note_on_c, 2, 79, 100
4, 95640, Note_on_c, 2, 79, 0
4, 95640, Note_on_c, 2, 78, 100
4, 95760, Note_on_c, 2, 78, 0
4, 95760, Note_on_c, 2, 76, 100
4, 95880, Note_on_c, 2, 76, 0
4, 95880, Note_on_c, 2, 74, 100
4, 96000, Note_on_c, 2, 74, 0
4, 96000, Note_on_c, 2, 73, 100
4, 96120, Note_on_c, 2, 73, 0
4, 96120, Note_on_c, 2, 76, 100
4, 96240, Note_on_c, 2, 76, 0
4, 96240, Note_on_c, 2, 69, 100
4, 96360, Note_on_c, 2, 69, 0
4, 96360, Note_on_c, 2, 67, 100
4, 96480, Note_on_c, 2, 67, 0
4, 96480, Note_on_c, 2, 66, 100
4, 96600, Note_on_c, 2, 66, 0
4, 96600, Note_on_c, 2, 64, 100
4, 96720, Note_on_c, 2, 64, 0
4, 96720, Note_on_c, 2, 62, 100
4, 96840, Note_on_c, 2, 62, 0
4, 96840, Note_on_c, 2, 61, 100
4, 96960, Note_on_c, 2, 61, 0
4, 96960, Note_on_c, 2, 62, 100
4, 97080, Note_on_c, 2, 62, 0
4, 97080, Note_on_c, 2, 66, 100
4, 97200, Note_on_c, 2, 66, 0
4, 97200, Note_on_c, 2, 57, 100
4, 97320, Note_on_c, 2, 57, 0
4, 97320, Note_on_c, 2, 55, 100
4, 97440, Note_on_c, 2, 55, 0
4, 97440, Note_on_c, 2, 54, 100
4, 97560, Note_on_c, 2, 54, 0
4, 97560, Note_on_c, 2, 57, 100
4, 97680, Note_on_c, 2, 57, 0
4, 97680, Note_on_c, 2, 50, 100
4, 97920, Note_on_c, 2, 50, 0
4, 98160, Note_on_c, 2, 74, 100
4, 98280, Note_on_c, 2, 74, 0
4, 98280, Note_on_c, 2, 72, 100
4, 98400, Note_on_c, 2, 72, 0
4, 98400, Note_on_c, 2, 74, 100
4, 98640, Note_on_c, 2, 74, 0
4, 98640, Note_on_c, 2, 67, 100
4, 98880, Note_on_c, 2, 67, 0
4, 98880, Note_on_c, 2, 59, 100
4, 99120, Note_on_c, 2, 59, 0
4, 99120, Note_on_c, 2, 74, 100
4, 99360, Note_on_c, 2, 74, 0
4, 99600, Note_on_c, 2, 76, 100
4, 99720, Note_on_c, 2, 76, 0
4, 99720, Note_on_c, 2, 74, 100
4, 99840, Note_on_c, 2, 74, 0
4, 99840, Note_on_c, 2, 76, 100
4, 100080, Note_on_c, 2, 76, 0
4, 100080, Note_on_c, 2, 69, 100
4, 100320, Note_on_c, 2, 69, 0
4, 100320, Note_on_c, 2, 60, 100
4, 100560, Note_on_c, 2, 60, 0
4, 100560, Note_on_c, 2, 76, 100
4, 100800, Note_on_c, 2, 76, 0
4, 101040, Note_on_c, 2, 78, 100
4, 101160, Note_on_c, 2, 78, 0
4, 101160, Note_on_c, 2, 76, 100
4, 101280, Note_on_c, 2, 76, 0
4, 101280, Note_on_c, 2, 78, 100
4, 101520, Note_on_c, 2, 78, 0
4, 101520, Note_on_c, 2, 74, 100
4, 101760, Note_on_c, 2, 74, 0
4, 101760, Note_on_c, 2, 81, 100
4, 102000, Note_on_c, 2, 81, 0
4, 102000, Note_on_c, 2, 72, 100
4, 102480, Note_on_c, 2, 72, 0
4, 102480, Note_on_c, 2, 71, 100
4, 102720, Note_on_c, 2, 71, 0
4, 102840, Note_on_c, 2, 67, 100
4, 102960, Note_on_c, 2, 67, 0
4, 102960, Note_on_c, 2, 71, 100
4, 103080, Note_on_c, 2, 71, 0
4, 103080, Note_on_c, 2, 74, 100
4, 103200, Note_on_c, 2, 74, 0
4, 103200, Note_on_c, 2, 79, 100
4, 103320, Note_on_c, 2, 79, 0
4, 103320, Note_on_c, 2, 74, 100
4, 103440, Note_on_c, 2, 74, 0
4, 103440, Note_on_c, 2, 79, 100
4, 103560, Note_on_c, 2, 79, 0
4, 103560, Note_on_c, 2, 81, 100
4, 103680, Note_on_c, 2, 81, 0
4, 103680, Note_on_c, 2, 83, 100
4, 103800, Note_on_c, 2, 83, 0
4, 103800, Note_on_c, 2, 79, 100
4, 103920, Note_on_c, 2, 79, 0
4, 103920, Note_on_c, 2, 74, 100
4, 104040, Note_on_c, 2, 74, 0
4, 104040, Note_on_c, 2, 71, 100
4, 104160, Note_on_c, 2, 71, 0
4, 104160, Note_on_c, 2, 67, 100
4, 104280, Note_on_c, 2, 67, 0
4, 104280, Note_on_c, 2, 71, 100
4, 104400, Note_on_c, 2, 71, 0
4, 104400, Note_on_c, 2, 74, 100
4, 104520, Note_on_c, 2, 74, 0
4, 104520, Note_on_c, 2, 79, 100
4, 104640, Note_on_c, 2, 79, 0
4, 104640, Note_on_c, 2, 83, 100
4, 104760, Note_on_c, 2, 83, 0
4, 104760, Note_on_c, 2, 79, 100
4, 104880, Note_on_c, 2, 79, 0
4, 104880, Note_on_c, 2, 78, 100
4, 105000, Note_on_c, 2, 78, 0
4, 105000, Note_on_c, 2, 76, 100
4, 105120, Note_on_c, 2, 76, 0
4, 105120, Note_on_c, 2, 81, 100
4, 105240, Note_on_c, 2, 81, 0
4, 105240, Note_on_c, 2, 76, 100
4, 105360, Note_on_c, 2, 76, 0
4, 105360, Note_on_c, 2, 73, 100
4, 105480, Note_on_c, 2, 73, 0
4, 105480, Note_on_c, 2, 69, 100
4, 105600, Note_on_c, 2, 69, 0
4, 105600, Note_on_c, 2, 66, 100
4, 105720, Note_on_c, 2, 66, 0
4, 105720, Note_on_c, 2, 69, 100
4, 105840, Note_on_c, 2, 69, 0
4, 105840, Note_on_c, 2, 73, 100
4, 105960, Note_on_c, 2, 73, 0
4, 105960, Note_on_c, 2, 76, 100
4, 106080, Note_on_c, 2, 76, 0
4, 106080, Note_on_c, 2, 81, 100
4, 106200, Note_on_c, 2, 81, 0
4, 106200, Note_on_c, 2, 78, 100
4, 106320, Note_on_c, 2, 78, 0
4, 106320, Note_on_c, 2, 76, 100
4, 106440, Note_on_c, 2, 76, 0
4, 106440, Note_on_c, 2, 74, 100
4, 106560, Note_on_c, 2, 74, 0
4, 106560, Note_on_c, 2, 79, 100
4, 106680, Note_on_c, 2, 79, 0
4, 106680, Note_on_c, 2, 74, 100
4, 106800, Note_on_c, 2, 74, 0
4, 106800, Note_on_c, 2, 71, 100
4, 106920, Note_on_c, 2, 71, 0
4, 106920, Note_on_c, 2, 67, 100
4, 107040, Note_on_c, 2, 67, 0
4, 107040, Note_on_c, 2, 64, 100
4, 107160, Note_on_c, 2, 64, 0
4, 107160, Note_on_c, 2, 67, 100
4, 107280, Note_on_c, 2, 67, 0
4, 107280, Note_on_c, 2, 71, 100
4, 107400, Note_on_c, 2, 71, 0
4, 107400, Note_on_c, 2, 74, 100
4, 107520, Note_on_c, 2, 74, 0
4, 107520, Note_on_c, 2, 79, 100
4, 107640, Note_on_c, 2, 79, 0
4, 107640, Note_on_c, 2, 78, 100
4, 107760, Note_on_c, 2, 78, 0
4, 107760, Note_on_c, 2, 76, 100
4, 107880, Note_on_c, 2, 76, 0
4, 107880, Note_on_c, 2, 74, 100
4, 108000, Note_on_c, 2, 74, 0
4, 108000, Note_on_c, 2, 73, 100
4, 108120, Note_on_c, 2, 73, 0
4, 108120, Note_on_c, 2, 67, 100
4, 108240, Note_on_c, 2, 67, 0
4, 108240, Note_on_c, 2, 64, 100
4, 108360, Note_on_c, 2, 64, 0
4, 108360, Note_on_c, 2, 61, 100
4, 108480, Note_on_c, 2, 61, 0
4, 108480, Note_on_c, 2, 57, 100
4, 108600, Note_on_c, 2, 57, 0
4, 108600, Note_on_c, 2, 61, 100
4, 108720, Note_on_c, 2, 61, 0
4, 108720, Note_on_c, 2, 64, 100
4, 108840, Note_on_c, 2, 64, 0
4, 108840, Note_on_c, 2, 67, 100
4, 108960, Note_on_c, 2, 67, 0
4, 108960, Note_on_c, 2, 73, 100
4, 109080, Note_on_c, 2, 73, 0
4, 109080, Note_on_c, 2, 76, 100
4, 109200, Note_on_c, 2, 76, 0
4, 109200, Note_on_c, 2, 74, 100
4, 109320, Note_on_c, 2, 74, 0
4, 109320, Note_on_c, 2, 73, 100
4, 109440, Note_on_c, 2, 73, 0
4, 109440, Note_on_c, 2, 74, 100
4, 109680, Note_on_c, 2, 74, 0
4, 109680, Note_on_c, 2, 54, 100
4, 109920, Note_on_c, 2, 54, 0
4, 109920, Note_on_c, 2, 54, 100
4, 110160, Note_on_c, 2, 54, 0
4, 110160, Note_on_c, 2, 69, 100
4, 110400, Note_on_c, 2, 69, 0
4, 110400, Note_on_c, 2, 74, 100
4, 110640, Note_on_c, 2, 74, 0
4, 110640, Note_on_c, 2, 78, 100
4, 110880, Note_on_c, 2, 78, 0
4, 110880, Note_on_c, 2, 71, 100
4, 111120, Note_on_c, 2, 71, 0
4, 111120, Note_on_c, 2, 55, 100
4, 111360, Note_on_c, 2, 55, 0
4, 111360, Note_on_c, 2, 55, 100
4, 111600, Note_on_c, 2, 55, 0
4, 111600, Note_on_c, 2, 71, 100
4, 111840, Note_on_c, 2, 71, 0
4, 111840, Note_on_c, 2, 76, 100
4, 112080, Note_on_c, 2, 76, 0
4, 112080, Note_on_c, 2, 79, 100
4, 112320, Note_on_c, 2, 79, 0
4, 112320, Note_on_c, 2, 73, 100
4, 112440, Note_on_c, 2, 73, 0
4, 112440, Note_on_c, 2, 76, 100
4, 112560, Note_on_c, 2, 76, 0
4, 112560, Note_on_c, 2, 69, 100
4, 112680, Note_on_c, 2, 69, 0
4, 112680, Note_on_c, 2, 67, 100
4, 112800, Note_on_c, 2, 67, 0
4, 112800, Note_on_c, 2, 66, 100
4, 112920, Note_on_c, 2, 66, 0
4, 112920, Note_on_c, 2, 69, 100
4, 113040, Note_on_c, 2, 69, 0
4, 113040, Note_on_c, 2, 74, 100
4, 113160, Note_on_c, 2, 74, 0
4, 113160, Note_on_c, 2, 78, 100
4, 113280, Note_on_c, 2, 78, 0
4, 113280, Note_on_c, 2, 79, 100
4, 113400, Note_on_c, 2, 79, 0
4, 113400, Note_on_c, 2, 76, 100
4, 113520, Note_on_c, 2, 76, 0
4, 113520, Note_on_c, 2, 74, 100
4, 113640, Note_on_c, 2, 74, 0
4, 113640, Note_on_c, 2, 73, 100
4, 113760, Note_on_c, 2, 73, 0
4, 113760, Note_on_c, 2, 78, 100
4, 113880, Note_on_c, 2, 78, 0
4, 113880, Note_on_c, 2, 74, 100
4, 114000, Note_on_c, 2, 74, 0
4, 114000, Note_on_c, 2, 73, 100
4, 114120, Note_on_c, 2, 73, 0
4, 114120, Note_on_c, 2, 71, 100
4, 114240, Note_on_c, 2, 71, 0
4, 114240, Note_on_c, 2, 69, 100
4, 114360, Note_on_c, 2, 69, 0
4, 114360, Note_on_c, 2, 67, 100
4, 114480, Note_on_c, 2, 67, 0
4, 114480, Note_on_c, 2, 66, 100
4, 114600, Note_on_c, 2, 66, 0
4, 114600, Note_on_c, 2, 64, 100
4, 114720, Note_on_c, 2, 64, 0
4, 114720, Note_on_c, 2, 62, 100
4, 115200, Note_on_c, 2, 62, 0
4, 115200, Note_on_c, 2, 67, 100
4, 115320, Note_on_c, 2, 67, 0
4, 115320, Note_on_c, 2, 66, 100
4, 115440, Note_on_c, 2, 66, 0
4, 115440, Note_on_c, 2, 67, 100
4, 115800, Note_on_c, 2, 67, 0
4, 115800, Note_on_c, 2, 62, 100
4, 115920, Note_on_c, 2, 62, 0
4, 115920, Note_on_c, 2, 64, 100
4, 116040, Note_on_c, 2, 64, 0
4, 116040, Note_on_c, 2, 66, 100
4, 116160, Note_on_c, 2, 66, 0
4, 116160, Note_on_c, 2, 67, 100
4, 116280, Note_on_c, 2, 67, 0
4, 116280, Note_on_c, 2, 69, 100
4, 116400, Note_on_c, 2, 69, 0
4, 116400, Note_on_c, 2, 71, 100
4, 116520, Note_on_c, 2, 71, 0
4, 116520, Note_on_c, 2, 73, 100
4, 116640, Note_on_c, 2, 73, 0
4, 116640, Note_on_c, 2, 74, 100
4, 116760, Note_on_c, 2, 74, 0
4, 116760, Note_on_c, 2, 73, 100
4, 116880, Note_on_c, 2, 73, 0
4, 116880, Note_on_c, 2, 74, 100
4, 117240, Note_on_c, 2, 74, 0
4, 117240, Note_on_c, 2, 69, 100
4, 117360, Note_on_c, 2, 69, 0
4, 117360, Note_on_c, 2, 71, 100
4, 117480, Note_on_c, 2, 71, 0
4, 117480, Note_on_c, 2, 73, 100
4, 117600, Note_on_c, 2, 73, 0
4, 117600, Note_on_c, 2, 74, 100
4, 117720, Note_on_c, 2, 74, 0
4, 117720, Note_on_c, 2, 76, 100
4, 117840, Note_on_c, 2, 76, 0
4, 117840, Note_on_c, 2, 78, 100
4, 117960, Note_on_c, 2, 78, 0
4, 117960, Note_on_c, 2, 74, 100
4, 118080, Note_on_c, 2, 74, 0
4, 118080, Note_on_c, 2, 79, 100
4, 118200, Note_on_c, 2, 79, 0
4, 118200, Note_on_c, 2, 78, 100
4, 118320, Note_on_c, 2, 78, 0
4, 118320, Note_on_c, 2, 79, 100
4, 118680, Note_on_c, 2, 79, 0
4, 118680, Note_on_c, 2, 78, 100
4, 118800, Note_on_c, 2, 78, 0
4, 118800, Note_on_c, 2, 76, 100
4, 118920, Note_on_c, 2, 76, 0
4, 118920, Note_on_c, 2, 74, 100
4, 119040, Note_on_c, 2, 74, 0
4, 119040, Note_on_c, 2, 73, 100
4, 119160, Note_on_c, 2, 73, 0
4, 119160, Note_on_c, 2, 76, 100
4, 119280, Note_on_c, 2, 76, 0
4, 119280, Note_on_c, 2, 69, 100
4, 119400, Note_on_c, 2, 69, 0
4, 119400, Note_on_c, 2, 67, 100
4, 119520, Note_on_c, 2, 67, 0
4, 119520, Note_on_c, 2, 66, 100
4, 119640, Note_on_c, 2, 66, 0
4, 119640, Note_on_c, 2, 64, 100
4, 119760, Note_on_c, 2, 64, 0
4, 119760, Note_on_c, 2, 62, 100
4, 119880, Note_on_c, 2, 62, 0
4, 119880, Note_on_c, 2, 61, 100
4, 120000, Note_on_c, 2, 61, 0
4, 120000, Note_on_c, 2, 62, 100
4, 120120, Note_on_c, 2, 62, 0
4, 120120, Note_on_c, 2, 66, 100
4, 120240, Note_on_c, 2, 66, 0
4, 120240, Note_on_c, 2, 57, 100
4, 120360, Note_on_c, 2, 57, 0
4, 120360, Note_on_c, 2, 55, 100
4, 120480, Note_on_c, 2, 55, 0
4, 120480, Note_on_c, 2, 54, 100
4, 120600, Note_on_c, 2, 54, 0
4, 120600, Note_on_c, 2, 57, 100
4, 120720, Note_on_c, 2, 57, 0
4, 120720, Note_on_c, 2, 50, 100
4, 120960, Note_on_c, 2, 50, 0
4, 121200, Note_on_c, 2, 74, 100
4, 121320, Note_on_c, 2, 74, 0
4, 121320, Note_on_c, 2, 72, 100
4, 121440, Note_on_c, 2, 72, 0
4, 121440, Note_on_c, 2, 74, 100
4, 121680, Note_on_c, 2, 74, 0
4, 121680, Note_on_c, 2, 67, 100
4, 121920, Note_on_c, 2, 67, 0
4, 121920, Note_on_c, 2, 59, 100
4, 122160, Note_on_c, 2, 59, 0
4, 122160, Note_on_c, 2, 74, 100
4, 122400, Note_on_c, 2, 74, 0
4, 122640, Note_on_c, 2, 76, 100
4, 122760, Note_on_c, 2, 76, 0
4, 122760, Note_on_c, 2, 74, 100
4, 122880, Note_on_c, 2, 74, 0
4, 122880, Note_on_c, 2, 76, 100
4, 123120, Note_on_c, 2, 76, 0
4, 123120, Note_on_c, 2, 69, 100
4, 123360, Note_on_c, 2, 69, 0
4, 123360, Note_on_c, 2, 60, 100
4, 123600, Note_on_c, 2, 60, 0
4, 123600, Note_on_c, 2, 76, 100
4, 123840, Note_on_c, 2, 76, 0
4, 124080, Note_on_c, 2, 78, 100
4, 124200, Note_on_c, 2, 78, 0
4, 124200, Note_on_c, 2, 76, 100
4, 124320, Note_on_c, 2, 76, 0
4, 124320, Note_on_c, 2, 78, 100
4, 124560, Note_on_c, 2, 78, 0
4, 124560, Note_on_c, 2, 74, 100
4, 124800, Note_on_c, 2, 74, 0
4, 124800, Note_on_c, 2, 81, 100
4, 125040, Note_on_c, 2, 81, 0
4, 125040, Note_on_c, 2, 72, 100
4, 125520, Note_on_c, 2, 72, 0
4, 125520, Note_on_c, 2, 71, 100
4, 125760, Note_on_c, 2, 71, 0
4, 125880, Note_on_c, 2, 67, 100
4, 126000, Note_on_c, 2, 67, 0
4, 126000, Note_on_c, 2, 71, 100
4, 126120, Note_on_c, 2, 71, 0
4, 126120, Note_on_c, 2, 74, 100
4, 126240, Note_on_c, 2, 74, 0
4, 126240, Note_on_c, 2, 79, 100
4, 126360, Note_on_c, 2, 79, 0
4, 126360, Note_on_c, 2, 74, 100
4, 126480, Note_on_c, 2, 74, 0
4, 126480, Note_on_c, 2, 79, 100
4, 126600, Note_on_c, 2, 79, 0
4, 126600, Note_on_c, 2, 81, 100
4, 126720, Note_on_c, 2, 81, 0
4, 126720, Note_on_c, 2, 83, 100
4, 126840, Note_on_c, 2, 83, 0
4, 126840, Note_on_c, 2, 79, 100
4, 126960, Note_on_c, 2, 79, 0
4, 126960, Note_on_c, 2, 74, 100
4, 127080, Note_on_c, 2, 74, 0
4, 127080, Note_on_c, 2, 71, 100
4, 127200, Note_on_c, 2, 71, 0
4, 127200, Note_on_c, 2, 67, 100
4, 127320, Note_on_c, 2, 67, 0
4, 127320, Note_on_c, 2, 71, 100
4, 127440, Note_on_c, 2, 71, 0
4, 127440, Note_on_c, 2, 74, 100
4, 127560, Note_on_c, 2, 74, 0
4, 127560, Note_on_c, 2, 79, 100
4, 127680, Note_on_c, 2, 79, 0
4, 127680, Note_on_c, 2, 83, 100
4, 127800, Note_on_c, 2, 83, 0
4, 127800, Note_on_c, 2, 79, 100
4, 127920, Note_on_c, 2, 79, 0
4, 127920, Note_on_c, 2, 78, 100
4, 128040, Note_on_c, 2, 78, 0
4, 128040, Note_on_c, 2, 76, 100
4, 128160, Note_on_c, 2, 76, 0
4, 128160, Note_on_c, 2, 81, 100
4, 128280, Note_on_c, 2, 81, 0
4, 128280, Note_on_c, 2, 76, 100
4, 128400, Note_on_c, 2, 76, 0
4, 128400, Note_on_c, 2, 73, 100
4, 128520, Note_on_c, 2, 73, 0
4, 128520, Note_on_c, 2, 69, 100
4, 128640, Note_on_c, 2, 69, 0
4, 128640, Note_on_c, 2, 66, 100
4, 128760, Note_on_c, 2, 66, 0
4, 128760, Note_on_c, 2, 69, 100
4, 128880, Note_on_c, 2, 69, 0
4, 128880, Note_on_c, 2, 73, 100
4, 129000, Note_on_c, 2, 73, 0
4, 129000, Note_on_c, 2, 76, 100
4, 129120, Note_on_c, 2, 76, 0
4, 129120, Note_on_c, 2, 81, 100
4, 129240, Note_on_c, 2, 81, 0
4, 129240, Note_on_c, 2, 78, 100
4, 129360, Note_on_c, 2, 78, 0
4, 129360, Note_on_c, 2, 76, 100
4, 129480, Note_on_c, 2, 76, 0
4, 129480, Note_on_c, 2, 74, 100
4, 129600, Note_on_c, 2, 74, 0
4, 129600, Note_on_c, 2, 79, 100
4, 129720, Note_on_c, 2, 79, 0
4, 129720, Note_on_c, 2, 74, 100
4, 129840, Note_on_c, 2, 74, 0
4, 129840, Note_on_c, 2, 71, 100
4, 129960, Note_on_c, 2, 71, 0
4, 129960, Note_on_c, 2, 67, 100
4, 130080, Note_on_c, 2, 67, 0
4, 130080, Note_on_c, 2, 64, 100
4, 130200, Note_on_c, 2, 64, 0
4, 130200, Note_on_c, 2, 67, 100
4, 130320, Note_on_c, 2, 67, 0
4, 130320, Note_on_c, 2, 71, 100
4, 130440, Note_on_c, 2, 71, 0
4, 130440, Note_on_c, 2, 74, 100
4, 130560, Note_on_c, 2, 74, 0
4, 130560, Note_on_c, 2, 79, 100
4, 130680, Note_on_c, 2, 79, 0
4, 130680, Note_on_c, 2, 78, 100
4, 130800, Note_on_c, 2, 78, 0
4, 130800, Note_on_c, 2, 76, 100
4, 130920, Note_on_c, 2, 76, 0
4, 130920, Note_on_c, 2, 74, 100
4, 131040, Note_on_c, 2, 74, 0
4, 131040, Note_on_c, 2, 73, 100
4, 131160, Note_on_c, 2, 73, 0
4, 131160, Note_on_c, 2, 67, 100
4, 131280, Note_on_c, 2, 67, 0
4, 131280, Note_on_c, 2, 64, 100
4, 131400, Note_on_c, 2, 64, 0
4, 131400, Note_on_c, 2, 61, 100
4, 131520, Note_on_c, 2, 61, 0
4, 131520, Note_on_c, 2, 57, 100
4, 131640, Note_on_c, 2, 57, 0
4, 131640, Note_on_c, 2, 61, 100
4, 131760, Note_on_c, 2, 61, 0
4, 131760, Note_on_c, 2, 64, 100
4, 131880, Note_on_c, 2, 64, 0
4, 131880, Note_on_c, 2, 67, 100
4, 132000, Note_on_c, 2, 67, 0
4, 132000, Note_on_c, 2, 73, 100
4, 132120, Note_on_c, 2, 73, 0
4, 132120, Note_on_c, 2, 76, 100
4, 132240, Note_on_c, 2, 76, 0
4, 132240, Note_on_c, 2, 74, 100
4, 132360, Note_on_c, 2, 74, 0
4, 132360, Note_on_c, 2, 73, 100
4, 132480, Note_on_c, 2, 73, 0
4, 132480, Note_on_c, 2, 74, 100
4, 132720, Note_on_c, 2, 74, 0
4, 132720, Note_on_c, 2, 54, 100
4, 132960, Note_on_c, 2, 54, 0
4, 132960, Note_on_c, 2, 54, 100
4, 133200, Note_on_c, 2, 54, 0
4, 133200, Note_on_c, 2, 69, 100
4, 133440, Note_on_c, 2, 69, 0
4, 133440, Note_on_c, 2, 74, 100
4, 133680, Note_on_c, 2, 74, 0
4, 133680, Note_on_c, 2, 78, 100
4, 133920, Note_on_c, 2, 78, 0
4, 133920, Note_on_c, 2, 71, 100
4, 134160, Note_on_c, 2, 71, 0
4, 134160, Note_on_c, 2, 55, 100
4, 134400, Note_on_c, 2, 55, 0
4, 134400, Note_on_c, 2, 55, 100
4, 134640, Note_on_c, 2, 55, 0
4, 134640, Note_on_c, 2, 71, 100
4, 134880, Note_on_c, 2, 71, 0
4, 134880, Note_on_c, 2, 76, 100
4, 135120, Note_on_c, 2, 76, 0
4, 135120, Note_on_c, 2, 79, 100
4, 135360, Note_on_c, 2, 79, 0
4, 135360, Note_on_c, 2, 73, 100
4, 135480, Note_on_c, 2, 73, 0
4, 135480, Note_on_c, 2, 76, 100
4, 135600, Note_on_c, 2, 76, 0
4, 135600, Note_on_c, 2, 69, 100
4, 135720, Note_on_c, 2, 69, 0
4, 135720, Note_on_c, 2, 67, 100
4, 135840, Note_on_c, 2, 67, 0
4, 135840, Note_on_c, 2, 66, 100
4, 135960, Note_on_c, 2, 66, 0
4, 135960, Note_on_c, 2, 69, 100
4, 136080, Note_on_c, 2, 69, 0
4, 136080, Note_on_c, 2, 74, 100
4, 136200, Note_on_c, 2, 74, 0
4, 136200, Note_on_c, 2, 78, 100
4, 136320, Note_on_c, 2, 78, 0
4, 136320, Note_on_c, 2, 79, 100
4, 136440, Note_on_c, 2, 79, 0
4, 136440, Note_on_c, 2, 76, 100
4, 136560, Note_on_c, 2, 76, 0
4, 136560, Note_on_c, 2, 74, 100
4, 136680, Note_on_c, 2, 74, 0
4, 136680, Note_on_c, 2, 73, 100
4, 136800, Note_on_c, 2, 73, 0
4, 136800, Note_on_c, 2, 78, 100
4, 136920, Note_on_c, 2, 78, 0
4, 136920, Note_on_c, 2, 74, 100
4, 137040, Note_on_c, 2, 74, 0
4, 137040, Note_on_c, 2, 73, 100
4, 137160, Note_on_c, 2, 73, 0
4, 137160, Note_on_c, 2, 71, 100
4, 137280, Note_on_c, 2, 71, 0
4, 137280, Note_on_c, 2, 69, 100
4, 137400, Note_on_c, 2, 69, 0
4, 137400, Note_on_c, 2, 67, 100
4, 137520, Note_on_c, 2, 67, 0
4, 137520, Note_on_c, 2, 66, 100
4, 137640, Note_on_c, 2, 66, 0
4, 137640, Note_on_c, 2, 64, 100
4, 137760, Note_on_c, 2, 64, 0
4, 137760, Note_on_c, 2, 62, 100
4, 138240, Note_on_c, 2, 62, 0
4, 138240, Note_on_c, 2, 78, 100
4, 138360, Note_on_c, 2, 78, 0
4, 138360, Note_on_c, 2, 79, 100
4, 138480, Note_on_c, 2, 79, 0
4, 138480, Note_on_c, 2, 81, 100
4, 138840, Note_on_c, 2, 81, 0
4, 138840, Note_on_c, 2, 83, 100
4, 138960, Note_on_c, 2, 83, 0
4, 138960, Note_on_c, 2, 81, 100
4, 139080, Note_on_c, 2, 81, 0
4, 139080, Note_on_c, 2, 79, 100
4, 139200, Note_on_c, 2, 79, 0
4, 139200, Note_on_c, 2, 78, 100
4, 139320, Note_on_c, 2, 78, 0
4, 139320, Note_on_c, 2, 76, 100
4, 139440, Note_on_c, 2, 76, 0
4, 139440, Note_on_c, 2, 74, 100
4, 139560, Note_on_c, 2, 74, 0
4, 139560, Note_on_c, 2, 72, 100
4, 139680, Note_on_c, 2, 72, 0
4, 139680, Note_on_c, 2, 71, 100
4, 139800, Note_on_c, 2, 71, 0
4, 139800, Note_on_c, 2, 72, 100
4, 139920, Note_on_c, 2, 72, 0
4, 139920, Note_on_c, 2, 74, 100
4, 140280, Note_on_c, 2, 74, 0
4, 140280, Note_on_c, 2, 76, 100
4, 140400, Note_on_c, 2, 76, 0
4, 140400, Note_on_c, 2, 74, 100
4, 140520, Note_on_c, 2, 74, 0
4, 140520, Note_on_c, 2, 72, 100
4, 140640, Note_on_c, 2, 72, 0
4, 140640, Note_on_c, 2, 71, 100
4, 140760, Note_on_c, 2, 71, 0
4, 140760, Note_on_c, 2, 69, 100
4, 140880, Note_on_c, 2, 69, 0
4, 140880, Note_on_c, 2, 67, 100
4, 141000, Note_on_c, 2, 67, 0
4, 141000, Note_on_c, 2, 66, 100
4, 141120, Note_on_c, 2, 66, 0
4, 141120, Note_on_c, 2, 64, 100
4, 141240, Note_on_c, 2, 64, 0
4, 141240, Note_on_c, 2, 68, 100
4, 141360, Note_on_c, 2, 68, 0
4, 141360, Note_on_c, 2, 69, 100
4, 141480, Note_on_c, 2, 69, 0
4, 141480, Note_on_c, 2, 71, 100
4, 141600, Note_on_c, 2, 71, 0
4, 141600, Note_on_c, 2, 69, 100
4, 141720, Note_on_c, 2, 69, 0
4, 141720, Note_on_c, 2, 64, 100
4, 141840, Note_on_c, 2, 64, 0
4, 141840, Note_on_c, 2, 69, 100
4, 141960, Note_on_c, 2, 69, 0
4, 141960, Note_on_c, 2, 71, 100
4, 142080, Note_on_c, 2, 71, 0
4, 142080, Note_on_c, 2, 72, 100
4, 142200, Note_on_c, 2, 72, 0
4, 142200, Note_on_c, 2, 69, 100
4, 142320, Note_on_c, 2, 69, 0
4, 142320, Note_on_c, 2, 75, 100
4, 142440, Note_on_c, 2, 75, 0
4, 142440, Note_on_c, 2, 76, 100
4, 142560, Note_on_c, 2, 76, 0
4, 142560, Note_on_c, 2, 78, 100
4, 142680, Note_on_c, 2, 78, 0
4, 142680, Note_on_c, 2, 76, 100
4, 142800, Note_on_c, 2, 76, 0
4, 142800, Note_on_c, 2, 75, 100
4, 142920, Note_on_c, 2, 75, 0
4, 142920, Note_on_c, 2, 73, 100
4, 143040, Note_on_c, 2, 73, 0
4, 143040, Note_on_c, 2, 71, 100
4, 144120, Note_on_c, 2, 71, 0
4, 144120, Note_on_c, 2, 75, 100
4, 144240, Note_on_c, 2, 75, 0
4, 144240, Note_on_c, 2, 76, 100
4, 144600, Note_on_c, 2, 76, 0
4, 144600, Note_on_c, 2, 63, 100
4, 144720, Note_on_c, 2, 63, 0
4, 144720, Note_on_c, 2, 64, 100
4, 145080, Note_on_c, 2, 64, 0
4, 145080, Note_on_c, 2, 51, 100
4, 145200, Note_on_c, 2, 51, 0
4, 145200, Note_on_c, 2, 52, 100
4, 145440, Note_on_c, 2, 52, 0
4, 145560, Note_on_c, 2, 80, 100
4, 145680, Note_on_c, 2, 80, 0
4, 145680, Note_on_c, 2, 81, 100
4, 146040, Note_on_c, 2, 81, 0
4, 146040, Note_on_c, 2, 68, 100
4, 146160, Note_on_c, 2, 68, 0
4, 146160, Note_on_c, 2, 69, 100
4, 146520, Note_on_c, 2, 69, 0
4, 146520, Note_on_c, 2, 56, 100
4, 146640, Note_on_c, 2, 56, 0
4, 146640, Note_on_c, 2, 57, 100
4, 147000, Note_on_c, 2, 57, 0
4, 147000, Note_on_c, 2, 59, 100
4, 147120, Note_on_c, 2, 59, 0
4, 147120, Note_on_c, 2, 60, 100
4, 147240, Note_on_c, 2, 60, 0
4, 147240, Note_on_c, 2, 66, 100
4, 147360, Note_on_c, 2, 66, 0
4, 147360, Note_on_c, 2, 59, 100
4, 147480, Note_on_c, 2, 59, 0
4, 147480, Note_on_c, 2, 63, 100
4, 147600, Note_on_c, 2, 63, 0
4, 147600, Note_on_c, 2, 64, 100
4, 147720, Note_on_c, 2, 64, 0
4, 147720, Note_on_c, 2, 67, 100
4, 147840, Note_on_c, 2, 67, 0
4, 147840, Note_on_c, 2, 66, 100
4, 147960, Note_on_c, 2, 66, 0
4, 147960, Note_on_c, 2, 64, 100
4, 148080, Note_on_c, 2, 64, 0
4, 148080, Note_on_c, 2, 63, 100
4, 148200, Note_on_c, 2, 63, 0
4, 148200, Note_on_c, 2, 69, 100
4, 148320, Note_on_c, 2, 69, 0
4, 148320, Note_on_c, 2, 67, 100
4, 148440, Note_on_c, 2, 67, 0
4, 148440, Note_on_c, 2, 66, 100
4, 148560, Note_on_c, 2, 66, 0
4, 148560, Note_on_c, 2, 64, 100
4, 148680, Note_on_c, 2, 64, 0
4, 148680, Note_on_c, 2, 63, 100
4, 148800, Note_on_c, 2, 63, 0
4, 148800, Note_on_c, 2, 64, 100
4, 148920, Note_on_c, 2, 64, 0
4, 148920, Note_on_c, 2, 67, 100
4, 149040, Note_on_c, 2, 67, 0
4, 149040, Note_on_c, 2, 59, 100
4, 149160, Note_on_c, 2, 59, 0
4, 149160, Note_on_c, 2, 57, 100
4, 149280, Note_on_c, 2, 57, 0
4, 149280, Note_on_c, 2, 55, 100
4, 149400, Note_on_c, 2, 55, 0
4, 149400, Note_on_c, 2, 59, 100
4, 149520, Note_on_c, 2, 59, 0
4, 149520, Note_on_c, 2, 52, 100
4, 149760, Note_on_c, 2, 52, 0
4, 150000, Note_on_c, 2, 76, 100
4, 150240, Note_on_c, 2, 76, 0
4, 150240, Note_on_c, 2, 72, 100
4, 150480, Note_on_c, 2, 72, 0
4, 150480, Note_on_c, 2, 76, 100
4, 150720, Note_on_c, 2, 76, 0
4, 150720, Note_on_c, 2, 81, 100
4, 150960, Note_on_c, 2, 81, 0
4, 150960, Note_on_c, 2, 69, 100
4, 151200, Note_on_c, 2, 69, 0
4, 151440, Note_on_c, 2, 74, 100
4, 151680, Note_on_c, 2, 74, 0
4, 151680, Note_on_c, 2, 71, 100
4, 151920, Note_on_c, 2, 71, 0
4, 151920, Note_on_c, 2, 74, 100
4, 152160, Note_on_c, 2, 74, 0
4, 152160, Note_on_c, 2, 79, 100
4, 152400, Note_on_c, 2, 79, 0
4, 152400, Note_on_c, 2, 67, 100
4, 152640, Note_on_c, 2, 67, 0
4, 152640, Note_on_c, 2, 72, 100
4, 152760, Note_on_c, 2, 72, 0
4, 152760, Note_on_c, 2, 69, 100
4, 152880, Note_on_c, 2, 69, 0
4, 152880, Note_on_c, 2, 64, 100
4, 153000, Note_on_c, 2, 64, 0
4, 153000, Note_on_c, 2, 60, 100
4, 153120, Note_on_c, 2, 60, 0
4, 153120, Note_on_c, 2, 57, 100
4, 153240, Note_on_c, 2, 57, 0
4, 153240, Note_on_c, 2, 60, 100
4, 153360, Note_on_c, 2, 60, 0
4, 153360, Note_on_c, 2, 64, 100
4, 153480, Note_on_c, 2, 64, 0
4, 153480, Note_on_c, 2, 69, 100
4, 153600, Note_on_c, 2, 69, 0
4, 153600, Note_on_c, 2, 72, 100
4, 153720, Note_on_c, 2, 72, 0
4, 153720, Note_on_c, 2, 69, 100
4, 153840, Note_on_c, 2, 69, 0
4, 153840, Note_on_c, 2, 72, 100
4, 153960, Note_on_c, 2, 72, 0
4, 153960, Note_on_c, 2, 76, 100
4, 154080, Note_on_c, 2, 76, 0
4, 154080, Note_on_c, 2, 78, 100
4, 154200, Note_on_c, 2, 78, 0
4, 154200, Note_on_c, 2, 72, 100
4, 154320, Note_on_c, 2, 72, 0
4, 154320, Note_on_c, 2, 69, 100
4, 154440, Note_on_c, 2, 69, 0
4, 154440, Note_on_c, 2, 66, 100
4, 154560, Note_on_c, 2, 66, 0
4, 154560, Note_on_c, 2, 62, 100
4, 154680, Note_on_c, 2, 62, 0
4, 154680, Note_on_c, 2, 66, 100
4, 154800, Note_on_c, 2, 66, 0
4, 154800, Note_on_c, 2, 69, 100
4, 154920, Note_on_c, 2, 69, 0
4, 154920, Note_on_c, 2, 72, 100
4, 155040, Note_on_c, 2, 72, 0
4, 155040, Note_on_c, 2, 78, 100
4, 155160, Note_on_c, 2, 78, 0
4, 155160, Note_on_c, 2, 72, 100
4, 155280, Note_on_c, 2, 72, 0
4, 155280, Note_on_c, 2, 78, 100
4, 155400, Note_on_c, 2, 78, 0
4, 155400, Note_on_c, 2, 81, 100
4, 155520, Note_on_c, 2, 81, 0
4, 155520, Note_on_c, 2, 83, 100
4, 155640, Note_on_c, 2, 83, 0
4, 155640, Note_on_c, 2, 79, 100
4, 155760, Note_on_c, 2, 79, 0
4, 155760, Note_on_c, 2, 74, 100
4, 155880, Note_on_c, 2, 74, 0
4, 155880, Note_on_c, 2, 71, 100
4, 156000, Note_on_c, 2, 71, 0
4, 156000, Note_on_c, 2, 67, 100
4, 156120, Note_on_c, 2, 67, 0
4, 156120, Note_on_c, 2, 71, 100
4, 156240, Note_on_c, 2, 71, 0
4, 156240, Note_on_c, 2, 74, 100
4, 156360, Note_on_c, 2, 74, 0
4, 156360, Note_on_c, 2, 79, 100
4, 156480, Note_on_c, 2, 79, 0
4, 156480, Note_on_c, 2, 83, 100
4, 156600, Note_on_c, 2, 83, 0
4, 156600, Note_on_c, 2, 77, 100
4, 156720, Note_on_c, 2, 77, 0
4, 156720, Note_on_c, 2, 83, 100
4, 156840, Note_on_c, 2, 83, 0
4, 156840, Note_on_c, 2, 86, 100
4, 156960, Note_on_c, 2, 86, 0
4, 156960, Note_on_c, 2, 76, 100
4, 157080, Note_on_c, 2, 76, 0
4, 157080, Note_on_c, 2, 86, 100
4, 157200, Note_on_c, 2, 86, 0
4, 157200, Note_on_c, 2, 84, 100
4, 157320, Note_on_c, 2, 84, 0
4, 157320, Note_on_c, 2, 76, 100
4, 157440, Note_on_c, 2, 76, 0
4, 157440, Note_on_c, 2, 74, 100
4, 157560, Note_on_c, 2, 74, 0
4, 157560, Note_on_c, 2, 84, 100
4, 157680, Note_on_c, 2, 84, 0
4, 157680, Note_on_c, 2, 83, 100
4, 157800, Note_on_c, 2, 83, 0
4, 157800, Note_on_c, 2, 74, 100
4, 157920, Note_on_c, 2, 74, 0
4, 157920, Note_on_c, 2, 72, 100
4, 158040, Note_on_c, 2, 72, 0
4, 158040, Note_on_c, 2, 76, 100
4, 158160, Note_on_c, 2, 76, 0
4, 158160, Note_on_c, 2, 78, 100
4, 158280, Note_on_c, 2, 78, 0
4, 158280, Note_on_c, 2, 79, 100
4, 158400, Note_on_c, 2, 79, 0
4, 158400, Note_on_c, 2, 81, 100
4, 158520, Note_on_c, 2, 81, 0
4, 158520, Note_on_c, 2, 72, 100
4, 158640, Note_on_c, 2, 72, 0
4, 158640, Note_on_c, 2, 71, 100
4, 158760, Note_on_c, 2, 71, 0
4, 158760, Note_on_c, 2, 69, 100
4, 158880, Note_on_c, 2, 69, 0
4, 158880, Note_on_c, 2, 71, 100
4, 159000, Note_on_c, 2, 71, 0
4, 159000, Note_on_c, 2, 74, 100
4, 159120, Note_on_c, 2, 74, 0
4, 159120, Note_on_c, 2, 71, 100
4, 159240, Note_on_c, 2, 71, 0
4, 159240, Note_on_c, 2, 67, 100
4, 159360, Note_on_c, 2, 67, 0
4, 159360, Note_on_c, 2, 72, 100
4, 159480, Note_on_c, 2, 72, 0
4, 159480, Note_on_c, 2, 69, 100
4, 159600, Note_on_c, 2, 69, 0
4, 159600, Note_on_c, 2, 67, 100
4, 159720, Note_on_c, 2, 67, 0
4, 159720, Note_on_c, 2, 66, 100
4, 159840, Note_on_c, 2, 66, 0
4, 159840, Note_on_c, 2, 71, 100
4, 159960, Note_on_c, 2, 71, 0
4, 159960, Note_on_c, 2, 67, 100
4, 160080, Note_on_c, 2, 67, 0
4, 160080, Note_on_c, 2, 66, 100
4, 160200, Note_on_c, 2, 66, 0
4, 160200, Note_on_c, 2, 64, 100
4, 160320, Note_on_c, 2, 64, 0
4, 160320, Note_on_c, 2, 62, 100
4, 160440, Note_on_c, 2, 62, 0
4, 160440, Note_on_c, 2, 60, 100
4, 160560, Note_on_c, 2, 60, 0
4, 160560, Note_on_c, 2, 59, 100
4, 160680, Note_on_c, 2, 59, 0
4, 160680, Note_on_c, 2, 57, 100
4, 160800, Note_on_c, 2, 57, 0
4, 160800, Note_on_c, 2, 55, 100
4, 161280, Note_on_c, 2, 55, 0
4, 161280, Note_on_c, 2, 78, 100
4, 161400, Note_on_c, 2, 78, 0
4, 161400, Note_on_c, 2, 79, 100
4, 161520, Note_on_c, 2, 79, 0
4, 161520, Note_on_c, 2, 81, 100
4, 161880, Note_on_c, 2, 81, 0
4, 161880, Note_on_c, 2, 83, 100
4, 162000, Note_on_c, 2, 83, 0
4, 162000, Note_on_c, 2, 81, 100
4, 162120, Note_on_c, 2, 81, 0
4, 162120, Note_on_c, 2, 79, 100
4, 162240, Note_on_c, 2, 79, 0
4, 162240, Note_on_c, 2, 78, 100
4, 162360, Note_on_c, 2, 78, 0
4, 162360, Note_on_c, 2, 76, 100
4, 162480, Note_on_c, 2, 76, 0
4, 162480, Note_on_c, 2, 74, 100
4, 162600, Note_on_c, 2, 74, 0
4, 162600, Note_on_c, 2, 72, 100
4, 162720, Note_on_c, 2, 72, 0
4, 162720, Note_on_c, 2, 71, 100
4, 162840, Note_on_c, 2, 71, 0
4, 162840, Note_on_c, 2, 72, 100
4, 162960, Note_on_c, 2, 72, 0
4, 162960, Note_on_c, 2, 74, 100
4, 163320, Note_on_c, 2, 74, 0
4, 163320, Note_on_c, 2, 76, 100
4, 163440, Note_on_c, 2, 76, 0
4, 163440, Note_on_c, 2, 74, 100
4, 163560, Note_on_c, 2, 74, 0
4, 163560, Note_on_c, 2, 72, 100
4, 163680, Note_on_c, 2, 72, 0
4, 163680, Note_on_c, 2, 71, 100
4, 163800, Note_on_c, 2, 71, 0
4, 163800, Note_on_c, 2, 69, 100
4, 163920, Note_on_c, 2, 69, 0
4, 163920, Note_on_c, 2, 67, 100
4, 164040, Note_on_c, 2, 67, 0
4, 164040, Note_on_c, 2, 66, 100
4, 164160, Note_on_c, 2, 66, 0
4, 164160, Note_on_c, 2, 64, 100
4, 164280, Note_on_c, 2, 64, 0
4, 164280, Note_on_c, 2, 68, 100
4, 164400, Note_on_c, 2, 68, 0
4, 164400, Note_on_c, 2, 69, 100
4, 164520, Note_on_c, 2, 69, 0
4, 164520, Note_on_c, 2, 71, 100
4, 164640, Note_on_c, 2, 71, 0
4, 164640, Note_on_c, 2, 69, 100
4, 164760, Note_on_c, 2, 69, 0
4, 164760, Note_on_c, 2, 64, 100
4, 164880, Note_on_c, 2, 64, 0
4, 164880, Note_on_c, 2, 69, 100
4, 165000, Note_on_c, 2, 69, 0
4, 165000, Note_on_c, 2, 71, 100
4, 165120, Note_on_c, 2, 71, 0
4, 165120, Note_on_c, 2, 72, 100
4, 165240, Note_on_c, 2, 72, 0
4, 165240, Note_on_c, 2, 69, 100
4, 165360, Note_on_c, 2, 69, 0
4, 165360, Note_on_c, 2, 75, 100
4, 165480, Note_on_c, 2, 75, 0
4, 165480, Note_on_c, 2, 76, 100
4, 165600, Note_on_c, 2, 76, 0
4, 165600, Note_on_c, 2, 78, 100
4, 165720, Note_on_c, 2, 78, 0
4, 165720, Note_on_c, 2, 76, 100
4, 165840, Note_on_c, 2, 76, 0
4, 165840, Note_on_c, 2, 75, 100
4, 165960, Note_on_c, 2, 75, 0
4, 165960, Note_on_c, 2, 73, 100
4, 166080, Note_on_c, 2, 73, 0
4, 166080, Note_on_c, 2, 71, 100
4, 167160, Note_on_c, 2, 71, 0
4, 167160, Note_on_c, 2, 75, 100
4, 167280, Note_on_c, 2, 75, 0
4, 167280, Note_on_c, 2, 76, 100
4, 167640, Note_on_c, 2, 76, 0
4, 167640, Note_on_c, 2, 63, 100
4, 167760, Note_on_c, 2, 63, 0
4, 167760, Note_on_c, 2, 64, 100
4, 168120, Note_on_c, 2, 64, 0
4, 168120, Note_on_c, 2, 51, 100
4, 168240, Note_on_c, 2, 51, 0
4, 168240, Note_on_c, 2, 52, 100
4, 168480, Note_on_c, 2, 52, 0
4, 168600, Note_on_c, 2, 80, 100
4, 168720, Note_on_c, 2, 80, 0
4, 168720, Note_on_c, 2, 81, 100
4, 169080, Note_on_c, 2, 81, 0
4, 169080, Note_on_c, 2, 68, 100
4, 169200, Note_on_c, 2, 68, 0
4, 169200, Note_on_c, 2, 69, 100
4, 169560, Note_on_c, 2, 69, 0
4, 169560, Note_on_c, 2, 56, 100
4, 169680, Note_on_c, 2, 56, 0
4, 169680, Note_on_c, 2, 57, 100
4, 170040, Note_on_c, 2, 57, 0
4, 170040, Note_on_c, 2, 59, 100
4, 170160, Note_on_c, 2, 59, 0
4, 170160, Note_on_c, 2, 60, 100
4, 170280, Note_on_c, 2, 60, 0
4, 170280, Note_on_c, 2, 66, 100
4, 170400, Note_on_c, 2, 66, 0
4, 170400, Note_on_c, 2, 59, 100
4, 170520, Note_on_c, 2, 59, 0
4, 170520, Note_on_c, 2, 63, 100
4, 170640, Note_on_c, 2, 63, 0
4, 170640, Note_on_c, 2, 64, 100
4, 170760, Note_on_c, 2, 64, 0
4, 170760, Note_on_c, 2, 67, 100
4, 170880, Note_on_c, 2, 67, 0
4, 170880, Note_on_c, 2, 66, 100
4, 171000, Note_on_c, 2, 66, 0
4, 171000, Note_on_c, 2, 64, 100
4, 171120, Note_on_c, 2, 64, 0
4, 171120, Note_on_c, 2, 63, 100
4, 171240, Note_on_c, 2, 63, 0
4, 171240, Note_on_c, 2, 69, 100
4, 171360, Note_on_c, 2, 69, 0
4, 171360, Note_on_c, 2, 67, 100
4, 171480, Note_on_c, 2, 67, 0
4, 171480, Note_on_c, 2, 66, 100
4, 171600, Note_on_c, 2, 66, 0
4, 171600, Note_on_c, 2, 64, 100
4, 171720, Note_on_c, 2, 64, 0
4, 171720, Note_on_c, 2, 63, 100
4, 171840, Note_on_c, 2, 63, 0
4, 171840, Note_on_c, 2, 64, 100
4, 171960, Note_on_c, 2, 64, 0
4, 171960, Note_on_c, 2, 67, 100
4, 172080, Note_on_c, 2, 67, 0
4, 172080, Note_on_c, 2, 59, 100
4, 172200, Note_on_c, 2, 59, 0
4, 172200, Note_on_c, 2, 57, 100
4, 172320, Note_on_c, 2, 57, 0
4, 172320, Note_on_c, 2, 55, 100
4, 172440, Note_on_c, 2, 55, 0
4, 172440, Note_on_c, 2, 59, 100
4, 172560, Note_on_c, 2, 59, 0
4, 172560, Note_on_c, 2, 52, 100
4, 172800, Note_on_c, 2, 52, 0
4, 173040, Note_on_c, 2, 76, 100
4, 173280, Note_on_c, 2, 76, 0
4, 173280, Note_on_c, 2, 72, 100
4, 173520, Note_on_c, 2, 72, 0
4, 173520, Note_on_c, 2, 76, 100
4, 173760, Note_on_c, 2, 76, 0
4, 173760, Note_on_c, 2, 81, 100
4, 174000, Note_on_c, 2, 81, 0
4, 174000, Note_on_c, 2, 69, 100
4, 174240, Note_on_c, 2, 69, 0
4, 174480, Note_on_c, 2, 74, 100
4, 174720, Note_on_c, 2, 74, 0
4, 174720, Note_on_c, 2, 71, 100
4, 174960, Note_on_c, 2, 71, 0
4, 174960, Note_on_c, 2, 74, 100
4, 175200, Note_on_c, 2, 74, 0
4, 175200, Note_on_c, 2, 79, 100
4, 175440, Note_on_c, 2, 79, 0
4, 175440, Note_on_c, 2, 67, 100
4, 175680, Note_on_c, 2, 67, 0
4, 175680, Note_on_c, 2, 72, 100
4, 175800, Note_on_c, 2, 72, 0
4, 175800, Note_on_c, 2, 69, 100
4, 175920, Note_on_c, 2, 69, 0
4, 175920, Note_on_c, 2, 64, 100
4, 176040, Note_on_c, 2, 64, 0
4, 176040, Note_on_c, 2, 60, 100
4, 176160, Note_on_c, 2, 60, 0
4, 176160, Note_on_c, 2, 57, 100
4, 176280, Note_on_c, 2, 57, 0
4, 176280, Note_on_c, 2, 60, 100
4, 176400, Note_on_c, 2, 60, 0
4, 176400, Note_on_c, 2, 64, 100
4, 176520, Note_on_c, 2, 64, 0
4, 176520, Note_on_c, 2, 69, 100
4, 176640, Note_on_c, 2, 69, 0
4, 176640, Note_on_c, 2, 72, 100
4, 176760, Note_on_c, 2, 72, 0
4, 176760, Note_on_c, 2, 69, 100
4, 176880, Note_on_c, 2, 69, 0
4, 176880, Note_on_c, 2, 72, 100
4, 177000, Note_on_c, 2, 72, 0
4, 177000, Note_on_c, 2, 76, 100
4, 177120, Note_on_c, 2, 76, 0
4, 177120, Note_on_c, 2, 78, 100
4, 177240, Note_on_c, 2, 78, 0
4, 177240, Note_on_c, 2, 72, 100
4, 177360, Note_on_c, 2, 72, 0
4, 177360, Note_on_c, 2, 69, 100
4, 177480, Note_on_c, 2, 69, 0
4, 177480, Note_on_c, 2, 66, 100
4, 177600, Note_on_c, 2, 66, 0
4, 177600, Note_on_c, 2, 62, 100
4, 177720, Note_on_c, 2, 62, 0
4, 177720, Note_on_c, 2, 66, 100
4, 177840, Note_on_c, 2, 66, 0
4, 177840, Note_on_c, 2, 69, 100
4, 177960, Note_on_c, 2, 69, 0
4, 177960, Note_on_c, 2, 72, 100
4, 178080, Note_on_c, 2, 72, 0
4, 178080, Note_on_c, 2, 78, 100
4, 178200, Note_on_c, 2, 78, 0
4, 178200, Note_on_c, 2, 72, 100
4, 178320, Note_on_c, 2, 72, 0
4, 178320, Note_on_c, 2, 78, 100
4, 178440, Note_on_c, 2, 78, 0
4, 178440, Note_on_c, 2, 81, 100
4, 178560, Note_on_c, 2, 81, 0
4, 178560, Note_on_c, 2, 83, 100
4, 178680, Note_on_c, 2, 83, 0
4, 178680, Note_on_c, 2, 79, 100
4, 178800, Note_on_c, 2, 79, 0
4, 178800, Note_on_c, 2, 74, 100
4, 178920, Note_on_c, 2, 74, 0
4, 178920, Note_on_c, 2, 71, 100
4, 179040, Note_on_c, 2, 71, 0
4, 179040, Note_on_c, 2, 67, 100
4, 179160, Note_on_c, 2, 67, 0
4, 179160, Note_on_c, 2, 71, 100
4, 179280, Note_on_c, 2, 71, 0
4, 179280, Note_on_c, 2, 74, 100
4, 179400, Note_on_c, 2, 74, 0
4, 179400, Note_on_c, 2, 79, 100
4, 179520, Note_on_c, 2, 79, 0
4, 179520, Note_on_c, 2, 83, 100
4, 179640, Note_on_c, 2, 83, 0
4, 179640, Note_on_c, 2, 77, 100
4, 179760, Note_on_c, 2, 77, 0
4, 179760, Note_on_c, 2, 83, 100
4, 179880, Note_on_c, 2, 83, 0
4, 179880, Note_on_c, 2, 86, 100
4, 180000, Note_on_c, 2, 86, 0
4, 180000, Note_on_c, 2, 76, 100
4, 180120, Note_on_c, 2, 76, 0
4, 180120, Note_on_c, 2, 86, 100
4, 180240, Note_on_c, 2, 86, 0
4, 180240, Note_on_c, 2, 84, 100
4, 180360, Note_on_c, 2, 84, 0
4, 180360, Note_on_c, 2, 76, 100
4, 180480, Note_on_c, 2, 76, 0
4, 180480, Note_on_c, 2, 74, 100
4, 180600, Note_on_c, 2, 74, 0
4, 180600, Note_on_c, 2, 84, 100
4, 180720, Note_on_c, 2, 84, 0
4, 180720, Note_on_c, 2, 83, 100
4, 180840, Note_on_c, 2, 83, 0
4, 180840, Note_on_c, 2, 74, 100
4, 180960, Note_on_c, 2, 74, 0
4, 180960, Note_on_c, 2, 72, 100
4, 181080, Note_on_c, 2, 72, 0
4, 181080, Note_on_c, 2, 76, 100
4, 181200, Note_on_c, 2, 76, 0
4, 181200, Note_on_c, 2, 78, 100
4, 181320, Note_on_c, 2, 78, 0
4, 181320, Note_on_c, 2, 79, 100
4, 181440, Note_on_c, 2, 79, 0
4, 181440, Note_on_c, 2, 81, 100
4, 181560, Note_on_c, 2, 81, 0
4, 181560, Note_on_c, 2, 72, 100
4, 181680, Note_on_c, 2, 72, 0
4, 181680, Note_on_c, 2, 71, 100
4, 181800, Note_on_c, 2, 71, 0
4, 181800, Note_on_c, 2, 69, 100
4, 181920, Note_on_c, 2, 69, 0
4, 181920, Note_on_c, 2, 71, 100
4, 182040, Note_on_c, 2, 71, 0
4, 182040, Note_on_c, 2, 74, 100
4, 182160, Note_on_c, 2, 74, 0
4, 182160, Note_on_c, 2, 71, 100
4, 182280, Note_on_c, 2, 71, 0
4, 182280, Note_on_c, 2, 67, 100
4, 182400, Note_on_c, 2, 67, 0
4, 182400, Note_on_c, 2, 72, 100
4, 182520, Note_on_c, 2, 72, 0
4, 182520, Note_on_c, 2, 69, 100
4, 182640, Note_on_c, 2, 69, 0
4, 182640, Note_on_c, 2, 67, 100
4, 182760, Note_on_c, 2, 67, 0
4, 182760, Note_on_c, 2, 66, 100
4, 182880, Note_on_c, 2, 66, 0
4, 182880, Note_on_c, 2, 71, 100
4, 183000, Note_on_c, 2, 71, 0
4, 183000, Note_on_c, 2, 67, 100
4, 183120, Note_on_c, 2, 67, 0
4, 183120, Note_on_c, 2, 66, 100
4, 183240, Note_on_c, 2, 66, 0
4, 183240, Note_on_c, 2, 64, 100
4, 183360, Note_on_c, 2, 64, 0
4, 183360, Note_on_c, 2, 62, 100
4, 183480, Note_on_c, 2, 62, 0
4, 183480, Note_on_c, 2, 60, 100
4, 183600, Note_on_c, 2, 60, 0
4, 183600, Note_on_c, 2, 59, 100
4, 183720, Note_on_c, 2, 59, 0
4, 183720, Note_on_c, 2, 57, 100
4, 183840, Note_on_c, 2, 57, 0
4, 183840, Note_on_c, 2, 55, 100
4, 184320, Note_on_c, 2, 55, 0
4, 338880, Note_on_c, 2, 62, 100
4, 339120, Note_on_c, 2, 62, 0
4, 339120, Note_on_c, 2, 66, 100
4, 339360, Note_on_c, 2, 66, 0
4, 339360, Note_on_c, 2, 59, 100
4, 339600, Note_on_c, 2, 59, 0
4, 339600, Note_on_c, 2, 67, 100
4, 339840, Note_on_c, 2, 67, 0
4, 339840, Note_on_c, 2, 72, 100
4, 340080, Note_on_c, 2, 72, 0
4, 340080, Note_on_c, 2, 71, 100
4, 340200, Note_on_c, 2, 71, 0
4, 340200, Note_on_c, 2, 67, 100
4, 340320, Note_on_c, 2, 67, 0
4, 340320, Note_on_c, 2, 69, 100
4, 340560, Note_on_c, 2, 69, 0
4, 341760, Note_on_c, 2, 60, 100
4, 342000, Note_on_c, 2, 60, 0
4, 342000, Note_on_c, 2, 64, 100
4, 342240, Note_on_c, 2, 64, 0
4, 342240, Note_on_c, 2, 57, 100
4, 342480, Note_on_c, 2, 57, 0
4, 342480, Note_on_c, 2, 62, 100
4, 343200, Note_on_c, 2, 62, 0
4, 343200, Note_on_c, 2, 67, 100
4, 343440, Note_on_c, 2, 67, 0
4, 345360, Note_on_c, 2, 73, 100
4, 345600, Note_on_c, 2, 73, 0
4, 345600, Note_on_c, 2, 76, 100
4, 345840, Note_on_c, 2, 76, 0
4, 345840, Note_on_c, 2, 69, 100
4, 346320, Note_on_c, 2, 69, 0
4, 346320, Note_on_c, 2, 67, 100
4, 346800, Note_on_c, 2, 67, 0
4, 346800, Note_on_c, 2, 66, 100
4, 347040, Note_on_c, 2, 66, 0
4, 347040, Note_on_c, 2, 69, 100
4, 347280, Note_on_c, 2, 69, 0
4, 347280, Note_on_c, 2, 62, 100
4, 347520, Note_on_c, 2, 62, 0
4, 347520, Note_on_c, 2, 64, 100
4, 347760, Note_on_c, 2, 64, 0
4, 347760, Note_on_c, 2, 67, 100
4, 348000, Note_on_c, 2, 67, 0
4, 348000, Note_on_c, 2, 61, 100
4, 348240, Note_on_c, 2, 61, 0
4, 348240, Note_on_c, 2, 69, 100
4, 348480, Note_on_c, 2, 69, 0
4, 348480, Note_on_c, 2, 67, 100
4, 348840, Note_on_c, 2, 67, 0
4, 348840, Note_on_c, 2, 64, 100
4, 348960, Note_on_c, 2, 64, 0
4, 348960, Note_on_c, 2, 66, 100
4, 349200, Note_on_c, 2, 66, 0
4, 350400, Note_on_c, 2, 62, 100
4, 350640, Note_on_c, 2, 62, 0
4, 350640, Note_on_c, 2, 66, 100
4, 350880, Note_on_c, 2, 66, 0
4, 350880, Note_on_c, 2, 59, 100
4, 351120, Note_on_c, 2, 59, 0
4, 351120, Note_on_c, 2, 67, 100
4, 351360, Note_on_c, 2, 67, 0
4, 351360, Note_on_c, 2, 72, 100
4, 351600, Note_on_c, 2, 72, 0
4, 351600, Note_on_c, 2, 71, 100
4, 351720, Note_on_c, 2, 71, 0
4, 351720, Note_on_c, 2, 67, 100
4, 351840, Note_on_c, 2, 67, 0
4, 351840, Note_on_c, 2, 69, 100
4, 352080, Note_on_c, 2, 69, 0
4, 353280, Note_on_c, 2, 60, 100
4, 353520, Note_on_c, 2, 60, 0
4, 353520, Note_on_c, 2, 64, 100
4, 353760, Note_on_c, 2, 64, 0
4, 353760, Note_on_c, 2, 57, 100
4, 354000, Note_on_c, 2, 57, 0
4, 354000, Note_on_c, 2, 62, 100
4, 354720, Note_on_c, 2, 62, 0
4, 354720, Note_on_c, 2, 67, 100
4, 354960, Note_on_c, 2, 67, 0
4, 356880, Note_on_c, 2, 73, 100
4, 357120, Note_on_c, 2, 73, 0
4, 357120, Note_on_c, 2, 76, 100
4, 357360, Note_on_c, 2, 76, 0
4, 357360, Note_on_c, 2, 69, 100
4, 357840, Note_on_c, 2, 69, 0
4, 357840, Note_on_c, 2, 67, 100
4, 358320, Note_on_c, 2, 67, 0
4, 358320, Note_on_c, 2, 66, 100
4, 358560, Note_on_c, 2, 66, 0
4, 358560, Note_on_c, 2, 69, 100
4, 358800, Note_on_c, 2, 69, 0
4, 358800, Note_on_c, 2, 62, 100
4, 359040, Note_on_c, 2, 62, 0
4, 359040, Note_on_c, 2, 64, 100
4, 359280, Note_on_c, 2, 64, 0
4, 359280, Note_on_c, 2, 67, 100
4, 359520, Note_on_c, 2, 67, 0
4, 359520, Note_on_c, 2, 61, 100
4, 359760, Note_on_c, 2, 61, 0
4, 359760, Note_on_c, 2, 69, 100
4, 360000, Note_on_c, 2, 69, 0
4, 360000, Note_on_c, 2, 67, 100
4, 360360, Note_on_c, 2, 67, 0
4, 360360, Note_on_c, 2, 64, 100
4, 360480, Note_on_c, 2, 64, 0
4, 360480, Note_on_c, 2, 66, 100
4, 360720, Note_on_c, 2, 66, 0
4, 361920, Note_on_c, 2, 74, 100
4, 362160, Note_on_c, 2, 74, 0
4, 362160, Note_on_c, 2, 71, 100
4, 362400, Note_on_c, 2, 71, 0
4, 362400, Note_on_c, 2, 67, 100
4, 362640, Note_on_c, 2, 67, 0
4, 362640, Note_on_c, 2, 69, 100
4, 362880, Note_on_c, 2, 69, 0
4, 362880, Note_on_c, 2, 72, 100
4, 363120, Note_on_c, 2, 72, 0
4, 363120, Note_on_c, 2, 66, 100
4, 363600, Note_on_c, 2, 66, 0
4, 364080, Note_on_c, 2, 71, 100
4, 364320, Note_on_c, 2, 71, 0
4, 364320, Note_on_c, 2, 67, 100
4, 364560, Note_on_c, 2, 67, 0
4, 364560, Note_on_c, 2, 64, 100
4, 364800, Note_on_c, 2, 64, 0
4, 364800, Note_on_c, 2, 66, 100
4, 365040, Note_on_c, 2, 66, 0
4, 365040, Note_on_c, 2, 67, 100
4, 365280, Note_on_c, 2, 67, 0
4, 365280, Note_on_c, 2, 66, 100
4, 366000, Note_on_c, 2, 66, 0
4, 366000, Note_on_c, 2, 64, 100
4, 366480, Note_on_c, 2, 64, 0
4, 366960, Note_on_c, 2, 69, 100
4, 367200, Note_on_c, 2, 69, 0
4, 367200, Note_on_c, 2, 72, 100
4, 367440, Note_on_c, 2, 72, 0
4, 367440, Note_on_c, 2, 66, 100
4, 367680, Note_on_c, 2, 66, 0
4, 367680, Note_on_c, 2, 67, 100
4, 367920, Note_on_c, 2, 67, 0
4, 367920, Note_on_c, 2, 71, 100
4, 368160, Note_on_c, 2, 71, 0
4, 368160, Note_on_c, 2, 64, 100
4, 368400, Note_on_c, 2, 64, 0
4, 368400, Note_on_c, 2, 69, 100
4, 369120, Note_on_c, 2, 69, 0
4, 369120, Note_on_c, 2, 66, 100
4, 369360, Note_on_c, 2, 66, 0
4, 369360, Note_on_c, 2, 69, 100
4, 369840, Note_on_c, 2, 69, 0
4, 369840, Note_on_c, 2, 67, 100
4, 370080, Note_on_c, 2, 67, 0
4, 370080, Note_on_c, 2, 71, 100
4, 370320, Note_on_c, 2, 71, 0
4, 370320, Note_on_c, 2, 64, 100
4, 371040, Note_on_c, 2, 64, 0
4, 371040, Note_on_c, 2, 57, 100
4, 371280, Note_on_c, 2, 57, 0
4, 371280, Note_on_c, 2, 62, 100
4, 371520, Note_on_c, 2, 62, 0
4, 371520, Note_on_c, 2, 60, 100
4, 371880, Note_on_c, 2, 60, 0
4, 371880, Note_on_c, 2, 57, 100
4, 372000, Note_on_c, 2, 57, 0
4, 372000, Note_on_c, 2, 59, 100
4, 372240, Note_on_c, 2, 59, 0
4, 373440, Note_on_c, 2, 74, 100
4, 373680, Note_on_c, 2, 74, 0
4, 373680, Note_on_c, 2, 71, 100
4, 373920, Note_on_c, 2, 71, 0
4, 373920, Note_on_c, 2, 67, 100
4, 374160, Note_on_c, 2, 67, 0
4, 374160, Note_on_c, 2, 69, 100
4, 374400, Note_on_c, 2, 69, 0
4, 374400, Note_on_c, 2, 72, 100
4, 374640, Note_on_c, 2, 72, 0
4, 374640, Note_on_c, 2, 66, 100
4, 375120, Note_on_c, 2, 66, 0
4, 375600, Note_on_c, 2, 71, 100
4, 375840, Note_on_c, 2, 71, 0
4, 375840, Note_on_c, 2, 67, 100
4, 376080, Note_on_c, 2, 67, 0
4, 376080, Note_on_c, 2, 64, 100
4, 376320, Note_on_c, 2, 64, 0
4, 376320, Note_on_c, 2, 66, 100
4, 376560, Note_on_c, 2, 66, 0
4, 376560, Note_on_c, 2, 67, 100
4, 376800, Note_on_c, 2, 67, 0
4, 376800, Note_on_c, 2, 66, 100
4, 377520, Note_on_c, 2, 66, 0
4, 377520, Note_on_c, 2, 64, 100
4, 378000, Note_on_c, 2, 64, 0
4, 378480, Note_on_c, 2, 69, 100
4, 378720, Note_on_c, 2, 69, 0
4, 378720, Note_on_c, 2, 72, 100
4, 378960, Note_on_c, 2, 72, 0
4, 378960, Note_on_c, 2, 66, 100
4, 379200, Note_on_c, 2, 66, 0
4, 379200, Note_on_c, 2, 67, 100
4, 379440, Note_on_c, 2, 67, 0
4, 379440, Note_on_c, 2, 71, 100
4, 379680, Note_on_c, 2, 71, 0
4, 379680, Note_on_c, 2, 64, 100
4, 379920, Note_on_c, 2, 64, 0
4, 379920, Note_on_c, 2, 69, 100
4, 380640, Note_on_c, 2, 69, 0
4, 380640, Note_on_c, 2, 66, 100
4, 380880, Note_on_c, 2, 66, 0
4, 380880, Note_on_c, 2, 69, 100
4, 381360, Note_on_c, 2, 69, 0
4, 381360, Note_on_c, 2, 67, 100
4, 381600, Note_on_c, 2, 67, 0
4, 381600, Note_on_c, 2, 71, 100
4, 381840, Note_on_c, 2, 71, 0
4, 381840, Note_on_c, 2, 64, 100
4, 382560, Note_on_c, 2, 64, 0
4, 382560, Note_on_c, 2, 57, 100
4, 382800, Note_on_c, 2, 57, 0
4, 382800, Note_on_c, 2, 62, 100
4, 383040, Note_on_c, 2, 62, 0
4, 383040, Note_on_c, 2, 60, 100
4, 383400, Note_on_c, 2, 60, 0
4, 383400, Note_on_c, 2, 57, 100
4, 383520, Note_on_c, 2, 57, 0
4, 383520, Note_on_c, 2, 59, 100
4, 383760, Note_on_c, 2, 59, 0
4, 384120, Note_on_c, 2, 62, 100
4, 384240, Note_on_c, 2, 62, 0
4, 384240, Note_on_c, 2, 64, 100
4, 384360, Note_on_c, 2, 64, 0
4, 384360, Note_on_c, 2, 66, 100
4, 384480, Note_on_c, 2, 66, 0
4, 384480, Note_on_c, 2, 67, 100
4, 384600, Note_on_c, 2, 67, 0
4, 384600, Note_on_c, 2, 66, 100
4, 384720, Note_on_c, 2, 66, 0
4, 384720, Note_on_c, 2, 67, 100
4, 384840, Note_on_c, 2, 67, 0
4, 384840, Note_on_c, 2, 69, 100
4, 384960, Note_on_c, 2, 69, 0
4, 384960, Note_on_c, 2, 71, 100
4, 385080, Note_on_c, 2, 71, 0
4, 385080, Note_on_c, 2, 69, 100
4, 385200, Note_on_c, 2, 69, 0
4, 385200, Note_on_c, 2, 67, 100
4, 385320, Note_on_c, 2, 67, 0
4, 385320, Note_on_c, 2, 71, 100
4, 385440, Note_on_c, 2, 71, 0
4, 385440, Note_on_c, 2, 69, 100
4, 385560, Note_on_c, 2, 69, 0
4, 385560, Note_on_c, 2, 67, 100
4, 385680, Note_on_c, 2, 67, 0
4, 385680, Note_on_c, 2, 66, 100
4, 385800, Note_on_c, 2, 66, 0
4, 385800, Note_on_c, 2, 64, 100
4, 385920, Note_on_c, 2, 64, 0
4, 385920, Note_on_c, 2, 62, 100
4, 386040, Note_on_c, 2, 62, 0
4, 386040, Note_on_c, 2, 64, 100
4, 386160, Note_on_c, 2, 64, 0
4, 386160, Note_on_c, 2, 66, 100
4, 386280, Note_on_c, 2, 66, 0
4, 386280, Note_on_c, 2, 67, 100
4, 386400, Note_on_c, 2, 67, 0
4, 386400, Note_on_c, 2, 69, 100
4, 386520, Note_on_c, 2, 69, 0
4, 386520, Note_on_c, 2, 66, 100
4, 386640, Note_on_c, 2, 66, 0
4, 386640, Note_on_c, 2, 64, 100
4, 386760, Note_on_c, 2, 64, 0
4, 386760, Note_on_c, 2, 62, 100
4, 386880, Note_on_c, 2, 62, 0
4, 386880, Note_on_c, 2, 67, 100
4, 387000, Note_on_c, 2, 67, 0
4, 387000, Note_on_c, 2, 66, 100
4, 387120, Note_on_c, 2, 66, 0
4, 387120, Note_on_c, 2, 64, 100
4, 387240, Note_on_c, 2, 64, 0
4, 387240, Note_on_c, 2, 62, 100
4, 387360, Note_on_c, 2, 62, 0
4, 387360, Note_on_c, 2, 61, 100
4, 387480, Note_on_c, 2, 61, 0
4, 387480, Note_on_c, 2, 62, 100
4, 387600, Note_on_c, 2, 62, 0
4, 387600, Note_on_c, 2, 64, 100
4, 387720, Note_on_c, 2, 64, 0
4, 387720, Note_on_c, 2, 66, 100
4, 387840, Note_on_c, 2, 66, 0
4, 387840, Note_on_c, 2, 67, 100
4, 387960, Note_on_c, 2, 67, 0
4, 387960, Note_on_c, 2, 71, 100
4, 388080, Note_on_c, 2, 71, 0
4, 388080, Note_on_c, 2, 69, 100
4, 388200, Note_on_c, 2, 69, 0
4, 388200, Note_on_c, 2, 67, 100
4, 388320, Note_on_c, 2, 67, 0
4, 388320, Note_on_c, 2, 66, 100
4, 388440, Note_on_c, 2, 66, 0
4, 388440, Note_on_c, 2, 64, 100
4, 388560, Note_on_c, 2, 64, 0
4, 388560, Note_on_c, 2, 62, 100
4, 388680, Note_on_c, 2, 62, 0
4, 388680, Note_on_c, 2, 61, 100
4, 388800, Note_on_c, 2, 61, 0
4, 388800, Note_on_c, 2, 62, 100
4, 388920, Note_on_c, 2, 62, 0
4, 388920, Note_on_c, 2, 57, 100
4, 389040, Note_on_c, 2, 57, 0
4, 389040, Note_on_c, 2, 62, 100
4, 389160, Note_on_c, 2, 62, 0
4, 389160, Note_on_c, 2, 64, 100
4, 389280, Note_on_c, 2, 64, 0
4, 389280, Note_on_c, 2, 66, 100
4, 389400, Note_on_c, 2, 66, 0
4, 389400, Note_on_c, 2, 62, 100
4, 389520, Note_on_c, 2, 62, 0
4, 389520, Note_on_c, 2, 66, 100
4, 389640, Note_on_c, 2, 66, 0
4, 389640, Note_on_c, 2, 69, 100
4, 389760, Note_on_c, 2, 69, 0
4, 389760, Note_on_c, 2, 74, 100
4, 389880, Note_on_c, 2, 74, 0
4, 389880, Note_on_c, 2, 71, 100
4, 390000, Note_on_c, 2, 71, 0
4, 390000, Note_on_c, 2, 69, 100
4, 390120, Note_on_c, 2, 69, 0
4, 390120, Note_on_c, 2, 71, 100
4, 390240, Note_on_c, 2, 71, 0
4, 390240, Note_on_c, 2, 67, 100
4, 390360, Note_on_c, 2, 67, 0
4, 390360, Note_on_c, 2, 71, 100
4, 390480, Note_on_c, 2, 71, 0
4, 390480, Note_on_c, 2, 69, 100
4, 390600, Note_on_c, 2, 69, 0
4, 390600, Note_on_c, 2, 71, 100
4, 390720, Note_on_c, 2, 71, 0
4, 390720, Note_on_c, 2, 62, 100
4, 390840, Note_on_c, 2, 62, 0
4, 390840, Note_on_c, 2, 67, 100
4, 390960, Note_on_c, 2, 67, 0
4, 390960, Note_on_c, 2, 66, 100
4, 391080, Note_on_c, 2, 66, 0
4, 391080, Note_on_c, 2, 67, 100
4, 391200, Note_on_c, 2, 67, 0
4, 391200, Note_on_c, 2, 64, 100
4, 391320, Note_on_c, 2, 64, 0
4, 391320, Note_on_c, 2, 67, 100
4, 391440, Note_on_c, 2, 67, 0
4, 391440, Note_on_c, 2, 62, 100
4, 391560, Note_on_c, 2, 62, 0
4, 391560, Note_on_c, 2, 67, 100
4, 391680, Note_on_c, 2, 67, 0
4, 391680, Note_on_c, 2, 60, 100
4, 391800, Note_on_c, 2, 60, 0
4, 391800, Note_on_c, 2, 67, 100
4, 391920, Note_on_c, 2, 67, 0
4, 391920, Note_on_c, 2, 59, 100
4, 392040, Note_on_c, 2, 59, 0
4, 392040, Note_on_c, 2, 67, 100
4, 392160, Note_on_c, 2, 67, 0
4, 392160, Note_on_c, 2, 57, 100
4, 392280, Note_on_c, 2, 57, 0
4, 392280, Note_on_c, 2, 67, 100
4, 392400, Note_on_c, 2, 67, 0
4, 392400, Note_on_c, 2, 59, 100
4, 392520, Note_on_c, 2, 59, 0
4, 392520, Note_on_c, 2, 67, 100
4, 392640, Note_on_c, 2, 67, 0
4, 392640, Note_on_c, 2, 60, 100
4, 392760, Note_on_c, 2, 60, 0
4, 392760, Note_on_c, 2, 67, 100
4, 392880, Note_on_c, 2, 67, 0
4, 392880, Note_on_c, 2, 59, 100
4, 393000, Note_on_c, 2, 59, 0
4, 393000, Note_on_c, 2, 67, 100
4, 393120, Note_on_c, 2, 67, 0
4, 393120, Note_on_c, 2, 60, 100
4, 393240, Note_on_c, 2, 60, 0
4, 393240, Note_on_c, 2, 66, 100
4, 393360, Note_on_c, 2, 66, 0
4, 393360, Note_on_c, 2, 64, 100
4, 393480, Note_on_c, 2, 64, 0
4, 393480, Note_on_c, 2, 66, 100
4, 393600, Note_on_c, 2, 66, 0
4, 393600, Note_on_c, 2, 62, 100
4, 393720, Note_on_c, 2, 62, 0
4, 393720, Note_on_c, 2, 66, 100
4, 393840, Note_on_c, 2, 66, 0
4, 393840, Note_on_c, 2, 60, 100
4, 393960, Note_on_c, 2, 60, 0
4, 393960, Note_on_c, 2, 66, 100
4, 394080, Note_on_c, 2, 66, 0
4, 394080, Note_on_c, 2, 59, 100
4, 394200, Note_on_c, 2, 59, 0
4, 394200, Note_on_c, 2, 67, 100
4, 394320, Note_on_c, 2, 67, 0
4, 394320, Note_on_c, 2, 66, 100
4, 394440, Note_on_c, 2, 66, 0
4, 394440, Note_on_c, 2, 64, 100
4, 394560, Note_on_c, 2, 64, 0
4, 394560, Note_on_c, 2, 62, 100
4, 394680, Note_on_c, 2, 62, 0
4, 394680, Note_on_c, 2, 60, 100
4, 394800, Note_on_c, 2, 60, 0
4, 394800, Note_on_c, 2, 59, 100
4, 394920, Note_on_c, 2, 59, 0
4, 394920, Note_on_c, 2, 57, 100
4, 395040, Note_on_c, 2, 57, 0
4, 395040, Note_on_c, 2, 55, 100
4, 395280, Note_on_c, 2, 55, 0
4, 395520, Note_on_c, 2, 83, 100
4, 395760, Note_on_c, 2, 83, 0
4, 396000, Note_on_c, 2, 67, 100
4, 396240, Note_on_c, 2, 67, 0
4, 396480, Note_on_c, 2, 83, 100
4, 396960, Note_on_c, 2, 83, 0
4, 396960, Note_on_c, 2, 81, 100
4, 397200, Note_on_c, 2, 81, 0
4, 397440, Note_on_c, 2, 66, 100
4, 397680, Note_on_c, 2, 66, 0
4, 397920, Note_on_c, 2, 81, 100
4, 398400, Note_on_c, 2, 81, 0
4, 398400, Note_on_c, 2, 79, 100
4, 398520, Note_on_c, 2, 79, 0
4, 398520, Note_on_c, 2, 78, 100
4, 398640, Note_on_c, 2, 78, 0
4, 398640, Note_on_c, 2, 76, 100
4, 398760, Note_on_c, 2, 76, 0
4, 398760, Note_on_c, 2, 75, 100
4, 398880, Note_on_c, 2, 75, 0
4, 398880, Note_on_c, 2, 76, 100
4, 399000, Note_on_c, 2, 76, 0
4, 399000, Note_on_c, 2, 79, 100
4, 399120, Note_on_c, 2, 79, 0
4, 399120, Note_on_c, 2, 74, 100
4, 399240, Note_on_c, 2, 74, 0
4, 399240, Note_on_c, 2, 79, 100
4, 399360, Note_on_c, 2, 79, 0
4, 399360, Note_on_c, 2, 73, 100
4, 399480, Note_on_c, 2, 73, 0
4, 399480, Note_on_c, 2, 79, 100
4, 399600, Note_on_c, 2, 79, 0
4, 399600, Note_on_c, 2, 71, 100
4, 399720, Note_on_c, 2, 71, 0
4, 399720, Note_on_c, 2, 79, 100
4, 399840, Note_on_c, 2, 79, 0
4, 399840, Note_on_c, 2, 73, 100
4, 399960, Note_on_c, 2, 73, 0
4, 399960, Note_on_c, 2, 79, 100
4, 400080, Note_on_c, 2, 79, 0
4, 400080, Note_on_c, 2, 76, 100
4, 400200, Note_on_c, 2, 76, 0
4, 400200, Note_on_c, 2, 79, 100
4, 400320, Note_on_c, 2, 79, 0
4, 400320, Note_on_c, 2, 69, 100
4, 400560, Note_on_c, 2, 69, 0
4, 400560, Note_on_c, 2, 79, 100
4, 400800, Note_on_c, 2, 79, 0
4, 400800, Note_on_c, 2, 78, 100
4, 401040, Note_on_c, 2, 78, 0
4, 401040, Note_on_c, 2, 81, 100
4, 401100, Note_on_c, 2, 81, 0
4, 401100, Note_on_c, 2, 79, 100
4, 401160, Note_on_c, 2, 79, 0
4, 401160, Note_on_c, 2, 78, 100
4, 401220, Note_on_c, 2, 78, 0
4, 401220, Note_on_c, 2, 79, 100
4, 401280, Note_on_c, 2, 79, 0
4, 401280, Note_on_c, 2, 81, 100
4, 401520, Note_on_c, 2, 81, 0
4, 401520, Note_on_c, 2, 64, 100
4, 401760, Note_on_c, 2, 64, 0
4, 401760, Note_on_c, 2, 66, 100
4, 402000, Note_on_c, 2, 66, 0
4, 402000, Note_on_c, 2, 78, 100
4, 402240, Note_on_c, 2, 78, 0
4, 402240, Note_on_c, 2, 79, 100
4, 402480, Note_on_c, 2, 79, 0
4, 402480, Note_on_c, 2, 81, 100
4, 402720, Note_on_c, 2, 81, 0
4, 402720, Note_on_c, 2, 83, 100
4, 402960, Note_on_c, 2, 83, 0
4, 402960, Note_on_c, 2, 66, 100
4, 403200, Note_on_c, 2, 66, 0
4, 403200, Note_on_c, 2, 64, 100
4, 403440, Note_on_c, 2, 64, 0
4, 403440, Note_on_c, 2, 79, 100
4, 403680, Note_on_c, 2, 79, 0
4, 403680, Note_on_c, 2, 81, 100
4, 403920, Note_on_c, 2, 81, 0
4, 403920, Note_on_c, 2, 83, 100
4, 404160, Note_on_c, 2, 83, 0
4, 404160, Note_on_c, 2, 76, 100
4, 404400, Note_on_c, 2, 76, 0
4, 404400, Note_on_c, 2, 67, 100
4, 404640, Note_on_c, 2, 67, 0
4, 404640, Note_on_c, 2, 57, 100
4, 404880, Note_on_c, 2, 57, 0
4, 404880, Note_on_c, 2, 64, 100
4, 405120, Note_on_c, 2, 64, 0
4, 405120, Note_on_c, 2, 61, 100
4, 405360, Note_on_c, 2, 61, 0
4, 405360, Note_on_c, 2, 57, 100
4, 405600, Note_on_c, 2, 57, 0
4, 405600, Note_on_c, 2, 50, 100
4, 405840, Note_on_c, 2, 50, 0
4, 405840, Note_on_c, 2, 62, 100
4, 406080, Note_on_c, 2, 62, 0
4, 406080, Note_on_c, 2, 66, 100
4, 406320, Note_on_c, 2, 66, 0
4, 406320, Note_on_c, 2, 69, 100
4, 406560, Note_on_c, 2, 69, 0
4, 406560, Note_on_c, 2, 74, 100
4, 407040, Note_on_c, 2, 74, 0
4, 407160, Note_on_c, 2, 62, 100
4, 407280, Note_on_c, 2, 62, 0
4, 407280, Note_on_c, 2, 64, 100
4, 407400, Note_on_c, 2, 64, 0
4, 407400, Note_on_c, 2, 66, 100
4, 407520, Note_on_c, 2, 66, 0
4, 407520, Note_on_c, 2, 67, 100
4, 407640, Note_on_c, 2, 67, 0
4, 407640, Note_on_c, 2, 66, 100
4, 407760, Note_on_c, 2, 66, 0
4, 407760, Note_on_c, 2, 67, 100
4, 407880, Note_on_c, 2, 67, 0
4, 407880, Note_on_c, 2, 69, 100
4, 408000, Note_on_c, 2, 69, 0
4, 408000, Note_on_c, 2, 71, 100
4, 408120, Note_on_c, 2, 71, 0
4, 408120, Note_on_c, 2, 69, 100
4, 408240, Note_on_c, 2, 69, 0
4, 408240, Note_on_c, 2, 67, 100
4, 408360, Note_on_c, 2, 67, 0
4, 408360, Note_on_c, 2, 71, 100
4, 408480, Note_on_c, 2, 71, 0
4, 408480, Note_on_c, 2, 69, 100
4, 408600, Note_on_c, 2, 69, 0
4, 408600, Note_on_c, 2, 67, 100
4, 408720, Note_on_c, 2, 67, 0
4, 408720, Note_on_c, 2, 66, 100
4, 408840, Note_on_c, 2, 66, 0
4, 408840, Note_on_c, 2, 64, 100
4, 408960, Note_on_c, 2, 64, 0
4, 408960, Note_on_c, 2, 62, 100
4, 409080, Note_on_c, 2, 62, 0
4, 409080, Note_on_c, 2, 64, 100
4, 409200, Note_on_c, 2, 64, 0
4, 409200, Note_on_c, 2, 66, 100
4, 409320, Note_on_c, 2, 66, 0
4, 409320, Note_on_c, 2, 67, 100
4, 409440, Note_on_c, 2, 67, 0
4, 409440, Note_on_c, 2, 69, 100
4, 409560, Note_on_c, 2, 69, 0
4, 409560, Note_on_c, 2, 66, 100
4, 409680, Note_on_c, 2, 66, 0
4, 409680, Note_on_c, 2, 64, 100
4, 409800, Note_on_c, 2, 64, 0
4, 409800, Note_on_c, 2, 62, 100
4, 409920, Note_on_c, 2, 62, 0
4, 409920, Note_on_c, 2, 67, 100
4, 410040, Note_on_c, 2, 67, 0
4, 410040, Note_on_c, 2, 66, 100
4, 410160, Note_on_c, 2, 66, 0
4, 410160, Note_on_c, 2, 64, 100
4, 410280, Note_on_c, 2, 64, 0
4, 410280, Note_on_c, 2, 62, 100
4, 410400, Note_on_c, 2, 62, 0
4, 410400, Note_on_c, 2, 61, 100
4, 410520, Note_on_c, 2, 61, 0
4, 410520, Note_on_c, 2, 62, 100
4, 410640, Note_on_c, 2, 62, 0
4, 410640, Note_on_c, 2, 64, 100
4, 410760, Note_on_c, 2, 64, 0
4, 410760, Note_on_c, 2, 66, 100
4, 410880, Note_on_c, 2, 66, 0
4, 410880, Note_on_c, 2, 67, 100
4, 411000, Note_on_c, 2, 67, 0
4, 411000, Note_on_c, 2, 71, 100
4, 411120, Note_on_c, 2, 71, 0
4, 411120, Note_on_c, 2, 69, 100
4, 411240, Note_on_c, 2, 69, 0
4, 411240, Note_on_c, 2, 67, 100
4, 411360, Note_on_c, 2, 67, 0
4, 411360, Note_on_c, 2, 66, 100
4, 411480, Note_on_c, 2, 66, 0
4, 411480, Note_on_c, 2, 64, 100
4, 411600, Note_on_c, 2, 64, 0
4, 411600, Note_on_c, 2, 62, 100
4, 411720, Note_on_c, 2, 62, 0
4, 411720, Note_on_c, 2, 61, 100
4, 411840, Note_on_c, 2, 61, 0
4, 411840, Note_on_c, 2, 62, 100
4, 411960, Note_on_c, 2, 62, 0
4, 411960, Note_on_c, 2, 57, 100
4, 412080, Note_on_c, 2, 57, 0
4, 412080, Note_on_c, 2, 62, 100
4, 412200, Note_on_c, 2, 62, 0
4, 412200, Note_on_c, 2, 64, 100
4, 412320, Note_on_c, 2, 64, 0
4, 412320, Note_on_c, 2, 66, 100
4, 412440, Note_on_c, 2, 66, 0
4, 412440, Note_on_c, 2, 62, 100
4, 412560, Note_on_c, 2, 62, 0
4, 412560, Note_on_c, 2, 66, 100
4, 412680, Note_on_c, 2, 66, 0
4, 412680, Note_on_c, 2, 69, 100
4, 412800, Note_on_c, 2, 69, 0
4, 412800, Note_on_c, 2, 74, 100
4, 412920, Note_on_c, 2, 74, 0
4, 412920, Note_on_c, 2, 71, 100
4, 413040, Note_on_c, 2, 71, 0
4, 413040, Note_on_c, 2, 69, 100
4, 413160, Note_on_c, 2, 69, 0
4, 413160, Note_on_c, 2, 71, 100
4, 413280, Note_on_c, 2, 71, 0
4, 413280, Note_on_c, 2, 67, 100
4, 413400, Note_on_c, 2, 67, 0
4, 413400, Note_on_c, 2, 71, 100
4, 413520, Note_on_c, 2, 71, 0
4, 413520, Note_on_c, 2, 69, 100
4, 413640, Note_on_c, 2, 69, 0
4, 413640, Note_on_c, 2, 71, 100
4, 413760, Note_on_c, 2, 71, 0
4, 413760, Note_on_c, 2, 62, 100
4, 413880, Note_on_c, 2, 62, 0
4, 413880, Note_on_c, 2, 67, 100
4, 414000, Note_on_c, 2, 67, 0
4, 414000, Note_on_c, 2, 66, 100
4, 414120, Note_on_c, 2, 66, 0
4, 414120, Note_on_c, 2, 67, 100
4, 414240, Note_on_c, 2, 67, 0
4, 414240, Note_on_c, 2, 64, 100
4, 414360, Note_on_c, 2, 64, 0
4, 414360, Note_on_c, 2, 67, 100
4, 414480, Note_on_c, 2, 67, 0
4, 414480, Note_on_c, 2, 62, 100
4, 414600, Note_on_c, 2, 62, 0
4, 414600, Note_on_c, 2, 67, 100
4, 414720, Note_on_c, 2, 67, 0
4, 414720, Note_on_c, 2, 60, 100
4, 414840, Note_on_c, 2, 60, 0
4, 414840, Note_on_c, 2, 67, 100
4, 414960, Note_on_c, 2, 67, 0
4, 414960, Note_on_c, 2, 59, 100
4, 415080, Note_on_c, 2, 59, 0
4, 415080, Note_on_c, 2, 67, 100
4, 415200, Note_on_c, 2, 67, 0
4, 415200, Note_on_c, 2, 57, 100
4, 415320, Note_on_c, 2, 57, 0
4, 415320, Note_on_c, 2, 67, 100
4, 415440, Note_on_c, 2, 67, 0
4, 415440, Note_on_c, 2, 59, 100
4, 415560, Note_on_c, 2, 59, 0
4, 415560, Note_on_c, 2, 67, 100
4, 415680, Note_on_c, 2, 67, 0
4, 415680, Note_on_c, 2, 60, 100
4, 415800, Note_on_c, 2, 60, 0
4, 415800, Note_on_c, 2, 67, 100
4, 415920, Note_on_c, 2, 67, 0
4, 415920, Note_on_c, 2, 59, 100
4, 416040, Note_on_c, 2, 59, 0
4, 416040, Note_on_c, 2, 67, 100
4, 416160, Note_on_c, 2, 67, 0
4, 416160, Note_on_c, 2, 60, 100
4, 416280, Note_on_c, 2, 60, 0
4, 416280, Note_on_c, 2, 66, 100
4, 416400, Note_on_c, 2, 66, 0
4, 416400, Note_on_c, 2, 64, 100
4, 416520, Note_on_c, 2, 64, 0
4, 416520, Note_on_c, 2, 66, 100
4, 416640, Note_on_c, 2, 66, 0
4, 416640, Note_on_c, 2, 62, 100
4, 416760, Note_on_c, 2, 62, 0
4, 416760, Note_on_c, 2, 66, 100
4, 416880, Note_on_c, 2, 66, 0
4, 416880, Note_on_c, 2, 60, 100
4, 417000, Note_on_c, 2, 60, 0
4, 417000, Note_on_c, 2, 66, 100
4, 417120, Note_on_c, 2, 66, 0
4, 417120, Note_on_c, 2, 59, 100
4, 417240, Note_on_c, 2, 59, 0
4, 417240, Note_on_c, 2, 67, 100
4, 417360, Note_on_c, 2, 67, 0
4, 417360, Note_on_c, 2, 66, 100
4, 417480, Note_on_c, 2, 66, 0
4, 417480, Note_on_c, 2, 64, 100
4, 417600, Note_on_c, 2, 64, 0
4, 417600, Note_on_c, 2, 62, 100
4, 417720, Note_on_c, 2, 62, 0
4, 417720, Note_on_c, 2, 60, 100
4, 417840, Note_on_c, 2, 60, 0
4, 417840, Note_on_c, 2, 59, 100
4, 417960, Note_on_c, 2, 59, 0
4, 417960, Note_on_c, 2, 57, 100
4, 418080, Note_on_c, 2, 57, 0
4, 418080, Note_on_c, 2, 55, 100
4, 418320, Note_on_c, 2, 55, 0
4, 418560, Note_on_c, 2, 83, 100
4, 418800, Note_on_c, 2, 83, 0
4, 419040, Note_on_c, 2, 67, 100
4, 419280, Note_on_c, 2, 67, 0
4, 419520, Note_on_c, 2, 83, 100
4, 420000, Note_on_c, 2, 83, 0
4, 420000, Note_on_c, 2, 81, 100
4, 420240, Note_on_c, 2, 81, 0
4, 420480, Note_on_c, 2, 66, 100
4, 420720, Note_on_c, 2, 66, 0
4, 420960, Note_on_c, 2, 81, 100
4, 421440, Note_on_c, 2, 81, 0
4, 421440, Note_on_c, 2, 79, 100
4, 421560, Note_on_c, 2, 79, 0
4, 421560, Note_on_c, 2, 78, 100
4, 421680, Note_on_c, 2, 78, 0
4, 421680, Note_on_c, 2, 76, 100
4, 421800, Note_on_c, 2, 76, 0
4, 421800, Note_on_c, 2, 75, 100
4, 421920, Note_on_c, 2, 75, 0
4, 421920, Note_on_c, 2, 76, 100
4, 422040, Note_on_c, 2, 76, 0
4, 422040, Note_on_c, 2, 79, 100
4, 422160, Note_on_c, 2, 79, 0
4, 422160, Note_on_c, 2, 74, 100
4, 422280, Note_on_c, 2, 74, 0
4, 422280, Note_on_c, 2, 79, 100
4, 422400, Note_on_c, 2, 79, 0
4, 422400, Note_on_c, 2, 73, 100
4, 422520, Note_on_c, 2, 73, 0
4, 422520, Note_on_c, 2, 79, 100
4, 422640, Note_on_c, 2, 79, 0
4, 422640, Note_on_c, 2, 71, 100
4, 422760, Note_on_c, 2, 71, 0
4, 422760, Note_on_c, 2, 79, 100
4, 422880, Note_on_c, 2, 79, 0
4, 422880, Note_on_c, 2, 73, 100
4, 423000, Note_on_c, 2, 73, 0
4, 423000, Note_on_c, 2, 79, 100
4, 423120, Note_on_c, 2, 79, 0
4, 423120, Note_on_c, 2, 76, 100
4, 423240, Note_on_c, 2, 76, 0
4, 423240, Note_on_c, 2, 79, 100
4, 423360, Note_on_c, 2, 79, 0
4, 423360, Note_on_c, 2, 69, 100
4, 423600, Note_on_c, 2, 69, 0
4, 423600, Note_on_c, 2, 79, 100
4, 423840, Note_on_c, 2, 79, 0
4, 423840, Note_on_c, 2, 78, 100
4, 424080, Note_on_c, 2, 78, 0
4, 424080, Note_on_c, 2, 81, 100
4, 424140, Note_on_c, 2, 81, 0
4, 424140, Note_on_c, 2, 79, 100
4, 424200, Note_on_c, 2, 79, 0
4, 424200, Note_on_c, 2, 78, 100
4, 424260, Note_on_c, 2, 78, 0
4, 424260, Note_on_c, 2, 79, 100
4, 424320, Note_on_c, 2, 79, 0
4, 424320, Note_on_c, 2, 81, 100
4, 424560, Note_on_c, 2, 81, 0
4, 424560, Note_on_c, 2, 64, 100
4, 424800, Note_on_c, 2, 64, 0
4, 424800, Note_on_c, 2, 66, 100
4, 425040, Note_on_c, 2, 66, 0
4, 425040, Note_on_c, 2, 78, 100
4, 425280, Note_on_c, 2, 78, 0
4, 425280, Note_on_c, 2, 79, 100
4, 425520, Note_on_c, 2, 79, 0
4, 425520, Note_on_c, 2, 81, 100
4, 425760, Note_on_c, 2, 81, 0
4, 425760, Note_on_c, 2, 83, 100
4, 426000, Note_on_c, 2, 83, 0
4, 426000, Note_on_c, 2, 66, 100
4, 426240, Note_on_c, 2, 66, 0
4, 426240, Note_on_c, 2, 64, 100
4, 426480, Note_on_c, 2, 64, 0
4, 426480, Note_on_c, 2, 79, 100
4, 426720, Note_on_c, 2, 79, 0
4, 426720, Note_on_c, 2, 81, 100
4, 426960, Note_on_c, 2, 81, 0
4, 426960, Note_on_c, 2, 83, 100
4, 427200, Note_on_c, 2, 83, 0
4, 427200, Note_on_c, 2, 76, 100
4, 427440, Note_on_c, 2, 76, 0
4, 427440, Note_on_c, 2, 67, 100
4, 427680, Note_on_c, 2, 67, 0
4, 427680, Note_on_c, 2, 57, 100
4, 427920, Note_on_c, 2, 57, 0
4, 427920, Note_on_c, 2, 64, 100
4, 428160, Note_on_c, 2, 64, 0
4, 428160, Note_on_c, 2, 61, 100
4, 428400, Note_on_c, 2, 61, 0
4, 428400, Note_on_c, 2, 57, 100
4, 428640, Note_on_c, 2, 57, 0
4, 428640, Note_on_c, 2, 50, 100
4, 428880, Note_on_c, 2, 50, 0
4, 428880, Note_on_c, 2, 62, 100
4, 429120, Note_on_c, 2, 62, 0
4, 429120, Note_on_c, 2, 66, 100
4, 429360, Note_on_c, 2, 66, 0
4, 429360, Note_on_c, 2, 69, 100
4, 429600, Note_on_c, 2, 69, 0
4, 429600, Note_on_c, 2, 74, 100
4, 430080, Note_on_c, 2, 74, 0
4, 430080, Note_on_c, 2, 78, 100
4, 430320, Note_on_c, 2, 78, 0
4, 430560, Note_on_c, 2, 62, 100
4, 430800, Note_on_c, 2, 62, 0
4, 431040, Note_on_c, 2, 79, 100
4, 431100, Note_on_c, 2, 79, 0
4, 431100, Note_on_c, 2, 78, 100
4, 431160, Note_on_c, 2, 78, 0
4, 431160, Note_on_c, 2, 76, 100
4, 431220, Note_on_c, 2, 76, 0
4, 431220, Note_on_c, 2, 78, 100
4, 431280, Note_on_c, 2, 78, 0
4, 431280, Note_on_c, 2, 76, 100
4, 431340, Note_on_c, 2, 76, 0
4, 431340, Note_on_c, 2, 78, 100
4, 431400, Note_on_c, 2, 78, 0
4, 431400, Note_on_c, 2, 76, 100
4, 431460, Note_on_c, 2, 76, 0
4, 431460, Note_on_c, 2, 78, 100
4, 431520, Note_on_c, 2, 78, 0
4, 431520, Note_on_c, 2, 79, 100
4, 431760, Note_on_c, 2, 79, 0
4, 431760, Note_on_c, 2, 74, 100
4, 431880, Note_on_c, 2, 74, 0
4, 431880, Note_on_c, 2, 79, 100
4, 432000, Note_on_c, 2, 79, 0
4, 432000, Note_on_c, 2, 81, 100
4, 432240, Note_on_c, 2, 81, 0
4, 432240, Note_on_c, 2, 74, 100
4, 432360, Note_on_c, 2, 74, 0
4, 432360, Note_on_c, 2, 81, 100
4, 432480, Note_on_c, 2, 81, 0
4, 432480, Note_on_c, 2, 83, 100
4, 432720, Note_on_c, 2, 83, 0
4, 432720, Note_on_c, 2, 79, 100
4, 432960, Note_on_c, 2, 79, 0
4, 432960, Note_on_c, 2, 76, 100
4, 433200, Note_on_c, 2, 76, 0
4, 433200, Note_on_c, 2, 72, 100
4, 433440, Note_on_c, 2, 72, 0
4, 433440, Note_on_c, 2, 69, 100
4, 433680, Note_on_c, 2, 69, 0
4, 433680, Note_on_c, 2, 79, 100
4, 433920, Note_on_c, 2, 79, 0
4, 433920, Note_on_c, 2, 78, 100
4, 433980, Note_on_c, 2, 78, 0
4, 433980, Note_on_c, 2, 76, 100
4, 434040, Note_on_c, 2, 76, 0
4, 434040, Note_on_c, 2, 75, 100
4, 434160, Note_on_c, 2, 75, 0
4, 434160, Note_on_c, 2, 76, 100
4, 434640, Note_on_c, 2, 76, 0
4, 434640, Note_on_c, 2, 76, 100
4, 434680, Note_on_c, 2, 76, 0
4, 434680, Note_on_c, 2, 75, 100
4, 434720, Note_on_c, 2, 75, 0
4, 434720, Note_on_c, 2, 76, 100
4, 434760, Note_on_c, 2, 76, 0
4, 434760, Note_on_c, 2, 75, 100
4, 434880, Note_on_c, 2, 75, 0
4, 435120, Note_on_c, 2, 57, 100
4, 435360, Note_on_c, 2, 57, 0
4, 435360, Note_on_c, 2, 57, 100
4, 435400, Note_on_c, 2, 57, 0
4, 435400, Note_on_c, 2, 55, 100
4, 435440, Note_on_c, 2, 55, 0
4, 435440, Note_on_c, 2, 57, 100
4, 435480, Note_on_c, 2, 57, 0
4, 435480, Note_on_c, 2, 55, 100
4, 435600, Note_on_c, 2, 55, 0
4, 435600, Note_on_c, 2, 54, 100
4, 435840, Note_on_c, 2, 54, 0
4, 435840, Note_on_c, 2, 52, 100
4, 436080, Note_on_c, 2, 52, 0
4, 436320, Note_on_c, 2, 76, 100
4, 436560, Note_on_c, 2, 76, 0
4, 436800, Note_on_c, 2, 50, 100
4, 436840, Note_on_c, 2, 50, 0
4, 436860, Note_on_c, 2, 48, 100
4, 436900, Note_on_c, 2, 48, 0
4, 436920, Note_on_c, 2, 50, 100
4, 437280, Note_on_c, 2, 50, 0
4, 437280, Note_on_c, 2, 48, 100
4, 437520, Note_on_c, 2, 48, 0
4, 437760, Note_on_c, 2, 76, 100
4, 438000, Note_on_c, 2, 76, 0
4, 438240, Note_on_c, 2, 45, 100
4, 438280, Note_on_c, 2, 45, 0
4, 438300, Note_on_c, 2, 43, 100
4, 438340, Note_on_c, 2, 43, 0
4, 438360, Note_on_c, 2, 45, 100
4, 438720, Note_on_c, 2, 45, 0
4, 438720, Note_on_c, 2, 47, 100
4, 438960, Note_on_c, 2, 47, 0
4, 439200, Note_on_c, 2, 79, 100
4, 439440, Note_on_c, 2, 79, 0
4, 439440, Note_on_c, 2, 78, 100
4, 439680, Note_on_c, 2, 78, 0
4, 439680, Note_on_c, 2, 76, 100
4, 439920, Note_on_c, 2, 76, 0
4, 439920, Note_on_c, 2, 75, 100
4, 440160, Note_on_c, 2, 75, 0
4, 440160, Note_on_c, 2, 76, 100
4, 440400, Note_on_c, 2, 76, 0
4, 440640, Note_on_c, 2, 52, 100
4, 441240, Note_on_c, 2, 52, 0
4, 441240, Note_on_c, 2, 50, 100
4, 441360, Note_on_c, 2, 50, 0
4, 441360, Note_on_c, 2, 48, 100
4, 441480, Note_on_c, 2, 48, 0
4, 441480, Note_on_c, 2, 47, 100
4, 441600, Note_on_c, 2, 47, 0
4, 441600, Note_on_c, 2, 48, 100
4, 441720, Note_on_c, 2, 48, 0
4, 441720, Note_on_c, 2, 52, 100
4, 441840, Note_on_c, 2, 52, 0
4, 441840, Note_on_c, 2, 50, 100
4, 441960, Note_on_c, 2, 50, 0
4, 441960, Note_on_c, 2, 52, 100
4, 442080, Note_on_c, 2, 52, 0
4, 442080, Note_on_c, 2, 57, 100
4, 442200, Note_on_c, 2, 57, 0
4, 442200, Note_on_c, 2, 52, 100
4, 442320, Note_on_c, 2, 52, 0
4, 442320, Note_on_c, 2, 50, 100
4, 442440, Note_on_c, 2, 50, 0
4, 442440, Note_on_c, 2, 52, 100
4, 442560, Note_on_c, 2, 52, 0
4, 442560, Note_on_c, 2, 60, 100
4, 442680, Note_on_c, 2, 60, 0
4, 442680, Note_on_c, 2, 57, 100
4, 442800, Note_on_c, 2, 57, 0
4, 442800, Note_on_c, 2, 55, 100
4, 442920, Note_on_c, 2, 55, 0
4, 442920, Note_on_c, 2, 57, 100
4, 443040, Note_on_c, 2, 57, 0
4, 443040, Note_on_c, 2, 66, 100
4, 443160, Note_on_c, 2, 66, 0
4, 443160, Note_on_c, 2, 57, 100
4, 443280, Note_on_c, 2, 57, 0
4, 443280, Note_on_c, 2, 55, 100
4, 443400, Note_on_c, 2, 55, 0
4, 443400, Note_on_c, 2, 57, 100
4, 443520, Note_on_c, 2, 57, 0
4, 443520, Note_on_c, 2, 67, 100
4, 443640, Note_on_c, 2, 67, 0
4, 443640, Note_on_c, 2, 62, 100
4, 443760, Note_on_c, 2, 62, 0
4, 443760, Note_on_c, 2, 60, 100
4, 443880, Note_on_c, 2, 60, 0
4, 443880, Note_on_c, 2, 62, 100
4, 444000, Note_on_c, 2, 62, 0
4, 444000, Note_on_c, 2, 71, 100
4, 444120, Note_on_c, 2, 71, 0
4, 444120, Note_on_c, 2, 67, 100
4, 444240, Note_on_c, 2, 67, 0
4, 444240, Note_on_c, 2, 66, 100
4, 444360, Note_on_c, 2, 66, 0
4, 444360, Note_on_c, 2, 67, 100
4, 444480, Note_on_c, 2, 67, 0
4, 444480, Note_on_c, 2, 76, 100
4, 444600, Note_on_c, 2, 76, 0
4, 444600, Note_on_c, 2, 74, 100
4, 444720, Note_on_c, 2, 74, 0
4, 444720, Note_on_c, 2, 72, 100
4, 444840, Note_on_c, 2, 72, 0
4, 444840, Note_on_c, 2, 74, 100
4, 444960, Note_on_c, 2, 74, 0
4, 444960, Note_on_c, 2, 78, 100
4, 445080, Note_on_c, 2, 78, 0
4, 445080, Note_on_c, 2, 74, 100
4, 445200, Note_on_c, 2, 74, 0
4, 445200, Note_on_c, 2, 72, 100
4, 445320, Note_on_c, 2, 72, 0
4, 445320, Note_on_c, 2, 74, 100
4, 445440, Note_on_c, 2, 74, 0
4, 445440, Note_on_c, 2, 79, 100
4, 445560, Note_on_c, 2, 79, 0
4, 445560, Note_on_c, 2, 74, 100
4, 445680, Note_on_c, 2, 74, 0
4, 445680, Note_on_c, 2, 72, 100
4, 445800, Note_on_c, 2, 72, 0
4, 445800, Note_on_c, 2, 74, 100
4, 445920, Note_on_c, 2, 74, 0
4, 445920, Note_on_c, 2, 81, 100
4, 446040, Note_on_c, 2, 81, 0
4, 446040, Note_on_c, 2, 74, 100
4, 446160, Note_on_c, 2, 74, 0
4, 446160, Note_on_c, 2, 72, 100
4, 446280, Note_on_c, 2, 72, 0
4, 446280, Note_on_c, 2, 71, 100
4, 446400, Note_on_c, 2, 71, 0
4, 446400, Note_on_c, 2, 72, 100
4, 446520, Note_on_c, 2, 72, 0
4, 446520, Note_on_c, 2, 71, 100
4, 446640, Note_on_c, 2, 71, 0
4, 446640, Note_on_c, 2, 69, 100
4, 446760, Note_on_c, 2, 69, 0
4, 446760, Note_on_c, 2, 67, 100
4, 446880, Note_on_c, 2, 67, 0
4, 446880, Note_on_c, 2, 66, 100
4, 447000, Note_on_c, 2, 66, 0
4, 447000, Note_on_c, 2, 81, 100
4, 447120, Note_on_c, 2, 81, 0
4, 447120, Note_on_c, 2, 79, 100
4, 447240, Note_on_c, 2, 79, 0
4, 447240, Note_on_c, 2, 78, 100
4, 447360, Note_on_c, 2, 78, 0
4, 447360, Note_on_c, 2, 79, 100
4, 447600, Note_on_c, 2, 79, 0
4, 447600, Note_on_c, 2, 71, 100
4, 447840, Note_on_c, 2, 71, 0
4, 448080, Note_on_c, 2, 53, 100
4, 448320, Note_on_c, 2, 53, 0
4, 448320, Note_on_c, 2, 52, 100
4, 448560, Note_on_c, 2, 52, 0
4, 448560, Note_on_c, 2, 50, 100
4, 448800, Note_on_c, 2, 50, 0
4, 448800, Note_on_c, 2, 48, 100
4, 448920, Note_on_c, 2, 48, 0
4, 448920, Note_on_c, 2, 60, 100
4, 449040, Note_on_c, 2, 60, 0
4, 449040, Note_on_c, 2, 59, 100
4, 449160, Note_on_c, 2, 59, 0
4, 449160, Note_on_c, 2, 60, 100
4, 449280, Note_on_c, 2, 60, 0
4, 449280, Note_on_c, 2, 62, 100
4, 449400, Note_on_c, 2, 62, 0
4, 449400, Note_on_c, 2, 60, 100
4, 449520, Note_on_c, 2, 60, 0
4, 449520, Note_on_c, 2, 64, 100
4, 449640, Note_on_c, 2, 64, 0
4, 449640, Note_on_c, 2, 60, 100
4, 449760, Note_on_c, 2, 60, 0
4, 449760, Note_on_c, 2, 66, 100
4, 449880, Note_on_c, 2, 66, 0
4, 449880, Note_on_c, 2, 60, 100
4, 450000, Note_on_c, 2, 60, 0
4, 450000, Note_on_c, 2, 67, 100
4, 450120, Note_on_c, 2, 67, 0
4, 450120, Note_on_c, 2, 60, 100
4, 450240, Note_on_c, 2, 60, 0
4, 450240, Note_on_c, 2, 69, 100
4, 450360, Note_on_c, 2, 69, 0
4, 450360, Note_on_c, 2, 60, 100
4, 450480, Note_on_c, 2, 60, 0
4, 450480, Note_on_c, 2, 59, 100
4, 450600, Note_on_c, 2, 59, 0
4, 450600, Note_on_c, 2, 57, 100
4, 450720, Note_on_c, 2, 57, 0
4, 450720, Note_on_c, 2, 59, 100
4, 450960, Note_on_c, 2, 59, 0
4, 450960, Note_on_c, 2, 74, 100
4, 451200, Note_on_c, 2, 74, 0
4, 451200, Note_on_c, 2, 50, 100
4, 451440, Note_on_c, 2, 50, 0
4, 451440, Note_on_c, 2, 72, 100
4, 451680, Note_on_c, 2, 72, 0
4, 451680, Note_on_c, 2, 71, 100
4, 451800, Note_on_c, 2, 71, 0
4, 451800, Note_on_c, 2, 67, 100
4, 451920, Note_on_c, 2, 67, 0
4, 451920, Note_on_c, 2, 62, 100
4, 452040, Note_on_c, 2, 62, 0
4, 452040, Note_on_c, 2, 67, 100
4, 452160, Note_on_c, 2, 67, 0
4, 452160, Note_on_c, 2, 71, 100
4, 452280, Note_on_c, 2, 71, 0
4, 452280, Note_on_c, 2, 67, 100
4, 452400, Note_on_c, 2, 67, 0
4, 452400, Note_on_c, 2, 74, 100
4, 452520, Note_on_c, 2, 74, 0
4, 452520, Note_on_c, 2, 71, 100
4, 452640, Note_on_c, 2, 71, 0
4, 452640, Note_on_c, 2, 79, 100
4, 453120, Note_on_c, 2, 79, 0
4, 453120, Note_on_c, 2, 78, 100
4, 453360, Note_on_c, 2, 78, 0
4, 453600, Note_on_c, 2, 62, 100
4, 453840, Note_on_c, 2, 62, 0
4, 454080, Note_on_c, 2, 79, 100
4, 454140, Note_on_c, 2, 79, 0
4, 454140, Note_on_c, 2, 78, 100
4, 454200, Note_on_c, 2, 78, 0
4, 454200, Note_on_c, 2, 76, 100
4, 454260, Note_on_c, 2, 76, 0
4, 454260, Note_on_c, 2, 78, 100
4, 454320, Note_on_c, 2, 78, 0
4, 454320, Note_on_c, 2, 76, 100
4, 454380, Note_on_c, 2, 76, 0
4, 454380, Note_on_c, 2, 78, 100
4, 454440, Note_on_c, 2, 78, 0
4, 454440, Note_on_c, 2, 76, 100
4, 454500, Note_on_c, 2, 76, 0
4, 454500, Note_on_c, 2, 78, 100
4, 454560, Note_on_c, 2, 78, 0
4, 454560, Note_on_c, 2, 79, 100
4, 454800, Note_on_c, 2, 79, 0
4, 454800, Note_on_c, 2, 74, 100
4, 454920, Note_on_c, 2, 74, 0
4, 454920, Note_on_c, 2, 79, 100
4, 455040, Note_on_c, 2, 79, 0
4, 455040, Note_on_c, 2, 81, 100
4, 455280, Note_on_c, 2, 81, 0
4, 455280, Note_on_c, 2, 74, 100
4, 455400, Note_on_c, 2, 74, 0
4, 455400, Note_on_c, 2, 81, 100
4, 455520, Note_on_c, 2, 81, 0
4, 455520, Note_on_c, 2, 83, 100
4, 455760, Note_on_c, 2, 83, 0
4, 455760, Note_on_c, 2, 79, 100
4, 456000, Note_on_c, 2, 79, 0
4, 456000, Note_on_c, 2, 76, 100
4, 456240, Note_on_c, 2, 76, 0
4, 456240, Note_on_c, 2, 72, 100
4, 456480, Note_on_c, 2, 72, 0
4, 456480, Note_on_c, 2, 69, 100
4, 456720, Note_on_c, 2, 69, 0
4, 456720, Note_on_c, 2, 79, 100
4, 456960, Note_on_c, 2, 79, 0
4, 456960, Note_on_c, 2, 78, 100
4, 457020, Note_on_c, 2, 78, 0
4, 457020, Note_on_c, 2, 76, 100
4, 457080, Note_on_c, 2, 76, 0
4, 457080, Note_on_c, 2, 75, 100
4, 457200, Note_on_c, 2, 75, 0
4, 457200, Note_on_c, 2, 76, 100
4, 457680, Note_on_c, 2, 76, 0
4, 457680, Note_on_c, 2, 76, 100
4, 457720, Note_on_c, 2, 76, 0
4, 457720, Note_on_c, 2, 75, 100
4, 457760, Note_on_c, 2, 75, 0
4, 457760, Note_on_c, 2, 76, 100
4, 457800, Note_on_c, 2, 76, 0
4, 457800, Note_on_c, 2, 75, 100
4, 457920, Note_on_c, 2, 75, 0
4, 458160, Note_on_c, 2, 57, 100
4, 458400, Note_on_c, 2, 57, 0
4, 458400, Note_on_c, 2, 57, 100
4, 458440, Note_on_c, 2, 57, 0
4, 458440, Note_on_c, 2, 55, 100
4, 458480, Note_on_c, 2, 55, 0
4, 458480, Note_on_c, 2, 57, 100
4, 458520, Note_on_c, 2, 57, 0
4, 458520, Note_on_c, 2, 55, 100
4, 458640, Note_on_c, 2, 55, 0
4, 458640, Note_on_c, 2, 54, 100
4, 458880, Note_on_c, 2, 54, 0
4, 458880, Note_on_c, 2, 52, 100
4, 459120, Note_on_c, 2, 52, 0
4, 459360, Note_on_c, 2, 76, 100
4, 459600, Note_on_c, 2, 76, 0
4, 459840, Note_on_c, 2, 50, 100
4, 459880, Note_on_c, 2, 50, 0
4, 459900, Note_on_c, 2, 48, 100
4, 459940, Note_on_c, 2, 48, 0
4, 459960, Note_on_c, 2, 50, 100
4, 460320, Note_on_c, 2, 50, 0
4, 460320, Note_on_c, 2, 48, 100
4, 460560, Note_on_c, 2, 48, 0
4, 460800, Note_on_c, 2, 76, 100
4, 461040, Note_on_c, 2, 76, 0
4, 461280, Note_on_c, 2, 45, 100
4, 461320, Note_on_c, 2, 45, 0
4, 461340, Note_on_c, 2, 43, 100
4, 461380, Note_on_c, 2, 43, 0
4, 461400, Note_on_c, 2, 45, 100
4, 461760, Note_on_c, 2, 45, 0
4, 461760, Note_on_c, 2, 47, 100
4, 462000, Note_on_c, 2, 47, 0
4, 462240, Note_on_c, 2, 79, 100
4, 462480, Note_on_c, 2, 79, 0
4, 462480, Note_on_c, 2, 78, 100
4, 462720, Note_on_c, 2, 78, 0
4, 462720, Note_on_c, 2, 76, 100
4, 462960, Note_on_c, 2, 76, 0
4, 462960, Note_on_c, 2, 75, 100
4, 463200, Note_on_c, 2, 75, 0
4, 463200, Note_on_c, 2, 76, 100
4, 463440, Note_on_c, 2, 76, 0
4, 463680, Note_on_c, 2, 52, 100
4, 464280, Note_on_c, 2, 52, 0
4, 464280, Note_on_c, 2, 50, 100
4, 464400, Note_on_c, 2, 50, 0
4, 464400, Note_on_c, 2, 48, 100
4, 464520, Note_on_c, 2, 48, 0
4, 464520, Note_on_c, 2, 47, 100
4, 464640, Note_on_c, 2, 47, 0
4, 464640, Note_on_c, 2, 48, 100
4, 464760, Note_on_c, 2, 48, 0
4, 464760, Note_on_c, 2, 52, 100
4, 464880, Note_on_c, 2, 52, 0
4, 464880, Note_on_c, 2, 50, 100
4, 465000, Note_on_c, 2, 50, 0
4, 465000, Note_on_c, 2, 52, 100
4, 465120, Note_on_c, 2, 52, 0
4, 465120, Note_on_c, 2, 57, 100
4, 465240, Note_on_c, 2, 57, 0
4, 465240, Note_on_c, 2, 52, 100
4, 465360, Note_on_c, 2, 52, 0
4, 465360, Note_on_c, 2, 50, 100
4, 465480, Note_on_c, 2, 50, 0
4, 465480, Note_on_c, 2, 52, 100
4, 465600, Note_on_c, 2, 52, 0
4, 465600, Note_on_c, 2, 60, 100
4, 465720, Note_on_c, 2, 60, 0
4, 465720, Note_on_c, 2, 57, 100
4, 465840, Note_on_c, 2, 57, 0
4, 465840, Note_on_c, 2, 55, 100
4, 465960, Note_on_c, 2, 55, 0
4, 465960, Note_on_c, 2, 57, 100
4, 466080, Note_on_c, 2, 57, 0
4, 466080, Note_on_c, 2, 66, 100
4, 466200, Note_on_c, 2, 66, 0
4, 466200, Note_on_c, 2, 57, 100
4, 466320, Note_on_c, 2, 57, 0
4, 466320, Note_on_c, 2, 55, 100
4, 466440, Note_on_c, 2, 55, 0
4, 466440, Note_on_c, 2, 57, 100
4, 466560, Note_on_c, 2, 57, 0
4, 466560, Note_on_c, 2, 67, 100
4, 466680, Note_on_c, 2, 67, 0
4, 466680, Note_on_c, 2, 62, 100
4, 466800, Note_on_c, 2, 62, 0
4, 466800, Note_on_c, 2, 60, 100
4, 466920, Note_on_c, 2, 60, 0
4, 466920, Note_on_c, 2, 62, 100
4, 467040, Note_on_c, 2, 62, 0
4, 467040, Note_on_c, 2, 71, 100
4, 467160, Note_on_c, 2, 71, 0
4, 467160, Note_on_c, 2, 67, 100
4, 467280, Note_on_c, 2, 67, 0
4, 467280, Note_on_c, 2, 66, 100
4, 467400, Note_on_c, 2, 66, 0
4, 467400, Note_on_c, 2, 67, 100
4, 467520, Note_on_c, 2, 67, 0
4, 467520, Note_on_c, 2, 76, 100
4, 467640, Note_on_c, 2, 76, 0
4, 467640, Note_on_c, 2, 74, 100
4, 467760, Note_on_c, 2, 74, 0
4, 467760, Note_on_c, 2, 72, 100
4, 467880, Note_on_c, 2, 72, 0
4, 467880, Note_on_c, 2, 74, 100
4, 468000, Note_on_c, 2, 74, 0
4, 468000, Note_on_c, 2, 78, 100
4, 468120, Note_on_c, 2, 78, 0
4, 468120, Note_on_c, 2, 74, 100
4, 468240, Note_on_c, 2, 74, 0
4, 468240, Note_on_c, 2, 72, 100
4, 468360, Note_on_c, 2, 72, 0
4, 468360, Note_on_c, 2, 74, 100
4, 468480, Note_on_c, 2, 74, 0
4, 468480, Note_on_c, 2, 79, 100
4, 468600, Note_on_c, 2, 79, 0
4, 468600, Note_on_c, 2, 74, 100
4, 468720, Note_on_c, 2, 74, 0
4, 468720, Note_on_c, 2, 72, 100
4, 468840, Note_on_c, 2, 72, 0
4, 468840, Note_on_c, 2, 74, 100
4, 468960, Note_on_c, 2, 74, 0
4, 468960, Note_on_c, 2, 81, 100
4, 469080, Note_on_c, 2, 81, 0
4, 469080, Note_on_c, 2, 74, 100
4, 469200, Note_on_c, 2, 74, 0
4, 469200, Note_on_c, 2, 72, 100
4, 469320, Note_on_c, 2, 72, 0
4, 469320, Note_on_c, 2, 71, 100
4, 469440, Note_on_c, 2, 71, 0
4, 469440, Note_on_c, 2, 72, 100
4, 469560, Note_on_c, 2, 72, 0
4, 469560, Note_on_c, 2, 71, 100
4, 469680, Note_on_c, 2, 71, 0
4, 469680, Note_on_c, 2, 69, 100
4, 469800, Note_on_c, 2, 69, 0
4, 469800, Note_on_c, 2, 67, 100
4, 469920, Note_on_c, 2, 67, 0
4, 469920, Note_on_c, 2, 66, 100
4, 470040, Note_on_c, 2, 66, 0
4, 470040, Note_on_c, 2, 81, 100
4, 470160, Note_on_c, 2, 81, 0
4, 470160, Note_on_c, 2, 79, 100
4, 470280, Note_on_c, 2, 79, 0
4, 470280, Note_on_c, 2, 78, 100
4, 470400, Note_on_c, 2, 78, 0
4, 470400, Note_on_c, 2, 79, 100
4, 470640, Note_on_c, 2, 79, 0
4, 470640, Note_on_c, 2, 71, 100
4, 470880, Note_on_c, 2, 71, 0
4, 471120, Note_on_c, 2, 53, 100
4, 471360, Note_on_c, 2, 53, 0
4, 471360, Note_on_c, 2, 52, 100
4, 471600, Note_on_c, 2, 52, 0
4, 471600, Note_on_c, 2, 50, 100
4, 471840, Note_on_c, 2, 50, 0
4, 471840, Note_on_c, 2, 48, 100
4, 471960, Note_on_c, 2, 48, 0
4, 471960, Note_on_c, 2, 60, 100
4, 472080, Note_on_c, 2, 60, 0
4, 472080, Note_on_c, 2, 59, 100
4, 472200, Note_on_c, 2, 59, 0
4, 472200, Note_on_c, 2, 60, 100
4, 472320, Note_on_c, 2, 60, 0
4, 472320, Note_on_c, 2, 62, 100
4, 472440, Note_on_c, 2, 62, 0
4, 472440, Note_on_c, 2, 60, 100
4, 472560, Note_on_c, 2, 60, 0
4, 472560, Note_on_c, 2, 64, 100
4, 472680, Note_on_c, 2, 64, 0
4, 472680, Note_on_c, 2, 60, 100
4, 472800, Note_on_c, 2, 60, 0
4, 472800, Note_on_c, 2, 66, 100
4, 472920, Note_on_c, 2, 66, 0
4, 472920, Note_on_c, 2, 60, 100
4, 473040, Note_on_c, 2, 60, 0
4, 473040, Note_on_c, 2, 67, 100
4, 473160, Note_on_c, 2, 67, 0
4, 473160, Note_on_c, 2, 60, 100
4, 473280, Note_on_c, 2, 60, 0
4, 473280, Note_on_c, 2, 69, 100
4, 473400, Note_on_c, 2, 69, 0
4, 473400, Note_on_c, 2, 60, 100
4, 473520, Note_on_c, 2, 60, 0
4, 473520, Note_on_c, 2, 59, 100
4, 473640, Note_on_c, 2, 59, 0
4, 473640, Note_on_c, 2, 57, 100
4, 473760, Note_on_c, 2, 57, 0
4, 473760, Note_on_c, 2, 59, 100
4, 474000, Note_on_c, 2, 59, 0
4, 474000, Note_on_c, 2, 74, 100
4, 474240, Note_on_c, 2, 74, 0
4, 474240, Note_on_c, 2, 50, 100
4, 474480, Note_on_c, 2, 50, 0
4, 474480, Note_on_c, 2, 72, 100
4, 474720, Note_on_c, 2, 72, 0
4, 474720, Note_on_c, 2, 71, 100
4, 474840, Note_on_c, 2, 71, 0
4, 474840, Note_on_c, 2, 67, 100
4, 474960, Note_on_c, 2, 67, 0
4, 474960, Note_on_c, 2, 62, 100
4, 475080, Note_on_c, 2, 62, 0
4, 475080, Note_on_c, 2, 67, 100
4, 475200, Note_on_c, 2, 67, 0
4, 475200, Note_on_c, 2, 71, 100
4, 475320, Note_on_c, 2, 71, 0
4, 475320, Note_on_c, 2, 67, 100
4, 475440, Note_on_c, 2, 67, 0
4, 475440, Note_on_c, 2, 74, 100
4, 475560, Note_on_c, 2, 74, 0
4, 475560, Note_on_c, 2, 71, 100
4, 475680, Note_on_c, 2, 71, 0
4, 475680, Note_on_c, 2, 79, 100
4, 476160, Note_on_c, 2, 79, 0
4, 522240, Note_on_c, 2, 71, 100
4, 522600, Note_on_c, 2, 71, 0
4, 522600, Note_on_c, 2, 69, 100
4, 522720, Note_on_c, 2, 69, 0
4, 522720, Note_on_c, 2, 71, 100
4, 522960, Note_on_c, 2, 71, 0
4, 522960, Note_on_c, 2, 62, 100
4, 523320, Note_on_c, 2, 62, 0
4, 523320, Note_on_c, 2, 67, 100
4, 523440, Note_on_c, 2, 67, 0
4, 523440, Note_on_c, 2, 71, 100
4, 523680, Note_on_c, 2, 71, 0
4, 523680, Note_on_c, 2, 71, 100
4, 523740, Note_on_c, 2, 71, 0
4, 523740, Note_on_c, 2, 69, 100
4, 523800, Note_on_c, 2, 69, 0
4, 523800, Note_on_c, 2, 71, 100
4, 523860, Note_on_c, 2, 71, 0
4, 523860, Note_on_c, 2, 69, 100
4, 524040, Note_on_c, 2, 69, 0
4, 524040, Note_on_c, 2, 67, 100
4, 524160, Note_on_c, 2, 67, 0
4, 524160, Note_on_c, 2, 69, 100
4, 524400, Note_on_c, 2, 69, 0
4, 524400, Note_on_c, 2, 74, 100
4, 525120, Note_on_c, 2, 74, 0
4, 525120, Note_on_c, 2, 79, 100
4, 525180, Note_on_c, 2, 79, 0
4, 525180, Note_on_c, 2, 78, 100
4, 525240, Note_on_c, 2, 78, 0
4, 525240, Note_on_c, 2, 79, 100
4, 525480, Note_on_c, 2, 79, 0
4, 525480, Note_on_c, 2, 78, 100
4, 525600, Note_on_c, 2, 78, 0
4, 525600, Note_on_c, 2, 79, 100
4, 525840, Note_on_c, 2, 79, 0
4, 525840, Note_on_c, 2, 69, 100
4, 526200, Note_on_c, 2, 69, 0
4, 526200, Note_on_c, 2, 76, 100
4, 526320, Note_on_c, 2, 76, 0
4, 526320, Note_on_c, 2, 79, 100
4, 526560, Note_on_c, 2, 79, 0
4, 526560, Note_on_c, 2, 79, 100
4, 526620, Note_on_c, 2, 79, 0
4, 526620, Note_on_c, 2, 78, 100
4, 526680, Note_on_c, 2, 78, 0
4, 526680, Note_on_c, 2, 79, 100
4, 526740, Note_on_c, 2, 79, 0
4, 526740, Note_on_c, 2, 78, 100
4, 526920, Note_on_c, 2, 78, 0
4, 526920, Note_on_c, 2, 76, 100
4, 527040, Note_on_c, 2, 76, 0
4, 527040, Note_on_c, 2, 78, 100
4, 527280, Note_on_c, 2, 78, 0
4, 527280, Note_on_c, 2, 74, 100
4, 528480, Note_on_c, 2, 74, 0
4, 528480, Note_on_c, 2, 76, 100
4, 528540, Note_on_c, 2, 76, 0
4, 528540, Note_on_c, 2, 78, 100
4, 528600, Note_on_c, 2, 78, 0
4, 528600, Note_on_c, 2, 79, 100
4, 528660, Note_on_c, 2, 79, 0
4, 528660, Note_on_c, 2, 81, 100
4, 528720, Note_on_c, 2, 81, 0
4, 528720, Note_on_c, 2, 83, 100
4, 529080, Note_on_c, 2, 83, 0
4, 529080, Note_on_c, 2, 79, 100
4, 529200, Note_on_c, 2, 79, 0
4, 529200, Note_on_c, 2, 74, 100
4, 529440, Note_on_c, 2, 74, 0
4, 529440, Note_on_c, 2, 76, 100
4, 529920, Note_on_c, 2, 76, 0
4, 529920, Note_on_c, 2, 78, 100
4, 529980, Note_on_c, 2, 78, 0
4, 529980, Note_on_c, 2, 79, 100
4, 530040, Note_on_c, 2, 79, 0
4, 530040, Note_on_c, 2, 81, 100
4, 530100, Note_on_c, 2, 81, 0
4, 530100, Note_on_c, 2, 83, 100
4, 530160, Note_on_c, 2, 83, 0
4, 530160, Note_on_c, 2, 84, 100
4, 530520, Note_on_c, 2, 84, 0
4, 530520, Note_on_c, 2, 81, 100
4, 530640, Note_on_c, 2, 81, 0
4, 530640, Note_on_c, 2, 76, 100
4, 530880, Note_on_c, 2, 76, 0
4, 530880, Note_on_c, 2, 78, 100
4, 531240, Note_on_c, 2, 78, 0
4, 531240, Note_on_c, 2, 74, 100
4, 531360, Note_on_c, 2, 74, 0
4, 531360, Note_on_c, 2, 79, 100
4, 531600, Note_on_c, 2, 79, 0
4, 531600, Note_on_c, 2, 69, 100
4, 531960, Note_on_c, 2, 69, 0
4, 531960, Note_on_c, 2, 71, 100
4, 532080, Note_on_c, 2, 71, 0
4, 532080, Note_on_c, 2, 72, 100
4, 532320, Note_on_c, 2, 72, 0
4, 532320, Note_on_c, 2, 72, 100
4, 532560, Note_on_c, 2, 72, 0
4, 532560, Note_on_c, 2, 71, 100
4, 533400, Note_on_c, 2, 71, 0
4, 533400, Note_on_c, 2, 69, 100
4, 533520, Note_on_c, 2, 69, 0
4, 533520, Note_on_c, 2, 67, 100
4, 533640, Note_on_c, 2, 67, 0
4, 533640, Note_on_c, 2, 66, 100
4, 533760, Note_on_c, 2, 66, 0
4, 533760, Note_on_c, 2, 67, 100
4, 534240, Note_on_c, 2, 67, 0
4, 534240, Note_on_c, 2, 74, 100
4, 534480, Note_on_c, 2, 74, 0
4, 534480, Note_on_c, 2, 79, 100
4, 534540, Note_on_c, 2, 79, 0
4, 534540, Note_on_c, 2, 78, 100
4, 534600, Note_on_c, 2, 78, 0
4, 534600, Note_on_c, 2, 79, 100
4, 535440, Note_on_c, 2, 79, 0
4, 535440, Note_on_c, 2, 81, 100
4, 535560, Note_on_c, 2, 81, 0
4, 535560, Note_on_c, 2, 79, 100
4, 535680, Note_on_c, 2, 79, 0
4, 535680, Note_on_c, 2, 78, 100
4, 535800, Note_on_c, 2, 78, 0
4, 535800, Note_on_c, 2, 76, 100
4, 535920, Note_on_c, 2, 76, 0
4, 535920, Note_on_c, 2, 78, 100
4, 535980, Note_on_c, 2, 78, 0
4, 535980, Note_on_c, 2, 76, 100
4, 536040, Note_on_c, 2, 76, 0
4, 536040, Note_on_c, 2, 78, 100
4, 537000, Note_on_c, 2, 78, 0
4, 537000, Note_on_c, 2, 79, 100
4, 537120, Note_on_c, 2, 79, 0
4, 537120, Note_on_c, 2, 78, 100
4, 537360, Note_on_c, 2, 78, 0
4, 537360, Note_on_c, 2, 76, 100
4, 537720, Note_on_c, 2, 76, 0
4, 537720, Note_on_c, 2, 73, 100
4, 537840, Note_on_c, 2, 73, 0
4, 537840, Note_on_c, 2, 74, 100
4, 538080, Note_on_c, 2, 74, 0
4, 538080, Note_on_c, 2, 74, 100
4, 538140, Note_on_c, 2, 74, 0
4, 538140, Note_on_c, 2, 73, 100
4, 538200, Note_on_c, 2, 73, 0
4, 538200, Note_on_c, 2, 74, 100
4, 538260, Note_on_c, 2, 74, 0
4, 538260, Note_on_c, 2, 73, 100
4, 538440, Note_on_c, 2, 73, 0
4, 538440, Note_on_c, 2, 74, 100
4, 538560, Note_on_c, 2, 74, 0
4, 538560, Note_on_c, 2, 76, 100
4, 538800, Note_on_c, 2, 76, 0
4, 538800, Note_on_c, 2, 69, 100
4, 540000, Note_on_c, 2, 69, 0
4, 540000, Note_on_c, 2, 71, 100
4, 540060, Note_on_c, 2, 71, 0
4, 540060, Note_on_c, 2, 73, 100
4, 540120, Note_on_c, 2, 73, 0
4, 540120, Note_on_c, 2, 74, 100
4, 540180, Note_on_c, 2, 74, 0
4, 540180, Note_on_c, 2, 76, 100
4, 540240, Note_on_c, 2, 76, 0
4, 540240, Note_on_c, 2, 78, 100
4, 540600, Note_on_c, 2, 78, 0
4, 540600, Note_on_c, 2, 74, 100
4, 540720, Note_on_c, 2, 74, 0
4, 540720, Note_on_c, 2, 69, 100
4, 540960, Note_on_c, 2, 69, 0
4, 540960, Note_on_c, 2, 71, 100
4, 541440, Note_on_c, 2, 71, 0
4, 541440, Note_on_c, 2, 73, 100
4, 541500, Note_on_c, 2, 73, 0
4, 541500, Note_on_c, 2, 74, 100
4, 541560, Note_on_c, 2, 74, 0
4, 541560, Note_on_c, 2, 76, 100
4, 541620, Note_on_c, 2, 76, 0
4, 541620, Note_on_c, 2, 78, 100
4, 541680, Note_on_c, 2, 78, 0
4, 541680, Note_on_c, 2, 79, 100
4, 542040, Note_on_c, 2, 79, 0
4, 542040, Note_on_c, 2, 76, 100
4, 542160, Note_on_c, 2, 76, 0
4, 542160, Note_on_c, 2, 71, 100
4, 542400, Note_on_c, 2, 71, 0
4, 542400, Note_on_c, 2, 71, 100
4, 542520, Note_on_c, 2, 71, 0
4, 542520, Note_on_c, 2, 73, 100
4, 542760, Note_on_c, 2, 73, 0
4, 542760, Note_on_c, 2, 69, 100
4, 542880, Note_on_c, 2, 69, 0
4, 542880, Note_on_c, 2, 81, 100
4, 543120, Note_on_c, 2, 81, 0
4, 543120, Note_on_c, 2, 74, 100
4, 543480, Note_on_c, 2, 74, 0
4, 543480, Note_on_c, 2, 76, 100
4, 543600, Note_on_c, 2, 76, 0
4, 543600, Note_on_c, 2, 73, 100
4, 543840, Note_on_c, 2, 73, 0
4, 543840, Note_on_c, 2, 73, 100
4, 544080, Note_on_c, 2, 73, 0
4, 544080, Note_on_c, 2, 74, 100
4, 545280, Note_on_c, 2, 74, 0
4, 545280, Note_on_c, 2, 71, 100
4, 545640, Note_on_c, 2, 71, 0
4, 545640, Note_on_c, 2, 69, 100
4, 545760, Note_on_c, 2, 69, 0
4, 545760, Note_on_c, 2, 71, 100
4, 546000, Note_on_c, 2, 71, 0
4, 546000, Note_on_c, 2, 62, 100
4, 546360, Note_on_c, 2, 62, 0
4, 546360, Note_on_c, 2, 67, 100
4, 546480, Note_on_c, 2, 67, 0
4, 546480, Note_on_c, 2, 71, 100
4, 546720, Note_on_c, 2, 71, 0
4, 546720, Note_on_c, 2, 71, 100
4, 546780, Note_on_c, 2, 71, 0
4, 546780, Note_on_c, 2, 69, 100
4, 546840, Note_on_c, 2, 69, 0
4, 546840, Note_on_c, 2, 71, 100
4, 546900, Note_on_c, 2, 71, 0
4, 546900, Note_on_c, 2, 69, 100
4, 547080, Note_on_c, 2, 69, 0
4, 547080, Note_on_c, 2, 67, 100
4, 547200, Note_on_c, 2, 67, 0
4, 547200, Note_on_c, 2, 69, 100
4, 547440, Note_on_c, 2, 69, 0
4, 547440, Note_on_c, 2, 74, 100
4, 548160, Note_on_c, 2, 74, 0
4, 548160, Note_on_c, 2, 79, 100
4, 548220, Note_on_c, 2, 79, 0
4, 548220, Note_on_c, 2, 78, 100
4, 548280, Note_on_c, 2, 78, 0
4, 548280, Note_on_c, 2, 79, 100
4, 548520, Note_on_c, 2, 79, 0
4, 548520, Note_on_c, 2, 78, 100
4, 548640, Note_on_c, 2, 78, 0
4, 548640, Note_on_c, 2, 79, 100
4, 548880, Note_on_c, 2, 79, 0
4, 548880, Note_on_c, 2, 69, 100
4, 549240, Note_on_c, 2, 69, 0
4, 549240, Note_on_c, 2, 76, 100
4, 549360, Note_on_c, 2, 76, 0
4, 549360, Note_on_c, 2, 79, 100
4, 549600, Note_on_c, 2, 79, 0
4, 549600, Note_on_c, 2, 79, 100
4, 549660, Note_on_c, 2, 79, 0
4, 549660, Note_on_c, 2, 78, 100
4, 549720, Note_on_c, 2, 78, 0
4, 549720, Note_on_c, 2, 79, 100
4, 549780, Note_on_c, 2, 79, 0
4, 549780, Note_on_c, 2, 78, 100
4, 549960, Note_on_c, 2, 78, 0
4, 549960, Note_on_c, 2, 76, 100
4, 550080, Note_on_c, 2, 76, 0
4, 550080, Note_on_c, 2, 78, 100
4, 550320, Note_on_c, 2, 78, 0
4, 550320, Note_on_c, 2, 74, 100
4, 551520, Note_on_c, 2, 74, 0
4, 551520, Note_on_c, 2, 76, 100
4, 551580, Note_on_c, 2, 76, 0
4, 551580, Note_on_c, 2, 78, 100
4, 551640, Note_on_c, 2, 78, 0
4, 551640, Note_on_c, 2, 79, 100
4, 551700, Note_on_c, 2, 79, 0
4, 551700, Note_on_c, 2, 81, 100
4, 551760, Note_on_c, 2, 81, 0
4, 551760, Note_on_c, 2, 83, 100
4, 552120, Note_on_c, 2, 83, 0
4, 552120, Note_on_c, 2, 79, 100
4, 552240, Note_on_c, 2, 79, 0
4, 552240, Note_on_c, 2, 74, 100
4, 552480, Note_on_c, 2, 74, 0
4, 552480, Note_on_c, 2, 76, 100
4, 552960, Note_on_c, 2, 76, 0
4, 552960, Note_on_c, 2, 78, 100
4, 553020, Note_on_c, 2, 78, 0
4, 553020, Note_on_c, 2, 79, 100
4, 553080, Note_on_c, 2, 79, 0
4, 553080, Note_on_c, 2, 81, 100
4, 553140, Note_on_c, 2, 81, 0
4, 553140, Note_on_c, 2, 83, 100
4, 553200, Note_on_c, 2, 83, 0
4, 553200, Note_on_c, 2, 84, 100
4, 553560, Note_on_c, 2, 84, 0
4, 553560, Note_on_c, 2, 81, 100
4, 553680, Note_on_c, 2, 81, 0
4, 553680, Note_on_c, 2, 76, 100
4, 553920, Note_on_c, 2, 76, 0
4, 553920, Note_on_c, 2, 78, 100
4, 554280, Note_on_c, 2, 78, 0
4, 554280, Note_on_c, 2, 74, 100
4, 554400, Note_on_c, 2, 74, 0
4, 554400, Note_on_c, 2, 79, 100
4, 554640, Note_on_c, 2, 79, 0
4, 554640, Note_on_c, 2, 69, 100
4, 555000, Note_on_c, 2, 69, 0
4, 555000, Note_on_c, 2, 71, 100
4, 555120, Note_on_c, 2, 71, 0
4, 555120, Note_on_c, 2, 72, 100
4, 555360, Note_on_c, 2, 72, 0
4, 555360, Note_on_c, 2, 72, 100
4, 555600, Note_on_c, 2, 72, 0
4, 555600, Note_on_c, 2, 71, 100
4, 556440, Note_on_c, 2, 71, 0
4, 556440, Note_on_c, 2, 69, 100
4, 556560, Note_on_c, 2, 69, 0
4, 556560, Note_on_c, 2, 67, 100
4, 556680, Note_on_c, 2, 67, 0
4, 556680, Note_on_c, 2, 66, 100
4, 556800, Note_on_c, 2, 66, 0
4, 556800, Note_on_c, 2, 67, 100
4, 557280, Note_on_c, 2, 67, 0
4, 557280, Note_on_c, 2, 74, 100
4, 557520, Note_on_c, 2, 74, 0
4, 557520, Note_on_c, 2, 79, 100
4, 557580, Note_on_c, 2, 79, 0
4, 557580, Note_on_c, 2, 78, 100
4, 557640, Note_on_c, 2, 78, 0
4, 557640, Note_on_c, 2, 79, 100
4, 558480, Note_on_c, 2, 79, 0
4, 558480, Note_on_c, 2, 81, 100
4, 558600, Note_on_c, 2, 81, 0
4, 558600, Note_on_c, 2, 79, 100
4, 558720, Note_on_c, 2, 79, 0
4, 558720, Note_on_c, 2, 78, 100
4, 558840, Note_on_c, 2, 78, 0
4, 558840, Note_on_c, 2, 76, 100
4, 558960, Note_on_c, 2, 76, 0
4, 558960, Note_on_c, 2, 78, 100
4, 559020, Note_on_c, 2, 78, 0
4, 559020, Note_on_c, 2, 76, 100
4, 559080, Note_on_c, 2, 76, 0
4, 559080, Note_on_c, 2, 78, 100
4, 560040, Note_on_c, 2, 78, 0
4, 560040, Note_on_c, 2, 79, 100
4, 560160, Note_on_c, 2, 79, 0
4, 560160, Note_on_c, 2, 78, 100
4, 560400, Note_on_c, 2, 78, 0
4, 560400, Note_on_c, 2, 76, 100
4, 560760, Note_on_c, 2, 76, 0
4, 560760, Note_on_c, 2, 73, 100
4, 560880, Note_on_c, 2, 73, 0
4, 560880, Note_on_c, 2, 74, 100
4, 561120, Note_on_c, 2, 74, 0
4, 561120, Note_on_c, 2, 74, 100
4, 561180, Note_on_c, 2, 74, 0
4, 561180, Note_on_c, 2, 73, 100
4, 561240, Note_on_c, 2, 73, 0
4, 561240, Note_on_c, 2, 74, 100
4, 561300, Note_on_c, 2, 74, 0
4, 561300, Note_on_c, 2, 73, 100
4, 561480, Note_on_c, 2, 73, 0
4, 561480, Note_on_c, 2, 74, 100
4, 561600, Note_on_c, 2, 74, 0
4, 561600, Note_on_c, 2, 76, 100
4, 561840, Note_on_c, 2, 76, 0
4, 561840, Note_on_c, 2, 69, 100
4, 563040, Note_on_c, 2, 69, 0
4, 563040, Note_on_c, 2, 71, 100
4, 563100, Note_on_c, 2, 71, 0
4, 563100, Note_on_c, 2, 73, 100
4, 563160, Note_on_c, 2, 73, 0
4, 563160, Note_on_c, 2, 74, 100
4, 563220, Note_on_c, 2, 74, 0
4, 563220, Note_on_c, 2, 76, 100
4, 563280, Note_on_c, 2, 76, 0
4, 563280, Note_on_c, 2, 78, 100
4, 563640, Note_on_c, 2, 78, 0
4, 563640, Note_on_c, 2, 74, 100
4, 563760, Note_on_c, 2, 74, 0
4, 563760, Note_on_c, 2, 69, 100
4, 564000, Note_on_c, 2, 69, 0
4, 564000, Note_on_c, 2, 71, 100
4, 564480, Note_on_c, 2, 71, 0
4, 564480, Note_on_c, 2, 73, 100
4, 564540, Note_on_c, 2, 73, 0
4, 564540, Note_on_c, 2, 74, 100
4, 564600, Note_on_c, 2, 74, 0
4, 564600, Note_on_c, 2, 76, 100
4, 564660, Note_on_c, 2, 76, 0
4, 564660, Note_on_c, 2, 78, 100
4, 564720, Note_on_c, 2, 78, 0
4, 564720, Note_on_c, 2, 79, 100
4, 565080, Note_on_c, 2, 79, 0
4, 565080, Note_on_c, 2, 76, 100
4, 565200, Note_on_c, 2, 76, 0
4, 565200, Note_on_c, 2, 71, 100
4, 565440, Note_on_c, 2, 71, 0
4, 565440, Note_on_c, 2, 71, 100
4, 565560, Note_on_c, 2, 71, 0
4, 565560, Note_on_c, 2, 73, 100
4, 565800, Note_on_c, 2, 73, 0
4, 565800, Note_on_c, 2, 69, 100
4, 565920, Note_on_c, 2, 69, 0
4, 565920, Note_on_c, 2, 81, 100
4, 566160, Note_on_c, 2, 81, 0
4, 566160, Note_on_c, 2, 74, 100
4, 566520, Note_on_c, 2, 74, 0
4, 566520, Note_on_c, 2, 76, 100
4, 566640, Note_on_c, 2, 76, 0
4, 566640, Note_on_c, 2, 73, 100
4, 566880, Note_on_c, 2, 73, 0
4, 566880, Note_on_c, 2, 73, 100
4, 567120, Note_on_c, 2, 73, 0
4, 567120, Note_on_c, 2, 74, 100
4, 568320, Note_on_c, 2, 74, 0
4, 568320, Note_on_c, 2, 78, 100
4, 568680, Note_on_c, 2, 78, 0
4, 568680, Note_on_c, 2, 76, 100
4, 568800, Note_on_c, 2, 76, 0
4, 568800, Note_on_c, 2, 78, 100
4, 569040, Note_on_c, 2, 78, 0
4, 569040, Note_on_c, 2, 69, 100
4, 569400, Note_on_c, 2, 69, 0
4, 569400, Note_on_c, 2, 74, 100
4, 569520, Note_on_c, 2, 74, 0
4, 569520, Note_on_c, 2, 78, 100
4, 569760, Note_on_c, 2, 78, 0
4, 569760, Note_on_c, 2, 79, 100
4, 570120, Note_on_c, 2, 79, 0
4, 570120, Note_on_c, 2, 78, 100
4, 570240, Note_on_c, 2, 78, 0
4, 570240, Note_on_c, 2, 79, 100
4, 570480, Note_on_c, 2, 79, 0
4, 570480, Note_on_c, 2, 83, 100
4, 571200, Note_on_c, 2, 83, 0
4, 571200, Note_on_c, 2, 76, 100
4, 571680, Note_on_c, 2, 76, 0
4, 571680, Note_on_c, 2, 78, 100
4, 571740, Note_on_c, 2, 78, 0
4, 571740, Note_on_c, 2, 79, 100
4, 571800, Note_on_c, 2, 79, 0
4, 571800, Note_on_c, 2, 81, 100
4, 571860, Note_on_c, 2, 81, 0
4, 571860, Note_on_c, 2, 83, 100
4, 571920, Note_on_c, 2, 83, 0
4, 571920, Note_on_c, 2, 84, 100
4, 572040, Note_on_c, 2, 84, 0
4, 572040, Note_on_c, 2, 83, 100
4, 572160, Note_on_c, 2, 83, 0
4, 572160, Note_on_c, 2, 81, 100
4, 572280, Note_on_c, 2, 81, 0
4, 572280, Note_on_c, 2, 79, 100
4, 572400, Note_on_c, 2, 79, 0
4, 572400, Note_on_c, 2, 78, 100
4, 572520, Note_on_c, 2, 78, 0
4, 572520, Note_on_c, 2, 76, 100
4, 572640, Note_on_c, 2, 76, 0
4, 572640, Note_on_c, 2, 76, 100
4, 572700, Note_on_c, 2, 76, 0
4, 572700, Note_on_c, 2, 75, 100
4, 572760, Note_on_c, 2, 75, 0
4, 572760, Note_on_c, 2, 76, 100
4, 572820, Note_on_c, 2, 76, 0
4, 572820, Note_on_c, 2, 75, 100
4, 573000, Note_on_c, 2, 75, 0
4, 573000, Note_on_c, 2, 73, 100
4, 573120, Note_on_c, 2, 73, 0
4, 573120, Note_on_c, 2, 75, 100
4, 573360, Note_on_c, 2, 75, 0
4, 573360, Note_on_c, 2, 71, 100
4, 574440, Note_on_c, 2, 71, 0
4, 574440, Note_on_c, 2, 83, 100
4, 574560, Note_on_c, 2, 83, 0
4, 574560, Note_on_c, 2, 78, 100
4, 574800, Note_on_c, 2, 78, 0
4, 574800, Note_on_c, 2, 79, 100
4, 575160, Note_on_c, 2, 79, 0
4, 575160, Note_on_c, 2, 75, 100
4, 575280, Note_on_c, 2, 75, 0
4, 575280, Note_on_c, 2, 76, 100
4, 575520, Note_on_c, 2, 76, 0
4, 575520, Note_on_c, 2, 72, 100
4, 575880, Note_on_c, 2, 72, 0
4, 575880, Note_on_c, 2, 76, 100
4, 576000, Note_on_c, 2, 76, 0
4, 576000, Note_on_c, 2, 80, 100
4, 576240, Note_on_c, 2, 80, 0
4, 576240, Note_on_c, 2, 81, 100
4, 576720, Note_on_c, 2, 81, 0
4, 576720, Note_on_c, 2, 83, 100
4, 576780, Note_on_c, 2, 83, 0
4, 576780, Note_on_c, 2, 81, 100
4, 576840, Note_on_c, 2, 81, 0
4, 576840, Note_on_c, 2, 79, 100
4, 576900, Note_on_c, 2, 79, 0
4, 576900, Note_on_c, 2, 78, 100
4, 576960, Note_on_c, 2, 78, 0
4, 576960, Note_on_c, 2, 79, 100
4, 577320, Note_on_c, 2, 79, 0
4, 577320, Note_on_c, 2, 81, 100
4, 577440, Note_on_c, 2, 81, 0
4, 577440, Note_on_c, 2, 83, 100
4, 577680, Note_on_c, 2, 83, 0
4, 577680, Note_on_c, 2, 76, 100
4, 578040, Note_on_c, 2, 76, 0
4, 578040, Note_on_c, 2, 78, 100
4, 578160, Note_on_c, 2, 78, 0
4, 578160, Note_on_c, 2, 75, 100
4, 578400, Note_on_c, 2, 75, 0
4, 578400, Note_on_c, 2, 76, 100
4, 578760, Note_on_c, 2, 76, 0
4, 578760, Note_on_c, 2, 71, 100
4, 578880, Note_on_c, 2, 71, 0
4, 578880, Note_on_c, 2, 67, 100
4, 579120, Note_on_c, 2, 67, 0
4, 579120, Note_on_c, 2, 64, 100
4, 579600, Note_on_c, 2, 64, 0
4, 579600, Note_on_c, 2, 71, 100
4, 579840, Note_on_c, 2, 71, 0
4, 579840, Note_on_c, 2, 71, 100
4, 580200, Note_on_c, 2, 71, 0
4, 580200, Note_on_c, 2, 68, 100
4, 580320, Note_on_c, 2, 68, 0
4, 580320, Note_on_c, 2, 69, 100
4, 580560, Note_on_c, 2, 69, 0
4, 580560, Note_on_c, 2, 74, 100
4, 580800, Note_on_c, 2, 74, 0
4, 580800, Note_on_c, 2, 76, 100
4, 580920, Note_on_c, 2, 76, 0
4, 580920, Note_on_c, 2, 74, 100
4, 581040, Note_on_c, 2, 74, 0
4, 581040, Note_on_c, 2, 72, 100
4, 581160, Note_on_c, 2, 72, 0
4, 581160, Note_on_c, 2, 71, 100
4, 581280, Note_on_c, 2, 71, 0
4, 581280, Note_on_c, 2, 72, 100
4, 581640, Note_on_c, 2, 72, 0
4, 581640, Note_on_c, 2, 76, 100
4, 581760, Note_on_c, 2, 76, 0
4, 581760, Note_on_c, 2, 74, 100
4, 582000, Note_on_c, 2, 74, 0
4, 582000, Note_on_c, 2, 76, 100
4, 582360, Note_on_c, 2, 76, 0
4, 582360, Note_on_c, 2, 79, 100
4, 582480, Note_on_c, 2, 79, 0
4, 582480, Note_on_c, 2, 78, 100
4, 582720, Note_on_c, 2, 78, 0
4, 582720, Note_on_c, 2, 79, 100
4, 582960, Note_on_c, 2, 79, 0
4, 582960, Note_on_c, 2, 81, 100
4, 583080, Note_on_c, 2, 81, 0
4, 583080, Note_on_c, 2, 79, 100
4, 583200, Note_on_c, 2, 79, 0
4, 583200, Note_on_c, 2, 78, 100
4, 583320, Note_on_c, 2, 78, 0
4, 583320, Note_on_c, 2, 76, 100
4, 583440, Note_on_c, 2, 76, 0
4, 583440, Note_on_c, 2, 81, 100
4, 583800, Note_on_c, 2, 81, 0
4, 583800, Note_on_c, 2, 83, 100
4, 583920, Note_on_c, 2, 83, 0
4, 583920, Note_on_c, 2, 79, 100
4, 584160, Note_on_c, 2, 79, 0
4, 584160, Note_on_c, 2, 79, 100
4, 584220, Note_on_c, 2, 79, 0
4, 584220, Note_on_c, 2, 78, 100
4, 584280, Note_on_c, 2, 78, 0
4, 584280, Note_on_c, 2, 79, 100
4, 584340, Note_on_c, 2, 79, 0
4, 584340, Note_on_c, 2, 78, 100
4, 584520, Note_on_c, 2, 78, 0
4, 584520, Note_on_c, 2, 76, 100
4, 584640, Note_on_c, 2, 76, 0
4, 584640, Note_on_c, 2, 78, 100
4, 584880, Note_on_c, 2, 78, 0
4, 584880, Note_on_c, 2, 74, 100
4, 586080, Note_on_c, 2, 74, 0
4, 586080, Note_on_c, 2, 76, 100
4, 586140, Note_on_c, 2, 76, 0
4, 586140, Note_on_c, 2, 78, 100
4, 586200, Note_on_c, 2, 78, 0
4, 586200, Note_on_c, 2, 79, 100
4, 586260, Note_on_c, 2, 79, 0
4, 586260, Note_on_c, 2, 81, 100
4, 586320, Note_on_c, 2, 81, 0
4, 586320, Note_on_c, 2, 83, 100
4, 586680, Note_on_c, 2, 83, 0
4, 586680, Note_on_c, 2, 79, 100
4, 586800, Note_on_c, 2, 79, 0
4, 586800, Note_on_c, 2, 74, 100
4, 587040, Note_on_c, 2, 74, 0
4, 587040, Note_on_c, 2, 76, 100
4, 587520, Note_on_c, 2, 76, 0
4, 587520, Note_on_c, 2, 78, 100
4, 587580, Note_on_c, 2, 78, 0
4, 587580, Note_on_c, 2, 79, 100
4, 587640, Note_on_c, 2, 79, 0
4, 587640, Note_on_c, 2, 81, 100
4, 587700, Note_on_c, 2, 81, 0
4, 587700, Note_on_c, 2, 83, 100
4, 587760, Note_on_c, 2, 83, 0
4, 587760, Note_on_c, 2, 84, 100
4, 588120, Note_on_c, 2, 84, 0
4, 588120, Note_on_c, 2, 81, 100
4, 588240, Note_on_c, 2, 81, 0
4, 588240, Note_on_c, 2, 76, 100
4, 588480, Note_on_c, 2, 76, 0
4, 588480, Note_on_c, 2, 78, 100
4, 588840, Note_on_c, 2, 78, 0
4, 588840, Note_on_c, 2, 74, 100
4, 588960, Note_on_c, 2, 74, 0
4, 588960, Note_on_c, 2, 86, 100
4, 589200, Note_on_c, 2, 86, 0
4, 589200, Note_on_c, 2, 79, 100
4, 589560, Note_on_c, 2, 79, 0
4, 589560, Note_on_c, 2, 81, 100
4, 589680, Note_on_c, 2, 81, 0
4, 589680, Note_on_c, 2, 78, 100
4, 589920, Note_on_c, 2, 78, 0
4, 589920, Note_on_c, 2, 79, 100
4, 591360, Note_on_c, 2, 79, 0
4, 591360, Note_on_c, 2, 78, 100
4, 591720, Note_on_c, 2, 78, 0
4, 591720, Note_on_c, 2, 76, 100
4, 591840, Note_on_c, 2, 76, 0
4, 591840, Note_on_c, 2, 78, 100
4, 592080, Note_on_c, 2, 78, 0
4, 592080, Note_on_c, 2, 69, 100
4, 592440, Note_on_c, 2, 69, 0
4, 592440, Note_on_c, 2, 74, 100
4, 592560, Note_on_c, 2, 74, 0
4, 592560, Note_on_c, 2, 78, 100
4, 592800, Note_on_c, 2, 78, 0
4, 592800, Note_on_c, 2, 79, 100
4, 593160, Note_on_c, 2, 79, 0
4, 593160, Note_on_c, 2, 78, 100
4, 593280, Note_on_c, 2, 78, 0
4, 593280, Note_on_c, 2, 79, 100
4, 593520, Note_on_c, 2, 79, 0
4, 593520, Note_on_c, 2, 83, 100
4, 594240, Note_on_c, 2, 83, 0
4, 594240, Note_on_c, 2, 76, 100
4, 594720, Note_on_c, 2, 76, 0
4, 594720, Note_on_c, 2, 78, 100
4, 594780, Note_on_c, 2, 78, 0
4, 594780, Note_on_c, 2, 79, 100
4, 594840, Note_on_c, 2, 79, 0
4, 594840, Note_on_c, 2, 81, 100
4, 594900, Note_on_c, 2, 81, 0
4, 594900, Note_on_c, 2, 83, 100
4, 594960, Note_on_c, 2, 83, 0
4, 594960, Note_on_c, 2, 84, 100
4, 595080, Note_on_c, 2, 84, 0
4, 595080, Note_on_c, 2, 83, 100
4, 595200, Note_on_c, 2, 83, 0
4, 595200, Note_on_c, 2, 81, 100
4, 595320, Note_on_c, 2, 81, 0
4, 595320, Note_on_c, 2, 79, 100
4, 595440, Note_on_c, 2, 79, 0
4, 595440, Note_on_c, 2, 78, 100
4, 595560, Note_on_c, 2, 78, 0
4, 595560, Note_on_c, 2, 76, 100
4, 595680, Note_on_c, 2, 76, 0
4, 595680, Note_on_c, 2, 76, 100
4, 595740, Note_on_c, 2, 76, 0
4, 595740, Note_on_c, 2, 75, 100
4, 595800, Note_on_c, 2, 75, 0
4, 595800, Note_on_c, 2, 76, 100
4, 595860, Note_on_c, 2, 76, 0
4, 595860, Note_on_c, 2, 75, 100
4, 596040, Note_on_c, 2, 75, 0
4, 596040, Note_on_c, 2, 73, 100
4, 596160, Note_on_c, 2, 73, 0
4, 596160, Note_on_c, 2, 75, 100
4, 596400, Note_on_c, 2, 75, 0
4, 596400, Note_on_c, 2, 71, 100
4, 597480, Note_on_c, 2, 71, 0
4, 597480, Note_on_c, 2, 83, 100
4, 597600, Note_on_c, 2, 83, 0
4, 597600, Note_on_c, 2, 78, 100
4, 597840, Note_on_c, 2, 78, 0
4, 597840, Note_on_c, 2, 79, 100
4, 598200, Note_on_c, 2, 79, 0
4, 598200, Note_on_c, 2, 75, 100
4, 598320, Note_on_c, 2, 75, 0
4, 598320, Note_on_c, 2, 76, 100
4, 598560, Note_on_c, 2, 76, 0
4, 598560, Note_on_c, 2, 72, 100
4, 598920, Note_on_c, 2, 72, 0
4, 598920, Note_on_c, 2, 76, 100
4, 599040, Note_on_c, 2, 76, 0
4, 599040, Note_on_c, 2, 80, 100
4, 599280, Note_on_c, 2, 80, 0
4, 599280, Note_on_c, 2, 81, 100
4, 599760, Note_on_c, 2, 81, 0
4, 599760, Note_on_c, 2, 83, 100
4, 599820, Note_on_c, 2, 83, 0
4, 599820, Note_on_c, 2, 81, 100
4, 599880, Note_on_c, 2, 81, 0
4, 599880, Note_on_c, 2, 79, 100
4, 599940, Note_on_c, 2, 79, 0
4, 599940, Note_on_c, 2, 78, 100
4, 600000, Note_on_c, 2, 78, 0
4, 600000, Note_on_c, 2, 79, 100
4, 600360, Note_on_c, 2, 79, 0
4, 600360, Note_on_c, 2, 81, 100
4, 600480, Note_on_c, 2, 81, 0
4, 600480, Note_on_c, 2, 83, 100
4, 600720, Note_on_c, 2, 83, 0
4, 600720, Note_on_c, 2, 76, 100
4, 601080, Note_on_c, 2, 76, 0
4, 601080, Note_on_c, 2, 78, 100
4, 601200, Note_on_c, 2, 78, 0
4, 601200, Note_on_c, 2, 75, 100
4, 601440, Note_on_c, 2, 75, 0
4, 601440, Note_on_c, 2, 76, 100
4, 601800, Note_on_c, 2, 76, 0
4, 601800, Note_on_c, 2, 71, 100
4, 601920, Note_on_c, 2, 71, 0
4, 601920, Note_on_c, 2, 67, 100
4, 602160, Note_on_c, 2, 67, 0
4, 602160, Note_on_c, 2, 64, 100
4, 602640, Note_on_c, 2, 64, 0
4, 602640, Note_on_c, 2, 71, 100
4, 602880, Note_on_c, 2, 71, 0
4, 602880, Note_on_c, 2, 71, 100
4, 603240, Note_on_c, 2, 71, 0
4, 603240, Note_on_c, 2, 68, 100
4, 603360, Note_on_c, 2, 68, 0
4, 603360, Note_on_c, 2, 69, 100
4, 603600, Note_on_c, 2, 69, 0
4, 603600, Note_on_c, 2, 74, 100
4, 603840, Note_on_c, 2, 74, 0
4, 603840, Note_on_c, 2, 76, 100
4, 603960, Note_on_c, 2, 76, 0
4, 603960, Note_on_c, 2, 74, 100
4, 604080, Note_on_c, 2, 74, 0
4, 604080, Note_on_c, 2, 72, 100
4, 604200, Note_on_c, 2, 72, 0
4, 604200, Note_on_c, 2, 71, 100
4, 604320, Note_on_c, 2, 71, 0
4, 604320, Note_on_c, 2, 72, 100
4, 604680, Note_on_c, 2, 72, 0
4, 604680, Note_on_c, 2, 76, 100
4, 604800, Note_on_c, 2, 76, 0
4, 604800, Note_on_c, 2, 74, 100
4, 605040, Note_on_c, 2, 74, 0
4, 605040, Note_on_c, 2, 76, 100
4, 605400, Note_on_c, 2, 76, 0
4, 605400, Note_on_c, 2, 79, 100
4, 605520, Note_on_c, 2, 79, 0
4, 605520, Note_on_c, 2, 78, 100
4, 605760, Note_on_c, 2, 78, 0
4, 605760, Note_on_c, 2, 79, 100
4, 606000, Note_on_c, 2, 79, 0
4, 606000, Note_on_c, 2, 81, 100
4, 606120, Note_on_c, 2, 81, 0
4, 606120, Note_on_c, 2, 79, 100
4, 606240, Note_on_c, 2, 79, 0
4, 606240, Note_on_c, 2, 78, 100
4, 606360, Note_on_c, 2, 78, 0
4, 606360, Note_on_c, 2, 76, 100
4, 606480, Note_on_c, 2, 76, 0
4, 606480, Note_on_c, 2, 81, 100
4, 606840, Note_on_c, 2, 81, 0
4, 606840, Note_on_c, 2, 83, 100
4, 606960, Note_on_c, 2, 83, 0
4, 606960, Note_on_c, 2, 79, 100
4, 607200, Note_on_c, 2, 79, 0
4, 607200, Note_on_c, 2, 79, 100
4, 607260, Note_on_c, 2, 79, 0
4, 607260, Note_on_c, 2, 78, 100
4, 607320, Note_on_c, 2, 78, 0
4, 607320, Note_on_c, 2, 79, 100
4, 607380, Note_on_c, 2, 79, 0
4, 607380, Note_on_c, 2, 78, 100
4, 607560, Note_on_c, 2, 78, 0
4, 607560, Note_on_c, 2, 76, 100
4, 607680, Note_on_c, 2, 76, 0
4, 607680, Note_on_c, 2, 78, 100
4, 607920, Note_on_c, 2, 78, 0
4, 607920, Note_on_c, 2, 74, 100
4, 609120, Note_on_c, 2, 74, 0
4, 609120, Note_on_c, 2, 76, 100
4, 609180, Note_on_c, 2, 76, 0
4, 609180, Note_on_c, 2, 78, 100
4, 609240, Note_on_c, 2, 78, 0
4, 609240, Note_on_c, 2, 79, 100
4, 609300, Note_on_c, 2, 79, 0
4, 609300, Note_on_c, 2, 81, 100
4, 609360, Note_on_c, 2, 81, 0
4, 609360, Note_on_c, 2, 83, 100
4, 609720, Note_on_c, 2, 83, 0
4, 609720, Note_on_c, 2, 79, 100
4, 609840, Note_on_c, 2, 79, 0
4, 609840, Note_on_c, 2, 74, 100
4, 610080, Note_on_c, 2, 74, 0
4, 610080, Note_on_c, 2, 76, 100
4, 610560, Note_on_c, 2, 76, 0
4, 610560, Note_on_c, 2, 78, 100
4, 610620, Note_on_c, 2, 78, 0
4, 610620, Note_on_c, 2, 79, 100
4, 610680, Note_on_c, 2, 79, 0
4, 610680, Note_on_c, 2, 81, 100
4, 610740, Note_on_c, 2, 81, 0
4, 610740, Note_on_c, 2, 83, 100
4, 610800, Note_on_c, 2, 83, 0
4, 610800, Note_on_c, 2, 84, 100
4, 611160, Note_on_c, 2, 84, 0
4, 611160, Note_on_c, 2, 81, 100
4, 611280, Note_on_c, 2, 81, 0
4, 611280, Note_on_c, 2, 76, 100
4, 611520, Note_on_c, 2, 76, 0
4, 611520, Note_on_c, 2, 78, 100
4, 611880, Note_on_c, 2, 78, 0
4, 611880, Note_on_c, 2, 74, 100
4, 612000, Note_on_c, 2, 74, 0
4, 612000, Note_on_c, 2, 86, 100
4, 612240, Note_on_c, 2, 86, 0
4, 612240, Note_on_c, 2, 79, 100
4, 612600, Note_on_c, 2, 79, 0
4, 612600, Note_on_c, 2, 81, 100
4, 612720, Note_on_c, 2, 81, 0
4, 612720, Note_on_c, 2, 78, 100
4, 612960, Note_on_c, 2, 78, 0
4, 612960, Note_on_c, 2, 79, 100
4, 614400, Note_on_c, 2, 79, 0
4, 614400, Note_on_c, 2, 62, 100
4, 614520, Note_on_c, 2, 62, 0
4, 614520, Note_on_c, 2, 67, 100
4, 614640, Note_on_c, 2, 67, 0
4, 614640, Note_on_c, 2, 71, 100
4, 614760, Note_on_c, 2, 71, 0
4, 614760, Note_on_c, 2, 69, 100
4, 614880, Note_on_c, 2, 69, 0
4, 614880, Note_on_c, 2, 67, 100
4, 615000, Note_on_c, 2, 67, 0
4, 615000, Note_on_c, 2, 71, 100
4, 615120, Note_on_c, 2, 71, 0
4, 615120, Note_on_c, 2, 74, 100
4, 615240, Note_on_c, 2, 74, 0
4, 615240, Note_on_c, 2, 72, 100
4, 615360, Note_on_c, 2, 72, 0
4, 615360, Note_on_c, 2, 71, 100
4, 615480, Note_on_c, 2, 71, 0
4, 615480, Note_on_c, 2, 74, 100
4, 615600, Note_on_c, 2, 74, 0
4, 615600, Note_on_c, 2, 79, 100
4, 615720, Note_on_c, 2, 79, 0
4, 615840, Note_on_c, 2, 62, 100
4, 615960, Note_on_c, 2, 62, 0
4, 615960, Note_on_c, 2, 66, 100
4, 616080, Note_on_c, 2, 66, 0
4, 616080, Note_on_c, 2, 69, 100
4, 616200, Note_on_c, 2, 69, 0
4, 616200, Note_on_c, 2, 67, 100
4, 616320, Note_on_c, 2, 67, 0
4, 616320, Note_on_c, 2, 66, 100
4, 616440, Note_on_c, 2, 66, 0
4, 616440, Note_on_c, 2, 69, 100
4, 616560, Note_on_c, 2, 69, 0
4, 616560, Note_on_c, 2, 72, 100
4, 616680, Note_on_c, 2, 72, 0
4, 616680, Note_on_c, 2, 71, 100
4, 616800, Note_on_c, 2, 71, 0
4, 616800, Note_on_c, 2, 69, 100
4, 616920, Note_on_c, 2, 69, 0
4, 616920, Note_on_c, 2, 74, 100
4, 617040, Note_on_c, 2, 74, 0
4, 617040, Note_on_c, 2, 78, 100
4, 617160, Note_on_c, 2, 78, 0
4, 617280, Note_on_c, 2, 59, 100
4, 617400, Note_on_c, 2, 59, 0
4, 617400, Note_on_c, 2, 64, 100
4, 617520, Note_on_c, 2, 64, 0
4, 617520, Note_on_c, 2, 67, 100
4, 617640, Note_on_c, 2, 67, 0
4, 617640, Note_on_c, 2, 66, 100
4, 617760, Note_on_c, 2, 66, 0
4, 617760, Note_on_c, 2, 64, 100
4, 617880, Note_on_c, 2, 64, 0
4, 617880, Note_on_c, 2, 67, 100
4, 618000, Note_on_c, 2, 67, 0
4, 618000, Note_on_c, 2, 71, 100
4, 618120, Note_on_c, 2, 71, 0
4, 618120, Note_on_c, 2, 69, 100
4, 618240, Note_on_c, 2, 69, 0
4, 618240, Note_on_c, 2, 67, 100
4, 618360, Note_on_c, 2, 67, 0
4, 618360, Note_on_c, 2, 73, 100
4, 618480, Note_on_c, 2, 73, 0
4, 618480, Note_on_c, 2, 76, 100
4, 618600, Note_on_c, 2, 76, 0
4, 618720, Note_on_c, 2, 57, 100
4, 618840, Note_on_c, 2, 57, 0
4, 618840, Note_on_c, 2, 62, 100
4, 618960, Note_on_c, 2, 62, 0
4, 618960, Note_on_c, 2, 66, 100
4, 619080, Note_on_c, 2, 66, 0
4, 619080, Note_on_c, 2, 64, 100
4, 619200, Note_on_c, 2, 64, 0
4, 619200, Note_on_c, 2, 62, 100
4, 619320, Note_on_c, 2, 62, 0
4, 619320, Note_on_c, 2, 66, 100
4, 619440, Note_on_c, 2, 66, 0
4, 619440, Note_on_c, 2, 69, 100
4, 619560, Note_on_c, 2, 69, 0
4, 619560, Note_on_c, 2, 67, 100
4, 619680, Note_on_c, 2, 67, 0
4, 619680, Note_on_c, 2, 66, 100
4, 619800, Note_on_c, 2, 66, 0
4, 619800, Note_on_c, 2, 69, 100
4, 619920, Note_on_c, 2, 69, 0
4, 619920, Note_on_c, 2, 74, 100
4, 620280, Note_on_c, 2, 74, 0
4, 620280, Note_on_c, 2, 71, 100
4, 620400, Note_on_c, 2, 71, 0
4, 620400, Note_on_c, 2, 67, 100
4, 620520, Note_on_c, 2, 67, 0
4, 620520, Note_on_c, 2, 69, 100
4, 620640, Note_on_c, 2, 69, 0
4, 620640, Note_on_c, 2, 71, 100
4, 620760, Note_on_c, 2, 71, 0
4, 620760, Note_on_c, 2, 67, 100
4, 620880, Note_on_c, 2, 67, 0
4, 620880, Note_on_c, 2, 62, 100
4, 621000, Note_on_c, 2, 62, 0
4, 621000, Note_on_c, 2, 64, 100
4, 621120, Note_on_c, 2, 64, 0
4, 621120, Note_on_c, 2, 65, 100
4, 621240, Note_on_c, 2, 65, 0
4, 621240, Note_on_c, 2, 62, 100
4, 621360, Note_on_c, 2, 62, 0
4, 621360, Note_on_c, 2, 59, 100
4, 621480, Note_on_c, 2, 59, 0
4, 621600, Note_on_c, 2, 76, 100
4, 621720, Note_on_c, 2, 76, 0
4, 621720, Note_on_c, 2, 72, 100
4, 621840, Note_on_c, 2, 72, 0
4, 621840, Note_on_c, 2, 69, 100
4, 621960, Note_on_c, 2, 69, 0
4, 621960, Note_on_c, 2, 71, 100
4, 622080, Note_on_c, 2, 71, 0
4, 622080, Note_on_c, 2, 72, 100
4, 622200, Note_on_c, 2, 72, 0
4, 622200, Note_on_c, 2, 69, 100
4, 622320, Note_on_c, 2, 69, 0
4, 622320, Note_on_c, 2, 64, 100
4, 622440, Note_on_c, 2, 64, 0
4, 622440, Note_on_c, 2, 66, 100
4, 622560, Note_on_c, 2, 66, 0
4, 622560, Note_on_c, 2, 67, 100
4, 622680, Note_on_c, 2, 67, 0
4, 622680, Note_on_c, 2, 64, 100
4, 622800, Note_on_c, 2, 64, 0
4, 622800, Note_on_c, 2, 60, 100
4, 622920, Note_on_c, 2, 60, 0
4, 623040, Note_on_c, 2, 81, 100
4, 623160, Note_on_c, 2, 81, 0
4, 623160, Note_on_c, 2, 78, 100
4, 623280, Note_on_c, 2, 78, 0
4, 623280, Note_on_c, 2, 74, 100
4, 623400, Note_on_c, 2, 74, 0
4, 623400, Note_on_c, 2, 76, 100
4, 623520, Note_on_c, 2, 76, 0
4, 623520, Note_on_c, 2, 78, 100
4, 623640, Note_on_c, 2, 78, 0
4, 623640, Note_on_c, 2, 74, 100
4, 623760, Note_on_c, 2, 74, 0
4, 623760, Note_on_c, 2, 69, 100
4, 623880, Note_on_c, 2, 69, 0
4, 623880, Note_on_c, 2, 71, 100
4, 624000, Note_on_c, 2, 71, 0
4, 624000, Note_on_c, 2, 72, 100
4, 624120, Note_on_c, 2, 72, 0
4, 624120, Note_on_c, 2, 69, 100
4, 624240, Note_on_c, 2, 69, 0
4, 624240, Note_on_c, 2, 66, 100
4, 624360, Note_on_c, 2, 66, 0
4, 624360, Note_on_c, 2, 72, 100
4, 624480, Note_on_c, 2, 72, 0
4, 624480, Note_on_c, 2, 71, 100
4, 624600, Note_on_c, 2, 71, 0
4, 624600, Note_on_c, 2, 67, 100
4, 624720, Note_on_c, 2, 67, 0
4, 624720, Note_on_c, 2, 62, 100
4, 624840, Note_on_c, 2, 62, 0
4, 624840, Note_on_c, 2, 66, 100
4, 624960, Note_on_c, 2, 66, 0
4, 624960, Note_on_c, 2, 67, 100
4, 625080, Note_on_c, 2, 67, 0
4, 625080, Note_on_c, 2, 62, 100
4, 625200, Note_on_c, 2, 62, 0
4, 625200, Note_on_c, 2, 59, 100
4, 625320, Note_on_c, 2, 59, 0
4, 625320, Note_on_c, 2, 60, 100
4, 625440, Note_on_c, 2, 60, 0
4, 625440, Note_on_c, 2, 62, 100
4, 625560, Note_on_c, 2, 62, 0
4, 625560, Note_on_c, 2, 59, 100
4, 625680, Note_on_c, 2, 59, 0
4, 625680, Note_on_c, 2, 55, 100
4, 625800, Note_on_c, 2, 55, 0
4, 625800, Note_on_c, 2, 57, 100
4, 625920, Note_on_c, 2, 57, 0
4, 625920, Note_on_c, 2, 59, 100
4, 626160, Note_on_c, 2, 59, 0
4, 626160, Note_on_c, 2, 83, 100
4, 626280, Note_on_c, 2, 83, 0
4, 626280, Note_on_c, 2, 81, 100
4, 626400, Note_on_c, 2, 81, 0
4, 626400, Note_on_c, 2, 79, 100
4, 626520, Note_on_c, 2, 79, 0
4, 626520, Note_on_c, 2, 78, 100
4, 626640, Note_on_c, 2, 78, 0
4, 626640, Note_on_c, 2, 76, 100
4, 626760, Note_on_c, 2, 76, 0
4, 626760, Note_on_c, 2, 74, 100
4, 626880, Note_on_c, 2, 74, 0
4, 626880, Note_on_c, 2, 73, 100
4, 627000, Note_on_c, 2, 73, 0
4, 627000, Note_on_c, 2, 76, 100
4, 627120, Note_on_c, 2, 76, 0
4, 627120, Note_on_c, 2, 74, 100
4, 627240, Note_on_c, 2, 74, 0
4, 627240, Note_on_c, 2, 76, 100
4, 627360, Note_on_c, 2, 76, 0
4, 627360, Note_on_c, 2, 69, 100
4, 627600, Note_on_c, 2, 69, 0
4, 627600, Note_on_c, 2, 81, 100
4, 627720, Note_on_c, 2, 81, 0
4, 627720, Note_on_c, 2, 79, 100
4, 627840, Note_on_c, 2, 79, 0
4, 627840, Note_on_c, 2, 78, 100
4, 627960, Note_on_c, 2, 78, 0
4, 627960, Note_on_c, 2, 76, 100
4, 628080, Note_on_c, 2, 76, 0
4, 628080, Note_on_c, 2, 74, 100
4, 628200, Note_on_c, 2, 74, 0
4, 628200, Note_on_c, 2, 73, 100
4, 628320, Note_on_c, 2, 73, 0
4, 628320, Note_on_c, 2, 71, 100
4, 628440, Note_on_c, 2, 71, 0
4, 628440, Note_on_c, 2, 74, 100
4, 628560, Note_on_c, 2, 74, 0
4, 628560, Note_on_c, 2, 73, 100
4, 628680, Note_on_c, 2, 73, 0
4, 628680, Note_on_c, 2, 74, 100
4, 628800, Note_on_c, 2, 74, 0
4, 628800, Note_on_c, 2, 67, 100
4, 629040, Note_on_c, 2, 67, 0
4, 629040, Note_on_c, 2, 79, 100
4, 629160, Note_on_c, 2, 79, 0
4, 629160, Note_on_c, 2, 78, 100
4, 629280, Note_on_c, 2, 78, 0
4, 629280, Note_on_c, 2, 76, 100
4, 629400, Note_on_c, 2, 76, 0
4, 629400, Note_on_c, 2, 74, 100
4, 629520, Note_on_c, 2, 74, 0
4, 629520, Note_on_c, 2, 73, 100
4, 629640, Note_on_c, 2, 73, 0
4, 629640, Note_on_c, 2, 71, 100
4, 629760, Note_on_c, 2, 71, 0
4, 629760, Note_on_c, 2, 69, 100
4, 629880, Note_on_c, 2, 69, 0
4, 629880, Note_on_c, 2, 73, 100
4, 630000, Note_on_c, 2, 73, 0
4, 630000, Note_on_c, 2, 71, 100
4, 630120, Note_on_c, 2, 71, 0
4, 630120, Note_on_c, 2, 74, 100
4, 630240, Note_on_c, 2, 74, 0
4, 630240, Note_on_c, 2, 73, 100
4, 630360, Note_on_c, 2, 73, 0
4, 630360, Note_on_c, 2, 76, 100
4, 630480, Note_on_c, 2, 76, 0
4, 630480, Note_on_c, 2, 69, 100
4, 630600, Note_on_c, 2, 69, 0
4, 630600, Note_on_c, 2, 71, 100
4, 630720, Note_on_c, 2, 71, 0
4, 630720, Note_on_c, 2, 73, 100
4, 630840, Note_on_c, 2, 73, 0
4, 630840, Note_on_c, 2, 69, 100
4, 630960, Note_on_c, 2, 69, 0
4, 630960, Note_on_c, 2, 64, 100
4, 631080, Note_on_c, 2, 64, 0
4, 631080, Note_on_c, 2, 66, 100
4, 631200, Note_on_c, 2, 66, 0
4, 631200, Note_on_c, 2, 67, 100
4, 631320, Note_on_c, 2, 67, 0
4, 631320, Note_on_c, 2, 64, 100
4, 631440, Note_on_c, 2, 64, 0
4, 631440, Note_on_c, 2, 61, 100
4, 631560, Note_on_c, 2, 61, 0
4, 631560, Note_on_c, 2, 64, 100
4, 631680, Note_on_c, 2, 64, 0
4, 631680, Note_on_c, 2, 62, 100
4, 631920, Note_on_c, 2, 62, 0
4, 631920, Note_on_c, 2, 66, 100
4, 632160, Note_on_c, 2, 66, 0
4, 632160, Note_on_c, 2, 69, 100
4, 632400, Note_on_c, 2, 69, 0
4, 632400, Note_on_c, 2, 74, 100
4, 632640, Note_on_c, 2, 74, 0
4, 632760, Note_on_c, 2, 72, 100
4, 632880, Note_on_c, 2, 72, 0
4, 632880, Note_on_c, 2, 69, 100
4, 633000, Note_on_c, 2, 69, 0
4, 633000, Note_on_c, 2, 66, 100
4, 633120, Note_on_c, 2, 66, 0
4, 633120, Note_on_c, 2, 67, 100
4, 633360, Note_on_c, 2, 67, 0
4, 633360, Note_on_c, 2, 71, 100
4, 633600, Note_on_c, 2, 71, 0
4, 633600, Note_on_c, 2, 74, 100
4, 633840, Note_on_c, 2, 74, 0
4, 633840, Note_on_c, 2, 79, 100
4, 634080, Note_on_c, 2, 79, 0
4, 634200, Note_on_c, 2, 79, 100
4, 634320, Note_on_c, 2, 79, 0
4, 634320, Note_on_c, 2, 78, 100
4, 634440, Note_on_c, 2, 78, 0
4, 634440, Note_on_c, 2, 79, 100
4, 634560, Note_on_c, 2, 79, 0
4, 634560, Note_on_c, 2, 69, 100
4, 634800, Note_on_c, 2, 69, 0
4, 634800, Note_on_c, 2, 73, 100
4, 635040, Note_on_c, 2, 73, 0
4, 635040, Note_on_c, 2, 76, 100
4, 635280, Note_on_c, 2, 76, 0
4, 635280, Note_on_c, 2, 79, 100
4, 635520, Note_on_c, 2, 79, 0
4, 635640, Note_on_c, 2, 79, 100
4, 635760, Note_on_c, 2, 79, 0
4, 635760, Note_on_c, 2, 81, 100
4, 635880, Note_on_c, 2, 81, 0
4, 635880, Note_on_c, 2, 73, 100
4, 636000, Note_on_c, 2, 73, 0
4, 636000, Note_on_c, 2, 74, 100
4, 636120, Note_on_c, 2, 74, 0
4, 636120, Note_on_c, 2, 78, 100
4, 636240, Note_on_c, 2, 78, 0
4, 636240, Note_on_c, 2, 81, 100
4, 636360, Note_on_c, 2, 81, 0
4, 636360, Note_on_c, 2, 85, 100
4, 636480, Note_on_c, 2, 85, 0
4, 636480, Note_on_c, 2, 86, 100
4, 636600, Note_on_c, 2, 86, 0
4, 636600, Note_on_c, 2, 85, 100
4, 636660, Note_on_c, 2, 85, 0
4, 636660, Note_on_c, 2, 83, 100
4, 636720, Note_on_c, 2, 83, 0
4, 636720, Note_on_c, 2, 81, 100
4, 636780, Note_on_c, 2, 81, 0
4, 636780, Note_on_c, 2, 79, 100
4, 636840, Note_on_c, 2, 79, 0
4, 636840, Note_on_c, 2, 78, 100
4, 636900, Note_on_c, 2, 78, 0
4, 636900, Note_on_c, 2, 76, 100
4, 636960, Note_on_c, 2, 76, 0
4, 636960, Note_on_c, 2, 74, 100
4, 637440, Note_on_c, 2, 74, 0
4, 637440, Note_on_c, 2, 62, 100
4, 637560, Note_on_c, 2, 62, 0
4, 637560, Note_on_c, 2, 67, 100
4, 637680, Note_on_c, 2, 67, 0
4, 637680, Note_on_c, 2, 71, 100
4, 637800, Note_on_c, 2, 71, 0
4, 637800, Note_on_c, 2, 69, 100
4, 637920, Note_on_c, 2, 69, 0
4, 637920, Note_on_c, 2, 67, 100
4, 638040, Note_on_c, 2, 67, 0
4, 638040, Note_on_c, 2, 71, 100
4, 638160, Note_on_c, 2, 71, 0
4, 638160, Note_on_c, 2, 74, 100
4, 638280, Note_on_c, 2, 74, 0
4, 638280, Note_on_c, 2, 72, 100
4, 638400, Note_on_c, 2, 72, 0
4, 638400, Note_on_c, 2, 71, 100
4, 638520, Note_on_c, 2, 71, 0
4, 638520, Note_on_c, 2, 74, 100
4, 638640, Note_on_c, 2, 74, 0
4, 638640, Note_on_c, 2, 79, 100
4, 638760, Note_on_c, 2, 79, 0
4, 638880, Note_on_c, 2, 62, 100
4, 639000, Note_on_c, 2, 62, 0
4, 639000, Note_on_c, 2, 66, 100
4, 639120, Note_on_c, 2, 66, 0
4, 639120, Note_on_c, 2, 69, 100
4, 639240, Note_on_c, 2, 69, 0
4, 639240, Note_on_c, 2, 67, 100
4, 639360, Note_on_c, 2, 67, 0
4, 639360, Note_on_c, 2, 66, 100
4, 639480, Note_on_c, 2, 66, 0
4, 639480, Note_on_c, 2, 69, 100
4, 639600, Note_on_c, 2, 69, 0
4, 639600, Note_on_c, 2, 72, 100
4, 639720, Note_on_c, 2, 72, 0
4, 639720, Note_on_c, 2, 71, 100
4, 639840, Note_on_c, 2, 71, 0
4, 639840, Note_on_c, 2, 69, 100
4, 639960, Note_on_c, 2, 69, 0
4, 639960, Note_on_c, 2, 74, 100
4, 640080, Note_on_c, 2, 74, 0
4, 640080, Note_on_c, 2, 78, 100
4, 640200, Note_on_c, 2, 78, 0
4, 640320, Note_on_c, 2, 59, 100
4, 640440, Note_on_c, 2, 59, 0
4, 640440, Note_on_c, 2, 64, 100
4, 640560, Note_on_c, 2, 64, 0
4, 640560, Note_on_c, 2, 67, 100
4, 640680, Note_on_c, 2, 67, 0
4, 640680, Note_on_c, 2, 66, 100
4, 640800, Note_on_c, 2, 66, 0
4, 640800, Note_on_c, 2, 64, 100
4, 640920, Note_on_c, 2, 64, 0
4, 640920, Note_on_c, 2, 67, 100
4, 641040, Note_on_c, 2, 67, 0
4, 641040, Note_on_c, 2, 71, 100
4, 641160, Note_on_c, 2, 71, 0
4, 641160, Note_on_c, 2, 69, 100
4, 641280, Note_on_c, 2, 69, 0
4, 641280, Note_on_c, 2, 67, 100
4, 641400, Note_on_c, 2, 67, 0
4, 641400, Note_on_c, 2, 73, 100
4, 641520, Note_on_c, 2, 73, 0
4, 641520, Note_on_c, 2, 76, 100
4, 641640, Note_on_c, 2, 76, 0
4, 641760, Note_on_c, 2, 57, 100
4, 641880, Note_on_c, 2, 57, 0
4, 641880, Note_on_c, 2, 62, 100
4, 642000, Note_on_c, 2, 62, 0
4, 642000, Note_on_c, 2, 66, 100
4, 642120, Note_on_c, 2, 66, 0
4, 642120, Note_on_c, 2, 64, 100
4, 642240, Note_on_c, 2, 64, 0
4, 642240, Note_on_c, 2, 62, 100
4, 642360, Note_on_c, 2, 62, 0
4, 642360, Note_on_c, 2, 66, 100
4, 642480, Note_on_c, 2, 66, 0
4, 642480, Note_on_c, 2, 69, 100
4, 642600, Note_on_c, 2, 69, 0
4, 642600, Note_on_c, 2, 67, 100
4, 642720, Note_on_c, 2, 67, 0
4, 642720, Note_on_c, 2, 66, 100
4, 642840, Note_on_c, 2, 66, 0
4, 642840, Note_on_c, 2, 69, 100
4, 642960, Note_on_c, 2, 69, 0
4, 642960, Note_on_c, 2, 74, 100
4, 643320, Note_on_c, 2, 74, 0
4, 643320, Note_on_c, 2, 71, 100
4, 643440, Note_on_c, 2, 71, 0
4, 643440, Note_on_c, 2, 67, 100
4, 643560, Note_on_c, 2, 67, 0
4, 643560, Note_on_c, 2, 69, 100
4, 643680, Note_on_c, 2, 69, 0
4, 643680, Note_on_c, 2, 71, 100
4, 643800, Note_on_c, 2, 71, 0
4, 643800, Note_on_c, 2, 67, 100
4, 643920, Note_on_c, 2, 67, 0
4, 643920, Note_on_c, 2, 62, 100
4, 644040, Note_on_c, 2, 62, 0
4, 644040, Note_on_c, 2, 64, 100
4, 644160, Note_on_c, 2, 64, 0
4, 644160, Note_on_c, 2, 65, 100
4, 644280, Note_on_c, 2, 65, 0
4, 644280, Note_on_c, 2, 62, 100
4, 644400, Note_on_c, 2, 62, 0
4, 644400, Note_on_c, 2, 59, 100
4, 644520, Note_on_c, 2, 59, 0
4, 644640, Note_on_c, 2, 76, 100
4, 644760, Note_on_c, 2, 76, 0
4, 644760, Note_on_c, 2, 72, 100
4, 644880, Note_on_c, 2, 72, 0
4, 644880, Note_on_c, 2, 69, 100
4, 645000, Note_on_c, 2, 69, 0
4, 645000, Note_on_c, 2, 71, 100
4, 645120, Note_on_c, 2, 71, 0
4, 645120, Note_on_c, 2, 72, 100
4, 645240, Note_on_c, 2, 72, 0
4, 645240, Note_on_c, 2, 69, 100
4, 645360, Note_on_c, 2, 69, 0
4, 645360, Note_on_c, 2, 64, 100
4, 645480, Note_on_c, 2, 64, 0
4, 645480, Note_on_c, 2, 66, 100
4, 645600, Note_on_c, 2, 66, 0
4, 645600, Note_on_c, 2, 67, 100
4, 645720, Note_on_c, 2, 67, 0
4, 645720, Note_on_c, 2, 64, 100
4, 645840, Note_on_c, 2, 64, 0
4, 645840, Note_on_c, 2, 60, 100
4, 645960, Note_on_c, 2, 60, 0
4, 646080, Note_on_c, 2, 81, 100
4, 646200, Note_on_c, 2, 81, 0
4, 646200, Note_on_c, 2, 78, 100
4, 646320, Note_on_c, 2, 78, 0
4, 646320, Note_on_c, 2, 74, 100
4, 646440, Note_on_c, 2, 74, 0
4, 646440, Note_on_c, 2, 76, 100
4, 646560, Note_on_c, 2, 76, 0
4, 646560, Note_on_c, 2, 78, 100
4, 646680, Note_on_c, 2, 78, 0
4, 646680, Note_on_c, 2, 74, 100
4, 646800, Note_on_c, 2, 74, 0
4, 646800, Note_on_c, 2, 69, 100
4, 646920, Note_on_c, 2, 69, 0
4, 646920, Note_on_c, 2, 71, 100
4, 647040, Note_on_c, 2, 71, 0
4, 647040, Note_on_c, 2, 72, 100
4, 647160, Note_on_c, 2, 72, 0
4, 647160, Note_on_c, 2, 69, 100
4, 647280, Note_on_c, 2, 69, 0
4, 647280, Note_on_c, 2, 66, 100
4, 647400, Note_on_c, 2, 66, 0
4, 647400, Note_on_c, 2, 72, 100
4, 647520, Note_on_c, 2, 72, 0
4, 647520, Note_on_c, 2, 71, 100
4, 647640, Note_on_c, 2, 71, 0
4, 647640, Note_on_c, 2, 67, 100
4, 647760, Note_on_c, 2, 67, 0
4, 647760, Note_on_c, 2, 62, 100
4, 647880, Note_on_c, 2, 62, 0
4, 647880, Note_on_c, 2, 66, 100
4, 648000, Note_on_c, 2, 66, 0
4, 648000, Note_on_c, 2, 67, 100
4, 648120, Note_on_c, 2, 67, 0
4, 648120, Note_on_c, 2, 62, 100
4, 648240, Note_on_c, 2, 62, 0
4, 648240, Note_on_c, 2, 59, 100
4, 648360, Note_on_c, 2, 59, 0
4, 648360, Note_on_c, 2, 60, 100
4, 648480, Note_on_c, 2, 60, 0
4, 648480, Note_on_c, 2, 62, 100
4, 648600, Note_on_c, 2, 62, 0
4, 648600, Note_on_c, 2, 59, 100
4, 648720, Note_on_c, 2, 59, 0
4, 648720, Note_on_c, 2, 55, 100
4, 648840, Note_on_c, 2, 55, 0
4, 648840, Note_on_c, 2, 57, 100
4, 648960, Note_on_c, 2, 57, 0
4, 648960, Note_on_c, 2, 59, 100
4, 649200, Note_on_c, 2, 59, 0
4, 649200, Note_on_c, 2, 83, 100
4, 649320, Note_on_c, 2, 83, 0
4, 649320, Note_on_c, 2, 81, 100
4, 649440, Note_on_c, 2, 81, 0
4, 649440, Note_on_c, 2, 79, 100
4, 649560, Note_on_c, 2, 79, 0
4, 649560, Note_on_c, 2, 78, 100
4, 649680, Note_on_c, 2, 78, 0
4, 649680, Note_on_c, 2, 76, 100
4, 649800, Note_on_c, 2, 76, 0
4, 649800, Note_on_c, 2, 74, 100
4, 649920, Note_on_c, 2, 74, 0
4, 649920, Note_on_c, 2, 73, 100
4, 650040, Note_on_c, 2, 73, 0
4, 650040, Note_on_c, 2, 76, 100
4, 650160, Note_on_c, 2, 76, 0
4, 650160, Note_on_c, 2, 74, 100
4, 650280, Note_on_c, 2, 74, 0
4, 650280, Note_on_c, 2, 76, 100
4, 650400, Note_on_c, 2, 76, 0
4, 650400, Note_on_c, 2, 69, 100
4, 650640, Note_on_c, 2, 69, 0
4, 650640, Note_on_c, 2, 81, 100
4, 650760, Note_on_c, 2, 81, 0
4, 650760, Note_on_c, 2, 79, 100
4, 650880, Note_on_c, 2, 79, 0
4, 650880, Note_on_c, 2, 78, 100
4, 651000, Note_on_c, 2, 78, 0
4, 651000, Note_on_c, 2, 76, 100
4, 651120, Note_on_c, 2, 76, 0
4, 651120, Note_on_c, 2, 74, 100
4, 651240, Note_on_c, 2, 74, 0
4, 651240, Note_on_c, 2, 73, 100
4, 651360, Note_on_c, 2, 73, 0
4, 651360, Note_on_c, 2, 71, 100
4, 651480, Note_on_c, 2, 71, 0
4, 651480, Note_on_c, 2, 74, 100
4, 651600, Note_on_c, 2, 74, 0
4, 651600, Note_on_c, 2, 73, 100
4, 651720, Note_on_c, 2, 73, 0
4, 651720, Note_on_c, 2, 74, 100
4, 651840, Note_on_c, 2, 74, 0
4, 651840, Note_on_c, 2, 67, 100
4, 652080, Note_on_c, 2, 67, 0
4, 652080, Note_on_c, 2, 79, 100
4, 652200, Note_on_c, 2, 79, 0
4, 652200, Note_on_c, 2, 78, 100
4, 652320, Note_on_c, 2, 78, 0
4, 652320, Note_on_c, 2, 76, 100
4, 652440, Note_on_c, 2, 76, 0
4, 652440, Note_on_c, 2, 74, 100
4, 652560, Note_on_c, 2, 74, 0
4, 652560, Note_on_c, 2, 73, 100
4, 652680, Note_on_c, 2, 73, 0
4, 652680, Note_on_c, 2, 71, 100
4, 652800, Note_on_c, 2, 71, 0
4, 652800, Note_on_c, 2, 69, 100
4, 652920, Note_on_c, 2, 69, 0
4, 652920, Note_on_c, 2, 73, 100
4, 653040, Note_on_c, 2, 73, 0
4, 653040, Note_on_c, 2, 71, 100
4, 653160, Note_on_c, 2, 71, 0
4, 653160, Note_on_c, 2, 74, 100
4, 653280, Note_on_c, 2, 74, 0
4, 653280, Note_on_c, 2, 73, 100
4, 653400, Note_on_c, 2, 73, 0
4, 653400, Note_on_c, 2, 76, 100
4, 653520, Note_on_c, 2, 76, 0
4, 653520, Note_on_c, 2, 69, 100
4, 653640, Note_on_c, 2, 69, 0
4, 653640, Note_on_c, 2, 71, 100
4, 653760, Note_on_c, 2, 71, 0
4, 653760, Note_on_c, 2, 73, 100
4, 653880, Note_on_c, 2, 73, 0
4, 653880, Note_on_c, 2, 69, 100
4, 654000, Note_on_c, 2, 69, 0
4, 654000, Note_on_c, 2, 64, 100
4, 654120, Note_on_c, 2, 64, 0
4, 654120, Note_on_c, 2, 66, 100
4, 654240, Note_on_c, 2, 66, 0
4, 654240, Note_on_c, 2, 67, 100
4, 654360, Note_on_c, 2, 67, 0
4, 654360, Note_on_c, 2, 64, 100
4, 654480, Note_on_c, 2, 64, 0
4, 654480, Note_on_c, 2, 61, 100
4, 654600, Note_on_c, 2, 61, 0
4, 654600, Note_on_c, 2, 64, 100
4, 654720, Note_on_c, 2, 64, 0
4, 654720, Note_on_c, 2, 62, 100
4, 654960, Note_on_c, 2, 62, 0
4, 654960, Note_on_c, 2, 66, 100
4, 655200, Note_on_c, 2, 66, 0
4, 655200, Note_on_c, 2, 69, 100
4, 655440, Note_on_c, 2, 69, 0
4, 655440, Note_on_c, 2, 74, 100
4, 655680, Note_on_c, 2, 74, 0
4, 655800, Note_on_c, 2, 72, 100
4, 655920, Note_on_c, 2, 72, 0
4, 655920, Note_on_c, 2, 69, 100
4, 656040, Note_on_c, 2, 69, 0
4, 656040, Note_on_c, 2, 66, 100
4, 656160, Note_on_c, 2, 66, 0
4, 656160, Note_on_c, 2, 67, 100
4, 656400, Note_on_c, 2, 67, 0
4, 656400, Note_on_c, 2, 71, 100
4, 656640, Note_on_c, 2, 71, 0
4, 656640, Note_on_c, 2, 74, 100
4, 656880, Note_on_c, 2, 74, 0
4, 656880, Note_on_c, 2, 79, 100
4, 657120, Note_on_c, 2, 79, 0
4, 657240, Note_on_c, 2, 79, 100
4, 657360, Note_on_c, 2, 79, 0
4, 657360, Note_on_c, 2, 78, 100
4, 657480, Note_on_c, 2, 78, 0
4, 657480, Note_on_c, 2, 79, 100
4, 657600, Note_on_c, 2, 79, 0
4, 657600, Note_on_c, 2, 69, 100
4, 657840, Note_on_c, 2, 69, 0
4, 657840, Note_on_c, 2, 73, 100
4, 658080, Note_on_c, 2, 73, 0
4, 658080, Note_on_c, 2, 76, 100
4, 658320, Note_on_c, 2, 76, 0
4, 658320, Note_on_c, 2, 79, 100
4, 658560, Note_on_c, 2, 79, 0
4, 658680, Note_on_c, 2, 79, 100
4, 658800, Note_on_c, 2, 79, 0
4, 658800, Note_on_c, 2, 81, 100
4, 658920, Note_on_c, 2, 81, 0
4, 658920, Note_on_c, 2, 73, 100
4, 659040, Note_on_c, 2, 73, 0
4, 659040, Note_on_c, 2, 74, 100
4, 659160, Note_on_c, 2, 74, 0
4, 659160, Note_on_c, 2, 78, 100
4, 659280, Note_on_c, 2, 78, 0
4, 659280, Note_on_c, 2, 81, 100
4, 659400, Note_on_c, 2, 81, 0
4, 659400, Note_on_c, 2, 85, 100
4, 659520, Note_on_c, 2, 85, 0
4, 659520, Note_on_c, 2, 86, 100
4, 659640, Note_on_c, 2, 86, 0
4, 659640, Note_on_c, 2, 85, 100
4, 659700, Note_on_c, 2, 85, 0
4, 659700, Note_on_c, 2, 83, 100
4, 659760, Note_on_c, 2, 83, 0
4, 659760, Note_on_c, 2, 81, 100
4, 659820, Note_on_c, 2, 81, 0
4, 659820, Note_on_c, 2, 79, 100
4, 659880, Note_on_c, 2, 79, 0
4, 659880, Note_on_c, 2, 78, 100
4, 659940, Note_on_c, 2, 78, 0
4, 659940, Note_on_c, 2, 76, 100
4, 660000, Note_on_c, 2, 76, 0
4, 660000, Note_on_c, 2, 74, 100
4, 660480, Note_on_c, 2, 74, 0
4, 660480, Note_on_c, 2, 69, 100
4, 660600, Note_on_c, 2, 69, 0
4, 660600, Note_on_c, 2, 74, 100
4, 660720, Note_on_c, 2, 74, 0
4, 660720, Note_on_c, 2, 78, 100
4, 660840, Note_on_c, 2, 78, 0
4, 660840, Note_on_c, 2, 76, 100
4, 660960, Note_on_c, 2, 76, 0
4, 660960, Note_on_c, 2, 74, 100
4, 661080, Note_on_c, 2, 74, 0
4, 661080, Note_on_c, 2, 78, 100
4, 661200, Note_on_c, 2, 78, 0
4, 661200, Note_on_c, 2, 81, 100
4, 661320, Note_on_c, 2, 81, 0
4, 661320, Note_on_c, 2, 79, 100
4, 661440, Note_on_c, 2, 79, 0
4, 661440, Note_on_c, 2, 78, 100
4, 661560, Note_on_c, 2, 78, 0
4, 661560, Note_on_c, 2, 81, 100
4, 661680, Note_on_c, 2, 81, 0
4, 661680, Note_on_c, 2, 84, 100
4, 661800, Note_on_c, 2, 84, 0
4, 661920, Note_on_c, 2, 62, 100
4, 662040, Note_on_c, 2, 62, 0
4, 662040, Note_on_c, 2, 67, 100
4, 662160, Note_on_c, 2, 67, 0
4, 662160, Note_on_c, 2, 71, 100
4, 662280, Note_on_c, 2, 71, 0
4, 662280, Note_on_c, 2, 69, 100
4, 662400, Note_on_c, 2, 69, 0
4, 662400, Note_on_c, 2, 67, 100
4, 662520, Note_on_c, 2, 67, 0
4, 662520, Note_on_c, 2, 71, 100
4, 662640, Note_on_c, 2, 71, 0
4, 662640, Note_on_c, 2, 74, 100
4, 662760, Note_on_c, 2, 74, 0
4, 662760, Note_on_c, 2, 72, 100
4, 662880, Note_on_c, 2, 72, 0
4, 662880, Note_on_c, 2, 71, 100
4, 663000, Note_on_c, 2, 71, 0
4, 663000, Note_on_c, 2, 74, 100
4, 663120, Note_on_c, 2, 74, 0
4, 663120, Note_on_c, 2, 77, 100
4, 663240, Note_on_c, 2, 77, 0
4, 663360, Note_on_c, 2, 76, 100
4, 663480, Note_on_c, 2, 76, 0
4, 663480, Note_on_c, 2, 72, 100
4, 663600, Note_on_c, 2, 72, 0
4, 663600, Note_on_c, 2, 69, 100
4, 663720, Note_on_c, 2, 69, 0
4, 663720, Note_on_c, 2, 71, 100
4, 663840, Note_on_c, 2, 71, 0
4, 663840, Note_on_c, 2, 72, 100
4, 663960, Note_on_c, 2, 72, 0
4, 663960, Note_on_c, 2, 69, 100
4, 664080, Note_on_c, 2, 69, 0
4, 664080, Note_on_c, 2, 66, 100
4, 664200, Note_on_c, 2, 66, 0
4, 664200, Note_on_c, 2, 67, 100
4, 664320, Note_on_c, 2, 67, 0
4, 664320, Note_on_c, 2, 69, 100
4, 664440, Note_on_c, 2, 69, 0
4, 664440, Note_on_c, 2, 66, 100
4, 664560, Note_on_c, 2, 66, 0
4, 664560, Note_on_c, 2, 63, 100
4, 664680, Note_on_c, 2, 63, 0
4, 664680, Note_on_c, 2, 64, 100
4, 664800, Note_on_c, 2, 64, 0
4, 664800, Note_on_c, 2, 66, 100
4, 664920, Note_on_c, 2, 66, 0
4, 664920, Note_on_c, 2, 63, 100
4, 665040, Note_on_c, 2, 63, 0
4, 665040, Note_on_c, 2, 59, 100
4, 665160, Note_on_c, 2, 59, 0
4, 665160, Note_on_c, 2, 61, 100
4, 665280, Note_on_c, 2, 61, 0
4, 665280, Note_on_c, 2, 63, 100
4, 665400, Note_on_c, 2, 63, 0
4, 665400, Note_on_c, 2, 59, 100
4, 665520, Note_on_c, 2, 59, 0
4, 665520, Note_on_c, 2, 54, 100
4, 665640, Note_on_c, 2, 54, 0
4, 665640, Note_on_c, 2, 55, 100
4, 665760, Note_on_c, 2, 55, 0
4, 665760, Note_on_c, 2, 57, 100
4, 665880, Note_on_c, 2, 57, 0
4, 665880, Note_on_c, 2, 54, 100
4, 666000, Note_on_c, 2, 54, 0
4, 666000, Note_on_c, 2, 51, 100
4, 666120, Note_on_c, 2, 51, 0
4, 666120, Note_on_c, 2, 54, 100
4, 666240, Note_on_c, 2, 54, 0
4, 666240, Note_on_c, 2, 55, 100
4, 666360, Note_on_c, 2, 55, 0
4, 666360, Note_on_c, 2, 59, 100
4, 666480, Note_on_c, 2, 59, 0
4, 666480, Note_on_c, 2, 64, 100
4, 666600, Note_on_c, 2, 64, 0
4, 666600, Note_on_c, 2, 63, 100
4, 666720, Note_on_c, 2, 63, 0
4, 666720, Note_on_c, 2, 64, 100
4, 666840, Note_on_c, 2, 64, 0
4, 666840, Note_on_c, 2, 67, 100
4, 666960, Note_on_c, 2, 67, 0
4, 666960, Note_on_c, 2, 71, 100
4, 667080, Note_on_c, 2, 71, 0
4, 667080, Note_on_c, 2, 69, 100
4, 667200, Note_on_c, 2, 69, 0
4, 667200, Note_on_c, 2, 67, 100
4, 667320, Note_on_c, 2, 67, 0
4, 667320, Note_on_c, 2, 71, 100
4, 667440, Note_on_c, 2, 71, 0
4, 667440, Note_on_c, 2, 76, 100
4, 667560, Note_on_c, 2, 76, 0
4, 667680, Note_on_c, 2, 64, 100
4, 667800, Note_on_c, 2, 64, 0
4, 667800, Note_on_c, 2, 69, 100
4, 667920, Note_on_c, 2, 69, 0
4, 667920, Note_on_c, 2, 72, 100
4, 668040, Note_on_c, 2, 72, 0
4, 668040, Note_on_c, 2, 71, 100
4, 668160, Note_on_c, 2, 71, 0
4, 668160, Note_on_c, 2, 69, 100
4, 668280, Note_on_c, 2, 69, 0
4, 668280, Note_on_c, 2, 72, 100
4, 668400, Note_on_c, 2, 72, 0
4, 668400, Note_on_c, 2, 76, 100
4, 668520, Note_on_c, 2, 76, 0
4, 668520, Note_on_c, 2, 74, 100
4, 668640, Note_on_c, 2, 74, 0
4, 668640, Note_on_c, 2, 72, 100
4, 668760, Note_on_c, 2, 72, 0
4, 668760, Note_on_c, 2, 76, 100
4, 668880, Note_on_c, 2, 76, 0
4, 668880, Note_on_c, 2, 81, 100
4, 669000, Note_on_c, 2, 81, 0
4, 669240, Note_on_c, 2, 72, 100
4, 669360, Note_on_c, 2, 72, 0
4, 669360, Note_on_c, 2, 71, 100
4, 669480, Note_on_c, 2, 71, 0
4, 669480, Note_on_c, 2, 78, 100
4, 669600, Note_on_c, 2, 78, 0
4, 669600, Note_on_c, 2, 79, 100
4, 669720, Note_on_c, 2, 79, 0
4, 669720, Note_on_c, 2, 75, 100
4, 669840, Note_on_c, 2, 75, 0
4, 669840, Note_on_c, 2, 76, 100
4, 669960, Note_on_c, 2, 76, 0
4, 669960, Note_on_c, 2, 67, 100
4, 670080, Note_on_c, 2, 67, 0
4, 670080, Note_on_c, 2, 66, 100
4, 670200, Note_on_c, 2, 66, 0
4, 670200, Note_on_c, 2, 76, 100
4, 670320, Note_on_c, 2, 76, 0
4, 670320, Note_on_c, 2, 75, 100
4, 670440, Note_on_c, 2, 75, 0
4, 670440, Note_on_c, 2, 81, 100
4, 670560, Note_on_c, 2, 81, 0
4, 670560, Note_on_c, 2, 81, 100
4, 670590, Note_on_c, 2, 81, 0
4, 670590, Note_on_c, 2, 79, 100
4, 670620, Note_on_c, 2, 79, 0
4, 670620, Note_on_c, 2, 81, 100
4, 670650, Note_on_c, 2, 81, 0
4, 670650, Note_on_c, 2, 79, 100
4, 670680, Note_on_c, 2, 79, 0
4, 670680, Note_on_c, 2, 78, 100
4, 670800, Note_on_c, 2, 78, 0
4, 670800, Note_on_c, 2, 76, 100
4, 671040, Note_on_c, 2, 76, 0
4, 671160, Note_on_c, 2, 69, 100
4, 671280, Note_on_c, 2, 69, 0
4, 671280, Note_on_c, 2, 67, 100
4, 671400, Note_on_c, 2, 67, 0
4, 671400, Note_on_c, 2, 66, 100
4, 671520, Note_on_c, 2, 66, 0
4, 671520, Note_on_c, 2, 66, 100
4, 671760, Note_on_c, 2, 66, 0
4, 671760, Note_on_c, 2, 64, 100
4, 672240, Note_on_c, 2, 64, 0
4, 672240, Note_on_c, 2, 76, 100
4, 672360, Note_on_c, 2, 76, 0
4, 672360, Note_on_c, 2, 74, 100
4, 672480, Note_on_c, 2, 74, 0
4, 672480, Note_on_c, 2, 72, 100
4, 672600, Note_on_c, 2, 72, 0
4, 672600, Note_on_c, 2, 71, 100
4, 672720, Note_on_c, 2, 71, 0
4, 672720, Note_on_c, 2, 69, 100
4, 672840, Note_on_c, 2, 69, 0
4, 672840, Note_on_c, 2, 67, 100
4, 672960, Note_on_c, 2, 67, 0
4, 672960, Note_on_c, 2, 66, 100
4, 673080, Note_on_c, 2, 66, 0
4, 673080, Note_on_c, 2, 70, 100
4, 673200, Note_on_c, 2, 70, 0
4, 673200, Note_on_c, 2, 73, 100
4, 673320, Note_on_c, 2, 73, 0
4, 673320, Note_on_c, 2, 76, 100
4, 673440, Note_on_c, 2, 76, 0
4, 673440, Note_on_c, 2, 74, 100
4, 673560, Note_on_c, 2, 74, 0
4, 673560, Note_on_c, 2, 66, 100
4, 673680, Note_on_c, 2, 66, 0
4, 673680, Note_on_c, 2, 74, 100
4, 673800, Note_on_c, 2, 74, 0
4, 673800, Note_on_c, 2, 72, 100
4, 673920, Note_on_c, 2, 72, 0
4, 673920, Note_on_c, 2, 71, 100
4, 674040, Note_on_c, 2, 71, 0
4, 674040, Note_on_c, 2, 69, 100
4, 674160, Note_on_c, 2, 69, 0
4, 674160, Note_on_c, 2, 68, 100
4, 674280, Note_on_c, 2, 68, 0
4, 674280, Note_on_c, 2, 66, 100
4, 674400, Note_on_c, 2, 66, 0
4, 674400, Note_on_c, 2, 64, 100
4, 674520, Note_on_c, 2, 64, 0
4, 674520, Note_on_c, 2, 68, 100
4, 674640, Note_on_c, 2, 68, 0
4, 674640, Note_on_c, 2, 71, 100
4, 674760, Note_on_c, 2, 71, 0
4, 674760, Note_on_c, 2, 74, 100
4, 674880, Note_on_c, 2, 74, 0
4, 674880, Note_on_c, 2, 72, 100
4, 675000, Note_on_c, 2, 72, 0
4, 675000, Note_on_c, 2, 64, 100
4, 675120, Note_on_c, 2, 64, 0
4, 675120, Note_on_c, 2, 72, 100
4, 675240, Note_on_c, 2, 72, 0
4, 675240, Note_on_c, 2, 71, 100
4, 675360, Note_on_c, 2, 71, 0
4, 675360, Note_on_c, 2, 69, 100
4, 675480, Note_on_c, 2, 69, 0
4, 675480, Note_on_c, 2, 72, 100
4, 675600, Note_on_c, 2, 72, 0
4, 675600, Note_on_c, 2, 76, 100
4, 675720, Note_on_c, 2, 76, 0
4, 675720, Note_on_c, 2, 74, 100
4, 675840, Note_on_c, 2, 74, 0
4, 675840, Note_on_c, 2, 72, 100
4, 675960, Note_on_c, 2, 72, 0
4, 675960, Note_on_c, 2, 76, 100
4, 676080, Note_on_c, 2, 76, 0
4, 676080, Note_on_c, 2, 81, 100
4, 676200, Note_on_c, 2, 81, 0
4, 676200, Note_on_c, 2, 79, 100
4, 676320, Note_on_c, 2, 79, 0
4, 676320, Note_on_c, 2, 78, 100
4, 676440, Note_on_c, 2, 78, 0
4, 676440, Note_on_c, 2, 81, 100
4, 676560, Note_on_c, 2, 81, 0
4, 676560, Note_on_c, 2, 84, 100
4, 676680, Note_on_c, 2, 84, 0
4, 676680, Note_on_c, 2, 83, 100
4, 676800, Note_on_c, 2, 83, 0
4, 676800, Note_on_c, 2, 81, 100
4, 676920, Note_on_c, 2, 81, 0
4, 676920, Note_on_c, 2, 79, 100
4, 677040, Note_on_c, 2, 79, 0
4, 677040, Note_on_c, 2, 78, 100
4, 677160, Note_on_c, 2, 78, 0
4, 677160, Note_on_c, 2, 76, 100
4, 677280, Note_on_c, 2, 76, 0
4, 677280, Note_on_c, 2, 74, 100
4, 677400, Note_on_c, 2, 74, 0
4, 677400, Note_on_c, 2, 78, 100
4, 677520, Note_on_c, 2, 78, 0
4, 677520, Note_on_c, 2, 81, 100
4, 677640, Note_on_c, 2, 81, 0
4, 677640, Note_on_c, 2, 84, 100
4, 677760, Note_on_c, 2, 84, 0
4, 677760, Note_on_c, 2, 83, 100
4, 677880, Note_on_c, 2, 83, 0
4, 677880, Note_on_c, 2, 86, 100
4, 678000, Note_on_c, 2, 86, 0
4, 678000, Note_on_c, 2, 79, 100
4, 678120, Note_on_c, 2, 79, 0
4, 678120, Note_on_c, 2, 81, 100
4, 678240, Note_on_c, 2, 81, 0
4, 678240, Note_on_c, 2, 83, 100
4, 678360, Note_on_c, 2, 83, 0
4, 678360, Note_on_c, 2, 79, 100
4, 678480, Note_on_c, 2, 79, 0
4, 678480, Note_on_c, 2, 74, 100
4, 678600, Note_on_c, 2, 74, 0
4, 678600, Note_on_c, 2, 76, 100
4, 678720, Note_on_c, 2, 76, 0
4, 678720, Note_on_c, 2, 77, 100
4, 678840, Note_on_c, 2, 77, 0
4, 678840, Note_on_c, 2, 74, 100
4, 678960, Note_on_c, 2, 74, 0
4, 678960, Note_on_c, 2, 71, 100
4, 679080, Note_on_c, 2, 71, 0
4, 679080, Note_on_c, 2, 74, 100
4, 679200, Note_on_c, 2, 74, 0
4, 679200, Note_on_c, 2, 76, 100
4, 679320, Note_on_c, 2, 76, 0
4, 679320, Note_on_c, 2, 79, 100
4, 679440, Note_on_c, 2, 79, 0
4, 679440, Note_on_c, 2, 72, 100
4, 679560, Note_on_c, 2, 72, 0
4, 679560, Note_on_c, 2, 74, 100
4, 679680, Note_on_c, 2, 74, 0
4, 679680, Note_on_c, 2, 76, 100
4, 679800, Note_on_c, 2, 76, 0
4, 679800, Note_on_c, 2, 72, 100
4, 679920, Note_on_c, 2, 72, 0
4, 679920, Note_on_c, 2, 69, 100
4, 680040, Note_on_c, 2, 69, 0
4, 680040, Note_on_c, 2, 71, 100
4, 680160, Note_on_c, 2, 71, 0
4, 680160, Note_on_c, 2, 72, 100
4, 680280, Note_on_c, 2, 72, 0
4, 680280, Note_on_c, 2, 69, 100
4, 680400, Note_on_c, 2, 69, 0
4, 680400, Note_on_c, 2, 64, 100
4, 680520, Note_on_c, 2, 64, 0
4, 680520, Note_on_c, 2, 67, 100
4, 680640, Note_on_c, 2, 67, 0
4, 680640, Note_on_c, 2, 66, 100
4, 680760, Note_on_c, 2, 66, 0
4, 680760, Note_on_c, 2, 69, 100
4, 680880, Note_on_c, 2, 69, 0
4, 680880, Note_on_c, 2, 62, 100
4, 681000, Note_on_c, 2, 62, 0
4, 681000, Note_on_c, 2, 64, 100
4, 681120, Note_on_c, 2, 64, 0
4, 681120, Note_on_c, 2, 66, 100
4, 681240, Note_on_c, 2, 66, 0
4, 681240, Note_on_c, 2, 62, 100
4, 681360, Note_on_c, 2, 62, 0
4, 681360, Note_on_c, 2, 57, 100
4, 681480, Note_on_c, 2, 57, 0
4, 681480, Note_on_c, 2, 59, 100
4, 681600, Note_on_c, 2, 59, 0
4, 681600, Note_on_c, 2, 60, 100
4, 681720, Note_on_c, 2, 60, 0
4, 681720, Note_on_c, 2, 57, 100
4, 681840, Note_on_c, 2, 57, 0
4, 681840, Note_on_c, 2, 54, 100
4, 681960, Note_on_c, 2, 54, 0
4, 681960, Note_on_c, 2, 57, 100
4, 682080, Note_on_c, 2, 57, 0
4, 682080, Note_on_c, 2, 59, 100
4, 682200, Note_on_c, 2, 59, 0
4, 682200, Note_on_c, 2, 62, 100
4, 682320, Note_on_c, 2, 62, 0
4, 682320, Note_on_c, 2, 55, 100
4, 682440, Note_on_c, 2, 55, 0
4, 682440, Note_on_c, 2, 57, 100
4, 682560, Note_on_c, 2, 57, 0
4, 682560, Note_on_c, 2, 59, 100
4, 682680, Note_on_c, 2, 59, 0
4, 682680, Note_on_c, 2, 55, 100
4, 682800, Note_on_c, 2, 55, 0
4, 682800, Note_on_c, 2, 59, 100
4, 682920, Note_on_c, 2, 59, 0
4, 682920, Note_on_c, 2, 62, 100
4, 683040, Note_on_c, 2, 62, 0
4, 683040, Note_on_c, 2, 67, 100
4, 683520, Note_on_c, 2, 67, 0
4, 683520, Note_on_c, 2, 69, 100
4, 683640, Note_on_c, 2, 69, 0
4, 683640, Note_on_c, 2, 74, 100
4, 683760, Note_on_c, 2, 74, 0
4, 683760, Note_on_c, 2, 78, 100
4, 683880, Note_on_c, 2, 78, 0
4, 683880, Note_on_c, 2, 76, 100
4, 684000, Note_on_c, 2, 76, 0
4, 684000, Note_on_c, 2, 74, 100
4, 684120, Note_on_c, 2, 74, 0
4, 684120, Note_on_c, 2, 78, 100
4, 684240, Note_on_c, 2, 78, 0
4, 684240, Note_on_c, 2, 81, 100
4, 684360, Note_on_c, 2, 81, 0
4, 684360, Note_on_c, 2, 79, 100
4, 684480, Note_on_c, 2, 79, 0
4, 684480, Note_on_c, 2, 78, 100
4, 684600, Note_on_c, 2, 78, 0
4, 684600, Note_on_c, 2, 81, 100
4, 684720, Note_on_c, 2, 81, 0
4, 684720, Note_on_c, 2, 84, 100
4, 684840, Note_on_c, 2, 84, 0
4, 684960, Note_on_c, 2, 62, 100
4, 685080, Note_on_c, 2, 62, 0
4, 685080, Note_on_c, 2, 67, 100
4, 685200, Note_on_c, 2, 67, 0
4, 685200, Note_on_c, 2, 71, 100
4, 685320, Note_on_c, 2, 71, 0
4, 685320, Note_on_c, 2, 69, 100
4, 685440, Note_on_c, 2, 69, 0
4, 685440, Note_on_c, 2, 67, 100
4, 685560, Note_on_c, 2, 67, 0
4, 685560, Note_on_c, 2, 71, 100
4, 685680, Note_on_c, 2, 71, 0
4, 685680, Note_on_c, 2, 74, 100
4, 685800, Note_on_c, 2, 74, 0
4, 685800, Note_on_c, 2, 72, 100
4, 685920, Note_on_c, 2, 72, 0
4, 685920, Note_on_c, 2, 71, 100
4, 686040, Note_on_c, 2, 71, 0
4, 686040, Note_on_c, 2, 74, 100
4, 686160, Note_on_c, 2, 74, 0
4, 686160, Note_on_c, 2, 77, 100
4, 686280, Note_on_c, 2, 77, 0
4, 686400, Note_on_c, 2, 76, 100
4, 686520, Note_on_c, 2, 76, 0
4, 686520, Note_on_c, 2, 72, 100
4, 686640, Note_on_c, 2, 72, 0
4, 686640, Note_on_c, 2, 69, 100
4, 686760, Note_on_c, 2, 69, 0
4, 686760, Note_on_c, 2, 71, 100
4, 686880, Note_on_c, 2, 71, 0
4, 686880, Note_on_c, 2, 72, 100
4, 687000, Note_on_c, 2, 72, 0
4, 687000, Note_on_c, 2, 69, 100
4, 687120, Note_on_c, 2, 69, 0
4, 687120, Note_on_c, 2, 66, 100
4, 687240, Note_on_c, 2, 66, 0
4, 687240, Note_on_c, 2, 67, 100
4, 687360, Note_on_c, 2, 67, 0
4, 687360, Note_on_c, 2, 69, 100
4, 687480, Note_on_c, 2, 69, 0
4, 687480, Note_on_c, 2, 66, 100
4, 687600, Note_on_c, 2, 66, 0
4, 687600, Note_on_c, 2, 63, 100
4, 687720, Note_on_c, 2, 63, 0
4, 687720, Note_on_c, 2, 64, 100
4, 687840, Note_on_c, 2, 64, 0
4, 687840, Note_on_c, 2, 66, 100
4, 687960, Note_on_c, 2, 66, 0
4, 687960, Note_on_c, 2, 63, 100
4, 688080, Note_on_c, 2, 63, 0
4, 688080, Note_on_c, 2, 59, 100
4, 688200, Note_on_c, 2, 59, 0
4, 688200, Note_on_c, 2, 61, 100
4, 688320, Note_on_c, 2, 61, 0
4, 688320, Note_on_c, 2, 63, 100
4, 688440, Note_on_c, 2, 63, 0
4, 688440, Note_on_c, 2, 59, 100
4, 688560, Note_on_c, 2, 59, 0
4, 688560, Note_on_c, 2, 54, 100
4, 688680, Note_on_c, 2, 54, 0
4, 688680, Note_on_c, 2, 55, 100
4, 688800, Note_on_c, 2, 55, 0
4, 688800, Note_on_c, 2, 57, 100
4, 688920, Note_on_c, 2, 57, 0
4, 688920, Note_on_c, 2, 54, 100
4, 689040, Note_on_c, 2, 54, 0
4, 689040, Note_on_c, 2, 51, 100
4, 689160, Note_on_c, 2, 51, 0
4, 689160, Note_on_c, 2, 54, 100
4, 689280, Note_on_c, 2, 54, 0
4, 689280, Note_on_c, 2, 55, 100
4, 689400, Note_on_c, 2, 55, 0
4, 689400, Note_on_c, 2, 59, 100
4, 689520, Note_on_c, 2, 59, 0
4, 689520, Note_on_c, 2, 64, 100
4, 689640, Note_on_c, 2, 64, 0
4, 689640, Note_on_c, 2, 63, 100
4, 689760, Note_on_c, 2, 63, 0
4, 689760, Note_on_c, 2, 64, 100
4, 689880, Note_on_c, 2, 64, 0
4, 689880, Note_on_c, 2, 67, 100
4, 690000, Note_on_c, 2, 67, 0
4, 690000, Note_on_c, 2, 71, 100
4, 690120, Note_on_c, 2, 71, 0
4, 690120, Note_on_c, 2, 69, 100
4, 690240, Note_on_c, 2, 69, 0
4, 690240, Note_on_c, 2, 67, 100
4, 690360, Note_on_c, 2, 67, 0
4, 690360, Note_on_c, 2, 71, 100
4, 690480, Note_on_c, 2, 71, 0
4, 690480, Note_on_c, 2, 76, 100
4, 690600, Note_on_c, 2, 76, 0
4, 690720, Note_on_c, 2, 64, 100
4, 690840, Note_on_c, 2, 64, 0
4, 690840, Note_on_c, 2, 69, 100
4, 690960, Note_on_c, 2, 69, 0
4, 690960, Note_on_c, 2, 72, 100
4, 691080, Note_on_c, 2, 72, 0
4, 691080, Note_on_c, 2, 71, 100
4, 691200, Note_on_c, 2, 71, 0
4, 691200, Note_on_c, 2, 69, 100
4, 691320, Note_on_c, 2, 69, 0
4, 691320, Note_on_c, 2, 72, 100
4, 691440, Note_on_c, 2, 72, 0
4, 691440, Note_on_c, 2, 76, 100
4, 691560, Note_on_c, 2, 76, 0
4, 691560, Note_on_c, 2, 74, 100
4, 691680, Note_on_c, 2, 74, 0
4, 691680, Note_on_c, 2, 72, 100
4, 691800, Note_on_c, 2, 72, 0
4, 691800, Note_on_c, 2, 76, 100
4, 691920, Note_on_c, 2, 76, 0
4, 691920, Note_on_c, 2, 81, 100
4, 692040, Note_on_c, 2, 81, 0
4, 692280, Note_on_c, 2, 72, 100
4, 692400, Note_on_c, 2, 72, 0
4, 692400, Note_on_c, 2, 71, 100
4, 692520, Note_on_c, 2, 71, 0
4, 692520, Note_on_c, 2, 78, 100
4, 692640, Note_on_c, 2, 78, 0
4, 692640, Note_on_c, 2, 79, 100
4, 692760, Note_on_c, 2, 79, 0
4, 692760, Note_on_c, 2, 75, 100
4, 692880, Note_on_c, 2, 75, 0
4, 692880, Note_on_c, 2, 76, 100
4, 693000, Note_on_c, 2, 76, 0
4, 693000, Note_on_c, 2, 67, 100
4, 693120, Note_on_c, 2, 67, 0
4, 693120, Note_on_c, 2, 66, 100
4, 693240, Note_on_c, 2, 66, 0
4, 693240, Note_on_c, 2, 76, 100
4, 693360, Note_on_c, 2, 76, 0
4, 693360, Note_on_c, 2, 75, 100
4, 693480, Note_on_c, 2, 75, 0
4, 693480, Note_on_c, 2, 81, 100
4, 693600, Note_on_c, 2, 81, 0
4, 693600, Note_on_c, 2, 81, 100
4, 693630, Note_on_c, 2, 81, 0
4, 693630, Note_on_c, 2, 79, 100
4, 693660, Note_on_c, 2, 79, 0
4, 693660, Note_on_c, 2, 81, 100
4, 693690, Note_on_c, 2, 81, 0
4, 693690, Note_on_c, 2, 79, 100
4, 693720, Note_on_c, 2, 79, 0
4, 693720, Note_on_c, 2, 78, 100
4, 693840, Note_on_c, 2, 78, 0
4, 693840, Note_on_c, 2, 76, 100
4, 694080, Note_on_c, 2, 76, 0
4, 694200, Note_on_c, 2, 69, 100
4, 694320, Note_on_c, 2, 69, 0
4, 694320, Note_on_c, 2, 67, 100
4, 694440, Note_on_c, 2, 67, 0
4, 694440, Note_on_c, 2, 66, 100
4, 694560, Note_on_c, 2, 66, 0
4, 694560, Note_on_c, 2, 66, 100
4, 694800, Note_on_c, 2, 66, 0
4, 694800, Note_on_c, 2, 64, 100
4, 695280, Note_on_c, 2, 64, 0
4, 695280, Note_on_c, 2, 76, 100
4, 695400, Note_on_c, 2, 76, 0
4, 695400, Note_on_c, 2, 74, 100
4, 695520, Note_on_c, 2, 74, 0
4, 695520, Note_on_c, 2, 72, 100
4, 695640, Note_on_c, 2, 72, 0
4, 695640, Note_on_c, 2, 71, 100
4, 695760, Note_on_c, 2, 71, 0
4, 695760, Note_on_c, 2, 69, 100
4, 695880, Note_on_c, 2, 69, 0
4, 695880, Note_on_c, 2, 67, 100
4, 696000, Note_on_c, 2, 67, 0
4, 696000, Note_on_c, 2, 66, 100
4, 696120, Note_on_c, 2, 66, 0
4, 696120, Note_on_c, 2, 70, 100
4, 696240, Note_on_c, 2, 70, 0
4, 696240, Note_on_c, 2, 73, 100
4, 696360, Note_on_c, 2, 73, 0
4, 696360, Note_on_c, 2, 76, 100
4, 696480, Note_on_c, 2, 76, 0
4, 696480, Note_on_c, 2, 74, 100
4, 696600, Note_on_c, 2, 74, 0
4, 696600, Note_on_c, 2, 66, 100
4, 696720, Note_on_c, 2, 66, 0
4, 696720, Note_on_c, 2, 74, 100
4, 696840, Note_on_c, 2, 74, 0
4, 696840, Note_on_c, 2, 72, 100
4, 696960, Note_on_c, 2, 72, 0
4, 696960, Note_on_c, 2, 71, 100
4, 697080, Note_on_c, 2, 71, 0
4, 697080, Note_on_c, 2, 69, 100
4, 697200, Note_on_c, 2, 69, 0
4, 697200, Note_on_c, 2, 68, 100
4, 697320, Note_on_c, 2, 68, 0
4, 697320, Note_on_c, 2, 66, 100
4, 697440, Note_on_c, 2, 66, 0
4, 697440, Note_on_c, 2, 64, 100
4, 697560, Note_on_c, 2, 64, 0
4, 697560, Note_on_c, 2, 68, 100
4, 697680, Note_on_c, 2, 68, 0
4, 697680, Note_on_c, 2, 71, 100
4, 697800, Note_on_c, 2, 71, 0
4, 697800, Note_on_c, 2, 74, 100
4, 697920, Note_on_c, 2, 74, 0
4, 697920, Note_on_c, 2, 72, 100
4, 698040, Note_on_c, 2, 72, 0
4, 698040, Note_on_c, 2, 64, 100
4, 698160, Note_on_c, 2, 64, 0
4, 698160, Note_on_c, 2, 72, 100
4, 698280, Note_on_c, 2, 72, 0
4, 698280, Note_on_c, 2, 71, 100
4, 698400, Note_on_c, 2, 71, 0
4, 698400, Note_on_c, 2, 69, 100
4, 698520, Note_on_c, 2, 69, 0
4, 698520, Note_on_c, 2, 72, 100
4, 698640, Note_on_c, 2, 72, 0
4, 698640, Note_on_c, 2, 76, 100
4, 698760, Note_on_c, 2, 76, 0
4, 698760, Note_on_c, 2, 74, 100
4, 698880, Note_on_c, 2, 74, 0
4, 698880, Note_on_c, 2, 72, 100
4, 699000, Note_on_c, 2, 72, 0
4, 699000, Note_on_c, 2, 76, 100
4, 699120, Note_on_c, 2, 76, 0
4, 699120, Note_on_c, 2, 81, 100
4, 699240, Note_on_c, 2, 81, 0
4, 699240, Note_on_c, 2, 79, 100
4, 699360, Note_on_c, 2, 79, 0
4, 699360, Note_on_c, 2, 78, 100
4, 699480, Note_on_c, 2, 78, 0
4, 699480, Note_on_c, 2, 81, 100
4, 699600, Note_on_c, 2, 81, 0
4, 699600, Note_on_c, 2, 84, 100
4, 699720, Note_on_c, 2, 84, 0
4, 699720, Note_on_c, 2, 83, 100
4, 699840, Note_on_c, 2, 83, 0
4, 699840, Note_on_c, 2, 81, 100
4, 699960, Note_on_c, 2, 81, 0
4, 699960, Note_on_c, 2, 79, 100
4, 700080, Note_on_c, 2, 79, 0
4, 700080, Note_on_c, 2, 78, 100
4, 700200, Note_on_c, 2, 78, 0
4, 700200, Note_on_c, 2, 76, 100
4, 700320, Note_on_c, 2, 76, 0
4, 700320, Note_on_c, 2, 74, 100
4, 700440, Note_on_c, 2, 74, 0
4, 700440, Note_on_c, 2, 78, 100
4, 700560, Note_on_c, 2, 78, 0
4, 700560, Note_on_c, 2, 81, 100
4, 700680, Note_on_c, 2, 81, 0
4, 700680, Note_on_c, 2, 84, 100
4, 700800, Note_on_c, 2, 84, 0
4, 700800, Note_on_c, 2, 83, 100
4, 700920, Note_on_c, 2, 83, 0
4, 700920, Note_on_c, 2, 86, 100
4, 701040, Note_on_c, 2, 86, 0
4, 701040, Note_on_c, 2, 79, 100
4, 701160, Note_on_c, 2, 79, 0
4, 701160, Note_on_c, 2, 81, 100
4, 701280, Note_on_c, 2, 81, 0
4, 701280, Note_on_c, 2, 83, 100
4, 701400, Note_on_c, 2, 83, 0
4, 701400, Note_on_c, 2, 79, 100
4, 701520, Note_on_c, 2, 79, 0
4, 701520, Note_on_c, 2, 74, 100
4, 701640, Note_on_c, 2, 74, 0
4, 701640, Note_on_c, 2, 76, 100
4, 701760, Note_on_c, 2, 76, 0
4, 701760, Note_on_c, 2, 77, 100
4, 701880, Note_on_c, 2, 77, 0
4, 701880, Note_on_c, 2, 74, 100
4, 702000, Note_on_c, 2, 74, 0
4, 702000, Note_on_c, 2, 71, 100
4, 702120, Note_on_c, 2, 71, 0
4, 702120, Note_on_c, 2, 74, 100
4, 702240, Note_on_c, 2, 74, 0
4, 702240, Note_on_c, 2, 76, 100
4, 702360, Note_on_c, 2, 76, 0
4, 702360, Note_on_c, 2, 79, 100
4, 702480, Note_on_c, 2, 79, 0
4, 702480, Note_on_c, 2, 72, 100
4, 702600, Note_on_c, 2, 72, 0
4, 702600, Note_on_c, 2, 74, 100
4, 702720, Note_on_c, 2, 74, 0
4, 702720, Note_on_c, 2, 76, 100
4, 702840, Note_on_c, 2, 76, 0
4, 702840, Note_on_c, 2, 72, 100
4, 702960, Note_on_c, 2, 72, 0
4, 702960, Note_on_c, 2, 69, 100
4, 703080, Note_on_c, 2, 69, 0
4, 703080, Note_on_c, 2, 71, 100
4, 703200, Note_on_c, 2, 71, 0
4, 703200, Note_on_c, 2, 72, 100
4, 703320, Note_on_c, 2, 72, 0
4, 703320, Note_on_c, 2, 69, 100
4, 703440, Note_on_c, 2, 69, 0
4, 703440, Note_on_c, 2, 64, 100
4, 703560, Note_on_c, 2, 64, 0
4, 703560, Note_on_c, 2, 67, 100
4, 703680, Note_on_c, 2, 67, 0
4, 703680, Note_on_c, 2, 66, 100
4, 703800, Note_on_c, 2, 66, 0
4, 703800, Note_on_c, 2, 69, 100
4, 703920, Note_on_c, 2, 69, 0
4, 703920, Note_on_c, 2, 62, 100
4, 704040, Note_on_c, 2, 62, 0
4, 704040, Note_on_c, 2, 64, 100
4, 704160, Note_on_c, 2, 64, 0
4, 704160, Note_on_c, 2, 66, 100
4, 704280, Note_on_c, 2, 66, 0
4, 704280, Note_on_c, 2, 62, 100
4, 704400, Note_on_c, 2, 62, 0
4, 704400, Note_on_c, 2, 57, 100
4, 704520, Note_on_c, 2, 57, 0
4, 704520, Note_on_c, 2, 59, 100
4, 704640, Note_on_c, 2, 59, 0
4, 704640, Note_on_c, 2, 60, 100
4, 704760, Note_on_c, 2, 60, 0
4, 704760, Note_on_c, 2, 57, 100
4, 704880, Note_on_c, 2, 57, 0
4, 704880, Note_on_c, 2, 54, 100
4, 705000, Note_on_c, 2, 54, 0
4, 705000, Note_on_c, 2, 57, 100
4, 705120, Note_on_c, 2, 57, 0
4, 705120, Note_on_c, 2, 59, 100
4, 705240, Note_on_c, 2, 59, 0
4, 705240, Note_on_c, 2, 62, 100
4, 705360, Note_on_c, 2, 62, 0
4, 705360, Note_on_c, 2, 55, 100
4, 705480, Note_on_c, 2, 55, 0
4, 705480, Note_on_c, 2, 57, 100
4, 705600, Note_on_c, 2, 57, 0
4, 705600, Note_on_c, 2, 59, 100
4, 705720, Note_on_c, 2, 59, 0
4, 705720, Note_on_c, 2, 55, 100
4, 705840, Note_on_c, 2, 55, 0
4, 705840, Note_on_c, 2, 59, 100
4, 705960, Note_on_c, 2, 59, 0
4, 705960, Note_on_c, 2, 62, 100
4, 706080, Note_on_c, 2, 62, 0
4, 706080, Note_on_c, 2, 67, 100
4, 706560, Note_on_c, 2, 67, 0
4, 783360, Note_on_c, 2, 79, 100
4, 783480, Note_on_c, 2, 79, 0
4, 783480, Note_on_c, 2, 78, 100
4, 783600, Note_on_c, 2, 78, 0
4, 783600, Note_on_c, 2, 79, 100
4, 784320, Note_on_c, 2, 79, 0
4, 784320, Note_on_c, 2, 81, 100
4, 784440, Note_on_c, 2, 81, 0
4, 784440, Note_on_c, 2, 79, 100
4, 784560, Note_on_c, 2, 79, 0
4, 784560, Note_on_c, 2, 81, 100
4, 784680, Note_on_c, 2, 81, 0
4, 784680, Note_on_c, 2, 79, 100
4, 784800, Note_on_c, 2, 79, 0
4, 784800, Note_on_c, 2, 81, 100
4, 784920, Note_on_c, 2, 81, 0
4, 784920, Note_on_c, 2, 79, 100
4, 785040, Note_on_c, 2, 79, 0
4, 785040, Note_on_c, 2, 78, 100
4, 785160, Note_on_c, 2, 78, 0
4, 785160, Note_on_c, 2, 79, 100
4, 785280, Note_on_c, 2, 79, 0
4, 785280, Note_on_c, 2, 81, 100
4, 785760, Note_on_c, 2, 81, 0
4, 785760, Note_on_c, 2, 78, 100
4, 786240, Note_on_c, 2, 78, 0
4, 786240, Note_on_c, 2, 74, 100
4, 786720, Note_on_c, 2, 74, 0
4, 786720, Note_on_c, 2, 78, 100
4, 787200, Note_on_c, 2, 78, 0
4, 787200, Note_on_c, 2, 71, 100
4, 787680, Note_on_c, 2, 71, 0
4, 787680, Note_on_c, 2, 76, 100
4, 788160, Note_on_c, 2, 76, 0
4, 788160, Note_on_c, 2, 64, 100
4, 788640, Note_on_c, 2, 64, 0
4, 788640, Note_on_c, 2, 74, 100
4, 789120, Note_on_c, 2, 74, 0
4, 789120, Note_on_c, 2, 74, 100
4, 789200, Note_on_c, 2, 74, 0
4, 789200, Note_on_c, 2, 73, 100
4, 789280, Note_on_c, 2, 73, 0
4, 789280, Note_on_c, 2, 74, 100
4, 789360, Note_on_c, 2, 74, 0
4, 789360, Note_on_c, 2, 73, 100
4, 789600, Note_on_c, 2, 73, 0
4, 789600, Note_on_c, 2, 71, 100
4, 789840, Note_on_c, 2, 71, 0
4, 789840, Note_on_c, 2, 73, 100
4, 790080, Note_on_c, 2, 73, 0
4, 790080, Note_on_c, 2, 69, 100
4, 790320, Note_on_c, 2, 69, 0
4, 790320, Note_on_c, 2, 71, 100
4, 790560, Note_on_c, 2, 71, 0
4, 790560, Note_on_c, 2, 73, 100
4, 790800, Note_on_c, 2, 73, 0
4, 790800, Note_on_c, 2, 69, 100
4, 791040, Note_on_c, 2, 69, 0
4, 791040, Note_on_c, 2, 74, 100
4, 791520, Note_on_c, 2, 74, 0
4, 792000, Note_on_c, 2, 74, 100
4, 793440, Note_on_c, 2, 74, 0
4, 793920, Note_on_c, 2, 74, 100
4, 795840, Note_on_c, 2, 74, 0
4, 795840, Note_on_c, 2, 73, 100
4, 796800, Note_on_c, 2, 73, 0
4, 796800, Note_on_c, 2, 74, 100
4, 798720, Note_on_c, 2, 74, 0
4, 814080, Note_on_c, 2, 79, 100
4, 814200, Note_on_c, 2, 79, 0
4, 814200, Note_on_c, 2, 78, 100
4, 814320, Note_on_c, 2, 78, 0
4, 814320, Note_on_c, 2, 79, 100
4, 815040, Note_on_c, 2, 79, 0
4, 815040, Note_on_c, 2, 81, 100
4, 815160, Note_on_c, 2, 81, 0
4, 815160, Note_on_c, 2, 79, 100
4, 815280, Note_on_c, 2, 79, 0
4, 815280, Note_on_c, 2, 81, 100
4, 815400, Note_on_c, 2, 81, 0
4, 815400, Note_on_c, 2, 79, 100
4, 815520, Note_on_c, 2, 79, 0
4, 815520, Note_on_c, 2, 81, 100
4, 815640, Note_on_c, 2, 81, 0
4, 815640, Note_on_c, 2, 79, 100
4, 815760, Note_on_c, 2, 79, 0
4, 815760, Note_on_c, 2, 78, 100
4, 815880, Note_on_c, 2, 78, 0
4, 815880, Note_on_c, 2, 79, 100
4, 816000, Note_on_c, 2, 79, 0
4, 816000, Note_on_c, 2, 81, 100
4, 816480, Note_on_c, 2, 81, 0
4, 816480, Note_on_c, 2, 78, 100
4, 816960, Note_on_c, 2, 78, 0
4, 816960, Note_on_c, 2, 74, 100
4, 817440, Note_on_c, 2, 74, 0
4, 817440, Note_on_c, 2, 78, 100
4, 817920, Note_on_c, 2, 78, 0
4, 817920, Note_on_c, 2, 71, 100
4, 818400, Note_on_c, 2, 71, 0
4, 818400, Note_on_c, 2, 76, 100
4, 818880, Note_on_c, 2, 76, 0
4, 818880, Note_on_c, 2, 64, 100
4, 819360, Note_on_c, 2, 64, 0
4, 819360, Note_on_c, 2, 74, 100
4, 819840, Note_on_c, 2, 74, 0
4, 819840, Note_on_c, 2, 74, 100
4, 819920, Note_on_c, 2, 74, 0
4, 819920, Note_on_c, 2, 73, 100
4, 820000, Note_on_c, 2, 73, 0
4, 820000, Note_on_c, 2, 74, 100
4, 820080, Note_on_c, 2, 74, 0
4, 820080, Note_on_c, 2, 73, 100
4, 820320, Note_on_c, 2, 73, 0
4, 820320, Note_on_c, 2, 71, 100
4, 820560, Note_on_c, 2, 71, 0
4, 820560, Note_on_c, 2, 73, 100
4, 820800, Note_on_c, 2, 73, 0
4, 820800, Note_on_c, 2, 69, 100
4, 821040, Note_on_c, 2, 69, 0
4, 821040, Note_on_c, 2, 71, 100
4, 821280, Note_on_c, 2, 71, 0
4, 821280, Note_on_c, 2, 73, 100
4, 821520, Note_on_c, 2, 73, 0
4, 821520, Note_on_c, 2, 69, 100
4, 821760, Note_on_c, 2, 69, 0
4, 821760, Note_on_c, 2, 74, 100
4, 822240, Note_on_c, 2, 74, 0
4, 822720, Note_on_c, 2, 74, 100
4, 824160, Note_on_c, 2, 74, 0
4, 824640, Note_on_c, 2, 74, 100
4, 826560, Note_on_c, 2, 74, 0
4, 826560, Note_on_c, 2, 73, 100
4, 827520, Note_on_c, 2, 73, 0
4, 827520, Note_on_c, 2, 74, 100
4, 829440, Note_on_c, 2, 74, 0
4, 837120, Note_on_c, 2, 71, 100
4, 838080, Note_on_c, 2, 71, 0
4, 838080, Note_on_c, 2, 72, 100
4, 838200, Note_on_c, 2, 72, 0
4, 838200, Note_on_c, 2, 71, 100
4, 838320, Note_on_c, 2, 71, 0
4, 838320, Note_on_c, 2, 72, 100
4, 838440, Note_on_c, 2, 72, 0
4, 838440, Note_on_c, 2, 71, 100
4, 838560, Note_on_c, 2, 71, 0
4, 838560, Note_on_c, 2, 72, 100
4, 838680, Note_on_c, 2, 72, 0
4, 838680, Note_on_c, 2, 71, 100
4, 838800, Note_on_c, 2, 71, 0
4, 838800, Note_on_c, 2, 69, 100
4, 838920, Note_on_c, 2, 69, 0
4, 838920, Note_on_c, 2, 71, 100
4, 839040, Note_on_c, 2, 71, 0
4, 839040, Note_on_c, 2, 72, 100
4, 839520, Note_on_c, 2, 72, 0
4, 839520, Note_on_c, 2, 69, 100
4, 840000, Note_on_c, 2, 69, 0
4, 840000, Note_on_c, 2, 66, 100
4, 840480, Note_on_c, 2, 66, 0
4, 840480, Note_on_c, 2, 69, 100
4, 840960, Note_on_c, 2, 69, 0
4, 840960, Note_on_c, 2, 66, 100
4, 841440, Note_on_c, 2, 66, 0
4, 841440, Note_on_c, 2, 71, 100
4, 841920, Note_on_c, 2, 71, 0
4, 841920, Note_on_c, 2, 59, 100
4, 842400, Note_on_c, 2, 59, 0
4, 842400, Note_on_c, 2, 69, 100
4, 842880, Note_on_c, 2, 69, 0
4, 842880, Note_on_c, 2, 69, 100
4, 842960, Note_on_c, 2, 69, 0
4, 842960, Note_on_c, 2, 67, 100
4, 843040, Note_on_c, 2, 67, 0
4, 843040, Note_on_c, 2, 69, 100
4, 843120, Note_on_c, 2, 69, 0
4, 843120, Note_on_c, 2, 67, 100
4, 843360, Note_on_c, 2, 67, 0
4, 843360, Note_on_c, 2, 66, 100
4, 843600, Note_on_c, 2, 66, 0
4, 843600, Note_on_c, 2, 67, 100
4, 843840, Note_on_c, 2, 67, 0
4, 843840, Note_on_c, 2, 64, 100
4, 845280, Note_on_c, 2, 64, 0
4, 845760, Note_on_c, 2, 69, 100
4, 847200, Note_on_c, 2, 69, 0
4, 847200, Note_on_c, 2, 74, 100
4, 847680, Note_on_c, 2, 74, 0
4, 847680, Note_on_c, 2, 71, 100
4, 848160, Note_on_c, 2, 71, 0
4, 848160, Note_on_c, 2, 67, 100
4, 849120, Note_on_c, 2, 67, 0
4, 849120, Note_on_c, 2, 72, 100
4, 849360, Note_on_c, 2, 72, 0
4, 849360, Note_on_c, 2, 71, 100
4, 849600, Note_on_c, 2, 71, 0
4, 849600, Note_on_c, 2, 72, 100
4, 852000, Note_on_c, 2, 72, 0
4, 852000, Note_on_c, 2, 72, 100
4, 852480, Note_on_c, 2, 72, 0
4, 852480, Note_on_c, 2, 71, 100
4, 853440, Note_on_c, 2, 71, 0
4, 853920, Note_on_c, 2, 67, 100
4, 854400, Note_on_c, 2, 67, 0
4, 854400, Note_on_c, 2, 64, 100
4, 855840, Note_on_c, 2, 64, 0
4, 855840, Note_on_c, 2, 69, 100
4, 856080, Note_on_c, 2, 69, 0
4, 856080, Note_on_c, 2, 67, 100
4, 856320, Note_on_c, 2, 67, 0
4, 856320, Note_on_c, 2, 66, 100
4, 856800, Note_on_c, 2, 66, 0
4, 856800, Note_on_c, 2, 67, 100
4, 857760, Note_on_c, 2, 67, 0
4, 857760, Note_on_c, 2, 66, 100
4, 858240, Note_on_c, 2, 66, 0
4, 858240, Note_on_c, 2, 67, 100
4, 858480, Note_on_c, 2, 67, 0
4, 858480, Note_on_c, 2, 62, 100
4, 858720, Note_on_c, 2, 62, 0
4, 858720, Note_on_c, 2, 60, 100
4, 858960, Note_on_c, 2, 60, 0
4, 858960, Note_on_c, 2, 62, 100
4, 859200, Note_on_c, 2, 62, 0
4, 859200, Note_on_c, 2, 59, 100
4, 860160, Note_on_c, 2, 59, 0
4, 867840, Note_on_c, 2, 71, 100
4, 868800, Note_on_c, 2, 71, 0
4, 868800, Note_on_c, 2, 72, 100
4, 868920, Note_on_c, 2, 72, 0
4, 868920, Note_on_c, 2, 71, 100
4, 869040, Note_on_c, 2, 71, 0
4, 869040, Note_on_c, 2, 72, 100
4, 869160, Note_on_c, 2, 72, 0
4, 869160, Note_on_c, 2, 71, 100
4, 869280, Note_on_c, 2, 71, 0
4, 869280, Note_on_c, 2, 72, 100
4, 869400, Note_on_c, 2, 72, 0
4, 869400, Note_on_c, 2, 71, 100
4, 869520, Note_on_c, 2, 71, 0
4, 869520, Note_on_c, 2, 69, 100
4, 869640, Note_on_c, 2, 69, 0
4, 869640, Note_on_c, 2, 71, 100
4, 869760, Note_on_c, 2, 71, 0
4, 869760, Note_on_c, 2, 72, 100
4, 870240, Note_on_c, 2, 72, 0
4, 870240, Note_on_c, 2, 69, 100
4, 870720, Note_on_c, 2, 69, 0
4, 870720, Note_on_c, 2, 66, 100
4, 871200, Note_on_c, 2, 66, 0
4, 871200, Note_on_c, 2, 69, 100
4, 871680, Note_on_c, 2, 69, 0
4, 871680, Note_on_c, 2, 66, 100
4, 872160, Note_on_c, 2, 66, 0
4, 872160, Note_on_c, 2, 71, 100
4, 872640, Note_on_c, 2, 71, 0
4, 872640, Note_on_c, 2, 59, 100
4, 873120, Note_on_c, 2, 59, 0
4, 873120, Note_on_c, 2, 69, 100
4, 873600, Note_on_c, 2, 69, 0
4, 873600, Note_on_c, 2, 69, 100
4, 873680, Note_on_c, 2, 69, 0
4, 873680, Note_on_c, 2, 67, 100
4, 873760, Note_on_c, 2, 67, 0
4, 873760, Note_on_c, 2, 69, 100
4, 873840, Note_on_c, 2, 69, 0
4, 873840, Note_on_c, 2, 67, 100
4, 874080, Note_on_c, 2, 67, 0
4, 874080, Note_on_c, 2, 66, 100
4, 874320, Note_on_c, 2, 66, 0
4, 874320, Note_on_c, 2, 67, 100
4, 874560, Note_on_c, 2, 67, 0
4, 874560, Note_on_c, 2, 64, 100
4, 876000, Note_on_c, 2, 64, 0
4, 876480, Note_on_c, 2, 69, 100
4, 877920, Note_on_c, 2, 69, 0
4, 877920, Note_on_c, 2, 74, 100
4, 878400, Note_on_c, 2, 74, 0
4, 878400, Note_on_c, 2, 71, 100
4, 878880, Note_on_c, 2, 71, 0
4, 878880, Note_on_c, 2, 67, 100
4, 879840, Note_on_c, 2, 67, 0
4, 879840, Note_on_c, 2, 72, 100
4, 880080, Note_on_c, 2, 72, 0
4, 880080, Note_on_c, 2, 71, 100
4, 880320, Note_on_c, 2, 71, 0
4, 880320, Note_on_c, 2, 72, 100
4, 882720, Note_on_c, 2, 72, 0
4, 882720, Note_on_c, 2, 72, 100
4, 883200, Note_on_c, 2, 72, 0
4, 883200, Note_on_c, 2, 71, 100
4, 884160, Note_on_c, 2, 71, 0
4, 884640, Note_on_c, 2, 67, 100
4, 885120, Note_on_c, 2, 67, 0
4, 885120, Note_on_c, 2, 64, 100
4, 886560, Note_on_c, 2, 64, 0
4, 886560, Note_on_c, 2, 69, 100
4, 886800, Note_on_c, 2, 69, 0
4, 886800, Note_on_c, 2, 67, 100
4, 887040, Note_on_c, 2, 67, 0
4, 887040, Note_on_c, 2, 66, 100
4, 887520, Note_on_c, 2, 66, 0
4, 887520, Note_on_c, 2, 67, 100
4, 888480, Note_on_c, 2, 67, 0
4, 888480, Note_on_c, 2, 66, 100
4, 888960, Note_on_c, 2, 66, 0
4, 888960, Note_on_c, 2, 67, 100
4, 889200, Note_on_c, 2, 67, 0
4, 889200, Note_on_c, 2, 62, 100
4, 889440, Note_on_c, 2, 62, 0
4, 889440, Note_on_c, 2, 60, 100
4, 889680, Note_on_c, 2, 60, 0
4, 889680, Note_on_c, 2, 62, 100
4, 889920, Note_on_c, 2, 62, 0
4, 889920, Note_on_c, 2, 59, 100
4, 890880, Note_on_c, 2, 59, 0
4, 890880, Note_on_c, 2, 71, 100
4, 891000, Note_on_c, 2, 71, 0
4, 891000, Note_on_c, 2, 69, 100
4, 891120, Note_on_c, 2, 69, 0
4, 891120, Note_on_c, 2, 67, 100
4, 891240, Note_on_c, 2, 67, 0
4, 891240, Note_on_c, 2, 66, 100
4, 891360, Note_on_c, 2, 66, 0
4, 891360, Note_on_c, 2, 64, 100
4, 891480, Note_on_c, 2, 64, 0
4, 891480, Note_on_c, 2, 62, 100
4, 891600, Note_on_c, 2, 62, 0
4, 891600, Note_on_c, 2, 61, 100
4, 892200, Note_on_c, 2, 61, 0
4, 892200, Note_on_c, 2, 64, 100
4, 892320, Note_on_c, 2, 64, 0
4, 892320, Note_on_c, 2, 69, 100
4, 892440, Note_on_c, 2, 69, 0
4, 892440, Note_on_c, 2, 67, 100
4, 892560, Note_on_c, 2, 67, 0
4, 892560, Note_on_c, 2, 66, 100
4, 892680, Note_on_c, 2, 66, 0
4, 892680, Note_on_c, 2, 64, 100
4, 892800, Note_on_c, 2, 64, 0
4, 892800, Note_on_c, 2, 62, 100
4, 892920, Note_on_c, 2, 62, 0
4, 892920, Note_on_c, 2, 61, 100
4, 893040, Note_on_c, 2, 61, 0
4, 893040, Note_on_c, 2, 59, 100
4, 893640, Note_on_c, 2, 59, 0
4, 893640, Note_on_c, 2, 69, 100
4, 893760, Note_on_c, 2, 69, 0
4, 893760, Note_on_c, 2, 67, 100
4, 893880, Note_on_c, 2, 67, 0
4, 893880, Note_on_c, 2, 66, 100
4, 894000, Note_on_c, 2, 66, 0
4, 894000, Note_on_c, 2, 64, 100
4, 894120, Note_on_c, 2, 64, 0
4, 894120, Note_on_c, 2, 62, 100
4, 894240, Note_on_c, 2, 62, 0
4, 894240, Note_on_c, 2, 61, 100
4, 894360, Note_on_c, 2, 61, 0
4, 894360, Note_on_c, 2, 59, 100
4, 894480, Note_on_c, 2, 59, 0
4, 894480, Note_on_c, 2, 57, 100
4, 894720, Note_on_c, 2, 57, 0
4, 894720, Note_on_c, 2, 61, 100
4, 894840, Note_on_c, 2, 61, 0
4, 894840, Note_on_c, 2, 64, 100
4, 895080, Note_on_c, 2, 64, 0
4, 895080, Note_on_c, 2, 67, 100
4, 895200, Note_on_c, 2, 67, 0
4, 895200, Note_on_c, 2, 66, 100
4, 895320, Note_on_c, 2, 66, 0
4, 895320, Note_on_c, 2, 64, 100
4, 895440, Note_on_c, 2, 64, 0
4, 895440, Note_on_c, 2, 62, 100
4, 895560, Note_on_c, 2, 62, 0
4, 895560, Note_on_c, 2, 61, 100
4, 895680, Note_on_c, 2, 61, 0
4, 895680, Note_on_c, 2, 59, 100
4, 895800, Note_on_c, 2, 59, 0
4, 895800, Note_on_c, 2, 57, 100
4, 895920, Note_on_c, 2, 57, 0
4, 895920, Note_on_c, 2, 55, 100
4, 896040, Note_on_c, 2, 55, 0
4, 896040, Note_on_c, 2, 54, 100
4, 896160, Note_on_c, 2, 54, 0
4, 896160, Note_on_c, 2, 52, 100
4, 896280, Note_on_c, 2, 52, 0
4, 896280, Note_on_c, 2, 50, 100
4, 896400, Note_on_c, 2, 50, 0
4, 896400, Note_on_c, 2, 52, 100
4, 896520, Note_on_c, 2, 52, 0
4, 896520, Note_on_c, 2, 48, 100
4, 896640, Note_on_c, 2, 48, 0
4, 896640, Note_on_c, 2, 47, 100
4, 896760, Note_on_c, 2, 47, 0
4, 896760, Note_on_c, 2, 50, 100
4, 896880, Note_on_c, 2, 50, 0
4, 896880, Note_on_c, 2, 55, 100
4, 897000, Note_on_c, 2, 55, 0
4, 897000, Note_on_c, 2, 59, 100
4, 897120, Note_on_c, 2, 59, 0
4, 897120, Note_on_c, 2, 62, 100
4, 897240, Note_on_c, 2, 62, 0
4, 897240, Note_on_c, 2, 67, 100
4, 897360, Note_on_c, 2, 67, 0
4, 897360, Note_on_c, 2, 62, 100
4, 897480, Note_on_c, 2, 62, 0
4, 897480, Note_on_c, 2, 59, 100
4, 897600, Note_on_c, 2, 59, 0
4, 897600, Note_on_c, 2, 55, 100
4, 897720, Note_on_c, 2, 55, 0
4, 897720, Note_on_c, 2, 53, 100
4, 897840, Note_on_c, 2, 53, 0
4, 897840, Note_on_c, 2, 52, 100
4, 897960, Note_on_c, 2, 52, 0
4, 897960, Note_on_c, 2, 50, 100
4, 898080, Note_on_c, 2, 50, 0
4, 898080, Note_on_c, 2, 49, 100
4, 898200, Note_on_c, 2, 49, 0
4, 898200, Note_on_c, 2, 52, 100
4, 898320, Note_on_c, 2, 52, 0
4, 898320, Note_on_c, 2, 55, 100
4, 898440, Note_on_c, 2, 55, 0
4, 898440, Note_on_c, 2, 58, 100
4, 898560, Note_on_c, 2, 58, 0
4, 898560, Note_on_c, 2, 64, 100
4, 898680, Note_on_c, 2, 64, 0
4, 898680, Note_on_c, 2, 67, 100
4, 898800, Note_on_c, 2, 67, 0
4, 898800, Note_on_c, 2, 64, 100
4, 898920, Note_on_c, 2, 64, 0
4, 898920, Note_on_c, 2, 58, 100
4, 899040, Note_on_c, 2, 58, 0
4, 899040, Note_on_c, 2, 57, 100
4, 899160, Note_on_c, 2, 57, 0
4, 899160, Note_on_c, 2, 55, 100
4, 899280, Note_on_c, 2, 55, 0
4, 899280, Note_on_c, 2, 54, 100
4, 899400, Note_on_c, 2, 54, 0
4, 899400, Note_on_c, 2, 52, 100
4, 899520, Note_on_c, 2, 52, 0
4, 899520, Note_on_c, 2, 50, 100
4, 899640, Note_on_c, 2, 50, 0
4, 899640, Note_on_c, 2, 55, 100
4, 899760, Note_on_c, 2, 55, 0
4, 899760, Note_on_c, 2, 59, 100
4, 899880, Note_on_c, 2, 59, 0
4, 899880, Note_on_c, 2, 62, 100
4, 900000, Note_on_c, 2, 62, 0
4, 900000, Note_on_c, 2, 67, 100
4, 900120, Note_on_c, 2, 67, 0
4, 900120, Note_on_c, 2, 71, 100
4, 900240, Note_on_c, 2, 71, 0
4, 900240, Note_on_c, 2, 69, 100
4, 900360, Note_on_c, 2, 69, 0
4, 900360, Note_on_c, 2, 66, 100
4, 900480, Note_on_c, 2, 66, 0
4, 900480, Note_on_c, 2, 62, 100
4, 900600, Note_on_c, 2, 62, 0
4, 900600, Note_on_c, 2, 60, 100
4, 900720, Note_on_c, 2, 60, 0
4, 900720, Note_on_c, 2, 59, 100
4, 900840, Note_on_c, 2, 59, 0
4, 900840, Note_on_c, 2, 57, 100
4, 900960, Note_on_c, 2, 57, 0
4, 900960, Note_on_c, 2, 55, 100
4, 901080, Note_on_c, 2, 55, 0
4, 901080, Note_on_c, 2, 59, 100
4, 901200, Note_on_c, 2, 59, 0
4, 901200, Note_on_c, 2, 62, 100
4, 901320, Note_on_c, 2, 62, 0
4, 901320, Note_on_c, 2, 67, 100
4, 901440, Note_on_c, 2, 67, 0
4, 901440, Note_on_c, 2, 71, 100
4, 901560, Note_on_c, 2, 71, 0
4, 901560, Note_on_c, 2, 74, 100
4, 901680, Note_on_c, 2, 74, 0
4, 901680, Note_on_c, 2, 79, 100
4, 901920, Note_on_c, 2, 79, 0
4, 901920, Note_on_c, 2, 74, 100
4, 902040, Note_on_c, 2, 74, 0
4, 902040, Note_on_c, 2, 71, 100
4, 902280, Note_on_c, 2, 71, 0
4, 902280, Note_on_c, 2, 66, 100
4, 902400, Note_on_c, 2, 66, 0
4, 902400, Note_on_c, 2, 67, 100
4, 903000, Note_on_c, 2, 67, 0
4, 903000, Note_on_c, 2, 71, 100
4, 903120, Note_on_c, 2, 71, 0
4, 903120, Note_on_c, 2, 76, 100
4, 903240, Note_on_c, 2, 76, 0
4, 903240, Note_on_c, 2, 74, 100
4, 903360, Note_on_c, 2, 74, 0
4, 903360, Note_on_c, 2, 73, 100
4, 903480, Note_on_c, 2, 73, 0
4, 903480, Note_on_c, 2, 71, 100
4, 903600, Note_on_c, 2, 71, 0
4, 903600, Note_on_c, 2, 69, 100
4, 903720, Note_on_c, 2, 69, 0
4, 903720, Note_on_c, 2, 67, 100
4, 903840, Note_on_c, 2, 67, 0
4, 903840, Note_on_c, 2, 66, 100
4, 904440, Note_on_c, 2, 66, 0
4, 904440, Note_on_c, 2, 76, 100
4, 904560, Note_on_c, 2, 76, 0
4, 904560, Note_on_c, 2, 74, 100
4, 904680, Note_on_c, 2, 74, 0
4, 904680, Note_on_c, 2, 73, 100
4, 904800, Note_on_c, 2, 73, 0
4, 904800, Note_on_c, 2, 71, 100
4, 904920, Note_on_c, 2, 71, 0
4, 904920, Note_on_c, 2, 69, 100
4, 905040, Note_on_c, 2, 69, 0
4, 905040, Note_on_c, 2, 67, 100
4, 905160, Note_on_c, 2, 67, 0
4, 905160, Note_on_c, 2, 66, 100
4, 905280, Note_on_c, 2, 66, 0
4, 905280, Note_on_c, 2, 64, 100
4, 905760, Note_on_c, 2, 64, 0
4, 905760, Note_on_c, 2, 66, 100
4, 905880, Note_on_c, 2, 66, 0
4, 905880, Note_on_c, 2, 67, 100
4, 906000, Note_on_c, 2, 67, 0
4, 906000, Note_on_c, 2, 61, 100
4, 906120, Note_on_c, 2, 61, 0
4, 906120, Note_on_c, 2, 71, 100
4, 906240, Note_on_c, 2, 71, 0
4, 906240, Note_on_c, 2, 69, 100
4, 906360, Note_on_c, 2, 69, 0
4, 906360, Note_on_c, 2, 67, 100
4, 906480, Note_on_c, 2, 67, 0
4, 906480, Note_on_c, 2, 69, 100
4, 906600, Note_on_c, 2, 69, 0
4, 906600, Note_on_c, 2, 71, 100
4, 906720, Note_on_c, 2, 71, 0
4, 906720, Note_on_c, 2, 64, 100
4, 906840, Note_on_c, 2, 64, 0
4, 906840, Note_on_c, 2, 74, 100
4, 906960, Note_on_c, 2, 74, 0
4, 906960, Note_on_c, 2, 73, 100
4, 907080, Note_on_c, 2, 73, 0
4, 907080, Note_on_c, 2, 71, 100
4, 907200, Note_on_c, 2, 71, 0
4, 907200, Note_on_c, 2, 73, 100
4, 907320, Note_on_c, 2, 73, 0
4, 907320, Note_on_c, 2, 74, 100
4, 907440, Note_on_c, 2, 74, 0
4, 907440, Note_on_c, 2, 73, 100
4, 907560, Note_on_c, 2, 73, 0
4, 907560, Note_on_c, 2, 76, 100
4, 907680, Note_on_c, 2, 76, 0
4, 907680, Note_on_c, 2, 78, 100
4, 907800, Note_on_c, 2, 78, 0
4, 907800, Note_on_c, 2, 79, 100
4, 907920, Note_on_c, 2, 79, 0
4, 907920, Note_on_c, 2, 78, 100
4, 908040, Note_on_c, 2, 78, 0
4, 908040, Note_on_c, 2, 76, 100
4, 908160, Note_on_c, 2, 76, 0
4, 908160, Note_on_c, 2, 76, 100
4, 908280, Note_on_c, 2, 76, 0
4, 908280, Note_on_c, 2, 74, 100
4, 908340, Note_on_c, 2, 74, 0
4, 908340, Note_on_c, 2, 73, 100
4, 908400, Note_on_c, 2, 73, 0
4, 908400, Note_on_c, 2, 74, 100
4, 908460, Note_on_c, 2, 74, 0
4, 908460, Note_on_c, 2, 76, 100
4, 908520, Note_on_c, 2, 76, 0
4, 908520, Note_on_c, 2, 74, 100
4, 908580, Note_on_c, 2, 74, 0
4, 908580, Note_on_c, 2, 76, 100
4, 908640, Note_on_c, 2, 76, 0
4, 908640, Note_on_c, 2, 74, 100
4, 908700, Note_on_c, 2, 74, 0
4, 908700, Note_on_c, 2, 76, 100
4, 908760, Note_on_c, 2, 76, 0
4, 908760, Note_on_c, 2, 74, 100
4, 908820, Note_on_c, 2, 74, 0
4, 908820, Note_on_c, 2, 76, 100
4, 908880, Note_on_c, 2, 76, 0
4, 908880, Note_on_c, 2, 74, 100
4, 909120, Note_on_c, 2, 74, 0
4, 909120, Note_on_c, 2, 66, 100
4, 909240, Note_on_c, 2, 66, 0
4, 909240, Note_on_c, 2, 69, 100
4, 909480, Note_on_c, 2, 69, 0
4, 909480, Note_on_c, 2, 74, 100
4, 909600, Note_on_c, 2, 74, 0
4, 909600, Note_on_c, 2, 73, 100
4, 909720, Note_on_c, 2, 73, 0
4, 909720, Note_on_c, 2, 74, 100
4, 909780, Note_on_c, 2, 74, 0
4, 909780, Note_on_c, 2, 76, 100
4, 909840, Note_on_c, 2, 76, 0
4, 909840, Note_on_c, 2, 74, 100
4, 909900, Note_on_c, 2, 74, 0
4, 909900, Note_on_c, 2, 76, 100
4, 909960, Note_on_c, 2, 76, 0
4, 909960, Note_on_c, 2, 74, 100
4, 910020, Note_on_c, 2, 74, 0
4, 910020, Note_on_c, 2, 76, 100
4, 910080, Note_on_c, 2, 76, 0
4, 910080, Note_on_c, 2, 74, 100
4, 910140, Note_on_c, 2, 74, 0
4, 910140, Note_on_c, 2, 76, 100
4, 910200, Note_on_c, 2, 76, 0
4, 910200, Note_on_c, 2, 74, 100
4, 910260, Note_on_c, 2, 74, 0
4, 910260, Note_on_c, 2, 76, 100
4, 910320, Note_on_c, 2, 76, 0
4, 910320, Note_on_c, 2, 74, 100
4, 910560, Note_on_c, 2, 74, 0
4, 910560, Note_on_c, 2, 68, 100
4, 910680, Note_on_c, 2, 68, 0
4, 910680, Note_on_c, 2, 71, 100
4, 910920, Note_on_c, 2, 71, 0
4, 910920, Note_on_c, 2, 74, 100
4, 911040, Note_on_c, 2, 74, 0
4, 911040, Note_on_c, 2, 73, 100
4, 911160, Note_on_c, 2, 73, 0
4, 911160, Note_on_c, 2, 74, 100
4, 911220, Note_on_c, 2, 74, 0
4, 911220, Note_on_c, 2, 76, 100
4, 911280, Note_on_c, 2, 76, 0
4, 911280, Note_on_c, 2, 74, 100
4, 911340, Note_on_c, 2, 74, 0
4, 911340, Note_on_c, 2, 76, 100
4, 911400, Note_on_c, 2, 76, 0
4, 911400, Note_on_c, 2, 74, 100
4, 911460, Note_on_c, 2, 74, 0
4, 911460, Note_on_c, 2, 76, 100
4, 911520, Note_on_c, 2, 76, 0
4, 911520, Note_on_c, 2, 74, 100
4, 911580, Note_on_c, 2, 74, 0
4, 911580, Note_on_c, 2, 76, 100
4, 911640, Note_on_c, 2, 76, 0
4, 911640, Note_on_c, 2, 74, 100
4, 911700, Note_on_c, 2, 74, 0
4, 911700, Note_on_c, 2, 76, 100
4, 911760, Note_on_c, 2, 76, 0
4, 911760, Note_on_c, 2, 74, 100
4, 911880, Note_on_c, 2, 74, 0
4, 911880, Note_on_c, 2, 76, 100
4, 912000, Note_on_c, 2, 76, 0
4, 912000, Note_on_c, 2, 79, 100
4, 912120, Note_on_c, 2, 79, 0
4, 912120, Note_on_c, 2, 73, 100
4, 912240, Note_on_c, 2, 73, 0
4, 912240, Note_on_c, 2, 76, 100
4, 912360, Note_on_c, 2, 76, 0
4, 912360, Note_on_c, 2, 79, 100
4, 912480, Note_on_c, 2, 79, 0
4, 912480, Note_on_c, 2, 78, 100
4, 912960, Note_on_c, 2, 78, 0
4, 912960, Note_on_c, 2, 74, 100
4, 913080, Note_on_c, 2, 74, 0
4, 913080, Note_on_c, 2, 69, 100
4, 913200, Note_on_c, 2, 69, 0
4, 913200, Note_on_c, 2, 66, 100
4, 913320, Note_on_c, 2, 66, 0
4, 913320, Note_on_c, 2, 62, 100
4, 913440, Note_on_c, 2, 62, 0
4, 913440, Note_on_c, 2, 66, 100
4, 913560, Note_on_c, 2, 66, 0
4, 913560, Note_on_c, 2, 69, 100
4, 913680, Note_on_c, 2, 69, 0
4, 913680, Note_on_c, 2, 73, 100
4, 913800, Note_on_c, 2, 73, 0
4, 913800, Note_on_c, 2, 74, 100
4, 913920, Note_on_c, 2, 74, 0
4, 913920, Note_on_c, 2, 71, 100
4, 914040, Note_on_c, 2, 71, 0
4, 914040, Note_on_c, 2, 69, 100
4, 914160, Note_on_c, 2, 69, 0
4, 914160, Note_on_c, 2, 67, 100
4, 914280, Note_on_c, 2, 67, 0
4, 914280, Note_on_c, 2, 66, 100
4, 914400, Note_on_c, 2, 66, 0
4, 914400, Note_on_c, 2, 64, 100
4, 914520, Note_on_c, 2, 64, 0
4, 914520, Note_on_c, 2, 62, 100
4, 914640, Note_on_c, 2, 62, 0
4, 914640, Note_on_c, 2, 61, 100
4, 915240, Note_on_c, 2, 61, 0
4, 915240, Note_on_c, 2, 64, 100
4, 915360, Note_on_c, 2, 64, 0
4, 915360, Note_on_c, 2, 69, 100
4, 915480, Note_on_c, 2, 69, 0
4, 915480, Note_on_c, 2, 67, 100
4, 915600, Note_on_c, 2, 67, 0
4, 915600, Note_on_c, 2, 66, 100
4, 915720, Note_on_c, 2, 66, 0
4, 915720, Note_on_c, 2, 64, 100
4, 915840, Note_on_c, 2, 64, 0
4, 915840, Note_on_c, 2, 62, 100
4, 915960, Note_on_c, 2, 62, 0
4, 915960, Note_on_c, 2, 61, 100
4, 916080, Note_on_c, 2, 61, 0
4, 916080, Note_on_c, 2, 59, 100
4, 916680, Note_on_c, 2, 59, 0
4, 916680, Note_on_c, 2, 69, 100
4, 916800, Note_on_c, 2, 69, 0
4, 916800, Note_on_c, 2, 67, 100
4, 916920, Note_on_c, 2, 67, 0
4, 916920, Note_on_c, 2, 66, 100
4, 917040, Note_on_c, 2, 66, 0
4, 917040, Note_on_c, 2, 64, 100
4, 917160, Note_on_c, 2, 64, 0
4, 917160, Note_on_c, 2, 62, 100
4, 917280, Note_on_c, 2, 62, 0
4, 917280, Note_on_c, 2, 61, 100
4, 917400, Note_on_c, 2, 61, 0
4, 917400, Note_on_c, 2, 59, 100
4, 917520, Note_on_c, 2, 59, 0
4, 917520, Note_on_c, 2, 57, 100
4, 917760, Note_on_c, 2, 57, 0
4, 917760, Note_on_c, 2, 61, 100
4, 917880, Note_on_c, 2, 61, 0
4, 917880, Note_on_c, 2, 64, 100
4, 918120, Note_on_c, 2, 64, 0
4, 918120, Note_on_c, 2, 67, 100
4, 918240, Note_on_c, 2, 67, 0
4, 918240, Note_on_c, 2, 66, 100
4, 918360, Note_on_c, 2, 66, 0
4, 918360, Note_on_c, 2, 64, 100
4, 918480, Note_on_c, 2, 64, 0
4, 918480, Note_on_c, 2, 62, 100
4, 918600, Note_on_c, 2, 62, 0
4, 918600, Note_on_c, 2, 61, 100
4, 918720, Note_on_c, 2, 61, 0
4, 918720, Note_on_c, 2, 59, 100
4, 918840, Note_on_c, 2, 59, 0
4, 918840, Note_on_c, 2, 57, 100
4, 918960, Note_on_c, 2, 57, 0
4, 918960, Note_on_c, 2, 55, 100
4, 919080, Note_on_c, 2, 55, 0
4, 919080, Note_on_c, 2, 54, 100
4, 919200, Note_on_c, 2, 54, 0
4, 919200, Note_on_c, 2, 52, 100
4, 919320, Note_on_c, 2, 52, 0
4, 919320, Note_on_c, 2, 50, 100
4, 919440, Note_on_c, 2, 50, 0
4, 919440, Note_on_c, 2, 52, 100
4, 919560, Note_on_c, 2, 52, 0
4, 919560, Note_on_c, 2, 48, 100
4, 919680, Note_on_c, 2, 48, 0
4, 919680, Note_on_c, 2, 47, 100
4, 919800, Note_on_c, 2, 47, 0
4, 919800, Note_on_c, 2, 50, 100
4, 919920, Note_on_c, 2, 50, 0
4, 919920, Note_on_c, 2, 55, 100
4, 920040, Note_on_c, 2, 55, 0
4, 920040, Note_on_c, 2, 59, 100
4, 920160, Note_on_c, 2, 59, 0
4, 920160, Note_on_c, 2, 62, 100
4, 920280, Note_on_c, 2, 62, 0
4, 920280, Note_on_c, 2, 67, 100
4, 920400, Note_on_c, 2, 67, 0
4, 920400, Note_on_c, 2, 62, 100
4, 920520, Note_on_c, 2, 62, 0
4, 920520, Note_on_c, 2, 59, 100
4, 920640, Note_on_c, 2, 59, 0
4, 920640, Note_on_c, 2, 55, 100
4, 920760, Note_on_c, 2, 55, 0
4, 920760, Note_on_c, 2, 53, 100
4, 920880, Note_on_c, 2, 53, 0
4, 920880, Note_on_c, 2, 52, 100
4, 921000, Note_on_c, 2, 52, 0
4, 921000, Note_on_c, 2, 50, 100
4, 921120, Note_on_c, 2, 50, 0
4, 921120, Note_on_c, 2, 49, 100
4, 921240, Note_on_c, 2, 49, 0
4, 921240, Note_on_c, 2, 52, 100
4, 921360, Note_on_c, 2, 52, 0
4, 921360, Note_on_c, 2, 55, 100
4, 921480, Note_on_c, 2, 55, 0
4, 921480, Note_on_c, 2, 58, 100
4, 921600, Note_on_c, 2, 58, 0
4, 921600, Note_on_c, 2, 64, 100
4, 921720, Note_on_c, 2, 64, 0
4, 921720, Note_on_c, 2, 67, 100
4, 921840, Note_on_c, 2, 67, 0
4, 921840, Note_on_c, 2, 64, 100
4, 921960, Note_on_c, 2, 64, 0
4, 921960, Note_on_c, 2, 58, 100
4, 922080, Note_on_c, 2, 58, 0
4, 922080, Note_on_c, 2, 57, 100
4, 922200, Note_on_c, 2, 57, 0
4, 922200, Note_on_c, 2, 55, 100
4, 922320, Note_on_c, 2, 55, 0
4, 922320, Note_on_c, 2, 54, 100
4, 922440, Note_on_c, 2, 54, 0
4, 922440, Note_on_c, 2, 52, 100
4, 922560, Note_on_c, 2, 52, 0
4, 922560, Note_on_c, 2, 50, 100
4, 922680, Note_on_c, 2, 50, 0
4, 922680, Note_on_c, 2, 55, 100
4, 922800, Note_on_c, 2, 55, 0
4, 922800, Note_on_c, 2, 59, 100
4, 922920, Note_on_c, 2, 59, 0
4, 922920, Note_on_c, 2, 62, 100
4, 923040, Note_on_c, 2, 62, 0
4, 923040, Note_on_c, 2, 67, 100
4, 923160, Note_on_c, 2, 67, 0
4, 923160, Note_on_c, 2, 71, 100
4, 923280, Note_on_c, 2, 71, 0
4, 923280, Note_on_c, 2, 69, 100
4, 923400, Note_on_c, 2, 69, 0
4, 923400, Note_on_c, 2, 66, 100
4, 923520, Note_on_c, 2, 66, 0
4, 923520, Note_on_c, 2, 62, 100
4, 923640, Note_on_c, 2, 62, 0
4, 923640, Note_on_c, 2, 60, 100
4, 923760, Note_on_c, 2, 60, 0
4, 923760, Note_on_c, 2, 59, 100
4, 923880, Note_on_c, 2, 59, 0
4, 923880, Note_on_c, 2, 57, 100
4, 924000, Note_on_c, 2, 57, 0
4, 924000, Note_on_c, 2, 55, 100
4, 924120, Note_on_c, 2, 55, 0
4, 924120, Note_on_c, 2, 59, 100
4, 924240, Note_on_c, 2, 59, 0
4, 924240, Note_on_c, 2, 62, 100
4, 924360, Note_on_c, 2, 62, 0
4, 924360, Note_on_c, 2, 67, 100
4, 924480, Note_on_c, 2, 67, 0
4, 924480, Note_on_c, 2, 71, 100
4, 924600, Note_on_c, 2, 71, 0
4, 924600, Note_on_c, 2, 74, 100
4, 924720, Note_on_c, 2, 74, 0
4, 924720, Note_on_c, 2, 79, 100
4, 924960, Note_on_c, 2, 79, 0
4, 924960, Note_on_c, 2, 74, 100
4, 925080, Note_on_c, 2, 74, 0
4, 925080, Note_on_c, 2, 71, 100
4, 925320, Note_on_c, 2, 71, 0
4, 925320, Note_on_c, 2, 66, 100
4, 925440, Note_on_c, 2, 66, 0
4, 925440, Note_on_c, 2, 67, 100
4, 926040, Note_on_c, 2, 67, 0
4, 926040, Note_on_c, 2, 71, 100
4, 926160, Note_on_c, 2, 71, 0
4, 926160, Note_on_c, 2, 76, 100
4, 926280, Note_on_c, 2, 76, 0
4, 926280, Note_on_c, 2, 74, 100
4, 926400, Note_on_c, 2, 74, 0
4, 926400, Note_on_c, 2, 73, 100
4, 926520, Note_on_c, 2, 73, 0
4, 926520, Note_on_c, 2, 71, 100
4, 926640, Note_on_c, 2, 71, 0
4, 926640, Note_on_c, 2, 69, 100
4, 926760, Note_on_c, 2, 69, 0
4, 926760, Note_on_c, 2, 67, 100
4, 926880, Note_on_c, 2, 67, 0
4, 926880, Note_on_c, 2, 66, 100
4, 927480, Note_on_c, 2, 66, 0
4, 927480, Note_on_c, 2, 76, 100
4, 927600, Note_on_c, 2, 76, 0
4, 927600, Note_on_c, 2, 74, 100
4, 927720, Note_on_c, 2, 74, 0
4, 927720, Note_on_c, 2, 73, 100
4, 927840, Note_on_c, 2, 73, 0
4, 927840, Note_on_c, 2, 71, 100
4, 927960, Note_on_c, 2, 71, 0
4, 927960, Note_on_c, 2, 69, 100
4, 928080, Note_on_c, 2, 69, 0
4, 928080, Note_on_c, 2, 67, 100
4, 928200, Note_on_c, 2, 67, 0
4, 928200, Note_on_c, 2, 66, 100
4, 928320, Note_on_c, 2, 66, 0
4, 928320, Note_on_c, 2, 64, 100
4, 928800, Note_on_c, 2, 64, 0
4, 928800, Note_on_c, 2, 66, 100
4, 928920, Note_on_c, 2, 66, 0
4, 928920, Note_on_c, 2, 67, 100
4, 929040, Note_on_c, 2, 67, 0
4, 929040, Note_on_c, 2, 61, 100
4, 929160, Note_on_c, 2, 61, 0
4, 929160, Note_on_c, 2, 71, 100
4, 929280, Note_on_c, 2, 71, 0
4, 929280, Note_on_c, 2, 69, 100
4, 929400, Note_on_c, 2, 69, 0
4, 929400, Note_on_c, 2, 67, 100
4, 929520, Note_on_c, 2, 67, 0
4, 929520, Note_on_c, 2, 69, 100
4, 929640, Note_on_c, 2, 69, 0
4, 929640, Note_on_c, 2, 71, 100
4, 929760, Note_on_c, 2, 71, 0
4, 929760, Note_on_c, 2, 64, 100
4, 929880, Note_on_c, 2, 64, 0
4, 929880, Note_on_c, 2, 74, 100
4, 930000, Note_on_c, 2, 74, 0
4, 930000, Note_on_c, 2, 73, 100
4, 930120, Note_on_c, 2, 73, 0
4, 930120, Note_on_c, 2, 71, 100
4, 930240, Note_on_c, 2, 71, 0
4, 930240, Note_on_c, 2, 73, 100
4, 930360, Note_on_c, 2, 73, 0
4, 930360, Note_on_c, 2, 74, 100
4, 930480, Note_on_c, 2, 74, 0
4, 930480, Note_on_c, 2, 73, 100
4, 930600, Note_on_c, 2, 73, 0
4, 930600, Note_on_c, 2, 76, 100
4, 930720, Note_on_c, 2, 76, 0
4, 930720, Note_on_c, 2, 78, 100
4, 930840, Note_on_c, 2, 78, 0
4, 930840, Note_on_c, 2, 79, 100
4, 930960, Note_on_c, 2, 79, 0
4, 930960, Note_on_c, 2, 78, 100
4, 931080, Note_on_c, 2, 78, 0
4, 931080, Note_on_c, 2, 76, 100
4, 931200, Note_on_c, 2, 76, 0
4, 931200, Note_on_c, 2, 76, 100
4, 931320, Note_on_c, 2, 76, 0
4, 931320, Note_on_c, 2, 74, 100
4, 931380, Note_on_c, 2, 74, 0
4, 931380, Note_on_c, 2, 73, 100
4, 931440, Note_on_c, 2, 73, 0
4, 931440, Note_on_c, 2, 74, 100
4, 931500, Note_on_c, 2, 74, 0
4, 931500, Note_on_c, 2, 76, 100
4, 931560, Note_on_c, 2, 76, 0
4, 931560, Note_on_c, 2, 74, 100
4, 931620, Note_on_c, 2, 74, 0
4, 931620, Note_on_c, 2, 76, 100
4, 931680, Note_on_c, 2, 76, 0
4, 931680, Note_on_c, 2, 74, 100
4, 931740, Note_on_c, 2, 74, 0
4, 931740, Note_on_c, 2, 76, 100
4, 931800, Note_on_c, 2, 76, 0
4, 931800, Note_on_c, 2, 74, 100
4, 931860, Note_on_c, 2, 74, 0
4, 931860, Note_on_c, 2, 76, 100
4, 931920, Note_on_c, 2, 76, 0
4, 931920, Note_on_c, 2, 74, 100
4, 932160, Note_on_c, 2, 74, 0
4, 932160, Note_on_c, 2, 66, 100
4, 932280, Note_on_c, 2, 66, 0
4, 932280, Note_on_c, 2, 69, 100
4, 932520, Note_on_c, 2, 69, 0
4, 932520, Note_on_c, 2, 74, 100
4, 932640, Note_on_c, 2, 74, 0
4, 932640, Note_on_c, 2, 73, 100
4, 932760, Note_on_c, 2, 73, 0
4, 932760, Note_on_c, 2, 74, 100
4, 932820, Note_on_c, 2, 74, 0
4, 932820, Note_on_c, 2, 76, 100
4, 932880, Note_on_c, 2, 76, 0
4, 932880, Note_on_c, 2, 74, 100
4, 932940, Note_on_c, 2, 74, 0
4, 932940, Note_on_c, 2, 76, 100
4, 933000, Note_on_c, 2, 76, 0
4, 933000, Note_on_c, 2, 74, 100
4, 933060, Note_on_c, 2, 74, 0
4, 933060, Note_on_c, 2, 76, 100
4, 933120, Note_on_c, 2, 76, 0
4, 933120, Note_on_c, 2, 74, 100
4, 933180, Note_on_c, 2, 74, 0
4, 933180, Note_on_c, 2, 76, 100
4, 933240, Note_on_c, 2, 76, 0
4, 933240, Note_on_c, 2, 74, 100
4, 933300, Note_on_c, 2, 74, 0
4, 933300, Note_on_c, 2, 76, 100
4, 933360, Note_on_c, 2, 76, 0
4, 933360, Note_on_c, 2, 74, 100
4, 933600, Note_on_c, 2, 74, 0
4, 933600, Note_on_c, 2, 68, 100
4, 933720, Note_on_c, 2, 68, 0
4, 933720, Note_on_c, 2, 71, 100
4, 933960, Note_on_c, 2, 71, 0
4, 933960, Note_on_c, 2, 74, 100
4, 934080, Note_on_c, 2, 74, 0
4, 934080, Note_on_c, 2, 73, 100
4, 934200, Note_on_c, 2, 73, 0
4, 934200, Note_on_c, 2, 74, 100
4, 934260, Note_on_c, 2, 74, 0
4, 934260, Note_on_c, 2, 76, 100
4, 934320, Note_on_c, 2, 76, 0
4, 934320, Note_on_c, 2, 74, 100
4, 934380, Note_on_c, 2, 74, 0
4, 934380, Note_on_c, 2, 76, 100
4, 934440, Note_on_c, 2, 76, 0
4, 934440, Note_on_c, 2, 74, 100
4, 934500, Note_on_c, 2, 74, 0
4, 934500, Note_on_c, 2, 76, 100
4, 934560, Note_on_c, 2, 76, 0
4, 934560, Note_on_c, 2, 74, 100
4, 934620, Note_on_c, 2, 74, 0
4, 934620, Note_on_c, 2, 76, 100
4, 934680, Note_on_c, 2, 76, 0
4, 934680, Note_on_c, 2, 74, 100
4, 934740, Note_on_c, 2, 74, 0
4, 934740, Note_on_c, 2, 76, 100
4, 934800, Note_on_c, 2, 76, 0
4, 934800, Note_on_c, 2, 74, 100
4, 934920, Note_on_c, 2, 74, 0
4, 934920, Note_on_c, 2, 76, 100
4, 935040, Note_on_c, 2, 76, 0
4, 935040, Note_on_c, 2, 79, 100
4, 935160, Note_on_c, 2, 79, 0
4, 935160, Note_on_c, 2, 73, 100
4, 935280, Note_on_c, 2, 73, 0
4, 935280, Note_on_c, 2, 76, 100
4, 935400, Note_on_c, 2, 76, 0
4, 935400, Note_on_c, 2, 79, 100
4, 935520, Note_on_c, 2, 79, 0
4, 935520, Note_on_c, 2, 78, 100
4, 936000, Note_on_c, 2, 78, 0
4, 936000, Note_on_c, 2, 74, 100
4, 936120, Note_on_c, 2, 74, 0
4, 936120, Note_on_c, 2, 69, 100
4, 936240, Note_on_c, 2, 69, 0
4, 936240, Note_on_c, 2, 66, 100
4, 936360, Note_on_c, 2, 66, 0
4, 936360, Note_on_c, 2, 62, 100
4, 936480, Note_on_c, 2, 62, 0
4, 936480, Note_on_c, 2, 66, 100
4, 936600, Note_on_c, 2, 66, 0
4, 936600, Note_on_c, 2, 69, 100
4, 936720, Note_on_c, 2, 69, 0
4, 936720, Note_on_c, 2, 73, 100
4, 936840, Note_on_c, 2, 73, 0
4, 936840, Note_on_c, 2, 74, 100
4, 936960, Note_on_c, 2, 74, 0
4, 937680, Note_on_c, 2, 81, 100
4, 937800, Note_on_c, 2, 81, 0
4, 937800, Note_on_c, 2, 79, 100
4, 937920, Note_on_c, 2, 79, 0
4, 937920, Note_on_c, 2, 78, 100
4, 938040, Note_on_c, 2, 78, 0
4, 938040, Note_on_c, 2, 76, 100
4, 938160, Note_on_c, 2, 76, 0
4, 938160, Note_on_c, 2, 74, 100
4, 938280, Note_on_c, 2, 74, 0
4, 938280, Note_on_c, 2, 72, 100
4, 938400, Note_on_c, 2, 72, 0
4, 938400, Note_on_c, 2, 71, 100
4, 938520, Note_on_c, 2, 71, 0
4, 938520, Note_on_c, 2, 69, 100
4, 938640, Note_on_c, 2, 69, 0
4, 938640, Note_on_c, 2, 67, 100
4, 938760, Note_on_c, 2, 67, 0
4, 939120, Note_on_c, 2, 86, 100
4, 939240, Note_on_c, 2, 86, 0
4, 939240, Note_on_c, 2, 84, 100
4, 939360, Note_on_c, 2, 84, 0
4, 939360, Note_on_c, 2, 83, 100
4, 939480, Note_on_c, 2, 83, 0
4, 939480, Note_on_c, 2, 81, 100
4, 939600, Note_on_c, 2, 81, 0
4, 939600, Note_on_c, 2, 79, 100
4, 939720, Note_on_c, 2, 79, 0
4, 939720, Note_on_c, 2, 77, 100
4, 939840, Note_on_c, 2, 77, 0
4, 939840, Note_on_c, 2, 76, 100
4, 939960, Note_on_c, 2, 76, 0
4, 939960, Note_on_c, 2, 74, 100
4, 940080, Note_on_c, 2, 74, 0
4, 940080, Note_on_c, 2, 72, 100
4, 940200, Note_on_c, 2, 72, 0
4, 940200, Note_on_c, 2, 71, 100
4, 940320, Note_on_c, 2, 71, 0
4, 940320, Note_on_c, 2, 69, 100
4, 940440, Note_on_c, 2, 69, 0
4, 940440, Note_on_c, 2, 67, 100
4, 940560, Note_on_c, 2, 67, 0
4, 940560, Note_on_c, 2, 66, 100
4, 940800, Note_on_c, 2, 66, 0
4, 940800, Note_on_c, 2, 75, 100
4, 940920, Note_on_c, 2, 75, 0
4, 940920, Note_on_c, 2, 76, 100
4, 941160, Note_on_c, 2, 76, 0
4, 941160, Note_on_c, 2, 70, 100
4, 941280, Note_on_c, 2, 70, 0
4, 941280, Note_on_c, 2, 71, 100
4, 941520, Note_on_c, 2, 71, 0
4, 941520, Note_on_c, 2, 63, 100
4, 941640, Note_on_c, 2, 63, 0
4, 941640, Note_on_c, 2, 66, 100
4, 941880, Note_on_c, 2, 66, 0
4, 941880, Note_on_c, 2, 69, 100
4, 942000, Note_on_c, 2, 69, 0
4, 942000, Note_on_c, 2, 72, 100
4, 942120, Note_on_c, 2, 72, 0
4, 942120, Note_on_c, 2, 71, 100
4, 942240, Note_on_c, 2, 71, 0
4, 942240, Note_on_c, 2, 69, 100
4, 942360, Note_on_c, 2, 69, 0
4, 942360, Note_on_c, 2, 67, 100
4, 942480, Note_on_c, 2, 67, 0
4, 942480, Note_on_c, 2, 69, 100
4, 942600, Note_on_c, 2, 69, 0
4, 942600, Note_on_c, 2, 66, 100
4, 942720, Note_on_c, 2, 66, 0
4, 942720, Note_on_c, 2, 64, 100
4, 942840, Note_on_c, 2, 64, 0
4, 942840, Note_on_c, 2, 67, 100
4, 942960, Note_on_c, 2, 67, 0
4, 942960, Note_on_c, 2, 71, 100
4, 943080, Note_on_c, 2, 71, 0
4, 943080, Note_on_c, 2, 76, 100
4, 943200, Note_on_c, 2, 76, 0
4, 943200, Note_on_c, 2, 79, 100
4, 943320, Note_on_c, 2, 79, 0
4, 943320, Note_on_c, 2, 83, 100
4, 943440, Note_on_c, 2, 83, 0
4, 943440, Note_on_c, 2, 79, 100
4, 943560, Note_on_c, 2, 79, 0
4, 943560, Note_on_c, 2, 76, 100
4, 943680, Note_on_c, 2, 76, 0
4, 943680, Note_on_c, 2, 71, 100
4, 943800, Note_on_c, 2, 71, 0
4, 943800, Note_on_c, 2, 67, 100
4, 943920, Note_on_c, 2, 67, 0
4, 943920, Note_on_c, 2, 66, 100
4, 944040, Note_on_c, 2, 66, 0
4, 944040, Note_on_c, 2, 64, 100
4, 944160, Note_on_c, 2, 64, 0
4, 944160, Note_on_c, 2, 65, 100
4, 944280, Note_on_c, 2, 65, 0
4, 944280, Note_on_c, 2, 69, 100
4, 944400, Note_on_c, 2, 69, 0
4, 944400, Note_on_c, 2, 72, 100
4, 944520, Note_on_c, 2, 72, 0
4, 944520, Note_on_c, 2, 77, 100
4, 944640, Note_on_c, 2, 77, 0
4, 944640, Note_on_c, 2, 81, 100
4, 944760, Note_on_c, 2, 81, 0
4, 944760, Note_on_c, 2, 84, 100
4, 944880, Note_on_c, 2, 84, 0
4, 944880, Note_on_c, 2, 81, 100
4, 945000, Note_on_c, 2, 81, 0
4, 945000, Note_on_c, 2, 77, 100
4, 945120, Note_on_c, 2, 77, 0
4, 945120, Note_on_c, 2, 72, 100
4, 945240, Note_on_c, 2, 72, 0
4, 945240, Note_on_c, 2, 69, 100
4, 945360, Note_on_c, 2, 69, 0
4, 945360, Note_on_c, 2, 67, 100
4, 945480, Note_on_c, 2, 67, 0
4, 945480, Note_on_c, 2, 66, 100
4, 945600, Note_on_c, 2, 66, 0
4, 945600, Note_on_c, 2, 67, 100
4, 945720, Note_on_c, 2, 67, 0
4, 945720, Note_on_c, 2, 71, 100
4, 945840, Note_on_c, 2, 71, 0
4, 945840, Note_on_c, 2, 76, 100
4, 945960, Note_on_c, 2, 76, 0
4, 945960, Note_on_c, 2, 79, 100
4, 946080, Note_on_c, 2, 79, 0
4, 946080, Note_on_c, 2, 76, 100
4, 946200, Note_on_c, 2, 76, 0
4, 946200, Note_on_c, 2, 84, 100
4, 946320, Note_on_c, 2, 84, 0
4, 946320, Note_on_c, 2, 83, 100
4, 946440, Note_on_c, 2, 83, 0
4, 946440, Note_on_c, 2, 81, 100
4, 946560, Note_on_c, 2, 81, 0
4, 946560, Note_on_c, 2, 79, 100
4, 946680, Note_on_c, 2, 79, 0
4, 946680, Note_on_c, 2, 78, 100
4, 946800, Note_on_c, 2, 78, 0
4, 946800, Note_on_c, 2, 76, 100
4, 946920, Note_on_c, 2, 76, 0
4, 946920, Note_on_c, 2, 75, 100
4, 947040, Note_on_c, 2, 75, 0
4, 947040, Note_on_c, 2, 76, 100
4, 947160, Note_on_c, 2, 76, 0
4, 947160, Note_on_c, 2, 79, 100
4, 947280, Note_on_c, 2, 79, 0
4, 947280, Note_on_c, 2, 76, 100
4, 947400, Note_on_c, 2, 76, 0
4, 947400, Note_on_c, 2, 71, 100
4, 947520, Note_on_c, 2, 71, 0
4, 947520, Note_on_c, 2, 67, 100
4, 947640, Note_on_c, 2, 67, 0
4, 947640, Note_on_c, 2, 66, 100
4, 947760, Note_on_c, 2, 66, 0
4, 947760, Note_on_c, 2, 67, 100
4, 947880, Note_on_c, 2, 67, 0
4, 947880, Note_on_c, 2, 64, 100
4, 948000, Note_on_c, 2, 64, 0
4, 948000, Note_on_c, 2, 67, 100
4, 948120, Note_on_c, 2, 67, 0
4, 948120, Note_on_c, 2, 71, 100
4, 948240, Note_on_c, 2, 71, 0
4, 948240, Note_on_c, 2, 76, 100
4, 948360, Note_on_c, 2, 76, 0
4, 948360, Note_on_c, 2, 75, 100
4, 948480, Note_on_c, 2, 75, 0
4, 948480, Note_on_c, 2, 76, 100
4, 948600, Note_on_c, 2, 76, 0
4, 948600, Note_on_c, 2, 74, 100
4, 948720, Note_on_c, 2, 74, 0
4, 948720, Note_on_c, 2, 72, 100
4, 948840, Note_on_c, 2, 72, 0
4, 948840, Note_on_c, 2, 71, 100
4, 948960, Note_on_c, 2, 71, 0
4, 948960, Note_on_c, 2, 69, 100
4, 949080, Note_on_c, 2, 69, 0
4, 949080, Note_on_c, 2, 67, 100
4, 949200, Note_on_c, 2, 67, 0
4, 949200, Note_on_c, 2, 66, 100
4, 949800, Note_on_c, 2, 66, 0
4, 949800, Note_on_c, 2, 69, 100
4, 949920, Note_on_c, 2, 69, 0
4, 949920, Note_on_c, 2, 74, 100
4, 950040, Note_on_c, 2, 74, 0
4, 950040, Note_on_c, 2, 72, 100
4, 950160, Note_on_c, 2, 72, 0
4, 950160, Note_on_c, 2, 71, 100
4, 950280, Note_on_c, 2, 71, 0
4, 950280, Note_on_c, 2, 69, 100
4, 950400, Note_on_c, 2, 69, 0
4, 950400, Note_on_c, 2, 67, 100
4, 950520, Note_on_c, 2, 67, 0
4, 950520, Note_on_c, 2, 66, 100
4, 950640, Note_on_c, 2, 66, 0
4, 950640, Note_on_c, 2, 64, 100
4, 951240, Note_on_c, 2, 64, 0
4, 951240, Note_on_c, 2, 74, 100
4, 951360, Note_on_c, 2, 74, 0
4, 951360, Note_on_c, 2, 72, 100
4, 951480, Note_on_c, 2, 72, 0
4, 951480, Note_on_c, 2, 71, 100
4, 951600, Note_on_c, 2, 71, 0
4, 951600, Note_on_c, 2, 69, 100
4, 951720, Note_on_c, 2, 69, 0
4, 951720, Note_on_c, 2, 67, 100
4, 951840, Note_on_c, 2, 67, 0
4, 951840, Note_on_c, 2, 66, 100
4, 951960, Note_on_c, 2, 66, 0
4, 951960, Note_on_c, 2, 64, 100
4, 952080, Note_on_c, 2, 64, 0
4, 952080, Note_on_c, 2, 66, 100
4, 952200, Note_on_c, 2, 66, 0
4, 952200, Note_on_c, 2, 64, 100
4, 952320, Note_on_c, 2, 64, 0
4, 952320, Note_on_c, 2, 62, 100
4, 952440, Note_on_c, 2, 62, 0
4, 952440, Note_on_c, 2, 61, 100
4, 952560, Note_on_c, 2, 61, 0
4, 952560, Note_on_c, 2, 62, 100
4, 952680, Note_on_c, 2, 62, 0
4, 952680, Note_on_c, 2, 64, 100
4, 952800, Note_on_c, 2, 64, 0
4, 952800, Note_on_c, 2, 66, 100
4, 952920, Note_on_c, 2, 66, 0
4, 952920, Note_on_c, 2, 64, 100
4, 953040, Note_on_c, 2, 64, 0
4, 953040, Note_on_c, 2, 62, 100
4, 953160, Note_on_c, 2, 62, 0
4, 953160, Note_on_c, 2, 60, 100
4, 953280, Note_on_c, 2, 60, 0
4, 953280, Note_on_c, 2, 59, 100
4, 953400, Note_on_c, 2, 59, 0
4, 953400, Note_on_c, 2, 57, 100
4, 953520, Note_on_c, 2, 57, 0
4, 953520, Note_on_c, 2, 59, 100
4, 953640, Note_on_c, 2, 59, 0
4, 953640, Note_on_c, 2, 57, 100
4, 953760, Note_on_c, 2, 57, 0
4, 953760, Note_on_c, 2, 55, 100
4, 953880, Note_on_c, 2, 55, 0
4, 953880, Note_on_c, 2, 54, 100
4, 954000, Note_on_c, 2, 54, 0
4, 954000, Note_on_c, 2, 55, 100
4, 954120, Note_on_c, 2, 55, 0
4, 954120, Note_on_c, 2, 57, 100
4, 954240, Note_on_c, 2, 57, 0
4, 954240, Note_on_c, 2, 59, 100
4, 954360, Note_on_c, 2, 59, 0
4, 954360, Note_on_c, 2, 57, 100
4, 954480, Note_on_c, 2, 57, 0
4, 954480, Note_on_c, 2, 55, 100
4, 954600, Note_on_c, 2, 55, 0
4, 954600, Note_on_c, 2, 53, 100
4, 954720, Note_on_c, 2, 53, 0
4, 954720, Note_on_c, 2, 52, 100
4, 954840, Note_on_c, 2, 52, 0
4, 954840, Note_on_c, 2, 50, 100
4, 954960, Note_on_c, 2, 50, 0
4, 954960, Note_on_c, 2, 52, 100
4, 955080, Note_on_c, 2, 52, 0
4, 955080, Note_on_c, 2, 50, 100
4, 955200, Note_on_c, 2, 50, 0
4, 955200, Note_on_c, 2, 48, 100
4, 955320, Note_on_c, 2, 48, 0
4, 955320, Note_on_c, 2, 47, 100
4, 955440, Note_on_c, 2, 47, 0
4, 955440, Note_on_c, 2, 48, 100
4, 955560, Note_on_c, 2, 48, 0
4, 955560, Note_on_c, 2, 50, 100
4, 955680, Note_on_c, 2, 50, 0
4, 955680, Note_on_c, 2, 52, 100
4, 955800, Note_on_c, 2, 52, 0
4, 955800, Note_on_c, 2, 48, 100
4, 955920, Note_on_c, 2, 48, 0
4, 955920, Note_on_c, 2, 52, 100
4, 956040, Note_on_c, 2, 52, 0
4, 956040, Note_on_c, 2, 55, 100
4, 956160, Note_on_c, 2, 55, 0
4, 956160, Note_on_c, 2, 60, 100
4, 956280, Note_on_c, 2, 60, 0
4, 956280, Note_on_c, 2, 64, 100
4, 956400, Note_on_c, 2, 64, 0
4, 956400, Note_on_c, 2, 60, 100
4, 956520, Note_on_c, 2, 60, 0
4, 956520, Note_on_c, 2, 57, 100
4, 956640, Note_on_c, 2, 57, 0
4, 956640, Note_on_c, 2, 60, 100
4, 956760, Note_on_c, 2, 60, 0
4, 956760, Note_on_c, 2, 64, 100
4, 956880, Note_on_c, 2, 64, 0
4, 956880, Note_on_c, 2, 69, 100
4, 957000, Note_on_c, 2, 69, 0
4, 957000, Note_on_c, 2, 72, 100
4, 957120, Note_on_c, 2, 72, 0
4, 957120, Note_on_c, 2, 66, 100
4, 957240, Note_on_c, 2, 66, 0
4, 957240, Note_on_c, 2, 62, 100
4, 957360, Note_on_c, 2, 62, 0
4, 957360, Note_on_c, 2, 66, 100
4, 957480, Note_on_c, 2, 66, 0
4, 957480, Note_on_c, 2, 69, 100
4, 957600, Note_on_c, 2, 69, 0
4, 957600, Note_on_c, 2, 74, 100
4, 957720, Note_on_c, 2, 74, 0
4, 957720, Note_on_c, 2, 78, 100
4, 957840, Note_on_c, 2, 78, 0
4, 957840, Note_on_c, 2, 74, 100
4, 957960, Note_on_c, 2, 74, 0
4, 957960, Note_on_c, 2, 69, 100
4, 958080, Note_on_c, 2, 69, 0
4, 958080, Note_on_c, 2, 74, 100
4, 958200, Note_on_c, 2, 74, 0
4, 958200, Note_on_c, 2, 78, 100
4, 958320, Note_on_c, 2, 78, 0
4, 958320, Note_on_c, 2, 81, 100
4, 958440, Note_on_c, 2, 81, 0
4, 958440, Note_on_c, 2, 84, 100
4, 958560, Note_on_c, 2, 84, 0
4, 958560, Note_on_c, 2, 83, 100
4, 958680, Note_on_c, 2, 83, 0
4, 958680, Note_on_c, 2, 79, 100
4, 958800, Note_on_c, 2, 79, 0
4, 958800, Note_on_c, 2, 74, 100
4, 958920, Note_on_c, 2, 74, 0
4, 958920, Note_on_c, 2, 71, 100
4, 959040, Note_on_c, 2, 71, 0
4, 959040, Note_on_c, 2, 67, 100
4, 959160, Note_on_c, 2, 67, 0
4, 959160, Note_on_c, 2, 66, 100
4, 959280, Note_on_c, 2, 66, 0
4, 959280, Note_on_c, 2, 67, 100
4, 959400, Note_on_c, 2, 67, 0
4, 959400, Note_on_c, 2, 71, 100
4, 959520, Note_on_c, 2, 71, 0
4, 959520, Note_on_c, 2, 74, 100
4, 959640, Note_on_c, 2, 74, 0
4, 959640, Note_on_c, 2, 79, 100
4, 960000, Note_on_c, 2, 79, 0
4, 960720, Note_on_c, 2, 81, 100
4, 960840, Note_on_c, 2, 81, 0
4, 960840, Note_on_c, 2, 79, 100
4, 960960, Note_on_c, 2, 79, 0
4, 960960, Note_on_c, 2, 78, 100
4, 961080, Note_on_c, 2, 78, 0
4, 961080, Note_on_c, 2, 76, 100
4, 961200, Note_on_c, 2, 76, 0
4, 961200, Note_on_c, 2, 74, 100
4, 961320, Note_on_c, 2, 74, 0
4, 961320, Note_on_c, 2, 72, 100
4, 961440, Note_on_c, 2, 72, 0
4, 961440, Note_on_c, 2, 71, 100
4, 961560, Note_on_c, 2, 71, 0
4, 961560, Note_on_c, 2, 69, 100
4, 961680, Note_on_c, 2, 69, 0
4, 961680, Note_on_c, 2, 67, 100
4, 961800, Note_on_c, 2, 67, 0
4, 962160, Note_on_c, 2, 86, 100
4, 962280, Note_on_c, 2, 86, 0
4, 962280, Note_on_c, 2, 84, 100
4, 962400, Note_on_c, 2, 84, 0
4, 962400, Note_on_c, 2, 83, 100
4, 962520, Note_on_c, 2, 83, 0
4, 962520, Note_on_c, 2, 81, 100
4, 962640, Note_on_c, 2, 81, 0
4, 962640, Note_on_c, 2, 79, 100
4, 962760, Note_on_c, 2, 79, 0
4, 962760, Note_on_c, 2, 77, 100
4, 962880, Note_on_c, 2, 77, 0
4, 962880, Note_on_c, 2, 76, 100
4, 963000, Note_on_c, 2, 76, 0
4, 963000, Note_on_c, 2, 74, 100
4, 963120, Note_on_c, 2, 74, 0
4, 963120, Note_on_c, 2, 72, 100
4, 963240, Note_on_c, 2, 72, 0
4, 963240, Note_on_c, 2, 71, 100
4, 963360, Note_on_c, 2, 71, 0
4, 963360, Note_on_c, 2, 69, 100
4, 963480, Note_on_c, 2, 69, 0
4, 963480, Note_on_c, 2, 67, 100
4, 963600, Note_on_c, 2, 67, 0
4, 963600, Note_on_c, 2, 66, 100
4, 963840, Note_on_c, 2, 66, 0
4, 963840, Note_on_c, 2, 75, 100
4, 963960, Note_on_c, 2, 75, 0
4, 963960, Note_on_c, 2, 76, 100
4, 964200, Note_on_c, 2, 76, 0
4, 964200, Note_on_c, 2, 70, 100
4, 964320, Note_on_c, 2, 70, 0
4, 964320, Note_on_c, 2, 71, 100
4, 964560, Note_on_c, 2, 71, 0
4, 964560, Note_on_c, 2, 63, 100
4, 964680, Note_on_c, 2, 63, 0
4, 964680, Note_on_c, 2, 66, 100
4, 964920, Note_on_c, 2, 66, 0
4, 964920, Note_on_c, 2, 69, 100
4, 965040, Note_on_c, 2, 69, 0
4, 965040, Note_on_c, 2, 72, 100
4, 965160, Note_on_c, 2, 72, 0
4, 965160, Note_on_c, 2, 71, 100
4, 965280, Note_on_c, 2, 71, 0
4, 965280, Note_on_c, 2, 69, 100
4, 965400, Note_on_c, 2, 69, 0
4, 965400, Note_on_c, 2, 67, 100
4, 965520, Note_on_c, 2, 67, 0
4, 965520, Note_on_c, 2, 69, 100
4, 965640, Note_on_c, 2, 69, 0
4, 965640, Note_on_c, 2, 66, 100
4, 965760, Note_on_c, 2, 66, 0
4, 965760, Note_on_c, 2, 64, 100
4, 965880, Note_on_c, 2, 64, 0
4, 965880, Note_on_c, 2, 67, 100
4, 966000, Note_on_c, 2, 67, 0
4, 966000, Note_on_c, 2, 71, 100
4, 966120, Note_on_c, 2, 71, 0
4, 966120, Note_on_c, 2, 76, 100
4, 966240, Note_on_c, 2, 76, 0
4, 966240, Note_on_c, 2, 79, 100
4, 966360, Note_on_c, 2, 79, 0
4, 966360, Note_on_c, 2, 83, 100
4, 966480, Note_on_c, 2, 83, 0
4, 966480, Note_on_c, 2, 79, 100
4, 966600, Note_on_c, 2, 79, 0
4, 966600, Note_on_c, 2, 76, 100
4, 966720, Note_on_c, 2, 76, 0
4, 966720, Note_on_c, 2, 71, 100
4, 966840, Note_on_c, 2, 71, 0
4, 966840, Note_on_c, 2, 67, 100
4, 966960, Note_on_c, 2, 67, 0
4, 966960, Note_on_c, 2, 66, 100
4, 967080, Note_on_c, 2, 66, 0
4, 967080, Note_on_c, 2, 64, 100
4, 967200, Note_on_c, 2, 64, 0
4, 967200, Note_on_c, 2, 65, 100
4, 967320, Note_on_c, 2, 65, 0
4, 967320, Note_on_c, 2, 69, 100
4, 967440, Note_on_c, 2, 69, 0
4, 967440, Note_on_c, 2, 72, 100
4, 967560, Note_on_c, 2, 72, 0
4, 967560, Note_on_c, 2, 77, 100
4, 967680, Note_on_c, 2, 77, 0
4, 967680, Note_on_c, 2, 81, 100
4, 967800, Note_on_c, 2, 81, 0
4, 967800, Note_on_c, 2, 84, 100
4, 967920, Note_on_c, 2, 84, 0
4, 967920, Note_on_c, 2, 81, 100
4, 968040, Note_on_c, 2, 81, 0
4, 968040, Note_on_c, 2, 77, 100
4, 968160, Note_on_c, 2, 77, 0
4, 968160, Note_on_c, 2, 72, 100
4, 968280, Note_on_c, 2, 72, 0
4, 968280, Note_on_c, 2, 69, 100
4, 968400, Note_on_c, 2, 69, 0
4, 968400, Note_on_c, 2, 67, 100
4, 968520, Note_on_c, 2, 67, 0
4, 968520, Note_on_c, 2, 66, 100
4, 968640, Note_on_c, 2, 66, 0
4, 968640, Note_on_c, 2, 67, 100
4, 968760, Note_on_c, 2, 67, 0
4, 968760, Note_on_c, 2, 71, 100
4, 968880, Note_on_c, 2, 71, 0
4, 968880, Note_on_c, 2, 76, 100
4, 969000, Note_on_c, 2, 76, 0
4, 969000, Note_on_c, 2, 79, 100
4, 969120, Note_on_c, 2, 79, 0
4, 969120, Note_on_c, 2, 76, 100
4, 969240, Note_on_c, 2, 76, 0
4, 969240, Note_on_c, 2, 84, 100
4, 969360, Note_on_c, 2, 84, 0
4, 969360, Note_on_c, 2, 83, 100
4, 969480, Note_on_c, 2, 83, 0
4, 969480, Note_on_c, 2, 81, 100
4, 969600, Note_on_c, 2, 81, 0
4, 969600, Note_on_c, 2, 79, 100
4, 969720, Note_on_c, 2, 79, 0
4, 969720, Note_on_c, 2, 78, 100
4, 969840, Note_on_c, 2, 78, 0
4, 969840, Note_on_c, 2, 76, 100
4, 969960, Note_on_c, 2, 76, 0
4, 969960, Note_on_c, 2, 75, 100
4, 970080, Note_on_c, 2, 75, 0
4, 970080, Note_on_c, 2, 76, 100
4, 970200, Note_on_c, 2, 76, 0
4, 970200, Note_on_c, 2, 79, 100
4, 970320, Note_on_c, 2, 79, 0
4, 970320, Note_on_c, 2, 76, 100
4, 970440, Note_on_c, 2, 76, 0
4, 970440, Note_on_c, 2, 71, 100
4, 970560, Note_on_c, 2, 71, 0
4, 970560, Note_on_c, 2, 67, 100
4, 970680, Note_on_c, 2, 67, 0
4, 970680, Note_on_c, 2, 66, 100
4, 970800, Note_on_c, 2, 66, 0
4, 970800, Note_on_c, 2, 67, 100
4, 970920, Note_on_c, 2, 67, 0
4, 970920, Note_on_c, 2, 64, 100
4, 971040, Note_on_c, 2, 64, 0
4, 971040, Note_on_c, 2, 67, 100
4, 971160, Note_on_c, 2, 67, 0
4, 971160, Note_on_c, 2, 71, 100
4, 971280, Note_on_c, 2, 71, 0
4, 971280, Note_on_c, 2, 76, 100
4, 971400, Note_on_c, 2, 76, 0
4, 971400, Note_on_c, 2, 75, 100
4, 971520, Note_on_c, 2, 75, 0
4, 971520, Note_on_c, 2, 76, 100
4, 971640, Note_on_c, 2, 76, 0
4, 971640, Note_on_c, 2, 74, 100
4, 971760, Note_on_c, 2, 74, 0
4, 971760, Note_on_c, 2, 72, 100
4, 971880, Note_on_c, 2, 72, 0
4, 971880, Note_on_c, 2, 71, 100
4, 972000, Note_on_c, 2, 71, 0
4, 972000, Note_on_c, 2, 69, 100
4, 972120, Note_on_c, 2, 69, 0
4, 972120, Note_on_c, 2, 67, 100
4, 972240, Note_on_c, 2, 67, 0
4, 972240, Note_on_c, 2, 66, 100
4, 972840, Note_on_c, 2, 66, 0
4, 972840, Note_on_c, 2, 69, 100
4, 972960, Note_on_c, 2, 69, 0
4, 972960, Note_on_c, 2, 74, 100
4, 973080, Note_on_c, 2, 74, 0
4, 973080, Note_on_c, 2, 72, 100
4, 973200, Note_on_c, 2, 72, 0
4, 973200, Note_on_c, 2, 71, 100
4, 973320, Note_on_c, 2, 71, 0
4, 973320, Note_on_c, 2, 69, 100
4, 973440, Note_on_c, 2, 69, 0
4, 973440, Note_on_c, 2, 67, 100
4, 973560, Note_on_c, 2, 67, 0
4, 973560, Note_on_c, 2, 66, 100
4, 973680, Note_on_c, 2, 66, 0
4, 973680, Note_on_c, 2, 64, 100
4, 974280, Note_on_c, 2, 64, 0
4, 974280, Note_on_c, 2, 74, 100
4, 974400, Note_on_c, 2, 74, 0
4, 974400, Note_on_c, 2, 72, 100
4, 974520, Note_on_c, 2, 72, 0
4, 974520, Note_on_c, 2, 71, 100
4, 974640, Note_on_c, 2, 71, 0
4, 974640, Note_on_c, 2, 69, 100
4, 974760, Note_on_c, 2, 69, 0
4, 974760, Note_on_c, 2, 67, 100
4, 974880, Note_on_c, 2, 67, 0
4, 974880, Note_on_c, 2, 66, 100
4, 975000, Note_on_c, 2, 66, 0
4, 975000, Note_on_c, 2, 64, 100
4, 975120, Note_on_c, 2, 64, 0
4, 975120, Note_on_c, 2, 66, 100
4, 975240, Note_on_c, 2, 66, 0
4, 975240, Note_on_c, 2, 64, 100
4, 975360, Note_on_c, 2, 64, 0
4, 975360, Note_on_c, 2, 62, 100
4, 975480, Note_on_c, 2, 62, 0
4, 975480, Note_on_c, 2, 61, 100
4, 975600, Note_on_c, 2, 61, 0
4, 975600, Note_on_c, 2, 62, 100
4, 975720, Note_on_c, 2, 62, 0
4, 975720, Note_on_c, 2, 64, 100
4, 975840, Note_on_c, 2, 64, 0
4, 975840, Note_on_c, 2, 66, 100
4, 975960, Note_on_c, 2, 66, 0
4, 975960, Note_on_c, 2, 64, 100
4, 976080, Note_on_c, 2, 64, 0
4, 976080, Note_on_c, 2, 62, 100
4, 976200, Note_on_c, 2, 62, 0
4, 976200, Note_on_c, 2, 60, 100
4, 976320, Note_on_c, 2, 60, 0
4, 976320, Note_on_c, 2, 59, 100
4, 976440, Note_on_c, 2, 59, 0
4, 976440, Note_on_c, 2, 57, 100
4, 976560, Note_on_c, 2, 57, 0
4, 976560, Note_on_c, 2, 59, 100
4, 976680, Note_on_c, 2, 59, 0
4, 976680, Note_on_c, 2, 57, 100
4, 976800, Note_on_c, 2, 57, 0
4, 976800, Note_on_c, 2, 55, 100
4, 976920, Note_on_c, 2, 55, 0
4, 976920, Note_on_c, 2, 54, 100
4, 977040, Note_on_c, 2, 54, 0
4, 977040, Note_on_c, 2, 55, 100
4, 977160, Note_on_c, 2, 55, 0
4, 977160, Note_on_c, 2, 57, 100
4, 977280, Note_on_c, 2, 57, 0
4, 977280, Note_on_c, 2, 59, 100
4, 977400, Note_on_c, 2, 59, 0
4, 977400, Note_on_c, 2, 57, 100
4, 977520, Note_on_c, 2, 57, 0
4, 977520, Note_on_c, 2, 55, 100
4, 977640, Note_on_c, 2, 55, 0
4, 977640, Note_on_c, 2, 53, 100
4, 977760, Note_on_c, 2, 53, 0
4, 977760, Note_on_c, 2, 52, 100
4, 977880, Note_on_c, 2, 52, 0
4, 977880, Note_on_c, 2, 50, 100
4, 978000, Note_on_c, 2, 50, 0
4, 978000, Note_on_c, 2, 52, 100
4, 978120, Note_on_c, 2, 52, 0
4, 978120, Note_on_c, 2, 50, 100
4, 978240, Note_on_c, 2, 50, 0
4, 978240, Note_on_c, 2, 48, 100
4, 978360, Note_on_c, 2, 48, 0
4, 978360, Note_on_c, 2, 47, 100
4, 978480, Note_on_c, 2, 47, 0
4, 978480, Note_on_c, 2, 48, 100
4, 978600, Note_on_c, 2, 48, 0
4, 978600, Note_on_c, 2, 50, 100
4, 978720, Note_on_c, 2, 50, 0
4, 978720, Note_on_c, 2, 52, 100
4, 978840, Note_on_c, 2, 52, 0
4, 978840, Note_on_c, 2, 48, 100
4, 978960, Note_on_c, 2, 48, 0
4, 978960, Note_on_c, 2, 52, 100
4, 979080, Note_on_c, 2, 52, 0
4, 979080, Note_on_c, 2, 55, 100
4, 979200, Note_on_c, 2, 55, 0
4, 979200, Note_on_c, 2, 60, 100
4, 979320, Note_on_c, 2, 60, 0
4, 979320, Note_on_c, 2, 64, 100
4, 979440, Note_on_c, 2, 64, 0
4, 979440, Note_on_c, 2, 60, 100
4, 979560, Note_on_c, 2, 60, 0
4, 979560, Note_on_c, 2, 57, 100
4, 979680, Note_on_c, 2, 57, 0
4, 979680, Note_on_c, 2, 60, 100
4, 979800, Note_on_c, 2, 60, 0
4, 979800, Note_on_c, 2, 64, 100
4, 979920, Note_on_c, 2, 64, 0
4, 979920, Note_on_c, 2, 69, 100
4, 980040, Note_on_c, 2, 69, 0
4, 980040, Note_on_c, 2, 72, 100
4, 980160, Note_on_c, 2, 72, 0
4, 980160, Note_on_c, 2, 66, 100
4, 980280, Note_on_c, 2, 66, 0
4, 980280, Note_on_c, 2, 62, 100
4, 980400, Note_on_c, 2, 62, 0
4, 980400, Note_on_c, 2, 66, 100
4, 980520, Note_on_c, 2, 66, 0
4, 980520, Note_on_c, 2, 69, 100
4, 980640, Note_on_c, 2, 69, 0
4, 980640, Note_on_c, 2, 74, 100
4, 980760, Note_on_c, 2, 74, 0
4, 980760, Note_on_c, 2, 78, 100
4, 980880, Note_on_c, 2, 78, 0
4, 980880, Note_on_c, 2, 74, 100
4, 981000, Note_on_c, 2, 74, 0
4, 981000, Note_on_c, 2, 69, 100
4, 981120, Note_on_c, 2, 69, 0
4, 981120, Note_on_c, 2, 74, 100
4, 981240, Note_on_c, 2, 74, 0
4, 981240, Note_on_c, 2, 78, 100
4, 981360, Note_on_c, 2, 78, 0
4, 981360, Note_on_c, 2, 81, 100
4, 981480, Note_on_c, 2, 81, 0
4, 981480, Note_on_c, 2, 84, 100
4, 981600, Note_on_c, 2, 84, 0
4, 981600, Note_on_c, 2, 83, 100
4, 981720, Note_on_c, 2, 83, 0
4, 981720, Note_on_c, 2, 79, 100
4, 981840, Note_on_c, 2, 79, 0
4, 981840, Note_on_c, 2, 74, 100
4, 981960, Note_on_c, 2, 74, 0
4, 981960, Note_on_c, 2, 71, 100
4, 982080, Note_on_c, 2, 71, 0
4, 982080, Note_on_c, 2, 67, 100
4, 982200, Note_on_c, 2, 67, 0
4, 982200, Note_on_c, 2, 66, 100
4, 982320, Note_on_c, 2, 66, 0
4, 982320, Note_on_c, 2, 67, 100
4, 982440, Note_on_c, 2, 67, 0
4, 982440, Note_on_c, 2, 71, 100
4, 982560, Note_on_c, 2, 71, 0
4, 982560, Note_on_c, 2, 74, 100
4, 982680, Note_on_c, 2, 74, 0
4, 982680, Note_on_c, 2, 79, 100
4, 983040, Note_on_c, 2, 79, 0
4, 1167360, Note_on_c, 2, 43, 100
4, 1167420, Note_on_c, 2, 43, 0
4, 1167420, Note_on_c, 2, 42, 100
4, 1167480, Note_on_c, 2, 42, 0
4, 1167480, Note_on_c, 2, 43, 100
4, 1167600, Note_on_c, 2, 43, 0
4, 1167840, Note_on_c, 2, 78, 100
4, 1167900, Note_on_c, 2, 78, 0
4, 1167900, Note_on_c, 2, 79, 100
4, 1167960, Note_on_c, 2, 79, 0
4, 1167960, Note_on_c, 2, 81, 100
4, 1168020, Note_on_c, 2, 81, 0
4, 1168020, Note_on_c, 2, 79, 100
4, 1168080, Note_on_c, 2, 79, 0
4, 1168080, Note_on_c, 2, 81, 100
4, 1168140, Note_on_c, 2, 81, 0
4, 1168140, Note_on_c, 2, 79, 100
4, 1168200, Note_on_c, 2, 79, 0
4, 1168200, Note_on_c, 2, 81, 100
4, 1168260, Note_on_c, 2, 81, 0
4, 1168260, Note_on_c, 2, 79, 100
4, 1168320, Note_on_c, 2, 79, 0
4, 1168320, Note_on_c, 2, 81, 100
4, 1168380, Note_on_c, 2, 81, 0
4, 1168380, Note_on_c, 2, 79, 100
4, 1168440, Note_on_c, 2, 79, 0
4, 1168440, Note_on_c, 2, 81, 100
4, 1168500, Note_on_c, 2, 81, 0
4, 1168500, Note_on_c, 2, 79, 100
4, 1168560, Note_on_c, 2, 79, 0
4, 1168560, Note_on_c, 2, 81, 100
4, 1168620, Note_on_c, 2, 81, 0
4, 1168620, Note_on_c, 2, 79, 100
4, 1168680, Note_on_c, 2, 79, 0
4, 1168680, Note_on_c, 2, 78, 100
4, 1168740, Note_on_c, 2, 78, 0
4, 1168740, Note_on_c, 2, 79, 100
4, 1168800, Note_on_c, 2, 79, 0
4, 1168800, Note_on_c, 2, 81, 100
4, 1169040, Note_on_c, 2, 81, 0
4, 1169280, Note_on_c, 2, 54, 100
4, 1169340, Note_on_c, 2, 54, 0
4, 1169340, Note_on_c, 2, 52, 100
4, 1169400, Note_on_c, 2, 52, 0
4, 1169400, Note_on_c, 2, 54, 100
4, 1169880, Note_on_c, 2, 54, 0
4, 1169880, Note_on_c, 2, 57, 100
4, 1170000, Note_on_c, 2, 57, 0
4, 1170000, Note_on_c, 2, 55, 100
4, 1170120, Note_on_c, 2, 55, 0
4, 1170120, Note_on_c, 2, 54, 100
4, 1170240, Note_on_c, 2, 54, 0
4, 1170240, Note_on_c, 2, 52, 100
4, 1170480, Note_on_c, 2, 52, 0
4, 1170720, Note_on_c, 2, 76, 100
4, 1170960, Note_on_c, 2, 76, 0
4, 1170960, Note_on_c, 2, 74, 100
4, 1171200, Note_on_c, 2, 74, 0
4, 1171200, Note_on_c, 2, 73, 100
4, 1171440, Note_on_c, 2, 73, 0
4, 1171440, Note_on_c, 2, 74, 100
4, 1171560, Note_on_c, 2, 74, 0
4, 1171560, Note_on_c, 2, 76, 100
4, 1171680, Note_on_c, 2, 76, 0
4, 1171680, Note_on_c, 2, 66, 100
4, 1171920, Note_on_c, 2, 66, 0
4, 1172160, Note_on_c, 2, 50, 100
4, 1172220, Note_on_c, 2, 50, 0
4, 1172220, Note_on_c, 2, 48, 100
4, 1172280, Note_on_c, 2, 48, 0
4, 1172280, Note_on_c, 2, 50, 100
4, 1172340, Note_on_c, 2, 50, 0
4, 1172340, Note_on_c, 2, 48, 100
4, 1172400, Note_on_c, 2, 48, 0
4, 1172400, Note_on_c, 2, 50, 100
4, 1172460, Note_on_c, 2, 50, 0
4, 1172460, Note_on_c, 2, 48, 100
4, 1172520, Note_on_c, 2, 48, 0
4, 1172520, Note_on_c, 2, 50, 100
4, 1172580, Note_on_c, 2, 50, 0
4, 1172580, Note_on_c, 2, 48, 100
4, 1172640, Note_on_c, 2, 48, 0
4, 1172640, Note_on_c, 2, 50, 100
4, 1172700, Note_on_c, 2, 50, 0
4, 1172700, Note_on_c, 2, 48, 100
4, 1172760, Note_on_c, 2, 48, 0
4, 1172760, Note_on_c, 2, 50, 100
4, 1172820, Note_on_c, 2, 50, 0
4, 1172820, Note_on_c, 2, 48, 100
4, 1172880, Note_on_c, 2, 48, 0
4, 1172880, Note_on_c, 2, 50, 100
4, 1172940, Note_on_c, 2, 50, 0
4, 1172940, Note_on_c, 2, 48, 100
4, 1173000, Note_on_c, 2, 48, 0
4, 1173000, Note_on_c, 2, 47, 100
4, 1173060, Note_on_c, 2, 47, 0
4, 1173060, Note_on_c, 2, 48, 100
4, 1173120, Note_on_c, 2, 48, 0
4, 1173120, Note_on_c, 2, 47, 100
4, 1173360, Note_on_c, 2, 47, 0
4, 1173360, Note_on_c, 2, 43, 100
4, 1173600, Note_on_c, 2, 43, 0
4, 1173600, Note_on_c, 2, 47, 100
4, 1173840, Note_on_c, 2, 47, 0
4, 1173840, Note_on_c, 2, 50, 100
4, 1174080, Note_on_c, 2, 50, 0
4, 1174080, Note_on_c, 2, 55, 100
4, 1174320, Note_on_c, 2, 55, 0
4, 1174320, Note_on_c, 2, 47, 100
4, 1174560, Note_on_c, 2, 47, 0
4, 1174560, Note_on_c, 2, 48, 100
4, 1174800, Note_on_c, 2, 48, 0
4, 1174800, Note_on_c, 2, 52, 100
4, 1175040, Note_on_c, 2, 52, 0
4, 1175040, Note_on_c, 2, 55, 100
4, 1175280, Note_on_c, 2, 55, 0
4, 1175280, Note_on_c, 2, 60, 100
4, 1175520, Note_on_c, 2, 60, 0
4, 1175520, Note_on_c, 2, 52, 100
4, 1175760, Note_on_c, 2, 52, 0
4, 1175760, Note_on_c, 2, 55, 100
4, 1176000, Note_on_c, 2, 55, 0
4, 1176000, Note_on_c, 2, 54, 100
4, 1176240, Note_on_c, 2, 54, 0
4, 1176240, Note_on_c, 2, 57, 100
4, 1176480, Note_on_c, 2, 57, 0
4, 1176480, Note_on_c, 2, 50, 100
4, 1176720, Note_on_c, 2, 50, 0
4, 1176720, Note_on_c, 2, 54, 100
4, 1176960, Note_on_c, 2, 54, 0
4, 1176960, Note_on_c, 2, 57, 100
4, 1177200, Note_on_c, 2, 57, 0
4, 1177200, Note_on_c, 2, 60, 100
4, 1177440, Note_on_c, 2, 60, 0
4, 1177440, Note_on_c, 2, 59, 100
4, 1177680, Note_on_c, 2, 59, 0
4, 1177680, Note_on_c, 2, 55, 100
4, 1177920, Note_on_c, 2, 55, 0
4, 1177920, Note_on_c, 2, 59, 100
4, 1178160, Note_on_c, 2, 59, 0
4, 1178160, Note_on_c, 2, 62, 100
4, 1178400, Note_on_c, 2, 62, 0
4, 1178400, Note_on_c, 2, 67, 100
4, 1178640, Note_on_c, 2, 67, 0
4, 1179000, Note_on_c, 2, 83, 100
4, 1179060, Note_on_c, 2, 83, 0
4, 1179060, Note_on_c, 2, 81, 100
4, 1179120, Note_on_c, 2, 81, 0
4, 1179120, Note_on_c, 2, 83, 100
4, 1179240, Note_on_c, 2, 83, 0
4, 1179480, Note_on_c, 2, 76, 100
4, 1179540, Note_on_c, 2, 76, 0
4, 1179540, Note_on_c, 2, 74, 100
4, 1179600, Note_on_c, 2, 74, 0
4, 1179600, Note_on_c, 2, 76, 100
4, 1179720, Note_on_c, 2, 76, 0
4, 1179960, Note_on_c, 2, 69, 100
4, 1180020, Note_on_c, 2, 69, 0
4, 1180020, Note_on_c, 2, 67, 100
4, 1180080, Note_on_c, 2, 67, 0
4, 1180080, Note_on_c, 2, 69, 100
4, 1180200, Note_on_c, 2, 69, 0
4, 1180440, Note_on_c, 2, 81, 100
4, 1180500, Note_on_c, 2, 81, 0
4, 1180500, Note_on_c, 2, 79, 100
4, 1180560, Note_on_c, 2, 79, 0
4, 1180560, Note_on_c, 2, 81, 100
4, 1180680, Note_on_c, 2, 81, 0
4, 1180920, Note_on_c, 2, 74, 100
4, 1180980, Note_on_c, 2, 74, 0
4, 1180980, Note_on_c, 2, 73, 100
4, 1181040, Note_on_c, 2, 73, 0
4, 1181040, Note_on_c, 2, 74, 100
4, 1181160, Note_on_c, 2, 74, 0
4, 1181400, Note_on_c, 2, 67, 100
4, 1181460, Note_on_c, 2, 67, 0
4, 1181460, Note_on_c, 2, 66, 100
4, 1181520, Note_on_c, 2, 66, 0
4, 1181520, Note_on_c, 2, 67, 100
4, 1181640, Note_on_c, 2, 67, 0
4, 1181880, Note_on_c, 2, 79, 100
4, 1181940, Note_on_c, 2, 79, 0
4, 1181940, Note_on_c, 2, 78, 100
4, 1182000, Note_on_c, 2, 78, 0
4, 1182000, Note_on_c, 2, 79, 100
4, 1182120, Note_on_c, 2, 79, 0
4, 1182360, Note_on_c, 2, 71, 100
4, 1182420, Note_on_c, 2, 71, 0
4, 1182420, Note_on_c, 2, 69, 100
4, 1182480, Note_on_c, 2, 69, 0
4, 1182480, Note_on_c, 2, 71, 100
4, 1182600, Note_on_c, 2, 71, 0
4, 1182840, Note_on_c, 2, 64, 100
4, 1182900, Note_on_c, 2, 64, 0
4, 1182900, Note_on_c, 2, 62, 100
4, 1182960, Note_on_c, 2, 62, 0
4, 1182960, Note_on_c, 2, 64, 100
4, 1183080, Note_on_c, 2, 64, 0
4, 1183320, Note_on_c, 2, 55, 100
4, 1183380, Note_on_c, 2, 55, 0
4, 1183380, Note_on_c, 2, 54, 100
4, 1183440, Note_on_c, 2, 54, 0
4, 1183440, Note_on_c, 2, 55, 100
4, 1183560, Note_on_c, 2, 55, 0
4, 1183800, Note_on_c, 2, 49, 100
4, 1183860, Note_on_c, 2, 49, 0
4, 1183860, Note_on_c, 2, 47, 100
4, 1183920, Note_on_c, 2, 47, 0
4, 1183920, Note_on_c, 2, 49, 100
4, 1184040, Note_on_c, 2, 49, 0
4, 1184280, Note_on_c, 2, 43, 100
4, 1184340, Note_on_c, 2, 43, 0
4, 1184340, Note_on_c, 2, 42, 100
4, 1184400, Note_on_c, 2, 42, 0
4, 1184400, Note_on_c, 2, 43, 100
4, 1184520, Note_on_c, 2, 43, 0
4, 1184700, Note_on_c, 2, 62, 100
4, 1184760, Note_on_c, 2, 62, 0
4, 1184760, Note_on_c, 2, 64, 100
4, 1184820, Note_on_c, 2, 64, 0
4, 1184820, Note_on_c, 2, 66, 100
4, 1184880, Note_on_c, 2, 66, 0
4, 1184880, Note_on_c, 2, 69, 100
4, 1184940, Note_on_c, 2, 69, 0
4, 1184940, Note_on_c, 2, 66, 100
4, 1185000, Note_on_c, 2, 66, 0
4, 1185000, Note_on_c, 2, 64, 100
4, 1185060, Note_on_c, 2, 64, 0
4, 1185060, Note_on_c, 2, 62, 100
4, 1185120, Note_on_c, 2, 62, 0
4, 1185180, Note_on_c, 2, 62, 100
4, 1185240, Note_on_c, 2, 62, 0
4, 1185240, Note_on_c, 2, 64, 100
4, 1185300, Note_on_c, 2, 64, 0
4, 1185300, Note_on_c, 2, 66, 100
4, 1185360, Note_on_c, 2, 66, 0
4, 1185360, Note_on_c, 2, 69, 100
4, 1185420, Note_on_c, 2, 69, 0
4, 1185420, Note_on_c, 2, 66, 100
4, 1185480, Note_on_c, 2, 66, 0
4, 1185480, Note_on_c, 2, 64, 100
4, 1185540, Note_on_c, 2, 64, 0
4, 1185540, Note_on_c, 2, 62, 100
4, 1185600, Note_on_c, 2, 62, 0
4, 1185660, Note_on_c, 2, 62, 100
4, 1185720, Note_on_c, 2, 62, 0
4, 1185720, Note_on_c, 2, 64, 100
4, 1185780, Note_on_c, 2, 64, 0
4, 1185780, Note_on_c, 2, 66, 100
4, 1185840, Note_on_c, 2, 66, 0
4, 1185840, Note_on_c, 2, 69, 100
4, 1185900, Note_on_c, 2, 69, 0
4, 1185900, Note_on_c, 2, 66, 100
4, 1185960, Note_on_c, 2, 66, 0
4, 1185960, Note_on_c, 2, 64, 100
4, 1186020, Note_on_c, 2, 64, 0
4, 1186020, Note_on_c, 2, 62, 100
4, 1186080, Note_on_c, 2, 62, 0
4, 1186080, Note_on_c, 2, 71, 100
4, 1186320, Note_on_c, 2, 71, 0
4, 1186560, Note_on_c, 2, 53, 100
4, 1186800, Note_on_c, 2, 53, 0
4, 1187040, Note_on_c, 2, 52, 100
4, 1187280, Note_on_c, 2, 52, 0
4, 1187640, Note_on_c, 2, 64, 100
4, 1187700, Note_on_c, 2, 64, 0
4, 1187700, Note_on_c, 2, 62, 100
4, 1187760, Note_on_c, 2, 62, 0
4, 1187760, Note_on_c, 2, 64, 100
4, 1187880, Note_on_c, 2, 64, 0
4, 1187880, Note_on_c, 2, 69, 100
4, 1187940, Note_on_c, 2, 69, 0
4, 1187940, Note_on_c, 2, 67, 100
4, 1188000, Note_on_c, 2, 67, 0
4, 1188000, Note_on_c, 2, 69, 100
4, 1188120, Note_on_c, 2, 69, 0
4, 1188120, Note_on_c, 2, 62, 100
4, 1188180, Note_on_c, 2, 62, 0
4, 1188180, Note_on_c, 2, 61, 100
4, 1188240, Note_on_c, 2, 61, 0
4, 1188240, Note_on_c, 2, 62, 100
4, 1188360, Note_on_c, 2, 62, 0
4, 1188360, Note_on_c, 2, 67, 100
4, 1188420, Note_on_c, 2, 67, 0
4, 1188420, Note_on_c, 2, 66, 100
4, 1188480, Note_on_c, 2, 66, 0
4, 1188480, Note_on_c, 2, 67, 100
4, 1188600, Note_on_c, 2, 67, 0
4, 1188600, Note_on_c, 2, 61, 100
4, 1188660, Note_on_c, 2, 61, 0
4, 1188660, Note_on_c, 2, 59, 100
4, 1188720, Note_on_c, 2, 59, 0
4, 1188720, Note_on_c, 2, 61, 100
4, 1188840, Note_on_c, 2, 61, 0
4, 1188840, Note_on_c, 2, 66, 100
4, 1188900, Note_on_c, 2, 66, 0
4, 1188900, Note_on_c, 2, 64, 100
4, 1188960, Note_on_c, 2, 64, 0
4, 1188960, Note_on_c, 2, 66, 100
4, 1189080, Note_on_c, 2, 66, 0
4, 1189080, Note_on_c, 2, 62, 100
4, 1189200, Note_on_c, 2, 62, 0
4, 1189200, Note_on_c, 2, 61, 100
4, 1189320, Note_on_c, 2, 61, 0
4, 1189320, Note_on_c, 2, 62, 100
4, 1189440, Note_on_c, 2, 62, 0
4, 1189440, Note_on_c, 2, 66, 100
4, 1189500, Note_on_c, 2, 66, 0
4, 1189500, Note_on_c, 2, 64, 100
4, 1189560, Note_on_c, 2, 64, 0
4, 1189560, Note_on_c, 2, 62, 100
4, 1189680, Note_on_c, 2, 62, 0
4, 1189680, Note_on_c, 2, 69, 100
4, 1189740, Note_on_c, 2, 69, 0
4, 1189740, Note_on_c, 2, 67, 100
4, 1189800, Note_on_c, 2, 67, 0
4, 1189800, Note_on_c, 2, 66, 100
4, 1189920, Note_on_c, 2, 66, 0
4, 1189920, Note_on_c, 2, 74, 100
4, 1190160, Note_on_c, 2, 74, 0
4, 1190400, Note_on_c, 2, 43, 100
4, 1190460, Note_on_c, 2, 43, 0
4, 1190460, Note_on_c, 2, 42, 100
4, 1190520, Note_on_c, 2, 42, 0
4, 1190520, Note_on_c, 2, 43, 100
4, 1190640, Note_on_c, 2, 43, 0
4, 1190880, Note_on_c, 2, 78, 100
4, 1190940, Note_on_c, 2, 78, 0
4, 1190940, Note_on_c, 2, 79, 100
4, 1191000, Note_on_c, 2, 79, 0
4, 1191000, Note_on_c, 2, 81, 100
4, 1191060, Note_on_c, 2, 81, 0
4, 1191060, Note_on_c, 2, 79, 100
4, 1191120, Note_on_c, 2, 79, 0
4, 1191120, Note_on_c, 2, 81, 100
4, 1191180, Note_on_c, 2, 81, 0
4, 1191180, Note_on_c, 2, 79, 100
4, 1191240, Note_on_c, 2, 79, 0
4, 1191240, Note_on_c, 2, 81, 100
4, 1191300, Note_on_c, 2, 81, 0
4, 1191300, Note_on_c, 2, 79, 100
4, 1191360, Note_on_c, 2, 79, 0
4, 1191360, Note_on_c, 2, 81, 100
4, 1191420, Note_on_c, 2, 81, 0
4, 1191420, Note_on_c, 2, 79, 100
4, 1191480, Note_on_c, 2, 79, 0
4, 1191480, Note_on_c, 2, 81, 100
4, 1191540, Note_on_c, 2, 81, 0
4, 1191540, Note_on_c, 2, 79, 100
4, 1191600, Note_on_c, 2, 79, 0
4, 1191600, Note_on_c, 2, 81, 100
4, 1191660, Note_on_c, 2, 81, 0
4, 1191660, Note_on_c, 2, 79, 100
4, 1191720, Note_on_c, 2, 79, 0
4, 1191720, Note_on_c, 2, 78, 100
4, 1191780, Note_on_c, 2, 78, 0
4, 1191780, Note_on_c, 2, 79, 100
4, 1191840, Note_on_c, 2, 79, 0
4, 1191840, Note_on_c, 2, 81, 100
4, 1192080, Note_on_c, 2, 81, 0
4, 1192320, Note_on_c, 2, 54, 100
4, 1192380, Note_on_c, 2, 54, 0
4, 1192380, Note_on_c, 2, 52, 100
4, 1192440, Note_on_c, 2, 52, 0
4, 1192440, Note_on_c, 2, 54, 100
4, 1192920, Note_on_c, 2, 54, 0
4, 1192920, Note_on_c, 2, 57, 100
4, 1193040, Note_on_c, 2, 57, 0
4, 1193040, Note_on_c, 2, 55, 100
4, 1193160, Note_on_c, 2, 55, 0
4, 1193160, Note_on_c, 2, 54, 100
4, 1193280, Note_on_c, 2, 54, 0
4, 1193280, Note_on_c, 2, 52, 100
4, 1193520, Note_on_c, 2, 52, 0
4, 1193760, Note_on_c, 2, 76, 100
4, 1194000, Note_on_c, 2, 76, 0
4, 1194000, Note_on_c, 2, 74, 100
4, 1194240, Note_on_c, 2, 74, 0
4, 1194240, Note_on_c, 2, 73, 100
4, 1194480, Note_on_c, 2, 73, 0
4, 1194480, Note_on_c, 2, 74, 100
4, 1194600, Note_on_c, 2, 74, 0
4, 1194600, Note_on_c, 2, 76, 100
4, 1194720, Note_on_c, 2, 76, 0
4, 1194720, Note_on_c, 2, 66, 100
4, 1194960, Note_on_c, 2, 66, 0
4, 1195200, Note_on_c, 2, 50, 100
4, 1195260, Note_on_c, 2, 50, 0
4, 1195260, Note_on_c, 2, 48, 100
4, 1195320, Note_on_c, 2, 48, 0
4, 1195320, Note_on_c, 2, 50, 100
4, 1195380, Note_on_c, 2, 50, 0
4, 1195380, Note_on_c, 2, 48, 100
4, 1195440, Note_on_c, 2, 48, 0
4, 1195440, Note_on_c, 2, 50, 100
4, 1195500, Note_on_c, 2, 50, 0
4, 1195500, Note_on_c, 2, 48, 100
4, 1195560, Note_on_c, 2, 48, 0
4, 1195560, Note_on_c, 2, 50, 100
4, 1195620, Note_on_c, 2, 50, 0
4, 1195620, Note_on_c, 2, 48, 100
4, 1195680, Note_on_c, 2, 48, 0
4, 1195680, Note_on_c, 2, 50, 100
4, 1195740, Note_on_c, 2, 50, 0
4, 1195740, Note_on_c, 2, 48, 100
4, 1195800, Note_on_c, 2, 48, 0
4, 1195800, Note_on_c, 2, 50, 100
4, 1195860, Note_on_c, 2, 50, 0
4, 1195860, Note_on_c, 2, 48, 100
4, 1195920, Note_on_c, 2, 48, 0
4, 1195920, Note_on_c, 2, 50, 100
4, 1195980, Note_on_c, 2, 50, 0
4, 1195980, Note_on_c, 2, 48, 100
4, 1196040, Note_on_c, 2, 48, 0
4, 1196040, Note_on_c, 2, 47, 100
4, 1196100, Note_on_c, 2, 47, 0
4, 1196100, Note_on_c, 2, 48, 100
4, 1196160, Note_on_c, 2, 48, 0
4, 1196160, Note_on_c, 2, 47, 100
4, 1196400, Note_on_c, 2, 47, 0
4, 1196400, Note_on_c, 2, 43, 100
4, 1196640, Note_on_c, 2, 43, 0
4, 1196640, Note_on_c, 2, 47, 100
4, 1196880, Note_on_c, 2, 47, 0
4, 1196880, Note_on_c, 2, 50, 100
4, 1197120, Note_on_c, 2, 50, 0
4, 1197120, Note_on_c, 2, 55, 100
4, 1197360, Note_on_c, 2, 55, 0
4, 1197360, Note_on_c, 2, 47, 100
4, 1197600, Note_on_c, 2, 47, 0
4, 1197600, Note_on_c, 2, 48, 100
4, 1197840, Note_on_c, 2, 48, 0
4, 1197840, Note_on_c, 2, 52, 100
4, 1198080, Note_on_c, 2, 52, 0
4, 1198080, Note_on_c, 2, 55, 100
4, 1198320, Note_on_c, 2, 55, 0
4, 1198320, Note_on_c, 2, 60, 100
4, 1198560, Note_on_c, 2, 60, 0
4, 1198560, Note_on_c, 2, 52, 100
4, 1198800, Note_on_c, 2, 52, 0
4, 1198800, Note_on_c, 2, 55, 100
4, 1199040, Note_on_c, 2, 55, 0
4, 1199040, Note_on_c, 2, 54, 100
4, 1199280, Note_on_c, 2, 54, 0
4, 1199280, Note_on_c, 2, 57, 100
4, 1199520, Note_on_c, 2, 57, 0
4, 1199520, Note_on_c, 2, 50, 100
4, 1199760, Note_on_c, 2, 50, 0
4, 1199760, Note_on_c, 2, 54, 100
4, 1200000, Note_on_c, 2, 54, 0
4, 1200000, Note_on_c, 2, 57, 100
4, 1200240, Note_on_c, 2, 57, 0
4, 1200240, Note_on_c, 2, 60, 100
4, 1200480, Note_on_c, 2, 60, 0
4, 1200480, Note_on_c, 2, 59, 100
4, 1200720, Note_on_c, 2, 59, 0
4, 1200720, Note_on_c, 2, 55, 100
4, 1200960, Note_on_c, 2, 55, 0
4, 1200960, Note_on_c, 2, 59, 100
4, 1201200, Note_on_c, 2, 59, 0
4, 1201200, Note_on_c, 2, 62, 100
4, 1201440, Note_on_c, 2, 62, 0
4, 1201440, Note_on_c, 2, 67, 100
4, 1201680, Note_on_c, 2, 67, 0
4, 1202040, Note_on_c, 2, 83, 100
4, 1202100, Note_on_c, 2, 83, 0
4, 1202100, Note_on_c, 2, 81, 100
4, 1202160, Note_on_c, 2, 81, 0
4, 1202160, Note_on_c, 2, 83, 100
4, 1202280, Note_on_c, 2, 83, 0
4, 1202520, Note_on_c, 2, 76, 100
4, 1202580, Note_on_c, 2, 76, 0
4, 1202580, Note_on_c, 2, 74, 100
4, 1202640, Note_on_c, 2, 74, 0
4, 1202640, Note_on_c, 2, 76, 100
4, 1202760, Note_on_c, 2, 76, 0
4, 1203000, Note_on_c, 2, 69, 100
4, 1203060, Note_on_c, 2, 69, 0
4, 1203060, Note_on_c, 2, 67, 100
4, 1203120, Note_on_c, 2, 67, 0
4, 1203120, Note_on_c, 2, 69, 100
4, 1203240, Note_on_c, 2, 69, 0
4, 1203480, Note_on_c, 2, 81, 100
4, 1203540, Note_on_c, 2, 81, 0
4, 1203540, Note_on_c, 2, 79, 100
4, 1203600, Note_on_c, 2, 79, 0
4, 1203600, Note_on_c, 2, 81, 100
4, 1203720, Note_on_c, 2, 81, 0
4, 1203960, Note_on_c, 2, 74, 100
4, 1204020, Note_on_c, 2, 74, 0
4, 1204020, Note_on_c, 2, 73, 100
4, 1204080, Note_on_c, 2, 73, 0
4, 1204080, Note_on_c, 2, 74, 100
4, 1204200, Note_on_c, 2, 74, 0
4, 1204440, Note_on_c, 2, 67, 100
4, 1204500, Note_on_c, 2, 67, 0
4, 1204500, Note_on_c, 2, 66, 100
4, 1204560, Note_on_c, 2, 66, 0
4, 1204560, Note_on_c, 2, 67, 100
4, 1204680, Note_on_c, 2, 67, 0
4, 1204920, Note_on_c, 2, 79, 100
4, 1204980, Note_on_c, 2, 79, 0
4, 1204980, Note_on_c, 2, 78, 100
4, 1205040, Note_on_c, 2, 78, 0
4, 1205040, Note_on_c, 2, 79, 100
4, 1205160, Note_on_c, 2, 79, 0
4, 1205400, Note_on_c, 2, 71, 100
4, 1205460, Note_on_c, 2, 71, 0
4, 1205460, Note_on_c, 2, 69, 100
4, 1205520, Note_on_c, 2, 69, 0
4, 1205520, Note_on_c, 2, 71, 100
4, 1205640, Note_on_c, 2, 71, 0
4, 1205880, Note_on_c, 2, 64, 100
4, 1205940, Note_on_c, 2, 64, 0
4, 1205940, Note_on_c, 2, 62, 100
4, 1206000, Note_on_c, 2, 62, 0
4, 1206000, Note_on_c, 2, 64, 100
4, 1206120, Note_on_c, 2, 64, 0
4, 1206360, Note_on_c, 2, 55, 100
4, 1206420, Note_on_c, 2, 55, 0
4, 1206420, Note_on_c, 2, 54, 100
4, 1206480, Note_on_c, 2, 54, 0
4, 1206480, Note_on_c, 2, 55, 100
4, 1206600, Note_on_c, 2, 55, 0
4, 1206840, Note_on_c, 2, 49, 100
4, 1206900, Note_on_c, 2, 49, 0
4, 1206900, Note_on_c, 2, 47, 100
4, 1206960, Note_on_c, 2, 47, 0
4, 1206960, Note_on_c, 2, 49, 100
4, 1207080, Note_on_c, 2, 49, 0
4, 1207320, Note_on_c, 2, 43, 100
4, 1207380, Note_on_c, 2, 43, 0
4, 1207380, Note_on_c, 2, 42, 100
4, 1207440, Note_on_c, 2, 42, 0
4, 1207440, Note_on_c, 2, 43, 100
4, 1207560, Note_on_c, 2, 43, 0
4, 1207740, Note_on_c, 2, 62, 100
4, 1207800, Note_on_c, 2, 62, 0
4, 1207800, Note_on_c, 2, 64, 100
4, 1207860, Note_on_c, 2, 64, 0
4, 1207860, Note_on_c, 2, 66, 100
4, 1207920, Note_on_c, 2, 66, 0
4, 1207920, Note_on_c, 2, 69, 100
4, 1207980, Note_on_c, 2, 69, 0
4, 1207980, Note_on_c, 2, 66, 100
4, 1208040, Note_on_c, 2, 66, 0
4, 1208040, Note_on_c, 2, 64, 100
4, 1208100, Note_on_c, 2, 64, 0
4, 1208100, Note_on_c, 2, 62, 100
4, 1208160, Note_on_c, 2, 62, 0
4, 1208220, Note_on_c, 2, 62, 100
4, 1208280, Note_on_c, 2, 62, 0
4, 1208280, Note_on_c, 2, 64, 100
4, 1208340, Note_on_c, 2, 64, 0
4, 1208340, Note_on_c, 2, 66, 100
4, 1208400, Note_on_c, 2, 66, 0
4, 1208400, Note_on_c, 2, 69, 100
4, 1208460, Note_on_c, 2, 69, 0
4, 1208460, Note_on_c, 2, 66, 100
4, 1208520, Note_on_c, 2, 66, 0
4, 1208520, Note_on_c, 2, 64, 100
4, 1208580, Note_on_c, 2, 64, 0
4, 1208580, Note_on_c, 2, 62, 100
4, 1208640, Note_on_c, 2, 62, 0
4, 1208700, Note_on_c, 2, 62, 100
4, 1208760, Note_on_c, 2, 62, 0
4, 1208760, Note_on_c, 2, 64, 100
4, 1208820, Note_on_c, 2, 64, 0
4, 1208820, Note_on_c, 2, 66, 100
4, 1208880, Note_on_c, 2, 66, 0
4, 1208880, Note_on_c, 2, 69, 100
4, 1208940, Note_on_c, 2, 69, 0
4, 1208940, Note_on_c, 2, 66, 100
4, 1209000, Note_on_c, 2, 66, 0
4, 1209000, Note_on_c, 2, 64, 100
4, 1209060, Note_on_c, 2, 64, 0
4, 1209060, Note_on_c, 2, 62, 100
4, 1209120, Note_on_c, 2, 62, 0
4, 1209120, Note_on_c, 2, 71, 100
4, 1209360, Note_on_c, 2, 71, 0
4, 1209600, Note_on_c, 2, 53, 100
4, 1209840, Note_on_c, 2, 53, 0
4, 1210080, Note_on_c, 2, 52, 100
4, 1210320, Note_on_c, 2, 52, 0
4, 1210680, Note_on_c, 2, 64, 100
4, 1210740, Note_on_c, 2, 64, 0
4, 1210740, Note_on_c, 2, 62, 100
4, 1210800, Note_on_c, 2, 62, 0
4, 1210800, Note_on_c, 2, 64, 100
4, 1210920, Note_on_c, 2, 64, 0
4, 1210920, Note_on_c, 2, 69, 100
4, 1210980, Note_on_c, 2, 69, 0
4, 1210980, Note_on_c, 2, 67, 100
4, 1211040, Note_on_c, 2, 67, 0
4, 1211040, Note_on_c, 2, 69, 100
4, 1211160, Note_on_c, 2, 69, 0
4, 1211160, Note_on_c, 2, 62, 100
4, 1211220, Note_on_c, 2, 62, 0
4, 1211220, Note_on_c, 2, 61, 100
4, 1211280, Note_on_c, 2, 61, 0
4, 1211280, Note_on_c, 2, 62, 100
4, 1211400, Note_on_c, 2, 62, 0
4, 1211400, Note_on_c, 2, 67, 100
4, 1211460, Note_on_c, 2, 67, 0
4, 1211460, Note_on_c, 2, 66, 100
4, 1211520, Note_on_c, 2, 66, 0
4, 1211520, Note_on_c, 2, 67, 100
4, 1211640, Note_on_c, 2, 67, 0
4, 1211640, Note_on_c, 2, 61, 100
4, 1211700, Note_on_c, 2, 61, 0
4, 1211700, Note_on_c, 2, 59, 100
4, 1211760, Note_on_c, 2, 59, 0
4, 1211760, Note_on_c, 2, 61, 100
4, 1211880, Note_on_c, 2, 61, 0
4, 1211880, Note_on_c, 2, 66, 100
4, 1211940, Note_on_c, 2, 66, 0
4, 1211940, Note_on_c, 2, 64, 100
4, 1212000, Note_on_c, 2, 64, 0
4, 1212000, Note_on_c, 2, 66, 100
4, 1212120, Note_on_c, 2, 66, 0
4, 1212120, Note_on_c, 2, 62, 100
4, 1212240, Note_on_c, 2, 62, 0
4, 1212240, Note_on_c, 2, 61, 100
4, 1212360, Note_on_c, 2, 61, 0
4, 1212360, Note_on_c, 2, 62, 100
4, 1212480, Note_on_c, 2, 62, 0
4, 1212480, Note_on_c, 2, 66, 100
4, 1212540, Note_on_c, 2, 66, 0
4, 1212540, Note_on_c, 2, 64, 100
4, 1212600, Note_on_c, 2, 64, 0
4, 1212600, Note_on_c, 2, 62, 100
4, 1212720, Note_on_c, 2, 62, 0
4, 1212720, Note_on_c, 2, 69, 100
4, 1212780, Note_on_c, 2, 69, 0
4, 1212780, Note_on_c, 2, 67, 100
4, 1212840, Note_on_c, 2, 67, 0
4, 1212840, Note_on_c, 2, 66, 100
4, 1212960, Note_on_c, 2, 66, 0
4, 1212960, Note_on_c, 2, 74, 100
4, 1213200, Note_on_c, 2, 74, 0
4, 1213440, Note_on_c, 2, 78, 100
4, 1213560, Note_on_c, 2, 78, 0
4, 1213560, Note_on_c, 2, 81, 100
4, 1213680, Note_on_c, 2, 81, 0
4, 1213680, Note_on_c, 2, 86, 100
4, 1213800, Note_on_c, 2, 86, 0
4, 1213800, Note_on_c, 2, 81, 100
4, 1213920, Note_on_c, 2, 81, 0
4, 1213920, Note_on_c, 2, 78, 100
4, 1214040, Note_on_c, 2, 78, 0
4, 1214040, Note_on_c, 2, 81, 100
4, 1214160, Note_on_c, 2, 81, 0
4, 1214160, Note_on_c, 2, 74, 100
4, 1214280, Note_on_c, 2, 74, 0
4, 1214280, Note_on_c, 2, 78, 100
4, 1214400, Note_on_c, 2, 78, 0
4, 1214400, Note_on_c, 2, 81, 100
4, 1214520, Note_on_c, 2, 81, 0
4, 1214520, Note_on_c, 2, 78, 100
4, 1214640, Note_on_c, 2, 78, 0
4, 1214640, Note_on_c, 2, 79, 100
4, 1214760, Note_on_c, 2, 79, 0
4, 1214760, Note_on_c, 2, 81, 100
4, 1214880, Note_on_c, 2, 81, 0
4, 1214880, Note_on_c, 2, 74, 100
4, 1215000, Note_on_c, 2, 74, 0
4, 1215000, Note_on_c, 2, 79, 100
4, 1215120, Note_on_c, 2, 79, 0
4, 1215120, Note_on_c, 2, 83, 100
4, 1215240, Note_on_c, 2, 83, 0
4, 1215240, Note_on_c, 2, 79, 100
4, 1215360, Note_on_c, 2, 79, 0
4, 1215360, Note_on_c, 2, 74, 100
4, 1215480, Note_on_c, 2, 74, 0
4, 1215480, Note_on_c, 2, 79, 100
4, 1215600, Note_on_c, 2, 79, 0
4, 1215600, Note_on_c, 2, 71, 100
4, 1215720, Note_on_c, 2, 71, 0
4, 1215720, Note_on_c, 2, 74, 100
4, 1215840, Note_on_c, 2, 74, 0
4, 1215840, Note_on_c, 2, 79, 100
4, 1215960, Note_on_c, 2, 79, 0
4, 1215960, Note_on_c, 2, 71, 100
4, 1216080, Note_on_c, 2, 71, 0
4, 1216080, Note_on_c, 2, 72, 100
4, 1216200, Note_on_c, 2, 72, 0
4, 1216200, Note_on_c, 2, 74, 100
4, 1216320, Note_on_c, 2, 74, 0
4, 1216320, Note_on_c, 2, 67, 100
4, 1216440, Note_on_c, 2, 67, 0
4, 1216440, Note_on_c, 2, 72, 100
4, 1216560, Note_on_c, 2, 72, 0
4, 1216560, Note_on_c, 2, 76, 100
4, 1216680, Note_on_c, 2, 76, 0
4, 1216680, Note_on_c, 2, 72, 100
4, 1216800, Note_on_c, 2, 72, 0
4, 1216800, Note_on_c, 2, 69, 100
4, 1216920, Note_on_c, 2, 69, 0
4, 1216920, Note_on_c, 2, 72, 100
4, 1217040, Note_on_c, 2, 72, 0
4, 1217040, Note_on_c, 2, 66, 100
4, 1217160, Note_on_c, 2, 66, 0
4, 1217160, Note_on_c, 2, 69, 100
4, 1217280, Note_on_c, 2, 69, 0
4, 1217280, Note_on_c, 2, 72, 100
4, 1217400, Note_on_c, 2, 72, 0
4, 1217400, Note_on_c, 2, 66, 100
4, 1217520, Note_on_c, 2, 66, 0
4, 1217520, Note_on_c, 2, 67, 100
4, 1217640, Note_on_c, 2, 67, 0
4, 1217640, Note_on_c, 2, 69, 100
4, 1217760, Note_on_c, 2, 69, 0
4, 1217760, Note_on_c, 2, 63, 100
4, 1217880, Note_on_c, 2, 63, 0
4, 1217880, Note_on_c, 2, 66, 100
4, 1218000, Note_on_c, 2, 66, 0
4, 1218000, Note_on_c, 2, 71, 100
4, 1218120, Note_on_c, 2, 71, 0
4, 1218120, Note_on_c, 2, 66, 100
4, 1218240, Note_on_c, 2, 66, 0
4, 1218240, Note_on_c, 2, 63, 100
4, 1218360, Note_on_c, 2, 63, 0
4, 1218360, Note_on_c, 2, 66, 100
4, 1218480, Note_on_c, 2, 66, 0
4, 1218480, Note_on_c, 2, 59, 100
4, 1218600, Note_on_c, 2, 59, 0
4, 1218600, Note_on_c, 2, 63, 100
4, 1218720, Note_on_c, 2, 63, 0
4, 1218720, Note_on_c, 2, 66, 100
4, 1218840, Note_on_c, 2, 66, 0
4, 1218840, Note_on_c, 2, 63, 100
4, 1218960, Note_on_c, 2, 63, 0
4, 1218960, Note_on_c, 2, 64, 100
4, 1219080, Note_on_c, 2, 64, 0
4, 1219080, Note_on_c, 2, 66, 100
4, 1219200, Note_on_c, 2, 66, 0
4, 1219200, Note_on_c, 2, 59, 100
4, 1219320, Note_on_c, 2, 59, 0
4, 1219320, Note_on_c, 2, 64, 100
4, 1219440, Note_on_c, 2, 64, 0
4, 1219440, Note_on_c, 2, 67, 100
4, 1219560, Note_on_c, 2, 67, 0
4, 1219560, Note_on_c, 2, 64, 100
4, 1219680, Note_on_c, 2, 64, 0
4, 1219680, Note_on_c, 2, 59, 100
4, 1219800, Note_on_c, 2, 59, 0
4, 1219800, Note_on_c, 2, 64, 100
4, 1219920, Note_on_c, 2, 64, 0
4, 1219920, Note_on_c, 2, 55, 100
4, 1220040, Note_on_c, 2, 55, 0
4, 1220040, Note_on_c, 2, 59, 100
4, 1220160, Note_on_c, 2, 59, 0
4, 1220160, Note_on_c, 2, 64, 100
4, 1220280, Note_on_c, 2, 64, 0
4, 1220280, Note_on_c, 2, 63, 100
4, 1220400, Note_on_c, 2, 63, 0
4, 1220400, Note_on_c, 2, 64, 100
4, 1220520, Note_on_c, 2, 64, 0
4, 1220520, Note_on_c, 2, 67, 100
4, 1220640, Note_on_c, 2, 67, 0
4, 1220640, Note_on_c, 2, 60, 100
4, 1220760, Note_on_c, 2, 60, 0
4, 1220760, Note_on_c, 2, 65, 100
4, 1220880, Note_on_c, 2, 65, 0
4, 1220880, Note_on_c, 2, 69, 100
4, 1221000, Note_on_c, 2, 69, 0
4, 1221000, Note_on_c, 2, 65, 100
4, 1221120, Note_on_c, 2, 65, 0
4, 1221120, Note_on_c, 2, 60, 100
4, 1221240, Note_on_c, 2, 60, 0
4, 1221240, Note_on_c, 2, 65, 100
4, 1221360, Note_on_c, 2, 65, 0
4, 1221360, Note_on_c, 2, 57, 100
4, 1221480, Note_on_c, 2, 57, 0
4, 1221480, Note_on_c, 2, 60, 100
4, 1221600, Note_on_c, 2, 60, 0
4, 1221600, Note_on_c, 2, 65, 100
4, 1221720, Note_on_c, 2, 65, 0
4, 1221720, Note_on_c, 2, 64, 100
4, 1221840, Note_on_c, 2, 64, 0
4, 1221840, Note_on_c, 2, 65, 100
4, 1221960, Note_on_c, 2, 65, 0
4, 1221960, Note_on_c, 2, 69, 100
4, 1222080, Note_on_c, 2, 69, 0
4, 1222080, Note_on_c, 2, 63, 100
4, 1222200, Note_on_c, 2, 63, 0
4, 1222200, Note_on_c, 2, 66, 100
4, 1222320, Note_on_c, 2, 66, 0
4, 1222320, Note_on_c, 2, 69, 100
4, 1222440, Note_on_c, 2, 69, 0
4, 1222440, Note_on_c, 2, 66, 100
4, 1222560, Note_on_c, 2, 66, 0
4, 1222560, Note_on_c, 2, 63, 100
4, 1222680, Note_on_c, 2, 63, 0
4, 1222680, Note_on_c, 2, 66, 100
4, 1222800, Note_on_c, 2, 66, 0
4, 1222800, Note_on_c, 2, 59, 100
4, 1222920, Note_on_c, 2, 59, 0
4, 1222920, Note_on_c, 2, 63, 100
4, 1223040, Note_on_c, 2, 63, 0
4, 1223040, Note_on_c, 2, 54, 100
4, 1223160, Note_on_c, 2, 54, 0
4, 1223160, Note_on_c, 2, 57, 100
4, 1223280, Note_on_c, 2, 57, 0
4, 1223280, Note_on_c, 2, 55, 100
4, 1223400, Note_on_c, 2, 55, 0
4, 1223400, Note_on_c, 2, 54, 100
4, 1223520, Note_on_c, 2, 54, 0
4, 1223520, Note_on_c, 2, 55, 100
4, 1223640, Note_on_c, 2, 55, 0
4, 1223640, Note_on_c, 2, 59, 100
4, 1223760, Note_on_c, 2, 59, 0
4, 1223760, Note_on_c, 2, 64, 100
4, 1223880, Note_on_c, 2, 64, 0
4, 1223880, Note_on_c, 2, 59, 100
4, 1224000, Note_on_c, 2, 59, 0
4, 1224000, Note_on_c, 2, 55, 100
4, 1224120, Note_on_c, 2, 55, 0
4, 1224120, Note_on_c, 2, 59, 100
4, 1224240, Note_on_c, 2, 59, 0
4, 1224240, Note_on_c, 2, 52, 100
4, 1224360, Note_on_c, 2, 52, 0
4, 1224360, Note_on_c, 2, 54, 100
4, 1224480, Note_on_c, 2, 54, 0
4, 1224480, Note_on_c, 2, 55, 100
4, 1224600, Note_on_c, 2, 55, 0
4, 1224600, Note_on_c, 2, 52, 100
4, 1224720, Note_on_c, 2, 52, 0
4, 1224720, Note_on_c, 2, 55, 100
4, 1224840, Note_on_c, 2, 55, 0
4, 1224840, Note_on_c, 2, 59, 100
4, 1224960, Note_on_c, 2, 59, 0
4, 1224960, Note_on_c, 2, 64, 100
4, 1225080, Note_on_c, 2, 64, 0
4, 1225320, Note_on_c, 2, 52, 100
4, 1225380, Note_on_c, 2, 52, 0
4, 1225380, Note_on_c, 2, 50, 100
4, 1225440, Note_on_c, 2, 50, 0
4, 1225440, Note_on_c, 2, 52, 100
4, 1225560, Note_on_c, 2, 52, 0
4, 1225800, Note_on_c, 2, 60, 100
4, 1225860, Note_on_c, 2, 60, 0
4, 1225860, Note_on_c, 2, 59, 100
4, 1225920, Note_on_c, 2, 59, 0
4, 1225920, Note_on_c, 2, 60, 100
4, 1226040, Note_on_c, 2, 60, 0
4, 1226280, Note_on_c, 2, 69, 100
4, 1226340, Note_on_c, 2, 69, 0
4, 1226340, Note_on_c, 2, 67, 100
4, 1226400, Note_on_c, 2, 67, 0
4, 1226400, Note_on_c, 2, 69, 100
4, 1226520, Note_on_c, 2, 69, 0
4, 1226760, Note_on_c, 2, 50, 100
4, 1226820, Note_on_c, 2, 50, 0
4, 1226820, Note_on_c, 2, 48, 100
4, 1226880, Note_on_c, 2, 48, 0
4, 1226880, Note_on_c, 2, 50, 100
4, 1227000, Note_on_c, 2, 50, 0
4, 1227240, Note_on_c, 2, 59, 100
4, 1227300, Note_on_c, 2, 59, 0
4, 1227300, Note_on_c, 2, 57, 100
4, 1227360, Note_on_c, 2, 57, 0
4, 1227360, Note_on_c, 2, 59, 100
4, 1227480, Note_on_c, 2, 59, 0
4, 1227720, Note_on_c, 2, 67, 100
4, 1227780, Note_on_c, 2, 67, 0
4, 1227780, Note_on_c, 2, 66, 100
4, 1227840, Note_on_c, 2, 66, 0
4, 1227840, Note_on_c, 2, 67, 100
4, 1227960, Note_on_c, 2, 67, 0
4, 1228200, Note_on_c, 2, 48, 100
4, 1228260, Note_on_c, 2, 48, 0
4, 1228260, Note_on_c, 2, 47, 100
4, 1228320, Note_on_c, 2, 47, 0
4, 1228320, Note_on_c, 2, 48, 100
4, 1228440, Note_on_c, 2, 48, 0
4, 1228680, Note_on_c, 2, 57, 100
4, 1228740, Note_on_c, 2, 57, 0
4, 1228740, Note_on_c, 2, 55, 100
4, 1228800, Note_on_c, 2, 55, 0
4, 1228800, Note_on_c, 2, 57, 100
4, 1228920, Note_on_c, 2, 57, 0
4, 1229160, Note_on_c, 2, 66, 100
4, 1229220, Note_on_c, 2, 66, 0
4, 1229220, Note_on_c, 2, 64, 100
4, 1229280, Note_on_c, 2, 64, 0
4, 1229280, Note_on_c, 2, 66, 100
4, 1229400, Note_on_c, 2, 66, 0
4, 1229640, Note_on_c, 2, 74, 100
4, 1229700, Note_on_c, 2, 74, 0
4, 1229700, Note_on_c, 2, 72, 100
4, 1229760, Note_on_c, 2, 72, 0
4, 1229760, Note_on_c, 2, 74, 100
4, 1229880, Note_on_c, 2, 74, 0
4, 1230120, Note_on_c, 2, 79, 100
4, 1230180, Note_on_c, 2, 79, 0
4, 1230180, Note_on_c, 2, 78, 100
4, 1230240, Note_on_c, 2, 78, 0
4, 1230240, Note_on_c, 2, 79, 100
4, 1230360, Note_on_c, 2, 79, 0
4, 1230600, Note_on_c, 2, 83, 100
4, 1230660, Note_on_c, 2, 83, 0
4, 1230660, Note_on_c, 2, 81, 100
4, 1230720, Note_on_c, 2, 81, 0
4, 1230720, Note_on_c, 2, 83, 100
4, 1230960, Note_on_c, 2, 83, 0
4, 1231200, Note_on_c, 2, 62, 100
4, 1231440, Note_on_c, 2, 62, 0
4, 1231680, Note_on_c, 2, 65, 100
4, 1231920, Note_on_c, 2, 65, 0
4, 1232220, Note_on_c, 2, 64, 100
4, 1232280, Note_on_c, 2, 64, 0
4, 1232280, Note_on_c, 2, 65, 100
4, 1232340, Note_on_c, 2, 65, 0
4, 1232340, Note_on_c, 2, 67, 100
4, 1232400, Note_on_c, 2, 67, 0
4, 1232400, Note_on_c, 2, 72, 100
4, 1232460, Note_on_c, 2, 72, 0
4, 1232460, Note_on_c, 2, 67, 100
4, 1232520, Note_on_c, 2, 67, 0
4, 1232520, Note_on_c, 2, 65, 100
4, 1232580, Note_on_c, 2, 65, 0
4, 1232580, Note_on_c, 2, 64, 100
4, 1232640, Note_on_c, 2, 64, 0
4, 1232700, Note_on_c, 2, 66, 100
4, 1232760, Note_on_c, 2, 66, 0
4, 1232760, Note_on_c, 2, 67, 100
4, 1232820, Note_on_c, 2, 67, 0
4, 1232820, Note_on_c, 2, 69, 100
4, 1232880, Note_on_c, 2, 69, 0
4, 1232880, Note_on_c, 2, 72, 100
4, 1232940, Note_on_c, 2, 72, 0
4, 1232940, Note_on_c, 2, 69, 100
4, 1233000, Note_on_c, 2, 69, 0
4, 1233000, Note_on_c, 2, 67, 100
4, 1233060, Note_on_c, 2, 67, 0
4, 1233060, Note_on_c, 2, 66, 100
4, 1233120, Note_on_c, 2, 66, 0
4, 1233180, Note_on_c, 2, 67, 100
4, 1233240, Note_on_c, 2, 67, 0
4, 1233240, Note_on_c, 2, 69, 100
4, 1233300, Note_on_c, 2, 69, 0
4, 1233300, Note_on_c, 2, 70, 100
4, 1233360, Note_on_c, 2, 70, 0
4, 1233360, Note_on_c, 2, 73, 100
4, 1233420, Note_on_c, 2, 73, 0
4, 1233420, Note_on_c, 2, 70, 100
4, 1233480, Note_on_c, 2, 70, 0
4, 1233480, Note_on_c, 2, 69, 100
4, 1233540, Note_on_c, 2, 69, 0
4, 1233540, Note_on_c, 2, 67, 100
4, 1233600, Note_on_c, 2, 67, 0
4, 1233600, Note_on_c, 2, 74, 100
4, 1233720, Note_on_c, 2, 74, 0
4, 1233720, Note_on_c, 2, 72, 100
4, 1233780, Note_on_c, 2, 72, 0
4, 1233780, Note_on_c, 2, 71, 100
4, 1233840, Note_on_c, 2, 71, 0
4, 1233840, Note_on_c, 2, 72, 100
4, 1233960, Note_on_c, 2, 72, 0
4, 1233960, Note_on_c, 2, 71, 100
4, 1234020, Note_on_c, 2, 71, 0
4, 1234020, Note_on_c, 2, 69, 100
4, 1234080, Note_on_c, 2, 69, 0
4, 1234080, Note_on_c, 2, 71, 100
4, 1234200, Note_on_c, 2, 71, 0
4, 1234200, Note_on_c, 2, 70, 100
4, 1234260, Note_on_c, 2, 70, 0
4, 1234260, Note_on_c, 2, 69, 100
4, 1234320, Note_on_c, 2, 69, 0
4, 1234320, Note_on_c, 2, 70, 100
4, 1234440, Note_on_c, 2, 70, 0
4, 1234440, Note_on_c, 2, 69, 100
4, 1234500, Note_on_c, 2, 69, 0
4, 1234500, Note_on_c, 2, 67, 100
4, 1234560, Note_on_c, 2, 67, 0
4, 1234560, Note_on_c, 2, 69, 100
4, 1234680, Note_on_c, 2, 69, 0
4, 1234680, Note_on_c, 2, 74, 100
4, 1234740, Note_on_c, 2, 74, 0
4, 1234740, Note_on_c, 2, 72, 100
4, 1234800, Note_on_c, 2, 72, 0
4, 1234800, Note_on_c, 2, 74, 100
4, 1234920, Note_on_c, 2, 74, 0
4, 1234920, Note_on_c, 2, 67, 100
4, 1234980, Note_on_c, 2, 67, 0
4, 1234980, Note_on_c, 2, 66, 100
4, 1235040, Note_on_c, 2, 66, 0
4, 1235040, Note_on_c, 2, 67, 100
4, 1235100, Note_on_c, 2, 67, 0
4, 1235100, Note_on_c, 2, 69, 100
4, 1235160, Note_on_c, 2, 69, 0
4, 1235160, Note_on_c, 2, 71, 100
4, 1235220, Note_on_c, 2, 71, 0
4, 1235220, Note_on_c, 2, 72, 100
4, 1235280, Note_on_c, 2, 72, 0
4, 1235280, Note_on_c, 2, 74, 100
4, 1235340, Note_on_c, 2, 74, 0
4, 1235340, Note_on_c, 2, 72, 100
4, 1235400, Note_on_c, 2, 72, 0
4, 1235400, Note_on_c, 2, 71, 100
4, 1235460, Note_on_c, 2, 71, 0
4, 1235460, Note_on_c, 2, 69, 100
4, 1235520, Note_on_c, 2, 69, 0
4, 1235520, Note_on_c, 2, 67, 100
4, 1235640, Note_on_c, 2, 67, 0
4, 1235640, Note_on_c, 2, 71, 100
4, 1235760, Note_on_c, 2, 71, 0
4, 1235760, Note_on_c, 2, 62, 100
4, 1235880, Note_on_c, 2, 62, 0
4, 1235880, Note_on_c, 2, 67, 100
4, 1236000, Note_on_c, 2, 67, 0
4, 1236000, Note_on_c, 2, 55, 100
4, 1236240, Note_on_c, 2, 55, 0
4, 1236480, Note_on_c, 2, 78, 100
4, 1236600, Note_on_c, 2, 78, 0
4, 1236600, Note_on_c, 2, 81, 100
4, 1236720, Note_on_c, 2, 81, 0
4, 1236720, Note_on_c, 2, 86, 100
4, 1236840, Note_on_c, 2, 86, 0
4, 1236840, Note_on_c, 2, 81, 100
4, 1236960, Note_on_c, 2, 81, 0
4, 1236960, Note_on_c, 2, 78, 100
4, 1237080, Note_on_c, 2, 78, 0
4, 1237080, Note_on_c, 2, 81, 100
4, 1237200, Note_on_c, 2, 81, 0
4, 1237200, Note_on_c, 2, 74, 100
4, 1237320, Note_on_c, 2, 74, 0
4, 1237320, Note_on_c, 2, 78, 100
4, 1237440, Note_on_c, 2, 78, 0
4, 1237440, Note_on_c, 2, 81, 100
4, 1237560, Note_on_c, 2, 81, 0
4, 1237560, Note_on_c, 2, 78, 100
4, 1237680, Note_on_c, 2, 78, 0
4, 1237680, Note_on_c, 2, 79, 100
4, 1237800, Note_on_c, 2, 79, 0
4, 1237800, Note_on_c, 2, 81, 100
4, 1237920, Note_on_c, 2, 81, 0
4, 1237920, Note_on_c, 2, 74, 100
4, 1238040, Note_on_c, 2, 74, 0
4, 1238040, Note_on_c, 2, 79, 100
4, 1238160, Note_on_c, 2, 79, 0
4, 1238160, Note_on_c, 2, 83, 100
4, 1238280, Note_on_c, 2, 83, 0
4, 1238280, Note_on_c, 2, 79, 100
4, 1238400, Note_on_c, 2, 79, 0
4, 1238400, Note_on_c, 2, 74, 100
4, 1238520, Note_on_c, 2, 74, 0
4, 1238520, Note_on_c, 2, 79, 100
4, 1238640, Note_on_c, 2, 79, 0
4, 1238640, Note_on_c, 2, 71, 100
4, 1238760, Note_on_c, 2, 71, 0
4, 1238760, Note_on_c, 2, 74, 100
4, 1238880, Note_on_c, 2, 74, 0
4, 1238880, Note_on_c, 2, 79, 100
4, 1239000, Note_on_c, 2, 79, 0
4, 1239000, Note_on_c, 2, 71, 100
4, 1239120, Note_on_c, 2, 71, 0
4, 1239120, Note_on_c, 2, 72, 100
4, 1239240, Note_on_c, 2, 72, 0
4, 1239240, Note_on_c, 2, 74, 100
4, 1239360, Note_on_c, 2, 74, 0
4, 1239360, Note_on_c, 2, 67, 100
4, 1239480, Note_on_c, 2, 67, 0
4, 1239480, Note_on_c, 2, 72, 100
4, 1239600, Note_on_c, 2, 72, 0
4, 1239600, Note_on_c, 2, 76, 100
4, 1239720, Note_on_c, 2, 76, 0
4, 1239720, Note_on_c, 2, 72, 100
4, 1239840, Note_on_c, 2, 72, 0
4, 1239840, Note_on_c, 2, 69, 100
4, 1239960, Note_on_c, 2, 69, 0
4, 1239960, Note_on_c, 2, 72, 100
4, 1240080, Note_on_c, 2, 72, 0
4, 1240080, Note_on_c, 2, 66, 100
4, 1240200, Note_on_c, 2, 66, 0
4, 1240200, Note_on_c, 2, 69, 100
4, 1240320, Note_on_c, 2, 69, 0
4, 1240320, Note_on_c, 2, 72, 100
4, 1240440, Note_on_c, 2, 72, 0
4, 1240440, Note_on_c, 2, 66, 100
4, 1240560, Note_on_c, 2, 66, 0
4, 1240560, Note_on_c, 2, 67, 100
4, 1240680, Note_on_c, 2, 67, 0
4, 1240680, Note_on_c, 2, 69, 100
4, 1240800, Note_on_c, 2, 69, 0
4, 1240800, Note_on_c, 2, 63, 100
4, 1240920, Note_on_c, 2, 63, 0
4, 1240920, Note_on_c, 2, 66, 100
4, 1241040, Note_on_c, 2, 66, 0
4, 1241040, Note_on_c, 2, 71, 100
4, 1241160, Note_on_c, 2, 71, 0
4, 1241160, Note_on_c, 2, 66, 100
4, 1241280, Note_on_c, 2, 66, 0
4, 1241280, Note_on_c, 2, 63, 100
4, 1241400, Note_on_c, 2, 63, 0
4, 1241400, Note_on_c, 2, 66, 100
4, 1241520, Note_on_c, 2, 66, 0
4, 1241520, Note_on_c, 2, 59, 100
4, 1241640, Note_on_c, 2, 59, 0
4, 1241640, Note_on_c, 2, 63, 100
4, 1241760, Note_on_c, 2, 63, 0
4, 1241760, Note_on_c, 2, 66, 100
4, 1241880, Note_on_c, 2, 66, 0
4, 1241880, Note_on_c, 2, 63, 100
4, 1242000, Note_on_c, 2, 63, 0
4, 1242000, Note_on_c, 2, 64, 100
4, 1242120, Note_on_c, 2, 64, 0
4, 1242120, Note_on_c, 2, 66, 100
4, 1242240, Note_on_c, 2, 66, 0
4, 1242240, Note_on_c, 2, 59, 100
4, 1242360, Note_on_c, 2, 59, 0
4, 1242360, Note_on_c, 2, 64, 100
4, 1242480, Note_on_c, 2, 64, 0
4, 1242480, Note_on_c, 2, 67, 100
4, 1242600, Note_on_c, 2, 67, 0
4, 1242600, Note_on_c, 2, 64, 100
4, 1242720, Note_on_c, 2, 64, 0
4, 1242720, Note_on_c, 2, 59, 100
4, 1242840, Note_on_c, 2, 59, 0
4, 1242840, Note_on_c, 2, 64, 100
4, 1242960, Note_on_c, 2, 64, 0
4, 1242960, Note_on_c, 2, 55, 100
4, 1243080, Note_on_c, 2, 55, 0
4, 1243080, Note_on_c, 2, 59, 100
4, 1243200, Note_on_c, 2, 59, 0
4, 1243200, Note_on_c, 2, 64, 100
4, 1243320, Note_on_c, 2, 64, 0
4, 1243320, Note_on_c, 2, 63, 100
4, 1243440, Note_on_c, 2, 63, 0
4, 1243440, Note_on_c, 2, 64, 100
4, 1243560, Note_on_c, 2, 64, 0
4, 1243560, Note_on_c, 2, 67, 100
4, 1243680, Note_on_c, 2, 67, 0
4, 1243680, Note_on_c, 2, 60, 100
4, 1243800, Note_on_c, 2, 60, 0
4, 1243800, Note_on_c, 2, 65, 100
4, 1243920, Note_on_c, 2, 65, 0
4, 1243920, Note_on_c, 2, 69, 100
4, 1244040, Note_on_c, 2, 69, 0
4, 1244040, Note_on_c, 2, 65, 100
4, 1244160, Note_on_c, 2, 65, 0
4, 1244160, Note_on_c, 2, 60, 100
4, 1244280, Note_on_c, 2, 60, 0
4, 1244280, Note_on_c, 2, 65, 100
4, 1244400, Note_on_c, 2, 65, 0
4, 1244400, Note_on_c, 2, 57, 100
4, 1244520, Note_on_c, 2, 57, 0
4, 1244520, Note_on_c, 2, 60, 100
4, 1244640, Note_on_c, 2, 60, 0
4, 1244640, Note_on_c, 2, 65, 100
4, 1244760, Note_on_c, 2, 65, 0
4, 1244760, Note_on_c, 2, 64, 100
4, 1244880, Note_on_c, 2, 64, 0
4, 1244880, Note_on_c, 2, 65, 100
4, 1245000, Note_on_c, 2, 65, 0
4, 1245000, Note_on_c, 2, 69, 100
4, 1245120, Note_on_c, 2, 69, 0
4, 1245120, Note_on_c, 2, 63, 100
4, 1245240, Note_on_c, 2, 63, 0
4, 1245240, Note_on_c, 2, 66, 100
4, 1245360, Note_on_c, 2, 66, 0
4, 1245360, Note_on_c, 2, 69, 100
4, 1245480, Note_on_c, 2, 69, 0
4, 1245480, Note_on_c, 2, 66, 100
4, 1245600, Note_on_c, 2, 66, 0
4, 1245600, Note_on_c, 2, 63, 100
4, 1245720, Note_on_c, 2, 63, 0
4, 1245720, Note_on_c, 2, 66, 100
4, 1245840, Note_on_c, 2, 66, 0
4, 1245840, Note_on_c, 2, 59, 100
4, 1245960, Note_on_c, 2, 59, 0
4, 1245960, Note_on_c, 2, 63, 100
4, 1246080, Note_on_c, 2, 63, 0
4, 1246080, Note_on_c, 2, 54, 100
4, 1246200, Note_on_c, 2, 54, 0
4, 1246200, Note_on_c, 2, 57, 100
4, 1246320, Note_on_c, 2, 57, 0
4, 1246320, Note_on_c, 2, 55, 100
4, 1246440, Note_on_c, 2, 55, 0
4, 1246440, Note_on_c, 2, 54, 100
4, 1246560, Note_on_c, 2, 54, 0
4, 1246560, Note_on_c, 2, 55, 100
4, 1246680, Note_on_c, 2, 55, 0
4, 1246680, Note_on_c, 2, 59, 100
4, 1246800, Note_on_c, 2, 59, 0
4, 1246800, Note_on_c, 2, 64, 100
4, 1246920, Note_on_c, 2, 64, 0
4, 1246920, Note_on_c, 2, 59, 100
4, 1247040, Note_on_c, 2, 59, 0
4, 1247040, Note_on_c, 2, 55, 100
4, 1247160, Note_on_c, 2, 55, 0
4, 1247160, Note_on_c, 2, 59, 100
4, 1247280, Note_on_c, 2, 59, 0
4, 1247280, Note_on_c, 2, 52, 100
4, 1247400, Note_on_c, 2, 52, 0
4, 1247400, Note_on_c, 2, 54, 100
4, 1247520, Note_on_c, 2, 54, 0
4, 1247520, Note_on_c, 2, 55, 100
4, 1247640, Note_on_c, 2, 55, 0
4, 1247640, Note_on_c, 2, 52, 100
4, 1247760, Note_on_c, 2, 52, 0
4, 1247760, Note_on_c, 2, 55, 100
4, 1247880, Note_on_c, 2, 55, 0
4, 1247880, Note_on_c, 2, 59, 100
4, 1248000, Note_on_c, 2, 59, 0
4, 1248000, Note_on_c, 2, 64, 100
4, 1248120, Note_on_c, 2, 64, 0
4, 1248360, Note_on_c, 2, 52, 100
4, 1248420, Note_on_c, 2, 52, 0
4, 1248420, Note_on_c, 2, 50, 100
4, 1248480, Note_on_c, 2, 50, 0
4, 1248480, Note_on_c, 2, 52, 100
4, 1248600, Note_on_c, 2, 52, 0
4, 1248840, Note_on_c, 2, 60, 100
4, 1248900, Note_on_c, 2, 60, 0
4, 1248900, Note_on_c, 2, 59, 100
4, 1248960, Note_on_c, 2, 59, 0
4, 1248960, Note_on_c, 2, 60, 100
4, 1249080, Note_on_c, 2, 60, 0
4, 1249320, Note_on_c, 2, 69, 100
4, 1249380, Note_on_c, 2, 69, 0
4, 1249380, Note_on_c, 2, 67, 100
4, 1249440, Note_on_c, 2, 67, 0
4, 1249440, Note_on_c, 2, 69, 100
4, 1249560, Note_on_c, 2, 69, 0
4, 1249800, Note_on_c, 2, 50, 100
4, 1249860, Note_on_c, 2, 50, 0
4, 1249860, Note_on_c, 2, 48, 100
4, 1249920, Note_on_c, 2, 48, 0
4, 1249920, Note_on_c, 2, 50, 100
4, 1250040, Note_on_c, 2, 50, 0
4, 1250280, Note_on_c, 2, 59, 100
4, 1250340, Note_on_c, 2, 59, 0
4, 1250340, Note_on_c, 2, 57, 100
4, 1250400, Note_on_c, 2, 57, 0
4, 1250400, Note_on_c, 2, 59, 100
4, 1250520, Note_on_c, 2, 59, 0
4, 1250760, Note_on_c, 2, 67, 100
4, 1250820, Note_on_c, 2, 67, 0
4, 1250820, Note_on_c, 2, 66, 100
4, 1250880, Note_on_c, 2, 66, 0
4, 1250880, Note_on_c, 2, 67, 100
4, 1251000, Note_on_c, 2, 67, 0
4, 1251240, Note_on_c, 2, 48, 100
4, 1251300, Note_on_c, 2, 48, 0
4, 1251300, Note_on_c, 2, 47, 100
4, 1251360, Note_on_c, 2, 47, 0
4, 1251360, Note_on_c, 2, 48, 100
4, 1251480, Note_on_c, 2, 48, 0
4, 1251720, Note_on_c, 2, 57, 100
4, 1251780, Note_on_c, 2, 57, 0
4, 1251780, Note_on_c, 2, 55, 100
4, 1251840, Note_on_c, 2, 55, 0
4, 1251840, Note_on_c, 2, 57, 100
4, 1251960, Note_on_c, 2, 57, 0
4, 1252200, Note_on_c, 2, 66, 100
4, 1252260, Note_on_c, 2, 66, 0
4, 1252260, Note_on_c, 2, 64, 100
4, 1252320, Note_on_c, 2, 64, 0
4, 1252320, Note_on_c, 2, 66, 100
4, 1252440, Note_on_c, 2, 66, 0
4, 1252680, Note_on_c, 2, 74, 100
4, 1252740, Note_on_c, 2, 74, 0
4, 1252740, Note_on_c, 2, 72, 100
4, 1252800, Note_on_c, 2, 72, 0
4, 1252800, Note_on_c, 2, 74, 100
4, 1252920, Note_on_c, 2, 74, 0
4, 1253160, Note_on_c, 2, 79, 100
4, 1253220, Note_on_c, 2, 79, 0
4, 1253220, Note_on_c, 2, 78, 100
4, 1253280, Note_on_c, 2, 78, 0
4, 1253280, Note_on_c, 2, 79, 100
4, 1253400, Note_on_c, 2, 79, 0
4, 1253640, Note_on_c, 2, 83, 100
4, 1253700, Note_on_c, 2, 83, 0
4, 1253700, Note_on_c, 2, 81, 100
4, 1253760, Note_on_c, 2, 81, 0
4, 1253760, Note_on_c, 2, 83, 100
4, 1254000, Note_on_c, 2, 83, 0
4, 1254240, Note_on_c, 2, 62, 100
4, 1254480, Note_on_c, 2, 62, 0
4, 1254720, Note_on_c, 2, 65, 100
4, 1254960, Note_on_c, 2, 65, 0
4, 1255260, Note_on_c, 2, 64, 100
4, 1255320, Note_on_c, 2, 64, 0
4, 1255320, Note_on_c, 2, 65, 100
4, 1255380, Note_on_c, 2, 65, 0
4, 1255380, Note_on_c, 2, 67, 100
4, 1255440, Note_on_c, 2, 67, 0
4, 1255440, Note_on_c, 2, 72, 100
4, 1255500, Note_on_c, 2, 72, 0
4, 1255500, Note_on_c, 2, 67, 100
4, 1255560, Note_on_c, 2, 67, 0
4, 1255560, Note_on_c, 2, 65, 100
4, 1255620, Note_on_c, 2, 65, 0
4, 1255620, Note_on_c, 2, 64, 100
4, 1255680, Note_on_c, 2, 64, 0
4, 1255740, Note_on_c, 2, 66, 100
4, 1255800, Note_on_c, 2, 66, 0
4, 1255800, Note_on_c, 2, 67, 100
4, 1255860, Note_on_c, 2, 67, 0
4, 1255860, Note_on_c, 2, 69, 100
4, 1255920, Note_on_c, 2, 69, 0
4, 1255920, Note_on_c, 2, 72, 100
4, 1255980, Note_on_c, 2, 72, 0
4, 1255980, Note_on_c, 2, 69, 100
4, 1256040, Note_on_c, 2, 69, 0
4, 1256040, Note_on_c, 2, 67, 100
4, 1256100, Note_on_c, 2, 67, 0
4, 1256100, Note_on_c, 2, 66, 100
4, 1256160, Note_on_c, 2, 66, 0
4, 1256220, Note_on_c, 2, 67, 100
4, 1256280, Note_on_c, 2, 67, 0
4, 1256280, Note_on_c, 2, 69, 100
4, 1256340, Note_on_c, 2, 69, 0
4, 1256340, Note_on_c, 2, 70, 100
4, 1256400, Note_on_c, 2, 70, 0
4, 1256400, Note_on_c, 2, 73, 100
4, 1256460, Note_on_c, 2, 73, 0
4, 1256460, Note_on_c, 2, 70, 100
4, 1256520, Note_on_c, 2, 70, 0
4, 1256520, Note_on_c, 2, 69, 100
4, 1256580, Note_on_c, 2, 69, 0
4, 1256580, Note_on_c, 2, 67, 100
4, 1256640, Note_on_c, 2, 67, 0
4, 1256640, Note_on_c, 2, 74, 100
4, 1256760, Note_on_c, 2, 74, 0
4, 1256760, Note_on_c, 2, 72, 100
4, 1256820, Note_on_c, 2, 72, 0
4, 1256820, Note_on_c, 2, 71, 100
4, 1256880, Note_on_c, 2, 71, 0
4, 1256880, Note_on_c, 2, 72, 100
4, 1257000, Note_on_c, 2, 72, 0
4, 1257000, Note_on_c, 2, 71, 100
4, 1257060, Note_on_c, 2, 71, 0
4, 1257060, Note_on_c, 2, 69, 100
4, 1257120, Note_on_c, 2, 69, 0
4, 1257120, Note_on_c, 2, 71, 100
4, 1257240, Note_on_c, 2, 71, 0
4, 1257240, Note_on_c, 2, 70, 100
4, 1257300, Note_on_c, 2, 70, 0
4, 1257300, Note_on_c, 2, 69, 100
4, 1257360, Note_on_c, 2, 69, 0
4, 1257360, Note_on_c, 2, 70, 100
4, 1257480, Note_on_c, 2, 70, 0
4, 1257480, Note_on_c, 2, 69, 100
4, 1257540, Note_on_c, 2, 69, 0
4, 1257540, Note_on_c, 2, 67, 100
4, 1257600, Note_on_c, 2, 67, 0
4, 1257600, Note_on_c, 2, 69, 100
4, 1257720, Note_on_c, 2, 69, 0
4, 1257720, Note_on_c, 2, 74, 100
4, 1257780, Note_on_c, 2, 74, 0
4, 1257780, Note_on_c, 2, 72, 100
4, 1257840, Note_on_c, 2, 72, 0
4, 1257840, Note_on_c, 2, 74, 100
4, 1257960, Note_on_c, 2, 74, 0
4, 1257960, Note_on_c, 2, 67, 100
4, 1258020, Note_on_c, 2, 67, 0
4, 1258020, Note_on_c, 2, 66, 100
4, 1258080, Note_on_c, 2, 66, 0
4, 1258080, Note_on_c, 2, 67, 100
4, 1258140, Note_on_c, 2, 67, 0
4, 1258140, Note_on_c, 2, 69, 100
4, 1258200, Note_on_c, 2, 69, 0
4, 1258200, Note_on_c, 2, 71, 100
4, 1258260, Note_on_c, 2, 71, 0
4, 1258260, Note_on_c, 2, 72, 100
4, 1258320, Note_on_c, 2, 72, 0
4, 1258320, Note_on_c, 2, 74, 100
4, 1258380, Note_on_c, 2, 74, 0
4, 1258380, Note_on_c, 2, 72, 100
4, 1258440, Note_on_c, 2, 72, 0
4, 1258440, Note_on_c, 2, 71, 100
4, 1258500, Note_on_c, 2, 71, 0
4, 1258500, Note_on_c, 2, 69, 100
4, 1258560, Note_on_c, 2, 69, 0
4, 1258560, Note_on_c, 2, 67, 100
4, 1258680, Note_on_c, 2, 67, 0
4, 1258680, Note_on_c, 2, 71, 100
4, 1258800, Note_on_c, 2, 71, 0
4, 1258800, Note_on_c, 2, 62, 100
4, 1258920, Note_on_c, 2, 62, 0
4, 1258920, Note_on_c, 2, 67, 100
4, 1259040, Note_on_c, 2, 67, 0
4, 1259040, Note_on_c, 2, 55, 100
4, 1259280, Note_on_c, 2, 55, 0
4, 1326720, Note_on_c, 2, 74, 100
4, 1327200, Note_on_c, 2, 74, 0
4, 1329600, Note_on_c, 2, 76, 100
4, 1329720, Note_on_c, 2, 76, 0
4, 1329720, Note_on_c, 2, 77, 100
4, 1329780, Note_on_c, 2, 77, 0
4, 1329780, Note_on_c, 2, 76, 100
4, 1329840, Note_on_c, 2, 76, 0
4, 1329840, Note_on_c, 2, 77, 100
4, 1330320, Note_on_c, 2, 77, 0
4, 1330320, Note_on_c, 2, 79, 100
4, 1330560, Note_on_c, 2, 79, 0
4, 1330560, Note_on_c, 2, 77, 100
4, 1330680, Note_on_c, 2, 77, 0
4, 1330680, Note_on_c, 2, 76, 100
4, 1330860, Note_on_c, 2, 76, 0
4, 1330860, Note_on_c, 2, 74, 100
4, 1330920, Note_on_c, 2, 74, 0
4, 1330920, Note_on_c, 2, 72, 100
4, 1330980, Note_on_c, 2, 72, 0
4, 1330980, Note_on_c, 2, 71, 100
4, 1331040, Note_on_c, 2, 71, 0
4, 1331040, Note_on_c, 2, 72, 100
4, 1331340, Note_on_c, 2, 72, 0
4, 1331340, Note_on_c, 2, 71, 100
4, 1331400, Note_on_c, 2, 71, 0
4, 1331400, Note_on_c, 2, 69, 100
4, 1331460, Note_on_c, 2, 69, 0
4, 1331460, Note_on_c, 2, 67, 100
4, 1331520, Note_on_c, 2, 67, 0
4, 1331520, Note_on_c, 2, 69, 100
4, 1331880, Note_on_c, 2, 69, 0
4, 1331880, Note_on_c, 2, 69, 100
4, 1332000, Note_on_c, 2, 69, 0
4, 1332465, Note_on_c, 2, 74, 100
4, 1332960, Note_on_c, 2, 74, 0
4, 1338120, Note_on_c, 2, 71, 100
4, 1338240, Note_on_c, 2, 71, 0
4, 1338240, Note_on_c, 2, 69, 100
4, 1338720, Note_on_c, 2, 69, 0
4, 1339080, Note_on_c, 2, 81, 100
4, 1339200, Note_on_c, 2, 81, 0
4, 1339200, Note_on_c, 2, 75, 100
4, 1339560, Note_on_c, 2, 75, 0
4, 1339560, Note_on_c, 2, 78, 100
4, 1339680, Note_on_c, 2, 78, 0
4, 1339680, Note_on_c, 2, 71, 100
4, 1340640, Note_on_c, 2, 71, 0
4, 1341120, Note_on_c, 2, 71, 100
4, 1342080, Note_on_c, 2, 71, 0
4, 1342080, Note_on_c, 2, 69, 100
4, 1342560, Note_on_c, 2, 69, 0
4, 1342560, Note_on_c, 2, 71, 100
4, 1343040, Note_on_c, 2, 71, 0
4, 1343040, Note_on_c, 2, 73, 100
4, 1343520, Note_on_c, 2, 73, 0
4, 1344960, Note_on_c, 2, 69, 100
4, 1345440, Note_on_c, 2, 69, 0
4, 1348800, Note_on_c, 2, 73, 100
4, 1349760, Note_on_c, 2, 73, 0
4, 1349760, Note_on_c, 2, 66, 100
4, 1351680, Note_on_c, 2, 66, 0
4, 1357440, Note_on_c, 2, 74, 100
4, 1357920, Note_on_c, 2, 74, 0
4, 1360320, Note_on_c, 2, 76, 100
4, 1360440, Note_on_c, 2, 76, 0
4, 1360440, Note_on_c, 2, 77, 100
4, 1360500, Note_on_c, 2, 77, 0
4, 1360500, Note_on_c, 2, 76, 100
4, 1360560, Note_on_c, 2, 76, 0
4, 1360560, Note_on_c, 2, 77, 100
4, 1361040, Note_on_c, 2, 77, 0
4, 1361040, Note_on_c, 2, 79, 100
4, 1361280, Note_on_c, 2, 79, 0
4, 1361280, Note_on_c, 2, 77, 100
4, 1361400, Note_on_c, 2, 77, 0
4, 1361400, Note_on_c, 2, 76, 100
4, 1361580, Note_on_c, 2, 76, 0
4, 1361580, Note_on_c, 2, 74, 100
4, 1361640, Note_on_c, 2, 74, 0
4, 1361640, Note_on_c, 2, 72, 100
4, 1361700, Note_on_c, 2, 72, 0
4, 1361700, Note_on_c, 2, 71, 100
4, 1361760, Note_on_c, 2, 71, 0
4, 1361760, Note_on_c, 2, 72, 100
4, 1362060, Note_on_c, 2, 72, 0
4, 1362060, Note_on_c, 2, 71, 100
4, 1362120, Note_on_c, 2, 71, 0
4, 1362120, Note_on_c, 2, 69, 100
4, 1362180, Note_on_c, 2, 69, 0
4, 1362180, Note_on_c, 2, 67, 100
4, 1362240, Note_on_c, 2, 67, 0
4, 1362240, Note_on_c, 2, 69, 100
4, 1362600, Note_on_c, 2, 69, 0
4, 1362600, Note_on_c, 2, 69, 100
4, 1362720, Note_on_c, 2, 69, 0
4, 1363185, Note_on_c, 2, 74, 100
4, 1363680, Note_on_c, 2, 74, 0
4, 1368840, Note_on_c, 2, 71, 100
4, 1368960, Note_on_c, 2, 71, 0
4, 1368960, Note_on_c, 2, 69, 100
4, 1369440, Note_on_c, 2, 69, 0
4, 1369800, Note_on_c, 2, 81, 100
4, 1369920, Note_on_c, 2, 81, 0
4, 1369920, Note_on_c, 2, 75, 100
4, 1370280, Note_on_c, 2, 75, 0
4, 1370280, Note_on_c, 2, 78, 100
4, 1370400, Note_on_c, 2, 78, 0
4, 1370400, Note_on_c, 2, 71, 100
4, 1371360, Note_on_c, 2, 71, 0
4, 1371840, Note_on_c, 2, 71, 100
4, 1372800, Note_on_c, 2, 71, 0
4, 1372800, Note_on_c, 2, 69, 100
4, 1373280, Note_on_c, 2, 69, 0
4, 1373280, Note_on_c, 2, 71, 100
4, 1373760, Note_on_c, 2, 71, 0
4, 1373760, Note_on_c, 2, 73, 100
4, 1374240, Note_on_c, 2, 73, 0
4, 1375680, Note_on_c, 2, 69, 100
4, 1376160, Note_on_c, 2, 69, 0
4, 1379520, Note_on_c, 2, 73, 100
4, 1380480, Note_on_c, 2, 73, 0
4, 1381440, Note_on_c, 2, 74, 100
4, 1381560, Note_on_c, 2, 74, 0
4, 1381560, Note_on_c, 2, 72, 100
4, 1381680, Note_on_c, 2, 72, 0
4, 1381680, Note_on_c, 2, 71, 100
4, 1381800, Note_on_c, 2, 71, 0
4, 1381800, Note_on_c, 2, 69, 100
4, 1381920, Note_on_c, 2, 69, 0
4, 1381920, Note_on_c, 2, 71, 100
4, 1382160, Note_on_c, 2, 71, 0
4, 1382160, Note_on_c, 2, 72, 100
4, 1382400, Note_on_c, 2, 72, 0
4, 1382400, Note_on_c, 2, 74, 100
4, 1382640, Note_on_c, 2, 74, 0
4, 1382640, Note_on_c, 2, 67, 100
4, 1382760, Note_on_c, 2, 67, 0
4, 1382760, Note_on_c, 2, 71, 100
4, 1382880, Note_on_c, 2, 71, 0
4, 1382880, Note_on_c, 2, 69, 100
4, 1383000, Note_on_c, 2, 69, 0
4, 1383000, Note_on_c, 2, 72, 100
4, 1383120, Note_on_c, 2, 72, 0
4, 1383120, Note_on_c, 2, 71, 100
4, 1383240, Note_on_c, 2, 71, 0
4, 1383240, Note_on_c, 2, 74, 100
4, 1383360, Note_on_c, 2, 74, 0
4, 1383360, Note_on_c, 2, 72, 100
4, 1384200, Note_on_c, 2, 72, 0
4, 1384200, Note_on_c, 2, 79, 100
4, 1384320, Note_on_c, 2, 79, 0
4, 1384320, Note_on_c, 2, 78, 100
4, 1384440, Note_on_c, 2, 78, 0
4, 1384440, Note_on_c, 2, 76, 100
4, 1384560, Note_on_c, 2, 76, 0
4, 1384560, Note_on_c, 2, 75, 100
4, 1384680, Note_on_c, 2, 75, 0
4, 1384680, Note_on_c, 2, 76, 100
4, 1384800, Note_on_c, 2, 76, 0
4, 1384800, Note_on_c, 2, 71, 100
4, 1385640, Note_on_c, 2, 71, 0
4, 1385640, Note_on_c, 2, 73, 100
4, 1385760, Note_on_c, 2, 73, 0
4, 1385760, Note_on_c, 2, 75, 100
4, 1385880, Note_on_c, 2, 75, 0
4, 1385880, Note_on_c, 2, 76, 100
4, 1386000, Note_on_c, 2, 76, 0
4, 1386000, Note_on_c, 2, 78, 100
4, 1386120, Note_on_c, 2, 78, 0
4, 1386120, Note_on_c, 2, 75, 100
4, 1386240, Note_on_c, 2, 75, 0
4, 1386240, Note_on_c, 2, 76, 100
4, 1386480, Note_on_c, 2, 76, 0
4, 1388400, Note_on_c, 2, 69, 100
4, 1388640, Note_on_c, 2, 69, 0
4, 1388640, Note_on_c, 2, 71, 100
4, 1388880, Note_on_c, 2, 71, 0
4, 1388880, Note_on_c, 2, 72, 100
4, 1389120, Note_on_c, 2, 72, 0
4, 1389120, Note_on_c, 2, 74, 100
4, 1389360, Note_on_c, 2, 74, 0
4, 1389360, Note_on_c, 2, 76, 100
4, 1389600, Note_on_c, 2, 76, 0
4, 1389600, Note_on_c, 2, 78, 100
4, 1389840, Note_on_c, 2, 78, 0
4, 1389840, Note_on_c, 2, 79, 100
4, 1390320, Note_on_c, 2, 79, 0
4, 1390320, Note_on_c, 2, 74, 100
4, 1390560, Note_on_c, 2, 74, 0
4, 1390560, Note_on_c, 2, 67, 100
4, 1390800, Note_on_c, 2, 67, 0
4, 1390800, Note_on_c, 2, 69, 100
4, 1391040, Note_on_c, 2, 69, 0
4, 1391040, Note_on_c, 2, 66, 100
4, 1391280, Note_on_c, 2, 66, 0
4, 1391280, Note_on_c, 2, 67, 100
4, 1391520, Note_on_c, 2, 67, 0
4, 1391520, Note_on_c, 2, 69, 100
4, 1391580, Note_on_c, 2, 69, 0
4, 1391580, Note_on_c, 2, 68, 100
4, 1391640, Note_on_c, 2, 68, 0
4, 1391640, Note_on_c, 2, 69, 100
4, 1391700, Note_on_c, 2, 69, 0
4, 1391700, Note_on_c, 2, 68, 100
4, 1391760, Note_on_c, 2, 68, 0
4, 1391760, Note_on_c, 2, 69, 100
4, 1391820, Note_on_c, 2, 69, 0
4, 1391820, Note_on_c, 2, 68, 100
4, 1391880, Note_on_c, 2, 68, 0
4, 1391880, Note_on_c, 2, 66, 100
4, 1391940, Note_on_c, 2, 66, 0
4, 1391940, Note_on_c, 2, 68, 100
4, 1392000, Note_on_c, 2, 68, 0
4, 1392000, Note_on_c, 2, 69, 100
4, 1392480, Note_on_c, 2, 69, 0
4, 1392480, Note_on_c, 2, 68, 100
4, 1392720, Note_on_c, 2, 68, 0
4, 1392720, Note_on_c, 2, 69, 100
4, 1392960, Note_on_c, 2, 69, 0
4, 1392960, Note_on_c, 2, 67, 100
4, 1393440, Note_on_c, 2, 67, 0
4, 1393440, Note_on_c, 2, 66, 100
4, 1393680, Note_on_c, 2, 66, 0
4, 1393680, Note_on_c, 2, 67, 100
4, 1393920, Note_on_c, 2, 67, 0
4, 1393920, Note_on_c, 2, 64, 100
4, 1394160, Note_on_c, 2, 64, 0
4, 1394160, Note_on_c, 2, 66, 100
4, 1394280, Note_on_c, 2, 66, 0
4, 1396560, Note_on_c, 2, 66, 100
4, 1396800, Note_on_c, 2, 66, 0
4, 1396800, Note_on_c, 2, 69, 100
4, 1396860, Note_on_c, 2, 69, 0
4, 1396860, Note_on_c, 2, 67, 100
4, 1396920, Note_on_c, 2, 67, 0
4, 1396920, Note_on_c, 2, 66, 100
4, 1396980, Note_on_c, 2, 66, 0
4, 1396980, Note_on_c, 2, 67, 100
4, 1397040, Note_on_c, 2, 67, 0
4, 1397040, Note_on_c, 2, 69, 100
4, 1397280, Note_on_c, 2, 69, 0
4, 1400040, Note_on_c, 2, 67, 100
4, 1400160, Note_on_c, 2, 67, 0
4, 1400160, Note_on_c, 2, 66, 100
4, 1400280, Note_on_c, 2, 66, 0
4, 1400280, Note_on_c, 2, 67, 100
4, 1400400, Note_on_c, 2, 67, 0
4, 1400400, Note_on_c, 2, 69, 100
4, 1400520, Note_on_c, 2, 69, 0
4, 1400520, Note_on_c, 2, 66, 100
4, 1400640, Note_on_c, 2, 66, 0
4, 1400640, Note_on_c, 2, 62, 100
4, 1401480, Note_on_c, 2, 62, 0
4, 1401480, Note_on_c, 2, 66, 100
4, 1401600, Note_on_c, 2, 66, 0
4, 1401600, Note_on_c, 2, 64, 100
4, 1401720, Note_on_c, 2, 64, 0
4, 1401720, Note_on_c, 2, 67, 100
4, 1401840, Note_on_c, 2, 67, 0
4, 1401840, Note_on_c, 2, 66, 100
4, 1402080, Note_on_c, 2, 66, 0
4, 1402080, Note_on_c, 2, 59, 100
4, 1402320, Note_on_c, 2, 59, 0
4, 1402320, Note_on_c, 2, 60, 100
4, 1402560, Note_on_c, 2, 60, 0
4, 1402560, Note_on_c, 2, 57, 100
4, 1402800, Note_on_c, 2, 57, 0
4, 1402800, Note_on_c, 2, 59, 100
4, 1403280, Note_on_c, 2, 59, 0
4, 1404480, Note_on_c, 2, 74, 100
4, 1404600, Note_on_c, 2, 74, 0
4, 1404600, Note_on_c, 2, 72, 100
4, 1404720, Note_on_c, 2, 72, 0
4, 1404720, Note_on_c, 2, 71, 100
4, 1404840, Note_on_c, 2, 71, 0
4, 1404840, Note_on_c, 2, 69, 100
4, 1404960, Note_on_c, 2, 69, 0
4, 1404960, Note_on_c, 2, 71, 100
4, 1405200, Note_on_c, 2, 71, 0
4, 1405200, Note_on_c, 2, 72, 100
4, 1405440, Note_on_c, 2, 72, 0
4, 1405440, Note_on_c, 2, 74, 100
4, 1405680, Note_on_c, 2, 74, 0
4, 1405680, Note_on_c, 2, 67, 100
4, 1405800, Note_on_c, 2, 67, 0
4, 1405800, Note_on_c, 2, 71, 100
4, 1405920, Note_on_c, 2, 71, 0
4, 1405920, Note_on_c, 2, 69, 100
4, 1406040, Note_on_c, 2, 69, 0
4, 1406040, Note_on_c, 2, 72, 100
4, 1406160, Note_on_c, 2, 72, 0
4, 1406160, Note_on_c, 2, 71, 100
4, 1406280, Note_on_c, 2, 71, 0
4, 1406280, Note_on_c, 2, 74, 100
4, 1406400, Note_on_c, 2, 74, 0
4, 1406400, Note_on_c, 2, 72, 100
4, 1407240, Note_on_c, 2, 72, 0
4, 1407240, Note_on_c, 2, 79, 100
4, 1407360, Note_on_c, 2, 79, 0
4, 1407360, Note_on_c, 2, 78, 100
4, 1407480, Note_on_c, 2, 78, 0
4, 1407480, Note_on_c, 2, 76, 100
4, 1407600, Note_on_c, 2, 76, 0
4, 1407600, Note_on_c, 2, 75, 100
4, 1407720, Note_on_c, 2, 75, 0
4, 1407720, Note_on_c, 2, 76, 100
4, 1407840, Note_on_c, 2, 76, 0
4, 1407840, Note_on_c, 2, 71, 100
4, 1408680, Note_on_c, 2, 71, 0
4, 1408680, Note_on_c, 2, 73, 100
4, 1408800, Note_on_c, 2, 73, 0
4, 1408800, Note_on_c, 2, 75, 100
4, 1408920, Note_on_c, 2, 75, 0
4, 1408920, Note_on_c, 2, 76, 100
4, 1409040, Note_on_c, 2, 76, 0
4, 1409040, Note_on_c, 2, 78, 100
4, 1409160, Note_on_c, 2, 78, 0
4, 1409160, Note_on_c, 2, 75, 100
4, 1409280, Note_on_c, 2, 75, 0
4, 1409280, Note_on_c, 2, 76, 100
4, 1409520, Note_on_c, 2, 76, 0
4, 1411440, Note_on_c, 2, 69, 100
4, 1411680, Note_on_c, 2, 69, 0
4, 1411680, Note_on_c, 2, 71, 100
4, 1411920, Note_on_c, 2, 71, 0
4, 1411920, Note_on_c, 2, 72, 100
4, 1412160, Note_on_c, 2, 72, 0
4, 1412160, Note_on_c, 2, 74, 100
4, 1412400, Note_on_c, 2, 74, 0
4, 1412400, Note_on_c, 2, 76, 100
4, 1412640, Note_on_c, 2, 76, 0
4, 1412640, Note_on_c, 2, 78, 100
4, 1412880, Note_on_c, 2, 78, 0
4, 1412880, Note_on_c, 2, 79, 100
4, 1413360, Note_on_c, 2, 79, 0
4, 1413360, Note_on_c, 2, 74, 100
4, 1413600, Note_on_c, 2, 74, 0
4, 1413600, Note_on_c, 2, 67, 100
4, 1413840, Note_on_c, 2, 67, 0
4, 1413840, Note_on_c, 2, 69, 100
4, 1414080, Note_on_c, 2, 69, 0
4, 1414080, Note_on_c, 2, 66, 100
4, 1414320, Note_on_c, 2, 66, 0
4, 1414320, Note_on_c, 2, 67, 100
4, 1414560, Note_on_c, 2, 67, 0
4, 1414560, Note_on_c, 2, 69, 100
4, 1414620, Note_on_c, 2, 69, 0
4, 1414620, Note_on_c, 2, 68, 100
4, 1414680, Note_on_c, 2, 68, 0
4, 1414680, Note_on_c, 2, 69, 100
4, 1414740, Note_on_c, 2, 69, 0
4, 1414740, Note_on_c, 2, 68, 100
4, 1414800, Note_on_c, 2, 68, 0
4, 1414800, Note_on_c, 2, 69, 100
4, 1414860, Note_on_c, 2, 69, 0
4, 1414860, Note_on_c, 2, 68, 100
4, 1414920, Note_on_c, 2, 68, 0
4, 1414920, Note_on_c, 2, 66, 100
4, 1414980, Note_on_c, 2, 66, 0
4, 1414980, Note_on_c, 2, 68, 100
4, 1415040, Note_on_c, 2, 68, 0
4, 1415040, Note_on_c, 2, 69, 100
4, 1415520, Note_on_c, 2, 69, 0
4, 1415520, Note_on_c, 2, 68, 100
4, 1415760, Note_on_c, 2, 68, 0
4, 1415760, Note_on_c, 2, 69, 100
4, 1416000, Note_on_c, 2, 69, 0
4, 1416000, Note_on_c, 2, 67, 100
4, 1416480, Note_on_c, 2, 67, 0
4, 1416480, Note_on_c, 2, 66, 100
4, 1416720, Note_on_c, 2, 66, 0
4, 1416720, Note_on_c, 2, 67, 100
4, 1416960, Note_on_c, 2, 67, 0
4, 1416960, Note_on_c, 2, 64, 100
4, 1417200, Note_on_c, 2, 64, 0
4, 1417200, Note_on_c, 2, 66, 100
4, 1417320, Note_on_c, 2, 66, 0
4, 1419600, Note_on_c, 2, 66, 100
4, 1419840, Note_on_c, 2, 66, 0
4, 1419840, Note_on_c, 2, 69, 100
4, 1419900, Note_on_c, 2, 69, 0
4, 1419900, Note_on_c, 2, 67, 100
4, 1419960, Note_on_c, 2, 67, 0
4, 1419960, Note_on_c, 2, 66, 100
4, 1420020, Note_on_c, 2, 66, 0
4, 1420020, Note_on_c, 2, 67, 100
4, 1420080, Note_on_c, 2, 67, 0
4, 1420080, Note_on_c, 2, 69, 100
4, 1420320, Note_on_c, 2, 69, 0
4, 1423080, Note_on_c, 2, 67, 100
4, 1423200, Note_on_c, 2, 67, 0
4, 1423200, Note_on_c, 2, 66, 100
4, 1423320, Note_on_c, 2, 66, 0
4, 1423320, Note_on_c, 2, 67, 100
4, 1423440, Note_on_c, 2, 67, 0
4, 1423440, Note_on_c, 2, 69, 100
4, 1423560, Note_on_c, 2, 69, 0
4, 1423560, Note_on_c, 2, 66, 100
4, 1423680, Note_on_c, 2, 66, 0
4, 1423680, Note_on_c, 2, 62, 100
4, 1424520, Note_on_c, 2, 62, 0
4, 1424520, Note_on_c, 2, 66, 100
4, 1424640, Note_on_c, 2, 66, 0
4, 1424640, Note_on_c, 2, 64, 100
4, 1424760, Note_on_c, 2, 64, 0
4, 1424760, Note_on_c, 2, 67, 100
4, 1424880, Note_on_c, 2, 67, 0
4, 1424880, Note_on_c, 2, 66, 100
4, 1425120, Note_on_c, 2, 66, 0
4, 1425120, Note_on_c, 2, 59, 100
4, 1425360, Note_on_c, 2, 59, 0
4, 1425360, Note_on_c, 2, 60, 100
4, 1425600, Note_on_c, 2, 60, 0
4, 1425600, Note_on_c, 2, 57, 100
4, 1425840, Note_on_c, 2, 57, 0
4, 1425840, Note_on_c, 2, 62, 100
4, 1427760, Note_on_c, 2, 62, 0
4, 1427760, Note_on_c, 2, 71, 100
4, 1427880, Note_on_c, 2, 71, 0
4, 1427880, Note_on_c, 2, 74, 100
4, 1428000, Note_on_c, 2, 74, 0
4, 1428000, Note_on_c, 2, 78, 100
4, 1428120, Note_on_c, 2, 78, 0
4, 1428120, Note_on_c, 2, 81, 100
4, 1428240, Note_on_c, 2, 81, 0
4, 1428240, Note_on_c, 2, 79, 100
4, 1428600, Note_on_c, 2, 79, 0
4, 1428600, Note_on_c, 2, 72, 100
4, 1428720, Note_on_c, 2, 72, 0
4, 1428720, Note_on_c, 2, 71, 100
4, 1428840, Note_on_c, 2, 71, 0
4, 1428840, Note_on_c, 2, 69, 100
4, 1428960, Note_on_c, 2, 69, 0
4, 1428960, Note_on_c, 2, 67, 100
4, 1429080, Note_on_c, 2, 67, 0
4, 1429080, Note_on_c, 2, 71, 100
4, 1429200, Note_on_c, 2, 71, 0
4, 1429200, Note_on_c, 2, 69, 100
4, 1429320, Note_on_c, 2, 69, 0
4, 1429320, Note_on_c, 2, 73, 100
4, 1429440, Note_on_c, 2, 73, 0
4, 1429440, Note_on_c, 2, 76, 100
4, 1429560, Note_on_c, 2, 76, 0
4, 1429560, Note_on_c, 2, 79, 100
4, 1429680, Note_on_c, 2, 79, 0
4, 1429680, Note_on_c, 2, 78, 100
4, 1430040, Note_on_c, 2, 78, 0
4, 1430040, Note_on_c, 2, 71, 100
4, 1430160, Note_on_c, 2, 71, 0
4, 1430160, Note_on_c, 2, 69, 100
4, 1430280, Note_on_c, 2, 69, 0
4, 1430280, Note_on_c, 2, 67, 100
4, 1430400, Note_on_c, 2, 67, 0
4, 1430400, Note_on_c, 2, 66, 100
4, 1430520, Note_on_c, 2, 66, 0
4, 1430520, Note_on_c, 2, 69, 100
4, 1430640, Note_on_c, 2, 69, 0
4, 1430640, Note_on_c, 2, 67, 100
4, 1430760, Note_on_c, 2, 67, 0
4, 1430760, Note_on_c, 2, 71, 100
4, 1430880, Note_on_c, 2, 71, 0
4, 1430880, Note_on_c, 2, 74, 100
4, 1431000, Note_on_c, 2, 74, 0
4, 1431000, Note_on_c, 2, 78, 100
4, 1431120, Note_on_c, 2, 78, 0
4, 1431120, Note_on_c, 2, 76, 100
4, 1431480, Note_on_c, 2, 76, 0
4, 1431480, Note_on_c, 2, 69, 100
4, 1431600, Note_on_c, 2, 69, 0
4, 1431600, Note_on_c, 2, 67, 100
4, 1431720, Note_on_c, 2, 67, 0
4, 1431720, Note_on_c, 2, 66, 100
4, 1431840, Note_on_c, 2, 66, 0
4, 1431840, Note_on_c, 2, 64, 100
4, 1431960, Note_on_c, 2, 64, 0
4, 1431960, Note_on_c, 2, 67, 100
4, 1432080, Note_on_c, 2, 67, 0
4, 1432080, Note_on_c, 2, 66, 100
4, 1432200, Note_on_c, 2, 66, 0
4, 1432200, Note_on_c, 2, 64, 100
4, 1432320, Note_on_c, 2, 64, 0
4, 1432320, Note_on_c, 2, 66, 100
4, 1432440, Note_on_c, 2, 66, 0
4, 1432440, Note_on_c, 2, 64, 100
4, 1432560, Note_on_c, 2, 64, 0
4, 1432560, Note_on_c, 2, 66, 100
4, 1432680, Note_on_c, 2, 66, 0
4, 1432680, Note_on_c, 2, 69, 100
4, 1432800, Note_on_c, 2, 69, 0
4, 1432800, Note_on_c, 2, 74, 100
4, 1432920, Note_on_c, 2, 74, 0
4, 1432920, Note_on_c, 2, 73, 100
4, 1433040, Note_on_c, 2, 73, 0
4, 1433040, Note_on_c, 2, 74, 100
4, 1433160, Note_on_c, 2, 74, 0
4, 1433160, Note_on_c, 2, 78, 100
4, 1433280, Note_on_c, 2, 78, 0
4, 1433280, Note_on_c, 2, 81, 100
4, 1433400, Note_on_c, 2, 81, 0
4, 1433400, Note_on_c, 2, 72, 100
4, 1433520, Note_on_c, 2, 72, 0
4, 1433520, Note_on_c, 2, 71, 100
4, 1433640, Note_on_c, 2, 71, 0
4, 1433640, Note_on_c, 2, 79, 100
4, 1433760, Note_on_c, 2, 79, 0
4, 1433760, Note_on_c, 2, 69, 100
4, 1433880, Note_on_c, 2, 69, 0
4, 1433880, Note_on_c, 2, 78, 100
4, 1434000, Note_on_c, 2, 78, 0
4, 1434000, Note_on_c, 2, 67, 100
4, 1434120, Note_on_c, 2, 67, 0
4, 1434120, Note_on_c, 2, 76, 100
4, 1434240, Note_on_c, 2, 76, 0
4, 1434240, Note_on_c, 2, 65, 100
4, 1434360, Note_on_c, 2, 65, 0
4, 1434360, Note_on_c, 2, 74, 100
4, 1434480, Note_on_c, 2, 74, 0
4, 1434480, Note_on_c, 2, 64, 100
4, 1434600, Note_on_c, 2, 64, 0
4, 1434600, Note_on_c, 2, 72, 100
4, 1434720, Note_on_c, 2, 72, 0
4, 1434720, Note_on_c, 2, 62, 100
4, 1434840, Note_on_c, 2, 62, 0
4, 1434840, Note_on_c, 2, 71, 100
4, 1434960, Note_on_c, 2, 71, 0
4, 1434960, Note_on_c, 2, 72, 100
4, 1435080, Note_on_c, 2, 72, 0
4, 1435080, Note_on_c, 2, 64, 100
4, 1435200, Note_on_c, 2, 64, 0
4, 1435200, Note_on_c, 2, 71, 100
4, 1435320, Note_on_c, 2, 71, 0
4, 1435320, Note_on_c, 2, 62, 100
4, 1435440, Note_on_c, 2, 62, 0
4, 1435440, Note_on_c, 2, 69, 100
4, 1435560, Note_on_c, 2, 69, 0
4, 1435560, Note_on_c, 2, 60, 100
4, 1435680, Note_on_c, 2, 60, 0
4, 1435680, Note_on_c, 2, 67, 100
4, 1435800, Note_on_c, 2, 67, 0
4, 1435800, Note_on_c, 2, 59, 100
4, 1435920, Note_on_c, 2, 59, 0
4, 1435920, Note_on_c, 2, 66, 100
4, 1436040, Note_on_c, 2, 66, 0
4, 1436040, Note_on_c, 2, 57, 100
4, 1436160, Note_on_c, 2, 57, 0
4, 1436160, Note_on_c, 2, 64, 100
4, 1436280, Note_on_c, 2, 64, 0
4, 1436280, Note_on_c, 2, 55, 100
4, 1436400, Note_on_c, 2, 55, 0
4, 1436400, Note_on_c, 2, 57, 100
4, 1436520, Note_on_c, 2, 57, 0
4, 1436520, Note_on_c, 2, 66, 100
4, 1436640, Note_on_c, 2, 66, 0
4, 1436640, Note_on_c, 2, 55, 100
4, 1436760, Note_on_c, 2, 55, 0
4, 1436760, Note_on_c, 2, 64, 100
4, 1436880, Note_on_c, 2, 64, 0
4, 1436880, Note_on_c, 2, 54, 100
4, 1437000, Note_on_c, 2, 54, 0
4, 1437000, Note_on_c, 2, 62, 100
4, 1437120, Note_on_c, 2, 62, 0
4, 1437120, Note_on_c, 2, 52, 100
4, 1437240, Note_on_c, 2, 52, 0
4, 1437240, Note_on_c, 2, 60, 100
4, 1437360, Note_on_c, 2, 60, 0
4, 1437360, Note_on_c, 2, 50, 100
4, 1437480, Note_on_c, 2, 50, 0
4, 1437480, Note_on_c, 2, 59, 100
4, 1437600, Note_on_c, 2, 59, 0
4, 1437600, Note_on_c, 2, 48, 100
4, 1437720, Note_on_c, 2, 48, 0
4, 1437720, Note_on_c, 2, 57, 100
4, 1437840, Note_on_c, 2, 57, 0
4, 1437840, Note_on_c, 2, 47, 100
4, 1437960, Note_on_c, 2, 47, 0
4, 1437960, Note_on_c, 2, 45, 100
4, 1438080, Note_on_c, 2, 45, 0
4, 1438080, Note_on_c, 2, 47, 100
4, 1438200, Note_on_c, 2, 47, 0
4, 1438200, Note_on_c, 2, 45, 100
4, 1438320, Note_on_c, 2, 45, 0
4, 1438320, Note_on_c, 2, 47, 100
4, 1438440, Note_on_c, 2, 47, 0
4, 1438440, Note_on_c, 2, 50, 100
4, 1438560, Note_on_c, 2, 50, 0
4, 1438560, Note_on_c, 2, 55, 100
4, 1438680, Note_on_c, 2, 55, 0
4, 1438680, Note_on_c, 2, 54, 100
4, 1438800, Note_on_c, 2, 54, 0
4, 1438800, Note_on_c, 2, 55, 100
4, 1439040, Note_on_c, 2, 55, 0
4, 1439280, Note_on_c, 2, 74, 100
4, 1439400, Note_on_c, 2, 74, 0
4, 1439400, Note_on_c, 2, 83, 100
4, 1439520, Note_on_c, 2, 83, 0
4, 1439520, Note_on_c, 2, 72, 100
4, 1439640, Note_on_c, 2, 72, 0
4, 1439640, Note_on_c, 2, 81, 100
4, 1439760, Note_on_c, 2, 81, 0
4, 1439760, Note_on_c, 2, 71, 100
4, 1439880, Note_on_c, 2, 71, 0
4, 1439880, Note_on_c, 2, 79, 100
4, 1440000, Note_on_c, 2, 79, 0
4, 1440000, Note_on_c, 2, 69, 100
4, 1440120, Note_on_c, 2, 69, 0
4, 1440120, Note_on_c, 2, 78, 100
4, 1440240, Note_on_c, 2, 78, 0
4, 1440240, Note_on_c, 2, 67, 100
4, 1440360, Note_on_c, 2, 67, 0
4, 1440360, Note_on_c, 2, 76, 100
4, 1440480, Note_on_c, 2, 76, 0
4, 1440480, Note_on_c, 2, 66, 100
4, 1440600, Note_on_c, 2, 66, 0
4, 1440600, Note_on_c, 2, 74, 100
4, 1440720, Note_on_c, 2, 74, 0
4, 1440720, Note_on_c, 2, 64, 100
4, 1440840, Note_on_c, 2, 64, 0
4, 1440840, Note_on_c, 2, 74, 100
4, 1440960, Note_on_c, 2, 74, 0
4, 1440960, Note_on_c, 2, 73, 100
4, 1441080, Note_on_c, 2, 73, 0
4, 1441080, Note_on_c, 2, 71, 100
4, 1441200, Note_on_c, 2, 71, 0
4, 1441200, Note_on_c, 2, 73, 100
4, 1441320, Note_on_c, 2, 73, 0
4, 1441320, Note_on_c, 2, 76, 100
4, 1441440, Note_on_c, 2, 76, 0
4, 1441440, Note_on_c, 2, 81, 100
4, 1441680, Note_on_c, 2, 81, 0
4, 1441680, Note_on_c, 2, 81, 100
4, 1441740, Note_on_c, 2, 81, 0
4, 1441740, Note_on_c, 2, 79, 100
4, 1441800, Note_on_c, 2, 79, 0
4, 1441800, Note_on_c, 2, 81, 100
4, 1441920, Note_on_c, 2, 81, 0
4, 1442160, Note_on_c, 2, 71, 100
4, 1442280, Note_on_c, 2, 71, 0
4, 1442280, Note_on_c, 2, 79, 100
4, 1442400, Note_on_c, 2, 79, 0
4, 1442400, Note_on_c, 2, 69, 100
4, 1442520, Note_on_c, 2, 69, 0
4, 1442520, Note_on_c, 2, 78, 100
4, 1442640, Note_on_c, 2, 78, 0
4, 1442640, Note_on_c, 2, 67, 100
4, 1442760, Note_on_c, 2, 67, 0
4, 1442760, Note_on_c, 2, 76, 100
4, 1442880, Note_on_c, 2, 76, 0
4, 1442880, Note_on_c, 2, 66, 100
4, 1443000, Note_on_c, 2, 66, 0
4, 1443000, Note_on_c, 2, 74, 100
4, 1443120, Note_on_c, 2, 74, 0
4, 1443120, Note_on_c, 2, 64, 100
4, 1443240, Note_on_c, 2, 64, 0
4, 1443240, Note_on_c, 2, 73, 100
4, 1443360, Note_on_c, 2, 73, 0
4, 1443360, Note_on_c, 2, 62, 100
4, 1443480, Note_on_c, 2, 62, 0
4, 1443480, Note_on_c, 2, 71, 100
4, 1443600, Note_on_c, 2, 71, 0
4, 1443600, Note_on_c, 2, 61, 100
4, 1443720, Note_on_c, 2, 61, 0
4, 1443720, Note_on_c, 2, 71, 100
4, 1443840, Note_on_c, 2, 71, 0
4, 1443840, Note_on_c, 2, 69, 100
4, 1443960, Note_on_c, 2, 69, 0
4, 1443960, Note_on_c, 2, 68, 100
4, 1444080, Note_on_c, 2, 68, 0
4, 1444080, Note_on_c, 2, 69, 100
4, 1444200, Note_on_c, 2, 69, 0
4, 1444200, Note_on_c, 2, 73, 100
4, 1444320, Note_on_c, 2, 73, 0
4, 1444320, Note_on_c, 2, 76, 100
4, 1444560, Note_on_c, 2, 76, 0
4, 1444560, Note_on_c, 2, 76, 100
4, 1444620, Note_on_c, 2, 76, 0
4, 1444620, Note_on_c, 2, 74, 100
4, 1444680, Note_on_c, 2, 74, 0
4, 1444680, Note_on_c, 2, 76, 100
4, 1445160, Note_on_c, 2, 76, 0
4, 1445160, Note_on_c, 2, 74, 100
4, 1445280, Note_on_c, 2, 74, 0
4, 1445280, Note_on_c, 2, 76, 100
4, 1445400, Note_on_c, 2, 76, 0
4, 1445400, Note_on_c, 2, 73, 100
4, 1445520, Note_on_c, 2, 73, 0
4, 1445520, Note_on_c, 2, 74, 100
4, 1445640, Note_on_c, 2, 74, 0
4, 1445640, Note_on_c, 2, 71, 100
4, 1445760, Note_on_c, 2, 71, 0
4, 1445760, Note_on_c, 2, 72, 100
4, 1445880, Note_on_c, 2, 72, 0
4, 1445880, Note_on_c, 2, 69, 100
4, 1446000, Note_on_c, 2, 69, 0
4, 1446000, Note_on_c, 2, 71, 100
4, 1446120, Note_on_c, 2, 71, 0
4, 1446120, Note_on_c, 2, 67, 100
4, 1446240, Note_on_c, 2, 67, 0
4, 1446240, Note_on_c, 2, 69, 100
4, 1446360, Note_on_c, 2, 69, 0
4, 1446360, Note_on_c, 2, 66, 100
4, 1446480, Note_on_c, 2, 66, 0
4, 1446480, Note_on_c, 2, 67, 100
4, 1446600, Note_on_c, 2, 67, 0
4, 1446600, Note_on_c, 2, 76, 100
4, 1446720, Note_on_c, 2, 76, 0
4, 1446720, Note_on_c, 2, 66, 100
4, 1446840, Note_on_c, 2, 66, 0
4, 1446840, Note_on_c, 2, 74, 100
4, 1446960, Note_on_c, 2, 74, 0
4, 1446960, Note_on_c, 2, 64, 100
4, 1447080, Note_on_c, 2, 64, 0
4, 1447080, Note_on_c, 2, 73, 100
4, 1447200, Note_on_c, 2, 73, 0
4, 1447200, Note_on_c, 2, 74, 100
4, 1447230, Note_on_c, 2, 74, 0
4, 1447230, Note_on_c, 2, 73, 100
4, 1447320, Note_on_c, 2, 73, 0
4, 1447320, Note_on_c, 2, 71, 100
4, 1447440, Note_on_c, 2, 71, 0
4, 1447440, Note_on_c, 2, 73, 100
4, 1447470, Note_on_c, 2, 73, 0
4, 1447470, Note_on_c, 2, 71, 100
4, 1447560, Note_on_c, 2, 71, 0
4, 1447560, Note_on_c, 2, 69, 100
4, 1447680, Note_on_c, 2, 69, 0
4, 1447680, Note_on_c, 2, 71, 100
4, 1447800, Note_on_c, 2, 71, 0
4, 1447800, Note_on_c, 2, 79, 100
4, 1447920, Note_on_c, 2, 79, 0
4, 1447920, Note_on_c, 2, 79, 100
4, 1448280, Note_on_c, 2, 79, 0
4, 1448280, Note_on_c, 2, 78, 100
4, 1448340, Note_on_c, 2, 78, 0
4, 1448340, Note_on_c, 2, 76, 100
4, 1448400, Note_on_c, 2, 76, 0
4, 1448400, Note_on_c, 2, 78, 100
4, 1448520, Note_on_c, 2, 78, 0
4, 1448520, Note_on_c, 2, 74, 100
4, 1448640, Note_on_c, 2, 74, 0
4, 1448640, Note_on_c, 2, 71, 100
4, 1448760, Note_on_c, 2, 71, 0
4, 1448760, Note_on_c, 2, 67, 100
4, 1448880, Note_on_c, 2, 67, 0
4, 1448880, Note_on_c, 2, 69, 100
4, 1449000, Note_on_c, 2, 69, 0
4, 1449000, Note_on_c, 2, 66, 100
4, 1449120, Note_on_c, 2, 66, 0
4, 1449120, Note_on_c, 2, 67, 100
4, 1449240, Note_on_c, 2, 67, 0
4, 1449240, Note_on_c, 2, 76, 100
4, 1449360, Note_on_c, 2, 76, 0
4, 1449360, Note_on_c, 2, 66, 100
4, 1449480, Note_on_c, 2, 66, 0
4, 1449480, Note_on_c, 2, 64, 100
4, 1449600, Note_on_c, 2, 64, 0
4, 1449600, Note_on_c, 2, 66, 100
4, 1449720, Note_on_c, 2, 66, 0
4, 1449720, Note_on_c, 2, 64, 100
4, 1449840, Note_on_c, 2, 64, 0
4, 1449840, Note_on_c, 2, 66, 100
4, 1449960, Note_on_c, 2, 66, 0
4, 1449960, Note_on_c, 2, 69, 100
4, 1450080, Note_on_c, 2, 69, 0
4, 1450080, Note_on_c, 2, 74, 100
4, 1450200, Note_on_c, 2, 74, 0
4, 1450200, Note_on_c, 2, 73, 100
4, 1450320, Note_on_c, 2, 73, 0
4, 1450320, Note_on_c, 2, 74, 100
4, 1450560, Note_on_c, 2, 74, 0
4, 1450800, Note_on_c, 2, 71, 100
4, 1450920, Note_on_c, 2, 71, 0
4, 1450920, Note_on_c, 2, 74, 100
4, 1451040, Note_on_c, 2, 74, 0
4, 1451040, Note_on_c, 2, 78, 100
4, 1451160, Note_on_c, 2, 78, 0
4, 1451160, Note_on_c, 2, 81, 100
4, 1451280, Note_on_c, 2, 81, 0
4, 1451280, Note_on_c, 2, 79, 100
4, 1451640, Note_on_c, 2, 79, 0
4, 1451640, Note_on_c, 2, 72, 100
4, 1451760, Note_on_c, 2, 72, 0
4, 1451760, Note_on_c, 2, 71, 100
4, 1451880, Note_on_c, 2, 71, 0
4, 1451880, Note_on_c, 2, 69, 100
4, 1452000, Note_on_c, 2, 69, 0
4, 1452000, Note_on_c, 2, 67, 100
4, 1452120, Note_on_c, 2, 67, 0
4, 1452120, Note_on_c, 2, 71, 100
4, 1452240, Note_on_c, 2, 71, 0
4, 1452240, Note_on_c, 2, 69, 100
4, 1452360, Note_on_c, 2, 69, 0
4, 1452360, Note_on_c, 2, 73, 100
4, 1452480, Note_on_c, 2, 73, 0
4, 1452480, Note_on_c, 2, 76, 100
4, 1452600, Note_on_c, 2, 76, 0
4, 1452600, Note_on_c, 2, 79, 100
4, 1452720, Note_on_c, 2, 79, 0
4, 1452720, Note_on_c, 2, 78, 100
4, 1453080, Note_on_c, 2, 78, 0
4, 1453080, Note_on_c, 2, 71, 100
4, 1453200, Note_on_c, 2, 71, 0
4, 1453200, Note_on_c, 2, 69, 100
4, 1453320, Note_on_c, 2, 69, 0
4, 1453320, Note_on_c, 2, 67, 100
4, 1453440, Note_on_c, 2, 67, 0
4, 1453440, Note_on_c, 2, 66, 100
4, 1453560, Note_on_c, 2, 66, 0
4, 1453560, Note_on_c, 2, 69, 100
4, 1453680, Note_on_c, 2, 69, 0
4, 1453680, Note_on_c, 2, 67, 100
4, 1453800, Note_on_c, 2, 67, 0
4, 1453800, Note_on_c, 2, 71, 100
4, 1453920, Note_on_c, 2, 71, 0
4, 1453920, Note_on_c, 2, 74, 100
4, 1454040, Note_on_c, 2, 74, 0
4, 1454040, Note_on_c, 2, 78, 100
4, 1454160, Note_on_c, 2, 78, 0
4, 1454160, Note_on_c, 2, 76, 100
4, 1454520, Note_on_c, 2, 76, 0
4, 1454520, Note_on_c, 2, 69, 100
4, 1454640, Note_on_c, 2, 69, 0
4, 1454640, Note_on_c, 2, 67, 100
4, 1454760, Note_on_c, 2, 67, 0
4, 1454760, Note_on_c, 2, 66, 100
4, 1454880, Note_on_c, 2, 66, 0
4, 1454880, Note_on_c, 2, 64, 100
4, 1455000, Note_on_c, 2, 64, 0
4, 1455000, Note_on_c, 2, 67, 100
4, 1455120, Note_on_c, 2, 67, 0
4, 1455120, Note_on_c, 2, 66, 100
4, 1455240, Note_on_c, 2, 66, 0
4, 1455240, Note_on_c, 2, 64, 100
4, 1455360, Note_on_c, 2, 64, 0
4, 1455360, Note_on_c, 2, 66, 100
4, 1455480, Note_on_c, 2, 66, 0
4, 1455480, Note_on_c, 2, 64, 100
4, 1455600, Note_on_c, 2, 64, 0
4, 1455600, Note_on_c, 2, 66, 100
4, 1455720, Note_on_c, 2, 66, 0
4, 1455720, Note_on_c, 2, 69, 100
4, 1455840, Note_on_c, 2, 69, 0
4, 1455840, Note_on_c, 2, 74, 100
4, 1455960, Note_on_c, 2, 74, 0
4, 1455960, Note_on_c, 2, 73, 100
4, 1456080, Note_on_c, 2, 73, 0
4, 1456080, Note_on_c, 2, 74, 100
4, 1456200, Note_on_c, 2, 74, 0
4, 1456200, Note_on_c, 2, 78, 100
4, 1456320, Note_on_c, 2, 78, 0
4, 1456320, Note_on_c, 2, 81, 100
4, 1456440, Note_on_c, 2, 81, 0
4, 1456440, Note_on_c, 2, 72, 100
4, 1456560, Note_on_c, 2, 72, 0
4, 1456560, Note_on_c, 2, 71, 100
4, 1456680, Note_on_c, 2, 71, 0
4, 1456680, Note_on_c, 2, 79, 100
4, 1456800, Note_on_c, 2, 79, 0
4, 1456800, Note_on_c, 2, 69, 100
4, 1456920, Note_on_c, 2, 69, 0
4, 1456920, Note_on_c, 2, 78, 100
4, 1457040, Note_on_c, 2, 78, 0
4, 1457040, Note_on_c, 2, 67, 100
4, 1457160, Note_on_c, 2, 67, 0
4, 1457160, Note_on_c, 2, 76, 100
4, 1457280, Note_on_c, 2, 76, 0
4, 1457280, Note_on_c, 2, 65, 100
4, 1457400, Note_on_c, 2, 65, 0
4, 1457400, Note_on_c, 2, 74, 100
4, 1457520, Note_on_c, 2, 74, 0
4, 1457520, Note_on_c, 2, 64, 100
4, 1457640, Note_on_c, 2, 64, 0
4, 1457640, Note_on_c, 2, 72, 100
4, 1457760, Note_on_c, 2, 72, 0
4, 1457760, Note_on_c, 2, 62, 100
4, 1457880, Note_on_c, 2, 62, 0
4, 1457880, Note_on_c, 2, 71, 100
4, 1458000, Note_on_c, 2, 71, 0
4, 1458000, Note_on_c, 2, 72, 100
4, 1458120, Note_on_c, 2, 72, 0
4, 1458120, Note_on_c, 2, 64, 100
4, 1458240, Note_on_c, 2, 64, 0
4, 1458240, Note_on_c, 2, 71, 100
4, 1458360, Note_on_c, 2, 71, 0
4, 1458360, Note_on_c, 2, 62, 100
4, 1458480, Note_on_c, 2, 62, 0
4, 1458480, Note_on_c, 2, 69, 100
4, 1458600, Note_on_c, 2, 69, 0
4, 1458600, Note_on_c, 2, 60, 100
4, 1458720, Note_on_c, 2, 60, 0
4, 1458720, Note_on_c, 2, 67, 100
4, 1458840, Note_on_c, 2, 67, 0
4, 1458840, Note_on_c, 2, 59, 100
4, 1458960, Note_on_c, 2, 59, 0
4, 1458960, Note_on_c, 2, 66, 100
4, 1459080, Note_on_c, 2, 66, 0
4, 1459080, Note_on_c, 2, 57, 100
4, 1459200, Note_on_c, 2, 57, 0
4, 1459200, Note_on_c, 2, 64, 100
4, 1459320, Note_on_c, 2, 64, 0
4, 1459320, Note_on_c, 2, 55, 100
4, 1459440, Note_on_c, 2, 55, 0
4, 1459440, Note_on_c, 2, 57, 100
4, 1459560, Note_on_c, 2, 57, 0
4, 1459560, Note_on_c, 2, 66, 100
4, 1459680, Note_on_c, 2, 66, 0
4, 1459680, Note_on_c, 2, 55, 100
4, 1459800, Note_on_c, 2, 55, 0
4, 1459800, Note_on_c, 2, 64, 100
4, 1459920, Note_on_c, 2, 64, 0
4, 1459920, Note_on_c, 2, 54, 100
4, 1460040, Note_on_c, 2, 54, 0
4, 1460040, Note_on_c, 2, 62, 100
4, 1460160, Note_on_c, 2, 62, 0
4, 1460160, Note_on_c, 2, 52, 100
4, 1460280, Note_on_c, 2, 52, 0
4, 1460280, Note_on_c, 2, 60, 100
4, 1460400, Note_on_c, 2, 60, 0
4, 1460400, Note_on_c, 2, 50, 100
4, 1460520, Note_on_c, 2, 50, 0
4, 1460520, Note_on_c, 2, 59, 100
4, 1460640, Note_on_c, 2, 59, 0
4, 1460640, Note_on_c, 2, 48, 100
4, 1460760, Note_on_c, 2, 48, 0
4, 1460760, Note_on_c, 2, 57, 100
4, 1460880, Note_on_c, 2, 57, 0
4, 1460880, Note_on_c, 2, 47, 100
4, 1461000, Note_on_c, 2, 47, 0
4, 1461000, Note_on_c, 2, 45, 100
4, 1461120, Note_on_c, 2, 45, 0
4, 1461120, Note_on_c, 2, 47, 100
4, 1461240, Note_on_c, 2, 47, 0
4, 1461240, Note_on_c, 2, 45, 100
4, 1461360, Note_on_c, 2, 45, 0
4, 1461360, Note_on_c, 2, 47, 100
4, 1461480, Note_on_c, 2, 47, 0
4, 1461480, Note_on_c, 2, 50, 100
4, 1461600, Note_on_c, 2, 50, 0
4, 1461600, Note_on_c, 2, 55, 100
4, 1461720, Note_on_c, 2, 55, 0
4, 1461720, Note_on_c, 2, 54, 100
4, 1461840, Note_on_c, 2, 54, 0
4, 1461840, Note_on_c, 2, 55, 100
4, 1462080, Note_on_c, 2, 55, 0
4, 1462320, Note_on_c, 2, 74, 100
4, 1462440, Note_on_c, 2, 74, 0
4, 1462440, Note_on_c, 2, 83, 100
4, 1462560, Note_on_c, 2, 83, 0
4, 1462560, Note_on_c, 2, 72, 100
4, 1462680, Note_on_c, 2, 72, 0
4, 1462680, Note_on_c, 2, 81, 100
4, 1462800, Note_on_c, 2, 81, 0
4, 1462800, Note_on_c, 2, 71, 100
4, 1462920, Note_on_c, 2, 71, 0
4, 1462920, Note_on_c, 2, 79, 100
4, 1463040, Note_on_c, 2, 79, 0
4, 1463040, Note_on_c, 2, 69, 100
4, 1463160, Note_on_c, 2, 69, 0
4, 1463160, Note_on_c, 2, 78, 100
4, 1463280, Note_on_c, 2, 78, 0
4, 1463280, Note_on_c, 2, 67, 100
4, 1463400, Note_on_c, 2, 67, 0
4, 1463400, Note_on_c, 2, 76, 100
4, 1463520, Note_on_c, 2, 76, 0
4, 1463520, Note_on_c, 2, 66, 100
4, 1463640, Note_on_c, 2, 66, 0
4, 1463640, Note_on_c, 2, 74, 100
4, 1463760, Note_on_c, 2, 74, 0
4, 1463760, Note_on_c, 2, 64, 100
4, 1463880, Note_on_c, 2, 64, 0
4, 1463880, Note_on_c, 2, 74, 100
4, 1464000, Note_on_c, 2, 74, 0
4, 1464000, Note_on_c, 2, 73, 100
4, 1464120, Note_on_c, 2, 73, 0
4, 1464120, Note_on_c, 2, 71, 100
4, 1464240, Note_on_c, 2, 71, 0
4, 1464240, Note_on_c, 2, 73, 100
4, 1464360, Note_on_c, 2, 73, 0
4, 1464360, Note_on_c, 2, 76, 100
4, 1464480, Note_on_c, 2, 76, 0
4, 1464480, Note_on_c, 2, 81, 100
4, 1464720, Note_on_c, 2, 81, 0
4, 1464720, Note_on_c, 2, 81, 100
4, 1464780, Note_on_c, 2, 81, 0
4, 1464780, Note_on_c, 2, 79, 100
4, 1464840, Note_on_c, 2, 79, 0
4, 1464840, Note_on_c, 2, 81, 100
4, 1464960, Note_on_c, 2, 81, 0
4, 1465200, Note_on_c, 2, 71, 100
4, 1465320, Note_on_c, 2, 71, 0
4, 1465320, Note_on_c, 2, 79, 100
4, 1465440, Note_on_c, 2, 79, 0
4, 1465440, Note_on_c, 2, 69, 100
4, 1465560, Note_on_c, 2, 69, 0
4, 1465560, Note_on_c, 2, 78, 100
4, 1465680, Note_on_c, 2, 78, 0
4, 1465680, Note_on_c, 2, 67, 100
4, 1465800, Note_on_c, 2, 67, 0
4, 1465800, Note_on_c, 2, 76, 100
4, 1465920, Note_on_c, 2, 76, 0
4, 1465920, Note_on_c, 2, 66, 100
4, 1466040, Note_on_c, 2, 66, 0
4, 1466040, Note_on_c, 2, 74, 100
4, 1466160, Note_on_c, 2, 74, 0
4, 1466160, Note_on_c, 2, 64, 100
4, 1466280, Note_on_c, 2, 64, 0
4, 1466280, Note_on_c, 2, 73, 100
4, 1466400, Note_on_c, 2, 73, 0
4, 1466400, Note_on_c, 2, 62, 100
4, 1466520, Note_on_c, 2, 62, 0
4, 1466520, Note_on_c, 2, 71, 100
4, 1466640, Note_on_c, 2, 71, 0
4, 1466640, Note_on_c, 2, 61, 100
4, 1466760, Note_on_c, 2, 61, 0
4, 1466760, Note_on_c, 2, 71, 100
4, 1466880, Note_on_c, 2, 71, 0
4, 1466880, Note_on_c, 2, 69, 100
4, 1467000, Note_on_c, 2, 69, 0
4, 1467000, Note_on_c, 2, 68, 100
4, 1467120, Note_on_c, 2, 68, 0
4, 1467120, Note_on_c, 2, 69, 100
4, 1467240, Note_on_c, 2, 69, 0
4, 1467240, Note_on_c, 2, 73, 100
4, 1467360, Note_on_c, 2, 73, 0
4, 1467360, Note_on_c, 2, 76, 100
4, 1467600, Note_on_c, 2, 76, 0
4, 1467600, Note_on_c, 2, 76, 100
4, 1467660, Note_on_c, 2, 76, 0
4, 1467660, Note_on_c, 2, 74, 100
4, 1467720, Note_on_c, 2, 74, 0
4, 1467720, Note_on_c, 2, 76, 100
4, 1468200, Note_on_c, 2, 76, 0
4, 1468200, Note_on_c, 2, 74, 100
4, 1468320, Note_on_c, 2, 74, 0
4, 1468320, Note_on_c, 2, 76, 100
4, 1468440, Note_on_c, 2, 76, 0
4, 1468440, Note_on_c, 2, 73, 100
4, 1468560, Note_on_c, 2, 73, 0
4, 1468560, Note_on_c, 2, 74, 100
4, 1468680, Note_on_c, 2, 74, 0
4, 1468680, Note_on_c, 2, 71, 100
4, 1468800, Note_on_c, 2, 71, 0
4, 1468800, Note_on_c, 2, 72, 100
4, 1468920, Note_on_c, 2, 72, 0
4, 1468920, Note_on_c, 2, 69, 100
4, 1469040, Note_on_c, 2, 69, 0
4, 1469040, Note_on_c, 2, 71, 100
4, 1469160, Note_on_c, 2, 71, 0
4, 1469160, Note_on_c, 2, 67, 100
4, 1469280, Note_on_c, 2, 67, 0
4, 1469280, Note_on_c, 2, 69, 100
4, 1469400, Note_on_c, 2, 69, 0
4, 1469400, Note_on_c, 2, 66, 100
4, 1469520, Note_on_c, 2, 66, 0
4, 1469520, Note_on_c, 2, 67, 100
4, 1469640, Note_on_c, 2, 67, 0
4, 1469640, Note_on_c, 2, 76, 100
4, 1469760, Note_on_c, 2, 76, 0
4, 1469760, Note_on_c, 2, 66, 100
4, 1469880, Note_on_c, 2, 66, 0
4, 1469880, Note_on_c, 2, 74, 100
4, 1470000, Note_on_c, 2, 74, 0
4, 1470000, Note_on_c, 2, 64, 100
4, 1470120, Note_on_c, 2, 64, 0
4, 1470120, Note_on_c, 2, 73, 100
4, 1470240, Note_on_c, 2, 73, 0
4, 1470240, Note_on_c, 2, 74, 100
4, 1470270, Note_on_c, 2, 74, 0
4, 1470270, Note_on_c, 2, 73, 100
4, 1470360, Note_on_c, 2, 73, 0
4, 1470360, Note_on_c, 2, 71, 100
4, 1470480, Note_on_c, 2, 71, 0
4, 1470480, Note_on_c, 2, 73, 100
4, 1470510, Note_on_c, 2, 73, 0
4, 1470510, Note_on_c, 2, 71, 100
4, 1470600, Note_on_c, 2, 71, 0
4, 1470600, Note_on_c, 2, 69, 100
4, 1470720, Note_on_c, 2, 69, 0
4, 1470720, Note_on_c, 2, 71, 100
4, 1470840, Note_on_c, 2, 71, 0
4, 1470840, Note_on_c, 2, 79, 100
4, 1470960, Note_on_c, 2, 79, 0
4, 1470960, Note_on_c, 2, 79, 100
4, 1471320, Note_on_c, 2, 79, 0
4, 1471320, Note_on_c, 2, 78, 100
4, 1471380, Note_on_c, 2, 78, 0
4, 1471380, Note_on_c, 2, 76, 100
4, 1471440, Note_on_c, 2, 76, 0
4, 1471440, Note_on_c, 2, 78, 100
4, 1471560, Note_on_c, 2, 78, 0
4, 1471560, Note_on_c, 2, 74, 100
4, 1471680, Note_on_c, 2, 74, 0
4, 1471680, Note_on_c, 2, 71, 100
4, 1471800, Note_on_c, 2, 71, 0
4, 1471800, Note_on_c, 2, 67, 100
4, 1471920, Note_on_c, 2, 67, 0
4, 1471920, Note_on_c, 2, 69, 100
4, 1472040, Note_on_c, 2, 69, 0
4, 1472040, Note_on_c, 2, 66, 100
4, 1472160, Note_on_c, 2, 66, 0
4, 1472160, Note_on_c, 2, 67, 100
4, 1472280, Note_on_c, 2, 67, 0
4, 1472280, Note_on_c, 2, 76, 100
4, 1472400, Note_on_c, 2, 76, 0
4, 1472400, Note_on_c, 2, 66, 100
4, 1472520, Note_on_c, 2, 66, 0
4, 1472520, Note_on_c, 2, 64, 100
4, 1472640, Note_on_c, 2, 64, 0
4, 1472640, Note_on_c, 2, 66, 100
4, 1472760, Note_on_c, 2, 66, 0
4, 1472760, Note_on_c, 2, 64, 100
4, 1472880, Note_on_c, 2, 64, 0
4, 1472880, Note_on_c, 2, 66, 100
4, 1473000, Note_on_c, 2, 66, 0
4, 1473000, Note_on_c, 2, 69, 100
4, 1473120, Note_on_c, 2, 69, 0
4, 1473120, Note_on_c, 2, 74, 100
4, 1473240, Note_on_c, 2, 74, 0
4, 1473240, Note_on_c, 2, 73, 100
4, 1473360, Note_on_c, 2, 73, 0
4, 1473360, Note_on_c, 2, 74, 100
4, 1473600, Note_on_c, 2, 74, 0
4, 1473840, Note_on_c, 2, 81, 100
4, 1473960, Note_on_c, 2, 81, 0
4, 1473960, Note_on_c, 2, 78, 100
4, 1474080, Note_on_c, 2, 78, 0
4, 1474080, Note_on_c, 2, 79, 100
4, 1474200, Note_on_c, 2, 79, 0
4, 1474200, Note_on_c, 2, 76, 100
4, 1474320, Note_on_c, 2, 76, 0
4, 1474320, Note_on_c, 2, 78, 100
4, 1474440, Note_on_c, 2, 78, 0
4, 1474440, Note_on_c, 2, 74, 100
4, 1474560, Note_on_c, 2, 74, 0
4, 1474560, Note_on_c, 2, 76, 100
4, 1474680, Note_on_c, 2, 76, 0
4, 1474680, Note_on_c, 2, 72, 100
4, 1474800, Note_on_c, 2, 72, 0
4, 1474800, Note_on_c, 2, 74, 100
4, 1474920, Note_on_c, 2, 74, 0
4, 1474920, Note_on_c, 2, 71, 100
4, 1475040, Note_on_c, 2, 71, 0
4, 1475040, Note_on_c, 2, 72, 100
4, 1475160, Note_on_c, 2, 72, 0
4, 1475160, Note_on_c, 2, 69, 100
4, 1475280, Note_on_c, 2, 69, 0
4, 1475280, Note_on_c, 2, 71, 100
4, 1475400, Note_on_c, 2, 71, 0
4, 1475400, Note_on_c, 2, 67, 100
4, 1475520, Note_on_c, 2, 67, 0
4, 1475520, Note_on_c, 2, 69, 100
4, 1475640, Note_on_c, 2, 69, 0
4, 1475640, Note_on_c, 2, 66, 100
4, 1475760, Note_on_c, 2, 66, 0
4, 1475760, Note_on_c, 2, 67, 100
4, 1475880, Note_on_c, 2, 67, 0
4, 1475880, Note_on_c, 2, 64, 100
4, 1476000, Note_on_c, 2, 64, 0
4, 1476000, Note_on_c, 2, 66, 100
4, 1476120, Note_on_c, 2, 66, 0
4, 1476120, Note_on_c, 2, 63, 100
4, 1476240, Note_on_c, 2, 63, 0
4, 1476240, Note_on_c, 2, 64, 100
4, 1476360, Note_on_c, 2, 64, 0
4, 1476360, Note_on_c, 2, 60, 100
4, 1476480, Note_on_c, 2, 60, 0
4, 1476480, Note_on_c, 2, 62, 100
4, 1476600, Note_on_c, 2, 62, 0
4, 1476600, Note_on_c, 2, 59, 100
4, 1476720, Note_on_c, 2, 59, 0
4, 1476720, Note_on_c, 2, 60, 100
4, 1476840, Note_on_c, 2, 60, 0
4, 1476840, Note_on_c, 2, 57, 100
4, 1476960, Note_on_c, 2, 57, 0
4, 1476960, Note_on_c, 2, 59, 100
4, 1477080, Note_on_c, 2, 59, 0
4, 1477080, Note_on_c, 2, 56, 100
4, 1477200, Note_on_c, 2, 56, 0
4, 1477200, Note_on_c, 2, 57, 100
4, 1477320, Note_on_c, 2, 57, 0
4, 1477320, Note_on_c, 2, 54, 100
4, 1477440, Note_on_c, 2, 54, 0
4, 1477440, Note_on_c, 2, 55, 100
4, 1477560, Note_on_c, 2, 55, 0
4, 1477560, Note_on_c, 2, 52, 100
4, 1477680, Note_on_c, 2, 52, 0
4, 1477680, Note_on_c, 2, 53, 100
4, 1477800, Note_on_c, 2, 53, 0
4, 1477800, Note_on_c, 2, 51, 100
4, 1477920, Note_on_c, 2, 51, 0
4, 1477920, Note_on_c, 2, 52, 100
4, 1478040, Note_on_c, 2, 52, 0
4, 1478040, Note_on_c, 2, 49, 100
4, 1478160, Note_on_c, 2, 49, 0
4, 1478160, Note_on_c, 2, 51, 100
4, 1478280, Note_on_c, 2, 51, 0
4, 1478280, Note_on_c, 2, 49, 100
4, 1478400, Note_on_c, 2, 49, 0
4, 1478400, Note_on_c, 2, 51, 100
4, 1478520, Note_on_c, 2, 51, 0
4, 1478520, Note_on_c, 2, 49, 100
4, 1478640, Note_on_c, 2, 49, 0
4, 1478640, Note_on_c, 2, 51, 100
4, 1479240, Note_on_c, 2, 51, 0
4, 1479240, Note_on_c, 2, 54, 100
4, 1479360, Note_on_c, 2, 54, 0
4, 1479360, Note_on_c, 2, 59, 100
4, 1479480, Note_on_c, 2, 59, 0
4, 1479480, Note_on_c, 2, 57, 100
4, 1479600, Note_on_c, 2, 57, 0
4, 1479600, Note_on_c, 2, 55, 100
4, 1479720, Note_on_c, 2, 55, 0
4, 1479720, Note_on_c, 2, 59, 100
4, 1479840, Note_on_c, 2, 59, 0
4, 1479840, Note_on_c, 2, 57, 100
4, 1479960, Note_on_c, 2, 57, 0
4, 1479960, Note_on_c, 2, 60, 100
4, 1480080, Note_on_c, 2, 60, 0
4, 1480080, Note_on_c, 2, 59, 100
4, 1480200, Note_on_c, 2, 59, 0
4, 1480200, Note_on_c, 2, 63, 100
4, 1480320, Note_on_c, 2, 63, 0
4, 1480320, Note_on_c, 2, 61, 100
4, 1480440, Note_on_c, 2, 61, 0
4, 1480440, Note_on_c, 2, 64, 100
4, 1480560, Note_on_c, 2, 64, 0
4, 1480560, Note_on_c, 2, 63, 100
4, 1480680, Note_on_c, 2, 63, 0
4, 1480680, Note_on_c, 2, 66, 100
4, 1480800, Note_on_c, 2, 66, 0
4, 1480800, Note_on_c, 2, 64, 100
4, 1480920, Note_on_c, 2, 64, 0
4, 1480920, Note_on_c, 2, 67, 100
4, 1481040, Note_on_c, 2, 67, 0
4, 1481040, Note_on_c, 2, 66, 100
4, 1481160, Note_on_c, 2, 66, 0
4, 1481160, Note_on_c, 2, 69, 100
4, 1481280, Note_on_c, 2, 69, 0
4, 1481280, Note_on_c, 2, 67, 100
4, 1481400, Note_on_c, 2, 67, 0
4, 1481400, Note_on_c, 2, 71, 100
4, 1481520, Note_on_c, 2, 71, 0
4, 1481520, Note_on_c, 2, 69, 100
4, 1481640, Note_on_c, 2, 69, 0
4, 1481640, Note_on_c, 2, 72, 100
4, 1481760, Note_on_c, 2, 72, 0
4, 1481760, Note_on_c, 2, 71, 100
4, 1481880, Note_on_c, 2, 71, 0
4, 1481880, Note_on_c, 2, 74, 100
4, 1482000, Note_on_c, 2, 74, 0
4, 1482000, Note_on_c, 2, 72, 100
4, 1482120, Note_on_c, 2, 72, 0
4, 1482120, Note_on_c, 2, 76, 100
4, 1482240, Note_on_c, 2, 76, 0
4, 1482240, Note_on_c, 2, 75, 100
4, 1482360, Note_on_c, 2, 75, 0
4, 1482360, Note_on_c, 2, 78, 100
4, 1482480, Note_on_c, 2, 78, 0
4, 1482480, Note_on_c, 2, 76, 100
4, 1482600, Note_on_c, 2, 76, 0
4, 1482600, Note_on_c, 2, 79, 100
4, 1482720, Note_on_c, 2, 79, 0
4, 1482720, Note_on_c, 2, 78, 100
4, 1482840, Note_on_c, 2, 78, 0
4, 1482840, Note_on_c, 2, 81, 100
4, 1482960, Note_on_c, 2, 81, 0
4, 1482960, Note_on_c, 2, 79, 100
4, 1483080, Note_on_c, 2, 79, 0
4, 1483080, Note_on_c, 2, 83, 100
4, 1483200, Note_on_c, 2, 83, 0
4, 1483200, Note_on_c, 2, 81, 100
4, 1483320, Note_on_c, 2, 81, 0
4, 1483320, Note_on_c, 2, 84, 100
4, 1483440, Note_on_c, 2, 84, 0
4, 1483440, Note_on_c, 2, 83, 100
4, 1483560, Note_on_c, 2, 83, 0
4, 1483560, Note_on_c, 2, 79, 100
4, 1483680, Note_on_c, 2, 79, 0
4, 1483680, Note_on_c, 2, 81, 100
4, 1483800, Note_on_c, 2, 81, 0
4, 1483800, Note_on_c, 2, 78, 100
4, 1483920, Note_on_c, 2, 78, 0
4, 1483920, Note_on_c, 2, 79, 100
4, 1484040, Note_on_c, 2, 79, 0
4, 1484040, Note_on_c, 2, 76, 100
4, 1484160, Note_on_c, 2, 76, 0
4, 1484160, Note_on_c, 2, 78, 100
4, 1484280, Note_on_c, 2, 78, 0
4, 1484280, Note_on_c, 2, 75, 100
4, 1484400, Note_on_c, 2, 75, 0
4, 1484400, Note_on_c, 2, 76, 100
4, 1484520, Note_on_c, 2, 76, 0
4, 1484520, Note_on_c, 2, 72, 100
4, 1484640, Note_on_c, 2, 72, 0
4, 1484640, Note_on_c, 2, 71, 100
4, 1484760, Note_on_c, 2, 71, 0
4, 1484760, Note_on_c, 2, 69, 100
4, 1484880, Note_on_c, 2, 69, 0
4, 1484880, Note_on_c, 2, 67, 100
4, 1485000, Note_on_c, 2, 67, 0
4, 1485000, Note_on_c, 2, 66, 100
4, 1485120, Note_on_c, 2, 66, 0
4, 1485120, Note_on_c, 2, 64, 100
4, 1485480, Note_on_c, 2, 64, 0
4, 1485480, Note_on_c, 2, 76, 100
4, 1485600, Note_on_c, 2, 76, 0
4, 1485600, Note_on_c, 2, 71, 100
4, 1485720, Note_on_c, 2, 71, 0
4, 1485720, Note_on_c, 2, 74, 100
4, 1485840, Note_on_c, 2, 74, 0
4, 1485840, Note_on_c, 2, 72, 100
4, 1485960, Note_on_c, 2, 72, 0
4, 1485960, Note_on_c, 2, 71, 100
4, 1486080, Note_on_c, 2, 71, 0
4, 1486080, Note_on_c, 2, 69, 100
4, 1486200, Note_on_c, 2, 69, 0
4, 1486200, Note_on_c, 2, 72, 100
4, 1486320, Note_on_c, 2, 72, 0
4, 1486320, Note_on_c, 2, 71, 100
4, 1486440, Note_on_c, 2, 71, 0
4, 1486440, Note_on_c, 2, 74, 100
4, 1486560, Note_on_c, 2, 74, 0
4, 1486560, Note_on_c, 2, 72, 100
4, 1486680, Note_on_c, 2, 72, 0
4, 1486680, Note_on_c, 2, 76, 100
4, 1486800, Note_on_c, 2, 76, 0
4, 1486800, Note_on_c, 2, 74, 100
4, 1486920, Note_on_c, 2, 74, 0
4, 1486920, Note_on_c, 2, 71, 100
4, 1487040, Note_on_c, 2, 71, 0
4, 1487040, Note_on_c, 2, 69, 100
4, 1487160, Note_on_c, 2, 69, 0
4, 1487160, Note_on_c, 2, 72, 100
4, 1487280, Note_on_c, 2, 72, 0
4, 1487280, Note_on_c, 2, 71, 100
4, 1487400, Note_on_c, 2, 71, 0
4, 1487400, Note_on_c, 2, 69, 100
4, 1487520, Note_on_c, 2, 69, 0
4, 1487520, Note_on_c, 2, 68, 100
4, 1487640, Note_on_c, 2, 68, 0
4, 1487640, Note_on_c, 2, 71, 100
4, 1487760, Note_on_c, 2, 71, 0
4, 1487760, Note_on_c, 2, 69, 100
4, 1487880, Note_on_c, 2, 69, 0
4, 1487880, Note_on_c, 2, 72, 100
4, 1488000, Note_on_c, 2, 72, 0
4, 1488000, Note_on_c, 2, 71, 100
4, 1488120, Note_on_c, 2, 71, 0
4, 1488120, Note_on_c, 2, 74, 100
4, 1488240, Note_on_c, 2, 74, 0
4, 1488240, Note_on_c, 2, 72, 100
4, 1488360, Note_on_c, 2, 72, 0
4, 1488360, Note_on_c, 2, 69, 100
4, 1488480, Note_on_c, 2, 69, 0
4, 1488480, Note_on_c, 2, 67, 100
4, 1488600, Note_on_c, 2, 67, 0
4, 1488600, Note_on_c, 2, 71, 100
4, 1488720, Note_on_c, 2, 71, 0
4, 1488720, Note_on_c, 2, 69, 100
4, 1488840, Note_on_c, 2, 69, 0
4, 1488840, Note_on_c, 2, 78, 100
4, 1488960, Note_on_c, 2, 78, 0
4, 1488960, Note_on_c, 2, 79, 100
4, 1489080, Note_on_c, 2, 79, 0
4, 1489080, Note_on_c, 2, 76, 100
4, 1489200, Note_on_c, 2, 76, 0
4, 1489200, Note_on_c, 2, 78, 100
4, 1489320, Note_on_c, 2, 78, 0
4, 1489320, Note_on_c, 2, 74, 100
4, 1489440, Note_on_c, 2, 74, 0
4, 1489440, Note_on_c, 2, 76, 100
4, 1489560, Note_on_c, 2, 76, 0
4, 1489560, Note_on_c, 2, 84, 100
4, 1489680, Note_on_c, 2, 84, 0
4, 1489680, Note_on_c, 2, 84, 100
4, 1489980, Note_on_c, 2, 84, 0
4, 1489980, Note_on_c, 2, 83, 100
4, 1490040, Note_on_c, 2, 83, 0
4, 1490040, Note_on_c, 2, 81, 100
4, 1490100, Note_on_c, 2, 81, 0
4, 1490100, Note_on_c, 2, 79, 100
4, 1490160, Note_on_c, 2, 79, 0
4, 1490160, Note_on_c, 2, 78, 100
4, 1490280, Note_on_c, 2, 78, 0
4, 1490280, Note_on_c, 2, 79, 100
4, 1490400, Note_on_c, 2, 79, 0
4, 1490400, Note_on_c, 2, 81, 100
4, 1490520, Note_on_c, 2, 81, 0
4, 1490520, Note_on_c, 2, 78, 100
4, 1490640, Note_on_c, 2, 78, 0
4, 1490640, Note_on_c, 2, 76, 100
4, 1490760, Note_on_c, 2, 76, 0
4, 1490760, Note_on_c, 2, 74, 100
4, 1491240, Note_on_c, 2, 74, 0
4, 1491240, Note_on_c, 2, 71, 100
4, 1491360, Note_on_c, 2, 71, 0
4, 1491360, Note_on_c, 2, 72, 100
4, 1491480, Note_on_c, 2, 72, 0
4, 1491480, Note_on_c, 2, 69, 100
4, 1491600, Note_on_c, 2, 69, 0
4, 1491600, Note_on_c, 2, 71, 100
4, 1491720, Note_on_c, 2, 71, 0
4, 1491720, Note_on_c, 2, 79, 100
4, 1491840, Note_on_c, 2, 79, 0
4, 1491840, Note_on_c, 2, 69, 100
4, 1491960, Note_on_c, 2, 69, 0
4, 1491960, Note_on_c, 2, 77, 100
4, 1492080, Note_on_c, 2, 77, 0
4, 1492080, Note_on_c, 2, 67, 100
4, 1492200, Note_on_c, 2, 67, 0
4, 1492200, Note_on_c, 2, 76, 100
4, 1492320, Note_on_c, 2, 76, 0
4, 1492320, Note_on_c, 2, 65, 100
4, 1492440, Note_on_c, 2, 65, 0
4, 1492440, Note_on_c, 2, 74, 100
4, 1492560, Note_on_c, 2, 74, 0
4, 1492560, Note_on_c, 2, 64, 100
4, 1492800, Note_on_c, 2, 64, 0
4, 1492860, Note_on_c, 2, 67, 100
4, 1492920, Note_on_c, 2, 67, 0
4, 1492920, Note_on_c, 2, 69, 100
4, 1492980, Note_on_c, 2, 69, 0
4, 1492980, Note_on_c, 2, 71, 100
4, 1493040, Note_on_c, 2, 71, 0
4, 1493040, Note_on_c, 2, 72, 100
4, 1493160, Note_on_c, 2, 72, 0
4, 1493160, Note_on_c, 2, 69, 100
4, 1493280, Note_on_c, 2, 69, 0
4, 1493280, Note_on_c, 2, 71, 100
4, 1493400, Note_on_c, 2, 71, 0
4, 1493400, Note_on_c, 2, 67, 100
4, 1493520, Note_on_c, 2, 67, 0
4, 1493520, Note_on_c, 2, 69, 100
4, 1493640, Note_on_c, 2, 69, 0
4, 1493640, Note_on_c, 2, 66, 100
4, 1493760, Note_on_c, 2, 66, 0
4, 1493760, Note_on_c, 2, 67, 100
4, 1493880, Note_on_c, 2, 67, 0
4, 1493880, Note_on_c, 2, 64, 100
4, 1494000, Note_on_c, 2, 64, 0
4, 1494000, Note_on_c, 2, 66, 100
4, 1494120, Note_on_c, 2, 66, 0
4, 1494120, Note_on_c, 2, 76, 100
4, 1494240, Note_on_c, 2, 76, 0
4, 1494240, Note_on_c, 2, 74, 100
4, 1494540, Note_on_c, 2, 74, 0
4, 1494540, Note_on_c, 2, 76, 100
4, 1494600, Note_on_c, 2, 76, 0
4, 1494600, Note_on_c, 2, 78, 100
4, 1494660, Note_on_c, 2, 78, 0
4, 1494660, Note_on_c, 2, 79, 100
4, 1494720, Note_on_c, 2, 79, 0
4, 1494720, Note_on_c, 2, 78, 100
4, 1494780, Note_on_c, 2, 78, 0
4, 1494780, Note_on_c, 2, 76, 100
4, 1494840, Note_on_c, 2, 76, 0
4, 1494840, Note_on_c, 2, 74, 100
4, 1494900, Note_on_c, 2, 74, 0
4, 1494900, Note_on_c, 2, 72, 100
4, 1494960, Note_on_c, 2, 72, 0
4, 1494960, Note_on_c, 2, 71, 100
4, 1495080, Note_on_c, 2, 71, 0
4, 1495080, Note_on_c, 2, 79, 100
4, 1495200, Note_on_c, 2, 79, 0
4, 1495200, Note_on_c, 2, 69, 100
4, 1495320, Note_on_c, 2, 69, 0
4, 1495320, Note_on_c, 2, 78, 100
4, 1495440, Note_on_c, 2, 78, 0
4, 1495440, Note_on_c, 2, 67, 100
4, 1495560, Note_on_c, 2, 67, 0
4, 1495560, Note_on_c, 2, 66, 100
4, 1495680, Note_on_c, 2, 66, 0
4, 1495680, Note_on_c, 2, 67, 100
4, 1495800, Note_on_c, 2, 67, 0
4, 1495800, Note_on_c, 2, 66, 100
4, 1495920, Note_on_c, 2, 66, 0
4, 1495920, Note_on_c, 2, 67, 100
4, 1496040, Note_on_c, 2, 67, 0
4, 1496040, Note_on_c, 2, 71, 100
4, 1496160, Note_on_c, 2, 71, 0
4, 1496160, Note_on_c, 2, 74, 100
4, 1496280, Note_on_c, 2, 74, 0
4, 1496280, Note_on_c, 2, 78, 100
4, 1496400, Note_on_c, 2, 78, 0
4, 1496400, Note_on_c, 2, 79, 100
4, 1496640, Note_on_c, 2, 79, 0
4, 1496880, Note_on_c, 2, 81, 100
4, 1497000, Note_on_c, 2, 81, 0
4, 1497000, Note_on_c, 2, 78, 100
4, 1497120, Note_on_c, 2, 78, 0
4, 1497120, Note_on_c, 2, 79, 100
4, 1497240, Note_on_c, 2, 79, 0
4, 1497240, Note_on_c, 2, 76, 100
4, 1497360, Note_on_c, 2, 76, 0
4, 1497360, Note_on_c, 2, 78, 100
4, 1497480, Note_on_c, 2, 78, 0
4, 1497480, Note_on_c, 2, 74, 100
4, 1497600, Note_on_c, 2, 74, 0
4, 1497600, Note_on_c, 2, 76, 100
4, 1497720, Note_on_c, 2, 76, 0
4, 1497720, Note_on_c, 2, 72, 100
4, 1497840, Note_on_c, 2, 72, 0
4, 1497840, Note_on_c, 2, 74, 100
4, 1497960, Note_on_c, 2, 74, 0
4, 1497960, Note_on_c, 2, 71, 100
4, 1498080, Note_on_c, 2, 71, 0
4, 1498080, Note_on_c, 2, 72, 100
4, 1498200, Note_on_c, 2, 72, 0
4, 1498200, Note_on_c, 2, 69, 100
4, 1498320, Note_on_c, 2, 69, 0
4, 1498320, Note_on_c, 2, 71, 100
4, 1498440, Note_on_c, 2, 71, 0
4, 1498440, Note_on_c, 2, 67, 100
4, 1498560, Note_on_c, 2, 67, 0
4, 1498560, Note_on_c, 2, 69, 100
4, 1498680, Note_on_c, 2, 69, 0
4, 1498680, Note_on_c, 2, 66, 100
4, 1498800, Note_on_c, 2, 66, 0
4, 1498800, Note_on_c, 2, 67, 100
4, 1498920, Note_on_c, 2, 67, 0
4, 1498920, Note_on_c, 2, 64, 100
4, 1499040, Note_on_c, 2, 64, 0
4, 1499040, Note_on_c, 2, 66, 100
4, 1499160, Note_on_c, 2, 66, 0
4, 1499160, Note_on_c, 2, 63, 100
4, 1499280, Note_on_c, 2, 63, 0
4, 1499280, Note_on_c, 2, 64, 100
4, 1499400, Note_on_c, 2, 64, 0
4, 1499400, Note_on_c, 2, 60, 100
4, 1499520, Note_on_c, 2, 60, 0
4, 1499520, Note_on_c, 2, 62, 100
4, 1499640, Note_on_c, 2, 62, 0
4, 1499640, Note_on_c, 2, 59, 100
4, 1499760, Note_on_c, 2, 59, 0
4, 1499760, Note_on_c, 2, 60, 100
4, 1499880, Note_on_c, 2, 60, 0
4, 1499880, Note_on_c, 2, 57, 100
4, 1500000, Note_on_c, 2, 57, 0
4, 1500000, Note_on_c, 2, 59, 100
4, 1500120, Note_on_c, 2, 59, 0
4, 1500120, Note_on_c, 2, 56, 100
4, 1500240, Note_on_c, 2, 56, 0
4, 1500240, Note_on_c, 2, 57, 100
4, 1500360, Note_on_c, 2, 57, 0
4, 1500360, Note_on_c, 2, 54, 100
4, 1500480, Note_on_c, 2, 54, 0
4, 1500480, Note_on_c, 2, 55, 100
4, 1500600, Note_on_c, 2, 55, 0
4, 1500600, Note_on_c, 2, 52, 100
4, 1500720, Note_on_c, 2, 52, 0
4, 1500720, Note_on_c, 2, 53, 100
4, 1500840, Note_on_c, 2, 53, 0
4, 1500840, Note_on_c, 2, 51, 100
4, 1500960, Note_on_c, 2, 51, 0
4, 1500960, Note_on_c, 2, 52, 100
4, 1501080, Note_on_c, 2, 52, 0
4, 1501080, Note_on_c, 2, 49, 100
4, 1501200, Note_on_c, 2, 49, 0
4, 1501200, Note_on_c, 2, 51, 100
4, 1501320, Note_on_c, 2, 51, 0
4, 1501320, Note_on_c, 2, 49, 100
4, 1501440, Note_on_c, 2, 49, 0
4, 1501440, Note_on_c, 2, 51, 100
4, 1501560, Note_on_c, 2, 51, 0
4, 1501560, Note_on_c, 2, 49, 100
4, 1501680, Note_on_c, 2, 49, 0
4, 1501680, Note_on_c, 2, 51, 100
4, 1502280, Note_on_c, 2, 51, 0
4, 1502280, Note_on_c, 2, 54, 100
4, 1502400, Note_on_c, 2, 54, 0
4, 1502400, Note_on_c, 2, 59, 100
4, 1502520, Note_on_c, 2, 59, 0
4, 1502520, Note_on_c, 2, 57, 100
4, 1502640, Note_on_c, 2, 57, 0
4, 1502640, Note_on_c, 2, 55, 100
4, 1502760, Note_on_c, 2, 55, 0
4, 1502760, Note_on_c, 2, 59, 100
4, 1502880, Note_on_c, 2, 59, 0
4, 1502880, Note_on_c, 2, 57, 100
4, 1503000, Note_on_c, 2, 57, 0
4, 1503000, Note_on_c, 2, 60, 100
4, 1503120, Note_on_c, 2, 60, 0
4, 1503120, Note_on_c, 2, 59, 100
4, 1503240, Note_on_c, 2, 59, 0
4, 1503240, Note_on_c, 2, 63, 100
4, 1503360, Note_on_c, 2, 63, 0
4, 1503360, Note_on_c, 2, 61, 100
4, 1503480, Note_on_c, 2, 61, 0
4, 1503480, Note_on_c, 2, 64, 100
4, 1503600, Note_on_c, 2, 64, 0
4, 1503600, Note_on_c, 2, 63, 100
4, 1503720, Note_on_c, 2, 63, 0
4, 1503720, Note_on_c, 2, 66, 100
4, 1503840, Note_on_c, 2, 66, 0
4, 1503840, Note_on_c, 2, 64, 100
4, 1503960, Note_on_c, 2, 64, 0
4, 1503960, Note_on_c, 2, 67, 100
4, 1504080, Note_on_c, 2, 67, 0
4, 1504080, Note_on_c, 2, 66, 100
4, 1504200, Note_on_c, 2, 66, 0
4, 1504200, Note_on_c, 2, 69, 100
4, 1504320, Note_on_c, 2, 69, 0
4, 1504320, Note_on_c, 2, 67, 100
4, 1504440, Note_on_c, 2, 67, 0
4, 1504440, Note_on_c, 2, 71, 100
4, 1504560, Note_on_c, 2, 71, 0
4, 1504560, Note_on_c, 2, 69, 100
4, 1504680, Note_on_c, 2, 69, 0
4, 1504680, Note_on_c, 2, 72, 100
4, 1504800, Note_on_c, 2, 72, 0
4, 1504800, Note_on_c, 2, 71, 100
4, 1504920, Note_on_c, 2, 71, 0
4, 1504920, Note_on_c, 2, 74, 100
4, 1505040, Note_on_c, 2, 74, 0
4, 1505040, Note_on_c, 2, 72, 100
4, 1505160, Note_on_c, 2, 72, 0
4, 1505160, Note_on_c, 2, 76, 100
4, 1505280, Note_on_c, 2, 76, 0
4, 1505280, Note_on_c, 2, 75, 100
4, 1505400, Note_on_c, 2, 75, 0
4, 1505400, Note_on_c, 2, 78, 100
4, 1505520, Note_on_c, 2, 78, 0
4, 1505520, Note_on_c, 2, 76, 100
4, 1505640, Note_on_c, 2, 76, 0
4, 1505640, Note_on_c, 2, 79, 100
4, 1505760, Note_on_c, 2, 79, 0
4, 1505760, Note_on_c, 2, 78, 100
4, 1505880, Note_on_c, 2, 78, 0
4, 1505880, Note_on_c, 2, 81, 100
4, 1506000, Note_on_c, 2, 81, 0
4, 1506000, Note_on_c, 2, 79, 100
4, 1506120, Note_on_c, 2, 79, 0
4, 1506120, Note_on_c, 2, 83, 100
4, 1506240, Note_on_c, 2, 83, 0
4, 1506240, Note_on_c, 2, 81, 100
4, 1506360, Note_on_c, 2, 81, 0
4, 1506360, Note_on_c, 2, 84, 100
4, 1506480, Note_on_c, 2, 84, 0
4, 1506480, Note_on_c, 2, 83, 100
4, 1506600, Note_on_c, 2, 83, 0
4, 1506600, Note_on_c, 2, 79, 100
4, 1506720, Note_on_c, 2, 79, 0
4, 1506720, Note_on_c, 2, 81, 100
4, 1506840, Note_on_c, 2, 81, 0
4, 1506840, Note_on_c, 2, 78, 100
4, 1506960, Note_on_c, 2, 78, 0
4, 1506960, Note_on_c, 2, 79, 100
4, 1507080, Note_on_c, 2, 79, 0
4, 1507080, Note_on_c, 2, 76, 100
4, 1507200, Note_on_c, 2, 76, 0
4, 1507200, Note_on_c, 2, 78, 100
4, 1507320, Note_on_c, 2, 78, 0
4, 1507320, Note_on_c, 2, 75, 100
4, 1507440, Note_on_c, 2, 75, 0
4, 1507440, Note_on_c, 2, 76, 100
4, 1507560, Note_on_c, 2, 76, 0
4, 1507560, Note_on_c, 2, 72, 100
4, 1507680, Note_on_c, 2, 72, 0
4, 1507680, Note_on_c, 2, 71, 100
4, 1507800, Note_on_c, 2, 71, 0
4, 1507800, Note_on_c, 2, 69, 100
4, 1507920, Note_on_c, 2, 69, 0
4, 1507920, Note_on_c, 2, 67, 100
4, 1508040, Note_on_c, 2, 67, 0
4, 1508040, Note_on_c, 2, 66, 100
4, 1508160, Note_on_c, 2, 66, 0
4, 1508160, Note_on_c, 2, 64, 100
4, 1508520, Note_on_c, 2, 64, 0
4, 1508520, Note_on_c, 2, 76, 100
4, 1508640, Note_on_c, 2, 76, 0
4, 1508640, Note_on_c, 2, 71, 100
4, 1508760, Note_on_c, 2, 71, 0
4, 1508760, Note_on_c, 2, 74, 100
4, 1508880, Note_on_c, 2, 74, 0
4, 1508880, Note_on_c, 2, 72, 100
4, 1509000, Note_on_c, 2, 72, 0
4, 1509000, Note_on_c, 2, 71, 100
4, 1509120, Note_on_c, 2, 71, 0
4, 1509120, Note_on_c, 2, 69, 100
4, 1509240, Note_on_c, 2, 69, 0
4, 1509240, Note_on_c, 2, 72, 100
4, 1509360, Note_on_c, 2, 72, 0
4, 1509360, Note_on_c, 2, 71, 100
4, 1509480, Note_on_c, 2, 71, 0
4, 1509480, Note_on_c, 2, 74, 100
4, 1509600, Note_on_c, 2, 74, 0
4, 1509600, Note_on_c, 2, 72, 100
4, 1509720, Note_on_c, 2, 72, 0
4, 1509720, Note_on_c, 2, 76, 100
4, 1509840, Note_on_c, 2, 76, 0
4, 1509840, Note_on_c, 2, 74, 100
4, 1509960, Note_on_c, 2, 74, 0
4, 1509960, Note_on_c, 2, 71, 100
4, 1510080, Note_on_c, 2, 71, 0
4, 1510080, Note_on_c, 2, 69, 100
4, 1510200, Note_on_c, 2, 69, 0
4, 1510200, Note_on_c, 2, 72, 100
4, 1510320, Note_on_c, 2, 72, 0
4, 1510320, Note_on_c, 2, 71, 100
4, 1510440, Note_on_c, 2, 71, 0
4, 1510440, Note_on_c, 2, 69, 100
4, 1510560, Note_on_c, 2, 69, 0
4, 1510560, Note_on_c, 2, 68, 100
4, 1510680, Note_on_c, 2, 68, 0
4, 1510680, Note_on_c, 2, 71, 100
4, 1510800, Note_on_c, 2, 71, 0
4, 1510800, Note_on_c, 2, 69, 100
4, 1510920, Note_on_c, 2, 69, 0
4, 1510920, Note_on_c, 2, 72, 100
4, 1511040, Note_on_c, 2, 72, 0
4, 1511040, Note_on_c, 2, 71, 100
4, 1511160, Note_on_c, 2, 71, 0
4, 1511160, Note_on_c, 2, 74, 100
4, 1511280, Note_on_c, 2, 74, 0
4, 1511280, Note_on_c, 2, 72, 100
4, 1511400, Note_on_c, 2, 72, 0
4, 1511400, Note_on_c, 2, 69, 100
4, 1511520, Note_on_c, 2, 69, 0
4, 1511520, Note_on_c, 2, 67, 100
4, 1511640, Note_on_c, 2, 67, 0
4, 1511640, Note_on_c, 2, 71, 100
4, 1511760, Note_on_c, 2, 71, 0
4, 1511760, Note_on_c, 2, 69, 100
4, 1511880, Note_on_c, 2, 69, 0
4, 1511880, Note_on_c, 2, 78, 100
4, 1512000, Note_on_c, 2, 78, 0
4, 1512000, Note_on_c, 2, 79, 100
4, 1512120, Note_on_c, 2, 79, 0
4, 1512120, Note_on_c, 2, 76, 100
4, 1512240, Note_on_c, 2, 76, 0
4, 1512240, Note_on_c, 2, 78, 100
4, 1512360, Note_on_c, 2, 78, 0
4, 1512360, Note_on_c, 2, 74, 100
4, 1512480, Note_on_c, 2, 74, 0
4, 1512480, Note_on_c, 2, 76, 100
4, 1512600, Note_on_c, 2, 76, 0
4, 1512600, Note_on_c, 2, 84, 100
4, 1512720, Note_on_c, 2, 84, 0
4, 1512720, Note_on_c, 2, 84, 100
4, 1513020, Note_on_c, 2, 84, 0
4, 1513020, Note_on_c, 2, 83, 100
4, 1513080, Note_on_c, 2, 83, 0
4, 1513080, Note_on_c, 2, 81, 100
4, 1513140, Note_on_c, 2, 81, 0
4, 1513140, Note_on_c, 2, 79, 100
4, 1513200, Note_on_c, 2, 79, 0
4, 1513200, Note_on_c, 2, 78, 100
4, 1513320, Note_on_c, 2, 78, 0
4, 1513320, Note_on_c, 2, 79, 100
4, 1513440, Note_on_c, 2, 79, 0
4, 1513440, Note_on_c, 2, 81, 100
4, 1513560, Note_on_c, 2, 81, 0
4, 1513560, Note_on_c, 2, 78, 100
4, 1513680, Note_on_c, 2, 78, 0
4, 1513680, Note_on_c, 2, 76, 100
4, 1513800, Note_on_c, 2, 76, 0
4, 1513800, Note_on_c, 2, 74, 100
4, 1514280, Note_on_c, 2, 74, 0
4, 1514280, Note_on_c, 2, 71, 100
4, 1514400, Note_on_c, 2, 71, 0
4, 1514400, Note_on_c, 2, 72, 100
4, 1514520, Note_on_c, 2, 72, 0
4, 1514520, Note_on_c, 2, 69, 100
4, 1514640, Note_on_c, 2, 69, 0
4, 1514640, Note_on_c, 2, 71, 100
4, 1514760, Note_on_c, 2, 71, 0
4, 1514760, Note_on_c, 2, 79, 100
4, 1514880, Note_on_c, 2, 79, 0
4, 1514880, Note_on_c, 2, 69, 100
4, 1515000, Note_on_c, 2, 69, 0
4, 1515000, Note_on_c, 2, 77, 100
4, 1515120, Note_on_c, 2, 77, 0
4, 1515120, Note_on_c, 2, 67, 100
4, 1515240, Note_on_c, 2, 67, 0
4, 1515240, Note_on_c, 2, 76, 100
4, 1515360, Note_on_c, 2, 76, 0
4, 1515360, Note_on_c, 2, 65, 100
4, 1515480, Note_on_c, 2, 65, 0
4, 1515480, Note_on_c, 2, 74, 100
4, 1515600, Note_on_c, 2, 74, 0
4, 1515600, Note_on_c, 2, 64, 100
4, 1515840, Note_on_c, 2, 64, 0
4, 1515900, Note_on_c, 2, 67, 100
4, 1515960, Note_on_c, 2, 67, 0
4, 1515960, Note_on_c, 2, 69, 100
4, 1516020, Note_on_c, 2, 69, 0
4, 1516020, Note_on_c, 2, 71, 100
4, 1516080, Note_on_c, 2, 71, 0
4, 1516080, Note_on_c, 2, 72, 100
4, 1516200, Note_on_c, 2, 72, 0
4, 1516200, Note_on_c, 2, 69, 100
4, 1516320, Note_on_c, 2, 69, 0
4, 1516320, Note_on_c, 2, 71, 100
4, 1516440, Note_on_c, 2, 71, 0
4, 1516440, Note_on_c, 2, 67, 100
4, 1516560, Note_on_c, 2, 67, 0
4, 1516560, Note_on_c, 2, 69, 100
4, 1516680, Note_on_c, 2, 69, 0
4, 1516680, Note_on_c, 2, 66, 100
4, 1516800, Note_on_c, 2, 66, 0
4, 1516800, Note_on_c, 2, 67, 100
4, 1516920, Note_on_c, 2, 67, 0
4, 1516920, Note_on_c, 2, 64, 100
4, 1517040, Note_on_c, 2, 64, 0
4, 1517040, Note_on_c, 2, 66, 100
4, 1517160, Note_on_c, 2, 66, 0
4, 1517160, Note_on_c, 2, 76, 100
4, 1517280, Note_on_c, 2, 76, 0
4, 1517280, Note_on_c, 2, 74, 100
4, 1517580, Note_on_c, 2, 74, 0
4, 1517580, Note_on_c, 2, 76, 100
4, 1517640, Note_on_c, 2, 76, 0
4, 1517640, Note_on_c, 2, 78, 100
4, 1517700, Note_on_c, 2, 78, 0
4, 1517700, Note_on_c, 2, 79, 100
4, 1517760, Note_on_c, 2, 79, 0
4, 1517760, Note_on_c, 2, 78, 100
4, 1517820, Note_on_c, 2, 78, 0
4, 1517820, Note_on_c, 2, 76, 100
4, 1517880, Note_on_c, 2, 76, 0
4, 1517880, Note_on_c, 2, 74, 100
4, 1517940, Note_on_c, 2, 74, 0
4, 1517940, Note_on_c, 2, 72, 100
4, 1518000, Note_on_c, 2, 72, 0
4, 1518000, Note_on_c, 2, 71, 100
4, 1518120, Note_on_c, 2, 71, 0
4, 1518120, Note_on_c, 2, 79, 100
4, 1518240, Note_on_c, 2, 79, 0
4, 1518240, Note_on_c, 2, 69, 100
4, 1518360, Note_on_c, 2, 69, 0
4, 1518360, Note_on_c, 2, 78, 100
4, 1518480, Note_on_c, 2, 78, 0
4, 1518480, Note_on_c, 2, 67, 100
4, 1518600, Note_on_c, 2, 67, 0
4, 1518600, Note_on_c, 2, 66, 100
4, 1518720, Note_on_c, 2, 66, 0
4, 1518720, Note_on_c, 2, 67, 100
4, 1518840, Note_on_c, 2, 67, 0
4, 1518840, Note_on_c, 2, 66, 100
4, 1518960, Note_on_c, 2, 66, 0
4, 1518960, Note_on_c, 2, 67, 100
4, 1519080, Note_on_c, 2, 67, 0
4, 1519080, Note_on_c, 2, 71, 100
4, 1519200, Note_on_c, 2, 71, 0
4, 1519200, Note_on_c, 2, 74, 100
4, 1519320, Note_on_c, 2, 74, 0
4, 1519320, Note_on_c, 2, 78, 100
4, 1519440, Note_on_c, 2, 78, 0
4, 1519440, Note_on_c, 2, 79, 100
4, 1519680, Note_on_c, 2, 79, 0
4, 1689000, Note_on_c, 2, 71, 100
4, 1689120, Note_on_c, 2, 71, 0
4, 1689240, Note_on_c, 2, 67, 100
4, 1689360, Note_on_c, 2, 67, 0
4, 1689480, Note_on_c, 2, 62, 100
4, 1689600, Note_on_c, 2, 62, 0
4, 1689720, Note_on_c, 2, 59, 100
4, 1689840, Note_on_c, 2, 59, 0
4, 1689960, Note_on_c, 2, 55, 100
4, 1690080, Note_on_c, 2, 55, 0
4, 1690080, Note_on_c, 2, 54, 100
4, 1690200, Note_on_c, 2, 54, 0
4, 1690200, Note_on_c, 2, 52, 100
4, 1690320, Note_on_c, 2, 52, 0
4, 1690320, Note_on_c, 2, 54, 100
4, 1690560, Note_on_c, 2, 54, 0
4, 1690560, Note_on_c, 2, 57, 100
4, 1690800, Note_on_c, 2, 57, 0
4, 1690800, Note_on_c, 2, 62, 100
4, 1691040, Note_on_c, 2, 62, 0
4, 1691040, Note_on_c, 2, 66, 100
4, 1691280, Note_on_c, 2, 66, 0
4, 1691280, Note_on_c, 2, 69, 100
4, 1691520, Note_on_c, 2, 69, 0
4, 1691520, Note_on_c, 2, 74, 100
4, 1691760, Note_on_c, 2, 74, 0
4, 1691880, Note_on_c, 2, 67, 100
4, 1692000, Note_on_c, 2, 67, 0
4, 1692120, Note_on_c, 2, 64, 100
4, 1692240, Note_on_c, 2, 64, 0
4, 1692360, Note_on_c, 2, 61, 100
4, 1692480, Note_on_c, 2, 61, 0
4, 1692600, Note_on_c, 2, 57, 100
4, 1692720, Note_on_c, 2, 57, 0
4, 1692840, Note_on_c, 2, 55, 100
4, 1692960, Note_on_c, 2, 55, 0
4, 1692960, Note_on_c, 2, 54, 100
4, 1693080, Note_on_c, 2, 54, 0
4, 1693080, Note_on_c, 2, 52, 100
4, 1693200, Note_on_c, 2, 52, 0
4, 1693200, Note_on_c, 2, 50, 100
4, 1693440, Note_on_c, 2, 50, 0
4, 1693440, Note_on_c, 2, 54, 100
4, 1693680, Note_on_c, 2, 54, 0
4, 1693680, Note_on_c, 2, 57, 100
4, 1693920, Note_on_c, 2, 57, 0
4, 1693920, Note_on_c, 2, 62, 100
4, 1694160, Note_on_c, 2, 62, 0
4, 1694160, Note_on_c, 2, 66, 100
4, 1694400, Note_on_c, 2, 66, 0
4, 1694400, Note_on_c, 2, 69, 100
4, 1694640, Note_on_c, 2, 69, 0
4, 1694760, Note_on_c, 2, 67, 100
4, 1694880, Note_on_c, 2, 67, 0
4, 1695000, Note_on_c, 2, 62, 100
4, 1695120, Note_on_c, 2, 62, 0
4, 1695240, Note_on_c, 2, 59, 100
4, 1695360, Note_on_c, 2, 59, 0
4, 1695480, Note_on_c, 2, 55, 100
4, 1695600, Note_on_c, 2, 55, 0
4, 1695720, Note_on_c, 2, 53, 100
4, 1695840, Note_on_c, 2, 53, 0
4, 1695840, Note_on_c, 2, 52, 100
4, 1695960, Note_on_c, 2, 52, 0
4, 1695960, Note_on_c, 2, 50, 100
4, 1696080, Note_on_c, 2, 50, 0
4, 1696080, Note_on_c, 2, 48, 100
4, 1696320, Note_on_c, 2, 48, 0
4, 1696320, Note_on_c, 2, 52, 100
4, 1696560, Note_on_c, 2, 52, 0
4, 1696560, Note_on_c, 2, 55, 100
4, 1696800, Note_on_c, 2, 55, 0
4, 1696800, Note_on_c, 2, 60, 100
4, 1697040, Note_on_c, 2, 60, 0
4, 1697040, Note_on_c, 2, 64, 100
4, 1697280, Note_on_c, 2, 64, 0
4, 1697280, Note_on_c, 2, 67, 100
4, 1697520, Note_on_c, 2, 67, 0
4, 1697640, Note_on_c, 2, 66, 100
4, 1697760, Note_on_c, 2, 66, 0
4, 1697880, Note_on_c, 2, 62, 100
4, 1698000, Note_on_c, 2, 62, 0
4, 1698120, Note_on_c, 2, 57, 100
4, 1698240, Note_on_c, 2, 57, 0
4, 1698360, Note_on_c, 2, 54, 100
4, 1698480, Note_on_c, 2, 54, 0
4, 1698600, Note_on_c, 2, 50, 100
4, 1698720, Note_on_c, 2, 50, 0
4, 1698720, Note_on_c, 2, 48, 100
4, 1698840, Note_on_c, 2, 48, 0
4, 1698840, Note_on_c, 2, 50, 100
4, 1698960, Note_on_c, 2, 50, 0
4, 1698960, Note_on_c, 2, 43, 100
4, 1699200, Note_on_c, 2, 43, 0
4, 1699200, Note_on_c, 2, 47, 100
4, 1699440, Note_on_c, 2, 47, 0
4, 1699440, Note_on_c, 2, 50, 100
4, 1699680, Note_on_c, 2, 50, 0
4, 1699680, Note_on_c, 2, 55, 100
4, 1699920, Note_on_c, 2, 55, 0
4, 1699920, Note_on_c, 2, 54, 100
4, 1700160, Note_on_c, 2, 54, 0
4, 1700160, Note_on_c, 2, 60, 100
4, 1700400, Note_on_c, 2, 60, 0
4, 1700400, Note_on_c, 2, 59, 100
4, 1700480, Note_on_c, 2, 59, 0
4, 1700480, Note_on_c, 2, 57, 100
4, 1700560, Note_on_c, 2, 57, 0
4, 1700560, Note_on_c, 2, 59, 100
4, 1700640, Note_on_c, 2, 59, 0
4, 1700640, Note_on_c, 2, 60, 100
4, 1700720, Note_on_c, 2, 60, 0
4, 1700720, Note_on_c, 2, 59, 100
4, 1700800, Note_on_c, 2, 59, 0
4, 1700800, Note_on_c, 2, 60, 100
4, 1700880, Note_on_c, 2, 60, 0
4, 1700880, Note_on_c, 2, 62, 100
4, 1700960, Note_on_c, 2, 62, 0
4, 1700960, Note_on_c, 2, 60, 100
4, 1701040, Note_on_c, 2, 60, 0
4, 1701040, Note_on_c, 2, 62, 100
4, 1701120, Note_on_c, 2, 62, 0
4, 1701120, Note_on_c, 2, 64, 100
4, 1701200, Note_on_c, 2, 64, 0
4, 1701200, Note_on_c, 2, 62, 100
4, 1701280, Note_on_c, 2, 62, 0
4, 1701280, Note_on_c, 2, 64, 100
4, 1701360, Note_on_c, 2, 64, 0
4, 1701360, Note_on_c, 2, 66, 100
4, 1701440, Note_on_c, 2, 66, 0
4, 1701440, Note_on_c, 2, 64, 100
4, 1701520, Note_on_c, 2, 64, 0
4, 1701520, Note_on_c, 2, 66, 100
4, 1701600, Note_on_c, 2, 66, 0
4, 1701600, Note_on_c, 2, 67, 100
4, 1701680, Note_on_c, 2, 67, 0
4, 1701680, Note_on_c, 2, 66, 100
4, 1701760, Note_on_c, 2, 66, 0
4, 1701760, Note_on_c, 2, 67, 100
4, 1701840, Note_on_c, 2, 67, 0
4, 1701840, Note_on_c, 2, 69, 100
4, 1701920, Note_on_c, 2, 69, 0
4, 1701920, Note_on_c, 2, 67, 100
4, 1702000, Note_on_c, 2, 67, 0
4, 1702000, Note_on_c, 2, 69, 100
4, 1702080, Note_on_c, 2, 69, 0
4, 1702080, Note_on_c, 2, 71, 100
4, 1702160, Note_on_c, 2, 71, 0
4, 1702160, Note_on_c, 2, 69, 100
4, 1702240, Note_on_c, 2, 69, 0
4, 1702240, Note_on_c, 2, 71, 100
4, 1702320, Note_on_c, 2, 71, 0
4, 1702320, Note_on_c, 2, 73, 100
4, 1702400, Note_on_c, 2, 73, 0
4, 1702400, Note_on_c, 2, 71, 100
4, 1702480, Note_on_c, 2, 71, 0
4, 1702480, Note_on_c, 2, 73, 100
4, 1702560, Note_on_c, 2, 73, 0
4, 1702560, Note_on_c, 2, 74, 100
4, 1702640, Note_on_c, 2, 74, 0
4, 1702640, Note_on_c, 2, 73, 100
4, 1702720, Note_on_c, 2, 73, 0
4, 1702720, Note_on_c, 2, 74, 100
4, 1702800, Note_on_c, 2, 74, 0
4, 1702800, Note_on_c, 2, 76, 100
4, 1702880, Note_on_c, 2, 76, 0
4, 1702880, Note_on_c, 2, 74, 100
4, 1702960, Note_on_c, 2, 74, 0
4, 1702960, Note_on_c, 2, 76, 100
4, 1703040, Note_on_c, 2, 76, 0
4, 1703040, Note_on_c, 2, 78, 100
4, 1703120, Note_on_c, 2, 78, 0
4, 1703120, Note_on_c, 2, 76, 100
4, 1703200, Note_on_c, 2, 76, 0
4, 1703200, Note_on_c, 2, 78, 100
4, 1703280, Note_on_c, 2, 78, 0
4, 1703280, Note_on_c, 2, 79, 100
4, 1703520, Note_on_c, 2, 79, 0
4, 1703760, Note_on_c, 2, 52, 100
4, 1703800, Note_on_c, 2, 52, 0
4, 1703800, Note_on_c, 2, 50, 100
4, 1703840, Note_on_c, 2, 50, 0
4, 1703840, Note_on_c, 2, 52, 100
4, 1704240, Note_on_c, 2, 52, 0
4, 1704480, Note_on_c, 2, 71, 100
4, 1704720, Note_on_c, 2, 71, 0
4, 1704720, Note_on_c, 2, 79, 100
4, 1704960, Note_on_c, 2, 79, 0
4, 1705200, Note_on_c, 2, 49, 100
4, 1705240, Note_on_c, 2, 49, 0
4, 1705240, Note_on_c, 2, 47, 100
4, 1705280, Note_on_c, 2, 47, 0
4, 1705280, Note_on_c, 2, 49, 100
4, 1705680, Note_on_c, 2, 49, 0
4, 1705920, Note_on_c, 2, 79, 100
4, 1706160, Note_on_c, 2, 79, 0
4, 1706160, Note_on_c, 2, 78, 100
4, 1706240, Note_on_c, 2, 78, 0
4, 1706240, Note_on_c, 2, 81, 100
4, 1706320, Note_on_c, 2, 81, 0
4, 1706320, Note_on_c, 2, 74, 100
4, 1706400, Note_on_c, 2, 74, 0
4, 1706400, Note_on_c, 2, 76, 100
4, 1706480, Note_on_c, 2, 76, 0
4, 1706480, Note_on_c, 2, 79, 100
4, 1706560, Note_on_c, 2, 79, 0
4, 1706560, Note_on_c, 2, 73, 100
4, 1706640, Note_on_c, 2, 73, 0
4, 1706640, Note_on_c, 2, 74, 100
4, 1706720, Note_on_c, 2, 74, 0
4, 1706720, Note_on_c, 2, 78, 100
4, 1706800, Note_on_c, 2, 78, 0
4, 1706800, Note_on_c, 2, 71, 100
4, 1706880, Note_on_c, 2, 71, 0
4, 1706880, Note_on_c, 2, 72, 100
4, 1706960, Note_on_c, 2, 72, 0
4, 1706960, Note_on_c, 2, 76, 100
4, 1707040, Note_on_c, 2, 76, 0
4, 1707040, Note_on_c, 2, 69, 100
4, 1707120, Note_on_c, 2, 69, 0
4, 1707120, Note_on_c, 2, 71, 100
4, 1707200, Note_on_c, 2, 71, 0
4, 1707200, Note_on_c, 2, 74, 100
4, 1707280, Note_on_c, 2, 74, 0
4, 1707280, Note_on_c, 2, 67, 100
4, 1707360, Note_on_c, 2, 67, 0
4, 1707360, Note_on_c, 2, 69, 100
4, 1707440, Note_on_c, 2, 69, 0
4, 1707440, Note_on_c, 2, 72, 100
4, 1707520, Note_on_c, 2, 72, 0
4, 1707520, Note_on_c, 2, 66, 100
4, 1707600, Note_on_c, 2, 66, 0
4, 1707600, Note_on_c, 2, 67, 100
4, 1707840, Note_on_c, 2, 67, 0
4, 1707840, Note_on_c, 2, 55, 100
4, 1708080, Note_on_c, 2, 55, 0
4, 1708080, Note_on_c, 2, 54, 100
4, 1708320, Note_on_c, 2, 54, 0
4, 1708320, Note_on_c, 2, 57, 100
4, 1708560, Note_on_c, 2, 57, 0
4, 1708560, Note_on_c, 2, 50, 100
4, 1708800, Note_on_c, 2, 50, 0
4, 1708800, Note_on_c, 2, 62, 100
4, 1709040, Note_on_c, 2, 62, 0
4, 1709040, Note_on_c, 2, 61, 100
4, 1709120, Note_on_c, 2, 61, 0
4, 1709120, Note_on_c, 2, 57, 100
4, 1709200, Note_on_c, 2, 57, 0
4, 1709200, Note_on_c, 2, 59, 100
4, 1709280, Note_on_c, 2, 59, 0
4, 1709280, Note_on_c, 2, 61, 100
4, 1709360, Note_on_c, 2, 61, 0
4, 1709360, Note_on_c, 2, 62, 100
4, 1709440, Note_on_c, 2, 62, 0
4, 1709440, Note_on_c, 2, 64, 100
4, 1709520, Note_on_c, 2, 64, 0
4, 1709520, Note_on_c, 2, 66, 100
4, 1709840, Note_on_c, 2, 66, 0
4, 1709840, Note_on_c, 2, 64, 100
4, 1709920, Note_on_c, 2, 64, 0
4, 1709920, Note_on_c, 2, 62, 100
4, 1710000, Note_on_c, 2, 62, 0
4, 1710000, Note_on_c, 2, 71, 100
4, 1710240, Note_on_c, 2, 71, 0
4, 1710240, Note_on_c, 2, 74, 100
4, 1710300, Note_on_c, 2, 74, 0
4, 1710300, Note_on_c, 2, 73, 100
4, 1710360, Note_on_c, 2, 73, 0
4, 1710360, Note_on_c, 2, 71, 100
4, 1710420, Note_on_c, 2, 71, 0
4, 1710420, Note_on_c, 2, 73, 100
4, 1710480, Note_on_c, 2, 73, 0
4, 1710480, Note_on_c, 2, 74, 100
4, 1710560, Note_on_c, 2, 74, 0
4, 1710560, Note_on_c, 2, 69, 100
4, 1710640, Note_on_c, 2, 69, 0
4, 1710640, Note_on_c, 2, 66, 100
4, 1710720, Note_on_c, 2, 66, 0
4, 1710720, Note_on_c, 2, 62, 100
4, 1710800, Note_on_c, 2, 62, 0
4, 1710800, Note_on_c, 2, 57, 100
4, 1710880, Note_on_c, 2, 57, 0
4, 1710880, Note_on_c, 2, 54, 100
4, 1710960, Note_on_c, 2, 54, 0
4, 1710960, Note_on_c, 2, 50, 100
4, 1711200, Note_on_c, 2, 50, 0
4, 1712040, Note_on_c, 2, 71, 100
4, 1712160, Note_on_c, 2, 71, 0
4, 1712280, Note_on_c, 2, 67, 100
4, 1712400, Note_on_c, 2, 67, 0
4, 1712520, Note_on_c, 2, 62, 100
4, 1712640, Note_on_c, 2, 62, 0
4, 1712760, Note_on_c, 2, 59, 100
4, 1712880, Note_on_c, 2, 59, 0
4, 1713000, Note_on_c, 2, 55, 100
4, 1713120, Note_on_c, 2, 55, 0
4, 1713120, Note_on_c, 2, 54, 100
4, 1713240, Note_on_c, 2, 54, 0
4, 1713240, Note_on_c, 2, 52, 100
4, 1713360, Note_on_c, 2, 52, 0
4, 1713360, Note_on_c, 2, 54, 100
4, 1713600, Note_on_c, 2, 54, 0
4, 1713600, Note_on_c, 2, 57, 100
4, 1713840, Note_on_c, 2, 57, 0
4, 1713840, Note_on_c, 2, 62, 100
4, 1714080, Note_on_c, 2, 62, 0
4, 1714080, Note_on_c, 2, 66, 100
4, 1714320, Note_on_c, 2, 66, 0
4, 1714320, Note_on_c, 2, 69, 100
4, 1714560, Note_on_c, 2, 69, 0
4, 1714560, Note_on_c, 2, 74, 100
4, 1714800, Note_on_c, 2, 74, 0
4, 1714920, Note_on_c, 2, 67, 100
4, 1715040, Note_on_c, 2, 67, 0
4, 1715160, Note_on_c, 2, 64, 100
4, 1715280, Note_on_c, 2, 64, 0
4, 1715400, Note_on_c, 2, 61, 100
4, 1715520, Note_on_c, 2, 61, 0
4, 1715640, Note_on_c, 2, 57, 100
4, 1715760, Note_on_c, 2, 57, 0
4, 1715880, Note_on_c, 2, 55, 100
4, 1716000, Note_on_c, 2, 55, 0
4, 1716000, Note_on_c, 2, 54, 100
4, 1716120, Note_on_c, 2, 54, 0
4, 1716120, Note_on_c, 2, 52, 100
4, 1716240, Note_on_c, 2, 52, 0
4, 1716240, Note_on_c, 2, 50, 100
4, 1716480, Note_on_c, 2, 50, 0
4, 1716480, Note_on_c, 2, 54, 100
4, 1716720, Note_on_c, 2, 54, 0
4, 1716720, Note_on_c, 2, 57, 100
4, 1716960, Note_on_c, 2, 57, 0
4, 1716960, Note_on_c, 2, 62, 100
4, 1717200, Note_on_c, 2, 62, 0
4, 1717200, Note_on_c, 2, 66, 100
4, 1717440, Note_on_c, 2, 66, 0
4, 1717440, Note_on_c, 2, 69, 100
4, 1717680, Note_on_c, 2, 69, 0
4, 1717800, Note_on_c, 2, 67, 100
4, 1717920, Note_on_c, 2, 67, 0
4, 1718040, Note_on_c, 2, 62, 100
4, 1718160, Note_on_c, 2, 62, 0
4, 1718280, Note_on_c, 2, 59, 100
4, 1718400, Note_on_c, 2, 59, 0
4, 1718520, Note_on_c, 2, 55, 100
4, 1718640, Note_on_c, 2, 55, 0
4, 1718760, Note_on_c, 2, 53, 100
4, 1718880, Note_on_c, 2, 53, 0
4, 1718880, Note_on_c, 2, 52, 100
4, 1719000, Note_on_c, 2, 52, 0
4, 1719000, Note_on_c, 2, 50, 100
4, 1719120, Note_on_c, 2, 50, 0
4, 1719120, Note_on_c, 2, 48, 100
4, 1719360, Note_on_c, 2, 48, 0
4, 1719360, Note_on_c, 2, 52, 100
4, 1719600, Note_on_c, 2, 52, 0
4, 1719600, Note_on_c, 2, 55, 100
4, 1719840, Note_on_c, 2, 55, 0
4, 1719840, Note_on_c, 2, 60, 100
4, 1720080, Note_on_c, 2, 60, 0
4, 1720080, Note_on_c, 2, 64, 100
4, 1720320, Note_on_c, 2, 64, 0
4, 1720320, Note_on_c, 2, 67, 100
4, 1720560, Note_on_c, 2, 67, 0
4, 1720680, Note_on_c, 2, 66, 100
4, 1720800, Note_on_c, 2, 66, 0
4, 1720920, Note_on_c, 2, 62, 100
4, 1721040, Note_on_c, 2, 62, 0
4, 1721160, Note_on_c, 2, 57, 100
4, 1721280, Note_on_c, 2, 57, 0
4, 1721400, Note_on_c, 2, 54, 100
4, 1721520, Note_on_c, 2, 54, 0
4, 1721640, Note_on_c, 2, 50, 100
4, 1721760, Note_on_c, 2, 50, 0
4, 1721760, Note_on_c, 2, 48, 100
4, 1721880, Note_on_c, 2, 48, 0
4, 1721880, Note_on_c, 2, 50, 100
4, 1722000, Note_on_c, 2, 50, 0
4, 1722000, Note_on_c, 2, 43, 100
4, 1722240, Note_on_c, 2, 43, 0
4, 1722240, Note_on_c, 2, 47, 100
4, 1722480, Note_on_c, 2, 47, 0
4, 1722480, Note_on_c, 2, 50, 100
4, 1722720, Note_on_c, 2, 50, 0
4, 1722720, Note_on_c, 2, 55, 100
4, 1722960, Note_on_c, 2, 55, 0
4, 1722960, Note_on_c, 2, 54, 100
4, 1723200, Note_on_c, 2, 54, 0
4, 1723200, Note_on_c, 2, 60, 100
4, 1723440, Note_on_c, 2, 60, 0
4, 1723440, Note_on_c, 2, 59, 100
4, 1723520, Note_on_c, 2, 59, 0
4, 1723520, Note_on_c, 2, 57, 100
4, 1723600, Note_on_c, 2, 57, 0
4, 1723600, Note_on_c, 2, 59, 100
4, 1723680, Note_on_c, 2, 59, 0
4, 1723680, Note_on_c, 2, 60, 100
4, 1723760, Note_on_c, 2, 60, 0
4, 1723760, Note_on_c, 2, 59, 100
4, 1723840, Note_on_c, 2, 59, 0
4, 1723840, Note_on_c, 2, 60, 100
4, 1723920, Note_on_c, 2, 60, 0
4, 1723920, Note_on_c, 2, 62, 100
4, 1724000, Note_on_c, 2, 62, 0
4, 1724000, Note_on_c, 2, 60, 100
4, 1724080, Note_on_c, 2, 60, 0
4, 1724080, Note_on_c, 2, 62, 100
4, 1724160, Note_on_c, 2, 62, 0
4, 1724160, Note_on_c, 2, 64, 100
4, 1724240, Note_on_c, 2, 64, 0
4, 1724240, Note_on_c, 2, 62, 100
4, 1724320, Note_on_c, 2, 62, 0
4, 1724320, Note_on_c, 2, 64, 100
4, 1724400, Note_on_c, 2, 64, 0
4, 1724400, Note_on_c, 2, 66, 100
4, 1724480, Note_on_c, 2, 66, 0
4, 1724480, Note_on_c, 2, 64, 100
4, 1724560, Note_on_c, 2, 64, 0
4, 1724560, Note_on_c, 2, 66, 100
4, 1724640, Note_on_c, 2, 66, 0
4, 1724640, Note_on_c, 2, 67, 100
4, 1724720, Note_on_c, 2, 67, 0
4, 1724720, Note_on_c, 2, 66, 100
4, 1724800, Note_on_c, 2, 66, 0
4, 1724800, Note_on_c, 2, 67, 100
4, 1724880, Note_on_c, 2, 67, 0
4, 1724880, Note_on_c, 2, 69, 100
4, 1724960, Note_on_c, 2, 69, 0
4, 1724960, Note_on_c, 2, 67, 100
4, 1725040, Note_on_c, 2, 67, 0
4, 1725040, Note_on_c, 2, 69, 100
4, 1725120, Note_on_c, 2, 69, 0
4, 1725120, Note_on_c, 2, 71, 100
4, 1725200, Note_on_c, 2, 71, 0
4, 1725200, Note_on_c, 2, 69, 100
4, 1725280, Note_on_c, 2, 69, 0
4, 1725280, Note_on_c, 2, 71, 100
4, 1725360, Note_on_c, 2, 71, 0
4, 1725360, Note_on_c, 2, 73, 100
4, 1725440, Note_on_c, 2, 73, 0
4, 1725440, Note_on_c, 2, 71, 100
4, 1725520, Note_on_c, 2, 71, 0
4, 1725520, Note_on_c, 2, 73, 100
4, 1725600, Note_on_c, 2, 73, 0
4, 1725600, Note_on_c, 2, 74, 100
4, 1725680, Note_on_c, 2, 74, 0
4, 1725680, Note_on_c, 2, 73, 100
4, 1725760, Note_on_c, 2, 73, 0
4, 1725760, Note_on_c, 2, 74, 100
4, 1725840, Note_on_c, 2, 74, 0
4, 1725840, Note_on_c, 2, 76, 100
4, 1725920, Note_on_c, 2, 76, 0
4, 1725920, Note_on_c, 2, 74, 100
4, 1726000, Note_on_c, 2, 74, 0
4, 1726000, Note_on_c, 2, 76, 100
4, 1726080, Note_on_c, 2, 76, 0
4, 1726080, Note_on_c, 2, 78, 100
4, 1726160, Note_on_c, 2, 78, 0
4, 1726160, Note_on_c, 2, 76, 100
4, 1726240, Note_on_c, 2, 76, 0
4, 1726240, Note_on_c, 2, 78, 100
4, 1726320, Note_on_c, 2, 78, 0
4, 1726320, Note_on_c, 2, 79, 100
4, 1726560, Note_on_c, 2, 79, 0
4, 1726800, Note_on_c, 2, 52, 100
4, 1726840, Note_on_c, 2, 52, 0
4, 1726840, Note_on_c, 2, 50, 100
4, 1726880, Note_on_c, 2, 50, 0
4, 1726880, Note_on_c, 2, 52, 100
4, 1727280, Note_on_c, 2, 52, 0
4, 1727520, Note_on_c, 2, 71, 100
4, 1727760, Note_on_c, 2, 71, 0
4, 1727760, Note_on_c, 2, 79, 100
4, 1728000, Note_on_c, 2, 79, 0
4, 1728240, Note_on_c, 2, 49, 100
4, 1728280, Note_on_c, 2, 49, 0
4, 1728280, Note_on_c, 2, 47, 100
4, 1728320, Note_on_c, 2, 47, 0
4, 1728320, Note_on_c, 2, 49, 100
4, 1728720, Note_on_c, 2, 49, 0
4, 1728960, Note_on_c, 2, 79, 100
4, 1729200, Note_on_c, 2, 79, 0
4, 1729200, Note_on_c, 2, 78, 100
4, 1729280, Note_on_c, 2, 78, 0
4, 1729280, Note_on_c, 2, 81, 100
4, 1729360, Note_on_c, 2, 81, 0
4, 1729360, Note_on_c, 2, 74, 100
4, 1729440, Note_on_c, 2, 74, 0
4, 1729440, Note_on_c, 2, 76, 100
4, 1729520, Note_on_c, 2, 76, 0
4, 1729520, Note_on_c, 2, 79, 100
4, 1729600, Note_on_c, 2, 79, 0
4, 1729600, Note_on_c, 2, 73, 100
4, 1729680, Note_on_c, 2, 73, 0
4, 1729680, Note_on_c, 2, 74, 100
4, 1729760, Note_on_c, 2, 74, 0
4, 1729760, Note_on_c, 2, 78, 100
4, 1729840, Note_on_c, 2, 78, 0
4, 1729840, Note_on_c, 2, 71, 100
4, 1729920, Note_on_c, 2, 71, 0
4, 1729920, Note_on_c, 2, 72, 100
4, 1730000, Note_on_c, 2, 72, 0
4, 1730000, Note_on_c, 2, 76, 100
4, 1730080, Note_on_c, 2, 76, 0
4, 1730080, Note_on_c, 2, 69, 100
4, 1730160, Note_on_c, 2, 69, 0
4, 1730160, Note_on_c, 2, 71, 100
4, 1730240, Note_on_c, 2, 71, 0
4, 1730240, Note_on_c, 2, 74, 100
4, 1730320, Note_on_c, 2, 74, 0
4, 1730320, Note_on_c, 2, 67, 100
4, 1730400, Note_on_c, 2, 67, 0
4, 1730400, Note_on_c, 2, 69, 100
4, 1730480, Note_on_c, 2, 69, 0
4, 1730480, Note_on_c, 2, 72, 100
4, 1730560, Note_on_c, 2, 72, 0
4, 1730560, Note_on_c, 2, 66, 100
4, 1730640, Note_on_c, 2, 66, 0
4, 1730640, Note_on_c, 2, 67, 100
4, 1730880, Note_on_c, 2, 67, 0
4, 1730880, Note_on_c, 2, 55, 100
4, 1731120, Note_on_c, 2, 55, 0
4, 1731120, Note_on_c, 2, 54, 100
4, 1731360, Note_on_c, 2, 54, 0
4, 1731360, Note_on_c, 2, 57, 100
4, 1731600, Note_on_c, 2, 57, 0
4, 1731600, Note_on_c, 2, 50, 100
4, 1731840, Note_on_c, 2, 50, 0
4, 1731840, Note_on_c, 2, 62, 100
4, 1732080, Note_on_c, 2, 62, 0
4, 1732080, Note_on_c, 2, 61, 100
4, 1732160, Note_on_c, 2, 61, 0
4, 1732160, Note_on_c, 2, 57, 100
4, 1732240, Note_on_c, 2, 57, 0
4, 1732240, Note_on_c, 2, 59, 100
4, 1732320, Note_on_c, 2, 59, 0
4, 1732320, Note_on_c, 2, 61, 100
4, 1732400, Note_on_c, 2, 61, 0
4, 1732400, Note_on_c, 2, 62, 100
4, 1732480, Note_on_c, 2, 62, 0
4, 1732480, Note_on_c, 2, 64, 100
4, 1732560, Note_on_c, 2, 64, 0
4, 1732560, Note_on_c, 2, 66, 100
4, 1732880, Note_on_c, 2, 66, 0
4, 1732880, Note_on_c, 2, 64, 100
4, 1732960, Note_on_c, 2, 64, 0
4, 1732960, Note_on_c, 2, 62, 100
4, 1733040, Note_on_c, 2, 62, 0
4, 1733040, Note_on_c, 2, 71, 100
4, 1733280, Note_on_c, 2, 71, 0
4, 1733280, Note_on_c, 2, 74, 100
4, 1733340, Note_on_c, 2, 74, 0
4, 1733340, Note_on_c, 2, 73, 100
4, 1733400, Note_on_c, 2, 73, 0
4, 1733400, Note_on_c, 2, 71, 100
4, 1733460, Note_on_c, 2, 71, 0
4, 1733460, Note_on_c, 2, 73, 100
4, 1733520, Note_on_c, 2, 73, 0
4, 1733520, Note_on_c, 2, 74, 100
4, 1733600, Note_on_c, 2, 74, 0
4, 1733600, Note_on_c, 2, 69, 100
4, 1733680, Note_on_c, 2, 69, 0
4, 1733680, Note_on_c, 2, 66, 100
4, 1733760, Note_on_c, 2, 66, 0
4, 1733760, Note_on_c, 2, 62, 100
4, 1733840, Note_on_c, 2, 62, 0
4, 1733840, Note_on_c, 2, 57, 100
4, 1733920, Note_on_c, 2, 57, 0
4, 1733920, Note_on_c, 2, 54, 100
4, 1734000, Note_on_c, 2, 54, 0
4, 1734000, Note_on_c, 2, 50, 100
4, 1734240, Note_on_c, 2, 50, 0
4, 1735080, Note_on_c, 2, 81, 100
4, 1735200, Note_on_c, 2, 81, 0
4, 1735320, Note_on_c, 2, 78, 100
4, 1735440, Note_on_c, 2, 78, 0
4, 1735560, Note_on_c, 2, 74, 100
4, 1735680, Note_on_c, 2, 74, 0
4, 1735800, Note_on_c, 2, 69, 100
4, 1735920, Note_on_c, 2, 69, 0
4, 1736040, Note_on_c, 2, 66, 100
4, 1736160, Note_on_c, 2, 66, 0
4, 1736280, Note_on_c, 2, 62, 100
4, 1736400, Note_on_c, 2, 62, 0
4, 1736520, Note_on_c, 2, 59, 100
4, 1736640, Note_on_c, 2, 59, 0
4, 1736760, Note_on_c, 2, 55, 100
4, 1736880, Note_on_c, 2, 55, 0
4, 1737000, Note_on_c, 2, 50, 100
4, 1737120, Note_on_c, 2, 50, 0
4, 1737240, Note_on_c, 2, 47, 100
4, 1737360, Note_on_c, 2, 47, 0
4, 1737480, Note_on_c, 2, 43, 100
4, 1737600, Note_on_c, 2, 43, 0
4, 1737600, Note_on_c, 2, 45, 100
4, 1737720, Note_on_c, 2, 45, 0
4, 1737720, Note_on_c, 2, 47, 100
4, 1737840, Note_on_c, 2, 47, 0
4, 1737840, Note_on_c, 2, 48, 100
4, 1738080, Note_on_c, 2, 48, 0
4, 1738080, Note_on_c, 2, 55, 100
4, 1738320, Note_on_c, 2, 55, 0
4, 1738320, Note_on_c, 2, 60, 100
4, 1738560, Note_on_c, 2, 60, 0
4, 1738560, Note_on_c, 2, 64, 100
4, 1738800, Note_on_c, 2, 64, 0
4, 1738800, Note_on_c, 2, 57, 100
4, 1739040, Note_on_c, 2, 57, 0
4, 1739040, Note_on_c, 2, 72, 100
4, 1739360, Note_on_c, 2, 72, 0
4, 1739360, Note_on_c, 2, 71, 100
4, 1739440, Note_on_c, 2, 71, 0
4, 1739440, Note_on_c, 2, 70, 100
4, 1739520, Note_on_c, 2, 70, 0
4, 1739520, Note_on_c, 2, 71, 100
4, 1739600, Note_on_c, 2, 71, 0
4, 1739600, Note_on_c, 2, 73, 100
4, 1739680, Note_on_c, 2, 73, 0
4, 1739680, Note_on_c, 2, 75, 100
4, 1739760, Note_on_c, 2, 75, 0
4, 1739760, Note_on_c, 2, 76, 100
4, 1739840, Note_on_c, 2, 76, 0
4, 1739840, Note_on_c, 2, 75, 100
4, 1739920, Note_on_c, 2, 75, 0
4, 1739920, Note_on_c, 2, 73, 100
4, 1740000, Note_on_c, 2, 73, 0
4, 1740000, Note_on_c, 2, 75, 100
4, 1740080, Note_on_c, 2, 75, 0
4, 1740080, Note_on_c, 2, 76, 100
4, 1740160, Note_on_c, 2, 76, 0
4, 1740160, Note_on_c, 2, 78, 100
4, 1740240, Note_on_c, 2, 78, 0
4, 1740240, Note_on_c, 2, 79, 100
4, 1740320, Note_on_c, 2, 79, 0
4, 1740320, Note_on_c, 2, 78, 100
4, 1740400, Note_on_c, 2, 78, 0
4, 1740400, Note_on_c, 2, 76, 100
4, 1740480, Note_on_c, 2, 76, 0
4, 1740480, Note_on_c, 2, 78, 100
4, 1740560, Note_on_c, 2, 78, 0
4, 1740560, Note_on_c, 2, 79, 100
4, 1740640, Note_on_c, 2, 79, 0
4, 1740640, Note_on_c, 2, 81, 100
4, 1740720, Note_on_c, 2, 81, 0
4, 1740720, Note_on_c, 2, 83, 100
4, 1740800, Note_on_c, 2, 83, 0
4, 1740800, Note_on_c, 2, 81, 100
4, 1740880, Note_on_c, 2, 81, 0
4, 1740880, Note_on_c, 2, 79, 100
4, 1740960, Note_on_c, 2, 79, 0
4, 1740960, Note_on_c, 2, 81, 100
4, 1741040, Note_on_c, 2, 81, 0
4, 1741040, Note_on_c, 2, 83, 100
4, 1741120, Note_on_c, 2, 83, 0
4, 1741120, Note_on_c, 2, 84, 100
4, 1741200, Note_on_c, 2, 84, 0
4, 1741200, Note_on_c, 2, 75, 100
4, 1741440, Note_on_c, 2, 75, 0
4, 1741440, Note_on_c, 2, 84, 100
4, 1741680, Note_on_c, 2, 84, 0
4, 1741680, Note_on_c, 2, 83, 100
4, 1741920, Note_on_c, 2, 83, 0
4, 1741920, Note_on_c, 2, 74, 100
4, 1742240, Note_on_c, 2, 74, 0
4, 1742240, Note_on_c, 2, 73, 100
4, 1742320, Note_on_c, 2, 73, 0
4, 1742320, Note_on_c, 2, 75, 100
4, 1742400, Note_on_c, 2, 75, 0
4, 1742400, Note_on_c, 2, 76, 100
4, 1742480, Note_on_c, 2, 76, 0
4, 1742480, Note_on_c, 2, 78, 100
4, 1742560, Note_on_c, 2, 78, 0
4, 1742560, Note_on_c, 2, 79, 100
4, 1742640, Note_on_c, 2, 79, 0
4, 1742640, Note_on_c, 2, 70, 100
4, 1742880, Note_on_c, 2, 70, 0
4, 1742880, Note_on_c, 2, 79, 100
4, 1743120, Note_on_c, 2, 79, 0
4, 1743120, Note_on_c, 2, 78, 100
4, 1743360, Note_on_c, 2, 78, 0
4, 1743360, Note_on_c, 2, 69, 100
4, 1743600, Note_on_c, 2, 69, 0
4, 1743600, Note_on_c, 2, 67, 100
4, 1743840, Note_on_c, 2, 67, 0
4, 1743840, Note_on_c, 2, 63, 100
4, 1744080, Note_on_c, 2, 63, 0
4, 1744080, Note_on_c, 2, 64, 100
4, 1744320, Note_on_c, 2, 64, 0
4, 1744320, Note_on_c, 2, 60, 100
4, 1744560, Note_on_c, 2, 60, 0
4, 1744560, Note_on_c, 2, 51, 100
4, 1744800, Note_on_c, 2, 51, 0
4, 1744800, Note_on_c, 2, 75, 100
4, 1745040, Note_on_c, 2, 75, 0
4, 1745040, Note_on_c, 2, 76, 100
4, 1745280, Note_on_c, 2, 76, 0
4, 1745280, Note_on_c, 2, 64, 100
4, 1745520, Note_on_c, 2, 64, 0
4, 1745600, Note_on_c, 2, 67, 100
4, 1745680, Note_on_c, 2, 67, 0
4, 1745680, Note_on_c, 2, 71, 100
4, 1745760, Note_on_c, 2, 71, 0
4, 1745760, Note_on_c, 2, 76, 100
4, 1745840, Note_on_c, 2, 76, 0
4, 1745840, Note_on_c, 2, 79, 100
4, 1745920, Note_on_c, 2, 79, 0
4, 1745920, Note_on_c, 2, 75, 100
4, 1746000, Note_on_c, 2, 75, 0
4, 1746000, Note_on_c, 2, 76, 100
4, 1746080, Note_on_c, 2, 76, 0
4, 1746080, Note_on_c, 2, 71, 100
4, 1746160, Note_on_c, 2, 71, 0
4, 1746160, Note_on_c, 2, 67, 100
4, 1746240, Note_on_c, 2, 67, 0
4, 1746320, Note_on_c, 2, 68, 100
4, 1746400, Note_on_c, 2, 68, 0
4, 1746420, Note_on_c, 2, 77, 100
4, 1746480, Note_on_c, 2, 76, 100
4, 1746500, Note_on_c, 2, 77, 0
4, 1746560, Note_on_c, 2, 76, 0
4, 1746560, Note_on_c, 2, 72, 100
4, 1746640, Note_on_c, 2, 72, 0
4, 1746640, Note_on_c, 2, 69, 100
4, 1746720, Note_on_c, 2, 69, 0
4, 1746800, Note_on_c, 2, 62, 100
4, 1746880, Note_on_c, 2, 62, 0
4, 1746880, Note_on_c, 2, 71, 100
4, 1746960, Note_on_c, 2, 71, 0
4, 1747040, Note_on_c, 2, 60, 100
4, 1747120, Note_on_c, 2, 60, 0
4, 1747120, Note_on_c, 2, 69, 100
4, 1747200, Note_on_c, 2, 69, 0
4, 1747280, Note_on_c, 2, 59, 100
4, 1747360, Note_on_c, 2, 59, 0
4, 1747360, Note_on_c, 2, 67, 100
4, 1747440, Note_on_c, 2, 67, 0
4, 1747520, Note_on_c, 2, 60, 100
4, 1747600, Note_on_c, 2, 60, 0
4, 1747600, Note_on_c, 2, 69, 100
4, 1747680, Note_on_c, 2, 69, 0
4, 1747760, Note_on_c, 2, 66, 100
4, 1747840, Note_on_c, 2, 66, 0
4, 1747840, Note_on_c, 2, 75, 100
4, 1747920, Note_on_c, 2, 75, 0
4, 1747920, Note_on_c, 2, 74, 100
4, 1748000, Note_on_c, 2, 74, 0
4, 1748000, Note_on_c, 2, 71, 100
4, 1748080, Note_on_c, 2, 71, 0
4, 1748080, Note_on_c, 2, 67, 100
4, 1748160, Note_on_c, 2, 67, 0
4, 1748240, Note_on_c, 2, 60, 100
4, 1748320, Note_on_c, 2, 60, 0
4, 1748320, Note_on_c, 2, 69, 100
4, 1748400, Note_on_c, 2, 69, 0
4, 1748480, Note_on_c, 2, 59, 100
4, 1748560, Note_on_c, 2, 59, 0
4, 1748560, Note_on_c, 2, 67, 100
4, 1748640, Note_on_c, 2, 67, 0
4, 1748720, Note_on_c, 2, 57, 100
4, 1748800, Note_on_c, 2, 57, 0
4, 1748800, Note_on_c, 2, 66, 100
4, 1748880, Note_on_c, 2, 66, 0
4, 1748960, Note_on_c, 2, 59, 100
4, 1749040, Note_on_c, 2, 59, 0
4, 1749040, Note_on_c, 2, 67, 100
4, 1749120, Note_on_c, 2, 67, 0
4, 1749200, Note_on_c, 2, 64, 100
4, 1749280, Note_on_c, 2, 64, 0
4, 1749280, Note_on_c, 2, 74, 100
4, 1749360, Note_on_c, 2, 74, 0
4, 1749360, Note_on_c, 2, 72, 100
4, 1749440, Note_on_c, 2, 72, 0
4, 1749440, Note_on_c, 2, 69, 100
4, 1749520, Note_on_c, 2, 69, 0
4, 1749520, Note_on_c, 2, 64, 100
4, 1749600, Note_on_c, 2, 64, 0
4, 1749600, Note_on_c, 2, 60, 100
4, 1749720, Note_on_c, 2, 60, 0
4, 1749840, Note_on_c, 2, 60, 100
4, 1749960, Note_on_c, 2, 60, 0
4, 1750080, Note_on_c, 2, 60, 100
4, 1750200, Note_on_c, 2, 60, 0
4, 1750320, Note_on_c, 2, 60, 100
4, 1750440, Note_on_c, 2, 60, 0
4, 1750560, Note_on_c, 2, 72, 100
4, 1750800, Note_on_c, 2, 72, 0
4, 1750800, Note_on_c, 2, 72, 100
4, 1750880, Note_on_c, 2, 72, 0
4, 1750880, Note_on_c, 2, 69, 100
4, 1750960, Note_on_c, 2, 69, 0
4, 1750960, Note_on_c, 2, 66, 100
4, 1751040, Note_on_c, 2, 66, 0
4, 1751040, Note_on_c, 2, 62, 100
4, 1751160, Note_on_c, 2, 62, 0
4, 1751280, Note_on_c, 2, 62, 100
4, 1751400, Note_on_c, 2, 62, 0
4, 1751520, Note_on_c, 2, 62, 100
4, 1751640, Note_on_c, 2, 62, 0
4, 1751760, Note_on_c, 2, 62, 100
4, 1751880, Note_on_c, 2, 62, 0
4, 1752000, Note_on_c, 2, 72, 100
4, 1752240, Note_on_c, 2, 72, 0
4, 1752240, Note_on_c, 2, 71, 100
4, 1752320, Note_on_c, 2, 71, 0
4, 1752320, Note_on_c, 2, 67, 100
4, 1752400, Note_on_c, 2, 67, 0
4, 1752400, Note_on_c, 2, 74, 100
4, 1752480, Note_on_c, 2, 74, 0
4, 1752480, Note_on_c, 2, 72, 100
4, 1752560, Note_on_c, 2, 72, 0
4, 1752560, Note_on_c, 2, 69, 100
4, 1752640, Note_on_c, 2, 69, 0
4, 1752640, Note_on_c, 2, 76, 100
4, 1752720, Note_on_c, 2, 76, 0
4, 1752720, Note_on_c, 2, 74, 100
4, 1752960, Note_on_c, 2, 74, 0
4, 1752960, Note_on_c, 2, 59, 100
4, 1753200, Note_on_c, 2, 59, 0
4, 1753200, Note_on_c, 2, 55, 100
4, 1753440, Note_on_c, 2, 55, 0
4, 1753440, Note_on_c, 2, 77, 100
4, 1753680, Note_on_c, 2, 77, 0
4, 1753680, Note_on_c, 2, 76, 100
4, 1753760, Note_on_c, 2, 76, 0
4, 1753760, Note_on_c, 2, 79, 100
4, 1753840, Note_on_c, 2, 79, 0
4, 1753840, Note_on_c, 2, 72, 100
4, 1753920, Note_on_c, 2, 72, 0
4, 1753920, Note_on_c, 2, 74, 100
4, 1754000, Note_on_c, 2, 74, 0
4, 1754000, Note_on_c, 2, 77, 100
4, 1754080, Note_on_c, 2, 77, 0
4, 1754080, Note_on_c, 2, 71, 100
4, 1754160, Note_on_c, 2, 71, 0
4, 1754160, Note_on_c, 2, 72, 100
4, 1754240, Note_on_c, 2, 72, 0
4, 1754240, Note_on_c, 2, 76, 100
4, 1754320, Note_on_c, 2, 76, 0
4, 1754320, Note_on_c, 2, 69, 100
4, 1754400, Note_on_c, 2, 69, 0
4, 1754400, Note_on_c, 2, 71, 100
4, 1754480, Note_on_c, 2, 71, 0
4, 1754480, Note_on_c, 2, 74, 100
4, 1754560, Note_on_c, 2, 74, 0
4, 1754560, Note_on_c, 2, 67, 100
4, 1754640, Note_on_c, 2, 67, 0
4, 1754640, Note_on_c, 2, 69, 100
4, 1754720, Note_on_c, 2, 69, 0
4, 1754720, Note_on_c, 2, 72, 100
4, 1754800, Note_on_c, 2, 72, 0
4, 1754800, Note_on_c, 2, 66, 100
4, 1754880, Note_on_c, 2, 66, 0
4, 1754880, Note_on_c, 2, 67, 100
4, 1754960, Note_on_c, 2, 67, 0
4, 1754960, Note_on_c, 2, 71, 100
4, 1755040, Note_on_c, 2, 71, 0
4, 1755040, Note_on_c, 2, 64, 100
4, 1755120, Note_on_c, 2, 64, 0
4, 1755120, Note_on_c, 2, 66, 100
4, 1755200, Note_on_c, 2, 66, 0
4, 1755200, Note_on_c, 2, 62, 100
4, 1755280, Note_on_c, 2, 62, 0
4, 1755280, Note_on_c, 2, 64, 100
4, 1755360, Note_on_c, 2, 64, 0
4, 1755360, Note_on_c, 2, 66, 100
4, 1755440, Note_on_c, 2, 66, 0
4, 1755440, Note_on_c, 2, 67, 100
4, 1755520, Note_on_c, 2, 67, 0
4, 1755520, Note_on_c, 2, 69, 100
4, 1755600, Note_on_c, 2, 69, 0
4, 1755600, Note_on_c, 2, 59, 100
4, 1755920, Note_on_c, 2, 59, 0
4, 1755920, Note_on_c, 2, 57, 100
4, 1756000, Note_on_c, 2, 57, 0
4, 1756000, Note_on_c, 2, 55, 100
4, 1756080, Note_on_c, 2, 55, 0
4, 1756080, Note_on_c, 2, 64, 100
4, 1756320, Note_on_c, 2, 64, 0
4, 1756320, Note_on_c, 2, 67, 100
4, 1756380, Note_on_c, 2, 67, 0
4, 1756380, Note_on_c, 2, 66, 100
4, 1756440, Note_on_c, 2, 66, 0
4, 1756440, Note_on_c, 2, 64, 100
4, 1756500, Note_on_c, 2, 64, 0
4, 1756500, Note_on_c, 2, 66, 100
4, 1756560, Note_on_c, 2, 66, 0
4, 1756560, Note_on_c, 2, 67, 100
4, 1756640, Note_on_c, 2, 67, 0
4, 1756640, Note_on_c, 2, 62, 100
4, 1756720, Note_on_c, 2, 62, 0
4, 1756720, Note_on_c, 2, 59, 100
4, 1756800, Note_on_c, 2, 59, 0
4, 1756800, Note_on_c, 2, 55, 100
4, 1756880, Note_on_c, 2, 55, 0
4, 1756880, Note_on_c, 2, 50, 100
4, 1756960, Note_on_c, 2, 50, 0
4, 1756960, Note_on_c, 2, 47, 100
4, 1757040, Note_on_c, 2, 47, 0
4, 1757040, Note_on_c, 2, 43, 100
4, 1757280, Note_on_c, 2, 43, 0
4, 1758120, Note_on_c, 2, 81, 100
4, 1758240, Note_on_c, 2, 81, 0
4, 1758360, Note_on_c, 2, 78, 100
4, 1758480, Note_on_c, 2, 78, 0
4, 1758600, Note_on_c, 2, 74, 100
4, 1758720, Note_on_c, 2, 74, 0
4, 1758840, Note_on_c, 2, 69, 100
4, 1758960, Note_on_c, 2, 69, 0
4, 1759080, Note_on_c, 2, 66, 100
4, 1759200, Note_on_c, 2, 66, 0
4, 1759320, Note_on_c, 2, 62, 100
4, 1759440, Note_on_c, 2, 62, 0
4, 1759560, Note_on_c, 2, 59, 100
4, 1759680, Note_on_c, 2, 59, 0
4, 1759800, Note_on_c, 2, 55, 100
4, 1759920, Note_on_c, 2, 55, 0
4, 1760040, Note_on_c, 2, 50, 100
4, 1760160, Note_on_c, 2, 50, 0
4, 1760280, Note_on_c, 2, 47, 100
4, 1760400, Note_on_c, 2, 47, 0
4, 1760520, Note_on_c, 2, 43, 100
4, 1760640, Note_on_c, 2, 43, 0
4, 1760640, Note_on_c, 2, 45, 100
4, 1760760, Note_on_c, 2, 45, 0
4, 1760760, Note_on_c, 2, 47, 100
4, 1760880, Note_on_c, 2, 47, 0
4, 1760880, Note_on_c, 2, 48, 100
4, 1761120, Note_on_c, 2, 48, 0
4, 1761120, Note_on_c, 2, 55, 100
4, 1761360, Note_on_c, 2, 55, 0
4, 1761360, Note_on_c, 2, 60, 100
4, 1761600, Note_on_c, 2, 60, 0
4, 1761600, Note_on_c, 2, 64, 100
4, 1761840, Note_on_c, 2, 64, 0
4, 1761840, Note_on_c, 2, 57, 100
4, 1762080, Note_on_c, 2, 57, 0
4, 1762080, Note_on_c, 2, 72, 100
4, 1762400, Note_on_c, 2, 72, 0
4, 1762400, Note_on_c, 2, 71, 100
4, 1762480, Note_on_c, 2, 71, 0
4, 1762480, Note_on_c, 2, 70, 100
4, 1762560, Note_on_c, 2, 70, 0
4, 1762560, Note_on_c, 2, 71, 100
4, 1762640, Note_on_c, 2, 71, 0
4, 1762640, Note_on_c, 2, 73, 100
4, 1762720, Note_on_c, 2, 73, 0
4, 1762720, Note_on_c, 2, 75, 100
4, 1762800, Note_on_c, 2, 75, 0
4, 1762800, Note_on_c, 2, 76, 100
4, 1762880, Note_on_c, 2, 76, 0
4, 1762880, Note_on_c, 2, 75, 100
4, 1762960, Note_on_c, 2, 75, 0
4, 1762960, Note_on_c, 2, 73, 100
4, 1763040, Note_on_c, 2, 73, 0
4, 1763040, Note_on_c, 2, 75, 100
4, 1763120, Note_on_c, 2, 75, 0
4, 1763120, Note_on_c, 2, 76, 100
4, 1763200, Note_on_c, 2, 76, 0
4, 1763200, Note_on_c, 2, 78, 100
4, 1763280, Note_on_c, 2, 78, 0
4, 1763280, Note_on_c, 2, 79, 100
4, 1763360, Note_on_c, 2, 79, 0
4, 1763360, Note_on_c, 2, 78, 100
4, 1763440, Note_on_c, 2, 78, 0
4, 1763440, Note_on_c, 2, 76, 100
4, 1763520, Note_on_c, 2, 76, 0
4, 1763520, Note_on_c, 2, 78, 100
4, 1763600, Note_on_c, 2, 78, 0
4, 1763600, Note_on_c, 2, 79, 100
4, 1763680, Note_on_c, 2, 79, 0
4, 1763680, Note_on_c, 2, 81, 100
4, 1763760, Note_on_c, 2, 81, 0
4, 1763760, Note_on_c, 2, 83, 100
4, 1763840, Note_on_c, 2, 83, 0
4, 1763840, Note_on_c, 2, 81, 100
4, 1763920, Note_on_c, 2, 81, 0
4, 1763920, Note_on_c, 2, 79, 100
4, 1764000, Note_on_c, 2, 79, 0
4, 1764000, Note_on_c, 2, 81, 100
4, 1764080, Note_on_c, 2, 81, 0
4, 1764080, Note_on_c, 2, 83, 100
4, 1764160, Note_on_c, 2, 83, 0
4, 1764160, Note_on_c, 2, 84, 100
4, 1764240, Note_on_c, 2, 84, 0
4, 1764240, Note_on_c, 2, 75, 100
4, 1764480, Note_on_c, 2, 75, 0
4, 1764480, Note_on_c, 2, 84, 100
4, 1764720, Note_on_c, 2, 84, 0
4, 1764720, Note_on_c, 2, 83, 100
4, 1764960, Note_on_c, 2, 83, 0
4, 1764960, Note_on_c, 2, 74, 100
4, 1765280, Note_on_c, 2, 74, 0
4, 1765280, Note_on_c, 2, 73, 100
4, 1765360, Note_on_c, 2, 73, 0
4, 1765360, Note_on_c, 2, 75, 100
4, 1765440, Note_on_c, 2, 75, 0
4, 1765440, Note_on_c, 2, 76, 100
4, 1765520, Note_on_c, 2, 76, 0
4, 1765520, Note_on_c, 2, 78, 100
4, 1765600, Note_on_c, 2, 78, 0
4, 1765600, Note_on_c, 2, 79, 100
4, 1765680, Note_on_c, 2, 79, 0
4, 1765680, Note_on_c, 2, 70, 100
4, 1765920, Note_on_c, 2, 70, 0
4, 1765920, Note_on_c, 2, 79, 100
4, 1766160, Note_on_c, 2, 79, 0
4, 1766160, Note_on_c, 2, 78, 100
4, 1766400, Note_on_c, 2, 78, 0
4, 1766400, Note_on_c, 2, 69, 100
4, 1766640, Note_on_c, 2, 69, 0
4, 1766640, Note_on_c, 2, 67, 100
4, 1766880, Note_on_c, 2, 67, 0
4, 1766880, Note_on_c, 2, 63, 100
4, 1767120, Note_on_c, 2, 63, 0
4, 1767120, Note_on_c, 2, 64, 100
4, 1767360, Note_on_c, 2, 64, 0
4, 1767360, Note_on_c, 2, 60, 100
4, 1767600, Note_on_c, 2, 60, 0
4, 1767600, Note_on_c, 2, 51, 100
4, 1767840, Note_on_c, 2, 51, 0
4, 1767840, Note_on_c, 2, 75, 100
4, 1768080, Note_on_c, 2, 75, 0
4, 1768080, Note_on_c, 2, 76, 100
4, 1768320, Note_on_c, 2, 76, 0
4, 1768320, Note_on_c, 2, 64, 100
4, 1768560, Note_on_c, 2, 64, 0
4, 1768640, Note_on_c, 2, 67, 100
4, 1768720, Note_on_c, 2, 67, 0
4, 1768720, Note_on_c, 2, 71, 100
4, 1768800, Note_on_c, 2, 71, 0
4, 1768800, Note_on_c, 2, 76, 100
4, 1768880, Note_on_c, 2, 76, 0
4, 1768880, Note_on_c, 2, 79, 100
4, 1768960, Note_on_c, 2, 79, 0
4, 1768960, Note_on_c, 2, 75, 100
4, 1769040, Note_on_c, 2, 75, 0
4, 1769040, Note_on_c, 2, 76, 100
4, 1769120, Note_on_c, 2, 76, 0
4, 1769120, Note_on_c, 2, 71, 100
4, 1769200, Note_on_c, 2, 71, 0
4, 1769200, Note_on_c, 2, 67, 100
4, 1769280, Note_on_c, 2, 67, 0
4, 1769360, Note_on_c, 2, 68, 100
4, 1769440, Note_on_c, 2, 68, 0
4, 1769460, Note_on_c, 2, 77, 100
4, 1769520, Note_on_c, 2, 76, 100
4, 1769540, Note_on_c, 2, 77, 0
4, 1769600, Note_on_c, 2, 76, 0
4, 1769600, Note_on_c, 2, 72, 100
4, 1769680, Note_on_c, 2, 72, 0
4, 1769680, Note_on_c, 2, 69, 100
4, 1769760, Note_on_c, 2, 69, 0
4, 1769840, Note_on_c, 2, 62, 100
4, 1769920, Note_on_c, 2, 62, 0
4, 1769920, Note_on_c, 2, 71, 100
4, 1770000, Note_on_c, 2, 71, 0
4, 1770080, Note_on_c, 2, 60, 100
4, 1770160, Note_on_c, 2, 60, 0
4, 1770160, Note_on_c, 2, 69, 100
4, 1770240, Note_on_c, 2, 69, 0
4, 1770320, Note_on_c, 2, 59, 100
4, 1770400, Note_on_c, 2, 59, 0
4, 1770400, Note_on_c, 2, 67, 100
4, 1770480, Note_on_c, 2, 67, 0
4, 1770560, Note_on_c, 2, 60, 100
4, 1770640, Note_on_c, 2, 60, 0
4, 1770640, Note_on_c, 2, 69, 100
4, 1770720, Note_on_c, 2, 69, 0
4, 1770800, Note_on_c, 2, 66, 100
4, 1770880, Note_on_c, 2, 66, 0
4, 1770880, Note_on_c, 2, 75, 100
4, 1770960, Note_on_c, 2, 75, 0
4, 1770960, Note_on_c, 2, 74, 100
4, 1771040, Note_on_c, 2, 74, 0
4, 1771040, Note_on_c, 2, 71, 100
4, 1771120, Note_on_c, 2, 71, 0
4, 1771120, Note_on_c, 2, 67, 100
4, 1771200, Note_on_c, 2, 67, 0
4, 1771280, Note_on_c, 2, 60, 100
4, 1771360, Note_on_c, 2, 60, 0
4, 1771360, Note_on_c, 2, 69, 100
4, 1771440, Note_on_c, 2, 69, 0
4, 1771520, Note_on_c, 2, 59, 100
4, 1771600, Note_on_c, 2, 59, 0
4, 1771600, Note_on_c, 2, 67, 100
4, 1771680, Note_on_c, 2, 67, 0
4, 1771760, Note_on_c, 2, 57, 100
4, 1771840, Note_on_c, 2, 57, 0
4, 1771840, Note_on_c, 2, 66, 100
4, 1771920, Note_on_c, 2, 66, 0
4, 1772000, Note_on_c, 2, 59, 100
4, 1772080, Note_on_c, 2, 59, 0
4, 1772080, Note_on_c, 2, 67, 100
4, 1772160, Note_on_c, 2, 67, 0
4, 1772240, Note_on_c, 2, 64, 100
4, 1772320, Note_on_c, 2, 64, 0
4, 1772320, Note_on_c, 2, 74, 100
4, 1772400, Note_on_c, 2, 74, 0
4, 1772400, Note_on_c, 2, 72, 100
4, 1772480, Note_on_c, 2, 72, 0
4, 1772480, Note_on_c, 2, 69, 100
4, 1772560, Note_on_c, 2, 69, 0
4, 1772560, Note_on_c, 2, 64, 100
4, 1772640, Note_on_c, 2, 64, 0
4, 1772640, Note_on_c, 2, 60, 100
4, 1772760, Note_on_c, 2, 60, 0
4, 1772880, Note_on_c, 2, 60, 100
4, 1773000, Note_on_c, 2, 60, 0
4, 1773120, Note_on_c, 2, 60, 100
4, 1773240, Note_on_c, 2, 60, 0
4, 1773360, Note_on_c, 2, 60, 100
4, 1773480, Note_on_c, 2, 60, 0
4, 1773600, Note_on_c, 2, 72, 100
4, 1773840, Note_on_c, 2, 72, 0
4, 1773840, Note_on_c, 2, 72, 100
4, 1773920, Note_on_c, 2, 72, 0
4, 1773920, Note_on_c, 2, 69, 100
4, 1774000, Note_on_c, 2, 69, 0
4, 1774000, Note_on_c, 2, 66, 100
4, 1774080, Note_on_c, 2, 66, 0
4, 1774080, Note_on_c, 2, 62, 100
4, 1774200, Note_on_c, 2, 62, 0
4, 1774320, Note_on_c, 2, 62, 100
4, 1774440, Note_on_c, 2, 62, 0
4, 1774560, Note_on_c, 2, 62, 100
4, 1774680, Note_on_c, 2, 62, 0
4, 1774800, Note_on_c, 2, 62, 100
4, 1774920, Note_on_c, 2, 62, 0
4, 1775040, Note_on_c, 2, 72, 100
4, 1775280, Note_on_c, 2, 72, 0
4, 1775280, Note_on_c, 2, 71, 100
4, 1775360, Note_on_c, 2, 71, 0
4, 1775360, Note_on_c, 2, 67, 100
4, 1775440, Note_on_c, 2, 67, 0
4, 1775440, Note_on_c, 2, 74, 100
4, 1775520, Note_on_c, 2, 74, 0
4, 1775520, Note_on_c, 2, 72, 100
4, 1775600, Note_on_c, 2, 72, 0
4, 1775600, Note_on_c, 2, 69, 100
4, 1775680, Note_on_c, 2, 69, 0
4, 1775680, Note_on_c, 2, 76, 100
4, 1775760, Note_on_c, 2, 76, 0
4, 1775760, Note_on_c, 2, 74, 100
4, 1776000, Note_on_c, 2, 74, 0
4, 1776000, Note_on_c, 2, 59, 100
4, 1776240, Note_on_c, 2, 59, 0
4, 1776240, Note_on_c, 2, 55, 100
4, 1776480, Note_on_c, 2, 55, 0
4, 1776480, Note_on_c, 2, 77, 100
4, 1776720, Note_on_c, 2, 77, 0
4, 1776720, Note_on_c, 2, 76, 100
4, 1776800, Note_on_c, 2, 76, 0
4, 1776800, Note_on_c, 2, 79, 100
4, 1776880, Note_on_c, 2, 79, 0
4, 1776880, Note_on_c, 2, 72, 100
4, 1776960, Note_on_c, 2, 72, 0
4, 1776960, Note_on_c, 2, 74, 100
4, 1777040, Note_on_c, 2, 74, 0
4, 1777040, Note_on_c, 2, 77, 100
4, 1777120, Note_on_c, 2, 77, 0
4, 1777120, Note_on_c, 2, 71, 100
4, 1777200, Note_on_c, 2, 71, 0
4, 1777200, Note_on_c, 2, 72, 100
4, 1777280, Note_on_c, 2, 72, 0
4, 1777280, Note_on_c, 2, 76, 100
4, 1777360, Note_on_c, 2, 76, 0
4, 1777360, Note_on_c, 2, 69, 100
4, 1777440, Note_on_c, 2, 69, 0
4, 1777440, Note_on_c, 2, 71, 100
4, 1777520, Note_on_c, 2, 71, 0
4, 1777520, Note_on_c, 2, 74, 100
4, 1777600, Note_on_c, 2, 74, 0
4, 1777600, Note_on_c, 2, 67, 100
4, 1777680, Note_on_c, 2, 67, 0
4, 1777680, Note_on_c, 2, 69, 100
4, 1777760, Note_on_c, 2, 69, 0
4, 1777760, Note_on_c, 2, 72, 100
4, 1777840, Note_on_c, 2, 72, 0
4, 1777840, Note_on_c, 2, 66, 100
4, 1777920, Note_on_c, 2, 66, 0
4, 1777920, Note_on_c, 2, 67, 100
4, 1778000, Note_on_c, 2, 67, 0
4, 1778000, Note_on_c, 2, 71, 100
4, 1778080, Note_on_c, 2, 71, 0
4, 1778080, Note_on_c, 2, 64, 100
4, 1778160, Note_on_c, 2, 64, 0
4, 1778160, Note_on_c, 2, 66, 100
4, 1778240, Note_on_c, 2, 66, 0
4, 1778240, Note_on_c, 2, 62, 100
4, 1778320, Note_on_c, 2, 62, 0
4, 1778320, Note_on_c, 2, 64, 100
4, 1778400, Note_on_c, 2, 64, 0
4, 1778400, Note_on_c, 2, 66, 100
4, 1778480, Note_on_c, 2, 66, 0
4, 1778480, Note_on_c, 2, 67, 100
4, 1778560, Note_on_c, 2, 67, 0
4, 1778560, Note_on_c, 2, 69, 100
4, 1778640, Note_on_c, 2, 69, 0
4, 1778640, Note_on_c, 2, 59, 100
4, 1778960, Note_on_c, 2, 59, 0
4, 1778960, Note_on_c, 2, 57, 100
4, 1779040, Note_on_c, 2, 57, 0
4, 1779040, Note_on_c, 2, 55, 100
4, 1779120, Note_on_c, 2, 55, 0
4, 1779120, Note_on_c, 2, 64, 100
4, 1779360, Note_on_c, 2, 64, 0
4, 1779360, Note_on_c, 2, 67, 100
4, 1779420, Note_on_c, 2, 67, 0
4, 1779420, Note_on_c, 2, 66, 100
4, 1779480, Note_on_c, 2, 66, 0
4, 1779480, Note_on_c, 2, 64, 100
4, 1779540, Note_on_c, 2, 64, 0
4, 1779540, Note_on_c, 2, 66, 100
4, 1779600, Note_on_c, 2, 66, 0
4, 1779600, Note_on_c, 2, 67, 100
4, 1779680, Note_on_c, 2, 67, 0
4, 1779680, Note_on_c, 2, 62, 100
4, 1779760, Note_on_c, 2, 62, 0
4, 1779760, Note_on_c, 2, 59, 100
4, 1779840, Note_on_c, 2, 59, 0
4, 1779840, Note_on_c, 2, 55, 100
4, 1779920, Note_on_c, 2, 55, 0
4, 1779920, Note_on_c, 2, 50, 100
4, 1780000, Note_on_c, 2, 50, 0
4, 1780000, Note_on_c, 2, 47, 100
4, 1780080, Note_on_c, 2, 47, 0
4, 1780080, Note_on_c, 2, 43, 100
4, 1780320, Note_on_c, 2, 43, 0
4, 1847280, Note_on_c, 2, 67, 100
4, 1848720, Note_on_c, 2, 67, 0
4, 1848720, Note_on_c, 2, 66, 100
4, 1848960, Note_on_c, 2, 66, 0
4, 1848960, Note_on_c, 2, 64, 100
4, 1849200, Note_on_c, 2, 64, 0
4, 1849200, Note_on_c, 2, 66, 100
4, 1849680, Note_on_c, 2, 66, 0
4, 1849680, Note_on_c, 2, 69, 100
4, 1850160, Note_on_c, 2, 69, 0
4, 1850160, Note_on_c, 2, 62, 100
4, 1851600, Note_on_c, 2, 62, 0
4, 1851600, Note_on_c, 2, 65, 100
4, 1852080, Note_on_c, 2, 65, 0
4, 1852080, Note_on_c, 2, 64, 100
4, 1853520, Note_on_c, 2, 64, 0
4, 1853520, Note_on_c, 2, 67, 100
4, 1854480, Note_on_c, 2, 67, 0
4, 1854480, Note_on_c, 2, 66, 100
4, 1854720, Note_on_c, 2, 66, 0
4, 1854720, Note_on_c, 2, 64, 100
4, 1854960, Note_on_c, 2, 64, 0
4, 1854960, Note_on_c, 2, 66, 100
4, 1855440, Note_on_c, 2, 66, 0
4, 1855440, Note_on_c, 2, 69, 100
4, 1856400, Note_on_c, 2, 69, 0
4, 1856400, Note_on_c, 2, 67, 100
4, 1856640, Note_on_c, 2, 67, 0
4, 1856640, Note_on_c, 2, 66, 100
4, 1856880, Note_on_c, 2, 66, 0
4, 1856880, Note_on_c, 2, 67, 100
4, 1857360, Note_on_c, 2, 67, 0
4, 1857360, Note_on_c, 2, 71, 100
4, 1857840, Note_on_c, 2, 71, 0
4, 1857840, Note_on_c, 2, 64, 100
4, 1858800, Note_on_c, 2, 64, 0
4, 1858800, Note_on_c, 2, 71, 100
4, 1859760, Note_on_c, 2, 71, 0
4, 1859760, Note_on_c, 2, 69, 100
4, 1860720, Note_on_c, 2, 69, 0
4, 1860720, Note_on_c, 2, 74, 100
4, 1861680, Note_on_c, 2, 74, 0
4, 1861680, Note_on_c, 2, 78, 100
4, 1861840, Note_on_c, 2, 78, 0
4, 1861840, Note_on_c, 2, 76, 100
4, 1862000, Note_on_c, 2, 76, 0
4, 1862000, Note_on_c, 2, 78, 100
4, 1862160, Note_on_c, 2, 78, 0
4, 1862160, Note_on_c, 2, 76, 100
4, 1862320, Note_on_c, 2, 76, 0
4, 1862320, Note_on_c, 2, 78, 100
4, 1862480, Note_on_c, 2, 78, 0
4, 1862480, Note_on_c, 2, 76, 100
4, 1862640, Note_on_c, 2, 76, 0
4, 1862640, Note_on_c, 2, 78, 100
4, 1862800, Note_on_c, 2, 78, 0
4, 1862800, Note_on_c, 2, 76, 100
4, 1862960, Note_on_c, 2, 76, 0
4, 1862960, Note_on_c, 2, 78, 100
4, 1863120, Note_on_c, 2, 78, 0
4, 1863120, Note_on_c, 2, 76, 100
4, 1863280, Note_on_c, 2, 76, 0
4, 1863280, Note_on_c, 2, 78, 100
4, 1863440, Note_on_c, 2, 78, 0
4, 1863440, Note_on_c, 2, 76, 100
4, 1863600, Note_on_c, 2, 76, 0
4, 1863600, Note_on_c, 2, 78, 100
4, 1863760, Note_on_c, 2, 78, 0
4, 1863760, Note_on_c, 2, 76, 100
4, 1863920, Note_on_c, 2, 76, 0
4, 1863920, Note_on_c, 2, 78, 100
4, 1864080, Note_on_c, 2, 78, 0
4, 1864080, Note_on_c, 2, 76, 100
4, 1864240, Note_on_c, 2, 76, 0
4, 1864240, Note_on_c, 2, 78, 100
4, 1864400, Note_on_c, 2, 78, 0
4, 1864400, Note_on_c, 2, 76, 100
4, 1864560, Note_on_c, 2, 76, 0
4, 1864560, Note_on_c, 2, 78, 100
4, 1864680, Note_on_c, 2, 78, 0
4, 1864680, Note_on_c, 2, 76, 100
4, 1864800, Note_on_c, 2, 76, 0
4, 1864800, Note_on_c, 2, 78, 100
4, 1864920, Note_on_c, 2, 78, 0
4, 1864920, Note_on_c, 2, 76, 100
4, 1865040, Note_on_c, 2, 76, 0
4, 1865040, Note_on_c, 2, 78, 100
4, 1865160, Note_on_c, 2, 78, 0
4, 1865160, Note_on_c, 2, 76, 100
4, 1865280, Note_on_c, 2, 76, 0
4, 1865280, Note_on_c, 2, 78, 100
4, 1865400, Note_on_c, 2, 78, 0
4, 1865400, Note_on_c, 2, 76, 100
4, 1865520, Note_on_c, 2, 76, 0
4, 1865520, Note_on_c, 2, 78, 100
4, 1865640, Note_on_c, 2, 78, 0
4, 1865640, Note_on_c, 2, 76, 100
4, 1865760, Note_on_c, 2, 76, 0
4, 1865760, Note_on_c, 2, 78, 100
4, 1865880, Note_on_c, 2, 78, 0
4, 1865880, Note_on_c, 2, 76, 100
4, 1866000, Note_on_c, 2, 76, 0
4, 1866000, Note_on_c, 2, 74, 100
4, 1866240, Note_on_c, 2, 74, 0
4, 1866240, Note_on_c, 2, 73, 100
4, 1866480, Note_on_c, 2, 73, 0
4, 1866480, Note_on_c, 2, 74, 100
4, 1866960, Note_on_c, 2, 74, 0
4, 1866960, Note_on_c, 2, 78, 100
4, 1867440, Note_on_c, 2, 78, 0
4, 1867440, Note_on_c, 2, 71, 100
4, 1868880, Note_on_c, 2, 71, 0
4, 1868880, Note_on_c, 2, 76, 100
4, 1869120, Note_on_c, 2, 76, 0
4, 1869120, Note_on_c, 2, 74, 100
4, 1869360, Note_on_c, 2, 74, 0
4, 1869360, Note_on_c, 2, 76, 100
4, 1869840, Note_on_c, 2, 76, 0
4, 1869840, Note_on_c, 2, 74, 100
4, 1870800, Note_on_c, 2, 74, 0
4, 1870800, Note_on_c, 2, 73, 100
4, 1871280, Note_on_c, 2, 73, 0
4, 1871280, Note_on_c, 2, 74, 100
4, 1871760, Note_on_c, 2, 74, 0
4, 1871760, Note_on_c, 2, 69, 100
4, 1872000, Note_on_c, 2, 69, 0
4, 1872000, Note_on_c, 2, 67, 100
4, 1872240, Note_on_c, 2, 67, 0
4, 1872240, Note_on_c, 2, 69, 100
4, 1873200, Note_on_c, 2, 69, 0
4, 1878000, Note_on_c, 2, 67, 100
4, 1879440, Note_on_c, 2, 67, 0
4, 1879440, Note_on_c, 2, 66, 100
4, 1879680, Note_on_c, 2, 66, 0
4, 1879680, Note_on_c, 2, 64, 100
4, 1879920, Note_on_c, 2, 64, 0
4, 1879920, Note_on_c, 2, 66, 100
4, 1880400, Note_on_c, 2, 66, 0
4, 1880400, Note_on_c, 2, 69, 100
4, 1880880, Note_on_c, 2, 69, 0
4, 1880880, Note_on_c, 2, 62, 100
4, 1882320, Note_on_c, 2, 62, 0
4, 1882320, Note_on_c, 2, 65, 100
4, 1882800, Note_on_c, 2, 65, 0
4, 1882800, Note_on_c, 2, 64, 100
4, 1884240, Note_on_c, 2, 64, 0
4, 1884240, Note_on_c, 2, 67, 100
4, 1885200, Note_on_c, 2, 67, 0
4, 1885200, Note_on_c, 2, 66, 100
4, 1885440, Note_on_c, 2, 66, 0
4, 1885440, Note_on_c, 2, 64, 100
4, 1885680, Note_on_c, 2, 64, 0
4, 1885680, Note_on_c, 2, 66, 100
4, 1886160, Note_on_c, 2, 66, 0
4, 1886160, Note_on_c, 2, 69, 100
4, 1887120, Note_on_c, 2, 69, 0
4, 1887120, Note_on_c, 2, 67, 100
4, 1887360, Note_on_c, 2, 67, 0
4, 1887360, Note_on_c, 2, 66, 100
4, 1887600, Note_on_c, 2, 66, 0
4, 1887600, Note_on_c, 2, 67, 100
4, 1888080, Note_on_c, 2, 67, 0
4, 1888080, Note_on_c, 2, 71, 100
4, 1888560, Note_on_c, 2, 71, 0
4, 1888560, Note_on_c, 2, 64, 100
4, 1889520, Note_on_c, 2, 64, 0
4, 1889520, Note_on_c, 2, 71, 100
4, 1890480, Note_on_c, 2, 71, 0
4, 1890480, Note_on_c, 2, 69, 100
4, 1891440, Note_on_c, 2, 69, 0
4, 1891440, Note_on_c, 2, 74, 100
4, 1892400, Note_on_c, 2, 74, 0
4, 1892400, Note_on_c, 2, 78, 100
4, 1892560, Note_on_c, 2, 78, 0
4, 1892560, Note_on_c, 2, 76, 100
4, 1892720, Note_on_c, 2, 76, 0
4, 1892720, Note_on_c, 2, 78, 100
4, 1892880, Note_on_c, 2, 78, 0
4, 1892880, Note_on_c, 2, 76, 100
4, 1893040, Note_on_c, 2, 76, 0
4, 1893040, Note_on_c, 2, 78, 100
4, 1893200, Note_on_c, 2, 78, 0
4, 1893200, Note_on_c, 2, 76, 100
4, 1893360, Note_on_c, 2, 76, 0
4, 1893360, Note_on_c, 2, 78, 100
4, 1893520, Note_on_c, 2, 78, 0
4, 1893520, Note_on_c, 2, 76, 100
4, 1893680, Note_on_c, 2, 76, 0
4, 1893680, Note_on_c, 2, 78, 100
4, 1893840, Note_on_c, 2, 78, 0
4, 1893840, Note_on_c, 2, 76, 100
4, 1894000, Note_on_c, 2, 76, 0
4, 1894000, Note_on_c, 2, 78, 100
4, 1894160, Note_on_c, 2, 78, 0
4, 1894160, Note_on_c, 2, 76, 100
4, 1894320, Note_on_c, 2, 76, 0
4, 1894320, Note_on_c, 2, 78, 100
4, 1894480, Note_on_c, 2, 78, 0
4, 1894480, Note_on_c, 2, 76, 100
4, 1894640, Note_on_c, 2, 76, 0
4, 1894640, Note_on_c, 2, 78, 100
4, 1894800, Note_on_c, 2, 78, 0
4, 1894800, Note_on_c, 2, 76, 100
4, 1894960, Note_on_c, 2, 76, 0
4, 1894960, Note_on_c, 2, 78, 100
4, 1895120, Note_on_c, 2, 78, 0
4, 1895120, Note_on_c, 2, 76, 100
4, 1895280, Note_on_c, 2, 76, 0
4, 1895280, Note_on_c, 2, 78, 100
4, 1895400, Note_on_c, 2, 78, 0
4, 1895400, Note_on_c, 2, 76, 100
4, 1895520, Note_on_c, 2, 76, 0
4, 1895520, Note_on_c, 2, 78, 100
4, 1895640, Note_on_c, 2, 78, 0
4, 1895640, Note_on_c, 2, 76, 100
4, 1895760, Note_on_c, 2, 76, 0
4, 1895760, Note_on_c, 2, 78, 100
4, 1895880, Note_on_c, 2, 78, 0
4, 1895880, Note_on_c, 2, 76, 100
4, 1896000, Note_on_c, 2, 76, 0
4, 1896000, Note_on_c, 2, 78, 100
4, 1896120, Note_on_c, 2, 78, 0
4, 1896120, Note_on_c, 2, 76, 100
4, 1896240, Note_on_c, 2, 76, 0
4, 1896240, Note_on_c, 2, 78, 100
4, 1896360, Note_on_c, 2, 78, 0
4, 1896360, Note_on_c, 2, 76, 100
4, 1896480, Note_on_c, 2, 76, 0
4, 1896480, Note_on_c, 2, 78, 100
4, 1896600, Note_on_c, 2, 78, 0
4, 1896600, Note_on_c, 2, 76, 100
4, 1896720, Note_on_c, 2, 76, 0
4, 1896720, Note_on_c, 2, 74, 100
4, 1896960, Note_on_c, 2, 74, 0
4, 1896960, Note_on_c, 2, 73, 100
4, 1897200, Note_on_c, 2, 73, 0
4, 1897200, Note_on_c, 2, 74, 100
4, 1897680, Note_on_c, 2, 74, 0
4, 1897680, Note_on_c, 2, 78, 100
4, 1898160, Note_on_c, 2, 78, 0
4, 1898160, Note_on_c, 2, 71, 100
4, 1899600, Note_on_c, 2, 71, 0
4, 1899600, Note_on_c, 2, 76, 100
4, 1899840, Note_on_c, 2, 76, 0
4, 1899840, Note_on_c, 2, 74, 100
4, 1900080, Note_on_c, 2, 74, 0
4, 1900080, Note_on_c, 2, 76, 100
4, 1900560, Note_on_c, 2, 76, 0
4, 1900560, Note_on_c, 2, 74, 100
4, 1901520, Note_on_c, 2, 74, 0
4, 1901520, Note_on_c, 2, 73, 100
4, 1902000, Note_on_c, 2, 73, 0
4, 1902000, Note_on_c, 2, 74, 100
4, 1902480, Note_on_c, 2, 74, 0
4, 1902480, Note_on_c, 2, 69, 100
4, 1902720, Note_on_c, 2, 69, 0
4, 1902720, Note_on_c, 2, 67, 100
4, 1902960, Note_on_c, 2, 67, 0
4, 1902960, Note_on_c, 2, 69, 100
4, 1903920, Note_on_c, 2, 69, 0
4, 1906800, Note_on_c, 2, 71, 100
4, 1908240, Note_on_c, 2, 71, 0
4, 1908240, Note_on_c, 2, 69, 100
4, 1908480, Note_on_c, 2, 69, 0
4, 1908480, Note_on_c, 2, 67, 100
4, 1908720, Note_on_c, 2, 67, 0
4, 1908720, Note_on_c, 2, 69, 100
4, 1909200, Note_on_c, 2, 69, 0
4, 1909200, Note_on_c, 2, 72, 100
4, 1909680, Note_on_c, 2, 72, 0
4, 1909680, Note_on_c, 2, 66, 100
4, 1910640, Note_on_c, 2, 66, 0
4, 1910640, Note_on_c, 2, 71, 100
4, 1911600, Note_on_c, 2, 71, 0
4, 1912560, Note_on_c, 2, 79, 100
4, 1914000, Note_on_c, 2, 79, 0
4, 1914000, Note_on_c, 2, 78, 100
4, 1914240, Note_on_c, 2, 78, 0
4, 1914240, Note_on_c, 2, 76, 100
4, 1914480, Note_on_c, 2, 76, 0
4, 1914480, Note_on_c, 2, 78, 100
4, 1914960, Note_on_c, 2, 78, 0
4, 1914960, Note_on_c, 2, 81, 100
4, 1915440, Note_on_c, 2, 81, 0
4, 1915440, Note_on_c, 2, 75, 100
4, 1915920, Note_on_c, 2, 75, 0
4, 1915920, Note_on_c, 2, 76, 100
4, 1916880, Note_on_c, 2, 76, 0
4, 1916880, Note_on_c, 2, 75, 100
4, 1917360, Note_on_c, 2, 75, 0
4, 1917360, Note_on_c, 2, 76, 100
4, 1918320, Note_on_c, 2, 76, 0
4, 1918320, Note_on_c, 2, 71, 100
4, 1919760, Note_on_c, 2, 71, 0
4, 1919760, Note_on_c, 2, 69, 100
4, 1920000, Note_on_c, 2, 69, 0
4, 1920000, Note_on_c, 2, 67, 100
4, 1920240, Note_on_c, 2, 67, 0
4, 1920240, Note_on_c, 2, 69, 100
4, 1920720, Note_on_c, 2, 69, 0
4, 1920720, Note_on_c, 2, 72, 100
4, 1921200, Note_on_c, 2, 72, 0
4, 1921200, Note_on_c, 2, 66, 100
4, 1921680, Note_on_c, 2, 66, 0
4, 1921680, Note_on_c, 2, 62, 100
4, 1922160, Note_on_c, 2, 62, 0
4, 1922160, Note_on_c, 2, 67, 100
4, 1923600, Note_on_c, 2, 67, 0
4, 1923600, Note_on_c, 2, 66, 100
4, 1923840, Note_on_c, 2, 66, 0
4, 1923840, Note_on_c, 2, 64, 100
4, 1924080, Note_on_c, 2, 64, 0
4, 1924080, Note_on_c, 2, 66, 100
4, 1924560, Note_on_c, 2, 66, 0
4, 1924560, Note_on_c, 2, 69, 100
4, 1925040, Note_on_c, 2, 69, 0
4, 1925040, Note_on_c, 2, 62, 100
4, 1926000, Note_on_c, 2, 62, 0
4, 1927920, Note_on_c, 2, 67, 100
4, 1929360, Note_on_c, 2, 67, 0
4, 1929360, Note_on_c, 2, 67, 100
4, 1929600, Note_on_c, 2, 67, 0
4, 1929600, Note_on_c, 2, 66, 100
4, 1929840, Note_on_c, 2, 66, 0
4, 1929840, Note_on_c, 2, 67, 100
4, 1931280, Note_on_c, 2, 67, 0
4, 1931280, Note_on_c, 2, 66, 100
4, 1931520, Note_on_c, 2, 66, 0
4, 1931520, Note_on_c, 2, 64, 100
4, 1931760, Note_on_c, 2, 64, 0
4, 1931760, Note_on_c, 2, 66, 100
4, 1932240, Note_on_c, 2, 66, 0
4, 1932240, Note_on_c, 2, 69, 100
4, 1933200, Note_on_c, 2, 69, 0
4, 1933200, Note_on_c, 2, 67, 100
4, 1933440, Note_on_c, 2, 67, 0
4, 1933440, Note_on_c, 2, 66, 100
4, 1933680, Note_on_c, 2, 66, 0
4, 1933680, Note_on_c, 2, 67, 100
4, 1934640, Note_on_c, 2, 67, 0
4, 1937520, Note_on_c, 2, 71, 100
4, 1938960, Note_on_c, 2, 71, 0
4, 1938960, Note_on_c, 2, 69, 100
4, 1939200, Note_on_c, 2, 69, 0
4, 1939200, Note_on_c, 2, 67, 100
4, 1939440, Note_on_c, 2, 67, 0
4, 1939440, Note_on_c, 2, 69, 100
4, 1939920, Note_on_c, 2, 69, 0
4, 1939920, Note_on_c, 2, 72, 100
4, 1940400, Note_on_c, 2, 72, 0
4, 1940400, Note_on_c, 2, 66, 100
4, 1941360, Note_on_c, 2, 66, 0
4, 1941360, Note_on_c, 2, 71, 100
4, 1942320, Note_on_c, 2, 71, 0
4, 1943280, Note_on_c, 2, 79, 100
4, 1944720, Note_on_c, 2, 79, 0
4, 1944720, Note_on_c, 2, 78, 100
4, 1944960, Note_on_c, 2, 78, 0
4, 1944960, Note_on_c, 2, 76, 100
4, 1945200, Note_on_c, 2, 76, 0
4, 1945200, Note_on_c, 2, 78, 100
4, 1945680, Note_on_c, 2, 78, 0
4, 1945680, Note_on_c, 2, 81, 100
4, 1946160, Note_on_c, 2, 81, 0
4, 1946160, Note_on_c, 2, 75, 100
4, 1946640, Note_on_c, 2, 75, 0
4, 1946640, Note_on_c, 2, 76, 100
4, 1947600, Note_on_c, 2, 76, 0
4, 1947600, Note_on_c, 2, 75, 100
4, 1948080, Note_on_c, 2, 75, 0
4, 1948080, Note_on_c, 2, 76, 100
4, 1949040, Note_on_c, 2, 76, 0
4, 1949040, Note_on_c, 2, 71, 100
4, 1950480, Note_on_c, 2, 71, 0
4, 1950480, Note_on_c, 2, 69, 100
4, 1950720, Note_on_c, 2, 69, 0
4, 1950720, Note_on_c, 2, 67, 100
4, 1950960, Note_on_c, 2, 67, 0
4, 1950960, Note_on_c, 2, 69, 100
4, 1951440, Note_on_c, 2, 69, 0
4, 1951440, Note_on_c, 2, 72, 100
4, 1951920, Note_on_c, 2, 72, 0
4, 1951920, Note_on_c, 2, 66, 100
4, 1952400, Note_on_c, 2, 66, 0
4, 1952400, Note_on_c, 2, 62, 100
4, 1952880, Note_on_c, 2, 62, 0
4, 1952880, Note_on_c, 2, 67, 100
4, 1954320, Note_on_c, 2, 67, 0
4, 1954320, Note_on_c, 2, 66, 100
4, 1954560, Note_on_c, 2, 66, 0
4, 1954560, Note_on_c, 2, 64, 100
4, 1954800, Note_on_c, 2, 64, 0
4, 1954800, Note_on_c, 2, 66, 100
4, 1955280, Note_on_c, 2, 66, 0
4, 1955280, Note_on_c, 2, 69, 100
4, 1955760, Note_on_c, 2, 69, 0
4, 1955760, Note_on_c, 2, 62, 100
4, 1956720, Note_on_c, 2, 62, 0
4, 1958640, Note_on_c, 2, 67, 100
4, 1960080, Note_on_c, 2, 67, 0
4, 1960080, Note_on_c, 2, 67, 100
4, 1960320, Note_on_c, 2, 67, 0
4, 1960320, Note_on_c, 2, 66, 100
4, 1960560, Note_on_c, 2, 66, 0
4, 1960560, Note_on_c, 2, 67, 100
4, 1962000, Note_on_c, 2, 67, 0
4, 1962000, Note_on_c, 2, 66, 100
4, 1962240, Note_on_c, 2, 66, 0
4, 1962240, Note_on_c, 2, 64, 100
4, 1962480, Note_on_c, 2, 64, 0
4, 1962480, Note_on_c, 2, 66, 100
4, 1962960, Note_on_c, 2, 66, 0
4, 1962960, Note_on_c, 2, 69, 100
4, 1963920, Note_on_c, 2, 69, 0
4, 1963920, Note_on_c, 2, 67, 100
4, 1964160, Note_on_c, 2, 67, 0
4, 1964160, Note_on_c, 2, 66, 100
4, 1964400, Note_on_c, 2, 66, 0
4, 1964400, Note_on_c, 2, 67, 100
4, 1965360, Note_on_c, 2, 67, 0
4, 1965600, Note_on_c, 2, 67, 100
4, 1965840, Note_on_c, 2, 67, 0
4, 1965840, Note_on_c, 2, 83, 100
4, 1965960, Note_on_c, 2, 83, 0
4, 1965960, Note_on_c, 2, 81, 100
4, 1966080, Note_on_c, 2, 81, 0
4, 1966080, Note_on_c, 2, 79, 100
4, 1966200, Note_on_c, 2, 79, 0
4, 1966200, Note_on_c, 2, 78, 100
4, 1966320, Note_on_c, 2, 78, 0
4, 1966320, Note_on_c, 2, 76, 100
4, 1966440, Note_on_c, 2, 76, 0
4, 1966440, Note_on_c, 2, 74, 100
4, 1966560, Note_on_c, 2, 74, 0
4, 1966560, Note_on_c, 2, 73, 100
4, 1966680, Note_on_c, 2, 73, 0
4, 1966680, Note_on_c, 2, 71, 100
4, 1966800, Note_on_c, 2, 71, 0
4, 1966800, Note_on_c, 2, 69, 100
4, 1966920, Note_on_c, 2, 69, 0
4, 1966920, Note_on_c, 2, 67, 100
4, 1967040, Note_on_c, 2, 67, 0
4, 1967040, Note_on_c, 2, 66, 100
4, 1967280, Note_on_c, 2, 66, 0
4, 1967280, Note_on_c, 2, 81, 100
4, 1967400, Note_on_c, 2, 81, 0
4, 1967400, Note_on_c, 2, 79, 100
4, 1967520, Note_on_c, 2, 79, 0
4, 1967520, Note_on_c, 2, 78, 100
4, 1967640, Note_on_c, 2, 78, 0
4, 1967640, Note_on_c, 2, 76, 100
4, 1967760, Note_on_c, 2, 76, 0
4, 1967760, Note_on_c, 2, 74, 100
4, 1967880, Note_on_c, 2, 74, 0
4, 1967880, Note_on_c, 2, 73, 100
4, 1968000, Note_on_c, 2, 73, 0
4, 1968000, Note_on_c, 2, 71, 100
4, 1968120, Note_on_c, 2, 71, 0
4, 1968120, Note_on_c, 2, 69, 100
4, 1968240, Note_on_c, 2, 69, 0
4, 1968240, Note_on_c, 2, 67, 100
4, 1968360, Note_on_c, 2, 67, 0
4, 1968360, Note_on_c, 2, 66, 100
4, 1968480, Note_on_c, 2, 66, 0
4, 1968480, Note_on_c, 2, 64, 100
4, 1968720, Note_on_c, 2, 64, 0
4, 1968720, Note_on_c, 2, 79, 100
4, 1968840, Note_on_c, 2, 79, 0
4, 1968840, Note_on_c, 2, 78, 100
4, 1968960, Note_on_c, 2, 78, 0
4, 1968960, Note_on_c, 2, 76, 100
4, 1969080, Note_on_c, 2, 76, 0
4, 1969080, Note_on_c, 2, 74, 100
4, 1969200, Note_on_c, 2, 74, 0
4, 1969200, Note_on_c, 2, 73, 100
4, 1969320, Note_on_c, 2, 73, 0
4, 1969320, Note_on_c, 2, 71, 100
4, 1969440, Note_on_c, 2, 71, 0
4, 1969440, Note_on_c, 2, 69, 100
4, 1969560, Note_on_c, 2, 69, 0
4, 1969560, Note_on_c, 2, 67, 100
4, 1969680, Note_on_c, 2, 67, 0
4, 1969680, Note_on_c, 2, 66, 100
4, 1969800, Note_on_c, 2, 66, 0
4, 1969800, Note_on_c, 2, 64, 100
4, 1969920, Note_on_c, 2, 64, 0
4, 1969920, Note_on_c, 2, 62, 100
4, 1970160, Note_on_c, 2, 62, 0
4, 1970520, Note_on_c, 2, 64, 100
4, 1970580, Note_on_c, 2, 64, 0
4, 1970580, Note_on_c, 2, 66, 100
4, 1970640, Note_on_c, 2, 66, 0
4, 1970640, Note_on_c, 2, 67, 100
4, 1970700, Note_on_c, 2, 67, 0
4, 1970700, Note_on_c, 2, 69, 100
4, 1970760, Note_on_c, 2, 69, 0
4, 1970760, Note_on_c, 2, 71, 100
4, 1970820, Note_on_c, 2, 71, 0
4, 1970820, Note_on_c, 2, 73, 100
4, 1970880, Note_on_c, 2, 73, 0
4, 1970880, Note_on_c, 2, 74, 100
4, 1971360, Note_on_c, 2, 74, 0
4, 1971360, Note_on_c, 2, 59, 100
4, 1971480, Note_on_c, 2, 59, 0
4, 1971480, Note_on_c, 2, 60, 100
4, 1971600, Note_on_c, 2, 60, 0
4, 1971600, Note_on_c, 2, 62, 100
4, 1971720, Note_on_c, 2, 62, 0
4, 1971720, Note_on_c, 2, 64, 100
4, 1971840, Note_on_c, 2, 64, 0
4, 1971840, Note_on_c, 2, 66, 100
4, 1971960, Note_on_c, 2, 66, 0
4, 1971960, Note_on_c, 2, 67, 100
4, 1972080, Note_on_c, 2, 67, 0
4, 1972080, Note_on_c, 2, 69, 100
4, 1972200, Note_on_c, 2, 69, 0
4, 1972200, Note_on_c, 2, 71, 100
4, 1972320, Note_on_c, 2, 71, 0
4, 1972320, Note_on_c, 2, 72, 100
4, 1972440, Note_on_c, 2, 72, 0
4, 1972440, Note_on_c, 2, 74, 100
4, 1972560, Note_on_c, 2, 74, 0
4, 1972560, Note_on_c, 2, 76, 100
4, 1972800, Note_on_c, 2, 76, 0
4, 1972800, Note_on_c, 2, 60, 100
4, 1972920, Note_on_c, 2, 60, 0
4, 1972920, Note_on_c, 2, 62, 100
4, 1973040, Note_on_c, 2, 62, 0
4, 1973040, Note_on_c, 2, 64, 100
4, 1973160, Note_on_c, 2, 64, 0
4, 1973160, Note_on_c, 2, 66, 100
4, 1973280, Note_on_c, 2, 66, 0
4, 1973280, Note_on_c, 2, 67, 100
4, 1973400, Note_on_c, 2, 67, 0
4, 1973400, Note_on_c, 2, 69, 100
4, 1973520, Note_on_c, 2, 69, 0
4, 1973520, Note_on_c, 2, 71, 100
4, 1973640, Note_on_c, 2, 71, 0
4, 1973640, Note_on_c, 2, 72, 100
4, 1973760, Note_on_c, 2, 72, 0
4, 1973760, Note_on_c, 2, 74, 100
4, 1973880, Note_on_c, 2, 74, 0
4, 1973880, Note_on_c, 2, 76, 100
4, 1974000, Note_on_c, 2, 76, 0
4, 1974000, Note_on_c, 2, 78, 100
4, 1974240, Note_on_c, 2, 78, 0
4, 1974240, Note_on_c, 2, 62, 100
4, 1974360, Note_on_c, 2, 62, 0
4, 1974360, Note_on_c, 2, 64, 100
4, 1974480, Note_on_c, 2, 64, 0
4, 1974480, Note_on_c, 2, 66, 100
4, 1974600, Note_on_c, 2, 66, 0
4, 1974600, Note_on_c, 2, 67, 100
4, 1974720, Note_on_c, 2, 67, 0
4, 1974720, Note_on_c, 2, 69, 100
4, 1974840, Note_on_c, 2, 69, 0
4, 1974840, Note_on_c, 2, 71, 100
4, 1974960, Note_on_c, 2, 71, 0
4, 1974960, Note_on_c, 2, 72, 100
4, 1975080, Note_on_c, 2, 72, 0
4, 1975080, Note_on_c, 2, 74, 100
4, 1975200, Note_on_c, 2, 74, 0
4, 1975200, Note_on_c, 2, 76, 100
4, 1975320, Note_on_c, 2, 76, 0
4, 1975320, Note_on_c, 2, 78, 100
4, 1975440, Note_on_c, 2, 78, 0
4, 1975440, Note_on_c, 2, 79, 100
4, 1975680, Note_on_c, 2, 79, 0
4, 1976040, Note_on_c, 2, 78, 100
4, 1976100, Note_on_c, 2, 78, 0
4, 1976100, Note_on_c, 2, 76, 100
4, 1976160, Note_on_c, 2, 76, 0
4, 1976160, Note_on_c, 2, 74, 100
4, 1976220, Note_on_c, 2, 74, 0
4, 1976220, Note_on_c, 2, 72, 100
4, 1976280, Note_on_c, 2, 72, 0
4, 1976280, Note_on_c, 2, 71, 100
4, 1976340, Note_on_c, 2, 71, 0
4, 1976340, Note_on_c, 2, 69, 100
4, 1976400, Note_on_c, 2, 69, 0
4, 1976400, Note_on_c, 2, 67, 100
4, 1976520, Note_on_c, 2, 67, 0
4, 1977000, Note_on_c, 2, 74, 100
4, 1977120, Note_on_c, 2, 74, 0
4, 1977120, Note_on_c, 2, 74, 100
4, 1977240, Note_on_c, 2, 74, 0
4, 1977420, Note_on_c, 2, 79, 100
4, 1977480, Note_on_c, 2, 79, 0
4, 1977480, Note_on_c, 2, 78, 100
4, 1977540, Note_on_c, 2, 78, 0
4, 1977540, Note_on_c, 2, 76, 100
4, 1977600, Note_on_c, 2, 76, 0
4, 1977600, Note_on_c, 2, 74, 100
4, 1977720, Note_on_c, 2, 74, 0
4, 1977900, Note_on_c, 2, 72, 100
4, 1977960, Note_on_c, 2, 72, 0
4, 1977960, Note_on_c, 2, 71, 100
4, 1978020, Note_on_c, 2, 71, 0
4, 1978020, Note_on_c, 2, 69, 100
4, 1978080, Note_on_c, 2, 69, 0
4, 1978080, Note_on_c, 2, 67, 100
4, 1978200, Note_on_c, 2, 67, 0
4, 1978440, Note_on_c, 2, 74, 100
4, 1978560, Note_on_c, 2, 74, 0
4, 1978560, Note_on_c, 2, 74, 100
4, 1978680, Note_on_c, 2, 74, 0
4, 1978860, Note_on_c, 2, 74, 100
4, 1978920, Note_on_c, 2, 74, 0
4, 1978920, Note_on_c, 2, 73, 100
4, 1978980, Note_on_c, 2, 73, 0
4, 1978980, Note_on_c, 2, 71, 100
4, 1979040, Note_on_c, 2, 71, 0
4, 1979040, Note_on_c, 2, 69, 100
4, 1979160, Note_on_c, 2, 69, 0
4, 1979340, Note_on_c, 2, 67, 100
4, 1979400, Note_on_c, 2, 67, 0
4, 1979400, Note_on_c, 2, 66, 100
4, 1979460, Note_on_c, 2, 66, 0
4, 1979460, Note_on_c, 2, 64, 100
4, 1979520, Note_on_c, 2, 64, 0
4, 1979520, Note_on_c, 2, 62, 100
4, 1979640, Note_on_c, 2, 62, 0
4, 1979880, Note_on_c, 2, 71, 100
4, 1980000, Note_on_c, 2, 71, 0
4, 1980000, Note_on_c, 2, 71, 100
4, 1980120, Note_on_c, 2, 71, 0
4, 1980300, Note_on_c, 2, 72, 100
4, 1980360, Note_on_c, 2, 72, 0
4, 1980360, Note_on_c, 2, 71, 100
4, 1980420, Note_on_c, 2, 71, 0
4, 1980420, Note_on_c, 2, 69, 100
4, 1980480, Note_on_c, 2, 69, 0
4, 1980480, Note_on_c, 2, 67, 100
4, 1980600, Note_on_c, 2, 67, 0
4, 1980780, Note_on_c, 2, 69, 100
4, 1980840, Note_on_c, 2, 69, 0
4, 1980840, Note_on_c, 2, 67, 100
4, 1980900, Note_on_c, 2, 67, 0
4, 1980900, Note_on_c, 2, 66, 100
4, 1980960, Note_on_c, 2, 66, 0
4, 1980960, Note_on_c, 2, 64, 100
4, 1981080, Note_on_c, 2, 64, 0
4, 1981320, Note_on_c, 2, 69, 100
4, 1981440, Note_on_c, 2, 69, 0
4, 1981440, Note_on_c, 2, 69, 100
4, 1981560, Note_on_c, 2, 69, 0
4, 1981740, Note_on_c, 2, 66, 100
4, 1981800, Note_on_c, 2, 66, 0
4, 1981800, Note_on_c, 2, 64, 100
4, 1981860, Note_on_c, 2, 64, 0
4, 1981860, Note_on_c, 2, 62, 100
4, 1981920, Note_on_c, 2, 62, 0
4, 1981920, Note_on_c, 2, 61, 100
4, 1982040, Note_on_c, 2, 61, 0
4, 1982220, Note_on_c, 2, 62, 100
4, 1982280, Note_on_c, 2, 62, 0
4, 1982280, Note_on_c, 2, 61, 100
4, 1982340, Note_on_c, 2, 61, 0
4, 1982340, Note_on_c, 2, 59, 100
4, 1982400, Note_on_c, 2, 59, 0
4, 1982400, Note_on_c, 2, 57, 100
4, 1982520, Note_on_c, 2, 57, 0
4, 1982760, Note_on_c, 2, 69, 100
4, 1982880, Note_on_c, 2, 69, 0
4, 1982880, Note_on_c, 2, 81, 100
4, 1983000, Note_on_c, 2, 81, 0
4, 1983000, Note_on_c, 2, 79, 100
4, 1983120, Note_on_c, 2, 79, 0
4, 1983120, Note_on_c, 2, 78, 100
4, 1983240, Note_on_c, 2, 78, 0
4, 1983240, Note_on_c, 2, 76, 100
4, 1983360, Note_on_c, 2, 76, 0
4, 1983360, Note_on_c, 2, 74, 100
4, 1983480, Note_on_c, 2, 74, 0
4, 1983480, Note_on_c, 2, 72, 100
4, 1983600, Note_on_c, 2, 72, 0
4, 1983600, Note_on_c, 2, 71, 100
4, 1983720, Note_on_c, 2, 71, 0
4, 1983720, Note_on_c, 2, 69, 100
4, 1983840, Note_on_c, 2, 69, 0
4, 1983840, Note_on_c, 2, 67, 100
4, 1983960, Note_on_c, 2, 67, 0
4, 1983960, Note_on_c, 2, 66, 100
4, 1984080, Note_on_c, 2, 66, 0
4, 1984080, Note_on_c, 2, 71, 100
4, 1984200, Note_on_c, 2, 71, 0
4, 1984200, Note_on_c, 2, 67, 100
4, 1984320, Note_on_c, 2, 67, 0
4, 1984320, Note_on_c, 2, 66, 100
4, 1984440, Note_on_c, 2, 66, 0
4, 1984440, Note_on_c, 2, 64, 100
4, 1984560, Note_on_c, 2, 64, 0
4, 1984560, Note_on_c, 2, 62, 100
4, 1984680, Note_on_c, 2, 62, 0
4, 1984680, Note_on_c, 2, 60, 100
4, 1984800, Note_on_c, 2, 60, 0
4, 1984800, Note_on_c, 2, 59, 100
4, 1984920, Note_on_c, 2, 59, 0
4, 1984920, Note_on_c, 2, 57, 100
4, 1985040, Note_on_c, 2, 57, 0
4, 1985040, Note_on_c, 2, 55, 100
4, 1985160, Note_on_c, 2, 55, 0
4, 1985160, Note_on_c, 2, 59, 100
4, 1985280, Note_on_c, 2, 59, 0
4, 1985280, Note_on_c, 2, 64, 100
4, 1985400, Note_on_c, 2, 64, 0
4, 1985400, Note_on_c, 2, 62, 100
4, 1985520, Note_on_c, 2, 62, 0
4, 1985520, Note_on_c, 2, 61, 100
4, 1985640, Note_on_c, 2, 61, 0
4, 1985640, Note_on_c, 2, 59, 100
4, 1985760, Note_on_c, 2, 59, 0
4, 1985760, Note_on_c, 2, 57, 100
4, 1985880, Note_on_c, 2, 57, 0
4, 1985880, Note_on_c, 2, 59, 100
4, 1986000, Note_on_c, 2, 59, 0
4, 1986000, Note_on_c, 2, 61, 100
4, 1986120, Note_on_c, 2, 61, 0
4, 1986120, Note_on_c, 2, 62, 100
4, 1986240, Note_on_c, 2, 62, 0
4, 1986240, Note_on_c, 2, 64, 100
4, 1986360, Note_on_c, 2, 64, 0
4, 1986360, Note_on_c, 2, 66, 100
4, 1986480, Note_on_c, 2, 66, 0
4, 1986480, Note_on_c, 2, 67, 100
4, 1986600, Note_on_c, 2, 67, 0
4, 1986600, Note_on_c, 2, 69, 100
4, 1986720, Note_on_c, 2, 69, 0
4, 1986720, Note_on_c, 2, 71, 100
4, 1986840, Note_on_c, 2, 71, 0
4, 1986840, Note_on_c, 2, 73, 100
4, 1986960, Note_on_c, 2, 73, 0
4, 1986960, Note_on_c, 2, 74, 100
4, 1987080, Note_on_c, 2, 74, 0
4, 1987080, Note_on_c, 2, 73, 100
4, 1987140, Note_on_c, 2, 73, 0
4, 1987140, Note_on_c, 2, 71, 100
4, 1987200, Note_on_c, 2, 71, 0
4, 1987200, Note_on_c, 2, 69, 100
4, 1987260, Note_on_c, 2, 69, 0
4, 1987260, Note_on_c, 2, 67, 100
4, 1987320, Note_on_c, 2, 67, 0
4, 1987320, Note_on_c, 2, 66, 100
4, 1987380, Note_on_c, 2, 66, 0
4, 1987380, Note_on_c, 2, 64, 100
4, 1987440, Note_on_c, 2, 64, 0
4, 1987440, Note_on_c, 2, 62, 100
4, 1987680, Note_on_c, 2, 62, 0
4, 1988640, Note_on_c, 2, 67, 100
4, 1988880, Note_on_c, 2, 67, 0
4, 1988880, Note_on_c, 2, 83, 100
4, 1989000, Note_on_c, 2, 83, 0
4, 1989000, Note_on_c, 2, 81, 100
4, 1989120, Note_on_c, 2, 81, 0
4, 1989120, Note_on_c, 2, 79, 100
4, 1989240, Note_on_c, 2, 79, 0
4, 1989240, Note_on_c, 2, 78, 100
4, 1989360, Note_on_c, 2, 78, 0
4, 1989360, Note_on_c, 2, 76, 100
4, 1989480, Note_on_c, 2, 76, 0
4, 1989480, Note_on_c, 2, 74, 100
4, 1989600, Note_on_c, 2, 74, 0
4, 1989600, Note_on_c, 2, 73, 100
4, 1989720, Note_on_c, 2, 73, 0
4, 1989720, Note_on_c, 2, 71, 100
4, 1989840, Note_on_c, 2, 71, 0
4, 1989840, Note_on_c, 2, 69, 100
4, 1989960, Note_on_c, 2, 69, 0
4, 1989960, Note_on_c, 2, 67, 100
4, 1990080, Note_on_c, 2, 67, 0
4, 1990080, Note_on_c, 2, 66, 100
4, 1990320, Note_on_c, 2, 66, 0
4, 1990320, Note_on_c, 2, 81, 100
4, 1990440, Note_on_c, 2, 81, 0
4, 1990440, Note_on_c, 2, 79, 100
4, 1990560, Note_on_c, 2, 79, 0
4, 1990560, Note_on_c, 2, 78, 100
4, 1990680, Note_on_c, 2, 78, 0
4, 1990680, Note_on_c, 2, 76, 100
4, 1990800, Note_on_c, 2, 76, 0
4, 1990800, Note_on_c, 2, 74, 100
4, 1990920, Note_on_c, 2, 74, 0
4, 1990920, Note_on_c, 2, 73, 100
4, 1991040, Note_on_c, 2, 73, 0
4, 1991040, Note_on_c, 2, 71, 100
4, 1991160, Note_on_c, 2, 71, 0
4, 1991160, Note_on_c, 2, 69, 100
4, 1991280, Note_on_c, 2, 69, 0
4, 1991280, Note_on_c, 2, 67, 100
4, 1991400, Note_on_c, 2, 67, 0
4, 1991400, Note_on_c, 2, 66, 100
4, 1991520, Note_on_c, 2, 66, 0
4, 1991520, Note_on_c, 2, 64, 100
4, 1991760, Note_on_c, 2, 64, 0
4, 1991760, Note_on_c, 2, 79, 100
4, 1991880, Note_on_c, 2, 79, 0
4, 1991880, Note_on_c, 2, 78, 100
4, 1992000, Note_on_c, 2, 78, 0
4, 1992000, Note_on_c, 2, 76, 100
4, 1992120, Note_on_c, 2, 76, 0
4, 1992120, Note_on_c, 2, 74, 100
4, 1992240, Note_on_c, 2, 74, 0
4, 1992240, Note_on_c, 2, 73, 100
4, 1992360, Note_on_c, 2, 73, 0
4, 1992360, Note_on_c, 2, 71, 100
4, 1992480, Note_on_c, 2, 71, 0
4, 1992480, Note_on_c, 2, 69, 100
4, 1992600, Note_on_c, 2, 69, 0
4, 1992600, Note_on_c, 2, 67, 100
4, 1992720, Note_on_c, 2, 67, 0
4, 1992720, Note_on_c, 2, 66, 100
4, 1992840, Note_on_c, 2, 66, 0
4, 1992840, Note_on_c, 2, 64, 100
4, 1992960, Note_on_c, 2, 64, 0
4, 1992960, Note_on_c, 2, 62, 100
4, 1993200, Note_on_c, 2, 62, 0
4, 1993560, Note_on_c, 2, 64, 100
4, 1993620, Note_on_c, 2, 64, 0
4, 1993620, Note_on_c, 2, 66, 100
4, 1993680, Note_on_c, 2, 66, 0
4, 1993680, Note_on_c, 2, 67, 100
4, 1993740, Note_on_c, 2, 67, 0
4, 1993740, Note_on_c, 2, 69, 100
4, 1993800, Note_on_c, 2, 69, 0
4, 1993800, Note_on_c, 2, 71, 100
4, 1993860, Note_on_c, 2, 71, 0
4, 1993860, Note_on_c, 2, 73, 100
4, 1993920, Note_on_c, 2, 73, 0
4, 1993920, Note_on_c, 2, 74, 100
4, 1994400, Note_on_c, 2, 74, 0
4, 1994400, Note_on_c, 2, 59, 100
4, 1994520, Note_on_c, 2, 59, 0
4, 1994520, Note_on_c, 2, 60, 100
4, 1994640, Note_on_c, 2, 60, 0
4, 1994640, Note_on_c, 2, 62, 100
4, 1994760, Note_on_c, 2, 62, 0
4, 1994760, Note_on_c, 2, 64, 100
4, 1994880, Note_on_c, 2, 64, 0
4, 1994880, Note_on_c, 2, 66, 100
4, 1995000, Note_on_c, 2, 66, 0
4, 1995000, Note_on_c, 2, 67, 100
4, 1995120, Note_on_c, 2, 67, 0
4, 1995120, Note_on_c, 2, 69, 100
4, 1995240, Note_on_c, 2, 69, 0
4, 1995240, Note_on_c, 2, 71, 100
4, 1995360, Note_on_c, 2, 71, 0
4, 1995360, Note_on_c, 2, 72, 100
4, 1995480, Note_on_c, 2, 72, 0
4, 1995480, Note_on_c, 2, 74, 100
4, 1995600, Note_on_c, 2, 74, 0
4, 1995600, Note_on_c, 2, 76, 100
4, 1995840, Note_on_c, 2, 76, 0
4, 1995840, Note_on_c, 2, 60, 100
4, 1995960, Note_on_c, 2, 60, 0
4, 1995960, Note_on_c, 2, 62, 100
4, 1996080, Note_on_c, 2, 62, 0
4, 1996080, Note_on_c, 2, 64, 100
4, 1996200, Note_on_c, 2, 64, 0
4, 1996200, Note_on_c, 2, 66, 100
4, 1996320, Note_on_c, 2, 66, 0
4, 1996320, Note_on_c, 2, 67, 100
4, 1996440, Note_on_c, 2, 67, 0
4, 1996440, Note_on_c, 2, 69, 100
4, 1996560, Note_on_c, 2, 69, 0
4, 1996560, Note_on_c, 2, 71, 100
4, 1996680, Note_on_c, 2, 71, 0
4, 1996680, Note_on_c, 2, 72, 100
4, 1996800, Note_on_c, 2, 72, 0
4, 1996800, Note_on_c, 2, 74, 100
4, 1996920, Note_on_c, 2, 74, 0
4, 1996920, Note_on_c, 2, 76, 100
4, 1997040, Note_on_c, 2, 76, 0
4, 1997040, Note_on_c, 2, 78, 100
4, 1997280, Note_on_c, 2, 78, 0
4, 1997280, Note_on_c, 2, 62, 100
4, 1997400, Note_on_c, 2, 62, 0
4, 1997400, Note_on_c, 2, 64, 100
4, 1997520, Note_on_c, 2, 64, 0
4, 1997520, Note_on_c, 2, 66, 100
4, 1997640, Note_on_c, 2, 66, 0
4, 1997640, Note_on_c, 2, 67, 100
4, 1997760, Note_on_c, 2, 67, 0
4, 1997760, Note_on_c, 2, 69, 100
4, 1997880, Note_on_c, 2, 69, 0
4, 1997880, Note_on_c, 2, 71, 100
4, 1998000, Note_on_c, 2, 71, 0
4, 1998000, Note_on_c, 2, 72, 100
4, 1998120, Note_on_c, 2, 72, 0
4, 1998120, Note_on_c, 2, 74, 100
4, 1998240, Note_on_c, 2, 74, 0
4, 1998240, Note_on_c, 2, 76, 100
4, 1998360, Note_on_c, 2, 76, 0
4, 1998360, Note_on_c, 2, 78, 100
4, 1998480, Note_on_c, 2, 78, 0
4, 1998480, Note_on_c, 2, 79, 100
4, 1998720, Note_on_c, 2, 79, 0
4, 1999080, Note_on_c, 2, 78, 100
4, 1999140, Note_on_c, 2, 78, 0
4, 1999140, Note_on_c, 2, 76, 100
4, 1999200, Note_on_c, 2, 76, 0
4, 1999200, Note_on_c, 2, 74, 100
4, 1999260, Note_on_c, 2, 74, 0
4, 1999260, Note_on_c, 2, 72, 100
4, 1999320, Note_on_c, 2, 72, 0
4, 1999320, Note_on_c, 2, 71, 100
4, 1999380, Note_on_c, 2, 71, 0
4, 1999380, Note_on_c, 2, 69, 100
4, 1999440, Note_on_c, 2, 69, 0
4, 1999440, Note_on_c, 2, 67, 100
4, 1999560, Note_on_c, 2, 67, 0
4, 2000040, Note_on_c, 2, 74, 100
4, 2000160, Note_on_c, 2, 74, 0
4, 2000160, Note_on_c, 2, 74, 100
4, 2000280, Note_on_c, 2, 74, 0
4, 2000460, Note_on_c, 2, 79, 100
4, 2000520, Note_on_c, 2, 79, 0
4, 2000520, Note_on_c, 2, 78, 100
4, 2000580, Note_on_c, 2, 78, 0
4, 2000580, Note_on_c, 2, 76, 100
4, 2000640, Note_on_c, 2, 76, 0
4, 2000640, Note_on_c, 2, 74, 100
4, 2000760, Note_on_c, 2, 74, 0
4, 2000940, Note_on_c, 2, 72, 100
4, 2001000, Note_on_c, 2, 72, 0
4, 2001000, Note_on_c, 2, 71, 100
4, 2001060, Note_on_c, 2, 71, 0
4, 2001060, Note_on_c, 2, 69, 100
4, 2001120, Note_on_c, 2, 69, 0
4, 2001120, Note_on_c, 2, 67, 100
4, 2001240, Note_on_c, 2, 67, 0
4, 2001480, Note_on_c, 2, 74, 100
4, 2001600, Note_on_c, 2, 74, 0
4, 2001600, Note_on_c, 2, 74, 100
4, 2001720, Note_on_c, 2, 74, 0
4, 2001900, Note_on_c, 2, 74, 100
4, 2001960, Note_on_c, 2, 74, 0
4, 2001960, Note_on_c, 2, 73, 100
4, 2002020, Note_on_c, 2, 73, 0
4, 2002020, Note_on_c, 2, 71, 100
4, 2002080, Note_on_c, 2, 71, 0
4, 2002080, Note_on_c, 2, 69, 100
4, 2002200, Note_on_c, 2, 69, 0
4, 2002380, Note_on_c, 2, 67, 100
4, 2002440, Note_on_c, 2, 67, 0
4, 2002440, Note_on_c, 2, 66, 100
4, 2002500, Note_on_c, 2, 66, 0
4, 2002500, Note_on_c, 2, 64, 100
4, 2002560, Note_on_c, 2, 64, 0
4, 2002560, Note_on_c, 2, 62, 100
4, 2002680, Note_on_c, 2, 62, 0
4, 2002920, Note_on_c, 2, 71, 100
4, 2003040, Note_on_c, 2, 71, 0
4, 2003040, Note_on_c, 2, 71, 100
4, 2003160, Note_on_c, 2, 71, 0
4, 2003340, Note_on_c, 2, 72, 100
4, 2003400, Note_on_c, 2, 72, 0
4, 2003400, Note_on_c, 2, 71, 100
4, 2003460, Note_on_c, 2, 71, 0
4, 2003460, Note_on_c, 2, 69, 100
4, 2003520, Note_on_c, 2, 69, 0
4, 2003520, Note_on_c, 2, 67, 100
4, 2003640, Note_on_c, 2, 67, 0
4, 2003820, Note_on_c, 2, 69, 100
4, 2003880, Note_on_c, 2, 69, 0
4, 2003880, Note_on_c, 2, 67, 100
4, 2003940, Note_on_c, 2, 67, 0
4, 2003940, Note_on_c, 2, 66, 100
4, 2004000, Note_on_c, 2, 66, 0
4, 2004000, Note_on_c, 2, 64, 100
4, 2004120, Note_on_c, 2, 64, 0
4, 2004360, Note_on_c, 2, 69, 100
4, 2004480, Note_on_c, 2, 69, 0
4, 2004480, Note_on_c, 2, 69, 100
4, 2004600, Note_on_c, 2, 69, 0
4, 2004780, Note_on_c, 2, 66, 100
4, 2004840, Note_on_c, 2, 66, 0
4, 2004840, Note_on_c, 2, 64, 100
4, 2004900, Note_on_c, 2, 64, 0
4, 2004900, Note_on_c, 2, 62, 100
4, 2004960, Note_on_c, 2, 62, 0
4, 2004960, Note_on_c, 2, 61, 100
4, 2005080, Note_on_c, 2, 61, 0
4, 2005260, Note_on_c, 2, 62, 100
4, 2005320, Note_on_c, 2, 62, 0
4, 2005320, Note_on_c, 2, 61, 100
4, 2005380, Note_on_c, 2, 61, 0
4, 2005380, Note_on_c, 2, 59, 100
4, 2005440, Note_on_c, 2, 59, 0
4, 2005440, Note_on_c, 2, 57, 100
4, 2005560, Note_on_c, 2, 57, 0
4, 2005800, Note_on_c, 2, 69, 100
4, 2005920, Note_on_c, 2, 69, 0
4, 2005920, Note_on_c, 2, 81, 100
4, 2006040, Note_on_c, 2, 81, 0
4, 2006040, Note_on_c, 2, 79, 100
4, 2006160, Note_on_c, 2, 79, 0
4, 2006160, Note_on_c, 2, 78, 100
4, 2006280, Note_on_c, 2, 78, 0
4, 2006280, Note_on_c, 2, 76, 100
4, 2006400, Note_on_c, 2, 76, 0
4, 2006400, Note_on_c, 2, 74, 100
4, 2006520, Note_on_c, 2, 74, 0
4, 2006520, Note_on_c, 2, 72, 100
4, 2006640, Note_on_c, 2, 72, 0
4, 2006640, Note_on_c, 2, 71, 100
4, 2006760, Note_on_c, 2, 71, 0
4, 2006760, Note_on_c, 2, 69, 100
4, 2006880, Note_on_c, 2, 69, 0
4, 2006880, Note_on_c, 2, 67, 100
4, 2007000, Note_on_c, 2, 67, 0
4, 2007000, Note_on_c, 2, 66, 100
4, 2007120, Note_on_c, 2, 66, 0
4, 2007120, Note_on_c, 2, 71, 100
4, 2007240, Note_on_c, 2, 71, 0
4, 2007240, Note_on_c, 2, 67, 100
4, 2007360, Note_on_c, 2, 67, 0
4, 2007360, Note_on_c, 2, 66, 100
4, 2007480, Note_on_c, 2, 66, 0
4, 2007480, Note_on_c, 2, 64, 100
4, 2007600, Note_on_c, 2, 64, 0
4, 2007600, Note_on_c, 2, 62, 100
4, 2007720, Note_on_c, 2, 62, 0
4, 2007720, Note_on_c, 2, 60, 100
4, 2007840, Note_on_c, 2, 60, 0
4, 2007840, Note_on_c, 2, 59, 100
4, 2007960, Note_on_c, 2, 59, 0
4, 2007960, Note_on_c, 2, 57, 100
4, 2008080, Note_on_c, 2, 57, 0
4, 2008080, Note_on_c, 2, 55, 100
4, 2008200, Note_on_c, 2, 55, 0
4, 2008200, Note_on_c, 2, 59, 100
4, 2008320, Note_on_c, 2, 59, 0
4, 2008320, Note_on_c, 2, 64, 100
4, 2008440, Note_on_c, 2, 64, 0
4, 2008440, Note_on_c, 2, 62, 100
4, 2008560, Note_on_c, 2, 62, 0
4, 2008560, Note_on_c, 2, 61, 100
4, 2008680, Note_on_c, 2, 61, 0
4, 2008680, Note_on_c, 2, 59, 100
4, 2008800, Note_on_c, 2, 59, 0
4, 2008800, Note_on_c, 2, 57, 100
4, 2008920, Note_on_c, 2, 57, 0
4, 2008920, Note_on_c, 2, 59, 100
4, 2009040, Note_on_c, 2, 59, 0
4, 2009040, Note_on_c, 2, 61, 100
4, 2009160, Note_on_c, 2, 61, 0
4, 2009160, Note_on_c, 2, 62, 100
4, 2009280, Note_on_c, 2, 62, 0
4, 2009280, Note_on_c, 2, 64, 100
4, 2009400, Note_on_c, 2, 64, 0
4, 2009400, Note_on_c, 2, 66, 100
4, 2009520, Note_on_c, 2, 66, 0
4, 2009520, Note_on_c, 2, 67, 100
4, 2009640, Note_on_c, 2, 67, 0
4, 2009640, Note_on_c, 2, 69, 100
4, 2009760, Note_on_c, 2, 69, 0
4, 2009760, Note_on_c, 2, 71, 100
4, 2009880, Note_on_c, 2, 71, 0
4, 2009880, Note_on_c, 2, 73, 100
4, 2010000, Note_on_c, 2, 73, 0
4, 2010000, Note_on_c, 2, 74, 100
4, 2010120, Note_on_c, 2, 74, 0
4, 2010120, Note_on_c, 2, 73, 100
4, 2010180, Note_on_c, 2, 73, 0
4, 2010180, Note_on_c, 2, 71, 100
4, 2010240, Note_on_c, 2, 71, 0
4, 2010240, Note_on_c, 2, 69, 100
4, 2010300, Note_on_c, 2, 69, 0
4, 2010300, Note_on_c, 2, 67, 100
4, 2010360, Note_on_c, 2, 67, 0
4, 2010360, Note_on_c, 2, 66, 100
4, 2010420, Note_on_c, 2, 66, 0
4, 2010420, Note_on_c, 2, 64, 100
4, 2010480, Note_on_c, 2, 64, 0
4, 2010480, Note_on_c, 2, 62, 100
4, 2010720, Note_on_c, 2, 62, 0
4, 2011440, Note_on_c, 2, 81, 100
4, 2011500, Note_on_c, 2, 81, 0
4, 2011500, Note_on_c, 2, 79, 100
4, 2011560, Note_on_c, 2, 79, 0
4, 2011560, Note_on_c, 2, 81, 100
4, 2011680, Note_on_c, 2, 81, 0
4, 2011800, Note_on_c, 2, 79, 100
4, 2011920, Note_on_c, 2, 79, 0
4, 2011920, Note_on_c, 2, 79, 100
4, 2011980, Note_on_c, 2, 79, 0
4, 2011980, Note_on_c, 2, 78, 100
4, 2012160, Note_on_c, 2, 78, 0
4, 2012280, Note_on_c, 2, 76, 100
4, 2012400, Note_on_c, 2, 76, 0
4, 2012400, Note_on_c, 2, 76, 100
4, 2012460, Note_on_c, 2, 76, 0
4, 2012460, Note_on_c, 2, 74, 100
4, 2012640, Note_on_c, 2, 74, 0
4, 2012760, Note_on_c, 2, 72, 100
4, 2012880, Note_on_c, 2, 72, 0
4, 2012880, Note_on_c, 2, 72, 100
4, 2012920, Note_on_c, 2, 72, 0
4, 2012920, Note_on_c, 2, 71, 100
4, 2012960, Note_on_c, 2, 71, 0
4, 2012960, Note_on_c, 2, 72, 100
4, 2013000, Note_on_c, 2, 72, 0
4, 2013000, Note_on_c, 2, 71, 100
4, 2013120, Note_on_c, 2, 71, 0
4, 2013240, Note_on_c, 2, 69, 100
4, 2013360, Note_on_c, 2, 69, 0
4, 2013360, Note_on_c, 2, 69, 100
4, 2013420, Note_on_c, 2, 69, 0
4, 2013420, Note_on_c, 2, 67, 100
4, 2013600, Note_on_c, 2, 67, 0
4, 2013720, Note_on_c, 2, 66, 100
4, 2013840, Note_on_c, 2, 66, 0
4, 2013840, Note_on_c, 2, 66, 100
4, 2013900, Note_on_c, 2, 66, 0
4, 2013900, Note_on_c, 2, 64, 100
4, 2014080, Note_on_c, 2, 64, 0
4, 2014200, Note_on_c, 2, 62, 100
4, 2014320, Note_on_c, 2, 62, 0
4, 2014320, Note_on_c, 2, 62, 100
4, 2014360, Note_on_c, 2, 62, 0
4, 2014360, Note_on_c, 2, 60, 100
4, 2014400, Note_on_c, 2, 60, 0
4, 2014400, Note_on_c, 2, 62, 100
4, 2014440, Note_on_c, 2, 62, 0
4, 2014440, Note_on_c, 2, 60, 100
4, 2014560, Note_on_c, 2, 60, 0
4, 2014680, Note_on_c, 2, 59, 100
4, 2014800, Note_on_c, 2, 59, 0
4, 2014800, Note_on_c, 2, 59, 100
4, 2014860, Note_on_c, 2, 59, 0
4, 2014860, Note_on_c, 2, 57, 100
4, 2015040, Note_on_c, 2, 57, 0
4, 2015160, Note_on_c, 2, 55, 100
4, 2015280, Note_on_c, 2, 55, 0
4, 2015280, Note_on_c, 2, 55, 100
4, 2015340, Note_on_c, 2, 55, 0
4, 2015340, Note_on_c, 2, 54, 100
4, 2015520, Note_on_c, 2, 54, 0
4, 2015640, Note_on_c, 2, 52, 100
4, 2015760, Note_on_c, 2, 52, 0
4, 2015760, Note_on_c, 2, 52, 100
4, 2015820, Note_on_c, 2, 52, 0
4, 2015820, Note_on_c, 2, 51, 100
4, 2016000, Note_on_c, 2, 51, 0
4, 2016120, Note_on_c, 2, 54, 100
4, 2016240, Note_on_c, 2, 54, 0
4, 2016240, Note_on_c, 2, 57, 100
4, 2016480, Note_on_c, 2, 57, 0
4, 2016600, Note_on_c, 2, 60, 100
4, 2016720, Note_on_c, 2, 60, 0
4, 2016720, Note_on_c, 2, 60, 100
4, 2016760, Note_on_c, 2, 60, 0
4, 2016760, Note_on_c, 2, 59, 100
4, 2016800, Note_on_c, 2, 59, 0
4, 2016800, Note_on_c, 2, 60, 100
4, 2016840, Note_on_c, 2, 60, 0
4, 2016840, Note_on_c, 2, 59, 100
4, 2016960, Note_on_c, 2, 59, 0
4, 2017080, Note_on_c, 2, 57, 100
4, 2017200, Note_on_c, 2, 57, 0
4, 2017200, Note_on_c, 2, 55, 100
4, 2017440, Note_on_c, 2, 55, 0
4, 2017800, Note_on_c, 2, 75, 100
4, 2017920, Note_on_c, 2, 75, 0
4, 2017920, Note_on_c, 2, 76, 100
4, 2018040, Note_on_c, 2, 76, 0
4, 2018040, Note_on_c, 2, 78, 100
4, 2018160, Note_on_c, 2, 78, 0
4, 2018160, Note_on_c, 2, 79, 100
4, 2018280, Note_on_c, 2, 79, 0
4, 2018280, Note_on_c, 2, 80, 100
4, 2018400, Note_on_c, 2, 80, 0
4, 2018400, Note_on_c, 2, 81, 100
4, 2018520, Note_on_c, 2, 81, 0
4, 2018520, Note_on_c, 2, 83, 100
4, 2018640, Note_on_c, 2, 83, 0
4, 2018640, Note_on_c, 2, 84, 100
4, 2018760, Note_on_c, 2, 84, 0
4, 2018760, Note_on_c, 2, 81, 100
4, 2018880, Note_on_c, 2, 81, 0
4, 2018880, Note_on_c, 2, 79, 100
4, 2019000, Note_on_c, 2, 79, 0
4, 2019000, Note_on_c, 2, 77, 100
4, 2019120, Note_on_c, 2, 77, 0
4, 2019120, Note_on_c, 2, 76, 100
4, 2019240, Note_on_c, 2, 76, 0
4, 2019240, Note_on_c, 2, 74, 100
4, 2019360, Note_on_c, 2, 74, 0
4, 2019360, Note_on_c, 2, 72, 100
4, 2019480, Note_on_c, 2, 72, 0
4, 2019480, Note_on_c, 2, 71, 100
4, 2019600, Note_on_c, 2, 71, 0
4, 2019600, Note_on_c, 2, 69, 100
4, 2019720, Note_on_c, 2, 69, 0
4, 2019720, Note_on_c, 2, 67, 100
4, 2019840, Note_on_c, 2, 67, 0
4, 2019840, Note_on_c, 2, 66, 100
4, 2019960, Note_on_c, 2, 66, 0
4, 2019960, Note_on_c, 2, 64, 100
4, 2020080, Note_on_c, 2, 64, 0
4, 2020080, Note_on_c, 2, 63, 100
4, 2020200, Note_on_c, 2, 63, 0
4, 2020200, Note_on_c, 2, 72, 100
4, 2020320, Note_on_c, 2, 72, 0
4, 2020320, Note_on_c, 2, 71, 100
4, 2020560, Note_on_c, 2, 71, 0
4, 2020620, Note_on_c, 2, 71, 100
4, 2020680, Note_on_c, 2, 71, 0
4, 2020680, Note_on_c, 2, 73, 100
4, 2020740, Note_on_c, 2, 73, 0
4, 2020740, Note_on_c, 2, 75, 100
4, 2020800, Note_on_c, 2, 75, 0
4, 2020800, Note_on_c, 2, 76, 100
4, 2020860, Note_on_c, 2, 76, 0
4, 2020860, Note_on_c, 2, 78, 100
4, 2020920, Note_on_c, 2, 78, 0
4, 2020920, Note_on_c, 2, 79, 100
4, 2021160, Note_on_c, 2, 79, 0
4, 2021160, Note_on_c, 2, 78, 100
4, 2021280, Note_on_c, 2, 78, 0
4, 2021280, Note_on_c, 2, 78, 100
4, 2021310, Note_on_c, 2, 78, 0
4, 2021310, Note_on_c, 2, 76, 100
4, 2021340, Note_on_c, 2, 76, 0
4, 2021340, Note_on_c, 2, 78, 100
4, 2021370, Note_on_c, 2, 78, 0
4, 2021370, Note_on_c, 2, 76, 100
4, 2021400, Note_on_c, 2, 76, 0
4, 2021400, Note_on_c, 2, 75, 100
4, 2021520, Note_on_c, 2, 75, 0
4, 2021520, Note_on_c, 2, 76, 100
4, 2021580, Note_on_c, 2, 76, 0
4, 2021580, Note_on_c, 2, 72, 100
4, 2021640, Note_on_c, 2, 72, 0
4, 2021640, Note_on_c, 2, 71, 100
4, 2021700, Note_on_c, 2, 71, 0
4, 2021700, Note_on_c, 2, 69, 100
4, 2021760, Note_on_c, 2, 69, 0
4, 2021760, Note_on_c, 2, 71, 100
4, 2021820, Note_on_c, 2, 71, 0
4, 2022060, Note_on_c, 2, 66, 100
4, 2022120, Note_on_c, 2, 66, 0
4, 2022120, Note_on_c, 2, 64, 100
4, 2022180, Note_on_c, 2, 64, 0
4, 2022180, Note_on_c, 2, 63, 100
4, 2022240, Note_on_c, 2, 63, 0
4, 2022240, Note_on_c, 2, 64, 100
4, 2022300, Note_on_c, 2, 64, 0
4, 2022540, Note_on_c, 2, 57, 100
4, 2022600, Note_on_c, 2, 57, 0
4, 2022600, Note_on_c, 2, 55, 100
4, 2022660, Note_on_c, 2, 55, 0
4, 2022660, Note_on_c, 2, 54, 100
4, 2022720, Note_on_c, 2, 54, 0
4, 2022720, Note_on_c, 2, 55, 100
4, 2022780, Note_on_c, 2, 55, 0
4, 2023080, Note_on_c, 2, 60, 100
4, 2023200, Note_on_c, 2, 60, 0
4, 2023200, Note_on_c, 2, 62, 100
4, 2023320, Note_on_c, 2, 62, 0
4, 2023320, Note_on_c, 2, 64, 100
4, 2023440, Note_on_c, 2, 64, 0
4, 2023440, Note_on_c, 2, 65, 100
4, 2023560, Note_on_c, 2, 65, 0
4, 2023560, Note_on_c, 2, 67, 100
4, 2023680, Note_on_c, 2, 67, 0
4, 2023680, Note_on_c, 2, 69, 100
4, 2023800, Note_on_c, 2, 69, 0
4, 2023800, Note_on_c, 2, 71, 100
4, 2023920, Note_on_c, 2, 71, 0
4, 2023920, Note_on_c, 2, 72, 100
4, 2024160, Note_on_c, 2, 72, 0
4, 2024520, Note_on_c, 2, 71, 100
4, 2024640, Note_on_c, 2, 71, 0
4, 2024640, Note_on_c, 2, 69, 100
4, 2024760, Note_on_c, 2, 69, 0
4, 2024760, Note_on_c, 2, 67, 100
4, 2024880, Note_on_c, 2, 67, 0
4, 2024880, Note_on_c, 2, 66, 100
4, 2025000, Note_on_c, 2, 66, 0
4, 2025000, Note_on_c, 2, 64, 100
4, 2025120, Note_on_c, 2, 64, 0
4, 2025120, Note_on_c, 2, 62, 100
4, 2025240, Note_on_c, 2, 62, 0
4, 2025240, Note_on_c, 2, 60, 100
4, 2025360, Note_on_c, 2, 60, 0
4, 2025360, Note_on_c, 2, 59, 100
4, 2025600, Note_on_c, 2, 59, 0
4, 2025960, Note_on_c, 2, 59, 100
4, 2026080, Note_on_c, 2, 59, 0
4, 2026200, Note_on_c, 2, 56, 100
4, 2026320, Note_on_c, 2, 56, 0
4, 2026440, Note_on_c, 2, 59, 100
4, 2026560, Note_on_c, 2, 59, 0
4, 2026680, Note_on_c, 2, 55, 100
4, 2026800, Note_on_c, 2, 55, 0
4, 2026920, Note_on_c, 2, 55, 100
4, 2027040, Note_on_c, 2, 55, 0
4, 2027160, Note_on_c, 2, 52, 100
4, 2027280, Note_on_c, 2, 52, 0
4, 2027400, Note_on_c, 2, 52, 100
4, 2027520, Note_on_c, 2, 52, 0
4, 2027640, Note_on_c, 2, 49, 100
4, 2027760, Note_on_c, 2, 49, 0
4, 2027880, Note_on_c, 2, 52, 100
4, 2028000, Note_on_c, 2, 52, 0
4, 2028120, Note_on_c, 2, 48, 100
4, 2028240, Note_on_c, 2, 48, 0
4, 2028360, Note_on_c, 2, 48, 100
4, 2028480, Note_on_c, 2, 48, 0
4, 2028600, Note_on_c, 2, 45, 100
4, 2028720, Note_on_c, 2, 45, 0
4, 2028840, Note_on_c, 2, 45, 100
4, 2028960, Note_on_c, 2, 45, 0
4, 2029080, Note_on_c, 2, 42, 100
4, 2029200, Note_on_c, 2, 42, 0
4, 2029320, Note_on_c, 2, 45, 100
4, 2029440, Note_on_c, 2, 45, 0
4, 2029560, Note_on_c, 2, 48, 100
4, 2029680, Note_on_c, 2, 48, 0
4, 2029800, Note_on_c, 2, 52, 100
4, 2029920, Note_on_c, 2, 52, 0
4, 2030040, Note_on_c, 2, 55, 100
4, 2030160, Note_on_c, 2, 55, 0
4, 2030280, Note_on_c, 2, 53, 100
4, 2030400, Note_on_c, 2, 53, 0
4, 2030520, Note_on_c, 2, 50, 100
4, 2030640, Note_on_c, 2, 50, 0
4, 2030760, Note_on_c, 2, 53, 100
4, 2030880, Note_on_c, 2, 53, 0
4, 2031000, Note_on_c, 2, 57, 100
4, 2031120, Note_on_c, 2, 57, 0
4, 2031240, Note_on_c, 2, 60, 100
4, 2031360, Note_on_c, 2, 60, 0
4, 2031480, Note_on_c, 2, 64, 100
4, 2031600, Note_on_c, 2, 64, 0
4, 2031720, Note_on_c, 2, 69, 100
4, 2031840, Note_on_c, 2, 69, 0
4, 2031840, Note_on_c, 2, 71, 100
4, 2031960, Note_on_c, 2, 71, 0
4, 2031960, Note_on_c, 2, 73, 100
4, 2032080, Note_on_c, 2, 73, 0
4, 2032080, Note_on_c, 2, 74, 100
4, 2032200, Note_on_c, 2, 74, 0
4, 2032200, Note_on_c, 2, 76, 100
4, 2032320, Note_on_c, 2, 76, 0
4, 2032320, Note_on_c, 2, 78, 100
4, 2032440, Note_on_c, 2, 78, 0
4, 2032440, Note_on_c, 2, 79, 100
4, 2032560, Note_on_c, 2, 79, 0
4, 2032560, Note_on_c, 2, 81, 100
4, 2032800, Note_on_c, 2, 81, 0
4, 2033160, Note_on_c, 2, 74, 100
4, 2033280, Note_on_c, 2, 74, 0
4, 2033280, Note_on_c, 2, 72, 100
4, 2033400, Note_on_c, 2, 72, 0
4, 2033400, Note_on_c, 2, 71, 100
4, 2033520, Note_on_c, 2, 71, 0
4, 2033520, Note_on_c, 2, 69, 100
4, 2033640, Note_on_c, 2, 69, 0
4, 2033640, Note_on_c, 2, 67, 100
4, 2033760, Note_on_c, 2, 67, 0
4, 2033760, Note_on_c, 2, 66, 100
4, 2033880, Note_on_c, 2, 66, 0
4, 2033880, Note_on_c, 2, 64, 100
4, 2034000, Note_on_c, 2, 64, 0
4, 2034000, Note_on_c, 2, 62, 100
4, 2034240, Note_on_c, 2, 62, 0
4, 2034480, Note_on_c, 2, 81, 100
4, 2034540, Note_on_c, 2, 81, 0
4, 2034540, Note_on_c, 2, 79, 100
4, 2034600, Note_on_c, 2, 79, 0
4, 2034600, Note_on_c, 2, 81, 100
4, 2034720, Note_on_c, 2, 81, 0
4, 2034840, Note_on_c, 2, 79, 100
4, 2034960, Note_on_c, 2, 79, 0
4, 2034960, Note_on_c, 2, 79, 100
4, 2035020, Note_on_c, 2, 79, 0
4, 2035020, Note_on_c, 2, 78, 100
4, 2035200, Note_on_c, 2, 78, 0
4, 2035320, Note_on_c, 2, 76, 100
4, 2035440, Note_on_c, 2, 76, 0
4, 2035440, Note_on_c, 2, 76, 100
4, 2035500, Note_on_c, 2, 76, 0
4, 2035500, Note_on_c, 2, 74, 100
4, 2035680, Note_on_c, 2, 74, 0
4, 2035800, Note_on_c, 2, 72, 100
4, 2035920, Note_on_c, 2, 72, 0
4, 2035920, Note_on_c, 2, 72, 100
4, 2035960, Note_on_c, 2, 72, 0
4, 2035960, Note_on_c, 2, 71, 100
4, 2036000, Note_on_c, 2, 71, 0
4, 2036000, Note_on_c, 2, 72, 100
4, 2036040, Note_on_c, 2, 72, 0
4, 2036040, Note_on_c, 2, 71, 100
4, 2036160, Note_on_c, 2, 71, 0
4, 2036280, Note_on_c, 2, 69, 100
4, 2036400, Note_on_c, 2, 69, 0
4, 2036400, Note_on_c, 2, 69, 100
4, 2036460, Note_on_c, 2, 69, 0
4, 2036460, Note_on_c, 2, 67, 100
4, 2036640, Note_on_c, 2, 67, 0
4, 2036760, Note_on_c, 2, 66, 100
4, 2036880, Note_on_c, 2, 66, 0
4, 2036880, Note_on_c, 2, 66, 100
4, 2036940, Note_on_c, 2, 66, 0
4, 2036940, Note_on_c, 2, 64, 100
4, 2037120, Note_on_c, 2, 64, 0
4, 2037240, Note_on_c, 2, 62, 100
4, 2037360, Note_on_c, 2, 62, 0
4, 2037360, Note_on_c, 2, 62, 100
4, 2037400, Note_on_c, 2, 62, 0
4, 2037400, Note_on_c, 2, 60, 100
4, 2037440, Note_on_c, 2, 60, 0
4, 2037440, Note_on_c, 2, 62, 100
4, 2037480, Note_on_c, 2, 62, 0
4, 2037480, Note_on_c, 2, 60, 100
4, 2037600, Note_on_c, 2, 60, 0
4, 2037720, Note_on_c, 2, 59, 100
4, 2037840, Note_on_c, 2, 59, 0
4, 2037840, Note_on_c, 2, 59, 100
4, 2037900, Note_on_c, 2, 59, 0
4, 2037900, Note_on_c, 2, 57, 100
4, 2038080, Note_on_c, 2, 57, 0
4, 2038200, Note_on_c, 2, 55, 100
4, 2038320, Note_on_c, 2, 55, 0
4, 2038320, Note_on_c, 2, 55, 100
4, 2038380, Note_on_c, 2, 55, 0
4, 2038380, Note_on_c, 2, 54, 100
4, 2038560, Note_on_c, 2, 54, 0
4, 2038680, Note_on_c, 2, 52, 100
4, 2038800, Note_on_c, 2, 52, 0
4, 2038800, Note_on_c, 2, 52, 100
4, 2038860, Note_on_c, 2, 52, 0
4, 2038860, Note_on_c, 2, 51, 100
4, 2039040, Note_on_c, 2, 51, 0
4, 2039160, Note_on_c, 2, 54, 100
4, 2039280, Note_on_c, 2, 54, 0
4, 2039280, Note_on_c, 2, 57, 100
4, 2039520, Note_on_c, 2, 57, 0
4, 2039640, Note_on_c, 2, 60, 100
4, 2039760, Note_on_c, 2, 60, 0
4, 2039760, Note_on_c, 2, 60, 100
4, 2039800, Note_on_c, 2, 60, 0
4, 2039800, Note_on_c, 2, 59, 100
4, 2039840, Note_on_c, 2, 59, 0
4, 2039840, Note_on_c, 2, 60, 100
4, 2039880, Note_on_c, 2, 60, 0
4, 2039880, Note_on_c, 2, 59, 100
4, 2040000, Note_on_c, 2, 59, 0
4, 2040120, Note_on_c, 2, 57, 100
4, 2040240, Note_on_c, 2, 57, 0
4, 2040240, Note_on_c, 2, 55, 100
4, 2040480, Note_on_c, 2, 55, 0
4, 2040840, Note_on_c, 2, 75, 100
4, 2040960, Note_on_c, 2, 75, 0
4, 2040960, Note_on_c, 2, 76, 100
4, 2041080, Note_on_c, 2, 76, 0
4, 2041080, Note_on_c, 2, 78, 100
4, 2041200, Note_on_c, 2, 78, 0
4, 2041200, Note_on_c, 2, 79, 100
4, 2041320, Note_on_c, 2, 79, 0
4, 2041320, Note_on_c, 2, 80, 100
4, 2041440, Note_on_c, 2, 80, 0
4, 2041440, Note_on_c, 2, 81, 100
4, 2041560, Note_on_c, 2, 81, 0
4, 2041560, Note_on_c, 2, 83, 100
4, 2041680, Note_on_c, 2, 83, 0
4, 2041680, Note_on_c, 2, 84, 100
4, 2041800, Note_on_c, 2, 84, 0
4, 2041800, Note_on_c, 2, 81, 100
4, 2041920, Note_on_c, 2, 81, 0
4, 2041920, Note_on_c, 2, 79, 100
4, 2042040, Note_on_c, 2, 79, 0
4, 2042040, Note_on_c, 2, 77, 100
4, 2042160, Note_on_c, 2, 77, 0
4, 2042160, Note_on_c, 2, 76, 100
4, 2042280, Note_on_c, 2, 76, 0
4, 2042280, Note_on_c, 2, 74, 100
4, 2042400, Note_on_c, 2, 74, 0
4, 2042400, Note_on_c, 2, 72, 100
4, 2042520, Note_on_c, 2, 72, 0
4, 2042520, Note_on_c, 2, 71, 100
4, 2042640, Note_on_c, 2, 71, 0
4, 2042640, Note_on_c, 2, 69, 100
4, 2042760, Note_on_c, 2, 69, 0
4, 2042760, Note_on_c, 2, 67, 100
4, 2042880, Note_on_c, 2, 67, 0
4, 2042880, Note_on_c, 2, 66, 100
4, 2043000, Note_on_c, 2, 66, 0
4, 2043000, Note_on_c, 2, 64, 100
4, 2043120, Note_on_c, 2, 64, 0
4, 2043120, Note_on_c, 2, 63, 100
4, 2043240, Note_on_c, 2, 63, 0
4, 2043240, Note_on_c, 2, 72, 100
4, 2043360, Note_on_c, 2, 72, 0
4, 2043360, Note_on_c, 2, 71, 100
4, 2043600, Note_on_c, 2, 71, 0
4, 2043660, Note_on_c, 2, 71, 100
4, 2043720, Note_on_c, 2, 71, 0
4, 2043720, Note_on_c, 2, 73, 100
4, 2043780, Note_on_c, 2, 73, 0
4, 2043780, Note_on_c, 2, 75, 100
4, 2043840, Note_on_c, 2, 75, 0
4, 2043840, Note_on_c, 2, 76, 100
4, 2043900, Note_on_c, 2, 76, 0
4, 2043900, Note_on_c, 2, 78, 100
4, 2043960, Note_on_c, 2, 78, 0
4, 2043960, Note_on_c, 2, 79, 100
4, 2044200, Note_on_c, 2, 79, 0
4, 2044200, Note_on_c, 2, 78, 100
4, 2044320, Note_on_c, 2, 78, 0
4, 2044320, Note_on_c, 2, 78, 100
4, 2044350, Note_on_c, 2, 78, 0
4, 2044350, Note_on_c, 2, 76, 100
4, 2044380, Note_on_c, 2, 76, 0
4, 2044380, Note_on_c, 2, 78, 100
4, 2044410, Note_on_c, 2, 78, 0
4, 2044410, Note_on_c, 2, 76, 100
4, 2044440, Note_on_c, 2, 76, 0
4, 2044440, Note_on_c, 2, 75, 100
4, 2044560, Note_on_c, 2, 75, 0
4, 2044560, Note_on_c, 2, 76, 100
4, 2044620, Note_on_c, 2, 76, 0
4, 2044620, Note_on_c, 2, 72, 100
4, 2044680, Note_on_c, 2, 72, 0
4, 2044680, Note_on_c, 2, 71, 100
4, 2044740, Note_on_c, 2, 71, 0
4, 2044740, Note_on_c, 2, 69, 100
4, 2044800, Note_on_c, 2, 69, 0
4, 2044800, Note_on_c, 2, 71, 100
4, 2044860, Note_on_c, 2, 71, 0
4, 2045100, Note_on_c, 2, 66, 100
4, 2045160, Note_on_c, 2, 66, 0
4, 2045160, Note_on_c, 2, 64, 100
4, 2045220, Note_on_c, 2, 64, 0
4, 2045220, Note_on_c, 2, 63, 100
4, 2045280, Note_on_c, 2, 63, 0
4, 2045280, Note_on_c, 2, 64, 100
4, 2045340, Note_on_c, 2, 64, 0
4, 2045580, Note_on_c, 2, 57, 100
4, 2045640, Note_on_c, 2, 57, 0
4, 2045640, Note_on_c, 2, 55, 100
4, 2045700, Note_on_c, 2, 55, 0
4, 2045700, Note_on_c, 2, 54, 100
4, 2045760, Note_on_c, 2, 54, 0
4, 2045760, Note_on_c, 2, 55, 100
4, 2045820, Note_on_c, 2, 55, 0
4, 2046120, Note_on_c, 2, 60, 100
4, 2046240, Note_on_c, 2, 60, 0
4, 2046240, Note_on_c, 2, 62, 100
4, 2046360, Note_on_c, 2, 62, 0
4, 2046360, Note_on_c, 2, 64, 100
4, 2046480, Note_on_c, 2, 64, 0
4, 2046480, Note_on_c, 2, 65, 100
4, 2046600, Note_on_c, 2, 65, 0
4, 2046600, Note_on_c, 2, 67, 100
4, 2046720, Note_on_c, 2, 67, 0
4, 2046720, Note_on_c, 2, 69, 100
4, 2046840, Note_on_c, 2, 69, 0
4, 2046840, Note_on_c, 2, 71, 100
4, 2046960, Note_on_c, 2, 71, 0
4, 2046960, Note_on_c, 2, 72, 100
4, 2047200, Note_on_c, 2, 72, 0
4, 2047560, Note_on_c, 2, 71, 100
4, 2047680, Note_on_c, 2, 71, 0
4, 2047680, Note_on_c, 2, 69, 100
4, 2047800, Note_on_c, 2, 69, 0
4, 2047800, Note_on_c, 2, 67, 100
4, 2047920, Note_on_c, 2, 67, 0
4, 2047920, Note_on_c, 2, 66, 100
4, 2048040, Note_on_c, 2, 66, 0
4, 2048040, Note_on_c, 2, 64, 100
4, 2048160, Note_on_c, 2, 64, 0
4, 2048160, Note_on_c, 2, 62, 100
4, 2048280, Note_on_c, 2, 62, 0
4, 2048280, Note_on_c, 2, 60, 100
4, 2048400, Note_on_c, 2, 60, 0
4, 2048400, Note_on_c, 2, 59, 100
4, 2048640, Note_on_c, 2, 59, 0
4, 2049000, Note_on_c, 2, 59, 100
4, 2049120, Note_on_c, 2, 59, 0
4, 2049240, Note_on_c, 2, 56, 100
4, 2049360, Note_on_c, 2, 56, 0
4, 2049480, Note_on_c, 2, 59, 100
4, 2049600, Note_on_c, 2, 59, 0
4, 2049720, Note_on_c, 2, 55, 100
4, 2049840, Note_on_c, 2, 55, 0
4, 2049960, Note_on_c, 2, 55, 100
4, 2050080, Note_on_c, 2, 55, 0
4, 2050200, Note_on_c, 2, 52, 100
4, 2050320, Note_on_c, 2, 52, 0
4, 2050440, Note_on_c, 2, 52, 100
4, 2050560, Note_on_c, 2, 52, 0
4, 2050680, Note_on_c, 2, 49, 100
4, 2050800, Note_on_c, 2, 49, 0
4, 2050920, Note_on_c, 2, 52, 100
4, 2051040, Note_on_c, 2, 52, 0
4, 2051160, Note_on_c, 2, 48, 100
4, 2051280, Note_on_c, 2, 48, 0
4, 2051400, Note_on_c, 2, 48, 100
4, 2051520, Note_on_c, 2, 48, 0
4, 2051640, Note_on_c, 2, 45, 100
4, 2051760, Note_on_c, 2, 45, 0
4, 2051880, Note_on_c, 2, 45, 100
4, 2052000, Note_on_c, 2, 45, 0
4, 2052120, Note_on_c, 2, 42, 100
4, 2052240, Note_on_c, 2, 42, 0
4, 2052360, Note_on_c, 2, 45, 100
4, 2052480, Note_on_c, 2, 45, 0
4, 2052600, Note_on_c, 2, 48, 100
4, 2052720, Note_on_c, 2, 48, 0
4, 2052840, Note_on_c, 2, 52, 100
4, 2052960, Note_on_c, 2, 52, 0
4, 2053080, Note_on_c, 2, 55, 100
4, 2053200, Note_on_c, 2, 55, 0
4, 2053320, Note_on_c, 2, 53, 100
4, 2053440, Note_on_c, 2, 53, 0
4, 2053560, Note_on_c, 2, 50, 100
4, 2053680, Note_on_c, 2, 50, 0
4, 2053800, Note_on_c, 2, 53, 100
4, 2053920, Note_on_c, 2, 53, 0
4, 2054040, Note_on_c, 2, 57, 100
4, 2054160, Note_on_c, 2, 57, 0
4, 2054280, Note_on_c, 2, 60, 100
4, 2054400, Note_on_c, 2, 60, 0
4, 2054520, Note_on_c, 2, 64, 100
4, 2054640, Note_on_c, 2, 64, 0
4, 2054760, Note_on_c, 2, 69, 100
4, 2054880, Note_on_c, 2, 69, 0
4, 2054880, Note_on_c, 2, 71, 100
4, 2055000, Note_on_c, 2, 71, 0
4, 2055000, Note_on_c, 2, 73, 100
4, 2055120, Note_on_c, 2, 73, 0
4, 2055120, Note_on_c, 2, 74, 100
4, 2055240, Note_on_c, 2, 74, 0
4, 2055240, Note_on_c, 2, 76, 100
4, 2055360, Note_on_c, 2, 76, 0
4, 2055360, Note_on_c, 2, 78, 100
4, 2055480, Note_on_c, 2, 78, 0
4, 2055480, Note_on_c, 2, 79, 100
4, 2055600, Note_on_c, 2, 79, 0
4, 2055600, Note_on_c, 2, 81, 100
4, 2055840, Note_on_c, 2, 81, 0
4, 2056200, Note_on_c, 2, 74, 100
4, 2056320, Note_on_c, 2, 74, 0
4, 2056320, Note_on_c, 2, 72, 100
4, 2056440, Note_on_c, 2, 72, 0
4, 2056440, Note_on_c, 2, 71, 100
4, 2056560, Note_on_c, 2, 71, 0
4, 2056560, Note_on_c, 2, 69, 100
4, 2056680, Note_on_c, 2, 69, 0
4, 2056680, Note_on_c, 2, 67, 100
4, 2056800, Note_on_c, 2, 67, 0
4, 2056800, Note_on_c, 2, 66, 100
4, 2056920, Note_on_c, 2, 66, 0
4, 2056920, Note_on_c, 2, 64, 100
4, 2057040, Note_on_c, 2, 64, 0
4, 2057040, Note_on_c, 2, 62, 100
4, 2057280, Note_on_c, 2, 62, 0
4, 2381520, Note_on_c, 2, 69, 100
4, 2381760, Note_on_c, 2, 69, 0
4, 2381760, Note_on_c, 2, 71, 100
4, 2381880, Note_on_c, 2, 71, 0
4, 2381880, Note_on_c, 2, 73, 100
4, 2382000, Note_on_c, 2, 73, 0
4, 2382000, Note_on_c, 2, 74, 100
4, 2382120, Note_on_c, 2, 74, 0
4, 2382120, Note_on_c, 2, 76, 100
4, 2382240, Note_on_c, 2, 76, 0
4, 2382240, Note_on_c, 2, 78, 100
4, 2382360, Note_on_c, 2, 78, 0
4, 2382360, Note_on_c, 2, 76, 100
4, 2382480, Note_on_c, 2, 76, 0
4, 2382480, Note_on_c, 2, 74, 100
4, 2382600, Note_on_c, 2, 74, 0
4, 2382600, Note_on_c, 2, 76, 100
4, 2382720, Note_on_c, 2, 76, 0
4, 2382720, Note_on_c, 2, 78, 100
4, 2382960, Note_on_c, 2, 78, 0
4, 2382960, Note_on_c, 2, 67, 100
4, 2383200, Note_on_c, 2, 67, 0
4, 2383680, Note_on_c, 2, 76, 100
4, 2383920, Note_on_c, 2, 76, 0
4, 2384400, Note_on_c, 2, 66, 100
4, 2384640, Note_on_c, 2, 66, 0
4, 2384640, Note_on_c, 2, 67, 100
4, 2384760, Note_on_c, 2, 67, 0
4, 2384760, Note_on_c, 2, 69, 100
4, 2384880, Note_on_c, 2, 69, 0
4, 2384880, Note_on_c, 2, 71, 100
4, 2385000, Note_on_c, 2, 71, 0
4, 2385000, Note_on_c, 2, 72, 100
4, 2385120, Note_on_c, 2, 72, 0
4, 2385120, Note_on_c, 2, 74, 100
4, 2385240, Note_on_c, 2, 74, 0
4, 2385240, Note_on_c, 2, 76, 100
4, 2385360, Note_on_c, 2, 76, 0
4, 2385360, Note_on_c, 2, 74, 100
4, 2385480, Note_on_c, 2, 74, 0
4, 2385480, Note_on_c, 2, 72, 100
4, 2385600, Note_on_c, 2, 72, 0
4, 2385600, Note_on_c, 2, 74, 100
4, 2385840, Note_on_c, 2, 74, 0
4, 2385840, Note_on_c, 2, 74, 100
4, 2386080, Note_on_c, 2, 74, 0
4, 2386560, Note_on_c, 2, 67, 100
4, 2386800, Note_on_c, 2, 67, 0
4, 2387280, Note_on_c, 2, 72, 100
4, 2387400, Note_on_c, 2, 72, 0
4, 2387400, Note_on_c, 2, 74, 100
4, 2387520, Note_on_c, 2, 74, 0
4, 2387520, Note_on_c, 2, 72, 100
4, 2387640, Note_on_c, 2, 72, 0
4, 2387640, Note_on_c, 2, 71, 100
4, 2387760, Note_on_c, 2, 71, 0
4, 2387760, Note_on_c, 2, 69, 100
4, 2387880, Note_on_c, 2, 69, 0
4, 2387880, Note_on_c, 2, 67, 100
4, 2388000, Note_on_c, 2, 67, 0
4, 2388000, Note_on_c, 2, 66, 100
4, 2388120, Note_on_c, 2, 66, 0
4, 2388120, Note_on_c, 2, 69, 100
4, 2388240, Note_on_c, 2, 69, 0
4, 2388240, Note_on_c, 2, 72, 100
4, 2388360, Note_on_c, 2, 72, 0
4, 2388360, Note_on_c, 2, 76, 100
4, 2388480, Note_on_c, 2, 76, 0
4, 2388480, Note_on_c, 2, 74, 100
4, 2388600, Note_on_c, 2, 74, 0
4, 2388600, Note_on_c, 2, 72, 100
4, 2388720, Note_on_c, 2, 72, 0
4, 2388720, Note_on_c, 2, 71, 100
4, 2388840, Note_on_c, 2, 71, 0
4, 2388840, Note_on_c, 2, 72, 100
4, 2388960, Note_on_c, 2, 72, 0
4, 2388960, Note_on_c, 2, 71, 100
4, 2389080, Note_on_c, 2, 71, 0
4, 2389080, Note_on_c, 2, 69, 100
4, 2389200, Note_on_c, 2, 69, 0
4, 2389200, Note_on_c, 2, 67, 100
4, 2389320, Note_on_c, 2, 67, 0
4, 2389320, Note_on_c, 2, 66, 100
4, 2389440, Note_on_c, 2, 66, 0
4, 2389440, Note_on_c, 2, 64, 100
4, 2389560, Note_on_c, 2, 64, 0
4, 2389560, Note_on_c, 2, 67, 100
4, 2389680, Note_on_c, 2, 67, 0
4, 2389680, Note_on_c, 2, 71, 100
4, 2389800, Note_on_c, 2, 71, 0
4, 2389800, Note_on_c, 2, 74, 100
4, 2389920, Note_on_c, 2, 74, 0
4, 2389920, Note_on_c, 2, 72, 100
4, 2390040, Note_on_c, 2, 72, 0
4, 2390040, Note_on_c, 2, 71, 100
4, 2390160, Note_on_c, 2, 71, 0
4, 2390160, Note_on_c, 2, 69, 100
4, 2390400, Note_on_c, 2, 69, 0
4, 2390400, Note_on_c, 2, 72, 100
4, 2390460, Note_on_c, 2, 72, 0
4, 2390460, Note_on_c, 2, 71, 100
4, 2390520, Note_on_c, 2, 71, 0
4, 2390520, Note_on_c, 2, 69, 100
4, 2390580, Note_on_c, 2, 69, 0
4, 2390580, Note_on_c, 2, 71, 100
4, 2390640, Note_on_c, 2, 71, 0
4, 2390640, Note_on_c, 2, 72, 100
4, 2390880, Note_on_c, 2, 72, 0
4, 2390880, Note_on_c, 2, 62, 100
4, 2391120, Note_on_c, 2, 62, 0
4, 2391120, Note_on_c, 2, 74, 100
4, 2391720, Note_on_c, 2, 74, 0
4, 2391720, Note_on_c, 2, 78, 100
4, 2391840, Note_on_c, 2, 78, 0
4, 2391840, Note_on_c, 2, 76, 100
4, 2391960, Note_on_c, 2, 76, 0
4, 2391960, Note_on_c, 2, 74, 100
4, 2392080, Note_on_c, 2, 74, 0
4, 2392080, Note_on_c, 2, 73, 100
4, 2392200, Note_on_c, 2, 73, 0
4, 2392200, Note_on_c, 2, 71, 100
4, 2392320, Note_on_c, 2, 71, 0
4, 2392320, Note_on_c, 2, 73, 100
4, 2392440, Note_on_c, 2, 73, 0
4, 2392440, Note_on_c, 2, 74, 100
4, 2392560, Note_on_c, 2, 74, 0
4, 2392560, Note_on_c, 2, 76, 100
4, 2392680, Note_on_c, 2, 76, 0
4, 2392680, Note_on_c, 2, 73, 100
4, 2392800, Note_on_c, 2, 73, 0
4, 2392800, Note_on_c, 2, 74, 100
4, 2392920, Note_on_c, 2, 74, 0
4, 2392920, Note_on_c, 2, 76, 100
4, 2393040, Note_on_c, 2, 76, 0
4, 2393040, Note_on_c, 2, 69, 100
4, 2393100, Note_on_c, 2, 69, 0
4, 2393100, Note_on_c, 2, 67, 100
4, 2393160, Note_on_c, 2, 67, 0
4, 2393160, Note_on_c, 2, 69, 100
4, 2394600, Note_on_c, 2, 69, 0
4, 2394600, Note_on_c, 2, 69, 100
4, 2394720, Note_on_c, 2, 69, 0
4, 2394720, Note_on_c, 2, 67, 100
4, 2394840, Note_on_c, 2, 67, 0
4, 2394840, Note_on_c, 2, 66, 100
4, 2394960, Note_on_c, 2, 66, 0
4, 2394960, Note_on_c, 2, 64, 100
4, 2395080, Note_on_c, 2, 64, 0
4, 2395080, Note_on_c, 2, 62, 100
4, 2395200, Note_on_c, 2, 62, 0
4, 2395200, Note_on_c, 2, 61, 100
4, 2395320, Note_on_c, 2, 61, 0
4, 2395320, Note_on_c, 2, 62, 100
4, 2395440, Note_on_c, 2, 62, 0
4, 2395440, Note_on_c, 2, 64, 100
4, 2395560, Note_on_c, 2, 64, 0
4, 2395560, Note_on_c, 2, 62, 100
4, 2395680, Note_on_c, 2, 62, 0
4, 2395680, Note_on_c, 2, 64, 100
4, 2395800, Note_on_c, 2, 64, 0
4, 2395800, Note_on_c, 2, 61, 100
4, 2395920, Note_on_c, 2, 61, 0
4, 2395920, Note_on_c, 2, 66, 100
4, 2396160, Note_on_c, 2, 66, 0
4, 2396640, Note_on_c, 2, 59, 100
4, 2396880, Note_on_c, 2, 59, 0
4, 2397360, Note_on_c, 2, 71, 100
4, 2397480, Note_on_c, 2, 71, 0
4, 2397480, Note_on_c, 2, 72, 100
4, 2397600, Note_on_c, 2, 72, 0
4, 2397600, Note_on_c, 2, 71, 100
4, 2397720, Note_on_c, 2, 71, 0
4, 2397720, Note_on_c, 2, 69, 100
4, 2397840, Note_on_c, 2, 69, 0
4, 2397840, Note_on_c, 2, 67, 100
4, 2397960, Note_on_c, 2, 67, 0
4, 2397960, Note_on_c, 2, 66, 100
4, 2398080, Note_on_c, 2, 66, 0
4, 2398080, Note_on_c, 2, 64, 100
4, 2398200, Note_on_c, 2, 64, 0
4, 2398200, Note_on_c, 2, 67, 100
4, 2398320, Note_on_c, 2, 67, 0
4, 2398320, Note_on_c, 2, 71, 100
4, 2398440, Note_on_c, 2, 71, 0
4, 2398440, Note_on_c, 2, 74, 100
4, 2398560, Note_on_c, 2, 74, 0
4, 2398560, Note_on_c, 2, 73, 100
4, 2398680, Note_on_c, 2, 73, 0
4, 2398680, Note_on_c, 2, 71, 100
4, 2398800, Note_on_c, 2, 71, 0
4, 2398800, Note_on_c, 2, 69, 100
4, 2398920, Note_on_c, 2, 69, 0
4, 2398920, Note_on_c, 2, 71, 100
4, 2399040, Note_on_c, 2, 71, 0
4, 2399040, Note_on_c, 2, 69, 100
4, 2399160, Note_on_c, 2, 69, 0
4, 2399160, Note_on_c, 2, 67, 100
4, 2399280, Note_on_c, 2, 67, 0
4, 2399280, Note_on_c, 2, 66, 100
4, 2399400, Note_on_c, 2, 66, 0
4, 2399400, Note_on_c, 2, 64, 100
4, 2399520, Note_on_c, 2, 64, 0
4, 2399520, Note_on_c, 2, 63, 100
4, 2399640, Note_on_c, 2, 63, 0
4, 2399640, Note_on_c, 2, 66, 100
4, 2399760, Note_on_c, 2, 66, 0
4, 2399760, Note_on_c, 2, 69, 100
4, 2399880, Note_on_c, 2, 69, 0
4, 2399880, Note_on_c, 2, 72, 100
4, 2400000, Note_on_c, 2, 72, 0
4, 2400000, Note_on_c, 2, 71, 100
4, 2400120, Note_on_c, 2, 71, 0
4, 2400120, Note_on_c, 2, 69, 100
4, 2400240, Note_on_c, 2, 69, 0
4, 2400240, Note_on_c, 2, 67, 100
4, 2400480, Note_on_c, 2, 67, 0
4, 2400480, Note_on_c, 2, 71, 100
4, 2400540, Note_on_c, 2, 71, 0
4, 2400540, Note_on_c, 2, 69, 100
4, 2400600, Note_on_c, 2, 69, 0
4, 2400600, Note_on_c, 2, 67, 100
4, 2400660, Note_on_c, 2, 67, 0
4, 2400660, Note_on_c, 2, 69, 100
4, 2400720, Note_on_c, 2, 69, 0
4, 2400720, Note_on_c, 2, 71, 100
4, 2401200, Note_on_c, 2, 71, 0
4, 2401200, Note_on_c, 2, 69, 100
4, 2401440, Note_on_c, 2, 69, 0
4, 2401440, Note_on_c, 2, 67, 100
4, 2401800, Note_on_c, 2, 67, 0
4, 2401800, Note_on_c, 2, 66, 100
4, 2401920, Note_on_c, 2, 66, 0
4, 2401920, Note_on_c, 2, 64, 100
4, 2402040, Note_on_c, 2, 64, 0
4, 2402040, Note_on_c, 2, 62, 100
4, 2402160, Note_on_c, 2, 62, 0
4, 2402160, Note_on_c, 2, 64, 100
4, 2402280, Note_on_c, 2, 64, 0
4, 2402280, Note_on_c, 2, 61, 100
4, 2402400, Note_on_c, 2, 61, 0
4, 2402400, Note_on_c, 2, 62, 100
4, 2403120, Note_on_c, 2, 62, 0
4, 2404560, Note_on_c, 2, 69, 100
4, 2404800, Note_on_c, 2, 69, 0
4, 2404800, Note_on_c, 2, 71, 100
4, 2404920, Note_on_c, 2, 71, 0
4, 2404920, Note_on_c, 2, 73, 100
4, 2405040, Note_on_c, 2, 73, 0
4, 2405040, Note_on_c, 2, 74, 100
4, 2405160, Note_on_c, 2, 74, 0
4, 2405160, Note_on_c, 2, 76, 100
4, 2405280, Note_on_c, 2, 76, 0
4, 2405280, Note_on_c, 2, 78, 100
4, 2405400, Note_on_c, 2, 78, 0
4, 2405400, Note_on_c, 2, 76, 100
4, 2405520, Note_on_c, 2, 76, 0
4, 2405520, Note_on_c, 2, 74, 100
4, 2405640, Note_on_c, 2, 74, 0
4, 2405640, Note_on_c, 2, 76, 100
4, 2405760, Note_on_c, 2, 76, 0
4, 2405760, Note_on_c, 2, 78, 100
4, 2406000, Note_on_c, 2, 78, 0
4, 2406000, Note_on_c, 2, 67, 100
4, 2406240, Note_on_c, 2, 67, 0
4, 2406720, Note_on_c, 2, 76, 100
4, 2406960, Note_on_c, 2, 76, 0
4, 2407440, Note_on_c, 2, 66, 100
4, 2407680, Note_on_c, 2, 66, 0
4, 2407680, Note_on_c, 2, 67, 100
4, 2407800, Note_on_c, 2, 67, 0
4, 2407800, Note_on_c, 2, 69, 100
4, 2407920, Note_on_c, 2, 69, 0
4, 2407920, Note_on_c, 2, 71, 100
4, 2408040, Note_on_c, 2, 71, 0
4, 2408040, Note_on_c, 2, 72, 100
4, 2408160, Note_on_c, 2, 72, 0
4, 2408160, Note_on_c, 2, 74, 100
4, 2408280, Note_on_c, 2, 74, 0
4, 2408280, Note_on_c, 2, 76, 100
4, 2408400, Note_on_c, 2, 76, 0
4, 2408400, Note_on_c, 2, 74, 100
4, 2408520, Note_on_c, 2, 74, 0
4, 2408520, Note_on_c, 2, 72, 100
4, 2408640, Note_on_c, 2, 72, 0
4, 2408640, Note_on_c, 2, 74, 100
4, 2408880, Note_on_c, 2, 74, 0
4, 2408880, Note_on_c, 2, 74, 100
4, 2409120, Note_on_c, 2, 74, 0
4, 2409600, Note_on_c, 2, 67, 100
4, 2409840, Note_on_c, 2, 67, 0
4, 2410320, Note_on_c, 2, 72, 100
4, 2410440, Note_on_c, 2, 72, 0
4, 2410440, Note_on_c, 2, 74, 100
4, 2410560, Note_on_c, 2, 74, 0
4, 2410560, Note_on_c, 2, 72, 100
4, 2410680, Note_on_c, 2, 72, 0
4, 2410680, Note_on_c, 2, 71, 100
4, 2410800, Note_on_c, 2, 71, 0
4, 2410800, Note_on_c, 2, 69, 100
4, 2410920, Note_on_c, 2, 69, 0
4, 2410920, Note_on_c, 2, 67, 100
4, 2411040, Note_on_c, 2, 67, 0
4, 2411040, Note_on_c, 2, 66, 100
4, 2411160, Note_on_c, 2, 66, 0
4, 2411160, Note_on_c, 2, 69, 100
4, 2411280, Note_on_c, 2, 69, 0
4, 2411280, Note_on_c, 2, 72, 100
4, 2411400, Note_on_c, 2, 72, 0
4, 2411400, Note_on_c, 2, 76, 100
4, 2411520, Note_on_c, 2, 76, 0
4, 2411520, Note_on_c, 2, 74, 100
4, 2411640, Note_on_c, 2, 74, 0
4, 2411640, Note_on_c, 2, 72, 100
4, 2411760, Note_on_c, 2, 72, 0
4, 2411760, Note_on_c, 2, 71, 100
4, 2411880, Note_on_c, 2, 71, 0
4, 2411880, Note_on_c, 2, 72, 100
4, 2412000, Note_on_c, 2, 72, 0
4, 2412000, Note_on_c, 2, 71, 100
4, 2412120, Note_on_c, 2, 71, 0
4, 2412120, Note_on_c, 2, 69, 100
4, 2412240, Note_on_c, 2, 69, 0
4, 2412240, Note_on_c, 2, 67, 100
4, 2412360, Note_on_c, 2, 67, 0
4, 2412360, Note_on_c, 2, 66, 100
4, 2412480, Note_on_c, 2, 66, 0
4, 2412480, Note_on_c, 2, 64, 100
4, 2412600, Note_on_c, 2, 64, 0
4, 2412600, Note_on_c, 2, 67, 100
4, 2412720, Note_on_c, 2, 67, 0
4, 2412720, Note_on_c, 2, 71, 100
4, 2412840, Note_on_c, 2, 71, 0
4, 2412840, Note_on_c, 2, 74, 100
4, 2412960, Note_on_c, 2, 74, 0
4, 2412960, Note_on_c, 2, 72, 100
4, 2413080, Note_on_c, 2, 72, 0
4, 2413080, Note_on_c, 2, 71, 100
4, 2413200, Note_on_c, 2, 71, 0
4, 2413200, Note_on_c, 2, 69, 100
4, 2413440, Note_on_c, 2, 69, 0
4, 2413440, Note_on_c, 2, 72, 100
4, 2413500, Note_on_c, 2, 72, 0
4, 2413500, Note_on_c, 2, 71, 100
4, 2413560, Note_on_c, 2, 71, 0
4, 2413560, Note_on_c, 2, 69, 100
4, 2413620, Note_on_c, 2, 69, 0
4, 2413620, Note_on_c, 2, 71, 100
4, 2413680, Note_on_c, 2, 71, 0
4, 2413680, Note_on_c, 2, 72, 100
4, 2413920, Note_on_c, 2, 72, 0
4, 2413920, Note_on_c, 2, 62, 100
4, 2414160, Note_on_c, 2, 62, 0
4, 2414160, Note_on_c, 2, 74, 100
4, 2414760, Note_on_c, 2, 74, 0
4, 2414760, Note_on_c, 2, 78, 100
4, 2414880, Note_on_c, 2, 78, 0
4, 2414880, Note_on_c, 2, 76, 100
4, 2415000, Note_on_c, 2, 76, 0
4, 2415000, Note_on_c, 2, 74, 100
4, 2415120, Note_on_c, 2, 74, 0
4, 2415120, Note_on_c, 2, 73, 100
4, 2415240, Note_on_c, 2, 73, 0
4, 2415240, Note_on_c, 2, 71, 100
4, 2415360, Note_on_c, 2, 71, 0
4, 2415360, Note_on_c, 2, 73, 100
4, 2415480, Note_on_c, 2, 73, 0
4, 2415480, Note_on_c, 2, 74, 100
4, 2415600, Note_on_c, 2, 74, 0
4, 2415600, Note_on_c, 2, 76, 100
4, 2415720, Note_on_c, 2, 76, 0
4, 2415720, Note_on_c, 2, 73, 100
4, 2415840, Note_on_c, 2, 73, 0
4, 2415840, Note_on_c, 2, 74, 100
4, 2415960, Note_on_c, 2, 74, 0
4, 2415960, Note_on_c, 2, 76, 100
4, 2416080, Note_on_c, 2, 76, 0
4, 2416080, Note_on_c, 2, 69, 100
4, 2416140, Note_on_c, 2, 69, 0
4, 2416140, Note_on_c, 2, 67, 100
4, 2416200, Note_on_c, 2, 67, 0
4, 2416200, Note_on_c, 2, 69, 100
4, 2417640, Note_on_c, 2, 69, 0
4, 2417640, Note_on_c, 2, 69, 100
4, 2417760, Note_on_c, 2, 69, 0
4, 2417760, Note_on_c, 2, 67, 100
4, 2417880, Note_on_c, 2, 67, 0
4, 2417880, Note_on_c, 2, 66, 100
4, 2418000, Note_on_c, 2, 66, 0
4, 2418000, Note_on_c, 2, 64, 100
4, 2418120, Note_on_c, 2, 64, 0
4, 2418120, Note_on_c, 2, 62, 100
4, 2418240, Note_on_c, 2, 62, 0
4, 2418240, Note_on_c, 2, 61, 100
4, 2418360, Note_on_c, 2, 61, 0
4, 2418360, Note_on_c, 2, 62, 100
4, 2418480, Note_on_c, 2, 62, 0
4, 2418480, Note_on_c, 2, 64, 100
4, 2418600, Note_on_c, 2, 64, 0
4, 2418600, Note_on_c, 2, 62, 100
4, 2418720, Note_on_c, 2, 62, 0
4, 2418720, Note_on_c, 2, 64, 100
4, 2418840, Note_on_c, 2, 64, 0
4, 2418840, Note_on_c, 2, 61, 100
4, 2418960, Note_on_c, 2, 61, 0
4, 2418960, Note_on_c, 2, 66, 100
4, 2419200, Note_on_c, 2, 66, 0
4, 2419680, Note_on_c, 2, 59, 100
4, 2419920, Note_on_c, 2, 59, 0
4, 2420400, Note_on_c, 2, 71, 100
4, 2420520, Note_on_c, 2, 71, 0
4, 2420520, Note_on_c, 2, 72, 100
4, 2420640, Note_on_c, 2, 72, 0
4, 2420640, Note_on_c, 2, 71, 100
4, 2420760, Note_on_c, 2, 71, 0
4, 2420760, Note_on_c, 2, 69, 100
4, 2420880, Note_on_c, 2, 69, 0
4, 2420880, Note_on_c, 2, 67, 100
4, 2421000, Note_on_c, 2, 67, 0
4, 2421000, Note_on_c, 2, 66, 100
4, 2421120, Note_on_c, 2, 66, 0
4, 2421120, Note_on_c, 2, 64, 100
4, 2421240, Note_on_c, 2, 64, 0
4, 2421240, Note_on_c, 2, 67, 100
4, 2421360, Note_on_c, 2, 67, 0
4, 2421360, Note_on_c, 2, 71, 100
4, 2421480, Note_on_c, 2, 71, 0
4, 2421480, Note_on_c, 2, 74, 100
4, 2421600, Note_on_c, 2, 74, 0
4, 2421600, Note_on_c, 2, 73, 100
4, 2421720, Note_on_c, 2, 73, 0
4, 2421720, Note_on_c, 2, 71, 100
4, 2421840, Note_on_c, 2, 71, 0
4, 2421840, Note_on_c, 2, 69, 100
4, 2421960, Note_on_c, 2, 69, 0
4, 2421960, Note_on_c, 2, 71, 100
4, 2422080, Note_on_c, 2, 71, 0
4, 2422080, Note_on_c, 2, 69, 100
4, 2422200, Note_on_c, 2, 69, 0
4, 2422200, Note_on_c, 2, 67, 100
4, 2422320, Note_on_c, 2, 67, 0
4, 2422320, Note_on_c, 2, 66, 100
4, 2422440, Note_on_c, 2, 66, 0
4, 2422440, Note_on_c, 2, 64, 100
4, 2422560, Note_on_c, 2, 64, 0
4, 2422560, Note_on_c, 2, 63, 100
4, 2422680, Note_on_c, 2, 63, 0
4, 2422680, Note_on_c, 2, 66, 100
4, 2422800, Note_on_c, 2, 66, 0
4, 2422800, Note_on_c, 2, 69, 100
4, 2422920, Note_on_c, 2, 69, 0
4, 2422920, Note_on_c, 2, 72, 100
4, 2423040, Note_on_c, 2, 72, 0
4, 2423040, Note_on_c, 2, 71, 100
4, 2423160, Note_on_c, 2, 71, 0
4, 2423160, Note_on_c, 2, 69, 100
4, 2423280, Note_on_c, 2, 69, 0
4, 2423280, Note_on_c, 2, 67, 100
4, 2423520, Note_on_c, 2, 67, 0
4, 2423520, Note_on_c, 2, 71, 100
4, 2423580, Note_on_c, 2, 71, 0
4, 2423580, Note_on_c, 2, 69, 100
4, 2423640, Note_on_c, 2, 69, 0
4, 2423640, Note_on_c, 2, 67, 100
4, 2423700, Note_on_c, 2, 67, 0
4, 2423700, Note_on_c, 2, 69, 100
4, 2423760, Note_on_c, 2, 69, 0
4, 2423760, Note_on_c, 2, 71, 100
4, 2424240, Note_on_c, 2, 71, 0
4, 2424240, Note_on_c, 2, 69, 100
4, 2424480, Note_on_c, 2, 69, 0
4, 2424480, Note_on_c, 2, 67, 100
4, 2424840, Note_on_c, 2, 67, 0
4, 2424840, Note_on_c, 2, 66, 100
4, 2424960, Note_on_c, 2, 66, 0
4, 2424960, Note_on_c, 2, 64, 100
4, 2425080, Note_on_c, 2, 64, 0
4, 2425080, Note_on_c, 2, 62, 100
4, 2425200, Note_on_c, 2, 62, 0
4, 2425200, Note_on_c, 2, 64, 100
4, 2425320, Note_on_c, 2, 64, 0
4, 2425320, Note_on_c, 2, 61, 100
4, 2425440, Note_on_c, 2, 61, 0
4, 2425440, Note_on_c, 2, 62, 100
4, 2426160, Note_on_c, 2, 62, 0
4, 2426160, Note_on_c, 2, 81, 100
4, 2426400, Note_on_c, 2, 81, 0
4, 2426400, Note_on_c, 2, 79, 100
4, 2426520, Note_on_c, 2, 79, 0
4, 2426520, Note_on_c, 2, 78, 100
4, 2426640, Note_on_c, 2, 78, 0
4, 2426640, Note_on_c, 2, 76, 100
4, 2426760, Note_on_c, 2, 76, 0
4, 2426760, Note_on_c, 2, 74, 100
4, 2426880, Note_on_c, 2, 74, 0
4, 2426880, Note_on_c, 2, 72, 100
4, 2427000, Note_on_c, 2, 72, 0
4, 2427000, Note_on_c, 2, 74, 100
4, 2427120, Note_on_c, 2, 74, 0
4, 2427120, Note_on_c, 2, 76, 100
4, 2427240, Note_on_c, 2, 76, 0
4, 2427240, Note_on_c, 2, 74, 100
4, 2427360, Note_on_c, 2, 74, 0
4, 2427360, Note_on_c, 2, 72, 100
4, 2427480, Note_on_c, 2, 72, 0
4, 2427480, Note_on_c, 2, 81, 100
4, 2427600, Note_on_c, 2, 81, 0
4, 2427600, Note_on_c, 2, 71, 100
4, 2427840, Note_on_c, 2, 71, 0
4, 2428320, Note_on_c, 2, 79, 100
4, 2428560, Note_on_c, 2, 79, 0
4, 2429040, Note_on_c, 2, 84, 100
4, 2429160, Note_on_c, 2, 84, 0
4, 2429160, Note_on_c, 2, 86, 100
4, 2429280, Note_on_c, 2, 86, 0
4, 2429280, Note_on_c, 2, 84, 100
4, 2429400, Note_on_c, 2, 84, 0
4, 2429400, Note_on_c, 2, 83, 100
4, 2429520, Note_on_c, 2, 83, 0
4, 2429520, Note_on_c, 2, 81, 100
4, 2429640, Note_on_c, 2, 81, 0
4, 2429640, Note_on_c, 2, 79, 100
4, 2429760, Note_on_c, 2, 79, 0
4, 2429760, Note_on_c, 2, 81, 100
4, 2429880, Note_on_c, 2, 81, 0
4, 2429880, Note_on_c, 2, 83, 100
4, 2430000, Note_on_c, 2, 83, 0
4, 2430000, Note_on_c, 2, 81, 100
4, 2430120, Note_on_c, 2, 81, 0
4, 2430120, Note_on_c, 2, 79, 100
4, 2430240, Note_on_c, 2, 79, 0
4, 2430240, Note_on_c, 2, 78, 100
4, 2430360, Note_on_c, 2, 78, 0
4, 2430360, Note_on_c, 2, 76, 100
4, 2430480, Note_on_c, 2, 76, 0
4, 2430480, Note_on_c, 2, 75, 100
4, 2430720, Note_on_c, 2, 75, 0
4, 2430720, Note_on_c, 2, 78, 100
4, 2430780, Note_on_c, 2, 78, 0
4, 2430780, Note_on_c, 2, 76, 100
4, 2430840, Note_on_c, 2, 76, 0
4, 2430840, Note_on_c, 2, 75, 100
4, 2430900, Note_on_c, 2, 75, 0
4, 2430900, Note_on_c, 2, 76, 100
4, 2430960, Note_on_c, 2, 76, 0
4, 2430960, Note_on_c, 2, 78, 100
4, 2431200, Note_on_c, 2, 78, 0
4, 2431200, Note_on_c, 2, 71, 100
4, 2432040, Note_on_c, 2, 71, 0
4, 2432040, Note_on_c, 2, 69, 100
4, 2432160, Note_on_c, 2, 69, 0
4, 2432160, Note_on_c, 2, 71, 100
4, 2432280, Note_on_c, 2, 71, 0
4, 2432280, Note_on_c, 2, 74, 100
4, 2432400, Note_on_c, 2, 74, 0
4, 2432400, Note_on_c, 2, 72, 100
4, 2432520, Note_on_c, 2, 72, 0
4, 2432520, Note_on_c, 2, 71, 100
4, 2432640, Note_on_c, 2, 71, 0
4, 2432640, Note_on_c, 2, 72, 100
4, 2432760, Note_on_c, 2, 72, 0
4, 2432760, Note_on_c, 2, 77, 100
4, 2432880, Note_on_c, 2, 77, 0
4, 2432880, Note_on_c, 2, 72, 100
4, 2433000, Note_on_c, 2, 72, 0
4, 2433000, Note_on_c, 2, 69, 100
4, 2433120, Note_on_c, 2, 69, 0
4, 2433120, Note_on_c, 2, 65, 100
4, 2433240, Note_on_c, 2, 65, 0
4, 2433240, Note_on_c, 2, 69, 100
4, 2433360, Note_on_c, 2, 69, 0
4, 2433360, Note_on_c, 2, 63, 100
4, 2433480, Note_on_c, 2, 63, 0
4, 2433480, Note_on_c, 2, 64, 100
4, 2433600, Note_on_c, 2, 64, 0
4, 2433600, Note_on_c, 2, 66, 100
4, 2433720, Note_on_c, 2, 66, 0
4, 2433720, Note_on_c, 2, 69, 100
4, 2433840, Note_on_c, 2, 69, 0
4, 2433840, Note_on_c, 2, 67, 100
4, 2433960, Note_on_c, 2, 67, 0
4, 2433960, Note_on_c, 2, 66, 100
4, 2434080, Note_on_c, 2, 66, 0
4, 2434080, Note_on_c, 2, 67, 100
4, 2434320, Note_on_c, 2, 67, 0
4, 2434320, Note_on_c, 2, 69, 100
4, 2434380, Note_on_c, 2, 69, 0
4, 2434380, Note_on_c, 2, 67, 100
4, 2434440, Note_on_c, 2, 67, 0
4, 2434440, Note_on_c, 2, 69, 100
4, 2434500, Note_on_c, 2, 69, 0
4, 2434500, Note_on_c, 2, 67, 100
4, 2434560, Note_on_c, 2, 67, 0
4, 2434560, Note_on_c, 2, 69, 100
4, 2434620, Note_on_c, 2, 69, 0
4, 2434620, Note_on_c, 2, 67, 100
4, 2434680, Note_on_c, 2, 67, 0
4, 2434680, Note_on_c, 2, 66, 100
4, 2434740, Note_on_c, 2, 66, 0
4, 2434740, Note_on_c, 2, 67, 100
4, 2434800, Note_on_c, 2, 67, 0
4, 2434800, Note_on_c, 2, 69, 100
4, 2434920, Note_on_c, 2, 69, 0
4, 2434920, Note_on_c, 2, 71, 100
4, 2435040, Note_on_c, 2, 71, 0
4, 2435040, Note_on_c, 2, 72, 100
4, 2435160, Note_on_c, 2, 72, 0
4, 2435160, Note_on_c, 2, 71, 100
4, 2435280, Note_on_c, 2, 71, 0
4, 2435280, Note_on_c, 2, 69, 100
4, 2435520, Note_on_c, 2, 69, 0
4, 2435520, Note_on_c, 2, 71, 100
4, 2435580, Note_on_c, 2, 71, 0
4, 2435580, Note_on_c, 2, 69, 100
4, 2435640, Note_on_c, 2, 69, 0
4, 2435640, Note_on_c, 2, 67, 100
4, 2435700, Note_on_c, 2, 67, 0
4, 2435700, Note_on_c, 2, 69, 100
4, 2436360, Note_on_c, 2, 69, 0
4, 2436360, Note_on_c, 2, 66, 100
4, 2436480, Note_on_c, 2, 66, 0
4, 2436480, Note_on_c, 2, 67, 100
4, 2436600, Note_on_c, 2, 67, 0
4, 2436600, Note_on_c, 2, 69, 100
4, 2436720, Note_on_c, 2, 69, 0
4, 2436720, Note_on_c, 2, 71, 100
4, 2436840, Note_on_c, 2, 71, 0
4, 2436840, Note_on_c, 2, 72, 100
4, 2436960, Note_on_c, 2, 72, 0
4, 2436960, Note_on_c, 2, 74, 100
4, 2437080, Note_on_c, 2, 74, 0
4, 2437080, Note_on_c, 2, 72, 100
4, 2437200, Note_on_c, 2, 72, 0
4, 2437200, Note_on_c, 2, 71, 100
4, 2437320, Note_on_c, 2, 71, 0
4, 2437320, Note_on_c, 2, 69, 100
4, 2437440, Note_on_c, 2, 69, 0
4, 2437440, Note_on_c, 2, 68, 100
4, 2437560, Note_on_c, 2, 68, 0
4, 2437560, Note_on_c, 2, 66, 100
4, 2437680, Note_on_c, 2, 66, 0
4, 2437680, Note_on_c, 2, 64, 100
4, 2437800, Note_on_c, 2, 64, 0
4, 2437800, Note_on_c, 2, 68, 100
4, 2437920, Note_on_c, 2, 68, 0
4, 2437920, Note_on_c, 2, 69, 100
4, 2438040, Note_on_c, 2, 69, 0
4, 2438040, Note_on_c, 2, 71, 100
4, 2438160, Note_on_c, 2, 71, 0
4, 2438160, Note_on_c, 2, 72, 100
4, 2438280, Note_on_c, 2, 72, 0
4, 2438280, Note_on_c, 2, 74, 100
4, 2438400, Note_on_c, 2, 74, 0
4, 2438400, Note_on_c, 2, 76, 100
4, 2438520, Note_on_c, 2, 76, 0
4, 2438520, Note_on_c, 2, 74, 100
4, 2438640, Note_on_c, 2, 74, 0
4, 2438640, Note_on_c, 2, 72, 100
4, 2438760, Note_on_c, 2, 72, 0
4, 2438760, Note_on_c, 2, 74, 100
4, 2438880, Note_on_c, 2, 74, 0
4, 2438880, Note_on_c, 2, 76, 100
4, 2439120, Note_on_c, 2, 76, 0
4, 2439120, Note_on_c, 2, 69, 100
4, 2439360, Note_on_c, 2, 69, 0
4, 2439840, Note_on_c, 2, 78, 100
4, 2440080, Note_on_c, 2, 78, 0
4, 2440560, Note_on_c, 2, 71, 100
4, 2440800, Note_on_c, 2, 71, 0
4, 2440800, Note_on_c, 2, 72, 100
4, 2440920, Note_on_c, 2, 72, 0
4, 2440920, Note_on_c, 2, 74, 100
4, 2441040, Note_on_c, 2, 74, 0
4, 2441040, Note_on_c, 2, 76, 100
4, 2441160, Note_on_c, 2, 76, 0
4, 2441160, Note_on_c, 2, 78, 100
4, 2441280, Note_on_c, 2, 78, 0
4, 2441280, Note_on_c, 2, 79, 100
4, 2441400, Note_on_c, 2, 79, 0
4, 2441400, Note_on_c, 2, 81, 100
4, 2441520, Note_on_c, 2, 81, 0
4, 2441520, Note_on_c, 2, 79, 100
4, 2441640, Note_on_c, 2, 79, 0
4, 2441640, Note_on_c, 2, 78, 100
4, 2441760, Note_on_c, 2, 78, 0
4, 2441760, Note_on_c, 2, 79, 100
4, 2441880, Note_on_c, 2, 79, 0
4, 2441880, Note_on_c, 2, 76, 100
4, 2442000, Note_on_c, 2, 76, 0
4, 2442000, Note_on_c, 2, 84, 100
4, 2442120, Note_on_c, 2, 84, 0
4, 2442120, Note_on_c, 2, 83, 100
4, 2442240, Note_on_c, 2, 83, 0
4, 2442240, Note_on_c, 2, 81, 100
4, 2442360, Note_on_c, 2, 81, 0
4, 2442360, Note_on_c, 2, 79, 100
4, 2442480, Note_on_c, 2, 79, 0
4, 2442480, Note_on_c, 2, 78, 100
4, 2442600, Note_on_c, 2, 78, 0
4, 2442600, Note_on_c, 2, 76, 100
4, 2442720, Note_on_c, 2, 76, 0
4, 2442720, Note_on_c, 2, 74, 100
4, 2443560, Note_on_c, 2, 74, 0
4, 2443560, Note_on_c, 2, 72, 100
4, 2443680, Note_on_c, 2, 72, 0
4, 2443680, Note_on_c, 2, 74, 100
4, 2443800, Note_on_c, 2, 74, 0
4, 2443800, Note_on_c, 2, 76, 100
4, 2443920, Note_on_c, 2, 76, 0
4, 2443920, Note_on_c, 2, 78, 100
4, 2444040, Note_on_c, 2, 78, 0
4, 2444040, Note_on_c, 2, 79, 100
4, 2444160, Note_on_c, 2, 79, 0
4, 2444160, Note_on_c, 2, 81, 100
4, 2444280, Note_on_c, 2, 81, 0
4, 2444280, Note_on_c, 2, 76, 100
4, 2444400, Note_on_c, 2, 76, 0
4, 2444400, Note_on_c, 2, 72, 100
4, 2444520, Note_on_c, 2, 72, 0
4, 2444520, Note_on_c, 2, 69, 100
4, 2444640, Note_on_c, 2, 69, 0
4, 2444640, Note_on_c, 2, 71, 100
4, 2444760, Note_on_c, 2, 71, 0
4, 2444760, Note_on_c, 2, 72, 100
4, 2444880, Note_on_c, 2, 72, 0
4, 2444880, Note_on_c, 2, 66, 100
4, 2445000, Note_on_c, 2, 66, 0
4, 2445000, Note_on_c, 2, 67, 100
4, 2445120, Note_on_c, 2, 67, 0
4, 2445120, Note_on_c, 2, 69, 100
4, 2445240, Note_on_c, 2, 69, 0
4, 2445240, Note_on_c, 2, 71, 100
4, 2445360, Note_on_c, 2, 71, 0
4, 2445360, Note_on_c, 2, 72, 100
4, 2445480, Note_on_c, 2, 72, 0
4, 2445480, Note_on_c, 2, 69, 100
4, 2445600, Note_on_c, 2, 69, 0
4, 2445600, Note_on_c, 2, 71, 100
4, 2445720, Note_on_c, 2, 71, 0
4, 2445720, Note_on_c, 2, 74, 100
4, 2445840, Note_on_c, 2, 74, 0
4, 2445840, Note_on_c, 2, 79, 100
4, 2446080, Note_on_c, 2, 79, 0
4, 2446560, Note_on_c, 2, 76, 100
4, 2446800, Note_on_c, 2, 76, 0
4, 2446800, Note_on_c, 2, 74, 100
4, 2447040, Note_on_c, 2, 74, 0
4, 2447040, Note_on_c, 2, 72, 100
4, 2447280, Note_on_c, 2, 72, 0
4, 2447280, Note_on_c, 2, 74, 100
4, 2447400, Note_on_c, 2, 74, 0
4, 2447400, Note_on_c, 2, 72, 100
4, 2447520, Note_on_c, 2, 72, 0
4, 2447520, Note_on_c, 2, 71, 100
4, 2447640, Note_on_c, 2, 71, 0
4, 2447640, Note_on_c, 2, 69, 100
4, 2447760, Note_on_c, 2, 69, 0
4, 2447760, Note_on_c, 2, 71, 100
4, 2447880, Note_on_c, 2, 71, 0
4, 2447880, Note_on_c, 2, 74, 100
4, 2448000, Note_on_c, 2, 74, 0
4, 2448000, Note_on_c, 2, 71, 100
4, 2448120, Note_on_c, 2, 71, 0
4, 2448120, Note_on_c, 2, 67, 100
4, 2448240, Note_on_c, 2, 67, 0
4, 2448240, Note_on_c, 2, 69, 100
4, 2448360, Note_on_c, 2, 69, 0
4, 2448360, Note_on_c, 2, 66, 100
4, 2448480, Note_on_c, 2, 66, 0
4, 2448480, Note_on_c, 2, 67, 100
4, 2448540, Note_on_c, 2, 67, 0
4, 2448540, Note_on_c, 2, 66, 100
4, 2448600, Note_on_c, 2, 66, 0
4, 2448600, Note_on_c, 2, 67, 100
4, 2449200, Note_on_c, 2, 67, 0
4, 2449200, Note_on_c, 2, 81, 100
4, 2449440, Note_on_c, 2, 81, 0
4, 2449440, Note_on_c, 2, 79, 100
4, 2449560, Note_on_c, 2, 79, 0
4, 2449560, Note_on_c, 2, 78, 100
4, 2449680, Note_on_c, 2, 78, 0
4, 2449680, Note_on_c, 2, 76, 100
4, 2449800, Note_on_c, 2, 76, 0
4, 2449800, Note_on_c, 2, 74, 100
4, 2449920, Note_on_c, 2, 74, 0
4, 2449920, Note_on_c, 2, 72, 100
4, 2450040, Note_on_c, 2, 72, 0
4, 2450040, Note_on_c, 2, 74, 100
4, 2450160, Note_on_c, 2, 74, 0
4, 2450160, Note_on_c, 2, 76, 100
4, 2450280, Note_on_c, 2, 76, 0
4, 2450280, Note_on_c, 2, 74, 100
4, 2450400, Note_on_c, 2, 74, 0
4, 2450400, Note_on_c, 2, 72, 100
4, 2450520, Note_on_c, 2, 72, 0
4, 2450520, Note_on_c, 2, 81, 100
4, 2450640, Note_on_c, 2, 81, 0
4, 2450640, Note_on_c, 2, 71, 100
4, 2450880, Note_on_c, 2, 71, 0
4, 2451360, Note_on_c, 2, 79, 100
4, 2451600, Note_on_c, 2, 79, 0
4, 2452080, Note_on_c, 2, 84, 100
4, 2452200, Note_on_c, 2, 84, 0
4, 2452200, Note_on_c, 2, 86, 100
4, 2452320, Note_on_c, 2, 86, 0
4, 2452320, Note_on_c, 2, 84, 100
4, 2452440, Note_on_c, 2, 84, 0
4, 2452440, Note_on_c, 2, 83, 100
4, 2452560, Note_on_c, 2, 83, 0
4, 2452560, Note_on_c, 2, 81, 100
4, 2452680, Note_on_c, 2, 81, 0
4, 2452680, Note_on_c, 2, 79, 100
4, 2452800, Note_on_c, 2, 79, 0
4, 2452800, Note_on_c, 2, 81, 100
4, 2452920, Note_on_c, 2, 81, 0
4, 2452920, Note_on_c, 2, 83, 100
4, 2453040, Note_on_c, 2, 83, 0
4, 2453040, Note_on_c, 2, 81, 100
4, 2453160, Note_on_c, 2, 81, 0
4, 2453160, Note_on_c, 2, 79, 100
4, 2453280, Note_on_c, 2, 79, 0
4, 2453280, Note_on_c, 2, 78, 100
4, 2453400, Note_on_c, 2, 78, 0
4, 2453400, Note_on_c, 2, 76, 100
4, 2453520, Note_on_c, 2, 76, 0
4, 2453520, Note_on_c, 2, 75, 100
4, 2453760, Note_on_c, 2, 75, 0
4, 2453760, Note_on_c, 2, 78, 100
4, 2453820, Note_on_c, 2, 78, 0
4, 2453820, Note_on_c, 2, 76, 100
4, 2453880, Note_on_c, 2, 76, 0
4, 2453880, Note_on_c, 2, 75, 100
4, 2453940, Note_on_c, 2, 75, 0
4, 2453940, Note_on_c, 2, 76, 100
4, 2454000, Note_on_c, 2, 76, 0
4, 2454000, Note_on_c, 2, 78, 100
4, 2454240, Note_on_c, 2, 78, 0
4, 2454240, Note_on_c, 2, 71, 100
4, 2455080, Note_on_c, 2, 71, 0
4, 2455080, Note_on_c, 2, 69, 100
4, 2455200, Note_on_c, 2, 69, 0
4, 2455200, Note_on_c, 2, 71, 100
4, 2455320, Note_on_c, 2, 71, 0
4, 2455320, Note_on_c, 2, 74, 100
4, 2455440, Note_on_c, 2, 74, 0
4, 2455440, Note_on_c, 2, 72, 100
4, 2455560, Note_on_c, 2, 72, 0
4, 2455560, Note_on_c, 2, 71, 100
4, 2455680, Note_on_c, 2, 71, 0
4, 2455680, Note_on_c, 2, 72, 100
4, 2455800, Note_on_c, 2, 72, 0
4, 2455800, Note_on_c, 2, 77, 100
4, 2455920, Note_on_c, 2, 77, 0
4, 2455920, Note_on_c, 2, 72, 100
4, 2456040, Note_on_c, 2, 72, 0
4, 2456040, Note_on_c, 2, 69, 100
4, 2456160, Note_on_c, 2, 69, 0
4, 2456160, Note_on_c, 2, 65, 100
4, 2456280, Note_on_c, 2, 65, 0
4, 2456280, Note_on_c, 2, 69, 100
4, 2456400, Note_on_c, 2, 69, 0
4, 2456400, Note_on_c, 2, 63, 100
4, 2456520, Note_on_c, 2, 63, 0
4, 2456520, Note_on_c, 2, 64, 100
4, 2456640, Note_on_c, 2, 64, 0
4, 2456640, Note_on_c, 2, 66, 100
4, 2456760, Note_on_c, 2, 66, 0
4, 2456760, Note_on_c, 2, 69, 100
4, 2456880, Note_on_c, 2, 69, 0
4, 2456880, Note_on_c, 2, 67, 100
4, 2457000, Note_on_c, 2, 67, 0
4, 2457000, Note_on_c, 2, 66, 100
4, 2457120, Note_on_c, 2, 66, 0
4, 2457120, Note_on_c, 2, 67, 100
4, 2457360, Note_on_c, 2, 67, 0
4, 2457360, Note_on_c, 2, 69, 100
4, 2457420, Note_on_c, 2, 69, 0
4, 2457420, Note_on_c, 2, 67, 100
4, 2457480, Note_on_c, 2, 67, 0
4, 2457480, Note_on_c, 2, 69, 100
4, 2457540, Note_on_c, 2, 69, 0
4, 2457540, Note_on_c, 2, 67, 100
4, 2457600, Note_on_c, 2, 67, 0
4, 2457600, Note_on_c, 2, 69, 100
4, 2457660, Note_on_c, 2, 69, 0
4, 2457660, Note_on_c, 2, 67, 100
4, 2457720, Note_on_c, 2, 67, 0
4, 2457720, Note_on_c, 2, 66, 100
4, 2457780, Note_on_c, 2, 66, 0
4, 2457780, Note_on_c, 2, 67, 100
4, 2457840, Note_on_c, 2, 67, 0
4, 2457840, Note_on_c, 2, 69, 100
4, 2457960, Note_on_c, 2, 69, 0
4, 2457960, Note_on_c, 2, 71, 100
4, 2458080, Note_on_c, 2, 71, 0
4, 2458080, Note_on_c, 2, 72, 100
4, 2458200, Note_on_c, 2, 72, 0
4, 2458200, Note_on_c, 2, 71, 100
4, 2458320, Note_on_c, 2, 71, 0
4, 2458320, Note_on_c, 2, 69, 100
4, 2458560, Note_on_c, 2, 69, 0
4, 2458560, Note_on_c, 2, 71, 100
4, 2458620, Note_on_c, 2, 71, 0
4, 2458620, Note_on_c, 2, 69, 100
4, 2458680, Note_on_c, 2, 69, 0
4, 2458680, Note_on_c, 2, 67, 100
4, 2458740, Note_on_c, 2, 67, 0
4, 2458740, Note_on_c, 2, 69, 100
4, 2459400, Note_on_c, 2, 69, 0
4, 2459400, Note_on_c, 2, 66, 100
4, 2459520, Note_on_c, 2, 66, 0
4, 2459520, Note_on_c, 2, 67, 100
4, 2459640, Note_on_c, 2, 67, 0
4, 2459640, Note_on_c, 2, 69, 100
4, 2459760, Note_on_c, 2, 69, 0
4, 2459760, Note_on_c, 2, 71, 100
4, 2459880, Note_on_c, 2, 71, 0
4, 2459880, Note_on_c, 2, 72, 100
4, 2460000, Note_on_c, 2, 72, 0
4, 2460000, Note_on_c, 2, 74, 100
4, 2460120, Note_on_c, 2, 74, 0
4, 2460120, Note_on_c, 2, 72, 100
4, 2460240, Note_on_c, 2, 72, 0
4, 2460240, Note_on_c, 2, 71, 100
4, 2460360, Note_on_c, 2, 71, 0
4, 2460360, Note_on_c, 2, 69, 100
4, 2460480, Note_on_c, 2, 69, 0
4, 2460480, Note_on_c, 2, 68, 100
4, 2460600, Note_on_c, 2, 68, 0
4, 2460600, Note_on_c, 2, 66, 100
4, 2460720, Note_on_c, 2, 66, 0
4, 2460720, Note_on_c, 2, 64, 100
4, 2460840, Note_on_c, 2, 64, 0
4, 2460840, Note_on_c, 2, 68, 100
4, 2460960, Note_on_c, 2, 68, 0
4, 2460960, Note_on_c, 2, 69, 100
4, 2461080, Note_on_c, 2, 69, 0
4, 2461080, Note_on_c, 2, 71, 100
4, 2461200, Note_on_c, 2, 71, 0
4, 2461200, Note_on_c, 2, 72, 100
4, 2461320, Note_on_c, 2, 72, 0
4, 2461320, Note_on_c, 2, 74, 100
4, 2461440, Note_on_c, 2, 74, 0
4, 2461440, Note_on_c, 2, 76, 100
4, 2461560, Note_on_c, 2, 76, 0
4, 2461560, Note_on_c, 2, 74, 100
4, 2461680, Note_on_c, 2, 74, 0
4, 2461680, Note_on_c, 2, 72, 100
4, 2461800, Note_on_c, 2, 72, 0
4, 2461800, Note_on_c, 2, 74, 100
4, 2461920, Note_on_c, 2, 74, 0
4, 2461920, Note_on_c, 2, 76, 100
4, 2462160, Note_on_c, 2, 76, 0
4, 2462160, Note_on_c, 2, 69, 100
4, 2462400, Note_on_c, 2, 69, 0
4, 2462880, Note_on_c, 2, 78, 100
4, 2463120, Note_on_c, 2, 78, 0
4, 2463600, Note_on_c, 2, 71, 100
4, 2463840, Note_on_c, 2, 71, 0
4, 2463840, Note_on_c, 2, 72, 100
4, 2463960, Note_on_c, 2, 72, 0
4, 2463960, Note_on_c, 2, 74, 100
4, 2464080, Note_on_c, 2, 74, 0
4, 2464080, Note_on_c, 2, 76, 100
4, 2464200, Note_on_c, 2, 76, 0
4, 2464200, Note_on_c, 2, 78, 100
4, 2464320, Note_on_c, 2, 78, 0
4, 2464320, Note_on_c, 2, 79, 100
4, 2464440, Note_on_c, 2, 79, 0
4, 2464440, Note_on_c, 2, 81, 100
4, 2464560, Note_on_c, 2, 81, 0
4, 2464560, Note_on_c, 2, 79, 100
4, 2464680, Note_on_c, 2, 79, 0
4, 2464680, Note_on_c, 2, 78, 100
4, 2464800, Note_on_c, 2, 78, 0
4, 2464800, Note_on_c, 2, 79, 100
4, 2464920, Note_on_c, 2, 79, 0
4, 2464920, Note_on_c, 2, 76, 100
4, 2465040, Note_on_c, 2, 76, 0
4, 2465040, Note_on_c, 2, 84, 100
4, 2465160, Note_on_c, 2, 84, 0
4, 2465160, Note_on_c, 2, 83, 100
4, 2465280, Note_on_c, 2, 83, 0
4, 2465280, Note_on_c, 2, 81, 100
4, 2465400, Note_on_c, 2, 81, 0
4, 2465400, Note_on_c, 2, 79, 100
4, 2465520, Note_on_c, 2, 79, 0
4, 2465520, Note_on_c, 2, 78, 100
4, 2465640, Note_on_c, 2, 78, 0
4, 2465640, Note_on_c, 2, 76, 100
4, 2465760, Note_on_c, 2, 76, 0
4, 2465760, Note_on_c, 2, 74, 100
4, 2466600, Note_on_c, 2, 74, 0
4, 2466600, Note_on_c, 2, 72, 100
4, 2466720, Note_on_c, 2, 72, 0
4, 2466720, Note_on_c, 2, 74, 100
4, 2466840, Note_on_c, 2, 74, 0
4, 2466840, Note_on_c, 2, 76, 100
4, 2466960, Note_on_c, 2, 76, 0
4, 2466960, Note_on_c, 2, 78, 100
4, 2467080, Note_on_c, 2, 78, 0
4, 2467080, Note_on_c, 2, 79, 100
4, 2467200, Note_on_c, 2, 79, 0
4, 2467200, Note_on_c, 2, 81, 100
4, 2467320, Note_on_c, 2, 81, 0
4, 2467320, Note_on_c, 2, 76, 100
4, 2467440, Note_on_c, 2, 76, 0
4, 2467440, Note_on_c, 2, 72, 100
4, 2467560, Note_on_c, 2, 72, 0
4, 2467560, Note_on_c, 2, 69, 100
4, 2467680, Note_on_c, 2, 69, 0
4, 2467680, Note_on_c, 2, 71, 100
4, 2467800, Note_on_c, 2, 71, 0
4, 2467800, Note_on_c, 2, 72, 100
4, 2467920, Note_on_c, 2, 72, 0
4, 2467920, Note_on_c, 2, 66, 100
4, 2468040, Note_on_c, 2, 66, 0
4, 2468040, Note_on_c, 2, 67, 100
4, 2468160, Note_on_c, 2, 67, 0
4, 2468160, Note_on_c, 2, 69, 100
4, 2468280, Note_on_c, 2, 69, 0
4, 2468280, Note_on_c, 2, 71, 100
4, 2468400, Note_on_c, 2, 71, 0
4, 2468400, Note_on_c, 2, 72, 100
4, 2468520, Note_on_c, 2, 72, 0
4, 2468520, Note_on_c, 2, 69, 100
4, 2468640, Note_on_c, 2, 69, 0
4, 2468640, Note_on_c, 2, 71, 100
4, 2468760, Note_on_c, 2, 71, 0
4, 2468760, Note_on_c, 2, 74, 100
4, 2468880, Note_on_c, 2, 74, 0
4, 2468880, Note_on_c, 2, 79, 100
4, 2469120, Note_on_c, 2, 79, 0
4, 2469600, Note_on_c, 2, 76, 100
4, 2469840, Note_on_c, 2, 76, 0
4, 2469840, Note_on_c, 2, 74, 100
4, 2470080, Note_on_c, 2, 74, 0
4, 2470080, Note_on_c, 2, 72, 100
4, 2470320, Note_on_c, 2, 72, 0
4, 2470320, Note_on_c, 2, 74, 100
4, 2470440, Note_on_c, 2, 74, 0
4, 2470440, Note_on_c, 2, 72, 100
4, 2470560, Note_on_c, 2, 72, 0
4, 2470560, Note_on_c, 2, 71, 100
4, 2470680, Note_on_c, 2, 71, 0
4, 2470680, Note_on_c, 2, 69, 100
4, 2470800, Note_on_c, 2, 69, 0
4, 2470800, Note_on_c, 2, 71, 100
4, 2470920, Note_on_c, 2, 71, 0
4, 2470920, Note_on_c, 2, 74, 100
4, 2471040, Note_on_c, 2, 74, 0
4, 2471040, Note_on_c, 2, 71, 100
4, 2471160, Note_on_c, 2, 71, 0
4, 2471160, Note_on_c, 2, 67, 100
4, 2471280, Note_on_c, 2, 67, 0
4, 2471280, Note_on_c, 2, 69, 100
4, 2471400, Note_on_c, 2, 69, 0
4, 2471400, Note_on_c, 2, 66, 100
4, 2471520, Note_on_c, 2, 66, 0
4, 2471520, Note_on_c, 2, 67, 100
4, 2471580, Note_on_c, 2, 67, 0
4, 2471580, Note_on_c, 2, 66, 100
4, 2471640, Note_on_c, 2, 66, 0
4, 2471640, Note_on_c, 2, 67, 100
4, 2472240, Note_on_c, 2, 67, 0
4, 2472300, Note_on_c, 2, 74, 100
4, 2472360, Note_on_c, 2, 74, 0
4, 2472360, Note_on_c, 2, 76, 100
4, 2472420, Note_on_c, 2, 76, 0
4, 2472420, Note_on_c, 2, 74, 100
4, 2472480, Note_on_c, 2, 74, 0
4, 2472480, Note_on_c, 2, 76, 100
4, 2472540, Note_on_c, 2, 76, 0
4, 2472540, Note_on_c, 2, 74, 100
4, 2472600, Note_on_c, 2, 74, 0
4, 2472600, Note_on_c, 2, 76, 100
4, 2472660, Note_on_c, 2, 76, 0
4, 2472660, Note_on_c, 2, 74, 100
4, 2472720, Note_on_c, 2, 74, 0
4, 2472780, Note_on_c, 2, 74, 100
4, 2472840, Note_on_c, 2, 74, 0
4, 2472840, Note_on_c, 2, 76, 100
4, 2472900, Note_on_c, 2, 76, 0
4, 2472900, Note_on_c, 2, 74, 100
4, 2472960, Note_on_c, 2, 74, 0
4, 2472960, Note_on_c, 2, 76, 100
4, 2473020, Note_on_c, 2, 76, 0
4, 2473020, Note_on_c, 2, 74, 100
4, 2473080, Note_on_c, 2, 74, 0
4, 2473080, Note_on_c, 2, 76, 100
4, 2473140, Note_on_c, 2, 76, 0
4, 2473140, Note_on_c, 2, 74, 100
4, 2473200, Note_on_c, 2, 74, 0
4, 2473260, Note_on_c, 2, 74, 100
4, 2473320, Note_on_c, 2, 74, 0
4, 2473320, Note_on_c, 2, 76, 100
4, 2473380, Note_on_c, 2, 76, 0
4, 2473380, Note_on_c, 2, 74, 100
4, 2473440, Note_on_c, 2, 74, 0
4, 2473440, Note_on_c, 2, 76, 100
4, 2473500, Note_on_c, 2, 76, 0
4, 2473500, Note_on_c, 2, 74, 100
4, 2473560, Note_on_c, 2, 74, 0
4, 2473560, Note_on_c, 2, 76, 100
4, 2473620, Note_on_c, 2, 76, 0
4, 2473620, Note_on_c, 2, 74, 100
4, 2473680, Note_on_c, 2, 74, 0
4, 2473740, Note_on_c, 2, 74, 100
4, 2473800, Note_on_c, 2, 74, 0
4, 2473800, Note_on_c, 2, 76, 100
4, 2473860, Note_on_c, 2, 76, 0
4, 2473860, Note_on_c, 2, 74, 100
4, 2473920, Note_on_c, 2, 74, 0
4, 2473920, Note_on_c, 2, 76, 100
4, 2473980, Note_on_c, 2, 76, 0
4, 2473980, Note_on_c, 2, 74, 100
4, 2474040, Note_on_c, 2, 74, 0
4, 2474040, Note_on_c, 2, 76, 100
4, 2474100, Note_on_c, 2, 76, 0
4, 2474100, Note_on_c, 2, 74, 100
4, 2474160, Note_on_c, 2, 74, 0
4, 2474220, Note_on_c, 2, 74, 100
4, 2474280, Note_on_c, 2, 74, 0
4, 2474280, Note_on_c, 2, 76, 100
4, 2474340, Note_on_c, 2, 76, 0
4, 2474340, Note_on_c, 2, 74, 100
4, 2474400, Note_on_c, 2, 74, 0
4, 2474400, Note_on_c, 2, 76, 100
4, 2474460, Note_on_c, 2, 76, 0
4, 2474460, Note_on_c, 2, 74, 100
4, 2474520, Note_on_c, 2, 74, 0
4, 2474520, Note_on_c, 2, 76, 100
4, 2474580, Note_on_c, 2, 76, 0
4, 2474580, Note_on_c, 2, 74, 100
4, 2474640, Note_on_c, 2, 74, 0
4, 2474700, Note_on_c, 2, 74, 100
4, 2474760, Note_on_c, 2, 74, 0
4, 2474760, Note_on_c, 2, 76, 100
4, 2474820, Note_on_c, 2, 76, 0
4, 2474820, Note_on_c, 2, 74, 100
4, 2474880, Note_on_c, 2, 74, 0
4, 2474880, Note_on_c, 2, 76, 100
4, 2474940, Note_on_c, 2, 76, 0
4, 2474940, Note_on_c, 2, 74, 100
4, 2475000, Note_on_c, 2, 74, 0
4, 2475000, Note_on_c, 2, 76, 100
4, 2475060, Note_on_c, 2, 76, 0
4, 2475060, Note_on_c, 2, 74, 100
4, 2475120, Note_on_c, 2, 74, 0
4, 2475180, Note_on_c, 2, 74, 100
4, 2475240, Note_on_c, 2, 74, 0
4, 2475240, Note_on_c, 2, 76, 100
4, 2475300, Note_on_c, 2, 76, 0
4, 2475300, Note_on_c, 2, 74, 100
4, 2475360, Note_on_c, 2, 74, 0
4, 2475360, Note_on_c, 2, 76, 100
4, 2475420, Note_on_c, 2, 76, 0
4, 2475420, Note_on_c, 2, 74, 100
4, 2475480, Note_on_c, 2, 74, 0
4, 2475480, Note_on_c, 2, 76, 100
4, 2475540, Note_on_c, 2, 76, 0
4, 2475540, Note_on_c, 2, 74, 100
4, 2475600, Note_on_c, 2, 74, 0
4, 2475660, Note_on_c, 2, 74, 100
4, 2475720, Note_on_c, 2, 74, 0
4, 2475720, Note_on_c, 2, 76, 100
4, 2475780, Note_on_c, 2, 76, 0
4, 2475780, Note_on_c, 2, 74, 100
4, 2475840, Note_on_c, 2, 74, 0
4, 2475840, Note_on_c, 2, 76, 100
4, 2475900, Note_on_c, 2, 76, 0
4, 2475900, Note_on_c, 2, 74, 100
4, 2475960, Note_on_c, 2, 74, 0
4, 2475960, Note_on_c, 2, 76, 100
4, 2476020, Note_on_c, 2, 76, 0
4, 2476020, Note_on_c, 2, 74, 100
4, 2476080, Note_on_c, 2, 74, 0
4, 2476140, Note_on_c, 2, 73, 100
4, 2476200, Note_on_c, 2, 73, 0
4, 2476200, Note_on_c, 2, 74, 100
4, 2476260, Note_on_c, 2, 74, 0
4, 2476260, Note_on_c, 2, 73, 100
4, 2476320, Note_on_c, 2, 73, 0
4, 2476320, Note_on_c, 2, 74, 100
4, 2476380, Note_on_c, 2, 74, 0
4, 2476380, Note_on_c, 2, 73, 100
4, 2476440, Note_on_c, 2, 73, 0
4, 2476440, Note_on_c, 2, 74, 100
4, 2476500, Note_on_c, 2, 74, 0
4, 2476500, Note_on_c, 2, 73, 100
4, 2476560, Note_on_c, 2, 73, 0
4, 2476620, Note_on_c, 2, 74, 100
4, 2476680, Note_on_c, 2, 74, 0
4, 2476680, Note_on_c, 2, 76, 100
4, 2476740, Note_on_c, 2, 76, 0
4, 2476740, Note_on_c, 2, 74, 100
4, 2476800, Note_on_c, 2, 74, 0
4, 2476800, Note_on_c, 2, 76, 100
4, 2476860, Note_on_c, 2, 76, 0
4, 2476860, Note_on_c, 2, 74, 100
4, 2476920, Note_on_c, 2, 74, 0
4, 2476920, Note_on_c, 2, 76, 100
4, 2476980, Note_on_c, 2, 76, 0
4, 2476980, Note_on_c, 2, 74, 100
4, 2477040, Note_on_c, 2, 74, 0
4, 2477100, Note_on_c, 2, 74, 100
4, 2477160, Note_on_c, 2, 74, 0
4, 2477160, Note_on_c, 2, 76, 100
4, 2477220, Note_on_c, 2, 76, 0
4, 2477220, Note_on_c, 2, 74, 100
4, 2477280, Note_on_c, 2, 74, 0
4, 2477280, Note_on_c, 2, 76, 100
4, 2477340, Note_on_c, 2, 76, 0
4, 2477340, Note_on_c, 2, 74, 100
4, 2477400, Note_on_c, 2, 74, 0
4, 2477400, Note_on_c, 2, 76, 100
4, 2477460, Note_on_c, 2, 76, 0
4, 2477460, Note_on_c, 2, 74, 100
4, 2477520, Note_on_c, 2, 74, 0
4, 2477580, Note_on_c, 2, 74, 100
4, 2477640, Note_on_c, 2, 74, 0
4, 2477640, Note_on_c, 2, 76, 100
4, 2477700, Note_on_c, 2, 76, 0
4, 2477700, Note_on_c, 2, 74, 100
4, 2477760, Note_on_c, 2, 74, 0
4, 2477760, Note_on_c, 2, 76, 100
4, 2477820, Note_on_c, 2, 76, 0
4, 2477820, Note_on_c, 2, 74, 100
4, 2477880, Note_on_c, 2, 74, 0
4, 2477880, Note_on_c, 2, 76, 100
4, 2477940, Note_on_c, 2, 76, 0
4, 2477940, Note_on_c, 2, 74, 100
4, 2478000, Note_on_c, 2, 74, 0
4, 2479200, Note_on_c, 2, 71, 100
4, 2479440, Note_on_c, 2, 71, 0
4, 2479440, Note_on_c, 2, 72, 100
4, 2479680, Note_on_c, 2, 72, 0
4, 2480640, Note_on_c, 2, 81, 100
4, 2480880, Note_on_c, 2, 81, 0
4, 2480880, Note_on_c, 2, 83, 100
4, 2481120, Note_on_c, 2, 83, 0
4, 2481120, Note_on_c, 2, 57, 100
4, 2481360, Note_on_c, 2, 57, 0
4, 2481360, Note_on_c, 2, 59, 100
4, 2481600, Note_on_c, 2, 59, 0
4, 2481600, Note_on_c, 2, 52, 100
4, 2481840, Note_on_c, 2, 52, 0
4, 2481840, Note_on_c, 2, 54, 100
4, 2482080, Note_on_c, 2, 54, 0
4, 2482560, Note_on_c, 2, 84, 100
4, 2482800, Note_on_c, 2, 84, 0
4, 2482800, Note_on_c, 2, 83, 100
4, 2483040, Note_on_c, 2, 83, 0
4, 2483040, Note_on_c, 2, 81, 100
4, 2483280, Note_on_c, 2, 81, 0
4, 2483280, Note_on_c, 2, 79, 100
4, 2483520, Note_on_c, 2, 79, 0
4, 2483520, Note_on_c, 2, 69, 100
4, 2483520, Note_on_c, 2, 78, 100
4, 2483760, Note_on_c, 2, 78, 0
4, 2483760, Note_on_c, 2, 69, 0
4, 2483760, Note_on_c, 2, 71, 100
4, 2483760, Note_on_c, 2, 83, 100
4, 2483880, Note_on_c, 2, 83, 0
4, 2483880, Note_on_c, 2, 71, 0
4, 2483880, Note_on_c, 2, 79, 100
4, 2484000, Note_on_c, 2, 79, 0
4, 2484000, Note_on_c, 2, 78, 100
4, 2484120, Note_on_c, 2, 78, 0
4, 2484120, Note_on_c, 2, 79, 100
4, 2484240, Note_on_c, 2, 79, 0
4, 2484240, Note_on_c, 2, 76, 100
4, 2484360, Note_on_c, 2, 76, 0
4, 2484360, Note_on_c, 2, 71, 100
4, 2484480, Note_on_c, 2, 71, 0
4, 2484480, Note_on_c, 2, 69, 100
4, 2484600, Note_on_c, 2, 69, 0
4, 2484600, Note_on_c, 2, 71, 100
4, 2484720, Note_on_c, 2, 71, 0
4, 2484720, Note_on_c, 2, 67, 100
4, 2484840, Note_on_c, 2, 67, 0
4, 2484840, Note_on_c, 2, 71, 100
4, 2484960, Note_on_c, 2, 71, 0
4, 2484960, Note_on_c, 2, 76, 100
4, 2485080, Note_on_c, 2, 76, 0
4, 2485080, Note_on_c, 2, 79, 100
4, 2485200, Note_on_c, 2, 79, 0
4, 2485200, Note_on_c, 2, 81, 100
4, 2485320, Note_on_c, 2, 81, 0
4, 2485320, Note_on_c, 2, 78, 100
4, 2485440, Note_on_c, 2, 78, 0
4, 2485440, Note_on_c, 2, 76, 100
4, 2485560, Note_on_c, 2, 76, 0
4, 2485560, Note_on_c, 2, 78, 100
4, 2485680, Note_on_c, 2, 78, 0
4, 2485680, Note_on_c, 2, 74, 100
4, 2485800, Note_on_c, 2, 74, 0
4, 2485800, Note_on_c, 2, 69, 100
4, 2485920, Note_on_c, 2, 69, 0
4, 2485920, Note_on_c, 2, 67, 100
4, 2486040, Note_on_c, 2, 67, 0
4, 2486040, Note_on_c, 2, 69, 100
4, 2486160, Note_on_c, 2, 69, 0
4, 2486160, Note_on_c, 2, 66, 100
4, 2486280, Note_on_c, 2, 66, 0
4, 2486280, Note_on_c, 2, 69, 100
4, 2486400, Note_on_c, 2, 69, 0
4, 2486400, Note_on_c, 2, 74, 100
4, 2486520, Note_on_c, 2, 74, 0
4, 2486520, Note_on_c, 2, 78, 100
4, 2486640, Note_on_c, 2, 78, 0
4, 2486640, Note_on_c, 2, 79, 100
4, 2486760, Note_on_c, 2, 79, 0
4, 2486760, Note_on_c, 2, 76, 100
4, 2486880, Note_on_c, 2, 76, 0
4, 2486880, Note_on_c, 2, 75, 100
4, 2487000, Note_on_c, 2, 75, 0
4, 2487000, Note_on_c, 2, 76, 100
4, 2487120, Note_on_c, 2, 76, 0
4, 2487120, Note_on_c, 2, 71, 100
4, 2487240, Note_on_c, 2, 71, 0
4, 2487240, Note_on_c, 2, 67, 100
4, 2487360, Note_on_c, 2, 67, 0
4, 2487360, Note_on_c, 2, 66, 100
4, 2487480, Note_on_c, 2, 66, 0
4, 2487480, Note_on_c, 2, 67, 100
4, 2487600, Note_on_c, 2, 67, 0
4, 2487600, Note_on_c, 2, 64, 100
4, 2487720, Note_on_c, 2, 64, 0
4, 2487720, Note_on_c, 2, 67, 100
4, 2487840, Note_on_c, 2, 67, 0
4, 2487840, Note_on_c, 2, 71, 100
4, 2487960, Note_on_c, 2, 71, 0
4, 2487960, Note_on_c, 2, 74, 100
4, 2488080, Note_on_c, 2, 74, 0
4, 2488080, Note_on_c, 2, 73, 100
4, 2488200, Note_on_c, 2, 73, 0
4, 2488200, Note_on_c, 2, 67, 100
4, 2488320, Note_on_c, 2, 67, 0
4, 2488320, Note_on_c, 2, 66, 100
4, 2488440, Note_on_c, 2, 66, 0
4, 2488440, Note_on_c, 2, 67, 100
4, 2488560, Note_on_c, 2, 67, 0
4, 2488560, Note_on_c, 2, 64, 100
4, 2488680, Note_on_c, 2, 64, 0
4, 2488680, Note_on_c, 2, 61, 100
4, 2488800, Note_on_c, 2, 61, 0
4, 2488800, Note_on_c, 2, 59, 100
4, 2488920, Note_on_c, 2, 59, 0
4, 2488920, Note_on_c, 2, 61, 100
4, 2489040, Note_on_c, 2, 61, 0
4, 2489040, Note_on_c, 2, 57, 100
4, 2489160, Note_on_c, 2, 57, 0
4, 2489160, Note_on_c, 2, 61, 100
4, 2489280, Note_on_c, 2, 61, 0
4, 2489280, Note_on_c, 2, 64, 100
4, 2489400, Note_on_c, 2, 64, 0
4, 2489400, Note_on_c, 2, 67, 100
4, 2489520, Note_on_c, 2, 67, 0
4, 2489580, Note_on_c, 2, 62, 100
4, 2489640, Note_on_c, 2, 62, 0
4, 2489640, Note_on_c, 2, 64, 100
4, 2489700, Note_on_c, 2, 64, 0
4, 2489700, Note_on_c, 2, 62, 100
4, 2489760, Note_on_c, 2, 62, 0
4, 2489760, Note_on_c, 2, 64, 100
4, 2489820, Note_on_c, 2, 64, 0
4, 2489820, Note_on_c, 2, 62, 100
4, 2489880, Note_on_c, 2, 62, 0
4, 2489880, Note_on_c, 2, 64, 100
4, 2489940, Note_on_c, 2, 64, 0
4, 2489940, Note_on_c, 2, 62, 100
4, 2490000, Note_on_c, 2, 62, 0
4, 2490060, Note_on_c, 2, 62, 100
4, 2490120, Note_on_c, 2, 62, 0
4, 2490120, Note_on_c, 2, 64, 100
4, 2490180, Note_on_c, 2, 64, 0
4, 2490180, Note_on_c, 2, 62, 100
4, 2490240, Note_on_c, 2, 62, 0
4, 2490240, Note_on_c, 2, 64, 100
4, 2490300, Note_on_c, 2, 64, 0
4, 2490300, Note_on_c, 2, 62, 100
4, 2490360, Note_on_c, 2, 62, 0
4, 2490360, Note_on_c, 2, 64, 100
4, 2490420, Note_on_c, 2, 64, 0
4, 2490420, Note_on_c, 2, 62, 100
4, 2490480, Note_on_c, 2, 62, 0
4, 2490540, Note_on_c, 2, 62, 100
4, 2490600, Note_on_c, 2, 62, 0
4, 2490600, Note_on_c, 2, 64, 100
4, 2490660, Note_on_c, 2, 64, 0
4, 2490660, Note_on_c, 2, 62, 100
4, 2490720, Note_on_c, 2, 62, 0
4, 2490720, Note_on_c, 2, 64, 100
4, 2490780, Note_on_c, 2, 64, 0
4, 2490780, Note_on_c, 2, 62, 100
4, 2490840, Note_on_c, 2, 62, 0
4, 2490840, Note_on_c, 2, 64, 100
4, 2490900, Note_on_c, 2, 64, 0
4, 2490900, Note_on_c, 2, 62, 100
4, 2490960, Note_on_c, 2, 62, 0
4, 2491020, Note_on_c, 2, 62, 100
4, 2491080, Note_on_c, 2, 62, 0
4, 2491080, Note_on_c, 2, 64, 100
4, 2491140, Note_on_c, 2, 64, 0
4, 2491140, Note_on_c, 2, 62, 100
4, 2491200, Note_on_c, 2, 62, 0
4, 2491200, Note_on_c, 2, 64, 100
4, 2491260, Note_on_c, 2, 64, 0
4, 2491260, Note_on_c, 2, 62, 100
4, 2491320, Note_on_c, 2, 62, 0
4, 2491320, Note_on_c, 2, 64, 100
4, 2491380, Note_on_c, 2, 64, 0
4, 2491380, Note_on_c, 2, 62, 100
4, 2491440, Note_on_c, 2, 62, 0
4, 2491500, Note_on_c, 2, 62, 100
4, 2491560, Note_on_c, 2, 62, 0
4, 2491560, Note_on_c, 2, 64, 100
4, 2491620, Note_on_c, 2, 64, 0
4, 2491620, Note_on_c, 2, 62, 100
4, 2491680, Note_on_c, 2, 62, 0
4, 2491680, Note_on_c, 2, 64, 100
4, 2491740, Note_on_c, 2, 64, 0
4, 2491740, Note_on_c, 2, 62, 100
4, 2491800, Note_on_c, 2, 62, 0
4, 2491800, Note_on_c, 2, 64, 100
4, 2491860, Note_on_c, 2, 64, 0
4, 2491860, Note_on_c, 2, 62, 100
4, 2491920, Note_on_c, 2, 62, 0
4, 2491980, Note_on_c, 2, 62, 100
4, 2492040, Note_on_c, 2, 62, 0
4, 2492040, Note_on_c, 2, 64, 100
4, 2492100, Note_on_c, 2, 64, 0
4, 2492100, Note_on_c, 2, 62, 100
4, 2492160, Note_on_c, 2, 62, 0
4, 2492160, Note_on_c, 2, 64, 100
4, 2492220, Note_on_c, 2, 64, 0
4, 2492220, Note_on_c, 2, 62, 100
4, 2492280, Note_on_c, 2, 62, 0
4, 2492280, Note_on_c, 2, 64, 100
4, 2492340, Note_on_c, 2, 64, 0
4, 2492340, Note_on_c, 2, 62, 100
4, 2492400, Note_on_c, 2, 62, 0
4, 2492460, Note_on_c, 2, 62, 100
4, 2492520, Note_on_c, 2, 62, 0
4, 2492520, Note_on_c, 2, 64, 100
4, 2492580, Note_on_c, 2, 64, 0
4, 2492580, Note_on_c, 2, 62, 100
4, 2492640, Note_on_c, 2, 62, 0
4, 2492640, Note_on_c, 2, 64, 100
4, 2492700, Note_on_c, 2, 64, 0
4, 2492700, Note_on_c, 2, 62, 100
4, 2492760, Note_on_c, 2, 62, 0
4, 2492760, Note_on_c, 2, 64, 100
4, 2492820, Note_on_c, 2, 64, 0
4, 2492820, Note_on_c, 2, 62, 100
4, 2492880, Note_on_c, 2, 62, 0
4, 2492940, Note_on_c, 2, 62, 100
4, 2493000, Note_on_c, 2, 62, 0
4, 2493000, Note_on_c, 2, 64, 100
4, 2493060, Note_on_c, 2, 64, 0
4, 2493060, Note_on_c, 2, 62, 100
4, 2493120, Note_on_c, 2, 62, 0
4, 2493120, Note_on_c, 2, 64, 100
4, 2493180, Note_on_c, 2, 64, 0
4, 2493180, Note_on_c, 2, 62, 100
4, 2493240, Note_on_c, 2, 62, 0
4, 2493240, Note_on_c, 2, 64, 100
4, 2493300, Note_on_c, 2, 64, 0
4, 2493300, Note_on_c, 2, 62, 100
4, 2493360, Note_on_c, 2, 62, 0
4, 2493420, Note_on_c, 2, 61, 100
4, 2493480, Note_on_c, 2, 61, 0
4, 2493480, Note_on_c, 2, 62, 100
4, 2493540, Note_on_c, 2, 62, 0
4, 2493540, Note_on_c, 2, 61, 100
4, 2493600, Note_on_c, 2, 61, 0
4, 2493600, Note_on_c, 2, 62, 100
4, 2493660, Note_on_c, 2, 62, 0
4, 2493660, Note_on_c, 2, 61, 100
4, 2493720, Note_on_c, 2, 61, 0
4, 2493720, Note_on_c, 2, 62, 100
4, 2493780, Note_on_c, 2, 62, 0
4, 2493780, Note_on_c, 2, 61, 100
4, 2493840, Note_on_c, 2, 61, 0
4, 2493840, Note_on_c, 2, 66, 100
4, 2493960, Note_on_c, 2, 66, 0
4, 2493960, Note_on_c, 2, 62, 100
4, 2494080, Note_on_c, 2, 62, 0
4, 2494080, Note_on_c, 2, 61, 100
4, 2494200, Note_on_c, 2, 61, 0
4, 2494200, Note_on_c, 2, 62, 100
4, 2494320, Note_on_c, 2, 62, 0
4, 2494320, Note_on_c, 2, 57, 100
4, 2494440, Note_on_c, 2, 57, 0
4, 2494440, Note_on_c, 2, 54, 100
4, 2494560, Note_on_c, 2, 54, 0
4, 2494560, Note_on_c, 2, 52, 100
4, 2494680, Note_on_c, 2, 52, 0
4, 2494680, Note_on_c, 2, 54, 100
4, 2494800, Note_on_c, 2, 54, 0
4, 2494800, Note_on_c, 2, 50, 100
4, 2495280, Note_on_c, 2, 50, 0
4, 2495340, Note_on_c, 2, 74, 100
4, 2495400, Note_on_c, 2, 74, 0
4, 2495400, Note_on_c, 2, 76, 100
4, 2495460, Note_on_c, 2, 76, 0
4, 2495460, Note_on_c, 2, 74, 100
4, 2495520, Note_on_c, 2, 74, 0
4, 2495520, Note_on_c, 2, 76, 100
4, 2495580, Note_on_c, 2, 76, 0
4, 2495580, Note_on_c, 2, 74, 100
4, 2495640, Note_on_c, 2, 74, 0
4, 2495640, Note_on_c, 2, 76, 100
4, 2495700, Note_on_c, 2, 76, 0
4, 2495700, Note_on_c, 2, 74, 100
4, 2495760, Note_on_c, 2, 74, 0
4, 2495820, Note_on_c, 2, 74, 100
4, 2495880, Note_on_c, 2, 74, 0
4, 2495880, Note_on_c, 2, 76, 100
4, 2495940, Note_on_c, 2, 76, 0
4, 2495940, Note_on_c, 2, 74, 100
4, 2496000, Note_on_c, 2, 74, 0
4, 2496000, Note_on_c, 2, 76, 100
4, 2496060, Note_on_c, 2, 76, 0
4, 2496060, Note_on_c, 2, 74, 100
4, 2496120, Note_on_c, 2, 74, 0
4, 2496120, Note_on_c, 2, 76, 100
4, 2496180, Note_on_c, 2, 76, 0
4, 2496180, Note_on_c, 2, 74, 100
4, 2496240, Note_on_c, 2, 74, 0
4, 2496300, Note_on_c, 2, 74, 100
4, 2496360, Note_on_c, 2, 74, 0
4, 2496360, Note_on_c, 2, 76, 100
4, 2496420, Note_on_c, 2, 76, 0
4, 2496420, Note_on_c, 2, 74, 100
4, 2496480, Note_on_c, 2, 74, 0
4, 2496480, Note_on_c, 2, 76, 100
4, 2496540, Note_on_c, 2, 76, 0
4, 2496540, Note_on_c, 2, 74, 100
4, 2496600, Note_on_c, 2, 74, 0
4, 2496600, Note_on_c, 2, 76, 100
4, 2496660, Note_on_c, 2, 76, 0
4, 2496660, Note_on_c, 2, 74, 100
4, 2496720, Note_on_c, 2, 74, 0
4, 2496780, Note_on_c, 2, 74, 100
4, 2496840, Note_on_c, 2, 74, 0
4, 2496840, Note_on_c, 2, 76, 100
4, 2496900, Note_on_c, 2, 76, 0
4, 2496900, Note_on_c, 2, 74, 100
4, 2496960, Note_on_c, 2, 74, 0
4, 2496960, Note_on_c, 2, 76, 100
4, 2497020, Note_on_c, 2, 76, 0
4, 2497020, Note_on_c, 2, 74, 100
4, 2497080, Note_on_c, 2, 74, 0
4, 2497080, Note_on_c, 2, 76, 100
4, 2497140, Note_on_c, 2, 76, 0
4, 2497140, Note_on_c, 2, 74, 100
4, 2497200, Note_on_c, 2, 74, 0
4, 2497260, Note_on_c, 2, 74, 100
4, 2497320, Note_on_c, 2, 74, 0
4, 2497320, Note_on_c, 2, 76, 100
4, 2497380, Note_on_c, 2, 76, 0
4, 2497380, Note_on_c, 2, 74, 100
4, 2497440, Note_on_c, 2, 74, 0
4, 2497440, Note_on_c, 2, 76, 100
4, 2497500, Note_on_c, 2, 76, 0
4, 2497500, Note_on_c, 2, 74, 100
4, 2497560, Note_on_c, 2, 74, 0
4, 2497560, Note_on_c, 2, 76, 100
4, 2497620, Note_on_c, 2, 76, 0
4, 2497620, Note_on_c, 2, 74, 100
4, 2497680, Note_on_c, 2, 74, 0
4, 2497740, Note_on_c, 2, 74, 100
4, 2497800, Note_on_c, 2, 74, 0
4, 2497800, Note_on_c, 2, 76, 100
4, 2497860, Note_on_c, 2, 76, 0
4, 2497860, Note_on_c, 2, 74, 100
4, 2497920, Note_on_c, 2, 74, 0
4, 2497920, Note_on_c, 2, 76, 100
4, 2497980, Note_on_c, 2, 76, 0
4, 2497980, Note_on_c, 2, 74, 100
4, 2498040, Note_on_c, 2, 74, 0
4, 2498040, Note_on_c, 2, 76, 100
4, 2498100, Note_on_c, 2, 76, 0
4, 2498100, Note_on_c, 2, 74, 100
4, 2498160, Note_on_c, 2, 74, 0
4, 2498220, Note_on_c, 2, 74, 100
4, 2498280, Note_on_c, 2, 74, 0
4, 2498280, Note_on_c, 2, 76, 100
4, 2498340, Note_on_c, 2, 76, 0
4, 2498340, Note_on_c, 2, 74, 100
4, 2498400, Note_on_c, 2, 74, 0
4, 2498400, Note_on_c, 2, 76, 100
4, 2498460, Note_on_c, 2, 76, 0
4, 2498460, Note_on_c, 2, 74, 100
4, 2498520, Note_on_c, 2, 74, 0
4, 2498520, Note_on_c, 2, 76, 100
4, 2498580, Note_on_c, 2, 76, 0
4, 2498580, Note_on_c, 2, 74, 100
4, 2498640, Note_on_c, 2, 74, 0
4, 2498700, Note_on_c, 2, 74, 100
4, 2498760, Note_on_c, 2, 74, 0
4, 2498760, Note_on_c, 2, 76, 100
4, 2498820, Note_on_c, 2, 76, 0
4, 2498820, Note_on_c, 2, 74, 100
4, 2498880, Note_on_c, 2, 74, 0
4, 2498880, Note_on_c, 2, 76, 100
4, 2498940, Note_on_c, 2, 76, 0
4, 2498940, Note_on_c, 2, 74, 100
4, 2499000, Note_on_c, 2, 74, 0
4, 2499000, Note_on_c, 2, 76, 100
4, 2499060, Note_on_c, 2, 76, 0
4, 2499060, Note_on_c, 2, 74, 100
4, 2499120, Note_on_c, 2, 74, 0
4, 2499180, Note_on_c, 2, 73, 100
4, 2499240, Note_on_c, 2, 73, 0
4, 2499240, Note_on_c, 2, 74, 100
4, 2499300, Note_on_c, 2, 74, 0
4, 2499300, Note_on_c, 2, 73, 100
4, 2499360, Note_on_c, 2, 73, 0
4, 2499360, Note_on_c, 2, 74, 100
4, 2499420, Note_on_c, 2, 74, 0
4, 2499420, Note_on_c, 2, 73, 100
4, 2499480, Note_on_c, 2, 73, 0
4, 2499480, Note_on_c, 2, 74, 100
4, 2499540, Note_on_c, 2, 74, 0
4, 2499540, Note_on_c, 2, 73, 100
4, 2499600, Note_on_c, 2, 73, 0
4, 2499660, Note_on_c, 2, 74, 100
4, 2499720, Note_on_c, 2, 74, 0
4, 2499720, Note_on_c, 2, 76, 100
4, 2499780, Note_on_c, 2, 76, 0
4, 2499780, Note_on_c, 2, 74, 100
4, 2499840, Note_on_c, 2, 74, 0
4, 2499840, Note_on_c, 2, 76, 100
4, 2499900, Note_on_c, 2, 76, 0
4, 2499900, Note_on_c, 2, 74, 100
4, 2499960, Note_on_c, 2, 74, 0
4, 2499960, Note_on_c, 2, 76, 100
4, 2500020, Note_on_c, 2, 76, 0
4, 2500020, Note_on_c, 2, 74, 100
4, 2500080, Note_on_c, 2, 74, 0
4, 2500140, Note_on_c, 2, 74, 100
4, 2500200, Note_on_c, 2, 74, 0
4, 2500200, Note_on_c, 2, 76, 100
4, 2500260, Note_on_c, 2, 76, 0
4, 2500260, Note_on_c, 2, 74, 100
4, 2500320, Note_on_c, 2, 74, 0
4, 2500320, Note_on_c, 2, 76, 100
4, 2500380, Note_on_c, 2, 76, 0
4, 2500380, Note_on_c, 2, 74, 100
4, 2500440, Note_on_c, 2, 74, 0
4, 2500440, Note_on_c, 2, 76, 100
4, 2500500, Note_on_c, 2, 76, 0
4, 2500500, Note_on_c, 2, 74, 100
4, 2500560, Note_on_c, 2, 74, 0
4, 2500620, Note_on_c, 2, 74, 100
4, 2500680, Note_on_c, 2, 74, 0
4, 2500680, Note_on_c, 2, 76, 100
4, 2500740, Note_on_c, 2, 76, 0
4, 2500740, Note_on_c, 2, 74, 100
4, 2500800, Note_on_c, 2, 74, 0
4, 2500800, Note_on_c, 2, 76, 100
4, 2500860, Note_on_c, 2, 76, 0
4, 2500860, Note_on_c, 2, 74, 100
4, 2500920, Note_on_c, 2, 74, 0
4, 2500920, Note_on_c, 2, 76, 100
4, 2500980, Note_on_c, 2, 76, 0
4, 2500980, Note_on_c, 2, 74, 100
4, 2501040, Note_on_c, 2, 74, 0
4, 2502240, Note_on_c, 2, 71, 100
4, 2502480, Note_on_c, 2, 71, 0
4, 2502480, Note_on_c, 2, 72, 100
4, 2502720, Note_on_c, 2, 72, 0
4, 2503680, Note_on_c, 2, 81, 100
4, 2503920, Note_on_c, 2, 81, 0
4, 2503920, Note_on_c, 2, 83, 100
4, 2504160, Note_on_c, 2, 83, 0
4, 2504160, Note_on_c, 2, 57, 100
4, 2504400, Note_on_c, 2, 57, 0
4, 2504400, Note_on_c, 2, 59, 100
4, 2504640, Note_on_c, 2, 59, 0
4, 2504640, Note_on_c, 2, 52, 100
4, 2504880, Note_on_c, 2, 52, 0
4, 2504880, Note_on_c, 2, 54, 100
4, 2505120, Note_on_c, 2, 54, 0
4, 2505600, Note_on_c, 2, 84, 100
4, 2505840, Note_on_c, 2, 84, 0
4, 2505840, Note_on_c, 2, 83, 100
4, 2506080, Note_on_c, 2, 83, 0
4, 2506080, Note_on_c, 2, 81, 100
4, 2506320, Note_on_c, 2, 81, 0
4, 2506320, Note_on_c, 2, 79, 100
4, 2506560, Note_on_c, 2, 79, 0
4, 2506560, Note_on_c, 2, 69, 100
4, 2506560, Note_on_c, 2, 78, 100
4, 2506800, Note_on_c, 2, 78, 0
4, 2506800, Note_on_c, 2, 69, 0
4, 2506800, Note_on_c, 2, 71, 100
4, 2506800, Note_on_c, 2, 83, 100
4, 2506920, Note_on_c, 2, 83, 0
4, 2506920, Note_on_c, 2, 71, 0
4, 2506920, Note_on_c, 2, 79, 100
4, 2507040, Note_on_c, 2, 79, 0
4, 2507040, Note_on_c, 2, 78, 100
4, 2507160, Note_on_c, 2, 78, 0
4, 2507160, Note_on_c, 2, 79, 100
4, 2507280, Note_on_c, 2, 79, 0
4, 2507280, Note_on_c, 2, 76, 100
4, 2507400, Note_on_c, 2, 76, 0
4, 2507400, Note_on_c, 2, 71, 100
4, 2507520, Note_on_c, 2, 71, 0
4, 2507520, Note_on_c, 2, 69, 100
4, 2507640, Note_on_c, 2, 69, 0
4, 2507640, Note_on_c, 2, 71, 100
4, 2507760, Note_on_c, 2, 71, 0
4, 2507760, Note_on_c, 2, 67, 100
4, 2507880, Note_on_c, 2, 67, 0
4, 2507880, Note_on_c, 2, 71, 100
4, 2508000, Note_on_c, 2, 71, 0
4, 2508000, Note_on_c, 2, 76, 100
4, 2508120, Note_on_c, 2, 76, 0
4, 2508120, Note_on_c, 2, 79, 100
4, 2508240, Note_on_c, 2, 79, 0
4, 2508240, Note_on_c, 2, 81, 100
4, 2508360, Note_on_c, 2, 81, 0
4, 2508360, Note_on_c, 2, 78, 100
4, 2508480, Note_on_c, 2, 78, 0
4, 2508480, Note_on_c, 2, 76, 100
4, 2508600, Note_on_c, 2, 76, 0
4, 2508600, Note_on_c, 2, 78, 100
4, 2508720, Note_on_c, 2, 78, 0
4, 2508720, Note_on_c, 2, 74, 100
4, 2508840, Note_on_c, 2, 74, 0
4, 2508840, Note_on_c, 2, 69, 100
4, 2508960, Note_on_c, 2, 69, 0
4, 2508960, Note_on_c, 2, 67, 100
4, 2509080, Note_on_c, 2, 67, 0
4, 2509080, Note_on_c, 2, 69, 100
4, 2509200, Note_on_c, 2, 69, 0
4, 2509200, Note_on_c, 2, 66, 100
4, 2509320, Note_on_c, 2, 66, 0
4, 2509320, Note_on_c, 2, 69, 100
4, 2509440, Note_on_c, 2, 69, 0
4, 2509440, Note_on_c, 2, 74, 100
4, 2509560, Note_on_c, 2, 74, 0
4, 2509560, Note_on_c, 2, 78, 100
4, 2509680, Note_on_c, 2, 78, 0
4, 2509680, Note_on_c, 2, 79, 100
4, 2509800, Note_on_c, 2, 79, 0
4, 2509800, Note_on_c, 2, 76, 100
4, 2509920, Note_on_c, 2, 76, 0
4, 2509920, Note_on_c, 2, 75, 100
4, 2510040, Note_on_c, 2, 75, 0
4, 2510040, Note_on_c, 2, 76, 100
4, 2510160, Note_on_c, 2, 76, 0
4, 2510160, Note_on_c, 2, 71, 100
4, 2510280, Note_on_c, 2, 71, 0
4, 2510280, Note_on_c, 2, 67, 100
4, 2510400, Note_on_c, 2, 67, 0
4, 2510400, Note_on_c, 2, 66, 100
4, 2510520, Note_on_c, 2, 66, 0
4, 2510520, Note_on_c, 2, 67, 100
4, 2510640, Note_on_c, 2, 67, 0
4, 2510640, Note_on_c, 2, 64, 100
4, 2510760, Note_on_c, 2, 64, 0
4, 2510760, Note_on_c, 2, 67, 100
4, 2510880, Note_on_c, 2, 67, 0
4, 2510880, Note_on_c, 2, 71, 100
4, 2511000, Note_on_c, 2, 71, 0
4, 2511000, Note_on_c, 2, 74, 100
4, 2511120, Note_on_c, 2, 74, 0
4, 2511120, Note_on_c, 2, 73, 100
4, 2511240, Note_on_c, 2, 73, 0
4, 2511240, Note_on_c, 2, 67, 100
4, 2511360, Note_on_c, 2, 67, 0
4, 2511360, Note_on_c, 2, 66, 100
4, 2511480, Note_on_c, 2, 66, 0
4, 2511480, Note_on_c, 2, 67, 100
4, 2511600, Note_on_c, 2, 67, 0
4, 2511600, Note_on_c, 2, 64, 100
4, 2511720, Note_on_c, 2, 64, 0
4, 2511720, Note_on_c, 2, 61, 100
4, 2511840, Note_on_c, 2, 61, 0
4, 2511840, Note_on_c, 2, 59, 100
4, 2511960, Note_on_c, 2, 59, 0
4, 2511960, Note_on_c, 2, 61, 100
4, 2512080, Note_on_c, 2, 61, 0
4, 2512080, Note_on_c, 2, 57, 100
4, 2512200, Note_on_c, 2, 57, 0
4, 2512200, Note_on_c, 2, 61, 100
4, 2512320, Note_on_c, 2, 61, 0
4, 2512320, Note_on_c, 2, 64, 100
4, 2512440, Note_on_c, 2, 64, 0
4, 2512440, Note_on_c, 2, 67, 100
4, 2512560, Note_on_c, 2, 67, 0
4, 2512620, Note_on_c, 2, 62, 100
4, 2512680, Note_on_c, 2, 62, 0
4, 2512680, Note_on_c, 2, 64, 100
4, 2512740, Note_on_c, 2, 64, 0
4, 2512740, Note_on_c, 2, 62, 100
4, 2512800, Note_on_c, 2, 62, 0
4, 2512800, Note_on_c, 2, 64, 100
4, 2512860, Note_on_c, 2, 64, 0
4, 2512860, Note_on_c, 2, 62, 100
4, 2512920, Note_on_c, 2, 62, 0
4, 2512920, Note_on_c, 2, 64, 100
4, 2512980, Note_on_c, 2, 64, 0
4, 2512980, Note_on_c, 2, 62, 100
4, 2513040, Note_on_c, 2, 62, 0
4, 2513100, Note_on_c, 2, 62, 100
4, 2513160, Note_on_c, 2, 62, 0
4, 2513160, Note_on_c, 2, 64, 100
4, 2513220, Note_on_c, 2, 64, 0
4, 2513220, Note_on_c, 2, 62, 100
4, 2513280, Note_on_c, 2, 62, 0
4, 2513280, Note_on_c, 2, 64, 100
4, 2513340, Note_on_c, 2, 64, 0
4, 2513340, Note_on_c, 2, 62, 100
4, 2513400, Note_on_c, 2, 62, 0
4, 2513400, Note_on_c, 2, 64, 100
4, 2513460, Note_on_c, 2, 64, 0
4, 2513460, Note_on_c, 2, 62, 100
4, 2513520, Note_on_c, 2, 62, 0
4, 2513580, Note_on_c, 2, 62, 100
4, 2513640, Note_on_c, 2, 62, 0
4, 2513640, Note_on_c, 2, 64, 100
4, 2513700, Note_on_c, 2, 64, 0
4, 2513700, Note_on_c, 2, 62, 100
4, 2513760, Note_on_c, 2, 62, 0
4, 2513760, Note_on_c, 2, 64, 100
4, 2513820, Note_on_c, 2, 64, 0
4, 2513820, Note_on_c, 2, 62, 100
4, 2513880, Note_on_c, 2, 62, 0
4, 2513880, Note_on_c, 2, 64, 100
4, 2513940, Note_on_c, 2, 64, 0
4, 2513940, Note_on_c, 2, 62, 100
4, 2514000, Note_on_c, 2, 62, 0
4, 2514060, Note_on_c, 2, 62, 100
4, 2514120, Note_on_c, 2, 62, 0
4, 2514120, Note_on_c, 2, 64, 100
4, 2514180, Note_on_c, 2, 64, 0
4, 2514180, Note_on_c, 2, 62, 100
4, 2514240, Note_on_c, 2, 62, 0
4, 2514240, Note_on_c, 2, 64, 100
4, 2514300, Note_on_c, 2, 64, 0
4, 2514300, Note_on_c, 2, 62, 100
4, 2514360, Note_on_c, 2, 62, 0
4, 2514360, Note_on_c, 2, 64, 100
4, 2514420, Note_on_c, 2, 64, 0
4, 2514420, Note_on_c, 2, 62, 100
4, 2514480, Note_on_c, 2, 62, 0
4, 2514540, Note_on_c, 2, 62, 100
4, 2514600, Note_on_c, 2, 62, 0
4, 2514600, Note_on_c, 2, 64, 100
4, 2514660, Note_on_c, 2, 64, 0
4, 2514660, Note_on_c, 2, 62, 100
4, 2514720, Note_on_c, 2, 62, 0
4, 2514720, Note_on_c, 2, 64, 100
4, 2514780, Note_on_c, 2, 64, 0
4, 2514780, Note_on_c, 2, 62, 100
4, 2514840, Note_on_c, 2, 62, 0
4, 2514840, Note_on_c, 2, 64, 100
4, 2514900, Note_on_c, 2, 64, 0
4, 2514900, Note_on_c, 2, 62, 100
4, 2514960, Note_on_c, 2, 62, 0
4, 2515020, Note_on_c, 2, 62, 100
4, 2515080, Note_on_c, 2, 62, 0
4, 2515080, Note_on_c, 2, 64, 100
4, 2515140, Note_on_c, 2, 64, 0
4, 2515140, Note_on_c, 2, 62, 100
4, 2515200, Note_on_c, 2, 62, 0
4, 2515200, Note_on_c, 2, 64, 100
4, 2515260, Note_on_c, 2, 64, 0
4, 2515260, Note_on_c, 2, 62, 100
4, 2515320, Note_on_c, 2, 62, 0
4, 2515320, Note_on_c, 2, 64, 100
4, 2515380, Note_on_c, 2, 64, 0
4, 2515380, Note_on_c, 2, 62, 100
4, 2515440, Note_on_c, 2, 62, 0
4, 2515500, Note_on_c, 2, 62, 100
4, 2515560, Note_on_c, 2, 62, 0
4, 2515560, Note_on_c, 2, 64, 100
4, 2515620, Note_on_c, 2, 64, 0
4, 2515620, Note_on_c, 2, 62, 100
4, 2515680, Note_on_c, 2, 62, 0
4, 2515680, Note_on_c, 2, 64, 100
4, 2515740, Note_on_c, 2, 64, 0
4, 2515740, Note_on_c, 2, 62, 100
4, 2515800, Note_on_c, 2, 62, 0
4, 2515800, Note_on_c, 2, 64, 100
4, 2515860, Note_on_c, 2, 64, 0
4, 2515860, Note_on_c, 2, 62, 100
4, 2515920, Note_on_c, 2, 62, 0
4, 2515980, Note_on_c, 2, 62, 100
4, 2516040, Note_on_c, 2, 62, 0
4, 2516040, Note_on_c, 2, 64, 100
4, 2516100, Note_on_c, 2, 64, 0
4, 2516100, Note_on_c, 2, 62, 100
4, 2516160, Note_on_c, 2, 62, 0
4, 2516160, Note_on_c, 2, 64, 100
4, 2516220, Note_on_c, 2, 64, 0
4, 2516220, Note_on_c, 2, 62, 100
4, 2516280, Note_on_c, 2, 62, 0
4, 2516280, Note_on_c, 2, 64, 100
4, 2516340, Note_on_c, 2, 64, 0
4, 2516340, Note_on_c, 2, 62, 100
4, 2516400, Note_on_c, 2, 62, 0
4, 2516460, Note_on_c, 2, 61, 100
4, 2516520, Note_on_c, 2, 61, 0
4, 2516520, Note_on_c, 2, 62, 100
4, 2516580, Note_on_c, 2, 62, 0
4, 2516580, Note_on_c, 2, 61, 100
4, 2516640, Note_on_c, 2, 61, 0
4, 2516640, Note_on_c, 2, 62, 100
4, 2516700, Note_on_c, 2, 62, 0
4, 2516700, Note_on_c, 2, 61, 100
4, 2516760, Note_on_c, 2, 61, 0
4, 2516760, Note_on_c, 2, 62, 100
4, 2516820, Note_on_c, 2, 62, 0
4, 2516820, Note_on_c, 2, 61, 100
4, 2516880, Note_on_c, 2, 61, 0
4, 2516880, Note_on_c, 2, 66, 100
4, 2517000, Note_on_c, 2, 66, 0
4, 2517000, Note_on_c, 2, 62, 100
4, 2517120, Note_on_c, 2, 62, 0
4, 2517120, Note_on_c, 2, 61, 100
4, 2517240, Note_on_c, 2, 61, 0
4, 2517240, Note_on_c, 2, 62, 100
4, 2517360, Note_on_c, 2, 62, 0
4, 2517360, Note_on_c, 2, 57, 100
4, 2517480, Note_on_c, 2, 57, 0
4, 2517480, Note_on_c, 2, 54, 100
4, 2517600, Note_on_c, 2, 54, 0
4, 2517600, Note_on_c, 2, 52, 100
4, 2517720, Note_on_c, 2, 52, 0
4, 2517720, Note_on_c, 2, 54, 100
4, 2517840, Note_on_c, 2, 54, 0
4, 2517840, Note_on_c, 2, 50, 100
4, 2518320, Note_on_c, 2, 50, 0
4, 2518320, Note_on_c, 2, 66, 100
4, 2518440, Note_on_c, 2, 66, 0
4, 2518440, Note_on_c, 2, 69, 100
4, 2518560, Note_on_c, 2, 69, 0
4, 2518560, Note_on_c, 2, 67, 100
4, 2518680, Note_on_c, 2, 67, 0
4, 2518680, Note_on_c, 2, 69, 100
4, 2518800, Note_on_c, 2, 69, 0
4, 2518800, Note_on_c, 2, 74, 100
4, 2518920, Note_on_c, 2, 74, 0
4, 2518920, Note_on_c, 2, 78, 100
4, 2519040, Note_on_c, 2, 78, 0
4, 2519040, Note_on_c, 2, 76, 100
4, 2519160, Note_on_c, 2, 76, 0
4, 2519160, Note_on_c, 2, 78, 100
4, 2519280, Note_on_c, 2, 78, 0
4, 2519280, Note_on_c, 2, 81, 100
4, 2519400, Note_on_c, 2, 81, 0
4, 2519400, Note_on_c, 2, 78, 100
4, 2519520, Note_on_c, 2, 78, 0
4, 2519520, Note_on_c, 2, 72, 100
4, 2519640, Note_on_c, 2, 72, 0
4, 2519640, Note_on_c, 2, 69, 100
4, 2519760, Note_on_c, 2, 69, 0
4, 2519760, Note_on_c, 2, 71, 100
4, 2519880, Note_on_c, 2, 71, 0
4, 2519880, Note_on_c, 2, 74, 100
4, 2520000, Note_on_c, 2, 74, 0
4, 2520000, Note_on_c, 2, 72, 100
4, 2520120, Note_on_c, 2, 72, 0
4, 2520120, Note_on_c, 2, 74, 100
4, 2520240, Note_on_c, 2, 74, 0
4, 2520240, Note_on_c, 2, 79, 100
4, 2520360, Note_on_c, 2, 79, 0
4, 2520360, Note_on_c, 2, 83, 100
4, 2520480, Note_on_c, 2, 83, 0
4, 2520480, Note_on_c, 2, 81, 100
4, 2520600, Note_on_c, 2, 81, 0
4, 2520600, Note_on_c, 2, 83, 100
4, 2520720, Note_on_c, 2, 83, 0
4, 2520720, Note_on_c, 2, 86, 100
4, 2520840, Note_on_c, 2, 86, 0
4, 2520840, Note_on_c, 2, 83, 100
4, 2520960, Note_on_c, 2, 83, 0
4, 2520960, Note_on_c, 2, 77, 100
4, 2521080, Note_on_c, 2, 77, 0
4, 2521080, Note_on_c, 2, 74, 100
4, 2521200, Note_on_c, 2, 74, 0
4, 2521200, Note_on_c, 2, 76, 100
4, 2521440, Note_on_c, 2, 76, 0
4, 2521440, Note_on_c, 2, 71, 100
4, 2521680, Note_on_c, 2, 71, 0
4, 2521680, Note_on_c, 2, 72, 100
4, 2521920, Note_on_c, 2, 72, 0
4, 2521920, Note_on_c, 2, 63, 100
4, 2522160, Note_on_c, 2, 63, 0
4, 2522160, Note_on_c, 2, 64, 100
4, 2522400, Note_on_c, 2, 64, 0
4, 2522400, Note_on_c, 2, 55, 100
4, 2522640, Note_on_c, 2, 55, 0
4, 2522640, Note_on_c, 2, 54, 100
4, 2522880, Note_on_c, 2, 54, 0
4, 2522880, Note_on_c, 2, 76, 100
4, 2523120, Note_on_c, 2, 76, 0
4, 2523120, Note_on_c, 2, 75, 100
4, 2523240, Note_on_c, 2, 75, 0
4, 2523240, Note_on_c, 2, 78, 100
4, 2523360, Note_on_c, 2, 78, 0
4, 2523360, Note_on_c, 2, 76, 100
4, 2523480, Note_on_c, 2, 76, 0
4, 2523480, Note_on_c, 2, 78, 100
4, 2523600, Note_on_c, 2, 78, 0
4, 2523600, Note_on_c, 2, 81, 100
4, 2523720, Note_on_c, 2, 81, 0
4, 2523720, Note_on_c, 2, 78, 100
4, 2523840, Note_on_c, 2, 78, 0
4, 2523840, Note_on_c, 2, 75, 100
4, 2523960, Note_on_c, 2, 75, 0
4, 2523960, Note_on_c, 2, 78, 100
4, 2524080, Note_on_c, 2, 78, 0
4, 2524080, Note_on_c, 2, 71, 100
4, 2524200, Note_on_c, 2, 71, 0
4, 2524560, Note_on_c, 2, 73, 100
4, 2524680, Note_on_c, 2, 73, 0
4, 2525040, Note_on_c, 2, 75, 100
4, 2525160, Note_on_c, 2, 75, 0
4, 2525520, Note_on_c, 2, 76, 100
4, 2525640, Note_on_c, 2, 76, 0
4, 2526000, Note_on_c, 2, 75, 100
4, 2526120, Note_on_c, 2, 75, 0
4, 2526480, Note_on_c, 2, 76, 100
4, 2526600, Note_on_c, 2, 76, 0
4, 2526960, Note_on_c, 2, 73, 100
4, 2527080, Note_on_c, 2, 73, 0
4, 2527440, Note_on_c, 2, 71, 100
4, 2527560, Note_on_c, 2, 71, 0
4, 2527920, Note_on_c, 2, 69, 100
4, 2528040, Note_on_c, 2, 69, 0
4, 2529900, Note_on_c, 2, 67, 100
4, 2529960, Note_on_c, 2, 67, 0
4, 2529960, Note_on_c, 2, 69, 100
4, 2530020, Note_on_c, 2, 69, 0
4, 2530020, Note_on_c, 2, 67, 100
4, 2530080, Note_on_c, 2, 67, 0
4, 2530080, Note_on_c, 2, 69, 100
4, 2530140, Note_on_c, 2, 69, 0
4, 2530140, Note_on_c, 2, 67, 100
4, 2530200, Note_on_c, 2, 67, 0
4, 2530200, Note_on_c, 2, 69, 100
4, 2530260, Note_on_c, 2, 69, 0
4, 2530260, Note_on_c, 2, 67, 100
4, 2530320, Note_on_c, 2, 67, 0
4, 2530380, Note_on_c, 2, 67, 100
4, 2530440, Note_on_c, 2, 67, 0
4, 2530440, Note_on_c, 2, 69, 100
4, 2530500, Note_on_c, 2, 69, 0
4, 2530500, Note_on_c, 2, 67, 100
4, 2530560, Note_on_c, 2, 67, 0
4, 2530560, Note_on_c, 2, 69, 100
4, 2530620, Note_on_c, 2, 69, 0
4, 2530620, Note_on_c, 2, 67, 100
4, 2530680, Note_on_c, 2, 67, 0
4, 2530680, Note_on_c, 2, 69, 100
4, 2530740, Note_on_c, 2, 69, 0
4, 2530740, Note_on_c, 2, 67, 100
4, 2530800, Note_on_c, 2, 67, 0
4, 2530860, Note_on_c, 2, 67, 100
4, 2530920, Note_on_c, 2, 67, 0
4, 2530920, Note_on_c, 2, 69, 100
4, 2530980, Note_on_c, 2, 69, 0
4, 2530980, Note_on_c, 2, 67, 100
4, 2531040, Note_on_c, 2, 67, 0
4, 2531040, Note_on_c, 2, 69, 100
4, 2531100, Note_on_c, 2, 69, 0
4, 2531100, Note_on_c, 2, 67, 100
4, 2531160, Note_on_c, 2, 67, 0
4, 2531160, Note_on_c, 2, 69, 100
4, 2531220, Note_on_c, 2, 69, 0
4, 2531220, Note_on_c, 2, 67, 100
4, 2531280, Note_on_c, 2, 67, 0
4, 2531340, Note_on_c, 2, 67, 100
4, 2531400, Note_on_c, 2, 67, 0
4, 2531400, Note_on_c, 2, 69, 100
4, 2531460, Note_on_c, 2, 69, 0
4, 2531460, Note_on_c, 2, 67, 100
4, 2531520, Note_on_c, 2, 67, 0
4, 2531520, Note_on_c, 2, 69, 100
4, 2531580, Note_on_c, 2, 69, 0
4, 2531580, Note_on_c, 2, 67, 100
4, 2531640, Note_on_c, 2, 67, 0
4, 2531640, Note_on_c, 2, 69, 100
4, 2531700, Note_on_c, 2, 69, 0
4, 2531700, Note_on_c, 2, 67, 100
4, 2531760, Note_on_c, 2, 67, 0
4, 2531820, Note_on_c, 2, 67, 100
4, 2531880, Note_on_c, 2, 67, 0
4, 2531880, Note_on_c, 2, 69, 100
4, 2531940, Note_on_c, 2, 69, 0
4, 2531940, Note_on_c, 2, 67, 100
4, 2532000, Note_on_c, 2, 67, 0
4, 2532000, Note_on_c, 2, 69, 100
4, 2532060, Note_on_c, 2, 69, 0
4, 2532060, Note_on_c, 2, 67, 100
4, 2532120, Note_on_c, 2, 67, 0
4, 2532120, Note_on_c, 2, 69, 100
4, 2532180, Note_on_c, 2, 69, 0
4, 2532180, Note_on_c, 2, 67, 100
4, 2532240, Note_on_c, 2, 67, 0
4, 2532300, Note_on_c, 2, 67, 100
4, 2532360, Note_on_c, 2, 67, 0
4, 2532360, Note_on_c, 2, 69, 100
4, 2532420, Note_on_c, 2, 69, 0
4, 2532420, Note_on_c, 2, 67, 100
4, 2532480, Note_on_c, 2, 67, 0
4, 2532480, Note_on_c, 2, 69, 100
4, 2532540, Note_on_c, 2, 69, 0
4, 2532540, Note_on_c, 2, 67, 100
4, 2532600, Note_on_c, 2, 67, 0
4, 2532600, Note_on_c, 2, 69, 100
4, 2532660, Note_on_c, 2, 69, 0
4, 2532660, Note_on_c, 2, 67, 100
4, 2532720, Note_on_c, 2, 67, 0
4, 2532720, Note_on_c, 2, 64, 100
4, 2532840, Note_on_c, 2, 64, 0
4, 2533200, Note_on_c, 2, 62, 100
4, 2533320, Note_on_c, 2, 62, 0
4, 2533680, Note_on_c, 2, 64, 100
4, 2533800, Note_on_c, 2, 64, 0
4, 2534160, Note_on_c, 2, 66, 100
4, 2534280, Note_on_c, 2, 66, 0
4, 2534640, Note_on_c, 2, 64, 100
4, 2534760, Note_on_c, 2, 64, 0
4, 2535120, Note_on_c, 2, 66, 100
4, 2535240, Note_on_c, 2, 66, 0
4, 2535660, Note_on_c, 2, 67, 100
4, 2535720, Note_on_c, 2, 67, 0
4, 2535720, Note_on_c, 2, 69, 100
4, 2535780, Note_on_c, 2, 69, 0
4, 2535780, Note_on_c, 2, 67, 100
4, 2535840, Note_on_c, 2, 67, 0
4, 2535840, Note_on_c, 2, 69, 100
4, 2535900, Note_on_c, 2, 69, 0
4, 2535900, Note_on_c, 2, 67, 100
4, 2535960, Note_on_c, 2, 67, 0
4, 2535960, Note_on_c, 2, 69, 100
4, 2536020, Note_on_c, 2, 69, 0
4, 2536020, Note_on_c, 2, 67, 100
4, 2536080, Note_on_c, 2, 67, 0
4, 2536140, Note_on_c, 2, 66, 100
4, 2536200, Note_on_c, 2, 66, 0
4, 2536200, Note_on_c, 2, 67, 100
4, 2536260, Note_on_c, 2, 67, 0
4, 2536260, Note_on_c, 2, 66, 100
4, 2536320, Note_on_c, 2, 66, 0
4, 2536320, Note_on_c, 2, 67, 100
4, 2536380, Note_on_c, 2, 67, 0
4, 2536380, Note_on_c, 2, 66, 100
4, 2536440, Note_on_c, 2, 66, 0
4, 2536440, Note_on_c, 2, 67, 100
4, 2536500, Note_on_c, 2, 67, 0
4, 2536500, Note_on_c, 2, 66, 100
4, 2536560, Note_on_c, 2, 66, 0
4, 2536620, Note_on_c, 2, 65, 100
4, 2536680, Note_on_c, 2, 65, 0
4, 2536680, Note_on_c, 2, 67, 100
4, 2536740, Note_on_c, 2, 67, 0
4, 2536740, Note_on_c, 2, 65, 100
4, 2536800, Note_on_c, 2, 65, 0
4, 2536800, Note_on_c, 2, 67, 100
4, 2536860, Note_on_c, 2, 67, 0
4, 2536860, Note_on_c, 2, 65, 100
4, 2536920, Note_on_c, 2, 65, 0
4, 2536920, Note_on_c, 2, 67, 100
4, 2536980, Note_on_c, 2, 67, 0
4, 2536980, Note_on_c, 2, 65, 100
4, 2537040, Note_on_c, 2, 65, 0
4, 2537100, Note_on_c, 2, 60, 100
4, 2537160, Note_on_c, 2, 60, 0
4, 2537160, Note_on_c, 2, 62, 100
4, 2537220, Note_on_c, 2, 62, 0
4, 2537220, Note_on_c, 2, 60, 100
4, 2537280, Note_on_c, 2, 60, 0
4, 2537280, Note_on_c, 2, 62, 100
4, 2537340, Note_on_c, 2, 62, 0
4, 2537340, Note_on_c, 2, 60, 100
4, 2537400, Note_on_c, 2, 60, 0
4, 2537400, Note_on_c, 2, 62, 100
4, 2537460, Note_on_c, 2, 62, 0
4, 2537460, Note_on_c, 2, 60, 100
4, 2537520, Note_on_c, 2, 60, 0
4, 2537580, Note_on_c, 2, 59, 100
4, 2537640, Note_on_c, 2, 59, 0
4, 2537640, Note_on_c, 2, 60, 100
4, 2537700, Note_on_c, 2, 60, 0
4, 2537700, Note_on_c, 2, 59, 100
4, 2537760, Note_on_c, 2, 59, 0
4, 2537760, Note_on_c, 2, 60, 100
4, 2537820, Note_on_c, 2, 60, 0
4, 2537820, Note_on_c, 2, 59, 100
4, 2537880, Note_on_c, 2, 59, 0
4, 2537880, Note_on_c, 2, 60, 100
4, 2537940, Note_on_c, 2, 60, 0
4, 2537940, Note_on_c, 2, 59, 100
4, 2538000, Note_on_c, 2, 59, 0
4, 2538060, Note_on_c, 2, 58, 100
4, 2538120, Note_on_c, 2, 58, 0
4, 2538120, Note_on_c, 2, 60, 100
4, 2538180, Note_on_c, 2, 60, 0
4, 2538180, Note_on_c, 2, 58, 100
4, 2538240, Note_on_c, 2, 58, 0
4, 2538240, Note_on_c, 2, 60, 100
4, 2538300, Note_on_c, 2, 60, 0
4, 2538300, Note_on_c, 2, 58, 100
4, 2538360, Note_on_c, 2, 58, 0
4, 2538360, Note_on_c, 2, 60, 100
4, 2538420, Note_on_c, 2, 60, 0
4, 2538420, Note_on_c, 2, 58, 100
4, 2538480, Note_on_c, 2, 58, 0
4, 2541360, Note_on_c, 2, 66, 100
4, 2541480, Note_on_c, 2, 66, 0
4, 2541480, Note_on_c, 2, 69, 100
4, 2541600, Note_on_c, 2, 69, 0
4, 2541600, Note_on_c, 2, 67, 100
4, 2541720, Note_on_c, 2, 67, 0
4, 2541720, Note_on_c, 2, 69, 100
4, 2541840, Note_on_c, 2, 69, 0
4, 2541840, Note_on_c, 2, 74, 100
4, 2541960, Note_on_c, 2, 74, 0
4, 2541960, Note_on_c, 2, 78, 100
4, 2542080, Note_on_c, 2, 78, 0
4, 2542080, Note_on_c, 2, 76, 100
4, 2542200, Note_on_c, 2, 76, 0
4, 2542200, Note_on_c, 2, 78, 100
4, 2542320, Note_on_c, 2, 78, 0
4, 2542320, Note_on_c, 2, 81, 100
4, 2542440, Note_on_c, 2, 81, 0
4, 2542440, Note_on_c, 2, 78, 100
4, 2542560, Note_on_c, 2, 78, 0
4, 2542560, Note_on_c, 2, 72, 100
4, 2542680, Note_on_c, 2, 72, 0
4, 2542680, Note_on_c, 2, 69, 100
4, 2542800, Note_on_c, 2, 69, 0
4, 2542800, Note_on_c, 2, 71, 100
4, 2542920, Note_on_c, 2, 71, 0
4, 2542920, Note_on_c, 2, 74, 100
4, 2543040, Note_on_c, 2, 74, 0
4, 2543040, Note_on_c, 2, 72, 100
4, 2543160, Note_on_c, 2, 72, 0
4, 2543160, Note_on_c, 2, 74, 100
4, 2543280, Note_on_c, 2, 74, 0
4, 2543280, Note_on_c, 2, 79, 100
4, 2543400, Note_on_c, 2, 79, 0
4, 2543400, Note_on_c, 2, 83, 100
4, 2543520, Note_on_c, 2, 83, 0
4, 2543520, Note_on_c, 2, 81, 100
4, 2543640, Note_on_c, 2, 81, 0
4, 2543640, Note_on_c, 2, 83, 100
4, 2543760, Note_on_c, 2, 83, 0
4, 2543760, Note_on_c, 2, 86, 100
4, 2543880, Note_on_c, 2, 86, 0
4, 2543880, Note_on_c, 2, 83, 100
4, 2544000, Note_on_c, 2, 83, 0
4, 2544000, Note_on_c, 2, 77, 100
4, 2544120, Note_on_c, 2, 77, 0
4, 2544120, Note_on_c, 2, 74, 100
4, 2544240, Note_on_c, 2, 74, 0
4, 2544240, Note_on_c, 2, 76, 100
4, 2544480, Note_on_c, 2, 76, 0
4, 2544480, Note_on_c, 2, 71, 100
4, 2544720, Note_on_c, 2, 71, 0
4, 2544720, Note_on_c, 2, 72, 100
4, 2544960, Note_on_c, 2, 72, 0
4, 2544960, Note_on_c, 2, 63, 100
4, 2545200, Note_on_c, 2, 63, 0
4, 2545200, Note_on_c, 2, 64, 100
4, 2545440, Note_on_c, 2, 64, 0
4, 2545440, Note_on_c, 2, 55, 100
4, 2545680, Note_on_c, 2, 55, 0
4, 2545680, Note_on_c, 2, 54, 100
4, 2545920, Note_on_c, 2, 54, 0
4, 2545920, Note_on_c, 2, 76, 100
4, 2546160, Note_on_c, 2, 76, 0
4, 2546160, Note_on_c, 2, 75, 100
4, 2546280, Note_on_c, 2, 75, 0
4, 2546280, Note_on_c, 2, 78, 100
4, 2546400, Note_on_c, 2, 78, 0
4, 2546400, Note_on_c, 2, 76, 100
4, 2546520, Note_on_c, 2, 76, 0
4, 2546520, Note_on_c, 2, 78, 100
4, 2546640, Note_on_c, 2, 78, 0
4, 2546640, Note_on_c, 2, 81, 100
4, 2546760, Note_on_c, 2, 81, 0
4, 2546760, Note_on_c, 2, 78, 100
4, 2546880, Note_on_c, 2, 78, 0
4, 2546880, Note_on_c, 2, 75, 100
4, 2547000, Note_on_c, 2, 75, 0
4, 2547000, Note_on_c, 2, 78, 100
4, 2547120, Note_on_c, 2, 78, 0
4, 2547120, Note_on_c, 2, 71, 100
4, 2547240, Note_on_c, 2, 71, 0
4, 2547600, Note_on_c, 2, 73, 100
4, 2547720, Note_on_c, 2, 73, 0
4, 2548080, Note_on_c, 2, 75, 100
4, 2548200, Note_on_c, 2, 75, 0
4, 2548560, Note_on_c, 2, 76, 100
4, 2548680, Note_on_c, 2, 76, 0
4, 2549040, Note_on_c, 2, 75, 100
4, 2549160, Note_on_c, 2, 75, 0
4, 2549520, Note_on_c, 2, 76, 100
4, 2549640, Note_on_c, 2, 76, 0
4, 2550000, Note_on_c, 2, 73, 100
4, 2550120, Note_on_c, 2, 73, 0
4, 2550480, Note_on_c, 2, 71, 100
4, 2550600, Note_on_c, 2, 71, 0
4, 2550960, Note_on_c, 2, 69, 100
4, 2551080, Note_on_c, 2, 69, 0
4, 2552940, Note_on_c, 2, 67, 100
4, 2553000, Note_on_c, 2, 67, 0
4, 2553000, Note_on_c, 2, 69, 100
4, 2553060, Note_on_c, 2, 69, 0
4, 2553060, Note_on_c, 2, 67, 100
4, 2553120, Note_on_c, 2, 67, 0
4, 2553120, Note_on_c, 2, 69, 100
4, 2553180, Note_on_c, 2, 69, 0
4, 2553180, Note_on_c, 2, 67, 100
4, 2553240, Note_on_c, 2, 67, 0
4, 2553240, Note_on_c, 2, 69, 100
4, 2553300, Note_on_c, 2, 69, 0
4, 2553300, Note_on_c, 2, 67, 100
4, 2553360, Note_on_c, 2, 67, 0
4, 2553420, Note_on_c, 2, 67, 100
4, 2553480, Note_on_c, 2, 67, 0
4, 2553480, Note_on_c, 2, 69, 100
4, 2553540, Note_on_c, 2, 69, 0
4, 2553540, Note_on_c, 2, 67, 100
4, 2553600, Note_on_c, 2, 67, 0
4, 2553600, Note_on_c, 2, 69, 100
4, 2553660, Note_on_c, 2, 69, 0
4, 2553660, Note_on_c, 2, 67, 100
4, 2553720, Note_on_c, 2, 67, 0
4, 2553720, Note_on_c, 2, 69, 100
4, 2553780, Note_on_c, 2, 69, 0
4, 2553780, Note_on_c, 2, 67, 100
4, 2553840, Note_on_c, 2, 67, 0
4, 2553900, Note_on_c, 2, 67, 100
4, 2553960, Note_on_c, 2, 67, 0
4, 2553960, Note_on_c, 2, 69, 100
4, 2554020, Note_on_c, 2, 69, 0
4, 2554020, Note_on_c, 2, 67, 100
4, 2554080, Note_on_c, 2, 67, 0
4, 2554080, Note_on_c, 2, 69, 100
4, 2554140, Note_on_c, 2, 69, 0
4, 2554140, Note_on_c, 2, 67, 100
4, 2554200, Note_on_c, 2, 67, 0
4, 2554200, Note_on_c, 2, 69, 100
4, 2554260, Note_on_c, 2, 69, 0
4, 2554260, Note_on_c, 2, 67, 100
4, 2554320, Note_on_c, 2, 67, 0
4, 2554380, Note_on_c, 2, 67, 100
4, 2554440, Note_on_c, 2, 67, 0
4, 2554440, Note_on_c, 2, 69, 100
4, 2554500, Note_on_c, 2, 69, 0
4, 2554500, Note_on_c, 2, 67, 100
4, 2554560, Note_on_c, 2, 67, 0
4, 2554560, Note_on_c, 2, 69, 100
4, 2554620, Note_on_c, 2, 69, 0
4, 2554620, Note_on_c, 2, 67, 100
4, 2554680, Note_on_c, 2, 67, 0
4, 2554680, Note_on_c, 2, 69, 100
4, 2554740, Note_on_c, 2, 69, 0
4, 2554740, Note_on_c, 2, 67, 100
4, 2554800, Note_on_c, 2, 67, 0
4, 2554860, Note_on_c, 2, 67, 100
4, 2554920, Note_on_c, 2, 67, 0
4, 2554920, Note_on_c, 2, 69, 100
4, 2554980, Note_on_c, 2, 69, 0
4, 2554980, Note_on_c, 2, 67, 100
4, 2555040, Note_on_c, 2, 67, 0
4, 2555040, Note_on_c, 2, 69, 100
4, 2555100, Note_on_c, 2, 69, 0
4, 2555100, Note_on_c, 2, 67, 100
4, 2555160, Note_on_c, 2, 67, 0
4, 2555160, Note_on_c, 2, 69, 100
4, 2555220, Note_on_c, 2, 69, 0
4, 2555220, Note_on_c, 2, 67, 100
4, 2555280, Note_on_c, 2, 67, 0
4, 2555340, Note_on_c, 2, 67, 100
4, 2555400, Note_on_c, 2, 67, 0
4, 2555400, Note_on_c, 2, 69, 100
4, 2555460, Note_on_c, 2, 69, 0
4, 2555460, Note_on_c, 2, 67, 100
4, 2555520, Note_on_c, 2, 67, 0
4, 2555520, Note_on_c, 2, 69, 100
4, 2555580, Note_on_c, 2, 69, 0
4, 2555580, Note_on_c, 2, 67, 100
4, 2555640, Note_on_c, 2, 67, 0
4, 2555640, Note_on_c, 2, 69, 100
4, 2555700, Note_on_c, 2, 69, 0
4, 2555700, Note_on_c, 2, 67, 100
4, 2555760, Note_on_c, 2, 67, 0
4, 2555760, Note_on_c, 2, 64, 100
4, 2555880, Note_on_c, 2, 64, 0
4, 2556240, Note_on_c, 2, 62, 100
4, 2556360, Note_on_c, 2, 62, 0
4, 2556720, Note_on_c, 2, 64, 100
4, 2556840, Note_on_c, 2, 64, 0
4, 2557200, Note_on_c, 2, 66, 100
4, 2557320, Note_on_c, 2, 66, 0
4, 2557680, Note_on_c, 2, 64, 100
4, 2557800, Note_on_c, 2, 64, 0
4, 2558160, Note_on_c, 2, 66, 100
4, 2558280, Note_on_c, 2, 66, 0
4, 2558700, Note_on_c, 2, 67, 100
4, 2558760, Note_on_c, 2, 67, 0
4, 2558760, Note_on_c, 2, 69, 100
4, 2558820, Note_on_c, 2, 69, 0
4, 2558820, Note_on_c, 2, 67, 100
4, 2558880, Note_on_c, 2, 67, 0
4, 2558880, Note_on_c, 2, 69, 100
4, 2558940, Note_on_c, 2, 69, 0
4, 2558940, Note_on_c, 2, 67, 100
4, 2559000, Note_on_c, 2, 67, 0
4, 2559000, Note_on_c, 2, 69, 100
4, 2559060, Note_on_c, 2, 69, 0
4, 2559060, Note_on_c, 2, 67, 100
4, 2559120, Note_on_c, 2, 67, 0
4, 2559180, Note_on_c, 2, 66, 100
4, 2559240, Note_on_c, 2, 66, 0
4, 2559240, Note_on_c, 2, 67, 100
4, 2559300, Note_on_c, 2, 67, 0
4, 2559300, Note_on_c, 2, 66, 100
4, 2559360, Note_on_c, 2, 66, 0
4, 2559360, Note_on_c, 2, 67, 100
4, 2559420, Note_on_c, 2, 67, 0
4, 2559420, Note_on_c, 2, 66, 100
4, 2559480, Note_on_c, 2, 66, 0
4, 2559480, Note_on_c, 2, 67, 100
4, 2559540, Note_on_c, 2, 67, 0
4, 2559540, Note_on_c, 2, 66, 100
4, 2559600, Note_on_c, 2, 66, 0
4, 2559660, Note_on_c, 2, 65, 100
4, 2559720, Note_on_c, 2, 65, 0
4, 2559720, Note_on_c, 2, 67, 100
4, 2559780, Note_on_c, 2, 67, 0
4, 2559780, Note_on_c, 2, 65, 100
4, 2559840, Note_on_c, 2, 65, 0
4, 2559840, Note_on_c, 2, 67, 100
4, 2559900, Note_on_c, 2, 67, 0
4, 2559900, Note_on_c, 2, 65, 100
4, 2559960, Note_on_c, 2, 65, 0
4, 2559960, Note_on_c, 2, 67, 100
4, 2560020, Note_on_c, 2, 67, 0
4, 2560020, Note_on_c, 2, 65, 100
4, 2560080, Note_on_c, 2, 65, 0
4, 2560140, Note_on_c, 2, 60, 100
4, 2560200, Note_on_c, 2, 60, 0
4, 2560200, Note_on_c, 2, 62, 100
4, 2560260, Note_on_c, 2, 62, 0
4, 2560260, Note_on_c, 2, 60, 100
4, 2560320, Note_on_c, 2, 60, 0
4, 2560320, Note_on_c, 2, 62, 100
4, 2560380, Note_on_c, 2, 62, 0
4, 2560380, Note_on_c, 2, 60, 100
4, 2560440, Note_on_c, 2, 60, 0
4, 2560440, Note_on_c, 2, 62, 100
4, 2560500, Note_on_c, 2, 62, 0
4, 2560500, Note_on_c, 2, 60, 100
4, 2560560, Note_on_c, 2, 60, 0
4, 2560620, Note_on_c, 2, 59, 100
4, 2560680, Note_on_c, 2, 59, 0
4, 2560680, Note_on_c, 2, 60, 100
4, 2560740, Note_on_c, 2, 60, 0
4, 2560740, Note_on_c, 2, 59, 100
4, 2560800, Note_on_c, 2, 59, 0
4, 2560800, Note_on_c, 2, 60, 100
4, 2560860, Note_on_c, 2, 60, 0
4, 2560860, Note_on_c, 2, 59, 100
4, 2560920, Note_on_c, 2, 59, 0
4, 2560920, Note_on_c, 2, 60, 100
4, 2560980, Note_on_c, 2, 60, 0
4, 2560980, Note_on_c, 2, 59, 100
4, 2561040, Note_on_c, 2, 59, 0
4, 2561100, Note_on_c, 2, 58, 100
4, 2561160, Note_on_c, 2, 58, 0
4, 2561160, Note_on_c, 2, 60, 100
4, 2561220, Note_on_c, 2, 60, 0
4, 2561220, Note_on_c, 2, 58, 100
4, 2561280, Note_on_c, 2, 58, 0
4, 2561280, Note_on_c, 2, 60, 100
4, 2561340, Note_on_c, 2, 60, 0
4, 2561340, Note_on_c, 2, 58, 100
4, 2561400, Note_on_c, 2, 58, 0
4, 2561400, Note_on_c, 2, 60, 100
4, 2561460, Note_on_c, 2, 60, 0
4, 2561460, Note_on_c, 2, 58, 100
4, 2561520, Note_on_c, 2, 58, 0
4, 2658720, Note_on_c, 2, 67, 100
4, 2659200, Note_on_c, 2, 67, 0
4, 2659200, Note_on_c, 2, 67, 100
4, 2659680, Note_on_c, 2, 67, 0
4, 2659680, Note_on_c, 2, 69, 100
4, 2660160, Note_on_c, 2, 69, 0
4, 2660160, Note_on_c, 2, 69, 100
4, 2660640, Note_on_c, 2, 69, 0
4, 2660640, Note_on_c, 2, 67, 100
4, 2660880, Note_on_c, 2, 67, 0
4, 2660880, Note_on_c, 2, 69, 100
4, 2661120, Note_on_c, 2, 69, 0
4, 2661120, Note_on_c, 2, 67, 100
4, 2661360, Note_on_c, 2, 67, 0
4, 2661360, Note_on_c, 2, 65, 100
4, 2661600, Note_on_c, 2, 65, 0
4, 2661600, Note_on_c, 2, 64, 100
4, 2661840, Note_on_c, 2, 64, 0
4, 2661840, Note_on_c, 2, 62, 100
4, 2662080, Note_on_c, 2, 62, 0
4, 2662080, Note_on_c, 2, 60, 100
4, 2662320, Note_on_c, 2, 60, 0
4, 2662320, Note_on_c, 2, 71, 100
4, 2662560, Note_on_c, 2, 71, 0
4, 2662560, Note_on_c, 2, 69, 100
4, 2662800, Note_on_c, 2, 69, 0
4, 2662800, Note_on_c, 2, 67, 100
4, 2663040, Note_on_c, 2, 67, 0
4, 2663040, Note_on_c, 2, 69, 100
4, 2663280, Note_on_c, 2, 69, 0
4, 2663280, Note_on_c, 2, 66, 100
4, 2663520, Note_on_c, 2, 66, 0
4, 2663520, Note_on_c, 2, 67, 100
4, 2664000, Note_on_c, 2, 67, 0
4, 2664000, Note_on_c, 2, 67, 100
4, 2664240, Note_on_c, 2, 67, 0
4, 2664240, Note_on_c, 2, 62, 100
4, 2664480, Note_on_c, 2, 62, 0
4, 2664480, Note_on_c, 2, 67, 100
4, 2664720, Note_on_c, 2, 67, 0
4, 2664720, Note_on_c, 2, 69, 100
4, 2664960, Note_on_c, 2, 69, 0
4, 2664960, Note_on_c, 2, 71, 100
4, 2665200, Note_on_c, 2, 71, 0
4, 2665200, Note_on_c, 2, 72, 100
4, 2665440, Note_on_c, 2, 72, 0
4, 2665440, Note_on_c, 2, 74, 100
4, 2665680, Note_on_c, 2, 74, 0
4, 2665680, Note_on_c, 2, 72, 100
4, 2665800, Note_on_c, 2, 72, 0
4, 2665800, Note_on_c, 2, 71, 100
4, 2665920, Note_on_c, 2, 71, 0
4, 2665920, Note_on_c, 2, 69, 100
4, 2666160, Note_on_c, 2, 69, 0
4, 2666160, Note_on_c, 2, 74, 100
4, 2666640, Note_on_c, 2, 74, 0
4, 2666640, Note_on_c, 2, 72, 100
4, 2666880, Note_on_c, 2, 72, 0
4, 2666880, Note_on_c, 2, 71, 100
4, 2667360, Note_on_c, 2, 71, 0
4, 2667360, Note_on_c, 2, 69, 100
4, 2668080, Note_on_c, 2, 69, 0
4, 2668080, Note_on_c, 2, 71, 100
4, 2668200, Note_on_c, 2, 71, 0
4, 2668200, Note_on_c, 2, 73, 100
4, 2668320, Note_on_c, 2, 73, 0
4, 2668320, Note_on_c, 2, 74, 100
4, 2668560, Note_on_c, 2, 74, 0
4, 2668560, Note_on_c, 2, 76, 100
4, 2668800, Note_on_c, 2, 76, 0
4, 2668800, Note_on_c, 2, 78, 100
4, 2669040, Note_on_c, 2, 78, 0
4, 2669040, Note_on_c, 2, 74, 100
4, 2669280, Note_on_c, 2, 74, 0
4, 2669280, Note_on_c, 2, 71, 100
4, 2669520, Note_on_c, 2, 71, 0
4, 2669520, Note_on_c, 2, 74, 100
4, 2669760, Note_on_c, 2, 74, 0
4, 2669760, Note_on_c, 2, 79, 100
4, 2670000, Note_on_c, 2, 79, 0
4, 2670000, Note_on_c, 2, 78, 100
4, 2670240, Note_on_c, 2, 78, 0
4, 2670240, Note_on_c, 2, 76, 100
4, 2670600, Note_on_c, 2, 76, 0
4, 2670600, Note_on_c, 2, 74, 100
4, 2670840, Note_on_c, 2, 74, 0
4, 2670840, Note_on_c, 2, 73, 100
4, 2670960, Note_on_c, 2, 73, 0
4, 2670960, Note_on_c, 2, 76, 100
4, 2671320, Note_on_c, 2, 76, 0
4, 2671320, Note_on_c, 2, 74, 100
4, 2671560, Note_on_c, 2, 74, 0
4, 2671560, Note_on_c, 2, 73, 100
4, 2671680, Note_on_c, 2, 73, 0
4, 2671680, Note_on_c, 2, 74, 100
4, 2671920, Note_on_c, 2, 74, 0
4, 2674080, Note_on_c, 2, 67, 100
4, 2674560, Note_on_c, 2, 67, 0
4, 2674560, Note_on_c, 2, 67, 100
4, 2675040, Note_on_c, 2, 67, 0
4, 2675040, Note_on_c, 2, 69, 100
4, 2675520, Note_on_c, 2, 69, 0
4, 2675520, Note_on_c, 2, 69, 100
4, 2676000, Note_on_c, 2, 69, 0
4, 2676000, Note_on_c, 2, 67, 100
4, 2676240, Note_on_c, 2, 67, 0
4, 2676240, Note_on_c, 2, 69, 100
4, 2676480, Note_on_c, 2, 69, 0
4, 2676480, Note_on_c, 2, 67, 100
4, 2676720, Note_on_c, 2, 67, 0
4, 2676720, Note_on_c, 2, 65, 100
4, 2676960, Note_on_c, 2, 65, 0
4, 2676960, Note_on_c, 2, 64, 100
4, 2677200, Note_on_c, 2, 64, 0
4, 2677200, Note_on_c, 2, 62, 100
4, 2677440, Note_on_c, 2, 62, 0
4, 2677440, Note_on_c, 2, 60, 100
4, 2677680, Note_on_c, 2, 60, 0
4, 2677680, Note_on_c, 2, 71, 100
4, 2677920, Note_on_c, 2, 71, 0
4, 2677920, Note_on_c, 2, 69, 100
4, 2678160, Note_on_c, 2, 69, 0
4, 2678160, Note_on_c, 2, 67, 100
4, 2678400, Note_on_c, 2, 67, 0
4, 2678400, Note_on_c, 2, 69, 100
4, 2678640, Note_on_c, 2, 69, 0
4, 2678640, Note_on_c, 2, 66, 100
4, 2678880, Note_on_c, 2, 66, 0
4, 2678880, Note_on_c, 2, 67, 100
4, 2679360, Note_on_c, 2, 67, 0
4, 2679360, Note_on_c, 2, 67, 100
4, 2679600, Note_on_c, 2, 67, 0
4, 2679600, Note_on_c, 2, 62, 100
4, 2679840, Note_on_c, 2, 62, 0
4, 2679840, Note_on_c, 2, 67, 100
4, 2680080, Note_on_c, 2, 67, 0
4, 2680080, Note_on_c, 2, 69, 100
4, 2680320, Note_on_c, 2, 69, 0
4, 2680320, Note_on_c, 2, 71, 100
4, 2680560, Note_on_c, 2, 71, 0
4, 2680560, Note_on_c, 2, 72, 100
4, 2680800, Note_on_c, 2, 72, 0
4, 2680800, Note_on_c, 2, 74, 100
4, 2681040, Note_on_c, 2, 74, 0
4, 2681040, Note_on_c, 2, 72, 100
4, 2681160, Note_on_c, 2, 72, 0
4, 2681160, Note_on_c, 2, 71, 100
4, 2681280, Note_on_c, 2, 71, 0
4, 2681280, Note_on_c, 2, 69, 100
4, 2681520, Note_on_c, 2, 69, 0
4, 2681520, Note_on_c, 2, 74, 100
4, 2682000, Note_on_c, 2, 74, 0
4, 2682000, Note_on_c, 2, 72, 100
4, 2682240, Note_on_c, 2, 72, 0
4, 2682240, Note_on_c, 2, 71, 100
4, 2682720, Note_on_c, 2, 71, 0
4, 2682720, Note_on_c, 2, 69, 100
4, 2683440, Note_on_c, 2, 69, 0
4, 2683440, Note_on_c, 2, 71, 100
4, 2683560, Note_on_c, 2, 71, 0
4, 2683560, Note_on_c, 2, 73, 100
4, 2683680, Note_on_c, 2, 73, 0
4, 2683680, Note_on_c, 2, 74, 100
4, 2683920, Note_on_c, 2, 74, 0
4, 2683920, Note_on_c, 2, 76, 100
4, 2684160, Note_on_c, 2, 76, 0
4, 2684160, Note_on_c, 2, 78, 100
4, 2684400, Note_on_c, 2, 78, 0
4, 2684400, Note_on_c, 2, 74, 100
4, 2684640, Note_on_c, 2, 74, 0
4, 2684640, Note_on_c, 2, 71, 100
4, 2684880, Note_on_c, 2, 71, 0
4, 2684880, Note_on_c, 2, 74, 100
4, 2685120, Note_on_c, 2, 74, 0
4, 2685120, Note_on_c, 2, 79, 100
4, 2685360, Note_on_c, 2, 79, 0
4, 2685360, Note_on_c, 2, 78, 100
4, 2685600, Note_on_c, 2, 78, 0
4, 2685600, Note_on_c, 2, 76, 100
4, 2685960, Note_on_c, 2, 76, 0
4, 2685960, Note_on_c, 2, 74, 100
4, 2686200, Note_on_c, 2, 74, 0
4, 2686200, Note_on_c, 2, 73, 100
4, 2686320, Note_on_c, 2, 73, 0
4, 2686320, Note_on_c, 2, 76, 100
4, 2686680, Note_on_c, 2, 76, 0
4, 2686680, Note_on_c, 2, 74, 100
4, 2686920, Note_on_c, 2, 74, 0
4, 2686920, Note_on_c, 2, 73, 100
4, 2687040, Note_on_c, 2, 73, 0
4, 2687040, Note_on_c, 2, 74, 100
4, 2687280, Note_on_c, 2, 74, 0
4, 2687520, Note_on_c, 2, 69, 100
4, 2688000, Note_on_c, 2, 69, 0
4, 2688000, Note_on_c, 2, 69, 100
4, 2688480, Note_on_c, 2, 69, 0
4, 2688480, Note_on_c, 2, 71, 100
4, 2688960, Note_on_c, 2, 71, 0
4, 2688960, Note_on_c, 2, 71, 100
4, 2689440, Note_on_c, 2, 71, 0
4, 2689440, Note_on_c, 2, 69, 100
4, 2689680, Note_on_c, 2, 69, 0
4, 2689680, Note_on_c, 2, 71, 100
4, 2689920, Note_on_c, 2, 71, 0
4, 2689920, Note_on_c, 2, 69, 100
4, 2690160, Note_on_c, 2, 69, 0
4, 2690160, Note_on_c, 2, 67, 100
4, 2690400, Note_on_c, 2, 67, 0
4, 2690400, Note_on_c, 2, 66, 100
4, 2690640, Note_on_c, 2, 66, 0
4, 2690640, Note_on_c, 2, 64, 100
4, 2690880, Note_on_c, 2, 64, 0
4, 2690880, Note_on_c, 2, 63, 100
4, 2691120, Note_on_c, 2, 63, 0
4, 2691360, Note_on_c, 2, 71, 100
4, 2691840, Note_on_c, 2, 71, 0
4, 2691840, Note_on_c, 2, 71, 100
4, 2692320, Note_on_c, 2, 71, 0
4, 2692320, Note_on_c, 2, 72, 100
4, 2692800, Note_on_c, 2, 72, 0
4, 2692800, Note_on_c, 2, 72, 100
4, 2693280, Note_on_c, 2, 72, 0
4, 2693280, Note_on_c, 2, 71, 100
4, 2693520, Note_on_c, 2, 71, 0
4, 2693520, Note_on_c, 2, 72, 100
4, 2693760, Note_on_c, 2, 72, 0
4, 2693760, Note_on_c, 2, 71, 100
4, 2694000, Note_on_c, 2, 71, 0
4, 2694000, Note_on_c, 2, 69, 100
4, 2694240, Note_on_c, 2, 69, 0
4, 2694240, Note_on_c, 2, 67, 100
4, 2694480, Note_on_c, 2, 67, 0
4, 2694480, Note_on_c, 2, 66, 100
4, 2694600, Note_on_c, 2, 66, 0
4, 2694600, Note_on_c, 2, 67, 100
4, 2694720, Note_on_c, 2, 67, 0
4, 2694720, Note_on_c, 2, 64, 100
4, 2694960, Note_on_c, 2, 64, 0
4, 2696160, Note_on_c, 2, 67, 100
4, 2696640, Note_on_c, 2, 67, 0
4, 2696640, Note_on_c, 2, 67, 100
4, 2697120, Note_on_c, 2, 67, 0
4, 2697120, Note_on_c, 2, 72, 100
4, 2697480, Note_on_c, 2, 72, 0
4, 2697480, Note_on_c, 2, 74, 100
4, 2697600, Note_on_c, 2, 74, 0
4, 2697600, Note_on_c, 2, 72, 100
4, 2697840, Note_on_c, 2, 72, 0
4, 2697840, Note_on_c, 2, 71, 100
4, 2698080, Note_on_c, 2, 71, 0
4, 2698080, Note_on_c, 2, 69, 100
4, 2698320, Note_on_c, 2, 69, 0
4, 2698320, Note_on_c, 2, 71, 100
4, 2698560, Note_on_c, 2, 71, 0
4, 2698560, Note_on_c, 2, 72, 100
4, 2698800, Note_on_c, 2, 72, 0
4, 2698800, Note_on_c, 2, 74, 100
4, 2699040, Note_on_c, 2, 74, 0
4, 2699040, Note_on_c, 2, 71, 100
4, 2699280, Note_on_c, 2, 71, 0
4, 2699280, Note_on_c, 2, 69, 100
4, 2699400, Note_on_c, 2, 69, 0
4, 2699400, Note_on_c, 2, 71, 100
4, 2699520, Note_on_c, 2, 71, 0
4, 2699520, Note_on_c, 2, 67, 100
4, 2699760, Note_on_c, 2, 67, 0
4, 2700240, Note_on_c, 2, 76, 100
4, 2700360, Note_on_c, 2, 76, 0
4, 2700360, Note_on_c, 2, 74, 100
4, 2700480, Note_on_c, 2, 74, 0
4, 2700480, Note_on_c, 2, 72, 100
4, 2700720, Note_on_c, 2, 72, 0
4, 2700720, Note_on_c, 2, 76, 100
4, 2700960, Note_on_c, 2, 76, 0
4, 2700960, Note_on_c, 2, 69, 100
4, 2701080, Note_on_c, 2, 69, 0
4, 2701080, Note_on_c, 2, 74, 100
4, 2701200, Note_on_c, 2, 74, 0
4, 2701200, Note_on_c, 2, 72, 100
4, 2701320, Note_on_c, 2, 72, 0
4, 2701320, Note_on_c, 2, 71, 100
4, 2701440, Note_on_c, 2, 71, 0
4, 2701440, Note_on_c, 2, 72, 100
4, 2701560, Note_on_c, 2, 72, 0
4, 2701560, Note_on_c, 2, 69, 100
4, 2701680, Note_on_c, 2, 69, 0
4, 2701680, Note_on_c, 2, 74, 100
4, 2702160, Note_on_c, 2, 74, 0
4, 2702160, Note_on_c, 2, 72, 100
4, 2702280, Note_on_c, 2, 72, 0
4, 2702280, Note_on_c, 2, 74, 100
4, 2702400, Note_on_c, 2, 74, 0
4, 2702400, Note_on_c, 2, 71, 100
4, 2702640, Note_on_c, 2, 71, 0
4, 2702880, Note_on_c, 2, 69, 100
4, 2703360, Note_on_c, 2, 69, 0
4, 2703360, Note_on_c, 2, 69, 100
4, 2703840, Note_on_c, 2, 69, 0
4, 2703840, Note_on_c, 2, 71, 100
4, 2704320, Note_on_c, 2, 71, 0
4, 2704320, Note_on_c, 2, 71, 100
4, 2704800, Note_on_c, 2, 71, 0
4, 2704800, Note_on_c, 2, 69, 100
4, 2705040, Note_on_c, 2, 69, 0
4, 2705040, Note_on_c, 2, 71, 100
4, 2705280, Note_on_c, 2, 71, 0
4, 2705280, Note_on_c, 2, 69, 100
4, 2705520, Note_on_c, 2, 69, 0
4, 2705520, Note_on_c, 2, 67, 100
4, 2705760, Note_on_c, 2, 67, 0
4, 2705760, Note_on_c, 2, 66, 100
4, 2706000, Note_on_c, 2, 66, 0
4, 2706000, Note_on_c, 2, 64, 100
4, 2706240, Note_on_c, 2, 64, 0
4, 2706240, Note_on_c, 2, 63, 100
4, 2706480, Note_on_c, 2, 63, 0
4, 2706720, Note_on_c, 2, 71, 100
4, 2707200, Note_on_c, 2, 71, 0
4, 2707200, Note_on_c, 2, 71, 100
4, 2707680, Note_on_c, 2, 71, 0
4, 2707680, Note_on_c, 2, 72, 100
4, 2708160, Note_on_c, 2, 72, 0
4, 2708160, Note_on_c, 2, 72, 100
4, 2708640, Note_on_c, 2, 72, 0
4, 2708640, Note_on_c, 2, 71, 100
4, 2708880, Note_on_c, 2, 71, 0
4, 2708880, Note_on_c, 2, 72, 100
4, 2709120, Note_on_c, 2, 72, 0
4, 2709120, Note_on_c, 2, 71, 100
4, 2709360, Note_on_c, 2, 71, 0
4, 2709360, Note_on_c, 2, 69, 100
4, 2709600, Note_on_c, 2, 69, 0
4, 2709600, Note_on_c, 2, 67, 100
4, 2709840, Note_on_c, 2, 67, 0
4, 2709840, Note_on_c, 2, 66, 100
4, 2709960, Note_on_c, 2, 66, 0
4, 2709960, Note_on_c, 2, 67, 100
4, 2710080, Note_on_c, 2, 67, 0
4, 2710080, Note_on_c, 2, 64, 100
4, 2710320, Note_on_c, 2, 64, 0
4, 2711520, Note_on_c, 2, 67, 100
4, 2712000, Note_on_c, 2, 67, 0
4, 2712000, Note_on_c, 2, 67, 100
4, 2712480, Note_on_c, 2, 67, 0
4, 2712480, Note_on_c, 2, 72, 100
4, 2712840, Note_on_c, 2, 72, 0
4, 2712840, Note_on_c, 2, 74, 100
4, 2712960, Note_on_c, 2, 74, 0
4, 2712960, Note_on_c, 2, 72, 100
4, 2713200, Note_on_c, 2, 72, 0
4, 2713200, Note_on_c, 2, 71, 100
4, 2713440, Note_on_c, 2, 71, 0
4, 2713440, Note_on_c, 2, 69, 100
4, 2713680, Note_on_c, 2, 69, 0
4, 2713680, Note_on_c, 2, 71, 100
4, 2713920, Note_on_c, 2, 71, 0
4, 2713920, Note_on_c, 2, 72, 100
4, 2714160, Note_on_c, 2, 72, 0
4, 2714160, Note_on_c, 2, 74, 100
4, 2714400, Note_on_c, 2, 74, 0
4, 2714400, Note_on_c, 2, 71, 100
4, 2714640, Note_on_c, 2, 71, 0
4, 2714640, Note_on_c, 2, 69, 100
4, 2714760, Note_on_c, 2, 69, 0
4, 2714760, Note_on_c, 2, 71, 100
4, 2714880, Note_on_c, 2, 71, 0
4, 2714880, Note_on_c, 2, 67, 100
4, 2715120, Note_on_c, 2, 67, 0
4, 2715600, Note_on_c, 2, 76, 100
4, 2715720, Note_on_c, 2, 76, 0
4, 2715720, Note_on_c, 2, 74, 100
4, 2715840, Note_on_c, 2, 74, 0
4, 2715840, Note_on_c, 2, 72, 100
4, 2716080, Note_on_c, 2, 72, 0
4, 2716080, Note_on_c, 2, 76, 100
4, 2716320, Note_on_c, 2, 76, 0
4, 2716320, Note_on_c, 2, 69, 100
4, 2716440, Note_on_c, 2, 69, 0
4, 2716440, Note_on_c, 2, 74, 100
4, 2716560, Note_on_c, 2, 74, 0
4, 2716560, Note_on_c, 2, 72, 100
4, 2716680, Note_on_c, 2, 72, 0
4, 2716680, Note_on_c, 2, 71, 100
4, 2716800, Note_on_c, 2, 71, 0
4, 2716800, Note_on_c, 2, 72, 100
4, 2716920, Note_on_c, 2, 72, 0
4, 2716920, Note_on_c, 2, 69, 100
4, 2717040, Note_on_c, 2, 69, 0
4, 2717040, Note_on_c, 2, 74, 100
4, 2717520, Note_on_c, 2, 74, 0
4, 2717520, Note_on_c, 2, 72, 100
4, 2717640, Note_on_c, 2, 72, 0
4, 2717640, Note_on_c, 2, 74, 100
4, 2717760, Note_on_c, 2, 74, 0
4, 2717760, Note_on_c, 2, 71, 100
4, 2718000, Note_on_c, 2, 71, 0
4, 2719200, Note_on_c, 2, 62, 100
4, 2719680, Note_on_c, 2, 62, 0
4, 2720640, Note_on_c, 2, 62, 100
4, 2721120, Note_on_c, 2, 62, 0
4, 2722080, Note_on_c, 2, 61, 100
4, 2722560, Note_on_c, 2, 61, 0
4, 2723520, Note_on_c, 2, 57, 100
4, 2724000, Note_on_c, 2, 57, 0
4, 2724960, Note_on_c, 2, 55, 100
4, 2725440, Note_on_c, 2, 55, 0
4, 2726400, Note_on_c, 2, 57, 100
4, 2726880, Note_on_c, 2, 57, 0
4, 2727120, Note_on_c, 2, 60, 100
4, 2727600, Note_on_c, 2, 60, 0
4, 2727600, Note_on_c, 2, 59, 100
4, 2727720, Note_on_c, 2, 59, 0
4, 2727720, Note_on_c, 2, 57, 100
4, 2727840, Note_on_c, 2, 57, 0
4, 2727840, Note_on_c, 2, 55, 100
4, 2727960, Note_on_c, 2, 55, 0
4, 2727960, Note_on_c, 2, 54, 100
4, 2728080, Note_on_c, 2, 54, 0
4, 2728080, Note_on_c, 2, 52, 100
4, 2728200, Note_on_c, 2, 52, 0
4, 2728200, Note_on_c, 2, 54, 100
4, 2728320, Note_on_c, 2, 54, 0
4, 2728320, Note_on_c, 2, 55, 100
4, 2728560, Note_on_c, 2, 55, 0
4, 2728560, Note_on_c, 2, 57, 100
4, 2728800, Note_on_c, 2, 57, 0
4, 2728800, Note_on_c, 2, 59, 100
4, 2729760, Note_on_c, 2, 59, 0
4, 2730240, Note_on_c, 2, 59, 100
4, 2731200, Note_on_c, 2, 59, 0
4, 2731200, Note_on_c, 2, 57, 100
4, 2731680, Note_on_c, 2, 57, 0
4, 2732880, Note_on_c, 2, 59, 100
4, 2733120, Note_on_c, 2, 59, 0
4, 2736000, Note_on_c, 2, 57, 100
4, 2736960, Note_on_c, 2, 57, 0
4, 2737440, Note_on_c, 2, 59, 100
4, 2737920, Note_on_c, 2, 59, 0
4, 2740560, Note_on_c, 2, 57, 100
4, 2740800, Note_on_c, 2, 57, 0
4, 2740800, Note_on_c, 2, 62, 100
4, 2741280, Note_on_c, 2, 62, 0
4, 2742240, Note_on_c, 2, 62, 100
4, 2742720, Note_on_c, 2, 62, 0
4, 2743680, Note_on_c, 2, 62, 100
4, 2744160, Note_on_c, 2, 62, 0
4, 2745120, Note_on_c, 2, 61, 100
4, 2745600, Note_on_c, 2, 61, 0
4, 2746560, Note_on_c, 2, 57, 100
4, 2747040, Note_on_c, 2, 57, 0
4, 2748000, Note_on_c, 2, 55, 100
4, 2748480, Note_on_c, 2, 55, 0
4, 2749440, Note_on_c, 2, 57, 100
4, 2749920, Note_on_c, 2, 57, 0
4, 2750160, Note_on_c, 2, 60, 100
4, 2750640, Note_on_c, 2, 60, 0
4, 2750640, Note_on_c, 2, 59, 100
4, 2750760, Note_on_c, 2, 59, 0
4, 2750760, Note_on_c, 2, 57, 100
4, 2750880, Note_on_c, 2, 57, 0
4, 2750880, Note_on_c, 2, 55, 100
4, 2751000, Note_on_c, 2, 55, 0
4, 2751000, Note_on_c, 2, 54, 100
4, 2751120, Note_on_c, 2, 54, 0
4, 2751120, Note_on_c, 2, 52, 100
4, 2751240, Note_on_c, 2, 52, 0
4, 2751240, Note_on_c, 2, 54, 100
4, 2751360, Note_on_c, 2, 54, 0
4, 2751360, Note_on_c, 2, 55, 100
4, 2751600, Note_on_c, 2, 55, 0
4, 2751600, Note_on_c, 2, 57, 100
4, 2751840, Note_on_c, 2, 57, 0
4, 2751840, Note_on_c, 2, 59, 100
4, 2752800, Note_on_c, 2, 59, 0
4, 2753280, Note_on_c, 2, 59, 100
4, 2754240, Note_on_c, 2, 59, 0
4, 2754240, Note_on_c, 2, 57, 100
4, 2754720, Note_on_c, 2, 57, 0
4, 2755920, Note_on_c, 2, 59, 100
4, 2756160, Note_on_c, 2, 59, 0
4, 2759040, Note_on_c, 2, 57, 100
4, 2760000, Note_on_c, 2, 57, 0
4, 2760480, Note_on_c, 2, 59, 100
4, 2760960, Note_on_c, 2, 59, 0
4, 2763600, Note_on_c, 2, 57, 100
4, 2763840, Note_on_c, 2, 57, 0
4, 2763840, Note_on_c, 2, 62, 100
4, 2764320, Note_on_c, 2, 62, 0
4, 2764320, Note_on_c, 2, 62, 100
4, 2765280, Note_on_c, 2, 62, 0
4, 2765280, Note_on_c, 2, 60, 100
4, 2765760, Note_on_c, 2, 60, 0
4, 2765760, Note_on_c, 2, 59, 100
4, 2766480, Note_on_c, 2, 59, 0
4, 2766480, Note_on_c, 2, 57, 100
4, 2766720, Note_on_c, 2, 57, 0
4, 2766720, Note_on_c, 2, 59, 100
4, 2767200, Note_on_c, 2, 59, 0
4, 2767200, Note_on_c, 2, 60, 100
4, 2767920, Note_on_c, 2, 60, 0
4, 2767920, Note_on_c, 2, 59, 100
4, 2768160, Note_on_c, 2, 59, 0
4, 2768160, Note_on_c, 2, 57, 100
4, 2768640, Note_on_c, 2, 57, 0
4, 2768640, Note_on_c, 2, 59, 100
4, 2769360, Note_on_c, 2, 59, 0
4, 2769360, Note_on_c, 2, 57, 100
4, 2769600, Note_on_c, 2, 57, 0
4, 2769600, Note_on_c, 2, 55, 100
4, 2769840, Note_on_c, 2, 55, 0
4, 2769840, Note_on_c, 2, 54, 100
4, 2770080, Note_on_c, 2, 54, 0
4, 2770080, Note_on_c, 2, 52, 100
4, 2771040, Note_on_c, 2, 52, 0
4, 2771040, Note_on_c, 2, 50, 100
4, 2771520, Note_on_c, 2, 50, 0
4, 2771520, Note_on_c, 2, 48, 100
4, 2772240, Note_on_c, 2, 48, 0
4, 2772480, Note_on_c, 2, 47, 100
4, 2772960, Note_on_c, 2, 47, 0
4, 2772960, Note_on_c, 2, 45, 100
4, 2773200, Note_on_c, 2, 45, 0
4, 2773200, Note_on_c, 2, 48, 100
4, 2773440, Note_on_c, 2, 48, 0
4, 2773440, Note_on_c, 2, 47, 100
4, 2773680, Note_on_c, 2, 47, 0
4, 2773680, Note_on_c, 2, 45, 100
4, 2773920, Note_on_c, 2, 45, 0
4, 2773920, Note_on_c, 2, 47, 100
4, 2774400, Note_on_c, 2, 47, 0
4, 2774400, Note_on_c, 2, 52, 100
4, 2774640, Note_on_c, 2, 52, 0
4, 2774640, Note_on_c, 2, 47, 100
4, 2774880, Note_on_c, 2, 47, 0
4, 2774880, Note_on_c, 2, 40, 100
4, 2775120, Note_on_c, 2, 40, 0
4, 2775120, Note_on_c, 2, 47, 100
4, 2775360, Note_on_c, 2, 47, 0
4, 2775360, Note_on_c, 2, 52, 100
4, 2775600, Note_on_c, 2, 52, 0
4, 2775600, Note_on_c, 2, 50, 100
4, 2775840, Note_on_c, 2, 50, 0
4, 2775840, Note_on_c, 2, 48, 100
4, 2777280, Note_on_c, 2, 48, 0
4, 2777280, Note_on_c, 2, 47, 100
4, 2778720, Note_on_c, 2, 47, 0
4, 2778720, Note_on_c, 2, 45, 100
4, 2779440, Note_on_c, 2, 45, 0
4, 2779440, Note_on_c, 2, 43, 100
4, 2779680, Note_on_c, 2, 43, 0
4, 2779680, Note_on_c, 2, 42, 100
4, 2779920, Note_on_c, 2, 42, 0
4, 2779920, Note_on_c, 2, 40, 100
4, 2780160, Note_on_c, 2, 40, 0
4, 2780160, Note_on_c, 2, 38, 100
4, 2780400, Note_on_c, 2, 38, 0
4, 2780400, Note_on_c, 2, 45, 100
4, 2780640, Note_on_c, 2, 45, 0
4, 2780640, Note_on_c, 2, 50, 100
4, 2780880, Note_on_c, 2, 50, 0
4, 2780880, Note_on_c, 2, 48, 100
4, 2781120, Note_on_c, 2, 48, 0
4, 2781120, Note_on_c, 2, 47, 100
4, 2781360, Note_on_c, 2, 47, 0
4, 2781360, Note_on_c, 2, 45, 100
4, 2781600, Note_on_c, 2, 45, 0
4, 2781600, Note_on_c, 2, 43, 100
4, 2781840, Note_on_c, 2, 43, 0
4, 2781840, Note_on_c, 2, 50, 100
4, 2782080, Note_on_c, 2, 50, 0
4, 2782080, Note_on_c, 2, 55, 100
4, 2782320, Note_on_c, 2, 55, 0
4, 2782320, Note_on_c, 2, 53, 100
4, 2782560, Note_on_c, 2, 53, 0
4, 2782560, Note_on_c, 2, 52, 100
4, 2782800, Note_on_c, 2, 52, 0
4, 2782800, Note_on_c, 2, 50, 100
4, 2783040, Note_on_c, 2, 50, 0
4, 2783040, Note_on_c, 2, 48, 100
4, 2783280, Note_on_c, 2, 48, 0
4, 2783280, Note_on_c, 2, 55, 100
4, 2783520, Note_on_c, 2, 55, 0
4, 2783520, Note_on_c, 2, 60, 100
4, 2783760, Note_on_c, 2, 60, 0
4, 2783760, Note_on_c, 2, 59, 100
4, 2784000, Note_on_c, 2, 59, 0
4, 2784000, Note_on_c, 2, 57, 100
4, 2784240, Note_on_c, 2, 57, 0
4, 2784240, Note_on_c, 2, 55, 100
4, 2784480, Note_on_c, 2, 55, 0
4, 2784480, Note_on_c, 2, 54, 100
4, 2784720, Note_on_c, 2, 54, 0
4, 2784720, Note_on_c, 2, 50, 100
4, 2784960, Note_on_c, 2, 50, 0
4, 2784960, Note_on_c, 2, 55, 100
4, 2785200, Note_on_c, 2, 55, 0
4, 2785200, Note_on_c, 2, 59, 100
4, 2785440, Note_on_c, 2, 59, 0
4, 2785440, Note_on_c, 2, 62, 100
4, 2785680, Note_on_c, 2, 62, 0
4, 2785680, Note_on_c, 2, 50, 100
4, 2785920, Note_on_c, 2, 50, 0
4, 2785920, Note_on_c, 2, 55, 100
4, 2786640, Note_on_c, 2, 55, 0
4, 2786640, Note_on_c, 2, 50, 100
4, 2786880, Note_on_c, 2, 50, 0
4, 2786880, Note_on_c, 2, 43, 100
4, 2787360, Note_on_c, 2, 43, 0
4, 2787360, Note_on_c, 2, 62, 100
4, 2788320, Note_on_c, 2, 62, 0
4, 2788320, Note_on_c, 2, 60, 100
4, 2788800, Note_on_c, 2, 60, 0
4, 2788800, Note_on_c, 2, 59, 100
4, 2789520, Note_on_c, 2, 59, 0
4, 2789520, Note_on_c, 2, 57, 100
4, 2789760, Note_on_c, 2, 57, 0
4, 2789760, Note_on_c, 2, 59, 100
4, 2790240, Note_on_c, 2, 59, 0
4, 2790240, Note_on_c, 2, 60, 100
4, 2790960, Note_on_c, 2, 60, 0
4, 2790960, Note_on_c, 2, 59, 100
4, 2791200, Note_on_c, 2, 59, 0
4, 2791200, Note_on_c, 2, 57, 100
4, 2791680, Note_on_c, 2, 57, 0
4, 2791680, Note_on_c, 2, 59, 100
4, 2792400, Note_on_c, 2, 59, 0
4, 2792400, Note_on_c, 2, 57, 100
4, 2792640, Note_on_c, 2, 57, 0
4, 2792640, Note_on_c, 2, 55, 100
4, 2792880, Note_on_c, 2, 55, 0
4, 2792880, Note_on_c, 2, 54, 100
4, 2793120, Note_on_c, 2, 54, 0
4, 2793120, Note_on_c, 2, 52, 100
4, 2794080, Note_on_c, 2, 52, 0
4, 2794080, Note_on_c, 2, 50, 100
4, 2794560, Note_on_c, 2, 50, 0
4, 2794560, Note_on_c, 2, 48, 100
4, 2795280, Note_on_c, 2, 48, 0
4, 2795520, Note_on_c, 2, 47, 100
4, 2796000, Note_on_c, 2, 47, 0
4, 2796000, Note_on_c, 2, 45, 100
4, 2796240, Note_on_c, 2, 45, 0
4, 2796240, Note_on_c, 2, 48, 100
4, 2796480, Note_on_c, 2, 48, 0
4, 2796480, Note_on_c, 2, 47, 100
4, 2796720, Note_on_c, 2, 47, 0
4, 2796720, Note_on_c, 2, 45, 100
4, 2796960, Note_on_c, 2, 45, 0
4, 2796960, Note_on_c, 2, 47, 100
4, 2797440, Note_on_c, 2, 47, 0
4, 2797440, Note_on_c, 2, 52, 100
4, 2797680, Note_on_c, 2, 52, 0
4, 2797680, Note_on_c, 2, 47, 100
4, 2797920, Note_on_c, 2, 47, 0
4, 2797920, Note_on_c, 2, 40, 100
4, 2798160, Note_on_c, 2, 40, 0
4, 2798160, Note_on_c, 2, 47, 100
4, 2798400, Note_on_c, 2, 47, 0
4, 2798400, Note_on_c, 2, 52, 100
4, 2798640, Note_on_c, 2, 52, 0
4, 2798640, Note_on_c, 2, 50, 100
4, 2798880, Note_on_c, 2, 50, 0
4, 2798880, Note_on_c, 2, 48, 100
4, 2800320, Note_on_c, 2, 48, 0
4, 2800320, Note_on_c, 2, 47, 100
4, 2801760, Note_on_c, 2, 47, 0
4, 2801760, Note_on_c, 2, 45, 100
4, 2802480, Note_on_c, 2, 45, 0
4, 2802480, Note_on_c, 2, 43, 100
4, 2802720, Note_on_c, 2, 43, 0
4, 2802720, Note_on_c, 2, 42, 100
4, 2802960, Note_on_c, 2, 42, 0
4, 2802960, Note_on_c, 2, 40, 100
4, 2803200, Note_on_c, 2, 40, 0
4, 2803200, Note_on_c, 2, 38, 100
4, 2803440, Note_on_c, 2, 38, 0
4, 2803440, Note_on_c, 2, 45, 100
4, 2803680, Note_on_c, 2, 45, 0
4, 2803680, Note_on_c, 2, 50, 100
4, 2803920, Note_on_c, 2, 50, 0
4, 2803920, Note_on_c, 2, 48, 100
4, 2804160, Note_on_c, 2, 48, 0
4, 2804160, Note_on_c, 2, 47, 100
4, 2804400, Note_on_c, 2, 47, 0
4, 2804400, Note_on_c, 2, 45, 100
4, 2804640, Note_on_c, 2, 45, 0
4, 2804640, Note_on_c, 2, 43, 100
4, 2804880, Note_on_c, 2, 43, 0
4, 2804880, Note_on_c, 2, 50, 100
4, 2805120, Note_on_c, 2, 50, 0
4, 2805120, Note_on_c, 2, 55, 100
4, 2805360, Note_on_c, 2, 55, 0
4, 2805360, Note_on_c, 2, 53, 100
4, 2805600, Note_on_c, 2, 53, 0
4, 2805600, Note_on_c, 2, 52, 100
4, 2805840, Note_on_c, 2, 52, 0
4, 2805840, Note_on_c, 2, 50, 100
4, 2806080, Note_on_c, 2, 50, 0
4, 2806080, Note_on_c, 2, 48, 100
4, 2806320, Note_on_c, 2, 48, 0
4, 2806320, Note_on_c, 2, 55, 100
4, 2806560, Note_on_c, 2, 55, 0
4, 2806560, Note_on_c, 2, 60, 100
4, 2806800, Note_on_c, 2, 60, 0
4, 2806800, Note_on_c, 2, 59, 100
4, 2807040, Note_on_c, 2, 59, 0
4, 2807040, Note_on_c, 2, 57, 100
4, 2807280, Note_on_c, 2, 57, 0
4, 2807280, Note_on_c, 2, 55, 100
4, 2807520, Note_on_c, 2, 55, 0
4, 2807520, Note_on_c, 2, 54, 100
4, 2807760, Note_on_c, 2, 54, 0
4, 2807760, Note_on_c, 2, 50, 100
4, 2808000, Note_on_c, 2, 50, 0
4, 2808000, Note_on_c, 2, 55, 100
4, 2808240, Note_on_c, 2, 55, 0
4, 2808240, Note_on_c, 2, 59, 100
4, 2808480, Note_on_c, 2, 59, 0
4, 2808480, Note_on_c, 2, 62, 100
4, 2808720, Note_on_c, 2, 62, 0
4, 2808720, Note_on_c, 2, 50, 100
4, 2808960, Note_on_c, 2, 50, 0
4, 2808960, Note_on_c, 2, 55, 100
4, 2809680, Note_on_c, 2, 55, 0
4, 2809680, Note_on_c, 2, 50, 100
4, 2809920, Note_on_c, 2, 50, 0
4, 2809920, Note_on_c, 2, 43, 100
4, 2810400, Note_on_c, 2, 43, 0
4, 2811840, Note_on_c, 2, 43, 100
4, 2812320, Note_on_c, 2, 43, 0
4, 2812320, Note_on_c, 2, 50, 100
4, 2812800, Note_on_c, 2, 50, 0
4, 2812800, Note_on_c, 2, 48, 100
4, 2813280, Note_on_c, 2, 48, 0
4, 2813280, Note_on_c, 2, 47, 100
4, 2813760, Note_on_c, 2, 47, 0
4, 2813760, Note_on_c, 2, 50, 100
4, 2814240, Note_on_c, 2, 50, 0
4, 2814240, Note_on_c, 2, 52, 100
4, 2814720, Note_on_c, 2, 52, 0
4, 2814720, Note_on_c, 2, 54, 100
4, 2815200, Note_on_c, 2, 54, 0
4, 2815200, Note_on_c, 2, 55, 100
4, 2815680, Note_on_c, 2, 55, 0
4, 2815680, Note_on_c, 2, 43, 100
4, 2816160, Note_on_c, 2, 43, 0
4, 2816160, Note_on_c, 2, 50, 100
4, 2816640, Note_on_c, 2, 50, 0
4, 2816640, Note_on_c, 2, 48, 100
4, 2817120, Note_on_c, 2, 48, 0
4, 2817120, Note_on_c, 2, 47, 100
4, 2817600, Note_on_c, 2, 47, 0
4, 2817600, Note_on_c, 2, 50, 100
4, 2818080, Note_on_c, 2, 50, 0
4, 2818080, Note_on_c, 2, 52, 100
4, 2818560, Note_on_c, 2, 52, 0
4, 2818560, Note_on_c, 2, 54, 100
4, 2819040, Note_on_c, 2, 54, 0
4, 2819040, Note_on_c, 2, 55, 100
4, 2820000, Note_on_c, 2, 55, 0
4, 2820480, Note_on_c, 2, 62, 100
4, 2820960, Note_on_c, 2, 62, 0
4, 2820960, Note_on_c, 2, 55, 100
4, 2821440, Note_on_c, 2, 55, 0
4, 2821440, Note_on_c, 2, 57, 100
4, 2821920, Note_on_c, 2, 57, 0
4, 2821920, Note_on_c, 2, 59, 100
4, 2822400, Note_on_c, 2, 59, 0
4, 2822400, Note_on_c, 2, 55, 100
4, 2822880, Note_on_c, 2, 55, 0
4, 2822880, Note_on_c, 2, 54, 100
4, 2823360, Note_on_c, 2, 54, 0
4, 2823360, Note_on_c, 2, 52, 100
4, 2823840, Note_on_c, 2, 52, 0
4, 2823840, Note_on_c, 2, 50, 100
4, 2824320, Note_on_c, 2, 50, 0
4, 2824320, Note_on_c, 2, 62, 100
4, 2824800, Note_on_c, 2, 62, 0
4, 2824800, Note_on_c, 2, 55, 100
4, 2825280, Note_on_c, 2, 55, 0
4, 2825280, Note_on_c, 2, 57, 100
4, 2825760, Note_on_c, 2, 57, 0
4, 2825760, Note_on_c, 2, 59, 100
4, 2826240, Note_on_c, 2, 59, 0
4, 2826240, Note_on_c, 2, 55, 100
4, 2826720, Note_on_c, 2, 55, 0
4, 2826720, Note_on_c, 2, 54, 100
4, 2827200, Note_on_c, 2, 54, 0
4, 2827200, Note_on_c, 2, 52, 100
4, 2827680, Note_on_c, 2, 52, 0
4, 2827680, Note_on_c, 2, 50, 100
4, 2828640, Note_on_c, 2, 50, 0
4, 2831040, Note_on_c, 2, 62, 100
4, 2831520, Note_on_c, 2, 62, 0
4, 2831520, Note_on_c, 2, 64, 100
4, 2832000, Note_on_c, 2, 64, 0
4, 2832000, Note_on_c, 2, 66, 100
4, 2832480, Note_on_c, 2, 66, 0
4, 2832480, Note_on_c, 2, 67, 100
4, 2832960, Note_on_c, 2, 67, 0
4, 2832960, Note_on_c, 2, 71, 100
4, 2833440, Note_on_c, 2, 71, 0
4, 2833440, Note_on_c, 2, 69, 100
4, 2833920, Note_on_c, 2, 69, 0
4, 2833920, Note_on_c, 2, 67, 100
4, 2834400, Note_on_c, 2, 67, 0
4, 2834400, Note_on_c, 2, 74, 100
4, 2834880, Note_on_c, 2, 74, 0
4, 2834880, Note_on_c, 2, 62, 100
4, 2835360, Note_on_c, 2, 62, 0
4, 2835360, Note_on_c, 2, 64, 100
4, 2835840, Note_on_c, 2, 64, 0
4, 2835840, Note_on_c, 2, 66, 100
4, 2836320, Note_on_c, 2, 66, 0
4, 2836320, Note_on_c, 2, 67, 100
4, 2836800, Note_on_c, 2, 67, 0
4, 2836800, Note_on_c, 2, 71, 100
4, 2837280, Note_on_c, 2, 71, 0
4, 2837280, Note_on_c, 2, 69, 100
4, 2837760, Note_on_c, 2, 69, 0
4, 2837760, Note_on_c, 2, 67, 100
4, 2838240, Note_on_c, 2, 67, 0
4, 2838240, Note_on_c, 2, 74, 100
4, 2838720, Note_on_c, 2, 74, 0
4, 2838720, Note_on_c, 2, 62, 100
4, 2839200, Note_on_c, 2, 62, 0
4, 2839200, Note_on_c, 2, 64, 100
4, 2839680, Note_on_c, 2, 64, 0
4, 2839680, Note_on_c, 2, 66, 100
4, 2840160, Note_on_c, 2, 66, 0
4, 2840160, Note_on_c, 2, 67, 100
4, 2841120, Note_on_c, 2, 67, 0
4, 2843520, Note_on_c, 2, 67, 100
4, 2844000, Note_on_c, 2, 67, 0
4, 2844000, Note_on_c, 2, 66, 100
4, 2844480, Note_on_c, 2, 66, 0
4, 2844480, Note_on_c, 2, 64, 100
4, 2844960, Note_on_c, 2, 64, 0
4, 2844960, Note_on_c, 2, 62, 100
4, 2845440, Note_on_c, 2, 62, 0
4, 2845440, Note_on_c, 2, 59, 100
4, 2845920, Note_on_c, 2, 59, 0
4, 2845920, Note_on_c, 2, 60, 100
4, 2846400, Note_on_c, 2, 60, 0
4, 2846400, Note_on_c, 2, 62, 100
4, 2846880, Note_on_c, 2, 62, 0
4, 2846880, Note_on_c, 2, 55, 100
4, 2847360, Note_on_c, 2, 55, 0
4, 2847360, Note_on_c, 2, 67, 100
4, 2847840, Note_on_c, 2, 67, 0
4, 2847840, Note_on_c, 2, 66, 100
4, 2848320, Note_on_c, 2, 66, 0
4, 2848320, Note_on_c, 2, 64, 100
4, 2848800, Note_on_c, 2, 64, 0
4, 2848800, Note_on_c, 2, 62, 100
4, 2849280, Note_on_c, 2, 62, 0
4, 2849280, Note_on_c, 2, 59, 100
4, 2849760, Note_on_c, 2, 59, 0
4, 2849760, Note_on_c, 2, 60, 100
4, 2850240, Note_on_c, 2, 60, 0
4, 2850240, Note_on_c, 2, 62, 100
4, 2850720, Note_on_c, 2, 62, 0
4, 2850720, Note_on_c, 2, 55, 100
4, 2851680, Note_on_c, 2, 55, 0
4, 2851920, Note_on_c, 2, 67, 100
4, 2852040, Note_on_c, 2, 67, 0
4, 2852040, Note_on_c, 2, 66, 100
4, 2852160, Note_on_c, 2, 66, 0
4, 2852160, Note_on_c, 2, 67, 100
4, 2852280, Note_on_c, 2, 67, 0
4, 2852280, Note_on_c, 2, 69, 100
4, 2852400, Note_on_c, 2, 69, 0
4, 2852400, Note_on_c, 2, 71, 100
4, 2852520, Note_on_c, 2, 71, 0
4, 2852520, Note_on_c, 2, 72, 100
4, 2852640, Note_on_c, 2, 72, 0
4, 2852640, Note_on_c, 2, 74, 100
4, 2852760, Note_on_c, 2, 74, 0
4, 2852760, Note_on_c, 2, 69, 100
4, 2852880, Note_on_c, 2, 69, 0
4, 2852880, Note_on_c, 2, 66, 100
4, 2853000, Note_on_c, 2, 66, 0
4, 2853000, Note_on_c, 2, 62, 100
4, 2853120, Note_on_c, 2, 62, 0
4, 2853120, Note_on_c, 2, 64, 100
4, 2853240, Note_on_c, 2, 64, 0
4, 2853240, Note_on_c, 2, 66, 100
4, 2853360, Note_on_c, 2, 66, 0
4, 2853360, Note_on_c, 2, 67, 100
4, 2853480, Note_on_c, 2, 67, 0
4, 2853480, Note_on_c, 2, 69, 100
4, 2853600, Note_on_c, 2, 69, 0
4, 2853600, Note_on_c, 2, 71, 100
4, 2853840, Note_on_c, 2, 71, 0
4, 2853840, Note_on_c, 2, 66, 100
4, 2854080, Note_on_c, 2, 66, 0
4, 2854080, Note_on_c, 2, 67, 100
4, 2854680, Note_on_c, 2, 67, 0
4, 2854680, Note_on_c, 2, 69, 100
4, 2854740, Note_on_c, 2, 69, 0
4, 2854740, Note_on_c, 2, 71, 100
4, 2854800, Note_on_c, 2, 71, 0
4, 2854800, Note_on_c, 2, 72, 100
4, 2854920, Note_on_c, 2, 72, 0
4, 2854920, Note_on_c, 2, 71, 100
4, 2855040, Note_on_c, 2, 71, 0
4, 2855040, Note_on_c, 2, 69, 100
4, 2855160, Note_on_c, 2, 69, 0
4, 2855160, Note_on_c, 2, 67, 100
4, 2855280, Note_on_c, 2, 67, 0
4, 2855280, Note_on_c, 2, 71, 100
4, 2855400, Note_on_c, 2, 71, 0
4, 2855400, Note_on_c, 2, 69, 100
4, 2855520, Note_on_c, 2, 69, 0
4, 2855520, Note_on_c, 2, 67, 100
4, 2855640, Note_on_c, 2, 67, 0
4, 2855640, Note_on_c, 2, 69, 100
4, 2855760, Note_on_c, 2, 69, 0
4, 2855760, Note_on_c, 2, 67, 100
4, 2855880, Note_on_c, 2, 67, 0
4, 2855880, Note_on_c, 2, 66, 100
4, 2856000, Note_on_c, 2, 66, 0
4, 2856000, Note_on_c, 2, 67, 100
4, 2856120, Note_on_c, 2, 67, 0
4, 2856120, Note_on_c, 2, 69, 100
4, 2856240, Note_on_c, 2, 69, 0
4, 2856240, Note_on_c, 2, 71, 100
4, 2856360, Note_on_c, 2, 71, 0
4, 2856360, Note_on_c, 2, 72, 100
4, 2856480, Note_on_c, 2, 72, 0
4, 2856480, Note_on_c, 2, 74, 100
4, 2856600, Note_on_c, 2, 74, 0
4, 2856600, Note_on_c, 2, 69, 100
4, 2856720, Note_on_c, 2, 69, 0
4, 2856720, Note_on_c, 2, 66, 100
4, 2856840, Note_on_c, 2, 66, 0
4, 2856840, Note_on_c, 2, 62, 100
4, 2856960, Note_on_c, 2, 62, 0
4, 2856960, Note_on_c, 2, 64, 100
4, 2857080, Note_on_c, 2, 64, 0
4, 2857080, Note_on_c, 2, 66, 100
4, 2857200, Note_on_c, 2, 66, 0
4, 2857200, Note_on_c, 2, 67, 100
4, 2857320, Note_on_c, 2, 67, 0
4, 2857320, Note_on_c, 2, 69, 100
4, 2857440, Note_on_c, 2, 69, 0
4, 2857440, Note_on_c, 2, 71, 100
4, 2857680, Note_on_c, 2, 71, 0
4, 2857680, Note_on_c, 2, 66, 100
4, 2857920, Note_on_c, 2, 66, 0
4, 2857920, Note_on_c, 2, 67, 100
4, 2858520, Note_on_c, 2, 67, 0
4, 2858520, Note_on_c, 2, 69, 100
4, 2858580, Note_on_c, 2, 69, 0
4, 2858580, Note_on_c, 2, 71, 100
4, 2858640, Note_on_c, 2, 71, 0
4, 2858640, Note_on_c, 2, 72, 100
4, 2858760, Note_on_c, 2, 72, 0
4, 2858760, Note_on_c, 2, 71, 100
4, 2858880, Note_on_c, 2, 71, 0
4, 2858880, Note_on_c, 2, 69, 100
4, 2859000, Note_on_c, 2, 69, 0
4, 2859000, Note_on_c, 2, 67, 100
4, 2859120, Note_on_c, 2, 67, 0
4, 2859120, Note_on_c, 2, 71, 100
4, 2859240, Note_on_c, 2, 71, 0
4, 2859240, Note_on_c, 2, 69, 100
4, 2859360, Note_on_c, 2, 69, 0
4, 2859360, Note_on_c, 2, 67, 100
4, 2859480, Note_on_c, 2, 67, 0
4, 2859480, Note_on_c, 2, 69, 100
4, 2859600, Note_on_c, 2, 69, 0
4, 2859600, Note_on_c, 2, 67, 100
4, 2859720, Note_on_c, 2, 67, 0
4, 2859720, Note_on_c, 2, 66, 100
4, 2859840, Note_on_c, 2, 66, 0
4, 2859840, Note_on_c, 2, 67, 100
4, 2859960, Note_on_c, 2, 67, 0
4, 2859960, Note_on_c, 2, 69, 100
4, 2860080, Note_on_c, 2, 69, 0
4, 2860080, Note_on_c, 2, 71, 100
4, 2860200, Note_on_c, 2, 71, 0
4, 2860200, Note_on_c, 2, 72, 100
4, 2860320, Note_on_c, 2, 72, 0
4, 2860320, Note_on_c, 2, 74, 100
4, 2860440, Note_on_c, 2, 74, 0
4, 2860440, Note_on_c, 2, 69, 100
4, 2860560, Note_on_c, 2, 69, 0
4, 2860560, Note_on_c, 2, 66, 100
4, 2860680, Note_on_c, 2, 66, 0
4, 2860680, Note_on_c, 2, 62, 100
4, 2860800, Note_on_c, 2, 62, 0
4, 2860800, Note_on_c, 2, 64, 100
4, 2860920, Note_on_c, 2, 64, 0
4, 2860920, Note_on_c, 2, 66, 100
4, 2861040, Note_on_c, 2, 66, 0
4, 2861040, Note_on_c, 2, 67, 100
4, 2861160, Note_on_c, 2, 67, 0
4, 2861160, Note_on_c, 2, 69, 100
4, 2861280, Note_on_c, 2, 69, 0
4, 2861280, Note_on_c, 2, 71, 100
4, 2861520, Note_on_c, 2, 71, 0
4, 2861520, Note_on_c, 2, 66, 100
4, 2861760, Note_on_c, 2, 66, 0
4, 2861760, Note_on_c, 2, 67, 100
4, 2862360, Note_on_c, 2, 67, 0
4, 2862360, Note_on_c, 2, 69, 100
4, 2862420, Note_on_c, 2, 69, 0
4, 2862420, Note_on_c, 2, 71, 100
4, 2862480, Note_on_c, 2, 71, 0
4, 2862480, Note_on_c, 2, 72, 100
4, 2862600, Note_on_c, 2, 72, 0
4, 2862600, Note_on_c, 2, 71, 100
4, 2862720, Note_on_c, 2, 71, 0
4, 2862720, Note_on_c, 2, 69, 100
4, 2862840, Note_on_c, 2, 69, 0
4, 2862840, Note_on_c, 2, 67, 100
4, 2862960, Note_on_c, 2, 67, 0
4, 2862960, Note_on_c, 2, 71, 100
4, 2863080, Note_on_c, 2, 71, 0
4, 2863080, Note_on_c, 2, 69, 100
4, 2863200, Note_on_c, 2, 69, 0
4, 2863200, Note_on_c, 2, 67, 100
4, 2864160, Note_on_c, 2, 67, 0
4, 2914800, Note_on_c, 2, 71, 100
4, 2915280, Note_on_c, 2, 71, 0
4, 2915280, Note_on_c, 2, 69, 100
4, 2915760, Note_on_c, 2, 69, 0
4, 2915760, Note_on_c, 2, 67, 100
4, 2916120, Note_on_c, 2, 67, 0
4, 2916120, Note_on_c, 2, 66, 100
4, 2916240, Note_on_c, 2, 66, 0
4, 2916240, Note_on_c, 2, 67, 100
4, 2916360, Note_on_c, 2, 67, 0
4, 2916360, Note_on_c, 2, 69, 100
4, 2916480, Note_on_c, 2, 69, 0
4, 2916480, Note_on_c, 2, 71, 100
4, 2916600, Note_on_c, 2, 71, 0
4, 2916600, Note_on_c, 2, 74, 100
4, 2916720, Note_on_c, 2, 74, 0
4, 2916720, Note_on_c, 2, 72, 100
4, 2916840, Note_on_c, 2, 72, 0
4, 2916840, Note_on_c, 2, 71, 100
4, 2916960, Note_on_c, 2, 71, 0
4, 2916960, Note_on_c, 2, 69, 100
4, 2917080, Note_on_c, 2, 69, 0
4, 2917080, Note_on_c, 2, 67, 100
4, 2917200, Note_on_c, 2, 67, 0
4, 2917200, Note_on_c, 2, 66, 100
4, 2917320, Note_on_c, 2, 66, 0
4, 2917320, Note_on_c, 2, 64, 100
4, 2917440, Note_on_c, 2, 64, 0
4, 2917440, Note_on_c, 2, 62, 100
4, 2917560, Note_on_c, 2, 62, 0
4, 2917560, Note_on_c, 2, 60, 100
4, 2917680, Note_on_c, 2, 60, 0
4, 2917680, Note_on_c, 2, 59, 100
4, 2917800, Note_on_c, 2, 59, 0
4, 2917800, Note_on_c, 2, 57, 100
4, 2917920, Note_on_c, 2, 57, 0
4, 2917920, Note_on_c, 2, 55, 100
4, 2918040, Note_on_c, 2, 55, 0
4, 2918040, Note_on_c, 2, 57, 100
4, 2918160, Note_on_c, 2, 57, 0
4, 2918160, Note_on_c, 2, 59, 100
4, 2918400, Note_on_c, 2, 59, 0
4, 2918640, Note_on_c, 2, 71, 100
4, 2919120, Note_on_c, 2, 71, 0
4, 2919120, Note_on_c, 2, 69, 100
4, 2919600, Note_on_c, 2, 69, 0
4, 2919600, Note_on_c, 2, 67, 100
4, 2919960, Note_on_c, 2, 67, 0
4, 2919960, Note_on_c, 2, 66, 100
4, 2920080, Note_on_c, 2, 66, 0
4, 2920080, Note_on_c, 2, 67, 100
4, 2920200, Note_on_c, 2, 67, 0
4, 2920200, Note_on_c, 2, 69, 100
4, 2920320, Note_on_c, 2, 69, 0
4, 2920320, Note_on_c, 2, 71, 100
4, 2920440, Note_on_c, 2, 71, 0
4, 2920440, Note_on_c, 2, 74, 100
4, 2920560, Note_on_c, 2, 74, 0
4, 2920560, Note_on_c, 2, 72, 100
4, 2920680, Note_on_c, 2, 72, 0
4, 2920680, Note_on_c, 2, 71, 100
4, 2920800, Note_on_c, 2, 71, 0
4, 2920800, Note_on_c, 2, 69, 100
4, 2920920, Note_on_c, 2, 69, 0
4, 2920920, Note_on_c, 2, 67, 100
4, 2921040, Note_on_c, 2, 67, 0
4, 2921040, Note_on_c, 2, 66, 100
4, 2921160, Note_on_c, 2, 66, 0
4, 2921160, Note_on_c, 2, 64, 100
4, 2921280, Note_on_c, 2, 64, 0
4, 2921280, Note_on_c, 2, 62, 100
4, 2921400, Note_on_c, 2, 62, 0
4, 2921400, Note_on_c, 2, 60, 100
4, 2921520, Note_on_c, 2, 60, 0
4, 2921520, Note_on_c, 2, 59, 100
4, 2921640, Note_on_c, 2, 59, 0
4, 2921640, Note_on_c, 2, 57, 100
4, 2921760, Note_on_c, 2, 57, 0
4, 2921760, Note_on_c, 2, 55, 100
4, 2921880, Note_on_c, 2, 55, 0
4, 2921880, Note_on_c, 2, 57, 100
4, 2922000, Note_on_c, 2, 57, 0
4, 2922000, Note_on_c, 2, 59, 100
4, 2922240, Note_on_c, 2, 59, 0
4, 2922480, Note_on_c, 2, 71, 100
4, 2922960, Note_on_c, 2, 71, 0
4, 2922960, Note_on_c, 2, 69, 100
4, 2923440, Note_on_c, 2, 69, 0
4, 2923440, Note_on_c, 2, 67, 100
4, 2923800, Note_on_c, 2, 67, 0
4, 2923800, Note_on_c, 2, 66, 100
4, 2923920, Note_on_c, 2, 66, 0
4, 2923920, Note_on_c, 2, 67, 100
4, 2924040, Note_on_c, 2, 67, 0
4, 2924040, Note_on_c, 2, 69, 100
4, 2924160, Note_on_c, 2, 69, 0
4, 2924160, Note_on_c, 2, 71, 100
4, 2924280, Note_on_c, 2, 71, 0
4, 2924280, Note_on_c, 2, 74, 100
4, 2924400, Note_on_c, 2, 74, 0
4, 2924400, Note_on_c, 2, 72, 100
4, 2924520, Note_on_c, 2, 72, 0
4, 2924520, Note_on_c, 2, 71, 100
4, 2924640, Note_on_c, 2, 71, 0
4, 2924640, Note_on_c, 2, 69, 100
4, 2924760, Note_on_c, 2, 69, 0
4, 2924760, Note_on_c, 2, 67, 100
4, 2924880, Note_on_c, 2, 67, 0
4, 2924880, Note_on_c, 2, 66, 100
4, 2925000, Note_on_c, 2, 66, 0
4, 2925000, Note_on_c, 2, 64, 100
4, 2925120, Note_on_c, 2, 64, 0
4, 2925120, Note_on_c, 2, 62, 100
4, 2925240, Note_on_c, 2, 62, 0
4, 2925240, Note_on_c, 2, 60, 100
4, 2925360, Note_on_c, 2, 60, 0
4, 2925360, Note_on_c, 2, 59, 100
4, 2925480, Note_on_c, 2, 59, 0
4, 2925480, Note_on_c, 2, 57, 100
4, 2925600, Note_on_c, 2, 57, 0
4, 2925600, Note_on_c, 2, 55, 100
4, 2926560, Note_on_c, 2, 55, 0
4, 2927280, Note_on_c, 2, 71, 100
4, 2927520, Note_on_c, 2, 71, 0
4, 2927520, Note_on_c, 2, 70, 100
4, 2927760, Note_on_c, 2, 70, 0
4, 2927760, Note_on_c, 2, 69, 100
4, 2928000, Note_on_c, 2, 69, 0
4, 2928000, Note_on_c, 2, 68, 100
4, 2928240, Note_on_c, 2, 68, 0
4, 2928240, Note_on_c, 2, 67, 100
4, 2928480, Note_on_c, 2, 67, 0
4, 2928480, Note_on_c, 2, 66, 100
4, 2928600, Note_on_c, 2, 66, 0
4, 2928600, Note_on_c, 2, 67, 100
4, 2928720, Note_on_c, 2, 67, 0
4, 2928720, Note_on_c, 2, 66, 100
4, 2928840, Note_on_c, 2, 66, 0
4, 2928840, Note_on_c, 2, 64, 100
4, 2928960, Note_on_c, 2, 64, 0
4, 2928960, Note_on_c, 2, 62, 100
4, 2929200, Note_on_c, 2, 62, 0
4, 2929680, Note_on_c, 2, 67, 100
4, 2929920, Note_on_c, 2, 67, 0
4, 2929920, Note_on_c, 2, 74, 100
4, 2930040, Note_on_c, 2, 74, 0
4, 2930040, Note_on_c, 2, 72, 100
4, 2930160, Note_on_c, 2, 72, 0
4, 2930160, Note_on_c, 2, 71, 100
4, 2930280, Note_on_c, 2, 71, 0
4, 2930280, Note_on_c, 2, 69, 100
4, 2930400, Note_on_c, 2, 69, 0
4, 2930400, Note_on_c, 2, 67, 100
4, 2930880, Note_on_c, 2, 67, 0
4, 2931120, Note_on_c, 2, 71, 100
4, 2931360, Note_on_c, 2, 71, 0
4, 2931360, Note_on_c, 2, 70, 100
4, 2931600, Note_on_c, 2, 70, 0
4, 2931600, Note_on_c, 2, 69, 100
4, 2931840, Note_on_c, 2, 69, 0
4, 2931840, Note_on_c, 2, 68, 100
4, 2932080, Note_on_c, 2, 68, 0
4, 2932080, Note_on_c, 2, 67, 100
4, 2932320, Note_on_c, 2, 67, 0
4, 2932320, Note_on_c, 2, 66, 100
4, 2932440, Note_on_c, 2, 66, 0
4, 2932440, Note_on_c, 2, 67, 100
4, 2932560, Note_on_c, 2, 67, 0
4, 2932560, Note_on_c, 2, 66, 100
4, 2932680, Note_on_c, 2, 66, 0
4, 2932680, Note_on_c, 2, 64, 100
4, 2932800, Note_on_c, 2, 64, 0
4, 2932800, Note_on_c, 2, 62, 100
4, 2933040, Note_on_c, 2, 62, 0
4, 2933520, Note_on_c, 2, 67, 100
4, 2933760, Note_on_c, 2, 67, 0
4, 2933760, Note_on_c, 2, 74, 100
4, 2933880, Note_on_c, 2, 74, 0
4, 2933880, Note_on_c, 2, 72, 100
4, 2934000, Note_on_c, 2, 72, 0
4, 2934000, Note_on_c, 2, 71, 100
4, 2934120, Note_on_c, 2, 71, 0
4, 2934120, Note_on_c, 2, 69, 100
4, 2934240, Note_on_c, 2, 69, 0
4, 2934240, Note_on_c, 2, 67, 100
4, 2934720, Note_on_c, 2, 67, 0
4, 2934960, Note_on_c, 2, 71, 100
4, 2935200, Note_on_c, 2, 71, 0
4, 2935200, Note_on_c, 2, 70, 100
4, 2935440, Note_on_c, 2, 70, 0
4, 2935440, Note_on_c, 2, 69, 100
4, 2935680, Note_on_c, 2, 69, 0
4, 2935680, Note_on_c, 2, 68, 100
4, 2935920, Note_on_c, 2, 68, 0
4, 2935920, Note_on_c, 2, 67, 100
4, 2936160, Note_on_c, 2, 67, 0
4, 2936160, Note_on_c, 2, 66, 100
4, 2936280, Note_on_c, 2, 66, 0
4, 2936280, Note_on_c, 2, 67, 100
4, 2936400, Note_on_c, 2, 67, 0
4, 2936400, Note_on_c, 2, 66, 100
4, 2936520, Note_on_c, 2, 66, 0
4, 2936520, Note_on_c, 2, 64, 100
4, 2936640, Note_on_c, 2, 64, 0
4, 2936640, Note_on_c, 2, 62, 100
4, 2936880, Note_on_c, 2, 62, 0
4, 2937360, Note_on_c, 2, 67, 100
4, 2937600, Note_on_c, 2, 67, 0
4, 2937600, Note_on_c, 2, 74, 100
4, 2937720, Note_on_c, 2, 74, 0
4, 2937720, Note_on_c, 2, 72, 100
4, 2937840, Note_on_c, 2, 72, 0
4, 2937840, Note_on_c, 2, 71, 100
4, 2937960, Note_on_c, 2, 71, 0
4, 2937960, Note_on_c, 2, 69, 100
4, 2938080, Note_on_c, 2, 69, 0
4, 2938080, Note_on_c, 2, 67, 100
4, 2939040, Note_on_c, 2, 67, 0
4, 2939160, Note_on_c, 2, 79, 100
4, 2939280, Note_on_c, 2, 79, 0
4, 2939280, Note_on_c, 2, 78, 100
4, 2939400, Note_on_c, 2, 78, 0
4, 2939400, Note_on_c, 2, 76, 100
4, 2939520, Note_on_c, 2, 76, 0
4, 2939520, Note_on_c, 2, 74, 100
4, 2939640, Note_on_c, 2, 74, 0
4, 2939640, Note_on_c, 2, 71, 100
4, 2939760, Note_on_c, 2, 71, 0
4, 2939760, Note_on_c, 2, 72, 100
4, 2939880, Note_on_c, 2, 72, 0
4, 2939880, Note_on_c, 2, 74, 100
4, 2940000, Note_on_c, 2, 74, 0
4, 2940000, Note_on_c, 2, 67, 100
4, 2940120, Note_on_c, 2, 67, 0
4, 2940120, Note_on_c, 2, 62, 100
4, 2940240, Note_on_c, 2, 62, 0
4, 2940240, Note_on_c, 2, 59, 100
4, 2940840, Note_on_c, 2, 59, 0
4, 2940840, Note_on_c, 2, 61, 100
4, 2940960, Note_on_c, 2, 61, 0
4, 2940960, Note_on_c, 2, 62, 100
4, 2941080, Note_on_c, 2, 62, 0
4, 2941080, Note_on_c, 2, 64, 100
4, 2941200, Note_on_c, 2, 64, 0
4, 2941200, Note_on_c, 2, 66, 100
4, 2941320, Note_on_c, 2, 66, 0
4, 2941320, Note_on_c, 2, 67, 100
4, 2941440, Note_on_c, 2, 67, 0
4, 2941440, Note_on_c, 2, 69, 100
4, 2941680, Note_on_c, 2, 69, 0
4, 2941680, Note_on_c, 2, 62, 100
4, 2941920, Note_on_c, 2, 62, 0
4, 2942040, Note_on_c, 2, 66, 100
4, 2942160, Note_on_c, 2, 66, 0
4, 2942160, Note_on_c, 2, 64, 100
4, 2942280, Note_on_c, 2, 64, 0
4, 2942280, Note_on_c, 2, 62, 100
4, 2942400, Note_on_c, 2, 62, 0
4, 2942400, Note_on_c, 2, 64, 100
4, 2942640, Note_on_c, 2, 64, 0
4, 2942640, Note_on_c, 2, 73, 100
4, 2942880, Note_on_c, 2, 73, 0
4, 2943000, Note_on_c, 2, 79, 100
4, 2943120, Note_on_c, 2, 79, 0
4, 2943120, Note_on_c, 2, 78, 100
4, 2943240, Note_on_c, 2, 78, 0
4, 2943240, Note_on_c, 2, 76, 100
4, 2943360, Note_on_c, 2, 76, 0
4, 2943360, Note_on_c, 2, 74, 100
4, 2943600, Note_on_c, 2, 74, 0
4, 2943600, Note_on_c, 2, 62, 100
4, 2943840, Note_on_c, 2, 62, 0
4, 2943960, Note_on_c, 2, 71, 100
4, 2944080, Note_on_c, 2, 71, 0
4, 2944080, Note_on_c, 2, 72, 100
4, 2944200, Note_on_c, 2, 72, 0
4, 2944200, Note_on_c, 2, 74, 100
4, 2944320, Note_on_c, 2, 74, 0
4, 2944320, Note_on_c, 2, 65, 100
4, 2944560, Note_on_c, 2, 65, 0
4, 2944560, Note_on_c, 2, 77, 100
4, 2944800, Note_on_c, 2, 77, 0
4, 2944920, Note_on_c, 2, 76, 100
4, 2945040, Note_on_c, 2, 76, 0
4, 2945040, Note_on_c, 2, 74, 100
4, 2945160, Note_on_c, 2, 74, 0
4, 2945160, Note_on_c, 2, 72, 100
4, 2945280, Note_on_c, 2, 72, 0
4, 2945280, Note_on_c, 2, 72, 100
4, 2945400, Note_on_c, 2, 72, 0
4, 2945400, Note_on_c, 2, 81, 100
4, 2945520, Note_on_c, 2, 81, 0
4, 2945520, Note_on_c, 2, 72, 100
4, 2945760, Note_on_c, 2, 72, 0
4, 2945880, Note_on_c, 2, 69, 100
4, 2946000, Note_on_c, 2, 69, 0
4, 2946000, Note_on_c, 2, 72, 100
4, 2946120, Note_on_c, 2, 72, 0
4, 2946120, Note_on_c, 2, 78, 100
4, 2946240, Note_on_c, 2, 78, 0
4, 2946240, Note_on_c, 2, 79, 100
4, 2946480, Note_on_c, 2, 79, 0
4, 2946480, Note_on_c, 2, 81, 100
4, 2946720, Note_on_c, 2, 81, 0
4, 2946720, Note_on_c, 2, 83, 100
4, 2946840, Note_on_c, 2, 83, 0
4, 2946840, Note_on_c, 2, 79, 100
4, 2946960, Note_on_c, 2, 79, 0
4, 2946960, Note_on_c, 2, 78, 100
4, 2947080, Note_on_c, 2, 78, 0
4, 2947080, Note_on_c, 2, 76, 100
4, 2947200, Note_on_c, 2, 76, 0
4, 2947200, Note_on_c, 2, 74, 100
4, 2947320, Note_on_c, 2, 74, 0
4, 2947320, Note_on_c, 2, 71, 100
4, 2947440, Note_on_c, 2, 71, 0
4, 2947440, Note_on_c, 2, 72, 100
4, 2947560, Note_on_c, 2, 72, 0
4, 2947560, Note_on_c, 2, 74, 100
4, 2947680, Note_on_c, 2, 74, 0
4, 2947680, Note_on_c, 2, 67, 100
4, 2947800, Note_on_c, 2, 67, 0
4, 2947800, Note_on_c, 2, 62, 100
4, 2947920, Note_on_c, 2, 62, 0
4, 2947920, Note_on_c, 2, 59, 100
4, 2948520, Note_on_c, 2, 59, 0
4, 2948520, Note_on_c, 2, 61, 100
4, 2948640, Note_on_c, 2, 61, 0
4, 2948640, Note_on_c, 2, 62, 100
4, 2948760, Note_on_c, 2, 62, 0
4, 2948760, Note_on_c, 2, 64, 100
4, 2948880, Note_on_c, 2, 64, 0
4, 2948880, Note_on_c, 2, 66, 100
4, 2949000, Note_on_c, 2, 66, 0
4, 2949000, Note_on_c, 2, 67, 100
4, 2949120, Note_on_c, 2, 67, 0
4, 2949120, Note_on_c, 2, 69, 100
4, 2949360, Note_on_c, 2, 69, 0
4, 2949360, Note_on_c, 2, 62, 100
4, 2949600, Note_on_c, 2, 62, 0
4, 2949720, Note_on_c, 2, 66, 100
4, 2949840, Note_on_c, 2, 66, 0
4, 2949840, Note_on_c, 2, 64, 100
4, 2949960, Note_on_c, 2, 64, 0
4, 2949960, Note_on_c, 2, 62, 100
4, 2950080, Note_on_c, 2, 62, 0
4, 2950080, Note_on_c, 2, 64, 100
4, 2950320, Note_on_c, 2, 64, 0
4, 2950320, Note_on_c, 2, 73, 100
4, 2950560, Note_on_c, 2, 73, 0
4, 2950680, Note_on_c, 2, 79, 100
4, 2950800, Note_on_c, 2, 79, 0
4, 2950800, Note_on_c, 2, 78, 100
4, 2950920, Note_on_c, 2, 78, 0
4, 2950920, Note_on_c, 2, 76, 100
4, 2951040, Note_on_c, 2, 76, 0
4, 2951040, Note_on_c, 2, 74, 100
4, 2951280, Note_on_c, 2, 74, 0
4, 2951280, Note_on_c, 2, 62, 100
4, 2951520, Note_on_c, 2, 62, 0
4, 2951640, Note_on_c, 2, 71, 100
4, 2951760, Note_on_c, 2, 71, 0
4, 2951760, Note_on_c, 2, 72, 100
4, 2951880, Note_on_c, 2, 72, 0
4, 2951880, Note_on_c, 2, 74, 100
4, 2952000, Note_on_c, 2, 74, 0
4, 2952000, Note_on_c, 2, 65, 100
4, 2952240, Note_on_c, 2, 65, 0
4, 2952240, Note_on_c, 2, 77, 100
4, 2952480, Note_on_c, 2, 77, 0
4, 2952600, Note_on_c, 2, 76, 100
4, 2952720, Note_on_c, 2, 76, 0
4, 2952720, Note_on_c, 2, 74, 100
4, 2952840, Note_on_c, 2, 74, 0
4, 2952840, Note_on_c, 2, 72, 100
4, 2952960, Note_on_c, 2, 72, 0
4, 2952960, Note_on_c, 2, 72, 100
4, 2953080, Note_on_c, 2, 72, 0
4, 2953080, Note_on_c, 2, 81, 100
4, 2953200, Note_on_c, 2, 81, 0
4, 2953200, Note_on_c, 2, 72, 100
4, 2953440, Note_on_c, 2, 72, 0
4, 2953560, Note_on_c, 2, 69, 100
4, 2953680, Note_on_c, 2, 69, 0
4, 2953680, Note_on_c, 2, 72, 100
4, 2953800, Note_on_c, 2, 72, 0
4, 2953800, Note_on_c, 2, 78, 100
4, 2953920, Note_on_c, 2, 78, 0
4, 2953920, Note_on_c, 2, 79, 100
4, 2954160, Note_on_c, 2, 79, 0
4, 2954160, Note_on_c, 2, 81, 100
4, 2954400, Note_on_c, 2, 81, 0
4, 2954400, Note_on_c, 2, 83, 100
4, 2954520, Note_on_c, 2, 83, 0
4, 2954520, Note_on_c, 2, 79, 100
4, 2954640, Note_on_c, 2, 79, 0
4, 2954640, Note_on_c, 2, 78, 100
4, 2954760, Note_on_c, 2, 78, 0
4, 2954760, Note_on_c, 2, 76, 100
4, 2954880, Note_on_c, 2, 76, 0
4, 2954880, Note_on_c, 2, 74, 100
4, 2955000, Note_on_c, 2, 74, 0
4, 2955000, Note_on_c, 2, 71, 100
4, 2955120, Note_on_c, 2, 71, 0
4, 2955120, Note_on_c, 2, 72, 100
4, 2955240, Note_on_c, 2, 72, 0
4, 2955240, Note_on_c, 2, 74, 100
4, 2955360, Note_on_c, 2, 74, 0
4, 2955360, Note_on_c, 2, 67, 100
4, 2955480, Note_on_c, 2, 67, 0
4, 2955480, Note_on_c, 2, 62, 100
4, 2955600, Note_on_c, 2, 62, 0
4, 2955600, Note_on_c, 2, 59, 100
4, 2956200, Note_on_c, 2, 59, 0
4, 2956200, Note_on_c, 2, 61, 100
4, 2956320, Note_on_c, 2, 61, 0
4, 2956320, Note_on_c, 2, 62, 100
4, 2956440, Note_on_c, 2, 62, 0
4, 2956440, Note_on_c, 2, 64, 100
4, 2956560, Note_on_c, 2, 64, 0
4, 2956560, Note_on_c, 2, 66, 100
4, 2956680, Note_on_c, 2, 66, 0
4, 2956680, Note_on_c, 2, 67, 100
4, 2956800, Note_on_c, 2, 67, 0
4, 2956800, Note_on_c, 2, 69, 100
4, 2957040, Note_on_c, 2, 69, 0
4, 2957040, Note_on_c, 2, 62, 100
4, 2957280, Note_on_c, 2, 62, 0
4, 2957400, Note_on_c, 2, 66, 100
4, 2957520, Note_on_c, 2, 66, 0
4, 2957520, Note_on_c, 2, 64, 100
4, 2957640, Note_on_c, 2, 64, 0
4, 2957640, Note_on_c, 2, 62, 100
4, 2957760, Note_on_c, 2, 62, 0
4, 2957760, Note_on_c, 2, 64, 100
4, 2958000, Note_on_c, 2, 64, 0
4, 2958000, Note_on_c, 2, 73, 100
4, 2958240, Note_on_c, 2, 73, 0
4, 2958360, Note_on_c, 2, 79, 100
4, 2958480, Note_on_c, 2, 79, 0
4, 2958480, Note_on_c, 2, 78, 100
4, 2958600, Note_on_c, 2, 78, 0
4, 2958600, Note_on_c, 2, 76, 100
4, 2958720, Note_on_c, 2, 76, 0
4, 2958720, Note_on_c, 2, 74, 100
4, 2960160, Note_on_c, 2, 74, 0
4, 2962080, Note_on_c, 2, 62, 100
4, 2963040, Note_on_c, 2, 62, 0
4, 2963040, Note_on_c, 2, 60, 100
4, 2963520, Note_on_c, 2, 60, 0
4, 2963520, Note_on_c, 2, 57, 100
4, 2964000, Note_on_c, 2, 57, 0
4, 2964000, Note_on_c, 2, 59, 100
4, 2964960, Note_on_c, 2, 59, 0
4, 2964960, Note_on_c, 2, 60, 100
4, 2965920, Note_on_c, 2, 60, 0
4, 2965920, Note_on_c, 2, 62, 100
4, 2966880, Note_on_c, 2, 62, 0
4, 2966880, Note_on_c, 2, 60, 100
4, 2967360, Note_on_c, 2, 60, 0
4, 2967360, Note_on_c, 2, 57, 100
4, 2967840, Note_on_c, 2, 57, 0
4, 2967840, Note_on_c, 2, 59, 100
4, 2968800, Note_on_c, 2, 59, 0
4, 2968800, Note_on_c, 2, 60, 100
4, 2969760, Note_on_c, 2, 60, 0
4, 2969760, Note_on_c, 2, 62, 100
4, 2970720, Note_on_c, 2, 62, 0
4, 2970720, Note_on_c, 2, 60, 100
4, 2971200, Note_on_c, 2, 60, 0
4, 2971200, Note_on_c, 2, 57, 100
4, 2971680, Note_on_c, 2, 57, 0
4, 2971680, Note_on_c, 2, 59, 100
4, 2973600, Note_on_c, 2, 59, 0
4, 2974800, Note_on_c, 2, 67, 100
4, 2975040, Note_on_c, 2, 67, 0
4, 2975040, Note_on_c, 2, 66, 100
4, 2975280, Note_on_c, 2, 66, 0
4, 2975280, Note_on_c, 2, 64, 100
4, 2975520, Note_on_c, 2, 64, 0
4, 2975520, Note_on_c, 2, 62, 100
4, 2975760, Note_on_c, 2, 62, 0
4, 2975760, Note_on_c, 2, 59, 100
4, 2976000, Note_on_c, 2, 59, 0
4, 2976000, Note_on_c, 2, 61, 100
4, 2976240, Note_on_c, 2, 61, 0
4, 2976240, Note_on_c, 2, 62, 100
4, 2976480, Note_on_c, 2, 62, 0
4, 2976480, Note_on_c, 2, 55, 100
4, 2976960, Note_on_c, 2, 55, 0
4, 2976960, Note_on_c, 2, 67, 100
4, 2977440, Note_on_c, 2, 67, 0
4, 2977680, Note_on_c, 2, 72, 100
4, 2977920, Note_on_c, 2, 72, 0
4, 2977920, Note_on_c, 2, 71, 100
4, 2978160, Note_on_c, 2, 71, 0
4, 2978160, Note_on_c, 2, 69, 100
4, 2978400, Note_on_c, 2, 69, 0
4, 2978400, Note_on_c, 2, 67, 100
4, 2978640, Note_on_c, 2, 67, 0
4, 2978640, Note_on_c, 2, 64, 100
4, 2978880, Note_on_c, 2, 64, 0
4, 2978880, Note_on_c, 2, 66, 100
4, 2979120, Note_on_c, 2, 66, 0
4, 2979120, Note_on_c, 2, 67, 100
4, 2979360, Note_on_c, 2, 67, 0
4, 2979360, Note_on_c, 2, 60, 100
4, 2979600, Note_on_c, 2, 60, 0
4, 2979600, Note_on_c, 2, 62, 100
4, 2979840, Note_on_c, 2, 62, 0
4, 2979840, Note_on_c, 2, 64, 100
4, 2980080, Note_on_c, 2, 64, 0
4, 2980080, Note_on_c, 2, 55, 100
4, 2980320, Note_on_c, 2, 55, 0
4, 2980560, Note_on_c, 2, 54, 100
4, 2980680, Note_on_c, 2, 54, 0
4, 2980680, Note_on_c, 2, 52, 100
4, 2980800, Note_on_c, 2, 52, 0
4, 2980800, Note_on_c, 2, 50, 100
4, 2981040, Note_on_c, 2, 50, 0
4, 2981040, Note_on_c, 2, 62, 100
4, 2981520, Note_on_c, 2, 62, 0
4, 2981520, Note_on_c, 2, 60, 100
4, 2981640, Note_on_c, 2, 60, 0
4, 2981640, Note_on_c, 2, 59, 100
4, 2981760, Note_on_c, 2, 59, 0
4, 2981760, Note_on_c, 2, 66, 100
4, 2982000, Note_on_c, 2, 66, 0
4, 2982000, Note_on_c, 2, 64, 100
4, 2982120, Note_on_c, 2, 64, 0
4, 2982120, Note_on_c, 2, 62, 100
4, 2982240, Note_on_c, 2, 62, 0
4, 2982240, Note_on_c, 2, 64, 100
4, 2982480, Note_on_c, 2, 64, 0
4, 2982480, Note_on_c, 2, 67, 100
4, 2982720, Note_on_c, 2, 67, 0
4, 2982720, Note_on_c, 2, 66, 100
4, 2982960, Note_on_c, 2, 66, 0
4, 2982960, Note_on_c, 2, 64, 100
4, 2983200, Note_on_c, 2, 64, 0
4, 2983200, Note_on_c, 2, 62, 100
4, 2983440, Note_on_c, 2, 62, 0
4, 2983440, Note_on_c, 2, 59, 100
4, 2983680, Note_on_c, 2, 59, 0
4, 2983680, Note_on_c, 2, 61, 100
4, 2983920, Note_on_c, 2, 61, 0
4, 2983920, Note_on_c, 2, 62, 100
4, 2984160, Note_on_c, 2, 62, 0
4, 2984160, Note_on_c, 2, 55, 100
4, 2984640, Note_on_c, 2, 55, 0
4, 2984640, Note_on_c, 2, 67, 100
4, 2985120, Note_on_c, 2, 67, 0
4, 2985360, Note_on_c, 2, 72, 100
4, 2985600, Note_on_c, 2, 72, 0
4, 2985600, Note_on_c, 2, 71, 100
4, 2985840, Note_on_c, 2, 71, 0
4, 2985840, Note_on_c, 2, 69, 100
4, 2986080, Note_on_c, 2, 69, 0
4, 2986080, Note_on_c, 2, 67, 100
4, 2986320, Note_on_c, 2, 67, 0
4, 2986320, Note_on_c, 2, 64, 100
4, 2986560, Note_on_c, 2, 64, 0
4, 2986560, Note_on_c, 2, 66, 100
4, 2986800, Note_on_c, 2, 66, 0
4, 2986800, Note_on_c, 2, 67, 100
4, 2987040, Note_on_c, 2, 67, 0
4, 2987040, Note_on_c, 2, 60, 100
4, 2987280, Note_on_c, 2, 60, 0
4, 2987280, Note_on_c, 2, 62, 100
4, 2987520, Note_on_c, 2, 62, 0
4, 2987520, Note_on_c, 2, 64, 100
4, 2987760, Note_on_c, 2, 64, 0
4, 2987760, Note_on_c, 2, 55, 100
4, 2988000, Note_on_c, 2, 55, 0
4, 2988240, Note_on_c, 2, 54, 100
4, 2988360, Note_on_c, 2, 54, 0
4, 2988360, Note_on_c, 2, 52, 100
4, 2988480, Note_on_c, 2, 52, 0
4, 2988480, Note_on_c, 2, 50, 100
4, 2988720, Note_on_c, 2, 50, 0
4, 2988720, Note_on_c, 2, 62, 100
4, 2989200, Note_on_c, 2, 62, 0
4, 2989200, Note_on_c, 2, 60, 100
4, 2989320, Note_on_c, 2, 60, 0
4, 2989320, Note_on_c, 2, 59, 100
4, 2989440, Note_on_c, 2, 59, 0
4, 2989440, Note_on_c, 2, 66, 100
4, 2989680, Note_on_c, 2, 66, 0
4, 2989680, Note_on_c, 2, 64, 100
4, 2989800, Note_on_c, 2, 64, 0
4, 2989800, Note_on_c, 2, 62, 100
4, 2989920, Note_on_c, 2, 62, 0
4, 2989920, Note_on_c, 2, 64, 100
4, 2990160, Note_on_c, 2, 64, 0
4, 2990160, Note_on_c, 2, 67, 100
4, 2990400, Note_on_c, 2, 67, 0
4, 2990400, Note_on_c, 2, 66, 100
4, 2990640, Note_on_c, 2, 66, 0
4, 2990640, Note_on_c, 2, 64, 100
4, 2990880, Note_on_c, 2, 64, 0
4, 2990880, Note_on_c, 2, 62, 100
4, 2991120, Note_on_c, 2, 62, 0
4, 2991120, Note_on_c, 2, 59, 100
4, 2991360, Note_on_c, 2, 59, 0
4, 2991360, Note_on_c, 2, 61, 100
4, 2991600, Note_on_c, 2, 61, 0
4, 2991600, Note_on_c, 2, 62, 100
4, 2991840, Note_on_c, 2, 62, 0
4, 2991840, Note_on_c, 2, 55, 100
4, 2992320, Note_on_c, 2, 55, 0
4, 2992320, Note_on_c, 2, 67, 100
4, 2992800, Note_on_c, 2, 67, 0
4, 2993040, Note_on_c, 2, 72, 100
4, 2993280, Note_on_c, 2, 72, 0
4, 2993280, Note_on_c, 2, 71, 100
4, 2993520, Note_on_c, 2, 71, 0
4, 2993520, Note_on_c, 2, 69, 100
4, 2993760, Note_on_c, 2, 69, 0
4, 2993760, Note_on_c, 2, 67, 100
4, 2994000, Note_on_c, 2, 67, 0
4, 2994000, Note_on_c, 2, 64, 100
4, 2994240, Note_on_c, 2, 64, 0
4, 2994240, Note_on_c, 2, 66, 100
4, 2994480, Note_on_c, 2, 66, 0
4, 2994480, Note_on_c, 2, 67, 100
4, 2994720, Note_on_c, 2, 67, 0
4, 2994720, Note_on_c, 2, 60, 100
4, 2994960, Note_on_c, 2, 60, 0
4, 2994960, Note_on_c, 2, 62, 100
4, 2995200, Note_on_c, 2, 62, 0
4, 2995200, Note_on_c, 2, 64, 100
4, 2995440, Note_on_c, 2, 64, 0
4, 2995440, Note_on_c, 2, 55, 100
4, 2995680, Note_on_c, 2, 55, 0
4, 2995920, Note_on_c, 2, 54, 100
4, 2996040, Note_on_c, 2, 54, 0
4, 2996040, Note_on_c, 2, 52, 100
4, 2996160, Note_on_c, 2, 52, 0
4, 2996160, Note_on_c, 2, 50, 100
4, 2996400, Note_on_c, 2, 50, 0
4, 2996400, Note_on_c, 2, 62, 100
4, 2998560, Note_on_c, 2, 62, 0
4, 2998560, End_track
5, 0, Start_track
5, 0, MIDI_port, 0
5, 0, Title_t, "The Goldberg Variations - BWV 988"
5, 0, Program_c, 3, 6
5, 0, Control_c, 3, 7, 100
5, 0, Control_c, 3, 10, 64
5, 184320, Note_on_c, 3, 71, 100
5, 184800, Note_on_c, 3, 71, 0
5, 184800, Note_on_c, 3, 76, 100
5, 184860, Note_on_c, 3, 76, 0
5, 184860, Note_on_c, 3, 74, 100
5, 184920, Note_on_c, 3, 74, 0
5, 184920, Note_on_c, 3, 76, 100
5, 185520, Note_on_c, 3, 76, 0
5, 185520, Note_on_c, 3, 74, 100
5, 185640, Note_on_c, 3, 74, 0
5, 185640, Note_on_c, 3, 72, 100
5, 185760, Note_on_c, 3, 72, 0
5, 185760, Note_on_c, 3, 74, 100
5, 185880, Note_on_c, 3, 74, 0
5, 185880, Note_on_c, 3, 72, 100
5, 186000, Note_on_c, 3, 72, 0
5, 186000, Note_on_c, 3, 71, 100
5, 186120, Note_on_c, 3, 71, 0
5, 186120, Note_on_c, 3, 69, 100
5, 186240, Note_on_c, 3, 69, 0
5, 186240, Note_on_c, 3, 67, 100
5, 186720, Note_on_c, 3, 67, 0
5, 186960, Note_on_c, 3, 81, 100
5, 187200, Note_on_c, 3, 81, 0
5, 187200, Note_on_c, 3, 78, 100
5, 187440, Note_on_c, 3, 78, 0
5, 187440, Note_on_c, 3, 74, 100
5, 187680, Note_on_c, 3, 74, 0
5, 188280, Note_on_c, 3, 74, 100
5, 188400, Note_on_c, 3, 74, 0
5, 188400, Note_on_c, 3, 72, 100
5, 188520, Note_on_c, 3, 72, 0
5, 188520, Note_on_c, 3, 76, 100
5, 188640, Note_on_c, 3, 76, 0
5, 188640, Note_on_c, 3, 74, 100
5, 188880, Note_on_c, 3, 74, 0
5, 188880, Note_on_c, 3, 71, 100
5, 189240, Note_on_c, 3, 71, 0
5, 189240, Note_on_c, 3, 69, 100
5, 189360, Note_on_c, 3, 69, 0
5, 189360, Note_on_c, 3, 67, 100
5, 189480, Note_on_c, 3, 67, 0
5, 189480, Note_on_c, 3, 71, 100
5, 189600, Note_on_c, 3, 71, 0
5, 189600, Note_on_c, 3, 69, 100
5, 189840, Note_on_c, 3, 69, 0
5, 189840, Note_on_c, 3, 67, 100
5, 190200, Note_on_c, 3, 67, 0
5, 190200, Note_on_c, 3, 66, 100
5, 190320, Note_on_c, 3, 66, 0
5, 190320, Note_on_c, 3, 64, 100
5, 190440, Note_on_c, 3, 64, 0
5, 190440, Note_on_c, 3, 67, 100
5, 190560, Note_on_c, 3, 67, 0
5, 190560, Note_on_c, 3, 66, 100
5, 191040, Note_on_c, 3, 66, 0
5, 191040, Note_on_c, 3, 67, 100
5, 191280, Note_on_c, 3, 67, 0
5, 192000, Note_on_c, 3, 67, 100
5, 192120, Note_on_c, 3, 67, 0
5, 192120, Note_on_c, 3, 69, 100
5, 192240, Note_on_c, 3, 69, 0
5, 192240, Note_on_c, 3, 71, 100
5, 192360, Note_on_c, 3, 71, 0
5, 192360, Note_on_c, 3, 74, 100
5, 192480, Note_on_c, 3, 74, 0
5, 192480, Note_on_c, 3, 76, 100
5, 193080, Note_on_c, 3, 76, 0
5, 193080, Note_on_c, 3, 74, 100
5, 193200, Note_on_c, 3, 74, 0
5, 193200, Note_on_c, 3, 73, 100
5, 193320, Note_on_c, 3, 73, 0
5, 193320, Note_on_c, 3, 76, 100
5, 193440, Note_on_c, 3, 76, 0
5, 193440, Note_on_c, 3, 74, 100
5, 193560, Note_on_c, 3, 74, 0
5, 193560, Note_on_c, 3, 73, 100
5, 193680, Note_on_c, 3, 73, 0
5, 193680, Note_on_c, 3, 71, 100
5, 193800, Note_on_c, 3, 71, 0
5, 193800, Note_on_c, 3, 69, 100
5, 193920, Note_on_c, 3, 69, 0
5, 193920, Note_on_c, 3, 67, 100
5, 194400, Note_on_c, 3, 67, 0
5, 194640, Note_on_c, 3, 79, 100
5, 194880, Note_on_c, 3, 79, 0
5, 194880, Note_on_c, 3, 76, 100
5, 195120, Note_on_c, 3, 76, 0
5, 195120, Note_on_c, 3, 73, 100
5, 195360, Note_on_c, 3, 73, 0
5, 195960, Note_on_c, 3, 69, 100
5, 196080, Note_on_c, 3, 69, 0
5, 196080, Note_on_c, 3, 67, 100
5, 196200, Note_on_c, 3, 67, 0
5, 196200, Note_on_c, 3, 71, 100
5, 196320, Note_on_c, 3, 71, 0
5, 196320, Note_on_c, 3, 69, 100
5, 196560, Note_on_c, 3, 69, 0
5, 196560, Note_on_c, 3, 66, 100
5, 196920, Note_on_c, 3, 66, 0
5, 196920, Note_on_c, 3, 64, 100
5, 197040, Note_on_c, 3, 64, 0
5, 197040, Note_on_c, 3, 62, 100
5, 197160, Note_on_c, 3, 62, 0
5, 197160, Note_on_c, 3, 66, 100
5, 197280, Note_on_c, 3, 66, 0
5, 197280, Note_on_c, 3, 64, 100
5, 197520, Note_on_c, 3, 64, 0
5, 197520, Note_on_c, 3, 62, 100
5, 197880, Note_on_c, 3, 62, 0
5, 197880, Note_on_c, 3, 61, 100
5, 198000, Note_on_c, 3, 61, 0
5, 198000, Note_on_c, 3, 59, 100
5, 198120, Note_on_c, 3, 59, 0
5, 198120, Note_on_c, 3, 62, 100
5, 198240, Note_on_c, 3, 62, 0
5, 198240, Note_on_c, 3, 61, 100
5, 198720, Note_on_c, 3, 61, 0
5, 198720, Note_on_c, 3, 62, 100
5, 198960, Note_on_c, 3, 62, 0
5, 199680, Note_on_c, 3, 71, 100
5, 200160, Note_on_c, 3, 71, 0
5, 200160, Note_on_c, 3, 76, 100
5, 200220, Note_on_c, 3, 76, 0
5, 200220, Note_on_c, 3, 74, 100
5, 200280, Note_on_c, 3, 74, 0
5, 200280, Note_on_c, 3, 76, 100
5, 200880, Note_on_c, 3, 76, 0
5, 200880, Note_on_c, 3, 74, 100
5, 201000, Note_on_c, 3, 74, 0
5, 201000, Note_on_c, 3, 72, 100
5, 201120, Note_on_c, 3, 72, 0
5, 201120, Note_on_c, 3, 74, 100
5, 201240, Note_on_c, 3, 74, 0
5, 201240, Note_on_c, 3, 72, 100
5, 201360, Note_on_c, 3, 72, 0
5, 201360, Note_on_c, 3, 71, 100
5, 201480, Note_on_c, 3, 71, 0
5, 201480, Note_on_c, 3, 69, 100
5, 201600, Note_on_c, 3, 69, 0
5, 201600, Note_on_c, 3, 67, 100
5, 202080, Note_on_c, 3, 67, 0
5, 202320, Note_on_c, 3, 81, 100
5, 202560, Note_on_c, 3, 81, 0
5, 202560, Note_on_c, 3, 78, 100
5, 202800, Note_on_c, 3, 78, 0
5, 202800, Note_on_c, 3, 74, 100
5, 203040, Note_on_c, 3, 74, 0
5, 203640, Note_on_c, 3, 74, 100
5, 203760, Note_on_c, 3, 74, 0
5, 203760, Note_on_c, 3, 72, 100
5, 203880, Note_on_c, 3, 72, 0
5, 203880, Note_on_c, 3, 76, 100
5, 204000, Note_on_c, 3, 76, 0
5, 204000, Note_on_c, 3, 74, 100
5, 204240, Note_on_c, 3, 74, 0
5, 204240, Note_on_c, 3, 71, 100
5, 204600, Note_on_c, 3, 71, 0
5, 204600, Note_on_c, 3, 69, 100
5, 204720, Note_on_c, 3, 69, 0
5, 204720, Note_on_c, 3, 67, 100
5, 204840, Note_on_c, 3, 67, 0
5, 204840, Note_on_c, 3, 71, 100
5, 204960, Note_on_c, 3, 71, 0
5, 204960, Note_on_c, 3, 69, 100
5, 205200, Note_on_c, 3, 69, 0
5, 205200, Note_on_c, 3, 67, 100
5, 205560, Note_on_c, 3, 67, 0
5, 205560, Note_on_c, 3, 66, 100
5, 205680, Note_on_c, 3, 66, 0
5, 205680, Note_on_c, 3, 64, 100
5, 205800, Note_on_c, 3, 64, 0
5, 205800, Note_on_c, 3, 67, 100
5, 205920, Note_on_c, 3, 67, 0
5, 205920, Note_on_c, 3, 66, 100
5, 206400, Note_on_c, 3, 66, 0
5, 206400, Note_on_c, 3, 67, 100
5, 206640, Note_on_c, 3, 67, 0
5, 207360, Note_on_c, 3, 67, 100
5, 207480, Note_on_c, 3, 67, 0
5, 207480, Note_on_c, 3, 69, 100
5, 207600, Note_on_c, 3, 69, 0
5, 207600, Note_on_c, 3, 71, 100
5, 207720, Note_on_c, 3, 71, 0
5, 207720, Note_on_c, 3, 74, 100
5, 207840, Note_on_c, 3, 74, 0
5, 207840, Note_on_c, 3, 76, 100
5, 208440, Note_on_c, 3, 76, 0
5, 208440, Note_on_c, 3, 74, 100
5, 208560, Note_on_c, 3, 74, 0
5, 208560, Note_on_c, 3, 73, 100
5, 208680, Note_on_c, 3, 73, 0
5, 208680, Note_on_c, 3, 76, 100
5, 208800, Note_on_c, 3, 76, 0
5, 208800, Note_on_c, 3, 74, 100
5, 208920, Note_on_c, 3, 74, 0
5, 208920, Note_on_c, 3, 73, 100
5, 209040, Note_on_c, 3, 73, 0
5, 209040, Note_on_c, 3, 71, 100
5, 209160, Note_on_c, 3, 71, 0
5, 209160, Note_on_c, 3, 69, 100
5, 209280, Note_on_c, 3, 69, 0
5, 209280, Note_on_c, 3, 67, 100
5, 209760, Note_on_c, 3, 67, 0
5, 210000, Note_on_c, 3, 79, 100
5, 210240, Note_on_c, 3, 79, 0
5, 210240, Note_on_c, 3, 76, 100
5, 210480, Note_on_c, 3, 76, 0
5, 210480, Note_on_c, 3, 73, 100
5, 210720, Note_on_c, 3, 73, 0
5, 211320, Note_on_c, 3, 69, 100
5, 211440, Note_on_c, 3, 69, 0
5, 211440, Note_on_c, 3, 67, 100
5, 211560, Note_on_c, 3, 67, 0
5, 211560, Note_on_c, 3, 71, 100
5, 211680, Note_on_c, 3, 71, 0
5, 211680, Note_on_c, 3, 69, 100
5, 211920, Note_on_c, 3, 69, 0
5, 211920, Note_on_c, 3, 66, 100
5, 212280, Note_on_c, 3, 66, 0
5, 212280, Note_on_c, 3, 64, 100
5, 212400, Note_on_c, 3, 64, 0
5, 212400, Note_on_c, 3, 62, 100
5, 212520, Note_on_c, 3, 62, 0
5, 212520, Note_on_c, 3, 66, 100
5, 212640, Note_on_c, 3, 66, 0
5, 212640, Note_on_c, 3, 64, 100
5, 212880, Note_on_c, 3, 64, 0
5, 212880, Note_on_c, 3, 62, 100
5, 213240, Note_on_c, 3, 62, 0
5, 213240, Note_on_c, 3, 61, 100
5, 213360, Note_on_c, 3, 61, 0
5, 213360, Note_on_c, 3, 59, 100
5, 213480, Note_on_c, 3, 59, 0
5, 213480, Note_on_c, 3, 62, 100
5, 213600, Note_on_c, 3, 62, 0
5, 213600, Note_on_c, 3, 61, 100
5, 214080, Note_on_c, 3, 61, 0
5, 214080, Note_on_c, 3, 62, 100
5, 214560, Note_on_c, 3, 62, 0
5, 215160, Note_on_c, 3, 78, 100
5, 215280, Note_on_c, 3, 78, 0
5, 215280, Note_on_c, 3, 76, 100
5, 215400, Note_on_c, 3, 76, 0
5, 215400, Note_on_c, 3, 79, 100
5, 215520, Note_on_c, 3, 79, 0
5, 215520, Note_on_c, 3, 78, 100
5, 215640, Note_on_c, 3, 78, 0
5, 215640, Note_on_c, 3, 76, 100
5, 215760, Note_on_c, 3, 76, 0
5, 215760, Note_on_c, 3, 74, 100
5, 215880, Note_on_c, 3, 74, 0
5, 215880, Note_on_c, 3, 73, 100
5, 216000, Note_on_c, 3, 73, 0
5, 216000, Note_on_c, 3, 74, 100
5, 216480, Note_on_c, 3, 74, 0
5, 216720, Note_on_c, 3, 71, 100
5, 216960, Note_on_c, 3, 71, 0
5, 216960, Note_on_c, 3, 67, 100
5, 217200, Note_on_c, 3, 67, 0
5, 217200, Note_on_c, 3, 64, 100
5, 217440, Note_on_c, 3, 64, 0
5, 217440, Note_on_c, 3, 69, 100
5, 218040, Note_on_c, 3, 69, 0
5, 218040, Note_on_c, 3, 67, 100
5, 218160, Note_on_c, 3, 67, 0
5, 218160, Note_on_c, 3, 66, 100
5, 218280, Note_on_c, 3, 66, 0
5, 218280, Note_on_c, 3, 69, 100
5, 218400, Note_on_c, 3, 69, 0
5, 218400, Note_on_c, 3, 67, 100
5, 218520, Note_on_c, 3, 67, 0
5, 218520, Note_on_c, 3, 66, 100
5, 218640, Note_on_c, 3, 66, 0
5, 218640, Note_on_c, 3, 64, 100
5, 218760, Note_on_c, 3, 64, 0
5, 218760, Note_on_c, 3, 63, 100
5, 218880, Note_on_c, 3, 63, 0
5, 218880, Note_on_c, 3, 64, 100
5, 219000, Note_on_c, 3, 64, 0
5, 219000, Note_on_c, 3, 71, 100
5, 219120, Note_on_c, 3, 71, 0
5, 219120, Note_on_c, 3, 69, 100
5, 219240, Note_on_c, 3, 69, 0
5, 219240, Note_on_c, 3, 72, 100
5, 219360, Note_on_c, 3, 72, 0
5, 219360, Note_on_c, 3, 71, 100
5, 219600, Note_on_c, 3, 71, 0
5, 219600, Note_on_c, 3, 67, 100
5, 219960, Note_on_c, 3, 67, 0
5, 219960, Note_on_c, 3, 66, 100
5, 220080, Note_on_c, 3, 66, 0
5, 220080, Note_on_c, 3, 64, 100
5, 220200, Note_on_c, 3, 64, 0
5, 220200, Note_on_c, 3, 67, 100
5, 220320, Note_on_c, 3, 67, 0
5, 220320, Note_on_c, 3, 66, 100
5, 220560, Note_on_c, 3, 66, 0
5, 220560, Note_on_c, 3, 64, 100
5, 220920, Note_on_c, 3, 64, 0
5, 220920, Note_on_c, 3, 63, 100
5, 221040, Note_on_c, 3, 63, 0
5, 221040, Note_on_c, 3, 61, 100
5, 221160, Note_on_c, 3, 61, 0
5, 221160, Note_on_c, 3, 64, 100
5, 221280, Note_on_c, 3, 64, 0
5, 221280, Note_on_c, 3, 63, 100
5, 221760, Note_on_c, 3, 63, 0
5, 221760, Note_on_c, 3, 64, 100
5, 222240, Note_on_c, 3, 64, 0
5, 222240, Note_on_c, 3, 71, 100
5, 222840, Note_on_c, 3, 71, 0
5, 222840, Note_on_c, 3, 69, 100
5, 222960, Note_on_c, 3, 69, 0
5, 222960, Note_on_c, 3, 67, 100
5, 223080, Note_on_c, 3, 67, 0
5, 223080, Note_on_c, 3, 71, 100
5, 223200, Note_on_c, 3, 71, 0
5, 223200, Note_on_c, 3, 69, 100
5, 223320, Note_on_c, 3, 69, 0
5, 223320, Note_on_c, 3, 67, 100
5, 223440, Note_on_c, 3, 67, 0
5, 223440, Note_on_c, 3, 66, 100
5, 223560, Note_on_c, 3, 66, 0
5, 223560, Note_on_c, 3, 64, 100
5, 223680, Note_on_c, 3, 64, 0
5, 223680, Note_on_c, 3, 62, 100
5, 224160, Note_on_c, 3, 62, 0
5, 224160, Note_on_c, 3, 67, 100
5, 224760, Note_on_c, 3, 67, 0
5, 224760, Note_on_c, 3, 66, 100
5, 224880, Note_on_c, 3, 66, 0
5, 224880, Note_on_c, 3, 64, 100
5, 225000, Note_on_c, 3, 64, 0
5, 225000, Note_on_c, 3, 67, 100
5, 225120, Note_on_c, 3, 67, 0
5, 225120, Note_on_c, 3, 66, 100
5, 225240, Note_on_c, 3, 66, 0
5, 225240, Note_on_c, 3, 64, 100
5, 225360, Note_on_c, 3, 64, 0
5, 225360, Note_on_c, 3, 62, 100
5, 225480, Note_on_c, 3, 62, 0
5, 225480, Note_on_c, 3, 60, 100
5, 225600, Note_on_c, 3, 60, 0
5, 225600, Note_on_c, 3, 62, 100
5, 226080, Note_on_c, 3, 62, 0
5, 226560, Note_on_c, 3, 74, 100
5, 227040, Note_on_c, 3, 74, 0
5, 227040, Note_on_c, 3, 77, 100
5, 227640, Note_on_c, 3, 77, 0
5, 227640, Note_on_c, 3, 76, 100
5, 227760, Note_on_c, 3, 76, 0
5, 227760, Note_on_c, 3, 74, 100
5, 227880, Note_on_c, 3, 74, 0
5, 227880, Note_on_c, 3, 77, 100
5, 228000, Note_on_c, 3, 77, 0
5, 228000, Note_on_c, 3, 76, 100
5, 228120, Note_on_c, 3, 76, 0
5, 228120, Note_on_c, 3, 79, 100
5, 228240, Note_on_c, 3, 79, 0
5, 228240, Note_on_c, 3, 78, 100
5, 228360, Note_on_c, 3, 78, 0
5, 228360, Note_on_c, 3, 79, 100
5, 228480, Note_on_c, 3, 79, 0
5, 228480, Note_on_c, 3, 81, 100
5, 228720, Note_on_c, 3, 81, 0
5, 228720, Note_on_c, 3, 74, 100
5, 229080, Note_on_c, 3, 74, 0
5, 229080, Note_on_c, 3, 72, 100
5, 229200, Note_on_c, 3, 72, 0
5, 229200, Note_on_c, 3, 71, 100
5, 229320, Note_on_c, 3, 71, 0
5, 229320, Note_on_c, 3, 69, 100
5, 229440, Note_on_c, 3, 69, 0
5, 229440, Note_on_c, 3, 71, 100
5, 229920, Note_on_c, 3, 71, 0
5, 230520, Note_on_c, 3, 78, 100
5, 230640, Note_on_c, 3, 78, 0
5, 230640, Note_on_c, 3, 76, 100
5, 230760, Note_on_c, 3, 76, 0
5, 230760, Note_on_c, 3, 79, 100
5, 230880, Note_on_c, 3, 79, 0
5, 230880, Note_on_c, 3, 78, 100
5, 231000, Note_on_c, 3, 78, 0
5, 231000, Note_on_c, 3, 76, 100
5, 231120, Note_on_c, 3, 76, 0
5, 231120, Note_on_c, 3, 74, 100
5, 231240, Note_on_c, 3, 74, 0
5, 231240, Note_on_c, 3, 73, 100
5, 231360, Note_on_c, 3, 73, 0
5, 231360, Note_on_c, 3, 74, 100
5, 231840, Note_on_c, 3, 74, 0
5, 232080, Note_on_c, 3, 71, 100
5, 232320, Note_on_c, 3, 71, 0
5, 232320, Note_on_c, 3, 67, 100
5, 232560, Note_on_c, 3, 67, 0
5, 232560, Note_on_c, 3, 64, 100
5, 232800, Note_on_c, 3, 64, 0
5, 232800, Note_on_c, 3, 69, 100
5, 233400, Note_on_c, 3, 69, 0
5, 233400, Note_on_c, 3, 67, 100
5, 233520, Note_on_c, 3, 67, 0
5, 233520, Note_on_c, 3, 66, 100
5, 233640, Note_on_c, 3, 66, 0
5, 233640, Note_on_c, 3, 69, 100
5, 233760, Note_on_c, 3, 69, 0
5, 233760, Note_on_c, 3, 67, 100
5, 233880, Note_on_c, 3, 67, 0
5, 233880, Note_on_c, 3, 66, 100
5, 234000, Note_on_c, 3, 66, 0
5, 234000, Note_on_c, 3, 64, 100
5, 234120, Note_on_c, 3, 64, 0
5, 234120, Note_on_c, 3, 63, 100
5, 234240, Note_on_c, 3, 63, 0
5, 234240, Note_on_c, 3, 64, 100
5, 234360, Note_on_c, 3, 64, 0
5, 234360, Note_on_c, 3, 71, 100
5, 234480, Note_on_c, 3, 71, 0
5, 234480, Note_on_c, 3, 69, 100
5, 234600, Note_on_c, 3, 69, 0
5, 234600, Note_on_c, 3, 72, 100
5, 234720, Note_on_c, 3, 72, 0
5, 234720, Note_on_c, 3, 71, 100
5, 234960, Note_on_c, 3, 71, 0
5, 234960, Note_on_c, 3, 67, 100
5, 235320, Note_on_c, 3, 67, 0
5, 235320, Note_on_c, 3, 66, 100
5, 235440, Note_on_c, 3, 66, 0
5, 235440, Note_on_c, 3, 64, 100
5, 235560, Note_on_c, 3, 64, 0
5, 235560, Note_on_c, 3, 67, 100
5, 235680, Note_on_c, 3, 67, 0
5, 235680, Note_on_c, 3, 66, 100
5, 235920, Note_on_c, 3, 66, 0
5, 235920, Note_on_c, 3, 64, 100
5, 236280, Note_on_c, 3, 64, 0
5, 236280, Note_on_c, 3, 63, 100
5, 236400, Note_on_c, 3, 63, 0
5, 236400, Note_on_c, 3, 61, 100
5, 236520, Note_on_c, 3, 61, 0
5, 236520, Note_on_c, 3, 64, 100
5, 236640, Note_on_c, 3, 64, 0
5, 236640, Note_on_c, 3, 63, 100
5, 237120, Note_on_c, 3, 63, 0
5, 237120, Note_on_c, 3, 64, 100
5, 237600, Note_on_c, 3, 64, 0
5, 237600, Note_on_c, 3, 71, 100
5, 238200, Note_on_c, 3, 71, 0
5, 238200, Note_on_c, 3, 69, 100
5, 238320, Note_on_c, 3, 69, 0
5, 238320, Note_on_c, 3, 67, 100
5, 238440, Note_on_c, 3, 67, 0
5, 238440, Note_on_c, 3, 71, 100
5, 238560, Note_on_c, 3, 71, 0
5, 238560, Note_on_c, 3, 69, 100
5, 238680, Note_on_c, 3, 69, 0
5, 238680, Note_on_c, 3, 67, 100
5, 238800, Note_on_c, 3, 67, 0
5, 238800, Note_on_c, 3, 66, 100
5, 238920, Note_on_c, 3, 66, 0
5, 238920, Note_on_c, 3, 64, 100
5, 239040, Note_on_c, 3, 64, 0
5, 239040, Note_on_c, 3, 62, 100
5, 239520, Note_on_c, 3, 62, 0
5, 239520, Note_on_c, 3, 67, 100
5, 240120, Note_on_c, 3, 67, 0
5, 240120, Note_on_c, 3, 66, 100
5, 240240, Note_on_c, 3, 66, 0
5, 240240, Note_on_c, 3, 64, 100
5, 240360, Note_on_c, 3, 64, 0
5, 240360, Note_on_c, 3, 67, 100
5, 240480, Note_on_c, 3, 67, 0
5, 240480, Note_on_c, 3, 66, 100
5, 240600, Note_on_c, 3, 66, 0
5, 240600, Note_on_c, 3, 64, 100
5, 240720, Note_on_c, 3, 64, 0
5, 240720, Note_on_c, 3, 62, 100
5, 240840, Note_on_c, 3, 62, 0
5, 240840, Note_on_c, 3, 60, 100
5, 240960, Note_on_c, 3, 60, 0
5, 240960, Note_on_c, 3, 62, 100
5, 241440, Note_on_c, 3, 62, 0
5, 241920, Note_on_c, 3, 74, 100
5, 242400, Note_on_c, 3, 74, 0
5, 242400, Note_on_c, 3, 77, 100
5, 243000, Note_on_c, 3, 77, 0
5, 243000, Note_on_c, 3, 76, 100
5, 243120, Note_on_c, 3, 76, 0
5, 243120, Note_on_c, 3, 74, 100
5, 243240, Note_on_c, 3, 74, 0
5, 243240, Note_on_c, 3, 77, 100
5, 243360, Note_on_c, 3, 77, 0
5, 243360, Note_on_c, 3, 76, 100
5, 243480, Note_on_c, 3, 76, 0
5, 243480, Note_on_c, 3, 79, 100
5, 243600, Note_on_c, 3, 79, 0
5, 243600, Note_on_c, 3, 78, 100
5, 243720, Note_on_c, 3, 78, 0
5, 243720, Note_on_c, 3, 79, 100
5, 243840, Note_on_c, 3, 79, 0
5, 243840, Note_on_c, 3, 81, 100
5, 244080, Note_on_c, 3, 81, 0
5, 244080, Note_on_c, 3, 74, 100
5, 244440, Note_on_c, 3, 74, 0
5, 244440, Note_on_c, 3, 72, 100
5, 244560, Note_on_c, 3, 72, 0
5, 244560, Note_on_c, 3, 71, 100
5, 244680, Note_on_c, 3, 71, 0
5, 244680, Note_on_c, 3, 69, 100
5, 244800, Note_on_c, 3, 69, 0
5, 244800, Note_on_c, 3, 71, 100
5, 245280, Note_on_c, 3, 71, 0
5, 248640, Note_on_c, 3, 71, 100
5, 249480, Note_on_c, 3, 71, 0
5, 249480, Note_on_c, 3, 72, 100
5, 249600, Note_on_c, 3, 72, 0
5, 249600, Note_on_c, 3, 74, 100
5, 249720, Note_on_c, 3, 74, 0
5, 249720, Note_on_c, 3, 72, 100
5, 249840, Note_on_c, 3, 72, 0
5, 249840, Note_on_c, 3, 74, 100
5, 249960, Note_on_c, 3, 74, 0
5, 249960, Note_on_c, 3, 76, 100
5, 250080, Note_on_c, 3, 76, 0
5, 250080, Note_on_c, 3, 69, 100
5, 250920, Note_on_c, 3, 69, 0
5, 250920, Note_on_c, 3, 71, 100
5, 251040, Note_on_c, 3, 71, 0
5, 251040, Note_on_c, 3, 72, 100
5, 251160, Note_on_c, 3, 72, 0
5, 251160, Note_on_c, 3, 71, 100
5, 251280, Note_on_c, 3, 71, 0
5, 251280, Note_on_c, 3, 72, 100
5, 251400, Note_on_c, 3, 72, 0
5, 251400, Note_on_c, 3, 74, 100
5, 251520, Note_on_c, 3, 74, 0
5, 251520, Note_on_c, 3, 67, 100
5, 252240, Note_on_c, 3, 67, 0
5, 252240, Note_on_c, 3, 79, 100
5, 253200, Note_on_c, 3, 79, 0
5, 253200, Note_on_c, 3, 81, 100
5, 253320, Note_on_c, 3, 81, 0
5, 253320, Note_on_c, 3, 79, 100
5, 253440, Note_on_c, 3, 79, 0
5, 253440, Note_on_c, 3, 78, 100
5, 253560, Note_on_c, 3, 78, 0
5, 253560, Note_on_c, 3, 79, 100
5, 253680, Note_on_c, 3, 79, 0
5, 253680, Note_on_c, 3, 81, 100
5, 253920, Note_on_c, 3, 81, 0
5, 254640, Note_on_c, 3, 74, 100
5, 254760, Note_on_c, 3, 74, 0
5, 254760, Note_on_c, 3, 72, 100
5, 254880, Note_on_c, 3, 72, 0
5, 254880, Note_on_c, 3, 71, 100
5, 255000, Note_on_c, 3, 71, 0
5, 255000, Note_on_c, 3, 69, 100
5, 255120, Note_on_c, 3, 69, 0
5, 255120, Note_on_c, 3, 71, 100
5, 255360, Note_on_c, 3, 71, 0
5, 255360, Note_on_c, 3, 72, 100
5, 255480, Note_on_c, 3, 72, 0
5, 255480, Note_on_c, 3, 71, 100
5, 255600, Note_on_c, 3, 71, 0
5, 255600, Note_on_c, 3, 69, 100
5, 255720, Note_on_c, 3, 69, 0
5, 255720, Note_on_c, 3, 71, 100
5, 255840, Note_on_c, 3, 71, 0
5, 255840, Note_on_c, 3, 67, 100
5, 256080, Note_on_c, 3, 67, 0
5, 256080, Note_on_c, 3, 76, 100
5, 256320, Note_on_c, 3, 76, 0
5, 256320, Note_on_c, 3, 74, 100
5, 256560, Note_on_c, 3, 74, 0
5, 256560, Note_on_c, 3, 72, 100
5, 256800, Note_on_c, 3, 72, 0
5, 256800, Note_on_c, 3, 78, 100
5, 257040, Note_on_c, 3, 78, 0
5, 257040, Note_on_c, 3, 81, 100
5, 257280, Note_on_c, 3, 81, 0
5, 257280, Note_on_c, 3, 71, 100
5, 257760, Note_on_c, 3, 71, 0
5, 257760, Note_on_c, 3, 79, 100
5, 258000, Note_on_c, 3, 79, 0
5, 258000, Note_on_c, 3, 79, 100
5, 258480, Note_on_c, 3, 79, 0
5, 258480, Note_on_c, 3, 78, 100
5, 258720, Note_on_c, 3, 78, 0
5, 259200, Note_on_c, 3, 83, 100
5, 259440, Note_on_c, 3, 83, 0
5, 259440, Note_on_c, 3, 81, 100
5, 259680, Note_on_c, 3, 81, 0
5, 259920, Note_on_c, 3, 74, 100
5, 260280, Note_on_c, 3, 74, 0
5, 260280, Note_on_c, 3, 76, 100
5, 260400, Note_on_c, 3, 76, 0
5, 260400, Note_on_c, 3, 74, 100
5, 260520, Note_on_c, 3, 74, 0
5, 260520, Note_on_c, 3, 72, 100
5, 260640, Note_on_c, 3, 72, 0
5, 260640, Note_on_c, 3, 71, 100
5, 260880, Note_on_c, 3, 71, 0
5, 260880, Note_on_c, 3, 76, 100
5, 261120, Note_on_c, 3, 76, 0
5, 261120, Note_on_c, 3, 71, 100
5, 261360, Note_on_c, 3, 71, 0
5, 261360, Note_on_c, 3, 74, 100
5, 261600, Note_on_c, 3, 74, 0
5, 261600, Note_on_c, 3, 73, 100
5, 261840, Note_on_c, 3, 73, 0
5, 261840, Note_on_c, 3, 74, 100
5, 262080, Note_on_c, 3, 74, 0
5, 262080, Note_on_c, 3, 76, 100
5, 262560, Note_on_c, 3, 76, 0
5, 262560, Note_on_c, 3, 73, 100
5, 262800, Note_on_c, 3, 73, 0
5, 262800, Note_on_c, 3, 69, 100
5, 263040, Note_on_c, 3, 69, 0
5, 263520, Note_on_c, 3, 74, 100
5, 263760, Note_on_c, 3, 74, 0
5, 263760, Note_on_c, 3, 67, 100
5, 264720, Note_on_c, 3, 67, 0
5, 264720, Note_on_c, 3, 66, 100
5, 264960, Note_on_c, 3, 66, 0
5, 264960, Note_on_c, 3, 67, 100
5, 265200, Note_on_c, 3, 67, 0
5, 265200, Note_on_c, 3, 64, 100
5, 265440, Note_on_c, 3, 64, 0
5, 265440, Note_on_c, 3, 69, 100
5, 265560, Note_on_c, 3, 69, 0
5, 265560, Note_on_c, 3, 67, 100
5, 265680, Note_on_c, 3, 67, 0
5, 265680, Note_on_c, 3, 66, 100
5, 265800, Note_on_c, 3, 66, 0
5, 265800, Note_on_c, 3, 64, 100
5, 265920, Note_on_c, 3, 64, 0
5, 265920, Note_on_c, 3, 62, 100
5, 266160, Note_on_c, 3, 62, 0
5, 266160, Note_on_c, 3, 64, 100
5, 266280, Note_on_c, 3, 64, 0
5, 266280, Note_on_c, 3, 66, 100
5, 266400, Note_on_c, 3, 66, 0
5, 266400, Note_on_c, 3, 67, 100
5, 266520, Note_on_c, 3, 67, 0
5, 266520, Note_on_c, 3, 69, 100
5, 266640, Note_on_c, 3, 69, 0
5, 266640, Note_on_c, 3, 71, 100
5, 266880, Note_on_c, 3, 71, 0
5, 266880, Note_on_c, 3, 74, 100
5, 267120, Note_on_c, 3, 74, 0
5, 267120, Note_on_c, 3, 73, 100
5, 267360, Note_on_c, 3, 73, 0
5, 267360, Note_on_c, 3, 74, 100
5, 268800, Note_on_c, 3, 74, 0
5, 271680, Note_on_c, 3, 71, 100
5, 272520, Note_on_c, 3, 71, 0
5, 272520, Note_on_c, 3, 72, 100
5, 272640, Note_on_c, 3, 72, 0
5, 272640, Note_on_c, 3, 74, 100
5, 272760, Note_on_c, 3, 74, 0
5, 272760, Note_on_c, 3, 72, 100
5, 272880, Note_on_c, 3, 72, 0
5, 272880, Note_on_c, 3, 74, 100
5, 273000, Note_on_c, 3, 74, 0
5, 273000, Note_on_c, 3, 76, 100
5, 273120, Note_on_c, 3, 76, 0
5, 273120, Note_on_c, 3, 69, 100
5, 273960, Note_on_c, 3, 69, 0
5, 273960, Note_on_c, 3, 71, 100
5, 274080, Note_on_c, 3, 71, 0
5, 274080, Note_on_c, 3, 72, 100
5, 274200, Note_on_c, 3, 72, 0
5, 274200, Note_on_c, 3, 71, 100
5, 274320, Note_on_c, 3, 71, 0
5, 274320, Note_on_c, 3, 72, 100
5, 274440, Note_on_c, 3, 72, 0
5, 274440, Note_on_c, 3, 74, 100
5, 274560, Note_on_c, 3, 74, 0
5, 274560, Note_on_c, 3, 67, 100
5, 275280, Note_on_c, 3, 67, 0
5, 275280, Note_on_c, 3, 79, 100
5, 276240, Note_on_c, 3, 79, 0
5, 276240, Note_on_c, 3, 81, 100
5, 276360, Note_on_c, 3, 81, 0
5, 276360, Note_on_c, 3, 79, 100
5, 276480, Note_on_c, 3, 79, 0
5, 276480, Note_on_c, 3, 78, 100
5, 276600, Note_on_c, 3, 78, 0
5, 276600, Note_on_c, 3, 79, 100
5, 276720, Note_on_c, 3, 79, 0
5, 276720, Note_on_c, 3, 81, 100
5, 276960, Note_on_c, 3, 81, 0
5, 277680, Note_on_c, 3, 74, 100
5, 277800, Note_on_c, 3, 74, 0
5, 277800, Note_on_c, 3, 72, 100
5, 277920, Note_on_c, 3, 72, 0
5, 277920, Note_on_c, 3, 71, 100
5, 278040, Note_on_c, 3, 71, 0
5, 278040, Note_on_c, 3, 69, 100
5, 278160, Note_on_c, 3, 69, 0
5, 278160, Note_on_c, 3, 71, 100
5, 278400, Note_on_c, 3, 71, 0
5, 278400, Note_on_c, 3, 72, 100
5, 278520, Note_on_c, 3, 72, 0
5, 278520, Note_on_c, 3, 71, 100
5, 278640, Note_on_c, 3, 71, 0
5, 278640, Note_on_c, 3, 69, 100
5, 278760, Note_on_c, 3, 69, 0
5, 278760, Note_on_c, 3, 71, 100
5, 278880, Note_on_c, 3, 71, 0
5, 278880, Note_on_c, 3, 67, 100
5, 279120, Note_on_c, 3, 67, 0
5, 279120, Note_on_c, 3, 76, 100
5, 279360, Note_on_c, 3, 76, 0
5, 279360, Note_on_c, 3, 74, 100
5, 279600, Note_on_c, 3, 74, 0
5, 279600, Note_on_c, 3, 72, 100
5, 279840, Note_on_c, 3, 72, 0
5, 279840, Note_on_c, 3, 78, 100
5, 280080, Note_on_c, 3, 78, 0
5, 280080, Note_on_c, 3, 81, 100
5, 280320, Note_on_c, 3, 81, 0
5, 280320, Note_on_c, 3, 71, 100
5, 280800, Note_on_c, 3, 71, 0
5, 280800, Note_on_c, 3, 79, 100
5, 281040, Note_on_c, 3, 79, 0
5, 281040, Note_on_c, 3, 79, 100
5, 281520, Note_on_c, 3, 79, 0
5, 281520, Note_on_c, 3, 78, 100
5, 281760, Note_on_c, 3, 78, 0
5, 282240, Note_on_c, 3, 83, 100
5, 282480, Note_on_c, 3, 83, 0
5, 282480, Note_on_c, 3, 81, 100
5, 282720, Note_on_c, 3, 81, 0
5, 282960, Note_on_c, 3, 74, 100
5, 283320, Note_on_c, 3, 74, 0
5, 283320, Note_on_c, 3, 76, 100
5, 283440, Note_on_c, 3, 76, 0
5, 283440, Note_on_c, 3, 74, 100
5, 283560, Note_on_c, 3, 74, 0
5, 283560, Note_on_c, 3, 72, 100
5, 283680, Note_on_c, 3, 72, 0
5, 283680, Note_on_c, 3, 71, 100
5, 283920, Note_on_c, 3, 71, 0
5, 283920, Note_on_c, 3, 76, 100
5, 284160, Note_on_c, 3, 76, 0
5, 284160, Note_on_c, 3, 71, 100
5, 284400, Note_on_c, 3, 71, 0
5, 284400, Note_on_c, 3, 74, 100
5, 284640, Note_on_c, 3, 74, 0
5, 284640, Note_on_c, 3, 73, 100
5, 284880, Note_on_c, 3, 73, 0
5, 284880, Note_on_c, 3, 74, 100
5, 285120, Note_on_c, 3, 74, 0
5, 285120, Note_on_c, 3, 76, 100
5, 285600, Note_on_c, 3, 76, 0
5, 285600, Note_on_c, 3, 73, 100
5, 285840, Note_on_c, 3, 73, 0
5, 285840, Note_on_c, 3, 69, 100
5, 286080, Note_on_c, 3, 69, 0
5, 286560, Note_on_c, 3, 74, 100
5, 286800, Note_on_c, 3, 74, 0
5, 286800, Note_on_c, 3, 67, 100
5, 287760, Note_on_c, 3, 67, 0
5, 287760, Note_on_c, 3, 66, 100
5, 288000, Note_on_c, 3, 66, 0
5, 288000, Note_on_c, 3, 67, 100
5, 288240, Note_on_c, 3, 67, 0
5, 288240, Note_on_c, 3, 64, 100
5, 288480, Note_on_c, 3, 64, 0
5, 288480, Note_on_c, 3, 69, 100
5, 288600, Note_on_c, 3, 69, 0
5, 288600, Note_on_c, 3, 67, 100
5, 288720, Note_on_c, 3, 67, 0
5, 288720, Note_on_c, 3, 66, 100
5, 288840, Note_on_c, 3, 66, 0
5, 288840, Note_on_c, 3, 64, 100
5, 288960, Note_on_c, 3, 64, 0
5, 288960, Note_on_c, 3, 62, 100
5, 289200, Note_on_c, 3, 62, 0
5, 289200, Note_on_c, 3, 64, 100
5, 289320, Note_on_c, 3, 64, 0
5, 289320, Note_on_c, 3, 66, 100
5, 289440, Note_on_c, 3, 66, 0
5, 289440, Note_on_c, 3, 67, 100
5, 289560, Note_on_c, 3, 67, 0
5, 289560, Note_on_c, 3, 69, 100
5, 289680, Note_on_c, 3, 69, 0
5, 289680, Note_on_c, 3, 71, 100
5, 289920, Note_on_c, 3, 71, 0
5, 289920, Note_on_c, 3, 74, 100
5, 290160, Note_on_c, 3, 74, 0
5, 290160, Note_on_c, 3, 73, 100
5, 290400, Note_on_c, 3, 73, 0
5, 290400, Note_on_c, 3, 74, 100
5, 291840, Note_on_c, 3, 74, 0
5, 295440, Note_on_c, 3, 81, 100
5, 296280, Note_on_c, 3, 81, 0
5, 296280, Note_on_c, 3, 83, 100
5, 296400, Note_on_c, 3, 83, 0
5, 296400, Note_on_c, 3, 84, 100
5, 296520, Note_on_c, 3, 84, 0
5, 296520, Note_on_c, 3, 81, 100
5, 296640, Note_on_c, 3, 81, 0
5, 296640, Note_on_c, 3, 83, 100
5, 296760, Note_on_c, 3, 83, 0
5, 296760, Note_on_c, 3, 84, 100
5, 296880, Note_on_c, 3, 84, 0
5, 296880, Note_on_c, 3, 83, 100
5, 297000, Note_on_c, 3, 83, 0
5, 297000, Note_on_c, 3, 81, 100
5, 297120, Note_on_c, 3, 81, 0
5, 297120, Note_on_c, 3, 79, 100
5, 297240, Note_on_c, 3, 79, 0
5, 297240, Note_on_c, 3, 78, 100
5, 297360, Note_on_c, 3, 78, 0
5, 297360, Note_on_c, 3, 76, 100
5, 297480, Note_on_c, 3, 76, 0
5, 297480, Note_on_c, 3, 75, 100
5, 297600, Note_on_c, 3, 75, 0
5, 297600, Note_on_c, 3, 76, 100
5, 297840, Note_on_c, 3, 76, 0
5, 297840, Note_on_c, 3, 78, 100
5, 298080, Note_on_c, 3, 78, 0
5, 298080, Note_on_c, 3, 79, 100
5, 298560, Note_on_c, 3, 79, 0
5, 298560, Note_on_c, 3, 78, 100
5, 298800, Note_on_c, 3, 78, 0
5, 298800, Note_on_c, 3, 76, 100
5, 299040, Note_on_c, 3, 76, 0
5, 299040, Note_on_c, 3, 75, 100
5, 300240, Note_on_c, 3, 75, 0
5, 301200, Note_on_c, 3, 69, 100
5, 302160, Note_on_c, 3, 69, 0
5, 302160, Note_on_c, 3, 71, 100
5, 302280, Note_on_c, 3, 71, 0
5, 302280, Note_on_c, 3, 69, 100
5, 302400, Note_on_c, 3, 69, 0
5, 302400, Note_on_c, 3, 67, 100
5, 302520, Note_on_c, 3, 67, 0
5, 302520, Note_on_c, 3, 66, 100
5, 302640, Note_on_c, 3, 66, 0
5, 302640, Note_on_c, 3, 67, 100
5, 302760, Note_on_c, 3, 67, 0
5, 302760, Note_on_c, 3, 69, 100
5, 302880, Note_on_c, 3, 69, 0
5, 302880, Note_on_c, 3, 71, 100
5, 303000, Note_on_c, 3, 71, 0
5, 303000, Note_on_c, 3, 67, 100
5, 303120, Note_on_c, 3, 67, 0
5, 303120, Note_on_c, 3, 69, 100
5, 303240, Note_on_c, 3, 69, 0
5, 303240, Note_on_c, 3, 71, 100
5, 303360, Note_on_c, 3, 71, 0
5, 303360, Note_on_c, 3, 64, 100
5, 303600, Note_on_c, 3, 64, 0
5, 303600, Note_on_c, 3, 66, 100
5, 303720, Note_on_c, 3, 66, 0
5, 303720, Note_on_c, 3, 67, 100
5, 303840, Note_on_c, 3, 67, 0
5, 303840, Note_on_c, 3, 69, 100
5, 303960, Note_on_c, 3, 69, 0
5, 303960, Note_on_c, 3, 71, 100
5, 304080, Note_on_c, 3, 71, 0
5, 304080, Note_on_c, 3, 72, 100
5, 304320, Note_on_c, 3, 72, 0
5, 304320, Note_on_c, 3, 64, 100
5, 304560, Note_on_c, 3, 64, 0
5, 304560, Note_on_c, 3, 63, 100
5, 304800, Note_on_c, 3, 63, 0
5, 304800, Note_on_c, 3, 64, 100
5, 305520, Note_on_c, 3, 64, 0
5, 306240, Note_on_c, 3, 76, 100
5, 307080, Note_on_c, 3, 76, 0
5, 307080, Note_on_c, 3, 78, 100
5, 307200, Note_on_c, 3, 78, 0
5, 307200, Note_on_c, 3, 79, 100
5, 307320, Note_on_c, 3, 79, 0
5, 307320, Note_on_c, 3, 76, 100
5, 307440, Note_on_c, 3, 76, 0
5, 307440, Note_on_c, 3, 78, 100
5, 307560, Note_on_c, 3, 78, 0
5, 307560, Note_on_c, 3, 79, 100
5, 307680, Note_on_c, 3, 79, 0
5, 307680, Note_on_c, 3, 72, 100
5, 307800, Note_on_c, 3, 72, 0
5, 307800, Note_on_c, 3, 74, 100
5, 307920, Note_on_c, 3, 74, 0
5, 307920, Note_on_c, 3, 76, 100
5, 308040, Note_on_c, 3, 76, 0
5, 308040, Note_on_c, 3, 72, 100
5, 308160, Note_on_c, 3, 72, 0
5, 308160, Note_on_c, 3, 74, 100
5, 308280, Note_on_c, 3, 74, 0
5, 308280, Note_on_c, 3, 76, 100
5, 308400, Note_on_c, 3, 76, 0
5, 308400, Note_on_c, 3, 69, 100
5, 308520, Note_on_c, 3, 69, 0
5, 308520, Note_on_c, 3, 71, 100
5, 308640, Note_on_c, 3, 71, 0
5, 308640, Note_on_c, 3, 72, 100
5, 308760, Note_on_c, 3, 72, 0
5, 308760, Note_on_c, 3, 69, 100
5, 308880, Note_on_c, 3, 69, 0
5, 308880, Note_on_c, 3, 71, 100
5, 309000, Note_on_c, 3, 71, 0
5, 309000, Note_on_c, 3, 72, 100
5, 309120, Note_on_c, 3, 72, 0
5, 309120, Note_on_c, 3, 71, 100
5, 309240, Note_on_c, 3, 71, 0
5, 309240, Note_on_c, 3, 72, 100
5, 309360, Note_on_c, 3, 72, 0
5, 309360, Note_on_c, 3, 74, 100
5, 309480, Note_on_c, 3, 74, 0
5, 309480, Note_on_c, 3, 71, 100
5, 309600, Note_on_c, 3, 71, 0
5, 309600, Note_on_c, 3, 72, 100
5, 309720, Note_on_c, 3, 72, 0
5, 309720, Note_on_c, 3, 74, 100
5, 309840, Note_on_c, 3, 74, 0
5, 309840, Note_on_c, 3, 67, 100
5, 310800, Note_on_c, 3, 67, 0
5, 310800, Note_on_c, 3, 79, 100
5, 311520, Note_on_c, 3, 79, 0
5, 311520, Note_on_c, 3, 78, 100
5, 311760, Note_on_c, 3, 78, 0
5, 311760, Note_on_c, 3, 81, 100
5, 312240, Note_on_c, 3, 81, 0
5, 312240, Note_on_c, 3, 79, 100
5, 312480, Note_on_c, 3, 79, 0
5, 312480, Note_on_c, 3, 77, 100
5, 312720, Note_on_c, 3, 77, 0
5, 312720, Note_on_c, 3, 76, 100
5, 312840, Note_on_c, 3, 76, 0
5, 312840, Note_on_c, 3, 74, 100
5, 312960, Note_on_c, 3, 74, 0
5, 312960, Note_on_c, 3, 72, 100
5, 313080, Note_on_c, 3, 72, 0
5, 313080, Note_on_c, 3, 76, 100
5, 313200, Note_on_c, 3, 76, 0
5, 313200, Note_on_c, 3, 74, 100
5, 313320, Note_on_c, 3, 74, 0
5, 313320, Note_on_c, 3, 72, 100
5, 313440, Note_on_c, 3, 72, 0
5, 313440, Note_on_c, 3, 71, 100
5, 314880, Note_on_c, 3, 71, 0
5, 318480, Note_on_c, 3, 81, 100
5, 319320, Note_on_c, 3, 81, 0
5, 319320, Note_on_c, 3, 83, 100
5, 319440, Note_on_c, 3, 83, 0
5, 319440, Note_on_c, 3, 84, 100
5, 319560, Note_on_c, 3, 84, 0
5, 319560, Note_on_c, 3, 81, 100
5, 319680, Note_on_c, 3, 81, 0
5, 319680, Note_on_c, 3, 83, 100
5, 319800, Note_on_c, 3, 83, 0
5, 319800, Note_on_c, 3, 84, 100
5, 319920, Note_on_c, 3, 84, 0
5, 319920, Note_on_c, 3, 83, 100
5, 320040, Note_on_c, 3, 83, 0
5, 320040, Note_on_c, 3, 81, 100
5, 320160, Note_on_c, 3, 81, 0
5, 320160, Note_on_c, 3, 79, 100
5, 320280, Note_on_c, 3, 79, 0
5, 320280, Note_on_c, 3, 78, 100
5, 320400, Note_on_c, 3, 78, 0
5, 320400, Note_on_c, 3, 76, 100
5, 320520, Note_on_c, 3, 76, 0
5, 320520, Note_on_c, 3, 75, 100
5, 320640, Note_on_c, 3, 75, 0
5, 320640, Note_on_c, 3, 76, 100
5, 320880, Note_on_c, 3, 76, 0
5, 320880, Note_on_c, 3, 78, 100
5, 321120, Note_on_c, 3, 78, 0
5, 321120, Note_on_c, 3, 79, 100
5, 321600, Note_on_c, 3, 79, 0
5, 321600, Note_on_c, 3, 78, 100
5, 321840, Note_on_c, 3, 78, 0
5, 321840, Note_on_c, 3, 76, 100
5, 322080, Note_on_c, 3, 76, 0
5, 322080, Note_on_c, 3, 75, 100
5, 323280, Note_on_c, 3, 75, 0
5, 324240, Note_on_c, 3, 69, 100
5, 325200, Note_on_c, 3, 69, 0
5, 325200, Note_on_c, 3, 71, 100
5, 325320, Note_on_c, 3, 71, 0
5, 325320, Note_on_c, 3, 69, 100
5, 325440, Note_on_c, 3, 69, 0
5, 325440, Note_on_c, 3, 67, 100
5, 325560, Note_on_c, 3, 67, 0
5, 325560, Note_on_c, 3, 66, 100
5, 325680, Note_on_c, 3, 66, 0
5, 325680, Note_on_c, 3, 67, 100
5, 325800, Note_on_c, 3, 67, 0
5, 325800, Note_on_c, 3, 69, 100
5, 325920, Note_on_c, 3, 69, 0
5, 325920, Note_on_c, 3, 71, 100
5, 326040, Note_on_c, 3, 71, 0
5, 326040, Note_on_c, 3, 67, 100
5, 326160, Note_on_c, 3, 67, 0
5, 326160, Note_on_c, 3, 69, 100
5, 326280, Note_on_c, 3, 69, 0
5, 326280, Note_on_c, 3, 71, 100
5, 326400, Note_on_c, 3, 71, 0
5, 326400, Note_on_c, 3, 64, 100
5, 326640, Note_on_c, 3, 64, 0
5, 326640, Note_on_c, 3, 66, 100
5, 326760, Note_on_c, 3, 66, 0
5, 326760, Note_on_c, 3, 67, 100
5, 326880, Note_on_c, 3, 67, 0
5, 326880, Note_on_c, 3, 69, 100
5, 327000, Note_on_c, 3, 69, 0
5, 327000, Note_on_c, 3, 71, 100
5, 327120, Note_on_c, 3, 71, 0
5, 327120, Note_on_c, 3, 72, 100
5, 327360, Note_on_c, 3, 72, 0
5, 327360, Note_on_c, 3, 64, 100
5, 327600, Note_on_c, 3, 64, 0
5, 327600, Note_on_c, 3, 63, 100
5, 327840, Note_on_c, 3, 63, 0
5, 327840, Note_on_c, 3, 64, 100
5, 328560, Note_on_c, 3, 64, 0
5, 329280, Note_on_c, 3, 76, 100
5, 330120, Note_on_c, 3, 76, 0
5, 330120, Note_on_c, 3, 78, 100
5, 330240, Note_on_c, 3, 78, 0
5, 330240, Note_on_c, 3, 79, 100
5, 330360, Note_on_c, 3, 79, 0
5, 330360, Note_on_c, 3, 76, 100
5, 330480, Note_on_c, 3, 76, 0
5, 330480, Note_on_c, 3, 78, 100
5, 330600, Note_on_c, 3, 78, 0
5, 330600, Note_on_c, 3, 79, 100
5, 330720, Note_on_c, 3, 79, 0
5, 330720, Note_on_c, 3, 72, 100
5, 330840, Note_on_c, 3, 72, 0
5, 330840, Note_on_c, 3, 74, 100
5, 330960, Note_on_c, 3, 74, 0
5, 330960, Note_on_c, 3, 76, 100
5, 331080, Note_on_c, 3, 76, 0
5, 331080, Note_on_c, 3, 72, 100
5, 331200, Note_on_c, 3, 72, 0
5, 331200, Note_on_c, 3, 74, 100
5, 331320, Note_on_c, 3, 74, 0
5, 331320, Note_on_c, 3, 76, 100
5, 331440, Note_on_c, 3, 76, 0
5, 331440, Note_on_c, 3, 69, 100
5, 331560, Note_on_c, 3, 69, 0
5, 331560, Note_on_c, 3, 71, 100
5, 331680, Note_on_c, 3, 71, 0
5, 331680, Note_on_c, 3, 72, 100
5, 331800, Note_on_c, 3, 72, 0
5, 331800, Note_on_c, 3, 69, 100
5, 331920, Note_on_c, 3, 69, 0
5, 331920, Note_on_c, 3, 71, 100
5, 332040, Note_on_c, 3, 71, 0
5, 332040, Note_on_c, 3, 72, 100
5, 332160, Note_on_c, 3, 72, 0
5, 332160, Note_on_c, 3, 71, 100
5, 332280, Note_on_c, 3, 71, 0
5, 332280, Note_on_c, 3, 72, 100
5, 332400, Note_on_c, 3, 72, 0
5, 332400, Note_on_c, 3, 74, 100
5, 332520, Note_on_c, 3, 74, 0
5, 332520, Note_on_c, 3, 71, 100
5, 332640, Note_on_c, 3, 71, 0
5, 332640, Note_on_c, 3, 72, 100
5, 332760, Note_on_c, 3, 72, 0
5, 332760, Note_on_c, 3, 74, 100
5, 332880, Note_on_c, 3, 74, 0
5, 332880, Note_on_c, 3, 67, 100
5, 333840, Note_on_c, 3, 67, 0
5, 333840, Note_on_c, 3, 79, 100
5, 334560, Note_on_c, 3, 79, 0
5, 334560, Note_on_c, 3, 78, 100
5, 334800, Note_on_c, 3, 78, 0
5, 334800, Note_on_c, 3, 81, 100
5, 335280, Note_on_c, 3, 81, 0
5, 335280, Note_on_c, 3, 79, 100
5, 335520, Note_on_c, 3, 79, 0
5, 335520, Note_on_c, 3, 77, 100
5, 335760, Note_on_c, 3, 77, 0
5, 335760, Note_on_c, 3, 76, 100
5, 335880, Note_on_c, 3, 76, 0
5, 335880, Note_on_c, 3, 74, 100
5, 336000, Note_on_c, 3, 74, 0
5, 336000, Note_on_c, 3, 72, 100
5, 336120, Note_on_c, 3, 72, 0
5, 336120, Note_on_c, 3, 76, 100
5, 336240, Note_on_c, 3, 76, 0
5, 336240, Note_on_c, 3, 74, 100
5, 336360, Note_on_c, 3, 74, 0
5, 336360, Note_on_c, 3, 72, 100
5, 336480, Note_on_c, 3, 72, 0
5, 336480, Note_on_c, 3, 71, 100
5, 337920, Note_on_c, 3, 71, 0
5, 476880, Note_on_c, 3, 81, 100
5, 477840, Note_on_c, 3, 81, 0
5, 477840, Note_on_c, 3, 79, 100
5, 477960, Note_on_c, 3, 79, 0
5, 477960, Note_on_c, 3, 78, 100
5, 478080, Note_on_c, 3, 78, 0
5, 478080, Note_on_c, 3, 76, 100
5, 478200, Note_on_c, 3, 76, 0
5, 478200, Note_on_c, 3, 74, 100
5, 478320, Note_on_c, 3, 74, 0
5, 478320, Note_on_c, 3, 72, 100
5, 479280, Note_on_c, 3, 72, 0
5, 479280, Note_on_c, 3, 71, 100
5, 479400, Note_on_c, 3, 71, 0
5, 479400, Note_on_c, 3, 69, 100
5, 479520, Note_on_c, 3, 69, 0
5, 479520, Note_on_c, 3, 67, 100
5, 479640, Note_on_c, 3, 67, 0
5, 479640, Note_on_c, 3, 66, 100
5, 479760, Note_on_c, 3, 66, 0
5, 479760, Note_on_c, 3, 64, 100
5, 480720, Note_on_c, 3, 64, 0
5, 480720, Note_on_c, 3, 62, 100
5, 480840, Note_on_c, 3, 62, 0
5, 480840, Note_on_c, 3, 60, 100
5, 480960, Note_on_c, 3, 60, 0
5, 480960, Note_on_c, 3, 59, 100
5, 481080, Note_on_c, 3, 59, 0
5, 481080, Note_on_c, 3, 57, 100
5, 481200, Note_on_c, 3, 57, 0
5, 481200, Note_on_c, 3, 59, 100
5, 482040, Note_on_c, 3, 59, 0
5, 482040, Note_on_c, 3, 57, 100
5, 482160, Note_on_c, 3, 57, 0
5, 482160, Note_on_c, 3, 60, 100
5, 482280, Note_on_c, 3, 60, 0
5, 482280, Note_on_c, 3, 59, 100
5, 482400, Note_on_c, 3, 59, 0
5, 482400, Note_on_c, 3, 57, 100
5, 482520, Note_on_c, 3, 57, 0
5, 482520, Note_on_c, 3, 55, 100
5, 482640, Note_on_c, 3, 55, 0
5, 482640, Note_on_c, 3, 57, 100
5, 482880, Note_on_c, 3, 57, 0
5, 482880, Note_on_c, 3, 69, 100
5, 483600, Note_on_c, 3, 69, 0
5, 483600, Note_on_c, 3, 67, 100
5, 483720, Note_on_c, 3, 67, 0
5, 483720, Note_on_c, 3, 66, 100
5, 483840, Note_on_c, 3, 66, 0
5, 483840, Note_on_c, 3, 64, 100
5, 483960, Note_on_c, 3, 64, 0
5, 483960, Note_on_c, 3, 62, 100
5, 484080, Note_on_c, 3, 62, 0
5, 484080, Note_on_c, 3, 61, 100
5, 484200, Note_on_c, 3, 61, 0
5, 484200, Note_on_c, 3, 64, 100
5, 484320, Note_on_c, 3, 64, 0
5, 484320, Note_on_c, 3, 69, 100
5, 484440, Note_on_c, 3, 69, 0
5, 484440, Note_on_c, 3, 71, 100
5, 484560, Note_on_c, 3, 71, 0
5, 484560, Note_on_c, 3, 72, 100
5, 485040, Note_on_c, 3, 72, 0
5, 485040, Note_on_c, 3, 71, 100
5, 485160, Note_on_c, 3, 71, 0
5, 485160, Note_on_c, 3, 69, 100
5, 485280, Note_on_c, 3, 69, 0
5, 485280, Note_on_c, 3, 67, 100
5, 485400, Note_on_c, 3, 67, 0
5, 485400, Note_on_c, 3, 66, 100
5, 485520, Note_on_c, 3, 66, 0
5, 485520, Note_on_c, 3, 64, 100
5, 486360, Note_on_c, 3, 64, 0
5, 486360, Note_on_c, 3, 62, 100
5, 486480, Note_on_c, 3, 62, 0
5, 486480, Note_on_c, 3, 61, 100
5, 486600, Note_on_c, 3, 61, 0
5, 486600, Note_on_c, 3, 64, 100
5, 486720, Note_on_c, 3, 64, 0
5, 486720, Note_on_c, 3, 62, 100
5, 486840, Note_on_c, 3, 62, 0
5, 486840, Note_on_c, 3, 61, 100
5, 486960, Note_on_c, 3, 61, 0
5, 486960, Note_on_c, 3, 62, 100
5, 487080, Note_on_c, 3, 62, 0
5, 487080, Note_on_c, 3, 60, 100
5, 487200, Note_on_c, 3, 60, 0
5, 487200, Note_on_c, 3, 59, 100
5, 487320, Note_on_c, 3, 59, 0
5, 487320, Note_on_c, 3, 57, 100
5, 487440, Note_on_c, 3, 57, 0
5, 487440, Note_on_c, 3, 55, 100
5, 487560, Note_on_c, 3, 55, 0
5, 487560, Note_on_c, 3, 54, 100
5, 487680, Note_on_c, 3, 54, 0
5, 487680, Note_on_c, 3, 55, 100
5, 487920, Note_on_c, 3, 55, 0
5, 488400, Note_on_c, 3, 81, 100
5, 489360, Note_on_c, 3, 81, 0
5, 489360, Note_on_c, 3, 79, 100
5, 489480, Note_on_c, 3, 79, 0
5, 489480, Note_on_c, 3, 78, 100
5, 489600, Note_on_c, 3, 78, 0
5, 489600, Note_on_c, 3, 76, 100
5, 489720, Note_on_c, 3, 76, 0
5, 489720, Note_on_c, 3, 74, 100
5, 489840, Note_on_c, 3, 74, 0
5, 489840, Note_on_c, 3, 72, 100
5, 490800, Note_on_c, 3, 72, 0
5, 490800, Note_on_c, 3, 71, 100
5, 490920, Note_on_c, 3, 71, 0
5, 490920, Note_on_c, 3, 69, 100
5, 491040, Note_on_c, 3, 69, 0
5, 491040, Note_on_c, 3, 67, 100
5, 491160, Note_on_c, 3, 67, 0
5, 491160, Note_on_c, 3, 66, 100
5, 491280, Note_on_c, 3, 66, 0
5, 491280, Note_on_c, 3, 64, 100
5, 492240, Note_on_c, 3, 64, 0
5, 492240, Note_on_c, 3, 62, 100
5, 492360, Note_on_c, 3, 62, 0
5, 492360, Note_on_c, 3, 60, 100
5, 492480, Note_on_c, 3, 60, 0
5, 492480, Note_on_c, 3, 59, 100
5, 492600, Note_on_c, 3, 59, 0
5, 492600, Note_on_c, 3, 57, 100
5, 492720, Note_on_c, 3, 57, 0
5, 492720, Note_on_c, 3, 59, 100
5, 493560, Note_on_c, 3, 59, 0
5, 493560, Note_on_c, 3, 57, 100
5, 493680, Note_on_c, 3, 57, 0
5, 493680, Note_on_c, 3, 60, 100
5, 493800, Note_on_c, 3, 60, 0
5, 493800, Note_on_c, 3, 59, 100
5, 493920, Note_on_c, 3, 59, 0
5, 493920, Note_on_c, 3, 57, 100
5, 494040, Note_on_c, 3, 57, 0
5, 494040, Note_on_c, 3, 55, 100
5, 494160, Note_on_c, 3, 55, 0
5, 494160, Note_on_c, 3, 57, 100
5, 494400, Note_on_c, 3, 57, 0
5, 494400, Note_on_c, 3, 69, 100
5, 495120, Note_on_c, 3, 69, 0
5, 495120, Note_on_c, 3, 67, 100
5, 495240, Note_on_c, 3, 67, 0
5, 495240, Note_on_c, 3, 66, 100
5, 495360, Note_on_c, 3, 66, 0
5, 495360, Note_on_c, 3, 64, 100
5, 495480, Note_on_c, 3, 64, 0
5, 495480, Note_on_c, 3, 62, 100
5, 495600, Note_on_c, 3, 62, 0
5, 495600, Note_on_c, 3, 61, 100
5, 495720, Note_on_c, 3, 61, 0
5, 495720, Note_on_c, 3, 64, 100
5, 495840, Note_on_c, 3, 64, 0
5, 495840, Note_on_c, 3, 69, 100
5, 495960, Note_on_c, 3, 69, 0
5, 495960, Note_on_c, 3, 71, 100
5, 496080, Note_on_c, 3, 71, 0
5, 496080, Note_on_c, 3, 72, 100
5, 496560, Note_on_c, 3, 72, 0
5, 496560, Note_on_c, 3, 71, 100
5, 496680, Note_on_c, 3, 71, 0
5, 496680, Note_on_c, 3, 69, 100
5, 496800, Note_on_c, 3, 69, 0
5, 496800, Note_on_c, 3, 67, 100
5, 496920, Note_on_c, 3, 67, 0
5, 496920, Note_on_c, 3, 66, 100
5, 497040, Note_on_c, 3, 66, 0
5, 497040, Note_on_c, 3, 64, 100
5, 497880, Note_on_c, 3, 64, 0
5, 497880, Note_on_c, 3, 62, 100
5, 498000, Note_on_c, 3, 62, 0
5, 498000, Note_on_c, 3, 61, 100
5, 498120, Note_on_c, 3, 61, 0
5, 498120, Note_on_c, 3, 64, 100
5, 498240, Note_on_c, 3, 64, 0
5, 498240, Note_on_c, 3, 62, 100
5, 498360, Note_on_c, 3, 62, 0
5, 498360, Note_on_c, 3, 61, 100
5, 498480, Note_on_c, 3, 61, 0
5, 498480, Note_on_c, 3, 62, 100
5, 499200, Note_on_c, 3, 62, 0
5, 499920, Note_on_c, 3, 83, 100
5, 500880, Note_on_c, 3, 83, 0
5, 500880, Note_on_c, 3, 81, 100
5, 501000, Note_on_c, 3, 81, 0
5, 501000, Note_on_c, 3, 79, 100
5, 501120, Note_on_c, 3, 79, 0
5, 501120, Note_on_c, 3, 78, 100
5, 501240, Note_on_c, 3, 78, 0
5, 501240, Note_on_c, 3, 76, 100
5, 501360, Note_on_c, 3, 76, 0
5, 501360, Note_on_c, 3, 75, 100
5, 501600, Note_on_c, 3, 75, 0
5, 501600, Note_on_c, 3, 74, 100
5, 502320, Note_on_c, 3, 74, 0
5, 502320, Note_on_c, 3, 72, 100
5, 502440, Note_on_c, 3, 72, 0
5, 502440, Note_on_c, 3, 71, 100
5, 502560, Note_on_c, 3, 71, 0
5, 502560, Note_on_c, 3, 69, 100
5, 502680, Note_on_c, 3, 69, 0
5, 502680, Note_on_c, 3, 67, 100
5, 502800, Note_on_c, 3, 67, 0
5, 502800, Note_on_c, 3, 66, 100
5, 503640, Note_on_c, 3, 66, 0
5, 503640, Note_on_c, 3, 64, 100
5, 503760, Note_on_c, 3, 64, 0
5, 503760, Note_on_c, 3, 63, 100
5, 503880, Note_on_c, 3, 63, 0
5, 503880, Note_on_c, 3, 66, 100
5, 504000, Note_on_c, 3, 66, 0
5, 504000, Note_on_c, 3, 64, 100
5, 504120, Note_on_c, 3, 64, 0
5, 504120, Note_on_c, 3, 63, 100
5, 504240, Note_on_c, 3, 63, 0
5, 504240, Note_on_c, 3, 64, 100
5, 504360, Note_on_c, 3, 64, 0
5, 504360, Note_on_c, 3, 62, 100
5, 504480, Note_on_c, 3, 62, 0
5, 504480, Note_on_c, 3, 60, 100
5, 504600, Note_on_c, 3, 60, 0
5, 504600, Note_on_c, 3, 59, 100
5, 504720, Note_on_c, 3, 59, 0
5, 504720, Note_on_c, 3, 57, 100
5, 504840, Note_on_c, 3, 57, 0
5, 504840, Note_on_c, 3, 56, 100
5, 504960, Note_on_c, 3, 56, 0
5, 504960, Note_on_c, 3, 57, 100
5, 505200, Note_on_c, 3, 57, 0
5, 505680, Note_on_c, 3, 62, 100
5, 506520, Note_on_c, 3, 62, 0
5, 506520, Note_on_c, 3, 59, 100
5, 506640, Note_on_c, 3, 59, 0
5, 506640, Note_on_c, 3, 60, 100
5, 506760, Note_on_c, 3, 60, 0
5, 506760, Note_on_c, 3, 57, 100
5, 506880, Note_on_c, 3, 57, 0
5, 506880, Note_on_c, 3, 60, 100
5, 507000, Note_on_c, 3, 60, 0
5, 507000, Note_on_c, 3, 64, 100
5, 507120, Note_on_c, 3, 64, 0
5, 507120, Note_on_c, 3, 66, 100
5, 507960, Note_on_c, 3, 66, 0
5, 507960, Note_on_c, 3, 63, 100
5, 508080, Note_on_c, 3, 63, 0
5, 508080, Note_on_c, 3, 64, 100
5, 508200, Note_on_c, 3, 64, 0
5, 508200, Note_on_c, 3, 60, 100
5, 508320, Note_on_c, 3, 60, 0
5, 508320, Note_on_c, 3, 64, 100
5, 508440, Note_on_c, 3, 64, 0
5, 508440, Note_on_c, 3, 67, 100
5, 508560, Note_on_c, 3, 67, 0
5, 508560, Note_on_c, 3, 69, 100
5, 509400, Note_on_c, 3, 69, 0
5, 509400, Note_on_c, 3, 67, 100
5, 509520, Note_on_c, 3, 67, 0
5, 509520, Note_on_c, 3, 66, 100
5, 509640, Note_on_c, 3, 66, 0
5, 509640, Note_on_c, 3, 69, 100
5, 509760, Note_on_c, 3, 69, 0
5, 509760, Note_on_c, 3, 67, 100
5, 509880, Note_on_c, 3, 67, 0
5, 509880, Note_on_c, 3, 66, 100
5, 510000, Note_on_c, 3, 66, 0
5, 510000, Note_on_c, 3, 67, 100
5, 510120, Note_on_c, 3, 67, 0
5, 510120, Note_on_c, 3, 66, 100
5, 510240, Note_on_c, 3, 66, 0
5, 510240, Note_on_c, 3, 64, 100
5, 510360, Note_on_c, 3, 64, 0
5, 510360, Note_on_c, 3, 62, 100
5, 510480, Note_on_c, 3, 62, 0
5, 510480, Note_on_c, 3, 60, 100
5, 510600, Note_on_c, 3, 60, 0
5, 510600, Note_on_c, 3, 59, 100
5, 510720, Note_on_c, 3, 59, 0
5, 510720, Note_on_c, 3, 57, 100
5, 510960, Note_on_c, 3, 57, 0
5, 511440, Note_on_c, 3, 83, 100
5, 512400, Note_on_c, 3, 83, 0
5, 512400, Note_on_c, 3, 81, 100
5, 512520, Note_on_c, 3, 81, 0
5, 512520, Note_on_c, 3, 79, 100
5, 512640, Note_on_c, 3, 79, 0
5, 512640, Note_on_c, 3, 78, 100
5, 512760, Note_on_c, 3, 78, 0
5, 512760, Note_on_c, 3, 76, 100
5, 512880, Note_on_c, 3, 76, 0
5, 512880, Note_on_c, 3, 75, 100
5, 513120, Note_on_c, 3, 75, 0
5, 513120, Note_on_c, 3, 74, 100
5, 513840, Note_on_c, 3, 74, 0
5, 513840, Note_on_c, 3, 72, 100
5, 513960, Note_on_c, 3, 72, 0
5, 513960, Note_on_c, 3, 71, 100
5, 514080, Note_on_c, 3, 71, 0
5, 514080, Note_on_c, 3, 69, 100
5, 514200, Note_on_c, 3, 69, 0
5, 514200, Note_on_c, 3, 67, 100
5, 514320, Note_on_c, 3, 67, 0
5, 514320, Note_on_c, 3, 66, 100
5, 515160, Note_on_c, 3, 66, 0
5, 515160, Note_on_c, 3, 64, 100
5, 515280, Note_on_c, 3, 64, 0
5, 515280, Note_on_c, 3, 63, 100
5, 515400, Note_on_c, 3, 63, 0
5, 515400, Note_on_c, 3, 66, 100
5, 515520, Note_on_c, 3, 66, 0
5, 515520, Note_on_c, 3, 64, 100
5, 515640, Note_on_c, 3, 64, 0
5, 515640, Note_on_c, 3, 63, 100
5, 515760, Note_on_c, 3, 63, 0
5, 515760, Note_on_c, 3, 64, 100
5, 515880, Note_on_c, 3, 64, 0
5, 515880, Note_on_c, 3, 62, 100
5, 516000, Note_on_c, 3, 62, 0
5, 516000, Note_on_c, 3, 60, 100
5, 516120, Note_on_c, 3, 60, 0
5, 516120, Note_on_c, 3, 59, 100
5, 516240, Note_on_c, 3, 59, 0
5, 516240, Note_on_c, 3, 57, 100
5, 516360, Note_on_c, 3, 57, 0
5, 516360, Note_on_c, 3, 56, 100
5, 516480, Note_on_c, 3, 56, 0
5, 516480, Note_on_c, 3, 57, 100
5, 516720, Note_on_c, 3, 57, 0
5, 517200, Note_on_c, 3, 62, 100
5, 518040, Note_on_c, 3, 62, 0
5, 518040, Note_on_c, 3, 59, 100
5, 518160, Note_on_c, 3, 59, 0
5, 518160, Note_on_c, 3, 60, 100
5, 518280, Note_on_c, 3, 60, 0
5, 518280, Note_on_c, 3, 57, 100
5, 518400, Note_on_c, 3, 57, 0
5, 518400, Note_on_c, 3, 60, 100
5, 518520, Note_on_c, 3, 60, 0
5, 518520, Note_on_c, 3, 64, 100
5, 518640, Note_on_c, 3, 64, 0
5, 518640, Note_on_c, 3, 66, 100
5, 519480, Note_on_c, 3, 66, 0
5, 519480, Note_on_c, 3, 63, 100
5, 519600, Note_on_c, 3, 63, 0
5, 519600, Note_on_c, 3, 64, 100
5, 519720, Note_on_c, 3, 64, 0
5, 519720, Note_on_c, 3, 60, 100
5, 519840, Note_on_c, 3, 60, 0
5, 519840, Note_on_c, 3, 64, 100
5, 519960, Note_on_c, 3, 64, 0
5, 519960, Note_on_c, 3, 67, 100
5, 520080, Note_on_c, 3, 67, 0
5, 520080, Note_on_c, 3, 69, 100
5, 520920, Note_on_c, 3, 69, 0
5, 520920, Note_on_c, 3, 67, 100
5, 521040, Note_on_c, 3, 67, 0
5, 521040, Note_on_c, 3, 66, 100
5, 521160, Note_on_c, 3, 66, 0
5, 521160, Note_on_c, 3, 69, 100
5, 521280, Note_on_c, 3, 69, 0
5, 521280, Note_on_c, 3, 67, 100
5, 521400, Note_on_c, 3, 67, 0
5, 521400, Note_on_c, 3, 66, 100
5, 521520, Note_on_c, 3, 66, 0
5, 521520, Note_on_c, 3, 67, 100
5, 522240, Note_on_c, 3, 67, 0
5, 708480, Note_on_c, 3, 67, 100
5, 708720, Note_on_c, 3, 67, 0
5, 708720, Note_on_c, 3, 66, 100
5, 708960, Note_on_c, 3, 66, 0
5, 708960, Note_on_c, 3, 67, 100
5, 709200, Note_on_c, 3, 67, 0
5, 709200, Note_on_c, 3, 69, 100
5, 709440, Note_on_c, 3, 69, 0
5, 709440, Note_on_c, 3, 71, 100
5, 709680, Note_on_c, 3, 71, 0
5, 709680, Note_on_c, 3, 66, 100
5, 709920, Note_on_c, 3, 66, 0
5, 709920, Note_on_c, 3, 71, 100
5, 710160, Note_on_c, 3, 71, 0
5, 710160, Note_on_c, 3, 69, 100
5, 710400, Note_on_c, 3, 69, 0
5, 710400, Note_on_c, 3, 67, 100
5, 710640, Note_on_c, 3, 67, 0
5, 710640, Note_on_c, 3, 71, 100
5, 710880, Note_on_c, 3, 71, 0
5, 710880, Note_on_c, 3, 76, 100
5, 711600, Note_on_c, 3, 76, 0
5, 711600, Note_on_c, 3, 78, 100
5, 711720, Note_on_c, 3, 78, 0
5, 711720, Note_on_c, 3, 76, 100
5, 711840, Note_on_c, 3, 76, 0
5, 711840, Note_on_c, 3, 74, 100
5, 712320, Note_on_c, 3, 74, 0
5, 712320, Note_on_c, 3, 76, 100
5, 712560, Note_on_c, 3, 76, 0
5, 712560, Note_on_c, 3, 74, 100
5, 712800, Note_on_c, 3, 74, 0
5, 712800, Note_on_c, 3, 76, 100
5, 713040, Note_on_c, 3, 76, 0
5, 713040, Note_on_c, 3, 78, 100
5, 713280, Note_on_c, 3, 78, 0
5, 713280, Note_on_c, 3, 79, 100
5, 713520, Note_on_c, 3, 79, 0
5, 713520, Note_on_c, 3, 74, 100
5, 713760, Note_on_c, 3, 74, 0
5, 713760, Note_on_c, 3, 79, 100
5, 714000, Note_on_c, 3, 79, 0
5, 714000, Note_on_c, 3, 78, 100
5, 714240, Note_on_c, 3, 78, 0
5, 714240, Note_on_c, 3, 76, 100
5, 714480, Note_on_c, 3, 76, 0
5, 714480, Note_on_c, 3, 78, 100
5, 714600, Note_on_c, 3, 78, 0
5, 714600, Note_on_c, 3, 79, 100
5, 714720, Note_on_c, 3, 79, 0
5, 714720, Note_on_c, 3, 81, 100
5, 715440, Note_on_c, 3, 81, 0
5, 715440, Note_on_c, 3, 79, 100
5, 715560, Note_on_c, 3, 79, 0
5, 715560, Note_on_c, 3, 78, 100
5, 715680, Note_on_c, 3, 78, 0
5, 715680, Note_on_c, 3, 79, 100
5, 715920, Note_on_c, 3, 79, 0
5, 715920, Note_on_c, 3, 67, 100
5, 716160, Note_on_c, 3, 67, 0
5, 716160, Note_on_c, 3, 69, 100
5, 716400, Note_on_c, 3, 69, 0
5, 716400, Note_on_c, 3, 67, 100
5, 716640, Note_on_c, 3, 67, 0
5, 716640, Note_on_c, 3, 69, 100
5, 716880, Note_on_c, 3, 69, 0
5, 716880, Note_on_c, 3, 71, 100
5, 717120, Note_on_c, 3, 71, 0
5, 717120, Note_on_c, 3, 72, 100
5, 717360, Note_on_c, 3, 72, 0
5, 717360, Note_on_c, 3, 67, 100
5, 717600, Note_on_c, 3, 67, 0
5, 717600, Note_on_c, 3, 72, 100
5, 717840, Note_on_c, 3, 72, 0
5, 717840, Note_on_c, 3, 71, 100
5, 718080, Note_on_c, 3, 71, 0
5, 718080, Note_on_c, 3, 69, 100
5, 718320, Note_on_c, 3, 69, 0
5, 718320, Note_on_c, 3, 71, 100
5, 718440, Note_on_c, 3, 71, 0
5, 718440, Note_on_c, 3, 73, 100
5, 718560, Note_on_c, 3, 73, 0
5, 718560, Note_on_c, 3, 74, 100
5, 719280, Note_on_c, 3, 74, 0
5, 719280, Note_on_c, 3, 73, 100
5, 719400, Note_on_c, 3, 73, 0
5, 719400, Note_on_c, 3, 71, 100
5, 719520, Note_on_c, 3, 71, 0
5, 719520, Note_on_c, 3, 73, 100
5, 719640, Note_on_c, 3, 73, 0
5, 719640, Note_on_c, 3, 74, 100
5, 719760, Note_on_c, 3, 74, 0
5, 719760, Note_on_c, 3, 76, 100
5, 720240, Note_on_c, 3, 76, 0
5, 720240, Note_on_c, 3, 74, 100
5, 720720, Note_on_c, 3, 74, 0
5, 720720, Note_on_c, 3, 73, 100
5, 720960, Note_on_c, 3, 73, 0
5, 720960, Note_on_c, 3, 74, 100
5, 721920, Note_on_c, 3, 74, 0
5, 723840, Note_on_c, 3, 67, 100
5, 724080, Note_on_c, 3, 67, 0
5, 724080, Note_on_c, 3, 66, 100
5, 724320, Note_on_c, 3, 66, 0
5, 724320, Note_on_c, 3, 67, 100
5, 724560, Note_on_c, 3, 67, 0
5, 724560, Note_on_c, 3, 69, 100
5, 724800, Note_on_c, 3, 69, 0
5, 724800, Note_on_c, 3, 71, 100
5, 725040, Note_on_c, 3, 71, 0
5, 725040, Note_on_c, 3, 66, 100
5, 725280, Note_on_c, 3, 66, 0
5, 725280, Note_on_c, 3, 71, 100
5, 725520, Note_on_c, 3, 71, 0
5, 725520, Note_on_c, 3, 69, 100
5, 725760, Note_on_c, 3, 69, 0
5, 725760, Note_on_c, 3, 67, 100
5, 726000, Note_on_c, 3, 67, 0
5, 726000, Note_on_c, 3, 71, 100
5, 726240, Note_on_c, 3, 71, 0
5, 726240, Note_on_c, 3, 76, 100
5, 726960, Note_on_c, 3, 76, 0
5, 726960, Note_on_c, 3, 78, 100
5, 727080, Note_on_c, 3, 78, 0
5, 727080, Note_on_c, 3, 76, 100
5, 727200, Note_on_c, 3, 76, 0
5, 727200, Note_on_c, 3, 74, 100
5, 727680, Note_on_c, 3, 74, 0
5, 727680, Note_on_c, 3, 76, 100
5, 727920, Note_on_c, 3, 76, 0
5, 727920, Note_on_c, 3, 74, 100
5, 728160, Note_on_c, 3, 74, 0
5, 728160, Note_on_c, 3, 76, 100
5, 728400, Note_on_c, 3, 76, 0
5, 728400, Note_on_c, 3, 78, 100
5, 728640, Note_on_c, 3, 78, 0
5, 728640, Note_on_c, 3, 79, 100
5, 728880, Note_on_c, 3, 79, 0
5, 728880, Note_on_c, 3, 74, 100
5, 729120, Note_on_c, 3, 74, 0
5, 729120, Note_on_c, 3, 79, 100
5, 729360, Note_on_c, 3, 79, 0
5, 729360, Note_on_c, 3, 78, 100
5, 729600, Note_on_c, 3, 78, 0
5, 729600, Note_on_c, 3, 76, 100
5, 729840, Note_on_c, 3, 76, 0
5, 729840, Note_on_c, 3, 78, 100
5, 729960, Note_on_c, 3, 78, 0
5, 729960, Note_on_c, 3, 79, 100
5, 730080, Note_on_c, 3, 79, 0
5, 730080, Note_on_c, 3, 81, 100
5, 730800, Note_on_c, 3, 81, 0
5, 730800, Note_on_c, 3, 79, 100
5, 730920, Note_on_c, 3, 79, 0
5, 730920, Note_on_c, 3, 78, 100
5, 731040, Note_on_c, 3, 78, 0
5, 731040, Note_on_c, 3, 79, 100
5, 731280, Note_on_c, 3, 79, 0
5, 731280, Note_on_c, 3, 67, 100
5, 731520, Note_on_c, 3, 67, 0
5, 731520, Note_on_c, 3, 69, 100
5, 731760, Note_on_c, 3, 69, 0
5, 731760, Note_on_c, 3, 67, 100
5, 732000, Note_on_c, 3, 67, 0
5, 732000, Note_on_c, 3, 69, 100
5, 732240, Note_on_c, 3, 69, 0
5, 732240, Note_on_c, 3, 71, 100
5, 732480, Note_on_c, 3, 71, 0
5, 732480, Note_on_c, 3, 72, 100
5, 732720, Note_on_c, 3, 72, 0
5, 732720, Note_on_c, 3, 67, 100
5, 732960, Note_on_c, 3, 67, 0
5, 732960, Note_on_c, 3, 72, 100
5, 733200, Note_on_c, 3, 72, 0
5, 733200, Note_on_c, 3, 71, 100
5, 733440, Note_on_c, 3, 71, 0
5, 733440, Note_on_c, 3, 69, 100
5, 733680, Note_on_c, 3, 69, 0
5, 733680, Note_on_c, 3, 71, 100
5, 733800, Note_on_c, 3, 71, 0
5, 733800, Note_on_c, 3, 73, 100
5, 733920, Note_on_c, 3, 73, 0
5, 733920, Note_on_c, 3, 74, 100
5, 734640, Note_on_c, 3, 74, 0
5, 734640, Note_on_c, 3, 73, 100
5, 734760, Note_on_c, 3, 73, 0
5, 734760, Note_on_c, 3, 71, 100
5, 734880, Note_on_c, 3, 71, 0
5, 734880, Note_on_c, 3, 73, 100
5, 735000, Note_on_c, 3, 73, 0
5, 735000, Note_on_c, 3, 74, 100
5, 735120, Note_on_c, 3, 74, 0
5, 735120, Note_on_c, 3, 76, 100
5, 735600, Note_on_c, 3, 76, 0
5, 735600, Note_on_c, 3, 74, 100
5, 736080, Note_on_c, 3, 74, 0
5, 736080, Note_on_c, 3, 73, 100
5, 736320, Note_on_c, 3, 73, 0
5, 736320, Note_on_c, 3, 74, 100
5, 737280, Note_on_c, 3, 74, 0
5, 739200, Note_on_c, 3, 74, 100
5, 739440, Note_on_c, 3, 74, 0
5, 739440, Note_on_c, 3, 71, 100
5, 739680, Note_on_c, 3, 71, 0
5, 739680, Note_on_c, 3, 73, 100
5, 739920, Note_on_c, 3, 73, 0
5, 739920, Note_on_c, 3, 75, 100
5, 740160, Note_on_c, 3, 75, 0
5, 740160, Note_on_c, 3, 76, 100
5, 740400, Note_on_c, 3, 76, 0
5, 740400, Note_on_c, 3, 71, 100
5, 740640, Note_on_c, 3, 71, 0
5, 740640, Note_on_c, 3, 76, 100
5, 740880, Note_on_c, 3, 76, 0
5, 740880, Note_on_c, 3, 78, 100
5, 741120, Note_on_c, 3, 78, 0
5, 741120, Note_on_c, 3, 79, 100
5, 741360, Note_on_c, 3, 79, 0
5, 741360, Note_on_c, 3, 73, 100
5, 741600, Note_on_c, 3, 73, 0
5, 741600, Note_on_c, 3, 77, 100
5, 742320, Note_on_c, 3, 77, 0
5, 742320, Note_on_c, 3, 76, 100
5, 742440, Note_on_c, 3, 76, 0
5, 742440, Note_on_c, 3, 75, 100
5, 742560, Note_on_c, 3, 75, 0
5, 742560, Note_on_c, 3, 76, 100
5, 742800, Note_on_c, 3, 76, 0
5, 743280, Note_on_c, 3, 72, 100
5, 743760, Note_on_c, 3, 72, 0
5, 743760, Note_on_c, 3, 71, 100
5, 743880, Note_on_c, 3, 71, 0
5, 743880, Note_on_c, 3, 69, 100
5, 744000, Note_on_c, 3, 69, 0
5, 744000, Note_on_c, 3, 67, 100
5, 744120, Note_on_c, 3, 67, 0
5, 744120, Note_on_c, 3, 66, 100
5, 744240, Note_on_c, 3, 66, 0
5, 744240, Note_on_c, 3, 64, 100
5, 744360, Note_on_c, 3, 64, 0
5, 744360, Note_on_c, 3, 63, 100
5, 744480, Note_on_c, 3, 63, 0
5, 744480, Note_on_c, 3, 64, 100
5, 744600, Note_on_c, 3, 64, 0
5, 744600, Note_on_c, 3, 66, 100
5, 744720, Note_on_c, 3, 66, 0
5, 744720, Note_on_c, 3, 67, 100
5, 744840, Note_on_c, 3, 67, 0
5, 744840, Note_on_c, 3, 64, 100
5, 744960, Note_on_c, 3, 64, 0
5, 744960, Note_on_c, 3, 62, 100
5, 745080, Note_on_c, 3, 62, 0
5, 745080, Note_on_c, 3, 60, 100
5, 745320, Note_on_c, 3, 60, 0
5, 745320, Note_on_c, 3, 62, 100
5, 745440, Note_on_c, 3, 62, 0
5, 745440, Note_on_c, 3, 60, 100
5, 745520, Note_on_c, 3, 60, 0
5, 745520, Note_on_c, 3, 59, 100
5, 745600, Note_on_c, 3, 59, 0
5, 745600, Note_on_c, 3, 60, 100
5, 745680, Note_on_c, 3, 60, 0
5, 745680, Note_on_c, 3, 59, 100
5, 745920, Note_on_c, 3, 59, 0
5, 745920, Note_on_c, 3, 60, 100
5, 746160, Note_on_c, 3, 60, 0
5, 746400, Note_on_c, 3, 67, 100
5, 747120, Note_on_c, 3, 67, 0
5, 747120, Note_on_c, 3, 66, 100
5, 747600, Note_on_c, 3, 66, 0
5, 747600, Note_on_c, 3, 64, 100
5, 747840, Note_on_c, 3, 64, 0
5, 747840, Note_on_c, 3, 66, 100
5, 748080, Note_on_c, 3, 66, 0
5, 748080, Note_on_c, 3, 69, 100
5, 748200, Note_on_c, 3, 69, 0
5, 748200, Note_on_c, 3, 67, 100
5, 748320, Note_on_c, 3, 67, 0
5, 748320, Note_on_c, 3, 69, 100
5, 748440, Note_on_c, 3, 69, 0
5, 748440, Note_on_c, 3, 72, 100
5, 748560, Note_on_c, 3, 72, 0
5, 748560, Note_on_c, 3, 71, 100
5, 748680, Note_on_c, 3, 71, 0
5, 748680, Note_on_c, 3, 69, 100
5, 748800, Note_on_c, 3, 69, 0
5, 748800, Note_on_c, 3, 67, 100
5, 749280, Note_on_c, 3, 67, 0
5, 749280, Note_on_c, 3, 69, 100
5, 749760, Note_on_c, 3, 69, 0
5, 749760, Note_on_c, 3, 71, 100
5, 750960, Note_on_c, 3, 71, 0
5, 750960, Note_on_c, 3, 76, 100
5, 751200, Note_on_c, 3, 76, 0
5, 751200, Note_on_c, 3, 74, 100
5, 751440, Note_on_c, 3, 74, 0
5, 751440, Note_on_c, 3, 72, 100
5, 751680, Note_on_c, 3, 72, 0
5, 751680, Note_on_c, 3, 71, 100
5, 752640, Note_on_c, 3, 71, 0
5, 754560, Note_on_c, 3, 74, 100
5, 754800, Note_on_c, 3, 74, 0
5, 754800, Note_on_c, 3, 71, 100
5, 755040, Note_on_c, 3, 71, 0
5, 755040, Note_on_c, 3, 73, 100
5, 755280, Note_on_c, 3, 73, 0
5, 755280, Note_on_c, 3, 75, 100
5, 755520, Note_on_c, 3, 75, 0
5, 755520, Note_on_c, 3, 76, 100
5, 755760, Note_on_c, 3, 76, 0
5, 755760, Note_on_c, 3, 71, 100
5, 756000, Note_on_c, 3, 71, 0
5, 756000, Note_on_c, 3, 76, 100
5, 756240, Note_on_c, 3, 76, 0
5, 756240, Note_on_c, 3, 78, 100
5, 756480, Note_on_c, 3, 78, 0
5, 756480, Note_on_c, 3, 79, 100
5, 756720, Note_on_c, 3, 79, 0
5, 756720, Note_on_c, 3, 73, 100
5, 756960, Note_on_c, 3, 73, 0
5, 756960, Note_on_c, 3, 77, 100
5, 757680, Note_on_c, 3, 77, 0
5, 757680, Note_on_c, 3, 76, 100
5, 757800, Note_on_c, 3, 76, 0
5, 757800, Note_on_c, 3, 75, 100
5, 757920, Note_on_c, 3, 75, 0
5, 757920, Note_on_c, 3, 76, 100
5, 758160, Note_on_c, 3, 76, 0
5, 758640, Note_on_c, 3, 72, 100
5, 759120, Note_on_c, 3, 72, 0
5, 759120, Note_on_c, 3, 71, 100
5, 759240, Note_on_c, 3, 71, 0
5, 759240, Note_on_c, 3, 69, 100
5, 759360, Note_on_c, 3, 69, 0
5, 759360, Note_on_c, 3, 67, 100
5, 759480, Note_on_c, 3, 67, 0
5, 759480, Note_on_c, 3, 66, 100
5, 759600, Note_on_c, 3, 66, 0
5, 759600, Note_on_c, 3, 64, 100
5, 759720, Note_on_c, 3, 64, 0
5, 759720, Note_on_c, 3, 63, 100
5, 759840, Note_on_c, 3, 63, 0
5, 759840, Note_on_c, 3, 64, 100
5, 759960, Note_on_c, 3, 64, 0
5, 759960, Note_on_c, 3, 66, 100
5, 760080, Note_on_c, 3, 66, 0
5, 760080, Note_on_c, 3, 67, 100
5, 760200, Note_on_c, 3, 67, 0
5, 760200, Note_on_c, 3, 64, 100
5, 760320, Note_on_c, 3, 64, 0
5, 760320, Note_on_c, 3, 62, 100
5, 760440, Note_on_c, 3, 62, 0
5, 760440, Note_on_c, 3, 60, 100
5, 760680, Note_on_c, 3, 60, 0
5, 760680, Note_on_c, 3, 62, 100
5, 760800, Note_on_c, 3, 62, 0
5, 760800, Note_on_c, 3, 60, 100
5, 760880, Note_on_c, 3, 60, 0
5, 760880, Note_on_c, 3, 59, 100
5, 760960, Note_on_c, 3, 59, 0
5, 760960, Note_on_c, 3, 60, 100
5, 761040, Note_on_c, 3, 60, 0
5, 761040, Note_on_c, 3, 59, 100
5, 761280, Note_on_c, 3, 59, 0
5, 761280, Note_on_c, 3, 60, 100
5, 761520, Note_on_c, 3, 60, 0
5, 761760, Note_on_c, 3, 67, 100
5, 762480, Note_on_c, 3, 67, 0
5, 762480, Note_on_c, 3, 66, 100
5, 762960, Note_on_c, 3, 66, 0
5, 762960, Note_on_c, 3, 64, 100
5, 763200, Note_on_c, 3, 64, 0
5, 763200, Note_on_c, 3, 66, 100
5, 763440, Note_on_c, 3, 66, 0
5, 763440, Note_on_c, 3, 69, 100
5, 763560, Note_on_c, 3, 69, 0
5, 763560, Note_on_c, 3, 67, 100
5, 763680, Note_on_c, 3, 67, 0
5, 763680, Note_on_c, 3, 69, 100
5, 763800, Note_on_c, 3, 69, 0
5, 763800, Note_on_c, 3, 72, 100
5, 763920, Note_on_c, 3, 72, 0
5, 763920, Note_on_c, 3, 71, 100
5, 764040, Note_on_c, 3, 71, 0
5, 764040, Note_on_c, 3, 69, 100
5, 764160, Note_on_c, 3, 69, 0
5, 764160, Note_on_c, 3, 67, 100
5, 764640, Note_on_c, 3, 67, 0
5, 764640, Note_on_c, 3, 69, 100
5, 765120, Note_on_c, 3, 69, 0
5, 765120, Note_on_c, 3, 71, 100
5, 766320, Note_on_c, 3, 71, 0
5, 766320, Note_on_c, 3, 76, 100
5, 766560, Note_on_c, 3, 76, 0
5, 766560, Note_on_c, 3, 74, 100
5, 766800, Note_on_c, 3, 74, 0
5, 766800, Note_on_c, 3, 72, 100
5, 767040, Note_on_c, 3, 72, 0
5, 767040, Note_on_c, 3, 71, 100
5, 768000, Note_on_c, 3, 71, 0
5, 984720, Note_on_c, 3, 62, 100
5, 984840, Note_on_c, 3, 62, 0
5, 984840, Note_on_c, 3, 64, 100
5, 984960, Note_on_c, 3, 64, 0
5, 984960, Note_on_c, 3, 62, 100
5, 985200, Note_on_c, 3, 62, 0
5, 985200, Note_on_c, 3, 60, 100
5, 985320, Note_on_c, 3, 60, 0
5, 985320, Note_on_c, 3, 59, 100
5, 985440, Note_on_c, 3, 59, 0
5, 985440, Note_on_c, 3, 57, 100
5, 985560, Note_on_c, 3, 57, 0
5, 985560, Note_on_c, 3, 59, 100
5, 985680, Note_on_c, 3, 59, 0
5, 985680, Note_on_c, 3, 60, 100
5, 985800, Note_on_c, 3, 60, 0
5, 985800, Note_on_c, 3, 62, 100
5, 985920, Note_on_c, 3, 62, 0
5, 985920, Note_on_c, 3, 55, 100
5, 986040, Note_on_c, 3, 55, 0
5, 986040, Note_on_c, 3, 60, 100
5, 986160, Note_on_c, 3, 60, 0
5, 986160, Note_on_c, 3, 59, 100
5, 986280, Note_on_c, 3, 59, 0
5, 986280, Note_on_c, 3, 57, 100
5, 986400, Note_on_c, 3, 57, 0
5, 986400, Note_on_c, 3, 55, 100
5, 986520, Note_on_c, 3, 55, 0
5, 986520, Note_on_c, 3, 54, 100
5, 986640, Note_on_c, 3, 54, 0
5, 986640, Note_on_c, 3, 52, 100
5, 986760, Note_on_c, 3, 52, 0
5, 986760, Note_on_c, 3, 50, 100
5, 986880, Note_on_c, 3, 50, 0
5, 986880, Note_on_c, 3, 49, 100
5, 987120, Note_on_c, 3, 49, 0
5, 987600, Note_on_c, 3, 50, 100
5, 987720, Note_on_c, 3, 50, 0
5, 987720, Note_on_c, 3, 52, 100
5, 987840, Note_on_c, 3, 52, 0
5, 987840, Note_on_c, 3, 54, 100
5, 987960, Note_on_c, 3, 54, 0
5, 987960, Note_on_c, 3, 55, 100
5, 988080, Note_on_c, 3, 55, 0
5, 988080, Note_on_c, 3, 57, 100
5, 988200, Note_on_c, 3, 57, 0
5, 988200, Note_on_c, 3, 59, 100
5, 988320, Note_on_c, 3, 59, 0
5, 988320, Note_on_c, 3, 60, 100
5, 988440, Note_on_c, 3, 60, 0
5, 988440, Note_on_c, 3, 62, 100
5, 988560, Note_on_c, 3, 62, 0
5, 988560, Note_on_c, 3, 64, 100
5, 988680, Note_on_c, 3, 64, 0
5, 988680, Note_on_c, 3, 62, 100
5, 988800, Note_on_c, 3, 62, 0
5, 988800, Note_on_c, 3, 62, 100
5, 989040, Note_on_c, 3, 62, 0
5, 989040, Note_on_c, 3, 64, 100
5, 989160, Note_on_c, 3, 64, 0
5, 989160, Note_on_c, 3, 66, 100
5, 989280, Note_on_c, 3, 66, 0
5, 989280, Note_on_c, 3, 67, 100
5, 989520, Note_on_c, 3, 67, 0
5, 990360, Note_on_c, 3, 55, 100
5, 990840, Note_on_c, 3, 55, 0
5, 990840, Note_on_c, 3, 59, 100
5, 990960, Note_on_c, 3, 59, 0
5, 990960, Note_on_c, 3, 60, 100
5, 991080, Note_on_c, 3, 60, 0
5, 991080, Note_on_c, 3, 62, 100
5, 991200, Note_on_c, 3, 62, 0
5, 991200, Note_on_c, 3, 64, 100
5, 991320, Note_on_c, 3, 64, 0
5, 991320, Note_on_c, 3, 66, 100
5, 991440, Note_on_c, 3, 66, 0
5, 991440, Note_on_c, 3, 67, 100
5, 991560, Note_on_c, 3, 67, 0
5, 991560, Note_on_c, 3, 64, 100
5, 991680, Note_on_c, 3, 64, 0
5, 991680, Note_on_c, 3, 66, 100
5, 991800, Note_on_c, 3, 66, 0
5, 991800, Note_on_c, 3, 62, 100
5, 991920, Note_on_c, 3, 62, 0
5, 991920, Note_on_c, 3, 57, 100
5, 992040, Note_on_c, 3, 57, 0
5, 992040, Note_on_c, 3, 55, 100
5, 992160, Note_on_c, 3, 55, 0
5, 992160, Note_on_c, 3, 54, 100
5, 992400, Note_on_c, 3, 54, 0
5, 992400, Note_on_c, 3, 60, 100
5, 992880, Note_on_c, 3, 60, 0
5, 992880, Note_on_c, 3, 60, 100
5, 993240, Note_on_c, 3, 60, 0
5, 993240, Note_on_c, 3, 59, 100
5, 993360, Note_on_c, 3, 59, 0
5, 993360, Note_on_c, 3, 64, 100
5, 993480, Note_on_c, 3, 64, 0
5, 993480, Note_on_c, 3, 62, 100
5, 993600, Note_on_c, 3, 62, 0
5, 993600, Note_on_c, 3, 60, 100
5, 993720, Note_on_c, 3, 60, 0
5, 993720, Note_on_c, 3, 62, 100
5, 993840, Note_on_c, 3, 62, 0
5, 993840, Note_on_c, 3, 64, 100
5, 993960, Note_on_c, 3, 64, 0
5, 993960, Note_on_c, 3, 54, 100
5, 994080, Note_on_c, 3, 54, 0
5, 994080, Note_on_c, 3, 55, 100
5, 994200, Note_on_c, 3, 55, 0
5, 994200, Note_on_c, 3, 57, 100
5, 994320, Note_on_c, 3, 57, 0
5, 994320, Note_on_c, 3, 59, 100
5, 994440, Note_on_c, 3, 59, 0
5, 994440, Note_on_c, 3, 60, 100
5, 994560, Note_on_c, 3, 60, 0
5, 994560, Note_on_c, 3, 62, 100
5, 995040, Note_on_c, 3, 62, 0
5, 996120, Note_on_c, 3, 64, 100
5, 996240, Note_on_c, 3, 64, 0
5, 996240, Note_on_c, 3, 62, 100
5, 996360, Note_on_c, 3, 62, 0
5, 996360, Note_on_c, 3, 61, 100
5, 996480, Note_on_c, 3, 61, 0
5, 996480, Note_on_c, 3, 59, 100
5, 996600, Note_on_c, 3, 59, 0
5, 996600, Note_on_c, 3, 57, 100
5, 996720, Note_on_c, 3, 57, 0
5, 996720, Note_on_c, 3, 55, 100
5, 996840, Note_on_c, 3, 55, 0
5, 996840, Note_on_c, 3, 52, 100
5, 996960, Note_on_c, 3, 52, 0
5, 996960, Note_on_c, 3, 54, 100
5, 997080, Note_on_c, 3, 54, 0
5, 997080, Note_on_c, 3, 55, 100
5, 997200, Note_on_c, 3, 55, 0
5, 997200, Note_on_c, 3, 57, 100
5, 997320, Note_on_c, 3, 57, 0
5, 997320, Note_on_c, 3, 59, 100
5, 997440, Note_on_c, 3, 59, 0
5, 997440, Note_on_c, 3, 61, 100
5, 997560, Note_on_c, 3, 61, 0
5, 997560, Note_on_c, 3, 62, 100
5, 997680, Note_on_c, 3, 62, 0
5, 997680, Note_on_c, 3, 64, 100
5, 997800, Note_on_c, 3, 64, 0
5, 997800, Note_on_c, 3, 66, 100
5, 997920, Note_on_c, 3, 66, 0
5, 997920, Note_on_c, 3, 67, 100
5, 998160, Note_on_c, 3, 67, 0
5, 999120, Note_on_c, 3, 57, 100
5, 999480, Note_on_c, 3, 57, 0
5, 999480, Note_on_c, 3, 59, 100
5, 999600, Note_on_c, 3, 59, 0
5, 999600, Note_on_c, 3, 61, 100
5, 999720, Note_on_c, 3, 61, 0
5, 999720, Note_on_c, 3, 59, 100
5, 999840, Note_on_c, 3, 59, 0
5, 999840, Note_on_c, 3, 57, 100
5, 999960, Note_on_c, 3, 57, 0
5, 999960, Note_on_c, 3, 55, 100
5, 1000080, Note_on_c, 3, 55, 0
5, 1000080, Note_on_c, 3, 54, 100
5, 1000200, Note_on_c, 3, 54, 0
5, 1000200, Note_on_c, 3, 52, 100
5, 1000320, Note_on_c, 3, 52, 0
5, 1000320, Note_on_c, 3, 50, 100
5, 1000560, Note_on_c, 3, 50, 0
5, 1000560, Note_on_c, 3, 62, 100
5, 1000680, Note_on_c, 3, 62, 0
5, 1000680, Note_on_c, 3, 64, 100
5, 1000800, Note_on_c, 3, 64, 0
5, 1000800, Note_on_c, 3, 62, 100
5, 1001400, Note_on_c, 3, 62, 0
5, 1001400, Note_on_c, 3, 59, 100
5, 1001520, Note_on_c, 3, 59, 0
5, 1001520, Note_on_c, 3, 61, 100
5, 1001640, Note_on_c, 3, 61, 0
5, 1001640, Note_on_c, 3, 62, 100
5, 1001760, Note_on_c, 3, 62, 0
5, 1001760, Note_on_c, 3, 64, 100
5, 1001880, Note_on_c, 3, 64, 0
5, 1001880, Note_on_c, 3, 66, 100
5, 1002000, Note_on_c, 3, 66, 0
5, 1002000, Note_on_c, 3, 64, 100
5, 1002120, Note_on_c, 3, 64, 0
5, 1002120, Note_on_c, 3, 62, 100
5, 1002240, Note_on_c, 3, 62, 0
5, 1002240, Note_on_c, 3, 64, 100
5, 1002360, Note_on_c, 3, 64, 0
5, 1002360, Note_on_c, 3, 61, 100
5, 1002480, Note_on_c, 3, 61, 0
5, 1002480, Note_on_c, 3, 62, 100
5, 1002600, Note_on_c, 3, 62, 0
5, 1002600, Note_on_c, 3, 64, 100
5, 1002720, Note_on_c, 3, 64, 0
5, 1002720, Note_on_c, 3, 66, 100
5, 1003440, Note_on_c, 3, 66, 0
5, 1003440, Note_on_c, 3, 55, 100
5, 1003680, Note_on_c, 3, 55, 0
5, 1003680, Note_on_c, 3, 57, 100
5, 1003920, Note_on_c, 3, 57, 0
5, 1003920, Note_on_c, 3, 59, 100
5, 1004160, Note_on_c, 3, 59, 0
5, 1004160, Note_on_c, 3, 61, 100
5, 1004400, Note_on_c, 3, 61, 0
5, 1004400, Note_on_c, 3, 52, 100
5, 1004640, Note_on_c, 3, 52, 0
5, 1004640, Note_on_c, 3, 62, 100
5, 1005360, Note_on_c, 3, 62, 0
5, 1005360, Note_on_c, 3, 64, 100
5, 1005600, Note_on_c, 3, 64, 0
5, 1005600, Note_on_c, 3, 66, 100
5, 1005720, Note_on_c, 3, 66, 0
5, 1005720, Note_on_c, 3, 61, 100
5, 1005840, Note_on_c, 3, 61, 0
5, 1005840, Note_on_c, 3, 62, 100
5, 1006080, Note_on_c, 3, 62, 0
5, 1007760, Note_on_c, 3, 62, 100
5, 1007880, Note_on_c, 3, 62, 0
5, 1007880, Note_on_c, 3, 64, 100
5, 1008000, Note_on_c, 3, 64, 0
5, 1008000, Note_on_c, 3, 62, 100
5, 1008240, Note_on_c, 3, 62, 0
5, 1008240, Note_on_c, 3, 60, 100
5, 1008360, Note_on_c, 3, 60, 0
5, 1008360, Note_on_c, 3, 59, 100
5, 1008480, Note_on_c, 3, 59, 0
5, 1008480, Note_on_c, 3, 57, 100
5, 1008600, Note_on_c, 3, 57, 0
5, 1008600, Note_on_c, 3, 59, 100
5, 1008720, Note_on_c, 3, 59, 0
5, 1008720, Note_on_c, 3, 60, 100
5, 1008840, Note_on_c, 3, 60, 0
5, 1008840, Note_on_c, 3, 62, 100
5, 1008960, Note_on_c, 3, 62, 0
5, 1008960, Note_on_c, 3, 55, 100
5, 1009080, Note_on_c, 3, 55, 0
5, 1009080, Note_on_c, 3, 60, 100
5, 1009200, Note_on_c, 3, 60, 0
5, 1009200, Note_on_c, 3, 59, 100
5, 1009320, Note_on_c, 3, 59, 0
5, 1009320, Note_on_c, 3, 57, 100
5, 1009440, Note_on_c, 3, 57, 0
5, 1009440, Note_on_c, 3, 55, 100
5, 1009560, Note_on_c, 3, 55, 0
5, 1009560, Note_on_c, 3, 54, 100
5, 1009680, Note_on_c, 3, 54, 0
5, 1009680, Note_on_c, 3, 52, 100
5, 1009800, Note_on_c, 3, 52, 0
5, 1009800, Note_on_c, 3, 50, 100
5, 1009920, Note_on_c, 3, 50, 0
5, 1009920, Note_on_c, 3, 49, 100
5, 1010160, Note_on_c, 3, 49, 0
5, 1010640, Note_on_c, 3, 50, 100
5, 1010760, Note_on_c, 3, 50, 0
5, 1010760, Note_on_c, 3, 52, 100
5, 1010880, Note_on_c, 3, 52, 0
5, 1010880, Note_on_c, 3, 54, 100
5, 1011000, Note_on_c, 3, 54, 0
5, 1011000, Note_on_c, 3, 55, 100
5, 1011120, Note_on_c, 3, 55, 0
5, 1011120, Note_on_c, 3, 57, 100
5, 1011240, Note_on_c, 3, 57, 0
5, 1011240, Note_on_c, 3, 59, 100
5, 1011360, Note_on_c, 3, 59, 0
5, 1011360, Note_on_c, 3, 60, 100
5, 1011480, Note_on_c, 3, 60, 0
5, 1011480, Note_on_c, 3, 62, 100
5, 1011600, Note_on_c, 3, 62, 0
5, 1011600, Note_on_c, 3, 64, 100
5, 1011720, Note_on_c, 3, 64, 0
5, 1011720, Note_on_c, 3, 62, 100
5, 1011840, Note_on_c, 3, 62, 0
5, 1011840, Note_on_c, 3, 62, 100
5, 1012080, Note_on_c, 3, 62, 0
5, 1012080, Note_on_c, 3, 64, 100
5, 1012200, Note_on_c, 3, 64, 0
5, 1012200, Note_on_c, 3, 66, 100
5, 1012320, Note_on_c, 3, 66, 0
5, 1012320, Note_on_c, 3, 67, 100
5, 1012560, Note_on_c, 3, 67, 0
5, 1013400, Note_on_c, 3, 55, 100
5, 1013880, Note_on_c, 3, 55, 0
5, 1013880, Note_on_c, 3, 59, 100
5, 1014000, Note_on_c, 3, 59, 0
5, 1014000, Note_on_c, 3, 60, 100
5, 1014120, Note_on_c, 3, 60, 0
5, 1014120, Note_on_c, 3, 62, 100
5, 1014240, Note_on_c, 3, 62, 0
5, 1014240, Note_on_c, 3, 64, 100
5, 1014360, Note_on_c, 3, 64, 0
5, 1014360, Note_on_c, 3, 66, 100
5, 1014480, Note_on_c, 3, 66, 0
5, 1014480, Note_on_c, 3, 67, 100
5, 1014600, Note_on_c, 3, 67, 0
5, 1014600, Note_on_c, 3, 64, 100
5, 1014720, Note_on_c, 3, 64, 0
5, 1014720, Note_on_c, 3, 66, 100
5, 1014840, Note_on_c, 3, 66, 0
5, 1014840, Note_on_c, 3, 62, 100
5, 1014960, Note_on_c, 3, 62, 0
5, 1014960, Note_on_c, 3, 57, 100
5, 1015080, Note_on_c, 3, 57, 0
5, 1015080, Note_on_c, 3, 55, 100
5, 1015200, Note_on_c, 3, 55, 0
5, 1015200, Note_on_c, 3, 54, 100
5, 1015440, Note_on_c, 3, 54, 0
5, 1015440, Note_on_c, 3, 60, 100
5, 1015920, Note_on_c, 3, 60, 0
5, 1015920, Note_on_c, 3, 60, 100
5, 1016280, Note_on_c, 3, 60, 0
5, 1016280, Note_on_c, 3, 59, 100
5, 1016400, Note_on_c, 3, 59, 0
5, 1016400, Note_on_c, 3, 64, 100
5, 1016520, Note_on_c, 3, 64, 0
5, 1016520, Note_on_c, 3, 62, 100
5, 1016640, Note_on_c, 3, 62, 0
5, 1016640, Note_on_c, 3, 60, 100
5, 1016760, Note_on_c, 3, 60, 0
5, 1016760, Note_on_c, 3, 62, 100
5, 1016880, Note_on_c, 3, 62, 0
5, 1016880, Note_on_c, 3, 64, 100
5, 1017000, Note_on_c, 3, 64, 0
5, 1017000, Note_on_c, 3, 54, 100
5, 1017120, Note_on_c, 3, 54, 0
5, 1017120, Note_on_c, 3, 55, 100
5, 1017240, Note_on_c, 3, 55, 0
5, 1017240, Note_on_c, 3, 57, 100
5, 1017360, Note_on_c, 3, 57, 0
5, 1017360, Note_on_c, 3, 59, 100
5, 1017480, Note_on_c, 3, 59, 0
5, 1017480, Note_on_c, 3, 60, 100
5, 1017600, Note_on_c, 3, 60, 0
5, 1017600, Note_on_c, 3, 62, 100
5, 1018080, Note_on_c, 3, 62, 0
5, 1019160, Note_on_c, 3, 64, 100
5, 1019280, Note_on_c, 3, 64, 0
5, 1019280, Note_on_c, 3, 62, 100
5, 1019400, Note_on_c, 3, 62, 0
5, 1019400, Note_on_c, 3, 61, 100
5, 1019520, Note_on_c, 3, 61, 0
5, 1019520, Note_on_c, 3, 59, 100
5, 1019640, Note_on_c, 3, 59, 0
5, 1019640, Note_on_c, 3, 57, 100
5, 1019760, Note_on_c, 3, 57, 0
5, 1019760, Note_on_c, 3, 55, 100
5, 1019880, Note_on_c, 3, 55, 0
5, 1019880, Note_on_c, 3, 52, 100
5, 1020000, Note_on_c, 3, 52, 0
5, 1020000, Note_on_c, 3, 54, 100
5, 1020120, Note_on_c, 3, 54, 0
5, 1020120, Note_on_c, 3, 55, 100
5, 1020240, Note_on_c, 3, 55, 0
5, 1020240, Note_on_c, 3, 57, 100
5, 1020360, Note_on_c, 3, 57, 0
5, 1020360, Note_on_c, 3, 59, 100
5, 1020480, Note_on_c, 3, 59, 0
5, 1020480, Note_on_c, 3, 61, 100
5, 1020600, Note_on_c, 3, 61, 0
5, 1020600, Note_on_c, 3, 62, 100
5, 1020720, Note_on_c, 3, 62, 0
5, 1020720, Note_on_c, 3, 64, 100
5, 1020840, Note_on_c, 3, 64, 0
5, 1020840, Note_on_c, 3, 66, 100
5, 1020960, Note_on_c, 3, 66, 0
5, 1020960, Note_on_c, 3, 67, 100
5, 1021200, Note_on_c, 3, 67, 0
5, 1022160, Note_on_c, 3, 57, 100
5, 1022520, Note_on_c, 3, 57, 0
5, 1022520, Note_on_c, 3, 59, 100
5, 1022640, Note_on_c, 3, 59, 0
5, 1022640, Note_on_c, 3, 61, 100
5, 1022760, Note_on_c, 3, 61, 0
5, 1022760, Note_on_c, 3, 59, 100
5, 1022880, Note_on_c, 3, 59, 0
5, 1022880, Note_on_c, 3, 57, 100
5, 1023000, Note_on_c, 3, 57, 0
5, 1023000, Note_on_c, 3, 55, 100
5, 1023120, Note_on_c, 3, 55, 0
5, 1023120, Note_on_c, 3, 54, 100
5, 1023240, Note_on_c, 3, 54, 0
5, 1023240, Note_on_c, 3, 52, 100
5, 1023360, Note_on_c, 3, 52, 0
5, 1023360, Note_on_c, 3, 50, 100
5, 1023600, Note_on_c, 3, 50, 0
5, 1023600, Note_on_c, 3, 62, 100
5, 1023720, Note_on_c, 3, 62, 0
5, 1023720, Note_on_c, 3, 64, 100
5, 1023840, Note_on_c, 3, 64, 0
5, 1023840, Note_on_c, 3, 62, 100
5, 1024440, Note_on_c, 3, 62, 0
5, 1024440, Note_on_c, 3, 59, 100
5, 1024560, Note_on_c, 3, 59, 0
5, 1024560, Note_on_c, 3, 61, 100
5, 1024680, Note_on_c, 3, 61, 0
5, 1024680, Note_on_c, 3, 62, 100
5, 1024800, Note_on_c, 3, 62, 0
5, 1024800, Note_on_c, 3, 64, 100
5, 1024920, Note_on_c, 3, 64, 0
5, 1024920, Note_on_c, 3, 66, 100
5, 1025040, Note_on_c, 3, 66, 0
5, 1025040, Note_on_c, 3, 64, 100
5, 1025160, Note_on_c, 3, 64, 0
5, 1025160, Note_on_c, 3, 62, 100
5, 1025280, Note_on_c, 3, 62, 0
5, 1025280, Note_on_c, 3, 64, 100
5, 1025400, Note_on_c, 3, 64, 0
5, 1025400, Note_on_c, 3, 61, 100
5, 1025520, Note_on_c, 3, 61, 0
5, 1025520, Note_on_c, 3, 62, 100
5, 1025640, Note_on_c, 3, 62, 0
5, 1025640, Note_on_c, 3, 64, 100
5, 1025760, Note_on_c, 3, 64, 0
5, 1025760, Note_on_c, 3, 66, 100
5, 1026480, Note_on_c, 3, 66, 0
5, 1026480, Note_on_c, 3, 55, 100
5, 1026720, Note_on_c, 3, 55, 0
5, 1026720, Note_on_c, 3, 57, 100
5, 1026960, Note_on_c, 3, 57, 0
5, 1026960, Note_on_c, 3, 59, 100
5, 1027200, Note_on_c, 3, 59, 0
5, 1027200, Note_on_c, 3, 61, 100
5, 1027440, Note_on_c, 3, 61, 0
5, 1027440, Note_on_c, 3, 52, 100
5, 1027680, Note_on_c, 3, 52, 0
5, 1027680, Note_on_c, 3, 62, 100
5, 1028400, Note_on_c, 3, 62, 0
5, 1028400, Note_on_c, 3, 64, 100
5, 1028640, Note_on_c, 3, 64, 0
5, 1028640, Note_on_c, 3, 66, 100
5, 1028760, Note_on_c, 3, 66, 0
5, 1028760, Note_on_c, 3, 61, 100
5, 1028880, Note_on_c, 3, 61, 0
5, 1028880, Note_on_c, 3, 62, 100
5, 1029120, Note_on_c, 3, 62, 0
5, 1029360, Note_on_c, 3, 62, 100
5, 1029480, Note_on_c, 3, 62, 0
5, 1029480, Note_on_c, 3, 64, 100
5, 1029600, Note_on_c, 3, 64, 0
5, 1029600, Note_on_c, 3, 62, 100
5, 1029840, Note_on_c, 3, 62, 0
5, 1029840, Note_on_c, 3, 60, 100
5, 1029960, Note_on_c, 3, 60, 0
5, 1029960, Note_on_c, 3, 59, 100
5, 1030080, Note_on_c, 3, 59, 0
5, 1030080, Note_on_c, 3, 57, 100
5, 1030200, Note_on_c, 3, 57, 0
5, 1030200, Note_on_c, 3, 59, 100
5, 1030320, Note_on_c, 3, 59, 0
5, 1030320, Note_on_c, 3, 60, 100
5, 1030440, Note_on_c, 3, 60, 0
5, 1030440, Note_on_c, 3, 62, 100
5, 1030560, Note_on_c, 3, 62, 0
5, 1030560, Note_on_c, 3, 50, 100
5, 1031160, Note_on_c, 3, 50, 0
5, 1031160, Note_on_c, 3, 52, 100
5, 1031280, Note_on_c, 3, 52, 0
5, 1031280, Note_on_c, 3, 48, 100
5, 1031400, Note_on_c, 3, 48, 0
5, 1031400, Note_on_c, 3, 50, 100
5, 1031520, Note_on_c, 3, 50, 0
5, 1031520, Note_on_c, 3, 52, 100
5, 1031640, Note_on_c, 3, 52, 0
5, 1031640, Note_on_c, 3, 50, 100
5, 1031760, Note_on_c, 3, 50, 0
5, 1031760, Note_on_c, 3, 53, 100
5, 1032000, Note_on_c, 3, 53, 0
5, 1032000, Note_on_c, 3, 53, 100
5, 1032120, Note_on_c, 3, 53, 0
5, 1032120, Note_on_c, 3, 52, 100
5, 1032300, Note_on_c, 3, 52, 0
5, 1032300, Note_on_c, 3, 53, 100
5, 1032360, Note_on_c, 3, 53, 0
5, 1032360, Note_on_c, 3, 52, 100
5, 1032420, Note_on_c, 3, 52, 0
5, 1032420, Note_on_c, 3, 51, 100
5, 1032480, Note_on_c, 3, 51, 0
5, 1032480, Note_on_c, 3, 52, 100
5, 1032720, Note_on_c, 3, 52, 0
5, 1032720, Note_on_c, 3, 60, 100
5, 1032960, Note_on_c, 3, 60, 0
5, 1033200, Note_on_c, 3, 52, 100
5, 1033440, Note_on_c, 3, 52, 0
5, 1033440, Note_on_c, 3, 51, 100
5, 1033560, Note_on_c, 3, 51, 0
5, 1033560, Note_on_c, 3, 52, 100
5, 1033680, Note_on_c, 3, 52, 0
5, 1033680, Note_on_c, 3, 51, 100
5, 1033800, Note_on_c, 3, 51, 0
5, 1033800, Note_on_c, 3, 49, 100
5, 1033920, Note_on_c, 3, 49, 0
5, 1033920, Note_on_c, 3, 51, 100
5, 1034040, Note_on_c, 3, 51, 0
5, 1034040, Note_on_c, 3, 52, 100
5, 1034160, Note_on_c, 3, 52, 0
5, 1034160, Note_on_c, 3, 54, 100
5, 1034280, Note_on_c, 3, 54, 0
5, 1034280, Note_on_c, 3, 55, 100
5, 1034400, Note_on_c, 3, 55, 0
5, 1034400, Note_on_c, 3, 57, 100
5, 1034520, Note_on_c, 3, 57, 0
5, 1034520, Note_on_c, 3, 59, 100
5, 1034640, Note_on_c, 3, 59, 0
5, 1034640, Note_on_c, 3, 61, 100
5, 1034760, Note_on_c, 3, 61, 0
5, 1034760, Note_on_c, 3, 63, 100
5, 1034880, Note_on_c, 3, 63, 0
5, 1034880, Note_on_c, 3, 64, 100
5, 1036560, Note_on_c, 3, 64, 0
5, 1036560, Note_on_c, 3, 64, 100
5, 1036680, Note_on_c, 3, 64, 0
5, 1036680, Note_on_c, 3, 63, 100
5, 1036800, Note_on_c, 3, 63, 0
5, 1036800, Note_on_c, 3, 64, 100
5, 1037040, Note_on_c, 3, 64, 0
5, 1037040, Note_on_c, 3, 64, 100
5, 1037280, Note_on_c, 3, 64, 0
5, 1037280, Note_on_c, 3, 64, 100
5, 1037520, Note_on_c, 3, 64, 0
5, 1037520, Note_on_c, 3, 63, 100
5, 1037640, Note_on_c, 3, 63, 0
5, 1037640, Note_on_c, 3, 61, 100
5, 1037760, Note_on_c, 3, 61, 0
5, 1037760, Note_on_c, 3, 63, 100
5, 1038240, Note_on_c, 3, 63, 0
5, 1038720, Note_on_c, 3, 66, 100
5, 1039320, Note_on_c, 3, 66, 0
5, 1039320, Note_on_c, 3, 64, 100
5, 1039440, Note_on_c, 3, 64, 0
5, 1039440, Note_on_c, 3, 63, 100
5, 1039560, Note_on_c, 3, 63, 0
5, 1039560, Note_on_c, 3, 66, 100
5, 1039680, Note_on_c, 3, 66, 0
5, 1039680, Note_on_c, 3, 64, 100
5, 1039800, Note_on_c, 3, 64, 0
5, 1039800, Note_on_c, 3, 62, 100
5, 1039920, Note_on_c, 3, 62, 0
5, 1039920, Note_on_c, 3, 61, 100
5, 1040040, Note_on_c, 3, 61, 0
5, 1040040, Note_on_c, 3, 60, 100
5, 1040160, Note_on_c, 3, 60, 0
5, 1040160, Note_on_c, 3, 59, 100
5, 1040280, Note_on_c, 3, 59, 0
5, 1040280, Note_on_c, 3, 57, 100
5, 1040400, Note_on_c, 3, 57, 0
5, 1040400, Note_on_c, 3, 55, 100
5, 1040520, Note_on_c, 3, 55, 0
5, 1040520, Note_on_c, 3, 54, 100
5, 1040640, Note_on_c, 3, 54, 0
5, 1040640, Note_on_c, 3, 55, 100
5, 1040880, Note_on_c, 3, 55, 0
5, 1042200, Note_on_c, 3, 69, 100
5, 1042320, Note_on_c, 3, 69, 0
5, 1042320, Note_on_c, 3, 68, 100
5, 1042440, Note_on_c, 3, 68, 0
5, 1042440, Note_on_c, 3, 66, 100
5, 1042560, Note_on_c, 3, 66, 0
5, 1042560, Note_on_c, 3, 68, 100
5, 1042680, Note_on_c, 3, 68, 0
5, 1042680, Note_on_c, 3, 65, 100
5, 1042800, Note_on_c, 3, 65, 0
5, 1042800, Note_on_c, 3, 64, 100
5, 1042920, Note_on_c, 3, 64, 0
5, 1042920, Note_on_c, 3, 62, 100
5, 1043040, Note_on_c, 3, 62, 0
5, 1043040, Note_on_c, 3, 64, 100
5, 1043160, Note_on_c, 3, 64, 0
5, 1043160, Note_on_c, 3, 62, 100
5, 1043280, Note_on_c, 3, 62, 0
5, 1043280, Note_on_c, 3, 60, 100
5, 1043400, Note_on_c, 3, 60, 0
5, 1043400, Note_on_c, 3, 59, 100
5, 1043520, Note_on_c, 3, 59, 0
5, 1043520, Note_on_c, 3, 60, 100
5, 1045200, Note_on_c, 3, 60, 0
5, 1045200, Note_on_c, 3, 67, 100
5, 1045440, Note_on_c, 3, 67, 0
5, 1045440, Note_on_c, 3, 66, 100
5, 1045680, Note_on_c, 3, 66, 0
5, 1045680, Note_on_c, 3, 64, 100
5, 1045920, Note_on_c, 3, 64, 0
5, 1045920, Note_on_c, 3, 62, 100
5, 1046040, Note_on_c, 3, 62, 0
5, 1046040, Note_on_c, 3, 59, 100
5, 1046160, Note_on_c, 3, 59, 0
5, 1046160, Note_on_c, 3, 60, 100
5, 1046280, Note_on_c, 3, 60, 0
5, 1046280, Note_on_c, 3, 57, 100
5, 1046400, Note_on_c, 3, 57, 0
5, 1046400, Note_on_c, 3, 59, 100
5, 1046640, Note_on_c, 3, 59, 0
5, 1046640, Note_on_c, 3, 60, 100
5, 1046880, Note_on_c, 3, 60, 0
5, 1046880, Note_on_c, 3, 59, 100
5, 1047120, Note_on_c, 3, 59, 0
5, 1047120, Note_on_c, 3, 57, 100
5, 1047360, Note_on_c, 3, 57, 0
5, 1047360, Note_on_c, 3, 57, 100
5, 1047440, Note_on_c, 3, 57, 0
5, 1047440, Note_on_c, 3, 55, 100
5, 1047520, Note_on_c, 3, 55, 0
5, 1047520, Note_on_c, 3, 57, 100
5, 1047600, Note_on_c, 3, 57, 0
5, 1047600, Note_on_c, 3, 55, 100
5, 1047720, Note_on_c, 3, 55, 0
5, 1047720, Note_on_c, 3, 54, 100
5, 1047840, Note_on_c, 3, 54, 0
5, 1047840, Note_on_c, 3, 55, 100
5, 1048440, Note_on_c, 3, 55, 0
5, 1048440, Note_on_c, 3, 59, 100
5, 1048560, Note_on_c, 3, 59, 0
5, 1048560, Note_on_c, 3, 57, 100
5, 1048680, Note_on_c, 3, 57, 0
5, 1048680, Note_on_c, 3, 55, 100
5, 1048800, Note_on_c, 3, 55, 0
5, 1048800, Note_on_c, 3, 54, 100
5, 1048920, Note_on_c, 3, 54, 0
5, 1048920, Note_on_c, 3, 52, 100
5, 1049040, Note_on_c, 3, 52, 0
5, 1049040, Note_on_c, 3, 50, 100
5, 1049160, Note_on_c, 3, 50, 0
5, 1049160, Note_on_c, 3, 48, 100
5, 1049280, Note_on_c, 3, 48, 0
5, 1049280, Note_on_c, 3, 47, 100
5, 1049400, Note_on_c, 3, 47, 0
5, 1049400, Note_on_c, 3, 50, 100
5, 1049520, Note_on_c, 3, 50, 0
5, 1049520, Note_on_c, 3, 55, 100
5, 1049640, Note_on_c, 3, 55, 0
5, 1049640, Note_on_c, 3, 59, 100
5, 1049760, Note_on_c, 3, 59, 0
5, 1049760, Note_on_c, 3, 62, 100
5, 1050000, Note_on_c, 3, 62, 0
5, 1050000, Note_on_c, 3, 55, 100
5, 1050360, Note_on_c, 3, 55, 0
5, 1050360, Note_on_c, 3, 57, 100
5, 1050480, Note_on_c, 3, 57, 0
5, 1050480, Note_on_c, 3, 54, 100
5, 1050720, Note_on_c, 3, 54, 0
5, 1050720, Note_on_c, 3, 55, 100
5, 1051200, Note_on_c, 3, 55, 0
5, 1052400, Note_on_c, 3, 62, 100
5, 1052520, Note_on_c, 3, 62, 0
5, 1052520, Note_on_c, 3, 64, 100
5, 1052640, Note_on_c, 3, 64, 0
5, 1052640, Note_on_c, 3, 62, 100
5, 1052880, Note_on_c, 3, 62, 0
5, 1052880, Note_on_c, 3, 60, 100
5, 1053000, Note_on_c, 3, 60, 0
5, 1053000, Note_on_c, 3, 59, 100
5, 1053120, Note_on_c, 3, 59, 0
5, 1053120, Note_on_c, 3, 57, 100
5, 1053240, Note_on_c, 3, 57, 0
5, 1053240, Note_on_c, 3, 59, 100
5, 1053360, Note_on_c, 3, 59, 0
5, 1053360, Note_on_c, 3, 60, 100
5, 1053480, Note_on_c, 3, 60, 0
5, 1053480, Note_on_c, 3, 62, 100
5, 1053600, Note_on_c, 3, 62, 0
5, 1053600, Note_on_c, 3, 50, 100
5, 1054200, Note_on_c, 3, 50, 0
5, 1054200, Note_on_c, 3, 52, 100
5, 1054320, Note_on_c, 3, 52, 0
5, 1054320, Note_on_c, 3, 48, 100
5, 1054440, Note_on_c, 3, 48, 0
5, 1054440, Note_on_c, 3, 50, 100
5, 1054560, Note_on_c, 3, 50, 0
5, 1054560, Note_on_c, 3, 52, 100
5, 1054680, Note_on_c, 3, 52, 0
5, 1054680, Note_on_c, 3, 50, 100
5, 1054800, Note_on_c, 3, 50, 0
5, 1054800, Note_on_c, 3, 53, 100
5, 1055040, Note_on_c, 3, 53, 0
5, 1055040, Note_on_c, 3, 53, 100
5, 1055160, Note_on_c, 3, 53, 0
5, 1055160, Note_on_c, 3, 52, 100
5, 1055340, Note_on_c, 3, 52, 0
5, 1055340, Note_on_c, 3, 53, 100
5, 1055400, Note_on_c, 3, 53, 0
5, 1055400, Note_on_c, 3, 52, 100
5, 1055460, Note_on_c, 3, 52, 0
5, 1055460, Note_on_c, 3, 51, 100
5, 1055520, Note_on_c, 3, 51, 0
5, 1055520, Note_on_c, 3, 52, 100
5, 1055760, Note_on_c, 3, 52, 0
5, 1055760, Note_on_c, 3, 60, 100
5, 1056000, Note_on_c, 3, 60, 0
5, 1056240, Note_on_c, 3, 52, 100
5, 1056480, Note_on_c, 3, 52, 0
5, 1056480, Note_on_c, 3, 51, 100
5, 1056600, Note_on_c, 3, 51, 0
5, 1056600, Note_on_c, 3, 52, 100
5, 1056720, Note_on_c, 3, 52, 0
5, 1056720, Note_on_c, 3, 51, 100
5, 1056840, Note_on_c, 3, 51, 0
5, 1056840, Note_on_c, 3, 49, 100
5, 1056960, Note_on_c, 3, 49, 0
5, 1056960, Note_on_c, 3, 51, 100
5, 1057080, Note_on_c, 3, 51, 0
5, 1057080, Note_on_c, 3, 52, 100
5, 1057200, Note_on_c, 3, 52, 0
5, 1057200, Note_on_c, 3, 54, 100
5, 1057320, Note_on_c, 3, 54, 0
5, 1057320, Note_on_c, 3, 55, 100
5, 1057440, Note_on_c, 3, 55, 0
5, 1057440, Note_on_c, 3, 57, 100
5, 1057560, Note_on_c, 3, 57, 0
5, 1057560, Note_on_c, 3, 59, 100
5, 1057680, Note_on_c, 3, 59, 0
5, 1057680, Note_on_c, 3, 61, 100
5, 1057800, Note_on_c, 3, 61, 0
5, 1057800, Note_on_c, 3, 63, 100
5, 1057920, Note_on_c, 3, 63, 0
5, 1057920, Note_on_c, 3, 64, 100
5, 1059600, Note_on_c, 3, 64, 0
5, 1059600, Note_on_c, 3, 64, 100
5, 1059720, Note_on_c, 3, 64, 0
5, 1059720, Note_on_c, 3, 63, 100
5, 1059840, Note_on_c, 3, 63, 0
5, 1059840, Note_on_c, 3, 64, 100
5, 1060080, Note_on_c, 3, 64, 0
5, 1060080, Note_on_c, 3, 64, 100
5, 1060320, Note_on_c, 3, 64, 0
5, 1060320, Note_on_c, 3, 64, 100
5, 1060560, Note_on_c, 3, 64, 0
5, 1060560, Note_on_c, 3, 63, 100
5, 1060680, Note_on_c, 3, 63, 0
5, 1060680, Note_on_c, 3, 61, 100
5, 1060800, Note_on_c, 3, 61, 0
5, 1060800, Note_on_c, 3, 63, 100
5, 1061280, Note_on_c, 3, 63, 0
5, 1061760, Note_on_c, 3, 66, 100
5, 1062360, Note_on_c, 3, 66, 0
5, 1062360, Note_on_c, 3, 64, 100
5, 1062480, Note_on_c, 3, 64, 0
5, 1062480, Note_on_c, 3, 63, 100
5, 1062600, Note_on_c, 3, 63, 0
5, 1062600, Note_on_c, 3, 66, 100
5, 1062720, Note_on_c, 3, 66, 0
5, 1062720, Note_on_c, 3, 64, 100
5, 1062840, Note_on_c, 3, 64, 0
5, 1062840, Note_on_c, 3, 62, 100
5, 1062960, Note_on_c, 3, 62, 0
5, 1062960, Note_on_c, 3, 61, 100
5, 1063080, Note_on_c, 3, 61, 0
5, 1063080, Note_on_c, 3, 60, 100
5, 1063200, Note_on_c, 3, 60, 0
5, 1063200, Note_on_c, 3, 59, 100
5, 1063320, Note_on_c, 3, 59, 0
5, 1063320, Note_on_c, 3, 57, 100
5, 1063440, Note_on_c, 3, 57, 0
5, 1063440, Note_on_c, 3, 55, 100
5, 1063560, Note_on_c, 3, 55, 0
5, 1063560, Note_on_c, 3, 54, 100
5, 1063680, Note_on_c, 3, 54, 0
5, 1063680, Note_on_c, 3, 55, 100
5, 1063920, Note_on_c, 3, 55, 0
5, 1065240, Note_on_c, 3, 69, 100
5, 1065360, Note_on_c, 3, 69, 0
5, 1065360, Note_on_c, 3, 68, 100
5, 1065480, Note_on_c, 3, 68, 0
5, 1065480, Note_on_c, 3, 66, 100
5, 1065600, Note_on_c, 3, 66, 0
5, 1065600, Note_on_c, 3, 68, 100
5, 1065720, Note_on_c, 3, 68, 0
5, 1065720, Note_on_c, 3, 65, 100
5, 1065840, Note_on_c, 3, 65, 0
5, 1065840, Note_on_c, 3, 64, 100
5, 1065960, Note_on_c, 3, 64, 0
5, 1065960, Note_on_c, 3, 62, 100
5, 1066080, Note_on_c, 3, 62, 0
5, 1066080, Note_on_c, 3, 64, 100
5, 1066200, Note_on_c, 3, 64, 0
5, 1066200, Note_on_c, 3, 62, 100
5, 1066320, Note_on_c, 3, 62, 0
5, 1066320, Note_on_c, 3, 60, 100
5, 1066440, Note_on_c, 3, 60, 0
5, 1066440, Note_on_c, 3, 59, 100
5, 1066560, Note_on_c, 3, 59, 0
5, 1066560, Note_on_c, 3, 60, 100
5, 1068240, Note_on_c, 3, 60, 0
5, 1068240, Note_on_c, 3, 67, 100
5, 1068480, Note_on_c, 3, 67, 0
5, 1068480, Note_on_c, 3, 66, 100
5, 1068720, Note_on_c, 3, 66, 0
5, 1068720, Note_on_c, 3, 64, 100
5, 1068960, Note_on_c, 3, 64, 0
5, 1068960, Note_on_c, 3, 62, 100
5, 1069080, Note_on_c, 3, 62, 0
5, 1069080, Note_on_c, 3, 59, 100
5, 1069200, Note_on_c, 3, 59, 0
5, 1069200, Note_on_c, 3, 60, 100
5, 1069320, Note_on_c, 3, 60, 0
5, 1069320, Note_on_c, 3, 57, 100
5, 1069440, Note_on_c, 3, 57, 0
5, 1069440, Note_on_c, 3, 59, 100
5, 1069680, Note_on_c, 3, 59, 0
5, 1069680, Note_on_c, 3, 60, 100
5, 1069920, Note_on_c, 3, 60, 0
5, 1069920, Note_on_c, 3, 59, 100
5, 1070160, Note_on_c, 3, 59, 0
5, 1070160, Note_on_c, 3, 57, 100
5, 1070400, Note_on_c, 3, 57, 0
5, 1070400, Note_on_c, 3, 57, 100
5, 1070480, Note_on_c, 3, 57, 0
5, 1070480, Note_on_c, 3, 55, 100
5, 1070560, Note_on_c, 3, 55, 0
5, 1070560, Note_on_c, 3, 57, 100
5, 1070640, Note_on_c, 3, 57, 0
5, 1070640, Note_on_c, 3, 55, 100
5, 1070760, Note_on_c, 3, 55, 0
5, 1070760, Note_on_c, 3, 54, 100
5, 1070880, Note_on_c, 3, 54, 0
5, 1070880, Note_on_c, 3, 55, 100
5, 1071480, Note_on_c, 3, 55, 0
5, 1071480, Note_on_c, 3, 59, 100
5, 1071600, Note_on_c, 3, 59, 0
5, 1071600, Note_on_c, 3, 57, 100
5, 1071720, Note_on_c, 3, 57, 0
5, 1071720, Note_on_c, 3, 55, 100
5, 1071840, Note_on_c, 3, 55, 0
5, 1071840, Note_on_c, 3, 54, 100
5, 1071960, Note_on_c, 3, 54, 0
5, 1071960, Note_on_c, 3, 52, 100
5, 1072080, Note_on_c, 3, 52, 0
5, 1072080, Note_on_c, 3, 50, 100
5, 1072200, Note_on_c, 3, 50, 0
5, 1072200, Note_on_c, 3, 48, 100
5, 1072320, Note_on_c, 3, 48, 0
5, 1072320, Note_on_c, 3, 47, 100
5, 1072440, Note_on_c, 3, 47, 0
5, 1072440, Note_on_c, 3, 50, 100
5, 1072560, Note_on_c, 3, 50, 0
5, 1072560, Note_on_c, 3, 55, 100
5, 1072680, Note_on_c, 3, 55, 0
5, 1072680, Note_on_c, 3, 59, 100
5, 1072800, Note_on_c, 3, 59, 0
5, 1072800, Note_on_c, 3, 62, 100
5, 1073040, Note_on_c, 3, 62, 0
5, 1073040, Note_on_c, 3, 55, 100
5, 1073400, Note_on_c, 3, 55, 0
5, 1073400, Note_on_c, 3, 57, 100
5, 1073520, Note_on_c, 3, 57, 0
5, 1073520, Note_on_c, 3, 54, 100
5, 1073760, Note_on_c, 3, 54, 0
5, 1073760, Note_on_c, 3, 55, 100
5, 1074240, Note_on_c, 3, 55, 0
5, 1075560, Note_on_c, 3, 59, 100
5, 1075680, Note_on_c, 3, 59, 0
5, 1075680, Note_on_c, 3, 62, 100
5, 1077000, Note_on_c, 3, 62, 0
5, 1077000, Note_on_c, 3, 57, 100
5, 1077120, Note_on_c, 3, 57, 0
5, 1077120, Note_on_c, 3, 62, 100
5, 1078440, Note_on_c, 3, 62, 0
5, 1078440, Note_on_c, 3, 59, 100
5, 1078560, Note_on_c, 3, 59, 0
5, 1078560, Note_on_c, 3, 61, 100
5, 1079520, Note_on_c, 3, 61, 0
5, 1079880, Note_on_c, 3, 54, 100
5, 1080000, Note_on_c, 3, 54, 0
5, 1080000, Note_on_c, 3, 57, 100
5, 1080960, Note_on_c, 3, 57, 0
5, 1081320, Note_on_c, 3, 50, 100
5, 1081440, Note_on_c, 3, 50, 0
5, 1081440, Note_on_c, 3, 55, 100
5, 1082760, Note_on_c, 3, 55, 0
5, 1082760, Note_on_c, 3, 54, 100
5, 1082880, Note_on_c, 3, 54, 0
5, 1082880, Note_on_c, 3, 55, 100
5, 1084200, Note_on_c, 3, 55, 0
5, 1084200, Note_on_c, 3, 52, 100
5, 1084320, Note_on_c, 3, 52, 0
5, 1084320, Note_on_c, 3, 54, 100
5, 1085280, Note_on_c, 3, 54, 0
5, 1085640, Note_on_c, 3, 50, 100
5, 1085760, Note_on_c, 3, 50, 0
5, 1085760, Note_on_c, 3, 55, 100
5, 1086240, Note_on_c, 3, 55, 0
5, 1086960, Note_on_c, 3, 59, 100
5, 1087200, Note_on_c, 3, 59, 0
5, 1087200, Note_on_c, 3, 64, 100
5, 1088400, Note_on_c, 3, 64, 0
5, 1088400, Note_on_c, 3, 57, 100
5, 1088640, Note_on_c, 3, 57, 0
5, 1088640, Note_on_c, 3, 62, 100
5, 1089840, Note_on_c, 3, 62, 0
5, 1089840, Note_on_c, 3, 59, 100
5, 1090080, Note_on_c, 3, 59, 0
5, 1090080, Note_on_c, 3, 55, 100
5, 1091160, Note_on_c, 3, 55, 0
5, 1091160, Note_on_c, 3, 57, 100
5, 1091280, Note_on_c, 3, 57, 0
5, 1091280, Note_on_c, 3, 55, 100
5, 1091400, Note_on_c, 3, 55, 0
5, 1091400, Note_on_c, 3, 54, 100
5, 1091520, Note_on_c, 3, 54, 0
5, 1091520, Note_on_c, 3, 55, 100
5, 1091760, Note_on_c, 3, 55, 0
5, 1092720, Note_on_c, 3, 57, 100
5, 1092960, Note_on_c, 3, 57, 0
5, 1092960, Note_on_c, 3, 62, 100
5, 1093680, Note_on_c, 3, 62, 0
5, 1093680, Note_on_c, 3, 57, 100
5, 1093920, Note_on_c, 3, 57, 0
5, 1093920, Note_on_c, 3, 55, 100
5, 1094160, Note_on_c, 3, 55, 0
5, 1094160, Note_on_c, 3, 59, 100
5, 1094400, Note_on_c, 3, 59, 0
5, 1094400, Note_on_c, 3, 64, 100
5, 1095120, Note_on_c, 3, 64, 0
5, 1095120, Note_on_c, 3, 59, 100
5, 1095360, Note_on_c, 3, 59, 0
5, 1095360, Note_on_c, 3, 57, 100
5, 1095600, Note_on_c, 3, 57, 0
5, 1095600, Note_on_c, 3, 61, 100
5, 1095840, Note_on_c, 3, 61, 0
5, 1095840, Note_on_c, 3, 67, 100
5, 1096080, Note_on_c, 3, 67, 0
5, 1096080, Note_on_c, 3, 64, 100
5, 1096320, Note_on_c, 3, 64, 0
5, 1096320, Note_on_c, 3, 61, 100
5, 1096800, Note_on_c, 3, 61, 0
5, 1096800, Note_on_c, 3, 62, 100
5, 1097040, Note_on_c, 3, 62, 0
5, 1097040, Note_on_c, 3, 52, 100
5, 1097280, Note_on_c, 3, 52, 0
5, 1097280, Note_on_c, 3, 54, 100
5, 1097520, Note_on_c, 3, 54, 0
5, 1097520, Note_on_c, 3, 58, 100
5, 1097760, Note_on_c, 3, 58, 0
5, 1097760, Note_on_c, 3, 57, 100
5, 1098240, Note_on_c, 3, 57, 0
5, 1098600, Note_on_c, 3, 59, 100
5, 1098720, Note_on_c, 3, 59, 0
5, 1098720, Note_on_c, 3, 62, 100
5, 1100040, Note_on_c, 3, 62, 0
5, 1100040, Note_on_c, 3, 57, 100
5, 1100160, Note_on_c, 3, 57, 0
5, 1100160, Note_on_c, 3, 62, 100
5, 1101480, Note_on_c, 3, 62, 0
5, 1101480, Note_on_c, 3, 59, 100
5, 1101600, Note_on_c, 3, 59, 0
5, 1101600, Note_on_c, 3, 61, 100
5, 1102560, Note_on_c, 3, 61, 0
5, 1102920, Note_on_c, 3, 54, 100
5, 1103040, Note_on_c, 3, 54, 0
5, 1103040, Note_on_c, 3, 57, 100
5, 1104000, Note_on_c, 3, 57, 0
5, 1104360, Note_on_c, 3, 50, 100
5, 1104480, Note_on_c, 3, 50, 0
5, 1104480, Note_on_c, 3, 55, 100
5, 1105800, Note_on_c, 3, 55, 0
5, 1105800, Note_on_c, 3, 54, 100
5, 1105920, Note_on_c, 3, 54, 0
5, 1105920, Note_on_c, 3, 55, 100
5, 1107240, Note_on_c, 3, 55, 0
5, 1107240, Note_on_c, 3, 52, 100
5, 1107360, Note_on_c, 3, 52, 0
5, 1107360, Note_on_c, 3, 54, 100
5, 1108320, Note_on_c, 3, 54, 0
5, 1108680, Note_on_c, 3, 50, 100
5, 1108800, Note_on_c, 3, 50, 0
5, 1108800, Note_on_c, 3, 55, 100
5, 1109280, Note_on_c, 3, 55, 0
5, 1110000, Note_on_c, 3, 59, 100
5, 1110240, Note_on_c, 3, 59, 0
5, 1110240, Note_on_c, 3, 64, 100
5, 1111440, Note_on_c, 3, 64, 0
5, 1111440, Note_on_c, 3, 57, 100
5, 1111680, Note_on_c, 3, 57, 0
5, 1111680, Note_on_c, 3, 62, 100
5, 1112880, Note_on_c, 3, 62, 0
5, 1112880, Note_on_c, 3, 59, 100
5, 1113120, Note_on_c, 3, 59, 0
5, 1113120, Note_on_c, 3, 55, 100
5, 1114200, Note_on_c, 3, 55, 0
5, 1114200, Note_on_c, 3, 57, 100
5, 1114320, Note_on_c, 3, 57, 0
5, 1114320, Note_on_c, 3, 55, 100
5, 1114440, Note_on_c, 3, 55, 0
5, 1114440, Note_on_c, 3, 54, 100
5, 1114560, Note_on_c, 3, 54, 0
5, 1114560, Note_on_c, 3, 55, 100
5, 1114800, Note_on_c, 3, 55, 0
5, 1115760, Note_on_c, 3, 57, 100
5, 1116000, Note_on_c, 3, 57, 0
5, 1116000, Note_on_c, 3, 62, 100
5, 1116720, Note_on_c, 3, 62, 0
5, 1116720, Note_on_c, 3, 57, 100
5, 1116960, Note_on_c, 3, 57, 0
5, 1116960, Note_on_c, 3, 55, 100
5, 1117200, Note_on_c, 3, 55, 0
5, 1117200, Note_on_c, 3, 59, 100
5, 1117440, Note_on_c, 3, 59, 0
5, 1117440, Note_on_c, 3, 64, 100
5, 1118160, Note_on_c, 3, 64, 0
5, 1118160, Note_on_c, 3, 59, 100
5, 1118400, Note_on_c, 3, 59, 0
5, 1118400, Note_on_c, 3, 57, 100
5, 1118640, Note_on_c, 3, 57, 0
5, 1118640, Note_on_c, 3, 61, 100
5, 1118880, Note_on_c, 3, 61, 0
5, 1118880, Note_on_c, 3, 67, 100
5, 1119120, Note_on_c, 3, 67, 0
5, 1119120, Note_on_c, 3, 64, 100
5, 1119360, Note_on_c, 3, 64, 0
5, 1119360, Note_on_c, 3, 61, 100
5, 1119840, Note_on_c, 3, 61, 0
5, 1119840, Note_on_c, 3, 62, 100
5, 1120080, Note_on_c, 3, 62, 0
5, 1120080, Note_on_c, 3, 52, 100
5, 1120320, Note_on_c, 3, 52, 0
5, 1120320, Note_on_c, 3, 54, 100
5, 1120560, Note_on_c, 3, 54, 0
5, 1120560, Note_on_c, 3, 58, 100
5, 1120800, Note_on_c, 3, 58, 0
5, 1120800, Note_on_c, 3, 57, 100
5, 1121280, Note_on_c, 3, 57, 0
5, 1121640, Note_on_c, 3, 66, 100
5, 1121760, Note_on_c, 3, 66, 0
5, 1121760, Note_on_c, 3, 69, 100
5, 1122720, Note_on_c, 3, 69, 0
5, 1123080, Note_on_c, 3, 62, 100
5, 1123200, Note_on_c, 3, 62, 0
5, 1123200, Note_on_c, 3, 67, 100
5, 1124520, Note_on_c, 3, 67, 0
5, 1124520, Note_on_c, 3, 68, 100
5, 1124640, Note_on_c, 3, 68, 0
5, 1124640, Note_on_c, 3, 69, 100
5, 1124880, Note_on_c, 3, 69, 0
5, 1124880, Note_on_c, 3, 62, 100
5, 1125120, Note_on_c, 3, 62, 0
5, 1125120, Note_on_c, 3, 64, 100
5, 1125360, Note_on_c, 3, 64, 0
5, 1125360, Note_on_c, 3, 67, 100
5, 1125840, Note_on_c, 3, 67, 0
5, 1125840, Note_on_c, 3, 66, 100
5, 1125960, Note_on_c, 3, 66, 0
5, 1125960, Note_on_c, 3, 64, 100
5, 1126080, Note_on_c, 3, 64, 0
5, 1126080, Note_on_c, 3, 66, 100
5, 1126320, Note_on_c, 3, 66, 0
5, 1127280, Note_on_c, 3, 59, 100
5, 1127760, Note_on_c, 3, 59, 0
5, 1127760, Note_on_c, 3, 57, 100
5, 1128240, Note_on_c, 3, 57, 0
5, 1128240, Note_on_c, 3, 56, 100
5, 1128480, Note_on_c, 3, 56, 0
5, 1128720, Note_on_c, 3, 60, 100
5, 1129200, Note_on_c, 3, 60, 0
5, 1129200, Note_on_c, 3, 64, 100
5, 1129440, Note_on_c, 3, 64, 0
5, 1129440, Note_on_c, 3, 60, 100
5, 1129680, Note_on_c, 3, 60, 0
5, 1129680, Note_on_c, 3, 57, 100
5, 1129920, Note_on_c, 3, 57, 0
5, 1130160, Note_on_c, 3, 54, 100
5, 1130400, Note_on_c, 3, 54, 0
5, 1130400, Note_on_c, 3, 55, 100
5, 1130640, Note_on_c, 3, 55, 0
5, 1130640, Note_on_c, 3, 64, 100
5, 1131120, Note_on_c, 3, 64, 0
5, 1131120, Note_on_c, 3, 63, 100
5, 1131360, Note_on_c, 3, 63, 0
5, 1131360, Note_on_c, 3, 64, 100
5, 1131600, Note_on_c, 3, 64, 0
5, 1131600, Note_on_c, 3, 54, 100
5, 1131840, Note_on_c, 3, 54, 0
5, 1131840, Note_on_c, 3, 55, 100
5, 1132080, Note_on_c, 3, 55, 0
5, 1132080, Note_on_c, 3, 63, 100
5, 1132080, Note_on_c, 3, 60, 100
5, 1132320, Note_on_c, 3, 60, 0
5, 1132320, Note_on_c, 3, 63, 0
5, 1132320, Note_on_c, 3, 64, 100
5, 1132320, Note_on_c, 3, 59, 100
5, 1132560, Note_on_c, 3, 59, 0
5, 1132560, Note_on_c, 3, 64, 0
5, 1133160, Note_on_c, 3, 55, 100
5, 1133280, Note_on_c, 3, 55, 0
5, 1133280, Note_on_c, 3, 60, 100
5, 1133400, Note_on_c, 3, 60, 0
5, 1133400, Note_on_c, 3, 62, 100
5, 1133520, Note_on_c, 3, 62, 0
5, 1133520, Note_on_c, 3, 64, 100
5, 1133760, Note_on_c, 3, 64, 0
5, 1133760, Note_on_c, 3, 62, 100
5, 1134000, Note_on_c, 3, 62, 0
5, 1134000, Note_on_c, 3, 61, 100
5, 1134240, Note_on_c, 3, 61, 0
5, 1134240, Note_on_c, 3, 59, 100
5, 1134600, Note_on_c, 3, 59, 0
5, 1134600, Note_on_c, 3, 54, 100
5, 1134720, Note_on_c, 3, 54, 0
5, 1134720, Note_on_c, 3, 59, 100
5, 1134840, Note_on_c, 3, 59, 0
5, 1134840, Note_on_c, 3, 60, 100
5, 1134960, Note_on_c, 3, 60, 0
5, 1134960, Note_on_c, 3, 62, 100
5, 1135200, Note_on_c, 3, 62, 0
5, 1135200, Note_on_c, 3, 60, 100
5, 1135440, Note_on_c, 3, 60, 0
5, 1135440, Note_on_c, 3, 59, 100
5, 1135680, Note_on_c, 3, 59, 0
5, 1135680, Note_on_c, 3, 57, 100
5, 1135920, Note_on_c, 3, 57, 0
5, 1135920, Note_on_c, 3, 52, 100
5, 1136160, Note_on_c, 3, 52, 0
5, 1136160, Note_on_c, 3, 57, 100
5, 1136400, Note_on_c, 3, 57, 0
5, 1136400, Note_on_c, 3, 60, 100
5, 1136640, Note_on_c, 3, 60, 0
5, 1136640, Note_on_c, 3, 57, 100
5, 1136880, Note_on_c, 3, 57, 0
5, 1136880, Note_on_c, 3, 54, 100
5, 1137120, Note_on_c, 3, 54, 0
5, 1137120, Note_on_c, 3, 50, 100
5, 1137600, Note_on_c, 3, 50, 0
5, 1138800, Note_on_c, 3, 64, 100
5, 1139040, Note_on_c, 3, 64, 0
5, 1139040, Note_on_c, 3, 63, 100
5, 1139280, Note_on_c, 3, 63, 0
5, 1139280, Note_on_c, 3, 62, 100
5, 1139520, Note_on_c, 3, 62, 0
5, 1139520, Note_on_c, 3, 67, 100
5, 1139760, Note_on_c, 3, 67, 0
5, 1139760, Note_on_c, 3, 59, 100
5, 1140000, Note_on_c, 3, 59, 0
5, 1140000, Note_on_c, 3, 60, 100
5, 1140240, Note_on_c, 3, 60, 0
5, 1140240, Note_on_c, 3, 55, 100
5, 1140480, Note_on_c, 3, 55, 0
5, 1140480, Note_on_c, 3, 57, 100
5, 1140720, Note_on_c, 3, 57, 0
5, 1140720, Note_on_c, 3, 62, 100
5, 1140960, Note_on_c, 3, 62, 0
5, 1140960, Note_on_c, 3, 64, 100
5, 1141200, Note_on_c, 3, 64, 0
5, 1141200, Note_on_c, 3, 57, 100
5, 1141680, Note_on_c, 3, 57, 0
5, 1141680, Note_on_c, 3, 57, 100
5, 1141800, Note_on_c, 3, 57, 0
5, 1141800, Note_on_c, 3, 55, 100
5, 1141920, Note_on_c, 3, 55, 0
5, 1141920, Note_on_c, 3, 57, 100
5, 1142400, Note_on_c, 3, 57, 0
5, 1142400, Note_on_c, 3, 55, 100
5, 1142640, Note_on_c, 3, 55, 0
5, 1142640, Note_on_c, 3, 54, 100
5, 1142880, Note_on_c, 3, 54, 0
5, 1142880, Note_on_c, 3, 55, 100
5, 1143120, Note_on_c, 3, 55, 0
5, 1143120, Note_on_c, 3, 57, 100
5, 1143360, Note_on_c, 3, 57, 0
5, 1143360, Note_on_c, 3, 59, 100
5, 1143600, Note_on_c, 3, 59, 0
5, 1143600, Note_on_c, 3, 54, 100
5, 1143840, Note_on_c, 3, 54, 0
5, 1143840, Note_on_c, 3, 55, 100
5, 1144320, Note_on_c, 3, 55, 0
5, 1144680, Note_on_c, 3, 66, 100
5, 1144800, Note_on_c, 3, 66, 0
5, 1144800, Note_on_c, 3, 69, 100
5, 1145760, Note_on_c, 3, 69, 0
5, 1146120, Note_on_c, 3, 62, 100
5, 1146240, Note_on_c, 3, 62, 0
5, 1146240, Note_on_c, 3, 67, 100
5, 1147560, Note_on_c, 3, 67, 0
5, 1147560, Note_on_c, 3, 68, 100
5, 1147680, Note_on_c, 3, 68, 0
5, 1147680, Note_on_c, 3, 69, 100
5, 1147920, Note_on_c, 3, 69, 0
5, 1147920, Note_on_c, 3, 62, 100
5, 1148160, Note_on_c, 3, 62, 0
5, 1148160, Note_on_c, 3, 64, 100
5, 1148400, Note_on_c, 3, 64, 0
5, 1148400, Note_on_c, 3, 67, 100
5, 1148880, Note_on_c, 3, 67, 0
5, 1148880, Note_on_c, 3, 66, 100
5, 1149000, Note_on_c, 3, 66, 0
5, 1149000, Note_on_c, 3, 64, 100
5, 1149120, Note_on_c, 3, 64, 0
5, 1149120, Note_on_c, 3, 66, 100
5, 1149360, Note_on_c, 3, 66, 0
5, 1150320, Note_on_c, 3, 59, 100
5, 1150800, Note_on_c, 3, 59, 0
5, 1150800, Note_on_c, 3, 57, 100
5, 1151280, Note_on_c, 3, 57, 0
5, 1151280, Note_on_c, 3, 56, 100
5, 1151520, Note_on_c, 3, 56, 0
5, 1151760, Note_on_c, 3, 60, 100
5, 1152240, Note_on_c, 3, 60, 0
5, 1152240, Note_on_c, 3, 64, 100
5, 1152480, Note_on_c, 3, 64, 0
5, 1152480, Note_on_c, 3, 60, 100
5, 1152720, Note_on_c, 3, 60, 0
5, 1152720, Note_on_c, 3, 57, 100
5, 1152960, Note_on_c, 3, 57, 0
5, 1153200, Note_on_c, 3, 54, 100
5, 1153440, Note_on_c, 3, 54, 0
5, 1153440, Note_on_c, 3, 55, 100
5, 1153680, Note_on_c, 3, 55, 0
5, 1153680, Note_on_c, 3, 64, 100
5, 1154160, Note_on_c, 3, 64, 0
5, 1154160, Note_on_c, 3, 63, 100
5, 1154400, Note_on_c, 3, 63, 0
5, 1154400, Note_on_c, 3, 64, 100
5, 1154640, Note_on_c, 3, 64, 0
5, 1154640, Note_on_c, 3, 54, 100
5, 1154880, Note_on_c, 3, 54, 0
5, 1154880, Note_on_c, 3, 55, 100
5, 1155120, Note_on_c, 3, 55, 0
5, 1155120, Note_on_c, 3, 63, 100
5, 1155120, Note_on_c, 3, 60, 100
5, 1155360, Note_on_c, 3, 60, 0
5, 1155360, Note_on_c, 3, 63, 0
5, 1155360, Note_on_c, 3, 64, 100
5, 1155360, Note_on_c, 3, 59, 100
5, 1155600, Note_on_c, 3, 59, 0
5, 1155600, Note_on_c, 3, 64, 0
5, 1156200, Note_on_c, 3, 55, 100
5, 1156320, Note_on_c, 3, 55, 0
5, 1156320, Note_on_c, 3, 60, 100
5, 1156440, Note_on_c, 3, 60, 0
5, 1156440, Note_on_c, 3, 62, 100
5, 1156560, Note_on_c, 3, 62, 0
5, 1156560, Note_on_c, 3, 64, 100
5, 1156800, Note_on_c, 3, 64, 0
5, 1156800, Note_on_c, 3, 62, 100
5, 1157040, Note_on_c, 3, 62, 0
5, 1157040, Note_on_c, 3, 61, 100
5, 1157280, Note_on_c, 3, 61, 0
5, 1157280, Note_on_c, 3, 59, 100
5, 1157640, Note_on_c, 3, 59, 0
5, 1157640, Note_on_c, 3, 54, 100
5, 1157760, Note_on_c, 3, 54, 0
5, 1157760, Note_on_c, 3, 59, 100
5, 1157880, Note_on_c, 3, 59, 0
5, 1157880, Note_on_c, 3, 60, 100
5, 1158000, Note_on_c, 3, 60, 0
5, 1158000, Note_on_c, 3, 62, 100
5, 1158240, Note_on_c, 3, 62, 0
5, 1158240, Note_on_c, 3, 60, 100
5, 1158480, Note_on_c, 3, 60, 0
5, 1158480, Note_on_c, 3, 59, 100
5, 1158720, Note_on_c, 3, 59, 0
5, 1158720, Note_on_c, 3, 57, 100
5, 1158960, Note_on_c, 3, 57, 0
5, 1158960, Note_on_c, 3, 52, 100
5, 1159200, Note_on_c, 3, 52, 0
5, 1159200, Note_on_c, 3, 57, 100
5, 1159440, Note_on_c, 3, 57, 0
5, 1159440, Note_on_c, 3, 60, 100
5, 1159680, Note_on_c, 3, 60, 0
5, 1159680, Note_on_c, 3, 57, 100
5, 1159920, Note_on_c, 3, 57, 0
5, 1159920, Note_on_c, 3, 54, 100
5, 1160160, Note_on_c, 3, 54, 0
5, 1160160, Note_on_c, 3, 50, 100
5, 1160640, Note_on_c, 3, 50, 0
5, 1161840, Note_on_c, 3, 64, 100
5, 1162080, Note_on_c, 3, 64, 0
5, 1162080, Note_on_c, 3, 63, 100
5, 1162320, Note_on_c, 3, 63, 0
5, 1162320, Note_on_c, 3, 62, 100
5, 1162560, Note_on_c, 3, 62, 0
5, 1162560, Note_on_c, 3, 67, 100
5, 1162800, Note_on_c, 3, 67, 0
5, 1162800, Note_on_c, 3, 59, 100
5, 1163040, Note_on_c, 3, 59, 0
5, 1163040, Note_on_c, 3, 60, 100
5, 1163280, Note_on_c, 3, 60, 0
5, 1163280, Note_on_c, 3, 55, 100
5, 1163520, Note_on_c, 3, 55, 0
5, 1163520, Note_on_c, 3, 57, 100
5, 1163760, Note_on_c, 3, 57, 0
5, 1163760, Note_on_c, 3, 62, 100
5, 1164000, Note_on_c, 3, 62, 0
5, 1164000, Note_on_c, 3, 64, 100
5, 1164240, Note_on_c, 3, 64, 0
5, 1164240, Note_on_c, 3, 57, 100
5, 1164720, Note_on_c, 3, 57, 0
5, 1164720, Note_on_c, 3, 57, 100
5, 1164840, Note_on_c, 3, 57, 0
5, 1164840, Note_on_c, 3, 55, 100
5, 1164960, Note_on_c, 3, 55, 0
5, 1164960, Note_on_c, 3, 57, 100
5, 1165440, Note_on_c, 3, 57, 0
5, 1165440, Note_on_c, 3, 55, 100
5, 1165680, Note_on_c, 3, 55, 0
5, 1165680, Note_on_c, 3, 54, 100
5, 1165920, Note_on_c, 3, 54, 0
5, 1165920, Note_on_c, 3, 55, 100
5, 1166160, Note_on_c, 3, 55, 0
5, 1166160, Note_on_c, 3, 57, 100
5, 1166400, Note_on_c, 3, 57, 0
5, 1166400, Note_on_c, 3, 59, 100
5, 1166640, Note_on_c, 3, 59, 0
5, 1166640, Note_on_c, 3, 54, 100
5, 1166880, Note_on_c, 3, 54, 0
5, 1166880, Note_on_c, 3, 55, 100
5, 1167360, Note_on_c, 3, 55, 0
5, 1260600, Note_on_c, 3, 74, 100
5, 1260720, Note_on_c, 3, 74, 0
5, 1260720, Note_on_c, 3, 74, 100
5, 1260840, Note_on_c, 3, 74, 0
5, 1260840, Note_on_c, 3, 76, 100
5, 1260960, Note_on_c, 3, 76, 0
5, 1260960, Note_on_c, 3, 76, 100
5, 1261080, Note_on_c, 3, 76, 0
5, 1261080, Note_on_c, 3, 78, 100
5, 1261200, Note_on_c, 3, 78, 0
5, 1261200, Note_on_c, 3, 78, 100
5, 1261320, Note_on_c, 3, 78, 0
5, 1261320, Note_on_c, 3, 79, 100
5, 1261440, Note_on_c, 3, 79, 0
5, 1261440, Note_on_c, 3, 79, 100
5, 1262040, Note_on_c, 3, 79, 0
5, 1262040, Note_on_c, 3, 81, 100
5, 1262160, Note_on_c, 3, 81, 0
5, 1262160, Note_on_c, 3, 82, 100
5, 1262280, Note_on_c, 3, 82, 0
5, 1262280, Note_on_c, 3, 84, 100
5, 1262400, Note_on_c, 3, 84, 0
5, 1262400, Note_on_c, 3, 86, 100
5, 1262520, Note_on_c, 3, 86, 0
5, 1262520, Note_on_c, 3, 81, 100
5, 1262640, Note_on_c, 3, 81, 0
5, 1262640, Note_on_c, 3, 81, 100
5, 1262700, Note_on_c, 3, 81, 0
5, 1262700, Note_on_c, 3, 80, 100
5, 1262760, Note_on_c, 3, 80, 0
5, 1262760, Note_on_c, 3, 81, 100
5, 1262880, Note_on_c, 3, 81, 0
5, 1262880, Note_on_c, 3, 74, 100
5, 1263600, Note_on_c, 3, 74, 0
5, 1263600, Note_on_c, 3, 75, 100
5, 1263720, Note_on_c, 3, 75, 0
5, 1263720, Note_on_c, 3, 77, 100
5, 1263840, Note_on_c, 3, 77, 0
5, 1263840, Note_on_c, 3, 75, 100
5, 1263960, Note_on_c, 3, 75, 0
5, 1263960, Note_on_c, 3, 74, 100
5, 1264080, Note_on_c, 3, 74, 0
5, 1264080, Note_on_c, 3, 74, 100
5, 1264200, Note_on_c, 3, 74, 0
5, 1264200, Note_on_c, 3, 72, 100
5, 1264320, Note_on_c, 3, 72, 0
5, 1264320, Note_on_c, 3, 70, 100
5, 1264560, Note_on_c, 3, 70, 0
5, 1265040, Note_on_c, 3, 72, 100
5, 1265280, Note_on_c, 3, 72, 0
5, 1265280, Note_on_c, 3, 79, 100
5, 1265340, Note_on_c, 3, 79, 0
5, 1265340, Note_on_c, 3, 81, 100
5, 1265400, Note_on_c, 3, 81, 0
5, 1265400, Note_on_c, 3, 78, 100
5, 1265520, Note_on_c, 3, 78, 0
5, 1265520, Note_on_c, 3, 79, 100
5, 1265640, Note_on_c, 3, 79, 0
5, 1265640, Note_on_c, 3, 81, 100
5, 1265760, Note_on_c, 3, 81, 0
5, 1265760, Note_on_c, 3, 82, 100
5, 1265880, Note_on_c, 3, 82, 0
5, 1265880, Note_on_c, 3, 84, 100
5, 1266000, Note_on_c, 3, 84, 0
5, 1266000, Note_on_c, 3, 86, 100
5, 1266120, Note_on_c, 3, 86, 0
5, 1266120, Note_on_c, 3, 84, 100
5, 1266240, Note_on_c, 3, 84, 0
5, 1266240, Note_on_c, 3, 82, 100
5, 1266360, Note_on_c, 3, 82, 0
5, 1266360, Note_on_c, 3, 79, 100
5, 1266480, Note_on_c, 3, 79, 0
5, 1266480, Note_on_c, 3, 74, 100
5, 1266960, Note_on_c, 3, 74, 0
5, 1266960, Note_on_c, 3, 75, 100
5, 1267200, Note_on_c, 3, 75, 0
5, 1267200, Note_on_c, 3, 74, 100
5, 1267440, Note_on_c, 3, 74, 0
5, 1267800, Note_on_c, 3, 75, 100
5, 1267920, Note_on_c, 3, 75, 0
5, 1267920, Note_on_c, 3, 74, 100
5, 1268040, Note_on_c, 3, 74, 0
5, 1268040, Note_on_c, 3, 72, 100
5, 1268160, Note_on_c, 3, 72, 0
5, 1268160, Note_on_c, 3, 70, 100
5, 1268280, Note_on_c, 3, 70, 0
5, 1268280, Note_on_c, 3, 72, 100
5, 1268400, Note_on_c, 3, 72, 0
5, 1268400, Note_on_c, 3, 72, 100
5, 1268520, Note_on_c, 3, 72, 0
5, 1268520, Note_on_c, 3, 74, 100
5, 1268640, Note_on_c, 3, 74, 0
5, 1268640, Note_on_c, 3, 74, 100
5, 1268760, Note_on_c, 3, 74, 0
5, 1268760, Note_on_c, 3, 75, 100
5, 1268880, Note_on_c, 3, 75, 0
5, 1268880, Note_on_c, 3, 75, 100
5, 1269000, Note_on_c, 3, 75, 0
5, 1269000, Note_on_c, 3, 74, 100
5, 1269120, Note_on_c, 3, 74, 0
5, 1269120, Note_on_c, 3, 74, 100
5, 1269360, Note_on_c, 3, 74, 0
5, 1269840, Note_on_c, 3, 81, 100
5, 1270080, Note_on_c, 3, 81, 0
5, 1270080, Note_on_c, 3, 82, 100
5, 1270320, Note_on_c, 3, 82, 0
5, 1270320, Note_on_c, 3, 74, 100
5, 1270440, Note_on_c, 3, 74, 0
5, 1270440, Note_on_c, 3, 76, 100
5, 1270680, Note_on_c, 3, 76, 0
5, 1270680, Note_on_c, 3, 77, 100
5, 1270920, Note_on_c, 3, 77, 0
5, 1270920, Note_on_c, 3, 79, 100
5, 1271040, Note_on_c, 3, 79, 0
5, 1271040, Note_on_c, 3, 81, 100
5, 1271280, Note_on_c, 3, 81, 0
5, 1271280, Note_on_c, 3, 70, 100
5, 1271520, Note_on_c, 3, 70, 0
5, 1271520, Note_on_c, 3, 72, 100
5, 1271760, Note_on_c, 3, 72, 0
5, 1271760, Note_on_c, 3, 81, 100
5, 1272000, Note_on_c, 3, 81, 0
5, 1272240, Note_on_c, 3, 79, 100
5, 1272300, Note_on_c, 3, 79, 0
5, 1272300, Note_on_c, 3, 81, 100
5, 1272360, Note_on_c, 3, 81, 0
5, 1272360, Note_on_c, 3, 79, 100
5, 1272600, Note_on_c, 3, 79, 0
5, 1272600, Note_on_c, 3, 79, 100
5, 1272840, Note_on_c, 3, 79, 0
5, 1272840, Note_on_c, 3, 79, 100
5, 1273080, Note_on_c, 3, 79, 0
5, 1273080, Note_on_c, 3, 77, 100
5, 1273140, Note_on_c, 3, 77, 0
5, 1273140, Note_on_c, 3, 79, 100
5, 1273200, Note_on_c, 3, 79, 0
5, 1273200, Note_on_c, 3, 81, 100
5, 1273320, Note_on_c, 3, 81, 0
5, 1273320, Note_on_c, 3, 82, 100
5, 1273440, Note_on_c, 3, 82, 0
5, 1273440, Note_on_c, 3, 81, 100
5, 1273560, Note_on_c, 3, 81, 0
5, 1273560, Note_on_c, 3, 77, 100
5, 1273680, Note_on_c, 3, 77, 0
5, 1273680, Note_on_c, 3, 73, 100
5, 1273920, Note_on_c, 3, 73, 0
5, 1274160, Note_on_c, 3, 79, 100
5, 1274520, Note_on_c, 3, 79, 0
5, 1274520, Note_on_c, 3, 78, 100
5, 1274580, Note_on_c, 3, 78, 0
5, 1274580, Note_on_c, 3, 76, 100
5, 1274640, Note_on_c, 3, 76, 0
5, 1274640, Note_on_c, 3, 78, 100
5, 1274880, Note_on_c, 3, 78, 0
5, 1275960, Note_on_c, 3, 74, 100
5, 1276080, Note_on_c, 3, 74, 0
5, 1276080, Note_on_c, 3, 74, 100
5, 1276200, Note_on_c, 3, 74, 0
5, 1276200, Note_on_c, 3, 76, 100
5, 1276320, Note_on_c, 3, 76, 0
5, 1276320, Note_on_c, 3, 76, 100
5, 1276440, Note_on_c, 3, 76, 0
5, 1276440, Note_on_c, 3, 78, 100
5, 1276560, Note_on_c, 3, 78, 0
5, 1276560, Note_on_c, 3, 78, 100
5, 1276680, Note_on_c, 3, 78, 0
5, 1276680, Note_on_c, 3, 79, 100
5, 1276800, Note_on_c, 3, 79, 0
5, 1276800, Note_on_c, 3, 79, 100
5, 1277400, Note_on_c, 3, 79, 0
5, 1277400, Note_on_c, 3, 81, 100
5, 1277520, Note_on_c, 3, 81, 0
5, 1277520, Note_on_c, 3, 82, 100
5, 1277640, Note_on_c, 3, 82, 0
5, 1277640, Note_on_c, 3, 84, 100
5, 1277760, Note_on_c, 3, 84, 0
5, 1277760, Note_on_c, 3, 86, 100
5, 1277880, Note_on_c, 3, 86, 0
5, 1277880, Note_on_c, 3, 81, 100
5, 1278000, Note_on_c, 3, 81, 0
5, 1278000, Note_on_c, 3, 81, 100
5, 1278060, Note_on_c, 3, 81, 0
5, 1278060, Note_on_c, 3, 80, 100
5, 1278120, Note_on_c, 3, 80, 0
5, 1278120, Note_on_c, 3, 81, 100
5, 1278240, Note_on_c, 3, 81, 0
5, 1278240, Note_on_c, 3, 74, 100
5, 1278960, Note_on_c, 3, 74, 0
5, 1278960, Note_on_c, 3, 75, 100
5, 1279080, Note_on_c, 3, 75, 0
5, 1279080, Note_on_c, 3, 77, 100
5, 1279200, Note_on_c, 3, 77, 0
5, 1279200, Note_on_c, 3, 75, 100
5, 1279320, Note_on_c, 3, 75, 0
5, 1279320, Note_on_c, 3, 74, 100
5, 1279440, Note_on_c, 3, 74, 0
5, 1279440, Note_on_c, 3, 74, 100
5, 1279560, Note_on_c, 3, 74, 0
5, 1279560, Note_on_c, 3, 72, 100
5, 1279680, Note_on_c, 3, 72, 0
5, 1279680, Note_on_c, 3, 70, 100
5, 1279920, Note_on_c, 3, 70, 0
5, 1280400, Note_on_c, 3, 72, 100
5, 1280640, Note_on_c, 3, 72, 0
5, 1280640, Note_on_c, 3, 79, 100
5, 1280700, Note_on_c, 3, 79, 0
5, 1280700, Note_on_c, 3, 81, 100
5, 1280760, Note_on_c, 3, 81, 0
5, 1280760, Note_on_c, 3, 78, 100
5, 1280880, Note_on_c, 3, 78, 0
5, 1280880, Note_on_c, 3, 79, 100
5, 1281000, Note_on_c, 3, 79, 0
5, 1281000, Note_on_c, 3, 81, 100
5, 1281120, Note_on_c, 3, 81, 0
5, 1281120, Note_on_c, 3, 82, 100
5, 1281240, Note_on_c, 3, 82, 0
5, 1281240, Note_on_c, 3, 84, 100
5, 1281360, Note_on_c, 3, 84, 0
5, 1281360, Note_on_c, 3, 86, 100
5, 1281480, Note_on_c, 3, 86, 0
5, 1281480, Note_on_c, 3, 84, 100
5, 1281600, Note_on_c, 3, 84, 0
5, 1281600, Note_on_c, 3, 82, 100
5, 1281720, Note_on_c, 3, 82, 0
5, 1281720, Note_on_c, 3, 79, 100
5, 1281840, Note_on_c, 3, 79, 0
5, 1281840, Note_on_c, 3, 74, 100
5, 1282320, Note_on_c, 3, 74, 0
5, 1282320, Note_on_c, 3, 75, 100
5, 1282560, Note_on_c, 3, 75, 0
5, 1282560, Note_on_c, 3, 74, 100
5, 1282800, Note_on_c, 3, 74, 0
5, 1283160, Note_on_c, 3, 75, 100
5, 1283280, Note_on_c, 3, 75, 0
5, 1283280, Note_on_c, 3, 74, 100
5, 1283400, Note_on_c, 3, 74, 0
5, 1283400, Note_on_c, 3, 72, 100
5, 1283520, Note_on_c, 3, 72, 0
5, 1283520, Note_on_c, 3, 70, 100
5, 1283640, Note_on_c, 3, 70, 0
5, 1283640, Note_on_c, 3, 72, 100
5, 1283760, Note_on_c, 3, 72, 0
5, 1283760, Note_on_c, 3, 72, 100
5, 1283880, Note_on_c, 3, 72, 0
5, 1283880, Note_on_c, 3, 74, 100
5, 1284000, Note_on_c, 3, 74, 0
5, 1284000, Note_on_c, 3, 74, 100
5, 1284120, Note_on_c, 3, 74, 0
5, 1284120, Note_on_c, 3, 75, 100
5, 1284240, Note_on_c, 3, 75, 0
5, 1284240, Note_on_c, 3, 75, 100
5, 1284360, Note_on_c, 3, 75, 0
5, 1284360, Note_on_c, 3, 74, 100
5, 1284480, Note_on_c, 3, 74, 0
5, 1284480, Note_on_c, 3, 74, 100
5, 1284720, Note_on_c, 3, 74, 0
5, 1285200, Note_on_c, 3, 81, 100
5, 1285440, Note_on_c, 3, 81, 0
5, 1285440, Note_on_c, 3, 82, 100
5, 1285680, Note_on_c, 3, 82, 0
5, 1285680, Note_on_c, 3, 74, 100
5, 1285800, Note_on_c, 3, 74, 0
5, 1285800, Note_on_c, 3, 76, 100
5, 1286040, Note_on_c, 3, 76, 0
5, 1286040, Note_on_c, 3, 77, 100
5, 1286280, Note_on_c, 3, 77, 0
5, 1286280, Note_on_c, 3, 79, 100
5, 1286400, Note_on_c, 3, 79, 0
5, 1286400, Note_on_c, 3, 81, 100
5, 1286640, Note_on_c, 3, 81, 0
5, 1286640, Note_on_c, 3, 70, 100
5, 1286880, Note_on_c, 3, 70, 0
5, 1286880, Note_on_c, 3, 72, 100
5, 1287120, Note_on_c, 3, 72, 0
5, 1287120, Note_on_c, 3, 81, 100
5, 1287360, Note_on_c, 3, 81, 0
5, 1287600, Note_on_c, 3, 79, 100
5, 1287660, Note_on_c, 3, 79, 0
5, 1287660, Note_on_c, 3, 81, 100
5, 1287720, Note_on_c, 3, 81, 0
5, 1287720, Note_on_c, 3, 79, 100
5, 1287960, Note_on_c, 3, 79, 0
5, 1287960, Note_on_c, 3, 79, 100
5, 1288200, Note_on_c, 3, 79, 0
5, 1288200, Note_on_c, 3, 79, 100
5, 1288440, Note_on_c, 3, 79, 0
5, 1288440, Note_on_c, 3, 77, 100
5, 1288500, Note_on_c, 3, 77, 0
5, 1288500, Note_on_c, 3, 79, 100
5, 1288560, Note_on_c, 3, 79, 0
5, 1288560, Note_on_c, 3, 81, 100
5, 1288680, Note_on_c, 3, 81, 0
5, 1288680, Note_on_c, 3, 82, 100
5, 1288800, Note_on_c, 3, 82, 0
5, 1288800, Note_on_c, 3, 81, 100
5, 1288920, Note_on_c, 3, 81, 0
5, 1288920, Note_on_c, 3, 77, 100
5, 1289040, Note_on_c, 3, 77, 0
5, 1289040, Note_on_c, 3, 73, 100
5, 1289280, Note_on_c, 3, 73, 0
5, 1289520, Note_on_c, 3, 79, 100
5, 1289880, Note_on_c, 3, 79, 0
5, 1289880, Note_on_c, 3, 78, 100
5, 1289940, Note_on_c, 3, 78, 0
5, 1289940, Note_on_c, 3, 76, 100
5, 1290000, Note_on_c, 3, 76, 0
5, 1290000, Note_on_c, 3, 78, 100
5, 1290240, Note_on_c, 3, 78, 0
5, 1291440, Note_on_c, 3, 75, 100
5, 1291680, Note_on_c, 3, 75, 0
5, 1291680, Note_on_c, 3, 74, 100
5, 1291920, Note_on_c, 3, 74, 0
5, 1291920, Note_on_c, 3, 72, 100
5, 1292160, Note_on_c, 3, 72, 0
5, 1292160, Note_on_c, 3, 79, 100
5, 1292280, Note_on_c, 3, 79, 0
5, 1292280, Note_on_c, 3, 67, 100
5, 1292520, Note_on_c, 3, 67, 0
5, 1292520, Note_on_c, 3, 68, 100
5, 1292760, Note_on_c, 3, 68, 0
5, 1292760, Note_on_c, 3, 70, 100
5, 1293000, Note_on_c, 3, 70, 0
5, 1293000, Note_on_c, 3, 72, 100
5, 1293120, Note_on_c, 3, 72, 0
5, 1293120, Note_on_c, 3, 70, 100
5, 1293360, Note_on_c, 3, 70, 0
5, 1293360, Note_on_c, 3, 77, 100
5, 1293600, Note_on_c, 3, 77, 0
5, 1293600, Note_on_c, 3, 79, 100
5, 1293840, Note_on_c, 3, 79, 0
5, 1293840, Note_on_c, 3, 74, 100
5, 1294080, Note_on_c, 3, 74, 0
5, 1294080, Note_on_c, 3, 75, 100
5, 1294200, Note_on_c, 3, 75, 0
5, 1294200, Note_on_c, 3, 74, 100
5, 1294320, Note_on_c, 3, 74, 0
5, 1294320, Note_on_c, 3, 72, 100
5, 1294560, Note_on_c, 3, 72, 0
5, 1294680, Note_on_c, 3, 70, 100
5, 1294920, Note_on_c, 3, 70, 0
5, 1294920, Note_on_c, 3, 72, 100
5, 1295040, Note_on_c, 3, 72, 0
5, 1295040, Note_on_c, 3, 74, 100
5, 1295160, Note_on_c, 3, 74, 0
5, 1295160, Note_on_c, 3, 70, 100
5, 1295280, Note_on_c, 3, 70, 0
5, 1295280, Note_on_c, 3, 65, 100
5, 1295400, Note_on_c, 3, 65, 0
5, 1295400, Note_on_c, 3, 62, 100
5, 1295520, Note_on_c, 3, 62, 0
5, 1295520, Note_on_c, 3, 63, 100
5, 1295640, Note_on_c, 3, 63, 0
5, 1295640, Note_on_c, 3, 65, 100
5, 1295760, Note_on_c, 3, 65, 0
5, 1295760, Note_on_c, 3, 67, 100
5, 1295880, Note_on_c, 3, 67, 0
5, 1295880, Note_on_c, 3, 68, 100
5, 1296000, Note_on_c, 3, 68, 0
5, 1296000, Note_on_c, 3, 70, 100
5, 1297080, Note_on_c, 3, 70, 0
5, 1297080, Note_on_c, 3, 72, 100
5, 1297140, Note_on_c, 3, 72, 0
5, 1297140, Note_on_c, 3, 74, 100
5, 1297200, Note_on_c, 3, 74, 0
5, 1297200, Note_on_c, 3, 75, 100
5, 1297260, Note_on_c, 3, 75, 0
5, 1297260, Note_on_c, 3, 74, 100
5, 1297320, Note_on_c, 3, 74, 0
5, 1297320, Note_on_c, 3, 72, 100
5, 1297440, Note_on_c, 3, 72, 0
5, 1297440, Note_on_c, 3, 74, 100
5, 1297560, Note_on_c, 3, 74, 0
5, 1297560, Note_on_c, 3, 75, 100
5, 1297620, Note_on_c, 3, 75, 0
5, 1297620, Note_on_c, 3, 77, 100
5, 1297680, Note_on_c, 3, 77, 0
5, 1297680, Note_on_c, 3, 75, 100
5, 1297740, Note_on_c, 3, 75, 0
5, 1297740, Note_on_c, 3, 77, 100
5, 1297800, Note_on_c, 3, 77, 0
5, 1297800, Note_on_c, 3, 79, 100
5, 1297920, Note_on_c, 3, 79, 0
5, 1297920, Note_on_c, 3, 77, 100
5, 1298160, Note_on_c, 3, 77, 0
5, 1299000, Note_on_c, 3, 72, 100
5, 1299120, Note_on_c, 3, 72, 0
5, 1299120, Note_on_c, 3, 72, 100
5, 1299240, Note_on_c, 3, 72, 0
5, 1299240, Note_on_c, 3, 74, 100
5, 1299360, Note_on_c, 3, 74, 0
5, 1299360, Note_on_c, 3, 75, 100
5, 1299480, Note_on_c, 3, 75, 0
5, 1299480, Note_on_c, 3, 76, 100
5, 1299600, Note_on_c, 3, 76, 0
5, 1299600, Note_on_c, 3, 67, 100
5, 1299720, Note_on_c, 3, 67, 0
5, 1299720, Note_on_c, 3, 76, 100
5, 1299840, Note_on_c, 3, 76, 0
5, 1299840, Note_on_c, 3, 78, 100
5, 1300440, Note_on_c, 3, 78, 0
5, 1300440, Note_on_c, 3, 79, 100
5, 1300560, Note_on_c, 3, 79, 0
5, 1300560, Note_on_c, 3, 81, 100
5, 1300680, Note_on_c, 3, 81, 0
5, 1300680, Note_on_c, 3, 82, 100
5, 1300800, Note_on_c, 3, 82, 0
5, 1300800, Note_on_c, 3, 84, 100
5, 1300920, Note_on_c, 3, 84, 0
5, 1300920, Note_on_c, 3, 82, 100
5, 1301040, Note_on_c, 3, 82, 0
5, 1301040, Note_on_c, 3, 81, 100
5, 1301160, Note_on_c, 3, 81, 0
5, 1301160, Note_on_c, 3, 79, 100
5, 1301280, Note_on_c, 3, 79, 0
5, 1301280, Note_on_c, 3, 78, 100
5, 1301400, Note_on_c, 3, 78, 0
5, 1301400, Note_on_c, 3, 79, 100
5, 1301520, Note_on_c, 3, 79, 0
5, 1301520, Note_on_c, 3, 78, 100
5, 1301880, Note_on_c, 3, 78, 0
5, 1301880, Note_on_c, 3, 81, 100
5, 1302000, Note_on_c, 3, 81, 0
5, 1302000, Note_on_c, 3, 79, 100
5, 1302240, Note_on_c, 3, 79, 0
5, 1302480, Note_on_c, 3, 72, 100
5, 1302720, Note_on_c, 3, 72, 0
5, 1302720, Note_on_c, 3, 67, 100
5, 1303080, Note_on_c, 3, 67, 0
5, 1303080, Note_on_c, 3, 69, 100
5, 1303200, Note_on_c, 3, 69, 0
5, 1303200, Note_on_c, 3, 70, 100
5, 1303320, Note_on_c, 3, 70, 0
5, 1303320, Note_on_c, 3, 72, 100
5, 1303440, Note_on_c, 3, 72, 0
5, 1303440, Note_on_c, 3, 74, 100
5, 1303560, Note_on_c, 3, 74, 0
5, 1303560, Note_on_c, 3, 76, 100
5, 1303680, Note_on_c, 3, 76, 0
5, 1303680, Note_on_c, 3, 78, 100
5, 1303800, Note_on_c, 3, 78, 0
5, 1303800, Note_on_c, 3, 79, 100
5, 1303920, Note_on_c, 3, 79, 0
5, 1303920, Note_on_c, 3, 81, 100
5, 1304040, Note_on_c, 3, 81, 0
5, 1304040, Note_on_c, 3, 78, 100
5, 1304160, Note_on_c, 3, 78, 0
5, 1304160, Note_on_c, 3, 79, 100
5, 1304280, Note_on_c, 3, 79, 0
5, 1304280, Note_on_c, 3, 78, 100
5, 1304400, Note_on_c, 3, 78, 0
5, 1304400, Note_on_c, 3, 76, 100
5, 1304460, Note_on_c, 3, 76, 0
5, 1304460, Note_on_c, 3, 74, 100
5, 1304520, Note_on_c, 3, 74, 0
5, 1304520, Note_on_c, 3, 84, 100
5, 1304760, Note_on_c, 3, 84, 0
5, 1304760, Note_on_c, 3, 78, 100
5, 1304880, Note_on_c, 3, 78, 0
5, 1304880, Note_on_c, 3, 79, 100
5, 1305000, Note_on_c, 3, 79, 0
5, 1305000, Note_on_c, 3, 81, 100
5, 1305120, Note_on_c, 3, 81, 0
5, 1305120, Note_on_c, 3, 82, 100
5, 1305240, Note_on_c, 3, 82, 0
5, 1305240, Note_on_c, 3, 84, 100
5, 1305360, Note_on_c, 3, 84, 0
5, 1305360, Note_on_c, 3, 86, 100
5, 1305600, Note_on_c, 3, 86, 0
5, 1306800, Note_on_c, 3, 75, 100
5, 1307040, Note_on_c, 3, 75, 0
5, 1307040, Note_on_c, 3, 74, 100
5, 1307280, Note_on_c, 3, 74, 0
5, 1307280, Note_on_c, 3, 72, 100
5, 1307520, Note_on_c, 3, 72, 0
5, 1307520, Note_on_c, 3, 79, 100
5, 1307640, Note_on_c, 3, 79, 0
5, 1307640, Note_on_c, 3, 67, 100
5, 1307880, Note_on_c, 3, 67, 0
5, 1307880, Note_on_c, 3, 68, 100
5, 1308120, Note_on_c, 3, 68, 0
5, 1308120, Note_on_c, 3, 70, 100
5, 1308360, Note_on_c, 3, 70, 0
5, 1308360, Note_on_c, 3, 72, 100
5, 1308480, Note_on_c, 3, 72, 0
5, 1308480, Note_on_c, 3, 70, 100
5, 1308720, Note_on_c, 3, 70, 0
5, 1308720, Note_on_c, 3, 77, 100
5, 1308960, Note_on_c, 3, 77, 0
5, 1308960, Note_on_c, 3, 79, 100
5, 1309200, Note_on_c, 3, 79, 0
5, 1309200, Note_on_c, 3, 74, 100
5, 1309440, Note_on_c, 3, 74, 0
5, 1309440, Note_on_c, 3, 75, 100
5, 1309560, Note_on_c, 3, 75, 0
5, 1309560, Note_on_c, 3, 74, 100
5, 1309680, Note_on_c, 3, 74, 0
5, 1309680, Note_on_c, 3, 72, 100
5, 1309920, Note_on_c, 3, 72, 0
5, 1310040, Note_on_c, 3, 70, 100
5, 1310280, Note_on_c, 3, 70, 0
5, 1310280, Note_on_c, 3, 72, 100
5, 1310400, Note_on_c, 3, 72, 0
5, 1310400, Note_on_c, 3, 74, 100
5, 1310520, Note_on_c, 3, 74, 0
5, 1310520, Note_on_c, 3, 70, 100
5, 1310640, Note_on_c, 3, 70, 0
5, 1310640, Note_on_c, 3, 65, 100
5, 1310760, Note_on_c, 3, 65, 0
5, 1310760, Note_on_c, 3, 62, 100
5, 1310880, Note_on_c, 3, 62, 0
5, 1310880, Note_on_c, 3, 63, 100
5, 1311000, Note_on_c, 3, 63, 0
5, 1311000, Note_on_c, 3, 65, 100
5, 1311120, Note_on_c, 3, 65, 0
5, 1311120, Note_on_c, 3, 67, 100
5, 1311240, Note_on_c, 3, 67, 0
5, 1311240, Note_on_c, 3, 68, 100
5, 1311360, Note_on_c, 3, 68, 0
5, 1311360, Note_on_c, 3, 70, 100
5, 1312440, Note_on_c, 3, 70, 0
5, 1312440, Note_on_c, 3, 72, 100
5, 1312500, Note_on_c, 3, 72, 0
5, 1312500, Note_on_c, 3, 74, 100
5, 1312560, Note_on_c, 3, 74, 0
5, 1312560, Note_on_c, 3, 75, 100
5, 1312620, Note_on_c, 3, 75, 0
5, 1312620, Note_on_c, 3, 74, 100
5, 1312680, Note_on_c, 3, 74, 0
5, 1312680, Note_on_c, 3, 72, 100
5, 1312800, Note_on_c, 3, 72, 0
5, 1312800, Note_on_c, 3, 74, 100
5, 1312920, Note_on_c, 3, 74, 0
5, 1312920, Note_on_c, 3, 75, 100
5, 1312980, Note_on_c, 3, 75, 0
5, 1312980, Note_on_c, 3, 77, 100
5, 1313040, Note_on_c, 3, 77, 0
5, 1313040, Note_on_c, 3, 75, 100
5, 1313100, Note_on_c, 3, 75, 0
5, 1313100, Note_on_c, 3, 77, 100
5, 1313160, Note_on_c, 3, 77, 0
5, 1313160, Note_on_c, 3, 79, 100
5, 1313280, Note_on_c, 3, 79, 0
5, 1313280, Note_on_c, 3, 77, 100
5, 1313520, Note_on_c, 3, 77, 0
5, 1314360, Note_on_c, 3, 72, 100
5, 1314480, Note_on_c, 3, 72, 0
5, 1314480, Note_on_c, 3, 72, 100
5, 1314600, Note_on_c, 3, 72, 0
5, 1314600, Note_on_c, 3, 74, 100
5, 1314720, Note_on_c, 3, 74, 0
5, 1314720, Note_on_c, 3, 75, 100
5, 1314840, Note_on_c, 3, 75, 0
5, 1314840, Note_on_c, 3, 76, 100
5, 1314960, Note_on_c, 3, 76, 0
5, 1314960, Note_on_c, 3, 67, 100
5, 1315080, Note_on_c, 3, 67, 0
5, 1315080, Note_on_c, 3, 76, 100
5, 1315200, Note_on_c, 3, 76, 0
5, 1315200, Note_on_c, 3, 78, 100
5, 1315800, Note_on_c, 3, 78, 0
5, 1315800, Note_on_c, 3, 79, 100
5, 1315920, Note_on_c, 3, 79, 0
5, 1315920, Note_on_c, 3, 81, 100
5, 1316040, Note_on_c, 3, 81, 0
5, 1316040, Note_on_c, 3, 82, 100
5, 1316160, Note_on_c, 3, 82, 0
5, 1316160, Note_on_c, 3, 84, 100
5, 1316280, Note_on_c, 3, 84, 0
5, 1316280, Note_on_c, 3, 82, 100
5, 1316400, Note_on_c, 3, 82, 0
5, 1316400, Note_on_c, 3, 81, 100
5, 1316520, Note_on_c, 3, 81, 0
5, 1316520, Note_on_c, 3, 79, 100
5, 1316640, Note_on_c, 3, 79, 0
5, 1316640, Note_on_c, 3, 78, 100
5, 1316760, Note_on_c, 3, 78, 0
5, 1316760, Note_on_c, 3, 79, 100
5, 1316880, Note_on_c, 3, 79, 0
5, 1316880, Note_on_c, 3, 78, 100
5, 1317240, Note_on_c, 3, 78, 0
5, 1317240, Note_on_c, 3, 81, 100
5, 1317360, Note_on_c, 3, 81, 0
5, 1317360, Note_on_c, 3, 79, 100
5, 1317600, Note_on_c, 3, 79, 0
5, 1317840, Note_on_c, 3, 72, 100
5, 1318080, Note_on_c, 3, 72, 0
5, 1318080, Note_on_c, 3, 67, 100
5, 1318440, Note_on_c, 3, 67, 0
5, 1318440, Note_on_c, 3, 69, 100
5, 1318560, Note_on_c, 3, 69, 0
5, 1318560, Note_on_c, 3, 70, 100
5, 1318680, Note_on_c, 3, 70, 0
5, 1318680, Note_on_c, 3, 72, 100
5, 1318800, Note_on_c, 3, 72, 0
5, 1318800, Note_on_c, 3, 74, 100
5, 1318920, Note_on_c, 3, 74, 0
5, 1318920, Note_on_c, 3, 76, 100
5, 1319040, Note_on_c, 3, 76, 0
5, 1319040, Note_on_c, 3, 78, 100
5, 1319160, Note_on_c, 3, 78, 0
5, 1319160, Note_on_c, 3, 79, 100
5, 1319280, Note_on_c, 3, 79, 0
5, 1319280, Note_on_c, 3, 81, 100
5, 1319400, Note_on_c, 3, 81, 0
5, 1319400, Note_on_c, 3, 78, 100
5, 1319520, Note_on_c, 3, 78, 0
5, 1319520, Note_on_c, 3, 79, 100
5, 1319640, Note_on_c, 3, 79, 0
5, 1319640, Note_on_c, 3, 78, 100
5, 1319760, Note_on_c, 3, 78, 0
5, 1319760, Note_on_c, 3, 76, 100
5, 1319820, Note_on_c, 3, 76, 0
5, 1319820, Note_on_c, 3, 74, 100
5, 1319880, Note_on_c, 3, 74, 0
5, 1319880, Note_on_c, 3, 84, 100
5, 1320120, Note_on_c, 3, 84, 0
5, 1320120, Note_on_c, 3, 78, 100
5, 1320240, Note_on_c, 3, 78, 0
5, 1320240, Note_on_c, 3, 79, 100
5, 1320360, Note_on_c, 3, 79, 0
5, 1320360, Note_on_c, 3, 81, 100
5, 1320480, Note_on_c, 3, 81, 0
5, 1320480, Note_on_c, 3, 82, 100
5, 1320600, Note_on_c, 3, 82, 0
5, 1320600, Note_on_c, 3, 84, 100
5, 1320720, Note_on_c, 3, 84, 0
5, 1320720, Note_on_c, 3, 86, 100
5, 1320960, Note_on_c, 3, 86, 0
5, 1520880, Note_on_c, 3, 79, 100
5, 1522800, Note_on_c, 3, 79, 0
5, 1522800, Note_on_c, 3, 78, 100
5, 1524240, Note_on_c, 3, 78, 0
5, 1524240, Note_on_c, 3, 79, 100
5, 1524480, Note_on_c, 3, 79, 0
5, 1524480, Note_on_c, 3, 78, 100
5, 1524720, Note_on_c, 3, 78, 0
5, 1524720, Note_on_c, 3, 76, 100
5, 1526160, Note_on_c, 3, 76, 0
5, 1526160, Note_on_c, 3, 74, 100
5, 1526400, Note_on_c, 3, 74, 0
5, 1526400, Note_on_c, 3, 73, 100
5, 1526640, Note_on_c, 3, 73, 0
5, 1526640, Note_on_c, 3, 74, 100
5, 1527600, Note_on_c, 3, 74, 0
5, 1528560, Note_on_c, 3, 76, 100
5, 1530000, Note_on_c, 3, 76, 0
5, 1530000, Note_on_c, 3, 74, 100
5, 1530240, Note_on_c, 3, 74, 0
5, 1530240, Note_on_c, 3, 76, 100
5, 1530480, Note_on_c, 3, 76, 0
5, 1530480, Note_on_c, 3, 78, 100
5, 1531920, Note_on_c, 3, 78, 0
5, 1531920, Note_on_c, 3, 81, 100
5, 1532160, Note_on_c, 3, 81, 0
5, 1532160, Note_on_c, 3, 79, 100
5, 1532400, Note_on_c, 3, 79, 0
5, 1532400, Note_on_c, 3, 81, 100
5, 1533600, Note_on_c, 3, 81, 0
5, 1533600, Note_on_c, 3, 79, 100
5, 1533840, Note_on_c, 3, 79, 0
5, 1533840, Note_on_c, 3, 81, 100
5, 1534080, Note_on_c, 3, 81, 0
5, 1534080, Note_on_c, 3, 78, 100
5, 1534320, Note_on_c, 3, 78, 0
5, 1534320, Note_on_c, 3, 79, 100
5, 1535280, Note_on_c, 3, 79, 0
5, 1536240, Note_on_c, 3, 76, 100
5, 1538160, Note_on_c, 3, 76, 0
5, 1538160, Note_on_c, 3, 74, 100
5, 1539600, Note_on_c, 3, 74, 0
5, 1539600, Note_on_c, 3, 76, 100
5, 1539840, Note_on_c, 3, 76, 0
5, 1539840, Note_on_c, 3, 78, 100
5, 1540080, Note_on_c, 3, 78, 0
5, 1540080, Note_on_c, 3, 79, 100
5, 1541280, Note_on_c, 3, 79, 0
5, 1541280, Note_on_c, 3, 78, 100
5, 1541520, Note_on_c, 3, 78, 0
5, 1541520, Note_on_c, 3, 79, 100
5, 1541760, Note_on_c, 3, 79, 0
5, 1541760, Note_on_c, 3, 76, 100
5, 1542000, Note_on_c, 3, 76, 0
5, 1542000, Note_on_c, 3, 78, 100
5, 1543440, Note_on_c, 3, 78, 0
5, 1543440, Note_on_c, 3, 78, 100
5, 1543920, Note_on_c, 3, 78, 0
5, 1543920, Note_on_c, 3, 76, 100
5, 1545360, Note_on_c, 3, 76, 0
5, 1545360, Note_on_c, 3, 76, 100
5, 1545840, Note_on_c, 3, 76, 0
5, 1545840, Note_on_c, 3, 74, 100
5, 1547280, Note_on_c, 3, 74, 0
5, 1547280, Note_on_c, 3, 79, 100
5, 1547760, Note_on_c, 3, 79, 0
5, 1547760, Note_on_c, 3, 73, 100
5, 1548000, Note_on_c, 3, 73, 0
5, 1548000, Note_on_c, 3, 74, 100
5, 1548240, Note_on_c, 3, 74, 0
5, 1548240, Note_on_c, 3, 76, 100
5, 1549680, Note_on_c, 3, 76, 0
5, 1549680, Note_on_c, 3, 74, 100
5, 1550640, Note_on_c, 3, 74, 0
5, 1551600, Note_on_c, 3, 79, 100
5, 1553520, Note_on_c, 3, 79, 0
5, 1553520, Note_on_c, 3, 78, 100
5, 1554960, Note_on_c, 3, 78, 0
5, 1554960, Note_on_c, 3, 79, 100
5, 1555200, Note_on_c, 3, 79, 0
5, 1555200, Note_on_c, 3, 78, 100
5, 1555440, Note_on_c, 3, 78, 0
5, 1555440, Note_on_c, 3, 76, 100
5, 1556880, Note_on_c, 3, 76, 0
5, 1556880, Note_on_c, 3, 74, 100
5, 1557120, Note_on_c, 3, 74, 0
5, 1557120, Note_on_c, 3, 73, 100
5, 1557360, Note_on_c, 3, 73, 0
5, 1557360, Note_on_c, 3, 74, 100
5, 1558320, Note_on_c, 3, 74, 0
5, 1559280, Note_on_c, 3, 76, 100
5, 1560720, Note_on_c, 3, 76, 0
5, 1560720, Note_on_c, 3, 74, 100
5, 1560960, Note_on_c, 3, 74, 0
5, 1560960, Note_on_c, 3, 76, 100
5, 1561200, Note_on_c, 3, 76, 0
5, 1561200, Note_on_c, 3, 78, 100
5, 1562640, Note_on_c, 3, 78, 0
5, 1562640, Note_on_c, 3, 81, 100
5, 1562880, Note_on_c, 3, 81, 0
5, 1562880, Note_on_c, 3, 79, 100
5, 1563120, Note_on_c, 3, 79, 0
5, 1563120, Note_on_c, 3, 81, 100
5, 1564320, Note_on_c, 3, 81, 0
5, 1564320, Note_on_c, 3, 79, 100
5, 1564560, Note_on_c, 3, 79, 0
5, 1564560, Note_on_c, 3, 81, 100
5, 1564800, Note_on_c, 3, 81, 0
5, 1564800, Note_on_c, 3, 78, 100
5, 1565040, Note_on_c, 3, 78, 0
5, 1565040, Note_on_c, 3, 79, 100
5, 1566000, Note_on_c, 3, 79, 0
5, 1566960, Note_on_c, 3, 76, 100
5, 1568880, Note_on_c, 3, 76, 0
5, 1568880, Note_on_c, 3, 74, 100
5, 1570320, Note_on_c, 3, 74, 0
5, 1570320, Note_on_c, 3, 76, 100
5, 1570560, Note_on_c, 3, 76, 0
5, 1570560, Note_on_c, 3, 78, 100
5, 1570800, Note_on_c, 3, 78, 0
5, 1570800, Note_on_c, 3, 79, 100
5, 1572000, Note_on_c, 3, 79, 0
5, 1572000, Note_on_c, 3, 78, 100
5, 1572240, Note_on_c, 3, 78, 0
5, 1572240, Note_on_c, 3, 79, 100
5, 1572480, Note_on_c, 3, 79, 0
5, 1572480, Note_on_c, 3, 76, 100
5, 1572720, Note_on_c, 3, 76, 0
5, 1572720, Note_on_c, 3, 78, 100
5, 1574160, Note_on_c, 3, 78, 0
5, 1574160, Note_on_c, 3, 78, 100
5, 1574640, Note_on_c, 3, 78, 0
5, 1574640, Note_on_c, 3, 76, 100
5, 1576080, Note_on_c, 3, 76, 0
5, 1576080, Note_on_c, 3, 76, 100
5, 1576560, Note_on_c, 3, 76, 0
5, 1576560, Note_on_c, 3, 74, 100
5, 1578000, Note_on_c, 3, 74, 0
5, 1578000, Note_on_c, 3, 79, 100
5, 1578480, Note_on_c, 3, 79, 0
5, 1578480, Note_on_c, 3, 73, 100
5, 1578720, Note_on_c, 3, 73, 0
5, 1578720, Note_on_c, 3, 74, 100
5, 1578960, Note_on_c, 3, 74, 0
5, 1578960, Note_on_c, 3, 76, 100
5, 1580400, Note_on_c, 3, 76, 0
5, 1580400, Note_on_c, 3, 74, 100
5, 1581360, Note_on_c, 3, 74, 0
5, 1582320, Note_on_c, 3, 81, 100
5, 1584240, Note_on_c, 3, 81, 0
5, 1584240, Note_on_c, 3, 79, 100
5, 1585680, Note_on_c, 3, 79, 0
5, 1585680, Note_on_c, 3, 81, 100
5, 1585920, Note_on_c, 3, 81, 0
5, 1585920, Note_on_c, 3, 83, 100
5, 1586160, Note_on_c, 3, 83, 0
5, 1586160, Note_on_c, 3, 84, 100
5, 1587360, Note_on_c, 3, 84, 0
5, 1587360, Note_on_c, 3, 83, 100
5, 1587600, Note_on_c, 3, 83, 0
5, 1587600, Note_on_c, 3, 84, 100
5, 1588080, Note_on_c, 3, 84, 0
5, 1588080, Note_on_c, 3, 83, 100
5, 1589040, Note_on_c, 3, 83, 0
5, 1590000, Note_on_c, 3, 76, 100
5, 1591920, Note_on_c, 3, 76, 0
5, 1591920, Note_on_c, 3, 75, 100
5, 1592400, Note_on_c, 3, 75, 0
5, 1592400, Note_on_c, 3, 76, 100
5, 1592880, Note_on_c, 3, 76, 0
5, 1592880, Note_on_c, 3, 78, 100
5, 1594320, Note_on_c, 3, 78, 0
5, 1594320, Note_on_c, 3, 76, 100
5, 1594560, Note_on_c, 3, 76, 0
5, 1594560, Note_on_c, 3, 78, 100
5, 1594800, Note_on_c, 3, 78, 0
5, 1594800, Note_on_c, 3, 79, 100
5, 1596000, Note_on_c, 3, 79, 0
5, 1596000, Note_on_c, 3, 78, 100
5, 1596240, Note_on_c, 3, 78, 0
5, 1596240, Note_on_c, 3, 76, 100
5, 1596480, Note_on_c, 3, 76, 0
5, 1596480, Note_on_c, 3, 74, 100
5, 1596720, Note_on_c, 3, 74, 0
5, 1596720, Note_on_c, 3, 72, 100
5, 1597200, Note_on_c, 3, 72, 0
5, 1597680, Note_on_c, 3, 81, 100
5, 1599600, Note_on_c, 3, 81, 0
5, 1599600, Note_on_c, 3, 79, 100
5, 1601040, Note_on_c, 3, 79, 0
5, 1601040, Note_on_c, 3, 81, 100
5, 1601280, Note_on_c, 3, 81, 0
5, 1601280, Note_on_c, 3, 83, 100
5, 1601520, Note_on_c, 3, 83, 0
5, 1601520, Note_on_c, 3, 84, 100
5, 1602720, Note_on_c, 3, 84, 0
5, 1602720, Note_on_c, 3, 83, 100
5, 1602960, Note_on_c, 3, 83, 0
5, 1602960, Note_on_c, 3, 84, 100
5, 1603200, Note_on_c, 3, 84, 0
5, 1603200, Note_on_c, 3, 81, 100
5, 1603440, Note_on_c, 3, 81, 0
5, 1603440, Note_on_c, 3, 83, 100
5, 1604880, Note_on_c, 3, 83, 0
5, 1604880, Note_on_c, 3, 83, 100
5, 1605360, Note_on_c, 3, 83, 0
5, 1605360, Note_on_c, 3, 81, 100
5, 1606800, Note_on_c, 3, 81, 0
5, 1606800, Note_on_c, 3, 81, 100
5, 1607280, Note_on_c, 3, 81, 0
5, 1607280, Note_on_c, 3, 79, 100
5, 1608720, Note_on_c, 3, 79, 0
5, 1608720, Note_on_c, 3, 84, 100
5, 1609200, Note_on_c, 3, 84, 0
5, 1609200, Note_on_c, 3, 78, 100
5, 1609440, Note_on_c, 3, 78, 0
5, 1609440, Note_on_c, 3, 79, 100
5, 1609680, Note_on_c, 3, 79, 0
5, 1609680, Note_on_c, 3, 81, 100
5, 1611120, Note_on_c, 3, 81, 0
5, 1611120, Note_on_c, 3, 79, 100
5, 1612080, Note_on_c, 3, 79, 0
5, 1613040, Note_on_c, 3, 81, 100
5, 1614960, Note_on_c, 3, 81, 0
5, 1614960, Note_on_c, 3, 79, 100
5, 1616400, Note_on_c, 3, 79, 0
5, 1616400, Note_on_c, 3, 81, 100
5, 1616640, Note_on_c, 3, 81, 0
5, 1616640, Note_on_c, 3, 83, 100
5, 1616880, Note_on_c, 3, 83, 0
5, 1616880, Note_on_c, 3, 84, 100
5, 1618080, Note_on_c, 3, 84, 0
5, 1618080, Note_on_c, 3, 83, 100
5, 1618320, Note_on_c, 3, 83, 0
5, 1618320, Note_on_c, 3, 84, 100
5, 1618800, Note_on_c, 3, 84, 0
5, 1618800, Note_on_c, 3, 83, 100
5, 1619760, Note_on_c, 3, 83, 0
5, 1620720, Note_on_c, 3, 76, 100
5, 1622640, Note_on_c, 3, 76, 0
5, 1622640, Note_on_c, 3, 75, 100
5, 1623120, Note_on_c, 3, 75, 0
5, 1623120, Note_on_c, 3, 76, 100
5, 1623600, Note_on_c, 3, 76, 0
5, 1623600, Note_on_c, 3, 78, 100
5, 1625040, Note_on_c, 3, 78, 0
5, 1625040, Note_on_c, 3, 76, 100
5, 1625280, Note_on_c, 3, 76, 0
5, 1625280, Note_on_c, 3, 78, 100
5, 1625520, Note_on_c, 3, 78, 0
5, 1625520, Note_on_c, 3, 79, 100
5, 1626720, Note_on_c, 3, 79, 0
5, 1626720, Note_on_c, 3, 78, 100
5, 1626960, Note_on_c, 3, 78, 0
5, 1626960, Note_on_c, 3, 76, 100
5, 1627200, Note_on_c, 3, 76, 0
5, 1627200, Note_on_c, 3, 74, 100
5, 1627440, Note_on_c, 3, 74, 0
5, 1627440, Note_on_c, 3, 72, 100
5, 1627920, Note_on_c, 3, 72, 0
5, 1628400, Note_on_c, 3, 81, 100
5, 1630320, Note_on_c, 3, 81, 0
5, 1630320, Note_on_c, 3, 79, 100
5, 1631760, Note_on_c, 3, 79, 0
5, 1631760, Note_on_c, 3, 81, 100
5, 1632000, Note_on_c, 3, 81, 0
5, 1632000, Note_on_c, 3, 83, 100
5, 1632240, Note_on_c, 3, 83, 0
5, 1632240, Note_on_c, 3, 84, 100
5, 1633440, Note_on_c, 3, 84, 0
5, 1633440, Note_on_c, 3, 83, 100
5, 1633680, Note_on_c, 3, 83, 0
5, 1633680, Note_on_c, 3, 84, 100
5, 1633920, Note_on_c, 3, 84, 0
5, 1633920, Note_on_c, 3, 81, 100
5, 1634160, Note_on_c, 3, 81, 0
5, 1634160, Note_on_c, 3, 83, 100
5, 1635600, Note_on_c, 3, 83, 0
5, 1635600, Note_on_c, 3, 83, 100
5, 1636080, Note_on_c, 3, 83, 0
5, 1636080, Note_on_c, 3, 81, 100
5, 1637520, Note_on_c, 3, 81, 0
5, 1637520, Note_on_c, 3, 81, 100
5, 1638000, Note_on_c, 3, 81, 0
5, 1638000, Note_on_c, 3, 79, 100
5, 1639440, Note_on_c, 3, 79, 0
5, 1639440, Note_on_c, 3, 84, 100
5, 1639920, Note_on_c, 3, 84, 0
5, 1639920, Note_on_c, 3, 78, 100
5, 1640160, Note_on_c, 3, 78, 0
5, 1640160, Note_on_c, 3, 79, 100
5, 1640400, Note_on_c, 3, 79, 0
5, 1640400, Note_on_c, 3, 81, 100
5, 1641840, Note_on_c, 3, 81, 0
5, 1641840, Note_on_c, 3, 79, 100
5, 1642800, Note_on_c, 3, 79, 0
5, 1642800, Note_on_c, 3, 71, 100
5, 1642920, Note_on_c, 3, 71, 0
5, 1642920, Note_on_c, 3, 69, 100
5, 1643040, Note_on_c, 3, 69, 0
5, 1643040, Note_on_c, 3, 71, 100
5, 1643160, Note_on_c, 3, 71, 0
5, 1643160, Note_on_c, 3, 67, 100
5, 1643280, Note_on_c, 3, 67, 0
5, 1643280, Note_on_c, 3, 62, 100
5, 1643400, Note_on_c, 3, 62, 0
5, 1643400, Note_on_c, 3, 67, 100
5, 1643520, Note_on_c, 3, 67, 0
5, 1643520, Note_on_c, 3, 69, 100
5, 1643640, Note_on_c, 3, 69, 0
5, 1643640, Note_on_c, 3, 67, 100
5, 1643760, Note_on_c, 3, 67, 0
5, 1643760, Note_on_c, 3, 69, 100
5, 1643880, Note_on_c, 3, 69, 0
5, 1643880, Note_on_c, 3, 66, 100
5, 1644000, Note_on_c, 3, 66, 0
5, 1644000, Note_on_c, 3, 62, 100
5, 1644120, Note_on_c, 3, 62, 0
5, 1644120, Note_on_c, 3, 66, 100
5, 1644240, Note_on_c, 3, 66, 0
5, 1644240, Note_on_c, 3, 67, 100
5, 1644360, Note_on_c, 3, 67, 0
5, 1644360, Note_on_c, 3, 66, 100
5, 1644480, Note_on_c, 3, 66, 0
5, 1644480, Note_on_c, 3, 67, 100
5, 1644600, Note_on_c, 3, 67, 0
5, 1644600, Note_on_c, 3, 71, 100
5, 1644720, Note_on_c, 3, 71, 0
5, 1644720, Note_on_c, 3, 69, 100
5, 1644840, Note_on_c, 3, 69, 0
5, 1644840, Note_on_c, 3, 67, 100
5, 1644960, Note_on_c, 3, 67, 0
5, 1644960, Note_on_c, 3, 66, 100
5, 1645080, Note_on_c, 3, 66, 0
5, 1645080, Note_on_c, 3, 64, 100
5, 1645200, Note_on_c, 3, 64, 0
5, 1645200, Note_on_c, 3, 66, 100
5, 1645320, Note_on_c, 3, 66, 0
5, 1645320, Note_on_c, 3, 67, 100
5, 1645440, Note_on_c, 3, 67, 0
5, 1645440, Note_on_c, 3, 69, 100
5, 1645560, Note_on_c, 3, 69, 0
5, 1645560, Note_on_c, 3, 66, 100
5, 1645680, Note_on_c, 3, 66, 0
5, 1645680, Note_on_c, 3, 67, 100
5, 1645920, Note_on_c, 3, 67, 0
5, 1645920, Note_on_c, 3, 67, 100
5, 1646640, Note_on_c, 3, 67, 0
5, 1646640, Note_on_c, 3, 67, 100
5, 1647360, Note_on_c, 3, 67, 0
5, 1647360, Note_on_c, 3, 67, 100
5, 1647600, Note_on_c, 3, 67, 0
5, 1647600, Note_on_c, 3, 66, 100
5, 1647840, Note_on_c, 3, 66, 0
5, 1647840, Note_on_c, 3, 67, 100
5, 1648320, Note_on_c, 3, 67, 0
5, 1649040, Note_on_c, 3, 74, 100
5, 1649280, Note_on_c, 3, 74, 0
5, 1649280, Note_on_c, 3, 73, 100
5, 1649760, Note_on_c, 3, 73, 0
5, 1649760, Note_on_c, 3, 72, 100
5, 1650000, Note_on_c, 3, 72, 0
5, 1650000, Note_on_c, 3, 71, 100
5, 1650240, Note_on_c, 3, 71, 0
5, 1650240, Note_on_c, 3, 64, 100
5, 1650480, Note_on_c, 3, 64, 0
5, 1650480, Note_on_c, 3, 68, 100
5, 1650720, Note_on_c, 3, 68, 0
5, 1650720, Note_on_c, 3, 69, 100
5, 1651200, Note_on_c, 3, 69, 0
5, 1651200, Note_on_c, 3, 67, 100
5, 1651440, Note_on_c, 3, 67, 0
5, 1651440, Note_on_c, 3, 66, 100
5, 1651920, Note_on_c, 3, 66, 0
5, 1651920, Note_on_c, 3, 69, 100
5, 1652160, Note_on_c, 3, 69, 0
5, 1652160, Note_on_c, 3, 62, 100
5, 1652400, Note_on_c, 3, 62, 0
5, 1652400, Note_on_c, 3, 67, 100
5, 1652640, Note_on_c, 3, 67, 0
5, 1652640, Note_on_c, 3, 71, 100
5, 1652880, Note_on_c, 3, 71, 0
5, 1652880, Note_on_c, 3, 73, 100
5, 1653120, Note_on_c, 3, 73, 0
5, 1653120, Note_on_c, 3, 69, 100
5, 1653360, Note_on_c, 3, 69, 0
5, 1653360, Note_on_c, 3, 67, 100
5, 1653840, Note_on_c, 3, 67, 0
5, 1653840, Note_on_c, 3, 66, 100
5, 1654320, Note_on_c, 3, 66, 0
5, 1654320, Note_on_c, 3, 71, 100
5, 1654440, Note_on_c, 3, 71, 0
5, 1654440, Note_on_c, 3, 69, 100
5, 1654560, Note_on_c, 3, 69, 0
5, 1654560, Note_on_c, 3, 71, 100
5, 1654680, Note_on_c, 3, 71, 0
5, 1654680, Note_on_c, 3, 67, 100
5, 1654800, Note_on_c, 3, 67, 0
5, 1654800, Note_on_c, 3, 62, 100
5, 1654920, Note_on_c, 3, 62, 0
5, 1654920, Note_on_c, 3, 67, 100
5, 1655040, Note_on_c, 3, 67, 0
5, 1655040, Note_on_c, 3, 69, 100
5, 1655160, Note_on_c, 3, 69, 0
5, 1655160, Note_on_c, 3, 67, 100
5, 1655280, Note_on_c, 3, 67, 0
5, 1655280, Note_on_c, 3, 69, 100
5, 1655400, Note_on_c, 3, 69, 0
5, 1655400, Note_on_c, 3, 66, 100
5, 1655520, Note_on_c, 3, 66, 0
5, 1655520, Note_on_c, 3, 62, 100
5, 1655640, Note_on_c, 3, 62, 0
5, 1655640, Note_on_c, 3, 66, 100
5, 1655760, Note_on_c, 3, 66, 0
5, 1655760, Note_on_c, 3, 67, 100
5, 1655880, Note_on_c, 3, 67, 0
5, 1655880, Note_on_c, 3, 66, 100
5, 1656000, Note_on_c, 3, 66, 0
5, 1656000, Note_on_c, 3, 67, 100
5, 1656120, Note_on_c, 3, 67, 0
5, 1656120, Note_on_c, 3, 71, 100
5, 1656240, Note_on_c, 3, 71, 0
5, 1656240, Note_on_c, 3, 69, 100
5, 1656360, Note_on_c, 3, 69, 0
5, 1656360, Note_on_c, 3, 67, 100
5, 1656480, Note_on_c, 3, 67, 0
5, 1656480, Note_on_c, 3, 66, 100
5, 1656600, Note_on_c, 3, 66, 0
5, 1656600, Note_on_c, 3, 64, 100
5, 1656720, Note_on_c, 3, 64, 0
5, 1656720, Note_on_c, 3, 66, 100
5, 1656840, Note_on_c, 3, 66, 0
5, 1656840, Note_on_c, 3, 67, 100
5, 1656960, Note_on_c, 3, 67, 0
5, 1656960, Note_on_c, 3, 69, 100
5, 1657080, Note_on_c, 3, 69, 0
5, 1657080, Note_on_c, 3, 66, 100
5, 1657200, Note_on_c, 3, 66, 0
5, 1657200, Note_on_c, 3, 67, 100
5, 1657440, Note_on_c, 3, 67, 0
5, 1657440, Note_on_c, 3, 67, 100
5, 1658160, Note_on_c, 3, 67, 0
5, 1658160, Note_on_c, 3, 67, 100
5, 1658880, Note_on_c, 3, 67, 0
5, 1658880, Note_on_c, 3, 67, 100
5, 1659120, Note_on_c, 3, 67, 0
5, 1659120, Note_on_c, 3, 66, 100
5, 1659360, Note_on_c, 3, 66, 0
5, 1659360, Note_on_c, 3, 67, 100
5, 1659840, Note_on_c, 3, 67, 0
5, 1660560, Note_on_c, 3, 74, 100
5, 1660800, Note_on_c, 3, 74, 0
5, 1660800, Note_on_c, 3, 73, 100
5, 1661280, Note_on_c, 3, 73, 0
5, 1661280, Note_on_c, 3, 72, 100
5, 1661520, Note_on_c, 3, 72, 0
5, 1661520, Note_on_c, 3, 71, 100
5, 1661760, Note_on_c, 3, 71, 0
5, 1661760, Note_on_c, 3, 64, 100
5, 1662000, Note_on_c, 3, 64, 0
5, 1662000, Note_on_c, 3, 68, 100
5, 1662240, Note_on_c, 3, 68, 0
5, 1662240, Note_on_c, 3, 69, 100
5, 1662720, Note_on_c, 3, 69, 0
5, 1662720, Note_on_c, 3, 67, 100
5, 1662960, Note_on_c, 3, 67, 0
5, 1662960, Note_on_c, 3, 66, 100
5, 1663440, Note_on_c, 3, 66, 0
5, 1663440, Note_on_c, 3, 69, 100
5, 1663680, Note_on_c, 3, 69, 0
5, 1663680, Note_on_c, 3, 62, 100
5, 1663920, Note_on_c, 3, 62, 0
5, 1663920, Note_on_c, 3, 67, 100
5, 1664160, Note_on_c, 3, 67, 0
5, 1664160, Note_on_c, 3, 71, 100
5, 1664400, Note_on_c, 3, 71, 0
5, 1664400, Note_on_c, 3, 73, 100
5, 1664640, Note_on_c, 3, 73, 0
5, 1664640, Note_on_c, 3, 69, 100
5, 1664880, Note_on_c, 3, 69, 0
5, 1664880, Note_on_c, 3, 67, 100
5, 1665360, Note_on_c, 3, 67, 0
5, 1665360, Note_on_c, 3, 66, 100
5, 1665840, Note_on_c, 3, 66, 0
5, 1665840, Note_on_c, 3, 62, 100
5, 1666080, Note_on_c, 3, 62, 0
5, 1666080, Note_on_c, 3, 62, 100
5, 1666800, Note_on_c, 3, 62, 0
5, 1666800, Note_on_c, 3, 59, 100
5, 1667040, Note_on_c, 3, 59, 0
5, 1667040, Note_on_c, 3, 67, 100
5, 1667520, Note_on_c, 3, 67, 0
5, 1667520, Note_on_c, 3, 67, 100
5, 1667760, Note_on_c, 3, 67, 0
5, 1667760, Note_on_c, 3, 72, 100
5, 1668000, Note_on_c, 3, 72, 0
5, 1668000, Note_on_c, 3, 66, 100
5, 1668240, Note_on_c, 3, 66, 0
5, 1668720, Note_on_c, 3, 71, 100
5, 1668840, Note_on_c, 3, 71, 0
5, 1668840, Note_on_c, 3, 69, 100
5, 1668960, Note_on_c, 3, 69, 0
5, 1668960, Note_on_c, 3, 71, 100
5, 1669080, Note_on_c, 3, 71, 0
5, 1669080, Note_on_c, 3, 67, 100
5, 1669200, Note_on_c, 3, 67, 0
5, 1669200, Note_on_c, 3, 64, 100
5, 1669320, Note_on_c, 3, 64, 0
5, 1669320, Note_on_c, 3, 67, 100
5, 1669440, Note_on_c, 3, 67, 0
5, 1669440, Note_on_c, 3, 72, 100
5, 1669560, Note_on_c, 3, 72, 0
5, 1669560, Note_on_c, 3, 71, 100
5, 1669680, Note_on_c, 3, 71, 0
5, 1669680, Note_on_c, 3, 72, 100
5, 1669800, Note_on_c, 3, 72, 0
5, 1669800, Note_on_c, 3, 69, 100
5, 1669920, Note_on_c, 3, 69, 0
5, 1669920, Note_on_c, 3, 66, 100
5, 1670040, Note_on_c, 3, 66, 0
5, 1670040, Note_on_c, 3, 69, 100
5, 1670160, Note_on_c, 3, 69, 0
5, 1670160, Note_on_c, 3, 71, 100
5, 1670280, Note_on_c, 3, 71, 0
5, 1670280, Note_on_c, 3, 69, 100
5, 1670400, Note_on_c, 3, 69, 0
5, 1670400, Note_on_c, 3, 71, 100
5, 1670520, Note_on_c, 3, 71, 0
5, 1670520, Note_on_c, 3, 72, 100
5, 1670640, Note_on_c, 3, 72, 0
5, 1670640, Note_on_c, 3, 71, 100
5, 1670760, Note_on_c, 3, 71, 0
5, 1670760, Note_on_c, 3, 69, 100
5, 1670880, Note_on_c, 3, 69, 0
5, 1670880, Note_on_c, 3, 67, 100
5, 1671000, Note_on_c, 3, 67, 0
5, 1671000, Note_on_c, 3, 66, 100
5, 1671120, Note_on_c, 3, 66, 0
5, 1671120, Note_on_c, 3, 67, 100
5, 1671240, Note_on_c, 3, 67, 0
5, 1671240, Note_on_c, 3, 69, 100
5, 1671360, Note_on_c, 3, 69, 0
5, 1671360, Note_on_c, 3, 71, 100
5, 1671480, Note_on_c, 3, 71, 0
5, 1671480, Note_on_c, 3, 67, 100
5, 1671600, Note_on_c, 3, 67, 0
5, 1671600, Note_on_c, 3, 64, 100
5, 1672080, Note_on_c, 3, 64, 0
5, 1672560, Note_on_c, 3, 62, 100
5, 1672680, Note_on_c, 3, 62, 0
5, 1672680, Note_on_c, 3, 67, 100
5, 1672800, Note_on_c, 3, 67, 0
5, 1672800, Note_on_c, 3, 71, 100
5, 1672920, Note_on_c, 3, 71, 0
5, 1672920, Note_on_c, 3, 67, 100
5, 1673040, Note_on_c, 3, 67, 0
5, 1673040, Note_on_c, 3, 64, 100
5, 1673760, Note_on_c, 3, 64, 0
5, 1673760, Note_on_c, 3, 62, 100
5, 1674000, Note_on_c, 3, 62, 0
5, 1674480, Note_on_c, 3, 55, 100
5, 1674720, Note_on_c, 3, 55, 0
5, 1674720, Note_on_c, 3, 55, 100
5, 1675440, Note_on_c, 3, 55, 0
5, 1675440, Note_on_c, 3, 48, 100
5, 1675680, Note_on_c, 3, 48, 0
5, 1675680, Note_on_c, 3, 60, 100
5, 1676160, Note_on_c, 3, 60, 0
5, 1676160, Note_on_c, 3, 57, 100
5, 1676400, Note_on_c, 3, 57, 0
5, 1676400, Note_on_c, 3, 60, 100
5, 1676880, Note_on_c, 3, 60, 0
5, 1676880, Note_on_c, 3, 59, 100
5, 1677360, Note_on_c, 3, 59, 0
5, 1677360, Note_on_c, 3, 62, 100
5, 1677600, Note_on_c, 3, 62, 0
5, 1677600, Note_on_c, 3, 62, 100
5, 1678320, Note_on_c, 3, 62, 0
5, 1678320, Note_on_c, 3, 59, 100
5, 1678560, Note_on_c, 3, 59, 0
5, 1678560, Note_on_c, 3, 67, 100
5, 1679040, Note_on_c, 3, 67, 0
5, 1679040, Note_on_c, 3, 67, 100
5, 1679280, Note_on_c, 3, 67, 0
5, 1679280, Note_on_c, 3, 72, 100
5, 1679520, Note_on_c, 3, 72, 0
5, 1679520, Note_on_c, 3, 66, 100
5, 1679760, Note_on_c, 3, 66, 0
5, 1680240, Note_on_c, 3, 71, 100
5, 1680360, Note_on_c, 3, 71, 0
5, 1680360, Note_on_c, 3, 69, 100
5, 1680480, Note_on_c, 3, 69, 0
5, 1680480, Note_on_c, 3, 71, 100
5, 1680600, Note_on_c, 3, 71, 0
5, 1680600, Note_on_c, 3, 67, 100
5, 1680720, Note_on_c, 3, 67, 0
5, 1680720, Note_on_c, 3, 64, 100
5, 1680840, Note_on_c, 3, 64, 0
5, 1680840, Note_on_c, 3, 67, 100
5, 1680960, Note_on_c, 3, 67, 0
5, 1680960, Note_on_c, 3, 72, 100
5, 1681080, Note_on_c, 3, 72, 0
5, 1681080, Note_on_c, 3, 71, 100
5, 1681200, Note_on_c, 3, 71, 0
5, 1681200, Note_on_c, 3, 72, 100
5, 1681320, Note_on_c, 3, 72, 0
5, 1681320, Note_on_c, 3, 69, 100
5, 1681440, Note_on_c, 3, 69, 0
5, 1681440, Note_on_c, 3, 66, 100
5, 1681560, Note_on_c, 3, 66, 0
5, 1681560, Note_on_c, 3, 69, 100
5, 1681680, Note_on_c, 3, 69, 0
5, 1681680, Note_on_c, 3, 71, 100
5, 1681800, Note_on_c, 3, 71, 0
5, 1681800, Note_on_c, 3, 69, 100
5, 1681920, Note_on_c, 3, 69, 0
5, 1681920, Note_on_c, 3, 71, 100
5, 1682040, Note_on_c, 3, 71, 0
5, 1682040, Note_on_c, 3, 72, 100
5, 1682160, Note_on_c, 3, 72, 0
5, 1682160, Note_on_c, 3, 71, 100
5, 1682280, Note_on_c, 3, 71, 0
5, 1682280, Note_on_c, 3, 69, 100
5, 1682400, Note_on_c, 3, 69, 0
5, 1682400, Note_on_c, 3, 67, 100
5, 1682520, Note_on_c, 3, 67, 0
5, 1682520, Note_on_c, 3, 66, 100
5, 1682640, Note_on_c, 3, 66, 0
5, 1682640, Note_on_c, 3, 67, 100
5, 1682760, Note_on_c, 3, 67, 0
5, 1682760, Note_on_c, 3, 69, 100
5, 1682880, Note_on_c, 3, 69, 0
5, 1682880, Note_on_c, 3, 71, 100
5, 1683000, Note_on_c, 3, 71, 0
5, 1683000, Note_on_c, 3, 67, 100
5, 1683120, Note_on_c, 3, 67, 0
5, 1683120, Note_on_c, 3, 64, 100
5, 1683600, Note_on_c, 3, 64, 0
5, 1684080, Note_on_c, 3, 62, 100
5, 1684200, Note_on_c, 3, 62, 0
5, 1684200, Note_on_c, 3, 67, 100
5, 1684320, Note_on_c, 3, 67, 0
5, 1684320, Note_on_c, 3, 71, 100
5, 1684440, Note_on_c, 3, 71, 0
5, 1684440, Note_on_c, 3, 67, 100
5, 1684560, Note_on_c, 3, 67, 0
5, 1684560, Note_on_c, 3, 64, 100
5, 1685280, Note_on_c, 3, 64, 0
5, 1685280, Note_on_c, 3, 62, 100
5, 1685520, Note_on_c, 3, 62, 0
5, 1686000, Note_on_c, 3, 55, 100
5, 1686240, Note_on_c, 3, 55, 0
5, 1686240, Note_on_c, 3, 55, 100
5, 1686960, Note_on_c, 3, 55, 0
5, 1686960, Note_on_c, 3, 48, 100
5, 1687200, Note_on_c, 3, 48, 0
5, 1687200, Note_on_c, 3, 60, 100
5, 1687680, Note_on_c, 3, 60, 0
5, 1687680, Note_on_c, 3, 57, 100
5, 1687920, Note_on_c, 3, 57, 0
5, 1687920, Note_on_c, 3, 60, 100
5, 1688400, Note_on_c, 3, 60, 0
5, 1688400, Note_on_c, 3, 59, 100
5, 1688880, Note_on_c, 3, 59, 0
5, 1781160, Note_on_c, 3, 58, 100
5, 1781280, Note_on_c, 3, 58, 0
5, 1781280, Note_on_c, 3, 60, 100
5, 1781400, Note_on_c, 3, 60, 0
5, 1781400, Note_on_c, 3, 62, 100
5, 1781520, Note_on_c, 3, 62, 0
5, 1781520, Note_on_c, 3, 63, 100
5, 1781640, Note_on_c, 3, 63, 0
5, 1781640, Note_on_c, 3, 62, 100
5, 1781760, Note_on_c, 3, 62, 0
5, 1781760, Note_on_c, 3, 60, 100
5, 1781880, Note_on_c, 3, 60, 0
5, 1781880, Note_on_c, 3, 58, 100
5, 1782000, Note_on_c, 3, 58, 0
5, 1782000, Note_on_c, 3, 57, 100
5, 1782240, Note_on_c, 3, 57, 0
5, 1782240, Note_on_c, 3, 63, 100
5, 1782480, Note_on_c, 3, 63, 0
5, 1782480, Note_on_c, 3, 57, 100
5, 1782720, Note_on_c, 3, 57, 0
5, 1782720, Note_on_c, 3, 62, 100
5, 1783080, Note_on_c, 3, 62, 0
5, 1783080, Note_on_c, 3, 55, 100
5, 1783200, Note_on_c, 3, 55, 0
5, 1783200, Note_on_c, 3, 57, 100
5, 1783320, Note_on_c, 3, 57, 0
5, 1783320, Note_on_c, 3, 58, 100
5, 1783440, Note_on_c, 3, 58, 0
5, 1783440, Note_on_c, 3, 60, 100
5, 1783560, Note_on_c, 3, 60, 0
5, 1783560, Note_on_c, 3, 58, 100
5, 1783680, Note_on_c, 3, 58, 0
5, 1783680, Note_on_c, 3, 57, 100
5, 1783800, Note_on_c, 3, 57, 0
5, 1783800, Note_on_c, 3, 55, 100
5, 1783920, Note_on_c, 3, 55, 0
5, 1783920, Note_on_c, 3, 57, 100
5, 1784160, Note_on_c, 3, 57, 0
5, 1784640, Note_on_c, 3, 57, 100
5, 1784880, Note_on_c, 3, 57, 0
5, 1784880, Note_on_c, 3, 58, 100
5, 1785120, Note_on_c, 3, 58, 0
5, 1785120, Note_on_c, 3, 57, 100
5, 1785360, Note_on_c, 3, 57, 0
5, 1785360, Note_on_c, 3, 58, 100
5, 1785600, Note_on_c, 3, 58, 0
5, 1785600, Note_on_c, 3, 59, 100
5, 1785840, Note_on_c, 3, 59, 0
5, 1785840, Note_on_c, 3, 60, 100
5, 1785960, Note_on_c, 3, 60, 0
5, 1785960, Note_on_c, 3, 62, 100
5, 1786080, Note_on_c, 3, 62, 0
5, 1786080, Note_on_c, 3, 63, 100
5, 1786200, Note_on_c, 3, 63, 0
5, 1786200, Note_on_c, 3, 62, 100
5, 1786320, Note_on_c, 3, 62, 0
5, 1786320, Note_on_c, 3, 60, 100
5, 1786440, Note_on_c, 3, 60, 0
5, 1786440, Note_on_c, 3, 58, 100
5, 1786560, Note_on_c, 3, 58, 0
5, 1786560, Note_on_c, 3, 57, 100
5, 1786680, Note_on_c, 3, 57, 0
5, 1786680, Note_on_c, 3, 55, 100
5, 1786800, Note_on_c, 3, 55, 0
5, 1786800, Note_on_c, 3, 66, 100
5, 1787040, Note_on_c, 3, 66, 0
5, 1787520, Note_on_c, 3, 62, 100
5, 1787880, Note_on_c, 3, 62, 0
5, 1787880, Note_on_c, 3, 62, 100
5, 1788000, Note_on_c, 3, 62, 0
5, 1788000, Note_on_c, 3, 60, 100
5, 1788120, Note_on_c, 3, 60, 0
5, 1788120, Note_on_c, 3, 58, 100
5, 1788240, Note_on_c, 3, 58, 0
5, 1788240, Note_on_c, 3, 60, 100
5, 1788360, Note_on_c, 3, 60, 0
5, 1788360, Note_on_c, 3, 62, 100
5, 1788480, Note_on_c, 3, 62, 0
5, 1788480, Note_on_c, 3, 64, 100
5, 1788600, Note_on_c, 3, 64, 0
5, 1788600, Note_on_c, 3, 66, 100
5, 1788720, Note_on_c, 3, 66, 0
5, 1788720, Note_on_c, 3, 67, 100
5, 1788960, Note_on_c, 3, 67, 0
5, 1788960, Note_on_c, 3, 66, 100
5, 1789200, Note_on_c, 3, 66, 0
5, 1789200, Note_on_c, 3, 67, 100
5, 1789320, Note_on_c, 3, 67, 0
5, 1789320, Note_on_c, 3, 69, 100
5, 1789440, Note_on_c, 3, 69, 0
5, 1789440, Note_on_c, 3, 70, 100
5, 1789800, Note_on_c, 3, 70, 0
5, 1789800, Note_on_c, 3, 69, 100
5, 1789920, Note_on_c, 3, 69, 0
5, 1789920, Note_on_c, 3, 67, 100
5, 1790040, Note_on_c, 3, 67, 0
5, 1790040, Note_on_c, 3, 70, 100
5, 1790160, Note_on_c, 3, 70, 0
5, 1790160, Note_on_c, 3, 69, 100
5, 1790280, Note_on_c, 3, 69, 0
5, 1790280, Note_on_c, 3, 67, 100
5, 1790400, Note_on_c, 3, 67, 0
5, 1790400, Note_on_c, 3, 65, 100
5, 1790520, Note_on_c, 3, 65, 0
5, 1790520, Note_on_c, 3, 64, 100
5, 1790640, Note_on_c, 3, 64, 0
5, 1790640, Note_on_c, 3, 64, 100
5, 1790680, Note_on_c, 3, 64, 0
5, 1790680, Note_on_c, 3, 62, 100
5, 1790720, Note_on_c, 3, 62, 0
5, 1790720, Note_on_c, 3, 64, 100
5, 1790760, Note_on_c, 3, 64, 0
5, 1790760, Note_on_c, 3, 62, 100
5, 1790800, Note_on_c, 3, 62, 0
5, 1790800, Note_on_c, 3, 64, 100
5, 1790840, Note_on_c, 3, 64, 0
5, 1790840, Note_on_c, 3, 62, 100
5, 1790880, Note_on_c, 3, 62, 0
5, 1790880, Note_on_c, 3, 64, 100
5, 1790910, Note_on_c, 3, 64, 0
5, 1790910, Note_on_c, 3, 62, 100
5, 1790940, Note_on_c, 3, 62, 0
5, 1790940, Note_on_c, 3, 64, 100
5, 1790970, Note_on_c, 3, 64, 0
5, 1790970, Note_on_c, 3, 62, 100
5, 1791000, Note_on_c, 3, 62, 0
5, 1791000, Note_on_c, 3, 61, 100
5, 1791120, Note_on_c, 3, 61, 0
5, 1791120, Note_on_c, 3, 62, 100
5, 1791240, Note_on_c, 3, 62, 0
5, 1791240, Note_on_c, 3, 64, 100
5, 1791360, Note_on_c, 3, 64, 0
5, 1791360, Note_on_c, 3, 65, 100
5, 1791600, Note_on_c, 3, 65, 0
5, 1791600, Note_on_c, 3, 64, 100
5, 1791840, Note_on_c, 3, 64, 0
5, 1792320, Note_on_c, 3, 64, 100
5, 1792560, Note_on_c, 3, 64, 0
5, 1792560, Note_on_c, 3, 65, 100
5, 1792800, Note_on_c, 3, 65, 0
5, 1792800, Note_on_c, 3, 64, 100
5, 1793040, Note_on_c, 3, 64, 0
5, 1793040, Note_on_c, 3, 65, 100
5, 1793280, Note_on_c, 3, 65, 0
5, 1793280, Note_on_c, 3, 66, 100
5, 1793520, Note_on_c, 3, 66, 0
5, 1793520, Note_on_c, 3, 67, 100
5, 1793760, Note_on_c, 3, 67, 0
5, 1793760, Note_on_c, 3, 69, 100
5, 1794000, Note_on_c, 3, 69, 0
5, 1794000, Note_on_c, 3, 70, 100
5, 1794240, Note_on_c, 3, 70, 0
5, 1794240, Note_on_c, 3, 69, 100
5, 1794720, Note_on_c, 3, 69, 0
5, 1794720, Note_on_c, 3, 67, 100
5, 1794840, Note_on_c, 3, 67, 0
5, 1794840, Note_on_c, 3, 65, 100
5, 1794960, Note_on_c, 3, 65, 0
5, 1794960, Note_on_c, 3, 64, 100
5, 1795080, Note_on_c, 3, 64, 0
5, 1795080, Note_on_c, 3, 62, 100
5, 1795200, Note_on_c, 3, 62, 0
5, 1795200, Note_on_c, 3, 64, 100
5, 1795440, Note_on_c, 3, 64, 0
5, 1795440, Note_on_c, 3, 62, 100
5, 1795920, Note_on_c, 3, 62, 0
5, 1796520, Note_on_c, 3, 58, 100
5, 1796640, Note_on_c, 3, 58, 0
5, 1796640, Note_on_c, 3, 60, 100
5, 1796760, Note_on_c, 3, 60, 0
5, 1796760, Note_on_c, 3, 62, 100
5, 1796880, Note_on_c, 3, 62, 0
5, 1796880, Note_on_c, 3, 63, 100
5, 1797000, Note_on_c, 3, 63, 0
5, 1797000, Note_on_c, 3, 62, 100
5, 1797120, Note_on_c, 3, 62, 0
5, 1797120, Note_on_c, 3, 60, 100
5, 1797240, Note_on_c, 3, 60, 0
5, 1797240, Note_on_c, 3, 58, 100
5, 1797360, Note_on_c, 3, 58, 0
5, 1797360, Note_on_c, 3, 57, 100
5, 1797600, Note_on_c, 3, 57, 0
5, 1797600, Note_on_c, 3, 63, 100
5, 1797840, Note_on_c, 3, 63, 0
5, 1797840, Note_on_c, 3, 57, 100
5, 1798080, Note_on_c, 3, 57, 0
5, 1798080, Note_on_c, 3, 62, 100
5, 1798440, Note_on_c, 3, 62, 0
5, 1798440, Note_on_c, 3, 55, 100
5, 1798560, Note_on_c, 3, 55, 0
5, 1798560, Note_on_c, 3, 57, 100
5, 1798680, Note_on_c, 3, 57, 0
5, 1798680, Note_on_c, 3, 58, 100
5, 1798800, Note_on_c, 3, 58, 0
5, 1798800, Note_on_c, 3, 60, 100
5, 1798920, Note_on_c, 3, 60, 0
5, 1798920, Note_on_c, 3, 58, 100
5, 1799040, Note_on_c, 3, 58, 0
5, 1799040, Note_on_c, 3, 57, 100
5, 1799160, Note_on_c, 3, 57, 0
5, 1799160, Note_on_c, 3, 55, 100
5, 1799280, Note_on_c, 3, 55, 0
5, 1799280, Note_on_c, 3, 57, 100
5, 1799520, Note_on_c, 3, 57, 0
5, 1800000, Note_on_c, 3, 57, 100
5, 1800240, Note_on_c, 3, 57, 0
5, 1800240, Note_on_c, 3, 58, 100
5, 1800480, Note_on_c, 3, 58, 0
5, 1800480, Note_on_c, 3, 57, 100
5, 1800720, Note_on_c, 3, 57, 0
5, 1800720, Note_on_c, 3, 58, 100
5, 1800960, Note_on_c, 3, 58, 0
5, 1800960, Note_on_c, 3, 59, 100
5, 1801200, Note_on_c, 3, 59, 0
5, 1801200, Note_on_c, 3, 60, 100
5, 1801320, Note_on_c, 3, 60, 0
5, 1801320, Note_on_c, 3, 62, 100
5, 1801440, Note_on_c, 3, 62, 0
5, 1801440, Note_on_c, 3, 63, 100
5, 1801560, Note_on_c, 3, 63, 0
5, 1801560, Note_on_c, 3, 62, 100
5, 1801680, Note_on_c, 3, 62, 0
5, 1801680, Note_on_c, 3, 60, 100
5, 1801800, Note_on_c, 3, 60, 0
5, 1801800, Note_on_c, 3, 58, 100
5, 1801920, Note_on_c, 3, 58, 0
5, 1801920, Note_on_c, 3, 57, 100
5, 1802040, Note_on_c, 3, 57, 0
5, 1802040, Note_on_c, 3, 55, 100
5, 1802160, Note_on_c, 3, 55, 0
5, 1802160, Note_on_c, 3, 66, 100
5, 1802400, Note_on_c, 3, 66, 0
5, 1802880, Note_on_c, 3, 62, 100
5, 1803240, Note_on_c, 3, 62, 0
5, 1803240, Note_on_c, 3, 62, 100
5, 1803360, Note_on_c, 3, 62, 0
5, 1803360, Note_on_c, 3, 60, 100
5, 1803480, Note_on_c, 3, 60, 0
5, 1803480, Note_on_c, 3, 58, 100
5, 1803600, Note_on_c, 3, 58, 0
5, 1803600, Note_on_c, 3, 60, 100
5, 1803720, Note_on_c, 3, 60, 0
5, 1803720, Note_on_c, 3, 62, 100
5, 1803840, Note_on_c, 3, 62, 0
5, 1803840, Note_on_c, 3, 64, 100
5, 1803960, Note_on_c, 3, 64, 0
5, 1803960, Note_on_c, 3, 66, 100
5, 1804080, Note_on_c, 3, 66, 0
5, 1804080, Note_on_c, 3, 67, 100
5, 1804320, Note_on_c, 3, 67, 0
5, 1804320, Note_on_c, 3, 66, 100
5, 1804560, Note_on_c, 3, 66, 0
5, 1804560, Note_on_c, 3, 67, 100
5, 1804680, Note_on_c, 3, 67, 0
5, 1804680, Note_on_c, 3, 69, 100
5, 1804800, Note_on_c, 3, 69, 0
5, 1804800, Note_on_c, 3, 70, 100
5, 1805160, Note_on_c, 3, 70, 0
5, 1805160, Note_on_c, 3, 69, 100
5, 1805280, Note_on_c, 3, 69, 0
5, 1805280, Note_on_c, 3, 67, 100
5, 1805400, Note_on_c, 3, 67, 0
5, 1805400, Note_on_c, 3, 70, 100
5, 1805520, Note_on_c, 3, 70, 0
5, 1805520, Note_on_c, 3, 69, 100
5, 1805640, Note_on_c, 3, 69, 0
5, 1805640, Note_on_c, 3, 67, 100
5, 1805760, Note_on_c, 3, 67, 0
5, 1805760, Note_on_c, 3, 65, 100
5, 1805880, Note_on_c, 3, 65, 0
5, 1805880, Note_on_c, 3, 64, 100
5, 1806000, Note_on_c, 3, 64, 0
5, 1806000, Note_on_c, 3, 64, 100
5, 1806040, Note_on_c, 3, 64, 0
5, 1806040, Note_on_c, 3, 62, 100
5, 1806080, Note_on_c, 3, 62, 0
5, 1806080, Note_on_c, 3, 64, 100
5, 1806120, Note_on_c, 3, 64, 0
5, 1806120, Note_on_c, 3, 62, 100
5, 1806160, Note_on_c, 3, 62, 0
5, 1806160, Note_on_c, 3, 64, 100
5, 1806200, Note_on_c, 3, 64, 0
5, 1806200, Note_on_c, 3, 62, 100
5, 1806240, Note_on_c, 3, 62, 0
5, 1806240, Note_on_c, 3, 64, 100
5, 1806270, Note_on_c, 3, 64, 0
5, 1806270, Note_on_c, 3, 62, 100
5, 1806300, Note_on_c, 3, 62, 0
5, 1806300, Note_on_c, 3, 64, 100
5, 1806330, Note_on_c, 3, 64, 0
5, 1806330, Note_on_c, 3, 62, 100
5, 1806360, Note_on_c, 3, 62, 0
5, 1806360, Note_on_c, 3, 61, 100
5, 1806480, Note_on_c, 3, 61, 0
5, 1806480, Note_on_c, 3, 62, 100
5, 1806600, Note_on_c, 3, 62, 0
5, 1806600, Note_on_c, 3, 64, 100
5, 1806720, Note_on_c, 3, 64, 0
5, 1806720, Note_on_c, 3, 65, 100
5, 1806960, Note_on_c, 3, 65, 0
5, 1806960, Note_on_c, 3, 64, 100
5, 1807200, Note_on_c, 3, 64, 0
5, 1807680, Note_on_c, 3, 64, 100
5, 1807920, Note_on_c, 3, 64, 0
5, 1807920, Note_on_c, 3, 65, 100
5, 1808160, Note_on_c, 3, 65, 0
5, 1808160, Note_on_c, 3, 64, 100
5, 1808400, Note_on_c, 3, 64, 0
5, 1808400, Note_on_c, 3, 65, 100
5, 1808640, Note_on_c, 3, 65, 0
5, 1808640, Note_on_c, 3, 66, 100
5, 1808880, Note_on_c, 3, 66, 0
5, 1808880, Note_on_c, 3, 67, 100
5, 1809120, Note_on_c, 3, 67, 0
5, 1809120, Note_on_c, 3, 69, 100
5, 1809360, Note_on_c, 3, 69, 0
5, 1809360, Note_on_c, 3, 70, 100
5, 1809600, Note_on_c, 3, 70, 0
5, 1809600, Note_on_c, 3, 69, 100
5, 1810080, Note_on_c, 3, 69, 0
5, 1810080, Note_on_c, 3, 67, 100
5, 1810200, Note_on_c, 3, 67, 0
5, 1810200, Note_on_c, 3, 65, 100
5, 1810320, Note_on_c, 3, 65, 0
5, 1810320, Note_on_c, 3, 64, 100
5, 1810440, Note_on_c, 3, 64, 0
5, 1810440, Note_on_c, 3, 62, 100
5, 1810560, Note_on_c, 3, 62, 0
5, 1810560, Note_on_c, 3, 64, 100
5, 1810800, Note_on_c, 3, 64, 0
5, 1810800, Note_on_c, 3, 62, 100
5, 1811280, Note_on_c, 3, 62, 0
5, 1811880, Note_on_c, 3, 70, 100
5, 1812000, Note_on_c, 3, 70, 0
5, 1812000, Note_on_c, 3, 69, 100
5, 1812120, Note_on_c, 3, 69, 0
5, 1812120, Note_on_c, 3, 67, 100
5, 1812240, Note_on_c, 3, 67, 0
5, 1812240, Note_on_c, 3, 66, 100
5, 1812360, Note_on_c, 3, 66, 0
5, 1812360, Note_on_c, 3, 67, 100
5, 1812480, Note_on_c, 3, 67, 0
5, 1812480, Note_on_c, 3, 69, 100
5, 1812600, Note_on_c, 3, 69, 0
5, 1812600, Note_on_c, 3, 66, 100
5, 1812720, Note_on_c, 3, 66, 0
5, 1812720, Note_on_c, 3, 62, 100
5, 1812960, Note_on_c, 3, 62, 0
5, 1812960, Note_on_c, 3, 64, 100
5, 1813080, Note_on_c, 3, 64, 0
5, 1813080, Note_on_c, 3, 65, 100
5, 1813200, Note_on_c, 3, 65, 0
5, 1813200, Note_on_c, 3, 67, 100
5, 1813440, Note_on_c, 3, 67, 0
5, 1813440, Note_on_c, 3, 60, 100
5, 1813680, Note_on_c, 3, 60, 0
5, 1813800, Note_on_c, 3, 67, 100
5, 1813920, Note_on_c, 3, 67, 0
5, 1813920, Note_on_c, 3, 65, 100
5, 1814040, Note_on_c, 3, 65, 0
5, 1814040, Note_on_c, 3, 63, 100
5, 1814160, Note_on_c, 3, 63, 0
5, 1814160, Note_on_c, 3, 62, 100
5, 1814280, Note_on_c, 3, 62, 0
5, 1814280, Note_on_c, 3, 65, 100
5, 1814400, Note_on_c, 3, 65, 0
5, 1814400, Note_on_c, 3, 63, 100
5, 1814520, Note_on_c, 3, 63, 0
5, 1814520, Note_on_c, 3, 67, 100
5, 1814640, Note_on_c, 3, 67, 0
5, 1814640, Note_on_c, 3, 65, 100
5, 1814880, Note_on_c, 3, 65, 0
5, 1814880, Note_on_c, 3, 67, 100
5, 1815120, Note_on_c, 3, 67, 0
5, 1815120, Note_on_c, 3, 68, 100
5, 1815720, Note_on_c, 3, 68, 0
5, 1815720, Note_on_c, 3, 67, 100
5, 1815840, Note_on_c, 3, 67, 0
5, 1815840, Note_on_c, 3, 68, 100
5, 1815960, Note_on_c, 3, 68, 0
5, 1815960, Note_on_c, 3, 70, 100
5, 1816080, Note_on_c, 3, 70, 0
5, 1816080, Note_on_c, 3, 63, 100
5, 1816200, Note_on_c, 3, 63, 0
5, 1816200, Note_on_c, 3, 62, 100
5, 1816320, Note_on_c, 3, 62, 0
5, 1816320, Note_on_c, 3, 63, 100
5, 1816440, Note_on_c, 3, 63, 0
5, 1816440, Note_on_c, 3, 67, 100
5, 1816560, Note_on_c, 3, 67, 0
5, 1816560, Note_on_c, 3, 60, 100
5, 1816680, Note_on_c, 3, 60, 0
5, 1816680, Note_on_c, 3, 62, 100
5, 1816800, Note_on_c, 3, 62, 0
5, 1816800, Note_on_c, 3, 63, 100
5, 1816920, Note_on_c, 3, 63, 0
5, 1816920, Note_on_c, 3, 60, 100
5, 1817040, Note_on_c, 3, 60, 0
5, 1817040, Note_on_c, 3, 65, 100
5, 1817280, Note_on_c, 3, 65, 0
5, 1817280, Note_on_c, 3, 58, 100
5, 1817760, Note_on_c, 3, 58, 0
5, 1817760, Note_on_c, 3, 56, 100
5, 1817880, Note_on_c, 3, 56, 0
5, 1817880, Note_on_c, 3, 55, 100
5, 1818000, Note_on_c, 3, 55, 0
5, 1818000, Note_on_c, 3, 56, 100
5, 1818240, Note_on_c, 3, 56, 0
5, 1818240, Note_on_c, 3, 65, 100
5, 1818720, Note_on_c, 3, 65, 0
5, 1818720, Note_on_c, 3, 63, 100
5, 1818840, Note_on_c, 3, 63, 0
5, 1818840, Note_on_c, 3, 62, 100
5, 1818960, Note_on_c, 3, 62, 0
5, 1818960, Note_on_c, 3, 63, 100
5, 1819200, Note_on_c, 3, 63, 0
5, 1819560, Note_on_c, 3, 54, 100
5, 1819680, Note_on_c, 3, 54, 0
5, 1819680, Note_on_c, 3, 55, 100
5, 1819800, Note_on_c, 3, 55, 0
5, 1819800, Note_on_c, 3, 57, 100
5, 1819920, Note_on_c, 3, 57, 0
5, 1819920, Note_on_c, 3, 55, 100
5, 1820040, Note_on_c, 3, 55, 0
5, 1820040, Note_on_c, 3, 54, 100
5, 1820160, Note_on_c, 3, 54, 0
5, 1820160, Note_on_c, 3, 52, 100
5, 1820280, Note_on_c, 3, 52, 0
5, 1820280, Note_on_c, 3, 50, 100
5, 1820400, Note_on_c, 3, 50, 0
5, 1820400, Note_on_c, 3, 62, 100
5, 1820520, Note_on_c, 3, 62, 0
5, 1820520, Note_on_c, 3, 60, 100
5, 1820640, Note_on_c, 3, 60, 0
5, 1820640, Note_on_c, 3, 62, 100
5, 1820880, Note_on_c, 3, 62, 0
5, 1820880, Note_on_c, 3, 55, 100
5, 1821120, Note_on_c, 3, 55, 0
5, 1821600, Note_on_c, 3, 63, 100
5, 1821720, Note_on_c, 3, 63, 0
5, 1821720, Note_on_c, 3, 62, 100
5, 1821840, Note_on_c, 3, 62, 0
5, 1821840, Note_on_c, 3, 60, 100
5, 1821960, Note_on_c, 3, 60, 0
5, 1821960, Note_on_c, 3, 58, 100
5, 1822080, Note_on_c, 3, 58, 0
5, 1822080, Note_on_c, 3, 57, 100
5, 1822200, Note_on_c, 3, 57, 0
5, 1822200, Note_on_c, 3, 55, 100
5, 1822320, Note_on_c, 3, 55, 0
5, 1822320, Note_on_c, 3, 54, 100
5, 1822560, Note_on_c, 3, 54, 0
5, 1823040, Note_on_c, 3, 62, 100
5, 1823520, Note_on_c, 3, 62, 0
5, 1823520, Note_on_c, 3, 60, 100
5, 1823760, Note_on_c, 3, 60, 0
5, 1823760, Note_on_c, 3, 59, 100
5, 1824000, Note_on_c, 3, 59, 0
5, 1824000, Note_on_c, 3, 60, 100
5, 1824120, Note_on_c, 3, 60, 0
5, 1824120, Note_on_c, 3, 62, 100
5, 1824240, Note_on_c, 3, 62, 0
5, 1824240, Note_on_c, 3, 63, 100
5, 1824480, Note_on_c, 3, 63, 0
5, 1824480, Note_on_c, 3, 55, 100
5, 1824720, Note_on_c, 3, 55, 0
5, 1824720, Note_on_c, 3, 54, 100
5, 1824960, Note_on_c, 3, 54, 0
5, 1824960, Note_on_c, 3, 62, 100
5, 1825320, Note_on_c, 3, 62, 0
5, 1825320, Note_on_c, 3, 60, 100
5, 1825380, Note_on_c, 3, 60, 0
5, 1825380, Note_on_c, 3, 58, 100
5, 1825440, Note_on_c, 3, 58, 0
5, 1825440, Note_on_c, 3, 57, 100
5, 1825500, Note_on_c, 3, 57, 0
5, 1825500, Note_on_c, 3, 58, 100
5, 1825560, Note_on_c, 3, 58, 0
5, 1825560, Note_on_c, 3, 55, 100
5, 1825680, Note_on_c, 3, 55, 0
5, 1825680, Note_on_c, 3, 56, 100
5, 1825800, Note_on_c, 3, 56, 0
5, 1825800, Note_on_c, 3, 55, 100
5, 1826040, Note_on_c, 3, 55, 0
5, 1826040, Note_on_c, 3, 54, 100
5, 1826160, Note_on_c, 3, 54, 0
5, 1826160, Note_on_c, 3, 55, 100
5, 1826640, Note_on_c, 3, 55, 0
5, 1827240, Note_on_c, 3, 70, 100
5, 1827360, Note_on_c, 3, 70, 0
5, 1827360, Note_on_c, 3, 69, 100
5, 1827480, Note_on_c, 3, 69, 0
5, 1827480, Note_on_c, 3, 67, 100
5, 1827600, Note_on_c, 3, 67, 0
5, 1827600, Note_on_c, 3, 66, 100
5, 1827720, Note_on_c, 3, 66, 0
5, 1827720, Note_on_c, 3, 67, 100
5, 1827840, Note_on_c, 3, 67, 0
5, 1827840, Note_on_c, 3, 69, 100
5, 1827960, Note_on_c, 3, 69, 0
5, 1827960, Note_on_c, 3, 66, 100
5, 1828080, Note_on_c, 3, 66, 0
5, 1828080, Note_on_c, 3, 62, 100
5, 1828320, Note_on_c, 3, 62, 0
5, 1828320, Note_on_c, 3, 64, 100
5, 1828440, Note_on_c, 3, 64, 0
5, 1828440, Note_on_c, 3, 65, 100
5, 1828560, Note_on_c, 3, 65, 0
5, 1828560, Note_on_c, 3, 67, 100
5, 1828800, Note_on_c, 3, 67, 0
5, 1828800, Note_on_c, 3, 60, 100
5, 1829040, Note_on_c, 3, 60, 0
5, 1829160, Note_on_c, 3, 67, 100
5, 1829280, Note_on_c, 3, 67, 0
5, 1829280, Note_on_c, 3, 65, 100
5, 1829400, Note_on_c, 3, 65, 0
5, 1829400, Note_on_c, 3, 63, 100
5, 1829520, Note_on_c, 3, 63, 0
5, 1829520, Note_on_c, 3, 62, 100
5, 1829640, Note_on_c, 3, 62, 0
5, 1829640, Note_on_c, 3, 65, 100
5, 1829760, Note_on_c, 3, 65, 0
5, 1829760, Note_on_c, 3, 63, 100
5, 1829880, Note_on_c, 3, 63, 0
5, 1829880, Note_on_c, 3, 67, 100
5, 1830000, Note_on_c, 3, 67, 0
5, 1830000, Note_on_c, 3, 65, 100
5, 1830240, Note_on_c, 3, 65, 0
5, 1830240, Note_on_c, 3, 67, 100
5, 1830480, Note_on_c, 3, 67, 0
5, 1830480, Note_on_c, 3, 68, 100
5, 1831080, Note_on_c, 3, 68, 0
5, 1831080, Note_on_c, 3, 67, 100
5, 1831200, Note_on_c, 3, 67, 0
5, 1831200, Note_on_c, 3, 68, 100
5, 1831320, Note_on_c, 3, 68, 0
5, 1831320, Note_on_c, 3, 70, 100
5, 1831440, Note_on_c, 3, 70, 0
5, 1831440, Note_on_c, 3, 63, 100
5, 1831560, Note_on_c, 3, 63, 0
5, 1831560, Note_on_c, 3, 62, 100
5, 1831680, Note_on_c, 3, 62, 0
5, 1831680, Note_on_c, 3, 63, 100
5, 1831800, Note_on_c, 3, 63, 0
5, 1831800, Note_on_c, 3, 67, 100
5, 1831920, Note_on_c, 3, 67, 0
5, 1831920, Note_on_c, 3, 60, 100
5, 1832040, Note_on_c, 3, 60, 0
5, 1832040, Note_on_c, 3, 62, 100
5, 1832160, Note_on_c, 3, 62, 0
5, 1832160, Note_on_c, 3, 63, 100
5, 1832280, Note_on_c, 3, 63, 0
5, 1832280, Note_on_c, 3, 60, 100
5, 1832400, Note_on_c, 3, 60, 0
5, 1832400, Note_on_c, 3, 65, 100
5, 1832640, Note_on_c, 3, 65, 0
5, 1832640, Note_on_c, 3, 58, 100
5, 1833120, Note_on_c, 3, 58, 0
5, 1833120, Note_on_c, 3, 56, 100
5, 1833240, Note_on_c, 3, 56, 0
5, 1833240, Note_on_c, 3, 55, 100
5, 1833360, Note_on_c, 3, 55, 0
5, 1833360, Note_on_c, 3, 56, 100
5, 1833600, Note_on_c, 3, 56, 0
5, 1833600, Note_on_c, 3, 65, 100
5, 1834080, Note_on_c, 3, 65, 0
5, 1834080, Note_on_c, 3, 63, 100
5, 1834200, Note_on_c, 3, 63, 0
5, 1834200, Note_on_c, 3, 62, 100
5, 1834320, Note_on_c, 3, 62, 0
5, 1834320, Note_on_c, 3, 63, 100
5, 1834560, Note_on_c, 3, 63, 0
5, 1834920, Note_on_c, 3, 54, 100
5, 1835040, Note_on_c, 3, 54, 0
5, 1835040, Note_on_c, 3, 55, 100
5, 1835160, Note_on_c, 3, 55, 0
5, 1835160, Note_on_c, 3, 57, 100
5, 1835280, Note_on_c, 3, 57, 0
5, 1835280, Note_on_c, 3, 55, 100
5, 1835400, Note_on_c, 3, 55, 0
5, 1835400, Note_on_c, 3, 54, 100
5, 1835520, Note_on_c, 3, 54, 0
5, 1835520, Note_on_c, 3, 52, 100
5, 1835640, Note_on_c, 3, 52, 0
5, 1835640, Note_on_c, 3, 50, 100
5, 1835760, Note_on_c, 3, 50, 0
5, 1835760, Note_on_c, 3, 62, 100
5, 1835880, Note_on_c, 3, 62, 0
5, 1835880, Note_on_c, 3, 60, 100
5, 1836000, Note_on_c, 3, 60, 0
5, 1836000, Note_on_c, 3, 62, 100
5, 1836240, Note_on_c, 3, 62, 0
5, 1836240, Note_on_c, 3, 55, 100
5, 1836480, Note_on_c, 3, 55, 0
5, 1836960, Note_on_c, 3, 63, 100
5, 1837080, Note_on_c, 3, 63, 0
5, 1837080, Note_on_c, 3, 62, 100
5, 1837200, Note_on_c, 3, 62, 0
5, 1837200, Note_on_c, 3, 60, 100
5, 1837320, Note_on_c, 3, 60, 0
5, 1837320, Note_on_c, 3, 58, 100
5, 1837440, Note_on_c, 3, 58, 0
5, 1837440, Note_on_c, 3, 57, 100
5, 1837560, Note_on_c, 3, 57, 0
5, 1837560, Note_on_c, 3, 55, 100
5, 1837680, Note_on_c, 3, 55, 0
5, 1837680, Note_on_c, 3, 54, 100
5, 1837920, Note_on_c, 3, 54, 0
5, 1838400, Note_on_c, 3, 62, 100
5, 1838880, Note_on_c, 3, 62, 0
5, 1838880, Note_on_c, 3, 60, 100
5, 1839120, Note_on_c, 3, 60, 0
5, 1839120, Note_on_c, 3, 59, 100
5, 1839360, Note_on_c, 3, 59, 0
5, 1839360, Note_on_c, 3, 60, 100
5, 1839480, Note_on_c, 3, 60, 0
5, 1839480, Note_on_c, 3, 62, 100
5, 1839600, Note_on_c, 3, 62, 0
5, 1839600, Note_on_c, 3, 63, 100
5, 1839840, Note_on_c, 3, 63, 0
5, 1839840, Note_on_c, 3, 55, 100
5, 1840080, Note_on_c, 3, 55, 0
5, 1840080, Note_on_c, 3, 54, 100
5, 1840320, Note_on_c, 3, 54, 0
5, 1840320, Note_on_c, 3, 62, 100
5, 1840680, Note_on_c, 3, 62, 0
5, 1840680, Note_on_c, 3, 60, 100
5, 1840740, Note_on_c, 3, 60, 0
5, 1840740, Note_on_c, 3, 58, 100
5, 1840800, Note_on_c, 3, 58, 0
5, 1840800, Note_on_c, 3, 57, 100
5, 1840860, Note_on_c, 3, 57, 0
5, 1840860, Note_on_c, 3, 58, 100
5, 1840920, Note_on_c, 3, 58, 0
5, 1840920, Note_on_c, 3, 55, 100
5, 1841040, Note_on_c, 3, 55, 0
5, 1841040, Note_on_c, 3, 56, 100
5, 1841160, Note_on_c, 3, 56, 0
5, 1841160, Note_on_c, 3, 55, 100
5, 1841400, Note_on_c, 3, 55, 0
5, 1841400, Note_on_c, 3, 54, 100
5, 1841520, Note_on_c, 3, 54, 0
5, 1841520, Note_on_c, 3, 55, 100
5, 1842000, Note_on_c, 3, 55, 0
5, 2061840, Note_on_c, 3, 55, 100
5, 2062320, Note_on_c, 3, 55, 0
5, 2062320, Note_on_c, 3, 54, 100
5, 2062560, Note_on_c, 3, 54, 0
5, 2062560, Note_on_c, 3, 55, 100
5, 2063040, Note_on_c, 3, 55, 0
5, 2063040, Note_on_c, 3, 57, 100
5, 2063280, Note_on_c, 3, 57, 0
5, 2063280, Note_on_c, 3, 59, 100
5, 2063520, Note_on_c, 3, 59, 0
5, 2063520, Note_on_c, 3, 62, 100
5, 2063760, Note_on_c, 3, 62, 0
5, 2063760, Note_on_c, 3, 61, 100
5, 2064000, Note_on_c, 3, 61, 0
5, 2064000, Note_on_c, 3, 62, 100
5, 2064480, Note_on_c, 3, 62, 0
5, 2064480, Note_on_c, 3, 57, 100
5, 2064720, Note_on_c, 3, 57, 0
5, 2064720, Note_on_c, 3, 62, 100
5, 2065200, Note_on_c, 3, 62, 0
5, 2065200, Note_on_c, 3, 64, 100
5, 2065440, Note_on_c, 3, 64, 0
5, 2065440, Note_on_c, 3, 64, 100
5, 2065470, Note_on_c, 3, 64, 0
5, 2065470, Note_on_c, 3, 66, 100
5, 2065560, Note_on_c, 3, 66, 0
5, 2065560, Note_on_c, 3, 67, 100
5, 2065680, Note_on_c, 3, 67, 0
5, 2065680, Note_on_c, 3, 66, 100
5, 2065800, Note_on_c, 3, 66, 0
5, 2065800, Note_on_c, 3, 64, 100
5, 2065920, Note_on_c, 3, 64, 0
5, 2065920, Note_on_c, 3, 62, 100
5, 2066160, Note_on_c, 3, 62, 0
5, 2066160, Note_on_c, 3, 67, 100
5, 2066400, Note_on_c, 3, 67, 0
5, 2066400, Note_on_c, 3, 71, 100
5, 2066640, Note_on_c, 3, 71, 0
5, 2066640, Note_on_c, 3, 69, 100
5, 2066880, Note_on_c, 3, 69, 0
5, 2066880, Note_on_c, 3, 71, 100
5, 2067120, Note_on_c, 3, 71, 0
5, 2067120, Note_on_c, 3, 67, 100
5, 2067360, Note_on_c, 3, 67, 0
5, 2067360, Note_on_c, 3, 66, 100
5, 2067600, Note_on_c, 3, 66, 0
5, 2067600, Note_on_c, 3, 67, 100
5, 2068560, Note_on_c, 3, 67, 0
5, 2068560, Note_on_c, 3, 66, 100
5, 2068800, Note_on_c, 3, 66, 0
5, 2068800, Note_on_c, 3, 64, 100
5, 2069040, Note_on_c, 3, 64, 0
5, 2069040, Note_on_c, 3, 66, 100
5, 2069280, Note_on_c, 3, 66, 0
5, 2069280, Note_on_c, 3, 67, 100
5, 2069520, Note_on_c, 3, 67, 0
5, 2069520, Note_on_c, 3, 69, 100
5, 2069760, Note_on_c, 3, 69, 0
5, 2069760, Note_on_c, 3, 62, 100
5, 2070720, Note_on_c, 3, 62, 0
5, 2070720, Note_on_c, 3, 67, 100
5, 2070960, Note_on_c, 3, 67, 0
5, 2070960, Note_on_c, 3, 66, 100
5, 2071200, Note_on_c, 3, 66, 0
5, 2071200, Note_on_c, 3, 67, 100
5, 2071440, Note_on_c, 3, 67, 0
5, 2071440, Note_on_c, 3, 71, 100
5, 2071680, Note_on_c, 3, 71, 0
5, 2071680, Note_on_c, 3, 69, 100
5, 2071920, Note_on_c, 3, 69, 0
5, 2071920, Note_on_c, 3, 71, 100
5, 2072160, Note_on_c, 3, 71, 0
5, 2072160, Note_on_c, 3, 74, 100
5, 2072280, Note_on_c, 3, 74, 0
5, 2072280, Note_on_c, 3, 72, 100
5, 2072400, Note_on_c, 3, 72, 0
5, 2072400, Note_on_c, 3, 71, 100
5, 2072520, Note_on_c, 3, 71, 0
5, 2072520, Note_on_c, 3, 69, 100
5, 2072640, Note_on_c, 3, 69, 0
5, 2072640, Note_on_c, 3, 71, 100
5, 2072880, Note_on_c, 3, 71, 0
5, 2072880, Note_on_c, 3, 72, 100
5, 2073000, Note_on_c, 3, 72, 0
5, 2073000, Note_on_c, 3, 71, 100
5, 2073120, Note_on_c, 3, 71, 0
5, 2073120, Note_on_c, 3, 69, 100
5, 2073240, Note_on_c, 3, 69, 0
5, 2073240, Note_on_c, 3, 67, 100
5, 2073360, Note_on_c, 3, 67, 0
5, 2073360, Note_on_c, 3, 69, 100
5, 2073600, Note_on_c, 3, 69, 0
5, 2073600, Note_on_c, 3, 71, 100
5, 2073720, Note_on_c, 3, 71, 0
5, 2073720, Note_on_c, 3, 69, 100
5, 2073840, Note_on_c, 3, 69, 0
5, 2073840, Note_on_c, 3, 67, 100
5, 2073960, Note_on_c, 3, 67, 0
5, 2073960, Note_on_c, 3, 66, 100
5, 2074080, Note_on_c, 3, 66, 0
5, 2074080, Note_on_c, 3, 67, 100
5, 2074320, Note_on_c, 3, 67, 0
5, 2074320, Note_on_c, 3, 69, 100
5, 2074440, Note_on_c, 3, 69, 0
5, 2074440, Note_on_c, 3, 67, 100
5, 2074560, Note_on_c, 3, 67, 0
5, 2074560, Note_on_c, 3, 66, 100
5, 2074680, Note_on_c, 3, 66, 0
5, 2074680, Note_on_c, 3, 64, 100
5, 2074800, Note_on_c, 3, 64, 0
5, 2074800, Note_on_c, 3, 62, 100
5, 2075040, Note_on_c, 3, 62, 0
5, 2075040, Note_on_c, 3, 71, 100
5, 2075280, Note_on_c, 3, 71, 0
5, 2075280, Note_on_c, 3, 69, 100
5, 2075520, Note_on_c, 3, 69, 0
5, 2075520, Note_on_c, 3, 67, 100
5, 2075760, Note_on_c, 3, 67, 0
5, 2075760, Note_on_c, 3, 69, 100
5, 2076000, Note_on_c, 3, 69, 0
5, 2076000, Note_on_c, 3, 66, 100
5, 2076240, Note_on_c, 3, 66, 0
5, 2076240, Note_on_c, 3, 64, 100
5, 2076360, Note_on_c, 3, 64, 0
5, 2076360, Note_on_c, 3, 62, 100
5, 2076480, Note_on_c, 3, 62, 0
5, 2076480, Note_on_c, 3, 61, 100
5, 2076720, Note_on_c, 3, 61, 0
5, 2076720, Note_on_c, 3, 62, 100
5, 2076960, Note_on_c, 3, 62, 0
5, 2076960, Note_on_c, 3, 62, 100
5, 2077080, Note_on_c, 3, 62, 0
5, 2077080, Note_on_c, 3, 61, 100
5, 2077920, Note_on_c, 3, 61, 0
5, 2077920, Note_on_c, 3, 62, 100
5, 2078160, Note_on_c, 3, 62, 0
5, 2078160, Note_on_c, 3, 64, 100
5, 2078400, Note_on_c, 3, 64, 0
5, 2078400, Note_on_c, 3, 57, 100
5, 2078640, Note_on_c, 3, 57, 0
5, 2078640, Note_on_c, 3, 59, 100
5, 2078880, Note_on_c, 3, 59, 0
5, 2078880, Note_on_c, 3, 61, 100
5, 2079120, Note_on_c, 3, 61, 0
5, 2079120, Note_on_c, 3, 62, 100
5, 2079600, Note_on_c, 3, 62, 0
5, 2079600, Note_on_c, 3, 66, 100
5, 2079840, Note_on_c, 3, 66, 0
5, 2079840, Note_on_c, 3, 67, 100
5, 2080320, Note_on_c, 3, 67, 0
5, 2080320, Note_on_c, 3, 69, 100
5, 2080560, Note_on_c, 3, 69, 0
5, 2080560, Note_on_c, 3, 59, 100
5, 2081520, Note_on_c, 3, 59, 0
5, 2081520, Note_on_c, 3, 57, 100
5, 2081760, Note_on_c, 3, 57, 0
5, 2081760, Note_on_c, 3, 56, 100
5, 2082000, Note_on_c, 3, 56, 0
5, 2082000, Note_on_c, 3, 57, 100
5, 2083680, Note_on_c, 3, 57, 0
5, 2083680, Note_on_c, 3, 62, 100
5, 2083920, Note_on_c, 3, 62, 0
5, 2083920, Note_on_c, 3, 61, 100
5, 2084160, Note_on_c, 3, 61, 0
5, 2084160, Note_on_c, 3, 62, 100
5, 2084280, Note_on_c, 3, 62, 0
5, 2084280, Note_on_c, 3, 64, 100
5, 2084400, Note_on_c, 3, 64, 0
5, 2084400, Note_on_c, 3, 66, 100
5, 2084640, Note_on_c, 3, 66, 0
5, 2084640, Note_on_c, 3, 64, 100
5, 2084880, Note_on_c, 3, 64, 0
5, 2084880, Note_on_c, 3, 66, 100
5, 2085120, Note_on_c, 3, 66, 0
5, 2085120, Note_on_c, 3, 69, 100
5, 2085240, Note_on_c, 3, 69, 0
5, 2085240, Note_on_c, 3, 67, 100
5, 2085360, Note_on_c, 3, 67, 0
5, 2085360, Note_on_c, 3, 66, 100
5, 2085480, Note_on_c, 3, 66, 0
5, 2085480, Note_on_c, 3, 64, 100
5, 2085600, Note_on_c, 3, 64, 0
5, 2085600, Note_on_c, 3, 66, 100
5, 2085840, Note_on_c, 3, 66, 0
5, 2085840, Note_on_c, 3, 67, 100
5, 2085960, Note_on_c, 3, 67, 0
5, 2085960, Note_on_c, 3, 66, 100
5, 2086080, Note_on_c, 3, 66, 0
5, 2086080, Note_on_c, 3, 64, 100
5, 2086200, Note_on_c, 3, 64, 0
5, 2086200, Note_on_c, 3, 62, 100
5, 2086320, Note_on_c, 3, 62, 0
5, 2086320, Note_on_c, 3, 64, 100
5, 2086560, Note_on_c, 3, 64, 0
5, 2086560, Note_on_c, 3, 66, 100
5, 2086680, Note_on_c, 3, 66, 0
5, 2086680, Note_on_c, 3, 64, 100
5, 2086800, Note_on_c, 3, 64, 0
5, 2086800, Note_on_c, 3, 62, 100
5, 2086920, Note_on_c, 3, 62, 0
5, 2086920, Note_on_c, 3, 61, 100
5, 2087040, Note_on_c, 3, 61, 0
5, 2087040, Note_on_c, 3, 62, 100
5, 2087280, Note_on_c, 3, 62, 0
5, 2087280, Note_on_c, 3, 64, 100
5, 2087400, Note_on_c, 3, 64, 0
5, 2087400, Note_on_c, 3, 62, 100
5, 2087520, Note_on_c, 3, 62, 0
5, 2087520, Note_on_c, 3, 61, 100
5, 2087640, Note_on_c, 3, 61, 0
5, 2087640, Note_on_c, 3, 59, 100
5, 2087760, Note_on_c, 3, 59, 0
5, 2087760, Note_on_c, 3, 57, 100
5, 2088000, Note_on_c, 3, 57, 0
5, 2088480, Note_on_c, 3, 62, 100
5, 2088720, Note_on_c, 3, 62, 0
5, 2089200, Note_on_c, 3, 61, 100
5, 2089440, Note_on_c, 3, 61, 0
5, 2089920, Note_on_c, 3, 62, 100
5, 2090160, Note_on_c, 3, 62, 0
5, 2090640, Note_on_c, 3, 67, 100
5, 2090880, Note_on_c, 3, 67, 0
5, 2091360, Note_on_c, 3, 66, 100
5, 2092080, Note_on_c, 3, 66, 0
5, 2096400, Note_on_c, 3, 55, 100
5, 2096880, Note_on_c, 3, 55, 0
5, 2096880, Note_on_c, 3, 54, 100
5, 2097120, Note_on_c, 3, 54, 0
5, 2097120, Note_on_c, 3, 55, 100
5, 2097600, Note_on_c, 3, 55, 0
5, 2097600, Note_on_c, 3, 57, 100
5, 2097840, Note_on_c, 3, 57, 0
5, 2097840, Note_on_c, 3, 59, 100
5, 2098080, Note_on_c, 3, 59, 0
5, 2098080, Note_on_c, 3, 62, 100
5, 2098320, Note_on_c, 3, 62, 0
5, 2098320, Note_on_c, 3, 61, 100
5, 2098560, Note_on_c, 3, 61, 0
5, 2098560, Note_on_c, 3, 62, 100
5, 2099040, Note_on_c, 3, 62, 0
5, 2099040, Note_on_c, 3, 57, 100
5, 2099280, Note_on_c, 3, 57, 0
5, 2099280, Note_on_c, 3, 62, 100
5, 2099760, Note_on_c, 3, 62, 0
5, 2099760, Note_on_c, 3, 64, 100
5, 2100000, Note_on_c, 3, 64, 0
5, 2100000, Note_on_c, 3, 64, 100
5, 2100030, Note_on_c, 3, 64, 0
5, 2100030, Note_on_c, 3, 66, 100
5, 2100120, Note_on_c, 3, 66, 0
5, 2100120, Note_on_c, 3, 67, 100
5, 2100240, Note_on_c, 3, 67, 0
5, 2100240, Note_on_c, 3, 66, 100
5, 2100360, Note_on_c, 3, 66, 0
5, 2100360, Note_on_c, 3, 64, 100
5, 2100480, Note_on_c, 3, 64, 0
5, 2100480, Note_on_c, 3, 62, 100
5, 2100720, Note_on_c, 3, 62, 0
5, 2100720, Note_on_c, 3, 67, 100
5, 2100960, Note_on_c, 3, 67, 0
5, 2100960, Note_on_c, 3, 71, 100
5, 2101200, Note_on_c, 3, 71, 0
5, 2101200, Note_on_c, 3, 69, 100
5, 2101440, Note_on_c, 3, 69, 0
5, 2101440, Note_on_c, 3, 71, 100
5, 2101680, Note_on_c, 3, 71, 0
5, 2101680, Note_on_c, 3, 67, 100
5, 2101920, Note_on_c, 3, 67, 0
5, 2101920, Note_on_c, 3, 66, 100
5, 2102160, Note_on_c, 3, 66, 0
5, 2102160, Note_on_c, 3, 67, 100
5, 2103120, Note_on_c, 3, 67, 0
5, 2103120, Note_on_c, 3, 66, 100
5, 2103360, Note_on_c, 3, 66, 0
5, 2103360, Note_on_c, 3, 64, 100
5, 2103600, Note_on_c, 3, 64, 0
5, 2103600, Note_on_c, 3, 66, 100
5, 2103840, Note_on_c, 3, 66, 0
5, 2103840, Note_on_c, 3, 67, 100
5, 2104080, Note_on_c, 3, 67, 0
5, 2104080, Note_on_c, 3, 69, 100
5, 2104320, Note_on_c, 3, 69, 0
5, 2104320, Note_on_c, 3, 62, 100
5, 2105280, Note_on_c, 3, 62, 0
5, 2105280, Note_on_c, 3, 67, 100
5, 2105520, Note_on_c, 3, 67, 0
5, 2105520, Note_on_c, 3, 66, 100
5, 2105760, Note_on_c, 3, 66, 0
5, 2105760, Note_on_c, 3, 67, 100
5, 2106000, Note_on_c, 3, 67, 0
5, 2106000, Note_on_c, 3, 71, 100
5, 2106240, Note_on_c, 3, 71, 0
5, 2106240, Note_on_c, 3, 69, 100
5, 2106480, Note_on_c, 3, 69, 0
5, 2106480, Note_on_c, 3, 71, 100
5, 2106720, Note_on_c, 3, 71, 0
5, 2106720, Note_on_c, 3, 74, 100
5, 2106840, Note_on_c, 3, 74, 0
5, 2106840, Note_on_c, 3, 72, 100
5, 2106960, Note_on_c, 3, 72, 0
5, 2106960, Note_on_c, 3, 71, 100
5, 2107080, Note_on_c, 3, 71, 0
5, 2107080, Note_on_c, 3, 69, 100
5, 2107200, Note_on_c, 3, 69, 0
5, 2107200, Note_on_c, 3, 71, 100
5, 2107440, Note_on_c, 3, 71, 0
5, 2107440, Note_on_c, 3, 72, 100
5, 2107560, Note_on_c, 3, 72, 0
5, 2107560, Note_on_c, 3, 71, 100
5, 2107680, Note_on_c, 3, 71, 0
5, 2107680, Note_on_c, 3, 69, 100
5, 2107800, Note_on_c, 3, 69, 0
5, 2107800, Note_on_c, 3, 67, 100
5, 2107920, Note_on_c, 3, 67, 0
5, 2107920, Note_on_c, 3, 69, 100
5, 2108160, Note_on_c, 3, 69, 0
5, 2108160, Note_on_c, 3, 71, 100
5, 2108280, Note_on_c, 3, 71, 0
5, 2108280, Note_on_c, 3, 69, 100
5, 2108400, Note_on_c, 3, 69, 0
5, 2108400, Note_on_c, 3, 67, 100
5, 2108520, Note_on_c, 3, 67, 0
5, 2108520, Note_on_c, 3, 66, 100
5, 2108640, Note_on_c, 3, 66, 0
5, 2108640, Note_on_c, 3, 67, 100
5, 2108880, Note_on_c, 3, 67, 0
5, 2108880, Note_on_c, 3, 69, 100
5, 2109000, Note_on_c, 3, 69, 0
5, 2109000, Note_on_c, 3, 67, 100
5, 2109120, Note_on_c, 3, 67, 0
5, 2109120, Note_on_c, 3, 66, 100
5, 2109240, Note_on_c, 3, 66, 0
5, 2109240, Note_on_c, 3, 64, 100
5, 2109360, Note_on_c, 3, 64, 0
5, 2109360, Note_on_c, 3, 62, 100
5, 2109600, Note_on_c, 3, 62, 0
5, 2109600, Note_on_c, 3, 71, 100
5, 2109840, Note_on_c, 3, 71, 0
5, 2109840, Note_on_c, 3, 69, 100
5, 2110080, Note_on_c, 3, 69, 0
5, 2110080, Note_on_c, 3, 67, 100
5, 2110320, Note_on_c, 3, 67, 0
5, 2110320, Note_on_c, 3, 69, 100
5, 2110560, Note_on_c, 3, 69, 0
5, 2110560, Note_on_c, 3, 66, 100
5, 2110800, Note_on_c, 3, 66, 0
5, 2110800, Note_on_c, 3, 64, 100
5, 2110920, Note_on_c, 3, 64, 0
5, 2110920, Note_on_c, 3, 62, 100
5, 2111040, Note_on_c, 3, 62, 0
5, 2111040, Note_on_c, 3, 61, 100
5, 2111280, Note_on_c, 3, 61, 0
5, 2111280, Note_on_c, 3, 62, 100
5, 2111520, Note_on_c, 3, 62, 0
5, 2111520, Note_on_c, 3, 62, 100
5, 2111640, Note_on_c, 3, 62, 0
5, 2111640, Note_on_c, 3, 61, 100
5, 2112480, Note_on_c, 3, 61, 0
5, 2112480, Note_on_c, 3, 62, 100
5, 2112720, Note_on_c, 3, 62, 0
5, 2112720, Note_on_c, 3, 64, 100
5, 2112960, Note_on_c, 3, 64, 0
5, 2112960, Note_on_c, 3, 57, 100
5, 2113200, Note_on_c, 3, 57, 0
5, 2113200, Note_on_c, 3, 59, 100
5, 2113440, Note_on_c, 3, 59, 0
5, 2113440, Note_on_c, 3, 61, 100
5, 2113680, Note_on_c, 3, 61, 0
5, 2113680, Note_on_c, 3, 62, 100
5, 2114160, Note_on_c, 3, 62, 0
5, 2114160, Note_on_c, 3, 66, 100
5, 2114400, Note_on_c, 3, 66, 0
5, 2114400, Note_on_c, 3, 67, 100
5, 2114880, Note_on_c, 3, 67, 0
5, 2114880, Note_on_c, 3, 69, 100
5, 2115120, Note_on_c, 3, 69, 0
5, 2115120, Note_on_c, 3, 59, 100
5, 2116080, Note_on_c, 3, 59, 0
5, 2116080, Note_on_c, 3, 57, 100
5, 2116320, Note_on_c, 3, 57, 0
5, 2116320, Note_on_c, 3, 56, 100
5, 2116560, Note_on_c, 3, 56, 0
5, 2116560, Note_on_c, 3, 57, 100
5, 2118240, Note_on_c, 3, 57, 0
5, 2118240, Note_on_c, 3, 62, 100
5, 2118480, Note_on_c, 3, 62, 0
5, 2118480, Note_on_c, 3, 61, 100
5, 2118720, Note_on_c, 3, 61, 0
5, 2118720, Note_on_c, 3, 62, 100
5, 2118840, Note_on_c, 3, 62, 0
5, 2118840, Note_on_c, 3, 64, 100
5, 2118960, Note_on_c, 3, 64, 0
5, 2118960, Note_on_c, 3, 66, 100
5, 2119200, Note_on_c, 3, 66, 0
5, 2119200, Note_on_c, 3, 64, 100
5, 2119440, Note_on_c, 3, 64, 0
5, 2119440, Note_on_c, 3, 66, 100
5, 2119680, Note_on_c, 3, 66, 0
5, 2119680, Note_on_c, 3, 69, 100
5, 2119800, Note_on_c, 3, 69, 0
5, 2119800, Note_on_c, 3, 67, 100
5, 2119920, Note_on_c, 3, 67, 0
5, 2119920, Note_on_c, 3, 66, 100
5, 2120040, Note_on_c, 3, 66, 0
5, 2120040, Note_on_c, 3, 64, 100
5, 2120160, Note_on_c, 3, 64, 0
5, 2120160, Note_on_c, 3, 66, 100
5, 2120400, Note_on_c, 3, 66, 0
5, 2120400, Note_on_c, 3, 67, 100
5, 2120520, Note_on_c, 3, 67, 0
5, 2120520, Note_on_c, 3, 66, 100
5, 2120640, Note_on_c, 3, 66, 0
5, 2120640, Note_on_c, 3, 64, 100
5, 2120760, Note_on_c, 3, 64, 0
5, 2120760, Note_on_c, 3, 62, 100
5, 2120880, Note_on_c, 3, 62, 0
5, 2120880, Note_on_c, 3, 64, 100
5, 2121120, Note_on_c, 3, 64, 0
5, 2121120, Note_on_c, 3, 66, 100
5, 2121240, Note_on_c, 3, 66, 0
5, 2121240, Note_on_c, 3, 64, 100
5, 2121360, Note_on_c, 3, 64, 0
5, 2121360, Note_on_c, 3, 62, 100
5, 2121480, Note_on_c, 3, 62, 0
5, 2121480, Note_on_c, 3, 61, 100
5, 2121600, Note_on_c, 3, 61, 0
5, 2121600, Note_on_c, 3, 62, 100
5, 2121840, Note_on_c, 3, 62, 0
5, 2121840, Note_on_c, 3, 64, 100
5, 2121960, Note_on_c, 3, 64, 0
5, 2121960, Note_on_c, 3, 62, 100
5, 2122080, Note_on_c, 3, 62, 0
5, 2122080, Note_on_c, 3, 61, 100
5, 2122200, Note_on_c, 3, 61, 0
5, 2122200, Note_on_c, 3, 59, 100
5, 2122320, Note_on_c, 3, 59, 0
5, 2122320, Note_on_c, 3, 57, 100
5, 2122560, Note_on_c, 3, 57, 0
5, 2123040, Note_on_c, 3, 62, 100
5, 2123280, Note_on_c, 3, 62, 0
5, 2123760, Note_on_c, 3, 61, 100
5, 2124000, Note_on_c, 3, 61, 0
5, 2124480, Note_on_c, 3, 62, 100
5, 2124720, Note_on_c, 3, 62, 0
5, 2125200, Note_on_c, 3, 67, 100
5, 2125440, Note_on_c, 3, 67, 0
5, 2125920, Note_on_c, 3, 66, 100
5, 2126640, Note_on_c, 3, 66, 0
5, 2126640, Note_on_c, 3, 71, 100
5, 2126760, Note_on_c, 3, 71, 0
5, 2126760, Note_on_c, 3, 69, 100
5, 2126880, Note_on_c, 3, 69, 0
5, 2126880, Note_on_c, 3, 67, 100
5, 2127000, Note_on_c, 3, 67, 0
5, 2127000, Note_on_c, 3, 69, 100
5, 2127120, Note_on_c, 3, 69, 0
5, 2127120, Note_on_c, 3, 71, 100
5, 2127180, Note_on_c, 3, 71, 0
5, 2127180, Note_on_c, 3, 69, 100
5, 2127240, Note_on_c, 3, 69, 0
5, 2127240, Note_on_c, 3, 71, 100
5, 2127300, Note_on_c, 3, 71, 0
5, 2127300, Note_on_c, 3, 69, 100
5, 2127360, Note_on_c, 3, 69, 0
5, 2127360, Note_on_c, 3, 71, 100
5, 2127420, Note_on_c, 3, 71, 0
5, 2127420, Note_on_c, 3, 69, 100
5, 2127480, Note_on_c, 3, 69, 0
5, 2127480, Note_on_c, 3, 71, 100
5, 2127540, Note_on_c, 3, 71, 0
5, 2127540, Note_on_c, 3, 69, 100
5, 2127600, Note_on_c, 3, 69, 0
5, 2127600, Note_on_c, 3, 71, 100
5, 2127660, Note_on_c, 3, 71, 0
5, 2127660, Note_on_c, 3, 69, 100
5, 2127720, Note_on_c, 3, 69, 0
5, 2127720, Note_on_c, 3, 71, 100
5, 2127780, Note_on_c, 3, 71, 0
5, 2127780, Note_on_c, 3, 69, 100
5, 2127840, Note_on_c, 3, 69, 0
5, 2127840, Note_on_c, 3, 71, 100
5, 2127900, Note_on_c, 3, 71, 0
5, 2127900, Note_on_c, 3, 69, 100
5, 2127960, Note_on_c, 3, 69, 0
5, 2127960, Note_on_c, 3, 71, 100
5, 2128020, Note_on_c, 3, 71, 0
5, 2128020, Note_on_c, 3, 69, 100
5, 2128080, Note_on_c, 3, 69, 0
5, 2128080, Note_on_c, 3, 71, 100
5, 2128140, Note_on_c, 3, 71, 0
5, 2128140, Note_on_c, 3, 69, 100
5, 2128200, Note_on_c, 3, 69, 0
5, 2128200, Note_on_c, 3, 71, 100
5, 2128260, Note_on_c, 3, 71, 0
5, 2128260, Note_on_c, 3, 69, 100
5, 2128320, Note_on_c, 3, 69, 0
5, 2128320, Note_on_c, 3, 71, 100
5, 2128380, Note_on_c, 3, 71, 0
5, 2128380, Note_on_c, 3, 69, 100
5, 2128440, Note_on_c, 3, 69, 0
5, 2128440, Note_on_c, 3, 71, 100
5, 2128500, Note_on_c, 3, 71, 0
5, 2128500, Note_on_c, 3, 69, 100
5, 2128560, Note_on_c, 3, 69, 0
5, 2128560, Note_on_c, 3, 71, 100
5, 2128620, Note_on_c, 3, 71, 0
5, 2128620, Note_on_c, 3, 69, 100
5, 2128680, Note_on_c, 3, 69, 0
5, 2128680, Note_on_c, 3, 71, 100
5, 2128740, Note_on_c, 3, 71, 0
5, 2128740, Note_on_c, 3, 69, 100
5, 2128800, Note_on_c, 3, 69, 0
5, 2128800, Note_on_c, 3, 71, 100
5, 2128920, Note_on_c, 3, 71, 0
5, 2128920, Note_on_c, 3, 69, 100
5, 2129040, Note_on_c, 3, 69, 0
5, 2129040, Note_on_c, 3, 67, 100
5, 2129280, Note_on_c, 3, 67, 0
5, 2129280, Note_on_c, 3, 66, 100
5, 2129520, Note_on_c, 3, 66, 0
5, 2129520, Note_on_c, 3, 67, 100
5, 2129760, Note_on_c, 3, 67, 0
5, 2129760, Note_on_c, 3, 71, 100
5, 2130000, Note_on_c, 3, 71, 0
5, 2130000, Note_on_c, 3, 69, 100
5, 2130240, Note_on_c, 3, 69, 0
5, 2130240, Note_on_c, 3, 71, 100
5, 2130720, Note_on_c, 3, 71, 0
5, 2130720, Note_on_c, 3, 63, 100
5, 2130960, Note_on_c, 3, 63, 0
5, 2130960, Note_on_c, 3, 64, 100
5, 2131200, Note_on_c, 3, 64, 0
5, 2131200, Note_on_c, 3, 67, 100
5, 2131320, Note_on_c, 3, 67, 0
5, 2131320, Note_on_c, 3, 66, 100
5, 2131440, Note_on_c, 3, 66, 0
5, 2131440, Note_on_c, 3, 64, 100
5, 2131560, Note_on_c, 3, 64, 0
5, 2131560, Note_on_c, 3, 62, 100
5, 2131680, Note_on_c, 3, 62, 0
5, 2131680, Note_on_c, 3, 60, 100
5, 2131920, Note_on_c, 3, 60, 0
5, 2131920, Note_on_c, 3, 64, 100
5, 2132040, Note_on_c, 3, 64, 0
5, 2132040, Note_on_c, 3, 62, 100
5, 2132160, Note_on_c, 3, 62, 0
5, 2132160, Note_on_c, 3, 60, 100
5, 2132280, Note_on_c, 3, 60, 0
5, 2132280, Note_on_c, 3, 59, 100
5, 2132400, Note_on_c, 3, 59, 0
5, 2132400, Note_on_c, 3, 57, 100
5, 2132640, Note_on_c, 3, 57, 0
5, 2132640, Note_on_c, 3, 60, 100
5, 2132760, Note_on_c, 3, 60, 0
5, 2132760, Note_on_c, 3, 59, 100
5, 2132880, Note_on_c, 3, 59, 0
5, 2132880, Note_on_c, 3, 57, 100
5, 2133000, Note_on_c, 3, 57, 0
5, 2133000, Note_on_c, 3, 55, 100
5, 2133120, Note_on_c, 3, 55, 0
5, 2133120, Note_on_c, 3, 54, 100
5, 2133600, Note_on_c, 3, 54, 0
5, 2133600, Note_on_c, 3, 64, 100
5, 2133840, Note_on_c, 3, 64, 0
5, 2133840, Note_on_c, 3, 63, 100
5, 2134080, Note_on_c, 3, 63, 0
5, 2134080, Note_on_c, 3, 66, 100
5, 2134140, Note_on_c, 3, 66, 0
5, 2134140, Note_on_c, 3, 64, 100
5, 2134200, Note_on_c, 3, 64, 0
5, 2134200, Note_on_c, 3, 63, 100
5, 2134260, Note_on_c, 3, 63, 0
5, 2134260, Note_on_c, 3, 64, 100
5, 2134320, Note_on_c, 3, 64, 0
5, 2134320, Note_on_c, 3, 66, 100
5, 2134560, Note_on_c, 3, 66, 0
5, 2134560, Note_on_c, 3, 59, 100
5, 2135520, Note_on_c, 3, 59, 0
5, 2135520, Note_on_c, 3, 63, 100
5, 2135760, Note_on_c, 3, 63, 0
5, 2135760, Note_on_c, 3, 64, 100
5, 2136120, Note_on_c, 3, 64, 0
5, 2136120, Note_on_c, 3, 62, 100
5, 2136240, Note_on_c, 3, 62, 0
5, 2136240, Note_on_c, 3, 60, 100
5, 2136360, Note_on_c, 3, 60, 0
5, 2136360, Note_on_c, 3, 59, 100
5, 2136480, Note_on_c, 3, 59, 0
5, 2136480, Note_on_c, 3, 60, 100
5, 2136840, Note_on_c, 3, 60, 0
5, 2136840, Note_on_c, 3, 59, 100
5, 2136960, Note_on_c, 3, 59, 0
5, 2136960, Note_on_c, 3, 57, 100
5, 2137080, Note_on_c, 3, 57, 0
5, 2137080, Note_on_c, 3, 55, 100
5, 2137200, Note_on_c, 3, 55, 0
5, 2137200, Note_on_c, 3, 57, 100
5, 2137680, Note_on_c, 3, 57, 0
5, 2137680, Note_on_c, 3, 54, 100
5, 2137920, Note_on_c, 3, 54, 0
5, 2137920, Note_on_c, 3, 55, 100
5, 2138160, Note_on_c, 3, 55, 0
5, 2146800, Note_on_c, 3, 59, 100
5, 2147760, Note_on_c, 3, 59, 0
5, 2147760, Note_on_c, 3, 60, 100
5, 2148000, Note_on_c, 3, 60, 0
5, 2148000, Note_on_c, 3, 62, 100
5, 2148240, Note_on_c, 3, 62, 0
5, 2148240, Note_on_c, 3, 64, 100
5, 2148480, Note_on_c, 3, 64, 0
5, 2148480, Note_on_c, 3, 56, 100
5, 2148720, Note_on_c, 3, 56, 0
5, 2148720, Note_on_c, 3, 59, 100
5, 2148960, Note_on_c, 3, 59, 0
5, 2148960, Note_on_c, 3, 57, 100
5, 2149920, Note_on_c, 3, 57, 0
5, 2149920, Note_on_c, 3, 59, 100
5, 2150160, Note_on_c, 3, 59, 0
5, 2150160, Note_on_c, 3, 60, 100
5, 2150400, Note_on_c, 3, 60, 0
5, 2150400, Note_on_c, 3, 62, 100
5, 2150640, Note_on_c, 3, 62, 0
5, 2150640, Note_on_c, 3, 54, 100
5, 2150880, Note_on_c, 3, 54, 0
5, 2150880, Note_on_c, 3, 57, 100
5, 2151120, Note_on_c, 3, 57, 0
5, 2151120, Note_on_c, 3, 50, 100
5, 2151600, Note_on_c, 3, 50, 0
5, 2151600, Note_on_c, 3, 54, 100
5, 2151840, Note_on_c, 3, 54, 0
5, 2151840, Note_on_c, 3, 59, 100
5, 2153040, Note_on_c, 3, 59, 0
5, 2153040, Note_on_c, 3, 51, 100
5, 2153280, Note_on_c, 3, 51, 0
5, 2153280, Note_on_c, 3, 52, 100
5, 2153520, Note_on_c, 3, 52, 0
5, 2153520, Note_on_c, 3, 54, 100
5, 2153760, Note_on_c, 3, 54, 0
5, 2153760, Note_on_c, 3, 55, 100
5, 2154000, Note_on_c, 3, 55, 0
5, 2154000, Note_on_c, 3, 54, 100
5, 2154240, Note_on_c, 3, 54, 0
5, 2154240, Note_on_c, 3, 55, 100
5, 2154480, Note_on_c, 3, 55, 0
5, 2154480, Note_on_c, 3, 57, 100
5, 2154720, Note_on_c, 3, 57, 0
5, 2154720, Note_on_c, 3, 50, 100
5, 2155440, Note_on_c, 3, 50, 0
5, 2155440, Note_on_c, 3, 50, 100
5, 2156160, Note_on_c, 3, 50, 0
5, 2156160, Note_on_c, 3, 50, 100
5, 2157120, Note_on_c, 3, 50, 0
5, 2157120, Note_on_c, 3, 55, 100
5, 2157360, Note_on_c, 3, 55, 0
5, 2157360, Note_on_c, 3, 54, 100
5, 2157600, Note_on_c, 3, 54, 0
5, 2157600, Note_on_c, 3, 55, 100
5, 2157840, Note_on_c, 3, 55, 0
5, 2157840, Note_on_c, 3, 57, 100
5, 2158080, Note_on_c, 3, 57, 0
5, 2158080, Note_on_c, 3, 59, 100
5, 2158320, Note_on_c, 3, 59, 0
5, 2158320, Note_on_c, 3, 60, 100
5, 2158560, Note_on_c, 3, 60, 0
5, 2158560, Note_on_c, 3, 62, 100
5, 2158680, Note_on_c, 3, 62, 0
5, 2158680, Note_on_c, 3, 60, 100
5, 2158800, Note_on_c, 3, 60, 0
5, 2158800, Note_on_c, 3, 59, 100
5, 2158920, Note_on_c, 3, 59, 0
5, 2158920, Note_on_c, 3, 57, 100
5, 2159040, Note_on_c, 3, 57, 0
5, 2159040, Note_on_c, 3, 59, 100
5, 2159280, Note_on_c, 3, 59, 0
5, 2159280, Note_on_c, 3, 60, 100
5, 2159400, Note_on_c, 3, 60, 0
5, 2159400, Note_on_c, 3, 59, 100
5, 2159520, Note_on_c, 3, 59, 0
5, 2159520, Note_on_c, 3, 57, 100
5, 2159640, Note_on_c, 3, 57, 0
5, 2159640, Note_on_c, 3, 55, 100
5, 2159760, Note_on_c, 3, 55, 0
5, 2159760, Note_on_c, 3, 57, 100
5, 2160000, Note_on_c, 3, 57, 0
5, 2160000, Note_on_c, 3, 59, 100
5, 2160120, Note_on_c, 3, 59, 0
5, 2160120, Note_on_c, 3, 57, 100
5, 2160240, Note_on_c, 3, 57, 0
5, 2160240, Note_on_c, 3, 55, 100
5, 2160360, Note_on_c, 3, 55, 0
5, 2160360, Note_on_c, 3, 54, 100
5, 2160480, Note_on_c, 3, 54, 0
5, 2160480, Note_on_c, 3, 55, 100
5, 2161200, Note_on_c, 3, 55, 0
5, 2161200, Note_on_c, 3, 71, 100
5, 2161320, Note_on_c, 3, 71, 0
5, 2161320, Note_on_c, 3, 69, 100
5, 2161440, Note_on_c, 3, 69, 0
5, 2161440, Note_on_c, 3, 67, 100
5, 2161560, Note_on_c, 3, 67, 0
5, 2161560, Note_on_c, 3, 69, 100
5, 2161680, Note_on_c, 3, 69, 0
5, 2161680, Note_on_c, 3, 71, 100
5, 2161740, Note_on_c, 3, 71, 0
5, 2161740, Note_on_c, 3, 69, 100
5, 2161800, Note_on_c, 3, 69, 0
5, 2161800, Note_on_c, 3, 71, 100
5, 2161860, Note_on_c, 3, 71, 0
5, 2161860, Note_on_c, 3, 69, 100
5, 2161920, Note_on_c, 3, 69, 0
5, 2161920, Note_on_c, 3, 71, 100
5, 2161980, Note_on_c, 3, 71, 0
5, 2161980, Note_on_c, 3, 69, 100
5, 2162040, Note_on_c, 3, 69, 0
5, 2162040, Note_on_c, 3, 71, 100
5, 2162100, Note_on_c, 3, 71, 0
5, 2162100, Note_on_c, 3, 69, 100
5, 2162160, Note_on_c, 3, 69, 0
5, 2162160, Note_on_c, 3, 71, 100
5, 2162220, Note_on_c, 3, 71, 0
5, 2162220, Note_on_c, 3, 69, 100
5, 2162280, Note_on_c, 3, 69, 0
5, 2162280, Note_on_c, 3, 71, 100
5, 2162340, Note_on_c, 3, 71, 0
5, 2162340, Note_on_c, 3, 69, 100
5, 2162400, Note_on_c, 3, 69, 0
5, 2162400, Note_on_c, 3, 71, 100
5, 2162460, Note_on_c, 3, 71, 0
5, 2162460, Note_on_c, 3, 69, 100
5, 2162520, Note_on_c, 3, 69, 0
5, 2162520, Note_on_c, 3, 71, 100
5, 2162580, Note_on_c, 3, 71, 0
5, 2162580, Note_on_c, 3, 69, 100
5, 2162640, Note_on_c, 3, 69, 0
5, 2162640, Note_on_c, 3, 71, 100
5, 2162700, Note_on_c, 3, 71, 0
5, 2162700, Note_on_c, 3, 69, 100
5, 2162760, Note_on_c, 3, 69, 0
5, 2162760, Note_on_c, 3, 71, 100
5, 2162820, Note_on_c, 3, 71, 0
5, 2162820, Note_on_c, 3, 69, 100
5, 2162880, Note_on_c, 3, 69, 0
5, 2162880, Note_on_c, 3, 71, 100
5, 2162940, Note_on_c, 3, 71, 0
5, 2162940, Note_on_c, 3, 69, 100
5, 2163000, Note_on_c, 3, 69, 0
5, 2163000, Note_on_c, 3, 71, 100
5, 2163060, Note_on_c, 3, 71, 0
5, 2163060, Note_on_c, 3, 69, 100
5, 2163120, Note_on_c, 3, 69, 0
5, 2163120, Note_on_c, 3, 71, 100
5, 2163180, Note_on_c, 3, 71, 0
5, 2163180, Note_on_c, 3, 69, 100
5, 2163240, Note_on_c, 3, 69, 0
5, 2163240, Note_on_c, 3, 71, 100
5, 2163300, Note_on_c, 3, 71, 0
5, 2163300, Note_on_c, 3, 69, 100
5, 2163360, Note_on_c, 3, 69, 0
5, 2163360, Note_on_c, 3, 71, 100
5, 2163480, Note_on_c, 3, 71, 0
5, 2163480, Note_on_c, 3, 69, 100
5, 2163600, Note_on_c, 3, 69, 0
5, 2163600, Note_on_c, 3, 67, 100
5, 2163840, Note_on_c, 3, 67, 0
5, 2163840, Note_on_c, 3, 66, 100
5, 2164080, Note_on_c, 3, 66, 0
5, 2164080, Note_on_c, 3, 67, 100
5, 2164320, Note_on_c, 3, 67, 0
5, 2164320, Note_on_c, 3, 71, 100
5, 2164560, Note_on_c, 3, 71, 0
5, 2164560, Note_on_c, 3, 69, 100
5, 2164800, Note_on_c, 3, 69, 0
5, 2164800, Note_on_c, 3, 71, 100
5, 2165280, Note_on_c, 3, 71, 0
5, 2165280, Note_on_c, 3, 63, 100
5, 2165520, Note_on_c, 3, 63, 0
5, 2165520, Note_on_c, 3, 64, 100
5, 2165760, Note_on_c, 3, 64, 0
5, 2165760, Note_on_c, 3, 67, 100
5, 2165880, Note_on_c, 3, 67, 0
5, 2165880, Note_on_c, 3, 66, 100
5, 2166000, Note_on_c, 3, 66, 0
5, 2166000, Note_on_c, 3, 64, 100
5, 2166120, Note_on_c, 3, 64, 0
5, 2166120, Note_on_c, 3, 62, 100
5, 2166240, Note_on_c, 3, 62, 0
5, 2166240, Note_on_c, 3, 60, 100
5, 2166480, Note_on_c, 3, 60, 0
5, 2166480, Note_on_c, 3, 64, 100
5, 2166600, Note_on_c, 3, 64, 0
5, 2166600, Note_on_c, 3, 62, 100
5, 2166720, Note_on_c, 3, 62, 0
5, 2166720, Note_on_c, 3, 60, 100
5, 2166840, Note_on_c, 3, 60, 0
5, 2166840, Note_on_c, 3, 59, 100
5, 2166960, Note_on_c, 3, 59, 0
5, 2166960, Note_on_c, 3, 57, 100
5, 2167200, Note_on_c, 3, 57, 0
5, 2167200, Note_on_c, 3, 60, 100
5, 2167320, Note_on_c, 3, 60, 0
5, 2167320, Note_on_c, 3, 59, 100
5, 2167440, Note_on_c, 3, 59, 0
5, 2167440, Note_on_c, 3, 57, 100
5, 2167560, Note_on_c, 3, 57, 0
5, 2167560, Note_on_c, 3, 55, 100
5, 2167680, Note_on_c, 3, 55, 0
5, 2167680, Note_on_c, 3, 54, 100
5, 2168160, Note_on_c, 3, 54, 0
5, 2168160, Note_on_c, 3, 64, 100
5, 2168400, Note_on_c, 3, 64, 0
5, 2168400, Note_on_c, 3, 63, 100
5, 2168640, Note_on_c, 3, 63, 0
5, 2168640, Note_on_c, 3, 66, 100
5, 2168700, Note_on_c, 3, 66, 0
5, 2168700, Note_on_c, 3, 64, 100
5, 2168760, Note_on_c, 3, 64, 0
5, 2168760, Note_on_c, 3, 63, 100
5, 2168820, Note_on_c, 3, 63, 0
5, 2168820, Note_on_c, 3, 64, 100
5, 2168880, Note_on_c, 3, 64, 0
5, 2168880, Note_on_c, 3, 66, 100
5, 2169120, Note_on_c, 3, 66, 0
5, 2169120, Note_on_c, 3, 59, 100
5, 2170080, Note_on_c, 3, 59, 0
5, 2170080, Note_on_c, 3, 63, 100
5, 2170320, Note_on_c, 3, 63, 0
5, 2170320, Note_on_c, 3, 64, 100
5, 2170680, Note_on_c, 3, 64, 0
5, 2170680, Note_on_c, 3, 62, 100
5, 2170800, Note_on_c, 3, 62, 0
5, 2170800, Note_on_c, 3, 60, 100
5, 2170920, Note_on_c, 3, 60, 0
5, 2170920, Note_on_c, 3, 59, 100
5, 2171040, Note_on_c, 3, 59, 0
5, 2171040, Note_on_c, 3, 60, 100
5, 2171400, Note_on_c, 3, 60, 0
5, 2171400, Note_on_c, 3, 59, 100
5, 2171520, Note_on_c, 3, 59, 0
5, 2171520, Note_on_c, 3, 57, 100
5, 2171640, Note_on_c, 3, 57, 0
5, 2171640, Note_on_c, 3, 55, 100
5, 2171760, Note_on_c, 3, 55, 0
5, 2171760, Note_on_c, 3, 57, 100
5, 2172240, Note_on_c, 3, 57, 0
5, 2172240, Note_on_c, 3, 54, 100
5, 2172480, Note_on_c, 3, 54, 0
5, 2172480, Note_on_c, 3, 55, 100
5, 2172720, Note_on_c, 3, 55, 0
5, 2181360, Note_on_c, 3, 59, 100
5, 2182320, Note_on_c, 3, 59, 0
5, 2182320, Note_on_c, 3, 60, 100
5, 2182560, Note_on_c, 3, 60, 0
5, 2182560, Note_on_c, 3, 62, 100
5, 2182800, Note_on_c, 3, 62, 0
5, 2182800, Note_on_c, 3, 64, 100
5, 2183040, Note_on_c, 3, 64, 0
5, 2183040, Note_on_c, 3, 56, 100
5, 2183280, Note_on_c, 3, 56, 0
5, 2183280, Note_on_c, 3, 59, 100
5, 2183520, Note_on_c, 3, 59, 0
5, 2183520, Note_on_c, 3, 57, 100
5, 2184480, Note_on_c, 3, 57, 0
5, 2184480, Note_on_c, 3, 59, 100
5, 2184720, Note_on_c, 3, 59, 0
5, 2184720, Note_on_c, 3, 60, 100
5, 2184960, Note_on_c, 3, 60, 0
5, 2184960, Note_on_c, 3, 62, 100
5, 2185200, Note_on_c, 3, 62, 0
5, 2185200, Note_on_c, 3, 54, 100
5, 2185440, Note_on_c, 3, 54, 0
5, 2185440, Note_on_c, 3, 57, 100
5, 2185680, Note_on_c, 3, 57, 0
5, 2185680, Note_on_c, 3, 50, 100
5, 2186160, Note_on_c, 3, 50, 0
5, 2186160, Note_on_c, 3, 54, 100
5, 2186400, Note_on_c, 3, 54, 0
5, 2186400, Note_on_c, 3, 59, 100
5, 2187600, Note_on_c, 3, 59, 0
5, 2187600, Note_on_c, 3, 51, 100
5, 2187840, Note_on_c, 3, 51, 0
5, 2187840, Note_on_c, 3, 52, 100
5, 2188080, Note_on_c, 3, 52, 0
5, 2188080, Note_on_c, 3, 54, 100
5, 2188320, Note_on_c, 3, 54, 0
5, 2188320, Note_on_c, 3, 55, 100
5, 2188560, Note_on_c, 3, 55, 0
5, 2188560, Note_on_c, 3, 54, 100
5, 2188800, Note_on_c, 3, 54, 0
5, 2188800, Note_on_c, 3, 55, 100
5, 2189040, Note_on_c, 3, 55, 0
5, 2189040, Note_on_c, 3, 57, 100
5, 2189280, Note_on_c, 3, 57, 0
5, 2189280, Note_on_c, 3, 50, 100
5, 2190000, Note_on_c, 3, 50, 0
5, 2190000, Note_on_c, 3, 50, 100
5, 2190720, Note_on_c, 3, 50, 0
5, 2190720, Note_on_c, 3, 50, 100
5, 2191680, Note_on_c, 3, 50, 0
5, 2191680, Note_on_c, 3, 55, 100
5, 2191920, Note_on_c, 3, 55, 0
5, 2191920, Note_on_c, 3, 54, 100
5, 2192160, Note_on_c, 3, 54, 0
5, 2192160, Note_on_c, 3, 55, 100
5, 2192400, Note_on_c, 3, 55, 0
5, 2192400, Note_on_c, 3, 57, 100
5, 2192640, Note_on_c, 3, 57, 0
5, 2192640, Note_on_c, 3, 59, 100
5, 2192880, Note_on_c, 3, 59, 0
5, 2192880, Note_on_c, 3, 60, 100
5, 2193120, Note_on_c, 3, 60, 0
5, 2193120, Note_on_c, 3, 62, 100
5, 2193240, Note_on_c, 3, 62, 0
5, 2193240, Note_on_c, 3, 60, 100
5, 2193360, Note_on_c, 3, 60, 0
5, 2193360, Note_on_c, 3, 59, 100
5, 2193480, Note_on_c, 3, 59, 0
5, 2193480, Note_on_c, 3, 57, 100
5, 2193600, Note_on_c, 3, 57, 0
5, 2193600, Note_on_c, 3, 59, 100
5, 2193840, Note_on_c, 3, 59, 0
5, 2193840, Note_on_c, 3, 60, 100
5, 2193960, Note_on_c, 3, 60, 0
5, 2193960, Note_on_c, 3, 59, 100
5, 2194080, Note_on_c, 3, 59, 0
5, 2194080, Note_on_c, 3, 57, 100
5, 2194200, Note_on_c, 3, 57, 0
5, 2194200, Note_on_c, 3, 55, 100
5, 2194320, Note_on_c, 3, 55, 0
5, 2194320, Note_on_c, 3, 57, 100
5, 2194560, Note_on_c, 3, 57, 0
5, 2194560, Note_on_c, 3, 59, 100
5, 2194680, Note_on_c, 3, 59, 0
5, 2194680, Note_on_c, 3, 57, 100
5, 2194800, Note_on_c, 3, 57, 0
5, 2194800, Note_on_c, 3, 55, 100
5, 2194920, Note_on_c, 3, 55, 0
5, 2194920, Note_on_c, 3, 54, 100
5, 2195040, Note_on_c, 3, 54, 0
5, 2195040, Note_on_c, 3, 55, 100
5, 2195760, Note_on_c, 3, 55, 0
5, 2195760, Note_on_c, 3, 58, 100
5, 2196240, Note_on_c, 3, 58, 0
5, 2196480, Note_on_c, 3, 62, 100
5, 2196720, Note_on_c, 3, 62, 0
5, 2196720, Note_on_c, 3, 60, 100
5, 2196960, Note_on_c, 3, 60, 0
5, 2196960, Note_on_c, 3, 58, 100
5, 2197200, Note_on_c, 3, 58, 0
5, 2197200, Note_on_c, 3, 57, 100
5, 2197680, Note_on_c, 3, 57, 0
5, 2197920, Note_on_c, 3, 60, 100
5, 2198160, Note_on_c, 3, 60, 0
5, 2198160, Note_on_c, 3, 58, 100
5, 2198400, Note_on_c, 3, 58, 0
5, 2198400, Note_on_c, 3, 56, 100
5, 2198640, Note_on_c, 3, 56, 0
5, 2198640, Note_on_c, 3, 55, 100
5, 2199120, Note_on_c, 3, 55, 0
5, 2199360, Note_on_c, 3, 58, 100
5, 2199600, Note_on_c, 3, 58, 0
5, 2199600, Note_on_c, 3, 57, 100
5, 2199840, Note_on_c, 3, 57, 0
5, 2199840, Note_on_c, 3, 55, 100
5, 2200320, Note_on_c, 3, 55, 0
5, 2200320, Note_on_c, 3, 54, 100
5, 2200440, Note_on_c, 3, 54, 0
5, 2200440, Note_on_c, 3, 52, 100
5, 2200560, Note_on_c, 3, 52, 0
5, 2200560, Note_on_c, 3, 54, 100
5, 2200680, Note_on_c, 3, 54, 0
5, 2200680, Note_on_c, 3, 57, 100
5, 2200920, Note_on_c, 3, 57, 0
5, 2200920, Note_on_c, 3, 60, 100
5, 2201160, Note_on_c, 3, 60, 0
5, 2201160, Note_on_c, 3, 54, 100
5, 2201400, Note_on_c, 3, 54, 0
5, 2201400, Note_on_c, 3, 57, 100
5, 2201640, Note_on_c, 3, 57, 0
5, 2201640, Note_on_c, 3, 54, 100
5, 2201760, Note_on_c, 3, 54, 0
5, 2201760, Note_on_c, 3, 55, 100
5, 2202000, Note_on_c, 3, 55, 0
5, 2202240, Note_on_c, 3, 55, 100
5, 2202480, Note_on_c, 3, 55, 0
5, 2202480, Note_on_c, 3, 50, 100
5, 2202600, Note_on_c, 3, 50, 0
5, 2202600, Note_on_c, 3, 53, 100
5, 2202720, Note_on_c, 3, 53, 0
5, 2202720, Note_on_c, 3, 55, 100
5, 2202840, Note_on_c, 3, 55, 0
5, 2202840, Note_on_c, 3, 56, 100
5, 2202960, Note_on_c, 3, 56, 0
5, 2202960, Note_on_c, 3, 56, 100
5, 2203200, Note_on_c, 3, 56, 0
5, 2203200, Note_on_c, 3, 55, 100
5, 2203440, Note_on_c, 3, 55, 0
5, 2203680, Note_on_c, 3, 57, 100
5, 2203920, Note_on_c, 3, 57, 0
5, 2203920, Note_on_c, 3, 52, 100
5, 2204040, Note_on_c, 3, 52, 0
5, 2204040, Note_on_c, 3, 55, 100
5, 2204160, Note_on_c, 3, 55, 0
5, 2204160, Note_on_c, 3, 57, 100
5, 2204280, Note_on_c, 3, 57, 0
5, 2204280, Note_on_c, 3, 58, 100
5, 2204400, Note_on_c, 3, 58, 0
5, 2204400, Note_on_c, 3, 58, 100
5, 2204640, Note_on_c, 3, 58, 0
5, 2204640, Note_on_c, 3, 57, 100
5, 2204880, Note_on_c, 3, 57, 0
5, 2205120, Note_on_c, 3, 57, 100
5, 2205360, Note_on_c, 3, 57, 0
5, 2205360, Note_on_c, 3, 55, 100
5, 2205600, Note_on_c, 3, 55, 0
5, 2205600, Note_on_c, 3, 54, 100
5, 2206080, Note_on_c, 3, 54, 0
5, 2206080, Note_on_c, 3, 55, 100
5, 2206200, Note_on_c, 3, 55, 0
5, 2206200, Note_on_c, 3, 54, 100
5, 2206320, Note_on_c, 3, 54, 0
5, 2206320, Note_on_c, 3, 55, 100
5, 2206440, Note_on_c, 3, 55, 0
5, 2206440, Note_on_c, 3, 50, 100
5, 2206680, Note_on_c, 3, 50, 0
5, 2206680, Note_on_c, 3, 51, 100
5, 2206860, Note_on_c, 3, 51, 0
5, 2206860, Note_on_c, 3, 50, 100
5, 2206920, Note_on_c, 3, 50, 0
5, 2206920, Note_on_c, 3, 55, 100
5, 2207100, Note_on_c, 3, 55, 0
5, 2207100, Note_on_c, 3, 54, 100
5, 2207160, Note_on_c, 3, 54, 0
5, 2207160, Note_on_c, 3, 60, 100
5, 2207400, Note_on_c, 3, 60, 0
5, 2207400, Note_on_c, 3, 58, 100
5, 2207460, Note_on_c, 3, 58, 0
5, 2207460, Note_on_c, 3, 57, 100
5, 2207520, Note_on_c, 3, 57, 0
5, 2207520, Note_on_c, 3, 58, 100
5, 2207760, Note_on_c, 3, 58, 0
5, 2208000, Note_on_c, 3, 67, 100
5, 2208240, Note_on_c, 3, 67, 0
5, 2208240, Note_on_c, 3, 67, 100
5, 2208480, Note_on_c, 3, 67, 0
5, 2208480, Note_on_c, 3, 67, 100
5, 2208720, Note_on_c, 3, 67, 0
5, 2208720, Note_on_c, 3, 67, 100
5, 2208960, Note_on_c, 3, 67, 0
5, 2208960, Note_on_c, 3, 66, 100
5, 2209200, Note_on_c, 3, 66, 0
5, 2209440, Note_on_c, 3, 65, 100
5, 2209680, Note_on_c, 3, 65, 0
5, 2209680, Note_on_c, 3, 65, 100
5, 2209920, Note_on_c, 3, 65, 0
5, 2209920, Note_on_c, 3, 65, 100
5, 2210160, Note_on_c, 3, 65, 0
5, 2210160, Note_on_c, 3, 65, 100
5, 2210400, Note_on_c, 3, 65, 0
5, 2210400, Note_on_c, 3, 64, 100
5, 2210640, Note_on_c, 3, 64, 0
5, 2210880, Note_on_c, 3, 63, 100
5, 2211120, Note_on_c, 3, 63, 0
5, 2211120, Note_on_c, 3, 63, 100
5, 2211360, Note_on_c, 3, 63, 0
5, 2211360, Note_on_c, 3, 62, 100
5, 2211600, Note_on_c, 3, 62, 0
5, 2211600, Note_on_c, 3, 62, 100
5, 2211840, Note_on_c, 3, 62, 0
5, 2211840, Note_on_c, 3, 61, 100
5, 2212080, Note_on_c, 3, 61, 0
5, 2213280, Note_on_c, 3, 62, 100
5, 2213520, Note_on_c, 3, 62, 0
5, 2213520, Note_on_c, 3, 62, 100
5, 2213760, Note_on_c, 3, 62, 0
5, 2213760, Note_on_c, 3, 63, 100
5, 2214000, Note_on_c, 3, 63, 0
5, 2214000, Note_on_c, 3, 63, 100
5, 2214480, Note_on_c, 3, 63, 0
5, 2214720, Note_on_c, 3, 64, 100
5, 2214960, Note_on_c, 3, 64, 0
5, 2214960, Note_on_c, 3, 64, 100
5, 2215200, Note_on_c, 3, 64, 0
5, 2215200, Note_on_c, 3, 65, 100
5, 2215440, Note_on_c, 3, 65, 0
5, 2215440, Note_on_c, 3, 65, 100
5, 2215920, Note_on_c, 3, 65, 0
5, 2216160, Note_on_c, 3, 66, 100
5, 2216400, Note_on_c, 3, 66, 0
5, 2216400, Note_on_c, 3, 66, 100
5, 2216640, Note_on_c, 3, 66, 0
5, 2216640, Note_on_c, 3, 67, 100
5, 2216880, Note_on_c, 3, 67, 0
5, 2216880, Note_on_c, 3, 67, 100
5, 2217600, Note_on_c, 3, 67, 0
5, 2217600, Note_on_c, 3, 66, 100
5, 2217720, Note_on_c, 3, 66, 0
5, 2217720, Note_on_c, 3, 64, 100
5, 2217840, Note_on_c, 3, 64, 0
5, 2217840, Note_on_c, 3, 66, 100
5, 2218320, Note_on_c, 3, 66, 0
5, 2218800, Note_on_c, 3, 58, 100
5, 2219280, Note_on_c, 3, 58, 0
5, 2219520, Note_on_c, 3, 62, 100
5, 2219760, Note_on_c, 3, 62, 0
5, 2219760, Note_on_c, 3, 60, 100
5, 2220000, Note_on_c, 3, 60, 0
5, 2220000, Note_on_c, 3, 58, 100
5, 2220240, Note_on_c, 3, 58, 0
5, 2220240, Note_on_c, 3, 57, 100
5, 2220720, Note_on_c, 3, 57, 0
5, 2220960, Note_on_c, 3, 60, 100
5, 2221200, Note_on_c, 3, 60, 0
5, 2221200, Note_on_c, 3, 58, 100
5, 2221440, Note_on_c, 3, 58, 0
5, 2221440, Note_on_c, 3, 56, 100
5, 2221680, Note_on_c, 3, 56, 0
5, 2221680, Note_on_c, 3, 55, 100
5, 2222160, Note_on_c, 3, 55, 0
5, 2222400, Note_on_c, 3, 58, 100
5, 2222640, Note_on_c, 3, 58, 0
5, 2222640, Note_on_c, 3, 57, 100
5, 2222880, Note_on_c, 3, 57, 0
5, 2222880, Note_on_c, 3, 55, 100
5, 2223360, Note_on_c, 3, 55, 0
5, 2223360, Note_on_c, 3, 54, 100
5, 2223480, Note_on_c, 3, 54, 0
5, 2223480, Note_on_c, 3, 52, 100
5, 2223600, Note_on_c, 3, 52, 0
5, 2223600, Note_on_c, 3, 54, 100
5, 2223720, Note_on_c, 3, 54, 0
5, 2223720, Note_on_c, 3, 57, 100
5, 2223960, Note_on_c, 3, 57, 0
5, 2223960, Note_on_c, 3, 60, 100
5, 2224200, Note_on_c, 3, 60, 0
5, 2224200, Note_on_c, 3, 54, 100
5, 2224440, Note_on_c, 3, 54, 0
5, 2224440, Note_on_c, 3, 57, 100
5, 2224680, Note_on_c, 3, 57, 0
5, 2224680, Note_on_c, 3, 54, 100
5, 2224800, Note_on_c, 3, 54, 0
5, 2224800, Note_on_c, 3, 55, 100
5, 2225040, Note_on_c, 3, 55, 0
5, 2225280, Note_on_c, 3, 55, 100
5, 2225520, Note_on_c, 3, 55, 0
5, 2225520, Note_on_c, 3, 50, 100
5, 2225640, Note_on_c, 3, 50, 0
5, 2225640, Note_on_c, 3, 53, 100
5, 2225760, Note_on_c, 3, 53, 0
5, 2225760, Note_on_c, 3, 55, 100
5, 2225880, Note_on_c, 3, 55, 0
5, 2225880, Note_on_c, 3, 56, 100
5, 2226000, Note_on_c, 3, 56, 0
5, 2226000, Note_on_c, 3, 56, 100
5, 2226240, Note_on_c, 3, 56, 0
5, 2226240, Note_on_c, 3, 55, 100
5, 2226480, Note_on_c, 3, 55, 0
5, 2226720, Note_on_c, 3, 57, 100
5, 2226960, Note_on_c, 3, 57, 0
5, 2226960, Note_on_c, 3, 52, 100
5, 2227080, Note_on_c, 3, 52, 0
5, 2227080, Note_on_c, 3, 55, 100
5, 2227200, Note_on_c, 3, 55, 0
5, 2227200, Note_on_c, 3, 57, 100
5, 2227320, Note_on_c, 3, 57, 0
5, 2227320, Note_on_c, 3, 58, 100
5, 2227440, Note_on_c, 3, 58, 0
5, 2227440, Note_on_c, 3, 58, 100
5, 2227680, Note_on_c, 3, 58, 0
5, 2227680, Note_on_c, 3, 57, 100
5, 2227920, Note_on_c, 3, 57, 0
5, 2228160, Note_on_c, 3, 57, 100
5, 2228400, Note_on_c, 3, 57, 0
5, 2228400, Note_on_c, 3, 55, 100
5, 2228640, Note_on_c, 3, 55, 0
5, 2228640, Note_on_c, 3, 54, 100
5, 2229120, Note_on_c, 3, 54, 0
5, 2229120, Note_on_c, 3, 55, 100
5, 2229240, Note_on_c, 3, 55, 0
5, 2229240, Note_on_c, 3, 54, 100
5, 2229360, Note_on_c, 3, 54, 0
5, 2229360, Note_on_c, 3, 55, 100
5, 2229480, Note_on_c, 3, 55, 0
5, 2229480, Note_on_c, 3, 50, 100
5, 2229720, Note_on_c, 3, 50, 0
5, 2229720, Note_on_c, 3, 51, 100
5, 2229900, Note_on_c, 3, 51, 0
5, 2229900, Note_on_c, 3, 50, 100
5, 2229960, Note_on_c, 3, 50, 0
5, 2229960, Note_on_c, 3, 55, 100
5, 2230140, Note_on_c, 3, 55, 0
5, 2230140, Note_on_c, 3, 54, 100
5, 2230200, Note_on_c, 3, 54, 0
5, 2230200, Note_on_c, 3, 60, 100
5, 2230440, Note_on_c, 3, 60, 0
5, 2230440, Note_on_c, 3, 58, 100
5, 2230500, Note_on_c, 3, 58, 0
5, 2230500, Note_on_c, 3, 57, 100
5, 2230560, Note_on_c, 3, 57, 0
5, 2230560, Note_on_c, 3, 58, 100
5, 2230800, Note_on_c, 3, 58, 0
5, 2231040, Note_on_c, 3, 67, 100
5, 2231280, Note_on_c, 3, 67, 0
5, 2231280, Note_on_c, 3, 67, 100
5, 2231520, Note_on_c, 3, 67, 0
5, 2231520, Note_on_c, 3, 67, 100
5, 2231760, Note_on_c, 3, 67, 0
5, 2231760, Note_on_c, 3, 67, 100
5, 2232000, Note_on_c, 3, 67, 0
5, 2232000, Note_on_c, 3, 66, 100
5, 2232240, Note_on_c, 3, 66, 0
5, 2232480, Note_on_c, 3, 65, 100
5, 2232720, Note_on_c, 3, 65, 0
5, 2232720, Note_on_c, 3, 65, 100
5, 2232960, Note_on_c, 3, 65, 0
5, 2232960, Note_on_c, 3, 65, 100
5, 2233200, Note_on_c, 3, 65, 0
5, 2233200, Note_on_c, 3, 65, 100
5, 2233440, Note_on_c, 3, 65, 0
5, 2233440, Note_on_c, 3, 64, 100
5, 2233680, Note_on_c, 3, 64, 0
5, 2233920, Note_on_c, 3, 63, 100
5, 2234160, Note_on_c, 3, 63, 0
5, 2234160, Note_on_c, 3, 63, 100
5, 2234400, Note_on_c, 3, 63, 0
5, 2234400, Note_on_c, 3, 62, 100
5, 2234640, Note_on_c, 3, 62, 0
5, 2234640, Note_on_c, 3, 62, 100
5, 2234880, Note_on_c, 3, 62, 0
5, 2234880, Note_on_c, 3, 61, 100
5, 2235120, Note_on_c, 3, 61, 0
5, 2236320, Note_on_c, 3, 62, 100
5, 2236560, Note_on_c, 3, 62, 0
5, 2236560, Note_on_c, 3, 62, 100
5, 2236800, Note_on_c, 3, 62, 0
5, 2236800, Note_on_c, 3, 63, 100
5, 2237040, Note_on_c, 3, 63, 0
5, 2237040, Note_on_c, 3, 63, 100
5, 2237520, Note_on_c, 3, 63, 0
5, 2237760, Note_on_c, 3, 64, 100
5, 2238000, Note_on_c, 3, 64, 0
5, 2238000, Note_on_c, 3, 64, 100
5, 2238240, Note_on_c, 3, 64, 0
5, 2238240, Note_on_c, 3, 65, 100
5, 2238480, Note_on_c, 3, 65, 0
5, 2238480, Note_on_c, 3, 65, 100
5, 2238960, Note_on_c, 3, 65, 0
5, 2239200, Note_on_c, 3, 66, 100
5, 2239440, Note_on_c, 3, 66, 0
5, 2239440, Note_on_c, 3, 66, 100
5, 2239680, Note_on_c, 3, 66, 0
5, 2239680, Note_on_c, 3, 67, 100
5, 2239920, Note_on_c, 3, 67, 0
5, 2239920, Note_on_c, 3, 67, 100
5, 2240640, Note_on_c, 3, 67, 0
5, 2240640, Note_on_c, 3, 66, 100
5, 2240760, Note_on_c, 3, 66, 0
5, 2240760, Note_on_c, 3, 64, 100
5, 2240880, Note_on_c, 3, 64, 0
5, 2240880, Note_on_c, 3, 66, 100
5, 2241360, Note_on_c, 3, 66, 0
5, 2242080, Note_on_c, 3, 65, 100
5, 2242320, Note_on_c, 3, 65, 0
5, 2242320, Note_on_c, 3, 65, 100
5, 2242560, Note_on_c, 3, 65, 0
5, 2242560, Note_on_c, 3, 66, 100
5, 2242800, Note_on_c, 3, 66, 0
5, 2242800, Note_on_c, 3, 66, 100
5, 2243040, Note_on_c, 3, 66, 0
5, 2243040, Note_on_c, 3, 67, 100
5, 2243280, Note_on_c, 3, 67, 0
5, 2243280, Note_on_c, 3, 67, 100
5, 2243520, Note_on_c, 3, 67, 0
5, 2243520, Note_on_c, 3, 62, 100
5, 2243760, Note_on_c, 3, 62, 0
5, 2244000, Note_on_c, 3, 65, 100
5, 2244240, Note_on_c, 3, 65, 0
5, 2244240, Note_on_c, 3, 65, 100
5, 2244480, Note_on_c, 3, 65, 0
5, 2244480, Note_on_c, 3, 63, 100
5, 2244720, Note_on_c, 3, 63, 0
5, 2244720, Note_on_c, 3, 63, 100
5, 2244960, Note_on_c, 3, 63, 0
5, 2244960, Note_on_c, 3, 62, 100
5, 2245200, Note_on_c, 3, 62, 0
5, 2245200, Note_on_c, 3, 63, 100
5, 2245440, Note_on_c, 3, 63, 0
5, 2245440, Note_on_c, 3, 64, 100
5, 2245680, Note_on_c, 3, 64, 0
5, 2245680, Note_on_c, 3, 65, 100
5, 2245920, Note_on_c, 3, 65, 0
5, 2245920, Note_on_c, 3, 66, 100
5, 2246400, Note_on_c, 3, 66, 0
5, 2246400, Note_on_c, 3, 65, 100
5, 2246520, Note_on_c, 3, 65, 0
5, 2246520, Note_on_c, 3, 66, 100
5, 2246640, Note_on_c, 3, 66, 0
5, 2246640, Note_on_c, 3, 68, 100
5, 2246760, Note_on_c, 3, 68, 0
5, 2246760, Note_on_c, 3, 62, 100
5, 2247000, Note_on_c, 3, 62, 0
5, 2247000, Note_on_c, 3, 63, 100
5, 2247060, Note_on_c, 3, 63, 0
5, 2247060, Note_on_c, 3, 65, 100
5, 2247120, Note_on_c, 3, 65, 0
5, 2247120, Note_on_c, 3, 66, 100
5, 2247180, Note_on_c, 3, 66, 0
5, 2247180, Note_on_c, 3, 63, 100
5, 2247240, Note_on_c, 3, 63, 0
5, 2247240, Note_on_c, 3, 65, 100
5, 2247480, Note_on_c, 3, 65, 0
5, 2247480, Note_on_c, 3, 59, 100
5, 2247600, Note_on_c, 3, 59, 0
5, 2247600, Note_on_c, 3, 59, 100
5, 2247720, Note_on_c, 3, 59, 0
5, 2247720, Note_on_c, 3, 58, 100
5, 2247840, Note_on_c, 3, 58, 0
5, 2247840, Note_on_c, 3, 63, 100
5, 2248080, Note_on_c, 3, 63, 0
5, 2248080, Note_on_c, 3, 63, 100
5, 2248320, Note_on_c, 3, 63, 0
5, 2248320, Note_on_c, 3, 64, 100
5, 2248560, Note_on_c, 3, 64, 0
5, 2248560, Note_on_c, 3, 64, 100
5, 2249040, Note_on_c, 3, 64, 0
5, 2249280, Note_on_c, 3, 65, 100
5, 2249520, Note_on_c, 3, 65, 0
5, 2249520, Note_on_c, 3, 65, 100
5, 2249760, Note_on_c, 3, 65, 0
5, 2249760, Note_on_c, 3, 66, 100
5, 2250000, Note_on_c, 3, 66, 0
5, 2250000, Note_on_c, 3, 66, 100
5, 2250480, Note_on_c, 3, 66, 0
5, 2250720, Note_on_c, 3, 67, 100
5, 2250960, Note_on_c, 3, 67, 0
5, 2250960, Note_on_c, 3, 67, 100
5, 2251200, Note_on_c, 3, 67, 0
5, 2251200, Note_on_c, 3, 68, 100
5, 2251440, Note_on_c, 3, 68, 0
5, 2251440, Note_on_c, 3, 68, 100
5, 2252160, Note_on_c, 3, 68, 0
5, 2252160, Note_on_c, 3, 67, 100
5, 2252280, Note_on_c, 3, 67, 0
5, 2252280, Note_on_c, 3, 65, 100
5, 2252400, Note_on_c, 3, 65, 0
5, 2252400, Note_on_c, 3, 67, 100
5, 2252760, Note_on_c, 3, 67, 0
5, 2252760, Note_on_c, 3, 69, 100
5, 2252820, Note_on_c, 3, 69, 0
5, 2252820, Note_on_c, 3, 71, 100
5, 2252880, Note_on_c, 3, 71, 0
5, 2252880, Note_on_c, 3, 72, 100
5, 2252940, Note_on_c, 3, 72, 0
5, 2252940, Note_on_c, 3, 65, 100
5, 2253000, Note_on_c, 3, 65, 0
5, 2253000, Note_on_c, 3, 68, 100
5, 2253240, Note_on_c, 3, 68, 0
5, 2253240, Note_on_c, 3, 67, 100
5, 2253360, Note_on_c, 3, 67, 0
5, 2253360, Note_on_c, 3, 65, 100
5, 2253600, Note_on_c, 3, 65, 0
5, 2253600, Note_on_c, 3, 63, 100
5, 2253840, Note_on_c, 3, 63, 0
5, 2254080, Note_on_c, 3, 67, 100
5, 2254320, Note_on_c, 3, 67, 0
5, 2254320, Note_on_c, 3, 65, 100
5, 2254560, Note_on_c, 3, 65, 0
5, 2254560, Note_on_c, 3, 63, 100
5, 2254800, Note_on_c, 3, 63, 0
5, 2254800, Note_on_c, 3, 62, 100
5, 2255280, Note_on_c, 3, 62, 0
5, 2255520, Note_on_c, 3, 65, 100
5, 2255760, Note_on_c, 3, 65, 0
5, 2255760, Note_on_c, 3, 63, 100
5, 2256000, Note_on_c, 3, 63, 0
5, 2256000, Note_on_c, 3, 61, 100
5, 2256240, Note_on_c, 3, 61, 0
5, 2256240, Note_on_c, 3, 60, 100
5, 2256720, Note_on_c, 3, 60, 0
5, 2256960, Note_on_c, 3, 63, 100
5, 2257080, Note_on_c, 3, 63, 0
5, 2257080, Note_on_c, 3, 62, 100
5, 2257200, Note_on_c, 3, 62, 0
5, 2257200, Note_on_c, 3, 60, 100
5, 2257440, Note_on_c, 3, 60, 0
5, 2257440, Note_on_c, 3, 58, 100
5, 2257680, Note_on_c, 3, 58, 0
5, 2257680, Note_on_c, 3, 57, 100
5, 2258040, Note_on_c, 3, 57, 0
5, 2258040, Note_on_c, 3, 57, 100
5, 2258160, Note_on_c, 3, 57, 0
5, 2258160, Note_on_c, 3, 62, 100
5, 2258400, Note_on_c, 3, 62, 0
5, 2258400, Note_on_c, 3, 60, 100
5, 2258640, Note_on_c, 3, 60, 0
5, 2258640, Note_on_c, 3, 58, 100
5, 2258880, Note_on_c, 3, 58, 0
5, 2258880, Note_on_c, 3, 57, 100
5, 2259120, Note_on_c, 3, 57, 0
5, 2259120, Note_on_c, 3, 50, 100
5, 2259360, Note_on_c, 3, 50, 0
5, 2259360, Note_on_c, 3, 54, 100
5, 2259600, Note_on_c, 3, 54, 0
5, 2259600, Note_on_c, 3, 54, 100
5, 2259840, Note_on_c, 3, 54, 0
5, 2259840, Note_on_c, 3, 55, 100
5, 2260080, Note_on_c, 3, 55, 0
5, 2260080, Note_on_c, 3, 55, 100
5, 2260320, Note_on_c, 3, 55, 0
5, 2260320, Note_on_c, 3, 56, 100
5, 2260560, Note_on_c, 3, 56, 0
5, 2260800, Note_on_c, 3, 55, 100
5, 2261040, Note_on_c, 3, 55, 0
5, 2261040, Note_on_c, 3, 55, 100
5, 2261280, Note_on_c, 3, 55, 0
5, 2261280, Note_on_c, 3, 57, 100
5, 2261520, Note_on_c, 3, 57, 0
5, 2261520, Note_on_c, 3, 57, 100
5, 2261760, Note_on_c, 3, 57, 0
5, 2261760, Note_on_c, 3, 58, 100
5, 2262000, Note_on_c, 3, 58, 0
5, 2262240, Note_on_c, 3, 57, 100
5, 2262480, Note_on_c, 3, 57, 0
5, 2262480, Note_on_c, 3, 57, 100
5, 2262720, Note_on_c, 3, 57, 0
5, 2262720, Note_on_c, 3, 58, 100
5, 2262960, Note_on_c, 3, 58, 0
5, 2262960, Note_on_c, 3, 58, 100
5, 2263200, Note_on_c, 3, 58, 0
5, 2263200, Note_on_c, 3, 60, 100
5, 2263680, Note_on_c, 3, 60, 0
5, 2263680, Note_on_c, 3, 58, 100
5, 2263800, Note_on_c, 3, 58, 0
5, 2263800, Note_on_c, 3, 57, 100
5, 2263920, Note_on_c, 3, 57, 0
5, 2263920, Note_on_c, 3, 58, 100
5, 2264400, Note_on_c, 3, 58, 0
5, 2265120, Note_on_c, 3, 65, 100
5, 2265360, Note_on_c, 3, 65, 0
5, 2265360, Note_on_c, 3, 65, 100
5, 2265600, Note_on_c, 3, 65, 0
5, 2265600, Note_on_c, 3, 66, 100
5, 2265840, Note_on_c, 3, 66, 0
5, 2265840, Note_on_c, 3, 66, 100
5, 2266080, Note_on_c, 3, 66, 0
5, 2266080, Note_on_c, 3, 67, 100
5, 2266320, Note_on_c, 3, 67, 0
5, 2266320, Note_on_c, 3, 67, 100
5, 2266560, Note_on_c, 3, 67, 0
5, 2266560, Note_on_c, 3, 62, 100
5, 2266800, Note_on_c, 3, 62, 0
5, 2267040, Note_on_c, 3, 65, 100
5, 2267280, Note_on_c, 3, 65, 0
5, 2267280, Note_on_c, 3, 65, 100
5, 2267520, Note_on_c, 3, 65, 0
5, 2267520, Note_on_c, 3, 63, 100
5, 2267760, Note_on_c, 3, 63, 0
5, 2267760, Note_on_c, 3, 63, 100
5, 2268000, Note_on_c, 3, 63, 0
5, 2268000, Note_on_c, 3, 62, 100
5, 2268240, Note_on_c, 3, 62, 0
5, 2268240, Note_on_c, 3, 63, 100
5, 2268480, Note_on_c, 3, 63, 0
5, 2268480, Note_on_c, 3, 64, 100
5, 2268720, Note_on_c, 3, 64, 0
5, 2268720, Note_on_c, 3, 65, 100
5, 2268960, Note_on_c, 3, 65, 0
5, 2268960, Note_on_c, 3, 66, 100
5, 2269440, Note_on_c, 3, 66, 0
5, 2269440, Note_on_c, 3, 65, 100
5, 2269560, Note_on_c, 3, 65, 0
5, 2269560, Note_on_c, 3, 66, 100
5, 2269680, Note_on_c, 3, 66, 0
5, 2269680, Note_on_c, 3, 68, 100
5, 2269800, Note_on_c, 3, 68, 0
5, 2269800, Note_on_c, 3, 62, 100
5, 2270040, Note_on_c, 3, 62, 0
5, 2270040, Note_on_c, 3, 63, 100
5, 2270100, Note_on_c, 3, 63, 0
5, 2270100, Note_on_c, 3, 65, 100
5, 2270160, Note_on_c, 3, 65, 0
5, 2270160, Note_on_c, 3, 66, 100
5, 2270220, Note_on_c, 3, 66, 0
5, 2270220, Note_on_c, 3, 63, 100
5, 2270280, Note_on_c, 3, 63, 0
5, 2270280, Note_on_c, 3, 65, 100
5, 2270520, Note_on_c, 3, 65, 0
5, 2270520, Note_on_c, 3, 59, 100
5, 2270640, Note_on_c, 3, 59, 0
5, 2270640, Note_on_c, 3, 59, 100
5, 2270760, Note_on_c, 3, 59, 0
5, 2270760, Note_on_c, 3, 58, 100
5, 2270880, Note_on_c, 3, 58, 0
5, 2270880, Note_on_c, 3, 63, 100
5, 2271120, Note_on_c, 3, 63, 0
5, 2271120, Note_on_c, 3, 63, 100
5, 2271360, Note_on_c, 3, 63, 0
5, 2271360, Note_on_c, 3, 64, 100
5, 2271600, Note_on_c, 3, 64, 0
5, 2271600, Note_on_c, 3, 64, 100
5, 2272080, Note_on_c, 3, 64, 0
5, 2272320, Note_on_c, 3, 65, 100
5, 2272560, Note_on_c, 3, 65, 0
5, 2272560, Note_on_c, 3, 65, 100
5, 2272800, Note_on_c, 3, 65, 0
5, 2272800, Note_on_c, 3, 66, 100
5, 2273040, Note_on_c, 3, 66, 0
5, 2273040, Note_on_c, 3, 66, 100
5, 2273520, Note_on_c, 3, 66, 0
5, 2273760, Note_on_c, 3, 67, 100
5, 2274000, Note_on_c, 3, 67, 0
5, 2274000, Note_on_c, 3, 67, 100
5, 2274240, Note_on_c, 3, 67, 0
5, 2274240, Note_on_c, 3, 68, 100
5, 2274480, Note_on_c, 3, 68, 0
5, 2274480, Note_on_c, 3, 68, 100
5, 2275200, Note_on_c, 3, 68, 0
5, 2275200, Note_on_c, 3, 67, 100
5, 2275320, Note_on_c, 3, 67, 0
5, 2275320, Note_on_c, 3, 65, 100
5, 2275440, Note_on_c, 3, 65, 0
5, 2275440, Note_on_c, 3, 67, 100
5, 2275800, Note_on_c, 3, 67, 0
5, 2275800, Note_on_c, 3, 69, 100
5, 2275860, Note_on_c, 3, 69, 0
5, 2275860, Note_on_c, 3, 71, 100
5, 2275920, Note_on_c, 3, 71, 0
5, 2275920, Note_on_c, 3, 72, 100
5, 2275980, Note_on_c, 3, 72, 0
5, 2275980, Note_on_c, 3, 65, 100
5, 2276040, Note_on_c, 3, 65, 0
5, 2276040, Note_on_c, 3, 68, 100
5, 2276280, Note_on_c, 3, 68, 0
5, 2276280, Note_on_c, 3, 67, 100
5, 2276400, Note_on_c, 3, 67, 0
5, 2276400, Note_on_c, 3, 65, 100
5, 2276640, Note_on_c, 3, 65, 0
5, 2276640, Note_on_c, 3, 63, 100
5, 2276880, Note_on_c, 3, 63, 0
5, 2277120, Note_on_c, 3, 67, 100
5, 2277360, Note_on_c, 3, 67, 0
5, 2277360, Note_on_c, 3, 65, 100
5, 2277600, Note_on_c, 3, 65, 0
5, 2277600, Note_on_c, 3, 63, 100
5, 2277840, Note_on_c, 3, 63, 0
5, 2277840, Note_on_c, 3, 62, 100
5, 2278320, Note_on_c, 3, 62, 0
5, 2278560, Note_on_c, 3, 65, 100
5, 2278800, Note_on_c, 3, 65, 0
5, 2278800, Note_on_c, 3, 63, 100
5, 2279040, Note_on_c, 3, 63, 0
5, 2279040, Note_on_c, 3, 61, 100
5, 2279280, Note_on_c, 3, 61, 0
5, 2279280, Note_on_c, 3, 60, 100
5, 2279760, Note_on_c, 3, 60, 0
5, 2280000, Note_on_c, 3, 63, 100
5, 2280120, Note_on_c, 3, 63, 0
5, 2280120, Note_on_c, 3, 62, 100
5, 2280240, Note_on_c, 3, 62, 0
5, 2280240, Note_on_c, 3, 60, 100
5, 2280480, Note_on_c, 3, 60, 0
5, 2280480, Note_on_c, 3, 58, 100
5, 2280720, Note_on_c, 3, 58, 0
5, 2280720, Note_on_c, 3, 57, 100
5, 2281080, Note_on_c, 3, 57, 0
5, 2281080, Note_on_c, 3, 57, 100
5, 2281200, Note_on_c, 3, 57, 0
5, 2281200, Note_on_c, 3, 62, 100
5, 2281440, Note_on_c, 3, 62, 0
5, 2281440, Note_on_c, 3, 60, 100
5, 2281680, Note_on_c, 3, 60, 0
5, 2281680, Note_on_c, 3, 58, 100
5, 2281920, Note_on_c, 3, 58, 0
5, 2281920, Note_on_c, 3, 57, 100
5, 2282160, Note_on_c, 3, 57, 0
5, 2282160, Note_on_c, 3, 50, 100
5, 2282400, Note_on_c, 3, 50, 0
5, 2282400, Note_on_c, 3, 54, 100
5, 2282640, Note_on_c, 3, 54, 0
5, 2282640, Note_on_c, 3, 54, 100
5, 2282880, Note_on_c, 3, 54, 0
5, 2282880, Note_on_c, 3, 55, 100
5, 2283120, Note_on_c, 3, 55, 0
5, 2283120, Note_on_c, 3, 55, 100
5, 2283360, Note_on_c, 3, 55, 0
5, 2283360, Note_on_c, 3, 56, 100
5, 2283600, Note_on_c, 3, 56, 0
5, 2283840, Note_on_c, 3, 55, 100
5, 2284080, Note_on_c, 3, 55, 0
5, 2284080, Note_on_c, 3, 55, 100
5, 2284320, Note_on_c, 3, 55, 0
5, 2284320, Note_on_c, 3, 57, 100
5, 2284560, Note_on_c, 3, 57, 0
5, 2284560, Note_on_c, 3, 57, 100
5, 2284800, Note_on_c, 3, 57, 0
5, 2284800, Note_on_c, 3, 58, 100
5, 2285040, Note_on_c, 3, 58, 0
5, 2285280, Note_on_c, 3, 57, 100
5, 2285520, Note_on_c, 3, 57, 0
5, 2285520, Note_on_c, 3, 57, 100
5, 2285760, Note_on_c, 3, 57, 0
5, 2285760, Note_on_c, 3, 58, 100
5, 2286000, Note_on_c, 3, 58, 0
5, 2286000, Note_on_c, 3, 58, 100
5, 2286240, Note_on_c, 3, 58, 0
5, 2286240, Note_on_c, 3, 60, 100
5, 2286720, Note_on_c, 3, 60, 0
5, 2286720, Note_on_c, 3, 58, 100
5, 2286840, Note_on_c, 3, 58, 0
5, 2286840, Note_on_c, 3, 57, 100
5, 2286960, Note_on_c, 3, 57, 0
5, 2286960, Note_on_c, 3, 58, 100
5, 2287200, Note_on_c, 3, 58, 0
5, 2287920, Note_on_c, 3, 71, 100
5, 2288400, Note_on_c, 3, 71, 0
5, 2288400, Note_on_c, 3, 71, 100
5, 2288880, Note_on_c, 3, 71, 0
5, 2289120, Note_on_c, 3, 71, 100
5, 2289360, Note_on_c, 3, 71, 0
5, 2289360, Note_on_c, 3, 69, 100
5, 2289840, Note_on_c, 3, 69, 0
5, 2289840, Note_on_c, 3, 69, 100
5, 2290320, Note_on_c, 3, 69, 0
5, 2290560, Note_on_c, 3, 74, 100
5, 2290800, Note_on_c, 3, 74, 0
5, 2290800, Note_on_c, 3, 74, 100
5, 2291280, Note_on_c, 3, 74, 0
5, 2291280, Note_on_c, 3, 74, 100
5, 2291320, Note_on_c, 3, 74, 0
5, 2291320, Note_on_c, 3, 73, 100
5, 2291360, Note_on_c, 3, 73, 0
5, 2291360, Note_on_c, 3, 74, 100
5, 2291400, Note_on_c, 3, 74, 0
5, 2291400, Note_on_c, 3, 73, 100
5, 2291760, Note_on_c, 3, 73, 0
5, 2292000, Note_on_c, 3, 67, 100
5, 2292240, Note_on_c, 3, 67, 0
5, 2292240, Note_on_c, 3, 67, 100
5, 2292600, Note_on_c, 3, 67, 0
5, 2292600, Note_on_c, 3, 64, 100
5, 2292720, Note_on_c, 3, 64, 0
5, 2292720, Note_on_c, 3, 64, 100
5, 2292780, Note_on_c, 3, 64, 0
5, 2292780, Note_on_c, 3, 66, 100
5, 2293200, Note_on_c, 3, 66, 0
5, 2293440, Note_on_c, 3, 69, 100
5, 2293680, Note_on_c, 3, 69, 0
5, 2293680, Note_on_c, 3, 62, 100
5, 2294040, Note_on_c, 3, 62, 0
5, 2294040, Note_on_c, 3, 64, 100
5, 2294160, Note_on_c, 3, 64, 0
5, 2294160, Note_on_c, 3, 65, 100
5, 2294640, Note_on_c, 3, 65, 0
5, 2294880, Note_on_c, 3, 67, 100
5, 2295120, Note_on_c, 3, 67, 0
5, 2295120, Note_on_c, 3, 67, 100
5, 2295480, Note_on_c, 3, 67, 0
5, 2295480, Note_on_c, 3, 64, 100
5, 2295600, Note_on_c, 3, 64, 0
5, 2295600, Note_on_c, 3, 62, 100
5, 2295660, Note_on_c, 3, 62, 0
5, 2295660, Note_on_c, 3, 60, 100
5, 2296080, Note_on_c, 3, 60, 0
5, 2296320, Note_on_c, 3, 64, 100
5, 2296560, Note_on_c, 3, 64, 0
5, 2296560, Note_on_c, 3, 57, 100
5, 2296920, Note_on_c, 3, 57, 0
5, 2296920, Note_on_c, 3, 59, 100
5, 2297040, Note_on_c, 3, 59, 0
5, 2297040, Note_on_c, 3, 60, 100
5, 2297520, Note_on_c, 3, 60, 0
5, 2297760, Note_on_c, 3, 62, 100
5, 2298000, Note_on_c, 3, 62, 0
5, 2298000, Note_on_c, 3, 62, 100
5, 2298360, Note_on_c, 3, 62, 0
5, 2298360, Note_on_c, 3, 59, 100
5, 2298480, Note_on_c, 3, 59, 0
5, 2298480, Note_on_c, 3, 55, 100
5, 2298960, Note_on_c, 3, 55, 0
5, 2299440, Note_on_c, 3, 71, 100
5, 2299920, Note_on_c, 3, 71, 0
5, 2299920, Note_on_c, 3, 71, 100
5, 2300400, Note_on_c, 3, 71, 0
5, 2300640, Note_on_c, 3, 79, 100
5, 2300880, Note_on_c, 3, 79, 0
5, 2300880, Note_on_c, 3, 79, 100
5, 2301240, Note_on_c, 3, 79, 0
5, 2301240, Note_on_c, 3, 76, 100
5, 2301360, Note_on_c, 3, 76, 0
5, 2301360, Note_on_c, 3, 78, 100
5, 2301420, Note_on_c, 3, 78, 0
5, 2301420, Note_on_c, 3, 76, 100
5, 2301480, Note_on_c, 3, 76, 0
5, 2301480, Note_on_c, 3, 78, 100
5, 2301840, Note_on_c, 3, 78, 0
5, 2302080, Note_on_c, 3, 72, 100
5, 2302320, Note_on_c, 3, 72, 0
5, 2302320, Note_on_c, 3, 71, 100
5, 2302680, Note_on_c, 3, 71, 0
5, 2302680, Note_on_c, 3, 75, 100
5, 2302800, Note_on_c, 3, 75, 0
5, 2302800, Note_on_c, 3, 76, 100
5, 2302860, Note_on_c, 3, 76, 0
5, 2302860, Note_on_c, 3, 75, 100
5, 2302920, Note_on_c, 3, 75, 0
5, 2302920, Note_on_c, 3, 76, 100
5, 2303280, Note_on_c, 3, 76, 0
5, 2303520, Note_on_c, 3, 76, 100
5, 2303760, Note_on_c, 3, 76, 0
5, 2303760, Note_on_c, 3, 69, 100
5, 2304120, Note_on_c, 3, 69, 0
5, 2304120, Note_on_c, 3, 73, 100
5, 2304240, Note_on_c, 3, 73, 0
5, 2304240, Note_on_c, 3, 71, 100
5, 2304300, Note_on_c, 3, 71, 0
5, 2304300, Note_on_c, 3, 69, 100
5, 2304720, Note_on_c, 3, 69, 0
5, 2304960, Note_on_c, 3, 73, 100
5, 2305200, Note_on_c, 3, 73, 0
5, 2305200, Note_on_c, 3, 73, 100
5, 2305680, Note_on_c, 3, 73, 0
5, 2305680, Note_on_c, 3, 74, 100
5, 2306160, Note_on_c, 3, 74, 0
5, 2306400, Note_on_c, 3, 74, 100
5, 2306640, Note_on_c, 3, 74, 0
5, 2306640, Note_on_c, 3, 74, 100
5, 2307120, Note_on_c, 3, 74, 0
5, 2307120, Note_on_c, 3, 74, 100
5, 2307600, Note_on_c, 3, 74, 0
5, 2307840, Note_on_c, 3, 76, 100
5, 2308080, Note_on_c, 3, 76, 0
5, 2308080, Note_on_c, 3, 69, 100
5, 2308440, Note_on_c, 3, 69, 0
5, 2308440, Note_on_c, 3, 67, 100
5, 2308500, Note_on_c, 3, 67, 0
5, 2308500, Note_on_c, 3, 66, 100
5, 2308560, Note_on_c, 3, 66, 0
5, 2308560, Note_on_c, 3, 66, 100
5, 2308620, Note_on_c, 3, 66, 0
5, 2308620, Note_on_c, 3, 64, 100
5, 2309040, Note_on_c, 3, 64, 0
5, 2309280, Note_on_c, 3, 57, 100
5, 2309520, Note_on_c, 3, 57, 0
5, 2309520, Note_on_c, 3, 62, 100
5, 2310000, Note_on_c, 3, 62, 0
5, 2310000, Note_on_c, 3, 62, 100
5, 2310480, Note_on_c, 3, 62, 0
5, 2310960, Note_on_c, 3, 71, 100
5, 2311440, Note_on_c, 3, 71, 0
5, 2311440, Note_on_c, 3, 71, 100
5, 2311920, Note_on_c, 3, 71, 0
5, 2312160, Note_on_c, 3, 71, 100
5, 2312400, Note_on_c, 3, 71, 0
5, 2312400, Note_on_c, 3, 69, 100
5, 2312880, Note_on_c, 3, 69, 0
5, 2312880, Note_on_c, 3, 69, 100
5, 2313360, Note_on_c, 3, 69, 0
5, 2313600, Note_on_c, 3, 74, 100
5, 2313840, Note_on_c, 3, 74, 0
5, 2313840, Note_on_c, 3, 74, 100
5, 2314320, Note_on_c, 3, 74, 0
5, 2314320, Note_on_c, 3, 74, 100
5, 2314360, Note_on_c, 3, 74, 0
5, 2314360, Note_on_c, 3, 73, 100
5, 2314400, Note_on_c, 3, 73, 0
5, 2314400, Note_on_c, 3, 74, 100
5, 2314440, Note_on_c, 3, 74, 0
5, 2314440, Note_on_c, 3, 73, 100
5, 2314800, Note_on_c, 3, 73, 0
5, 2315040, Note_on_c, 3, 67, 100
5, 2315280, Note_on_c, 3, 67, 0
5, 2315280, Note_on_c, 3, 67, 100
5, 2315640, Note_on_c, 3, 67, 0
5, 2315640, Note_on_c, 3, 64, 100
5, 2315760, Note_on_c, 3, 64, 0
5, 2315760, Note_on_c, 3, 64, 100
5, 2315820, Note_on_c, 3, 64, 0
5, 2315820, Note_on_c, 3, 66, 100
5, 2316240, Note_on_c, 3, 66, 0
5, 2316480, Note_on_c, 3, 69, 100
5, 2316720, Note_on_c, 3, 69, 0
5, 2316720, Note_on_c, 3, 62, 100
5, 2317080, Note_on_c, 3, 62, 0
5, 2317080, Note_on_c, 3, 64, 100
5, 2317200, Note_on_c, 3, 64, 0
5, 2317200, Note_on_c, 3, 65, 100
5, 2317680, Note_on_c, 3, 65, 0
5, 2317920, Note_on_c, 3, 67, 100
5, 2318160, Note_on_c, 3, 67, 0
5, 2318160, Note_on_c, 3, 67, 100
5, 2318520, Note_on_c, 3, 67, 0
5, 2318520, Note_on_c, 3, 64, 100
5, 2318640, Note_on_c, 3, 64, 0
5, 2318640, Note_on_c, 3, 62, 100
5, 2318700, Note_on_c, 3, 62, 0
5, 2318700, Note_on_c, 3, 60, 100
5, 2319120, Note_on_c, 3, 60, 0
5, 2319360, Note_on_c, 3, 64, 100
5, 2319600, Note_on_c, 3, 64, 0
5, 2319600, Note_on_c, 3, 57, 100
5, 2319960, Note_on_c, 3, 57, 0
5, 2319960, Note_on_c, 3, 59, 100
5, 2320080, Note_on_c, 3, 59, 0
5, 2320080, Note_on_c, 3, 60, 100
5, 2320560, Note_on_c, 3, 60, 0
5, 2320800, Note_on_c, 3, 62, 100
5, 2321040, Note_on_c, 3, 62, 0
5, 2321040, Note_on_c, 3, 62, 100
5, 2321400, Note_on_c, 3, 62, 0
5, 2321400, Note_on_c, 3, 59, 100
5, 2321520, Note_on_c, 3, 59, 0
5, 2321520, Note_on_c, 3, 55, 100
5, 2322000, Note_on_c, 3, 55, 0
5, 2322480, Note_on_c, 3, 71, 100
5, 2322960, Note_on_c, 3, 71, 0
5, 2322960, Note_on_c, 3, 71, 100
5, 2323440, Note_on_c, 3, 71, 0
5, 2323680, Note_on_c, 3, 79, 100
5, 2323920, Note_on_c, 3, 79, 0
5, 2323920, Note_on_c, 3, 79, 100
5, 2324280, Note_on_c, 3, 79, 0
5, 2324280, Note_on_c, 3, 76, 100
5, 2324400, Note_on_c, 3, 76, 0
5, 2324400, Note_on_c, 3, 78, 100
5, 2324460, Note_on_c, 3, 78, 0
5, 2324460, Note_on_c, 3, 76, 100
5, 2324520, Note_on_c, 3, 76, 0
5, 2324520, Note_on_c, 3, 78, 100
5, 2324880, Note_on_c, 3, 78, 0
5, 2325120, Note_on_c, 3, 72, 100
5, 2325360, Note_on_c, 3, 72, 0
5, 2325360, Note_on_c, 3, 71, 100
5, 2325720, Note_on_c, 3, 71, 0
5, 2325720, Note_on_c, 3, 75, 100
5, 2325840, Note_on_c, 3, 75, 0
5, 2325840, Note_on_c, 3, 76, 100
5, 2325900, Note_on_c, 3, 76, 0
5, 2325900, Note_on_c, 3, 75, 100
5, 2325960, Note_on_c, 3, 75, 0
5, 2325960, Note_on_c, 3, 76, 100
5, 2326320, Note_on_c, 3, 76, 0
5, 2326560, Note_on_c, 3, 76, 100
5, 2326800, Note_on_c, 3, 76, 0
5, 2326800, Note_on_c, 3, 69, 100
5, 2327160, Note_on_c, 3, 69, 0
5, 2327160, Note_on_c, 3, 73, 100
5, 2327280, Note_on_c, 3, 73, 0
5, 2327280, Note_on_c, 3, 71, 100
5, 2327340, Note_on_c, 3, 71, 0
5, 2327340, Note_on_c, 3, 69, 100
5, 2327760, Note_on_c, 3, 69, 0
5, 2328000, Note_on_c, 3, 73, 100
5, 2328240, Note_on_c, 3, 73, 0
5, 2328240, Note_on_c, 3, 73, 100
5, 2328720, Note_on_c, 3, 73, 0
5, 2328720, Note_on_c, 3, 74, 100
5, 2329200, Note_on_c, 3, 74, 0
5, 2329440, Note_on_c, 3, 74, 100
5, 2329680, Note_on_c, 3, 74, 0
5, 2329680, Note_on_c, 3, 74, 100
5, 2330160, Note_on_c, 3, 74, 0
5, 2330160, Note_on_c, 3, 74, 100
5, 2330640, Note_on_c, 3, 74, 0
5, 2330880, Note_on_c, 3, 76, 100
5, 2331120, Note_on_c, 3, 76, 0
5, 2331120, Note_on_c, 3, 69, 100
5, 2331480, Note_on_c, 3, 69, 0
5, 2331480, Note_on_c, 3, 67, 100
5, 2331540, Note_on_c, 3, 67, 0
5, 2331540, Note_on_c, 3, 66, 100
5, 2331600, Note_on_c, 3, 66, 0
5, 2331600, Note_on_c, 3, 66, 100
5, 2331660, Note_on_c, 3, 66, 0
5, 2331660, Note_on_c, 3, 64, 100
5, 2332080, Note_on_c, 3, 64, 0
5, 2332320, Note_on_c, 3, 57, 100
5, 2332560, Note_on_c, 3, 57, 0
5, 2332560, Note_on_c, 3, 62, 100
5, 2333040, Note_on_c, 3, 62, 0
5, 2333040, Note_on_c, 3, 62, 100
5, 2333520, Note_on_c, 3, 62, 0
5, 2334000, Note_on_c, 3, 66, 100
5, 2334360, Note_on_c, 3, 66, 0
5, 2334360, Note_on_c, 3, 64, 100
5, 2334480, Note_on_c, 3, 64, 0
5, 2334480, Note_on_c, 3, 64, 100
5, 2334540, Note_on_c, 3, 64, 0
5, 2334540, Note_on_c, 3, 66, 100
5, 2334960, Note_on_c, 3, 66, 0
5, 2335200, Note_on_c, 3, 62, 100
5, 2335440, Note_on_c, 3, 62, 0
5, 2335440, Note_on_c, 3, 67, 100
5, 2335800, Note_on_c, 3, 67, 0
5, 2335800, Note_on_c, 3, 69, 100
5, 2335920, Note_on_c, 3, 69, 0
5, 2335920, Note_on_c, 3, 69, 100
5, 2335980, Note_on_c, 3, 69, 0
5, 2335980, Note_on_c, 3, 71, 100
5, 2336400, Note_on_c, 3, 71, 0
5, 2336640, Note_on_c, 3, 79, 100
5, 2336880, Note_on_c, 3, 79, 0
5, 2336880, Note_on_c, 3, 76, 100
5, 2337240, Note_on_c, 3, 76, 0
5, 2337240, Note_on_c, 3, 83, 100
5, 2337360, Note_on_c, 3, 83, 0
5, 2337360, Note_on_c, 3, 83, 100
5, 2337420, Note_on_c, 3, 83, 0
5, 2337420, Note_on_c, 3, 81, 100
5, 2337840, Note_on_c, 3, 81, 0
5, 2338080, Note_on_c, 3, 81, 100
5, 2338320, Note_on_c, 3, 81, 0
5, 2338320, Note_on_c, 3, 81, 100
5, 2338680, Note_on_c, 3, 81, 0
5, 2338680, Note_on_c, 3, 78, 100
5, 2338800, Note_on_c, 3, 78, 0
5, 2338800, Note_on_c, 3, 76, 100
5, 2338860, Note_on_c, 3, 76, 0
5, 2338860, Note_on_c, 3, 75, 100
5, 2339280, Note_on_c, 3, 75, 0
5, 2339520, Note_on_c, 3, 78, 100
5, 2339760, Note_on_c, 3, 78, 0
5, 2339760, Note_on_c, 3, 79, 100
5, 2340120, Note_on_c, 3, 79, 0
5, 2340120, Note_on_c, 3, 78, 100
5, 2340240, Note_on_c, 3, 78, 0
5, 2340240, Note_on_c, 3, 78, 100
5, 2340300, Note_on_c, 3, 78, 0
5, 2340300, Note_on_c, 3, 76, 100
5, 2340720, Note_on_c, 3, 76, 0
5, 2340960, Note_on_c, 3, 79, 100
5, 2341200, Note_on_c, 3, 79, 0
5, 2341200, Note_on_c, 3, 79, 100
5, 2341680, Note_on_c, 3, 79, 0
5, 2341680, Note_on_c, 3, 77, 100
5, 2342160, Note_on_c, 3, 77, 0
5, 2342400, Note_on_c, 3, 81, 100
5, 2342640, Note_on_c, 3, 81, 0
5, 2342640, Note_on_c, 3, 81, 100
5, 2343000, Note_on_c, 3, 81, 0
5, 2343000, Note_on_c, 3, 78, 100
5, 2343120, Note_on_c, 3, 78, 0
5, 2343120, Note_on_c, 3, 78, 100
5, 2343180, Note_on_c, 3, 78, 0
5, 2343180, Note_on_c, 3, 75, 100
5, 2343600, Note_on_c, 3, 75, 0
5, 2343840, Note_on_c, 3, 78, 100
5, 2344080, Note_on_c, 3, 78, 0
5, 2344080, Note_on_c, 3, 78, 100
5, 2344440, Note_on_c, 3, 78, 0
5, 2344440, Note_on_c, 3, 75, 100
5, 2344560, Note_on_c, 3, 75, 0
5, 2344560, Note_on_c, 3, 76, 100
5, 2344620, Note_on_c, 3, 76, 0
5, 2344620, Note_on_c, 3, 75, 100
5, 2344680, Note_on_c, 3, 75, 0
5, 2344680, Note_on_c, 3, 76, 100
5, 2345040, Note_on_c, 3, 76, 0
5, 2345880, Note_on_c, 3, 68, 100
5, 2346000, Note_on_c, 3, 68, 0
5, 2346000, Note_on_c, 3, 69, 100
5, 2346360, Note_on_c, 3, 69, 0
5, 2346360, Note_on_c, 3, 71, 100
5, 2346480, Note_on_c, 3, 71, 0
5, 2346480, Note_on_c, 3, 72, 100
5, 2347320, Note_on_c, 3, 72, 0
5, 2347320, Note_on_c, 3, 66, 100
5, 2347440, Note_on_c, 3, 66, 0
5, 2347440, Note_on_c, 3, 67, 100
5, 2347800, Note_on_c, 3, 67, 0
5, 2347800, Note_on_c, 3, 69, 100
5, 2347920, Note_on_c, 3, 69, 0
5, 2347920, Note_on_c, 3, 71, 100
5, 2348760, Note_on_c, 3, 71, 0
5, 2348760, Note_on_c, 3, 64, 100
5, 2348880, Note_on_c, 3, 64, 0
5, 2348880, Note_on_c, 3, 66, 100
5, 2349240, Note_on_c, 3, 66, 0
5, 2349240, Note_on_c, 3, 67, 100
5, 2349360, Note_on_c, 3, 67, 0
5, 2349360, Note_on_c, 3, 69, 100
5, 2349720, Note_on_c, 3, 69, 0
5, 2349720, Note_on_c, 3, 67, 100
5, 2349840, Note_on_c, 3, 67, 0
5, 2349840, Note_on_c, 3, 66, 100
5, 2349920, Note_on_c, 3, 66, 0
5, 2349920, Note_on_c, 3, 67, 100
5, 2350000, Note_on_c, 3, 67, 0
5, 2350000, Note_on_c, 3, 66, 100
5, 2350080, Note_on_c, 3, 66, 0
5, 2350080, Note_on_c, 3, 61, 100
5, 2350160, Note_on_c, 3, 61, 0
5, 2350160, Note_on_c, 3, 62, 100
5, 2350240, Note_on_c, 3, 62, 0
5, 2350240, Note_on_c, 3, 64, 100
5, 2350320, Note_on_c, 3, 64, 0
5, 2350320, Note_on_c, 3, 66, 100
5, 2350400, Note_on_c, 3, 66, 0
5, 2350400, Note_on_c, 3, 64, 100
5, 2350480, Note_on_c, 3, 64, 0
5, 2350480, Note_on_c, 3, 66, 100
5, 2350560, Note_on_c, 3, 66, 0
5, 2350560, Note_on_c, 3, 67, 100
5, 2350640, Note_on_c, 3, 67, 0
5, 2350640, Note_on_c, 3, 66, 100
5, 2350720, Note_on_c, 3, 66, 0
5, 2350720, Note_on_c, 3, 67, 100
5, 2350800, Note_on_c, 3, 67, 0
5, 2350800, Note_on_c, 3, 69, 100
5, 2350880, Note_on_c, 3, 69, 0
5, 2350880, Note_on_c, 3, 67, 100
5, 2350960, Note_on_c, 3, 67, 0
5, 2350960, Note_on_c, 3, 69, 100
5, 2351040, Note_on_c, 3, 69, 0
5, 2351040, Note_on_c, 3, 71, 100
5, 2351120, Note_on_c, 3, 71, 0
5, 2351120, Note_on_c, 3, 67, 100
5, 2351200, Note_on_c, 3, 67, 0
5, 2351200, Note_on_c, 3, 69, 100
5, 2351280, Note_on_c, 3, 69, 0
5, 2351280, Note_on_c, 3, 71, 100
5, 2351360, Note_on_c, 3, 71, 0
5, 2351360, Note_on_c, 3, 72, 100
5, 2351440, Note_on_c, 3, 72, 0
5, 2351440, Note_on_c, 3, 71, 100
5, 2351520, Note_on_c, 3, 71, 0
5, 2351520, Note_on_c, 3, 66, 100
5, 2351600, Note_on_c, 3, 66, 0
5, 2351600, Note_on_c, 3, 67, 100
5, 2351680, Note_on_c, 3, 67, 0
5, 2351680, Note_on_c, 3, 69, 100
5, 2351760, Note_on_c, 3, 69, 0
5, 2351760, Note_on_c, 3, 71, 100
5, 2351840, Note_on_c, 3, 71, 0
5, 2351840, Note_on_c, 3, 69, 100
5, 2351920, Note_on_c, 3, 69, 0
5, 2351920, Note_on_c, 3, 71, 100
5, 2352000, Note_on_c, 3, 71, 0
5, 2352000, Note_on_c, 3, 72, 100
5, 2352080, Note_on_c, 3, 72, 0
5, 2352080, Note_on_c, 3, 71, 100
5, 2352160, Note_on_c, 3, 71, 0
5, 2352160, Note_on_c, 3, 72, 100
5, 2352240, Note_on_c, 3, 72, 0
5, 2352240, Note_on_c, 3, 74, 100
5, 2352320, Note_on_c, 3, 74, 0
5, 2352320, Note_on_c, 3, 72, 100
5, 2352400, Note_on_c, 3, 72, 0
5, 2352400, Note_on_c, 3, 74, 100
5, 2352480, Note_on_c, 3, 74, 0
5, 2352480, Note_on_c, 3, 76, 100
5, 2352560, Note_on_c, 3, 76, 0
5, 2352560, Note_on_c, 3, 72, 100
5, 2352640, Note_on_c, 3, 72, 0
5, 2352640, Note_on_c, 3, 74, 100
5, 2352720, Note_on_c, 3, 74, 0
5, 2352720, Note_on_c, 3, 76, 100
5, 2352800, Note_on_c, 3, 76, 0
5, 2352800, Note_on_c, 3, 77, 100
5, 2352880, Note_on_c, 3, 77, 0
5, 2352880, Note_on_c, 3, 76, 100
5, 2352960, Note_on_c, 3, 76, 0
5, 2352960, Note_on_c, 3, 71, 100
5, 2353040, Note_on_c, 3, 71, 0
5, 2353040, Note_on_c, 3, 72, 100
5, 2353120, Note_on_c, 3, 72, 0
5, 2353120, Note_on_c, 3, 74, 100
5, 2353200, Note_on_c, 3, 74, 0
5, 2353200, Note_on_c, 3, 76, 100
5, 2353280, Note_on_c, 3, 76, 0
5, 2353280, Note_on_c, 3, 74, 100
5, 2353360, Note_on_c, 3, 74, 0
5, 2353360, Note_on_c, 3, 76, 100
5, 2353440, Note_on_c, 3, 76, 0
5, 2353440, Note_on_c, 3, 78, 100
5, 2353520, Note_on_c, 3, 78, 0
5, 2353520, Note_on_c, 3, 76, 100
5, 2353600, Note_on_c, 3, 76, 0
5, 2353600, Note_on_c, 3, 78, 100
5, 2353680, Note_on_c, 3, 78, 0
5, 2353680, Note_on_c, 3, 79, 100
5, 2353760, Note_on_c, 3, 79, 0
5, 2353760, Note_on_c, 3, 78, 100
5, 2353840, Note_on_c, 3, 78, 0
5, 2353840, Note_on_c, 3, 79, 100
5, 2353920, Note_on_c, 3, 79, 0
5, 2353920, Note_on_c, 3, 81, 100
5, 2354000, Note_on_c, 3, 81, 0
5, 2354000, Note_on_c, 3, 78, 100
5, 2354080, Note_on_c, 3, 78, 0
5, 2354080, Note_on_c, 3, 79, 100
5, 2354160, Note_on_c, 3, 79, 0
5, 2354160, Note_on_c, 3, 81, 100
5, 2354240, Note_on_c, 3, 81, 0
5, 2354240, Note_on_c, 3, 83, 100
5, 2354320, Note_on_c, 3, 83, 0
5, 2354320, Note_on_c, 3, 81, 100
5, 2354400, Note_on_c, 3, 81, 0
5, 2354400, Note_on_c, 3, 78, 100
5, 2354480, Note_on_c, 3, 78, 0
5, 2354480, Note_on_c, 3, 79, 100
5, 2354560, Note_on_c, 3, 79, 0
5, 2354560, Note_on_c, 3, 81, 100
5, 2354640, Note_on_c, 3, 81, 0
5, 2354640, Note_on_c, 3, 83, 100
5, 2354720, Note_on_c, 3, 83, 0
5, 2354720, Note_on_c, 3, 81, 100
5, 2354800, Note_on_c, 3, 81, 0
5, 2354800, Note_on_c, 3, 83, 100
5, 2354880, Note_on_c, 3, 83, 0
5, 2354880, Note_on_c, 3, 86, 100
5, 2354960, Note_on_c, 3, 86, 0
5, 2354960, Note_on_c, 3, 84, 100
5, 2355040, Note_on_c, 3, 84, 0
5, 2355040, Note_on_c, 3, 83, 100
5, 2355120, Note_on_c, 3, 83, 0
5, 2355120, Note_on_c, 3, 81, 100
5, 2355200, Note_on_c, 3, 81, 0
5, 2355200, Note_on_c, 3, 79, 100
5, 2355280, Note_on_c, 3, 79, 0
5, 2355280, Note_on_c, 3, 78, 100
5, 2355360, Note_on_c, 3, 78, 0
5, 2355360, Note_on_c, 3, 76, 100
5, 2355440, Note_on_c, 3, 76, 0
5, 2355440, Note_on_c, 3, 74, 100
5, 2355520, Note_on_c, 3, 74, 0
5, 2355520, Note_on_c, 3, 72, 100
5, 2355600, Note_on_c, 3, 72, 0
5, 2355600, Note_on_c, 3, 71, 100
5, 2355680, Note_on_c, 3, 71, 0
5, 2355680, Note_on_c, 3, 69, 100
5, 2355760, Note_on_c, 3, 69, 0
5, 2355760, Note_on_c, 3, 67, 100
5, 2355840, Note_on_c, 3, 67, 0
5, 2355840, Note_on_c, 3, 66, 100
5, 2355920, Note_on_c, 3, 66, 0
5, 2355920, Note_on_c, 3, 67, 100
5, 2356000, Note_on_c, 3, 67, 0
5, 2356000, Note_on_c, 3, 62, 100
5, 2356080, Note_on_c, 3, 62, 0
5, 2356080, Note_on_c, 3, 59, 100
5, 2356320, Note_on_c, 3, 59, 0
5, 2357040, Note_on_c, 3, 66, 100
5, 2357400, Note_on_c, 3, 66, 0
5, 2357400, Note_on_c, 3, 64, 100
5, 2357520, Note_on_c, 3, 64, 0
5, 2357520, Note_on_c, 3, 64, 100
5, 2357580, Note_on_c, 3, 64, 0
5, 2357580, Note_on_c, 3, 66, 100
5, 2358000, Note_on_c, 3, 66, 0
5, 2358240, Note_on_c, 3, 62, 100
5, 2358480, Note_on_c, 3, 62, 0
5, 2358480, Note_on_c, 3, 67, 100
5, 2358840, Note_on_c, 3, 67, 0
5, 2358840, Note_on_c, 3, 69, 100
5, 2358960, Note_on_c, 3, 69, 0
5, 2358960, Note_on_c, 3, 69, 100
5, 2359020, Note_on_c, 3, 69, 0
5, 2359020, Note_on_c, 3, 71, 100
5, 2359440, Note_on_c, 3, 71, 0
5, 2359680, Note_on_c, 3, 79, 100
5, 2359920, Note_on_c, 3, 79, 0
5, 2359920, Note_on_c, 3, 76, 100
5, 2360280, Note_on_c, 3, 76, 0
5, 2360280, Note_on_c, 3, 83, 100
5, 2360400, Note_on_c, 3, 83, 0
5, 2360400, Note_on_c, 3, 83, 100
5, 2360460, Note_on_c, 3, 83, 0
5, 2360460, Note_on_c, 3, 81, 100
5, 2360880, Note_on_c, 3, 81, 0
5, 2361120, Note_on_c, 3, 81, 100
5, 2361360, Note_on_c, 3, 81, 0
5, 2361360, Note_on_c, 3, 81, 100
5, 2361720, Note_on_c, 3, 81, 0
5, 2361720, Note_on_c, 3, 78, 100
5, 2361840, Note_on_c, 3, 78, 0
5, 2361840, Note_on_c, 3, 76, 100
5, 2361900, Note_on_c, 3, 76, 0
5, 2361900, Note_on_c, 3, 75, 100
5, 2362320, Note_on_c, 3, 75, 0
5, 2362560, Note_on_c, 3, 78, 100
5, 2362800, Note_on_c, 3, 78, 0
5, 2362800, Note_on_c, 3, 79, 100
5, 2363160, Note_on_c, 3, 79, 0
5, 2363160, Note_on_c, 3, 78, 100
5, 2363280, Note_on_c, 3, 78, 0
5, 2363280, Note_on_c, 3, 78, 100
5, 2363340, Note_on_c, 3, 78, 0
5, 2363340, Note_on_c, 3, 76, 100
5, 2363760, Note_on_c, 3, 76, 0
5, 2364000, Note_on_c, 3, 79, 100
5, 2364240, Note_on_c, 3, 79, 0
5, 2364240, Note_on_c, 3, 79, 100
5, 2364720, Note_on_c, 3, 79, 0
5, 2364720, Note_on_c, 3, 77, 100
5, 2365200, Note_on_c, 3, 77, 0
5, 2365440, Note_on_c, 3, 81, 100
5, 2365680, Note_on_c, 3, 81, 0
5, 2365680, Note_on_c, 3, 81, 100
5, 2366040, Note_on_c, 3, 81, 0
5, 2366040, Note_on_c, 3, 78, 100
5, 2366160, Note_on_c, 3, 78, 0
5, 2366160, Note_on_c, 3, 78, 100
5, 2366220, Note_on_c, 3, 78, 0
5, 2366220, Note_on_c, 3, 75, 100
5, 2366640, Note_on_c, 3, 75, 0
5, 2366880, Note_on_c, 3, 78, 100
5, 2367120, Note_on_c, 3, 78, 0
5, 2367120, Note_on_c, 3, 78, 100
5, 2367480, Note_on_c, 3, 78, 0
5, 2367480, Note_on_c, 3, 75, 100
5, 2367600, Note_on_c, 3, 75, 0
5, 2367600, Note_on_c, 3, 76, 100
5, 2367660, Note_on_c, 3, 76, 0
5, 2367660, Note_on_c, 3, 75, 100
5, 2367720, Note_on_c, 3, 75, 0
5, 2367720, Note_on_c, 3, 76, 100
5, 2368080, Note_on_c, 3, 76, 0
5, 2368920, Note_on_c, 3, 68, 100
5, 2369040, Note_on_c, 3, 68, 0
5, 2369040, Note_on_c, 3, 69, 100
5, 2369400, Note_on_c, 3, 69, 0
5, 2369400, Note_on_c, 3, 71, 100
5, 2369520, Note_on_c, 3, 71, 0
5, 2369520, Note_on_c, 3, 72, 100
5, 2370360, Note_on_c, 3, 72, 0
5, 2370360, Note_on_c, 3, 66, 100
5, 2370480, Note_on_c, 3, 66, 0
5, 2370480, Note_on_c, 3, 67, 100
5, 2370840, Note_on_c, 3, 67, 0
5, 2370840, Note_on_c, 3, 69, 100
5, 2370960, Note_on_c, 3, 69, 0
5, 2370960, Note_on_c, 3, 71, 100
5, 2371800, Note_on_c, 3, 71, 0
5, 2371800, Note_on_c, 3, 64, 100
5, 2371920, Note_on_c, 3, 64, 0
5, 2371920, Note_on_c, 3, 66, 100
5, 2372280, Note_on_c, 3, 66, 0
5, 2372280, Note_on_c, 3, 67, 100
5, 2372400, Note_on_c, 3, 67, 0
5, 2372400, Note_on_c, 3, 69, 100
5, 2372760, Note_on_c, 3, 69, 0
5, 2372760, Note_on_c, 3, 67, 100
5, 2372880, Note_on_c, 3, 67, 0
5, 2372880, Note_on_c, 3, 66, 100
5, 2372960, Note_on_c, 3, 66, 0
5, 2372960, Note_on_c, 3, 67, 100
5, 2373040, Note_on_c, 3, 67, 0
5, 2373040, Note_on_c, 3, 66, 100
5, 2373120, Note_on_c, 3, 66, 0
5, 2373120, Note_on_c, 3, 61, 100
5, 2373200, Note_on_c, 3, 61, 0
5, 2373200, Note_on_c, 3, 62, 100
5, 2373280, Note_on_c, 3, 62, 0
5, 2373280, Note_on_c, 3, 64, 100
5, 2373360, Note_on_c, 3, 64, 0
5, 2373360, Note_on_c, 3, 66, 100
5, 2373440, Note_on_c, 3, 66, 0
5, 2373440, Note_on_c, 3, 64, 100
5, 2373520, Note_on_c, 3, 64, 0
5, 2373520, Note_on_c, 3, 66, 100
5, 2373600, Note_on_c, 3, 66, 0
5, 2373600, Note_on_c, 3, 67, 100
5, 2373680, Note_on_c, 3, 67, 0
5, 2373680, Note_on_c, 3, 66, 100
5, 2373760, Note_on_c, 3, 66, 0
5, 2373760, Note_on_c, 3, 67, 100
5, 2373840, Note_on_c, 3, 67, 0
5, 2373840, Note_on_c, 3, 69, 100
5, 2373920, Note_on_c, 3, 69, 0
5, 2373920, Note_on_c, 3, 67, 100
5, 2374000, Note_on_c, 3, 67, 0
5, 2374000, Note_on_c, 3, 69, 100
5, 2374080, Note_on_c, 3, 69, 0
5, 2374080, Note_on_c, 3, 71, 100
5, 2374160, Note_on_c, 3, 71, 0
5, 2374160, Note_on_c, 3, 67, 100
5, 2374240, Note_on_c, 3, 67, 0
5, 2374240, Note_on_c, 3, 69, 100
5, 2374320, Note_on_c, 3, 69, 0
5, 2374320, Note_on_c, 3, 71, 100
5, 2374400, Note_on_c, 3, 71, 0
5, 2374400, Note_on_c, 3, 72, 100
5, 2374480, Note_on_c, 3, 72, 0
5, 2374480, Note_on_c, 3, 71, 100
5, 2374560, Note_on_c, 3, 71, 0
5, 2374560, Note_on_c, 3, 66, 100
5, 2374640, Note_on_c, 3, 66, 0
5, 2374640, Note_on_c, 3, 67, 100
5, 2374720, Note_on_c, 3, 67, 0
5, 2374720, Note_on_c, 3, 69, 100
5, 2374800, Note_on_c, 3, 69, 0
5, 2374800, Note_on_c, 3, 71, 100
5, 2374880, Note_on_c, 3, 71, 0
5, 2374880, Note_on_c, 3, 69, 100
5, 2374960, Note_on_c, 3, 69, 0
5, 2374960, Note_on_c, 3, 71, 100
5, 2375040, Note_on_c, 3, 71, 0
5, 2375040, Note_on_c, 3, 72, 100
5, 2375120, Note_on_c, 3, 72, 0
5, 2375120, Note_on_c, 3, 71, 100
5, 2375200, Note_on_c, 3, 71, 0
5, 2375200, Note_on_c, 3, 72, 100
5, 2375280, Note_on_c, 3, 72, 0
5, 2375280, Note_on_c, 3, 74, 100
5, 2375360, Note_on_c, 3, 74, 0
5, 2375360, Note_on_c, 3, 72, 100
5, 2375440, Note_on_c, 3, 72, 0
5, 2375440, Note_on_c, 3, 74, 100
5, 2375520, Note_on_c, 3, 74, 0
5, 2375520, Note_on_c, 3, 76, 100
5, 2375600, Note_on_c, 3, 76, 0
5, 2375600, Note_on_c, 3, 72, 100
5, 2375680, Note_on_c, 3, 72, 0
5, 2375680, Note_on_c, 3, 74, 100
5, 2375760, Note_on_c, 3, 74, 0
5, 2375760, Note_on_c, 3, 76, 100
5, 2375840, Note_on_c, 3, 76, 0
5, 2375840, Note_on_c, 3, 77, 100
5, 2375920, Note_on_c, 3, 77, 0
5, 2375920, Note_on_c, 3, 76, 100
5, 2376000, Note_on_c, 3, 76, 0
5, 2376000, Note_on_c, 3, 71, 100
5, 2376080, Note_on_c, 3, 71, 0
5, 2376080, Note_on_c, 3, 72, 100
5, 2376160, Note_on_c, 3, 72, 0
5, 2376160, Note_on_c, 3, 74, 100
5, 2376240, Note_on_c, 3, 74, 0
5, 2376240, Note_on_c, 3, 76, 100
5, 2376320, Note_on_c, 3, 76, 0
5, 2376320, Note_on_c, 3, 74, 100
5, 2376400, Note_on_c, 3, 74, 0
5, 2376400, Note_on_c, 3, 76, 100
5, 2376480, Note_on_c, 3, 76, 0
5, 2376480, Note_on_c, 3, 78, 100
5, 2376560, Note_on_c, 3, 78, 0
5, 2376560, Note_on_c, 3, 76, 100
5, 2376640, Note_on_c, 3, 76, 0
5, 2376640, Note_on_c, 3, 78, 100
5, 2376720, Note_on_c, 3, 78, 0
5, 2376720, Note_on_c, 3, 79, 100
5, 2376800, Note_on_c, 3, 79, 0
5, 2376800, Note_on_c, 3, 78, 100
5, 2376880, Note_on_c, 3, 78, 0
5, 2376880, Note_on_c, 3, 79, 100
5, 2376960, Note_on_c, 3, 79, 0
5, 2376960, Note_on_c, 3, 81, 100
5, 2377040, Note_on_c, 3, 81, 0
5, 2377040, Note_on_c, 3, 78, 100
5, 2377120, Note_on_c, 3, 78, 0
5, 2377120, Note_on_c, 3, 79, 100
5, 2377200, Note_on_c, 3, 79, 0
5, 2377200, Note_on_c, 3, 81, 100
5, 2377280, Note_on_c, 3, 81, 0
5, 2377280, Note_on_c, 3, 83, 100
5, 2377360, Note_on_c, 3, 83, 0
5, 2377360, Note_on_c, 3, 81, 100
5, 2377440, Note_on_c, 3, 81, 0
5, 2377440, Note_on_c, 3, 78, 100
5, 2377520, Note_on_c, 3, 78, 0
5, 2377520, Note_on_c, 3, 79, 100
5, 2377600, Note_on_c, 3, 79, 0
5, 2377600, Note_on_c, 3, 81, 100
5, 2377680, Note_on_c, 3, 81, 0
5, 2377680, Note_on_c, 3, 83, 100
5, 2377760, Note_on_c, 3, 83, 0
5, 2377760, Note_on_c, 3, 81, 100
5, 2377840, Note_on_c, 3, 81, 0
5, 2377840, Note_on_c, 3, 83, 100
5, 2377920, Note_on_c, 3, 83, 0
5, 2377920, Note_on_c, 3, 86, 100
5, 2378000, Note_on_c, 3, 86, 0
5, 2378000, Note_on_c, 3, 84, 100
5, 2378080, Note_on_c, 3, 84, 0
5, 2378080, Note_on_c, 3, 83, 100
5, 2378160, Note_on_c, 3, 83, 0
5, 2378160, Note_on_c, 3, 81, 100
5, 2378240, Note_on_c, 3, 81, 0
5, 2378240, Note_on_c, 3, 79, 100
5, 2378320, Note_on_c, 3, 79, 0
5, 2378320, Note_on_c, 3, 78, 100
5, 2378400, Note_on_c, 3, 78, 0
5, 2378400, Note_on_c, 3, 76, 100
5, 2378480, Note_on_c, 3, 76, 0
5, 2378480, Note_on_c, 3, 74, 100
5, 2378560, Note_on_c, 3, 74, 0
5, 2378560, Note_on_c, 3, 72, 100
5, 2378640, Note_on_c, 3, 72, 0
5, 2378640, Note_on_c, 3, 71, 100
5, 2378720, Note_on_c, 3, 71, 0
5, 2378720, Note_on_c, 3, 69, 100
5, 2378800, Note_on_c, 3, 69, 0
5, 2378800, Note_on_c, 3, 67, 100
5, 2378880, Note_on_c, 3, 67, 0
5, 2378880, Note_on_c, 3, 66, 100
5, 2378960, Note_on_c, 3, 66, 0
5, 2378960, Note_on_c, 3, 67, 100
5, 2379040, Note_on_c, 3, 67, 0
5, 2379040, Note_on_c, 3, 62, 100
5, 2379120, Note_on_c, 3, 62, 0
5, 2379120, Note_on_c, 3, 59, 100
5, 2379360, Note_on_c, 3, 59, 0
5, 2864280, Note_on_c, 3, 64, 100
5, 2864400, Note_on_c, 3, 64, 0
5, 2864400, Note_on_c, 3, 62, 100
5, 2864520, Note_on_c, 3, 62, 0
5, 2864520, Note_on_c, 3, 60, 100
5, 2864640, Note_on_c, 3, 60, 0
5, 2864640, Note_on_c, 3, 59, 100
5, 2864880, Note_on_c, 3, 59, 0
5, 2864880, Note_on_c, 3, 58, 100
5, 2865120, Note_on_c, 3, 58, 0
5, 2865120, Note_on_c, 3, 57, 100
5, 2865360, Note_on_c, 3, 57, 0
5, 2865360, Note_on_c, 3, 62, 100
5, 2865600, Note_on_c, 3, 62, 0
5, 2865600, Note_on_c, 3, 61, 100
5, 2865840, Note_on_c, 3, 61, 0
5, 2865840, Note_on_c, 3, 60, 100
5, 2866080, Note_on_c, 3, 60, 0
5, 2866080, Note_on_c, 3, 59, 100
5, 2866560, Note_on_c, 3, 59, 0
5, 2866680, Note_on_c, 3, 62, 100
5, 2866800, Note_on_c, 3, 62, 0
5, 2866800, Note_on_c, 3, 64, 100
5, 2866920, Note_on_c, 3, 64, 0
5, 2866920, Note_on_c, 3, 65, 100
5, 2867040, Note_on_c, 3, 65, 0
5, 2867040, Note_on_c, 3, 64, 100
5, 2867160, Note_on_c, 3, 64, 0
5, 2867160, Note_on_c, 3, 60, 100
5, 2867280, Note_on_c, 3, 60, 0
5, 2867280, Note_on_c, 3, 57, 100
5, 2867640, Note_on_c, 3, 57, 0
5, 2867640, Note_on_c, 3, 59, 100
5, 2867700, Note_on_c, 3, 59, 0
5, 2867700, Note_on_c, 3, 60, 100
5, 2867760, Note_on_c, 3, 60, 0
5, 2867760, Note_on_c, 3, 59, 100
5, 2867880, Note_on_c, 3, 59, 0
5, 2867880, Note_on_c, 3, 57, 100
5, 2868000, Note_on_c, 3, 57, 0
5, 2868000, Note_on_c, 3, 55, 100
5, 2868120, Note_on_c, 3, 55, 0
5, 2868120, Note_on_c, 3, 64, 100
5, 2868240, Note_on_c, 3, 64, 0
5, 2868240, Note_on_c, 3, 62, 100
5, 2868360, Note_on_c, 3, 62, 0
5, 2868360, Note_on_c, 3, 60, 100
5, 2868480, Note_on_c, 3, 60, 0
5, 2868480, Note_on_c, 3, 59, 100
5, 2868720, Note_on_c, 3, 59, 0
5, 2868720, Note_on_c, 3, 58, 100
5, 2868960, Note_on_c, 3, 58, 0
5, 2868960, Note_on_c, 3, 57, 100
5, 2869200, Note_on_c, 3, 57, 0
5, 2869200, Note_on_c, 3, 62, 100
5, 2869440, Note_on_c, 3, 62, 0
5, 2869440, Note_on_c, 3, 61, 100
5, 2869680, Note_on_c, 3, 61, 0
5, 2869680, Note_on_c, 3, 60, 100
5, 2869920, Note_on_c, 3, 60, 0
5, 2869920, Note_on_c, 3, 59, 100
5, 2870400, Note_on_c, 3, 59, 0
5, 2870520, Note_on_c, 3, 62, 100
5, 2870640, Note_on_c, 3, 62, 0
5, 2870640, Note_on_c, 3, 64, 100
5, 2870760, Note_on_c, 3, 64, 0
5, 2870760, Note_on_c, 3, 65, 100
5, 2870880, Note_on_c, 3, 65, 0
5, 2870880, Note_on_c, 3, 64, 100
5, 2871000, Note_on_c, 3, 64, 0
5, 2871000, Note_on_c, 3, 60, 100
5, 2871120, Note_on_c, 3, 60, 0
5, 2871120, Note_on_c, 3, 57, 100
5, 2871480, Note_on_c, 3, 57, 0
5, 2871480, Note_on_c, 3, 59, 100
5, 2871540, Note_on_c, 3, 59, 0
5, 2871540, Note_on_c, 3, 60, 100
5, 2871600, Note_on_c, 3, 60, 0
5, 2871600, Note_on_c, 3, 59, 100
5, 2871720, Note_on_c, 3, 59, 0
5, 2871720, Note_on_c, 3, 57, 100
5, 2871840, Note_on_c, 3, 57, 0
5, 2871840, Note_on_c, 3, 55, 100
5, 2871960, Note_on_c, 3, 55, 0
5, 2871960, Note_on_c, 3, 64, 100
5, 2872080, Note_on_c, 3, 64, 0
5, 2872080, Note_on_c, 3, 62, 100
5, 2872200, Note_on_c, 3, 62, 0
5, 2872200, Note_on_c, 3, 60, 100
5, 2872320, Note_on_c, 3, 60, 0
5, 2872320, Note_on_c, 3, 59, 100
5, 2872560, Note_on_c, 3, 59, 0
5, 2872560, Note_on_c, 3, 58, 100
5, 2872800, Note_on_c, 3, 58, 0
5, 2872800, Note_on_c, 3, 57, 100
5, 2873040, Note_on_c, 3, 57, 0
5, 2873040, Note_on_c, 3, 62, 100
5, 2873280, Note_on_c, 3, 62, 0
5, 2873280, Note_on_c, 3, 61, 100
5, 2873520, Note_on_c, 3, 61, 0
5, 2873520, Note_on_c, 3, 60, 100
5, 2873760, Note_on_c, 3, 60, 0
5, 2873760, Note_on_c, 3, 59, 100
5, 2874240, Note_on_c, 3, 59, 0
5, 2874360, Note_on_c, 3, 62, 100
5, 2874480, Note_on_c, 3, 62, 0
5, 2874480, Note_on_c, 3, 64, 100
5, 2874600, Note_on_c, 3, 64, 0
5, 2874600, Note_on_c, 3, 65, 100
5, 2874720, Note_on_c, 3, 65, 0
5, 2874720, Note_on_c, 3, 64, 100
5, 2874840, Note_on_c, 3, 64, 0
5, 2874840, Note_on_c, 3, 60, 100
5, 2874960, Note_on_c, 3, 60, 0
5, 2874960, Note_on_c, 3, 57, 100
5, 2875320, Note_on_c, 3, 57, 0
5, 2875320, Note_on_c, 3, 59, 100
5, 2875380, Note_on_c, 3, 59, 0
5, 2875380, Note_on_c, 3, 60, 100
5, 2875440, Note_on_c, 3, 60, 0
5, 2875440, Note_on_c, 3, 59, 100
5, 2875560, Note_on_c, 3, 59, 0
5, 2875560, Note_on_c, 3, 57, 100
5, 2875680, Note_on_c, 3, 57, 0
5, 2875680, Note_on_c, 3, 55, 100
5, 2876640, Note_on_c, 3, 55, 0
5, 2876760, Note_on_c, 3, 62, 100
5, 2876880, Note_on_c, 3, 62, 0
5, 2876880, Note_on_c, 3, 64, 100
5, 2877000, Note_on_c, 3, 64, 0
5, 2877000, Note_on_c, 3, 66, 100
5, 2877120, Note_on_c, 3, 66, 0
5, 2877120, Note_on_c, 3, 67, 100
5, 2877240, Note_on_c, 3, 67, 0
5, 2877240, Note_on_c, 3, 71, 100
5, 2877360, Note_on_c, 3, 71, 0
5, 2877360, Note_on_c, 3, 69, 100
5, 2877480, Note_on_c, 3, 69, 0
5, 2877480, Note_on_c, 3, 67, 100
5, 2877600, Note_on_c, 3, 67, 0
5, 2877600, Note_on_c, 3, 74, 100
5, 2878200, Note_on_c, 3, 74, 0
5, 2878200, Note_on_c, 3, 76, 100
5, 2878320, Note_on_c, 3, 76, 0
5, 2878320, Note_on_c, 3, 74, 100
5, 2878440, Note_on_c, 3, 74, 0
5, 2878440, Note_on_c, 3, 73, 100
5, 2878560, Note_on_c, 3, 73, 0
5, 2878560, Note_on_c, 3, 74, 100
5, 2879160, Note_on_c, 3, 74, 0
5, 2879160, Note_on_c, 3, 59, 100
5, 2879280, Note_on_c, 3, 59, 0
5, 2879280, Note_on_c, 3, 60, 100
5, 2879400, Note_on_c, 3, 60, 0
5, 2879400, Note_on_c, 3, 62, 100
5, 2879520, Note_on_c, 3, 62, 0
5, 2879520, Note_on_c, 3, 64, 100
5, 2879640, Note_on_c, 3, 64, 0
5, 2879640, Note_on_c, 3, 67, 100
5, 2879760, Note_on_c, 3, 67, 0
5, 2879760, Note_on_c, 3, 66, 100
5, 2879880, Note_on_c, 3, 66, 0
5, 2879880, Note_on_c, 3, 64, 100
5, 2880000, Note_on_c, 3, 64, 0
5, 2880000, Note_on_c, 3, 71, 100
5, 2880240, Note_on_c, 3, 71, 0
5, 2880240, Note_on_c, 3, 69, 100
5, 2880480, Note_on_c, 3, 69, 0
5, 2880480, Note_on_c, 3, 67, 100
5, 2880600, Note_on_c, 3, 67, 0
5, 2880600, Note_on_c, 3, 62, 100
5, 2880720, Note_on_c, 3, 62, 0
5, 2880720, Note_on_c, 3, 64, 100
5, 2880840, Note_on_c, 3, 64, 0
5, 2880840, Note_on_c, 3, 66, 100
5, 2880960, Note_on_c, 3, 66, 0
5, 2880960, Note_on_c, 3, 67, 100
5, 2881080, Note_on_c, 3, 67, 0
5, 2881080, Note_on_c, 3, 71, 100
5, 2881200, Note_on_c, 3, 71, 0
5, 2881200, Note_on_c, 3, 69, 100
5, 2881320, Note_on_c, 3, 69, 0
5, 2881320, Note_on_c, 3, 67, 100
5, 2881440, Note_on_c, 3, 67, 0
5, 2881440, Note_on_c, 3, 74, 100
5, 2882040, Note_on_c, 3, 74, 0
5, 2882040, Note_on_c, 3, 76, 100
5, 2882160, Note_on_c, 3, 76, 0
5, 2882160, Note_on_c, 3, 74, 100
5, 2882280, Note_on_c, 3, 74, 0
5, 2882280, Note_on_c, 3, 73, 100
5, 2882400, Note_on_c, 3, 73, 0
5, 2882400, Note_on_c, 3, 74, 100
5, 2883000, Note_on_c, 3, 74, 0
5, 2883000, Note_on_c, 3, 59, 100
5, 2883120, Note_on_c, 3, 59, 0
5, 2883120, Note_on_c, 3, 60, 100
5, 2883240, Note_on_c, 3, 60, 0
5, 2883240, Note_on_c, 3, 62, 100
5, 2883360, Note_on_c, 3, 62, 0
5, 2883360, Note_on_c, 3, 64, 100
5, 2883480, Note_on_c, 3, 64, 0
5, 2883480, Note_on_c, 3, 67, 100
5, 2883600, Note_on_c, 3, 67, 0
5, 2883600, Note_on_c, 3, 66, 100
5, 2883720, Note_on_c, 3, 66, 0
5, 2883720, Note_on_c, 3, 64, 100
5, 2883840, Note_on_c, 3, 64, 0
5, 2883840, Note_on_c, 3, 71, 100
5, 2884080, Note_on_c, 3, 71, 0
5, 2884080, Note_on_c, 3, 69, 100
5, 2884320, Note_on_c, 3, 69, 0
5, 2884320, Note_on_c, 3, 67, 100
5, 2884440, Note_on_c, 3, 67, 0
5, 2884440, Note_on_c, 3, 62, 100
5, 2884560, Note_on_c, 3, 62, 0
5, 2884560, Note_on_c, 3, 64, 100
5, 2884680, Note_on_c, 3, 64, 0
5, 2884680, Note_on_c, 3, 66, 100
5, 2884800, Note_on_c, 3, 66, 0
5, 2884800, Note_on_c, 3, 67, 100
5, 2884920, Note_on_c, 3, 67, 0
5, 2884920, Note_on_c, 3, 71, 100
5, 2885040, Note_on_c, 3, 71, 0
5, 2885040, Note_on_c, 3, 69, 100
5, 2885160, Note_on_c, 3, 69, 0
5, 2885160, Note_on_c, 3, 67, 100
5, 2885280, Note_on_c, 3, 67, 0
5, 2885280, Note_on_c, 3, 62, 100
5, 2885400, Note_on_c, 3, 62, 0
5, 2885400, Note_on_c, 3, 59, 100
5, 2885520, Note_on_c, 3, 59, 0
5, 2885520, Note_on_c, 3, 60, 100
5, 2885640, Note_on_c, 3, 60, 0
5, 2885640, Note_on_c, 3, 62, 100
5, 2885760, Note_on_c, 3, 62, 0
5, 2885760, Note_on_c, 3, 55, 100
5, 2886360, Note_on_c, 3, 55, 0
5, 2886360, Note_on_c, 3, 54, 100
5, 2886480, Note_on_c, 3, 54, 0
5, 2886480, Note_on_c, 3, 55, 100
5, 2886600, Note_on_c, 3, 55, 0
5, 2886600, Note_on_c, 3, 57, 100
5, 2886720, Note_on_c, 3, 57, 0
5, 2886720, Note_on_c, 3, 55, 100
5, 2887320, Note_on_c, 3, 55, 0
5, 2887320, Note_on_c, 3, 71, 100
5, 2887440, Note_on_c, 3, 71, 0
5, 2887440, Note_on_c, 3, 69, 100
5, 2887560, Note_on_c, 3, 69, 0
5, 2887560, Note_on_c, 3, 67, 100
5, 2887680, Note_on_c, 3, 67, 0
5, 2887680, Note_on_c, 3, 66, 100
5, 2887800, Note_on_c, 3, 66, 0
5, 2887800, Note_on_c, 3, 62, 100
5, 2887920, Note_on_c, 3, 62, 0
5, 2887920, Note_on_c, 3, 64, 100
5, 2888040, Note_on_c, 3, 64, 0
5, 2888040, Note_on_c, 3, 66, 100
5, 2888160, Note_on_c, 3, 66, 0
5, 2888160, Note_on_c, 3, 59, 100
5, 2889120, Note_on_c, 3, 59, 0
5, 2889600, Note_on_c, 3, 67, 100
5, 2890080, Note_on_c, 3, 67, 0
5, 2890080, Note_on_c, 3, 66, 100
5, 2890560, Note_on_c, 3, 66, 0
5, 2890560, Note_on_c, 3, 64, 100
5, 2891040, Note_on_c, 3, 64, 0
5, 2891040, Note_on_c, 3, 62, 100
5, 2891520, Note_on_c, 3, 62, 0
5, 2891520, Note_on_c, 3, 59, 100
5, 2892000, Note_on_c, 3, 59, 0
5, 2892000, Note_on_c, 3, 60, 100
5, 2892480, Note_on_c, 3, 60, 0
5, 2892480, Note_on_c, 3, 62, 100
5, 2892960, Note_on_c, 3, 62, 0
5, 2892960, Note_on_c, 3, 55, 100
5, 2893440, Note_on_c, 3, 55, 0
5, 2893440, Note_on_c, 3, 67, 100
5, 2893920, Note_on_c, 3, 67, 0
5, 2893920, Note_on_c, 3, 66, 100
5, 2894400, Note_on_c, 3, 66, 0
5, 2894400, Note_on_c, 3, 64, 100
5, 2894880, Note_on_c, 3, 64, 0
5, 2894880, Note_on_c, 3, 62, 100
5, 2895360, Note_on_c, 3, 62, 0
5, 2895360, Note_on_c, 3, 59, 100
5, 2895840, Note_on_c, 3, 59, 0
5, 2895840, Note_on_c, 3, 60, 100
5, 2896320, Note_on_c, 3, 60, 0
5, 2896320, Note_on_c, 3, 62, 100
5, 2896800, Note_on_c, 3, 62, 0
5, 2896800, Note_on_c, 3, 55, 100
5, 2897280, Note_on_c, 3, 55, 0
5, 2897280, Note_on_c, 3, 67, 100
5, 2897760, Note_on_c, 3, 67, 0
5, 2897760, Note_on_c, 3, 66, 100
5, 2898240, Note_on_c, 3, 66, 0
5, 2898240, Note_on_c, 3, 64, 100
5, 2898720, Note_on_c, 3, 64, 0
5, 2898720, Note_on_c, 3, 62, 100
5, 2899200, Note_on_c, 3, 62, 0
5, 2899200, Note_on_c, 3, 59, 100
5, 2899680, Note_on_c, 3, 59, 0
5, 2899680, Note_on_c, 3, 60, 100
5, 2900160, Note_on_c, 3, 60, 0
5, 2900160, Note_on_c, 3, 62, 100
5, 2900640, Note_on_c, 3, 62, 0
5, 2900640, Note_on_c, 3, 55, 100
5, 2901600, Note_on_c, 3, 55, 0
5, 2901600, Note_on_c, 3, 67, 100
5, 2901720, Note_on_c, 3, 67, 0
5, 2901720, Note_on_c, 3, 71, 100
5, 2901840, Note_on_c, 3, 71, 0
5, 2901840, Note_on_c, 3, 74, 100
5, 2901960, Note_on_c, 3, 74, 0
5, 2901960, Note_on_c, 3, 79, 100
5, 2902080, Note_on_c, 3, 79, 0
5, 2902080, Note_on_c, 3, 74, 100
5, 2902200, Note_on_c, 3, 74, 0
5, 2902200, Note_on_c, 3, 71, 100
5, 2902320, Note_on_c, 3, 71, 0
5, 2902320, Note_on_c, 3, 67, 100
5, 2902440, Note_on_c, 3, 67, 0
5, 2902440, Note_on_c, 3, 74, 100
5, 2902560, Note_on_c, 3, 74, 0
5, 2902560, Note_on_c, 3, 62, 100
5, 2902680, Note_on_c, 3, 62, 0
5, 2902680, Note_on_c, 3, 67, 100
5, 2902800, Note_on_c, 3, 67, 0
5, 2902800, Note_on_c, 3, 71, 100
5, 2902920, Note_on_c, 3, 71, 0
5, 2902920, Note_on_c, 3, 61, 100
5, 2903040, Note_on_c, 3, 61, 0
5, 2903040, Note_on_c, 3, 64, 100
5, 2903160, Note_on_c, 3, 64, 0
5, 2903160, Note_on_c, 3, 67, 100
5, 2903280, Note_on_c, 3, 67, 0
5, 2903280, Note_on_c, 3, 73, 100
5, 2903400, Note_on_c, 3, 73, 0
5, 2903520, Note_on_c, 3, 74, 100
5, 2903640, Note_on_c, 3, 74, 0
5, 2903640, Note_on_c, 3, 69, 100
5, 2903760, Note_on_c, 3, 69, 0
5, 2903760, Note_on_c, 3, 66, 100
5, 2903880, Note_on_c, 3, 66, 0
5, 2903880, Note_on_c, 3, 62, 100
5, 2904000, Note_on_c, 3, 62, 0
5, 2904000, Note_on_c, 3, 67, 100
5, 2904120, Note_on_c, 3, 67, 0
5, 2904120, Note_on_c, 3, 71, 100
5, 2904240, Note_on_c, 3, 71, 0
5, 2904240, Note_on_c, 3, 74, 100
5, 2904360, Note_on_c, 3, 74, 0
5, 2904360, Note_on_c, 3, 67, 100
5, 2904480, Note_on_c, 3, 67, 0
5, 2904480, Note_on_c, 3, 74, 100
5, 2904600, Note_on_c, 3, 74, 0
5, 2904600, Note_on_c, 3, 72, 100
5, 2904720, Note_on_c, 3, 72, 0
5, 2904720, Note_on_c, 3, 69, 100
5, 2904840, Note_on_c, 3, 69, 0
5, 2904840, Note_on_c, 3, 71, 100
5, 2904960, Note_on_c, 3, 71, 0
5, 2904960, Note_on_c, 3, 66, 100
5, 2905080, Note_on_c, 3, 66, 0
5, 2905080, Note_on_c, 3, 69, 100
5, 2905200, Note_on_c, 3, 69, 0
5, 2905200, Note_on_c, 3, 74, 100
5, 2905260, Note_on_c, 3, 74, 0
5, 2905260, Note_on_c, 3, 72, 100
5, 2905320, Note_on_c, 3, 72, 0
5, 2905320, Note_on_c, 3, 71, 100
5, 2905380, Note_on_c, 3, 71, 0
5, 2905380, Note_on_c, 3, 69, 100
5, 2905440, Note_on_c, 3, 69, 0
5, 2905440, Note_on_c, 3, 67, 100
5, 2905560, Note_on_c, 3, 67, 0
5, 2905560, Note_on_c, 3, 71, 100
5, 2905680, Note_on_c, 3, 71, 0
5, 2905680, Note_on_c, 3, 74, 100
5, 2905800, Note_on_c, 3, 74, 0
5, 2905800, Note_on_c, 3, 79, 100
5, 2905920, Note_on_c, 3, 79, 0
5, 2905920, Note_on_c, 3, 74, 100
5, 2906040, Note_on_c, 3, 74, 0
5, 2906040, Note_on_c, 3, 71, 100
5, 2906160, Note_on_c, 3, 71, 0
5, 2906160, Note_on_c, 3, 67, 100
5, 2906280, Note_on_c, 3, 67, 0
5, 2906280, Note_on_c, 3, 74, 100
5, 2906400, Note_on_c, 3, 74, 0
5, 2906400, Note_on_c, 3, 62, 100
5, 2906520, Note_on_c, 3, 62, 0
5, 2906520, Note_on_c, 3, 67, 100
5, 2906640, Note_on_c, 3, 67, 0
5, 2906640, Note_on_c, 3, 71, 100
5, 2906760, Note_on_c, 3, 71, 0
5, 2906760, Note_on_c, 3, 61, 100
5, 2906880, Note_on_c, 3, 61, 0
5, 2906880, Note_on_c, 3, 64, 100
5, 2907000, Note_on_c, 3, 64, 0
5, 2907000, Note_on_c, 3, 67, 100
5, 2907120, Note_on_c, 3, 67, 0
5, 2907120, Note_on_c, 3, 73, 100
5, 2907240, Note_on_c, 3, 73, 0
5, 2907360, Note_on_c, 3, 74, 100
5, 2907480, Note_on_c, 3, 74, 0
5, 2907480, Note_on_c, 3, 69, 100
5, 2907600, Note_on_c, 3, 69, 0
5, 2907600, Note_on_c, 3, 66, 100
5, 2907720, Note_on_c, 3, 66, 0
5, 2907720, Note_on_c, 3, 62, 100
5, 2907840, Note_on_c, 3, 62, 0
5, 2907840, Note_on_c, 3, 67, 100
5, 2907960, Note_on_c, 3, 67, 0
5, 2907960, Note_on_c, 3, 71, 100
5, 2908080, Note_on_c, 3, 71, 0
5, 2908080, Note_on_c, 3, 74, 100
5, 2908200, Note_on_c, 3, 74, 0
5, 2908200, Note_on_c, 3, 67, 100
5, 2908320, Note_on_c, 3, 67, 0
5, 2908320, Note_on_c, 3, 74, 100
5, 2908440, Note_on_c, 3, 74, 0
5, 2908440, Note_on_c, 3, 72, 100
5, 2908560, Note_on_c, 3, 72, 0
5, 2908560, Note_on_c, 3, 69, 100
5, 2908680, Note_on_c, 3, 69, 0
5, 2908680, Note_on_c, 3, 71, 100
5, 2908800, Note_on_c, 3, 71, 0
5, 2908800, Note_on_c, 3, 66, 100
5, 2908920, Note_on_c, 3, 66, 0
5, 2908920, Note_on_c, 3, 69, 100
5, 2909040, Note_on_c, 3, 69, 0
5, 2909040, Note_on_c, 3, 74, 100
5, 2909100, Note_on_c, 3, 74, 0
5, 2909100, Note_on_c, 3, 72, 100
5, 2909160, Note_on_c, 3, 72, 0
5, 2909160, Note_on_c, 3, 71, 100
5, 2909220, Note_on_c, 3, 71, 0
5, 2909220, Note_on_c, 3, 69, 100
5, 2909280, Note_on_c, 3, 69, 0
5, 2909280, Note_on_c, 3, 67, 100
5, 2909400, Note_on_c, 3, 67, 0
5, 2909400, Note_on_c, 3, 71, 100
5, 2909520, Note_on_c, 3, 71, 0
5, 2909520, Note_on_c, 3, 74, 100
5, 2909640, Note_on_c, 3, 74, 0
5, 2909640, Note_on_c, 3, 79, 100
5, 2909760, Note_on_c, 3, 79, 0
5, 2909760, Note_on_c, 3, 74, 100
5, 2909880, Note_on_c, 3, 74, 0
5, 2909880, Note_on_c, 3, 71, 100
5, 2910000, Note_on_c, 3, 71, 0
5, 2910000, Note_on_c, 3, 67, 100
5, 2910120, Note_on_c, 3, 67, 0
5, 2910120, Note_on_c, 3, 74, 100
5, 2910240, Note_on_c, 3, 74, 0
5, 2910240, Note_on_c, 3, 62, 100
5, 2910360, Note_on_c, 3, 62, 0
5, 2910360, Note_on_c, 3, 67, 100
5, 2910480, Note_on_c, 3, 67, 0
5, 2910480, Note_on_c, 3, 71, 100
5, 2910600, Note_on_c, 3, 71, 0
5, 2910600, Note_on_c, 3, 61, 100
5, 2910720, Note_on_c, 3, 61, 0
5, 2910720, Note_on_c, 3, 64, 100
5, 2910840, Note_on_c, 3, 64, 0
5, 2910840, Note_on_c, 3, 67, 100
5, 2910960, Note_on_c, 3, 67, 0
5, 2910960, Note_on_c, 3, 73, 100
5, 2911080, Note_on_c, 3, 73, 0
5, 2911200, Note_on_c, 3, 74, 100
5, 2911320, Note_on_c, 3, 74, 0
5, 2911320, Note_on_c, 3, 69, 100
5, 2911440, Note_on_c, 3, 69, 0
5, 2911440, Note_on_c, 3, 66, 100
5, 2911560, Note_on_c, 3, 66, 0
5, 2911560, Note_on_c, 3, 62, 100
5, 2911680, Note_on_c, 3, 62, 0
5, 2911680, Note_on_c, 3, 67, 100
5, 2911800, Note_on_c, 3, 67, 0
5, 2911800, Note_on_c, 3, 71, 100
5, 2911920, Note_on_c, 3, 71, 0
5, 2911920, Note_on_c, 3, 74, 100
5, 2912040, Note_on_c, 3, 74, 0
5, 2912040, Note_on_c, 3, 67, 100
5, 2912160, Note_on_c, 3, 67, 0
5, 2912160, Note_on_c, 3, 74, 100
5, 2912280, Note_on_c, 3, 74, 0
5, 2912280, Note_on_c, 3, 72, 100
5, 2912400, Note_on_c, 3, 72, 0
5, 2912400, Note_on_c, 3, 69, 100
5, 2912520, Note_on_c, 3, 69, 0
5, 2912520, Note_on_c, 3, 71, 100
5, 2912640, Note_on_c, 3, 71, 0
5, 2912640, Note_on_c, 3, 66, 100
5, 2912760, Note_on_c, 3, 66, 0
5, 2912760, Note_on_c, 3, 69, 100
5, 2912880, Note_on_c, 3, 69, 0
5, 2912880, Note_on_c, 3, 74, 100
5, 2912940, Note_on_c, 3, 74, 0
5, 2912940, Note_on_c, 3, 72, 100
5, 2913000, Note_on_c, 3, 72, 0
5, 2913000, Note_on_c, 3, 71, 100
5, 2913060, Note_on_c, 3, 71, 0
5, 2913060, Note_on_c, 3, 69, 100
5, 2913120, Note_on_c, 3, 69, 0
5, 2913120, Note_on_c, 3, 67, 100
5, 2914080, Note_on_c, 3, 67, 0
5, 2929200, Note_on_c, 3, 62, 100
5, 2929440, Note_on_c, 3, 62, 0
5, 2929440, Note_on_c, 3, 60, 100
5, 2929680, Note_on_c, 3, 60, 0
5, 2929680, Note_on_c, 3, 58, 100
5, 2929920, Note_on_c, 3, 58, 0
5, 2929920, Note_on_c, 3, 57, 100
5, 2930160, Note_on_c, 3, 57, 0
5, 2930160, Note_on_c, 3, 62, 100
5, 2930280, Note_on_c, 3, 62, 0
5, 2930280, Note_on_c, 3, 60, 100
5, 2930400, Note_on_c, 3, 60, 0
5, 2930400, Note_on_c, 3, 59, 100
5, 2930640, Note_on_c, 3, 59, 0
5, 2930640, Note_on_c, 3, 64, 100
5, 2930880, Note_on_c, 3, 64, 0
5, 2930880, Note_on_c, 3, 62, 100
5, 2931000, Note_on_c, 3, 62, 0
5, 2931000, Note_on_c, 3, 61, 100
5, 2931120, Note_on_c, 3, 61, 0
5, 2931120, Note_on_c, 3, 62, 100
5, 2931240, Note_on_c, 3, 62, 0
5, 2931240, Note_on_c, 3, 64, 100
5, 2931360, Note_on_c, 3, 64, 0
5, 2931360, Note_on_c, 3, 66, 100
5, 2931840, Note_on_c, 3, 66, 0
5, 2932080, Note_on_c, 3, 71, 100
5, 2932440, Note_on_c, 3, 71, 0
5, 2932440, Note_on_c, 3, 59, 100
5, 2932680, Note_on_c, 3, 59, 0
5, 2932680, Note_on_c, 3, 61, 100
5, 2932800, Note_on_c, 3, 61, 0
5, 2932800, Note_on_c, 3, 62, 100
5, 2932920, Note_on_c, 3, 62, 0
5, 2932920, Note_on_c, 3, 64, 100
5, 2933040, Note_on_c, 3, 64, 0
5, 2933040, Note_on_c, 3, 62, 100
5, 2933280, Note_on_c, 3, 62, 0
5, 2933280, Note_on_c, 3, 60, 100
5, 2933520, Note_on_c, 3, 60, 0
5, 2933520, Note_on_c, 3, 58, 100
5, 2933760, Note_on_c, 3, 58, 0
5, 2933760, Note_on_c, 3, 57, 100
5, 2934000, Note_on_c, 3, 57, 0
5, 2934000, Note_on_c, 3, 62, 100
5, 2934120, Note_on_c, 3, 62, 0
5, 2934120, Note_on_c, 3, 60, 100
5, 2934240, Note_on_c, 3, 60, 0
5, 2934240, Note_on_c, 3, 59, 100
5, 2934480, Note_on_c, 3, 59, 0
5, 2934480, Note_on_c, 3, 64, 100
5, 2934720, Note_on_c, 3, 64, 0
5, 2934720, Note_on_c, 3, 62, 100
5, 2934840, Note_on_c, 3, 62, 0
5, 2934840, Note_on_c, 3, 61, 100
5, 2934960, Note_on_c, 3, 61, 0
5, 2934960, Note_on_c, 3, 62, 100
5, 2935080, Note_on_c, 3, 62, 0
5, 2935080, Note_on_c, 3, 64, 100
5, 2935200, Note_on_c, 3, 64, 0
5, 2935200, Note_on_c, 3, 66, 100
5, 2935680, Note_on_c, 3, 66, 0
5, 2935920, Note_on_c, 3, 71, 100
5, 2936280, Note_on_c, 3, 71, 0
5, 2936280, Note_on_c, 3, 59, 100
5, 2936520, Note_on_c, 3, 59, 0
5, 2936520, Note_on_c, 3, 61, 100
5, 2936640, Note_on_c, 3, 61, 0
5, 2936640, Note_on_c, 3, 62, 100
5, 2936760, Note_on_c, 3, 62, 0
5, 2936760, Note_on_c, 3, 64, 100
5, 2936880, Note_on_c, 3, 64, 0
5, 2936880, Note_on_c, 3, 62, 100
5, 2937120, Note_on_c, 3, 62, 0
5, 2937120, Note_on_c, 3, 60, 100
5, 2937360, Note_on_c, 3, 60, 0
5, 2937360, Note_on_c, 3, 58, 100
5, 2937600, Note_on_c, 3, 58, 0
5, 2937600, Note_on_c, 3, 57, 100
5, 2937840, Note_on_c, 3, 57, 0
5, 2937840, Note_on_c, 3, 62, 100
5, 2937960, Note_on_c, 3, 62, 0
5, 2937960, Note_on_c, 3, 60, 100
5, 2938080, Note_on_c, 3, 60, 0
5, 2938080, Note_on_c, 3, 59, 100
5, 2939040, Note_on_c, 3, 59, 0
5, 2941200, Note_on_c, 3, 62, 100
5, 2941440, Note_on_c, 3, 62, 0
5, 2941440, Note_on_c, 3, 64, 100
5, 2941680, Note_on_c, 3, 64, 0
5, 2941680, Note_on_c, 3, 66, 100
5, 2941920, Note_on_c, 3, 66, 0
5, 2941920, Note_on_c, 3, 67, 100
5, 2942160, Note_on_c, 3, 67, 0
5, 2942160, Note_on_c, 3, 71, 100
5, 2942400, Note_on_c, 3, 71, 0
5, 2942400, Note_on_c, 3, 69, 100
5, 2942640, Note_on_c, 3, 69, 0
5, 2942640, Note_on_c, 3, 67, 100
5, 2942880, Note_on_c, 3, 67, 0
5, 2942880, Note_on_c, 3, 74, 100
5, 2943120, Note_on_c, 3, 74, 0
5, 2943120, Note_on_c, 3, 62, 100
5, 2943360, Note_on_c, 3, 62, 0
5, 2943360, Note_on_c, 3, 69, 100
5, 2943840, Note_on_c, 3, 69, 0
5, 2943840, Note_on_c, 3, 67, 100
5, 2944320, Note_on_c, 3, 67, 0
5, 2945040, Note_on_c, 3, 71, 100
5, 2945280, Note_on_c, 3, 71, 0
5, 2945280, Note_on_c, 3, 69, 100
5, 2945520, Note_on_c, 3, 69, 0
5, 2945520, Note_on_c, 3, 67, 100
5, 2945760, Note_on_c, 3, 67, 0
5, 2945760, Note_on_c, 3, 66, 100
5, 2946000, Note_on_c, 3, 66, 0
5, 2946000, Note_on_c, 3, 62, 100
5, 2946240, Note_on_c, 3, 62, 0
5, 2946240, Note_on_c, 3, 64, 100
5, 2946480, Note_on_c, 3, 64, 0
5, 2946480, Note_on_c, 3, 66, 100
5, 2946720, Note_on_c, 3, 66, 0
5, 2946720, Note_on_c, 3, 67, 100
5, 2947440, Note_on_c, 3, 67, 0
5, 2947440, Note_on_c, 3, 69, 100
5, 2947680, Note_on_c, 3, 69, 0
5, 2947680, Note_on_c, 3, 71, 100
5, 2948160, Note_on_c, 3, 71, 0
5, 2948880, Note_on_c, 3, 62, 100
5, 2949120, Note_on_c, 3, 62, 0
5, 2949120, Note_on_c, 3, 64, 100
5, 2949360, Note_on_c, 3, 64, 0
5, 2949360, Note_on_c, 3, 66, 100
5, 2949600, Note_on_c, 3, 66, 0
5, 2949600, Note_on_c, 3, 67, 100
5, 2949840, Note_on_c, 3, 67, 0
5, 2949840, Note_on_c, 3, 71, 100
5, 2950080, Note_on_c, 3, 71, 0
5, 2950080, Note_on_c, 3, 69, 100
5, 2950320, Note_on_c, 3, 69, 0
5, 2950320, Note_on_c, 3, 67, 100
5, 2950560, Note_on_c, 3, 67, 0
5, 2950560, Note_on_c, 3, 74, 100
5, 2950800, Note_on_c, 3, 74, 0
5, 2950800, Note_on_c, 3, 62, 100
5, 2951040, Note_on_c, 3, 62, 0
5, 2951040, Note_on_c, 3, 69, 100
5, 2951520, Note_on_c, 3, 69, 0
5, 2951520, Note_on_c, 3, 67, 100
5, 2952000, Note_on_c, 3, 67, 0
5, 2952720, Note_on_c, 3, 71, 100
5, 2952960, Note_on_c, 3, 71, 0
5, 2952960, Note_on_c, 3, 69, 100
5, 2953200, Note_on_c, 3, 69, 0
5, 2953200, Note_on_c, 3, 67, 100
5, 2953440, Note_on_c, 3, 67, 0
5, 2953440, Note_on_c, 3, 66, 100
5, 2953680, Note_on_c, 3, 66, 0
5, 2953680, Note_on_c, 3, 62, 100
5, 2953920, Note_on_c, 3, 62, 0
5, 2953920, Note_on_c, 3, 64, 100
5, 2954160, Note_on_c, 3, 64, 0
5, 2954160, Note_on_c, 3, 66, 100
5, 2954400, Note_on_c, 3, 66, 0
5, 2954400, Note_on_c, 3, 67, 100
5, 2955120, Note_on_c, 3, 67, 0
5, 2955120, Note_on_c, 3, 69, 100
5, 2955360, Note_on_c, 3, 69, 0
5, 2955360, Note_on_c, 3, 71, 100
5, 2955840, Note_on_c, 3, 71, 0
5, 2956560, Note_on_c, 3, 62, 100
5, 2956800, Note_on_c, 3, 62, 0
5, 2956800, Note_on_c, 3, 64, 100
5, 2957040, Note_on_c, 3, 64, 0
5, 2957040, Note_on_c, 3, 66, 100
5, 2957280, Note_on_c, 3, 66, 0
5, 2957280, Note_on_c, 3, 67, 100
5, 2957520, Note_on_c, 3, 67, 0
5, 2957520, Note_on_c, 3, 71, 100
5, 2957760, Note_on_c, 3, 71, 0
5, 2957760, Note_on_c, 3, 69, 100
5, 2958000, Note_on_c, 3, 69, 0
5, 2958000, Note_on_c, 3, 67, 100
5, 2958240, Note_on_c, 3, 67, 0
5, 2958240, Note_on_c, 3, 74, 100
5, 2958480, Note_on_c, 3, 74, 0
5, 2958480, Note_on_c, 3, 62, 100
5, 2958720, Note_on_c, 3, 62, 0
5, 2958720, Note_on_c, 3, 69, 100
5, 2960160, Note_on_c, 3, 69, 0
5, 2960160, End_track
6, 0, Start_track
6, 0, MIDI_port, 0
6, 0, Title_t, "Aria with 30 Variations for Harpsichord with 2 Manuals"
6, 0, Program_c, 4, 6
6, 0, Control_c, 4, 7, 100
6, 0, Control_c, 4, 10, 59
6, 480, Note_on_c, 4, 59, 100
6, 1440, Note_on_c, 4, 59, 0
6, 1920, Note_on_c, 4, 57, 100
6, 2880, Note_on_c, 4, 57, 0
6, 3360, Note_on_c, 4, 55, 100
6, 4320, Note_on_c, 4, 55, 0
6, 4800, Note_on_c, 4, 54, 100
6, 5760, Note_on_c, 4, 54, 0
6, 6240, Note_on_c, 4, 50, 100
6, 7200, Note_on_c, 4, 50, 0
6, 7680, Note_on_c, 4, 52, 100
6, 8400, Note_on_c, 4, 52, 0
6, 12480, Note_on_c, 4, 64, 100
6, 12960, Note_on_c, 4, 64, 0
6, 13440, Note_on_c, 4, 74, 100
6, 14400, Note_on_c, 4, 74, 0
6, 14880, Note_on_c, 4, 64, 100
6, 15600, Note_on_c, 4, 64, 0
6, 15600, Note_on_c, 4, 62, 100
6, 15840, Note_on_c, 4, 62, 0
6, 15840, Note_on_c, 4, 61, 100
6, 16080, Note_on_c, 4, 61, 0
6, 16080, Note_on_c, 4, 62, 100
6, 16320, Note_on_c, 4, 62, 0
6, 16320, Note_on_c, 4, 64, 100
6, 17280, Note_on_c, 4, 64, 0
6, 18240, Note_on_c, 4, 62, 100
6, 18720, Note_on_c, 4, 62, 0
6, 19680, Note_on_c, 4, 64, 100
6, 20160, Note_on_c, 4, 64, 0
6, 20160, Note_on_c, 4, 66, 100
6, 20640, Note_on_c, 4, 66, 0
6, 20640, Note_on_c, 4, 64, 100
6, 21000, Note_on_c, 4, 64, 0
6, 21000, Note_on_c, 4, 66, 100
6, 21120, Note_on_c, 4, 66, 0
6, 21120, Note_on_c, 4, 67, 100
6, 22080, Note_on_c, 4, 67, 0
6, 22080, Note_on_c, 4, 66, 100
6, 23040, Note_on_c, 4, 66, 0
6, 23520, Note_on_c, 4, 59, 100
6, 24480, Note_on_c, 4, 59, 0
6, 24960, Note_on_c, 4, 57, 100
6, 25920, Note_on_c, 4, 57, 0
6, 26400, Note_on_c, 4, 55, 100
6, 27360, Note_on_c, 4, 55, 0
6, 27840, Note_on_c, 4, 54, 100
6, 28800, Note_on_c, 4, 54, 0
6, 29280, Note_on_c, 4, 50, 100
6, 30240, Note_on_c, 4, 50, 0
6, 30720, Note_on_c, 4, 52, 100
6, 31440, Note_on_c, 4, 52, 0
6, 35520, Note_on_c, 4, 64, 100
6, 36000, Note_on_c, 4, 64, 0
6, 36480, Note_on_c, 4, 74, 100
6, 37440, Note_on_c, 4, 74, 0
6, 37920, Note_on_c, 4, 64, 100
6, 38640, Note_on_c, 4, 64, 0
6, 38640, Note_on_c, 4, 62, 100
6, 38880, Note_on_c, 4, 62, 0
6, 38880, Note_on_c, 4, 61, 100
6, 39120, Note_on_c, 4, 61, 0
6, 39120, Note_on_c, 4, 62, 100
6, 39360, Note_on_c, 4, 62, 0
6, 39360, Note_on_c, 4, 64, 100
6, 40320, Note_on_c, 4, 64, 0
6, 41280, Note_on_c, 4, 62, 100
6, 41760, Note_on_c, 4, 62, 0
6, 42720, Note_on_c, 4, 64, 100
6, 43200, Note_on_c, 4, 64, 0
6, 43200, Note_on_c, 4, 66, 100
6, 43680, Note_on_c, 4, 66, 0
6, 43680, Note_on_c, 4, 64, 100
6, 44040, Note_on_c, 4, 64, 0
6, 44040, Note_on_c, 4, 66, 100
6, 44160, Note_on_c, 4, 66, 0
6, 44160, Note_on_c, 4, 67, 100
6, 45120, Note_on_c, 4, 67, 0
6, 45120, Note_on_c, 4, 66, 100
6, 46080, Note_on_c, 4, 66, 0
6, 46320, Note_on_c, 4, 64, 100
6, 46560, Note_on_c, 4, 64, 0
6, 46560, Note_on_c, 4, 66, 100
6, 46590, Note_on_c, 4, 66, 0
6, 46590, Note_on_c, 4, 64, 100
6, 46620, Note_on_c, 4, 64, 0
6, 46620, Note_on_c, 4, 66, 100
6, 47520, Note_on_c, 4, 66, 0
6, 47760, Note_on_c, 4, 60, 100
6, 48000, Note_on_c, 4, 60, 0
6, 48000, Note_on_c, 4, 62, 100
6, 48960, Note_on_c, 4, 62, 0
6, 49200, Note_on_c, 4, 64, 100
6, 49440, Note_on_c, 4, 64, 0
6, 49440, Note_on_c, 4, 67, 100
6, 49920, Note_on_c, 4, 67, 0
6, 49920, Note_on_c, 4, 67, 100
6, 49960, Note_on_c, 4, 67, 0
6, 49960, Note_on_c, 4, 66, 100
6, 50000, Note_on_c, 4, 66, 0
6, 50000, Note_on_c, 4, 67, 100
6, 50040, Note_on_c, 4, 67, 0
6, 50040, Note_on_c, 4, 66, 100
6, 50160, Note_on_c, 4, 66, 0
6, 50160, Note_on_c, 4, 64, 100
6, 50400, Note_on_c, 4, 64, 0
6, 50400, Note_on_c, 4, 63, 100
6, 50640, Note_on_c, 4, 63, 0
6, 50640, Note_on_c, 4, 64, 100
6, 50880, Note_on_c, 4, 64, 0
6, 50880, Note_on_c, 4, 66, 100
6, 51840, Note_on_c, 4, 66, 0
6, 52080, Note_on_c, 4, 57, 100
6, 52320, Note_on_c, 4, 57, 0
6, 52320, Note_on_c, 4, 57, 100
6, 52360, Note_on_c, 4, 57, 0
6, 52360, Note_on_c, 4, 55, 100
6, 52400, Note_on_c, 4, 55, 0
6, 52400, Note_on_c, 4, 57, 100
6, 52440, Note_on_c, 4, 57, 0
6, 52440, Note_on_c, 4, 55, 100
6, 52560, Note_on_c, 4, 55, 0
6, 52560, Note_on_c, 4, 54, 100
6, 52800, Note_on_c, 4, 54, 0
6, 52800, Note_on_c, 4, 55, 100
6, 53280, Note_on_c, 4, 55, 0
6, 53520, Note_on_c, 4, 57, 100
6, 53760, Note_on_c, 4, 57, 0
6, 53760, Note_on_c, 4, 57, 100
6, 53800, Note_on_c, 4, 57, 0
6, 53800, Note_on_c, 4, 55, 100
6, 53840, Note_on_c, 4, 55, 0
6, 53840, Note_on_c, 4, 57, 100
6, 53880, Note_on_c, 4, 57, 0
6, 53880, Note_on_c, 4, 55, 100
6, 54000, Note_on_c, 4, 55, 0
6, 54000, Note_on_c, 4, 54, 100
6, 54240, Note_on_c, 4, 54, 0
6, 54240, Note_on_c, 4, 55, 100
6, 54480, Note_on_c, 4, 55, 0
6, 54480, Note_on_c, 4, 59, 100
6, 54720, Note_on_c, 4, 59, 0
6, 55920, Note_on_c, 4, 51, 100
6, 56160, Note_on_c, 4, 51, 0
6, 56160, Note_on_c, 4, 52, 100
6, 56640, Note_on_c, 4, 52, 0
6, 58080, Note_on_c, 4, 52, 100
6, 59040, Note_on_c, 4, 52, 0
6, 69360, Note_on_c, 4, 64, 100
6, 69600, Note_on_c, 4, 64, 0
6, 69600, Note_on_c, 4, 66, 100
6, 69630, Note_on_c, 4, 66, 0
6, 69630, Note_on_c, 4, 64, 100
6, 69660, Note_on_c, 4, 64, 0
6, 69660, Note_on_c, 4, 66, 100
6, 70560, Note_on_c, 4, 66, 0
6, 70800, Note_on_c, 4, 60, 100
6, 71040, Note_on_c, 4, 60, 0
6, 71040, Note_on_c, 4, 62, 100
6, 72000, Note_on_c, 4, 62, 0
6, 72240, Note_on_c, 4, 64, 100
6, 72480, Note_on_c, 4, 64, 0
6, 72480, Note_on_c, 4, 67, 100
6, 72960, Note_on_c, 4, 67, 0
6, 72960, Note_on_c, 4, 67, 100
6, 73000, Note_on_c, 4, 67, 0
6, 73000, Note_on_c, 4, 66, 100
6, 73040, Note_on_c, 4, 66, 0
6, 73040, Note_on_c, 4, 67, 100
6, 73080, Note_on_c, 4, 67, 0
6, 73080, Note_on_c, 4, 66, 100
6, 73200, Note_on_c, 4, 66, 0
6, 73200, Note_on_c, 4, 64, 100
6, 73440, Note_on_c, 4, 64, 0
6, 73440, Note_on_c, 4, 63, 100
6, 73680, Note_on_c, 4, 63, 0
6, 73680, Note_on_c, 4, 64, 100
6, 73920, Note_on_c, 4, 64, 0
6, 73920, Note_on_c, 4, 66, 100
6, 74880, Note_on_c, 4, 66, 0
6, 75120, Note_on_c, 4, 57, 100
6, 75360, Note_on_c, 4, 57, 0
6, 75360, Note_on_c, 4, 57, 100
6, 75400, Note_on_c, 4, 57, 0
6, 75400, Note_on_c, 4, 55, 100
6, 75440, Note_on_c, 4, 55, 0
6, 75440, Note_on_c, 4, 57, 100
6, 75480, Note_on_c, 4, 57, 0
6, 75480, Note_on_c, 4, 55, 100
6, 75600, Note_on_c, 4, 55, 0
6, 75600, Note_on_c, 4, 54, 100
6, 75840, Note_on_c, 4, 54, 0
6, 75840, Note_on_c, 4, 55, 100
6, 76320, Note_on_c, 4, 55, 0
6, 76560, Note_on_c, 4, 57, 100
6, 76800, Note_on_c, 4, 57, 0
6, 76800, Note_on_c, 4, 57, 100
6, 76840, Note_on_c, 4, 57, 0
6, 76840, Note_on_c, 4, 55, 100
6, 76880, Note_on_c, 4, 55, 0
6, 76880, Note_on_c, 4, 57, 100
6, 76920, Note_on_c, 4, 57, 0
6, 76920, Note_on_c, 4, 55, 100
6, 77040, Note_on_c, 4, 55, 0
6, 77040, Note_on_c, 4, 54, 100
6, 77280, Note_on_c, 4, 54, 0
6, 77280, Note_on_c, 4, 55, 100
6, 77520, Note_on_c, 4, 55, 0
6, 77520, Note_on_c, 4, 59, 100
6, 77760, Note_on_c, 4, 59, 0
6, 78960, Note_on_c, 4, 51, 100
6, 79200, Note_on_c, 4, 51, 0
6, 79200, Note_on_c, 4, 52, 100
6, 79680, Note_on_c, 4, 52, 0
6, 81120, Note_on_c, 4, 52, 100
6, 82080, Note_on_c, 4, 52, 0
6, 92160, Note_on_c, 4, 43, 100
6, 92400, Note_on_c, 4, 43, 0
6, 92400, Note_on_c, 4, 59, 100
6, 92520, Note_on_c, 4, 59, 0
6, 92520, Note_on_c, 4, 57, 100
6, 92640, Note_on_c, 4, 57, 0
6, 92640, Note_on_c, 4, 59, 100
6, 92880, Note_on_c, 4, 59, 0
6, 92880, Note_on_c, 4, 55, 100
6, 93120, Note_on_c, 4, 55, 0
6, 93120, Note_on_c, 4, 43, 100
6, 93360, Note_on_c, 4, 43, 0
6, 93360, Note_on_c, 4, 55, 100
6, 93600, Note_on_c, 4, 55, 0
6, 93600, Note_on_c, 4, 42, 100
6, 93840, Note_on_c, 4, 42, 0
6, 93840, Note_on_c, 4, 54, 100
6, 93960, Note_on_c, 4, 54, 0
6, 93960, Note_on_c, 4, 52, 100
6, 94080, Note_on_c, 4, 52, 0
6, 94080, Note_on_c, 4, 54, 100
6, 94320, Note_on_c, 4, 54, 0
6, 94320, Note_on_c, 4, 50, 100
6, 94560, Note_on_c, 4, 50, 0
6, 94560, Note_on_c, 4, 42, 100
6, 94800, Note_on_c, 4, 42, 0
6, 94800, Note_on_c, 4, 50, 100
6, 95040, Note_on_c, 4, 50, 0
6, 95040, Note_on_c, 4, 40, 100
6, 95280, Note_on_c, 4, 40, 0
6, 95280, Note_on_c, 4, 52, 100
6, 95400, Note_on_c, 4, 52, 0
6, 95400, Note_on_c, 4, 50, 100
6, 95520, Note_on_c, 4, 50, 0
6, 95520, Note_on_c, 4, 52, 100
6, 95760, Note_on_c, 4, 52, 0
6, 95760, Note_on_c, 4, 55, 100
6, 96000, Note_on_c, 4, 55, 0
6, 96000, Note_on_c, 4, 45, 100
6, 96240, Note_on_c, 4, 45, 0
6, 96240, Note_on_c, 4, 61, 100
6, 96480, Note_on_c, 4, 61, 0
6, 96480, Note_on_c, 4, 50, 100
6, 96720, Note_on_c, 4, 50, 0
6, 96720, Note_on_c, 4, 54, 100
6, 96840, Note_on_c, 4, 54, 0
6, 96840, Note_on_c, 4, 52, 100
6, 96960, Note_on_c, 4, 52, 0
6, 96960, Note_on_c, 4, 54, 100
6, 97200, Note_on_c, 4, 54, 0
6, 97200, Note_on_c, 4, 50, 100
6, 97440, Note_on_c, 4, 50, 0
6, 97440, Note_on_c, 4, 38, 100
6, 97680, Note_on_c, 4, 38, 0
6, 97800, Note_on_c, 4, 48, 100
6, 97920, Note_on_c, 4, 48, 0
6, 97920, Note_on_c, 4, 47, 100
6, 98040, Note_on_c, 4, 47, 0
6, 98040, Note_on_c, 4, 45, 100
6, 98160, Note_on_c, 4, 45, 0
6, 98160, Note_on_c, 4, 47, 100
6, 98520, Note_on_c, 4, 47, 0
6, 98520, Note_on_c, 4, 50, 100
6, 98640, Note_on_c, 4, 50, 0
6, 98640, Note_on_c, 4, 52, 100
6, 98760, Note_on_c, 4, 52, 0
6, 98760, Note_on_c, 4, 54, 100
6, 98880, Note_on_c, 4, 54, 0
6, 98880, Note_on_c, 4, 55, 100
6, 99000, Note_on_c, 4, 55, 0
6, 99000, Note_on_c, 4, 57, 100
6, 99120, Note_on_c, 4, 57, 0
6, 99120, Note_on_c, 4, 59, 100
6, 99240, Note_on_c, 4, 59, 0
6, 99240, Note_on_c, 4, 55, 100
6, 99360, Note_on_c, 4, 55, 0
6, 99360, Note_on_c, 4, 48, 100
6, 99480, Note_on_c, 4, 48, 0
6, 99480, Note_on_c, 4, 47, 100
6, 99600, Note_on_c, 4, 47, 0
6, 99600, Note_on_c, 4, 48, 100
6, 99960, Note_on_c, 4, 48, 0
6, 99960, Note_on_c, 4, 52, 100
6, 100080, Note_on_c, 4, 52, 0
6, 100080, Note_on_c, 4, 54, 100
6, 100200, Note_on_c, 4, 54, 0
6, 100200, Note_on_c, 4, 55, 100
6, 100320, Note_on_c, 4, 55, 0
6, 100320, Note_on_c, 4, 57, 100
6, 100440, Note_on_c, 4, 57, 0
6, 100440, Note_on_c, 4, 59, 100
6, 100560, Note_on_c, 4, 59, 0
6, 100560, Note_on_c, 4, 60, 100
6, 100680, Note_on_c, 4, 60, 0
6, 100680, Note_on_c, 4, 57, 100
6, 100800, Note_on_c, 4, 57, 0
6, 100800, Note_on_c, 4, 50, 100
6, 100920, Note_on_c, 4, 50, 0
6, 100920, Note_on_c, 4, 49, 100
6, 101040, Note_on_c, 4, 49, 0
6, 101040, Note_on_c, 4, 50, 100
6, 101400, Note_on_c, 4, 50, 0
6, 101400, Note_on_c, 4, 57, 100
6, 101520, Note_on_c, 4, 57, 0
6, 101520, Note_on_c, 4, 59, 100
6, 101640, Note_on_c, 4, 59, 0
6, 101640, Note_on_c, 4, 60, 100
6, 101760, Note_on_c, 4, 60, 0
6, 101760, Note_on_c, 4, 62, 100
6, 101880, Note_on_c, 4, 62, 0
6, 101880, Note_on_c, 4, 64, 100
6, 102000, Note_on_c, 4, 64, 0
6, 102000, Note_on_c, 4, 66, 100
6, 102120, Note_on_c, 4, 66, 0
6, 102120, Note_on_c, 4, 62, 100
6, 102240, Note_on_c, 4, 62, 0
6, 102240, Note_on_c, 4, 67, 100
6, 102360, Note_on_c, 4, 67, 0
6, 102360, Note_on_c, 4, 66, 100
6, 102480, Note_on_c, 4, 66, 0
6, 102480, Note_on_c, 4, 67, 100
6, 102600, Note_on_c, 4, 67, 0
6, 102600, Note_on_c, 4, 62, 100
6, 102720, Note_on_c, 4, 62, 0
6, 102720, Note_on_c, 4, 59, 100
6, 102840, Note_on_c, 4, 59, 0
6, 102840, Note_on_c, 4, 62, 100
6, 102960, Note_on_c, 4, 62, 0
6, 102960, Note_on_c, 4, 55, 100
6, 103080, Note_on_c, 4, 55, 0
6, 103080, Note_on_c, 4, 59, 100
6, 103200, Note_on_c, 4, 59, 0
6, 103200, Note_on_c, 4, 50, 100
6, 103320, Note_on_c, 4, 50, 0
6, 103320, Note_on_c, 4, 55, 100
6, 103440, Note_on_c, 4, 55, 0
6, 103440, Note_on_c, 4, 47, 100
6, 103560, Note_on_c, 4, 47, 0
6, 103560, Note_on_c, 4, 50, 100
6, 103680, Note_on_c, 4, 50, 0
6, 103680, Note_on_c, 4, 43, 100
6, 103920, Note_on_c, 4, 43, 0
6, 103920, Note_on_c, 4, 55, 100
6, 104160, Note_on_c, 4, 55, 0
6, 104160, Note_on_c, 4, 59, 100
6, 104400, Note_on_c, 4, 59, 0
6, 104400, Note_on_c, 4, 55, 100
6, 104640, Note_on_c, 4, 55, 0
6, 104640, Note_on_c, 4, 43, 100
6, 104880, Note_on_c, 4, 43, 0
6, 104880, Note_on_c, 4, 55, 100
6, 105120, Note_on_c, 4, 55, 0
6, 105120, Note_on_c, 4, 42, 100
6, 105360, Note_on_c, 4, 42, 0
6, 105360, Note_on_c, 4, 54, 100
6, 105600, Note_on_c, 4, 54, 0
6, 105600, Note_on_c, 4, 57, 100
6, 105840, Note_on_c, 4, 57, 0
6, 105840, Note_on_c, 4, 54, 100
6, 106080, Note_on_c, 4, 54, 0
6, 106080, Note_on_c, 4, 42, 100
6, 106320, Note_on_c, 4, 42, 0
6, 106320, Note_on_c, 4, 54, 100
6, 106560, Note_on_c, 4, 54, 0
6, 106560, Note_on_c, 4, 40, 100
6, 106800, Note_on_c, 4, 40, 0
6, 106800, Note_on_c, 4, 52, 100
6, 107040, Note_on_c, 4, 52, 0
6, 107040, Note_on_c, 4, 55, 100
6, 107280, Note_on_c, 4, 55, 0
6, 107280, Note_on_c, 4, 52, 100
6, 107520, Note_on_c, 4, 52, 0
6, 107520, Note_on_c, 4, 40, 100
6, 107760, Note_on_c, 4, 40, 0
6, 107760, Note_on_c, 4, 55, 100
6, 108000, Note_on_c, 4, 55, 0
6, 108000, Note_on_c, 4, 45, 100
6, 108240, Note_on_c, 4, 45, 0
6, 108240, Note_on_c, 4, 52, 100
6, 108480, Note_on_c, 4, 52, 0
6, 108480, Note_on_c, 4, 55, 100
6, 108720, Note_on_c, 4, 55, 0
6, 108720, Note_on_c, 4, 52, 100
6, 108960, Note_on_c, 4, 52, 0
6, 108960, Note_on_c, 4, 45, 100
6, 109200, Note_on_c, 4, 45, 0
6, 109200, Note_on_c, 4, 55, 100
6, 109440, Note_on_c, 4, 55, 0
6, 109440, Note_on_c, 4, 54, 100
6, 109560, Note_on_c, 4, 54, 0
6, 109560, Note_on_c, 4, 57, 100
6, 109680, Note_on_c, 4, 57, 0
6, 109680, Note_on_c, 4, 62, 100
6, 109800, Note_on_c, 4, 62, 0
6, 109800, Note_on_c, 4, 66, 100
6, 109920, Note_on_c, 4, 66, 0
6, 109920, Note_on_c, 4, 69, 100
6, 110040, Note_on_c, 4, 69, 0
6, 110040, Note_on_c, 4, 66, 100
6, 110160, Note_on_c, 4, 66, 0
6, 110160, Note_on_c, 4, 62, 100
6, 110280, Note_on_c, 4, 62, 0
6, 110280, Note_on_c, 4, 57, 100
6, 110400, Note_on_c, 4, 57, 0
6, 110400, Note_on_c, 4, 54, 100
6, 110520, Note_on_c, 4, 54, 0
6, 110520, Note_on_c, 4, 57, 100
6, 110640, Note_on_c, 4, 57, 0
6, 110640, Note_on_c, 4, 50, 100
6, 110760, Note_on_c, 4, 50, 0
6, 110760, Note_on_c, 4, 54, 100
6, 110880, Note_on_c, 4, 54, 0
6, 110880, Note_on_c, 4, 55, 100
6, 111000, Note_on_c, 4, 55, 0
6, 111000, Note_on_c, 4, 59, 100
6, 111120, Note_on_c, 4, 59, 0
6, 111120, Note_on_c, 4, 62, 100
6, 111240, Note_on_c, 4, 62, 0
6, 111240, Note_on_c, 4, 67, 100
6, 111360, Note_on_c, 4, 67, 0
6, 111360, Note_on_c, 4, 71, 100
6, 111480, Note_on_c, 4, 71, 0
6, 111480, Note_on_c, 4, 67, 100
6, 111600, Note_on_c, 4, 67, 0
6, 111600, Note_on_c, 4, 62, 100
6, 111720, Note_on_c, 4, 62, 0
6, 111720, Note_on_c, 4, 59, 100
6, 111840, Note_on_c, 4, 59, 0
6, 111840, Note_on_c, 4, 55, 100
6, 111960, Note_on_c, 4, 55, 0
6, 111960, Note_on_c, 4, 59, 100
6, 112080, Note_on_c, 4, 59, 0
6, 112080, Note_on_c, 4, 52, 100
6, 112200, Note_on_c, 4, 52, 0
6, 112200, Note_on_c, 4, 55, 100
6, 112320, Note_on_c, 4, 55, 0
6, 112320, Note_on_c, 4, 57, 100
6, 112560, Note_on_c, 4, 57, 0
6, 112560, Note_on_c, 4, 61, 100
6, 112800, Note_on_c, 4, 61, 0
6, 112800, Note_on_c, 4, 62, 100
6, 112920, Note_on_c, 4, 62, 0
6, 112920, Note_on_c, 4, 57, 100
6, 113040, Note_on_c, 4, 57, 0
6, 113040, Note_on_c, 4, 54, 100
6, 113160, Note_on_c, 4, 54, 0
6, 113160, Note_on_c, 4, 50, 100
6, 113280, Note_on_c, 4, 50, 0
6, 113280, Note_on_c, 4, 57, 100
6, 113520, Note_on_c, 4, 57, 0
6, 113520, Note_on_c, 4, 45, 100
6, 113760, Note_on_c, 4, 45, 0
6, 113760, Note_on_c, 4, 38, 100
6, 113880, Note_on_c, 4, 38, 0
6, 113880, Note_on_c, 4, 50, 100
6, 114000, Note_on_c, 4, 50, 0
6, 114000, Note_on_c, 4, 52, 100
6, 114120, Note_on_c, 4, 52, 0
6, 114120, Note_on_c, 4, 54, 100
6, 114240, Note_on_c, 4, 54, 0
6, 114240, Note_on_c, 4, 55, 100
6, 114360, Note_on_c, 4, 55, 0
6, 114360, Note_on_c, 4, 57, 100
6, 114480, Note_on_c, 4, 57, 0
6, 114480, Note_on_c, 4, 59, 100
6, 114600, Note_on_c, 4, 59, 0
6, 114600, Note_on_c, 4, 61, 100
6, 114720, Note_on_c, 4, 61, 0
6, 114720, Note_on_c, 4, 62, 100
6, 115200, Note_on_c, 4, 62, 0
6, 115200, Note_on_c, 4, 43, 100
6, 115440, Note_on_c, 4, 43, 0
6, 115440, Note_on_c, 4, 59, 100
6, 115560, Note_on_c, 4, 59, 0
6, 115560, Note_on_c, 4, 57, 100
6, 115680, Note_on_c, 4, 57, 0
6, 115680, Note_on_c, 4, 59, 100
6, 115920, Note_on_c, 4, 59, 0
6, 115920, Note_on_c, 4, 55, 100
6, 116160, Note_on_c, 4, 55, 0
6, 116160, Note_on_c, 4, 43, 100
6, 116400, Note_on_c, 4, 43, 0
6, 116400, Note_on_c, 4, 55, 100
6, 116640, Note_on_c, 4, 55, 0
6, 116640, Note_on_c, 4, 42, 100
6, 116880, Note_on_c, 4, 42, 0
6, 116880, Note_on_c, 4, 54, 100
6, 117000, Note_on_c, 4, 54, 0
6, 117000, Note_on_c, 4, 52, 100
6, 117120, Note_on_c, 4, 52, 0
6, 117120, Note_on_c, 4, 54, 100
6, 117360, Note_on_c, 4, 54, 0
6, 117360, Note_on_c, 4, 50, 100
6, 117600, Note_on_c, 4, 50, 0
6, 117600, Note_on_c, 4, 42, 100
6, 117840, Note_on_c, 4, 42, 0
6, 117840, Note_on_c, 4, 50, 100
6, 118080, Note_on_c, 4, 50, 0
6, 118080, Note_on_c, 4, 40, 100
6, 118320, Note_on_c, 4, 40, 0
6, 118320, Note_on_c, 4, 52, 100
6, 118440, Note_on_c, 4, 52, 0
6, 118440, Note_on_c, 4, 50, 100
6, 118560, Note_on_c, 4, 50, 0
6, 118560, Note_on_c, 4, 52, 100
6, 118800, Note_on_c, 4, 52, 0
6, 118800, Note_on_c, 4, 55, 100
6, 119040, Note_on_c, 4, 55, 0
6, 119040, Note_on_c, 4, 45, 100
6, 119280, Note_on_c, 4, 45, 0
6, 119280, Note_on_c, 4, 61, 100
6, 119520, Note_on_c, 4, 61, 0
6, 119520, Note_on_c, 4, 50, 100
6, 119760, Note_on_c, 4, 50, 0
6, 119760, Note_on_c, 4, 54, 100
6, 119880, Note_on_c, 4, 54, 0
6, 119880, Note_on_c, 4, 52, 100
6, 120000, Note_on_c, 4, 52, 0
6, 120000, Note_on_c, 4, 54, 100
6, 120240, Note_on_c, 4, 54, 0
6, 120240, Note_on_c, 4, 50, 100
6, 120480, Note_on_c, 4, 50, 0
6, 120480, Note_on_c, 4, 38, 100
6, 120720, Note_on_c, 4, 38, 0
6, 120840, Note_on_c, 4, 48, 100
6, 120960, Note_on_c, 4, 48, 0
6, 120960, Note_on_c, 4, 47, 100
6, 121080, Note_on_c, 4, 47, 0
6, 121080, Note_on_c, 4, 45, 100
6, 121200, Note_on_c, 4, 45, 0
6, 121200, Note_on_c, 4, 47, 100
6, 121560, Note_on_c, 4, 47, 0
6, 121560, Note_on_c, 4, 50, 100
6, 121680, Note_on_c, 4, 50, 0
6, 121680, Note_on_c, 4, 52, 100
6, 121800, Note_on_c, 4, 52, 0
6, 121800, Note_on_c, 4, 54, 100
6, 121920, Note_on_c, 4, 54, 0
6, 121920, Note_on_c, 4, 55, 100
6, 122040, Note_on_c, 4, 55, 0
6, 122040, Note_on_c, 4, 57, 100
6, 122160, Note_on_c, 4, 57, 0
6, 122160, Note_on_c, 4, 59, 100
6, 122280, Note_on_c, 4, 59, 0
6, 122280, Note_on_c, 4, 55, 100
6, 122400, Note_on_c, 4, 55, 0
6, 122400, Note_on_c, 4, 48, 100
6, 122520, Note_on_c, 4, 48, 0
6, 122520, Note_on_c, 4, 47, 100
6, 122640, Note_on_c, 4, 47, 0
6, 122640, Note_on_c, 4, 48, 100
6, 123000, Note_on_c, 4, 48, 0
6, 123000, Note_on_c, 4, 52, 100
6, 123120, Note_on_c, 4, 52, 0
6, 123120, Note_on_c, 4, 54, 100
6, 123240, Note_on_c, 4, 54, 0
6, 123240, Note_on_c, 4, 55, 100
6, 123360, Note_on_c, 4, 55, 0
6, 123360, Note_on_c, 4, 57, 100
6, 123480, Note_on_c, 4, 57, 0
6, 123480, Note_on_c, 4, 59, 100
6, 123600, Note_on_c, 4, 59, 0
6, 123600, Note_on_c, 4, 60, 100
6, 123720, Note_on_c, 4, 60, 0
6, 123720, Note_on_c, 4, 57, 100
6, 123840, Note_on_c, 4, 57, 0
6, 123840, Note_on_c, 4, 50, 100
6, 123960, Note_on_c, 4, 50, 0
6, 123960, Note_on_c, 4, 49, 100
6, 124080, Note_on_c, 4, 49, 0
6, 124080, Note_on_c, 4, 50, 100
6, 124440, Note_on_c, 4, 50, 0
6, 124440, Note_on_c, 4, 57, 100
6, 124560, Note_on_c, 4, 57, 0
6, 124560, Note_on_c, 4, 59, 100
6, 124680, Note_on_c, 4, 59, 0
6, 124680, Note_on_c, 4, 60, 100
6, 124800, Note_on_c, 4, 60, 0
6, 124800, Note_on_c, 4, 62, 100
6, 124920, Note_on_c, 4, 62, 0
6, 124920, Note_on_c, 4, 64, 100
6, 125040, Note_on_c, 4, 64, 0
6, 125040, Note_on_c, 4, 66, 100
6, 125160, Note_on_c, 4, 66, 0
6, 125160, Note_on_c, 4, 62, 100
6, 125280, Note_on_c, 4, 62, 0
6, 125280, Note_on_c, 4, 67, 100
6, 125400, Note_on_c, 4, 67, 0
6, 125400, Note_on_c, 4, 66, 100
6, 125520, Note_on_c, 4, 66, 0
6, 125520, Note_on_c, 4, 67, 100
6, 125640, Note_on_c, 4, 67, 0
6, 125640, Note_on_c, 4, 62, 100
6, 125760, Note_on_c, 4, 62, 0
6, 125760, Note_on_c, 4, 59, 100
6, 125880, Note_on_c, 4, 59, 0
6, 125880, Note_on_c, 4, 62, 100
6, 126000, Note_on_c, 4, 62, 0
6, 126000, Note_on_c, 4, 55, 100
6, 126120, Note_on_c, 4, 55, 0
6, 126120, Note_on_c, 4, 59, 100
6, 126240, Note_on_c, 4, 59, 0
6, 126240, Note_on_c, 4, 50, 100
6, 126360, Note_on_c, 4, 50, 0
6, 126360, Note_on_c, 4, 55, 100
6, 126480, Note_on_c, 4, 55, 0
6, 126480, Note_on_c, 4, 47, 100
6, 126600, Note_on_c, 4, 47, 0
6, 126600, Note_on_c, 4, 50, 100
6, 126720, Note_on_c, 4, 50, 0
6, 126720, Note_on_c, 4, 43, 100
6, 126960, Note_on_c, 4, 43, 0
6, 126960, Note_on_c, 4, 55, 100
6, 127200, Note_on_c, 4, 55, 0
6, 127200, Note_on_c, 4, 59, 100
6, 127440, Note_on_c, 4, 59, 0
6, 127440, Note_on_c, 4, 55, 100
6, 127680, Note_on_c, 4, 55, 0
6, 127680, Note_on_c, 4, 43, 100
6, 127920, Note_on_c, 4, 43, 0
6, 127920, Note_on_c, 4, 55, 100
6, 128160, Note_on_c, 4, 55, 0
6, 128160, Note_on_c, 4, 42, 100
6, 128400, Note_on_c, 4, 42, 0
6, 128400, Note_on_c, 4, 54, 100
6, 128640, Note_on_c, 4, 54, 0
6, 128640, Note_on_c, 4, 57, 100
6, 128880, Note_on_c, 4, 57, 0
6, 128880, Note_on_c, 4, 54, 100
6, 129120, Note_on_c, 4, 54, 0
6, 129120, Note_on_c, 4, 42, 100
6, 129360, Note_on_c, 4, 42, 0
6, 129360, Note_on_c, 4, 54, 100
6, 129600, Note_on_c, 4, 54, 0
6, 129600, Note_on_c, 4, 40, 100
6, 129840, Note_on_c, 4, 40, 0
6, 129840, Note_on_c, 4, 52, 100
6, 130080, Note_on_c, 4, 52, 0
6, 130080, Note_on_c, 4, 55, 100
6, 130320, Note_on_c, 4, 55, 0
6, 130320, Note_on_c, 4, 52, 100
6, 130560, Note_on_c, 4, 52, 0
6, 130560, Note_on_c, 4, 40, 100
6, 130800, Note_on_c, 4, 40, 0
6, 130800, Note_on_c, 4, 55, 100
6, 131040, Note_on_c, 4, 55, 0
6, 131040, Note_on_c, 4, 45, 100
6, 131280, Note_on_c, 4, 45, 0
6, 131280, Note_on_c, 4, 52, 100
6, 131520, Note_on_c, 4, 52, 0
6, 131520, Note_on_c, 4, 55, 100
6, 131760, Note_on_c, 4, 55, 0
6, 131760, Note_on_c, 4, 52, 100
6, 132000, Note_on_c, 4, 52, 0
6, 132000, Note_on_c, 4, 45, 100
6, 132240, Note_on_c, 4, 45, 0
6, 132240, Note_on_c, 4, 55, 100
6, 132480, Note_on_c, 4, 55, 0
6, 132480, Note_on_c, 4, 54, 100
6, 132600, Note_on_c, 4, 54, 0
6, 132600, Note_on_c, 4, 57, 100
6, 132720, Note_on_c, 4, 57, 0
6, 132720, Note_on_c, 4, 62, 100
6, 132840, Note_on_c, 4, 62, 0
6, 132840, Note_on_c, 4, 66, 100
6, 132960, Note_on_c, 4, 66, 0
6, 132960, Note_on_c, 4, 69, 100
6, 133080, Note_on_c, 4, 69, 0
6, 133080, Note_on_c, 4, 66, 100
6, 133200, Note_on_c, 4, 66, 0
6, 133200, Note_on_c, 4, 62, 100
6, 133320, Note_on_c, 4, 62, 0
6, 133320, Note_on_c, 4, 57, 100
6, 133440, Note_on_c, 4, 57, 0
6, 133440, Note_on_c, 4, 54, 100
6, 133560, Note_on_c, 4, 54, 0
6, 133560, Note_on_c, 4, 57, 100
6, 133680, Note_on_c, 4, 57, 0
6, 133680, Note_on_c, 4, 50, 100
6, 133800, Note_on_c, 4, 50, 0
6, 133800, Note_on_c, 4, 54, 100
6, 133920, Note_on_c, 4, 54, 0
6, 133920, Note_on_c, 4, 55, 100
6, 134040, Note_on_c, 4, 55, 0
6, 134040, Note_on_c, 4, 59, 100
6, 134160, Note_on_c, 4, 59, 0
6, 134160, Note_on_c, 4, 62, 100
6, 134280, Note_on_c, 4, 62, 0
6, 134280, Note_on_c, 4, 67, 100
6, 134400, Note_on_c, 4, 67, 0
6, 134400, Note_on_c, 4, 71, 100
6, 134520, Note_on_c, 4, 71, 0
6, 134520, Note_on_c, 4, 67, 100
6, 134640, Note_on_c, 4, 67, 0
6, 134640, Note_on_c, 4, 62, 100
6, 134760, Note_on_c, 4, 62, 0
6, 134760, Note_on_c, 4, 59, 100
6, 134880, Note_on_c, 4, 59, 0
6, 134880, Note_on_c, 4, 55, 100
6, 135000, Note_on_c, 4, 55, 0
6, 135000, Note_on_c, 4, 59, 100
6, 135120, Note_on_c, 4, 59, 0
6, 135120, Note_on_c, 4, 52, 100
6, 135240, Note_on_c, 4, 52, 0
6, 135240, Note_on_c, 4, 55, 100
6, 135360, Note_on_c, 4, 55, 0
6, 135360, Note_on_c, 4, 57, 100
6, 135600, Note_on_c, 4, 57, 0
6, 135600, Note_on_c, 4, 61, 100
6, 135840, Note_on_c, 4, 61, 0
6, 135840, Note_on_c, 4, 62, 100
6, 135960, Note_on_c, 4, 62, 0
6, 135960, Note_on_c, 4, 57, 100
6, 136080, Note_on_c, 4, 57, 0
6, 136080, Note_on_c, 4, 54, 100
6, 136200, Note_on_c, 4, 54, 0
6, 136200, Note_on_c, 4, 50, 100
6, 136320, Note_on_c, 4, 50, 0
6, 136320, Note_on_c, 4, 57, 100
6, 136560, Note_on_c, 4, 57, 0
6, 136560, Note_on_c, 4, 45, 100
6, 136800, Note_on_c, 4, 45, 0
6, 136800, Note_on_c, 4, 38, 100
6, 136920, Note_on_c, 4, 38, 0
6, 136920, Note_on_c, 4, 50, 100
6, 137040, Note_on_c, 4, 50, 0
6, 137040, Note_on_c, 4, 52, 100
6, 137160, Note_on_c, 4, 52, 0
6, 137160, Note_on_c, 4, 54, 100
6, 137280, Note_on_c, 4, 54, 0
6, 137280, Note_on_c, 4, 55, 100
6, 137400, Note_on_c, 4, 55, 0
6, 137400, Note_on_c, 4, 57, 100
6, 137520, Note_on_c, 4, 57, 0
6, 137520, Note_on_c, 4, 59, 100
6, 137640, Note_on_c, 4, 59, 0
6, 137640, Note_on_c, 4, 61, 100
6, 137760, Note_on_c, 4, 61, 0
6, 137760, Note_on_c, 4, 62, 100
6, 138240, Note_on_c, 4, 62, 0
6, 138240, Note_on_c, 4, 38, 100
6, 138480, Note_on_c, 4, 38, 0
6, 138480, Note_on_c, 4, 54, 100
6, 138600, Note_on_c, 4, 54, 0
6, 138600, Note_on_c, 4, 52, 100
6, 138720, Note_on_c, 4, 52, 0
6, 138720, Note_on_c, 4, 54, 100
6, 138960, Note_on_c, 4, 54, 0
6, 138960, Note_on_c, 4, 50, 100
6, 139200, Note_on_c, 4, 50, 0
6, 139200, Note_on_c, 4, 38, 100
6, 139440, Note_on_c, 4, 38, 0
6, 139440, Note_on_c, 4, 54, 100
6, 139680, Note_on_c, 4, 54, 0
6, 139680, Note_on_c, 4, 43, 100
6, 139920, Note_on_c, 4, 43, 0
6, 139920, Note_on_c, 4, 59, 100
6, 140040, Note_on_c, 4, 59, 0
6, 140040, Note_on_c, 4, 57, 100
6, 140160, Note_on_c, 4, 57, 0
6, 140160, Note_on_c, 4, 59, 100
6, 140400, Note_on_c, 4, 59, 0
6, 140400, Note_on_c, 4, 55, 100
6, 140640, Note_on_c, 4, 55, 0
6, 140640, Note_on_c, 4, 43, 100
6, 140880, Note_on_c, 4, 43, 0
6, 140880, Note_on_c, 4, 59, 100
6, 141120, Note_on_c, 4, 59, 0
6, 141120, Note_on_c, 4, 48, 100
6, 141360, Note_on_c, 4, 48, 0
6, 141360, Note_on_c, 4, 60, 100
6, 141480, Note_on_c, 4, 60, 0
6, 141480, Note_on_c, 4, 59, 100
6, 141600, Note_on_c, 4, 59, 0
6, 141600, Note_on_c, 4, 60, 100
6, 141840, Note_on_c, 4, 60, 0
6, 141840, Note_on_c, 4, 54, 100
6, 142080, Note_on_c, 4, 54, 0
6, 142080, Note_on_c, 4, 57, 100
6, 142320, Note_on_c, 4, 57, 0
6, 142320, Note_on_c, 4, 60, 100
6, 142560, Note_on_c, 4, 60, 0
6, 142560, Note_on_c, 4, 57, 100
6, 142800, Note_on_c, 4, 57, 0
6, 142800, Note_on_c, 4, 54, 100
6, 143040, Note_on_c, 4, 54, 0
6, 143040, Note_on_c, 4, 51, 100
6, 143160, Note_on_c, 4, 51, 0
6, 143160, Note_on_c, 4, 47, 100
6, 143280, Note_on_c, 4, 47, 0
6, 143280, Note_on_c, 4, 51, 100
6, 143400, Note_on_c, 4, 51, 0
6, 143400, Note_on_c, 4, 54, 100
6, 143520, Note_on_c, 4, 54, 0
6, 143520, Note_on_c, 4, 59, 100
6, 143640, Note_on_c, 4, 59, 0
6, 143640, Note_on_c, 4, 63, 100
6, 143760, Note_on_c, 4, 63, 0
6, 143760, Note_on_c, 4, 66, 100
6, 143880, Note_on_c, 4, 66, 0
6, 143880, Note_on_c, 4, 69, 100
6, 144000, Note_on_c, 4, 69, 0
6, 144000, Note_on_c, 4, 67, 100
6, 144360, Note_on_c, 4, 67, 0
6, 144360, Note_on_c, 4, 66, 100
6, 144480, Note_on_c, 4, 66, 0
6, 144480, Note_on_c, 4, 67, 100
6, 144840, Note_on_c, 4, 67, 0
6, 144840, Note_on_c, 4, 54, 100
6, 144960, Note_on_c, 4, 54, 0
6, 144960, Note_on_c, 4, 55, 100
6, 145320, Note_on_c, 4, 55, 0
6, 145320, Note_on_c, 4, 47, 100
6, 145440, Note_on_c, 4, 47, 0
6, 145440, Note_on_c, 4, 48, 100
6, 145800, Note_on_c, 4, 48, 0
6, 145800, Note_on_c, 4, 71, 100
6, 145920, Note_on_c, 4, 71, 0
6, 145920, Note_on_c, 4, 72, 100
6, 146280, Note_on_c, 4, 72, 0
6, 146280, Note_on_c, 4, 59, 100
6, 146400, Note_on_c, 4, 59, 0
6, 146400, Note_on_c, 4, 60, 100
6, 146760, Note_on_c, 4, 60, 0
6, 146760, Note_on_c, 4, 52, 100
6, 146880, Note_on_c, 4, 52, 0
6, 146880, Note_on_c, 4, 51, 100
6, 147120, Note_on_c, 4, 51, 0
6, 147120, Note_on_c, 4, 57, 100
6, 147360, Note_on_c, 4, 57, 0
6, 147360, Note_on_c, 4, 55, 100
6, 147600, Note_on_c, 4, 55, 0
6, 147600, Note_on_c, 4, 46, 100
6, 147840, Note_on_c, 4, 46, 0
6, 147840, Note_on_c, 4, 47, 100
6, 148080, Note_on_c, 4, 47, 0
6, 148080, Note_on_c, 4, 54, 100
6, 148320, Note_on_c, 4, 54, 0
6, 148320, Note_on_c, 4, 52, 100
6, 148560, Note_on_c, 4, 52, 0
6, 148560, Note_on_c, 4, 55, 100
6, 148680, Note_on_c, 4, 55, 0
6, 148680, Note_on_c, 4, 54, 100
6, 148800, Note_on_c, 4, 54, 0
6, 148800, Note_on_c, 4, 55, 100
6, 149040, Note_on_c, 4, 55, 0
6, 149040, Note_on_c, 4, 52, 100
6, 149280, Note_on_c, 4, 52, 0
6, 149280, Note_on_c, 4, 40, 100
6, 149520, Note_on_c, 4, 40, 0
6, 149640, Note_on_c, 4, 50, 100
6, 149760, Note_on_c, 4, 50, 0
6, 149760, Note_on_c, 4, 48, 100
6, 149880, Note_on_c, 4, 48, 0
6, 149880, Note_on_c, 4, 52, 100
6, 150000, Note_on_c, 4, 52, 0
6, 150000, Note_on_c, 4, 57, 100
6, 150120, Note_on_c, 4, 57, 0
6, 150120, Note_on_c, 4, 60, 100
6, 150240, Note_on_c, 4, 60, 0
6, 150240, Note_on_c, 4, 64, 100
6, 150360, Note_on_c, 4, 64, 0
6, 150360, Note_on_c, 4, 60, 100
6, 150480, Note_on_c, 4, 60, 0
6, 150480, Note_on_c, 4, 57, 100
6, 150600, Note_on_c, 4, 57, 0
6, 150600, Note_on_c, 4, 52, 100
6, 150720, Note_on_c, 4, 52, 0
6, 150720, Note_on_c, 4, 48, 100
6, 150840, Note_on_c, 4, 48, 0
6, 150840, Note_on_c, 4, 52, 100
6, 150960, Note_on_c, 4, 52, 0
6, 150960, Note_on_c, 4, 50, 100
6, 151080, Note_on_c, 4, 50, 0
6, 151080, Note_on_c, 4, 48, 100
6, 151200, Note_on_c, 4, 48, 0
6, 151200, Note_on_c, 4, 47, 100
6, 151320, Note_on_c, 4, 47, 0
6, 151320, Note_on_c, 4, 50, 100
6, 151440, Note_on_c, 4, 50, 0
6, 151440, Note_on_c, 4, 55, 100
6, 151560, Note_on_c, 4, 55, 0
6, 151560, Note_on_c, 4, 59, 100
6, 151680, Note_on_c, 4, 59, 0
6, 151680, Note_on_c, 4, 62, 100
6, 151800, Note_on_c, 4, 62, 0
6, 151800, Note_on_c, 4, 59, 100
6, 151920, Note_on_c, 4, 59, 0
6, 151920, Note_on_c, 4, 55, 100
6, 152040, Note_on_c, 4, 55, 0
6, 152040, Note_on_c, 4, 50, 100
6, 152160, Note_on_c, 4, 50, 0
6, 152160, Note_on_c, 4, 47, 100
6, 152280, Note_on_c, 4, 47, 0
6, 152280, Note_on_c, 4, 50, 100
6, 152400, Note_on_c, 4, 50, 0
6, 152400, Note_on_c, 4, 48, 100
6, 152520, Note_on_c, 4, 48, 0
6, 152520, Note_on_c, 4, 47, 100
6, 152640, Note_on_c, 4, 47, 0
6, 152640, Note_on_c, 4, 45, 100
6, 152880, Note_on_c, 4, 45, 0
6, 152880, Note_on_c, 4, 48, 100
6, 153120, Note_on_c, 4, 48, 0
6, 153120, Note_on_c, 4, 52, 100
6, 153360, Note_on_c, 4, 52, 0
6, 153360, Note_on_c, 4, 55, 100
6, 153600, Note_on_c, 4, 55, 0
6, 153600, Note_on_c, 4, 54, 100
6, 153840, Note_on_c, 4, 54, 0
6, 153840, Note_on_c, 4, 52, 100
6, 154080, Note_on_c, 4, 52, 0
6, 154080, Note_on_c, 4, 50, 100
6, 154320, Note_on_c, 4, 50, 0
6, 154320, Note_on_c, 4, 54, 100
6, 154560, Note_on_c, 4, 54, 0
6, 154560, Note_on_c, 4, 57, 100
6, 154800, Note_on_c, 4, 57, 0
6, 154800, Note_on_c, 4, 60, 100
6, 155040, Note_on_c, 4, 60, 0
6, 155040, Note_on_c, 4, 59, 100
6, 155280, Note_on_c, 4, 59, 0
6, 155280, Note_on_c, 4, 57, 100
6, 155520, Note_on_c, 4, 57, 0
6, 155520, Note_on_c, 4, 55, 100
6, 155760, Note_on_c, 4, 55, 0
6, 155760, Note_on_c, 4, 59, 100
6, 156000, Note_on_c, 4, 59, 0
6, 156000, Note_on_c, 4, 62, 100
6, 156240, Note_on_c, 4, 62, 0
6, 156240, Note_on_c, 4, 65, 100
6, 156480, Note_on_c, 4, 65, 0
6, 156480, Note_on_c, 4, 64, 100
6, 156720, Note_on_c, 4, 64, 0
6, 156720, Note_on_c, 4, 62, 100
6, 156960, Note_on_c, 4, 62, 0
6, 156960, Note_on_c, 4, 60, 100
6, 157200, Note_on_c, 4, 60, 0
6, 157200, Note_on_c, 4, 64, 100
6, 157440, Note_on_c, 4, 64, 0
6, 157440, Note_on_c, 4, 66, 100
6, 157680, Note_on_c, 4, 66, 0
6, 157680, Note_on_c, 4, 68, 100
6, 157920, Note_on_c, 4, 68, 0
6, 157920, Note_on_c, 4, 69, 100
6, 158160, Note_on_c, 4, 69, 0
6, 158160, Note_on_c, 4, 67, 100
6, 158400, Note_on_c, 4, 67, 0
6, 158400, Note_on_c, 4, 66, 100
6, 158640, Note_on_c, 4, 66, 0
6, 158640, Note_on_c, 4, 62, 100
6, 158880, Note_on_c, 4, 62, 0
6, 158880, Note_on_c, 4, 67, 100
6, 159120, Note_on_c, 4, 67, 0
6, 159120, Note_on_c, 4, 55, 100
6, 159360, Note_on_c, 4, 55, 0
6, 159360, Note_on_c, 4, 62, 100
6, 159600, Note_on_c, 4, 62, 0
6, 159600, Note_on_c, 4, 50, 100
6, 159840, Note_on_c, 4, 50, 0
6, 159840, Note_on_c, 4, 55, 100
6, 159960, Note_on_c, 4, 55, 0
6, 159960, Note_on_c, 4, 43, 100
6, 160080, Note_on_c, 4, 43, 0
6, 160080, Note_on_c, 4, 45, 100
6, 160200, Note_on_c, 4, 45, 0
6, 160200, Note_on_c, 4, 47, 100
6, 160320, Note_on_c, 4, 47, 0
6, 160320, Note_on_c, 4, 48, 100
6, 160440, Note_on_c, 4, 48, 0
6, 160440, Note_on_c, 4, 50, 100
6, 160560, Note_on_c, 4, 50, 0
6, 160560, Note_on_c, 4, 52, 100
6, 160680, Note_on_c, 4, 52, 0
6, 160680, Note_on_c, 4, 54, 100
6, 160800, Note_on_c, 4, 54, 0
6, 160800, Note_on_c, 4, 55, 100
6, 161280, Note_on_c, 4, 55, 0
6, 161280, Note_on_c, 4, 38, 100
6, 161520, Note_on_c, 4, 38, 0
6, 161520, Note_on_c, 4, 54, 100
6, 161640, Note_on_c, 4, 54, 0
6, 161640, Note_on_c, 4, 52, 100
6, 161760, Note_on_c, 4, 52, 0
6, 161760, Note_on_c, 4, 54, 100
6, 162000, Note_on_c, 4, 54, 0
6, 162000, Note_on_c, 4, 50, 100
6, 162240, Note_on_c, 4, 50, 0
6, 162240, Note_on_c, 4, 38, 100
6, 162480, Note_on_c, 4, 38, 0
6, 162480, Note_on_c, 4, 54, 100
6, 162720, Note_on_c, 4, 54, 0
6, 162720, Note_on_c, 4, 43, 100
6, 162960, Note_on_c, 4, 43, 0
6, 162960, Note_on_c, 4, 59, 100
6, 163080, Note_on_c, 4, 59, 0
6, 163080, Note_on_c, 4, 57, 100
6, 163200, Note_on_c, 4, 57, 0
6, 163200, Note_on_c, 4, 59, 100
6, 163440, Note_on_c, 4, 59, 0
6, 163440, Note_on_c, 4, 55, 100
6, 163680, Note_on_c, 4, 55, 0
6, 163680, Note_on_c, 4, 43, 100
6, 163920, Note_on_c, 4, 43, 0
6, 163920, Note_on_c, 4, 59, 100
6, 164160, Note_on_c, 4, 59, 0
6, 164160, Note_on_c, 4, 48, 100
6, 164400, Note_on_c, 4, 48, 0
6, 164400, Note_on_c, 4, 60, 100
6, 164520, Note_on_c, 4, 60, 0
6, 164520, Note_on_c, 4, 59, 100
6, 164640, Note_on_c, 4, 59, 0
6, 164640, Note_on_c, 4, 60, 100
6, 164880, Note_on_c, 4, 60, 0
6, 164880, Note_on_c, 4, 54, 100
6, 165120, Note_on_c, 4, 54, 0
6, 165120, Note_on_c, 4, 57, 100
6, 165360, Note_on_c, 4, 57, 0
6, 165360, Note_on_c, 4, 60, 100
6, 165600, Note_on_c, 4, 60, 0
6, 165600, Note_on_c, 4, 57, 100
6, 165840, Note_on_c, 4, 57, 0
6, 165840, Note_on_c, 4, 54, 100
6, 166080, Note_on_c, 4, 54, 0
6, 166080, Note_on_c, 4, 51, 100
6, 166200, Note_on_c, 4, 51, 0
6, 166200, Note_on_c, 4, 47, 100
6, 166320, Note_on_c, 4, 47, 0
6, 166320, Note_on_c, 4, 51, 100
6, 166440, Note_on_c, 4, 51, 0
6, 166440, Note_on_c, 4, 54, 100
6, 166560, Note_on_c, 4, 54, 0
6, 166560, Note_on_c, 4, 59, 100
6, 166680, Note_on_c, 4, 59, 0
6, 166680, Note_on_c, 4, 63, 100
6, 166800, Note_on_c, 4, 63, 0
6, 166800, Note_on_c, 4, 66, 100
6, 166920, Note_on_c, 4, 66, 0
6, 166920, Note_on_c, 4, 69, 100
6, 167040, Note_on_c, 4, 69, 0
6, 167040, Note_on_c, 4, 67, 100
6, 167400, Note_on_c, 4, 67, 0
6, 167400, Note_on_c, 4, 66, 100
6, 167520, Note_on_c, 4, 66, 0
6, 167520, Note_on_c, 4, 67, 100
6, 167880, Note_on_c, 4, 67, 0
6, 167880, Note_on_c, 4, 54, 100
6, 168000, Note_on_c, 4, 54, 0
6, 168000, Note_on_c, 4, 55, 100
6, 168360, Note_on_c, 4, 55, 0
6, 168360, Note_on_c, 4, 47, 100
6, 168480, Note_on_c, 4, 47, 0
6, 168480, Note_on_c, 4, 48, 100
6, 168840, Note_on_c, 4, 48, 0
6, 168840, Note_on_c, 4, 71, 100
6, 168960, Note_on_c, 4, 71, 0
6, 168960, Note_on_c, 4, 72, 100
6, 169320, Note_on_c, 4, 72, 0
6, 169320, Note_on_c, 4, 59, 100
6, 169440, Note_on_c, 4, 59, 0
6, 169440, Note_on_c, 4, 60, 100
6, 169800, Note_on_c, 4, 60, 0
6, 169800, Note_on_c, 4, 52, 100
6, 169920, Note_on_c, 4, 52, 0
6, 169920, Note_on_c, 4, 51, 100
6, 170160, Note_on_c, 4, 51, 0
6, 170160, Note_on_c, 4, 57, 100
6, 170400, Note_on_c, 4, 57, 0
6, 170400, Note_on_c, 4, 55, 100
6, 170640, Note_on_c, 4, 55, 0
6, 170640, Note_on_c, 4, 46, 100
6, 170880, Note_on_c, 4, 46, 0
6, 170880, Note_on_c, 4, 47, 100
6, 171120, Note_on_c, 4, 47, 0
6, 171120, Note_on_c, 4, 54, 100
6, 171360, Note_on_c, 4, 54, 0
6, 171360, Note_on_c, 4, 52, 100
6, 171600, Note_on_c, 4, 52, 0
6, 171600, Note_on_c, 4, 55, 100
6, 171720, Note_on_c, 4, 55, 0
6, 171720, Note_on_c, 4, 54, 100
6, 171840, Note_on_c, 4, 54, 0
6, 171840, Note_on_c, 4, 55, 100
6, 172080, Note_on_c, 4, 55, 0
6, 172080, Note_on_c, 4, 52, 100
6, 172320, Note_on_c, 4, 52, 0
6, 172320, Note_on_c, 4, 40, 100
6, 172560, Note_on_c, 4, 40, 0
6, 172680, Note_on_c, 4, 50, 100
6, 172800, Note_on_c, 4, 50, 0
6, 172800, Note_on_c, 4, 48, 100
6, 172920, Note_on_c, 4, 48, 0
6, 172920, Note_on_c, 4, 52, 100
6, 173040, Note_on_c, 4, 52, 0
6, 173040, Note_on_c, 4, 57, 100
6, 173160, Note_on_c, 4, 57, 0
6, 173160, Note_on_c, 4, 60, 100
6, 173280, Note_on_c, 4, 60, 0
6, 173280, Note_on_c, 4, 64, 100
6, 173400, Note_on_c, 4, 64, 0
6, 173400, Note_on_c, 4, 60, 100
6, 173520, Note_on_c, 4, 60, 0
6, 173520, Note_on_c, 4, 57, 100
6, 173640, Note_on_c, 4, 57, 0
6, 173640, Note_on_c, 4, 52, 100
6, 173760, Note_on_c, 4, 52, 0
6, 173760, Note_on_c, 4, 48, 100
6, 173880, Note_on_c, 4, 48, 0
6, 173880, Note_on_c, 4, 52, 100
6, 174000, Note_on_c, 4, 52, 0
6, 174000, Note_on_c, 4, 50, 100
6, 174120, Note_on_c, 4, 50, 0
6, 174120, Note_on_c, 4, 48, 100
6, 174240, Note_on_c, 4, 48, 0
6, 174240, Note_on_c, 4, 47, 100
6, 174360, Note_on_c, 4, 47, 0
6, 174360, Note_on_c, 4, 50, 100
6, 174480, Note_on_c, 4, 50, 0
6, 174480, Note_on_c, 4, 55, 100
6, 174600, Note_on_c, 4, 55, 0
6, 174600, Note_on_c, 4, 59, 100
6, 174720, Note_on_c, 4, 59, 0
6, 174720, Note_on_c, 4, 62, 100
6, 174840, Note_on_c, 4, 62, 0
6, 174840, Note_on_c, 4, 59, 100
6, 174960, Note_on_c, 4, 59, 0
6, 174960, Note_on_c, 4, 55, 100
6, 175080, Note_on_c, 4, 55, 0
6, 175080, Note_on_c, 4, 50, 100
6, 175200, Note_on_c, 4, 50, 0
6, 175200, Note_on_c, 4, 47, 100
6, 175320, Note_on_c, 4, 47, 0
6, 175320, Note_on_c, 4, 50, 100
6, 175440, Note_on_c, 4, 50, 0
6, 175440, Note_on_c, 4, 48, 100
6, 175560, Note_on_c, 4, 48, 0
6, 175560, Note_on_c, 4, 47, 100
6, 175680, Note_on_c, 4, 47, 0
6, 175680, Note_on_c, 4, 45, 100
6, 175920, Note_on_c, 4, 45, 0
6, 175920, Note_on_c, 4, 48, 100
6, 176160, Note_on_c, 4, 48, 0
6, 176160, Note_on_c, 4, 52, 100
6, 176400, Note_on_c, 4, 52, 0
6, 176400, Note_on_c, 4, 55, 100
6, 176640, Note_on_c, 4, 55, 0
6, 176640, Note_on_c, 4, 54, 100
6, 176880, Note_on_c, 4, 54, 0
6, 176880, Note_on_c, 4, 52, 100
6, 177120, Note_on_c, 4, 52, 0
6, 177120, Note_on_c, 4, 50, 100
6, 177360, Note_on_c, 4, 50, 0
6, 177360, Note_on_c, 4, 54, 100
6, 177600, Note_on_c, 4, 54, 0
6, 177600, Note_on_c, 4, 57, 100
6, 177840, Note_on_c, 4, 57, 0
6, 177840, Note_on_c, 4, 60, 100
6, 178080, Note_on_c, 4, 60, 0
6, 178080, Note_on_c, 4, 59, 100
6, 178320, Note_on_c, 4, 59, 0
6, 178320, Note_on_c, 4, 57, 100
6, 178560, Note_on_c, 4, 57, 0
6, 178560, Note_on_c, 4, 55, 100
6, 178800, Note_on_c, 4, 55, 0
6, 178800, Note_on_c, 4, 59, 100
6, 179040, Note_on_c, 4, 59, 0
6, 179040, Note_on_c, 4, 62, 100
6, 179280, Note_on_c, 4, 62, 0
6, 179280, Note_on_c, 4, 65, 100
6, 179520, Note_on_c, 4, 65, 0
6, 179520, Note_on_c, 4, 64, 100
6, 179760, Note_on_c, 4, 64, 0
6, 179760, Note_on_c, 4, 62, 100
6, 180000, Note_on_c, 4, 62, 0
6, 180000, Note_on_c, 4, 60, 100
6, 180240, Note_on_c, 4, 60, 0
6, 180240, Note_on_c, 4, 64, 100
6, 180480, Note_on_c, 4, 64, 0
6, 180480, Note_on_c, 4, 66, 100
6, 180720, Note_on_c, 4, 66, 0
6, 180720, Note_on_c, 4, 68, 100
6, 180960, Note_on_c, 4, 68, 0
6, 180960, Note_on_c, 4, 69, 100
6, 181200, Note_on_c, 4, 69, 0
6, 181200, Note_on_c, 4, 67, 100
6, 181440, Note_on_c, 4, 67, 0
6, 181440, Note_on_c, 4, 66, 100
6, 181680, Note_on_c, 4, 66, 0
6, 181680, Note_on_c, 4, 62, 100
6, 181920, Note_on_c, 4, 62, 0
6, 181920, Note_on_c, 4, 67, 100
6, 182160, Note_on_c, 4, 67, 0
6, 182160, Note_on_c, 4, 55, 100
6, 182400, Note_on_c, 4, 55, 0
6, 182400, Note_on_c, 4, 62, 100
6, 182640, Note_on_c, 4, 62, 0
6, 182640, Note_on_c, 4, 50, 100
6, 182880, Note_on_c, 4, 50, 0
6, 182880, Note_on_c, 4, 55, 100
6, 183000, Note_on_c, 4, 55, 0
6, 183000, Note_on_c, 4, 43, 100
6, 183120, Note_on_c, 4, 43, 0
6, 183120, Note_on_c, 4, 45, 100
6, 183240, Note_on_c, 4, 45, 0
6, 183240, Note_on_c, 4, 47, 100
6, 183360, Note_on_c, 4, 47, 0
6, 183360, Note_on_c, 4, 48, 100
6, 183480, Note_on_c, 4, 48, 0
6, 183480, Note_on_c, 4, 50, 100
6, 183600, Note_on_c, 4, 50, 0
6, 183600, Note_on_c, 4, 52, 100
6, 183720, Note_on_c, 4, 52, 0
6, 183720, Note_on_c, 4, 54, 100
6, 183840, Note_on_c, 4, 54, 0
6, 183840, Note_on_c, 4, 55, 100
6, 184320, Note_on_c, 4, 55, 0
6, 339600, Note_on_c, 4, 59, 100
6, 339840, Note_on_c, 4, 59, 0
6, 339840, Note_on_c, 4, 55, 100
6, 340080, Note_on_c, 4, 55, 0
6, 340080, Note_on_c, 4, 62, 100
6, 340560, Note_on_c, 4, 62, 0
6, 341040, Note_on_c, 4, 55, 100
6, 341280, Note_on_c, 4, 55, 0
6, 341280, Note_on_c, 4, 59, 100
6, 341520, Note_on_c, 4, 59, 0
6, 341520, Note_on_c, 4, 52, 100
6, 341760, Note_on_c, 4, 52, 0
6, 341760, Note_on_c, 4, 57, 100
6, 342000, Note_on_c, 4, 57, 0
6, 342000, Note_on_c, 4, 55, 100
6, 342480, Note_on_c, 4, 55, 0
6, 342480, Note_on_c, 4, 54, 100
6, 342600, Note_on_c, 4, 54, 0
6, 342600, Note_on_c, 4, 52, 100
6, 342720, Note_on_c, 4, 52, 0
6, 342720, Note_on_c, 4, 54, 100
6, 342960, Note_on_c, 4, 54, 0
6, 342960, Note_on_c, 4, 55, 100
6, 343200, Note_on_c, 4, 55, 0
6, 343200, Note_on_c, 4, 50, 100
6, 343440, Note_on_c, 4, 50, 0
6, 344640, Note_on_c, 4, 62, 100
6, 344880, Note_on_c, 4, 62, 0
6, 344880, Note_on_c, 4, 66, 100
6, 345120, Note_on_c, 4, 66, 0
6, 345120, Note_on_c, 4, 59, 100
6, 345360, Note_on_c, 4, 59, 0
6, 345360, Note_on_c, 4, 64, 100
6, 345600, Note_on_c, 4, 64, 0
6, 346080, Note_on_c, 4, 61, 100
6, 346320, Note_on_c, 4, 61, 0
6, 346320, Note_on_c, 4, 64, 100
6, 346560, Note_on_c, 4, 64, 0
6, 346560, Note_on_c, 4, 57, 100
6, 347520, Note_on_c, 4, 57, 0
6, 347520, Note_on_c, 4, 55, 100
6, 347760, Note_on_c, 4, 55, 0
6, 347760, Note_on_c, 4, 59, 100
6, 348000, Note_on_c, 4, 59, 0
6, 348000, Note_on_c, 4, 52, 100
6, 348240, Note_on_c, 4, 52, 0
6, 348240, Note_on_c, 4, 54, 100
6, 348480, Note_on_c, 4, 54, 0
6, 348480, Note_on_c, 4, 52, 100
6, 348720, Note_on_c, 4, 52, 0
6, 348720, Note_on_c, 4, 50, 100
6, 349200, Note_on_c, 4, 50, 0
6, 351120, Note_on_c, 4, 59, 100
6, 351360, Note_on_c, 4, 59, 0
6, 351360, Note_on_c, 4, 55, 100
6, 351600, Note_on_c, 4, 55, 0
6, 351600, Note_on_c, 4, 62, 100
6, 352080, Note_on_c, 4, 62, 0
6, 352560, Note_on_c, 4, 55, 100
6, 352800, Note_on_c, 4, 55, 0
6, 352800, Note_on_c, 4, 59, 100
6, 353040, Note_on_c, 4, 59, 0
6, 353040, Note_on_c, 4, 52, 100
6, 353280, Note_on_c, 4, 52, 0
6, 353280, Note_on_c, 4, 57, 100
6, 353520, Note_on_c, 4, 57, 0
6, 353520, Note_on_c, 4, 55, 100
6, 354000, Note_on_c, 4, 55, 0
6, 354000, Note_on_c, 4, 54, 100
6, 354120, Note_on_c, 4, 54, 0
6, 354120, Note_on_c, 4, 52, 100
6, 354240, Note_on_c, 4, 52, 0
6, 354240, Note_on_c, 4, 54, 100
6, 354480, Note_on_c, 4, 54, 0
6, 354480, Note_on_c, 4, 55, 100
6, 354720, Note_on_c, 4, 55, 0
6, 354720, Note_on_c, 4, 50, 100
6, 354960, Note_on_c, 4, 50, 0
6, 356160, Note_on_c, 4, 62, 100
6, 356400, Note_on_c, 4, 62, 0
6, 356400, Note_on_c, 4, 66, 100
6, 356640, Note_on_c, 4, 66, 0
6, 356640, Note_on_c, 4, 59, 100
6, 356880, Note_on_c, 4, 59, 0
6, 356880, Note_on_c, 4, 64, 100
6, 357120, Note_on_c, 4, 64, 0
6, 357600, Note_on_c, 4, 61, 100
6, 357840, Note_on_c, 4, 61, 0
6, 357840, Note_on_c, 4, 64, 100
6, 358080, Note_on_c, 4, 64, 0
6, 358080, Note_on_c, 4, 57, 100
6, 359040, Note_on_c, 4, 57, 0
6, 359040, Note_on_c, 4, 55, 100
6, 359280, Note_on_c, 4, 55, 0
6, 359280, Note_on_c, 4, 59, 100
6, 359520, Note_on_c, 4, 59, 0
6, 359520, Note_on_c, 4, 52, 100
6, 359760, Note_on_c, 4, 52, 0
6, 359760, Note_on_c, 4, 54, 100
6, 360000, Note_on_c, 4, 54, 0
6, 360000, Note_on_c, 4, 52, 100
6, 360240, Note_on_c, 4, 52, 0
6, 360240, Note_on_c, 4, 50, 100
6, 360720, Note_on_c, 4, 50, 0
6, 361920, Note_on_c, 4, 62, 100
6, 362160, Note_on_c, 4, 62, 0
6, 362160, Note_on_c, 4, 67, 100
6, 362400, Note_on_c, 4, 67, 0
6, 362400, Note_on_c, 4, 64, 100
6, 362640, Note_on_c, 4, 64, 0
6, 362640, Note_on_c, 4, 60, 100
6, 363360, Note_on_c, 4, 60, 0
6, 363360, Note_on_c, 4, 59, 100
6, 363480, Note_on_c, 4, 59, 0
6, 363480, Note_on_c, 4, 57, 100
6, 363600, Note_on_c, 4, 57, 0
6, 363600, Note_on_c, 4, 55, 100
6, 363720, Note_on_c, 4, 55, 0
6, 363720, Note_on_c, 4, 54, 100
6, 363840, Note_on_c, 4, 54, 0
6, 363840, Note_on_c, 4, 55, 100
6, 363960, Note_on_c, 4, 55, 0
6, 363960, Note_on_c, 4, 57, 100
6, 364080, Note_on_c, 4, 57, 0
6, 364080, Note_on_c, 4, 59, 100
6, 364800, Note_on_c, 4, 59, 0
6, 364800, Note_on_c, 4, 57, 100
6, 365040, Note_on_c, 4, 57, 0
6, 365040, Note_on_c, 4, 59, 100
6, 365280, Note_on_c, 4, 59, 0
6, 365280, Note_on_c, 4, 60, 100
6, 365520, Note_on_c, 4, 60, 0
6, 365520, Note_on_c, 4, 59, 100
6, 366240, Note_on_c, 4, 59, 0
6, 366240, Note_on_c, 4, 55, 100
6, 366480, Note_on_c, 4, 55, 0
6, 366480, Note_on_c, 4, 59, 100
6, 366720, Note_on_c, 4, 59, 0
6, 366720, Note_on_c, 4, 52, 100
6, 366960, Note_on_c, 4, 52, 0
6, 366960, Note_on_c, 4, 57, 100
6, 367080, Note_on_c, 4, 57, 0
6, 367080, Note_on_c, 4, 55, 100
6, 367200, Note_on_c, 4, 55, 0
6, 367200, Note_on_c, 4, 54, 100
6, 367320, Note_on_c, 4, 54, 0
6, 367320, Note_on_c, 4, 55, 100
6, 367440, Note_on_c, 4, 55, 0
6, 367440, Note_on_c, 4, 62, 100
6, 368160, Note_on_c, 4, 62, 0
6, 368160, Note_on_c, 4, 60, 100
6, 368400, Note_on_c, 4, 60, 0
6, 368400, Note_on_c, 4, 54, 100
6, 368640, Note_on_c, 4, 54, 0
6, 368640, Note_on_c, 4, 57, 100
6, 368880, Note_on_c, 4, 57, 0
6, 368880, Note_on_c, 4, 50, 100
6, 370080, Note_on_c, 4, 50, 0
6, 370080, Note_on_c, 4, 55, 100
6, 370560, Note_on_c, 4, 55, 0
6, 370560, Note_on_c, 4, 57, 100
6, 370800, Note_on_c, 4, 57, 0
6, 370800, Note_on_c, 4, 60, 100
6, 371040, Note_on_c, 4, 60, 0
6, 371040, Note_on_c, 4, 54, 100
6, 371280, Note_on_c, 4, 54, 0
6, 371280, Note_on_c, 4, 55, 100
6, 371520, Note_on_c, 4, 55, 0
6, 371520, Note_on_c, 4, 57, 100
6, 371760, Note_on_c, 4, 57, 0
6, 371760, Note_on_c, 4, 55, 100
6, 372240, Note_on_c, 4, 55, 0
6, 373440, Note_on_c, 4, 62, 100
6, 373680, Note_on_c, 4, 62, 0
6, 373680, Note_on_c, 4, 67, 100
6, 373920, Note_on_c, 4, 67, 0
6, 373920, Note_on_c, 4, 64, 100
6, 374160, Note_on_c, 4, 64, 0
6, 374160, Note_on_c, 4, 60, 100
6, 374880, Note_on_c, 4, 60, 0
6, 374880, Note_on_c, 4, 59, 100
6, 375000, Note_on_c, 4, 59, 0
6, 375000, Note_on_c, 4, 57, 100
6, 375120, Note_on_c, 4, 57, 0
6, 375120, Note_on_c, 4, 55, 100
6, 375240, Note_on_c, 4, 55, 0
6, 375240, Note_on_c, 4, 54, 100
6, 375360, Note_on_c, 4, 54, 0
6, 375360, Note_on_c, 4, 55, 100
6, 375480, Note_on_c, 4, 55, 0
6, 375480, Note_on_c, 4, 57, 100
6, 375600, Note_on_c, 4, 57, 0
6, 375600, Note_on_c, 4, 59, 100
6, 376320, Note_on_c, 4, 59, 0
6, 376320, Note_on_c, 4, 57, 100
6, 376560, Note_on_c, 4, 57, 0
6, 376560, Note_on_c, 4, 59, 100
6, 376800, Note_on_c, 4, 59, 0
6, 376800, Note_on_c, 4, 60, 100
6, 377040, Note_on_c, 4, 60, 0
6, 377040, Note_on_c, 4, 59, 100
6, 377760, Note_on_c, 4, 59, 0
6, 377760, Note_on_c, 4, 55, 100
6, 378000, Note_on_c, 4, 55, 0
6, 378000, Note_on_c, 4, 59, 100
6, 378240, Note_on_c, 4, 59, 0
6, 378240, Note_on_c, 4, 52, 100
6, 378480, Note_on_c, 4, 52, 0
6, 378480, Note_on_c, 4, 57, 100
6, 378600, Note_on_c, 4, 57, 0
6, 378600, Note_on_c, 4, 55, 100
6, 378720, Note_on_c, 4, 55, 0
6, 378720, Note_on_c, 4, 54, 100
6, 378840, Note_on_c, 4, 54, 0
6, 378840, Note_on_c, 4, 55, 100
6, 378960, Note_on_c, 4, 55, 0
6, 378960, Note_on_c, 4, 62, 100
6, 379680, Note_on_c, 4, 62, 0
6, 379680, Note_on_c, 4, 60, 100
6, 379920, Note_on_c, 4, 60, 0
6, 379920, Note_on_c, 4, 54, 100
6, 380160, Note_on_c, 4, 54, 0
6, 380160, Note_on_c, 4, 57, 100
6, 380400, Note_on_c, 4, 57, 0
6, 380400, Note_on_c, 4, 50, 100
6, 381600, Note_on_c, 4, 50, 0
6, 381600, Note_on_c, 4, 55, 100
6, 382080, Note_on_c, 4, 55, 0
6, 382080, Note_on_c, 4, 57, 100
6, 382320, Note_on_c, 4, 57, 0
6, 382320, Note_on_c, 4, 60, 100
6, 382560, Note_on_c, 4, 60, 0
6, 382560, Note_on_c, 4, 54, 100
6, 382800, Note_on_c, 4, 54, 0
6, 382800, Note_on_c, 4, 55, 100
6, 383040, Note_on_c, 4, 55, 0
6, 383040, Note_on_c, 4, 57, 100
6, 383280, Note_on_c, 4, 57, 0
6, 383280, Note_on_c, 4, 55, 100
6, 383760, Note_on_c, 4, 55, 0
6, 384000, Note_on_c, 4, 55, 100
6, 384240, Note_on_c, 4, 55, 0
6, 384480, Note_on_c, 4, 71, 100
6, 384720, Note_on_c, 4, 71, 0
6, 384960, Note_on_c, 4, 55, 100
6, 385440, Note_on_c, 4, 55, 0
6, 385440, Note_on_c, 4, 54, 100
6, 385680, Note_on_c, 4, 54, 0
6, 385920, Note_on_c, 4, 69, 100
6, 386160, Note_on_c, 4, 69, 0
6, 386400, Note_on_c, 4, 54, 100
6, 386880, Note_on_c, 4, 54, 0
6, 386880, Note_on_c, 4, 52, 100
6, 387120, Note_on_c, 4, 52, 0
6, 387360, Note_on_c, 4, 67, 100
6, 387600, Note_on_c, 4, 67, 0
6, 387840, Note_on_c, 4, 52, 100
6, 388320, Note_on_c, 4, 52, 0
6, 388320, Note_on_c, 4, 50, 100
6, 388560, Note_on_c, 4, 50, 0
6, 388800, Note_on_c, 4, 66, 100
6, 389040, Note_on_c, 4, 66, 0
6, 389280, Note_on_c, 4, 50, 100
6, 389520, Note_on_c, 4, 50, 0
6, 389520, Note_on_c, 4, 48, 100
6, 389760, Note_on_c, 4, 48, 0
6, 389760, Note_on_c, 4, 47, 100
6, 390000, Note_on_c, 4, 47, 0
6, 390240, Note_on_c, 4, 74, 100
6, 390480, Note_on_c, 4, 74, 0
6, 390720, Note_on_c, 4, 47, 100
6, 391200, Note_on_c, 4, 47, 0
6, 391200, Note_on_c, 4, 48, 100
6, 391440, Note_on_c, 4, 48, 0
6, 391680, Note_on_c, 4, 76, 100
6, 391920, Note_on_c, 4, 76, 0
6, 392160, Note_on_c, 4, 48, 100
6, 392640, Note_on_c, 4, 48, 0
6, 392640, Note_on_c, 4, 50, 100
6, 392880, Note_on_c, 4, 50, 0
6, 393120, Note_on_c, 4, 69, 100
6, 393360, Note_on_c, 4, 69, 0
6, 393600, Note_on_c, 4, 50, 100
6, 394080, Note_on_c, 4, 50, 0
6, 394080, Note_on_c, 4, 43, 100
6, 394320, Note_on_c, 4, 43, 0
6, 394560, Note_on_c, 4, 71, 100
6, 395160, Note_on_c, 4, 71, 0
6, 395160, Note_on_c, 4, 69, 100
6, 395280, Note_on_c, 4, 69, 0
6, 395280, Note_on_c, 4, 67, 100
6, 395400, Note_on_c, 4, 67, 0
6, 395400, Note_on_c, 4, 66, 100
6, 395520, Note_on_c, 4, 66, 0
6, 395520, Note_on_c, 4, 67, 100
6, 395640, Note_on_c, 4, 67, 0
6, 395640, Note_on_c, 4, 71, 100
6, 395760, Note_on_c, 4, 71, 0
6, 395760, Note_on_c, 4, 73, 100
6, 395880, Note_on_c, 4, 73, 0
6, 395880, Note_on_c, 4, 74, 100
6, 396000, Note_on_c, 4, 74, 0
6, 396000, Note_on_c, 4, 76, 100
6, 396120, Note_on_c, 4, 76, 0
6, 396120, Note_on_c, 4, 78, 100
6, 396240, Note_on_c, 4, 78, 0
6, 396240, Note_on_c, 4, 76, 100
6, 396360, Note_on_c, 4, 76, 0
6, 396360, Note_on_c, 4, 74, 100
6, 396480, Note_on_c, 4, 74, 0
6, 396480, Note_on_c, 4, 73, 100
6, 396600, Note_on_c, 4, 73, 0
6, 396600, Note_on_c, 4, 71, 100
6, 396720, Note_on_c, 4, 71, 0
6, 396720, Note_on_c, 4, 69, 100
6, 396840, Note_on_c, 4, 69, 0
6, 396840, Note_on_c, 4, 67, 100
6, 396960, Note_on_c, 4, 67, 0
6, 396960, Note_on_c, 4, 66, 100
6, 397080, Note_on_c, 4, 66, 0
6, 397080, Note_on_c, 4, 69, 100
6, 397200, Note_on_c, 4, 69, 0
6, 397200, Note_on_c, 4, 71, 100
6, 397320, Note_on_c, 4, 71, 0
6, 397320, Note_on_c, 4, 73, 100
6, 397440, Note_on_c, 4, 73, 0
6, 397440, Note_on_c, 4, 74, 100
6, 397560, Note_on_c, 4, 74, 0
6, 397560, Note_on_c, 4, 76, 100
6, 397680, Note_on_c, 4, 76, 0
6, 397680, Note_on_c, 4, 74, 100
6, 397800, Note_on_c, 4, 74, 0
6, 397800, Note_on_c, 4, 73, 100
6, 397920, Note_on_c, 4, 73, 0
6, 397920, Note_on_c, 4, 71, 100
6, 398040, Note_on_c, 4, 71, 0
6, 398040, Note_on_c, 4, 69, 100
6, 398160, Note_on_c, 4, 69, 0
6, 398160, Note_on_c, 4, 67, 100
6, 398280, Note_on_c, 4, 67, 0
6, 398280, Note_on_c, 4, 66, 100
6, 398400, Note_on_c, 4, 66, 0
6, 398400, Note_on_c, 4, 64, 100
6, 398640, Note_on_c, 4, 64, 0
6, 398640, Note_on_c, 4, 66, 100
6, 398880, Note_on_c, 4, 66, 0
6, 398880, Note_on_c, 4, 67, 100
6, 399120, Note_on_c, 4, 67, 0
6, 399120, Note_on_c, 4, 71, 100
6, 399360, Note_on_c, 4, 71, 0
6, 399360, Note_on_c, 4, 76, 100
6, 399400, Note_on_c, 4, 76, 0
6, 399400, Note_on_c, 4, 74, 100
6, 399440, Note_on_c, 4, 74, 0
6, 399440, Note_on_c, 4, 76, 100
6, 400080, Note_on_c, 4, 76, 0
6, 400080, Note_on_c, 4, 74, 100
6, 400320, Note_on_c, 4, 74, 0
6, 400320, Note_on_c, 4, 73, 100
6, 400440, Note_on_c, 4, 73, 0
6, 400440, Note_on_c, 4, 76, 100
6, 400560, Note_on_c, 4, 76, 0
6, 400560, Note_on_c, 4, 71, 100
6, 400680, Note_on_c, 4, 71, 0
6, 400680, Note_on_c, 4, 76, 100
6, 400800, Note_on_c, 4, 76, 0
6, 400800, Note_on_c, 4, 69, 100
6, 400920, Note_on_c, 4, 69, 0
6, 400920, Note_on_c, 4, 76, 100
6, 401040, Note_on_c, 4, 76, 0
6, 401040, Note_on_c, 4, 67, 100
6, 401160, Note_on_c, 4, 67, 0
6, 401160, Note_on_c, 4, 76, 100
6, 401280, Note_on_c, 4, 76, 0
6, 401280, Note_on_c, 4, 66, 100
6, 401400, Note_on_c, 4, 66, 0
6, 401400, Note_on_c, 4, 76, 100
6, 401520, Note_on_c, 4, 76, 0
6, 401520, Note_on_c, 4, 74, 100
6, 401640, Note_on_c, 4, 74, 0
6, 401640, Note_on_c, 4, 73, 100
6, 401760, Note_on_c, 4, 73, 0
6, 401760, Note_on_c, 4, 74, 100
6, 401880, Note_on_c, 4, 74, 0
6, 401880, Note_on_c, 4, 69, 100
6, 402000, Note_on_c, 4, 69, 0
6, 402000, Note_on_c, 4, 62, 100
6, 402120, Note_on_c, 4, 62, 0
6, 402120, Note_on_c, 4, 74, 100
6, 402240, Note_on_c, 4, 74, 0
6, 402240, Note_on_c, 4, 64, 100
6, 402360, Note_on_c, 4, 64, 0
6, 402360, Note_on_c, 4, 74, 100
6, 402480, Note_on_c, 4, 74, 0
6, 402480, Note_on_c, 4, 66, 100
6, 402600, Note_on_c, 4, 66, 0
6, 402600, Note_on_c, 4, 76, 100
6, 402720, Note_on_c, 4, 76, 0
6, 402720, Note_on_c, 4, 67, 100
6, 402840, Note_on_c, 4, 67, 0
6, 402840, Note_on_c, 4, 76, 100
6, 402960, Note_on_c, 4, 76, 0
6, 402960, Note_on_c, 4, 74, 100
6, 403080, Note_on_c, 4, 74, 0
6, 403080, Note_on_c, 4, 73, 100
6, 403200, Note_on_c, 4, 73, 0
6, 403200, Note_on_c, 4, 74, 100
6, 403320, Note_on_c, 4, 74, 0
6, 403320, Note_on_c, 4, 71, 100
6, 403440, Note_on_c, 4, 71, 0
6, 403440, Note_on_c, 4, 64, 100
6, 403560, Note_on_c, 4, 64, 0
6, 403560, Note_on_c, 4, 74, 100
6, 403680, Note_on_c, 4, 74, 0
6, 403680, Note_on_c, 4, 66, 100
6, 403800, Note_on_c, 4, 66, 0
6, 403800, Note_on_c, 4, 74, 100
6, 403920, Note_on_c, 4, 74, 0
6, 403920, Note_on_c, 4, 67, 100
6, 404040, Note_on_c, 4, 67, 0
6, 404040, Note_on_c, 4, 74, 100
6, 404160, Note_on_c, 4, 74, 0
6, 404160, Note_on_c, 4, 69, 100
6, 404280, Note_on_c, 4, 69, 0
6, 404280, Note_on_c, 4, 74, 100
6, 404400, Note_on_c, 4, 74, 0
6, 404400, Note_on_c, 4, 73, 100
6, 404520, Note_on_c, 4, 73, 0
6, 404520, Note_on_c, 4, 71, 100
6, 404640, Note_on_c, 4, 71, 0
6, 404640, Note_on_c, 4, 73, 100
6, 404760, Note_on_c, 4, 73, 0
6, 404760, Note_on_c, 4, 76, 100
6, 404880, Note_on_c, 4, 76, 0
6, 404880, Note_on_c, 4, 69, 100
6, 405000, Note_on_c, 4, 69, 0
6, 405000, Note_on_c, 4, 73, 100
6, 405120, Note_on_c, 4, 73, 0
6, 405120, Note_on_c, 4, 64, 100
6, 405240, Note_on_c, 4, 64, 0
6, 405240, Note_on_c, 4, 67, 100
6, 405360, Note_on_c, 4, 67, 0
6, 405360, Note_on_c, 4, 66, 100
6, 405480, Note_on_c, 4, 66, 0
6, 405480, Note_on_c, 4, 64, 100
6, 405600, Note_on_c, 4, 64, 0
6, 405600, Note_on_c, 4, 66, 100
6, 405720, Note_on_c, 4, 66, 0
6, 405720, Note_on_c, 4, 69, 100
6, 405840, Note_on_c, 4, 69, 0
6, 405840, Note_on_c, 4, 62, 100
6, 405960, Note_on_c, 4, 62, 0
6, 405960, Note_on_c, 4, 66, 100
6, 406080, Note_on_c, 4, 66, 0
6, 406080, Note_on_c, 4, 57, 100
6, 406200, Note_on_c, 4, 57, 0
6, 406200, Note_on_c, 4, 62, 100
6, 406320, Note_on_c, 4, 62, 0
6, 406320, Note_on_c, 4, 54, 100
6, 406440, Note_on_c, 4, 54, 0
6, 406440, Note_on_c, 4, 57, 100
6, 406560, Note_on_c, 4, 57, 0
6, 406560, Note_on_c, 4, 50, 100
6, 407040, Note_on_c, 4, 50, 0
6, 407040, Note_on_c, 4, 55, 100
6, 407280, Note_on_c, 4, 55, 0
6, 407520, Note_on_c, 4, 71, 100
6, 407760, Note_on_c, 4, 71, 0
6, 408000, Note_on_c, 4, 55, 100
6, 408480, Note_on_c, 4, 55, 0
6, 408480, Note_on_c, 4, 54, 100
6, 408720, Note_on_c, 4, 54, 0
6, 408960, Note_on_c, 4, 69, 100
6, 409200, Note_on_c, 4, 69, 0
6, 409440, Note_on_c, 4, 54, 100
6, 409920, Note_on_c, 4, 54, 0
6, 409920, Note_on_c, 4, 52, 100
6, 410160, Note_on_c, 4, 52, 0
6, 410400, Note_on_c, 4, 67, 100
6, 410640, Note_on_c, 4, 67, 0
6, 410880, Note_on_c, 4, 52, 100
6, 411360, Note_on_c, 4, 52, 0
6, 411360, Note_on_c, 4, 50, 100
6, 411600, Note_on_c, 4, 50, 0
6, 411840, Note_on_c, 4, 66, 100
6, 412080, Note_on_c, 4, 66, 0
6, 412320, Note_on_c, 4, 50, 100
6, 412560, Note_on_c, 4, 50, 0
6, 412560, Note_on_c, 4, 48, 100
6, 412800, Note_on_c, 4, 48, 0
6, 412800, Note_on_c, 4, 47, 100
6, 413040, Note_on_c, 4, 47, 0
6, 413280, Note_on_c, 4, 74, 100
6, 413520, Note_on_c, 4, 74, 0
6, 413760, Note_on_c, 4, 47, 100
6, 414240, Note_on_c, 4, 47, 0
6, 414240, Note_on_c, 4, 48, 100
6, 414480, Note_on_c, 4, 48, 0
6, 414720, Note_on_c, 4, 76, 100
6, 414960, Note_on_c, 4, 76, 0
6, 415200, Note_on_c, 4, 48, 100
6, 415680, Note_on_c, 4, 48, 0
6, 415680, Note_on_c, 4, 50, 100
6, 415920, Note_on_c, 4, 50, 0
6, 416160, Note_on_c, 4, 69, 100
6, 416400, Note_on_c, 4, 69, 0
6, 416640, Note_on_c, 4, 50, 100
6, 417120, Note_on_c, 4, 50, 0
6, 417120, Note_on_c, 4, 43, 100
6, 417360, Note_on_c, 4, 43, 0
6, 417600, Note_on_c, 4, 71, 100
6, 418200, Note_on_c, 4, 71, 0
6, 418200, Note_on_c, 4, 69, 100
6, 418320, Note_on_c, 4, 69, 0
6, 418320, Note_on_c, 4, 67, 100
6, 418440, Note_on_c, 4, 67, 0
6, 418440, Note_on_c, 4, 66, 100
6, 418560, Note_on_c, 4, 66, 0
6, 418560, Note_on_c, 4, 67, 100
6, 418680, Note_on_c, 4, 67, 0
6, 418680, Note_on_c, 4, 71, 100
6, 418800, Note_on_c, 4, 71, 0
6, 418800, Note_on_c, 4, 73, 100
6, 418920, Note_on_c, 4, 73, 0
6, 418920, Note_on_c, 4, 74, 100
6, 419040, Note_on_c, 4, 74, 0
6, 419040, Note_on_c, 4, 76, 100
6, 419160, Note_on_c, 4, 76, 0
6, 419160, Note_on_c, 4, 78, 100
6, 419280, Note_on_c, 4, 78, 0
6, 419280, Note_on_c, 4, 76, 100
6, 419400, Note_on_c, 4, 76, 0
6, 419400, Note_on_c, 4, 74, 100
6, 419520, Note_on_c, 4, 74, 0
6, 419520, Note_on_c, 4, 73, 100
6, 419640, Note_on_c, 4, 73, 0
6, 419640, Note_on_c, 4, 71, 100
6, 419760, Note_on_c, 4, 71, 0
6, 419760, Note_on_c, 4, 69, 100
6, 419880, Note_on_c, 4, 69, 0
6, 419880, Note_on_c, 4, 67, 100
6, 420000, Note_on_c, 4, 67, 0
6, 420000, Note_on_c, 4, 66, 100
6, 420120, Note_on_c, 4, 66, 0
6, 420120, Note_on_c, 4, 69, 100
6, 420240, Note_on_c, 4, 69, 0
6, 420240, Note_on_c, 4, 71, 100
6, 420360, Note_on_c, 4, 71, 0
6, 420360, Note_on_c, 4, 73, 100
6, 420480, Note_on_c, 4, 73, 0
6, 420480, Note_on_c, 4, 74, 100
6, 420600, Note_on_c, 4, 74, 0
6, 420600, Note_on_c, 4, 76, 100
6, 420720, Note_on_c, 4, 76, 0
6, 420720, Note_on_c, 4, 74, 100
6, 420840, Note_on_c, 4, 74, 0
6, 420840, Note_on_c, 4, 73, 100
6, 420960, Note_on_c, 4, 73, 0
6, 420960, Note_on_c, 4, 71, 100
6, 421080, Note_on_c, 4, 71, 0
6, 421080, Note_on_c, 4, 69, 100
6, 421200, Note_on_c, 4, 69, 0
6, 421200, Note_on_c, 4, 67, 100
6, 421320, Note_on_c, 4, 67, 0
6, 421320, Note_on_c, 4, 66, 100
6, 421440, Note_on_c, 4, 66, 0
6, 421440, Note_on_c, 4, 64, 100
6, 421680, Note_on_c, 4, 64, 0
6, 421680, Note_on_c, 4, 66, 100
6, 421920, Note_on_c, 4, 66, 0
6, 421920, Note_on_c, 4, 67, 100
6, 422160, Note_on_c, 4, 67, 0
6, 422160, Note_on_c, 4, 71, 100
6, 422400, Note_on_c, 4, 71, 0
6, 422400, Note_on_c, 4, 76, 100
6, 422440, Note_on_c, 4, 76, 0
6, 422440, Note_on_c, 4, 74, 100
6, 422480, Note_on_c, 4, 74, 0
6, 422480, Note_on_c, 4, 76, 100
6, 423120, Note_on_c, 4, 76, 0
6, 423120, Note_on_c, 4, 74, 100
6, 423360, Note_on_c, 4, 74, 0
6, 423360, Note_on_c, 4, 73, 100
6, 423480, Note_on_c, 4, 73, 0
6, 423480, Note_on_c, 4, 76, 100
6, 423600, Note_on_c, 4, 76, 0
6, 423600, Note_on_c, 4, 71, 100
6, 423720, Note_on_c, 4, 71, 0
6, 423720, Note_on_c, 4, 76, 100
6, 423840, Note_on_c, 4, 76, 0
6, 423840, Note_on_c, 4, 69, 100
6, 423960, Note_on_c, 4, 69, 0
6, 423960, Note_on_c, 4, 76, 100
6, 424080, Note_on_c, 4, 76, 0
6, 424080, Note_on_c, 4, 67, 100
6, 424200, Note_on_c, 4, 67, 0
6, 424200, Note_on_c, 4, 76, 100
6, 424320, Note_on_c, 4, 76, 0
6, 424320, Note_on_c, 4, 66, 100
6, 424440, Note_on_c, 4, 66, 0
6, 424440, Note_on_c, 4, 76, 100
6, 424560, Note_on_c, 4, 76, 0
6, 424560, Note_on_c, 4, 74, 100
6, 424680, Note_on_c, 4, 74, 0
6, 424680, Note_on_c, 4, 73, 100
6, 424800, Note_on_c, 4, 73, 0
6, 424800, Note_on_c, 4, 74, 100
6, 424920, Note_on_c, 4, 74, 0
6, 424920, Note_on_c, 4, 69, 100
6, 425040, Note_on_c, 4, 69, 0
6, 425040, Note_on_c, 4, 62, 100
6, 425160, Note_on_c, 4, 62, 0
6, 425160, Note_on_c, 4, 74, 100
6, 425280, Note_on_c, 4, 74, 0
6, 425280, Note_on_c, 4, 64, 100
6, 425400, Note_on_c, 4, 64, 0
6, 425400, Note_on_c, 4, 74, 100
6, 425520, Note_on_c, 4, 74, 0
6, 425520, Note_on_c, 4, 66, 100
6, 425640, Note_on_c, 4, 66, 0
6, 425640, Note_on_c, 4, 76, 100
6, 425760, Note_on_c, 4, 76, 0
6, 425760, Note_on_c, 4, 67, 100
6, 425880, Note_on_c, 4, 67, 0
6, 425880, Note_on_c, 4, 76, 100
6, 426000, Note_on_c, 4, 76, 0
6, 426000, Note_on_c, 4, 74, 100
6, 426120, Note_on_c, 4, 74, 0
6, 426120, Note_on_c, 4, 73, 100
6, 426240, Note_on_c, 4, 73, 0
6, 426240, Note_on_c, 4, 74, 100
6, 426360, Note_on_c, 4, 74, 0
6, 426360, Note_on_c, 4, 71, 100
6, 426480, Note_on_c, 4, 71, 0
6, 426480, Note_on_c, 4, 64, 100
6, 426600, Note_on_c, 4, 64, 0
6, 426600, Note_on_c, 4, 74, 100
6, 426720, Note_on_c, 4, 74, 0
6, 426720, Note_on_c, 4, 66, 100
6, 426840, Note_on_c, 4, 66, 0
6, 426840, Note_on_c, 4, 74, 100
6, 426960, Note_on_c, 4, 74, 0
6, 426960, Note_on_c, 4, 67, 100
6, 427080, Note_on_c, 4, 67, 0
6, 427080, Note_on_c, 4, 74, 100
6, 427200, Note_on_c, 4, 74, 0
6, 427200, Note_on_c, 4, 69, 100
6, 427320, Note_on_c, 4, 69, 0
6, 427320, Note_on_c, 4, 74, 100
6, 427440, Note_on_c, 4, 74, 0
6, 427440, Note_on_c, 4, 73, 100
6, 427560, Note_on_c, 4, 73, 0
6, 427560, Note_on_c, 4, 71, 100
6, 427680, Note_on_c, 4, 71, 0
6, 427680, Note_on_c, 4, 73, 100
6, 427800, Note_on_c, 4, 73, 0
6, 427800, Note_on_c, 4, 76, 100
6, 427920, Note_on_c, 4, 76, 0
6, 427920, Note_on_c, 4, 69, 100
6, 428040, Note_on_c, 4, 69, 0
6, 428040, Note_on_c, 4, 73, 100
6, 428160, Note_on_c, 4, 73, 0
6, 428160, Note_on_c, 4, 64, 100
6, 428280, Note_on_c, 4, 64, 0
6, 428280, Note_on_c, 4, 67, 100
6, 428400, Note_on_c, 4, 67, 0
6, 428400, Note_on_c, 4, 66, 100
6, 428520, Note_on_c, 4, 66, 0
6, 428520, Note_on_c, 4, 64, 100
6, 428640, Note_on_c, 4, 64, 0
6, 428640, Note_on_c, 4, 66, 100
6, 428760, Note_on_c, 4, 66, 0
6, 428760, Note_on_c, 4, 69, 100
6, 428880, Note_on_c, 4, 69, 0
6, 428880, Note_on_c, 4, 62, 100
6, 429000, Note_on_c, 4, 62, 0
6, 429000, Note_on_c, 4, 66, 100
6, 429120, Note_on_c, 4, 66, 0
6, 429120, Note_on_c, 4, 57, 100
6, 429240, Note_on_c, 4, 57, 0
6, 429240, Note_on_c, 4, 62, 100
6, 429360, Note_on_c, 4, 62, 0
6, 429360, Note_on_c, 4, 54, 100
6, 429480, Note_on_c, 4, 54, 0
6, 429480, Note_on_c, 4, 57, 100
6, 429600, Note_on_c, 4, 57, 0
6, 429600, Note_on_c, 4, 50, 100
6, 430080, Note_on_c, 4, 50, 0
6, 430200, Note_on_c, 4, 74, 100
6, 430320, Note_on_c, 4, 74, 0
6, 430320, Note_on_c, 4, 72, 100
6, 430440, Note_on_c, 4, 72, 0
6, 430440, Note_on_c, 4, 71, 100
6, 430560, Note_on_c, 4, 71, 0
6, 430560, Note_on_c, 4, 69, 100
6, 430680, Note_on_c, 4, 69, 0
6, 430680, Note_on_c, 4, 67, 100
6, 430800, Note_on_c, 4, 67, 0
6, 430800, Note_on_c, 4, 66, 100
6, 430920, Note_on_c, 4, 66, 0
6, 430920, Note_on_c, 4, 64, 100
6, 431040, Note_on_c, 4, 64, 0
6, 431040, Note_on_c, 4, 62, 100
6, 431160, Note_on_c, 4, 62, 0
6, 431160, Note_on_c, 4, 72, 100
6, 431280, Note_on_c, 4, 72, 0
6, 431280, Note_on_c, 4, 71, 100
6, 431400, Note_on_c, 4, 71, 0
6, 431400, Note_on_c, 4, 69, 100
6, 431520, Note_on_c, 4, 69, 0
6, 431520, Note_on_c, 4, 71, 100
6, 431640, Note_on_c, 4, 71, 0
6, 431640, Note_on_c, 4, 67, 100
6, 431760, Note_on_c, 4, 67, 0
6, 431760, Note_on_c, 4, 66, 100
6, 431880, Note_on_c, 4, 66, 0
6, 431880, Note_on_c, 4, 64, 100
6, 432000, Note_on_c, 4, 64, 0
6, 432000, Note_on_c, 4, 62, 100
6, 432120, Note_on_c, 4, 62, 0
6, 432120, Note_on_c, 4, 60, 100
6, 432240, Note_on_c, 4, 60, 0
6, 432240, Note_on_c, 4, 59, 100
6, 432360, Note_on_c, 4, 59, 0
6, 432360, Note_on_c, 4, 57, 100
6, 432480, Note_on_c, 4, 57, 0
6, 432480, Note_on_c, 4, 55, 100
6, 432600, Note_on_c, 4, 55, 0
6, 432600, Note_on_c, 4, 67, 100
6, 432720, Note_on_c, 4, 67, 0
6, 432720, Note_on_c, 4, 69, 100
6, 432840, Note_on_c, 4, 69, 0
6, 432840, Note_on_c, 4, 71, 100
6, 432960, Note_on_c, 4, 71, 0
6, 432960, Note_on_c, 4, 72, 100
6, 433080, Note_on_c, 4, 72, 0
6, 433080, Note_on_c, 4, 74, 100
6, 433200, Note_on_c, 4, 74, 0
6, 433200, Note_on_c, 4, 76, 100
6, 433320, Note_on_c, 4, 76, 0
6, 433320, Note_on_c, 4, 74, 100
6, 433440, Note_on_c, 4, 74, 0
6, 433440, Note_on_c, 4, 72, 100
6, 433560, Note_on_c, 4, 72, 0
6, 433560, Note_on_c, 4, 71, 100
6, 433680, Note_on_c, 4, 71, 0
6, 433680, Note_on_c, 4, 69, 100
6, 433800, Note_on_c, 4, 69, 0
6, 433800, Note_on_c, 4, 67, 100
6, 433920, Note_on_c, 4, 67, 0
6, 433920, Note_on_c, 4, 69, 100
6, 434040, Note_on_c, 4, 69, 0
6, 434040, Note_on_c, 4, 71, 100
6, 434160, Note_on_c, 4, 71, 0
6, 434160, Note_on_c, 4, 72, 100
6, 434280, Note_on_c, 4, 72, 0
6, 434280, Note_on_c, 4, 69, 100
6, 434400, Note_on_c, 4, 69, 0
6, 434400, Note_on_c, 4, 71, 100
6, 434520, Note_on_c, 4, 71, 0
6, 434520, Note_on_c, 4, 69, 100
6, 434640, Note_on_c, 4, 69, 0
6, 434640, Note_on_c, 4, 71, 100
6, 434760, Note_on_c, 4, 71, 0
6, 434760, Note_on_c, 4, 66, 100
6, 434880, Note_on_c, 4, 66, 0
6, 434880, Note_on_c, 4, 59, 100
6, 435000, Note_on_c, 4, 59, 0
6, 435000, Note_on_c, 4, 61, 100
6, 435120, Note_on_c, 4, 61, 0
6, 435120, Note_on_c, 4, 63, 100
6, 435240, Note_on_c, 4, 63, 0
6, 435240, Note_on_c, 4, 64, 100
6, 435360, Note_on_c, 4, 64, 0
6, 435360, Note_on_c, 4, 66, 100
6, 435480, Note_on_c, 4, 66, 0
6, 435480, Note_on_c, 4, 67, 100
6, 435600, Note_on_c, 4, 67, 0
6, 435600, Note_on_c, 4, 69, 100
6, 435720, Note_on_c, 4, 69, 0
6, 435720, Note_on_c, 4, 66, 100
6, 435840, Note_on_c, 4, 66, 0
6, 435840, Note_on_c, 4, 67, 100
6, 435960, Note_on_c, 4, 67, 0
6, 435960, Note_on_c, 4, 71, 100
6, 436080, Note_on_c, 4, 71, 0
6, 436080, Note_on_c, 4, 67, 100
6, 436200, Note_on_c, 4, 67, 0
6, 436200, Note_on_c, 4, 64, 100
6, 436320, Note_on_c, 4, 64, 0
6, 436320, Note_on_c, 4, 67, 100
6, 436440, Note_on_c, 4, 67, 0
6, 436440, Note_on_c, 4, 71, 100
6, 436560, Note_on_c, 4, 71, 0
6, 436560, Note_on_c, 4, 67, 100
6, 436680, Note_on_c, 4, 67, 0
6, 436680, Note_on_c, 4, 64, 100
6, 436800, Note_on_c, 4, 64, 0
6, 436800, Note_on_c, 4, 67, 100
6, 436920, Note_on_c, 4, 67, 0
6, 436920, Note_on_c, 4, 71, 100
6, 437040, Note_on_c, 4, 71, 0
6, 437040, Note_on_c, 4, 67, 100
6, 437160, Note_on_c, 4, 67, 0
6, 437160, Note_on_c, 4, 64, 100
6, 437280, Note_on_c, 4, 64, 0
6, 437280, Note_on_c, 4, 69, 100
6, 437400, Note_on_c, 4, 69, 0
6, 437400, Note_on_c, 4, 72, 100
6, 437520, Note_on_c, 4, 72, 0
6, 437520, Note_on_c, 4, 69, 100
6, 437640, Note_on_c, 4, 69, 0
6, 437640, Note_on_c, 4, 64, 100
6, 437760, Note_on_c, 4, 64, 0
6, 437760, Note_on_c, 4, 67, 100
6, 437880, Note_on_c, 4, 67, 0
6, 437880, Note_on_c, 4, 72, 100
6, 438000, Note_on_c, 4, 72, 0
6, 438000, Note_on_c, 4, 67, 100
6, 438120, Note_on_c, 4, 67, 0
6, 438120, Note_on_c, 4, 64, 100
6, 438240, Note_on_c, 4, 64, 0
6, 438240, Note_on_c, 4, 66, 100
6, 438360, Note_on_c, 4, 66, 0
6, 438360, Note_on_c, 4, 72, 100
6, 438480, Note_on_c, 4, 72, 0
6, 438480, Note_on_c, 4, 66, 100
6, 438600, Note_on_c, 4, 66, 0
6, 438600, Note_on_c, 4, 64, 100
6, 438720, Note_on_c, 4, 64, 0
6, 438720, Note_on_c, 4, 67, 100
6, 438840, Note_on_c, 4, 67, 0
6, 438840, Note_on_c, 4, 71, 100
6, 438960, Note_on_c, 4, 71, 0
6, 438960, Note_on_c, 4, 67, 100
6, 439080, Note_on_c, 4, 67, 0
6, 439080, Note_on_c, 4, 64, 100
6, 439200, Note_on_c, 4, 64, 0
6, 439200, Note_on_c, 4, 59, 100
6, 439320, Note_on_c, 4, 59, 0
6, 439320, Note_on_c, 4, 71, 100
6, 439440, Note_on_c, 4, 71, 0
6, 439440, Note_on_c, 4, 69, 100
6, 439560, Note_on_c, 4, 69, 0
6, 439560, Note_on_c, 4, 71, 100
6, 439680, Note_on_c, 4, 71, 0
6, 439680, Note_on_c, 4, 67, 100
6, 439800, Note_on_c, 4, 67, 0
6, 439800, Note_on_c, 4, 71, 100
6, 439920, Note_on_c, 4, 71, 0
6, 439920, Note_on_c, 4, 66, 100
6, 440040, Note_on_c, 4, 66, 0
6, 440040, Note_on_c, 4, 71, 100
6, 440160, Note_on_c, 4, 71, 0
6, 440160, Note_on_c, 4, 67, 100
6, 440280, Note_on_c, 4, 67, 0
6, 440280, Note_on_c, 4, 64, 100
6, 440400, Note_on_c, 4, 64, 0
6, 440400, Note_on_c, 4, 67, 100
6, 440520, Note_on_c, 4, 67, 0
6, 440520, Note_on_c, 4, 71, 100
6, 440640, Note_on_c, 4, 71, 0
6, 440640, Note_on_c, 4, 76, 100
6, 440760, Note_on_c, 4, 76, 0
6, 440760, Note_on_c, 4, 71, 100
6, 440880, Note_on_c, 4, 71, 0
6, 440880, Note_on_c, 4, 67, 100
6, 441000, Note_on_c, 4, 67, 0
6, 441000, Note_on_c, 4, 71, 100
6, 441120, Note_on_c, 4, 71, 0
6, 441120, Note_on_c, 4, 64, 100
6, 441360, Note_on_c, 4, 64, 0
6, 441600, Note_on_c, 4, 64, 100
6, 441840, Note_on_c, 4, 64, 0
6, 442080, Note_on_c, 4, 48, 100
6, 442320, Note_on_c, 4, 48, 0
6, 442560, Note_on_c, 4, 64, 100
6, 443040, Note_on_c, 4, 64, 0
6, 443040, Note_on_c, 4, 62, 100
6, 443280, Note_on_c, 4, 62, 0
6, 443520, Note_on_c, 4, 47, 100
6, 443760, Note_on_c, 4, 47, 0
6, 444000, Note_on_c, 4, 62, 100
6, 444480, Note_on_c, 4, 62, 0
6, 444480, Note_on_c, 4, 60, 100
6, 444720, Note_on_c, 4, 60, 0
6, 444720, Note_on_c, 4, 59, 100
6, 444960, Note_on_c, 4, 59, 0
6, 444960, Note_on_c, 4, 57, 100
6, 445200, Note_on_c, 4, 57, 0
6, 445200, Note_on_c, 4, 55, 100
6, 445440, Note_on_c, 4, 55, 0
6, 445440, Note_on_c, 4, 54, 100
6, 445680, Note_on_c, 4, 54, 0
6, 445680, Note_on_c, 4, 52, 100
6, 445920, Note_on_c, 4, 52, 0
6, 445920, Note_on_c, 4, 54, 100
6, 446160, Note_on_c, 4, 54, 0
6, 446160, Note_on_c, 4, 55, 100
6, 446280, Note_on_c, 4, 55, 0
6, 446280, Note_on_c, 4, 57, 100
6, 446400, Note_on_c, 4, 57, 0
6, 446400, Note_on_c, 4, 50, 100
6, 447000, Note_on_c, 4, 50, 0
6, 447000, Note_on_c, 4, 60, 100
6, 447120, Note_on_c, 4, 60, 0
6, 447120, Note_on_c, 4, 59, 100
6, 447240, Note_on_c, 4, 59, 0
6, 447240, Note_on_c, 4, 57, 100
6, 447360, Note_on_c, 4, 57, 0
6, 447360, Note_on_c, 4, 59, 100
6, 447480, Note_on_c, 4, 59, 0
6, 447480, Note_on_c, 4, 55, 100
6, 447600, Note_on_c, 4, 55, 0
6, 447600, Note_on_c, 4, 54, 100
6, 447720, Note_on_c, 4, 54, 0
6, 447720, Note_on_c, 4, 55, 100
6, 447840, Note_on_c, 4, 55, 0
6, 447840, Note_on_c, 4, 57, 100
6, 447960, Note_on_c, 4, 57, 0
6, 447960, Note_on_c, 4, 55, 100
6, 448080, Note_on_c, 4, 55, 0
6, 448080, Note_on_c, 4, 59, 100
6, 448200, Note_on_c, 4, 59, 0
6, 448200, Note_on_c, 4, 55, 100
6, 448320, Note_on_c, 4, 55, 0
6, 448320, Note_on_c, 4, 60, 100
6, 448440, Note_on_c, 4, 60, 0
6, 448440, Note_on_c, 4, 55, 100
6, 448560, Note_on_c, 4, 55, 0
6, 448560, Note_on_c, 4, 62, 100
6, 448680, Note_on_c, 4, 62, 0
6, 448680, Note_on_c, 4, 55, 100
6, 448800, Note_on_c, 4, 55, 0
6, 448800, Note_on_c, 4, 64, 100
6, 449040, Note_on_c, 4, 64, 0
6, 449040, Note_on_c, 4, 55, 100
6, 449280, Note_on_c, 4, 55, 0
6, 449520, Note_on_c, 4, 59, 100
6, 449760, Note_on_c, 4, 59, 0
6, 449760, Note_on_c, 4, 57, 100
6, 450000, Note_on_c, 4, 57, 0
6, 450000, Note_on_c, 4, 55, 100
6, 450240, Note_on_c, 4, 55, 0
6, 450240, Note_on_c, 4, 54, 100
6, 450360, Note_on_c, 4, 54, 0
6, 450360, Note_on_c, 4, 62, 100
6, 450480, Note_on_c, 4, 62, 0
6, 450480, Note_on_c, 4, 64, 100
6, 450600, Note_on_c, 4, 64, 0
6, 450600, Note_on_c, 4, 66, 100
6, 450720, Note_on_c, 4, 66, 0
6, 450720, Note_on_c, 4, 67, 100
6, 450840, Note_on_c, 4, 67, 0
6, 450840, Note_on_c, 4, 62, 100
6, 450960, Note_on_c, 4, 62, 0
6, 450960, Note_on_c, 4, 59, 100
6, 451080, Note_on_c, 4, 59, 0
6, 451080, Note_on_c, 4, 55, 100
6, 451200, Note_on_c, 4, 55, 0
6, 451200, Note_on_c, 4, 57, 100
6, 451320, Note_on_c, 4, 57, 0
6, 451320, Note_on_c, 4, 60, 100
6, 451440, Note_on_c, 4, 60, 0
6, 451440, Note_on_c, 4, 67, 100
6, 451560, Note_on_c, 4, 67, 0
6, 451560, Note_on_c, 4, 66, 100
6, 451680, Note_on_c, 4, 66, 0
6, 451680, Note_on_c, 4, 67, 100
6, 451920, Note_on_c, 4, 67, 0
6, 451920, Note_on_c, 4, 55, 100
6, 452160, Note_on_c, 4, 55, 0
6, 452160, Note_on_c, 4, 50, 100
6, 452400, Note_on_c, 4, 50, 0
6, 452400, Note_on_c, 4, 47, 100
6, 452640, Note_on_c, 4, 47, 0
6, 452640, Note_on_c, 4, 43, 100
6, 453120, Note_on_c, 4, 43, 0
6, 453240, Note_on_c, 4, 74, 100
6, 453360, Note_on_c, 4, 74, 0
6, 453360, Note_on_c, 4, 72, 100
6, 453480, Note_on_c, 4, 72, 0
6, 453480, Note_on_c, 4, 71, 100
6, 453600, Note_on_c, 4, 71, 0
6, 453600, Note_on_c, 4, 69, 100
6, 453720, Note_on_c, 4, 69, 0
6, 453720, Note_on_c, 4, 67, 100
6, 453840, Note_on_c, 4, 67, 0
6, 453840, Note_on_c, 4, 66, 100
6, 453960, Note_on_c, 4, 66, 0
6, 453960, Note_on_c, 4, 64, 100
6, 454080, Note_on_c, 4, 64, 0
6, 454080, Note_on_c, 4, 62, 100
6, 454200, Note_on_c, 4, 62, 0
6, 454200, Note_on_c, 4, 72, 100
6, 454320, Note_on_c, 4, 72, 0
6, 454320, Note_on_c, 4, 71, 100
6, 454440, Note_on_c, 4, 71, 0
6, 454440, Note_on_c, 4, 69, 100
6, 454560, Note_on_c, 4, 69, 0
6, 454560, Note_on_c, 4, 71, 100
6, 454680, Note_on_c, 4, 71, 0
6, 454680, Note_on_c, 4, 67, 100
6, 454800, Note_on_c, 4, 67, 0
6, 454800, Note_on_c, 4, 66, 100
6, 454920, Note_on_c, 4, 66, 0
6, 454920, Note_on_c, 4, 64, 100
6, 455040, Note_on_c, 4, 64, 0
6, 455040, Note_on_c, 4, 62, 100
6, 455160, Note_on_c, 4, 62, 0
6, 455160, Note_on_c, 4, 60, 100
6, 455280, Note_on_c, 4, 60, 0
6, 455280, Note_on_c, 4, 59, 100
6, 455400, Note_on_c, 4, 59, 0
6, 455400, Note_on_c, 4, 57, 100
6, 455520, Note_on_c, 4, 57, 0
6, 455520, Note_on_c, 4, 55, 100
6, 455640, Note_on_c, 4, 55, 0
6, 455640, Note_on_c, 4, 67, 100
6, 455760, Note_on_c, 4, 67, 0
6, 455760, Note_on_c, 4, 69, 100
6, 455880, Note_on_c, 4, 69, 0
6, 455880, Note_on_c, 4, 71, 100
6, 456000, Note_on_c, 4, 71, 0
6, 456000, Note_on_c, 4, 72, 100
6, 456120, Note_on_c, 4, 72, 0
6, 456120, Note_on_c, 4, 74, 100
6, 456240, Note_on_c, 4, 74, 0
6, 456240, Note_on_c, 4, 76, 100
6, 456360, Note_on_c, 4, 76, 0
6, 456360, Note_on_c, 4, 74, 100
6, 456480, Note_on_c, 4, 74, 0
6, 456480, Note_on_c, 4, 72, 100
6, 456600, Note_on_c, 4, 72, 0
6, 456600, Note_on_c, 4, 71, 100
6, 456720, Note_on_c, 4, 71, 0
6, 456720, Note_on_c, 4, 69, 100
6, 456840, Note_on_c, 4, 69, 0
6, 456840, Note_on_c, 4, 67, 100
6, 456960, Note_on_c, 4, 67, 0
6, 456960, Note_on_c, 4, 69, 100
6, 457080, Note_on_c, 4, 69, 0
6, 457080, Note_on_c, 4, 71, 100
6, 457200, Note_on_c, 4, 71, 0
6, 457200, Note_on_c, 4, 72, 100
6, 457320, Note_on_c, 4, 72, 0
6, 457320, Note_on_c, 4, 69, 100
6, 457440, Note_on_c, 4, 69, 0
6, 457440, Note_on_c, 4, 71, 100
6, 457560, Note_on_c, 4, 71, 0
6, 457560, Note_on_c, 4, 69, 100
6, 457680, Note_on_c, 4, 69, 0
6, 457680, Note_on_c, 4, 71, 100
6, 457800, Note_on_c, 4, 71, 0
6, 457800, Note_on_c, 4, 66, 100
6, 457920, Note_on_c, 4, 66, 0
6, 457920, Note_on_c, 4, 59, 100
6, 458040, Note_on_c, 4, 59, 0
6, 458040, Note_on_c, 4, 61, 100
6, 458160, Note_on_c, 4, 61, 0
6, 458160, Note_on_c, 4, 63, 100
6, 458280, Note_on_c, 4, 63, 0
6, 458280, Note_on_c, 4, 64, 100
6, 458400, Note_on_c, 4, 64, 0
6, 458400, Note_on_c, 4, 66, 100
6, 458520, Note_on_c, 4, 66, 0
6, 458520, Note_on_c, 4, 67, 100
6, 458640, Note_on_c, 4, 67, 0
6, 458640, Note_on_c, 4, 69, 100
6, 458760, Note_on_c, 4, 69, 0
6, 458760, Note_on_c, 4, 66, 100
6, 458880, Note_on_c, 4, 66, 0
6, 458880, Note_on_c, 4, 67, 100
6, 459000, Note_on_c, 4, 67, 0
6, 459000, Note_on_c, 4, 71, 100
6, 459120, Note_on_c, 4, 71, 0
6, 459120, Note_on_c, 4, 67, 100
6, 459240, Note_on_c, 4, 67, 0
6, 459240, Note_on_c, 4, 64, 100
6, 459360, Note_on_c, 4, 64, 0
6, 459360, Note_on_c, 4, 67, 100
6, 459480, Note_on_c, 4, 67, 0
6, 459480, Note_on_c, 4, 71, 100
6, 459600, Note_on_c, 4, 71, 0
6, 459600, Note_on_c, 4, 67, 100
6, 459720, Note_on_c, 4, 67, 0
6, 459720, Note_on_c, 4, 64, 100
6, 459840, Note_on_c, 4, 64, 0
6, 459840, Note_on_c, 4, 67, 100
6, 459960, Note_on_c, 4, 67, 0
6, 459960, Note_on_c, 4, 71, 100
6, 460080, Note_on_c, 4, 71, 0
6, 460080, Note_on_c, 4, 67, 100
6, 460200, Note_on_c, 4, 67, 0
6, 460200, Note_on_c, 4, 64, 100
6, 460320, Note_on_c, 4, 64, 0
6, 460320, Note_on_c, 4, 69, 100
6, 460440, Note_on_c, 4, 69, 0
6, 460440, Note_on_c, 4, 72, 100
6, 460560, Note_on_c, 4, 72, 0
6, 460560, Note_on_c, 4, 69, 100
6, 460680, Note_on_c, 4, 69, 0
6, 460680, Note_on_c, 4, 64, 100
6, 460800, Note_on_c, 4, 64, 0
6, 460800, Note_on_c, 4, 67, 100
6, 460920, Note_on_c, 4, 67, 0
6, 460920, Note_on_c, 4, 72, 100
6, 461040, Note_on_c, 4, 72, 0
6, 461040, Note_on_c, 4, 67, 100
6, 461160, Note_on_c, 4, 67, 0
6, 461160, Note_on_c, 4, 64, 100
6, 461280, Note_on_c, 4, 64, 0
6, 461280, Note_on_c, 4, 66, 100
6, 461400, Note_on_c, 4, 66, 0
6, 461400, Note_on_c, 4, 72, 100
6, 461520, Note_on_c, 4, 72, 0
6, 461520, Note_on_c, 4, 66, 100
6, 461640, Note_on_c, 4, 66, 0
6, 461640, Note_on_c, 4, 64, 100
6, 461760, Note_on_c, 4, 64, 0
6, 461760, Note_on_c, 4, 67, 100
6, 461880, Note_on_c, 4, 67, 0
6, 461880, Note_on_c, 4, 71, 100
6, 462000, Note_on_c, 4, 71, 0
6, 462000, Note_on_c, 4, 67, 100
6, 462120, Note_on_c, 4, 67, 0
6, 462120, Note_on_c, 4, 64, 100
6, 462240, Note_on_c, 4, 64, 0
6, 462240, Note_on_c, 4, 59, 100
6, 462360, Note_on_c, 4, 59, 0
6, 462360, Note_on_c, 4, 71, 100
6, 462480, Note_on_c, 4, 71, 0
6, 462480, Note_on_c, 4, 69, 100
6, 462600, Note_on_c, 4, 69, 0
6, 462600, Note_on_c, 4, 71, 100
6, 462720, Note_on_c, 4, 71, 0
6, 462720, Note_on_c, 4, 67, 100
6, 462840, Note_on_c, 4, 67, 0
6, 462840, Note_on_c, 4, 71, 100
6, 462960, Note_on_c, 4, 71, 0
6, 462960, Note_on_c, 4, 66, 100
6, 463080, Note_on_c, 4, 66, 0
6, 463080, Note_on_c, 4, 71, 100
6, 463200, Note_on_c, 4, 71, 0
6, 463200, Note_on_c, 4, 67, 100
6, 463320, Note_on_c, 4, 67, 0
6, 463320, Note_on_c, 4, 64, 100
6, 463440, Note_on_c, 4, 64, 0
6, 463440, Note_on_c, 4, 67, 100
6, 463560, Note_on_c, 4, 67, 0
6, 463560, Note_on_c, 4, 71, 100
6, 463680, Note_on_c, 4, 71, 0
6, 463680, Note_on_c, 4, 76, 100
6, 463800, Note_on_c, 4, 76, 0
6, 463800, Note_on_c, 4, 71, 100
6, 463920, Note_on_c, 4, 71, 0
6, 463920, Note_on_c, 4, 67, 100
6, 464040, Note_on_c, 4, 67, 0
6, 464040, Note_on_c, 4, 71, 100
6, 464160, Note_on_c, 4, 71, 0
6, 464160, Note_on_c, 4, 64, 100
6, 464400, Note_on_c, 4, 64, 0
6, 464640, Note_on_c, 4, 64, 100
6, 464880, Note_on_c, 4, 64, 0
6, 465120, Note_on_c, 4, 48, 100
6, 465360, Note_on_c, 4, 48, 0
6, 465600, Note_on_c, 4, 64, 100
6, 466080, Note_on_c, 4, 64, 0
6, 466080, Note_on_c, 4, 62, 100
6, 466320, Note_on_c, 4, 62, 0
6, 466560, Note_on_c, 4, 47, 100
6, 466800, Note_on_c, 4, 47, 0
6, 467040, Note_on_c, 4, 62, 100
6, 467520, Note_on_c, 4, 62, 0
6, 467520, Note_on_c, 4, 60, 100
6, 467760, Note_on_c, 4, 60, 0
6, 467760, Note_on_c, 4, 59, 100
6, 468000, Note_on_c, 4, 59, 0
6, 468000, Note_on_c, 4, 57, 100
6, 468240, Note_on_c, 4, 57, 0
6, 468240, Note_on_c, 4, 55, 100
6, 468480, Note_on_c, 4, 55, 0
6, 468480, Note_on_c, 4, 54, 100
6, 468720, Note_on_c, 4, 54, 0
6, 468720, Note_on_c, 4, 52, 100
6, 468960, Note_on_c, 4, 52, 0
6, 468960, Note_on_c, 4, 54, 100
6, 469200, Note_on_c, 4, 54, 0
6, 469200, Note_on_c, 4, 55, 100
6, 469320, Note_on_c, 4, 55, 0
6, 469320, Note_on_c, 4, 57, 100
6, 469440, Note_on_c, 4, 57, 0
6, 469440, Note_on_c, 4, 50, 100
6, 470040, Note_on_c, 4, 50, 0
6, 470040, Note_on_c, 4, 60, 100
6, 470160, Note_on_c, 4, 60, 0
6, 470160, Note_on_c, 4, 59, 100
6, 470280, Note_on_c, 4, 59, 0
6, 470280, Note_on_c, 4, 57, 100
6, 470400, Note_on_c, 4, 57, 0
6, 470400, Note_on_c, 4, 59, 100
6, 470520, Note_on_c, 4, 59, 0
6, 470520, Note_on_c, 4, 55, 100
6, 470640, Note_on_c, 4, 55, 0
6, 470640, Note_on_c, 4, 54, 100
6, 470760, Note_on_c, 4, 54, 0
6, 470760, Note_on_c, 4, 55, 100
6, 470880, Note_on_c, 4, 55, 0
6, 470880, Note_on_c, 4, 57, 100
6, 471000, Note_on_c, 4, 57, 0
6, 471000, Note_on_c, 4, 55, 100
6, 471120, Note_on_c, 4, 55, 0
6, 471120, Note_on_c, 4, 59, 100
6, 471240, Note_on_c, 4, 59, 0
6, 471240, Note_on_c, 4, 55, 100
6, 471360, Note_on_c, 4, 55, 0
6, 471360, Note_on_c, 4, 60, 100
6, 471480, Note_on_c, 4, 60, 0
6, 471480, Note_on_c, 4, 55, 100
6, 471600, Note_on_c, 4, 55, 0
6, 471600, Note_on_c, 4, 62, 100
6, 471720, Note_on_c, 4, 62, 0
6, 471720, Note_on_c, 4, 55, 100
6, 471840, Note_on_c, 4, 55, 0
6, 471840, Note_on_c, 4, 64, 100
6, 472080, Note_on_c, 4, 64, 0
6, 472080, Note_on_c, 4, 55, 100
6, 472320, Note_on_c, 4, 55, 0
6, 472560, Note_on_c, 4, 59, 100
6, 472800, Note_on_c, 4, 59, 0
6, 472800, Note_on_c, 4, 57, 100
6, 473040, Note_on_c, 4, 57, 0
6, 473040, Note_on_c, 4, 55, 100
6, 473280, Note_on_c, 4, 55, 0
6, 473280, Note_on_c, 4, 54, 100
6, 473400, Note_on_c, 4, 54, 0
6, 473400, Note_on_c, 4, 62, 100
6, 473520, Note_on_c, 4, 62, 0
6, 473520, Note_on_c, 4, 64, 100
6, 473640, Note_on_c, 4, 64, 0
6, 473640, Note_on_c, 4, 66, 100
6, 473760, Note_on_c, 4, 66, 0
6, 473760, Note_on_c, 4, 67, 100
6, 473880, Note_on_c, 4, 67, 0
6, 473880, Note_on_c, 4, 62, 100
6, 474000, Note_on_c, 4, 62, 0
6, 474000, Note_on_c, 4, 59, 100
6, 474120, Note_on_c, 4, 59, 0
6, 474120, Note_on_c, 4, 55, 100
6, 474240, Note_on_c, 4, 55, 0
6, 474240, Note_on_c, 4, 57, 100
6, 474360, Note_on_c, 4, 57, 0
6, 474360, Note_on_c, 4, 60, 100
6, 474480, Note_on_c, 4, 60, 0
6, 474480, Note_on_c, 4, 67, 100
6, 474600, Note_on_c, 4, 67, 0
6, 474600, Note_on_c, 4, 66, 100
6, 474720, Note_on_c, 4, 66, 0
6, 474720, Note_on_c, 4, 67, 100
6, 474960, Note_on_c, 4, 67, 0
6, 474960, Note_on_c, 4, 55, 100
6, 475200, Note_on_c, 4, 55, 0
6, 475200, Note_on_c, 4, 50, 100
6, 475440, Note_on_c, 4, 50, 0
6, 475440, Note_on_c, 4, 47, 100
6, 475680, Note_on_c, 4, 47, 0
6, 475680, Note_on_c, 4, 43, 100
6, 476160, Note_on_c, 4, 43, 0
6, 522240, Note_on_c, 4, 55, 100
6, 522300, Note_on_c, 4, 55, 0
6, 522300, Note_on_c, 4, 54, 100
6, 522360, Note_on_c, 4, 54, 0
6, 522360, Note_on_c, 4, 55, 100
6, 522720, Note_on_c, 4, 55, 0
6, 522720, Note_on_c, 4, 43, 100
6, 522960, Note_on_c, 4, 43, 0
6, 522960, Note_on_c, 4, 55, 100
6, 523020, Note_on_c, 4, 55, 0
6, 523020, Note_on_c, 4, 54, 100
6, 523080, Note_on_c, 4, 54, 0
6, 523080, Note_on_c, 4, 55, 100
6, 524400, Note_on_c, 4, 55, 0
6, 524400, Note_on_c, 4, 55, 100
6, 524460, Note_on_c, 4, 55, 0
6, 524460, Note_on_c, 4, 54, 100
6, 524520, Note_on_c, 4, 54, 0
6, 524520, Note_on_c, 4, 55, 100
6, 524580, Note_on_c, 4, 55, 0
6, 524580, Note_on_c, 4, 54, 100
6, 524760, Note_on_c, 4, 54, 0
6, 524760, Note_on_c, 4, 52, 100
6, 524880, Note_on_c, 4, 52, 0
6, 524880, Note_on_c, 4, 50, 100
6, 525120, Note_on_c, 4, 50, 0
6, 525120, Note_on_c, 4, 52, 100
6, 525600, Note_on_c, 4, 52, 0
6, 525600, Note_on_c, 4, 62, 100
6, 525840, Note_on_c, 4, 62, 0
6, 525840, Note_on_c, 4, 61, 100
6, 526320, Note_on_c, 4, 61, 0
6, 526320, Note_on_c, 4, 57, 100
6, 526560, Note_on_c, 4, 57, 0
6, 526560, Note_on_c, 4, 62, 100
6, 527640, Note_on_c, 4, 62, 0
6, 527640, Note_on_c, 4, 64, 100
6, 527760, Note_on_c, 4, 64, 0
6, 527760, Note_on_c, 4, 60, 100
6, 528000, Note_on_c, 4, 60, 0
6, 528000, Note_on_c, 4, 59, 100
6, 528360, Note_on_c, 4, 59, 0
6, 528360, Note_on_c, 4, 60, 100
6, 528480, Note_on_c, 4, 60, 0
6, 528480, Note_on_c, 4, 57, 100
6, 528720, Note_on_c, 4, 57, 0
6, 528720, Note_on_c, 4, 55, 100
6, 529080, Note_on_c, 4, 55, 0
6, 529080, Note_on_c, 4, 57, 100
6, 529200, Note_on_c, 4, 57, 0
6, 529200, Note_on_c, 4, 59, 100
6, 529440, Note_on_c, 4, 59, 0
6, 529440, Note_on_c, 4, 60, 100
6, 529800, Note_on_c, 4, 60, 0
6, 529800, Note_on_c, 4, 62, 100
6, 529920, Note_on_c, 4, 62, 0
6, 529920, Note_on_c, 4, 59, 100
6, 530160, Note_on_c, 4, 59, 0
6, 530160, Note_on_c, 4, 57, 100
6, 530520, Note_on_c, 4, 57, 0
6, 530520, Note_on_c, 4, 59, 100
6, 530640, Note_on_c, 4, 59, 0
6, 530640, Note_on_c, 4, 60, 100
6, 530880, Note_on_c, 4, 60, 0
6, 530880, Note_on_c, 4, 62, 100
6, 531240, Note_on_c, 4, 62, 0
6, 531240, Note_on_c, 4, 60, 100
6, 531360, Note_on_c, 4, 60, 0
6, 531360, Note_on_c, 4, 59, 100
6, 531600, Note_on_c, 4, 59, 0
6, 531600, Note_on_c, 4, 60, 100
6, 532080, Note_on_c, 4, 60, 0
6, 532080, Note_on_c, 4, 62, 100
6, 532320, Note_on_c, 4, 62, 0
6, 532320, Note_on_c, 4, 55, 100
6, 532680, Note_on_c, 4, 55, 0
6, 532680, Note_on_c, 4, 54, 100
6, 532800, Note_on_c, 4, 54, 0
6, 532800, Note_on_c, 4, 55, 100
6, 533040, Note_on_c, 4, 55, 0
6, 533040, Note_on_c, 4, 50, 100
6, 533400, Note_on_c, 4, 50, 0
6, 533400, Note_on_c, 4, 57, 100
6, 533520, Note_on_c, 4, 57, 0
6, 533520, Note_on_c, 4, 60, 100
6, 533760, Note_on_c, 4, 60, 0
6, 533760, Note_on_c, 4, 60, 100
6, 533820, Note_on_c, 4, 60, 0
6, 533820, Note_on_c, 4, 59, 100
6, 533880, Note_on_c, 4, 59, 0
6, 533880, Note_on_c, 4, 60, 100
6, 533940, Note_on_c, 4, 60, 0
6, 533940, Note_on_c, 4, 59, 100
6, 534120, Note_on_c, 4, 59, 0
6, 534120, Note_on_c, 4, 57, 100
6, 534240, Note_on_c, 4, 57, 0
6, 534240, Note_on_c, 4, 59, 100
6, 534480, Note_on_c, 4, 59, 0
6, 534480, Note_on_c, 4, 52, 100
6, 534840, Note_on_c, 4, 52, 0
6, 534840, Note_on_c, 4, 59, 100
6, 534960, Note_on_c, 4, 59, 0
6, 534960, Note_on_c, 4, 62, 100
6, 535200, Note_on_c, 4, 62, 0
6, 535200, Note_on_c, 4, 62, 100
6, 535260, Note_on_c, 4, 62, 0
6, 535260, Note_on_c, 4, 61, 100
6, 535320, Note_on_c, 4, 61, 0
6, 535320, Note_on_c, 4, 62, 100
6, 535380, Note_on_c, 4, 62, 0
6, 535380, Note_on_c, 4, 61, 100
6, 535560, Note_on_c, 4, 61, 0
6, 535560, Note_on_c, 4, 59, 100
6, 535680, Note_on_c, 4, 59, 0
6, 535680, Note_on_c, 4, 57, 100
6, 535920, Note_on_c, 4, 57, 0
6, 535920, Note_on_c, 4, 62, 100
6, 536280, Note_on_c, 4, 62, 0
6, 536280, Note_on_c, 4, 60, 100
6, 536400, Note_on_c, 4, 60, 0
6, 536400, Note_on_c, 4, 62, 100
6, 536640, Note_on_c, 4, 62, 0
6, 536640, Note_on_c, 4, 55, 100
6, 537000, Note_on_c, 4, 55, 0
6, 537000, Note_on_c, 4, 59, 100
6, 537120, Note_on_c, 4, 59, 0
6, 537120, Note_on_c, 4, 62, 100
6, 537360, Note_on_c, 4, 62, 0
6, 537360, Note_on_c, 4, 67, 100
6, 538320, Note_on_c, 4, 67, 0
6, 538320, Note_on_c, 4, 69, 100
6, 538440, Note_on_c, 4, 69, 0
6, 538440, Note_on_c, 4, 67, 100
6, 538560, Note_on_c, 4, 67, 0
6, 538560, Note_on_c, 4, 66, 100
6, 538680, Note_on_c, 4, 66, 0
6, 538680, Note_on_c, 4, 64, 100
6, 538800, Note_on_c, 4, 64, 0
6, 538800, Note_on_c, 4, 66, 100
6, 539160, Note_on_c, 4, 66, 0
6, 539160, Note_on_c, 4, 67, 100
6, 539280, Note_on_c, 4, 67, 0
6, 539280, Note_on_c, 4, 69, 100
6, 539520, Note_on_c, 4, 69, 0
6, 539520, Note_on_c, 4, 62, 100
6, 539880, Note_on_c, 4, 62, 0
6, 539880, Note_on_c, 4, 57, 100
6, 540000, Note_on_c, 4, 57, 0
6, 540000, Note_on_c, 4, 54, 100
6, 540240, Note_on_c, 4, 54, 0
6, 540240, Note_on_c, 4, 50, 100
6, 540600, Note_on_c, 4, 50, 0
6, 540600, Note_on_c, 4, 52, 100
6, 540720, Note_on_c, 4, 52, 0
6, 540720, Note_on_c, 4, 54, 100
6, 540960, Note_on_c, 4, 54, 0
6, 540960, Note_on_c, 4, 55, 100
6, 541320, Note_on_c, 4, 55, 0
6, 541320, Note_on_c, 4, 57, 100
6, 541440, Note_on_c, 4, 57, 0
6, 541440, Note_on_c, 4, 54, 100
6, 541680, Note_on_c, 4, 54, 0
6, 541680, Note_on_c, 4, 52, 100
6, 542040, Note_on_c, 4, 52, 0
6, 542040, Note_on_c, 4, 54, 100
6, 542160, Note_on_c, 4, 54, 0
6, 542160, Note_on_c, 4, 55, 100
6, 542400, Note_on_c, 4, 55, 0
6, 542400, Note_on_c, 4, 57, 100
6, 542760, Note_on_c, 4, 57, 0
6, 542760, Note_on_c, 4, 55, 100
6, 542880, Note_on_c, 4, 55, 0
6, 542880, Note_on_c, 4, 54, 100
6, 543120, Note_on_c, 4, 54, 0
6, 543120, Note_on_c, 4, 59, 100
6, 543480, Note_on_c, 4, 59, 0
6, 543480, Note_on_c, 4, 55, 100
6, 543600, Note_on_c, 4, 55, 0
6, 543600, Note_on_c, 4, 57, 100
6, 543840, Note_on_c, 4, 57, 0
6, 543840, Note_on_c, 4, 50, 100
6, 544200, Note_on_c, 4, 50, 0
6, 544200, Note_on_c, 4, 54, 100
6, 544320, Note_on_c, 4, 54, 0
6, 544320, Note_on_c, 4, 57, 100
6, 544560, Note_on_c, 4, 57, 0
6, 544560, Note_on_c, 4, 62, 100
6, 545280, Note_on_c, 4, 62, 0
6, 545280, Note_on_c, 4, 55, 100
6, 545340, Note_on_c, 4, 55, 0
6, 545340, Note_on_c, 4, 54, 100
6, 545400, Note_on_c, 4, 54, 0
6, 545400, Note_on_c, 4, 55, 100
6, 545760, Note_on_c, 4, 55, 0
6, 545760, Note_on_c, 4, 43, 100
6, 546000, Note_on_c, 4, 43, 0
6, 546000, Note_on_c, 4, 55, 100
6, 546060, Note_on_c, 4, 55, 0
6, 546060, Note_on_c, 4, 54, 100
6, 546120, Note_on_c, 4, 54, 0
6, 546120, Note_on_c, 4, 55, 100
6, 547440, Note_on_c, 4, 55, 0
6, 547440, Note_on_c, 4, 55, 100
6, 547500, Note_on_c, 4, 55, 0
6, 547500, Note_on_c, 4, 54, 100
6, 547560, Note_on_c, 4, 54, 0
6, 547560, Note_on_c, 4, 55, 100
6, 547620, Note_on_c, 4, 55, 0
6, 547620, Note_on_c, 4, 54, 100
6, 547800, Note_on_c, 4, 54, 0
6, 547800, Note_on_c, 4, 52, 100
6, 547920, Note_on_c, 4, 52, 0
6, 547920, Note_on_c, 4, 50, 100
6, 548160, Note_on_c, 4, 50, 0
6, 548160, Note_on_c, 4, 52, 100
6, 548640, Note_on_c, 4, 52, 0
6, 548640, Note_on_c, 4, 62, 100
6, 548880, Note_on_c, 4, 62, 0
6, 548880, Note_on_c, 4, 61, 100
6, 549360, Note_on_c, 4, 61, 0
6, 549360, Note_on_c, 4, 57, 100
6, 549600, Note_on_c, 4, 57, 0
6, 549600, Note_on_c, 4, 62, 100
6, 550680, Note_on_c, 4, 62, 0
6, 550680, Note_on_c, 4, 64, 100
6, 550800, Note_on_c, 4, 64, 0
6, 550800, Note_on_c, 4, 60, 100
6, 551040, Note_on_c, 4, 60, 0
6, 551040, Note_on_c, 4, 59, 100
6, 551400, Note_on_c, 4, 59, 0
6, 551400, Note_on_c, 4, 60, 100
6, 551520, Note_on_c, 4, 60, 0
6, 551520, Note_on_c, 4, 57, 100
6, 551760, Note_on_c, 4, 57, 0
6, 551760, Note_on_c, 4, 55, 100
6, 552120, Note_on_c, 4, 55, 0
6, 552120, Note_on_c, 4, 57, 100
6, 552240, Note_on_c, 4, 57, 0
6, 552240, Note_on_c, 4, 59, 100
6, 552480, Note_on_c, 4, 59, 0
6, 552480, Note_on_c, 4, 60, 100
6, 552840, Note_on_c, 4, 60, 0
6, 552840, Note_on_c, 4, 62, 100
6, 552960, Note_on_c, 4, 62, 0
6, 552960, Note_on_c, 4, 59, 100
6, 553200, Note_on_c, 4, 59, 0
6, 553200, Note_on_c, 4, 57, 100
6, 553560, Note_on_c, 4, 57, 0
6, 553560, Note_on_c, 4, 59, 100
6, 553680, Note_on_c, 4, 59, 0
6, 553680, Note_on_c, 4, 60, 100
6, 553920, Note_on_c, 4, 60, 0
6, 553920, Note_on_c, 4, 62, 100
6, 554280, Note_on_c, 4, 62, 0
6, 554280, Note_on_c, 4, 60, 100
6, 554400, Note_on_c, 4, 60, 0
6, 554400, Note_on_c, 4, 59, 100
6, 554640, Note_on_c, 4, 59, 0
6, 554640, Note_on_c, 4, 60, 100
6, 555120, Note_on_c, 4, 60, 0
6, 555120, Note_on_c, 4, 62, 100
6, 555360, Note_on_c, 4, 62, 0
6, 555360, Note_on_c, 4, 55, 100
6, 555720, Note_on_c, 4, 55, 0
6, 555720, Note_on_c, 4, 54, 100
6, 555840, Note_on_c, 4, 54, 0
6, 555840, Note_on_c, 4, 55, 100
6, 556080, Note_on_c, 4, 55, 0
6, 556080, Note_on_c, 4, 50, 100
6, 556440, Note_on_c, 4, 50, 0
6, 556440, Note_on_c, 4, 57, 100
6, 556560, Note_on_c, 4, 57, 0
6, 556560, Note_on_c, 4, 60, 100
6, 556800, Note_on_c, 4, 60, 0
6, 556800, Note_on_c, 4, 60, 100
6, 556860, Note_on_c, 4, 60, 0
6, 556860, Note_on_c, 4, 59, 100
6, 556920, Note_on_c, 4, 59, 0
6, 556920, Note_on_c, 4, 60, 100
6, 556980, Note_on_c, 4, 60, 0
6, 556980, Note_on_c, 4, 59, 100
6, 557160, Note_on_c, 4, 59, 0
6, 557160, Note_on_c, 4, 57, 100
6, 557280, Note_on_c, 4, 57, 0
6, 557280, Note_on_c, 4, 59, 100
6, 557520, Note_on_c, 4, 59, 0
6, 557520, Note_on_c, 4, 52, 100
6, 557880, Note_on_c, 4, 52, 0
6, 557880, Note_on_c, 4, 59, 100
6, 558000, Note_on_c, 4, 59, 0
6, 558000, Note_on_c, 4, 62, 100
6, 558240, Note_on_c, 4, 62, 0
6, 558240, Note_on_c, 4, 62, 100
6, 558300, Note_on_c, 4, 62, 0
6, 558300, Note_on_c, 4, 61, 100
6, 558360, Note_on_c, 4, 61, 0
6, 558360, Note_on_c, 4, 62, 100
6, 558420, Note_on_c, 4, 62, 0
6, 558420, Note_on_c, 4, 61, 100
6, 558600, Note_on_c, 4, 61, 0
6, 558600, Note_on_c, 4, 59, 100
6, 558720, Note_on_c, 4, 59, 0
6, 558720, Note_on_c, 4, 57, 100
6, 558960, Note_on_c, 4, 57, 0
6, 558960, Note_on_c, 4, 62, 100
6, 559320, Note_on_c, 4, 62, 0
6, 559320, Note_on_c, 4, 60, 100
6, 559440, Note_on_c, 4, 60, 0
6, 559440, Note_on_c, 4, 62, 100
6, 559680, Note_on_c, 4, 62, 0
6, 559680, Note_on_c, 4, 55, 100
6, 560040, Note_on_c, 4, 55, 0
6, 560040, Note_on_c, 4, 59, 100
6, 560160, Note_on_c, 4, 59, 0
6, 560160, Note_on_c, 4, 62, 100
6, 560400, Note_on_c, 4, 62, 0
6, 560400, Note_on_c, 4, 67, 100
6, 561360, Note_on_c, 4, 67, 0
6, 561360, Note_on_c, 4, 69, 100
6, 561480, Note_on_c, 4, 69, 0
6, 561480, Note_on_c, 4, 67, 100
6, 561600, Note_on_c, 4, 67, 0
6, 561600, Note_on_c, 4, 66, 100
6, 561720, Note_on_c, 4, 66, 0
6, 561720, Note_on_c, 4, 64, 100
6, 561840, Note_on_c, 4, 64, 0
6, 561840, Note_on_c, 4, 66, 100
6, 562200, Note_on_c, 4, 66, 0
6, 562200, Note_on_c, 4, 67, 100
6, 562320, Note_on_c, 4, 67, 0
6, 562320, Note_on_c, 4, 69, 100
6, 562560, Note_on_c, 4, 69, 0
6, 562560, Note_on_c, 4, 62, 100
6, 562920, Note_on_c, 4, 62, 0
6, 562920, Note_on_c, 4, 57, 100
6, 563040, Note_on_c, 4, 57, 0
6, 563040, Note_on_c, 4, 54, 100
6, 563280, Note_on_c, 4, 54, 0
6, 563280, Note_on_c, 4, 50, 100
6, 563640, Note_on_c, 4, 50, 0
6, 563640, Note_on_c, 4, 52, 100
6, 563760, Note_on_c, 4, 52, 0
6, 563760, Note_on_c, 4, 54, 100
6, 564000, Note_on_c, 4, 54, 0
6, 564000, Note_on_c, 4, 55, 100
6, 564360, Note_on_c, 4, 55, 0
6, 564360, Note_on_c, 4, 57, 100
6, 564480, Note_on_c, 4, 57, 0
6, 564480, Note_on_c, 4, 54, 100
6, 564720, Note_on_c, 4, 54, 0
6, 564720, Note_on_c, 4, 52, 100
6, 565080, Note_on_c, 4, 52, 0
6, 565080, Note_on_c, 4, 54, 100
6, 565200, Note_on_c, 4, 54, 0
6, 565200, Note_on_c, 4, 55, 100
6, 565440, Note_on_c, 4, 55, 0
6, 565440, Note_on_c, 4, 57, 100
6, 565800, Note_on_c, 4, 57, 0
6, 565800, Note_on_c, 4, 55, 100
6, 565920, Note_on_c, 4, 55, 0
6, 565920, Note_on_c, 4, 54, 100
6, 566160, Note_on_c, 4, 54, 0
6, 566160, Note_on_c, 4, 59, 100
6, 566520, Note_on_c, 4, 59, 0
6, 566520, Note_on_c, 4, 55, 100
6, 566640, Note_on_c, 4, 55, 0
6, 566640, Note_on_c, 4, 57, 100
6, 566880, Note_on_c, 4, 57, 0
6, 566880, Note_on_c, 4, 50, 100
6, 567240, Note_on_c, 4, 50, 0
6, 567240, Note_on_c, 4, 54, 100
6, 567360, Note_on_c, 4, 54, 0
6, 567360, Note_on_c, 4, 57, 100
6, 567600, Note_on_c, 4, 57, 0
6, 567600, Note_on_c, 4, 62, 100
6, 568320, Note_on_c, 4, 62, 0
6, 568320, Note_on_c, 4, 62, 100
6, 568800, Note_on_c, 4, 62, 0
6, 568800, Note_on_c, 4, 50, 100
6, 569040, Note_on_c, 4, 50, 0
6, 569040, Note_on_c, 4, 62, 100
6, 569520, Note_on_c, 4, 62, 0
6, 569520, Note_on_c, 4, 60, 100
6, 569760, Note_on_c, 4, 60, 0
6, 569760, Note_on_c, 4, 60, 100
6, 569820, Note_on_c, 4, 60, 0
6, 569820, Note_on_c, 4, 59, 100
6, 569880, Note_on_c, 4, 59, 0
6, 569880, Note_on_c, 4, 60, 100
6, 569940, Note_on_c, 4, 60, 0
6, 569940, Note_on_c, 4, 59, 100
6, 570120, Note_on_c, 4, 59, 0
6, 570120, Note_on_c, 4, 57, 100
6, 570240, Note_on_c, 4, 57, 0
6, 570240, Note_on_c, 4, 59, 100
6, 570480, Note_on_c, 4, 59, 0
6, 570480, Note_on_c, 4, 55, 100
6, 570840, Note_on_c, 4, 55, 0
6, 570840, Note_on_c, 4, 57, 100
6, 570960, Note_on_c, 4, 57, 0
6, 570960, Note_on_c, 4, 59, 100
6, 571200, Note_on_c, 4, 59, 0
6, 571200, Note_on_c, 4, 60, 100
6, 571560, Note_on_c, 4, 60, 0
6, 571560, Note_on_c, 4, 62, 100
6, 571680, Note_on_c, 4, 62, 0
6, 571680, Note_on_c, 4, 59, 100
6, 571920, Note_on_c, 4, 59, 0
6, 571920, Note_on_c, 4, 57, 100
6, 572280, Note_on_c, 4, 57, 0
6, 572280, Note_on_c, 4, 59, 100
6, 572400, Note_on_c, 4, 59, 0
6, 572400, Note_on_c, 4, 60, 100
6, 572640, Note_on_c, 4, 60, 0
6, 572640, Note_on_c, 4, 59, 100
6, 573120, Note_on_c, 4, 59, 0
6, 573120, Note_on_c, 4, 47, 100
6, 573360, Note_on_c, 4, 47, 0
6, 573360, Note_on_c, 4, 59, 100
6, 573720, Note_on_c, 4, 59, 0
6, 573720, Note_on_c, 4, 57, 100
6, 573840, Note_on_c, 4, 57, 0
6, 573840, Note_on_c, 4, 59, 100
6, 574080, Note_on_c, 4, 59, 0
6, 574080, Note_on_c, 4, 55, 100
6, 574560, Note_on_c, 4, 55, 0
6, 574560, Note_on_c, 4, 57, 100
6, 574620, Note_on_c, 4, 57, 0
6, 574620, Note_on_c, 4, 59, 100
6, 574680, Note_on_c, 4, 59, 0
6, 574680, Note_on_c, 4, 61, 100
6, 574740, Note_on_c, 4, 61, 0
6, 574740, Note_on_c, 4, 63, 100
6, 574800, Note_on_c, 4, 63, 0
6, 574800, Note_on_c, 4, 64, 100
6, 575160, Note_on_c, 4, 64, 0
6, 575160, Note_on_c, 4, 59, 100
6, 575280, Note_on_c, 4, 59, 0
6, 575280, Note_on_c, 4, 55, 100
6, 575520, Note_on_c, 4, 55, 0
6, 575520, Note_on_c, 4, 57, 100
6, 576000, Note_on_c, 4, 57, 0
6, 576000, Note_on_c, 4, 59, 100
6, 576060, Note_on_c, 4, 59, 0
6, 576060, Note_on_c, 4, 60, 100
6, 576120, Note_on_c, 4, 60, 0
6, 576120, Note_on_c, 4, 62, 100
6, 576180, Note_on_c, 4, 62, 0
6, 576180, Note_on_c, 4, 64, 100
6, 576240, Note_on_c, 4, 64, 0
6, 576240, Note_on_c, 4, 65, 100
6, 576600, Note_on_c, 4, 65, 0
6, 576600, Note_on_c, 4, 64, 100
6, 576720, Note_on_c, 4, 64, 0
6, 576720, Note_on_c, 4, 63, 100
6, 576960, Note_on_c, 4, 63, 0
6, 576960, Note_on_c, 4, 64, 100
6, 577440, Note_on_c, 4, 64, 0
6, 577440, Note_on_c, 4, 55, 100
6, 577680, Note_on_c, 4, 55, 0
6, 577680, Note_on_c, 4, 60, 100
6, 578040, Note_on_c, 4, 60, 0
6, 578040, Note_on_c, 4, 57, 100
6, 578160, Note_on_c, 4, 57, 0
6, 578160, Note_on_c, 4, 59, 100
6, 578400, Note_on_c, 4, 59, 0
6, 578400, Note_on_c, 4, 52, 100
6, 579480, Note_on_c, 4, 52, 0
6, 579480, Note_on_c, 4, 64, 100
6, 579600, Note_on_c, 4, 64, 0
6, 579600, Note_on_c, 4, 62, 100
6, 579840, Note_on_c, 4, 62, 0
6, 579840, Note_on_c, 4, 62, 100
6, 579900, Note_on_c, 4, 62, 0
6, 579900, Note_on_c, 4, 60, 100
6, 579960, Note_on_c, 4, 60, 0
6, 579960, Note_on_c, 4, 62, 100
6, 580020, Note_on_c, 4, 62, 0
6, 580020, Note_on_c, 4, 60, 100
6, 580200, Note_on_c, 4, 60, 0
6, 580200, Note_on_c, 4, 59, 100
6, 580320, Note_on_c, 4, 59, 0
6, 580320, Note_on_c, 4, 60, 100
6, 580560, Note_on_c, 4, 60, 0
6, 580560, Note_on_c, 4, 56, 100
6, 580920, Note_on_c, 4, 56, 0
6, 580920, Note_on_c, 4, 59, 100
6, 581040, Note_on_c, 4, 59, 0
6, 581040, Note_on_c, 4, 52, 100
6, 581280, Note_on_c, 4, 52, 0
6, 581280, Note_on_c, 4, 57, 100
6, 581640, Note_on_c, 4, 57, 0
6, 581640, Note_on_c, 4, 60, 100
6, 581760, Note_on_c, 4, 60, 0
6, 581760, Note_on_c, 4, 59, 100
6, 582000, Note_on_c, 4, 59, 0
6, 582000, Note_on_c, 4, 60, 100
6, 582360, Note_on_c, 4, 60, 0
6, 582360, Note_on_c, 4, 59, 100
6, 582480, Note_on_c, 4, 59, 0
6, 582480, Note_on_c, 4, 57, 100
6, 582720, Note_on_c, 4, 57, 0
6, 582720, Note_on_c, 4, 59, 100
6, 583080, Note_on_c, 4, 59, 0
6, 583080, Note_on_c, 4, 64, 100
6, 583200, Note_on_c, 4, 64, 0
6, 583200, Note_on_c, 4, 62, 100
6, 583440, Note_on_c, 4, 62, 0
6, 583440, Note_on_c, 4, 62, 100
6, 583500, Note_on_c, 4, 62, 0
6, 583500, Note_on_c, 4, 61, 100
6, 583560, Note_on_c, 4, 61, 0
6, 583560, Note_on_c, 4, 62, 100
6, 583620, Note_on_c, 4, 62, 0
6, 583620, Note_on_c, 4, 61, 100
6, 583800, Note_on_c, 4, 61, 0
6, 583800, Note_on_c, 4, 59, 100
6, 583920, Note_on_c, 4, 59, 0
6, 583920, Note_on_c, 4, 61, 100
6, 584160, Note_on_c, 4, 61, 0
6, 584160, Note_on_c, 4, 62, 100
6, 585240, Note_on_c, 4, 62, 0
6, 585240, Note_on_c, 4, 64, 100
6, 585360, Note_on_c, 4, 64, 0
6, 585360, Note_on_c, 4, 60, 100
6, 585600, Note_on_c, 4, 60, 0
6, 585600, Note_on_c, 4, 59, 100
6, 585960, Note_on_c, 4, 59, 0
6, 585960, Note_on_c, 4, 60, 100
6, 586080, Note_on_c, 4, 60, 0
6, 586080, Note_on_c, 4, 57, 100
6, 586320, Note_on_c, 4, 57, 0
6, 586320, Note_on_c, 4, 55, 100
6, 586680, Note_on_c, 4, 55, 0
6, 586680, Note_on_c, 4, 57, 100
6, 586800, Note_on_c, 4, 57, 0
6, 586800, Note_on_c, 4, 59, 100
6, 587040, Note_on_c, 4, 59, 0
6, 587040, Note_on_c, 4, 60, 100
6, 587400, Note_on_c, 4, 60, 0
6, 587400, Note_on_c, 4, 62, 100
6, 587520, Note_on_c, 4, 62, 0
6, 587520, Note_on_c, 4, 59, 100
6, 587760, Note_on_c, 4, 59, 0
6, 587760, Note_on_c, 4, 57, 100
6, 588120, Note_on_c, 4, 57, 0
6, 588120, Note_on_c, 4, 59, 100
6, 588240, Note_on_c, 4, 59, 0
6, 588240, Note_on_c, 4, 60, 100
6, 588480, Note_on_c, 4, 60, 0
6, 588480, Note_on_c, 4, 62, 100
6, 588840, Note_on_c, 4, 62, 0
6, 588840, Note_on_c, 4, 60, 100
6, 588960, Note_on_c, 4, 60, 0
6, 588960, Note_on_c, 4, 59, 100
6, 589200, Note_on_c, 4, 59, 0
6, 589200, Note_on_c, 4, 64, 100
6, 589560, Note_on_c, 4, 64, 0
6, 589560, Note_on_c, 4, 60, 100
6, 589680, Note_on_c, 4, 60, 0
6, 589680, Note_on_c, 4, 62, 100
6, 589920, Note_on_c, 4, 62, 0
6, 589920, Note_on_c, 4, 55, 100
6, 590280, Note_on_c, 4, 55, 0
6, 590280, Note_on_c, 4, 50, 100
6, 590400, Note_on_c, 4, 50, 0
6, 590400, Note_on_c, 4, 47, 100
6, 590640, Note_on_c, 4, 47, 0
6, 590640, Note_on_c, 4, 43, 100
6, 591360, Note_on_c, 4, 43, 0
6, 591360, Note_on_c, 4, 62, 100
6, 591840, Note_on_c, 4, 62, 0
6, 591840, Note_on_c, 4, 50, 100
6, 592080, Note_on_c, 4, 50, 0
6, 592080, Note_on_c, 4, 62, 100
6, 592560, Note_on_c, 4, 62, 0
6, 592560, Note_on_c, 4, 60, 100
6, 592800, Note_on_c, 4, 60, 0
6, 592800, Note_on_c, 4, 60, 100
6, 592860, Note_on_c, 4, 60, 0
6, 592860, Note_on_c, 4, 59, 100
6, 592920, Note_on_c, 4, 59, 0
6, 592920, Note_on_c, 4, 60, 100
6, 592980, Note_on_c, 4, 60, 0
6, 592980, Note_on_c, 4, 59, 100
6, 593160, Note_on_c, 4, 59, 0
6, 593160, Note_on_c, 4, 57, 100
6, 593280, Note_on_c, 4, 57, 0
6, 593280, Note_on_c, 4, 59, 100
6, 593520, Note_on_c, 4, 59, 0
6, 593520, Note_on_c, 4, 55, 100
6, 593880, Note_on_c, 4, 55, 0
6, 593880, Note_on_c, 4, 57, 100
6, 594000, Note_on_c, 4, 57, 0
6, 594000, Note_on_c, 4, 59, 100
6, 594240, Note_on_c, 4, 59, 0
6, 594240, Note_on_c, 4, 60, 100
6, 594600, Note_on_c, 4, 60, 0
6, 594600, Note_on_c, 4, 62, 100
6, 594720, Note_on_c, 4, 62, 0
6, 594720, Note_on_c, 4, 59, 100
6, 594960, Note_on_c, 4, 59, 0
6, 594960, Note_on_c, 4, 57, 100
6, 595320, Note_on_c, 4, 57, 0
6, 595320, Note_on_c, 4, 59, 100
6, 595440, Note_on_c, 4, 59, 0
6, 595440, Note_on_c, 4, 60, 100
6, 595680, Note_on_c, 4, 60, 0
6, 595680, Note_on_c, 4, 59, 100
6, 596160, Note_on_c, 4, 59, 0
6, 596160, Note_on_c, 4, 47, 100
6, 596400, Note_on_c, 4, 47, 0
6, 596400, Note_on_c, 4, 59, 100
6, 596760, Note_on_c, 4, 59, 0
6, 596760, Note_on_c, 4, 57, 100
6, 596880, Note_on_c, 4, 57, 0
6, 596880, Note_on_c, 4, 59, 100
6, 597120, Note_on_c, 4, 59, 0
6, 597120, Note_on_c, 4, 55, 100
6, 597600, Note_on_c, 4, 55, 0
6, 597600, Note_on_c, 4, 57, 100
6, 597660, Note_on_c, 4, 57, 0
6, 597660, Note_on_c, 4, 59, 100
6, 597720, Note_on_c, 4, 59, 0
6, 597720, Note_on_c, 4, 61, 100
6, 597780, Note_on_c, 4, 61, 0
6, 597780, Note_on_c, 4, 63, 100
6, 597840, Note_on_c, 4, 63, 0
6, 597840, Note_on_c, 4, 64, 100
6, 598200, Note_on_c, 4, 64, 0
6, 598200, Note_on_c, 4, 59, 100
6, 598320, Note_on_c, 4, 59, 0
6, 598320, Note_on_c, 4, 55, 100
6, 598560, Note_on_c, 4, 55, 0
6, 598560, Note_on_c, 4, 57, 100
6, 599040, Note_on_c, 4, 57, 0
6, 599040, Note_on_c, 4, 59, 100
6, 599100, Note_on_c, 4, 59, 0
6, 599100, Note_on_c, 4, 60, 100
6, 599160, Note_on_c, 4, 60, 0
6, 599160, Note_on_c, 4, 62, 100
6, 599220, Note_on_c, 4, 62, 0
6, 599220, Note_on_c, 4, 64, 100
6, 599280, Note_on_c, 4, 64, 0
6, 599280, Note_on_c, 4, 65, 100
6, 599640, Note_on_c, 4, 65, 0
6, 599640, Note_on_c, 4, 64, 100
6, 599760, Note_on_c, 4, 64, 0
6, 599760, Note_on_c, 4, 63, 100
6, 600000, Note_on_c, 4, 63, 0
6, 600000, Note_on_c, 4, 64, 100
6, 600480, Note_on_c, 4, 64, 0
6, 600480, Note_on_c, 4, 55, 100
6, 600720, Note_on_c, 4, 55, 0
6, 600720, Note_on_c, 4, 60, 100
6, 601080, Note_on_c, 4, 60, 0
6, 601080, Note_on_c, 4, 57, 100
6, 601200, Note_on_c, 4, 57, 0
6, 601200, Note_on_c, 4, 59, 100
6, 601440, Note_on_c, 4, 59, 0
6, 601440, Note_on_c, 4, 52, 100
6, 602520, Note_on_c, 4, 52, 0
6, 602520, Note_on_c, 4, 64, 100
6, 602640, Note_on_c, 4, 64, 0
6, 602640, Note_on_c, 4, 62, 100
6, 602880, Note_on_c, 4, 62, 0
6, 602880, Note_on_c, 4, 62, 100
6, 602940, Note_on_c, 4, 62, 0
6, 602940, Note_on_c, 4, 60, 100
6, 603000, Note_on_c, 4, 60, 0
6, 603000, Note_on_c, 4, 62, 100
6, 603060, Note_on_c, 4, 62, 0
6, 603060, Note_on_c, 4, 60, 100
6, 603240, Note_on_c, 4, 60, 0
6, 603240, Note_on_c, 4, 59, 100
6, 603360, Note_on_c, 4, 59, 0
6, 603360, Note_on_c, 4, 60, 100
6, 603600, Note_on_c, 4, 60, 0
6, 603600, Note_on_c, 4, 56, 100
6, 603960, Note_on_c, 4, 56, 0
6, 603960, Note_on_c, 4, 59, 100
6, 604080, Note_on_c, 4, 59, 0
6, 604080, Note_on_c, 4, 52, 100
6, 604320, Note_on_c, 4, 52, 0
6, 604320, Note_on_c, 4, 57, 100
6, 604680, Note_on_c, 4, 57, 0
6, 604680, Note_on_c, 4, 60, 100
6, 604800, Note_on_c, 4, 60, 0
6, 604800, Note_on_c, 4, 59, 100
6, 605040, Note_on_c, 4, 59, 0
6, 605040, Note_on_c, 4, 60, 100
6, 605400, Note_on_c, 4, 60, 0
6, 605400, Note_on_c, 4, 59, 100
6, 605520, Note_on_c, 4, 59, 0
6, 605520, Note_on_c, 4, 57, 100
6, 605760, Note_on_c, 4, 57, 0
6, 605760, Note_on_c, 4, 59, 100
6, 606120, Note_on_c, 4, 59, 0
6, 606120, Note_on_c, 4, 64, 100
6, 606240, Note_on_c, 4, 64, 0
6, 606240, Note_on_c, 4, 62, 100
6, 606480, Note_on_c, 4, 62, 0
6, 606480, Note_on_c, 4, 62, 100
6, 606540, Note_on_c, 4, 62, 0
6, 606540, Note_on_c, 4, 61, 100
6, 606600, Note_on_c, 4, 61, 0
6, 606600, Note_on_c, 4, 62, 100
6, 606660, Note_on_c, 4, 62, 0
6, 606660, Note_on_c, 4, 61, 100
6, 606840, Note_on_c, 4, 61, 0
6, 606840, Note_on_c, 4, 59, 100
6, 606960, Note_on_c, 4, 59, 0
6, 606960, Note_on_c, 4, 61, 100
6, 607200, Note_on_c, 4, 61, 0
6, 607200, Note_on_c, 4, 62, 100
6, 608280, Note_on_c, 4, 62, 0
6, 608280, Note_on_c, 4, 64, 100
6, 608400, Note_on_c, 4, 64, 0
6, 608400, Note_on_c, 4, 60, 100
6, 608640, Note_on_c, 4, 60, 0
6, 608640, Note_on_c, 4, 59, 100
6, 609000, Note_on_c, 4, 59, 0
6, 609000, Note_on_c, 4, 60, 100
6, 609120, Note_on_c, 4, 60, 0
6, 609120, Note_on_c, 4, 57, 100
6, 609360, Note_on_c, 4, 57, 0
6, 609360, Note_on_c, 4, 55, 100
6, 609720, Note_on_c, 4, 55, 0
6, 609720, Note_on_c, 4, 57, 100
6, 609840, Note_on_c, 4, 57, 0
6, 609840, Note_on_c, 4, 59, 100
6, 610080, Note_on_c, 4, 59, 0
6, 610080, Note_on_c, 4, 60, 100
6, 610440, Note_on_c, 4, 60, 0
6, 610440, Note_on_c, 4, 62, 100
6, 610560, Note_on_c, 4, 62, 0
6, 610560, Note_on_c, 4, 59, 100
6, 610800, Note_on_c, 4, 59, 0
6, 610800, Note_on_c, 4, 57, 100
6, 611160, Note_on_c, 4, 57, 0
6, 611160, Note_on_c, 4, 59, 100
6, 611280, Note_on_c, 4, 59, 0
6, 611280, Note_on_c, 4, 60, 100
6, 611520, Note_on_c, 4, 60, 0
6, 611520, Note_on_c, 4, 62, 100
6, 611880, Note_on_c, 4, 62, 0
6, 611880, Note_on_c, 4, 60, 100
6, 612000, Note_on_c, 4, 60, 0
6, 612000, Note_on_c, 4, 59, 100
6, 612240, Note_on_c, 4, 59, 0
6, 612240, Note_on_c, 4, 64, 100
6, 612600, Note_on_c, 4, 64, 0
6, 612600, Note_on_c, 4, 60, 100
6, 612720, Note_on_c, 4, 60, 0
6, 612720, Note_on_c, 4, 62, 100
6, 612960, Note_on_c, 4, 62, 0
6, 612960, Note_on_c, 4, 55, 100
6, 613320, Note_on_c, 4, 55, 0
6, 613320, Note_on_c, 4, 50, 100
6, 613440, Note_on_c, 4, 50, 0
6, 613440, Note_on_c, 4, 47, 100
6, 613680, Note_on_c, 4, 47, 0
6, 613680, Note_on_c, 4, 43, 100
6, 614400, Note_on_c, 4, 43, 0
6, 614400, Note_on_c, 4, 55, 100
6, 614640, Note_on_c, 4, 55, 0
6, 614640, Note_on_c, 4, 50, 100
6, 614880, Note_on_c, 4, 50, 0
6, 614880, Note_on_c, 4, 47, 100
6, 615120, Note_on_c, 4, 47, 0
6, 615120, Note_on_c, 4, 43, 100
6, 615360, Note_on_c, 4, 43, 0
6, 615480, Note_on_c, 4, 55, 100
6, 615600, Note_on_c, 4, 55, 0
6, 615600, Note_on_c, 4, 54, 100
6, 615720, Note_on_c, 4, 54, 0
6, 615720, Note_on_c, 4, 52, 100
6, 615840, Note_on_c, 4, 52, 0
6, 615840, Note_on_c, 4, 54, 100
6, 616080, Note_on_c, 4, 54, 0
6, 616080, Note_on_c, 4, 50, 100
6, 616320, Note_on_c, 4, 50, 0
6, 616320, Note_on_c, 4, 45, 100
6, 616560, Note_on_c, 4, 45, 0
6, 616560, Note_on_c, 4, 42, 100
6, 616800, Note_on_c, 4, 42, 0
6, 616920, Note_on_c, 4, 54, 100
6, 617040, Note_on_c, 4, 54, 0
6, 617040, Note_on_c, 4, 52, 100
6, 617160, Note_on_c, 4, 52, 0
6, 617160, Note_on_c, 4, 50, 100
6, 617280, Note_on_c, 4, 50, 0
6, 617280, Note_on_c, 4, 52, 100
6, 617520, Note_on_c, 4, 52, 0
6, 617520, Note_on_c, 4, 47, 100
6, 617760, Note_on_c, 4, 47, 0
6, 617760, Note_on_c, 4, 43, 100
6, 618000, Note_on_c, 4, 43, 0
6, 618000, Note_on_c, 4, 40, 100
6, 618240, Note_on_c, 4, 40, 0
6, 618360, Note_on_c, 4, 52, 100
6, 618480, Note_on_c, 4, 52, 0
6, 618480, Note_on_c, 4, 50, 100
6, 618600, Note_on_c, 4, 50, 0
6, 618600, Note_on_c, 4, 49, 100
6, 618720, Note_on_c, 4, 49, 0
6, 618720, Note_on_c, 4, 50, 100
6, 618960, Note_on_c, 4, 50, 0
6, 618960, Note_on_c, 4, 45, 100
6, 619200, Note_on_c, 4, 45, 0
6, 619200, Note_on_c, 4, 42, 100
6, 619440, Note_on_c, 4, 42, 0
6, 619440, Note_on_c, 4, 38, 100
6, 619680, Note_on_c, 4, 38, 0
6, 619800, Note_on_c, 4, 48, 100
6, 619920, Note_on_c, 4, 48, 0
6, 619920, Note_on_c, 4, 47, 100
6, 620040, Note_on_c, 4, 47, 0
6, 620040, Note_on_c, 4, 45, 100
6, 620160, Note_on_c, 4, 45, 0
6, 620160, Note_on_c, 4, 47, 100
6, 620400, Note_on_c, 4, 47, 0
6, 620400, Note_on_c, 4, 50, 100
6, 620640, Note_on_c, 4, 50, 0
6, 620640, Note_on_c, 4, 55, 100
6, 620880, Note_on_c, 4, 55, 0
6, 620880, Note_on_c, 4, 59, 100
6, 621120, Note_on_c, 4, 59, 0
6, 621240, Note_on_c, 4, 55, 100
6, 621360, Note_on_c, 4, 55, 0
6, 621360, Note_on_c, 4, 53, 100
6, 621480, Note_on_c, 4, 53, 0
6, 621480, Note_on_c, 4, 55, 100
6, 621600, Note_on_c, 4, 55, 0
6, 621600, Note_on_c, 4, 48, 100
6, 621840, Note_on_c, 4, 48, 0
6, 621840, Note_on_c, 4, 52, 100
6, 622080, Note_on_c, 4, 52, 0
6, 622080, Note_on_c, 4, 57, 100
6, 622320, Note_on_c, 4, 57, 0
6, 622320, Note_on_c, 4, 60, 100
6, 622560, Note_on_c, 4, 60, 0
6, 622680, Note_on_c, 4, 57, 100
6, 622800, Note_on_c, 4, 57, 0
6, 622800, Note_on_c, 4, 55, 100
6, 622920, Note_on_c, 4, 55, 0
6, 622920, Note_on_c, 4, 57, 100
6, 623040, Note_on_c, 4, 57, 0
6, 623040, Note_on_c, 4, 50, 100
6, 623280, Note_on_c, 4, 50, 0
6, 623280, Note_on_c, 4, 54, 100
6, 623520, Note_on_c, 4, 54, 0
6, 623520, Note_on_c, 4, 57, 100
6, 623760, Note_on_c, 4, 57, 0
6, 623760, Note_on_c, 4, 62, 100
6, 624000, Note_on_c, 4, 62, 0
6, 624120, Note_on_c, 4, 50, 100
6, 624240, Note_on_c, 4, 50, 0
6, 624240, Note_on_c, 4, 48, 100
6, 624360, Note_on_c, 4, 48, 0
6, 624360, Note_on_c, 4, 50, 100
6, 624480, Note_on_c, 4, 50, 0
6, 624480, Note_on_c, 4, 43, 100
6, 624720, Note_on_c, 4, 43, 0
6, 624720, Note_on_c, 4, 55, 100
6, 624960, Note_on_c, 4, 55, 0
6, 624960, Note_on_c, 4, 47, 100
6, 625200, Note_on_c, 4, 47, 0
6, 625200, Note_on_c, 4, 50, 100
6, 625440, Note_on_c, 4, 50, 0
6, 625440, Note_on_c, 4, 43, 100
6, 625680, Note_on_c, 4, 43, 0
6, 625920, Note_on_c, 4, 55, 100
6, 626040, Note_on_c, 4, 55, 0
6, 626040, Note_on_c, 4, 59, 100
6, 626160, Note_on_c, 4, 59, 0
6, 626160, Note_on_c, 4, 62, 100
6, 626280, Note_on_c, 4, 62, 0
6, 626280, Note_on_c, 4, 60, 100
6, 626400, Note_on_c, 4, 60, 0
6, 626400, Note_on_c, 4, 59, 100
6, 626520, Note_on_c, 4, 59, 0
6, 626520, Note_on_c, 4, 62, 100
6, 626640, Note_on_c, 4, 62, 0
6, 626640, Note_on_c, 4, 67, 100
6, 626760, Note_on_c, 4, 67, 0
6, 626760, Note_on_c, 4, 66, 100
6, 626880, Note_on_c, 4, 66, 0
6, 626880, Note_on_c, 4, 64, 100
6, 627000, Note_on_c, 4, 64, 0
6, 627000, Note_on_c, 4, 67, 100
6, 627120, Note_on_c, 4, 67, 0
6, 627120, Note_on_c, 4, 71, 100
6, 627240, Note_on_c, 4, 71, 0
6, 627360, Note_on_c, 4, 54, 100
6, 627480, Note_on_c, 4, 54, 0
6, 627480, Note_on_c, 4, 57, 100
6, 627600, Note_on_c, 4, 57, 0
6, 627600, Note_on_c, 4, 61, 100
6, 627720, Note_on_c, 4, 61, 0
6, 627720, Note_on_c, 4, 59, 100
6, 627840, Note_on_c, 4, 59, 0
6, 627840, Note_on_c, 4, 57, 100
6, 627960, Note_on_c, 4, 57, 0
6, 627960, Note_on_c, 4, 61, 100
6, 628080, Note_on_c, 4, 61, 0
6, 628080, Note_on_c, 4, 66, 100
6, 628200, Note_on_c, 4, 66, 0
6, 628200, Note_on_c, 4, 64, 100
6, 628320, Note_on_c, 4, 64, 0
6, 628320, Note_on_c, 4, 62, 100
6, 628440, Note_on_c, 4, 62, 0
6, 628440, Note_on_c, 4, 66, 100
6, 628560, Note_on_c, 4, 66, 0
6, 628560, Note_on_c, 4, 69, 100
6, 628680, Note_on_c, 4, 69, 0
6, 628800, Note_on_c, 4, 52, 100
6, 628920, Note_on_c, 4, 52, 0
6, 628920, Note_on_c, 4, 55, 100
6, 629040, Note_on_c, 4, 55, 0
6, 629040, Note_on_c, 4, 59, 100
6, 629160, Note_on_c, 4, 59, 0
6, 629160, Note_on_c, 4, 57, 100
6, 629280, Note_on_c, 4, 57, 0
6, 629280, Note_on_c, 4, 55, 100
6, 629400, Note_on_c, 4, 55, 0
6, 629400, Note_on_c, 4, 59, 100
6, 629520, Note_on_c, 4, 59, 0
6, 629520, Note_on_c, 4, 64, 100
6, 629640, Note_on_c, 4, 64, 0
6, 629640, Note_on_c, 4, 62, 100
6, 629760, Note_on_c, 4, 62, 0
6, 629760, Note_on_c, 4, 61, 100
6, 629880, Note_on_c, 4, 61, 0
6, 629880, Note_on_c, 4, 64, 100
6, 630000, Note_on_c, 4, 64, 0
6, 630000, Note_on_c, 4, 67, 100
6, 630120, Note_on_c, 4, 67, 0
6, 630120, Note_on_c, 4, 66, 100
6, 630240, Note_on_c, 4, 66, 0
6, 630240, Note_on_c, 4, 64, 100
6, 630360, Note_on_c, 4, 64, 0
6, 630360, Note_on_c, 4, 67, 100
6, 630480, Note_on_c, 4, 67, 0
6, 630480, Note_on_c, 4, 73, 100
6, 630600, Note_on_c, 4, 73, 0
6, 630600, Note_on_c, 4, 71, 100
6, 630720, Note_on_c, 4, 71, 0
6, 630720, Note_on_c, 4, 69, 100
6, 630840, Note_on_c, 4, 69, 0
6, 630840, Note_on_c, 4, 73, 100
6, 630960, Note_on_c, 4, 73, 0
6, 630960, Note_on_c, 4, 76, 100
6, 631080, Note_on_c, 4, 76, 0
6, 631080, Note_on_c, 4, 74, 100
6, 631200, Note_on_c, 4, 74, 0
6, 631200, Note_on_c, 4, 73, 100
6, 631320, Note_on_c, 4, 73, 0
6, 631320, Note_on_c, 4, 76, 100
6, 631440, Note_on_c, 4, 76, 0
6, 631440, Note_on_c, 4, 81, 100
6, 631560, Note_on_c, 4, 81, 0
6, 631560, Note_on_c, 4, 79, 100
6, 631680, Note_on_c, 4, 79, 0
6, 631680, Note_on_c, 4, 78, 100
6, 631800, Note_on_c, 4, 78, 0
6, 631800, Note_on_c, 4, 81, 100
6, 631920, Note_on_c, 4, 81, 0
6, 631920, Note_on_c, 4, 74, 100
6, 632040, Note_on_c, 4, 74, 0
6, 632040, Note_on_c, 4, 76, 100
6, 632160, Note_on_c, 4, 76, 0
6, 632160, Note_on_c, 4, 78, 100
6, 632280, Note_on_c, 4, 78, 0
6, 632280, Note_on_c, 4, 74, 100
6, 632400, Note_on_c, 4, 74, 0
6, 632400, Note_on_c, 4, 69, 100
6, 632520, Note_on_c, 4, 69, 0
6, 632520, Note_on_c, 4, 71, 100
6, 632640, Note_on_c, 4, 71, 0
6, 632640, Note_on_c, 4, 72, 100
6, 632760, Note_on_c, 4, 72, 0
6, 632760, Note_on_c, 4, 69, 100
6, 632880, Note_on_c, 4, 69, 0
6, 632880, Note_on_c, 4, 66, 100
6, 633000, Note_on_c, 4, 66, 0
6, 633000, Note_on_c, 4, 69, 100
6, 633120, Note_on_c, 4, 69, 0
6, 633120, Note_on_c, 4, 71, 100
6, 633240, Note_on_c, 4, 71, 0
6, 633240, Note_on_c, 4, 74, 100
6, 633360, Note_on_c, 4, 74, 0
6, 633360, Note_on_c, 4, 67, 100
6, 633480, Note_on_c, 4, 67, 0
6, 633480, Note_on_c, 4, 69, 100
6, 633600, Note_on_c, 4, 69, 0
6, 633600, Note_on_c, 4, 71, 100
6, 633720, Note_on_c, 4, 71, 0
6, 633720, Note_on_c, 4, 67, 100
6, 633840, Note_on_c, 4, 67, 0
6, 633840, Note_on_c, 4, 64, 100
6, 633960, Note_on_c, 4, 64, 0
6, 633960, Note_on_c, 4, 66, 100
6, 634080, Note_on_c, 4, 66, 0
6, 634080, Note_on_c, 4, 67, 100
6, 634200, Note_on_c, 4, 67, 0
6, 634200, Note_on_c, 4, 64, 100
6, 634320, Note_on_c, 4, 64, 0
6, 634320, Note_on_c, 4, 59, 100
6, 634440, Note_on_c, 4, 59, 0
6, 634440, Note_on_c, 4, 62, 100
6, 634560, Note_on_c, 4, 62, 0
6, 634560, Note_on_c, 4, 61, 100
6, 634680, Note_on_c, 4, 61, 0
6, 634680, Note_on_c, 4, 64, 100
6, 634800, Note_on_c, 4, 64, 0
6, 634800, Note_on_c, 4, 57, 100
6, 634920, Note_on_c, 4, 57, 0
6, 634920, Note_on_c, 4, 59, 100
6, 635040, Note_on_c, 4, 59, 0
6, 635040, Note_on_c, 4, 61, 100
6, 635160, Note_on_c, 4, 61, 0
6, 635160, Note_on_c, 4, 57, 100
6, 635280, Note_on_c, 4, 57, 0
6, 635280, Note_on_c, 4, 52, 100
6, 635400, Note_on_c, 4, 52, 0
6, 635400, Note_on_c, 4, 54, 100
6, 635520, Note_on_c, 4, 54, 0
6, 635520, Note_on_c, 4, 55, 100
6, 635640, Note_on_c, 4, 55, 0
6, 635640, Note_on_c, 4, 52, 100
6, 635760, Note_on_c, 4, 52, 0
6, 635760, Note_on_c, 4, 49, 100
6, 635880, Note_on_c, 4, 49, 0
6, 635880, Note_on_c, 4, 52, 100
6, 636000, Note_on_c, 4, 52, 0
6, 636000, Note_on_c, 4, 54, 100
6, 636120, Note_on_c, 4, 54, 0
6, 636120, Note_on_c, 4, 57, 100
6, 636240, Note_on_c, 4, 57, 0
6, 636240, Note_on_c, 4, 50, 100
6, 636360, Note_on_c, 4, 50, 0
6, 636360, Note_on_c, 4, 52, 100
6, 636480, Note_on_c, 4, 52, 0
6, 636480, Note_on_c, 4, 54, 100
6, 636600, Note_on_c, 4, 54, 0
6, 636600, Note_on_c, 4, 50, 100
6, 636720, Note_on_c, 4, 50, 0
6, 636720, Note_on_c, 4, 54, 100
6, 636840, Note_on_c, 4, 54, 0
6, 636840, Note_on_c, 4, 57, 100
6, 636960, Note_on_c, 4, 57, 0
6, 636960, Note_on_c, 4, 62, 100
6, 637440, Note_on_c, 4, 62, 0
6, 637440, Note_on_c, 4, 55, 100
6, 637680, Note_on_c, 4, 55, 0
6, 637680, Note_on_c, 4, 50, 100
6, 637920, Note_on_c, 4, 50, 0
6, 637920, Note_on_c, 4, 47, 100
6, 638160, Note_on_c, 4, 47, 0
6, 638160, Note_on_c, 4, 43, 100
6, 638400, Note_on_c, 4, 43, 0
6, 638520, Note_on_c, 4, 55, 100
6, 638640, Note_on_c, 4, 55, 0
6, 638640, Note_on_c, 4, 54, 100
6, 638760, Note_on_c, 4, 54, 0
6, 638760, Note_on_c, 4, 52, 100
6, 638880, Note_on_c, 4, 52, 0
6, 638880, Note_on_c, 4, 54, 100
6, 639120, Note_on_c, 4, 54, 0
6, 639120, Note_on_c, 4, 50, 100
6, 639360, Note_on_c, 4, 50, 0
6, 639360, Note_on_c, 4, 45, 100
6, 639600, Note_on_c, 4, 45, 0
6, 639600, Note_on_c, 4, 42, 100
6, 639840, Note_on_c, 4, 42, 0
6, 639960, Note_on_c, 4, 54, 100
6, 640080, Note_on_c, 4, 54, 0
6, 640080, Note_on_c, 4, 52, 100
6, 640200, Note_on_c, 4, 52, 0
6, 640200, Note_on_c, 4, 50, 100
6, 640320, Note_on_c, 4, 50, 0
6, 640320, Note_on_c, 4, 52, 100
6, 640560, Note_on_c, 4, 52, 0
6, 640560, Note_on_c, 4, 47, 100
6, 640800, Note_on_c, 4, 47, 0
6, 640800, Note_on_c, 4, 43, 100
6, 641040, Note_on_c, 4, 43, 0
6, 641040, Note_on_c, 4, 40, 100
6, 641280, Note_on_c, 4, 40, 0
6, 641400, Note_on_c, 4, 52, 100
6, 641520, Note_on_c, 4, 52, 0
6, 641520, Note_on_c, 4, 50, 100
6, 641640, Note_on_c, 4, 50, 0
6, 641640, Note_on_c, 4, 49, 100
6, 641760, Note_on_c, 4, 49, 0
6, 641760, Note_on_c, 4, 50, 100
6, 642000, Note_on_c, 4, 50, 0
6, 642000, Note_on_c, 4, 45, 100
6, 642240, Note_on_c, 4, 45, 0
6, 642240, Note_on_c, 4, 42, 100
6, 642480, Note_on_c, 4, 42, 0
6, 642480, Note_on_c, 4, 38, 100
6, 642720, Note_on_c, 4, 38, 0
6, 642840, Note_on_c, 4, 48, 100
6, 642960, Note_on_c, 4, 48, 0
6, 642960, Note_on_c, 4, 47, 100
6, 643080, Note_on_c, 4, 47, 0
6, 643080, Note_on_c, 4, 45, 100
6, 643200, Note_on_c, 4, 45, 0
6, 643200, Note_on_c, 4, 47, 100
6, 643440, Note_on_c, 4, 47, 0
6, 643440, Note_on_c, 4, 50, 100
6, 643680, Note_on_c, 4, 50, 0
6, 643680, Note_on_c, 4, 55, 100
6, 643920, Note_on_c, 4, 55, 0
6, 643920, Note_on_c, 4, 59, 100
6, 644160, Note_on_c, 4, 59, 0
6, 644280, Note_on_c, 4, 55, 100
6, 644400, Note_on_c, 4, 55, 0
6, 644400, Note_on_c, 4, 53, 100
6, 644520, Note_on_c, 4, 53, 0
6, 644520, Note_on_c, 4, 55, 100
6, 644640, Note_on_c, 4, 55, 0
6, 644640, Note_on_c, 4, 48, 100
6, 644880, Note_on_c, 4, 48, 0
6, 644880, Note_on_c, 4, 52, 100
6, 645120, Note_on_c, 4, 52, 0
6, 645120, Note_on_c, 4, 57, 100
6, 645360, Note_on_c, 4, 57, 0
6, 645360, Note_on_c, 4, 60, 100
6, 645600, Note_on_c, 4, 60, 0
6, 645720, Note_on_c, 4, 57, 100
6, 645840, Note_on_c, 4, 57, 0
6, 645840, Note_on_c, 4, 55, 100
6, 645960, Note_on_c, 4, 55, 0
6, 645960, Note_on_c, 4, 57, 100
6, 646080, Note_on_c, 4, 57, 0
6, 646080, Note_on_c, 4, 50, 100
6, 646320, Note_on_c, 4, 50, 0
6, 646320, Note_on_c, 4, 54, 100
6, 646560, Note_on_c, 4, 54, 0
6, 646560, Note_on_c, 4, 57, 100
6, 646800, Note_on_c, 4, 57, 0
6, 646800, Note_on_c, 4, 62, 100
6, 647040, Note_on_c, 4, 62, 0
6, 647160, Note_on_c, 4, 50, 100
6, 647280, Note_on_c, 4, 50, 0
6, 647280, Note_on_c, 4, 48, 100
6, 647400, Note_on_c, 4, 48, 0
6, 647400, Note_on_c, 4, 50, 100
6, 647520, Note_on_c, 4, 50, 0
6, 647520, Note_on_c, 4, 43, 100
6, 647760, Note_on_c, 4, 43, 0
6, 647760, Note_on_c, 4, 55, 100
6, 648000, Note_on_c, 4, 55, 0
6, 648000, Note_on_c, 4, 47, 100
6, 648240, Note_on_c, 4, 47, 0
6, 648240, Note_on_c, 4, 50, 100
6, 648480, Note_on_c, 4, 50, 0
6, 648480, Note_on_c, 4, 43, 100
6, 648720, Note_on_c, 4, 43, 0
6, 648960, Note_on_c, 4, 55, 100
6, 649080, Note_on_c, 4, 55, 0
6, 649080, Note_on_c, 4, 59, 100
6, 649200, Note_on_c, 4, 59, 0
6, 649200, Note_on_c, 4, 62, 100
6, 649320, Note_on_c, 4, 62, 0
6, 649320, Note_on_c, 4, 60, 100
6, 649440, Note_on_c, 4, 60, 0
6, 649440, Note_on_c, 4, 59, 100
6, 649560, Note_on_c, 4, 59, 0
6, 649560, Note_on_c, 4, 62, 100
6, 649680, Note_on_c, 4, 62, 0
6, 649680, Note_on_c, 4, 67, 100
6, 649800, Note_on_c, 4, 67, 0
6, 649800, Note_on_c, 4, 66, 100
6, 649920, Note_on_c, 4, 66, 0
6, 649920, Note_on_c, 4, 64, 100
6, 650040, Note_on_c, 4, 64, 0
6, 650040, Note_on_c, 4, 67, 100
6, 650160, Note_on_c, 4, 67, 0
6, 650160, Note_on_c, 4, 71, 100
6, 650280, Note_on_c, 4, 71, 0
6, 650400, Note_on_c, 4, 54, 100
6, 650520, Note_on_c, 4, 54, 0
6, 650520, Note_on_c, 4, 57, 100
6, 650640, Note_on_c, 4, 57, 0
6, 650640, Note_on_c, 4, 61, 100
6, 650760, Note_on_c, 4, 61, 0
6, 650760, Note_on_c, 4, 59, 100
6, 650880, Note_on_c, 4, 59, 0
6, 650880, Note_on_c, 4, 57, 100
6, 651000, Note_on_c, 4, 57, 0
6, 651000, Note_on_c, 4, 61, 100
6, 651120, Note_on_c, 4, 61, 0
6, 651120, Note_on_c, 4, 66, 100
6, 651240, Note_on_c, 4, 66, 0
6, 651240, Note_on_c, 4, 64, 100
6, 651360, Note_on_c, 4, 64, 0
6, 651360, Note_on_c, 4, 62, 100
6, 651480, Note_on_c, 4, 62, 0
6, 651480, Note_on_c, 4, 66, 100
6, 651600, Note_on_c, 4, 66, 0
6, 651600, Note_on_c, 4, 69, 100
6, 651720, Note_on_c, 4, 69, 0
6, 651840, Note_on_c, 4, 52, 100
6, 651960, Note_on_c, 4, 52, 0
6, 651960, Note_on_c, 4, 55, 100
6, 652080, Note_on_c, 4, 55, 0
6, 652080, Note_on_c, 4, 59, 100
6, 652200, Note_on_c, 4, 59, 0
6, 652200, Note_on_c, 4, 57, 100
6, 652320, Note_on_c, 4, 57, 0
6, 652320, Note_on_c, 4, 55, 100
6, 652440, Note_on_c, 4, 55, 0
6, 652440, Note_on_c, 4, 59, 100
6, 652560, Note_on_c, 4, 59, 0
6, 652560, Note_on_c, 4, 64, 100
6, 652680, Note_on_c, 4, 64, 0
6, 652680, Note_on_c, 4, 62, 100
6, 652800, Note_on_c, 4, 62, 0
6, 652800, Note_on_c, 4, 61, 100
6, 652920, Note_on_c, 4, 61, 0
6, 652920, Note_on_c, 4, 64, 100
6, 653040, Note_on_c, 4, 64, 0
6, 653040, Note_on_c, 4, 67, 100
6, 653160, Note_on_c, 4, 67, 0
6, 653160, Note_on_c, 4, 66, 100
6, 653280, Note_on_c, 4, 66, 0
6, 653280, Note_on_c, 4, 64, 100
6, 653400, Note_on_c, 4, 64, 0
6, 653400, Note_on_c, 4, 67, 100
6, 653520, Note_on_c, 4, 67, 0
6, 653520, Note_on_c, 4, 73, 100
6, 653640, Note_on_c, 4, 73, 0
6, 653640, Note_on_c, 4, 71, 100
6, 653760, Note_on_c, 4, 71, 0
6, 653760, Note_on_c, 4, 69, 100
6, 653880, Note_on_c, 4, 69, 0
6, 653880, Note_on_c, 4, 73, 100
6, 654000, Note_on_c, 4, 73, 0
6, 654000, Note_on_c, 4, 76, 100
6, 654120, Note_on_c, 4, 76, 0
6, 654120, Note_on_c, 4, 74, 100
6, 654240, Note_on_c, 4, 74, 0
6, 654240, Note_on_c, 4, 73, 100
6, 654360, Note_on_c, 4, 73, 0
6, 654360, Note_on_c, 4, 76, 100
6, 654480, Note_on_c, 4, 76, 0
6, 654480, Note_on_c, 4, 81, 100
6, 654600, Note_on_c, 4, 81, 0
6, 654600, Note_on_c, 4, 79, 100
6, 654720, Note_on_c, 4, 79, 0
6, 654720, Note_on_c, 4, 78, 100
6, 654840, Note_on_c, 4, 78, 0
6, 654840, Note_on_c, 4, 81, 100
6, 654960, Note_on_c, 4, 81, 0
6, 654960, Note_on_c, 4, 74, 100
6, 655080, Note_on_c, 4, 74, 0
6, 655080, Note_on_c, 4, 76, 100
6, 655200, Note_on_c, 4, 76, 0
6, 655200, Note_on_c, 4, 78, 100
6, 655320, Note_on_c, 4, 78, 0
6, 655320, Note_on_c, 4, 74, 100
6, 655440, Note_on_c, 4, 74, 0
6, 655440, Note_on_c, 4, 69, 100
6, 655560, Note_on_c, 4, 69, 0
6, 655560, Note_on_c, 4, 71, 100
6, 655680, Note_on_c, 4, 71, 0
6, 655680, Note_on_c, 4, 72, 100
6, 655800, Note_on_c, 4, 72, 0
6, 655800, Note_on_c, 4, 69, 100
6, 655920, Note_on_c, 4, 69, 0
6, 655920, Note_on_c, 4, 66, 100
6, 656040, Note_on_c, 4, 66, 0
6, 656040, Note_on_c, 4, 69, 100
6, 656160, Note_on_c, 4, 69, 0
6, 656160, Note_on_c, 4, 71, 100
6, 656280, Note_on_c, 4, 71, 0
6, 656280, Note_on_c, 4, 74, 100
6, 656400, Note_on_c, 4, 74, 0
6, 656400, Note_on_c, 4, 67, 100
6, 656520, Note_on_c, 4, 67, 0
6, 656520, Note_on_c, 4, 69, 100
6, 656640, Note_on_c, 4, 69, 0
6, 656640, Note_on_c, 4, 71, 100
6, 656760, Note_on_c, 4, 71, 0
6, 656760, Note_on_c, 4, 67, 100
6, 656880, Note_on_c, 4, 67, 0
6, 656880, Note_on_c, 4, 64, 100
6, 657000, Note_on_c, 4, 64, 0
6, 657000, Note_on_c, 4, 66, 100
6, 657120, Note_on_c, 4, 66, 0
6, 657120, Note_on_c, 4, 67, 100
6, 657240, Note_on_c, 4, 67, 0
6, 657240, Note_on_c, 4, 64, 100
6, 657360, Note_on_c, 4, 64, 0
6, 657360, Note_on_c, 4, 59, 100
6, 657480, Note_on_c, 4, 59, 0
6, 657480, Note_on_c, 4, 62, 100
6, 657600, Note_on_c, 4, 62, 0
6, 657600, Note_on_c, 4, 61, 100
6, 657720, Note_on_c, 4, 61, 0
6, 657720, Note_on_c, 4, 64, 100
6, 657840, Note_on_c, 4, 64, 0
6, 657840, Note_on_c, 4, 57, 100
6, 657960, Note_on_c, 4, 57, 0
6, 657960, Note_on_c, 4, 59, 100
6, 658080, Note_on_c, 4, 59, 0
6, 658080, Note_on_c, 4, 61, 100
6, 658200, Note_on_c, 4, 61, 0
6, 658200, Note_on_c, 4, 57, 100
6, 658320, Note_on_c, 4, 57, 0
6, 658320, Note_on_c, 4, 52, 100
6, 658440, Note_on_c, 4, 52, 0
6, 658440, Note_on_c, 4, 54, 100
6, 658560, Note_on_c, 4, 54, 0
6, 658560, Note_on_c, 4, 55, 100
6, 658680, Note_on_c, 4, 55, 0
6, 658680, Note_on_c, 4, 52, 100
6, 658800, Note_on_c, 4, 52, 0
6, 658800, Note_on_c, 4, 49, 100
6, 658920, Note_on_c, 4, 49, 0
6, 658920, Note_on_c, 4, 52, 100
6, 659040, Note_on_c, 4, 52, 0
6, 659040, Note_on_c, 4, 54, 100
6, 659160, Note_on_c, 4, 54, 0
6, 659160, Note_on_c, 4, 57, 100
6, 659280, Note_on_c, 4, 57, 0
6, 659280, Note_on_c, 4, 50, 100
6, 659400, Note_on_c, 4, 50, 0
6, 659400, Note_on_c, 4, 52, 100
6, 659520, Note_on_c, 4, 52, 0
6, 659520, Note_on_c, 4, 54, 100
6, 659640, Note_on_c, 4, 54, 0
6, 659640, Note_on_c, 4, 50, 100
6, 659760, Note_on_c, 4, 50, 0
6, 659760, Note_on_c, 4, 54, 100
6, 659880, Note_on_c, 4, 54, 0
6, 659880, Note_on_c, 4, 57, 100
6, 660000, Note_on_c, 4, 57, 0
6, 660000, Note_on_c, 4, 62, 100
6, 660480, Note_on_c, 4, 62, 0
6, 660480, Note_on_c, 4, 62, 100
6, 660720, Note_on_c, 4, 62, 0
6, 660720, Note_on_c, 4, 57, 100
6, 660960, Note_on_c, 4, 57, 0
6, 660960, Note_on_c, 4, 54, 100
6, 661200, Note_on_c, 4, 54, 0
6, 661200, Note_on_c, 4, 50, 100
6, 661440, Note_on_c, 4, 50, 0
6, 661560, Note_on_c, 4, 60, 100
6, 661680, Note_on_c, 4, 60, 0
6, 661680, Note_on_c, 4, 59, 100
6, 661800, Note_on_c, 4, 59, 0
6, 661800, Note_on_c, 4, 57, 100
6, 661920, Note_on_c, 4, 57, 0
6, 661920, Note_on_c, 4, 55, 100
6, 662160, Note_on_c, 4, 55, 0
6, 662160, Note_on_c, 4, 50, 100
6, 662400, Note_on_c, 4, 50, 0
6, 662400, Note_on_c, 4, 47, 100
6, 662640, Note_on_c, 4, 47, 0
6, 662640, Note_on_c, 4, 43, 100
6, 662880, Note_on_c, 4, 43, 0
6, 663000, Note_on_c, 4, 53, 100
6, 663120, Note_on_c, 4, 53, 0
6, 663120, Note_on_c, 4, 52, 100
6, 663240, Note_on_c, 4, 52, 0
6, 663240, Note_on_c, 4, 50, 100
6, 663360, Note_on_c, 4, 50, 0
6, 663360, Note_on_c, 4, 48, 100
6, 663480, Note_on_c, 4, 48, 0
6, 663480, Note_on_c, 4, 52, 100
6, 663600, Note_on_c, 4, 52, 0
6, 663600, Note_on_c, 4, 57, 100
6, 663720, Note_on_c, 4, 57, 0
6, 663720, Note_on_c, 4, 55, 100
6, 663840, Note_on_c, 4, 55, 0
6, 663840, Note_on_c, 4, 54, 100
6, 663960, Note_on_c, 4, 54, 0
6, 663960, Note_on_c, 4, 57, 100
6, 664080, Note_on_c, 4, 57, 0
6, 664080, Note_on_c, 4, 60, 100
6, 664200, Note_on_c, 4, 60, 0
6, 664200, Note_on_c, 4, 59, 100
6, 664320, Note_on_c, 4, 59, 0
6, 664320, Note_on_c, 4, 57, 100
6, 664440, Note_on_c, 4, 57, 0
6, 664440, Note_on_c, 4, 60, 100
6, 664560, Note_on_c, 4, 60, 0
6, 664560, Note_on_c, 4, 63, 100
6, 664680, Note_on_c, 4, 63, 0
6, 664680, Note_on_c, 4, 61, 100
6, 664800, Note_on_c, 4, 61, 0
6, 664800, Note_on_c, 4, 59, 100
6, 664920, Note_on_c, 4, 59, 0
6, 664920, Note_on_c, 4, 63, 100
6, 665040, Note_on_c, 4, 63, 0
6, 665040, Note_on_c, 4, 66, 100
6, 665160, Note_on_c, 4, 66, 0
6, 665160, Note_on_c, 4, 64, 100
6, 665280, Note_on_c, 4, 64, 0
6, 665280, Note_on_c, 4, 63, 100
6, 665400, Note_on_c, 4, 63, 0
6, 665400, Note_on_c, 4, 66, 100
6, 665520, Note_on_c, 4, 66, 0
6, 665520, Note_on_c, 4, 69, 100
6, 665640, Note_on_c, 4, 69, 0
6, 665640, Note_on_c, 4, 67, 100
6, 665760, Note_on_c, 4, 67, 0
6, 665760, Note_on_c, 4, 66, 100
6, 665880, Note_on_c, 4, 66, 0
6, 665880, Note_on_c, 4, 69, 100
6, 666000, Note_on_c, 4, 69, 0
6, 666000, Note_on_c, 4, 72, 100
6, 666120, Note_on_c, 4, 72, 0
6, 666120, Note_on_c, 4, 69, 100
6, 666240, Note_on_c, 4, 69, 0
6, 666240, Note_on_c, 4, 71, 100
6, 666360, Note_on_c, 4, 71, 0
6, 666360, Note_on_c, 4, 67, 100
6, 666480, Note_on_c, 4, 67, 0
6, 666480, Note_on_c, 4, 64, 100
6, 666600, Note_on_c, 4, 64, 0
6, 666600, Note_on_c, 4, 66, 100
6, 666720, Note_on_c, 4, 66, 0
6, 666720, Note_on_c, 4, 67, 100
6, 666840, Note_on_c, 4, 67, 0
6, 666840, Note_on_c, 4, 64, 100
6, 666960, Note_on_c, 4, 64, 0
6, 666960, Note_on_c, 4, 59, 100
6, 667080, Note_on_c, 4, 59, 0
6, 667080, Note_on_c, 4, 63, 100
6, 667200, Note_on_c, 4, 63, 0
6, 667200, Note_on_c, 4, 64, 100
6, 667320, Note_on_c, 4, 64, 0
6, 667320, Note_on_c, 4, 59, 100
6, 667440, Note_on_c, 4, 59, 0
6, 667440, Note_on_c, 4, 55, 100
6, 667560, Note_on_c, 4, 55, 0
6, 667560, Note_on_c, 4, 59, 100
6, 667680, Note_on_c, 4, 59, 0
6, 667680, Note_on_c, 4, 60, 100
6, 667800, Note_on_c, 4, 60, 0
6, 667800, Note_on_c, 4, 57, 100
6, 667920, Note_on_c, 4, 57, 0
6, 667920, Note_on_c, 4, 52, 100
6, 668040, Note_on_c, 4, 52, 0
6, 668040, Note_on_c, 4, 56, 100
6, 668160, Note_on_c, 4, 56, 0
6, 668160, Note_on_c, 4, 57, 100
6, 668280, Note_on_c, 4, 57, 0
6, 668280, Note_on_c, 4, 52, 100
6, 668400, Note_on_c, 4, 52, 0
6, 668400, Note_on_c, 4, 48, 100
6, 668520, Note_on_c, 4, 48, 0
6, 668520, Note_on_c, 4, 50, 100
6, 668640, Note_on_c, 4, 50, 0
6, 668640, Note_on_c, 4, 52, 100
6, 668760, Note_on_c, 4, 52, 0
6, 668760, Note_on_c, 4, 48, 100
6, 668880, Note_on_c, 4, 48, 0
6, 668880, Note_on_c, 4, 45, 100
6, 669000, Note_on_c, 4, 45, 0
6, 669000, Note_on_c, 4, 48, 100
6, 669120, Note_on_c, 4, 48, 0
6, 669120, Note_on_c, 4, 39, 100
6, 669360, Note_on_c, 4, 39, 0
6, 669360, Note_on_c, 4, 51, 100
6, 669600, Note_on_c, 4, 51, 0
6, 669600, Note_on_c, 4, 52, 100
6, 669840, Note_on_c, 4, 52, 0
6, 669840, Note_on_c, 4, 48, 100
6, 670080, Note_on_c, 4, 48, 0
6, 670080, Note_on_c, 4, 45, 100
6, 670320, Note_on_c, 4, 45, 0
6, 670320, Note_on_c, 4, 47, 100
6, 670560, Note_on_c, 4, 47, 0
6, 670560, Note_on_c, 4, 40, 100
6, 670800, Note_on_c, 4, 40, 0
6, 670800, Note_on_c, 4, 43, 100
6, 671040, Note_on_c, 4, 43, 0
6, 671040, Note_on_c, 4, 47, 100
6, 671280, Note_on_c, 4, 47, 0
6, 671280, Note_on_c, 4, 52, 100
6, 671520, Note_on_c, 4, 52, 0
6, 671640, Note_on_c, 4, 50, 100
6, 671760, Note_on_c, 4, 50, 0
6, 671760, Note_on_c, 4, 48, 100
6, 671880, Note_on_c, 4, 48, 0
6, 671880, Note_on_c, 4, 47, 100
6, 672000, Note_on_c, 4, 47, 0
6, 672000, Note_on_c, 4, 48, 100
6, 672120, Note_on_c, 4, 48, 0
6, 672120, Note_on_c, 4, 52, 100
6, 672240, Note_on_c, 4, 52, 0
6, 672240, Note_on_c, 4, 55, 100
6, 672360, Note_on_c, 4, 55, 0
6, 672360, Note_on_c, 4, 53, 100
6, 672480, Note_on_c, 4, 53, 0
6, 672480, Note_on_c, 4, 52, 100
6, 672600, Note_on_c, 4, 52, 0
6, 672600, Note_on_c, 4, 55, 100
6, 672720, Note_on_c, 4, 55, 0
6, 672720, Note_on_c, 4, 60, 100
6, 672840, Note_on_c, 4, 60, 0
6, 672840, Note_on_c, 4, 59, 100
6, 672960, Note_on_c, 4, 59, 0
6, 672960, Note_on_c, 4, 58, 100
6, 673080, Note_on_c, 4, 58, 0
6, 673080, Note_on_c, 4, 61, 100
6, 673200, Note_on_c, 4, 61, 0
6, 673200, Note_on_c, 4, 66, 100
6, 673320, Note_on_c, 4, 66, 0
6, 673440, Note_on_c, 4, 47, 100
6, 673560, Note_on_c, 4, 47, 0
6, 673560, Note_on_c, 4, 50, 100
6, 673680, Note_on_c, 4, 50, 0
6, 673680, Note_on_c, 4, 54, 100
6, 673800, Note_on_c, 4, 54, 0
6, 673800, Note_on_c, 4, 52, 100
6, 673920, Note_on_c, 4, 52, 0
6, 673920, Note_on_c, 4, 50, 100
6, 674040, Note_on_c, 4, 50, 0
6, 674040, Note_on_c, 4, 54, 100
6, 674160, Note_on_c, 4, 54, 0
6, 674160, Note_on_c, 4, 59, 100
6, 674280, Note_on_c, 4, 59, 0
6, 674280, Note_on_c, 4, 57, 100
6, 674400, Note_on_c, 4, 57, 0
6, 674400, Note_on_c, 4, 56, 100
6, 674520, Note_on_c, 4, 56, 0
6, 674520, Note_on_c, 4, 59, 100
6, 674640, Note_on_c, 4, 59, 0
6, 674640, Note_on_c, 4, 64, 100
6, 674760, Note_on_c, 4, 64, 0
6, 674880, Note_on_c, 4, 45, 100
6, 675000, Note_on_c, 4, 45, 0
6, 675000, Note_on_c, 4, 48, 100
6, 675120, Note_on_c, 4, 48, 0
6, 675120, Note_on_c, 4, 52, 100
6, 675240, Note_on_c, 4, 52, 0
6, 675240, Note_on_c, 4, 50, 100
6, 675360, Note_on_c, 4, 50, 0
6, 675360, Note_on_c, 4, 48, 100
6, 675480, Note_on_c, 4, 48, 0
6, 675480, Note_on_c, 4, 45, 100
6, 675600, Note_on_c, 4, 45, 0
6, 675600, Note_on_c, 4, 48, 100
6, 675720, Note_on_c, 4, 48, 0
6, 675720, Note_on_c, 4, 52, 100
6, 675840, Note_on_c, 4, 52, 0
6, 675840, Note_on_c, 4, 57, 100
6, 675960, Note_on_c, 4, 57, 0
6, 675960, Note_on_c, 4, 60, 100
6, 676080, Note_on_c, 4, 60, 0
6, 676080, Note_on_c, 4, 54, 100
6, 676200, Note_on_c, 4, 54, 0
6, 676200, Note_on_c, 4, 55, 100
6, 676320, Note_on_c, 4, 55, 0
6, 676320, Note_on_c, 4, 57, 100
6, 676440, Note_on_c, 4, 57, 0
6, 676440, Note_on_c, 4, 54, 100
6, 676560, Note_on_c, 4, 54, 0
6, 676560, Note_on_c, 4, 50, 100
6, 676680, Note_on_c, 4, 50, 0
6, 676680, Note_on_c, 4, 52, 100
6, 676800, Note_on_c, 4, 52, 0
6, 676800, Note_on_c, 4, 54, 100
6, 676920, Note_on_c, 4, 54, 0
6, 676920, Note_on_c, 4, 50, 100
6, 677040, Note_on_c, 4, 50, 0
6, 677040, Note_on_c, 4, 45, 100
6, 677160, Note_on_c, 4, 45, 0
6, 677160, Note_on_c, 4, 47, 100
6, 677280, Note_on_c, 4, 47, 0
6, 677280, Note_on_c, 4, 48, 100
6, 677400, Note_on_c, 4, 48, 0
6, 677400, Note_on_c, 4, 45, 100
6, 677520, Note_on_c, 4, 45, 0
6, 677520, Note_on_c, 4, 42, 100
6, 677640, Note_on_c, 4, 42, 0
6, 677640, Note_on_c, 4, 38, 100
6, 677760, Note_on_c, 4, 38, 0
6, 677760, Note_on_c, 4, 43, 100
6, 678000, Note_on_c, 4, 43, 0
6, 678000, Note_on_c, 4, 47, 100
6, 678240, Note_on_c, 4, 47, 0
6, 678240, Note_on_c, 4, 50, 100
6, 678480, Note_on_c, 4, 50, 0
6, 678480, Note_on_c, 4, 53, 100
6, 678720, Note_on_c, 4, 53, 0
6, 678840, Note_on_c, 4, 53, 100
6, 678960, Note_on_c, 4, 53, 0
6, 678960, Note_on_c, 4, 52, 100
6, 679080, Note_on_c, 4, 52, 0
6, 679080, Note_on_c, 4, 50, 100
6, 679200, Note_on_c, 4, 50, 0
6, 679200, Note_on_c, 4, 48, 100
6, 679440, Note_on_c, 4, 48, 0
6, 679440, Note_on_c, 4, 52, 100
6, 679680, Note_on_c, 4, 52, 0
6, 679680, Note_on_c, 4, 55, 100
6, 679920, Note_on_c, 4, 55, 0
6, 679920, Note_on_c, 4, 60, 100
6, 680160, Note_on_c, 4, 60, 0
6, 680280, Note_on_c, 4, 60, 100
6, 680400, Note_on_c, 4, 60, 0
6, 680400, Note_on_c, 4, 59, 100
6, 680520, Note_on_c, 4, 59, 0
6, 680520, Note_on_c, 4, 60, 100
6, 680640, Note_on_c, 4, 60, 0
6, 680640, Note_on_c, 4, 50, 100
6, 680880, Note_on_c, 4, 50, 0
6, 680880, Note_on_c, 4, 54, 100
6, 681120, Note_on_c, 4, 54, 0
6, 681120, Note_on_c, 4, 57, 100
6, 681360, Note_on_c, 4, 57, 0
6, 681360, Note_on_c, 4, 60, 100
6, 681600, Note_on_c, 4, 60, 0
6, 681720, Note_on_c, 4, 60, 100
6, 681840, Note_on_c, 4, 60, 0
6, 681840, Note_on_c, 4, 62, 100
6, 681960, Note_on_c, 4, 62, 0
6, 681960, Note_on_c, 4, 54, 100
6, 682080, Note_on_c, 4, 54, 0
6, 682080, Note_on_c, 4, 55, 100
6, 682200, Note_on_c, 4, 55, 0
6, 682200, Note_on_c, 4, 59, 100
6, 682320, Note_on_c, 4, 59, 0
6, 682320, Note_on_c, 4, 62, 100
6, 682440, Note_on_c, 4, 62, 0
6, 682440, Note_on_c, 4, 66, 100
6, 682560, Note_on_c, 4, 66, 0
6, 682560, Note_on_c, 4, 67, 100
6, 682680, Note_on_c, 4, 67, 0
6, 682680, Note_on_c, 4, 66, 100
6, 682740, Note_on_c, 4, 66, 0
6, 682740, Note_on_c, 4, 64, 100
6, 682800, Note_on_c, 4, 64, 0
6, 682800, Note_on_c, 4, 62, 100
6, 682860, Note_on_c, 4, 62, 0
6, 682860, Note_on_c, 4, 60, 100
6, 682920, Note_on_c, 4, 60, 0
6, 682920, Note_on_c, 4, 59, 100
6, 682980, Note_on_c, 4, 59, 0
6, 682980, Note_on_c, 4, 57, 100
6, 683040, Note_on_c, 4, 57, 0
6, 683040, Note_on_c, 4, 55, 100
6, 683520, Note_on_c, 4, 55, 0
6, 683520, Note_on_c, 4, 62, 100
6, 683760, Note_on_c, 4, 62, 0
6, 683760, Note_on_c, 4, 57, 100
6, 684000, Note_on_c, 4, 57, 0
6, 684000, Note_on_c, 4, 54, 100
6, 684240, Note_on_c, 4, 54, 0
6, 684240, Note_on_c, 4, 50, 100
6, 684480, Note_on_c, 4, 50, 0
6, 684600, Note_on_c, 4, 60, 100
6, 684720, Note_on_c, 4, 60, 0
6, 684720, Note_on_c, 4, 59, 100
6, 684840, Note_on_c, 4, 59, 0
6, 684840, Note_on_c, 4, 57, 100
6, 684960, Note_on_c, 4, 57, 0
6, 684960, Note_on_c, 4, 55, 100
6, 685200, Note_on_c, 4, 55, 0
6, 685200, Note_on_c, 4, 50, 100
6, 685440, Note_on_c, 4, 50, 0
6, 685440, Note_on_c, 4, 47, 100
6, 685680, Note_on_c, 4, 47, 0
6, 685680, Note_on_c, 4, 43, 100
6, 685920, Note_on_c, 4, 43, 0
6, 686040, Note_on_c, 4, 53, 100
6, 686160, Note_on_c, 4, 53, 0
6, 686160, Note_on_c, 4, 52, 100
6, 686280, Note_on_c, 4, 52, 0
6, 686280, Note_on_c, 4, 50, 100
6, 686400, Note_on_c, 4, 50, 0
6, 686400, Note_on_c, 4, 48, 100
6, 686520, Note_on_c, 4, 48, 0
6, 686520, Note_on_c, 4, 52, 100
6, 686640, Note_on_c, 4, 52, 0
6, 686640, Note_on_c, 4, 57, 100
6, 686760, Note_on_c, 4, 57, 0
6, 686760, Note_on_c, 4, 55, 100
6, 686880, Note_on_c, 4, 55, 0
6, 686880, Note_on_c, 4, 54, 100
6, 687000, Note_on_c, 4, 54, 0
6, 687000, Note_on_c, 4, 57, 100
6, 687120, Note_on_c, 4, 57, 0
6, 687120, Note_on_c, 4, 60, 100
6, 687240, Note_on_c, 4, 60, 0
6, 687240, Note_on_c, 4, 59, 100
6, 687360, Note_on_c, 4, 59, 0
6, 687360, Note_on_c, 4, 57, 100
6, 687480, Note_on_c, 4, 57, 0
6, 687480, Note_on_c, 4, 60, 100
6, 687600, Note_on_c, 4, 60, 0
6, 687600, Note_on_c, 4, 63, 100
6, 687720, Note_on_c, 4, 63, 0
6, 687720, Note_on_c, 4, 61, 100
6, 687840, Note_on_c, 4, 61, 0
6, 687840, Note_on_c, 4, 59, 100
6, 687960, Note_on_c, 4, 59, 0
6, 687960, Note_on_c, 4, 63, 100
6, 688080, Note_on_c, 4, 63, 0
6, 688080, Note_on_c, 4, 66, 100
6, 688200, Note_on_c, 4, 66, 0
6, 688200, Note_on_c, 4, 64, 100
6, 688320, Note_on_c, 4, 64, 0
6, 688320, Note_on_c, 4, 63, 100
6, 688440, Note_on_c, 4, 63, 0
6, 688440, Note_on_c, 4, 66, 100
6, 688560, Note_on_c, 4, 66, 0
6, 688560, Note_on_c, 4, 69, 100
6, 688680, Note_on_c, 4, 69, 0
6, 688680, Note_on_c, 4, 67, 100
6, 688800, Note_on_c, 4, 67, 0
6, 688800, Note_on_c, 4, 66, 100
6, 688920, Note_on_c, 4, 66, 0
6, 688920, Note_on_c, 4, 69, 100
6, 689040, Note_on_c, 4, 69, 0
6, 689040, Note_on_c, 4, 72, 100
6, 689160, Note_on_c, 4, 72, 0
6, 689160, Note_on_c, 4, 69, 100
6, 689280, Note_on_c, 4, 69, 0
6, 689280, Note_on_c, 4, 71, 100
6, 689400, Note_on_c, 4, 71, 0
6, 689400, Note_on_c, 4, 67, 100
6, 689520, Note_on_c, 4, 67, 0
6, 689520, Note_on_c, 4, 64, 100
6, 689640, Note_on_c, 4, 64, 0
6, 689640, Note_on_c, 4, 66, 100
6, 689760, Note_on_c, 4, 66, 0
6, 689760, Note_on_c, 4, 67, 100
6, 689880, Note_on_c, 4, 67, 0
6, 689880, Note_on_c, 4, 64, 100
6, 690000, Note_on_c, 4, 64, 0
6, 690000, Note_on_c, 4, 59, 100
6, 690120, Note_on_c, 4, 59, 0
6, 690120, Note_on_c, 4, 63, 100
6, 690240, Note_on_c, 4, 63, 0
6, 690240, Note_on_c, 4, 64, 100
6, 690360, Note_on_c, 4, 64, 0
6, 690360, Note_on_c, 4, 59, 100
6, 690480, Note_on_c, 4, 59, 0
6, 690480, Note_on_c, 4, 55, 100
6, 690600, Note_on_c, 4, 55, 0
6, 690600, Note_on_c, 4, 59, 100
6, 690720, Note_on_c, 4, 59, 0
6, 690720, Note_on_c, 4, 60, 100
6, 690840, Note_on_c, 4, 60, 0
6, 690840, Note_on_c, 4, 57, 100
6, 690960, Note_on_c, 4, 57, 0
6, 690960, Note_on_c, 4, 52, 100
6, 691080, Note_on_c, 4, 52, 0
6, 691080, Note_on_c, 4, 56, 100
6, 691200, Note_on_c, 4, 56, 0
6, 691200, Note_on_c, 4, 57, 100
6, 691320, Note_on_c, 4, 57, 0
6, 691320, Note_on_c, 4, 52, 100
6, 691440, Note_on_c, 4, 52, 0
6, 691440, Note_on_c, 4, 48, 100
6, 691560, Note_on_c, 4, 48, 0
6, 691560, Note_on_c, 4, 50, 100
6, 691680, Note_on_c, 4, 50, 0
6, 691680, Note_on_c, 4, 52, 100
6, 691800, Note_on_c, 4, 52, 0
6, 691800, Note_on_c, 4, 48, 100
6, 691920, Note_on_c, 4, 48, 0
6, 691920, Note_on_c, 4, 45, 100
6, 692040, Note_on_c, 4, 45, 0
6, 692040, Note_on_c, 4, 48, 100
6, 692160, Note_on_c, 4, 48, 0
6, 692160, Note_on_c, 4, 39, 100
6, 692400, Note_on_c, 4, 39, 0
6, 692400, Note_on_c, 4, 51, 100
6, 692640, Note_on_c, 4, 51, 0
6, 692640, Note_on_c, 4, 52, 100
6, 692880, Note_on_c, 4, 52, 0
6, 692880, Note_on_c, 4, 48, 100
6, 693120, Note_on_c, 4, 48, 0
6, 693120, Note_on_c, 4, 45, 100
6, 693360, Note_on_c, 4, 45, 0
6, 693360, Note_on_c, 4, 47, 100
6, 693600, Note_on_c, 4, 47, 0
6, 693600, Note_on_c, 4, 40, 100
6, 693840, Note_on_c, 4, 40, 0
6, 693840, Note_on_c, 4, 43, 100
6, 694080, Note_on_c, 4, 43, 0
6, 694080, Note_on_c, 4, 47, 100
6, 694320, Note_on_c, 4, 47, 0
6, 694320, Note_on_c, 4, 52, 100
6, 694560, Note_on_c, 4, 52, 0
6, 694680, Note_on_c, 4, 50, 100
6, 694800, Note_on_c, 4, 50, 0
6, 694800, Note_on_c, 4, 48, 100
6, 694920, Note_on_c, 4, 48, 0
6, 694920, Note_on_c, 4, 47, 100
6, 695040, Note_on_c, 4, 47, 0
6, 695040, Note_on_c, 4, 48, 100
6, 695160, Note_on_c, 4, 48, 0
6, 695160, Note_on_c, 4, 52, 100
6, 695280, Note_on_c, 4, 52, 0
6, 695280, Note_on_c, 4, 55, 100
6, 695400, Note_on_c, 4, 55, 0
6, 695400, Note_on_c, 4, 53, 100
6, 695520, Note_on_c, 4, 53, 0
6, 695520, Note_on_c, 4, 52, 100
6, 695640, Note_on_c, 4, 52, 0
6, 695640, Note_on_c, 4, 55, 100
6, 695760, Note_on_c, 4, 55, 0
6, 695760, Note_on_c, 4, 60, 100
6, 695880, Note_on_c, 4, 60, 0
6, 695880, Note_on_c, 4, 59, 100
6, 696000, Note_on_c, 4, 59, 0
6, 696000, Note_on_c, 4, 58, 100
6, 696120, Note_on_c, 4, 58, 0
6, 696120, Note_on_c, 4, 61, 100
6, 696240, Note_on_c, 4, 61, 0
6, 696240, Note_on_c, 4, 66, 100
6, 696360, Note_on_c, 4, 66, 0
6, 696480, Note_on_c, 4, 47, 100
6, 696600, Note_on_c, 4, 47, 0
6, 696600, Note_on_c, 4, 50, 100
6, 696720, Note_on_c, 4, 50, 0
6, 696720, Note_on_c, 4, 54, 100
6, 696840, Note_on_c, 4, 54, 0
6, 696840, Note_on_c, 4, 52, 100
6, 696960, Note_on_c, 4, 52, 0
6, 696960, Note_on_c, 4, 50, 100
6, 697080, Note_on_c, 4, 50, 0
6, 697080, Note_on_c, 4, 54, 100
6, 697200, Note_on_c, 4, 54, 0
6, 697200, Note_on_c, 4, 59, 100
6, 697320, Note_on_c, 4, 59, 0
6, 697320, Note_on_c, 4, 57, 100
6, 697440, Note_on_c, 4, 57, 0
6, 697440, Note_on_c, 4, 56, 100
6, 697560, Note_on_c, 4, 56, 0
6, 697560, Note_on_c, 4, 59, 100
6, 697680, Note_on_c, 4, 59, 0
6, 697680, Note_on_c, 4, 64, 100
6, 697800, Note_on_c, 4, 64, 0
6, 697920, Note_on_c, 4, 45, 100
6, 698040, Note_on_c, 4, 45, 0
6, 698040, Note_on_c, 4, 48, 100
6, 698160, Note_on_c, 4, 48, 0
6, 698160, Note_on_c, 4, 52, 100
6, 698280, Note_on_c, 4, 52, 0
6, 698280, Note_on_c, 4, 50, 100
6, 698400, Note_on_c, 4, 50, 0
6, 698400, Note_on_c, 4, 48, 100
6, 698520, Note_on_c, 4, 48, 0
6, 698520, Note_on_c, 4, 45, 100
6, 698640, Note_on_c, 4, 45, 0
6, 698640, Note_on_c, 4, 48, 100
6, 698760, Note_on_c, 4, 48, 0
6, 698760, Note_on_c, 4, 52, 100
6, 698880, Note_on_c, 4, 52, 0
6, 698880, Note_on_c, 4, 57, 100
6, 699000, Note_on_c, 4, 57, 0
6, 699000, Note_on_c, 4, 60, 100
6, 699120, Note_on_c, 4, 60, 0
6, 699120, Note_on_c, 4, 54, 100
6, 699240, Note_on_c, 4, 54, 0
6, 699240, Note_on_c, 4, 55, 100
6, 699360, Note_on_c, 4, 55, 0
6, 699360, Note_on_c, 4, 57, 100
6, 699480, Note_on_c, 4, 57, 0
6, 699480, Note_on_c, 4, 54, 100
6, 699600, Note_on_c, 4, 54, 0
6, 699600, Note_on_c, 4, 50, 100
6, 699720, Note_on_c, 4, 50, 0
6, 699720, Note_on_c, 4, 52, 100
6, 699840, Note_on_c, 4, 52, 0
6, 699840, Note_on_c, 4, 54, 100
6, 699960, Note_on_c, 4, 54, 0
6, 699960, Note_on_c, 4, 50, 100
6, 700080, Note_on_c, 4, 50, 0
6, 700080, Note_on_c, 4, 45, 100
6, 700200, Note_on_c, 4, 45, 0
6, 700200, Note_on_c, 4, 47, 100
6, 700320, Note_on_c, 4, 47, 0
6, 700320, Note_on_c, 4, 48, 100
6, 700440, Note_on_c, 4, 48, 0
6, 700440, Note_on_c, 4, 45, 100
6, 700560, Note_on_c, 4, 45, 0
6, 700560, Note_on_c, 4, 42, 100
6, 700680, Note_on_c, 4, 42, 0
6, 700680, Note_on_c, 4, 38, 100
6, 700800, Note_on_c, 4, 38, 0
6, 700800, Note_on_c, 4, 43, 100
6, 701040, Note_on_c, 4, 43, 0
6, 701040, Note_on_c, 4, 47, 100
6, 701280, Note_on_c, 4, 47, 0
6, 701280, Note_on_c, 4, 50, 100
6, 701520, Note_on_c, 4, 50, 0
6, 701520, Note_on_c, 4, 53, 100
6, 701760, Note_on_c, 4, 53, 0
6, 701880, Note_on_c, 4, 53, 100
6, 702000, Note_on_c, 4, 53, 0
6, 702000, Note_on_c, 4, 52, 100
6, 702120, Note_on_c, 4, 52, 0
6, 702120, Note_on_c, 4, 50, 100
6, 702240, Note_on_c, 4, 50, 0
6, 702240, Note_on_c, 4, 48, 100
6, 702480, Note_on_c, 4, 48, 0
6, 702480, Note_on_c, 4, 52, 100
6, 702720, Note_on_c, 4, 52, 0
6, 702720, Note_on_c, 4, 55, 100
6, 702960, Note_on_c, 4, 55, 0
6, 702960, Note_on_c, 4, 60, 100
6, 703200, Note_on_c, 4, 60, 0
6, 703320, Note_on_c, 4, 60, 100
6, 703440, Note_on_c, 4, 60, 0
6, 703440, Note_on_c, 4, 59, 100
6, 703560, Note_on_c, 4, 59, 0
6, 703560, Note_on_c, 4, 60, 100
6, 703680, Note_on_c, 4, 60, 0
6, 703680, Note_on_c, 4, 50, 100
6, 703920, Note_on_c, 4, 50, 0
6, 703920, Note_on_c, 4, 54, 100
6, 704160, Note_on_c, 4, 54, 0
6, 704160, Note_on_c, 4, 57, 100
6, 704400, Note_on_c, 4, 57, 0
6, 704400, Note_on_c, 4, 60, 100
6, 704640, Note_on_c, 4, 60, 0
6, 704760, Note_on_c, 4, 60, 100
6, 704880, Note_on_c, 4, 60, 0
6, 704880, Note_on_c, 4, 62, 100
6, 705000, Note_on_c, 4, 62, 0
6, 705000, Note_on_c, 4, 54, 100
6, 705120, Note_on_c, 4, 54, 0
6, 705120, Note_on_c, 4, 55, 100
6, 705240, Note_on_c, 4, 55, 0
6, 705240, Note_on_c, 4, 59, 100
6, 705360, Note_on_c, 4, 59, 0
6, 705360, Note_on_c, 4, 62, 100
6, 705480, Note_on_c, 4, 62, 0
6, 705480, Note_on_c, 4, 66, 100
6, 705600, Note_on_c, 4, 66, 0
6, 705600, Note_on_c, 4, 67, 100
6, 705720, Note_on_c, 4, 67, 0
6, 705720, Note_on_c, 4, 66, 100
6, 705780, Note_on_c, 4, 66, 0
6, 705780, Note_on_c, 4, 64, 100
6, 705840, Note_on_c, 4, 64, 0
6, 705840, Note_on_c, 4, 62, 100
6, 705900, Note_on_c, 4, 62, 0
6, 705900, Note_on_c, 4, 60, 100
6, 705960, Note_on_c, 4, 60, 0
6, 705960, Note_on_c, 4, 59, 100
6, 706020, Note_on_c, 4, 59, 0
6, 706020, Note_on_c, 4, 57, 100
6, 706080, Note_on_c, 4, 57, 0
6, 706080, Note_on_c, 4, 55, 100
6, 706560, Note_on_c, 4, 55, 0
6, 775680, Note_on_c, 4, 62, 100
6, 775800, Note_on_c, 4, 62, 0
6, 775800, Note_on_c, 4, 60, 100
6, 775920, Note_on_c, 4, 60, 0
6, 775920, Note_on_c, 4, 62, 100
6, 776640, Note_on_c, 4, 62, 0
6, 776640, Note_on_c, 4, 64, 100
6, 776760, Note_on_c, 4, 64, 0
6, 776760, Note_on_c, 4, 62, 100
6, 776880, Note_on_c, 4, 62, 0
6, 776880, Note_on_c, 4, 64, 100
6, 777000, Note_on_c, 4, 64, 0
6, 777000, Note_on_c, 4, 62, 100
6, 777120, Note_on_c, 4, 62, 0
6, 777120, Note_on_c, 4, 64, 100
6, 777240, Note_on_c, 4, 64, 0
6, 777240, Note_on_c, 4, 62, 100
6, 777360, Note_on_c, 4, 62, 0
6, 777360, Note_on_c, 4, 60, 100
6, 777480, Note_on_c, 4, 60, 0
6, 777480, Note_on_c, 4, 62, 100
6, 777600, Note_on_c, 4, 62, 0
6, 777600, Note_on_c, 4, 64, 100
6, 778080, Note_on_c, 4, 64, 0
6, 778080, Note_on_c, 4, 60, 100
6, 778560, Note_on_c, 4, 60, 0
6, 778560, Note_on_c, 4, 57, 100
6, 779040, Note_on_c, 4, 57, 0
6, 779040, Note_on_c, 4, 60, 100
6, 779520, Note_on_c, 4, 60, 0
6, 779520, Note_on_c, 4, 57, 100
6, 780000, Note_on_c, 4, 57, 0
6, 780000, Note_on_c, 4, 62, 100
6, 780480, Note_on_c, 4, 62, 0
6, 780480, Note_on_c, 4, 50, 100
6, 780960, Note_on_c, 4, 50, 0
6, 780960, Note_on_c, 4, 60, 100
6, 781440, Note_on_c, 4, 60, 0
6, 781440, Note_on_c, 4, 60, 100
6, 781520, Note_on_c, 4, 60, 0
6, 781520, Note_on_c, 4, 59, 100
6, 781600, Note_on_c, 4, 59, 0
6, 781600, Note_on_c, 4, 60, 100
6, 781680, Note_on_c, 4, 60, 0
6, 781680, Note_on_c, 4, 59, 100
6, 781920, Note_on_c, 4, 59, 0
6, 781920, Note_on_c, 4, 57, 100
6, 782160, Note_on_c, 4, 57, 0
6, 782160, Note_on_c, 4, 59, 100
6, 782400, Note_on_c, 4, 59, 0
6, 782400, Note_on_c, 4, 55, 100
6, 782640, Note_on_c, 4, 55, 0
6, 782640, Note_on_c, 4, 59, 100
6, 782880, Note_on_c, 4, 59, 0
6, 782880, Note_on_c, 4, 57, 100
6, 783120, Note_on_c, 4, 57, 0
6, 783120, Note_on_c, 4, 60, 100
6, 783360, Note_on_c, 4, 60, 0
6, 783360, Note_on_c, 4, 59, 100
6, 783600, Note_on_c, 4, 59, 0
6, 783600, Note_on_c, 4, 57, 100
6, 783840, Note_on_c, 4, 57, 0
6, 783840, Note_on_c, 4, 59, 100
6, 784320, Note_on_c, 4, 59, 0
6, 784320, Note_on_c, 4, 64, 100
6, 785760, Note_on_c, 4, 64, 0
6, 785760, Note_on_c, 4, 57, 100
6, 786240, Note_on_c, 4, 57, 0
6, 786240, Note_on_c, 4, 62, 100
6, 787680, Note_on_c, 4, 62, 0
6, 787680, Note_on_c, 4, 59, 100
6, 788160, Note_on_c, 4, 59, 0
6, 788160, Note_on_c, 4, 64, 100
6, 789600, Note_on_c, 4, 64, 0
6, 789600, Note_on_c, 4, 62, 100
6, 790080, Note_on_c, 4, 62, 0
6, 790080, Note_on_c, 4, 61, 100
6, 790560, Note_on_c, 4, 61, 0
6, 790560, Note_on_c, 4, 64, 100
6, 791040, Note_on_c, 4, 64, 0
6, 791040, Note_on_c, 4, 57, 100
6, 791280, Note_on_c, 4, 57, 0
6, 791280, Note_on_c, 4, 59, 100
6, 791520, Note_on_c, 4, 59, 0
6, 791520, Note_on_c, 4, 57, 100
6, 791760, Note_on_c, 4, 57, 0
6, 791760, Note_on_c, 4, 55, 100
6, 792000, Note_on_c, 4, 55, 0
6, 792000, Note_on_c, 4, 54, 100
6, 792960, Note_on_c, 4, 54, 0
6, 792960, Note_on_c, 4, 55, 100
6, 793920, Note_on_c, 4, 55, 0
6, 795360, Note_on_c, 4, 52, 100
6, 795840, Note_on_c, 4, 52, 0
6, 795840, Note_on_c, 4, 57, 100
6, 797040, Note_on_c, 4, 57, 0
6, 797040, Note_on_c, 4, 57, 100
6, 797280, Note_on_c, 4, 57, 0
6, 797280, Note_on_c, 4, 55, 100
6, 797520, Note_on_c, 4, 55, 0
6, 797520, Note_on_c, 4, 57, 100
6, 797760, Note_on_c, 4, 57, 0
6, 797760, Note_on_c, 4, 54, 100
6, 798720, Note_on_c, 4, 54, 0
6, 806400, Note_on_c, 4, 62, 100
6, 806520, Note_on_c, 4, 62, 0
6, 806520, Note_on_c, 4, 60, 100
6, 806640, Note_on_c, 4, 60, 0
6, 806640, Note_on_c, 4, 62, 100
6, 807360, Note_on_c, 4, 62, 0
6, 807360, Note_on_c, 4, 64, 100
6, 807480, Note_on_c, 4, 64, 0
6, 807480, Note_on_c, 4, 62, 100
6, 807600, Note_on_c, 4, 62, 0
6, 807600, Note_on_c, 4, 64, 100
6, 807720, Note_on_c, 4, 64, 0
6, 807720, Note_on_c, 4, 62, 100
6, 807840, Note_on_c, 4, 62, 0
6, 807840, Note_on_c, 4, 64, 100
6, 807960, Note_on_c, 4, 64, 0
6, 807960, Note_on_c, 4, 62, 100
6, 808080, Note_on_c, 4, 62, 0
6, 808080, Note_on_c, 4, 60, 100
6, 808200, Note_on_c, 4, 60, 0
6, 808200, Note_on_c, 4, 62, 100
6, 808320, Note_on_c, 4, 62, 0
6, 808320, Note_on_c, 4, 64, 100
6, 808800, Note_on_c, 4, 64, 0
6, 808800, Note_on_c, 4, 60, 100
6, 809280, Note_on_c, 4, 60, 0
6, 809280, Note_on_c, 4, 57, 100
6, 809760, Note_on_c, 4, 57, 0
6, 809760, Note_on_c, 4, 60, 100
6, 810240, Note_on_c, 4, 60, 0
6, 810240, Note_on_c, 4, 57, 100
6, 810720, Note_on_c, 4, 57, 0
6, 810720, Note_on_c, 4, 62, 100
6, 811200, Note_on_c, 4, 62, 0
6, 811200, Note_on_c, 4, 50, 100
6, 811680, Note_on_c, 4, 50, 0
6, 811680, Note_on_c, 4, 60, 100
6, 812160, Note_on_c, 4, 60, 0
6, 812160, Note_on_c, 4, 60, 100
6, 812240, Note_on_c, 4, 60, 0
6, 812240, Note_on_c, 4, 59, 100
6, 812320, Note_on_c, 4, 59, 0
6, 812320, Note_on_c, 4, 60, 100
6, 812400, Note_on_c, 4, 60, 0
6, 812400, Note_on_c, 4, 59, 100
6, 812640, Note_on_c, 4, 59, 0
6, 812640, Note_on_c, 4, 57, 100
6, 812880, Note_on_c, 4, 57, 0
6, 812880, Note_on_c, 4, 59, 100
6, 813120, Note_on_c, 4, 59, 0
6, 813120, Note_on_c, 4, 55, 100
6, 813360, Note_on_c, 4, 55, 0
6, 813360, Note_on_c, 4, 59, 100
6, 813600, Note_on_c, 4, 59, 0
6, 813600, Note_on_c, 4, 57, 100
6, 813840, Note_on_c, 4, 57, 0
6, 813840, Note_on_c, 4, 60, 100
6, 814080, Note_on_c, 4, 60, 0
6, 814080, Note_on_c, 4, 59, 100
6, 814320, Note_on_c, 4, 59, 0
6, 814320, Note_on_c, 4, 57, 100
6, 814560, Note_on_c, 4, 57, 0
6, 814560, Note_on_c, 4, 59, 100
6, 815040, Note_on_c, 4, 59, 0
6, 815040, Note_on_c, 4, 64, 100
6, 816480, Note_on_c, 4, 64, 0
6, 816480, Note_on_c, 4, 57, 100
6, 816960, Note_on_c, 4, 57, 0
6, 816960, Note_on_c, 4, 62, 100
6, 818400, Note_on_c, 4, 62, 0
6, 818400, Note_on_c, 4, 59, 100
6, 818880, Note_on_c, 4, 59, 0
6, 818880, Note_on_c, 4, 64, 100
6, 820320, Note_on_c, 4, 64, 0
6, 820320, Note_on_c, 4, 62, 100
6, 820800, Note_on_c, 4, 62, 0
6, 820800, Note_on_c, 4, 61, 100
6, 821280, Note_on_c, 4, 61, 0
6, 821280, Note_on_c, 4, 64, 100
6, 821760, Note_on_c, 4, 64, 0
6, 821760, Note_on_c, 4, 57, 100
6, 822000, Note_on_c, 4, 57, 0
6, 822000, Note_on_c, 4, 59, 100
6, 822240, Note_on_c, 4, 59, 0
6, 822240, Note_on_c, 4, 57, 100
6, 822480, Note_on_c, 4, 57, 0
6, 822480, Note_on_c, 4, 55, 100
6, 822720, Note_on_c, 4, 55, 0
6, 822720, Note_on_c, 4, 54, 100
6, 823680, Note_on_c, 4, 54, 0
6, 823680, Note_on_c, 4, 55, 100
6, 824640, Note_on_c, 4, 55, 0
6, 826080, Note_on_c, 4, 52, 100
6, 826560, Note_on_c, 4, 52, 0
6, 826560, Note_on_c, 4, 57, 100
6, 827760, Note_on_c, 4, 57, 0
6, 827760, Note_on_c, 4, 57, 100
6, 828000, Note_on_c, 4, 57, 0
6, 828000, Note_on_c, 4, 55, 100
6, 828240, Note_on_c, 4, 55, 0
6, 828240, Note_on_c, 4, 57, 100
6, 828480, Note_on_c, 4, 57, 0
6, 828480, Note_on_c, 4, 54, 100
6, 829440, Note_on_c, 4, 54, 0
6, 852480, Note_on_c, 4, 62, 100
6, 853440, Note_on_c, 4, 62, 0
6, 853440, Note_on_c, 4, 64, 100
6, 853560, Note_on_c, 4, 64, 0
6, 853560, Note_on_c, 4, 62, 100
6, 853680, Note_on_c, 4, 62, 0
6, 853680, Note_on_c, 4, 64, 100
6, 853800, Note_on_c, 4, 64, 0
6, 853800, Note_on_c, 4, 62, 100
6, 853920, Note_on_c, 4, 62, 0
6, 853920, Note_on_c, 4, 64, 100
6, 854040, Note_on_c, 4, 64, 0
6, 854040, Note_on_c, 4, 62, 100
6, 854160, Note_on_c, 4, 62, 0
6, 854160, Note_on_c, 4, 60, 100
6, 854280, Note_on_c, 4, 60, 0
6, 854280, Note_on_c, 4, 62, 100
6, 854400, Note_on_c, 4, 62, 0
6, 854400, Note_on_c, 4, 64, 100
6, 854880, Note_on_c, 4, 64, 0
6, 854880, Note_on_c, 4, 60, 100
6, 855360, Note_on_c, 4, 60, 0
6, 855360, Note_on_c, 4, 57, 100
6, 855840, Note_on_c, 4, 57, 0
6, 855840, Note_on_c, 4, 60, 100
6, 856320, Note_on_c, 4, 60, 0
6, 856320, Note_on_c, 4, 57, 100
6, 856800, Note_on_c, 4, 57, 0
6, 856800, Note_on_c, 4, 62, 100
6, 857280, Note_on_c, 4, 62, 0
6, 857280, Note_on_c, 4, 50, 100
6, 857760, Note_on_c, 4, 50, 0
6, 857760, Note_on_c, 4, 60, 100
6, 858240, Note_on_c, 4, 60, 0
6, 858240, Note_on_c, 4, 60, 100
6, 858320, Note_on_c, 4, 60, 0
6, 858320, Note_on_c, 4, 59, 100
6, 858400, Note_on_c, 4, 59, 0
6, 858400, Note_on_c, 4, 60, 100
6, 858480, Note_on_c, 4, 60, 0
6, 858480, Note_on_c, 4, 59, 100
6, 858720, Note_on_c, 4, 59, 0
6, 858720, Note_on_c, 4, 57, 100
6, 858960, Note_on_c, 4, 57, 0
6, 858960, Note_on_c, 4, 59, 100
6, 859200, Note_on_c, 4, 59, 0
6, 859200, Note_on_c, 4, 55, 100
6, 860160, Note_on_c, 4, 55, 0
6, 883200, Note_on_c, 4, 62, 100
6, 884160, Note_on_c, 4, 62, 0
6, 884160, Note_on_c, 4, 64, 100
6, 884280, Note_on_c, 4, 64, 0
6, 884280, Note_on_c, 4, 62, 100
6, 884400, Note_on_c, 4, 62, 0
6, 884400, Note_on_c, 4, 64, 100
6, 884520, Note_on_c, 4, 64, 0
6, 884520, Note_on_c, 4, 62, 100
6, 884640, Note_on_c, 4, 62, 0
6, 884640, Note_on_c, 4, 64, 100
6, 884760, Note_on_c, 4, 64, 0
6, 884760, Note_on_c, 4, 62, 100
6, 884880, Note_on_c, 4, 62, 0
6, 884880, Note_on_c, 4, 60, 100
6, 885000, Note_on_c, 4, 60, 0
6, 885000, Note_on_c, 4, 62, 100
6, 885120, Note_on_c, 4, 62, 0
6, 885120, Note_on_c, 4, 64, 100
6, 885600, Note_on_c, 4, 64, 0
6, 885600, Note_on_c, 4, 60, 100
6, 886080, Note_on_c, 4, 60, 0
6, 886080, Note_on_c, 4, 57, 100
6, 886560, Note_on_c, 4, 57, 0
6, 886560, Note_on_c, 4, 60, 100
6, 887040, Note_on_c, 4, 60, 0
6, 887040, Note_on_c, 4, 57, 100
6, 887520, Note_on_c, 4, 57, 0
6, 887520, Note_on_c, 4, 62, 100
6, 888000, Note_on_c, 4, 62, 0
6, 888000, Note_on_c, 4, 50, 100
6, 888480, Note_on_c, 4, 50, 0
6, 888480, Note_on_c, 4, 60, 100
6, 888960, Note_on_c, 4, 60, 0
6, 888960, Note_on_c, 4, 60, 100
6, 889040, Note_on_c, 4, 60, 0
6, 889040, Note_on_c, 4, 59, 100
6, 889120, Note_on_c, 4, 59, 0
6, 889120, Note_on_c, 4, 60, 100
6, 889200, Note_on_c, 4, 60, 0
6, 889200, Note_on_c, 4, 59, 100
6, 889440, Note_on_c, 4, 59, 0
6, 889440, Note_on_c, 4, 57, 100
6, 889680, Note_on_c, 4, 57, 0
6, 889680, Note_on_c, 4, 59, 100
6, 889920, Note_on_c, 4, 59, 0
6, 889920, Note_on_c, 4, 55, 100
6, 890880, Note_on_c, 4, 55, 0
6, 890880, Note_on_c, 4, 55, 100
6, 891480, Note_on_c, 4, 55, 0
6, 891480, Note_on_c, 4, 59, 100
6, 891600, Note_on_c, 4, 59, 0
6, 891600, Note_on_c, 4, 64, 100
6, 891720, Note_on_c, 4, 64, 0
6, 891720, Note_on_c, 4, 62, 100
6, 891840, Note_on_c, 4, 62, 0
6, 891840, Note_on_c, 4, 61, 100
6, 891960, Note_on_c, 4, 61, 0
6, 891960, Note_on_c, 4, 59, 100
6, 892080, Note_on_c, 4, 59, 0
6, 892080, Note_on_c, 4, 57, 100
6, 892200, Note_on_c, 4, 57, 0
6, 892200, Note_on_c, 4, 55, 100
6, 892320, Note_on_c, 4, 55, 0
6, 892320, Note_on_c, 4, 54, 100
6, 892920, Note_on_c, 4, 54, 0
6, 892920, Note_on_c, 4, 64, 100
6, 893040, Note_on_c, 4, 64, 0
6, 893040, Note_on_c, 4, 62, 100
6, 893160, Note_on_c, 4, 62, 0
6, 893160, Note_on_c, 4, 61, 100
6, 893280, Note_on_c, 4, 61, 0
6, 893280, Note_on_c, 4, 59, 100
6, 893400, Note_on_c, 4, 59, 0
6, 893400, Note_on_c, 4, 57, 100
6, 893520, Note_on_c, 4, 57, 0
6, 893520, Note_on_c, 4, 55, 100
6, 893640, Note_on_c, 4, 55, 0
6, 893640, Note_on_c, 4, 54, 100
6, 893760, Note_on_c, 4, 54, 0
6, 893760, Note_on_c, 4, 52, 100
6, 894000, Note_on_c, 4, 52, 0
6, 894000, Note_on_c, 4, 55, 100
6, 894120, Note_on_c, 4, 55, 0
6, 894120, Note_on_c, 4, 59, 100
6, 894360, Note_on_c, 4, 59, 0
6, 894360, Note_on_c, 4, 62, 100
6, 894480, Note_on_c, 4, 62, 0
6, 894480, Note_on_c, 4, 61, 100
6, 894600, Note_on_c, 4, 61, 0
6, 894600, Note_on_c, 4, 59, 100
6, 894720, Note_on_c, 4, 59, 0
6, 894720, Note_on_c, 4, 57, 100
6, 894840, Note_on_c, 4, 57, 0
6, 894840, Note_on_c, 4, 55, 100
6, 894960, Note_on_c, 4, 55, 0
6, 894960, Note_on_c, 4, 54, 100
6, 895080, Note_on_c, 4, 54, 0
6, 895080, Note_on_c, 4, 52, 100
6, 895200, Note_on_c, 4, 52, 0
6, 895200, Note_on_c, 4, 50, 100
6, 895320, Note_on_c, 4, 50, 0
6, 895320, Note_on_c, 4, 52, 100
6, 895440, Note_on_c, 4, 52, 0
6, 895440, Note_on_c, 4, 54, 100
6, 895560, Note_on_c, 4, 54, 0
6, 895560, Note_on_c, 4, 55, 100
6, 895680, Note_on_c, 4, 55, 0
6, 895680, Note_on_c, 4, 57, 100
6, 895800, Note_on_c, 4, 57, 0
6, 895800, Note_on_c, 4, 59, 100
6, 895920, Note_on_c, 4, 59, 0
6, 895920, Note_on_c, 4, 61, 100
6, 896040, Note_on_c, 4, 61, 0
6, 896040, Note_on_c, 4, 62, 100
6, 896160, Note_on_c, 4, 62, 0
6, 896160, Note_on_c, 4, 64, 100
6, 896280, Note_on_c, 4, 64, 0
6, 896280, Note_on_c, 4, 66, 100
6, 896400, Note_on_c, 4, 66, 0
6, 896400, Note_on_c, 4, 67, 100
6, 896520, Note_on_c, 4, 67, 0
6, 896520, Note_on_c, 4, 69, 100
6, 896640, Note_on_c, 4, 69, 0
6, 896640, Note_on_c, 4, 69, 100
6, 896760, Note_on_c, 4, 69, 0
6, 896760, Note_on_c, 4, 67, 100
6, 896820, Note_on_c, 4, 67, 0
6, 896820, Note_on_c, 4, 69, 100
6, 896880, Note_on_c, 4, 69, 0
6, 896880, Note_on_c, 4, 67, 100
6, 896940, Note_on_c, 4, 67, 0
6, 896940, Note_on_c, 4, 69, 100
6, 897000, Note_on_c, 4, 69, 0
6, 897000, Note_on_c, 4, 67, 100
6, 897060, Note_on_c, 4, 67, 0
6, 897060, Note_on_c, 4, 69, 100
6, 897120, Note_on_c, 4, 69, 0
6, 897120, Note_on_c, 4, 67, 100
6, 897180, Note_on_c, 4, 67, 0
6, 897180, Note_on_c, 4, 69, 100
6, 897240, Note_on_c, 4, 69, 0
6, 897240, Note_on_c, 4, 67, 100
6, 897300, Note_on_c, 4, 67, 0
6, 897300, Note_on_c, 4, 69, 100
6, 897360, Note_on_c, 4, 69, 0
6, 897360, Note_on_c, 4, 67, 100
6, 897600, Note_on_c, 4, 67, 0
6, 897600, Note_on_c, 4, 59, 100
6, 897720, Note_on_c, 4, 59, 0
6, 897720, Note_on_c, 4, 62, 100
6, 897960, Note_on_c, 4, 62, 0
6, 897960, Note_on_c, 4, 67, 100
6, 898080, Note_on_c, 4, 67, 0
6, 898080, Note_on_c, 4, 66, 100
6, 898200, Note_on_c, 4, 66, 0
6, 898200, Note_on_c, 4, 67, 100
6, 898260, Note_on_c, 4, 67, 0
6, 898260, Note_on_c, 4, 69, 100
6, 898320, Note_on_c, 4, 69, 0
6, 898320, Note_on_c, 4, 67, 100
6, 898380, Note_on_c, 4, 67, 0
6, 898380, Note_on_c, 4, 69, 100
6, 898440, Note_on_c, 4, 69, 0
6, 898440, Note_on_c, 4, 67, 100
6, 898500, Note_on_c, 4, 67, 0
6, 898500, Note_on_c, 4, 69, 100
6, 898560, Note_on_c, 4, 69, 0
6, 898560, Note_on_c, 4, 67, 100
6, 898620, Note_on_c, 4, 67, 0
6, 898620, Note_on_c, 4, 69, 100
6, 898680, Note_on_c, 4, 69, 0
6, 898680, Note_on_c, 4, 67, 100
6, 898740, Note_on_c, 4, 67, 0
6, 898740, Note_on_c, 4, 69, 100
6, 898800, Note_on_c, 4, 69, 0
6, 898800, Note_on_c, 4, 67, 100
6, 899040, Note_on_c, 4, 67, 0
6, 899040, Note_on_c, 4, 61, 100
6, 899160, Note_on_c, 4, 61, 0
6, 899160, Note_on_c, 4, 64, 100
6, 899400, Note_on_c, 4, 64, 0
6, 899400, Note_on_c, 4, 67, 100
6, 899520, Note_on_c, 4, 67, 0
6, 899520, Note_on_c, 4, 66, 100
6, 899640, Note_on_c, 4, 66, 0
6, 899640, Note_on_c, 4, 67, 100
6, 899700, Note_on_c, 4, 67, 0
6, 899700, Note_on_c, 4, 69, 100
6, 899760, Note_on_c, 4, 69, 0
6, 899760, Note_on_c, 4, 67, 100
6, 899820, Note_on_c, 4, 67, 0
6, 899820, Note_on_c, 4, 69, 100
6, 899880, Note_on_c, 4, 69, 0
6, 899880, Note_on_c, 4, 67, 100
6, 899940, Note_on_c, 4, 67, 0
6, 899940, Note_on_c, 4, 69, 100
6, 900000, Note_on_c, 4, 69, 0
6, 900000, Note_on_c, 4, 67, 100
6, 900060, Note_on_c, 4, 67, 0
6, 900060, Note_on_c, 4, 69, 100
6, 900120, Note_on_c, 4, 69, 0
6, 900120, Note_on_c, 4, 67, 100
6, 900180, Note_on_c, 4, 67, 0
6, 900180, Note_on_c, 4, 69, 100
6, 900240, Note_on_c, 4, 69, 0
6, 900240, Note_on_c, 4, 67, 100
6, 900360, Note_on_c, 4, 67, 0
6, 900360, Note_on_c, 4, 69, 100
6, 900480, Note_on_c, 4, 69, 0
6, 900480, Note_on_c, 4, 72, 100
6, 900600, Note_on_c, 4, 72, 0
6, 900600, Note_on_c, 4, 66, 100
6, 900720, Note_on_c, 4, 66, 0
6, 900720, Note_on_c, 4, 69, 100
6, 900840, Note_on_c, 4, 69, 0
6, 900840, Note_on_c, 4, 72, 100
6, 900960, Note_on_c, 4, 72, 0
6, 900960, Note_on_c, 4, 71, 100
6, 901440, Note_on_c, 4, 71, 0
6, 901440, Note_on_c, 4, 67, 100
6, 901560, Note_on_c, 4, 67, 0
6, 901560, Note_on_c, 4, 62, 100
6, 901680, Note_on_c, 4, 62, 0
6, 901680, Note_on_c, 4, 59, 100
6, 901800, Note_on_c, 4, 59, 0
6, 901800, Note_on_c, 4, 55, 100
6, 901920, Note_on_c, 4, 55, 0
6, 901920, Note_on_c, 4, 59, 100
6, 902040, Note_on_c, 4, 59, 0
6, 902040, Note_on_c, 4, 62, 100
6, 902160, Note_on_c, 4, 62, 0
6, 902160, Note_on_c, 4, 67, 100
6, 902280, Note_on_c, 4, 67, 0
6, 902280, Note_on_c, 4, 69, 100
6, 902400, Note_on_c, 4, 69, 0
6, 902400, Note_on_c, 4, 71, 100
6, 902520, Note_on_c, 4, 71, 0
6, 902520, Note_on_c, 4, 69, 100
6, 902640, Note_on_c, 4, 69, 0
6, 902640, Note_on_c, 4, 67, 100
6, 902760, Note_on_c, 4, 67, 0
6, 902760, Note_on_c, 4, 66, 100
6, 902880, Note_on_c, 4, 66, 0
6, 902880, Note_on_c, 4, 64, 100
6, 903000, Note_on_c, 4, 64, 0
6, 903000, Note_on_c, 4, 62, 100
6, 903120, Note_on_c, 4, 62, 0
6, 903120, Note_on_c, 4, 61, 100
6, 903720, Note_on_c, 4, 61, 0
6, 903720, Note_on_c, 4, 64, 100
6, 903840, Note_on_c, 4, 64, 0
6, 903840, Note_on_c, 4, 69, 100
6, 903960, Note_on_c, 4, 69, 0
6, 903960, Note_on_c, 4, 67, 100
6, 904080, Note_on_c, 4, 67, 0
6, 904080, Note_on_c, 4, 66, 100
6, 904200, Note_on_c, 4, 66, 0
6, 904200, Note_on_c, 4, 64, 100
6, 904320, Note_on_c, 4, 64, 0
6, 904320, Note_on_c, 4, 62, 100
6, 904440, Note_on_c, 4, 62, 0
6, 904440, Note_on_c, 4, 61, 100
6, 904560, Note_on_c, 4, 61, 0
6, 904560, Note_on_c, 4, 59, 100
6, 905160, Note_on_c, 4, 59, 0
6, 905160, Note_on_c, 4, 69, 100
6, 905280, Note_on_c, 4, 69, 0
6, 905280, Note_on_c, 4, 67, 100
6, 905400, Note_on_c, 4, 67, 0
6, 905400, Note_on_c, 4, 66, 100
6, 905520, Note_on_c, 4, 66, 0
6, 905520, Note_on_c, 4, 64, 100
6, 905640, Note_on_c, 4, 64, 0
6, 905640, Note_on_c, 4, 62, 100
6, 905760, Note_on_c, 4, 62, 0
6, 905760, Note_on_c, 4, 61, 100
6, 905880, Note_on_c, 4, 61, 0
6, 905880, Note_on_c, 4, 59, 100
6, 906000, Note_on_c, 4, 59, 0
6, 906000, Note_on_c, 4, 64, 100
6, 906120, Note_on_c, 4, 64, 0
6, 906120, Note_on_c, 4, 62, 100
6, 906240, Note_on_c, 4, 62, 0
6, 906240, Note_on_c, 4, 61, 100
6, 906360, Note_on_c, 4, 61, 0
6, 906360, Note_on_c, 4, 59, 100
6, 906480, Note_on_c, 4, 59, 0
6, 906480, Note_on_c, 4, 57, 100
6, 906600, Note_on_c, 4, 57, 0
6, 906600, Note_on_c, 4, 55, 100
6, 906720, Note_on_c, 4, 55, 0
6, 906720, Note_on_c, 4, 61, 100
6, 906840, Note_on_c, 4, 61, 0
6, 906840, Note_on_c, 4, 59, 100
6, 906960, Note_on_c, 4, 59, 0
6, 906960, Note_on_c, 4, 57, 100
6, 907080, Note_on_c, 4, 57, 0
6, 907080, Note_on_c, 4, 55, 100
6, 907200, Note_on_c, 4, 55, 0
6, 907200, Note_on_c, 4, 54, 100
6, 907320, Note_on_c, 4, 54, 0
6, 907320, Note_on_c, 4, 52, 100
6, 907440, Note_on_c, 4, 52, 0
6, 907440, Note_on_c, 4, 57, 100
6, 907560, Note_on_c, 4, 57, 0
6, 907560, Note_on_c, 4, 55, 100
6, 907680, Note_on_c, 4, 55, 0
6, 907680, Note_on_c, 4, 54, 100
6, 907800, Note_on_c, 4, 54, 0
6, 907800, Note_on_c, 4, 52, 100
6, 907920, Note_on_c, 4, 52, 0
6, 907920, Note_on_c, 4, 54, 100
6, 908040, Note_on_c, 4, 54, 0
6, 908040, Note_on_c, 4, 55, 100
6, 908160, Note_on_c, 4, 55, 0
6, 908160, Note_on_c, 4, 54, 100
6, 908280, Note_on_c, 4, 54, 0
6, 908280, Note_on_c, 4, 57, 100
6, 908400, Note_on_c, 4, 57, 0
6, 908400, Note_on_c, 4, 62, 100
6, 908520, Note_on_c, 4, 62, 0
6, 908520, Note_on_c, 4, 66, 100
6, 908640, Note_on_c, 4, 66, 0
6, 908640, Note_on_c, 4, 69, 100
6, 908760, Note_on_c, 4, 69, 0
6, 908760, Note_on_c, 4, 74, 100
6, 908880, Note_on_c, 4, 74, 0
6, 908880, Note_on_c, 4, 69, 100
6, 909000, Note_on_c, 4, 69, 0
6, 909000, Note_on_c, 4, 66, 100
6, 909120, Note_on_c, 4, 66, 0
6, 909120, Note_on_c, 4, 62, 100
6, 909240, Note_on_c, 4, 62, 0
6, 909240, Note_on_c, 4, 60, 100
6, 909360, Note_on_c, 4, 60, 0
6, 909360, Note_on_c, 4, 59, 100
6, 909480, Note_on_c, 4, 59, 0
6, 909480, Note_on_c, 4, 57, 100
6, 909600, Note_on_c, 4, 57, 0
6, 909600, Note_on_c, 4, 56, 100
6, 909720, Note_on_c, 4, 56, 0
6, 909720, Note_on_c, 4, 59, 100
6, 909840, Note_on_c, 4, 59, 0
6, 909840, Note_on_c, 4, 62, 100
6, 909960, Note_on_c, 4, 62, 0
6, 909960, Note_on_c, 4, 65, 100
6, 910080, Note_on_c, 4, 65, 0
6, 910080, Note_on_c, 4, 71, 100
6, 910200, Note_on_c, 4, 71, 0
6, 910200, Note_on_c, 4, 74, 100
6, 910320, Note_on_c, 4, 74, 0
6, 910320, Note_on_c, 4, 71, 100
6, 910440, Note_on_c, 4, 71, 0
6, 910440, Note_on_c, 4, 65, 100
6, 910560, Note_on_c, 4, 65, 0
6, 910560, Note_on_c, 4, 64, 100
6, 910680, Note_on_c, 4, 64, 0
6, 910680, Note_on_c, 4, 62, 100
6, 910800, Note_on_c, 4, 62, 0
6, 910800, Note_on_c, 4, 61, 100
6, 910920, Note_on_c, 4, 61, 0
6, 910920, Note_on_c, 4, 59, 100
6, 911040, Note_on_c, 4, 59, 0
6, 911040, Note_on_c, 4, 57, 100
6, 911160, Note_on_c, 4, 57, 0
6, 911160, Note_on_c, 4, 62, 100
6, 911280, Note_on_c, 4, 62, 0
6, 911280, Note_on_c, 4, 66, 100
6, 911400, Note_on_c, 4, 66, 0
6, 911400, Note_on_c, 4, 69, 100
6, 911520, Note_on_c, 4, 69, 0
6, 911520, Note_on_c, 4, 74, 100
6, 911640, Note_on_c, 4, 74, 0
6, 911640, Note_on_c, 4, 78, 100
6, 911760, Note_on_c, 4, 78, 0
6, 911760, Note_on_c, 4, 76, 100
6, 911880, Note_on_c, 4, 76, 0
6, 911880, Note_on_c, 4, 73, 100
6, 912000, Note_on_c, 4, 73, 0
6, 912000, Note_on_c, 4, 69, 100
6, 912120, Note_on_c, 4, 69, 0
6, 912120, Note_on_c, 4, 67, 100
6, 912240, Note_on_c, 4, 67, 0
6, 912240, Note_on_c, 4, 66, 100
6, 912360, Note_on_c, 4, 66, 0
6, 912360, Note_on_c, 4, 64, 100
6, 912480, Note_on_c, 4, 64, 0
6, 912480, Note_on_c, 4, 62, 100
6, 912600, Note_on_c, 4, 62, 0
6, 912600, Note_on_c, 4, 57, 100
6, 912720, Note_on_c, 4, 57, 0
6, 912720, Note_on_c, 4, 54, 100
6, 912840, Note_on_c, 4, 54, 0
6, 912840, Note_on_c, 4, 50, 100
6, 912960, Note_on_c, 4, 50, 0
6, 912960, Note_on_c, 4, 45, 100
6, 913080, Note_on_c, 4, 45, 0
6, 913080, Note_on_c, 4, 42, 100
6, 913200, Note_on_c, 4, 42, 0
6, 913200, Note_on_c, 4, 38, 100
6, 913320, Note_on_c, 4, 38, 0
6, 913320, Note_on_c, 4, 42, 100
6, 913440, Note_on_c, 4, 42, 0
6, 913440, Note_on_c, 4, 45, 100
6, 913560, Note_on_c, 4, 45, 0
6, 913560, Note_on_c, 4, 50, 100
6, 913920, Note_on_c, 4, 50, 0
6, 913920, Note_on_c, 4, 55, 100
6, 914520, Note_on_c, 4, 55, 0
6, 914520, Note_on_c, 4, 59, 100
6, 914640, Note_on_c, 4, 59, 0
6, 914640, Note_on_c, 4, 64, 100
6, 914760, Note_on_c, 4, 64, 0
6, 914760, Note_on_c, 4, 62, 100
6, 914880, Note_on_c, 4, 62, 0
6, 914880, Note_on_c, 4, 61, 100
6, 915000, Note_on_c, 4, 61, 0
6, 915000, Note_on_c, 4, 59, 100
6, 915120, Note_on_c, 4, 59, 0
6, 915120, Note_on_c, 4, 57, 100
6, 915240, Note_on_c, 4, 57, 0
6, 915240, Note_on_c, 4, 55, 100
6, 915360, Note_on_c, 4, 55, 0
6, 915360, Note_on_c, 4, 54, 100
6, 915960, Note_on_c, 4, 54, 0
6, 915960, Note_on_c, 4, 64, 100
6, 916080, Note_on_c, 4, 64, 0
6, 916080, Note_on_c, 4, 62, 100
6, 916200, Note_on_c, 4, 62, 0
6, 916200, Note_on_c, 4, 61, 100
6, 916320, Note_on_c, 4, 61, 0
6, 916320, Note_on_c, 4, 59, 100
6, 916440, Note_on_c, 4, 59, 0
6, 916440, Note_on_c, 4, 57, 100
6, 916560, Note_on_c, 4, 57, 0
6, 916560, Note_on_c, 4, 55, 100
6, 916680, Note_on_c, 4, 55, 0
6, 916680, Note_on_c, 4, 54, 100
6, 916800, Note_on_c, 4, 54, 0
6, 916800, Note_on_c, 4, 52, 100
6, 917040, Note_on_c, 4, 52, 0
6, 917040, Note_on_c, 4, 55, 100
6, 917160, Note_on_c, 4, 55, 0
6, 917160, Note_on_c, 4, 59, 100
6, 917400, Note_on_c, 4, 59, 0
6, 917400, Note_on_c, 4, 62, 100
6, 917520, Note_on_c, 4, 62, 0
6, 917520, Note_on_c, 4, 61, 100
6, 917640, Note_on_c, 4, 61, 0
6, 917640, Note_on_c, 4, 59, 100
6, 917760, Note_on_c, 4, 59, 0
6, 917760, Note_on_c, 4, 57, 100
6, 917880, Note_on_c, 4, 57, 0
6, 917880, Note_on_c, 4, 55, 100
6, 918000, Note_on_c, 4, 55, 0
6, 918000, Note_on_c, 4, 54, 100
6, 918120, Note_on_c, 4, 54, 0
6, 918120, Note_on_c, 4, 52, 100
6, 918240, Note_on_c, 4, 52, 0
6, 918240, Note_on_c, 4, 50, 100
6, 918360, Note_on_c, 4, 50, 0
6, 918360, Note_on_c, 4, 52, 100
6, 918480, Note_on_c, 4, 52, 0
6, 918480, Note_on_c, 4, 54, 100
6, 918600, Note_on_c, 4, 54, 0
6, 918600, Note_on_c, 4, 55, 100
6, 918720, Note_on_c, 4, 55, 0
6, 918720, Note_on_c, 4, 57, 100
6, 918840, Note_on_c, 4, 57, 0
6, 918840, Note_on_c, 4, 59, 100
6, 918960, Note_on_c, 4, 59, 0
6, 918960, Note_on_c, 4, 61, 100
6, 919080, Note_on_c, 4, 61, 0
6, 919080, Note_on_c, 4, 62, 100
6, 919200, Note_on_c, 4, 62, 0
6, 919200, Note_on_c, 4, 64, 100
6, 919320, Note_on_c, 4, 64, 0
6, 919320, Note_on_c, 4, 66, 100
6, 919440, Note_on_c, 4, 66, 0
6, 919440, Note_on_c, 4, 67, 100
6, 919560, Note_on_c, 4, 67, 0
6, 919560, Note_on_c, 4, 69, 100
6, 919680, Note_on_c, 4, 69, 0
6, 919680, Note_on_c, 4, 69, 100
6, 919800, Note_on_c, 4, 69, 0
6, 919800, Note_on_c, 4, 67, 100
6, 919860, Note_on_c, 4, 67, 0
6, 919860, Note_on_c, 4, 69, 100
6, 919920, Note_on_c, 4, 69, 0
6, 919920, Note_on_c, 4, 67, 100
6, 919980, Note_on_c, 4, 67, 0
6, 919980, Note_on_c, 4, 69, 100
6, 920040, Note_on_c, 4, 69, 0
6, 920040, Note_on_c, 4, 67, 100
6, 920100, Note_on_c, 4, 67, 0
6, 920100, Note_on_c, 4, 69, 100
6, 920160, Note_on_c, 4, 69, 0
6, 920160, Note_on_c, 4, 67, 100
6, 920220, Note_on_c, 4, 67, 0
6, 920220, Note_on_c, 4, 69, 100
6, 920280, Note_on_c, 4, 69, 0
6, 920280, Note_on_c, 4, 67, 100
6, 920340, Note_on_c, 4, 67, 0
6, 920340, Note_on_c, 4, 69, 100
6, 920400, Note_on_c, 4, 69, 0
6, 920400, Note_on_c, 4, 67, 100
6, 920640, Note_on_c, 4, 67, 0
6, 920640, Note_on_c, 4, 59, 100
6, 920760, Note_on_c, 4, 59, 0
6, 920760, Note_on_c, 4, 62, 100
6, 921000, Note_on_c, 4, 62, 0
6, 921000, Note_on_c, 4, 67, 100
6, 921120, Note_on_c, 4, 67, 0
6, 921120, Note_on_c, 4, 66, 100
6, 921240, Note_on_c, 4, 66, 0
6, 921240, Note_on_c, 4, 67, 100
6, 921300, Note_on_c, 4, 67, 0
6, 921300, Note_on_c, 4, 69, 100
6, 921360, Note_on_c, 4, 69, 0
6, 921360, Note_on_c, 4, 67, 100
6, 921420, Note_on_c, 4, 67, 0
6, 921420, Note_on_c, 4, 69, 100
6, 921480, Note_on_c, 4, 69, 0
6, 921480, Note_on_c, 4, 67, 100
6, 921540, Note_on_c, 4, 67, 0
6, 921540, Note_on_c, 4, 69, 100
6, 921600, Note_on_c, 4, 69, 0
6, 921600, Note_on_c, 4, 67, 100
6, 921660, Note_on_c, 4, 67, 0
6, 921660, Note_on_c, 4, 69, 100
6, 921720, Note_on_c, 4, 69, 0
6, 921720, Note_on_c, 4, 67, 100
6, 921780, Note_on_c, 4, 67, 0
6, 921780, Note_on_c, 4, 69, 100
6, 921840, Note_on_c, 4, 69, 0
6, 921840, Note_on_c, 4, 67, 100
6, 922080, Note_on_c, 4, 67, 0
6, 922080, Note_on_c, 4, 61, 100
6, 922200, Note_on_c, 4, 61, 0
6, 922200, Note_on_c, 4, 64, 100
6, 922440, Note_on_c, 4, 64, 0
6, 922440, Note_on_c, 4, 67, 100
6, 922560, Note_on_c, 4, 67, 0
6, 922560, Note_on_c, 4, 66, 100
6, 922680, Note_on_c, 4, 66, 0
6, 922680, Note_on_c, 4, 67, 100
6, 922740, Note_on_c, 4, 67, 0
6, 922740, Note_on_c, 4, 69, 100
6, 922800, Note_on_c, 4, 69, 0
6, 922800, Note_on_c, 4, 67, 100
6, 922860, Note_on_c, 4, 67, 0
6, 922860, Note_on_c, 4, 69, 100
6, 922920, Note_on_c, 4, 69, 0
6, 922920, Note_on_c, 4, 67, 100
6, 922980, Note_on_c, 4, 67, 0
6, 922980, Note_on_c, 4, 69, 100
6, 923040, Note_on_c, 4, 69, 0
6, 923040, Note_on_c, 4, 67, 100
6, 923100, Note_on_c, 4, 67, 0
6, 923100, Note_on_c, 4, 69, 100
6, 923160, Note_on_c, 4, 69, 0
6, 923160, Note_on_c, 4, 67, 100
6, 923220, Note_on_c, 4, 67, 0
6, 923220, Note_on_c, 4, 69, 100
6, 923280, Note_on_c, 4, 69, 0
6, 923280, Note_on_c, 4, 67, 100
6, 923400, Note_on_c, 4, 67, 0
6, 923400, Note_on_c, 4, 69, 100
6, 923520, Note_on_c, 4, 69, 0
6, 923520, Note_on_c, 4, 72, 100
6, 923640, Note_on_c, 4, 72, 0
6, 923640, Note_on_c, 4, 66, 100
6, 923760, Note_on_c, 4, 66, 0
6, 923760, Note_on_c, 4, 69, 100
6, 923880, Note_on_c, 4, 69, 0
6, 923880, Note_on_c, 4, 72, 100
6, 924000, Note_on_c, 4, 72, 0
6, 924000, Note_on_c, 4, 71, 100
6, 924480, Note_on_c, 4, 71, 0
6, 924480, Note_on_c, 4, 67, 100
6, 924600, Note_on_c, 4, 67, 0
6, 924600, Note_on_c, 4, 62, 100
6, 924720, Note_on_c, 4, 62, 0
6, 924720, Note_on_c, 4, 59, 100
6, 924840, Note_on_c, 4, 59, 0
6, 924840, Note_on_c, 4, 55, 100
6, 924960, Note_on_c, 4, 55, 0
6, 924960, Note_on_c, 4, 59, 100
6, 925080, Note_on_c, 4, 59, 0
6, 925080, Note_on_c, 4, 62, 100
6, 925200, Note_on_c, 4, 62, 0
6, 925200, Note_on_c, 4, 67, 100
6, 925320, Note_on_c, 4, 67, 0
6, 925320, Note_on_c, 4, 69, 100
6, 925440, Note_on_c, 4, 69, 0
6, 925440, Note_on_c, 4, 71, 100
6, 925560, Note_on_c, 4, 71, 0
6, 925560, Note_on_c, 4, 69, 100
6, 925680, Note_on_c, 4, 69, 0
6, 925680, Note_on_c, 4, 67, 100
6, 925800, Note_on_c, 4, 67, 0
6, 925800, Note_on_c, 4, 66, 100
6, 925920, Note_on_c, 4, 66, 0
6, 925920, Note_on_c, 4, 64, 100
6, 926040, Note_on_c, 4, 64, 0
6, 926040, Note_on_c, 4, 62, 100
6, 926160, Note_on_c, 4, 62, 0
6, 926160, Note_on_c, 4, 61, 100
6, 926760, Note_on_c, 4, 61, 0
6, 926760, Note_on_c, 4, 64, 100
6, 926880, Note_on_c, 4, 64, 0
6, 926880, Note_on_c, 4, 69, 100
6, 927000, Note_on_c, 4, 69, 0
6, 927000, Note_on_c, 4, 67, 100
6, 927120, Note_on_c, 4, 67, 0
6, 927120, Note_on_c, 4, 66, 100
6, 927240, Note_on_c, 4, 66, 0
6, 927240, Note_on_c, 4, 64, 100
6, 927360, Note_on_c, 4, 64, 0
6, 927360, Note_on_c, 4, 62, 100
6, 927480, Note_on_c, 4, 62, 0
6, 927480, Note_on_c, 4, 61, 100
6, 927600, Note_on_c, 4, 61, 0
6, 927600, Note_on_c, 4, 59, 100
6, 928200, Note_on_c, 4, 59, 0
6, 928200, Note_on_c, 4, 69, 100
6, 928320, Note_on_c, 4, 69, 0
6, 928320, Note_on_c, 4, 67, 100
6, 928440, Note_on_c, 4, 67, 0
6, 928440, Note_on_c, 4, 66, 100
6, 928560, Note_on_c, 4, 66, 0
6, 928560, Note_on_c, 4, 64, 100
6, 928680, Note_on_c, 4, 64, 0
6, 928680, Note_on_c, 4, 62, 100
6, 928800, Note_on_c, 4, 62, 0
6, 928800, Note_on_c, 4, 61, 100
6, 928920, Note_on_c, 4, 61, 0
6, 928920, Note_on_c, 4, 59, 100
6, 929040, Note_on_c, 4, 59, 0
6, 929040, Note_on_c, 4, 64, 100
6, 929160, Note_on_c, 4, 64, 0
6, 929160, Note_on_c, 4, 62, 100
6, 929280, Note_on_c, 4, 62, 0
6, 929280, Note_on_c, 4, 61, 100
6, 929400, Note_on_c, 4, 61, 0
6, 929400, Note_on_c, 4, 59, 100
6, 929520, Note_on_c, 4, 59, 0
6, 929520, Note_on_c, 4, 57, 100
6, 929640, Note_on_c, 4, 57, 0
6, 929640, Note_on_c, 4, 55, 100
6, 929760, Note_on_c, 4, 55, 0
6, 929760, Note_on_c, 4, 61, 100
6, 929880, Note_on_c, 4, 61, 0
6, 929880, Note_on_c, 4, 59, 100
6, 930000, Note_on_c, 4, 59, 0
6, 930000, Note_on_c, 4, 57, 100
6, 930120, Note_on_c, 4, 57, 0
6, 930120, Note_on_c, 4, 55, 100
6, 930240, Note_on_c, 4, 55, 0
6, 930240, Note_on_c, 4, 54, 100
6, 930360, Note_on_c, 4, 54, 0
6, 930360, Note_on_c, 4, 52, 100
6, 930480, Note_on_c, 4, 52, 0
6, 930480, Note_on_c, 4, 57, 100
6, 930600, Note_on_c, 4, 57, 0
6, 930600, Note_on_c, 4, 55, 100
6, 930720, Note_on_c, 4, 55, 0
6, 930720, Note_on_c, 4, 54, 100
6, 930840, Note_on_c, 4, 54, 0
6, 930840, Note_on_c, 4, 52, 100
6, 930960, Note_on_c, 4, 52, 0
6, 930960, Note_on_c, 4, 54, 100
6, 931080, Note_on_c, 4, 54, 0
6, 931080, Note_on_c, 4, 55, 100
6, 931200, Note_on_c, 4, 55, 0
6, 931200, Note_on_c, 4, 54, 100
6, 931320, Note_on_c, 4, 54, 0
6, 931320, Note_on_c, 4, 57, 100
6, 931440, Note_on_c, 4, 57, 0
6, 931440, Note_on_c, 4, 62, 100
6, 931560, Note_on_c, 4, 62, 0
6, 931560, Note_on_c, 4, 66, 100
6, 931680, Note_on_c, 4, 66, 0
6, 931680, Note_on_c, 4, 69, 100
6, 931800, Note_on_c, 4, 69, 0
6, 931800, Note_on_c, 4, 74, 100
6, 931920, Note_on_c, 4, 74, 0
6, 931920, Note_on_c, 4, 69, 100
6, 932040, Note_on_c, 4, 69, 0
6, 932040, Note_on_c, 4, 66, 100
6, 932160, Note_on_c, 4, 66, 0
6, 932160, Note_on_c, 4, 62, 100
6, 932280, Note_on_c, 4, 62, 0
6, 932280, Note_on_c, 4, 60, 100
6, 932400, Note_on_c, 4, 60, 0
6, 932400, Note_on_c, 4, 59, 100
6, 932520, Note_on_c, 4, 59, 0
6, 932520, Note_on_c, 4, 57, 100
6, 932640, Note_on_c, 4, 57, 0
6, 932640, Note_on_c, 4, 56, 100
6, 932760, Note_on_c, 4, 56, 0
6, 932760, Note_on_c, 4, 59, 100
6, 932880, Note_on_c, 4, 59, 0
6, 932880, Note_on_c, 4, 62, 100
6, 933000, Note_on_c, 4, 62, 0
6, 933000, Note_on_c, 4, 65, 100
6, 933120, Note_on_c, 4, 65, 0
6, 933120, Note_on_c, 4, 71, 100
6, 933240, Note_on_c, 4, 71, 0
6, 933240, Note_on_c, 4, 74, 100
6, 933360, Note_on_c, 4, 74, 0
6, 933360, Note_on_c, 4, 71, 100
6, 933480, Note_on_c, 4, 71, 0
6, 933480, Note_on_c, 4, 65, 100
6, 933600, Note_on_c, 4, 65, 0
6, 933600, Note_on_c, 4, 64, 100
6, 933720, Note_on_c, 4, 64, 0
6, 933720, Note_on_c, 4, 62, 100
6, 933840, Note_on_c, 4, 62, 0
6, 933840, Note_on_c, 4, 61, 100
6, 933960, Note_on_c, 4, 61, 0
6, 933960, Note_on_c, 4, 59, 100
6, 934080, Note_on_c, 4, 59, 0
6, 934080, Note_on_c, 4, 57, 100
6, 934200, Note_on_c, 4, 57, 0
6, 934200, Note_on_c, 4, 62, 100
6, 934320, Note_on_c, 4, 62, 0
6, 934320, Note_on_c, 4, 66, 100
6, 934440, Note_on_c, 4, 66, 0
6, 934440, Note_on_c, 4, 69, 100
6, 934560, Note_on_c, 4, 69, 0
6, 934560, Note_on_c, 4, 74, 100
6, 934680, Note_on_c, 4, 74, 0
6, 934680, Note_on_c, 4, 78, 100
6, 934800, Note_on_c, 4, 78, 0
6, 934800, Note_on_c, 4, 76, 100
6, 934920, Note_on_c, 4, 76, 0
6, 934920, Note_on_c, 4, 73, 100
6, 935040, Note_on_c, 4, 73, 0
6, 935040, Note_on_c, 4, 69, 100
6, 935160, Note_on_c, 4, 69, 0
6, 935160, Note_on_c, 4, 67, 100
6, 935280, Note_on_c, 4, 67, 0
6, 935280, Note_on_c, 4, 66, 100
6, 935400, Note_on_c, 4, 66, 0
6, 935400, Note_on_c, 4, 64, 100
6, 935520, Note_on_c, 4, 64, 0
6, 935520, Note_on_c, 4, 62, 100
6, 935640, Note_on_c, 4, 62, 0
6, 935640, Note_on_c, 4, 57, 100
6, 935760, Note_on_c, 4, 57, 0
6, 935760, Note_on_c, 4, 54, 100
6, 935880, Note_on_c, 4, 54, 0
6, 935880, Note_on_c, 4, 50, 100
6, 936000, Note_on_c, 4, 50, 0
6, 936000, Note_on_c, 4, 45, 100
6, 936120, Note_on_c, 4, 45, 0
6, 936120, Note_on_c, 4, 42, 100
6, 936240, Note_on_c, 4, 42, 0
6, 936240, Note_on_c, 4, 38, 100
6, 936360, Note_on_c, 4, 38, 0
6, 936360, Note_on_c, 4, 42, 100
6, 936480, Note_on_c, 4, 42, 0
6, 936480, Note_on_c, 4, 45, 100
6, 936600, Note_on_c, 4, 45, 0
6, 936600, Note_on_c, 4, 50, 100
6, 936960, Note_on_c, 4, 50, 0
6, 936960, Note_on_c, 4, 50, 100
6, 937080, Note_on_c, 4, 50, 0
6, 937080, Note_on_c, 4, 52, 100
6, 937200, Note_on_c, 4, 52, 0
6, 937200, Note_on_c, 4, 54, 100
6, 937320, Note_on_c, 4, 54, 0
6, 937320, Note_on_c, 4, 55, 100
6, 937440, Note_on_c, 4, 55, 0
6, 937440, Note_on_c, 4, 57, 100
6, 937560, Note_on_c, 4, 57, 0
6, 937560, Note_on_c, 4, 59, 100
6, 937680, Note_on_c, 4, 59, 0
6, 937680, Note_on_c, 4, 60, 100
6, 937800, Note_on_c, 4, 60, 0
6, 937800, Note_on_c, 4, 50, 100
6, 937920, Note_on_c, 4, 50, 0
6, 937920, Note_on_c, 4, 60, 100
6, 938160, Note_on_c, 4, 60, 0
6, 938160, Note_on_c, 4, 59, 100
6, 938280, Note_on_c, 4, 59, 0
6, 938280, Note_on_c, 4, 57, 100
6, 938400, Note_on_c, 4, 57, 0
6, 938400, Note_on_c, 4, 55, 100
6, 938520, Note_on_c, 4, 55, 0
6, 938520, Note_on_c, 4, 57, 100
6, 938640, Note_on_c, 4, 57, 0
6, 938640, Note_on_c, 4, 59, 100
6, 938760, Note_on_c, 4, 59, 0
6, 938760, Note_on_c, 4, 60, 100
6, 938880, Note_on_c, 4, 60, 0
6, 938880, Note_on_c, 4, 62, 100
6, 939000, Note_on_c, 4, 62, 0
6, 939000, Note_on_c, 4, 64, 100
6, 939120, Note_on_c, 4, 64, 0
6, 939120, Note_on_c, 4, 65, 100
6, 939240, Note_on_c, 4, 65, 0
6, 939240, Note_on_c, 4, 55, 100
6, 939360, Note_on_c, 4, 55, 0
6, 939360, Note_on_c, 4, 65, 100
6, 939600, Note_on_c, 4, 65, 0
6, 939600, Note_on_c, 4, 64, 100
6, 939720, Note_on_c, 4, 64, 0
6, 939720, Note_on_c, 4, 62, 100
6, 939840, Note_on_c, 4, 62, 0
6, 939840, Note_on_c, 4, 60, 100
6, 940320, Note_on_c, 4, 60, 0
6, 940320, Note_on_c, 4, 64, 100
6, 940440, Note_on_c, 4, 64, 0
6, 940440, Note_on_c, 4, 67, 100
6, 940560, Note_on_c, 4, 67, 0
6, 940560, Note_on_c, 4, 72, 100
6, 940680, Note_on_c, 4, 72, 0
6, 940680, Note_on_c, 4, 71, 100
6, 940800, Note_on_c, 4, 71, 0
6, 940800, Note_on_c, 4, 69, 100
6, 940920, Note_on_c, 4, 69, 0
6, 940920, Note_on_c, 4, 67, 100
6, 941040, Note_on_c, 4, 67, 0
6, 941040, Note_on_c, 4, 66, 100
6, 941160, Note_on_c, 4, 66, 0
6, 941160, Note_on_c, 4, 64, 100
6, 941280, Note_on_c, 4, 64, 0
6, 941280, Note_on_c, 4, 63, 100
6, 941400, Note_on_c, 4, 63, 0
6, 941400, Note_on_c, 4, 61, 100
6, 941520, Note_on_c, 4, 61, 0
6, 941520, Note_on_c, 4, 59, 100
6, 941640, Note_on_c, 4, 59, 0
6, 941640, Note_on_c, 4, 57, 100
6, 941760, Note_on_c, 4, 57, 0
6, 941760, Note_on_c, 4, 55, 100
6, 941880, Note_on_c, 4, 55, 0
6, 941880, Note_on_c, 4, 54, 100
6, 942000, Note_on_c, 4, 54, 0
6, 942000, Note_on_c, 4, 52, 100
6, 942120, Note_on_c, 4, 52, 0
6, 942120, Note_on_c, 4, 51, 100
6, 942240, Note_on_c, 4, 51, 0
6, 942240, Note_on_c, 4, 49, 100
6, 942360, Note_on_c, 4, 49, 0
6, 942360, Note_on_c, 4, 47, 100
6, 942480, Note_on_c, 4, 47, 0
6, 942480, Note_on_c, 4, 48, 100
6, 942600, Note_on_c, 4, 48, 0
6, 942600, Note_on_c, 4, 45, 100
6, 942720, Note_on_c, 4, 45, 0
6, 942720, Note_on_c, 4, 43, 100
6, 943200, Note_on_c, 4, 43, 0
6, 943200, Note_on_c, 4, 47, 100
6, 943320, Note_on_c, 4, 47, 0
6, 943320, Note_on_c, 4, 52, 100
6, 943440, Note_on_c, 4, 52, 0
6, 943440, Note_on_c, 4, 55, 100
6, 943560, Note_on_c, 4, 55, 0
6, 943560, Note_on_c, 4, 59, 100
6, 943680, Note_on_c, 4, 59, 0
6, 943680, Note_on_c, 4, 63, 100
6, 943800, Note_on_c, 4, 63, 0
6, 943800, Note_on_c, 4, 64, 100
6, 944040, Note_on_c, 4, 64, 0
6, 944040, Note_on_c, 4, 43, 100
6, 944160, Note_on_c, 4, 43, 0
6, 944160, Note_on_c, 4, 45, 100
6, 944640, Note_on_c, 4, 45, 0
6, 944640, Note_on_c, 4, 48, 100
6, 944760, Note_on_c, 4, 48, 0
6, 944760, Note_on_c, 4, 53, 100
6, 944880, Note_on_c, 4, 53, 0
6, 944880, Note_on_c, 4, 57, 100
6, 945000, Note_on_c, 4, 57, 0
6, 945000, Note_on_c, 4, 60, 100
6, 945120, Note_on_c, 4, 60, 0
6, 945120, Note_on_c, 4, 63, 100
6, 945240, Note_on_c, 4, 63, 0
6, 945240, Note_on_c, 4, 64, 100
6, 945480, Note_on_c, 4, 64, 0
6, 945480, Note_on_c, 4, 46, 100
6, 945600, Note_on_c, 4, 46, 0
6, 945600, Note_on_c, 4, 47, 100
6, 946080, Note_on_c, 4, 47, 0
6, 946080, Note_on_c, 4, 49, 100
6, 946200, Note_on_c, 4, 49, 0
6, 946200, Note_on_c, 4, 51, 100
6, 946320, Note_on_c, 4, 51, 0
6, 946320, Note_on_c, 4, 52, 100
6, 946440, Note_on_c, 4, 52, 0
6, 946440, Note_on_c, 4, 54, 100
6, 946560, Note_on_c, 4, 54, 0
6, 946560, Note_on_c, 4, 55, 100
6, 946680, Note_on_c, 4, 55, 0
6, 946680, Note_on_c, 4, 57, 100
6, 946800, Note_on_c, 4, 57, 0
6, 946800, Note_on_c, 4, 55, 100
6, 946920, Note_on_c, 4, 55, 0
6, 946920, Note_on_c, 4, 54, 100
6, 947040, Note_on_c, 4, 54, 0
6, 947040, Note_on_c, 4, 55, 100
6, 947160, Note_on_c, 4, 55, 0
6, 947160, Note_on_c, 4, 52, 100
6, 947280, Note_on_c, 4, 52, 0
6, 947280, Note_on_c, 4, 55, 100
6, 947400, Note_on_c, 4, 55, 0
6, 947400, Note_on_c, 4, 59, 100
6, 947520, Note_on_c, 4, 59, 0
6, 947520, Note_on_c, 4, 64, 100
6, 947640, Note_on_c, 4, 64, 0
6, 947640, Note_on_c, 4, 63, 100
6, 947760, Note_on_c, 4, 63, 0
6, 947760, Note_on_c, 4, 64, 100
6, 947880, Note_on_c, 4, 64, 0
6, 947880, Note_on_c, 4, 67, 100
6, 948000, Note_on_c, 4, 67, 0
6, 948000, Note_on_c, 4, 64, 100
6, 948120, Note_on_c, 4, 64, 0
6, 948120, Note_on_c, 4, 59, 100
6, 948240, Note_on_c, 4, 59, 0
6, 948240, Note_on_c, 4, 55, 100
6, 948360, Note_on_c, 4, 55, 0
6, 948360, Note_on_c, 4, 59, 100
6, 948480, Note_on_c, 4, 59, 0
6, 948480, Note_on_c, 4, 48, 100
6, 949080, Note_on_c, 4, 48, 0
6, 949080, Note_on_c, 4, 64, 100
6, 949200, Note_on_c, 4, 64, 0
6, 949200, Note_on_c, 4, 69, 100
6, 949320, Note_on_c, 4, 69, 0
6, 949320, Note_on_c, 4, 67, 100
6, 949440, Note_on_c, 4, 67, 0
6, 949440, Note_on_c, 4, 66, 100
6, 949560, Note_on_c, 4, 66, 0
6, 949560, Note_on_c, 4, 64, 100
6, 949680, Note_on_c, 4, 64, 0
6, 949680, Note_on_c, 4, 62, 100
6, 949800, Note_on_c, 4, 62, 0
6, 949800, Note_on_c, 4, 60, 100
6, 949920, Note_on_c, 4, 60, 0
6, 949920, Note_on_c, 4, 59, 100
6, 950520, Note_on_c, 4, 59, 0
6, 950520, Note_on_c, 4, 69, 100
6, 950640, Note_on_c, 4, 69, 0
6, 950640, Note_on_c, 4, 67, 100
6, 950760, Note_on_c, 4, 67, 0
6, 950760, Note_on_c, 4, 66, 100
6, 950880, Note_on_c, 4, 66, 0
6, 950880, Note_on_c, 4, 64, 100
6, 951000, Note_on_c, 4, 64, 0
6, 951000, Note_on_c, 4, 62, 100
6, 951120, Note_on_c, 4, 62, 0
6, 951120, Note_on_c, 4, 60, 100
6, 951240, Note_on_c, 4, 60, 0
6, 951240, Note_on_c, 4, 59, 100
6, 951360, Note_on_c, 4, 59, 0
6, 951360, Note_on_c, 4, 57, 100
6, 951840, Note_on_c, 4, 57, 0
6, 951840, Note_on_c, 4, 59, 100
6, 951960, Note_on_c, 4, 59, 0
6, 951960, Note_on_c, 4, 60, 100
6, 952080, Note_on_c, 4, 60, 0
6, 952080, Note_on_c, 4, 62, 100
6, 952200, Note_on_c, 4, 62, 0
6, 952200, Note_on_c, 4, 64, 100
6, 952320, Note_on_c, 4, 64, 0
6, 952320, Note_on_c, 4, 66, 100
6, 952440, Note_on_c, 4, 66, 0
6, 952440, Note_on_c, 4, 67, 100
6, 952560, Note_on_c, 4, 67, 0
6, 952560, Note_on_c, 4, 66, 100
6, 952680, Note_on_c, 4, 66, 0
6, 952680, Note_on_c, 4, 64, 100
6, 952800, Note_on_c, 4, 64, 0
6, 952800, Note_on_c, 4, 62, 100
6, 953280, Note_on_c, 4, 62, 0
6, 953280, Note_on_c, 4, 64, 100
6, 953400, Note_on_c, 4, 64, 0
6, 953400, Note_on_c, 4, 66, 100
6, 953520, Note_on_c, 4, 66, 0
6, 953520, Note_on_c, 4, 67, 100
6, 953640, Note_on_c, 4, 67, 0
6, 953640, Note_on_c, 4, 69, 100
6, 953760, Note_on_c, 4, 69, 0
6, 953760, Note_on_c, 4, 71, 100
6, 953880, Note_on_c, 4, 71, 0
6, 953880, Note_on_c, 4, 72, 100
6, 954000, Note_on_c, 4, 72, 0
6, 954000, Note_on_c, 4, 71, 100
6, 954120, Note_on_c, 4, 71, 0
6, 954120, Note_on_c, 4, 69, 100
6, 954240, Note_on_c, 4, 69, 0
6, 954240, Note_on_c, 4, 67, 100
6, 954720, Note_on_c, 4, 67, 0
6, 954720, Note_on_c, 4, 69, 100
6, 954840, Note_on_c, 4, 69, 0
6, 954840, Note_on_c, 4, 71, 100
6, 954960, Note_on_c, 4, 71, 0
6, 954960, Note_on_c, 4, 72, 100
6, 955080, Note_on_c, 4, 72, 0
6, 955080, Note_on_c, 4, 74, 100
6, 955200, Note_on_c, 4, 74, 0
6, 955200, Note_on_c, 4, 76, 100
6, 955320, Note_on_c, 4, 76, 0
6, 955320, Note_on_c, 4, 77, 100
6, 955440, Note_on_c, 4, 77, 0
6, 955440, Note_on_c, 4, 76, 100
6, 955560, Note_on_c, 4, 76, 0
6, 955560, Note_on_c, 4, 74, 100
6, 955680, Note_on_c, 4, 74, 0
6, 955680, Note_on_c, 4, 72, 100
6, 956160, Note_on_c, 4, 72, 0
6, 956160, Note_on_c, 4, 76, 100
6, 956280, Note_on_c, 4, 76, 0
6, 956280, Note_on_c, 4, 72, 100
6, 956400, Note_on_c, 4, 72, 0
6, 956400, Note_on_c, 4, 69, 100
6, 956520, Note_on_c, 4, 69, 0
6, 956520, Note_on_c, 4, 64, 100
6, 956640, Note_on_c, 4, 64, 0
6, 956640, Note_on_c, 4, 60, 100
6, 956760, Note_on_c, 4, 60, 0
6, 956760, Note_on_c, 4, 57, 100
6, 956880, Note_on_c, 4, 57, 0
6, 956880, Note_on_c, 4, 60, 100
6, 957000, Note_on_c, 4, 60, 0
6, 957000, Note_on_c, 4, 64, 100
6, 957120, Note_on_c, 4, 64, 0
6, 957120, Note_on_c, 4, 69, 100
6, 957240, Note_on_c, 4, 69, 0
6, 957240, Note_on_c, 4, 72, 100
6, 957360, Note_on_c, 4, 72, 0
6, 957360, Note_on_c, 4, 69, 100
6, 957480, Note_on_c, 4, 69, 0
6, 957480, Note_on_c, 4, 66, 100
6, 957600, Note_on_c, 4, 66, 0
6, 957600, Note_on_c, 4, 62, 100
6, 957720, Note_on_c, 4, 62, 0
6, 957720, Note_on_c, 4, 57, 100
6, 957840, Note_on_c, 4, 57, 0
6, 957840, Note_on_c, 4, 54, 100
6, 957960, Note_on_c, 4, 54, 0
6, 957960, Note_on_c, 4, 50, 100
6, 958080, Note_on_c, 4, 50, 0
6, 958080, Note_on_c, 4, 54, 100
6, 958200, Note_on_c, 4, 54, 0
6, 958200, Note_on_c, 4, 57, 100
6, 958320, Note_on_c, 4, 57, 0
6, 958320, Note_on_c, 4, 60, 100
6, 958440, Note_on_c, 4, 60, 0
6, 958440, Note_on_c, 4, 54, 100
6, 958560, Note_on_c, 4, 54, 0
6, 958560, Note_on_c, 4, 55, 100
6, 958680, Note_on_c, 4, 55, 0
6, 958680, Note_on_c, 4, 59, 100
6, 958800, Note_on_c, 4, 59, 0
6, 958800, Note_on_c, 4, 62, 100
6, 958920, Note_on_c, 4, 62, 0
6, 958920, Note_on_c, 4, 67, 100
6, 959040, Note_on_c, 4, 67, 0
6, 959040, Note_on_c, 4, 71, 100
6, 959160, Note_on_c, 4, 71, 0
6, 959160, Note_on_c, 4, 74, 100
6, 959280, Note_on_c, 4, 74, 0
6, 959280, Note_on_c, 4, 79, 100
6, 959400, Note_on_c, 4, 79, 0
6, 959400, Note_on_c, 4, 74, 100
6, 959520, Note_on_c, 4, 74, 0
6, 959520, Note_on_c, 4, 71, 100
6, 959640, Note_on_c, 4, 71, 0
6, 959640, Note_on_c, 4, 67, 100
6, 960000, Note_on_c, 4, 67, 0
6, 960000, Note_on_c, 4, 50, 100
6, 960120, Note_on_c, 4, 50, 0
6, 960120, Note_on_c, 4, 52, 100
6, 960240, Note_on_c, 4, 52, 0
6, 960240, Note_on_c, 4, 54, 100
6, 960360, Note_on_c, 4, 54, 0
6, 960360, Note_on_c, 4, 55, 100
6, 960480, Note_on_c, 4, 55, 0
6, 960480, Note_on_c, 4, 57, 100
6, 960600, Note_on_c, 4, 57, 0
6, 960600, Note_on_c, 4, 59, 100
6, 960720, Note_on_c, 4, 59, 0
6, 960720, Note_on_c, 4, 60, 100
6, 960840, Note_on_c, 4, 60, 0
6, 960840, Note_on_c, 4, 50, 100
6, 960960, Note_on_c, 4, 50, 0
6, 960960, Note_on_c, 4, 60, 100
6, 961200, Note_on_c, 4, 60, 0
6, 961200, Note_on_c, 4, 59, 100
6, 961320, Note_on_c, 4, 59, 0
6, 961320, Note_on_c, 4, 57, 100
6, 961440, Note_on_c, 4, 57, 0
6, 961440, Note_on_c, 4, 55, 100
6, 961560, Note_on_c, 4, 55, 0
6, 961560, Note_on_c, 4, 57, 100
6, 961680, Note_on_c, 4, 57, 0
6, 961680, Note_on_c, 4, 59, 100
6, 961800, Note_on_c, 4, 59, 0
6, 961800, Note_on_c, 4, 60, 100
6, 961920, Note_on_c, 4, 60, 0
6, 961920, Note_on_c, 4, 62, 100
6, 962040, Note_on_c, 4, 62, 0
6, 962040, Note_on_c, 4, 64, 100
6, 962160, Note_on_c, 4, 64, 0
6, 962160, Note_on_c, 4, 65, 100
6, 962280, Note_on_c, 4, 65, 0
6, 962280, Note_on_c, 4, 55, 100
6, 962400, Note_on_c, 4, 55, 0
6, 962400, Note_on_c, 4, 65, 100
6, 962640, Note_on_c, 4, 65, 0
6, 962640, Note_on_c, 4, 64, 100
6, 962760, Note_on_c, 4, 64, 0
6, 962760, Note_on_c, 4, 62, 100
6, 962880, Note_on_c, 4, 62, 0
6, 962880, Note_on_c, 4, 60, 100
6, 963360, Note_on_c, 4, 60, 0
6, 963360, Note_on_c, 4, 64, 100
6, 963480, Note_on_c, 4, 64, 0
6, 963480, Note_on_c, 4, 67, 100
6, 963600, Note_on_c, 4, 67, 0
6, 963600, Note_on_c, 4, 72, 100
6, 963720, Note_on_c, 4, 72, 0
6, 963720, Note_on_c, 4, 71, 100
6, 963840, Note_on_c, 4, 71, 0
6, 963840, Note_on_c, 4, 69, 100
6, 963960, Note_on_c, 4, 69, 0
6, 963960, Note_on_c, 4, 67, 100
6, 964080, Note_on_c, 4, 67, 0
6, 964080, Note_on_c, 4, 66, 100
6, 964200, Note_on_c, 4, 66, 0
6, 964200, Note_on_c, 4, 64, 100
6, 964320, Note_on_c, 4, 64, 0
6, 964320, Note_on_c, 4, 63, 100
6, 964440, Note_on_c, 4, 63, 0
6, 964440, Note_on_c, 4, 61, 100
6, 964560, Note_on_c, 4, 61, 0
6, 964560, Note_on_c, 4, 59, 100
6, 964680, Note_on_c, 4, 59, 0
6, 964680, Note_on_c, 4, 57, 100
6, 964800, Note_on_c, 4, 57, 0
6, 964800, Note_on_c, 4, 55, 100
6, 964920, Note_on_c, 4, 55, 0
6, 964920, Note_on_c, 4, 54, 100
6, 965040, Note_on_c, 4, 54, 0
6, 965040, Note_on_c, 4, 52, 100
6, 965160, Note_on_c, 4, 52, 0
6, 965160, Note_on_c, 4, 51, 100
6, 965280, Note_on_c, 4, 51, 0
6, 965280, Note_on_c, 4, 49, 100
6, 965400, Note_on_c, 4, 49, 0
6, 965400, Note_on_c, 4, 47, 100
6, 965520, Note_on_c, 4, 47, 0
6, 965520, Note_on_c, 4, 48, 100
6, 965640, Note_on_c, 4, 48, 0
6, 965640, Note_on_c, 4, 45, 100
6, 965760, Note_on_c, 4, 45, 0
6, 965760, Note_on_c, 4, 43, 100
6, 966240, Note_on_c, 4, 43, 0
6, 966240, Note_on_c, 4, 47, 100
6, 966360, Note_on_c, 4, 47, 0
6, 966360, Note_on_c, 4, 52, 100
6, 966480, Note_on_c, 4, 52, 0
6, 966480, Note_on_c, 4, 55, 100
6, 966600, Note_on_c, 4, 55, 0
6, 966600, Note_on_c, 4, 59, 100
6, 966720, Note_on_c, 4, 59, 0
6, 966720, Note_on_c, 4, 63, 100
6, 966840, Note_on_c, 4, 63, 0
6, 966840, Note_on_c, 4, 64, 100
6, 967080, Note_on_c, 4, 64, 0
6, 967080, Note_on_c, 4, 43, 100
6, 967200, Note_on_c, 4, 43, 0
6, 967200, Note_on_c, 4, 45, 100
6, 967680, Note_on_c, 4, 45, 0
6, 967680, Note_on_c, 4, 48, 100
6, 967800, Note_on_c, 4, 48, 0
6, 967800, Note_on_c, 4, 53, 100
6, 967920, Note_on_c, 4, 53, 0
6, 967920, Note_on_c, 4, 57, 100
6, 968040, Note_on_c, 4, 57, 0
6, 968040, Note_on_c, 4, 60, 100
6, 968160, Note_on_c, 4, 60, 0
6, 968160, Note_on_c, 4, 63, 100
6, 968280, Note_on_c, 4, 63, 0
6, 968280, Note_on_c, 4, 64, 100
6, 968520, Note_on_c, 4, 64, 0
6, 968520, Note_on_c, 4, 46, 100
6, 968640, Note_on_c, 4, 46, 0
6, 968640, Note_on_c, 4, 47, 100
6, 969120, Note_on_c, 4, 47, 0
6, 969120, Note_on_c, 4, 49, 100
6, 969240, Note_on_c, 4, 49, 0
6, 969240, Note_on_c, 4, 51, 100
6, 969360, Note_on_c, 4, 51, 0
6, 969360, Note_on_c, 4, 52, 100
6, 969480, Note_on_c, 4, 52, 0
6, 969480, Note_on_c, 4, 54, 100
6, 969600, Note_on_c, 4, 54, 0
6, 969600, Note_on_c, 4, 55, 100
6, 969720, Note_on_c, 4, 55, 0
6, 969720, Note_on_c, 4, 57, 100
6, 969840, Note_on_c, 4, 57, 0
6, 969840, Note_on_c, 4, 55, 100
6, 969960, Note_on_c, 4, 55, 0
6, 969960, Note_on_c, 4, 54, 100
6, 970080, Note_on_c, 4, 54, 0
6, 970080, Note_on_c, 4, 55, 100
6, 970200, Note_on_c, 4, 55, 0
6, 970200, Note_on_c, 4, 52, 100
6, 970320, Note_on_c, 4, 52, 0
6, 970320, Note_on_c, 4, 55, 100
6, 970440, Note_on_c, 4, 55, 0
6, 970440, Note_on_c, 4, 59, 100
6, 970560, Note_on_c, 4, 59, 0
6, 970560, Note_on_c, 4, 64, 100
6, 970680, Note_on_c, 4, 64, 0
6, 970680, Note_on_c, 4, 63, 100
6, 970800, Note_on_c, 4, 63, 0
6, 970800, Note_on_c, 4, 64, 100
6, 970920, Note_on_c, 4, 64, 0
6, 970920, Note_on_c, 4, 67, 100
6, 971040, Note_on_c, 4, 67, 0
6, 971040, Note_on_c, 4, 64, 100
6, 971160, Note_on_c, 4, 64, 0
6, 971160, Note_on_c, 4, 59, 100
6, 971280, Note_on_c, 4, 59, 0
6, 971280, Note_on_c, 4, 55, 100
6, 971400, Note_on_c, 4, 55, 0
6, 971400, Note_on_c, 4, 59, 100
6, 971520, Note_on_c, 4, 59, 0
6, 971520, Note_on_c, 4, 48, 100
6, 972120, Note_on_c, 4, 48, 0
6, 972120, Note_on_c, 4, 64, 100
6, 972240, Note_on_c, 4, 64, 0
6, 972240, Note_on_c, 4, 69, 100
6, 972360, Note_on_c, 4, 69, 0
6, 972360, Note_on_c, 4, 67, 100
6, 972480, Note_on_c, 4, 67, 0
6, 972480, Note_on_c, 4, 66, 100
6, 972600, Note_on_c, 4, 66, 0
6, 972600, Note_on_c, 4, 64, 100
6, 972720, Note_on_c, 4, 64, 0
6, 972720, Note_on_c, 4, 62, 100
6, 972840, Note_on_c, 4, 62, 0
6, 972840, Note_on_c, 4, 60, 100
6, 972960, Note_on_c, 4, 60, 0
6, 972960, Note_on_c, 4, 59, 100
6, 973560, Note_on_c, 4, 59, 0
6, 973560, Note_on_c, 4, 69, 100
6, 973680, Note_on_c, 4, 69, 0
6, 973680, Note_on_c, 4, 67, 100
6, 973800, Note_on_c, 4, 67, 0
6, 973800, Note_on_c, 4, 66, 100
6, 973920, Note_on_c, 4, 66, 0
6, 973920, Note_on_c, 4, 64, 100
6, 974040, Note_on_c, 4, 64, 0
6, 974040, Note_on_c, 4, 62, 100
6, 974160, Note_on_c, 4, 62, 0
6, 974160, Note_on_c, 4, 60, 100
6, 974280, Note_on_c, 4, 60, 0
6, 974280, Note_on_c, 4, 59, 100
6, 974400, Note_on_c, 4, 59, 0
6, 974400, Note_on_c, 4, 57, 100
6, 974880, Note_on_c, 4, 57, 0
6, 974880, Note_on_c, 4, 59, 100
6, 975000, Note_on_c, 4, 59, 0
6, 975000, Note_on_c, 4, 60, 100
6, 975120, Note_on_c, 4, 60, 0
6, 975120, Note_on_c, 4, 62, 100
6, 975240, Note_on_c, 4, 62, 0
6, 975240, Note_on_c, 4, 64, 100
6, 975360, Note_on_c, 4, 64, 0
6, 975360, Note_on_c, 4, 66, 100
6, 975480, Note_on_c, 4, 66, 0
6, 975480, Note_on_c, 4, 67, 100
6, 975600, Note_on_c, 4, 67, 0
6, 975600, Note_on_c, 4, 66, 100
6, 975720, Note_on_c, 4, 66, 0
6, 975720, Note_on_c, 4, 64, 100
6, 975840, Note_on_c, 4, 64, 0
6, 975840, Note_on_c, 4, 62, 100
6, 976320, Note_on_c, 4, 62, 0
6, 976320, Note_on_c, 4, 64, 100
6, 976440, Note_on_c, 4, 64, 0
6, 976440, Note_on_c, 4, 66, 100
6, 976560, Note_on_c, 4, 66, 0
6, 976560, Note_on_c, 4, 67, 100
6, 976680, Note_on_c, 4, 67, 0
6, 976680, Note_on_c, 4, 69, 100
6, 976800, Note_on_c, 4, 69, 0
6, 976800, Note_on_c, 4, 71, 100
6, 976920, Note_on_c, 4, 71, 0
6, 976920, Note_on_c, 4, 72, 100
6, 977040, Note_on_c, 4, 72, 0
6, 977040, Note_on_c, 4, 71, 100
6, 977160, Note_on_c, 4, 71, 0
6, 977160, Note_on_c, 4, 69, 100
6, 977280, Note_on_c, 4, 69, 0
6, 977280, Note_on_c, 4, 67, 100
6, 977760, Note_on_c, 4, 67, 0
6, 977760, Note_on_c, 4, 69, 100
6, 977880, Note_on_c, 4, 69, 0
6, 977880, Note_on_c, 4, 71, 100
6, 978000, Note_on_c, 4, 71, 0
6, 978000, Note_on_c, 4, 72, 100
6, 978120, Note_on_c, 4, 72, 0
6, 978120, Note_on_c, 4, 74, 100
6, 978240, Note_on_c, 4, 74, 0
6, 978240, Note_on_c, 4, 76, 100
6, 978360, Note_on_c, 4, 76, 0
6, 978360, Note_on_c, 4, 77, 100
6, 978480, Note_on_c, 4, 77, 0
6, 978480, Note_on_c, 4, 76, 100
6, 978600, Note_on_c, 4, 76, 0
6, 978600, Note_on_c, 4, 74, 100
6, 978720, Note_on_c, 4, 74, 0
6, 978720, Note_on_c, 4, 72, 100
6, 979200, Note_on_c, 4, 72, 0
6, 979200, Note_on_c, 4, 76, 100
6, 979320, Note_on_c, 4, 76, 0
6, 979320, Note_on_c, 4, 72, 100
6, 979440, Note_on_c, 4, 72, 0
6, 979440, Note_on_c, 4, 69, 100
6, 979560, Note_on_c, 4, 69, 0
6, 979560, Note_on_c, 4, 64, 100
6, 979680, Note_on_c, 4, 64, 0
6, 979680, Note_on_c, 4, 60, 100
6, 979800, Note_on_c, 4, 60, 0
6, 979800, Note_on_c, 4, 57, 100
6, 979920, Note_on_c, 4, 57, 0
6, 979920, Note_on_c, 4, 60, 100
6, 980040, Note_on_c, 4, 60, 0
6, 980040, Note_on_c, 4, 64, 100
6, 980160, Note_on_c, 4, 64, 0
6, 980160, Note_on_c, 4, 69, 100
6, 980280, Note_on_c, 4, 69, 0
6, 980280, Note_on_c, 4, 72, 100
6, 980400, Note_on_c, 4, 72, 0
6, 980400, Note_on_c, 4, 69, 100
6, 980520, Note_on_c, 4, 69, 0
6, 980520, Note_on_c, 4, 66, 100
6, 980640, Note_on_c, 4, 66, 0
6, 980640, Note_on_c, 4, 62, 100
6, 980760, Note_on_c, 4, 62, 0
6, 980760, Note_on_c, 4, 57, 100
6, 980880, Note_on_c, 4, 57, 0
6, 980880, Note_on_c, 4, 54, 100
6, 981000, Note_on_c, 4, 54, 0
6, 981000, Note_on_c, 4, 50, 100
6, 981120, Note_on_c, 4, 50, 0
6, 981120, Note_on_c, 4, 54, 100
6, 981240, Note_on_c, 4, 54, 0
6, 981240, Note_on_c, 4, 57, 100
6, 981360, Note_on_c, 4, 57, 0
6, 981360, Note_on_c, 4, 60, 100
6, 981480, Note_on_c, 4, 60, 0
6, 981480, Note_on_c, 4, 54, 100
6, 981600, Note_on_c, 4, 54, 0
6, 981600, Note_on_c, 4, 55, 100
6, 981720, Note_on_c, 4, 55, 0
6, 981720, Note_on_c, 4, 59, 100
6, 981840, Note_on_c, 4, 59, 0
6, 981840, Note_on_c, 4, 62, 100
6, 981960, Note_on_c, 4, 62, 0
6, 981960, Note_on_c, 4, 67, 100
6, 982080, Note_on_c, 4, 67, 0
6, 982080, Note_on_c, 4, 71, 100
6, 982200, Note_on_c, 4, 71, 0
6, 982200, Note_on_c, 4, 74, 100
6, 982320, Note_on_c, 4, 74, 0
6, 982320, Note_on_c, 4, 79, 100
6, 982440, Note_on_c, 4, 79, 0
6, 982440, Note_on_c, 4, 74, 100
6, 982560, Note_on_c, 4, 74, 0
6, 982560, Note_on_c, 4, 71, 100
6, 982680, Note_on_c, 4, 71, 0
6, 982680, Note_on_c, 4, 67, 100
6, 983040, Note_on_c, 4, 67, 0
6, 1167360, Note_on_c, 4, 59, 100
6, 1167480, Note_on_c, 4, 59, 0
6, 1167480, Note_on_c, 4, 55, 100
6, 1167600, Note_on_c, 4, 55, 0
6, 1167600, Note_on_c, 4, 50, 100
6, 1167720, Note_on_c, 4, 50, 0
6, 1167720, Note_on_c, 4, 55, 100
6, 1167840, Note_on_c, 4, 55, 0
6, 1167840, Note_on_c, 4, 59, 100
6, 1167960, Note_on_c, 4, 59, 0
6, 1167960, Note_on_c, 4, 55, 100
6, 1168080, Note_on_c, 4, 55, 0
6, 1168080, Note_on_c, 4, 62, 100
6, 1168200, Note_on_c, 4, 62, 0
6, 1168200, Note_on_c, 4, 59, 100
6, 1168320, Note_on_c, 4, 59, 0
6, 1168320, Note_on_c, 4, 55, 100
6, 1168440, Note_on_c, 4, 55, 0
6, 1168440, Note_on_c, 4, 59, 100
6, 1168560, Note_on_c, 4, 59, 0
6, 1168560, Note_on_c, 4, 57, 100
6, 1168680, Note_on_c, 4, 57, 0
6, 1168680, Note_on_c, 4, 55, 100
6, 1168800, Note_on_c, 4, 55, 0
6, 1168800, Note_on_c, 4, 62, 100
6, 1168920, Note_on_c, 4, 62, 0
6, 1168920, Note_on_c, 4, 57, 100
6, 1169040, Note_on_c, 4, 57, 0
6, 1169040, Note_on_c, 4, 54, 100
6, 1169160, Note_on_c, 4, 54, 0
6, 1169160, Note_on_c, 4, 57, 100
6, 1169280, Note_on_c, 4, 57, 0
6, 1169280, Note_on_c, 4, 62, 100
6, 1169400, Note_on_c, 4, 62, 0
6, 1169400, Note_on_c, 4, 57, 100
6, 1169520, Note_on_c, 4, 57, 0
6, 1169520, Note_on_c, 4, 69, 100
6, 1169640, Note_on_c, 4, 69, 0
6, 1169640, Note_on_c, 4, 66, 100
6, 1169760, Note_on_c, 4, 66, 0
6, 1169760, Note_on_c, 4, 62, 100
6, 1169880, Note_on_c, 4, 62, 0
6, 1169880, Note_on_c, 4, 66, 100
6, 1170000, Note_on_c, 4, 66, 0
6, 1170000, Note_on_c, 4, 64, 100
6, 1170120, Note_on_c, 4, 64, 0
6, 1170120, Note_on_c, 4, 62, 100
6, 1170240, Note_on_c, 4, 62, 0
6, 1170240, Note_on_c, 4, 67, 100
6, 1170360, Note_on_c, 4, 67, 0
6, 1170360, Note_on_c, 4, 64, 100
6, 1170480, Note_on_c, 4, 64, 0
6, 1170480, Note_on_c, 4, 59, 100
6, 1170600, Note_on_c, 4, 59, 0
6, 1170600, Note_on_c, 4, 64, 100
6, 1170720, Note_on_c, 4, 64, 0
6, 1170720, Note_on_c, 4, 67, 100
6, 1170840, Note_on_c, 4, 67, 0
6, 1170840, Note_on_c, 4, 64, 100
6, 1170960, Note_on_c, 4, 64, 0
6, 1170960, Note_on_c, 4, 71, 100
6, 1171080, Note_on_c, 4, 71, 0
6, 1171080, Note_on_c, 4, 67, 100
6, 1171200, Note_on_c, 4, 67, 0
6, 1171200, Note_on_c, 4, 64, 100
6, 1171320, Note_on_c, 4, 64, 0
6, 1171320, Note_on_c, 4, 71, 100
6, 1171440, Note_on_c, 4, 71, 0
6, 1171440, Note_on_c, 4, 69, 100
6, 1171560, Note_on_c, 4, 69, 0
6, 1171560, Note_on_c, 4, 67, 100
6, 1171680, Note_on_c, 4, 67, 0
6, 1171680, Note_on_c, 4, 74, 100
6, 1171800, Note_on_c, 4, 74, 0
6, 1171800, Note_on_c, 4, 69, 100
6, 1171920, Note_on_c, 4, 69, 0
6, 1171920, Note_on_c, 4, 66, 100
6, 1172040, Note_on_c, 4, 66, 0
6, 1172040, Note_on_c, 4, 69, 100
6, 1172160, Note_on_c, 4, 69, 0
6, 1172160, Note_on_c, 4, 74, 100
6, 1172280, Note_on_c, 4, 74, 0
6, 1172280, Note_on_c, 4, 69, 100
6, 1172400, Note_on_c, 4, 69, 0
6, 1172400, Note_on_c, 4, 81, 100
6, 1172520, Note_on_c, 4, 81, 0
6, 1172520, Note_on_c, 4, 78, 100
6, 1172640, Note_on_c, 4, 78, 0
6, 1172640, Note_on_c, 4, 74, 100
6, 1172760, Note_on_c, 4, 74, 0
6, 1172760, Note_on_c, 4, 78, 100
6, 1172880, Note_on_c, 4, 78, 0
6, 1172880, Note_on_c, 4, 76, 100
6, 1173000, Note_on_c, 4, 76, 0
6, 1173000, Note_on_c, 4, 74, 100
6, 1173120, Note_on_c, 4, 74, 0
6, 1173120, Note_on_c, 4, 79, 100
6, 1173240, Note_on_c, 4, 79, 0
6, 1173240, Note_on_c, 4, 74, 100
6, 1173360, Note_on_c, 4, 74, 0
6, 1173360, Note_on_c, 4, 71, 100
6, 1173480, Note_on_c, 4, 71, 0
6, 1173480, Note_on_c, 4, 74, 100
6, 1173600, Note_on_c, 4, 74, 0
6, 1173600, Note_on_c, 4, 79, 100
6, 1173720, Note_on_c, 4, 79, 0
6, 1173720, Note_on_c, 4, 74, 100
6, 1173840, Note_on_c, 4, 74, 0
6, 1173840, Note_on_c, 4, 83, 100
6, 1173960, Note_on_c, 4, 83, 0
6, 1173960, Note_on_c, 4, 79, 100
6, 1174080, Note_on_c, 4, 79, 0
6, 1174080, Note_on_c, 4, 74, 100
6, 1174200, Note_on_c, 4, 74, 0
6, 1174200, Note_on_c, 4, 77, 100
6, 1174320, Note_on_c, 4, 77, 0
6, 1174320, Note_on_c, 4, 76, 100
6, 1174440, Note_on_c, 4, 76, 0
6, 1174440, Note_on_c, 4, 74, 100
6, 1174560, Note_on_c, 4, 74, 0
6, 1174560, Note_on_c, 4, 76, 100
6, 1174680, Note_on_c, 4, 76, 0
6, 1174680, Note_on_c, 4, 72, 100
6, 1174800, Note_on_c, 4, 72, 0
6, 1174800, Note_on_c, 4, 67, 100
6, 1174920, Note_on_c, 4, 67, 0
6, 1174920, Note_on_c, 4, 72, 100
6, 1175040, Note_on_c, 4, 72, 0
6, 1175040, Note_on_c, 4, 76, 100
6, 1175160, Note_on_c, 4, 76, 0
6, 1175160, Note_on_c, 4, 72, 100
6, 1175280, Note_on_c, 4, 72, 0
6, 1175280, Note_on_c, 4, 79, 100
6, 1175400, Note_on_c, 4, 79, 0
6, 1175400, Note_on_c, 4, 76, 100
6, 1175520, Note_on_c, 4, 76, 0
6, 1175520, Note_on_c, 4, 72, 100
6, 1175640, Note_on_c, 4, 72, 0
6, 1175640, Note_on_c, 4, 74, 100
6, 1175760, Note_on_c, 4, 74, 0
6, 1175760, Note_on_c, 4, 72, 100
6, 1175880, Note_on_c, 4, 72, 0
6, 1175880, Note_on_c, 4, 71, 100
6, 1176000, Note_on_c, 4, 71, 0
6, 1176000, Note_on_c, 4, 69, 100
6, 1176120, Note_on_c, 4, 69, 0
6, 1176120, Note_on_c, 4, 66, 100
6, 1176240, Note_on_c, 4, 66, 0
6, 1176240, Note_on_c, 4, 62, 100
6, 1176360, Note_on_c, 4, 62, 0
6, 1176360, Note_on_c, 4, 66, 100
6, 1176480, Note_on_c, 4, 66, 0
6, 1176480, Note_on_c, 4, 69, 100
6, 1176600, Note_on_c, 4, 69, 0
6, 1176600, Note_on_c, 4, 66, 100
6, 1176720, Note_on_c, 4, 66, 0
6, 1176720, Note_on_c, 4, 74, 100
6, 1176840, Note_on_c, 4, 74, 0
6, 1176840, Note_on_c, 4, 69, 100
6, 1176960, Note_on_c, 4, 69, 0
6, 1176960, Note_on_c, 4, 66, 100
6, 1177080, Note_on_c, 4, 66, 0
6, 1177080, Note_on_c, 4, 69, 100
6, 1177200, Note_on_c, 4, 69, 0
6, 1177200, Note_on_c, 4, 67, 100
6, 1177320, Note_on_c, 4, 67, 0
6, 1177320, Note_on_c, 4, 66, 100
6, 1177440, Note_on_c, 4, 66, 0
6, 1177440, Note_on_c, 4, 67, 100
6, 1177560, Note_on_c, 4, 67, 0
6, 1177560, Note_on_c, 4, 62, 100
6, 1177680, Note_on_c, 4, 62, 0
6, 1177680, Note_on_c, 4, 59, 100
6, 1177800, Note_on_c, 4, 59, 0
6, 1177800, Note_on_c, 4, 62, 100
6, 1177920, Note_on_c, 4, 62, 0
6, 1177920, Note_on_c, 4, 67, 100
6, 1178040, Note_on_c, 4, 67, 0
6, 1178040, Note_on_c, 4, 62, 100
6, 1178160, Note_on_c, 4, 62, 0
6, 1178160, Note_on_c, 4, 71, 100
6, 1178280, Note_on_c, 4, 71, 0
6, 1178280, Note_on_c, 4, 67, 100
6, 1178400, Note_on_c, 4, 67, 0
6, 1178400, Note_on_c, 4, 74, 100
6, 1178520, Note_on_c, 4, 74, 0
6, 1178520, Note_on_c, 4, 72, 100
6, 1178640, Note_on_c, 4, 72, 0
6, 1178640, Note_on_c, 4, 71, 100
6, 1178760, Note_on_c, 4, 71, 0
6, 1178760, Note_on_c, 4, 69, 100
6, 1178880, Note_on_c, 4, 69, 0
6, 1178880, Note_on_c, 4, 67, 100
6, 1179120, Note_on_c, 4, 67, 0
6, 1179240, Note_on_c, 4, 79, 100
6, 1179300, Note_on_c, 4, 79, 0
6, 1179300, Note_on_c, 4, 78, 100
6, 1179360, Note_on_c, 4, 78, 0
6, 1179360, Note_on_c, 4, 79, 100
6, 1179480, Note_on_c, 4, 79, 0
6, 1179720, Note_on_c, 4, 73, 100
6, 1179780, Note_on_c, 4, 73, 0
6, 1179780, Note_on_c, 4, 71, 100
6, 1179840, Note_on_c, 4, 71, 0
6, 1179840, Note_on_c, 4, 73, 100
6, 1179960, Note_on_c, 4, 73, 0
6, 1180200, Note_on_c, 4, 66, 100
6, 1180260, Note_on_c, 4, 66, 0
6, 1180260, Note_on_c, 4, 64, 100
6, 1180320, Note_on_c, 4, 64, 0
6, 1180320, Note_on_c, 4, 66, 100
6, 1180440, Note_on_c, 4, 66, 0
6, 1180680, Note_on_c, 4, 78, 100
6, 1180740, Note_on_c, 4, 78, 0
6, 1180740, Note_on_c, 4, 76, 100
6, 1180800, Note_on_c, 4, 76, 0
6, 1180800, Note_on_c, 4, 78, 100
6, 1180920, Note_on_c, 4, 78, 0
6, 1181160, Note_on_c, 4, 71, 100
6, 1181220, Note_on_c, 4, 71, 0
6, 1181220, Note_on_c, 4, 69, 100
6, 1181280, Note_on_c, 4, 69, 0
6, 1181280, Note_on_c, 4, 71, 100
6, 1181400, Note_on_c, 4, 71, 0
6, 1181640, Note_on_c, 4, 64, 100
6, 1181700, Note_on_c, 4, 64, 0
6, 1181700, Note_on_c, 4, 62, 100
6, 1181760, Note_on_c, 4, 62, 0
6, 1181760, Note_on_c, 4, 64, 100
6, 1181880, Note_on_c, 4, 64, 0
6, 1182120, Note_on_c, 4, 76, 100
6, 1182180, Note_on_c, 4, 76, 0
6, 1182180, Note_on_c, 4, 74, 100
6, 1182240, Note_on_c, 4, 74, 0
6, 1182240, Note_on_c, 4, 76, 100
6, 1182360, Note_on_c, 4, 76, 0
6, 1182600, Note_on_c, 4, 67, 100
6, 1182660, Note_on_c, 4, 67, 0
6, 1182660, Note_on_c, 4, 66, 100
6, 1182720, Note_on_c, 4, 66, 0
6, 1182720, Note_on_c, 4, 67, 100
6, 1182840, Note_on_c, 4, 67, 0
6, 1183080, Note_on_c, 4, 61, 100
6, 1183140, Note_on_c, 4, 61, 0
6, 1183140, Note_on_c, 4, 59, 100
6, 1183200, Note_on_c, 4, 59, 0
6, 1183200, Note_on_c, 4, 61, 100
6, 1183320, Note_on_c, 4, 61, 0
6, 1183560, Note_on_c, 4, 52, 100
6, 1183620, Note_on_c, 4, 52, 0
6, 1183620, Note_on_c, 4, 50, 100
6, 1183680, Note_on_c, 4, 50, 0
6, 1183680, Note_on_c, 4, 52, 100
6, 1183800, Note_on_c, 4, 52, 0
6, 1184040, Note_on_c, 4, 45, 100
6, 1184100, Note_on_c, 4, 45, 0
6, 1184100, Note_on_c, 4, 43, 100
6, 1184160, Note_on_c, 4, 43, 0
6, 1184160, Note_on_c, 4, 45, 100
6, 1184280, Note_on_c, 4, 45, 0
6, 1184520, Note_on_c, 4, 42, 100
6, 1184580, Note_on_c, 4, 42, 0
6, 1184580, Note_on_c, 4, 40, 100
6, 1184640, Note_on_c, 4, 40, 0
6, 1184640, Note_on_c, 4, 42, 100
6, 1184880, Note_on_c, 4, 42, 0
6, 1185120, Note_on_c, 4, 74, 100
6, 1185360, Note_on_c, 4, 74, 0
6, 1185600, Note_on_c, 4, 72, 100
6, 1185840, Note_on_c, 4, 72, 0
6, 1186140, Note_on_c, 4, 55, 100
6, 1186200, Note_on_c, 4, 55, 0
6, 1186200, Note_on_c, 4, 57, 100
6, 1186260, Note_on_c, 4, 57, 0
6, 1186260, Note_on_c, 4, 59, 100
6, 1186320, Note_on_c, 4, 59, 0
6, 1186320, Note_on_c, 4, 62, 100
6, 1186380, Note_on_c, 4, 62, 0
6, 1186380, Note_on_c, 4, 59, 100
6, 1186440, Note_on_c, 4, 59, 0
6, 1186440, Note_on_c, 4, 57, 100
6, 1186500, Note_on_c, 4, 57, 0
6, 1186500, Note_on_c, 4, 55, 100
6, 1186560, Note_on_c, 4, 55, 0
6, 1186620, Note_on_c, 4, 55, 100
6, 1186680, Note_on_c, 4, 55, 0
6, 1186680, Note_on_c, 4, 57, 100
6, 1186740, Note_on_c, 4, 57, 0
6, 1186740, Note_on_c, 4, 58, 100
6, 1186800, Note_on_c, 4, 58, 0
6, 1186800, Note_on_c, 4, 62, 100
6, 1186860, Note_on_c, 4, 62, 0
6, 1186860, Note_on_c, 4, 58, 100
6, 1186920, Note_on_c, 4, 58, 0
6, 1186920, Note_on_c, 4, 57, 100
6, 1186980, Note_on_c, 4, 57, 0
6, 1186980, Note_on_c, 4, 55, 100
6, 1187040, Note_on_c, 4, 55, 0
6, 1187100, Note_on_c, 4, 56, 100
6, 1187160, Note_on_c, 4, 56, 0
6, 1187160, Note_on_c, 4, 57, 100
6, 1187220, Note_on_c, 4, 57, 0
6, 1187220, Note_on_c, 4, 59, 100
6, 1187280, Note_on_c, 4, 59, 0
6, 1187280, Note_on_c, 4, 62, 100
6, 1187340, Note_on_c, 4, 62, 0
6, 1187340, Note_on_c, 4, 59, 100
6, 1187400, Note_on_c, 4, 59, 0
6, 1187400, Note_on_c, 4, 57, 100
6, 1187460, Note_on_c, 4, 57, 0
6, 1187460, Note_on_c, 4, 56, 100
6, 1187520, Note_on_c, 4, 56, 0
6, 1187520, Note_on_c, 4, 57, 100
6, 1187640, Note_on_c, 4, 57, 0
6, 1187640, Note_on_c, 4, 61, 100
6, 1187700, Note_on_c, 4, 61, 0
6, 1187700, Note_on_c, 4, 59, 100
6, 1187760, Note_on_c, 4, 59, 0
6, 1187760, Note_on_c, 4, 61, 100
6, 1187880, Note_on_c, 4, 61, 0
6, 1187880, Note_on_c, 4, 54, 100
6, 1187940, Note_on_c, 4, 54, 0
6, 1187940, Note_on_c, 4, 52, 100
6, 1188000, Note_on_c, 4, 52, 0
6, 1188000, Note_on_c, 4, 54, 100
6, 1188120, Note_on_c, 4, 54, 0
6, 1188120, Note_on_c, 4, 59, 100
6, 1188180, Note_on_c, 4, 59, 0
6, 1188180, Note_on_c, 4, 57, 100
6, 1188240, Note_on_c, 4, 57, 0
6, 1188240, Note_on_c, 4, 59, 100
6, 1188360, Note_on_c, 4, 59, 0
6, 1188360, Note_on_c, 4, 52, 100
6, 1188420, Note_on_c, 4, 52, 0
6, 1188420, Note_on_c, 4, 50, 100
6, 1188480, Note_on_c, 4, 50, 0
6, 1188480, Note_on_c, 4, 52, 100
6, 1188600, Note_on_c, 4, 52, 0
6, 1188600, Note_on_c, 4, 57, 100
6, 1188660, Note_on_c, 4, 57, 0
6, 1188660, Note_on_c, 4, 55, 100
6, 1188720, Note_on_c, 4, 55, 0
6, 1188720, Note_on_c, 4, 57, 100
6, 1188840, Note_on_c, 4, 57, 0
6, 1188840, Note_on_c, 4, 50, 100
6, 1188900, Note_on_c, 4, 50, 0
6, 1188900, Note_on_c, 4, 49, 100
6, 1188960, Note_on_c, 4, 49, 0
6, 1188960, Note_on_c, 4, 50, 100
6, 1189020, Note_on_c, 4, 50, 0
6, 1189020, Note_on_c, 4, 52, 100
6, 1189080, Note_on_c, 4, 52, 0
6, 1189080, Note_on_c, 4, 54, 100
6, 1189140, Note_on_c, 4, 54, 0
6, 1189140, Note_on_c, 4, 55, 100
6, 1189200, Note_on_c, 4, 55, 0
6, 1189200, Note_on_c, 4, 57, 100
6, 1189260, Note_on_c, 4, 57, 0
6, 1189260, Note_on_c, 4, 55, 100
6, 1189320, Note_on_c, 4, 55, 0
6, 1189320, Note_on_c, 4, 54, 100
6, 1189380, Note_on_c, 4, 54, 0
6, 1189380, Note_on_c, 4, 52, 100
6, 1189440, Note_on_c, 4, 52, 0
6, 1189440, Note_on_c, 4, 50, 100
6, 1189560, Note_on_c, 4, 50, 0
6, 1189560, Note_on_c, 4, 54, 100
6, 1189680, Note_on_c, 4, 54, 0
6, 1189680, Note_on_c, 4, 45, 100
6, 1189800, Note_on_c, 4, 45, 0
6, 1189800, Note_on_c, 4, 50, 100
6, 1189920, Note_on_c, 4, 50, 0
6, 1189920, Note_on_c, 4, 38, 100
6, 1190160, Note_on_c, 4, 38, 0
6, 1190400, Note_on_c, 4, 59, 100
6, 1190520, Note_on_c, 4, 59, 0
6, 1190520, Note_on_c, 4, 55, 100
6, 1190640, Note_on_c, 4, 55, 0
6, 1190640, Note_on_c, 4, 50, 100
6, 1190760, Note_on_c, 4, 50, 0
6, 1190760, Note_on_c, 4, 55, 100
6, 1190880, Note_on_c, 4, 55, 0
6, 1190880, Note_on_c, 4, 59, 100
6, 1191000, Note_on_c, 4, 59, 0
6, 1191000, Note_on_c, 4, 55, 100
6, 1191120, Note_on_c, 4, 55, 0
6, 1191120, Note_on_c, 4, 62, 100
6, 1191240, Note_on_c, 4, 62, 0
6, 1191240, Note_on_c, 4, 59, 100
6, 1191360, Note_on_c, 4, 59, 0
6, 1191360, Note_on_c, 4, 55, 100
6, 1191480, Note_on_c, 4, 55, 0
6, 1191480, Note_on_c, 4, 59, 100
6, 1191600, Note_on_c, 4, 59, 0
6, 1191600, Note_on_c, 4, 57, 100
6, 1191720, Note_on_c, 4, 57, 0
6, 1191720, Note_on_c, 4, 55, 100
6, 1191840, Note_on_c, 4, 55, 0
6, 1191840, Note_on_c, 4, 62, 100
6, 1191960, Note_on_c, 4, 62, 0
6, 1191960, Note_on_c, 4, 57, 100
6, 1192080, Note_on_c, 4, 57, 0
6, 1192080, Note_on_c, 4, 54, 100
6, 1192200, Note_on_c, 4, 54, 0
6, 1192200, Note_on_c, 4, 57, 100
6, 1192320, Note_on_c, 4, 57, 0
6, 1192320, Note_on_c, 4, 62, 100
6, 1192440, Note_on_c, 4, 62, 0
6, 1192440, Note_on_c, 4, 57, 100
6, 1192560, Note_on_c, 4, 57, 0
6, 1192560, Note_on_c, 4, 69, 100
6, 1192680, Note_on_c, 4, 69, 0
6, 1192680, Note_on_c, 4, 66, 100
6, 1192800, Note_on_c, 4, 66, 0
6, 1192800, Note_on_c, 4, 62, 100
6, 1192920, Note_on_c, 4, 62, 0
6, 1192920, Note_on_c, 4, 66, 100
6, 1193040, Note_on_c, 4, 66, 0
6, 1193040, Note_on_c, 4, 64, 100
6, 1193160, Note_on_c, 4, 64, 0
6, 1193160, Note_on_c, 4, 62, 100
6, 1193280, Note_on_c, 4, 62, 0
6, 1193280, Note_on_c, 4, 67, 100
6, 1193400, Note_on_c, 4, 67, 0
6, 1193400, Note_on_c, 4, 64, 100
6, 1193520, Note_on_c, 4, 64, 0
6, 1193520, Note_on_c, 4, 59, 100
6, 1193640, Note_on_c, 4, 59, 0
6, 1193640, Note_on_c, 4, 64, 100
6, 1193760, Note_on_c, 4, 64, 0
6, 1193760, Note_on_c, 4, 67, 100
6, 1193880, Note_on_c, 4, 67, 0
6, 1193880, Note_on_c, 4, 64, 100
6, 1194000, Note_on_c, 4, 64, 0
6, 1194000, Note_on_c, 4, 71, 100
6, 1194120, Note_on_c, 4, 71, 0
6, 1194120, Note_on_c, 4, 67, 100
6, 1194240, Note_on_c, 4, 67, 0
6, 1194240, Note_on_c, 4, 64, 100
6, 1194360, Note_on_c, 4, 64, 0
6, 1194360, Note_on_c, 4, 71, 100
6, 1194480, Note_on_c, 4, 71, 0
6, 1194480, Note_on_c, 4, 69, 100
6, 1194600, Note_on_c, 4, 69, 0
6, 1194600, Note_on_c, 4, 67, 100
6, 1194720, Note_on_c, 4, 67, 0
6, 1194720, Note_on_c, 4, 74, 100
6, 1194840, Note_on_c, 4, 74, 0
6, 1194840, Note_on_c, 4, 69, 100
6, 1194960, Note_on_c, 4, 69, 0
6, 1194960, Note_on_c, 4, 66, 100
6, 1195080, Note_on_c, 4, 66, 0
6, 1195080, Note_on_c, 4, 69, 100
6, 1195200, Note_on_c, 4, 69, 0
6, 1195200, Note_on_c, 4, 74, 100
6, 1195320, Note_on_c, 4, 74, 0
6, 1195320, Note_on_c, 4, 69, 100
6, 1195440, Note_on_c, 4, 69, 0
6, 1195440, Note_on_c, 4, 81, 100
6, 1195560, Note_on_c, 4, 81, 0
6, 1195560, Note_on_c, 4, 78, 100
6, 1195680, Note_on_c, 4, 78, 0
6, 1195680, Note_on_c, 4, 74, 100
6, 1195800, Note_on_c, 4, 74, 0
6, 1195800, Note_on_c, 4, 78, 100
6, 1195920, Note_on_c, 4, 78, 0
6, 1195920, Note_on_c, 4, 76, 100
6, 1196040, Note_on_c, 4, 76, 0
6, 1196040, Note_on_c, 4, 74, 100
6, 1196160, Note_on_c, 4, 74, 0
6, 1196160, Note_on_c, 4, 79, 100
6, 1196280, Note_on_c, 4, 79, 0
6, 1196280, Note_on_c, 4, 74, 100
6, 1196400, Note_on_c, 4, 74, 0
6, 1196400, Note_on_c, 4, 71, 100
6, 1196520, Note_on_c, 4, 71, 0
6, 1196520, Note_on_c, 4, 74, 100
6, 1196640, Note_on_c, 4, 74, 0
6, 1196640, Note_on_c, 4, 79, 100
6, 1196760, Note_on_c, 4, 79, 0
6, 1196760, Note_on_c, 4, 74, 100
6, 1196880, Note_on_c, 4, 74, 0
6, 1196880, Note_on_c, 4, 83, 100
6, 1197000, Note_on_c, 4, 83, 0
6, 1197000, Note_on_c, 4, 79, 100
6, 1197120, Note_on_c, 4, 79, 0
6, 1197120, Note_on_c, 4, 74, 100
6, 1197240, Note_on_c, 4, 74, 0
6, 1197240, Note_on_c, 4, 77, 100
6, 1197360, Note_on_c, 4, 77, 0
6, 1197360, Note_on_c, 4, 76, 100
6, 1197480, Note_on_c, 4, 76, 0
6, 1197480, Note_on_c, 4, 74, 100
6, 1197600, Note_on_c, 4, 74, 0
6, 1197600, Note_on_c, 4, 76, 100
6, 1197720, Note_on_c, 4, 76, 0
6, 1197720, Note_on_c, 4, 72, 100
6, 1197840, Note_on_c, 4, 72, 0
6, 1197840, Note_on_c, 4, 67, 100
6, 1197960, Note_on_c, 4, 67, 0
6, 1197960, Note_on_c, 4, 72, 100
6, 1198080, Note_on_c, 4, 72, 0
6, 1198080, Note_on_c, 4, 76, 100
6, 1198200, Note_on_c, 4, 76, 0
6, 1198200, Note_on_c, 4, 72, 100
6, 1198320, Note_on_c, 4, 72, 0
6, 1198320, Note_on_c, 4, 79, 100
6, 1198440, Note_on_c, 4, 79, 0
6, 1198440, Note_on_c, 4, 76, 100
6, 1198560, Note_on_c, 4, 76, 0
6, 1198560, Note_on_c, 4, 72, 100
6, 1198680, Note_on_c, 4, 72, 0
6, 1198680, Note_on_c, 4, 74, 100
6, 1198800, Note_on_c, 4, 74, 0
6, 1198800, Note_on_c, 4, 72, 100
6, 1198920, Note_on_c, 4, 72, 0
6, 1198920, Note_on_c, 4, 71, 100
6, 1199040, Note_on_c, 4, 71, 0
6, 1199040, Note_on_c, 4, 69, 100
6, 1199160, Note_on_c, 4, 69, 0
6, 1199160, Note_on_c, 4, 66, 100
6, 1199280, Note_on_c, 4, 66, 0
6, 1199280, Note_on_c, 4, 62, 100
6, 1199400, Note_on_c, 4, 62, 0
6, 1199400, Note_on_c, 4, 66, 100
6, 1199520, Note_on_c, 4, 66, 0
6, 1199520, Note_on_c, 4, 69, 100
6, 1199640, Note_on_c, 4, 69, 0
6, 1199640, Note_on_c, 4, 66, 100
6, 1199760, Note_on_c, 4, 66, 0
6, 1199760, Note_on_c, 4, 74, 100
6, 1199880, Note_on_c, 4, 74, 0
6, 1199880, Note_on_c, 4, 69, 100
6, 1200000, Note_on_c, 4, 69, 0
6, 1200000, Note_on_c, 4, 66, 100
6, 1200120, Note_on_c, 4, 66, 0
6, 1200120, Note_on_c, 4, 69, 100
6, 1200240, Note_on_c, 4, 69, 0
6, 1200240, Note_on_c, 4, 67, 100
6, 1200360, Note_on_c, 4, 67, 0
6, 1200360, Note_on_c, 4, 66, 100
6, 1200480, Note_on_c, 4, 66, 0
6, 1200480, Note_on_c, 4, 67, 100
6, 1200600, Note_on_c, 4, 67, 0
6, 1200600, Note_on_c, 4, 62, 100
6, 1200720, Note_on_c, 4, 62, 0
6, 1200720, Note_on_c, 4, 59, 100
6, 1200840, Note_on_c, 4, 59, 0
6, 1200840, Note_on_c, 4, 62, 100
6, 1200960, Note_on_c, 4, 62, 0
6, 1200960, Note_on_c, 4, 67, 100
6, 1201080, Note_on_c, 4, 67, 0
6, 1201080, Note_on_c, 4, 62, 100
6, 1201200, Note_on_c, 4, 62, 0
6, 1201200, Note_on_c, 4, 71, 100
6, 1201320, Note_on_c, 4, 71, 0
6, 1201320, Note_on_c, 4, 67, 100
6, 1201440, Note_on_c, 4, 67, 0
6, 1201440, Note_on_c, 4, 74, 100
6, 1201560, Note_on_c, 4, 74, 0
6, 1201560, Note_on_c, 4, 72, 100
6, 1201680, Note_on_c, 4, 72, 0
6, 1201680, Note_on_c, 4, 71, 100
6, 1201800, Note_on_c, 4, 71, 0
6, 1201800, Note_on_c, 4, 69, 100
6, 1201920, Note_on_c, 4, 69, 0
6, 1201920, Note_on_c, 4, 67, 100
6, 1202160, Note_on_c, 4, 67, 0
6, 1202280, Note_on_c, 4, 79, 100
6, 1202340, Note_on_c, 4, 79, 0
6, 1202340, Note_on_c, 4, 78, 100
6, 1202400, Note_on_c, 4, 78, 0
6, 1202400, Note_on_c, 4, 79, 100
6, 1202520, Note_on_c, 4, 79, 0
6, 1202760, Note_on_c, 4, 73, 100
6, 1202820, Note_on_c, 4, 73, 0
6, 1202820, Note_on_c, 4, 71, 100
6, 1202880, Note_on_c, 4, 71, 0
6, 1202880, Note_on_c, 4, 73, 100
6, 1203000, Note_on_c, 4, 73, 0
6, 1203240, Note_on_c, 4, 66, 100
6, 1203300, Note_on_c, 4, 66, 0
6, 1203300, Note_on_c, 4, 64, 100
6, 1203360, Note_on_c, 4, 64, 0
6, 1203360, Note_on_c, 4, 66, 100
6, 1203480, Note_on_c, 4, 66, 0
6, 1203720, Note_on_c, 4, 78, 100
6, 1203780, Note_on_c, 4, 78, 0
6, 1203780, Note_on_c, 4, 76, 100
6, 1203840, Note_on_c, 4, 76, 0
6, 1203840, Note_on_c, 4, 78, 100
6, 1203960, Note_on_c, 4, 78, 0
6, 1204200, Note_on_c, 4, 71, 100
6, 1204260, Note_on_c, 4, 71, 0
6, 1204260, Note_on_c, 4, 69, 100
6, 1204320, Note_on_c, 4, 69, 0
6, 1204320, Note_on_c, 4, 71, 100
6, 1204440, Note_on_c, 4, 71, 0
6, 1204680, Note_on_c, 4, 64, 100
6, 1204740, Note_on_c, 4, 64, 0
6, 1204740, Note_on_c, 4, 62, 100
6, 1204800, Note_on_c, 4, 62, 0
6, 1204800, Note_on_c, 4, 64, 100
6, 1204920, Note_on_c, 4, 64, 0
6, 1205160, Note_on_c, 4, 76, 100
6, 1205220, Note_on_c, 4, 76, 0
6, 1205220, Note_on_c, 4, 74, 100
6, 1205280, Note_on_c, 4, 74, 0
6, 1205280, Note_on_c, 4, 76, 100
6, 1205400, Note_on_c, 4, 76, 0
6, 1205640, Note_on_c, 4, 67, 100
6, 1205700, Note_on_c, 4, 67, 0
6, 1205700, Note_on_c, 4, 66, 100
6, 1205760, Note_on_c, 4, 66, 0
6, 1205760, Note_on_c, 4, 67, 100
6, 1205880, Note_on_c, 4, 67, 0
6, 1206120, Note_on_c, 4, 61, 100
6, 1206180, Note_on_c, 4, 61, 0
6, 1206180, Note_on_c, 4, 59, 100
6, 1206240, Note_on_c, 4, 59, 0
6, 1206240, Note_on_c, 4, 61, 100
6, 1206360, Note_on_c, 4, 61, 0
6, 1206600, Note_on_c, 4, 52, 100
6, 1206660, Note_on_c, 4, 52, 0
6, 1206660, Note_on_c, 4, 50, 100
6, 1206720, Note_on_c, 4, 50, 0
6, 1206720, Note_on_c, 4, 52, 100
6, 1206840, Note_on_c, 4, 52, 0
6, 1207080, Note_on_c, 4, 45, 100
6, 1207140, Note_on_c, 4, 45, 0
6, 1207140, Note_on_c, 4, 43, 100
6, 1207200, Note_on_c, 4, 43, 0
6, 1207200, Note_on_c, 4, 45, 100
6, 1207320, Note_on_c, 4, 45, 0
6, 1207560, Note_on_c, 4, 42, 100
6, 1207620, Note_on_c, 4, 42, 0
6, 1207620, Note_on_c, 4, 40, 100
6, 1207680, Note_on_c, 4, 40, 0
6, 1207680, Note_on_c, 4, 42, 100
6, 1207920, Note_on_c, 4, 42, 0
6, 1208160, Note_on_c, 4, 74, 100
6, 1208400, Note_on_c, 4, 74, 0
6, 1208640, Note_on_c, 4, 72, 100
6, 1208880, Note_on_c, 4, 72, 0
6, 1209180, Note_on_c, 4, 55, 100
6, 1209240, Note_on_c, 4, 55, 0
6, 1209240, Note_on_c, 4, 57, 100
6, 1209300, Note_on_c, 4, 57, 0
6, 1209300, Note_on_c, 4, 59, 100
6, 1209360, Note_on_c, 4, 59, 0
6, 1209360, Note_on_c, 4, 62, 100
6, 1209420, Note_on_c, 4, 62, 0
6, 1209420, Note_on_c, 4, 59, 100
6, 1209480, Note_on_c, 4, 59, 0
6, 1209480, Note_on_c, 4, 57, 100
6, 1209540, Note_on_c, 4, 57, 0
6, 1209540, Note_on_c, 4, 55, 100
6, 1209600, Note_on_c, 4, 55, 0
6, 1209660, Note_on_c, 4, 55, 100
6, 1209720, Note_on_c, 4, 55, 0
6, 1209720, Note_on_c, 4, 57, 100
6, 1209780, Note_on_c, 4, 57, 0
6, 1209780, Note_on_c, 4, 58, 100
6, 1209840, Note_on_c, 4, 58, 0
6, 1209840, Note_on_c, 4, 62, 100
6, 1209900, Note_on_c, 4, 62, 0
6, 1209900, Note_on_c, 4, 58, 100
6, 1209960, Note_on_c, 4, 58, 0
6, 1209960, Note_on_c, 4, 57, 100
6, 1210020, Note_on_c, 4, 57, 0
6, 1210020, Note_on_c, 4, 55, 100
6, 1210080, Note_on_c, 4, 55, 0
6, 1210140, Note_on_c, 4, 56, 100
6, 1210200, Note_on_c, 4, 56, 0
6, 1210200, Note_on_c, 4, 57, 100
6, 1210260, Note_on_c, 4, 57, 0
6, 1210260, Note_on_c, 4, 59, 100
6, 1210320, Note_on_c, 4, 59, 0
6, 1210320, Note_on_c, 4, 62, 100
6, 1210380, Note_on_c, 4, 62, 0
6, 1210380, Note_on_c, 4, 59, 100
6, 1210440, Note_on_c, 4, 59, 0
6, 1210440, Note_on_c, 4, 57, 100
6, 1210500, Note_on_c, 4, 57, 0
6, 1210500, Note_on_c, 4, 56, 100
6, 1210560, Note_on_c, 4, 56, 0
6, 1210560, Note_on_c, 4, 57, 100
6, 1210680, Note_on_c, 4, 57, 0
6, 1210680, Note_on_c, 4, 61, 100
6, 1210740, Note_on_c, 4, 61, 0
6, 1210740, Note_on_c, 4, 59, 100
6, 1210800, Note_on_c, 4, 59, 0
6, 1210800, Note_on_c, 4, 61, 100
6, 1210920, Note_on_c, 4, 61, 0
6, 1210920, Note_on_c, 4, 54, 100
6, 1210980, Note_on_c, 4, 54, 0
6, 1210980, Note_on_c, 4, 52, 100
6, 1211040, Note_on_c, 4, 52, 0
6, 1211040, Note_on_c, 4, 54, 100
6, 1211160, Note_on_c, 4, 54, 0
6, 1211160, Note_on_c, 4, 59, 100
6, 1211220, Note_on_c, 4, 59, 0
6, 1211220, Note_on_c, 4, 57, 100
6, 1211280, Note_on_c, 4, 57, 0
6, 1211280, Note_on_c, 4, 59, 100
6, 1211400, Note_on_c, 4, 59, 0
6, 1211400, Note_on_c, 4, 52, 100
6, 1211460, Note_on_c, 4, 52, 0
6, 1211460, Note_on_c, 4, 50, 100
6, 1211520, Note_on_c, 4, 50, 0
6, 1211520, Note_on_c, 4, 52, 100
6, 1211640, Note_on_c, 4, 52, 0
6, 1211640, Note_on_c, 4, 57, 100
6, 1211700, Note_on_c, 4, 57, 0
6, 1211700, Note_on_c, 4, 55, 100
6, 1211760, Note_on_c, 4, 55, 0
6, 1211760, Note_on_c, 4, 57, 100
6, 1211880, Note_on_c, 4, 57, 0
6, 1211880, Note_on_c, 4, 50, 100
6, 1211940, Note_on_c, 4, 50, 0
6, 1211940, Note_on_c, 4, 49, 100
6, 1212000, Note_on_c, 4, 49, 0
6, 1212000, Note_on_c, 4, 50, 100
6, 1212060, Note_on_c, 4, 50, 0
6, 1212060, Note_on_c, 4, 52, 100
6, 1212120, Note_on_c, 4, 52, 0
6, 1212120, Note_on_c, 4, 54, 100
6, 1212180, Note_on_c, 4, 54, 0
6, 1212180, Note_on_c, 4, 55, 100
6, 1212240, Note_on_c, 4, 55, 0
6, 1212240, Note_on_c, 4, 57, 100
6, 1212300, Note_on_c, 4, 57, 0
6, 1212300, Note_on_c, 4, 55, 100
6, 1212360, Note_on_c, 4, 55, 0
6, 1212360, Note_on_c, 4, 54, 100
6, 1212420, Note_on_c, 4, 54, 0
6, 1212420, Note_on_c, 4, 52, 100
6, 1212480, Note_on_c, 4, 52, 0
6, 1212480, Note_on_c, 4, 50, 100
6, 1212600, Note_on_c, 4, 50, 0
6, 1212600, Note_on_c, 4, 54, 100
6, 1212720, Note_on_c, 4, 54, 0
6, 1212720, Note_on_c, 4, 45, 100
6, 1212840, Note_on_c, 4, 45, 0
6, 1212840, Note_on_c, 4, 50, 100
6, 1212960, Note_on_c, 4, 50, 0
6, 1212960, Note_on_c, 4, 38, 100
6, 1213200, Note_on_c, 4, 38, 0
6, 1213440, Note_on_c, 4, 50, 100
6, 1213680, Note_on_c, 4, 50, 0
6, 1213920, Note_on_c, 4, 83, 100
6, 1213980, Note_on_c, 4, 83, 0
6, 1213980, Note_on_c, 4, 84, 100
6, 1214040, Note_on_c, 4, 84, 0
6, 1214040, Note_on_c, 4, 86, 100
6, 1214100, Note_on_c, 4, 86, 0
6, 1214100, Note_on_c, 4, 84, 100
6, 1214160, Note_on_c, 4, 84, 0
6, 1214160, Note_on_c, 4, 86, 100
6, 1214220, Note_on_c, 4, 86, 0
6, 1214220, Note_on_c, 4, 84, 100
6, 1214280, Note_on_c, 4, 84, 0
6, 1214280, Note_on_c, 4, 86, 100
6, 1214340, Note_on_c, 4, 86, 0
6, 1214340, Note_on_c, 4, 84, 100
6, 1214400, Note_on_c, 4, 84, 0
6, 1214400, Note_on_c, 4, 86, 100
6, 1214460, Note_on_c, 4, 86, 0
6, 1214460, Note_on_c, 4, 84, 100
6, 1214520, Note_on_c, 4, 84, 0
6, 1214520, Note_on_c, 4, 86, 100
6, 1214580, Note_on_c, 4, 86, 0
6, 1214580, Note_on_c, 4, 84, 100
6, 1214640, Note_on_c, 4, 84, 0
6, 1214640, Note_on_c, 4, 86, 100
6, 1214700, Note_on_c, 4, 86, 0
6, 1214700, Note_on_c, 4, 84, 100
6, 1214760, Note_on_c, 4, 84, 0
6, 1214760, Note_on_c, 4, 83, 100
6, 1214820, Note_on_c, 4, 83, 0
6, 1214820, Note_on_c, 4, 84, 100
6, 1214880, Note_on_c, 4, 84, 0
6, 1214880, Note_on_c, 4, 83, 100
6, 1215120, Note_on_c, 4, 83, 0
6, 1215360, Note_on_c, 4, 65, 100
6, 1215420, Note_on_c, 4, 65, 0
6, 1215420, Note_on_c, 4, 64, 100
6, 1215480, Note_on_c, 4, 64, 0
6, 1215480, Note_on_c, 4, 65, 100
6, 1215960, Note_on_c, 4, 65, 0
6, 1215960, Note_on_c, 4, 69, 100
6, 1216080, Note_on_c, 4, 69, 0
6, 1216080, Note_on_c, 4, 67, 100
6, 1216200, Note_on_c, 4, 67, 0
6, 1216200, Note_on_c, 4, 65, 100
6, 1216320, Note_on_c, 4, 65, 0
6, 1216320, Note_on_c, 4, 64, 100
6, 1216560, Note_on_c, 4, 64, 0
6, 1216800, Note_on_c, 4, 78, 100
6, 1217040, Note_on_c, 4, 78, 0
6, 1217040, Note_on_c, 4, 81, 100
6, 1217280, Note_on_c, 4, 81, 0
6, 1217280, Note_on_c, 4, 75, 100
6, 1217520, Note_on_c, 4, 75, 0
6, 1217520, Note_on_c, 4, 76, 100
6, 1217640, Note_on_c, 4, 76, 0
6, 1217640, Note_on_c, 4, 78, 100
6, 1217760, Note_on_c, 4, 78, 0
6, 1217760, Note_on_c, 4, 71, 100
6, 1218000, Note_on_c, 4, 71, 0
6, 1218240, Note_on_c, 4, 47, 100
6, 1218300, Note_on_c, 4, 47, 0
6, 1218300, Note_on_c, 4, 45, 100
6, 1218360, Note_on_c, 4, 45, 0
6, 1218360, Note_on_c, 4, 43, 100
6, 1218420, Note_on_c, 4, 43, 0
6, 1218420, Note_on_c, 4, 45, 100
6, 1218480, Note_on_c, 4, 45, 0
6, 1218480, Note_on_c, 4, 47, 100
6, 1218540, Note_on_c, 4, 47, 0
6, 1218540, Note_on_c, 4, 45, 100
6, 1218600, Note_on_c, 4, 45, 0
6, 1218600, Note_on_c, 4, 47, 100
6, 1218660, Note_on_c, 4, 47, 0
6, 1218660, Note_on_c, 4, 45, 100
6, 1218720, Note_on_c, 4, 45, 0
6, 1218720, Note_on_c, 4, 47, 100
6, 1218780, Note_on_c, 4, 47, 0
6, 1218780, Note_on_c, 4, 45, 100
6, 1218840, Note_on_c, 4, 45, 0
6, 1218840, Note_on_c, 4, 47, 100
6, 1218900, Note_on_c, 4, 47, 0
6, 1218900, Note_on_c, 4, 45, 100
6, 1218960, Note_on_c, 4, 45, 0
6, 1218960, Note_on_c, 4, 47, 100
6, 1219020, Note_on_c, 4, 47, 0
6, 1219020, Note_on_c, 4, 45, 100
6, 1219080, Note_on_c, 4, 45, 0
6, 1219080, Note_on_c, 4, 43, 100
6, 1219140, Note_on_c, 4, 43, 0
6, 1219140, Note_on_c, 4, 45, 100
6, 1219200, Note_on_c, 4, 45, 0
6, 1219200, Note_on_c, 4, 43, 100
6, 1219440, Note_on_c, 4, 43, 0
6, 1219440, Note_on_c, 4, 40, 100
6, 1219680, Note_on_c, 4, 40, 0
6, 1219680, Note_on_c, 4, 43, 100
6, 1219920, Note_on_c, 4, 43, 0
6, 1219920, Note_on_c, 4, 47, 100
6, 1220160, Note_on_c, 4, 47, 0
6, 1220160, Note_on_c, 4, 43, 100
6, 1220400, Note_on_c, 4, 43, 0
6, 1220400, Note_on_c, 4, 40, 100
6, 1220640, Note_on_c, 4, 40, 0
6, 1220640, Note_on_c, 4, 45, 100
6, 1220880, Note_on_c, 4, 45, 0
6, 1220880, Note_on_c, 4, 33, 100
6, 1221120, Note_on_c, 4, 33, 0
6, 1221120, Note_on_c, 4, 45, 100
6, 1221360, Note_on_c, 4, 45, 0
6, 1221360, Note_on_c, 4, 48, 100
6, 1221600, Note_on_c, 4, 48, 0
6, 1221600, Note_on_c, 4, 47, 100
6, 1221840, Note_on_c, 4, 47, 0
6, 1221840, Note_on_c, 4, 45, 100
6, 1222080, Note_on_c, 4, 45, 0
6, 1222080, Note_on_c, 4, 47, 100
6, 1222320, Note_on_c, 4, 47, 0
6, 1222320, Note_on_c, 4, 51, 100
6, 1222560, Note_on_c, 4, 51, 0
6, 1222560, Note_on_c, 4, 54, 100
6, 1222800, Note_on_c, 4, 54, 0
6, 1222800, Note_on_c, 4, 59, 100
6, 1223040, Note_on_c, 4, 59, 0
6, 1223040, Note_on_c, 4, 47, 100
6, 1223280, Note_on_c, 4, 47, 0
6, 1223280, Note_on_c, 4, 64, 100
6, 1223400, Note_on_c, 4, 64, 0
6, 1223400, Note_on_c, 4, 63, 100
6, 1223520, Note_on_c, 4, 63, 0
6, 1223520, Note_on_c, 4, 64, 100
6, 1223760, Note_on_c, 4, 64, 0
6, 1223760, Note_on_c, 4, 67, 100
6, 1224000, Note_on_c, 4, 67, 0
6, 1224000, Note_on_c, 4, 71, 100
6, 1224240, Note_on_c, 4, 71, 0
6, 1224240, Note_on_c, 4, 76, 100
6, 1224360, Note_on_c, 4, 76, 0
6, 1224360, Note_on_c, 4, 75, 100
6, 1224480, Note_on_c, 4, 75, 0
6, 1224480, Note_on_c, 4, 76, 100
6, 1224720, Note_on_c, 4, 76, 0
6, 1225080, Note_on_c, 4, 48, 100
6, 1225140, Note_on_c, 4, 48, 0
6, 1225140, Note_on_c, 4, 47, 100
6, 1225200, Note_on_c, 4, 47, 0
6, 1225200, Note_on_c, 4, 48, 100
6, 1225320, Note_on_c, 4, 48, 0
6, 1225560, Note_on_c, 4, 57, 100
6, 1225620, Note_on_c, 4, 57, 0
6, 1225620, Note_on_c, 4, 56, 100
6, 1225680, Note_on_c, 4, 56, 0
6, 1225680, Note_on_c, 4, 57, 100
6, 1225800, Note_on_c, 4, 57, 0
6, 1226040, Note_on_c, 4, 64, 100
6, 1226100, Note_on_c, 4, 64, 0
6, 1226100, Note_on_c, 4, 62, 100
6, 1226160, Note_on_c, 4, 62, 0
6, 1226160, Note_on_c, 4, 64, 100
6, 1226280, Note_on_c, 4, 64, 0
6, 1226520, Note_on_c, 4, 47, 100
6, 1226580, Note_on_c, 4, 47, 0
6, 1226580, Note_on_c, 4, 45, 100
6, 1226640, Note_on_c, 4, 45, 0
6, 1226640, Note_on_c, 4, 47, 100
6, 1226760, Note_on_c, 4, 47, 0
6, 1227000, Note_on_c, 4, 55, 100
6, 1227060, Note_on_c, 4, 55, 0
6, 1227060, Note_on_c, 4, 54, 100
6, 1227120, Note_on_c, 4, 54, 0
6, 1227120, Note_on_c, 4, 55, 100
6, 1227240, Note_on_c, 4, 55, 0
6, 1227480, Note_on_c, 4, 62, 100
6, 1227540, Note_on_c, 4, 62, 0
6, 1227540, Note_on_c, 4, 60, 100
6, 1227600, Note_on_c, 4, 60, 0
6, 1227600, Note_on_c, 4, 62, 100
6, 1227720, Note_on_c, 4, 62, 0
6, 1227960, Note_on_c, 4, 45, 100
6, 1228020, Note_on_c, 4, 45, 0
6, 1228020, Note_on_c, 4, 43, 100
6, 1228080, Note_on_c, 4, 43, 0
6, 1228080, Note_on_c, 4, 45, 100
6, 1228200, Note_on_c, 4, 45, 0
6, 1228440, Note_on_c, 4, 52, 100
6, 1228500, Note_on_c, 4, 52, 0
6, 1228500, Note_on_c, 4, 50, 100
6, 1228560, Note_on_c, 4, 50, 0
6, 1228560, Note_on_c, 4, 52, 100
6, 1228680, Note_on_c, 4, 52, 0
6, 1228920, Note_on_c, 4, 60, 100
6, 1228980, Note_on_c, 4, 60, 0
6, 1228980, Note_on_c, 4, 59, 100
6, 1229040, Note_on_c, 4, 59, 0
6, 1229040, Note_on_c, 4, 60, 100
6, 1229160, Note_on_c, 4, 60, 0
6, 1229400, Note_on_c, 4, 69, 100
6, 1229460, Note_on_c, 4, 69, 0
6, 1229460, Note_on_c, 4, 67, 100
6, 1229520, Note_on_c, 4, 67, 0
6, 1229520, Note_on_c, 4, 69, 100
6, 1229640, Note_on_c, 4, 69, 0
6, 1229880, Note_on_c, 4, 78, 100
6, 1229940, Note_on_c, 4, 78, 0
6, 1229940, Note_on_c, 4, 76, 100
6, 1230000, Note_on_c, 4, 76, 0
6, 1230000, Note_on_c, 4, 78, 100
6, 1230120, Note_on_c, 4, 78, 0
6, 1230360, Note_on_c, 4, 81, 100
6, 1230420, Note_on_c, 4, 81, 0
6, 1230420, Note_on_c, 4, 79, 100
6, 1230480, Note_on_c, 4, 79, 0
6, 1230480, Note_on_c, 4, 81, 100
6, 1230600, Note_on_c, 4, 81, 0
6, 1230780, Note_on_c, 4, 67, 100
6, 1230840, Note_on_c, 4, 67, 0
6, 1230840, Note_on_c, 4, 69, 100
6, 1230900, Note_on_c, 4, 69, 0
6, 1230900, Note_on_c, 4, 71, 100
6, 1230960, Note_on_c, 4, 71, 0
6, 1230960, Note_on_c, 4, 74, 100
6, 1231020, Note_on_c, 4, 74, 0
6, 1231020, Note_on_c, 4, 71, 100
6, 1231080, Note_on_c, 4, 71, 0
6, 1231080, Note_on_c, 4, 69, 100
6, 1231140, Note_on_c, 4, 69, 0
6, 1231140, Note_on_c, 4, 67, 100
6, 1231200, Note_on_c, 4, 67, 0
6, 1231260, Note_on_c, 4, 67, 100
6, 1231320, Note_on_c, 4, 67, 0
6, 1231320, Note_on_c, 4, 69, 100
6, 1231380, Note_on_c, 4, 69, 0
6, 1231380, Note_on_c, 4, 71, 100
6, 1231440, Note_on_c, 4, 71, 0
6, 1231440, Note_on_c, 4, 74, 100
6, 1231500, Note_on_c, 4, 74, 0
6, 1231500, Note_on_c, 4, 71, 100
6, 1231560, Note_on_c, 4, 71, 0
6, 1231560, Note_on_c, 4, 69, 100
6, 1231620, Note_on_c, 4, 69, 0
6, 1231620, Note_on_c, 4, 67, 100
6, 1231680, Note_on_c, 4, 67, 0
6, 1231740, Note_on_c, 4, 67, 100
6, 1231800, Note_on_c, 4, 67, 0
6, 1231800, Note_on_c, 4, 69, 100
6, 1231860, Note_on_c, 4, 69, 0
6, 1231860, Note_on_c, 4, 71, 100
6, 1231920, Note_on_c, 4, 71, 0
6, 1231920, Note_on_c, 4, 74, 100
6, 1231980, Note_on_c, 4, 74, 0
6, 1231980, Note_on_c, 4, 71, 100
6, 1232040, Note_on_c, 4, 71, 0
6, 1232040, Note_on_c, 4, 69, 100
6, 1232100, Note_on_c, 4, 69, 0
6, 1232100, Note_on_c, 4, 67, 100
6, 1232160, Note_on_c, 4, 67, 0
6, 1232160, Note_on_c, 4, 72, 100
6, 1232400, Note_on_c, 4, 72, 0
6, 1232640, Note_on_c, 4, 57, 100
6, 1232880, Note_on_c, 4, 57, 0
6, 1233120, Note_on_c, 4, 52, 100
6, 1233360, Note_on_c, 4, 52, 0
6, 1233600, Note_on_c, 4, 54, 100
6, 1233720, Note_on_c, 4, 54, 0
6, 1233720, Note_on_c, 4, 57, 100
6, 1233780, Note_on_c, 4, 57, 0
6, 1233780, Note_on_c, 4, 55, 100
6, 1233840, Note_on_c, 4, 55, 0
6, 1233840, Note_on_c, 4, 57, 100
6, 1233960, Note_on_c, 4, 57, 0
6, 1233960, Note_on_c, 4, 62, 100
6, 1234020, Note_on_c, 4, 62, 0
6, 1234020, Note_on_c, 4, 60, 100
6, 1234080, Note_on_c, 4, 60, 0
6, 1234080, Note_on_c, 4, 62, 100
6, 1234200, Note_on_c, 4, 62, 0
6, 1234200, Note_on_c, 4, 55, 100
6, 1234260, Note_on_c, 4, 55, 0
6, 1234260, Note_on_c, 4, 54, 100
6, 1234320, Note_on_c, 4, 54, 0
6, 1234320, Note_on_c, 4, 55, 100
6, 1234440, Note_on_c, 4, 55, 0
6, 1234440, Note_on_c, 4, 60, 100
6, 1234500, Note_on_c, 4, 60, 0
6, 1234500, Note_on_c, 4, 59, 100
6, 1234560, Note_on_c, 4, 59, 0
6, 1234560, Note_on_c, 4, 60, 100
6, 1234680, Note_on_c, 4, 60, 0
6, 1234680, Note_on_c, 4, 54, 100
6, 1234740, Note_on_c, 4, 54, 0
6, 1234740, Note_on_c, 4, 52, 100
6, 1234800, Note_on_c, 4, 52, 0
6, 1234800, Note_on_c, 4, 54, 100
6, 1234920, Note_on_c, 4, 54, 0
6, 1234920, Note_on_c, 4, 59, 100
6, 1234980, Note_on_c, 4, 59, 0
6, 1234980, Note_on_c, 4, 57, 100
6, 1235040, Note_on_c, 4, 57, 0
6, 1235040, Note_on_c, 4, 59, 100
6, 1235160, Note_on_c, 4, 59, 0
6, 1235160, Note_on_c, 4, 55, 100
6, 1235280, Note_on_c, 4, 55, 0
6, 1235280, Note_on_c, 4, 54, 100
6, 1235400, Note_on_c, 4, 54, 0
6, 1235400, Note_on_c, 4, 55, 100
6, 1235520, Note_on_c, 4, 55, 0
6, 1235520, Note_on_c, 4, 59, 100
6, 1235580, Note_on_c, 4, 59, 0
6, 1235580, Note_on_c, 4, 57, 100
6, 1235640, Note_on_c, 4, 57, 0
6, 1235640, Note_on_c, 4, 55, 100
6, 1235760, Note_on_c, 4, 55, 0
6, 1235760, Note_on_c, 4, 62, 100
6, 1235820, Note_on_c, 4, 62, 0
6, 1235820, Note_on_c, 4, 60, 100
6, 1235880, Note_on_c, 4, 60, 0
6, 1235880, Note_on_c, 4, 59, 100
6, 1236000, Note_on_c, 4, 59, 0
6, 1236000, Note_on_c, 4, 67, 100
6, 1236240, Note_on_c, 4, 67, 0
6, 1236480, Note_on_c, 4, 50, 100
6, 1236720, Note_on_c, 4, 50, 0
6, 1236960, Note_on_c, 4, 83, 100
6, 1237020, Note_on_c, 4, 83, 0
6, 1237020, Note_on_c, 4, 84, 100
6, 1237080, Note_on_c, 4, 84, 0
6, 1237080, Note_on_c, 4, 86, 100
6, 1237140, Note_on_c, 4, 86, 0
6, 1237140, Note_on_c, 4, 84, 100
6, 1237200, Note_on_c, 4, 84, 0
6, 1237200, Note_on_c, 4, 86, 100
6, 1237260, Note_on_c, 4, 86, 0
6, 1237260, Note_on_c, 4, 84, 100
6, 1237320, Note_on_c, 4, 84, 0
6, 1237320, Note_on_c, 4, 86, 100
6, 1237380, Note_on_c, 4, 86, 0
6, 1237380, Note_on_c, 4, 84, 100
6, 1237440, Note_on_c, 4, 84, 0
6, 1237440, Note_on_c, 4, 86, 100
6, 1237500, Note_on_c, 4, 86, 0
6, 1237500, Note_on_c, 4, 84, 100
6, 1237560, Note_on_c, 4, 84, 0
6, 1237560, Note_on_c, 4, 86, 100
6, 1237620, Note_on_c, 4, 86, 0
6, 1237620, Note_on_c, 4, 84, 100
6, 1237680, Note_on_c, 4, 84, 0
6, 1237680, Note_on_c, 4, 86, 100
6, 1237740, Note_on_c, 4, 86, 0
6, 1237740, Note_on_c, 4, 84, 100
6, 1237800, Note_on_c, 4, 84, 0
6, 1237800, Note_on_c, 4, 83, 100
6, 1237860, Note_on_c, 4, 83, 0
6, 1237860, Note_on_c, 4, 84, 100
6, 1237920, Note_on_c, 4, 84, 0
6, 1237920, Note_on_c, 4, 83, 100
6, 1238160, Note_on_c, 4, 83, 0
6, 1238400, Note_on_c, 4, 65, 100
6, 1238460, Note_on_c, 4, 65, 0
6, 1238460, Note_on_c, 4, 64, 100
6, 1238520, Note_on_c, 4, 64, 0
6, 1238520, Note_on_c, 4, 65, 100
6, 1239000, Note_on_c, 4, 65, 0
6, 1239000, Note_on_c, 4, 69, 100
6, 1239120, Note_on_c, 4, 69, 0
6, 1239120, Note_on_c, 4, 67, 100
6, 1239240, Note_on_c, 4, 67, 0
6, 1239240, Note_on_c, 4, 65, 100
6, 1239360, Note_on_c, 4, 65, 0
6, 1239360, Note_on_c, 4, 64, 100
6, 1239600, Note_on_c, 4, 64, 0
6, 1239840, Note_on_c, 4, 78, 100
6, 1240080, Note_on_c, 4, 78, 0
6, 1240080, Note_on_c, 4, 81, 100
6, 1240320, Note_on_c, 4, 81, 0
6, 1240320, Note_on_c, 4, 75, 100
6, 1240560, Note_on_c, 4, 75, 0
6, 1240560, Note_on_c, 4, 76, 100
6, 1240680, Note_on_c, 4, 76, 0
6, 1240680, Note_on_c, 4, 78, 100
6, 1240800, Note_on_c, 4, 78, 0
6, 1240800, Note_on_c, 4, 71, 100
6, 1241040, Note_on_c, 4, 71, 0
6, 1241280, Note_on_c, 4, 47, 100
6, 1241340, Note_on_c, 4, 47, 0
6, 1241340, Note_on_c, 4, 45, 100
6, 1241400, Note_on_c, 4, 45, 0
6, 1241400, Note_on_c, 4, 43, 100
6, 1241460, Note_on_c, 4, 43, 0
6, 1241460, Note_on_c, 4, 45, 100
6, 1241520, Note_on_c, 4, 45, 0
6, 1241520, Note_on_c, 4, 47, 100
6, 1241580, Note_on_c, 4, 47, 0
6, 1241580, Note_on_c, 4, 45, 100
6, 1241640, Note_on_c, 4, 45, 0
6, 1241640, Note_on_c, 4, 47, 100
6, 1241700, Note_on_c, 4, 47, 0
6, 1241700, Note_on_c, 4, 45, 100
6, 1241760, Note_on_c, 4, 45, 0
6, 1241760, Note_on_c, 4, 47, 100
6, 1241820, Note_on_c, 4, 47, 0
6, 1241820, Note_on_c, 4, 45, 100
6, 1241880, Note_on_c, 4, 45, 0
6, 1241880, Note_on_c, 4, 47, 100
6, 1241940, Note_on_c, 4, 47, 0
6, 1241940, Note_on_c, 4, 45, 100
6, 1242000, Note_on_c, 4, 45, 0
6, 1242000, Note_on_c, 4, 47, 100
6, 1242060, Note_on_c, 4, 47, 0
6, 1242060, Note_on_c, 4, 45, 100
6, 1242120, Note_on_c, 4, 45, 0
6, 1242120, Note_on_c, 4, 43, 100
6, 1242180, Note_on_c, 4, 43, 0
6, 1242180, Note_on_c, 4, 45, 100
6, 1242240, Note_on_c, 4, 45, 0
6, 1242240, Note_on_c, 4, 43, 100
6, 1242480, Note_on_c, 4, 43, 0
6, 1242480, Note_on_c, 4, 40, 100
6, 1242720, Note_on_c, 4, 40, 0
6, 1242720, Note_on_c, 4, 43, 100
6, 1242960, Note_on_c, 4, 43, 0
6, 1242960, Note_on_c, 4, 47, 100
6, 1243200, Note_on_c, 4, 47, 0
6, 1243200, Note_on_c, 4, 43, 100
6, 1243440, Note_on_c, 4, 43, 0
6, 1243440, Note_on_c, 4, 40, 100
6, 1243680, Note_on_c, 4, 40, 0
6, 1243680, Note_on_c, 4, 45, 100
6, 1243920, Note_on_c, 4, 45, 0
6, 1243920, Note_on_c, 4, 33, 100
6, 1244160, Note_on_c, 4, 33, 0
6, 1244160, Note_on_c, 4, 45, 100
6, 1244400, Note_on_c, 4, 45, 0
6, 1244400, Note_on_c, 4, 48, 100
6, 1244640, Note_on_c, 4, 48, 0
6, 1244640, Note_on_c, 4, 47, 100
6, 1244880, Note_on_c, 4, 47, 0
6, 1244880, Note_on_c, 4, 45, 100
6, 1245120, Note_on_c, 4, 45, 0
6, 1245120, Note_on_c, 4, 47, 100
6, 1245360, Note_on_c, 4, 47, 0
6, 1245360, Note_on_c, 4, 51, 100
6, 1245600, Note_on_c, 4, 51, 0
6, 1245600, Note_on_c, 4, 54, 100
6, 1245840, Note_on_c, 4, 54, 0
6, 1245840, Note_on_c, 4, 59, 100
6, 1246080, Note_on_c, 4, 59, 0
6, 1246080, Note_on_c, 4, 47, 100
6, 1246320, Note_on_c, 4, 47, 0
6, 1246320, Note_on_c, 4, 64, 100
6, 1246440, Note_on_c, 4, 64, 0
6, 1246440, Note_on_c, 4, 63, 100
6, 1246560, Note_on_c, 4, 63, 0
6, 1246560, Note_on_c, 4, 64, 100
6, 1246800, Note_on_c, 4, 64, 0
6, 1246800, Note_on_c, 4, 67, 100
6, 1247040, Note_on_c, 4, 67, 0
6, 1247040, Note_on_c, 4, 71, 100
6, 1247280, Note_on_c, 4, 71, 0
6, 1247280, Note_on_c, 4, 76, 100
6, 1247400, Note_on_c, 4, 76, 0
6, 1247400, Note_on_c, 4, 75, 100
6, 1247520, Note_on_c, 4, 75, 0
6, 1247520, Note_on_c, 4, 76, 100
6, 1247760, Note_on_c, 4, 76, 0
6, 1248120, Note_on_c, 4, 48, 100
6, 1248180, Note_on_c, 4, 48, 0
6, 1248180, Note_on_c, 4, 47, 100
6, 1248240, Note_on_c, 4, 47, 0
6, 1248240, Note_on_c, 4, 48, 100
6, 1248360, Note_on_c, 4, 48, 0
6, 1248600, Note_on_c, 4, 57, 100
6, 1248660, Note_on_c, 4, 57, 0
6, 1248660, Note_on_c, 4, 56, 100
6, 1248720, Note_on_c, 4, 56, 0
6, 1248720, Note_on_c, 4, 57, 100
6, 1248840, Note_on_c, 4, 57, 0
6, 1249080, Note_on_c, 4, 64, 100
6, 1249140, Note_on_c, 4, 64, 0
6, 1249140, Note_on_c, 4, 62, 100
6, 1249200, Note_on_c, 4, 62, 0
6, 1249200, Note_on_c, 4, 64, 100
6, 1249320, Note_on_c, 4, 64, 0
6, 1249560, Note_on_c, 4, 47, 100
6, 1249620, Note_on_c, 4, 47, 0
6, 1249620, Note_on_c, 4, 45, 100
6, 1249680, Note_on_c, 4, 45, 0
6, 1249680, Note_on_c, 4, 47, 100
6, 1249800, Note_on_c, 4, 47, 0
6, 1250040, Note_on_c, 4, 55, 100
6, 1250100, Note_on_c, 4, 55, 0
6, 1250100, Note_on_c, 4, 54, 100
6, 1250160, Note_on_c, 4, 54, 0
6, 1250160, Note_on_c, 4, 55, 100
6, 1250280, Note_on_c, 4, 55, 0
6, 1250520, Note_on_c, 4, 62, 100
6, 1250580, Note_on_c, 4, 62, 0
6, 1250580, Note_on_c, 4, 60, 100
6, 1250640, Note_on_c, 4, 60, 0
6, 1250640, Note_on_c, 4, 62, 100
6, 1250760, Note_on_c, 4, 62, 0
6, 1251000, Note_on_c, 4, 45, 100
6, 1251060, Note_on_c, 4, 45, 0
6, 1251060, Note_on_c, 4, 43, 100
6, 1251120, Note_on_c, 4, 43, 0
6, 1251120, Note_on_c, 4, 45, 100
6, 1251240, Note_on_c, 4, 45, 0
6, 1251480, Note_on_c, 4, 52, 100
6, 1251540, Note_on_c, 4, 52, 0
6, 1251540, Note_on_c, 4, 50, 100
6, 1251600, Note_on_c, 4, 50, 0
6, 1251600, Note_on_c, 4, 52, 100
6, 1251720, Note_on_c, 4, 52, 0
6, 1251960, Note_on_c, 4, 60, 100
6, 1252020, Note_on_c, 4, 60, 0
6, 1252020, Note_on_c, 4, 59, 100
6, 1252080, Note_on_c, 4, 59, 0
6, 1252080, Note_on_c, 4, 60, 100
6, 1252200, Note_on_c, 4, 60, 0
6, 1252440, Note_on_c, 4, 69, 100
6, 1252500, Note_on_c, 4, 69, 0
6, 1252500, Note_on_c, 4, 67, 100
6, 1252560, Note_on_c, 4, 67, 0
6, 1252560, Note_on_c, 4, 69, 100
6, 1252680, Note_on_c, 4, 69, 0
6, 1252920, Note_on_c, 4, 78, 100
6, 1252980, Note_on_c, 4, 78, 0
6, 1252980, Note_on_c, 4, 76, 100
6, 1253040, Note_on_c, 4, 76, 0
6, 1253040, Note_on_c, 4, 78, 100
6, 1253160, Note_on_c, 4, 78, 0
6, 1253400, Note_on_c, 4, 81, 100
6, 1253460, Note_on_c, 4, 81, 0
6, 1253460, Note_on_c, 4, 79, 100
6, 1253520, Note_on_c, 4, 79, 0
6, 1253520, Note_on_c, 4, 81, 100
6, 1253640, Note_on_c, 4, 81, 0
6, 1253820, Note_on_c, 4, 67, 100
6, 1253880, Note_on_c, 4, 67, 0
6, 1253880, Note_on_c, 4, 69, 100
6, 1253940, Note_on_c, 4, 69, 0
6, 1253940, Note_on_c, 4, 71, 100
6, 1254000, Note_on_c, 4, 71, 0
6, 1254000, Note_on_c, 4, 74, 100
6, 1254060, Note_on_c, 4, 74, 0
6, 1254060, Note_on_c, 4, 71, 100
6, 1254120, Note_on_c, 4, 71, 0
6, 1254120, Note_on_c, 4, 69, 100
6, 1254180, Note_on_c, 4, 69, 0
6, 1254180, Note_on_c, 4, 67, 100
6, 1254240, Note_on_c, 4, 67, 0
6, 1254300, Note_on_c, 4, 67, 100
6, 1254360, Note_on_c, 4, 67, 0
6, 1254360, Note_on_c, 4, 69, 100
6, 1254420, Note_on_c, 4, 69, 0
6, 1254420, Note_on_c, 4, 71, 100
6, 1254480, Note_on_c, 4, 71, 0
6, 1254480, Note_on_c, 4, 74, 100
6, 1254540, Note_on_c, 4, 74, 0
6, 1254540, Note_on_c, 4, 71, 100
6, 1254600, Note_on_c, 4, 71, 0
6, 1254600, Note_on_c, 4, 69, 100
6, 1254660, Note_on_c, 4, 69, 0
6, 1254660, Note_on_c, 4, 67, 100
6, 1254720, Note_on_c, 4, 67, 0
6, 1254780, Note_on_c, 4, 67, 100
6, 1254840, Note_on_c, 4, 67, 0
6, 1254840, Note_on_c, 4, 69, 100
6, 1254900, Note_on_c, 4, 69, 0
6, 1254900, Note_on_c, 4, 71, 100
6, 1254960, Note_on_c, 4, 71, 0
6, 1254960, Note_on_c, 4, 74, 100
6, 1255020, Note_on_c, 4, 74, 0
6, 1255020, Note_on_c, 4, 71, 100
6, 1255080, Note_on_c, 4, 71, 0
6, 1255080, Note_on_c, 4, 69, 100
6, 1255140, Note_on_c, 4, 69, 0
6, 1255140, Note_on_c, 4, 67, 100
6, 1255200, Note_on_c, 4, 67, 0
6, 1255200, Note_on_c, 4, 72, 100
6, 1255440, Note_on_c, 4, 72, 0
6, 1255680, Note_on_c, 4, 57, 100
6, 1255920, Note_on_c, 4, 57, 0
6, 1256160, Note_on_c, 4, 52, 100
6, 1256400, Note_on_c, 4, 52, 0
6, 1256640, Note_on_c, 4, 54, 100
6, 1256760, Note_on_c, 4, 54, 0
6, 1256760, Note_on_c, 4, 57, 100
6, 1256820, Note_on_c, 4, 57, 0
6, 1256820, Note_on_c, 4, 55, 100
6, 1256880, Note_on_c, 4, 55, 0
6, 1256880, Note_on_c, 4, 57, 100
6, 1257000, Note_on_c, 4, 57, 0
6, 1257000, Note_on_c, 4, 62, 100
6, 1257060, Note_on_c, 4, 62, 0
6, 1257060, Note_on_c, 4, 60, 100
6, 1257120, Note_on_c, 4, 60, 0
6, 1257120, Note_on_c, 4, 62, 100
6, 1257240, Note_on_c, 4, 62, 0
6, 1257240, Note_on_c, 4, 55, 100
6, 1257300, Note_on_c, 4, 55, 0
6, 1257300, Note_on_c, 4, 54, 100
6, 1257360, Note_on_c, 4, 54, 0
6, 1257360, Note_on_c, 4, 55, 100
6, 1257480, Note_on_c, 4, 55, 0
6, 1257480, Note_on_c, 4, 60, 100
6, 1257540, Note_on_c, 4, 60, 0
6, 1257540, Note_on_c, 4, 59, 100
6, 1257600, Note_on_c, 4, 59, 0
6, 1257600, Note_on_c, 4, 60, 100
6, 1257720, Note_on_c, 4, 60, 0
6, 1257720, Note_on_c, 4, 54, 100
6, 1257780, Note_on_c, 4, 54, 0
6, 1257780, Note_on_c, 4, 52, 100
6, 1257840, Note_on_c, 4, 52, 0
6, 1257840, Note_on_c, 4, 54, 100
6, 1257960, Note_on_c, 4, 54, 0
6, 1257960, Note_on_c, 4, 59, 100
6, 1258020, Note_on_c, 4, 59, 0
6, 1258020, Note_on_c, 4, 57, 100
6, 1258080, Note_on_c, 4, 57, 0
6, 1258080, Note_on_c, 4, 59, 100
6, 1258200, Note_on_c, 4, 59, 0
6, 1258200, Note_on_c, 4, 55, 100
6, 1258320, Note_on_c, 4, 55, 0
6, 1258320, Note_on_c, 4, 54, 100
6, 1258440, Note_on_c, 4, 54, 0
6, 1258440, Note_on_c, 4, 55, 100
6, 1258560, Note_on_c, 4, 55, 0
6, 1258560, Note_on_c, 4, 59, 100
6, 1258620, Note_on_c, 4, 59, 0
6, 1258620, Note_on_c, 4, 57, 100
6, 1258680, Note_on_c, 4, 57, 0
6, 1258680, Note_on_c, 4, 55, 100
6, 1258800, Note_on_c, 4, 55, 0
6, 1258800, Note_on_c, 4, 62, 100
6, 1258860, Note_on_c, 4, 62, 0
6, 1258860, Note_on_c, 4, 60, 100
6, 1258920, Note_on_c, 4, 60, 0
6, 1258920, Note_on_c, 4, 59, 100
6, 1259040, Note_on_c, 4, 59, 0
6, 1259040, Note_on_c, 4, 67, 100
6, 1259280, Note_on_c, 4, 67, 0
6, 1320960, Note_on_c, 4, 55, 100
6, 1321440, Note_on_c, 4, 55, 0
6, 1322760, Note_on_c, 4, 59, 100
6, 1322880, Note_on_c, 4, 59, 0
6, 1322880, Note_on_c, 4, 57, 100
6, 1323360, Note_on_c, 4, 57, 0
6, 1332450, Note_on_c, 4, 71, 100
6, 1332960, Note_on_c, 4, 71, 0
6, 1344960, Note_on_c, 4, 66, 100
6, 1345440, Note_on_c, 4, 66, 0
6, 1346760, Note_on_c, 4, 59, 100
6, 1346880, Note_on_c, 4, 59, 0
6, 1346880, Note_on_c, 4, 61, 100
6, 1347360, Note_on_c, 4, 61, 0
6, 1349760, Note_on_c, 4, 69, 100
6, 1351680, Note_on_c, 4, 69, 0
6, 1351680, Note_on_c, 4, 55, 100
6, 1352160, Note_on_c, 4, 55, 0
6, 1353480, Note_on_c, 4, 59, 100
6, 1353600, Note_on_c, 4, 59, 0
6, 1353600, Note_on_c, 4, 57, 100
6, 1354080, Note_on_c, 4, 57, 0
6, 1363170, Note_on_c, 4, 71, 100
6, 1363680, Note_on_c, 4, 71, 0
6, 1375680, Note_on_c, 4, 66, 100
6, 1376160, Note_on_c, 4, 66, 0
6, 1377480, Note_on_c, 4, 59, 100
6, 1377600, Note_on_c, 4, 59, 0
6, 1377600, Note_on_c, 4, 61, 100
6, 1378080, Note_on_c, 4, 61, 0
6, 1383600, Note_on_c, 4, 69, 100
6, 1383720, Note_on_c, 4, 69, 0
6, 1383720, Note_on_c, 4, 67, 100
6, 1383840, Note_on_c, 4, 67, 0
6, 1383840, Note_on_c, 4, 66, 100
6, 1383960, Note_on_c, 4, 66, 0
6, 1383960, Note_on_c, 4, 64, 100
6, 1384080, Note_on_c, 4, 64, 0
6, 1384080, Note_on_c, 4, 66, 100
6, 1384320, Note_on_c, 4, 66, 0
6, 1384320, Note_on_c, 4, 67, 100
6, 1384560, Note_on_c, 4, 67, 0
6, 1384560, Note_on_c, 4, 69, 100
6, 1384800, Note_on_c, 4, 69, 0
6, 1384800, Note_on_c, 4, 63, 100
6, 1384920, Note_on_c, 4, 63, 0
6, 1384920, Note_on_c, 4, 66, 100
6, 1385040, Note_on_c, 4, 66, 0
6, 1385040, Note_on_c, 4, 64, 100
6, 1385160, Note_on_c, 4, 64, 0
6, 1385160, Note_on_c, 4, 67, 100
6, 1385280, Note_on_c, 4, 67, 0
6, 1385280, Note_on_c, 4, 66, 100
6, 1385400, Note_on_c, 4, 66, 0
6, 1385400, Note_on_c, 4, 69, 100
6, 1385520, Note_on_c, 4, 69, 0
6, 1385520, Note_on_c, 4, 67, 100
6, 1385760, Note_on_c, 4, 67, 0
6, 1385760, Note_on_c, 4, 66, 100
6, 1386000, Note_on_c, 4, 66, 0
6, 1386480, Note_on_c, 4, 64, 100
6, 1386720, Note_on_c, 4, 64, 0
6, 1386720, Note_on_c, 4, 63, 100
6, 1386960, Note_on_c, 4, 63, 0
6, 1386960, Note_on_c, 4, 64, 100
6, 1388160, Note_on_c, 4, 64, 0
6, 1391520, Note_on_c, 4, 64, 100
6, 1391640, Note_on_c, 4, 64, 0
6, 1391640, Note_on_c, 4, 62, 100
6, 1391760, Note_on_c, 4, 62, 0
6, 1391760, Note_on_c, 4, 60, 100
6, 1391880, Note_on_c, 4, 60, 0
6, 1391880, Note_on_c, 4, 59, 100
6, 1392000, Note_on_c, 4, 59, 0
6, 1392000, Note_on_c, 4, 60, 100
6, 1392240, Note_on_c, 4, 60, 0
6, 1392240, Note_on_c, 4, 62, 100
6, 1392480, Note_on_c, 4, 62, 0
6, 1392480, Note_on_c, 4, 64, 100
6, 1392720, Note_on_c, 4, 64, 0
6, 1392720, Note_on_c, 4, 57, 100
6, 1392840, Note_on_c, 4, 57, 0
6, 1392840, Note_on_c, 4, 60, 100
6, 1392960, Note_on_c, 4, 60, 0
6, 1392960, Note_on_c, 4, 59, 100
6, 1393080, Note_on_c, 4, 59, 0
6, 1393080, Note_on_c, 4, 62, 100
6, 1393200, Note_on_c, 4, 62, 0
6, 1393200, Note_on_c, 4, 61, 100
6, 1393320, Note_on_c, 4, 61, 0
6, 1393320, Note_on_c, 4, 64, 100
6, 1393440, Note_on_c, 4, 64, 0
6, 1393440, Note_on_c, 4, 62, 100
6, 1394400, Note_on_c, 4, 62, 0
6, 1395120, Note_on_c, 4, 55, 100
6, 1395360, Note_on_c, 4, 55, 0
6, 1395360, Note_on_c, 4, 54, 100
6, 1395600, Note_on_c, 4, 54, 0
6, 1395600, Note_on_c, 4, 55, 100
6, 1396560, Note_on_c, 4, 55, 0
6, 1406640, Note_on_c, 4, 69, 100
6, 1406760, Note_on_c, 4, 69, 0
6, 1406760, Note_on_c, 4, 67, 100
6, 1406880, Note_on_c, 4, 67, 0
6, 1406880, Note_on_c, 4, 66, 100
6, 1407000, Note_on_c, 4, 66, 0
6, 1407000, Note_on_c, 4, 64, 100
6, 1407120, Note_on_c, 4, 64, 0
6, 1407120, Note_on_c, 4, 66, 100
6, 1407360, Note_on_c, 4, 66, 0
6, 1407360, Note_on_c, 4, 67, 100
6, 1407600, Note_on_c, 4, 67, 0
6, 1407600, Note_on_c, 4, 69, 100
6, 1407840, Note_on_c, 4, 69, 0
6, 1407840, Note_on_c, 4, 63, 100
6, 1407960, Note_on_c, 4, 63, 0
6, 1407960, Note_on_c, 4, 66, 100
6, 1408080, Note_on_c, 4, 66, 0
6, 1408080, Note_on_c, 4, 64, 100
6, 1408200, Note_on_c, 4, 64, 0
6, 1408200, Note_on_c, 4, 67, 100
6, 1408320, Note_on_c, 4, 67, 0
6, 1408320, Note_on_c, 4, 66, 100
6, 1408440, Note_on_c, 4, 66, 0
6, 1408440, Note_on_c, 4, 69, 100
6, 1408560, Note_on_c, 4, 69, 0
6, 1408560, Note_on_c, 4, 67, 100
6, 1408800, Note_on_c, 4, 67, 0
6, 1408800, Note_on_c, 4, 66, 100
6, 1409040, Note_on_c, 4, 66, 0
6, 1409520, Note_on_c, 4, 64, 100
6, 1409760, Note_on_c, 4, 64, 0
6, 1409760, Note_on_c, 4, 63, 100
6, 1410000, Note_on_c, 4, 63, 0
6, 1410000, Note_on_c, 4, 64, 100
6, 1411200, Note_on_c, 4, 64, 0
6, 1414560, Note_on_c, 4, 64, 100
6, 1414680, Note_on_c, 4, 64, 0
6, 1414680, Note_on_c, 4, 62, 100
6, 1414800, Note_on_c, 4, 62, 0
6, 1414800, Note_on_c, 4, 60, 100
6, 1414920, Note_on_c, 4, 60, 0
6, 1414920, Note_on_c, 4, 59, 100
6, 1415040, Note_on_c, 4, 59, 0
6, 1415040, Note_on_c, 4, 60, 100
6, 1415280, Note_on_c, 4, 60, 0
6, 1415280, Note_on_c, 4, 62, 100
6, 1415520, Note_on_c, 4, 62, 0
6, 1415520, Note_on_c, 4, 64, 100
6, 1415760, Note_on_c, 4, 64, 0
6, 1415760, Note_on_c, 4, 57, 100
6, 1415880, Note_on_c, 4, 57, 0
6, 1415880, Note_on_c, 4, 60, 100
6, 1416000, Note_on_c, 4, 60, 0
6, 1416000, Note_on_c, 4, 59, 100
6, 1416120, Note_on_c, 4, 59, 0
6, 1416120, Note_on_c, 4, 62, 100
6, 1416240, Note_on_c, 4, 62, 0
6, 1416240, Note_on_c, 4, 61, 100
6, 1416360, Note_on_c, 4, 61, 0
6, 1416360, Note_on_c, 4, 64, 100
6, 1416480, Note_on_c, 4, 64, 0
6, 1416480, Note_on_c, 4, 62, 100
6, 1417440, Note_on_c, 4, 62, 0
6, 1418160, Note_on_c, 4, 55, 100
6, 1418400, Note_on_c, 4, 55, 0
6, 1418400, Note_on_c, 4, 54, 100
6, 1418640, Note_on_c, 4, 54, 0
6, 1418640, Note_on_c, 4, 55, 100
6, 1419600, Note_on_c, 4, 55, 0
6, 1425840, Note_on_c, 4, 59, 100
6, 1427760, Note_on_c, 4, 59, 0
6, 1427760, Note_on_c, 4, 43, 100
6, 1427880, Note_on_c, 4, 43, 0
6, 1427880, Note_on_c, 4, 47, 100
6, 1428000, Note_on_c, 4, 47, 0
6, 1428000, Note_on_c, 4, 45, 100
6, 1428120, Note_on_c, 4, 45, 0
6, 1428120, Note_on_c, 4, 48, 100
6, 1428240, Note_on_c, 4, 48, 0
6, 1428240, Note_on_c, 4, 47, 100
6, 1428360, Note_on_c, 4, 47, 0
6, 1428360, Note_on_c, 4, 50, 100
6, 1428480, Note_on_c, 4, 50, 0
6, 1428480, Note_on_c, 4, 48, 100
6, 1428600, Note_on_c, 4, 48, 0
6, 1428600, Note_on_c, 4, 52, 100
6, 1428720, Note_on_c, 4, 52, 0
6, 1428720, Note_on_c, 4, 50, 100
6, 1428840, Note_on_c, 4, 50, 0
6, 1428840, Note_on_c, 4, 54, 100
6, 1428960, Note_on_c, 4, 54, 0
6, 1428960, Note_on_c, 4, 52, 100
6, 1429080, Note_on_c, 4, 52, 0
6, 1429080, Note_on_c, 4, 55, 100
6, 1429200, Note_on_c, 4, 55, 0
6, 1429200, Note_on_c, 4, 54, 100
6, 1429320, Note_on_c, 4, 54, 0
6, 1429320, Note_on_c, 4, 57, 100
6, 1429440, Note_on_c, 4, 57, 0
6, 1429440, Note_on_c, 4, 55, 100
6, 1429560, Note_on_c, 4, 55, 0
6, 1429560, Note_on_c, 4, 59, 100
6, 1429680, Note_on_c, 4, 59, 0
6, 1429680, Note_on_c, 4, 57, 100
6, 1429800, Note_on_c, 4, 57, 0
6, 1429800, Note_on_c, 4, 61, 100
6, 1429920, Note_on_c, 4, 61, 0
6, 1429920, Note_on_c, 4, 59, 100
6, 1430040, Note_on_c, 4, 59, 0
6, 1430040, Note_on_c, 4, 62, 100
6, 1430160, Note_on_c, 4, 62, 0
6, 1430160, Note_on_c, 4, 61, 100
6, 1430280, Note_on_c, 4, 61, 0
6, 1430280, Note_on_c, 4, 64, 100
6, 1430400, Note_on_c, 4, 64, 0
6, 1430400, Note_on_c, 4, 62, 100
6, 1430520, Note_on_c, 4, 62, 0
6, 1430520, Note_on_c, 4, 66, 100
6, 1430640, Note_on_c, 4, 66, 0
6, 1430640, Note_on_c, 4, 64, 100
6, 1430760, Note_on_c, 4, 64, 0
6, 1430760, Note_on_c, 4, 67, 100
6, 1430880, Note_on_c, 4, 67, 0
6, 1430880, Note_on_c, 4, 66, 100
6, 1431000, Note_on_c, 4, 66, 0
6, 1431000, Note_on_c, 4, 69, 100
6, 1431120, Note_on_c, 4, 69, 0
6, 1431120, Note_on_c, 4, 67, 100
6, 1431240, Note_on_c, 4, 67, 0
6, 1431240, Note_on_c, 4, 71, 100
6, 1431360, Note_on_c, 4, 71, 0
6, 1431360, Note_on_c, 4, 69, 100
6, 1431480, Note_on_c, 4, 69, 0
6, 1431480, Note_on_c, 4, 73, 100
6, 1431600, Note_on_c, 4, 73, 0
6, 1431600, Note_on_c, 4, 71, 100
6, 1431720, Note_on_c, 4, 71, 0
6, 1431720, Note_on_c, 4, 74, 100
6, 1431840, Note_on_c, 4, 74, 0
6, 1431840, Note_on_c, 4, 73, 100
6, 1431960, Note_on_c, 4, 73, 0
6, 1431960, Note_on_c, 4, 76, 100
6, 1432080, Note_on_c, 4, 76, 0
6, 1432080, Note_on_c, 4, 74, 100
6, 1432200, Note_on_c, 4, 74, 0
6, 1432200, Note_on_c, 4, 73, 100
6, 1432320, Note_on_c, 4, 73, 0
6, 1432320, Note_on_c, 4, 74, 100
6, 1432440, Note_on_c, 4, 74, 0
6, 1432440, Note_on_c, 4, 73, 100
6, 1432560, Note_on_c, 4, 73, 0
6, 1432560, Note_on_c, 4, 74, 100
6, 1433640, Note_on_c, 4, 74, 0
6, 1433640, Note_on_c, 4, 71, 100
6, 1433760, Note_on_c, 4, 71, 0
6, 1433760, Note_on_c, 4, 72, 100
6, 1433880, Note_on_c, 4, 72, 0
6, 1433880, Note_on_c, 4, 69, 100
6, 1434000, Note_on_c, 4, 69, 0
6, 1434000, Note_on_c, 4, 71, 100
6, 1434120, Note_on_c, 4, 71, 0
6, 1434120, Note_on_c, 4, 67, 100
6, 1434240, Note_on_c, 4, 67, 0
6, 1434240, Note_on_c, 4, 69, 100
6, 1434360, Note_on_c, 4, 69, 0
6, 1434360, Note_on_c, 4, 65, 100
6, 1434480, Note_on_c, 4, 65, 0
6, 1434480, Note_on_c, 4, 67, 100
6, 1434600, Note_on_c, 4, 67, 0
6, 1434600, Note_on_c, 4, 64, 100
6, 1434720, Note_on_c, 4, 64, 0
6, 1434720, Note_on_c, 4, 65, 100
6, 1434840, Note_on_c, 4, 65, 0
6, 1434840, Note_on_c, 4, 62, 100
6, 1434960, Note_on_c, 4, 62, 0
6, 1434960, Note_on_c, 4, 64, 100
6, 1435080, Note_on_c, 4, 64, 0
6, 1435080, Note_on_c, 4, 60, 100
6, 1435200, Note_on_c, 4, 60, 0
6, 1435200, Note_on_c, 4, 62, 100
6, 1435320, Note_on_c, 4, 62, 0
6, 1435320, Note_on_c, 4, 59, 100
6, 1435440, Note_on_c, 4, 59, 0
6, 1435440, Note_on_c, 4, 60, 100
6, 1435560, Note_on_c, 4, 60, 0
6, 1435560, Note_on_c, 4, 57, 100
6, 1435680, Note_on_c, 4, 57, 0
6, 1435680, Note_on_c, 4, 59, 100
6, 1435800, Note_on_c, 4, 59, 0
6, 1435800, Note_on_c, 4, 55, 100
6, 1435920, Note_on_c, 4, 55, 0
6, 1435920, Note_on_c, 4, 57, 100
6, 1436040, Note_on_c, 4, 57, 0
6, 1436040, Note_on_c, 4, 54, 100
6, 1436160, Note_on_c, 4, 54, 0
6, 1436160, Note_on_c, 4, 55, 100
6, 1436280, Note_on_c, 4, 55, 0
6, 1436280, Note_on_c, 4, 52, 100
6, 1436400, Note_on_c, 4, 52, 0
6, 1436400, Note_on_c, 4, 54, 100
6, 1436520, Note_on_c, 4, 54, 0
6, 1436520, Note_on_c, 4, 50, 100
6, 1436640, Note_on_c, 4, 50, 0
6, 1436640, Note_on_c, 4, 52, 100
6, 1436760, Note_on_c, 4, 52, 0
6, 1436760, Note_on_c, 4, 48, 100
6, 1436880, Note_on_c, 4, 48, 0
6, 1436880, Note_on_c, 4, 50, 100
6, 1437000, Note_on_c, 4, 50, 0
6, 1437000, Note_on_c, 4, 47, 100
6, 1437120, Note_on_c, 4, 47, 0
6, 1437120, Note_on_c, 4, 48, 100
6, 1437240, Note_on_c, 4, 48, 0
6, 1437240, Note_on_c, 4, 45, 100
6, 1437360, Note_on_c, 4, 45, 0
6, 1437360, Note_on_c, 4, 47, 100
6, 1437480, Note_on_c, 4, 47, 0
6, 1437480, Note_on_c, 4, 43, 100
6, 1437600, Note_on_c, 4, 43, 0
6, 1437600, Note_on_c, 4, 45, 100
6, 1437720, Note_on_c, 4, 45, 0
6, 1437720, Note_on_c, 4, 42, 100
6, 1437840, Note_on_c, 4, 42, 0
6, 1437840, Note_on_c, 4, 43, 100
6, 1437960, Note_on_c, 4, 43, 0
6, 1437960, Note_on_c, 4, 42, 100
6, 1438080, Note_on_c, 4, 42, 0
6, 1438080, Note_on_c, 4, 43, 100
6, 1438200, Note_on_c, 4, 43, 0
6, 1438200, Note_on_c, 4, 42, 100
6, 1438320, Note_on_c, 4, 42, 0
6, 1438320, Note_on_c, 4, 43, 100
6, 1438920, Note_on_c, 4, 43, 0
6, 1438920, Note_on_c, 4, 50, 100
6, 1439040, Note_on_c, 4, 50, 0
6, 1439040, Note_on_c, 4, 55, 100
6, 1439160, Note_on_c, 4, 55, 0
6, 1439160, Note_on_c, 4, 54, 100
6, 1439280, Note_on_c, 4, 54, 0
6, 1439280, Note_on_c, 4, 55, 100
6, 1439400, Note_on_c, 4, 55, 0
6, 1439400, Note_on_c, 4, 59, 100
6, 1439520, Note_on_c, 4, 59, 0
6, 1439520, Note_on_c, 4, 62, 100
6, 1439640, Note_on_c, 4, 62, 0
6, 1439640, Note_on_c, 4, 66, 100
6, 1439760, Note_on_c, 4, 66, 0
6, 1439760, Note_on_c, 4, 67, 100
6, 1440120, Note_on_c, 4, 67, 0
6, 1440120, Note_on_c, 4, 69, 100
6, 1440240, Note_on_c, 4, 69, 0
6, 1440240, Note_on_c, 4, 71, 100
6, 1440360, Note_on_c, 4, 71, 0
6, 1440360, Note_on_c, 4, 73, 100
6, 1440480, Note_on_c, 4, 73, 0
6, 1440480, Note_on_c, 4, 74, 100
6, 1440600, Note_on_c, 4, 74, 0
6, 1440600, Note_on_c, 4, 71, 100
6, 1440720, Note_on_c, 4, 71, 0
6, 1440720, Note_on_c, 4, 73, 100
6, 1440840, Note_on_c, 4, 73, 0
6, 1440840, Note_on_c, 4, 71, 100
6, 1440960, Note_on_c, 4, 71, 0
6, 1440960, Note_on_c, 4, 69, 100
6, 1441080, Note_on_c, 4, 69, 0
6, 1441080, Note_on_c, 4, 67, 100
6, 1441200, Note_on_c, 4, 67, 0
6, 1441200, Note_on_c, 4, 66, 100
6, 1441320, Note_on_c, 4, 66, 0
6, 1441320, Note_on_c, 4, 64, 100
6, 1441440, Note_on_c, 4, 64, 0
6, 1441440, Note_on_c, 4, 63, 100
6, 1441560, Note_on_c, 4, 63, 0
6, 1441560, Note_on_c, 4, 61, 100
6, 1441680, Note_on_c, 4, 61, 0
6, 1441680, Note_on_c, 4, 59, 100
6, 1441800, Note_on_c, 4, 59, 0
6, 1441800, Note_on_c, 4, 57, 100
6, 1441920, Note_on_c, 4, 57, 0
6, 1441920, Note_on_c, 4, 55, 100
6, 1442040, Note_on_c, 4, 55, 0
6, 1442040, Note_on_c, 4, 54, 100
6, 1442160, Note_on_c, 4, 54, 0
6, 1442160, Note_on_c, 4, 52, 100
6, 1442280, Note_on_c, 4, 52, 0
6, 1442280, Note_on_c, 4, 55, 100
6, 1442400, Note_on_c, 4, 55, 0
6, 1442400, Note_on_c, 4, 59, 100
6, 1442520, Note_on_c, 4, 59, 0
6, 1442520, Note_on_c, 4, 63, 100
6, 1442640, Note_on_c, 4, 63, 0
6, 1442640, Note_on_c, 4, 64, 100
6, 1443000, Note_on_c, 4, 64, 0
6, 1443000, Note_on_c, 4, 66, 100
6, 1443120, Note_on_c, 4, 66, 0
6, 1443120, Note_on_c, 4, 67, 100
6, 1443240, Note_on_c, 4, 67, 0
6, 1443240, Note_on_c, 4, 69, 100
6, 1443360, Note_on_c, 4, 69, 0
6, 1443360, Note_on_c, 4, 71, 100
6, 1443480, Note_on_c, 4, 71, 0
6, 1443480, Note_on_c, 4, 67, 100
6, 1443600, Note_on_c, 4, 67, 0
6, 1443600, Note_on_c, 4, 69, 100
6, 1443720, Note_on_c, 4, 69, 0
6, 1443720, Note_on_c, 4, 62, 100
6, 1443840, Note_on_c, 4, 62, 0
6, 1443840, Note_on_c, 4, 61, 100
6, 1443960, Note_on_c, 4, 61, 0
6, 1443960, Note_on_c, 4, 59, 100
6, 1444080, Note_on_c, 4, 59, 0
6, 1444080, Note_on_c, 4, 61, 100
6, 1444200, Note_on_c, 4, 61, 0
6, 1444200, Note_on_c, 4, 64, 100
6, 1444320, Note_on_c, 4, 64, 0
6, 1444320, Note_on_c, 4, 69, 100
6, 1444440, Note_on_c, 4, 69, 0
6, 1444440, Note_on_c, 4, 71, 100
6, 1444560, Note_on_c, 4, 71, 0
6, 1444560, Note_on_c, 4, 73, 100
6, 1444680, Note_on_c, 4, 73, 0
6, 1444680, Note_on_c, 4, 76, 100
6, 1444800, Note_on_c, 4, 76, 0
6, 1444800, Note_on_c, 4, 79, 100
6, 1444920, Note_on_c, 4, 79, 0
6, 1444920, Note_on_c, 4, 71, 100
6, 1445040, Note_on_c, 4, 71, 0
6, 1445040, Note_on_c, 4, 69, 100
6, 1445160, Note_on_c, 4, 69, 0
6, 1445160, Note_on_c, 4, 78, 100
6, 1445280, Note_on_c, 4, 78, 0
6, 1445280, Note_on_c, 4, 67, 100
6, 1445400, Note_on_c, 4, 67, 0
6, 1445400, Note_on_c, 4, 76, 100
6, 1445520, Note_on_c, 4, 76, 0
6, 1445520, Note_on_c, 4, 66, 100
6, 1445640, Note_on_c, 4, 66, 0
6, 1445640, Note_on_c, 4, 74, 100
6, 1445760, Note_on_c, 4, 74, 0
6, 1445760, Note_on_c, 4, 64, 100
6, 1445880, Note_on_c, 4, 64, 0
6, 1445880, Note_on_c, 4, 72, 100
6, 1446000, Note_on_c, 4, 72, 0
6, 1446000, Note_on_c, 4, 62, 100
6, 1446120, Note_on_c, 4, 62, 0
6, 1446120, Note_on_c, 4, 71, 100
6, 1446240, Note_on_c, 4, 71, 0
6, 1446240, Note_on_c, 4, 60, 100
6, 1446360, Note_on_c, 4, 60, 0
6, 1446360, Note_on_c, 4, 69, 100
6, 1446480, Note_on_c, 4, 69, 0
6, 1446480, Note_on_c, 4, 59, 100
6, 1446600, Note_on_c, 4, 59, 0
6, 1446600, Note_on_c, 4, 67, 100
6, 1446720, Note_on_c, 4, 67, 0
6, 1446720, Note_on_c, 4, 57, 100
6, 1446840, Note_on_c, 4, 57, 0
6, 1446840, Note_on_c, 4, 66, 100
6, 1446960, Note_on_c, 4, 66, 0
6, 1446960, Note_on_c, 4, 55, 100
6, 1447080, Note_on_c, 4, 55, 0
6, 1447080, Note_on_c, 4, 64, 100
6, 1447200, Note_on_c, 4, 64, 0
6, 1447200, Note_on_c, 4, 54, 100
6, 1447320, Note_on_c, 4, 54, 0
6, 1447320, Note_on_c, 4, 62, 100
6, 1447440, Note_on_c, 4, 62, 0
6, 1447440, Note_on_c, 4, 52, 100
6, 1447560, Note_on_c, 4, 52, 0
6, 1447560, Note_on_c, 4, 61, 100
6, 1447680, Note_on_c, 4, 61, 0
6, 1447680, Note_on_c, 4, 50, 100
6, 1447800, Note_on_c, 4, 50, 0
6, 1447800, Note_on_c, 4, 59, 100
6, 1447920, Note_on_c, 4, 59, 0
6, 1447920, Note_on_c, 4, 49, 100
6, 1448040, Note_on_c, 4, 49, 0
6, 1448040, Note_on_c, 4, 57, 100
6, 1448160, Note_on_c, 4, 57, 0
6, 1448160, Note_on_c, 4, 47, 100
6, 1448280, Note_on_c, 4, 47, 0
6, 1448280, Note_on_c, 4, 55, 100
6, 1448400, Note_on_c, 4, 55, 0
6, 1448400, Note_on_c, 4, 45, 100
6, 1448520, Note_on_c, 4, 45, 0
6, 1448520, Note_on_c, 4, 54, 100
6, 1448640, Note_on_c, 4, 54, 0
6, 1448640, Note_on_c, 4, 43, 100
6, 1448760, Note_on_c, 4, 43, 0
6, 1448760, Note_on_c, 4, 52, 100
6, 1448880, Note_on_c, 4, 52, 0
6, 1448880, Note_on_c, 4, 42, 100
6, 1449000, Note_on_c, 4, 42, 0
6, 1449000, Note_on_c, 4, 50, 100
6, 1449120, Note_on_c, 4, 50, 0
6, 1449120, Note_on_c, 4, 40, 100
6, 1449240, Note_on_c, 4, 40, 0
6, 1449240, Note_on_c, 4, 49, 100
6, 1449360, Note_on_c, 4, 49, 0
6, 1449360, Note_on_c, 4, 50, 100
6, 1449480, Note_on_c, 4, 50, 0
6, 1449480, Note_on_c, 4, 49, 100
6, 1449600, Note_on_c, 4, 49, 0
6, 1449600, Note_on_c, 4, 50, 100
6, 1449720, Note_on_c, 4, 50, 0
6, 1449720, Note_on_c, 4, 49, 100
6, 1449840, Note_on_c, 4, 49, 0
6, 1449840, Note_on_c, 4, 50, 100
6, 1449960, Note_on_c, 4, 50, 0
6, 1449960, Note_on_c, 4, 45, 100
6, 1450080, Note_on_c, 4, 45, 0
6, 1450080, Note_on_c, 4, 42, 100
6, 1450200, Note_on_c, 4, 42, 0
6, 1450200, Note_on_c, 4, 45, 100
6, 1450320, Note_on_c, 4, 45, 0
6, 1450320, Note_on_c, 4, 38, 100
6, 1450560, Note_on_c, 4, 38, 0
6, 1450800, Note_on_c, 4, 43, 100
6, 1450920, Note_on_c, 4, 43, 0
6, 1450920, Note_on_c, 4, 47, 100
6, 1451040, Note_on_c, 4, 47, 0
6, 1451040, Note_on_c, 4, 45, 100
6, 1451160, Note_on_c, 4, 45, 0
6, 1451160, Note_on_c, 4, 48, 100
6, 1451280, Note_on_c, 4, 48, 0
6, 1451280, Note_on_c, 4, 47, 100
6, 1451400, Note_on_c, 4, 47, 0
6, 1451400, Note_on_c, 4, 50, 100
6, 1451520, Note_on_c, 4, 50, 0
6, 1451520, Note_on_c, 4, 48, 100
6, 1451640, Note_on_c, 4, 48, 0
6, 1451640, Note_on_c, 4, 52, 100
6, 1451760, Note_on_c, 4, 52, 0
6, 1451760, Note_on_c, 4, 50, 100
6, 1451880, Note_on_c, 4, 50, 0
6, 1451880, Note_on_c, 4, 54, 100
6, 1452000, Note_on_c, 4, 54, 0
6, 1452000, Note_on_c, 4, 52, 100
6, 1452120, Note_on_c, 4, 52, 0
6, 1452120, Note_on_c, 4, 55, 100
6, 1452240, Note_on_c, 4, 55, 0
6, 1452240, Note_on_c, 4, 54, 100
6, 1452360, Note_on_c, 4, 54, 0
6, 1452360, Note_on_c, 4, 57, 100
6, 1452480, Note_on_c, 4, 57, 0
6, 1452480, Note_on_c, 4, 55, 100
6, 1452600, Note_on_c, 4, 55, 0
6, 1452600, Note_on_c, 4, 59, 100
6, 1452720, Note_on_c, 4, 59, 0
6, 1452720, Note_on_c, 4, 57, 100
6, 1452840, Note_on_c, 4, 57, 0
6, 1452840, Note_on_c, 4, 61, 100
6, 1452960, Note_on_c, 4, 61, 0
6, 1452960, Note_on_c, 4, 59, 100
6, 1453080, Note_on_c, 4, 59, 0
6, 1453080, Note_on_c, 4, 62, 100
6, 1453200, Note_on_c, 4, 62, 0
6, 1453200, Note_on_c, 4, 61, 100
6, 1453320, Note_on_c, 4, 61, 0
6, 1453320, Note_on_c, 4, 64, 100
6, 1453440, Note_on_c, 4, 64, 0
6, 1453440, Note_on_c, 4, 62, 100
6, 1453560, Note_on_c, 4, 62, 0
6, 1453560, Note_on_c, 4, 66, 100
6, 1453680, Note_on_c, 4, 66, 0
6, 1453680, Note_on_c, 4, 64, 100
6, 1453800, Note_on_c, 4, 64, 0
6, 1453800, Note_on_c, 4, 67, 100
6, 1453920, Note_on_c, 4, 67, 0
6, 1453920, Note_on_c, 4, 66, 100
6, 1454040, Note_on_c, 4, 66, 0
6, 1454040, Note_on_c, 4, 69, 100
6, 1454160, Note_on_c, 4, 69, 0
6, 1454160, Note_on_c, 4, 67, 100
6, 1454280, Note_on_c, 4, 67, 0
6, 1454280, Note_on_c, 4, 71, 100
6, 1454400, Note_on_c, 4, 71, 0
6, 1454400, Note_on_c, 4, 69, 100
6, 1454520, Note_on_c, 4, 69, 0
6, 1454520, Note_on_c, 4, 73, 100
6, 1454640, Note_on_c, 4, 73, 0
6, 1454640, Note_on_c, 4, 71, 100
6, 1454760, Note_on_c, 4, 71, 0
6, 1454760, Note_on_c, 4, 74, 100
6, 1454880, Note_on_c, 4, 74, 0
6, 1454880, Note_on_c, 4, 73, 100
6, 1455000, Note_on_c, 4, 73, 0
6, 1455000, Note_on_c, 4, 76, 100
6, 1455120, Note_on_c, 4, 76, 0
6, 1455120, Note_on_c, 4, 74, 100
6, 1455240, Note_on_c, 4, 74, 0
6, 1455240, Note_on_c, 4, 73, 100
6, 1455360, Note_on_c, 4, 73, 0
6, 1455360, Note_on_c, 4, 74, 100
6, 1455480, Note_on_c, 4, 74, 0
6, 1455480, Note_on_c, 4, 73, 100
6, 1455600, Note_on_c, 4, 73, 0
6, 1455600, Note_on_c, 4, 74, 100
6, 1456680, Note_on_c, 4, 74, 0
6, 1456680, Note_on_c, 4, 71, 100
6, 1456800, Note_on_c, 4, 71, 0
6, 1456800, Note_on_c, 4, 72, 100
6, 1456920, Note_on_c, 4, 72, 0
6, 1456920, Note_on_c, 4, 69, 100
6, 1457040, Note_on_c, 4, 69, 0
6, 1457040, Note_on_c, 4, 71, 100
6, 1457160, Note_on_c, 4, 71, 0
6, 1457160, Note_on_c, 4, 67, 100
6, 1457280, Note_on_c, 4, 67, 0
6, 1457280, Note_on_c, 4, 69, 100
6, 1457400, Note_on_c, 4, 69, 0
6, 1457400, Note_on_c, 4, 65, 100
6, 1457520, Note_on_c, 4, 65, 0
6, 1457520, Note_on_c, 4, 67, 100
6, 1457640, Note_on_c, 4, 67, 0
6, 1457640, Note_on_c, 4, 64, 100
6, 1457760, Note_on_c, 4, 64, 0
6, 1457760, Note_on_c, 4, 65, 100
6, 1457880, Note_on_c, 4, 65, 0
6, 1457880, Note_on_c, 4, 62, 100
6, 1458000, Note_on_c, 4, 62, 0
6, 1458000, Note_on_c, 4, 64, 100
6, 1458120, Note_on_c, 4, 64, 0
6, 1458120, Note_on_c, 4, 60, 100
6, 1458240, Note_on_c, 4, 60, 0
6, 1458240, Note_on_c, 4, 62, 100
6, 1458360, Note_on_c, 4, 62, 0
6, 1458360, Note_on_c, 4, 59, 100
6, 1458480, Note_on_c, 4, 59, 0
6, 1458480, Note_on_c, 4, 60, 100
6, 1458600, Note_on_c, 4, 60, 0
6, 1458600, Note_on_c, 4, 57, 100
6, 1458720, Note_on_c, 4, 57, 0
6, 1458720, Note_on_c, 4, 59, 100
6, 1458840, Note_on_c, 4, 59, 0
6, 1458840, Note_on_c, 4, 55, 100
6, 1458960, Note_on_c, 4, 55, 0
6, 1458960, Note_on_c, 4, 57, 100
6, 1459080, Note_on_c, 4, 57, 0
6, 1459080, Note_on_c, 4, 54, 100
6, 1459200, Note_on_c, 4, 54, 0
6, 1459200, Note_on_c, 4, 55, 100
6, 1459320, Note_on_c, 4, 55, 0
6, 1459320, Note_on_c, 4, 52, 100
6, 1459440, Note_on_c, 4, 52, 0
6, 1459440, Note_on_c, 4, 54, 100
6, 1459560, Note_on_c, 4, 54, 0
6, 1459560, Note_on_c, 4, 50, 100
6, 1459680, Note_on_c, 4, 50, 0
6, 1459680, Note_on_c, 4, 52, 100
6, 1459800, Note_on_c, 4, 52, 0
6, 1459800, Note_on_c, 4, 48, 100
6, 1459920, Note_on_c, 4, 48, 0
6, 1459920, Note_on_c, 4, 50, 100
6, 1460040, Note_on_c, 4, 50, 0
6, 1460040, Note_on_c, 4, 47, 100
6, 1460160, Note_on_c, 4, 47, 0
6, 1460160, Note_on_c, 4, 48, 100
6, 1460280, Note_on_c, 4, 48, 0
6, 1460280, Note_on_c, 4, 45, 100
6, 1460400, Note_on_c, 4, 45, 0
6, 1460400, Note_on_c, 4, 47, 100
6, 1460520, Note_on_c, 4, 47, 0
6, 1460520, Note_on_c, 4, 43, 100
6, 1460640, Note_on_c, 4, 43, 0
6, 1460640, Note_on_c, 4, 45, 100
6, 1460760, Note_on_c, 4, 45, 0
6, 1460760, Note_on_c, 4, 42, 100
6, 1460880, Note_on_c, 4, 42, 0
6, 1460880, Note_on_c, 4, 43, 100
6, 1461000, Note_on_c, 4, 43, 0
6, 1461000, Note_on_c, 4, 42, 100
6, 1461120, Note_on_c, 4, 42, 0
6, 1461120, Note_on_c, 4, 43, 100
6, 1461240, Note_on_c, 4, 43, 0
6, 1461240, Note_on_c, 4, 42, 100
6, 1461360, Note_on_c, 4, 42, 0
6, 1461360, Note_on_c, 4, 43, 100
6, 1461960, Note_on_c, 4, 43, 0
6, 1461960, Note_on_c, 4, 50, 100
6, 1462080, Note_on_c, 4, 50, 0
6, 1462080, Note_on_c, 4, 55, 100
6, 1462200, Note_on_c, 4, 55, 0
6, 1462200, Note_on_c, 4, 54, 100
6, 1462320, Note_on_c, 4, 54, 0
6, 1462320, Note_on_c, 4, 55, 100
6, 1462440, Note_on_c, 4, 55, 0
6, 1462440, Note_on_c, 4, 59, 100
6, 1462560, Note_on_c, 4, 59, 0
6, 1462560, Note_on_c, 4, 62, 100
6, 1462680, Note_on_c, 4, 62, 0
6, 1462680, Note_on_c, 4, 66, 100
6, 1462800, Note_on_c, 4, 66, 0
6, 1462800, Note_on_c, 4, 67, 100
6, 1463160, Note_on_c, 4, 67, 0
6, 1463160, Note_on_c, 4, 69, 100
6, 1463280, Note_on_c, 4, 69, 0
6, 1463280, Note_on_c, 4, 71, 100
6, 1463400, Note_on_c, 4, 71, 0
6, 1463400, Note_on_c, 4, 73, 100
6, 1463520, Note_on_c, 4, 73, 0
6, 1463520, Note_on_c, 4, 74, 100
6, 1463640, Note_on_c, 4, 74, 0
6, 1463640, Note_on_c, 4, 71, 100
6, 1463760, Note_on_c, 4, 71, 0
6, 1463760, Note_on_c, 4, 73, 100
6, 1463880, Note_on_c, 4, 73, 0
6, 1463880, Note_on_c, 4, 71, 100
6, 1464000, Note_on_c, 4, 71, 0
6, 1464000, Note_on_c, 4, 69, 100
6, 1464120, Note_on_c, 4, 69, 0
6, 1464120, Note_on_c, 4, 67, 100
6, 1464240, Note_on_c, 4, 67, 0
6, 1464240, Note_on_c, 4, 66, 100
6, 1464360, Note_on_c, 4, 66, 0
6, 1464360, Note_on_c, 4, 64, 100
6, 1464480, Note_on_c, 4, 64, 0
6, 1464480, Note_on_c, 4, 63, 100
6, 1464600, Note_on_c, 4, 63, 0
6, 1464600, Note_on_c, 4, 61, 100
6, 1464720, Note_on_c, 4, 61, 0
6, 1464720, Note_on_c, 4, 59, 100
6, 1464840, Note_on_c, 4, 59, 0
6, 1464840, Note_on_c, 4, 57, 100
6, 1464960, Note_on_c, 4, 57, 0
6, 1464960, Note_on_c, 4, 55, 100
6, 1465080, Note_on_c, 4, 55, 0
6, 1465080, Note_on_c, 4, 54, 100
6, 1465200, Note_on_c, 4, 54, 0
6, 1465200, Note_on_c, 4, 52, 100
6, 1465320, Note_on_c, 4, 52, 0
6, 1465320, Note_on_c, 4, 55, 100
6, 1465440, Note_on_c, 4, 55, 0
6, 1465440, Note_on_c, 4, 59, 100
6, 1465560, Note_on_c, 4, 59, 0
6, 1465560, Note_on_c, 4, 63, 100
6, 1465680, Note_on_c, 4, 63, 0
6, 1465680, Note_on_c, 4, 64, 100
6, 1466040, Note_on_c, 4, 64, 0
6, 1466040, Note_on_c, 4, 66, 100
6, 1466160, Note_on_c, 4, 66, 0
6, 1466160, Note_on_c, 4, 67, 100
6, 1466280, Note_on_c, 4, 67, 0
6, 1466280, Note_on_c, 4, 69, 100
6, 1466400, Note_on_c, 4, 69, 0
6, 1466400, Note_on_c, 4, 71, 100
6, 1466520, Note_on_c, 4, 71, 0
6, 1466520, Note_on_c, 4, 67, 100
6, 1466640, Note_on_c, 4, 67, 0
6, 1466640, Note_on_c, 4, 69, 100
6, 1466760, Note_on_c, 4, 69, 0
6, 1466760, Note_on_c, 4, 62, 100
6, 1466880, Note_on_c, 4, 62, 0
6, 1466880, Note_on_c, 4, 61, 100
6, 1467000, Note_on_c, 4, 61, 0
6, 1467000, Note_on_c, 4, 59, 100
6, 1467120, Note_on_c, 4, 59, 0
6, 1467120, Note_on_c, 4, 61, 100
6, 1467240, Note_on_c, 4, 61, 0
6, 1467240, Note_on_c, 4, 64, 100
6, 1467360, Note_on_c, 4, 64, 0
6, 1467360, Note_on_c, 4, 69, 100
6, 1467480, Note_on_c, 4, 69, 0
6, 1467480, Note_on_c, 4, 71, 100
6, 1467600, Note_on_c, 4, 71, 0
6, 1467600, Note_on_c, 4, 73, 100
6, 1467720, Note_on_c, 4, 73, 0
6, 1467720, Note_on_c, 4, 76, 100
6, 1467840, Note_on_c, 4, 76, 0
6, 1467840, Note_on_c, 4, 79, 100
6, 1467960, Note_on_c, 4, 79, 0
6, 1467960, Note_on_c, 4, 71, 100
6, 1468080, Note_on_c, 4, 71, 0
6, 1468080, Note_on_c, 4, 69, 100
6, 1468200, Note_on_c, 4, 69, 0
6, 1468200, Note_on_c, 4, 78, 100
6, 1468320, Note_on_c, 4, 78, 0
6, 1468320, Note_on_c, 4, 67, 100
6, 1468440, Note_on_c, 4, 67, 0
6, 1468440, Note_on_c, 4, 76, 100
6, 1468560, Note_on_c, 4, 76, 0
6, 1468560, Note_on_c, 4, 66, 100
6, 1468680, Note_on_c, 4, 66, 0
6, 1468680, Note_on_c, 4, 74, 100
6, 1468800, Note_on_c, 4, 74, 0
6, 1468800, Note_on_c, 4, 64, 100
6, 1468920, Note_on_c, 4, 64, 0
6, 1468920, Note_on_c, 4, 72, 100
6, 1469040, Note_on_c, 4, 72, 0
6, 1469040, Note_on_c, 4, 62, 100
6, 1469160, Note_on_c, 4, 62, 0
6, 1469160, Note_on_c, 4, 71, 100
6, 1469280, Note_on_c, 4, 71, 0
6, 1469280, Note_on_c, 4, 60, 100
6, 1469400, Note_on_c, 4, 60, 0
6, 1469400, Note_on_c, 4, 69, 100
6, 1469520, Note_on_c, 4, 69, 0
6, 1469520, Note_on_c, 4, 59, 100
6, 1469640, Note_on_c, 4, 59, 0
6, 1469640, Note_on_c, 4, 67, 100
6, 1469760, Note_on_c, 4, 67, 0
6, 1469760, Note_on_c, 4, 57, 100
6, 1469880, Note_on_c, 4, 57, 0
6, 1469880, Note_on_c, 4, 66, 100
6, 1470000, Note_on_c, 4, 66, 0
6, 1470000, Note_on_c, 4, 55, 100
6, 1470120, Note_on_c, 4, 55, 0
6, 1470120, Note_on_c, 4, 64, 100
6, 1470240, Note_on_c, 4, 64, 0
6, 1470240, Note_on_c, 4, 54, 100
6, 1470360, Note_on_c, 4, 54, 0
6, 1470360, Note_on_c, 4, 62, 100
6, 1470480, Note_on_c, 4, 62, 0
6, 1470480, Note_on_c, 4, 52, 100
6, 1470600, Note_on_c, 4, 52, 0
6, 1470600, Note_on_c, 4, 61, 100
6, 1470720, Note_on_c, 4, 61, 0
6, 1470720, Note_on_c, 4, 50, 100
6, 1470840, Note_on_c, 4, 50, 0
6, 1470840, Note_on_c, 4, 59, 100
6, 1470960, Note_on_c, 4, 59, 0
6, 1470960, Note_on_c, 4, 49, 100
6, 1471080, Note_on_c, 4, 49, 0
6, 1471080, Note_on_c, 4, 57, 100
6, 1471200, Note_on_c, 4, 57, 0
6, 1471200, Note_on_c, 4, 47, 100
6, 1471320, Note_on_c, 4, 47, 0
6, 1471320, Note_on_c, 4, 55, 100
6, 1471440, Note_on_c, 4, 55, 0
6, 1471440, Note_on_c, 4, 45, 100
6, 1471560, Note_on_c, 4, 45, 0
6, 1471560, Note_on_c, 4, 54, 100
6, 1471680, Note_on_c, 4, 54, 0
6, 1471680, Note_on_c, 4, 43, 100
6, 1471800, Note_on_c, 4, 43, 0
6, 1471800, Note_on_c, 4, 52, 100
6, 1471920, Note_on_c, 4, 52, 0
6, 1471920, Note_on_c, 4, 42, 100
6, 1472040, Note_on_c, 4, 42, 0
6, 1472040, Note_on_c, 4, 50, 100
6, 1472160, Note_on_c, 4, 50, 0
6, 1472160, Note_on_c, 4, 40, 100
6, 1472280, Note_on_c, 4, 40, 0
6, 1472280, Note_on_c, 4, 49, 100
6, 1472400, Note_on_c, 4, 49, 0
6, 1472400, Note_on_c, 4, 50, 100
6, 1472520, Note_on_c, 4, 50, 0
6, 1472520, Note_on_c, 4, 49, 100
6, 1472640, Note_on_c, 4, 49, 0
6, 1472640, Note_on_c, 4, 50, 100
6, 1472760, Note_on_c, 4, 50, 0
6, 1472760, Note_on_c, 4, 49, 100
6, 1472880, Note_on_c, 4, 49, 0
6, 1472880, Note_on_c, 4, 50, 100
6, 1473000, Note_on_c, 4, 50, 0
6, 1473000, Note_on_c, 4, 45, 100
6, 1473120, Note_on_c, 4, 45, 0
6, 1473120, Note_on_c, 4, 42, 100
6, 1473240, Note_on_c, 4, 42, 0
6, 1473240, Note_on_c, 4, 45, 100
6, 1473360, Note_on_c, 4, 45, 0
6, 1473360, Note_on_c, 4, 38, 100
6, 1473600, Note_on_c, 4, 38, 0
6, 1473840, Note_on_c, 4, 38, 100
6, 1473960, Note_on_c, 4, 38, 0
6, 1473960, Note_on_c, 4, 42, 100
6, 1474080, Note_on_c, 4, 42, 0
6, 1474080, Note_on_c, 4, 45, 100
6, 1474200, Note_on_c, 4, 45, 0
6, 1474200, Note_on_c, 4, 49, 100
6, 1474320, Note_on_c, 4, 49, 0
6, 1474320, Note_on_c, 4, 50, 100
6, 1474680, Note_on_c, 4, 50, 0
6, 1474680, Note_on_c, 4, 52, 100
6, 1474800, Note_on_c, 4, 52, 0
6, 1474800, Note_on_c, 4, 54, 100
6, 1474920, Note_on_c, 4, 54, 0
6, 1474920, Note_on_c, 4, 55, 100
6, 1475040, Note_on_c, 4, 55, 0
6, 1475040, Note_on_c, 4, 57, 100
6, 1475160, Note_on_c, 4, 57, 0
6, 1475160, Note_on_c, 4, 54, 100
6, 1475280, Note_on_c, 4, 54, 0
6, 1475280, Note_on_c, 4, 55, 100
6, 1475400, Note_on_c, 4, 55, 0
6, 1475400, Note_on_c, 4, 47, 100
6, 1475520, Note_on_c, 4, 47, 0
6, 1475520, Note_on_c, 4, 48, 100
6, 1475640, Note_on_c, 4, 48, 0
6, 1475640, Note_on_c, 4, 50, 100
6, 1475760, Note_on_c, 4, 50, 0
6, 1475760, Note_on_c, 4, 43, 100
6, 1476120, Note_on_c, 4, 43, 0
6, 1476120, Note_on_c, 4, 54, 100
6, 1476240, Note_on_c, 4, 54, 0
6, 1476240, Note_on_c, 4, 55, 100
6, 1476360, Note_on_c, 4, 55, 0
6, 1476360, Note_on_c, 4, 57, 100
6, 1476480, Note_on_c, 4, 57, 0
6, 1476480, Note_on_c, 4, 59, 100
6, 1476600, Note_on_c, 4, 59, 0
6, 1476600, Note_on_c, 4, 56, 100
6, 1476720, Note_on_c, 4, 56, 0
6, 1476720, Note_on_c, 4, 57, 100
6, 1476840, Note_on_c, 4, 57, 0
6, 1476840, Note_on_c, 4, 48, 100
6, 1476960, Note_on_c, 4, 48, 0
6, 1476960, Note_on_c, 4, 50, 100
6, 1477080, Note_on_c, 4, 50, 0
6, 1477080, Note_on_c, 4, 52, 100
6, 1477200, Note_on_c, 4, 52, 0
6, 1477200, Note_on_c, 4, 45, 100
6, 1477560, Note_on_c, 4, 45, 0
6, 1477560, Note_on_c, 4, 56, 100
6, 1477680, Note_on_c, 4, 56, 0
6, 1477680, Note_on_c, 4, 57, 100
6, 1477800, Note_on_c, 4, 57, 0
6, 1477800, Note_on_c, 4, 59, 100
6, 1477920, Note_on_c, 4, 59, 0
6, 1477920, Note_on_c, 4, 60, 100
6, 1478040, Note_on_c, 4, 60, 0
6, 1478040, Note_on_c, 4, 58, 100
6, 1478160, Note_on_c, 4, 58, 0
6, 1478160, Note_on_c, 4, 59, 100
6, 1478280, Note_on_c, 4, 59, 0
6, 1478280, Note_on_c, 4, 58, 100
6, 1478400, Note_on_c, 4, 58, 0
6, 1478400, Note_on_c, 4, 59, 100
6, 1478520, Note_on_c, 4, 59, 0
6, 1478520, Note_on_c, 4, 58, 100
6, 1478640, Note_on_c, 4, 58, 0
6, 1478640, Note_on_c, 4, 59, 100
6, 1478760, Note_on_c, 4, 59, 0
6, 1478760, Note_on_c, 4, 54, 100
6, 1478880, Note_on_c, 4, 54, 0
6, 1478880, Note_on_c, 4, 55, 100
6, 1479000, Note_on_c, 4, 55, 0
6, 1479000, Note_on_c, 4, 57, 100
6, 1479120, Note_on_c, 4, 57, 0
6, 1479120, Note_on_c, 4, 47, 100
6, 1479360, Note_on_c, 4, 47, 0
6, 1479360, Note_on_c, 4, 64, 100
6, 1479420, Note_on_c, 4, 64, 0
6, 1479420, Note_on_c, 4, 63, 100
6, 1479480, Note_on_c, 4, 63, 0
6, 1479480, Note_on_c, 4, 60, 100
6, 1479540, Note_on_c, 4, 60, 0
6, 1479540, Note_on_c, 4, 63, 100
6, 1479600, Note_on_c, 4, 63, 0
6, 1479600, Note_on_c, 4, 64, 100
6, 1479720, Note_on_c, 4, 64, 0
6, 1479720, Note_on_c, 4, 67, 100
6, 1479840, Note_on_c, 4, 67, 0
6, 1479840, Note_on_c, 4, 66, 100
6, 1479960, Note_on_c, 4, 66, 0
6, 1479960, Note_on_c, 4, 69, 100
6, 1480080, Note_on_c, 4, 69, 0
6, 1480080, Note_on_c, 4, 67, 100
6, 1480200, Note_on_c, 4, 67, 0
6, 1480200, Note_on_c, 4, 66, 100
6, 1480320, Note_on_c, 4, 66, 0
6, 1480320, Note_on_c, 4, 64, 100
6, 1480440, Note_on_c, 4, 64, 0
6, 1480440, Note_on_c, 4, 67, 100
6, 1480560, Note_on_c, 4, 67, 0
6, 1480560, Note_on_c, 4, 66, 100
6, 1480680, Note_on_c, 4, 66, 0
6, 1480680, Note_on_c, 4, 63, 100
6, 1480800, Note_on_c, 4, 63, 0
6, 1480800, Note_on_c, 4, 64, 100
6, 1480920, Note_on_c, 4, 64, 0
6, 1480920, Note_on_c, 4, 61, 100
6, 1481040, Note_on_c, 4, 61, 0
6, 1481040, Note_on_c, 4, 63, 100
6, 1481160, Note_on_c, 4, 63, 0
6, 1481160, Note_on_c, 4, 61, 100
6, 1481280, Note_on_c, 4, 61, 0
6, 1481280, Note_on_c, 4, 59, 100
6, 1481400, Note_on_c, 4, 59, 0
6, 1481400, Note_on_c, 4, 62, 100
6, 1481520, Note_on_c, 4, 62, 0
6, 1481520, Note_on_c, 4, 60, 100
6, 1481640, Note_on_c, 4, 60, 0
6, 1481640, Note_on_c, 4, 57, 100
6, 1481760, Note_on_c, 4, 57, 0
6, 1481760, Note_on_c, 4, 59, 100
6, 1481880, Note_on_c, 4, 59, 0
6, 1481880, Note_on_c, 4, 56, 100
6, 1482000, Note_on_c, 4, 56, 0
6, 1482000, Note_on_c, 4, 57, 100
6, 1482120, Note_on_c, 4, 57, 0
6, 1482120, Note_on_c, 4, 55, 100
6, 1482240, Note_on_c, 4, 55, 0
6, 1482240, Note_on_c, 4, 54, 100
6, 1482360, Note_on_c, 4, 54, 0
6, 1482360, Note_on_c, 4, 57, 100
6, 1482480, Note_on_c, 4, 57, 0
6, 1482480, Note_on_c, 4, 55, 100
6, 1482600, Note_on_c, 4, 55, 0
6, 1482600, Note_on_c, 4, 52, 100
6, 1482720, Note_on_c, 4, 52, 0
6, 1482720, Note_on_c, 4, 54, 100
6, 1482840, Note_on_c, 4, 54, 0
6, 1482840, Note_on_c, 4, 51, 100
6, 1482960, Note_on_c, 4, 51, 0
6, 1482960, Note_on_c, 4, 52, 100
6, 1483080, Note_on_c, 4, 52, 0
6, 1483080, Note_on_c, 4, 51, 100
6, 1483200, Note_on_c, 4, 51, 0
6, 1483200, Note_on_c, 4, 49, 100
6, 1483320, Note_on_c, 4, 49, 0
6, 1483320, Note_on_c, 4, 52, 100
6, 1483440, Note_on_c, 4, 52, 0
6, 1483440, Note_on_c, 4, 51, 100
6, 1483560, Note_on_c, 4, 51, 0
6, 1483560, Note_on_c, 4, 52, 100
6, 1483680, Note_on_c, 4, 52, 0
6, 1483680, Note_on_c, 4, 54, 100
6, 1483800, Note_on_c, 4, 54, 0
6, 1483800, Note_on_c, 4, 51, 100
6, 1483920, Note_on_c, 4, 51, 0
6, 1483920, Note_on_c, 4, 52, 100
6, 1484040, Note_on_c, 4, 52, 0
6, 1484040, Note_on_c, 4, 43, 100
6, 1484160, Note_on_c, 4, 43, 0
6, 1484160, Note_on_c, 4, 45, 100
6, 1484280, Note_on_c, 4, 45, 0
6, 1484280, Note_on_c, 4, 47, 100
6, 1484400, Note_on_c, 4, 47, 0
6, 1484400, Note_on_c, 4, 40, 100
6, 1484520, Note_on_c, 4, 40, 0
6, 1484520, Note_on_c, 4, 42, 100
6, 1484640, Note_on_c, 4, 42, 0
6, 1484640, Note_on_c, 4, 43, 100
6, 1484760, Note_on_c, 4, 43, 0
6, 1484760, Note_on_c, 4, 45, 100
6, 1484880, Note_on_c, 4, 45, 0
6, 1484880, Note_on_c, 4, 47, 100
6, 1485000, Note_on_c, 4, 47, 0
6, 1485000, Note_on_c, 4, 48, 100
6, 1485120, Note_on_c, 4, 48, 0
6, 1485120, Note_on_c, 4, 50, 100
6, 1485240, Note_on_c, 4, 50, 0
6, 1485240, Note_on_c, 4, 47, 100
6, 1485360, Note_on_c, 4, 47, 0
6, 1485360, Note_on_c, 4, 48, 100
6, 1485480, Note_on_c, 4, 48, 0
6, 1485480, Note_on_c, 4, 52, 100
6, 1485600, Note_on_c, 4, 52, 0
6, 1485600, Note_on_c, 4, 50, 100
6, 1485720, Note_on_c, 4, 50, 0
6, 1485720, Note_on_c, 4, 53, 100
6, 1485840, Note_on_c, 4, 53, 0
6, 1485840, Note_on_c, 4, 52, 100
6, 1485960, Note_on_c, 4, 52, 0
6, 1485960, Note_on_c, 4, 55, 100
6, 1486080, Note_on_c, 4, 55, 0
6, 1486080, Note_on_c, 4, 54, 100
6, 1486200, Note_on_c, 4, 54, 0
6, 1486200, Note_on_c, 4, 57, 100
6, 1486320, Note_on_c, 4, 57, 0
6, 1486320, Note_on_c, 4, 56, 100
6, 1486440, Note_on_c, 4, 56, 0
6, 1486440, Note_on_c, 4, 59, 100
6, 1486560, Note_on_c, 4, 59, 0
6, 1486560, Note_on_c, 4, 57, 100
6, 1486680, Note_on_c, 4, 57, 0
6, 1486680, Note_on_c, 4, 60, 100
6, 1486800, Note_on_c, 4, 60, 0
6, 1486800, Note_on_c, 4, 59, 100
6, 1486920, Note_on_c, 4, 59, 0
6, 1486920, Note_on_c, 4, 62, 100
6, 1487040, Note_on_c, 4, 62, 0
6, 1487040, Note_on_c, 4, 60, 100
6, 1487160, Note_on_c, 4, 60, 0
6, 1487160, Note_on_c, 4, 64, 100
6, 1487280, Note_on_c, 4, 64, 0
6, 1487280, Note_on_c, 4, 62, 100
6, 1487400, Note_on_c, 4, 62, 0
6, 1487400, Note_on_c, 4, 65, 100
6, 1487520, Note_on_c, 4, 65, 0
6, 1487520, Note_on_c, 4, 64, 100
6, 1487640, Note_on_c, 4, 64, 0
6, 1487640, Note_on_c, 4, 68, 100
6, 1487760, Note_on_c, 4, 68, 0
6, 1487760, Note_on_c, 4, 66, 100
6, 1487880, Note_on_c, 4, 66, 0
6, 1487880, Note_on_c, 4, 69, 100
6, 1488000, Note_on_c, 4, 69, 0
6, 1488000, Note_on_c, 4, 68, 100
6, 1488120, Note_on_c, 4, 68, 0
6, 1488120, Note_on_c, 4, 71, 100
6, 1488240, Note_on_c, 4, 71, 0
6, 1488240, Note_on_c, 4, 69, 100
6, 1488360, Note_on_c, 4, 69, 0
6, 1488360, Note_on_c, 4, 72, 100
6, 1488480, Note_on_c, 4, 72, 0
6, 1488480, Note_on_c, 4, 71, 100
6, 1488600, Note_on_c, 4, 71, 0
6, 1488600, Note_on_c, 4, 74, 100
6, 1488720, Note_on_c, 4, 74, 0
6, 1488720, Note_on_c, 4, 72, 100
6, 1488840, Note_on_c, 4, 72, 0
6, 1488840, Note_on_c, 4, 69, 100
6, 1488960, Note_on_c, 4, 69, 0
6, 1488960, Note_on_c, 4, 71, 100
6, 1489080, Note_on_c, 4, 71, 0
6, 1489080, Note_on_c, 4, 67, 100
6, 1489200, Note_on_c, 4, 67, 0
6, 1489200, Note_on_c, 4, 69, 100
6, 1489320, Note_on_c, 4, 69, 0
6, 1489320, Note_on_c, 4, 66, 100
6, 1489440, Note_on_c, 4, 66, 0
6, 1489440, Note_on_c, 4, 67, 100
6, 1489560, Note_on_c, 4, 67, 0
6, 1489560, Note_on_c, 4, 64, 100
6, 1489680, Note_on_c, 4, 64, 0
6, 1489680, Note_on_c, 4, 66, 100
6, 1489800, Note_on_c, 4, 66, 0
6, 1489800, Note_on_c, 4, 62, 100
6, 1489920, Note_on_c, 4, 62, 0
6, 1489920, Note_on_c, 4, 64, 100
6, 1490040, Note_on_c, 4, 64, 0
6, 1490040, Note_on_c, 4, 61, 100
6, 1490160, Note_on_c, 4, 61, 0
6, 1490160, Note_on_c, 4, 62, 100
6, 1490280, Note_on_c, 4, 62, 0
6, 1490280, Note_on_c, 4, 71, 100
6, 1490400, Note_on_c, 4, 71, 0
6, 1490400, Note_on_c, 4, 60, 100
6, 1490520, Note_on_c, 4, 60, 0
6, 1490520, Note_on_c, 4, 69, 100
6, 1490640, Note_on_c, 4, 69, 0
6, 1490640, Note_on_c, 4, 59, 100
6, 1490760, Note_on_c, 4, 59, 0
6, 1490760, Note_on_c, 4, 67, 100
6, 1490880, Note_on_c, 4, 67, 0
6, 1490880, Note_on_c, 4, 57, 100
6, 1491000, Note_on_c, 4, 57, 0
6, 1491000, Note_on_c, 4, 66, 100
6, 1491120, Note_on_c, 4, 66, 0
6, 1491120, Note_on_c, 4, 59, 100
6, 1491360, Note_on_c, 4, 59, 0
6, 1491420, Note_on_c, 4, 62, 100
6, 1491480, Note_on_c, 4, 62, 0
6, 1491480, Note_on_c, 4, 64, 100
6, 1491540, Note_on_c, 4, 64, 0
6, 1491540, Note_on_c, 4, 66, 100
6, 1491600, Note_on_c, 4, 66, 0
6, 1491600, Note_on_c, 4, 67, 100
6, 1491720, Note_on_c, 4, 67, 0
6, 1491720, Note_on_c, 4, 64, 100
6, 1491840, Note_on_c, 4, 64, 0
6, 1491840, Note_on_c, 4, 65, 100
6, 1491960, Note_on_c, 4, 65, 0
6, 1491960, Note_on_c, 4, 62, 100
6, 1492080, Note_on_c, 4, 62, 0
6, 1492080, Note_on_c, 4, 64, 100
6, 1492200, Note_on_c, 4, 64, 0
6, 1492200, Note_on_c, 4, 60, 100
6, 1492320, Note_on_c, 4, 60, 0
6, 1492320, Note_on_c, 4, 62, 100
6, 1492440, Note_on_c, 4, 62, 0
6, 1492440, Note_on_c, 4, 59, 100
6, 1492560, Note_on_c, 4, 59, 0
6, 1492560, Note_on_c, 4, 55, 100
6, 1492680, Note_on_c, 4, 55, 0
6, 1492680, Note_on_c, 4, 52, 100
6, 1492800, Note_on_c, 4, 52, 0
6, 1492800, Note_on_c, 4, 53, 100
6, 1492920, Note_on_c, 4, 53, 0
6, 1492920, Note_on_c, 4, 50, 100
6, 1493040, Note_on_c, 4, 50, 0
6, 1493040, Note_on_c, 4, 52, 100
6, 1493160, Note_on_c, 4, 52, 0
6, 1493160, Note_on_c, 4, 60, 100
6, 1493280, Note_on_c, 4, 60, 0
6, 1493280, Note_on_c, 4, 50, 100
6, 1493400, Note_on_c, 4, 50, 0
6, 1493400, Note_on_c, 4, 59, 100
6, 1493520, Note_on_c, 4, 59, 0
6, 1493520, Note_on_c, 4, 48, 100
6, 1493640, Note_on_c, 4, 48, 0
6, 1493640, Note_on_c, 4, 57, 100
6, 1493760, Note_on_c, 4, 57, 0
6, 1493760, Note_on_c, 4, 47, 100
6, 1493880, Note_on_c, 4, 47, 0
6, 1493880, Note_on_c, 4, 55, 100
6, 1494000, Note_on_c, 4, 55, 0
6, 1494000, Note_on_c, 4, 45, 100
6, 1494120, Note_on_c, 4, 45, 0
6, 1494120, Note_on_c, 4, 55, 100
6, 1494240, Note_on_c, 4, 55, 0
6, 1494240, Note_on_c, 4, 54, 100
6, 1494360, Note_on_c, 4, 54, 0
6, 1494360, Note_on_c, 4, 48, 100
6, 1494480, Note_on_c, 4, 48, 0
6, 1494480, Note_on_c, 4, 47, 100
6, 1494600, Note_on_c, 4, 47, 0
6, 1494600, Note_on_c, 4, 50, 100
6, 1494720, Note_on_c, 4, 50, 0
6, 1494720, Note_on_c, 4, 55, 100
6, 1494840, Note_on_c, 4, 55, 0
6, 1494840, Note_on_c, 4, 59, 100
6, 1494960, Note_on_c, 4, 59, 0
6, 1494960, Note_on_c, 4, 62, 100
6, 1495080, Note_on_c, 4, 62, 0
6, 1495080, Note_on_c, 4, 59, 100
6, 1495200, Note_on_c, 4, 59, 0
6, 1495200, Note_on_c, 4, 60, 100
6, 1495320, Note_on_c, 4, 60, 0
6, 1495320, Note_on_c, 4, 57, 100
6, 1495440, Note_on_c, 4, 57, 0
6, 1495440, Note_on_c, 4, 59, 100
6, 1495560, Note_on_c, 4, 59, 0
6, 1495560, Note_on_c, 4, 57, 100
6, 1495680, Note_on_c, 4, 57, 0
6, 1495680, Note_on_c, 4, 59, 100
6, 1495800, Note_on_c, 4, 59, 0
6, 1495800, Note_on_c, 4, 57, 100
6, 1495920, Note_on_c, 4, 57, 0
6, 1495920, Note_on_c, 4, 59, 100
6, 1496040, Note_on_c, 4, 59, 0
6, 1496040, Note_on_c, 4, 55, 100
6, 1496160, Note_on_c, 4, 55, 0
6, 1496160, Note_on_c, 4, 50, 100
6, 1496280, Note_on_c, 4, 50, 0
6, 1496280, Note_on_c, 4, 47, 100
6, 1496400, Note_on_c, 4, 47, 0
6, 1496400, Note_on_c, 4, 43, 100
6, 1496640, Note_on_c, 4, 43, 0
6, 1496880, Note_on_c, 4, 38, 100
6, 1497000, Note_on_c, 4, 38, 0
6, 1497000, Note_on_c, 4, 42, 100
6, 1497120, Note_on_c, 4, 42, 0
6, 1497120, Note_on_c, 4, 45, 100
6, 1497240, Note_on_c, 4, 45, 0
6, 1497240, Note_on_c, 4, 49, 100
6, 1497360, Note_on_c, 4, 49, 0
6, 1497360, Note_on_c, 4, 50, 100
6, 1497720, Note_on_c, 4, 50, 0
6, 1497720, Note_on_c, 4, 52, 100
6, 1497840, Note_on_c, 4, 52, 0
6, 1497840, Note_on_c, 4, 54, 100
6, 1497960, Note_on_c, 4, 54, 0
6, 1497960, Note_on_c, 4, 55, 100
6, 1498080, Note_on_c, 4, 55, 0
6, 1498080, Note_on_c, 4, 57, 100
6, 1498200, Note_on_c, 4, 57, 0
6, 1498200, Note_on_c, 4, 54, 100
6, 1498320, Note_on_c, 4, 54, 0
6, 1498320, Note_on_c, 4, 55, 100
6, 1498440, Note_on_c, 4, 55, 0
6, 1498440, Note_on_c, 4, 47, 100
6, 1498560, Note_on_c, 4, 47, 0
6, 1498560, Note_on_c, 4, 48, 100
6, 1498680, Note_on_c, 4, 48, 0
6, 1498680, Note_on_c, 4, 50, 100
6, 1498800, Note_on_c, 4, 50, 0
6, 1498800, Note_on_c, 4, 43, 100
6, 1499160, Note_on_c, 4, 43, 0
6, 1499160, Note_on_c, 4, 54, 100
6, 1499280, Note_on_c, 4, 54, 0
6, 1499280, Note_on_c, 4, 55, 100
6, 1499400, Note_on_c, 4, 55, 0
6, 1499400, Note_on_c, 4, 57, 100
6, 1499520, Note_on_c, 4, 57, 0
6, 1499520, Note_on_c, 4, 59, 100
6, 1499640, Note_on_c, 4, 59, 0
6, 1499640, Note_on_c, 4, 56, 100
6, 1499760, Note_on_c, 4, 56, 0
6, 1499760, Note_on_c, 4, 57, 100
6, 1499880, Note_on_c, 4, 57, 0
6, 1499880, Note_on_c, 4, 48, 100
6, 1500000, Note_on_c, 4, 48, 0
6, 1500000, Note_on_c, 4, 50, 100
6, 1500120, Note_on_c, 4, 50, 0
6, 1500120, Note_on_c, 4, 52, 100
6, 1500240, Note_on_c, 4, 52, 0
6, 1500240, Note_on_c, 4, 45, 100
6, 1500600, Note_on_c, 4, 45, 0
6, 1500600, Note_on_c, 4, 56, 100
6, 1500720, Note_on_c, 4, 56, 0
6, 1500720, Note_on_c, 4, 57, 100
6, 1500840, Note_on_c, 4, 57, 0
6, 1500840, Note_on_c, 4, 59, 100
6, 1500960, Note_on_c, 4, 59, 0
6, 1500960, Note_on_c, 4, 60, 100
6, 1501080, Note_on_c, 4, 60, 0
6, 1501080, Note_on_c, 4, 58, 100
6, 1501200, Note_on_c, 4, 58, 0
6, 1501200, Note_on_c, 4, 59, 100
6, 1501320, Note_on_c, 4, 59, 0
6, 1501320, Note_on_c, 4, 58, 100
6, 1501440, Note_on_c, 4, 58, 0
6, 1501440, Note_on_c, 4, 59, 100
6, 1501560, Note_on_c, 4, 59, 0
6, 1501560, Note_on_c, 4, 58, 100
6, 1501680, Note_on_c, 4, 58, 0
6, 1501680, Note_on_c, 4, 59, 100
6, 1501800, Note_on_c, 4, 59, 0
6, 1501800, Note_on_c, 4, 54, 100
6, 1501920, Note_on_c, 4, 54, 0
6, 1501920, Note_on_c, 4, 55, 100
6, 1502040, Note_on_c, 4, 55, 0
6, 1502040, Note_on_c, 4, 57, 100
6, 1502160, Note_on_c, 4, 57, 0
6, 1502160, Note_on_c, 4, 47, 100
6, 1502400, Note_on_c, 4, 47, 0
6, 1502400, Note_on_c, 4, 64, 100
6, 1502460, Note_on_c, 4, 64, 0
6, 1502460, Note_on_c, 4, 63, 100
6, 1502520, Note_on_c, 4, 63, 0
6, 1502520, Note_on_c, 4, 60, 100
6, 1502580, Note_on_c, 4, 60, 0
6, 1502580, Note_on_c, 4, 63, 100
6, 1502640, Note_on_c, 4, 63, 0
6, 1502640, Note_on_c, 4, 64, 100
6, 1502760, Note_on_c, 4, 64, 0
6, 1502760, Note_on_c, 4, 67, 100
6, 1502880, Note_on_c, 4, 67, 0
6, 1502880, Note_on_c, 4, 66, 100
6, 1503000, Note_on_c, 4, 66, 0
6, 1503000, Note_on_c, 4, 69, 100
6, 1503120, Note_on_c, 4, 69, 0
6, 1503120, Note_on_c, 4, 67, 100
6, 1503240, Note_on_c, 4, 67, 0
6, 1503240, Note_on_c, 4, 66, 100
6, 1503360, Note_on_c, 4, 66, 0
6, 1503360, Note_on_c, 4, 64, 100
6, 1503480, Note_on_c, 4, 64, 0
6, 1503480, Note_on_c, 4, 67, 100
6, 1503600, Note_on_c, 4, 67, 0
6, 1503600, Note_on_c, 4, 66, 100
6, 1503720, Note_on_c, 4, 66, 0
6, 1503720, Note_on_c, 4, 63, 100
6, 1503840, Note_on_c, 4, 63, 0
6, 1503840, Note_on_c, 4, 64, 100
6, 1503960, Note_on_c, 4, 64, 0
6, 1503960, Note_on_c, 4, 61, 100
6, 1504080, Note_on_c, 4, 61, 0
6, 1504080, Note_on_c, 4, 63, 100
6, 1504200, Note_on_c, 4, 63, 0
6, 1504200, Note_on_c, 4, 61, 100
6, 1504320, Note_on_c, 4, 61, 0
6, 1504320, Note_on_c, 4, 59, 100
6, 1504440, Note_on_c, 4, 59, 0
6, 1504440, Note_on_c, 4, 62, 100
6, 1504560, Note_on_c, 4, 62, 0
6, 1504560, Note_on_c, 4, 60, 100
6, 1504680, Note_on_c, 4, 60, 0
6, 1504680, Note_on_c, 4, 57, 100
6, 1504800, Note_on_c, 4, 57, 0
6, 1504800, Note_on_c, 4, 59, 100
6, 1504920, Note_on_c, 4, 59, 0
6, 1504920, Note_on_c, 4, 56, 100
6, 1505040, Note_on_c, 4, 56, 0
6, 1505040, Note_on_c, 4, 57, 100
6, 1505160, Note_on_c, 4, 57, 0
6, 1505160, Note_on_c, 4, 55, 100
6, 1505280, Note_on_c, 4, 55, 0
6, 1505280, Note_on_c, 4, 54, 100
6, 1505400, Note_on_c, 4, 54, 0
6, 1505400, Note_on_c, 4, 57, 100
6, 1505520, Note_on_c, 4, 57, 0
6, 1505520, Note_on_c, 4, 55, 100
6, 1505640, Note_on_c, 4, 55, 0
6, 1505640, Note_on_c, 4, 52, 100
6, 1505760, Note_on_c, 4, 52, 0
6, 1505760, Note_on_c, 4, 54, 100
6, 1505880, Note_on_c, 4, 54, 0
6, 1505880, Note_on_c, 4, 51, 100
6, 1506000, Note_on_c, 4, 51, 0
6, 1506000, Note_on_c, 4, 52, 100
6, 1506120, Note_on_c, 4, 52, 0
6, 1506120, Note_on_c, 4, 51, 100
6, 1506240, Note_on_c, 4, 51, 0
6, 1506240, Note_on_c, 4, 49, 100
6, 1506360, Note_on_c, 4, 49, 0
6, 1506360, Note_on_c, 4, 52, 100
6, 1506480, Note_on_c, 4, 52, 0
6, 1506480, Note_on_c, 4, 51, 100
6, 1506600, Note_on_c, 4, 51, 0
6, 1506600, Note_on_c, 4, 52, 100
6, 1506720, Note_on_c, 4, 52, 0
6, 1506720, Note_on_c, 4, 54, 100
6, 1506840, Note_on_c, 4, 54, 0
6, 1506840, Note_on_c, 4, 51, 100
6, 1506960, Note_on_c, 4, 51, 0
6, 1506960, Note_on_c, 4, 52, 100
6, 1507080, Note_on_c, 4, 52, 0
6, 1507080, Note_on_c, 4, 43, 100
6, 1507200, Note_on_c, 4, 43, 0
6, 1507200, Note_on_c, 4, 45, 100
6, 1507320, Note_on_c, 4, 45, 0
6, 1507320, Note_on_c, 4, 47, 100
6, 1507440, Note_on_c, 4, 47, 0
6, 1507440, Note_on_c, 4, 40, 100
6, 1507560, Note_on_c, 4, 40, 0
6, 1507560, Note_on_c, 4, 42, 100
6, 1507680, Note_on_c, 4, 42, 0
6, 1507680, Note_on_c, 4, 43, 100
6, 1507800, Note_on_c, 4, 43, 0
6, 1507800, Note_on_c, 4, 45, 100
6, 1507920, Note_on_c, 4, 45, 0
6, 1507920, Note_on_c, 4, 47, 100
6, 1508040, Note_on_c, 4, 47, 0
6, 1508040, Note_on_c, 4, 48, 100
6, 1508160, Note_on_c, 4, 48, 0
6, 1508160, Note_on_c, 4, 50, 100
6, 1508280, Note_on_c, 4, 50, 0
6, 1508280, Note_on_c, 4, 47, 100
6, 1508400, Note_on_c, 4, 47, 0
6, 1508400, Note_on_c, 4, 48, 100
6, 1508520, Note_on_c, 4, 48, 0
6, 1508520, Note_on_c, 4, 52, 100
6, 1508640, Note_on_c, 4, 52, 0
6, 1508640, Note_on_c, 4, 50, 100
6, 1508760, Note_on_c, 4, 50, 0
6, 1508760, Note_on_c, 4, 53, 100
6, 1508880, Note_on_c, 4, 53, 0
6, 1508880, Note_on_c, 4, 52, 100
6, 1509000, Note_on_c, 4, 52, 0
6, 1509000, Note_on_c, 4, 55, 100
6, 1509120, Note_on_c, 4, 55, 0
6, 1509120, Note_on_c, 4, 54, 100
6, 1509240, Note_on_c, 4, 54, 0
6, 1509240, Note_on_c, 4, 57, 100
6, 1509360, Note_on_c, 4, 57, 0
6, 1509360, Note_on_c, 4, 56, 100
6, 1509480, Note_on_c, 4, 56, 0
6, 1509480, Note_on_c, 4, 59, 100
6, 1509600, Note_on_c, 4, 59, 0
6, 1509600, Note_on_c, 4, 57, 100
6, 1509720, Note_on_c, 4, 57, 0
6, 1509720, Note_on_c, 4, 60, 100
6, 1509840, Note_on_c, 4, 60, 0
6, 1509840, Note_on_c, 4, 59, 100
6, 1509960, Note_on_c, 4, 59, 0
6, 1509960, Note_on_c, 4, 62, 100
6, 1510080, Note_on_c, 4, 62, 0
6, 1510080, Note_on_c, 4, 60, 100
6, 1510200, Note_on_c, 4, 60, 0
6, 1510200, Note_on_c, 4, 64, 100
6, 1510320, Note_on_c, 4, 64, 0
6, 1510320, Note_on_c, 4, 62, 100
6, 1510440, Note_on_c, 4, 62, 0
6, 1510440, Note_on_c, 4, 65, 100
6, 1510560, Note_on_c, 4, 65, 0
6, 1510560, Note_on_c, 4, 64, 100
6, 1510680, Note_on_c, 4, 64, 0
6, 1510680, Note_on_c, 4, 68, 100
6, 1510800, Note_on_c, 4, 68, 0
6, 1510800, Note_on_c, 4, 66, 100
6, 1510920, Note_on_c, 4, 66, 0
6, 1510920, Note_on_c, 4, 69, 100
6, 1511040, Note_on_c, 4, 69, 0
6, 1511040, Note_on_c, 4, 68, 100
6, 1511160, Note_on_c, 4, 68, 0
6, 1511160, Note_on_c, 4, 71, 100
6, 1511280, Note_on_c, 4, 71, 0
6, 1511280, Note_on_c, 4, 69, 100
6, 1511400, Note_on_c, 4, 69, 0
6, 1511400, Note_on_c, 4, 72, 100
6, 1511520, Note_on_c, 4, 72, 0
6, 1511520, Note_on_c, 4, 71, 100
6, 1511640, Note_on_c, 4, 71, 0
6, 1511640, Note_on_c, 4, 74, 100
6, 1511760, Note_on_c, 4, 74, 0
6, 1511760, Note_on_c, 4, 72, 100
6, 1511880, Note_on_c, 4, 72, 0
6, 1511880, Note_on_c, 4, 69, 100
6, 1512000, Note_on_c, 4, 69, 0
6, 1512000, Note_on_c, 4, 71, 100
6, 1512120, Note_on_c, 4, 71, 0
6, 1512120, Note_on_c, 4, 67, 100
6, 1512240, Note_on_c, 4, 67, 0
6, 1512240, Note_on_c, 4, 69, 100
6, 1512360, Note_on_c, 4, 69, 0
6, 1512360, Note_on_c, 4, 66, 100
6, 1512480, Note_on_c, 4, 66, 0
6, 1512480, Note_on_c, 4, 67, 100
6, 1512600, Note_on_c, 4, 67, 0
6, 1512600, Note_on_c, 4, 64, 100
6, 1512720, Note_on_c, 4, 64, 0
6, 1512720, Note_on_c, 4, 66, 100
6, 1512840, Note_on_c, 4, 66, 0
6, 1512840, Note_on_c, 4, 62, 100
6, 1512960, Note_on_c, 4, 62, 0
6, 1512960, Note_on_c, 4, 64, 100
6, 1513080, Note_on_c, 4, 64, 0
6, 1513080, Note_on_c, 4, 61, 100
6, 1513200, Note_on_c, 4, 61, 0
6, 1513200, Note_on_c, 4, 62, 100
6, 1513320, Note_on_c, 4, 62, 0
6, 1513320, Note_on_c, 4, 71, 100
6, 1513440, Note_on_c, 4, 71, 0
6, 1513440, Note_on_c, 4, 60, 100
6, 1513560, Note_on_c, 4, 60, 0
6, 1513560, Note_on_c, 4, 69, 100
6, 1513680, Note_on_c, 4, 69, 0
6, 1513680, Note_on_c, 4, 59, 100
6, 1513800, Note_on_c, 4, 59, 0
6, 1513800, Note_on_c, 4, 67, 100
6, 1513920, Note_on_c, 4, 67, 0
6, 1513920, Note_on_c, 4, 57, 100
6, 1514040, Note_on_c, 4, 57, 0
6, 1514040, Note_on_c, 4, 66, 100
6, 1514160, Note_on_c, 4, 66, 0
6, 1514160, Note_on_c, 4, 59, 100
6, 1514400, Note_on_c, 4, 59, 0
6, 1514460, Note_on_c, 4, 62, 100
6, 1514520, Note_on_c, 4, 62, 0
6, 1514520, Note_on_c, 4, 64, 100
6, 1514580, Note_on_c, 4, 64, 0
6, 1514580, Note_on_c, 4, 66, 100
6, 1514640, Note_on_c, 4, 66, 0
6, 1514640, Note_on_c, 4, 67, 100
6, 1514760, Note_on_c, 4, 67, 0
6, 1514760, Note_on_c, 4, 64, 100
6, 1514880, Note_on_c, 4, 64, 0
6, 1514880, Note_on_c, 4, 65, 100
6, 1515000, Note_on_c, 4, 65, 0
6, 1515000, Note_on_c, 4, 62, 100
6, 1515120, Note_on_c, 4, 62, 0
6, 1515120, Note_on_c, 4, 64, 100
6, 1515240, Note_on_c, 4, 64, 0
6, 1515240, Note_on_c, 4, 60, 100
6, 1515360, Note_on_c, 4, 60, 0
6, 1515360, Note_on_c, 4, 62, 100
6, 1515480, Note_on_c, 4, 62, 0
6, 1515480, Note_on_c, 4, 59, 100
6, 1515600, Note_on_c, 4, 59, 0
6, 1515600, Note_on_c, 4, 55, 100
6, 1515720, Note_on_c, 4, 55, 0
6, 1515720, Note_on_c, 4, 52, 100
6, 1515840, Note_on_c, 4, 52, 0
6, 1515840, Note_on_c, 4, 53, 100
6, 1515960, Note_on_c, 4, 53, 0
6, 1515960, Note_on_c, 4, 50, 100
6, 1516080, Note_on_c, 4, 50, 0
6, 1516080, Note_on_c, 4, 52, 100
6, 1516200, Note_on_c, 4, 52, 0
6, 1516200, Note_on_c, 4, 60, 100
6, 1516320, Note_on_c, 4, 60, 0
6, 1516320, Note_on_c, 4, 50, 100
6, 1516440, Note_on_c, 4, 50, 0
6, 1516440, Note_on_c, 4, 59, 100
6, 1516560, Note_on_c, 4, 59, 0
6, 1516560, Note_on_c, 4, 48, 100
6, 1516680, Note_on_c, 4, 48, 0
6, 1516680, Note_on_c, 4, 57, 100
6, 1516800, Note_on_c, 4, 57, 0
6, 1516800, Note_on_c, 4, 47, 100
6, 1516920, Note_on_c, 4, 47, 0
6, 1516920, Note_on_c, 4, 55, 100
6, 1517040, Note_on_c, 4, 55, 0
6, 1517040, Note_on_c, 4, 45, 100
6, 1517160, Note_on_c, 4, 45, 0
6, 1517160, Note_on_c, 4, 55, 100
6, 1517280, Note_on_c, 4, 55, 0
6, 1517280, Note_on_c, 4, 54, 100
6, 1517400, Note_on_c, 4, 54, 0
6, 1517400, Note_on_c, 4, 48, 100
6, 1517520, Note_on_c, 4, 48, 0
6, 1517520, Note_on_c, 4, 47, 100
6, 1517640, Note_on_c, 4, 47, 0
6, 1517640, Note_on_c, 4, 50, 100
6, 1517760, Note_on_c, 4, 50, 0
6, 1517760, Note_on_c, 4, 55, 100
6, 1517880, Note_on_c, 4, 55, 0
6, 1517880, Note_on_c, 4, 59, 100
6, 1518000, Note_on_c, 4, 59, 0
6, 1518000, Note_on_c, 4, 62, 100
6, 1518120, Note_on_c, 4, 62, 0
6, 1518120, Note_on_c, 4, 59, 100
6, 1518240, Note_on_c, 4, 59, 0
6, 1518240, Note_on_c, 4, 60, 100
6, 1518360, Note_on_c, 4, 60, 0
6, 1518360, Note_on_c, 4, 57, 100
6, 1518480, Note_on_c, 4, 57, 0
6, 1518480, Note_on_c, 4, 59, 100
6, 1518600, Note_on_c, 4, 59, 0
6, 1518600, Note_on_c, 4, 57, 100
6, 1518720, Note_on_c, 4, 57, 0
6, 1518720, Note_on_c, 4, 59, 100
6, 1518840, Note_on_c, 4, 59, 0
6, 1518840, Note_on_c, 4, 57, 100
6, 1518960, Note_on_c, 4, 57, 0
6, 1518960, Note_on_c, 4, 59, 100
6, 1519080, Note_on_c, 4, 59, 0
6, 1519080, Note_on_c, 4, 55, 100
6, 1519200, Note_on_c, 4, 55, 0
6, 1519200, Note_on_c, 4, 50, 100
6, 1519320, Note_on_c, 4, 50, 0
6, 1519320, Note_on_c, 4, 47, 100
6, 1519440, Note_on_c, 4, 47, 0
6, 1519440, Note_on_c, 4, 43, 100
6, 1519680, Note_on_c, 4, 43, 0
6, 1688880, Note_on_c, 4, 55, 100
6, 1689120, Note_on_c, 4, 55, 0
6, 1689120, Note_on_c, 4, 59, 100
6, 1689360, Note_on_c, 4, 59, 0
6, 1689360, Note_on_c, 4, 62, 100
6, 1689600, Note_on_c, 4, 62, 0
6, 1689600, Note_on_c, 4, 67, 100
6, 1689840, Note_on_c, 4, 67, 0
6, 1689840, Note_on_c, 4, 71, 100
6, 1690080, Note_on_c, 4, 71, 0
6, 1690080, Note_on_c, 4, 73, 100
6, 1690320, Note_on_c, 4, 73, 0
6, 1690440, Note_on_c, 4, 74, 100
6, 1690560, Note_on_c, 4, 74, 0
6, 1690680, Note_on_c, 4, 69, 100
6, 1690800, Note_on_c, 4, 69, 0
6, 1690920, Note_on_c, 4, 66, 100
6, 1691040, Note_on_c, 4, 66, 0
6, 1691160, Note_on_c, 4, 62, 100
6, 1691280, Note_on_c, 4, 62, 0
6, 1691400, Note_on_c, 4, 57, 100
6, 1691520, Note_on_c, 4, 57, 0
6, 1691520, Note_on_c, 4, 55, 100
6, 1691640, Note_on_c, 4, 55, 0
6, 1691640, Note_on_c, 4, 54, 100
6, 1691760, Note_on_c, 4, 54, 0
6, 1691760, Note_on_c, 4, 52, 100
6, 1692000, Note_on_c, 4, 52, 0
6, 1692000, Note_on_c, 4, 55, 100
6, 1692240, Note_on_c, 4, 55, 0
6, 1692240, Note_on_c, 4, 57, 100
6, 1692480, Note_on_c, 4, 57, 0
6, 1692480, Note_on_c, 4, 61, 100
6, 1692720, Note_on_c, 4, 61, 0
6, 1692720, Note_on_c, 4, 64, 100
6, 1692960, Note_on_c, 4, 64, 0
6, 1692960, Note_on_c, 4, 67, 100
6, 1693200, Note_on_c, 4, 67, 0
6, 1693320, Note_on_c, 4, 66, 100
6, 1693440, Note_on_c, 4, 66, 0
6, 1693560, Note_on_c, 4, 62, 100
6, 1693680, Note_on_c, 4, 62, 0
6, 1693800, Note_on_c, 4, 57, 100
6, 1693920, Note_on_c, 4, 57, 0
6, 1694040, Note_on_c, 4, 54, 100
6, 1694160, Note_on_c, 4, 54, 0
6, 1694280, Note_on_c, 4, 52, 100
6, 1694400, Note_on_c, 4, 52, 0
6, 1694400, Note_on_c, 4, 50, 100
6, 1694520, Note_on_c, 4, 50, 0
6, 1694520, Note_on_c, 4, 48, 100
6, 1694640, Note_on_c, 4, 48, 0
6, 1694640, Note_on_c, 4, 47, 100
6, 1694880, Note_on_c, 4, 47, 0
6, 1694880, Note_on_c, 4, 50, 100
6, 1695120, Note_on_c, 4, 50, 0
6, 1695120, Note_on_c, 4, 55, 100
6, 1695360, Note_on_c, 4, 55, 0
6, 1695360, Note_on_c, 4, 59, 100
6, 1695600, Note_on_c, 4, 59, 0
6, 1695600, Note_on_c, 4, 62, 100
6, 1695840, Note_on_c, 4, 62, 0
6, 1695840, Note_on_c, 4, 65, 100
6, 1696080, Note_on_c, 4, 65, 0
6, 1696200, Note_on_c, 4, 64, 100
6, 1696320, Note_on_c, 4, 64, 0
6, 1696440, Note_on_c, 4, 60, 100
6, 1696560, Note_on_c, 4, 60, 0
6, 1696680, Note_on_c, 4, 55, 100
6, 1696800, Note_on_c, 4, 55, 0
6, 1696920, Note_on_c, 4, 52, 100
6, 1697040, Note_on_c, 4, 52, 0
6, 1697160, Note_on_c, 4, 48, 100
6, 1697280, Note_on_c, 4, 48, 0
6, 1697280, Note_on_c, 4, 47, 100
6, 1697400, Note_on_c, 4, 47, 0
6, 1697400, Note_on_c, 4, 45, 100
6, 1697520, Note_on_c, 4, 45, 0
6, 1697520, Note_on_c, 4, 50, 100
6, 1697760, Note_on_c, 4, 50, 0
6, 1697760, Note_on_c, 4, 54, 100
6, 1698000, Note_on_c, 4, 54, 0
6, 1698000, Note_on_c, 4, 57, 100
6, 1698240, Note_on_c, 4, 57, 0
6, 1698240, Note_on_c, 4, 62, 100
6, 1698480, Note_on_c, 4, 62, 0
6, 1698480, Note_on_c, 4, 66, 100
6, 1698720, Note_on_c, 4, 66, 0
6, 1698720, Note_on_c, 4, 69, 100
6, 1698960, Note_on_c, 4, 69, 0
6, 1699080, Note_on_c, 4, 71, 100
6, 1699200, Note_on_c, 4, 71, 0
6, 1699320, Note_on_c, 4, 67, 100
6, 1699440, Note_on_c, 4, 67, 0
6, 1699560, Note_on_c, 4, 62, 100
6, 1699680, Note_on_c, 4, 62, 0
6, 1699800, Note_on_c, 4, 59, 100
6, 1699920, Note_on_c, 4, 59, 0
6, 1700040, Note_on_c, 4, 57, 100
6, 1700160, Note_on_c, 4, 57, 0
6, 1700160, Note_on_c, 4, 55, 100
6, 1700280, Note_on_c, 4, 55, 0
6, 1700280, Note_on_c, 4, 54, 100
6, 1700400, Note_on_c, 4, 54, 0
6, 1700400, Note_on_c, 4, 55, 100
6, 1700640, Note_on_c, 4, 55, 0
6, 1700880, Note_on_c, 4, 83, 100
6, 1700920, Note_on_c, 4, 83, 0
6, 1700920, Note_on_c, 4, 81, 100
6, 1700960, Note_on_c, 4, 81, 0
6, 1700960, Note_on_c, 4, 83, 100
6, 1701360, Note_on_c, 4, 83, 0
6, 1701600, Note_on_c, 4, 64, 100
6, 1701840, Note_on_c, 4, 64, 0
6, 1701840, Note_on_c, 4, 54, 100
6, 1702080, Note_on_c, 4, 54, 0
6, 1702320, Note_on_c, 4, 81, 100
6, 1702360, Note_on_c, 4, 81, 0
6, 1702360, Note_on_c, 4, 79, 100
6, 1702400, Note_on_c, 4, 79, 0
6, 1702400, Note_on_c, 4, 81, 100
6, 1702800, Note_on_c, 4, 81, 0
6, 1703040, Note_on_c, 4, 62, 100
6, 1703280, Note_on_c, 4, 62, 0
6, 1703280, Note_on_c, 4, 71, 100
6, 1703360, Note_on_c, 4, 71, 0
6, 1703360, Note_on_c, 4, 72, 100
6, 1703440, Note_on_c, 4, 72, 0
6, 1703440, Note_on_c, 4, 71, 100
6, 1703520, Note_on_c, 4, 71, 0
6, 1703520, Note_on_c, 4, 69, 100
6, 1703600, Note_on_c, 4, 69, 0
6, 1703600, Note_on_c, 4, 71, 100
6, 1703680, Note_on_c, 4, 71, 0
6, 1703680, Note_on_c, 4, 69, 100
6, 1703760, Note_on_c, 4, 69, 0
6, 1703760, Note_on_c, 4, 67, 100
6, 1703840, Note_on_c, 4, 67, 0
6, 1703840, Note_on_c, 4, 69, 100
6, 1703920, Note_on_c, 4, 69, 0
6, 1703920, Note_on_c, 4, 67, 100
6, 1704000, Note_on_c, 4, 67, 0
6, 1704000, Note_on_c, 4, 66, 100
6, 1704080, Note_on_c, 4, 66, 0
6, 1704080, Note_on_c, 4, 67, 100
6, 1704160, Note_on_c, 4, 67, 0
6, 1704160, Note_on_c, 4, 66, 100
6, 1704240, Note_on_c, 4, 66, 0
6, 1704240, Note_on_c, 4, 64, 100
6, 1704320, Note_on_c, 4, 64, 0
6, 1704320, Note_on_c, 4, 66, 100
6, 1704400, Note_on_c, 4, 66, 0
6, 1704400, Note_on_c, 4, 64, 100
6, 1704480, Note_on_c, 4, 64, 0
6, 1704480, Note_on_c, 4, 62, 100
6, 1704560, Note_on_c, 4, 62, 0
6, 1704560, Note_on_c, 4, 64, 100
6, 1704640, Note_on_c, 4, 64, 0
6, 1704640, Note_on_c, 4, 62, 100
6, 1704720, Note_on_c, 4, 62, 0
6, 1704720, Note_on_c, 4, 61, 100
6, 1704800, Note_on_c, 4, 61, 0
6, 1704800, Note_on_c, 4, 62, 100
6, 1704880, Note_on_c, 4, 62, 0
6, 1704880, Note_on_c, 4, 61, 100
6, 1704960, Note_on_c, 4, 61, 0
6, 1704960, Note_on_c, 4, 59, 100
6, 1705040, Note_on_c, 4, 59, 0
6, 1705040, Note_on_c, 4, 61, 100
6, 1705120, Note_on_c, 4, 61, 0
6, 1705120, Note_on_c, 4, 59, 100
6, 1705200, Note_on_c, 4, 59, 0
6, 1705200, Note_on_c, 4, 57, 100
6, 1705280, Note_on_c, 4, 57, 0
6, 1705280, Note_on_c, 4, 59, 100
6, 1705360, Note_on_c, 4, 59, 0
6, 1705360, Note_on_c, 4, 57, 100
6, 1705440, Note_on_c, 4, 57, 0
6, 1705440, Note_on_c, 4, 55, 100
6, 1705520, Note_on_c, 4, 55, 0
6, 1705520, Note_on_c, 4, 57, 100
6, 1705600, Note_on_c, 4, 57, 0
6, 1705600, Note_on_c, 4, 55, 100
6, 1705680, Note_on_c, 4, 55, 0
6, 1705680, Note_on_c, 4, 54, 100
6, 1705760, Note_on_c, 4, 54, 0
6, 1705760, Note_on_c, 4, 55, 100
6, 1705840, Note_on_c, 4, 55, 0
6, 1705840, Note_on_c, 4, 54, 100
6, 1705920, Note_on_c, 4, 54, 0
6, 1705920, Note_on_c, 4, 52, 100
6, 1706000, Note_on_c, 4, 52, 0
6, 1706000, Note_on_c, 4, 54, 100
6, 1706080, Note_on_c, 4, 54, 0
6, 1706080, Note_on_c, 4, 52, 100
6, 1706160, Note_on_c, 4, 52, 0
6, 1706160, Note_on_c, 4, 50, 100
6, 1706400, Note_on_c, 4, 50, 0
6, 1706400, Note_on_c, 4, 57, 100
6, 1706640, Note_on_c, 4, 57, 0
6, 1706640, Note_on_c, 4, 66, 100
6, 1706880, Note_on_c, 4, 66, 0
6, 1706880, Note_on_c, 4, 57, 100
6, 1707120, Note_on_c, 4, 57, 0
6, 1707120, Note_on_c, 4, 50, 100
6, 1707360, Note_on_c, 4, 50, 0
6, 1707360, Note_on_c, 4, 60, 100
6, 1707600, Note_on_c, 4, 60, 0
6, 1707600, Note_on_c, 4, 59, 100
6, 1707680, Note_on_c, 4, 59, 0
6, 1707680, Note_on_c, 4, 55, 100
6, 1707760, Note_on_c, 4, 55, 0
6, 1707760, Note_on_c, 4, 62, 100
6, 1707840, Note_on_c, 4, 62, 0
6, 1707840, Note_on_c, 4, 61, 100
6, 1707920, Note_on_c, 4, 61, 0
6, 1707920, Note_on_c, 4, 57, 100
6, 1708000, Note_on_c, 4, 57, 0
6, 1708000, Note_on_c, 4, 64, 100
6, 1708080, Note_on_c, 4, 64, 0
6, 1708080, Note_on_c, 4, 62, 100
6, 1708160, Note_on_c, 4, 62, 0
6, 1708160, Note_on_c, 4, 59, 100
6, 1708240, Note_on_c, 4, 59, 0
6, 1708240, Note_on_c, 4, 66, 100
6, 1708320, Note_on_c, 4, 66, 0
6, 1708320, Note_on_c, 4, 64, 100
6, 1708400, Note_on_c, 4, 64, 0
6, 1708400, Note_on_c, 4, 61, 100
6, 1708480, Note_on_c, 4, 61, 0
6, 1708480, Note_on_c, 4, 67, 100
6, 1708560, Note_on_c, 4, 67, 0
6, 1708560, Note_on_c, 4, 66, 100
6, 1708640, Note_on_c, 4, 66, 0
6, 1708640, Note_on_c, 4, 62, 100
6, 1708720, Note_on_c, 4, 62, 0
6, 1708720, Note_on_c, 4, 69, 100
6, 1708800, Note_on_c, 4, 69, 0
6, 1708800, Note_on_c, 4, 67, 100
6, 1708880, Note_on_c, 4, 67, 0
6, 1708880, Note_on_c, 4, 64, 100
6, 1708960, Note_on_c, 4, 64, 0
6, 1708960, Note_on_c, 4, 71, 100
6, 1709040, Note_on_c, 4, 71, 0
6, 1709040, Note_on_c, 4, 69, 100
6, 1709360, Note_on_c, 4, 69, 0
6, 1709360, Note_on_c, 4, 71, 100
6, 1709440, Note_on_c, 4, 71, 0
6, 1709440, Note_on_c, 4, 73, 100
6, 1709520, Note_on_c, 4, 73, 0
6, 1709520, Note_on_c, 4, 74, 100
6, 1709600, Note_on_c, 4, 74, 0
6, 1709600, Note_on_c, 4, 73, 100
6, 1709680, Note_on_c, 4, 73, 0
6, 1709680, Note_on_c, 4, 71, 100
6, 1709760, Note_on_c, 4, 71, 0
6, 1709760, Note_on_c, 4, 69, 100
6, 1710080, Note_on_c, 4, 69, 0
6, 1710080, Note_on_c, 4, 67, 100
6, 1710160, Note_on_c, 4, 67, 0
6, 1710160, Note_on_c, 4, 66, 100
6, 1710240, Note_on_c, 4, 66, 0
6, 1710240, Note_on_c, 4, 64, 100
6, 1710320, Note_on_c, 4, 64, 0
6, 1710320, Note_on_c, 4, 66, 100
6, 1710400, Note_on_c, 4, 66, 0
6, 1710400, Note_on_c, 4, 67, 100
6, 1710480, Note_on_c, 4, 67, 0
6, 1710480, Note_on_c, 4, 66, 100
6, 1710720, Note_on_c, 4, 66, 0
6, 1711040, Note_on_c, 4, 66, 100
6, 1711120, Note_on_c, 4, 66, 0
6, 1711120, Note_on_c, 4, 69, 100
6, 1711200, Note_on_c, 4, 69, 0
6, 1711200, Note_on_c, 4, 74, 100
6, 1711280, Note_on_c, 4, 74, 0
6, 1711280, Note_on_c, 4, 78, 100
6, 1711360, Note_on_c, 4, 78, 0
6, 1711360, Note_on_c, 4, 81, 100
6, 1711440, Note_on_c, 4, 81, 0
6, 1711440, Note_on_c, 4, 86, 100
6, 1711680, Note_on_c, 4, 86, 0
6, 1711920, Note_on_c, 4, 55, 100
6, 1712160, Note_on_c, 4, 55, 0
6, 1712160, Note_on_c, 4, 59, 100
6, 1712400, Note_on_c, 4, 59, 0
6, 1712400, Note_on_c, 4, 62, 100
6, 1712640, Note_on_c, 4, 62, 0
6, 1712640, Note_on_c, 4, 67, 100
6, 1712880, Note_on_c, 4, 67, 0
6, 1712880, Note_on_c, 4, 71, 100
6, 1713120, Note_on_c, 4, 71, 0
6, 1713120, Note_on_c, 4, 73, 100
6, 1713360, Note_on_c, 4, 73, 0
6, 1713480, Note_on_c, 4, 74, 100
6, 1713600, Note_on_c, 4, 74, 0
6, 1713720, Note_on_c, 4, 69, 100
6, 1713840, Note_on_c, 4, 69, 0
6, 1713960, Note_on_c, 4, 66, 100
6, 1714080, Note_on_c, 4, 66, 0
6, 1714200, Note_on_c, 4, 62, 100
6, 1714320, Note_on_c, 4, 62, 0
6, 1714440, Note_on_c, 4, 57, 100
6, 1714560, Note_on_c, 4, 57, 0
6, 1714560, Note_on_c, 4, 55, 100
6, 1714680, Note_on_c, 4, 55, 0
6, 1714680, Note_on_c, 4, 54, 100
6, 1714800, Note_on_c, 4, 54, 0
6, 1714800, Note_on_c, 4, 52, 100
6, 1715040, Note_on_c, 4, 52, 0
6, 1715040, Note_on_c, 4, 55, 100
6, 1715280, Note_on_c, 4, 55, 0
6, 1715280, Note_on_c, 4, 57, 100
6, 1715520, Note_on_c, 4, 57, 0
6, 1715520, Note_on_c, 4, 61, 100
6, 1715760, Note_on_c, 4, 61, 0
6, 1715760, Note_on_c, 4, 64, 100
6, 1716000, Note_on_c, 4, 64, 0
6, 1716000, Note_on_c, 4, 67, 100
6, 1716240, Note_on_c, 4, 67, 0
6, 1716360, Note_on_c, 4, 66, 100
6, 1716480, Note_on_c, 4, 66, 0
6, 1716600, Note_on_c, 4, 62, 100
6, 1716720, Note_on_c, 4, 62, 0
6, 1716840, Note_on_c, 4, 57, 100
6, 1716960, Note_on_c, 4, 57, 0
6, 1717080, Note_on_c, 4, 54, 100
6, 1717200, Note_on_c, 4, 54, 0
6, 1717320, Note_on_c, 4, 52, 100
6, 1717440, Note_on_c, 4, 52, 0
6, 1717440, Note_on_c, 4, 50, 100
6, 1717560, Note_on_c, 4, 50, 0
6, 1717560, Note_on_c, 4, 48, 100
6, 1717680, Note_on_c, 4, 48, 0
6, 1717680, Note_on_c, 4, 47, 100
6, 1717920, Note_on_c, 4, 47, 0
6, 1717920, Note_on_c, 4, 50, 100
6, 1718160, Note_on_c, 4, 50, 0
6, 1718160, Note_on_c, 4, 55, 100
6, 1718400, Note_on_c, 4, 55, 0
6, 1718400, Note_on_c, 4, 59, 100
6, 1718640, Note_on_c, 4, 59, 0
6, 1718640, Note_on_c, 4, 62, 100
6, 1718880, Note_on_c, 4, 62, 0
6, 1718880, Note_on_c, 4, 65, 100
6, 1719120, Note_on_c, 4, 65, 0
6, 1719240, Note_on_c, 4, 64, 100
6, 1719360, Note_on_c, 4, 64, 0
6, 1719480, Note_on_c, 4, 60, 100
6, 1719600, Note_on_c, 4, 60, 0
6, 1719720, Note_on_c, 4, 55, 100
6, 1719840, Note_on_c, 4, 55, 0
6, 1719960, Note_on_c, 4, 52, 100
6, 1720080, Note_on_c, 4, 52, 0
6, 1720200, Note_on_c, 4, 48, 100
6, 1720320, Note_on_c, 4, 48, 0
6, 1720320, Note_on_c, 4, 47, 100
6, 1720440, Note_on_c, 4, 47, 0
6, 1720440, Note_on_c, 4, 45, 100
6, 1720560, Note_on_c, 4, 45, 0
6, 1720560, Note_on_c, 4, 50, 100
6, 1720800, Note_on_c, 4, 50, 0
6, 1720800, Note_on_c, 4, 54, 100
6, 1721040, Note_on_c, 4, 54, 0
6, 1721040, Note_on_c, 4, 57, 100
6, 1721280, Note_on_c, 4, 57, 0
6, 1721280, Note_on_c, 4, 62, 100
6, 1721520, Note_on_c, 4, 62, 0
6, 1721520, Note_on_c, 4, 66, 100
6, 1721760, Note_on_c, 4, 66, 0
6, 1721760, Note_on_c, 4, 69, 100
6, 1722000, Note_on_c, 4, 69, 0
6, 1722120, Note_on_c, 4, 71, 100
6, 1722240, Note_on_c, 4, 71, 0
6, 1722360, Note_on_c, 4, 67, 100
6, 1722480, Note_on_c, 4, 67, 0
6, 1722600, Note_on_c, 4, 62, 100
6, 1722720, Note_on_c, 4, 62, 0
6, 1722840, Note_on_c, 4, 59, 100
6, 1722960, Note_on_c, 4, 59, 0
6, 1723080, Note_on_c, 4, 57, 100
6, 1723200, Note_on_c, 4, 57, 0
6, 1723200, Note_on_c, 4, 55, 100
6, 1723320, Note_on_c, 4, 55, 0
6, 1723320, Note_on_c, 4, 54, 100
6, 1723440, Note_on_c, 4, 54, 0
6, 1723440, Note_on_c, 4, 55, 100
6, 1723680, Note_on_c, 4, 55, 0
6, 1723920, Note_on_c, 4, 83, 100
6, 1723960, Note_on_c, 4, 83, 0
6, 1723960, Note_on_c, 4, 81, 100
6, 1724000, Note_on_c, 4, 81, 0
6, 1724000, Note_on_c, 4, 83, 100
6, 1724400, Note_on_c, 4, 83, 0
6, 1724640, Note_on_c, 4, 64, 100
6, 1724880, Note_on_c, 4, 64, 0
6, 1724880, Note_on_c, 4, 54, 100
6, 1725120, Note_on_c, 4, 54, 0
6, 1725360, Note_on_c, 4, 81, 100
6, 1725400, Note_on_c, 4, 81, 0
6, 1725400, Note_on_c, 4, 79, 100
6, 1725440, Note_on_c, 4, 79, 0
6, 1725440, Note_on_c, 4, 81, 100
6, 1725840, Note_on_c, 4, 81, 0
6, 1726080, Note_on_c, 4, 62, 100
6, 1726320, Note_on_c, 4, 62, 0
6, 1726320, Note_on_c, 4, 71, 100
6, 1726400, Note_on_c, 4, 71, 0
6, 1726400, Note_on_c, 4, 72, 100
6, 1726480, Note_on_c, 4, 72, 0
6, 1726480, Note_on_c, 4, 71, 100
6, 1726560, Note_on_c, 4, 71, 0
6, 1726560, Note_on_c, 4, 69, 100
6, 1726640, Note_on_c, 4, 69, 0
6, 1726640, Note_on_c, 4, 71, 100
6, 1726720, Note_on_c, 4, 71, 0
6, 1726720, Note_on_c, 4, 69, 100
6, 1726800, Note_on_c, 4, 69, 0
6, 1726800, Note_on_c, 4, 67, 100
6, 1726880, Note_on_c, 4, 67, 0
6, 1726880, Note_on_c, 4, 69, 100
6, 1726960, Note_on_c, 4, 69, 0
6, 1726960, Note_on_c, 4, 67, 100
6, 1727040, Note_on_c, 4, 67, 0
6, 1727040, Note_on_c, 4, 66, 100
6, 1727120, Note_on_c, 4, 66, 0
6, 1727120, Note_on_c, 4, 67, 100
6, 1727200, Note_on_c, 4, 67, 0
6, 1727200, Note_on_c, 4, 66, 100
6, 1727280, Note_on_c, 4, 66, 0
6, 1727280, Note_on_c, 4, 64, 100
6, 1727360, Note_on_c, 4, 64, 0
6, 1727360, Note_on_c, 4, 66, 100
6, 1727440, Note_on_c, 4, 66, 0
6, 1727440, Note_on_c, 4, 64, 100
6, 1727520, Note_on_c, 4, 64, 0
6, 1727520, Note_on_c, 4, 62, 100
6, 1727600, Note_on_c, 4, 62, 0
6, 1727600, Note_on_c, 4, 64, 100
6, 1727680, Note_on_c, 4, 64, 0
6, 1727680, Note_on_c, 4, 62, 100
6, 1727760, Note_on_c, 4, 62, 0
6, 1727760, Note_on_c, 4, 61, 100
6, 1727840, Note_on_c, 4, 61, 0
6, 1727840, Note_on_c, 4, 62, 100
6, 1727920, Note_on_c, 4, 62, 0
6, 1727920, Note_on_c, 4, 61, 100
6, 1728000, Note_on_c, 4, 61, 0
6, 1728000, Note_on_c, 4, 59, 100
6, 1728080, Note_on_c, 4, 59, 0
6, 1728080, Note_on_c, 4, 61, 100
6, 1728160, Note_on_c, 4, 61, 0
6, 1728160, Note_on_c, 4, 59, 100
6, 1728240, Note_on_c, 4, 59, 0
6, 1728240, Note_on_c, 4, 57, 100
6, 1728320, Note_on_c, 4, 57, 0
6, 1728320, Note_on_c, 4, 59, 100
6, 1728400, Note_on_c, 4, 59, 0
6, 1728400, Note_on_c, 4, 57, 100
6, 1728480, Note_on_c, 4, 57, 0
6, 1728480, Note_on_c, 4, 55, 100
6, 1728560, Note_on_c, 4, 55, 0
6, 1728560, Note_on_c, 4, 57, 100
6, 1728640, Note_on_c, 4, 57, 0
6, 1728640, Note_on_c, 4, 55, 100
6, 1728720, Note_on_c, 4, 55, 0
6, 1728720, Note_on_c, 4, 54, 100
6, 1728800, Note_on_c, 4, 54, 0
6, 1728800, Note_on_c, 4, 55, 100
6, 1728880, Note_on_c, 4, 55, 0
6, 1728880, Note_on_c, 4, 54, 100
6, 1728960, Note_on_c, 4, 54, 0
6, 1728960, Note_on_c, 4, 52, 100
6, 1729040, Note_on_c, 4, 52, 0
6, 1729040, Note_on_c, 4, 54, 100
6, 1729120, Note_on_c, 4, 54, 0
6, 1729120, Note_on_c, 4, 52, 100
6, 1729200, Note_on_c, 4, 52, 0
6, 1729200, Note_on_c, 4, 50, 100
6, 1729440, Note_on_c, 4, 50, 0
6, 1729440, Note_on_c, 4, 57, 100
6, 1729680, Note_on_c, 4, 57, 0
6, 1729680, Note_on_c, 4, 66, 100
6, 1729920, Note_on_c, 4, 66, 0
6, 1729920, Note_on_c, 4, 57, 100
6, 1730160, Note_on_c, 4, 57, 0
6, 1730160, Note_on_c, 4, 50, 100
6, 1730400, Note_on_c, 4, 50, 0
6, 1730400, Note_on_c, 4, 60, 100
6, 1730640, Note_on_c, 4, 60, 0
6, 1730640, Note_on_c, 4, 59, 100
6, 1730720, Note_on_c, 4, 59, 0
6, 1730720, Note_on_c, 4, 55, 100
6, 1730800, Note_on_c, 4, 55, 0
6, 1730800, Note_on_c, 4, 62, 100
6, 1730880, Note_on_c, 4, 62, 0
6, 1730880, Note_on_c, 4, 61, 100
6, 1730960, Note_on_c, 4, 61, 0
6, 1730960, Note_on_c, 4, 57, 100
6, 1731040, Note_on_c, 4, 57, 0
6, 1731040, Note_on_c, 4, 64, 100
6, 1731120, Note_on_c, 4, 64, 0
6, 1731120, Note_on_c, 4, 62, 100
6, 1731200, Note_on_c, 4, 62, 0
6, 1731200, Note_on_c, 4, 59, 100
6, 1731280, Note_on_c, 4, 59, 0
6, 1731280, Note_on_c, 4, 66, 100
6, 1731360, Note_on_c, 4, 66, 0
6, 1731360, Note_on_c, 4, 64, 100
6, 1731440, Note_on_c, 4, 64, 0
6, 1731440, Note_on_c, 4, 61, 100
6, 1731520, Note_on_c, 4, 61, 0
6, 1731520, Note_on_c, 4, 67, 100
6, 1731600, Note_on_c, 4, 67, 0
6, 1731600, Note_on_c, 4, 66, 100
6, 1731680, Note_on_c, 4, 66, 0
6, 1731680, Note_on_c, 4, 62, 100
6, 1731760, Note_on_c, 4, 62, 0
6, 1731760, Note_on_c, 4, 69, 100
6, 1731840, Note_on_c, 4, 69, 0
6, 1731840, Note_on_c, 4, 67, 100
6, 1731920, Note_on_c, 4, 67, 0
6, 1731920, Note_on_c, 4, 64, 100
6, 1732000, Note_on_c, 4, 64, 0
6, 1732000, Note_on_c, 4, 71, 100
6, 1732080, Note_on_c, 4, 71, 0
6, 1732080, Note_on_c, 4, 69, 100
6, 1732400, Note_on_c, 4, 69, 0
6, 1732400, Note_on_c, 4, 71, 100
6, 1732480, Note_on_c, 4, 71, 0
6, 1732480, Note_on_c, 4, 73, 100
6, 1732560, Note_on_c, 4, 73, 0
6, 1732560, Note_on_c, 4, 74, 100
6, 1732640, Note_on_c, 4, 74, 0
6, 1732640, Note_on_c, 4, 73, 100
6, 1732720, Note_on_c, 4, 73, 0
6, 1732720, Note_on_c, 4, 71, 100
6, 1732800, Note_on_c, 4, 71, 0
6, 1732800, Note_on_c, 4, 69, 100
6, 1733120, Note_on_c, 4, 69, 0
6, 1733120, Note_on_c, 4, 67, 100
6, 1733200, Note_on_c, 4, 67, 0
6, 1733200, Note_on_c, 4, 66, 100
6, 1733280, Note_on_c, 4, 66, 0
6, 1733280, Note_on_c, 4, 64, 100
6, 1733360, Note_on_c, 4, 64, 0
6, 1733360, Note_on_c, 4, 66, 100
6, 1733440, Note_on_c, 4, 66, 0
6, 1733440, Note_on_c, 4, 67, 100
6, 1733520, Note_on_c, 4, 67, 0
6, 1733520, Note_on_c, 4, 66, 100
6, 1733760, Note_on_c, 4, 66, 0
6, 1734080, Note_on_c, 4, 66, 100
6, 1734160, Note_on_c, 4, 66, 0
6, 1734160, Note_on_c, 4, 69, 100
6, 1734240, Note_on_c, 4, 69, 0
6, 1734240, Note_on_c, 4, 74, 100
6, 1734320, Note_on_c, 4, 74, 0
6, 1734320, Note_on_c, 4, 78, 100
6, 1734400, Note_on_c, 4, 78, 0
6, 1734400, Note_on_c, 4, 81, 100
6, 1734480, Note_on_c, 4, 81, 0
6, 1734480, Note_on_c, 4, 86, 100
6, 1734720, Note_on_c, 4, 86, 0
6, 1734960, Note_on_c, 4, 50, 100
6, 1735200, Note_on_c, 4, 50, 0
6, 1735200, Note_on_c, 4, 38, 100
6, 1735440, Note_on_c, 4, 38, 0
6, 1735440, Note_on_c, 4, 42, 100
6, 1735680, Note_on_c, 4, 42, 0
6, 1735680, Note_on_c, 4, 45, 100
6, 1735920, Note_on_c, 4, 45, 0
6, 1735920, Note_on_c, 4, 50, 100
6, 1736160, Note_on_c, 4, 50, 0
6, 1736160, Note_on_c, 4, 54, 100
6, 1736400, Note_on_c, 4, 54, 0
6, 1736400, Note_on_c, 4, 55, 100
6, 1736640, Note_on_c, 4, 55, 0
6, 1736640, Note_on_c, 4, 59, 100
6, 1736880, Note_on_c, 4, 59, 0
6, 1736880, Note_on_c, 4, 62, 100
6, 1737120, Note_on_c, 4, 62, 0
6, 1737120, Note_on_c, 4, 67, 100
6, 1737360, Note_on_c, 4, 67, 0
6, 1737360, Note_on_c, 4, 71, 100
6, 1737420, Note_on_c, 4, 71, 0
6, 1737420, Note_on_c, 4, 69, 100
6, 1737480, Note_on_c, 4, 69, 0
6, 1737480, Note_on_c, 4, 71, 100
6, 1737900, Note_on_c, 4, 71, 0
6, 1737920, Note_on_c, 4, 64, 100
6, 1738000, Note_on_c, 4, 64, 0
6, 1738000, Note_on_c, 4, 63, 100
6, 1738080, Note_on_c, 4, 63, 0
6, 1738080, Note_on_c, 4, 64, 100
6, 1738160, Note_on_c, 4, 64, 0
6, 1738160, Note_on_c, 4, 66, 100
6, 1738240, Note_on_c, 4, 66, 0
6, 1738240, Note_on_c, 4, 67, 100
6, 1738320, Note_on_c, 4, 67, 0
6, 1738320, Note_on_c, 4, 69, 100
6, 1738400, Note_on_c, 4, 69, 0
6, 1738400, Note_on_c, 4, 67, 100
6, 1738480, Note_on_c, 4, 67, 0
6, 1738480, Note_on_c, 4, 66, 100
6, 1738560, Note_on_c, 4, 66, 0
6, 1738560, Note_on_c, 4, 67, 100
6, 1738640, Note_on_c, 4, 67, 0
6, 1738640, Note_on_c, 4, 69, 100
6, 1738720, Note_on_c, 4, 69, 0
6, 1738720, Note_on_c, 4, 71, 100
6, 1738800, Note_on_c, 4, 71, 0
6, 1738800, Note_on_c, 4, 72, 100
6, 1738880, Note_on_c, 4, 72, 0
6, 1738880, Note_on_c, 4, 71, 100
6, 1738960, Note_on_c, 4, 71, 0
6, 1738960, Note_on_c, 4, 69, 100
6, 1739040, Note_on_c, 4, 69, 0
6, 1739040, Note_on_c, 4, 67, 100
6, 1739120, Note_on_c, 4, 67, 0
6, 1739120, Note_on_c, 4, 66, 100
6, 1739200, Note_on_c, 4, 66, 0
6, 1739200, Note_on_c, 4, 64, 100
6, 1739280, Note_on_c, 4, 64, 0
6, 1739280, Note_on_c, 4, 63, 100
6, 1739600, Note_on_c, 4, 63, 0
6, 1739600, Note_on_c, 4, 64, 100
6, 1739680, Note_on_c, 4, 64, 0
6, 1739680, Note_on_c, 4, 66, 100
6, 1739760, Note_on_c, 4, 66, 0
6, 1739760, Note_on_c, 4, 67, 100
6, 1739840, Note_on_c, 4, 67, 0
6, 1739840, Note_on_c, 4, 66, 100
6, 1739920, Note_on_c, 4, 66, 0
6, 1739920, Note_on_c, 4, 64, 100
6, 1740000, Note_on_c, 4, 64, 0
6, 1740000, Note_on_c, 4, 66, 100
6, 1740080, Note_on_c, 4, 66, 0
6, 1740080, Note_on_c, 4, 67, 100
6, 1740160, Note_on_c, 4, 67, 0
6, 1740160, Note_on_c, 4, 69, 100
6, 1740240, Note_on_c, 4, 69, 0
6, 1740240, Note_on_c, 4, 59, 100
6, 1740480, Note_on_c, 4, 59, 0
6, 1740480, Note_on_c, 4, 57, 100
6, 1740720, Note_on_c, 4, 57, 0
6, 1740720, Note_on_c, 4, 55, 100
6, 1740800, Note_on_c, 4, 55, 0
6, 1740800, Note_on_c, 4, 54, 100
6, 1740880, Note_on_c, 4, 54, 0
6, 1740880, Note_on_c, 4, 52, 100
6, 1741040, Note_on_c, 4, 52, 0
6, 1741040, Note_on_c, 4, 51, 100
6, 1741120, Note_on_c, 4, 51, 0
6, 1741120, Note_on_c, 4, 52, 100
6, 1741200, Note_on_c, 4, 52, 0
6, 1741200, Note_on_c, 4, 53, 100
6, 1741280, Note_on_c, 4, 53, 0
6, 1741280, Note_on_c, 4, 52, 100
6, 1741360, Note_on_c, 4, 52, 0
6, 1741360, Note_on_c, 4, 53, 100
6, 1741440, Note_on_c, 4, 53, 0
6, 1741440, Note_on_c, 4, 54, 100
6, 1741520, Note_on_c, 4, 54, 0
6, 1741520, Note_on_c, 4, 52, 100
6, 1741600, Note_on_c, 4, 52, 0
6, 1741600, Note_on_c, 4, 54, 100
6, 1741680, Note_on_c, 4, 54, 0
6, 1741680, Note_on_c, 4, 55, 100
6, 1741760, Note_on_c, 4, 55, 0
6, 1741760, Note_on_c, 4, 54, 100
6, 1741840, Note_on_c, 4, 54, 0
6, 1741840, Note_on_c, 4, 55, 100
6, 1741920, Note_on_c, 4, 55, 0
6, 1741920, Note_on_c, 4, 56, 100
6, 1742000, Note_on_c, 4, 56, 0
6, 1742000, Note_on_c, 4, 54, 100
6, 1742080, Note_on_c, 4, 54, 0
6, 1742080, Note_on_c, 4, 56, 100
6, 1742160, Note_on_c, 4, 56, 0
6, 1742160, Note_on_c, 4, 57, 100
6, 1742480, Note_on_c, 4, 57, 0
6, 1742490, Note_on_c, 4, 58, 100
6, 1742560, Note_on_c, 4, 59, 100
6, 1742570, Note_on_c, 4, 58, 0
6, 1742640, Note_on_c, 4, 59, 0
6, 1742640, Note_on_c, 4, 60, 100
6, 1742720, Note_on_c, 4, 60, 0
6, 1742720, Note_on_c, 4, 59, 100
6, 1742800, Note_on_c, 4, 59, 0
6, 1742800, Note_on_c, 4, 60, 100
6, 1742880, Note_on_c, 4, 60, 0
6, 1742880, Note_on_c, 4, 61, 100
6, 1742960, Note_on_c, 4, 61, 0
6, 1742960, Note_on_c, 4, 59, 100
6, 1743040, Note_on_c, 4, 59, 0
6, 1743040, Note_on_c, 4, 61, 100
6, 1743120, Note_on_c, 4, 61, 0
6, 1743120, Note_on_c, 4, 62, 100
6, 1743200, Note_on_c, 4, 62, 0
6, 1743200, Note_on_c, 4, 61, 100
6, 1743280, Note_on_c, 4, 61, 0
6, 1743280, Note_on_c, 4, 62, 100
6, 1743360, Note_on_c, 4, 62, 0
6, 1743360, Note_on_c, 4, 63, 100
6, 1743440, Note_on_c, 4, 63, 0
6, 1743440, Note_on_c, 4, 61, 100
6, 1743520, Note_on_c, 4, 61, 0
6, 1743520, Note_on_c, 4, 63, 100
6, 1743600, Note_on_c, 4, 63, 0
6, 1743600, Note_on_c, 4, 64, 100
6, 1743680, Note_on_c, 4, 64, 0
6, 1743680, Note_on_c, 4, 63, 100
6, 1743760, Note_on_c, 4, 63, 0
6, 1743760, Note_on_c, 4, 64, 100
6, 1743840, Note_on_c, 4, 64, 0
6, 1743840, Note_on_c, 4, 66, 100
6, 1743920, Note_on_c, 4, 66, 0
6, 1743920, Note_on_c, 4, 64, 100
6, 1744000, Note_on_c, 4, 64, 0
6, 1744000, Note_on_c, 4, 66, 100
6, 1744080, Note_on_c, 4, 66, 0
6, 1744080, Note_on_c, 4, 67, 100
6, 1744160, Note_on_c, 4, 67, 0
6, 1744160, Note_on_c, 4, 66, 100
6, 1744240, Note_on_c, 4, 66, 0
6, 1744240, Note_on_c, 4, 67, 100
6, 1744320, Note_on_c, 4, 67, 0
6, 1744320, Note_on_c, 4, 69, 100
6, 1744400, Note_on_c, 4, 69, 0
6, 1744400, Note_on_c, 4, 67, 100
6, 1744480, Note_on_c, 4, 67, 0
6, 1744480, Note_on_c, 4, 69, 100
6, 1744560, Note_on_c, 4, 69, 0
6, 1744560, Note_on_c, 4, 71, 100
6, 1744640, Note_on_c, 4, 71, 0
6, 1744640, Note_on_c, 4, 69, 100
6, 1744720, Note_on_c, 4, 69, 0
6, 1744720, Note_on_c, 4, 71, 100
6, 1744800, Note_on_c, 4, 71, 0
6, 1744800, Note_on_c, 4, 72, 100
6, 1744880, Note_on_c, 4, 72, 0
6, 1744880, Note_on_c, 4, 71, 100
6, 1744960, Note_on_c, 4, 71, 0
6, 1744960, Note_on_c, 4, 69, 100
6, 1745040, Note_on_c, 4, 69, 0
6, 1745040, Note_on_c, 4, 67, 100
6, 1745120, Note_on_c, 4, 67, 0
6, 1745120, Note_on_c, 4, 66, 100
6, 1745200, Note_on_c, 4, 66, 0
6, 1745200, Note_on_c, 4, 67, 100
6, 1745280, Note_on_c, 4, 67, 0
6, 1745280, Note_on_c, 4, 69, 100
6, 1745360, Note_on_c, 4, 69, 0
6, 1745360, Note_on_c, 4, 67, 100
6, 1745440, Note_on_c, 4, 67, 0
6, 1745440, Note_on_c, 4, 66, 100
6, 1745520, Note_on_c, 4, 66, 0
6, 1745520, Note_on_c, 4, 64, 100
6, 1746240, Note_on_c, 4, 64, 0
6, 1746240, Note_on_c, 4, 50, 100
6, 1746480, Note_on_c, 4, 50, 0
6, 1746480, Note_on_c, 4, 48, 100
6, 1746720, Note_on_c, 4, 48, 0
6, 1746720, Note_on_c, 4, 64, 100
6, 1746840, Note_on_c, 4, 64, 0
6, 1746960, Note_on_c, 4, 64, 100
6, 1747080, Note_on_c, 4, 64, 0
6, 1747200, Note_on_c, 4, 64, 100
6, 1747320, Note_on_c, 4, 64, 0
6, 1747440, Note_on_c, 4, 64, 100
6, 1747560, Note_on_c, 4, 64, 0
6, 1747680, Note_on_c, 4, 48, 100
6, 1747920, Note_on_c, 4, 48, 0
6, 1747920, Note_on_c, 4, 47, 100
6, 1748160, Note_on_c, 4, 47, 0
6, 1748160, Note_on_c, 4, 62, 100
6, 1748280, Note_on_c, 4, 62, 0
6, 1748400, Note_on_c, 4, 62, 100
6, 1748520, Note_on_c, 4, 62, 0
6, 1748640, Note_on_c, 4, 62, 100
6, 1748760, Note_on_c, 4, 62, 0
6, 1748880, Note_on_c, 4, 62, 100
6, 1749000, Note_on_c, 4, 62, 0
6, 1749120, Note_on_c, 4, 47, 100
6, 1749360, Note_on_c, 4, 47, 0
6, 1749360, Note_on_c, 4, 45, 100
6, 1749600, Note_on_c, 4, 45, 0
6, 1749680, Note_on_c, 4, 59, 100
6, 1749760, Note_on_c, 4, 59, 0
6, 1749760, Note_on_c, 4, 67, 100
6, 1749840, Note_on_c, 4, 67, 0
6, 1749920, Note_on_c, 4, 57, 100
6, 1750000, Note_on_c, 4, 57, 0
6, 1750000, Note_on_c, 4, 66, 100
6, 1750080, Note_on_c, 4, 66, 0
6, 1750160, Note_on_c, 4, 55, 100
6, 1750240, Note_on_c, 4, 55, 0
6, 1750240, Note_on_c, 4, 64, 100
6, 1750320, Note_on_c, 4, 64, 0
6, 1750400, Note_on_c, 4, 54, 100
6, 1750480, Note_on_c, 4, 54, 0
6, 1750480, Note_on_c, 4, 62, 100
6, 1750560, Note_on_c, 4, 62, 0
6, 1750640, Note_on_c, 4, 55, 100
6, 1750720, Note_on_c, 4, 55, 0
6, 1750720, Note_on_c, 4, 64, 100
6, 1750800, Note_on_c, 4, 64, 0
6, 1750800, Note_on_c, 4, 50, 100
6, 1751040, Note_on_c, 4, 50, 0
6, 1751120, Note_on_c, 4, 57, 100
6, 1751200, Note_on_c, 4, 57, 0
6, 1751200, Note_on_c, 4, 66, 100
6, 1751280, Note_on_c, 4, 66, 0
6, 1751360, Note_on_c, 4, 59, 100
6, 1751440, Note_on_c, 4, 59, 0
6, 1751440, Note_on_c, 4, 67, 100
6, 1751520, Note_on_c, 4, 67, 0
6, 1751600, Note_on_c, 4, 60, 100
6, 1751680, Note_on_c, 4, 60, 0
6, 1751680, Note_on_c, 4, 69, 100
6, 1751760, Note_on_c, 4, 69, 0
6, 1751840, Note_on_c, 4, 59, 100
6, 1751920, Note_on_c, 4, 59, 0
6, 1751920, Note_on_c, 4, 67, 100
6, 1752000, Note_on_c, 4, 67, 0
6, 1752080, Note_on_c, 4, 57, 100
6, 1752160, Note_on_c, 4, 57, 0
6, 1752160, Note_on_c, 4, 66, 100
6, 1752240, Note_on_c, 4, 66, 0
6, 1752240, Note_on_c, 4, 55, 100
6, 1752480, Note_on_c, 4, 55, 0
6, 1752480, Note_on_c, 4, 67, 100
6, 1752800, Note_on_c, 4, 67, 0
6, 1752800, Note_on_c, 4, 71, 100
6, 1752880, Note_on_c, 4, 71, 0
6, 1752880, Note_on_c, 4, 64, 100
6, 1752960, Note_on_c, 4, 64, 0
6, 1752960, Note_on_c, 4, 65, 100
6, 1753040, Note_on_c, 4, 65, 0
6, 1753040, Note_on_c, 4, 69, 100
6, 1753120, Note_on_c, 4, 69, 0
6, 1753120, Note_on_c, 4, 62, 100
6, 1753200, Note_on_c, 4, 62, 0
6, 1753200, Note_on_c, 4, 64, 100
6, 1753280, Note_on_c, 4, 64, 0
6, 1753280, Note_on_c, 4, 67, 100
6, 1753360, Note_on_c, 4, 67, 0
6, 1753360, Note_on_c, 4, 60, 100
6, 1753440, Note_on_c, 4, 60, 0
6, 1753440, Note_on_c, 4, 62, 100
6, 1753520, Note_on_c, 4, 62, 0
6, 1753520, Note_on_c, 4, 65, 100
6, 1753600, Note_on_c, 4, 65, 0
6, 1753600, Note_on_c, 4, 59, 100
6, 1753680, Note_on_c, 4, 59, 0
6, 1753680, Note_on_c, 4, 60, 100
6, 1753760, Note_on_c, 4, 60, 0
6, 1753760, Note_on_c, 4, 55, 100
6, 1753840, Note_on_c, 4, 55, 0
6, 1753840, Note_on_c, 4, 64, 100
6, 1753920, Note_on_c, 4, 64, 0
6, 1753920, Note_on_c, 4, 62, 100
6, 1754000, Note_on_c, 4, 62, 0
6, 1754000, Note_on_c, 4, 59, 100
6, 1754080, Note_on_c, 4, 59, 0
6, 1754080, Note_on_c, 4, 65, 100
6, 1754160, Note_on_c, 4, 65, 0
6, 1754160, Note_on_c, 4, 64, 100
6, 1754400, Note_on_c, 4, 64, 0
6, 1754400, Note_on_c, 4, 79, 100
6, 1754640, Note_on_c, 4, 79, 0
6, 1754640, Note_on_c, 4, 84, 100
6, 1754880, Note_on_c, 4, 84, 0
6, 1754880, Note_on_c, 4, 76, 100
6, 1755120, Note_on_c, 4, 76, 0
6, 1755120, Note_on_c, 4, 74, 100
6, 1755440, Note_on_c, 4, 74, 0
6, 1755440, Note_on_c, 4, 76, 100
6, 1755520, Note_on_c, 4, 76, 0
6, 1755520, Note_on_c, 4, 78, 100
6, 1755600, Note_on_c, 4, 78, 0
6, 1755600, Note_on_c, 4, 79, 100
6, 1755680, Note_on_c, 4, 79, 0
6, 1755680, Note_on_c, 4, 78, 100
6, 1755760, Note_on_c, 4, 78, 0
6, 1755760, Note_on_c, 4, 76, 100
6, 1755840, Note_on_c, 4, 76, 0
6, 1755840, Note_on_c, 4, 74, 100
6, 1756160, Note_on_c, 4, 74, 0
6, 1756160, Note_on_c, 4, 72, 100
6, 1756240, Note_on_c, 4, 72, 0
6, 1756240, Note_on_c, 4, 71, 100
6, 1756320, Note_on_c, 4, 71, 0
6, 1756320, Note_on_c, 4, 69, 100
6, 1756400, Note_on_c, 4, 69, 0
6, 1756400, Note_on_c, 4, 71, 100
6, 1756480, Note_on_c, 4, 71, 0
6, 1756480, Note_on_c, 4, 72, 100
6, 1756560, Note_on_c, 4, 72, 0
6, 1756560, Note_on_c, 4, 71, 100
6, 1756800, Note_on_c, 4, 71, 0
6, 1757120, Note_on_c, 4, 59, 100
6, 1757200, Note_on_c, 4, 59, 0
6, 1757200, Note_on_c, 4, 62, 100
6, 1757280, Note_on_c, 4, 62, 0
6, 1757280, Note_on_c, 4, 67, 100
6, 1757360, Note_on_c, 4, 67, 0
6, 1757360, Note_on_c, 4, 71, 100
6, 1757440, Note_on_c, 4, 71, 0
6, 1757440, Note_on_c, 4, 74, 100
6, 1757520, Note_on_c, 4, 74, 0
6, 1757520, Note_on_c, 4, 79, 100
6, 1757760, Note_on_c, 4, 79, 0
6, 1758000, Note_on_c, 4, 50, 100
6, 1758240, Note_on_c, 4, 50, 0
6, 1758240, Note_on_c, 4, 38, 100
6, 1758480, Note_on_c, 4, 38, 0
6, 1758480, Note_on_c, 4, 42, 100
6, 1758720, Note_on_c, 4, 42, 0
6, 1758720, Note_on_c, 4, 45, 100
6, 1758960, Note_on_c, 4, 45, 0
6, 1758960, Note_on_c, 4, 50, 100
6, 1759200, Note_on_c, 4, 50, 0
6, 1759200, Note_on_c, 4, 54, 100
6, 1759440, Note_on_c, 4, 54, 0
6, 1759440, Note_on_c, 4, 55, 100
6, 1759680, Note_on_c, 4, 55, 0
6, 1759680, Note_on_c, 4, 59, 100
6, 1759920, Note_on_c, 4, 59, 0
6, 1759920, Note_on_c, 4, 62, 100
6, 1760160, Note_on_c, 4, 62, 0
6, 1760160, Note_on_c, 4, 67, 100
6, 1760400, Note_on_c, 4, 67, 0
6, 1760400, Note_on_c, 4, 71, 100
6, 1760460, Note_on_c, 4, 71, 0
6, 1760460, Note_on_c, 4, 69, 100
6, 1760520, Note_on_c, 4, 69, 0
6, 1760520, Note_on_c, 4, 71, 100
6, 1760940, Note_on_c, 4, 71, 0
6, 1760960, Note_on_c, 4, 64, 100
6, 1761040, Note_on_c, 4, 64, 0
6, 1761040, Note_on_c, 4, 63, 100
6, 1761120, Note_on_c, 4, 63, 0
6, 1761120, Note_on_c, 4, 64, 100
6, 1761200, Note_on_c, 4, 64, 0
6, 1761200, Note_on_c, 4, 66, 100
6, 1761280, Note_on_c, 4, 66, 0
6, 1761280, Note_on_c, 4, 67, 100
6, 1761360, Note_on_c, 4, 67, 0
6, 1761360, Note_on_c, 4, 69, 100
6, 1761440, Note_on_c, 4, 69, 0
6, 1761440, Note_on_c, 4, 67, 100
6, 1761520, Note_on_c, 4, 67, 0
6, 1761520, Note_on_c, 4, 66, 100
6, 1761600, Note_on_c, 4, 66, 0
6, 1761600, Note_on_c, 4, 67, 100
6, 1761680, Note_on_c, 4, 67, 0
6, 1761680, Note_on_c, 4, 69, 100
6, 1761760, Note_on_c, 4, 69, 0
6, 1761760, Note_on_c, 4, 71, 100
6, 1761840, Note_on_c, 4, 71, 0
6, 1761840, Note_on_c, 4, 72, 100
6, 1761920, Note_on_c, 4, 72, 0
6, 1761920, Note_on_c, 4, 71, 100
6, 1762000, Note_on_c, 4, 71, 0
6, 1762000, Note_on_c, 4, 69, 100
6, 1762080, Note_on_c, 4, 69, 0
6, 1762080, Note_on_c, 4, 67, 100
6, 1762160, Note_on_c, 4, 67, 0
6, 1762160, Note_on_c, 4, 66, 100
6, 1762240, Note_on_c, 4, 66, 0
6, 1762240, Note_on_c, 4, 64, 100
6, 1762320, Note_on_c, 4, 64, 0
6, 1762320, Note_on_c, 4, 63, 100
6, 1762640, Note_on_c, 4, 63, 0
6, 1762640, Note_on_c, 4, 64, 100
6, 1762720, Note_on_c, 4, 64, 0
6, 1762720, Note_on_c, 4, 66, 100
6, 1762800, Note_on_c, 4, 66, 0
6, 1762800, Note_on_c, 4, 67, 100
6, 1762880, Note_on_c, 4, 67, 0
6, 1762880, Note_on_c, 4, 66, 100
6, 1762960, Note_on_c, 4, 66, 0
6, 1762960, Note_on_c, 4, 64, 100
6, 1763040, Note_on_c, 4, 64, 0
6, 1763040, Note_on_c, 4, 66, 100
6, 1763120, Note_on_c, 4, 66, 0
6, 1763120, Note_on_c, 4, 67, 100
6, 1763200, Note_on_c, 4, 67, 0
6, 1763200, Note_on_c, 4, 69, 100
6, 1763280, Note_on_c, 4, 69, 0
6, 1763280, Note_on_c, 4, 59, 100
6, 1763520, Note_on_c, 4, 59, 0
6, 1763520, Note_on_c, 4, 57, 100
6, 1763760, Note_on_c, 4, 57, 0
6, 1763760, Note_on_c, 4, 55, 100
6, 1763840, Note_on_c, 4, 55, 0
6, 1763840, Note_on_c, 4, 54, 100
6, 1763920, Note_on_c, 4, 54, 0
6, 1763920, Note_on_c, 4, 52, 100
6, 1764080, Note_on_c, 4, 52, 0
6, 1764080, Note_on_c, 4, 51, 100
6, 1764160, Note_on_c, 4, 51, 0
6, 1764160, Note_on_c, 4, 52, 100
6, 1764240, Note_on_c, 4, 52, 0
6, 1764240, Note_on_c, 4, 53, 100
6, 1764320, Note_on_c, 4, 53, 0
6, 1764320, Note_on_c, 4, 52, 100
6, 1764400, Note_on_c, 4, 52, 0
6, 1764400, Note_on_c, 4, 53, 100
6, 1764480, Note_on_c, 4, 53, 0
6, 1764480, Note_on_c, 4, 54, 100
6, 1764560, Note_on_c, 4, 54, 0
6, 1764560, Note_on_c, 4, 52, 100
6, 1764640, Note_on_c, 4, 52, 0
6, 1764640, Note_on_c, 4, 54, 100
6, 1764720, Note_on_c, 4, 54, 0
6, 1764720, Note_on_c, 4, 55, 100
6, 1764800, Note_on_c, 4, 55, 0
6, 1764800, Note_on_c, 4, 54, 100
6, 1764880, Note_on_c, 4, 54, 0
6, 1764880, Note_on_c, 4, 55, 100
6, 1764960, Note_on_c, 4, 55, 0
6, 1764960, Note_on_c, 4, 56, 100
6, 1765040, Note_on_c, 4, 56, 0
6, 1765040, Note_on_c, 4, 54, 100
6, 1765120, Note_on_c, 4, 54, 0
6, 1765120, Note_on_c, 4, 56, 100
6, 1765200, Note_on_c, 4, 56, 0
6, 1765200, Note_on_c, 4, 57, 100
6, 1765520, Note_on_c, 4, 57, 0
6, 1765530, Note_on_c, 4, 58, 100
6, 1765600, Note_on_c, 4, 59, 100
6, 1765610, Note_on_c, 4, 58, 0
6, 1765680, Note_on_c, 4, 59, 0
6, 1765680, Note_on_c, 4, 60, 100
6, 1765760, Note_on_c, 4, 60, 0
6, 1765760, Note_on_c, 4, 59, 100
6, 1765840, Note_on_c, 4, 59, 0
6, 1765840, Note_on_c, 4, 60, 100
6, 1765920, Note_on_c, 4, 60, 0
6, 1765920, Note_on_c, 4, 61, 100
6, 1766000, Note_on_c, 4, 61, 0
6, 1766000, Note_on_c, 4, 59, 100
6, 1766080, Note_on_c, 4, 59, 0
6, 1766080, Note_on_c, 4, 61, 100
6, 1766160, Note_on_c, 4, 61, 0
6, 1766160, Note_on_c, 4, 62, 100
6, 1766240, Note_on_c, 4, 62, 0
6, 1766240, Note_on_c, 4, 61, 100
6, 1766320, Note_on_c, 4, 61, 0
6, 1766320, Note_on_c, 4, 62, 100
6, 1766400, Note_on_c, 4, 62, 0
6, 1766400, Note_on_c, 4, 63, 100
6, 1766480, Note_on_c, 4, 63, 0
6, 1766480, Note_on_c, 4, 61, 100
6, 1766560, Note_on_c, 4, 61, 0
6, 1766560, Note_on_c, 4, 63, 100
6, 1766640, Note_on_c, 4, 63, 0
6, 1766640, Note_on_c, 4, 64, 100
6, 1766720, Note_on_c, 4, 64, 0
6, 1766720, Note_on_c, 4, 63, 100
6, 1766800, Note_on_c, 4, 63, 0
6, 1766800, Note_on_c, 4, 64, 100
6, 1766880, Note_on_c, 4, 64, 0
6, 1766880, Note_on_c, 4, 66, 100
6, 1766960, Note_on_c, 4, 66, 0
6, 1766960, Note_on_c, 4, 64, 100
6, 1767040, Note_on_c, 4, 64, 0
6, 1767040, Note_on_c, 4, 66, 100
6, 1767120, Note_on_c, 4, 66, 0
6, 1767120, Note_on_c, 4, 67, 100
6, 1767200, Note_on_c, 4, 67, 0
6, 1767200, Note_on_c, 4, 66, 100
6, 1767280, Note_on_c, 4, 66, 0
6, 1767280, Note_on_c, 4, 67, 100
6, 1767360, Note_on_c, 4, 67, 0
6, 1767360, Note_on_c, 4, 69, 100
6, 1767440, Note_on_c, 4, 69, 0
6, 1767440, Note_on_c, 4, 67, 100
6, 1767520, Note_on_c, 4, 67, 0
6, 1767520, Note_on_c, 4, 69, 100
6, 1767600, Note_on_c, 4, 69, 0
6, 1767600, Note_on_c, 4, 71, 100
6, 1767680, Note_on_c, 4, 71, 0
6, 1767680, Note_on_c, 4, 69, 100
6, 1767760, Note_on_c, 4, 69, 0
6, 1767760, Note_on_c, 4, 71, 100
6, 1767840, Note_on_c, 4, 71, 0
6, 1767840, Note_on_c, 4, 72, 100
6, 1767920, Note_on_c, 4, 72, 0
6, 1767920, Note_on_c, 4, 71, 100
6, 1768000, Note_on_c, 4, 71, 0
6, 1768000, Note_on_c, 4, 69, 100
6, 1768080, Note_on_c, 4, 69, 0
6, 1768080, Note_on_c, 4, 67, 100
6, 1768160, Note_on_c, 4, 67, 0
6, 1768160, Note_on_c, 4, 66, 100
6, 1768240, Note_on_c, 4, 66, 0
6, 1768240, Note_on_c, 4, 67, 100
6, 1768320, Note_on_c, 4, 67, 0
6, 1768320, Note_on_c, 4, 69, 100
6, 1768400, Note_on_c, 4, 69, 0
6, 1768400, Note_on_c, 4, 67, 100
6, 1768480, Note_on_c, 4, 67, 0
6, 1768480, Note_on_c, 4, 66, 100
6, 1768560, Note_on_c, 4, 66, 0
6, 1768560, Note_on_c, 4, 64, 100
6, 1769280, Note_on_c, 4, 64, 0
6, 1769280, Note_on_c, 4, 50, 100
6, 1769520, Note_on_c, 4, 50, 0
6, 1769520, Note_on_c, 4, 48, 100
6, 1769760, Note_on_c, 4, 48, 0
6, 1769760, Note_on_c, 4, 64, 100
6, 1769880, Note_on_c, 4, 64, 0
6, 1770000, Note_on_c, 4, 64, 100
6, 1770120, Note_on_c, 4, 64, 0
6, 1770240, Note_on_c, 4, 64, 100
6, 1770360, Note_on_c, 4, 64, 0
6, 1770480, Note_on_c, 4, 64, 100
6, 1770600, Note_on_c, 4, 64, 0
6, 1770720, Note_on_c, 4, 48, 100
6, 1770960, Note_on_c, 4, 48, 0
6, 1770960, Note_on_c, 4, 47, 100
6, 1771200, Note_on_c, 4, 47, 0
6, 1771200, Note_on_c, 4, 62, 100
6, 1771320, Note_on_c, 4, 62, 0
6, 1771440, Note_on_c, 4, 62, 100
6, 1771560, Note_on_c, 4, 62, 0
6, 1771680, Note_on_c, 4, 62, 100
6, 1771800, Note_on_c, 4, 62, 0
6, 1771920, Note_on_c, 4, 62, 100
6, 1772040, Note_on_c, 4, 62, 0
6, 1772160, Note_on_c, 4, 47, 100
6, 1772400, Note_on_c, 4, 47, 0
6, 1772400, Note_on_c, 4, 45, 100
6, 1772640, Note_on_c, 4, 45, 0
6, 1772720, Note_on_c, 4, 59, 100
6, 1772800, Note_on_c, 4, 59, 0
6, 1772800, Note_on_c, 4, 67, 100
6, 1772880, Note_on_c, 4, 67, 0
6, 1772960, Note_on_c, 4, 57, 100
6, 1773040, Note_on_c, 4, 57, 0
6, 1773040, Note_on_c, 4, 66, 100
6, 1773120, Note_on_c, 4, 66, 0
6, 1773200, Note_on_c, 4, 55, 100
6, 1773280, Note_on_c, 4, 55, 0
6, 1773280, Note_on_c, 4, 64, 100
6, 1773360, Note_on_c, 4, 64, 0
6, 1773440, Note_on_c, 4, 54, 100
6, 1773520, Note_on_c, 4, 54, 0
6, 1773520, Note_on_c, 4, 62, 100
6, 1773600, Note_on_c, 4, 62, 0
6, 1773680, Note_on_c, 4, 55, 100
6, 1773760, Note_on_c, 4, 55, 0
6, 1773760, Note_on_c, 4, 64, 100
6, 1773840, Note_on_c, 4, 64, 0
6, 1773840, Note_on_c, 4, 50, 100
6, 1774080, Note_on_c, 4, 50, 0
6, 1774160, Note_on_c, 4, 57, 100
6, 1774240, Note_on_c, 4, 57, 0
6, 1774240, Note_on_c, 4, 66, 100
6, 1774320, Note_on_c, 4, 66, 0
6, 1774400, Note_on_c, 4, 59, 100
6, 1774480, Note_on_c, 4, 59, 0
6, 1774480, Note_on_c, 4, 67, 100
6, 1774560, Note_on_c, 4, 67, 0
6, 1774640, Note_on_c, 4, 60, 100
6, 1774720, Note_on_c, 4, 60, 0
6, 1774720, Note_on_c, 4, 69, 100
6, 1774800, Note_on_c, 4, 69, 0
6, 1774880, Note_on_c, 4, 59, 100
6, 1774960, Note_on_c, 4, 59, 0
6, 1774960, Note_on_c, 4, 67, 100
6, 1775040, Note_on_c, 4, 67, 0
6, 1775120, Note_on_c, 4, 57, 100
6, 1775200, Note_on_c, 4, 57, 0
6, 1775200, Note_on_c, 4, 66, 100
6, 1775280, Note_on_c, 4, 66, 0
6, 1775280, Note_on_c, 4, 55, 100
6, 1775520, Note_on_c, 4, 55, 0
6, 1775520, Note_on_c, 4, 67, 100
6, 1775840, Note_on_c, 4, 67, 0
6, 1775840, Note_on_c, 4, 71, 100
6, 1775920, Note_on_c, 4, 71, 0
6, 1775920, Note_on_c, 4, 64, 100
6, 1776000, Note_on_c, 4, 64, 0
6, 1776000, Note_on_c, 4, 65, 100
6, 1776080, Note_on_c, 4, 65, 0
6, 1776080, Note_on_c, 4, 69, 100
6, 1776160, Note_on_c, 4, 69, 0
6, 1776160, Note_on_c, 4, 62, 100
6, 1776240, Note_on_c, 4, 62, 0
6, 1776240, Note_on_c, 4, 64, 100
6, 1776320, Note_on_c, 4, 64, 0
6, 1776320, Note_on_c, 4, 67, 100
6, 1776400, Note_on_c, 4, 67, 0
6, 1776400, Note_on_c, 4, 60, 100
6, 1776480, Note_on_c, 4, 60, 0
6, 1776480, Note_on_c, 4, 62, 100
6, 1776560, Note_on_c, 4, 62, 0
6, 1776560, Note_on_c, 4, 65, 100
6, 1776640, Note_on_c, 4, 65, 0
6, 1776640, Note_on_c, 4, 59, 100
6, 1776720, Note_on_c, 4, 59, 0
6, 1776720, Note_on_c, 4, 60, 100
6, 1776800, Note_on_c, 4, 60, 0
6, 1776800, Note_on_c, 4, 55, 100
6, 1776880, Note_on_c, 4, 55, 0
6, 1776880, Note_on_c, 4, 64, 100
6, 1776960, Note_on_c, 4, 64, 0
6, 1776960, Note_on_c, 4, 62, 100
6, 1777040, Note_on_c, 4, 62, 0
6, 1777040, Note_on_c, 4, 59, 100
6, 1777120, Note_on_c, 4, 59, 0
6, 1777120, Note_on_c, 4, 65, 100
6, 1777200, Note_on_c, 4, 65, 0
6, 1777200, Note_on_c, 4, 64, 100
6, 1777440, Note_on_c, 4, 64, 0
6, 1777440, Note_on_c, 4, 79, 100
6, 1777680, Note_on_c, 4, 79, 0
6, 1777680, Note_on_c, 4, 84, 100
6, 1777920, Note_on_c, 4, 84, 0
6, 1777920, Note_on_c, 4, 76, 100
6, 1778160, Note_on_c, 4, 76, 0
6, 1778160, Note_on_c, 4, 74, 100
6, 1778480, Note_on_c, 4, 74, 0
6, 1778480, Note_on_c, 4, 76, 100
6, 1778560, Note_on_c, 4, 76, 0
6, 1778560, Note_on_c, 4, 78, 100
6, 1778640, Note_on_c, 4, 78, 0
6, 1778640, Note_on_c, 4, 79, 100
6, 1778720, Note_on_c, 4, 79, 0
6, 1778720, Note_on_c, 4, 78, 100
6, 1778800, Note_on_c, 4, 78, 0
6, 1778800, Note_on_c, 4, 76, 100
6, 1778880, Note_on_c, 4, 76, 0
6, 1778880, Note_on_c, 4, 74, 100
6, 1779200, Note_on_c, 4, 74, 0
6, 1779200, Note_on_c, 4, 72, 100
6, 1779280, Note_on_c, 4, 72, 0
6, 1779280, Note_on_c, 4, 71, 100
6, 1779360, Note_on_c, 4, 71, 0
6, 1779360, Note_on_c, 4, 69, 100
6, 1779440, Note_on_c, 4, 69, 0
6, 1779440, Note_on_c, 4, 71, 100
6, 1779520, Note_on_c, 4, 71, 0
6, 1779520, Note_on_c, 4, 72, 100
6, 1779600, Note_on_c, 4, 72, 0
6, 1779600, Note_on_c, 4, 71, 100
6, 1779840, Note_on_c, 4, 71, 0
6, 1780160, Note_on_c, 4, 59, 100
6, 1780240, Note_on_c, 4, 59, 0
6, 1780240, Note_on_c, 4, 62, 100
6, 1780320, Note_on_c, 4, 62, 0
6, 1780320, Note_on_c, 4, 67, 100
6, 1780400, Note_on_c, 4, 67, 0
6, 1780400, Note_on_c, 4, 71, 100
6, 1780480, Note_on_c, 4, 71, 0
6, 1780480, Note_on_c, 4, 74, 100
6, 1780560, Note_on_c, 4, 74, 0
6, 1780560, Note_on_c, 4, 79, 100
6, 1780800, Note_on_c, 4, 79, 0
6, 1843440, Note_on_c, 4, 64, 100
6, 1844880, Note_on_c, 4, 64, 0
6, 1844880, Note_on_c, 4, 62, 100
6, 1845120, Note_on_c, 4, 62, 0
6, 1845120, Note_on_c, 4, 61, 100
6, 1845360, Note_on_c, 4, 61, 0
6, 1845360, Note_on_c, 4, 62, 100
6, 1846800, Note_on_c, 4, 62, 0
6, 1846800, Note_on_c, 4, 61, 100
6, 1847040, Note_on_c, 4, 61, 0
6, 1847040, Note_on_c, 4, 59, 100
6, 1847280, Note_on_c, 4, 59, 0
6, 1847280, Note_on_c, 4, 61, 100
6, 1847760, Note_on_c, 4, 61, 0
6, 1847760, Note_on_c, 4, 64, 100
6, 1848240, Note_on_c, 4, 64, 0
6, 1848240, Note_on_c, 4, 57, 100
6, 1850640, Note_on_c, 4, 57, 0
6, 1850640, Note_on_c, 4, 55, 100
6, 1850880, Note_on_c, 4, 55, 0
6, 1850880, Note_on_c, 4, 54, 100
6, 1851120, Note_on_c, 4, 54, 0
6, 1851120, Note_on_c, 4, 55, 100
6, 1852560, Note_on_c, 4, 55, 0
6, 1852560, Note_on_c, 4, 52, 100
6, 1853040, Note_on_c, 4, 52, 0
6, 1853040, Note_on_c, 4, 57, 100
6, 1854480, Note_on_c, 4, 57, 0
6, 1854480, Note_on_c, 4, 57, 100
6, 1854720, Note_on_c, 4, 57, 0
6, 1854720, Note_on_c, 4, 55, 100
6, 1854960, Note_on_c, 4, 55, 0
6, 1854960, Note_on_c, 4, 57, 100
6, 1855440, Note_on_c, 4, 57, 0
6, 1855440, Note_on_c, 4, 54, 100
6, 1855920, Note_on_c, 4, 54, 0
6, 1855920, Note_on_c, 4, 62, 100
6, 1856880, Note_on_c, 4, 62, 0
6, 1858800, Note_on_c, 4, 64, 100
6, 1860240, Note_on_c, 4, 64, 0
6, 1860240, Note_on_c, 4, 62, 100
6, 1860480, Note_on_c, 4, 62, 0
6, 1860480, Note_on_c, 4, 61, 100
6, 1860720, Note_on_c, 4, 61, 0
6, 1860720, Note_on_c, 4, 62, 100
6, 1862160, Note_on_c, 4, 62, 0
6, 1862160, Note_on_c, 4, 61, 100
6, 1862400, Note_on_c, 4, 61, 0
6, 1862400, Note_on_c, 4, 59, 100
6, 1862640, Note_on_c, 4, 59, 0
6, 1862640, Note_on_c, 4, 61, 100
6, 1863120, Note_on_c, 4, 61, 0
6, 1863120, Note_on_c, 4, 64, 100
6, 1863600, Note_on_c, 4, 64, 0
6, 1863600, Note_on_c, 4, 57, 100
6, 1865520, Note_on_c, 4, 57, 0
6, 1866480, Note_on_c, 4, 57, 100
6, 1867920, Note_on_c, 4, 57, 0
6, 1867920, Note_on_c, 4, 55, 100
6, 1868160, Note_on_c, 4, 55, 0
6, 1868160, Note_on_c, 4, 54, 100
6, 1868400, Note_on_c, 4, 54, 0
6, 1868400, Note_on_c, 4, 55, 100
6, 1868880, Note_on_c, 4, 55, 0
6, 1868880, Note_on_c, 4, 59, 100
6, 1869360, Note_on_c, 4, 59, 0
6, 1869360, Note_on_c, 4, 49, 100
6, 1869840, Note_on_c, 4, 49, 0
6, 1869840, Note_on_c, 4, 50, 100
6, 1870320, Note_on_c, 4, 50, 0
6, 1870320, Note_on_c, 4, 52, 100
6, 1870560, Note_on_c, 4, 52, 0
6, 1870560, Note_on_c, 4, 54, 100
6, 1870800, Note_on_c, 4, 54, 0
6, 1870800, Note_on_c, 4, 55, 100
6, 1871760, Note_on_c, 4, 55, 0
6, 1871760, Note_on_c, 4, 54, 100
6, 1872000, Note_on_c, 4, 54, 0
6, 1872000, Note_on_c, 4, 52, 100
6, 1872240, Note_on_c, 4, 52, 0
6, 1872240, Note_on_c, 4, 54, 100
6, 1873200, Note_on_c, 4, 54, 0
6, 1874160, Note_on_c, 4, 64, 100
6, 1875600, Note_on_c, 4, 64, 0
6, 1875600, Note_on_c, 4, 62, 100
6, 1875840, Note_on_c, 4, 62, 0
6, 1875840, Note_on_c, 4, 61, 100
6, 1876080, Note_on_c, 4, 61, 0
6, 1876080, Note_on_c, 4, 62, 100
6, 1877520, Note_on_c, 4, 62, 0
6, 1877520, Note_on_c, 4, 61, 100
6, 1877760, Note_on_c, 4, 61, 0
6, 1877760, Note_on_c, 4, 59, 100
6, 1878000, Note_on_c, 4, 59, 0
6, 1878000, Note_on_c, 4, 61, 100
6, 1878480, Note_on_c, 4, 61, 0
6, 1878480, Note_on_c, 4, 64, 100
6, 1878960, Note_on_c, 4, 64, 0
6, 1878960, Note_on_c, 4, 57, 100
6, 1881360, Note_on_c, 4, 57, 0
6, 1881360, Note_on_c, 4, 55, 100
6, 1881600, Note_on_c, 4, 55, 0
6, 1881600, Note_on_c, 4, 54, 100
6, 1881840, Note_on_c, 4, 54, 0
6, 1881840, Note_on_c, 4, 55, 100
6, 1883280, Note_on_c, 4, 55, 0
6, 1883280, Note_on_c, 4, 52, 100
6, 1883760, Note_on_c, 4, 52, 0
6, 1883760, Note_on_c, 4, 57, 100
6, 1885200, Note_on_c, 4, 57, 0
6, 1885200, Note_on_c, 4, 57, 100
6, 1885440, Note_on_c, 4, 57, 0
6, 1885440, Note_on_c, 4, 55, 100
6, 1885680, Note_on_c, 4, 55, 0
6, 1885680, Note_on_c, 4, 57, 100
6, 1886160, Note_on_c, 4, 57, 0
6, 1886160, Note_on_c, 4, 54, 100
6, 1886640, Note_on_c, 4, 54, 0
6, 1886640, Note_on_c, 4, 62, 100
6, 1887600, Note_on_c, 4, 62, 0
6, 1889520, Note_on_c, 4, 64, 100
6, 1890960, Note_on_c, 4, 64, 0
6, 1890960, Note_on_c, 4, 62, 100
6, 1891200, Note_on_c, 4, 62, 0
6, 1891200, Note_on_c, 4, 61, 100
6, 1891440, Note_on_c, 4, 61, 0
6, 1891440, Note_on_c, 4, 62, 100
6, 1892880, Note_on_c, 4, 62, 0
6, 1892880, Note_on_c, 4, 61, 100
6, 1893120, Note_on_c, 4, 61, 0
6, 1893120, Note_on_c, 4, 59, 100
6, 1893360, Note_on_c, 4, 59, 0
6, 1893360, Note_on_c, 4, 61, 100
6, 1893840, Note_on_c, 4, 61, 0
6, 1893840, Note_on_c, 4, 64, 100
6, 1894320, Note_on_c, 4, 64, 0
6, 1894320, Note_on_c, 4, 57, 100
6, 1896240, Note_on_c, 4, 57, 0
6, 1897200, Note_on_c, 4, 57, 100
6, 1898640, Note_on_c, 4, 57, 0
6, 1898640, Note_on_c, 4, 55, 100
6, 1898880, Note_on_c, 4, 55, 0
6, 1898880, Note_on_c, 4, 54, 100
6, 1899120, Note_on_c, 4, 54, 0
6, 1899120, Note_on_c, 4, 55, 100
6, 1899600, Note_on_c, 4, 55, 0
6, 1899600, Note_on_c, 4, 59, 100
6, 1900080, Note_on_c, 4, 59, 0
6, 1900080, Note_on_c, 4, 49, 100
6, 1900560, Note_on_c, 4, 49, 0
6, 1900560, Note_on_c, 4, 50, 100
6, 1901040, Note_on_c, 4, 50, 0
6, 1901040, Note_on_c, 4, 52, 100
6, 1901280, Note_on_c, 4, 52, 0
6, 1901280, Note_on_c, 4, 54, 100
6, 1901520, Note_on_c, 4, 54, 0
6, 1901520, Note_on_c, 4, 55, 100
6, 1902480, Note_on_c, 4, 55, 0
6, 1902480, Note_on_c, 4, 54, 100
6, 1902720, Note_on_c, 4, 54, 0
6, 1902720, Note_on_c, 4, 52, 100
6, 1902960, Note_on_c, 4, 52, 0
6, 1902960, Note_on_c, 4, 54, 100
6, 1903920, Note_on_c, 4, 54, 0
6, 1910640, Note_on_c, 4, 66, 100
6, 1912080, Note_on_c, 4, 66, 0
6, 1912080, Note_on_c, 4, 64, 100
6, 1912320, Note_on_c, 4, 64, 0
6, 1912320, Note_on_c, 4, 63, 100
6, 1912560, Note_on_c, 4, 63, 0
6, 1912560, Note_on_c, 4, 64, 100
6, 1913040, Note_on_c, 4, 64, 0
6, 1913040, Note_on_c, 4, 67, 100
6, 1913520, Note_on_c, 4, 67, 0
6, 1913520, Note_on_c, 4, 60, 100
6, 1914000, Note_on_c, 4, 60, 0
6, 1914000, Note_on_c, 4, 64, 100
6, 1914480, Note_on_c, 4, 64, 0
6, 1914480, Note_on_c, 4, 69, 100
6, 1915920, Note_on_c, 4, 69, 0
6, 1915920, Note_on_c, 4, 67, 100
6, 1916400, Note_on_c, 4, 67, 0
6, 1916400, Note_on_c, 4, 66, 100
6, 1917360, Note_on_c, 4, 66, 0
6, 1917360, Note_on_c, 4, 64, 100
6, 1918320, Note_on_c, 4, 64, 0
6, 1924080, Note_on_c, 4, 60, 100
6, 1925520, Note_on_c, 4, 60, 0
6, 1925520, Note_on_c, 4, 59, 100
6, 1925760, Note_on_c, 4, 59, 0
6, 1925760, Note_on_c, 4, 57, 100
6, 1926000, Note_on_c, 4, 57, 0
6, 1926000, Note_on_c, 4, 59, 100
6, 1926480, Note_on_c, 4, 59, 0
6, 1926480, Note_on_c, 4, 62, 100
6, 1926960, Note_on_c, 4, 62, 0
6, 1926960, Note_on_c, 4, 55, 100
6, 1928400, Note_on_c, 4, 55, 0
6, 1928400, Note_on_c, 4, 59, 100
6, 1928880, Note_on_c, 4, 59, 0
6, 1928880, Note_on_c, 4, 52, 100
6, 1929840, Note_on_c, 4, 52, 0
6, 1929840, Note_on_c, 4, 57, 100
6, 1931280, Note_on_c, 4, 57, 0
6, 1931280, Note_on_c, 4, 57, 100
6, 1931520, Note_on_c, 4, 57, 0
6, 1931520, Note_on_c, 4, 55, 100
6, 1931760, Note_on_c, 4, 55, 0
6, 1931760, Note_on_c, 4, 57, 100
6, 1932240, Note_on_c, 4, 57, 0
6, 1932240, Note_on_c, 4, 54, 100
6, 1932720, Note_on_c, 4, 54, 0
6, 1932720, Note_on_c, 4, 62, 100
6, 1934640, Note_on_c, 4, 62, 0
6, 1941360, Note_on_c, 4, 66, 100
6, 1942800, Note_on_c, 4, 66, 0
6, 1942800, Note_on_c, 4, 64, 100
6, 1943040, Note_on_c, 4, 64, 0
6, 1943040, Note_on_c, 4, 63, 100
6, 1943280, Note_on_c, 4, 63, 0
6, 1943280, Note_on_c, 4, 64, 100
6, 1943760, Note_on_c, 4, 64, 0
6, 1943760, Note_on_c, 4, 67, 100
6, 1944240, Note_on_c, 4, 67, 0
6, 1944240, Note_on_c, 4, 60, 100
6, 1944720, Note_on_c, 4, 60, 0
6, 1944720, Note_on_c, 4, 64, 100
6, 1945200, Note_on_c, 4, 64, 0
6, 1945200, Note_on_c, 4, 69, 100
6, 1946640, Note_on_c, 4, 69, 0
6, 1946640, Note_on_c, 4, 67, 100
6, 1947120, Note_on_c, 4, 67, 0
6, 1947120, Note_on_c, 4, 66, 100
6, 1948080, Note_on_c, 4, 66, 0
6, 1948080, Note_on_c, 4, 64, 100
6, 1949040, Note_on_c, 4, 64, 0
6, 1954800, Note_on_c, 4, 60, 100
6, 1956240, Note_on_c, 4, 60, 0
6, 1956240, Note_on_c, 4, 59, 100
6, 1956480, Note_on_c, 4, 59, 0
6, 1956480, Note_on_c, 4, 57, 100
6, 1956720, Note_on_c, 4, 57, 0
6, 1956720, Note_on_c, 4, 59, 100
6, 1957200, Note_on_c, 4, 59, 0
6, 1957200, Note_on_c, 4, 62, 100
6, 1957680, Note_on_c, 4, 62, 0
6, 1957680, Note_on_c, 4, 55, 100
6, 1959120, Note_on_c, 4, 55, 0
6, 1959120, Note_on_c, 4, 59, 100
6, 1959600, Note_on_c, 4, 59, 0
6, 1959600, Note_on_c, 4, 52, 100
6, 1960560, Note_on_c, 4, 52, 0
6, 1960560, Note_on_c, 4, 57, 100
6, 1962000, Note_on_c, 4, 57, 0
6, 1962000, Note_on_c, 4, 57, 100
6, 1962240, Note_on_c, 4, 57, 0
6, 1962240, Note_on_c, 4, 55, 100
6, 1962480, Note_on_c, 4, 55, 0
6, 1962480, Note_on_c, 4, 57, 100
6, 1962960, Note_on_c, 4, 57, 0
6, 1962960, Note_on_c, 4, 54, 100
6, 1963440, Note_on_c, 4, 54, 0
6, 1963440, Note_on_c, 4, 62, 100
6, 1965360, Note_on_c, 4, 62, 0
6, 1965360, Note_on_c, 4, 67, 100
6, 1965600, Note_on_c, 4, 67, 0
6, 1965600, Note_on_c, 4, 83, 100
6, 1965720, Note_on_c, 4, 83, 0
6, 1965720, Note_on_c, 4, 81, 100
6, 1965840, Note_on_c, 4, 81, 0
6, 1965840, Note_on_c, 4, 79, 100
6, 1965960, Note_on_c, 4, 79, 0
6, 1965960, Note_on_c, 4, 78, 100
6, 1966080, Note_on_c, 4, 78, 0
6, 1966080, Note_on_c, 4, 76, 100
6, 1966200, Note_on_c, 4, 76, 0
6, 1966200, Note_on_c, 4, 74, 100
6, 1966320, Note_on_c, 4, 74, 0
6, 1966320, Note_on_c, 4, 73, 100
6, 1966440, Note_on_c, 4, 73, 0
6, 1966440, Note_on_c, 4, 71, 100
6, 1966560, Note_on_c, 4, 71, 0
6, 1966560, Note_on_c, 4, 69, 100
6, 1966680, Note_on_c, 4, 69, 0
6, 1966680, Note_on_c, 4, 67, 100
6, 1966800, Note_on_c, 4, 67, 0
6, 1966800, Note_on_c, 4, 66, 100
6, 1967040, Note_on_c, 4, 66, 0
6, 1967040, Note_on_c, 4, 81, 100
6, 1967160, Note_on_c, 4, 81, 0
6, 1967160, Note_on_c, 4, 79, 100
6, 1967280, Note_on_c, 4, 79, 0
6, 1967280, Note_on_c, 4, 78, 100
6, 1967400, Note_on_c, 4, 78, 0
6, 1967400, Note_on_c, 4, 76, 100
6, 1967520, Note_on_c, 4, 76, 0
6, 1967520, Note_on_c, 4, 74, 100
6, 1967640, Note_on_c, 4, 74, 0
6, 1967640, Note_on_c, 4, 73, 100
6, 1967760, Note_on_c, 4, 73, 0
6, 1967760, Note_on_c, 4, 71, 100
6, 1967880, Note_on_c, 4, 71, 0
6, 1967880, Note_on_c, 4, 69, 100
6, 1968000, Note_on_c, 4, 69, 0
6, 1968000, Note_on_c, 4, 67, 100
6, 1968120, Note_on_c, 4, 67, 0
6, 1968120, Note_on_c, 4, 66, 100
6, 1968240, Note_on_c, 4, 66, 0
6, 1968240, Note_on_c, 4, 64, 100
6, 1968480, Note_on_c, 4, 64, 0
6, 1968480, Note_on_c, 4, 79, 100
6, 1968600, Note_on_c, 4, 79, 0
6, 1968600, Note_on_c, 4, 78, 100
6, 1968720, Note_on_c, 4, 78, 0
6, 1968720, Note_on_c, 4, 76, 100
6, 1968840, Note_on_c, 4, 76, 0
6, 1968840, Note_on_c, 4, 74, 100
6, 1968960, Note_on_c, 4, 74, 0
6, 1968960, Note_on_c, 4, 73, 100
6, 1969080, Note_on_c, 4, 73, 0
6, 1969080, Note_on_c, 4, 71, 100
6, 1969200, Note_on_c, 4, 71, 0
6, 1969200, Note_on_c, 4, 69, 100
6, 1969320, Note_on_c, 4, 69, 0
6, 1969320, Note_on_c, 4, 67, 100
6, 1969440, Note_on_c, 4, 67, 0
6, 1969440, Note_on_c, 4, 66, 100
6, 1969560, Note_on_c, 4, 66, 0
6, 1969560, Note_on_c, 4, 64, 100
6, 1969680, Note_on_c, 4, 64, 0
6, 1969680, Note_on_c, 4, 62, 100
6, 1969920, Note_on_c, 4, 62, 0
6, 1970040, Note_on_c, 4, 60, 100
6, 1970100, Note_on_c, 4, 60, 0
6, 1970100, Note_on_c, 4, 59, 100
6, 1970160, Note_on_c, 4, 59, 0
6, 1970160, Note_on_c, 4, 57, 100
6, 1970220, Note_on_c, 4, 57, 0
6, 1970220, Note_on_c, 4, 55, 100
6, 1970280, Note_on_c, 4, 55, 0
6, 1970280, Note_on_c, 4, 54, 100
6, 1970340, Note_on_c, 4, 54, 0
6, 1970340, Note_on_c, 4, 52, 100
6, 1970400, Note_on_c, 4, 52, 0
6, 1970400, Note_on_c, 4, 50, 100
6, 1970640, Note_on_c, 4, 50, 0
6, 1971000, Note_on_c, 4, 48, 100
6, 1971120, Note_on_c, 4, 48, 0
6, 1971120, Note_on_c, 4, 47, 100
6, 1971360, Note_on_c, 4, 47, 0
6, 1971600, Note_on_c, 4, 59, 100
6, 1971720, Note_on_c, 4, 59, 0
6, 1971720, Note_on_c, 4, 60, 100
6, 1971840, Note_on_c, 4, 60, 0
6, 1971840, Note_on_c, 4, 62, 100
6, 1971960, Note_on_c, 4, 62, 0
6, 1971960, Note_on_c, 4, 64, 100
6, 1972080, Note_on_c, 4, 64, 0
6, 1972080, Note_on_c, 4, 66, 100
6, 1972200, Note_on_c, 4, 66, 0
6, 1972200, Note_on_c, 4, 67, 100
6, 1972320, Note_on_c, 4, 67, 0
6, 1972320, Note_on_c, 4, 69, 100
6, 1972440, Note_on_c, 4, 69, 0
6, 1972440, Note_on_c, 4, 71, 100
6, 1972560, Note_on_c, 4, 71, 0
6, 1972560, Note_on_c, 4, 72, 100
6, 1972680, Note_on_c, 4, 72, 0
6, 1972680, Note_on_c, 4, 74, 100
6, 1972800, Note_on_c, 4, 74, 0
6, 1972800, Note_on_c, 4, 76, 100
6, 1973040, Note_on_c, 4, 76, 0
6, 1973040, Note_on_c, 4, 60, 100
6, 1973160, Note_on_c, 4, 60, 0
6, 1973160, Note_on_c, 4, 62, 100
6, 1973280, Note_on_c, 4, 62, 0
6, 1973280, Note_on_c, 4, 64, 100
6, 1973400, Note_on_c, 4, 64, 0
6, 1973400, Note_on_c, 4, 66, 100
6, 1973520, Note_on_c, 4, 66, 0
6, 1973520, Note_on_c, 4, 67, 100
6, 1973640, Note_on_c, 4, 67, 0
6, 1973640, Note_on_c, 4, 69, 100
6, 1973760, Note_on_c, 4, 69, 0
6, 1973760, Note_on_c, 4, 71, 100
6, 1973880, Note_on_c, 4, 71, 0
6, 1973880, Note_on_c, 4, 72, 100
6, 1974000, Note_on_c, 4, 72, 0
6, 1974000, Note_on_c, 4, 74, 100
6, 1974120, Note_on_c, 4, 74, 0
6, 1974120, Note_on_c, 4, 76, 100
6, 1974240, Note_on_c, 4, 76, 0
6, 1974240, Note_on_c, 4, 78, 100
6, 1974480, Note_on_c, 4, 78, 0
6, 1974480, Note_on_c, 4, 62, 100
6, 1974600, Note_on_c, 4, 62, 0
6, 1974600, Note_on_c, 4, 64, 100
6, 1974720, Note_on_c, 4, 64, 0
6, 1974720, Note_on_c, 4, 66, 100
6, 1974840, Note_on_c, 4, 66, 0
6, 1974840, Note_on_c, 4, 67, 100
6, 1974960, Note_on_c, 4, 67, 0
6, 1974960, Note_on_c, 4, 69, 100
6, 1975080, Note_on_c, 4, 69, 0
6, 1975080, Note_on_c, 4, 71, 100
6, 1975200, Note_on_c, 4, 71, 0
6, 1975200, Note_on_c, 4, 72, 100
6, 1975320, Note_on_c, 4, 72, 0
6, 1975320, Note_on_c, 4, 69, 100
6, 1975440, Note_on_c, 4, 69, 0
6, 1975440, Note_on_c, 4, 71, 100
6, 1975500, Note_on_c, 4, 71, 0
6, 1975500, Note_on_c, 4, 67, 100
6, 1975560, Note_on_c, 4, 67, 0
6, 1975560, Note_on_c, 4, 69, 100
6, 1975620, Note_on_c, 4, 69, 0
6, 1975620, Note_on_c, 4, 71, 100
6, 1975680, Note_on_c, 4, 71, 0
6, 1975680, Note_on_c, 4, 72, 100
6, 1975740, Note_on_c, 4, 72, 0
6, 1975740, Note_on_c, 4, 74, 100
6, 1975800, Note_on_c, 4, 74, 0
6, 1975800, Note_on_c, 4, 76, 100
6, 1975860, Note_on_c, 4, 76, 0
6, 1975860, Note_on_c, 4, 78, 100
6, 1975920, Note_on_c, 4, 78, 0
6, 1975920, Note_on_c, 4, 79, 100
6, 1976040, Note_on_c, 4, 79, 0
6, 1976520, Note_on_c, 4, 66, 100
6, 1976580, Note_on_c, 4, 66, 0
6, 1976580, Note_on_c, 4, 64, 100
6, 1976640, Note_on_c, 4, 64, 0
6, 1976640, Note_on_c, 4, 62, 100
6, 1976700, Note_on_c, 4, 62, 0
6, 1976700, Note_on_c, 4, 60, 100
6, 1976760, Note_on_c, 4, 60, 0
6, 1976760, Note_on_c, 4, 59, 100
6, 1976820, Note_on_c, 4, 59, 0
6, 1976820, Note_on_c, 4, 57, 100
6, 1976880, Note_on_c, 4, 57, 0
6, 1976880, Note_on_c, 4, 55, 100
6, 1977120, Note_on_c, 4, 55, 0
6, 1977240, Note_on_c, 4, 57, 100
6, 1977360, Note_on_c, 4, 57, 0
6, 1977360, Note_on_c, 4, 59, 100
6, 1977420, Note_on_c, 4, 59, 0
6, 1977420, Note_on_c, 4, 57, 100
6, 1977480, Note_on_c, 4, 57, 0
6, 1977480, Note_on_c, 4, 59, 100
6, 1977600, Note_on_c, 4, 59, 0
6, 1977720, Note_on_c, 4, 60, 100
6, 1977840, Note_on_c, 4, 60, 0
6, 1977840, Note_on_c, 4, 62, 100
6, 1977900, Note_on_c, 4, 62, 0
6, 1977900, Note_on_c, 4, 60, 100
6, 1977960, Note_on_c, 4, 60, 0
6, 1977960, Note_on_c, 4, 62, 100
6, 1978080, Note_on_c, 4, 62, 0
6, 1978200, Note_on_c, 4, 64, 100
6, 1978320, Note_on_c, 4, 64, 0
6, 1978320, Note_on_c, 4, 66, 100
6, 1978380, Note_on_c, 4, 66, 0
6, 1978380, Note_on_c, 4, 64, 100
6, 1978440, Note_on_c, 4, 64, 0
6, 1978440, Note_on_c, 4, 66, 100
6, 1978560, Note_on_c, 4, 66, 0
6, 1978680, Note_on_c, 4, 67, 100
6, 1978800, Note_on_c, 4, 67, 0
6, 1978800, Note_on_c, 4, 69, 100
6, 1978860, Note_on_c, 4, 69, 0
6, 1978860, Note_on_c, 4, 67, 100
6, 1978920, Note_on_c, 4, 67, 0
6, 1978920, Note_on_c, 4, 69, 100
6, 1979040, Note_on_c, 4, 69, 0
6, 1979160, Note_on_c, 4, 71, 100
6, 1979280, Note_on_c, 4, 71, 0
6, 1979280, Note_on_c, 4, 73, 100
6, 1979340, Note_on_c, 4, 73, 0
6, 1979340, Note_on_c, 4, 71, 100
6, 1979400, Note_on_c, 4, 71, 0
6, 1979400, Note_on_c, 4, 73, 100
6, 1979520, Note_on_c, 4, 73, 0
6, 1979640, Note_on_c, 4, 74, 100
6, 1979760, Note_on_c, 4, 74, 0
6, 1979760, Note_on_c, 4, 76, 100
6, 1979820, Note_on_c, 4, 76, 0
6, 1979820, Note_on_c, 4, 74, 100
6, 1979880, Note_on_c, 4, 74, 0
6, 1979880, Note_on_c, 4, 76, 100
6, 1980000, Note_on_c, 4, 76, 0
6, 1980120, Note_on_c, 4, 78, 100
6, 1980240, Note_on_c, 4, 78, 0
6, 1980240, Note_on_c, 4, 79, 100
6, 1980300, Note_on_c, 4, 79, 0
6, 1980300, Note_on_c, 4, 78, 100
6, 1980360, Note_on_c, 4, 78, 0
6, 1980360, Note_on_c, 4, 79, 100
6, 1980480, Note_on_c, 4, 79, 0
6, 1980600, Note_on_c, 4, 81, 100
6, 1980720, Note_on_c, 4, 81, 0
6, 1980720, Note_on_c, 4, 83, 100
6, 1980780, Note_on_c, 4, 83, 0
6, 1980780, Note_on_c, 4, 81, 100
6, 1980840, Note_on_c, 4, 81, 0
6, 1980840, Note_on_c, 4, 83, 100
6, 1980960, Note_on_c, 4, 83, 0
6, 1981080, Note_on_c, 4, 74, 100
6, 1981200, Note_on_c, 4, 74, 0
6, 1981200, Note_on_c, 4, 73, 100
6, 1981440, Note_on_c, 4, 73, 0
6, 1981560, Note_on_c, 4, 76, 100
6, 1981680, Note_on_c, 4, 76, 0
6, 1981680, Note_on_c, 4, 67, 100
6, 1981920, Note_on_c, 4, 67, 0
6, 1982040, Note_on_c, 4, 71, 100
6, 1982160, Note_on_c, 4, 71, 0
6, 1982160, Note_on_c, 4, 71, 100
6, 1982200, Note_on_c, 4, 71, 0
6, 1982200, Note_on_c, 4, 69, 100
6, 1982240, Note_on_c, 4, 69, 0
6, 1982240, Note_on_c, 4, 71, 100
6, 1982280, Note_on_c, 4, 71, 0
6, 1982280, Note_on_c, 4, 69, 100
6, 1982400, Note_on_c, 4, 69, 0
6, 1982520, Note_on_c, 4, 67, 100
6, 1982640, Note_on_c, 4, 67, 0
6, 1982640, Note_on_c, 4, 67, 100
6, 1982680, Note_on_c, 4, 67, 0
6, 1982680, Note_on_c, 4, 66, 100
6, 1982720, Note_on_c, 4, 66, 0
6, 1982720, Note_on_c, 4, 67, 100
6, 1982760, Note_on_c, 4, 67, 0
6, 1982760, Note_on_c, 4, 66, 100
6, 1982880, Note_on_c, 4, 66, 0
6, 1983000, Note_on_c, 4, 57, 100
6, 1983120, Note_on_c, 4, 57, 0
6, 1983120, Note_on_c, 4, 69, 100
6, 1983240, Note_on_c, 4, 69, 0
6, 1983240, Note_on_c, 4, 67, 100
6, 1983360, Note_on_c, 4, 67, 0
6, 1983360, Note_on_c, 4, 66, 100
6, 1983480, Note_on_c, 4, 66, 0
6, 1983480, Note_on_c, 4, 64, 100
6, 1983600, Note_on_c, 4, 64, 0
6, 1983600, Note_on_c, 4, 62, 100
6, 1983720, Note_on_c, 4, 62, 0
6, 1983720, Note_on_c, 4, 60, 100
6, 1983840, Note_on_c, 4, 60, 0
6, 1983840, Note_on_c, 4, 59, 100
6, 1983960, Note_on_c, 4, 59, 0
6, 1983960, Note_on_c, 4, 57, 100
6, 1984080, Note_on_c, 4, 57, 0
6, 1984080, Note_on_c, 4, 55, 100
6, 1984200, Note_on_c, 4, 55, 0
6, 1984200, Note_on_c, 4, 59, 100
6, 1984320, Note_on_c, 4, 59, 0
6, 1984320, Note_on_c, 4, 62, 100
6, 1984440, Note_on_c, 4, 62, 0
6, 1984440, Note_on_c, 4, 60, 100
6, 1984560, Note_on_c, 4, 60, 0
6, 1984560, Note_on_c, 4, 59, 100
6, 1984680, Note_on_c, 4, 59, 0
6, 1984680, Note_on_c, 4, 57, 100
6, 1984800, Note_on_c, 4, 57, 0
6, 1984800, Note_on_c, 4, 55, 100
6, 1984920, Note_on_c, 4, 55, 0
6, 1984920, Note_on_c, 4, 54, 100
6, 1985040, Note_on_c, 4, 54, 0
6, 1985040, Note_on_c, 4, 52, 100
6, 1985160, Note_on_c, 4, 52, 0
6, 1985160, Note_on_c, 4, 50, 100
6, 1985280, Note_on_c, 4, 50, 0
6, 1985280, Note_on_c, 4, 49, 100
6, 1985400, Note_on_c, 4, 49, 0
6, 1985400, Note_on_c, 4, 47, 100
6, 1985520, Note_on_c, 4, 47, 0
6, 1985520, Note_on_c, 4, 45, 100
6, 1985640, Note_on_c, 4, 45, 0
6, 1985640, Note_on_c, 4, 52, 100
6, 1985760, Note_on_c, 4, 52, 0
6, 1985760, Note_on_c, 4, 55, 100
6, 1985880, Note_on_c, 4, 55, 0
6, 1985880, Note_on_c, 4, 54, 100
6, 1986000, Note_on_c, 4, 54, 0
6, 1986000, Note_on_c, 4, 52, 100
6, 1986120, Note_on_c, 4, 52, 0
6, 1986120, Note_on_c, 4, 50, 100
6, 1986240, Note_on_c, 4, 50, 0
6, 1986240, Note_on_c, 4, 49, 100
6, 1986360, Note_on_c, 4, 49, 0
6, 1986360, Note_on_c, 4, 47, 100
6, 1986480, Note_on_c, 4, 47, 0
6, 1986480, Note_on_c, 4, 45, 100
6, 1986600, Note_on_c, 4, 45, 0
6, 1986600, Note_on_c, 4, 43, 100
6, 1986720, Note_on_c, 4, 43, 0
6, 1986720, Note_on_c, 4, 42, 100
6, 1986840, Note_on_c, 4, 42, 0
6, 1986840, Note_on_c, 4, 40, 100
6, 1986960, Note_on_c, 4, 40, 0
6, 1986960, Note_on_c, 4, 38, 100
6, 1987560, Note_on_c, 4, 38, 0
6, 1987560, Note_on_c, 4, 40, 100
6, 1987620, Note_on_c, 4, 40, 0
6, 1987620, Note_on_c, 4, 42, 100
6, 1987680, Note_on_c, 4, 42, 0
6, 1987680, Note_on_c, 4, 43, 100
6, 1987740, Note_on_c, 4, 43, 0
6, 1987740, Note_on_c, 4, 45, 100
6, 1987800, Note_on_c, 4, 45, 0
6, 1987800, Note_on_c, 4, 47, 100
6, 1987860, Note_on_c, 4, 47, 0
6, 1987860, Note_on_c, 4, 49, 100
6, 1987920, Note_on_c, 4, 49, 0
6, 1987920, Note_on_c, 4, 50, 100
6, 1988160, Note_on_c, 4, 50, 0
6, 1988400, Note_on_c, 4, 67, 100
6, 1988640, Note_on_c, 4, 67, 0
6, 1988640, Note_on_c, 4, 83, 100
6, 1988760, Note_on_c, 4, 83, 0
6, 1988760, Note_on_c, 4, 81, 100
6, 1988880, Note_on_c, 4, 81, 0
6, 1988880, Note_on_c, 4, 79, 100
6, 1989000, Note_on_c, 4, 79, 0
6, 1989000, Note_on_c, 4, 78, 100
6, 1989120, Note_on_c, 4, 78, 0
6, 1989120, Note_on_c, 4, 76, 100
6, 1989240, Note_on_c, 4, 76, 0
6, 1989240, Note_on_c, 4, 74, 100
6, 1989360, Note_on_c, 4, 74, 0
6, 1989360, Note_on_c, 4, 73, 100
6, 1989480, Note_on_c, 4, 73, 0
6, 1989480, Note_on_c, 4, 71, 100
6, 1989600, Note_on_c, 4, 71, 0
6, 1989600, Note_on_c, 4, 69, 100
6, 1989720, Note_on_c, 4, 69, 0
6, 1989720, Note_on_c, 4, 67, 100
6, 1989840, Note_on_c, 4, 67, 0
6, 1989840, Note_on_c, 4, 66, 100
6, 1990080, Note_on_c, 4, 66, 0
6, 1990080, Note_on_c, 4, 81, 100
6, 1990200, Note_on_c, 4, 81, 0
6, 1990200, Note_on_c, 4, 79, 100
6, 1990320, Note_on_c, 4, 79, 0
6, 1990320, Note_on_c, 4, 78, 100
6, 1990440, Note_on_c, 4, 78, 0
6, 1990440, Note_on_c, 4, 76, 100
6, 1990560, Note_on_c, 4, 76, 0
6, 1990560, Note_on_c, 4, 74, 100
6, 1990680, Note_on_c, 4, 74, 0
6, 1990680, Note_on_c, 4, 73, 100
6, 1990800, Note_on_c, 4, 73, 0
6, 1990800, Note_on_c, 4, 71, 100
6, 1990920, Note_on_c, 4, 71, 0
6, 1990920, Note_on_c, 4, 69, 100
6, 1991040, Note_on_c, 4, 69, 0
6, 1991040, Note_on_c, 4, 67, 100
6, 1991160, Note_on_c, 4, 67, 0
6, 1991160, Note_on_c, 4, 66, 100
6, 1991280, Note_on_c, 4, 66, 0
6, 1991280, Note_on_c, 4, 64, 100
6, 1991520, Note_on_c, 4, 64, 0
6, 1991520, Note_on_c, 4, 79, 100
6, 1991640, Note_on_c, 4, 79, 0
6, 1991640, Note_on_c, 4, 78, 100
6, 1991760, Note_on_c, 4, 78, 0
6, 1991760, Note_on_c, 4, 76, 100
6, 1991880, Note_on_c, 4, 76, 0
6, 1991880, Note_on_c, 4, 74, 100
6, 1992000, Note_on_c, 4, 74, 0
6, 1992000, Note_on_c, 4, 73, 100
6, 1992120, Note_on_c, 4, 73, 0
6, 1992120, Note_on_c, 4, 71, 100
6, 1992240, Note_on_c, 4, 71, 0
6, 1992240, Note_on_c, 4, 69, 100
6, 1992360, Note_on_c, 4, 69, 0
6, 1992360, Note_on_c, 4, 67, 100
6, 1992480, Note_on_c, 4, 67, 0
6, 1992480, Note_on_c, 4, 66, 100
6, 1992600, Note_on_c, 4, 66, 0
6, 1992600, Note_on_c, 4, 64, 100
6, 1992720, Note_on_c, 4, 64, 0
6, 1992720, Note_on_c, 4, 62, 100
6, 1992960, Note_on_c, 4, 62, 0
6, 1993080, Note_on_c, 4, 60, 100
6, 1993140, Note_on_c, 4, 60, 0
6, 1993140, Note_on_c, 4, 59, 100
6, 1993200, Note_on_c, 4, 59, 0
6, 1993200, Note_on_c, 4, 57, 100
6, 1993260, Note_on_c, 4, 57, 0
6, 1993260, Note_on_c, 4, 55, 100
6, 1993320, Note_on_c, 4, 55, 0
6, 1993320, Note_on_c, 4, 54, 100
6, 1993380, Note_on_c, 4, 54, 0
6, 1993380, Note_on_c, 4, 52, 100
6, 1993440, Note_on_c, 4, 52, 0
6, 1993440, Note_on_c, 4, 50, 100
6, 1993680, Note_on_c, 4, 50, 0
6, 1994040, Note_on_c, 4, 48, 100
6, 1994160, Note_on_c, 4, 48, 0
6, 1994160, Note_on_c, 4, 47, 100
6, 1994400, Note_on_c, 4, 47, 0
6, 1994640, Note_on_c, 4, 59, 100
6, 1994760, Note_on_c, 4, 59, 0
6, 1994760, Note_on_c, 4, 60, 100
6, 1994880, Note_on_c, 4, 60, 0
6, 1994880, Note_on_c, 4, 62, 100
6, 1995000, Note_on_c, 4, 62, 0
6, 1995000, Note_on_c, 4, 64, 100
6, 1995120, Note_on_c, 4, 64, 0
6, 1995120, Note_on_c, 4, 66, 100
6, 1995240, Note_on_c, 4, 66, 0
6, 1995240, Note_on_c, 4, 67, 100
6, 1995360, Note_on_c, 4, 67, 0
6, 1995360, Note_on_c, 4, 69, 100
6, 1995480, Note_on_c, 4, 69, 0
6, 1995480, Note_on_c, 4, 71, 100
6, 1995600, Note_on_c, 4, 71, 0
6, 1995600, Note_on_c, 4, 72, 100
6, 1995720, Note_on_c, 4, 72, 0
6, 1995720, Note_on_c, 4, 74, 100
6, 1995840, Note_on_c, 4, 74, 0
6, 1995840, Note_on_c, 4, 76, 100
6, 1996080, Note_on_c, 4, 76, 0
6, 1996080, Note_on_c, 4, 60, 100
6, 1996200, Note_on_c, 4, 60, 0
6, 1996200, Note_on_c, 4, 62, 100
6, 1996320, Note_on_c, 4, 62, 0
6, 1996320, Note_on_c, 4, 64, 100
6, 1996440, Note_on_c, 4, 64, 0
6, 1996440, Note_on_c, 4, 66, 100
6, 1996560, Note_on_c, 4, 66, 0
6, 1996560, Note_on_c, 4, 67, 100
6, 1996680, Note_on_c, 4, 67, 0
6, 1996680, Note_on_c, 4, 69, 100
6, 1996800, Note_on_c, 4, 69, 0
6, 1996800, Note_on_c, 4, 71, 100
6, 1996920, Note_on_c, 4, 71, 0
6, 1996920, Note_on_c, 4, 72, 100
6, 1997040, Note_on_c, 4, 72, 0
6, 1997040, Note_on_c, 4, 74, 100
6, 1997160, Note_on_c, 4, 74, 0
6, 1997160, Note_on_c, 4, 76, 100
6, 1997280, Note_on_c, 4, 76, 0
6, 1997280, Note_on_c, 4, 78, 100
6, 1997520, Note_on_c, 4, 78, 0
6, 1997520, Note_on_c, 4, 62, 100
6, 1997640, Note_on_c, 4, 62, 0
6, 1997640, Note_on_c, 4, 64, 100
6, 1997760, Note_on_c, 4, 64, 0
6, 1997760, Note_on_c, 4, 66, 100
6, 1997880, Note_on_c, 4, 66, 0
6, 1997880, Note_on_c, 4, 67, 100
6, 1998000, Note_on_c, 4, 67, 0
6, 1998000, Note_on_c, 4, 69, 100
6, 1998120, Note_on_c, 4, 69, 0
6, 1998120, Note_on_c, 4, 71, 100
6, 1998240, Note_on_c, 4, 71, 0
6, 1998240, Note_on_c, 4, 72, 100
6, 1998360, Note_on_c, 4, 72, 0
6, 1998360, Note_on_c, 4, 69, 100
6, 1998480, Note_on_c, 4, 69, 0
6, 1998480, Note_on_c, 4, 71, 100
6, 1998540, Note_on_c, 4, 71, 0
6, 1998540, Note_on_c, 4, 67, 100
6, 1998600, Note_on_c, 4, 67, 0
6, 1998600, Note_on_c, 4, 69, 100
6, 1998660, Note_on_c, 4, 69, 0
6, 1998660, Note_on_c, 4, 71, 100
6, 1998720, Note_on_c, 4, 71, 0
6, 1998720, Note_on_c, 4, 72, 100
6, 1998780, Note_on_c, 4, 72, 0
6, 1998780, Note_on_c, 4, 74, 100
6, 1998840, Note_on_c, 4, 74, 0
6, 1998840, Note_on_c, 4, 76, 100
6, 1998900, Note_on_c, 4, 76, 0
6, 1998900, Note_on_c, 4, 78, 100
6, 1998960, Note_on_c, 4, 78, 0
6, 1998960, Note_on_c, 4, 79, 100
6, 1999080, Note_on_c, 4, 79, 0
6, 1999560, Note_on_c, 4, 66, 100
6, 1999620, Note_on_c, 4, 66, 0
6, 1999620, Note_on_c, 4, 64, 100
6, 1999680, Note_on_c, 4, 64, 0
6, 1999680, Note_on_c, 4, 62, 100
6, 1999740, Note_on_c, 4, 62, 0
6, 1999740, Note_on_c, 4, 60, 100
6, 1999800, Note_on_c, 4, 60, 0
6, 1999800, Note_on_c, 4, 59, 100
6, 1999860, Note_on_c, 4, 59, 0
6, 1999860, Note_on_c, 4, 57, 100
6, 1999920, Note_on_c, 4, 57, 0
6, 1999920, Note_on_c, 4, 55, 100
6, 2000160, Note_on_c, 4, 55, 0
6, 2000280, Note_on_c, 4, 57, 100
6, 2000400, Note_on_c, 4, 57, 0
6, 2000400, Note_on_c, 4, 59, 100
6, 2000460, Note_on_c, 4, 59, 0
6, 2000460, Note_on_c, 4, 57, 100
6, 2000520, Note_on_c, 4, 57, 0
6, 2000520, Note_on_c, 4, 59, 100
6, 2000640, Note_on_c, 4, 59, 0
6, 2000760, Note_on_c, 4, 60, 100
6, 2000880, Note_on_c, 4, 60, 0
6, 2000880, Note_on_c, 4, 62, 100
6, 2000940, Note_on_c, 4, 62, 0
6, 2000940, Note_on_c, 4, 60, 100
6, 2001000, Note_on_c, 4, 60, 0
6, 2001000, Note_on_c, 4, 62, 100
6, 2001120, Note_on_c, 4, 62, 0
6, 2001240, Note_on_c, 4, 64, 100
6, 2001360, Note_on_c, 4, 64, 0
6, 2001360, Note_on_c, 4, 66, 100
6, 2001420, Note_on_c, 4, 66, 0
6, 2001420, Note_on_c, 4, 64, 100
6, 2001480, Note_on_c, 4, 64, 0
6, 2001480, Note_on_c, 4, 66, 100
6, 2001600, Note_on_c, 4, 66, 0
6, 2001720, Note_on_c, 4, 67, 100
6, 2001840, Note_on_c, 4, 67, 0
6, 2001840, Note_on_c, 4, 69, 100
6, 2001900, Note_on_c, 4, 69, 0
6, 2001900, Note_on_c, 4, 67, 100
6, 2001960, Note_on_c, 4, 67, 0
6, 2001960, Note_on_c, 4, 69, 100
6, 2002080, Note_on_c, 4, 69, 0
6, 2002200, Note_on_c, 4, 71, 100
6, 2002320, Note_on_c, 4, 71, 0
6, 2002320, Note_on_c, 4, 73, 100
6, 2002380, Note_on_c, 4, 73, 0
6, 2002380, Note_on_c, 4, 71, 100
6, 2002440, Note_on_c, 4, 71, 0
6, 2002440, Note_on_c, 4, 73, 100
6, 2002560, Note_on_c, 4, 73, 0
6, 2002680, Note_on_c, 4, 74, 100
6, 2002800, Note_on_c, 4, 74, 0
6, 2002800, Note_on_c, 4, 76, 100
6, 2002860, Note_on_c, 4, 76, 0
6, 2002860, Note_on_c, 4, 74, 100
6, 2002920, Note_on_c, 4, 74, 0
6, 2002920, Note_on_c, 4, 76, 100
6, 2003040, Note_on_c, 4, 76, 0
6, 2003160, Note_on_c, 4, 78, 100
6, 2003280, Note_on_c, 4, 78, 0
6, 2003280, Note_on_c, 4, 79, 100
6, 2003340, Note_on_c, 4, 79, 0
6, 2003340, Note_on_c, 4, 78, 100
6, 2003400, Note_on_c, 4, 78, 0
6, 2003400, Note_on_c, 4, 79, 100
6, 2003520, Note_on_c, 4, 79, 0
6, 2003640, Note_on_c, 4, 81, 100
6, 2003760, Note_on_c, 4, 81, 0
6, 2003760, Note_on_c, 4, 83, 100
6, 2003820, Note_on_c, 4, 83, 0
6, 2003820, Note_on_c, 4, 81, 100
6, 2003880, Note_on_c, 4, 81, 0
6, 2003880, Note_on_c, 4, 83, 100
6, 2004000, Note_on_c, 4, 83, 0
6, 2004120, Note_on_c, 4, 74, 100
6, 2004240, Note_on_c, 4, 74, 0
6, 2004240, Note_on_c, 4, 73, 100
6, 2004480, Note_on_c, 4, 73, 0
6, 2004600, Note_on_c, 4, 76, 100
6, 2004720, Note_on_c, 4, 76, 0
6, 2004720, Note_on_c, 4, 67, 100
6, 2004960, Note_on_c, 4, 67, 0
6, 2005080, Note_on_c, 4, 71, 100
6, 2005200, Note_on_c, 4, 71, 0
6, 2005200, Note_on_c, 4, 71, 100
6, 2005240, Note_on_c, 4, 71, 0
6, 2005240, Note_on_c, 4, 69, 100
6, 2005280, Note_on_c, 4, 69, 0
6, 2005280, Note_on_c, 4, 71, 100
6, 2005320, Note_on_c, 4, 71, 0
6, 2005320, Note_on_c, 4, 69, 100
6, 2005440, Note_on_c, 4, 69, 0
6, 2005560, Note_on_c, 4, 67, 100
6, 2005680, Note_on_c, 4, 67, 0
6, 2005680, Note_on_c, 4, 67, 100
6, 2005720, Note_on_c, 4, 67, 0
6, 2005720, Note_on_c, 4, 66, 100
6, 2005760, Note_on_c, 4, 66, 0
6, 2005760, Note_on_c, 4, 67, 100
6, 2005800, Note_on_c, 4, 67, 0
6, 2005800, Note_on_c, 4, 66, 100
6, 2005920, Note_on_c, 4, 66, 0
6, 2006040, Note_on_c, 4, 57, 100
6, 2006160, Note_on_c, 4, 57, 0
6, 2006160, Note_on_c, 4, 69, 100
6, 2006280, Note_on_c, 4, 69, 0
6, 2006280, Note_on_c, 4, 67, 100
6, 2006400, Note_on_c, 4, 67, 0
6, 2006400, Note_on_c, 4, 66, 100
6, 2006520, Note_on_c, 4, 66, 0
6, 2006520, Note_on_c, 4, 64, 100
6, 2006640, Note_on_c, 4, 64, 0
6, 2006640, Note_on_c, 4, 62, 100
6, 2006760, Note_on_c, 4, 62, 0
6, 2006760, Note_on_c, 4, 60, 100
6, 2006880, Note_on_c, 4, 60, 0
6, 2006880, Note_on_c, 4, 59, 100
6, 2007000, Note_on_c, 4, 59, 0
6, 2007000, Note_on_c, 4, 57, 100
6, 2007120, Note_on_c, 4, 57, 0
6, 2007120, Note_on_c, 4, 55, 100
6, 2007240, Note_on_c, 4, 55, 0
6, 2007240, Note_on_c, 4, 59, 100
6, 2007360, Note_on_c, 4, 59, 0
6, 2007360, Note_on_c, 4, 62, 100
6, 2007480, Note_on_c, 4, 62, 0
6, 2007480, Note_on_c, 4, 60, 100
6, 2007600, Note_on_c, 4, 60, 0
6, 2007600, Note_on_c, 4, 59, 100
6, 2007720, Note_on_c, 4, 59, 0
6, 2007720, Note_on_c, 4, 57, 100
6, 2007840, Note_on_c, 4, 57, 0
6, 2007840, Note_on_c, 4, 55, 100
6, 2007960, Note_on_c, 4, 55, 0
6, 2007960, Note_on_c, 4, 54, 100
6, 2008080, Note_on_c, 4, 54, 0
6, 2008080, Note_on_c, 4, 52, 100
6, 2008200, Note_on_c, 4, 52, 0
6, 2008200, Note_on_c, 4, 50, 100
6, 2008320, Note_on_c, 4, 50, 0
6, 2008320, Note_on_c, 4, 49, 100
6, 2008440, Note_on_c, 4, 49, 0
6, 2008440, Note_on_c, 4, 47, 100
6, 2008560, Note_on_c, 4, 47, 0
6, 2008560, Note_on_c, 4, 45, 100
6, 2008680, Note_on_c, 4, 45, 0
6, 2008680, Note_on_c, 4, 52, 100
6, 2008800, Note_on_c, 4, 52, 0
6, 2008800, Note_on_c, 4, 55, 100
6, 2008920, Note_on_c, 4, 55, 0
6, 2008920, Note_on_c, 4, 54, 100
6, 2009040, Note_on_c, 4, 54, 0
6, 2009040, Note_on_c, 4, 52, 100
6, 2009160, Note_on_c, 4, 52, 0
6, 2009160, Note_on_c, 4, 50, 100
6, 2009280, Note_on_c, 4, 50, 0
6, 2009280, Note_on_c, 4, 49, 100
6, 2009400, Note_on_c, 4, 49, 0
6, 2009400, Note_on_c, 4, 47, 100
6, 2009520, Note_on_c, 4, 47, 0
6, 2009520, Note_on_c, 4, 45, 100
6, 2009640, Note_on_c, 4, 45, 0
6, 2009640, Note_on_c, 4, 43, 100
6, 2009760, Note_on_c, 4, 43, 0
6, 2009760, Note_on_c, 4, 42, 100
6, 2009880, Note_on_c, 4, 42, 0
6, 2009880, Note_on_c, 4, 40, 100
6, 2010000, Note_on_c, 4, 40, 0
6, 2010000, Note_on_c, 4, 38, 100
6, 2010600, Note_on_c, 4, 38, 0
6, 2010600, Note_on_c, 4, 40, 100
6, 2010660, Note_on_c, 4, 40, 0
6, 2010660, Note_on_c, 4, 42, 100
6, 2010720, Note_on_c, 4, 42, 0
6, 2010720, Note_on_c, 4, 43, 100
6, 2010780, Note_on_c, 4, 43, 0
6, 2010780, Note_on_c, 4, 45, 100
6, 2010840, Note_on_c, 4, 45, 0
6, 2010840, Note_on_c, 4, 47, 100
6, 2010900, Note_on_c, 4, 47, 0
6, 2010900, Note_on_c, 4, 49, 100
6, 2010960, Note_on_c, 4, 49, 0
6, 2010960, Note_on_c, 4, 50, 100
6, 2011200, Note_on_c, 4, 50, 0
6, 2011560, Note_on_c, 4, 50, 100
6, 2011680, Note_on_c, 4, 50, 0
6, 2011680, Note_on_c, 4, 50, 100
6, 2011800, Note_on_c, 4, 50, 0
6, 2011980, Note_on_c, 4, 52, 100
6, 2012040, Note_on_c, 4, 52, 0
6, 2012040, Note_on_c, 4, 54, 100
6, 2012100, Note_on_c, 4, 54, 0
6, 2012100, Note_on_c, 4, 55, 100
6, 2012160, Note_on_c, 4, 55, 0
6, 2012160, Note_on_c, 4, 57, 100
6, 2012280, Note_on_c, 4, 57, 0
6, 2012460, Note_on_c, 4, 57, 100
6, 2012520, Note_on_c, 4, 57, 0
6, 2012520, Note_on_c, 4, 59, 100
6, 2012580, Note_on_c, 4, 59, 0
6, 2012580, Note_on_c, 4, 60, 100
6, 2012640, Note_on_c, 4, 60, 0
6, 2012640, Note_on_c, 4, 62, 100
6, 2012760, Note_on_c, 4, 62, 0
6, 2013000, Note_on_c, 4, 55, 100
6, 2013120, Note_on_c, 4, 55, 0
6, 2013120, Note_on_c, 4, 55, 100
6, 2013240, Note_on_c, 4, 55, 0
6, 2013420, Note_on_c, 4, 62, 100
6, 2013480, Note_on_c, 4, 62, 0
6, 2013480, Note_on_c, 4, 64, 100
6, 2013540, Note_on_c, 4, 64, 0
6, 2013540, Note_on_c, 4, 66, 100
6, 2013600, Note_on_c, 4, 66, 0
6, 2013600, Note_on_c, 4, 67, 100
6, 2013720, Note_on_c, 4, 67, 0
6, 2013900, Note_on_c, 4, 66, 100
6, 2013960, Note_on_c, 4, 66, 0
6, 2013960, Note_on_c, 4, 67, 100
6, 2014020, Note_on_c, 4, 67, 0
6, 2014020, Note_on_c, 4, 69, 100
6, 2014080, Note_on_c, 4, 69, 0
6, 2014080, Note_on_c, 4, 71, 100
6, 2014200, Note_on_c, 4, 71, 0
6, 2014440, Note_on_c, 4, 69, 100
6, 2014560, Note_on_c, 4, 69, 0
6, 2014560, Note_on_c, 4, 69, 100
6, 2014680, Note_on_c, 4, 69, 0
6, 2014860, Note_on_c, 4, 71, 100
6, 2014920, Note_on_c, 4, 71, 0
6, 2014920, Note_on_c, 4, 72, 100
6, 2014980, Note_on_c, 4, 72, 0
6, 2014980, Note_on_c, 4, 74, 100
6, 2015040, Note_on_c, 4, 74, 0
6, 2015040, Note_on_c, 4, 76, 100
6, 2015160, Note_on_c, 4, 76, 0
6, 2015340, Note_on_c, 4, 76, 100
6, 2015400, Note_on_c, 4, 76, 0
6, 2015400, Note_on_c, 4, 78, 100
6, 2015460, Note_on_c, 4, 78, 0
6, 2015460, Note_on_c, 4, 79, 100
6, 2015520, Note_on_c, 4, 79, 0
6, 2015520, Note_on_c, 4, 81, 100
6, 2015640, Note_on_c, 4, 81, 0
6, 2015880, Note_on_c, 4, 84, 100
6, 2016000, Note_on_c, 4, 84, 0
6, 2016000, Note_on_c, 4, 84, 100
6, 2016120, Note_on_c, 4, 84, 0
6, 2016300, Note_on_c, 4, 83, 100
6, 2016360, Note_on_c, 4, 83, 0
6, 2016360, Note_on_c, 4, 81, 100
6, 2016420, Note_on_c, 4, 81, 0
6, 2016420, Note_on_c, 4, 79, 100
6, 2016480, Note_on_c, 4, 79, 0
6, 2016480, Note_on_c, 4, 78, 100
6, 2016600, Note_on_c, 4, 78, 0
6, 2016780, Note_on_c, 4, 79, 100
6, 2016840, Note_on_c, 4, 79, 0
6, 2016840, Note_on_c, 4, 78, 100
6, 2016900, Note_on_c, 4, 78, 0
6, 2016900, Note_on_c, 4, 76, 100
6, 2016960, Note_on_c, 4, 76, 0
6, 2016960, Note_on_c, 4, 75, 100
6, 2017080, Note_on_c, 4, 75, 0
6, 2017320, Note_on_c, 4, 76, 100
6, 2017440, Note_on_c, 4, 76, 0
6, 2017440, Note_on_c, 4, 74, 100
6, 2017560, Note_on_c, 4, 74, 0
6, 2017560, Note_on_c, 4, 72, 100
6, 2017680, Note_on_c, 4, 72, 0
6, 2017680, Note_on_c, 4, 71, 100
6, 2017800, Note_on_c, 4, 71, 0
6, 2017800, Note_on_c, 4, 69, 100
6, 2017920, Note_on_c, 4, 69, 0
6, 2017920, Note_on_c, 4, 67, 100
6, 2018040, Note_on_c, 4, 67, 0
6, 2018040, Note_on_c, 4, 66, 100
6, 2018160, Note_on_c, 4, 66, 0
6, 2018160, Note_on_c, 4, 64, 100
6, 2018280, Note_on_c, 4, 64, 0
6, 2018280, Note_on_c, 4, 62, 100
6, 2018400, Note_on_c, 4, 62, 0
6, 2018400, Note_on_c, 4, 60, 100
6, 2018520, Note_on_c, 4, 60, 0
6, 2018520, Note_on_c, 4, 59, 100
6, 2018640, Note_on_c, 4, 59, 0
6, 2018640, Note_on_c, 4, 57, 100
6, 2018880, Note_on_c, 4, 57, 0
6, 2019240, Note_on_c, 4, 56, 100
6, 2019360, Note_on_c, 4, 56, 0
6, 2019360, Note_on_c, 4, 57, 100
6, 2019480, Note_on_c, 4, 57, 0
6, 2019480, Note_on_c, 4, 59, 100
6, 2019600, Note_on_c, 4, 59, 0
6, 2019600, Note_on_c, 4, 60, 100
6, 2019720, Note_on_c, 4, 60, 0
6, 2019720, Note_on_c, 4, 61, 100
6, 2019840, Note_on_c, 4, 61, 0
6, 2019840, Note_on_c, 4, 62, 100
6, 2019960, Note_on_c, 4, 62, 0
6, 2019960, Note_on_c, 4, 64, 100
6, 2020080, Note_on_c, 4, 64, 0
6, 2020080, Note_on_c, 4, 66, 100
6, 2020320, Note_on_c, 4, 66, 0
6, 2020440, Note_on_c, 4, 57, 100
6, 2020560, Note_on_c, 4, 57, 0
6, 2020560, Note_on_c, 4, 55, 100
6, 2020800, Note_on_c, 4, 55, 0
6, 2020800, Note_on_c, 4, 60, 100
6, 2021040, Note_on_c, 4, 60, 0
6, 2021040, Note_on_c, 4, 57, 100
6, 2021280, Note_on_c, 4, 57, 0
6, 2021280, Note_on_c, 4, 59, 100
6, 2021520, Note_on_c, 4, 59, 0
6, 2021520, Note_on_c, 4, 52, 100
6, 2021760, Note_on_c, 4, 52, 0
6, 2021820, Note_on_c, 4, 69, 100
6, 2021880, Note_on_c, 4, 69, 0
6, 2021880, Note_on_c, 4, 67, 100
6, 2021940, Note_on_c, 4, 67, 0
6, 2021940, Note_on_c, 4, 66, 100
6, 2022000, Note_on_c, 4, 66, 0
6, 2022000, Note_on_c, 4, 67, 100
6, 2022060, Note_on_c, 4, 67, 0
6, 2022300, Note_on_c, 4, 60, 100
6, 2022360, Note_on_c, 4, 60, 0
6, 2022360, Note_on_c, 4, 59, 100
6, 2022420, Note_on_c, 4, 59, 0
6, 2022420, Note_on_c, 4, 57, 100
6, 2022480, Note_on_c, 4, 57, 0
6, 2022480, Note_on_c, 4, 59, 100
6, 2022540, Note_on_c, 4, 59, 0
6, 2022780, Note_on_c, 4, 53, 100
6, 2022840, Note_on_c, 4, 53, 0
6, 2022840, Note_on_c, 4, 52, 100
6, 2022900, Note_on_c, 4, 52, 0
6, 2022900, Note_on_c, 4, 50, 100
6, 2022960, Note_on_c, 4, 50, 0
6, 2022960, Note_on_c, 4, 48, 100
6, 2023200, Note_on_c, 4, 48, 0
6, 2023560, Note_on_c, 4, 62, 100
6, 2023680, Note_on_c, 4, 62, 0
6, 2023680, Note_on_c, 4, 60, 100
6, 2023800, Note_on_c, 4, 60, 0
6, 2023800, Note_on_c, 4, 59, 100
6, 2023920, Note_on_c, 4, 59, 0
6, 2023920, Note_on_c, 4, 57, 100
6, 2024040, Note_on_c, 4, 57, 0
6, 2024040, Note_on_c, 4, 55, 100
6, 2024160, Note_on_c, 4, 55, 0
6, 2024160, Note_on_c, 4, 54, 100
6, 2024280, Note_on_c, 4, 54, 0
6, 2024280, Note_on_c, 4, 52, 100
6, 2024400, Note_on_c, 4, 52, 0
6, 2024400, Note_on_c, 4, 50, 100
6, 2024640, Note_on_c, 4, 50, 0
6, 2025000, Note_on_c, 4, 48, 100
6, 2025120, Note_on_c, 4, 48, 0
6, 2025120, Note_on_c, 4, 50, 100
6, 2025240, Note_on_c, 4, 50, 0
6, 2025240, Note_on_c, 4, 52, 100
6, 2025360, Note_on_c, 4, 52, 0
6, 2025360, Note_on_c, 4, 54, 100
6, 2025480, Note_on_c, 4, 54, 0
6, 2025480, Note_on_c, 4, 55, 100
6, 2025600, Note_on_c, 4, 55, 0
6, 2025600, Note_on_c, 4, 57, 100
6, 2025720, Note_on_c, 4, 57, 0
6, 2025720, Note_on_c, 4, 59, 100
6, 2025840, Note_on_c, 4, 59, 0
6, 2025840, Note_on_c, 4, 60, 100
6, 2026080, Note_on_c, 4, 60, 0
6, 2026080, Note_on_c, 4, 60, 100
6, 2026320, Note_on_c, 4, 60, 0
6, 2026320, Note_on_c, 4, 60, 100
6, 2026560, Note_on_c, 4, 60, 0
6, 2026560, Note_on_c, 4, 60, 100
6, 2026800, Note_on_c, 4, 60, 0
6, 2026800, Note_on_c, 4, 57, 100
6, 2027040, Note_on_c, 4, 57, 0
6, 2027040, Note_on_c, 4, 57, 100
6, 2027280, Note_on_c, 4, 57, 0
6, 2027280, Note_on_c, 4, 54, 100
6, 2027520, Note_on_c, 4, 54, 0
6, 2027520, Note_on_c, 4, 54, 100
6, 2027760, Note_on_c, 4, 54, 0
6, 2027760, Note_on_c, 4, 54, 100
6, 2028000, Note_on_c, 4, 54, 0
6, 2028000, Note_on_c, 4, 54, 100
6, 2028240, Note_on_c, 4, 54, 0
6, 2028240, Note_on_c, 4, 50, 100
6, 2028480, Note_on_c, 4, 50, 0
6, 2028480, Note_on_c, 4, 50, 100
6, 2028720, Note_on_c, 4, 50, 0
6, 2028720, Note_on_c, 4, 47, 100
6, 2028960, Note_on_c, 4, 47, 0
6, 2028960, Note_on_c, 4, 47, 100
6, 2029200, Note_on_c, 4, 47, 0
6, 2029200, Note_on_c, 4, 47, 100
6, 2029440, Note_on_c, 4, 47, 0
6, 2029440, Note_on_c, 4, 50, 100
6, 2029680, Note_on_c, 4, 50, 0
6, 2029680, Note_on_c, 4, 53, 100
6, 2029920, Note_on_c, 4, 53, 0
6, 2029920, Note_on_c, 4, 57, 100
6, 2030160, Note_on_c, 4, 57, 0
6, 2030160, Note_on_c, 4, 60, 100
6, 2030400, Note_on_c, 4, 60, 0
6, 2030400, Note_on_c, 4, 60, 100
6, 2030640, Note_on_c, 4, 60, 0
6, 2030640, Note_on_c, 4, 60, 100
6, 2030880, Note_on_c, 4, 60, 0
6, 2030880, Note_on_c, 4, 64, 100
6, 2031120, Note_on_c, 4, 64, 0
6, 2031120, Note_on_c, 4, 67, 100
6, 2031360, Note_on_c, 4, 67, 0
6, 2031360, Note_on_c, 4, 71, 100
6, 2031600, Note_on_c, 4, 71, 0
6, 2031600, Note_on_c, 4, 74, 100
6, 2031720, Note_on_c, 4, 74, 0
6, 2032200, Note_on_c, 4, 64, 100
6, 2032320, Note_on_c, 4, 64, 0
6, 2032320, Note_on_c, 4, 62, 100
6, 2032440, Note_on_c, 4, 62, 0
6, 2032440, Note_on_c, 4, 60, 100
6, 2032560, Note_on_c, 4, 60, 0
6, 2032560, Note_on_c, 4, 59, 100
6, 2032680, Note_on_c, 4, 59, 0
6, 2032680, Note_on_c, 4, 57, 100
6, 2032800, Note_on_c, 4, 57, 0
6, 2032800, Note_on_c, 4, 55, 100
6, 2032920, Note_on_c, 4, 55, 0
6, 2032920, Note_on_c, 4, 54, 100
6, 2033040, Note_on_c, 4, 54, 0
6, 2033040, Note_on_c, 4, 55, 100
6, 2033160, Note_on_c, 4, 55, 0
6, 2033160, Note_on_c, 4, 47, 100
6, 2033280, Note_on_c, 4, 47, 0
6, 2033280, Note_on_c, 4, 48, 100
6, 2033400, Note_on_c, 4, 48, 0
6, 2033400, Note_on_c, 4, 50, 100
6, 2033520, Note_on_c, 4, 50, 0
6, 2033520, Note_on_c, 4, 52, 100
6, 2033640, Note_on_c, 4, 52, 0
6, 2033640, Note_on_c, 4, 54, 100
6, 2033760, Note_on_c, 4, 54, 0
6, 2033760, Note_on_c, 4, 55, 100
6, 2033880, Note_on_c, 4, 55, 0
6, 2033880, Note_on_c, 4, 57, 100
6, 2034000, Note_on_c, 4, 57, 0
6, 2034000, Note_on_c, 4, 59, 100
6, 2034240, Note_on_c, 4, 59, 0
6, 2034600, Note_on_c, 4, 50, 100
6, 2034720, Note_on_c, 4, 50, 0
6, 2034720, Note_on_c, 4, 50, 100
6, 2034840, Note_on_c, 4, 50, 0
6, 2035020, Note_on_c, 4, 52, 100
6, 2035080, Note_on_c, 4, 52, 0
6, 2035080, Note_on_c, 4, 54, 100
6, 2035140, Note_on_c, 4, 54, 0
6, 2035140, Note_on_c, 4, 55, 100
6, 2035200, Note_on_c, 4, 55, 0
6, 2035200, Note_on_c, 4, 57, 100
6, 2035320, Note_on_c, 4, 57, 0
6, 2035500, Note_on_c, 4, 57, 100
6, 2035560, Note_on_c, 4, 57, 0
6, 2035560, Note_on_c, 4, 59, 100
6, 2035620, Note_on_c, 4, 59, 0
6, 2035620, Note_on_c, 4, 60, 100
6, 2035680, Note_on_c, 4, 60, 0
6, 2035680, Note_on_c, 4, 62, 100
6, 2035800, Note_on_c, 4, 62, 0
6, 2036040, Note_on_c, 4, 55, 100
6, 2036160, Note_on_c, 4, 55, 0
6, 2036160, Note_on_c, 4, 55, 100
6, 2036280, Note_on_c, 4, 55, 0
6, 2036460, Note_on_c, 4, 62, 100
6, 2036520, Note_on_c, 4, 62, 0
6, 2036520, Note_on_c, 4, 64, 100
6, 2036580, Note_on_c, 4, 64, 0
6, 2036580, Note_on_c, 4, 66, 100
6, 2036640, Note_on_c, 4, 66, 0
6, 2036640, Note_on_c, 4, 67, 100
6, 2036760, Note_on_c, 4, 67, 0
6, 2036940, Note_on_c, 4, 66, 100
6, 2037000, Note_on_c, 4, 66, 0
6, 2037000, Note_on_c, 4, 67, 100
6, 2037060, Note_on_c, 4, 67, 0
6, 2037060, Note_on_c, 4, 69, 100
6, 2037120, Note_on_c, 4, 69, 0
6, 2037120, Note_on_c, 4, 71, 100
6, 2037240, Note_on_c, 4, 71, 0
6, 2037480, Note_on_c, 4, 69, 100
6, 2037600, Note_on_c, 4, 69, 0
6, 2037600, Note_on_c, 4, 69, 100
6, 2037720, Note_on_c, 4, 69, 0
6, 2037900, Note_on_c, 4, 71, 100
6, 2037960, Note_on_c, 4, 71, 0
6, 2037960, Note_on_c, 4, 72, 100
6, 2038020, Note_on_c, 4, 72, 0
6, 2038020, Note_on_c, 4, 74, 100
6, 2038080, Note_on_c, 4, 74, 0
6, 2038080, Note_on_c, 4, 76, 100
6, 2038200, Note_on_c, 4, 76, 0
6, 2038380, Note_on_c, 4, 76, 100
6, 2038440, Note_on_c, 4, 76, 0
6, 2038440, Note_on_c, 4, 78, 100
6, 2038500, Note_on_c, 4, 78, 0
6, 2038500, Note_on_c, 4, 79, 100
6, 2038560, Note_on_c, 4, 79, 0
6, 2038560, Note_on_c, 4, 81, 100
6, 2038680, Note_on_c, 4, 81, 0
6, 2038920, Note_on_c, 4, 84, 100
6, 2039040, Note_on_c, 4, 84, 0
6, 2039040, Note_on_c, 4, 84, 100
6, 2039160, Note_on_c, 4, 84, 0
6, 2039340, Note_on_c, 4, 83, 100
6, 2039400, Note_on_c, 4, 83, 0
6, 2039400, Note_on_c, 4, 81, 100
6, 2039460, Note_on_c, 4, 81, 0
6, 2039460, Note_on_c, 4, 79, 100
6, 2039520, Note_on_c, 4, 79, 0
6, 2039520, Note_on_c, 4, 78, 100
6, 2039640, Note_on_c, 4, 78, 0
6, 2039820, Note_on_c, 4, 79, 100
6, 2039880, Note_on_c, 4, 79, 0
6, 2039880, Note_on_c, 4, 78, 100
6, 2039940, Note_on_c, 4, 78, 0
6, 2039940, Note_on_c, 4, 76, 100
6, 2040000, Note_on_c, 4, 76, 0
6, 2040000, Note_on_c, 4, 75, 100
6, 2040120, Note_on_c, 4, 75, 0
6, 2040360, Note_on_c, 4, 76, 100
6, 2040480, Note_on_c, 4, 76, 0
6, 2040480, Note_on_c, 4, 74, 100
6, 2040600, Note_on_c, 4, 74, 0
6, 2040600, Note_on_c, 4, 72, 100
6, 2040720, Note_on_c, 4, 72, 0
6, 2040720, Note_on_c, 4, 71, 100
6, 2040840, Note_on_c, 4, 71, 0
6, 2040840, Note_on_c, 4, 69, 100
6, 2040960, Note_on_c, 4, 69, 0
6, 2040960, Note_on_c, 4, 67, 100
6, 2041080, Note_on_c, 4, 67, 0
6, 2041080, Note_on_c, 4, 66, 100
6, 2041200, Note_on_c, 4, 66, 0
6, 2041200, Note_on_c, 4, 64, 100
6, 2041320, Note_on_c, 4, 64, 0
6, 2041320, Note_on_c, 4, 62, 100
6, 2041440, Note_on_c, 4, 62, 0
6, 2041440, Note_on_c, 4, 60, 100
6, 2041560, Note_on_c, 4, 60, 0
6, 2041560, Note_on_c, 4, 59, 100
6, 2041680, Note_on_c, 4, 59, 0
6, 2041680, Note_on_c, 4, 57, 100
6, 2041920, Note_on_c, 4, 57, 0
6, 2042280, Note_on_c, 4, 56, 100
6, 2042400, Note_on_c, 4, 56, 0
6, 2042400, Note_on_c, 4, 57, 100
6, 2042520, Note_on_c, 4, 57, 0
6, 2042520, Note_on_c, 4, 59, 100
6, 2042640, Note_on_c, 4, 59, 0
6, 2042640, Note_on_c, 4, 60, 100
6, 2042760, Note_on_c, 4, 60, 0
6, 2042760, Note_on_c, 4, 61, 100
6, 2042880, Note_on_c, 4, 61, 0
6, 2042880, Note_on_c, 4, 62, 100
6, 2043000, Note_on_c, 4, 62, 0
6, 2043000, Note_on_c, 4, 64, 100
6, 2043120, Note_on_c, 4, 64, 0
6, 2043120, Note_on_c, 4, 66, 100
6, 2043360, Note_on_c, 4, 66, 0
6, 2043480, Note_on_c, 4, 57, 100
6, 2043600, Note_on_c, 4, 57, 0
6, 2043600, Note_on_c, 4, 55, 100
6, 2043840, Note_on_c, 4, 55, 0
6, 2043840, Note_on_c, 4, 60, 100
6, 2044080, Note_on_c, 4, 60, 0
6, 2044080, Note_on_c, 4, 57, 100
6, 2044320, Note_on_c, 4, 57, 0
6, 2044320, Note_on_c, 4, 59, 100
6, 2044560, Note_on_c, 4, 59, 0
6, 2044560, Note_on_c, 4, 52, 100
6, 2044800, Note_on_c, 4, 52, 0
6, 2044860, Note_on_c, 4, 69, 100
6, 2044920, Note_on_c, 4, 69, 0
6, 2044920, Note_on_c, 4, 67, 100
6, 2044980, Note_on_c, 4, 67, 0
6, 2044980, Note_on_c, 4, 66, 100
6, 2045040, Note_on_c, 4, 66, 0
6, 2045040, Note_on_c, 4, 67, 100
6, 2045100, Note_on_c, 4, 67, 0
6, 2045340, Note_on_c, 4, 60, 100
6, 2045400, Note_on_c, 4, 60, 0
6, 2045400, Note_on_c, 4, 59, 100
6, 2045460, Note_on_c, 4, 59, 0
6, 2045460, Note_on_c, 4, 57, 100
6, 2045520, Note_on_c, 4, 57, 0
6, 2045520, Note_on_c, 4, 59, 100
6, 2045580, Note_on_c, 4, 59, 0
6, 2045820, Note_on_c, 4, 53, 100
6, 2045880, Note_on_c, 4, 53, 0
6, 2045880, Note_on_c, 4, 52, 100
6, 2045940, Note_on_c, 4, 52, 0
6, 2045940, Note_on_c, 4, 50, 100
6, 2046000, Note_on_c, 4, 50, 0
6, 2046000, Note_on_c, 4, 48, 100
6, 2046240, Note_on_c, 4, 48, 0
6, 2046600, Note_on_c, 4, 62, 100
6, 2046720, Note_on_c, 4, 62, 0
6, 2046720, Note_on_c, 4, 60, 100
6, 2046840, Note_on_c, 4, 60, 0
6, 2046840, Note_on_c, 4, 59, 100
6, 2046960, Note_on_c, 4, 59, 0
6, 2046960, Note_on_c, 4, 57, 100
6, 2047080, Note_on_c, 4, 57, 0
6, 2047080, Note_on_c, 4, 55, 100
6, 2047200, Note_on_c, 4, 55, 0
6, 2047200, Note_on_c, 4, 54, 100
6, 2047320, Note_on_c, 4, 54, 0
6, 2047320, Note_on_c, 4, 52, 100
6, 2047440, Note_on_c, 4, 52, 0
6, 2047440, Note_on_c, 4, 50, 100
6, 2047680, Note_on_c, 4, 50, 0
6, 2048040, Note_on_c, 4, 48, 100
6, 2048160, Note_on_c, 4, 48, 0
6, 2048160, Note_on_c, 4, 50, 100
6, 2048280, Note_on_c, 4, 50, 0
6, 2048280, Note_on_c, 4, 52, 100
6, 2048400, Note_on_c, 4, 52, 0
6, 2048400, Note_on_c, 4, 54, 100
6, 2048520, Note_on_c, 4, 54, 0
6, 2048520, Note_on_c, 4, 55, 100
6, 2048640, Note_on_c, 4, 55, 0
6, 2048640, Note_on_c, 4, 57, 100
6, 2048760, Note_on_c, 4, 57, 0
6, 2048760, Note_on_c, 4, 59, 100
6, 2048880, Note_on_c, 4, 59, 0
6, 2048880, Note_on_c, 4, 60, 100
6, 2049120, Note_on_c, 4, 60, 0
6, 2049120, Note_on_c, 4, 60, 100
6, 2049360, Note_on_c, 4, 60, 0
6, 2049360, Note_on_c, 4, 60, 100
6, 2049600, Note_on_c, 4, 60, 0
6, 2049600, Note_on_c, 4, 60, 100
6, 2049840, Note_on_c, 4, 60, 0
6, 2049840, Note_on_c, 4, 57, 100
6, 2050080, Note_on_c, 4, 57, 0
6, 2050080, Note_on_c, 4, 57, 100
6, 2050320, Note_on_c, 4, 57, 0
6, 2050320, Note_on_c, 4, 54, 100
6, 2050560, Note_on_c, 4, 54, 0
6, 2050560, Note_on_c, 4, 54, 100
6, 2050800, Note_on_c, 4, 54, 0
6, 2050800, Note_on_c, 4, 54, 100
6, 2051040, Note_on_c, 4, 54, 0
6, 2051040, Note_on_c, 4, 54, 100
6, 2051280, Note_on_c, 4, 54, 0
6, 2051280, Note_on_c, 4, 50, 100
6, 2051520, Note_on_c, 4, 50, 0
6, 2051520, Note_on_c, 4, 50, 100
6, 2051760, Note_on_c, 4, 50, 0
6, 2051760, Note_on_c, 4, 47, 100
6, 2052000, Note_on_c, 4, 47, 0
6, 2052000, Note_on_c, 4, 47, 100
6, 2052240, Note_on_c, 4, 47, 0
6, 2052240, Note_on_c, 4, 47, 100
6, 2052480, Note_on_c, 4, 47, 0
6, 2052480, Note_on_c, 4, 50, 100
6, 2052720, Note_on_c, 4, 50, 0
6, 2052720, Note_on_c, 4, 53, 100
6, 2052960, Note_on_c, 4, 53, 0
6, 2052960, Note_on_c, 4, 57, 100
6, 2053200, Note_on_c, 4, 57, 0
6, 2053200, Note_on_c, 4, 60, 100
6, 2053440, Note_on_c, 4, 60, 0
6, 2053440, Note_on_c, 4, 60, 100
6, 2053680, Note_on_c, 4, 60, 0
6, 2053680, Note_on_c, 4, 60, 100
6, 2053920, Note_on_c, 4, 60, 0
6, 2053920, Note_on_c, 4, 64, 100
6, 2054160, Note_on_c, 4, 64, 0
6, 2054160, Note_on_c, 4, 67, 100
6, 2054400, Note_on_c, 4, 67, 0
6, 2054400, Note_on_c, 4, 71, 100
6, 2054640, Note_on_c, 4, 71, 0
6, 2054640, Note_on_c, 4, 74, 100
6, 2054760, Note_on_c, 4, 74, 0
6, 2055240, Note_on_c, 4, 64, 100
6, 2055360, Note_on_c, 4, 64, 0
6, 2055360, Note_on_c, 4, 62, 100
6, 2055480, Note_on_c, 4, 62, 0
6, 2055480, Note_on_c, 4, 60, 100
6, 2055600, Note_on_c, 4, 60, 0
6, 2055600, Note_on_c, 4, 59, 100
6, 2055720, Note_on_c, 4, 59, 0
6, 2055720, Note_on_c, 4, 57, 100
6, 2055840, Note_on_c, 4, 57, 0
6, 2055840, Note_on_c, 4, 55, 100
6, 2055960, Note_on_c, 4, 55, 0
6, 2055960, Note_on_c, 4, 54, 100
6, 2056080, Note_on_c, 4, 54, 0
6, 2056080, Note_on_c, 4, 55, 100
6, 2056200, Note_on_c, 4, 55, 0
6, 2056200, Note_on_c, 4, 47, 100
6, 2056320, Note_on_c, 4, 47, 0
6, 2056320, Note_on_c, 4, 48, 100
6, 2056440, Note_on_c, 4, 48, 0
6, 2056440, Note_on_c, 4, 50, 100
6, 2056560, Note_on_c, 4, 50, 0
6, 2056560, Note_on_c, 4, 52, 100
6, 2056680, Note_on_c, 4, 52, 0
6, 2056680, Note_on_c, 4, 54, 100
6, 2056800, Note_on_c, 4, 54, 0
6, 2056800, Note_on_c, 4, 55, 100
6, 2056920, Note_on_c, 4, 55, 0
6, 2056920, Note_on_c, 4, 57, 100
6, 2057040, Note_on_c, 4, 57, 0
6, 2057040, Note_on_c, 4, 59, 100
6, 2057280, Note_on_c, 4, 59, 0
6, 2380080, Note_on_c, 4, 55, 100
6, 2380320, Note_on_c, 4, 55, 0
6, 2380320, Note_on_c, 4, 57, 100
6, 2380440, Note_on_c, 4, 57, 0
6, 2380440, Note_on_c, 4, 59, 100
6, 2380560, Note_on_c, 4, 59, 0
6, 2380560, Note_on_c, 4, 60, 100
6, 2380680, Note_on_c, 4, 60, 0
6, 2380680, Note_on_c, 4, 62, 100
6, 2380800, Note_on_c, 4, 62, 0
6, 2380800, Note_on_c, 4, 64, 100
6, 2380920, Note_on_c, 4, 64, 0
6, 2380920, Note_on_c, 4, 62, 100
6, 2381040, Note_on_c, 4, 62, 0
6, 2381040, Note_on_c, 4, 60, 100
6, 2381160, Note_on_c, 4, 60, 0
6, 2381160, Note_on_c, 4, 62, 100
6, 2381280, Note_on_c, 4, 62, 0
6, 2381280, Note_on_c, 4, 64, 100
6, 2381520, Note_on_c, 4, 64, 0
6, 2381520, Note_on_c, 4, 54, 100
6, 2381760, Note_on_c, 4, 54, 0
6, 2382240, Note_on_c, 4, 62, 100
6, 2382480, Note_on_c, 4, 62, 0
6, 2382960, Note_on_c, 4, 52, 100
6, 2383200, Note_on_c, 4, 52, 0
6, 2383200, Note_on_c, 4, 54, 100
6, 2383320, Note_on_c, 4, 54, 0
6, 2383320, Note_on_c, 4, 55, 100
6, 2383440, Note_on_c, 4, 55, 0
6, 2383440, Note_on_c, 4, 57, 100
6, 2383560, Note_on_c, 4, 57, 0
6, 2383560, Note_on_c, 4, 59, 100
6, 2383680, Note_on_c, 4, 59, 0
6, 2383680, Note_on_c, 4, 60, 100
6, 2383800, Note_on_c, 4, 60, 0
6, 2383800, Note_on_c, 4, 62, 100
6, 2383920, Note_on_c, 4, 62, 0
6, 2383920, Note_on_c, 4, 60, 100
6, 2384040, Note_on_c, 4, 60, 0
6, 2384040, Note_on_c, 4, 59, 100
6, 2384160, Note_on_c, 4, 59, 0
6, 2384160, Note_on_c, 4, 60, 100
6, 2384400, Note_on_c, 4, 60, 0
6, 2384400, Note_on_c, 4, 60, 100
6, 2384640, Note_on_c, 4, 60, 0
6, 2385120, Note_on_c, 4, 54, 100
6, 2385360, Note_on_c, 4, 54, 0
6, 2385840, Note_on_c, 4, 59, 100
6, 2385960, Note_on_c, 4, 59, 0
6, 2385960, Note_on_c, 4, 60, 100
6, 2386080, Note_on_c, 4, 60, 0
6, 2386080, Note_on_c, 4, 59, 100
6, 2386200, Note_on_c, 4, 59, 0
6, 2386200, Note_on_c, 4, 57, 100
6, 2386320, Note_on_c, 4, 57, 0
6, 2386320, Note_on_c, 4, 55, 100
6, 2386440, Note_on_c, 4, 55, 0
6, 2386440, Note_on_c, 4, 54, 100
6, 2386560, Note_on_c, 4, 54, 0
6, 2386560, Note_on_c, 4, 52, 100
6, 2386680, Note_on_c, 4, 52, 0
6, 2386680, Note_on_c, 4, 55, 100
6, 2386800, Note_on_c, 4, 55, 0
6, 2386800, Note_on_c, 4, 59, 100
6, 2386920, Note_on_c, 4, 59, 0
6, 2386920, Note_on_c, 4, 62, 100
6, 2387040, Note_on_c, 4, 62, 0
6, 2387040, Note_on_c, 4, 60, 100
6, 2387160, Note_on_c, 4, 60, 0
6, 2387160, Note_on_c, 4, 59, 100
6, 2387280, Note_on_c, 4, 59, 0
6, 2387280, Note_on_c, 4, 57, 100
6, 2387400, Note_on_c, 4, 57, 0
6, 2387400, Note_on_c, 4, 59, 100
6, 2387520, Note_on_c, 4, 59, 0
6, 2387520, Note_on_c, 4, 57, 100
6, 2387640, Note_on_c, 4, 57, 0
6, 2387640, Note_on_c, 4, 55, 100
6, 2387760, Note_on_c, 4, 55, 0
6, 2387760, Note_on_c, 4, 54, 100
6, 2387880, Note_on_c, 4, 54, 0
6, 2387880, Note_on_c, 4, 52, 100
6, 2388000, Note_on_c, 4, 52, 0
6, 2388000, Note_on_c, 4, 50, 100
6, 2388120, Note_on_c, 4, 50, 0
6, 2388120, Note_on_c, 4, 54, 100
6, 2388240, Note_on_c, 4, 54, 0
6, 2388240, Note_on_c, 4, 57, 100
6, 2388360, Note_on_c, 4, 57, 0
6, 2388360, Note_on_c, 4, 60, 100
6, 2388480, Note_on_c, 4, 60, 0
6, 2388480, Note_on_c, 4, 59, 100
6, 2388600, Note_on_c, 4, 59, 0
6, 2388600, Note_on_c, 4, 57, 100
6, 2388720, Note_on_c, 4, 57, 0
6, 2388720, Note_on_c, 4, 55, 100
6, 2388960, Note_on_c, 4, 55, 0
6, 2388960, Note_on_c, 4, 59, 100
6, 2389020, Note_on_c, 4, 59, 0
6, 2389020, Note_on_c, 4, 57, 100
6, 2389080, Note_on_c, 4, 57, 0
6, 2389080, Note_on_c, 4, 55, 100
6, 2389140, Note_on_c, 4, 55, 0
6, 2389140, Note_on_c, 4, 57, 100
6, 2389200, Note_on_c, 4, 57, 0
6, 2389200, Note_on_c, 4, 59, 100
6, 2389440, Note_on_c, 4, 59, 0
6, 2389440, Note_on_c, 4, 48, 100
6, 2389680, Note_on_c, 4, 48, 0
6, 2389680, Note_on_c, 4, 60, 100
6, 2390280, Note_on_c, 4, 60, 0
6, 2390280, Note_on_c, 4, 64, 100
6, 2390400, Note_on_c, 4, 64, 0
6, 2390400, Note_on_c, 4, 62, 100
6, 2390520, Note_on_c, 4, 62, 0
6, 2390520, Note_on_c, 4, 60, 100
6, 2390640, Note_on_c, 4, 60, 0
6, 2390640, Note_on_c, 4, 59, 100
6, 2390760, Note_on_c, 4, 59, 0
6, 2390760, Note_on_c, 4, 57, 100
6, 2390880, Note_on_c, 4, 57, 0
6, 2390880, Note_on_c, 4, 59, 100
6, 2391000, Note_on_c, 4, 59, 0
6, 2391000, Note_on_c, 4, 60, 100
6, 2391120, Note_on_c, 4, 60, 0
6, 2391120, Note_on_c, 4, 62, 100
6, 2391240, Note_on_c, 4, 62, 0
6, 2391240, Note_on_c, 4, 59, 100
6, 2391360, Note_on_c, 4, 59, 0
6, 2391360, Note_on_c, 4, 60, 100
6, 2391480, Note_on_c, 4, 60, 0
6, 2391480, Note_on_c, 4, 62, 100
6, 2391600, Note_on_c, 4, 62, 0
6, 2391600, Note_on_c, 4, 55, 100
6, 2391660, Note_on_c, 4, 55, 0
6, 2391660, Note_on_c, 4, 54, 100
6, 2391720, Note_on_c, 4, 54, 0
6, 2391720, Note_on_c, 4, 55, 100
6, 2393160, Note_on_c, 4, 55, 0
6, 2393160, Note_on_c, 4, 55, 100
6, 2393280, Note_on_c, 4, 55, 0
6, 2393280, Note_on_c, 4, 54, 100
6, 2393400, Note_on_c, 4, 54, 0
6, 2393400, Note_on_c, 4, 52, 100
6, 2393520, Note_on_c, 4, 52, 0
6, 2393520, Note_on_c, 4, 50, 100
6, 2393640, Note_on_c, 4, 50, 0
6, 2393640, Note_on_c, 4, 49, 100
6, 2393760, Note_on_c, 4, 49, 0
6, 2393760, Note_on_c, 4, 47, 100
6, 2393880, Note_on_c, 4, 47, 0
6, 2393880, Note_on_c, 4, 49, 100
6, 2394000, Note_on_c, 4, 49, 0
6, 2394000, Note_on_c, 4, 50, 100
6, 2394120, Note_on_c, 4, 50, 0
6, 2394120, Note_on_c, 4, 49, 100
6, 2394240, Note_on_c, 4, 49, 0
6, 2394240, Note_on_c, 4, 50, 100
6, 2394360, Note_on_c, 4, 50, 0
6, 2394360, Note_on_c, 4, 47, 100
6, 2394480, Note_on_c, 4, 47, 0
6, 2394480, Note_on_c, 4, 52, 100
6, 2394720, Note_on_c, 4, 52, 0
6, 2395200, Note_on_c, 4, 45, 100
6, 2395440, Note_on_c, 4, 45, 0
6, 2395920, Note_on_c, 4, 57, 100
6, 2396040, Note_on_c, 4, 57, 0
6, 2396040, Note_on_c, 4, 59, 100
6, 2396160, Note_on_c, 4, 59, 0
6, 2396160, Note_on_c, 4, 57, 100
6, 2396280, Note_on_c, 4, 57, 0
6, 2396280, Note_on_c, 4, 55, 100
6, 2396400, Note_on_c, 4, 55, 0
6, 2396400, Note_on_c, 4, 54, 100
6, 2396520, Note_on_c, 4, 54, 0
6, 2396520, Note_on_c, 4, 52, 100
6, 2396640, Note_on_c, 4, 52, 0
6, 2396640, Note_on_c, 4, 50, 100
6, 2396760, Note_on_c, 4, 50, 0
6, 2396760, Note_on_c, 4, 54, 100
6, 2396880, Note_on_c, 4, 54, 0
6, 2396880, Note_on_c, 4, 57, 100
6, 2397000, Note_on_c, 4, 57, 0
6, 2397000, Note_on_c, 4, 60, 100
6, 2397120, Note_on_c, 4, 60, 0
6, 2397120, Note_on_c, 4, 59, 100
6, 2397240, Note_on_c, 4, 59, 0
6, 2397240, Note_on_c, 4, 57, 100
6, 2397360, Note_on_c, 4, 57, 0
6, 2397360, Note_on_c, 4, 55, 100
6, 2397480, Note_on_c, 4, 55, 0
6, 2397480, Note_on_c, 4, 57, 100
6, 2397600, Note_on_c, 4, 57, 0
6, 2397600, Note_on_c, 4, 55, 100
6, 2397720, Note_on_c, 4, 55, 0
6, 2397720, Note_on_c, 4, 54, 100
6, 2397840, Note_on_c, 4, 54, 0
6, 2397840, Note_on_c, 4, 52, 100
6, 2397960, Note_on_c, 4, 52, 0
6, 2397960, Note_on_c, 4, 50, 100
6, 2398080, Note_on_c, 4, 50, 0
6, 2398080, Note_on_c, 4, 49, 100
6, 2398200, Note_on_c, 4, 49, 0
6, 2398200, Note_on_c, 4, 52, 100
6, 2398320, Note_on_c, 4, 52, 0
6, 2398320, Note_on_c, 4, 55, 100
6, 2398440, Note_on_c, 4, 55, 0
6, 2398440, Note_on_c, 4, 59, 100
6, 2398560, Note_on_c, 4, 59, 0
6, 2398560, Note_on_c, 4, 57, 100
6, 2398680, Note_on_c, 4, 57, 0
6, 2398680, Note_on_c, 4, 55, 100
6, 2398800, Note_on_c, 4, 55, 0
6, 2398800, Note_on_c, 4, 54, 100
6, 2399040, Note_on_c, 4, 54, 0
6, 2399040, Note_on_c, 4, 57, 100
6, 2399100, Note_on_c, 4, 57, 0
6, 2399100, Note_on_c, 4, 55, 100
6, 2399160, Note_on_c, 4, 55, 0
6, 2399160, Note_on_c, 4, 54, 100
6, 2399220, Note_on_c, 4, 54, 0
6, 2399220, Note_on_c, 4, 55, 100
6, 2399280, Note_on_c, 4, 55, 0
6, 2399280, Note_on_c, 4, 57, 100
6, 2399760, Note_on_c, 4, 57, 0
6, 2399760, Note_on_c, 4, 55, 100
6, 2400000, Note_on_c, 4, 55, 0
6, 2400000, Note_on_c, 4, 54, 100
6, 2400360, Note_on_c, 4, 54, 0
6, 2400360, Note_on_c, 4, 52, 100
6, 2400480, Note_on_c, 4, 52, 0
6, 2400480, Note_on_c, 4, 50, 100
6, 2400600, Note_on_c, 4, 50, 0
6, 2400600, Note_on_c, 4, 49, 100
6, 2400720, Note_on_c, 4, 49, 0
6, 2400720, Note_on_c, 4, 50, 100
6, 2400840, Note_on_c, 4, 50, 0
6, 2400840, Note_on_c, 4, 47, 100
6, 2400960, Note_on_c, 4, 47, 0
6, 2400960, Note_on_c, 4, 50, 100
6, 2401020, Note_on_c, 4, 50, 0
6, 2401020, Note_on_c, 4, 49, 100
6, 2401080, Note_on_c, 4, 49, 0
6, 2401080, Note_on_c, 4, 50, 100
6, 2401140, Note_on_c, 4, 50, 0
6, 2401140, Note_on_c, 4, 49, 100
6, 2401200, Note_on_c, 4, 49, 0
6, 2401200, Note_on_c, 4, 50, 100
6, 2401260, Note_on_c, 4, 50, 0
6, 2401260, Note_on_c, 4, 49, 100
6, 2401320, Note_on_c, 4, 49, 0
6, 2401320, Note_on_c, 4, 50, 100
6, 2401380, Note_on_c, 4, 50, 0
6, 2401380, Note_on_c, 4, 49, 100
6, 2401440, Note_on_c, 4, 49, 0
6, 2401440, Note_on_c, 4, 50, 100
6, 2401500, Note_on_c, 4, 50, 0
6, 2401500, Note_on_c, 4, 49, 100
6, 2401560, Note_on_c, 4, 49, 0
6, 2401560, Note_on_c, 4, 47, 100
6, 2401620, Note_on_c, 4, 47, 0
6, 2401620, Note_on_c, 4, 49, 100
6, 2401680, Note_on_c, 4, 49, 0
6, 2401680, Note_on_c, 4, 50, 100
6, 2401920, Note_on_c, 4, 50, 0
6, 2401920, Note_on_c, 4, 42, 100
6, 2402160, Note_on_c, 4, 42, 0
6, 2402160, Note_on_c, 4, 45, 100
6, 2402400, Note_on_c, 4, 45, 0
6, 2402400, Note_on_c, 4, 38, 100
6, 2403120, Note_on_c, 4, 38, 0
6, 2403120, Note_on_c, 4, 55, 100
6, 2403360, Note_on_c, 4, 55, 0
6, 2403360, Note_on_c, 4, 57, 100
6, 2403480, Note_on_c, 4, 57, 0
6, 2403480, Note_on_c, 4, 59, 100
6, 2403600, Note_on_c, 4, 59, 0
6, 2403600, Note_on_c, 4, 60, 100
6, 2403720, Note_on_c, 4, 60, 0
6, 2403720, Note_on_c, 4, 62, 100
6, 2403840, Note_on_c, 4, 62, 0
6, 2403840, Note_on_c, 4, 64, 100
6, 2403960, Note_on_c, 4, 64, 0
6, 2403960, Note_on_c, 4, 62, 100
6, 2404080, Note_on_c, 4, 62, 0
6, 2404080, Note_on_c, 4, 60, 100
6, 2404200, Note_on_c, 4, 60, 0
6, 2404200, Note_on_c, 4, 62, 100
6, 2404320, Note_on_c, 4, 62, 0
6, 2404320, Note_on_c, 4, 64, 100
6, 2404560, Note_on_c, 4, 64, 0
6, 2404560, Note_on_c, 4, 54, 100
6, 2404800, Note_on_c, 4, 54, 0
6, 2405280, Note_on_c, 4, 62, 100
6, 2405520, Note_on_c, 4, 62, 0
6, 2406000, Note_on_c, 4, 52, 100
6, 2406240, Note_on_c, 4, 52, 0
6, 2406240, Note_on_c, 4, 54, 100
6, 2406360, Note_on_c, 4, 54, 0
6, 2406360, Note_on_c, 4, 55, 100
6, 2406480, Note_on_c, 4, 55, 0
6, 2406480, Note_on_c, 4, 57, 100
6, 2406600, Note_on_c, 4, 57, 0
6, 2406600, Note_on_c, 4, 59, 100
6, 2406720, Note_on_c, 4, 59, 0
6, 2406720, Note_on_c, 4, 60, 100
6, 2406840, Note_on_c, 4, 60, 0
6, 2406840, Note_on_c, 4, 62, 100
6, 2406960, Note_on_c, 4, 62, 0
6, 2406960, Note_on_c, 4, 60, 100
6, 2407080, Note_on_c, 4, 60, 0
6, 2407080, Note_on_c, 4, 59, 100
6, 2407200, Note_on_c, 4, 59, 0
6, 2407200, Note_on_c, 4, 60, 100
6, 2407440, Note_on_c, 4, 60, 0
6, 2407440, Note_on_c, 4, 60, 100
6, 2407680, Note_on_c, 4, 60, 0
6, 2408160, Note_on_c, 4, 54, 100
6, 2408400, Note_on_c, 4, 54, 0
6, 2408880, Note_on_c, 4, 59, 100
6, 2409000, Note_on_c, 4, 59, 0
6, 2409000, Note_on_c, 4, 60, 100
6, 2409120, Note_on_c, 4, 60, 0
6, 2409120, Note_on_c, 4, 59, 100
6, 2409240, Note_on_c, 4, 59, 0
6, 2409240, Note_on_c, 4, 57, 100
6, 2409360, Note_on_c, 4, 57, 0
6, 2409360, Note_on_c, 4, 55, 100
6, 2409480, Note_on_c, 4, 55, 0
6, 2409480, Note_on_c, 4, 54, 100
6, 2409600, Note_on_c, 4, 54, 0
6, 2409600, Note_on_c, 4, 52, 100
6, 2409720, Note_on_c, 4, 52, 0
6, 2409720, Note_on_c, 4, 55, 100
6, 2409840, Note_on_c, 4, 55, 0
6, 2409840, Note_on_c, 4, 59, 100
6, 2409960, Note_on_c, 4, 59, 0
6, 2409960, Note_on_c, 4, 62, 100
6, 2410080, Note_on_c, 4, 62, 0
6, 2410080, Note_on_c, 4, 60, 100
6, 2410200, Note_on_c, 4, 60, 0
6, 2410200, Note_on_c, 4, 59, 100
6, 2410320, Note_on_c, 4, 59, 0
6, 2410320, Note_on_c, 4, 57, 100
6, 2410440, Note_on_c, 4, 57, 0
6, 2410440, Note_on_c, 4, 59, 100
6, 2410560, Note_on_c, 4, 59, 0
6, 2410560, Note_on_c, 4, 57, 100
6, 2410680, Note_on_c, 4, 57, 0
6, 2410680, Note_on_c, 4, 55, 100
6, 2410800, Note_on_c, 4, 55, 0
6, 2410800, Note_on_c, 4, 54, 100
6, 2410920, Note_on_c, 4, 54, 0
6, 2410920, Note_on_c, 4, 52, 100
6, 2411040, Note_on_c, 4, 52, 0
6, 2411040, Note_on_c, 4, 50, 100
6, 2411160, Note_on_c, 4, 50, 0
6, 2411160, Note_on_c, 4, 54, 100
6, 2411280, Note_on_c, 4, 54, 0
6, 2411280, Note_on_c, 4, 57, 100
6, 2411400, Note_on_c, 4, 57, 0
6, 2411400, Note_on_c, 4, 60, 100
6, 2411520, Note_on_c, 4, 60, 0
6, 2411520, Note_on_c, 4, 59, 100
6, 2411640, Note_on_c, 4, 59, 0
6, 2411640, Note_on_c, 4, 57, 100
6, 2411760, Note_on_c, 4, 57, 0
6, 2411760, Note_on_c, 4, 55, 100
6, 2412000, Note_on_c, 4, 55, 0
6, 2412000, Note_on_c, 4, 59, 100
6, 2412060, Note_on_c, 4, 59, 0
6, 2412060, Note_on_c, 4, 57, 100
6, 2412120, Note_on_c, 4, 57, 0
6, 2412120, Note_on_c, 4, 55, 100
6, 2412180, Note_on_c, 4, 55, 0
6, 2412180, Note_on_c, 4, 57, 100
6, 2412240, Note_on_c, 4, 57, 0
6, 2412240, Note_on_c, 4, 59, 100
6, 2412480, Note_on_c, 4, 59, 0
6, 2412480, Note_on_c, 4, 48, 100
6, 2412720, Note_on_c, 4, 48, 0
6, 2412720, Note_on_c, 4, 60, 100
6, 2413320, Note_on_c, 4, 60, 0
6, 2413320, Note_on_c, 4, 64, 100
6, 2413440, Note_on_c, 4, 64, 0
6, 2413440, Note_on_c, 4, 62, 100
6, 2413560, Note_on_c, 4, 62, 0
6, 2413560, Note_on_c, 4, 60, 100
6, 2413680, Note_on_c, 4, 60, 0
6, 2413680, Note_on_c, 4, 59, 100
6, 2413800, Note_on_c, 4, 59, 0
6, 2413800, Note_on_c, 4, 57, 100
6, 2413920, Note_on_c, 4, 57, 0
6, 2413920, Note_on_c, 4, 59, 100
6, 2414040, Note_on_c, 4, 59, 0
6, 2414040, Note_on_c, 4, 60, 100
6, 2414160, Note_on_c, 4, 60, 0
6, 2414160, Note_on_c, 4, 62, 100
6, 2414280, Note_on_c, 4, 62, 0
6, 2414280, Note_on_c, 4, 59, 100
6, 2414400, Note_on_c, 4, 59, 0
6, 2414400, Note_on_c, 4, 60, 100
6, 2414520, Note_on_c, 4, 60, 0
6, 2414520, Note_on_c, 4, 62, 100
6, 2414640, Note_on_c, 4, 62, 0
6, 2414640, Note_on_c, 4, 55, 100
6, 2414700, Note_on_c, 4, 55, 0
6, 2414700, Note_on_c, 4, 54, 100
6, 2414760, Note_on_c, 4, 54, 0
6, 2414760, Note_on_c, 4, 55, 100
6, 2416200, Note_on_c, 4, 55, 0
6, 2416200, Note_on_c, 4, 55, 100
6, 2416320, Note_on_c, 4, 55, 0
6, 2416320, Note_on_c, 4, 54, 100
6, 2416440, Note_on_c, 4, 54, 0
6, 2416440, Note_on_c, 4, 52, 100
6, 2416560, Note_on_c, 4, 52, 0
6, 2416560, Note_on_c, 4, 50, 100
6, 2416680, Note_on_c, 4, 50, 0
6, 2416680, Note_on_c, 4, 49, 100
6, 2416800, Note_on_c, 4, 49, 0
6, 2416800, Note_on_c, 4, 47, 100
6, 2416920, Note_on_c, 4, 47, 0
6, 2416920, Note_on_c, 4, 49, 100
6, 2417040, Note_on_c, 4, 49, 0
6, 2417040, Note_on_c, 4, 50, 100
6, 2417160, Note_on_c, 4, 50, 0
6, 2417160, Note_on_c, 4, 49, 100
6, 2417280, Note_on_c, 4, 49, 0
6, 2417280, Note_on_c, 4, 50, 100
6, 2417400, Note_on_c, 4, 50, 0
6, 2417400, Note_on_c, 4, 47, 100
6, 2417520, Note_on_c, 4, 47, 0
6, 2417520, Note_on_c, 4, 52, 100
6, 2417760, Note_on_c, 4, 52, 0
6, 2418240, Note_on_c, 4, 45, 100
6, 2418480, Note_on_c, 4, 45, 0
6, 2418960, Note_on_c, 4, 57, 100
6, 2419080, Note_on_c, 4, 57, 0
6, 2419080, Note_on_c, 4, 59, 100
6, 2419200, Note_on_c, 4, 59, 0
6, 2419200, Note_on_c, 4, 57, 100
6, 2419320, Note_on_c, 4, 57, 0
6, 2419320, Note_on_c, 4, 55, 100
6, 2419440, Note_on_c, 4, 55, 0
6, 2419440, Note_on_c, 4, 54, 100
6, 2419560, Note_on_c, 4, 54, 0
6, 2419560, Note_on_c, 4, 52, 100
6, 2419680, Note_on_c, 4, 52, 0
6, 2419680, Note_on_c, 4, 50, 100
6, 2419800, Note_on_c, 4, 50, 0
6, 2419800, Note_on_c, 4, 54, 100
6, 2419920, Note_on_c, 4, 54, 0
6, 2419920, Note_on_c, 4, 57, 100
6, 2420040, Note_on_c, 4, 57, 0
6, 2420040, Note_on_c, 4, 60, 100
6, 2420160, Note_on_c, 4, 60, 0
6, 2420160, Note_on_c, 4, 59, 100
6, 2420280, Note_on_c, 4, 59, 0
6, 2420280, Note_on_c, 4, 57, 100
6, 2420400, Note_on_c, 4, 57, 0
6, 2420400, Note_on_c, 4, 55, 100
6, 2420520, Note_on_c, 4, 55, 0
6, 2420520, Note_on_c, 4, 57, 100
6, 2420640, Note_on_c, 4, 57, 0
6, 2420640, Note_on_c, 4, 55, 100
6, 2420760, Note_on_c, 4, 55, 0
6, 2420760, Note_on_c, 4, 54, 100
6, 2420880, Note_on_c, 4, 54, 0
6, 2420880, Note_on_c, 4, 52, 100
6, 2421000, Note_on_c, 4, 52, 0
6, 2421000, Note_on_c, 4, 50, 100
6, 2421120, Note_on_c, 4, 50, 0
6, 2421120, Note_on_c, 4, 49, 100
6, 2421240, Note_on_c, 4, 49, 0
6, 2421240, Note_on_c, 4, 52, 100
6, 2421360, Note_on_c, 4, 52, 0
6, 2421360, Note_on_c, 4, 55, 100
6, 2421480, Note_on_c, 4, 55, 0
6, 2421480, Note_on_c, 4, 59, 100
6, 2421600, Note_on_c, 4, 59, 0
6, 2421600, Note_on_c, 4, 57, 100
6, 2421720, Note_on_c, 4, 57, 0
6, 2421720, Note_on_c, 4, 55, 100
6, 2421840, Note_on_c, 4, 55, 0
6, 2421840, Note_on_c, 4, 54, 100
6, 2422080, Note_on_c, 4, 54, 0
6, 2422080, Note_on_c, 4, 57, 100
6, 2422140, Note_on_c, 4, 57, 0
6, 2422140, Note_on_c, 4, 55, 100
6, 2422200, Note_on_c, 4, 55, 0
6, 2422200, Note_on_c, 4, 54, 100
6, 2422260, Note_on_c, 4, 54, 0
6, 2422260, Note_on_c, 4, 55, 100
6, 2422320, Note_on_c, 4, 55, 0
6, 2422320, Note_on_c, 4, 57, 100
6, 2422800, Note_on_c, 4, 57, 0
6, 2422800, Note_on_c, 4, 55, 100
6, 2423040, Note_on_c, 4, 55, 0
6, 2423040, Note_on_c, 4, 54, 100
6, 2423400, Note_on_c, 4, 54, 0
6, 2423400, Note_on_c, 4, 52, 100
6, 2423520, Note_on_c, 4, 52, 0
6, 2423520, Note_on_c, 4, 50, 100
6, 2423640, Note_on_c, 4, 50, 0
6, 2423640, Note_on_c, 4, 49, 100
6, 2423760, Note_on_c, 4, 49, 0
6, 2423760, Note_on_c, 4, 50, 100
6, 2423880, Note_on_c, 4, 50, 0
6, 2423880, Note_on_c, 4, 47, 100
6, 2424000, Note_on_c, 4, 47, 0
6, 2424000, Note_on_c, 4, 50, 100
6, 2424060, Note_on_c, 4, 50, 0
6, 2424060, Note_on_c, 4, 49, 100
6, 2424120, Note_on_c, 4, 49, 0
6, 2424120, Note_on_c, 4, 50, 100
6, 2424180, Note_on_c, 4, 50, 0
6, 2424180, Note_on_c, 4, 49, 100
6, 2424240, Note_on_c, 4, 49, 0
6, 2424240, Note_on_c, 4, 50, 100
6, 2424300, Note_on_c, 4, 50, 0
6, 2424300, Note_on_c, 4, 49, 100
6, 2424360, Note_on_c, 4, 49, 0
6, 2424360, Note_on_c, 4, 50, 100
6, 2424420, Note_on_c, 4, 50, 0
6, 2424420, Note_on_c, 4, 49, 100
6, 2424480, Note_on_c, 4, 49, 0
6, 2424480, Note_on_c, 4, 50, 100
6, 2424540, Note_on_c, 4, 50, 0
6, 2424540, Note_on_c, 4, 49, 100
6, 2424600, Note_on_c, 4, 49, 0
6, 2424600, Note_on_c, 4, 47, 100
6, 2424660, Note_on_c, 4, 47, 0
6, 2424660, Note_on_c, 4, 49, 100
6, 2424720, Note_on_c, 4, 49, 0
6, 2424720, Note_on_c, 4, 50, 100
6, 2424960, Note_on_c, 4, 50, 0
6, 2424960, Note_on_c, 4, 42, 100
6, 2425200, Note_on_c, 4, 42, 0
6, 2425200, Note_on_c, 4, 45, 100
6, 2425440, Note_on_c, 4, 45, 0
6, 2425440, Note_on_c, 4, 38, 100
6, 2426160, Note_on_c, 4, 38, 0
6, 2427600, Note_on_c, 4, 67, 100
6, 2427840, Note_on_c, 4, 67, 0
6, 2427840, Note_on_c, 4, 66, 100
6, 2427960, Note_on_c, 4, 66, 0
6, 2427960, Note_on_c, 4, 64, 100
6, 2428080, Note_on_c, 4, 64, 0
6, 2428080, Note_on_c, 4, 62, 100
6, 2428200, Note_on_c, 4, 62, 0
6, 2428200, Note_on_c, 4, 60, 100
6, 2428320, Note_on_c, 4, 60, 0
6, 2428320, Note_on_c, 4, 59, 100
6, 2428440, Note_on_c, 4, 59, 0
6, 2428440, Note_on_c, 4, 60, 100
6, 2428560, Note_on_c, 4, 60, 0
6, 2428560, Note_on_c, 4, 62, 100
6, 2428680, Note_on_c, 4, 62, 0
6, 2428680, Note_on_c, 4, 60, 100
6, 2428800, Note_on_c, 4, 60, 0
6, 2428800, Note_on_c, 4, 59, 100
6, 2428920, Note_on_c, 4, 59, 0
6, 2428920, Note_on_c, 4, 67, 100
6, 2429040, Note_on_c, 4, 67, 0
6, 2429040, Note_on_c, 4, 57, 100
6, 2429280, Note_on_c, 4, 57, 0
6, 2429760, Note_on_c, 4, 66, 100
6, 2430000, Note_on_c, 4, 66, 0
6, 2430480, Note_on_c, 4, 71, 100
6, 2430600, Note_on_c, 4, 71, 0
6, 2430600, Note_on_c, 4, 72, 100
6, 2430720, Note_on_c, 4, 72, 0
6, 2430720, Note_on_c, 4, 71, 100
6, 2430840, Note_on_c, 4, 71, 0
6, 2430840, Note_on_c, 4, 69, 100
6, 2430960, Note_on_c, 4, 69, 0
6, 2430960, Note_on_c, 4, 67, 100
6, 2431080, Note_on_c, 4, 67, 0
6, 2431080, Note_on_c, 4, 66, 100
6, 2431200, Note_on_c, 4, 66, 0
6, 2431200, Note_on_c, 4, 67, 100
6, 2431320, Note_on_c, 4, 67, 0
6, 2431320, Note_on_c, 4, 69, 100
6, 2431440, Note_on_c, 4, 69, 0
6, 2431440, Note_on_c, 4, 67, 100
6, 2431560, Note_on_c, 4, 67, 0
6, 2431560, Note_on_c, 4, 66, 100
6, 2431680, Note_on_c, 4, 66, 0
6, 2431680, Note_on_c, 4, 64, 100
6, 2431800, Note_on_c, 4, 64, 0
6, 2431800, Note_on_c, 4, 62, 100
6, 2431920, Note_on_c, 4, 62, 0
6, 2431920, Note_on_c, 4, 60, 100
6, 2432160, Note_on_c, 4, 60, 0
6, 2432160, Note_on_c, 4, 64, 100
6, 2432220, Note_on_c, 4, 64, 0
6, 2432220, Note_on_c, 4, 62, 100
6, 2432280, Note_on_c, 4, 62, 0
6, 2432280, Note_on_c, 4, 60, 100
6, 2432340, Note_on_c, 4, 60, 0
6, 2432340, Note_on_c, 4, 62, 100
6, 2432400, Note_on_c, 4, 62, 0
6, 2432400, Note_on_c, 4, 64, 100
6, 2432640, Note_on_c, 4, 64, 0
6, 2432640, Note_on_c, 4, 57, 100
6, 2433480, Note_on_c, 4, 57, 0
6, 2433480, Note_on_c, 4, 55, 100
6, 2433600, Note_on_c, 4, 55, 0
6, 2433600, Note_on_c, 4, 57, 100
6, 2433720, Note_on_c, 4, 57, 0
6, 2433720, Note_on_c, 4, 60, 100
6, 2433840, Note_on_c, 4, 60, 0
6, 2433840, Note_on_c, 4, 59, 100
6, 2433960, Note_on_c, 4, 59, 0
6, 2433960, Note_on_c, 4, 57, 100
6, 2434080, Note_on_c, 4, 57, 0
6, 2434080, Note_on_c, 4, 59, 100
6, 2434200, Note_on_c, 4, 59, 0
6, 2434200, Note_on_c, 4, 64, 100
6, 2434320, Note_on_c, 4, 64, 0
6, 2434320, Note_on_c, 4, 59, 100
6, 2434440, Note_on_c, 4, 59, 0
6, 2434440, Note_on_c, 4, 55, 100
6, 2434560, Note_on_c, 4, 55, 0
6, 2434560, Note_on_c, 4, 52, 100
6, 2434680, Note_on_c, 4, 52, 0
6, 2434680, Note_on_c, 4, 55, 100
6, 2434800, Note_on_c, 4, 55, 0
6, 2434800, Note_on_c, 4, 49, 100
6, 2434920, Note_on_c, 4, 49, 0
6, 2434920, Note_on_c, 4, 51, 100
6, 2435040, Note_on_c, 4, 51, 0
6, 2435040, Note_on_c, 4, 52, 100
6, 2435160, Note_on_c, 4, 52, 0
6, 2435160, Note_on_c, 4, 55, 100
6, 2435280, Note_on_c, 4, 55, 0
6, 2435280, Note_on_c, 4, 54, 100
6, 2435400, Note_on_c, 4, 54, 0
6, 2435400, Note_on_c, 4, 52, 100
6, 2435520, Note_on_c, 4, 52, 0
6, 2435520, Note_on_c, 4, 54, 100
6, 2435760, Note_on_c, 4, 54, 0
6, 2435760, Note_on_c, 4, 55, 100
6, 2435820, Note_on_c, 4, 55, 0
6, 2435820, Note_on_c, 4, 54, 100
6, 2435880, Note_on_c, 4, 54, 0
6, 2435880, Note_on_c, 4, 55, 100
6, 2435940, Note_on_c, 4, 55, 0
6, 2435940, Note_on_c, 4, 54, 100
6, 2436000, Note_on_c, 4, 54, 0
6, 2436000, Note_on_c, 4, 55, 100
6, 2436060, Note_on_c, 4, 55, 0
6, 2436060, Note_on_c, 4, 54, 100
6, 2436120, Note_on_c, 4, 54, 0
6, 2436120, Note_on_c, 4, 52, 100
6, 2436180, Note_on_c, 4, 52, 0
6, 2436180, Note_on_c, 4, 54, 100
6, 2436240, Note_on_c, 4, 54, 0
6, 2436240, Note_on_c, 4, 55, 100
6, 2436360, Note_on_c, 4, 55, 0
6, 2436360, Note_on_c, 4, 57, 100
6, 2436480, Note_on_c, 4, 57, 0
6, 2436480, Note_on_c, 4, 59, 100
6, 2436600, Note_on_c, 4, 59, 0
6, 2436600, Note_on_c, 4, 57, 100
6, 2436720, Note_on_c, 4, 57, 0
6, 2436720, Note_on_c, 4, 55, 100
6, 2436960, Note_on_c, 4, 55, 0
6, 2436960, Note_on_c, 4, 57, 100
6, 2437020, Note_on_c, 4, 57, 0
6, 2437020, Note_on_c, 4, 56, 100
6, 2437080, Note_on_c, 4, 56, 0
6, 2437080, Note_on_c, 4, 54, 100
6, 2437140, Note_on_c, 4, 54, 0
6, 2437140, Note_on_c, 4, 56, 100
6, 2437800, Note_on_c, 4, 56, 0
6, 2437800, Note_on_c, 4, 52, 100
6, 2437920, Note_on_c, 4, 52, 0
6, 2437920, Note_on_c, 4, 54, 100
6, 2438040, Note_on_c, 4, 54, 0
6, 2438040, Note_on_c, 4, 56, 100
6, 2438160, Note_on_c, 4, 56, 0
6, 2438160, Note_on_c, 4, 57, 100
6, 2438280, Note_on_c, 4, 57, 0
6, 2438280, Note_on_c, 4, 59, 100
6, 2438400, Note_on_c, 4, 59, 0
6, 2438400, Note_on_c, 4, 60, 100
6, 2438520, Note_on_c, 4, 60, 0
6, 2438520, Note_on_c, 4, 59, 100
6, 2438640, Note_on_c, 4, 59, 0
6, 2438640, Note_on_c, 4, 57, 100
6, 2438760, Note_on_c, 4, 57, 0
6, 2438760, Note_on_c, 4, 55, 100
6, 2438880, Note_on_c, 4, 55, 0
6, 2438880, Note_on_c, 4, 54, 100
6, 2439000, Note_on_c, 4, 54, 0
6, 2439000, Note_on_c, 4, 52, 100
6, 2439120, Note_on_c, 4, 52, 0
6, 2439120, Note_on_c, 4, 50, 100
6, 2439240, Note_on_c, 4, 50, 0
6, 2439240, Note_on_c, 4, 54, 100
6, 2439360, Note_on_c, 4, 54, 0
6, 2439360, Note_on_c, 4, 55, 100
6, 2439480, Note_on_c, 4, 55, 0
6, 2439480, Note_on_c, 4, 57, 100
6, 2439600, Note_on_c, 4, 57, 0
6, 2439600, Note_on_c, 4, 59, 100
6, 2439720, Note_on_c, 4, 59, 0
6, 2439720, Note_on_c, 4, 60, 100
6, 2439840, Note_on_c, 4, 60, 0
6, 2439840, Note_on_c, 4, 62, 100
6, 2439960, Note_on_c, 4, 62, 0
6, 2439960, Note_on_c, 4, 60, 100
6, 2440080, Note_on_c, 4, 60, 0
6, 2440080, Note_on_c, 4, 59, 100
6, 2440200, Note_on_c, 4, 59, 0
6, 2440200, Note_on_c, 4, 60, 100
6, 2440320, Note_on_c, 4, 60, 0
6, 2440320, Note_on_c, 4, 62, 100
6, 2440560, Note_on_c, 4, 62, 0
6, 2440560, Note_on_c, 4, 55, 100
6, 2440800, Note_on_c, 4, 55, 0
6, 2441280, Note_on_c, 4, 64, 100
6, 2441520, Note_on_c, 4, 64, 0
6, 2442000, Note_on_c, 4, 57, 100
6, 2442240, Note_on_c, 4, 57, 0
6, 2442240, Note_on_c, 4, 59, 100
6, 2442360, Note_on_c, 4, 59, 0
6, 2442360, Note_on_c, 4, 60, 100
6, 2442480, Note_on_c, 4, 60, 0
6, 2442480, Note_on_c, 4, 62, 100
6, 2442600, Note_on_c, 4, 62, 0
6, 2442600, Note_on_c, 4, 64, 100
6, 2442720, Note_on_c, 4, 64, 0
6, 2442720, Note_on_c, 4, 66, 100
6, 2442840, Note_on_c, 4, 66, 0
6, 2442840, Note_on_c, 4, 67, 100
6, 2442960, Note_on_c, 4, 67, 0
6, 2442960, Note_on_c, 4, 66, 100
6, 2443080, Note_on_c, 4, 66, 0
6, 2443080, Note_on_c, 4, 64, 100
6, 2443200, Note_on_c, 4, 64, 0
6, 2443200, Note_on_c, 4, 66, 100
6, 2443320, Note_on_c, 4, 66, 0
6, 2443320, Note_on_c, 4, 62, 100
6, 2443440, Note_on_c, 4, 62, 0
6, 2443440, Note_on_c, 4, 71, 100
6, 2443560, Note_on_c, 4, 71, 0
6, 2443560, Note_on_c, 4, 69, 100
6, 2443680, Note_on_c, 4, 69, 0
6, 2443680, Note_on_c, 4, 67, 100
6, 2443800, Note_on_c, 4, 67, 0
6, 2443800, Note_on_c, 4, 66, 100
6, 2443920, Note_on_c, 4, 66, 0
6, 2443920, Note_on_c, 4, 64, 100
6, 2444040, Note_on_c, 4, 64, 0
6, 2444040, Note_on_c, 4, 62, 100
6, 2444160, Note_on_c, 4, 62, 0
6, 2444160, Note_on_c, 4, 60, 100
6, 2445000, Note_on_c, 4, 60, 0
6, 2445000, Note_on_c, 4, 59, 100
6, 2445120, Note_on_c, 4, 59, 0
6, 2445120, Note_on_c, 4, 60, 100
6, 2445240, Note_on_c, 4, 60, 0
6, 2445240, Note_on_c, 4, 62, 100
6, 2445360, Note_on_c, 4, 62, 0
6, 2445360, Note_on_c, 4, 64, 100
6, 2445480, Note_on_c, 4, 64, 0
6, 2445480, Note_on_c, 4, 66, 100
6, 2445600, Note_on_c, 4, 66, 0
6, 2445600, Note_on_c, 4, 67, 100
6, 2445720, Note_on_c, 4, 67, 0
6, 2445720, Note_on_c, 4, 62, 100
6, 2445840, Note_on_c, 4, 62, 0
6, 2445840, Note_on_c, 4, 59, 100
6, 2445960, Note_on_c, 4, 59, 0
6, 2445960, Note_on_c, 4, 55, 100
6, 2446080, Note_on_c, 4, 55, 0
6, 2446080, Note_on_c, 4, 57, 100
6, 2446200, Note_on_c, 4, 57, 0
6, 2446200, Note_on_c, 4, 59, 100
6, 2446320, Note_on_c, 4, 59, 0
6, 2446320, Note_on_c, 4, 52, 100
6, 2446440, Note_on_c, 4, 52, 0
6, 2446440, Note_on_c, 4, 54, 100
6, 2446560, Note_on_c, 4, 54, 0
6, 2446560, Note_on_c, 4, 55, 100
6, 2446680, Note_on_c, 4, 55, 0
6, 2446680, Note_on_c, 4, 57, 100
6, 2446800, Note_on_c, 4, 57, 0
6, 2446800, Note_on_c, 4, 59, 100
6, 2446920, Note_on_c, 4, 59, 0
6, 2446920, Note_on_c, 4, 55, 100
6, 2447040, Note_on_c, 4, 55, 0
6, 2447040, Note_on_c, 4, 57, 100
6, 2447160, Note_on_c, 4, 57, 0
6, 2447160, Note_on_c, 4, 60, 100
6, 2447280, Note_on_c, 4, 60, 0
6, 2447280, Note_on_c, 4, 66, 100
6, 2447520, Note_on_c, 4, 66, 0
6, 2448000, Note_on_c, 4, 62, 100
6, 2448240, Note_on_c, 4, 62, 0
6, 2448240, Note_on_c, 4, 60, 100
6, 2448480, Note_on_c, 4, 60, 0
6, 2448480, Note_on_c, 4, 59, 100
6, 2448720, Note_on_c, 4, 59, 0
6, 2448720, Note_on_c, 4, 60, 100
6, 2448840, Note_on_c, 4, 60, 0
6, 2448840, Note_on_c, 4, 59, 100
6, 2448960, Note_on_c, 4, 59, 0
6, 2448960, Note_on_c, 4, 57, 100
6, 2449080, Note_on_c, 4, 57, 0
6, 2449080, Note_on_c, 4, 55, 100
6, 2449200, Note_on_c, 4, 55, 0
6, 2450640, Note_on_c, 4, 67, 100
6, 2450880, Note_on_c, 4, 67, 0
6, 2450880, Note_on_c, 4, 66, 100
6, 2451000, Note_on_c, 4, 66, 0
6, 2451000, Note_on_c, 4, 64, 100
6, 2451120, Note_on_c, 4, 64, 0
6, 2451120, Note_on_c, 4, 62, 100
6, 2451240, Note_on_c, 4, 62, 0
6, 2451240, Note_on_c, 4, 60, 100
6, 2451360, Note_on_c, 4, 60, 0
6, 2451360, Note_on_c, 4, 59, 100
6, 2451480, Note_on_c, 4, 59, 0
6, 2451480, Note_on_c, 4, 60, 100
6, 2451600, Note_on_c, 4, 60, 0
6, 2451600, Note_on_c, 4, 62, 100
6, 2451720, Note_on_c, 4, 62, 0
6, 2451720, Note_on_c, 4, 60, 100
6, 2451840, Note_on_c, 4, 60, 0
6, 2451840, Note_on_c, 4, 59, 100
6, 2451960, Note_on_c, 4, 59, 0
6, 2451960, Note_on_c, 4, 67, 100
6, 2452080, Note_on_c, 4, 67, 0
6, 2452080, Note_on_c, 4, 57, 100
6, 2452320, Note_on_c, 4, 57, 0
6, 2452800, Note_on_c, 4, 66, 100
6, 2453040, Note_on_c, 4, 66, 0
6, 2453520, Note_on_c, 4, 71, 100
6, 2453640, Note_on_c, 4, 71, 0
6, 2453640, Note_on_c, 4, 72, 100
6, 2453760, Note_on_c, 4, 72, 0
6, 2453760, Note_on_c, 4, 71, 100
6, 2453880, Note_on_c, 4, 71, 0
6, 2453880, Note_on_c, 4, 69, 100
6, 2454000, Note_on_c, 4, 69, 0
6, 2454000, Note_on_c, 4, 67, 100
6, 2454120, Note_on_c, 4, 67, 0
6, 2454120, Note_on_c, 4, 66, 100
6, 2454240, Note_on_c, 4, 66, 0
6, 2454240, Note_on_c, 4, 67, 100
6, 2454360, Note_on_c, 4, 67, 0
6, 2454360, Note_on_c, 4, 69, 100
6, 2454480, Note_on_c, 4, 69, 0
6, 2454480, Note_on_c, 4, 67, 100
6, 2454600, Note_on_c, 4, 67, 0
6, 2454600, Note_on_c, 4, 66, 100
6, 2454720, Note_on_c, 4, 66, 0
6, 2454720, Note_on_c, 4, 64, 100
6, 2454840, Note_on_c, 4, 64, 0
6, 2454840, Note_on_c, 4, 62, 100
6, 2454960, Note_on_c, 4, 62, 0
6, 2454960, Note_on_c, 4, 60, 100
6, 2455200, Note_on_c, 4, 60, 0
6, 2455200, Note_on_c, 4, 64, 100
6, 2455260, Note_on_c, 4, 64, 0
6, 2455260, Note_on_c, 4, 62, 100
6, 2455320, Note_on_c, 4, 62, 0
6, 2455320, Note_on_c, 4, 60, 100
6, 2455380, Note_on_c, 4, 60, 0
6, 2455380, Note_on_c, 4, 62, 100
6, 2455440, Note_on_c, 4, 62, 0
6, 2455440, Note_on_c, 4, 64, 100
6, 2455680, Note_on_c, 4, 64, 0
6, 2455680, Note_on_c, 4, 57, 100
6, 2456520, Note_on_c, 4, 57, 0
6, 2456520, Note_on_c, 4, 55, 100
6, 2456640, Note_on_c, 4, 55, 0
6, 2456640, Note_on_c, 4, 57, 100
6, 2456760, Note_on_c, 4, 57, 0
6, 2456760, Note_on_c, 4, 60, 100
6, 2456880, Note_on_c, 4, 60, 0
6, 2456880, Note_on_c, 4, 59, 100
6, 2457000, Note_on_c, 4, 59, 0
6, 2457000, Note_on_c, 4, 57, 100
6, 2457120, Note_on_c, 4, 57, 0
6, 2457120, Note_on_c, 4, 59, 100
6, 2457240, Note_on_c, 4, 59, 0
6, 2457240, Note_on_c, 4, 64, 100
6, 2457360, Note_on_c, 4, 64, 0
6, 2457360, Note_on_c, 4, 59, 100
6, 2457480, Note_on_c, 4, 59, 0
6, 2457480, Note_on_c, 4, 55, 100
6, 2457600, Note_on_c, 4, 55, 0
6, 2457600, Note_on_c, 4, 52, 100
6, 2457720, Note_on_c, 4, 52, 0
6, 2457720, Note_on_c, 4, 55, 100
6, 2457840, Note_on_c, 4, 55, 0
6, 2457840, Note_on_c, 4, 49, 100
6, 2457960, Note_on_c, 4, 49, 0
6, 2457960, Note_on_c, 4, 51, 100
6, 2458080, Note_on_c, 4, 51, 0
6, 2458080, Note_on_c, 4, 52, 100
6, 2458200, Note_on_c, 4, 52, 0
6, 2458200, Note_on_c, 4, 55, 100
6, 2458320, Note_on_c, 4, 55, 0
6, 2458320, Note_on_c, 4, 54, 100
6, 2458440, Note_on_c, 4, 54, 0
6, 2458440, Note_on_c, 4, 52, 100
6, 2458560, Note_on_c, 4, 52, 0
6, 2458560, Note_on_c, 4, 54, 100
6, 2458800, Note_on_c, 4, 54, 0
6, 2458800, Note_on_c, 4, 55, 100
6, 2458860, Note_on_c, 4, 55, 0
6, 2458860, Note_on_c, 4, 54, 100
6, 2458920, Note_on_c, 4, 54, 0
6, 2458920, Note_on_c, 4, 55, 100
6, 2458980, Note_on_c, 4, 55, 0
6, 2458980, Note_on_c, 4, 54, 100
6, 2459040, Note_on_c, 4, 54, 0
6, 2459040, Note_on_c, 4, 55, 100
6, 2459100, Note_on_c, 4, 55, 0
6, 2459100, Note_on_c, 4, 54, 100
6, 2459160, Note_on_c, 4, 54, 0
6, 2459160, Note_on_c, 4, 52, 100
6, 2459220, Note_on_c, 4, 52, 0
6, 2459220, Note_on_c, 4, 54, 100
6, 2459280, Note_on_c, 4, 54, 0
6, 2459280, Note_on_c, 4, 55, 100
6, 2459400, Note_on_c, 4, 55, 0
6, 2459400, Note_on_c, 4, 57, 100
6, 2459520, Note_on_c, 4, 57, 0
6, 2459520, Note_on_c, 4, 59, 100
6, 2459640, Note_on_c, 4, 59, 0
6, 2459640, Note_on_c, 4, 57, 100
6, 2459760, Note_on_c, 4, 57, 0
6, 2459760, Note_on_c, 4, 55, 100
6, 2460000, Note_on_c, 4, 55, 0
6, 2460000, Note_on_c, 4, 57, 100
6, 2460060, Note_on_c, 4, 57, 0
6, 2460060, Note_on_c, 4, 56, 100
6, 2460120, Note_on_c, 4, 56, 0
6, 2460120, Note_on_c, 4, 54, 100
6, 2460180, Note_on_c, 4, 54, 0
6, 2460180, Note_on_c, 4, 56, 100
6, 2460840, Note_on_c, 4, 56, 0
6, 2460840, Note_on_c, 4, 52, 100
6, 2460960, Note_on_c, 4, 52, 0
6, 2460960, Note_on_c, 4, 54, 100
6, 2461080, Note_on_c, 4, 54, 0
6, 2461080, Note_on_c, 4, 56, 100
6, 2461200, Note_on_c, 4, 56, 0
6, 2461200, Note_on_c, 4, 57, 100
6, 2461320, Note_on_c, 4, 57, 0
6, 2461320, Note_on_c, 4, 59, 100
6, 2461440, Note_on_c, 4, 59, 0
6, 2461440, Note_on_c, 4, 60, 100
6, 2461560, Note_on_c, 4, 60, 0
6, 2461560, Note_on_c, 4, 59, 100
6, 2461680, Note_on_c, 4, 59, 0
6, 2461680, Note_on_c, 4, 57, 100
6, 2461800, Note_on_c, 4, 57, 0
6, 2461800, Note_on_c, 4, 55, 100
6, 2461920, Note_on_c, 4, 55, 0
6, 2461920, Note_on_c, 4, 54, 100
6, 2462040, Note_on_c, 4, 54, 0
6, 2462040, Note_on_c, 4, 52, 100
6, 2462160, Note_on_c, 4, 52, 0
6, 2462160, Note_on_c, 4, 50, 100
6, 2462280, Note_on_c, 4, 50, 0
6, 2462280, Note_on_c, 4, 54, 100
6, 2462400, Note_on_c, 4, 54, 0
6, 2462400, Note_on_c, 4, 55, 100
6, 2462520, Note_on_c, 4, 55, 0
6, 2462520, Note_on_c, 4, 57, 100
6, 2462640, Note_on_c, 4, 57, 0
6, 2462640, Note_on_c, 4, 59, 100
6, 2462760, Note_on_c, 4, 59, 0
6, 2462760, Note_on_c, 4, 60, 100
6, 2462880, Note_on_c, 4, 60, 0
6, 2462880, Note_on_c, 4, 62, 100
6, 2463000, Note_on_c, 4, 62, 0
6, 2463000, Note_on_c, 4, 60, 100
6, 2463120, Note_on_c, 4, 60, 0
6, 2463120, Note_on_c, 4, 59, 100
6, 2463240, Note_on_c, 4, 59, 0
6, 2463240, Note_on_c, 4, 60, 100
6, 2463360, Note_on_c, 4, 60, 0
6, 2463360, Note_on_c, 4, 62, 100
6, 2463600, Note_on_c, 4, 62, 0
6, 2463600, Note_on_c, 4, 55, 100
6, 2463840, Note_on_c, 4, 55, 0
6, 2464320, Note_on_c, 4, 64, 100
6, 2464560, Note_on_c, 4, 64, 0
6, 2465040, Note_on_c, 4, 57, 100
6, 2465280, Note_on_c, 4, 57, 0
6, 2465280, Note_on_c, 4, 59, 100
6, 2465400, Note_on_c, 4, 59, 0
6, 2465400, Note_on_c, 4, 60, 100
6, 2465520, Note_on_c, 4, 60, 0
6, 2465520, Note_on_c, 4, 62, 100
6, 2465640, Note_on_c, 4, 62, 0
6, 2465640, Note_on_c, 4, 64, 100
6, 2465760, Note_on_c, 4, 64, 0
6, 2465760, Note_on_c, 4, 66, 100
6, 2465880, Note_on_c, 4, 66, 0
6, 2465880, Note_on_c, 4, 67, 100
6, 2466000, Note_on_c, 4, 67, 0
6, 2466000, Note_on_c, 4, 66, 100
6, 2466120, Note_on_c, 4, 66, 0
6, 2466120, Note_on_c, 4, 64, 100
6, 2466240, Note_on_c, 4, 64, 0
6, 2466240, Note_on_c, 4, 66, 100
6, 2466360, Note_on_c, 4, 66, 0
6, 2466360, Note_on_c, 4, 62, 100
6, 2466480, Note_on_c, 4, 62, 0
6, 2466480, Note_on_c, 4, 71, 100
6, 2466600, Note_on_c, 4, 71, 0
6, 2466600, Note_on_c, 4, 69, 100
6, 2466720, Note_on_c, 4, 69, 0
6, 2466720, Note_on_c, 4, 67, 100
6, 2466840, Note_on_c, 4, 67, 0
6, 2466840, Note_on_c, 4, 66, 100
6, 2466960, Note_on_c, 4, 66, 0
6, 2466960, Note_on_c, 4, 64, 100
6, 2467080, Note_on_c, 4, 64, 0
6, 2467080, Note_on_c, 4, 62, 100
6, 2467200, Note_on_c, 4, 62, 0
6, 2467200, Note_on_c, 4, 60, 100
6, 2468040, Note_on_c, 4, 60, 0
6, 2468040, Note_on_c, 4, 59, 100
6, 2468160, Note_on_c, 4, 59, 0
6, 2468160, Note_on_c, 4, 60, 100
6, 2468280, Note_on_c, 4, 60, 0
6, 2468280, Note_on_c, 4, 62, 100
6, 2468400, Note_on_c, 4, 62, 0
6, 2468400, Note_on_c, 4, 64, 100
6, 2468520, Note_on_c, 4, 64, 0
6, 2468520, Note_on_c, 4, 66, 100
6, 2468640, Note_on_c, 4, 66, 0
6, 2468640, Note_on_c, 4, 67, 100
6, 2468760, Note_on_c, 4, 67, 0
6, 2468760, Note_on_c, 4, 62, 100
6, 2468880, Note_on_c, 4, 62, 0
6, 2468880, Note_on_c, 4, 59, 100
6, 2469000, Note_on_c, 4, 59, 0
6, 2469000, Note_on_c, 4, 55, 100
6, 2469120, Note_on_c, 4, 55, 0
6, 2469120, Note_on_c, 4, 57, 100
6, 2469240, Note_on_c, 4, 57, 0
6, 2469240, Note_on_c, 4, 59, 100
6, 2469360, Note_on_c, 4, 59, 0
6, 2469360, Note_on_c, 4, 52, 100
6, 2469480, Note_on_c, 4, 52, 0
6, 2469480, Note_on_c, 4, 54, 100
6, 2469600, Note_on_c, 4, 54, 0
6, 2469600, Note_on_c, 4, 55, 100
6, 2469720, Note_on_c, 4, 55, 0
6, 2469720, Note_on_c, 4, 57, 100
6, 2469840, Note_on_c, 4, 57, 0
6, 2469840, Note_on_c, 4, 59, 100
6, 2469960, Note_on_c, 4, 59, 0
6, 2469960, Note_on_c, 4, 55, 100
6, 2470080, Note_on_c, 4, 55, 0
6, 2470080, Note_on_c, 4, 57, 100
6, 2470200, Note_on_c, 4, 57, 0
6, 2470200, Note_on_c, 4, 60, 100
6, 2470320, Note_on_c, 4, 60, 0
6, 2470320, Note_on_c, 4, 66, 100
6, 2470560, Note_on_c, 4, 66, 0
6, 2471040, Note_on_c, 4, 62, 100
6, 2471280, Note_on_c, 4, 62, 0
6, 2471280, Note_on_c, 4, 60, 100
6, 2471520, Note_on_c, 4, 60, 0
6, 2471520, Note_on_c, 4, 59, 100
6, 2471760, Note_on_c, 4, 59, 0
6, 2471760, Note_on_c, 4, 60, 100
6, 2471880, Note_on_c, 4, 60, 0
6, 2471880, Note_on_c, 4, 59, 100
6, 2472000, Note_on_c, 4, 59, 0
6, 2472000, Note_on_c, 4, 57, 100
6, 2472120, Note_on_c, 4, 57, 0
6, 2472120, Note_on_c, 4, 55, 100
6, 2472240, Note_on_c, 4, 55, 0
6, 2478060, Note_on_c, 4, 67, 100
6, 2478120, Note_on_c, 4, 67, 0
6, 2478120, Note_on_c, 4, 69, 100
6, 2478180, Note_on_c, 4, 69, 0
6, 2478180, Note_on_c, 4, 67, 100
6, 2478240, Note_on_c, 4, 67, 0
6, 2478240, Note_on_c, 4, 69, 100
6, 2478300, Note_on_c, 4, 69, 0
6, 2478300, Note_on_c, 4, 67, 100
6, 2478360, Note_on_c, 4, 67, 0
6, 2478360, Note_on_c, 4, 69, 100
6, 2478420, Note_on_c, 4, 69, 0
6, 2478420, Note_on_c, 4, 67, 100
6, 2478480, Note_on_c, 4, 67, 0
6, 2478540, Note_on_c, 4, 67, 100
6, 2478600, Note_on_c, 4, 67, 0
6, 2478600, Note_on_c, 4, 69, 100
6, 2478660, Note_on_c, 4, 69, 0
6, 2478660, Note_on_c, 4, 67, 100
6, 2478720, Note_on_c, 4, 67, 0
6, 2478720, Note_on_c, 4, 69, 100
6, 2478780, Note_on_c, 4, 69, 0
6, 2478780, Note_on_c, 4, 67, 100
6, 2478840, Note_on_c, 4, 67, 0
6, 2478840, Note_on_c, 4, 69, 100
6, 2478900, Note_on_c, 4, 69, 0
6, 2478900, Note_on_c, 4, 67, 100
6, 2478960, Note_on_c, 4, 67, 0
6, 2479020, Note_on_c, 4, 67, 100
6, 2479080, Note_on_c, 4, 67, 0
6, 2479080, Note_on_c, 4, 69, 100
6, 2479140, Note_on_c, 4, 69, 0
6, 2479140, Note_on_c, 4, 67, 100
6, 2479200, Note_on_c, 4, 67, 0
6, 2479200, Note_on_c, 4, 69, 100
6, 2479260, Note_on_c, 4, 69, 0
6, 2479260, Note_on_c, 4, 67, 100
6, 2479320, Note_on_c, 4, 67, 0
6, 2479320, Note_on_c, 4, 69, 100
6, 2479380, Note_on_c, 4, 69, 0
6, 2479380, Note_on_c, 4, 67, 100
6, 2479440, Note_on_c, 4, 67, 0
6, 2479500, Note_on_c, 4, 67, 100
6, 2479560, Note_on_c, 4, 67, 0
6, 2479560, Note_on_c, 4, 69, 100
6, 2479620, Note_on_c, 4, 69, 0
6, 2479620, Note_on_c, 4, 67, 100
6, 2479680, Note_on_c, 4, 67, 0
6, 2479680, Note_on_c, 4, 69, 100
6, 2479740, Note_on_c, 4, 69, 0
6, 2479740, Note_on_c, 4, 67, 100
6, 2479800, Note_on_c, 4, 67, 0
6, 2479800, Note_on_c, 4, 69, 100
6, 2479860, Note_on_c, 4, 69, 0
6, 2479860, Note_on_c, 4, 67, 100
6, 2479920, Note_on_c, 4, 67, 0
6, 2479980, Note_on_c, 4, 67, 100
6, 2480040, Note_on_c, 4, 67, 0
6, 2480040, Note_on_c, 4, 69, 100
6, 2480100, Note_on_c, 4, 69, 0
6, 2480100, Note_on_c, 4, 67, 100
6, 2480160, Note_on_c, 4, 67, 0
6, 2480160, Note_on_c, 4, 69, 100
6, 2480220, Note_on_c, 4, 69, 0
6, 2480220, Note_on_c, 4, 67, 100
6, 2480280, Note_on_c, 4, 67, 0
6, 2480280, Note_on_c, 4, 69, 100
6, 2480340, Note_on_c, 4, 69, 0
6, 2480340, Note_on_c, 4, 67, 100
6, 2480400, Note_on_c, 4, 67, 0
6, 2480460, Note_on_c, 4, 67, 100
6, 2480520, Note_on_c, 4, 67, 0
6, 2480520, Note_on_c, 4, 69, 100
6, 2480580, Note_on_c, 4, 69, 0
6, 2480580, Note_on_c, 4, 67, 100
6, 2480640, Note_on_c, 4, 67, 0
6, 2480640, Note_on_c, 4, 69, 100
6, 2480700, Note_on_c, 4, 69, 0
6, 2480700, Note_on_c, 4, 67, 100
6, 2480760, Note_on_c, 4, 67, 0
6, 2480760, Note_on_c, 4, 69, 100
6, 2480820, Note_on_c, 4, 69, 0
6, 2480820, Note_on_c, 4, 67, 100
6, 2480880, Note_on_c, 4, 67, 0
6, 2480940, Note_on_c, 4, 67, 100
6, 2481000, Note_on_c, 4, 67, 0
6, 2481000, Note_on_c, 4, 69, 100
6, 2481060, Note_on_c, 4, 69, 0
6, 2481060, Note_on_c, 4, 67, 100
6, 2481120, Note_on_c, 4, 67, 0
6, 2481120, Note_on_c, 4, 69, 100
6, 2481180, Note_on_c, 4, 69, 0
6, 2481180, Note_on_c, 4, 67, 100
6, 2481240, Note_on_c, 4, 67, 0
6, 2481240, Note_on_c, 4, 69, 100
6, 2481300, Note_on_c, 4, 69, 0
6, 2481300, Note_on_c, 4, 67, 100
6, 2481360, Note_on_c, 4, 67, 0
6, 2481420, Note_on_c, 4, 67, 100
6, 2481480, Note_on_c, 4, 67, 0
6, 2481480, Note_on_c, 4, 69, 100
6, 2481540, Note_on_c, 4, 69, 0
6, 2481540, Note_on_c, 4, 67, 100
6, 2481600, Note_on_c, 4, 67, 0
6, 2481600, Note_on_c, 4, 69, 100
6, 2481660, Note_on_c, 4, 69, 0
6, 2481660, Note_on_c, 4, 67, 100
6, 2481720, Note_on_c, 4, 67, 0
6, 2481720, Note_on_c, 4, 69, 100
6, 2481780, Note_on_c, 4, 69, 0
6, 2481780, Note_on_c, 4, 67, 100
6, 2481840, Note_on_c, 4, 67, 0
6, 2481900, Note_on_c, 4, 67, 100
6, 2481960, Note_on_c, 4, 67, 0
6, 2481960, Note_on_c, 4, 69, 100
6, 2482020, Note_on_c, 4, 69, 0
6, 2482020, Note_on_c, 4, 67, 100
6, 2482080, Note_on_c, 4, 67, 0
6, 2482080, Note_on_c, 4, 69, 100
6, 2482140, Note_on_c, 4, 69, 0
6, 2482140, Note_on_c, 4, 67, 100
6, 2482200, Note_on_c, 4, 67, 0
6, 2482200, Note_on_c, 4, 69, 100
6, 2482260, Note_on_c, 4, 69, 0
6, 2482260, Note_on_c, 4, 67, 100
6, 2482320, Note_on_c, 4, 67, 0
6, 2482380, Note_on_c, 4, 67, 100
6, 2482440, Note_on_c, 4, 67, 0
6, 2482440, Note_on_c, 4, 69, 100
6, 2482500, Note_on_c, 4, 69, 0
6, 2482500, Note_on_c, 4, 67, 100
6, 2482560, Note_on_c, 4, 67, 0
6, 2482560, Note_on_c, 4, 69, 100
6, 2482620, Note_on_c, 4, 69, 0
6, 2482620, Note_on_c, 4, 67, 100
6, 2482680, Note_on_c, 4, 67, 0
6, 2482680, Note_on_c, 4, 69, 100
6, 2482740, Note_on_c, 4, 69, 0
6, 2482740, Note_on_c, 4, 67, 100
6, 2482800, Note_on_c, 4, 67, 0
6, 2482860, Note_on_c, 4, 67, 100
6, 2482920, Note_on_c, 4, 67, 0
6, 2482920, Note_on_c, 4, 69, 100
6, 2482980, Note_on_c, 4, 69, 0
6, 2482980, Note_on_c, 4, 67, 100
6, 2483040, Note_on_c, 4, 67, 0
6, 2483040, Note_on_c, 4, 69, 100
6, 2483100, Note_on_c, 4, 69, 0
6, 2483100, Note_on_c, 4, 67, 100
6, 2483160, Note_on_c, 4, 67, 0
6, 2483160, Note_on_c, 4, 69, 100
6, 2483220, Note_on_c, 4, 69, 0
6, 2483220, Note_on_c, 4, 67, 100
6, 2483280, Note_on_c, 4, 67, 0
6, 2483340, Note_on_c, 4, 67, 100
6, 2483400, Note_on_c, 4, 67, 0
6, 2483400, Note_on_c, 4, 69, 100
6, 2483460, Note_on_c, 4, 69, 0
6, 2483460, Note_on_c, 4, 67, 100
6, 2483520, Note_on_c, 4, 67, 0
6, 2483520, Note_on_c, 4, 69, 100
6, 2483580, Note_on_c, 4, 69, 0
6, 2483580, Note_on_c, 4, 67, 100
6, 2483640, Note_on_c, 4, 67, 0
6, 2483640, Note_on_c, 4, 69, 100
6, 2483700, Note_on_c, 4, 69, 0
6, 2483700, Note_on_c, 4, 67, 100
6, 2483760, Note_on_c, 4, 67, 0
6, 2483760, Note_on_c, 4, 55, 100
6, 2483880, Note_on_c, 4, 55, 0
6, 2483880, Note_on_c, 4, 59, 100
6, 2484000, Note_on_c, 4, 59, 0
6, 2484000, Note_on_c, 4, 57, 100
6, 2484120, Note_on_c, 4, 57, 0
6, 2484120, Note_on_c, 4, 59, 100
6, 2484240, Note_on_c, 4, 59, 0
6, 2484240, Note_on_c, 4, 64, 100
6, 2484360, Note_on_c, 4, 64, 0
6, 2484360, Note_on_c, 4, 67, 100
6, 2484480, Note_on_c, 4, 67, 0
6, 2484480, Note_on_c, 4, 66, 100
6, 2484600, Note_on_c, 4, 66, 0
6, 2484600, Note_on_c, 4, 67, 100
6, 2484720, Note_on_c, 4, 67, 0
6, 2484720, Note_on_c, 4, 71, 100
6, 2484840, Note_on_c, 4, 71, 0
6, 2484840, Note_on_c, 4, 67, 100
6, 2484960, Note_on_c, 4, 67, 0
6, 2484960, Note_on_c, 4, 64, 100
6, 2485080, Note_on_c, 4, 64, 0
6, 2485080, Note_on_c, 4, 61, 100
6, 2485200, Note_on_c, 4, 61, 0
6, 2485200, Note_on_c, 4, 54, 100
6, 2485320, Note_on_c, 4, 54, 0
6, 2485320, Note_on_c, 4, 57, 100
6, 2485440, Note_on_c, 4, 57, 0
6, 2485440, Note_on_c, 4, 55, 100
6, 2485560, Note_on_c, 4, 55, 0
6, 2485560, Note_on_c, 4, 57, 100
6, 2485680, Note_on_c, 4, 57, 0
6, 2485680, Note_on_c, 4, 62, 100
6, 2485800, Note_on_c, 4, 62, 0
6, 2485800, Note_on_c, 4, 66, 100
6, 2485920, Note_on_c, 4, 66, 0
6, 2485920, Note_on_c, 4, 64, 100
6, 2486040, Note_on_c, 4, 64, 0
6, 2486040, Note_on_c, 4, 66, 100
6, 2486160, Note_on_c, 4, 66, 0
6, 2486160, Note_on_c, 4, 69, 100
6, 2486280, Note_on_c, 4, 69, 0
6, 2486280, Note_on_c, 4, 66, 100
6, 2486400, Note_on_c, 4, 66, 0
6, 2486400, Note_on_c, 4, 62, 100
6, 2486520, Note_on_c, 4, 62, 0
6, 2486520, Note_on_c, 4, 59, 100
6, 2486640, Note_on_c, 4, 59, 0
6, 2486640, Note_on_c, 4, 52, 100
6, 2486760, Note_on_c, 4, 52, 0
6, 2486760, Note_on_c, 4, 55, 100
6, 2486880, Note_on_c, 4, 55, 0
6, 2486880, Note_on_c, 4, 54, 100
6, 2487000, Note_on_c, 4, 54, 0
6, 2487000, Note_on_c, 4, 55, 100
6, 2487120, Note_on_c, 4, 55, 0
6, 2487120, Note_on_c, 4, 59, 100
6, 2487240, Note_on_c, 4, 59, 0
6, 2487240, Note_on_c, 4, 64, 100
6, 2487360, Note_on_c, 4, 64, 0
6, 2487360, Note_on_c, 4, 63, 100
6, 2487480, Note_on_c, 4, 63, 0
6, 2487480, Note_on_c, 4, 64, 100
6, 2487600, Note_on_c, 4, 64, 0
6, 2487600, Note_on_c, 4, 67, 100
6, 2487720, Note_on_c, 4, 67, 0
6, 2487720, Note_on_c, 4, 64, 100
6, 2487840, Note_on_c, 4, 64, 0
6, 2487840, Note_on_c, 4, 59, 100
6, 2487960, Note_on_c, 4, 59, 0
6, 2487960, Note_on_c, 4, 55, 100
6, 2488080, Note_on_c, 4, 55, 0
6, 2488080, Note_on_c, 4, 57, 100
6, 2488200, Note_on_c, 4, 57, 0
6, 2488200, Note_on_c, 4, 64, 100
6, 2488320, Note_on_c, 4, 64, 0
6, 2488320, Note_on_c, 4, 62, 100
6, 2488440, Note_on_c, 4, 62, 0
6, 2488440, Note_on_c, 4, 64, 100
6, 2488560, Note_on_c, 4, 64, 0
6, 2488560, Note_on_c, 4, 67, 100
6, 2488680, Note_on_c, 4, 67, 0
6, 2488680, Note_on_c, 4, 69, 100
6, 2488800, Note_on_c, 4, 69, 0
6, 2488800, Note_on_c, 4, 67, 100
6, 2488920, Note_on_c, 4, 67, 0
6, 2488920, Note_on_c, 4, 69, 100
6, 2489040, Note_on_c, 4, 69, 0
6, 2489040, Note_on_c, 4, 67, 100
6, 2489160, Note_on_c, 4, 67, 0
6, 2489160, Note_on_c, 4, 64, 100
6, 2489280, Note_on_c, 4, 64, 0
6, 2489280, Note_on_c, 4, 61, 100
6, 2489400, Note_on_c, 4, 61, 0
6, 2489400, Note_on_c, 4, 57, 100
6, 2489520, Note_on_c, 4, 57, 0
6, 2489580, Note_on_c, 4, 54, 100
6, 2489640, Note_on_c, 4, 54, 0
6, 2489640, Note_on_c, 4, 55, 100
6, 2489700, Note_on_c, 4, 55, 0
6, 2489700, Note_on_c, 4, 54, 100
6, 2489760, Note_on_c, 4, 54, 0
6, 2489760, Note_on_c, 4, 55, 100
6, 2489820, Note_on_c, 4, 55, 0
6, 2489820, Note_on_c, 4, 54, 100
6, 2489880, Note_on_c, 4, 54, 0
6, 2489880, Note_on_c, 4, 55, 100
6, 2489940, Note_on_c, 4, 55, 0
6, 2489940, Note_on_c, 4, 54, 100
6, 2490000, Note_on_c, 4, 54, 0
6, 2490060, Note_on_c, 4, 54, 100
6, 2490120, Note_on_c, 4, 54, 0
6, 2490120, Note_on_c, 4, 55, 100
6, 2490180, Note_on_c, 4, 55, 0
6, 2490180, Note_on_c, 4, 54, 100
6, 2490240, Note_on_c, 4, 54, 0
6, 2490240, Note_on_c, 4, 55, 100
6, 2490300, Note_on_c, 4, 55, 0
6, 2490300, Note_on_c, 4, 54, 100
6, 2490360, Note_on_c, 4, 54, 0
6, 2490360, Note_on_c, 4, 55, 100
6, 2490420, Note_on_c, 4, 55, 0
6, 2490420, Note_on_c, 4, 54, 100
6, 2490480, Note_on_c, 4, 54, 0
6, 2490540, Note_on_c, 4, 54, 100
6, 2490600, Note_on_c, 4, 54, 0
6, 2490600, Note_on_c, 4, 55, 100
6, 2490660, Note_on_c, 4, 55, 0
6, 2490660, Note_on_c, 4, 54, 100
6, 2490720, Note_on_c, 4, 54, 0
6, 2490720, Note_on_c, 4, 55, 100
6, 2490780, Note_on_c, 4, 55, 0
6, 2490780, Note_on_c, 4, 54, 100
6, 2490840, Note_on_c, 4, 54, 0
6, 2490840, Note_on_c, 4, 55, 100
6, 2490900, Note_on_c, 4, 55, 0
6, 2490900, Note_on_c, 4, 54, 100
6, 2490960, Note_on_c, 4, 54, 0
6, 2491020, Note_on_c, 4, 54, 100
6, 2491080, Note_on_c, 4, 54, 0
6, 2491080, Note_on_c, 4, 55, 100
6, 2491140, Note_on_c, 4, 55, 0
6, 2491140, Note_on_c, 4, 54, 100
6, 2491200, Note_on_c, 4, 54, 0
6, 2491200, Note_on_c, 4, 55, 100
6, 2491260, Note_on_c, 4, 55, 0
6, 2491260, Note_on_c, 4, 54, 100
6, 2491320, Note_on_c, 4, 54, 0
6, 2491320, Note_on_c, 4, 55, 100
6, 2491380, Note_on_c, 4, 55, 0
6, 2491380, Note_on_c, 4, 54, 100
6, 2491440, Note_on_c, 4, 54, 0
6, 2491500, Note_on_c, 4, 54, 100
6, 2491560, Note_on_c, 4, 54, 0
6, 2491560, Note_on_c, 4, 55, 100
6, 2491620, Note_on_c, 4, 55, 0
6, 2491620, Note_on_c, 4, 54, 100
6, 2491680, Note_on_c, 4, 54, 0
6, 2491680, Note_on_c, 4, 55, 100
6, 2491740, Note_on_c, 4, 55, 0
6, 2491740, Note_on_c, 4, 54, 100
6, 2491800, Note_on_c, 4, 54, 0
6, 2491800, Note_on_c, 4, 55, 100
6, 2491860, Note_on_c, 4, 55, 0
6, 2491860, Note_on_c, 4, 54, 100
6, 2491920, Note_on_c, 4, 54, 0
6, 2491980, Note_on_c, 4, 54, 100
6, 2492040, Note_on_c, 4, 54, 0
6, 2492040, Note_on_c, 4, 55, 100
6, 2492100, Note_on_c, 4, 55, 0
6, 2492100, Note_on_c, 4, 54, 100
6, 2492160, Note_on_c, 4, 54, 0
6, 2492160, Note_on_c, 4, 55, 100
6, 2492220, Note_on_c, 4, 55, 0
6, 2492220, Note_on_c, 4, 54, 100
6, 2492280, Note_on_c, 4, 54, 0
6, 2492280, Note_on_c, 4, 55, 100
6, 2492340, Note_on_c, 4, 55, 0
6, 2492340, Note_on_c, 4, 54, 100
6, 2492400, Note_on_c, 4, 54, 0
6, 2492460, Note_on_c, 4, 54, 100
6, 2492520, Note_on_c, 4, 54, 0
6, 2492520, Note_on_c, 4, 55, 100
6, 2492580, Note_on_c, 4, 55, 0
6, 2492580, Note_on_c, 4, 54, 100
6, 2492640, Note_on_c, 4, 54, 0
6, 2492640, Note_on_c, 4, 55, 100
6, 2492700, Note_on_c, 4, 55, 0
6, 2492700, Note_on_c, 4, 54, 100
6, 2492760, Note_on_c, 4, 54, 0
6, 2492760, Note_on_c, 4, 55, 100
6, 2492820, Note_on_c, 4, 55, 0
6, 2492820, Note_on_c, 4, 54, 100
6, 2492880, Note_on_c, 4, 54, 0
6, 2492940, Note_on_c, 4, 54, 100
6, 2493000, Note_on_c, 4, 54, 0
6, 2493000, Note_on_c, 4, 55, 100
6, 2493060, Note_on_c, 4, 55, 0
6, 2493060, Note_on_c, 4, 54, 100
6, 2493120, Note_on_c, 4, 54, 0
6, 2493120, Note_on_c, 4, 55, 100
6, 2493180, Note_on_c, 4, 55, 0
6, 2493180, Note_on_c, 4, 54, 100
6, 2493240, Note_on_c, 4, 54, 0
6, 2493240, Note_on_c, 4, 55, 100
6, 2493300, Note_on_c, 4, 55, 0
6, 2493300, Note_on_c, 4, 54, 100
6, 2493360, Note_on_c, 4, 54, 0
6, 2493420, Note_on_c, 4, 52, 100
6, 2493480, Note_on_c, 4, 52, 0
6, 2493480, Note_on_c, 4, 54, 100
6, 2493540, Note_on_c, 4, 54, 0
6, 2493540, Note_on_c, 4, 52, 100
6, 2493600, Note_on_c, 4, 52, 0
6, 2493600, Note_on_c, 4, 54, 100
6, 2493660, Note_on_c, 4, 54, 0
6, 2493660, Note_on_c, 4, 52, 100
6, 2493720, Note_on_c, 4, 52, 0
6, 2493720, Note_on_c, 4, 54, 100
6, 2493780, Note_on_c, 4, 54, 0
6, 2493780, Note_on_c, 4, 52, 100
6, 2493840, Note_on_c, 4, 52, 0
6, 2493840, Note_on_c, 4, 38, 100
6, 2493960, Note_on_c, 4, 38, 0
6, 2493960, Note_on_c, 4, 42, 100
6, 2494080, Note_on_c, 4, 42, 0
6, 2494080, Note_on_c, 4, 40, 100
6, 2494200, Note_on_c, 4, 40, 0
6, 2494200, Note_on_c, 4, 42, 100
6, 2494320, Note_on_c, 4, 42, 0
6, 2494320, Note_on_c, 4, 45, 100
6, 2494440, Note_on_c, 4, 45, 0
6, 2494440, Note_on_c, 4, 50, 100
6, 2494560, Note_on_c, 4, 50, 0
6, 2494560, Note_on_c, 4, 49, 100
6, 2494680, Note_on_c, 4, 49, 0
6, 2494680, Note_on_c, 4, 50, 100
6, 2494800, Note_on_c, 4, 50, 0
6, 2494800, Note_on_c, 4, 54, 100
6, 2495280, Note_on_c, 4, 54, 0
6, 2501100, Note_on_c, 4, 67, 100
6, 2501160, Note_on_c, 4, 67, 0
6, 2501160, Note_on_c, 4, 69, 100
6, 2501220, Note_on_c, 4, 69, 0
6, 2501220, Note_on_c, 4, 67, 100
6, 2501280, Note_on_c, 4, 67, 0
6, 2501280, Note_on_c, 4, 69, 100
6, 2501340, Note_on_c, 4, 69, 0
6, 2501340, Note_on_c, 4, 67, 100
6, 2501400, Note_on_c, 4, 67, 0
6, 2501400, Note_on_c, 4, 69, 100
6, 2501460, Note_on_c, 4, 69, 0
6, 2501460, Note_on_c, 4, 67, 100
6, 2501520, Note_on_c, 4, 67, 0
6, 2501580, Note_on_c, 4, 67, 100
6, 2501640, Note_on_c, 4, 67, 0
6, 2501640, Note_on_c, 4, 69, 100
6, 2501700, Note_on_c, 4, 69, 0
6, 2501700, Note_on_c, 4, 67, 100
6, 2501760, Note_on_c, 4, 67, 0
6, 2501760, Note_on_c, 4, 69, 100
6, 2501820, Note_on_c, 4, 69, 0
6, 2501820, Note_on_c, 4, 67, 100
6, 2501880, Note_on_c, 4, 67, 0
6, 2501880, Note_on_c, 4, 69, 100
6, 2501940, Note_on_c, 4, 69, 0
6, 2501940, Note_on_c, 4, 67, 100
6, 2502000, Note_on_c, 4, 67, 0
6, 2502060, Note_on_c, 4, 67, 100
6, 2502120, Note_on_c, 4, 67, 0
6, 2502120, Note_on_c, 4, 69, 100
6, 2502180, Note_on_c, 4, 69, 0
6, 2502180, Note_on_c, 4, 67, 100
6, 2502240, Note_on_c, 4, 67, 0
6, 2502240, Note_on_c, 4, 69, 100
6, 2502300, Note_on_c, 4, 69, 0
6, 2502300, Note_on_c, 4, 67, 100
6, 2502360, Note_on_c, 4, 67, 0
6, 2502360, Note_on_c, 4, 69, 100
6, 2502420, Note_on_c, 4, 69, 0
6, 2502420, Note_on_c, 4, 67, 100
6, 2502480, Note_on_c, 4, 67, 0
6, 2502540, Note_on_c, 4, 67, 100
6, 2502600, Note_on_c, 4, 67, 0
6, 2502600, Note_on_c, 4, 69, 100
6, 2502660, Note_on_c, 4, 69, 0
6, 2502660, Note_on_c, 4, 67, 100
6, 2502720, Note_on_c, 4, 67, 0
6, 2502720, Note_on_c, 4, 69, 100
6, 2502780, Note_on_c, 4, 69, 0
6, 2502780, Note_on_c, 4, 67, 100
6, 2502840, Note_on_c, 4, 67, 0
6, 2502840, Note_on_c, 4, 69, 100
6, 2502900, Note_on_c, 4, 69, 0
6, 2502900, Note_on_c, 4, 67, 100
6, 2502960, Note_on_c, 4, 67, 0
6, 2503020, Note_on_c, 4, 67, 100
6, 2503080, Note_on_c, 4, 67, 0
6, 2503080, Note_on_c, 4, 69, 100
6, 2503140, Note_on_c, 4, 69, 0
6, 2503140, Note_on_c, 4, 67, 100
6, 2503200, Note_on_c, 4, 67, 0
6, 2503200, Note_on_c, 4, 69, 100
6, 2503260, Note_on_c, 4, 69, 0
6, 2503260, Note_on_c, 4, 67, 100
6, 2503320, Note_on_c, 4, 67, 0
6, 2503320, Note_on_c, 4, 69, 100
6, 2503380, Note_on_c, 4, 69, 0
6, 2503380, Note_on_c, 4, 67, 100
6, 2503440, Note_on_c, 4, 67, 0
6, 2503500, Note_on_c, 4, 67, 100
6, 2503560, Note_on_c, 4, 67, 0
6, 2503560, Note_on_c, 4, 69, 100
6, 2503620, Note_on_c, 4, 69, 0
6, 2503620, Note_on_c, 4, 67, 100
6, 2503680, Note_on_c, 4, 67, 0
6, 2503680, Note_on_c, 4, 69, 100
6, 2503740, Note_on_c, 4, 69, 0
6, 2503740, Note_on_c, 4, 67, 100
6, 2503800, Note_on_c, 4, 67, 0
6, 2503800, Note_on_c, 4, 69, 100
6, 2503860, Note_on_c, 4, 69, 0
6, 2503860, Note_on_c, 4, 67, 100
6, 2503920, Note_on_c, 4, 67, 0
6, 2503980, Note_on_c, 4, 67, 100
6, 2504040, Note_on_c, 4, 67, 0
6, 2504040, Note_on_c, 4, 69, 100
6, 2504100, Note_on_c, 4, 69, 0
6, 2504100, Note_on_c, 4, 67, 100
6, 2504160, Note_on_c, 4, 67, 0
6, 2504160, Note_on_c, 4, 69, 100
6, 2504220, Note_on_c, 4, 69, 0
6, 2504220, Note_on_c, 4, 67, 100
6, 2504280, Note_on_c, 4, 67, 0
6, 2504280, Note_on_c, 4, 69, 100
6, 2504340, Note_on_c, 4, 69, 0
6, 2504340, Note_on_c, 4, 67, 100
6, 2504400, Note_on_c, 4, 67, 0
6, 2504460, Note_on_c, 4, 67, 100
6, 2504520, Note_on_c, 4, 67, 0
6, 2504520, Note_on_c, 4, 69, 100
6, 2504580, Note_on_c, 4, 69, 0
6, 2504580, Note_on_c, 4, 67, 100
6, 2504640, Note_on_c, 4, 67, 0
6, 2504640, Note_on_c, 4, 69, 100
6, 2504700, Note_on_c, 4, 69, 0
6, 2504700, Note_on_c, 4, 67, 100
6, 2504760, Note_on_c, 4, 67, 0
6, 2504760, Note_on_c, 4, 69, 100
6, 2504820, Note_on_c, 4, 69, 0
6, 2504820, Note_on_c, 4, 67, 100
6, 2504880, Note_on_c, 4, 67, 0
6, 2504940, Note_on_c, 4, 67, 100
6, 2505000, Note_on_c, 4, 67, 0
6, 2505000, Note_on_c, 4, 69, 100
6, 2505060, Note_on_c, 4, 69, 0
6, 2505060, Note_on_c, 4, 67, 100
6, 2505120, Note_on_c, 4, 67, 0
6, 2505120, Note_on_c, 4, 69, 100
6, 2505180, Note_on_c, 4, 69, 0
6, 2505180, Note_on_c, 4, 67, 100
6, 2505240, Note_on_c, 4, 67, 0
6, 2505240, Note_on_c, 4, 69, 100
6, 2505300, Note_on_c, 4, 69, 0
6, 2505300, Note_on_c, 4, 67, 100
6, 2505360, Note_on_c, 4, 67, 0
6, 2505420, Note_on_c, 4, 67, 100
6, 2505480, Note_on_c, 4, 67, 0
6, 2505480, Note_on_c, 4, 69, 100
6, 2505540, Note_on_c, 4, 69, 0
6, 2505540, Note_on_c, 4, 67, 100
6, 2505600, Note_on_c, 4, 67, 0
6, 2505600, Note_on_c, 4, 69, 100
6, 2505660, Note_on_c, 4, 69, 0
6, 2505660, Note_on_c, 4, 67, 100
6, 2505720, Note_on_c, 4, 67, 0
6, 2505720, Note_on_c, 4, 69, 100
6, 2505780, Note_on_c, 4, 69, 0
6, 2505780, Note_on_c, 4, 67, 100
6, 2505840, Note_on_c, 4, 67, 0
6, 2505900, Note_on_c, 4, 67, 100
6, 2505960, Note_on_c, 4, 67, 0
6, 2505960, Note_on_c, 4, 69, 100
6, 2506020, Note_on_c, 4, 69, 0
6, 2506020, Note_on_c, 4, 67, 100
6, 2506080, Note_on_c, 4, 67, 0
6, 2506080, Note_on_c, 4, 69, 100
6, 2506140, Note_on_c, 4, 69, 0
6, 2506140, Note_on_c, 4, 67, 100
6, 2506200, Note_on_c, 4, 67, 0
6, 2506200, Note_on_c, 4, 69, 100
6, 2506260, Note_on_c, 4, 69, 0
6, 2506260, Note_on_c, 4, 67, 100
6, 2506320, Note_on_c, 4, 67, 0
6, 2506380, Note_on_c, 4, 67, 100
6, 2506440, Note_on_c, 4, 67, 0
6, 2506440, Note_on_c, 4, 69, 100
6, 2506500, Note_on_c, 4, 69, 0
6, 2506500, Note_on_c, 4, 67, 100
6, 2506560, Note_on_c, 4, 67, 0
6, 2506560, Note_on_c, 4, 69, 100
6, 2506620, Note_on_c, 4, 69, 0
6, 2506620, Note_on_c, 4, 67, 100
6, 2506680, Note_on_c, 4, 67, 0
6, 2506680, Note_on_c, 4, 69, 100
6, 2506740, Note_on_c, 4, 69, 0
6, 2506740, Note_on_c, 4, 67, 100
6, 2506800, Note_on_c, 4, 67, 0
6, 2506800, Note_on_c, 4, 55, 100
6, 2506920, Note_on_c, 4, 55, 0
6, 2506920, Note_on_c, 4, 59, 100
6, 2507040, Note_on_c, 4, 59, 0
6, 2507040, Note_on_c, 4, 57, 100
6, 2507160, Note_on_c, 4, 57, 0
6, 2507160, Note_on_c, 4, 59, 100
6, 2507280, Note_on_c, 4, 59, 0
6, 2507280, Note_on_c, 4, 64, 100
6, 2507400, Note_on_c, 4, 64, 0
6, 2507400, Note_on_c, 4, 67, 100
6, 2507520, Note_on_c, 4, 67, 0
6, 2507520, Note_on_c, 4, 66, 100
6, 2507640, Note_on_c, 4, 66, 0
6, 2507640, Note_on_c, 4, 67, 100
6, 2507760, Note_on_c, 4, 67, 0
6, 2507760, Note_on_c, 4, 71, 100
6, 2507880, Note_on_c, 4, 71, 0
6, 2507880, Note_on_c, 4, 67, 100
6, 2508000, Note_on_c, 4, 67, 0
6, 2508000, Note_on_c, 4, 64, 100
6, 2508120, Note_on_c, 4, 64, 0
6, 2508120, Note_on_c, 4, 61, 100
6, 2508240, Note_on_c, 4, 61, 0
6, 2508240, Note_on_c, 4, 54, 100
6, 2508360, Note_on_c, 4, 54, 0
6, 2508360, Note_on_c, 4, 57, 100
6, 2508480, Note_on_c, 4, 57, 0
6, 2508480, Note_on_c, 4, 55, 100
6, 2508600, Note_on_c, 4, 55, 0
6, 2508600, Note_on_c, 4, 57, 100
6, 2508720, Note_on_c, 4, 57, 0
6, 2508720, Note_on_c, 4, 62, 100
6, 2508840, Note_on_c, 4, 62, 0
6, 2508840, Note_on_c, 4, 66, 100
6, 2508960, Note_on_c, 4, 66, 0
6, 2508960, Note_on_c, 4, 64, 100
6, 2509080, Note_on_c, 4, 64, 0
6, 2509080, Note_on_c, 4, 66, 100
6, 2509200, Note_on_c, 4, 66, 0
6, 2509200, Note_on_c, 4, 69, 100
6, 2509320, Note_on_c, 4, 69, 0
6, 2509320, Note_on_c, 4, 66, 100
6, 2509440, Note_on_c, 4, 66, 0
6, 2509440, Note_on_c, 4, 62, 100
6, 2509560, Note_on_c, 4, 62, 0
6, 2509560, Note_on_c, 4, 59, 100
6, 2509680, Note_on_c, 4, 59, 0
6, 2509680, Note_on_c, 4, 52, 100
6, 2509800, Note_on_c, 4, 52, 0
6, 2509800, Note_on_c, 4, 55, 100
6, 2509920, Note_on_c, 4, 55, 0
6, 2509920, Note_on_c, 4, 54, 100
6, 2510040, Note_on_c, 4, 54, 0
6, 2510040, Note_on_c, 4, 55, 100
6, 2510160, Note_on_c, 4, 55, 0
6, 2510160, Note_on_c, 4, 59, 100
6, 2510280, Note_on_c, 4, 59, 0
6, 2510280, Note_on_c, 4, 64, 100
6, 2510400, Note_on_c, 4, 64, 0
6, 2510400, Note_on_c, 4, 63, 100
6, 2510520, Note_on_c, 4, 63, 0
6, 2510520, Note_on_c, 4, 64, 100
6, 2510640, Note_on_c, 4, 64, 0
6, 2510640, Note_on_c, 4, 67, 100
6, 2510760, Note_on_c, 4, 67, 0
6, 2510760, Note_on_c, 4, 64, 100
6, 2510880, Note_on_c, 4, 64, 0
6, 2510880, Note_on_c, 4, 59, 100
6, 2511000, Note_on_c, 4, 59, 0
6, 2511000, Note_on_c, 4, 55, 100
6, 2511120, Note_on_c, 4, 55, 0
6, 2511120, Note_on_c, 4, 57, 100
6, 2511240, Note_on_c, 4, 57, 0
6, 2511240, Note_on_c, 4, 64, 100
6, 2511360, Note_on_c, 4, 64, 0
6, 2511360, Note_on_c, 4, 62, 100
6, 2511480, Note_on_c, 4, 62, 0
6, 2511480, Note_on_c, 4, 64, 100
6, 2511600, Note_on_c, 4, 64, 0
6, 2511600, Note_on_c, 4, 67, 100
6, 2511720, Note_on_c, 4, 67, 0
6, 2511720, Note_on_c, 4, 69, 100
6, 2511840, Note_on_c, 4, 69, 0
6, 2511840, Note_on_c, 4, 67, 100
6, 2511960, Note_on_c, 4, 67, 0
6, 2511960, Note_on_c, 4, 69, 100
6, 2512080, Note_on_c, 4, 69, 0
6, 2512080, Note_on_c, 4, 67, 100
6, 2512200, Note_on_c, 4, 67, 0
6, 2512200, Note_on_c, 4, 64, 100
6, 2512320, Note_on_c, 4, 64, 0
6, 2512320, Note_on_c, 4, 61, 100
6, 2512440, Note_on_c, 4, 61, 0
6, 2512440, Note_on_c, 4, 57, 100
6, 2512560, Note_on_c, 4, 57, 0
6, 2512620, Note_on_c, 4, 54, 100
6, 2512680, Note_on_c, 4, 54, 0
6, 2512680, Note_on_c, 4, 55, 100
6, 2512740, Note_on_c, 4, 55, 0
6, 2512740, Note_on_c, 4, 54, 100
6, 2512800, Note_on_c, 4, 54, 0
6, 2512800, Note_on_c, 4, 55, 100
6, 2512860, Note_on_c, 4, 55, 0
6, 2512860, Note_on_c, 4, 54, 100
6, 2512920, Note_on_c, 4, 54, 0
6, 2512920, Note_on_c, 4, 55, 100
6, 2512980, Note_on_c, 4, 55, 0
6, 2512980, Note_on_c, 4, 54, 100
6, 2513040, Note_on_c, 4, 54, 0
6, 2513100, Note_on_c, 4, 54, 100
6, 2513160, Note_on_c, 4, 54, 0
6, 2513160, Note_on_c, 4, 55, 100
6, 2513220, Note_on_c, 4, 55, 0
6, 2513220, Note_on_c, 4, 54, 100
6, 2513280, Note_on_c, 4, 54, 0
6, 2513280, Note_on_c, 4, 55, 100
6, 2513340, Note_on_c, 4, 55, 0
6, 2513340, Note_on_c, 4, 54, 100
6, 2513400, Note_on_c, 4, 54, 0
6, 2513400, Note_on_c, 4, 55, 100
6, 2513460, Note_on_c, 4, 55, 0
6, 2513460, Note_on_c, 4, 54, 100
6, 2513520, Note_on_c, 4, 54, 0
6, 2513580, Note_on_c, 4, 54, 100
6, 2513640, Note_on_c, 4, 54, 0
6, 2513640, Note_on_c, 4, 55, 100
6, 2513700, Note_on_c, 4, 55, 0
6, 2513700, Note_on_c, 4, 54, 100
6, 2513760, Note_on_c, 4, 54, 0
6, 2513760, Note_on_c, 4, 55, 100
6, 2513820, Note_on_c, 4, 55, 0
6, 2513820, Note_on_c, 4, 54, 100
6, 2513880, Note_on_c, 4, 54, 0
6, 2513880, Note_on_c, 4, 55, 100
6, 2513940, Note_on_c, 4, 55, 0
6, 2513940, Note_on_c, 4, 54, 100
6, 2514000, Note_on_c, 4, 54, 0
6, 2514060, Note_on_c, 4, 54, 100
6, 2514120, Note_on_c, 4, 54, 0
6, 2514120, Note_on_c, 4, 55, 100
6, 2514180, Note_on_c, 4, 55, 0
6, 2514180, Note_on_c, 4, 54, 100
6, 2514240, Note_on_c, 4, 54, 0
6, 2514240, Note_on_c, 4, 55, 100
6, 2514300, Note_on_c, 4, 55, 0
6, 2514300, Note_on_c, 4, 54, 100
6, 2514360, Note_on_c, 4, 54, 0
6, 2514360, Note_on_c, 4, 55, 100
6, 2514420, Note_on_c, 4, 55, 0
6, 2514420, Note_on_c, 4, 54, 100
6, 2514480, Note_on_c, 4, 54, 0
6, 2514540, Note_on_c, 4, 54, 100
6, 2514600, Note_on_c, 4, 54, 0
6, 2514600, Note_on_c, 4, 55, 100
6, 2514660, Note_on_c, 4, 55, 0
6, 2514660, Note_on_c, 4, 54, 100
6, 2514720, Note_on_c, 4, 54, 0
6, 2514720, Note_on_c, 4, 55, 100
6, 2514780, Note_on_c, 4, 55, 0
6, 2514780, Note_on_c, 4, 54, 100
6, 2514840, Note_on_c, 4, 54, 0
6, 2514840, Note_on_c, 4, 55, 100
6, 2514900, Note_on_c, 4, 55, 0
6, 2514900, Note_on_c, 4, 54, 100
6, 2514960, Note_on_c, 4, 54, 0
6, 2515020, Note_on_c, 4, 54, 100
6, 2515080, Note_on_c, 4, 54, 0
6, 2515080, Note_on_c, 4, 55, 100
6, 2515140, Note_on_c, 4, 55, 0
6, 2515140, Note_on_c, 4, 54, 100
6, 2515200, Note_on_c, 4, 54, 0
6, 2515200, Note_on_c, 4, 55, 100
6, 2515260, Note_on_c, 4, 55, 0
6, 2515260, Note_on_c, 4, 54, 100
6, 2515320, Note_on_c, 4, 54, 0
6, 2515320, Note_on_c, 4, 55, 100
6, 2515380, Note_on_c, 4, 55, 0
6, 2515380, Note_on_c, 4, 54, 100
6, 2515440, Note_on_c, 4, 54, 0
6, 2515500, Note_on_c, 4, 54, 100
6, 2515560, Note_on_c, 4, 54, 0
6, 2515560, Note_on_c, 4, 55, 100
6, 2515620, Note_on_c, 4, 55, 0
6, 2515620, Note_on_c, 4, 54, 100
6, 2515680, Note_on_c, 4, 54, 0
6, 2515680, Note_on_c, 4, 55, 100
6, 2515740, Note_on_c, 4, 55, 0
6, 2515740, Note_on_c, 4, 54, 100
6, 2515800, Note_on_c, 4, 54, 0
6, 2515800, Note_on_c, 4, 55, 100
6, 2515860, Note_on_c, 4, 55, 0
6, 2515860, Note_on_c, 4, 54, 100
6, 2515920, Note_on_c, 4, 54, 0
6, 2515980, Note_on_c, 4, 54, 100
6, 2516040, Note_on_c, 4, 54, 0
6, 2516040, Note_on_c, 4, 55, 100
6, 2516100, Note_on_c, 4, 55, 0
6, 2516100, Note_on_c, 4, 54, 100
6, 2516160, Note_on_c, 4, 54, 0
6, 2516160, Note_on_c, 4, 55, 100
6, 2516220, Note_on_c, 4, 55, 0
6, 2516220, Note_on_c, 4, 54, 100
6, 2516280, Note_on_c, 4, 54, 0
6, 2516280, Note_on_c, 4, 55, 100
6, 2516340, Note_on_c, 4, 55, 0
6, 2516340, Note_on_c, 4, 54, 100
6, 2516400, Note_on_c, 4, 54, 0
6, 2516460, Note_on_c, 4, 52, 100
6, 2516520, Note_on_c, 4, 52, 0
6, 2516520, Note_on_c, 4, 54, 100
6, 2516580, Note_on_c, 4, 54, 0
6, 2516580, Note_on_c, 4, 52, 100
6, 2516640, Note_on_c, 4, 52, 0
6, 2516640, Note_on_c, 4, 54, 100
6, 2516700, Note_on_c, 4, 54, 0
6, 2516700, Note_on_c, 4, 52, 100
6, 2516760, Note_on_c, 4, 52, 0
6, 2516760, Note_on_c, 4, 54, 100
6, 2516820, Note_on_c, 4, 54, 0
6, 2516820, Note_on_c, 4, 52, 100
6, 2516880, Note_on_c, 4, 52, 0
6, 2516880, Note_on_c, 4, 38, 100
6, 2517000, Note_on_c, 4, 38, 0
6, 2517000, Note_on_c, 4, 42, 100
6, 2517120, Note_on_c, 4, 42, 0
6, 2517120, Note_on_c, 4, 40, 100
6, 2517240, Note_on_c, 4, 40, 0
6, 2517240, Note_on_c, 4, 42, 100
6, 2517360, Note_on_c, 4, 42, 0
6, 2517360, Note_on_c, 4, 45, 100
6, 2517480, Note_on_c, 4, 45, 0
6, 2517480, Note_on_c, 4, 50, 100
6, 2517600, Note_on_c, 4, 50, 0
6, 2517600, Note_on_c, 4, 49, 100
6, 2517720, Note_on_c, 4, 49, 0
6, 2517720, Note_on_c, 4, 50, 100
6, 2517840, Note_on_c, 4, 50, 0
6, 2517840, Note_on_c, 4, 54, 100
6, 2518320, Note_on_c, 4, 54, 0
6, 2518320, Note_on_c, 4, 62, 100
6, 2518560, Note_on_c, 4, 62, 0
6, 2518560, Note_on_c, 4, 52, 100
6, 2518800, Note_on_c, 4, 52, 0
6, 2518800, Note_on_c, 4, 54, 100
6, 2519040, Note_on_c, 4, 54, 0
6, 2519040, Note_on_c, 4, 60, 100
6, 2519280, Note_on_c, 4, 60, 0
6, 2519280, Note_on_c, 4, 50, 100
6, 2519520, Note_on_c, 4, 50, 0
6, 2519520, Note_on_c, 4, 66, 100
6, 2519760, Note_on_c, 4, 66, 0
6, 2519760, Note_on_c, 4, 67, 100
6, 2520000, Note_on_c, 4, 67, 0
6, 2520000, Note_on_c, 4, 57, 100
6, 2520240, Note_on_c, 4, 57, 0
6, 2520240, Note_on_c, 4, 59, 100
6, 2520480, Note_on_c, 4, 59, 0
6, 2520480, Note_on_c, 4, 65, 100
6, 2520720, Note_on_c, 4, 65, 0
6, 2520720, Note_on_c, 4, 55, 100
6, 2520960, Note_on_c, 4, 55, 0
6, 2520960, Note_on_c, 4, 71, 100
6, 2521200, Note_on_c, 4, 71, 0
6, 2521200, Note_on_c, 4, 72, 100
6, 2521320, Note_on_c, 4, 72, 0
6, 2521320, Note_on_c, 4, 67, 100
6, 2521440, Note_on_c, 4, 67, 0
6, 2521440, Note_on_c, 4, 65, 100
6, 2521560, Note_on_c, 4, 65, 0
6, 2521560, Note_on_c, 4, 67, 100
6, 2521680, Note_on_c, 4, 67, 0
6, 2521680, Note_on_c, 4, 64, 100
6, 2521800, Note_on_c, 4, 64, 0
6, 2521800, Note_on_c, 4, 60, 100
6, 2521920, Note_on_c, 4, 60, 0
6, 2521920, Note_on_c, 4, 59, 100
6, 2522040, Note_on_c, 4, 59, 0
6, 2522040, Note_on_c, 4, 60, 100
6, 2522160, Note_on_c, 4, 60, 0
6, 2522160, Note_on_c, 4, 57, 100
6, 2522280, Note_on_c, 4, 57, 0
6, 2522280, Note_on_c, 4, 60, 100
6, 2522400, Note_on_c, 4, 60, 0
6, 2522400, Note_on_c, 4, 64, 100
6, 2522520, Note_on_c, 4, 64, 0
6, 2522520, Note_on_c, 4, 69, 100
6, 2522640, Note_on_c, 4, 69, 0
6, 2522640, Note_on_c, 4, 63, 100
6, 2522760, Note_on_c, 4, 63, 0
6, 2522760, Note_on_c, 4, 59, 100
6, 2522880, Note_on_c, 4, 59, 0
6, 2522880, Note_on_c, 4, 58, 100
6, 2523000, Note_on_c, 4, 58, 0
6, 2523000, Note_on_c, 4, 59, 100
6, 2523120, Note_on_c, 4, 59, 0
6, 2523120, Note_on_c, 4, 54, 100
6, 2523240, Note_on_c, 4, 54, 0
6, 2523240, Note_on_c, 4, 51, 100
6, 2523360, Note_on_c, 4, 51, 0
6, 2523360, Note_on_c, 4, 49, 100
6, 2523480, Note_on_c, 4, 49, 0
6, 2523480, Note_on_c, 4, 51, 100
6, 2523600, Note_on_c, 4, 51, 0
6, 2523600, Note_on_c, 4, 47, 100
6, 2523720, Note_on_c, 4, 47, 0
6, 2523720, Note_on_c, 4, 51, 100
6, 2523840, Note_on_c, 4, 51, 0
6, 2523840, Note_on_c, 4, 54, 100
6, 2523960, Note_on_c, 4, 54, 0
6, 2523960, Note_on_c, 4, 57, 100
6, 2524080, Note_on_c, 4, 57, 0
6, 2524140, Note_on_c, 4, 64, 100
6, 2524200, Note_on_c, 4, 64, 0
6, 2524200, Note_on_c, 4, 66, 100
6, 2524260, Note_on_c, 4, 66, 0
6, 2524260, Note_on_c, 4, 64, 100
6, 2524320, Note_on_c, 4, 64, 0
6, 2524320, Note_on_c, 4, 66, 100
6, 2524380, Note_on_c, 4, 66, 0
6, 2524380, Note_on_c, 4, 64, 100
6, 2524440, Note_on_c, 4, 64, 0
6, 2524440, Note_on_c, 4, 66, 100
6, 2524500, Note_on_c, 4, 66, 0
6, 2524500, Note_on_c, 4, 64, 100
6, 2524560, Note_on_c, 4, 64, 0
6, 2524620, Note_on_c, 4, 64, 100
6, 2524680, Note_on_c, 4, 64, 0
6, 2524680, Note_on_c, 4, 66, 100
6, 2524740, Note_on_c, 4, 66, 0
6, 2524740, Note_on_c, 4, 64, 100
6, 2524800, Note_on_c, 4, 64, 0
6, 2524800, Note_on_c, 4, 66, 100
6, 2524860, Note_on_c, 4, 66, 0
6, 2524860, Note_on_c, 4, 64, 100
6, 2524920, Note_on_c, 4, 64, 0
6, 2524920, Note_on_c, 4, 66, 100
6, 2524980, Note_on_c, 4, 66, 0
6, 2524980, Note_on_c, 4, 64, 100
6, 2525040, Note_on_c, 4, 64, 0
6, 2525100, Note_on_c, 4, 64, 100
6, 2525160, Note_on_c, 4, 64, 0
6, 2525160, Note_on_c, 4, 66, 100
6, 2525220, Note_on_c, 4, 66, 0
6, 2525220, Note_on_c, 4, 64, 100
6, 2525280, Note_on_c, 4, 64, 0
6, 2525280, Note_on_c, 4, 66, 100
6, 2525340, Note_on_c, 4, 66, 0
6, 2525340, Note_on_c, 4, 64, 100
6, 2525400, Note_on_c, 4, 64, 0
6, 2525400, Note_on_c, 4, 66, 100
6, 2525460, Note_on_c, 4, 66, 0
6, 2525460, Note_on_c, 4, 64, 100
6, 2525520, Note_on_c, 4, 64, 0
6, 2525580, Note_on_c, 4, 64, 100
6, 2525640, Note_on_c, 4, 64, 0
6, 2525640, Note_on_c, 4, 66, 100
6, 2525700, Note_on_c, 4, 66, 0
6, 2525700, Note_on_c, 4, 64, 100
6, 2525760, Note_on_c, 4, 64, 0
6, 2525760, Note_on_c, 4, 66, 100
6, 2525820, Note_on_c, 4, 66, 0
6, 2525820, Note_on_c, 4, 64, 100
6, 2525880, Note_on_c, 4, 64, 0
6, 2525880, Note_on_c, 4, 66, 100
6, 2525940, Note_on_c, 4, 66, 0
6, 2525940, Note_on_c, 4, 64, 100
6, 2526000, Note_on_c, 4, 64, 0
6, 2526060, Note_on_c, 4, 64, 100
6, 2526120, Note_on_c, 4, 64, 0
6, 2526120, Note_on_c, 4, 66, 100
6, 2526180, Note_on_c, 4, 66, 0
6, 2526180, Note_on_c, 4, 64, 100
6, 2526240, Note_on_c, 4, 64, 0
6, 2526240, Note_on_c, 4, 66, 100
6, 2526300, Note_on_c, 4, 66, 0
6, 2526300, Note_on_c, 4, 64, 100
6, 2526360, Note_on_c, 4, 64, 0
6, 2526360, Note_on_c, 4, 66, 100
6, 2526420, Note_on_c, 4, 66, 0
6, 2526420, Note_on_c, 4, 64, 100
6, 2526480, Note_on_c, 4, 64, 0
6, 2526540, Note_on_c, 4, 64, 100
6, 2526600, Note_on_c, 4, 64, 0
6, 2526600, Note_on_c, 4, 66, 100
6, 2526660, Note_on_c, 4, 66, 0
6, 2526660, Note_on_c, 4, 64, 100
6, 2526720, Note_on_c, 4, 64, 0
6, 2526720, Note_on_c, 4, 66, 100
6, 2526780, Note_on_c, 4, 66, 0
6, 2526780, Note_on_c, 4, 64, 100
6, 2526840, Note_on_c, 4, 64, 0
6, 2526840, Note_on_c, 4, 66, 100
6, 2526900, Note_on_c, 4, 66, 0
6, 2526900, Note_on_c, 4, 64, 100
6, 2526960, Note_on_c, 4, 64, 0
6, 2527020, Note_on_c, 4, 64, 100
6, 2527080, Note_on_c, 4, 64, 0
6, 2527080, Note_on_c, 4, 66, 100
6, 2527140, Note_on_c, 4, 66, 0
6, 2527140, Note_on_c, 4, 64, 100
6, 2527200, Note_on_c, 4, 64, 0
6, 2527200, Note_on_c, 4, 66, 100
6, 2527260, Note_on_c, 4, 66, 0
6, 2527260, Note_on_c, 4, 64, 100
6, 2527320, Note_on_c, 4, 64, 0
6, 2527320, Note_on_c, 4, 66, 100
6, 2527380, Note_on_c, 4, 66, 0
6, 2527380, Note_on_c, 4, 64, 100
6, 2527440, Note_on_c, 4, 64, 0
6, 2527500, Note_on_c, 4, 64, 100
6, 2527560, Note_on_c, 4, 64, 0
6, 2527560, Note_on_c, 4, 66, 100
6, 2527620, Note_on_c, 4, 66, 0
6, 2527620, Note_on_c, 4, 64, 100
6, 2527680, Note_on_c, 4, 64, 0
6, 2527680, Note_on_c, 4, 66, 100
6, 2527740, Note_on_c, 4, 66, 0
6, 2527740, Note_on_c, 4, 64, 100
6, 2527800, Note_on_c, 4, 64, 0
6, 2527800, Note_on_c, 4, 66, 100
6, 2527860, Note_on_c, 4, 66, 0
6, 2527860, Note_on_c, 4, 64, 100
6, 2527920, Note_on_c, 4, 64, 0
6, 2527980, Note_on_c, 4, 63, 100
6, 2528040, Note_on_c, 4, 63, 0
6, 2528040, Note_on_c, 4, 64, 100
6, 2528100, Note_on_c, 4, 64, 0
6, 2528100, Note_on_c, 4, 63, 100
6, 2528160, Note_on_c, 4, 63, 0
6, 2528160, Note_on_c, 4, 64, 100
6, 2528220, Note_on_c, 4, 64, 0
6, 2528220, Note_on_c, 4, 63, 100
6, 2528280, Note_on_c, 4, 63, 0
6, 2528280, Note_on_c, 4, 64, 100
6, 2528340, Note_on_c, 4, 64, 0
6, 2528340, Note_on_c, 4, 63, 100
6, 2528400, Note_on_c, 4, 63, 0
6, 2541360, Note_on_c, 4, 62, 100
6, 2541600, Note_on_c, 4, 62, 0
6, 2541600, Note_on_c, 4, 52, 100
6, 2541840, Note_on_c, 4, 52, 0
6, 2541840, Note_on_c, 4, 54, 100
6, 2542080, Note_on_c, 4, 54, 0
6, 2542080, Note_on_c, 4, 60, 100
6, 2542320, Note_on_c, 4, 60, 0
6, 2542320, Note_on_c, 4, 50, 100
6, 2542560, Note_on_c, 4, 50, 0
6, 2542560, Note_on_c, 4, 66, 100
6, 2542800, Note_on_c, 4, 66, 0
6, 2542800, Note_on_c, 4, 67, 100
6, 2543040, Note_on_c, 4, 67, 0
6, 2543040, Note_on_c, 4, 57, 100
6, 2543280, Note_on_c, 4, 57, 0
6, 2543280, Note_on_c, 4, 59, 100
6, 2543520, Note_on_c, 4, 59, 0
6, 2543520, Note_on_c, 4, 65, 100
6, 2543760, Note_on_c, 4, 65, 0
6, 2543760, Note_on_c, 4, 55, 100
6, 2544000, Note_on_c, 4, 55, 0
6, 2544000, Note_on_c, 4, 71, 100
6, 2544240, Note_on_c, 4, 71, 0
6, 2544240, Note_on_c, 4, 72, 100
6, 2544360, Note_on_c, 4, 72, 0
6, 2544360, Note_on_c, 4, 67, 100
6, 2544480, Note_on_c, 4, 67, 0
6, 2544480, Note_on_c, 4, 65, 100
6, 2544600, Note_on_c, 4, 65, 0
6, 2544600, Note_on_c, 4, 67, 100
6, 2544720, Note_on_c, 4, 67, 0
6, 2544720, Note_on_c, 4, 64, 100
6, 2544840, Note_on_c, 4, 64, 0
6, 2544840, Note_on_c, 4, 60, 100
6, 2544960, Note_on_c, 4, 60, 0
6, 2544960, Note_on_c, 4, 59, 100
6, 2545080, Note_on_c, 4, 59, 0
6, 2545080, Note_on_c, 4, 60, 100
6, 2545200, Note_on_c, 4, 60, 0
6, 2545200, Note_on_c, 4, 57, 100
6, 2545320, Note_on_c, 4, 57, 0
6, 2545320, Note_on_c, 4, 60, 100
6, 2545440, Note_on_c, 4, 60, 0
6, 2545440, Note_on_c, 4, 64, 100
6, 2545560, Note_on_c, 4, 64, 0
6, 2545560, Note_on_c, 4, 69, 100
6, 2545680, Note_on_c, 4, 69, 0
6, 2545680, Note_on_c, 4, 63, 100
6, 2545800, Note_on_c, 4, 63, 0
6, 2545800, Note_on_c, 4, 59, 100
6, 2545920, Note_on_c, 4, 59, 0
6, 2545920, Note_on_c, 4, 58, 100
6, 2546040, Note_on_c, 4, 58, 0
6, 2546040, Note_on_c, 4, 59, 100
6, 2546160, Note_on_c, 4, 59, 0
6, 2546160, Note_on_c, 4, 54, 100
6, 2546280, Note_on_c, 4, 54, 0
6, 2546280, Note_on_c, 4, 51, 100
6, 2546400, Note_on_c, 4, 51, 0
6, 2546400, Note_on_c, 4, 49, 100
6, 2546520, Note_on_c, 4, 49, 0
6, 2546520, Note_on_c, 4, 51, 100
6, 2546640, Note_on_c, 4, 51, 0
6, 2546640, Note_on_c, 4, 47, 100
6, 2546760, Note_on_c, 4, 47, 0
6, 2546760, Note_on_c, 4, 51, 100
6, 2546880, Note_on_c, 4, 51, 0
6, 2546880, Note_on_c, 4, 54, 100
6, 2547000, Note_on_c, 4, 54, 0
6, 2547000, Note_on_c, 4, 57, 100
6, 2547120, Note_on_c, 4, 57, 0
6, 2547180, Note_on_c, 4, 64, 100
6, 2547240, Note_on_c, 4, 64, 0
6, 2547240, Note_on_c, 4, 66, 100
6, 2547300, Note_on_c, 4, 66, 0
6, 2547300, Note_on_c, 4, 64, 100
6, 2547360, Note_on_c, 4, 64, 0
6, 2547360, Note_on_c, 4, 66, 100
6, 2547420, Note_on_c, 4, 66, 0
6, 2547420, Note_on_c, 4, 64, 100
6, 2547480, Note_on_c, 4, 64, 0
6, 2547480, Note_on_c, 4, 66, 100
6, 2547540, Note_on_c, 4, 66, 0
6, 2547540, Note_on_c, 4, 64, 100
6, 2547600, Note_on_c, 4, 64, 0
6, 2547660, Note_on_c, 4, 64, 100
6, 2547720, Note_on_c, 4, 64, 0
6, 2547720, Note_on_c, 4, 66, 100
6, 2547780, Note_on_c, 4, 66, 0
6, 2547780, Note_on_c, 4, 64, 100
6, 2547840, Note_on_c, 4, 64, 0
6, 2547840, Note_on_c, 4, 66, 100
6, 2547900, Note_on_c, 4, 66, 0
6, 2547900, Note_on_c, 4, 64, 100
6, 2547960, Note_on_c, 4, 64, 0
6, 2547960, Note_on_c, 4, 66, 100
6, 2548020, Note_on_c, 4, 66, 0
6, 2548020, Note_on_c, 4, 64, 100
6, 2548080, Note_on_c, 4, 64, 0
6, 2548140, Note_on_c, 4, 64, 100
6, 2548200, Note_on_c, 4, 64, 0
6, 2548200, Note_on_c, 4, 66, 100
6, 2548260, Note_on_c, 4, 66, 0
6, 2548260, Note_on_c, 4, 64, 100
6, 2548320, Note_on_c, 4, 64, 0
6, 2548320, Note_on_c, 4, 66, 100
6, 2548380, Note_on_c, 4, 66, 0
6, 2548380, Note_on_c, 4, 64, 100
6, 2548440, Note_on_c, 4, 64, 0
6, 2548440, Note_on_c, 4, 66, 100
6, 2548500, Note_on_c, 4, 66, 0
6, 2548500, Note_on_c, 4, 64, 100
6, 2548560, Note_on_c, 4, 64, 0
6, 2548620, Note_on_c, 4, 64, 100
6, 2548680, Note_on_c, 4, 64, 0
6, 2548680, Note_on_c, 4, 66, 100
6, 2548740, Note_on_c, 4, 66, 0
6, 2548740, Note_on_c, 4, 64, 100
6, 2548800, Note_on_c, 4, 64, 0
6, 2548800, Note_on_c, 4, 66, 100
6, 2548860, Note_on_c, 4, 66, 0
6, 2548860, Note_on_c, 4, 64, 100
6, 2548920, Note_on_c, 4, 64, 0
6, 2548920, Note_on_c, 4, 66, 100
6, 2548980, Note_on_c, 4, 66, 0
6, 2548980, Note_on_c, 4, 64, 100
6, 2549040, Note_on_c, 4, 64, 0
6, 2549100, Note_on_c, 4, 64, 100
6, 2549160, Note_on_c, 4, 64, 0
6, 2549160, Note_on_c, 4, 66, 100
6, 2549220, Note_on_c, 4, 66, 0
6, 2549220, Note_on_c, 4, 64, 100
6, 2549280, Note_on_c, 4, 64, 0
6, 2549280, Note_on_c, 4, 66, 100
6, 2549340, Note_on_c, 4, 66, 0
6, 2549340, Note_on_c, 4, 64, 100
6, 2549400, Note_on_c, 4, 64, 0
6, 2549400, Note_on_c, 4, 66, 100
6, 2549460, Note_on_c, 4, 66, 0
6, 2549460, Note_on_c, 4, 64, 100
6, 2549520, Note_on_c, 4, 64, 0
6, 2549580, Note_on_c, 4, 64, 100
6, 2549640, Note_on_c, 4, 64, 0
6, 2549640, Note_on_c, 4, 66, 100
6, 2549700, Note_on_c, 4, 66, 0
6, 2549700, Note_on_c, 4, 64, 100
6, 2549760, Note_on_c, 4, 64, 0
6, 2549760, Note_on_c, 4, 66, 100
6, 2549820, Note_on_c, 4, 66, 0
6, 2549820, Note_on_c, 4, 64, 100
6, 2549880, Note_on_c, 4, 64, 0
6, 2549880, Note_on_c, 4, 66, 100
6, 2549940, Note_on_c, 4, 66, 0
6, 2549940, Note_on_c, 4, 64, 100
6, 2550000, Note_on_c, 4, 64, 0
6, 2550060, Note_on_c, 4, 64, 100
6, 2550120, Note_on_c, 4, 64, 0
6, 2550120, Note_on_c, 4, 66, 100
6, 2550180, Note_on_c, 4, 66, 0
6, 2550180, Note_on_c, 4, 64, 100
6, 2550240, Note_on_c, 4, 64, 0
6, 2550240, Note_on_c, 4, 66, 100
6, 2550300, Note_on_c, 4, 66, 0
6, 2550300, Note_on_c, 4, 64, 100
6, 2550360, Note_on_c, 4, 64, 0
6, 2550360, Note_on_c, 4, 66, 100
6, 2550420, Note_on_c, 4, 66, 0
6, 2550420, Note_on_c, 4, 64, 100
6, 2550480, Note_on_c, 4, 64, 0
6, 2550540, Note_on_c, 4, 64, 100
6, 2550600, Note_on_c, 4, 64, 0
6, 2550600, Note_on_c, 4, 66, 100
6, 2550660, Note_on_c, 4, 66, 0
6, 2550660, Note_on_c, 4, 64, 100
6, 2550720, Note_on_c, 4, 64, 0
6, 2550720, Note_on_c, 4, 66, 100
6, 2550780, Note_on_c, 4, 66, 0
6, 2550780, Note_on_c, 4, 64, 100
6, 2550840, Note_on_c, 4, 64, 0
6, 2550840, Note_on_c, 4, 66, 100
6, 2550900, Note_on_c, 4, 66, 0
6, 2550900, Note_on_c, 4, 64, 100
6, 2550960, Note_on_c, 4, 64, 0
6, 2551020, Note_on_c, 4, 63, 100
6, 2551080, Note_on_c, 4, 63, 0
6, 2551080, Note_on_c, 4, 64, 100
6, 2551140, Note_on_c, 4, 64, 0
6, 2551140, Note_on_c, 4, 63, 100
6, 2551200, Note_on_c, 4, 63, 0
6, 2551200, Note_on_c, 4, 64, 100
6, 2551260, Note_on_c, 4, 64, 0
6, 2551260, Note_on_c, 4, 63, 100
6, 2551320, Note_on_c, 4, 63, 0
6, 2551320, Note_on_c, 4, 64, 100
6, 2551380, Note_on_c, 4, 64, 0
6, 2551380, Note_on_c, 4, 63, 100
6, 2551440, Note_on_c, 4, 63, 0
6, 2656560, Note_on_c, 4, 50, 100
6, 2656800, Note_on_c, 4, 50, 0
6, 2656800, Note_on_c, 4, 55, 100
6, 2657040, Note_on_c, 4, 55, 0
6, 2657040, Note_on_c, 4, 57, 100
6, 2657280, Note_on_c, 4, 57, 0
6, 2657280, Note_on_c, 4, 59, 100
6, 2657520, Note_on_c, 4, 59, 0
6, 2657520, Note_on_c, 4, 60, 100
6, 2657760, Note_on_c, 4, 60, 0
6, 2657760, Note_on_c, 4, 62, 100
6, 2658000, Note_on_c, 4, 62, 0
6, 2658000, Note_on_c, 4, 60, 100
6, 2658120, Note_on_c, 4, 60, 0
6, 2658120, Note_on_c, 4, 59, 100
6, 2658240, Note_on_c, 4, 59, 0
6, 2658240, Note_on_c, 4, 57, 100
6, 2658480, Note_on_c, 4, 57, 0
6, 2658480, Note_on_c, 4, 55, 100
6, 2658600, Note_on_c, 4, 55, 0
6, 2658600, Note_on_c, 4, 57, 100
6, 2658720, Note_on_c, 4, 57, 0
6, 2658720, Note_on_c, 4, 59, 100
6, 2658960, Note_on_c, 4, 59, 0
6, 2658960, Note_on_c, 4, 57, 100
6, 2659200, Note_on_c, 4, 57, 0
6, 2659200, Note_on_c, 4, 55, 100
6, 2660160, Note_on_c, 4, 55, 0
6, 2660160, Note_on_c, 4, 55, 100
6, 2660220, Note_on_c, 4, 55, 0
6, 2660220, Note_on_c, 4, 54, 100
6, 2660280, Note_on_c, 4, 54, 0
6, 2660280, Note_on_c, 4, 55, 100
6, 2660340, Note_on_c, 4, 55, 0
6, 2660340, Note_on_c, 4, 54, 100
6, 2660400, Note_on_c, 4, 54, 0
6, 2660400, Note_on_c, 4, 52, 100
6, 2660520, Note_on_c, 4, 52, 0
6, 2660520, Note_on_c, 4, 54, 100
6, 2660640, Note_on_c, 4, 54, 0
6, 2660640, Note_on_c, 4, 55, 100
6, 2661120, Note_on_c, 4, 55, 0
6, 2661360, Note_on_c, 4, 62, 100
6, 2661600, Note_on_c, 4, 62, 0
6, 2661600, Note_on_c, 4, 60, 100
6, 2661840, Note_on_c, 4, 60, 0
6, 2661840, Note_on_c, 4, 59, 100
6, 2662080, Note_on_c, 4, 59, 0
6, 2662080, Note_on_c, 4, 57, 100
6, 2662320, Note_on_c, 4, 57, 0
6, 2662320, Note_on_c, 4, 55, 100
6, 2662560, Note_on_c, 4, 55, 0
6, 2662560, Note_on_c, 4, 55, 100
6, 2662640, Note_on_c, 4, 55, 0
6, 2662640, Note_on_c, 4, 54, 100
6, 2662720, Note_on_c, 4, 54, 0
6, 2662720, Note_on_c, 4, 55, 100
6, 2662800, Note_on_c, 4, 55, 0
6, 2662800, Note_on_c, 4, 54, 100
6, 2662880, Note_on_c, 4, 54, 0
6, 2662880, Note_on_c, 4, 55, 100
6, 2662960, Note_on_c, 4, 55, 0
6, 2662960, Note_on_c, 4, 54, 100
6, 2663040, Note_on_c, 4, 54, 0
6, 2663040, Note_on_c, 4, 55, 100
6, 2663100, Note_on_c, 4, 55, 0
6, 2663100, Note_on_c, 4, 54, 100
6, 2663160, Note_on_c, 4, 54, 0
6, 2663160, Note_on_c, 4, 52, 100
6, 2663220, Note_on_c, 4, 52, 0
6, 2663220, Note_on_c, 4, 54, 100
6, 2663280, Note_on_c, 4, 54, 0
6, 2663280, Note_on_c, 4, 50, 100
6, 2664000, Note_on_c, 4, 50, 0
6, 2664480, Note_on_c, 4, 67, 100
6, 2664960, Note_on_c, 4, 67, 0
6, 2664960, Note_on_c, 4, 67, 100
6, 2665440, Note_on_c, 4, 67, 0
6, 2665440, Note_on_c, 4, 69, 100
6, 2665920, Note_on_c, 4, 69, 0
6, 2665920, Note_on_c, 4, 69, 100
6, 2666400, Note_on_c, 4, 69, 0
6, 2666400, Note_on_c, 4, 67, 100
6, 2666640, Note_on_c, 4, 67, 0
6, 2666640, Note_on_c, 4, 69, 100
6, 2666880, Note_on_c, 4, 69, 0
6, 2666880, Note_on_c, 4, 67, 100
6, 2667120, Note_on_c, 4, 67, 0
6, 2667120, Note_on_c, 4, 66, 100
6, 2667360, Note_on_c, 4, 66, 0
6, 2667360, Note_on_c, 4, 64, 100
6, 2667600, Note_on_c, 4, 64, 0
6, 2667600, Note_on_c, 4, 62, 100
6, 2667840, Note_on_c, 4, 62, 0
6, 2667840, Note_on_c, 4, 61, 100
6, 2668080, Note_on_c, 4, 61, 0
6, 2668320, Note_on_c, 4, 54, 100
6, 2668560, Note_on_c, 4, 54, 0
6, 2668560, Note_on_c, 4, 55, 100
6, 2668800, Note_on_c, 4, 55, 0
6, 2668800, Note_on_c, 4, 57, 100
6, 2669040, Note_on_c, 4, 57, 0
6, 2669040, Note_on_c, 4, 54, 100
6, 2669280, Note_on_c, 4, 54, 0
6, 2669280, Note_on_c, 4, 55, 100
6, 2669520, Note_on_c, 4, 55, 0
6, 2669520, Note_on_c, 4, 54, 100
6, 2669760, Note_on_c, 4, 54, 0
6, 2669760, Note_on_c, 4, 52, 100
6, 2670000, Note_on_c, 4, 52, 0
6, 2670000, Note_on_c, 4, 50, 100
6, 2670240, Note_on_c, 4, 50, 0
6, 2670240, Note_on_c, 4, 49, 100
6, 2670480, Note_on_c, 4, 49, 0
6, 2670480, Note_on_c, 4, 50, 100
6, 2670720, Note_on_c, 4, 50, 0
6, 2670720, Note_on_c, 4, 52, 100
6, 2670960, Note_on_c, 4, 52, 0
6, 2670960, Note_on_c, 4, 49, 100
6, 2671200, Note_on_c, 4, 49, 0
6, 2671200, Note_on_c, 4, 50, 100
6, 2671680, Note_on_c, 4, 50, 0
6, 2671680, Note_on_c, 4, 50, 100
6, 2671920, Note_on_c, 4, 50, 0
6, 2671920, Note_on_c, 4, 50, 100
6, 2672160, Note_on_c, 4, 50, 0
6, 2672160, Note_on_c, 4, 55, 100
6, 2672400, Note_on_c, 4, 55, 0
6, 2672400, Note_on_c, 4, 57, 100
6, 2672640, Note_on_c, 4, 57, 0
6, 2672640, Note_on_c, 4, 59, 100
6, 2672880, Note_on_c, 4, 59, 0
6, 2672880, Note_on_c, 4, 60, 100
6, 2673120, Note_on_c, 4, 60, 0
6, 2673120, Note_on_c, 4, 62, 100
6, 2673360, Note_on_c, 4, 62, 0
6, 2673360, Note_on_c, 4, 60, 100
6, 2673480, Note_on_c, 4, 60, 0
6, 2673480, Note_on_c, 4, 59, 100
6, 2673600, Note_on_c, 4, 59, 0
6, 2673600, Note_on_c, 4, 57, 100
6, 2673840, Note_on_c, 4, 57, 0
6, 2673840, Note_on_c, 4, 55, 100
6, 2673960, Note_on_c, 4, 55, 0
6, 2673960, Note_on_c, 4, 57, 100
6, 2674080, Note_on_c, 4, 57, 0
6, 2674080, Note_on_c, 4, 59, 100
6, 2674320, Note_on_c, 4, 59, 0
6, 2674320, Note_on_c, 4, 57, 100
6, 2674560, Note_on_c, 4, 57, 0
6, 2674560, Note_on_c, 4, 55, 100
6, 2675520, Note_on_c, 4, 55, 0
6, 2675520, Note_on_c, 4, 55, 100
6, 2675580, Note_on_c, 4, 55, 0
6, 2675580, Note_on_c, 4, 54, 100
6, 2675640, Note_on_c, 4, 54, 0
6, 2675640, Note_on_c, 4, 55, 100
6, 2675700, Note_on_c, 4, 55, 0
6, 2675700, Note_on_c, 4, 54, 100
6, 2675760, Note_on_c, 4, 54, 0
6, 2675760, Note_on_c, 4, 52, 100
6, 2675880, Note_on_c, 4, 52, 0
6, 2675880, Note_on_c, 4, 54, 100
6, 2676000, Note_on_c, 4, 54, 0
6, 2676000, Note_on_c, 4, 55, 100
6, 2676480, Note_on_c, 4, 55, 0
6, 2676720, Note_on_c, 4, 62, 100
6, 2676960, Note_on_c, 4, 62, 0
6, 2676960, Note_on_c, 4, 60, 100
6, 2677200, Note_on_c, 4, 60, 0
6, 2677200, Note_on_c, 4, 59, 100
6, 2677440, Note_on_c, 4, 59, 0
6, 2677440, Note_on_c, 4, 57, 100
6, 2677680, Note_on_c, 4, 57, 0
6, 2677680, Note_on_c, 4, 55, 100
6, 2677920, Note_on_c, 4, 55, 0
6, 2677920, Note_on_c, 4, 55, 100
6, 2678000, Note_on_c, 4, 55, 0
6, 2678000, Note_on_c, 4, 54, 100
6, 2678080, Note_on_c, 4, 54, 0
6, 2678080, Note_on_c, 4, 55, 100
6, 2678160, Note_on_c, 4, 55, 0
6, 2678160, Note_on_c, 4, 54, 100
6, 2678240, Note_on_c, 4, 54, 0
6, 2678240, Note_on_c, 4, 55, 100
6, 2678320, Note_on_c, 4, 55, 0
6, 2678320, Note_on_c, 4, 54, 100
6, 2678400, Note_on_c, 4, 54, 0
6, 2678400, Note_on_c, 4, 55, 100
6, 2678460, Note_on_c, 4, 55, 0
6, 2678460, Note_on_c, 4, 54, 100
6, 2678520, Note_on_c, 4, 54, 0
6, 2678520, Note_on_c, 4, 52, 100
6, 2678580, Note_on_c, 4, 52, 0
6, 2678580, Note_on_c, 4, 54, 100
6, 2678640, Note_on_c, 4, 54, 0
6, 2678640, Note_on_c, 4, 50, 100
6, 2679360, Note_on_c, 4, 50, 0
6, 2679840, Note_on_c, 4, 67, 100
6, 2680320, Note_on_c, 4, 67, 0
6, 2680320, Note_on_c, 4, 67, 100
6, 2680800, Note_on_c, 4, 67, 0
6, 2680800, Note_on_c, 4, 69, 100
6, 2681280, Note_on_c, 4, 69, 0
6, 2681280, Note_on_c, 4, 69, 100
6, 2681760, Note_on_c, 4, 69, 0
6, 2681760, Note_on_c, 4, 67, 100
6, 2682000, Note_on_c, 4, 67, 0
6, 2682000, Note_on_c, 4, 69, 100
6, 2682240, Note_on_c, 4, 69, 0
6, 2682240, Note_on_c, 4, 67, 100
6, 2682480, Note_on_c, 4, 67, 0
6, 2682480, Note_on_c, 4, 66, 100
6, 2682720, Note_on_c, 4, 66, 0
6, 2682720, Note_on_c, 4, 64, 100
6, 2682960, Note_on_c, 4, 64, 0
6, 2682960, Note_on_c, 4, 62, 100
6, 2683200, Note_on_c, 4, 62, 0
6, 2683200, Note_on_c, 4, 61, 100
6, 2683440, Note_on_c, 4, 61, 0
6, 2683680, Note_on_c, 4, 54, 100
6, 2683920, Note_on_c, 4, 54, 0
6, 2683920, Note_on_c, 4, 55, 100
6, 2684160, Note_on_c, 4, 55, 0
6, 2684160, Note_on_c, 4, 57, 100
6, 2684400, Note_on_c, 4, 57, 0
6, 2684400, Note_on_c, 4, 54, 100
6, 2684640, Note_on_c, 4, 54, 0
6, 2684640, Note_on_c, 4, 55, 100
6, 2684880, Note_on_c, 4, 55, 0
6, 2684880, Note_on_c, 4, 54, 100
6, 2685120, Note_on_c, 4, 54, 0
6, 2685120, Note_on_c, 4, 52, 100
6, 2685360, Note_on_c, 4, 52, 0
6, 2685360, Note_on_c, 4, 50, 100
6, 2685600, Note_on_c, 4, 50, 0
6, 2685600, Note_on_c, 4, 49, 100
6, 2685840, Note_on_c, 4, 49, 0
6, 2685840, Note_on_c, 4, 50, 100
6, 2686080, Note_on_c, 4, 50, 0
6, 2686080, Note_on_c, 4, 52, 100
6, 2686320, Note_on_c, 4, 52, 0
6, 2686320, Note_on_c, 4, 49, 100
6, 2686560, Note_on_c, 4, 49, 0
6, 2686560, Note_on_c, 4, 50, 100
6, 2687040, Note_on_c, 4, 50, 0
6, 2687040, Note_on_c, 4, 50, 100
6, 2687280, Note_on_c, 4, 50, 0
6, 2687280, Note_on_c, 4, 66, 100
6, 2687520, Note_on_c, 4, 66, 0
6, 2687520, Note_on_c, 4, 62, 100
6, 2687760, Note_on_c, 4, 62, 0
6, 2687760, Note_on_c, 4, 66, 100
6, 2688000, Note_on_c, 4, 66, 0
6, 2688000, Note_on_c, 4, 62, 100
6, 2688240, Note_on_c, 4, 62, 0
6, 2688240, Note_on_c, 4, 66, 100
6, 2688480, Note_on_c, 4, 66, 0
6, 2688480, Note_on_c, 4, 67, 100
6, 2688720, Note_on_c, 4, 67, 0
6, 2688720, Note_on_c, 4, 62, 100
6, 2688960, Note_on_c, 4, 62, 0
6, 2688960, Note_on_c, 4, 62, 100
6, 2689200, Note_on_c, 4, 62, 0
6, 2689200, Note_on_c, 4, 67, 100
6, 2689440, Note_on_c, 4, 67, 0
6, 2689440, Note_on_c, 4, 64, 100
6, 2689680, Note_on_c, 4, 64, 0
6, 2690400, Note_on_c, 4, 66, 100
6, 2690880, Note_on_c, 4, 66, 0
6, 2690880, Note_on_c, 4, 66, 100
6, 2691360, Note_on_c, 4, 66, 0
6, 2691360, Note_on_c, 4, 67, 100
6, 2691840, Note_on_c, 4, 67, 0
6, 2691840, Note_on_c, 4, 67, 100
6, 2692320, Note_on_c, 4, 67, 0
6, 2692320, Note_on_c, 4, 66, 100
6, 2692560, Note_on_c, 4, 66, 0
6, 2692560, Note_on_c, 4, 67, 100
6, 2692800, Note_on_c, 4, 67, 0
6, 2692800, Note_on_c, 4, 66, 100
6, 2693040, Note_on_c, 4, 66, 0
6, 2693040, Note_on_c, 4, 64, 100
6, 2693280, Note_on_c, 4, 64, 0
6, 2693280, Note_on_c, 4, 63, 100
6, 2693520, Note_on_c, 4, 63, 0
6, 2693520, Note_on_c, 4, 64, 100
6, 2693640, Note_on_c, 4, 64, 0
6, 2693640, Note_on_c, 4, 66, 100
6, 2693760, Note_on_c, 4, 66, 0
6, 2693760, Note_on_c, 4, 59, 100
6, 2694480, Note_on_c, 4, 59, 0
6, 2694480, Note_on_c, 4, 57, 100
6, 2694600, Note_on_c, 4, 57, 0
6, 2694600, Note_on_c, 4, 59, 100
6, 2694720, Note_on_c, 4, 59, 0
6, 2694720, Note_on_c, 4, 55, 100
6, 2694960, Note_on_c, 4, 55, 0
6, 2694960, Note_on_c, 4, 57, 100
6, 2695080, Note_on_c, 4, 57, 0
6, 2695080, Note_on_c, 4, 59, 100
6, 2695200, Note_on_c, 4, 59, 0
6, 2695200, Note_on_c, 4, 60, 100
6, 2695440, Note_on_c, 4, 60, 0
6, 2695440, Note_on_c, 4, 62, 100
6, 2695680, Note_on_c, 4, 62, 0
6, 2695680, Note_on_c, 4, 64, 100
6, 2695920, Note_on_c, 4, 64, 0
6, 2695920, Note_on_c, 4, 66, 100
6, 2696160, Note_on_c, 4, 66, 0
6, 2696160, Note_on_c, 4, 67, 100
6, 2696400, Note_on_c, 4, 67, 0
6, 2696400, Note_on_c, 4, 66, 100
6, 2696520, Note_on_c, 4, 66, 0
6, 2696520, Note_on_c, 4, 64, 100
6, 2696640, Note_on_c, 4, 64, 0
6, 2696640, Note_on_c, 4, 62, 100
6, 2696880, Note_on_c, 4, 62, 0
6, 2697360, Note_on_c, 4, 69, 100
6, 2697600, Note_on_c, 4, 69, 0
6, 2697600, Note_on_c, 4, 64, 100
6, 2697840, Note_on_c, 4, 64, 0
6, 2697840, Note_on_c, 4, 62, 100
6, 2697960, Note_on_c, 4, 62, 0
6, 2697960, Note_on_c, 4, 64, 100
6, 2698080, Note_on_c, 4, 64, 0
6, 2698080, Note_on_c, 4, 66, 100
6, 2698320, Note_on_c, 4, 66, 0
6, 2698320, Note_on_c, 4, 67, 100
6, 2698800, Note_on_c, 4, 67, 0
6, 2698800, Note_on_c, 4, 66, 100
6, 2699040, Note_on_c, 4, 66, 0
6, 2699040, Note_on_c, 4, 62, 100
6, 2699520, Note_on_c, 4, 62, 0
6, 2699520, Note_on_c, 4, 62, 100
6, 2700000, Note_on_c, 4, 62, 0
6, 2700000, Note_on_c, 4, 64, 100
6, 2700480, Note_on_c, 4, 64, 0
6, 2700480, Note_on_c, 4, 64, 100
6, 2700960, Note_on_c, 4, 64, 0
6, 2700960, Note_on_c, 4, 62, 100
6, 2701200, Note_on_c, 4, 62, 0
6, 2701200, Note_on_c, 4, 64, 100
6, 2701440, Note_on_c, 4, 64, 0
6, 2701440, Note_on_c, 4, 62, 100
6, 2701680, Note_on_c, 4, 62, 0
6, 2701680, Note_on_c, 4, 60, 100
6, 2701920, Note_on_c, 4, 60, 0
6, 2701920, Note_on_c, 4, 59, 100
6, 2702160, Note_on_c, 4, 59, 0
6, 2702160, Note_on_c, 4, 57, 100
6, 2702400, Note_on_c, 4, 57, 0
6, 2702400, Note_on_c, 4, 55, 100
6, 2702640, Note_on_c, 4, 55, 0
6, 2702640, Note_on_c, 4, 66, 100
6, 2702880, Note_on_c, 4, 66, 0
6, 2702880, Note_on_c, 4, 62, 100
6, 2703120, Note_on_c, 4, 62, 0
6, 2703120, Note_on_c, 4, 66, 100
6, 2703360, Note_on_c, 4, 66, 0
6, 2703360, Note_on_c, 4, 62, 100
6, 2703600, Note_on_c, 4, 62, 0
6, 2703600, Note_on_c, 4, 66, 100
6, 2703840, Note_on_c, 4, 66, 0
6, 2703840, Note_on_c, 4, 67, 100
6, 2704080, Note_on_c, 4, 67, 0
6, 2704080, Note_on_c, 4, 62, 100
6, 2704320, Note_on_c, 4, 62, 0
6, 2704320, Note_on_c, 4, 62, 100
6, 2704560, Note_on_c, 4, 62, 0
6, 2704560, Note_on_c, 4, 67, 100
6, 2704800, Note_on_c, 4, 67, 0
6, 2704800, Note_on_c, 4, 64, 100
6, 2705040, Note_on_c, 4, 64, 0
6, 2705760, Note_on_c, 4, 66, 100
6, 2706240, Note_on_c, 4, 66, 0
6, 2706240, Note_on_c, 4, 66, 100
6, 2706720, Note_on_c, 4, 66, 0
6, 2706720, Note_on_c, 4, 67, 100
6, 2707200, Note_on_c, 4, 67, 0
6, 2707200, Note_on_c, 4, 67, 100
6, 2707680, Note_on_c, 4, 67, 0
6, 2707680, Note_on_c, 4, 66, 100
6, 2707920, Note_on_c, 4, 66, 0
6, 2707920, Note_on_c, 4, 67, 100
6, 2708160, Note_on_c, 4, 67, 0
6, 2708160, Note_on_c, 4, 66, 100
6, 2708400, Note_on_c, 4, 66, 0
6, 2708400, Note_on_c, 4, 64, 100
6, 2708640, Note_on_c, 4, 64, 0
6, 2708640, Note_on_c, 4, 63, 100
6, 2708880, Note_on_c, 4, 63, 0
6, 2708880, Note_on_c, 4, 64, 100
6, 2709000, Note_on_c, 4, 64, 0
6, 2709000, Note_on_c, 4, 66, 100
6, 2709120, Note_on_c, 4, 66, 0
6, 2709120, Note_on_c, 4, 59, 100
6, 2709840, Note_on_c, 4, 59, 0
6, 2709840, Note_on_c, 4, 57, 100
6, 2709960, Note_on_c, 4, 57, 0
6, 2709960, Note_on_c, 4, 59, 100
6, 2710080, Note_on_c, 4, 59, 0
6, 2710080, Note_on_c, 4, 55, 100
6, 2710320, Note_on_c, 4, 55, 0
6, 2710320, Note_on_c, 4, 57, 100
6, 2710440, Note_on_c, 4, 57, 0
6, 2710440, Note_on_c, 4, 59, 100
6, 2710560, Note_on_c, 4, 59, 0
6, 2710560, Note_on_c, 4, 60, 100
6, 2710800, Note_on_c, 4, 60, 0
6, 2710800, Note_on_c, 4, 62, 100
6, 2711040, Note_on_c, 4, 62, 0
6, 2711040, Note_on_c, 4, 64, 100
6, 2711280, Note_on_c, 4, 64, 0
6, 2711280, Note_on_c, 4, 66, 100
6, 2711520, Note_on_c, 4, 66, 0
6, 2711520, Note_on_c, 4, 67, 100
6, 2711760, Note_on_c, 4, 67, 0
6, 2711760, Note_on_c, 4, 66, 100
6, 2711880, Note_on_c, 4, 66, 0
6, 2711880, Note_on_c, 4, 64, 100
6, 2712000, Note_on_c, 4, 64, 0
6, 2712000, Note_on_c, 4, 62, 100
6, 2712240, Note_on_c, 4, 62, 0
6, 2712720, Note_on_c, 4, 69, 100
6, 2712960, Note_on_c, 4, 69, 0
6, 2712960, Note_on_c, 4, 64, 100
6, 2713200, Note_on_c, 4, 64, 0
6, 2713200, Note_on_c, 4, 62, 100
6, 2713320, Note_on_c, 4, 62, 0
6, 2713320, Note_on_c, 4, 64, 100
6, 2713440, Note_on_c, 4, 64, 0
6, 2713440, Note_on_c, 4, 66, 100
6, 2713680, Note_on_c, 4, 66, 0
6, 2713680, Note_on_c, 4, 67, 100
6, 2714160, Note_on_c, 4, 67, 0
6, 2714160, Note_on_c, 4, 66, 100
6, 2714400, Note_on_c, 4, 66, 0
6, 2714400, Note_on_c, 4, 62, 100
6, 2714880, Note_on_c, 4, 62, 0
6, 2714880, Note_on_c, 4, 62, 100
6, 2715360, Note_on_c, 4, 62, 0
6, 2715360, Note_on_c, 4, 64, 100
6, 2715840, Note_on_c, 4, 64, 0
6, 2715840, Note_on_c, 4, 64, 100
6, 2716320, Note_on_c, 4, 64, 0
6, 2716320, Note_on_c, 4, 62, 100
6, 2716560, Note_on_c, 4, 62, 0
6, 2716560, Note_on_c, 4, 64, 100
6, 2716800, Note_on_c, 4, 64, 0
6, 2716800, Note_on_c, 4, 62, 100
6, 2717040, Note_on_c, 4, 62, 0
6, 2717040, Note_on_c, 4, 60, 100
6, 2717280, Note_on_c, 4, 60, 0
6, 2717280, Note_on_c, 4, 59, 100
6, 2717520, Note_on_c, 4, 59, 0
6, 2717520, Note_on_c, 4, 57, 100
6, 2717760, Note_on_c, 4, 57, 0
6, 2717760, Note_on_c, 4, 55, 100
6, 2718000, Note_on_c, 4, 55, 0
6, 2718720, Note_on_c, 4, 59, 100
6, 2719680, Note_on_c, 4, 59, 0
6, 2720160, Note_on_c, 4, 57, 100
6, 2721120, Note_on_c, 4, 57, 0
6, 2721600, Note_on_c, 4, 55, 100
6, 2722560, Note_on_c, 4, 55, 0
6, 2723040, Note_on_c, 4, 54, 100
6, 2724000, Note_on_c, 4, 54, 0
6, 2724480, Note_on_c, 4, 50, 100
6, 2725440, Note_on_c, 4, 50, 0
6, 2725920, Note_on_c, 4, 52, 100
6, 2726640, Note_on_c, 4, 52, 0
6, 2730720, Note_on_c, 4, 64, 100
6, 2731200, Note_on_c, 4, 64, 0
6, 2731680, Note_on_c, 4, 74, 100
6, 2732640, Note_on_c, 4, 74, 0
6, 2733120, Note_on_c, 4, 64, 100
6, 2733840, Note_on_c, 4, 64, 0
6, 2733840, Note_on_c, 4, 62, 100
6, 2734080, Note_on_c, 4, 62, 0
6, 2734080, Note_on_c, 4, 61, 100
6, 2734320, Note_on_c, 4, 61, 0
6, 2734320, Note_on_c, 4, 62, 100
6, 2734560, Note_on_c, 4, 62, 0
6, 2734560, Note_on_c, 4, 64, 100
6, 2735520, Note_on_c, 4, 64, 0
6, 2736480, Note_on_c, 4, 62, 100
6, 2736960, Note_on_c, 4, 62, 0
6, 2737920, Note_on_c, 4, 64, 100
6, 2738400, Note_on_c, 4, 64, 0
6, 2738400, Note_on_c, 4, 66, 100
6, 2738880, Note_on_c, 4, 66, 0
6, 2738880, Note_on_c, 4, 64, 100
6, 2739240, Note_on_c, 4, 64, 0
6, 2739240, Note_on_c, 4, 66, 100
6, 2739360, Note_on_c, 4, 66, 0
6, 2739360, Note_on_c, 4, 67, 100
6, 2740320, Note_on_c, 4, 67, 0
6, 2740320, Note_on_c, 4, 66, 100
6, 2741280, Note_on_c, 4, 66, 0
6, 2741760, Note_on_c, 4, 59, 100
6, 2742720, Note_on_c, 4, 59, 0
6, 2743200, Note_on_c, 4, 57, 100
6, 2744160, Note_on_c, 4, 57, 0
6, 2744640, Note_on_c, 4, 55, 100
6, 2745600, Note_on_c, 4, 55, 0
6, 2746080, Note_on_c, 4, 54, 100
6, 2747040, Note_on_c, 4, 54, 0
6, 2747520, Note_on_c, 4, 50, 100
6, 2748480, Note_on_c, 4, 50, 0
6, 2748960, Note_on_c, 4, 52, 100
6, 2749680, Note_on_c, 4, 52, 0
6, 2753760, Note_on_c, 4, 64, 100
6, 2754240, Note_on_c, 4, 64, 0
6, 2754720, Note_on_c, 4, 74, 100
6, 2755680, Note_on_c, 4, 74, 0
6, 2756160, Note_on_c, 4, 64, 100
6, 2756880, Note_on_c, 4, 64, 0
6, 2756880, Note_on_c, 4, 62, 100
6, 2757120, Note_on_c, 4, 62, 0
6, 2757120, Note_on_c, 4, 61, 100
6, 2757360, Note_on_c, 4, 61, 0
6, 2757360, Note_on_c, 4, 62, 100
6, 2757600, Note_on_c, 4, 62, 0
6, 2757600, Note_on_c, 4, 64, 100
6, 2758560, Note_on_c, 4, 64, 0
6, 2759520, Note_on_c, 4, 62, 100
6, 2760000, Note_on_c, 4, 62, 0
6, 2760960, Note_on_c, 4, 64, 100
6, 2761440, Note_on_c, 4, 64, 0
6, 2761440, Note_on_c, 4, 66, 100
6, 2761920, Note_on_c, 4, 66, 0
6, 2761920, Note_on_c, 4, 64, 100
6, 2762280, Note_on_c, 4, 64, 0
6, 2762280, Note_on_c, 4, 66, 100
6, 2762400, Note_on_c, 4, 66, 0
6, 2762400, Note_on_c, 4, 67, 100
6, 2763360, Note_on_c, 4, 67, 0
6, 2763360, Note_on_c, 4, 66, 100
6, 2764320, Note_on_c, 4, 66, 0
6, 2764560, Note_on_c, 4, 64, 100
6, 2764800, Note_on_c, 4, 64, 0
6, 2764800, Note_on_c, 4, 66, 100
6, 2764830, Note_on_c, 4, 66, 0
6, 2764830, Note_on_c, 4, 64, 100
6, 2764860, Note_on_c, 4, 64, 0
6, 2764860, Note_on_c, 4, 66, 100
6, 2765760, Note_on_c, 4, 66, 0
6, 2766000, Note_on_c, 4, 60, 100
6, 2766240, Note_on_c, 4, 60, 0
6, 2766240, Note_on_c, 4, 62, 100
6, 2767200, Note_on_c, 4, 62, 0
6, 2767440, Note_on_c, 4, 64, 100
6, 2767680, Note_on_c, 4, 64, 0
6, 2767680, Note_on_c, 4, 67, 100
6, 2768160, Note_on_c, 4, 67, 0
6, 2768160, Note_on_c, 4, 67, 100
6, 2768200, Note_on_c, 4, 67, 0
6, 2768200, Note_on_c, 4, 66, 100
6, 2768240, Note_on_c, 4, 66, 0
6, 2768240, Note_on_c, 4, 67, 100
6, 2768280, Note_on_c, 4, 67, 0
6, 2768280, Note_on_c, 4, 66, 100
6, 2768400, Note_on_c, 4, 66, 0
6, 2768400, Note_on_c, 4, 64, 100
6, 2768640, Note_on_c, 4, 64, 0
6, 2768640, Note_on_c, 4, 63, 100
6, 2768880, Note_on_c, 4, 63, 0
6, 2768880, Note_on_c, 4, 64, 100
6, 2769120, Note_on_c, 4, 64, 0
6, 2769120, Note_on_c, 4, 66, 100
6, 2770080, Note_on_c, 4, 66, 0
6, 2770320, Note_on_c, 4, 57, 100
6, 2770560, Note_on_c, 4, 57, 0
6, 2770560, Note_on_c, 4, 57, 100
6, 2770600, Note_on_c, 4, 57, 0
6, 2770600, Note_on_c, 4, 55, 100
6, 2770640, Note_on_c, 4, 55, 0
6, 2770640, Note_on_c, 4, 57, 100
6, 2770680, Note_on_c, 4, 57, 0
6, 2770680, Note_on_c, 4, 55, 100
6, 2770800, Note_on_c, 4, 55, 0
6, 2770800, Note_on_c, 4, 54, 100
6, 2771040, Note_on_c, 4, 54, 0
6, 2771040, Note_on_c, 4, 55, 100
6, 2771520, Note_on_c, 4, 55, 0
6, 2771760, Note_on_c, 4, 57, 100
6, 2772000, Note_on_c, 4, 57, 0
6, 2772000, Note_on_c, 4, 57, 100
6, 2772040, Note_on_c, 4, 57, 0
6, 2772040, Note_on_c, 4, 55, 100
6, 2772080, Note_on_c, 4, 55, 0
6, 2772080, Note_on_c, 4, 57, 100
6, 2772120, Note_on_c, 4, 57, 0
6, 2772120, Note_on_c, 4, 55, 100
6, 2772240, Note_on_c, 4, 55, 0
6, 2772240, Note_on_c, 4, 54, 100
6, 2772480, Note_on_c, 4, 54, 0
6, 2772480, Note_on_c, 4, 55, 100
6, 2772720, Note_on_c, 4, 55, 0
6, 2772720, Note_on_c, 4, 59, 100
6, 2772960, Note_on_c, 4, 59, 0
6, 2774160, Note_on_c, 4, 51, 100
6, 2774400, Note_on_c, 4, 51, 0
6, 2774400, Note_on_c, 4, 52, 100
6, 2774880, Note_on_c, 4, 52, 0
6, 2776320, Note_on_c, 4, 52, 100
6, 2777280, Note_on_c, 4, 52, 0
6, 2787600, Note_on_c, 4, 64, 100
6, 2787840, Note_on_c, 4, 64, 0
6, 2787840, Note_on_c, 4, 66, 100
6, 2787870, Note_on_c, 4, 66, 0
6, 2787870, Note_on_c, 4, 64, 100
6, 2787900, Note_on_c, 4, 64, 0
6, 2787900, Note_on_c, 4, 66, 100
6, 2788800, Note_on_c, 4, 66, 0
6, 2789040, Note_on_c, 4, 60, 100
6, 2789280, Note_on_c, 4, 60, 0
6, 2789280, Note_on_c, 4, 62, 100
6, 2790240, Note_on_c, 4, 62, 0
6, 2790480, Note_on_c, 4, 64, 100
6, 2790720, Note_on_c, 4, 64, 0
6, 2790720, Note_on_c, 4, 67, 100
6, 2791200, Note_on_c, 4, 67, 0
6, 2791200, Note_on_c, 4, 67, 100
6, 2791240, Note_on_c, 4, 67, 0
6, 2791240, Note_on_c, 4, 66, 100
6, 2791280, Note_on_c, 4, 66, 0
6, 2791280, Note_on_c, 4, 67, 100
6, 2791320, Note_on_c, 4, 67, 0
6, 2791320, Note_on_c, 4, 66, 100
6, 2791440, Note_on_c, 4, 66, 0
6, 2791440, Note_on_c, 4, 64, 100
6, 2791680, Note_on_c, 4, 64, 0
6, 2791680, Note_on_c, 4, 63, 100
6, 2791920, Note_on_c, 4, 63, 0
6, 2791920, Note_on_c, 4, 64, 100
6, 2792160, Note_on_c, 4, 64, 0
6, 2792160, Note_on_c, 4, 66, 100
6, 2793120, Note_on_c, 4, 66, 0
6, 2793360, Note_on_c, 4, 57, 100
6, 2793600, Note_on_c, 4, 57, 0
6, 2793600, Note_on_c, 4, 57, 100
6, 2793640, Note_on_c, 4, 57, 0
6, 2793640, Note_on_c, 4, 55, 100
6, 2793680, Note_on_c, 4, 55, 0
6, 2793680, Note_on_c, 4, 57, 100
6, 2793720, Note_on_c, 4, 57, 0
6, 2793720, Note_on_c, 4, 55, 100
6, 2793840, Note_on_c, 4, 55, 0
6, 2793840, Note_on_c, 4, 54, 100
6, 2794080, Note_on_c, 4, 54, 0
6, 2794080, Note_on_c, 4, 55, 100
6, 2794560, Note_on_c, 4, 55, 0
6, 2794800, Note_on_c, 4, 57, 100
6, 2795040, Note_on_c, 4, 57, 0
6, 2795040, Note_on_c, 4, 57, 100
6, 2795080, Note_on_c, 4, 57, 0
6, 2795080, Note_on_c, 4, 55, 100
6, 2795120, Note_on_c, 4, 55, 0
6, 2795120, Note_on_c, 4, 57, 100
6, 2795160, Note_on_c, 4, 57, 0
6, 2795160, Note_on_c, 4, 55, 100
6, 2795280, Note_on_c, 4, 55, 0
6, 2795280, Note_on_c, 4, 54, 100
6, 2795520, Note_on_c, 4, 54, 0
6, 2795520, Note_on_c, 4, 55, 100
6, 2795760, Note_on_c, 4, 55, 0
6, 2795760, Note_on_c, 4, 59, 100
6, 2796000, Note_on_c, 4, 59, 0
6, 2797200, Note_on_c, 4, 51, 100
6, 2797440, Note_on_c, 4, 51, 0
6, 2797440, Note_on_c, 4, 52, 100
6, 2797920, Note_on_c, 4, 52, 0
6, 2799360, Note_on_c, 4, 52, 100
6, 2800320, Note_on_c, 4, 52, 0
6, 2811840, Note_on_c, 4, 55, 100
6, 2812320, Note_on_c, 4, 55, 0
6, 2812320, Note_on_c, 4, 54, 100
6, 2812800, Note_on_c, 4, 54, 0
6, 2812800, Note_on_c, 4, 52, 100
6, 2813280, Note_on_c, 4, 52, 0
6, 2813280, Note_on_c, 4, 50, 100
6, 2813760, Note_on_c, 4, 50, 0
6, 2813760, Note_on_c, 4, 47, 100
6, 2814240, Note_on_c, 4, 47, 0
6, 2814240, Note_on_c, 4, 48, 100
6, 2814720, Note_on_c, 4, 48, 0
6, 2814720, Note_on_c, 4, 50, 100
6, 2815200, Note_on_c, 4, 50, 0
6, 2815200, Note_on_c, 4, 43, 100
6, 2815680, Note_on_c, 4, 43, 0
6, 2815680, Note_on_c, 4, 55, 100
6, 2816160, Note_on_c, 4, 55, 0
6, 2816160, Note_on_c, 4, 54, 100
6, 2816640, Note_on_c, 4, 54, 0
6, 2816640, Note_on_c, 4, 52, 100
6, 2817120, Note_on_c, 4, 52, 0
6, 2817120, Note_on_c, 4, 50, 100
6, 2817600, Note_on_c, 4, 50, 0
6, 2817600, Note_on_c, 4, 47, 100
6, 2818080, Note_on_c, 4, 47, 0
6, 2818080, Note_on_c, 4, 48, 100
6, 2818560, Note_on_c, 4, 48, 0
6, 2818560, Note_on_c, 4, 50, 100
6, 2819040, Note_on_c, 4, 50, 0
6, 2819040, Note_on_c, 4, 43, 100
6, 2820000, Note_on_c, 4, 43, 0
6, 2820480, Note_on_c, 4, 50, 100
6, 2820960, Note_on_c, 4, 50, 0
6, 2820960, Note_on_c, 4, 52, 100
6, 2821440, Note_on_c, 4, 52, 0
6, 2821440, Note_on_c, 4, 54, 100
6, 2821920, Note_on_c, 4, 54, 0
6, 2821920, Note_on_c, 4, 55, 100
6, 2822400, Note_on_c, 4, 55, 0
6, 2822400, Note_on_c, 4, 59, 100
6, 2822880, Note_on_c, 4, 59, 0
6, 2822880, Note_on_c, 4, 57, 100
6, 2823360, Note_on_c, 4, 57, 0
6, 2823360, Note_on_c, 4, 55, 100
6, 2823840, Note_on_c, 4, 55, 0
6, 2823840, Note_on_c, 4, 62, 100
6, 2824320, Note_on_c, 4, 62, 0
6, 2824320, Note_on_c, 4, 50, 100
6, 2824800, Note_on_c, 4, 50, 0
6, 2824800, Note_on_c, 4, 52, 100
6, 2825280, Note_on_c, 4, 52, 0
6, 2825280, Note_on_c, 4, 54, 100
6, 2825760, Note_on_c, 4, 54, 0
6, 2825760, Note_on_c, 4, 55, 100
6, 2826240, Note_on_c, 4, 55, 0
6, 2826240, Note_on_c, 4, 59, 100
6, 2826720, Note_on_c, 4, 59, 0
6, 2826720, Note_on_c, 4, 57, 100
6, 2827200, Note_on_c, 4, 57, 0
6, 2827200, Note_on_c, 4, 55, 100
6, 2827680, Note_on_c, 4, 55, 0
6, 2827680, Note_on_c, 4, 62, 100
6, 2828640, Note_on_c, 4, 62, 0
6, 2829120, Note_on_c, 4, 55, 100
6, 2829600, Note_on_c, 4, 55, 0
6, 2829600, Note_on_c, 4, 54, 100
6, 2830080, Note_on_c, 4, 54, 0
6, 2830080, Note_on_c, 4, 52, 100
6, 2830560, Note_on_c, 4, 52, 0
6, 2830560, Note_on_c, 4, 50, 100
6, 2831040, Note_on_c, 4, 50, 0
6, 2831040, Note_on_c, 4, 47, 100
6, 2831520, Note_on_c, 4, 47, 0
6, 2831520, Note_on_c, 4, 48, 100
6, 2832000, Note_on_c, 4, 48, 0
6, 2832000, Note_on_c, 4, 50, 100
6, 2832480, Note_on_c, 4, 50, 0
6, 2832480, Note_on_c, 4, 43, 100
6, 2832960, Note_on_c, 4, 43, 0
6, 2832960, Note_on_c, 4, 55, 100
6, 2833440, Note_on_c, 4, 55, 0
6, 2833440, Note_on_c, 4, 54, 100
6, 2833920, Note_on_c, 4, 54, 0
6, 2833920, Note_on_c, 4, 52, 100
6, 2834400, Note_on_c, 4, 52, 0
6, 2834400, Note_on_c, 4, 50, 100
6, 2834880, Note_on_c, 4, 50, 0
6, 2834880, Note_on_c, 4, 47, 100
6, 2835360, Note_on_c, 4, 47, 0
6, 2835360, Note_on_c, 4, 48, 100
6, 2835840, Note_on_c, 4, 48, 0
6, 2835840, Note_on_c, 4, 50, 100
6, 2836320, Note_on_c, 4, 50, 0
6, 2836320, Note_on_c, 4, 43, 100
6, 2836800, Note_on_c, 4, 43, 0
6, 2836800, Note_on_c, 4, 55, 100
6, 2837280, Note_on_c, 4, 55, 0
6, 2837280, Note_on_c, 4, 54, 100
6, 2837760, Note_on_c, 4, 54, 0
6, 2837760, Note_on_c, 4, 52, 100
6, 2838240, Note_on_c, 4, 52, 0
6, 2838240, Note_on_c, 4, 50, 100
6, 2838720, Note_on_c, 4, 50, 0
6, 2838720, Note_on_c, 4, 47, 100
6, 2839200, Note_on_c, 4, 47, 0
6, 2839200, Note_on_c, 4, 48, 100
6, 2839680, Note_on_c, 4, 48, 0
6, 2839680, Note_on_c, 4, 50, 100
6, 2840160, Note_on_c, 4, 50, 0
6, 2840160, Note_on_c, 4, 43, 100
6, 2841120, Note_on_c, 4, 43, 0
6, 2841600, Note_on_c, 4, 50, 100
6, 2842080, Note_on_c, 4, 50, 0
6, 2842080, Note_on_c, 4, 52, 100
6, 2842560, Note_on_c, 4, 52, 0
6, 2842560, Note_on_c, 4, 54, 100
6, 2843040, Note_on_c, 4, 54, 0
6, 2843040, Note_on_c, 4, 55, 100
6, 2843520, Note_on_c, 4, 55, 0
6, 2843520, Note_on_c, 4, 59, 100
6, 2844000, Note_on_c, 4, 59, 0
6, 2844000, Note_on_c, 4, 57, 100
6, 2844480, Note_on_c, 4, 57, 0
6, 2844480, Note_on_c, 4, 55, 100
6, 2844960, Note_on_c, 4, 55, 0
6, 2844960, Note_on_c, 4, 62, 100
6, 2845440, Note_on_c, 4, 62, 0
6, 2845440, Note_on_c, 4, 50, 100
6, 2845920, Note_on_c, 4, 50, 0
6, 2845920, Note_on_c, 4, 52, 100
6, 2846400, Note_on_c, 4, 52, 0
6, 2846400, Note_on_c, 4, 54, 100
6, 2846880, Note_on_c, 4, 54, 0
6, 2846880, Note_on_c, 4, 55, 100
6, 2847360, Note_on_c, 4, 55, 0
6, 2847360, Note_on_c, 4, 59, 100
6, 2847840, Note_on_c, 4, 59, 0
6, 2847840, Note_on_c, 4, 57, 100
6, 2848320, Note_on_c, 4, 57, 0
6, 2848320, Note_on_c, 4, 55, 100
6, 2848800, Note_on_c, 4, 55, 0
6, 2848800, Note_on_c, 4, 62, 100
6, 2849280, Note_on_c, 4, 62, 0
6, 2849280, Note_on_c, 4, 50, 100
6, 2849760, Note_on_c, 4, 50, 0
6, 2849760, Note_on_c, 4, 52, 100
6, 2850240, Note_on_c, 4, 52, 0
6, 2850240, Note_on_c, 4, 54, 100
6, 2850720, Note_on_c, 4, 54, 0
6, 2850720, Note_on_c, 4, 55, 100
6, 2851680, Note_on_c, 4, 55, 0
6, 2854080, Note_on_c, 4, 50, 100
6, 2854560, Note_on_c, 4, 50, 0
6, 2854560, Note_on_c, 4, 52, 100
6, 2855040, Note_on_c, 4, 52, 0
6, 2855040, Note_on_c, 4, 54, 100
6, 2855520, Note_on_c, 4, 54, 0
6, 2855520, Note_on_c, 4, 55, 100
6, 2856000, Note_on_c, 4, 55, 0
6, 2856000, Note_on_c, 4, 59, 100
6, 2856480, Note_on_c, 4, 59, 0
6, 2856480, Note_on_c, 4, 57, 100
6, 2856960, Note_on_c, 4, 57, 0
6, 2856960, Note_on_c, 4, 55, 100
6, 2857440, Note_on_c, 4, 55, 0
6, 2857440, Note_on_c, 4, 62, 100
6, 2857920, Note_on_c, 4, 62, 0
6, 2857920, Note_on_c, 4, 50, 100
6, 2858400, Note_on_c, 4, 50, 0
6, 2858400, Note_on_c, 4, 52, 100
6, 2858880, Note_on_c, 4, 52, 0
6, 2858880, Note_on_c, 4, 54, 100
6, 2859360, Note_on_c, 4, 54, 0
6, 2859360, Note_on_c, 4, 55, 100
6, 2859840, Note_on_c, 4, 55, 0
6, 2859840, Note_on_c, 4, 59, 100
6, 2860320, Note_on_c, 4, 59, 0
6, 2860320, Note_on_c, 4, 57, 100
6, 2860800, Note_on_c, 4, 57, 0
6, 2860800, Note_on_c, 4, 55, 100
6, 2861280, Note_on_c, 4, 55, 0
6, 2861280, Note_on_c, 4, 62, 100
6, 2861760, Note_on_c, 4, 62, 0
6, 2861760, Note_on_c, 4, 50, 100
6, 2862240, Note_on_c, 4, 50, 0
6, 2862240, Note_on_c, 4, 52, 100
6, 2862720, Note_on_c, 4, 52, 0
6, 2862720, Note_on_c, 4, 54, 100
6, 2863200, Note_on_c, 4, 54, 0
6, 2863200, Note_on_c, 4, 55, 100
6, 2864160, Note_on_c, 4, 55, 0
6, 2914560, Note_on_c, 4, 55, 100
6, 2915040, Note_on_c, 4, 55, 0
6, 2915040, Note_on_c, 4, 54, 100
6, 2915520, Note_on_c, 4, 54, 0
6, 2915520, Note_on_c, 4, 52, 100
6, 2916000, Note_on_c, 4, 52, 0
6, 2916000, Note_on_c, 4, 50, 100
6, 2916480, Note_on_c, 4, 50, 0
6, 2916480, Note_on_c, 4, 47, 100
6, 2916960, Note_on_c, 4, 47, 0
6, 2916960, Note_on_c, 4, 48, 100
6, 2917440, Note_on_c, 4, 48, 0
6, 2917440, Note_on_c, 4, 50, 100
6, 2917920, Note_on_c, 4, 50, 0
6, 2917920, Note_on_c, 4, 43, 100
6, 2918400, Note_on_c, 4, 43, 0
6, 2918400, Note_on_c, 4, 55, 100
6, 2918880, Note_on_c, 4, 55, 0
6, 2918880, Note_on_c, 4, 54, 100
6, 2919360, Note_on_c, 4, 54, 0
6, 2919360, Note_on_c, 4, 52, 100
6, 2919840, Note_on_c, 4, 52, 0
6, 2919840, Note_on_c, 4, 50, 100
6, 2920320, Note_on_c, 4, 50, 0
6, 2920320, Note_on_c, 4, 47, 100
6, 2920800, Note_on_c, 4, 47, 0
6, 2920800, Note_on_c, 4, 48, 100
6, 2921280, Note_on_c, 4, 48, 0
6, 2921280, Note_on_c, 4, 50, 100
6, 2921760, Note_on_c, 4, 50, 0
6, 2921760, Note_on_c, 4, 43, 100
6, 2922240, Note_on_c, 4, 43, 0
6, 2922240, Note_on_c, 4, 55, 100
6, 2922720, Note_on_c, 4, 55, 0
6, 2922720, Note_on_c, 4, 54, 100
6, 2923200, Note_on_c, 4, 54, 0
6, 2923200, Note_on_c, 4, 52, 100
6, 2923680, Note_on_c, 4, 52, 0
6, 2923680, Note_on_c, 4, 50, 100
6, 2924160, Note_on_c, 4, 50, 0
6, 2924160, Note_on_c, 4, 47, 100
6, 2924640, Note_on_c, 4, 47, 0
6, 2924640, Note_on_c, 4, 48, 100
6, 2925120, Note_on_c, 4, 48, 0
6, 2925120, Note_on_c, 4, 50, 100
6, 2925600, Note_on_c, 4, 50, 0
6, 2925600, Note_on_c, 4, 43, 100
6, 2926560, Note_on_c, 4, 43, 0
6, 2927280, Note_on_c, 4, 59, 100
6, 2927520, Note_on_c, 4, 59, 0
6, 2927520, Note_on_c, 4, 61, 100
6, 2927760, Note_on_c, 4, 61, 0
6, 2927760, Note_on_c, 4, 63, 100
6, 2928000, Note_on_c, 4, 63, 0
6, 2928000, Note_on_c, 4, 64, 100
6, 2928240, Note_on_c, 4, 64, 0
6, 2928240, Note_on_c, 4, 59, 100
6, 2928360, Note_on_c, 4, 59, 0
6, 2928360, Note_on_c, 4, 61, 100
6, 2928480, Note_on_c, 4, 61, 0
6, 2928480, Note_on_c, 4, 62, 100
6, 2928720, Note_on_c, 4, 62, 0
6, 2928720, Note_on_c, 4, 57, 100
6, 2928960, Note_on_c, 4, 57, 0
6, 2928960, Note_on_c, 4, 59, 100
6, 2929080, Note_on_c, 4, 59, 0
6, 2929080, Note_on_c, 4, 60, 100
6, 2929200, Note_on_c, 4, 60, 0
6, 2929200, Note_on_c, 4, 59, 100
6, 2929320, Note_on_c, 4, 59, 0
6, 2929320, Note_on_c, 4, 57, 100
6, 2929440, Note_on_c, 4, 57, 0
6, 2929440, Note_on_c, 4, 55, 100
6, 2929920, Note_on_c, 4, 55, 0
6, 2930160, Note_on_c, 4, 50, 100
6, 2930520, Note_on_c, 4, 50, 0
6, 2930520, Note_on_c, 4, 62, 100
6, 2930760, Note_on_c, 4, 62, 0
6, 2930760, Note_on_c, 4, 60, 100
6, 2930880, Note_on_c, 4, 60, 0
6, 2930880, Note_on_c, 4, 59, 100
6, 2931000, Note_on_c, 4, 59, 0
6, 2931000, Note_on_c, 4, 57, 100
6, 2931120, Note_on_c, 4, 57, 0
6, 2931120, Note_on_c, 4, 59, 100
6, 2931360, Note_on_c, 4, 59, 0
6, 2931360, Note_on_c, 4, 61, 100
6, 2931600, Note_on_c, 4, 61, 0
6, 2931600, Note_on_c, 4, 63, 100
6, 2931840, Note_on_c, 4, 63, 0
6, 2931840, Note_on_c, 4, 64, 100
6, 2932080, Note_on_c, 4, 64, 0
6, 2932080, Note_on_c, 4, 59, 100
6, 2932200, Note_on_c, 4, 59, 0
6, 2932200, Note_on_c, 4, 61, 100
6, 2932320, Note_on_c, 4, 61, 0
6, 2932320, Note_on_c, 4, 62, 100
6, 2932560, Note_on_c, 4, 62, 0
6, 2932560, Note_on_c, 4, 57, 100
6, 2932800, Note_on_c, 4, 57, 0
6, 2932800, Note_on_c, 4, 59, 100
6, 2932920, Note_on_c, 4, 59, 0
6, 2932920, Note_on_c, 4, 60, 100
6, 2933040, Note_on_c, 4, 60, 0
6, 2933040, Note_on_c, 4, 59, 100
6, 2933160, Note_on_c, 4, 59, 0
6, 2933160, Note_on_c, 4, 57, 100
6, 2933280, Note_on_c, 4, 57, 0
6, 2933280, Note_on_c, 4, 55, 100
6, 2933760, Note_on_c, 4, 55, 0
6, 2934000, Note_on_c, 4, 50, 100
6, 2934360, Note_on_c, 4, 50, 0
6, 2934360, Note_on_c, 4, 62, 100
6, 2934600, Note_on_c, 4, 62, 0
6, 2934600, Note_on_c, 4, 60, 100
6, 2934720, Note_on_c, 4, 60, 0
6, 2934720, Note_on_c, 4, 59, 100
6, 2934840, Note_on_c, 4, 59, 0
6, 2934840, Note_on_c, 4, 57, 100
6, 2934960, Note_on_c, 4, 57, 0
6, 2934960, Note_on_c, 4, 59, 100
6, 2935200, Note_on_c, 4, 59, 0
6, 2935200, Note_on_c, 4, 61, 100
6, 2935440, Note_on_c, 4, 61, 0
6, 2935440, Note_on_c, 4, 63, 100
6, 2935680, Note_on_c, 4, 63, 0
6, 2935680, Note_on_c, 4, 64, 100
6, 2935920, Note_on_c, 4, 64, 0
6, 2935920, Note_on_c, 4, 59, 100
6, 2936040, Note_on_c, 4, 59, 0
6, 2936040, Note_on_c, 4, 61, 100
6, 2936160, Note_on_c, 4, 61, 0
6, 2936160, Note_on_c, 4, 62, 100
6, 2936400, Note_on_c, 4, 62, 0
6, 2936400, Note_on_c, 4, 57, 100
6, 2936640, Note_on_c, 4, 57, 0
6, 2936640, Note_on_c, 4, 59, 100
6, 2936760, Note_on_c, 4, 59, 0
6, 2936760, Note_on_c, 4, 60, 100
6, 2936880, Note_on_c, 4, 60, 0
6, 2936880, Note_on_c, 4, 59, 100
6, 2937000, Note_on_c, 4, 59, 0
6, 2937000, Note_on_c, 4, 57, 100
6, 2937120, Note_on_c, 4, 57, 0
6, 2937120, Note_on_c, 4, 55, 100
6, 2937600, Note_on_c, 4, 55, 0
6, 2937840, Note_on_c, 4, 50, 100
6, 2939040, Note_on_c, 4, 50, 0
6, 2940240, Note_on_c, 4, 67, 100
6, 2940480, Note_on_c, 4, 67, 0
6, 2940480, Note_on_c, 4, 66, 100
6, 2940720, Note_on_c, 4, 66, 0
6, 2940720, Note_on_c, 4, 64, 100
6, 2940960, Note_on_c, 4, 64, 0
6, 2940960, Note_on_c, 4, 62, 100
6, 2941200, Note_on_c, 4, 62, 0
6, 2941200, Note_on_c, 4, 59, 100
6, 2941440, Note_on_c, 4, 59, 0
6, 2941440, Note_on_c, 4, 61, 100
6, 2941680, Note_on_c, 4, 61, 0
6, 2941680, Note_on_c, 4, 62, 100
6, 2941920, Note_on_c, 4, 62, 0
6, 2941920, Note_on_c, 4, 55, 100
6, 2942160, Note_on_c, 4, 55, 0
6, 2942160, Note_on_c, 4, 67, 100
6, 2942400, Note_on_c, 4, 67, 0
6, 2942400, Note_on_c, 4, 61, 100
6, 2942880, Note_on_c, 4, 61, 0
6, 2942880, Note_on_c, 4, 62, 100
6, 2943360, Note_on_c, 4, 62, 0
6, 2944080, Note_on_c, 4, 59, 100
6, 2944320, Note_on_c, 4, 59, 0
6, 2944320, Note_on_c, 4, 60, 100
6, 2944560, Note_on_c, 4, 60, 0
6, 2944560, Note_on_c, 4, 62, 100
6, 2944800, Note_on_c, 4, 62, 0
6, 2944800, Note_on_c, 4, 64, 100
6, 2945040, Note_on_c, 4, 64, 0
6, 2945040, Note_on_c, 4, 67, 100
6, 2945280, Note_on_c, 4, 67, 0
6, 2945280, Note_on_c, 4, 66, 100
6, 2945520, Note_on_c, 4, 66, 0
6, 2945520, Note_on_c, 4, 64, 100
6, 2945760, Note_on_c, 4, 64, 0
6, 2945760, Note_on_c, 4, 62, 100
6, 2946480, Note_on_c, 4, 62, 0
6, 2946480, Note_on_c, 4, 60, 100
6, 2946720, Note_on_c, 4, 60, 0
6, 2946720, Note_on_c, 4, 59, 100
6, 2947200, Note_on_c, 4, 59, 0
6, 2947920, Note_on_c, 4, 67, 100
6, 2948160, Note_on_c, 4, 67, 0
6, 2948160, Note_on_c, 4, 66, 100
6, 2948400, Note_on_c, 4, 66, 0
6, 2948400, Note_on_c, 4, 64, 100
6, 2948640, Note_on_c, 4, 64, 0
6, 2948640, Note_on_c, 4, 62, 100
6, 2948880, Note_on_c, 4, 62, 0
6, 2948880, Note_on_c, 4, 59, 100
6, 2949120, Note_on_c, 4, 59, 0
6, 2949120, Note_on_c, 4, 61, 100
6, 2949360, Note_on_c, 4, 61, 0
6, 2949360, Note_on_c, 4, 62, 100
6, 2949600, Note_on_c, 4, 62, 0
6, 2949600, Note_on_c, 4, 55, 100
6, 2949840, Note_on_c, 4, 55, 0
6, 2949840, Note_on_c, 4, 67, 100
6, 2950080, Note_on_c, 4, 67, 0
6, 2950080, Note_on_c, 4, 61, 100
6, 2950560, Note_on_c, 4, 61, 0
6, 2950560, Note_on_c, 4, 62, 100
6, 2951040, Note_on_c, 4, 62, 0
6, 2951760, Note_on_c, 4, 59, 100
6, 2952000, Note_on_c, 4, 59, 0
6, 2952000, Note_on_c, 4, 60, 100
6, 2952240, Note_on_c, 4, 60, 0
6, 2952240, Note_on_c, 4, 62, 100
6, 2952480, Note_on_c, 4, 62, 0
6, 2952480, Note_on_c, 4, 64, 100
6, 2952720, Note_on_c, 4, 64, 0
6, 2952720, Note_on_c, 4, 67, 100
6, 2952960, Note_on_c, 4, 67, 0
6, 2952960, Note_on_c, 4, 66, 100
6, 2953200, Note_on_c, 4, 66, 0
6, 2953200, Note_on_c, 4, 64, 100
6, 2953440, Note_on_c, 4, 64, 0
6, 2953440, Note_on_c, 4, 62, 100
6, 2954160, Note_on_c, 4, 62, 0
6, 2954160, Note_on_c, 4, 60, 100
6, 2954400, Note_on_c, 4, 60, 0
6, 2954400, Note_on_c, 4, 59, 100
6, 2954880, Note_on_c, 4, 59, 0
6, 2955600, Note_on_c, 4, 67, 100
6, 2955840, Note_on_c, 4, 67, 0
6, 2955840, Note_on_c, 4, 66, 100
6, 2956080, Note_on_c, 4, 66, 0
6, 2956080, Note_on_c, 4, 64, 100
6, 2956320, Note_on_c, 4, 64, 0
6, 2956320, Note_on_c, 4, 62, 100
6, 2956560, Note_on_c, 4, 62, 0
6, 2956560, Note_on_c, 4, 59, 100
6, 2956800, Note_on_c, 4, 59, 0
6, 2956800, Note_on_c, 4, 61, 100
6, 2957040, Note_on_c, 4, 61, 0
6, 2957040, Note_on_c, 4, 62, 100
6, 2957280, Note_on_c, 4, 62, 0
6, 2957280, Note_on_c, 4, 55, 100
6, 2957520, Note_on_c, 4, 55, 0
6, 2957520, Note_on_c, 4, 67, 100
6, 2957760, Note_on_c, 4, 67, 0
6, 2957760, Note_on_c, 4, 61, 100
6, 2958240, Note_on_c, 4, 61, 0
6, 2958240, Note_on_c, 4, 62, 100
6, 2960160, Note_on_c, 4, 62, 0
6, 2960160, Note_on_c, 4, 55, 100
6, 2961120, Note_on_c, 4, 55, 0
6, 2961120, Note_on_c, 4, 57, 100
6, 2961600, Note_on_c, 4, 57, 0
6, 2961600, Note_on_c, 4, 60, 100
6, 2962080, Note_on_c, 4, 60, 0
6, 2962080, Note_on_c, 4, 59, 100
6, 2963040, Note_on_c, 4, 59, 0
6, 2963040, Note_on_c, 4, 57, 100
6, 2964000, Note_on_c, 4, 57, 0
6, 2964000, Note_on_c, 4, 55, 100
6, 2964960, Note_on_c, 4, 55, 0
6, 2964960, Note_on_c, 4, 57, 100
6, 2965440, Note_on_c, 4, 57, 0
6, 2965440, Note_on_c, 4, 60, 100
6, 2965920, Note_on_c, 4, 60, 0
6, 2965920, Note_on_c, 4, 59, 100
6, 2966880, Note_on_c, 4, 59, 0
6, 2966880, Note_on_c, 4, 57, 100
6, 2967840, Note_on_c, 4, 57, 0
6, 2967840, Note_on_c, 4, 55, 100
6, 2968800, Note_on_c, 4, 55, 0
6, 2968800, Note_on_c, 4, 57, 100
6, 2969280, Note_on_c, 4, 57, 0
6, 2969280, Note_on_c, 4, 60, 100
6, 2969760, Note_on_c, 4, 60, 0
6, 2969760, Note_on_c, 4, 59, 100
6, 2970720, Note_on_c, 4, 59, 0
6, 2970720, Note_on_c, 4, 57, 100
6, 2971680, Note_on_c, 4, 57, 0
6, 2971680, Note_on_c, 4, 55, 100
6, 2973600, Note_on_c, 4, 55, 0
6, 2976000, Note_on_c, 4, 57, 100
6, 2976480, Note_on_c, 4, 57, 0
6, 2976480, Note_on_c, 4, 59, 100
6, 2976960, Note_on_c, 4, 59, 0
6, 2976960, Note_on_c, 4, 61, 100
6, 2977440, Note_on_c, 4, 61, 0
6, 2977440, Note_on_c, 4, 62, 100
6, 2977920, Note_on_c, 4, 62, 0
6, 2977920, Note_on_c, 4, 66, 100
6, 2978400, Note_on_c, 4, 66, 0
6, 2978400, Note_on_c, 4, 64, 100
6, 2978880, Note_on_c, 4, 64, 0
6, 2978880, Note_on_c, 4, 62, 100
6, 2979360, Note_on_c, 4, 62, 0
6, 2979360, Note_on_c, 4, 69, 100
6, 2979840, Note_on_c, 4, 69, 0
6, 2979840, Note_on_c, 4, 67, 100
6, 2980320, Note_on_c, 4, 67, 0
6, 2980320, Note_on_c, 4, 66, 100
6, 2980800, Note_on_c, 4, 66, 0
6, 2980800, Note_on_c, 4, 74, 100
6, 2981280, Note_on_c, 4, 74, 0
6, 2981760, Note_on_c, 4, 76, 100
6, 2982000, Note_on_c, 4, 76, 0
6, 2982000, Note_on_c, 4, 78, 100
6, 2982240, Note_on_c, 4, 78, 0
6, 2982240, Note_on_c, 4, 79, 100
6, 2982720, Note_on_c, 4, 79, 0
6, 2982720, Note_on_c, 4, 67, 100
6, 2983680, Note_on_c, 4, 67, 0
6, 2983680, Note_on_c, 4, 57, 100
6, 2984160, Note_on_c, 4, 57, 0
6, 2984160, Note_on_c, 4, 59, 100
6, 2984640, Note_on_c, 4, 59, 0
6, 2984640, Note_on_c, 4, 61, 100
6, 2985120, Note_on_c, 4, 61, 0
6, 2985120, Note_on_c, 4, 62, 100
6, 2985600, Note_on_c, 4, 62, 0
6, 2985600, Note_on_c, 4, 66, 100
6, 2986080, Note_on_c, 4, 66, 0
6, 2986080, Note_on_c, 4, 64, 100
6, 2986560, Note_on_c, 4, 64, 0
6, 2986560, Note_on_c, 4, 62, 100
6, 2987040, Note_on_c, 4, 62, 0
6, 2987040, Note_on_c, 4, 69, 100
6, 2987520, Note_on_c, 4, 69, 0
6, 2987520, Note_on_c, 4, 67, 100
6, 2988000, Note_on_c, 4, 67, 0
6, 2988000, Note_on_c, 4, 66, 100
6, 2988480, Note_on_c, 4, 66, 0
6, 2988480, Note_on_c, 4, 74, 100
6, 2988960, Note_on_c, 4, 74, 0
6, 2989440, Note_on_c, 4, 76, 100
6, 2989680, Note_on_c, 4, 76, 0
6, 2989680, Note_on_c, 4, 78, 100
6, 2989920, Note_on_c, 4, 78, 0
6, 2989920, Note_on_c, 4, 79, 100
6, 2990400, Note_on_c, 4, 79, 0
6, 2990400, Note_on_c, 4, 67, 100
6, 2991360, Note_on_c, 4, 67, 0
6, 2991360, Note_on_c, 4, 57, 100
6, 2991840, Note_on_c, 4, 57, 0
6, 2991840, Note_on_c, 4, 59, 100
6, 2992320, Note_on_c, 4, 59, 0
6, 2992320, Note_on_c, 4, 61, 100
6, 2992800, Note_on_c, 4, 61, 0
6, 2992800, Note_on_c, 4, 62, 100
6, 2993280, Note_on_c, 4, 62, 0
6, 2993280, Note_on_c, 4, 66, 100
6, 2993760, Note_on_c, 4, 66, 0
6, 2993760, Note_on_c, 4, 64, 100
6, 2994240, Note_on_c, 4, 64, 0
6, 2994240, Note_on_c, 4, 62, 100
6, 2994720, Note_on_c, 4, 62, 0
6, 2994720, Note_on_c, 4, 69, 100
6, 2995200, Note_on_c, 4, 69, 0
6, 2995200, Note_on_c, 4, 67, 100
6, 2995680, Note_on_c, 4, 67, 0
6, 2995680, Note_on_c, 4, 66, 100
6, 2996160, Note_on_c, 4, 66, 0
6, 2996160, Note_on_c, 4, 74, 100
6, 2996640, Note_on_c, 4, 74, 0
6, 2996640, Note_on_c, 4, 67, 100
6, 2998560, Note_on_c, 4, 67, 0
6, 2998560, End_track
7, 0, Start_track
7, 0, MIDI_port, 0
7, 0, Title_t, "--------------------------------------"
7, 0, Program_c, 5, 6
7, 0, Control_c, 5, 7, 100
7, 0, Control_c, 5, 10, 54
7, 184320, Note_on_c, 5, 55, 100
7, 184560, Note_on_c, 5, 55, 0
7, 184560, Note_on_c, 5, 54, 100
7, 184800, Note_on_c, 5, 54, 0
7, 184800, Note_on_c, 5, 55, 100
7, 185040, Note_on_c, 5, 55, 0
7, 185040, Note_on_c, 5, 52, 100
7, 185280, Note_on_c, 5, 52, 0
7, 185280, Note_on_c, 5, 54, 100
7, 185520, Note_on_c, 5, 54, 0
7, 185520, Note_on_c, 5, 52, 100
7, 185760, Note_on_c, 5, 52, 0
7, 185760, Note_on_c, 5, 54, 100
7, 186000, Note_on_c, 5, 54, 0
7, 186000, Note_on_c, 5, 50, 100
7, 186240, Note_on_c, 5, 50, 0
7, 186240, Note_on_c, 5, 52, 100
7, 186480, Note_on_c, 5, 52, 0
7, 186480, Note_on_c, 5, 50, 100
7, 186720, Note_on_c, 5, 50, 0
7, 186720, Note_on_c, 5, 52, 100
7, 186960, Note_on_c, 5, 52, 0
7, 186960, Note_on_c, 5, 48, 100
7, 187200, Note_on_c, 5, 48, 0
7, 187200, Note_on_c, 5, 50, 100
7, 187440, Note_on_c, 5, 50, 0
7, 187440, Note_on_c, 5, 38, 100
7, 187680, Note_on_c, 5, 38, 0
7, 187680, Note_on_c, 5, 50, 100
7, 187800, Note_on_c, 5, 50, 0
7, 187800, Note_on_c, 5, 48, 100
7, 187920, Note_on_c, 5, 48, 0
7, 187920, Note_on_c, 5, 47, 100
7, 188040, Note_on_c, 5, 47, 0
7, 188040, Note_on_c, 5, 45, 100
7, 188160, Note_on_c, 5, 45, 0
7, 188160, Note_on_c, 5, 47, 100
7, 188400, Note_on_c, 5, 47, 0
7, 188400, Note_on_c, 5, 45, 100
7, 188640, Note_on_c, 5, 45, 0
7, 188640, Note_on_c, 5, 47, 100
7, 188880, Note_on_c, 5, 47, 0
7, 188880, Note_on_c, 5, 43, 100
7, 189120, Note_on_c, 5, 43, 0
7, 189120, Note_on_c, 5, 48, 100
7, 189360, Note_on_c, 5, 48, 0
7, 189360, Note_on_c, 5, 47, 100
7, 189600, Note_on_c, 5, 47, 0
7, 189600, Note_on_c, 5, 48, 100
7, 189840, Note_on_c, 5, 48, 0
7, 189840, Note_on_c, 5, 45, 100
7, 190080, Note_on_c, 5, 45, 0
7, 190080, Note_on_c, 5, 50, 100
7, 190320, Note_on_c, 5, 50, 0
7, 190320, Note_on_c, 5, 48, 100
7, 190560, Note_on_c, 5, 48, 0
7, 190560, Note_on_c, 5, 50, 100
7, 190800, Note_on_c, 5, 50, 0
7, 190800, Note_on_c, 5, 38, 100
7, 191040, Note_on_c, 5, 38, 0
7, 191040, Note_on_c, 5, 43, 100
7, 191280, Note_on_c, 5, 43, 0
7, 191280, Note_on_c, 5, 55, 100
7, 191520, Note_on_c, 5, 55, 0
7, 191520, Note_on_c, 5, 59, 100
7, 191760, Note_on_c, 5, 59, 0
7, 191760, Note_on_c, 5, 62, 100
7, 192000, Note_on_c, 5, 62, 0
7, 192000, Note_on_c, 5, 67, 100
7, 192240, Note_on_c, 5, 67, 0
7, 192240, Note_on_c, 5, 66, 100
7, 192480, Note_on_c, 5, 66, 0
7, 192480, Note_on_c, 5, 67, 100
7, 192720, Note_on_c, 5, 67, 0
7, 192720, Note_on_c, 5, 64, 100
7, 192960, Note_on_c, 5, 64, 0
7, 192960, Note_on_c, 5, 66, 100
7, 193200, Note_on_c, 5, 66, 0
7, 193200, Note_on_c, 5, 64, 100
7, 193440, Note_on_c, 5, 64, 0
7, 193440, Note_on_c, 5, 66, 100
7, 193680, Note_on_c, 5, 66, 0
7, 193680, Note_on_c, 5, 62, 100
7, 193920, Note_on_c, 5, 62, 0
7, 193920, Note_on_c, 5, 64, 100
7, 194160, Note_on_c, 5, 64, 0
7, 194160, Note_on_c, 5, 62, 100
7, 194400, Note_on_c, 5, 62, 0
7, 194400, Note_on_c, 5, 64, 100
7, 194640, Note_on_c, 5, 64, 0
7, 194640, Note_on_c, 5, 59, 100
7, 194880, Note_on_c, 5, 59, 0
7, 194880, Note_on_c, 5, 61, 100
7, 195120, Note_on_c, 5, 61, 0
7, 195120, Note_on_c, 5, 64, 100
7, 195240, Note_on_c, 5, 64, 0
7, 195240, Note_on_c, 5, 62, 100
7, 195360, Note_on_c, 5, 62, 0
7, 195360, Note_on_c, 5, 61, 100
7, 195480, Note_on_c, 5, 61, 0
7, 195480, Note_on_c, 5, 59, 100
7, 195600, Note_on_c, 5, 59, 0
7, 195600, Note_on_c, 5, 57, 100
7, 195720, Note_on_c, 5, 57, 0
7, 195720, Note_on_c, 5, 55, 100
7, 195840, Note_on_c, 5, 55, 0
7, 195840, Note_on_c, 5, 54, 100
7, 196080, Note_on_c, 5, 54, 0
7, 196080, Note_on_c, 5, 52, 100
7, 196320, Note_on_c, 5, 52, 0
7, 196320, Note_on_c, 5, 54, 100
7, 196560, Note_on_c, 5, 54, 0
7, 196560, Note_on_c, 5, 50, 100
7, 196800, Note_on_c, 5, 50, 0
7, 196800, Note_on_c, 5, 55, 100
7, 197040, Note_on_c, 5, 55, 0
7, 197040, Note_on_c, 5, 54, 100
7, 197280, Note_on_c, 5, 54, 0
7, 197280, Note_on_c, 5, 55, 100
7, 197520, Note_on_c, 5, 55, 0
7, 197520, Note_on_c, 5, 52, 100
7, 197760, Note_on_c, 5, 52, 0
7, 197760, Note_on_c, 5, 57, 100
7, 198000, Note_on_c, 5, 57, 0
7, 198000, Note_on_c, 5, 55, 100
7, 198240, Note_on_c, 5, 55, 0
7, 198240, Note_on_c, 5, 57, 100
7, 198480, Note_on_c, 5, 57, 0
7, 198480, Note_on_c, 5, 45, 100
7, 198720, Note_on_c, 5, 45, 0
7, 198720, Note_on_c, 5, 50, 100
7, 198960, Note_on_c, 5, 50, 0
7, 198960, Note_on_c, 5, 62, 100
7, 199080, Note_on_c, 5, 62, 0
7, 199080, Note_on_c, 5, 60, 100
7, 199200, Note_on_c, 5, 60, 0
7, 199200, Note_on_c, 5, 62, 100
7, 199320, Note_on_c, 5, 62, 0
7, 199320, Note_on_c, 5, 60, 100
7, 199440, Note_on_c, 5, 60, 0
7, 199440, Note_on_c, 5, 59, 100
7, 199560, Note_on_c, 5, 59, 0
7, 199560, Note_on_c, 5, 57, 100
7, 199680, Note_on_c, 5, 57, 0
7, 199680, Note_on_c, 5, 55, 100
7, 199920, Note_on_c, 5, 55, 0
7, 199920, Note_on_c, 5, 54, 100
7, 200160, Note_on_c, 5, 54, 0
7, 200160, Note_on_c, 5, 55, 100
7, 200400, Note_on_c, 5, 55, 0
7, 200400, Note_on_c, 5, 52, 100
7, 200640, Note_on_c, 5, 52, 0
7, 200640, Note_on_c, 5, 54, 100
7, 200880, Note_on_c, 5, 54, 0
7, 200880, Note_on_c, 5, 52, 100
7, 201120, Note_on_c, 5, 52, 0
7, 201120, Note_on_c, 5, 54, 100
7, 201360, Note_on_c, 5, 54, 0
7, 201360, Note_on_c, 5, 50, 100
7, 201600, Note_on_c, 5, 50, 0
7, 201600, Note_on_c, 5, 52, 100
7, 201840, Note_on_c, 5, 52, 0
7, 201840, Note_on_c, 5, 50, 100
7, 202080, Note_on_c, 5, 50, 0
7, 202080, Note_on_c, 5, 52, 100
7, 202320, Note_on_c, 5, 52, 0
7, 202320, Note_on_c, 5, 48, 100
7, 202560, Note_on_c, 5, 48, 0
7, 202560, Note_on_c, 5, 50, 100
7, 202800, Note_on_c, 5, 50, 0
7, 202800, Note_on_c, 5, 38, 100
7, 203040, Note_on_c, 5, 38, 0
7, 203040, Note_on_c, 5, 50, 100
7, 203160, Note_on_c, 5, 50, 0
7, 203160, Note_on_c, 5, 48, 100
7, 203280, Note_on_c, 5, 48, 0
7, 203280, Note_on_c, 5, 47, 100
7, 203400, Note_on_c, 5, 47, 0
7, 203400, Note_on_c, 5, 45, 100
7, 203520, Note_on_c, 5, 45, 0
7, 203520, Note_on_c, 5, 47, 100
7, 203760, Note_on_c, 5, 47, 0
7, 203760, Note_on_c, 5, 45, 100
7, 204000, Note_on_c, 5, 45, 0
7, 204000, Note_on_c, 5, 47, 100
7, 204240, Note_on_c, 5, 47, 0
7, 204240, Note_on_c, 5, 43, 100
7, 204480, Note_on_c, 5, 43, 0
7, 204480, Note_on_c, 5, 48, 100
7, 204720, Note_on_c, 5, 48, 0
7, 204720, Note_on_c, 5, 47, 100
7, 204960, Note_on_c, 5, 47, 0
7, 204960, Note_on_c, 5, 48, 100
7, 205200, Note_on_c, 5, 48, 0
7, 205200, Note_on_c, 5, 45, 100
7, 205440, Note_on_c, 5, 45, 0
7, 205440, Note_on_c, 5, 50, 100
7, 205680, Note_on_c, 5, 50, 0
7, 205680, Note_on_c, 5, 48, 100
7, 205920, Note_on_c, 5, 48, 0
7, 205920, Note_on_c, 5, 50, 100
7, 206160, Note_on_c, 5, 50, 0
7, 206160, Note_on_c, 5, 38, 100
7, 206400, Note_on_c, 5, 38, 0
7, 206400, Note_on_c, 5, 43, 100
7, 206640, Note_on_c, 5, 43, 0
7, 206640, Note_on_c, 5, 55, 100
7, 206880, Note_on_c, 5, 55, 0
7, 206880, Note_on_c, 5, 59, 100
7, 207120, Note_on_c, 5, 59, 0
7, 207120, Note_on_c, 5, 62, 100
7, 207360, Note_on_c, 5, 62, 0
7, 207360, Note_on_c, 5, 67, 100
7, 207600, Note_on_c, 5, 67, 0
7, 207600, Note_on_c, 5, 66, 100
7, 207840, Note_on_c, 5, 66, 0
7, 207840, Note_on_c, 5, 67, 100
7, 208080, Note_on_c, 5, 67, 0
7, 208080, Note_on_c, 5, 64, 100
7, 208320, Note_on_c, 5, 64, 0
7, 208320, Note_on_c, 5, 66, 100
7, 208560, Note_on_c, 5, 66, 0
7, 208560, Note_on_c, 5, 64, 100
7, 208800, Note_on_c, 5, 64, 0
7, 208800, Note_on_c, 5, 66, 100
7, 209040, Note_on_c, 5, 66, 0
7, 209040, Note_on_c, 5, 62, 100
7, 209280, Note_on_c, 5, 62, 0
7, 209280, Note_on_c, 5, 64, 100
7, 209520, Note_on_c, 5, 64, 0
7, 209520, Note_on_c, 5, 62, 100
7, 209760, Note_on_c, 5, 62, 0
7, 209760, Note_on_c, 5, 64, 100
7, 210000, Note_on_c, 5, 64, 0
7, 210000, Note_on_c, 5, 59, 100
7, 210240, Note_on_c, 5, 59, 0
7, 210240, Note_on_c, 5, 61, 100
7, 210480, Note_on_c, 5, 61, 0
7, 210480, Note_on_c, 5, 64, 100
7, 210600, Note_on_c, 5, 64, 0
7, 210600, Note_on_c, 5, 62, 100
7, 210720, Note_on_c, 5, 62, 0
7, 210720, Note_on_c, 5, 61, 100
7, 210840, Note_on_c, 5, 61, 0
7, 210840, Note_on_c, 5, 59, 100
7, 210960, Note_on_c, 5, 59, 0
7, 210960, Note_on_c, 5, 57, 100
7, 211080, Note_on_c, 5, 57, 0
7, 211080, Note_on_c, 5, 55, 100
7, 211200, Note_on_c, 5, 55, 0
7, 211200, Note_on_c, 5, 54, 100
7, 211440, Note_on_c, 5, 54, 0
7, 211440, Note_on_c, 5, 52, 100
7, 211680, Note_on_c, 5, 52, 0
7, 211680, Note_on_c, 5, 54, 100
7, 211920, Note_on_c, 5, 54, 0
7, 211920, Note_on_c, 5, 50, 100
7, 212160, Note_on_c, 5, 50, 0
7, 212160, Note_on_c, 5, 55, 100
7, 212400, Note_on_c, 5, 55, 0
7, 212400, Note_on_c, 5, 54, 100
7, 212640, Note_on_c, 5, 54, 0
7, 212640, Note_on_c, 5, 55, 100
7, 212880, Note_on_c, 5, 55, 0
7, 212880, Note_on_c, 5, 52, 100
7, 213120, Note_on_c, 5, 52, 0
7, 213120, Note_on_c, 5, 57, 100
7, 213360, Note_on_c, 5, 57, 0
7, 213360, Note_on_c, 5, 55, 100
7, 213600, Note_on_c, 5, 55, 0
7, 213600, Note_on_c, 5, 57, 100
7, 213840, Note_on_c, 5, 57, 0
7, 213840, Note_on_c, 5, 45, 100
7, 214080, Note_on_c, 5, 45, 0
7, 214080, Note_on_c, 5, 50, 100
7, 214320, Note_on_c, 5, 50, 0
7, 214320, Note_on_c, 5, 45, 100
7, 214560, Note_on_c, 5, 45, 0
7, 214560, Note_on_c, 5, 38, 100
7, 215040, Note_on_c, 5, 38, 0
7, 215040, Note_on_c, 5, 62, 100
7, 215280, Note_on_c, 5, 62, 0
7, 215280, Note_on_c, 5, 61, 100
7, 215520, Note_on_c, 5, 61, 0
7, 215520, Note_on_c, 5, 62, 100
7, 215760, Note_on_c, 5, 62, 0
7, 215760, Note_on_c, 5, 57, 100
7, 216000, Note_on_c, 5, 57, 0
7, 216000, Note_on_c, 5, 59, 100
7, 216240, Note_on_c, 5, 59, 0
7, 216240, Note_on_c, 5, 57, 100
7, 216480, Note_on_c, 5, 57, 0
7, 216480, Note_on_c, 5, 59, 100
7, 216720, Note_on_c, 5, 59, 0
7, 216720, Note_on_c, 5, 55, 100
7, 216960, Note_on_c, 5, 55, 0
7, 216960, Note_on_c, 5, 60, 100
7, 217080, Note_on_c, 5, 60, 0
7, 217080, Note_on_c, 5, 48, 100
7, 217200, Note_on_c, 5, 48, 0
7, 217200, Note_on_c, 5, 47, 100
7, 217320, Note_on_c, 5, 47, 0
7, 217320, Note_on_c, 5, 50, 100
7, 217440, Note_on_c, 5, 50, 0
7, 217440, Note_on_c, 5, 48, 100
7, 217560, Note_on_c, 5, 48, 0
7, 217560, Note_on_c, 5, 47, 100
7, 217680, Note_on_c, 5, 47, 0
7, 217680, Note_on_c, 5, 45, 100
7, 217800, Note_on_c, 5, 45, 0
7, 217800, Note_on_c, 5, 48, 100
7, 217920, Note_on_c, 5, 48, 0
7, 217920, Note_on_c, 5, 47, 100
7, 218040, Note_on_c, 5, 47, 0
7, 218040, Note_on_c, 5, 59, 100
7, 218160, Note_on_c, 5, 59, 0
7, 218160, Note_on_c, 5, 57, 100
7, 218280, Note_on_c, 5, 57, 0
7, 218280, Note_on_c, 5, 60, 100
7, 218400, Note_on_c, 5, 60, 0
7, 218400, Note_on_c, 5, 59, 100
7, 218520, Note_on_c, 5, 59, 0
7, 218520, Note_on_c, 5, 57, 100
7, 218640, Note_on_c, 5, 57, 0
7, 218640, Note_on_c, 5, 55, 100
7, 218760, Note_on_c, 5, 55, 0
7, 218760, Note_on_c, 5, 54, 100
7, 218880, Note_on_c, 5, 54, 0
7, 218880, Note_on_c, 5, 55, 100
7, 219120, Note_on_c, 5, 55, 0
7, 219120, Note_on_c, 5, 54, 100
7, 219360, Note_on_c, 5, 54, 0
7, 219360, Note_on_c, 5, 55, 100
7, 219600, Note_on_c, 5, 55, 0
7, 219600, Note_on_c, 5, 52, 100
7, 219840, Note_on_c, 5, 52, 0
7, 219840, Note_on_c, 5, 57, 100
7, 220080, Note_on_c, 5, 57, 0
7, 220080, Note_on_c, 5, 55, 100
7, 220320, Note_on_c, 5, 55, 0
7, 220320, Note_on_c, 5, 57, 100
7, 220560, Note_on_c, 5, 57, 0
7, 220560, Note_on_c, 5, 54, 100
7, 220800, Note_on_c, 5, 54, 0
7, 220800, Note_on_c, 5, 59, 100
7, 221040, Note_on_c, 5, 59, 0
7, 221040, Note_on_c, 5, 58, 100
7, 221280, Note_on_c, 5, 58, 0
7, 221280, Note_on_c, 5, 59, 100
7, 221520, Note_on_c, 5, 59, 0
7, 221520, Note_on_c, 5, 47, 100
7, 221760, Note_on_c, 5, 47, 0
7, 221760, Note_on_c, 5, 40, 100
7, 221880, Note_on_c, 5, 40, 0
7, 221880, Note_on_c, 5, 52, 100
7, 222000, Note_on_c, 5, 52, 0
7, 222000, Note_on_c, 5, 51, 100
7, 222120, Note_on_c, 5, 51, 0
7, 222120, Note_on_c, 5, 54, 100
7, 222240, Note_on_c, 5, 54, 0
7, 222240, Note_on_c, 5, 52, 100
7, 222360, Note_on_c, 5, 52, 0
7, 222360, Note_on_c, 5, 50, 100
7, 222480, Note_on_c, 5, 50, 0
7, 222480, Note_on_c, 5, 48, 100
7, 222600, Note_on_c, 5, 48, 0
7, 222600, Note_on_c, 5, 47, 100
7, 222720, Note_on_c, 5, 47, 0
7, 222720, Note_on_c, 5, 48, 100
7, 222960, Note_on_c, 5, 48, 0
7, 222960, Note_on_c, 5, 47, 100
7, 223200, Note_on_c, 5, 47, 0
7, 223200, Note_on_c, 5, 48, 100
7, 223440, Note_on_c, 5, 48, 0
7, 223440, Note_on_c, 5, 57, 100
7, 223680, Note_on_c, 5, 57, 0
7, 223680, Note_on_c, 5, 47, 100
7, 223920, Note_on_c, 5, 47, 0
7, 223920, Note_on_c, 5, 45, 100
7, 224160, Note_on_c, 5, 45, 0
7, 224160, Note_on_c, 5, 47, 100
7, 224400, Note_on_c, 5, 47, 0
7, 224400, Note_on_c, 5, 55, 100
7, 224640, Note_on_c, 5, 55, 0
7, 224640, Note_on_c, 5, 45, 100
7, 224880, Note_on_c, 5, 45, 0
7, 224880, Note_on_c, 5, 43, 100
7, 225120, Note_on_c, 5, 43, 0
7, 225120, Note_on_c, 5, 45, 100
7, 225360, Note_on_c, 5, 45, 0
7, 225360, Note_on_c, 5, 55, 100
7, 225600, Note_on_c, 5, 55, 0
7, 225600, Note_on_c, 5, 54, 100
7, 225720, Note_on_c, 5, 54, 0
7, 225720, Note_on_c, 5, 50, 100
7, 225840, Note_on_c, 5, 50, 0
7, 225840, Note_on_c, 5, 48, 100
7, 225960, Note_on_c, 5, 48, 0
7, 225960, Note_on_c, 5, 52, 100
7, 226080, Note_on_c, 5, 52, 0
7, 226080, Note_on_c, 5, 50, 100
7, 226200, Note_on_c, 5, 50, 0
7, 226200, Note_on_c, 5, 48, 100
7, 226320, Note_on_c, 5, 48, 0
7, 226320, Note_on_c, 5, 47, 100
7, 226440, Note_on_c, 5, 47, 0
7, 226440, Note_on_c, 5, 45, 100
7, 226560, Note_on_c, 5, 45, 0
7, 226560, Note_on_c, 5, 43, 100
7, 226680, Note_on_c, 5, 43, 0
7, 226680, Note_on_c, 5, 55, 100
7, 226800, Note_on_c, 5, 55, 0
7, 226800, Note_on_c, 5, 53, 100
7, 226920, Note_on_c, 5, 53, 0
7, 226920, Note_on_c, 5, 57, 100
7, 227040, Note_on_c, 5, 57, 0
7, 227040, Note_on_c, 5, 55, 100
7, 227160, Note_on_c, 5, 55, 0
7, 227160, Note_on_c, 5, 53, 100
7, 227280, Note_on_c, 5, 53, 0
7, 227280, Note_on_c, 5, 52, 100
7, 227400, Note_on_c, 5, 52, 0
7, 227400, Note_on_c, 5, 50, 100
7, 227520, Note_on_c, 5, 50, 0
7, 227520, Note_on_c, 5, 48, 100
7, 227640, Note_on_c, 5, 48, 0
7, 227640, Note_on_c, 5, 60, 100
7, 227760, Note_on_c, 5, 60, 0
7, 227760, Note_on_c, 5, 59, 100
7, 227880, Note_on_c, 5, 59, 0
7, 227880, Note_on_c, 5, 62, 100
7, 228000, Note_on_c, 5, 62, 0
7, 228000, Note_on_c, 5, 60, 100
7, 228120, Note_on_c, 5, 60, 0
7, 228120, Note_on_c, 5, 59, 100
7, 228240, Note_on_c, 5, 59, 0
7, 228240, Note_on_c, 5, 57, 100
7, 228360, Note_on_c, 5, 57, 0
7, 228360, Note_on_c, 5, 55, 100
7, 228480, Note_on_c, 5, 55, 0
7, 228480, Note_on_c, 5, 54, 100
7, 228600, Note_on_c, 5, 54, 0
7, 228600, Note_on_c, 5, 55, 100
7, 228720, Note_on_c, 5, 55, 0
7, 228720, Note_on_c, 5, 54, 100
7, 228840, Note_on_c, 5, 54, 0
7, 228840, Note_on_c, 5, 57, 100
7, 228960, Note_on_c, 5, 57, 0
7, 228960, Note_on_c, 5, 47, 100
7, 229200, Note_on_c, 5, 47, 0
7, 229200, Note_on_c, 5, 50, 100
7, 229440, Note_on_c, 5, 50, 0
7, 229440, Note_on_c, 5, 43, 100
7, 229680, Note_on_c, 5, 43, 0
7, 229680, Note_on_c, 5, 55, 100
7, 229800, Note_on_c, 5, 55, 0
7, 229800, Note_on_c, 5, 54, 100
7, 229920, Note_on_c, 5, 54, 0
7, 229920, Note_on_c, 5, 55, 100
7, 230040, Note_on_c, 5, 55, 0
7, 230040, Note_on_c, 5, 57, 100
7, 230160, Note_on_c, 5, 57, 0
7, 230160, Note_on_c, 5, 59, 100
7, 230280, Note_on_c, 5, 59, 0
7, 230280, Note_on_c, 5, 60, 100
7, 230400, Note_on_c, 5, 60, 0
7, 230400, Note_on_c, 5, 62, 100
7, 230640, Note_on_c, 5, 62, 0
7, 230640, Note_on_c, 5, 61, 100
7, 230880, Note_on_c, 5, 61, 0
7, 230880, Note_on_c, 5, 62, 100
7, 231120, Note_on_c, 5, 62, 0
7, 231120, Note_on_c, 5, 57, 100
7, 231360, Note_on_c, 5, 57, 0
7, 231360, Note_on_c, 5, 59, 100
7, 231600, Note_on_c, 5, 59, 0
7, 231600, Note_on_c, 5, 57, 100
7, 231840, Note_on_c, 5, 57, 0
7, 231840, Note_on_c, 5, 59, 100
7, 232080, Note_on_c, 5, 59, 0
7, 232080, Note_on_c, 5, 55, 100
7, 232320, Note_on_c, 5, 55, 0
7, 232320, Note_on_c, 5, 60, 100
7, 232440, Note_on_c, 5, 60, 0
7, 232440, Note_on_c, 5, 48, 100
7, 232560, Note_on_c, 5, 48, 0
7, 232560, Note_on_c, 5, 47, 100
7, 232680, Note_on_c, 5, 47, 0
7, 232680, Note_on_c, 5, 50, 100
7, 232800, Note_on_c, 5, 50, 0
7, 232800, Note_on_c, 5, 48, 100
7, 232920, Note_on_c, 5, 48, 0
7, 232920, Note_on_c, 5, 47, 100
7, 233040, Note_on_c, 5, 47, 0
7, 233040, Note_on_c, 5, 45, 100
7, 233160, Note_on_c, 5, 45, 0
7, 233160, Note_on_c, 5, 48, 100
7, 233280, Note_on_c, 5, 48, 0
7, 233280, Note_on_c, 5, 47, 100
7, 233400, Note_on_c, 5, 47, 0
7, 233400, Note_on_c, 5, 59, 100
7, 233520, Note_on_c, 5, 59, 0
7, 233520, Note_on_c, 5, 57, 100
7, 233640, Note_on_c, 5, 57, 0
7, 233640, Note_on_c, 5, 60, 100
7, 233760, Note_on_c, 5, 60, 0
7, 233760, Note_on_c, 5, 59, 100
7, 233880, Note_on_c, 5, 59, 0
7, 233880, Note_on_c, 5, 57, 100
7, 234000, Note_on_c, 5, 57, 0
7, 234000, Note_on_c, 5, 55, 100
7, 234120, Note_on_c, 5, 55, 0
7, 234120, Note_on_c, 5, 54, 100
7, 234240, Note_on_c, 5, 54, 0
7, 234240, Note_on_c, 5, 55, 100
7, 234480, Note_on_c, 5, 55, 0
7, 234480, Note_on_c, 5, 54, 100
7, 234720, Note_on_c, 5, 54, 0
7, 234720, Note_on_c, 5, 55, 100
7, 234960, Note_on_c, 5, 55, 0
7, 234960, Note_on_c, 5, 52, 100
7, 235200, Note_on_c, 5, 52, 0
7, 235200, Note_on_c, 5, 57, 100
7, 235440, Note_on_c, 5, 57, 0
7, 235440, Note_on_c, 5, 55, 100
7, 235680, Note_on_c, 5, 55, 0
7, 235680, Note_on_c, 5, 57, 100
7, 235920, Note_on_c, 5, 57, 0
7, 235920, Note_on_c, 5, 54, 100
7, 236160, Note_on_c, 5, 54, 0
7, 236160, Note_on_c, 5, 59, 100
7, 236400, Note_on_c, 5, 59, 0
7, 236400, Note_on_c, 5, 58, 100
7, 236640, Note_on_c, 5, 58, 0
7, 236640, Note_on_c, 5, 59, 100
7, 236880, Note_on_c, 5, 59, 0
7, 236880, Note_on_c, 5, 47, 100
7, 237120, Note_on_c, 5, 47, 0
7, 237120, Note_on_c, 5, 40, 100
7, 237240, Note_on_c, 5, 40, 0
7, 237240, Note_on_c, 5, 52, 100
7, 237360, Note_on_c, 5, 52, 0
7, 237360, Note_on_c, 5, 51, 100
7, 237480, Note_on_c, 5, 51, 0
7, 237480, Note_on_c, 5, 54, 100
7, 237600, Note_on_c, 5, 54, 0
7, 237600, Note_on_c, 5, 52, 100
7, 237720, Note_on_c, 5, 52, 0
7, 237720, Note_on_c, 5, 50, 100
7, 237840, Note_on_c, 5, 50, 0
7, 237840, Note_on_c, 5, 48, 100
7, 237960, Note_on_c, 5, 48, 0
7, 237960, Note_on_c, 5, 47, 100
7, 238080, Note_on_c, 5, 47, 0
7, 238080, Note_on_c, 5, 48, 100
7, 238320, Note_on_c, 5, 48, 0
7, 238320, Note_on_c, 5, 47, 100
7, 238560, Note_on_c, 5, 47, 0
7, 238560, Note_on_c, 5, 48, 100
7, 238800, Note_on_c, 5, 48, 0
7, 238800, Note_on_c, 5, 57, 100
7, 239040, Note_on_c, 5, 57, 0
7, 239040, Note_on_c, 5, 47, 100
7, 239280, Note_on_c, 5, 47, 0
7, 239280, Note_on_c, 5, 45, 100
7, 239520, Note_on_c, 5, 45, 0
7, 239520, Note_on_c, 5, 47, 100
7, 239760, Note_on_c, 5, 47, 0
7, 239760, Note_on_c, 5, 55, 100
7, 240000, Note_on_c, 5, 55, 0
7, 240000, Note_on_c, 5, 45, 100
7, 240240, Note_on_c, 5, 45, 0
7, 240240, Note_on_c, 5, 43, 100
7, 240480, Note_on_c, 5, 43, 0
7, 240480, Note_on_c, 5, 45, 100
7, 240720, Note_on_c, 5, 45, 0
7, 240720, Note_on_c, 5, 55, 100
7, 240960, Note_on_c, 5, 55, 0
7, 240960, Note_on_c, 5, 54, 100
7, 241080, Note_on_c, 5, 54, 0
7, 241080, Note_on_c, 5, 50, 100
7, 241200, Note_on_c, 5, 50, 0
7, 241200, Note_on_c, 5, 48, 100
7, 241320, Note_on_c, 5, 48, 0
7, 241320, Note_on_c, 5, 52, 100
7, 241440, Note_on_c, 5, 52, 0
7, 241440, Note_on_c, 5, 50, 100
7, 241560, Note_on_c, 5, 50, 0
7, 241560, Note_on_c, 5, 48, 100
7, 241680, Note_on_c, 5, 48, 0
7, 241680, Note_on_c, 5, 47, 100
7, 241800, Note_on_c, 5, 47, 0
7, 241800, Note_on_c, 5, 45, 100
7, 241920, Note_on_c, 5, 45, 0
7, 241920, Note_on_c, 5, 43, 100
7, 242040, Note_on_c, 5, 43, 0
7, 242040, Note_on_c, 5, 55, 100
7, 242160, Note_on_c, 5, 55, 0
7, 242160, Note_on_c, 5, 53, 100
7, 242280, Note_on_c, 5, 53, 0
7, 242280, Note_on_c, 5, 57, 100
7, 242400, Note_on_c, 5, 57, 0
7, 242400, Note_on_c, 5, 55, 100
7, 242520, Note_on_c, 5, 55, 0
7, 242520, Note_on_c, 5, 53, 100
7, 242640, Note_on_c, 5, 53, 0
7, 242640, Note_on_c, 5, 52, 100
7, 242760, Note_on_c, 5, 52, 0
7, 242760, Note_on_c, 5, 50, 100
7, 242880, Note_on_c, 5, 50, 0
7, 242880, Note_on_c, 5, 48, 100
7, 243000, Note_on_c, 5, 48, 0
7, 243000, Note_on_c, 5, 60, 100
7, 243120, Note_on_c, 5, 60, 0
7, 243120, Note_on_c, 5, 59, 100
7, 243240, Note_on_c, 5, 59, 0
7, 243240, Note_on_c, 5, 62, 100
7, 243360, Note_on_c, 5, 62, 0
7, 243360, Note_on_c, 5, 60, 100
7, 243480, Note_on_c, 5, 60, 0
7, 243480, Note_on_c, 5, 59, 100
7, 243600, Note_on_c, 5, 59, 0
7, 243600, Note_on_c, 5, 57, 100
7, 243720, Note_on_c, 5, 57, 0
7, 243720, Note_on_c, 5, 55, 100
7, 243840, Note_on_c, 5, 55, 0
7, 243840, Note_on_c, 5, 54, 100
7, 243960, Note_on_c, 5, 54, 0
7, 243960, Note_on_c, 5, 55, 100
7, 244080, Note_on_c, 5, 55, 0
7, 244080, Note_on_c, 5, 54, 100
7, 244200, Note_on_c, 5, 54, 0
7, 244200, Note_on_c, 5, 57, 100
7, 244320, Note_on_c, 5, 57, 0
7, 244320, Note_on_c, 5, 47, 100
7, 244560, Note_on_c, 5, 47, 0
7, 244560, Note_on_c, 5, 50, 100
7, 244800, Note_on_c, 5, 50, 0
7, 244800, Note_on_c, 5, 55, 100
7, 245040, Note_on_c, 5, 55, 0
7, 245040, Note_on_c, 5, 50, 100
7, 245280, Note_on_c, 5, 50, 0
7, 245280, Note_on_c, 5, 43, 100
7, 245760, Note_on_c, 5, 43, 0
7, 245760, Note_on_c, 5, 43, 100
7, 246000, Note_on_c, 5, 43, 0
7, 246000, Note_on_c, 5, 47, 100
7, 246240, Note_on_c, 5, 47, 0
7, 246240, Note_on_c, 5, 50, 100
7, 246480, Note_on_c, 5, 50, 0
7, 246480, Note_on_c, 5, 55, 100
7, 246720, Note_on_c, 5, 55, 0
7, 246720, Note_on_c, 5, 59, 100
7, 246960, Note_on_c, 5, 59, 0
7, 246960, Note_on_c, 5, 52, 100
7, 247200, Note_on_c, 5, 52, 0
7, 247200, Note_on_c, 5, 42, 100
7, 247440, Note_on_c, 5, 42, 0
7, 247440, Note_on_c, 5, 45, 100
7, 247680, Note_on_c, 5, 45, 0
7, 247680, Note_on_c, 5, 50, 100
7, 247920, Note_on_c, 5, 50, 0
7, 247920, Note_on_c, 5, 54, 100
7, 248160, Note_on_c, 5, 54, 0
7, 248160, Note_on_c, 5, 57, 100
7, 248400, Note_on_c, 5, 57, 0
7, 248400, Note_on_c, 5, 50, 100
7, 248640, Note_on_c, 5, 50, 0
7, 248640, Note_on_c, 5, 40, 100
7, 248880, Note_on_c, 5, 40, 0
7, 248880, Note_on_c, 5, 43, 100
7, 249120, Note_on_c, 5, 43, 0
7, 249120, Note_on_c, 5, 47, 100
7, 249360, Note_on_c, 5, 47, 0
7, 249360, Note_on_c, 5, 52, 100
7, 249600, Note_on_c, 5, 52, 0
7, 249600, Note_on_c, 5, 47, 100
7, 249840, Note_on_c, 5, 47, 0
7, 249840, Note_on_c, 5, 49, 100
7, 250080, Note_on_c, 5, 49, 0
7, 250080, Note_on_c, 5, 38, 100
7, 250320, Note_on_c, 5, 38, 0
7, 250320, Note_on_c, 5, 42, 100
7, 250560, Note_on_c, 5, 42, 0
7, 250560, Note_on_c, 5, 45, 100
7, 250800, Note_on_c, 5, 45, 0
7, 250800, Note_on_c, 5, 50, 100
7, 251040, Note_on_c, 5, 50, 0
7, 251040, Note_on_c, 5, 54, 100
7, 251280, Note_on_c, 5, 54, 0
7, 251280, Note_on_c, 5, 45, 100
7, 251520, Note_on_c, 5, 45, 0
7, 251520, Note_on_c, 5, 47, 100
7, 251640, Note_on_c, 5, 47, 0
7, 251640, Note_on_c, 5, 45, 100
7, 251760, Note_on_c, 5, 45, 0
7, 251760, Note_on_c, 5, 47, 100
7, 251880, Note_on_c, 5, 47, 0
7, 251880, Note_on_c, 5, 48, 100
7, 252000, Note_on_c, 5, 48, 0
7, 252000, Note_on_c, 5, 50, 100
7, 252360, Note_on_c, 5, 50, 0
7, 252360, Note_on_c, 5, 43, 100
7, 252480, Note_on_c, 5, 43, 0
7, 252480, Note_on_c, 5, 45, 100
7, 252600, Note_on_c, 5, 45, 0
7, 252600, Note_on_c, 5, 47, 100
7, 252720, Note_on_c, 5, 47, 0
7, 252720, Note_on_c, 5, 48, 100
7, 252840, Note_on_c, 5, 48, 0
7, 252840, Note_on_c, 5, 50, 100
7, 252960, Note_on_c, 5, 50, 0
7, 252960, Note_on_c, 5, 52, 100
7, 253080, Note_on_c, 5, 52, 0
7, 253080, Note_on_c, 5, 50, 100
7, 253200, Note_on_c, 5, 50, 0
7, 253200, Note_on_c, 5, 48, 100
7, 253320, Note_on_c, 5, 48, 0
7, 253320, Note_on_c, 5, 47, 100
7, 253440, Note_on_c, 5, 47, 0
7, 253440, Note_on_c, 5, 48, 100
7, 253560, Note_on_c, 5, 48, 0
7, 253560, Note_on_c, 5, 52, 100
7, 253680, Note_on_c, 5, 52, 0
7, 253680, Note_on_c, 5, 42, 100
7, 253800, Note_on_c, 5, 42, 0
7, 253800, Note_on_c, 5, 45, 100
7, 253920, Note_on_c, 5, 45, 0
7, 253920, Note_on_c, 5, 43, 100
7, 254040, Note_on_c, 5, 43, 0
7, 254040, Note_on_c, 5, 42, 100
7, 254160, Note_on_c, 5, 42, 0
7, 254160, Note_on_c, 5, 40, 100
7, 254280, Note_on_c, 5, 40, 0
7, 254280, Note_on_c, 5, 38, 100
7, 254400, Note_on_c, 5, 38, 0
7, 254400, Note_on_c, 5, 43, 100
7, 254520, Note_on_c, 5, 43, 0
7, 254520, Note_on_c, 5, 42, 100
7, 254640, Note_on_c, 5, 42, 0
7, 254640, Note_on_c, 5, 43, 100
7, 254760, Note_on_c, 5, 43, 0
7, 254760, Note_on_c, 5, 45, 100
7, 254880, Note_on_c, 5, 45, 0
7, 254880, Note_on_c, 5, 47, 100
7, 255000, Note_on_c, 5, 47, 0
7, 255000, Note_on_c, 5, 48, 100
7, 255120, Note_on_c, 5, 48, 0
7, 255120, Note_on_c, 5, 50, 100
7, 255240, Note_on_c, 5, 50, 0
7, 255240, Note_on_c, 5, 52, 100
7, 255360, Note_on_c, 5, 52, 0
7, 255360, Note_on_c, 5, 45, 100
7, 255480, Note_on_c, 5, 45, 0
7, 255480, Note_on_c, 5, 47, 100
7, 255600, Note_on_c, 5, 47, 0
7, 255600, Note_on_c, 5, 48, 100
7, 255720, Note_on_c, 5, 48, 0
7, 255720, Note_on_c, 5, 45, 100
7, 255840, Note_on_c, 5, 45, 0
7, 255840, Note_on_c, 5, 47, 100
7, 255960, Note_on_c, 5, 47, 0
7, 255960, Note_on_c, 5, 45, 100
7, 256080, Note_on_c, 5, 45, 0
7, 256080, Note_on_c, 5, 43, 100
7, 256200, Note_on_c, 5, 43, 0
7, 256200, Note_on_c, 5, 42, 100
7, 256320, Note_on_c, 5, 42, 0
7, 256320, Note_on_c, 5, 43, 100
7, 256680, Note_on_c, 5, 43, 0
7, 256680, Note_on_c, 5, 42, 100
7, 256800, Note_on_c, 5, 42, 0
7, 256800, Note_on_c, 5, 40, 100
7, 256920, Note_on_c, 5, 40, 0
7, 256920, Note_on_c, 5, 38, 100
7, 257040, Note_on_c, 5, 38, 0
7, 257040, Note_on_c, 5, 40, 100
7, 257160, Note_on_c, 5, 40, 0
7, 257160, Note_on_c, 5, 42, 100
7, 257280, Note_on_c, 5, 42, 0
7, 257280, Note_on_c, 5, 43, 100
7, 257400, Note_on_c, 5, 43, 0
7, 257400, Note_on_c, 5, 42, 100
7, 257520, Note_on_c, 5, 42, 0
7, 257520, Note_on_c, 5, 43, 100
7, 257640, Note_on_c, 5, 43, 0
7, 257640, Note_on_c, 5, 45, 100
7, 257760, Note_on_c, 5, 45, 0
7, 257760, Note_on_c, 5, 43, 100
7, 257880, Note_on_c, 5, 43, 0
7, 257880, Note_on_c, 5, 42, 100
7, 258000, Note_on_c, 5, 42, 0
7, 258000, Note_on_c, 5, 40, 100
7, 258120, Note_on_c, 5, 40, 0
7, 258120, Note_on_c, 5, 42, 100
7, 258240, Note_on_c, 5, 42, 0
7, 258240, Note_on_c, 5, 43, 100
7, 258360, Note_on_c, 5, 43, 0
7, 258360, Note_on_c, 5, 40, 100
7, 258480, Note_on_c, 5, 40, 0
7, 258480, Note_on_c, 5, 42, 100
7, 258600, Note_on_c, 5, 42, 0
7, 258600, Note_on_c, 5, 43, 100
7, 258720, Note_on_c, 5, 43, 0
7, 258720, Note_on_c, 5, 45, 100
7, 258840, Note_on_c, 5, 45, 0
7, 258840, Note_on_c, 5, 43, 100
7, 258960, Note_on_c, 5, 43, 0
7, 258960, Note_on_c, 5, 45, 100
7, 259080, Note_on_c, 5, 45, 0
7, 259080, Note_on_c, 5, 47, 100
7, 259200, Note_on_c, 5, 47, 0
7, 259200, Note_on_c, 5, 45, 100
7, 259320, Note_on_c, 5, 45, 0
7, 259320, Note_on_c, 5, 43, 100
7, 259440, Note_on_c, 5, 43, 0
7, 259440, Note_on_c, 5, 42, 100
7, 259560, Note_on_c, 5, 42, 0
7, 259560, Note_on_c, 5, 54, 100
7, 259680, Note_on_c, 5, 54, 0
7, 259680, Note_on_c, 5, 55, 100
7, 259800, Note_on_c, 5, 55, 0
7, 259800, Note_on_c, 5, 54, 100
7, 259920, Note_on_c, 5, 54, 0
7, 259920, Note_on_c, 5, 52, 100
7, 260040, Note_on_c, 5, 52, 0
7, 260040, Note_on_c, 5, 54, 100
7, 260160, Note_on_c, 5, 54, 0
7, 260160, Note_on_c, 5, 47, 100
7, 260280, Note_on_c, 5, 47, 0
7, 260280, Note_on_c, 5, 45, 100
7, 260400, Note_on_c, 5, 45, 0
7, 260400, Note_on_c, 5, 47, 100
7, 260520, Note_on_c, 5, 47, 0
7, 260520, Note_on_c, 5, 48, 100
7, 260640, Note_on_c, 5, 48, 0
7, 260640, Note_on_c, 5, 50, 100
7, 260760, Note_on_c, 5, 50, 0
7, 260760, Note_on_c, 5, 47, 100
7, 260880, Note_on_c, 5, 47, 0
7, 260880, Note_on_c, 5, 49, 100
7, 261000, Note_on_c, 5, 49, 0
7, 261000, Note_on_c, 5, 50, 100
7, 261120, Note_on_c, 5, 50, 0
7, 261120, Note_on_c, 5, 52, 100
7, 261240, Note_on_c, 5, 52, 0
7, 261240, Note_on_c, 5, 50, 100
7, 261360, Note_on_c, 5, 50, 0
7, 261360, Note_on_c, 5, 49, 100
7, 261480, Note_on_c, 5, 49, 0
7, 261480, Note_on_c, 5, 47, 100
7, 261600, Note_on_c, 5, 47, 0
7, 261600, Note_on_c, 5, 45, 100
7, 261720, Note_on_c, 5, 45, 0
7, 261720, Note_on_c, 5, 52, 100
7, 261840, Note_on_c, 5, 52, 0
7, 261840, Note_on_c, 5, 50, 100
7, 261960, Note_on_c, 5, 50, 0
7, 261960, Note_on_c, 5, 49, 100
7, 262080, Note_on_c, 5, 49, 0
7, 262080, Note_on_c, 5, 50, 100
7, 262200, Note_on_c, 5, 50, 0
7, 262200, Note_on_c, 5, 47, 100
7, 262320, Note_on_c, 5, 47, 0
7, 262320, Note_on_c, 5, 49, 100
7, 262440, Note_on_c, 5, 49, 0
7, 262440, Note_on_c, 5, 45, 100
7, 262560, Note_on_c, 5, 45, 0
7, 262560, Note_on_c, 5, 47, 100
7, 262680, Note_on_c, 5, 47, 0
7, 262680, Note_on_c, 5, 49, 100
7, 262800, Note_on_c, 5, 49, 0
7, 262800, Note_on_c, 5, 50, 100
7, 262920, Note_on_c, 5, 50, 0
7, 262920, Note_on_c, 5, 52, 100
7, 263040, Note_on_c, 5, 52, 0
7, 263040, Note_on_c, 5, 54, 100
7, 263160, Note_on_c, 5, 54, 0
7, 263160, Note_on_c, 5, 47, 100
7, 263280, Note_on_c, 5, 47, 0
7, 263280, Note_on_c, 5, 49, 100
7, 263400, Note_on_c, 5, 49, 0
7, 263400, Note_on_c, 5, 50, 100
7, 263520, Note_on_c, 5, 50, 0
7, 263520, Note_on_c, 5, 52, 100
7, 263640, Note_on_c, 5, 52, 0
7, 263640, Note_on_c, 5, 54, 100
7, 263760, Note_on_c, 5, 54, 0
7, 263760, Note_on_c, 5, 55, 100
7, 263880, Note_on_c, 5, 55, 0
7, 263880, Note_on_c, 5, 54, 100
7, 264000, Note_on_c, 5, 54, 0
7, 264000, Note_on_c, 5, 52, 100
7, 264120, Note_on_c, 5, 52, 0
7, 264120, Note_on_c, 5, 50, 100
7, 264240, Note_on_c, 5, 50, 0
7, 264240, Note_on_c, 5, 52, 100
7, 264360, Note_on_c, 5, 52, 0
7, 264360, Note_on_c, 5, 46, 100
7, 264480, Note_on_c, 5, 46, 0
7, 264480, Note_on_c, 5, 47, 100
7, 264600, Note_on_c, 5, 47, 0
7, 264600, Note_on_c, 5, 49, 100
7, 264720, Note_on_c, 5, 49, 0
7, 264720, Note_on_c, 5, 50, 100
7, 264840, Note_on_c, 5, 50, 0
7, 264840, Note_on_c, 5, 49, 100
7, 264960, Note_on_c, 5, 49, 0
7, 264960, Note_on_c, 5, 47, 100
7, 265080, Note_on_c, 5, 47, 0
7, 265080, Note_on_c, 5, 45, 100
7, 265200, Note_on_c, 5, 45, 0
7, 265200, Note_on_c, 5, 43, 100
7, 265320, Note_on_c, 5, 43, 0
7, 265320, Note_on_c, 5, 42, 100
7, 265440, Note_on_c, 5, 42, 0
7, 265440, Note_on_c, 5, 43, 100
7, 265560, Note_on_c, 5, 43, 0
7, 265560, Note_on_c, 5, 47, 100
7, 265680, Note_on_c, 5, 47, 0
7, 265680, Note_on_c, 5, 45, 100
7, 265800, Note_on_c, 5, 45, 0
7, 265800, Note_on_c, 5, 43, 100
7, 265920, Note_on_c, 5, 43, 0
7, 265920, Note_on_c, 5, 42, 100
7, 266040, Note_on_c, 5, 42, 0
7, 266040, Note_on_c, 5, 45, 100
7, 266160, Note_on_c, 5, 45, 0
7, 266160, Note_on_c, 5, 43, 100
7, 266280, Note_on_c, 5, 43, 0
7, 266280, Note_on_c, 5, 42, 100
7, 266400, Note_on_c, 5, 42, 0
7, 266400, Note_on_c, 5, 40, 100
7, 266520, Note_on_c, 5, 40, 0
7, 266520, Note_on_c, 5, 38, 100
7, 266640, Note_on_c, 5, 38, 0
7, 266640, Note_on_c, 5, 43, 100
7, 266880, Note_on_c, 5, 43, 0
7, 266880, Note_on_c, 5, 40, 100
7, 267120, Note_on_c, 5, 40, 0
7, 267120, Note_on_c, 5, 45, 100
7, 267360, Note_on_c, 5, 45, 0
7, 267360, Note_on_c, 5, 38, 100
7, 267480, Note_on_c, 5, 38, 0
7, 267480, Note_on_c, 5, 42, 100
7, 267600, Note_on_c, 5, 42, 0
7, 267600, Note_on_c, 5, 45, 100
7, 267720, Note_on_c, 5, 45, 0
7, 267720, Note_on_c, 5, 50, 100
7, 267840, Note_on_c, 5, 50, 0
7, 267840, Note_on_c, 5, 45, 100
7, 267960, Note_on_c, 5, 45, 0
7, 267960, Note_on_c, 5, 42, 100
7, 268080, Note_on_c, 5, 42, 0
7, 268080, Note_on_c, 5, 38, 100
7, 268800, Note_on_c, 5, 38, 0
7, 268800, Note_on_c, 5, 43, 100
7, 269040, Note_on_c, 5, 43, 0
7, 269040, Note_on_c, 5, 47, 100
7, 269280, Note_on_c, 5, 47, 0
7, 269280, Note_on_c, 5, 50, 100
7, 269520, Note_on_c, 5, 50, 0
7, 269520, Note_on_c, 5, 55, 100
7, 269760, Note_on_c, 5, 55, 0
7, 269760, Note_on_c, 5, 59, 100
7, 270000, Note_on_c, 5, 59, 0
7, 270000, Note_on_c, 5, 52, 100
7, 270240, Note_on_c, 5, 52, 0
7, 270240, Note_on_c, 5, 42, 100
7, 270480, Note_on_c, 5, 42, 0
7, 270480, Note_on_c, 5, 45, 100
7, 270720, Note_on_c, 5, 45, 0
7, 270720, Note_on_c, 5, 50, 100
7, 270960, Note_on_c, 5, 50, 0
7, 270960, Note_on_c, 5, 54, 100
7, 271200, Note_on_c, 5, 54, 0
7, 271200, Note_on_c, 5, 57, 100
7, 271440, Note_on_c, 5, 57, 0
7, 271440, Note_on_c, 5, 50, 100
7, 271680, Note_on_c, 5, 50, 0
7, 271680, Note_on_c, 5, 40, 100
7, 271920, Note_on_c, 5, 40, 0
7, 271920, Note_on_c, 5, 43, 100
7, 272160, Note_on_c, 5, 43, 0
7, 272160, Note_on_c, 5, 47, 100
7, 272400, Note_on_c, 5, 47, 0
7, 272400, Note_on_c, 5, 52, 100
7, 272640, Note_on_c, 5, 52, 0
7, 272640, Note_on_c, 5, 47, 100
7, 272880, Note_on_c, 5, 47, 0
7, 272880, Note_on_c, 5, 49, 100
7, 273120, Note_on_c, 5, 49, 0
7, 273120, Note_on_c, 5, 38, 100
7, 273360, Note_on_c, 5, 38, 0
7, 273360, Note_on_c, 5, 42, 100
7, 273600, Note_on_c, 5, 42, 0
7, 273600, Note_on_c, 5, 45, 100
7, 273840, Note_on_c, 5, 45, 0
7, 273840, Note_on_c, 5, 50, 100
7, 274080, Note_on_c, 5, 50, 0
7, 274080, Note_on_c, 5, 54, 100
7, 274320, Note_on_c, 5, 54, 0
7, 274320, Note_on_c, 5, 45, 100
7, 274560, Note_on_c, 5, 45, 0
7, 274560, Note_on_c, 5, 47, 100
7, 274680, Note_on_c, 5, 47, 0
7, 274680, Note_on_c, 5, 45, 100
7, 274800, Note_on_c, 5, 45, 0
7, 274800, Note_on_c, 5, 47, 100
7, 274920, Note_on_c, 5, 47, 0
7, 274920, Note_on_c, 5, 48, 100
7, 275040, Note_on_c, 5, 48, 0
7, 275040, Note_on_c, 5, 50, 100
7, 275400, Note_on_c, 5, 50, 0
7, 275400, Note_on_c, 5, 43, 100
7, 275520, Note_on_c, 5, 43, 0
7, 275520, Note_on_c, 5, 45, 100
7, 275640, Note_on_c, 5, 45, 0
7, 275640, Note_on_c, 5, 47, 100
7, 275760, Note_on_c, 5, 47, 0
7, 275760, Note_on_c, 5, 48, 100
7, 275880, Note_on_c, 5, 48, 0
7, 275880, Note_on_c, 5, 50, 100
7, 276000, Note_on_c, 5, 50, 0
7, 276000, Note_on_c, 5, 52, 100
7, 276120, Note_on_c, 5, 52, 0
7, 276120, Note_on_c, 5, 50, 100
7, 276240, Note_on_c, 5, 50, 0
7, 276240, Note_on_c, 5, 48, 100
7, 276360, Note_on_c, 5, 48, 0
7, 276360, Note_on_c, 5, 47, 100
7, 276480, Note_on_c, 5, 47, 0
7, 276480, Note_on_c, 5, 48, 100
7, 276600, Note_on_c, 5, 48, 0
7, 276600, Note_on_c, 5, 52, 100
7, 276720, Note_on_c, 5, 52, 0
7, 276720, Note_on_c, 5, 42, 100
7, 276840, Note_on_c, 5, 42, 0
7, 276840, Note_on_c, 5, 45, 100
7, 276960, Note_on_c, 5, 45, 0
7, 276960, Note_on_c, 5, 43, 100
7, 277080, Note_on_c, 5, 43, 0
7, 277080, Note_on_c, 5, 42, 100
7, 277200, Note_on_c, 5, 42, 0
7, 277200, Note_on_c, 5, 40, 100
7, 277320, Note_on_c, 5, 40, 0
7, 277320, Note_on_c, 5, 38, 100
7, 277440, Note_on_c, 5, 38, 0
7, 277440, Note_on_c, 5, 43, 100
7, 277560, Note_on_c, 5, 43, 0
7, 277560, Note_on_c, 5, 42, 100
7, 277680, Note_on_c, 5, 42, 0
7, 277680, Note_on_c, 5, 43, 100
7, 277800, Note_on_c, 5, 43, 0
7, 277800, Note_on_c, 5, 45, 100
7, 277920, Note_on_c, 5, 45, 0
7, 277920, Note_on_c, 5, 47, 100
7, 278040, Note_on_c, 5, 47, 0
7, 278040, Note_on_c, 5, 48, 100
7, 278160, Note_on_c, 5, 48, 0
7, 278160, Note_on_c, 5, 50, 100
7, 278280, Note_on_c, 5, 50, 0
7, 278280, Note_on_c, 5, 52, 100
7, 278400, Note_on_c, 5, 52, 0
7, 278400, Note_on_c, 5, 45, 100
7, 278520, Note_on_c, 5, 45, 0
7, 278520, Note_on_c, 5, 47, 100
7, 278640, Note_on_c, 5, 47, 0
7, 278640, Note_on_c, 5, 48, 100
7, 278760, Note_on_c, 5, 48, 0
7, 278760, Note_on_c, 5, 45, 100
7, 278880, Note_on_c, 5, 45, 0
7, 278880, Note_on_c, 5, 47, 100
7, 279000, Note_on_c, 5, 47, 0
7, 279000, Note_on_c, 5, 45, 100
7, 279120, Note_on_c, 5, 45, 0
7, 279120, Note_on_c, 5, 43, 100
7, 279240, Note_on_c, 5, 43, 0
7, 279240, Note_on_c, 5, 42, 100
7, 279360, Note_on_c, 5, 42, 0
7, 279360, Note_on_c, 5, 43, 100
7, 279720, Note_on_c, 5, 43, 0
7, 279720, Note_on_c, 5, 42, 100
7, 279840, Note_on_c, 5, 42, 0
7, 279840, Note_on_c, 5, 40, 100
7, 279960, Note_on_c, 5, 40, 0
7, 279960, Note_on_c, 5, 38, 100
7, 280080, Note_on_c, 5, 38, 0
7, 280080, Note_on_c, 5, 40, 100
7, 280200, Note_on_c, 5, 40, 0
7, 280200, Note_on_c, 5, 42, 100
7, 280320, Note_on_c, 5, 42, 0
7, 280320, Note_on_c, 5, 43, 100
7, 280440, Note_on_c, 5, 43, 0
7, 280440, Note_on_c, 5, 42, 100
7, 280560, Note_on_c, 5, 42, 0
7, 280560, Note_on_c, 5, 43, 100
7, 280680, Note_on_c, 5, 43, 0
7, 280680, Note_on_c, 5, 45, 100
7, 280800, Note_on_c, 5, 45, 0
7, 280800, Note_on_c, 5, 43, 100
7, 280920, Note_on_c, 5, 43, 0
7, 280920, Note_on_c, 5, 42, 100
7, 281040, Note_on_c, 5, 42, 0
7, 281040, Note_on_c, 5, 40, 100
7, 281160, Note_on_c, 5, 40, 0
7, 281160, Note_on_c, 5, 42, 100
7, 281280, Note_on_c, 5, 42, 0
7, 281280, Note_on_c, 5, 43, 100
7, 281400, Note_on_c, 5, 43, 0
7, 281400, Note_on_c, 5, 40, 100
7, 281520, Note_on_c, 5, 40, 0
7, 281520, Note_on_c, 5, 42, 100
7, 281640, Note_on_c, 5, 42, 0
7, 281640, Note_on_c, 5, 43, 100
7, 281760, Note_on_c, 5, 43, 0
7, 281760, Note_on_c, 5, 45, 100
7, 281880, Note_on_c, 5, 45, 0
7, 281880, Note_on_c, 5, 43, 100
7, 282000, Note_on_c, 5, 43, 0
7, 282000, Note_on_c, 5, 45, 100
7, 282120, Note_on_c, 5, 45, 0
7, 282120, Note_on_c, 5, 47, 100
7, 282240, Note_on_c, 5, 47, 0
7, 282240, Note_on_c, 5, 45, 100
7, 282360, Note_on_c, 5, 45, 0
7, 282360, Note_on_c, 5, 43, 100
7, 282480, Note_on_c, 5, 43, 0
7, 282480, Note_on_c, 5, 42, 100
7, 282600, Note_on_c, 5, 42, 0
7, 282600, Note_on_c, 5, 54, 100
7, 282720, Note_on_c, 5, 54, 0
7, 282720, Note_on_c, 5, 55, 100
7, 282840, Note_on_c, 5, 55, 0
7, 282840, Note_on_c, 5, 54, 100
7, 282960, Note_on_c, 5, 54, 0
7, 282960, Note_on_c, 5, 52, 100
7, 283080, Note_on_c, 5, 52, 0
7, 283080, Note_on_c, 5, 54, 100
7, 283200, Note_on_c, 5, 54, 0
7, 283200, Note_on_c, 5, 47, 100
7, 283320, Note_on_c, 5, 47, 0
7, 283320, Note_on_c, 5, 45, 100
7, 283440, Note_on_c, 5, 45, 0
7, 283440, Note_on_c, 5, 47, 100
7, 283560, Note_on_c, 5, 47, 0
7, 283560, Note_on_c, 5, 48, 100
7, 283680, Note_on_c, 5, 48, 0
7, 283680, Note_on_c, 5, 50, 100
7, 283800, Note_on_c, 5, 50, 0
7, 283800, Note_on_c, 5, 47, 100
7, 283920, Note_on_c, 5, 47, 0
7, 283920, Note_on_c, 5, 49, 100
7, 284040, Note_on_c, 5, 49, 0
7, 284040, Note_on_c, 5, 50, 100
7, 284160, Note_on_c, 5, 50, 0
7, 284160, Note_on_c, 5, 52, 100
7, 284280, Note_on_c, 5, 52, 0
7, 284280, Note_on_c, 5, 50, 100
7, 284400, Note_on_c, 5, 50, 0
7, 284400, Note_on_c, 5, 49, 100
7, 284520, Note_on_c, 5, 49, 0
7, 284520, Note_on_c, 5, 47, 100
7, 284640, Note_on_c, 5, 47, 0
7, 284640, Note_on_c, 5, 45, 100
7, 284760, Note_on_c, 5, 45, 0
7, 284760, Note_on_c, 5, 52, 100
7, 284880, Note_on_c, 5, 52, 0
7, 284880, Note_on_c, 5, 50, 100
7, 285000, Note_on_c, 5, 50, 0
7, 285000, Note_on_c, 5, 49, 100
7, 285120, Note_on_c, 5, 49, 0
7, 285120, Note_on_c, 5, 50, 100
7, 285240, Note_on_c, 5, 50, 0
7, 285240, Note_on_c, 5, 47, 100
7, 285360, Note_on_c, 5, 47, 0
7, 285360, Note_on_c, 5, 49, 100
7, 285480, Note_on_c, 5, 49, 0
7, 285480, Note_on_c, 5, 45, 100
7, 285600, Note_on_c, 5, 45, 0
7, 285600, Note_on_c, 5, 47, 100
7, 285720, Note_on_c, 5, 47, 0
7, 285720, Note_on_c, 5, 49, 100
7, 285840, Note_on_c, 5, 49, 0
7, 285840, Note_on_c, 5, 50, 100
7, 285960, Note_on_c, 5, 50, 0
7, 285960, Note_on_c, 5, 52, 100
7, 286080, Note_on_c, 5, 52, 0
7, 286080, Note_on_c, 5, 54, 100
7, 286200, Note_on_c, 5, 54, 0
7, 286200, Note_on_c, 5, 47, 100
7, 286320, Note_on_c, 5, 47, 0
7, 286320, Note_on_c, 5, 49, 100
7, 286440, Note_on_c, 5, 49, 0
7, 286440, Note_on_c, 5, 50, 100
7, 286560, Note_on_c, 5, 50, 0
7, 286560, Note_on_c, 5, 52, 100
7, 286680, Note_on_c, 5, 52, 0
7, 286680, Note_on_c, 5, 54, 100
7, 286800, Note_on_c, 5, 54, 0
7, 286800, Note_on_c, 5, 55, 100
7, 286920, Note_on_c, 5, 55, 0
7, 286920, Note_on_c, 5, 54, 100
7, 287040, Note_on_c, 5, 54, 0
7, 287040, Note_on_c, 5, 52, 100
7, 287160, Note_on_c, 5, 52, 0
7, 287160, Note_on_c, 5, 50, 100
7, 287280, Note_on_c, 5, 50, 0
7, 287280, Note_on_c, 5, 52, 100
7, 287400, Note_on_c, 5, 52, 0
7, 287400, Note_on_c, 5, 46, 100
7, 287520, Note_on_c, 5, 46, 0
7, 287520, Note_on_c, 5, 47, 100
7, 287640, Note_on_c, 5, 47, 0
7, 287640, Note_on_c, 5, 49, 100
7, 287760, Note_on_c, 5, 49, 0
7, 287760, Note_on_c, 5, 50, 100
7, 287880, Note_on_c, 5, 50, 0
7, 287880, Note_on_c, 5, 49, 100
7, 288000, Note_on_c, 5, 49, 0
7, 288000, Note_on_c, 5, 47, 100
7, 288120, Note_on_c, 5, 47, 0
7, 288120, Note_on_c, 5, 45, 100
7, 288240, Note_on_c, 5, 45, 0
7, 288240, Note_on_c, 5, 43, 100
7, 288360, Note_on_c, 5, 43, 0
7, 288360, Note_on_c, 5, 42, 100
7, 288480, Note_on_c, 5, 42, 0
7, 288480, Note_on_c, 5, 43, 100
7, 288600, Note_on_c, 5, 43, 0
7, 288600, Note_on_c, 5, 47, 100
7, 288720, Note_on_c, 5, 47, 0
7, 288720, Note_on_c, 5, 45, 100
7, 288840, Note_on_c, 5, 45, 0
7, 288840, Note_on_c, 5, 43, 100
7, 288960, Note_on_c, 5, 43, 0
7, 288960, Note_on_c, 5, 42, 100
7, 289080, Note_on_c, 5, 42, 0
7, 289080, Note_on_c, 5, 45, 100
7, 289200, Note_on_c, 5, 45, 0
7, 289200, Note_on_c, 5, 43, 100
7, 289320, Note_on_c, 5, 43, 0
7, 289320, Note_on_c, 5, 42, 100
7, 289440, Note_on_c, 5, 42, 0
7, 289440, Note_on_c, 5, 40, 100
7, 289560, Note_on_c, 5, 40, 0
7, 289560, Note_on_c, 5, 38, 100
7, 289680, Note_on_c, 5, 38, 0
7, 289680, Note_on_c, 5, 43, 100
7, 289920, Note_on_c, 5, 43, 0
7, 289920, Note_on_c, 5, 40, 100
7, 290160, Note_on_c, 5, 40, 0
7, 290160, Note_on_c, 5, 45, 100
7, 290400, Note_on_c, 5, 45, 0
7, 290400, Note_on_c, 5, 38, 100
7, 290520, Note_on_c, 5, 38, 0
7, 290520, Note_on_c, 5, 42, 100
7, 290640, Note_on_c, 5, 42, 0
7, 290640, Note_on_c, 5, 45, 100
7, 290760, Note_on_c, 5, 45, 0
7, 290760, Note_on_c, 5, 50, 100
7, 290880, Note_on_c, 5, 50, 0
7, 290880, Note_on_c, 5, 45, 100
7, 291000, Note_on_c, 5, 45, 0
7, 291000, Note_on_c, 5, 42, 100
7, 291120, Note_on_c, 5, 42, 0
7, 291120, Note_on_c, 5, 38, 100
7, 291840, Note_on_c, 5, 38, 0
7, 291840, Note_on_c, 5, 50, 100
7, 292080, Note_on_c, 5, 50, 0
7, 292080, Note_on_c, 5, 54, 100
7, 292320, Note_on_c, 5, 54, 0
7, 292320, Note_on_c, 5, 57, 100
7, 292560, Note_on_c, 5, 57, 0
7, 292560, Note_on_c, 5, 62, 100
7, 292800, Note_on_c, 5, 62, 0
7, 292800, Note_on_c, 5, 60, 100
7, 292920, Note_on_c, 5, 60, 0
7, 292920, Note_on_c, 5, 59, 100
7, 293040, Note_on_c, 5, 59, 0
7, 293040, Note_on_c, 5, 57, 100
7, 293160, Note_on_c, 5, 57, 0
7, 293160, Note_on_c, 5, 55, 100
7, 293280, Note_on_c, 5, 55, 0
7, 293280, Note_on_c, 5, 54, 100
7, 293520, Note_on_c, 5, 54, 0
7, 293520, Note_on_c, 5, 57, 100
7, 293760, Note_on_c, 5, 57, 0
7, 293760, Note_on_c, 5, 50, 100
7, 294000, Note_on_c, 5, 50, 0
7, 294000, Note_on_c, 5, 55, 100
7, 294240, Note_on_c, 5, 55, 0
7, 294240, Note_on_c, 5, 57, 100
7, 294480, Note_on_c, 5, 57, 0
7, 294480, Note_on_c, 5, 59, 100
7, 294720, Note_on_c, 5, 59, 0
7, 294720, Note_on_c, 5, 60, 100
7, 294840, Note_on_c, 5, 60, 0
7, 294840, Note_on_c, 5, 62, 100
7, 294960, Note_on_c, 5, 62, 0
7, 294960, Note_on_c, 5, 60, 100
7, 295080, Note_on_c, 5, 60, 0
7, 295080, Note_on_c, 5, 59, 100
7, 295200, Note_on_c, 5, 59, 0
7, 295200, Note_on_c, 5, 57, 100
7, 295320, Note_on_c, 5, 57, 0
7, 295320, Note_on_c, 5, 55, 100
7, 295440, Note_on_c, 5, 55, 0
7, 295440, Note_on_c, 5, 54, 100
7, 295560, Note_on_c, 5, 54, 0
7, 295560, Note_on_c, 5, 52, 100
7, 295680, Note_on_c, 5, 52, 0
7, 295680, Note_on_c, 5, 54, 100
7, 295800, Note_on_c, 5, 54, 0
7, 295800, Note_on_c, 5, 55, 100
7, 295920, Note_on_c, 5, 55, 0
7, 295920, Note_on_c, 5, 57, 100
7, 296040, Note_on_c, 5, 57, 0
7, 296040, Note_on_c, 5, 54, 100
7, 296160, Note_on_c, 5, 54, 0
7, 296160, Note_on_c, 5, 59, 100
7, 296400, Note_on_c, 5, 59, 0
7, 296400, Note_on_c, 5, 54, 100
7, 296640, Note_on_c, 5, 54, 0
7, 296640, Note_on_c, 5, 55, 100
7, 296880, Note_on_c, 5, 55, 0
7, 296880, Note_on_c, 5, 57, 100
7, 297000, Note_on_c, 5, 57, 0
7, 297000, Note_on_c, 5, 60, 100
7, 297120, Note_on_c, 5, 60, 0
7, 297120, Note_on_c, 5, 59, 100
7, 297240, Note_on_c, 5, 59, 0
7, 297240, Note_on_c, 5, 57, 100
7, 297360, Note_on_c, 5, 57, 0
7, 297360, Note_on_c, 5, 55, 100
7, 297480, Note_on_c, 5, 55, 0
7, 297480, Note_on_c, 5, 54, 100
7, 297600, Note_on_c, 5, 54, 0
7, 297600, Note_on_c, 5, 55, 100
7, 297720, Note_on_c, 5, 55, 0
7, 297720, Note_on_c, 5, 57, 100
7, 297840, Note_on_c, 5, 57, 0
7, 297840, Note_on_c, 5, 55, 100
7, 297960, Note_on_c, 5, 55, 0
7, 297960, Note_on_c, 5, 54, 100
7, 298080, Note_on_c, 5, 54, 0
7, 298080, Note_on_c, 5, 52, 100
7, 298200, Note_on_c, 5, 52, 0
7, 298200, Note_on_c, 5, 50, 100
7, 298320, Note_on_c, 5, 50, 0
7, 298320, Note_on_c, 5, 48, 100
7, 298440, Note_on_c, 5, 48, 0
7, 298440, Note_on_c, 5, 47, 100
7, 298560, Note_on_c, 5, 47, 0
7, 298560, Note_on_c, 5, 45, 100
7, 298680, Note_on_c, 5, 45, 0
7, 298680, Note_on_c, 5, 47, 100
7, 298800, Note_on_c, 5, 47, 0
7, 298800, Note_on_c, 5, 48, 100
7, 298920, Note_on_c, 5, 48, 0
7, 298920, Note_on_c, 5, 45, 100
7, 299040, Note_on_c, 5, 45, 0
7, 299040, Note_on_c, 5, 47, 100
7, 299280, Note_on_c, 5, 47, 0
7, 299280, Note_on_c, 5, 54, 100
7, 299520, Note_on_c, 5, 54, 0
7, 299520, Note_on_c, 5, 59, 100
7, 300000, Note_on_c, 5, 59, 0
7, 300000, Note_on_c, 5, 55, 100
7, 300240, Note_on_c, 5, 55, 0
7, 300240, Note_on_c, 5, 52, 100
7, 300480, Note_on_c, 5, 52, 0
7, 300480, Note_on_c, 5, 60, 100
7, 300600, Note_on_c, 5, 60, 0
7, 300600, Note_on_c, 5, 62, 100
7, 300720, Note_on_c, 5, 62, 0
7, 300720, Note_on_c, 5, 60, 100
7, 300840, Note_on_c, 5, 60, 0
7, 300840, Note_on_c, 5, 59, 100
7, 300960, Note_on_c, 5, 59, 0
7, 300960, Note_on_c, 5, 57, 100
7, 301080, Note_on_c, 5, 57, 0
7, 301080, Note_on_c, 5, 55, 100
7, 301200, Note_on_c, 5, 55, 0
7, 301200, Note_on_c, 5, 54, 100
7, 301320, Note_on_c, 5, 54, 0
7, 301320, Note_on_c, 5, 52, 100
7, 301440, Note_on_c, 5, 52, 0
7, 301440, Note_on_c, 5, 54, 100
7, 301560, Note_on_c, 5, 54, 0
7, 301560, Note_on_c, 5, 59, 100
7, 301680, Note_on_c, 5, 59, 0
7, 301680, Note_on_c, 5, 57, 100
7, 301800, Note_on_c, 5, 57, 0
7, 301800, Note_on_c, 5, 59, 100
7, 301920, Note_on_c, 5, 59, 0
7, 301920, Note_on_c, 5, 52, 100
7, 302160, Note_on_c, 5, 52, 0
7, 302160, Note_on_c, 5, 55, 100
7, 302400, Note_on_c, 5, 55, 0
7, 302400, Note_on_c, 5, 59, 100
7, 302640, Note_on_c, 5, 59, 0
7, 302640, Note_on_c, 5, 64, 100
7, 302880, Note_on_c, 5, 64, 0
7, 302880, Note_on_c, 5, 52, 100
7, 303120, Note_on_c, 5, 52, 0
7, 303120, Note_on_c, 5, 50, 100
7, 303360, Note_on_c, 5, 50, 0
7, 303360, Note_on_c, 5, 48, 100
7, 303600, Note_on_c, 5, 48, 0
7, 303600, Note_on_c, 5, 60, 100
7, 303840, Note_on_c, 5, 60, 0
7, 303840, Note_on_c, 5, 59, 100
7, 304080, Note_on_c, 5, 59, 0
7, 304080, Note_on_c, 5, 57, 100
7, 305040, Note_on_c, 5, 57, 0
7, 305040, Note_on_c, 5, 60, 100
7, 305280, Note_on_c, 5, 60, 0
7, 305280, Note_on_c, 5, 57, 100
7, 305520, Note_on_c, 5, 57, 0
7, 305520, Note_on_c, 5, 54, 100
7, 305760, Note_on_c, 5, 54, 0
7, 305760, Note_on_c, 5, 50, 100
7, 306000, Note_on_c, 5, 50, 0
7, 306000, Note_on_c, 5, 62, 100
7, 306240, Note_on_c, 5, 62, 0
7, 306240, Note_on_c, 5, 55, 100
7, 306360, Note_on_c, 5, 55, 0
7, 306360, Note_on_c, 5, 57, 100
7, 306480, Note_on_c, 5, 57, 0
7, 306480, Note_on_c, 5, 55, 100
7, 306600, Note_on_c, 5, 55, 0
7, 306600, Note_on_c, 5, 53, 100
7, 306720, Note_on_c, 5, 53, 0
7, 306720, Note_on_c, 5, 52, 100
7, 306840, Note_on_c, 5, 52, 0
7, 306840, Note_on_c, 5, 50, 100
7, 306960, Note_on_c, 5, 50, 0
7, 306960, Note_on_c, 5, 48, 100
7, 307200, Note_on_c, 5, 48, 0
7, 307200, Note_on_c, 5, 52, 100
7, 307440, Note_on_c, 5, 52, 0
7, 307440, Note_on_c, 5, 48, 100
7, 307680, Note_on_c, 5, 48, 0
7, 307680, Note_on_c, 5, 45, 100
7, 307800, Note_on_c, 5, 45, 0
7, 307800, Note_on_c, 5, 47, 100
7, 307920, Note_on_c, 5, 47, 0
7, 307920, Note_on_c, 5, 48, 100
7, 308040, Note_on_c, 5, 48, 0
7, 308040, Note_on_c, 5, 45, 100
7, 308160, Note_on_c, 5, 45, 0
7, 308160, Note_on_c, 5, 47, 100
7, 308280, Note_on_c, 5, 47, 0
7, 308280, Note_on_c, 5, 48, 100
7, 308400, Note_on_c, 5, 48, 0
7, 308400, Note_on_c, 5, 50, 100
7, 308640, Note_on_c, 5, 50, 0
7, 308640, Note_on_c, 5, 38, 100
7, 308880, Note_on_c, 5, 38, 0
7, 308880, Note_on_c, 5, 54, 100
7, 309120, Note_on_c, 5, 54, 0
7, 309120, Note_on_c, 5, 55, 100
7, 309240, Note_on_c, 5, 55, 0
7, 309240, Note_on_c, 5, 57, 100
7, 309360, Note_on_c, 5, 57, 0
7, 309360, Note_on_c, 5, 59, 100
7, 309480, Note_on_c, 5, 59, 0
7, 309480, Note_on_c, 5, 55, 100
7, 309600, Note_on_c, 5, 55, 0
7, 309600, Note_on_c, 5, 57, 100
7, 309720, Note_on_c, 5, 57, 0
7, 309720, Note_on_c, 5, 59, 100
7, 309840, Note_on_c, 5, 59, 0
7, 309840, Note_on_c, 5, 60, 100
7, 310080, Note_on_c, 5, 60, 0
7, 310080, Note_on_c, 5, 64, 100
7, 310320, Note_on_c, 5, 64, 0
7, 310320, Note_on_c, 5, 57, 100
7, 310560, Note_on_c, 5, 57, 0
7, 310560, Note_on_c, 5, 62, 100
7, 310680, Note_on_c, 5, 62, 0
7, 310680, Note_on_c, 5, 60, 100
7, 310800, Note_on_c, 5, 60, 0
7, 310800, Note_on_c, 5, 59, 100
7, 310920, Note_on_c, 5, 59, 0
7, 310920, Note_on_c, 5, 62, 100
7, 311040, Note_on_c, 5, 62, 0
7, 311040, Note_on_c, 5, 60, 100
7, 311160, Note_on_c, 5, 60, 0
7, 311160, Note_on_c, 5, 59, 100
7, 311280, Note_on_c, 5, 59, 0
7, 311280, Note_on_c, 5, 60, 100
7, 311400, Note_on_c, 5, 60, 0
7, 311400, Note_on_c, 5, 59, 100
7, 311520, Note_on_c, 5, 59, 0
7, 311520, Note_on_c, 5, 57, 100
7, 311640, Note_on_c, 5, 57, 0
7, 311640, Note_on_c, 5, 55, 100
7, 311760, Note_on_c, 5, 55, 0
7, 311760, Note_on_c, 5, 54, 100
7, 311880, Note_on_c, 5, 54, 0
7, 311880, Note_on_c, 5, 57, 100
7, 312000, Note_on_c, 5, 57, 0
7, 312000, Note_on_c, 5, 55, 100
7, 312120, Note_on_c, 5, 55, 0
7, 312120, Note_on_c, 5, 54, 100
7, 312240, Note_on_c, 5, 54, 0
7, 312240, Note_on_c, 5, 52, 100
7, 312360, Note_on_c, 5, 52, 0
7, 312360, Note_on_c, 5, 50, 100
7, 312480, Note_on_c, 5, 50, 0
7, 312480, Note_on_c, 5, 48, 100
7, 312600, Note_on_c, 5, 48, 0
7, 312600, Note_on_c, 5, 47, 100
7, 312720, Note_on_c, 5, 47, 0
7, 312720, Note_on_c, 5, 48, 100
7, 312960, Note_on_c, 5, 48, 0
7, 312960, Note_on_c, 5, 45, 100
7, 313200, Note_on_c, 5, 45, 0
7, 313200, Note_on_c, 5, 50, 100
7, 313440, Note_on_c, 5, 50, 0
7, 313440, Note_on_c, 5, 43, 100
7, 313560, Note_on_c, 5, 43, 0
7, 313560, Note_on_c, 5, 47, 100
7, 313680, Note_on_c, 5, 47, 0
7, 313680, Note_on_c, 5, 50, 100
7, 313800, Note_on_c, 5, 50, 0
7, 313800, Note_on_c, 5, 55, 100
7, 313920, Note_on_c, 5, 55, 0
7, 313920, Note_on_c, 5, 50, 100
7, 314040, Note_on_c, 5, 50, 0
7, 314040, Note_on_c, 5, 47, 100
7, 314160, Note_on_c, 5, 47, 0
7, 314160, Note_on_c, 5, 43, 100
7, 314880, Note_on_c, 5, 43, 0
7, 314880, Note_on_c, 5, 50, 100
7, 315120, Note_on_c, 5, 50, 0
7, 315120, Note_on_c, 5, 54, 100
7, 315360, Note_on_c, 5, 54, 0
7, 315360, Note_on_c, 5, 57, 100
7, 315600, Note_on_c, 5, 57, 0
7, 315600, Note_on_c, 5, 62, 100
7, 315840, Note_on_c, 5, 62, 0
7, 315840, Note_on_c, 5, 60, 100
7, 315960, Note_on_c, 5, 60, 0
7, 315960, Note_on_c, 5, 59, 100
7, 316080, Note_on_c, 5, 59, 0
7, 316080, Note_on_c, 5, 57, 100
7, 316200, Note_on_c, 5, 57, 0
7, 316200, Note_on_c, 5, 55, 100
7, 316320, Note_on_c, 5, 55, 0
7, 316320, Note_on_c, 5, 54, 100
7, 316560, Note_on_c, 5, 54, 0
7, 316560, Note_on_c, 5, 57, 100
7, 316800, Note_on_c, 5, 57, 0
7, 316800, Note_on_c, 5, 50, 100
7, 317040, Note_on_c, 5, 50, 0
7, 317040, Note_on_c, 5, 55, 100
7, 317280, Note_on_c, 5, 55, 0
7, 317280, Note_on_c, 5, 57, 100
7, 317520, Note_on_c, 5, 57, 0
7, 317520, Note_on_c, 5, 59, 100
7, 317760, Note_on_c, 5, 59, 0
7, 317760, Note_on_c, 5, 60, 100
7, 317880, Note_on_c, 5, 60, 0
7, 317880, Note_on_c, 5, 62, 100
7, 318000, Note_on_c, 5, 62, 0
7, 318000, Note_on_c, 5, 60, 100
7, 318120, Note_on_c, 5, 60, 0
7, 318120, Note_on_c, 5, 59, 100
7, 318240, Note_on_c, 5, 59, 0
7, 318240, Note_on_c, 5, 57, 100
7, 318360, Note_on_c, 5, 57, 0
7, 318360, Note_on_c, 5, 55, 100
7, 318480, Note_on_c, 5, 55, 0
7, 318480, Note_on_c, 5, 54, 100
7, 318600, Note_on_c, 5, 54, 0
7, 318600, Note_on_c, 5, 52, 100
7, 318720, Note_on_c, 5, 52, 0
7, 318720, Note_on_c, 5, 54, 100
7, 318840, Note_on_c, 5, 54, 0
7, 318840, Note_on_c, 5, 55, 100
7, 318960, Note_on_c, 5, 55, 0
7, 318960, Note_on_c, 5, 57, 100
7, 319080, Note_on_c, 5, 57, 0
7, 319080, Note_on_c, 5, 54, 100
7, 319200, Note_on_c, 5, 54, 0
7, 319200, Note_on_c, 5, 59, 100
7, 319440, Note_on_c, 5, 59, 0
7, 319440, Note_on_c, 5, 54, 100
7, 319680, Note_on_c, 5, 54, 0
7, 319680, Note_on_c, 5, 55, 100
7, 319920, Note_on_c, 5, 55, 0
7, 319920, Note_on_c, 5, 57, 100
7, 320040, Note_on_c, 5, 57, 0
7, 320040, Note_on_c, 5, 60, 100
7, 320160, Note_on_c, 5, 60, 0
7, 320160, Note_on_c, 5, 59, 100
7, 320280, Note_on_c, 5, 59, 0
7, 320280, Note_on_c, 5, 57, 100
7, 320400, Note_on_c, 5, 57, 0
7, 320400, Note_on_c, 5, 55, 100
7, 320520, Note_on_c, 5, 55, 0
7, 320520, Note_on_c, 5, 54, 100
7, 320640, Note_on_c, 5, 54, 0
7, 320640, Note_on_c, 5, 55, 100
7, 320760, Note_on_c, 5, 55, 0
7, 320760, Note_on_c, 5, 57, 100
7, 320880, Note_on_c, 5, 57, 0
7, 320880, Note_on_c, 5, 55, 100
7, 321000, Note_on_c, 5, 55, 0
7, 321000, Note_on_c, 5, 54, 100
7, 321120, Note_on_c, 5, 54, 0
7, 321120, Note_on_c, 5, 52, 100
7, 321240, Note_on_c, 5, 52, 0
7, 321240, Note_on_c, 5, 50, 100
7, 321360, Note_on_c, 5, 50, 0
7, 321360, Note_on_c, 5, 48, 100
7, 321480, Note_on_c, 5, 48, 0
7, 321480, Note_on_c, 5, 47, 100
7, 321600, Note_on_c, 5, 47, 0
7, 321600, Note_on_c, 5, 45, 100
7, 321720, Note_on_c, 5, 45, 0
7, 321720, Note_on_c, 5, 47, 100
7, 321840, Note_on_c, 5, 47, 0
7, 321840, Note_on_c, 5, 48, 100
7, 321960, Note_on_c, 5, 48, 0
7, 321960, Note_on_c, 5, 45, 100
7, 322080, Note_on_c, 5, 45, 0
7, 322080, Note_on_c, 5, 47, 100
7, 322320, Note_on_c, 5, 47, 0
7, 322320, Note_on_c, 5, 54, 100
7, 322560, Note_on_c, 5, 54, 0
7, 322560, Note_on_c, 5, 59, 100
7, 323040, Note_on_c, 5, 59, 0
7, 323040, Note_on_c, 5, 55, 100
7, 323280, Note_on_c, 5, 55, 0
7, 323280, Note_on_c, 5, 52, 100
7, 323520, Note_on_c, 5, 52, 0
7, 323520, Note_on_c, 5, 60, 100
7, 323640, Note_on_c, 5, 60, 0
7, 323640, Note_on_c, 5, 62, 100
7, 323760, Note_on_c, 5, 62, 0
7, 323760, Note_on_c, 5, 60, 100
7, 323880, Note_on_c, 5, 60, 0
7, 323880, Note_on_c, 5, 59, 100
7, 324000, Note_on_c, 5, 59, 0
7, 324000, Note_on_c, 5, 57, 100
7, 324120, Note_on_c, 5, 57, 0
7, 324120, Note_on_c, 5, 55, 100
7, 324240, Note_on_c, 5, 55, 0
7, 324240, Note_on_c, 5, 54, 100
7, 324360, Note_on_c, 5, 54, 0
7, 324360, Note_on_c, 5, 52, 100
7, 324480, Note_on_c, 5, 52, 0
7, 324480, Note_on_c, 5, 54, 100
7, 324600, Note_on_c, 5, 54, 0
7, 324600, Note_on_c, 5, 59, 100
7, 324720, Note_on_c, 5, 59, 0
7, 324720, Note_on_c, 5, 57, 100
7, 324840, Note_on_c, 5, 57, 0
7, 324840, Note_on_c, 5, 59, 100
7, 324960, Note_on_c, 5, 59, 0
7, 324960, Note_on_c, 5, 52, 100
7, 325200, Note_on_c, 5, 52, 0
7, 325200, Note_on_c, 5, 55, 100
7, 325440, Note_on_c, 5, 55, 0
7, 325440, Note_on_c, 5, 59, 100
7, 325680, Note_on_c, 5, 59, 0
7, 325680, Note_on_c, 5, 64, 100
7, 325920, Note_on_c, 5, 64, 0
7, 325920, Note_on_c, 5, 52, 100
7, 326160, Note_on_c, 5, 52, 0
7, 326160, Note_on_c, 5, 50, 100
7, 326400, Note_on_c, 5, 50, 0
7, 326400, Note_on_c, 5, 48, 100
7, 326640, Note_on_c, 5, 48, 0
7, 326640, Note_on_c, 5, 60, 100
7, 326880, Note_on_c, 5, 60, 0
7, 326880, Note_on_c, 5, 59, 100
7, 327120, Note_on_c, 5, 59, 0
7, 327120, Note_on_c, 5, 57, 100
7, 328080, Note_on_c, 5, 57, 0
7, 328080, Note_on_c, 5, 60, 100
7, 328320, Note_on_c, 5, 60, 0
7, 328320, Note_on_c, 5, 57, 100
7, 328560, Note_on_c, 5, 57, 0
7, 328560, Note_on_c, 5, 54, 100
7, 328800, Note_on_c, 5, 54, 0
7, 328800, Note_on_c, 5, 50, 100
7, 329040, Note_on_c, 5, 50, 0
7, 329040, Note_on_c, 5, 62, 100
7, 329280, Note_on_c, 5, 62, 0
7, 329280, Note_on_c, 5, 55, 100
7, 329400, Note_on_c, 5, 55, 0
7, 329400, Note_on_c, 5, 57, 100
7, 329520, Note_on_c, 5, 57, 0
7, 329520, Note_on_c, 5, 55, 100
7, 329640, Note_on_c, 5, 55, 0
7, 329640, Note_on_c, 5, 53, 100
7, 329760, Note_on_c, 5, 53, 0
7, 329760, Note_on_c, 5, 52, 100
7, 329880, Note_on_c, 5, 52, 0
7, 329880, Note_on_c, 5, 50, 100
7, 330000, Note_on_c, 5, 50, 0
7, 330000, Note_on_c, 5, 48, 100
7, 330240, Note_on_c, 5, 48, 0
7, 330240, Note_on_c, 5, 52, 100
7, 330480, Note_on_c, 5, 52, 0
7, 330480, Note_on_c, 5, 48, 100
7, 330720, Note_on_c, 5, 48, 0
7, 330720, Note_on_c, 5, 45, 100
7, 330840, Note_on_c, 5, 45, 0
7, 330840, Note_on_c, 5, 47, 100
7, 330960, Note_on_c, 5, 47, 0
7, 330960, Note_on_c, 5, 48, 100
7, 331080, Note_on_c, 5, 48, 0
7, 331080, Note_on_c, 5, 45, 100
7, 331200, Note_on_c, 5, 45, 0
7, 331200, Note_on_c, 5, 47, 100
7, 331320, Note_on_c, 5, 47, 0
7, 331320, Note_on_c, 5, 48, 100
7, 331440, Note_on_c, 5, 48, 0
7, 331440, Note_on_c, 5, 50, 100
7, 331680, Note_on_c, 5, 50, 0
7, 331680, Note_on_c, 5, 38, 100
7, 331920, Note_on_c, 5, 38, 0
7, 331920, Note_on_c, 5, 54, 100
7, 332160, Note_on_c, 5, 54, 0
7, 332160, Note_on_c, 5, 55, 100
7, 332280, Note_on_c, 5, 55, 0
7, 332280, Note_on_c, 5, 57, 100
7, 332400, Note_on_c, 5, 57, 0
7, 332400, Note_on_c, 5, 59, 100
7, 332520, Note_on_c, 5, 59, 0
7, 332520, Note_on_c, 5, 55, 100
7, 332640, Note_on_c, 5, 55, 0
7, 332640, Note_on_c, 5, 57, 100
7, 332760, Note_on_c, 5, 57, 0
7, 332760, Note_on_c, 5, 59, 100
7, 332880, Note_on_c, 5, 59, 0
7, 332880, Note_on_c, 5, 60, 100
7, 333120, Note_on_c, 5, 60, 0
7, 333120, Note_on_c, 5, 64, 100
7, 333360, Note_on_c, 5, 64, 0
7, 333360, Note_on_c, 5, 57, 100
7, 333600, Note_on_c, 5, 57, 0
7, 333600, Note_on_c, 5, 62, 100
7, 333720, Note_on_c, 5, 62, 0
7, 333720, Note_on_c, 5, 60, 100
7, 333840, Note_on_c, 5, 60, 0
7, 333840, Note_on_c, 5, 59, 100
7, 333960, Note_on_c, 5, 59, 0
7, 333960, Note_on_c, 5, 62, 100
7, 334080, Note_on_c, 5, 62, 0
7, 334080, Note_on_c, 5, 60, 100
7, 334200, Note_on_c, 5, 60, 0
7, 334200, Note_on_c, 5, 59, 100
7, 334320, Note_on_c, 5, 59, 0
7, 334320, Note_on_c, 5, 60, 100
7, 334440, Note_on_c, 5, 60, 0
7, 334440, Note_on_c, 5, 59, 100
7, 334560, Note_on_c, 5, 59, 0
7, 334560, Note_on_c, 5, 57, 100
7, 334680, Note_on_c, 5, 57, 0
7, 334680, Note_on_c, 5, 55, 100
7, 334800, Note_on_c, 5, 55, 0
7, 334800, Note_on_c, 5, 54, 100
7, 334920, Note_on_c, 5, 54, 0
7, 334920, Note_on_c, 5, 57, 100
7, 335040, Note_on_c, 5, 57, 0
7, 335040, Note_on_c, 5, 55, 100
7, 335160, Note_on_c, 5, 55, 0
7, 335160, Note_on_c, 5, 54, 100
7, 335280, Note_on_c, 5, 54, 0
7, 335280, Note_on_c, 5, 52, 100
7, 335400, Note_on_c, 5, 52, 0
7, 335400, Note_on_c, 5, 50, 100
7, 335520, Note_on_c, 5, 50, 0
7, 335520, Note_on_c, 5, 48, 100
7, 335640, Note_on_c, 5, 48, 0
7, 335640, Note_on_c, 5, 47, 100
7, 335760, Note_on_c, 5, 47, 0
7, 335760, Note_on_c, 5, 48, 100
7, 336000, Note_on_c, 5, 48, 0
7, 336000, Note_on_c, 5, 45, 100
7, 336240, Note_on_c, 5, 45, 0
7, 336240, Note_on_c, 5, 50, 100
7, 336480, Note_on_c, 5, 50, 0
7, 336480, Note_on_c, 5, 43, 100
7, 336600, Note_on_c, 5, 43, 0
7, 336600, Note_on_c, 5, 47, 100
7, 336720, Note_on_c, 5, 47, 0
7, 336720, Note_on_c, 5, 50, 100
7, 336840, Note_on_c, 5, 50, 0
7, 336840, Note_on_c, 5, 55, 100
7, 336960, Note_on_c, 5, 55, 0
7, 336960, Note_on_c, 5, 50, 100
7, 337080, Note_on_c, 5, 50, 0
7, 337080, Note_on_c, 5, 47, 100
7, 337200, Note_on_c, 5, 47, 0
7, 337200, Note_on_c, 5, 43, 100
7, 337920, Note_on_c, 5, 43, 0
7, 476160, Note_on_c, 5, 43, 100
7, 476280, Note_on_c, 5, 43, 0
7, 476280, Note_on_c, 5, 42, 100
7, 476400, Note_on_c, 5, 42, 0
7, 476400, Note_on_c, 5, 43, 100
7, 476520, Note_on_c, 5, 43, 0
7, 476520, Note_on_c, 5, 45, 100
7, 476640, Note_on_c, 5, 45, 0
7, 476640, Note_on_c, 5, 47, 100
7, 476760, Note_on_c, 5, 47, 0
7, 476760, Note_on_c, 5, 43, 100
7, 476880, Note_on_c, 5, 43, 0
7, 476880, Note_on_c, 5, 50, 100
7, 477000, Note_on_c, 5, 50, 0
7, 477000, Note_on_c, 5, 48, 100
7, 477120, Note_on_c, 5, 48, 0
7, 477120, Note_on_c, 5, 50, 100
7, 477240, Note_on_c, 5, 50, 0
7, 477240, Note_on_c, 5, 52, 100
7, 477360, Note_on_c, 5, 52, 0
7, 477360, Note_on_c, 5, 54, 100
7, 477480, Note_on_c, 5, 54, 0
7, 477480, Note_on_c, 5, 50, 100
7, 477600, Note_on_c, 5, 50, 0
7, 477600, Note_on_c, 5, 55, 100
7, 477720, Note_on_c, 5, 55, 0
7, 477720, Note_on_c, 5, 54, 100
7, 477840, Note_on_c, 5, 54, 0
7, 477840, Note_on_c, 5, 52, 100
7, 477960, Note_on_c, 5, 52, 0
7, 477960, Note_on_c, 5, 54, 100
7, 478080, Note_on_c, 5, 54, 0
7, 478080, Note_on_c, 5, 55, 100
7, 478200, Note_on_c, 5, 55, 0
7, 478200, Note_on_c, 5, 52, 100
7, 478320, Note_on_c, 5, 52, 0
7, 478320, Note_on_c, 5, 57, 100
7, 478440, Note_on_c, 5, 57, 0
7, 478440, Note_on_c, 5, 55, 100
7, 478560, Note_on_c, 5, 55, 0
7, 478560, Note_on_c, 5, 54, 100
7, 478680, Note_on_c, 5, 54, 0
7, 478680, Note_on_c, 5, 55, 100
7, 478800, Note_on_c, 5, 55, 0
7, 478800, Note_on_c, 5, 57, 100
7, 478920, Note_on_c, 5, 57, 0
7, 478920, Note_on_c, 5, 54, 100
7, 479040, Note_on_c, 5, 54, 0
7, 479040, Note_on_c, 5, 59, 100
7, 479160, Note_on_c, 5, 59, 0
7, 479160, Note_on_c, 5, 57, 100
7, 479280, Note_on_c, 5, 57, 0
7, 479280, Note_on_c, 5, 55, 100
7, 479400, Note_on_c, 5, 55, 0
7, 479400, Note_on_c, 5, 57, 100
7, 479520, Note_on_c, 5, 57, 0
7, 479520, Note_on_c, 5, 59, 100
7, 479640, Note_on_c, 5, 59, 0
7, 479640, Note_on_c, 5, 55, 100
7, 479760, Note_on_c, 5, 55, 0
7, 479760, Note_on_c, 5, 60, 100
7, 479880, Note_on_c, 5, 60, 0
7, 479880, Note_on_c, 5, 59, 100
7, 480000, Note_on_c, 5, 59, 0
7, 480000, Note_on_c, 5, 57, 100
7, 480120, Note_on_c, 5, 57, 0
7, 480120, Note_on_c, 5, 55, 100
7, 480240, Note_on_c, 5, 55, 0
7, 480240, Note_on_c, 5, 54, 100
7, 480360, Note_on_c, 5, 54, 0
7, 480360, Note_on_c, 5, 52, 100
7, 480480, Note_on_c, 5, 52, 0
7, 480480, Note_on_c, 5, 54, 100
7, 480600, Note_on_c, 5, 54, 0
7, 480600, Note_on_c, 5, 52, 100
7, 480720, Note_on_c, 5, 52, 0
7, 480720, Note_on_c, 5, 54, 100
7, 480840, Note_on_c, 5, 54, 0
7, 480840, Note_on_c, 5, 50, 100
7, 480960, Note_on_c, 5, 50, 0
7, 480960, Note_on_c, 5, 52, 100
7, 481080, Note_on_c, 5, 52, 0
7, 481080, Note_on_c, 5, 54, 100
7, 481200, Note_on_c, 5, 54, 0
7, 481200, Note_on_c, 5, 55, 100
7, 481320, Note_on_c, 5, 55, 0
7, 481320, Note_on_c, 5, 52, 100
7, 481440, Note_on_c, 5, 52, 0
7, 481440, Note_on_c, 5, 50, 100
7, 481560, Note_on_c, 5, 50, 0
7, 481560, Note_on_c, 5, 48, 100
7, 481680, Note_on_c, 5, 48, 0
7, 481680, Note_on_c, 5, 47, 100
7, 481800, Note_on_c, 5, 47, 0
7, 481800, Note_on_c, 5, 45, 100
7, 481920, Note_on_c, 5, 45, 0
7, 481920, Note_on_c, 5, 43, 100
7, 482040, Note_on_c, 5, 43, 0
7, 482040, Note_on_c, 5, 54, 100
7, 482160, Note_on_c, 5, 54, 0
7, 482160, Note_on_c, 5, 52, 100
7, 482280, Note_on_c, 5, 52, 0
7, 482280, Note_on_c, 5, 50, 100
7, 482400, Note_on_c, 5, 50, 0
7, 482400, Note_on_c, 5, 48, 100
7, 482520, Note_on_c, 5, 48, 0
7, 482520, Note_on_c, 5, 47, 100
7, 482640, Note_on_c, 5, 47, 0
7, 482640, Note_on_c, 5, 49, 100
7, 482760, Note_on_c, 5, 49, 0
7, 482760, Note_on_c, 5, 45, 100
7, 482880, Note_on_c, 5, 45, 0
7, 482880, Note_on_c, 5, 50, 100
7, 483000, Note_on_c, 5, 50, 0
7, 483000, Note_on_c, 5, 52, 100
7, 483120, Note_on_c, 5, 52, 0
7, 483120, Note_on_c, 5, 54, 100
7, 483240, Note_on_c, 5, 54, 0
7, 483240, Note_on_c, 5, 50, 100
7, 483360, Note_on_c, 5, 50, 0
7, 483360, Note_on_c, 5, 55, 100
7, 483480, Note_on_c, 5, 55, 0
7, 483480, Note_on_c, 5, 54, 100
7, 483600, Note_on_c, 5, 54, 0
7, 483600, Note_on_c, 5, 52, 100
7, 483720, Note_on_c, 5, 52, 0
7, 483720, Note_on_c, 5, 54, 100
7, 483840, Note_on_c, 5, 54, 0
7, 483840, Note_on_c, 5, 55, 100
7, 483960, Note_on_c, 5, 55, 0
7, 483960, Note_on_c, 5, 52, 100
7, 484080, Note_on_c, 5, 52, 0
7, 484080, Note_on_c, 5, 57, 100
7, 484200, Note_on_c, 5, 57, 0
7, 484200, Note_on_c, 5, 55, 100
7, 484320, Note_on_c, 5, 55, 0
7, 484320, Note_on_c, 5, 54, 100
7, 484440, Note_on_c, 5, 54, 0
7, 484440, Note_on_c, 5, 55, 100
7, 484560, Note_on_c, 5, 55, 0
7, 484560, Note_on_c, 5, 57, 100
7, 484680, Note_on_c, 5, 57, 0
7, 484680, Note_on_c, 5, 54, 100
7, 484800, Note_on_c, 5, 54, 0
7, 484800, Note_on_c, 5, 59, 100
7, 484920, Note_on_c, 5, 59, 0
7, 484920, Note_on_c, 5, 57, 100
7, 485040, Note_on_c, 5, 57, 0
7, 485040, Note_on_c, 5, 55, 100
7, 485160, Note_on_c, 5, 55, 0
7, 485160, Note_on_c, 5, 57, 100
7, 485280, Note_on_c, 5, 57, 0
7, 485280, Note_on_c, 5, 59, 100
7, 485400, Note_on_c, 5, 59, 0
7, 485400, Note_on_c, 5, 57, 100
7, 485520, Note_on_c, 5, 57, 0
7, 485520, Note_on_c, 5, 56, 100
7, 485760, Note_on_c, 5, 56, 0
7, 485760, Note_on_c, 5, 44, 100
7, 486000, Note_on_c, 5, 44, 0
7, 486240, Note_on_c, 5, 45, 100
7, 486480, Note_on_c, 5, 45, 0
7, 486480, Note_on_c, 5, 33, 100
7, 486720, Note_on_c, 5, 33, 0
7, 486960, Note_on_c, 5, 38, 100
7, 487200, Note_on_c, 5, 38, 0
7, 487200, Note_on_c, 5, 50, 100
7, 487320, Note_on_c, 5, 50, 0
7, 487320, Note_on_c, 5, 48, 100
7, 487440, Note_on_c, 5, 48, 0
7, 487440, Note_on_c, 5, 47, 100
7, 487560, Note_on_c, 5, 47, 0
7, 487560, Note_on_c, 5, 45, 100
7, 487680, Note_on_c, 5, 45, 0
7, 487680, Note_on_c, 5, 43, 100
7, 487800, Note_on_c, 5, 43, 0
7, 487800, Note_on_c, 5, 42, 100
7, 487920, Note_on_c, 5, 42, 0
7, 487920, Note_on_c, 5, 43, 100
7, 488040, Note_on_c, 5, 43, 0
7, 488040, Note_on_c, 5, 45, 100
7, 488160, Note_on_c, 5, 45, 0
7, 488160, Note_on_c, 5, 47, 100
7, 488280, Note_on_c, 5, 47, 0
7, 488280, Note_on_c, 5, 43, 100
7, 488400, Note_on_c, 5, 43, 0
7, 488400, Note_on_c, 5, 50, 100
7, 488520, Note_on_c, 5, 50, 0
7, 488520, Note_on_c, 5, 48, 100
7, 488640, Note_on_c, 5, 48, 0
7, 488640, Note_on_c, 5, 50, 100
7, 488760, Note_on_c, 5, 50, 0
7, 488760, Note_on_c, 5, 52, 100
7, 488880, Note_on_c, 5, 52, 0
7, 488880, Note_on_c, 5, 54, 100
7, 489000, Note_on_c, 5, 54, 0
7, 489000, Note_on_c, 5, 50, 100
7, 489120, Note_on_c, 5, 50, 0
7, 489120, Note_on_c, 5, 55, 100
7, 489240, Note_on_c, 5, 55, 0
7, 489240, Note_on_c, 5, 54, 100
7, 489360, Note_on_c, 5, 54, 0
7, 489360, Note_on_c, 5, 52, 100
7, 489480, Note_on_c, 5, 52, 0
7, 489480, Note_on_c, 5, 54, 100
7, 489600, Note_on_c, 5, 54, 0
7, 489600, Note_on_c, 5, 55, 100
7, 489720, Note_on_c, 5, 55, 0
7, 489720, Note_on_c, 5, 52, 100
7, 489840, Note_on_c, 5, 52, 0
7, 489840, Note_on_c, 5, 57, 100
7, 489960, Note_on_c, 5, 57, 0
7, 489960, Note_on_c, 5, 55, 100
7, 490080, Note_on_c, 5, 55, 0
7, 490080, Note_on_c, 5, 54, 100
7, 490200, Note_on_c, 5, 54, 0
7, 490200, Note_on_c, 5, 55, 100
7, 490320, Note_on_c, 5, 55, 0
7, 490320, Note_on_c, 5, 57, 100
7, 490440, Note_on_c, 5, 57, 0
7, 490440, Note_on_c, 5, 54, 100
7, 490560, Note_on_c, 5, 54, 0
7, 490560, Note_on_c, 5, 59, 100
7, 490680, Note_on_c, 5, 59, 0
7, 490680, Note_on_c, 5, 57, 100
7, 490800, Note_on_c, 5, 57, 0
7, 490800, Note_on_c, 5, 55, 100
7, 490920, Note_on_c, 5, 55, 0
7, 490920, Note_on_c, 5, 57, 100
7, 491040, Note_on_c, 5, 57, 0
7, 491040, Note_on_c, 5, 59, 100
7, 491160, Note_on_c, 5, 59, 0
7, 491160, Note_on_c, 5, 55, 100
7, 491280, Note_on_c, 5, 55, 0
7, 491280, Note_on_c, 5, 60, 100
7, 491400, Note_on_c, 5, 60, 0
7, 491400, Note_on_c, 5, 59, 100
7, 491520, Note_on_c, 5, 59, 0
7, 491520, Note_on_c, 5, 57, 100
7, 491640, Note_on_c, 5, 57, 0
7, 491640, Note_on_c, 5, 55, 100
7, 491760, Note_on_c, 5, 55, 0
7, 491760, Note_on_c, 5, 54, 100
7, 491880, Note_on_c, 5, 54, 0
7, 491880, Note_on_c, 5, 52, 100
7, 492000, Note_on_c, 5, 52, 0
7, 492000, Note_on_c, 5, 54, 100
7, 492120, Note_on_c, 5, 54, 0
7, 492120, Note_on_c, 5, 52, 100
7, 492240, Note_on_c, 5, 52, 0
7, 492240, Note_on_c, 5, 54, 100
7, 492360, Note_on_c, 5, 54, 0
7, 492360, Note_on_c, 5, 50, 100
7, 492480, Note_on_c, 5, 50, 0
7, 492480, Note_on_c, 5, 52, 100
7, 492600, Note_on_c, 5, 52, 0
7, 492600, Note_on_c, 5, 54, 100
7, 492720, Note_on_c, 5, 54, 0
7, 492720, Note_on_c, 5, 55, 100
7, 492840, Note_on_c, 5, 55, 0
7, 492840, Note_on_c, 5, 52, 100
7, 492960, Note_on_c, 5, 52, 0
7, 492960, Note_on_c, 5, 50, 100
7, 493080, Note_on_c, 5, 50, 0
7, 493080, Note_on_c, 5, 48, 100
7, 493200, Note_on_c, 5, 48, 0
7, 493200, Note_on_c, 5, 47, 100
7, 493320, Note_on_c, 5, 47, 0
7, 493320, Note_on_c, 5, 45, 100
7, 493440, Note_on_c, 5, 45, 0
7, 493440, Note_on_c, 5, 43, 100
7, 493560, Note_on_c, 5, 43, 0
7, 493560, Note_on_c, 5, 54, 100
7, 493680, Note_on_c, 5, 54, 0
7, 493680, Note_on_c, 5, 52, 100
7, 493800, Note_on_c, 5, 52, 0
7, 493800, Note_on_c, 5, 50, 100
7, 493920, Note_on_c, 5, 50, 0
7, 493920, Note_on_c, 5, 48, 100
7, 494040, Note_on_c, 5, 48, 0
7, 494040, Note_on_c, 5, 47, 100
7, 494160, Note_on_c, 5, 47, 0
7, 494160, Note_on_c, 5, 49, 100
7, 494280, Note_on_c, 5, 49, 0
7, 494280, Note_on_c, 5, 45, 100
7, 494400, Note_on_c, 5, 45, 0
7, 494400, Note_on_c, 5, 50, 100
7, 494520, Note_on_c, 5, 50, 0
7, 494520, Note_on_c, 5, 52, 100
7, 494640, Note_on_c, 5, 52, 0
7, 494640, Note_on_c, 5, 54, 100
7, 494760, Note_on_c, 5, 54, 0
7, 494760, Note_on_c, 5, 50, 100
7, 494880, Note_on_c, 5, 50, 0
7, 494880, Note_on_c, 5, 55, 100
7, 495000, Note_on_c, 5, 55, 0
7, 495000, Note_on_c, 5, 54, 100
7, 495120, Note_on_c, 5, 54, 0
7, 495120, Note_on_c, 5, 52, 100
7, 495240, Note_on_c, 5, 52, 0
7, 495240, Note_on_c, 5, 54, 100
7, 495360, Note_on_c, 5, 54, 0
7, 495360, Note_on_c, 5, 55, 100
7, 495480, Note_on_c, 5, 55, 0
7, 495480, Note_on_c, 5, 52, 100
7, 495600, Note_on_c, 5, 52, 0
7, 495600, Note_on_c, 5, 57, 100
7, 495720, Note_on_c, 5, 57, 0
7, 495720, Note_on_c, 5, 55, 100
7, 495840, Note_on_c, 5, 55, 0
7, 495840, Note_on_c, 5, 54, 100
7, 495960, Note_on_c, 5, 54, 0
7, 495960, Note_on_c, 5, 55, 100
7, 496080, Note_on_c, 5, 55, 0
7, 496080, Note_on_c, 5, 57, 100
7, 496200, Note_on_c, 5, 57, 0
7, 496200, Note_on_c, 5, 54, 100
7, 496320, Note_on_c, 5, 54, 0
7, 496320, Note_on_c, 5, 59, 100
7, 496440, Note_on_c, 5, 59, 0
7, 496440, Note_on_c, 5, 57, 100
7, 496560, Note_on_c, 5, 57, 0
7, 496560, Note_on_c, 5, 55, 100
7, 496680, Note_on_c, 5, 55, 0
7, 496680, Note_on_c, 5, 57, 100
7, 496800, Note_on_c, 5, 57, 0
7, 496800, Note_on_c, 5, 59, 100
7, 496920, Note_on_c, 5, 59, 0
7, 496920, Note_on_c, 5, 57, 100
7, 497040, Note_on_c, 5, 57, 0
7, 497040, Note_on_c, 5, 56, 100
7, 497280, Note_on_c, 5, 56, 0
7, 497280, Note_on_c, 5, 44, 100
7, 497520, Note_on_c, 5, 44, 0
7, 497760, Note_on_c, 5, 45, 100
7, 498000, Note_on_c, 5, 45, 0
7, 498000, Note_on_c, 5, 33, 100
7, 498240, Note_on_c, 5, 33, 0
7, 498480, Note_on_c, 5, 38, 100
7, 498720, Note_on_c, 5, 38, 0
7, 498720, Note_on_c, 5, 42, 100
7, 498960, Note_on_c, 5, 42, 0
7, 498960, Note_on_c, 5, 45, 100
7, 499200, Note_on_c, 5, 45, 0
7, 499200, Note_on_c, 5, 50, 100
7, 499320, Note_on_c, 5, 50, 0
7, 499320, Note_on_c, 5, 49, 100
7, 499440, Note_on_c, 5, 49, 0
7, 499440, Note_on_c, 5, 50, 100
7, 499560, Note_on_c, 5, 50, 0
7, 499560, Note_on_c, 5, 52, 100
7, 499680, Note_on_c, 5, 52, 0
7, 499680, Note_on_c, 5, 54, 100
7, 499800, Note_on_c, 5, 54, 0
7, 499800, Note_on_c, 5, 50, 100
7, 499920, Note_on_c, 5, 50, 0
7, 499920, Note_on_c, 5, 55, 100
7, 500040, Note_on_c, 5, 55, 0
7, 500040, Note_on_c, 5, 54, 100
7, 500160, Note_on_c, 5, 54, 0
7, 500160, Note_on_c, 5, 52, 100
7, 500280, Note_on_c, 5, 52, 0
7, 500280, Note_on_c, 5, 54, 100
7, 500400, Note_on_c, 5, 54, 0
7, 500400, Note_on_c, 5, 55, 100
7, 500520, Note_on_c, 5, 55, 0
7, 500520, Note_on_c, 5, 52, 100
7, 500640, Note_on_c, 5, 52, 0
7, 500640, Note_on_c, 5, 57, 100
7, 500760, Note_on_c, 5, 57, 0
7, 500760, Note_on_c, 5, 55, 100
7, 500880, Note_on_c, 5, 55, 0
7, 500880, Note_on_c, 5, 54, 100
7, 501000, Note_on_c, 5, 54, 0
7, 501000, Note_on_c, 5, 55, 100
7, 501120, Note_on_c, 5, 55, 0
7, 501120, Note_on_c, 5, 57, 100
7, 501240, Note_on_c, 5, 57, 0
7, 501240, Note_on_c, 5, 54, 100
7, 501360, Note_on_c, 5, 54, 0
7, 501360, Note_on_c, 5, 59, 100
7, 501480, Note_on_c, 5, 59, 0
7, 501480, Note_on_c, 5, 57, 100
7, 501600, Note_on_c, 5, 57, 0
7, 501600, Note_on_c, 5, 56, 100
7, 501720, Note_on_c, 5, 56, 0
7, 501720, Note_on_c, 5, 57, 100
7, 501840, Note_on_c, 5, 57, 0
7, 501840, Note_on_c, 5, 59, 100
7, 501960, Note_on_c, 5, 59, 0
7, 501960, Note_on_c, 5, 56, 100
7, 502080, Note_on_c, 5, 56, 0
7, 502080, Note_on_c, 5, 60, 100
7, 502200, Note_on_c, 5, 60, 0
7, 502200, Note_on_c, 5, 59, 100
7, 502320, Note_on_c, 5, 59, 0
7, 502320, Note_on_c, 5, 57, 100
7, 502440, Note_on_c, 5, 57, 0
7, 502440, Note_on_c, 5, 59, 100
7, 502560, Note_on_c, 5, 59, 0
7, 502560, Note_on_c, 5, 60, 100
7, 502680, Note_on_c, 5, 60, 0
7, 502680, Note_on_c, 5, 59, 100
7, 502800, Note_on_c, 5, 59, 0
7, 502800, Note_on_c, 5, 58, 100
7, 503040, Note_on_c, 5, 58, 0
7, 503040, Note_on_c, 5, 46, 100
7, 503280, Note_on_c, 5, 46, 0
7, 503520, Note_on_c, 5, 47, 100
7, 503760, Note_on_c, 5, 47, 0
7, 503760, Note_on_c, 5, 35, 100
7, 504000, Note_on_c, 5, 35, 0
7, 504240, Note_on_c, 5, 40, 100
7, 504480, Note_on_c, 5, 40, 0
7, 504480, Note_on_c, 5, 52, 100
7, 504600, Note_on_c, 5, 52, 0
7, 504600, Note_on_c, 5, 50, 100
7, 504720, Note_on_c, 5, 50, 0
7, 504720, Note_on_c, 5, 48, 100
7, 504840, Note_on_c, 5, 48, 0
7, 504840, Note_on_c, 5, 47, 100
7, 504960, Note_on_c, 5, 47, 0
7, 504960, Note_on_c, 5, 45, 100
7, 505080, Note_on_c, 5, 45, 0
7, 505080, Note_on_c, 5, 48, 100
7, 505200, Note_on_c, 5, 48, 0
7, 505200, Note_on_c, 5, 52, 100
7, 505320, Note_on_c, 5, 52, 0
7, 505320, Note_on_c, 5, 55, 100
7, 505440, Note_on_c, 5, 55, 0
7, 505440, Note_on_c, 5, 54, 100
7, 505560, Note_on_c, 5, 54, 0
7, 505560, Note_on_c, 5, 52, 100
7, 505680, Note_on_c, 5, 52, 0
7, 505680, Note_on_c, 5, 54, 100
7, 505920, Note_on_c, 5, 54, 0
7, 505920, Note_on_c, 5, 43, 100
7, 506160, Note_on_c, 5, 43, 0
7, 506400, Note_on_c, 5, 55, 100
7, 506640, Note_on_c, 5, 55, 0
7, 506640, Note_on_c, 5, 45, 100
7, 506880, Note_on_c, 5, 45, 0
7, 507120, Note_on_c, 5, 57, 100
7, 507360, Note_on_c, 5, 57, 0
7, 507360, Note_on_c, 5, 47, 100
7, 507600, Note_on_c, 5, 47, 0
7, 507840, Note_on_c, 5, 59, 100
7, 508080, Note_on_c, 5, 59, 0
7, 508080, Note_on_c, 5, 48, 100
7, 508320, Note_on_c, 5, 48, 0
7, 508560, Note_on_c, 5, 49, 100
7, 508800, Note_on_c, 5, 49, 0
7, 508800, Note_on_c, 5, 37, 100
7, 509040, Note_on_c, 5, 37, 0
7, 509040, Note_on_c, 5, 49, 100
7, 509280, Note_on_c, 5, 49, 0
7, 509280, Note_on_c, 5, 50, 100
7, 509520, Note_on_c, 5, 50, 0
7, 509520, Note_on_c, 5, 38, 100
7, 509760, Note_on_c, 5, 38, 0
7, 509760, Note_on_c, 5, 50, 100
7, 510000, Note_on_c, 5, 50, 0
7, 510000, Note_on_c, 5, 43, 100
7, 510240, Note_on_c, 5, 43, 0
7, 510240, Note_on_c, 5, 55, 100
7, 510360, Note_on_c, 5, 55, 0
7, 510360, Note_on_c, 5, 54, 100
7, 510480, Note_on_c, 5, 54, 0
7, 510480, Note_on_c, 5, 52, 100
7, 510600, Note_on_c, 5, 52, 0
7, 510600, Note_on_c, 5, 55, 100
7, 510720, Note_on_c, 5, 55, 0
7, 510720, Note_on_c, 5, 54, 100
7, 510840, Note_on_c, 5, 54, 0
7, 510840, Note_on_c, 5, 52, 100
7, 510960, Note_on_c, 5, 52, 0
7, 510960, Note_on_c, 5, 50, 100
7, 511080, Note_on_c, 5, 50, 0
7, 511080, Note_on_c, 5, 52, 100
7, 511200, Note_on_c, 5, 52, 0
7, 511200, Note_on_c, 5, 54, 100
7, 511320, Note_on_c, 5, 54, 0
7, 511320, Note_on_c, 5, 50, 100
7, 511440, Note_on_c, 5, 50, 0
7, 511440, Note_on_c, 5, 55, 100
7, 511560, Note_on_c, 5, 55, 0
7, 511560, Note_on_c, 5, 54, 100
7, 511680, Note_on_c, 5, 54, 0
7, 511680, Note_on_c, 5, 52, 100
7, 511800, Note_on_c, 5, 52, 0
7, 511800, Note_on_c, 5, 54, 100
7, 511920, Note_on_c, 5, 54, 0
7, 511920, Note_on_c, 5, 55, 100
7, 512040, Note_on_c, 5, 55, 0
7, 512040, Note_on_c, 5, 52, 100
7, 512160, Note_on_c, 5, 52, 0
7, 512160, Note_on_c, 5, 57, 100
7, 512280, Note_on_c, 5, 57, 0
7, 512280, Note_on_c, 5, 55, 100
7, 512400, Note_on_c, 5, 55, 0
7, 512400, Note_on_c, 5, 54, 100
7, 512520, Note_on_c, 5, 54, 0
7, 512520, Note_on_c, 5, 55, 100
7, 512640, Note_on_c, 5, 55, 0
7, 512640, Note_on_c, 5, 57, 100
7, 512760, Note_on_c, 5, 57, 0
7, 512760, Note_on_c, 5, 54, 100
7, 512880, Note_on_c, 5, 54, 0
7, 512880, Note_on_c, 5, 59, 100
7, 513000, Note_on_c, 5, 59, 0
7, 513000, Note_on_c, 5, 57, 100
7, 513120, Note_on_c, 5, 57, 0
7, 513120, Note_on_c, 5, 56, 100
7, 513240, Note_on_c, 5, 56, 0
7, 513240, Note_on_c, 5, 57, 100
7, 513360, Note_on_c, 5, 57, 0
7, 513360, Note_on_c, 5, 59, 100
7, 513480, Note_on_c, 5, 59, 0
7, 513480, Note_on_c, 5, 56, 100
7, 513600, Note_on_c, 5, 56, 0
7, 513600, Note_on_c, 5, 60, 100
7, 513720, Note_on_c, 5, 60, 0
7, 513720, Note_on_c, 5, 59, 100
7, 513840, Note_on_c, 5, 59, 0
7, 513840, Note_on_c, 5, 57, 100
7, 513960, Note_on_c, 5, 57, 0
7, 513960, Note_on_c, 5, 59, 100
7, 514080, Note_on_c, 5, 59, 0
7, 514080, Note_on_c, 5, 60, 100
7, 514200, Note_on_c, 5, 60, 0
7, 514200, Note_on_c, 5, 59, 100
7, 514320, Note_on_c, 5, 59, 0
7, 514320, Note_on_c, 5, 58, 100
7, 514560, Note_on_c, 5, 58, 0
7, 514560, Note_on_c, 5, 46, 100
7, 514800, Note_on_c, 5, 46, 0
7, 515040, Note_on_c, 5, 47, 100
7, 515280, Note_on_c, 5, 47, 0
7, 515280, Note_on_c, 5, 35, 100
7, 515520, Note_on_c, 5, 35, 0
7, 515760, Note_on_c, 5, 40, 100
7, 516000, Note_on_c, 5, 40, 0
7, 516000, Note_on_c, 5, 52, 100
7, 516120, Note_on_c, 5, 52, 0
7, 516120, Note_on_c, 5, 50, 100
7, 516240, Note_on_c, 5, 50, 0
7, 516240, Note_on_c, 5, 48, 100
7, 516360, Note_on_c, 5, 48, 0
7, 516360, Note_on_c, 5, 47, 100
7, 516480, Note_on_c, 5, 47, 0
7, 516480, Note_on_c, 5, 45, 100
7, 516600, Note_on_c, 5, 45, 0
7, 516600, Note_on_c, 5, 48, 100
7, 516720, Note_on_c, 5, 48, 0
7, 516720, Note_on_c, 5, 52, 100
7, 516840, Note_on_c, 5, 52, 0
7, 516840, Note_on_c, 5, 55, 100
7, 516960, Note_on_c, 5, 55, 0
7, 516960, Note_on_c, 5, 54, 100
7, 517080, Note_on_c, 5, 54, 0
7, 517080, Note_on_c, 5, 52, 100
7, 517200, Note_on_c, 5, 52, 0
7, 517200, Note_on_c, 5, 54, 100
7, 517440, Note_on_c, 5, 54, 0
7, 517440, Note_on_c, 5, 43, 100
7, 517680, Note_on_c, 5, 43, 0
7, 517920, Note_on_c, 5, 55, 100
7, 518160, Note_on_c, 5, 55, 0
7, 518160, Note_on_c, 5, 45, 100
7, 518400, Note_on_c, 5, 45, 0
7, 518640, Note_on_c, 5, 57, 100
7, 518880, Note_on_c, 5, 57, 0
7, 518880, Note_on_c, 5, 47, 100
7, 519120, Note_on_c, 5, 47, 0
7, 519360, Note_on_c, 5, 59, 100
7, 519600, Note_on_c, 5, 59, 0
7, 519600, Note_on_c, 5, 48, 100
7, 519840, Note_on_c, 5, 48, 0
7, 520080, Note_on_c, 5, 49, 100
7, 520320, Note_on_c, 5, 49, 0
7, 520320, Note_on_c, 5, 37, 100
7, 520560, Note_on_c, 5, 37, 0
7, 520560, Note_on_c, 5, 49, 100
7, 520800, Note_on_c, 5, 49, 0
7, 520800, Note_on_c, 5, 50, 100
7, 521040, Note_on_c, 5, 50, 0
7, 521040, Note_on_c, 5, 38, 100
7, 521280, Note_on_c, 5, 38, 0
7, 521280, Note_on_c, 5, 50, 100
7, 521520, Note_on_c, 5, 50, 0
7, 521520, Note_on_c, 5, 43, 100
7, 521760, Note_on_c, 5, 43, 0
7, 521760, Note_on_c, 5, 50, 100
7, 522000, Note_on_c, 5, 50, 0
7, 522000, Note_on_c, 5, 55, 100
7, 522240, Note_on_c, 5, 55, 0
7, 706560, Note_on_c, 5, 43, 100
7, 707040, Note_on_c, 5, 43, 0
7, 707040, Note_on_c, 5, 55, 100
7, 707760, Note_on_c, 5, 55, 0
7, 707760, Note_on_c, 5, 54, 100
7, 707880, Note_on_c, 5, 54, 0
7, 707880, Note_on_c, 5, 52, 100
7, 708000, Note_on_c, 5, 52, 0
7, 708000, Note_on_c, 5, 54, 100
7, 708240, Note_on_c, 5, 54, 0
7, 708240, Note_on_c, 5, 50, 100
7, 708480, Note_on_c, 5, 50, 0
7, 708480, Note_on_c, 5, 55, 100
7, 708720, Note_on_c, 5, 55, 0
7, 708720, Note_on_c, 5, 57, 100
7, 708960, Note_on_c, 5, 57, 0
7, 708960, Note_on_c, 5, 59, 100
7, 709200, Note_on_c, 5, 59, 0
7, 709200, Note_on_c, 5, 60, 100
7, 709440, Note_on_c, 5, 60, 0
7, 709440, Note_on_c, 5, 62, 100
7, 710160, Note_on_c, 5, 62, 0
7, 710160, Note_on_c, 5, 63, 100
7, 710400, Note_on_c, 5, 63, 0
7, 710400, Note_on_c, 5, 64, 100
7, 710880, Note_on_c, 5, 64, 0
7, 711120, Note_on_c, 5, 60, 100
7, 711360, Note_on_c, 5, 60, 0
7, 711360, Note_on_c, 5, 55, 100
7, 711600, Note_on_c, 5, 55, 0
7, 711600, Note_on_c, 5, 62, 100
7, 711840, Note_on_c, 5, 62, 0
7, 711840, Note_on_c, 5, 67, 100
7, 712080, Note_on_c, 5, 67, 0
7, 712080, Note_on_c, 5, 69, 100
7, 712200, Note_on_c, 5, 69, 0
7, 712200, Note_on_c, 5, 71, 100
7, 712320, Note_on_c, 5, 71, 0
7, 712320, Note_on_c, 5, 72, 100
7, 712560, Note_on_c, 5, 72, 0
7, 712560, Note_on_c, 5, 71, 100
7, 712800, Note_on_c, 5, 71, 0
7, 712800, Note_on_c, 5, 69, 100
7, 713040, Note_on_c, 5, 69, 0
7, 713040, Note_on_c, 5, 74, 100
7, 713280, Note_on_c, 5, 74, 0
7, 713280, Note_on_c, 5, 67, 100
7, 714480, Note_on_c, 5, 67, 0
7, 714480, Note_on_c, 5, 55, 100
7, 714960, Note_on_c, 5, 55, 0
7, 714960, Note_on_c, 5, 54, 100
7, 715200, Note_on_c, 5, 54, 0
7, 715200, Note_on_c, 5, 52, 100
7, 715440, Note_on_c, 5, 52, 0
7, 715440, Note_on_c, 5, 64, 100
7, 715560, Note_on_c, 5, 64, 0
7, 715560, Note_on_c, 5, 63, 100
7, 715680, Note_on_c, 5, 63, 0
7, 715680, Note_on_c, 5, 64, 100
7, 716400, Note_on_c, 5, 64, 0
7, 716400, Note_on_c, 5, 52, 100
7, 716880, Note_on_c, 5, 52, 0
7, 716880, Note_on_c, 5, 50, 100
7, 717120, Note_on_c, 5, 50, 0
7, 717120, Note_on_c, 5, 48, 100
7, 717360, Note_on_c, 5, 48, 0
7, 717360, Note_on_c, 5, 60, 100
7, 717480, Note_on_c, 5, 60, 0
7, 717480, Note_on_c, 5, 59, 100
7, 717600, Note_on_c, 5, 59, 0
7, 717600, Note_on_c, 5, 60, 100
7, 717720, Note_on_c, 5, 60, 0
7, 717720, Note_on_c, 5, 62, 100
7, 717840, Note_on_c, 5, 62, 0
7, 717840, Note_on_c, 5, 64, 100
7, 717960, Note_on_c, 5, 64, 0
7, 717960, Note_on_c, 5, 62, 100
7, 718080, Note_on_c, 5, 62, 0
7, 718080, Note_on_c, 5, 61, 100
7, 718200, Note_on_c, 5, 61, 0
7, 718200, Note_on_c, 5, 57, 100
7, 718320, Note_on_c, 5, 57, 0
7, 718320, Note_on_c, 5, 62, 100
7, 718440, Note_on_c, 5, 62, 0
7, 718440, Note_on_c, 5, 61, 100
7, 718560, Note_on_c, 5, 61, 0
7, 718560, Note_on_c, 5, 59, 100
7, 718680, Note_on_c, 5, 59, 0
7, 718680, Note_on_c, 5, 57, 100
7, 718800, Note_on_c, 5, 57, 0
7, 718800, Note_on_c, 5, 59, 100
7, 718920, Note_on_c, 5, 59, 0
7, 718920, Note_on_c, 5, 56, 100
7, 719040, Note_on_c, 5, 56, 0
7, 719040, Note_on_c, 5, 57, 100
7, 719160, Note_on_c, 5, 57, 0
7, 719160, Note_on_c, 5, 59, 100
7, 719280, Note_on_c, 5, 59, 0
7, 719280, Note_on_c, 5, 57, 100
7, 719400, Note_on_c, 5, 57, 0
7, 719400, Note_on_c, 5, 55, 100
7, 719520, Note_on_c, 5, 55, 0
7, 719520, Note_on_c, 5, 54, 100
7, 719640, Note_on_c, 5, 54, 0
7, 719640, Note_on_c, 5, 52, 100
7, 719760, Note_on_c, 5, 52, 0
7, 719760, Note_on_c, 5, 50, 100
7, 719880, Note_on_c, 5, 50, 0
7, 719880, Note_on_c, 5, 49, 100
7, 720000, Note_on_c, 5, 49, 0
7, 720000, Note_on_c, 5, 50, 100
7, 720120, Note_on_c, 5, 50, 0
7, 720120, Note_on_c, 5, 49, 100
7, 720240, Note_on_c, 5, 49, 0
7, 720240, Note_on_c, 5, 47, 100
7, 720360, Note_on_c, 5, 47, 0
7, 720360, Note_on_c, 5, 45, 100
7, 720480, Note_on_c, 5, 45, 0
7, 720480, Note_on_c, 5, 43, 100
7, 720600, Note_on_c, 5, 43, 0
7, 720600, Note_on_c, 5, 40, 100
7, 720720, Note_on_c, 5, 40, 0
7, 720720, Note_on_c, 5, 45, 100
7, 720960, Note_on_c, 5, 45, 0
7, 720960, Note_on_c, 5, 38, 100
7, 721200, Note_on_c, 5, 38, 0
7, 721200, Note_on_c, 5, 42, 100
7, 721320, Note_on_c, 5, 42, 0
7, 721320, Note_on_c, 5, 45, 100
7, 721440, Note_on_c, 5, 45, 0
7, 721440, Note_on_c, 5, 50, 100
7, 721920, Note_on_c, 5, 50, 0
7, 721920, Note_on_c, 5, 43, 100
7, 722400, Note_on_c, 5, 43, 0
7, 722400, Note_on_c, 5, 55, 100
7, 723120, Note_on_c, 5, 55, 0
7, 723120, Note_on_c, 5, 54, 100
7, 723240, Note_on_c, 5, 54, 0
7, 723240, Note_on_c, 5, 52, 100
7, 723360, Note_on_c, 5, 52, 0
7, 723360, Note_on_c, 5, 54, 100
7, 723600, Note_on_c, 5, 54, 0
7, 723600, Note_on_c, 5, 50, 100
7, 723840, Note_on_c, 5, 50, 0
7, 723840, Note_on_c, 5, 55, 100
7, 724080, Note_on_c, 5, 55, 0
7, 724080, Note_on_c, 5, 57, 100
7, 724320, Note_on_c, 5, 57, 0
7, 724320, Note_on_c, 5, 59, 100
7, 724560, Note_on_c, 5, 59, 0
7, 724560, Note_on_c, 5, 60, 100
7, 724800, Note_on_c, 5, 60, 0
7, 724800, Note_on_c, 5, 62, 100
7, 725520, Note_on_c, 5, 62, 0
7, 725520, Note_on_c, 5, 63, 100
7, 725760, Note_on_c, 5, 63, 0
7, 725760, Note_on_c, 5, 64, 100
7, 726240, Note_on_c, 5, 64, 0
7, 726480, Note_on_c, 5, 60, 100
7, 726720, Note_on_c, 5, 60, 0
7, 726720, Note_on_c, 5, 55, 100
7, 726960, Note_on_c, 5, 55, 0
7, 726960, Note_on_c, 5, 62, 100
7, 727200, Note_on_c, 5, 62, 0
7, 727200, Note_on_c, 5, 67, 100
7, 727440, Note_on_c, 5, 67, 0
7, 727440, Note_on_c, 5, 69, 100
7, 727560, Note_on_c, 5, 69, 0
7, 727560, Note_on_c, 5, 71, 100
7, 727680, Note_on_c, 5, 71, 0
7, 727680, Note_on_c, 5, 72, 100
7, 727920, Note_on_c, 5, 72, 0
7, 727920, Note_on_c, 5, 71, 100
7, 728160, Note_on_c, 5, 71, 0
7, 728160, Note_on_c, 5, 69, 100
7, 728400, Note_on_c, 5, 69, 0
7, 728400, Note_on_c, 5, 74, 100
7, 728640, Note_on_c, 5, 74, 0
7, 728640, Note_on_c, 5, 67, 100
7, 729840, Note_on_c, 5, 67, 0
7, 729840, Note_on_c, 5, 55, 100
7, 730320, Note_on_c, 5, 55, 0
7, 730320, Note_on_c, 5, 54, 100
7, 730560, Note_on_c, 5, 54, 0
7, 730560, Note_on_c, 5, 52, 100
7, 730800, Note_on_c, 5, 52, 0
7, 730800, Note_on_c, 5, 64, 100
7, 730920, Note_on_c, 5, 64, 0
7, 730920, Note_on_c, 5, 63, 100
7, 731040, Note_on_c, 5, 63, 0
7, 731040, Note_on_c, 5, 64, 100
7, 731760, Note_on_c, 5, 64, 0
7, 731760, Note_on_c, 5, 52, 100
7, 732240, Note_on_c, 5, 52, 0
7, 732240, Note_on_c, 5, 50, 100
7, 732480, Note_on_c, 5, 50, 0
7, 732480, Note_on_c, 5, 48, 100
7, 732720, Note_on_c, 5, 48, 0
7, 732720, Note_on_c, 5, 60, 100
7, 732840, Note_on_c, 5, 60, 0
7, 732840, Note_on_c, 5, 59, 100
7, 732960, Note_on_c, 5, 59, 0
7, 732960, Note_on_c, 5, 60, 100
7, 733080, Note_on_c, 5, 60, 0
7, 733080, Note_on_c, 5, 62, 100
7, 733200, Note_on_c, 5, 62, 0
7, 733200, Note_on_c, 5, 64, 100
7, 733320, Note_on_c, 5, 64, 0
7, 733320, Note_on_c, 5, 62, 100
7, 733440, Note_on_c, 5, 62, 0
7, 733440, Note_on_c, 5, 61, 100
7, 733560, Note_on_c, 5, 61, 0
7, 733560, Note_on_c, 5, 57, 100
7, 733680, Note_on_c, 5, 57, 0
7, 733680, Note_on_c, 5, 62, 100
7, 733800, Note_on_c, 5, 62, 0
7, 733800, Note_on_c, 5, 61, 100
7, 733920, Note_on_c, 5, 61, 0
7, 733920, Note_on_c, 5, 59, 100
7, 734040, Note_on_c, 5, 59, 0
7, 734040, Note_on_c, 5, 57, 100
7, 734160, Note_on_c, 5, 57, 0
7, 734160, Note_on_c, 5, 59, 100
7, 734280, Note_on_c, 5, 59, 0
7, 734280, Note_on_c, 5, 56, 100
7, 734400, Note_on_c, 5, 56, 0
7, 734400, Note_on_c, 5, 57, 100
7, 734520, Note_on_c, 5, 57, 0
7, 734520, Note_on_c, 5, 59, 100
7, 734640, Note_on_c, 5, 59, 0
7, 734640, Note_on_c, 5, 57, 100
7, 734760, Note_on_c, 5, 57, 0
7, 734760, Note_on_c, 5, 55, 100
7, 734880, Note_on_c, 5, 55, 0
7, 734880, Note_on_c, 5, 54, 100
7, 735000, Note_on_c, 5, 54, 0
7, 735000, Note_on_c, 5, 52, 100
7, 735120, Note_on_c, 5, 52, 0
7, 735120, Note_on_c, 5, 50, 100
7, 735240, Note_on_c, 5, 50, 0
7, 735240, Note_on_c, 5, 49, 100
7, 735360, Note_on_c, 5, 49, 0
7, 735360, Note_on_c, 5, 50, 100
7, 735480, Note_on_c, 5, 50, 0
7, 735480, Note_on_c, 5, 49, 100
7, 735600, Note_on_c, 5, 49, 0
7, 735600, Note_on_c, 5, 47, 100
7, 735720, Note_on_c, 5, 47, 0
7, 735720, Note_on_c, 5, 45, 100
7, 735840, Note_on_c, 5, 45, 0
7, 735840, Note_on_c, 5, 43, 100
7, 735960, Note_on_c, 5, 43, 0
7, 735960, Note_on_c, 5, 40, 100
7, 736080, Note_on_c, 5, 40, 0
7, 736080, Note_on_c, 5, 45, 100
7, 736320, Note_on_c, 5, 45, 0
7, 736320, Note_on_c, 5, 38, 100
7, 736560, Note_on_c, 5, 38, 0
7, 736560, Note_on_c, 5, 42, 100
7, 736680, Note_on_c, 5, 42, 0
7, 736680, Note_on_c, 5, 45, 100
7, 736800, Note_on_c, 5, 45, 0
7, 736800, Note_on_c, 5, 50, 100
7, 737280, Note_on_c, 5, 50, 0
7, 737280, Note_on_c, 5, 50, 100
7, 737520, Note_on_c, 5, 50, 0
7, 737520, Note_on_c, 5, 62, 100
7, 738000, Note_on_c, 5, 62, 0
7, 738000, Note_on_c, 5, 60, 100
7, 738240, Note_on_c, 5, 60, 0
7, 738240, Note_on_c, 5, 59, 100
7, 738360, Note_on_c, 5, 59, 0
7, 738360, Note_on_c, 5, 57, 100
7, 738480, Note_on_c, 5, 57, 0
7, 738480, Note_on_c, 5, 59, 100
7, 738600, Note_on_c, 5, 59, 0
7, 738600, Note_on_c, 5, 60, 100
7, 738720, Note_on_c, 5, 60, 0
7, 738720, Note_on_c, 5, 59, 100
7, 738840, Note_on_c, 5, 59, 0
7, 738840, Note_on_c, 5, 57, 100
7, 738960, Note_on_c, 5, 57, 0
7, 738960, Note_on_c, 5, 55, 100
7, 739080, Note_on_c, 5, 55, 0
7, 739080, Note_on_c, 5, 54, 100
7, 739200, Note_on_c, 5, 54, 0
7, 739200, Note_on_c, 5, 55, 100
7, 739440, Note_on_c, 5, 55, 0
7, 739440, Note_on_c, 5, 67, 100
7, 739920, Note_on_c, 5, 67, 0
7, 739920, Note_on_c, 5, 66, 100
7, 740160, Note_on_c, 5, 66, 0
7, 740160, Note_on_c, 5, 64, 100
7, 740280, Note_on_c, 5, 64, 0
7, 740280, Note_on_c, 5, 63, 100
7, 740400, Note_on_c, 5, 63, 0
7, 740400, Note_on_c, 5, 64, 100
7, 740520, Note_on_c, 5, 64, 0
7, 740520, Note_on_c, 5, 66, 100
7, 740640, Note_on_c, 5, 66, 0
7, 740640, Note_on_c, 5, 64, 100
7, 740760, Note_on_c, 5, 64, 0
7, 740760, Note_on_c, 5, 62, 100
7, 740880, Note_on_c, 5, 62, 0
7, 740880, Note_on_c, 5, 60, 100
7, 741000, Note_on_c, 5, 60, 0
7, 741000, Note_on_c, 5, 59, 100
7, 741120, Note_on_c, 5, 59, 0
7, 741120, Note_on_c, 5, 58, 100
7, 741240, Note_on_c, 5, 58, 0
7, 741240, Note_on_c, 5, 64, 100
7, 741360, Note_on_c, 5, 64, 0
7, 741360, Note_on_c, 5, 66, 100
7, 741480, Note_on_c, 5, 66, 0
7, 741480, Note_on_c, 5, 67, 100
7, 741600, Note_on_c, 5, 67, 0
7, 741600, Note_on_c, 5, 69, 100
7, 741840, Note_on_c, 5, 69, 0
7, 741840, Note_on_c, 5, 57, 100
7, 742080, Note_on_c, 5, 57, 0
7, 742080, Note_on_c, 5, 55, 100
7, 742200, Note_on_c, 5, 55, 0
7, 742200, Note_on_c, 5, 57, 100
7, 742320, Note_on_c, 5, 57, 0
7, 742320, Note_on_c, 5, 59, 100
7, 742440, Note_on_c, 5, 59, 0
7, 742440, Note_on_c, 5, 55, 100
7, 742560, Note_on_c, 5, 55, 0
7, 742560, Note_on_c, 5, 52, 100
7, 742680, Note_on_c, 5, 52, 0
7, 742680, Note_on_c, 5, 54, 100
7, 742800, Note_on_c, 5, 54, 0
7, 742800, Note_on_c, 5, 55, 100
7, 742920, Note_on_c, 5, 55, 0
7, 742920, Note_on_c, 5, 52, 100
7, 743040, Note_on_c, 5, 52, 0
7, 743040, Note_on_c, 5, 60, 100
7, 743280, Note_on_c, 5, 60, 0
7, 743280, Note_on_c, 5, 57, 100
7, 743520, Note_on_c, 5, 57, 0
7, 743520, Note_on_c, 5, 59, 100
7, 743760, Note_on_c, 5, 59, 0
7, 743760, Note_on_c, 5, 47, 100
7, 744000, Note_on_c, 5, 47, 0
7, 744000, Note_on_c, 5, 40, 100
7, 744480, Note_on_c, 5, 40, 0
7, 744720, Note_on_c, 5, 52, 100
7, 745200, Note_on_c, 5, 52, 0
7, 745200, Note_on_c, 5, 48, 100
7, 745440, Note_on_c, 5, 48, 0
7, 745440, Note_on_c, 5, 50, 100
7, 745680, Note_on_c, 5, 50, 0
7, 745680, Note_on_c, 5, 52, 100
7, 745920, Note_on_c, 5, 52, 0
7, 745920, Note_on_c, 5, 45, 100
7, 746160, Note_on_c, 5, 45, 0
7, 746160, Note_on_c, 5, 57, 100
7, 746400, Note_on_c, 5, 57, 0
7, 746400, Note_on_c, 5, 52, 100
7, 746520, Note_on_c, 5, 52, 0
7, 746520, Note_on_c, 5, 50, 100
7, 746640, Note_on_c, 5, 50, 0
7, 746640, Note_on_c, 5, 52, 100
7, 746760, Note_on_c, 5, 52, 0
7, 746760, Note_on_c, 5, 54, 100
7, 746880, Note_on_c, 5, 54, 0
7, 746880, Note_on_c, 5, 55, 100
7, 747000, Note_on_c, 5, 55, 0
7, 747000, Note_on_c, 5, 57, 100
7, 747120, Note_on_c, 5, 57, 0
7, 747120, Note_on_c, 5, 59, 100
7, 747240, Note_on_c, 5, 59, 0
7, 747240, Note_on_c, 5, 55, 100
7, 747360, Note_on_c, 5, 55, 0
7, 747360, Note_on_c, 5, 57, 100
7, 747480, Note_on_c, 5, 57, 0
7, 747480, Note_on_c, 5, 54, 100
7, 747600, Note_on_c, 5, 54, 0
7, 747600, Note_on_c, 5, 55, 100
7, 747720, Note_on_c, 5, 55, 0
7, 747720, Note_on_c, 5, 57, 100
7, 747840, Note_on_c, 5, 57, 0
7, 747840, Note_on_c, 5, 50, 100
7, 747960, Note_on_c, 5, 50, 0
7, 747960, Note_on_c, 5, 52, 100
7, 748080, Note_on_c, 5, 52, 0
7, 748080, Note_on_c, 5, 54, 100
7, 748200, Note_on_c, 5, 54, 0
7, 748200, Note_on_c, 5, 55, 100
7, 748320, Note_on_c, 5, 55, 0
7, 748320, Note_on_c, 5, 54, 100
7, 748440, Note_on_c, 5, 54, 0
7, 748440, Note_on_c, 5, 52, 100
7, 748560, Note_on_c, 5, 52, 0
7, 748560, Note_on_c, 5, 50, 100
7, 748680, Note_on_c, 5, 50, 0
7, 748680, Note_on_c, 5, 48, 100
7, 748800, Note_on_c, 5, 48, 0
7, 748800, Note_on_c, 5, 47, 100
7, 748920, Note_on_c, 5, 47, 0
7, 748920, Note_on_c, 5, 43, 100
7, 749040, Note_on_c, 5, 43, 0
7, 749040, Note_on_c, 5, 45, 100
7, 749160, Note_on_c, 5, 45, 0
7, 749160, Note_on_c, 5, 47, 100
7, 749280, Note_on_c, 5, 47, 0
7, 749280, Note_on_c, 5, 48, 100
7, 749400, Note_on_c, 5, 48, 0
7, 749400, Note_on_c, 5, 50, 100
7, 749520, Note_on_c, 5, 50, 0
7, 749520, Note_on_c, 5, 52, 100
7, 749640, Note_on_c, 5, 52, 0
7, 749640, Note_on_c, 5, 54, 100
7, 749760, Note_on_c, 5, 54, 0
7, 749760, Note_on_c, 5, 55, 100
7, 749880, Note_on_c, 5, 55, 0
7, 749880, Note_on_c, 5, 57, 100
7, 750000, Note_on_c, 5, 57, 0
7, 750000, Note_on_c, 5, 59, 100
7, 750120, Note_on_c, 5, 59, 0
7, 750120, Note_on_c, 5, 57, 100
7, 750240, Note_on_c, 5, 57, 0
7, 750240, Note_on_c, 5, 55, 100
7, 750360, Note_on_c, 5, 55, 0
7, 750360, Note_on_c, 5, 54, 100
7, 750480, Note_on_c, 5, 54, 0
7, 750480, Note_on_c, 5, 52, 100
7, 750600, Note_on_c, 5, 52, 0
7, 750600, Note_on_c, 5, 50, 100
7, 750720, Note_on_c, 5, 50, 0
7, 750720, Note_on_c, 5, 48, 100
7, 750840, Note_on_c, 5, 48, 0
7, 750840, Note_on_c, 5, 47, 100
7, 750960, Note_on_c, 5, 47, 0
7, 750960, Note_on_c, 5, 48, 100
7, 751080, Note_on_c, 5, 48, 0
7, 751080, Note_on_c, 5, 45, 100
7, 751200, Note_on_c, 5, 45, 0
7, 751200, Note_on_c, 5, 50, 100
7, 751440, Note_on_c, 5, 50, 0
7, 751440, Note_on_c, 5, 38, 100
7, 751680, Note_on_c, 5, 38, 0
7, 751680, Note_on_c, 5, 43, 100
7, 751920, Note_on_c, 5, 43, 0
7, 751920, Note_on_c, 5, 47, 100
7, 752040, Note_on_c, 5, 47, 0
7, 752040, Note_on_c, 5, 50, 100
7, 752160, Note_on_c, 5, 50, 0
7, 752160, Note_on_c, 5, 55, 100
7, 752640, Note_on_c, 5, 55, 0
7, 752640, Note_on_c, 5, 50, 100
7, 752880, Note_on_c, 5, 50, 0
7, 752880, Note_on_c, 5, 62, 100
7, 753360, Note_on_c, 5, 62, 0
7, 753360, Note_on_c, 5, 60, 100
7, 753600, Note_on_c, 5, 60, 0
7, 753600, Note_on_c, 5, 59, 100
7, 753720, Note_on_c, 5, 59, 0
7, 753720, Note_on_c, 5, 57, 100
7, 753840, Note_on_c, 5, 57, 0
7, 753840, Note_on_c, 5, 59, 100
7, 753960, Note_on_c, 5, 59, 0
7, 753960, Note_on_c, 5, 60, 100
7, 754080, Note_on_c, 5, 60, 0
7, 754080, Note_on_c, 5, 59, 100
7, 754200, Note_on_c, 5, 59, 0
7, 754200, Note_on_c, 5, 57, 100
7, 754320, Note_on_c, 5, 57, 0
7, 754320, Note_on_c, 5, 55, 100
7, 754440, Note_on_c, 5, 55, 0
7, 754440, Note_on_c, 5, 54, 100
7, 754560, Note_on_c, 5, 54, 0
7, 754560, Note_on_c, 5, 55, 100
7, 754800, Note_on_c, 5, 55, 0
7, 754800, Note_on_c, 5, 67, 100
7, 755280, Note_on_c, 5, 67, 0
7, 755280, Note_on_c, 5, 66, 100
7, 755520, Note_on_c, 5, 66, 0
7, 755520, Note_on_c, 5, 64, 100
7, 755640, Note_on_c, 5, 64, 0
7, 755640, Note_on_c, 5, 63, 100
7, 755760, Note_on_c, 5, 63, 0
7, 755760, Note_on_c, 5, 64, 100
7, 755880, Note_on_c, 5, 64, 0
7, 755880, Note_on_c, 5, 66, 100
7, 756000, Note_on_c, 5, 66, 0
7, 756000, Note_on_c, 5, 64, 100
7, 756120, Note_on_c, 5, 64, 0
7, 756120, Note_on_c, 5, 62, 100
7, 756240, Note_on_c, 5, 62, 0
7, 756240, Note_on_c, 5, 60, 100
7, 756360, Note_on_c, 5, 60, 0
7, 756360, Note_on_c, 5, 59, 100
7, 756480, Note_on_c, 5, 59, 0
7, 756480, Note_on_c, 5, 58, 100
7, 756600, Note_on_c, 5, 58, 0
7, 756600, Note_on_c, 5, 64, 100
7, 756720, Note_on_c, 5, 64, 0
7, 756720, Note_on_c, 5, 66, 100
7, 756840, Note_on_c, 5, 66, 0
7, 756840, Note_on_c, 5, 67, 100
7, 756960, Note_on_c, 5, 67, 0
7, 756960, Note_on_c, 5, 69, 100
7, 757200, Note_on_c, 5, 69, 0
7, 757200, Note_on_c, 5, 57, 100
7, 757440, Note_on_c, 5, 57, 0
7, 757440, Note_on_c, 5, 55, 100
7, 757560, Note_on_c, 5, 55, 0
7, 757560, Note_on_c, 5, 57, 100
7, 757680, Note_on_c, 5, 57, 0
7, 757680, Note_on_c, 5, 59, 100
7, 757800, Note_on_c, 5, 59, 0
7, 757800, Note_on_c, 5, 55, 100
7, 757920, Note_on_c, 5, 55, 0
7, 757920, Note_on_c, 5, 52, 100
7, 758040, Note_on_c, 5, 52, 0
7, 758040, Note_on_c, 5, 54, 100
7, 758160, Note_on_c, 5, 54, 0
7, 758160, Note_on_c, 5, 55, 100
7, 758280, Note_on_c, 5, 55, 0
7, 758280, Note_on_c, 5, 52, 100
7, 758400, Note_on_c, 5, 52, 0
7, 758400, Note_on_c, 5, 60, 100
7, 758640, Note_on_c, 5, 60, 0
7, 758640, Note_on_c, 5, 57, 100
7, 758880, Note_on_c, 5, 57, 0
7, 758880, Note_on_c, 5, 59, 100
7, 759120, Note_on_c, 5, 59, 0
7, 759120, Note_on_c, 5, 47, 100
7, 759360, Note_on_c, 5, 47, 0
7, 759360, Note_on_c, 5, 40, 100
7, 759840, Note_on_c, 5, 40, 0
7, 760080, Note_on_c, 5, 52, 100
7, 760560, Note_on_c, 5, 52, 0
7, 760560, Note_on_c, 5, 48, 100
7, 760800, Note_on_c, 5, 48, 0
7, 760800, Note_on_c, 5, 50, 100
7, 761040, Note_on_c, 5, 50, 0
7, 761040, Note_on_c, 5, 52, 100
7, 761280, Note_on_c, 5, 52, 0
7, 761280, Note_on_c, 5, 45, 100
7, 761520, Note_on_c, 5, 45, 0
7, 761520, Note_on_c, 5, 57, 100
7, 761760, Note_on_c, 5, 57, 0
7, 761760, Note_on_c, 5, 52, 100
7, 761880, Note_on_c, 5, 52, 0
7, 761880, Note_on_c, 5, 50, 100
7, 762000, Note_on_c, 5, 50, 0
7, 762000, Note_on_c, 5, 52, 100
7, 762120, Note_on_c, 5, 52, 0
7, 762120, Note_on_c, 5, 54, 100
7, 762240, Note_on_c, 5, 54, 0
7, 762240, Note_on_c, 5, 55, 100
7, 762360, Note_on_c, 5, 55, 0
7, 762360, Note_on_c, 5, 57, 100
7, 762480, Note_on_c, 5, 57, 0
7, 762480, Note_on_c, 5, 59, 100
7, 762600, Note_on_c, 5, 59, 0
7, 762600, Note_on_c, 5, 55, 100
7, 762720, Note_on_c, 5, 55, 0
7, 762720, Note_on_c, 5, 57, 100
7, 762840, Note_on_c, 5, 57, 0
7, 762840, Note_on_c, 5, 54, 100
7, 762960, Note_on_c, 5, 54, 0
7, 762960, Note_on_c, 5, 55, 100
7, 763080, Note_on_c, 5, 55, 0
7, 763080, Note_on_c, 5, 57, 100
7, 763200, Note_on_c, 5, 57, 0
7, 763200, Note_on_c, 5, 50, 100
7, 763320, Note_on_c, 5, 50, 0
7, 763320, Note_on_c, 5, 52, 100
7, 763440, Note_on_c, 5, 52, 0
7, 763440, Note_on_c, 5, 54, 100
7, 763560, Note_on_c, 5, 54, 0
7, 763560, Note_on_c, 5, 55, 100
7, 763680, Note_on_c, 5, 55, 0
7, 763680, Note_on_c, 5, 54, 100
7, 763800, Note_on_c, 5, 54, 0
7, 763800, Note_on_c, 5, 52, 100
7, 763920, Note_on_c, 5, 52, 0
7, 763920, Note_on_c, 5, 50, 100
7, 764040, Note_on_c, 5, 50, 0
7, 764040, Note_on_c, 5, 48, 100
7, 764160, Note_on_c, 5, 48, 0
7, 764160, Note_on_c, 5, 47, 100
7, 764280, Note_on_c, 5, 47, 0
7, 764280, Note_on_c, 5, 43, 100
7, 764400, Note_on_c, 5, 43, 0
7, 764400, Note_on_c, 5, 45, 100
7, 764520, Note_on_c, 5, 45, 0
7, 764520, Note_on_c, 5, 47, 100
7, 764640, Note_on_c, 5, 47, 0
7, 764640, Note_on_c, 5, 48, 100
7, 764760, Note_on_c, 5, 48, 0
7, 764760, Note_on_c, 5, 50, 100
7, 764880, Note_on_c, 5, 50, 0
7, 764880, Note_on_c, 5, 52, 100
7, 765000, Note_on_c, 5, 52, 0
7, 765000, Note_on_c, 5, 54, 100
7, 765120, Note_on_c, 5, 54, 0
7, 765120, Note_on_c, 5, 55, 100
7, 765240, Note_on_c, 5, 55, 0
7, 765240, Note_on_c, 5, 57, 100
7, 765360, Note_on_c, 5, 57, 0
7, 765360, Note_on_c, 5, 59, 100
7, 765480, Note_on_c, 5, 59, 0
7, 765480, Note_on_c, 5, 57, 100
7, 765600, Note_on_c, 5, 57, 0
7, 765600, Note_on_c, 5, 55, 100
7, 765720, Note_on_c, 5, 55, 0
7, 765720, Note_on_c, 5, 54, 100
7, 765840, Note_on_c, 5, 54, 0
7, 765840, Note_on_c, 5, 52, 100
7, 765960, Note_on_c, 5, 52, 0
7, 765960, Note_on_c, 5, 50, 100
7, 766080, Note_on_c, 5, 50, 0
7, 766080, Note_on_c, 5, 48, 100
7, 766200, Note_on_c, 5, 48, 0
7, 766200, Note_on_c, 5, 47, 100
7, 766320, Note_on_c, 5, 47, 0
7, 766320, Note_on_c, 5, 48, 100
7, 766440, Note_on_c, 5, 48, 0
7, 766440, Note_on_c, 5, 45, 100
7, 766560, Note_on_c, 5, 45, 0
7, 766560, Note_on_c, 5, 50, 100
7, 766800, Note_on_c, 5, 50, 0
7, 766800, Note_on_c, 5, 38, 100
7, 767040, Note_on_c, 5, 38, 0
7, 767040, Note_on_c, 5, 43, 100
7, 767280, Note_on_c, 5, 43, 0
7, 767280, Note_on_c, 5, 47, 100
7, 767400, Note_on_c, 5, 47, 0
7, 767400, Note_on_c, 5, 50, 100
7, 767520, Note_on_c, 5, 50, 0
7, 767520, Note_on_c, 5, 55, 100
7, 768000, Note_on_c, 5, 55, 0
7, 983040, Note_on_c, 5, 55, 100
7, 983520, Note_on_c, 5, 55, 0
7, 983520, Note_on_c, 5, 55, 100
7, 984000, Note_on_c, 5, 55, 0
7, 984000, Note_on_c, 5, 55, 100
7, 984480, Note_on_c, 5, 55, 0
7, 984480, Note_on_c, 5, 54, 100
7, 984960, Note_on_c, 5, 54, 0
7, 984960, Note_on_c, 5, 54, 100
7, 985440, Note_on_c, 5, 54, 0
7, 985440, Note_on_c, 5, 54, 100
7, 985920, Note_on_c, 5, 54, 0
7, 985920, Note_on_c, 5, 52, 100
7, 986400, Note_on_c, 5, 52, 0
7, 986400, Note_on_c, 5, 52, 100
7, 986880, Note_on_c, 5, 52, 0
7, 986880, Note_on_c, 5, 52, 100
7, 987360, Note_on_c, 5, 52, 0
7, 987360, Note_on_c, 5, 50, 100
7, 987480, Note_on_c, 5, 50, 0
7, 987480, Note_on_c, 5, 38, 100
7, 987600, Note_on_c, 5, 38, 0
7, 987600, Note_on_c, 5, 50, 100
7, 987840, Note_on_c, 5, 50, 0
7, 988080, Note_on_c, 5, 48, 100
7, 988200, Note_on_c, 5, 48, 0
7, 988200, Note_on_c, 5, 47, 100
7, 988320, Note_on_c, 5, 47, 0
7, 988320, Note_on_c, 5, 45, 100
7, 988560, Note_on_c, 5, 45, 0
7, 988560, Note_on_c, 5, 48, 100
7, 988800, Note_on_c, 5, 48, 0
7, 988800, Note_on_c, 5, 47, 100
7, 989280, Note_on_c, 5, 47, 0
7, 989280, Note_on_c, 5, 47, 100
7, 989760, Note_on_c, 5, 47, 0
7, 989760, Note_on_c, 5, 47, 100
7, 990240, Note_on_c, 5, 47, 0
7, 990240, Note_on_c, 5, 48, 100
7, 990720, Note_on_c, 5, 48, 0
7, 990720, Note_on_c, 5, 48, 100
7, 991200, Note_on_c, 5, 48, 0
7, 991200, Note_on_c, 5, 48, 100
7, 991680, Note_on_c, 5, 48, 0
7, 991680, Note_on_c, 5, 50, 100
7, 992160, Note_on_c, 5, 50, 0
7, 992160, Note_on_c, 5, 50, 100
7, 992640, Note_on_c, 5, 50, 0
7, 992640, Note_on_c, 5, 50, 100
7, 993120, Note_on_c, 5, 50, 0
7, 993120, Note_on_c, 5, 55, 100
7, 993480, Note_on_c, 5, 55, 0
7, 993480, Note_on_c, 5, 47, 100
7, 993600, Note_on_c, 5, 47, 0
7, 993600, Note_on_c, 5, 52, 100
7, 993720, Note_on_c, 5, 52, 0
7, 993720, Note_on_c, 5, 50, 100
7, 993840, Note_on_c, 5, 50, 0
7, 993840, Note_on_c, 5, 48, 100
7, 993960, Note_on_c, 5, 48, 0
7, 993960, Note_on_c, 5, 52, 100
7, 994080, Note_on_c, 5, 52, 0
7, 994080, Note_on_c, 5, 50, 100
7, 994200, Note_on_c, 5, 50, 0
7, 994200, Note_on_c, 5, 48, 100
7, 994320, Note_on_c, 5, 48, 0
7, 994320, Note_on_c, 5, 47, 100
7, 994440, Note_on_c, 5, 47, 0
7, 994440, Note_on_c, 5, 45, 100
7, 994560, Note_on_c, 5, 45, 0
7, 994560, Note_on_c, 5, 47, 100
7, 994800, Note_on_c, 5, 47, 0
7, 994800, Note_on_c, 5, 43, 100
7, 995040, Note_on_c, 5, 43, 0
7, 995280, Note_on_c, 5, 55, 100
7, 995400, Note_on_c, 5, 55, 0
7, 995400, Note_on_c, 5, 54, 100
7, 995520, Note_on_c, 5, 54, 0
7, 995520, Note_on_c, 5, 55, 100
7, 995760, Note_on_c, 5, 55, 0
7, 995760, Note_on_c, 5, 52, 100
7, 996000, Note_on_c, 5, 52, 0
7, 996000, Note_on_c, 5, 54, 100
7, 996240, Note_on_c, 5, 54, 0
7, 996240, Note_on_c, 5, 59, 100
7, 996480, Note_on_c, 5, 59, 0
7, 996720, Note_on_c, 5, 47, 100
7, 996840, Note_on_c, 5, 47, 0
7, 996840, Note_on_c, 5, 49, 100
7, 996960, Note_on_c, 5, 49, 0
7, 996960, Note_on_c, 5, 50, 100
7, 997200, Note_on_c, 5, 50, 0
7, 997200, Note_on_c, 5, 47, 100
7, 997440, Note_on_c, 5, 47, 0
7, 997440, Note_on_c, 5, 52, 100
7, 997560, Note_on_c, 5, 52, 0
7, 997560, Note_on_c, 5, 54, 100
7, 997680, Note_on_c, 5, 54, 0
7, 997680, Note_on_c, 5, 55, 100
7, 997800, Note_on_c, 5, 55, 0
7, 997800, Note_on_c, 5, 54, 100
7, 997920, Note_on_c, 5, 54, 0
7, 997920, Note_on_c, 5, 52, 100
7, 998160, Note_on_c, 5, 52, 0
7, 998160, Note_on_c, 5, 54, 100
7, 998400, Note_on_c, 5, 54, 0
7, 998400, Note_on_c, 5, 52, 100
7, 998640, Note_on_c, 5, 52, 0
7, 998640, Note_on_c, 5, 50, 100
7, 998880, Note_on_c, 5, 50, 0
7, 998880, Note_on_c, 5, 49, 100
7, 999000, Note_on_c, 5, 49, 0
7, 999000, Note_on_c, 5, 50, 100
7, 999120, Note_on_c, 5, 50, 0
7, 999120, Note_on_c, 5, 52, 100
7, 999240, Note_on_c, 5, 52, 0
7, 999240, Note_on_c, 5, 50, 100
7, 999360, Note_on_c, 5, 50, 0
7, 999360, Note_on_c, 5, 49, 100
7, 999600, Note_on_c, 5, 49, 0
7, 999600, Note_on_c, 5, 52, 100
7, 999840, Note_on_c, 5, 52, 0
7, 999840, Note_on_c, 5, 49, 100
7, 1000080, Note_on_c, 5, 49, 0
7, 1000080, Note_on_c, 5, 45, 100
7, 1000320, Note_on_c, 5, 45, 0
7, 1000320, Note_on_c, 5, 50, 100
7, 1000800, Note_on_c, 5, 50, 0
7, 1000920, Note_on_c, 5, 50, 100
7, 1001040, Note_on_c, 5, 50, 0
7, 1001040, Note_on_c, 5, 52, 100
7, 1001160, Note_on_c, 5, 52, 0
7, 1001160, Note_on_c, 5, 54, 100
7, 1001280, Note_on_c, 5, 54, 0
7, 1001280, Note_on_c, 5, 55, 100
7, 1001400, Note_on_c, 5, 55, 0
7, 1001400, Note_on_c, 5, 57, 100
7, 1001520, Note_on_c, 5, 57, 0
7, 1001520, Note_on_c, 5, 55, 100
7, 1001640, Note_on_c, 5, 55, 0
7, 1001640, Note_on_c, 5, 54, 100
7, 1001760, Note_on_c, 5, 54, 0
7, 1001760, Note_on_c, 5, 55, 100
7, 1002000, Note_on_c, 5, 55, 0
7, 1002000, Note_on_c, 5, 43, 100
7, 1002240, Note_on_c, 5, 43, 0
7, 1002360, Note_on_c, 5, 52, 100
7, 1002480, Note_on_c, 5, 52, 0
7, 1002480, Note_on_c, 5, 54, 100
7, 1002600, Note_on_c, 5, 54, 0
7, 1002600, Note_on_c, 5, 55, 100
7, 1002720, Note_on_c, 5, 55, 0
7, 1002720, Note_on_c, 5, 57, 100
7, 1002840, Note_on_c, 5, 57, 0
7, 1002840, Note_on_c, 5, 54, 100
7, 1002960, Note_on_c, 5, 54, 0
7, 1002960, Note_on_c, 5, 52, 100
7, 1003080, Note_on_c, 5, 52, 0
7, 1003080, Note_on_c, 5, 50, 100
7, 1003200, Note_on_c, 5, 50, 0
7, 1003200, Note_on_c, 5, 59, 100
7, 1003320, Note_on_c, 5, 59, 0
7, 1003320, Note_on_c, 5, 47, 100
7, 1003440, Note_on_c, 5, 47, 0
7, 1003440, Note_on_c, 5, 52, 100
7, 1003560, Note_on_c, 5, 52, 0
7, 1003560, Note_on_c, 5, 50, 100
7, 1003680, Note_on_c, 5, 50, 0
7, 1003680, Note_on_c, 5, 49, 100
7, 1003800, Note_on_c, 5, 49, 0
7, 1003800, Note_on_c, 5, 45, 100
7, 1003920, Note_on_c, 5, 45, 0
7, 1003920, Note_on_c, 5, 50, 100
7, 1004040, Note_on_c, 5, 50, 0
7, 1004040, Note_on_c, 5, 55, 100
7, 1004160, Note_on_c, 5, 55, 0
7, 1004160, Note_on_c, 5, 57, 100
7, 1004280, Note_on_c, 5, 57, 0
7, 1004280, Note_on_c, 5, 52, 100
7, 1004400, Note_on_c, 5, 52, 0
7, 1004400, Note_on_c, 5, 49, 100
7, 1004520, Note_on_c, 5, 49, 0
7, 1004520, Note_on_c, 5, 45, 100
7, 1004640, Note_on_c, 5, 45, 0
7, 1004640, Note_on_c, 5, 50, 100
7, 1004760, Note_on_c, 5, 50, 0
7, 1004760, Note_on_c, 5, 52, 100
7, 1004880, Note_on_c, 5, 52, 0
7, 1004880, Note_on_c, 5, 50, 100
7, 1005000, Note_on_c, 5, 50, 0
7, 1005000, Note_on_c, 5, 49, 100
7, 1005120, Note_on_c, 5, 49, 0
7, 1005120, Note_on_c, 5, 50, 100
7, 1005360, Note_on_c, 5, 50, 0
7, 1005360, Note_on_c, 5, 45, 100
7, 1005600, Note_on_c, 5, 45, 0
7, 1005600, Note_on_c, 5, 38, 100
7, 1005840, Note_on_c, 5, 38, 0
7, 1006080, Note_on_c, 5, 55, 100
7, 1006560, Note_on_c, 5, 55, 0
7, 1006560, Note_on_c, 5, 55, 100
7, 1007040, Note_on_c, 5, 55, 0
7, 1007040, Note_on_c, 5, 55, 100
7, 1007520, Note_on_c, 5, 55, 0
7, 1007520, Note_on_c, 5, 54, 100
7, 1008000, Note_on_c, 5, 54, 0
7, 1008000, Note_on_c, 5, 54, 100
7, 1008480, Note_on_c, 5, 54, 0
7, 1008480, Note_on_c, 5, 54, 100
7, 1008960, Note_on_c, 5, 54, 0
7, 1008960, Note_on_c, 5, 52, 100
7, 1009440, Note_on_c, 5, 52, 0
7, 1009440, Note_on_c, 5, 52, 100
7, 1009920, Note_on_c, 5, 52, 0
7, 1009920, Note_on_c, 5, 52, 100
7, 1010400, Note_on_c, 5, 52, 0
7, 1010400, Note_on_c, 5, 50, 100
7, 1010520, Note_on_c, 5, 50, 0
7, 1010520, Note_on_c, 5, 38, 100
7, 1010640, Note_on_c, 5, 38, 0
7, 1010640, Note_on_c, 5, 50, 100
7, 1010880, Note_on_c, 5, 50, 0
7, 1011120, Note_on_c, 5, 48, 100
7, 1011240, Note_on_c, 5, 48, 0
7, 1011240, Note_on_c, 5, 47, 100
7, 1011360, Note_on_c, 5, 47, 0
7, 1011360, Note_on_c, 5, 45, 100
7, 1011600, Note_on_c, 5, 45, 0
7, 1011600, Note_on_c, 5, 48, 100
7, 1011840, Note_on_c, 5, 48, 0
7, 1011840, Note_on_c, 5, 47, 100
7, 1012320, Note_on_c, 5, 47, 0
7, 1012320, Note_on_c, 5, 47, 100
7, 1012800, Note_on_c, 5, 47, 0
7, 1012800, Note_on_c, 5, 47, 100
7, 1013280, Note_on_c, 5, 47, 0
7, 1013280, Note_on_c, 5, 48, 100
7, 1013760, Note_on_c, 5, 48, 0
7, 1013760, Note_on_c, 5, 48, 100
7, 1014240, Note_on_c, 5, 48, 0
7, 1014240, Note_on_c, 5, 48, 100
7, 1014720, Note_on_c, 5, 48, 0
7, 1014720, Note_on_c, 5, 50, 100
7, 1015200, Note_on_c, 5, 50, 0
7, 1015200, Note_on_c, 5, 50, 100
7, 1015680, Note_on_c, 5, 50, 0
7, 1015680, Note_on_c, 5, 50, 100
7, 1016160, Note_on_c, 5, 50, 0
7, 1016160, Note_on_c, 5, 55, 100
7, 1016520, Note_on_c, 5, 55, 0
7, 1016520, Note_on_c, 5, 47, 100
7, 1016640, Note_on_c, 5, 47, 0
7, 1016640, Note_on_c, 5, 52, 100
7, 1016760, Note_on_c, 5, 52, 0
7, 1016760, Note_on_c, 5, 50, 100
7, 1016880, Note_on_c, 5, 50, 0
7, 1016880, Note_on_c, 5, 48, 100
7, 1017000, Note_on_c, 5, 48, 0
7, 1017000, Note_on_c, 5, 52, 100
7, 1017120, Note_on_c, 5, 52, 0
7, 1017120, Note_on_c, 5, 50, 100
7, 1017240, Note_on_c, 5, 50, 0
7, 1017240, Note_on_c, 5, 48, 100
7, 1017360, Note_on_c, 5, 48, 0
7, 1017360, Note_on_c, 5, 47, 100
7, 1017480, Note_on_c, 5, 47, 0
7, 1017480, Note_on_c, 5, 45, 100
7, 1017600, Note_on_c, 5, 45, 0
7, 1017600, Note_on_c, 5, 47, 100
7, 1017840, Note_on_c, 5, 47, 0
7, 1017840, Note_on_c, 5, 43, 100
7, 1018080, Note_on_c, 5, 43, 0
7, 1018320, Note_on_c, 5, 55, 100
7, 1018440, Note_on_c, 5, 55, 0
7, 1018440, Note_on_c, 5, 54, 100
7, 1018560, Note_on_c, 5, 54, 0
7, 1018560, Note_on_c, 5, 55, 100
7, 1018800, Note_on_c, 5, 55, 0
7, 1018800, Note_on_c, 5, 52, 100
7, 1019040, Note_on_c, 5, 52, 0
7, 1019040, Note_on_c, 5, 54, 100
7, 1019280, Note_on_c, 5, 54, 0
7, 1019280, Note_on_c, 5, 59, 100
7, 1019520, Note_on_c, 5, 59, 0
7, 1019760, Note_on_c, 5, 47, 100
7, 1019880, Note_on_c, 5, 47, 0
7, 1019880, Note_on_c, 5, 49, 100
7, 1020000, Note_on_c, 5, 49, 0
7, 1020000, Note_on_c, 5, 50, 100
7, 1020240, Note_on_c, 5, 50, 0
7, 1020240, Note_on_c, 5, 47, 100
7, 1020480, Note_on_c, 5, 47, 0
7, 1020480, Note_on_c, 5, 52, 100
7, 1020600, Note_on_c, 5, 52, 0
7, 1020600, Note_on_c, 5, 54, 100
7, 1020720, Note_on_c, 5, 54, 0
7, 1020720, Note_on_c, 5, 55, 100
7, 1020840, Note_on_c, 5, 55, 0
7, 1020840, Note_on_c, 5, 54, 100
7, 1020960, Note_on_c, 5, 54, 0
7, 1020960, Note_on_c, 5, 52, 100
7, 1021200, Note_on_c, 5, 52, 0
7, 1021200, Note_on_c, 5, 54, 100
7, 1021440, Note_on_c, 5, 54, 0
7, 1021440, Note_on_c, 5, 52, 100
7, 1021680, Note_on_c, 5, 52, 0
7, 1021680, Note_on_c, 5, 50, 100
7, 1021920, Note_on_c, 5, 50, 0
7, 1021920, Note_on_c, 5, 49, 100
7, 1022040, Note_on_c, 5, 49, 0
7, 1022040, Note_on_c, 5, 50, 100
7, 1022160, Note_on_c, 5, 50, 0
7, 1022160, Note_on_c, 5, 52, 100
7, 1022280, Note_on_c, 5, 52, 0
7, 1022280, Note_on_c, 5, 50, 100
7, 1022400, Note_on_c, 5, 50, 0
7, 1022400, Note_on_c, 5, 49, 100
7, 1022640, Note_on_c, 5, 49, 0
7, 1022640, Note_on_c, 5, 52, 100
7, 1022880, Note_on_c, 5, 52, 0
7, 1022880, Note_on_c, 5, 49, 100
7, 1023120, Note_on_c, 5, 49, 0
7, 1023120, Note_on_c, 5, 45, 100
7, 1023360, Note_on_c, 5, 45, 0
7, 1023360, Note_on_c, 5, 50, 100
7, 1023840, Note_on_c, 5, 50, 0
7, 1023960, Note_on_c, 5, 50, 100
7, 1024080, Note_on_c, 5, 50, 0
7, 1024080, Note_on_c, 5, 52, 100
7, 1024200, Note_on_c, 5, 52, 0
7, 1024200, Note_on_c, 5, 54, 100
7, 1024320, Note_on_c, 5, 54, 0
7, 1024320, Note_on_c, 5, 55, 100
7, 1024440, Note_on_c, 5, 55, 0
7, 1024440, Note_on_c, 5, 57, 100
7, 1024560, Note_on_c, 5, 57, 0
7, 1024560, Note_on_c, 5, 55, 100
7, 1024680, Note_on_c, 5, 55, 0
7, 1024680, Note_on_c, 5, 54, 100
7, 1024800, Note_on_c, 5, 54, 0
7, 1024800, Note_on_c, 5, 55, 100
7, 1025040, Note_on_c, 5, 55, 0
7, 1025040, Note_on_c, 5, 43, 100
7, 1025280, Note_on_c, 5, 43, 0
7, 1025400, Note_on_c, 5, 52, 100
7, 1025520, Note_on_c, 5, 52, 0
7, 1025520, Note_on_c, 5, 54, 100
7, 1025640, Note_on_c, 5, 54, 0
7, 1025640, Note_on_c, 5, 55, 100
7, 1025760, Note_on_c, 5, 55, 0
7, 1025760, Note_on_c, 5, 57, 100
7, 1025880, Note_on_c, 5, 57, 0
7, 1025880, Note_on_c, 5, 54, 100
7, 1026000, Note_on_c, 5, 54, 0
7, 1026000, Note_on_c, 5, 52, 100
7, 1026120, Note_on_c, 5, 52, 0
7, 1026120, Note_on_c, 5, 50, 100
7, 1026240, Note_on_c, 5, 50, 0
7, 1026240, Note_on_c, 5, 59, 100
7, 1026360, Note_on_c, 5, 59, 0
7, 1026360, Note_on_c, 5, 47, 100
7, 1026480, Note_on_c, 5, 47, 0
7, 1026480, Note_on_c, 5, 52, 100
7, 1026600, Note_on_c, 5, 52, 0
7, 1026600, Note_on_c, 5, 50, 100
7, 1026720, Note_on_c, 5, 50, 0
7, 1026720, Note_on_c, 5, 49, 100
7, 1026840, Note_on_c, 5, 49, 0
7, 1026840, Note_on_c, 5, 45, 100
7, 1026960, Note_on_c, 5, 45, 0
7, 1026960, Note_on_c, 5, 50, 100
7, 1027080, Note_on_c, 5, 50, 0
7, 1027080, Note_on_c, 5, 55, 100
7, 1027200, Note_on_c, 5, 55, 0
7, 1027200, Note_on_c, 5, 57, 100
7, 1027320, Note_on_c, 5, 57, 0
7, 1027320, Note_on_c, 5, 52, 100
7, 1027440, Note_on_c, 5, 52, 0
7, 1027440, Note_on_c, 5, 49, 100
7, 1027560, Note_on_c, 5, 49, 0
7, 1027560, Note_on_c, 5, 45, 100
7, 1027680, Note_on_c, 5, 45, 0
7, 1027680, Note_on_c, 5, 50, 100
7, 1027800, Note_on_c, 5, 50, 0
7, 1027800, Note_on_c, 5, 52, 100
7, 1027920, Note_on_c, 5, 52, 0
7, 1027920, Note_on_c, 5, 50, 100
7, 1028040, Note_on_c, 5, 50, 0
7, 1028040, Note_on_c, 5, 49, 100
7, 1028160, Note_on_c, 5, 49, 0
7, 1028160, Note_on_c, 5, 50, 100
7, 1028400, Note_on_c, 5, 50, 0
7, 1028400, Note_on_c, 5, 45, 100
7, 1028640, Note_on_c, 5, 45, 0
7, 1028640, Note_on_c, 5, 38, 100
7, 1028880, Note_on_c, 5, 38, 0
7, 1029120, Note_on_c, 5, 50, 100
7, 1029600, Note_on_c, 5, 50, 0
7, 1029600, Note_on_c, 5, 50, 100
7, 1030080, Note_on_c, 5, 50, 0
7, 1030080, Note_on_c, 5, 48, 100
7, 1030560, Note_on_c, 5, 48, 0
7, 1030560, Note_on_c, 5, 47, 100
7, 1030800, Note_on_c, 5, 47, 0
7, 1030800, Note_on_c, 5, 48, 100
7, 1031040, Note_on_c, 5, 48, 0
7, 1031040, Note_on_c, 5, 47, 100
7, 1031280, Note_on_c, 5, 47, 0
7, 1031280, Note_on_c, 5, 45, 100
7, 1031520, Note_on_c, 5, 45, 0
7, 1031520, Note_on_c, 5, 43, 100
7, 1031760, Note_on_c, 5, 43, 0
7, 1031760, Note_on_c, 5, 45, 100
7, 1031880, Note_on_c, 5, 45, 0
7, 1031880, Note_on_c, 5, 47, 100
7, 1032000, Note_on_c, 5, 47, 0
7, 1032000, Note_on_c, 5, 48, 100
7, 1032240, Note_on_c, 5, 48, 0
7, 1032240, Note_on_c, 5, 47, 100
7, 1032480, Note_on_c, 5, 47, 0
7, 1032480, Note_on_c, 5, 48, 100
7, 1032720, Note_on_c, 5, 48, 0
7, 1032720, Note_on_c, 5, 52, 100
7, 1032960, Note_on_c, 5, 52, 0
7, 1032960, Note_on_c, 5, 45, 100
7, 1033200, Note_on_c, 5, 45, 0
7, 1033200, Note_on_c, 5, 48, 100
7, 1033440, Note_on_c, 5, 48, 0
7, 1033440, Note_on_c, 5, 47, 100
7, 1033920, Note_on_c, 5, 47, 0
7, 1035120, Note_on_c, 5, 52, 100
7, 1035360, Note_on_c, 5, 52, 0
7, 1035360, Note_on_c, 5, 54, 100
7, 1035600, Note_on_c, 5, 54, 0
7, 1035600, Note_on_c, 5, 55, 100
7, 1035840, Note_on_c, 5, 55, 0
7, 1035840, Note_on_c, 5, 57, 100
7, 1036080, Note_on_c, 5, 57, 0
7, 1036080, Note_on_c, 5, 59, 100
7, 1036320, Note_on_c, 5, 59, 0
7, 1036320, Note_on_c, 5, 60, 100
7, 1036440, Note_on_c, 5, 60, 0
7, 1036440, Note_on_c, 5, 62, 100
7, 1036560, Note_on_c, 5, 62, 0
7, 1036560, Note_on_c, 5, 60, 100
7, 1036680, Note_on_c, 5, 60, 0
7, 1036680, Note_on_c, 5, 59, 100
7, 1036800, Note_on_c, 5, 59, 0
7, 1036800, Note_on_c, 5, 60, 100
7, 1036920, Note_on_c, 5, 60, 0
7, 1036920, Note_on_c, 5, 59, 100
7, 1037040, Note_on_c, 5, 59, 0
7, 1037040, Note_on_c, 5, 57, 100
7, 1037160, Note_on_c, 5, 57, 0
7, 1037160, Note_on_c, 5, 55, 100
7, 1037280, Note_on_c, 5, 55, 0
7, 1037280, Note_on_c, 5, 57, 100
7, 1037400, Note_on_c, 5, 57, 0
7, 1037400, Note_on_c, 5, 54, 100
7, 1037520, Note_on_c, 5, 54, 0
7, 1037520, Note_on_c, 5, 55, 100
7, 1037640, Note_on_c, 5, 55, 0
7, 1037640, Note_on_c, 5, 57, 100
7, 1037760, Note_on_c, 5, 57, 0
7, 1037760, Note_on_c, 5, 59, 100
7, 1037880, Note_on_c, 5, 59, 0
7, 1037880, Note_on_c, 5, 60, 100
7, 1038000, Note_on_c, 5, 60, 0
7, 1038000, Note_on_c, 5, 59, 100
7, 1038120, Note_on_c, 5, 59, 0
7, 1038120, Note_on_c, 5, 57, 100
7, 1038240, Note_on_c, 5, 57, 0
7, 1038240, Note_on_c, 5, 59, 100
7, 1038360, Note_on_c, 5, 59, 0
7, 1038360, Note_on_c, 5, 54, 100
7, 1038480, Note_on_c, 5, 54, 0
7, 1038480, Note_on_c, 5, 51, 100
7, 1038600, Note_on_c, 5, 51, 0
7, 1038600, Note_on_c, 5, 54, 100
7, 1038720, Note_on_c, 5, 54, 0
7, 1038720, Note_on_c, 5, 47, 100
7, 1038840, Note_on_c, 5, 47, 0
7, 1038840, Note_on_c, 5, 51, 100
7, 1038960, Note_on_c, 5, 51, 0
7, 1038960, Note_on_c, 5, 49, 100
7, 1039080, Note_on_c, 5, 49, 0
7, 1039080, Note_on_c, 5, 47, 100
7, 1039200, Note_on_c, 5, 47, 0
7, 1039200, Note_on_c, 5, 52, 100
7, 1039320, Note_on_c, 5, 52, 0
7, 1039320, Note_on_c, 5, 48, 100
7, 1039440, Note_on_c, 5, 48, 0
7, 1039440, Note_on_c, 5, 47, 100
7, 1039560, Note_on_c, 5, 47, 0
7, 1039560, Note_on_c, 5, 45, 100
7, 1039680, Note_on_c, 5, 45, 0
7, 1039680, Note_on_c, 5, 43, 100
7, 1039800, Note_on_c, 5, 43, 0
7, 1039800, Note_on_c, 5, 47, 100
7, 1039920, Note_on_c, 5, 47, 0
7, 1039920, Note_on_c, 5, 52, 100
7, 1040040, Note_on_c, 5, 52, 0
7, 1040040, Note_on_c, 5, 51, 100
7, 1040160, Note_on_c, 5, 51, 0
7, 1040160, Note_on_c, 5, 52, 100
7, 1040400, Note_on_c, 5, 52, 0
7, 1040400, Note_on_c, 5, 50, 100
7, 1040640, Note_on_c, 5, 50, 0
7, 1040640, Note_on_c, 5, 48, 100
7, 1040880, Note_on_c, 5, 48, 0
7, 1040880, Note_on_c, 5, 60, 100
7, 1041120, Note_on_c, 5, 60, 0
7, 1041240, Note_on_c, 5, 52, 100
7, 1041360, Note_on_c, 5, 52, 0
7, 1041360, Note_on_c, 5, 50, 100
7, 1041480, Note_on_c, 5, 50, 0
7, 1041480, Note_on_c, 5, 48, 100
7, 1041600, Note_on_c, 5, 48, 0
7, 1041600, Note_on_c, 5, 50, 100
7, 1041720, Note_on_c, 5, 50, 0
7, 1041720, Note_on_c, 5, 48, 100
7, 1041840, Note_on_c, 5, 48, 0
7, 1041840, Note_on_c, 5, 47, 100
7, 1041960, Note_on_c, 5, 47, 0
7, 1041960, Note_on_c, 5, 45, 100
7, 1042080, Note_on_c, 5, 45, 0
7, 1042080, Note_on_c, 5, 47, 100
7, 1042320, Note_on_c, 5, 47, 0
7, 1042320, Note_on_c, 5, 59, 100
7, 1042560, Note_on_c, 5, 59, 0
7, 1042680, Note_on_c, 5, 50, 100
7, 1042800, Note_on_c, 5, 50, 0
7, 1042800, Note_on_c, 5, 48, 100
7, 1042920, Note_on_c, 5, 48, 0
7, 1042920, Note_on_c, 5, 47, 100
7, 1043040, Note_on_c, 5, 47, 0
7, 1043040, Note_on_c, 5, 48, 100
7, 1043160, Note_on_c, 5, 48, 0
7, 1043160, Note_on_c, 5, 47, 100
7, 1043280, Note_on_c, 5, 47, 0
7, 1043280, Note_on_c, 5, 45, 100
7, 1043400, Note_on_c, 5, 45, 0
7, 1043400, Note_on_c, 5, 44, 100
7, 1043520, Note_on_c, 5, 44, 0
7, 1043520, Note_on_c, 5, 45, 100
7, 1043760, Note_on_c, 5, 45, 0
7, 1043760, Note_on_c, 5, 57, 100
7, 1044000, Note_on_c, 5, 57, 0
7, 1044120, Note_on_c, 5, 59, 100
7, 1044240, Note_on_c, 5, 59, 0
7, 1044240, Note_on_c, 5, 57, 100
7, 1044360, Note_on_c, 5, 57, 0
7, 1044360, Note_on_c, 5, 55, 100
7, 1044480, Note_on_c, 5, 55, 0
7, 1044480, Note_on_c, 5, 57, 100
7, 1044600, Note_on_c, 5, 57, 0
7, 1044600, Note_on_c, 5, 55, 100
7, 1044720, Note_on_c, 5, 55, 0
7, 1044720, Note_on_c, 5, 54, 100
7, 1044840, Note_on_c, 5, 54, 0
7, 1044840, Note_on_c, 5, 52, 100
7, 1044960, Note_on_c, 5, 52, 0
7, 1044960, Note_on_c, 5, 54, 100
7, 1045080, Note_on_c, 5, 54, 0
7, 1045080, Note_on_c, 5, 52, 100
7, 1045200, Note_on_c, 5, 52, 0
7, 1045200, Note_on_c, 5, 50, 100
7, 1045320, Note_on_c, 5, 50, 0
7, 1045320, Note_on_c, 5, 49, 100
7, 1045440, Note_on_c, 5, 49, 0
7, 1045440, Note_on_c, 5, 50, 100
7, 1045560, Note_on_c, 5, 50, 0
7, 1045560, Note_on_c, 5, 48, 100
7, 1045680, Note_on_c, 5, 48, 0
7, 1045680, Note_on_c, 5, 47, 100
7, 1045800, Note_on_c, 5, 47, 0
7, 1045800, Note_on_c, 5, 45, 100
7, 1045920, Note_on_c, 5, 45, 0
7, 1045920, Note_on_c, 5, 47, 100
7, 1046040, Note_on_c, 5, 47, 0
7, 1046040, Note_on_c, 5, 45, 100
7, 1046160, Note_on_c, 5, 45, 0
7, 1046160, Note_on_c, 5, 43, 100
7, 1046280, Note_on_c, 5, 43, 0
7, 1046280, Note_on_c, 5, 42, 100
7, 1046400, Note_on_c, 5, 42, 0
7, 1046400, Note_on_c, 5, 43, 100
7, 1046520, Note_on_c, 5, 43, 0
7, 1046520, Note_on_c, 5, 57, 100
7, 1046640, Note_on_c, 5, 57, 0
7, 1046640, Note_on_c, 5, 55, 100
7, 1046760, Note_on_c, 5, 55, 0
7, 1046760, Note_on_c, 5, 54, 100
7, 1046880, Note_on_c, 5, 54, 0
7, 1046880, Note_on_c, 5, 55, 100
7, 1047000, Note_on_c, 5, 55, 0
7, 1047000, Note_on_c, 5, 54, 100
7, 1047120, Note_on_c, 5, 54, 0
7, 1047120, Note_on_c, 5, 52, 100
7, 1047240, Note_on_c, 5, 52, 0
7, 1047240, Note_on_c, 5, 51, 100
7, 1047360, Note_on_c, 5, 51, 0
7, 1047360, Note_on_c, 5, 52, 100
7, 1047960, Note_on_c, 5, 52, 0
7, 1047960, Note_on_c, 5, 50, 100
7, 1048080, Note_on_c, 5, 50, 0
7, 1048080, Note_on_c, 5, 48, 100
7, 1048200, Note_on_c, 5, 48, 0
7, 1048200, Note_on_c, 5, 52, 100
7, 1048320, Note_on_c, 5, 52, 0
7, 1048320, Note_on_c, 5, 50, 100
7, 1049040, Note_on_c, 5, 50, 0
7, 1049040, Note_on_c, 5, 45, 100
7, 1049280, Note_on_c, 5, 45, 0
7, 1049280, Note_on_c, 5, 47, 100
7, 1049520, Note_on_c, 5, 47, 0
7, 1050000, Note_on_c, 5, 52, 100
7, 1050240, Note_on_c, 5, 52, 0
7, 1050240, Note_on_c, 5, 48, 100
7, 1050480, Note_on_c, 5, 48, 0
7, 1050480, Note_on_c, 5, 50, 100
7, 1050720, Note_on_c, 5, 50, 0
7, 1050720, Note_on_c, 5, 43, 100
7, 1051320, Note_on_c, 5, 43, 0
7, 1051320, Note_on_c, 5, 47, 100
7, 1051440, Note_on_c, 5, 47, 0
7, 1051440, Note_on_c, 5, 50, 100
7, 1051560, Note_on_c, 5, 50, 0
7, 1051560, Note_on_c, 5, 54, 100
7, 1051680, Note_on_c, 5, 54, 0
7, 1051680, Note_on_c, 5, 55, 100
7, 1052160, Note_on_c, 5, 55, 0
7, 1052160, Note_on_c, 5, 50, 100
7, 1052640, Note_on_c, 5, 50, 0
7, 1052640, Note_on_c, 5, 50, 100
7, 1053120, Note_on_c, 5, 50, 0
7, 1053120, Note_on_c, 5, 48, 100
7, 1053600, Note_on_c, 5, 48, 0
7, 1053600, Note_on_c, 5, 47, 100
7, 1053840, Note_on_c, 5, 47, 0
7, 1053840, Note_on_c, 5, 48, 100
7, 1054080, Note_on_c, 5, 48, 0
7, 1054080, Note_on_c, 5, 47, 100
7, 1054320, Note_on_c, 5, 47, 0
7, 1054320, Note_on_c, 5, 45, 100
7, 1054560, Note_on_c, 5, 45, 0
7, 1054560, Note_on_c, 5, 43, 100
7, 1054800, Note_on_c, 5, 43, 0
7, 1054800, Note_on_c, 5, 45, 100
7, 1054920, Note_on_c, 5, 45, 0
7, 1054920, Note_on_c, 5, 47, 100
7, 1055040, Note_on_c, 5, 47, 0
7, 1055040, Note_on_c, 5, 48, 100
7, 1055280, Note_on_c, 5, 48, 0
7, 1055280, Note_on_c, 5, 47, 100
7, 1055520, Note_on_c, 5, 47, 0
7, 1055520, Note_on_c, 5, 48, 100
7, 1055760, Note_on_c, 5, 48, 0
7, 1055760, Note_on_c, 5, 52, 100
7, 1056000, Note_on_c, 5, 52, 0
7, 1056000, Note_on_c, 5, 45, 100
7, 1056240, Note_on_c, 5, 45, 0
7, 1056240, Note_on_c, 5, 48, 100
7, 1056480, Note_on_c, 5, 48, 0
7, 1056480, Note_on_c, 5, 47, 100
7, 1056960, Note_on_c, 5, 47, 0
7, 1058160, Note_on_c, 5, 52, 100
7, 1058400, Note_on_c, 5, 52, 0
7, 1058400, Note_on_c, 5, 54, 100
7, 1058640, Note_on_c, 5, 54, 0
7, 1058640, Note_on_c, 5, 55, 100
7, 1058880, Note_on_c, 5, 55, 0
7, 1058880, Note_on_c, 5, 57, 100
7, 1059120, Note_on_c, 5, 57, 0
7, 1059120, Note_on_c, 5, 59, 100
7, 1059360, Note_on_c, 5, 59, 0
7, 1059360, Note_on_c, 5, 60, 100
7, 1059480, Note_on_c, 5, 60, 0
7, 1059480, Note_on_c, 5, 62, 100
7, 1059600, Note_on_c, 5, 62, 0
7, 1059600, Note_on_c, 5, 60, 100
7, 1059720, Note_on_c, 5, 60, 0
7, 1059720, Note_on_c, 5, 59, 100
7, 1059840, Note_on_c, 5, 59, 0
7, 1059840, Note_on_c, 5, 60, 100
7, 1059960, Note_on_c, 5, 60, 0
7, 1059960, Note_on_c, 5, 59, 100
7, 1060080, Note_on_c, 5, 59, 0
7, 1060080, Note_on_c, 5, 57, 100
7, 1060200, Note_on_c, 5, 57, 0
7, 1060200, Note_on_c, 5, 55, 100
7, 1060320, Note_on_c, 5, 55, 0
7, 1060320, Note_on_c, 5, 57, 100
7, 1060440, Note_on_c, 5, 57, 0
7, 1060440, Note_on_c, 5, 54, 100
7, 1060560, Note_on_c, 5, 54, 0
7, 1060560, Note_on_c, 5, 55, 100
7, 1060680, Note_on_c, 5, 55, 0
7, 1060680, Note_on_c, 5, 57, 100
7, 1060800, Note_on_c, 5, 57, 0
7, 1060800, Note_on_c, 5, 59, 100
7, 1060920, Note_on_c, 5, 59, 0
7, 1060920, Note_on_c, 5, 60, 100
7, 1061040, Note_on_c, 5, 60, 0
7, 1061040, Note_on_c, 5, 59, 100
7, 1061160, Note_on_c, 5, 59, 0
7, 1061160, Note_on_c, 5, 57, 100
7, 1061280, Note_on_c, 5, 57, 0
7, 1061280, Note_on_c, 5, 59, 100
7, 1061400, Note_on_c, 5, 59, 0
7, 1061400, Note_on_c, 5, 54, 100
7, 1061520, Note_on_c, 5, 54, 0
7, 1061520, Note_on_c, 5, 51, 100
7, 1061640, Note_on_c, 5, 51, 0
7, 1061640, Note_on_c, 5, 54, 100
7, 1061760, Note_on_c, 5, 54, 0
7, 1061760, Note_on_c, 5, 47, 100
7, 1061880, Note_on_c, 5, 47, 0
7, 1061880, Note_on_c, 5, 51, 100
7, 1062000, Note_on_c, 5, 51, 0
7, 1062000, Note_on_c, 5, 49, 100
7, 1062120, Note_on_c, 5, 49, 0
7, 1062120, Note_on_c, 5, 47, 100
7, 1062240, Note_on_c, 5, 47, 0
7, 1062240, Note_on_c, 5, 52, 100
7, 1062360, Note_on_c, 5, 52, 0
7, 1062360, Note_on_c, 5, 48, 100
7, 1062480, Note_on_c, 5, 48, 0
7, 1062480, Note_on_c, 5, 47, 100
7, 1062600, Note_on_c, 5, 47, 0
7, 1062600, Note_on_c, 5, 45, 100
7, 1062720, Note_on_c, 5, 45, 0
7, 1062720, Note_on_c, 5, 43, 100
7, 1062840, Note_on_c, 5, 43, 0
7, 1062840, Note_on_c, 5, 47, 100
7, 1062960, Note_on_c, 5, 47, 0
7, 1062960, Note_on_c, 5, 52, 100
7, 1063080, Note_on_c, 5, 52, 0
7, 1063080, Note_on_c, 5, 51, 100
7, 1063200, Note_on_c, 5, 51, 0
7, 1063200, Note_on_c, 5, 52, 100
7, 1063440, Note_on_c, 5, 52, 0
7, 1063440, Note_on_c, 5, 50, 100
7, 1063680, Note_on_c, 5, 50, 0
7, 1063680, Note_on_c, 5, 48, 100
7, 1063920, Note_on_c, 5, 48, 0
7, 1063920, Note_on_c, 5, 60, 100
7, 1064160, Note_on_c, 5, 60, 0
7, 1064280, Note_on_c, 5, 52, 100
7, 1064400, Note_on_c, 5, 52, 0
7, 1064400, Note_on_c, 5, 50, 100
7, 1064520, Note_on_c, 5, 50, 0
7, 1064520, Note_on_c, 5, 48, 100
7, 1064640, Note_on_c, 5, 48, 0
7, 1064640, Note_on_c, 5, 50, 100
7, 1064760, Note_on_c, 5, 50, 0
7, 1064760, Note_on_c, 5, 48, 100
7, 1064880, Note_on_c, 5, 48, 0
7, 1064880, Note_on_c, 5, 47, 100
7, 1065000, Note_on_c, 5, 47, 0
7, 1065000, Note_on_c, 5, 45, 100
7, 1065120, Note_on_c, 5, 45, 0
7, 1065120, Note_on_c, 5, 47, 100
7, 1065360, Note_on_c, 5, 47, 0
7, 1065360, Note_on_c, 5, 59, 100
7, 1065600, Note_on_c, 5, 59, 0
7, 1065720, Note_on_c, 5, 50, 100
7, 1065840, Note_on_c, 5, 50, 0
7, 1065840, Note_on_c, 5, 48, 100
7, 1065960, Note_on_c, 5, 48, 0
7, 1065960, Note_on_c, 5, 47, 100
7, 1066080, Note_on_c, 5, 47, 0
7, 1066080, Note_on_c, 5, 48, 100
7, 1066200, Note_on_c, 5, 48, 0
7, 1066200, Note_on_c, 5, 47, 100
7, 1066320, Note_on_c, 5, 47, 0
7, 1066320, Note_on_c, 5, 45, 100
7, 1066440, Note_on_c, 5, 45, 0
7, 1066440, Note_on_c, 5, 44, 100
7, 1066560, Note_on_c, 5, 44, 0
7, 1066560, Note_on_c, 5, 45, 100
7, 1066800, Note_on_c, 5, 45, 0
7, 1066800, Note_on_c, 5, 57, 100
7, 1067040, Note_on_c, 5, 57, 0
7, 1067160, Note_on_c, 5, 59, 100
7, 1067280, Note_on_c, 5, 59, 0
7, 1067280, Note_on_c, 5, 57, 100
7, 1067400, Note_on_c, 5, 57, 0
7, 1067400, Note_on_c, 5, 55, 100
7, 1067520, Note_on_c, 5, 55, 0
7, 1067520, Note_on_c, 5, 57, 100
7, 1067640, Note_on_c, 5, 57, 0
7, 1067640, Note_on_c, 5, 55, 100
7, 1067760, Note_on_c, 5, 55, 0
7, 1067760, Note_on_c, 5, 54, 100
7, 1067880, Note_on_c, 5, 54, 0
7, 1067880, Note_on_c, 5, 52, 100
7, 1068000, Note_on_c, 5, 52, 0
7, 1068000, Note_on_c, 5, 54, 100
7, 1068120, Note_on_c, 5, 54, 0
7, 1068120, Note_on_c, 5, 52, 100
7, 1068240, Note_on_c, 5, 52, 0
7, 1068240, Note_on_c, 5, 50, 100
7, 1068360, Note_on_c, 5, 50, 0
7, 1068360, Note_on_c, 5, 49, 100
7, 1068480, Note_on_c, 5, 49, 0
7, 1068480, Note_on_c, 5, 50, 100
7, 1068600, Note_on_c, 5, 50, 0
7, 1068600, Note_on_c, 5, 48, 100
7, 1068720, Note_on_c, 5, 48, 0
7, 1068720, Note_on_c, 5, 47, 100
7, 1068840, Note_on_c, 5, 47, 0
7, 1068840, Note_on_c, 5, 45, 100
7, 1068960, Note_on_c, 5, 45, 0
7, 1068960, Note_on_c, 5, 47, 100
7, 1069080, Note_on_c, 5, 47, 0
7, 1069080, Note_on_c, 5, 45, 100
7, 1069200, Note_on_c, 5, 45, 0
7, 1069200, Note_on_c, 5, 43, 100
7, 1069320, Note_on_c, 5, 43, 0
7, 1069320, Note_on_c, 5, 42, 100
7, 1069440, Note_on_c, 5, 42, 0
7, 1069440, Note_on_c, 5, 43, 100
7, 1069560, Note_on_c, 5, 43, 0
7, 1069560, Note_on_c, 5, 57, 100
7, 1069680, Note_on_c, 5, 57, 0
7, 1069680, Note_on_c, 5, 55, 100
7, 1069800, Note_on_c, 5, 55, 0
7, 1069800, Note_on_c, 5, 54, 100
7, 1069920, Note_on_c, 5, 54, 0
7, 1069920, Note_on_c, 5, 55, 100
7, 1070040, Note_on_c, 5, 55, 0
7, 1070040, Note_on_c, 5, 54, 100
7, 1070160, Note_on_c, 5, 54, 0
7, 1070160, Note_on_c, 5, 52, 100
7, 1070280, Note_on_c, 5, 52, 0
7, 1070280, Note_on_c, 5, 51, 100
7, 1070400, Note_on_c, 5, 51, 0
7, 1070400, Note_on_c, 5, 52, 100
7, 1071000, Note_on_c, 5, 52, 0
7, 1071000, Note_on_c, 5, 50, 100
7, 1071120, Note_on_c, 5, 50, 0
7, 1071120, Note_on_c, 5, 48, 100
7, 1071240, Note_on_c, 5, 48, 0
7, 1071240, Note_on_c, 5, 52, 100
7, 1071360, Note_on_c, 5, 52, 0
7, 1071360, Note_on_c, 5, 50, 100
7, 1072080, Note_on_c, 5, 50, 0
7, 1072080, Note_on_c, 5, 45, 100
7, 1072320, Note_on_c, 5, 45, 0
7, 1072320, Note_on_c, 5, 47, 100
7, 1072560, Note_on_c, 5, 47, 0
7, 1073040, Note_on_c, 5, 52, 100
7, 1073280, Note_on_c, 5, 52, 0
7, 1073280, Note_on_c, 5, 48, 100
7, 1073520, Note_on_c, 5, 48, 0
7, 1073520, Note_on_c, 5, 50, 100
7, 1073760, Note_on_c, 5, 50, 0
7, 1073760, Note_on_c, 5, 43, 100
7, 1074360, Note_on_c, 5, 43, 0
7, 1074360, Note_on_c, 5, 47, 100
7, 1074480, Note_on_c, 5, 47, 0
7, 1074480, Note_on_c, 5, 50, 100
7, 1074600, Note_on_c, 5, 50, 0
7, 1074600, Note_on_c, 5, 54, 100
7, 1074720, Note_on_c, 5, 54, 0
7, 1074720, Note_on_c, 5, 55, 100
7, 1075200, Note_on_c, 5, 55, 0
7, 1075200, Note_on_c, 5, 55, 100
7, 1075920, Note_on_c, 5, 55, 0
7, 1075920, Note_on_c, 5, 55, 100
7, 1076160, Note_on_c, 5, 55, 0
7, 1076160, Note_on_c, 5, 54, 100
7, 1076400, Note_on_c, 5, 54, 0
7, 1076400, Note_on_c, 5, 52, 100
7, 1076640, Note_on_c, 5, 52, 0
7, 1076640, Note_on_c, 5, 54, 100
7, 1077360, Note_on_c, 5, 54, 0
7, 1077360, Note_on_c, 5, 59, 100
7, 1077600, Note_on_c, 5, 59, 0
7, 1077600, Note_on_c, 5, 57, 100
7, 1077840, Note_on_c, 5, 57, 0
7, 1077840, Note_on_c, 5, 59, 100
7, 1078080, Note_on_c, 5, 59, 0
7, 1078080, Note_on_c, 5, 52, 100
7, 1078800, Note_on_c, 5, 52, 0
7, 1078800, Note_on_c, 5, 57, 100
7, 1079040, Note_on_c, 5, 57, 0
7, 1079040, Note_on_c, 5, 55, 100
7, 1079280, Note_on_c, 5, 55, 0
7, 1079280, Note_on_c, 5, 57, 100
7, 1079520, Note_on_c, 5, 57, 0
7, 1079520, Note_on_c, 5, 50, 100
7, 1080240, Note_on_c, 5, 50, 0
7, 1080240, Note_on_c, 5, 52, 100
7, 1080480, Note_on_c, 5, 52, 0
7, 1080480, Note_on_c, 5, 50, 100
7, 1080720, Note_on_c, 5, 50, 0
7, 1080720, Note_on_c, 5, 48, 100
7, 1080960, Note_on_c, 5, 48, 0
7, 1080960, Note_on_c, 5, 47, 100
7, 1081680, Note_on_c, 5, 47, 0
7, 1081680, Note_on_c, 5, 43, 100
7, 1081920, Note_on_c, 5, 43, 0
7, 1081920, Note_on_c, 5, 45, 100
7, 1082160, Note_on_c, 5, 45, 0
7, 1082160, Note_on_c, 5, 47, 100
7, 1082400, Note_on_c, 5, 47, 0
7, 1082400, Note_on_c, 5, 48, 100
7, 1083120, Note_on_c, 5, 48, 0
7, 1083120, Note_on_c, 5, 45, 100
7, 1083360, Note_on_c, 5, 45, 0
7, 1083360, Note_on_c, 5, 47, 100
7, 1083600, Note_on_c, 5, 47, 0
7, 1083600, Note_on_c, 5, 48, 100
7, 1083840, Note_on_c, 5, 48, 0
7, 1083840, Note_on_c, 5, 50, 100
7, 1084560, Note_on_c, 5, 50, 0
7, 1084560, Note_on_c, 5, 50, 100
7, 1084800, Note_on_c, 5, 50, 0
7, 1084800, Note_on_c, 5, 48, 100
7, 1085040, Note_on_c, 5, 48, 0
7, 1085040, Note_on_c, 5, 50, 100
7, 1085280, Note_on_c, 5, 50, 0
7, 1085280, Note_on_c, 5, 43, 100
7, 1086000, Note_on_c, 5, 43, 0
7, 1086000, Note_on_c, 5, 43, 100
7, 1086240, Note_on_c, 5, 43, 0
7, 1086240, Note_on_c, 5, 47, 100
7, 1086480, Note_on_c, 5, 47, 0
7, 1086480, Note_on_c, 5, 50, 100
7, 1086720, Note_on_c, 5, 50, 0
7, 1086720, Note_on_c, 5, 55, 100
7, 1087440, Note_on_c, 5, 55, 0
7, 1087440, Note_on_c, 5, 55, 100
7, 1087680, Note_on_c, 5, 55, 0
7, 1087680, Note_on_c, 5, 54, 100
7, 1087920, Note_on_c, 5, 54, 0
7, 1087920, Note_on_c, 5, 52, 100
7, 1088160, Note_on_c, 5, 52, 0
7, 1088160, Note_on_c, 5, 54, 100
7, 1088880, Note_on_c, 5, 54, 0
7, 1088880, Note_on_c, 5, 59, 100
7, 1089120, Note_on_c, 5, 59, 0
7, 1089120, Note_on_c, 5, 57, 100
7, 1089360, Note_on_c, 5, 57, 0
7, 1089360, Note_on_c, 5, 59, 100
7, 1089600, Note_on_c, 5, 59, 0
7, 1089600, Note_on_c, 5, 52, 100
7, 1090320, Note_on_c, 5, 52, 0
7, 1090320, Note_on_c, 5, 54, 100
7, 1090560, Note_on_c, 5, 54, 0
7, 1090560, Note_on_c, 5, 52, 100
7, 1090800, Note_on_c, 5, 52, 0
7, 1090800, Note_on_c, 5, 50, 100
7, 1091040, Note_on_c, 5, 50, 0
7, 1091040, Note_on_c, 5, 49, 100
7, 1091760, Note_on_c, 5, 49, 0
7, 1091760, Note_on_c, 5, 52, 100
7, 1092000, Note_on_c, 5, 52, 0
7, 1092000, Note_on_c, 5, 45, 100
7, 1092240, Note_on_c, 5, 45, 0
7, 1092240, Note_on_c, 5, 43, 100
7, 1092480, Note_on_c, 5, 43, 0
7, 1092480, Note_on_c, 5, 42, 100
7, 1092720, Note_on_c, 5, 42, 0
7, 1092720, Note_on_c, 5, 54, 100
7, 1092900, Note_on_c, 5, 54, 0
7, 1092900, Note_on_c, 5, 52, 100
7, 1092960, Note_on_c, 5, 52, 0
7, 1092960, Note_on_c, 5, 54, 100
7, 1093200, Note_on_c, 5, 54, 0
7, 1093200, Note_on_c, 5, 57, 100
7, 1093440, Note_on_c, 5, 57, 0
7, 1093440, Note_on_c, 5, 50, 100
7, 1093680, Note_on_c, 5, 50, 0
7, 1093680, Note_on_c, 5, 54, 100
7, 1093920, Note_on_c, 5, 54, 0
7, 1093920, Note_on_c, 5, 43, 100
7, 1094160, Note_on_c, 5, 43, 0
7, 1094160, Note_on_c, 5, 55, 100
7, 1094340, Note_on_c, 5, 55, 0
7, 1094340, Note_on_c, 5, 54, 100
7, 1094400, Note_on_c, 5, 54, 0
7, 1094400, Note_on_c, 5, 55, 100
7, 1094640, Note_on_c, 5, 55, 0
7, 1094640, Note_on_c, 5, 59, 100
7, 1094880, Note_on_c, 5, 59, 0
7, 1094880, Note_on_c, 5, 52, 100
7, 1095120, Note_on_c, 5, 52, 0
7, 1095120, Note_on_c, 5, 55, 100
7, 1095360, Note_on_c, 5, 55, 0
7, 1095360, Note_on_c, 5, 45, 100
7, 1095600, Note_on_c, 5, 45, 0
7, 1095600, Note_on_c, 5, 57, 100
7, 1095780, Note_on_c, 5, 57, 0
7, 1095780, Note_on_c, 5, 55, 100
7, 1095840, Note_on_c, 5, 55, 0
7, 1095840, Note_on_c, 5, 57, 100
7, 1096560, Note_on_c, 5, 57, 0
7, 1096560, Note_on_c, 5, 57, 100
7, 1096800, Note_on_c, 5, 57, 0
7, 1096800, Note_on_c, 5, 50, 100
7, 1097520, Note_on_c, 5, 61, 100
7, 1097760, Note_on_c, 5, 61, 0
7, 1097760, Note_on_c, 5, 62, 100
7, 1098240, Note_on_c, 5, 62, 0
7, 1098240, Note_on_c, 5, 50, 0
7, 1098240, Note_on_c, 5, 55, 100
7, 1098960, Note_on_c, 5, 55, 0
7, 1098960, Note_on_c, 5, 55, 100
7, 1099200, Note_on_c, 5, 55, 0
7, 1099200, Note_on_c, 5, 54, 100
7, 1099440, Note_on_c, 5, 54, 0
7, 1099440, Note_on_c, 5, 52, 100
7, 1099680, Note_on_c, 5, 52, 0
7, 1099680, Note_on_c, 5, 54, 100
7, 1100400, Note_on_c, 5, 54, 0
7, 1100400, Note_on_c, 5, 59, 100
7, 1100640, Note_on_c, 5, 59, 0
7, 1100640, Note_on_c, 5, 57, 100
7, 1100880, Note_on_c, 5, 57, 0
7, 1100880, Note_on_c, 5, 59, 100
7, 1101120, Note_on_c, 5, 59, 0
7, 1101120, Note_on_c, 5, 52, 100
7, 1101840, Note_on_c, 5, 52, 0
7, 1101840, Note_on_c, 5, 57, 100
7, 1102080, Note_on_c, 5, 57, 0
7, 1102080, Note_on_c, 5, 55, 100
7, 1102320, Note_on_c, 5, 55, 0
7, 1102320, Note_on_c, 5, 57, 100
7, 1102560, Note_on_c, 5, 57, 0
7, 1102560, Note_on_c, 5, 50, 100
7, 1103280, Note_on_c, 5, 50, 0
7, 1103280, Note_on_c, 5, 52, 100
7, 1103520, Note_on_c, 5, 52, 0
7, 1103520, Note_on_c, 5, 50, 100
7, 1103760, Note_on_c, 5, 50, 0
7, 1103760, Note_on_c, 5, 48, 100
7, 1104000, Note_on_c, 5, 48, 0
7, 1104000, Note_on_c, 5, 47, 100
7, 1104720, Note_on_c, 5, 47, 0
7, 1104720, Note_on_c, 5, 43, 100
7, 1104960, Note_on_c, 5, 43, 0
7, 1104960, Note_on_c, 5, 45, 100
7, 1105200, Note_on_c, 5, 45, 0
7, 1105200, Note_on_c, 5, 47, 100
7, 1105440, Note_on_c, 5, 47, 0
7, 1105440, Note_on_c, 5, 48, 100
7, 1106160, Note_on_c, 5, 48, 0
7, 1106160, Note_on_c, 5, 45, 100
7, 1106400, Note_on_c, 5, 45, 0
7, 1106400, Note_on_c, 5, 47, 100
7, 1106640, Note_on_c, 5, 47, 0
7, 1106640, Note_on_c, 5, 48, 100
7, 1106880, Note_on_c, 5, 48, 0
7, 1106880, Note_on_c, 5, 50, 100
7, 1107600, Note_on_c, 5, 50, 0
7, 1107600, Note_on_c, 5, 50, 100
7, 1107840, Note_on_c, 5, 50, 0
7, 1107840, Note_on_c, 5, 48, 100
7, 1108080, Note_on_c, 5, 48, 0
7, 1108080, Note_on_c, 5, 50, 100
7, 1108320, Note_on_c, 5, 50, 0
7, 1108320, Note_on_c, 5, 43, 100
7, 1109040, Note_on_c, 5, 43, 0
7, 1109040, Note_on_c, 5, 43, 100
7, 1109280, Note_on_c, 5, 43, 0
7, 1109280, Note_on_c, 5, 47, 100
7, 1109520, Note_on_c, 5, 47, 0
7, 1109520, Note_on_c, 5, 50, 100
7, 1109760, Note_on_c, 5, 50, 0
7, 1109760, Note_on_c, 5, 55, 100
7, 1110480, Note_on_c, 5, 55, 0
7, 1110480, Note_on_c, 5, 55, 100
7, 1110720, Note_on_c, 5, 55, 0
7, 1110720, Note_on_c, 5, 54, 100
7, 1110960, Note_on_c, 5, 54, 0
7, 1110960, Note_on_c, 5, 52, 100
7, 1111200, Note_on_c, 5, 52, 0
7, 1111200, Note_on_c, 5, 54, 100
7, 1111920, Note_on_c, 5, 54, 0
7, 1111920, Note_on_c, 5, 59, 100
7, 1112160, Note_on_c, 5, 59, 0
7, 1112160, Note_on_c, 5, 57, 100
7, 1112400, Note_on_c, 5, 57, 0
7, 1112400, Note_on_c, 5, 59, 100
7, 1112640, Note_on_c, 5, 59, 0
7, 1112640, Note_on_c, 5, 52, 100
7, 1113360, Note_on_c, 5, 52, 0
7, 1113360, Note_on_c, 5, 54, 100
7, 1113600, Note_on_c, 5, 54, 0
7, 1113600, Note_on_c, 5, 52, 100
7, 1113840, Note_on_c, 5, 52, 0
7, 1113840, Note_on_c, 5, 50, 100
7, 1114080, Note_on_c, 5, 50, 0
7, 1114080, Note_on_c, 5, 49, 100
7, 1114800, Note_on_c, 5, 49, 0
7, 1114800, Note_on_c, 5, 52, 100
7, 1115040, Note_on_c, 5, 52, 0
7, 1115040, Note_on_c, 5, 45, 100
7, 1115280, Note_on_c, 5, 45, 0
7, 1115280, Note_on_c, 5, 43, 100
7, 1115520, Note_on_c, 5, 43, 0
7, 1115520, Note_on_c, 5, 42, 100
7, 1115760, Note_on_c, 5, 42, 0
7, 1115760, Note_on_c, 5, 54, 100
7, 1115940, Note_on_c, 5, 54, 0
7, 1115940, Note_on_c, 5, 52, 100
7, 1116000, Note_on_c, 5, 52, 0
7, 1116000, Note_on_c, 5, 54, 100
7, 1116240, Note_on_c, 5, 54, 0
7, 1116240, Note_on_c, 5, 57, 100
7, 1116480, Note_on_c, 5, 57, 0
7, 1116480, Note_on_c, 5, 50, 100
7, 1116720, Note_on_c, 5, 50, 0
7, 1116720, Note_on_c, 5, 54, 100
7, 1116960, Note_on_c, 5, 54, 0
7, 1116960, Note_on_c, 5, 43, 100
7, 1117200, Note_on_c, 5, 43, 0
7, 1117200, Note_on_c, 5, 55, 100
7, 1117380, Note_on_c, 5, 55, 0
7, 1117380, Note_on_c, 5, 54, 100
7, 1117440, Note_on_c, 5, 54, 0
7, 1117440, Note_on_c, 5, 55, 100
7, 1117680, Note_on_c, 5, 55, 0
7, 1117680, Note_on_c, 5, 59, 100
7, 1117920, Note_on_c, 5, 59, 0
7, 1117920, Note_on_c, 5, 52, 100
7, 1118160, Note_on_c, 5, 52, 0
7, 1118160, Note_on_c, 5, 55, 100
7, 1118400, Note_on_c, 5, 55, 0
7, 1118400, Note_on_c, 5, 45, 100
7, 1118640, Note_on_c, 5, 45, 0
7, 1118640, Note_on_c, 5, 57, 100
7, 1118820, Note_on_c, 5, 57, 0
7, 1118820, Note_on_c, 5, 55, 100
7, 1118880, Note_on_c, 5, 55, 0
7, 1118880, Note_on_c, 5, 57, 100
7, 1119600, Note_on_c, 5, 57, 0
7, 1119600, Note_on_c, 5, 57, 100
7, 1119840, Note_on_c, 5, 57, 0
7, 1119840, Note_on_c, 5, 50, 100
7, 1120560, Note_on_c, 5, 61, 100
7, 1120800, Note_on_c, 5, 61, 0
7, 1120800, Note_on_c, 5, 62, 100
7, 1121280, Note_on_c, 5, 62, 0
7, 1121280, Note_on_c, 5, 50, 0
7, 1121280, Note_on_c, 5, 62, 100
7, 1122000, Note_on_c, 5, 62, 0
7, 1122000, Note_on_c, 5, 60, 100
7, 1122120, Note_on_c, 5, 60, 0
7, 1122120, Note_on_c, 5, 59, 100
7, 1122240, Note_on_c, 5, 59, 0
7, 1122240, Note_on_c, 5, 60, 100
7, 1122480, Note_on_c, 5, 60, 0
7, 1122480, Note_on_c, 5, 57, 100
7, 1122720, Note_on_c, 5, 57, 0
7, 1122720, Note_on_c, 5, 59, 100
7, 1123440, Note_on_c, 5, 59, 0
7, 1123440, Note_on_c, 5, 62, 100
7, 1123680, Note_on_c, 5, 62, 0
7, 1123680, Note_on_c, 5, 55, 100
7, 1123920, Note_on_c, 5, 55, 0
7, 1123920, Note_on_c, 5, 59, 100
7, 1124160, Note_on_c, 5, 59, 0
7, 1124160, Note_on_c, 5, 60, 100
7, 1124880, Note_on_c, 5, 60, 0
7, 1124880, Note_on_c, 5, 59, 100
7, 1125120, Note_on_c, 5, 59, 0
7, 1125120, Note_on_c, 5, 60, 100
7, 1125360, Note_on_c, 5, 60, 0
7, 1125360, Note_on_c, 5, 57, 100
7, 1125600, Note_on_c, 5, 57, 0
7, 1125600, Note_on_c, 5, 59, 100
7, 1126320, Note_on_c, 5, 59, 0
7, 1126320, Note_on_c, 5, 47, 100
7, 1126560, Note_on_c, 5, 47, 0
7, 1126560, Note_on_c, 5, 49, 100
7, 1126800, Note_on_c, 5, 49, 0
7, 1126800, Note_on_c, 5, 51, 100
7, 1127040, Note_on_c, 5, 51, 0
7, 1127040, Note_on_c, 5, 40, 100
7, 1127280, Note_on_c, 5, 40, 0
7, 1127280, Note_on_c, 5, 55, 100
7, 1127400, Note_on_c, 5, 55, 0
7, 1127400, Note_on_c, 5, 57, 100
7, 1127520, Note_on_c, 5, 57, 0
7, 1127520, Note_on_c, 5, 55, 100
7, 1127760, Note_on_c, 5, 55, 0
7, 1127760, Note_on_c, 5, 54, 100
7, 1128000, Note_on_c, 5, 54, 0
7, 1128000, Note_on_c, 5, 52, 100
7, 1128480, Note_on_c, 5, 52, 0
7, 1128480, Note_on_c, 5, 45, 100
7, 1128720, Note_on_c, 5, 45, 0
7, 1128720, Note_on_c, 5, 57, 100
7, 1128840, Note_on_c, 5, 57, 0
7, 1128840, Note_on_c, 5, 55, 100
7, 1128960, Note_on_c, 5, 55, 0
7, 1128960, Note_on_c, 5, 57, 100
7, 1129200, Note_on_c, 5, 57, 0
7, 1129200, Note_on_c, 5, 60, 100
7, 1129440, Note_on_c, 5, 60, 0
7, 1129440, Note_on_c, 5, 57, 100
7, 1129680, Note_on_c, 5, 57, 0
7, 1129680, Note_on_c, 5, 54, 100
7, 1129920, Note_on_c, 5, 54, 0
7, 1129920, Note_on_c, 5, 47, 100
7, 1130160, Note_on_c, 5, 47, 0
7, 1130160, Note_on_c, 5, 51, 100
7, 1130400, Note_on_c, 5, 51, 0
7, 1130400, Note_on_c, 5, 52, 100
7, 1130640, Note_on_c, 5, 52, 0
7, 1130640, Note_on_c, 5, 55, 100
7, 1130880, Note_on_c, 5, 55, 0
7, 1130880, Note_on_c, 5, 59, 100
7, 1131360, Note_on_c, 5, 59, 0
7, 1131360, Note_on_c, 5, 52, 100
7, 1132560, Note_on_c, 5, 52, 0
7, 1132560, Note_on_c, 5, 50, 100
7, 1132800, Note_on_c, 5, 50, 0
7, 1132800, Note_on_c, 5, 48, 100
7, 1133280, Note_on_c, 5, 48, 0
7, 1133520, Note_on_c, 5, 60, 100
7, 1133760, Note_on_c, 5, 60, 0
7, 1133760, Note_on_c, 5, 59, 100
7, 1134000, Note_on_c, 5, 59, 0
7, 1134000, Note_on_c, 5, 58, 100
7, 1134240, Note_on_c, 5, 58, 0
7, 1134240, Note_on_c, 5, 59, 100
7, 1134480, Note_on_c, 5, 59, 0
7, 1134480, Note_on_c, 5, 47, 100
7, 1134720, Note_on_c, 5, 47, 0
7, 1134960, Note_on_c, 5, 59, 100
7, 1135200, Note_on_c, 5, 59, 0
7, 1135200, Note_on_c, 5, 57, 100
7, 1135440, Note_on_c, 5, 57, 0
7, 1135440, Note_on_c, 5, 56, 100
7, 1135680, Note_on_c, 5, 56, 0
7, 1135680, Note_on_c, 5, 57, 100
7, 1135920, Note_on_c, 5, 57, 0
7, 1135920, Note_on_c, 5, 45, 100
7, 1136160, Note_on_c, 5, 45, 0
7, 1137360, Note_on_c, 5, 45, 100
7, 1137600, Note_on_c, 5, 45, 0
7, 1137600, Note_on_c, 5, 38, 100
7, 1137840, Note_on_c, 5, 38, 0
7, 1137840, Note_on_c, 5, 42, 100
7, 1138080, Note_on_c, 5, 42, 0
7, 1138080, Note_on_c, 5, 45, 100
7, 1138320, Note_on_c, 5, 45, 0
7, 1138320, Note_on_c, 5, 50, 100
7, 1138560, Note_on_c, 5, 50, 0
7, 1138560, Note_on_c, 5, 43, 100
7, 1138800, Note_on_c, 5, 43, 0
7, 1138800, Note_on_c, 5, 55, 100
7, 1139040, Note_on_c, 5, 55, 0
7, 1139040, Note_on_c, 5, 57, 100
7, 1139280, Note_on_c, 5, 57, 0
7, 1139280, Note_on_c, 5, 59, 100
7, 1139520, Note_on_c, 5, 59, 0
7, 1139760, Note_on_c, 5, 55, 100
7, 1140000, Note_on_c, 5, 55, 0
7, 1140000, Note_on_c, 5, 48, 100
7, 1140240, Note_on_c, 5, 48, 0
7, 1140240, Note_on_c, 5, 52, 100
7, 1140480, Note_on_c, 5, 52, 0
7, 1140480, Note_on_c, 5, 53, 100
7, 1140720, Note_on_c, 5, 53, 0
7, 1140720, Note_on_c, 5, 54, 100
7, 1140960, Note_on_c, 5, 54, 0
7, 1140960, Note_on_c, 5, 55, 100
7, 1141200, Note_on_c, 5, 55, 0
7, 1141200, Note_on_c, 5, 54, 100
7, 1141320, Note_on_c, 5, 54, 0
7, 1141320, Note_on_c, 5, 52, 100
7, 1141440, Note_on_c, 5, 52, 0
7, 1141440, Note_on_c, 5, 50, 100
7, 1142160, Note_on_c, 5, 50, 0
7, 1142160, Note_on_c, 5, 54, 100
7, 1142400, Note_on_c, 5, 54, 0
7, 1142400, Note_on_c, 5, 52, 100
7, 1142640, Note_on_c, 5, 52, 0
7, 1142640, Note_on_c, 5, 50, 100
7, 1142880, Note_on_c, 5, 50, 0
7, 1142880, Note_on_c, 5, 43, 100
7, 1143360, Note_on_c, 5, 43, 0
7, 1143600, Note_on_c, 5, 51, 100
7, 1143840, Note_on_c, 5, 51, 0
7, 1143840, Note_on_c, 5, 43, 100
7, 1143840, Note_on_c, 5, 50, 100
7, 1144320, Note_on_c, 5, 50, 0
7, 1144320, Note_on_c, 5, 43, 0
7, 1144320, Note_on_c, 5, 62, 100
7, 1145040, Note_on_c, 5, 62, 0
7, 1145040, Note_on_c, 5, 60, 100
7, 1145160, Note_on_c, 5, 60, 0
7, 1145160, Note_on_c, 5, 59, 100
7, 1145280, Note_on_c, 5, 59, 0
7, 1145280, Note_on_c, 5, 60, 100
7, 1145520, Note_on_c, 5, 60, 0
7, 1145520, Note_on_c, 5, 57, 100
7, 1145760, Note_on_c, 5, 57, 0
7, 1145760, Note_on_c, 5, 59, 100
7, 1146480, Note_on_c, 5, 59, 0
7, 1146480, Note_on_c, 5, 62, 100
7, 1146720, Note_on_c, 5, 62, 0
7, 1146720, Note_on_c, 5, 55, 100
7, 1146960, Note_on_c, 5, 55, 0
7, 1146960, Note_on_c, 5, 59, 100
7, 1147200, Note_on_c, 5, 59, 0
7, 1147200, Note_on_c, 5, 60, 100
7, 1147920, Note_on_c, 5, 60, 0
7, 1147920, Note_on_c, 5, 59, 100
7, 1148160, Note_on_c, 5, 59, 0
7, 1148160, Note_on_c, 5, 60, 100
7, 1148400, Note_on_c, 5, 60, 0
7, 1148400, Note_on_c, 5, 57, 100
7, 1148640, Note_on_c, 5, 57, 0
7, 1148640, Note_on_c, 5, 59, 100
7, 1149360, Note_on_c, 5, 59, 0
7, 1149360, Note_on_c, 5, 47, 100
7, 1149600, Note_on_c, 5, 47, 0
7, 1149600, Note_on_c, 5, 49, 100
7, 1149840, Note_on_c, 5, 49, 0
7, 1149840, Note_on_c, 5, 51, 100
7, 1150080, Note_on_c, 5, 51, 0
7, 1150080, Note_on_c, 5, 40, 100
7, 1150320, Note_on_c, 5, 40, 0
7, 1150320, Note_on_c, 5, 55, 100
7, 1150440, Note_on_c, 5, 55, 0
7, 1150440, Note_on_c, 5, 57, 100
7, 1150560, Note_on_c, 5, 57, 0
7, 1150560, Note_on_c, 5, 55, 100
7, 1150800, Note_on_c, 5, 55, 0
7, 1150800, Note_on_c, 5, 54, 100
7, 1151040, Note_on_c, 5, 54, 0
7, 1151040, Note_on_c, 5, 52, 100
7, 1151520, Note_on_c, 5, 52, 0
7, 1151520, Note_on_c, 5, 45, 100
7, 1151760, Note_on_c, 5, 45, 0
7, 1151760, Note_on_c, 5, 57, 100
7, 1151880, Note_on_c, 5, 57, 0
7, 1151880, Note_on_c, 5, 55, 100
7, 1152000, Note_on_c, 5, 55, 0
7, 1152000, Note_on_c, 5, 57, 100
7, 1152240, Note_on_c, 5, 57, 0
7, 1152240, Note_on_c, 5, 60, 100
7, 1152480, Note_on_c, 5, 60, 0
7, 1152480, Note_on_c, 5, 57, 100
7, 1152720, Note_on_c, 5, 57, 0
7, 1152720, Note_on_c, 5, 54, 100
7, 1152960, Note_on_c, 5, 54, 0
7, 1152960, Note_on_c, 5, 47, 100
7, 1153200, Note_on_c, 5, 47, 0
7, 1153200, Note_on_c, 5, 51, 100
7, 1153440, Note_on_c, 5, 51, 0
7, 1153440, Note_on_c, 5, 52, 100
7, 1153680, Note_on_c, 5, 52, 0
7, 1153680, Note_on_c, 5, 55, 100
7, 1153920, Note_on_c, 5, 55, 0
7, 1153920, Note_on_c, 5, 59, 100
7, 1154400, Note_on_c, 5, 59, 0
7, 1154400, Note_on_c, 5, 52, 100
7, 1155600, Note_on_c, 5, 52, 0
7, 1155600, Note_on_c, 5, 50, 100
7, 1155840, Note_on_c, 5, 50, 0
7, 1155840, Note_on_c, 5, 48, 100
7, 1156320, Note_on_c, 5, 48, 0
7, 1156560, Note_on_c, 5, 60, 100
7, 1156800, Note_on_c, 5, 60, 0
7, 1156800, Note_on_c, 5, 59, 100
7, 1157040, Note_on_c, 5, 59, 0
7, 1157040, Note_on_c, 5, 58, 100
7, 1157280, Note_on_c, 5, 58, 0
7, 1157280, Note_on_c, 5, 59, 100
7, 1157520, Note_on_c, 5, 59, 0
7, 1157520, Note_on_c, 5, 47, 100
7, 1157760, Note_on_c, 5, 47, 0
7, 1158000, Note_on_c, 5, 59, 100
7, 1158240, Note_on_c, 5, 59, 0
7, 1158240, Note_on_c, 5, 57, 100
7, 1158480, Note_on_c, 5, 57, 0
7, 1158480, Note_on_c, 5, 56, 100
7, 1158720, Note_on_c, 5, 56, 0
7, 1158720, Note_on_c, 5, 57, 100
7, 1158960, Note_on_c, 5, 57, 0
7, 1158960, Note_on_c, 5, 45, 100
7, 1159200, Note_on_c, 5, 45, 0
7, 1160400, Note_on_c, 5, 45, 100
7, 1160640, Note_on_c, 5, 45, 0
7, 1160640, Note_on_c, 5, 38, 100
7, 1160880, Note_on_c, 5, 38, 0
7, 1160880, Note_on_c, 5, 42, 100
7, 1161120, Note_on_c, 5, 42, 0
7, 1161120, Note_on_c, 5, 45, 100
7, 1161360, Note_on_c, 5, 45, 0
7, 1161360, Note_on_c, 5, 50, 100
7, 1161600, Note_on_c, 5, 50, 0
7, 1161600, Note_on_c, 5, 43, 100
7, 1161840, Note_on_c, 5, 43, 0
7, 1161840, Note_on_c, 5, 55, 100
7, 1162080, Note_on_c, 5, 55, 0
7, 1162080, Note_on_c, 5, 57, 100
7, 1162320, Note_on_c, 5, 57, 0
7, 1162320, Note_on_c, 5, 59, 100
7, 1162560, Note_on_c, 5, 59, 0
7, 1162800, Note_on_c, 5, 55, 100
7, 1163040, Note_on_c, 5, 55, 0
7, 1163040, Note_on_c, 5, 48, 100
7, 1163280, Note_on_c, 5, 48, 0
7, 1163280, Note_on_c, 5, 52, 100
7, 1163520, Note_on_c, 5, 52, 0
7, 1163520, Note_on_c, 5, 53, 100
7, 1163760, Note_on_c, 5, 53, 0
7, 1163760, Note_on_c, 5, 54, 100
7, 1164000, Note_on_c, 5, 54, 0
7, 1164000, Note_on_c, 5, 55, 100
7, 1164240, Note_on_c, 5, 55, 0
7, 1164240, Note_on_c, 5, 54, 100
7, 1164360, Note_on_c, 5, 54, 0
7, 1164360, Note_on_c, 5, 52, 100
7, 1164480, Note_on_c, 5, 52, 0
7, 1164480, Note_on_c, 5, 50, 100
7, 1165200, Note_on_c, 5, 50, 0
7, 1165200, Note_on_c, 5, 54, 100
7, 1165440, Note_on_c, 5, 54, 0
7, 1165440, Note_on_c, 5, 52, 100
7, 1165680, Note_on_c, 5, 52, 0
7, 1165680, Note_on_c, 5, 50, 100
7, 1165920, Note_on_c, 5, 50, 0
7, 1165920, Note_on_c, 5, 43, 100
7, 1166400, Note_on_c, 5, 43, 0
7, 1166640, Note_on_c, 5, 51, 100
7, 1166880, Note_on_c, 5, 51, 0
7, 1166880, Note_on_c, 5, 43, 100
7, 1166880, Note_on_c, 5, 50, 100
7, 1167360, Note_on_c, 5, 50, 0
7, 1167360, Note_on_c, 5, 43, 0
7, 1259520, Note_on_c, 5, 55, 100
7, 1259760, Note_on_c, 5, 55, 0
7, 1259760, Note_on_c, 5, 43, 100
7, 1260000, Note_on_c, 5, 43, 0
7, 1260240, Note_on_c, 5, 55, 100
7, 1260600, Note_on_c, 5, 55, 0
7, 1260600, Note_on_c, 5, 54, 100
7, 1260660, Note_on_c, 5, 54, 0
7, 1260660, Note_on_c, 5, 52, 100
7, 1260720, Note_on_c, 5, 52, 0
7, 1260720, Note_on_c, 5, 54, 100
7, 1260960, Note_on_c, 5, 54, 0
7, 1261200, Note_on_c, 5, 50, 100
7, 1261440, Note_on_c, 5, 50, 0
7, 1261440, Note_on_c, 5, 51, 100
7, 1261680, Note_on_c, 5, 51, 0
7, 1261680, Note_on_c, 5, 52, 100
7, 1261920, Note_on_c, 5, 52, 0
7, 1262160, Note_on_c, 5, 63, 100
7, 1262400, Note_on_c, 5, 63, 0
7, 1262400, Note_on_c, 5, 62, 100
7, 1262520, Note_on_c, 5, 62, 0
7, 1262520, Note_on_c, 5, 61, 100
7, 1262640, Note_on_c, 5, 61, 0
7, 1262640, Note_on_c, 5, 62, 100
7, 1262880, Note_on_c, 5, 62, 0
7, 1263000, Note_on_c, 5, 60, 100
7, 1263120, Note_on_c, 5, 60, 0
7, 1263120, Note_on_c, 5, 58, 100
7, 1263240, Note_on_c, 5, 58, 0
7, 1263240, Note_on_c, 5, 57, 100
7, 1263360, Note_on_c, 5, 57, 0
7, 1263360, Note_on_c, 5, 55, 100
7, 1263420, Note_on_c, 5, 55, 0
7, 1263420, Note_on_c, 5, 54, 100
7, 1263480, Note_on_c, 5, 54, 0
7, 1263480, Note_on_c, 5, 55, 100
7, 1263600, Note_on_c, 5, 55, 0
7, 1263600, Note_on_c, 5, 48, 100
7, 1263720, Note_on_c, 5, 48, 0
7, 1263720, Note_on_c, 5, 55, 100
7, 1263840, Note_on_c, 5, 55, 0
7, 1263840, Note_on_c, 5, 60, 100
7, 1263960, Note_on_c, 5, 60, 0
7, 1263960, Note_on_c, 5, 54, 100
7, 1264080, Note_on_c, 5, 54, 0
7, 1264080, Note_on_c, 5, 54, 100
7, 1264200, Note_on_c, 5, 54, 0
7, 1264200, Note_on_c, 5, 55, 100
7, 1264320, Note_on_c, 5, 55, 0
7, 1264320, Note_on_c, 5, 55, 100
7, 1264440, Note_on_c, 5, 55, 0
7, 1264440, Note_on_c, 5, 54, 100
7, 1264560, Note_on_c, 5, 54, 0
7, 1264560, Note_on_c, 5, 55, 100
7, 1264680, Note_on_c, 5, 55, 0
7, 1264680, Note_on_c, 5, 57, 100
7, 1264800, Note_on_c, 5, 57, 0
7, 1264800, Note_on_c, 5, 50, 100
7, 1265040, Note_on_c, 5, 50, 0
7, 1265040, Note_on_c, 5, 51, 100
7, 1265280, Note_on_c, 5, 51, 0
7, 1265280, Note_on_c, 5, 46, 100
7, 1265520, Note_on_c, 5, 46, 0
7, 1265520, Note_on_c, 5, 58, 100
7, 1265640, Note_on_c, 5, 58, 0
7, 1265640, Note_on_c, 5, 60, 100
7, 1265760, Note_on_c, 5, 60, 0
7, 1265760, Note_on_c, 5, 62, 100
7, 1266000, Note_on_c, 5, 62, 0
7, 1266000, Note_on_c, 5, 62, 100
7, 1266240, Note_on_c, 5, 62, 0
7, 1266240, Note_on_c, 5, 55, 100
7, 1266480, Note_on_c, 5, 55, 0
7, 1266480, Note_on_c, 5, 46, 100
7, 1266540, Note_on_c, 5, 46, 0
7, 1266540, Note_on_c, 5, 48, 100
7, 1266600, Note_on_c, 5, 48, 0
7, 1266600, Note_on_c, 5, 50, 100
7, 1266660, Note_on_c, 5, 50, 0
7, 1266660, Note_on_c, 5, 46, 100
7, 1266720, Note_on_c, 5, 46, 0
7, 1266720, Note_on_c, 5, 43, 100
7, 1266960, Note_on_c, 5, 43, 0
7, 1267320, Note_on_c, 5, 54, 100
7, 1267440, Note_on_c, 5, 54, 0
7, 1267440, Note_on_c, 5, 55, 100
7, 1267560, Note_on_c, 5, 55, 0
7, 1267560, Note_on_c, 5, 57, 100
7, 1267680, Note_on_c, 5, 57, 0
7, 1267680, Note_on_c, 5, 58, 100
7, 1267920, Note_on_c, 5, 58, 0
7, 1267920, Note_on_c, 5, 57, 100
7, 1268160, Note_on_c, 5, 57, 0
7, 1268160, Note_on_c, 5, 55, 100
7, 1268280, Note_on_c, 5, 55, 0
7, 1268280, Note_on_c, 5, 54, 100
7, 1268520, Note_on_c, 5, 54, 0
7, 1268520, Note_on_c, 5, 52, 100
7, 1268640, Note_on_c, 5, 52, 0
7, 1268640, Note_on_c, 5, 54, 100
7, 1268700, Note_on_c, 5, 54, 0
7, 1268700, Note_on_c, 5, 57, 100
7, 1268760, Note_on_c, 5, 57, 0
7, 1268760, Note_on_c, 5, 55, 100
7, 1269000, Note_on_c, 5, 55, 0
7, 1269000, Note_on_c, 5, 54, 100
7, 1269120, Note_on_c, 5, 54, 0
7, 1269120, Note_on_c, 5, 55, 100
7, 1269240, Note_on_c, 5, 55, 0
7, 1269240, Note_on_c, 5, 57, 100
7, 1269360, Note_on_c, 5, 57, 0
7, 1269360, Note_on_c, 5, 58, 100
7, 1269480, Note_on_c, 5, 58, 0
7, 1269480, Note_on_c, 5, 57, 100
7, 1269600, Note_on_c, 5, 57, 0
7, 1269600, Note_on_c, 5, 55, 100
7, 1269660, Note_on_c, 5, 55, 0
7, 1269660, Note_on_c, 5, 57, 100
7, 1269720, Note_on_c, 5, 57, 0
7, 1269720, Note_on_c, 5, 55, 100
7, 1269840, Note_on_c, 5, 55, 0
7, 1269840, Note_on_c, 5, 53, 100
7, 1269900, Note_on_c, 5, 53, 0
7, 1269900, Note_on_c, 5, 55, 100
7, 1269960, Note_on_c, 5, 55, 0
7, 1269960, Note_on_c, 5, 53, 100
7, 1270080, Note_on_c, 5, 53, 0
7, 1270080, Note_on_c, 5, 52, 100
7, 1270200, Note_on_c, 5, 52, 0
7, 1270200, Note_on_c, 5, 53, 100
7, 1270320, Note_on_c, 5, 53, 0
7, 1270320, Note_on_c, 5, 55, 100
7, 1270440, Note_on_c, 5, 55, 0
7, 1270440, Note_on_c, 5, 52, 100
7, 1270560, Note_on_c, 5, 52, 0
7, 1270560, Note_on_c, 5, 49, 100
7, 1270680, Note_on_c, 5, 49, 0
7, 1270680, Note_on_c, 5, 50, 100
7, 1270800, Note_on_c, 5, 50, 0
7, 1270800, Note_on_c, 5, 52, 100
7, 1270920, Note_on_c, 5, 52, 0
7, 1270920, Note_on_c, 5, 49, 100
7, 1271040, Note_on_c, 5, 49, 0
7, 1271040, Note_on_c, 5, 53, 100
7, 1271100, Note_on_c, 5, 53, 0
7, 1271100, Note_on_c, 5, 52, 100
7, 1271160, Note_on_c, 5, 52, 0
7, 1271160, Note_on_c, 5, 50, 100
7, 1271280, Note_on_c, 5, 50, 0
7, 1271280, Note_on_c, 5, 55, 100
7, 1271760, Note_on_c, 5, 55, 0
7, 1271760, Note_on_c, 5, 54, 100
7, 1272000, Note_on_c, 5, 54, 0
7, 1272000, Note_on_c, 5, 58, 100
7, 1272240, Note_on_c, 5, 58, 0
7, 1272240, Note_on_c, 5, 52, 100
7, 1272480, Note_on_c, 5, 52, 0
7, 1272480, Note_on_c, 5, 57, 100
7, 1272720, Note_on_c, 5, 57, 0
7, 1272720, Note_on_c, 5, 49, 100
7, 1272960, Note_on_c, 5, 49, 0
7, 1272960, Note_on_c, 5, 50, 100
7, 1273200, Note_on_c, 5, 50, 0
7, 1273200, Note_on_c, 5, 53, 100
7, 1273320, Note_on_c, 5, 53, 0
7, 1273320, Note_on_c, 5, 52, 100
7, 1273440, Note_on_c, 5, 52, 0
7, 1273440, Note_on_c, 5, 53, 100
7, 1273680, Note_on_c, 5, 53, 0
7, 1273680, Note_on_c, 5, 57, 100
7, 1273920, Note_on_c, 5, 57, 0
7, 1273920, Note_on_c, 5, 62, 100
7, 1274040, Note_on_c, 5, 62, 0
7, 1274040, Note_on_c, 5, 60, 100
7, 1274100, Note_on_c, 5, 60, 0
7, 1274100, Note_on_c, 5, 58, 100
7, 1274160, Note_on_c, 5, 58, 0
7, 1274160, Note_on_c, 5, 57, 100
7, 1274220, Note_on_c, 5, 57, 0
7, 1274220, Note_on_c, 5, 55, 100
7, 1274280, Note_on_c, 5, 55, 0
7, 1274280, Note_on_c, 5, 57, 100
7, 1274400, Note_on_c, 5, 57, 0
7, 1274400, Note_on_c, 5, 50, 100
7, 1274880, Note_on_c, 5, 50, 0
7, 1274880, Note_on_c, 5, 55, 100
7, 1275120, Note_on_c, 5, 55, 0
7, 1275120, Note_on_c, 5, 43, 100
7, 1275360, Note_on_c, 5, 43, 0
7, 1275600, Note_on_c, 5, 55, 100
7, 1275960, Note_on_c, 5, 55, 0
7, 1275960, Note_on_c, 5, 54, 100
7, 1276020, Note_on_c, 5, 54, 0
7, 1276020, Note_on_c, 5, 52, 100
7, 1276080, Note_on_c, 5, 52, 0
7, 1276080, Note_on_c, 5, 54, 100
7, 1276320, Note_on_c, 5, 54, 0
7, 1276560, Note_on_c, 5, 50, 100
7, 1276800, Note_on_c, 5, 50, 0
7, 1276800, Note_on_c, 5, 51, 100
7, 1277040, Note_on_c, 5, 51, 0
7, 1277040, Note_on_c, 5, 52, 100
7, 1277280, Note_on_c, 5, 52, 0
7, 1277520, Note_on_c, 5, 63, 100
7, 1277760, Note_on_c, 5, 63, 0
7, 1277760, Note_on_c, 5, 62, 100
7, 1277880, Note_on_c, 5, 62, 0
7, 1277880, Note_on_c, 5, 61, 100
7, 1278000, Note_on_c, 5, 61, 0
7, 1278000, Note_on_c, 5, 62, 100
7, 1278240, Note_on_c, 5, 62, 0
7, 1278360, Note_on_c, 5, 60, 100
7, 1278480, Note_on_c, 5, 60, 0
7, 1278480, Note_on_c, 5, 58, 100
7, 1278600, Note_on_c, 5, 58, 0
7, 1278600, Note_on_c, 5, 57, 100
7, 1278720, Note_on_c, 5, 57, 0
7, 1278720, Note_on_c, 5, 55, 100
7, 1278780, Note_on_c, 5, 55, 0
7, 1278780, Note_on_c, 5, 54, 100
7, 1278840, Note_on_c, 5, 54, 0
7, 1278840, Note_on_c, 5, 55, 100
7, 1278960, Note_on_c, 5, 55, 0
7, 1278960, Note_on_c, 5, 48, 100
7, 1279080, Note_on_c, 5, 48, 0
7, 1279080, Note_on_c, 5, 55, 100
7, 1279200, Note_on_c, 5, 55, 0
7, 1279200, Note_on_c, 5, 60, 100
7, 1279320, Note_on_c, 5, 60, 0
7, 1279320, Note_on_c, 5, 54, 100
7, 1279440, Note_on_c, 5, 54, 0
7, 1279440, Note_on_c, 5, 54, 100
7, 1279560, Note_on_c, 5, 54, 0
7, 1279560, Note_on_c, 5, 55, 100
7, 1279680, Note_on_c, 5, 55, 0
7, 1279680, Note_on_c, 5, 55, 100
7, 1279800, Note_on_c, 5, 55, 0
7, 1279800, Note_on_c, 5, 54, 100
7, 1279920, Note_on_c, 5, 54, 0
7, 1279920, Note_on_c, 5, 55, 100
7, 1280040, Note_on_c, 5, 55, 0
7, 1280040, Note_on_c, 5, 57, 100
7, 1280160, Note_on_c, 5, 57, 0
7, 1280160, Note_on_c, 5, 50, 100
7, 1280400, Note_on_c, 5, 50, 0
7, 1280400, Note_on_c, 5, 51, 100
7, 1280640, Note_on_c, 5, 51, 0
7, 1280640, Note_on_c, 5, 46, 100
7, 1280880, Note_on_c, 5, 46, 0
7, 1280880, Note_on_c, 5, 58, 100
7, 1281000, Note_on_c, 5, 58, 0
7, 1281000, Note_on_c, 5, 60, 100
7, 1281120, Note_on_c, 5, 60, 0
7, 1281120, Note_on_c, 5, 62, 100
7, 1281360, Note_on_c, 5, 62, 0
7, 1281360, Note_on_c, 5, 62, 100
7, 1281600, Note_on_c, 5, 62, 0
7, 1281600, Note_on_c, 5, 55, 100
7, 1281840, Note_on_c, 5, 55, 0
7, 1281840, Note_on_c, 5, 46, 100
7, 1281900, Note_on_c, 5, 46, 0
7, 1281900, Note_on_c, 5, 48, 100
7, 1281960, Note_on_c, 5, 48, 0
7, 1281960, Note_on_c, 5, 50, 100
7, 1282020, Note_on_c, 5, 50, 0
7, 1282020, Note_on_c, 5, 46, 100
7, 1282080, Note_on_c, 5, 46, 0
7, 1282080, Note_on_c, 5, 43, 100
7, 1282320, Note_on_c, 5, 43, 0
7, 1282680, Note_on_c, 5, 54, 100
7, 1282800, Note_on_c, 5, 54, 0
7, 1282800, Note_on_c, 5, 55, 100
7, 1282920, Note_on_c, 5, 55, 0
7, 1282920, Note_on_c, 5, 57, 100
7, 1283040, Note_on_c, 5, 57, 0
7, 1283040, Note_on_c, 5, 58, 100
7, 1283280, Note_on_c, 5, 58, 0
7, 1283280, Note_on_c, 5, 57, 100
7, 1283520, Note_on_c, 5, 57, 0
7, 1283520, Note_on_c, 5, 55, 100
7, 1283640, Note_on_c, 5, 55, 0
7, 1283640, Note_on_c, 5, 54, 100
7, 1283880, Note_on_c, 5, 54, 0
7, 1283880, Note_on_c, 5, 52, 100
7, 1284000, Note_on_c, 5, 52, 0
7, 1284000, Note_on_c, 5, 54, 100
7, 1284060, Note_on_c, 5, 54, 0
7, 1284060, Note_on_c, 5, 57, 100
7, 1284120, Note_on_c, 5, 57, 0
7, 1284120, Note_on_c, 5, 55, 100
7, 1284360, Note_on_c, 5, 55, 0
7, 1284360, Note_on_c, 5, 54, 100
7, 1284480, Note_on_c, 5, 54, 0
7, 1284480, Note_on_c, 5, 55, 100
7, 1284600, Note_on_c, 5, 55, 0
7, 1284600, Note_on_c, 5, 57, 100
7, 1284720, Note_on_c, 5, 57, 0
7, 1284720, Note_on_c, 5, 58, 100
7, 1284840, Note_on_c, 5, 58, 0
7, 1284840, Note_on_c, 5, 57, 100
7, 1284960, Note_on_c, 5, 57, 0
7, 1284960, Note_on_c, 5, 55, 100
7, 1285020, Note_on_c, 5, 55, 0
7, 1285020, Note_on_c, 5, 57, 100
7, 1285080, Note_on_c, 5, 57, 0
7, 1285080, Note_on_c, 5, 55, 100
7, 1285200, Note_on_c, 5, 55, 0
7, 1285200, Note_on_c, 5, 53, 100
7, 1285260, Note_on_c, 5, 53, 0
7, 1285260, Note_on_c, 5, 55, 100
7, 1285320, Note_on_c, 5, 55, 0
7, 1285320, Note_on_c, 5, 53, 100
7, 1285440, Note_on_c, 5, 53, 0
7, 1285440, Note_on_c, 5, 52, 100
7, 1285560, Note_on_c, 5, 52, 0
7, 1285560, Note_on_c, 5, 53, 100
7, 1285680, Note_on_c, 5, 53, 0
7, 1285680, Note_on_c, 5, 55, 100
7, 1285800, Note_on_c, 5, 55, 0
7, 1285800, Note_on_c, 5, 52, 100
7, 1285920, Note_on_c, 5, 52, 0
7, 1285920, Note_on_c, 5, 49, 100
7, 1286040, Note_on_c, 5, 49, 0
7, 1286040, Note_on_c, 5, 50, 100
7, 1286160, Note_on_c, 5, 50, 0
7, 1286160, Note_on_c, 5, 52, 100
7, 1286280, Note_on_c, 5, 52, 0
7, 1286280, Note_on_c, 5, 49, 100
7, 1286400, Note_on_c, 5, 49, 0
7, 1286400, Note_on_c, 5, 53, 100
7, 1286460, Note_on_c, 5, 53, 0
7, 1286460, Note_on_c, 5, 52, 100
7, 1286520, Note_on_c, 5, 52, 0
7, 1286520, Note_on_c, 5, 50, 100
7, 1286640, Note_on_c, 5, 50, 0
7, 1286640, Note_on_c, 5, 55, 100
7, 1287120, Note_on_c, 5, 55, 0
7, 1287120, Note_on_c, 5, 54, 100
7, 1287360, Note_on_c, 5, 54, 0
7, 1287360, Note_on_c, 5, 58, 100
7, 1287600, Note_on_c, 5, 58, 0
7, 1287600, Note_on_c, 5, 52, 100
7, 1287840, Note_on_c, 5, 52, 0
7, 1287840, Note_on_c, 5, 57, 100
7, 1288080, Note_on_c, 5, 57, 0
7, 1288080, Note_on_c, 5, 49, 100
7, 1288320, Note_on_c, 5, 49, 0
7, 1288320, Note_on_c, 5, 50, 100
7, 1288560, Note_on_c, 5, 50, 0
7, 1288560, Note_on_c, 5, 53, 100
7, 1288680, Note_on_c, 5, 53, 0
7, 1288680, Note_on_c, 5, 52, 100
7, 1288800, Note_on_c, 5, 52, 0
7, 1288800, Note_on_c, 5, 53, 100
7, 1289040, Note_on_c, 5, 53, 0
7, 1289040, Note_on_c, 5, 57, 100
7, 1289280, Note_on_c, 5, 57, 0
7, 1289280, Note_on_c, 5, 62, 100
7, 1289400, Note_on_c, 5, 62, 0
7, 1289400, Note_on_c, 5, 60, 100
7, 1289460, Note_on_c, 5, 60, 0
7, 1289460, Note_on_c, 5, 58, 100
7, 1289520, Note_on_c, 5, 58, 0
7, 1289520, Note_on_c, 5, 57, 100
7, 1289580, Note_on_c, 5, 57, 0
7, 1289580, Note_on_c, 5, 55, 100
7, 1289640, Note_on_c, 5, 55, 0
7, 1289640, Note_on_c, 5, 57, 100
7, 1289760, Note_on_c, 5, 57, 0
7, 1289760, Note_on_c, 5, 50, 100
7, 1290240, Note_on_c, 5, 50, 0
7, 1290240, Note_on_c, 5, 50, 100
7, 1290360, Note_on_c, 5, 50, 0
7, 1290360, Note_on_c, 5, 63, 100
7, 1290480, Note_on_c, 5, 63, 0
7, 1290480, Note_on_c, 5, 63, 100
7, 1290600, Note_on_c, 5, 63, 0
7, 1290600, Note_on_c, 5, 62, 100
7, 1290720, Note_on_c, 5, 62, 0
7, 1290720, Note_on_c, 5, 62, 100
7, 1290840, Note_on_c, 5, 62, 0
7, 1290840, Note_on_c, 5, 60, 100
7, 1290960, Note_on_c, 5, 60, 0
7, 1290960, Note_on_c, 5, 60, 100
7, 1291080, Note_on_c, 5, 60, 0
7, 1291080, Note_on_c, 5, 58, 100
7, 1291200, Note_on_c, 5, 58, 0
7, 1291200, Note_on_c, 5, 58, 100
7, 1291320, Note_on_c, 5, 58, 0
7, 1291320, Note_on_c, 5, 54, 100
7, 1291440, Note_on_c, 5, 54, 0
7, 1291440, Note_on_c, 5, 54, 100
7, 1291560, Note_on_c, 5, 54, 0
7, 1291560, Note_on_c, 5, 55, 100
7, 1291680, Note_on_c, 5, 55, 0
7, 1291680, Note_on_c, 5, 55, 100
7, 1291800, Note_on_c, 5, 55, 0
7, 1291800, Note_on_c, 5, 50, 100
7, 1291920, Note_on_c, 5, 50, 0
7, 1291920, Note_on_c, 5, 50, 100
7, 1292280, Note_on_c, 5, 50, 0
7, 1292280, Note_on_c, 5, 48, 100
7, 1292340, Note_on_c, 5, 48, 0
7, 1292340, Note_on_c, 5, 46, 100
7, 1292400, Note_on_c, 5, 46, 0
7, 1292400, Note_on_c, 5, 48, 100
7, 1292520, Note_on_c, 5, 48, 0
7, 1292520, Note_on_c, 5, 41, 100
7, 1292640, Note_on_c, 5, 41, 0
7, 1292640, Note_on_c, 5, 53, 100
7, 1292760, Note_on_c, 5, 53, 0
7, 1292760, Note_on_c, 5, 46, 100
7, 1292880, Note_on_c, 5, 46, 0
7, 1292880, Note_on_c, 5, 51, 100
7, 1293240, Note_on_c, 5, 51, 0
7, 1293240, Note_on_c, 5, 50, 100
7, 1293300, Note_on_c, 5, 50, 0
7, 1293300, Note_on_c, 5, 48, 100
7, 1293360, Note_on_c, 5, 48, 0
7, 1293360, Note_on_c, 5, 50, 100
7, 1293420, Note_on_c, 5, 50, 0
7, 1293420, Note_on_c, 5, 48, 100
7, 1293480, Note_on_c, 5, 48, 0
7, 1293480, Note_on_c, 5, 46, 100
7, 1293600, Note_on_c, 5, 46, 0
7, 1293600, Note_on_c, 5, 51, 100
7, 1293720, Note_on_c, 5, 51, 0
7, 1293720, Note_on_c, 5, 43, 100
7, 1293840, Note_on_c, 5, 43, 0
7, 1293840, Note_on_c, 5, 44, 100
7, 1293960, Note_on_c, 5, 44, 0
7, 1293960, Note_on_c, 5, 46, 100
7, 1294080, Note_on_c, 5, 46, 0
7, 1294080, Note_on_c, 5, 36, 100
7, 1294200, Note_on_c, 5, 36, 0
7, 1294200, Note_on_c, 5, 43, 100
7, 1294320, Note_on_c, 5, 43, 0
7, 1294320, Note_on_c, 5, 48, 100
7, 1294440, Note_on_c, 5, 48, 0
7, 1294440, Note_on_c, 5, 46, 100
7, 1294560, Note_on_c, 5, 46, 0
7, 1294560, Note_on_c, 5, 44, 100
7, 1294680, Note_on_c, 5, 44, 0
7, 1294680, Note_on_c, 5, 43, 100
7, 1294800, Note_on_c, 5, 43, 0
7, 1294800, Note_on_c, 5, 44, 100
7, 1295160, Note_on_c, 5, 44, 0
7, 1295160, Note_on_c, 5, 56, 100
7, 1295280, Note_on_c, 5, 56, 0
7, 1295280, Note_on_c, 5, 58, 100
7, 1295400, Note_on_c, 5, 58, 0
7, 1295400, Note_on_c, 5, 56, 100
7, 1295520, Note_on_c, 5, 56, 0
7, 1295520, Note_on_c, 5, 55, 100
7, 1295640, Note_on_c, 5, 55, 0
7, 1295640, Note_on_c, 5, 53, 100
7, 1295760, Note_on_c, 5, 53, 0
7, 1295760, Note_on_c, 5, 51, 100
7, 1295880, Note_on_c, 5, 51, 0
7, 1295880, Note_on_c, 5, 53, 100
7, 1296000, Note_on_c, 5, 53, 0
7, 1296000, Note_on_c, 5, 55, 100
7, 1296120, Note_on_c, 5, 55, 0
7, 1296120, Note_on_c, 5, 56, 100
7, 1296240, Note_on_c, 5, 56, 0
7, 1296240, Note_on_c, 5, 58, 100
7, 1296480, Note_on_c, 5, 58, 0
7, 1296480, Note_on_c, 5, 46, 100
7, 1296840, Note_on_c, 5, 46, 0
7, 1296840, Note_on_c, 5, 56, 100
7, 1296960, Note_on_c, 5, 56, 0
7, 1296960, Note_on_c, 5, 55, 100
7, 1297080, Note_on_c, 5, 55, 0
7, 1297080, Note_on_c, 5, 53, 100
7, 1297200, Note_on_c, 5, 53, 0
7, 1297200, Note_on_c, 5, 53, 100
7, 1297320, Note_on_c, 5, 53, 0
7, 1297320, Note_on_c, 5, 51, 100
7, 1297440, Note_on_c, 5, 51, 0
7, 1297440, Note_on_c, 5, 53, 100
7, 1297560, Note_on_c, 5, 53, 0
7, 1297560, Note_on_c, 5, 55, 100
7, 1297680, Note_on_c, 5, 55, 0
7, 1297680, Note_on_c, 5, 55, 100
7, 1297800, Note_on_c, 5, 55, 0
7, 1297800, Note_on_c, 5, 56, 100
7, 1297920, Note_on_c, 5, 56, 0
7, 1297920, Note_on_c, 5, 48, 100
7, 1298160, Note_on_c, 5, 48, 0
7, 1298160, Note_on_c, 5, 47, 100
7, 1298400, Note_on_c, 5, 47, 0
7, 1298520, Note_on_c, 5, 45, 100
7, 1298640, Note_on_c, 5, 45, 0
7, 1298640, Note_on_c, 5, 47, 100
7, 1298760, Note_on_c, 5, 47, 0
7, 1298760, Note_on_c, 5, 43, 100
7, 1298880, Note_on_c, 5, 43, 0
7, 1298880, Note_on_c, 5, 48, 100
7, 1299120, Note_on_c, 5, 48, 0
7, 1299120, Note_on_c, 5, 60, 100
7, 1299360, Note_on_c, 5, 60, 0
7, 1299600, Note_on_c, 5, 48, 100
7, 1299960, Note_on_c, 5, 48, 0
7, 1299960, Note_on_c, 5, 62, 100
7, 1300080, Note_on_c, 5, 62, 0
7, 1300080, Note_on_c, 5, 63, 100
7, 1300200, Note_on_c, 5, 63, 0
7, 1300200, Note_on_c, 5, 58, 100
7, 1300320, Note_on_c, 5, 58, 0
7, 1300320, Note_on_c, 5, 57, 100
7, 1300440, Note_on_c, 5, 57, 0
7, 1300440, Note_on_c, 5, 58, 100
7, 1300560, Note_on_c, 5, 58, 0
7, 1300560, Note_on_c, 5, 60, 100
7, 1300680, Note_on_c, 5, 60, 0
7, 1300680, Note_on_c, 5, 55, 100
7, 1300800, Note_on_c, 5, 55, 0
7, 1300800, Note_on_c, 5, 55, 100
7, 1301040, Note_on_c, 5, 55, 0
7, 1301040, Note_on_c, 5, 54, 100
7, 1301160, Note_on_c, 5, 54, 0
7, 1301160, Note_on_c, 5, 55, 100
7, 1301280, Note_on_c, 5, 55, 0
7, 1301280, Note_on_c, 5, 57, 100
7, 1301400, Note_on_c, 5, 57, 0
7, 1301400, Note_on_c, 5, 58, 100
7, 1301460, Note_on_c, 5, 58, 0
7, 1301460, Note_on_c, 5, 60, 100
7, 1301520, Note_on_c, 5, 60, 0
7, 1301520, Note_on_c, 5, 62, 100
7, 1301580, Note_on_c, 5, 62, 0
7, 1301580, Note_on_c, 5, 63, 100
7, 1301640, Note_on_c, 5, 63, 0
7, 1301640, Note_on_c, 5, 60, 100
7, 1301760, Note_on_c, 5, 60, 0
7, 1301760, Note_on_c, 5, 58, 100
7, 1301820, Note_on_c, 5, 58, 0
7, 1301820, Note_on_c, 5, 62, 100
7, 1301880, Note_on_c, 5, 62, 0
7, 1301880, Note_on_c, 5, 60, 100
7, 1302000, Note_on_c, 5, 60, 0
7, 1302000, Note_on_c, 5, 58, 100
7, 1302060, Note_on_c, 5, 58, 0
7, 1302060, Note_on_c, 5, 60, 100
7, 1302120, Note_on_c, 5, 60, 0
7, 1302120, Note_on_c, 5, 57, 100
7, 1302240, Note_on_c, 5, 57, 0
7, 1302240, Note_on_c, 5, 55, 100
7, 1302300, Note_on_c, 5, 55, 0
7, 1302300, Note_on_c, 5, 57, 100
7, 1302360, Note_on_c, 5, 57, 0
7, 1302360, Note_on_c, 5, 53, 100
7, 1302480, Note_on_c, 5, 53, 0
7, 1302480, Note_on_c, 5, 51, 100
7, 1302540, Note_on_c, 5, 51, 0
7, 1302540, Note_on_c, 5, 53, 100
7, 1302600, Note_on_c, 5, 53, 0
7, 1302600, Note_on_c, 5, 50, 100
7, 1302720, Note_on_c, 5, 50, 0
7, 1302720, Note_on_c, 5, 48, 100
7, 1302840, Note_on_c, 5, 48, 0
7, 1302840, Note_on_c, 5, 51, 100
7, 1302900, Note_on_c, 5, 51, 0
7, 1302900, Note_on_c, 5, 50, 100
7, 1302960, Note_on_c, 5, 50, 0
7, 1302960, Note_on_c, 5, 51, 100
7, 1303080, Note_on_c, 5, 51, 0
7, 1303080, Note_on_c, 5, 42, 100
7, 1303200, Note_on_c, 5, 42, 0
7, 1303200, Note_on_c, 5, 43, 100
7, 1303440, Note_on_c, 5, 43, 0
7, 1303560, Note_on_c, 5, 48, 100
7, 1303680, Note_on_c, 5, 48, 0
7, 1303680, Note_on_c, 5, 50, 100
7, 1303920, Note_on_c, 5, 50, 0
7, 1304040, Note_on_c, 5, 51, 100
7, 1304160, Note_on_c, 5, 51, 0
7, 1304160, Note_on_c, 5, 48, 100
7, 1304400, Note_on_c, 5, 48, 0
7, 1304400, Note_on_c, 5, 50, 100
7, 1304640, Note_on_c, 5, 50, 0
7, 1304640, Note_on_c, 5, 55, 100
7, 1304760, Note_on_c, 5, 55, 0
7, 1304760, Note_on_c, 5, 50, 100
7, 1304820, Note_on_c, 5, 50, 0
7, 1304820, Note_on_c, 5, 48, 100
7, 1304880, Note_on_c, 5, 48, 0
7, 1304880, Note_on_c, 5, 46, 100
7, 1304940, Note_on_c, 5, 46, 0
7, 1304940, Note_on_c, 5, 48, 100
7, 1305000, Note_on_c, 5, 48, 0
7, 1305000, Note_on_c, 5, 45, 100
7, 1305120, Note_on_c, 5, 45, 0
7, 1305120, Note_on_c, 5, 43, 100
7, 1305600, Note_on_c, 5, 43, 0
7, 1305600, Note_on_c, 5, 50, 100
7, 1305720, Note_on_c, 5, 50, 0
7, 1305720, Note_on_c, 5, 63, 100
7, 1305840, Note_on_c, 5, 63, 0
7, 1305840, Note_on_c, 5, 63, 100
7, 1305960, Note_on_c, 5, 63, 0
7, 1305960, Note_on_c, 5, 62, 100
7, 1306080, Note_on_c, 5, 62, 0
7, 1306080, Note_on_c, 5, 62, 100
7, 1306200, Note_on_c, 5, 62, 0
7, 1306200, Note_on_c, 5, 60, 100
7, 1306320, Note_on_c, 5, 60, 0
7, 1306320, Note_on_c, 5, 60, 100
7, 1306440, Note_on_c, 5, 60, 0
7, 1306440, Note_on_c, 5, 58, 100
7, 1306560, Note_on_c, 5, 58, 0
7, 1306560, Note_on_c, 5, 58, 100
7, 1306680, Note_on_c, 5, 58, 0
7, 1306680, Note_on_c, 5, 54, 100
7, 1306800, Note_on_c, 5, 54, 0
7, 1306800, Note_on_c, 5, 54, 100
7, 1306920, Note_on_c, 5, 54, 0
7, 1306920, Note_on_c, 5, 55, 100
7, 1307040, Note_on_c, 5, 55, 0
7, 1307040, Note_on_c, 5, 55, 100
7, 1307160, Note_on_c, 5, 55, 0
7, 1307160, Note_on_c, 5, 50, 100
7, 1307280, Note_on_c, 5, 50, 0
7, 1307280, Note_on_c, 5, 50, 100
7, 1307640, Note_on_c, 5, 50, 0
7, 1307640, Note_on_c, 5, 48, 100
7, 1307700, Note_on_c, 5, 48, 0
7, 1307700, Note_on_c, 5, 46, 100
7, 1307760, Note_on_c, 5, 46, 0
7, 1307760, Note_on_c, 5, 48, 100
7, 1307880, Note_on_c, 5, 48, 0
7, 1307880, Note_on_c, 5, 41, 100
7, 1308000, Note_on_c, 5, 41, 0
7, 1308000, Note_on_c, 5, 53, 100
7, 1308120, Note_on_c, 5, 53, 0
7, 1308120, Note_on_c, 5, 46, 100
7, 1308240, Note_on_c, 5, 46, 0
7, 1308240, Note_on_c, 5, 51, 100
7, 1308600, Note_on_c, 5, 51, 0
7, 1308600, Note_on_c, 5, 50, 100
7, 1308660, Note_on_c, 5, 50, 0
7, 1308660, Note_on_c, 5, 48, 100
7, 1308720, Note_on_c, 5, 48, 0
7, 1308720, Note_on_c, 5, 50, 100
7, 1308780, Note_on_c, 5, 50, 0
7, 1308780, Note_on_c, 5, 48, 100
7, 1308840, Note_on_c, 5, 48, 0
7, 1308840, Note_on_c, 5, 46, 100
7, 1308960, Note_on_c, 5, 46, 0
7, 1308960, Note_on_c, 5, 51, 100
7, 1309080, Note_on_c, 5, 51, 0
7, 1309080, Note_on_c, 5, 43, 100
7, 1309200, Note_on_c, 5, 43, 0
7, 1309200, Note_on_c, 5, 44, 100
7, 1309320, Note_on_c, 5, 44, 0
7, 1309320, Note_on_c, 5, 46, 100
7, 1309440, Note_on_c, 5, 46, 0
7, 1309440, Note_on_c, 5, 36, 100
7, 1309560, Note_on_c, 5, 36, 0
7, 1309560, Note_on_c, 5, 43, 100
7, 1309680, Note_on_c, 5, 43, 0
7, 1309680, Note_on_c, 5, 48, 100
7, 1309800, Note_on_c, 5, 48, 0
7, 1309800, Note_on_c, 5, 46, 100
7, 1309920, Note_on_c, 5, 46, 0
7, 1309920, Note_on_c, 5, 44, 100
7, 1310040, Note_on_c, 5, 44, 0
7, 1310040, Note_on_c, 5, 43, 100
7, 1310160, Note_on_c, 5, 43, 0
7, 1310160, Note_on_c, 5, 44, 100
7, 1310520, Note_on_c, 5, 44, 0
7, 1310520, Note_on_c, 5, 56, 100
7, 1310640, Note_on_c, 5, 56, 0
7, 1310640, Note_on_c, 5, 58, 100
7, 1310760, Note_on_c, 5, 58, 0
7, 1310760, Note_on_c, 5, 56, 100
7, 1310880, Note_on_c, 5, 56, 0
7, 1310880, Note_on_c, 5, 55, 100
7, 1311000, Note_on_c, 5, 55, 0
7, 1311000, Note_on_c, 5, 53, 100
7, 1311120, Note_on_c, 5, 53, 0
7, 1311120, Note_on_c, 5, 51, 100
7, 1311240, Note_on_c, 5, 51, 0
7, 1311240, Note_on_c, 5, 53, 100
7, 1311360, Note_on_c, 5, 53, 0
7, 1311360, Note_on_c, 5, 55, 100
7, 1311480, Note_on_c, 5, 55, 0
7, 1311480, Note_on_c, 5, 56, 100
7, 1311600, Note_on_c, 5, 56, 0
7, 1311600, Note_on_c, 5, 58, 100
7, 1311840, Note_on_c, 5, 58, 0
7, 1311840, Note_on_c, 5, 46, 100
7, 1312200, Note_on_c, 5, 46, 0
7, 1312200, Note_on_c, 5, 56, 100
7, 1312320, Note_on_c, 5, 56, 0
7, 1312320, Note_on_c, 5, 55, 100
7, 1312440, Note_on_c, 5, 55, 0
7, 1312440, Note_on_c, 5, 53, 100
7, 1312560, Note_on_c, 5, 53, 0
7, 1312560, Note_on_c, 5, 53, 100
7, 1312680, Note_on_c, 5, 53, 0
7, 1312680, Note_on_c, 5, 51, 100
7, 1312800, Note_on_c, 5, 51, 0
7, 1312800, Note_on_c, 5, 53, 100
7, 1312920, Note_on_c, 5, 53, 0
7, 1312920, Note_on_c, 5, 55, 100
7, 1313040, Note_on_c, 5, 55, 0
7, 1313040, Note_on_c, 5, 55, 100
7, 1313160, Note_on_c, 5, 55, 0
7, 1313160, Note_on_c, 5, 56, 100
7, 1313280, Note_on_c, 5, 56, 0
7, 1313280, Note_on_c, 5, 48, 100
7, 1313520, Note_on_c, 5, 48, 0
7, 1313520, Note_on_c, 5, 47, 100
7, 1313760, Note_on_c, 5, 47, 0
7, 1313880, Note_on_c, 5, 45, 100
7, 1314000, Note_on_c, 5, 45, 0
7, 1314000, Note_on_c, 5, 47, 100
7, 1314120, Note_on_c, 5, 47, 0
7, 1314120, Note_on_c, 5, 43, 100
7, 1314240, Note_on_c, 5, 43, 0
7, 1314240, Note_on_c, 5, 48, 100
7, 1314480, Note_on_c, 5, 48, 0
7, 1314480, Note_on_c, 5, 60, 100
7, 1314720, Note_on_c, 5, 60, 0
7, 1314960, Note_on_c, 5, 48, 100
7, 1315320, Note_on_c, 5, 48, 0
7, 1315320, Note_on_c, 5, 62, 100
7, 1315440, Note_on_c, 5, 62, 0
7, 1315440, Note_on_c, 5, 63, 100
7, 1315560, Note_on_c, 5, 63, 0
7, 1315560, Note_on_c, 5, 58, 100
7, 1315680, Note_on_c, 5, 58, 0
7, 1315680, Note_on_c, 5, 57, 100
7, 1315800, Note_on_c, 5, 57, 0
7, 1315800, Note_on_c, 5, 58, 100
7, 1315920, Note_on_c, 5, 58, 0
7, 1315920, Note_on_c, 5, 60, 100
7, 1316040, Note_on_c, 5, 60, 0
7, 1316040, Note_on_c, 5, 55, 100
7, 1316160, Note_on_c, 5, 55, 0
7, 1316160, Note_on_c, 5, 55, 100
7, 1316400, Note_on_c, 5, 55, 0
7, 1316400, Note_on_c, 5, 54, 100
7, 1316520, Note_on_c, 5, 54, 0
7, 1316520, Note_on_c, 5, 55, 100
7, 1316640, Note_on_c, 5, 55, 0
7, 1316640, Note_on_c, 5, 57, 100
7, 1316760, Note_on_c, 5, 57, 0
7, 1316760, Note_on_c, 5, 58, 100
7, 1316820, Note_on_c, 5, 58, 0
7, 1316820, Note_on_c, 5, 60, 100
7, 1316880, Note_on_c, 5, 60, 0
7, 1316880, Note_on_c, 5, 62, 100
7, 1316940, Note_on_c, 5, 62, 0
7, 1316940, Note_on_c, 5, 63, 100
7, 1317000, Note_on_c, 5, 63, 0
7, 1317000, Note_on_c, 5, 60, 100
7, 1317120, Note_on_c, 5, 60, 0
7, 1317120, Note_on_c, 5, 58, 100
7, 1317180, Note_on_c, 5, 58, 0
7, 1317180, Note_on_c, 5, 62, 100
7, 1317240, Note_on_c, 5, 62, 0
7, 1317240, Note_on_c, 5, 60, 100
7, 1317360, Note_on_c, 5, 60, 0
7, 1317360, Note_on_c, 5, 58, 100
7, 1317420, Note_on_c, 5, 58, 0
7, 1317420, Note_on_c, 5, 60, 100
7, 1317480, Note_on_c, 5, 60, 0
7, 1317480, Note_on_c, 5, 57, 100
7, 1317600, Note_on_c, 5, 57, 0
7, 1317600, Note_on_c, 5, 55, 100
7, 1317660, Note_on_c, 5, 55, 0
7, 1317660, Note_on_c, 5, 57, 100
7, 1317720, Note_on_c, 5, 57, 0
7, 1317720, Note_on_c, 5, 53, 100
7, 1317840, Note_on_c, 5, 53, 0
7, 1317840, Note_on_c, 5, 51, 100
7, 1317900, Note_on_c, 5, 51, 0
7, 1317900, Note_on_c, 5, 53, 100
7, 1317960, Note_on_c, 5, 53, 0
7, 1317960, Note_on_c, 5, 50, 100
7, 1318080, Note_on_c, 5, 50, 0
7, 1318080, Note_on_c, 5, 48, 100
7, 1318200, Note_on_c, 5, 48, 0
7, 1318200, Note_on_c, 5, 51, 100
7, 1318260, Note_on_c, 5, 51, 0
7, 1318260, Note_on_c, 5, 50, 100
7, 1318320, Note_on_c, 5, 50, 0
7, 1318320, Note_on_c, 5, 51, 100
7, 1318440, Note_on_c, 5, 51, 0
7, 1318440, Note_on_c, 5, 42, 100
7, 1318560, Note_on_c, 5, 42, 0
7, 1318560, Note_on_c, 5, 43, 100
7, 1318800, Note_on_c, 5, 43, 0
7, 1318920, Note_on_c, 5, 48, 100
7, 1319040, Note_on_c, 5, 48, 0
7, 1319040, Note_on_c, 5, 50, 100
7, 1319280, Note_on_c, 5, 50, 0
7, 1319400, Note_on_c, 5, 51, 100
7, 1319520, Note_on_c, 5, 51, 0
7, 1319520, Note_on_c, 5, 48, 100
7, 1319760, Note_on_c, 5, 48, 0
7, 1319760, Note_on_c, 5, 50, 100
7, 1320000, Note_on_c, 5, 50, 0
7, 1320000, Note_on_c, 5, 55, 100
7, 1320120, Note_on_c, 5, 55, 0
7, 1320120, Note_on_c, 5, 50, 100
7, 1320180, Note_on_c, 5, 50, 0
7, 1320180, Note_on_c, 5, 48, 100
7, 1320240, Note_on_c, 5, 48, 0
7, 1320240, Note_on_c, 5, 46, 100
7, 1320300, Note_on_c, 5, 46, 0
7, 1320300, Note_on_c, 5, 48, 100
7, 1320360, Note_on_c, 5, 48, 0
7, 1320360, Note_on_c, 5, 45, 100
7, 1320480, Note_on_c, 5, 45, 0
7, 1320480, Note_on_c, 5, 43, 100
7, 1320960, Note_on_c, 5, 43, 0
7, 1520400, Note_on_c, 5, 55, 100
7, 1520640, Note_on_c, 5, 55, 0
7, 1520640, Note_on_c, 5, 57, 100
7, 1520880, Note_on_c, 5, 57, 0
7, 1520880, Note_on_c, 5, 59, 100
7, 1521360, Note_on_c, 5, 59, 0
7, 1521360, Note_on_c, 5, 60, 100
7, 1521840, Note_on_c, 5, 60, 0
7, 1521840, Note_on_c, 5, 62, 100
7, 1522320, Note_on_c, 5, 62, 0
7, 1522320, Note_on_c, 5, 50, 100
7, 1522800, Note_on_c, 5, 50, 0
7, 1522800, Note_on_c, 5, 62, 100
7, 1523760, Note_on_c, 5, 62, 0
7, 1524240, Note_on_c, 5, 64, 100
7, 1524480, Note_on_c, 5, 64, 0
7, 1524480, Note_on_c, 5, 62, 100
7, 1524720, Note_on_c, 5, 62, 0
7, 1524720, Note_on_c, 5, 61, 100
7, 1525200, Note_on_c, 5, 61, 0
7, 1525200, Note_on_c, 5, 57, 100
7, 1525680, Note_on_c, 5, 57, 0
7, 1525680, Note_on_c, 5, 62, 100
7, 1526160, Note_on_c, 5, 62, 0
7, 1526160, Note_on_c, 5, 50, 100
7, 1526640, Note_on_c, 5, 50, 0
7, 1526640, Note_on_c, 5, 62, 100
7, 1527120, Note_on_c, 5, 62, 0
7, 1527120, Note_on_c, 5, 60, 100
7, 1527600, Note_on_c, 5, 60, 0
7, 1527600, Note_on_c, 5, 60, 100
7, 1527680, Note_on_c, 5, 60, 0
7, 1527680, Note_on_c, 5, 59, 100
7, 1527760, Note_on_c, 5, 59, 0
7, 1527760, Note_on_c, 5, 60, 100
7, 1527840, Note_on_c, 5, 60, 0
7, 1527840, Note_on_c, 5, 59, 100
7, 1528080, Note_on_c, 5, 59, 0
7, 1528080, Note_on_c, 5, 57, 100
7, 1528320, Note_on_c, 5, 57, 0
7, 1528320, Note_on_c, 5, 59, 100
7, 1528560, Note_on_c, 5, 59, 0
7, 1528560, Note_on_c, 5, 60, 100
7, 1529040, Note_on_c, 5, 60, 0
7, 1529040, Note_on_c, 5, 48, 100
7, 1529520, Note_on_c, 5, 48, 0
7, 1529520, Note_on_c, 5, 60, 100
7, 1530000, Note_on_c, 5, 60, 0
7, 1530000, Note_on_c, 5, 59, 100
7, 1530240, Note_on_c, 5, 59, 0
7, 1530240, Note_on_c, 5, 60, 100
7, 1530480, Note_on_c, 5, 60, 0
7, 1530480, Note_on_c, 5, 62, 100
7, 1530960, Note_on_c, 5, 62, 0
7, 1530960, Note_on_c, 5, 57, 100
7, 1531440, Note_on_c, 5, 57, 0
7, 1531440, Note_on_c, 5, 50, 100
7, 1531920, Note_on_c, 5, 50, 0
7, 1531920, Note_on_c, 5, 54, 100
7, 1532160, Note_on_c, 5, 54, 0
7, 1532160, Note_on_c, 5, 52, 100
7, 1532400, Note_on_c, 5, 52, 0
7, 1532400, Note_on_c, 5, 54, 100
7, 1532880, Note_on_c, 5, 54, 0
7, 1532880, Note_on_c, 5, 50, 100
7, 1533360, Note_on_c, 5, 50, 0
7, 1533360, Note_on_c, 5, 55, 100
7, 1533840, Note_on_c, 5, 55, 0
7, 1533840, Note_on_c, 5, 50, 100
7, 1534320, Note_on_c, 5, 50, 0
7, 1534320, Note_on_c, 5, 43, 100
7, 1534800, Note_on_c, 5, 43, 0
7, 1534800, Note_on_c, 5, 55, 100
7, 1535040, Note_on_c, 5, 55, 0
7, 1535040, Note_on_c, 5, 57, 100
7, 1535280, Note_on_c, 5, 57, 0
7, 1535280, Note_on_c, 5, 59, 100
7, 1535760, Note_on_c, 5, 59, 0
7, 1535760, Note_on_c, 5, 57, 100
7, 1536000, Note_on_c, 5, 57, 0
7, 1536000, Note_on_c, 5, 59, 100
7, 1536240, Note_on_c, 5, 59, 0
7, 1536240, Note_on_c, 5, 61, 100
7, 1536720, Note_on_c, 5, 61, 0
7, 1536720, Note_on_c, 5, 59, 100
7, 1536960, Note_on_c, 5, 59, 0
7, 1536960, Note_on_c, 5, 61, 100
7, 1537200, Note_on_c, 5, 61, 0
7, 1537200, Note_on_c, 5, 62, 100
7, 1537680, Note_on_c, 5, 62, 0
7, 1537680, Note_on_c, 5, 61, 100
7, 1538160, Note_on_c, 5, 61, 0
7, 1538160, Note_on_c, 5, 59, 100
7, 1538640, Note_on_c, 5, 59, 0
7, 1538640, Note_on_c, 5, 57, 100
7, 1539120, Note_on_c, 5, 57, 0
7, 1539120, Note_on_c, 5, 55, 100
7, 1539600, Note_on_c, 5, 55, 0
7, 1539600, Note_on_c, 5, 54, 100
7, 1540080, Note_on_c, 5, 54, 0
7, 1540080, Note_on_c, 5, 52, 100
7, 1540560, Note_on_c, 5, 52, 0
7, 1540560, Note_on_c, 5, 50, 100
7, 1541040, Note_on_c, 5, 50, 0
7, 1541040, Note_on_c, 5, 49, 100
7, 1541520, Note_on_c, 5, 49, 0
7, 1541520, Note_on_c, 5, 47, 100
7, 1541760, Note_on_c, 5, 47, 0
7, 1541760, Note_on_c, 5, 49, 100
7, 1542000, Note_on_c, 5, 49, 0
7, 1542000, Note_on_c, 5, 50, 100
7, 1542480, Note_on_c, 5, 50, 0
7, 1542480, Note_on_c, 5, 49, 100
7, 1542720, Note_on_c, 5, 49, 0
7, 1542720, Note_on_c, 5, 50, 100
7, 1542960, Note_on_c, 5, 50, 0
7, 1542960, Note_on_c, 5, 47, 100
7, 1543440, Note_on_c, 5, 47, 0
7, 1543440, Note_on_c, 5, 45, 100
7, 1543680, Note_on_c, 5, 45, 0
7, 1543680, Note_on_c, 5, 47, 100
7, 1543920, Note_on_c, 5, 47, 0
7, 1543920, Note_on_c, 5, 49, 100
7, 1544400, Note_on_c, 5, 49, 0
7, 1544400, Note_on_c, 5, 47, 100
7, 1544640, Note_on_c, 5, 47, 0
7, 1544640, Note_on_c, 5, 49, 100
7, 1544880, Note_on_c, 5, 49, 0
7, 1544880, Note_on_c, 5, 46, 100
7, 1545360, Note_on_c, 5, 46, 0
7, 1545360, Note_on_c, 5, 44, 100
7, 1545600, Note_on_c, 5, 44, 0
7, 1545600, Note_on_c, 5, 46, 100
7, 1545840, Note_on_c, 5, 46, 0
7, 1545840, Note_on_c, 5, 47, 100
7, 1546080, Note_on_c, 5, 47, 0
7, 1546080, Note_on_c, 5, 45, 100
7, 1546320, Note_on_c, 5, 45, 0
7, 1546320, Note_on_c, 5, 43, 100
7, 1546560, Note_on_c, 5, 43, 0
7, 1546560, Note_on_c, 5, 42, 100
7, 1546800, Note_on_c, 5, 42, 0
7, 1546800, Note_on_c, 5, 43, 100
7, 1547280, Note_on_c, 5, 43, 0
7, 1547280, Note_on_c, 5, 40, 100
7, 1547760, Note_on_c, 5, 40, 0
7, 1547760, Note_on_c, 5, 45, 100
7, 1548240, Note_on_c, 5, 45, 0
7, 1548240, Note_on_c, 5, 33, 100
7, 1548720, Note_on_c, 5, 33, 0
7, 1548720, Note_on_c, 5, 38, 100
7, 1549200, Note_on_c, 5, 38, 0
7, 1549200, Note_on_c, 5, 45, 100
7, 1549680, Note_on_c, 5, 45, 0
7, 1549680, Note_on_c, 5, 50, 100
7, 1550640, Note_on_c, 5, 50, 0
7, 1551120, Note_on_c, 5, 55, 100
7, 1551360, Note_on_c, 5, 55, 0
7, 1551360, Note_on_c, 5, 57, 100
7, 1551600, Note_on_c, 5, 57, 0
7, 1551600, Note_on_c, 5, 59, 100
7, 1552080, Note_on_c, 5, 59, 0
7, 1552080, Note_on_c, 5, 60, 100
7, 1552560, Note_on_c, 5, 60, 0
7, 1552560, Note_on_c, 5, 62, 100
7, 1553040, Note_on_c, 5, 62, 0
7, 1553040, Note_on_c, 5, 50, 100
7, 1553520, Note_on_c, 5, 50, 0
7, 1553520, Note_on_c, 5, 62, 100
7, 1554480, Note_on_c, 5, 62, 0
7, 1554960, Note_on_c, 5, 64, 100
7, 1555200, Note_on_c, 5, 64, 0
7, 1555200, Note_on_c, 5, 62, 100
7, 1555440, Note_on_c, 5, 62, 0
7, 1555440, Note_on_c, 5, 61, 100
7, 1555920, Note_on_c, 5, 61, 0
7, 1555920, Note_on_c, 5, 57, 100
7, 1556400, Note_on_c, 5, 57, 0
7, 1556400, Note_on_c, 5, 62, 100
7, 1556880, Note_on_c, 5, 62, 0
7, 1556880, Note_on_c, 5, 50, 100
7, 1557360, Note_on_c, 5, 50, 0
7, 1557360, Note_on_c, 5, 62, 100
7, 1557840, Note_on_c, 5, 62, 0
7, 1557840, Note_on_c, 5, 60, 100
7, 1558320, Note_on_c, 5, 60, 0
7, 1558320, Note_on_c, 5, 60, 100
7, 1558400, Note_on_c, 5, 60, 0
7, 1558400, Note_on_c, 5, 59, 100
7, 1558480, Note_on_c, 5, 59, 0
7, 1558480, Note_on_c, 5, 60, 100
7, 1558560, Note_on_c, 5, 60, 0
7, 1558560, Note_on_c, 5, 59, 100
7, 1558800, Note_on_c, 5, 59, 0
7, 1558800, Note_on_c, 5, 57, 100
7, 1559040, Note_on_c, 5, 57, 0
7, 1559040, Note_on_c, 5, 59, 100
7, 1559280, Note_on_c, 5, 59, 0
7, 1559280, Note_on_c, 5, 60, 100
7, 1559760, Note_on_c, 5, 60, 0
7, 1559760, Note_on_c, 5, 48, 100
7, 1560240, Note_on_c, 5, 48, 0
7, 1560240, Note_on_c, 5, 60, 100
7, 1560720, Note_on_c, 5, 60, 0
7, 1560720, Note_on_c, 5, 59, 100
7, 1560960, Note_on_c, 5, 59, 0
7, 1560960, Note_on_c, 5, 60, 100
7, 1561200, Note_on_c, 5, 60, 0
7, 1561200, Note_on_c, 5, 62, 100
7, 1561680, Note_on_c, 5, 62, 0
7, 1561680, Note_on_c, 5, 57, 100
7, 1562160, Note_on_c, 5, 57, 0
7, 1562160, Note_on_c, 5, 50, 100
7, 1562640, Note_on_c, 5, 50, 0
7, 1562640, Note_on_c, 5, 54, 100
7, 1562880, Note_on_c, 5, 54, 0
7, 1562880, Note_on_c, 5, 52, 100
7, 1563120, Note_on_c, 5, 52, 0
7, 1563120, Note_on_c, 5, 54, 100
7, 1563600, Note_on_c, 5, 54, 0
7, 1563600, Note_on_c, 5, 50, 100
7, 1564080, Note_on_c, 5, 50, 0
7, 1564080, Note_on_c, 5, 55, 100
7, 1564560, Note_on_c, 5, 55, 0
7, 1564560, Note_on_c, 5, 50, 100
7, 1565040, Note_on_c, 5, 50, 0
7, 1565040, Note_on_c, 5, 43, 100
7, 1565520, Note_on_c, 5, 43, 0
7, 1565520, Note_on_c, 5, 55, 100
7, 1565760, Note_on_c, 5, 55, 0
7, 1565760, Note_on_c, 5, 57, 100
7, 1566000, Note_on_c, 5, 57, 0
7, 1566000, Note_on_c, 5, 59, 100
7, 1566480, Note_on_c, 5, 59, 0
7, 1566480, Note_on_c, 5, 57, 100
7, 1566720, Note_on_c, 5, 57, 0
7, 1566720, Note_on_c, 5, 59, 100
7, 1566960, Note_on_c, 5, 59, 0
7, 1566960, Note_on_c, 5, 61, 100
7, 1567440, Note_on_c, 5, 61, 0
7, 1567440, Note_on_c, 5, 59, 100
7, 1567680, Note_on_c, 5, 59, 0
7, 1567680, Note_on_c, 5, 61, 100
7, 1567920, Note_on_c, 5, 61, 0
7, 1567920, Note_on_c, 5, 62, 100
7, 1568400, Note_on_c, 5, 62, 0
7, 1568400, Note_on_c, 5, 61, 100
7, 1568880, Note_on_c, 5, 61, 0
7, 1568880, Note_on_c, 5, 59, 100
7, 1569360, Note_on_c, 5, 59, 0
7, 1569360, Note_on_c, 5, 57, 100
7, 1569840, Note_on_c, 5, 57, 0
7, 1569840, Note_on_c, 5, 55, 100
7, 1570320, Note_on_c, 5, 55, 0
7, 1570320, Note_on_c, 5, 54, 100
7, 1570800, Note_on_c, 5, 54, 0
7, 1570800, Note_on_c, 5, 52, 100
7, 1571280, Note_on_c, 5, 52, 0
7, 1571280, Note_on_c, 5, 50, 100
7, 1571760, Note_on_c, 5, 50, 0
7, 1571760, Note_on_c, 5, 49, 100
7, 1572240, Note_on_c, 5, 49, 0
7, 1572240, Note_on_c, 5, 47, 100
7, 1572480, Note_on_c, 5, 47, 0
7, 1572480, Note_on_c, 5, 49, 100
7, 1572720, Note_on_c, 5, 49, 0
7, 1572720, Note_on_c, 5, 50, 100
7, 1573200, Note_on_c, 5, 50, 0
7, 1573200, Note_on_c, 5, 49, 100
7, 1573440, Note_on_c, 5, 49, 0
7, 1573440, Note_on_c, 5, 50, 100
7, 1573680, Note_on_c, 5, 50, 0
7, 1573680, Note_on_c, 5, 47, 100
7, 1574160, Note_on_c, 5, 47, 0
7, 1574160, Note_on_c, 5, 45, 100
7, 1574400, Note_on_c, 5, 45, 0
7, 1574400, Note_on_c, 5, 47, 100
7, 1574640, Note_on_c, 5, 47, 0
7, 1574640, Note_on_c, 5, 49, 100
7, 1575120, Note_on_c, 5, 49, 0
7, 1575120, Note_on_c, 5, 47, 100
7, 1575360, Note_on_c, 5, 47, 0
7, 1575360, Note_on_c, 5, 49, 100
7, 1575600, Note_on_c, 5, 49, 0
7, 1575600, Note_on_c, 5, 46, 100
7, 1576080, Note_on_c, 5, 46, 0
7, 1576080, Note_on_c, 5, 44, 100
7, 1576320, Note_on_c, 5, 44, 0
7, 1576320, Note_on_c, 5, 46, 100
7, 1576560, Note_on_c, 5, 46, 0
7, 1576560, Note_on_c, 5, 47, 100
7, 1576800, Note_on_c, 5, 47, 0
7, 1576800, Note_on_c, 5, 45, 100
7, 1577040, Note_on_c, 5, 45, 0
7, 1577040, Note_on_c, 5, 43, 100
7, 1577280, Note_on_c, 5, 43, 0
7, 1577280, Note_on_c, 5, 42, 100
7, 1577520, Note_on_c, 5, 42, 0
7, 1577520, Note_on_c, 5, 43, 100
7, 1578000, Note_on_c, 5, 43, 0
7, 1578000, Note_on_c, 5, 40, 100
7, 1578480, Note_on_c, 5, 40, 0
7, 1578480, Note_on_c, 5, 45, 100
7, 1578960, Note_on_c, 5, 45, 0
7, 1578960, Note_on_c, 5, 33, 100
7, 1579440, Note_on_c, 5, 33, 0
7, 1579440, Note_on_c, 5, 38, 100
7, 1579920, Note_on_c, 5, 38, 0
7, 1579920, Note_on_c, 5, 45, 100
7, 1580400, Note_on_c, 5, 45, 0
7, 1580400, Note_on_c, 5, 50, 100
7, 1581360, Note_on_c, 5, 50, 0
7, 1581840, Note_on_c, 5, 50, 100
7, 1582080, Note_on_c, 5, 50, 0
7, 1582080, Note_on_c, 5, 52, 100
7, 1582320, Note_on_c, 5, 52, 0
7, 1582320, Note_on_c, 5, 54, 100
7, 1582800, Note_on_c, 5, 54, 0
7, 1582800, Note_on_c, 5, 50, 100
7, 1583280, Note_on_c, 5, 50, 0
7, 1583280, Note_on_c, 5, 55, 100
7, 1583760, Note_on_c, 5, 55, 0
7, 1583760, Note_on_c, 5, 43, 100
7, 1584240, Note_on_c, 5, 43, 0
7, 1584240, Note_on_c, 5, 55, 100
7, 1584720, Note_on_c, 5, 55, 0
7, 1584720, Note_on_c, 5, 57, 100
7, 1584960, Note_on_c, 5, 57, 0
7, 1584960, Note_on_c, 5, 59, 100
7, 1585200, Note_on_c, 5, 59, 0
7, 1585200, Note_on_c, 5, 60, 100
7, 1585680, Note_on_c, 5, 60, 0
7, 1585680, Note_on_c, 5, 59, 100
7, 1586160, Note_on_c, 5, 59, 0
7, 1586160, Note_on_c, 5, 57, 100
7, 1586640, Note_on_c, 5, 57, 0
7, 1586640, Note_on_c, 5, 55, 100
7, 1586880, Note_on_c, 5, 55, 0
7, 1586880, Note_on_c, 5, 57, 100
7, 1587120, Note_on_c, 5, 57, 0
7, 1587120, Note_on_c, 5, 59, 100
7, 1587840, Note_on_c, 5, 59, 0
7, 1587840, Note_on_c, 5, 57, 100
7, 1588080, Note_on_c, 5, 57, 0
7, 1588080, Note_on_c, 5, 55, 100
7, 1588320, Note_on_c, 5, 55, 0
7, 1588320, Note_on_c, 5, 54, 100
7, 1588560, Note_on_c, 5, 54, 0
7, 1588560, Note_on_c, 5, 52, 100
7, 1588800, Note_on_c, 5, 52, 0
7, 1588800, Note_on_c, 5, 51, 100
7, 1589040, Note_on_c, 5, 51, 0
7, 1589040, Note_on_c, 5, 52, 100
7, 1589520, Note_on_c, 5, 52, 0
7, 1589520, Note_on_c, 5, 64, 100
7, 1589760, Note_on_c, 5, 64, 0
7, 1589760, Note_on_c, 5, 62, 100
7, 1590000, Note_on_c, 5, 62, 0
7, 1590000, Note_on_c, 5, 60, 100
7, 1590480, Note_on_c, 5, 60, 0
7, 1590480, Note_on_c, 5, 59, 100
7, 1590960, Note_on_c, 5, 59, 0
7, 1590960, Note_on_c, 5, 57, 100
7, 1591440, Note_on_c, 5, 57, 0
7, 1591440, Note_on_c, 5, 59, 100
7, 1591680, Note_on_c, 5, 59, 0
7, 1591680, Note_on_c, 5, 60, 100
7, 1591920, Note_on_c, 5, 60, 0
7, 1591920, Note_on_c, 5, 54, 100
7, 1592400, Note_on_c, 5, 54, 0
7, 1592400, Note_on_c, 5, 55, 100
7, 1592640, Note_on_c, 5, 55, 0
7, 1592640, Note_on_c, 5, 57, 100
7, 1592880, Note_on_c, 5, 57, 0
7, 1592880, Note_on_c, 5, 51, 100
7, 1593360, Note_on_c, 5, 51, 0
7, 1593360, Note_on_c, 5, 52, 100
7, 1593600, Note_on_c, 5, 52, 0
7, 1593600, Note_on_c, 5, 54, 100
7, 1593840, Note_on_c, 5, 54, 0
7, 1593840, Note_on_c, 5, 47, 100
7, 1594320, Note_on_c, 5, 47, 0
7, 1594320, Note_on_c, 5, 49, 100
7, 1594560, Note_on_c, 5, 49, 0
7, 1594560, Note_on_c, 5, 51, 100
7, 1594800, Note_on_c, 5, 51, 0
7, 1594800, Note_on_c, 5, 52, 100
7, 1595280, Note_on_c, 5, 52, 0
7, 1595280, Note_on_c, 5, 64, 100
7, 1595520, Note_on_c, 5, 64, 0
7, 1595520, Note_on_c, 5, 63, 100
7, 1595760, Note_on_c, 5, 63, 0
7, 1595760, Note_on_c, 5, 64, 100
7, 1596240, Note_on_c, 5, 64, 0
7, 1596240, Note_on_c, 5, 66, 100
7, 1596480, Note_on_c, 5, 66, 0
7, 1596480, Note_on_c, 5, 67, 100
7, 1596720, Note_on_c, 5, 67, 0
7, 1596720, Note_on_c, 5, 69, 100
7, 1597200, Note_on_c, 5, 69, 0
7, 1597200, Note_on_c, 5, 67, 100
7, 1597440, Note_on_c, 5, 67, 0
7, 1597440, Note_on_c, 5, 69, 100
7, 1597680, Note_on_c, 5, 69, 0
7, 1597680, Note_on_c, 5, 66, 100
7, 1598160, Note_on_c, 5, 66, 0
7, 1598160, Note_on_c, 5, 64, 100
7, 1598400, Note_on_c, 5, 64, 0
7, 1598400, Note_on_c, 5, 66, 100
7, 1598640, Note_on_c, 5, 66, 0
7, 1598640, Note_on_c, 5, 67, 100
7, 1599120, Note_on_c, 5, 67, 0
7, 1599120, Note_on_c, 5, 66, 100
7, 1599600, Note_on_c, 5, 66, 0
7, 1599600, Note_on_c, 5, 64, 100
7, 1600080, Note_on_c, 5, 64, 0
7, 1600080, Note_on_c, 5, 62, 100
7, 1600560, Note_on_c, 5, 62, 0
7, 1600560, Note_on_c, 5, 60, 100
7, 1601040, Note_on_c, 5, 60, 0
7, 1601040, Note_on_c, 5, 59, 100
7, 1601520, Note_on_c, 5, 59, 0
7, 1601520, Note_on_c, 5, 57, 100
7, 1602000, Note_on_c, 5, 57, 0
7, 1602000, Note_on_c, 5, 55, 100
7, 1602480, Note_on_c, 5, 55, 0
7, 1602480, Note_on_c, 5, 54, 100
7, 1602960, Note_on_c, 5, 54, 0
7, 1602960, Note_on_c, 5, 52, 100
7, 1603200, Note_on_c, 5, 52, 0
7, 1603200, Note_on_c, 5, 54, 100
7, 1603440, Note_on_c, 5, 54, 0
7, 1603440, Note_on_c, 5, 55, 100
7, 1603920, Note_on_c, 5, 55, 0
7, 1603920, Note_on_c, 5, 54, 100
7, 1604160, Note_on_c, 5, 54, 0
7, 1604160, Note_on_c, 5, 55, 100
7, 1604400, Note_on_c, 5, 55, 0
7, 1604400, Note_on_c, 5, 52, 100
7, 1604880, Note_on_c, 5, 52, 0
7, 1604880, Note_on_c, 5, 50, 100
7, 1605120, Note_on_c, 5, 50, 0
7, 1605120, Note_on_c, 5, 52, 100
7, 1605360, Note_on_c, 5, 52, 0
7, 1605360, Note_on_c, 5, 54, 100
7, 1605840, Note_on_c, 5, 54, 0
7, 1605840, Note_on_c, 5, 52, 100
7, 1606080, Note_on_c, 5, 52, 0
7, 1606080, Note_on_c, 5, 54, 100
7, 1606320, Note_on_c, 5, 54, 0
7, 1606320, Note_on_c, 5, 51, 100
7, 1606800, Note_on_c, 5, 51, 0
7, 1606800, Note_on_c, 5, 49, 100
7, 1607040, Note_on_c, 5, 49, 0
7, 1607040, Note_on_c, 5, 51, 100
7, 1607280, Note_on_c, 5, 51, 0
7, 1607280, Note_on_c, 5, 52, 100
7, 1607520, Note_on_c, 5, 52, 0
7, 1607520, Note_on_c, 5, 50, 100
7, 1607760, Note_on_c, 5, 50, 0
7, 1607760, Note_on_c, 5, 48, 100
7, 1608000, Note_on_c, 5, 48, 0
7, 1608000, Note_on_c, 5, 47, 100
7, 1608240, Note_on_c, 5, 47, 0
7, 1608240, Note_on_c, 5, 48, 100
7, 1608720, Note_on_c, 5, 48, 0
7, 1608720, Note_on_c, 5, 45, 100
7, 1609200, Note_on_c, 5, 45, 0
7, 1609200, Note_on_c, 5, 50, 100
7, 1609680, Note_on_c, 5, 50, 0
7, 1609680, Note_on_c, 5, 38, 100
7, 1610160, Note_on_c, 5, 38, 0
7, 1610160, Note_on_c, 5, 43, 100
7, 1610640, Note_on_c, 5, 43, 0
7, 1610640, Note_on_c, 5, 50, 100
7, 1611120, Note_on_c, 5, 50, 0
7, 1611120, Note_on_c, 5, 55, 100
7, 1612080, Note_on_c, 5, 55, 0
7, 1612560, Note_on_c, 5, 50, 100
7, 1612800, Note_on_c, 5, 50, 0
7, 1612800, Note_on_c, 5, 52, 100
7, 1613040, Note_on_c, 5, 52, 0
7, 1613040, Note_on_c, 5, 54, 100
7, 1613520, Note_on_c, 5, 54, 0
7, 1613520, Note_on_c, 5, 50, 100
7, 1614000, Note_on_c, 5, 50, 0
7, 1614000, Note_on_c, 5, 55, 100
7, 1614480, Note_on_c, 5, 55, 0
7, 1614480, Note_on_c, 5, 43, 100
7, 1614960, Note_on_c, 5, 43, 0
7, 1614960, Note_on_c, 5, 55, 100
7, 1615440, Note_on_c, 5, 55, 0
7, 1615440, Note_on_c, 5, 57, 100
7, 1615680, Note_on_c, 5, 57, 0
7, 1615680, Note_on_c, 5, 59, 100
7, 1615920, Note_on_c, 5, 59, 0
7, 1615920, Note_on_c, 5, 60, 100
7, 1616400, Note_on_c, 5, 60, 0
7, 1616400, Note_on_c, 5, 59, 100
7, 1616880, Note_on_c, 5, 59, 0
7, 1616880, Note_on_c, 5, 57, 100
7, 1617360, Note_on_c, 5, 57, 0
7, 1617360, Note_on_c, 5, 55, 100
7, 1617600, Note_on_c, 5, 55, 0
7, 1617600, Note_on_c, 5, 57, 100
7, 1617840, Note_on_c, 5, 57, 0
7, 1617840, Note_on_c, 5, 59, 100
7, 1618560, Note_on_c, 5, 59, 0
7, 1618560, Note_on_c, 5, 57, 100
7, 1618800, Note_on_c, 5, 57, 0
7, 1618800, Note_on_c, 5, 55, 100
7, 1619040, Note_on_c, 5, 55, 0
7, 1619040, Note_on_c, 5, 54, 100
7, 1619280, Note_on_c, 5, 54, 0
7, 1619280, Note_on_c, 5, 52, 100
7, 1619520, Note_on_c, 5, 52, 0
7, 1619520, Note_on_c, 5, 51, 100
7, 1619760, Note_on_c, 5, 51, 0
7, 1619760, Note_on_c, 5, 52, 100
7, 1620240, Note_on_c, 5, 52, 0
7, 1620240, Note_on_c, 5, 64, 100
7, 1620480, Note_on_c, 5, 64, 0
7, 1620480, Note_on_c, 5, 62, 100
7, 1620720, Note_on_c, 5, 62, 0
7, 1620720, Note_on_c, 5, 60, 100
7, 1621200, Note_on_c, 5, 60, 0
7, 1621200, Note_on_c, 5, 59, 100
7, 1621680, Note_on_c, 5, 59, 0
7, 1621680, Note_on_c, 5, 57, 100
7, 1622160, Note_on_c, 5, 57, 0
7, 1622160, Note_on_c, 5, 59, 100
7, 1622400, Note_on_c, 5, 59, 0
7, 1622400, Note_on_c, 5, 60, 100
7, 1622640, Note_on_c, 5, 60, 0
7, 1622640, Note_on_c, 5, 54, 100
7, 1623120, Note_on_c, 5, 54, 0
7, 1623120, Note_on_c, 5, 55, 100
7, 1623360, Note_on_c, 5, 55, 0
7, 1623360, Note_on_c, 5, 57, 100
7, 1623600, Note_on_c, 5, 57, 0
7, 1623600, Note_on_c, 5, 51, 100
7, 1624080, Note_on_c, 5, 51, 0
7, 1624080, Note_on_c, 5, 52, 100
7, 1624320, Note_on_c, 5, 52, 0
7, 1624320, Note_on_c, 5, 54, 100
7, 1624560, Note_on_c, 5, 54, 0
7, 1624560, Note_on_c, 5, 47, 100
7, 1625040, Note_on_c, 5, 47, 0
7, 1625040, Note_on_c, 5, 49, 100
7, 1625280, Note_on_c, 5, 49, 0
7, 1625280, Note_on_c, 5, 51, 100
7, 1625520, Note_on_c, 5, 51, 0
7, 1625520, Note_on_c, 5, 52, 100
7, 1626000, Note_on_c, 5, 52, 0
7, 1626000, Note_on_c, 5, 64, 100
7, 1626240, Note_on_c, 5, 64, 0
7, 1626240, Note_on_c, 5, 63, 100
7, 1626480, Note_on_c, 5, 63, 0
7, 1626480, Note_on_c, 5, 64, 100
7, 1626960, Note_on_c, 5, 64, 0
7, 1626960, Note_on_c, 5, 66, 100
7, 1627200, Note_on_c, 5, 66, 0
7, 1627200, Note_on_c, 5, 67, 100
7, 1627440, Note_on_c, 5, 67, 0
7, 1627440, Note_on_c, 5, 69, 100
7, 1627920, Note_on_c, 5, 69, 0
7, 1627920, Note_on_c, 5, 67, 100
7, 1628160, Note_on_c, 5, 67, 0
7, 1628160, Note_on_c, 5, 69, 100
7, 1628400, Note_on_c, 5, 69, 0
7, 1628400, Note_on_c, 5, 66, 100
7, 1628880, Note_on_c, 5, 66, 0
7, 1628880, Note_on_c, 5, 64, 100
7, 1629120, Note_on_c, 5, 64, 0
7, 1629120, Note_on_c, 5, 66, 100
7, 1629360, Note_on_c, 5, 66, 0
7, 1629360, Note_on_c, 5, 67, 100
7, 1629840, Note_on_c, 5, 67, 0
7, 1629840, Note_on_c, 5, 66, 100
7, 1630320, Note_on_c, 5, 66, 0
7, 1630320, Note_on_c, 5, 64, 100
7, 1630800, Note_on_c, 5, 64, 0
7, 1630800, Note_on_c, 5, 62, 100
7, 1631280, Note_on_c, 5, 62, 0
7, 1631280, Note_on_c, 5, 60, 100
7, 1631760, Note_on_c, 5, 60, 0
7, 1631760, Note_on_c, 5, 59, 100
7, 1632240, Note_on_c, 5, 59, 0
7, 1632240, Note_on_c, 5, 57, 100
7, 1632720, Note_on_c, 5, 57, 0
7, 1632720, Note_on_c, 5, 55, 100
7, 1633200, Note_on_c, 5, 55, 0
7, 1633200, Note_on_c, 5, 54, 100
7, 1633680, Note_on_c, 5, 54, 0
7, 1633680, Note_on_c, 5, 52, 100
7, 1633920, Note_on_c, 5, 52, 0
7, 1633920, Note_on_c, 5, 54, 100
7, 1634160, Note_on_c, 5, 54, 0
7, 1634160, Note_on_c, 5, 55, 100
7, 1634640, Note_on_c, 5, 55, 0
7, 1634640, Note_on_c, 5, 54, 100
7, 1634880, Note_on_c, 5, 54, 0
7, 1634880, Note_on_c, 5, 55, 100
7, 1635120, Note_on_c, 5, 55, 0
7, 1635120, Note_on_c, 5, 52, 100
7, 1635600, Note_on_c, 5, 52, 0
7, 1635600, Note_on_c, 5, 50, 100
7, 1635840, Note_on_c, 5, 50, 0
7, 1635840, Note_on_c, 5, 52, 100
7, 1636080, Note_on_c, 5, 52, 0
7, 1636080, Note_on_c, 5, 54, 100
7, 1636560, Note_on_c, 5, 54, 0
7, 1636560, Note_on_c, 5, 52, 100
7, 1636800, Note_on_c, 5, 52, 0
7, 1636800, Note_on_c, 5, 54, 100
7, 1637040, Note_on_c, 5, 54, 0
7, 1637040, Note_on_c, 5, 51, 100
7, 1637520, Note_on_c, 5, 51, 0
7, 1637520, Note_on_c, 5, 49, 100
7, 1637760, Note_on_c, 5, 49, 0
7, 1637760, Note_on_c, 5, 51, 100
7, 1638000, Note_on_c, 5, 51, 0
7, 1638000, Note_on_c, 5, 52, 100
7, 1638240, Note_on_c, 5, 52, 0
7, 1638240, Note_on_c, 5, 50, 100
7, 1638480, Note_on_c, 5, 50, 0
7, 1638480, Note_on_c, 5, 48, 100
7, 1638720, Note_on_c, 5, 48, 0
7, 1638720, Note_on_c, 5, 47, 100
7, 1638960, Note_on_c, 5, 47, 0
7, 1638960, Note_on_c, 5, 48, 100
7, 1639440, Note_on_c, 5, 48, 0
7, 1639440, Note_on_c, 5, 45, 100
7, 1639920, Note_on_c, 5, 45, 0
7, 1639920, Note_on_c, 5, 50, 100
7, 1640400, Note_on_c, 5, 50, 0
7, 1640400, Note_on_c, 5, 38, 100
7, 1640880, Note_on_c, 5, 38, 0
7, 1640880, Note_on_c, 5, 43, 100
7, 1641360, Note_on_c, 5, 43, 0
7, 1641360, Note_on_c, 5, 50, 100
7, 1641840, Note_on_c, 5, 50, 0
7, 1641840, Note_on_c, 5, 55, 100
7, 1642800, Note_on_c, 5, 55, 0
7, 1642800, Note_on_c, 5, 55, 100
7, 1643040, Note_on_c, 5, 55, 0
7, 1643040, Note_on_c, 5, 43, 100
7, 1643280, Note_on_c, 5, 43, 0
7, 1643280, Note_on_c, 5, 55, 100
7, 1643520, Note_on_c, 5, 55, 0
7, 1643520, Note_on_c, 5, 54, 100
7, 1643760, Note_on_c, 5, 54, 0
7, 1643760, Note_on_c, 5, 42, 100
7, 1644000, Note_on_c, 5, 42, 0
7, 1644000, Note_on_c, 5, 54, 100
7, 1644240, Note_on_c, 5, 54, 0
7, 1644240, Note_on_c, 5, 52, 100
7, 1644480, Note_on_c, 5, 52, 0
7, 1644480, Note_on_c, 5, 40, 100
7, 1644720, Note_on_c, 5, 40, 0
7, 1644720, Note_on_c, 5, 52, 100
7, 1644960, Note_on_c, 5, 52, 0
7, 1644960, Note_on_c, 5, 50, 100
7, 1645200, Note_on_c, 5, 50, 0
7, 1645200, Note_on_c, 5, 38, 100
7, 1645440, Note_on_c, 5, 38, 0
7, 1645440, Note_on_c, 5, 48, 100
7, 1645680, Note_on_c, 5, 48, 0
7, 1645680, Note_on_c, 5, 47, 100
7, 1645920, Note_on_c, 5, 47, 0
7, 1645920, Note_on_c, 5, 59, 100
7, 1646160, Note_on_c, 5, 59, 0
7, 1646160, Note_on_c, 5, 55, 100
7, 1646400, Note_on_c, 5, 55, 0
7, 1646400, Note_on_c, 5, 60, 100
7, 1646640, Note_on_c, 5, 60, 0
7, 1646640, Note_on_c, 5, 48, 100
7, 1646880, Note_on_c, 5, 48, 0
7, 1646880, Note_on_c, 5, 60, 100
7, 1647120, Note_on_c, 5, 60, 0
7, 1647120, Note_on_c, 5, 59, 100
7, 1647240, Note_on_c, 5, 59, 0
7, 1647240, Note_on_c, 5, 57, 100
7, 1647360, Note_on_c, 5, 57, 0
7, 1647360, Note_on_c, 5, 55, 100
7, 1647480, Note_on_c, 5, 55, 0
7, 1647480, Note_on_c, 5, 57, 100
7, 1647600, Note_on_c, 5, 57, 0
7, 1647600, Note_on_c, 5, 59, 100
7, 1647840, Note_on_c, 5, 59, 0
7, 1647840, Note_on_c, 5, 55, 100
7, 1648080, Note_on_c, 5, 55, 0
7, 1648080, Note_on_c, 5, 43, 100
7, 1648200, Note_on_c, 5, 43, 0
7, 1648200, Note_on_c, 5, 50, 100
7, 1648320, Note_on_c, 5, 50, 0
7, 1648320, Note_on_c, 5, 55, 100
7, 1648440, Note_on_c, 5, 55, 0
7, 1648440, Note_on_c, 5, 57, 100
7, 1648560, Note_on_c, 5, 57, 0
7, 1648560, Note_on_c, 5, 59, 100
7, 1648680, Note_on_c, 5, 59, 0
7, 1648680, Note_on_c, 5, 57, 100
7, 1648800, Note_on_c, 5, 57, 0
7, 1648800, Note_on_c, 5, 59, 100
7, 1648920, Note_on_c, 5, 59, 0
7, 1648920, Note_on_c, 5, 55, 100
7, 1649040, Note_on_c, 5, 55, 0
7, 1649040, Note_on_c, 5, 52, 100
7, 1649160, Note_on_c, 5, 52, 0
7, 1649160, Note_on_c, 5, 55, 100
7, 1649280, Note_on_c, 5, 55, 0
7, 1649280, Note_on_c, 5, 57, 100
7, 1649400, Note_on_c, 5, 57, 0
7, 1649400, Note_on_c, 5, 55, 100
7, 1649520, Note_on_c, 5, 55, 0
7, 1649520, Note_on_c, 5, 57, 100
7, 1649640, Note_on_c, 5, 57, 0
7, 1649640, Note_on_c, 5, 54, 100
7, 1649760, Note_on_c, 5, 54, 0
7, 1649760, Note_on_c, 5, 50, 100
7, 1649880, Note_on_c, 5, 50, 0
7, 1649880, Note_on_c, 5, 54, 100
7, 1650000, Note_on_c, 5, 54, 0
7, 1650000, Note_on_c, 5, 55, 100
7, 1650120, Note_on_c, 5, 55, 0
7, 1650120, Note_on_c, 5, 54, 100
7, 1650240, Note_on_c, 5, 54, 0
7, 1650240, Note_on_c, 5, 55, 100
7, 1650360, Note_on_c, 5, 55, 0
7, 1650360, Note_on_c, 5, 52, 100
7, 1650480, Note_on_c, 5, 52, 0
7, 1650480, Note_on_c, 5, 47, 100
7, 1650600, Note_on_c, 5, 47, 0
7, 1650600, Note_on_c, 5, 52, 100
7, 1650720, Note_on_c, 5, 52, 0
7, 1650720, Note_on_c, 5, 55, 100
7, 1650840, Note_on_c, 5, 55, 0
7, 1650840, Note_on_c, 5, 54, 100
7, 1650960, Note_on_c, 5, 54, 0
7, 1650960, Note_on_c, 5, 55, 100
7, 1651080, Note_on_c, 5, 55, 0
7, 1651080, Note_on_c, 5, 52, 100
7, 1651200, Note_on_c, 5, 52, 0
7, 1651200, Note_on_c, 5, 49, 100
7, 1651320, Note_on_c, 5, 49, 0
7, 1651320, Note_on_c, 5, 52, 100
7, 1651440, Note_on_c, 5, 52, 0
7, 1651440, Note_on_c, 5, 57, 100
7, 1651560, Note_on_c, 5, 57, 0
7, 1651560, Note_on_c, 5, 55, 100
7, 1651680, Note_on_c, 5, 55, 0
7, 1651680, Note_on_c, 5, 57, 100
7, 1651800, Note_on_c, 5, 57, 0
7, 1651800, Note_on_c, 5, 54, 100
7, 1651920, Note_on_c, 5, 54, 0
7, 1651920, Note_on_c, 5, 50, 100
7, 1652040, Note_on_c, 5, 50, 0
7, 1652040, Note_on_c, 5, 54, 100
7, 1652160, Note_on_c, 5, 54, 0
7, 1652160, Note_on_c, 5, 59, 100
7, 1652280, Note_on_c, 5, 59, 0
7, 1652280, Note_on_c, 5, 57, 100
7, 1652400, Note_on_c, 5, 57, 0
7, 1652400, Note_on_c, 5, 59, 100
7, 1652520, Note_on_c, 5, 59, 0
7, 1652520, Note_on_c, 5, 55, 100
7, 1652640, Note_on_c, 5, 55, 0
7, 1652640, Note_on_c, 5, 52, 100
7, 1652760, Note_on_c, 5, 52, 0
7, 1652760, Note_on_c, 5, 55, 100
7, 1652880, Note_on_c, 5, 55, 0
7, 1652880, Note_on_c, 5, 57, 100
7, 1653120, Note_on_c, 5, 57, 0
7, 1653120, Note_on_c, 5, 45, 100
7, 1653360, Note_on_c, 5, 45, 0
7, 1653360, Note_on_c, 5, 57, 100
7, 1653600, Note_on_c, 5, 57, 0
7, 1653600, Note_on_c, 5, 62, 100
7, 1653720, Note_on_c, 5, 62, 0
7, 1653720, Note_on_c, 5, 61, 100
7, 1653840, Note_on_c, 5, 61, 0
7, 1653840, Note_on_c, 5, 62, 100
7, 1653960, Note_on_c, 5, 62, 0
7, 1653960, Note_on_c, 5, 57, 100
7, 1654080, Note_on_c, 5, 57, 0
7, 1654080, Note_on_c, 5, 54, 100
7, 1654200, Note_on_c, 5, 54, 0
7, 1654200, Note_on_c, 5, 50, 100
7, 1654320, Note_on_c, 5, 50, 0
7, 1654320, Note_on_c, 5, 55, 100
7, 1654560, Note_on_c, 5, 55, 0
7, 1654560, Note_on_c, 5, 43, 100
7, 1654800, Note_on_c, 5, 43, 0
7, 1654800, Note_on_c, 5, 55, 100
7, 1655040, Note_on_c, 5, 55, 0
7, 1655040, Note_on_c, 5, 54, 100
7, 1655280, Note_on_c, 5, 54, 0
7, 1655280, Note_on_c, 5, 42, 100
7, 1655520, Note_on_c, 5, 42, 0
7, 1655520, Note_on_c, 5, 54, 100
7, 1655760, Note_on_c, 5, 54, 0
7, 1655760, Note_on_c, 5, 52, 100
7, 1656000, Note_on_c, 5, 52, 0
7, 1656000, Note_on_c, 5, 40, 100
7, 1656240, Note_on_c, 5, 40, 0
7, 1656240, Note_on_c, 5, 52, 100
7, 1656480, Note_on_c, 5, 52, 0
7, 1656480, Note_on_c, 5, 50, 100
7, 1656720, Note_on_c, 5, 50, 0
7, 1656720, Note_on_c, 5, 38, 100
7, 1656960, Note_on_c, 5, 38, 0
7, 1656960, Note_on_c, 5, 48, 100
7, 1657200, Note_on_c, 5, 48, 0
7, 1657200, Note_on_c, 5, 47, 100
7, 1657440, Note_on_c, 5, 47, 0
7, 1657440, Note_on_c, 5, 59, 100
7, 1657680, Note_on_c, 5, 59, 0
7, 1657680, Note_on_c, 5, 55, 100
7, 1657920, Note_on_c, 5, 55, 0
7, 1657920, Note_on_c, 5, 60, 100
7, 1658160, Note_on_c, 5, 60, 0
7, 1658160, Note_on_c, 5, 48, 100
7, 1658400, Note_on_c, 5, 48, 0
7, 1658400, Note_on_c, 5, 60, 100
7, 1658640, Note_on_c, 5, 60, 0
7, 1658640, Note_on_c, 5, 59, 100
7, 1658760, Note_on_c, 5, 59, 0
7, 1658760, Note_on_c, 5, 57, 100
7, 1658880, Note_on_c, 5, 57, 0
7, 1658880, Note_on_c, 5, 55, 100
7, 1659000, Note_on_c, 5, 55, 0
7, 1659000, Note_on_c, 5, 57, 100
7, 1659120, Note_on_c, 5, 57, 0
7, 1659120, Note_on_c, 5, 59, 100
7, 1659360, Note_on_c, 5, 59, 0
7, 1659360, Note_on_c, 5, 55, 100
7, 1659600, Note_on_c, 5, 55, 0
7, 1659600, Note_on_c, 5, 43, 100
7, 1659720, Note_on_c, 5, 43, 0
7, 1659720, Note_on_c, 5, 50, 100
7, 1659840, Note_on_c, 5, 50, 0
7, 1659840, Note_on_c, 5, 55, 100
7, 1659960, Note_on_c, 5, 55, 0
7, 1659960, Note_on_c, 5, 57, 100
7, 1660080, Note_on_c, 5, 57, 0
7, 1660080, Note_on_c, 5, 59, 100
7, 1660200, Note_on_c, 5, 59, 0
7, 1660200, Note_on_c, 5, 57, 100
7, 1660320, Note_on_c, 5, 57, 0
7, 1660320, Note_on_c, 5, 59, 100
7, 1660440, Note_on_c, 5, 59, 0
7, 1660440, Note_on_c, 5, 55, 100
7, 1660560, Note_on_c, 5, 55, 0
7, 1660560, Note_on_c, 5, 52, 100
7, 1660680, Note_on_c, 5, 52, 0
7, 1660680, Note_on_c, 5, 55, 100
7, 1660800, Note_on_c, 5, 55, 0
7, 1660800, Note_on_c, 5, 57, 100
7, 1660920, Note_on_c, 5, 57, 0
7, 1660920, Note_on_c, 5, 55, 100
7, 1661040, Note_on_c, 5, 55, 0
7, 1661040, Note_on_c, 5, 57, 100
7, 1661160, Note_on_c, 5, 57, 0
7, 1661160, Note_on_c, 5, 54, 100
7, 1661280, Note_on_c, 5, 54, 0
7, 1661280, Note_on_c, 5, 50, 100
7, 1661400, Note_on_c, 5, 50, 0
7, 1661400, Note_on_c, 5, 54, 100
7, 1661520, Note_on_c, 5, 54, 0
7, 1661520, Note_on_c, 5, 55, 100
7, 1661640, Note_on_c, 5, 55, 0
7, 1661640, Note_on_c, 5, 54, 100
7, 1661760, Note_on_c, 5, 54, 0
7, 1661760, Note_on_c, 5, 55, 100
7, 1661880, Note_on_c, 5, 55, 0
7, 1661880, Note_on_c, 5, 52, 100
7, 1662000, Note_on_c, 5, 52, 0
7, 1662000, Note_on_c, 5, 47, 100
7, 1662120, Note_on_c, 5, 47, 0
7, 1662120, Note_on_c, 5, 52, 100
7, 1662240, Note_on_c, 5, 52, 0
7, 1662240, Note_on_c, 5, 55, 100
7, 1662360, Note_on_c, 5, 55, 0
7, 1662360, Note_on_c, 5, 54, 100
7, 1662480, Note_on_c, 5, 54, 0
7, 1662480, Note_on_c, 5, 55, 100
7, 1662600, Note_on_c, 5, 55, 0
7, 1662600, Note_on_c, 5, 52, 100
7, 1662720, Note_on_c, 5, 52, 0
7, 1662720, Note_on_c, 5, 49, 100
7, 1662840, Note_on_c, 5, 49, 0
7, 1662840, Note_on_c, 5, 52, 100
7, 1662960, Note_on_c, 5, 52, 0
7, 1662960, Note_on_c, 5, 57, 100
7, 1663080, Note_on_c, 5, 57, 0
7, 1663080, Note_on_c, 5, 55, 100
7, 1663200, Note_on_c, 5, 55, 0
7, 1663200, Note_on_c, 5, 57, 100
7, 1663320, Note_on_c, 5, 57, 0
7, 1663320, Note_on_c, 5, 54, 100
7, 1663440, Note_on_c, 5, 54, 0
7, 1663440, Note_on_c, 5, 50, 100
7, 1663560, Note_on_c, 5, 50, 0
7, 1663560, Note_on_c, 5, 54, 100
7, 1663680, Note_on_c, 5, 54, 0
7, 1663680, Note_on_c, 5, 59, 100
7, 1663800, Note_on_c, 5, 59, 0
7, 1663800, Note_on_c, 5, 57, 100
7, 1663920, Note_on_c, 5, 57, 0
7, 1663920, Note_on_c, 5, 59, 100
7, 1664040, Note_on_c, 5, 59, 0
7, 1664040, Note_on_c, 5, 55, 100
7, 1664160, Note_on_c, 5, 55, 0
7, 1664160, Note_on_c, 5, 52, 100
7, 1664280, Note_on_c, 5, 52, 0
7, 1664280, Note_on_c, 5, 55, 100
7, 1664400, Note_on_c, 5, 55, 0
7, 1664400, Note_on_c, 5, 57, 100
7, 1664640, Note_on_c, 5, 57, 0
7, 1664640, Note_on_c, 5, 45, 100
7, 1664880, Note_on_c, 5, 45, 0
7, 1664880, Note_on_c, 5, 57, 100
7, 1665120, Note_on_c, 5, 57, 0
7, 1665120, Note_on_c, 5, 62, 100
7, 1665240, Note_on_c, 5, 62, 0
7, 1665240, Note_on_c, 5, 61, 100
7, 1665360, Note_on_c, 5, 61, 0
7, 1665360, Note_on_c, 5, 62, 100
7, 1665480, Note_on_c, 5, 62, 0
7, 1665480, Note_on_c, 5, 57, 100
7, 1665600, Note_on_c, 5, 57, 0
7, 1665600, Note_on_c, 5, 54, 100
7, 1665720, Note_on_c, 5, 54, 0
7, 1665720, Note_on_c, 5, 50, 100
7, 1665840, Note_on_c, 5, 50, 0
7, 1665840, Note_on_c, 5, 62, 100
7, 1666080, Note_on_c, 5, 62, 0
7, 1666080, Note_on_c, 5, 50, 100
7, 1666320, Note_on_c, 5, 50, 0
7, 1666320, Note_on_c, 5, 60, 100
7, 1666560, Note_on_c, 5, 60, 0
7, 1666560, Note_on_c, 5, 59, 100
7, 1666800, Note_on_c, 5, 59, 0
7, 1666800, Note_on_c, 5, 55, 100
7, 1667040, Note_on_c, 5, 55, 0
7, 1667040, Note_on_c, 5, 59, 100
7, 1667280, Note_on_c, 5, 59, 0
7, 1667280, Note_on_c, 5, 60, 100
7, 1667520, Note_on_c, 5, 60, 0
7, 1667520, Note_on_c, 5, 59, 100
7, 1667760, Note_on_c, 5, 59, 0
7, 1667760, Note_on_c, 5, 57, 100
7, 1668000, Note_on_c, 5, 57, 0
7, 1668000, Note_on_c, 5, 59, 100
7, 1668240, Note_on_c, 5, 59, 0
7, 1668240, Note_on_c, 5, 57, 100
7, 1668360, Note_on_c, 5, 57, 0
7, 1668360, Note_on_c, 5, 55, 100
7, 1668480, Note_on_c, 5, 55, 0
7, 1668480, Note_on_c, 5, 57, 100
7, 1668600, Note_on_c, 5, 57, 0
7, 1668600, Note_on_c, 5, 54, 100
7, 1668720, Note_on_c, 5, 54, 0
7, 1668720, Note_on_c, 5, 55, 100
7, 1668960, Note_on_c, 5, 55, 0
7, 1668960, Note_on_c, 5, 52, 100
7, 1669200, Note_on_c, 5, 52, 0
7, 1669200, Note_on_c, 5, 55, 100
7, 1669440, Note_on_c, 5, 55, 0
7, 1669440, Note_on_c, 5, 57, 100
7, 1669680, Note_on_c, 5, 57, 0
7, 1669680, Note_on_c, 5, 45, 100
7, 1669920, Note_on_c, 5, 45, 0
7, 1669920, Note_on_c, 5, 57, 100
7, 1670160, Note_on_c, 5, 57, 0
7, 1670160, Note_on_c, 5, 55, 100
7, 1670280, Note_on_c, 5, 55, 0
7, 1670280, Note_on_c, 5, 54, 100
7, 1670400, Note_on_c, 5, 54, 0
7, 1670400, Note_on_c, 5, 55, 100
7, 1670520, Note_on_c, 5, 55, 0
7, 1670520, Note_on_c, 5, 57, 100
7, 1670640, Note_on_c, 5, 57, 0
7, 1670640, Note_on_c, 5, 59, 100
7, 1670880, Note_on_c, 5, 59, 0
7, 1670880, Note_on_c, 5, 52, 100
7, 1671120, Note_on_c, 5, 52, 0
7, 1671120, Note_on_c, 5, 64, 100
7, 1671360, Note_on_c, 5, 64, 0
7, 1671360, Note_on_c, 5, 62, 100
7, 1671600, Note_on_c, 5, 62, 0
7, 1671600, Note_on_c, 5, 60, 100
7, 1671720, Note_on_c, 5, 60, 0
7, 1671720, Note_on_c, 5, 59, 100
7, 1671840, Note_on_c, 5, 59, 0
7, 1671840, Note_on_c, 5, 60, 100
7, 1671960, Note_on_c, 5, 60, 0
7, 1671960, Note_on_c, 5, 57, 100
7, 1672080, Note_on_c, 5, 57, 0
7, 1672080, Note_on_c, 5, 54, 100
7, 1672200, Note_on_c, 5, 54, 0
7, 1672200, Note_on_c, 5, 57, 100
7, 1672320, Note_on_c, 5, 57, 0
7, 1672320, Note_on_c, 5, 59, 100
7, 1672440, Note_on_c, 5, 59, 0
7, 1672440, Note_on_c, 5, 57, 100
7, 1672560, Note_on_c, 5, 57, 0
7, 1672560, Note_on_c, 5, 59, 100
7, 1672680, Note_on_c, 5, 59, 0
7, 1672680, Note_on_c, 5, 55, 100
7, 1672800, Note_on_c, 5, 55, 0
7, 1672800, Note_on_c, 5, 52, 100
7, 1672920, Note_on_c, 5, 52, 0
7, 1672920, Note_on_c, 5, 55, 100
7, 1673040, Note_on_c, 5, 55, 0
7, 1673040, Note_on_c, 5, 57, 100
7, 1673160, Note_on_c, 5, 57, 0
7, 1673160, Note_on_c, 5, 55, 100
7, 1673280, Note_on_c, 5, 55, 0
7, 1673280, Note_on_c, 5, 57, 100
7, 1673400, Note_on_c, 5, 57, 0
7, 1673400, Note_on_c, 5, 60, 100
7, 1673520, Note_on_c, 5, 60, 0
7, 1673520, Note_on_c, 5, 52, 100
7, 1673640, Note_on_c, 5, 52, 0
7, 1673640, Note_on_c, 5, 55, 100
7, 1673760, Note_on_c, 5, 55, 0
7, 1673760, Note_on_c, 5, 54, 100
7, 1673880, Note_on_c, 5, 54, 0
7, 1673880, Note_on_c, 5, 52, 100
7, 1674000, Note_on_c, 5, 52, 0
7, 1674000, Note_on_c, 5, 54, 100
7, 1674120, Note_on_c, 5, 54, 0
7, 1674120, Note_on_c, 5, 57, 100
7, 1674240, Note_on_c, 5, 57, 0
7, 1674240, Note_on_c, 5, 50, 100
7, 1674360, Note_on_c, 5, 50, 0
7, 1674360, Note_on_c, 5, 54, 100
7, 1674480, Note_on_c, 5, 54, 0
7, 1674480, Note_on_c, 5, 47, 100
7, 1674720, Note_on_c, 5, 47, 0
7, 1674720, Note_on_c, 5, 43, 100
7, 1674960, Note_on_c, 5, 43, 0
7, 1674960, Note_on_c, 5, 47, 100
7, 1675200, Note_on_c, 5, 47, 0
7, 1675200, Note_on_c, 5, 48, 100
7, 1675440, Note_on_c, 5, 48, 0
7, 1675440, Note_on_c, 5, 45, 100
7, 1675680, Note_on_c, 5, 45, 0
7, 1675680, Note_on_c, 5, 48, 100
7, 1675920, Note_on_c, 5, 48, 0
7, 1675920, Note_on_c, 5, 50, 100
7, 1676160, Note_on_c, 5, 50, 0
7, 1676160, Note_on_c, 5, 48, 100
7, 1676400, Note_on_c, 5, 48, 0
7, 1676400, Note_on_c, 5, 50, 100
7, 1676640, Note_on_c, 5, 50, 0
7, 1676640, Note_on_c, 5, 55, 100
7, 1677360, Note_on_c, 5, 55, 0
7, 1677360, Note_on_c, 5, 62, 100
7, 1677600, Note_on_c, 5, 62, 0
7, 1677600, Note_on_c, 5, 50, 100
7, 1677840, Note_on_c, 5, 50, 0
7, 1677840, Note_on_c, 5, 60, 100
7, 1678080, Note_on_c, 5, 60, 0
7, 1678080, Note_on_c, 5, 59, 100
7, 1678320, Note_on_c, 5, 59, 0
7, 1678320, Note_on_c, 5, 55, 100
7, 1678560, Note_on_c, 5, 55, 0
7, 1678560, Note_on_c, 5, 59, 100
7, 1678800, Note_on_c, 5, 59, 0
7, 1678800, Note_on_c, 5, 60, 100
7, 1679040, Note_on_c, 5, 60, 0
7, 1679040, Note_on_c, 5, 59, 100
7, 1679280, Note_on_c, 5, 59, 0
7, 1679280, Note_on_c, 5, 57, 100
7, 1679520, Note_on_c, 5, 57, 0
7, 1679520, Note_on_c, 5, 59, 100
7, 1679760, Note_on_c, 5, 59, 0
7, 1679760, Note_on_c, 5, 57, 100
7, 1679880, Note_on_c, 5, 57, 0
7, 1679880, Note_on_c, 5, 55, 100
7, 1680000, Note_on_c, 5, 55, 0
7, 1680000, Note_on_c, 5, 57, 100
7, 1680120, Note_on_c, 5, 57, 0
7, 1680120, Note_on_c, 5, 54, 100
7, 1680240, Note_on_c, 5, 54, 0
7, 1680240, Note_on_c, 5, 55, 100
7, 1680480, Note_on_c, 5, 55, 0
7, 1680480, Note_on_c, 5, 52, 100
7, 1680720, Note_on_c, 5, 52, 0
7, 1680720, Note_on_c, 5, 55, 100
7, 1680960, Note_on_c, 5, 55, 0
7, 1680960, Note_on_c, 5, 57, 100
7, 1681200, Note_on_c, 5, 57, 0
7, 1681200, Note_on_c, 5, 45, 100
7, 1681440, Note_on_c, 5, 45, 0
7, 1681440, Note_on_c, 5, 57, 100
7, 1681680, Note_on_c, 5, 57, 0
7, 1681680, Note_on_c, 5, 55, 100
7, 1681800, Note_on_c, 5, 55, 0
7, 1681800, Note_on_c, 5, 54, 100
7, 1681920, Note_on_c, 5, 54, 0
7, 1681920, Note_on_c, 5, 55, 100
7, 1682040, Note_on_c, 5, 55, 0
7, 1682040, Note_on_c, 5, 57, 100
7, 1682160, Note_on_c, 5, 57, 0
7, 1682160, Note_on_c, 5, 59, 100
7, 1682400, Note_on_c, 5, 59, 0
7, 1682400, Note_on_c, 5, 52, 100
7, 1682640, Note_on_c, 5, 52, 0
7, 1682640, Note_on_c, 5, 64, 100
7, 1682880, Note_on_c, 5, 64, 0
7, 1682880, Note_on_c, 5, 62, 100
7, 1683120, Note_on_c, 5, 62, 0
7, 1683120, Note_on_c, 5, 60, 100
7, 1683240, Note_on_c, 5, 60, 0
7, 1683240, Note_on_c, 5, 59, 100
7, 1683360, Note_on_c, 5, 59, 0
7, 1683360, Note_on_c, 5, 60, 100
7, 1683480, Note_on_c, 5, 60, 0
7, 1683480, Note_on_c, 5, 57, 100
7, 1683600, Note_on_c, 5, 57, 0
7, 1683600, Note_on_c, 5, 54, 100
7, 1683720, Note_on_c, 5, 54, 0
7, 1683720, Note_on_c, 5, 57, 100
7, 1683840, Note_on_c, 5, 57, 0
7, 1683840, Note_on_c, 5, 59, 100
7, 1683960, Note_on_c, 5, 59, 0
7, 1683960, Note_on_c, 5, 57, 100
7, 1684080, Note_on_c, 5, 57, 0
7, 1684080, Note_on_c, 5, 59, 100
7, 1684200, Note_on_c, 5, 59, 0
7, 1684200, Note_on_c, 5, 55, 100
7, 1684320, Note_on_c, 5, 55, 0
7, 1684320, Note_on_c, 5, 52, 100
7, 1684440, Note_on_c, 5, 52, 0
7, 1684440, Note_on_c, 5, 55, 100
7, 1684560, Note_on_c, 5, 55, 0
7, 1684560, Note_on_c, 5, 57, 100
7, 1684680, Note_on_c, 5, 57, 0
7, 1684680, Note_on_c, 5, 55, 100
7, 1684800, Note_on_c, 5, 55, 0
7, 1684800, Note_on_c, 5, 57, 100
7, 1684920, Note_on_c, 5, 57, 0
7, 1684920, Note_on_c, 5, 60, 100
7, 1685040, Note_on_c, 5, 60, 0
7, 1685040, Note_on_c, 5, 52, 100
7, 1685160, Note_on_c, 5, 52, 0
7, 1685160, Note_on_c, 5, 55, 100
7, 1685280, Note_on_c, 5, 55, 0
7, 1685280, Note_on_c, 5, 54, 100
7, 1685400, Note_on_c, 5, 54, 0
7, 1685400, Note_on_c, 5, 52, 100
7, 1685520, Note_on_c, 5, 52, 0
7, 1685520, Note_on_c, 5, 54, 100
7, 1685640, Note_on_c, 5, 54, 0
7, 1685640, Note_on_c, 5, 57, 100
7, 1685760, Note_on_c, 5, 57, 0
7, 1685760, Note_on_c, 5, 50, 100
7, 1685880, Note_on_c, 5, 50, 0
7, 1685880, Note_on_c, 5, 54, 100
7, 1686000, Note_on_c, 5, 54, 0
7, 1686000, Note_on_c, 5, 47, 100
7, 1686240, Note_on_c, 5, 47, 0
7, 1686240, Note_on_c, 5, 43, 100
7, 1686480, Note_on_c, 5, 43, 0
7, 1686480, Note_on_c, 5, 47, 100
7, 1686720, Note_on_c, 5, 47, 0
7, 1686720, Note_on_c, 5, 48, 100
7, 1686960, Note_on_c, 5, 48, 0
7, 1686960, Note_on_c, 5, 45, 100
7, 1687200, Note_on_c, 5, 45, 0
7, 1687200, Note_on_c, 5, 48, 100
7, 1687440, Note_on_c, 5, 48, 0
7, 1687440, Note_on_c, 5, 50, 100
7, 1687680, Note_on_c, 5, 50, 0
7, 1687680, Note_on_c, 5, 48, 100
7, 1687920, Note_on_c, 5, 48, 0
7, 1687920, Note_on_c, 5, 50, 100
7, 1688160, Note_on_c, 5, 50, 0
7, 1688160, Note_on_c, 5, 55, 100
7, 1688880, Note_on_c, 5, 55, 0
7, 1781040, Note_on_c, 5, 43, 100
7, 1781520, Note_on_c, 5, 43, 0
7, 1781520, Note_on_c, 5, 55, 100
7, 1782000, Note_on_c, 5, 55, 0
7, 1782000, Note_on_c, 5, 54, 100
7, 1782480, Note_on_c, 5, 54, 0
7, 1782480, Note_on_c, 5, 53, 100
7, 1782960, Note_on_c, 5, 53, 0
7, 1782960, Note_on_c, 5, 52, 100
7, 1783440, Note_on_c, 5, 52, 0
7, 1783440, Note_on_c, 5, 51, 100
7, 1783920, Note_on_c, 5, 51, 0
7, 1783920, Note_on_c, 5, 50, 100
7, 1784040, Note_on_c, 5, 50, 0
7, 1784040, Note_on_c, 5, 45, 100
7, 1784160, Note_on_c, 5, 45, 0
7, 1784160, Note_on_c, 5, 46, 100
7, 1784280, Note_on_c, 5, 46, 0
7, 1784280, Note_on_c, 5, 48, 100
7, 1784400, Note_on_c, 5, 48, 0
7, 1784400, Note_on_c, 5, 50, 100
7, 1784640, Note_on_c, 5, 50, 0
7, 1784640, Note_on_c, 5, 38, 100
7, 1784880, Note_on_c, 5, 38, 0
7, 1784880, Note_on_c, 5, 43, 100
7, 1785000, Note_on_c, 5, 43, 0
7, 1785000, Note_on_c, 5, 50, 100
7, 1785120, Note_on_c, 5, 50, 0
7, 1785120, Note_on_c, 5, 52, 100
7, 1785240, Note_on_c, 5, 52, 0
7, 1785240, Note_on_c, 5, 54, 100
7, 1785360, Note_on_c, 5, 54, 0
7, 1785360, Note_on_c, 5, 55, 100
7, 1785480, Note_on_c, 5, 55, 0
7, 1785480, Note_on_c, 5, 53, 100
7, 1785600, Note_on_c, 5, 53, 0
7, 1785600, Note_on_c, 5, 51, 100
7, 1785720, Note_on_c, 5, 51, 0
7, 1785720, Note_on_c, 5, 50, 100
7, 1785840, Note_on_c, 5, 50, 0
7, 1785840, Note_on_c, 5, 48, 100
7, 1786080, Note_on_c, 5, 48, 0
7, 1786080, Note_on_c, 5, 47, 100
7, 1786320, Note_on_c, 5, 47, 0
7, 1786320, Note_on_c, 5, 48, 100
7, 1786560, Note_on_c, 5, 48, 0
7, 1786560, Note_on_c, 5, 49, 100
7, 1786800, Note_on_c, 5, 49, 0
7, 1786800, Note_on_c, 5, 50, 100
7, 1787040, Note_on_c, 5, 50, 0
7, 1787040, Note_on_c, 5, 46, 100
7, 1787280, Note_on_c, 5, 46, 0
7, 1787280, Note_on_c, 5, 48, 100
7, 1787520, Note_on_c, 5, 48, 0
7, 1787520, Note_on_c, 5, 50, 100
7, 1787760, Note_on_c, 5, 50, 0
7, 1787760, Note_on_c, 5, 55, 100
7, 1788360, Note_on_c, 5, 55, 0
7, 1788360, Note_on_c, 5, 54, 100
7, 1788480, Note_on_c, 5, 54, 0
7, 1788480, Note_on_c, 5, 55, 100
7, 1788600, Note_on_c, 5, 55, 0
7, 1788600, Note_on_c, 5, 57, 100
7, 1788720, Note_on_c, 5, 57, 0
7, 1788720, Note_on_c, 5, 58, 100
7, 1788840, Note_on_c, 5, 58, 0
7, 1788840, Note_on_c, 5, 60, 100
7, 1788960, Note_on_c, 5, 60, 0
7, 1788960, Note_on_c, 5, 62, 100
7, 1789200, Note_on_c, 5, 62, 0
7, 1789200, Note_on_c, 5, 55, 100
7, 1789440, Note_on_c, 5, 55, 0
7, 1789440, Note_on_c, 5, 67, 100
7, 1789680, Note_on_c, 5, 67, 0
7, 1789680, Note_on_c, 5, 62, 100
7, 1790400, Note_on_c, 5, 62, 0
7, 1790400, Note_on_c, 5, 60, 100
7, 1790640, Note_on_c, 5, 60, 0
7, 1790640, Note_on_c, 5, 58, 100
7, 1790880, Note_on_c, 5, 58, 0
7, 1790880, Note_on_c, 5, 57, 100
7, 1791120, Note_on_c, 5, 57, 0
7, 1791120, Note_on_c, 5, 58, 100
7, 1791360, Note_on_c, 5, 58, 0
7, 1791360, Note_on_c, 5, 55, 100
7, 1791600, Note_on_c, 5, 55, 0
7, 1791600, Note_on_c, 5, 57, 100
7, 1791720, Note_on_c, 5, 57, 0
7, 1791720, Note_on_c, 5, 52, 100
7, 1791840, Note_on_c, 5, 52, 0
7, 1791840, Note_on_c, 5, 53, 100
7, 1791960, Note_on_c, 5, 53, 0
7, 1791960, Note_on_c, 5, 55, 100
7, 1792080, Note_on_c, 5, 55, 0
7, 1792080, Note_on_c, 5, 57, 100
7, 1792200, Note_on_c, 5, 57, 0
7, 1792200, Note_on_c, 5, 59, 100
7, 1792320, Note_on_c, 5, 59, 0
7, 1792320, Note_on_c, 5, 61, 100
7, 1792440, Note_on_c, 5, 61, 0
7, 1792440, Note_on_c, 5, 57, 100
7, 1792560, Note_on_c, 5, 57, 0
7, 1792560, Note_on_c, 5, 62, 100
7, 1792680, Note_on_c, 5, 62, 0
7, 1792680, Note_on_c, 5, 53, 100
7, 1792800, Note_on_c, 5, 53, 0
7, 1792800, Note_on_c, 5, 55, 100
7, 1792920, Note_on_c, 5, 55, 0
7, 1792920, Note_on_c, 5, 57, 100
7, 1793040, Note_on_c, 5, 57, 0
7, 1793040, Note_on_c, 5, 50, 100
7, 1793160, Note_on_c, 5, 50, 0
7, 1793160, Note_on_c, 5, 60, 100
7, 1793280, Note_on_c, 5, 60, 0
7, 1793280, Note_on_c, 5, 58, 100
7, 1793400, Note_on_c, 5, 58, 0
7, 1793400, Note_on_c, 5, 57, 100
7, 1793520, Note_on_c, 5, 57, 0
7, 1793520, Note_on_c, 5, 55, 100
7, 1793640, Note_on_c, 5, 55, 0
7, 1793640, Note_on_c, 5, 46, 100
7, 1793760, Note_on_c, 5, 46, 0
7, 1793760, Note_on_c, 5, 48, 100
7, 1793880, Note_on_c, 5, 48, 0
7, 1793880, Note_on_c, 5, 50, 100
7, 1794000, Note_on_c, 5, 50, 0
7, 1794000, Note_on_c, 5, 43, 100
7, 1794120, Note_on_c, 5, 43, 0
7, 1794120, Note_on_c, 5, 55, 100
7, 1794360, Note_on_c, 5, 55, 0
7, 1794360, Note_on_c, 5, 49, 100
7, 1794480, Note_on_c, 5, 49, 0
7, 1794480, Note_on_c, 5, 50, 100
7, 1794600, Note_on_c, 5, 50, 0
7, 1794600, Note_on_c, 5, 57, 100
7, 1794720, Note_on_c, 5, 57, 0
7, 1794720, Note_on_c, 5, 62, 100
7, 1795320, Note_on_c, 5, 62, 0
7, 1795320, Note_on_c, 5, 61, 100
7, 1795440, Note_on_c, 5, 61, 0
7, 1795440, Note_on_c, 5, 62, 100
7, 1795560, Note_on_c, 5, 62, 0
7, 1795560, Note_on_c, 5, 58, 100
7, 1795680, Note_on_c, 5, 58, 0
7, 1795680, Note_on_c, 5, 57, 100
7, 1795800, Note_on_c, 5, 57, 0
7, 1795800, Note_on_c, 5, 55, 100
7, 1795920, Note_on_c, 5, 55, 0
7, 1795920, Note_on_c, 5, 54, 100
7, 1796040, Note_on_c, 5, 54, 0
7, 1796040, Note_on_c, 5, 57, 100
7, 1796160, Note_on_c, 5, 57, 0
7, 1796160, Note_on_c, 5, 54, 100
7, 1796280, Note_on_c, 5, 54, 0
7, 1796280, Note_on_c, 5, 50, 100
7, 1796400, Note_on_c, 5, 50, 0
7, 1796400, Note_on_c, 5, 43, 100
7, 1796880, Note_on_c, 5, 43, 0
7, 1796880, Note_on_c, 5, 55, 100
7, 1797360, Note_on_c, 5, 55, 0
7, 1797360, Note_on_c, 5, 54, 100
7, 1797840, Note_on_c, 5, 54, 0
7, 1797840, Note_on_c, 5, 53, 100
7, 1798320, Note_on_c, 5, 53, 0
7, 1798320, Note_on_c, 5, 52, 100
7, 1798800, Note_on_c, 5, 52, 0
7, 1798800, Note_on_c, 5, 51, 100
7, 1799280, Note_on_c, 5, 51, 0
7, 1799280, Note_on_c, 5, 50, 100
7, 1799400, Note_on_c, 5, 50, 0
7, 1799400, Note_on_c, 5, 45, 100
7, 1799520, Note_on_c, 5, 45, 0
7, 1799520, Note_on_c, 5, 46, 100
7, 1799640, Note_on_c, 5, 46, 0
7, 1799640, Note_on_c, 5, 48, 100
7, 1799760, Note_on_c, 5, 48, 0
7, 1799760, Note_on_c, 5, 50, 100
7, 1800000, Note_on_c, 5, 50, 0
7, 1800000, Note_on_c, 5, 38, 100
7, 1800240, Note_on_c, 5, 38, 0
7, 1800240, Note_on_c, 5, 43, 100
7, 1800360, Note_on_c, 5, 43, 0
7, 1800360, Note_on_c, 5, 50, 100
7, 1800480, Note_on_c, 5, 50, 0
7, 1800480, Note_on_c, 5, 52, 100
7, 1800600, Note_on_c, 5, 52, 0
7, 1800600, Note_on_c, 5, 54, 100
7, 1800720, Note_on_c, 5, 54, 0
7, 1800720, Note_on_c, 5, 55, 100
7, 1800840, Note_on_c, 5, 55, 0
7, 1800840, Note_on_c, 5, 53, 100
7, 1800960, Note_on_c, 5, 53, 0
7, 1800960, Note_on_c, 5, 51, 100
7, 1801080, Note_on_c, 5, 51, 0
7, 1801080, Note_on_c, 5, 50, 100
7, 1801200, Note_on_c, 5, 50, 0
7, 1801200, Note_on_c, 5, 48, 100
7, 1801440, Note_on_c, 5, 48, 0
7, 1801440, Note_on_c, 5, 47, 100
7, 1801680, Note_on_c, 5, 47, 0
7, 1801680, Note_on_c, 5, 48, 100
7, 1801920, Note_on_c, 5, 48, 0
7, 1801920, Note_on_c, 5, 49, 100
7, 1802160, Note_on_c, 5, 49, 0
7, 1802160, Note_on_c, 5, 50, 100
7, 1802400, Note_on_c, 5, 50, 0
7, 1802400, Note_on_c, 5, 46, 100
7, 1802640, Note_on_c, 5, 46, 0
7, 1802640, Note_on_c, 5, 48, 100
7, 1802880, Note_on_c, 5, 48, 0
7, 1802880, Note_on_c, 5, 50, 100
7, 1803120, Note_on_c, 5, 50, 0
7, 1803120, Note_on_c, 5, 55, 100
7, 1803720, Note_on_c, 5, 55, 0
7, 1803720, Note_on_c, 5, 54, 100
7, 1803840, Note_on_c, 5, 54, 0
7, 1803840, Note_on_c, 5, 55, 100
7, 1803960, Note_on_c, 5, 55, 0
7, 1803960, Note_on_c, 5, 57, 100
7, 1804080, Note_on_c, 5, 57, 0
7, 1804080, Note_on_c, 5, 58, 100
7, 1804200, Note_on_c, 5, 58, 0
7, 1804200, Note_on_c, 5, 60, 100
7, 1804320, Note_on_c, 5, 60, 0
7, 1804320, Note_on_c, 5, 62, 100
7, 1804560, Note_on_c, 5, 62, 0
7, 1804560, Note_on_c, 5, 55, 100
7, 1804800, Note_on_c, 5, 55, 0
7, 1804800, Note_on_c, 5, 67, 100
7, 1805040, Note_on_c, 5, 67, 0
7, 1805040, Note_on_c, 5, 62, 100
7, 1805760, Note_on_c, 5, 62, 0
7, 1805760, Note_on_c, 5, 60, 100
7, 1806000, Note_on_c, 5, 60, 0
7, 1806000, Note_on_c, 5, 58, 100
7, 1806240, Note_on_c, 5, 58, 0
7, 1806240, Note_on_c, 5, 57, 100
7, 1806480, Note_on_c, 5, 57, 0
7, 1806480, Note_on_c, 5, 58, 100
7, 1806720, Note_on_c, 5, 58, 0
7, 1806720, Note_on_c, 5, 55, 100
7, 1806960, Note_on_c, 5, 55, 0
7, 1806960, Note_on_c, 5, 57, 100
7, 1807080, Note_on_c, 5, 57, 0
7, 1807080, Note_on_c, 5, 52, 100
7, 1807200, Note_on_c, 5, 52, 0
7, 1807200, Note_on_c, 5, 53, 100
7, 1807320, Note_on_c, 5, 53, 0
7, 1807320, Note_on_c, 5, 55, 100
7, 1807440, Note_on_c, 5, 55, 0
7, 1807440, Note_on_c, 5, 57, 100
7, 1807560, Note_on_c, 5, 57, 0
7, 1807560, Note_on_c, 5, 59, 100
7, 1807680, Note_on_c, 5, 59, 0
7, 1807680, Note_on_c, 5, 61, 100
7, 1807800, Note_on_c, 5, 61, 0
7, 1807800, Note_on_c, 5, 57, 100
7, 1807920, Note_on_c, 5, 57, 0
7, 1807920, Note_on_c, 5, 62, 100
7, 1808040, Note_on_c, 5, 62, 0
7, 1808040, Note_on_c, 5, 53, 100
7, 1808160, Note_on_c, 5, 53, 0
7, 1808160, Note_on_c, 5, 55, 100
7, 1808280, Note_on_c, 5, 55, 0
7, 1808280, Note_on_c, 5, 57, 100
7, 1808400, Note_on_c, 5, 57, 0
7, 1808400, Note_on_c, 5, 50, 100
7, 1808520, Note_on_c, 5, 50, 0
7, 1808520, Note_on_c, 5, 60, 100
7, 1808640, Note_on_c, 5, 60, 0
7, 1808640, Note_on_c, 5, 58, 100
7, 1808760, Note_on_c, 5, 58, 0
7, 1808760, Note_on_c, 5, 57, 100
7, 1808880, Note_on_c, 5, 57, 0
7, 1808880, Note_on_c, 5, 55, 100
7, 1809000, Note_on_c, 5, 55, 0
7, 1809000, Note_on_c, 5, 46, 100
7, 1809120, Note_on_c, 5, 46, 0
7, 1809120, Note_on_c, 5, 48, 100
7, 1809240, Note_on_c, 5, 48, 0
7, 1809240, Note_on_c, 5, 50, 100
7, 1809360, Note_on_c, 5, 50, 0
7, 1809360, Note_on_c, 5, 43, 100
7, 1809480, Note_on_c, 5, 43, 0
7, 1809480, Note_on_c, 5, 55, 100
7, 1809720, Note_on_c, 5, 55, 0
7, 1809720, Note_on_c, 5, 49, 100
7, 1809840, Note_on_c, 5, 49, 0
7, 1809840, Note_on_c, 5, 50, 100
7, 1809960, Note_on_c, 5, 50, 0
7, 1809960, Note_on_c, 5, 57, 100
7, 1810080, Note_on_c, 5, 57, 0
7, 1810080, Note_on_c, 5, 62, 100
7, 1810680, Note_on_c, 5, 62, 0
7, 1810680, Note_on_c, 5, 61, 100
7, 1810800, Note_on_c, 5, 61, 0
7, 1810800, Note_on_c, 5, 62, 100
7, 1810920, Note_on_c, 5, 62, 0
7, 1810920, Note_on_c, 5, 58, 100
7, 1811040, Note_on_c, 5, 58, 0
7, 1811040, Note_on_c, 5, 57, 100
7, 1811160, Note_on_c, 5, 57, 0
7, 1811160, Note_on_c, 5, 55, 100
7, 1811280, Note_on_c, 5, 55, 0
7, 1811280, Note_on_c, 5, 54, 100
7, 1811400, Note_on_c, 5, 54, 0
7, 1811400, Note_on_c, 5, 57, 100
7, 1811520, Note_on_c, 5, 57, 0
7, 1811520, Note_on_c, 5, 54, 100
7, 1811640, Note_on_c, 5, 54, 0
7, 1811640, Note_on_c, 5, 50, 100
7, 1811760, Note_on_c, 5, 50, 0
7, 1811760, Note_on_c, 5, 50, 100
7, 1812000, Note_on_c, 5, 50, 0
7, 1812000, Note_on_c, 5, 62, 100
7, 1812480, Note_on_c, 5, 62, 0
7, 1812480, Note_on_c, 5, 60, 100
7, 1812720, Note_on_c, 5, 60, 0
7, 1812720, Note_on_c, 5, 59, 100
7, 1812960, Note_on_c, 5, 59, 0
7, 1812960, Note_on_c, 5, 58, 100
7, 1813440, Note_on_c, 5, 58, 0
7, 1813440, Note_on_c, 5, 57, 100
7, 1813560, Note_on_c, 5, 57, 0
7, 1813560, Note_on_c, 5, 55, 100
7, 1813680, Note_on_c, 5, 55, 0
7, 1813680, Note_on_c, 5, 57, 100
7, 1813920, Note_on_c, 5, 57, 0
7, 1813920, Note_on_c, 5, 56, 100
7, 1814400, Note_on_c, 5, 56, 0
7, 1814400, Note_on_c, 5, 55, 100
7, 1814640, Note_on_c, 5, 55, 0
7, 1814640, Note_on_c, 5, 50, 100
7, 1814880, Note_on_c, 5, 50, 0
7, 1814880, Note_on_c, 5, 51, 100
7, 1815120, Note_on_c, 5, 51, 0
7, 1815120, Note_on_c, 5, 53, 100
7, 1815360, Note_on_c, 5, 53, 0
7, 1815360, Note_on_c, 5, 46, 100
7, 1815600, Note_on_c, 5, 46, 0
7, 1815600, Note_on_c, 5, 51, 100
7, 1815840, Note_on_c, 5, 51, 0
7, 1816320, Note_on_c, 5, 51, 100
7, 1816560, Note_on_c, 5, 51, 0
7, 1816560, Note_on_c, 5, 56, 100
7, 1817280, Note_on_c, 5, 56, 0
7, 1817280, Note_on_c, 5, 55, 100
7, 1817400, Note_on_c, 5, 55, 0
7, 1817400, Note_on_c, 5, 53, 100
7, 1817520, Note_on_c, 5, 53, 0
7, 1817520, Note_on_c, 5, 55, 100
7, 1818120, Note_on_c, 5, 55, 0
7, 1818120, Note_on_c, 5, 53, 100
7, 1818240, Note_on_c, 5, 53, 0
7, 1818240, Note_on_c, 5, 51, 100
7, 1818360, Note_on_c, 5, 51, 0
7, 1818360, Note_on_c, 5, 50, 100
7, 1818480, Note_on_c, 5, 50, 0
7, 1818480, Note_on_c, 5, 51, 100
7, 1818600, Note_on_c, 5, 51, 0
7, 1818600, Note_on_c, 5, 43, 100
7, 1818720, Note_on_c, 5, 43, 0
7, 1818720, Note_on_c, 5, 44, 100
7, 1818840, Note_on_c, 5, 44, 0
7, 1818840, Note_on_c, 5, 46, 100
7, 1818960, Note_on_c, 5, 46, 0
7, 1818960, Note_on_c, 5, 39, 100
7, 1819080, Note_on_c, 5, 39, 0
7, 1819080, Note_on_c, 5, 43, 100
7, 1819200, Note_on_c, 5, 43, 0
7, 1819200, Note_on_c, 5, 45, 100
7, 1819320, Note_on_c, 5, 45, 0
7, 1819320, Note_on_c, 5, 47, 100
7, 1819440, Note_on_c, 5, 47, 0
7, 1819440, Note_on_c, 5, 48, 100
7, 1819920, Note_on_c, 5, 48, 0
7, 1820160, Note_on_c, 5, 48, 100
7, 1820400, Note_on_c, 5, 48, 0
7, 1820400, Note_on_c, 5, 46, 100
7, 1820880, Note_on_c, 5, 46, 0
7, 1821120, Note_on_c, 5, 46, 100
7, 1821360, Note_on_c, 5, 46, 0
7, 1821360, Note_on_c, 5, 45, 100
7, 1821480, Note_on_c, 5, 45, 0
7, 1821480, Note_on_c, 5, 43, 100
7, 1821600, Note_on_c, 5, 43, 0
7, 1821600, Note_on_c, 5, 45, 100
7, 1821720, Note_on_c, 5, 45, 0
7, 1821720, Note_on_c, 5, 46, 100
7, 1821840, Note_on_c, 5, 46, 0
7, 1821840, Note_on_c, 5, 45, 100
7, 1821960, Note_on_c, 5, 45, 0
7, 1821960, Note_on_c, 5, 43, 100
7, 1822080, Note_on_c, 5, 43, 0
7, 1822080, Note_on_c, 5, 42, 100
7, 1822200, Note_on_c, 5, 42, 0
7, 1822200, Note_on_c, 5, 40, 100
7, 1822320, Note_on_c, 5, 40, 0
7, 1822320, Note_on_c, 5, 38, 100
7, 1822440, Note_on_c, 5, 38, 0
7, 1822440, Note_on_c, 5, 48, 100
7, 1822560, Note_on_c, 5, 48, 0
7, 1822560, Note_on_c, 5, 50, 100
7, 1822680, Note_on_c, 5, 50, 0
7, 1822680, Note_on_c, 5, 51, 100
7, 1822800, Note_on_c, 5, 51, 0
7, 1822800, Note_on_c, 5, 50, 100
7, 1822920, Note_on_c, 5, 50, 0
7, 1822920, Note_on_c, 5, 48, 100
7, 1823040, Note_on_c, 5, 48, 0
7, 1823040, Note_on_c, 5, 46, 100
7, 1823160, Note_on_c, 5, 46, 0
7, 1823160, Note_on_c, 5, 45, 100
7, 1823280, Note_on_c, 5, 45, 0
7, 1823280, Note_on_c, 5, 43, 100
7, 1823400, Note_on_c, 5, 43, 0
7, 1823400, Note_on_c, 5, 53, 100
7, 1823520, Note_on_c, 5, 53, 0
7, 1823520, Note_on_c, 5, 55, 100
7, 1823640, Note_on_c, 5, 55, 0
7, 1823640, Note_on_c, 5, 56, 100
7, 1823760, Note_on_c, 5, 56, 0
7, 1823760, Note_on_c, 5, 55, 100
7, 1823880, Note_on_c, 5, 55, 0
7, 1823880, Note_on_c, 5, 53, 100
7, 1824000, Note_on_c, 5, 53, 0
7, 1824000, Note_on_c, 5, 51, 100
7, 1824120, Note_on_c, 5, 51, 0
7, 1824120, Note_on_c, 5, 50, 100
7, 1824240, Note_on_c, 5, 50, 0
7, 1824240, Note_on_c, 5, 48, 100
7, 1824360, Note_on_c, 5, 48, 0
7, 1824360, Note_on_c, 5, 47, 100
7, 1824480, Note_on_c, 5, 47, 0
7, 1824480, Note_on_c, 5, 48, 100
7, 1824600, Note_on_c, 5, 48, 0
7, 1824600, Note_on_c, 5, 49, 100
7, 1824720, Note_on_c, 5, 49, 0
7, 1824720, Note_on_c, 5, 50, 100
7, 1824840, Note_on_c, 5, 50, 0
7, 1824840, Note_on_c, 5, 51, 100
7, 1824960, Note_on_c, 5, 51, 0
7, 1824960, Note_on_c, 5, 50, 100
7, 1825080, Note_on_c, 5, 50, 0
7, 1825080, Note_on_c, 5, 48, 100
7, 1825200, Note_on_c, 5, 48, 0
7, 1825200, Note_on_c, 5, 46, 100
7, 1825320, Note_on_c, 5, 46, 0
7, 1825320, Note_on_c, 5, 45, 100
7, 1825440, Note_on_c, 5, 45, 0
7, 1825440, Note_on_c, 5, 46, 100
7, 1825560, Note_on_c, 5, 46, 0
7, 1825560, Note_on_c, 5, 47, 100
7, 1825680, Note_on_c, 5, 47, 0
7, 1825680, Note_on_c, 5, 48, 100
7, 1825920, Note_on_c, 5, 48, 0
7, 1825920, Note_on_c, 5, 50, 100
7, 1826160, Note_on_c, 5, 50, 0
7, 1826160, Note_on_c, 5, 43, 100
7, 1826280, Note_on_c, 5, 43, 0
7, 1826280, Note_on_c, 5, 50, 100
7, 1826400, Note_on_c, 5, 50, 0
7, 1826400, Note_on_c, 5, 46, 100
7, 1826520, Note_on_c, 5, 46, 0
7, 1826520, Note_on_c, 5, 50, 100
7, 1826640, Note_on_c, 5, 50, 0
7, 1826640, Note_on_c, 5, 55, 100
7, 1826760, Note_on_c, 5, 55, 0
7, 1826760, Note_on_c, 5, 50, 100
7, 1826880, Note_on_c, 5, 50, 0
7, 1826880, Note_on_c, 5, 46, 100
7, 1827000, Note_on_c, 5, 46, 0
7, 1827000, Note_on_c, 5, 43, 100
7, 1827120, Note_on_c, 5, 43, 0
7, 1827120, Note_on_c, 5, 50, 100
7, 1827360, Note_on_c, 5, 50, 0
7, 1827360, Note_on_c, 5, 62, 100
7, 1827840, Note_on_c, 5, 62, 0
7, 1827840, Note_on_c, 5, 60, 100
7, 1828080, Note_on_c, 5, 60, 0
7, 1828080, Note_on_c, 5, 59, 100
7, 1828320, Note_on_c, 5, 59, 0
7, 1828320, Note_on_c, 5, 58, 100
7, 1828800, Note_on_c, 5, 58, 0
7, 1828800, Note_on_c, 5, 57, 100
7, 1828920, Note_on_c, 5, 57, 0
7, 1828920, Note_on_c, 5, 55, 100
7, 1829040, Note_on_c, 5, 55, 0
7, 1829040, Note_on_c, 5, 57, 100
7, 1829280, Note_on_c, 5, 57, 0
7, 1829280, Note_on_c, 5, 56, 100
7, 1829760, Note_on_c, 5, 56, 0
7, 1829760, Note_on_c, 5, 55, 100
7, 1830000, Note_on_c, 5, 55, 0
7, 1830000, Note_on_c, 5, 50, 100
7, 1830240, Note_on_c, 5, 50, 0
7, 1830240, Note_on_c, 5, 51, 100
7, 1830480, Note_on_c, 5, 51, 0
7, 1830480, Note_on_c, 5, 53, 100
7, 1830720, Note_on_c, 5, 53, 0
7, 1830720, Note_on_c, 5, 46, 100
7, 1830960, Note_on_c, 5, 46, 0
7, 1830960, Note_on_c, 5, 51, 100
7, 1831200, Note_on_c, 5, 51, 0
7, 1831680, Note_on_c, 5, 51, 100
7, 1831920, Note_on_c, 5, 51, 0
7, 1831920, Note_on_c, 5, 56, 100
7, 1832640, Note_on_c, 5, 56, 0
7, 1832640, Note_on_c, 5, 55, 100
7, 1832760, Note_on_c, 5, 55, 0
7, 1832760, Note_on_c, 5, 53, 100
7, 1832880, Note_on_c, 5, 53, 0
7, 1832880, Note_on_c, 5, 55, 100
7, 1833480, Note_on_c, 5, 55, 0
7, 1833480, Note_on_c, 5, 53, 100
7, 1833600, Note_on_c, 5, 53, 0
7, 1833600, Note_on_c, 5, 51, 100
7, 1833720, Note_on_c, 5, 51, 0
7, 1833720, Note_on_c, 5, 50, 100
7, 1833840, Note_on_c, 5, 50, 0
7, 1833840, Note_on_c, 5, 51, 100
7, 1833960, Note_on_c, 5, 51, 0
7, 1833960, Note_on_c, 5, 43, 100
7, 1834080, Note_on_c, 5, 43, 0
7, 1834080, Note_on_c, 5, 44, 100
7, 1834200, Note_on_c, 5, 44, 0
7, 1834200, Note_on_c, 5, 46, 100
7, 1834320, Note_on_c, 5, 46, 0
7, 1834320, Note_on_c, 5, 39, 100
7, 1834440, Note_on_c, 5, 39, 0
7, 1834440, Note_on_c, 5, 43, 100
7, 1834560, Note_on_c, 5, 43, 0
7, 1834560, Note_on_c, 5, 45, 100
7, 1834680, Note_on_c, 5, 45, 0
7, 1834680, Note_on_c, 5, 47, 100
7, 1834800, Note_on_c, 5, 47, 0
7, 1834800, Note_on_c, 5, 48, 100
7, 1835280, Note_on_c, 5, 48, 0
7, 1835520, Note_on_c, 5, 48, 100
7, 1835760, Note_on_c, 5, 48, 0
7, 1835760, Note_on_c, 5, 46, 100
7, 1836240, Note_on_c, 5, 46, 0
7, 1836480, Note_on_c, 5, 46, 100
7, 1836720, Note_on_c, 5, 46, 0
7, 1836720, Note_on_c, 5, 45, 100
7, 1836840, Note_on_c, 5, 45, 0
7, 1836840, Note_on_c, 5, 43, 100
7, 1836960, Note_on_c, 5, 43, 0
7, 1836960, Note_on_c, 5, 45, 100
7, 1837080, Note_on_c, 5, 45, 0
7, 1837080, Note_on_c, 5, 46, 100
7, 1837200, Note_on_c, 5, 46, 0
7, 1837200, Note_on_c, 5, 45, 100
7, 1837320, Note_on_c, 5, 45, 0
7, 1837320, Note_on_c, 5, 43, 100
7, 1837440, Note_on_c, 5, 43, 0
7, 1837440, Note_on_c, 5, 42, 100
7, 1837560, Note_on_c, 5, 42, 0
7, 1837560, Note_on_c, 5, 40, 100
7, 1837680, Note_on_c, 5, 40, 0
7, 1837680, Note_on_c, 5, 38, 100
7, 1837800, Note_on_c, 5, 38, 0
7, 1837800, Note_on_c, 5, 48, 100
7, 1837920, Note_on_c, 5, 48, 0
7, 1837920, Note_on_c, 5, 50, 100
7, 1838040, Note_on_c, 5, 50, 0
7, 1838040, Note_on_c, 5, 51, 100
7, 1838160, Note_on_c, 5, 51, 0
7, 1838160, Note_on_c, 5, 50, 100
7, 1838280, Note_on_c, 5, 50, 0
7, 1838280, Note_on_c, 5, 48, 100
7, 1838400, Note_on_c, 5, 48, 0
7, 1838400, Note_on_c, 5, 46, 100
7, 1838520, Note_on_c, 5, 46, 0
7, 1838520, Note_on_c, 5, 45, 100
7, 1838640, Note_on_c, 5, 45, 0
7, 1838640, Note_on_c, 5, 43, 100
7, 1838760, Note_on_c, 5, 43, 0
7, 1838760, Note_on_c, 5, 53, 100
7, 1838880, Note_on_c, 5, 53, 0
7, 1838880, Note_on_c, 5, 55, 100
7, 1839000, Note_on_c, 5, 55, 0
7, 1839000, Note_on_c, 5, 56, 100
7, 1839120, Note_on_c, 5, 56, 0
7, 1839120, Note_on_c, 5, 55, 100
7, 1839240, Note_on_c, 5, 55, 0
7, 1839240, Note_on_c, 5, 53, 100
7, 1839360, Note_on_c, 5, 53, 0
7, 1839360, Note_on_c, 5, 51, 100
7, 1839480, Note_on_c, 5, 51, 0
7, 1839480, Note_on_c, 5, 50, 100
7, 1839600, Note_on_c, 5, 50, 0
7, 1839600, Note_on_c, 5, 48, 100
7, 1839720, Note_on_c, 5, 48, 0
7, 1839720, Note_on_c, 5, 47, 100
7, 1839840, Note_on_c, 5, 47, 0
7, 1839840, Note_on_c, 5, 48, 100
7, 1839960, Note_on_c, 5, 48, 0
7, 1839960, Note_on_c, 5, 49, 100
7, 1840080, Note_on_c, 5, 49, 0
7, 1840080, Note_on_c, 5, 50, 100
7, 1840200, Note_on_c, 5, 50, 0
7, 1840200, Note_on_c, 5, 51, 100
7, 1840320, Note_on_c, 5, 51, 0
7, 1840320, Note_on_c, 5, 50, 100
7, 1840440, Note_on_c, 5, 50, 0
7, 1840440, Note_on_c, 5, 48, 100
7, 1840560, Note_on_c, 5, 48, 0
7, 1840560, Note_on_c, 5, 46, 100
7, 1840680, Note_on_c, 5, 46, 0
7, 1840680, Note_on_c, 5, 45, 100
7, 1840800, Note_on_c, 5, 45, 0
7, 1840800, Note_on_c, 5, 46, 100
7, 1840920, Note_on_c, 5, 46, 0
7, 1840920, Note_on_c, 5, 47, 100
7, 1841040, Note_on_c, 5, 47, 0
7, 1841040, Note_on_c, 5, 48, 100
7, 1841280, Note_on_c, 5, 48, 0
7, 1841280, Note_on_c, 5, 50, 100
7, 1841520, Note_on_c, 5, 50, 0
7, 1841520, Note_on_c, 5, 43, 100
7, 1841640, Note_on_c, 5, 43, 0
7, 1841640, Note_on_c, 5, 50, 100
7, 1841760, Note_on_c, 5, 50, 0
7, 1841760, Note_on_c, 5, 46, 100
7, 1841880, Note_on_c, 5, 46, 0
7, 1841880, Note_on_c, 5, 50, 100
7, 1842000, Note_on_c, 5, 50, 0
7, 1842000, Note_on_c, 5, 55, 100
7, 1842120, Note_on_c, 5, 55, 0
7, 1842120, Note_on_c, 5, 50, 100
7, 1842240, Note_on_c, 5, 50, 0
7, 1842240, Note_on_c, 5, 46, 100
7, 1842360, Note_on_c, 5, 46, 0
7, 1842360, Note_on_c, 5, 43, 100
7, 1842480, Note_on_c, 5, 43, 0
7, 2057520, Note_on_c, 5, 55, 100
7, 2058240, Note_on_c, 5, 55, 0
7, 2058720, Note_on_c, 5, 54, 100
7, 2058960, Note_on_c, 5, 54, 0
7, 2058960, Note_on_c, 5, 55, 100
7, 2059440, Note_on_c, 5, 55, 0
7, 2059440, Note_on_c, 5, 52, 100
7, 2059680, Note_on_c, 5, 52, 0
7, 2059680, Note_on_c, 5, 54, 100
7, 2060400, Note_on_c, 5, 54, 0
7, 2060880, Note_on_c, 5, 57, 100
7, 2061120, Note_on_c, 5, 57, 0
7, 2061120, Note_on_c, 5, 50, 100
7, 2061600, Note_on_c, 5, 50, 0
7, 2061600, Note_on_c, 5, 54, 100
7, 2061840, Note_on_c, 5, 54, 0
7, 2061840, Note_on_c, 5, 52, 100
7, 2063760, Note_on_c, 5, 52, 0
7, 2063760, Note_on_c, 5, 57, 100
7, 2064000, Note_on_c, 5, 57, 0
7, 2064000, Note_on_c, 5, 50, 100
7, 2064720, Note_on_c, 5, 50, 0
7, 2065920, Note_on_c, 5, 60, 100
7, 2066160, Note_on_c, 5, 60, 0
7, 2066160, Note_on_c, 5, 59, 100
7, 2066880, Note_on_c, 5, 59, 0
7, 2067360, Note_on_c, 5, 62, 100
7, 2067600, Note_on_c, 5, 62, 0
7, 2067600, Note_on_c, 5, 55, 100
7, 2068080, Note_on_c, 5, 55, 0
7, 2068080, Note_on_c, 5, 59, 100
7, 2068320, Note_on_c, 5, 59, 0
7, 2068320, Note_on_c, 5, 64, 100
7, 2069040, Note_on_c, 5, 64, 0
7, 2069520, Note_on_c, 5, 57, 100
7, 2069760, Note_on_c, 5, 57, 0
7, 2069760, Note_on_c, 5, 59, 100
7, 2070000, Note_on_c, 5, 59, 0
7, 2070000, Note_on_c, 5, 57, 100
7, 2070240, Note_on_c, 5, 57, 0
7, 2070240, Note_on_c, 5, 59, 100
7, 2070480, Note_on_c, 5, 59, 0
7, 2070480, Note_on_c, 5, 60, 100
7, 2070720, Note_on_c, 5, 60, 0
7, 2070720, Note_on_c, 5, 59, 100
7, 2070960, Note_on_c, 5, 59, 0
7, 2070960, Note_on_c, 5, 57, 100
7, 2071200, Note_on_c, 5, 57, 0
7, 2071200, Note_on_c, 5, 59, 100
7, 2071440, Note_on_c, 5, 59, 0
7, 2071440, Note_on_c, 5, 62, 100
7, 2071680, Note_on_c, 5, 62, 0
7, 2071680, Note_on_c, 5, 60, 100
7, 2071920, Note_on_c, 5, 60, 0
7, 2071920, Note_on_c, 5, 62, 100
7, 2072400, Note_on_c, 5, 62, 0
7, 2072400, Note_on_c, 5, 50, 100
7, 2072640, Note_on_c, 5, 50, 0
7, 2072640, Note_on_c, 5, 55, 100
7, 2073120, Note_on_c, 5, 55, 0
7, 2073120, Note_on_c, 5, 43, 100
7, 2073360, Note_on_c, 5, 43, 0
7, 2073360, Note_on_c, 5, 43, 100
7, 2073840, Note_on_c, 5, 43, 0
7, 2073840, Note_on_c, 5, 55, 100
7, 2074080, Note_on_c, 5, 55, 0
7, 2074080, Note_on_c, 5, 55, 100
7, 2074320, Note_on_c, 5, 55, 0
7, 2074320, Note_on_c, 5, 54, 100
7, 2074440, Note_on_c, 5, 54, 0
7, 2074440, Note_on_c, 5, 52, 100
7, 2074560, Note_on_c, 5, 52, 0
7, 2074560, Note_on_c, 5, 50, 100
7, 2074680, Note_on_c, 5, 50, 0
7, 2074680, Note_on_c, 5, 48, 100
7, 2074800, Note_on_c, 5, 48, 0
7, 2074800, Note_on_c, 5, 47, 100
7, 2075040, Note_on_c, 5, 47, 0
7, 2075040, Note_on_c, 5, 43, 100
7, 2075280, Note_on_c, 5, 43, 0
7, 2075280, Note_on_c, 5, 45, 100
7, 2075520, Note_on_c, 5, 45, 0
7, 2075520, Note_on_c, 5, 47, 100
7, 2075760, Note_on_c, 5, 47, 0
7, 2075760, Note_on_c, 5, 48, 100
7, 2076000, Note_on_c, 5, 48, 0
7, 2076000, Note_on_c, 5, 50, 100
7, 2076240, Note_on_c, 5, 50, 0
7, 2076240, Note_on_c, 5, 43, 100
7, 2076720, Note_on_c, 5, 43, 0
7, 2076720, Note_on_c, 5, 55, 100
7, 2077200, Note_on_c, 5, 55, 0
7, 2077200, Note_on_c, 5, 54, 100
7, 2077440, Note_on_c, 5, 54, 0
7, 2077440, Note_on_c, 5, 52, 100
7, 2077680, Note_on_c, 5, 52, 0
7, 2077680, Note_on_c, 5, 57, 100
7, 2078160, Note_on_c, 5, 57, 0
7, 2078160, Note_on_c, 5, 55, 100
7, 2078400, Note_on_c, 5, 55, 0
7, 2078400, Note_on_c, 5, 54, 100
7, 2078640, Note_on_c, 5, 54, 0
7, 2078640, Note_on_c, 5, 55, 100
7, 2078880, Note_on_c, 5, 55, 0
7, 2078880, Note_on_c, 5, 57, 100
7, 2079120, Note_on_c, 5, 57, 0
7, 2079120, Note_on_c, 5, 59, 100
7, 2080320, Note_on_c, 5, 59, 0
7, 2080320, Note_on_c, 5, 57, 100
7, 2080560, Note_on_c, 5, 57, 0
7, 2080560, Note_on_c, 5, 55, 100
7, 2081040, Note_on_c, 5, 55, 0
7, 2081040, Note_on_c, 5, 52, 100
7, 2081280, Note_on_c, 5, 52, 0
7, 2081280, Note_on_c, 5, 45, 100
7, 2081760, Note_on_c, 5, 45, 0
7, 2082480, Note_on_c, 5, 55, 100
7, 2082720, Note_on_c, 5, 55, 0
7, 2082720, Note_on_c, 5, 54, 100
7, 2083200, Note_on_c, 5, 54, 0
7, 2083200, Note_on_c, 5, 52, 100
7, 2083440, Note_on_c, 5, 52, 0
7, 2083440, Note_on_c, 5, 54, 100
7, 2083920, Note_on_c, 5, 54, 0
7, 2083920, Note_on_c, 5, 57, 100
7, 2084160, Note_on_c, 5, 57, 0
7, 2084160, Note_on_c, 5, 59, 100
7, 2084640, Note_on_c, 5, 59, 0
7, 2084640, Note_on_c, 5, 61, 100
7, 2084880, Note_on_c, 5, 61, 0
7, 2084880, Note_on_c, 5, 62, 100
7, 2085360, Note_on_c, 5, 62, 0
7, 2085360, Note_on_c, 5, 50, 100
7, 2085600, Note_on_c, 5, 50, 0
7, 2085600, Note_on_c, 5, 55, 100
7, 2086080, Note_on_c, 5, 55, 0
7, 2086080, Note_on_c, 5, 47, 100
7, 2086320, Note_on_c, 5, 47, 0
7, 2086320, Note_on_c, 5, 49, 100
7, 2086560, Note_on_c, 5, 49, 0
7, 2086560, Note_on_c, 5, 50, 100
7, 2086800, Note_on_c, 5, 50, 0
7, 2086800, Note_on_c, 5, 52, 100
7, 2087040, Note_on_c, 5, 52, 0
7, 2087040, Note_on_c, 5, 54, 100
7, 2087280, Note_on_c, 5, 54, 0
7, 2087280, Note_on_c, 5, 52, 100
7, 2087520, Note_on_c, 5, 52, 0
7, 2087520, Note_on_c, 5, 54, 100
7, 2087760, Note_on_c, 5, 54, 0
7, 2087760, Note_on_c, 5, 55, 100
7, 2088000, Note_on_c, 5, 55, 0
7, 2088000, Note_on_c, 5, 54, 100
7, 2088240, Note_on_c, 5, 54, 0
7, 2088240, Note_on_c, 5, 52, 100
7, 2088480, Note_on_c, 5, 52, 0
7, 2088480, Note_on_c, 5, 54, 100
7, 2088720, Note_on_c, 5, 54, 0
7, 2088720, Note_on_c, 5, 57, 100
7, 2088960, Note_on_c, 5, 57, 0
7, 2088960, Note_on_c, 5, 55, 100
7, 2089200, Note_on_c, 5, 55, 0
7, 2089200, Note_on_c, 5, 57, 100
7, 2089680, Note_on_c, 5, 57, 0
7, 2089680, Note_on_c, 5, 45, 100
7, 2089920, Note_on_c, 5, 45, 0
7, 2089920, Note_on_c, 5, 50, 100
7, 2090400, Note_on_c, 5, 50, 0
7, 2090400, Note_on_c, 5, 38, 100
7, 2090640, Note_on_c, 5, 38, 0
7, 2090640, Note_on_c, 5, 38, 100
7, 2091120, Note_on_c, 5, 38, 0
7, 2091120, Note_on_c, 5, 50, 100
7, 2091360, Note_on_c, 5, 50, 0
7, 2091360, Note_on_c, 5, 50, 100
7, 2092080, Note_on_c, 5, 50, 0
7, 2092080, Note_on_c, 5, 55, 100
7, 2092800, Note_on_c, 5, 55, 0
7, 2093280, Note_on_c, 5, 54, 100
7, 2093520, Note_on_c, 5, 54, 0
7, 2093520, Note_on_c, 5, 55, 100
7, 2094000, Note_on_c, 5, 55, 0
7, 2094000, Note_on_c, 5, 52, 100
7, 2094240, Note_on_c, 5, 52, 0
7, 2094240, Note_on_c, 5, 54, 100
7, 2094960, Note_on_c, 5, 54, 0
7, 2095440, Note_on_c, 5, 57, 100
7, 2095680, Note_on_c, 5, 57, 0
7, 2095680, Note_on_c, 5, 50, 100
7, 2096160, Note_on_c, 5, 50, 0
7, 2096160, Note_on_c, 5, 54, 100
7, 2096400, Note_on_c, 5, 54, 0
7, 2096400, Note_on_c, 5, 52, 100
7, 2098320, Note_on_c, 5, 52, 0
7, 2098320, Note_on_c, 5, 57, 100
7, 2098560, Note_on_c, 5, 57, 0
7, 2098560, Note_on_c, 5, 50, 100
7, 2099280, Note_on_c, 5, 50, 0
7, 2100480, Note_on_c, 5, 60, 100
7, 2100720, Note_on_c, 5, 60, 0
7, 2100720, Note_on_c, 5, 59, 100
7, 2101440, Note_on_c, 5, 59, 0
7, 2101920, Note_on_c, 5, 62, 100
7, 2102160, Note_on_c, 5, 62, 0
7, 2102160, Note_on_c, 5, 55, 100
7, 2102640, Note_on_c, 5, 55, 0
7, 2102640, Note_on_c, 5, 59, 100
7, 2102880, Note_on_c, 5, 59, 0
7, 2102880, Note_on_c, 5, 64, 100
7, 2103600, Note_on_c, 5, 64, 0
7, 2104080, Note_on_c, 5, 57, 100
7, 2104320, Note_on_c, 5, 57, 0
7, 2104320, Note_on_c, 5, 59, 100
7, 2104560, Note_on_c, 5, 59, 0
7, 2104560, Note_on_c, 5, 57, 100
7, 2104800, Note_on_c, 5, 57, 0
7, 2104800, Note_on_c, 5, 59, 100
7, 2105040, Note_on_c, 5, 59, 0
7, 2105040, Note_on_c, 5, 60, 100
7, 2105280, Note_on_c, 5, 60, 0
7, 2105280, Note_on_c, 5, 59, 100
7, 2105520, Note_on_c, 5, 59, 0
7, 2105520, Note_on_c, 5, 57, 100
7, 2105760, Note_on_c, 5, 57, 0
7, 2105760, Note_on_c, 5, 59, 100
7, 2106000, Note_on_c, 5, 59, 0
7, 2106000, Note_on_c, 5, 62, 100
7, 2106240, Note_on_c, 5, 62, 0
7, 2106240, Note_on_c, 5, 60, 100
7, 2106480, Note_on_c, 5, 60, 0
7, 2106480, Note_on_c, 5, 62, 100
7, 2106960, Note_on_c, 5, 62, 0
7, 2106960, Note_on_c, 5, 50, 100
7, 2107200, Note_on_c, 5, 50, 0
7, 2107200, Note_on_c, 5, 55, 100
7, 2107680, Note_on_c, 5, 55, 0
7, 2107680, Note_on_c, 5, 43, 100
7, 2107920, Note_on_c, 5, 43, 0
7, 2107920, Note_on_c, 5, 43, 100
7, 2108400, Note_on_c, 5, 43, 0
7, 2108400, Note_on_c, 5, 55, 100
7, 2108640, Note_on_c, 5, 55, 0
7, 2108640, Note_on_c, 5, 55, 100
7, 2108880, Note_on_c, 5, 55, 0
7, 2108880, Note_on_c, 5, 54, 100
7, 2109000, Note_on_c, 5, 54, 0
7, 2109000, Note_on_c, 5, 52, 100
7, 2109120, Note_on_c, 5, 52, 0
7, 2109120, Note_on_c, 5, 50, 100
7, 2109240, Note_on_c, 5, 50, 0
7, 2109240, Note_on_c, 5, 48, 100
7, 2109360, Note_on_c, 5, 48, 0
7, 2109360, Note_on_c, 5, 47, 100
7, 2109600, Note_on_c, 5, 47, 0
7, 2109600, Note_on_c, 5, 43, 100
7, 2109840, Note_on_c, 5, 43, 0
7, 2109840, Note_on_c, 5, 45, 100
7, 2110080, Note_on_c, 5, 45, 0
7, 2110080, Note_on_c, 5, 47, 100
7, 2110320, Note_on_c, 5, 47, 0
7, 2110320, Note_on_c, 5, 48, 100
7, 2110560, Note_on_c, 5, 48, 0
7, 2110560, Note_on_c, 5, 50, 100
7, 2110800, Note_on_c, 5, 50, 0
7, 2110800, Note_on_c, 5, 43, 100
7, 2111280, Note_on_c, 5, 43, 0
7, 2111280, Note_on_c, 5, 55, 100
7, 2111760, Note_on_c, 5, 55, 0
7, 2111760, Note_on_c, 5, 54, 100
7, 2112000, Note_on_c, 5, 54, 0
7, 2112000, Note_on_c, 5, 52, 100
7, 2112240, Note_on_c, 5, 52, 0
7, 2112240, Note_on_c, 5, 57, 100
7, 2112720, Note_on_c, 5, 57, 0
7, 2112720, Note_on_c, 5, 55, 100
7, 2112960, Note_on_c, 5, 55, 0
7, 2112960, Note_on_c, 5, 54, 100
7, 2113200, Note_on_c, 5, 54, 0
7, 2113200, Note_on_c, 5, 55, 100
7, 2113440, Note_on_c, 5, 55, 0
7, 2113440, Note_on_c, 5, 57, 100
7, 2113680, Note_on_c, 5, 57, 0
7, 2113680, Note_on_c, 5, 59, 100
7, 2114880, Note_on_c, 5, 59, 0
7, 2114880, Note_on_c, 5, 57, 100
7, 2115120, Note_on_c, 5, 57, 0
7, 2115120, Note_on_c, 5, 55, 100
7, 2115600, Note_on_c, 5, 55, 0
7, 2115600, Note_on_c, 5, 52, 100
7, 2115840, Note_on_c, 5, 52, 0
7, 2115840, Note_on_c, 5, 45, 100
7, 2116320, Note_on_c, 5, 45, 0
7, 2117040, Note_on_c, 5, 55, 100
7, 2117280, Note_on_c, 5, 55, 0
7, 2117280, Note_on_c, 5, 54, 100
7, 2117760, Note_on_c, 5, 54, 0
7, 2117760, Note_on_c, 5, 52, 100
7, 2118000, Note_on_c, 5, 52, 0
7, 2118000, Note_on_c, 5, 54, 100
7, 2118480, Note_on_c, 5, 54, 0
7, 2118480, Note_on_c, 5, 57, 100
7, 2118720, Note_on_c, 5, 57, 0
7, 2118720, Note_on_c, 5, 59, 100
7, 2119200, Note_on_c, 5, 59, 0
7, 2119200, Note_on_c, 5, 61, 100
7, 2119440, Note_on_c, 5, 61, 0
7, 2119440, Note_on_c, 5, 62, 100
7, 2119920, Note_on_c, 5, 62, 0
7, 2119920, Note_on_c, 5, 50, 100
7, 2120160, Note_on_c, 5, 50, 0
7, 2120160, Note_on_c, 5, 55, 100
7, 2120640, Note_on_c, 5, 55, 0
7, 2120640, Note_on_c, 5, 47, 100
7, 2120880, Note_on_c, 5, 47, 0
7, 2120880, Note_on_c, 5, 49, 100
7, 2121120, Note_on_c, 5, 49, 0
7, 2121120, Note_on_c, 5, 50, 100
7, 2121360, Note_on_c, 5, 50, 0
7, 2121360, Note_on_c, 5, 52, 100
7, 2121600, Note_on_c, 5, 52, 0
7, 2121600, Note_on_c, 5, 54, 100
7, 2121840, Note_on_c, 5, 54, 0
7, 2121840, Note_on_c, 5, 52, 100
7, 2122080, Note_on_c, 5, 52, 0
7, 2122080, Note_on_c, 5, 54, 100
7, 2122320, Note_on_c, 5, 54, 0
7, 2122320, Note_on_c, 5, 55, 100
7, 2122560, Note_on_c, 5, 55, 0
7, 2122560, Note_on_c, 5, 54, 100
7, 2122800, Note_on_c, 5, 54, 0
7, 2122800, Note_on_c, 5, 52, 100
7, 2123040, Note_on_c, 5, 52, 0
7, 2123040, Note_on_c, 5, 54, 100
7, 2123280, Note_on_c, 5, 54, 0
7, 2123280, Note_on_c, 5, 57, 100
7, 2123520, Note_on_c, 5, 57, 0
7, 2123520, Note_on_c, 5, 55, 100
7, 2123760, Note_on_c, 5, 55, 0
7, 2123760, Note_on_c, 5, 57, 100
7, 2124240, Note_on_c, 5, 57, 0
7, 2124240, Note_on_c, 5, 45, 100
7, 2124480, Note_on_c, 5, 45, 0
7, 2124480, Note_on_c, 5, 50, 100
7, 2124960, Note_on_c, 5, 50, 0
7, 2124960, Note_on_c, 5, 38, 100
7, 2125200, Note_on_c, 5, 38, 0
7, 2125200, Note_on_c, 5, 38, 100
7, 2125680, Note_on_c, 5, 38, 0
7, 2125680, Note_on_c, 5, 50, 100
7, 2125920, Note_on_c, 5, 50, 0
7, 2125920, Note_on_c, 5, 50, 100
7, 2126640, Note_on_c, 5, 50, 0
7, 2126640, Note_on_c, 5, 50, 100
7, 2126880, Note_on_c, 5, 50, 0
7, 2126880, Note_on_c, 5, 54, 100
7, 2127120, Note_on_c, 5, 54, 0
7, 2127120, Note_on_c, 5, 57, 100
7, 2127360, Note_on_c, 5, 57, 0
7, 2127360, Note_on_c, 5, 62, 100
7, 2127600, Note_on_c, 5, 62, 0
7, 2127600, Note_on_c, 5, 64, 100
7, 2127720, Note_on_c, 5, 64, 0
7, 2127720, Note_on_c, 5, 62, 100
7, 2127840, Note_on_c, 5, 62, 0
7, 2127840, Note_on_c, 5, 60, 100
7, 2127960, Note_on_c, 5, 60, 0
7, 2127960, Note_on_c, 5, 59, 100
7, 2128080, Note_on_c, 5, 59, 0
7, 2128080, Note_on_c, 5, 60, 100
7, 2128320, Note_on_c, 5, 60, 0
7, 2128320, Note_on_c, 5, 62, 100
7, 2128440, Note_on_c, 5, 62, 0
7, 2128440, Note_on_c, 5, 60, 100
7, 2128560, Note_on_c, 5, 60, 0
7, 2128560, Note_on_c, 5, 59, 100
7, 2128680, Note_on_c, 5, 59, 0
7, 2128680, Note_on_c, 5, 57, 100
7, 2128800, Note_on_c, 5, 57, 0
7, 2128800, Note_on_c, 5, 59, 100
7, 2129760, Note_on_c, 5, 59, 0
7, 2129760, Note_on_c, 5, 60, 100
7, 2130000, Note_on_c, 5, 60, 0
7, 2130000, Note_on_c, 5, 62, 100
7, 2130240, Note_on_c, 5, 62, 0
7, 2130240, Note_on_c, 5, 55, 100
7, 2130480, Note_on_c, 5, 55, 0
7, 2130480, Note_on_c, 5, 57, 100
7, 2130720, Note_on_c, 5, 57, 0
7, 2130720, Note_on_c, 5, 59, 100
7, 2130960, Note_on_c, 5, 59, 0
7, 2130960, Note_on_c, 5, 60, 100
7, 2131200, Note_on_c, 5, 60, 0
7, 2131680, Note_on_c, 5, 57, 100
7, 2131920, Note_on_c, 5, 57, 0
7, 2132400, Note_on_c, 5, 54, 100
7, 2132640, Note_on_c, 5, 54, 0
7, 2133120, Note_on_c, 5, 51, 100
7, 2133600, Note_on_c, 5, 51, 0
7, 2133600, Note_on_c, 5, 54, 100
7, 2133840, Note_on_c, 5, 54, 0
7, 2133840, Note_on_c, 5, 59, 100
7, 2134800, Note_on_c, 5, 59, 0
7, 2134800, Note_on_c, 5, 55, 100
7, 2135040, Note_on_c, 5, 55, 0
7, 2135040, Note_on_c, 5, 57, 100
7, 2135280, Note_on_c, 5, 57, 0
7, 2135280, Note_on_c, 5, 55, 100
7, 2135520, Note_on_c, 5, 55, 0
7, 2136000, Note_on_c, 5, 52, 100
7, 2136240, Note_on_c, 5, 52, 0
7, 2136720, Note_on_c, 5, 48, 100
7, 2136960, Note_on_c, 5, 48, 0
7, 2137440, Note_on_c, 5, 45, 100
7, 2137920, Note_on_c, 5, 45, 0
7, 2137920, Note_on_c, 5, 46, 100
7, 2138160, Note_on_c, 5, 46, 0
7, 2138160, Note_on_c, 5, 47, 100
7, 2138400, Note_on_c, 5, 47, 0
7, 2138400, Note_on_c, 5, 60, 100
7, 2138520, Note_on_c, 5, 60, 0
7, 2138520, Note_on_c, 5, 59, 100
7, 2138640, Note_on_c, 5, 59, 0
7, 2138640, Note_on_c, 5, 57, 100
7, 2138760, Note_on_c, 5, 57, 0
7, 2138760, Note_on_c, 5, 55, 100
7, 2138880, Note_on_c, 5, 55, 0
7, 2138880, Note_on_c, 5, 57, 100
7, 2139120, Note_on_c, 5, 57, 0
7, 2139120, Note_on_c, 5, 59, 100
7, 2139240, Note_on_c, 5, 59, 0
7, 2139240, Note_on_c, 5, 57, 100
7, 2139360, Note_on_c, 5, 57, 0
7, 2139360, Note_on_c, 5, 55, 100
7, 2139480, Note_on_c, 5, 55, 0
7, 2139480, Note_on_c, 5, 54, 100
7, 2139600, Note_on_c, 5, 54, 0
7, 2139600, Note_on_c, 5, 55, 100
7, 2139840, Note_on_c, 5, 55, 0
7, 2139840, Note_on_c, 5, 57, 100
7, 2139960, Note_on_c, 5, 57, 0
7, 2139960, Note_on_c, 5, 55, 100
7, 2140080, Note_on_c, 5, 55, 0
7, 2140080, Note_on_c, 5, 54, 100
7, 2140200, Note_on_c, 5, 54, 0
7, 2140200, Note_on_c, 5, 52, 100
7, 2140320, Note_on_c, 5, 52, 0
7, 2140320, Note_on_c, 5, 60, 100
7, 2140560, Note_on_c, 5, 60, 0
7, 2140560, Note_on_c, 5, 51, 100
7, 2140800, Note_on_c, 5, 51, 0
7, 2140800, Note_on_c, 5, 52, 100
7, 2141040, Note_on_c, 5, 52, 0
7, 2141040, Note_on_c, 5, 47, 100
7, 2141280, Note_on_c, 5, 47, 0
7, 2141280, Note_on_c, 5, 52, 100
7, 2141520, Note_on_c, 5, 52, 0
7, 2141520, Note_on_c, 5, 51, 100
7, 2141760, Note_on_c, 5, 51, 0
7, 2141760, Note_on_c, 5, 52, 100
7, 2141820, Note_on_c, 5, 52, 0
7, 2141820, Note_on_c, 5, 50, 100
7, 2141880, Note_on_c, 5, 50, 0
7, 2141880, Note_on_c, 5, 52, 100
7, 2142720, Note_on_c, 5, 52, 0
7, 2142720, Note_on_c, 5, 55, 100
7, 2142960, Note_on_c, 5, 55, 0
7, 2142960, Note_on_c, 5, 59, 100
7, 2143200, Note_on_c, 5, 59, 0
7, 2143200, Note_on_c, 5, 64, 100
7, 2143680, Note_on_c, 5, 64, 0
7, 2143680, Note_on_c, 5, 62, 100
7, 2143920, Note_on_c, 5, 62, 0
7, 2143920, Note_on_c, 5, 60, 100
7, 2144880, Note_on_c, 5, 60, 0
7, 2144880, Note_on_c, 5, 59, 100
7, 2145120, Note_on_c, 5, 59, 0
7, 2145120, Note_on_c, 5, 60, 100
7, 2145360, Note_on_c, 5, 60, 0
7, 2145360, Note_on_c, 5, 54, 100
7, 2145600, Note_on_c, 5, 54, 0
7, 2145600, Note_on_c, 5, 55, 100
7, 2145840, Note_on_c, 5, 55, 0
7, 2145840, Note_on_c, 5, 57, 100
7, 2146080, Note_on_c, 5, 57, 0
7, 2146080, Note_on_c, 5, 59, 100
7, 2146320, Note_on_c, 5, 59, 0
7, 2146320, Note_on_c, 5, 50, 100
7, 2146560, Note_on_c, 5, 50, 0
7, 2146560, Note_on_c, 5, 54, 100
7, 2146800, Note_on_c, 5, 54, 0
7, 2146800, Note_on_c, 5, 47, 100
7, 2147040, Note_on_c, 5, 47, 0
7, 2147040, Note_on_c, 5, 48, 100
7, 2147280, Note_on_c, 5, 48, 0
7, 2147280, Note_on_c, 5, 50, 100
7, 2147520, Note_on_c, 5, 50, 0
7, 2147520, Note_on_c, 5, 43, 100
7, 2147760, Note_on_c, 5, 43, 0
7, 2147760, Note_on_c, 5, 45, 100
7, 2148000, Note_on_c, 5, 45, 0
7, 2148000, Note_on_c, 5, 47, 100
7, 2148240, Note_on_c, 5, 47, 0
7, 2148240, Note_on_c, 5, 48, 100
7, 2148960, Note_on_c, 5, 48, 0
7, 2148960, Note_on_c, 5, 48, 100
7, 2149680, Note_on_c, 5, 48, 0
7, 2149680, Note_on_c, 5, 48, 100
7, 2150640, Note_on_c, 5, 48, 0
7, 2150640, Note_on_c, 5, 50, 100
7, 2150760, Note_on_c, 5, 50, 0
7, 2150760, Note_on_c, 5, 48, 100
7, 2150880, Note_on_c, 5, 48, 0
7, 2150880, Note_on_c, 5, 47, 100
7, 2151000, Note_on_c, 5, 47, 0
7, 2151000, Note_on_c, 5, 45, 100
7, 2151120, Note_on_c, 5, 45, 0
7, 2151120, Note_on_c, 5, 47, 100
7, 2151360, Note_on_c, 5, 47, 0
7, 2151360, Note_on_c, 5, 48, 100
7, 2151600, Note_on_c, 5, 48, 0
7, 2151600, Note_on_c, 5, 50, 100
7, 2151840, Note_on_c, 5, 50, 0
7, 2151840, Note_on_c, 5, 43, 100
7, 2152080, Note_on_c, 5, 43, 0
7, 2152080, Note_on_c, 5, 45, 100
7, 2152320, Note_on_c, 5, 45, 0
7, 2152320, Note_on_c, 5, 47, 100
7, 2152560, Note_on_c, 5, 47, 0
7, 2152560, Note_on_c, 5, 40, 100
7, 2152800, Note_on_c, 5, 40, 0
7, 2153280, Note_on_c, 5, 52, 100
7, 2153520, Note_on_c, 5, 52, 0
7, 2154000, Note_on_c, 5, 45, 100
7, 2154240, Note_on_c, 5, 45, 0
7, 2154720, Note_on_c, 5, 43, 100
7, 2154960, Note_on_c, 5, 43, 0
7, 2154960, Note_on_c, 5, 45, 100
7, 2155200, Note_on_c, 5, 45, 0
7, 2155200, Note_on_c, 5, 47, 100
7, 2155440, Note_on_c, 5, 47, 0
7, 2155440, Note_on_c, 5, 48, 100
7, 2155680, Note_on_c, 5, 48, 0
7, 2155680, Note_on_c, 5, 47, 100
7, 2155920, Note_on_c, 5, 47, 0
7, 2155920, Note_on_c, 5, 45, 100
7, 2156160, Note_on_c, 5, 45, 0
7, 2156160, Note_on_c, 5, 47, 100
7, 2156400, Note_on_c, 5, 47, 0
7, 2156400, Note_on_c, 5, 43, 100
7, 2156640, Note_on_c, 5, 43, 0
7, 2156640, Note_on_c, 5, 45, 100
7, 2156880, Note_on_c, 5, 45, 0
7, 2156880, Note_on_c, 5, 47, 100
7, 2157840, Note_on_c, 5, 47, 0
7, 2157840, Note_on_c, 5, 45, 100
7, 2158080, Note_on_c, 5, 45, 0
7, 2158080, Note_on_c, 5, 43, 100
7, 2158320, Note_on_c, 5, 43, 0
7, 2158320, Note_on_c, 5, 50, 100
7, 2158800, Note_on_c, 5, 50, 0
7, 2158800, Note_on_c, 5, 38, 100
7, 2159040, Note_on_c, 5, 38, 0
7, 2159040, Note_on_c, 5, 43, 100
7, 2159520, Note_on_c, 5, 43, 0
7, 2159520, Note_on_c, 5, 31, 100
7, 2159760, Note_on_c, 5, 31, 0
7, 2159760, Note_on_c, 5, 31, 100
7, 2160240, Note_on_c, 5, 31, 0
7, 2160240, Note_on_c, 5, 43, 100
7, 2160480, Note_on_c, 5, 43, 0
7, 2160480, Note_on_c, 5, 43, 100
7, 2161200, Note_on_c, 5, 43, 0
7, 2161200, Note_on_c, 5, 50, 100
7, 2161440, Note_on_c, 5, 50, 0
7, 2161440, Note_on_c, 5, 54, 100
7, 2161680, Note_on_c, 5, 54, 0
7, 2161680, Note_on_c, 5, 57, 100
7, 2161920, Note_on_c, 5, 57, 0
7, 2161920, Note_on_c, 5, 62, 100
7, 2162160, Note_on_c, 5, 62, 0
7, 2162160, Note_on_c, 5, 64, 100
7, 2162280, Note_on_c, 5, 64, 0
7, 2162280, Note_on_c, 5, 62, 100
7, 2162400, Note_on_c, 5, 62, 0
7, 2162400, Note_on_c, 5, 60, 100
7, 2162520, Note_on_c, 5, 60, 0
7, 2162520, Note_on_c, 5, 59, 100
7, 2162640, Note_on_c, 5, 59, 0
7, 2162640, Note_on_c, 5, 60, 100
7, 2162880, Note_on_c, 5, 60, 0
7, 2162880, Note_on_c, 5, 62, 100
7, 2163000, Note_on_c, 5, 62, 0
7, 2163000, Note_on_c, 5, 60, 100
7, 2163120, Note_on_c, 5, 60, 0
7, 2163120, Note_on_c, 5, 59, 100
7, 2163240, Note_on_c, 5, 59, 0
7, 2163240, Note_on_c, 5, 57, 100
7, 2163360, Note_on_c, 5, 57, 0
7, 2163360, Note_on_c, 5, 59, 100
7, 2164320, Note_on_c, 5, 59, 0
7, 2164320, Note_on_c, 5, 60, 100
7, 2164560, Note_on_c, 5, 60, 0
7, 2164560, Note_on_c, 5, 62, 100
7, 2164800, Note_on_c, 5, 62, 0
7, 2164800, Note_on_c, 5, 55, 100
7, 2165040, Note_on_c, 5, 55, 0
7, 2165040, Note_on_c, 5, 57, 100
7, 2165280, Note_on_c, 5, 57, 0
7, 2165280, Note_on_c, 5, 59, 100
7, 2165520, Note_on_c, 5, 59, 0
7, 2165520, Note_on_c, 5, 60, 100
7, 2165760, Note_on_c, 5, 60, 0
7, 2166240, Note_on_c, 5, 57, 100
7, 2166480, Note_on_c, 5, 57, 0
7, 2166960, Note_on_c, 5, 54, 100
7, 2167200, Note_on_c, 5, 54, 0
7, 2167680, Note_on_c, 5, 51, 100
7, 2168160, Note_on_c, 5, 51, 0
7, 2168160, Note_on_c, 5, 54, 100
7, 2168400, Note_on_c, 5, 54, 0
7, 2168400, Note_on_c, 5, 59, 100
7, 2169360, Note_on_c, 5, 59, 0
7, 2169360, Note_on_c, 5, 55, 100
7, 2169600, Note_on_c, 5, 55, 0
7, 2169600, Note_on_c, 5, 57, 100
7, 2169840, Note_on_c, 5, 57, 0
7, 2169840, Note_on_c, 5, 55, 100
7, 2170080, Note_on_c, 5, 55, 0
7, 2170560, Note_on_c, 5, 52, 100
7, 2170800, Note_on_c, 5, 52, 0
7, 2171280, Note_on_c, 5, 48, 100
7, 2171520, Note_on_c, 5, 48, 0
7, 2172000, Note_on_c, 5, 45, 100
7, 2172480, Note_on_c, 5, 45, 0
7, 2172480, Note_on_c, 5, 46, 100
7, 2172720, Note_on_c, 5, 46, 0
7, 2172720, Note_on_c, 5, 47, 100
7, 2172960, Note_on_c, 5, 47, 0
7, 2172960, Note_on_c, 5, 60, 100
7, 2173080, Note_on_c, 5, 60, 0
7, 2173080, Note_on_c, 5, 59, 100
7, 2173200, Note_on_c, 5, 59, 0
7, 2173200, Note_on_c, 5, 57, 100
7, 2173320, Note_on_c, 5, 57, 0
7, 2173320, Note_on_c, 5, 55, 100
7, 2173440, Note_on_c, 5, 55, 0
7, 2173440, Note_on_c, 5, 57, 100
7, 2173680, Note_on_c, 5, 57, 0
7, 2173680, Note_on_c, 5, 59, 100
7, 2173800, Note_on_c, 5, 59, 0
7, 2173800, Note_on_c, 5, 57, 100
7, 2173920, Note_on_c, 5, 57, 0
7, 2173920, Note_on_c, 5, 55, 100
7, 2174040, Note_on_c, 5, 55, 0
7, 2174040, Note_on_c, 5, 54, 100
7, 2174160, Note_on_c, 5, 54, 0
7, 2174160, Note_on_c, 5, 55, 100
7, 2174400, Note_on_c, 5, 55, 0
7, 2174400, Note_on_c, 5, 57, 100
7, 2174520, Note_on_c, 5, 57, 0
7, 2174520, Note_on_c, 5, 55, 100
7, 2174640, Note_on_c, 5, 55, 0
7, 2174640, Note_on_c, 5, 54, 100
7, 2174760, Note_on_c, 5, 54, 0
7, 2174760, Note_on_c, 5, 52, 100
7, 2174880, Note_on_c, 5, 52, 0
7, 2174880, Note_on_c, 5, 60, 100
7, 2175120, Note_on_c, 5, 60, 0
7, 2175120, Note_on_c, 5, 51, 100
7, 2175360, Note_on_c, 5, 51, 0
7, 2175360, Note_on_c, 5, 52, 100
7, 2175600, Note_on_c, 5, 52, 0
7, 2175600, Note_on_c, 5, 47, 100
7, 2175840, Note_on_c, 5, 47, 0
7, 2175840, Note_on_c, 5, 52, 100
7, 2176080, Note_on_c, 5, 52, 0
7, 2176080, Note_on_c, 5, 51, 100
7, 2176320, Note_on_c, 5, 51, 0
7, 2176320, Note_on_c, 5, 52, 100
7, 2176380, Note_on_c, 5, 52, 0
7, 2176380, Note_on_c, 5, 50, 100
7, 2176440, Note_on_c, 5, 50, 0
7, 2176440, Note_on_c, 5, 52, 100
7, 2177280, Note_on_c, 5, 52, 0
7, 2177280, Note_on_c, 5, 55, 100
7, 2177520, Note_on_c, 5, 55, 0
7, 2177520, Note_on_c, 5, 59, 100
7, 2177760, Note_on_c, 5, 59, 0
7, 2177760, Note_on_c, 5, 64, 100
7, 2178240, Note_on_c, 5, 64, 0
7, 2178240, Note_on_c, 5, 62, 100
7, 2178480, Note_on_c, 5, 62, 0
7, 2178480, Note_on_c, 5, 60, 100
7, 2179440, Note_on_c, 5, 60, 0
7, 2179440, Note_on_c, 5, 59, 100
7, 2179680, Note_on_c, 5, 59, 0
7, 2179680, Note_on_c, 5, 60, 100
7, 2179920, Note_on_c, 5, 60, 0
7, 2179920, Note_on_c, 5, 54, 100
7, 2180160, Note_on_c, 5, 54, 0
7, 2180160, Note_on_c, 5, 55, 100
7, 2180400, Note_on_c, 5, 55, 0
7, 2180400, Note_on_c, 5, 57, 100
7, 2180640, Note_on_c, 5, 57, 0
7, 2180640, Note_on_c, 5, 59, 100
7, 2180880, Note_on_c, 5, 59, 0
7, 2180880, Note_on_c, 5, 50, 100
7, 2181120, Note_on_c, 5, 50, 0
7, 2181120, Note_on_c, 5, 54, 100
7, 2181360, Note_on_c, 5, 54, 0
7, 2181360, Note_on_c, 5, 47, 100
7, 2181600, Note_on_c, 5, 47, 0
7, 2181600, Note_on_c, 5, 48, 100
7, 2181840, Note_on_c, 5, 48, 0
7, 2181840, Note_on_c, 5, 50, 100
7, 2182080, Note_on_c, 5, 50, 0
7, 2182080, Note_on_c, 5, 43, 100
7, 2182320, Note_on_c, 5, 43, 0
7, 2182320, Note_on_c, 5, 45, 100
7, 2182560, Note_on_c, 5, 45, 0
7, 2182560, Note_on_c, 5, 47, 100
7, 2182800, Note_on_c, 5, 47, 0
7, 2182800, Note_on_c, 5, 48, 100
7, 2183520, Note_on_c, 5, 48, 0
7, 2183520, Note_on_c, 5, 48, 100
7, 2184240, Note_on_c, 5, 48, 0
7, 2184240, Note_on_c, 5, 48, 100
7, 2185200, Note_on_c, 5, 48, 0
7, 2185200, Note_on_c, 5, 50, 100
7, 2185320, Note_on_c, 5, 50, 0
7, 2185320, Note_on_c, 5, 48, 100
7, 2185440, Note_on_c, 5, 48, 0
7, 2185440, Note_on_c, 5, 47, 100
7, 2185560, Note_on_c, 5, 47, 0
7, 2185560, Note_on_c, 5, 45, 100
7, 2185680, Note_on_c, 5, 45, 0
7, 2185680, Note_on_c, 5, 47, 100
7, 2185920, Note_on_c, 5, 47, 0
7, 2185920, Note_on_c, 5, 48, 100
7, 2186160, Note_on_c, 5, 48, 0
7, 2186160, Note_on_c, 5, 50, 100
7, 2186400, Note_on_c, 5, 50, 0
7, 2186400, Note_on_c, 5, 43, 100
7, 2186640, Note_on_c, 5, 43, 0
7, 2186640, Note_on_c, 5, 45, 100
7, 2186880, Note_on_c, 5, 45, 0
7, 2186880, Note_on_c, 5, 47, 100
7, 2187120, Note_on_c, 5, 47, 0
7, 2187120, Note_on_c, 5, 40, 100
7, 2187360, Note_on_c, 5, 40, 0
7, 2187840, Note_on_c, 5, 52, 100
7, 2188080, Note_on_c, 5, 52, 0
7, 2188560, Note_on_c, 5, 45, 100
7, 2188800, Note_on_c, 5, 45, 0
7, 2189280, Note_on_c, 5, 43, 100
7, 2189520, Note_on_c, 5, 43, 0
7, 2189520, Note_on_c, 5, 45, 100
7, 2189760, Note_on_c, 5, 45, 0
7, 2189760, Note_on_c, 5, 47, 100
7, 2190000, Note_on_c, 5, 47, 0
7, 2190000, Note_on_c, 5, 48, 100
7, 2190240, Note_on_c, 5, 48, 0
7, 2190240, Note_on_c, 5, 47, 100
7, 2190480, Note_on_c, 5, 47, 0
7, 2190480, Note_on_c, 5, 45, 100
7, 2190720, Note_on_c, 5, 45, 0
7, 2190720, Note_on_c, 5, 47, 100
7, 2190960, Note_on_c, 5, 47, 0
7, 2190960, Note_on_c, 5, 43, 100
7, 2191200, Note_on_c, 5, 43, 0
7, 2191200, Note_on_c, 5, 45, 100
7, 2191440, Note_on_c, 5, 45, 0
7, 2191440, Note_on_c, 5, 47, 100
7, 2192400, Note_on_c, 5, 47, 0
7, 2192400, Note_on_c, 5, 45, 100
7, 2192640, Note_on_c, 5, 45, 0
7, 2192640, Note_on_c, 5, 43, 100
7, 2192880, Note_on_c, 5, 43, 0
7, 2192880, Note_on_c, 5, 50, 100
7, 2193360, Note_on_c, 5, 50, 0
7, 2193360, Note_on_c, 5, 38, 100
7, 2193600, Note_on_c, 5, 38, 0
7, 2193600, Note_on_c, 5, 43, 100
7, 2194080, Note_on_c, 5, 43, 0
7, 2194080, Note_on_c, 5, 31, 100
7, 2194320, Note_on_c, 5, 31, 0
7, 2194320, Note_on_c, 5, 31, 100
7, 2194800, Note_on_c, 5, 31, 0
7, 2194800, Note_on_c, 5, 43, 100
7, 2195040, Note_on_c, 5, 43, 0
7, 2195040, Note_on_c, 5, 43, 100
7, 2195760, Note_on_c, 5, 43, 0
7, 2195760, Note_on_c, 5, 55, 100
7, 2196240, Note_on_c, 5, 55, 0
7, 2196480, Note_on_c, 5, 55, 100
7, 2196720, Note_on_c, 5, 55, 0
7, 2196720, Note_on_c, 5, 55, 100
7, 2196960, Note_on_c, 5, 55, 0
7, 2196960, Note_on_c, 5, 55, 100
7, 2197200, Note_on_c, 5, 55, 0
7, 2197200, Note_on_c, 5, 55, 100
7, 2197440, Note_on_c, 5, 55, 0
7, 2197440, Note_on_c, 5, 54, 100
7, 2197680, Note_on_c, 5, 54, 0
7, 2197920, Note_on_c, 5, 53, 100
7, 2198160, Note_on_c, 5, 53, 0
7, 2198160, Note_on_c, 5, 53, 100
7, 2198400, Note_on_c, 5, 53, 0
7, 2198400, Note_on_c, 5, 53, 100
7, 2198640, Note_on_c, 5, 53, 0
7, 2198640, Note_on_c, 5, 53, 100
7, 2198880, Note_on_c, 5, 53, 0
7, 2198880, Note_on_c, 5, 52, 100
7, 2199120, Note_on_c, 5, 52, 0
7, 2199360, Note_on_c, 5, 51, 100
7, 2199600, Note_on_c, 5, 51, 0
7, 2199600, Note_on_c, 5, 51, 100
7, 2199840, Note_on_c, 5, 51, 0
7, 2199840, Note_on_c, 5, 51, 100
7, 2200080, Note_on_c, 5, 51, 0
7, 2200080, Note_on_c, 5, 50, 100
7, 2200560, Note_on_c, 5, 50, 0
7, 2200800, Note_on_c, 5, 51, 100
7, 2201040, Note_on_c, 5, 51, 0
7, 2201040, Note_on_c, 5, 50, 100
7, 2201280, Note_on_c, 5, 50, 0
7, 2201280, Note_on_c, 5, 48, 100
7, 2201520, Note_on_c, 5, 48, 0
7, 2201520, Note_on_c, 5, 46, 100
7, 2202000, Note_on_c, 5, 46, 0
7, 2202240, Note_on_c, 5, 46, 100
7, 2202480, Note_on_c, 5, 46, 0
7, 2202480, Note_on_c, 5, 47, 100
7, 2202720, Note_on_c, 5, 47, 0
7, 2202720, Note_on_c, 5, 47, 100
7, 2202960, Note_on_c, 5, 47, 0
7, 2202960, Note_on_c, 5, 47, 100
7, 2203200, Note_on_c, 5, 47, 0
7, 2203200, Note_on_c, 5, 48, 100
7, 2203440, Note_on_c, 5, 48, 0
7, 2203680, Note_on_c, 5, 48, 100
7, 2203920, Note_on_c, 5, 48, 0
7, 2203920, Note_on_c, 5, 49, 100
7, 2204160, Note_on_c, 5, 49, 0
7, 2204160, Note_on_c, 5, 49, 100
7, 2204400, Note_on_c, 5, 49, 0
7, 2204400, Note_on_c, 5, 49, 100
7, 2204640, Note_on_c, 5, 49, 0
7, 2204640, Note_on_c, 5, 50, 100
7, 2204880, Note_on_c, 5, 50, 0
7, 2205120, Note_on_c, 5, 50, 100
7, 2205360, Note_on_c, 5, 50, 0
7, 2205360, Note_on_c, 5, 50, 100
7, 2205600, Note_on_c, 5, 50, 0
7, 2205600, Note_on_c, 5, 50, 100
7, 2205840, Note_on_c, 5, 50, 0
7, 2205840, Note_on_c, 5, 43, 100
7, 2206320, Note_on_c, 5, 43, 0
7, 2206560, Note_on_c, 5, 43, 100
7, 2206800, Note_on_c, 5, 43, 0
7, 2206800, Note_on_c, 5, 46, 100
7, 2207040, Note_on_c, 5, 46, 0
7, 2207040, Note_on_c, 5, 50, 100
7, 2207280, Note_on_c, 5, 50, 0
7, 2207280, Note_on_c, 5, 55, 100
7, 2207640, Note_on_c, 5, 55, 0
7, 2207640, Note_on_c, 5, 62, 100
7, 2207760, Note_on_c, 5, 62, 0
7, 2207760, Note_on_c, 5, 67, 100
7, 2208000, Note_on_c, 5, 67, 0
7, 2208000, Note_on_c, 5, 65, 100
7, 2208240, Note_on_c, 5, 65, 0
7, 2208240, Note_on_c, 5, 63, 100
7, 2208480, Note_on_c, 5, 63, 0
7, 2208480, Note_on_c, 5, 62, 100
7, 2208720, Note_on_c, 5, 62, 0
7, 2208720, Note_on_c, 5, 61, 100
7, 2208960, Note_on_c, 5, 61, 0
7, 2208960, Note_on_c, 5, 57, 100
7, 2209200, Note_on_c, 5, 57, 0
7, 2209200, Note_on_c, 5, 62, 100
7, 2209440, Note_on_c, 5, 62, 0
7, 2209440, Note_on_c, 5, 60, 100
7, 2209680, Note_on_c, 5, 60, 0
7, 2209680, Note_on_c, 5, 58, 100
7, 2209920, Note_on_c, 5, 58, 0
7, 2209920, Note_on_c, 5, 57, 100
7, 2210160, Note_on_c, 5, 57, 0
7, 2210160, Note_on_c, 5, 55, 100
7, 2210400, Note_on_c, 5, 55, 0
7, 2210400, Note_on_c, 5, 60, 100
7, 2210640, Note_on_c, 5, 60, 0
7, 2210640, Note_on_c, 5, 53, 100
7, 2210880, Note_on_c, 5, 53, 0
7, 2210880, Note_on_c, 5, 54, 100
7, 2211120, Note_on_c, 5, 54, 0
7, 2211120, Note_on_c, 5, 55, 100
7, 2211360, Note_on_c, 5, 55, 0
7, 2211360, Note_on_c, 5, 56, 100
7, 2211600, Note_on_c, 5, 56, 0
7, 2211600, Note_on_c, 5, 57, 100
7, 2211840, Note_on_c, 5, 57, 0
7, 2211840, Note_on_c, 5, 58, 100
7, 2212080, Note_on_c, 5, 58, 0
7, 2212080, Note_on_c, 5, 57, 100
7, 2212320, Note_on_c, 5, 57, 0
7, 2212320, Note_on_c, 5, 55, 100
7, 2212560, Note_on_c, 5, 55, 0
7, 2212560, Note_on_c, 5, 53, 100
7, 2212800, Note_on_c, 5, 53, 0
7, 2212800, Note_on_c, 5, 52, 100
7, 2213040, Note_on_c, 5, 52, 0
7, 2213040, Note_on_c, 5, 53, 100
7, 2213520, Note_on_c, 5, 53, 0
7, 2213760, Note_on_c, 5, 54, 100
7, 2214000, Note_on_c, 5, 54, 0
7, 2214000, Note_on_c, 5, 54, 100
7, 2214240, Note_on_c, 5, 54, 0
7, 2214240, Note_on_c, 5, 55, 100
7, 2214480, Note_on_c, 5, 55, 0
7, 2214480, Note_on_c, 5, 55, 100
7, 2214960, Note_on_c, 5, 55, 0
7, 2215200, Note_on_c, 5, 56, 100
7, 2215440, Note_on_c, 5, 56, 0
7, 2215440, Note_on_c, 5, 56, 100
7, 2215680, Note_on_c, 5, 56, 0
7, 2215680, Note_on_c, 5, 57, 100
7, 2215920, Note_on_c, 5, 57, 0
7, 2215920, Note_on_c, 5, 57, 100
7, 2216400, Note_on_c, 5, 57, 0
7, 2216640, Note_on_c, 5, 57, 100
7, 2216880, Note_on_c, 5, 57, 0
7, 2216880, Note_on_c, 5, 61, 100
7, 2217120, Note_on_c, 5, 61, 0
7, 2217120, Note_on_c, 5, 57, 100
7, 2217360, Note_on_c, 5, 57, 0
7, 2217360, Note_on_c, 5, 62, 100
7, 2218080, Note_on_c, 5, 62, 0
7, 2218080, Note_on_c, 5, 60, 100
7, 2218320, Note_on_c, 5, 60, 0
7, 2218320, Note_on_c, 5, 58, 100
7, 2218560, Note_on_c, 5, 58, 0
7, 2218560, Note_on_c, 5, 57, 100
7, 2218800, Note_on_c, 5, 57, 0
7, 2218800, Note_on_c, 5, 55, 100
7, 2219280, Note_on_c, 5, 55, 0
7, 2219520, Note_on_c, 5, 55, 100
7, 2219760, Note_on_c, 5, 55, 0
7, 2219760, Note_on_c, 5, 55, 100
7, 2220000, Note_on_c, 5, 55, 0
7, 2220000, Note_on_c, 5, 55, 100
7, 2220240, Note_on_c, 5, 55, 0
7, 2220240, Note_on_c, 5, 55, 100
7, 2220480, Note_on_c, 5, 55, 0
7, 2220480, Note_on_c, 5, 54, 100
7, 2220720, Note_on_c, 5, 54, 0
7, 2220960, Note_on_c, 5, 53, 100
7, 2221200, Note_on_c, 5, 53, 0
7, 2221200, Note_on_c, 5, 53, 100
7, 2221440, Note_on_c, 5, 53, 0
7, 2221440, Note_on_c, 5, 53, 100
7, 2221680, Note_on_c, 5, 53, 0
7, 2221680, Note_on_c, 5, 53, 100
7, 2221920, Note_on_c, 5, 53, 0
7, 2221920, Note_on_c, 5, 52, 100
7, 2222160, Note_on_c, 5, 52, 0
7, 2222400, Note_on_c, 5, 51, 100
7, 2222640, Note_on_c, 5, 51, 0
7, 2222640, Note_on_c, 5, 51, 100
7, 2222880, Note_on_c, 5, 51, 0
7, 2222880, Note_on_c, 5, 51, 100
7, 2223120, Note_on_c, 5, 51, 0
7, 2223120, Note_on_c, 5, 50, 100
7, 2223600, Note_on_c, 5, 50, 0
7, 2223840, Note_on_c, 5, 51, 100
7, 2224080, Note_on_c, 5, 51, 0
7, 2224080, Note_on_c, 5, 50, 100
7, 2224320, Note_on_c, 5, 50, 0
7, 2224320, Note_on_c, 5, 48, 100
7, 2224560, Note_on_c, 5, 48, 0
7, 2224560, Note_on_c, 5, 46, 100
7, 2225040, Note_on_c, 5, 46, 0
7, 2225280, Note_on_c, 5, 46, 100
7, 2225520, Note_on_c, 5, 46, 0
7, 2225520, Note_on_c, 5, 47, 100
7, 2225760, Note_on_c, 5, 47, 0
7, 2225760, Note_on_c, 5, 47, 100
7, 2226000, Note_on_c, 5, 47, 0
7, 2226000, Note_on_c, 5, 47, 100
7, 2226240, Note_on_c, 5, 47, 0
7, 2226240, Note_on_c, 5, 48, 100
7, 2226480, Note_on_c, 5, 48, 0
7, 2226720, Note_on_c, 5, 48, 100
7, 2226960, Note_on_c, 5, 48, 0
7, 2226960, Note_on_c, 5, 49, 100
7, 2227200, Note_on_c, 5, 49, 0
7, 2227200, Note_on_c, 5, 49, 100
7, 2227440, Note_on_c, 5, 49, 0
7, 2227440, Note_on_c, 5, 49, 100
7, 2227680, Note_on_c, 5, 49, 0
7, 2227680, Note_on_c, 5, 50, 100
7, 2227920, Note_on_c, 5, 50, 0
7, 2228160, Note_on_c, 5, 50, 100
7, 2228400, Note_on_c, 5, 50, 0
7, 2228400, Note_on_c, 5, 50, 100
7, 2228640, Note_on_c, 5, 50, 0
7, 2228640, Note_on_c, 5, 50, 100
7, 2228880, Note_on_c, 5, 50, 0
7, 2228880, Note_on_c, 5, 43, 100
7, 2229360, Note_on_c, 5, 43, 0
7, 2229600, Note_on_c, 5, 43, 100
7, 2229840, Note_on_c, 5, 43, 0
7, 2229840, Note_on_c, 5, 46, 100
7, 2230080, Note_on_c, 5, 46, 0
7, 2230080, Note_on_c, 5, 50, 100
7, 2230320, Note_on_c, 5, 50, 0
7, 2230320, Note_on_c, 5, 55, 100
7, 2230680, Note_on_c, 5, 55, 0
7, 2230680, Note_on_c, 5, 62, 100
7, 2230800, Note_on_c, 5, 62, 0
7, 2230800, Note_on_c, 5, 67, 100
7, 2231040, Note_on_c, 5, 67, 0
7, 2231040, Note_on_c, 5, 65, 100
7, 2231280, Note_on_c, 5, 65, 0
7, 2231280, Note_on_c, 5, 63, 100
7, 2231520, Note_on_c, 5, 63, 0
7, 2231520, Note_on_c, 5, 62, 100
7, 2231760, Note_on_c, 5, 62, 0
7, 2231760, Note_on_c, 5, 61, 100
7, 2232000, Note_on_c, 5, 61, 0
7, 2232000, Note_on_c, 5, 57, 100
7, 2232240, Note_on_c, 5, 57, 0
7, 2232240, Note_on_c, 5, 62, 100
7, 2232480, Note_on_c, 5, 62, 0
7, 2232480, Note_on_c, 5, 60, 100
7, 2232720, Note_on_c, 5, 60, 0
7, 2232720, Note_on_c, 5, 58, 100
7, 2232960, Note_on_c, 5, 58, 0
7, 2232960, Note_on_c, 5, 57, 100
7, 2233200, Note_on_c, 5, 57, 0
7, 2233200, Note_on_c, 5, 55, 100
7, 2233440, Note_on_c, 5, 55, 0
7, 2233440, Note_on_c, 5, 60, 100
7, 2233680, Note_on_c, 5, 60, 0
7, 2233680, Note_on_c, 5, 53, 100
7, 2233920, Note_on_c, 5, 53, 0
7, 2233920, Note_on_c, 5, 54, 100
7, 2234160, Note_on_c, 5, 54, 0
7, 2234160, Note_on_c, 5, 55, 100
7, 2234400, Note_on_c, 5, 55, 0
7, 2234400, Note_on_c, 5, 56, 100
7, 2234640, Note_on_c, 5, 56, 0
7, 2234640, Note_on_c, 5, 57, 100
7, 2234880, Note_on_c, 5, 57, 0
7, 2234880, Note_on_c, 5, 58, 100
7, 2235120, Note_on_c, 5, 58, 0
7, 2235120, Note_on_c, 5, 57, 100
7, 2235360, Note_on_c, 5, 57, 0
7, 2235360, Note_on_c, 5, 55, 100
7, 2235600, Note_on_c, 5, 55, 0
7, 2235600, Note_on_c, 5, 53, 100
7, 2235840, Note_on_c, 5, 53, 0
7, 2235840, Note_on_c, 5, 52, 100
7, 2236080, Note_on_c, 5, 52, 0
7, 2236080, Note_on_c, 5, 53, 100
7, 2236560, Note_on_c, 5, 53, 0
7, 2236800, Note_on_c, 5, 54, 100
7, 2237040, Note_on_c, 5, 54, 0
7, 2237040, Note_on_c, 5, 54, 100
7, 2237280, Note_on_c, 5, 54, 0
7, 2237280, Note_on_c, 5, 55, 100
7, 2237520, Note_on_c, 5, 55, 0
7, 2237520, Note_on_c, 5, 55, 100
7, 2238000, Note_on_c, 5, 55, 0
7, 2238240, Note_on_c, 5, 56, 100
7, 2238480, Note_on_c, 5, 56, 0
7, 2238480, Note_on_c, 5, 56, 100
7, 2238720, Note_on_c, 5, 56, 0
7, 2238720, Note_on_c, 5, 57, 100
7, 2238960, Note_on_c, 5, 57, 0
7, 2238960, Note_on_c, 5, 57, 100
7, 2239440, Note_on_c, 5, 57, 0
7, 2239680, Note_on_c, 5, 57, 100
7, 2239920, Note_on_c, 5, 57, 0
7, 2239920, Note_on_c, 5, 61, 100
7, 2240160, Note_on_c, 5, 61, 0
7, 2240160, Note_on_c, 5, 57, 100
7, 2240400, Note_on_c, 5, 57, 0
7, 2240400, Note_on_c, 5, 62, 100
7, 2241120, Note_on_c, 5, 62, 0
7, 2241120, Note_on_c, 5, 57, 100
7, 2241360, Note_on_c, 5, 57, 0
7, 2241360, Note_on_c, 5, 50, 100
7, 2241840, Note_on_c, 5, 50, 0
7, 2241840, Note_on_c, 5, 62, 100
7, 2242320, Note_on_c, 5, 62, 0
7, 2242560, Note_on_c, 5, 60, 100
7, 2242800, Note_on_c, 5, 60, 0
7, 2242800, Note_on_c, 5, 60, 100
7, 2243040, Note_on_c, 5, 60, 0
7, 2243040, Note_on_c, 5, 58, 100
7, 2243280, Note_on_c, 5, 58, 0
7, 2243280, Note_on_c, 5, 58, 100
7, 2243520, Note_on_c, 5, 58, 0
7, 2243520, Note_on_c, 5, 55, 100
7, 2243640, Note_on_c, 5, 55, 0
7, 2243640, Note_on_c, 5, 57, 100
7, 2243760, Note_on_c, 5, 57, 0
7, 2243760, Note_on_c, 5, 58, 100
7, 2244000, Note_on_c, 5, 58, 0
7, 2244000, Note_on_c, 5, 59, 100
7, 2244240, Note_on_c, 5, 59, 0
7, 2244240, Note_on_c, 5, 59, 100
7, 2244480, Note_on_c, 5, 59, 0
7, 2244480, Note_on_c, 5, 60, 100
7, 2244720, Note_on_c, 5, 60, 0
7, 2244720, Note_on_c, 5, 60, 100
7, 2245200, Note_on_c, 5, 60, 0
7, 2245440, Note_on_c, 5, 55, 100
7, 2245680, Note_on_c, 5, 55, 0
7, 2245680, Note_on_c, 5, 56, 100
7, 2245920, Note_on_c, 5, 56, 0
7, 2245920, Note_on_c, 5, 57, 100
7, 2246160, Note_on_c, 5, 57, 0
7, 2246160, Note_on_c, 5, 58, 100
7, 2246640, Note_on_c, 5, 58, 0
7, 2246880, Note_on_c, 5, 59, 100
7, 2247120, Note_on_c, 5, 59, 0
7, 2247120, Note_on_c, 5, 58, 100
7, 2247360, Note_on_c, 5, 58, 0
7, 2247360, Note_on_c, 5, 56, 100
7, 2247600, Note_on_c, 5, 56, 0
7, 2247600, Note_on_c, 5, 54, 100
7, 2248080, Note_on_c, 5, 54, 0
7, 2248320, Note_on_c, 5, 55, 100
7, 2248560, Note_on_c, 5, 55, 0
7, 2248560, Note_on_c, 5, 55, 100
7, 2248800, Note_on_c, 5, 55, 0
7, 2248800, Note_on_c, 5, 56, 100
7, 2249040, Note_on_c, 5, 56, 0
7, 2249040, Note_on_c, 5, 56, 100
7, 2249520, Note_on_c, 5, 56, 0
7, 2249760, Note_on_c, 5, 57, 100
7, 2250000, Note_on_c, 5, 57, 0
7, 2250000, Note_on_c, 5, 57, 100
7, 2250240, Note_on_c, 5, 57, 0
7, 2250240, Note_on_c, 5, 58, 100
7, 2250480, Note_on_c, 5, 58, 0
7, 2250480, Note_on_c, 5, 58, 100
7, 2250960, Note_on_c, 5, 58, 0
7, 2251200, Note_on_c, 5, 58, 100
7, 2251440, Note_on_c, 5, 58, 0
7, 2251440, Note_on_c, 5, 62, 100
7, 2251680, Note_on_c, 5, 62, 0
7, 2251680, Note_on_c, 5, 58, 100
7, 2251920, Note_on_c, 5, 58, 0
7, 2251920, Note_on_c, 5, 63, 100
7, 2252400, Note_on_c, 5, 63, 0
7, 2252640, Note_on_c, 5, 65, 100
7, 2252880, Note_on_c, 5, 65, 0
7, 2252880, Note_on_c, 5, 63, 100
7, 2253120, Note_on_c, 5, 63, 0
7, 2253120, Note_on_c, 5, 62, 100
7, 2253360, Note_on_c, 5, 62, 0
7, 2253360, Note_on_c, 5, 60, 100
7, 2253840, Note_on_c, 5, 60, 0
7, 2254080, Note_on_c, 5, 60, 100
7, 2254320, Note_on_c, 5, 60, 0
7, 2254320, Note_on_c, 5, 60, 100
7, 2254560, Note_on_c, 5, 60, 0
7, 2254560, Note_on_c, 5, 60, 100
7, 2254800, Note_on_c, 5, 60, 0
7, 2254800, Note_on_c, 5, 60, 100
7, 2255040, Note_on_c, 5, 60, 0
7, 2255040, Note_on_c, 5, 59, 100
7, 2255280, Note_on_c, 5, 59, 0
7, 2255520, Note_on_c, 5, 58, 100
7, 2255760, Note_on_c, 5, 58, 0
7, 2255760, Note_on_c, 5, 58, 100
7, 2256000, Note_on_c, 5, 58, 0
7, 2256000, Note_on_c, 5, 58, 100
7, 2256240, Note_on_c, 5, 58, 0
7, 2256240, Note_on_c, 5, 58, 100
7, 2256480, Note_on_c, 5, 58, 0
7, 2256480, Note_on_c, 5, 57, 100
7, 2256720, Note_on_c, 5, 57, 0
7, 2256960, Note_on_c, 5, 56, 100
7, 2257200, Note_on_c, 5, 56, 0
7, 2257200, Note_on_c, 5, 56, 100
7, 2257440, Note_on_c, 5, 56, 0
7, 2257440, Note_on_c, 5, 55, 100
7, 2257680, Note_on_c, 5, 55, 0
7, 2257680, Note_on_c, 5, 55, 100
7, 2257920, Note_on_c, 5, 55, 0
7, 2257920, Note_on_c, 5, 54, 100
7, 2258160, Note_on_c, 5, 54, 0
7, 2258400, Note_on_c, 5, 54, 100
7, 2258640, Note_on_c, 5, 54, 0
7, 2258640, Note_on_c, 5, 55, 100
7, 2258880, Note_on_c, 5, 55, 0
7, 2258880, Note_on_c, 5, 48, 100
7, 2259120, Note_on_c, 5, 48, 0
7, 2259120, Note_on_c, 5, 46, 100
7, 2259600, Note_on_c, 5, 46, 0
7, 2259840, Note_on_c, 5, 46, 100
7, 2260080, Note_on_c, 5, 46, 0
7, 2260080, Note_on_c, 5, 46, 100
7, 2260320, Note_on_c, 5, 46, 0
7, 2260320, Note_on_c, 5, 47, 100
7, 2260560, Note_on_c, 5, 47, 0
7, 2260560, Note_on_c, 5, 47, 100
7, 2260680, Note_on_c, 5, 47, 0
7, 2260680, Note_on_c, 5, 50, 100
7, 2260800, Note_on_c, 5, 50, 0
7, 2260800, Note_on_c, 5, 48, 100
7, 2261040, Note_on_c, 5, 48, 0
7, 2261280, Note_on_c, 5, 48, 100
7, 2261520, Note_on_c, 5, 48, 0
7, 2261520, Note_on_c, 5, 48, 100
7, 2261760, Note_on_c, 5, 48, 0
7, 2261760, Note_on_c, 5, 49, 100
7, 2262000, Note_on_c, 5, 49, 0
7, 2262000, Note_on_c, 5, 49, 100
7, 2262120, Note_on_c, 5, 49, 0
7, 2262120, Note_on_c, 5, 52, 100
7, 2262240, Note_on_c, 5, 52, 0
7, 2262240, Note_on_c, 5, 50, 100
7, 2262480, Note_on_c, 5, 50, 0
7, 2262720, Note_on_c, 5, 50, 100
7, 2262960, Note_on_c, 5, 50, 0
7, 2262960, Note_on_c, 5, 50, 100
7, 2263200, Note_on_c, 5, 50, 0
7, 2263200, Note_on_c, 5, 50, 100
7, 2263440, Note_on_c, 5, 50, 0
7, 2263440, Note_on_c, 5, 55, 100
7, 2264160, Note_on_c, 5, 55, 0
7, 2264160, Note_on_c, 5, 50, 100
7, 2264400, Note_on_c, 5, 50, 0
7, 2264400, Note_on_c, 5, 43, 100
7, 2264520, Note_on_c, 5, 43, 0
7, 2264520, Note_on_c, 5, 57, 100
7, 2264640, Note_on_c, 5, 57, 0
7, 2264640, Note_on_c, 5, 58, 100
7, 2264760, Note_on_c, 5, 58, 0
7, 2264760, Note_on_c, 5, 60, 100
7, 2264880, Note_on_c, 5, 60, 0
7, 2264880, Note_on_c, 5, 62, 100
7, 2265360, Note_on_c, 5, 62, 0
7, 2265600, Note_on_c, 5, 60, 100
7, 2265840, Note_on_c, 5, 60, 0
7, 2265840, Note_on_c, 5, 60, 100
7, 2266080, Note_on_c, 5, 60, 0
7, 2266080, Note_on_c, 5, 58, 100
7, 2266320, Note_on_c, 5, 58, 0
7, 2266320, Note_on_c, 5, 58, 100
7, 2266560, Note_on_c, 5, 58, 0
7, 2266560, Note_on_c, 5, 55, 100
7, 2266680, Note_on_c, 5, 55, 0
7, 2266680, Note_on_c, 5, 57, 100
7, 2266800, Note_on_c, 5, 57, 0
7, 2266800, Note_on_c, 5, 58, 100
7, 2267040, Note_on_c, 5, 58, 0
7, 2267040, Note_on_c, 5, 59, 100
7, 2267280, Note_on_c, 5, 59, 0
7, 2267280, Note_on_c, 5, 59, 100
7, 2267520, Note_on_c, 5, 59, 0
7, 2267520, Note_on_c, 5, 60, 100
7, 2267760, Note_on_c, 5, 60, 0
7, 2267760, Note_on_c, 5, 60, 100
7, 2268240, Note_on_c, 5, 60, 0
7, 2268480, Note_on_c, 5, 55, 100
7, 2268720, Note_on_c, 5, 55, 0
7, 2268720, Note_on_c, 5, 56, 100
7, 2268960, Note_on_c, 5, 56, 0
7, 2268960, Note_on_c, 5, 57, 100
7, 2269200, Note_on_c, 5, 57, 0
7, 2269200, Note_on_c, 5, 58, 100
7, 2269680, Note_on_c, 5, 58, 0
7, 2269920, Note_on_c, 5, 59, 100
7, 2270160, Note_on_c, 5, 59, 0
7, 2270160, Note_on_c, 5, 58, 100
7, 2270400, Note_on_c, 5, 58, 0
7, 2270400, Note_on_c, 5, 56, 100
7, 2270640, Note_on_c, 5, 56, 0
7, 2270640, Note_on_c, 5, 54, 100
7, 2271120, Note_on_c, 5, 54, 0
7, 2271360, Note_on_c, 5, 55, 100
7, 2271600, Note_on_c, 5, 55, 0
7, 2271600, Note_on_c, 5, 55, 100
7, 2271840, Note_on_c, 5, 55, 0
7, 2271840, Note_on_c, 5, 56, 100
7, 2272080, Note_on_c, 5, 56, 0
7, 2272080, Note_on_c, 5, 56, 100
7, 2272560, Note_on_c, 5, 56, 0
7, 2272800, Note_on_c, 5, 57, 100
7, 2273040, Note_on_c, 5, 57, 0
7, 2273040, Note_on_c, 5, 57, 100
7, 2273280, Note_on_c, 5, 57, 0
7, 2273280, Note_on_c, 5, 58, 100
7, 2273520, Note_on_c, 5, 58, 0
7, 2273520, Note_on_c, 5, 58, 100
7, 2274000, Note_on_c, 5, 58, 0
7, 2274240, Note_on_c, 5, 58, 100
7, 2274480, Note_on_c, 5, 58, 0
7, 2274480, Note_on_c, 5, 62, 100
7, 2274720, Note_on_c, 5, 62, 0
7, 2274720, Note_on_c, 5, 58, 100
7, 2274960, Note_on_c, 5, 58, 0
7, 2274960, Note_on_c, 5, 63, 100
7, 2275440, Note_on_c, 5, 63, 0
7, 2275680, Note_on_c, 5, 65, 100
7, 2275920, Note_on_c, 5, 65, 0
7, 2275920, Note_on_c, 5, 63, 100
7, 2276160, Note_on_c, 5, 63, 0
7, 2276160, Note_on_c, 5, 62, 100
7, 2276400, Note_on_c, 5, 62, 0
7, 2276400, Note_on_c, 5, 60, 100
7, 2276880, Note_on_c, 5, 60, 0
7, 2277120, Note_on_c, 5, 60, 100
7, 2277360, Note_on_c, 5, 60, 0
7, 2277360, Note_on_c, 5, 60, 100
7, 2277600, Note_on_c, 5, 60, 0
7, 2277600, Note_on_c, 5, 60, 100
7, 2277840, Note_on_c, 5, 60, 0
7, 2277840, Note_on_c, 5, 60, 100
7, 2278080, Note_on_c, 5, 60, 0
7, 2278080, Note_on_c, 5, 59, 100
7, 2278320, Note_on_c, 5, 59, 0
7, 2278560, Note_on_c, 5, 58, 100
7, 2278800, Note_on_c, 5, 58, 0
7, 2278800, Note_on_c, 5, 58, 100
7, 2279040, Note_on_c, 5, 58, 0
7, 2279040, Note_on_c, 5, 58, 100
7, 2279280, Note_on_c, 5, 58, 0
7, 2279280, Note_on_c, 5, 58, 100
7, 2279520, Note_on_c, 5, 58, 0
7, 2279520, Note_on_c, 5, 57, 100
7, 2279760, Note_on_c, 5, 57, 0
7, 2280000, Note_on_c, 5, 56, 100
7, 2280240, Note_on_c, 5, 56, 0
7, 2280240, Note_on_c, 5, 56, 100
7, 2280480, Note_on_c, 5, 56, 0
7, 2280480, Note_on_c, 5, 55, 100
7, 2280720, Note_on_c, 5, 55, 0
7, 2280720, Note_on_c, 5, 55, 100
7, 2280960, Note_on_c, 5, 55, 0
7, 2280960, Note_on_c, 5, 54, 100
7, 2281200, Note_on_c, 5, 54, 0
7, 2281440, Note_on_c, 5, 54, 100
7, 2281680, Note_on_c, 5, 54, 0
7, 2281680, Note_on_c, 5, 55, 100
7, 2281920, Note_on_c, 5, 55, 0
7, 2281920, Note_on_c, 5, 48, 100
7, 2282160, Note_on_c, 5, 48, 0
7, 2282160, Note_on_c, 5, 46, 100
7, 2282640, Note_on_c, 5, 46, 0
7, 2282880, Note_on_c, 5, 46, 100
7, 2283120, Note_on_c, 5, 46, 0
7, 2283120, Note_on_c, 5, 46, 100
7, 2283360, Note_on_c, 5, 46, 0
7, 2283360, Note_on_c, 5, 47, 100
7, 2283600, Note_on_c, 5, 47, 0
7, 2283600, Note_on_c, 5, 47, 100
7, 2283720, Note_on_c, 5, 47, 0
7, 2283720, Note_on_c, 5, 50, 100
7, 2283840, Note_on_c, 5, 50, 0
7, 2283840, Note_on_c, 5, 48, 100
7, 2284080, Note_on_c, 5, 48, 0
7, 2284320, Note_on_c, 5, 48, 100
7, 2284560, Note_on_c, 5, 48, 0
7, 2284560, Note_on_c, 5, 48, 100
7, 2284800, Note_on_c, 5, 48, 0
7, 2284800, Note_on_c, 5, 49, 100
7, 2285040, Note_on_c, 5, 49, 0
7, 2285040, Note_on_c, 5, 49, 100
7, 2285160, Note_on_c, 5, 49, 0
7, 2285160, Note_on_c, 5, 52, 100
7, 2285280, Note_on_c, 5, 52, 0
7, 2285280, Note_on_c, 5, 50, 100
7, 2285520, Note_on_c, 5, 50, 0
7, 2285760, Note_on_c, 5, 50, 100
7, 2286000, Note_on_c, 5, 50, 0
7, 2286000, Note_on_c, 5, 50, 100
7, 2286240, Note_on_c, 5, 50, 0
7, 2286240, Note_on_c, 5, 50, 100
7, 2286480, Note_on_c, 5, 50, 0
7, 2286480, Note_on_c, 5, 55, 100
7, 2287080, Note_on_c, 5, 55, 0
7, 2287080, Note_on_c, 5, 54, 100
7, 2287200, Note_on_c, 5, 54, 0
7, 2287200, Note_on_c, 5, 55, 100
7, 2287320, Note_on_c, 5, 55, 0
7, 2287320, Note_on_c, 5, 50, 100
7, 2287440, Note_on_c, 5, 50, 0
7, 2287440, Note_on_c, 5, 43, 100
7, 2287920, Note_on_c, 5, 43, 0
7, 2287920, Note_on_c, 5, 67, 100
7, 2288400, Note_on_c, 5, 67, 0
7, 2288400, Note_on_c, 5, 62, 100
7, 2288880, Note_on_c, 5, 62, 0
7, 2289120, Note_on_c, 5, 67, 100
7, 2289360, Note_on_c, 5, 67, 0
7, 2289360, Note_on_c, 5, 67, 100
7, 2289720, Note_on_c, 5, 67, 0
7, 2289720, Note_on_c, 5, 64, 100
7, 2289840, Note_on_c, 5, 64, 0
7, 2289840, Note_on_c, 5, 64, 100
7, 2289900, Note_on_c, 5, 64, 0
7, 2289900, Note_on_c, 5, 66, 100
7, 2290320, Note_on_c, 5, 66, 0
7, 2290560, Note_on_c, 5, 69, 100
7, 2290800, Note_on_c, 5, 69, 0
7, 2290800, Note_on_c, 5, 71, 100
7, 2291160, Note_on_c, 5, 71, 0
7, 2291160, Note_on_c, 5, 67, 100
7, 2291280, Note_on_c, 5, 67, 0
7, 2291280, Note_on_c, 5, 64, 100
7, 2291760, Note_on_c, 5, 64, 0
7, 2292000, Note_on_c, 5, 57, 100
7, 2292240, Note_on_c, 5, 57, 0
7, 2292240, Note_on_c, 5, 62, 100
7, 2292720, Note_on_c, 5, 62, 0
7, 2292720, Note_on_c, 5, 62, 100
7, 2293200, Note_on_c, 5, 62, 0
7, 2293440, Note_on_c, 5, 60, 100
7, 2293680, Note_on_c, 5, 60, 0
7, 2293680, Note_on_c, 5, 59, 100
7, 2294040, Note_on_c, 5, 59, 0
7, 2294040, Note_on_c, 5, 60, 100
7, 2294160, Note_on_c, 5, 60, 0
7, 2294160, Note_on_c, 5, 62, 100
7, 2294640, Note_on_c, 5, 62, 0
7, 2294880, Note_on_c, 5, 55, 100
7, 2295120, Note_on_c, 5, 55, 0
7, 2295120, Note_on_c, 5, 60, 100
7, 2295600, Note_on_c, 5, 60, 0
7, 2295600, Note_on_c, 5, 52, 100
7, 2296080, Note_on_c, 5, 52, 0
7, 2296320, Note_on_c, 5, 55, 100
7, 2296560, Note_on_c, 5, 55, 0
7, 2296560, Note_on_c, 5, 54, 100
7, 2296920, Note_on_c, 5, 54, 0
7, 2296920, Note_on_c, 5, 55, 100
7, 2297040, Note_on_c, 5, 55, 0
7, 2297040, Note_on_c, 5, 57, 100
7, 2297520, Note_on_c, 5, 57, 0
7, 2297760, Note_on_c, 5, 50, 100
7, 2298000, Note_on_c, 5, 50, 0
7, 2298000, Note_on_c, 5, 55, 100
7, 2298480, Note_on_c, 5, 55, 0
7, 2298480, Note_on_c, 5, 43, 100
7, 2298960, Note_on_c, 5, 43, 0
7, 2299440, Note_on_c, 5, 43, 100
7, 2299520, Note_on_c, 5, 43, 0
7, 2299520, Note_on_c, 5, 45, 100
7, 2299600, Note_on_c, 5, 45, 0
7, 2299600, Note_on_c, 5, 43, 100
7, 2299680, Note_on_c, 5, 43, 0
7, 2299680, Note_on_c, 5, 38, 100
7, 2299760, Note_on_c, 5, 38, 0
7, 2299760, Note_on_c, 5, 40, 100
7, 2299840, Note_on_c, 5, 40, 0
7, 2299840, Note_on_c, 5, 42, 100
7, 2299920, Note_on_c, 5, 42, 0
7, 2299920, Note_on_c, 5, 43, 100
7, 2300000, Note_on_c, 5, 43, 0
7, 2300000, Note_on_c, 5, 42, 100
7, 2300080, Note_on_c, 5, 42, 0
7, 2300080, Note_on_c, 5, 43, 100
7, 2300160, Note_on_c, 5, 43, 0
7, 2300160, Note_on_c, 5, 45, 100
7, 2300240, Note_on_c, 5, 45, 0
7, 2300240, Note_on_c, 5, 43, 100
7, 2300320, Note_on_c, 5, 43, 0
7, 2300320, Note_on_c, 5, 45, 100
7, 2300400, Note_on_c, 5, 45, 0
7, 2300400, Note_on_c, 5, 47, 100
7, 2300480, Note_on_c, 5, 47, 0
7, 2300480, Note_on_c, 5, 45, 100
7, 2300560, Note_on_c, 5, 45, 0
7, 2300560, Note_on_c, 5, 47, 100
7, 2300640, Note_on_c, 5, 47, 0
7, 2300640, Note_on_c, 5, 48, 100
7, 2300720, Note_on_c, 5, 48, 0
7, 2300720, Note_on_c, 5, 47, 100
7, 2300800, Note_on_c, 5, 47, 0
7, 2300800, Note_on_c, 5, 49, 100
7, 2300880, Note_on_c, 5, 49, 0
7, 2300880, Note_on_c, 5, 50, 100
7, 2300960, Note_on_c, 5, 50, 0
7, 2300960, Note_on_c, 5, 52, 100
7, 2301040, Note_on_c, 5, 52, 0
7, 2301040, Note_on_c, 5, 50, 100
7, 2301120, Note_on_c, 5, 50, 0
7, 2301120, Note_on_c, 5, 45, 100
7, 2301200, Note_on_c, 5, 45, 0
7, 2301200, Note_on_c, 5, 47, 100
7, 2301280, Note_on_c, 5, 47, 0
7, 2301280, Note_on_c, 5, 49, 100
7, 2301360, Note_on_c, 5, 49, 0
7, 2301360, Note_on_c, 5, 50, 100
7, 2301440, Note_on_c, 5, 50, 0
7, 2301440, Note_on_c, 5, 49, 100
7, 2301520, Note_on_c, 5, 49, 0
7, 2301520, Note_on_c, 5, 50, 100
7, 2301600, Note_on_c, 5, 50, 0
7, 2301600, Note_on_c, 5, 52, 100
7, 2301680, Note_on_c, 5, 52, 0
7, 2301680, Note_on_c, 5, 50, 100
7, 2301760, Note_on_c, 5, 50, 0
7, 2301760, Note_on_c, 5, 52, 100
7, 2301840, Note_on_c, 5, 52, 0
7, 2301840, Note_on_c, 5, 54, 100
7, 2301920, Note_on_c, 5, 54, 0
7, 2301920, Note_on_c, 5, 52, 100
7, 2302000, Note_on_c, 5, 52, 0
7, 2302000, Note_on_c, 5, 54, 100
7, 2302080, Note_on_c, 5, 54, 0
7, 2302080, Note_on_c, 5, 55, 100
7, 2302160, Note_on_c, 5, 55, 0
7, 2302160, Note_on_c, 5, 52, 100
7, 2302240, Note_on_c, 5, 52, 0
7, 2302240, Note_on_c, 5, 54, 100
7, 2302320, Note_on_c, 5, 54, 0
7, 2302320, Note_on_c, 5, 55, 100
7, 2302400, Note_on_c, 5, 55, 0
7, 2302400, Note_on_c, 5, 57, 100
7, 2302480, Note_on_c, 5, 57, 0
7, 2302480, Note_on_c, 5, 55, 100
7, 2302560, Note_on_c, 5, 55, 0
7, 2302560, Note_on_c, 5, 47, 100
7, 2302640, Note_on_c, 5, 47, 0
7, 2302640, Note_on_c, 5, 52, 100
7, 2302720, Note_on_c, 5, 52, 0
7, 2302720, Note_on_c, 5, 54, 100
7, 2302800, Note_on_c, 5, 54, 0
7, 2302800, Note_on_c, 5, 55, 100
7, 2302880, Note_on_c, 5, 55, 0
7, 2302880, Note_on_c, 5, 54, 100
7, 2302960, Note_on_c, 5, 54, 0
7, 2302960, Note_on_c, 5, 55, 100
7, 2303040, Note_on_c, 5, 55, 0
7, 2303040, Note_on_c, 5, 57, 100
7, 2303120, Note_on_c, 5, 57, 0
7, 2303120, Note_on_c, 5, 55, 100
7, 2303200, Note_on_c, 5, 55, 0
7, 2303200, Note_on_c, 5, 57, 100
7, 2303280, Note_on_c, 5, 57, 0
7, 2303280, Note_on_c, 5, 59, 100
7, 2303360, Note_on_c, 5, 59, 0
7, 2303360, Note_on_c, 5, 57, 100
7, 2303440, Note_on_c, 5, 57, 0
7, 2303440, Note_on_c, 5, 59, 100
7, 2303520, Note_on_c, 5, 59, 0
7, 2303520, Note_on_c, 5, 61, 100
7, 2303600, Note_on_c, 5, 61, 0
7, 2303600, Note_on_c, 5, 57, 100
7, 2303680, Note_on_c, 5, 57, 0
7, 2303680, Note_on_c, 5, 59, 100
7, 2303760, Note_on_c, 5, 59, 0
7, 2303760, Note_on_c, 5, 61, 100
7, 2303840, Note_on_c, 5, 61, 0
7, 2303840, Note_on_c, 5, 62, 100
7, 2303920, Note_on_c, 5, 62, 0
7, 2303920, Note_on_c, 5, 61, 100
7, 2304000, Note_on_c, 5, 61, 0
7, 2304000, Note_on_c, 5, 52, 100
7, 2304080, Note_on_c, 5, 52, 0
7, 2304080, Note_on_c, 5, 57, 100
7, 2304160, Note_on_c, 5, 57, 0
7, 2304160, Note_on_c, 5, 59, 100
7, 2304240, Note_on_c, 5, 59, 0
7, 2304240, Note_on_c, 5, 61, 100
7, 2304320, Note_on_c, 5, 61, 0
7, 2304320, Note_on_c, 5, 59, 100
7, 2304400, Note_on_c, 5, 59, 0
7, 2304400, Note_on_c, 5, 61, 100
7, 2304480, Note_on_c, 5, 61, 0
7, 2304480, Note_on_c, 5, 62, 100
7, 2304560, Note_on_c, 5, 62, 0
7, 2304560, Note_on_c, 5, 61, 100
7, 2304640, Note_on_c, 5, 61, 0
7, 2304640, Note_on_c, 5, 62, 100
7, 2304720, Note_on_c, 5, 62, 0
7, 2304720, Note_on_c, 5, 64, 100
7, 2304800, Note_on_c, 5, 64, 0
7, 2304800, Note_on_c, 5, 62, 100
7, 2304880, Note_on_c, 5, 62, 0
7, 2304880, Note_on_c, 5, 64, 100
7, 2304960, Note_on_c, 5, 64, 0
7, 2304960, Note_on_c, 5, 66, 100
7, 2305040, Note_on_c, 5, 66, 0
7, 2305040, Note_on_c, 5, 62, 100
7, 2305120, Note_on_c, 5, 62, 0
7, 2305120, Note_on_c, 5, 64, 100
7, 2305200, Note_on_c, 5, 64, 0
7, 2305200, Note_on_c, 5, 66, 100
7, 2305280, Note_on_c, 5, 66, 0
7, 2305280, Note_on_c, 5, 64, 100
7, 2305360, Note_on_c, 5, 64, 0
7, 2305360, Note_on_c, 5, 66, 100
7, 2305440, Note_on_c, 5, 66, 0
7, 2305440, Note_on_c, 5, 69, 100
7, 2305520, Note_on_c, 5, 69, 0
7, 2305520, Note_on_c, 5, 67, 100
7, 2305600, Note_on_c, 5, 67, 0
7, 2305600, Note_on_c, 5, 69, 100
7, 2305680, Note_on_c, 5, 69, 0
7, 2305680, Note_on_c, 5, 62, 100
7, 2305760, Note_on_c, 5, 62, 0
7, 2305760, Note_on_c, 5, 61, 100
7, 2305840, Note_on_c, 5, 61, 0
7, 2305840, Note_on_c, 5, 62, 100
7, 2305920, Note_on_c, 5, 62, 0
7, 2305920, Note_on_c, 5, 66, 100
7, 2306000, Note_on_c, 5, 66, 0
7, 2306000, Note_on_c, 5, 69, 100
7, 2306080, Note_on_c, 5, 69, 0
7, 2306080, Note_on_c, 5, 71, 100
7, 2306160, Note_on_c, 5, 71, 0
7, 2306160, Note_on_c, 5, 72, 100
7, 2306240, Note_on_c, 5, 72, 0
7, 2306240, Note_on_c, 5, 71, 100
7, 2306320, Note_on_c, 5, 71, 0
7, 2306320, Note_on_c, 5, 72, 100
7, 2306400, Note_on_c, 5, 72, 0
7, 2306400, Note_on_c, 5, 69, 100
7, 2306480, Note_on_c, 5, 69, 0
7, 2306480, Note_on_c, 5, 66, 100
7, 2306560, Note_on_c, 5, 66, 0
7, 2306560, Note_on_c, 5, 69, 100
7, 2306640, Note_on_c, 5, 69, 0
7, 2306640, Note_on_c, 5, 67, 100
7, 2306720, Note_on_c, 5, 67, 0
7, 2306720, Note_on_c, 5, 66, 100
7, 2306800, Note_on_c, 5, 66, 0
7, 2306800, Note_on_c, 5, 67, 100
7, 2306880, Note_on_c, 5, 67, 0
7, 2306880, Note_on_c, 5, 71, 100
7, 2306960, Note_on_c, 5, 71, 0
7, 2306960, Note_on_c, 5, 69, 100
7, 2307040, Note_on_c, 5, 69, 0
7, 2307040, Note_on_c, 5, 71, 100
7, 2307120, Note_on_c, 5, 71, 0
7, 2307120, Note_on_c, 5, 64, 100
7, 2307200, Note_on_c, 5, 64, 0
7, 2307200, Note_on_c, 5, 63, 100
7, 2307280, Note_on_c, 5, 63, 0
7, 2307280, Note_on_c, 5, 64, 100
7, 2307360, Note_on_c, 5, 64, 0
7, 2307360, Note_on_c, 5, 67, 100
7, 2307440, Note_on_c, 5, 67, 0
7, 2307440, Note_on_c, 5, 71, 100
7, 2307520, Note_on_c, 5, 71, 0
7, 2307520, Note_on_c, 5, 73, 100
7, 2307600, Note_on_c, 5, 73, 0
7, 2307600, Note_on_c, 5, 74, 100
7, 2307680, Note_on_c, 5, 74, 0
7, 2307680, Note_on_c, 5, 73, 100
7, 2307760, Note_on_c, 5, 73, 0
7, 2307760, Note_on_c, 5, 74, 100
7, 2307840, Note_on_c, 5, 74, 0
7, 2307840, Note_on_c, 5, 71, 100
7, 2307920, Note_on_c, 5, 71, 0
7, 2307920, Note_on_c, 5, 67, 100
7, 2308000, Note_on_c, 5, 67, 0
7, 2308000, Note_on_c, 5, 71, 100
7, 2308080, Note_on_c, 5, 71, 0
7, 2308080, Note_on_c, 5, 73, 100
7, 2308160, Note_on_c, 5, 73, 0
7, 2308160, Note_on_c, 5, 71, 100
7, 2308240, Note_on_c, 5, 71, 0
7, 2308240, Note_on_c, 5, 73, 100
7, 2308320, Note_on_c, 5, 73, 0
7, 2308320, Note_on_c, 5, 76, 100
7, 2308400, Note_on_c, 5, 76, 0
7, 2308400, Note_on_c, 5, 74, 100
7, 2308480, Note_on_c, 5, 74, 0
7, 2308480, Note_on_c, 5, 76, 100
7, 2308560, Note_on_c, 5, 76, 0
7, 2308560, Note_on_c, 5, 69, 100
7, 2308640, Note_on_c, 5, 69, 0
7, 2308640, Note_on_c, 5, 68, 100
7, 2308720, Note_on_c, 5, 68, 0
7, 2308720, Note_on_c, 5, 69, 100
7, 2308800, Note_on_c, 5, 69, 0
7, 2308800, Note_on_c, 5, 73, 100
7, 2308880, Note_on_c, 5, 73, 0
7, 2308880, Note_on_c, 5, 76, 100
7, 2308960, Note_on_c, 5, 76, 0
7, 2308960, Note_on_c, 5, 78, 100
7, 2309040, Note_on_c, 5, 78, 0
7, 2309040, Note_on_c, 5, 79, 100
7, 2309120, Note_on_c, 5, 79, 0
7, 2309120, Note_on_c, 5, 78, 100
7, 2309200, Note_on_c, 5, 78, 0
7, 2309200, Note_on_c, 5, 79, 100
7, 2309280, Note_on_c, 5, 79, 0
7, 2309280, Note_on_c, 5, 76, 100
7, 2309360, Note_on_c, 5, 76, 0
7, 2309360, Note_on_c, 5, 73, 100
7, 2309440, Note_on_c, 5, 73, 0
7, 2309440, Note_on_c, 5, 76, 100
7, 2309520, Note_on_c, 5, 76, 0
7, 2309520, Note_on_c, 5, 78, 100
7, 2309600, Note_on_c, 5, 78, 0
7, 2309600, Note_on_c, 5, 76, 100
7, 2309680, Note_on_c, 5, 76, 0
7, 2309680, Note_on_c, 5, 78, 100
7, 2309760, Note_on_c, 5, 78, 0
7, 2309760, Note_on_c, 5, 81, 100
7, 2309840, Note_on_c, 5, 81, 0
7, 2309840, Note_on_c, 5, 79, 100
7, 2309920, Note_on_c, 5, 79, 0
7, 2309920, Note_on_c, 5, 81, 100
7, 2310000, Note_on_c, 5, 81, 0
7, 2310000, Note_on_c, 5, 74, 100
7, 2310080, Note_on_c, 5, 74, 0
7, 2310080, Note_on_c, 5, 73, 100
7, 2310160, Note_on_c, 5, 73, 0
7, 2310160, Note_on_c, 5, 74, 100
7, 2310240, Note_on_c, 5, 74, 0
7, 2310240, Note_on_c, 5, 78, 100
7, 2310320, Note_on_c, 5, 78, 0
7, 2310320, Note_on_c, 5, 81, 100
7, 2310400, Note_on_c, 5, 81, 0
7, 2310400, Note_on_c, 5, 85, 100
7, 2310480, Note_on_c, 5, 85, 0
7, 2310480, Note_on_c, 5, 86, 100
7, 2310540, Note_on_c, 5, 86, 0
7, 2310540, Note_on_c, 5, 85, 100
7, 2310600, Note_on_c, 5, 85, 0
7, 2310600, Note_on_c, 5, 86, 100
7, 2310960, Note_on_c, 5, 86, 0
7, 2310960, Note_on_c, 5, 67, 100
7, 2311440, Note_on_c, 5, 67, 0
7, 2311440, Note_on_c, 5, 62, 100
7, 2311920, Note_on_c, 5, 62, 0
7, 2312160, Note_on_c, 5, 67, 100
7, 2312400, Note_on_c, 5, 67, 0
7, 2312400, Note_on_c, 5, 67, 100
7, 2312760, Note_on_c, 5, 67, 0
7, 2312760, Note_on_c, 5, 64, 100
7, 2312880, Note_on_c, 5, 64, 0
7, 2312880, Note_on_c, 5, 64, 100
7, 2312940, Note_on_c, 5, 64, 0
7, 2312940, Note_on_c, 5, 66, 100
7, 2313360, Note_on_c, 5, 66, 0
7, 2313600, Note_on_c, 5, 69, 100
7, 2313840, Note_on_c, 5, 69, 0
7, 2313840, Note_on_c, 5, 71, 100
7, 2314200, Note_on_c, 5, 71, 0
7, 2314200, Note_on_c, 5, 67, 100
7, 2314320, Note_on_c, 5, 67, 0
7, 2314320, Note_on_c, 5, 64, 100
7, 2314800, Note_on_c, 5, 64, 0
7, 2315040, Note_on_c, 5, 57, 100
7, 2315280, Note_on_c, 5, 57, 0
7, 2315280, Note_on_c, 5, 62, 100
7, 2315760, Note_on_c, 5, 62, 0
7, 2315760, Note_on_c, 5, 62, 100
7, 2316240, Note_on_c, 5, 62, 0
7, 2316480, Note_on_c, 5, 60, 100
7, 2316720, Note_on_c, 5, 60, 0
7, 2316720, Note_on_c, 5, 59, 100
7, 2317080, Note_on_c, 5, 59, 0
7, 2317080, Note_on_c, 5, 60, 100
7, 2317200, Note_on_c, 5, 60, 0
7, 2317200, Note_on_c, 5, 62, 100
7, 2317680, Note_on_c, 5, 62, 0
7, 2317920, Note_on_c, 5, 55, 100
7, 2318160, Note_on_c, 5, 55, 0
7, 2318160, Note_on_c, 5, 60, 100
7, 2318640, Note_on_c, 5, 60, 0
7, 2318640, Note_on_c, 5, 52, 100
7, 2319120, Note_on_c, 5, 52, 0
7, 2319360, Note_on_c, 5, 55, 100
7, 2319600, Note_on_c, 5, 55, 0
7, 2319600, Note_on_c, 5, 54, 100
7, 2319960, Note_on_c, 5, 54, 0
7, 2319960, Note_on_c, 5, 55, 100
7, 2320080, Note_on_c, 5, 55, 0
7, 2320080, Note_on_c, 5, 57, 100
7, 2320560, Note_on_c, 5, 57, 0
7, 2320800, Note_on_c, 5, 50, 100
7, 2321040, Note_on_c, 5, 50, 0
7, 2321040, Note_on_c, 5, 55, 100
7, 2321520, Note_on_c, 5, 55, 0
7, 2321520, Note_on_c, 5, 43, 100
7, 2322000, Note_on_c, 5, 43, 0
7, 2322480, Note_on_c, 5, 43, 100
7, 2322560, Note_on_c, 5, 43, 0
7, 2322560, Note_on_c, 5, 45, 100
7, 2322640, Note_on_c, 5, 45, 0
7, 2322640, Note_on_c, 5, 43, 100
7, 2322720, Note_on_c, 5, 43, 0
7, 2322720, Note_on_c, 5, 38, 100
7, 2322800, Note_on_c, 5, 38, 0
7, 2322800, Note_on_c, 5, 40, 100
7, 2322880, Note_on_c, 5, 40, 0
7, 2322880, Note_on_c, 5, 42, 100
7, 2322960, Note_on_c, 5, 42, 0
7, 2322960, Note_on_c, 5, 43, 100
7, 2323040, Note_on_c, 5, 43, 0
7, 2323040, Note_on_c, 5, 42, 100
7, 2323120, Note_on_c, 5, 42, 0
7, 2323120, Note_on_c, 5, 43, 100
7, 2323200, Note_on_c, 5, 43, 0
7, 2323200, Note_on_c, 5, 45, 100
7, 2323280, Note_on_c, 5, 45, 0
7, 2323280, Note_on_c, 5, 43, 100
7, 2323360, Note_on_c, 5, 43, 0
7, 2323360, Note_on_c, 5, 45, 100
7, 2323440, Note_on_c, 5, 45, 0
7, 2323440, Note_on_c, 5, 47, 100
7, 2323520, Note_on_c, 5, 47, 0
7, 2323520, Note_on_c, 5, 45, 100
7, 2323600, Note_on_c, 5, 45, 0
7, 2323600, Note_on_c, 5, 47, 100
7, 2323680, Note_on_c, 5, 47, 0
7, 2323680, Note_on_c, 5, 48, 100
7, 2323760, Note_on_c, 5, 48, 0
7, 2323760, Note_on_c, 5, 47, 100
7, 2323840, Note_on_c, 5, 47, 0
7, 2323840, Note_on_c, 5, 49, 100
7, 2323920, Note_on_c, 5, 49, 0
7, 2323920, Note_on_c, 5, 50, 100
7, 2324000, Note_on_c, 5, 50, 0
7, 2324000, Note_on_c, 5, 52, 100
7, 2324080, Note_on_c, 5, 52, 0
7, 2324080, Note_on_c, 5, 50, 100
7, 2324160, Note_on_c, 5, 50, 0
7, 2324160, Note_on_c, 5, 45, 100
7, 2324240, Note_on_c, 5, 45, 0
7, 2324240, Note_on_c, 5, 47, 100
7, 2324320, Note_on_c, 5, 47, 0
7, 2324320, Note_on_c, 5, 49, 100
7, 2324400, Note_on_c, 5, 49, 0
7, 2324400, Note_on_c, 5, 50, 100
7, 2324480, Note_on_c, 5, 50, 0
7, 2324480, Note_on_c, 5, 49, 100
7, 2324560, Note_on_c, 5, 49, 0
7, 2324560, Note_on_c, 5, 50, 100
7, 2324640, Note_on_c, 5, 50, 0
7, 2324640, Note_on_c, 5, 52, 100
7, 2324720, Note_on_c, 5, 52, 0
7, 2324720, Note_on_c, 5, 50, 100
7, 2324800, Note_on_c, 5, 50, 0
7, 2324800, Note_on_c, 5, 52, 100
7, 2324880, Note_on_c, 5, 52, 0
7, 2324880, Note_on_c, 5, 54, 100
7, 2324960, Note_on_c, 5, 54, 0
7, 2324960, Note_on_c, 5, 52, 100
7, 2325040, Note_on_c, 5, 52, 0
7, 2325040, Note_on_c, 5, 54, 100
7, 2325120, Note_on_c, 5, 54, 0
7, 2325120, Note_on_c, 5, 55, 100
7, 2325200, Note_on_c, 5, 55, 0
7, 2325200, Note_on_c, 5, 52, 100
7, 2325280, Note_on_c, 5, 52, 0
7, 2325280, Note_on_c, 5, 54, 100
7, 2325360, Note_on_c, 5, 54, 0
7, 2325360, Note_on_c, 5, 55, 100
7, 2325440, Note_on_c, 5, 55, 0
7, 2325440, Note_on_c, 5, 57, 100
7, 2325520, Note_on_c, 5, 57, 0
7, 2325520, Note_on_c, 5, 55, 100
7, 2325600, Note_on_c, 5, 55, 0
7, 2325600, Note_on_c, 5, 47, 100
7, 2325680, Note_on_c, 5, 47, 0
7, 2325680, Note_on_c, 5, 52, 100
7, 2325760, Note_on_c, 5, 52, 0
7, 2325760, Note_on_c, 5, 54, 100
7, 2325840, Note_on_c, 5, 54, 0
7, 2325840, Note_on_c, 5, 55, 100
7, 2325920, Note_on_c, 5, 55, 0
7, 2325920, Note_on_c, 5, 54, 100
7, 2326000, Note_on_c, 5, 54, 0
7, 2326000, Note_on_c, 5, 55, 100
7, 2326080, Note_on_c, 5, 55, 0
7, 2326080, Note_on_c, 5, 57, 100
7, 2326160, Note_on_c, 5, 57, 0
7, 2326160, Note_on_c, 5, 55, 100
7, 2326240, Note_on_c, 5, 55, 0
7, 2326240, Note_on_c, 5, 57, 100
7, 2326320, Note_on_c, 5, 57, 0
7, 2326320, Note_on_c, 5, 59, 100
7, 2326400, Note_on_c, 5, 59, 0
7, 2326400, Note_on_c, 5, 57, 100
7, 2326480, Note_on_c, 5, 57, 0
7, 2326480, Note_on_c, 5, 59, 100
7, 2326560, Note_on_c, 5, 59, 0
7, 2326560, Note_on_c, 5, 61, 100
7, 2326640, Note_on_c, 5, 61, 0
7, 2326640, Note_on_c, 5, 57, 100
7, 2326720, Note_on_c, 5, 57, 0
7, 2326720, Note_on_c, 5, 59, 100
7, 2326800, Note_on_c, 5, 59, 0
7, 2326800, Note_on_c, 5, 61, 100
7, 2326880, Note_on_c, 5, 61, 0
7, 2326880, Note_on_c, 5, 62, 100
7, 2326960, Note_on_c, 5, 62, 0
7, 2326960, Note_on_c, 5, 61, 100
7, 2327040, Note_on_c, 5, 61, 0
7, 2327040, Note_on_c, 5, 52, 100
7, 2327120, Note_on_c, 5, 52, 0
7, 2327120, Note_on_c, 5, 57, 100
7, 2327200, Note_on_c, 5, 57, 0
7, 2327200, Note_on_c, 5, 59, 100
7, 2327280, Note_on_c, 5, 59, 0
7, 2327280, Note_on_c, 5, 61, 100
7, 2327360, Note_on_c, 5, 61, 0
7, 2327360, Note_on_c, 5, 59, 100
7, 2327440, Note_on_c, 5, 59, 0
7, 2327440, Note_on_c, 5, 61, 100
7, 2327520, Note_on_c, 5, 61, 0
7, 2327520, Note_on_c, 5, 62, 100
7, 2327600, Note_on_c, 5, 62, 0
7, 2327600, Note_on_c, 5, 61, 100
7, 2327680, Note_on_c, 5, 61, 0
7, 2327680, Note_on_c, 5, 62, 100
7, 2327760, Note_on_c, 5, 62, 0
7, 2327760, Note_on_c, 5, 64, 100
7, 2327840, Note_on_c, 5, 64, 0
7, 2327840, Note_on_c, 5, 62, 100
7, 2327920, Note_on_c, 5, 62, 0
7, 2327920, Note_on_c, 5, 64, 100
7, 2328000, Note_on_c, 5, 64, 0
7, 2328000, Note_on_c, 5, 66, 100
7, 2328080, Note_on_c, 5, 66, 0
7, 2328080, Note_on_c, 5, 62, 100
7, 2328160, Note_on_c, 5, 62, 0
7, 2328160, Note_on_c, 5, 64, 100
7, 2328240, Note_on_c, 5, 64, 0
7, 2328240, Note_on_c, 5, 66, 100
7, 2328320, Note_on_c, 5, 66, 0
7, 2328320, Note_on_c, 5, 64, 100
7, 2328400, Note_on_c, 5, 64, 0
7, 2328400, Note_on_c, 5, 66, 100
7, 2328480, Note_on_c, 5, 66, 0
7, 2328480, Note_on_c, 5, 69, 100
7, 2328560, Note_on_c, 5, 69, 0
7, 2328560, Note_on_c, 5, 67, 100
7, 2328640, Note_on_c, 5, 67, 0
7, 2328640, Note_on_c, 5, 69, 100
7, 2328720, Note_on_c, 5, 69, 0
7, 2328720, Note_on_c, 5, 62, 100
7, 2328800, Note_on_c, 5, 62, 0
7, 2328800, Note_on_c, 5, 61, 100
7, 2328880, Note_on_c, 5, 61, 0
7, 2328880, Note_on_c, 5, 62, 100
7, 2328960, Note_on_c, 5, 62, 0
7, 2328960, Note_on_c, 5, 66, 100
7, 2329040, Note_on_c, 5, 66, 0
7, 2329040, Note_on_c, 5, 69, 100
7, 2329120, Note_on_c, 5, 69, 0
7, 2329120, Note_on_c, 5, 71, 100
7, 2329200, Note_on_c, 5, 71, 0
7, 2329200, Note_on_c, 5, 72, 100
7, 2329280, Note_on_c, 5, 72, 0
7, 2329280, Note_on_c, 5, 71, 100
7, 2329360, Note_on_c, 5, 71, 0
7, 2329360, Note_on_c, 5, 72, 100
7, 2329440, Note_on_c, 5, 72, 0
7, 2329440, Note_on_c, 5, 69, 100
7, 2329520, Note_on_c, 5, 69, 0
7, 2329520, Note_on_c, 5, 66, 100
7, 2329600, Note_on_c, 5, 66, 0
7, 2329600, Note_on_c, 5, 69, 100
7, 2329680, Note_on_c, 5, 69, 0
7, 2329680, Note_on_c, 5, 67, 100
7, 2329760, Note_on_c, 5, 67, 0
7, 2329760, Note_on_c, 5, 66, 100
7, 2329840, Note_on_c, 5, 66, 0
7, 2329840, Note_on_c, 5, 67, 100
7, 2329920, Note_on_c, 5, 67, 0
7, 2329920, Note_on_c, 5, 71, 100
7, 2330000, Note_on_c, 5, 71, 0
7, 2330000, Note_on_c, 5, 69, 100
7, 2330080, Note_on_c, 5, 69, 0
7, 2330080, Note_on_c, 5, 71, 100
7, 2330160, Note_on_c, 5, 71, 0
7, 2330160, Note_on_c, 5, 64, 100
7, 2330240, Note_on_c, 5, 64, 0
7, 2330240, Note_on_c, 5, 63, 100
7, 2330320, Note_on_c, 5, 63, 0
7, 2330320, Note_on_c, 5, 64, 100
7, 2330400, Note_on_c, 5, 64, 0
7, 2330400, Note_on_c, 5, 67, 100
7, 2330480, Note_on_c, 5, 67, 0
7, 2330480, Note_on_c, 5, 71, 100
7, 2330560, Note_on_c, 5, 71, 0
7, 2330560, Note_on_c, 5, 73, 100
7, 2330640, Note_on_c, 5, 73, 0
7, 2330640, Note_on_c, 5, 74, 100
7, 2330720, Note_on_c, 5, 74, 0
7, 2330720, Note_on_c, 5, 73, 100
7, 2330800, Note_on_c, 5, 73, 0
7, 2330800, Note_on_c, 5, 74, 100
7, 2330880, Note_on_c, 5, 74, 0
7, 2330880, Note_on_c, 5, 71, 100
7, 2330960, Note_on_c, 5, 71, 0
7, 2330960, Note_on_c, 5, 67, 100
7, 2331040, Note_on_c, 5, 67, 0
7, 2331040, Note_on_c, 5, 71, 100
7, 2331120, Note_on_c, 5, 71, 0
7, 2331120, Note_on_c, 5, 73, 100
7, 2331200, Note_on_c, 5, 73, 0
7, 2331200, Note_on_c, 5, 71, 100
7, 2331280, Note_on_c, 5, 71, 0
7, 2331280, Note_on_c, 5, 73, 100
7, 2331360, Note_on_c, 5, 73, 0
7, 2331360, Note_on_c, 5, 76, 100
7, 2331440, Note_on_c, 5, 76, 0
7, 2331440, Note_on_c, 5, 74, 100
7, 2331520, Note_on_c, 5, 74, 0
7, 2331520, Note_on_c, 5, 76, 100
7, 2331600, Note_on_c, 5, 76, 0
7, 2331600, Note_on_c, 5, 69, 100
7, 2331680, Note_on_c, 5, 69, 0
7, 2331680, Note_on_c, 5, 68, 100
7, 2331760, Note_on_c, 5, 68, 0
7, 2331760, Note_on_c, 5, 69, 100
7, 2331840, Note_on_c, 5, 69, 0
7, 2331840, Note_on_c, 5, 73, 100
7, 2331920, Note_on_c, 5, 73, 0
7, 2331920, Note_on_c, 5, 76, 100
7, 2332000, Note_on_c, 5, 76, 0
7, 2332000, Note_on_c, 5, 78, 100
7, 2332080, Note_on_c, 5, 78, 0
7, 2332080, Note_on_c, 5, 79, 100
7, 2332160, Note_on_c, 5, 79, 0
7, 2332160, Note_on_c, 5, 78, 100
7, 2332240, Note_on_c, 5, 78, 0
7, 2332240, Note_on_c, 5, 79, 100
7, 2332320, Note_on_c, 5, 79, 0
7, 2332320, Note_on_c, 5, 76, 100
7, 2332400, Note_on_c, 5, 76, 0
7, 2332400, Note_on_c, 5, 73, 100
7, 2332480, Note_on_c, 5, 73, 0
7, 2332480, Note_on_c, 5, 76, 100
7, 2332560, Note_on_c, 5, 76, 0
7, 2332560, Note_on_c, 5, 78, 100
7, 2332640, Note_on_c, 5, 78, 0
7, 2332640, Note_on_c, 5, 76, 100
7, 2332720, Note_on_c, 5, 76, 0
7, 2332720, Note_on_c, 5, 78, 100
7, 2332800, Note_on_c, 5, 78, 0
7, 2332800, Note_on_c, 5, 81, 100
7, 2332880, Note_on_c, 5, 81, 0
7, 2332880, Note_on_c, 5, 79, 100
7, 2332960, Note_on_c, 5, 79, 0
7, 2332960, Note_on_c, 5, 81, 100
7, 2333040, Note_on_c, 5, 81, 0
7, 2333040, Note_on_c, 5, 74, 100
7, 2333120, Note_on_c, 5, 74, 0
7, 2333120, Note_on_c, 5, 73, 100
7, 2333200, Note_on_c, 5, 73, 0
7, 2333200, Note_on_c, 5, 74, 100
7, 2333280, Note_on_c, 5, 74, 0
7, 2333280, Note_on_c, 5, 78, 100
7, 2333360, Note_on_c, 5, 78, 0
7, 2333360, Note_on_c, 5, 81, 100
7, 2333440, Note_on_c, 5, 81, 0
7, 2333440, Note_on_c, 5, 85, 100
7, 2333520, Note_on_c, 5, 85, 0
7, 2333520, Note_on_c, 5, 86, 100
7, 2333580, Note_on_c, 5, 86, 0
7, 2333580, Note_on_c, 5, 85, 100
7, 2333640, Note_on_c, 5, 85, 0
7, 2333640, Note_on_c, 5, 86, 100
7, 2334000, Note_on_c, 5, 86, 0
7, 2334000, Note_on_c, 5, 62, 100
7, 2334480, Note_on_c, 5, 62, 0
7, 2334480, Note_on_c, 5, 60, 100
7, 2334960, Note_on_c, 5, 60, 0
7, 2335200, Note_on_c, 5, 60, 100
7, 2335440, Note_on_c, 5, 60, 0
7, 2335440, Note_on_c, 5, 59, 100
7, 2335800, Note_on_c, 5, 59, 0
7, 2335800, Note_on_c, 5, 62, 100
7, 2335920, Note_on_c, 5, 62, 0
7, 2335920, Note_on_c, 5, 67, 100
7, 2336400, Note_on_c, 5, 67, 0
7, 2336640, Note_on_c, 5, 74, 100
7, 2336880, Note_on_c, 5, 74, 0
7, 2336880, Note_on_c, 5, 73, 100
7, 2337360, Note_on_c, 5, 73, 0
7, 2337360, Note_on_c, 5, 75, 100
7, 2337840, Note_on_c, 5, 75, 0
7, 2338080, Note_on_c, 5, 76, 100
7, 2338320, Note_on_c, 5, 76, 0
7, 2338320, Note_on_c, 5, 75, 100
7, 2338800, Note_on_c, 5, 75, 0
7, 2338800, Note_on_c, 5, 66, 100
7, 2339280, Note_on_c, 5, 66, 0
7, 2339520, Note_on_c, 5, 75, 100
7, 2339760, Note_on_c, 5, 75, 0
7, 2339760, Note_on_c, 5, 76, 100
7, 2340240, Note_on_c, 5, 76, 0
7, 2340240, Note_on_c, 5, 71, 100
7, 2340720, Note_on_c, 5, 71, 0
7, 2340960, Note_on_c, 5, 71, 100
7, 2341200, Note_on_c, 5, 71, 0
7, 2341200, Note_on_c, 5, 69, 100
7, 2341560, Note_on_c, 5, 69, 0
7, 2341560, Note_on_c, 5, 71, 100
7, 2341680, Note_on_c, 5, 71, 0
7, 2341680, Note_on_c, 5, 71, 100
7, 2341740, Note_on_c, 5, 71, 0
7, 2341740, Note_on_c, 5, 72, 100
7, 2342160, Note_on_c, 5, 72, 0
7, 2342400, Note_on_c, 5, 72, 100
7, 2342640, Note_on_c, 5, 72, 0
7, 2342640, Note_on_c, 5, 71, 100
7, 2343120, Note_on_c, 5, 71, 0
7, 2343120, Note_on_c, 5, 69, 100
7, 2343600, Note_on_c, 5, 69, 0
7, 2343840, Note_on_c, 5, 69, 100
7, 2344080, Note_on_c, 5, 69, 0
7, 2344080, Note_on_c, 5, 69, 100
7, 2344440, Note_on_c, 5, 69, 0
7, 2344440, Note_on_c, 5, 66, 100
7, 2344560, Note_on_c, 5, 66, 0
7, 2344560, Note_on_c, 5, 67, 100
7, 2344620, Note_on_c, 5, 67, 0
7, 2344620, Note_on_c, 5, 66, 100
7, 2344680, Note_on_c, 5, 66, 0
7, 2344680, Note_on_c, 5, 67, 100
7, 2345040, Note_on_c, 5, 67, 0
7, 2345120, Note_on_c, 5, 52, 100
7, 2345200, Note_on_c, 5, 52, 0
7, 2345200, Note_on_c, 5, 54, 100
7, 2345280, Note_on_c, 5, 54, 0
7, 2345280, Note_on_c, 5, 55, 100
7, 2345360, Note_on_c, 5, 55, 0
7, 2345360, Note_on_c, 5, 57, 100
7, 2345440, Note_on_c, 5, 57, 0
7, 2345440, Note_on_c, 5, 59, 100
7, 2345520, Note_on_c, 5, 59, 0
7, 2345520, Note_on_c, 5, 60, 100
7, 2345600, Note_on_c, 5, 60, 0
7, 2345600, Note_on_c, 5, 59, 100
7, 2345680, Note_on_c, 5, 59, 0
7, 2345680, Note_on_c, 5, 60, 100
7, 2345760, Note_on_c, 5, 60, 0
7, 2345760, Note_on_c, 5, 65, 100
7, 2345840, Note_on_c, 5, 65, 0
7, 2345840, Note_on_c, 5, 64, 100
7, 2345920, Note_on_c, 5, 64, 0
7, 2345920, Note_on_c, 5, 62, 100
7, 2346000, Note_on_c, 5, 62, 0
7, 2346000, Note_on_c, 5, 60, 100
7, 2346080, Note_on_c, 5, 60, 0
7, 2346080, Note_on_c, 5, 62, 100
7, 2346160, Note_on_c, 5, 62, 0
7, 2346160, Note_on_c, 5, 60, 100
7, 2346240, Note_on_c, 5, 60, 0
7, 2346240, Note_on_c, 5, 59, 100
7, 2346320, Note_on_c, 5, 59, 0
7, 2346320, Note_on_c, 5, 60, 100
7, 2346400, Note_on_c, 5, 60, 0
7, 2346400, Note_on_c, 5, 59, 100
7, 2346480, Note_on_c, 5, 59, 0
7, 2346480, Note_on_c, 5, 57, 100
7, 2346560, Note_on_c, 5, 57, 0
7, 2346560, Note_on_c, 5, 59, 100
7, 2346640, Note_on_c, 5, 59, 0
7, 2346640, Note_on_c, 5, 57, 100
7, 2346720, Note_on_c, 5, 57, 0
7, 2346720, Note_on_c, 5, 55, 100
7, 2346800, Note_on_c, 5, 55, 0
7, 2346800, Note_on_c, 5, 57, 100
7, 2346880, Note_on_c, 5, 57, 0
7, 2346880, Note_on_c, 5, 54, 100
7, 2346960, Note_on_c, 5, 54, 0
7, 2346960, Note_on_c, 5, 59, 100
7, 2347040, Note_on_c, 5, 59, 0
7, 2347040, Note_on_c, 5, 57, 100
7, 2347120, Note_on_c, 5, 57, 0
7, 2347120, Note_on_c, 5, 59, 100
7, 2347200, Note_on_c, 5, 59, 0
7, 2347200, Note_on_c, 5, 64, 100
7, 2347280, Note_on_c, 5, 64, 0
7, 2347280, Note_on_c, 5, 62, 100
7, 2347360, Note_on_c, 5, 62, 0
7, 2347360, Note_on_c, 5, 60, 100
7, 2347440, Note_on_c, 5, 60, 0
7, 2347440, Note_on_c, 5, 59, 100
7, 2347520, Note_on_c, 5, 59, 0
7, 2347520, Note_on_c, 5, 60, 100
7, 2347600, Note_on_c, 5, 60, 0
7, 2347600, Note_on_c, 5, 59, 100
7, 2347680, Note_on_c, 5, 59, 0
7, 2347680, Note_on_c, 5, 57, 100
7, 2347760, Note_on_c, 5, 57, 0
7, 2347760, Note_on_c, 5, 59, 100
7, 2347840, Note_on_c, 5, 59, 0
7, 2347840, Note_on_c, 5, 57, 100
7, 2347920, Note_on_c, 5, 57, 0
7, 2347920, Note_on_c, 5, 55, 100
7, 2348000, Note_on_c, 5, 55, 0
7, 2348000, Note_on_c, 5, 57, 100
7, 2348080, Note_on_c, 5, 57, 0
7, 2348080, Note_on_c, 5, 55, 100
7, 2348160, Note_on_c, 5, 55, 0
7, 2348160, Note_on_c, 5, 54, 100
7, 2348240, Note_on_c, 5, 54, 0
7, 2348240, Note_on_c, 5, 55, 100
7, 2348320, Note_on_c, 5, 55, 0
7, 2348320, Note_on_c, 5, 52, 100
7, 2348400, Note_on_c, 5, 52, 0
7, 2348400, Note_on_c, 5, 57, 100
7, 2348480, Note_on_c, 5, 57, 0
7, 2348480, Note_on_c, 5, 55, 100
7, 2348560, Note_on_c, 5, 55, 0
7, 2348560, Note_on_c, 5, 57, 100
7, 2348640, Note_on_c, 5, 57, 0
7, 2348640, Note_on_c, 5, 62, 100
7, 2348720, Note_on_c, 5, 62, 0
7, 2348720, Note_on_c, 5, 60, 100
7, 2348800, Note_on_c, 5, 60, 0
7, 2348800, Note_on_c, 5, 59, 100
7, 2348880, Note_on_c, 5, 59, 0
7, 2348880, Note_on_c, 5, 57, 100
7, 2348960, Note_on_c, 5, 57, 0
7, 2348960, Note_on_c, 5, 59, 100
7, 2349040, Note_on_c, 5, 59, 0
7, 2349040, Note_on_c, 5, 57, 100
7, 2349120, Note_on_c, 5, 57, 0
7, 2349120, Note_on_c, 5, 55, 100
7, 2349200, Note_on_c, 5, 55, 0
7, 2349200, Note_on_c, 5, 57, 100
7, 2349280, Note_on_c, 5, 57, 0
7, 2349280, Note_on_c, 5, 55, 100
7, 2349360, Note_on_c, 5, 55, 0
7, 2349360, Note_on_c, 5, 54, 100
7, 2349440, Note_on_c, 5, 54, 0
7, 2349440, Note_on_c, 5, 55, 100
7, 2349520, Note_on_c, 5, 55, 0
7, 2349520, Note_on_c, 5, 54, 100
7, 2349600, Note_on_c, 5, 54, 0
7, 2349600, Note_on_c, 5, 52, 100
7, 2349680, Note_on_c, 5, 52, 0
7, 2349680, Note_on_c, 5, 54, 100
7, 2349760, Note_on_c, 5, 54, 0
7, 2349760, Note_on_c, 5, 52, 100
7, 2349840, Note_on_c, 5, 52, 0
7, 2349840, Note_on_c, 5, 50, 100
7, 2349920, Note_on_c, 5, 50, 0
7, 2349920, Note_on_c, 5, 49, 100
7, 2350000, Note_on_c, 5, 49, 0
7, 2350000, Note_on_c, 5, 50, 100
7, 2350080, Note_on_c, 5, 50, 0
7, 2350080, Note_on_c, 5, 55, 100
7, 2350160, Note_on_c, 5, 55, 0
7, 2350160, Note_on_c, 5, 54, 100
7, 2350240, Note_on_c, 5, 54, 0
7, 2350240, Note_on_c, 5, 52, 100
7, 2350320, Note_on_c, 5, 52, 0
7, 2350320, Note_on_c, 5, 50, 100
7, 2350400, Note_on_c, 5, 50, 0
7, 2350400, Note_on_c, 5, 52, 100
7, 2350480, Note_on_c, 5, 52, 0
7, 2350480, Note_on_c, 5, 50, 100
7, 2350560, Note_on_c, 5, 50, 0
7, 2350560, Note_on_c, 5, 48, 100
7, 2350640, Note_on_c, 5, 48, 0
7, 2350640, Note_on_c, 5, 50, 100
7, 2350720, Note_on_c, 5, 50, 0
7, 2350720, Note_on_c, 5, 48, 100
7, 2350800, Note_on_c, 5, 48, 0
7, 2350800, Note_on_c, 5, 47, 100
7, 2350880, Note_on_c, 5, 47, 0
7, 2350880, Note_on_c, 5, 48, 100
7, 2350960, Note_on_c, 5, 48, 0
7, 2350960, Note_on_c, 5, 47, 100
7, 2351040, Note_on_c, 5, 47, 0
7, 2351040, Note_on_c, 5, 45, 100
7, 2351120, Note_on_c, 5, 45, 0
7, 2351120, Note_on_c, 5, 47, 100
7, 2351200, Note_on_c, 5, 47, 0
7, 2351200, Note_on_c, 5, 45, 100
7, 2351280, Note_on_c, 5, 45, 0
7, 2351280, Note_on_c, 5, 43, 100
7, 2351360, Note_on_c, 5, 43, 0
7, 2351360, Note_on_c, 5, 42, 100
7, 2351440, Note_on_c, 5, 42, 0
7, 2351440, Note_on_c, 5, 43, 100
7, 2351520, Note_on_c, 5, 43, 0
7, 2351520, Note_on_c, 5, 48, 100
7, 2351600, Note_on_c, 5, 48, 0
7, 2351600, Note_on_c, 5, 47, 100
7, 2351680, Note_on_c, 5, 47, 0
7, 2351680, Note_on_c, 5, 45, 100
7, 2351760, Note_on_c, 5, 45, 0
7, 2351760, Note_on_c, 5, 43, 100
7, 2351840, Note_on_c, 5, 43, 0
7, 2351840, Note_on_c, 5, 45, 100
7, 2351920, Note_on_c, 5, 45, 0
7, 2351920, Note_on_c, 5, 43, 100
7, 2352000, Note_on_c, 5, 43, 0
7, 2352000, Note_on_c, 5, 41, 100
7, 2352080, Note_on_c, 5, 41, 0
7, 2352080, Note_on_c, 5, 43, 100
7, 2352160, Note_on_c, 5, 43, 0
7, 2352160, Note_on_c, 5, 41, 100
7, 2352240, Note_on_c, 5, 41, 0
7, 2352240, Note_on_c, 5, 40, 100
7, 2352320, Note_on_c, 5, 40, 0
7, 2352320, Note_on_c, 5, 41, 100
7, 2352400, Note_on_c, 5, 41, 0
7, 2352400, Note_on_c, 5, 40, 100
7, 2352480, Note_on_c, 5, 40, 0
7, 2352480, Note_on_c, 5, 38, 100
7, 2352560, Note_on_c, 5, 38, 0
7, 2352560, Note_on_c, 5, 40, 100
7, 2352640, Note_on_c, 5, 40, 0
7, 2352640, Note_on_c, 5, 38, 100
7, 2352720, Note_on_c, 5, 38, 0
7, 2352720, Note_on_c, 5, 36, 100
7, 2352960, Note_on_c, 5, 36, 0
7, 2352960, Note_on_c, 5, 43, 100
7, 2353040, Note_on_c, 5, 43, 0
7, 2353040, Note_on_c, 5, 45, 100
7, 2353120, Note_on_c, 5, 45, 0
7, 2353120, Note_on_c, 5, 47, 100
7, 2353200, Note_on_c, 5, 47, 0
7, 2353200, Note_on_c, 5, 48, 100
7, 2353280, Note_on_c, 5, 48, 0
7, 2353280, Note_on_c, 5, 47, 100
7, 2353360, Note_on_c, 5, 47, 0
7, 2353360, Note_on_c, 5, 48, 100
7, 2353440, Note_on_c, 5, 48, 0
7, 2353440, Note_on_c, 5, 50, 100
7, 2353520, Note_on_c, 5, 50, 0
7, 2353520, Note_on_c, 5, 48, 100
7, 2353600, Note_on_c, 5, 48, 0
7, 2353600, Note_on_c, 5, 50, 100
7, 2353680, Note_on_c, 5, 50, 0
7, 2353680, Note_on_c, 5, 52, 100
7, 2353760, Note_on_c, 5, 52, 0
7, 2353760, Note_on_c, 5, 50, 100
7, 2353840, Note_on_c, 5, 50, 0
7, 2353840, Note_on_c, 5, 48, 100
7, 2353920, Note_on_c, 5, 48, 0
7, 2353920, Note_on_c, 5, 47, 100
7, 2354000, Note_on_c, 5, 47, 0
7, 2354000, Note_on_c, 5, 45, 100
7, 2354080, Note_on_c, 5, 45, 0
7, 2354080, Note_on_c, 5, 43, 100
7, 2354160, Note_on_c, 5, 43, 0
7, 2354160, Note_on_c, 5, 42, 100
7, 2354240, Note_on_c, 5, 42, 0
7, 2354240, Note_on_c, 5, 40, 100
7, 2354320, Note_on_c, 5, 40, 0
7, 2354320, Note_on_c, 5, 42, 100
7, 2354400, Note_on_c, 5, 42, 0
7, 2354400, Note_on_c, 5, 38, 100
7, 2354480, Note_on_c, 5, 38, 0
7, 2354480, Note_on_c, 5, 40, 100
7, 2354560, Note_on_c, 5, 40, 0
7, 2354560, Note_on_c, 5, 42, 100
7, 2354640, Note_on_c, 5, 42, 0
7, 2354640, Note_on_c, 5, 43, 100
7, 2354720, Note_on_c, 5, 43, 0
7, 2354720, Note_on_c, 5, 42, 100
7, 2354800, Note_on_c, 5, 42, 0
7, 2354800, Note_on_c, 5, 43, 100
7, 2354880, Note_on_c, 5, 43, 0
7, 2354880, Note_on_c, 5, 45, 100
7, 2354960, Note_on_c, 5, 45, 0
7, 2354960, Note_on_c, 5, 47, 100
7, 2355040, Note_on_c, 5, 47, 0
7, 2355040, Note_on_c, 5, 48, 100
7, 2355120, Note_on_c, 5, 48, 0
7, 2355120, Note_on_c, 5, 50, 100
7, 2355200, Note_on_c, 5, 50, 0
7, 2355200, Note_on_c, 5, 49, 100
7, 2355280, Note_on_c, 5, 49, 0
7, 2355280, Note_on_c, 5, 50, 100
7, 2355360, Note_on_c, 5, 50, 0
7, 2355360, Note_on_c, 5, 52, 100
7, 2355440, Note_on_c, 5, 52, 0
7, 2355440, Note_on_c, 5, 54, 100
7, 2355520, Note_on_c, 5, 54, 0
7, 2355520, Note_on_c, 5, 50, 100
7, 2355600, Note_on_c, 5, 50, 0
7, 2355600, Note_on_c, 5, 55, 100
7, 2355840, Note_on_c, 5, 55, 0
7, 2356160, Note_on_c, 5, 57, 100
7, 2356240, Note_on_c, 5, 57, 0
7, 2356240, Note_on_c, 5, 55, 100
7, 2356320, Note_on_c, 5, 55, 0
7, 2356320, Note_on_c, 5, 54, 100
7, 2356400, Note_on_c, 5, 54, 0
7, 2356400, Note_on_c, 5, 55, 100
7, 2356480, Note_on_c, 5, 55, 0
7, 2356480, Note_on_c, 5, 50, 100
7, 2356560, Note_on_c, 5, 50, 0
7, 2356560, Note_on_c, 5, 43, 100
7, 2357040, Note_on_c, 5, 43, 0
7, 2357040, Note_on_c, 5, 62, 100
7, 2357520, Note_on_c, 5, 62, 0
7, 2357520, Note_on_c, 5, 60, 100
7, 2358000, Note_on_c, 5, 60, 0
7, 2358240, Note_on_c, 5, 60, 100
7, 2358480, Note_on_c, 5, 60, 0
7, 2358480, Note_on_c, 5, 59, 100
7, 2358840, Note_on_c, 5, 59, 0
7, 2358840, Note_on_c, 5, 62, 100
7, 2358960, Note_on_c, 5, 62, 0
7, 2358960, Note_on_c, 5, 67, 100
7, 2359440, Note_on_c, 5, 67, 0
7, 2359680, Note_on_c, 5, 74, 100
7, 2359920, Note_on_c, 5, 74, 0
7, 2359920, Note_on_c, 5, 73, 100
7, 2360400, Note_on_c, 5, 73, 0
7, 2360400, Note_on_c, 5, 75, 100
7, 2360880, Note_on_c, 5, 75, 0
7, 2361120, Note_on_c, 5, 76, 100
7, 2361360, Note_on_c, 5, 76, 0
7, 2361360, Note_on_c, 5, 75, 100
7, 2361840, Note_on_c, 5, 75, 0
7, 2361840, Note_on_c, 5, 66, 100
7, 2362320, Note_on_c, 5, 66, 0
7, 2362560, Note_on_c, 5, 75, 100
7, 2362800, Note_on_c, 5, 75, 0
7, 2362800, Note_on_c, 5, 76, 100
7, 2363280, Note_on_c, 5, 76, 0
7, 2363280, Note_on_c, 5, 71, 100
7, 2363760, Note_on_c, 5, 71, 0
7, 2364000, Note_on_c, 5, 71, 100
7, 2364240, Note_on_c, 5, 71, 0
7, 2364240, Note_on_c, 5, 69, 100
7, 2364600, Note_on_c, 5, 69, 0
7, 2364600, Note_on_c, 5, 71, 100
7, 2364720, Note_on_c, 5, 71, 0
7, 2364720, Note_on_c, 5, 71, 100
7, 2364780, Note_on_c, 5, 71, 0
7, 2364780, Note_on_c, 5, 72, 100
7, 2365200, Note_on_c, 5, 72, 0
7, 2365440, Note_on_c, 5, 72, 100
7, 2365680, Note_on_c, 5, 72, 0
7, 2365680, Note_on_c, 5, 71, 100
7, 2366160, Note_on_c, 5, 71, 0
7, 2366160, Note_on_c, 5, 69, 100
7, 2366640, Note_on_c, 5, 69, 0
7, 2366880, Note_on_c, 5, 69, 100
7, 2367120, Note_on_c, 5, 69, 0
7, 2367120, Note_on_c, 5, 69, 100
7, 2367480, Note_on_c, 5, 69, 0
7, 2367480, Note_on_c, 5, 66, 100
7, 2367600, Note_on_c, 5, 66, 0
7, 2367600, Note_on_c, 5, 67, 100
7, 2367660, Note_on_c, 5, 67, 0
7, 2367660, Note_on_c, 5, 66, 100
7, 2367720, Note_on_c, 5, 66, 0
7, 2367720, Note_on_c, 5, 67, 100
7, 2368080, Note_on_c, 5, 67, 0
7, 2368160, Note_on_c, 5, 52, 100
7, 2368240, Note_on_c, 5, 52, 0
7, 2368240, Note_on_c, 5, 54, 100
7, 2368320, Note_on_c, 5, 54, 0
7, 2368320, Note_on_c, 5, 55, 100
7, 2368400, Note_on_c, 5, 55, 0
7, 2368400, Note_on_c, 5, 57, 100
7, 2368480, Note_on_c, 5, 57, 0
7, 2368480, Note_on_c, 5, 59, 100
7, 2368560, Note_on_c, 5, 59, 0
7, 2368560, Note_on_c, 5, 60, 100
7, 2368640, Note_on_c, 5, 60, 0
7, 2368640, Note_on_c, 5, 59, 100
7, 2368720, Note_on_c, 5, 59, 0
7, 2368720, Note_on_c, 5, 60, 100
7, 2368800, Note_on_c, 5, 60, 0
7, 2368800, Note_on_c, 5, 65, 100
7, 2368880, Note_on_c, 5, 65, 0
7, 2368880, Note_on_c, 5, 64, 100
7, 2368960, Note_on_c, 5, 64, 0
7, 2368960, Note_on_c, 5, 62, 100
7, 2369040, Note_on_c, 5, 62, 0
7, 2369040, Note_on_c, 5, 60, 100
7, 2369120, Note_on_c, 5, 60, 0
7, 2369120, Note_on_c, 5, 62, 100
7, 2369200, Note_on_c, 5, 62, 0
7, 2369200, Note_on_c, 5, 60, 100
7, 2369280, Note_on_c, 5, 60, 0
7, 2369280, Note_on_c, 5, 59, 100
7, 2369360, Note_on_c, 5, 59, 0
7, 2369360, Note_on_c, 5, 60, 100
7, 2369440, Note_on_c, 5, 60, 0
7, 2369440, Note_on_c, 5, 59, 100
7, 2369520, Note_on_c, 5, 59, 0
7, 2369520, Note_on_c, 5, 57, 100
7, 2369600, Note_on_c, 5, 57, 0
7, 2369600, Note_on_c, 5, 59, 100
7, 2369680, Note_on_c, 5, 59, 0
7, 2369680, Note_on_c, 5, 57, 100
7, 2369760, Note_on_c, 5, 57, 0
7, 2369760, Note_on_c, 5, 55, 100
7, 2369840, Note_on_c, 5, 55, 0
7, 2369840, Note_on_c, 5, 57, 100
7, 2369920, Note_on_c, 5, 57, 0
7, 2369920, Note_on_c, 5, 54, 100
7, 2370000, Note_on_c, 5, 54, 0
7, 2370000, Note_on_c, 5, 59, 100
7, 2370080, Note_on_c, 5, 59, 0
7, 2370080, Note_on_c, 5, 57, 100
7, 2370160, Note_on_c, 5, 57, 0
7, 2370160, Note_on_c, 5, 59, 100
7, 2370240, Note_on_c, 5, 59, 0
7, 2370240, Note_on_c, 5, 64, 100
7, 2370320, Note_on_c, 5, 64, 0
7, 2370320, Note_on_c, 5, 62, 100
7, 2370400, Note_on_c, 5, 62, 0
7, 2370400, Note_on_c, 5, 60, 100
7, 2370480, Note_on_c, 5, 60, 0
7, 2370480, Note_on_c, 5, 59, 100
7, 2370560, Note_on_c, 5, 59, 0
7, 2370560, Note_on_c, 5, 60, 100
7, 2370640, Note_on_c, 5, 60, 0
7, 2370640, Note_on_c, 5, 59, 100
7, 2370720, Note_on_c, 5, 59, 0
7, 2370720, Note_on_c, 5, 57, 100
7, 2370800, Note_on_c, 5, 57, 0
7, 2370800, Note_on_c, 5, 59, 100
7, 2370880, Note_on_c, 5, 59, 0
7, 2370880, Note_on_c, 5, 57, 100
7, 2370960, Note_on_c, 5, 57, 0
7, 2370960, Note_on_c, 5, 55, 100
7, 2371040, Note_on_c, 5, 55, 0
7, 2371040, Note_on_c, 5, 57, 100
7, 2371120, Note_on_c, 5, 57, 0
7, 2371120, Note_on_c, 5, 55, 100
7, 2371200, Note_on_c, 5, 55, 0
7, 2371200, Note_on_c, 5, 54, 100
7, 2371280, Note_on_c, 5, 54, 0
7, 2371280, Note_on_c, 5, 55, 100
7, 2371360, Note_on_c, 5, 55, 0
7, 2371360, Note_on_c, 5, 52, 100
7, 2371440, Note_on_c, 5, 52, 0
7, 2371440, Note_on_c, 5, 57, 100
7, 2371520, Note_on_c, 5, 57, 0
7, 2371520, Note_on_c, 5, 55, 100
7, 2371600, Note_on_c, 5, 55, 0
7, 2371600, Note_on_c, 5, 57, 100
7, 2371680, Note_on_c, 5, 57, 0
7, 2371680, Note_on_c, 5, 62, 100
7, 2371760, Note_on_c, 5, 62, 0
7, 2371760, Note_on_c, 5, 60, 100
7, 2371840, Note_on_c, 5, 60, 0
7, 2371840, Note_on_c, 5, 59, 100
7, 2371920, Note_on_c, 5, 59, 0
7, 2371920, Note_on_c, 5, 57, 100
7, 2372000, Note_on_c, 5, 57, 0
7, 2372000, Note_on_c, 5, 59, 100
7, 2372080, Note_on_c, 5, 59, 0
7, 2372080, Note_on_c, 5, 57, 100
7, 2372160, Note_on_c, 5, 57, 0
7, 2372160, Note_on_c, 5, 55, 100
7, 2372240, Note_on_c, 5, 55, 0
7, 2372240, Note_on_c, 5, 57, 100
7, 2372320, Note_on_c, 5, 57, 0
7, 2372320, Note_on_c, 5, 55, 100
7, 2372400, Note_on_c, 5, 55, 0
7, 2372400, Note_on_c, 5, 54, 100
7, 2372480, Note_on_c, 5, 54, 0
7, 2372480, Note_on_c, 5, 55, 100
7, 2372560, Note_on_c, 5, 55, 0
7, 2372560, Note_on_c, 5, 54, 100
7, 2372640, Note_on_c, 5, 54, 0
7, 2372640, Note_on_c, 5, 52, 100
7, 2372720, Note_on_c, 5, 52, 0
7, 2372720, Note_on_c, 5, 54, 100
7, 2372800, Note_on_c, 5, 54, 0
7, 2372800, Note_on_c, 5, 52, 100
7, 2372880, Note_on_c, 5, 52, 0
7, 2372880, Note_on_c, 5, 50, 100
7, 2372960, Note_on_c, 5, 50, 0
7, 2372960, Note_on_c, 5, 49, 100
7, 2373040, Note_on_c, 5, 49, 0
7, 2373040, Note_on_c, 5, 50, 100
7, 2373120, Note_on_c, 5, 50, 0
7, 2373120, Note_on_c, 5, 55, 100
7, 2373200, Note_on_c, 5, 55, 0
7, 2373200, Note_on_c, 5, 54, 100
7, 2373280, Note_on_c, 5, 54, 0
7, 2373280, Note_on_c, 5, 52, 100
7, 2373360, Note_on_c, 5, 52, 0
7, 2373360, Note_on_c, 5, 50, 100
7, 2373440, Note_on_c, 5, 50, 0
7, 2373440, Note_on_c, 5, 52, 100
7, 2373520, Note_on_c, 5, 52, 0
7, 2373520, Note_on_c, 5, 50, 100
7, 2373600, Note_on_c, 5, 50, 0
7, 2373600, Note_on_c, 5, 48, 100
7, 2373680, Note_on_c, 5, 48, 0
7, 2373680, Note_on_c, 5, 50, 100
7, 2373760, Note_on_c, 5, 50, 0
7, 2373760, Note_on_c, 5, 48, 100
7, 2373840, Note_on_c, 5, 48, 0
7, 2373840, Note_on_c, 5, 47, 100
7, 2373920, Note_on_c, 5, 47, 0
7, 2373920, Note_on_c, 5, 48, 100
7, 2374000, Note_on_c, 5, 48, 0
7, 2374000, Note_on_c, 5, 47, 100
7, 2374080, Note_on_c, 5, 47, 0
7, 2374080, Note_on_c, 5, 45, 100
7, 2374160, Note_on_c, 5, 45, 0
7, 2374160, Note_on_c, 5, 47, 100
7, 2374240, Note_on_c, 5, 47, 0
7, 2374240, Note_on_c, 5, 45, 100
7, 2374320, Note_on_c, 5, 45, 0
7, 2374320, Note_on_c, 5, 43, 100
7, 2374400, Note_on_c, 5, 43, 0
7, 2374400, Note_on_c, 5, 42, 100
7, 2374480, Note_on_c, 5, 42, 0
7, 2374480, Note_on_c, 5, 43, 100
7, 2374560, Note_on_c, 5, 43, 0
7, 2374560, Note_on_c, 5, 48, 100
7, 2374640, Note_on_c, 5, 48, 0
7, 2374640, Note_on_c, 5, 47, 100
7, 2374720, Note_on_c, 5, 47, 0
7, 2374720, Note_on_c, 5, 45, 100
7, 2374800, Note_on_c, 5, 45, 0
7, 2374800, Note_on_c, 5, 43, 100
7, 2374880, Note_on_c, 5, 43, 0
7, 2374880, Note_on_c, 5, 45, 100
7, 2374960, Note_on_c, 5, 45, 0
7, 2374960, Note_on_c, 5, 43, 100
7, 2375040, Note_on_c, 5, 43, 0
7, 2375040, Note_on_c, 5, 41, 100
7, 2375120, Note_on_c, 5, 41, 0
7, 2375120, Note_on_c, 5, 43, 100
7, 2375200, Note_on_c, 5, 43, 0
7, 2375200, Note_on_c, 5, 41, 100
7, 2375280, Note_on_c, 5, 41, 0
7, 2375280, Note_on_c, 5, 40, 100
7, 2375360, Note_on_c, 5, 40, 0
7, 2375360, Note_on_c, 5, 41, 100
7, 2375440, Note_on_c, 5, 41, 0
7, 2375440, Note_on_c, 5, 40, 100
7, 2375520, Note_on_c, 5, 40, 0
7, 2375520, Note_on_c, 5, 38, 100
7, 2375600, Note_on_c, 5, 38, 0
7, 2375600, Note_on_c, 5, 40, 100
7, 2375680, Note_on_c, 5, 40, 0
7, 2375680, Note_on_c, 5, 38, 100
7, 2375760, Note_on_c, 5, 38, 0
7, 2375760, Note_on_c, 5, 36, 100
7, 2376000, Note_on_c, 5, 36, 0
7, 2376000, Note_on_c, 5, 43, 100
7, 2376080, Note_on_c, 5, 43, 0
7, 2376080, Note_on_c, 5, 45, 100
7, 2376160, Note_on_c, 5, 45, 0
7, 2376160, Note_on_c, 5, 47, 100
7, 2376240, Note_on_c, 5, 47, 0
7, 2376240, Note_on_c, 5, 48, 100
7, 2376320, Note_on_c, 5, 48, 0
7, 2376320, Note_on_c, 5, 47, 100
7, 2376400, Note_on_c, 5, 47, 0
7, 2376400, Note_on_c, 5, 48, 100
7, 2376480, Note_on_c, 5, 48, 0
7, 2376480, Note_on_c, 5, 50, 100
7, 2376560, Note_on_c, 5, 50, 0
7, 2376560, Note_on_c, 5, 48, 100
7, 2376640, Note_on_c, 5, 48, 0
7, 2376640, Note_on_c, 5, 50, 100
7, 2376720, Note_on_c, 5, 50, 0
7, 2376720, Note_on_c, 5, 52, 100
7, 2376800, Note_on_c, 5, 52, 0
7, 2376800, Note_on_c, 5, 50, 100
7, 2376880, Note_on_c, 5, 50, 0
7, 2376880, Note_on_c, 5, 48, 100
7, 2376960, Note_on_c, 5, 48, 0
7, 2376960, Note_on_c, 5, 47, 100
7, 2377040, Note_on_c, 5, 47, 0
7, 2377040, Note_on_c, 5, 45, 100
7, 2377120, Note_on_c, 5, 45, 0
7, 2377120, Note_on_c, 5, 43, 100
7, 2377200, Note_on_c, 5, 43, 0
7, 2377200, Note_on_c, 5, 42, 100
7, 2377280, Note_on_c, 5, 42, 0
7, 2377280, Note_on_c, 5, 40, 100
7, 2377360, Note_on_c, 5, 40, 0
7, 2377360, Note_on_c, 5, 42, 100
7, 2377440, Note_on_c, 5, 42, 0
7, 2377440, Note_on_c, 5, 38, 100
7, 2377520, Note_on_c, 5, 38, 0
7, 2377520, Note_on_c, 5, 40, 100
7, 2377600, Note_on_c, 5, 40, 0
7, 2377600, Note_on_c, 5, 42, 100
7, 2377680, Note_on_c, 5, 42, 0
7, 2377680, Note_on_c, 5, 43, 100
7, 2377760, Note_on_c, 5, 43, 0
7, 2377760, Note_on_c, 5, 42, 100
7, 2377840, Note_on_c, 5, 42, 0
7, 2377840, Note_on_c, 5, 43, 100
7, 2377920, Note_on_c, 5, 43, 0
7, 2377920, Note_on_c, 5, 45, 100
7, 2378000, Note_on_c, 5, 45, 0
7, 2378000, Note_on_c, 5, 47, 100
7, 2378080, Note_on_c, 5, 47, 0
7, 2378080, Note_on_c, 5, 48, 100
7, 2378160, Note_on_c, 5, 48, 0
7, 2378160, Note_on_c, 5, 50, 100
7, 2378240, Note_on_c, 5, 50, 0
7, 2378240, Note_on_c, 5, 49, 100
7, 2378320, Note_on_c, 5, 49, 0
7, 2378320, Note_on_c, 5, 50, 100
7, 2378400, Note_on_c, 5, 50, 0
7, 2378400, Note_on_c, 5, 52, 100
7, 2378480, Note_on_c, 5, 52, 0
7, 2378480, Note_on_c, 5, 54, 100
7, 2378560, Note_on_c, 5, 54, 0
7, 2378560, Note_on_c, 5, 50, 100
7, 2378640, Note_on_c, 5, 50, 0
7, 2378640, Note_on_c, 5, 55, 100
7, 2378880, Note_on_c, 5, 55, 0
7, 2379200, Note_on_c, 5, 57, 100
7, 2379280, Note_on_c, 5, 57, 0
7, 2379280, Note_on_c, 5, 55, 100
7, 2379360, Note_on_c, 5, 55, 0
7, 2379360, Note_on_c, 5, 54, 100
7, 2379440, Note_on_c, 5, 54, 0
7, 2379440, Note_on_c, 5, 55, 100
7, 2379520, Note_on_c, 5, 55, 0
7, 2379520, Note_on_c, 5, 50, 100
7, 2379600, Note_on_c, 5, 50, 0
7, 2379600, Note_on_c, 5, 43, 100
7, 2380080, Note_on_c, 5, 43, 0
7, 2864640, Note_on_c, 5, 55, 100
7, 2865120, Note_on_c, 5, 55, 0
7, 2865120, Note_on_c, 5, 54, 100
7, 2865600, Note_on_c, 5, 54, 0
7, 2865600, Note_on_c, 5, 52, 100
7, 2866080, Note_on_c, 5, 52, 0
7, 2866080, Note_on_c, 5, 50, 100
7, 2866560, Note_on_c, 5, 50, 0
7, 2866560, Note_on_c, 5, 47, 100
7, 2867040, Note_on_c, 5, 47, 0
7, 2867040, Note_on_c, 5, 48, 100
7, 2867520, Note_on_c, 5, 48, 0
7, 2867520, Note_on_c, 5, 50, 100
7, 2868000, Note_on_c, 5, 50, 0
7, 2868000, Note_on_c, 5, 43, 100
7, 2868480, Note_on_c, 5, 43, 0
7, 2868480, Note_on_c, 5, 55, 100
7, 2868960, Note_on_c, 5, 55, 0
7, 2868960, Note_on_c, 5, 54, 100
7, 2869440, Note_on_c, 5, 54, 0
7, 2869440, Note_on_c, 5, 52, 100
7, 2869920, Note_on_c, 5, 52, 0
7, 2869920, Note_on_c, 5, 50, 100
7, 2870400, Note_on_c, 5, 50, 0
7, 2870400, Note_on_c, 5, 47, 100
7, 2870880, Note_on_c, 5, 47, 0
7, 2870880, Note_on_c, 5, 48, 100
7, 2871360, Note_on_c, 5, 48, 0
7, 2871360, Note_on_c, 5, 50, 100
7, 2871840, Note_on_c, 5, 50, 0
7, 2871840, Note_on_c, 5, 43, 100
7, 2872320, Note_on_c, 5, 43, 0
7, 2872320, Note_on_c, 5, 55, 100
7, 2872800, Note_on_c, 5, 55, 0
7, 2872800, Note_on_c, 5, 54, 100
7, 2873280, Note_on_c, 5, 54, 0
7, 2873280, Note_on_c, 5, 52, 100
7, 2873760, Note_on_c, 5, 52, 0
7, 2873760, Note_on_c, 5, 50, 100
7, 2874240, Note_on_c, 5, 50, 0
7, 2874240, Note_on_c, 5, 47, 100
7, 2874720, Note_on_c, 5, 47, 0
7, 2874720, Note_on_c, 5, 48, 100
7, 2875200, Note_on_c, 5, 48, 0
7, 2875200, Note_on_c, 5, 50, 100
7, 2875680, Note_on_c, 5, 50, 0
7, 2875680, Note_on_c, 5, 43, 100
7, 2876640, Note_on_c, 5, 43, 0
7, 2877120, Note_on_c, 5, 55, 100
7, 2877600, Note_on_c, 5, 55, 0
7, 2877600, Note_on_c, 5, 54, 100
7, 2878080, Note_on_c, 5, 54, 0
7, 2878080, Note_on_c, 5, 52, 100
7, 2878560, Note_on_c, 5, 52, 0
7, 2878560, Note_on_c, 5, 50, 100
7, 2879040, Note_on_c, 5, 50, 0
7, 2879040, Note_on_c, 5, 47, 100
7, 2879520, Note_on_c, 5, 47, 0
7, 2879520, Note_on_c, 5, 48, 100
7, 2880000, Note_on_c, 5, 48, 0
7, 2880000, Note_on_c, 5, 50, 100
7, 2880480, Note_on_c, 5, 50, 0
7, 2880480, Note_on_c, 5, 43, 100
7, 2880960, Note_on_c, 5, 43, 0
7, 2880960, Note_on_c, 5, 55, 100
7, 2881440, Note_on_c, 5, 55, 0
7, 2881440, Note_on_c, 5, 54, 100
7, 2881920, Note_on_c, 5, 54, 0
7, 2881920, Note_on_c, 5, 52, 100
7, 2882400, Note_on_c, 5, 52, 0
7, 2882400, Note_on_c, 5, 50, 100
7, 2882880, Note_on_c, 5, 50, 0
7, 2882880, Note_on_c, 5, 47, 100
7, 2883360, Note_on_c, 5, 47, 0
7, 2883360, Note_on_c, 5, 48, 100
7, 2883840, Note_on_c, 5, 48, 0
7, 2883840, Note_on_c, 5, 50, 100
7, 2884320, Note_on_c, 5, 50, 0
7, 2884320, Note_on_c, 5, 43, 100
7, 2884800, Note_on_c, 5, 43, 0
7, 2884800, Note_on_c, 5, 55, 100
7, 2885280, Note_on_c, 5, 55, 0
7, 2885280, Note_on_c, 5, 54, 100
7, 2885760, Note_on_c, 5, 54, 0
7, 2885760, Note_on_c, 5, 52, 100
7, 2886240, Note_on_c, 5, 52, 0
7, 2886240, Note_on_c, 5, 50, 100
7, 2886720, Note_on_c, 5, 50, 0
7, 2886720, Note_on_c, 5, 47, 100
7, 2887200, Note_on_c, 5, 47, 0
7, 2887200, Note_on_c, 5, 48, 100
7, 2887680, Note_on_c, 5, 48, 0
7, 2887680, Note_on_c, 5, 50, 100
7, 2888160, Note_on_c, 5, 50, 0
7, 2888160, Note_on_c, 5, 43, 100
7, 2889120, Note_on_c, 5, 43, 0
7, 2889360, Note_on_c, 5, 64, 100
7, 2889480, Note_on_c, 5, 64, 0
7, 2889480, Note_on_c, 5, 62, 100
7, 2889600, Note_on_c, 5, 62, 0
7, 2889600, Note_on_c, 5, 60, 100
7, 2889840, Note_on_c, 5, 60, 0
7, 2889840, Note_on_c, 5, 58, 100
7, 2890080, Note_on_c, 5, 58, 0
7, 2890080, Note_on_c, 5, 57, 100
7, 2890320, Note_on_c, 5, 57, 0
7, 2890320, Note_on_c, 5, 54, 100
7, 2890560, Note_on_c, 5, 54, 0
7, 2890560, Note_on_c, 5, 55, 100
7, 2890800, Note_on_c, 5, 55, 0
7, 2890800, Note_on_c, 5, 57, 100
7, 2891040, Note_on_c, 5, 57, 0
7, 2891040, Note_on_c, 5, 50, 100
7, 2891520, Note_on_c, 5, 50, 0
7, 2891760, Note_on_c, 5, 52, 100
7, 2892000, Note_on_c, 5, 52, 0
7, 2892000, Note_on_c, 5, 45, 100
7, 2892240, Note_on_c, 5, 45, 0
7, 2892240, Note_on_c, 5, 57, 100
7, 2892480, Note_on_c, 5, 57, 0
7, 2892480, Note_on_c, 5, 55, 100
7, 2892720, Note_on_c, 5, 55, 0
7, 2892720, Note_on_c, 5, 53, 100
7, 2892960, Note_on_c, 5, 53, 0
7, 2892960, Note_on_c, 5, 52, 100
7, 2893200, Note_on_c, 5, 52, 0
7, 2893200, Note_on_c, 5, 64, 100
7, 2893320, Note_on_c, 5, 64, 0
7, 2893320, Note_on_c, 5, 62, 100
7, 2893440, Note_on_c, 5, 62, 0
7, 2893440, Note_on_c, 5, 60, 100
7, 2893680, Note_on_c, 5, 60, 0
7, 2893680, Note_on_c, 5, 58, 100
7, 2893920, Note_on_c, 5, 58, 0
7, 2893920, Note_on_c, 5, 57, 100
7, 2894160, Note_on_c, 5, 57, 0
7, 2894160, Note_on_c, 5, 54, 100
7, 2894400, Note_on_c, 5, 54, 0
7, 2894400, Note_on_c, 5, 55, 100
7, 2894640, Note_on_c, 5, 55, 0
7, 2894640, Note_on_c, 5, 57, 100
7, 2894880, Note_on_c, 5, 57, 0
7, 2894880, Note_on_c, 5, 50, 100
7, 2895360, Note_on_c, 5, 50, 0
7, 2895600, Note_on_c, 5, 52, 100
7, 2895840, Note_on_c, 5, 52, 0
7, 2895840, Note_on_c, 5, 45, 100
7, 2896080, Note_on_c, 5, 45, 0
7, 2896080, Note_on_c, 5, 57, 100
7, 2896320, Note_on_c, 5, 57, 0
7, 2896320, Note_on_c, 5, 55, 100
7, 2896560, Note_on_c, 5, 55, 0
7, 2896560, Note_on_c, 5, 53, 100
7, 2896800, Note_on_c, 5, 53, 0
7, 2896800, Note_on_c, 5, 52, 100
7, 2897040, Note_on_c, 5, 52, 0
7, 2897040, Note_on_c, 5, 64, 100
7, 2897160, Note_on_c, 5, 64, 0
7, 2897160, Note_on_c, 5, 62, 100
7, 2897280, Note_on_c, 5, 62, 0
7, 2897280, Note_on_c, 5, 60, 100
7, 2897520, Note_on_c, 5, 60, 0
7, 2897520, Note_on_c, 5, 58, 100
7, 2897760, Note_on_c, 5, 58, 0
7, 2897760, Note_on_c, 5, 57, 100
7, 2898000, Note_on_c, 5, 57, 0
7, 2898000, Note_on_c, 5, 54, 100
7, 2898240, Note_on_c, 5, 54, 0
7, 2898240, Note_on_c, 5, 55, 100
7, 2898480, Note_on_c, 5, 55, 0
7, 2898480, Note_on_c, 5, 57, 100
7, 2898720, Note_on_c, 5, 57, 0
7, 2898720, Note_on_c, 5, 50, 100
7, 2899200, Note_on_c, 5, 50, 0
7, 2899440, Note_on_c, 5, 52, 100
7, 2899680, Note_on_c, 5, 52, 0
7, 2899680, Note_on_c, 5, 45, 100
7, 2899920, Note_on_c, 5, 45, 0
7, 2899920, Note_on_c, 5, 57, 100
7, 2900160, Note_on_c, 5, 57, 0
7, 2900160, Note_on_c, 5, 55, 100
7, 2900400, Note_on_c, 5, 55, 0
7, 2900400, Note_on_c, 5, 53, 100
7, 2900640, Note_on_c, 5, 53, 0
7, 2900640, Note_on_c, 5, 52, 100
7, 2901600, Note_on_c, 5, 52, 0
7, 2902080, Note_on_c, 5, 55, 100
7, 2902560, Note_on_c, 5, 55, 0
7, 2902560, Note_on_c, 5, 54, 100
7, 2903040, Note_on_c, 5, 54, 0
7, 2903040, Note_on_c, 5, 52, 100
7, 2903520, Note_on_c, 5, 52, 0
7, 2903520, Note_on_c, 5, 50, 100
7, 2904000, Note_on_c, 5, 50, 0
7, 2904000, Note_on_c, 5, 47, 100
7, 2904480, Note_on_c, 5, 47, 0
7, 2904480, Note_on_c, 5, 48, 100
7, 2904960, Note_on_c, 5, 48, 0
7, 2904960, Note_on_c, 5, 50, 100
7, 2905440, Note_on_c, 5, 50, 0
7, 2905440, Note_on_c, 5, 43, 100
7, 2905920, Note_on_c, 5, 43, 0
7, 2905920, Note_on_c, 5, 55, 100
7, 2906400, Note_on_c, 5, 55, 0
7, 2906400, Note_on_c, 5, 54, 100
7, 2906880, Note_on_c, 5, 54, 0
7, 2906880, Note_on_c, 5, 52, 100
7, 2907360, Note_on_c, 5, 52, 0
7, 2907360, Note_on_c, 5, 50, 100
7, 2907840, Note_on_c, 5, 50, 0
7, 2907840, Note_on_c, 5, 47, 100
7, 2908320, Note_on_c, 5, 47, 0
7, 2908320, Note_on_c, 5, 48, 100
7, 2908800, Note_on_c, 5, 48, 0
7, 2908800, Note_on_c, 5, 50, 100
7, 2909280, Note_on_c, 5, 50, 0
7, 2909280, Note_on_c, 5, 43, 100
7, 2909760, Note_on_c, 5, 43, 0
7, 2909760, Note_on_c, 5, 55, 100
7, 2910240, Note_on_c, 5, 55, 0
7, 2910240, Note_on_c, 5, 54, 100
7, 2910720, Note_on_c, 5, 54, 0
7, 2910720, Note_on_c, 5, 52, 100
7, 2911200, Note_on_c, 5, 52, 0
7, 2911200, Note_on_c, 5, 50, 100
7, 2911680, Note_on_c, 5, 50, 0
7, 2911680, Note_on_c, 5, 47, 100
7, 2912160, Note_on_c, 5, 47, 0
7, 2912160, Note_on_c, 5, 48, 100
7, 2912640, Note_on_c, 5, 48, 0
7, 2912640, Note_on_c, 5, 50, 100
7, 2913120, Note_on_c, 5, 50, 0
7, 2913120, Note_on_c, 5, 43, 100
7, 2914080, Note_on_c, 5, 43, 0
7, 2927040, Note_on_c, 5, 55, 100
7, 2927520, Note_on_c, 5, 55, 0
7, 2927520, Note_on_c, 5, 54, 100
7, 2928000, Note_on_c, 5, 54, 0
7, 2928000, Note_on_c, 5, 52, 100
7, 2928480, Note_on_c, 5, 52, 0
7, 2928480, Note_on_c, 5, 50, 100
7, 2928960, Note_on_c, 5, 50, 0
7, 2928960, Note_on_c, 5, 47, 100
7, 2929440, Note_on_c, 5, 47, 0
7, 2929440, Note_on_c, 5, 48, 100
7, 2929920, Note_on_c, 5, 48, 0
7, 2929920, Note_on_c, 5, 50, 100
7, 2930400, Note_on_c, 5, 50, 0
7, 2930400, Note_on_c, 5, 43, 100
7, 2930880, Note_on_c, 5, 43, 0
7, 2930880, Note_on_c, 5, 55, 100
7, 2931360, Note_on_c, 5, 55, 0
7, 2931360, Note_on_c, 5, 54, 100
7, 2931840, Note_on_c, 5, 54, 0
7, 2931840, Note_on_c, 5, 52, 100
7, 2932320, Note_on_c, 5, 52, 0
7, 2932320, Note_on_c, 5, 50, 100
7, 2932800, Note_on_c, 5, 50, 0
7, 2932800, Note_on_c, 5, 47, 100
7, 2933280, Note_on_c, 5, 47, 0
7, 2933280, Note_on_c, 5, 48, 100
7, 2933760, Note_on_c, 5, 48, 0
7, 2933760, Note_on_c, 5, 50, 100
7, 2934240, Note_on_c, 5, 50, 0
7, 2934240, Note_on_c, 5, 43, 100
7, 2934720, Note_on_c, 5, 43, 0
7, 2934720, Note_on_c, 5, 55, 100
7, 2935200, Note_on_c, 5, 55, 0
7, 2935200, Note_on_c, 5, 54, 100
7, 2935680, Note_on_c, 5, 54, 0
7, 2935680, Note_on_c, 5, 52, 100
7, 2936160, Note_on_c, 5, 52, 0
7, 2936160, Note_on_c, 5, 50, 100
7, 2936640, Note_on_c, 5, 50, 0
7, 2936640, Note_on_c, 5, 47, 100
7, 2937120, Note_on_c, 5, 47, 0
7, 2937120, Note_on_c, 5, 48, 100
7, 2937600, Note_on_c, 5, 48, 0
7, 2937600, Note_on_c, 5, 50, 100
7, 2938080, Note_on_c, 5, 50, 0
7, 2938080, Note_on_c, 5, 43, 100
7, 2939040, Note_on_c, 5, 43, 0
7, 2940000, Note_on_c, 5, 55, 100
7, 2940960, Note_on_c, 5, 55, 0
7, 2940960, Note_on_c, 5, 54, 100
7, 2941920, Note_on_c, 5, 54, 0
7, 2941920, Note_on_c, 5, 52, 100
7, 2942880, Note_on_c, 5, 52, 0
7, 2942880, Note_on_c, 5, 50, 100
7, 2943840, Note_on_c, 5, 50, 0
7, 2943840, Note_on_c, 5, 47, 100
7, 2944800, Note_on_c, 5, 47, 0
7, 2944800, Note_on_c, 5, 48, 100
7, 2945760, Note_on_c, 5, 48, 0
7, 2945760, Note_on_c, 5, 50, 100
7, 2946720, Note_on_c, 5, 50, 0
7, 2946720, Note_on_c, 5, 43, 100
7, 2947680, Note_on_c, 5, 43, 0
7, 2947680, Note_on_c, 5, 55, 100
7, 2948640, Note_on_c, 5, 55, 0
7, 2948640, Note_on_c, 5, 54, 100
7, 2949600, Note_on_c, 5, 54, 0
7, 2949600, Note_on_c, 5, 52, 100
7, 2950560, Note_on_c, 5, 52, 0
7, 2950560, Note_on_c, 5, 50, 100
7, 2951520, Note_on_c, 5, 50, 0
7, 2951520, Note_on_c, 5, 47, 100
7, 2952480, Note_on_c, 5, 47, 0
7, 2952480, Note_on_c, 5, 48, 100
7, 2953440, Note_on_c, 5, 48, 0
7, 2953440, Note_on_c, 5, 50, 100
7, 2954400, Note_on_c, 5, 50, 0
7, 2954400, Note_on_c, 5, 43, 100
7, 2955360, Note_on_c, 5, 43, 0
7, 2955360, Note_on_c, 5, 55, 100
7, 2956320, Note_on_c, 5, 55, 0
7, 2956320, Note_on_c, 5, 54, 100
7, 2957280, Note_on_c, 5, 54, 0
7, 2957280, Note_on_c, 5, 52, 100
7, 2958240, Note_on_c, 5, 52, 0
7, 2958240, Note_on_c, 5, 50, 100
7, 2960160, Note_on_c, 5, 50, 0
7, 2962560, Note_on_c, 5, 50, 100
7, 2963040, Note_on_c, 5, 50, 0
7, 2963040, Note_on_c, 5, 52, 100
7, 2963520, Note_on_c, 5, 52, 0
7, 2963520, Note_on_c, 5, 54, 100
7, 2964000, Note_on_c, 5, 54, 0
7, 2964000, Note_on_c, 5, 55, 100
7, 2964480, Note_on_c, 5, 55, 0
7, 2964480, Note_on_c, 5, 59, 100
7, 2964960, Note_on_c, 5, 59, 0
7, 2964960, Note_on_c, 5, 57, 100
7, 2965440, Note_on_c, 5, 57, 0
7, 2965440, Note_on_c, 5, 55, 100
7, 2965920, Note_on_c, 5, 55, 0
7, 2965920, Note_on_c, 5, 62, 100
7, 2966400, Note_on_c, 5, 62, 0
7, 2966400, Note_on_c, 5, 50, 100
7, 2966880, Note_on_c, 5, 50, 0
7, 2966880, Note_on_c, 5, 52, 100
7, 2967360, Note_on_c, 5, 52, 0
7, 2967360, Note_on_c, 5, 54, 100
7, 2967840, Note_on_c, 5, 54, 0
7, 2967840, Note_on_c, 5, 55, 100
7, 2968320, Note_on_c, 5, 55, 0
7, 2968320, Note_on_c, 5, 59, 100
7, 2968800, Note_on_c, 5, 59, 0
7, 2968800, Note_on_c, 5, 57, 100
7, 2969280, Note_on_c, 5, 57, 0
7, 2969280, Note_on_c, 5, 55, 100
7, 2969760, Note_on_c, 5, 55, 0
7, 2969760, Note_on_c, 5, 62, 100
7, 2970240, Note_on_c, 5, 62, 0
7, 2970240, Note_on_c, 5, 50, 100
7, 2970720, Note_on_c, 5, 50, 0
7, 2970720, Note_on_c, 5, 52, 100
7, 2971200, Note_on_c, 5, 52, 0
7, 2971200, Note_on_c, 5, 54, 100
7, 2971680, Note_on_c, 5, 54, 0
7, 2971680, Note_on_c, 5, 55, 100
7, 2973600, Note_on_c, 5, 55, 0
7, 2973600, End_track
8, 0, Start_track
8, 0, MIDI_port, 0
8, 0, Title_t, "Aria - 30 Variations - Aria da Capo"
8, 0, Program_c, 6, 6
8, 0, Control_c, 6, 7, 100
8, 0, Control_c, 6, 10, 49
8, 0, Note_on_c, 6, 55, 100
8, 1440, Note_on_c, 6, 55, 0
8, 1440, Note_on_c, 6, 54, 100
8, 2880, Note_on_c, 6, 54, 0
8, 2880, Note_on_c, 6, 52, 100
8, 4320, Note_on_c, 6, 52, 0
8, 4320, Note_on_c, 6, 50, 100
8, 5520, Note_on_c, 6, 50, 0
8, 5520, Note_on_c, 6, 48, 100
8, 5760, Note_on_c, 6, 48, 0
8, 5760, Note_on_c, 6, 47, 100
8, 7200, Note_on_c, 6, 47, 0
8, 7200, Note_on_c, 6, 48, 100
8, 8400, Note_on_c, 6, 48, 0
8, 8400, Note_on_c, 6, 50, 100
8, 8640, Note_on_c, 6, 50, 0
8, 8640, Note_on_c, 6, 52, 100
8, 8880, Note_on_c, 6, 52, 0
8, 8880, Note_on_c, 6, 48, 100
8, 9120, Note_on_c, 6, 48, 0
8, 9120, Note_on_c, 6, 50, 100
8, 10080, Note_on_c, 6, 50, 0
8, 10080, Note_on_c, 6, 43, 100
8, 10800, Note_on_c, 6, 43, 0
8, 10800, Note_on_c, 6, 50, 100
8, 11040, Note_on_c, 6, 50, 0
8, 11040, Note_on_c, 6, 52, 100
8, 11070, Note_on_c, 6, 52, 0
8, 11070, Note_on_c, 6, 50, 100
8, 11100, Note_on_c, 6, 50, 0
8, 11100, Note_on_c, 6, 52, 100
8, 11400, Note_on_c, 6, 52, 0
8, 11400, Note_on_c, 6, 54, 100
8, 11520, Note_on_c, 6, 54, 0
8, 11520, Note_on_c, 6, 55, 100
8, 13440, Note_on_c, 6, 55, 0
8, 13440, Note_on_c, 6, 55, 100
8, 13480, Note_on_c, 6, 55, 0
8, 13480, Note_on_c, 6, 54, 100
8, 13520, Note_on_c, 6, 54, 0
8, 13520, Note_on_c, 6, 55, 100
8, 13560, Note_on_c, 6, 55, 0
8, 13560, Note_on_c, 6, 54, 100
8, 13680, Note_on_c, 6, 54, 0
8, 13680, Note_on_c, 6, 52, 100
8, 13920, Note_on_c, 6, 52, 0
8, 13920, Note_on_c, 6, 54, 100
8, 14160, Note_on_c, 6, 54, 0
8, 14160, Note_on_c, 6, 59, 100
8, 14400, Note_on_c, 6, 59, 0
8, 14400, Note_on_c, 6, 52, 100
8, 15120, Note_on_c, 6, 52, 0
8, 15120, Note_on_c, 6, 52, 100
8, 15360, Note_on_c, 6, 52, 0
8, 15360, Note_on_c, 6, 54, 100
8, 15600, Note_on_c, 6, 54, 0
8, 15600, Note_on_c, 6, 55, 100
8, 15840, Note_on_c, 6, 55, 0
8, 15840, Note_on_c, 6, 57, 100
8, 16560, Note_on_c, 6, 57, 0
8, 16560, Note_on_c, 6, 59, 100
8, 16800, Note_on_c, 6, 59, 0
8, 16800, Note_on_c, 6, 57, 100
8, 17040, Note_on_c, 6, 57, 0
8, 17040, Note_on_c, 6, 55, 100
8, 17280, Note_on_c, 6, 55, 0
8, 17280, Note_on_c, 6, 54, 100
8, 18720, Note_on_c, 6, 54, 0
8, 18720, Note_on_c, 6, 55, 100
8, 20160, Note_on_c, 6, 55, 0
8, 20160, Note_on_c, 6, 57, 100
8, 21600, Note_on_c, 6, 57, 0
8, 21600, Note_on_c, 6, 50, 100
8, 23040, Note_on_c, 6, 50, 0
8, 23040, Note_on_c, 6, 55, 100
8, 24480, Note_on_c, 6, 55, 0
8, 24480, Note_on_c, 6, 54, 100
8, 25920, Note_on_c, 6, 54, 0
8, 25920, Note_on_c, 6, 52, 100
8, 27360, Note_on_c, 6, 52, 0
8, 27360, Note_on_c, 6, 50, 100
8, 28560, Note_on_c, 6, 50, 0
8, 28560, Note_on_c, 6, 48, 100
8, 28800, Note_on_c, 6, 48, 0
8, 28800, Note_on_c, 6, 47, 100
8, 30240, Note_on_c, 6, 47, 0
8, 30240, Note_on_c, 6, 48, 100
8, 31440, Note_on_c, 6, 48, 0
8, 31440, Note_on_c, 6, 50, 100
8, 31680, Note_on_c, 6, 50, 0
8, 31680, Note_on_c, 6, 52, 100
8, 31920, Note_on_c, 6, 52, 0
8, 31920, Note_on_c, 6, 48, 100
8, 32160, Note_on_c, 6, 48, 0
8, 32160, Note_on_c, 6, 50, 100
8, 33120, Note_on_c, 6, 50, 0
8, 33120, Note_on_c, 6, 43, 100
8, 33840, Note_on_c, 6, 43, 0
8, 33840, Note_on_c, 6, 50, 100
8, 34080, Note_on_c, 6, 50, 0
8, 34080, Note_on_c, 6, 52, 100
8, 34110, Note_on_c, 6, 52, 0
8, 34110, Note_on_c, 6, 50, 100
8, 34140, Note_on_c, 6, 50, 0
8, 34140, Note_on_c, 6, 52, 100
8, 34440, Note_on_c, 6, 52, 0
8, 34440, Note_on_c, 6, 54, 100
8, 34560, Note_on_c, 6, 54, 0
8, 34560, Note_on_c, 6, 55, 100
8, 36480, Note_on_c, 6, 55, 0
8, 36480, Note_on_c, 6, 55, 100
8, 36520, Note_on_c, 6, 55, 0
8, 36520, Note_on_c, 6, 54, 100
8, 36560, Note_on_c, 6, 54, 0
8, 36560, Note_on_c, 6, 55, 100
8, 36600, Note_on_c, 6, 55, 0
8, 36600, Note_on_c, 6, 54, 100
8, 36720, Note_on_c, 6, 54, 0
8, 36720, Note_on_c, 6, 52, 100
8, 36960, Note_on_c, 6, 52, 0
8, 36960, Note_on_c, 6, 54, 100
8, 37200, Note_on_c, 6, 54, 0
8, 37200, Note_on_c, 6, 59, 100
8, 37440, Note_on_c, 6, 59, 0
8, 37440, Note_on_c, 6, 52, 100
8, 38160, Note_on_c, 6, 52, 0
8, 38160, Note_on_c, 6, 52, 100
8, 38400, Note_on_c, 6, 52, 0
8, 38400, Note_on_c, 6, 54, 100
8, 38640, Note_on_c, 6, 54, 0
8, 38640, Note_on_c, 6, 55, 100
8, 38880, Note_on_c, 6, 55, 0
8, 38880, Note_on_c, 6, 57, 100
8, 39600, Note_on_c, 6, 57, 0
8, 39600, Note_on_c, 6, 59, 100
8, 39840, Note_on_c, 6, 59, 0
8, 39840, Note_on_c, 6, 57, 100
8, 40080, Note_on_c, 6, 57, 0
8, 40080, Note_on_c, 6, 55, 100
8, 40320, Note_on_c, 6, 55, 0
8, 40320, Note_on_c, 6, 54, 100
8, 41760, Note_on_c, 6, 54, 0
8, 41760, Note_on_c, 6, 55, 100
8, 43200, Note_on_c, 6, 55, 0
8, 43200, Note_on_c, 6, 57, 100
8, 44640, Note_on_c, 6, 57, 0
8, 44640, Note_on_c, 6, 50, 100
8, 46080, Note_on_c, 6, 50, 0
8, 54720, Note_on_c, 6, 66, 100
8, 55440, Note_on_c, 6, 66, 0
8, 55440, Note_on_c, 6, 72, 100
8, 55680, Note_on_c, 6, 72, 0
8, 55680, Note_on_c, 6, 71, 100
8, 55920, Note_on_c, 6, 71, 0
8, 55920, Note_on_c, 6, 69, 100
8, 56640, Note_on_c, 6, 69, 0
8, 56640, Note_on_c, 6, 67, 100
8, 57600, Note_on_c, 6, 67, 0
8, 58560, Note_on_c, 6, 57, 100
8, 59280, Note_on_c, 6, 57, 0
8, 59280, Note_on_c, 6, 54, 100
8, 59520, Note_on_c, 6, 54, 0
8, 59520, Note_on_c, 6, 52, 100
8, 59640, Note_on_c, 6, 52, 0
8, 59640, Note_on_c, 6, 50, 100
8, 59760, Note_on_c, 6, 50, 0
8, 59760, Note_on_c, 6, 52, 100
8, 59880, Note_on_c, 6, 52, 0
8, 59880, Note_on_c, 6, 54, 100
8, 60000, Note_on_c, 6, 54, 0
8, 60000, Note_on_c, 6, 55, 100
8, 60120, Note_on_c, 6, 55, 0
8, 60120, Note_on_c, 6, 54, 100
8, 60240, Note_on_c, 6, 54, 0
8, 60240, Note_on_c, 6, 55, 100
8, 60720, Note_on_c, 6, 55, 0
8, 60720, Note_on_c, 6, 52, 100
8, 60960, Note_on_c, 6, 52, 0
8, 60960, Note_on_c, 6, 57, 100
8, 61200, Note_on_c, 6, 57, 0
8, 61200, Note_on_c, 6, 64, 100
8, 61560, Note_on_c, 6, 64, 0
8, 61560, Note_on_c, 6, 71, 100
8, 61680, Note_on_c, 6, 71, 0
8, 61680, Note_on_c, 6, 69, 100
8, 61800, Note_on_c, 6, 69, 0
8, 61800, Note_on_c, 6, 67, 100
8, 61920, Note_on_c, 6, 67, 0
8, 61920, Note_on_c, 6, 66, 100
8, 62400, Note_on_c, 6, 66, 0
8, 62640, Note_on_c, 6, 66, 100
8, 63360, Note_on_c, 6, 66, 0
8, 63360, Note_on_c, 6, 67, 100
8, 63600, Note_on_c, 6, 67, 0
8, 64080, Note_on_c, 6, 62, 100
8, 64440, Note_on_c, 6, 62, 0
8, 64440, Note_on_c, 6, 67, 100
8, 65280, Note_on_c, 6, 67, 0
8, 65520, Note_on_c, 6, 67, 100
8, 65880, Note_on_c, 6, 67, 0
8, 65880, Note_on_c, 6, 72, 100
8, 66240, Note_on_c, 6, 72, 0
8, 67800, Note_on_c, 6, 60, 100
8, 67920, Note_on_c, 6, 60, 0
8, 67920, Note_on_c, 6, 59, 100
8, 68040, Note_on_c, 6, 59, 0
8, 68040, Note_on_c, 6, 57, 100
8, 68160, Note_on_c, 6, 57, 0
8, 68160, Note_on_c, 6, 59, 100
8, 69120, Note_on_c, 6, 59, 0
8, 77760, Note_on_c, 6, 66, 100
8, 78480, Note_on_c, 6, 66, 0
8, 78480, Note_on_c, 6, 72, 100
8, 78720, Note_on_c, 6, 72, 0
8, 78720, Note_on_c, 6, 71, 100
8, 78960, Note_on_c, 6, 71, 0
8, 78960, Note_on_c, 6, 69, 100
8, 79680, Note_on_c, 6, 69, 0
8, 79680, Note_on_c, 6, 67, 100
8, 80640, Note_on_c, 6, 67, 0
8, 81600, Note_on_c, 6, 57, 100
8, 82320, Note_on_c, 6, 57, 0
8, 82320, Note_on_c, 6, 54, 100
8, 82560, Note_on_c, 6, 54, 0
8, 82560, Note_on_c, 6, 52, 100
8, 82680, Note_on_c, 6, 52, 0
8, 82680, Note_on_c, 6, 50, 100
8, 82800, Note_on_c, 6, 50, 0
8, 82800, Note_on_c, 6, 52, 100
8, 82920, Note_on_c, 6, 52, 0
8, 82920, Note_on_c, 6, 54, 100
8, 83040, Note_on_c, 6, 54, 0
8, 83040, Note_on_c, 6, 55, 100
8, 83160, Note_on_c, 6, 55, 0
8, 83160, Note_on_c, 6, 54, 100
8, 83280, Note_on_c, 6, 54, 0
8, 83280, Note_on_c, 6, 55, 100
8, 83760, Note_on_c, 6, 55, 0
8, 83760, Note_on_c, 6, 52, 100
8, 84000, Note_on_c, 6, 52, 0
8, 84000, Note_on_c, 6, 57, 100
8, 84240, Note_on_c, 6, 57, 0
8, 84240, Note_on_c, 6, 64, 100
8, 84600, Note_on_c, 6, 64, 0
8, 84600, Note_on_c, 6, 71, 100
8, 84720, Note_on_c, 6, 71, 0
8, 84720, Note_on_c, 6, 69, 100
8, 84840, Note_on_c, 6, 69, 0
8, 84840, Note_on_c, 6, 67, 100
8, 84960, Note_on_c, 6, 67, 0
8, 84960, Note_on_c, 6, 66, 100
8, 85440, Note_on_c, 6, 66, 0
8, 85680, Note_on_c, 6, 66, 100
8, 86400, Note_on_c, 6, 66, 0
8, 86400, Note_on_c, 6, 67, 100
8, 86640, Note_on_c, 6, 67, 0
8, 87120, Note_on_c, 6, 62, 100
8, 87480, Note_on_c, 6, 62, 0
8, 87480, Note_on_c, 6, 67, 100
8, 88320, Note_on_c, 6, 67, 0
8, 88560, Note_on_c, 6, 67, 100
8, 88920, Note_on_c, 6, 67, 0
8, 88920, Note_on_c, 6, 72, 100
8, 89280, Note_on_c, 6, 72, 0
8, 90840, Note_on_c, 6, 60, 100
8, 90960, Note_on_c, 6, 60, 0
8, 90960, Note_on_c, 6, 59, 100
8, 91080, Note_on_c, 6, 59, 0
8, 91080, Note_on_c, 6, 57, 100
8, 91200, Note_on_c, 6, 57, 0
8, 91200, Note_on_c, 6, 59, 100
8, 92160, Note_on_c, 6, 59, 0
8, 337920, Note_on_c, 6, 55, 100
8, 338640, Note_on_c, 6, 55, 0
8, 338640, Note_on_c, 6, 54, 100
8, 339360, Note_on_c, 6, 54, 0
8, 339360, Note_on_c, 6, 52, 100
8, 340080, Note_on_c, 6, 52, 0
8, 340320, Note_on_c, 6, 50, 100
8, 340560, Note_on_c, 6, 50, 0
8, 340560, Note_on_c, 6, 54, 100
8, 340800, Note_on_c, 6, 54, 0
8, 340800, Note_on_c, 6, 47, 100
8, 341520, Note_on_c, 6, 47, 0
8, 341520, Note_on_c, 6, 48, 100
8, 342240, Note_on_c, 6, 48, 0
8, 342240, Note_on_c, 6, 50, 100
8, 342960, Note_on_c, 6, 50, 0
8, 343200, Note_on_c, 6, 47, 100
8, 343440, Note_on_c, 6, 47, 0
8, 343440, Note_on_c, 6, 50, 100
8, 343680, Note_on_c, 6, 50, 0
8, 343680, Note_on_c, 6, 43, 100
8, 343920, Note_on_c, 6, 43, 0
8, 343920, Note_on_c, 6, 55, 100
8, 344640, Note_on_c, 6, 55, 0
8, 344640, Note_on_c, 6, 54, 100
8, 345360, Note_on_c, 6, 54, 0
8, 345360, Note_on_c, 6, 52, 100
8, 345600, Note_on_c, 6, 52, 0
8, 345600, Note_on_c, 6, 55, 100
8, 345840, Note_on_c, 6, 55, 0
8, 345840, Note_on_c, 6, 49, 100
8, 346080, Note_on_c, 6, 49, 0
8, 346080, Note_on_c, 6, 57, 100
8, 346320, Note_on_c, 6, 57, 0
8, 346320, Note_on_c, 6, 61, 100
8, 346560, Note_on_c, 6, 61, 0
8, 346560, Note_on_c, 6, 54, 100
8, 347280, Note_on_c, 6, 54, 0
8, 347280, Note_on_c, 6, 55, 100
8, 347520, Note_on_c, 6, 55, 0
8, 347520, Note_on_c, 6, 43, 100
8, 348240, Note_on_c, 6, 43, 0
8, 348240, Note_on_c, 6, 42, 100
8, 348480, Note_on_c, 6, 42, 0
8, 348480, Note_on_c, 6, 45, 100
8, 348720, Note_on_c, 6, 45, 0
8, 348720, Note_on_c, 6, 38, 100
8, 349080, Note_on_c, 6, 38, 0
8, 349080, Note_on_c, 6, 50, 100
8, 349200, Note_on_c, 6, 50, 0
8, 349200, Note_on_c, 6, 52, 100
8, 349320, Note_on_c, 6, 52, 0
8, 349320, Note_on_c, 6, 54, 100
8, 349440, Note_on_c, 6, 54, 0
8, 349440, Note_on_c, 6, 55, 100
8, 350160, Note_on_c, 6, 55, 0
8, 350160, Note_on_c, 6, 54, 100
8, 350880, Note_on_c, 6, 54, 0
8, 350880, Note_on_c, 6, 52, 100
8, 351600, Note_on_c, 6, 52, 0
8, 351840, Note_on_c, 6, 50, 100
8, 352080, Note_on_c, 6, 50, 0
8, 352080, Note_on_c, 6, 54, 100
8, 352320, Note_on_c, 6, 54, 0
8, 352320, Note_on_c, 6, 47, 100
8, 353040, Note_on_c, 6, 47, 0
8, 353040, Note_on_c, 6, 48, 100
8, 353760, Note_on_c, 6, 48, 0
8, 353760, Note_on_c, 6, 50, 100
8, 354480, Note_on_c, 6, 50, 0
8, 354720, Note_on_c, 6, 47, 100
8, 354960, Note_on_c, 6, 47, 0
8, 354960, Note_on_c, 6, 50, 100
8, 355200, Note_on_c, 6, 50, 0
8, 355200, Note_on_c, 6, 43, 100
8, 355440, Note_on_c, 6, 43, 0
8, 355440, Note_on_c, 6, 55, 100
8, 356160, Note_on_c, 6, 55, 0
8, 356160, Note_on_c, 6, 54, 100
8, 356880, Note_on_c, 6, 54, 0
8, 356880, Note_on_c, 6, 52, 100
8, 357120, Note_on_c, 6, 52, 0
8, 357120, Note_on_c, 6, 55, 100
8, 357360, Note_on_c, 6, 55, 0
8, 357360, Note_on_c, 6, 49, 100
8, 357600, Note_on_c, 6, 49, 0
8, 357600, Note_on_c, 6, 57, 100
8, 357840, Note_on_c, 6, 57, 0
8, 357840, Note_on_c, 6, 61, 100
8, 358080, Note_on_c, 6, 61, 0
8, 358080, Note_on_c, 6, 54, 100
8, 358800, Note_on_c, 6, 54, 0
8, 358800, Note_on_c, 6, 55, 100
8, 359040, Note_on_c, 6, 55, 0
8, 359040, Note_on_c, 6, 43, 100
8, 359760, Note_on_c, 6, 43, 0
8, 359760, Note_on_c, 6, 42, 100
8, 360000, Note_on_c, 6, 42, 0
8, 360000, Note_on_c, 6, 45, 100
8, 360240, Note_on_c, 6, 45, 0
8, 360240, Note_on_c, 6, 38, 100
8, 360600, Note_on_c, 6, 38, 0
8, 360600, Note_on_c, 6, 57, 100
8, 360720, Note_on_c, 6, 57, 0
8, 360720, Note_on_c, 6, 59, 100
8, 360840, Note_on_c, 6, 59, 0
8, 360840, Note_on_c, 6, 61, 100
8, 360960, Note_on_c, 6, 61, 0
8, 360960, Note_on_c, 6, 62, 100
8, 361440, Note_on_c, 6, 62, 0
8, 361440, Note_on_c, 6, 60, 100
8, 361680, Note_on_c, 6, 60, 0
8, 361680, Note_on_c, 6, 59, 100
8, 362160, Note_on_c, 6, 59, 0
8, 362160, Note_on_c, 6, 55, 100
8, 362400, Note_on_c, 6, 55, 0
8, 362400, Note_on_c, 6, 60, 100
8, 362640, Note_on_c, 6, 60, 0
8, 362640, Note_on_c, 6, 54, 100
8, 362880, Note_on_c, 6, 54, 0
8, 362880, Note_on_c, 6, 57, 100
8, 363120, Note_on_c, 6, 57, 0
8, 363120, Note_on_c, 6, 59, 100
8, 363360, Note_on_c, 6, 59, 0
8, 363360, Note_on_c, 6, 51, 100
8, 363600, Note_on_c, 6, 51, 0
8, 363600, Note_on_c, 6, 47, 100
8, 363840, Note_on_c, 6, 47, 0
8, 363840, Note_on_c, 6, 52, 100
8, 364080, Note_on_c, 6, 52, 0
8, 364080, Note_on_c, 6, 55, 100
8, 364320, Note_on_c, 6, 55, 0
8, 364320, Note_on_c, 6, 52, 100
8, 364560, Note_on_c, 6, 52, 0
8, 364560, Note_on_c, 6, 57, 100
8, 364800, Note_on_c, 6, 57, 0
8, 364800, Note_on_c, 6, 54, 100
8, 365040, Note_on_c, 6, 54, 0
8, 365040, Note_on_c, 6, 52, 100
8, 365280, Note_on_c, 6, 52, 0
8, 365280, Note_on_c, 6, 57, 100
8, 365520, Note_on_c, 6, 57, 0
8, 365520, Note_on_c, 6, 59, 100
8, 365760, Note_on_c, 6, 59, 0
8, 365760, Note_on_c, 6, 47, 100
8, 366000, Note_on_c, 6, 47, 0
8, 366000, Note_on_c, 6, 52, 100
8, 366480, Note_on_c, 6, 52, 0
8, 366480, Note_on_c, 6, 50, 100
8, 366720, Note_on_c, 6, 50, 0
8, 366720, Note_on_c, 6, 48, 100
8, 367680, Note_on_c, 6, 48, 0
8, 367680, Note_on_c, 6, 47, 100
8, 368400, Note_on_c, 6, 47, 0
8, 368400, Note_on_c, 6, 45, 100
8, 368640, Note_on_c, 6, 45, 0
8, 368640, Note_on_c, 6, 48, 100
8, 368880, Note_on_c, 6, 48, 0
8, 368880, Note_on_c, 6, 42, 100
8, 369120, Note_on_c, 6, 42, 0
8, 369120, Note_on_c, 6, 38, 100
8, 369360, Note_on_c, 6, 38, 0
8, 369360, Note_on_c, 6, 42, 100
8, 369600, Note_on_c, 6, 42, 0
8, 369600, Note_on_c, 6, 43, 100
8, 369840, Note_on_c, 6, 43, 0
8, 369840, Note_on_c, 6, 47, 100
8, 370080, Note_on_c, 6, 47, 0
8, 370080, Note_on_c, 6, 43, 100
8, 370320, Note_on_c, 6, 43, 0
8, 370320, Note_on_c, 6, 48, 100
8, 371280, Note_on_c, 6, 48, 0
8, 371280, Note_on_c, 6, 47, 100
8, 371520, Note_on_c, 6, 47, 0
8, 371520, Note_on_c, 6, 50, 100
8, 371760, Note_on_c, 6, 50, 0
8, 371760, Note_on_c, 6, 43, 100
8, 372120, Note_on_c, 6, 43, 0
8, 372120, Note_on_c, 6, 57, 100
8, 372240, Note_on_c, 6, 57, 0
8, 372240, Note_on_c, 6, 59, 100
8, 372360, Note_on_c, 6, 59, 0
8, 372360, Note_on_c, 6, 61, 100
8, 372480, Note_on_c, 6, 61, 0
8, 372480, Note_on_c, 6, 62, 100
8, 372960, Note_on_c, 6, 62, 0
8, 372960, Note_on_c, 6, 60, 100
8, 373200, Note_on_c, 6, 60, 0
8, 373200, Note_on_c, 6, 59, 100
8, 373680, Note_on_c, 6, 59, 0
8, 373680, Note_on_c, 6, 55, 100
8, 373920, Note_on_c, 6, 55, 0
8, 373920, Note_on_c, 6, 60, 100
8, 374160, Note_on_c, 6, 60, 0
8, 374160, Note_on_c, 6, 54, 100
8, 374400, Note_on_c, 6, 54, 0
8, 374400, Note_on_c, 6, 57, 100
8, 374640, Note_on_c, 6, 57, 0
8, 374640, Note_on_c, 6, 59, 100
8, 374880, Note_on_c, 6, 59, 0
8, 374880, Note_on_c, 6, 51, 100
8, 375120, Note_on_c, 6, 51, 0
8, 375120, Note_on_c, 6, 47, 100
8, 375360, Note_on_c, 6, 47, 0
8, 375360, Note_on_c, 6, 52, 100
8, 375600, Note_on_c, 6, 52, 0
8, 375600, Note_on_c, 6, 55, 100
8, 375840, Note_on_c, 6, 55, 0
8, 375840, Note_on_c, 6, 52, 100
8, 376080, Note_on_c, 6, 52, 0
8, 376080, Note_on_c, 6, 57, 100
8, 376320, Note_on_c, 6, 57, 0
8, 376320, Note_on_c, 6, 54, 100
8, 376560, Note_on_c, 6, 54, 0
8, 376560, Note_on_c, 6, 52, 100
8, 376800, Note_on_c, 6, 52, 0
8, 376800, Note_on_c, 6, 57, 100
8, 377040, Note_on_c, 6, 57, 0
8, 377040, Note_on_c, 6, 59, 100
8, 377280, Note_on_c, 6, 59, 0
8, 377280, Note_on_c, 6, 47, 100
8, 377520, Note_on_c, 6, 47, 0
8, 377520, Note_on_c, 6, 52, 100
8, 378000, Note_on_c, 6, 52, 0
8, 378000, Note_on_c, 6, 50, 100
8, 378240, Note_on_c, 6, 50, 0
8, 378240, Note_on_c, 6, 48, 100
8, 379200, Note_on_c, 6, 48, 0
8, 379200, Note_on_c, 6, 47, 100
8, 379920, Note_on_c, 6, 47, 0
8, 379920, Note_on_c, 6, 45, 100
8, 380160, Note_on_c, 6, 45, 0
8, 380160, Note_on_c, 6, 48, 100
8, 380400, Note_on_c, 6, 48, 0
8, 380400, Note_on_c, 6, 42, 100
8, 380640, Note_on_c, 6, 42, 0
8, 380640, Note_on_c, 6, 38, 100
8, 380880, Note_on_c, 6, 38, 0
8, 380880, Note_on_c, 6, 42, 100
8, 381120, Note_on_c, 6, 42, 0
8, 381120, Note_on_c, 6, 43, 100
8, 381360, Note_on_c, 6, 43, 0
8, 381360, Note_on_c, 6, 47, 100
8, 381600, Note_on_c, 6, 47, 0
8, 381600, Note_on_c, 6, 43, 100
8, 381840, Note_on_c, 6, 43, 0
8, 381840, Note_on_c, 6, 48, 100
8, 382800, Note_on_c, 6, 48, 0
8, 382800, Note_on_c, 6, 47, 100
8, 383040, Note_on_c, 6, 47, 0
8, 383040, Note_on_c, 6, 50, 100
8, 383280, Note_on_c, 6, 50, 0
8, 383280, Note_on_c, 6, 43, 100
8, 383760, Note_on_c, 6, 43, 0
8, 768000, Note_on_c, 6, 55, 100
8, 768120, Note_on_c, 6, 55, 0
8, 768120, Note_on_c, 6, 54, 100
8, 768240, Note_on_c, 6, 54, 0
8, 768240, Note_on_c, 6, 55, 100
8, 768960, Note_on_c, 6, 55, 0
8, 768960, Note_on_c, 6, 57, 100
8, 769080, Note_on_c, 6, 57, 0
8, 769080, Note_on_c, 6, 55, 100
8, 769200, Note_on_c, 6, 55, 0
8, 769200, Note_on_c, 6, 57, 100
8, 769320, Note_on_c, 6, 57, 0
8, 769320, Note_on_c, 6, 55, 100
8, 769440, Note_on_c, 6, 55, 0
8, 769440, Note_on_c, 6, 57, 100
8, 769560, Note_on_c, 6, 57, 0
8, 769560, Note_on_c, 6, 55, 100
8, 769680, Note_on_c, 6, 55, 0
8, 769680, Note_on_c, 6, 54, 100
8, 769800, Note_on_c, 6, 54, 0
8, 769800, Note_on_c, 6, 55, 100
8, 769920, Note_on_c, 6, 55, 0
8, 769920, Note_on_c, 6, 57, 100
8, 770400, Note_on_c, 6, 57, 0
8, 770400, Note_on_c, 6, 54, 100
8, 770880, Note_on_c, 6, 54, 0
8, 770880, Note_on_c, 6, 50, 100
8, 771360, Note_on_c, 6, 50, 0
8, 771360, Note_on_c, 6, 54, 100
8, 771840, Note_on_c, 6, 54, 0
8, 771840, Note_on_c, 6, 52, 100
8, 772320, Note_on_c, 6, 52, 0
8, 772320, Note_on_c, 6, 57, 100
8, 772800, Note_on_c, 6, 57, 0
8, 772800, Note_on_c, 6, 45, 100
8, 773280, Note_on_c, 6, 45, 0
8, 773280, Note_on_c, 6, 55, 100
8, 773760, Note_on_c, 6, 55, 0
8, 773760, Note_on_c, 6, 55, 100
8, 773840, Note_on_c, 6, 55, 0
8, 773840, Note_on_c, 6, 54, 100
8, 773920, Note_on_c, 6, 54, 0
8, 773920, Note_on_c, 6, 55, 100
8, 774000, Note_on_c, 6, 55, 0
8, 774000, Note_on_c, 6, 54, 100
8, 774240, Note_on_c, 6, 54, 0
8, 774240, Note_on_c, 6, 52, 100
8, 774480, Note_on_c, 6, 52, 0
8, 774480, Note_on_c, 6, 54, 100
8, 774720, Note_on_c, 6, 54, 0
8, 774720, Note_on_c, 6, 50, 100
8, 774960, Note_on_c, 6, 50, 0
8, 774960, Note_on_c, 6, 52, 100
8, 775200, Note_on_c, 6, 52, 0
8, 775200, Note_on_c, 6, 48, 100
8, 775440, Note_on_c, 6, 48, 0
8, 775440, Note_on_c, 6, 50, 100
8, 775680, Note_on_c, 6, 50, 0
8, 775680, Note_on_c, 6, 47, 100
8, 775920, Note_on_c, 6, 47, 0
8, 775920, Note_on_c, 6, 50, 100
8, 776160, Note_on_c, 6, 50, 0
8, 776160, Note_on_c, 6, 52, 100
8, 776400, Note_on_c, 6, 52, 0
8, 776400, Note_on_c, 6, 54, 100
8, 776640, Note_on_c, 6, 54, 0
8, 776640, Note_on_c, 6, 55, 100
8, 777120, Note_on_c, 6, 55, 0
8, 777120, Note_on_c, 6, 47, 100
8, 777600, Note_on_c, 6, 47, 0
8, 777600, Note_on_c, 6, 48, 100
8, 778560, Note_on_c, 6, 48, 0
8, 779040, Note_on_c, 6, 45, 100
8, 779520, Note_on_c, 6, 45, 0
8, 779520, Note_on_c, 6, 42, 100
8, 780480, Note_on_c, 6, 42, 0
8, 780960, Note_on_c, 6, 38, 100
8, 781440, Note_on_c, 6, 38, 0
8, 781440, Note_on_c, 6, 43, 100
8, 781920, Note_on_c, 6, 43, 0
8, 781920, Note_on_c, 6, 50, 100
8, 782400, Note_on_c, 6, 50, 0
8, 782400, Note_on_c, 6, 47, 100
8, 782880, Note_on_c, 6, 47, 0
8, 782880, Note_on_c, 6, 50, 100
8, 783360, Note_on_c, 6, 50, 0
8, 783360, Note_on_c, 6, 55, 100
8, 784320, Note_on_c, 6, 55, 0
8, 784800, Note_on_c, 6, 52, 100
8, 785280, Note_on_c, 6, 52, 0
8, 785280, Note_on_c, 6, 54, 100
8, 786240, Note_on_c, 6, 54, 0
8, 786720, Note_on_c, 6, 50, 100
8, 787200, Note_on_c, 6, 50, 0
8, 787200, Note_on_c, 6, 55, 100
8, 788160, Note_on_c, 6, 55, 0
8, 788640, Note_on_c, 6, 52, 100
8, 789120, Note_on_c, 6, 52, 0
8, 789120, Note_on_c, 6, 57, 100
8, 790080, Note_on_c, 6, 57, 0
8, 790560, Note_on_c, 6, 55, 100
8, 791040, Note_on_c, 6, 55, 0
8, 791040, Note_on_c, 6, 54, 100
8, 792000, Note_on_c, 6, 54, 0
8, 792480, Note_on_c, 6, 50, 100
8, 792960, Note_on_c, 6, 50, 0
8, 792960, Note_on_c, 6, 43, 100
8, 793440, Note_on_c, 6, 43, 0
8, 793440, Note_on_c, 6, 47, 100
8, 793920, Note_on_c, 6, 47, 0
8, 793920, Note_on_c, 6, 43, 100
8, 794400, Note_on_c, 6, 43, 0
8, 794400, Note_on_c, 6, 40, 100
8, 794880, Note_on_c, 6, 40, 0
8, 794880, Note_on_c, 6, 45, 100
8, 795840, Note_on_c, 6, 45, 0
8, 796320, Note_on_c, 6, 45, 100
8, 796800, Note_on_c, 6, 45, 0
8, 796800, Note_on_c, 6, 50, 100
8, 798720, Note_on_c, 6, 50, 0
8, 798720, Note_on_c, 6, 55, 100
8, 798840, Note_on_c, 6, 55, 0
8, 798840, Note_on_c, 6, 54, 100
8, 798960, Note_on_c, 6, 54, 0
8, 798960, Note_on_c, 6, 55, 100
8, 799680, Note_on_c, 6, 55, 0
8, 799680, Note_on_c, 6, 57, 100
8, 799800, Note_on_c, 6, 57, 0
8, 799800, Note_on_c, 6, 55, 100
8, 799920, Note_on_c, 6, 55, 0
8, 799920, Note_on_c, 6, 57, 100
8, 800040, Note_on_c, 6, 57, 0
8, 800040, Note_on_c, 6, 55, 100
8, 800160, Note_on_c, 6, 55, 0
8, 800160, Note_on_c, 6, 57, 100
8, 800280, Note_on_c, 6, 57, 0
8, 800280, Note_on_c, 6, 55, 100
8, 800400, Note_on_c, 6, 55, 0
8, 800400, Note_on_c, 6, 54, 100
8, 800520, Note_on_c, 6, 54, 0
8, 800520, Note_on_c, 6, 55, 100
8, 800640, Note_on_c, 6, 55, 0
8, 800640, Note_on_c, 6, 57, 100
8, 801120, Note_on_c, 6, 57, 0
8, 801120, Note_on_c, 6, 54, 100
8, 801600, Note_on_c, 6, 54, 0
8, 801600, Note_on_c, 6, 50, 100
8, 802080, Note_on_c, 6, 50, 0
8, 802080, Note_on_c, 6, 54, 100
8, 802560, Note_on_c, 6, 54, 0
8, 802560, Note_on_c, 6, 52, 100
8, 803040, Note_on_c, 6, 52, 0
8, 803040, Note_on_c, 6, 57, 100
8, 803520, Note_on_c, 6, 57, 0
8, 803520, Note_on_c, 6, 45, 100
8, 804000, Note_on_c, 6, 45, 0
8, 804000, Note_on_c, 6, 55, 100
8, 804480, Note_on_c, 6, 55, 0
8, 804480, Note_on_c, 6, 55, 100
8, 804560, Note_on_c, 6, 55, 0
8, 804560, Note_on_c, 6, 54, 100
8, 804640, Note_on_c, 6, 54, 0
8, 804640, Note_on_c, 6, 55, 100
8, 804720, Note_on_c, 6, 55, 0
8, 804720, Note_on_c, 6, 54, 100
8, 804960, Note_on_c, 6, 54, 0
8, 804960, Note_on_c, 6, 52, 100
8, 805200, Note_on_c, 6, 52, 0
8, 805200, Note_on_c, 6, 54, 100
8, 805440, Note_on_c, 6, 54, 0
8, 805440, Note_on_c, 6, 50, 100
8, 805680, Note_on_c, 6, 50, 0
8, 805680, Note_on_c, 6, 52, 100
8, 805920, Note_on_c, 6, 52, 0
8, 805920, Note_on_c, 6, 48, 100
8, 806160, Note_on_c, 6, 48, 0
8, 806160, Note_on_c, 6, 50, 100
8, 806400, Note_on_c, 6, 50, 0
8, 806400, Note_on_c, 6, 47, 100
8, 806640, Note_on_c, 6, 47, 0
8, 806640, Note_on_c, 6, 50, 100
8, 806880, Note_on_c, 6, 50, 0
8, 806880, Note_on_c, 6, 52, 100
8, 807120, Note_on_c, 6, 52, 0
8, 807120, Note_on_c, 6, 54, 100
8, 807360, Note_on_c, 6, 54, 0
8, 807360, Note_on_c, 6, 55, 100
8, 807840, Note_on_c, 6, 55, 0
8, 807840, Note_on_c, 6, 47, 100
8, 808320, Note_on_c, 6, 47, 0
8, 808320, Note_on_c, 6, 48, 100
8, 809280, Note_on_c, 6, 48, 0
8, 809760, Note_on_c, 6, 45, 100
8, 810240, Note_on_c, 6, 45, 0
8, 810240, Note_on_c, 6, 42, 100
8, 811200, Note_on_c, 6, 42, 0
8, 811680, Note_on_c, 6, 38, 100
8, 812160, Note_on_c, 6, 38, 0
8, 812160, Note_on_c, 6, 43, 100
8, 812640, Note_on_c, 6, 43, 0
8, 812640, Note_on_c, 6, 50, 100
8, 813120, Note_on_c, 6, 50, 0
8, 813120, Note_on_c, 6, 47, 100
8, 813600, Note_on_c, 6, 47, 0
8, 813600, Note_on_c, 6, 50, 100
8, 814080, Note_on_c, 6, 50, 0
8, 814080, Note_on_c, 6, 55, 100
8, 815040, Note_on_c, 6, 55, 0
8, 815520, Note_on_c, 6, 52, 100
8, 816000, Note_on_c, 6, 52, 0
8, 816000, Note_on_c, 6, 54, 100
8, 816960, Note_on_c, 6, 54, 0
8, 817440, Note_on_c, 6, 50, 100
8, 817920, Note_on_c, 6, 50, 0
8, 817920, Note_on_c, 6, 55, 100
8, 818880, Note_on_c, 6, 55, 0
8, 819360, Note_on_c, 6, 52, 100
8, 819840, Note_on_c, 6, 52, 0
8, 819840, Note_on_c, 6, 57, 100
8, 820800, Note_on_c, 6, 57, 0
8, 821280, Note_on_c, 6, 55, 100
8, 821760, Note_on_c, 6, 55, 0
8, 821760, Note_on_c, 6, 54, 100
8, 822720, Note_on_c, 6, 54, 0
8, 823200, Note_on_c, 6, 50, 100
8, 823680, Note_on_c, 6, 50, 0
8, 823680, Note_on_c, 6, 43, 100
8, 824160, Note_on_c, 6, 43, 0
8, 824160, Note_on_c, 6, 47, 100
8, 824640, Note_on_c, 6, 47, 0
8, 824640, Note_on_c, 6, 43, 100
8, 825120, Note_on_c, 6, 43, 0
8, 825120, Note_on_c, 6, 40, 100
8, 825600, Note_on_c, 6, 40, 0
8, 825600, Note_on_c, 6, 45, 100
8, 826560, Note_on_c, 6, 45, 0
8, 827040, Note_on_c, 6, 45, 100
8, 827520, Note_on_c, 6, 45, 0
8, 827520, Note_on_c, 6, 50, 100
8, 829440, Note_on_c, 6, 50, 0
8, 829440, Note_on_c, 6, 50, 100
8, 829680, Note_on_c, 6, 50, 0
8, 829680, Note_on_c, 6, 52, 100
8, 829920, Note_on_c, 6, 52, 0
8, 829920, Note_on_c, 6, 54, 100
8, 830160, Note_on_c, 6, 54, 0
8, 830160, Note_on_c, 6, 55, 100
8, 830400, Note_on_c, 6, 55, 0
8, 830400, Note_on_c, 6, 57, 100
8, 830880, Note_on_c, 6, 57, 0
8, 830880, Note_on_c, 6, 48, 100
8, 831360, Note_on_c, 6, 48, 0
8, 831360, Note_on_c, 6, 47, 100
8, 831600, Note_on_c, 6, 47, 0
8, 831600, Note_on_c, 6, 50, 100
8, 831840, Note_on_c, 6, 50, 0
8, 831840, Note_on_c, 6, 52, 100
8, 832080, Note_on_c, 6, 52, 0
8, 832080, Note_on_c, 6, 54, 100
8, 832320, Note_on_c, 6, 54, 0
8, 832320, Note_on_c, 6, 55, 100
8, 832560, Note_on_c, 6, 55, 0
8, 832560, Note_on_c, 6, 57, 100
8, 832800, Note_on_c, 6, 57, 0
8, 832800, Note_on_c, 6, 59, 100
8, 833760, Note_on_c, 6, 59, 0
8, 833760, Note_on_c, 6, 57, 100
8, 834000, Note_on_c, 6, 57, 0
8, 834000, Note_on_c, 6, 56, 100
8, 834240, Note_on_c, 6, 56, 0
8, 834240, Note_on_c, 6, 57, 100
8, 835680, Note_on_c, 6, 57, 0
8, 835680, Note_on_c, 6, 54, 100
8, 836160, Note_on_c, 6, 54, 0
8, 836160, Note_on_c, 6, 59, 100
8, 836640, Note_on_c, 6, 59, 0
8, 836640, Note_on_c, 6, 57, 100
8, 837120, Note_on_c, 6, 57, 0
8, 837120, Note_on_c, 6, 55, 100
8, 837360, Note_on_c, 6, 55, 0
8, 837360, Note_on_c, 6, 57, 100
8, 837600, Note_on_c, 6, 57, 0
8, 837600, Note_on_c, 6, 59, 100
8, 837840, Note_on_c, 6, 59, 0
8, 837840, Note_on_c, 6, 57, 100
8, 838080, Note_on_c, 6, 57, 0
8, 838080, Note_on_c, 6, 55, 100
8, 838320, Note_on_c, 6, 55, 0
8, 838320, Note_on_c, 6, 54, 100
8, 838560, Note_on_c, 6, 54, 0
8, 838560, Note_on_c, 6, 55, 100
8, 838800, Note_on_c, 6, 55, 0
8, 838800, Note_on_c, 6, 52, 100
8, 839040, Note_on_c, 6, 52, 0
8, 839040, Note_on_c, 6, 57, 100
8, 839280, Note_on_c, 6, 57, 0
8, 839280, Note_on_c, 6, 59, 100
8, 839520, Note_on_c, 6, 59, 0
8, 839520, Note_on_c, 6, 60, 100
8, 839760, Note_on_c, 6, 60, 0
8, 839760, Note_on_c, 6, 59, 100
8, 840000, Note_on_c, 6, 59, 0
8, 840000, Note_on_c, 6, 57, 100
8, 840240, Note_on_c, 6, 57, 0
8, 840240, Note_on_c, 6, 55, 100
8, 840480, Note_on_c, 6, 55, 0
8, 840480, Note_on_c, 6, 57, 100
8, 840720, Note_on_c, 6, 57, 0
8, 840720, Note_on_c, 6, 54, 100
8, 840960, Note_on_c, 6, 54, 0
8, 840960, Note_on_c, 6, 59, 100
8, 841200, Note_on_c, 6, 59, 0
8, 841200, Note_on_c, 6, 57, 100
8, 841440, Note_on_c, 6, 57, 0
8, 841440, Note_on_c, 6, 55, 100
8, 841680, Note_on_c, 6, 55, 0
8, 841680, Note_on_c, 6, 57, 100
8, 841920, Note_on_c, 6, 57, 0
8, 841920, Note_on_c, 6, 59, 100
8, 842160, Note_on_c, 6, 59, 0
8, 842160, Note_on_c, 6, 57, 100
8, 842400, Note_on_c, 6, 57, 0
8, 842400, Note_on_c, 6, 59, 100
8, 842640, Note_on_c, 6, 59, 0
8, 842640, Note_on_c, 6, 47, 100
8, 842880, Note_on_c, 6, 47, 0
8, 842880, Note_on_c, 6, 52, 100
8, 843120, Note_on_c, 6, 52, 0
8, 843120, Note_on_c, 6, 47, 100
8, 843360, Note_on_c, 6, 47, 0
8, 843360, Note_on_c, 6, 45, 100
8, 843600, Note_on_c, 6, 45, 0
8, 843600, Note_on_c, 6, 47, 100
8, 843840, Note_on_c, 6, 47, 0
8, 843840, Note_on_c, 6, 43, 100
8, 844080, Note_on_c, 6, 43, 0
8, 844080, Note_on_c, 6, 42, 100
8, 844320, Note_on_c, 6, 42, 0
8, 844320, Note_on_c, 6, 43, 100
8, 844560, Note_on_c, 6, 43, 0
8, 844560, Note_on_c, 6, 40, 100
8, 844800, Note_on_c, 6, 40, 0
8, 844800, Note_on_c, 6, 49, 100
8, 845760, Note_on_c, 6, 49, 0
8, 845760, Note_on_c, 6, 50, 100
8, 845880, Note_on_c, 6, 50, 0
8, 845880, Note_on_c, 6, 49, 100
8, 846000, Note_on_c, 6, 49, 0
8, 846000, Note_on_c, 6, 50, 100
8, 846120, Note_on_c, 6, 50, 0
8, 846120, Note_on_c, 6, 49, 100
8, 846240, Note_on_c, 6, 49, 0
8, 846240, Note_on_c, 6, 50, 100
8, 846360, Note_on_c, 6, 50, 0
8, 846360, Note_on_c, 6, 49, 100
8, 846480, Note_on_c, 6, 49, 0
8, 846480, Note_on_c, 6, 47, 100
8, 846600, Note_on_c, 6, 47, 0
8, 846600, Note_on_c, 6, 49, 100
8, 846720, Note_on_c, 6, 49, 0
8, 846720, Note_on_c, 6, 50, 100
8, 847200, Note_on_c, 6, 50, 0
8, 847200, Note_on_c, 6, 47, 100
8, 847680, Note_on_c, 6, 47, 0
8, 847680, Note_on_c, 6, 43, 100
8, 848160, Note_on_c, 6, 43, 0
8, 848160, Note_on_c, 6, 47, 100
8, 848640, Note_on_c, 6, 47, 0
8, 848640, Note_on_c, 6, 48, 100
8, 849120, Note_on_c, 6, 48, 0
8, 849120, Note_on_c, 6, 52, 100
8, 849600, Note_on_c, 6, 52, 0
8, 849600, Note_on_c, 6, 45, 100
8, 850080, Note_on_c, 6, 45, 0
8, 850080, Note_on_c, 6, 55, 100
8, 850560, Note_on_c, 6, 55, 0
8, 850560, Note_on_c, 6, 55, 100
8, 850640, Note_on_c, 6, 55, 0
8, 850640, Note_on_c, 6, 54, 100
8, 850720, Note_on_c, 6, 54, 0
8, 850720, Note_on_c, 6, 55, 100
8, 850800, Note_on_c, 6, 55, 0
8, 850800, Note_on_c, 6, 54, 100
8, 851040, Note_on_c, 6, 54, 0
8, 851040, Note_on_c, 6, 52, 100
8, 851280, Note_on_c, 6, 52, 0
8, 851280, Note_on_c, 6, 54, 100
8, 851520, Note_on_c, 6, 54, 0
8, 851520, Note_on_c, 6, 50, 100
8, 851760, Note_on_c, 6, 50, 0
8, 851760, Note_on_c, 6, 52, 100
8, 852000, Note_on_c, 6, 52, 0
8, 852000, Note_on_c, 6, 54, 100
8, 852240, Note_on_c, 6, 54, 0
8, 852240, Note_on_c, 6, 50, 100
8, 852480, Note_on_c, 6, 50, 0
8, 852480, Note_on_c, 6, 55, 100
8, 852960, Note_on_c, 6, 55, 0
8, 852960, Note_on_c, 6, 57, 100
8, 853440, Note_on_c, 6, 57, 0
8, 853440, Note_on_c, 6, 59, 100
8, 853920, Note_on_c, 6, 59, 0
8, 853920, Note_on_c, 6, 55, 100
8, 854400, Note_on_c, 6, 55, 0
8, 854400, Note_on_c, 6, 48, 100
8, 855360, Note_on_c, 6, 48, 0
8, 855840, Note_on_c, 6, 57, 100
8, 856320, Note_on_c, 6, 57, 0
8, 856320, Note_on_c, 6, 50, 100
8, 857280, Note_on_c, 6, 50, 0
8, 857760, Note_on_c, 6, 50, 100
8, 858240, Note_on_c, 6, 50, 0
8, 858240, Note_on_c, 6, 55, 100
8, 859200, Note_on_c, 6, 55, 0
8, 859200, Note_on_c, 6, 43, 100
8, 860160, Note_on_c, 6, 43, 0
8, 860160, Note_on_c, 6, 50, 100
8, 860400, Note_on_c, 6, 50, 0
8, 860400, Note_on_c, 6, 52, 100
8, 860640, Note_on_c, 6, 52, 0
8, 860640, Note_on_c, 6, 54, 100
8, 860880, Note_on_c, 6, 54, 0
8, 860880, Note_on_c, 6, 55, 100
8, 861120, Note_on_c, 6, 55, 0
8, 861120, Note_on_c, 6, 57, 100
8, 861600, Note_on_c, 6, 57, 0
8, 861600, Note_on_c, 6, 48, 100
8, 862080, Note_on_c, 6, 48, 0
8, 862080, Note_on_c, 6, 47, 100
8, 862320, Note_on_c, 6, 47, 0
8, 862320, Note_on_c, 6, 50, 100
8, 862560, Note_on_c, 6, 50, 0
8, 862560, Note_on_c, 6, 52, 100
8, 862800, Note_on_c, 6, 52, 0
8, 862800, Note_on_c, 6, 54, 100
8, 863040, Note_on_c, 6, 54, 0
8, 863040, Note_on_c, 6, 55, 100
8, 863280, Note_on_c, 6, 55, 0
8, 863280, Note_on_c, 6, 57, 100
8, 863520, Note_on_c, 6, 57, 0
8, 863520, Note_on_c, 6, 59, 100
8, 864480, Note_on_c, 6, 59, 0
8, 864480, Note_on_c, 6, 57, 100
8, 864720, Note_on_c, 6, 57, 0
8, 864720, Note_on_c, 6, 56, 100
8, 864960, Note_on_c, 6, 56, 0
8, 864960, Note_on_c, 6, 57, 100
8, 866400, Note_on_c, 6, 57, 0
8, 866400, Note_on_c, 6, 54, 100
8, 866880, Note_on_c, 6, 54, 0
8, 866880, Note_on_c, 6, 59, 100
8, 867360, Note_on_c, 6, 59, 0
8, 867360, Note_on_c, 6, 57, 100
8, 867840, Note_on_c, 6, 57, 0
8, 867840, Note_on_c, 6, 55, 100
8, 868080, Note_on_c, 6, 55, 0
8, 868080, Note_on_c, 6, 57, 100
8, 868320, Note_on_c, 6, 57, 0
8, 868320, Note_on_c, 6, 59, 100
8, 868560, Note_on_c, 6, 59, 0
8, 868560, Note_on_c, 6, 57, 100
8, 868800, Note_on_c, 6, 57, 0
8, 868800, Note_on_c, 6, 55, 100
8, 869040, Note_on_c, 6, 55, 0
8, 869040, Note_on_c, 6, 54, 100
8, 869280, Note_on_c, 6, 54, 0
8, 869280, Note_on_c, 6, 55, 100
8, 869520, Note_on_c, 6, 55, 0
8, 869520, Note_on_c, 6, 52, 100
8, 869760, Note_on_c, 6, 52, 0
8, 869760, Note_on_c, 6, 57, 100
8, 870000, Note_on_c, 6, 57, 0
8, 870000, Note_on_c, 6, 59, 100
8, 870240, Note_on_c, 6, 59, 0
8, 870240, Note_on_c, 6, 60, 100
8, 870480, Note_on_c, 6, 60, 0
8, 870480, Note_on_c, 6, 59, 100
8, 870720, Note_on_c, 6, 59, 0
8, 870720, Note_on_c, 6, 57, 100
8, 870960, Note_on_c, 6, 57, 0
8, 870960, Note_on_c, 6, 55, 100
8, 871200, Note_on_c, 6, 55, 0
8, 871200, Note_on_c, 6, 57, 100
8, 871440, Note_on_c, 6, 57, 0
8, 871440, Note_on_c, 6, 54, 100
8, 871680, Note_on_c, 6, 54, 0
8, 871680, Note_on_c, 6, 59, 100
8, 871920, Note_on_c, 6, 59, 0
8, 871920, Note_on_c, 6, 57, 100
8, 872160, Note_on_c, 6, 57, 0
8, 872160, Note_on_c, 6, 55, 100
8, 872400, Note_on_c, 6, 55, 0
8, 872400, Note_on_c, 6, 57, 100
8, 872640, Note_on_c, 6, 57, 0
8, 872640, Note_on_c, 6, 59, 100
8, 872880, Note_on_c, 6, 59, 0
8, 872880, Note_on_c, 6, 57, 100
8, 873120, Note_on_c, 6, 57, 0
8, 873120, Note_on_c, 6, 59, 100
8, 873360, Note_on_c, 6, 59, 0
8, 873360, Note_on_c, 6, 47, 100
8, 873600, Note_on_c, 6, 47, 0
8, 873600, Note_on_c, 6, 52, 100
8, 873840, Note_on_c, 6, 52, 0
8, 873840, Note_on_c, 6, 47, 100
8, 874080, Note_on_c, 6, 47, 0
8, 874080, Note_on_c, 6, 45, 100
8, 874320, Note_on_c, 6, 45, 0
8, 874320, Note_on_c, 6, 47, 100
8, 874560, Note_on_c, 6, 47, 0
8, 874560, Note_on_c, 6, 43, 100
8, 874800, Note_on_c, 6, 43, 0
8, 874800, Note_on_c, 6, 42, 100
8, 875040, Note_on_c, 6, 42, 0
8, 875040, Note_on_c, 6, 43, 100
8, 875280, Note_on_c, 6, 43, 0
8, 875280, Note_on_c, 6, 40, 100
8, 875520, Note_on_c, 6, 40, 0
8, 875520, Note_on_c, 6, 49, 100
8, 876480, Note_on_c, 6, 49, 0
8, 876480, Note_on_c, 6, 50, 100
8, 876600, Note_on_c, 6, 50, 0
8, 876600, Note_on_c, 6, 49, 100
8, 876720, Note_on_c, 6, 49, 0
8, 876720, Note_on_c, 6, 50, 100
8, 876840, Note_on_c, 6, 50, 0
8, 876840, Note_on_c, 6, 49, 100
8, 876960, Note_on_c, 6, 49, 0
8, 876960, Note_on_c, 6, 50, 100
8, 877080, Note_on_c, 6, 50, 0
8, 877080, Note_on_c, 6, 49, 100
8, 877200, Note_on_c, 6, 49, 0
8, 877200, Note_on_c, 6, 47, 100
8, 877320, Note_on_c, 6, 47, 0
8, 877320, Note_on_c, 6, 49, 100
8, 877440, Note_on_c, 6, 49, 0
8, 877440, Note_on_c, 6, 50, 100
8, 877920, Note_on_c, 6, 50, 0
8, 877920, Note_on_c, 6, 47, 100
8, 878400, Note_on_c, 6, 47, 0
8, 878400, Note_on_c, 6, 43, 100
8, 878880, Note_on_c, 6, 43, 0
8, 878880, Note_on_c, 6, 47, 100
8, 879360, Note_on_c, 6, 47, 0
8, 879360, Note_on_c, 6, 48, 100
8, 879840, Note_on_c, 6, 48, 0
8, 879840, Note_on_c, 6, 52, 100
8, 880320, Note_on_c, 6, 52, 0
8, 880320, Note_on_c, 6, 45, 100
8, 880800, Note_on_c, 6, 45, 0
8, 880800, Note_on_c, 6, 55, 100
8, 881280, Note_on_c, 6, 55, 0
8, 881280, Note_on_c, 6, 55, 100
8, 881360, Note_on_c, 6, 55, 0
8, 881360, Note_on_c, 6, 54, 100
8, 881440, Note_on_c, 6, 54, 0
8, 881440, Note_on_c, 6, 55, 100
8, 881520, Note_on_c, 6, 55, 0
8, 881520, Note_on_c, 6, 54, 100
8, 881760, Note_on_c, 6, 54, 0
8, 881760, Note_on_c, 6, 52, 100
8, 882000, Note_on_c, 6, 52, 0
8, 882000, Note_on_c, 6, 54, 100
8, 882240, Note_on_c, 6, 54, 0
8, 882240, Note_on_c, 6, 50, 100
8, 882480, Note_on_c, 6, 50, 0
8, 882480, Note_on_c, 6, 52, 100
8, 882720, Note_on_c, 6, 52, 0
8, 882720, Note_on_c, 6, 54, 100
8, 882960, Note_on_c, 6, 54, 0
8, 882960, Note_on_c, 6, 50, 100
8, 883200, Note_on_c, 6, 50, 0
8, 883200, Note_on_c, 6, 55, 100
8, 883680, Note_on_c, 6, 55, 0
8, 883680, Note_on_c, 6, 57, 100
8, 884160, Note_on_c, 6, 57, 0
8, 884160, Note_on_c, 6, 59, 100
8, 884640, Note_on_c, 6, 59, 0
8, 884640, Note_on_c, 6, 55, 100
8, 885120, Note_on_c, 6, 55, 0
8, 885120, Note_on_c, 6, 48, 100
8, 886080, Note_on_c, 6, 48, 0
8, 886560, Note_on_c, 6, 57, 100
8, 887040, Note_on_c, 6, 57, 0
8, 887040, Note_on_c, 6, 50, 100
8, 888000, Note_on_c, 6, 50, 0
8, 888480, Note_on_c, 6, 50, 100
8, 888960, Note_on_c, 6, 50, 0
8, 888960, Note_on_c, 6, 55, 100
8, 889920, Note_on_c, 6, 55, 0
8, 889920, Note_on_c, 6, 43, 100
8, 890880, Note_on_c, 6, 43, 0
8, 1320960, Note_on_c, 6, 47, 100
8, 1320960, Note_on_c, 6, 50, 100
8, 1320960, Note_on_c, 6, 43, 100
8, 1321440, Note_on_c, 6, 43, 0
8, 1321440, Note_on_c, 6, 50, 0
8, 1321440, Note_on_c, 6, 47, 0
8, 1322760, Note_on_c, 6, 55, 100
8, 1322880, Note_on_c, 6, 55, 0
8, 1322880, Note_on_c, 6, 54, 100
8, 1323420, Note_on_c, 6, 54, 0
8, 1323420, Note_on_c, 6, 50, 100
8, 1323480, Note_on_c, 6, 50, 0
8, 1323480, Note_on_c, 6, 52, 100
8, 1323540, Note_on_c, 6, 52, 0
8, 1323540, Note_on_c, 6, 54, 100
8, 1323600, Note_on_c, 6, 54, 0
8, 1323600, Note_on_c, 6, 55, 100
8, 1323660, Note_on_c, 6, 55, 0
8, 1323660, Note_on_c, 6, 57, 100
8, 1323720, Note_on_c, 6, 57, 0
8, 1323720, Note_on_c, 6, 59, 100
8, 1323780, Note_on_c, 6, 59, 0
8, 1323780, Note_on_c, 6, 60, 100
8, 1323840, Note_on_c, 6, 60, 0
8, 1323840, Note_on_c, 6, 62, 100
8, 1324200, Note_on_c, 6, 62, 0
8, 1324200, Note_on_c, 6, 57, 100
8, 1324320, Note_on_c, 6, 57, 0
8, 1324320, Note_on_c, 6, 54, 100
8, 1324680, Note_on_c, 6, 54, 0
8, 1324680, Note_on_c, 6, 50, 100
8, 1324800, Note_on_c, 6, 50, 0
8, 1324800, Note_on_c, 6, 52, 100
8, 1325520, Note_on_c, 6, 52, 0
8, 1325520, Note_on_c, 6, 55, 100
8, 1325760, Note_on_c, 6, 55, 0
8, 1325760, Note_on_c, 6, 54, 100
8, 1325820, Note_on_c, 6, 54, 0
8, 1325820, Note_on_c, 6, 52, 100
8, 1325880, Note_on_c, 6, 52, 0
8, 1325880, Note_on_c, 6, 50, 100
8, 1325940, Note_on_c, 6, 50, 0
8, 1325940, Note_on_c, 6, 52, 100
8, 1326000, Note_on_c, 6, 52, 0
8, 1326000, Note_on_c, 6, 54, 100
8, 1326040, Note_on_c, 6, 54, 0
8, 1326040, Note_on_c, 6, 52, 100
8, 1326080, Note_on_c, 6, 52, 0
8, 1326080, Note_on_c, 6, 54, 100
8, 1326120, Note_on_c, 6, 54, 0
8, 1326120, Note_on_c, 6, 52, 100
8, 1326160, Note_on_c, 6, 52, 0
8, 1326160, Note_on_c, 6, 54, 100
8, 1326200, Note_on_c, 6, 54, 0
8, 1326200, Note_on_c, 6, 52, 100
8, 1326240, Note_on_c, 6, 52, 0
8, 1326240, Note_on_c, 6, 54, 100
8, 1326280, Note_on_c, 6, 54, 0
8, 1326280, Note_on_c, 6, 52, 100
8, 1326320, Note_on_c, 6, 52, 0
8, 1326320, Note_on_c, 6, 54, 100
8, 1326360, Note_on_c, 6, 54, 0
8, 1326360, Note_on_c, 6, 52, 100
8, 1326400, Note_on_c, 6, 52, 0
8, 1326400, Note_on_c, 6, 54, 100
8, 1326440, Note_on_c, 6, 54, 0
8, 1326440, Note_on_c, 6, 52, 100
8, 1326540, Note_on_c, 6, 52, 0
8, 1326540, Note_on_c, 6, 50, 100
8, 1326600, Note_on_c, 6, 50, 0
8, 1326600, Note_on_c, 6, 52, 100
8, 1326660, Note_on_c, 6, 52, 0
8, 1326660, Note_on_c, 6, 54, 100
8, 1326720, Note_on_c, 6, 54, 0
8, 1326720, Note_on_c, 6, 50, 100
8, 1327080, Note_on_c, 6, 50, 0
8, 1327080, Note_on_c, 6, 60, 100
8, 1327140, Note_on_c, 6, 60, 0
8, 1327140, Note_on_c, 6, 59, 100
8, 1327200, Note_on_c, 6, 59, 0
8, 1327200, Note_on_c, 6, 60, 100
8, 1327560, Note_on_c, 6, 60, 0
8, 1327560, Note_on_c, 6, 57, 100
8, 1327680, Note_on_c, 6, 57, 0
8, 1327680, Note_on_c, 6, 54, 100
8, 1328040, Note_on_c, 6, 54, 0
8, 1328040, Note_on_c, 6, 64, 100
8, 1328160, Note_on_c, 6, 64, 0
8, 1328160, Note_on_c, 6, 62, 100
8, 1328520, Note_on_c, 6, 62, 0
8, 1328520, Note_on_c, 6, 60, 100
8, 1328640, Note_on_c, 6, 60, 0
8, 1328640, Note_on_c, 6, 60, 100
8, 1328700, Note_on_c, 6, 60, 0
8, 1328700, Note_on_c, 6, 59, 100
8, 1328760, Note_on_c, 6, 59, 0
8, 1328760, Note_on_c, 6, 57, 100
8, 1328820, Note_on_c, 6, 57, 0
8, 1328820, Note_on_c, 6, 59, 100
8, 1328880, Note_on_c, 6, 59, 0
8, 1328880, Note_on_c, 6, 60, 100
8, 1328920, Note_on_c, 6, 60, 0
8, 1328920, Note_on_c, 6, 59, 100
8, 1328960, Note_on_c, 6, 59, 0
8, 1328960, Note_on_c, 6, 60, 100
8, 1329000, Note_on_c, 6, 60, 0
8, 1329000, Note_on_c, 6, 59, 100
8, 1329040, Note_on_c, 6, 59, 0
8, 1329040, Note_on_c, 6, 60, 100
8, 1329080, Note_on_c, 6, 60, 0
8, 1329080, Note_on_c, 6, 59, 100
8, 1329360, Note_on_c, 6, 59, 0
8, 1329360, Note_on_c, 6, 59, 100
8, 1329600, Note_on_c, 6, 59, 0
8, 1329600, Note_on_c, 6, 59, 100
8, 1329900, Note_on_c, 6, 59, 0
8, 1329900, Note_on_c, 6, 60, 100
8, 1329960, Note_on_c, 6, 60, 0
8, 1329960, Note_on_c, 6, 59, 100
8, 1330020, Note_on_c, 6, 59, 0
8, 1330020, Note_on_c, 6, 57, 100
8, 1330080, Note_on_c, 6, 57, 0
8, 1330080, Note_on_c, 6, 59, 100
8, 1330440, Note_on_c, 6, 59, 0
8, 1330440, Note_on_c, 6, 55, 100
8, 1330560, Note_on_c, 6, 55, 0
8, 1330560, Note_on_c, 6, 60, 100
8, 1330620, Note_on_c, 6, 60, 0
8, 1330620, Note_on_c, 6, 59, 100
8, 1330680, Note_on_c, 6, 59, 0
8, 1330680, Note_on_c, 6, 60, 100
8, 1331340, Note_on_c, 6, 60, 0
8, 1331340, Note_on_c, 6, 62, 100
8, 1331400, Note_on_c, 6, 62, 0
8, 1331400, Note_on_c, 6, 60, 100
8, 1331460, Note_on_c, 6, 60, 0
8, 1331460, Note_on_c, 6, 59, 100
8, 1331520, Note_on_c, 6, 59, 0
8, 1331520, Note_on_c, 6, 60, 100
8, 1331820, Note_on_c, 6, 60, 0
8, 1331820, Note_on_c, 6, 59, 100
8, 1331880, Note_on_c, 6, 59, 0
8, 1331880, Note_on_c, 6, 57, 100
8, 1331940, Note_on_c, 6, 57, 0
8, 1331940, Note_on_c, 6, 55, 100
8, 1332000, Note_on_c, 6, 55, 0
8, 1332000, Note_on_c, 6, 57, 100
8, 1332300, Note_on_c, 6, 57, 0
8, 1332300, Note_on_c, 6, 55, 100
8, 1332360, Note_on_c, 6, 55, 0
8, 1332360, Note_on_c, 6, 54, 100
8, 1332420, Note_on_c, 6, 54, 0
8, 1332420, Note_on_c, 6, 52, 100
8, 1332480, Note_on_c, 6, 52, 0
8, 1332480, Note_on_c, 6, 50, 100
8, 1333560, Note_on_c, 6, 50, 0
8, 1333560, Note_on_c, 6, 48, 100
8, 1333620, Note_on_c, 6, 48, 0
8, 1333620, Note_on_c, 6, 47, 100
8, 1333680, Note_on_c, 6, 47, 0
8, 1333680, Note_on_c, 6, 45, 100
8, 1333740, Note_on_c, 6, 45, 0
8, 1333740, Note_on_c, 6, 43, 100
8, 1333800, Note_on_c, 6, 43, 0
8, 1333800, Note_on_c, 6, 42, 100
8, 1333860, Note_on_c, 6, 42, 0
8, 1333860, Note_on_c, 6, 40, 100
8, 1333920, Note_on_c, 6, 40, 0
8, 1333920, Note_on_c, 6, 38, 100
8, 1334040, Note_on_c, 6, 38, 0
8, 1334040, Note_on_c, 6, 42, 100
8, 1334160, Note_on_c, 6, 42, 0
8, 1334160, Note_on_c, 6, 45, 100
8, 1334280, Note_on_c, 6, 45, 0
8, 1334280, Note_on_c, 6, 50, 100
8, 1334400, Note_on_c, 6, 50, 0
8, 1334400, Note_on_c, 6, 43, 100
8, 1334520, Note_on_c, 6, 43, 0
8, 1334520, Note_on_c, 6, 50, 100
8, 1334640, Note_on_c, 6, 50, 0
8, 1334640, Note_on_c, 6, 52, 100
8, 1334760, Note_on_c, 6, 52, 0
8, 1334760, Note_on_c, 6, 54, 100
8, 1334880, Note_on_c, 6, 54, 0
8, 1334880, Note_on_c, 6, 55, 100
8, 1335000, Note_on_c, 6, 55, 0
8, 1335000, Note_on_c, 6, 54, 100
8, 1335120, Note_on_c, 6, 54, 0
8, 1335120, Note_on_c, 6, 55, 100
8, 1335240, Note_on_c, 6, 55, 0
8, 1335240, Note_on_c, 6, 57, 100
8, 1335360, Note_on_c, 6, 57, 0
8, 1335360, Note_on_c, 6, 60, 100
8, 1335420, Note_on_c, 6, 60, 0
8, 1335420, Note_on_c, 6, 59, 100
8, 1335480, Note_on_c, 6, 59, 0
8, 1335480, Note_on_c, 6, 60, 100
8, 1335540, Note_on_c, 6, 60, 0
8, 1335540, Note_on_c, 6, 59, 100
8, 1335600, Note_on_c, 6, 59, 0
8, 1335600, Note_on_c, 6, 60, 100
8, 1335640, Note_on_c, 6, 60, 0
8, 1335640, Note_on_c, 6, 59, 100
8, 1335680, Note_on_c, 6, 59, 0
8, 1335680, Note_on_c, 6, 60, 100
8, 1335720, Note_on_c, 6, 60, 0
8, 1335720, Note_on_c, 6, 59, 100
8, 1335760, Note_on_c, 6, 59, 0
8, 1335760, Note_on_c, 6, 60, 100
8, 1335800, Note_on_c, 6, 60, 0
8, 1335800, Note_on_c, 6, 59, 100
8, 1336140, Note_on_c, 6, 59, 0
8, 1336140, Note_on_c, 6, 57, 100
8, 1336200, Note_on_c, 6, 57, 0
8, 1336200, Note_on_c, 6, 55, 100
8, 1336260, Note_on_c, 6, 55, 0
8, 1336260, Note_on_c, 6, 54, 100
8, 1336320, Note_on_c, 6, 54, 0
8, 1336320, Note_on_c, 6, 55, 100
8, 1336440, Note_on_c, 6, 55, 0
8, 1336440, Note_on_c, 6, 59, 100
8, 1336560, Note_on_c, 6, 59, 0
8, 1336560, Note_on_c, 6, 61, 100
8, 1336680, Note_on_c, 6, 61, 0
8, 1336680, Note_on_c, 6, 63, 100
8, 1336800, Note_on_c, 6, 63, 0
8, 1336800, Note_on_c, 6, 64, 100
8, 1336920, Note_on_c, 6, 64, 0
8, 1336920, Note_on_c, 6, 63, 100
8, 1337040, Note_on_c, 6, 63, 0
8, 1337040, Note_on_c, 6, 64, 100
8, 1337160, Note_on_c, 6, 64, 0
8, 1337160, Note_on_c, 6, 66, 100
8, 1337280, Note_on_c, 6, 66, 0
8, 1337280, Note_on_c, 6, 67, 100
8, 1337640, Note_on_c, 6, 67, 0
8, 1337640, Note_on_c, 6, 55, 100
8, 1337760, Note_on_c, 6, 55, 0
8, 1337760, Note_on_c, 6, 67, 100
8, 1338120, Note_on_c, 6, 67, 0
8, 1338120, Note_on_c, 6, 67, 100
8, 1338240, Note_on_c, 6, 67, 0
8, 1338240, Note_on_c, 6, 67, 100
8, 1339020, Note_on_c, 6, 67, 0
8, 1339020, Note_on_c, 6, 67, 100
8, 1339080, Note_on_c, 6, 67, 0
8, 1339080, Note_on_c, 6, 66, 100
8, 1339140, Note_on_c, 6, 66, 0
8, 1339140, Note_on_c, 6, 64, 100
8, 1339200, Note_on_c, 6, 64, 0
8, 1339200, Note_on_c, 6, 66, 100
8, 1339500, Note_on_c, 6, 66, 0
8, 1339500, Note_on_c, 6, 59, 100
8, 1339560, Note_on_c, 6, 59, 0
8, 1339560, Note_on_c, 6, 61, 100
8, 1339620, Note_on_c, 6, 61, 0
8, 1339620, Note_on_c, 6, 63, 100
8, 1339680, Note_on_c, 6, 63, 0
8, 1339680, Note_on_c, 6, 64, 100
8, 1340040, Note_on_c, 6, 64, 0
8, 1340040, Note_on_c, 6, 64, 100
8, 1340160, Note_on_c, 6, 64, 0
8, 1340160, Note_on_c, 6, 64, 100
8, 1340940, Note_on_c, 6, 64, 0
8, 1340940, Note_on_c, 6, 60, 100
8, 1341000, Note_on_c, 6, 60, 0
8, 1341000, Note_on_c, 6, 59, 100
8, 1341060, Note_on_c, 6, 59, 0
8, 1341060, Note_on_c, 6, 57, 100
8, 1341120, Note_on_c, 6, 57, 0
8, 1341120, Note_on_c, 6, 56, 100
8, 1341480, Note_on_c, 6, 56, 0
8, 1341480, Note_on_c, 6, 59, 100
8, 1341600, Note_on_c, 6, 59, 0
8, 1341600, Note_on_c, 6, 52, 100
8, 1341960, Note_on_c, 6, 52, 0
8, 1341960, Note_on_c, 6, 56, 100
8, 1342080, Note_on_c, 6, 56, 0
8, 1342080, Note_on_c, 6, 57, 100
8, 1342680, Note_on_c, 6, 57, 0
8, 1342680, Note_on_c, 6, 45, 100
8, 1342740, Note_on_c, 6, 45, 0
8, 1342740, Note_on_c, 6, 47, 100
8, 1342800, Note_on_c, 6, 47, 0
8, 1342800, Note_on_c, 6, 49, 100
8, 1342860, Note_on_c, 6, 49, 0
8, 1342860, Note_on_c, 6, 50, 100
8, 1342920, Note_on_c, 6, 50, 0
8, 1342920, Note_on_c, 6, 52, 100
8, 1342980, Note_on_c, 6, 52, 0
8, 1342980, Note_on_c, 6, 54, 100
8, 1343040, Note_on_c, 6, 54, 0
8, 1343040, Note_on_c, 6, 55, 100
8, 1343400, Note_on_c, 6, 55, 0
8, 1343400, Note_on_c, 6, 52, 100
8, 1343520, Note_on_c, 6, 52, 0
8, 1343520, Note_on_c, 6, 49, 100
8, 1343880, Note_on_c, 6, 49, 0
8, 1343880, Note_on_c, 6, 45, 100
8, 1344000, Note_on_c, 6, 45, 0
8, 1344000, Note_on_c, 6, 54, 100
8, 1344780, Note_on_c, 6, 54, 0
8, 1344780, Note_on_c, 6, 55, 100
8, 1344840, Note_on_c, 6, 55, 0
8, 1344840, Note_on_c, 6, 54, 100
8, 1344900, Note_on_c, 6, 54, 0
8, 1344900, Note_on_c, 6, 52, 100
8, 1344960, Note_on_c, 6, 52, 0
8, 1344960, Note_on_c, 6, 50, 100
8, 1345260, Note_on_c, 6, 50, 0
8, 1345260, Note_on_c, 6, 48, 100
8, 1345320, Note_on_c, 6, 48, 0
8, 1345320, Note_on_c, 6, 47, 100
8, 1345380, Note_on_c, 6, 47, 0
8, 1345380, Note_on_c, 6, 45, 100
8, 1345440, Note_on_c, 6, 45, 0
8, 1345440, Note_on_c, 6, 43, 100
8, 1345740, Note_on_c, 6, 43, 0
8, 1345740, Note_on_c, 6, 50, 100
8, 1345800, Note_on_c, 6, 50, 0
8, 1345800, Note_on_c, 6, 52, 100
8, 1345860, Note_on_c, 6, 52, 0
8, 1345860, Note_on_c, 6, 54, 100
8, 1345920, Note_on_c, 6, 54, 0
8, 1345920, Note_on_c, 6, 55, 100
8, 1345980, Note_on_c, 6, 55, 0
8, 1345980, Note_on_c, 6, 54, 100
8, 1346040, Note_on_c, 6, 54, 0
8, 1346040, Note_on_c, 6, 55, 100
8, 1346280, Note_on_c, 6, 55, 0
8, 1346280, Note_on_c, 6, 43, 100
8, 1346400, Note_on_c, 6, 43, 0
8, 1346400, Note_on_c, 6, 55, 100
8, 1346760, Note_on_c, 6, 55, 0
8, 1346760, Note_on_c, 6, 55, 100
8, 1346880, Note_on_c, 6, 55, 0
8, 1346880, Note_on_c, 6, 55, 100
8, 1347660, Note_on_c, 6, 55, 0
8, 1347660, Note_on_c, 6, 55, 100
8, 1347720, Note_on_c, 6, 55, 0
8, 1347720, Note_on_c, 6, 54, 100
8, 1347780, Note_on_c, 6, 54, 0
8, 1347780, Note_on_c, 6, 52, 100
8, 1347840, Note_on_c, 6, 52, 0
8, 1347840, Note_on_c, 6, 54, 100
8, 1348020, Note_on_c, 6, 54, 0
8, 1348020, Note_on_c, 6, 50, 100
8, 1348080, Note_on_c, 6, 50, 0
8, 1348080, Note_on_c, 6, 52, 100
8, 1348140, Note_on_c, 6, 52, 0
8, 1348140, Note_on_c, 6, 54, 100
8, 1348200, Note_on_c, 6, 54, 0
8, 1348200, Note_on_c, 6, 55, 100
8, 1348260, Note_on_c, 6, 55, 0
8, 1348260, Note_on_c, 6, 57, 100
8, 1348320, Note_on_c, 6, 57, 0
8, 1348320, Note_on_c, 6, 59, 100
8, 1348680, Note_on_c, 6, 59, 0
8, 1348680, Note_on_c, 6, 55, 100
8, 1348800, Note_on_c, 6, 55, 0
8, 1348800, Note_on_c, 6, 57, 100
8, 1349280, Note_on_c, 6, 57, 0
8, 1349280, Note_on_c, 6, 45, 100
8, 1349760, Note_on_c, 6, 45, 0
8, 1349760, Note_on_c, 6, 38, 100
8, 1350360, Note_on_c, 6, 38, 0
8, 1350360, Note_on_c, 6, 50, 100
8, 1350420, Note_on_c, 6, 50, 0
8, 1350420, Note_on_c, 6, 52, 100
8, 1350480, Note_on_c, 6, 52, 0
8, 1350480, Note_on_c, 6, 54, 100
8, 1350540, Note_on_c, 6, 54, 0
8, 1350540, Note_on_c, 6, 55, 100
8, 1350600, Note_on_c, 6, 55, 0
8, 1350600, Note_on_c, 6, 57, 100
8, 1350660, Note_on_c, 6, 57, 0
8, 1350660, Note_on_c, 6, 59, 100
8, 1350720, Note_on_c, 6, 59, 0
8, 1350720, Note_on_c, 6, 60, 100
8, 1351080, Note_on_c, 6, 60, 0
8, 1351080, Note_on_c, 6, 57, 100
8, 1351200, Note_on_c, 6, 57, 0
8, 1351200, Note_on_c, 6, 54, 100
8, 1351560, Note_on_c, 6, 54, 0
8, 1351560, Note_on_c, 6, 50, 100
8, 1351680, Note_on_c, 6, 50, 0
8, 1351680, Note_on_c, 6, 47, 100
8, 1351680, Note_on_c, 6, 50, 100
8, 1351680, Note_on_c, 6, 43, 100
8, 1352160, Note_on_c, 6, 43, 0
8, 1352160, Note_on_c, 6, 50, 0
8, 1352160, Note_on_c, 6, 47, 0
8, 1353480, Note_on_c, 6, 55, 100
8, 1353600, Note_on_c, 6, 55, 0
8, 1353600, Note_on_c, 6, 54, 100
8, 1354140, Note_on_c, 6, 54, 0
8, 1354140, Note_on_c, 6, 50, 100
8, 1354200, Note_on_c, 6, 50, 0
8, 1354200, Note_on_c, 6, 52, 100
8, 1354260, Note_on_c, 6, 52, 0
8, 1354260, Note_on_c, 6, 54, 100
8, 1354320, Note_on_c, 6, 54, 0
8, 1354320, Note_on_c, 6, 55, 100
8, 1354380, Note_on_c, 6, 55, 0
8, 1354380, Note_on_c, 6, 57, 100
8, 1354440, Note_on_c, 6, 57, 0
8, 1354440, Note_on_c, 6, 59, 100
8, 1354500, Note_on_c, 6, 59, 0
8, 1354500, Note_on_c, 6, 60, 100
8, 1354560, Note_on_c, 6, 60, 0
8, 1354560, Note_on_c, 6, 62, 100
8, 1354920, Note_on_c, 6, 62, 0
8, 1354920, Note_on_c, 6, 57, 100
8, 1355040, Note_on_c, 6, 57, 0
8, 1355040, Note_on_c, 6, 54, 100
8, 1355400, Note_on_c, 6, 54, 0
8, 1355400, Note_on_c, 6, 50, 100
8, 1355520, Note_on_c, 6, 50, 0
8, 1355520, Note_on_c, 6, 52, 100
8, 1356240, Note_on_c, 6, 52, 0
8, 1356240, Note_on_c, 6, 55, 100
8, 1356480, Note_on_c, 6, 55, 0
8, 1356480, Note_on_c, 6, 54, 100
8, 1356540, Note_on_c, 6, 54, 0
8, 1356540, Note_on_c, 6, 52, 100
8, 1356600, Note_on_c, 6, 52, 0
8, 1356600, Note_on_c, 6, 50, 100
8, 1356660, Note_on_c, 6, 50, 0
8, 1356660, Note_on_c, 6, 52, 100
8, 1356720, Note_on_c, 6, 52, 0
8, 1356720, Note_on_c, 6, 54, 100
8, 1356760, Note_on_c, 6, 54, 0
8, 1356760, Note_on_c, 6, 52, 100
8, 1356800, Note_on_c, 6, 52, 0
8, 1356800, Note_on_c, 6, 54, 100
8, 1356840, Note_on_c, 6, 54, 0
8, 1356840, Note_on_c, 6, 52, 100
8, 1356880, Note_on_c, 6, 52, 0
8, 1356880, Note_on_c, 6, 54, 100
8, 1356920, Note_on_c, 6, 54, 0
8, 1356920, Note_on_c, 6, 52, 100
8, 1356960, Note_on_c, 6, 52, 0
8, 1356960, Note_on_c, 6, 54, 100
8, 1357000, Note_on_c, 6, 54, 0
8, 1357000, Note_on_c, 6, 52, 100
8, 1357040, Note_on_c, 6, 52, 0
8, 1357040, Note_on_c, 6, 54, 100
8, 1357080, Note_on_c, 6, 54, 0
8, 1357080, Note_on_c, 6, 52, 100
8, 1357120, Note_on_c, 6, 52, 0
8, 1357120, Note_on_c, 6, 54, 100
8, 1357160, Note_on_c, 6, 54, 0
8, 1357160, Note_on_c, 6, 52, 100
8, 1357260, Note_on_c, 6, 52, 0
8, 1357260, Note_on_c, 6, 50, 100
8, 1357320, Note_on_c, 6, 50, 0
8, 1357320, Note_on_c, 6, 52, 100
8, 1357380, Note_on_c, 6, 52, 0
8, 1357380, Note_on_c, 6, 54, 100
8, 1357440, Note_on_c, 6, 54, 0
8, 1357440, Note_on_c, 6, 50, 100
8, 1357800, Note_on_c, 6, 50, 0
8, 1357800, Note_on_c, 6, 60, 100
8, 1357860, Note_on_c, 6, 60, 0
8, 1357860, Note_on_c, 6, 59, 100
8, 1357920, Note_on_c, 6, 59, 0
8, 1357920, Note_on_c, 6, 60, 100
8, 1358280, Note_on_c, 6, 60, 0
8, 1358280, Note_on_c, 6, 57, 100
8, 1358400, Note_on_c, 6, 57, 0
8, 1358400, Note_on_c, 6, 54, 100
8, 1358760, Note_on_c, 6, 54, 0
8, 1358760, Note_on_c, 6, 64, 100
8, 1358880, Note_on_c, 6, 64, 0
8, 1358880, Note_on_c, 6, 62, 100
8, 1359240, Note_on_c, 6, 62, 0
8, 1359240, Note_on_c, 6, 60, 100
8, 1359360, Note_on_c, 6, 60, 0
8, 1359360, Note_on_c, 6, 60, 100
8, 1359420, Note_on_c, 6, 60, 0
8, 1359420, Note_on_c, 6, 59, 100
8, 1359480, Note_on_c, 6, 59, 0
8, 1359480, Note_on_c, 6, 57, 100
8, 1359540, Note_on_c, 6, 57, 0
8, 1359540, Note_on_c, 6, 59, 100
8, 1359600, Note_on_c, 6, 59, 0
8, 1359600, Note_on_c, 6, 60, 100
8, 1359640, Note_on_c, 6, 60, 0
8, 1359640, Note_on_c, 6, 59, 100
8, 1359680, Note_on_c, 6, 59, 0
8, 1359680, Note_on_c, 6, 60, 100
8, 1359720, Note_on_c, 6, 60, 0
8, 1359720, Note_on_c, 6, 59, 100
8, 1359760, Note_on_c, 6, 59, 0
8, 1359760, Note_on_c, 6, 60, 100
8, 1359800, Note_on_c, 6, 60, 0
8, 1359800, Note_on_c, 6, 59, 100
8, 1360080, Note_on_c, 6, 59, 0
8, 1360080, Note_on_c, 6, 59, 100
8, 1360320, Note_on_c, 6, 59, 0
8, 1360320, Note_on_c, 6, 59, 100
8, 1360620, Note_on_c, 6, 59, 0
8, 1360620, Note_on_c, 6, 60, 100
8, 1360680, Note_on_c, 6, 60, 0
8, 1360680, Note_on_c, 6, 59, 100
8, 1360740, Note_on_c, 6, 59, 0
8, 1360740, Note_on_c, 6, 57, 100
8, 1360800, Note_on_c, 6, 57, 0
8, 1360800, Note_on_c, 6, 59, 100
8, 1361160, Note_on_c, 6, 59, 0
8, 1361160, Note_on_c, 6, 55, 100
8, 1361280, Note_on_c, 6, 55, 0
8, 1361280, Note_on_c, 6, 60, 100
8, 1361340, Note_on_c, 6, 60, 0
8, 1361340, Note_on_c, 6, 59, 100
8, 1361400, Note_on_c, 6, 59, 0
8, 1361400, Note_on_c, 6, 60, 100
8, 1362060, Note_on_c, 6, 60, 0
8, 1362060, Note_on_c, 6, 62, 100
8, 1362120, Note_on_c, 6, 62, 0
8, 1362120, Note_on_c, 6, 60, 100
8, 1362180, Note_on_c, 6, 60, 0
8, 1362180, Note_on_c, 6, 59, 100
8, 1362240, Note_on_c, 6, 59, 0
8, 1362240, Note_on_c, 6, 60, 100
8, 1362540, Note_on_c, 6, 60, 0
8, 1362540, Note_on_c, 6, 59, 100
8, 1362600, Note_on_c, 6, 59, 0
8, 1362600, Note_on_c, 6, 57, 100
8, 1362660, Note_on_c, 6, 57, 0
8, 1362660, Note_on_c, 6, 55, 100
8, 1362720, Note_on_c, 6, 55, 0
8, 1362720, Note_on_c, 6, 57, 100
8, 1363020, Note_on_c, 6, 57, 0
8, 1363020, Note_on_c, 6, 55, 100
8, 1363080, Note_on_c, 6, 55, 0
8, 1363080, Note_on_c, 6, 54, 100
8, 1363140, Note_on_c, 6, 54, 0
8, 1363140, Note_on_c, 6, 52, 100
8, 1363200, Note_on_c, 6, 52, 0
8, 1363200, Note_on_c, 6, 50, 100
8, 1364280, Note_on_c, 6, 50, 0
8, 1364280, Note_on_c, 6, 48, 100
8, 1364340, Note_on_c, 6, 48, 0
8, 1364340, Note_on_c, 6, 47, 100
8, 1364400, Note_on_c, 6, 47, 0
8, 1364400, Note_on_c, 6, 45, 100
8, 1364460, Note_on_c, 6, 45, 0
8, 1364460, Note_on_c, 6, 43, 100
8, 1364520, Note_on_c, 6, 43, 0
8, 1364520, Note_on_c, 6, 42, 100
8, 1364580, Note_on_c, 6, 42, 0
8, 1364580, Note_on_c, 6, 40, 100
8, 1364640, Note_on_c, 6, 40, 0
8, 1364640, Note_on_c, 6, 38, 100
8, 1364760, Note_on_c, 6, 38, 0
8, 1364760, Note_on_c, 6, 42, 100
8, 1364880, Note_on_c, 6, 42, 0
8, 1364880, Note_on_c, 6, 45, 100
8, 1365000, Note_on_c, 6, 45, 0
8, 1365000, Note_on_c, 6, 50, 100
8, 1365120, Note_on_c, 6, 50, 0
8, 1365120, Note_on_c, 6, 43, 100
8, 1365240, Note_on_c, 6, 43, 0
8, 1365240, Note_on_c, 6, 50, 100
8, 1365360, Note_on_c, 6, 50, 0
8, 1365360, Note_on_c, 6, 52, 100
8, 1365480, Note_on_c, 6, 52, 0
8, 1365480, Note_on_c, 6, 54, 100
8, 1365600, Note_on_c, 6, 54, 0
8, 1365600, Note_on_c, 6, 55, 100
8, 1365720, Note_on_c, 6, 55, 0
8, 1365720, Note_on_c, 6, 54, 100
8, 1365840, Note_on_c, 6, 54, 0
8, 1365840, Note_on_c, 6, 55, 100
8, 1365960, Note_on_c, 6, 55, 0
8, 1365960, Note_on_c, 6, 57, 100
8, 1366080, Note_on_c, 6, 57, 0
8, 1366080, Note_on_c, 6, 60, 100
8, 1366140, Note_on_c, 6, 60, 0
8, 1366140, Note_on_c, 6, 59, 100
8, 1366200, Note_on_c, 6, 59, 0
8, 1366200, Note_on_c, 6, 60, 100
8, 1366260, Note_on_c, 6, 60, 0
8, 1366260, Note_on_c, 6, 59, 100
8, 1366320, Note_on_c, 6, 59, 0
8, 1366320, Note_on_c, 6, 60, 100
8, 1366360, Note_on_c, 6, 60, 0
8, 1366360, Note_on_c, 6, 59, 100
8, 1366400, Note_on_c, 6, 59, 0
8, 1366400, Note_on_c, 6, 60, 100
8, 1366440, Note_on_c, 6, 60, 0
8, 1366440, Note_on_c, 6, 59, 100
8, 1366480, Note_on_c, 6, 59, 0
8, 1366480, Note_on_c, 6, 60, 100
8, 1366520, Note_on_c, 6, 60, 0
8, 1366520, Note_on_c, 6, 59, 100
8, 1366860, Note_on_c, 6, 59, 0
8, 1366860, Note_on_c, 6, 57, 100
8, 1366920, Note_on_c, 6, 57, 0
8, 1366920, Note_on_c, 6, 55, 100
8, 1366980, Note_on_c, 6, 55, 0
8, 1366980, Note_on_c, 6, 54, 100
8, 1367040, Note_on_c, 6, 54, 0
8, 1367040, Note_on_c, 6, 55, 100
8, 1367160, Note_on_c, 6, 55, 0
8, 1367160, Note_on_c, 6, 59, 100
8, 1367280, Note_on_c, 6, 59, 0
8, 1367280, Note_on_c, 6, 61, 100
8, 1367400, Note_on_c, 6, 61, 0
8, 1367400, Note_on_c, 6, 63, 100
8, 1367520, Note_on_c, 6, 63, 0
8, 1367520, Note_on_c, 6, 64, 100
8, 1367640, Note_on_c, 6, 64, 0
8, 1367640, Note_on_c, 6, 63, 100
8, 1367760, Note_on_c, 6, 63, 0
8, 1367760, Note_on_c, 6, 64, 100
8, 1367880, Note_on_c, 6, 64, 0
8, 1367880, Note_on_c, 6, 66, 100
8, 1368000, Note_on_c, 6, 66, 0
8, 1368000, Note_on_c, 6, 67, 100
8, 1368360, Note_on_c, 6, 67, 0
8, 1368360, Note_on_c, 6, 55, 100
8, 1368480, Note_on_c, 6, 55, 0
8, 1368480, Note_on_c, 6, 67, 100
8, 1368840, Note_on_c, 6, 67, 0
8, 1368840, Note_on_c, 6, 67, 100
8, 1368960, Note_on_c, 6, 67, 0
8, 1368960, Note_on_c, 6, 67, 100
8, 1369740, Note_on_c, 6, 67, 0
8, 1369740, Note_on_c, 6, 67, 100
8, 1369800, Note_on_c, 6, 67, 0
8, 1369800, Note_on_c, 6, 66, 100
8, 1369860, Note_on_c, 6, 66, 0
8, 1369860, Note_on_c, 6, 64, 100
8, 1369920, Note_on_c, 6, 64, 0
8, 1369920, Note_on_c, 6, 66, 100
8, 1370220, Note_on_c, 6, 66, 0
8, 1370220, Note_on_c, 6, 59, 100
8, 1370280, Note_on_c, 6, 59, 0
8, 1370280, Note_on_c, 6, 61, 100
8, 1370340, Note_on_c, 6, 61, 0
8, 1370340, Note_on_c, 6, 63, 100
8, 1370400, Note_on_c, 6, 63, 0
8, 1370400, Note_on_c, 6, 64, 100
8, 1370760, Note_on_c, 6, 64, 0
8, 1370760, Note_on_c, 6, 64, 100
8, 1370880, Note_on_c, 6, 64, 0
8, 1370880, Note_on_c, 6, 64, 100
8, 1371660, Note_on_c, 6, 64, 0
8, 1371660, Note_on_c, 6, 60, 100
8, 1371720, Note_on_c, 6, 60, 0
8, 1371720, Note_on_c, 6, 59, 100
8, 1371780, Note_on_c, 6, 59, 0
8, 1371780, Note_on_c, 6, 57, 100
8, 1371840, Note_on_c, 6, 57, 0
8, 1371840, Note_on_c, 6, 56, 100
8, 1372200, Note_on_c, 6, 56, 0
8, 1372200, Note_on_c, 6, 59, 100
8, 1372320, Note_on_c, 6, 59, 0
8, 1372320, Note_on_c, 6, 52, 100
8, 1372680, Note_on_c, 6, 52, 0
8, 1372680, Note_on_c, 6, 56, 100
8, 1372800, Note_on_c, 6, 56, 0
8, 1372800, Note_on_c, 6, 57, 100
8, 1373400, Note_on_c, 6, 57, 0
8, 1373400, Note_on_c, 6, 45, 100
8, 1373460, Note_on_c, 6, 45, 0
8, 1373460, Note_on_c, 6, 47, 100
8, 1373520, Note_on_c, 6, 47, 0
8, 1373520, Note_on_c, 6, 49, 100
8, 1373580, Note_on_c, 6, 49, 0
8, 1373580, Note_on_c, 6, 50, 100
8, 1373640, Note_on_c, 6, 50, 0
8, 1373640, Note_on_c, 6, 52, 100
8, 1373700, Note_on_c, 6, 52, 0
8, 1373700, Note_on_c, 6, 54, 100
8, 1373760, Note_on_c, 6, 54, 0
8, 1373760, Note_on_c, 6, 55, 100
8, 1374120, Note_on_c, 6, 55, 0
8, 1374120, Note_on_c, 6, 52, 100
8, 1374240, Note_on_c, 6, 52, 0
8, 1374240, Note_on_c, 6, 49, 100
8, 1374600, Note_on_c, 6, 49, 0
8, 1374600, Note_on_c, 6, 45, 100
8, 1374720, Note_on_c, 6, 45, 0
8, 1374720, Note_on_c, 6, 54, 100
8, 1375500, Note_on_c, 6, 54, 0
8, 1375500, Note_on_c, 6, 55, 100
8, 1375560, Note_on_c, 6, 55, 0
8, 1375560, Note_on_c, 6, 54, 100
8, 1375620, Note_on_c, 6, 54, 0
8, 1375620, Note_on_c, 6, 52, 100
8, 1375680, Note_on_c, 6, 52, 0
8, 1375680, Note_on_c, 6, 50, 100
8, 1375980, Note_on_c, 6, 50, 0
8, 1375980, Note_on_c, 6, 48, 100
8, 1376040, Note_on_c, 6, 48, 0
8, 1376040, Note_on_c, 6, 47, 100
8, 1376100, Note_on_c, 6, 47, 0
8, 1376100, Note_on_c, 6, 45, 100
8, 1376160, Note_on_c, 6, 45, 0
8, 1376160, Note_on_c, 6, 43, 100
8, 1376460, Note_on_c, 6, 43, 0
8, 1376460, Note_on_c, 6, 50, 100
8, 1376520, Note_on_c, 6, 50, 0
8, 1376520, Note_on_c, 6, 52, 100
8, 1376580, Note_on_c, 6, 52, 0
8, 1376580, Note_on_c, 6, 54, 100
8, 1376640, Note_on_c, 6, 54, 0
8, 1376640, Note_on_c, 6, 55, 100
8, 1376700, Note_on_c, 6, 55, 0
8, 1376700, Note_on_c, 6, 54, 100
8, 1376760, Note_on_c, 6, 54, 0
8, 1376760, Note_on_c, 6, 55, 100
8, 1377000, Note_on_c, 6, 55, 0
8, 1377000, Note_on_c, 6, 43, 100
8, 1377120, Note_on_c, 6, 43, 0
8, 1377120, Note_on_c, 6, 55, 100
8, 1377480, Note_on_c, 6, 55, 0
8, 1377480, Note_on_c, 6, 55, 100
8, 1377600, Note_on_c, 6, 55, 0
8, 1377600, Note_on_c, 6, 55, 100
8, 1378380, Note_on_c, 6, 55, 0
8, 1378380, Note_on_c, 6, 55, 100
8, 1378440, Note_on_c, 6, 55, 0
8, 1378440, Note_on_c, 6, 54, 100
8, 1378500, Note_on_c, 6, 54, 0
8, 1378500, Note_on_c, 6, 52, 100
8, 1378560, Note_on_c, 6, 52, 0
8, 1378560, Note_on_c, 6, 54, 100
8, 1378740, Note_on_c, 6, 54, 0
8, 1378740, Note_on_c, 6, 50, 100
8, 1378800, Note_on_c, 6, 50, 0
8, 1378800, Note_on_c, 6, 52, 100
8, 1378860, Note_on_c, 6, 52, 0
8, 1378860, Note_on_c, 6, 54, 100
8, 1378920, Note_on_c, 6, 54, 0
8, 1378920, Note_on_c, 6, 55, 100
8, 1378980, Note_on_c, 6, 55, 0
8, 1378980, Note_on_c, 6, 57, 100
8, 1379040, Note_on_c, 6, 57, 0
8, 1379040, Note_on_c, 6, 59, 100
8, 1379400, Note_on_c, 6, 59, 0
8, 1379400, Note_on_c, 6, 55, 100
8, 1379520, Note_on_c, 6, 55, 0
8, 1379520, Note_on_c, 6, 57, 100
8, 1380000, Note_on_c, 6, 57, 0
8, 1380000, Note_on_c, 6, 45, 100
8, 1380480, Note_on_c, 6, 45, 0
8, 1380480, Note_on_c, 6, 38, 100
8, 1380960, Note_on_c, 6, 38, 0
8, 1385760, Note_on_c, 6, 59, 100
8, 1385880, Note_on_c, 6, 59, 0
8, 1385880, Note_on_c, 6, 57, 100
8, 1386000, Note_on_c, 6, 57, 0
8, 1386000, Note_on_c, 6, 55, 100
8, 1386120, Note_on_c, 6, 55, 0
8, 1386120, Note_on_c, 6, 54, 100
8, 1386240, Note_on_c, 6, 54, 0
8, 1386240, Note_on_c, 6, 55, 100
8, 1386480, Note_on_c, 6, 55, 0
8, 1386480, Note_on_c, 6, 57, 100
8, 1386720, Note_on_c, 6, 57, 0
8, 1386720, Note_on_c, 6, 59, 100
8, 1386960, Note_on_c, 6, 59, 0
8, 1386960, Note_on_c, 6, 52, 100
8, 1387080, Note_on_c, 6, 52, 0
8, 1387080, Note_on_c, 6, 55, 100
8, 1387200, Note_on_c, 6, 55, 0
8, 1387200, Note_on_c, 6, 54, 100
8, 1387320, Note_on_c, 6, 54, 0
8, 1387320, Note_on_c, 6, 57, 100
8, 1387440, Note_on_c, 6, 57, 0
8, 1387440, Note_on_c, 6, 55, 100
8, 1387560, Note_on_c, 6, 55, 0
8, 1387560, Note_on_c, 6, 59, 100
8, 1387680, Note_on_c, 6, 59, 0
8, 1387680, Note_on_c, 6, 57, 100
8, 1387920, Note_on_c, 6, 57, 0
8, 1387920, Note_on_c, 6, 59, 100
8, 1388160, Note_on_c, 6, 59, 0
8, 1388160, Note_on_c, 6, 60, 100
8, 1388400, Note_on_c, 6, 60, 0
8, 1388400, Note_on_c, 6, 54, 100
8, 1388520, Note_on_c, 6, 54, 0
8, 1388520, Note_on_c, 6, 57, 100
8, 1388640, Note_on_c, 6, 57, 0
8, 1388640, Note_on_c, 6, 55, 100
8, 1388760, Note_on_c, 6, 55, 0
8, 1388760, Note_on_c, 6, 59, 100
8, 1388880, Note_on_c, 6, 59, 0
8, 1388880, Note_on_c, 6, 57, 100
8, 1389000, Note_on_c, 6, 57, 0
8, 1389000, Note_on_c, 6, 60, 100
8, 1389120, Note_on_c, 6, 60, 0
8, 1389120, Note_on_c, 6, 59, 100
8, 1389360, Note_on_c, 6, 59, 0
8, 1389360, Note_on_c, 6, 60, 100
8, 1389600, Note_on_c, 6, 60, 0
8, 1389600, Note_on_c, 6, 62, 100
8, 1389840, Note_on_c, 6, 62, 0
8, 1389840, Note_on_c, 6, 55, 100
8, 1389960, Note_on_c, 6, 55, 0
8, 1389960, Note_on_c, 6, 59, 100
8, 1390080, Note_on_c, 6, 59, 0
8, 1390080, Note_on_c, 6, 57, 100
8, 1390200, Note_on_c, 6, 57, 0
8, 1390200, Note_on_c, 6, 60, 100
8, 1390320, Note_on_c, 6, 60, 0
8, 1390320, Note_on_c, 6, 59, 100
8, 1390440, Note_on_c, 6, 59, 0
8, 1390440, Note_on_c, 6, 62, 100
8, 1390560, Note_on_c, 6, 62, 0
8, 1390560, Note_on_c, 6, 60, 100
8, 1390800, Note_on_c, 6, 60, 0
8, 1390800, Note_on_c, 6, 57, 100
8, 1391040, Note_on_c, 6, 57, 0
8, 1391040, Note_on_c, 6, 59, 100
8, 1391280, Note_on_c, 6, 59, 0
8, 1391280, Note_on_c, 6, 52, 100
8, 1391520, Note_on_c, 6, 52, 0
8, 1394400, Note_on_c, 6, 50, 100
8, 1394520, Note_on_c, 6, 50, 0
8, 1394520, Note_on_c, 6, 48, 100
8, 1394640, Note_on_c, 6, 48, 0
8, 1394640, Note_on_c, 6, 47, 100
8, 1394760, Note_on_c, 6, 47, 0
8, 1394760, Note_on_c, 6, 45, 100
8, 1394880, Note_on_c, 6, 45, 0
8, 1394880, Note_on_c, 6, 47, 100
8, 1395120, Note_on_c, 6, 47, 0
8, 1395120, Note_on_c, 6, 48, 100
8, 1395360, Note_on_c, 6, 48, 0
8, 1395360, Note_on_c, 6, 50, 100
8, 1395600, Note_on_c, 6, 50, 0
8, 1395600, Note_on_c, 6, 43, 100
8, 1395720, Note_on_c, 6, 43, 0
8, 1395720, Note_on_c, 6, 47, 100
8, 1395840, Note_on_c, 6, 47, 0
8, 1395840, Note_on_c, 6, 45, 100
8, 1395960, Note_on_c, 6, 45, 0
8, 1395960, Note_on_c, 6, 48, 100
8, 1396080, Note_on_c, 6, 48, 0
8, 1396080, Note_on_c, 6, 47, 100
8, 1396200, Note_on_c, 6, 47, 0
8, 1396200, Note_on_c, 6, 50, 100
8, 1396320, Note_on_c, 6, 50, 0
8, 1396320, Note_on_c, 6, 48, 100
8, 1396440, Note_on_c, 6, 48, 0
8, 1396440, Note_on_c, 6, 47, 100
8, 1396560, Note_on_c, 6, 47, 0
8, 1396560, Note_on_c, 6, 45, 100
8, 1396680, Note_on_c, 6, 45, 0
8, 1396680, Note_on_c, 6, 43, 100
8, 1396800, Note_on_c, 6, 43, 0
8, 1396800, Note_on_c, 6, 42, 100
8, 1396920, Note_on_c, 6, 42, 0
8, 1396920, Note_on_c, 6, 40, 100
8, 1397040, Note_on_c, 6, 40, 0
8, 1397040, Note_on_c, 6, 42, 100
8, 1397280, Note_on_c, 6, 42, 0
8, 1397280, Note_on_c, 6, 45, 100
8, 1397340, Note_on_c, 6, 45, 0
8, 1397340, Note_on_c, 6, 43, 100
8, 1397400, Note_on_c, 6, 43, 0
8, 1397400, Note_on_c, 6, 42, 100
8, 1397460, Note_on_c, 6, 42, 0
8, 1397460, Note_on_c, 6, 43, 100
8, 1397520, Note_on_c, 6, 43, 0
8, 1397520, Note_on_c, 6, 45, 100
8, 1397760, Note_on_c, 6, 45, 0
8, 1397760, Note_on_c, 6, 38, 100
8, 1397880, Note_on_c, 6, 38, 0
8, 1397880, Note_on_c, 6, 42, 100
8, 1398000, Note_on_c, 6, 42, 0
8, 1398000, Note_on_c, 6, 40, 100
8, 1398120, Note_on_c, 6, 40, 0
8, 1398120, Note_on_c, 6, 43, 100
8, 1398240, Note_on_c, 6, 43, 0
8, 1398240, Note_on_c, 6, 42, 100
8, 1398360, Note_on_c, 6, 42, 0
8, 1398360, Note_on_c, 6, 45, 100
8, 1398480, Note_on_c, 6, 45, 0
8, 1398480, Note_on_c, 6, 43, 100
8, 1398720, Note_on_c, 6, 43, 0
8, 1398720, Note_on_c, 6, 47, 100
8, 1398780, Note_on_c, 6, 47, 0
8, 1398780, Note_on_c, 6, 45, 100
8, 1398840, Note_on_c, 6, 45, 0
8, 1398840, Note_on_c, 6, 43, 100
8, 1398900, Note_on_c, 6, 43, 0
8, 1398900, Note_on_c, 6, 45, 100
8, 1398960, Note_on_c, 6, 45, 0
8, 1398960, Note_on_c, 6, 47, 100
8, 1399200, Note_on_c, 6, 47, 0
8, 1399200, Note_on_c, 6, 40, 100
8, 1399320, Note_on_c, 6, 40, 0
8, 1399320, Note_on_c, 6, 44, 100
8, 1399440, Note_on_c, 6, 44, 0
8, 1399440, Note_on_c, 6, 42, 100
8, 1399560, Note_on_c, 6, 42, 0
8, 1399560, Note_on_c, 6, 45, 100
8, 1399680, Note_on_c, 6, 45, 0
8, 1399680, Note_on_c, 6, 44, 100
8, 1399800, Note_on_c, 6, 44, 0
8, 1399800, Note_on_c, 6, 47, 100
8, 1399920, Note_on_c, 6, 47, 0
8, 1399920, Note_on_c, 6, 45, 100
8, 1400040, Note_on_c, 6, 45, 0
8, 1400040, Note_on_c, 6, 52, 100
8, 1400160, Note_on_c, 6, 52, 0
8, 1400160, Note_on_c, 6, 57, 100
8, 1400280, Note_on_c, 6, 57, 0
8, 1400280, Note_on_c, 6, 55, 100
8, 1400400, Note_on_c, 6, 55, 0
8, 1400400, Note_on_c, 6, 54, 100
8, 1400520, Note_on_c, 6, 54, 0
8, 1400520, Note_on_c, 6, 52, 100
8, 1400640, Note_on_c, 6, 52, 0
8, 1400640, Note_on_c, 6, 54, 100
8, 1400760, Note_on_c, 6, 54, 0
8, 1400760, Note_on_c, 6, 55, 100
8, 1400880, Note_on_c, 6, 55, 0
8, 1400880, Note_on_c, 6, 54, 100
8, 1401000, Note_on_c, 6, 54, 0
8, 1401000, Note_on_c, 6, 52, 100
8, 1401120, Note_on_c, 6, 52, 0
8, 1401120, Note_on_c, 6, 50, 100
8, 1401240, Note_on_c, 6, 50, 0
8, 1401240, Note_on_c, 6, 48, 100
8, 1401360, Note_on_c, 6, 48, 0
8, 1401360, Note_on_c, 6, 47, 100
8, 1401480, Note_on_c, 6, 47, 0
8, 1401480, Note_on_c, 6, 50, 100
8, 1401600, Note_on_c, 6, 50, 0
8, 1401600, Note_on_c, 6, 48, 100
8, 1401720, Note_on_c, 6, 48, 0
8, 1401720, Note_on_c, 6, 52, 100
8, 1401840, Note_on_c, 6, 52, 0
8, 1401840, Note_on_c, 6, 50, 100
8, 1401960, Note_on_c, 6, 50, 0
8, 1401960, Note_on_c, 6, 54, 100
8, 1402080, Note_on_c, 6, 54, 0
8, 1402080, Note_on_c, 6, 52, 100
8, 1402320, Note_on_c, 6, 52, 0
8, 1402320, Note_on_c, 6, 48, 100
8, 1402560, Note_on_c, 6, 48, 0
8, 1402560, Note_on_c, 6, 50, 100
8, 1402800, Note_on_c, 6, 50, 0
8, 1402800, Note_on_c, 6, 43, 100
8, 1402920, Note_on_c, 6, 43, 0
8, 1402920, Note_on_c, 6, 42, 100
8, 1403040, Note_on_c, 6, 42, 0
8, 1403040, Note_on_c, 6, 43, 100
8, 1403160, Note_on_c, 6, 43, 0
8, 1403160, Note_on_c, 6, 45, 100
8, 1403280, Note_on_c, 6, 45, 0
8, 1403280, Note_on_c, 6, 47, 100
8, 1403400, Note_on_c, 6, 47, 0
8, 1403400, Note_on_c, 6, 48, 100
8, 1403520, Note_on_c, 6, 48, 0
8, 1403520, Note_on_c, 6, 50, 100
8, 1403760, Note_on_c, 6, 50, 0
8, 1403760, Note_on_c, 6, 38, 100
8, 1404000, Note_on_c, 6, 38, 0
8, 1408800, Note_on_c, 6, 59, 100
8, 1408920, Note_on_c, 6, 59, 0
8, 1408920, Note_on_c, 6, 57, 100
8, 1409040, Note_on_c, 6, 57, 0
8, 1409040, Note_on_c, 6, 55, 100
8, 1409160, Note_on_c, 6, 55, 0
8, 1409160, Note_on_c, 6, 54, 100
8, 1409280, Note_on_c, 6, 54, 0
8, 1409280, Note_on_c, 6, 55, 100
8, 1409520, Note_on_c, 6, 55, 0
8, 1409520, Note_on_c, 6, 57, 100
8, 1409760, Note_on_c, 6, 57, 0
8, 1409760, Note_on_c, 6, 59, 100
8, 1410000, Note_on_c, 6, 59, 0
8, 1410000, Note_on_c, 6, 52, 100
8, 1410120, Note_on_c, 6, 52, 0
8, 1410120, Note_on_c, 6, 55, 100
8, 1410240, Note_on_c, 6, 55, 0
8, 1410240, Note_on_c, 6, 54, 100
8, 1410360, Note_on_c, 6, 54, 0
8, 1410360, Note_on_c, 6, 57, 100
8, 1410480, Note_on_c, 6, 57, 0
8, 1410480, Note_on_c, 6, 55, 100
8, 1410600, Note_on_c, 6, 55, 0
8, 1410600, Note_on_c, 6, 59, 100
8, 1410720, Note_on_c, 6, 59, 0
8, 1410720, Note_on_c, 6, 57, 100
8, 1410960, Note_on_c, 6, 57, 0
8, 1410960, Note_on_c, 6, 59, 100
8, 1411200, Note_on_c, 6, 59, 0
8, 1411200, Note_on_c, 6, 60, 100
8, 1411440, Note_on_c, 6, 60, 0
8, 1411440, Note_on_c, 6, 54, 100
8, 1411560, Note_on_c, 6, 54, 0
8, 1411560, Note_on_c, 6, 57, 100
8, 1411680, Note_on_c, 6, 57, 0
8, 1411680, Note_on_c, 6, 55, 100
8, 1411800, Note_on_c, 6, 55, 0
8, 1411800, Note_on_c, 6, 59, 100
8, 1411920, Note_on_c, 6, 59, 0
8, 1411920, Note_on_c, 6, 57, 100
8, 1412040, Note_on_c, 6, 57, 0
8, 1412040, Note_on_c, 6, 60, 100
8, 1412160, Note_on_c, 6, 60, 0
8, 1412160, Note_on_c, 6, 59, 100
8, 1412400, Note_on_c, 6, 59, 0
8, 1412400, Note_on_c, 6, 60, 100
8, 1412640, Note_on_c, 6, 60, 0
8, 1412640, Note_on_c, 6, 62, 100
8, 1412880, Note_on_c, 6, 62, 0
8, 1412880, Note_on_c, 6, 55, 100
8, 1413000, Note_on_c, 6, 55, 0
8, 1413000, Note_on_c, 6, 59, 100
8, 1413120, Note_on_c, 6, 59, 0
8, 1413120, Note_on_c, 6, 57, 100
8, 1413240, Note_on_c, 6, 57, 0
8, 1413240, Note_on_c, 6, 60, 100
8, 1413360, Note_on_c, 6, 60, 0
8, 1413360, Note_on_c, 6, 59, 100
8, 1413480, Note_on_c, 6, 59, 0
8, 1413480, Note_on_c, 6, 62, 100
8, 1413600, Note_on_c, 6, 62, 0
8, 1413600, Note_on_c, 6, 60, 100
8, 1413840, Note_on_c, 6, 60, 0
8, 1413840, Note_on_c, 6, 57, 100
8, 1414080, Note_on_c, 6, 57, 0
8, 1414080, Note_on_c, 6, 59, 100
8, 1414320, Note_on_c, 6, 59, 0
8, 1414320, Note_on_c, 6, 52, 100
8, 1414560, Note_on_c, 6, 52, 0
8, 1417440, Note_on_c, 6, 50, 100
8, 1417560, Note_on_c, 6, 50, 0
8, 1417560, Note_on_c, 6, 48, 100
8, 1417680, Note_on_c, 6, 48, 0
8, 1417680, Note_on_c, 6, 47, 100
8, 1417800, Note_on_c, 6, 47, 0
8, 1417800, Note_on_c, 6, 45, 100
8, 1417920, Note_on_c, 6, 45, 0
8, 1417920, Note_on_c, 6, 47, 100
8, 1418160, Note_on_c, 6, 47, 0
8, 1418160, Note_on_c, 6, 48, 100
8, 1418400, Note_on_c, 6, 48, 0
8, 1418400, Note_on_c, 6, 50, 100
8, 1418640, Note_on_c, 6, 50, 0
8, 1418640, Note_on_c, 6, 43, 100
8, 1418760, Note_on_c, 6, 43, 0
8, 1418760, Note_on_c, 6, 47, 100
8, 1418880, Note_on_c, 6, 47, 0
8, 1418880, Note_on_c, 6, 45, 100
8, 1419000, Note_on_c, 6, 45, 0
8, 1419000, Note_on_c, 6, 48, 100
8, 1419120, Note_on_c, 6, 48, 0
8, 1419120, Note_on_c, 6, 47, 100
8, 1419240, Note_on_c, 6, 47, 0
8, 1419240, Note_on_c, 6, 50, 100
8, 1419360, Note_on_c, 6, 50, 0
8, 1419360, Note_on_c, 6, 48, 100
8, 1419480, Note_on_c, 6, 48, 0
8, 1419480, Note_on_c, 6, 47, 100
8, 1419600, Note_on_c, 6, 47, 0
8, 1419600, Note_on_c, 6, 45, 100
8, 1419720, Note_on_c, 6, 45, 0
8, 1419720, Note_on_c, 6, 43, 100
8, 1419840, Note_on_c, 6, 43, 0
8, 1419840, Note_on_c, 6, 42, 100
8, 1419960, Note_on_c, 6, 42, 0
8, 1419960, Note_on_c, 6, 40, 100
8, 1420080, Note_on_c, 6, 40, 0
8, 1420080, Note_on_c, 6, 42, 100
8, 1420320, Note_on_c, 6, 42, 0
8, 1420320, Note_on_c, 6, 45, 100
8, 1420380, Note_on_c, 6, 45, 0
8, 1420380, Note_on_c, 6, 43, 100
8, 1420440, Note_on_c, 6, 43, 0
8, 1420440, Note_on_c, 6, 42, 100
8, 1420500, Note_on_c, 6, 42, 0
8, 1420500, Note_on_c, 6, 43, 100
8, 1420560, Note_on_c, 6, 43, 0
8, 1420560, Note_on_c, 6, 45, 100
8, 1420800, Note_on_c, 6, 45, 0
8, 1420800, Note_on_c, 6, 38, 100
8, 1420920, Note_on_c, 6, 38, 0
8, 1420920, Note_on_c, 6, 42, 100
8, 1421040, Note_on_c, 6, 42, 0
8, 1421040, Note_on_c, 6, 40, 100
8, 1421160, Note_on_c, 6, 40, 0
8, 1421160, Note_on_c, 6, 43, 100
8, 1421280, Note_on_c, 6, 43, 0
8, 1421280, Note_on_c, 6, 42, 100
8, 1421400, Note_on_c, 6, 42, 0
8, 1421400, Note_on_c, 6, 45, 100
8, 1421520, Note_on_c, 6, 45, 0
8, 1421520, Note_on_c, 6, 43, 100
8, 1421760, Note_on_c, 6, 43, 0
8, 1421760, Note_on_c, 6, 47, 100
8, 1421820, Note_on_c, 6, 47, 0
8, 1421820, Note_on_c, 6, 45, 100
8, 1421880, Note_on_c, 6, 45, 0
8, 1421880, Note_on_c, 6, 43, 100
8, 1421940, Note_on_c, 6, 43, 0
8, 1421940, Note_on_c, 6, 45, 100
8, 1422000, Note_on_c, 6, 45, 0
8, 1422000, Note_on_c, 6, 47, 100
8, 1422240, Note_on_c, 6, 47, 0
8, 1422240, Note_on_c, 6, 40, 100
8, 1422360, Note_on_c, 6, 40, 0
8, 1422360, Note_on_c, 6, 44, 100
8, 1422480, Note_on_c, 6, 44, 0
8, 1422480, Note_on_c, 6, 42, 100
8, 1422600, Note_on_c, 6, 42, 0
8, 1422600, Note_on_c, 6, 45, 100
8, 1422720, Note_on_c, 6, 45, 0
8, 1422720, Note_on_c, 6, 44, 100
8, 1422840, Note_on_c, 6, 44, 0
8, 1422840, Note_on_c, 6, 47, 100
8, 1422960, Note_on_c, 6, 47, 0
8, 1422960, Note_on_c, 6, 45, 100
8, 1423080, Note_on_c, 6, 45, 0
8, 1423080, Note_on_c, 6, 52, 100
8, 1423200, Note_on_c, 6, 52, 0
8, 1423200, Note_on_c, 6, 57, 100
8, 1423320, Note_on_c, 6, 57, 0
8, 1423320, Note_on_c, 6, 55, 100
8, 1423440, Note_on_c, 6, 55, 0
8, 1423440, Note_on_c, 6, 54, 100
8, 1423560, Note_on_c, 6, 54, 0
8, 1423560, Note_on_c, 6, 52, 100
8, 1423680, Note_on_c, 6, 52, 0
8, 1423680, Note_on_c, 6, 54, 100
8, 1423800, Note_on_c, 6, 54, 0
8, 1423800, Note_on_c, 6, 55, 100
8, 1423920, Note_on_c, 6, 55, 0
8, 1423920, Note_on_c, 6, 54, 100
8, 1424040, Note_on_c, 6, 54, 0
8, 1424040, Note_on_c, 6, 52, 100
8, 1424160, Note_on_c, 6, 52, 0
8, 1424160, Note_on_c, 6, 50, 100
8, 1424280, Note_on_c, 6, 50, 0
8, 1424280, Note_on_c, 6, 48, 100
8, 1424400, Note_on_c, 6, 48, 0
8, 1424400, Note_on_c, 6, 47, 100
8, 1424520, Note_on_c, 6, 47, 0
8, 1424520, Note_on_c, 6, 50, 100
8, 1424640, Note_on_c, 6, 50, 0
8, 1424640, Note_on_c, 6, 48, 100
8, 1424760, Note_on_c, 6, 48, 0
8, 1424760, Note_on_c, 6, 52, 100
8, 1424880, Note_on_c, 6, 52, 0
8, 1424880, Note_on_c, 6, 50, 100
8, 1425000, Note_on_c, 6, 50, 0
8, 1425000, Note_on_c, 6, 54, 100
8, 1425120, Note_on_c, 6, 54, 0
8, 1425120, Note_on_c, 6, 52, 100
8, 1425360, Note_on_c, 6, 52, 0
8, 1425360, Note_on_c, 6, 48, 100
8, 1425600, Note_on_c, 6, 48, 0
8, 1425600, Note_on_c, 6, 50, 100
8, 1425840, Note_on_c, 6, 50, 0
8, 1425840, Note_on_c, 6, 43, 100
8, 1427760, Note_on_c, 6, 43, 0
8, 1842480, Note_on_c, 6, 55, 100
8, 1844400, Note_on_c, 6, 55, 0
8, 1844400, Note_on_c, 6, 54, 100
8, 1846320, Note_on_c, 6, 54, 0
8, 1846320, Note_on_c, 6, 52, 100
8, 1848240, Note_on_c, 6, 52, 0
8, 1848240, Note_on_c, 6, 50, 100
8, 1849680, Note_on_c, 6, 50, 0
8, 1849680, Note_on_c, 6, 48, 100
8, 1850160, Note_on_c, 6, 48, 0
8, 1850160, Note_on_c, 6, 47, 100
8, 1852080, Note_on_c, 6, 47, 0
8, 1852080, Note_on_c, 6, 48, 100
8, 1854000, Note_on_c, 6, 48, 0
8, 1854000, Note_on_c, 6, 50, 100
8, 1855920, Note_on_c, 6, 50, 0
8, 1855920, Note_on_c, 6, 43, 100
8, 1858320, Note_on_c, 6, 43, 0
8, 1858320, Note_on_c, 6, 55, 100
8, 1858560, Note_on_c, 6, 55, 0
8, 1858560, Note_on_c, 6, 54, 100
8, 1858800, Note_on_c, 6, 54, 0
8, 1858800, Note_on_c, 6, 55, 100
8, 1860240, Note_on_c, 6, 55, 0
8, 1860240, Note_on_c, 6, 54, 100
8, 1860480, Note_on_c, 6, 54, 0
8, 1860480, Note_on_c, 6, 52, 100
8, 1860720, Note_on_c, 6, 52, 0
8, 1860720, Note_on_c, 6, 54, 100
8, 1861200, Note_on_c, 6, 54, 0
8, 1861200, Note_on_c, 6, 59, 100
8, 1861680, Note_on_c, 6, 59, 0
8, 1861680, Note_on_c, 6, 52, 100
8, 1863120, Note_on_c, 6, 52, 0
8, 1863120, Note_on_c, 6, 50, 100
8, 1864080, Note_on_c, 6, 50, 0
8, 1864080, Note_on_c, 6, 49, 100
8, 1864320, Note_on_c, 6, 49, 0
8, 1864320, Note_on_c, 6, 47, 100
8, 1864560, Note_on_c, 6, 47, 0
8, 1864560, Note_on_c, 6, 49, 100
8, 1865040, Note_on_c, 6, 49, 0
8, 1865040, Note_on_c, 6, 52, 100
8, 1865520, Note_on_c, 6, 52, 0
8, 1865520, Note_on_c, 6, 42, 100
8, 1866480, Note_on_c, 6, 42, 0
8, 1866480, Note_on_c, 6, 54, 100
8, 1867440, Note_on_c, 6, 54, 0
8, 1867440, Note_on_c, 6, 43, 100
8, 1868400, Note_on_c, 6, 43, 0
8, 1868400, Note_on_c, 6, 52, 100
8, 1869360, Note_on_c, 6, 52, 0
8, 1869360, Note_on_c, 6, 45, 100
8, 1871280, Note_on_c, 6, 45, 0
8, 1871280, Note_on_c, 6, 50, 100
8, 1873200, Note_on_c, 6, 50, 0
8, 1873200, Note_on_c, 6, 55, 100
8, 1875120, Note_on_c, 6, 55, 0
8, 1875120, Note_on_c, 6, 54, 100
8, 1877040, Note_on_c, 6, 54, 0
8, 1877040, Note_on_c, 6, 52, 100
8, 1878960, Note_on_c, 6, 52, 0
8, 1878960, Note_on_c, 6, 50, 100
8, 1880400, Note_on_c, 6, 50, 0
8, 1880400, Note_on_c, 6, 48, 100
8, 1880880, Note_on_c, 6, 48, 0
8, 1880880, Note_on_c, 6, 47, 100
8, 1882800, Note_on_c, 6, 47, 0
8, 1882800, Note_on_c, 6, 48, 100
8, 1884720, Note_on_c, 6, 48, 0
8, 1884720, Note_on_c, 6, 50, 100
8, 1886640, Note_on_c, 6, 50, 0
8, 1886640, Note_on_c, 6, 43, 100
8, 1889040, Note_on_c, 6, 43, 0
8, 1889040, Note_on_c, 6, 55, 100
8, 1889280, Note_on_c, 6, 55, 0
8, 1889280, Note_on_c, 6, 54, 100
8, 1889520, Note_on_c, 6, 54, 0
8, 1889520, Note_on_c, 6, 55, 100
8, 1890960, Note_on_c, 6, 55, 0
8, 1890960, Note_on_c, 6, 54, 100
8, 1891200, Note_on_c, 6, 54, 0
8, 1891200, Note_on_c, 6, 52, 100
8, 1891440, Note_on_c, 6, 52, 0
8, 1891440, Note_on_c, 6, 54, 100
8, 1891920, Note_on_c, 6, 54, 0
8, 1891920, Note_on_c, 6, 59, 100
8, 1892400, Note_on_c, 6, 59, 0
8, 1892400, Note_on_c, 6, 52, 100
8, 1893840, Note_on_c, 6, 52, 0
8, 1893840, Note_on_c, 6, 50, 100
8, 1894800, Note_on_c, 6, 50, 0
8, 1894800, Note_on_c, 6, 49, 100
8, 1895040, Note_on_c, 6, 49, 0
8, 1895040, Note_on_c, 6, 47, 100
8, 1895280, Note_on_c, 6, 47, 0
8, 1895280, Note_on_c, 6, 49, 100
8, 1895760, Note_on_c, 6, 49, 0
8, 1895760, Note_on_c, 6, 52, 100
8, 1896240, Note_on_c, 6, 52, 0
8, 1896240, Note_on_c, 6, 42, 100
8, 1897200, Note_on_c, 6, 42, 0
8, 1897200, Note_on_c, 6, 54, 100
8, 1898160, Note_on_c, 6, 54, 0
8, 1898160, Note_on_c, 6, 43, 100
8, 1899120, Note_on_c, 6, 43, 0
8, 1899120, Note_on_c, 6, 52, 100
8, 1900080, Note_on_c, 6, 52, 0
8, 1900080, Note_on_c, 6, 45, 100
8, 1902000, Note_on_c, 6, 45, 0
8, 1902000, Note_on_c, 6, 50, 100
8, 1903920, Note_on_c, 6, 50, 0
8, 1903920, Note_on_c, 6, 62, 100
8, 1905360, Note_on_c, 6, 62, 0
8, 1905360, Note_on_c, 6, 60, 100
8, 1905840, Note_on_c, 6, 60, 0
8, 1905840, Note_on_c, 6, 59, 100
8, 1906320, Note_on_c, 6, 59, 0
8, 1906320, Note_on_c, 6, 62, 100
8, 1906800, Note_on_c, 6, 62, 0
8, 1906800, Note_on_c, 6, 67, 100
8, 1907280, Note_on_c, 6, 67, 0
8, 1907280, Note_on_c, 6, 55, 100
8, 1907760, Note_on_c, 6, 55, 0
8, 1907760, Note_on_c, 6, 60, 100
8, 1908240, Note_on_c, 6, 60, 0
8, 1908240, Note_on_c, 6, 64, 100
8, 1908720, Note_on_c, 6, 64, 0
8, 1908720, Note_on_c, 6, 60, 100
8, 1909200, Note_on_c, 6, 60, 0
8, 1909200, Note_on_c, 6, 57, 100
8, 1909680, Note_on_c, 6, 57, 0
8, 1909680, Note_on_c, 6, 59, 100
8, 1910160, Note_on_c, 6, 59, 0
8, 1910160, Note_on_c, 6, 47, 100
8, 1910640, Note_on_c, 6, 47, 0
8, 1910640, Note_on_c, 6, 59, 100
8, 1911120, Note_on_c, 6, 59, 0
8, 1911120, Note_on_c, 6, 57, 100
8, 1911600, Note_on_c, 6, 57, 0
8, 1911600, Note_on_c, 6, 55, 100
8, 1913520, Note_on_c, 6, 55, 0
8, 1913520, Note_on_c, 6, 57, 100
8, 1915440, Note_on_c, 6, 57, 0
8, 1915440, Note_on_c, 6, 59, 100
8, 1917360, Note_on_c, 6, 59, 0
8, 1917360, Note_on_c, 6, 52, 100
8, 1918800, Note_on_c, 6, 52, 0
8, 1918800, Note_on_c, 6, 50, 100
8, 1919280, Note_on_c, 6, 50, 0
8, 1919280, Note_on_c, 6, 48, 100
8, 1920240, Note_on_c, 6, 48, 0
8, 1920240, Note_on_c, 6, 60, 100
8, 1921680, Note_on_c, 6, 60, 0
8, 1921680, Note_on_c, 6, 59, 100
8, 1921920, Note_on_c, 6, 59, 0
8, 1921920, Note_on_c, 6, 57, 100
8, 1922160, Note_on_c, 6, 57, 0
8, 1922160, Note_on_c, 6, 59, 100
8, 1922640, Note_on_c, 6, 59, 0
8, 1922640, Note_on_c, 6, 64, 100
8, 1923120, Note_on_c, 6, 64, 0
8, 1923120, Note_on_c, 6, 57, 100
8, 1924560, Note_on_c, 6, 57, 0
8, 1924560, Note_on_c, 6, 55, 100
8, 1925040, Note_on_c, 6, 55, 0
8, 1925040, Note_on_c, 6, 54, 100
8, 1926000, Note_on_c, 6, 54, 0
8, 1926000, Note_on_c, 6, 55, 100
8, 1926960, Note_on_c, 6, 55, 0
8, 1926960, Note_on_c, 6, 52, 100
8, 1928400, Note_on_c, 6, 52, 0
8, 1928400, Note_on_c, 6, 50, 100
8, 1928880, Note_on_c, 6, 50, 0
8, 1928880, Note_on_c, 6, 48, 100
8, 1929840, Note_on_c, 6, 48, 0
8, 1929840, Note_on_c, 6, 49, 100
8, 1930800, Note_on_c, 6, 49, 0
8, 1930800, Note_on_c, 6, 50, 100
8, 1932720, Note_on_c, 6, 50, 0
8, 1932720, Note_on_c, 6, 43, 100
8, 1934640, Note_on_c, 6, 43, 0
8, 1934640, Note_on_c, 6, 62, 100
8, 1936080, Note_on_c, 6, 62, 0
8, 1936080, Note_on_c, 6, 60, 100
8, 1936560, Note_on_c, 6, 60, 0
8, 1936560, Note_on_c, 6, 59, 100
8, 1937040, Note_on_c, 6, 59, 0
8, 1937040, Note_on_c, 6, 62, 100
8, 1937520, Note_on_c, 6, 62, 0
8, 1937520, Note_on_c, 6, 67, 100
8, 1938000, Note_on_c, 6, 67, 0
8, 1938000, Note_on_c, 6, 55, 100
8, 1938480, Note_on_c, 6, 55, 0
8, 1938480, Note_on_c, 6, 60, 100
8, 1938960, Note_on_c, 6, 60, 0
8, 1938960, Note_on_c, 6, 64, 100
8, 1939440, Note_on_c, 6, 64, 0
8, 1939440, Note_on_c, 6, 60, 100
8, 1939920, Note_on_c, 6, 60, 0
8, 1939920, Note_on_c, 6, 57, 100
8, 1940400, Note_on_c, 6, 57, 0
8, 1940400, Note_on_c, 6, 59, 100
8, 1940880, Note_on_c, 6, 59, 0
8, 1940880, Note_on_c, 6, 47, 100
8, 1941360, Note_on_c, 6, 47, 0
8, 1941360, Note_on_c, 6, 59, 100
8, 1941840, Note_on_c, 6, 59, 0
8, 1941840, Note_on_c, 6, 57, 100
8, 1942320, Note_on_c, 6, 57, 0
8, 1942320, Note_on_c, 6, 55, 100
8, 1944240, Note_on_c, 6, 55, 0
8, 1944240, Note_on_c, 6, 57, 100
8, 1946160, Note_on_c, 6, 57, 0
8, 1946160, Note_on_c, 6, 59, 100
8, 1948080, Note_on_c, 6, 59, 0
8, 1948080, Note_on_c, 6, 52, 100
8, 1949520, Note_on_c, 6, 52, 0
8, 1949520, Note_on_c, 6, 50, 100
8, 1950000, Note_on_c, 6, 50, 0
8, 1950000, Note_on_c, 6, 48, 100
8, 1950960, Note_on_c, 6, 48, 0
8, 1950960, Note_on_c, 6, 60, 100
8, 1952400, Note_on_c, 6, 60, 0
8, 1952400, Note_on_c, 6, 59, 100
8, 1952640, Note_on_c, 6, 59, 0
8, 1952640, Note_on_c, 6, 57, 100
8, 1952880, Note_on_c, 6, 57, 0
8, 1952880, Note_on_c, 6, 59, 100
8, 1953360, Note_on_c, 6, 59, 0
8, 1953360, Note_on_c, 6, 64, 100
8, 1953840, Note_on_c, 6, 64, 0
8, 1953840, Note_on_c, 6, 57, 100
8, 1955280, Note_on_c, 6, 57, 0
8, 1955280, Note_on_c, 6, 55, 100
8, 1955760, Note_on_c, 6, 55, 0
8, 1955760, Note_on_c, 6, 54, 100
8, 1956720, Note_on_c, 6, 54, 0
8, 1956720, Note_on_c, 6, 55, 100
8, 1957680, Note_on_c, 6, 55, 0
8, 1957680, Note_on_c, 6, 52, 100
8, 1959120, Note_on_c, 6, 52, 0
8, 1959120, Note_on_c, 6, 50, 100
8, 1959600, Note_on_c, 6, 50, 0
8, 1959600, Note_on_c, 6, 48, 100
8, 1960560, Note_on_c, 6, 48, 0
8, 1960560, Note_on_c, 6, 49, 100
8, 1961520, Note_on_c, 6, 49, 0
8, 1961520, Note_on_c, 6, 50, 100
8, 1963440, Note_on_c, 6, 50, 0
8, 1963440, Note_on_c, 6, 43, 100
8, 1965360, Note_on_c, 6, 43, 0
8, 2011560, Note_on_c, 6, 38, 100
8, 2011680, Note_on_c, 6, 38, 0
8, 2011680, Note_on_c, 6, 38, 100
8, 2011800, Note_on_c, 6, 38, 0
8, 2013000, Note_on_c, 6, 43, 100
8, 2013120, Note_on_c, 6, 43, 0
8, 2013120, Note_on_c, 6, 43, 100
8, 2013240, Note_on_c, 6, 43, 0
8, 2014440, Note_on_c, 6, 64, 100
8, 2014560, Note_on_c, 6, 64, 0
8, 2014560, Note_on_c, 6, 64, 100
8, 2014680, Note_on_c, 6, 64, 0
8, 2015880, Note_on_c, 6, 81, 100
8, 2016000, Note_on_c, 6, 81, 0
8, 2016000, Note_on_c, 6, 81, 100
8, 2016120, Note_on_c, 6, 81, 0
8, 2023560, Note_on_c, 6, 59, 100
8, 2023680, Note_on_c, 6, 59, 0
8, 2023680, Note_on_c, 6, 57, 100
8, 2023800, Note_on_c, 6, 57, 0
8, 2023800, Note_on_c, 6, 55, 100
8, 2023920, Note_on_c, 6, 55, 0
8, 2023920, Note_on_c, 6, 54, 100
8, 2024040, Note_on_c, 6, 54, 0
8, 2024040, Note_on_c, 6, 52, 100
8, 2024160, Note_on_c, 6, 52, 0
8, 2024160, Note_on_c, 6, 50, 100
8, 2024280, Note_on_c, 6, 50, 0
8, 2024280, Note_on_c, 6, 48, 100
8, 2024400, Note_on_c, 6, 48, 0
8, 2024400, Note_on_c, 6, 47, 100
8, 2024640, Note_on_c, 6, 47, 0
8, 2025000, Note_on_c, 6, 45, 100
8, 2025120, Note_on_c, 6, 45, 0
8, 2025120, Note_on_c, 6, 47, 100
8, 2025240, Note_on_c, 6, 47, 0
8, 2025240, Note_on_c, 6, 48, 100
8, 2025360, Note_on_c, 6, 48, 0
8, 2025360, Note_on_c, 6, 50, 100
8, 2025480, Note_on_c, 6, 50, 0
8, 2025480, Note_on_c, 6, 52, 100
8, 2025600, Note_on_c, 6, 52, 0
8, 2025600, Note_on_c, 6, 54, 100
8, 2025720, Note_on_c, 6, 54, 0
8, 2025720, Note_on_c, 6, 55, 100
8, 2025840, Note_on_c, 6, 55, 0
8, 2025840, Note_on_c, 6, 57, 100
8, 2026080, Note_on_c, 6, 57, 0
8, 2026080, Note_on_c, 6, 57, 100
8, 2026320, Note_on_c, 6, 57, 0
8, 2026320, Note_on_c, 6, 57, 100
8, 2026560, Note_on_c, 6, 57, 0
8, 2026560, Note_on_c, 6, 57, 100
8, 2026800, Note_on_c, 6, 57, 0
8, 2026800, Note_on_c, 6, 54, 100
8, 2027040, Note_on_c, 6, 54, 0
8, 2027040, Note_on_c, 6, 54, 100
8, 2027280, Note_on_c, 6, 54, 0
8, 2027280, Note_on_c, 6, 50, 100
8, 2027520, Note_on_c, 6, 50, 0
8, 2027520, Note_on_c, 6, 50, 100
8, 2027760, Note_on_c, 6, 50, 0
8, 2027760, Note_on_c, 6, 50, 100
8, 2028000, Note_on_c, 6, 50, 0
8, 2028000, Note_on_c, 6, 50, 100
8, 2028240, Note_on_c, 6, 50, 0
8, 2028240, Note_on_c, 6, 47, 100
8, 2028480, Note_on_c, 6, 47, 0
8, 2028480, Note_on_c, 6, 47, 100
8, 2028720, Note_on_c, 6, 47, 0
8, 2028720, Note_on_c, 6, 43, 100
8, 2028960, Note_on_c, 6, 43, 0
8, 2028960, Note_on_c, 6, 43, 100
8, 2029200, Note_on_c, 6, 43, 0
8, 2029200, Note_on_c, 6, 43, 100
8, 2029440, Note_on_c, 6, 43, 0
8, 2029440, Note_on_c, 6, 47, 100
8, 2029680, Note_on_c, 6, 47, 0
8, 2029680, Note_on_c, 6, 50, 100
8, 2029920, Note_on_c, 6, 50, 0
8, 2029920, Note_on_c, 6, 53, 100
8, 2030160, Note_on_c, 6, 53, 0
8, 2030160, Note_on_c, 6, 52, 100
8, 2030400, Note_on_c, 6, 52, 0
8, 2030400, Note_on_c, 6, 52, 100
8, 2030640, Note_on_c, 6, 52, 0
8, 2030640, Note_on_c, 6, 52, 100
8, 2030880, Note_on_c, 6, 52, 0
8, 2030880, Note_on_c, 6, 55, 100
8, 2031120, Note_on_c, 6, 55, 0
8, 2031120, Note_on_c, 6, 59, 100
8, 2031360, Note_on_c, 6, 59, 0
8, 2031360, Note_on_c, 6, 62, 100
8, 2031600, Note_on_c, 6, 62, 0
8, 2031600, Note_on_c, 6, 66, 100
8, 2031720, Note_on_c, 6, 66, 0
8, 2032200, Note_on_c, 6, 55, 100
8, 2032320, Note_on_c, 6, 55, 0
8, 2032320, Note_on_c, 6, 54, 100
8, 2032440, Note_on_c, 6, 54, 0
8, 2032440, Note_on_c, 6, 52, 100
8, 2032560, Note_on_c, 6, 52, 0
8, 2032560, Note_on_c, 6, 50, 100
8, 2032680, Note_on_c, 6, 50, 0
8, 2032680, Note_on_c, 6, 48, 100
8, 2032800, Note_on_c, 6, 48, 0
8, 2032800, Note_on_c, 6, 47, 100
8, 2032920, Note_on_c, 6, 47, 0
8, 2032920, Note_on_c, 6, 45, 100
8, 2033040, Note_on_c, 6, 45, 0
8, 2033040, Note_on_c, 6, 43, 100
8, 2033280, Note_on_c, 6, 43, 0
8, 2033280, Note_on_c, 6, 45, 100
8, 2033400, Note_on_c, 6, 45, 0
8, 2033400, Note_on_c, 6, 47, 100
8, 2033520, Note_on_c, 6, 47, 0
8, 2033520, Note_on_c, 6, 48, 100
8, 2033640, Note_on_c, 6, 48, 0
8, 2033640, Note_on_c, 6, 50, 100
8, 2033760, Note_on_c, 6, 50, 0
8, 2033760, Note_on_c, 6, 52, 100
8, 2033880, Note_on_c, 6, 52, 0
8, 2033880, Note_on_c, 6, 54, 100
8, 2034000, Note_on_c, 6, 54, 0
8, 2034000, Note_on_c, 6, 55, 100
8, 2034240, Note_on_c, 6, 55, 0
8, 2034600, Note_on_c, 6, 38, 100
8, 2034720, Note_on_c, 6, 38, 0
8, 2034720, Note_on_c, 6, 38, 100
8, 2034840, Note_on_c, 6, 38, 0
8, 2036040, Note_on_c, 6, 43, 100
8, 2036160, Note_on_c, 6, 43, 0
8, 2036160, Note_on_c, 6, 43, 100
8, 2036280, Note_on_c, 6, 43, 0
8, 2037480, Note_on_c, 6, 64, 100
8, 2037600, Note_on_c, 6, 64, 0
8, 2037600, Note_on_c, 6, 64, 100
8, 2037720, Note_on_c, 6, 64, 0
8, 2038920, Note_on_c, 6, 81, 100
8, 2039040, Note_on_c, 6, 81, 0
8, 2039040, Note_on_c, 6, 81, 100
8, 2039160, Note_on_c, 6, 81, 0
8, 2046600, Note_on_c, 6, 59, 100
8, 2046720, Note_on_c, 6, 59, 0
8, 2046720, Note_on_c, 6, 57, 100
8, 2046840, Note_on_c, 6, 57, 0
8, 2046840, Note_on_c, 6, 55, 100
8, 2046960, Note_on_c, 6, 55, 0
8, 2046960, Note_on_c, 6, 54, 100
8, 2047080, Note_on_c, 6, 54, 0
8, 2047080, Note_on_c, 6, 52, 100
8, 2047200, Note_on_c, 6, 52, 0
8, 2047200, Note_on_c, 6, 50, 100
8, 2047320, Note_on_c, 6, 50, 0
8, 2047320, Note_on_c, 6, 48, 100
8, 2047440, Note_on_c, 6, 48, 0
8, 2047440, Note_on_c, 6, 47, 100
8, 2047680, Note_on_c, 6, 47, 0
8, 2048040, Note_on_c, 6, 45, 100
8, 2048160, Note_on_c, 6, 45, 0
8, 2048160, Note_on_c, 6, 47, 100
8, 2048280, Note_on_c, 6, 47, 0
8, 2048280, Note_on_c, 6, 48, 100
8, 2048400, Note_on_c, 6, 48, 0
8, 2048400, Note_on_c, 6, 50, 100
8, 2048520, Note_on_c, 6, 50, 0
8, 2048520, Note_on_c, 6, 52, 100
8, 2048640, Note_on_c, 6, 52, 0
8, 2048640, Note_on_c, 6, 54, 100
8, 2048760, Note_on_c, 6, 54, 0
8, 2048760, Note_on_c, 6, 55, 100
8, 2048880, Note_on_c, 6, 55, 0
8, 2048880, Note_on_c, 6, 57, 100
8, 2049120, Note_on_c, 6, 57, 0
8, 2049120, Note_on_c, 6, 57, 100
8, 2049360, Note_on_c, 6, 57, 0
8, 2049360, Note_on_c, 6, 57, 100
8, 2049600, Note_on_c, 6, 57, 0
8, 2049600, Note_on_c, 6, 57, 100
8, 2049840, Note_on_c, 6, 57, 0
8, 2049840, Note_on_c, 6, 54, 100
8, 2050080, Note_on_c, 6, 54, 0
8, 2050080, Note_on_c, 6, 54, 100
8, 2050320, Note_on_c, 6, 54, 0
8, 2050320, Note_on_c, 6, 50, 100
8, 2050560, Note_on_c, 6, 50, 0
8, 2050560, Note_on_c, 6, 50, 100
8, 2050800, Note_on_c, 6, 50, 0
8, 2050800, Note_on_c, 6, 50, 100
8, 2051040, Note_on_c, 6, 50, 0
8, 2051040, Note_on_c, 6, 50, 100
8, 2051280, Note_on_c, 6, 50, 0
8, 2051280, Note_on_c, 6, 47, 100
8, 2051520, Note_on_c, 6, 47, 0
8, 2051520, Note_on_c, 6, 47, 100
8, 2051760, Note_on_c, 6, 47, 0
8, 2051760, Note_on_c, 6, 43, 100
8, 2052000, Note_on_c, 6, 43, 0
8, 2052000, Note_on_c, 6, 43, 100
8, 2052240, Note_on_c, 6, 43, 0
8, 2052240, Note_on_c, 6, 43, 100
8, 2052480, Note_on_c, 6, 43, 0
8, 2052480, Note_on_c, 6, 47, 100
8, 2052720, Note_on_c, 6, 47, 0
8, 2052720, Note_on_c, 6, 50, 100
8, 2052960, Note_on_c, 6, 50, 0
8, 2052960, Note_on_c, 6, 53, 100
8, 2053200, Note_on_c, 6, 53, 0
8, 2053200, Note_on_c, 6, 52, 100
8, 2053440, Note_on_c, 6, 52, 0
8, 2053440, Note_on_c, 6, 52, 100
8, 2053680, Note_on_c, 6, 52, 0
8, 2053680, Note_on_c, 6, 52, 100
8, 2053920, Note_on_c, 6, 52, 0
8, 2053920, Note_on_c, 6, 55, 100
8, 2054160, Note_on_c, 6, 55, 0
8, 2054160, Note_on_c, 6, 59, 100
8, 2054400, Note_on_c, 6, 59, 0
8, 2054400, Note_on_c, 6, 62, 100
8, 2054640, Note_on_c, 6, 62, 0
8, 2054640, Note_on_c, 6, 66, 100
8, 2054760, Note_on_c, 6, 66, 0
8, 2055240, Note_on_c, 6, 55, 100
8, 2055360, Note_on_c, 6, 55, 0
8, 2055360, Note_on_c, 6, 54, 100
8, 2055480, Note_on_c, 6, 54, 0
8, 2055480, Note_on_c, 6, 52, 100
8, 2055600, Note_on_c, 6, 52, 0
8, 2055600, Note_on_c, 6, 50, 100
8, 2055720, Note_on_c, 6, 50, 0
8, 2055720, Note_on_c, 6, 48, 100
8, 2055840, Note_on_c, 6, 48, 0
8, 2055840, Note_on_c, 6, 47, 100
8, 2055960, Note_on_c, 6, 47, 0
8, 2055960, Note_on_c, 6, 45, 100
8, 2056080, Note_on_c, 6, 45, 0
8, 2056080, Note_on_c, 6, 43, 100
8, 2056320, Note_on_c, 6, 43, 0
8, 2056320, Note_on_c, 6, 45, 100
8, 2056440, Note_on_c, 6, 45, 0
8, 2056440, Note_on_c, 6, 47, 100
8, 2056560, Note_on_c, 6, 47, 0
8, 2056560, Note_on_c, 6, 48, 100
8, 2056680, Note_on_c, 6, 48, 0
8, 2056680, Note_on_c, 6, 50, 100
8, 2056800, Note_on_c, 6, 50, 0
8, 2056800, Note_on_c, 6, 52, 100
8, 2056920, Note_on_c, 6, 52, 0
8, 2056920, Note_on_c, 6, 54, 100
8, 2057040, Note_on_c, 6, 54, 0
8, 2057040, Note_on_c, 6, 55, 100
8, 2057280, Note_on_c, 6, 55, 0
8, 2472240, Note_on_c, 6, 55, 100
8, 2472480, Note_on_c, 6, 55, 0
8, 2472480, Note_on_c, 6, 71, 100
8, 2472720, Note_on_c, 6, 71, 0
8, 2472720, Note_on_c, 6, 69, 100
8, 2472960, Note_on_c, 6, 69, 0
8, 2472960, Note_on_c, 6, 54, 100
8, 2473200, Note_on_c, 6, 54, 0
8, 2473200, Note_on_c, 6, 52, 100
8, 2473440, Note_on_c, 6, 52, 0
8, 2473440, Note_on_c, 6, 67, 100
8, 2473680, Note_on_c, 6, 67, 0
8, 2473680, Note_on_c, 6, 54, 100
8, 2473920, Note_on_c, 6, 54, 0
8, 2473920, Note_on_c, 6, 69, 100
8, 2474160, Note_on_c, 6, 69, 0
8, 2474160, Note_on_c, 6, 67, 100
8, 2474400, Note_on_c, 6, 67, 0
8, 2474400, Note_on_c, 6, 52, 100
8, 2474640, Note_on_c, 6, 52, 0
8, 2474640, Note_on_c, 6, 50, 100
8, 2474880, Note_on_c, 6, 50, 0
8, 2474880, Note_on_c, 6, 66, 100
8, 2475120, Note_on_c, 6, 66, 0
8, 2475120, Note_on_c, 6, 52, 100
8, 2475360, Note_on_c, 6, 52, 0
8, 2475360, Note_on_c, 6, 67, 100
8, 2475600, Note_on_c, 6, 67, 0
8, 2475600, Note_on_c, 6, 66, 100
8, 2475840, Note_on_c, 6, 66, 0
8, 2475840, Note_on_c, 6, 55, 100
8, 2476080, Note_on_c, 6, 55, 0
8, 2476080, Note_on_c, 6, 57, 100
8, 2476320, Note_on_c, 6, 57, 0
8, 2476320, Note_on_c, 6, 64, 100
8, 2476560, Note_on_c, 6, 64, 0
8, 2476560, Note_on_c, 6, 50, 100
8, 2476800, Note_on_c, 6, 50, 0
8, 2476800, Note_on_c, 6, 66, 100
8, 2477040, Note_on_c, 6, 66, 0
8, 2477040, Note_on_c, 6, 64, 100
8, 2477280, Note_on_c, 6, 64, 0
8, 2477280, Note_on_c, 6, 55, 100
8, 2477520, Note_on_c, 6, 55, 0
8, 2477520, Note_on_c, 6, 54, 100
8, 2477760, Note_on_c, 6, 54, 0
8, 2477760, Note_on_c, 6, 60, 100
8, 2478000, Note_on_c, 6, 60, 0
8, 2478000, Note_on_c, 6, 59, 100
8, 2478120, Note_on_c, 6, 59, 0
8, 2478480, Note_on_c, 6, 60, 100
8, 2478600, Note_on_c, 6, 60, 0
8, 2478960, Note_on_c, 6, 62, 100
8, 2479080, Note_on_c, 6, 62, 0
8, 2479440, Note_on_c, 6, 60, 100
8, 2479560, Note_on_c, 6, 60, 0
8, 2479920, Note_on_c, 6, 62, 100
8, 2480040, Note_on_c, 6, 62, 0
8, 2480400, Note_on_c, 6, 64, 100
8, 2480520, Note_on_c, 6, 64, 0
8, 2480880, Note_on_c, 6, 62, 100
8, 2481000, Note_on_c, 6, 62, 0
8, 2481360, Note_on_c, 6, 64, 100
8, 2481480, Note_on_c, 6, 64, 0
8, 2481840, Note_on_c, 6, 57, 100
8, 2481960, Note_on_c, 6, 57, 0
8, 2482320, Note_on_c, 6, 59, 100
8, 2482440, Note_on_c, 6, 59, 0
8, 2482800, Note_on_c, 6, 60, 100
8, 2482920, Note_on_c, 6, 60, 0
8, 2483280, Note_on_c, 6, 62, 100
8, 2483400, Note_on_c, 6, 62, 0
8, 2483760, Note_on_c, 6, 74, 100
8, 2483880, Note_on_c, 6, 74, 0
8, 2489520, Note_on_c, 6, 50, 100
8, 2489640, Note_on_c, 6, 50, 0
8, 2490000, Note_on_c, 6, 47, 100
8, 2490120, Note_on_c, 6, 47, 0
8, 2490480, Note_on_c, 6, 45, 100
8, 2490600, Note_on_c, 6, 45, 0
8, 2490960, Note_on_c, 6, 43, 100
8, 2491080, Note_on_c, 6, 43, 0
8, 2491440, Note_on_c, 6, 45, 100
8, 2491560, Note_on_c, 6, 45, 0
8, 2491920, Note_on_c, 6, 47, 100
8, 2492040, Note_on_c, 6, 47, 0
8, 2492400, Note_on_c, 6, 45, 100
8, 2492520, Note_on_c, 6, 45, 0
8, 2492880, Note_on_c, 6, 43, 100
8, 2493000, Note_on_c, 6, 43, 0
8, 2493360, Note_on_c, 6, 45, 100
8, 2493480, Note_on_c, 6, 45, 0
8, 2495280, Note_on_c, 6, 55, 100
8, 2495520, Note_on_c, 6, 55, 0
8, 2495520, Note_on_c, 6, 71, 100
8, 2495760, Note_on_c, 6, 71, 0
8, 2495760, Note_on_c, 6, 69, 100
8, 2496000, Note_on_c, 6, 69, 0
8, 2496000, Note_on_c, 6, 54, 100
8, 2496240, Note_on_c, 6, 54, 0
8, 2496240, Note_on_c, 6, 52, 100
8, 2496480, Note_on_c, 6, 52, 0
8, 2496480, Note_on_c, 6, 67, 100
8, 2496720, Note_on_c, 6, 67, 0
8, 2496720, Note_on_c, 6, 54, 100
8, 2496960, Note_on_c, 6, 54, 0
8, 2496960, Note_on_c, 6, 69, 100
8, 2497200, Note_on_c, 6, 69, 0
8, 2497200, Note_on_c, 6, 67, 100
8, 2497440, Note_on_c, 6, 67, 0
8, 2497440, Note_on_c, 6, 52, 100
8, 2497680, Note_on_c, 6, 52, 0
8, 2497680, Note_on_c, 6, 50, 100
8, 2497920, Note_on_c, 6, 50, 0
8, 2497920, Note_on_c, 6, 66, 100
8, 2498160, Note_on_c, 6, 66, 0
8, 2498160, Note_on_c, 6, 52, 100
8, 2498400, Note_on_c, 6, 52, 0
8, 2498400, Note_on_c, 6, 67, 100
8, 2498640, Note_on_c, 6, 67, 0
8, 2498640, Note_on_c, 6, 66, 100
8, 2498880, Note_on_c, 6, 66, 0
8, 2498880, Note_on_c, 6, 55, 100
8, 2499120, Note_on_c, 6, 55, 0
8, 2499120, Note_on_c, 6, 57, 100
8, 2499360, Note_on_c, 6, 57, 0
8, 2499360, Note_on_c, 6, 64, 100
8, 2499600, Note_on_c, 6, 64, 0
8, 2499600, Note_on_c, 6, 50, 100
8, 2499840, Note_on_c, 6, 50, 0
8, 2499840, Note_on_c, 6, 66, 100
8, 2500080, Note_on_c, 6, 66, 0
8, 2500080, Note_on_c, 6, 64, 100
8, 2500320, Note_on_c, 6, 64, 0
8, 2500320, Note_on_c, 6, 55, 100
8, 2500560, Note_on_c, 6, 55, 0
8, 2500560, Note_on_c, 6, 54, 100
8, 2500800, Note_on_c, 6, 54, 0
8, 2500800, Note_on_c, 6, 60, 100
8, 2501040, Note_on_c, 6, 60, 0
8, 2501040, Note_on_c, 6, 59, 100
8, 2501160, Note_on_c, 6, 59, 0
8, 2501520, Note_on_c, 6, 60, 100
8, 2501640, Note_on_c, 6, 60, 0
8, 2502000, Note_on_c, 6, 62, 100
8, 2502120, Note_on_c, 6, 62, 0
8, 2502480, Note_on_c, 6, 60, 100
8, 2502600, Note_on_c, 6, 60, 0
8, 2502960, Note_on_c, 6, 62, 100
8, 2503080, Note_on_c, 6, 62, 0
8, 2503440, Note_on_c, 6, 64, 100
8, 2503560, Note_on_c, 6, 64, 0
8, 2503920, Note_on_c, 6, 62, 100
8, 2504040, Note_on_c, 6, 62, 0
8, 2504400, Note_on_c, 6, 64, 100
8, 2504520, Note_on_c, 6, 64, 0
8, 2504880, Note_on_c, 6, 57, 100
8, 2505000, Note_on_c, 6, 57, 0
8, 2505360, Note_on_c, 6, 59, 100
8, 2505480, Note_on_c, 6, 59, 0
8, 2505840, Note_on_c, 6, 60, 100
8, 2505960, Note_on_c, 6, 60, 0
8, 2506320, Note_on_c, 6, 62, 100
8, 2506440, Note_on_c, 6, 62, 0
8, 2506800, Note_on_c, 6, 74, 100
8, 2506920, Note_on_c, 6, 74, 0
8, 2512560, Note_on_c, 6, 50, 100
8, 2512680, Note_on_c, 6, 50, 0
8, 2513040, Note_on_c, 6, 47, 100
8, 2513160, Note_on_c, 6, 47, 0
8, 2513520, Note_on_c, 6, 45, 100
8, 2513640, Note_on_c, 6, 45, 0
8, 2514000, Note_on_c, 6, 43, 100
8, 2514120, Note_on_c, 6, 43, 0
8, 2514480, Note_on_c, 6, 45, 100
8, 2514600, Note_on_c, 6, 45, 0
8, 2514960, Note_on_c, 6, 47, 100
8, 2515080, Note_on_c, 6, 47, 0
8, 2515440, Note_on_c, 6, 45, 100
8, 2515560, Note_on_c, 6, 45, 0
8, 2515920, Note_on_c, 6, 43, 100
8, 2516040, Note_on_c, 6, 43, 0
8, 2516400, Note_on_c, 6, 45, 100
8, 2516520, Note_on_c, 6, 45, 0
8, 2524080, Note_on_c, 6, 55, 100
8, 2524200, Note_on_c, 6, 55, 0
8, 2524560, Note_on_c, 6, 57, 100
8, 2524680, Note_on_c, 6, 57, 0
8, 2525040, Note_on_c, 6, 59, 100
8, 2525160, Note_on_c, 6, 59, 0
8, 2525520, Note_on_c, 6, 60, 100
8, 2525640, Note_on_c, 6, 60, 0
8, 2526000, Note_on_c, 6, 59, 100
8, 2526120, Note_on_c, 6, 59, 0
8, 2526480, Note_on_c, 6, 60, 100
8, 2526600, Note_on_c, 6, 60, 0
8, 2526960, Note_on_c, 6, 58, 100
8, 2527080, Note_on_c, 6, 58, 0
8, 2527440, Note_on_c, 6, 59, 100
8, 2527560, Note_on_c, 6, 59, 0
8, 2527920, Note_on_c, 6, 59, 100
8, 2528040, Note_on_c, 6, 59, 0
8, 2528400, Note_on_c, 6, 52, 100
8, 2528520, Note_on_c, 6, 52, 0
8, 2528520, Note_on_c, 6, 64, 100
8, 2528640, Note_on_c, 6, 64, 0
8, 2528640, Note_on_c, 6, 63, 100
8, 2528760, Note_on_c, 6, 63, 0
8, 2528760, Note_on_c, 6, 64, 100
8, 2528880, Note_on_c, 6, 64, 0
8, 2528880, Note_on_c, 6, 59, 100
8, 2529000, Note_on_c, 6, 59, 0
8, 2529000, Note_on_c, 6, 55, 100
8, 2529120, Note_on_c, 6, 55, 0
8, 2529120, Note_on_c, 6, 54, 100
8, 2529240, Note_on_c, 6, 54, 0
8, 2529240, Note_on_c, 6, 55, 100
8, 2529360, Note_on_c, 6, 55, 0
8, 2529360, Note_on_c, 6, 52, 100
8, 2529480, Note_on_c, 6, 52, 0
8, 2529480, Note_on_c, 6, 55, 100
8, 2529600, Note_on_c, 6, 55, 0
8, 2529600, Note_on_c, 6, 59, 100
8, 2529720, Note_on_c, 6, 59, 0
8, 2529720, Note_on_c, 6, 62, 100
8, 2529840, Note_on_c, 6, 62, 0
8, 2529840, Note_on_c, 6, 60, 100
8, 2529960, Note_on_c, 6, 60, 0
8, 2530320, Note_on_c, 6, 59, 100
8, 2530440, Note_on_c, 6, 59, 0
8, 2530800, Note_on_c, 6, 57, 100
8, 2530920, Note_on_c, 6, 57, 0
8, 2531280, Note_on_c, 6, 59, 100
8, 2531400, Note_on_c, 6, 59, 0
8, 2531760, Note_on_c, 6, 57, 100
8, 2531880, Note_on_c, 6, 57, 0
8, 2532240, Note_on_c, 6, 55, 100
8, 2532360, Note_on_c, 6, 55, 0
8, 2532720, Note_on_c, 6, 57, 100
8, 2532960, Note_on_c, 6, 57, 0
8, 2532960, Note_on_c, 6, 76, 100
8, 2533200, Note_on_c, 6, 76, 0
8, 2533200, Note_on_c, 6, 77, 100
8, 2533440, Note_on_c, 6, 77, 0
8, 2533440, Note_on_c, 6, 78, 100
8, 2533680, Note_on_c, 6, 78, 0
8, 2533680, Note_on_c, 6, 79, 100
8, 2533920, Note_on_c, 6, 79, 0
8, 2533920, Note_on_c, 6, 57, 100
8, 2534160, Note_on_c, 6, 57, 0
8, 2534160, Note_on_c, 6, 50, 100
8, 2534400, Note_on_c, 6, 50, 0
8, 2534400, Note_on_c, 6, 78, 100
8, 2534640, Note_on_c, 6, 78, 0
8, 2534640, Note_on_c, 6, 79, 100
8, 2534880, Note_on_c, 6, 79, 0
8, 2534880, Note_on_c, 6, 80, 100
8, 2535120, Note_on_c, 6, 80, 0
8, 2535120, Note_on_c, 6, 81, 100
8, 2535360, Note_on_c, 6, 81, 0
8, 2535360, Note_on_c, 6, 62, 100
8, 2535600, Note_on_c, 6, 62, 0
8, 2535600, Note_on_c, 6, 59, 100
8, 2535840, Note_on_c, 6, 59, 0
8, 2535840, Note_on_c, 6, 43, 100
8, 2536080, Note_on_c, 6, 43, 0
8, 2536080, Note_on_c, 6, 44, 100
8, 2536320, Note_on_c, 6, 44, 0
8, 2536320, Note_on_c, 6, 45, 100
8, 2536560, Note_on_c, 6, 45, 0
8, 2536560, Note_on_c, 6, 46, 100
8, 2536800, Note_on_c, 6, 46, 0
8, 2536800, Note_on_c, 6, 47, 100
8, 2537040, Note_on_c, 6, 47, 0
8, 2537040, Note_on_c, 6, 48, 100
8, 2537160, Note_on_c, 6, 48, 0
8, 2537520, Note_on_c, 6, 50, 100
8, 2537640, Note_on_c, 6, 50, 0
8, 2538000, Note_on_c, 6, 52, 100
8, 2538120, Note_on_c, 6, 52, 0
8, 2538480, Note_on_c, 6, 54, 100
8, 2538600, Note_on_c, 6, 54, 0
8, 2538600, Note_on_c, 6, 62, 100
8, 2538720, Note_on_c, 6, 62, 0
8, 2538720, Note_on_c, 6, 60, 100
8, 2538840, Note_on_c, 6, 60, 0
8, 2538840, Note_on_c, 6, 62, 100
8, 2538960, Note_on_c, 6, 62, 0
8, 2538960, Note_on_c, 6, 59, 100
8, 2539080, Note_on_c, 6, 59, 0
8, 2539080, Note_on_c, 6, 55, 100
8, 2539200, Note_on_c, 6, 55, 0
8, 2539200, Note_on_c, 6, 54, 100
8, 2539320, Note_on_c, 6, 54, 0
8, 2539320, Note_on_c, 6, 55, 100
8, 2539440, Note_on_c, 6, 55, 0
8, 2539440, Note_on_c, 6, 50, 100
8, 2539560, Note_on_c, 6, 50, 0
8, 2539560, Note_on_c, 6, 54, 100
8, 2539680, Note_on_c, 6, 54, 0
8, 2539680, Note_on_c, 6, 57, 100
8, 2539800, Note_on_c, 6, 57, 0
8, 2539800, Note_on_c, 6, 60, 100
8, 2539920, Note_on_c, 6, 60, 0
8, 2539920, Note_on_c, 6, 59, 100
8, 2540040, Note_on_c, 6, 59, 0
8, 2540040, Note_on_c, 6, 55, 100
8, 2540160, Note_on_c, 6, 55, 0
8, 2540160, Note_on_c, 6, 54, 100
8, 2540280, Note_on_c, 6, 54, 0
8, 2540280, Note_on_c, 6, 55, 100
8, 2540400, Note_on_c, 6, 55, 0
8, 2540400, Note_on_c, 6, 50, 100
8, 2540520, Note_on_c, 6, 50, 0
8, 2540520, Note_on_c, 6, 47, 100
8, 2540640, Note_on_c, 6, 47, 0
8, 2540640, Note_on_c, 6, 45, 100
8, 2540760, Note_on_c, 6, 45, 0
8, 2540760, Note_on_c, 6, 47, 100
8, 2540880, Note_on_c, 6, 47, 0
8, 2540880, Note_on_c, 6, 43, 100
8, 2541360, Note_on_c, 6, 43, 0
8, 2547120, Note_on_c, 6, 55, 100
8, 2547240, Note_on_c, 6, 55, 0
8, 2547600, Note_on_c, 6, 57, 100
8, 2547720, Note_on_c, 6, 57, 0
8, 2548080, Note_on_c, 6, 59, 100
8, 2548200, Note_on_c, 6, 59, 0
8, 2548560, Note_on_c, 6, 60, 100
8, 2548680, Note_on_c, 6, 60, 0
8, 2549040, Note_on_c, 6, 59, 100
8, 2549160, Note_on_c, 6, 59, 0
8, 2549520, Note_on_c, 6, 60, 100
8, 2549640, Note_on_c, 6, 60, 0
8, 2550000, Note_on_c, 6, 58, 100
8, 2550120, Note_on_c, 6, 58, 0
8, 2550480, Note_on_c, 6, 59, 100
8, 2550600, Note_on_c, 6, 59, 0
8, 2550960, Note_on_c, 6, 59, 100
8, 2551080, Note_on_c, 6, 59, 0
8, 2551440, Note_on_c, 6, 52, 100
8, 2551560, Note_on_c, 6, 52, 0
8, 2551560, Note_on_c, 6, 64, 100
8, 2551680, Note_on_c, 6, 64, 0
8, 2551680, Note_on_c, 6, 63, 100
8, 2551800, Note_on_c, 6, 63, 0
8, 2551800, Note_on_c, 6, 64, 100
8, 2551920, Note_on_c, 6, 64, 0
8, 2551920, Note_on_c, 6, 59, 100
8, 2552040, Note_on_c, 6, 59, 0
8, 2552040, Note_on_c, 6, 55, 100
8, 2552160, Note_on_c, 6, 55, 0
8, 2552160, Note_on_c, 6, 54, 100
8, 2552280, Note_on_c, 6, 54, 0
8, 2552280, Note_on_c, 6, 55, 100
8, 2552400, Note_on_c, 6, 55, 0
8, 2552400, Note_on_c, 6, 52, 100
8, 2552520, Note_on_c, 6, 52, 0
8, 2552520, Note_on_c, 6, 55, 100
8, 2552640, Note_on_c, 6, 55, 0
8, 2552640, Note_on_c, 6, 59, 100
8, 2552760, Note_on_c, 6, 59, 0
8, 2552760, Note_on_c, 6, 62, 100
8, 2552880, Note_on_c, 6, 62, 0
8, 2552880, Note_on_c, 6, 60, 100
8, 2553000, Note_on_c, 6, 60, 0
8, 2553360, Note_on_c, 6, 59, 100
8, 2553480, Note_on_c, 6, 59, 0
8, 2553840, Note_on_c, 6, 57, 100
8, 2553960, Note_on_c, 6, 57, 0
8, 2554320, Note_on_c, 6, 59, 100
8, 2554440, Note_on_c, 6, 59, 0
8, 2554800, Note_on_c, 6, 57, 100
8, 2554920, Note_on_c, 6, 57, 0
8, 2555280, Note_on_c, 6, 55, 100
8, 2555400, Note_on_c, 6, 55, 0
8, 2555760, Note_on_c, 6, 57, 100
8, 2556000, Note_on_c, 6, 57, 0
8, 2556000, Note_on_c, 6, 76, 100
8, 2556240, Note_on_c, 6, 76, 0
8, 2556240, Note_on_c, 6, 77, 100
8, 2556480, Note_on_c, 6, 77, 0
8, 2556480, Note_on_c, 6, 78, 100
8, 2556720, Note_on_c, 6, 78, 0
8, 2556720, Note_on_c, 6, 79, 100
8, 2556960, Note_on_c, 6, 79, 0
8, 2556960, Note_on_c, 6, 57, 100
8, 2557200, Note_on_c, 6, 57, 0
8, 2557200, Note_on_c, 6, 50, 100
8, 2557440, Note_on_c, 6, 50, 0
8, 2557440, Note_on_c, 6, 78, 100
8, 2557680, Note_on_c, 6, 78, 0
8, 2557680, Note_on_c, 6, 79, 100
8, 2557920, Note_on_c, 6, 79, 0
8, 2557920, Note_on_c, 6, 80, 100
8, 2558160, Note_on_c, 6, 80, 0
8, 2558160, Note_on_c, 6, 81, 100
8, 2558400, Note_on_c, 6, 81, 0
8, 2558400, Note_on_c, 6, 62, 100
8, 2558640, Note_on_c, 6, 62, 0
8, 2558640, Note_on_c, 6, 59, 100
8, 2558880, Note_on_c, 6, 59, 0
8, 2558880, Note_on_c, 6, 43, 100
8, 2559120, Note_on_c, 6, 43, 0
8, 2559120, Note_on_c, 6, 44, 100
8, 2559360, Note_on_c, 6, 44, 0
8, 2559360, Note_on_c, 6, 45, 100
8, 2559600, Note_on_c, 6, 45, 0
8, 2559600, Note_on_c, 6, 46, 100
8, 2559840, Note_on_c, 6, 46, 0
8, 2559840, Note_on_c, 6, 47, 100
8, 2560080, Note_on_c, 6, 47, 0
8, 2560080, Note_on_c, 6, 48, 100
8, 2560200, Note_on_c, 6, 48, 0
8, 2560560, Note_on_c, 6, 50, 100
8, 2560680, Note_on_c, 6, 50, 0
8, 2561040, Note_on_c, 6, 52, 100
8, 2561160, Note_on_c, 6, 52, 0
8, 2561520, Note_on_c, 6, 54, 100
8, 2561640, Note_on_c, 6, 54, 0
8, 2561640, Note_on_c, 6, 62, 100
8, 2561760, Note_on_c, 6, 62, 0
8, 2561760, Note_on_c, 6, 60, 100
8, 2561880, Note_on_c, 6, 60, 0
8, 2561880, Note_on_c, 6, 62, 100
8, 2562000, Note_on_c, 6, 62, 0
8, 2562000, Note_on_c, 6, 59, 100
8, 2562120, Note_on_c, 6, 59, 0
8, 2562120, Note_on_c, 6, 55, 100
8, 2562240, Note_on_c, 6, 55, 0
8, 2562240, Note_on_c, 6, 54, 100
8, 2562360, Note_on_c, 6, 54, 0
8, 2562360, Note_on_c, 6, 55, 100
8, 2562480, Note_on_c, 6, 55, 0
8, 2562480, Note_on_c, 6, 50, 100
8, 2562600, Note_on_c, 6, 50, 0
8, 2562600, Note_on_c, 6, 54, 100
8, 2562720, Note_on_c, 6, 54, 0
8, 2562720, Note_on_c, 6, 57, 100
8, 2562840, Note_on_c, 6, 57, 0
8, 2562840, Note_on_c, 6, 60, 100
8, 2562960, Note_on_c, 6, 60, 0
8, 2562960, Note_on_c, 6, 59, 100
8, 2563080, Note_on_c, 6, 59, 0
8, 2563080, Note_on_c, 6, 55, 100
8, 2563200, Note_on_c, 6, 55, 0
8, 2563200, Note_on_c, 6, 54, 100
8, 2563320, Note_on_c, 6, 54, 0
8, 2563320, Note_on_c, 6, 55, 100
8, 2563440, Note_on_c, 6, 55, 0
8, 2563440, Note_on_c, 6, 50, 100
8, 2563560, Note_on_c, 6, 50, 0
8, 2563560, Note_on_c, 6, 47, 100
8, 2563680, Note_on_c, 6, 47, 0
8, 2563680, Note_on_c, 6, 45, 100
8, 2563800, Note_on_c, 6, 45, 0
8, 2563800, Note_on_c, 6, 47, 100
8, 2563920, Note_on_c, 6, 47, 0
8, 2563920, Note_on_c, 6, 43, 100
8, 2564400, Note_on_c, 6, 43, 0
8, 2564400, Note_on_c, 6, 55, 100
8, 2564640, Note_on_c, 6, 55, 0
8, 2564640, Note_on_c, 6, 43, 100
8, 2564880, Note_on_c, 6, 43, 0
8, 2564880, Note_on_c, 6, 57, 100
8, 2564880, Note_on_c, 6, 60, 100
8, 2564880, Note_on_c, 6, 66, 100
8, 2565000, Note_on_c, 6, 66, 0
8, 2565000, Note_on_c, 6, 60, 0
8, 2565000, Note_on_c, 6, 57, 0
8, 2565120, Note_on_c, 6, 57, 100
8, 2565120, Note_on_c, 6, 60, 100
8, 2565120, Note_on_c, 6, 66, 100
8, 2565240, Note_on_c, 6, 66, 0
8, 2565240, Note_on_c, 6, 60, 0
8, 2565240, Note_on_c, 6, 57, 0
8, 2565360, Note_on_c, 6, 57, 100
8, 2565360, Note_on_c, 6, 60, 100
8, 2565360, Note_on_c, 6, 66, 100
8, 2565480, Note_on_c, 6, 66, 0
8, 2565480, Note_on_c, 6, 60, 0
8, 2565480, Note_on_c, 6, 57, 0
8, 2565600, Note_on_c, 6, 57, 100
8, 2565600, Note_on_c, 6, 60, 100
8, 2565600, Note_on_c, 6, 66, 100
8, 2565720, Note_on_c, 6, 66, 0
8, 2565720, Note_on_c, 6, 60, 0
8, 2565720, Note_on_c, 6, 57, 0
8, 2565840, Note_on_c, 6, 54, 100
8, 2566080, Note_on_c, 6, 54, 0
8, 2566080, Note_on_c, 6, 42, 100
8, 2566320, Note_on_c, 6, 42, 0
8, 2566320, Note_on_c, 6, 64, 100
8, 2566320, Note_on_c, 6, 67, 100
8, 2566320, Note_on_c, 6, 73, 100
8, 2566440, Note_on_c, 6, 73, 0
8, 2566440, Note_on_c, 6, 67, 0
8, 2566440, Note_on_c, 6, 64, 0
8, 2566560, Note_on_c, 6, 64, 100
8, 2566560, Note_on_c, 6, 67, 100
8, 2566560, Note_on_c, 6, 73, 100
8, 2566680, Note_on_c, 6, 73, 0
8, 2566680, Note_on_c, 6, 67, 0
8, 2566680, Note_on_c, 6, 64, 0
8, 2566800, Note_on_c, 6, 64, 100
8, 2566800, Note_on_c, 6, 67, 100
8, 2566800, Note_on_c, 6, 73, 100
8, 2566920, Note_on_c, 6, 73, 0
8, 2566920, Note_on_c, 6, 67, 0
8, 2566920, Note_on_c, 6, 64, 0
8, 2567040, Note_on_c, 6, 64, 100
8, 2567040, Note_on_c, 6, 67, 100
8, 2567040, Note_on_c, 6, 73, 100
8, 2567160, Note_on_c, 6, 73, 0
8, 2567160, Note_on_c, 6, 67, 0
8, 2567160, Note_on_c, 6, 64, 0
8, 2567280, Note_on_c, 6, 52, 100
8, 2567520, Note_on_c, 6, 52, 0
8, 2567520, Note_on_c, 6, 40, 100
8, 2567760, Note_on_c, 6, 40, 0
8, 2567760, Note_on_c, 6, 69, 100
8, 2567760, Note_on_c, 6, 78, 100
8, 2567760, Note_on_c, 6, 74, 100
8, 2567880, Note_on_c, 6, 74, 0
8, 2567880, Note_on_c, 6, 78, 0
8, 2567880, Note_on_c, 6, 69, 0
8, 2568000, Note_on_c, 6, 67, 100
8, 2568000, Note_on_c, 6, 76, 100
8, 2568000, Note_on_c, 6, 73, 100
8, 2568120, Note_on_c, 6, 73, 0
8, 2568120, Note_on_c, 6, 76, 0
8, 2568120, Note_on_c, 6, 67, 0
8, 2568240, Note_on_c, 6, 74, 100
8, 2568240, Note_on_c, 6, 69, 100
8, 2568240, Note_on_c, 6, 78, 100
8, 2568360, Note_on_c, 6, 78, 0
8, 2568360, Note_on_c, 6, 69, 0
8, 2568360, Note_on_c, 6, 74, 0
8, 2568480, Note_on_c, 6, 73, 100
8, 2568480, Note_on_c, 6, 67, 100
8, 2568480, Note_on_c, 6, 76, 100
8, 2568600, Note_on_c, 6, 76, 0
8, 2568600, Note_on_c, 6, 67, 0
8, 2568600, Note_on_c, 6, 73, 0
8, 2568840, Note_on_c, 6, 62, 100
8, 2568960, Note_on_c, 6, 62, 0
8, 2568960, Note_on_c, 6, 57, 100
8, 2569080, Note_on_c, 6, 57, 0
8, 2569080, Note_on_c, 6, 54, 100
8, 2569200, Note_on_c, 6, 54, 0
8, 2569200, Note_on_c, 6, 50, 100
8, 2569360, Note_on_c, 6, 50, 0
8, 2569360, Note_on_c, 6, 62, 100
8, 2569440, Note_on_c, 6, 62, 0
8, 2569440, Note_on_c, 6, 52, 100
8, 2569600, Note_on_c, 6, 52, 0
8, 2569600, Note_on_c, 6, 60, 100
8, 2569680, Note_on_c, 6, 60, 0
8, 2569680, Note_on_c, 6, 50, 100
8, 2569840, Note_on_c, 6, 50, 0
8, 2569840, Note_on_c, 6, 59, 100
8, 2569920, Note_on_c, 6, 59, 0
8, 2569920, Note_on_c, 6, 48, 100
8, 2570080, Note_on_c, 6, 48, 0
8, 2570080, Note_on_c, 6, 57, 100
8, 2570160, Note_on_c, 6, 57, 0
8, 2570160, Note_on_c, 6, 47, 100
8, 2570400, Note_on_c, 6, 47, 0
8, 2570400, Note_on_c, 6, 59, 100
8, 2570640, Note_on_c, 6, 59, 0
8, 2570640, Note_on_c, 6, 78, 100
8, 2570640, Note_on_c, 6, 72, 100
8, 2570640, Note_on_c, 6, 69, 100
8, 2570760, Note_on_c, 6, 69, 0
8, 2570760, Note_on_c, 6, 72, 0
8, 2570760, Note_on_c, 6, 78, 0
8, 2570880, Note_on_c, 6, 72, 100
8, 2570880, Note_on_c, 6, 69, 100
8, 2570880, Note_on_c, 6, 78, 100
8, 2571000, Note_on_c, 6, 78, 0
8, 2571000, Note_on_c, 6, 69, 0
8, 2571000, Note_on_c, 6, 72, 0
8, 2571120, Note_on_c, 6, 78, 100
8, 2571120, Note_on_c, 6, 69, 100
8, 2571120, Note_on_c, 6, 72, 100
8, 2571240, Note_on_c, 6, 72, 0
8, 2571240, Note_on_c, 6, 69, 0
8, 2571240, Note_on_c, 6, 78, 0
8, 2571360, Note_on_c, 6, 74, 100
8, 2571360, Note_on_c, 6, 67, 100
8, 2571360, Note_on_c, 6, 71, 100
8, 2571480, Note_on_c, 6, 71, 0
8, 2571480, Note_on_c, 6, 67, 0
8, 2571480, Note_on_c, 6, 74, 0
8, 2571600, Note_on_c, 6, 48, 100
8, 2571840, Note_on_c, 6, 48, 0
8, 2571840, Note_on_c, 6, 60, 100
8, 2572080, Note_on_c, 6, 60, 0
8, 2572080, Note_on_c, 6, 71, 100
8, 2572080, Note_on_c, 6, 65, 100
8, 2572080, Note_on_c, 6, 74, 100
8, 2572200, Note_on_c, 6, 74, 0
8, 2572200, Note_on_c, 6, 65, 0
8, 2572200, Note_on_c, 6, 71, 0
8, 2572320, Note_on_c, 6, 74, 100
8, 2572320, Note_on_c, 6, 71, 100
8, 2572320, Note_on_c, 6, 65, 100
8, 2572440, Note_on_c, 6, 65, 0
8, 2572440, Note_on_c, 6, 71, 0
8, 2572440, Note_on_c, 6, 74, 0
8, 2572560, Note_on_c, 6, 65, 100
8, 2572560, Note_on_c, 6, 74, 100
8, 2572560, Note_on_c, 6, 71, 100
8, 2572680, Note_on_c, 6, 71, 0
8, 2572680, Note_on_c, 6, 74, 0
8, 2572680, Note_on_c, 6, 65, 0
8, 2572800, Note_on_c, 6, 69, 100
8, 2572800, Note_on_c, 6, 72, 100
8, 2572800, Note_on_c, 6, 64, 100
8, 2572920, Note_on_c, 6, 64, 0
8, 2572920, Note_on_c, 6, 72, 0
8, 2572920, Note_on_c, 6, 69, 0
8, 2573040, Note_on_c, 6, 50, 100
8, 2573280, Note_on_c, 6, 50, 0
8, 2573280, Note_on_c, 6, 62, 100
8, 2573520, Note_on_c, 6, 62, 0
8, 2573520, Note_on_c, 6, 73, 100
8, 2573520, Note_on_c, 6, 67, 100
8, 2573520, Note_on_c, 6, 64, 100
8, 2573640, Note_on_c, 6, 64, 0
8, 2573640, Note_on_c, 6, 67, 0
8, 2573640, Note_on_c, 6, 73, 0
8, 2573760, Note_on_c, 6, 64, 100
8, 2573760, Note_on_c, 6, 67, 100
8, 2573760, Note_on_c, 6, 73, 100
8, 2573880, Note_on_c, 6, 73, 0
8, 2573880, Note_on_c, 6, 67, 0
8, 2573880, Note_on_c, 6, 64, 0
8, 2574000, Note_on_c, 6, 73, 100
8, 2574000, Note_on_c, 6, 67, 100
8, 2574000, Note_on_c, 6, 64, 100
8, 2574120, Note_on_c, 6, 64, 0
8, 2574120, Note_on_c, 6, 67, 0
8, 2574120, Note_on_c, 6, 73, 0
8, 2574240, Note_on_c, 6, 62, 100
8, 2574240, Note_on_c, 6, 66, 100
8, 2574240, Note_on_c, 6, 69, 100
8, 2574360, Note_on_c, 6, 69, 0
8, 2574360, Note_on_c, 6, 66, 0
8, 2574360, Note_on_c, 6, 62, 0
8, 2574600, Note_on_c, 6, 55, 100
8, 2574720, Note_on_c, 6, 55, 0
8, 2574720, Note_on_c, 6, 50, 100
8, 2574840, Note_on_c, 6, 50, 0
8, 2574840, Note_on_c, 6, 47, 100
8, 2574960, Note_on_c, 6, 47, 0
8, 2574960, Note_on_c, 6, 43, 100
8, 2575120, Note_on_c, 6, 43, 0
8, 2575120, Note_on_c, 6, 55, 100
8, 2575200, Note_on_c, 6, 55, 0
8, 2575200, Note_on_c, 6, 54, 100
8, 2575360, Note_on_c, 6, 54, 0
8, 2575360, Note_on_c, 6, 62, 100
8, 2575440, Note_on_c, 6, 62, 0
8, 2575440, Note_on_c, 6, 55, 100
8, 2575600, Note_on_c, 6, 55, 0
8, 2575600, Note_on_c, 6, 64, 100
8, 2575680, Note_on_c, 6, 64, 0
8, 2575680, Note_on_c, 6, 57, 100
8, 2575840, Note_on_c, 6, 57, 0
8, 2575840, Note_on_c, 6, 66, 100
8, 2575920, Note_on_c, 6, 66, 0
8, 2575920, Note_on_c, 6, 59, 100
8, 2576000, Note_on_c, 6, 59, 0
8, 2576000, Note_on_c, 6, 62, 100
8, 2576080, Note_on_c, 6, 62, 0
8, 2576320, Note_on_c, 6, 57, 100
8, 2576400, Note_on_c, 6, 57, 0
8, 2576400, Note_on_c, 6, 59, 100
8, 2576480, Note_on_c, 6, 59, 0
8, 2576480, Note_on_c, 6, 62, 100
8, 2576560, Note_on_c, 6, 62, 0
8, 2576800, Note_on_c, 6, 60, 100
8, 2576880, Note_on_c, 6, 60, 0
8, 2576880, Note_on_c, 6, 62, 100
8, 2576960, Note_on_c, 6, 62, 0
8, 2576960, Note_on_c, 6, 67, 100
8, 2577040, Note_on_c, 6, 67, 0
8, 2577280, Note_on_c, 6, 64, 100
8, 2577360, Note_on_c, 6, 64, 0
8, 2577360, Note_on_c, 6, 66, 100
8, 2577440, Note_on_c, 6, 66, 0
8, 2577440, Note_on_c, 6, 69, 100
8, 2577520, Note_on_c, 6, 69, 0
8, 2577760, Note_on_c, 6, 64, 100
8, 2577840, Note_on_c, 6, 64, 0
8, 2577840, Note_on_c, 6, 66, 100
8, 2577920, Note_on_c, 6, 66, 0
8, 2577920, Note_on_c, 6, 69, 100
8, 2578000, Note_on_c, 6, 69, 0
8, 2578240, Note_on_c, 6, 67, 100
8, 2578320, Note_on_c, 6, 67, 0
8, 2578320, Note_on_c, 6, 69, 100
8, 2578400, Note_on_c, 6, 69, 0
8, 2578400, Note_on_c, 6, 74, 100
8, 2578480, Note_on_c, 6, 74, 0
8, 2578720, Note_on_c, 6, 69, 100
8, 2578800, Note_on_c, 6, 69, 0
8, 2578800, Note_on_c, 6, 67, 100
8, 2578880, Note_on_c, 6, 67, 0
8, 2578880, Note_on_c, 6, 71, 100
8, 2578960, Note_on_c, 6, 71, 0
8, 2579200, Note_on_c, 6, 66, 100
8, 2579280, Note_on_c, 6, 66, 0
8, 2579280, Note_on_c, 6, 64, 100
8, 2579360, Note_on_c, 6, 64, 0
8, 2579360, Note_on_c, 6, 67, 100
8, 2579440, Note_on_c, 6, 67, 0
8, 2579680, Note_on_c, 6, 62, 100
8, 2579760, Note_on_c, 6, 62, 0
8, 2579760, Note_on_c, 6, 61, 100
8, 2579840, Note_on_c, 6, 61, 0
8, 2579840, Note_on_c, 6, 64, 100
8, 2579920, Note_on_c, 6, 64, 0
8, 2580160, Note_on_c, 6, 59, 100
8, 2580240, Note_on_c, 6, 59, 0
8, 2580240, Note_on_c, 6, 57, 100
8, 2580320, Note_on_c, 6, 57, 0
8, 2580320, Note_on_c, 6, 61, 100
8, 2580400, Note_on_c, 6, 61, 0
8, 2580640, Note_on_c, 6, 59, 100
8, 2580720, Note_on_c, 6, 59, 0
8, 2580720, Note_on_c, 6, 57, 100
8, 2580800, Note_on_c, 6, 57, 0
8, 2580800, Note_on_c, 6, 61, 100
8, 2580880, Note_on_c, 6, 61, 0
8, 2581120, Note_on_c, 6, 55, 100
8, 2581200, Note_on_c, 6, 55, 0
8, 2581200, Note_on_c, 6, 54, 100
8, 2581280, Note_on_c, 6, 54, 0
8, 2581280, Note_on_c, 6, 57, 100
8, 2581360, Note_on_c, 6, 57, 0
8, 2581600, Note_on_c, 6, 52, 100
8, 2581680, Note_on_c, 6, 52, 0
8, 2581680, Note_on_c, 6, 50, 100
8, 2581760, Note_on_c, 6, 50, 0
8, 2581760, Note_on_c, 6, 54, 100
8, 2581840, Note_on_c, 6, 54, 0
8, 2582080, Note_on_c, 6, 52, 100
8, 2582160, Note_on_c, 6, 52, 0
8, 2582160, Note_on_c, 6, 50, 100
8, 2582240, Note_on_c, 6, 50, 0
8, 2582240, Note_on_c, 6, 54, 100
8, 2582320, Note_on_c, 6, 54, 0
8, 2582560, Note_on_c, 6, 48, 100
8, 2582640, Note_on_c, 6, 48, 0
8, 2582640, Note_on_c, 6, 47, 100
8, 2582720, Note_on_c, 6, 47, 0
8, 2582720, Note_on_c, 6, 50, 100
8, 2582800, Note_on_c, 6, 50, 0
8, 2583040, Note_on_c, 6, 45, 100
8, 2583120, Note_on_c, 6, 45, 0
8, 2583120, Note_on_c, 6, 43, 100
8, 2583200, Note_on_c, 6, 43, 0
8, 2583200, Note_on_c, 6, 47, 100
8, 2583280, Note_on_c, 6, 47, 0
8, 2583520, Note_on_c, 6, 45, 100
8, 2583600, Note_on_c, 6, 45, 0
8, 2583600, Note_on_c, 6, 43, 100
8, 2583680, Note_on_c, 6, 43, 0
8, 2583680, Note_on_c, 6, 47, 100
8, 2583760, Note_on_c, 6, 47, 0
8, 2584000, Note_on_c, 6, 42, 100
8, 2584080, Note_on_c, 6, 42, 0
8, 2584080, Note_on_c, 6, 40, 100
8, 2584160, Note_on_c, 6, 40, 0
8, 2584160, Note_on_c, 6, 43, 100
8, 2584240, Note_on_c, 6, 43, 0
8, 2584480, Note_on_c, 6, 38, 100
8, 2584560, Note_on_c, 6, 38, 0
8, 2584560, Note_on_c, 6, 37, 100
8, 2584800, Note_on_c, 6, 37, 0
8, 2584800, Note_on_c, 6, 49, 100
8, 2585040, Note_on_c, 6, 49, 0
8, 2585040, Note_on_c, 6, 50, 100
8, 2585280, Note_on_c, 6, 50, 0
8, 2585280, Note_on_c, 6, 42, 100
8, 2585520, Note_on_c, 6, 42, 0
8, 2585520, Note_on_c, 6, 43, 100
8, 2585760, Note_on_c, 6, 43, 0
8, 2585760, Note_on_c, 6, 45, 100
8, 2586000, Note_on_c, 6, 45, 0
8, 2586000, Note_on_c, 6, 38, 100
8, 2586240, Note_on_c, 6, 38, 0
8, 2586240, Note_on_c, 6, 50, 100
8, 2586480, Note_on_c, 6, 50, 0
8, 2586480, Note_on_c, 6, 52, 100
8, 2586480, Note_on_c, 6, 55, 100
8, 2586480, Note_on_c, 6, 61, 100
8, 2586600, Note_on_c, 6, 61, 0
8, 2586600, Note_on_c, 6, 55, 0
8, 2586600, Note_on_c, 6, 52, 0
8, 2586720, Note_on_c, 6, 52, 100
8, 2586720, Note_on_c, 6, 55, 100
8, 2586720, Note_on_c, 6, 61, 100
8, 2586840, Note_on_c, 6, 61, 0
8, 2586840, Note_on_c, 6, 55, 0
8, 2586840, Note_on_c, 6, 52, 0
8, 2586960, Note_on_c, 6, 38, 100
8, 2587440, Note_on_c, 6, 38, 0
8, 2587440, Note_on_c, 6, 55, 100
8, 2587680, Note_on_c, 6, 55, 0
8, 2587680, Note_on_c, 6, 43, 100
8, 2587920, Note_on_c, 6, 43, 0
8, 2587920, Note_on_c, 6, 57, 100
8, 2587920, Note_on_c, 6, 60, 100
8, 2587920, Note_on_c, 6, 66, 100
8, 2588040, Note_on_c, 6, 66, 0
8, 2588040, Note_on_c, 6, 60, 0
8, 2588040, Note_on_c, 6, 57, 0
8, 2588160, Note_on_c, 6, 57, 100
8, 2588160, Note_on_c, 6, 60, 100
8, 2588160, Note_on_c, 6, 66, 100
8, 2588280, Note_on_c, 6, 66, 0
8, 2588280, Note_on_c, 6, 60, 0
8, 2588280, Note_on_c, 6, 57, 0
8, 2588400, Note_on_c, 6, 57, 100
8, 2588400, Note_on_c, 6, 60, 100
8, 2588400, Note_on_c, 6, 66, 100
8, 2588520, Note_on_c, 6, 66, 0
8, 2588520, Note_on_c, 6, 60, 0
8, 2588520, Note_on_c, 6, 57, 0
8, 2588640, Note_on_c, 6, 57, 100
8, 2588640, Note_on_c, 6, 60, 100
8, 2588640, Note_on_c, 6, 66, 100
8, 2588760, Note_on_c, 6, 66, 0
8, 2588760, Note_on_c, 6, 60, 0
8, 2588760, Note_on_c, 6, 57, 0
8, 2588880, Note_on_c, 6, 54, 100
8, 2589120, Note_on_c, 6, 54, 0
8, 2589120, Note_on_c, 6, 42, 100
8, 2589360, Note_on_c, 6, 42, 0
8, 2589360, Note_on_c, 6, 64, 100
8, 2589360, Note_on_c, 6, 67, 100
8, 2589360, Note_on_c, 6, 73, 100
8, 2589480, Note_on_c, 6, 73, 0
8, 2589480, Note_on_c, 6, 67, 0
8, 2589480, Note_on_c, 6, 64, 0
8, 2589600, Note_on_c, 6, 64, 100
8, 2589600, Note_on_c, 6, 67, 100
8, 2589600, Note_on_c, 6, 73, 100
8, 2589720, Note_on_c, 6, 73, 0
8, 2589720, Note_on_c, 6, 67, 0
8, 2589720, Note_on_c, 6, 64, 0
8, 2589840, Note_on_c, 6, 64, 100
8, 2589840, Note_on_c, 6, 67, 100
8, 2589840, Note_on_c, 6, 73, 100
8, 2589960, Note_on_c, 6, 73, 0
8, 2589960, Note_on_c, 6, 67, 0
8, 2589960, Note_on_c, 6, 64, 0
8, 2590080, Note_on_c, 6, 64, 100
8, 2590080, Note_on_c, 6, 67, 100
8, 2590080, Note_on_c, 6, 73, 100
8, 2590200, Note_on_c, 6, 73, 0
8, 2590200, Note_on_c, 6, 67, 0
8, 2590200, Note_on_c, 6, 64, 0
8, 2590320, Note_on_c, 6, 52, 100
8, 2590560, Note_on_c, 6, 52, 0
8, 2590560, Note_on_c, 6, 40, 100
8, 2590800, Note_on_c, 6, 40, 0
8, 2590800, Note_on_c, 6, 69, 100
8, 2590800, Note_on_c, 6, 78, 100
8, 2590800, Note_on_c, 6, 74, 100
8, 2590920, Note_on_c, 6, 74, 0
8, 2590920, Note_on_c, 6, 78, 0
8, 2590920, Note_on_c, 6, 69, 0
8, 2591040, Note_on_c, 6, 67, 100
8, 2591040, Note_on_c, 6, 76, 100
8, 2591040, Note_on_c, 6, 73, 100
8, 2591160, Note_on_c, 6, 73, 0
8, 2591160, Note_on_c, 6, 76, 0
8, 2591160, Note_on_c, 6, 67, 0
8, 2591280, Note_on_c, 6, 74, 100
8, 2591280, Note_on_c, 6, 69, 100
8, 2591280, Note_on_c, 6, 78, 100
8, 2591400, Note_on_c, 6, 78, 0
8, 2591400, Note_on_c, 6, 69, 0
8, 2591400, Note_on_c, 6, 74, 0
8, 2591520, Note_on_c, 6, 73, 100
8, 2591520, Note_on_c, 6, 67, 100
8, 2591520, Note_on_c, 6, 76, 100
8, 2591640, Note_on_c, 6, 76, 0
8, 2591640, Note_on_c, 6, 67, 0
8, 2591640, Note_on_c, 6, 73, 0
8, 2591880, Note_on_c, 6, 62, 100
8, 2592000, Note_on_c, 6, 62, 0
8, 2592000, Note_on_c, 6, 57, 100
8, 2592120, Note_on_c, 6, 57, 0
8, 2592120, Note_on_c, 6, 54, 100
8, 2592240, Note_on_c, 6, 54, 0
8, 2592240, Note_on_c, 6, 50, 100
8, 2592400, Note_on_c, 6, 50, 0
8, 2592400, Note_on_c, 6, 62, 100
8, 2592480, Note_on_c, 6, 62, 0
8, 2592480, Note_on_c, 6, 52, 100
8, 2592640, Note_on_c, 6, 52, 0
8, 2592640, Note_on_c, 6, 60, 100
8, 2592720, Note_on_c, 6, 60, 0
8, 2592720, Note_on_c, 6, 50, 100
8, 2592880, Note_on_c, 6, 50, 0
8, 2592880, Note_on_c, 6, 59, 100
8, 2592960, Note_on_c, 6, 59, 0
8, 2592960, Note_on_c, 6, 48, 100
8, 2593120, Note_on_c, 6, 48, 0
8, 2593120, Note_on_c, 6, 57, 100
8, 2593200, Note_on_c, 6, 57, 0
8, 2593200, Note_on_c, 6, 47, 100
8, 2593440, Note_on_c, 6, 47, 0
8, 2593440, Note_on_c, 6, 59, 100
8, 2593680, Note_on_c, 6, 59, 0
8, 2593680, Note_on_c, 6, 78, 100
8, 2593680, Note_on_c, 6, 72, 100
8, 2593680, Note_on_c, 6, 69, 100
8, 2593800, Note_on_c, 6, 69, 0
8, 2593800, Note_on_c, 6, 72, 0
8, 2593800, Note_on_c, 6, 78, 0
8, 2593920, Note_on_c, 6, 72, 100
8, 2593920, Note_on_c, 6, 69, 100
8, 2593920, Note_on_c, 6, 78, 100
8, 2594040, Note_on_c, 6, 78, 0
8, 2594040, Note_on_c, 6, 69, 0
8, 2594040, Note_on_c, 6, 72, 0
8, 2594160, Note_on_c, 6, 78, 100
8, 2594160, Note_on_c, 6, 69, 100
8, 2594160, Note_on_c, 6, 72, 100
8, 2594280, Note_on_c, 6, 72, 0
8, 2594280, Note_on_c, 6, 69, 0
8, 2594280, Note_on_c, 6, 78, 0
8, 2594400, Note_on_c, 6, 74, 100
8, 2594400, Note_on_c, 6, 67, 100
8, 2594400, Note_on_c, 6, 71, 100
8, 2594520, Note_on_c, 6, 71, 0
8, 2594520, Note_on_c, 6, 67, 0
8, 2594520, Note_on_c, 6, 74, 0
8, 2594640, Note_on_c, 6, 48, 100
8, 2594880, Note_on_c, 6, 48, 0
8, 2594880, Note_on_c, 6, 60, 100
8, 2595120, Note_on_c, 6, 60, 0
8, 2595120, Note_on_c, 6, 71, 100
8, 2595120, Note_on_c, 6, 65, 100
8, 2595120, Note_on_c, 6, 74, 100
8, 2595240, Note_on_c, 6, 74, 0
8, 2595240, Note_on_c, 6, 65, 0
8, 2595240, Note_on_c, 6, 71, 0
8, 2595360, Note_on_c, 6, 74, 100
8, 2595360, Note_on_c, 6, 71, 100
8, 2595360, Note_on_c, 6, 65, 100
8, 2595480, Note_on_c, 6, 65, 0
8, 2595480, Note_on_c, 6, 71, 0
8, 2595480, Note_on_c, 6, 74, 0
8, 2595600, Note_on_c, 6, 65, 100
8, 2595600, Note_on_c, 6, 74, 100
8, 2595600, Note_on_c, 6, 71, 100
8, 2595720, Note_on_c, 6, 71, 0
8, 2595720, Note_on_c, 6, 74, 0
8, 2595720, Note_on_c, 6, 65, 0
8, 2595840, Note_on_c, 6, 69, 100
8, 2595840, Note_on_c, 6, 72, 100
8, 2595840, Note_on_c, 6, 64, 100
8, 2595960, Note_on_c, 6, 64, 0
8, 2595960, Note_on_c, 6, 72, 0
8, 2595960, Note_on_c, 6, 69, 0
8, 2596080, Note_on_c, 6, 50, 100
8, 2596320, Note_on_c, 6, 50, 0
8, 2596320, Note_on_c, 6, 62, 100
8, 2596560, Note_on_c, 6, 62, 0
8, 2596560, Note_on_c, 6, 73, 100
8, 2596560, Note_on_c, 6, 67, 100
8, 2596560, Note_on_c, 6, 64, 100
8, 2596680, Note_on_c, 6, 64, 0
8, 2596680, Note_on_c, 6, 67, 0
8, 2596680, Note_on_c, 6, 73, 0
8, 2596800, Note_on_c, 6, 64, 100
8, 2596800, Note_on_c, 6, 67, 100
8, 2596800, Note_on_c, 6, 73, 100
8, 2596920, Note_on_c, 6, 73, 0
8, 2596920, Note_on_c, 6, 67, 0
8, 2596920, Note_on_c, 6, 64, 0
8, 2597040, Note_on_c, 6, 73, 100
8, 2597040, Note_on_c, 6, 67, 100
8, 2597040, Note_on_c, 6, 64, 100
8, 2597160, Note_on_c, 6, 64, 0
8, 2597160, Note_on_c, 6, 67, 0
8, 2597160, Note_on_c, 6, 73, 0
8, 2597280, Note_on_c, 6, 62, 100
8, 2597280, Note_on_c, 6, 66, 100
8, 2597280, Note_on_c, 6, 69, 100
8, 2597400, Note_on_c, 6, 69, 0
8, 2597400, Note_on_c, 6, 66, 0
8, 2597400, Note_on_c, 6, 62, 0
8, 2597640, Note_on_c, 6, 55, 100
8, 2597760, Note_on_c, 6, 55, 0
8, 2597760, Note_on_c, 6, 50, 100
8, 2597880, Note_on_c, 6, 50, 0
8, 2597880, Note_on_c, 6, 47, 100
8, 2598000, Note_on_c, 6, 47, 0
8, 2598000, Note_on_c, 6, 43, 100
8, 2598160, Note_on_c, 6, 43, 0
8, 2598160, Note_on_c, 6, 55, 100
8, 2598240, Note_on_c, 6, 55, 0
8, 2598240, Note_on_c, 6, 54, 100
8, 2598400, Note_on_c, 6, 54, 0
8, 2598400, Note_on_c, 6, 62, 100
8, 2598480, Note_on_c, 6, 62, 0
8, 2598480, Note_on_c, 6, 55, 100
8, 2598640, Note_on_c, 6, 55, 0
8, 2598640, Note_on_c, 6, 64, 100
8, 2598720, Note_on_c, 6, 64, 0
8, 2598720, Note_on_c, 6, 57, 100
8, 2598880, Note_on_c, 6, 57, 0
8, 2598880, Note_on_c, 6, 66, 100
8, 2598960, Note_on_c, 6, 66, 0
8, 2598960, Note_on_c, 6, 59, 100
8, 2599040, Note_on_c, 6, 59, 0
8, 2599040, Note_on_c, 6, 62, 100
8, 2599120, Note_on_c, 6, 62, 0
8, 2599360, Note_on_c, 6, 57, 100
8, 2599440, Note_on_c, 6, 57, 0
8, 2599440, Note_on_c, 6, 59, 100
8, 2599520, Note_on_c, 6, 59, 0
8, 2599520, Note_on_c, 6, 62, 100
8, 2599600, Note_on_c, 6, 62, 0
8, 2599840, Note_on_c, 6, 60, 100
8, 2599920, Note_on_c, 6, 60, 0
8, 2599920, Note_on_c, 6, 62, 100
8, 2600000, Note_on_c, 6, 62, 0
8, 2600000, Note_on_c, 6, 67, 100
8, 2600080, Note_on_c, 6, 67, 0
8, 2600320, Note_on_c, 6, 64, 100
8, 2600400, Note_on_c, 6, 64, 0
8, 2600400, Note_on_c, 6, 66, 100
8, 2600480, Note_on_c, 6, 66, 0
8, 2600480, Note_on_c, 6, 69, 100
8, 2600560, Note_on_c, 6, 69, 0
8, 2600800, Note_on_c, 6, 64, 100
8, 2600880, Note_on_c, 6, 64, 0
8, 2600880, Note_on_c, 6, 66, 100
8, 2600960, Note_on_c, 6, 66, 0
8, 2600960, Note_on_c, 6, 69, 100
8, 2601040, Note_on_c, 6, 69, 0
8, 2601280, Note_on_c, 6, 67, 100
8, 2601360, Note_on_c, 6, 67, 0
8, 2601360, Note_on_c, 6, 69, 100
8, 2601440, Note_on_c, 6, 69, 0
8, 2601440, Note_on_c, 6, 74, 100
8, 2601520, Note_on_c, 6, 74, 0
8, 2601760, Note_on_c, 6, 69, 100
8, 2601840, Note_on_c, 6, 69, 0
8, 2601840, Note_on_c, 6, 67, 100
8, 2601920, Note_on_c, 6, 67, 0
8, 2601920, Note_on_c, 6, 71, 100
8, 2602000, Note_on_c, 6, 71, 0
8, 2602240, Note_on_c, 6, 66, 100
8, 2602320, Note_on_c, 6, 66, 0
8, 2602320, Note_on_c, 6, 64, 100
8, 2602400, Note_on_c, 6, 64, 0
8, 2602400, Note_on_c, 6, 67, 100
8, 2602480, Note_on_c, 6, 67, 0
8, 2602720, Note_on_c, 6, 62, 100
8, 2602800, Note_on_c, 6, 62, 0
8, 2602800, Note_on_c, 6, 61, 100
8, 2602880, Note_on_c, 6, 61, 0
8, 2602880, Note_on_c, 6, 64, 100
8, 2602960, Note_on_c, 6, 64, 0
8, 2603200, Note_on_c, 6, 59, 100
8, 2603280, Note_on_c, 6, 59, 0
8, 2603280, Note_on_c, 6, 57, 100
8, 2603360, Note_on_c, 6, 57, 0
8, 2603360, Note_on_c, 6, 61, 100
8, 2603440, Note_on_c, 6, 61, 0
8, 2603680, Note_on_c, 6, 59, 100
8, 2603760, Note_on_c, 6, 59, 0
8, 2603760, Note_on_c, 6, 57, 100
8, 2603840, Note_on_c, 6, 57, 0
8, 2603840, Note_on_c, 6, 61, 100
8, 2603920, Note_on_c, 6, 61, 0
8, 2604160, Note_on_c, 6, 55, 100
8, 2604240, Note_on_c, 6, 55, 0
8, 2604240, Note_on_c, 6, 54, 100
8, 2604320, Note_on_c, 6, 54, 0
8, 2604320, Note_on_c, 6, 57, 100
8, 2604400, Note_on_c, 6, 57, 0
8, 2604640, Note_on_c, 6, 52, 100
8, 2604720, Note_on_c, 6, 52, 0
8, 2604720, Note_on_c, 6, 50, 100
8, 2604800, Note_on_c, 6, 50, 0
8, 2604800, Note_on_c, 6, 54, 100
8, 2604880, Note_on_c, 6, 54, 0
8, 2605120, Note_on_c, 6, 52, 100
8, 2605200, Note_on_c, 6, 52, 0
8, 2605200, Note_on_c, 6, 50, 100
8, 2605280, Note_on_c, 6, 50, 0
8, 2605280, Note_on_c, 6, 54, 100
8, 2605360, Note_on_c, 6, 54, 0
8, 2605600, Note_on_c, 6, 48, 100
8, 2605680, Note_on_c, 6, 48, 0
8, 2605680, Note_on_c, 6, 47, 100
8, 2605760, Note_on_c, 6, 47, 0
8, 2605760, Note_on_c, 6, 50, 100
8, 2605840, Note_on_c, 6, 50, 0
8, 2606080, Note_on_c, 6, 45, 100
8, 2606160, Note_on_c, 6, 45, 0
8, 2606160, Note_on_c, 6, 43, 100
8, 2606240, Note_on_c, 6, 43, 0
8, 2606240, Note_on_c, 6, 47, 100
8, 2606320, Note_on_c, 6, 47, 0
8, 2606560, Note_on_c, 6, 45, 100
8, 2606640, Note_on_c, 6, 45, 0
8, 2606640, Note_on_c, 6, 43, 100
8, 2606720, Note_on_c, 6, 43, 0
8, 2606720, Note_on_c, 6, 47, 100
8, 2606800, Note_on_c, 6, 47, 0
8, 2607040, Note_on_c, 6, 42, 100
8, 2607120, Note_on_c, 6, 42, 0
8, 2607120, Note_on_c, 6, 40, 100
8, 2607200, Note_on_c, 6, 40, 0
8, 2607200, Note_on_c, 6, 43, 100
8, 2607280, Note_on_c, 6, 43, 0
8, 2607520, Note_on_c, 6, 38, 100
8, 2607600, Note_on_c, 6, 38, 0
8, 2607600, Note_on_c, 6, 37, 100
8, 2607840, Note_on_c, 6, 37, 0
8, 2607840, Note_on_c, 6, 49, 100
8, 2608080, Note_on_c, 6, 49, 0
8, 2608080, Note_on_c, 6, 50, 100
8, 2608320, Note_on_c, 6, 50, 0
8, 2608320, Note_on_c, 6, 42, 100
8, 2608560, Note_on_c, 6, 42, 0
8, 2608560, Note_on_c, 6, 43, 100
8, 2608800, Note_on_c, 6, 43, 0
8, 2608800, Note_on_c, 6, 45, 100
8, 2609040, Note_on_c, 6, 45, 0
8, 2609040, Note_on_c, 6, 38, 100
8, 2609280, Note_on_c, 6, 38, 0
8, 2609280, Note_on_c, 6, 50, 100
8, 2609520, Note_on_c, 6, 50, 0
8, 2609520, Note_on_c, 6, 52, 100
8, 2609520, Note_on_c, 6, 55, 100
8, 2609520, Note_on_c, 6, 61, 100
8, 2609640, Note_on_c, 6, 61, 0
8, 2609640, Note_on_c, 6, 55, 0
8, 2609640, Note_on_c, 6, 52, 0
8, 2609760, Note_on_c, 6, 52, 100
8, 2609760, Note_on_c, 6, 55, 100
8, 2609760, Note_on_c, 6, 61, 100
8, 2609880, Note_on_c, 6, 61, 0
8, 2609880, Note_on_c, 6, 55, 0
8, 2609880, Note_on_c, 6, 52, 0
8, 2610000, Note_on_c, 6, 38, 100
8, 2610480, Note_on_c, 6, 38, 0
8, 2610480, Note_on_c, 6, 74, 100
8, 2610560, Note_on_c, 6, 74, 0
8, 2610560, Note_on_c, 6, 78, 100
8, 2610640, Note_on_c, 6, 78, 0
8, 2610880, Note_on_c, 6, 76, 100
8, 2610960, Note_on_c, 6, 76, 0
8, 2610960, Note_on_c, 6, 74, 100
8, 2611040, Note_on_c, 6, 74, 0
8, 2611040, Note_on_c, 6, 78, 100
8, 2611120, Note_on_c, 6, 78, 0
8, 2611360, Note_on_c, 6, 72, 100
8, 2611440, Note_on_c, 6, 72, 0
8, 2611440, Note_on_c, 6, 71, 100
8, 2611520, Note_on_c, 6, 71, 0
8, 2611520, Note_on_c, 6, 74, 100
8, 2611600, Note_on_c, 6, 74, 0
8, 2611840, Note_on_c, 6, 69, 100
8, 2611920, Note_on_c, 6, 69, 0
8, 2611920, Note_on_c, 6, 67, 100
8, 2612000, Note_on_c, 6, 67, 0
8, 2612000, Note_on_c, 6, 71, 100
8, 2612080, Note_on_c, 6, 71, 0
8, 2612320, Note_on_c, 6, 69, 100
8, 2612400, Note_on_c, 6, 69, 0
8, 2612400, Note_on_c, 6, 67, 100
8, 2612480, Note_on_c, 6, 67, 0
8, 2612480, Note_on_c, 6, 71, 100
8, 2612560, Note_on_c, 6, 71, 0
8, 2612800, Note_on_c, 6, 66, 100
8, 2612880, Note_on_c, 6, 66, 0
8, 2612880, Note_on_c, 6, 64, 100
8, 2612960, Note_on_c, 6, 64, 0
8, 2612960, Note_on_c, 6, 67, 100
8, 2613040, Note_on_c, 6, 67, 0
8, 2613280, Note_on_c, 6, 62, 100
8, 2613360, Note_on_c, 6, 62, 0
8, 2613360, Note_on_c, 6, 60, 100
8, 2613440, Note_on_c, 6, 60, 0
8, 2613440, Note_on_c, 6, 64, 100
8, 2613520, Note_on_c, 6, 64, 0
8, 2613760, Note_on_c, 6, 59, 100
8, 2613840, Note_on_c, 6, 59, 0
8, 2613840, Note_on_c, 6, 57, 100
8, 2613920, Note_on_c, 6, 57, 0
8, 2613920, Note_on_c, 6, 60, 100
8, 2614000, Note_on_c, 6, 60, 0
8, 2614240, Note_on_c, 6, 55, 100
8, 2614320, Note_on_c, 6, 55, 0
8, 2614320, Note_on_c, 6, 54, 100
8, 2614400, Note_on_c, 6, 54, 0
8, 2614400, Note_on_c, 6, 57, 100
8, 2614480, Note_on_c, 6, 57, 0
8, 2614720, Note_on_c, 6, 52, 100
8, 2614800, Note_on_c, 6, 52, 0
8, 2614800, Note_on_c, 6, 51, 100
8, 2614880, Note_on_c, 6, 51, 0
8, 2614880, Note_on_c, 6, 54, 100
8, 2614960, Note_on_c, 6, 54, 0
8, 2615200, Note_on_c, 6, 49, 100
8, 2615280, Note_on_c, 6, 49, 0
8, 2615280, Note_on_c, 6, 47, 100
8, 2615360, Note_on_c, 6, 47, 0
8, 2615360, Note_on_c, 6, 51, 100
8, 2615440, Note_on_c, 6, 51, 0
8, 2615680, Note_on_c, 6, 45, 100
8, 2615760, Note_on_c, 6, 45, 0
8, 2615760, Note_on_c, 6, 43, 100
8, 2615840, Note_on_c, 6, 43, 0
8, 2615840, Note_on_c, 6, 47, 100
8, 2615920, Note_on_c, 6, 47, 0
8, 2616160, Note_on_c, 6, 42, 100
8, 2616240, Note_on_c, 6, 42, 0
8, 2616240, Note_on_c, 6, 40, 100
8, 2616480, Note_on_c, 6, 40, 0
8, 2616480, Note_on_c, 6, 52, 100
8, 2616720, Note_on_c, 6, 52, 0
8, 2616720, Note_on_c, 6, 66, 100
8, 2616720, Note_on_c, 6, 69, 100
8, 2616720, Note_on_c, 6, 75, 100
8, 2616840, Note_on_c, 6, 75, 0
8, 2616840, Note_on_c, 6, 69, 0
8, 2616840, Note_on_c, 6, 66, 0
8, 2616960, Note_on_c, 6, 75, 100
8, 2616960, Note_on_c, 6, 69, 100
8, 2616960, Note_on_c, 6, 66, 100
8, 2617080, Note_on_c, 6, 66, 0
8, 2617080, Note_on_c, 6, 69, 0
8, 2617080, Note_on_c, 6, 75, 0
8, 2617200, Note_on_c, 6, 67, 100
8, 2617200, Note_on_c, 6, 55, 100
8, 2617320, Note_on_c, 6, 55, 0
8, 2617320, Note_on_c, 6, 67, 0
8, 2617440, Note_on_c, 6, 75, 100
8, 2617440, Note_on_c, 6, 69, 100
8, 2617440, Note_on_c, 6, 66, 100
8, 2617560, Note_on_c, 6, 66, 0
8, 2617560, Note_on_c, 6, 69, 0
8, 2617560, Note_on_c, 6, 75, 0
8, 2617680, Note_on_c, 6, 48, 100
8, 2617920, Note_on_c, 6, 48, 0
8, 2617920, Note_on_c, 6, 60, 100
8, 2618160, Note_on_c, 6, 60, 0
8, 2618160, Note_on_c, 6, 66, 100
8, 2618160, Note_on_c, 6, 69, 100
8, 2618160, Note_on_c, 6, 75, 100
8, 2618280, Note_on_c, 6, 75, 0
8, 2618280, Note_on_c, 6, 69, 0
8, 2618280, Note_on_c, 6, 66, 0
8, 2618400, Note_on_c, 6, 75, 100
8, 2618400, Note_on_c, 6, 69, 100
8, 2618400, Note_on_c, 6, 66, 100
8, 2618520, Note_on_c, 6, 66, 0
8, 2618520, Note_on_c, 6, 69, 0
8, 2618520, Note_on_c, 6, 75, 0
8, 2618640, Note_on_c, 6, 59, 100
8, 2618640, Note_on_c, 6, 71, 100
8, 2618760, Note_on_c, 6, 71, 0
8, 2618760, Note_on_c, 6, 59, 0
8, 2618880, Note_on_c, 6, 75, 100
8, 2618880, Note_on_c, 6, 69, 100
8, 2618880, Note_on_c, 6, 66, 100
8, 2619000, Note_on_c, 6, 66, 0
8, 2619000, Note_on_c, 6, 69, 0
8, 2619000, Note_on_c, 6, 75, 0
8, 2619120, Note_on_c, 6, 57, 100
8, 2619360, Note_on_c, 6, 57, 0
8, 2619360, Note_on_c, 6, 51, 100
8, 2619600, Note_on_c, 6, 51, 0
8, 2619600, Note_on_c, 6, 52, 100
8, 2619840, Note_on_c, 6, 52, 0
8, 2619840, Note_on_c, 6, 57, 100
8, 2620080, Note_on_c, 6, 57, 0
8, 2620080, Note_on_c, 6, 59, 100
8, 2620320, Note_on_c, 6, 59, 0
8, 2620320, Note_on_c, 6, 47, 100
8, 2620560, Note_on_c, 6, 47, 0
8, 2620560, Note_on_c, 6, 52, 100
8, 2620800, Note_on_c, 6, 52, 0
8, 2620800, Note_on_c, 6, 66, 100
8, 2620800, Note_on_c, 6, 69, 100
8, 2620800, Note_on_c, 6, 75, 100
8, 2620920, Note_on_c, 6, 75, 0
8, 2620920, Note_on_c, 6, 69, 0
8, 2620920, Note_on_c, 6, 66, 0
8, 2621040, Note_on_c, 6, 63, 100
8, 2621040, Note_on_c, 6, 66, 100
8, 2621040, Note_on_c, 6, 71, 100
8, 2621160, Note_on_c, 6, 71, 0
8, 2621160, Note_on_c, 6, 66, 0
8, 2621160, Note_on_c, 6, 63, 0
8, 2621280, Note_on_c, 6, 71, 100
8, 2621280, Note_on_c, 6, 66, 100
8, 2621280, Note_on_c, 6, 63, 100
8, 2621400, Note_on_c, 6, 63, 0
8, 2621400, Note_on_c, 6, 66, 0
8, 2621400, Note_on_c, 6, 71, 0
8, 2621520, Note_on_c, 6, 66, 100
8, 2621520, Note_on_c, 6, 63, 100
8, 2621520, Note_on_c, 6, 57, 100
8, 2621640, Note_on_c, 6, 57, 0
8, 2621640, Note_on_c, 6, 63, 0
8, 2621640, Note_on_c, 6, 66, 0
8, 2621760, Note_on_c, 6, 63, 100
8, 2621760, Note_on_c, 6, 66, 100
8, 2621760, Note_on_c, 6, 57, 100
8, 2621880, Note_on_c, 6, 57, 0
8, 2621880, Note_on_c, 6, 66, 0
8, 2621880, Note_on_c, 6, 63, 0
8, 2622000, Note_on_c, 6, 48, 100
8, 2622240, Note_on_c, 6, 48, 0
8, 2622240, Note_on_c, 6, 59, 100
8, 2622480, Note_on_c, 6, 59, 0
8, 2622480, Note_on_c, 6, 57, 100
8, 2622720, Note_on_c, 6, 57, 0
8, 2622720, Note_on_c, 6, 56, 100
8, 2622960, Note_on_c, 6, 56, 0
8, 2622960, Note_on_c, 6, 57, 100
8, 2623200, Note_on_c, 6, 57, 0
8, 2623200, Note_on_c, 6, 48, 100
8, 2623440, Note_on_c, 6, 48, 0
8, 2623440, Note_on_c, 6, 47, 100
8, 2623680, Note_on_c, 6, 47, 0
8, 2623680, Note_on_c, 6, 57, 100
8, 2623920, Note_on_c, 6, 57, 0
8, 2623920, Note_on_c, 6, 55, 100
8, 2624160, Note_on_c, 6, 55, 0
8, 2624160, Note_on_c, 6, 54, 100
8, 2624400, Note_on_c, 6, 54, 0
8, 2624400, Note_on_c, 6, 55, 100
8, 2624640, Note_on_c, 6, 55, 0
8, 2624640, Note_on_c, 6, 47, 100
8, 2624880, Note_on_c, 6, 47, 0
8, 2624880, Note_on_c, 6, 45, 100
8, 2624960, Note_on_c, 6, 45, 0
8, 2624960, Note_on_c, 6, 57, 100
8, 2625040, Note_on_c, 6, 57, 0
8, 2625280, Note_on_c, 6, 59, 100
8, 2625360, Note_on_c, 6, 59, 0
8, 2625360, Note_on_c, 6, 57, 100
8, 2625440, Note_on_c, 6, 57, 0
8, 2625440, Note_on_c, 6, 60, 100
8, 2625520, Note_on_c, 6, 60, 0
8, 2625760, Note_on_c, 6, 55, 100
8, 2625840, Note_on_c, 6, 55, 0
8, 2625840, Note_on_c, 6, 54, 100
8, 2625920, Note_on_c, 6, 54, 0
8, 2625920, Note_on_c, 6, 57, 100
8, 2626000, Note_on_c, 6, 57, 0
8, 2626240, Note_on_c, 6, 52, 100
8, 2626320, Note_on_c, 6, 52, 0
8, 2626320, Note_on_c, 6, 50, 100
8, 2626400, Note_on_c, 6, 50, 0
8, 2626400, Note_on_c, 6, 62, 100
8, 2626480, Note_on_c, 6, 62, 0
8, 2626720, Note_on_c, 6, 64, 100
8, 2626800, Note_on_c, 6, 64, 0
8, 2626800, Note_on_c, 6, 62, 100
8, 2626880, Note_on_c, 6, 62, 0
8, 2626880, Note_on_c, 6, 66, 100
8, 2626960, Note_on_c, 6, 66, 0
8, 2627200, Note_on_c, 6, 60, 100
8, 2627280, Note_on_c, 6, 60, 0
8, 2627280, Note_on_c, 6, 59, 100
8, 2627360, Note_on_c, 6, 59, 0
8, 2627360, Note_on_c, 6, 62, 100
8, 2627440, Note_on_c, 6, 62, 0
8, 2627680, Note_on_c, 6, 57, 100
8, 2627760, Note_on_c, 6, 57, 0
8, 2627760, Note_on_c, 6, 55, 100
8, 2627840, Note_on_c, 6, 55, 0
8, 2627840, Note_on_c, 6, 67, 100
8, 2627920, Note_on_c, 6, 67, 0
8, 2628160, Note_on_c, 6, 69, 100
8, 2628240, Note_on_c, 6, 69, 0
8, 2628240, Note_on_c, 6, 67, 100
8, 2628320, Note_on_c, 6, 67, 0
8, 2628320, Note_on_c, 6, 71, 100
8, 2628400, Note_on_c, 6, 71, 0
8, 2628640, Note_on_c, 6, 65, 100
8, 2628720, Note_on_c, 6, 65, 0
8, 2628720, Note_on_c, 6, 64, 100
8, 2628800, Note_on_c, 6, 64, 0
8, 2628800, Note_on_c, 6, 67, 100
8, 2628880, Note_on_c, 6, 67, 0
8, 2629120, Note_on_c, 6, 62, 100
8, 2629200, Note_on_c, 6, 62, 0
8, 2629200, Note_on_c, 6, 60, 100
8, 2629280, Note_on_c, 6, 60, 0
8, 2629280, Note_on_c, 6, 72, 100
8, 2629360, Note_on_c, 6, 72, 0
8, 2629600, Note_on_c, 6, 74, 100
8, 2629680, Note_on_c, 6, 74, 0
8, 2629680, Note_on_c, 6, 72, 100
8, 2629760, Note_on_c, 6, 72, 0
8, 2629760, Note_on_c, 6, 76, 100
8, 2629840, Note_on_c, 6, 76, 0
8, 2630080, Note_on_c, 6, 71, 100
8, 2630160, Note_on_c, 6, 71, 0
8, 2630160, Note_on_c, 6, 69, 100
8, 2630240, Note_on_c, 6, 69, 0
8, 2630240, Note_on_c, 6, 72, 100
8, 2630320, Note_on_c, 6, 72, 0
8, 2630560, Note_on_c, 6, 67, 100
8, 2630640, Note_on_c, 6, 67, 0
8, 2630640, Note_on_c, 6, 66, 100
8, 2630880, Note_on_c, 6, 66, 0
8, 2630880, Note_on_c, 6, 57, 100
8, 2631120, Note_on_c, 6, 57, 0
8, 2631120, Note_on_c, 6, 59, 100
8, 2631360, Note_on_c, 6, 59, 0
8, 2631360, Note_on_c, 6, 60, 100
8, 2631600, Note_on_c, 6, 60, 0
8, 2631600, Note_on_c, 6, 62, 100
8, 2631840, Note_on_c, 6, 62, 0
8, 2631840, Note_on_c, 6, 50, 100
8, 2632080, Note_on_c, 6, 50, 0
8, 2632080, Note_on_c, 6, 55, 100
8, 2632320, Note_on_c, 6, 55, 0
8, 2632320, Note_on_c, 6, 43, 100
8, 2632560, Note_on_c, 6, 43, 0
8, 2632560, Note_on_c, 6, 78, 100
8, 2632560, Note_on_c, 6, 69, 100
8, 2632560, Note_on_c, 6, 72, 100
8, 2632680, Note_on_c, 6, 72, 0
8, 2632680, Note_on_c, 6, 69, 0
8, 2632680, Note_on_c, 6, 78, 0
8, 2632800, Note_on_c, 6, 72, 100
8, 2632800, Note_on_c, 6, 78, 100
8, 2632800, Note_on_c, 6, 69, 100
8, 2632920, Note_on_c, 6, 69, 0
8, 2632920, Note_on_c, 6, 78, 0
8, 2632920, Note_on_c, 6, 72, 0
8, 2633040, Note_on_c, 6, 55, 100
8, 2633520, Note_on_c, 6, 55, 0
8, 2633520, Note_on_c, 6, 74, 100
8, 2633600, Note_on_c, 6, 74, 0
8, 2633600, Note_on_c, 6, 78, 100
8, 2633680, Note_on_c, 6, 78, 0
8, 2633920, Note_on_c, 6, 76, 100
8, 2634000, Note_on_c, 6, 76, 0
8, 2634000, Note_on_c, 6, 74, 100
8, 2634080, Note_on_c, 6, 74, 0
8, 2634080, Note_on_c, 6, 78, 100
8, 2634160, Note_on_c, 6, 78, 0
8, 2634400, Note_on_c, 6, 72, 100
8, 2634480, Note_on_c, 6, 72, 0
8, 2634480, Note_on_c, 6, 71, 100
8, 2634560, Note_on_c, 6, 71, 0
8, 2634560, Note_on_c, 6, 74, 100
8, 2634640, Note_on_c, 6, 74, 0
8, 2634880, Note_on_c, 6, 69, 100
8, 2634960, Note_on_c, 6, 69, 0
8, 2634960, Note_on_c, 6, 67, 100
8, 2635040, Note_on_c, 6, 67, 0
8, 2635040, Note_on_c, 6, 71, 100
8, 2635120, Note_on_c, 6, 71, 0
8, 2635360, Note_on_c, 6, 69, 100
8, 2635440, Note_on_c, 6, 69, 0
8, 2635440, Note_on_c, 6, 67, 100
8, 2635520, Note_on_c, 6, 67, 0
8, 2635520, Note_on_c, 6, 71, 100
8, 2635600, Note_on_c, 6, 71, 0
8, 2635840, Note_on_c, 6, 66, 100
8, 2635920, Note_on_c, 6, 66, 0
8, 2635920, Note_on_c, 6, 64, 100
8, 2636000, Note_on_c, 6, 64, 0
8, 2636000, Note_on_c, 6, 67, 100
8, 2636080, Note_on_c, 6, 67, 0
8, 2636320, Note_on_c, 6, 62, 100
8, 2636400, Note_on_c, 6, 62, 0
8, 2636400, Note_on_c, 6, 60, 100
8, 2636480, Note_on_c, 6, 60, 0
8, 2636480, Note_on_c, 6, 64, 100
8, 2636560, Note_on_c, 6, 64, 0
8, 2636800, Note_on_c, 6, 59, 100
8, 2636880, Note_on_c, 6, 59, 0
8, 2636880, Note_on_c, 6, 57, 100
8, 2636960, Note_on_c, 6, 57, 0
8, 2636960, Note_on_c, 6, 60, 100
8, 2637040, Note_on_c, 6, 60, 0
8, 2637280, Note_on_c, 6, 55, 100
8, 2637360, Note_on_c, 6, 55, 0
8, 2637360, Note_on_c, 6, 54, 100
8, 2637440, Note_on_c, 6, 54, 0
8, 2637440, Note_on_c, 6, 57, 100
8, 2637520, Note_on_c, 6, 57, 0
8, 2637760, Note_on_c, 6, 52, 100
8, 2637840, Note_on_c, 6, 52, 0
8, 2637840, Note_on_c, 6, 51, 100
8, 2637920, Note_on_c, 6, 51, 0
8, 2637920, Note_on_c, 6, 54, 100
8, 2638000, Note_on_c, 6, 54, 0
8, 2638240, Note_on_c, 6, 49, 100
8, 2638320, Note_on_c, 6, 49, 0
8, 2638320, Note_on_c, 6, 47, 100
8, 2638400, Note_on_c, 6, 47, 0
8, 2638400, Note_on_c, 6, 51, 100
8, 2638480, Note_on_c, 6, 51, 0
8, 2638720, Note_on_c, 6, 45, 100
8, 2638800, Note_on_c, 6, 45, 0
8, 2638800, Note_on_c, 6, 43, 100
8, 2638880, Note_on_c, 6, 43, 0
8, 2638880, Note_on_c, 6, 47, 100
8, 2638960, Note_on_c, 6, 47, 0
8, 2639200, Note_on_c, 6, 42, 100
8, 2639280, Note_on_c, 6, 42, 0
8, 2639280, Note_on_c, 6, 40, 100
8, 2639520, Note_on_c, 6, 40, 0
8, 2639520, Note_on_c, 6, 52, 100
8, 2639760, Note_on_c, 6, 52, 0
8, 2639760, Note_on_c, 6, 66, 100
8, 2639760, Note_on_c, 6, 69, 100
8, 2639760, Note_on_c, 6, 75, 100
8, 2639880, Note_on_c, 6, 75, 0
8, 2639880, Note_on_c, 6, 69, 0
8, 2639880, Note_on_c, 6, 66, 0
8, 2640000, Note_on_c, 6, 75, 100
8, 2640000, Note_on_c, 6, 69, 100
8, 2640000, Note_on_c, 6, 66, 100
8, 2640120, Note_on_c, 6, 66, 0
8, 2640120, Note_on_c, 6, 69, 0
8, 2640120, Note_on_c, 6, 75, 0
8, 2640240, Note_on_c, 6, 67, 100
8, 2640240, Note_on_c, 6, 55, 100
8, 2640360, Note_on_c, 6, 55, 0
8, 2640360, Note_on_c, 6, 67, 0
8, 2640480, Note_on_c, 6, 75, 100
8, 2640480, Note_on_c, 6, 69, 100
8, 2640480, Note_on_c, 6, 66, 100
8, 2640600, Note_on_c, 6, 66, 0
8, 2640600, Note_on_c, 6, 69, 0
8, 2640600, Note_on_c, 6, 75, 0
8, 2640720, Note_on_c, 6, 48, 100
8, 2640960, Note_on_c, 6, 48, 0
8, 2640960, Note_on_c, 6, 60, 100
8, 2641200, Note_on_c, 6, 60, 0
8, 2641200, Note_on_c, 6, 66, 100
8, 2641200, Note_on_c, 6, 69, 100
8, 2641200, Note_on_c, 6, 75, 100
8, 2641320, Note_on_c, 6, 75, 0
8, 2641320, Note_on_c, 6, 69, 0
8, 2641320, Note_on_c, 6, 66, 0
8, 2641440, Note_on_c, 6, 75, 100
8, 2641440, Note_on_c, 6, 69, 100
8, 2641440, Note_on_c, 6, 66, 100
8, 2641560, Note_on_c, 6, 66, 0
8, 2641560, Note_on_c, 6, 69, 0
8, 2641560, Note_on_c, 6, 75, 0
8, 2641680, Note_on_c, 6, 59, 100
8, 2641680, Note_on_c, 6, 71, 100
8, 2641800, Note_on_c, 6, 71, 0
8, 2641800, Note_on_c, 6, 59, 0
8, 2641920, Note_on_c, 6, 75, 100
8, 2641920, Note_on_c, 6, 69, 100
8, 2641920, Note_on_c, 6, 66, 100
8, 2642040, Note_on_c, 6, 66, 0
8, 2642040, Note_on_c, 6, 69, 0
8, 2642040, Note_on_c, 6, 75, 0
8, 2642160, Note_on_c, 6, 57, 100
8, 2642400, Note_on_c, 6, 57, 0
8, 2642400, Note_on_c, 6, 51, 100
8, 2642640, Note_on_c, 6, 51, 0
8, 2642640, Note_on_c, 6, 52, 100
8, 2642880, Note_on_c, 6, 52, 0
8, 2642880, Note_on_c, 6, 57, 100
8, 2643120, Note_on_c, 6, 57, 0
8, 2643120, Note_on_c, 6, 59, 100
8, 2643360, Note_on_c, 6, 59, 0
8, 2643360, Note_on_c, 6, 47, 100
8, 2643600, Note_on_c, 6, 47, 0
8, 2643600, Note_on_c, 6, 52, 100
8, 2643840, Note_on_c, 6, 52, 0
8, 2643840, Note_on_c, 6, 66, 100
8, 2643840, Note_on_c, 6, 69, 100
8, 2643840, Note_on_c, 6, 75, 100
8, 2643960, Note_on_c, 6, 75, 0
8, 2643960, Note_on_c, 6, 69, 0
8, 2643960, Note_on_c, 6, 66, 0
8, 2644080, Note_on_c, 6, 63, 100
8, 2644080, Note_on_c, 6, 66, 100
8, 2644080, Note_on_c, 6, 71, 100
8, 2644200, Note_on_c, 6, 71, 0
8, 2644200, Note_on_c, 6, 66, 0
8, 2644200, Note_on_c, 6, 63, 0
8, 2644320, Note_on_c, 6, 71, 100
8, 2644320, Note_on_c, 6, 66, 100
8, 2644320, Note_on_c, 6, 63, 100
8, 2644440, Note_on_c, 6, 63, 0
8, 2644440, Note_on_c, 6, 66, 0
8, 2644440, Note_on_c, 6, 71, 0
8, 2644560, Note_on_c, 6, 66, 100
8, 2644560, Note_on_c, 6, 63, 100
8, 2644560, Note_on_c, 6, 57, 100
8, 2644680, Note_on_c, 6, 57, 0
8, 2644680, Note_on_c, 6, 63, 0
8, 2644680, Note_on_c, 6, 66, 0
8, 2644800, Note_on_c, 6, 63, 100
8, 2644800, Note_on_c, 6, 66, 100
8, 2644800, Note_on_c, 6, 57, 100
8, 2644920, Note_on_c, 6, 57, 0
8, 2644920, Note_on_c, 6, 66, 0
8, 2644920, Note_on_c, 6, 63, 0
8, 2645040, Note_on_c, 6, 48, 100
8, 2645280, Note_on_c, 6, 48, 0
8, 2645280, Note_on_c, 6, 59, 100
8, 2645520, Note_on_c, 6, 59, 0
8, 2645520, Note_on_c, 6, 57, 100
8, 2645760, Note_on_c, 6, 57, 0
8, 2645760, Note_on_c, 6, 56, 100
8, 2646000, Note_on_c, 6, 56, 0
8, 2646000, Note_on_c, 6, 57, 100
8, 2646240, Note_on_c, 6, 57, 0
8, 2646240, Note_on_c, 6, 48, 100
8, 2646480, Note_on_c, 6, 48, 0
8, 2646480, Note_on_c, 6, 47, 100
8, 2646720, Note_on_c, 6, 47, 0
8, 2646720, Note_on_c, 6, 57, 100
8, 2646960, Note_on_c, 6, 57, 0
8, 2646960, Note_on_c, 6, 55, 100
8, 2647200, Note_on_c, 6, 55, 0
8, 2647200, Note_on_c, 6, 54, 100
8, 2647440, Note_on_c, 6, 54, 0
8, 2647440, Note_on_c, 6, 55, 100
8, 2647680, Note_on_c, 6, 55, 0
8, 2647680, Note_on_c, 6, 47, 100
8, 2647920, Note_on_c, 6, 47, 0
8, 2647920, Note_on_c, 6, 45, 100
8, 2648000, Note_on_c, 6, 45, 0
8, 2648000, Note_on_c, 6, 57, 100
8, 2648080, Note_on_c, 6, 57, 0
8, 2648320, Note_on_c, 6, 59, 100
8, 2648400, Note_on_c, 6, 59, 0
8, 2648400, Note_on_c, 6, 57, 100
8, 2648480, Note_on_c, 6, 57, 0
8, 2648480, Note_on_c, 6, 60, 100
8, 2648560, Note_on_c, 6, 60, 0
8, 2648800, Note_on_c, 6, 55, 100
8, 2648880, Note_on_c, 6, 55, 0
8, 2648880, Note_on_c, 6, 54, 100
8, 2648960, Note_on_c, 6, 54, 0
8, 2648960, Note_on_c, 6, 57, 100
8, 2649040, Note_on_c, 6, 57, 0
8, 2649280, Note_on_c, 6, 52, 100
8, 2649360, Note_on_c, 6, 52, 0
8, 2649360, Note_on_c, 6, 50, 100
8, 2649440, Note_on_c, 6, 50, 0
8, 2649440, Note_on_c, 6, 62, 100
8, 2649520, Note_on_c, 6, 62, 0
8, 2649760, Note_on_c, 6, 64, 100
8, 2649840, Note_on_c, 6, 64, 0
8, 2649840, Note_on_c, 6, 62, 100
8, 2649920, Note_on_c, 6, 62, 0
8, 2649920, Note_on_c, 6, 66, 100
8, 2650000, Note_on_c, 6, 66, 0
8, 2650240, Note_on_c, 6, 60, 100
8, 2650320, Note_on_c, 6, 60, 0
8, 2650320, Note_on_c, 6, 59, 100
8, 2650400, Note_on_c, 6, 59, 0
8, 2650400, Note_on_c, 6, 62, 100
8, 2650480, Note_on_c, 6, 62, 0
8, 2650720, Note_on_c, 6, 57, 100
8, 2650800, Note_on_c, 6, 57, 0
8, 2650800, Note_on_c, 6, 55, 100
8, 2650880, Note_on_c, 6, 55, 0
8, 2650880, Note_on_c, 6, 67, 100
8, 2650960, Note_on_c, 6, 67, 0
8, 2651200, Note_on_c, 6, 69, 100
8, 2651280, Note_on_c, 6, 69, 0
8, 2651280, Note_on_c, 6, 67, 100
8, 2651360, Note_on_c, 6, 67, 0
8, 2651360, Note_on_c, 6, 71, 100
8, 2651440, Note_on_c, 6, 71, 0
8, 2651680, Note_on_c, 6, 65, 100
8, 2651760, Note_on_c, 6, 65, 0
8, 2651760, Note_on_c, 6, 64, 100
8, 2651840, Note_on_c, 6, 64, 0
8, 2651840, Note_on_c, 6, 67, 100
8, 2651920, Note_on_c, 6, 67, 0
8, 2652160, Note_on_c, 6, 62, 100
8, 2652240, Note_on_c, 6, 62, 0
8, 2652240, Note_on_c, 6, 60, 100
8, 2652320, Note_on_c, 6, 60, 0
8, 2652320, Note_on_c, 6, 72, 100
8, 2652400, Note_on_c, 6, 72, 0
8, 2652640, Note_on_c, 6, 74, 100
8, 2652720, Note_on_c, 6, 74, 0
8, 2652720, Note_on_c, 6, 72, 100
8, 2652800, Note_on_c, 6, 72, 0
8, 2652800, Note_on_c, 6, 76, 100
8, 2652880, Note_on_c, 6, 76, 0
8, 2653120, Note_on_c, 6, 71, 100
8, 2653200, Note_on_c, 6, 71, 0
8, 2653200, Note_on_c, 6, 69, 100
8, 2653280, Note_on_c, 6, 69, 0
8, 2653280, Note_on_c, 6, 72, 100
8, 2653360, Note_on_c, 6, 72, 0
8, 2653600, Note_on_c, 6, 67, 100
8, 2653680, Note_on_c, 6, 67, 0
8, 2653680, Note_on_c, 6, 66, 100
8, 2653920, Note_on_c, 6, 66, 0
8, 2653920, Note_on_c, 6, 57, 100
8, 2654160, Note_on_c, 6, 57, 0
8, 2654160, Note_on_c, 6, 59, 100
8, 2654400, Note_on_c, 6, 59, 0
8, 2654400, Note_on_c, 6, 60, 100
8, 2654640, Note_on_c, 6, 60, 0
8, 2654640, Note_on_c, 6, 62, 100
8, 2654880, Note_on_c, 6, 62, 0
8, 2654880, Note_on_c, 6, 50, 100
8, 2655120, Note_on_c, 6, 50, 0
8, 2655120, Note_on_c, 6, 55, 100
8, 2655360, Note_on_c, 6, 55, 0
8, 2655360, Note_on_c, 6, 43, 100
8, 2655600, Note_on_c, 6, 43, 0
8, 2655600, Note_on_c, 6, 78, 100
8, 2655600, Note_on_c, 6, 69, 100
8, 2655600, Note_on_c, 6, 72, 100
8, 2655720, Note_on_c, 6, 72, 0
8, 2655720, Note_on_c, 6, 69, 0
8, 2655720, Note_on_c, 6, 78, 0
8, 2655840, Note_on_c, 6, 72, 100
8, 2655840, Note_on_c, 6, 78, 100
8, 2655840, Note_on_c, 6, 69, 100
8, 2655960, Note_on_c, 6, 69, 0
8, 2655960, Note_on_c, 6, 78, 0
8, 2655960, Note_on_c, 6, 72, 0
8, 2656080, Note_on_c, 6, 55, 100
8, 2656560, Note_on_c, 6, 55, 0
8, 2656800, Note_on_c, 6, 55, 100
8, 2657760, Note_on_c, 6, 55, 0
8, 2657760, Note_on_c, 6, 54, 100
8, 2658720, Note_on_c, 6, 54, 0
8, 2658720, Note_on_c, 6, 52, 100
8, 2659680, Note_on_c, 6, 52, 0
8, 2659680, Note_on_c, 6, 50, 100
8, 2660400, Note_on_c, 6, 50, 0
8, 2660400, Note_on_c, 6, 48, 100
8, 2660640, Note_on_c, 6, 48, 0
8, 2660640, Note_on_c, 6, 47, 100
8, 2661600, Note_on_c, 6, 47, 0
8, 2661600, Note_on_c, 6, 48, 100
8, 2662560, Note_on_c, 6, 48, 0
8, 2662560, Note_on_c, 6, 50, 100
8, 2663520, Note_on_c, 6, 50, 0
8, 2663520, Note_on_c, 6, 43, 100
8, 2664000, Note_on_c, 6, 43, 0
8, 2664240, Note_on_c, 6, 59, 100
8, 2664360, Note_on_c, 6, 59, 0
8, 2664360, Note_on_c, 6, 57, 100
8, 2664480, Note_on_c, 6, 57, 0
8, 2664480, Note_on_c, 6, 55, 100
8, 2664720, Note_on_c, 6, 55, 0
8, 2664720, Note_on_c, 6, 54, 100
8, 2664840, Note_on_c, 6, 54, 0
8, 2664840, Note_on_c, 6, 55, 100
8, 2664960, Note_on_c, 6, 55, 0
8, 2664960, Note_on_c, 6, 52, 100
8, 2665200, Note_on_c, 6, 52, 0
8, 2665200, Note_on_c, 6, 50, 100
8, 2665320, Note_on_c, 6, 50, 0
8, 2665320, Note_on_c, 6, 52, 100
8, 2665440, Note_on_c, 6, 52, 0
8, 2665440, Note_on_c, 6, 54, 100
8, 2666160, Note_on_c, 6, 54, 0
8, 2666160, Note_on_c, 6, 59, 100
8, 2666400, Note_on_c, 6, 59, 0
8, 2666400, Note_on_c, 6, 52, 100
8, 2667120, Note_on_c, 6, 52, 0
8, 2667120, Note_on_c, 6, 54, 100
8, 2667240, Note_on_c, 6, 54, 0
8, 2667240, Note_on_c, 6, 55, 100
8, 2667360, Note_on_c, 6, 55, 0
8, 2667360, Note_on_c, 6, 57, 100
8, 2667960, Note_on_c, 6, 57, 0
8, 2667960, Note_on_c, 6, 55, 100
8, 2668080, Note_on_c, 6, 55, 0
8, 2668080, Note_on_c, 6, 54, 100
8, 2668200, Note_on_c, 6, 54, 0
8, 2668200, Note_on_c, 6, 52, 100
8, 2668320, Note_on_c, 6, 52, 0
8, 2668320, Note_on_c, 6, 54, 100
8, 2668800, Note_on_c, 6, 54, 0
8, 2668800, Note_on_c, 6, 50, 100
8, 2669280, Note_on_c, 6, 50, 0
8, 2669280, Note_on_c, 6, 55, 100
8, 2669760, Note_on_c, 6, 55, 0
8, 2669760, Note_on_c, 6, 43, 100
8, 2670240, Note_on_c, 6, 43, 0
8, 2670240, Note_on_c, 6, 45, 100
8, 2671200, Note_on_c, 6, 45, 0
8, 2671200, Note_on_c, 6, 38, 100
8, 2671680, Note_on_c, 6, 38, 0
8, 2672160, Note_on_c, 6, 55, 100
8, 2673120, Note_on_c, 6, 55, 0
8, 2673120, Note_on_c, 6, 54, 100
8, 2674080, Note_on_c, 6, 54, 0
8, 2674080, Note_on_c, 6, 52, 100
8, 2675040, Note_on_c, 6, 52, 0
8, 2675040, Note_on_c, 6, 50, 100
8, 2675760, Note_on_c, 6, 50, 0
8, 2675760, Note_on_c, 6, 48, 100
8, 2676000, Note_on_c, 6, 48, 0
8, 2676000, Note_on_c, 6, 47, 100
8, 2676960, Note_on_c, 6, 47, 0
8, 2676960, Note_on_c, 6, 48, 100
8, 2677920, Note_on_c, 6, 48, 0
8, 2677920, Note_on_c, 6, 50, 100
8, 2678880, Note_on_c, 6, 50, 0
8, 2678880, Note_on_c, 6, 43, 100
8, 2679360, Note_on_c, 6, 43, 0
8, 2679600, Note_on_c, 6, 59, 100
8, 2679720, Note_on_c, 6, 59, 0
8, 2679720, Note_on_c, 6, 57, 100
8, 2679840, Note_on_c, 6, 57, 0
8, 2679840, Note_on_c, 6, 55, 100
8, 2680080, Note_on_c, 6, 55, 0
8, 2680080, Note_on_c, 6, 54, 100
8, 2680200, Note_on_c, 6, 54, 0
8, 2680200, Note_on_c, 6, 55, 100
8, 2680320, Note_on_c, 6, 55, 0
8, 2680320, Note_on_c, 6, 52, 100
8, 2680560, Note_on_c, 6, 52, 0
8, 2680560, Note_on_c, 6, 50, 100
8, 2680680, Note_on_c, 6, 50, 0
8, 2680680, Note_on_c, 6, 52, 100
8, 2680800, Note_on_c, 6, 52, 0
8, 2680800, Note_on_c, 6, 54, 100
8, 2681520, Note_on_c, 6, 54, 0
8, 2681520, Note_on_c, 6, 59, 100
8, 2681760, Note_on_c, 6, 59, 0
8, 2681760, Note_on_c, 6, 52, 100
8, 2682480, Note_on_c, 6, 52, 0
8, 2682480, Note_on_c, 6, 54, 100
8, 2682600, Note_on_c, 6, 54, 0
8, 2682600, Note_on_c, 6, 55, 100
8, 2682720, Note_on_c, 6, 55, 0
8, 2682720, Note_on_c, 6, 57, 100
8, 2683320, Note_on_c, 6, 57, 0
8, 2683320, Note_on_c, 6, 55, 100
8, 2683440, Note_on_c, 6, 55, 0
8, 2683440, Note_on_c, 6, 54, 100
8, 2683560, Note_on_c, 6, 54, 0
8, 2683560, Note_on_c, 6, 52, 100
8, 2683680, Note_on_c, 6, 52, 0
8, 2683680, Note_on_c, 6, 54, 100
8, 2684160, Note_on_c, 6, 54, 0
8, 2684160, Note_on_c, 6, 50, 100
8, 2684640, Note_on_c, 6, 50, 0
8, 2684640, Note_on_c, 6, 55, 100
8, 2685120, Note_on_c, 6, 55, 0
8, 2685120, Note_on_c, 6, 43, 100
8, 2685600, Note_on_c, 6, 43, 0
8, 2685600, Note_on_c, 6, 45, 100
8, 2686560, Note_on_c, 6, 45, 0
8, 2686560, Note_on_c, 6, 38, 100
8, 2687040, Note_on_c, 6, 38, 0
8, 2687520, Note_on_c, 6, 62, 100
8, 2688000, Note_on_c, 6, 62, 0
8, 2688000, Note_on_c, 6, 60, 100
8, 2688480, Note_on_c, 6, 60, 0
8, 2688480, Note_on_c, 6, 59, 100
8, 2688960, Note_on_c, 6, 59, 0
8, 2688960, Note_on_c, 6, 55, 100
8, 2689440, Note_on_c, 6, 55, 0
8, 2689440, Note_on_c, 6, 60, 100
8, 2689680, Note_on_c, 6, 60, 0
8, 2689680, Note_on_c, 6, 59, 100
8, 2689920, Note_on_c, 6, 59, 0
8, 2689920, Note_on_c, 6, 60, 100
8, 2690160, Note_on_c, 6, 60, 0
8, 2690160, Note_on_c, 6, 57, 100
8, 2690400, Note_on_c, 6, 57, 0
8, 2690400, Note_on_c, 6, 59, 100
8, 2691120, Note_on_c, 6, 59, 0
8, 2691120, Note_on_c, 6, 57, 100
8, 2691360, Note_on_c, 6, 57, 0
8, 2691360, Note_on_c, 6, 55, 100
8, 2691600, Note_on_c, 6, 55, 0
8, 2691600, Note_on_c, 6, 64, 100
8, 2691840, Note_on_c, 6, 64, 0
8, 2691840, Note_on_c, 6, 55, 100
8, 2692080, Note_on_c, 6, 55, 0
8, 2692080, Note_on_c, 6, 64, 100
8, 2692320, Note_on_c, 6, 64, 0
8, 2692320, Note_on_c, 6, 57, 100
8, 2693040, Note_on_c, 6, 57, 0
8, 2693040, Note_on_c, 6, 58, 100
8, 2693280, Note_on_c, 6, 58, 0
8, 2693280, Note_on_c, 6, 59, 100
8, 2693760, Note_on_c, 6, 59, 0
8, 2693760, Note_on_c, 6, 47, 100
8, 2694240, Note_on_c, 6, 47, 0
8, 2694240, Note_on_c, 6, 52, 100
8, 2694960, Note_on_c, 6, 52, 0
8, 2694960, Note_on_c, 6, 50, 100
8, 2695200, Note_on_c, 6, 50, 0
8, 2695200, Note_on_c, 6, 48, 100
8, 2695680, Note_on_c, 6, 48, 0
8, 2695680, Note_on_c, 6, 60, 100
8, 2696160, Note_on_c, 6, 60, 0
8, 2696160, Note_on_c, 6, 59, 100
8, 2696880, Note_on_c, 6, 59, 0
8, 2696880, Note_on_c, 6, 60, 100
8, 2697000, Note_on_c, 6, 60, 0
8, 2697000, Note_on_c, 6, 59, 100
8, 2697120, Note_on_c, 6, 59, 0
8, 2697120, Note_on_c, 6, 57, 100
8, 2697840, Note_on_c, 6, 57, 0
8, 2697840, Note_on_c, 6, 59, 100
8, 2697960, Note_on_c, 6, 59, 0
8, 2697960, Note_on_c, 6, 60, 100
8, 2698080, Note_on_c, 6, 60, 0
8, 2698080, Note_on_c, 6, 62, 100
8, 2698800, Note_on_c, 6, 62, 0
8, 2698800, Note_on_c, 6, 60, 100
8, 2698920, Note_on_c, 6, 60, 0
8, 2698920, Note_on_c, 6, 62, 100
8, 2699040, Note_on_c, 6, 62, 0
8, 2699040, Note_on_c, 6, 55, 100
8, 2699280, Note_on_c, 6, 55, 0
8, 2699280, Note_on_c, 6, 57, 100
8, 2699520, Note_on_c, 6, 57, 0
8, 2699520, Note_on_c, 6, 59, 100
8, 2699760, Note_on_c, 6, 59, 0
8, 2699760, Note_on_c, 6, 55, 100
8, 2700000, Note_on_c, 6, 55, 0
8, 2700000, Note_on_c, 6, 60, 100
8, 2700720, Note_on_c, 6, 60, 0
8, 2700720, Note_on_c, 6, 61, 100
8, 2700960, Note_on_c, 6, 61, 0
8, 2700960, Note_on_c, 6, 62, 100
8, 2701440, Note_on_c, 6, 62, 0
8, 2701440, Note_on_c, 6, 50, 100
8, 2701920, Note_on_c, 6, 50, 0
8, 2701920, Note_on_c, 6, 55, 100
8, 2702400, Note_on_c, 6, 55, 0
8, 2702400, Note_on_c, 6, 43, 100
8, 2702640, Note_on_c, 6, 43, 0
8, 2702880, Note_on_c, 6, 62, 100
8, 2703360, Note_on_c, 6, 62, 0
8, 2703360, Note_on_c, 6, 60, 100
8, 2703840, Note_on_c, 6, 60, 0
8, 2703840, Note_on_c, 6, 59, 100
8, 2704320, Note_on_c, 6, 59, 0
8, 2704320, Note_on_c, 6, 55, 100
8, 2704800, Note_on_c, 6, 55, 0
8, 2704800, Note_on_c, 6, 60, 100
8, 2705040, Note_on_c, 6, 60, 0
8, 2705040, Note_on_c, 6, 59, 100
8, 2705280, Note_on_c, 6, 59, 0
8, 2705280, Note_on_c, 6, 60, 100
8, 2705520, Note_on_c, 6, 60, 0
8, 2705520, Note_on_c, 6, 57, 100
8, 2705760, Note_on_c, 6, 57, 0
8, 2705760, Note_on_c, 6, 59, 100
8, 2706480, Note_on_c, 6, 59, 0
8, 2706480, Note_on_c, 6, 57, 100
8, 2706720, Note_on_c, 6, 57, 0
8, 2706720, Note_on_c, 6, 55, 100
8, 2706960, Note_on_c, 6, 55, 0
8, 2706960, Note_on_c, 6, 64, 100
8, 2707200, Note_on_c, 6, 64, 0
8, 2707200, Note_on_c, 6, 55, 100
8, 2707440, Note_on_c, 6, 55, 0
8, 2707440, Note_on_c, 6, 64, 100
8, 2707680, Note_on_c, 6, 64, 0
8, 2707680, Note_on_c, 6, 57, 100
8, 2708400, Note_on_c, 6, 57, 0
8, 2708400, Note_on_c, 6, 58, 100
8, 2708640, Note_on_c, 6, 58, 0
8, 2708640, Note_on_c, 6, 59, 100
8, 2709120, Note_on_c, 6, 59, 0
8, 2709120, Note_on_c, 6, 47, 100
8, 2709600, Note_on_c, 6, 47, 0
8, 2709600, Note_on_c, 6, 52, 100
8, 2710320, Note_on_c, 6, 52, 0
8, 2710320, Note_on_c, 6, 50, 100
8, 2710560, Note_on_c, 6, 50, 0
8, 2710560, Note_on_c, 6, 48, 100
8, 2711040, Note_on_c, 6, 48, 0
8, 2711040, Note_on_c, 6, 60, 100
8, 2711520, Note_on_c, 6, 60, 0
8, 2711520, Note_on_c, 6, 59, 100
8, 2712240, Note_on_c, 6, 59, 0
8, 2712240, Note_on_c, 6, 60, 100
8, 2712360, Note_on_c, 6, 60, 0
8, 2712360, Note_on_c, 6, 59, 100
8, 2712480, Note_on_c, 6, 59, 0
8, 2712480, Note_on_c, 6, 57, 100
8, 2713200, Note_on_c, 6, 57, 0
8, 2713200, Note_on_c, 6, 59, 100
8, 2713320, Note_on_c, 6, 59, 0
8, 2713320, Note_on_c, 6, 60, 100
8, 2713440, Note_on_c, 6, 60, 0
8, 2713440, Note_on_c, 6, 62, 100
8, 2714160, Note_on_c, 6, 62, 0
8, 2714160, Note_on_c, 6, 60, 100
8, 2714280, Note_on_c, 6, 60, 0
8, 2714280, Note_on_c, 6, 62, 100
8, 2714400, Note_on_c, 6, 62, 0
8, 2714400, Note_on_c, 6, 55, 100
8, 2714640, Note_on_c, 6, 55, 0
8, 2714640, Note_on_c, 6, 57, 100
8, 2714880, Note_on_c, 6, 57, 0
8, 2714880, Note_on_c, 6, 59, 100
8, 2715120, Note_on_c, 6, 59, 0
8, 2715120, Note_on_c, 6, 55, 100
8, 2715360, Note_on_c, 6, 55, 0
8, 2715360, Note_on_c, 6, 60, 100
8, 2716080, Note_on_c, 6, 60, 0
8, 2716080, Note_on_c, 6, 61, 100
8, 2716320, Note_on_c, 6, 61, 0
8, 2716320, Note_on_c, 6, 62, 100
8, 2716800, Note_on_c, 6, 62, 0
8, 2716800, Note_on_c, 6, 50, 100
8, 2717280, Note_on_c, 6, 50, 0
8, 2717280, Note_on_c, 6, 55, 100
8, 2717760, Note_on_c, 6, 55, 0
8, 2717760, Note_on_c, 6, 43, 100
8, 2718000, Note_on_c, 6, 43, 0
8, 2718240, Note_on_c, 6, 55, 100
8, 2719680, Note_on_c, 6, 55, 0
8, 2719680, Note_on_c, 6, 54, 100
8, 2721120, Note_on_c, 6, 54, 0
8, 2721120, Note_on_c, 6, 52, 100
8, 2722560, Note_on_c, 6, 52, 0
8, 2722560, Note_on_c, 6, 50, 100
8, 2723760, Note_on_c, 6, 50, 0
8, 2723760, Note_on_c, 6, 48, 100
8, 2724000, Note_on_c, 6, 48, 0
8, 2724000, Note_on_c, 6, 47, 100
8, 2725440, Note_on_c, 6, 47, 0
8, 2725440, Note_on_c, 6, 48, 100
8, 2726640, Note_on_c, 6, 48, 0
8, 2726640, Note_on_c, 6, 50, 100
8, 2726880, Note_on_c, 6, 50, 0
8, 2726880, Note_on_c, 6, 52, 100
8, 2727120, Note_on_c, 6, 52, 0
8, 2727120, Note_on_c, 6, 48, 100
8, 2727360, Note_on_c, 6, 48, 0
8, 2727360, Note_on_c, 6, 50, 100
8, 2728320, Note_on_c, 6, 50, 0
8, 2728320, Note_on_c, 6, 43, 100
8, 2729040, Note_on_c, 6, 43, 0
8, 2729040, Note_on_c, 6, 50, 100
8, 2729280, Note_on_c, 6, 50, 0
8, 2729280, Note_on_c, 6, 52, 100
8, 2729310, Note_on_c, 6, 52, 0
8, 2729310, Note_on_c, 6, 50, 100
8, 2729340, Note_on_c, 6, 50, 0
8, 2729340, Note_on_c, 6, 52, 100
8, 2729640, Note_on_c, 6, 52, 0
8, 2729640, Note_on_c, 6, 54, 100
8, 2729760, Note_on_c, 6, 54, 0
8, 2729760, Note_on_c, 6, 55, 100
8, 2731680, Note_on_c, 6, 55, 0
8, 2731680, Note_on_c, 6, 55, 100
8, 2731720, Note_on_c, 6, 55, 0
8, 2731720, Note_on_c, 6, 54, 100
8, 2731760, Note_on_c, 6, 54, 0
8, 2731760, Note_on_c, 6, 55, 100
8, 2731800, Note_on_c, 6, 55, 0
8, 2731800, Note_on_c, 6, 54, 100
8, 2731920, Note_on_c, 6, 54, 0
8, 2731920, Note_on_c, 6, 52, 100
8, 2732160, Note_on_c, 6, 52, 0
8, 2732160, Note_on_c, 6, 54, 100
8, 2732400, Note_on_c, 6, 54, 0
8, 2732400, Note_on_c, 6, 59, 100
8, 2732640, Note_on_c, 6, 59, 0
8, 2732640, Note_on_c, 6, 52, 100
8, 2733360, Note_on_c, 6, 52, 0
8, 2733360, Note_on_c, 6, 52, 100
8, 2733600, Note_on_c, 6, 52, 0
8, 2733600, Note_on_c, 6, 54, 100
8, 2733840, Note_on_c, 6, 54, 0
8, 2733840, Note_on_c, 6, 55, 100
8, 2734080, Note_on_c, 6, 55, 0
8, 2734080, Note_on_c, 6, 57, 100
8, 2734800, Note_on_c, 6, 57, 0
8, 2734800, Note_on_c, 6, 59, 100
8, 2735040, Note_on_c, 6, 59, 0
8, 2735040, Note_on_c, 6, 57, 100
8, 2735280, Note_on_c, 6, 57, 0
8, 2735280, Note_on_c, 6, 55, 100
8, 2735520, Note_on_c, 6, 55, 0
8, 2735520, Note_on_c, 6, 54, 100
8, 2736960, Note_on_c, 6, 54, 0
8, 2736960, Note_on_c, 6, 55, 100
8, 2738400, Note_on_c, 6, 55, 0
8, 2738400, Note_on_c, 6, 57, 100
8, 2739840, Note_on_c, 6, 57, 0
8, 2739840, Note_on_c, 6, 50, 100
8, 2741280, Note_on_c, 6, 50, 0
8, 2741280, Note_on_c, 6, 55, 100
8, 2742720, Note_on_c, 6, 55, 0
8, 2742720, Note_on_c, 6, 54, 100
8, 2744160, Note_on_c, 6, 54, 0
8, 2744160, Note_on_c, 6, 52, 100
8, 2745600, Note_on_c, 6, 52, 0
8, 2745600, Note_on_c, 6, 50, 100
8, 2746800, Note_on_c, 6, 50, 0
8, 2746800, Note_on_c, 6, 48, 100
8, 2747040, Note_on_c, 6, 48, 0
8, 2747040, Note_on_c, 6, 47, 100
8, 2748480, Note_on_c, 6, 47, 0
8, 2748480, Note_on_c, 6, 48, 100
8, 2749680, Note_on_c, 6, 48, 0
8, 2749680, Note_on_c, 6, 50, 100
8, 2749920, Note_on_c, 6, 50, 0
8, 2749920, Note_on_c, 6, 52, 100
8, 2750160, Note_on_c, 6, 52, 0
8, 2750160, Note_on_c, 6, 48, 100
8, 2750400, Note_on_c, 6, 48, 0
8, 2750400, Note_on_c, 6, 50, 100
8, 2751360, Note_on_c, 6, 50, 0
8, 2751360, Note_on_c, 6, 43, 100
8, 2752080, Note_on_c, 6, 43, 0
8, 2752080, Note_on_c, 6, 50, 100
8, 2752320, Note_on_c, 6, 50, 0
8, 2752320, Note_on_c, 6, 52, 100
8, 2752350, Note_on_c, 6, 52, 0
8, 2752350, Note_on_c, 6, 50, 100
8, 2752380, Note_on_c, 6, 50, 0
8, 2752380, Note_on_c, 6, 52, 100
8, 2752680, Note_on_c, 6, 52, 0
8, 2752680, Note_on_c, 6, 54, 100
8, 2752800, Note_on_c, 6, 54, 0
8, 2752800, Note_on_c, 6, 55, 100
8, 2754720, Note_on_c, 6, 55, 0
8, 2754720, Note_on_c, 6, 55, 100
8, 2754760, Note_on_c, 6, 55, 0
8, 2754760, Note_on_c, 6, 54, 100
8, 2754800, Note_on_c, 6, 54, 0
8, 2754800, Note_on_c, 6, 55, 100
8, 2754840, Note_on_c, 6, 55, 0
8, 2754840, Note_on_c, 6, 54, 100
8, 2754960, Note_on_c, 6, 54, 0
8, 2754960, Note_on_c, 6, 52, 100
8, 2755200, Note_on_c, 6, 52, 0
8, 2755200, Note_on_c, 6, 54, 100
8, 2755440, Note_on_c, 6, 54, 0
8, 2755440, Note_on_c, 6, 59, 100
8, 2755680, Note_on_c, 6, 59, 0
8, 2755680, Note_on_c, 6, 52, 100
8, 2756400, Note_on_c, 6, 52, 0
8, 2756400, Note_on_c, 6, 52, 100
8, 2756640, Note_on_c, 6, 52, 0
8, 2756640, Note_on_c, 6, 54, 100
8, 2756880, Note_on_c, 6, 54, 0
8, 2756880, Note_on_c, 6, 55, 100
8, 2757120, Note_on_c, 6, 55, 0
8, 2757120, Note_on_c, 6, 57, 100
8, 2757840, Note_on_c, 6, 57, 0
8, 2757840, Note_on_c, 6, 59, 100
8, 2758080, Note_on_c, 6, 59, 0
8, 2758080, Note_on_c, 6, 57, 100
8, 2758320, Note_on_c, 6, 57, 0
8, 2758320, Note_on_c, 6, 55, 100
8, 2758560, Note_on_c, 6, 55, 0
8, 2758560, Note_on_c, 6, 54, 100
8, 2760000, Note_on_c, 6, 54, 0
8, 2760000, Note_on_c, 6, 55, 100
8, 2761440, Note_on_c, 6, 55, 0
8, 2761440, Note_on_c, 6, 57, 100
8, 2762880, Note_on_c, 6, 57, 0
8, 2762880, Note_on_c, 6, 50, 100
8, 2764320, Note_on_c, 6, 50, 0
8, 2772960, Note_on_c, 6, 66, 100
8, 2773680, Note_on_c, 6, 66, 0
8, 2773680, Note_on_c, 6, 72, 100
8, 2773920, Note_on_c, 6, 72, 0
8, 2773920, Note_on_c, 6, 71, 100
8, 2774160, Note_on_c, 6, 71, 0
8, 2774160, Note_on_c, 6, 69, 100
8, 2774880, Note_on_c, 6, 69, 0
8, 2774880, Note_on_c, 6, 67, 100
8, 2775840, Note_on_c, 6, 67, 0
8, 2776800, Note_on_c, 6, 57, 100
8, 2777520, Note_on_c, 6, 57, 0
8, 2777520, Note_on_c, 6, 54, 100
8, 2777760, Note_on_c, 6, 54, 0
8, 2777760, Note_on_c, 6, 52, 100
8, 2777880, Note_on_c, 6, 52, 0
8, 2777880, Note_on_c, 6, 50, 100
8, 2778000, Note_on_c, 6, 50, 0
8, 2778000, Note_on_c, 6, 52, 100
8, 2778120, Note_on_c, 6, 52, 0
8, 2778120, Note_on_c, 6, 54, 100
8, 2778240, Note_on_c, 6, 54, 0
8, 2778240, Note_on_c, 6, 55, 100
8, 2778360, Note_on_c, 6, 55, 0
8, 2778360, Note_on_c, 6, 54, 100
8, 2778480, Note_on_c, 6, 54, 0
8, 2778480, Note_on_c, 6, 55, 100
8, 2778960, Note_on_c, 6, 55, 0
8, 2778960, Note_on_c, 6, 52, 100
8, 2779200, Note_on_c, 6, 52, 0
8, 2779200, Note_on_c, 6, 57, 100
8, 2779440, Note_on_c, 6, 57, 0
8, 2779440, Note_on_c, 6, 64, 100
8, 2779800, Note_on_c, 6, 64, 0
8, 2779800, Note_on_c, 6, 71, 100
8, 2779920, Note_on_c, 6, 71, 0
8, 2779920, Note_on_c, 6, 69, 100
8, 2780040, Note_on_c, 6, 69, 0
8, 2780040, Note_on_c, 6, 67, 100
8, 2780160, Note_on_c, 6, 67, 0
8, 2780160, Note_on_c, 6, 66, 100
8, 2780640, Note_on_c, 6, 66, 0
8, 2780880, Note_on_c, 6, 66, 100
8, 2781600, Note_on_c, 6, 66, 0
8, 2781600, Note_on_c, 6, 67, 100
8, 2781840, Note_on_c, 6, 67, 0
8, 2782320, Note_on_c, 6, 62, 100
8, 2782680, Note_on_c, 6, 62, 0
8, 2782680, Note_on_c, 6, 67, 100
8, 2783520, Note_on_c, 6, 67, 0
8, 2783760, Note_on_c, 6, 67, 100
8, 2784120, Note_on_c, 6, 67, 0
8, 2784120, Note_on_c, 6, 72, 100
8, 2784480, Note_on_c, 6, 72, 0
8, 2786040, Note_on_c, 6, 60, 100
8, 2786160, Note_on_c, 6, 60, 0
8, 2786160, Note_on_c, 6, 59, 100
8, 2786280, Note_on_c, 6, 59, 0
8, 2786280, Note_on_c, 6, 57, 100
8, 2786400, Note_on_c, 6, 57, 0
8, 2786400, Note_on_c, 6, 59, 100
8, 2787360, Note_on_c, 6, 59, 0
8, 2796000, Note_on_c, 6, 66, 100
8, 2796720, Note_on_c, 6, 66, 0
8, 2796720, Note_on_c, 6, 72, 100
8, 2796960, Note_on_c, 6, 72, 0
8, 2796960, Note_on_c, 6, 71, 100
8, 2797200, Note_on_c, 6, 71, 0
8, 2797200, Note_on_c, 6, 69, 100
8, 2797920, Note_on_c, 6, 69, 0
8, 2797920, Note_on_c, 6, 67, 100
8, 2798880, Note_on_c, 6, 67, 0
8, 2799840, Note_on_c, 6, 57, 100
8, 2800560, Note_on_c, 6, 57, 0
8, 2800560, Note_on_c, 6, 54, 100
8, 2800800, Note_on_c, 6, 54, 0
8, 2800800, Note_on_c, 6, 52, 100
8, 2800920, Note_on_c, 6, 52, 0
8, 2800920, Note_on_c, 6, 50, 100
8, 2801040, Note_on_c, 6, 50, 0
8, 2801040, Note_on_c, 6, 52, 100
8, 2801160, Note_on_c, 6, 52, 0
8, 2801160, Note_on_c, 6, 54, 100
8, 2801280, Note_on_c, 6, 54, 0
8, 2801280, Note_on_c, 6, 55, 100
8, 2801400, Note_on_c, 6, 55, 0
8, 2801400, Note_on_c, 6, 54, 100
8, 2801520, Note_on_c, 6, 54, 0
8, 2801520, Note_on_c, 6, 55, 100
8, 2802000, Note_on_c, 6, 55, 0
8, 2802000, Note_on_c, 6, 52, 100
8, 2802240, Note_on_c, 6, 52, 0
8, 2802240, Note_on_c, 6, 57, 100
8, 2802480, Note_on_c, 6, 57, 0
8, 2802480, Note_on_c, 6, 64, 100
8, 2802840, Note_on_c, 6, 64, 0
8, 2802840, Note_on_c, 6, 71, 100
8, 2802960, Note_on_c, 6, 71, 0
8, 2802960, Note_on_c, 6, 69, 100
8, 2803080, Note_on_c, 6, 69, 0
8, 2803080, Note_on_c, 6, 67, 100
8, 2803200, Note_on_c, 6, 67, 0
8, 2803200, Note_on_c, 6, 66, 100
8, 2803680, Note_on_c, 6, 66, 0
8, 2803920, Note_on_c, 6, 66, 100
8, 2804640, Note_on_c, 6, 66, 0
8, 2804640, Note_on_c, 6, 67, 100
8, 2804880, Note_on_c, 6, 67, 0
8, 2805360, Note_on_c, 6, 62, 100
8, 2805720, Note_on_c, 6, 62, 0
8, 2805720, Note_on_c, 6, 67, 100
8, 2806560, Note_on_c, 6, 67, 0
8, 2806800, Note_on_c, 6, 67, 100
8, 2807160, Note_on_c, 6, 67, 0
8, 2807160, Note_on_c, 6, 72, 100
8, 2807520, Note_on_c, 6, 72, 0
8, 2809080, Note_on_c, 6, 60, 100
8, 2809200, Note_on_c, 6, 60, 0
8, 2809200, Note_on_c, 6, 59, 100
8, 2809320, Note_on_c, 6, 59, 0
8, 2809320, Note_on_c, 6, 57, 100
8, 2809440, Note_on_c, 6, 57, 0
8, 2809440, Note_on_c, 6, 59, 100
8, 2810400, Note_on_c, 6, 59, 0
8, 2852160, Note_on_c, 6, 55, 100
8, 2852640, Note_on_c, 6, 55, 0
8, 2852640, Note_on_c, 6, 54, 100
8, 2853120, Note_on_c, 6, 54, 0
8, 2853120, Note_on_c, 6, 52, 100
8, 2853600, Note_on_c, 6, 52, 0
8, 2853600, Note_on_c, 6, 50, 100
8, 2854080, Note_on_c, 6, 50, 0
8, 2854080, Note_on_c, 6, 47, 100
8, 2854560, Note_on_c, 6, 47, 0
8, 2854560, Note_on_c, 6, 48, 100
8, 2855040, Note_on_c, 6, 48, 0
8, 2855040, Note_on_c, 6, 50, 100
8, 2855520, Note_on_c, 6, 50, 0
8, 2855520, Note_on_c, 6, 43, 100
8, 2856000, Note_on_c, 6, 43, 0
8, 2856000, Note_on_c, 6, 55, 100
8, 2856480, Note_on_c, 6, 55, 0
8, 2856480, Note_on_c, 6, 54, 100
8, 2856960, Note_on_c, 6, 54, 0
8, 2856960, Note_on_c, 6, 52, 100
8, 2857440, Note_on_c, 6, 52, 0
8, 2857440, Note_on_c, 6, 50, 100
8, 2857920, Note_on_c, 6, 50, 0
8, 2857920, Note_on_c, 6, 47, 100
8, 2858400, Note_on_c, 6, 47, 0
8, 2858400, Note_on_c, 6, 48, 100
8, 2858880, Note_on_c, 6, 48, 0
8, 2858880, Note_on_c, 6, 50, 100
8, 2859360, Note_on_c, 6, 50, 0
8, 2859360, Note_on_c, 6, 43, 100
8, 2859840, Note_on_c, 6, 43, 0
8, 2859840, Note_on_c, 6, 55, 100
8, 2860320, Note_on_c, 6, 55, 0
8, 2860320, Note_on_c, 6, 54, 100
8, 2860800, Note_on_c, 6, 54, 0
8, 2860800, Note_on_c, 6, 52, 100
8, 2861280, Note_on_c, 6, 52, 0
8, 2861280, Note_on_c, 6, 50, 100
8, 2861760, Note_on_c, 6, 50, 0
8, 2861760, Note_on_c, 6, 47, 100
8, 2862240, Note_on_c, 6, 47, 0
8, 2862240, Note_on_c, 6, 48, 100
8, 2862720, Note_on_c, 6, 48, 0
8, 2862720, Note_on_c, 6, 50, 100
8, 2863200, Note_on_c, 6, 50, 0
8, 2863200, Note_on_c, 6, 43, 100
8, 2864160, Note_on_c, 6, 43, 0
8, 2916480, Note_on_c, 6, 50, 100
8, 2916960, Note_on_c, 6, 50, 0
8, 2916960, Note_on_c, 6, 52, 100
8, 2917440, Note_on_c, 6, 52, 0
8, 2917440, Note_on_c, 6, 54, 100
8, 2917920, Note_on_c, 6, 54, 0
8, 2917920, Note_on_c, 6, 55, 100
8, 2918400, Note_on_c, 6, 55, 0
8, 2918400, Note_on_c, 6, 59, 100
8, 2918880, Note_on_c, 6, 59, 0
8, 2918880, Note_on_c, 6, 57, 100
8, 2919360, Note_on_c, 6, 57, 0
8, 2919360, Note_on_c, 6, 55, 100
8, 2919840, Note_on_c, 6, 55, 0
8, 2919840, Note_on_c, 6, 62, 100
8, 2920320, Note_on_c, 6, 62, 0
8, 2920320, Note_on_c, 6, 50, 100
8, 2920800, Note_on_c, 6, 50, 0
8, 2920800, Note_on_c, 6, 52, 100
8, 2921280, Note_on_c, 6, 52, 0
8, 2921280, Note_on_c, 6, 54, 100
8, 2921760, Note_on_c, 6, 54, 0
8, 2921760, Note_on_c, 6, 55, 100
8, 2922240, Note_on_c, 6, 55, 0
8, 2922240, Note_on_c, 6, 59, 100
8, 2922720, Note_on_c, 6, 59, 0
8, 2922720, Note_on_c, 6, 57, 100
8, 2923200, Note_on_c, 6, 57, 0
8, 2923200, Note_on_c, 6, 55, 100
8, 2923680, Note_on_c, 6, 55, 0
8, 2923680, Note_on_c, 6, 62, 100
8, 2924160, Note_on_c, 6, 62, 0
8, 2924160, Note_on_c, 6, 50, 100
8, 2924640, Note_on_c, 6, 50, 0
8, 2924640, Note_on_c, 6, 52, 100
8, 2925120, Note_on_c, 6, 52, 0
8, 2925120, Note_on_c, 6, 54, 100
8, 2925600, Note_on_c, 6, 54, 0
8, 2925600, Note_on_c, 6, 55, 100
8, 2926560, Note_on_c, 6, 55, 0
8, 2960640, Note_on_c, 6, 55, 100
8, 2961120, Note_on_c, 6, 55, 0
8, 2961120, Note_on_c, 6, 54, 100
8, 2961600, Note_on_c, 6, 54, 0
8, 2961600, Note_on_c, 6, 52, 100
8, 2962080, Note_on_c, 6, 52, 0
8, 2962080, Note_on_c, 6, 50, 100
8, 2962560, Note_on_c, 6, 50, 0
8, 2962560, Note_on_c, 6, 47, 100
8, 2963040, Note_on_c, 6, 47, 0
8, 2963040, Note_on_c, 6, 48, 100
8, 2963520, Note_on_c, 6, 48, 0
8, 2963520, Note_on_c, 6, 50, 100
8, 2964000, Note_on_c, 6, 50, 0
8, 2964000, Note_on_c, 6, 43, 100
8, 2964480, Note_on_c, 6, 43, 0
8, 2964480, Note_on_c, 6, 55, 100
8, 2964960, Note_on_c, 6, 55, 0
8, 2964960, Note_on_c, 6, 54, 100
8, 2965440, Note_on_c, 6, 54, 0
8, 2965440, Note_on_c, 6, 52, 100
8, 2965920, Note_on_c, 6, 52, 0
8, 2965920, Note_on_c, 6, 50, 100
8, 2966400, Note_on_c, 6, 50, 0
8, 2966400, Note_on_c, 6, 47, 100
8, 2966880, Note_on_c, 6, 47, 0
8, 2966880, Note_on_c, 6, 48, 100
8, 2967360, Note_on_c, 6, 48, 0
8, 2967360, Note_on_c, 6, 50, 100
8, 2967840, Note_on_c, 6, 50, 0
8, 2967840, Note_on_c, 6, 43, 100
8, 2968320, Note_on_c, 6, 43, 0
8, 2968320, Note_on_c, 6, 55, 100
8, 2968800, Note_on_c, 6, 55, 0
8, 2968800, Note_on_c, 6, 54, 100
8, 2969280, Note_on_c, 6, 54, 0
8, 2969280, Note_on_c, 6, 52, 100
8, 2969760, Note_on_c, 6, 52, 0
8, 2969760, Note_on_c, 6, 50, 100
8, 2970240, Note_on_c, 6, 50, 0
8, 2970240, Note_on_c, 6, 47, 100
8, 2970720, Note_on_c, 6, 47, 0
8, 2970720, Note_on_c, 6, 48, 100
8, 2971200, Note_on_c, 6, 48, 0
8, 2971200, Note_on_c, 6, 50, 100
8, 2971680, Note_on_c, 6, 50, 0
8, 2971680, Note_on_c, 6, 43, 100
8, 2973600, Note_on_c, 6, 43, 0
8, 2974560, Note_on_c, 6, 55, 100
8, 2975520, Note_on_c, 6, 55, 0
8, 2975520, Note_on_c, 6, 54, 100
8, 2976480, Note_on_c, 6, 54, 0
8, 2976480, Note_on_c, 6, 52, 100
8, 2977440, Note_on_c, 6, 52, 0
8, 2977440, Note_on_c, 6, 50, 100
8, 2978400, Note_on_c, 6, 50, 0
8, 2978400, Note_on_c, 6, 47, 100
8, 2979360, Note_on_c, 6, 47, 0
8, 2979360, Note_on_c, 6, 48, 100
8, 2980320, Note_on_c, 6, 48, 0
8, 2980320, Note_on_c, 6, 50, 100
8, 2981280, Note_on_c, 6, 50, 0
8, 2981280, Note_on_c, 6, 43, 100
8, 2982240, Note_on_c, 6, 43, 0
8, 2982240, Note_on_c, 6, 55, 100
8, 2983200, Note_on_c, 6, 55, 0
8, 2983200, Note_on_c, 6, 54, 100
8, 2984160, Note_on_c, 6, 54, 0
8, 2984160, Note_on_c, 6, 52, 100
8, 2985120, Note_on_c, 6, 52, 0
8, 2985120, Note_on_c, 6, 50, 100
8, 2986080, Note_on_c, 6, 50, 0
8, 2986080, Note_on_c, 6, 47, 100
8, 2987040, Note_on_c, 6, 47, 0
8, 2987040, Note_on_c, 6, 48, 100
8, 2988000, Note_on_c, 6, 48, 0
8, 2988000, Note_on_c, 6, 50, 100
8, 2988960, Note_on_c, 6, 50, 0
8, 2988960, Note_on_c, 6, 43, 100
8, 2989920, Note_on_c, 6, 43, 0
8, 2989920, Note_on_c, 6, 55, 100
8, 2990880, Note_on_c, 6, 55, 0
8, 2990880, Note_on_c, 6, 54, 100
8, 2991840, Note_on_c, 6, 54, 0
8, 2991840, Note_on_c, 6, 52, 100
8, 2992800, Note_on_c, 6, 52, 0
8, 2992800, Note_on_c, 6, 50, 100
8, 2993760, Note_on_c, 6, 50, 0
8, 2993760, Note_on_c, 6, 47, 100
8, 2994720, Note_on_c, 6, 47, 0
8, 2994720, Note_on_c, 6, 48, 100
8, 2995680, Note_on_c, 6, 48, 0
8, 2995680, Note_on_c, 6, 50, 100
8, 2996640, Note_on_c, 6, 50, 0
8, 2996640, Note_on_c, 6, 43, 100
8, 2998560, Note_on_c, 6, 43, 0
8, 2998560, End_track
9, 0, Start_track
9, 0, MIDI_port, 0
9, 0, Title_t, "--------------------------------------"
9, 0, End_track
10, 0, Start_track
10, 0, MIDI_port, 0
10, 0, Title_t, "Sequenced with Cakewalk Pro Audio by"
10, 0, End_track
11, 0, Start_track
11, 0, MIDI_port, 0
11, 0, Title_t, "David J. Grossman - dave@unpronounceable.com"
11, 0, End_track
12, 0, Start_track
12, 0, MIDI_port, 0
12, 0, Title_t, "This and other Bach MIDI files can be found at:"
12, 0, End_track
13, 0, Start_track
13, 0, MIDI_port, 0
13, 0, Title_t, "Dave's J.S. Bach Page"
13, 0, End_track
14, 0, Start_track
14, 0, MIDI_port, 0
14, 0, Title_t, "http://www.unpronounceable.com/bach"
14, 0, End_track
15, 0, Start_track
15, 0, MIDI_port, 0
15, 0, Title_t, "--------------------------------------"
15, 0, End_track
16, 0, Start_track
16, 0, MIDI_port, 0
16, 0, Title_t, "Original Filename: bwv988.mid"
16, 0, End_track
17, 0, Start_track
17, 0, MIDI_port, 0
17, 0, Title_t, "Last Modified: October 4, 1997"
17, 0, End_track
0, 0, End_of_file
