0, 0, Header, 1, 3, 256
1, 0, Start_track
1, 0, Time_signature, 4, 2, 24, 8
1, 0, Key_signature, 1, "major"
1, 0, Tempo, 500000
1, 1, End_track
2, 0, Start_track
2, 1, End_track
3, 0, Start_track
3, 0, Program_c, 0, 0
3, 0, Control_c, 0, 121, 0
3, 0, Control_c, 0, 64, 0
3, 0, Control_c, 0, 91, 48
3, 0, Control_c, 0, 10, 51
3, 0, Control_c, 0, 7, 100
3, 0, Control_c, 0, 121, 0
3, 0, Control_c, 0, 64, 0
3, 0, Control_c, 0, 91, 48
3, 0, Control_c, 0, 10, 51
3, 0, Control_c, 0, 7, 100
3, 0, Title_t, "Piano"
3, 0, Note_on_c, 0, 55, 100
3, 256, Note_off_c, 0, 62, 0
3, 256, Note_off_c, 0, 67, 0
3, 256, Note_off_c, 0, 71, 0
3, 256, Note_off_c, 0, 74, 0
3, 256, Note_off_c, 0, 55, 0
3, 384, Note_on_c, 0, 62, 100
3, 384, Note_on_c, 0, 50, 100
3, 512, Note_off_c, 0, 62, 0
3, 512, Note_on_c, 0, 67, 100
3, 512, Note_off_c, 0, 50, 0
3, 512, Note_on_c, 0, 55, 100
3, 768, Note_off_c, 0, 67, 0
3, 768, Note_off_c, 0, 55, 0
3, 896, Note_on_c, 0, 62, 100
3, 896, Note_on_c, 0, 50, 100
3, 1024, Note_off_c, 0, 62, 0
3, 1024, Note_on_c, 0, 67, 100
3, 1024, Note_off_c, 0, 50, 0
3, 1024, Note_on_c, 0, 55, 100
3, 1152, Note_off_c, 0, 67, 0
3, 1152, Note_on_c, 0, 62, 100
3, 1152, Note_off_c, 0, 55, 0
3, 1152, Note_on_c, 0, 50, 100
3, 1280, Note_off_c, 0, 62, 0
3, 1280, Note_on_c, 0, 67, 100
3, 1280, Note_off_c, 0, 50, 0
3, 1280, Note_on_c, 0, 55, 100
3, 1408, Note_off_c, 0, 67, 0
3, 1408, Note_on_c, 0, 71, 100
3, 1408, Note_off_c, 0, 55, 0
3, 1408, Note_on_c, 0, 59, 100
3, 1536, Note_off_c, 0, 71, 0
3, 1536, Note_on_c, 0, 74, 100
3, 1536, Note_off_c, 0, 59, 0
3, 1536, Note_on_c, 0, 62, 100
3, 1792, Note_off_c, 0, 74, 0
3, 1792, Note_off_c, 0, 62, 0
3, 2048, Note_on_c, 0, 72, 100
3, 2048, Note_on_c, 0, 60, 100
3, 2304, Note_off_c, 0, 72, 0
3, 2304, Note_off_c, 0, 60, 0
3, 2432, Note_on_c, 0, 69, 100
3, 2432, Note_on_c, 0, 57, 100
3, 2560, Note_off_c, 0, 69, 0
3, 2560, Note_on_c, 0, 72, 100
3, 2560, Note_off_c, 0, 57, 0
3, 2560, Note_on_c, 0, 60, 100
3, 2816, Note_off_c, 0, 72, 0
3, 2816, Note_off_c, 0, 60, 0
3, 2944, Note_on_c, 0, 69, 100
3, 2944, Note_on_c, 0, 57, 100
3, 3072, Note_off_c, 0, 69, 0
3, 3072, Note_on_c, 0, 72, 100
3, 3072, Note_off_c, 0, 57, 0
3, 3072, Note_on_c, 0, 60, 100
3, 3200, Note_off_c, 0, 72, 0
3, 3200, Note_on_c, 0, 69, 100
3, 3200, Note_off_c, 0, 60, 0
3, 3200, Note_on_c, 0, 57, 100
3, 3328, Note_off_c, 0, 69, 0
3, 3328, Note_on_c, 0, 66, 100
3, 3328, Note_off_c, 0, 57, 0
3, 3328, Note_on_c, 0, 54, 100
3, 3456, Note_off_c, 0, 66, 0
3, 3456, Note_on_c, 0, 69, 100
3, 3456, Note_off_c, 0, 54, 0
3, 3456, Note_on_c, 0, 57, 100
3, 3584, Note_off_c, 0, 69, 0
3, 3584, Note_on_c, 0, 62, 100
3, 3584, Note_off_c, 0, 57, 0
3, 3584, Note_on_c, 0, 50, 100
3, 3840, Note_off_c, 0, 62, 0
3, 3840, Note_off_c, 0, 50, 0
3, 4096, Note_on_c, 0, 59, 100
3, 4096, Note_on_c, 0, 67, 100
3, 4096, Note_on_c, 0, 55, 100
3, 4160, Note_off_c, 0, 59, 0
3, 4160, Note_off_c, 0, 67, 0
3, 4160, Note_on_c, 0, 62, 100
3, 4224, Note_off_c, 0, 62, 0
3, 4224, Note_on_c, 0, 59, 100
3, 4224, Note_off_c, 0, 55, 0
3, 4224, Note_on_c, 0, 55, 100
3, 4288, Note_off_c, 0, 59, 0
3, 4288, Note_on_c, 0, 62, 100
3, 4352, Note_off_c, 0, 62, 0
3, 4352, Note_on_c, 0, 67, 100
3, 4352, Note_off_c, 0, 55, 0
3, 4352, Note_on_c, 0, 55, 100
3, 4416, Note_off_c, 0, 67, 0
3, 4416, Note_on_c, 0, 62, 100
3, 4480, Note_off_c, 0, 62, 0
3, 4480, Note_on_c, 0, 59, 100
3, 4480, Note_off_c, 0, 55, 0
3, 4480, Note_on_c, 0, 55, 100
3, 4544, Note_off_c, 0, 59, 0
3, 4544, Note_on_c, 0, 62, 100
3, 4608, Note_off_c, 0, 62, 0
3, 4608, Note_on_c, 0, 67, 100
3, 4608, Note_off_c, 0, 55, 0
3, 4608, Note_on_c, 0, 55, 100
3, 4672, Note_off_c, 0, 67, 0
3, 4672, Note_on_c, 0, 62, 100
3, 4736, Note_off_c, 0, 62, 0
3, 4736, Note_on_c, 0, 59, 100
3, 4736, Note_off_c, 0, 55, 0
3, 4736, Note_on_c, 0, 55, 100
3, 4800, Note_off_c, 0, 59, 0
3, 4800, Note_on_c, 0, 62, 100
3, 4864, Note_off_c, 0, 62, 0
3, 4864, Note_on_c, 0, 67, 100
3, 4864, Note_off_c, 0, 55, 0
3, 4864, Note_on_c, 0, 55, 100
3, 4928, Note_off_c, 0, 67, 0
3, 4928, Note_on_c, 0, 62, 100
3, 4992, Note_off_c, 0, 62, 0
3, 4992, Note_on_c, 0, 59, 100
3, 4992, Note_off_c, 0, 55, 0
3, 4992, Note_on_c, 0, 55, 100
3, 5056, Note_off_c, 0, 59, 0
3, 5056, Note_on_c, 0, 62, 100
3, 5120, Note_off_c, 0, 62, 0
3, 5120, Note_on_c, 0, 69, 100
3, 5120, Note_off_c, 0, 55, 0
3, 5120, Note_on_c, 0, 55, 100
3, 5184, Note_off_c, 0, 69, 0
3, 5184, Note_on_c, 0, 62, 100
3, 5248, Note_off_c, 0, 62, 0
3, 5248, Note_on_c, 0, 60, 100
3, 5248, Note_off_c, 0, 55, 0
3, 5248, Note_on_c, 0, 55, 100
3, 5312, Note_off_c, 0, 60, 0
3, 5312, Note_on_c, 0, 62, 100
3, 5376, Note_off_c, 0, 62, 0
3, 5376, Note_on_c, 0, 69, 100
3, 5376, Note_off_c, 0, 55, 0
3, 5376, Note_on_c, 0, 55, 100
3, 5440, Note_off_c, 0, 69, 0
3, 5440, Note_on_c, 0, 62, 100
3, 5504, Note_off_c, 0, 62, 0
3, 5504, Note_on_c, 0, 60, 100
3, 5504, Note_off_c, 0, 55, 0
3, 5504, Note_on_c, 0, 55, 100
3, 5568, Note_off_c, 0, 60, 0
3, 5568, Note_on_c, 0, 62, 100
3, 5632, Note_off_c, 0, 62, 0
3, 5632, Note_on_c, 0, 69, 100
3, 5632, Note_off_c, 0, 55, 0
3, 5632, Note_on_c, 0, 55, 100
3, 5696, Note_off_c, 0, 69, 0
3, 5696, Note_on_c, 0, 62, 100
3, 5760, Note_off_c, 0, 62, 0
3, 5760, Note_on_c, 0, 72, 100
3, 5760, Note_off_c, 0, 55, 0
3, 5760, Note_on_c, 0, 55, 100
3, 5824, Note_off_c, 0, 72, 0
3, 5824, Note_on_c, 0, 62, 100
3, 5888, Note_off_c, 0, 62, 0
3, 5888, Note_on_c, 0, 66, 100
3, 5888, Note_off_c, 0, 55, 0
3, 5888, Note_on_c, 0, 55, 100
3, 5952, Note_off_c, 0, 66, 0
3, 5952, Note_on_c, 0, 62, 100
3, 6016, Note_off_c, 0, 62, 0
3, 6016, Note_on_c, 0, 69, 100
3, 6016, Note_off_c, 0, 55, 0
3, 6016, Note_on_c, 0, 55, 100
3, 6080, Note_off_c, 0, 69, 0
3, 6080, Note_on_c, 0, 62, 100
3, 6144, Note_off_c, 0, 62, 0
3, 6144, Note_on_c, 0, 67, 100
3, 6144, Note_off_c, 0, 55, 0
3, 6144, Note_on_c, 0, 55, 100
3, 6208, Note_off_c, 0, 67, 0
3, 6208, Note_on_c, 0, 62, 100
3, 6272, Note_off_c, 0, 62, 0
3, 6272, Note_on_c, 0, 59, 100
3, 6272, Note_off_c, 0, 55, 0
3, 6272, Note_on_c, 0, 55, 100
3, 6336, Note_off_c, 0, 59, 0
3, 6336, Note_on_c, 0, 62, 100
3, 6400, Note_off_c, 0, 62, 0
3, 6400, Note_on_c, 0, 67, 100
3, 6400, Note_off_c, 0, 55, 0
3, 6400, Note_on_c, 0, 55, 100
3, 6464, Note_off_c, 0, 67, 0
3, 6464, Note_on_c, 0, 62, 100
3, 6528, Note_off_c, 0, 62, 0
3, 6528, Note_on_c, 0, 59, 100
3, 6528, Note_off_c, 0, 55, 0
3, 6528, Note_on_c, 0, 55, 100
3, 6592, Note_off_c, 0, 59, 0
3, 6592, Note_on_c, 0, 62, 100
3, 6656, Note_off_c, 0, 62, 0
3, 6656, Note_on_c, 0, 67, 100
3, 6656, Note_off_c, 0, 55, 0
3, 6656, Note_on_c, 0, 55, 100
3, 6720, Note_off_c, 0, 67, 0
3, 6720, Note_on_c, 0, 62, 100
3, 6784, Note_off_c, 0, 62, 0
3, 6784, Note_on_c, 0, 59, 100
3, 6784, Note_off_c, 0, 55, 0
3, 6784, Note_on_c, 0, 55, 100
3, 6848, Note_off_c, 0, 59, 0
3, 6848, Note_on_c, 0, 62, 100
3, 6912, Note_off_c, 0, 62, 0
3, 6912, Note_on_c, 0, 67, 100
3, 6912, Note_off_c, 0, 55, 0
3, 6912, Note_on_c, 0, 55, 100
3, 6976, Note_off_c, 0, 67, 0
3, 6976, Note_on_c, 0, 62, 100
3, 7040, Note_off_c, 0, 62, 0
3, 7040, Note_on_c, 0, 59, 100
3, 7040, Note_off_c, 0, 55, 0
3, 7040, Note_on_c, 0, 55, 100
3, 7104, Note_off_c, 0, 59, 0
3, 7104, Note_on_c, 0, 62, 100
3, 7168, Note_off_c, 0, 62, 0
3, 7168, Note_on_c, 0, 69, 100
3, 7168, Note_off_c, 0, 55, 0
3, 7168, Note_on_c, 0, 55, 100
3, 7232, Note_off_c, 0, 69, 0
3, 7232, Note_on_c, 0, 62, 100
3, 7296, Note_off_c, 0, 62, 0
3, 7296, Note_on_c, 0, 60, 100
3, 7296, Note_off_c, 0, 55, 0
3, 7296, Note_on_c, 0, 55, 100
3, 7360, Note_off_c, 0, 60, 0
3, 7360, Note_on_c, 0, 62, 100
3, 7424, Note_off_c, 0, 62, 0
3, 7424, Note_on_c, 0, 69, 100
3, 7424, Note_off_c, 0, 55, 0
3, 7424, Note_on_c, 0, 55, 100
3, 7488, Note_off_c, 0, 69, 0
3, 7488, Note_on_c, 0, 62, 100
3, 7552, Note_off_c, 0, 62, 0
3, 7552, Note_on_c, 0, 60, 100
3, 7552, Note_off_c, 0, 55, 0
3, 7552, Note_on_c, 0, 55, 100
3, 7616, Note_off_c, 0, 60, 0
3, 7616, Note_on_c, 0, 62, 100
3, 7680, Note_off_c, 0, 62, 0
3, 7680, Note_on_c, 0, 69, 100
3, 7680, Note_off_c, 0, 55, 0
3, 7680, Note_on_c, 0, 55, 100
3, 7744, Note_off_c, 0, 69, 0
3, 7744, Note_on_c, 0, 62, 100
3, 7808, Note_off_c, 0, 62, 0
3, 7808, Note_on_c, 0, 72, 100
3, 7808, Note_off_c, 0, 55, 0
3, 7808, Note_on_c, 0, 55, 100
3, 7872, Note_off_c, 0, 72, 0
3, 7872, Note_on_c, 0, 62, 100
3, 7936, Note_off_c, 0, 62, 0
3, 7936, Note_on_c, 0, 66, 100
3, 7936, Note_off_c, 0, 55, 0
3, 7936, Note_on_c, 0, 55, 100
3, 8000, Note_off_c, 0, 66, 0
3, 8000, Note_on_c, 0, 62, 100
3, 8064, Note_off_c, 0, 62, 0
3, 8064, Note_on_c, 0, 69, 100
3, 8064, Note_off_c, 0, 55, 0
3, 8064, Note_on_c, 0, 55, 100
3, 8128, Note_off_c, 0, 69, 0
3, 8128, Note_on_c, 0, 62, 100
3, 8192, Note_off_c, 0, 62, 0
3, 8192, Note_on_c, 0, 59, 100
3, 8192, Note_on_c, 0, 62, 100
3, 8192, Note_off_c, 0, 55, 0
3, 8192, Note_on_c, 0, 55, 100
3, 8320, Note_off_c, 0, 55, 0
3, 8320, Note_on_c, 0, 55, 100
3, 8448, Note_off_c, 0, 59, 0
3, 8448, Note_off_c, 0, 62, 0
3, 8448, Note_on_c, 0, 72, 100
3, 8448, Note_off_c, 0, 55, 0
3, 8448, Note_on_c, 0, 57, 100
3, 8448, Note_on_c, 0, 62, 100
3, 8576, Note_off_c, 0, 72, 0
3, 8576, Note_on_c, 0, 72, 100
3, 8576, Note_off_c, 0, 57, 0
3, 8576, Note_off_c, 0, 62, 0
3, 8576, Note_on_c, 0, 57, 100
3, 8576, Note_on_c, 0, 62, 100
3, 8704, Note_off_c, 0, 72, 0
3, 8704, Note_on_c, 0, 74, 100
3, 8704, Note_off_c, 0, 57, 0
3, 8704, Note_off_c, 0, 62, 0
3, 8704, Note_on_c, 0, 59, 100
3, 8704, Note_on_c, 0, 62, 100
3, 8832, Note_off_c, 0, 74, 0
3, 8832, Note_on_c, 0, 74, 100
3, 8832, Note_off_c, 0, 59, 0
3, 8832, Note_off_c, 0, 62, 0
3, 8832, Note_on_c, 0, 59, 100
3, 8832, Note_on_c, 0, 62, 100
3, 8960, Note_off_c, 0, 74, 0
3, 8960, Note_on_c, 0, 72, 100
3, 8960, Note_off_c, 0, 59, 0
3, 8960, Note_off_c, 0, 62, 0
3, 8960, Note_on_c, 0, 54, 100
3, 8960, Note_on_c, 0, 62, 100
3, 9088, Note_on_c, 0, 71, 100
3, 9088, Note_off_c, 0, 54, 0
3, 9088, Note_off_c, 0, 62, 0
3, 9088, Note_on_c, 0, 54, 100
3, 9088, Note_on_c, 0, 62, 100
3, 9090, Note_off_c, 0, 72, 0
3, 9152, Note_on_c, 0, 69, 100
3, 9153, Note_off_c, 0, 71, 0
3, 9212, Note_off_c, 0, 69, 0
3, 9216, Note_on_c, 0, 67, 100
3, 9216, Note_off_c, 0, 54, 0
3, 9216, Note_off_c, 0, 62, 0
3, 9216, Note_on_c, 0, 55, 100
3, 9216, Note_on_c, 0, 62, 100
3, 9344, Note_off_c, 0, 67, 0
3, 9344, Note_on_c, 0, 67, 100
3, 9344, Note_off_c, 0, 55, 0
3, 9344, Note_off_c, 0, 62, 0
3, 9344, Note_on_c, 0, 55, 100
3, 9344, Note_on_c, 0, 62, 100
3, 9472, Note_off_c, 0, 67, 0
3, 9472, Note_on_c, 0, 66, 100
3, 9472, Note_off_c, 0, 55, 0
3, 9472, Note_off_c, 0, 62, 0
3, 9472, Note_on_c, 0, 57, 100
3, 9472, Note_on_c, 0, 62, 100
3, 9600, Note_off_c, 0, 66, 0
3, 9600, Note_on_c, 0, 66, 100
3, 9600, Note_off_c, 0, 57, 0
3, 9600, Note_off_c, 0, 62, 0
3, 9600, Note_on_c, 0, 57, 100
3, 9600, Note_on_c, 0, 62, 100
3, 9728, Note_off_c, 0, 66, 0
3, 9728, Note_on_c, 0, 67, 100
3, 9728, Note_off_c, 0, 57, 0
3, 9728, Note_off_c, 0, 62, 0
3, 9728, Note_on_c, 0, 59, 100
3, 9728, Note_on_c, 0, 62, 100
3, 9984, Note_off_c, 0, 67, 0
3, 9984, Note_off_c, 0, 59, 0
3, 9984, Note_off_c, 0, 62, 0
3, 10240, Note_on_c, 0, 71, 100
3, 10752, Note_on_c, 0, 72, 100
3, 10762, Note_off_c, 0, 71, 0
3, 11238, Note_off_c, 0, 72, 0
3, 11244, Note_on_c, 0, 71, 100
3, 11264, Note_on_c, 0, 69, 100
3, 11264, Note_off_c, 0, 71, 0
3, 11264, Note_on_c, 0, 50, 100
3, 11264, Note_on_c, 0, 54, 100
3, 11507, Note_off_c, 0, 69, 0
3, 11520, Note_on_c, 0, 69, 100
3, 11756, Note_off_c, 0, 69, 0
3, 11756, Note_on_c, 0, 69, 100
3, 11776, Note_on_c, 0, 67, 100
3, 11776, Note_off_c, 0, 69, 0
3, 11776, Note_on_c, 0, 52, 100
3, 11776, Note_on_c, 0, 55, 100
3, 11786, Note_off_c, 0, 50, 0
3, 11786, Note_off_c, 0, 54, 0
3, 12019, Note_off_c, 0, 67, 0
3, 12032, Note_on_c, 0, 67, 100
3, 12262, Note_off_c, 0, 52, 0
3, 12262, Note_off_c, 0, 55, 0
3, 12288, Note_off_c, 0, 67, 0
3, 12288, Note_on_c, 0, 60, 100
3, 12288, Note_on_c, 0, 64, 100
3, 12288, Note_on_c, 0, 48, 100
3, 12544, Note_off_c, 0, 60, 0
3, 12544, Note_off_c, 0, 64, 0
3, 12544, Note_on_c, 0, 60, 100
3, 12544, Note_on_c, 0, 64, 100
3, 12544, Note_off_c, 0, 48, 0
3, 12544, Note_on_c, 0, 48, 100
3, 12800, Note_off_c, 0, 60, 0
3, 12800, Note_off_c, 0, 64, 0
3, 12800, Note_on_c, 0, 57, 100
3, 12800, Note_on_c, 0, 60, 100
3, 12800, Note_off_c, 0, 48, 0
3, 12800, Note_on_c, 0, 50, 100
3, 13056, Note_off_c, 0, 57, 0
3, 13056, Note_off_c, 0, 60, 0
3, 13056, Note_on_c, 0, 57, 100
3, 13056, Note_off_c, 0, 50, 0
3, 13056, Note_on_c, 0, 50, 100
3, 13312, Note_off_c, 0, 57, 0
3, 13312, Note_on_c, 0, 62, 100
3, 13312, Note_off_c, 0, 50, 0
3, 13312, Note_on_c, 0, 47, 100
3, 13312, Note_on_c, 0, 50, 100
3, 13440, Note_off_c, 0, 62, 0
3, 13440, Note_off_c, 0, 47, 0
3, 13440, Note_off_c, 0, 50, 0
3, 13568, Note_on_c, 0, 66, 100
3, 13568, Note_on_c, 0, 50, 100
3, 13568, Note_on_c, 0, 62, 100
3, 13696, Note_off_c, 0, 66, 0
3, 13696, Note_off_c, 0, 50, 0
3, 13696, Note_off_c, 0, 62, 0
3, 13824, Note_on_c, 0, 67, 100
3, 13824, Note_on_c, 0, 55, 100
3, 13824, Note_on_c, 0, 62, 100
3, 13952, Note_off_c, 0, 67, 0
3, 14080, Note_off_c, 0, 55, 0
3, 14080, Note_off_c, 0, 62, 0
3, 14336, Note_on_c, 0, 71, 100
3, 14848, Note_on_c, 0, 72, 100
3, 14858, Note_off_c, 0, 71, 0
3, 15334, Note_off_c, 0, 72, 0
3, 15360, Note_on_c, 0, 71, 100
3, 15360, Note_on_c, 0, 50, 100
3, 15360, Note_on_c, 0, 54, 100
3, 15488, Note_on_c, 0, 69, 100
3, 15490, Note_off_c, 0, 71, 0
3, 15609, Note_off_c, 0, 69, 0
3, 15616, Note_on_c, 0, 69, 100
3, 15680, Note_off_c, 0, 69, 0
3, 15744, Note_on_c, 0, 69, 100
3, 15808, Note_off_c, 0, 69, 0
3, 15872, Note_on_c, 0, 69, 100
3, 15872, Note_on_c, 0, 52, 100
3, 15872, Note_on_c, 0, 55, 100
3, 15882, Note_off_c, 0, 50, 0
3, 15882, Note_off_c, 0, 54, 0
3, 16000, Note_on_c, 0, 67, 100
3, 16002, Note_off_c, 0, 69, 0
3, 16121, Note_off_c, 0, 67, 0
3, 16128, Note_on_c, 0, 67, 100
3, 16192, Note_off_c, 0, 67, 0
3, 16256, Note_on_c, 0, 67, 100
3, 16320, Note_off_c, 0, 67, 0
3, 16358, Note_off_c, 0, 52, 0
3, 16358, Note_off_c, 0, 55, 0
3, 16384, Note_on_c, 0, 60, 100
3, 16384, Note_on_c, 0, 64, 100
3, 16384, Note_on_c, 0, 48, 100
3, 16640, Note_off_c, 0, 60, 0
3, 16640, Note_off_c, 0, 64, 0
3, 16640, Note_on_c, 0, 60, 100
3, 16640, Note_on_c, 0, 64, 100
3, 16640, Note_off_c, 0, 48, 0
3, 16640, Note_on_c, 0, 48, 100
3, 16768, Note_off_c, 0, 60, 0
3, 16768, Note_off_c, 0, 64, 0
3, 16768, Note_on_c, 0, 60, 100
3, 16768, Note_on_c, 0, 64, 100
3, 16896, Note_off_c, 0, 60, 0
3, 16896, Note_off_c, 0, 64, 0
3, 16896, Note_on_c, 0, 57, 100
3, 16896, Note_on_c, 0, 60, 100
3, 16896, Note_off_c, 0, 48, 0
3, 16896, Note_on_c, 0, 50, 100
3, 17152, Note_off_c, 0, 57, 0
3, 17152, Note_off_c, 0, 60, 0
3, 17152, Note_on_c, 0, 57, 100
3, 17152, Note_on_c, 0, 60, 100
3, 17152, Note_off_c, 0, 50, 0
3, 17152, Note_on_c, 0, 50, 100
3, 17280, Note_off_c, 0, 57, 0
3, 17280, Note_off_c, 0, 60, 0
3, 17280, Note_on_c, 0, 57, 100
3, 17280, Note_on_c, 0, 60, 100
3, 17408, Note_off_c, 0, 57, 0
3, 17408, Note_off_c, 0, 60, 0
3, 17408, Note_on_c, 0, 55, 100
3, 17408, Note_on_c, 0, 59, 100
3, 17408, Note_off_c, 0, 50, 0
3, 17408, Note_on_c, 0, 55, 100
3, 17536, Note_off_c, 0, 55, 0
3, 17536, Note_on_c, 0, 55, 100
3, 17664, Note_off_c, 0, 55, 0
3, 17664, Note_on_c, 0, 55, 100
3, 17792, Note_off_c, 0, 55, 0
3, 17792, Note_on_c, 0, 55, 100
3, 17920, Note_off_c, 0, 55, 0
3, 17920, Note_on_c, 0, 55, 100
3, 18048, Note_off_c, 0, 55, 0
3, 18048, Note_off_c, 0, 59, 0
3, 18048, Note_on_c, 0, 59, 100
3, 18048, Note_off_c, 0, 55, 0
3, 18048, Note_on_c, 0, 55, 100
3, 18112, Note_on_c, 0, 57, 100
3, 18113, Note_off_c, 0, 59, 0
3, 18144, Note_off_c, 0, 57, 0
3, 18144, Note_on_c, 0, 59, 100
3, 18176, Note_off_c, 0, 59, 0
3, 18176, Note_on_c, 0, 60, 100
3, 18176, Note_off_c, 0, 55, 0
3, 18176, Note_on_c, 0, 55, 100
3, 18304, Note_on_c, 0, 57, 100
3, 18304, Note_off_c, 0, 55, 0
3, 18304, Note_on_c, 0, 55, 100
3, 18306, Note_off_c, 0, 60, 0
3, 18425, Note_off_c, 0, 57, 0
3, 18432, Note_on_c, 0, 67, 100
3, 18432, Note_off_c, 0, 55, 0
3, 18432, Note_on_c, 0, 55, 100
3, 18560, Note_off_c, 0, 55, 0
3, 18560, Note_on_c, 0, 55, 100
3, 18688, Note_off_c, 0, 55, 0
3, 18688, Note_on_c, 0, 55, 100
3, 18816, Note_off_c, 0, 55, 0
3, 18816, Note_on_c, 0, 55, 100
3, 18944, Note_off_c, 0, 55, 0
3, 18944, Note_on_c, 0, 55, 100
3, 19072, Note_off_c, 0, 67, 0
3, 19072, Note_on_c, 0, 67, 100
3, 19072, Note_off_c, 0, 55, 0
3, 19072, Note_on_c, 0, 55, 100
3, 19136, Note_on_c, 0, 66, 100
3, 19137, Note_off_c, 0, 67, 0
3, 19168, Note_off_c, 0, 66, 0
3, 19168, Note_on_c, 0, 67, 100
3, 19200, Note_off_c, 0, 67, 0
3, 19200, Note_on_c, 0, 69, 100
3, 19200, Note_off_c, 0, 55, 0
3, 19200, Note_on_c, 0, 55, 100
3, 19328, Note_on_c, 0, 66, 100
3, 19328, Note_off_c, 0, 55, 0
3, 19328, Note_on_c, 0, 55, 100
3, 19330, Note_off_c, 0, 69, 0
3, 19449, Note_off_c, 0, 66, 0
3, 19456, Note_on_c, 0, 71, 100
3, 19456, Note_off_c, 0, 55, 0
3, 19456, Note_on_c, 0, 55, 100
3, 19520, Note_off_c, 0, 71, 0
3, 19520, Note_on_c, 0, 67, 100
3, 19584, Note_off_c, 0, 67, 0
3, 19584, Note_on_c, 0, 71, 100
3, 19584, Note_off_c, 0, 55, 0
3, 19584, Note_on_c, 0, 55, 100
3, 19648, Note_off_c, 0, 71, 0
3, 19648, Note_on_c, 0, 67, 100
3, 19712, Note_off_c, 0, 67, 0
3, 19712, Note_on_c, 0, 71, 100
3, 19712, Note_off_c, 0, 55, 0
3, 19712, Note_on_c, 0, 55, 100
3, 19776, Note_off_c, 0, 71, 0
3, 19776, Note_on_c, 0, 67, 100
3, 19840, Note_off_c, 0, 67, 0
3, 19840, Note_on_c, 0, 71, 100
3, 19840, Note_off_c, 0, 55, 0
3, 19840, Note_on_c, 0, 55, 100
3, 19904, Note_off_c, 0, 71, 0
3, 19904, Note_on_c, 0, 67, 100
3, 19968, Note_off_c, 0, 67, 0
3, 19968, Note_on_c, 0, 72, 100
3, 19968, Note_off_c, 0, 55, 0
3, 19968, Note_on_c, 0, 55, 100
3, 20032, Note_off_c, 0, 72, 0
3, 20032, Note_on_c, 0, 67, 100
3, 20096, Note_off_c, 0, 67, 0
3, 20096, Note_on_c, 0, 72, 100
3, 20096, Note_off_c, 0, 55, 0
3, 20096, Note_on_c, 0, 55, 100
3, 20160, Note_off_c, 0, 72, 0
3, 20160, Note_on_c, 0, 67, 100
3, 20224, Note_off_c, 0, 67, 0
3, 20224, Note_on_c, 0, 72, 100
3, 20224, Note_off_c, 0, 55, 0
3, 20224, Note_on_c, 0, 55, 100
3, 20288, Note_off_c, 0, 72, 0
3, 20288, Note_on_c, 0, 69, 100
3, 20352, Note_off_c, 0, 69, 0
3, 20352, Note_on_c, 0, 72, 100
3, 20352, Note_off_c, 0, 55, 0
3, 20352, Note_on_c, 0, 55, 100
3, 20416, Note_off_c, 0, 72, 0
3, 20416, Note_on_c, 0, 69, 100
3, 20480, Note_off_c, 0, 69, 0
3, 20480, Note_on_c, 0, 71, 100
3, 20480, Note_off_c, 0, 55, 0
3, 20480, Note_on_c, 0, 55, 100
3, 20544, Note_off_c, 0, 71, 0
3, 20544, Note_on_c, 0, 67, 100
3, 20608, Note_off_c, 0, 67, 0
3, 20608, Note_on_c, 0, 71, 100
3, 20608, Note_off_c, 0, 55, 0
3, 20608, Note_on_c, 0, 55, 100
3, 20672, Note_off_c, 0, 71, 0
3, 20672, Note_on_c, 0, 67, 100
3, 20736, Note_off_c, 0, 67, 0
3, 20736, Note_on_c, 0, 74, 100
3, 20736, Note_off_c, 0, 55, 0
3, 20736, Note_on_c, 0, 54, 100
3, 20800, Note_off_c, 0, 74, 0
3, 20800, Note_on_c, 0, 66, 100
3, 20864, Note_off_c, 0, 66, 0
3, 20864, Note_on_c, 0, 74, 100
3, 20864, Note_off_c, 0, 54, 0
3, 20864, Note_on_c, 0, 54, 100
3, 20928, Note_off_c, 0, 74, 0
3, 20928, Note_on_c, 0, 66, 100
3, 20992, Note_off_c, 0, 66, 0
3, 20992, Note_on_c, 0, 74, 100
3, 20992, Note_off_c, 0, 54, 0
3, 20992, Note_on_c, 0, 55, 100
3, 21056, Note_off_c, 0, 74, 0
3, 21056, Note_on_c, 0, 67, 100
3, 21120, Note_off_c, 0, 67, 0
3, 21120, Note_on_c, 0, 74, 100
3, 21120, Note_off_c, 0, 55, 0
3, 21120, Note_on_c, 0, 55, 100
3, 21184, Note_off_c, 0, 74, 0
3, 21184, Note_on_c, 0, 67, 100
3, 21248, Note_off_c, 0, 67, 0
3, 21248, Note_on_c, 0, 79, 100
3, 21248, Note_off_c, 0, 55, 0
3, 21248, Note_on_c, 0, 52, 100
3, 21312, Note_off_c, 0, 79, 0
3, 21312, Note_on_c, 0, 76, 100
3, 21376, Note_off_c, 0, 76, 0
3, 21376, Note_on_c, 0, 79, 100
3, 21376, Note_off_c, 0, 52, 0
3, 21376, Note_on_c, 0, 52, 100
3, 21440, Note_off_c, 0, 79, 0
3, 21440, Note_on_c, 0, 76, 100
3, 21504, Note_off_c, 0, 76, 0
3, 21504, Note_on_c, 0, 78, 100
3, 21504, Note_off_c, 0, 52, 0
3, 21504, Note_on_c, 0, 50, 100
3, 21504, Note_on_c, 0, 62, 100
3, 21568, Note_off_c, 0, 78, 0
3, 21568, Note_on_c, 0, 69, 100
3, 21632, Note_off_c, 0, 69, 0
3, 21632, Note_on_c, 0, 74, 100
3, 21632, Note_off_c, 0, 50, 0
3, 21632, Note_off_c, 0, 62, 0
3, 21632, Note_on_c, 0, 50, 100
3, 21632, Note_on_c, 0, 62, 100
3, 21696, Note_off_c, 0, 74, 0
3, 21696, Note_on_c, 0, 69, 100
3, 21760, Note_off_c, 0, 69, 0
3, 21760, Note_on_c, 0, 78, 100
3, 21760, Note_off_c, 0, 50, 0
3, 21760, Note_off_c, 0, 62, 0
3, 21760, Note_on_c, 0, 50, 100
3, 21760, Note_on_c, 0, 62, 100
3, 21824, Note_off_c, 0, 78, 0
3, 21824, Note_on_c, 0, 69, 100
3, 21888, Note_off_c, 0, 69, 0
3, 21888, Note_on_c, 0, 74, 100
3, 21888, Note_off_c, 0, 50, 0
3, 21888, Note_off_c, 0, 62, 0
3, 21888, Note_on_c, 0, 50, 100
3, 21888, Note_on_c, 0, 62, 100
3, 21952, Note_off_c, 0, 74, 0
3, 21952, Note_on_c, 0, 69, 100
3, 22016, Note_off_c, 0, 69, 0
3, 22016, Note_on_c, 0, 79, 100
3, 22016, Note_off_c, 0, 50, 0
3, 22016, Note_off_c, 0, 62, 0
3, 22016, Note_on_c, 0, 50, 100
3, 22016, Note_on_c, 0, 64, 100
3, 22080, Note_off_c, 0, 79, 0
3, 22080, Note_on_c, 0, 69, 100
3, 22144, Note_off_c, 0, 69, 0
3, 22144, Note_on_c, 0, 76, 100
3, 22144, Note_off_c, 0, 50, 0
3, 22144, Note_off_c, 0, 64, 0
3, 22144, Note_on_c, 0, 50, 100
3, 22144, Note_on_c, 0, 64, 100
3, 22208, Note_off_c, 0, 76, 0
3, 22208, Note_on_c, 0, 69, 100
3, 22272, Note_off_c, 0, 69, 0
3, 22272, Note_on_c, 0, 79, 100
3, 22272, Note_off_c, 0, 50, 0
3, 22272, Note_off_c, 0, 64, 0
3, 22272, Note_on_c, 0, 50, 100
3, 22272, Note_on_c, 0, 64, 100
3, 22336, Note_off_c, 0, 79, 0
3, 22336, Note_on_c, 0, 69, 100
3, 22400, Note_off_c, 0, 69, 0
3, 22400, Note_on_c, 0, 76, 100
3, 22400, Note_off_c, 0, 50, 0
3, 22400, Note_off_c, 0, 64, 0
3, 22400, Note_on_c, 0, 50, 100
3, 22400, Note_on_c, 0, 64, 100
3, 22464, Note_off_c, 0, 76, 0
3, 22464, Note_on_c, 0, 69, 100
3, 22528, Note_off_c, 0, 69, 0
3, 22528, Note_on_c, 0, 78, 100
3, 22528, Note_off_c, 0, 50, 0
3, 22528, Note_off_c, 0, 64, 0
3, 22528, Note_on_c, 0, 50, 100
3, 22528, Note_on_c, 0, 62, 100
3, 22592, Note_off_c, 0, 78, 0
3, 22592, Note_on_c, 0, 69, 100
3, 22656, Note_off_c, 0, 69, 0
3, 22656, Note_on_c, 0, 74, 100
3, 22656, Note_off_c, 0, 50, 0
3, 22656, Note_off_c, 0, 62, 0
3, 22656, Note_on_c, 0, 50, 100
3, 22656, Note_on_c, 0, 62, 100
3, 22720, Note_off_c, 0, 74, 0
3, 22720, Note_on_c, 0, 69, 100
3, 22784, Note_off_c, 0, 69, 0
3, 22784, Note_on_c, 0, 78, 100
3, 22784, Note_off_c, 0, 50, 0
3, 22784, Note_off_c, 0, 62, 0
3, 22784, Note_on_c, 0, 50, 100
3, 22784, Note_on_c, 0, 62, 100
3, 22848, Note_off_c, 0, 78, 0
3, 22848, Note_on_c, 0, 69, 100
3, 22912, Note_off_c, 0, 69, 0
3, 22912, Note_on_c, 0, 74, 100
3, 22912, Note_off_c, 0, 50, 0
3, 22912, Note_off_c, 0, 62, 0
3, 22912, Note_on_c, 0, 50, 100
3, 22912, Note_on_c, 0, 62, 100
3, 22976, Note_off_c, 0, 74, 0
3, 22976, Note_on_c, 0, 69, 100
3, 23040, Note_off_c, 0, 69, 0
3, 23040, Note_on_c, 0, 79, 100
3, 23040, Note_off_c, 0, 50, 0
3, 23040, Note_off_c, 0, 62, 0
3, 23040, Note_on_c, 0, 50, 100
3, 23040, Note_on_c, 0, 64, 100
3, 23104, Note_off_c, 0, 79, 0
3, 23104, Note_on_c, 0, 69, 100
3, 23168, Note_off_c, 0, 69, 0
3, 23168, Note_on_c, 0, 76, 100
3, 23168, Note_off_c, 0, 50, 0
3, 23168, Note_off_c, 0, 64, 0
3, 23168, Note_on_c, 0, 50, 100
3, 23168, Note_on_c, 0, 64, 100
3, 23232, Note_off_c, 0, 76, 0
3, 23232, Note_on_c, 0, 69, 100
3, 23296, Note_off_c, 0, 69, 0
3, 23296, Note_on_c, 0, 79, 100
3, 23296, Note_off_c, 0, 50, 0
3, 23296, Note_off_c, 0, 64, 0
3, 23296, Note_on_c, 0, 50, 100
3, 23296, Note_on_c, 0, 64, 100
3, 23360, Note_off_c, 0, 79, 0
3, 23360, Note_on_c, 0, 69, 100
3, 23424, Note_off_c, 0, 69, 0
3, 23424, Note_on_c, 0, 76, 100
3, 23424, Note_off_c, 0, 50, 0
3, 23424, Note_off_c, 0, 64, 0
3, 23424, Note_on_c, 0, 50, 100
3, 23424, Note_on_c, 0, 64, 100
3, 23488, Note_off_c, 0, 76, 0
3, 23488, Note_on_c, 0, 69, 100
3, 23552, Note_off_c, 0, 69, 0
3, 23552, Note_on_c, 0, 66, 100
3, 23552, Note_on_c, 0, 74, 100
3, 23552, Note_on_c, 0, 78, 100
3, 23552, Note_off_c, 0, 50, 0
3, 23552, Note_off_c, 0, 64, 0
3, 23552, Note_on_c, 0, 50, 100
3, 23552, Note_on_c, 0, 54, 100
3, 23680, Note_off_c, 0, 66, 0
3, 23680, Note_off_c, 0, 74, 0
3, 23680, Note_off_c, 0, 78, 0
3, 23680, Note_on_c, 0, 66, 100
3, 23680, Note_on_c, 0, 74, 100
3, 23680, Note_off_c, 0, 50, 0
3, 23680, Note_off_c, 0, 54, 0
3, 23680, Note_on_c, 0, 52, 100
3, 23680, Note_on_c, 0, 55, 100
3, 23808, Note_off_c, 0, 52, 0
3, 23808, Note_off_c, 0, 55, 0
3, 23808, Note_on_c, 0, 54, 100
3, 23808, Note_on_c, 0, 57, 100
3, 23936, Note_off_c, 0, 66, 0
3, 23936, Note_off_c, 0, 74, 0
3, 23936, Note_on_c, 0, 66, 100
3, 23936, Note_on_c, 0, 74, 100
3, 23936, Note_off_c, 0, 54, 0
3, 23936, Note_off_c, 0, 57, 0
3, 23936, Note_on_c, 0, 52, 100
3, 23936, Note_on_c, 0, 55, 100
3, 24064, Note_off_c, 0, 52, 0
3, 24064, Note_off_c, 0, 55, 0
3, 24064, Note_on_c, 0, 50, 100
3, 24064, Note_on_c, 0, 54, 100
3, 24192, Note_off_c, 0, 66, 0
3, 24192, Note_off_c, 0, 74, 0
3, 24192, Note_on_c, 0, 66, 100
3, 24192, Note_on_c, 0, 74, 100
3, 24192, Note_off_c, 0, 50, 0
3, 24192, Note_off_c, 0, 54, 0
3, 24192, Note_on_c, 0, 52, 100
3, 24192, Note_on_c, 0, 55, 100
3, 24320, Note_off_c, 0, 52, 0
3, 24320, Note_off_c, 0, 55, 0
3, 24320, Note_on_c, 0, 54, 100
3, 24320, Note_on_c, 0, 57, 100
3, 24448, Note_off_c, 0, 66, 0
3, 24448, Note_off_c, 0, 74, 0
3, 24448, Note_on_c, 0, 66, 100
3, 24448, Note_on_c, 0, 74, 100
3, 24448, Note_off_c, 0, 54, 0
3, 24448, Note_off_c, 0, 57, 0
3, 24448, Note_on_c, 0, 50, 100
3, 24448, Note_on_c, 0, 54, 100
3, 24576, Note_on_c, 0, 64, 100
3, 24576, Note_off_c, 0, 50, 0
3, 24576, Note_off_c, 0, 54, 0
3, 24576, Note_on_c, 0, 55, 100
3, 24576, Note_on_c, 0, 59, 100
3, 24578, Note_off_c, 0, 66, 0
3, 24697, Note_off_c, 0, 64, 0
3, 24704, Note_on_c, 0, 64, 100
3, 24704, Note_on_c, 0, 74, 100
3, 24704, Note_off_c, 0, 55, 0
3, 24704, Note_off_c, 0, 59, 0
3, 24704, Note_on_c, 0, 57, 100
3, 24709, Note_off_c, 0, 74, 0
3, 24832, Note_off_c, 0, 57, 0
3, 24832, Note_on_c, 0, 55, 100
3, 24832, Note_on_c, 0, 59, 100
3, 24960, Note_off_c, 0, 64, 0
3, 24960, Note_off_c, 0, 74, 0
3, 24960, Note_on_c, 0, 64, 100
3, 24960, Note_on_c, 0, 74, 100
3, 24960, Note_off_c, 0, 55, 0
3, 24960, Note_off_c, 0, 59, 0
3, 24960, Note_on_c, 0, 57, 100
3, 25088, Note_off_c, 0, 57, 0
3, 25088, Note_on_c, 0, 55, 100
3, 25088, Note_on_c, 0, 59, 100
3, 25216, Note_off_c, 0, 64, 0
3, 25216, Note_off_c, 0, 74, 0
3, 25216, Note_on_c, 0, 64, 100
3, 25216, Note_on_c, 0, 74, 100
3, 25216, Note_off_c, 0, 55, 0
3, 25216, Note_off_c, 0, 59, 0
3, 25216, Note_on_c, 0, 57, 100
3, 25344, Note_off_c, 0, 57, 0
3, 25344, Note_on_c, 0, 56, 100
3, 25344, Note_on_c, 0, 59, 100
3, 25472, Note_off_c, 0, 64, 0
3, 25472, Note_off_c, 0, 74, 0
3, 25472, Note_on_c, 0, 64, 100
3, 25472, Note_on_c, 0, 76, 100
3, 25472, Note_off_c, 0, 56, 0
3, 25472, Note_off_c, 0, 59, 0
3, 25472, Note_on_c, 0, 52, 100
3, 25472, Note_on_c, 0, 56, 100
3, 25600, Note_off_c, 0, 64, 0
3, 25600, Note_off_c, 0, 76, 0
3, 25600, Note_on_c, 0, 76, 100
3, 25600, Note_off_c, 0, 52, 0
3, 25600, Note_off_c, 0, 56, 0
3, 25600, Note_on_c, 0, 57, 100
3, 25664, Note_off_c, 0, 76, 0
3, 25664, Note_on_c, 0, 73, 100
3, 25728, Note_off_c, 0, 73, 0
3, 25728, Note_on_c, 0, 76, 100
3, 25728, Note_off_c, 0, 57, 0
3, 25728, Note_on_c, 0, 57, 100
3, 25792, Note_off_c, 0, 76, 0
3, 25792, Note_on_c, 0, 73, 100
3, 25856, Note_off_c, 0, 73, 0
3, 25856, Note_on_c, 0, 78, 100
3, 25856, Note_off_c, 0, 57, 0
3, 25856, Note_on_c, 0, 57, 100
3, 25920, Note_off_c, 0, 78, 0
3, 25920, Note_on_c, 0, 74, 100
3, 25984, Note_off_c, 0, 74, 0
3, 25984, Note_on_c, 0, 78, 100
3, 25984, Note_off_c, 0, 57, 0
3, 25984, Note_on_c, 0, 57, 100
3, 26048, Note_off_c, 0, 78, 0
3, 26048, Note_on_c, 0, 74, 100
3, 26112, Note_off_c, 0, 74, 0
3, 26112, Note_on_c, 0, 76, 100
3, 26112, Note_off_c, 0, 57, 0
3, 26112, Note_on_c, 0, 57, 100
3, 26176, Note_off_c, 0, 76, 0
3, 26176, Note_on_c, 0, 73, 100
3, 26240, Note_off_c, 0, 73, 0
3, 26240, Note_on_c, 0, 76, 100
3, 26240, Note_off_c, 0, 57, 0
3, 26240, Note_on_c, 0, 57, 100
3, 26304, Note_off_c, 0, 76, 0
3, 26304, Note_on_c, 0, 73, 100
3, 26368, Note_off_c, 0, 73, 0
3, 26368, Note_on_c, 0, 78, 100
3, 26368, Note_off_c, 0, 57, 0
3, 26368, Note_on_c, 0, 57, 100
3, 26432, Note_off_c, 0, 78, 0
3, 26432, Note_on_c, 0, 74, 100
3, 26496, Note_off_c, 0, 74, 0
3, 26496, Note_on_c, 0, 78, 100
3, 26496, Note_off_c, 0, 57, 0
3, 26496, Note_on_c, 0, 57, 100
3, 26560, Note_off_c, 0, 78, 0
3, 26560, Note_on_c, 0, 74, 100
3, 26624, Note_off_c, 0, 74, 0
3, 26624, Note_on_c, 0, 73, 100
3, 26624, Note_on_c, 0, 76, 100
3, 26624, Note_off_c, 0, 57, 0
3, 26624, Note_on_c, 0, 57, 100
3, 26752, Note_off_c, 0, 73, 0
3, 26752, Note_off_c, 0, 76, 0
3, 26752, Note_on_c, 0, 69, 100
3, 26752, Note_off_c, 0, 57, 0
3, 26752, Note_on_c, 0, 45, 100
3, 26752, Note_on_c, 0, 57, 100
3, 26880, Note_off_c, 0, 69, 0
3, 26880, Note_on_c, 0, 69, 100
3, 26880, Note_off_c, 0, 45, 0
3, 26880, Note_off_c, 0, 57, 0
3, 26880, Note_on_c, 0, 45, 100
3, 26880, Note_on_c, 0, 57, 100
3, 27008, Note_off_c, 0, 69, 0
3, 27008, Note_on_c, 0, 69, 100
3, 27008, Note_off_c, 0, 45, 0
3, 27008, Note_off_c, 0, 57, 0
3, 27008, Note_on_c, 0, 45, 100
3, 27008, Note_on_c, 0, 57, 100
3, 27136, Note_off_c, 0, 69, 0
3, 27136, Note_on_c, 0, 69, 100
3, 27136, Note_off_c, 0, 45, 0
3, 27136, Note_off_c, 0, 57, 0
3, 27136, Note_on_c, 0, 45, 100
3, 27136, Note_on_c, 0, 57, 100
3, 27392, Note_off_c, 0, 69, 0
3, 27392, Note_off_c, 0, 45, 0
3, 27392, Note_off_c, 0, 57, 0
3, 27648, Note_on_c, 0, 69, 100
3, 28032, Note_on_c, 0, 67, 100
3, 28039, Note_off_c, 0, 69, 0
3, 28074, Note_off_c, 0, 67, 0
3, 28074, Note_on_c, 0, 66, 100
3, 28117, Note_off_c, 0, 66, 0
3, 28117, Note_on_c, 0, 64, 100
3, 28160, Note_off_c, 0, 64, 0
3, 28160, Note_on_c, 0, 62, 100
3, 28281, Note_off_c, 0, 62, 0
3, 28416, Note_on_c, 0, 66, 100
3, 28416, Note_on_c, 0, 71, 100
3, 28416, Note_on_c, 0, 51, 100
3, 28544, Note_off_c, 0, 66, 0
3, 28544, Note_off_c, 0, 71, 0
3, 28544, Note_off_c, 0, 51, 0
3, 28672, Note_on_c, 0, 59, 100
3, 28672, Note_on_c, 0, 67, 100
3, 28672, Note_on_c, 0, 52, 100
3, 28800, Note_off_c, 0, 59, 0
3, 28800, Note_off_c, 0, 67, 0
3, 28800, Note_off_c, 0, 52, 0
3, 28928, Note_on_c, 0, 64, 100
3, 28928, Note_on_c, 0, 67, 100
3, 28928, Note_on_c, 0, 50, 100
3, 29056, Note_off_c, 0, 64, 0
3, 29056, Note_off_c, 0, 67, 0
3, 29056, Note_off_c, 0, 50, 0
3, 29184, Note_on_c, 0, 64, 100
3, 29184, Note_on_c, 0, 69, 100
3, 29184, Note_on_c, 0, 49, 100
3, 29312, Note_off_c, 0, 64, 0
3, 29312, Note_off_c, 0, 69, 0
3, 29312, Note_off_c, 0, 49, 0
3, 29440, Note_on_c, 0, 61, 100
3, 29440, Note_on_c, 0, 45, 100
3, 29568, Note_off_c, 0, 61, 0
3, 29568, Note_off_c, 0, 45, 0
3, 29696, Note_on_c, 0, 66, 100
3, 29952, Note_on_c, 0, 46, 100
3, 30080, Note_on_c, 0, 64, 100
3, 30087, Note_off_c, 0, 66, 0
3, 30122, Note_off_c, 0, 64, 0
3, 30122, Note_on_c, 0, 62, 100
3, 30165, Note_off_c, 0, 62, 0
3, 30165, Note_on_c, 0, 61, 100
3, 30208, Note_off_c, 0, 61, 0
3, 30208, Note_on_c, 0, 59, 100
3, 30208, Note_on_c, 0, 62, 100
3, 30208, Note_on_c, 0, 47, 100
3, 30213, Note_off_c, 0, 46, 0
3, 30329, Note_off_c, 0, 59, 0
3, 30329, Note_off_c, 0, 62, 0
3, 30329, Note_off_c, 0, 47, 0
3, 30464, Note_on_c, 0, 64, 100
3, 30464, Note_on_c, 0, 67, 100
3, 30464, Note_on_c, 0, 43, 100
3, 30592, Note_off_c, 0, 64, 0
3, 30592, Note_off_c, 0, 67, 0
3, 30592, Note_off_c, 0, 43, 0
3, 30720, Note_on_c, 0, 62, 100
3, 30720, Note_on_c, 0, 66, 100
3, 30720, Note_on_c, 0, 45, 100
3, 30976, Note_off_c, 0, 45, 0
3, 30976, Note_on_c, 0, 57, 100
3, 31232, Note_on_c, 0, 61, 100
3, 31232, Note_on_c, 0, 64, 100
3, 31242, Note_off_c, 0, 62, 0
3, 31242, Note_off_c, 0, 66, 0
3, 31360, Note_on_c, 0, 56, 100
3, 31367, Note_off_c, 0, 57, 0
3, 31475, Note_off_c, 0, 61, 0
3, 31475, Note_off_c, 0, 64, 0
3, 31488, Note_on_c, 0, 55, 100
3, 31490, Note_off_c, 0, 56, 0
3, 31616, Note_on_c, 0, 52, 100
3, 31618, Note_off_c, 0, 55, 0
3, 31737, Note_off_c, 0, 52, 0
3, 31744, Note_on_c, 0, 69, 100
3, 31744, Note_on_c, 0, 50, 100
3, 31872, Note_off_c, 0, 50, 0
3, 32000, Note_on_c, 0, 61, 100
3, 32000, Note_on_c, 0, 52, 100
3, 32128, Note_on_c, 0, 67, 100
3, 32130, Note_off_c, 0, 52, 0
3, 32135, Note_off_c, 0, 69, 0
3, 32170, Note_off_c, 0, 67, 0
3, 32170, Note_on_c, 0, 66, 100
3, 32213, Note_off_c, 0, 66, 0
3, 32213, Note_on_c, 0, 64, 100
3, 32256, Note_off_c, 0, 64, 0
3, 32256, Note_on_c, 0, 62, 100
3, 32256, Note_on_c, 0, 62, 100
3, 32256, Note_on_c, 0, 54, 100
3, 32261, Note_off_c, 0, 61, 0
3, 32377, Note_off_c, 0, 62, 0
3, 32377, Note_off_c, 0, 62, 0
3, 32377, Note_off_c, 0, 54, 0
3, 32512, Note_on_c, 0, 66, 100
3, 32512, Note_on_c, 0, 71, 100
3, 32512, Note_on_c, 0, 51, 100
3, 32640, Note_off_c, 0, 66, 0
3, 32640, Note_off_c, 0, 71, 0
3, 32640, Note_off_c, 0, 51, 0
3, 32768, Note_on_c, 0, 59, 100
3, 32768, Note_on_c, 0, 67, 100
3, 32768, Note_on_c, 0, 52, 100
3, 32896, Note_off_c, 0, 59, 0
3, 32896, Note_off_c, 0, 67, 0
3, 32896, Note_off_c, 0, 52, 0
3, 33024, Note_on_c, 0, 64, 100
3, 33024, Note_on_c, 0, 50, 100
3, 33024, Note_on_c, 0, 55, 100
3, 33152, Note_off_c, 0, 64, 0
3, 33152, Note_off_c, 0, 50, 0
3, 33152, Note_off_c, 0, 55, 0
3, 33280, Note_on_c, 0, 69, 100
3, 33280, Note_on_c, 0, 49, 100
3, 33280, Note_on_c, 0, 52, 100
3, 33408, Note_off_c, 0, 49, 0
3, 33408, Note_off_c, 0, 52, 0
3, 33536, Note_off_c, 0, 69, 0
3, 33536, Note_on_c, 0, 45, 100
3, 33664, Note_on_c, 0, 64, 100
3, 33664, Note_on_c, 0, 67, 100
3, 33664, Note_off_c, 0, 45, 0
3, 33792, Note_off_c, 0, 64, 0
3, 33792, Note_off_c, 0, 67, 0
3, 33792, Note_on_c, 0, 64, 100
3, 33792, Note_on_c, 0, 67, 100
3, 33792, Note_on_c, 0, 47, 100
3, 33920, Note_on_c, 0, 62, 100
3, 33920, Note_on_c, 0, 66, 100
3, 33920, Note_off_c, 0, 47, 0
3, 33922, Note_off_c, 0, 64, 0
3, 33922, Note_off_c, 0, 67, 0
3, 34041, Note_off_c, 0, 62, 0
3, 34041, Note_off_c, 0, 66, 0
3, 34048, Note_on_c, 0, 55, 100
3, 34176, Note_on_c, 0, 79, 100
3, 34176, Note_off_c, 0, 55, 0
3, 34214, Note_off_c, 0, 79, 0
3, 34304, Note_on_c, 0, 79, 100
3, 34304, Note_on_c, 0, 57, 100
3, 34432, Note_on_c, 0, 78, 100
3, 34432, Note_off_c, 0, 57, 0
3, 34434, Note_off_c, 0, 79, 0
3, 34553, Note_off_c, 0, 78, 0
3, 34560, Note_on_c, 0, 45, 100
3, 34688, Note_on_c, 0, 67, 100
3, 34688, Note_off_c, 0, 45, 0
3, 34816, Note_off_c, 0, 67, 0
3, 34816, Note_on_c, 0, 62, 100
3, 34816, Note_on_c, 0, 66, 100
3, 34816, Note_on_c, 0, 50, 100
3, 34944, Note_off_c, 0, 62, 0
3, 34944, Note_off_c, 0, 66, 0
3, 34944, Note_on_c, 0, 62, 100
3, 34944, Note_on_c, 0, 66, 100
3, 35072, Note_off_c, 0, 62, 0
3, 35072, Note_off_c, 0, 66, 0
3, 35072, Note_on_c, 0, 64, 100
3, 35072, Note_on_c, 0, 67, 100
3, 35072, Note_off_c, 0, 50, 0
3, 35200, Note_off_c, 0, 64, 0
3, 35200, Note_off_c, 0, 67, 0
3, 35200, Note_on_c, 0, 64, 100
3, 35200, Note_on_c, 0, 67, 100
3, 35328, Note_off_c, 0, 64, 0
3, 35328, Note_off_c, 0, 67, 0
3, 35328, Note_on_c, 0, 66, 100
3, 35328, Note_on_c, 0, 69, 100
3, 35456, Note_off_c, 0, 66, 0
3, 35456, Note_off_c, 0, 69, 0
3, 35456, Note_on_c, 0, 66, 100
3, 35456, Note_on_c, 0, 69, 100
3, 35584, Note_off_c, 0, 66, 0
3, 35584, Note_off_c, 0, 69, 0
3, 35584, Note_on_c, 0, 62, 100
3, 35584, Note_on_c, 0, 66, 100
3, 35712, Note_off_c, 0, 62, 0
3, 35712, Note_off_c, 0, 66, 0
3, 35712, Note_on_c, 0, 62, 100
3, 35712, Note_on_c, 0, 66, 100
3, 35840, Note_off_c, 0, 62, 0
3, 35840, Note_off_c, 0, 66, 0
3, 35840, Note_on_c, 0, 61, 100
3, 35840, Note_on_c, 0, 64, 100
3, 35840, Note_on_c, 0, 45, 100
3, 35968, Note_off_c, 0, 61, 0
3, 35968, Note_off_c, 0, 64, 0
3, 35968, Note_on_c, 0, 61, 100
3, 35968, Note_on_c, 0, 64, 100
3, 36096, Note_off_c, 0, 61, 0
3, 36096, Note_off_c, 0, 64, 0
3, 36096, Note_on_c, 0, 62, 100
3, 36096, Note_on_c, 0, 66, 100
3, 36096, Note_off_c, 0, 45, 0
3, 36224, Note_off_c, 0, 62, 0
3, 36224, Note_off_c, 0, 66, 0
3, 36224, Note_on_c, 0, 62, 100
3, 36224, Note_on_c, 0, 66, 100
3, 36352, Note_off_c, 0, 62, 0
3, 36352, Note_off_c, 0, 66, 0
3, 36352, Note_on_c, 0, 64, 100
3, 36352, Note_on_c, 0, 67, 100
3, 36480, Note_off_c, 0, 64, 0
3, 36480, Note_off_c, 0, 67, 0
3, 36480, Note_on_c, 0, 64, 100
3, 36480, Note_on_c, 0, 67, 100
3, 36608, Note_off_c, 0, 64, 0
3, 36608, Note_off_c, 0, 67, 0
3, 36608, Note_on_c, 0, 61, 100
3, 36608, Note_on_c, 0, 64, 100
3, 36736, Note_off_c, 0, 61, 0
3, 36736, Note_off_c, 0, 64, 0
3, 36736, Note_on_c, 0, 61, 100
3, 36736, Note_on_c, 0, 64, 100
3, 36864, Note_off_c, 0, 61, 0
3, 36864, Note_off_c, 0, 64, 0
3, 36864, Note_on_c, 0, 62, 100
3, 36864, Note_on_c, 0, 66, 100
3, 36864, Note_on_c, 0, 50, 100
3, 36992, Note_off_c, 0, 62, 0
3, 36992, Note_off_c, 0, 66, 0
3, 36992, Note_on_c, 0, 62, 100
3, 36992, Note_on_c, 0, 66, 100
3, 37120, Note_off_c, 0, 62, 0
3, 37120, Note_off_c, 0, 66, 0
3, 37120, Note_on_c, 0, 64, 100
3, 37120, Note_on_c, 0, 67, 100
3, 37120, Note_off_c, 0, 50, 0
3, 37248, Note_off_c, 0, 64, 0
3, 37248, Note_off_c, 0, 67, 0
3, 37248, Note_on_c, 0, 64, 100
3, 37248, Note_on_c, 0, 67, 100
3, 37376, Note_off_c, 0, 64, 0
3, 37376, Note_off_c, 0, 67, 0
3, 37376, Note_on_c, 0, 66, 100
3, 37376, Note_on_c, 0, 69, 100
3, 37504, Note_off_c, 0, 66, 0
3, 37504, Note_off_c, 0, 69, 0
3, 37504, Note_on_c, 0, 66, 100
3, 37504, Note_on_c, 0, 69, 100
3, 37632, Note_off_c, 0, 66, 0
3, 37632, Note_off_c, 0, 69, 0
3, 37632, Note_on_c, 0, 62, 100
3, 37632, Note_on_c, 0, 66, 100
3, 37760, Note_off_c, 0, 62, 0
3, 37760, Note_off_c, 0, 66, 0
3, 37760, Note_on_c, 0, 62, 100
3, 37760, Note_on_c, 0, 66, 100
3, 37888, Note_off_c, 0, 62, 0
3, 37888, Note_off_c, 0, 66, 0
3, 37888, Note_on_c, 0, 61, 100
3, 37888, Note_on_c, 0, 64, 100
3, 37888, Note_on_c, 0, 45, 100
3, 38016, Note_off_c, 0, 61, 0
3, 38016, Note_off_c, 0, 64, 0
3, 38016, Note_on_c, 0, 61, 100
3, 38016, Note_on_c, 0, 64, 100
3, 38144, Note_off_c, 0, 61, 0
3, 38144, Note_off_c, 0, 64, 0
3, 38144, Note_on_c, 0, 62, 100
3, 38144, Note_on_c, 0, 66, 100
3, 38144, Note_off_c, 0, 45, 0
3, 38272, Note_off_c, 0, 62, 0
3, 38272, Note_off_c, 0, 66, 0
3, 38272, Note_on_c, 0, 62, 100
3, 38272, Note_on_c, 0, 66, 100
3, 38400, Note_off_c, 0, 62, 0
3, 38400, Note_off_c, 0, 66, 0
3, 38400, Note_on_c, 0, 64, 100
3, 38400, Note_on_c, 0, 67, 100
3, 38528, Note_off_c, 0, 64, 0
3, 38528, Note_off_c, 0, 67, 0
3, 38528, Note_on_c, 0, 64, 100
3, 38528, Note_on_c, 0, 67, 100
3, 38656, Note_off_c, 0, 64, 0
3, 38656, Note_off_c, 0, 67, 0
3, 38656, Note_on_c, 0, 61, 100
3, 38656, Note_on_c, 0, 64, 100
3, 38784, Note_off_c, 0, 61, 0
3, 38784, Note_off_c, 0, 64, 0
3, 38784, Note_on_c, 0, 61, 100
3, 38784, Note_on_c, 0, 64, 100
3, 38912, Note_off_c, 0, 61, 0
3, 38912, Note_off_c, 0, 64, 0
3, 38912, Note_on_c, 0, 62, 100
3, 38912, Note_on_c, 0, 66, 100
3, 39040, Note_on_c, 0, 50, 100
3, 39040, Note_on_c, 0, 62, 100
3, 39168, Note_off_c, 0, 62, 0
3, 39168, Note_off_c, 0, 66, 0
3, 39168, Note_off_c, 0, 50, 0
3, 39168, Note_off_c, 0, 62, 0
3, 39168, Note_on_c, 0, 54, 100
3, 39168, Note_on_c, 0, 66, 100
3, 39296, Note_off_c, 0, 54, 0
3, 39296, Note_off_c, 0, 66, 0
3, 39296, Note_on_c, 0, 52, 100
3, 39296, Note_on_c, 0, 64, 100
3, 39424, Note_on_c, 0, 71, 100
3, 39424, Note_on_c, 0, 78, 100
3, 39424, Note_off_c, 0, 52, 0
3, 39424, Note_off_c, 0, 64, 0
3, 39424, Note_on_c, 0, 51, 100
3, 39424, Note_on_c, 0, 63, 100
3, 39552, Note_off_c, 0, 51, 0
3, 39552, Note_off_c, 0, 63, 0
3, 39552, Note_on_c, 0, 47, 100
3, 39552, Note_on_c, 0, 59, 100
3, 39680, Note_off_c, 0, 47, 0
3, 39680, Note_off_c, 0, 59, 0
3, 39680, Note_on_c, 0, 49, 100
3, 39680, Note_on_c, 0, 61, 100
3, 39808, Note_off_c, 0, 49, 0
3, 39808, Note_off_c, 0, 61, 0
3, 39808, Note_on_c, 0, 51, 100
3, 39808, Note_on_c, 0, 63, 100
3, 39936, Note_on_c, 0, 76, 100
3, 39936, Note_off_c, 0, 51, 0
3, 39936, Note_off_c, 0, 63, 0
3, 39936, Note_on_c, 0, 52, 100
3, 39936, Note_on_c, 0, 64, 100
3, 39946, Note_off_c, 0, 71, 0
3, 39946, Note_off_c, 0, 78, 0
3, 40064, Note_off_c, 0, 52, 0
3, 40064, Note_off_c, 0, 64, 0
3, 40064, Note_on_c, 0, 55, 100
3, 40064, Note_on_c, 0, 67, 100
3, 40179, Note_off_c, 0, 76, 0
3, 40192, Note_off_c, 0, 55, 0
3, 40192, Note_off_c, 0, 67, 0
3, 40192, Note_on_c, 0, 52, 100
3, 40192, Note_on_c, 0, 64, 100
3, 40320, Note_off_c, 0, 52, 0
3, 40320, Note_off_c, 0, 64, 0
3, 40320, Note_on_c, 0, 50, 100
3, 40320, Note_on_c, 0, 62, 100
3, 40448, Note_on_c, 0, 69, 100
3, 40448, Note_on_c, 0, 76, 100
3, 40448, Note_off_c, 0, 50, 0
3, 40448, Note_off_c, 0, 62, 0
3, 40448, Note_on_c, 0, 49, 100
3, 40448, Note_on_c, 0, 61, 100
3, 40576, Note_off_c, 0, 49, 0
3, 40576, Note_off_c, 0, 61, 0
3, 40576, Note_on_c, 0, 45, 100
3, 40576, Note_on_c, 0, 57, 100
3, 40704, Note_off_c, 0, 45, 0
3, 40704, Note_off_c, 0, 57, 0
3, 40704, Note_on_c, 0, 47, 100
3, 40704, Note_on_c, 0, 59, 100
3, 40832, Note_off_c, 0, 47, 0
3, 40832, Note_off_c, 0, 59, 0
3, 40832, Note_on_c, 0, 49, 100
3, 40832, Note_on_c, 0, 61, 100
3, 40960, Note_on_c, 0, 74, 100
3, 40960, Note_off_c, 0, 49, 0
3, 40960, Note_off_c, 0, 61, 0
3, 40960, Note_on_c, 0, 50, 100
3, 40970, Note_off_c, 0, 69, 0
3, 40970, Note_off_c, 0, 76, 0
3, 41081, Note_off_c, 0, 74, 0
3, 41088, Note_on_c, 0, 74, 100
3, 41088, Note_on_c, 0, 78, 100
3, 41088, Note_off_c, 0, 50, 0
3, 41088, Note_on_c, 0, 50, 100
3, 41152, Note_off_c, 0, 74, 0
3, 41152, Note_off_c, 0, 78, 0
3, 41216, Note_on_c, 0, 74, 100
3, 41216, Note_on_c, 0, 79, 100
3, 41216, Note_off_c, 0, 50, 0
3, 41216, Note_on_c, 0, 52, 100
3, 41280, Note_off_c, 0, 74, 0
3, 41280, Note_off_c, 0, 79, 0
3, 41344, Note_on_c, 0, 74, 100
3, 41344, Note_on_c, 0, 81, 100
3, 41344, Note_off_c, 0, 52, 0
3, 41344, Note_on_c, 0, 54, 100
3, 41408, Note_off_c, 0, 74, 0
3, 41408, Note_off_c, 0, 81, 0
3, 41472, Note_on_c, 0, 79, 100
3, 41472, Note_on_c, 0, 74, 100
3, 41472, Note_off_c, 0, 54, 0
3, 41472, Note_on_c, 0, 55, 100
3, 41600, Note_off_c, 0, 74, 0
3, 41600, Note_on_c, 0, 81, 100
3, 41600, Note_on_c, 0, 74, 100
3, 41600, Note_off_c, 0, 55, 0
3, 41600, Note_on_c, 0, 55, 100
3, 41602, Note_off_c, 0, 79, 0
3, 41664, Note_on_c, 0, 83, 100
3, 41665, Note_off_c, 0, 81, 0
3, 41728, Note_off_c, 0, 74, 0
3, 41728, Note_on_c, 0, 81, 100
3, 41728, Note_on_c, 0, 74, 100
3, 41728, Note_off_c, 0, 55, 0
3, 41728, Note_on_c, 0, 55, 100
3, 41729, Note_off_c, 0, 83, 0
3, 41849, Note_off_c, 0, 81, 0
3, 41849, Note_off_c, 0, 74, 0
3, 41856, Note_on_c, 0, 79, 100
3, 41856, Note_on_c, 0, 74, 100
3, 41856, Note_off_c, 0, 55, 0
3, 41856, Note_on_c, 0, 55, 100
3, 41894, Note_off_c, 0, 79, 0
3, 41984, Note_off_c, 0, 74, 0
3, 41984, Note_on_c, 0, 74, 100
3, 41984, Note_on_c, 0, 79, 100
3, 41984, Note_off_c, 0, 55, 0
3, 41984, Note_on_c, 0, 57, 100
3, 42112, Note_on_c, 0, 69, 100
3, 42112, Note_on_c, 0, 78, 100
3, 42112, Note_off_c, 0, 57, 0
3, 42112, Note_on_c, 0, 57, 100
3, 42114, Note_off_c, 0, 74, 0
3, 42114, Note_off_c, 0, 79, 0
3, 42233, Note_off_c, 0, 69, 0
3, 42233, Note_off_c, 0, 78, 0
3, 42240, Note_on_c, 0, 69, 100
3, 42240, Note_on_c, 0, 74, 100
3, 42240, Note_off_c, 0, 57, 0
3, 42240, Note_on_c, 0, 57, 100
3, 42368, Note_off_c, 0, 69, 0
3, 42368, Note_off_c, 0, 74, 0
3, 42368, Note_on_c, 0, 69, 100
3, 42368, Note_on_c, 0, 78, 100
3, 42368, Note_off_c, 0, 57, 0
3, 42368, Note_on_c, 0, 57, 100
3, 42496, Note_off_c, 0, 69, 0
3, 42496, Note_off_c, 0, 78, 0
3, 42496, Note_on_c, 0, 69, 100
3, 42496, Note_on_c, 0, 78, 100
3, 42496, Note_off_c, 0, 57, 0
3, 42496, Note_on_c, 0, 45, 100
3, 42624, Note_off_c, 0, 69, 0
3, 42624, Note_on_c, 0, 69, 100
3, 42624, Note_on_c, 0, 76, 100
3, 42624, Note_off_c, 0, 45, 0
3, 42624, Note_on_c, 0, 45, 100
3, 42626, Note_off_c, 0, 78, 0
3, 42745, Note_off_c, 0, 69, 0
3, 42745, Note_off_c, 0, 76, 0
3, 42752, Note_on_c, 0, 69, 100
3, 42752, Note_on_c, 0, 74, 100
3, 42752, Note_off_c, 0, 45, 0
3, 42752, Note_on_c, 0, 45, 100
3, 42880, Note_off_c, 0, 69, 0
3, 42880, Note_off_c, 0, 74, 0
3, 42880, Note_on_c, 0, 67, 100
3, 42880, Note_on_c, 0, 73, 100
3, 42880, Note_off_c, 0, 45, 0
3, 42880, Note_on_c, 0, 45, 100
3, 43008, Note_off_c, 0, 67, 0
3, 43008, Note_off_c, 0, 73, 0
3, 43008, Note_on_c, 0, 66, 100
3, 43008, Note_on_c, 0, 74, 100
3, 43008, Note_off_c, 0, 45, 0
3, 43008, Note_on_c, 0, 50, 100
3, 43136, Note_off_c, 0, 66, 0
3, 43136, Note_off_c, 0, 74, 0
3, 43136, Note_on_c, 0, 62, 100
3, 43136, Note_on_c, 0, 66, 100
3, 43264, Note_off_c, 0, 62, 0
3, 43264, Note_off_c, 0, 66, 0
3, 43264, Note_on_c, 0, 64, 100
3, 43264, Note_on_c, 0, 67, 100
3, 43264, Note_off_c, 0, 50, 0
3, 43392, Note_off_c, 0, 64, 0
3, 43392, Note_off_c, 0, 67, 0
3, 43392, Note_on_c, 0, 64, 100
3, 43392, Note_on_c, 0, 67, 100
3, 43520, Note_off_c, 0, 64, 0
3, 43520, Note_off_c, 0, 67, 0
3, 43520, Note_on_c, 0, 66, 100
3, 43520, Note_on_c, 0, 69, 100
3, 43648, Note_off_c, 0, 66, 0
3, 43648, Note_off_c, 0, 69, 0
3, 43648, Note_on_c, 0, 66, 100
3, 43648, Note_on_c, 0, 69, 100
3, 43776, Note_off_c, 0, 66, 0
3, 43776, Note_off_c, 0, 69, 0
3, 43776, Note_on_c, 0, 62, 100
3, 43776, Note_on_c, 0, 66, 100
3, 43904, Note_off_c, 0, 62, 0
3, 43904, Note_off_c, 0, 66, 0
3, 43904, Note_on_c, 0, 62, 100
3, 43904, Note_on_c, 0, 66, 100
3, 44032, Note_off_c, 0, 62, 0
3, 44032, Note_off_c, 0, 66, 0
3, 44032, Note_on_c, 0, 61, 100
3, 44032, Note_on_c, 0, 64, 100
3, 44032, Note_on_c, 0, 45, 100
3, 44160, Note_off_c, 0, 61, 0
3, 44160, Note_off_c, 0, 64, 0
3, 44160, Note_on_c, 0, 61, 100
3, 44160, Note_on_c, 0, 64, 100
3, 44288, Note_off_c, 0, 61, 0
3, 44288, Note_off_c, 0, 64, 0
3, 44288, Note_on_c, 0, 62, 100
3, 44288, Note_on_c, 0, 66, 100
3, 44288, Note_off_c, 0, 45, 0
3, 44416, Note_off_c, 0, 62, 0
3, 44416, Note_off_c, 0, 66, 0
3, 44416, Note_on_c, 0, 62, 100
3, 44416, Note_on_c, 0, 66, 100
3, 44544, Note_off_c, 0, 62, 0
3, 44544, Note_off_c, 0, 66, 0
3, 44544, Note_on_c, 0, 64, 100
3, 44544, Note_on_c, 0, 67, 100
3, 44672, Note_off_c, 0, 64, 0
3, 44672, Note_off_c, 0, 67, 0
3, 44672, Note_on_c, 0, 64, 100
3, 44672, Note_on_c, 0, 67, 100
3, 44800, Note_off_c, 0, 64, 0
3, 44800, Note_off_c, 0, 67, 0
3, 44800, Note_on_c, 0, 61, 100
3, 44800, Note_on_c, 0, 64, 100
3, 44928, Note_off_c, 0, 61, 0
3, 44928, Note_off_c, 0, 64, 0
3, 44928, Note_on_c, 0, 61, 100
3, 44928, Note_on_c, 0, 64, 100
3, 45056, Note_off_c, 0, 61, 0
3, 45056, Note_off_c, 0, 64, 0
3, 45056, Note_on_c, 0, 62, 100
3, 45056, Note_on_c, 0, 66, 100
3, 45056, Note_on_c, 0, 50, 100
3, 45184, Note_off_c, 0, 62, 0
3, 45184, Note_off_c, 0, 66, 0
3, 45184, Note_on_c, 0, 62, 100
3, 45184, Note_on_c, 0, 66, 100
3, 45312, Note_off_c, 0, 62, 0
3, 45312, Note_off_c, 0, 66, 0
3, 45312, Note_on_c, 0, 64, 100
3, 45312, Note_on_c, 0, 67, 100
3, 45312, Note_off_c, 0, 50, 0
3, 45440, Note_off_c, 0, 64, 0
3, 45440, Note_off_c, 0, 67, 0
3, 45440, Note_on_c, 0, 64, 100
3, 45440, Note_on_c, 0, 67, 100
3, 45568, Note_off_c, 0, 64, 0
3, 45568, Note_off_c, 0, 67, 0
3, 45568, Note_on_c, 0, 66, 100
3, 45568, Note_on_c, 0, 69, 100
3, 45696, Note_off_c, 0, 66, 0
3, 45696, Note_off_c, 0, 69, 0
3, 45696, Note_on_c, 0, 66, 100
3, 45696, Note_on_c, 0, 69, 100
3, 45824, Note_off_c, 0, 66, 0
3, 45824, Note_off_c, 0, 69, 0
3, 45824, Note_on_c, 0, 62, 100
3, 45824, Note_on_c, 0, 66, 100
3, 45952, Note_off_c, 0, 62, 0
3, 45952, Note_off_c, 0, 66, 0
3, 45952, Note_on_c, 0, 62, 100
3, 45952, Note_on_c, 0, 66, 100
3, 46080, Note_off_c, 0, 62, 0
3, 46080, Note_off_c, 0, 66, 0
3, 46080, Note_on_c, 0, 61, 100
3, 46080, Note_on_c, 0, 64, 100
3, 46080, Note_on_c, 0, 45, 100
3, 46208, Note_off_c, 0, 61, 0
3, 46208, Note_off_c, 0, 64, 0
3, 46208, Note_on_c, 0, 61, 100
3, 46208, Note_on_c, 0, 64, 100
3, 46336, Note_off_c, 0, 61, 0
3, 46336, Note_off_c, 0, 64, 0
3, 46336, Note_on_c, 0, 62, 100
3, 46336, Note_on_c, 0, 66, 100
3, 46336, Note_off_c, 0, 45, 0
3, 46464, Note_off_c, 0, 62, 0
3, 46464, Note_off_c, 0, 66, 0
3, 46464, Note_on_c, 0, 62, 100
3, 46464, Note_on_c, 0, 66, 100
3, 46592, Note_off_c, 0, 62, 0
3, 46592, Note_off_c, 0, 66, 0
3, 46592, Note_on_c, 0, 64, 100
3, 46592, Note_on_c, 0, 67, 100
3, 46720, Note_off_c, 0, 64, 0
3, 46720, Note_off_c, 0, 67, 0
3, 46720, Note_on_c, 0, 64, 100
3, 46720, Note_on_c, 0, 67, 100
3, 46848, Note_off_c, 0, 64, 0
3, 46848, Note_off_c, 0, 67, 0
3, 46848, Note_on_c, 0, 61, 100
3, 46848, Note_on_c, 0, 64, 100
3, 46976, Note_off_c, 0, 61, 0
3, 46976, Note_off_c, 0, 64, 0
3, 46976, Note_on_c, 0, 61, 100
3, 46976, Note_on_c, 0, 64, 100
3, 47104, Note_off_c, 0, 61, 0
3, 47104, Note_off_c, 0, 64, 0
3, 47104, Note_on_c, 0, 62, 100
3, 47104, Note_on_c, 0, 66, 100
3, 47232, Note_on_c, 0, 50, 100
3, 47232, Note_on_c, 0, 62, 100
3, 47360, Note_off_c, 0, 62, 0
3, 47360, Note_off_c, 0, 66, 0
3, 47360, Note_off_c, 0, 50, 0
3, 47360, Note_off_c, 0, 62, 0
3, 47360, Note_on_c, 0, 54, 100
3, 47360, Note_on_c, 0, 66, 100
3, 47488, Note_off_c, 0, 54, 0
3, 47488, Note_off_c, 0, 66, 0
3, 47488, Note_on_c, 0, 52, 100
3, 47488, Note_on_c, 0, 64, 100
3, 47616, Note_on_c, 0, 71, 100
3, 47616, Note_on_c, 0, 78, 100
3, 47616, Note_off_c, 0, 52, 0
3, 47616, Note_off_c, 0, 64, 0
3, 47616, Note_on_c, 0, 51, 100
3, 47616, Note_on_c, 0, 63, 100
3, 47744, Note_off_c, 0, 51, 0
3, 47744, Note_off_c, 0, 63, 0
3, 47744, Note_on_c, 0, 47, 100
3, 47744, Note_on_c, 0, 59, 100
3, 47872, Note_off_c, 0, 47, 0
3, 47872, Note_off_c, 0, 59, 0
3, 47872, Note_on_c, 0, 49, 100
3, 47872, Note_on_c, 0, 61, 100
3, 48000, Note_off_c, 0, 49, 0
3, 48000, Note_off_c, 0, 61, 0
3, 48000, Note_on_c, 0, 51, 100
3, 48000, Note_on_c, 0, 63, 100
3, 48128, Note_on_c, 0, 76, 100
3, 48128, Note_off_c, 0, 51, 0
3, 48128, Note_off_c, 0, 63, 0
3, 48128, Note_on_c, 0, 52, 100
3, 48128, Note_on_c, 0, 64, 100
3, 48138, Note_off_c, 0, 71, 0
3, 48138, Note_off_c, 0, 78, 0
3, 48256, Note_off_c, 0, 52, 0
3, 48256, Note_off_c, 0, 64, 0
3, 48256, Note_on_c, 0, 55, 100
3, 48256, Note_on_c, 0, 67, 100
3, 48371, Note_off_c, 0, 76, 0
3, 48384, Note_off_c, 0, 55, 0
3, 48384, Note_off_c, 0, 67, 0
3, 48384, Note_on_c, 0, 52, 100
3, 48384, Note_on_c, 0, 64, 100
3, 48512, Note_off_c, 0, 52, 0
3, 48512, Note_off_c, 0, 64, 0
3, 48512, Note_on_c, 0, 50, 100
3, 48512, Note_on_c, 0, 62, 100
3, 48640, Note_on_c, 0, 69, 100
3, 48640, Note_on_c, 0, 76, 100
3, 48640, Note_off_c, 0, 50, 0
3, 48640, Note_off_c, 0, 62, 0
3, 48640, Note_on_c, 0, 49, 100
3, 48640, Note_on_c, 0, 61, 100
3, 48768, Note_off_c, 0, 49, 0
3, 48768, Note_off_c, 0, 61, 0
3, 48768, Note_on_c, 0, 45, 100
3, 48768, Note_on_c, 0, 57, 100
3, 48896, Note_off_c, 0, 45, 0
3, 48896, Note_off_c, 0, 57, 0
3, 48896, Note_on_c, 0, 47, 100
3, 48896, Note_on_c, 0, 59, 100
3, 49024, Note_off_c, 0, 47, 0
3, 49024, Note_off_c, 0, 59, 0
3, 49024, Note_on_c, 0, 49, 100
3, 49024, Note_on_c, 0, 61, 100
3, 49152, Note_on_c, 0, 74, 100
3, 49152, Note_off_c, 0, 49, 0
3, 49152, Note_off_c, 0, 61, 0
3, 49152, Note_on_c, 0, 50, 100
3, 49162, Note_off_c, 0, 69, 0
3, 49162, Note_off_c, 0, 76, 0
3, 49273, Note_off_c, 0, 74, 0
3, 49280, Note_on_c, 0, 74, 100
3, 49280, Note_on_c, 0, 78, 100
3, 49280, Note_off_c, 0, 50, 0
3, 49280, Note_on_c, 0, 50, 100
3, 49344, Note_off_c, 0, 74, 0
3, 49344, Note_off_c, 0, 78, 0
3, 49408, Note_on_c, 0, 74, 100
3, 49408, Note_on_c, 0, 79, 100
3, 49408, Note_off_c, 0, 50, 0
3, 49408, Note_on_c, 0, 52, 100
3, 49472, Note_off_c, 0, 74, 0
3, 49472, Note_off_c, 0, 79, 0
3, 49536, Note_on_c, 0, 74, 100
3, 49536, Note_on_c, 0, 81, 100
3, 49536, Note_off_c, 0, 52, 0
3, 49536, Note_on_c, 0, 54, 100
3, 49600, Note_off_c, 0, 74, 0
3, 49600, Note_off_c, 0, 81, 0
3, 49664, Note_on_c, 0, 79, 100
3, 49664, Note_on_c, 0, 74, 100
3, 49664, Note_off_c, 0, 54, 0
3, 49664, Note_on_c, 0, 55, 100
3, 49792, Note_off_c, 0, 74, 0
3, 49792, Note_on_c, 0, 81, 100
3, 49792, Note_on_c, 0, 74, 100
3, 49792, Note_off_c, 0, 55, 0
3, 49792, Note_on_c, 0, 55, 100
3, 49794, Note_off_c, 0, 79, 0
3, 49856, Note_on_c, 0, 83, 100
3, 49857, Note_off_c, 0, 81, 0
3, 49920, Note_off_c, 0, 74, 0
3, 49920, Note_on_c, 0, 81, 100
3, 49920, Note_on_c, 0, 74, 100
3, 49920, Note_off_c, 0, 55, 0
3, 49920, Note_on_c, 0, 55, 100
3, 49921, Note_off_c, 0, 83, 0
3, 50041, Note_off_c, 0, 81, 0
3, 50041, Note_off_c, 0, 74, 0
3, 50048, Note_on_c, 0, 79, 100
3, 50048, Note_on_c, 0, 74, 100
3, 50048, Note_off_c, 0, 55, 0
3, 50048, Note_on_c, 0, 55, 100
3, 50086, Note_off_c, 0, 79, 0
3, 50176, Note_off_c, 0, 74, 0
3, 50176, Note_on_c, 0, 74, 100
3, 50176, Note_on_c, 0, 79, 100
3, 50176, Note_off_c, 0, 55, 0
3, 50176, Note_on_c, 0, 57, 100
3, 50304, Note_on_c, 0, 69, 100
3, 50304, Note_on_c, 0, 78, 100
3, 50304, Note_off_c, 0, 57, 0
3, 50304, Note_on_c, 0, 57, 100
3, 50306, Note_off_c, 0, 74, 0
3, 50306, Note_off_c, 0, 79, 0
3, 50425, Note_off_c, 0, 69, 0
3, 50425, Note_off_c, 0, 78, 0
3, 50432, Note_on_c, 0, 69, 100
3, 50432, Note_on_c, 0, 74, 100
3, 50432, Note_off_c, 0, 57, 0
3, 50432, Note_on_c, 0, 57, 100
3, 50560, Note_off_c, 0, 69, 0
3, 50560, Note_off_c, 0, 74, 0
3, 50560, Note_on_c, 0, 69, 100
3, 50560, Note_on_c, 0, 78, 100
3, 50560, Note_off_c, 0, 57, 0
3, 50560, Note_on_c, 0, 57, 100
3, 50688, Note_off_c, 0, 69, 0
3, 50688, Note_off_c, 0, 78, 0
3, 50688, Note_on_c, 0, 69, 100
3, 50688, Note_on_c, 0, 78, 100
3, 50688, Note_off_c, 0, 57, 0
3, 50688, Note_on_c, 0, 45, 100
3, 50816, Note_off_c, 0, 69, 0
3, 50816, Note_on_c, 0, 69, 100
3, 50816, Note_on_c, 0, 76, 100
3, 50816, Note_off_c, 0, 45, 0
3, 50816, Note_on_c, 0, 45, 100
3, 50818, Note_off_c, 0, 78, 0
3, 50937, Note_off_c, 0, 69, 0
3, 50937, Note_off_c, 0, 76, 0
3, 50944, Note_on_c, 0, 69, 100
3, 50944, Note_on_c, 0, 74, 100
3, 50944, Note_off_c, 0, 45, 0
3, 50944, Note_on_c, 0, 45, 100
3, 51072, Note_off_c, 0, 69, 0
3, 51072, Note_off_c, 0, 74, 0
3, 51072, Note_on_c, 0, 67, 100
3, 51072, Note_on_c, 0, 73, 100
3, 51072, Note_off_c, 0, 45, 0
3, 51072, Note_on_c, 0, 45, 100
3, 51200, Note_off_c, 0, 67, 0
3, 51200, Note_off_c, 0, 73, 0
3, 51200, Note_on_c, 0, 66, 100
3, 51200, Note_on_c, 0, 74, 100
3, 51200, Note_off_c, 0, 45, 0
3, 51200, Note_on_c, 0, 50, 100
3, 51200, Note_on_c, 0, 62, 100
3, 51328, Note_off_c, 0, 66, 0
3, 51328, Note_off_c, 0, 74, 0
3, 51328, Note_on_c, 0, 69, 100
3, 51328, Note_off_c, 0, 50, 0
3, 51328, Note_off_c, 0, 62, 0
3, 51328, Note_on_c, 0, 45, 100
3, 51328, Note_on_c, 0, 57, 100
3, 51456, Note_off_c, 0, 69, 0
3, 51456, Note_on_c, 0, 71, 100
3, 51456, Note_off_c, 0, 45, 0
3, 51456, Note_off_c, 0, 57, 0
3, 51456, Note_on_c, 0, 47, 100
3, 51456, Note_on_c, 0, 59, 100
3, 51584, Note_off_c, 0, 71, 0
3, 51584, Note_on_c, 0, 73, 100
3, 51584, Note_off_c, 0, 47, 0
3, 51584, Note_off_c, 0, 59, 0
3, 51584, Note_on_c, 0, 49, 100
3, 51584, Note_on_c, 0, 61, 100
3, 51712, Note_off_c, 0, 73, 0
3, 51712, Note_on_c, 0, 74, 100
3, 51712, Note_off_c, 0, 49, 0
3, 51712, Note_off_c, 0, 61, 0
3, 51712, Note_on_c, 0, 50, 100
3, 51712, Note_on_c, 0, 62, 100
3, 51840, Note_off_c, 0, 74, 0
3, 51840, Note_on_c, 0, 74, 100
3, 51840, Note_off_c, 0, 50, 0
3, 51840, Note_off_c, 0, 62, 0
3, 51840, Note_on_c, 0, 50, 100
3, 51840, Note_on_c, 0, 62, 100
3, 51968, Note_off_c, 0, 74, 0
3, 51968, Note_on_c, 0, 76, 100
3, 51968, Note_off_c, 0, 50, 0
3, 51968, Note_off_c, 0, 62, 0
3, 51968, Note_on_c, 0, 52, 100
3, 51968, Note_on_c, 0, 64, 100
3, 51993, Note_off_c, 0, 76, 0
3, 52000, Note_on_c, 0, 78, 100
3, 52025, Note_off_c, 0, 78, 0
3, 52032, Note_on_c, 0, 76, 100
3, 52057, Note_off_c, 0, 76, 0
3, 52064, Note_on_c, 0, 78, 100
3, 52089, Note_off_c, 0, 78, 0
3, 52096, Note_on_c, 0, 76, 100
3, 52096, Note_on_c, 0, 74, 100
3, 52096, Note_off_c, 0, 52, 0
3, 52096, Note_off_c, 0, 64, 0
3, 52096, Note_on_c, 0, 52, 100
3, 52096, Note_on_c, 0, 64, 100
3, 52097, Note_off_c, 0, 76, 0
3, 52160, Note_on_c, 0, 76, 100
3, 52161, Note_off_c, 0, 74, 0
3, 52224, Note_on_c, 0, 78, 100
3, 52224, Note_off_c, 0, 52, 0
3, 52224, Note_off_c, 0, 64, 0
3, 52224, Note_on_c, 0, 54, 100
3, 52224, Note_on_c, 0, 66, 100
3, 52225, Note_off_c, 0, 76, 0
3, 52345, Note_off_c, 0, 78, 0
3, 52352, Note_on_c, 0, 73, 100
3, 52352, Note_off_c, 0, 54, 0
3, 52352, Note_off_c, 0, 66, 0
3, 52352, Note_on_c, 0, 49, 100
3, 52352, Note_on_c, 0, 61, 100
3, 52480, Note_off_c, 0, 73, 0
3, 52480, Note_on_c, 0, 74, 100
3, 52480, Note_off_c, 0, 49, 0
3, 52480, Note_off_c, 0, 61, 0
3, 52480, Note_on_c, 0, 50, 100
3, 52480, Note_on_c, 0, 62, 100
3, 52608, Note_off_c, 0, 74, 0
3, 52608, Note_on_c, 0, 76, 100
3, 52608, Note_off_c, 0, 50, 0
3, 52608, Note_off_c, 0, 62, 0
3, 52608, Note_on_c, 0, 52, 100
3, 52608, Note_on_c, 0, 64, 100
3, 52736, Note_off_c, 0, 76, 0
3, 52736, Note_on_c, 0, 78, 100
3, 52736, Note_off_c, 0, 52, 0
3, 52736, Note_off_c, 0, 64, 0
3, 52736, Note_on_c, 0, 54, 100
3, 52736, Note_on_c, 0, 66, 100
3, 52864, Note_off_c, 0, 78, 0
3, 52864, Note_on_c, 0, 78, 100
3, 52864, Note_off_c, 0, 54, 0
3, 52864, Note_off_c, 0, 66, 0
3, 52864, Note_on_c, 0, 54, 100
3, 52864, Note_on_c, 0, 66, 100
3, 52992, Note_off_c, 0, 78, 0
3, 52992, Note_on_c, 0, 79, 100
3, 52992, Note_off_c, 0, 54, 0
3, 52992, Note_off_c, 0, 66, 0
3, 52992, Note_on_c, 0, 55, 100
3, 52992, Note_on_c, 0, 67, 100
3, 53017, Note_off_c, 0, 79, 0
3, 53024, Note_on_c, 0, 81, 100
3, 53049, Note_off_c, 0, 81, 0
3, 53056, Note_on_c, 0, 79, 100
3, 53081, Note_off_c, 0, 79, 0
3, 53088, Note_on_c, 0, 81, 100
3, 53113, Note_off_c, 0, 81, 0
3, 53120, Note_on_c, 0, 79, 100
3, 53120, Note_on_c, 0, 78, 100
3, 53120, Note_off_c, 0, 55, 0
3, 53120, Note_off_c, 0, 67, 0
3, 53120, Note_on_c, 0, 55, 100
3, 53120, Note_on_c, 0, 67, 100
3, 53121, Note_off_c, 0, 79, 0
3, 53184, Note_on_c, 0, 79, 100
3, 53185, Note_off_c, 0, 78, 0
3, 53248, Note_on_c, 0, 81, 100
3, 53248, Note_off_c, 0, 55, 0
3, 53248, Note_off_c, 0, 67, 0
3, 53248, Note_on_c, 0, 57, 100
3, 53248, Note_on_c, 0, 69, 100
3, 53249, Note_off_c, 0, 79, 0
3, 53369, Note_off_c, 0, 81, 0
3, 53376, Note_on_c, 0, 81, 100
3, 53376, Note_off_c, 0, 57, 0
3, 53376, Note_off_c, 0, 69, 0
3, 53376, Note_on_c, 0, 57, 100
3, 53376, Note_on_c, 0, 69, 100
3, 53504, Note_off_c, 0, 81, 0
3, 53504, Note_on_c, 0, 82, 100
3, 53504, Note_off_c, 0, 57, 0
3, 53504, Note_off_c, 0, 69, 0
3, 53504, Note_on_c, 0, 58, 100
3, 53504, Note_on_c, 0, 70, 100
3, 53529, Note_off_c, 0, 82, 0
3, 53536, Note_on_c, 0, 83, 100
3, 53561, Note_off_c, 0, 83, 0
3, 53568, Note_on_c, 0, 82, 100
3, 53593, Note_off_c, 0, 82, 0
3, 53600, Note_on_c, 0, 83, 100
3, 53625, Note_off_c, 0, 83, 0
3, 53632, Note_on_c, 0, 82, 100
3, 53632, Note_on_c, 0, 80, 100
3, 53632, Note_off_c, 0, 58, 0
3, 53632, Note_off_c, 0, 70, 0
3, 53632, Note_on_c, 0, 58, 100
3, 53632, Note_on_c, 0, 70, 100
3, 53633, Note_off_c, 0, 82, 0
3, 53696, Note_on_c, 0, 82, 100
3, 53697, Note_off_c, 0, 80, 0
3, 53760, Note_on_c, 0, 83, 100
3, 53760, Note_off_c, 0, 58, 0
3, 53760, Note_off_c, 0, 70, 0
3, 53760, Note_on_c, 0, 59, 100
3, 53760, Note_on_c, 0, 71, 100
3, 53761, Note_off_c, 0, 82, 0
3, 54003, Note_off_c, 0, 83, 0
3, 54016, Note_off_c, 0, 59, 0
3, 54016, Note_off_c, 0, 71, 0
3, 54272, Note_on_c, 0, 67, 100
3, 54272, Note_on_c, 0, 64, 100
3, 54272, Note_on_c, 0, 55, 100
3, 54784, Note_on_c, 0, 57, 100
3, 54794, Note_off_c, 0, 55, 0
3, 55040, Note_on_c, 0, 62, 100
3, 55055, Note_off_c, 0, 64, 0
3, 55168, Note_on_c, 0, 61, 100
3, 55170, Note_off_c, 0, 62, 0
3, 55244, Note_off_c, 0, 67, 0
3, 55270, Note_off_c, 0, 57, 0
3, 55289, Note_off_c, 0, 61, 0
3, 55296, Note_on_c, 0, 62, 100
3, 55296, Note_on_c, 0, 66, 100
3, 55296, Note_on_c, 0, 50, 100
3, 55424, Note_off_c, 0, 62, 0
3, 55424, Note_off_c, 0, 66, 0
3, 55424, Note_off_c, 0, 50, 0
3, 55552, Note_on_c, 0, 62, 100
3, 55552, Note_on_c, 0, 69, 100
3, 55552, Note_on_c, 0, 50, 100
3, 55680, Note_off_c, 0, 62, 0
3, 55680, Note_off_c, 0, 69, 0
3, 55680, Note_off_c, 0, 50, 0
3, 55808, Note_on_c, 0, 62, 100
3, 55808, Note_on_c, 0, 66, 100
3, 55808, Note_on_c, 0, 50, 100
3, 55936, Note_off_c, 0, 62, 0
3, 55936, Note_off_c, 0, 66, 0
3, 55936, Note_off_c, 0, 50, 0
3, 56320, Note_on_c, 0, 62, 100
3, 56320, Note_on_c, 0, 50, 100
3, 56576, Note_off_c, 0, 62, 0
3, 56576, Note_off_c, 0, 50, 0
3, 56704, Note_on_c, 0, 57, 100
3, 56704, Note_on_c, 0, 45, 100
3, 56832, Note_off_c, 0, 57, 0
3, 56832, Note_on_c, 0, 62, 100
3, 56832, Note_off_c, 0, 45, 0
3, 56832, Note_on_c, 0, 50, 100
3, 57088, Note_off_c, 0, 62, 0
3, 57088, Note_off_c, 0, 50, 0
3, 57216, Note_on_c, 0, 57, 100
3, 57216, Note_on_c, 0, 45, 100
3, 57344, Note_off_c, 0, 57, 0
3, 57344, Note_on_c, 0, 62, 100
3, 57344, Note_off_c, 0, 45, 0
3, 57344, Note_on_c, 0, 50, 100
3, 57472, Note_off_c, 0, 62, 0
3, 57472, Note_on_c, 0, 57, 100
3, 57472, Note_off_c, 0, 50, 0
3, 57472, Note_on_c, 0, 45, 100
3, 57600, Note_off_c, 0, 57, 0
3, 57600, Note_on_c, 0, 62, 100
3, 57600, Note_off_c, 0, 45, 0
3, 57600, Note_on_c, 0, 50, 100
3, 57728, Note_off_c, 0, 62, 0
3, 57728, Note_on_c, 0, 66, 100
3, 57728, Note_off_c, 0, 50, 0
3, 57728, Note_on_c, 0, 54, 100
3, 57856, Note_off_c, 0, 66, 0
3, 57856, Note_on_c, 0, 69, 100
3, 57856, Note_off_c, 0, 54, 0
3, 57856, Note_on_c, 0, 57, 100
3, 58112, Note_off_c, 0, 69, 0
3, 58112, Note_off_c, 0, 57, 0
3, 58368, Note_on_c, 0, 69, 100
3, 58368, Note_on_c, 0, 57, 100
3, 58624, Note_off_c, 0, 69, 0
3, 58624, Note_off_c, 0, 57, 0
3, 58752, Note_on_c, 0, 66, 100
3, 58752, Note_on_c, 0, 54, 100
3, 58880, Note_off_c, 0, 66, 0
3, 58880, Note_on_c, 0, 69, 100
3, 58880, Note_off_c, 0, 54, 0
3, 58880, Note_on_c, 0, 57, 100
3, 59136, Note_off_c, 0, 69, 0
3, 59136, Note_off_c, 0, 57, 0
3, 59264, Note_on_c, 0, 66, 100
3, 59264, Note_on_c, 0, 54, 100
3, 59392, Note_off_c, 0, 66, 0
3, 59392, Note_on_c, 0, 69, 100
3, 59392, Note_off_c, 0, 54, 0
3, 59392, Note_on_c, 0, 57, 100
3, 59520, Note_off_c, 0, 69, 0
3, 59520, Note_on_c, 0, 66, 100
3, 59520, Note_off_c, 0, 57, 0
3, 59520, Note_on_c, 0, 54, 100
3, 59648, Note_off_c, 0, 66, 0
3, 59648, Note_on_c, 0, 63, 100
3, 59648, Note_off_c, 0, 54, 0
3, 59648, Note_on_c, 0, 51, 100
3, 59776, Note_off_c, 0, 63, 0
3, 59776, Note_on_c, 0, 66, 100
3, 59776, Note_off_c, 0, 51, 0
3, 59776, Note_on_c, 0, 54, 100
3, 59904, Note_off_c, 0, 66, 0
3, 59904, Note_on_c, 0, 59, 100
3, 59904, Note_off_c, 0, 54, 0
3, 59904, Note_on_c, 0, 47, 100
3, 60160, Note_off_c, 0, 59, 0
3, 60160, Note_off_c, 0, 47, 0
3, 60416, Note_on_c, 0, 60, 100
3, 60416, Note_on_c, 0, 64, 100
3, 60416, Note_on_c, 0, 48, 100
3, 60544, Note_off_c, 0, 60, 0
3, 60544, Note_off_c, 0, 64, 0
3, 60544, Note_on_c, 0, 60, 100
3, 60544, Note_on_c, 0, 64, 100
3, 60672, Note_off_c, 0, 60, 0
3, 60672, Note_off_c, 0, 64, 0
3, 60672, Note_on_c, 0, 62, 100
3, 60672, Note_on_c, 0, 65, 100
3, 60672, Note_off_c, 0, 48, 0
3, 60800, Note_off_c, 0, 62, 0
3, 60800, Note_off_c, 0, 65, 0
3, 60800, Note_on_c, 0, 62, 100
3, 60800, Note_on_c, 0, 65, 100
3, 60928, Note_off_c, 0, 62, 0
3, 60928, Note_off_c, 0, 65, 0
3, 60928, Note_on_c, 0, 64, 100
3, 60928, Note_on_c, 0, 67, 100
3, 61056, Note_off_c, 0, 64, 0
3, 61056, Note_off_c, 0, 67, 0
3, 61056, Note_on_c, 0, 64, 100
3, 61056, Note_on_c, 0, 67, 100
3, 61184, Note_off_c, 0, 64, 0
3, 61184, Note_off_c, 0, 67, 0
3, 61184, Note_on_c, 0, 60, 100
3, 61184, Note_on_c, 0, 64, 100
3, 61312, Note_off_c, 0, 60, 0
3, 61312, Note_off_c, 0, 64, 0
3, 61312, Note_on_c, 0, 60, 100
3, 61312, Note_on_c, 0, 64, 100
3, 61440, Note_off_c, 0, 60, 0
3, 61440, Note_off_c, 0, 64, 0
3, 61440, Note_on_c, 0, 59, 100
3, 61440, Note_on_c, 0, 62, 100
3, 61440, Note_on_c, 0, 43, 100
3, 61568, Note_off_c, 0, 59, 0
3, 61568, Note_off_c, 0, 62, 0
3, 61568, Note_on_c, 0, 59, 100
3, 61568, Note_on_c, 0, 62, 100
3, 61696, Note_off_c, 0, 59, 0
3, 61696, Note_off_c, 0, 62, 0
3, 61696, Note_on_c, 0, 60, 100
3, 61696, Note_on_c, 0, 64, 100
3, 61696, Note_off_c, 0, 43, 0
3, 61824, Note_off_c, 0, 60, 0
3, 61824, Note_off_c, 0, 64, 0
3, 61824, Note_on_c, 0, 60, 100
3, 61824, Note_on_c, 0, 64, 100
3, 61952, Note_off_c, 0, 60, 0
3, 61952, Note_off_c, 0, 64, 0
3, 61952, Note_on_c, 0, 62, 100
3, 61952, Note_on_c, 0, 65, 100
3, 62080, Note_off_c, 0, 62, 0
3, 62080, Note_off_c, 0, 65, 0
3, 62080, Note_on_c, 0, 62, 100
3, 62080, Note_on_c, 0, 65, 100
3, 62208, Note_off_c, 0, 62, 0
3, 62208, Note_off_c, 0, 65, 0
3, 62208, Note_on_c, 0, 59, 100
3, 62208, Note_on_c, 0, 62, 100
3, 62336, Note_off_c, 0, 59, 0
3, 62336, Note_off_c, 0, 62, 0
3, 62336, Note_on_c, 0, 59, 100
3, 62336, Note_on_c, 0, 62, 100
3, 62464, Note_off_c, 0, 59, 0
3, 62464, Note_off_c, 0, 62, 0
3, 62464, Note_on_c, 0, 60, 100
3, 62464, Note_on_c, 0, 64, 100
3, 62464, Note_on_c, 0, 48, 100
3, 62592, Note_off_c, 0, 60, 0
3, 62592, Note_off_c, 0, 64, 0
3, 62592, Note_on_c, 0, 60, 100
3, 62592, Note_on_c, 0, 64, 100
3, 62720, Note_off_c, 0, 60, 0
3, 62720, Note_off_c, 0, 64, 0
3, 62720, Note_on_c, 0, 62, 100
3, 62720, Note_on_c, 0, 65, 100
3, 62720, Note_off_c, 0, 48, 0
3, 62848, Note_off_c, 0, 62, 0
3, 62848, Note_off_c, 0, 65, 0
3, 62848, Note_on_c, 0, 62, 100
3, 62848, Note_on_c, 0, 65, 100
3, 62976, Note_off_c, 0, 62, 0
3, 62976, Note_off_c, 0, 65, 0
3, 62976, Note_on_c, 0, 64, 100
3, 62976, Note_on_c, 0, 67, 100
3, 63104, Note_off_c, 0, 64, 0
3, 63104, Note_off_c, 0, 67, 0
3, 63104, Note_on_c, 0, 64, 100
3, 63104, Note_on_c, 0, 67, 100
3, 63232, Note_off_c, 0, 64, 0
3, 63232, Note_off_c, 0, 67, 0
3, 63232, Note_on_c, 0, 60, 100
3, 63232, Note_on_c, 0, 64, 100
3, 63360, Note_off_c, 0, 60, 0
3, 63360, Note_off_c, 0, 64, 0
3, 63360, Note_on_c, 0, 60, 100
3, 63360, Note_on_c, 0, 64, 100
3, 63488, Note_off_c, 0, 60, 0
3, 63488, Note_off_c, 0, 64, 0
3, 63488, Note_on_c, 0, 59, 100
3, 63488, Note_on_c, 0, 62, 100
3, 63488, Note_on_c, 0, 43, 100
3, 63616, Note_off_c, 0, 59, 0
3, 63616, Note_off_c, 0, 62, 0
3, 63616, Note_on_c, 0, 59, 100
3, 63616, Note_on_c, 0, 62, 100
3, 63744, Note_off_c, 0, 59, 0
3, 63744, Note_off_c, 0, 62, 0
3, 63744, Note_on_c, 0, 60, 100
3, 63744, Note_on_c, 0, 64, 100
3, 63744, Note_off_c, 0, 43, 0
3, 63872, Note_off_c, 0, 60, 0
3, 63872, Note_off_c, 0, 64, 0
3, 63872, Note_on_c, 0, 60, 100
3, 63872, Note_on_c, 0, 64, 100
3, 64000, Note_off_c, 0, 60, 0
3, 64000, Note_off_c, 0, 64, 0
3, 64000, Note_on_c, 0, 62, 100
3, 64000, Note_on_c, 0, 65, 100
3, 64128, Note_off_c, 0, 62, 0
3, 64128, Note_off_c, 0, 65, 0
3, 64128, Note_on_c, 0, 62, 100
3, 64128, Note_on_c, 0, 65, 100
3, 64256, Note_off_c, 0, 62, 0
3, 64256, Note_off_c, 0, 65, 0
3, 64256, Note_on_c, 0, 59, 100
3, 64256, Note_on_c, 0, 62, 100
3, 64384, Note_off_c, 0, 59, 0
3, 64384, Note_off_c, 0, 62, 0
3, 64384, Note_on_c, 0, 59, 100
3, 64384, Note_on_c, 0, 62, 100
3, 64512, Note_off_c, 0, 59, 0
3, 64512, Note_off_c, 0, 62, 0
3, 64512, Note_on_c, 0, 60, 100
3, 64512, Note_on_c, 0, 64, 100
3, 64512, Note_on_c, 0, 48, 100
3, 64640, Note_off_c, 0, 60, 0
3, 64640, Note_off_c, 0, 64, 0
3, 64640, Note_on_c, 0, 60, 100
3, 64640, Note_on_c, 0, 64, 100
3, 64768, Note_off_c, 0, 60, 0
3, 64768, Note_off_c, 0, 64, 0
3, 64768, Note_on_c, 0, 62, 100
3, 64768, Note_on_c, 0, 65, 100
3, 64768, Note_off_c, 0, 48, 0
3, 64896, Note_off_c, 0, 62, 0
3, 64896, Note_off_c, 0, 65, 0
3, 64896, Note_on_c, 0, 62, 100
3, 64896, Note_on_c, 0, 65, 100
3, 65024, Note_off_c, 0, 62, 0
3, 65024, Note_off_c, 0, 65, 0
3, 65024, Note_on_c, 0, 64, 100
3, 65024, Note_on_c, 0, 67, 100
3, 65152, Note_off_c, 0, 64, 0
3, 65152, Note_off_c, 0, 67, 0
3, 65152, Note_on_c, 0, 64, 100
3, 65152, Note_on_c, 0, 67, 100
3, 65280, Note_off_c, 0, 64, 0
3, 65280, Note_off_c, 0, 67, 0
3, 65280, Note_on_c, 0, 60, 100
3, 65280, Note_on_c, 0, 64, 100
3, 65408, Note_off_c, 0, 60, 0
3, 65408, Note_off_c, 0, 64, 0
3, 65408, Note_on_c, 0, 60, 100
3, 65408, Note_on_c, 0, 64, 100
3, 65536, Note_off_c, 0, 60, 0
3, 65536, Note_off_c, 0, 64, 0
3, 65536, Note_on_c, 0, 59, 100
3, 65536, Note_on_c, 0, 62, 100
3, 65536, Note_on_c, 0, 52, 100
3, 65664, Note_off_c, 0, 59, 0
3, 65664, Note_off_c, 0, 62, 0
3, 65664, Note_on_c, 0, 59, 100
3, 65664, Note_on_c, 0, 62, 100
3, 65792, Note_off_c, 0, 59, 0
3, 65792, Note_off_c, 0, 62, 0
3, 65792, Note_on_c, 0, 60, 100
3, 65792, Note_on_c, 0, 64, 100
3, 65792, Note_off_c, 0, 52, 0
3, 65920, Note_off_c, 0, 60, 0
3, 65920, Note_off_c, 0, 64, 0
3, 65920, Note_on_c, 0, 60, 100
3, 65920, Note_on_c, 0, 64, 100
3, 66048, Note_off_c, 0, 60, 0
3, 66048, Note_off_c, 0, 64, 0
3, 66048, Note_on_c, 0, 62, 100
3, 66048, Note_on_c, 0, 65, 100
3, 66176, Note_off_c, 0, 62, 0
3, 66176, Note_off_c, 0, 65, 0
3, 66176, Note_on_c, 0, 62, 100
3, 66176, Note_on_c, 0, 65, 100
3, 66304, Note_off_c, 0, 62, 0
3, 66304, Note_off_c, 0, 65, 0
3, 66304, Note_on_c, 0, 59, 100
3, 66304, Note_on_c, 0, 62, 100
3, 66432, Note_off_c, 0, 59, 0
3, 66432, Note_off_c, 0, 62, 0
3, 66432, Note_on_c, 0, 59, 100
3, 66432, Note_on_c, 0, 62, 100
3, 66560, Note_off_c, 0, 59, 0
3, 66560, Note_off_c, 0, 62, 0
3, 66560, Note_on_c, 0, 57, 100
3, 66560, Note_on_c, 0, 60, 100
3, 66560, Note_on_c, 0, 45, 100
3, 66688, Note_off_c, 0, 57, 0
3, 66688, Note_off_c, 0, 60, 0
3, 66688, Note_on_c, 0, 57, 100
3, 66688, Note_on_c, 0, 60, 100
3, 66816, Note_off_c, 0, 57, 0
3, 66816, Note_off_c, 0, 60, 0
3, 66816, Note_on_c, 0, 59, 100
3, 66816, Note_on_c, 0, 62, 100
3, 66816, Note_off_c, 0, 45, 0
3, 66944, Note_off_c, 0, 59, 0
3, 66944, Note_off_c, 0, 62, 0
3, 66944, Note_on_c, 0, 59, 100
3, 66944, Note_on_c, 0, 62, 100
3, 67072, Note_off_c, 0, 59, 0
3, 67072, Note_off_c, 0, 62, 0
3, 67072, Note_on_c, 0, 60, 100
3, 67072, Note_on_c, 0, 64, 100
3, 67200, Note_off_c, 0, 60, 0
3, 67200, Note_off_c, 0, 64, 0
3, 67200, Note_on_c, 0, 60, 100
3, 67200, Note_on_c, 0, 64, 100
3, 67328, Note_off_c, 0, 60, 0
3, 67328, Note_off_c, 0, 64, 0
3, 67328, Note_on_c, 0, 57, 100
3, 67328, Note_on_c, 0, 60, 100
3, 67456, Note_off_c, 0, 57, 0
3, 67456, Note_off_c, 0, 60, 0
3, 67456, Note_on_c, 0, 57, 100
3, 67456, Note_on_c, 0, 60, 100
3, 67584, Note_off_c, 0, 57, 0
3, 67584, Note_off_c, 0, 60, 0
3, 67584, Note_on_c, 0, 57, 100
3, 67584, Note_on_c, 0, 60, 100
3, 67584, Note_on_c, 0, 50, 100
3, 67712, Note_off_c, 0, 57, 0
3, 67712, Note_off_c, 0, 60, 0
3, 67712, Note_on_c, 0, 57, 100
3, 67712, Note_on_c, 0, 60, 100
3, 67840, Note_off_c, 0, 57, 0
3, 67840, Note_off_c, 0, 60, 0
3, 67840, Note_on_c, 0, 58, 100
3, 67840, Note_on_c, 0, 62, 100
3, 67840, Note_off_c, 0, 50, 0
3, 67968, Note_off_c, 0, 58, 0
3, 67968, Note_off_c, 0, 62, 0
3, 67968, Note_on_c, 0, 58, 100
3, 67968, Note_on_c, 0, 62, 100
3, 68096, Note_off_c, 0, 58, 0
3, 68096, Note_off_c, 0, 62, 0
3, 68096, Note_on_c, 0, 60, 100
3, 68096, Note_on_c, 0, 63, 100
3, 68224, Note_off_c, 0, 60, 0
3, 68224, Note_off_c, 0, 63, 0
3, 68224, Note_on_c, 0, 60, 100
3, 68224, Note_on_c, 0, 63, 100
3, 68352, Note_off_c, 0, 60, 0
3, 68352, Note_off_c, 0, 63, 0
3, 68352, Note_on_c, 0, 57, 100
3, 68352, Note_on_c, 0, 60, 100
3, 68480, Note_off_c, 0, 57, 0
3, 68480, Note_off_c, 0, 60, 0
3, 68480, Note_on_c, 0, 57, 100
3, 68480, Note_on_c, 0, 60, 100
3, 68608, Note_off_c, 0, 57, 0
3, 68608, Note_off_c, 0, 60, 0
3, 68608, Note_on_c, 0, 55, 100
3, 68608, Note_on_c, 0, 58, 100
3, 68608, Note_on_c, 0, 51, 100
3, 68736, Note_off_c, 0, 55, 0
3, 68736, Note_off_c, 0, 58, 0
3, 68736, Note_on_c, 0, 55, 100
3, 68736, Note_on_c, 0, 58, 100
3, 68864, Note_off_c, 0, 55, 0
3, 68864, Note_off_c, 0, 58, 0
3, 68864, Note_on_c, 0, 54, 100
3, 68864, Note_on_c, 0, 57, 100
3, 68992, Note_off_c, 0, 54, 0
3, 68992, Note_off_c, 0, 57, 0
3, 68992, Note_on_c, 0, 54, 100
3, 68992, Note_on_c, 0, 57, 100
3, 69120, Note_off_c, 0, 54, 0
3, 69120, Note_off_c, 0, 57, 0
3, 69120, Note_on_c, 0, 55, 100
3, 69120, Note_on_c, 0, 58, 100
3, 69248, Note_off_c, 0, 55, 0
3, 69248, Note_off_c, 0, 58, 0
3, 69248, Note_on_c, 0, 55, 100
3, 69248, Note_on_c, 0, 58, 100
3, 69376, Note_off_c, 0, 55, 0
3, 69376, Note_off_c, 0, 58, 0
3, 69376, Note_on_c, 0, 66, 100
3, 69376, Note_on_c, 0, 69, 100
3, 69504, Note_off_c, 0, 66, 0
3, 69504, Note_off_c, 0, 69, 0
3, 69504, Note_on_c, 0, 66, 100
3, 69504, Note_on_c, 0, 69, 100
3, 69632, Note_off_c, 0, 66, 0
3, 69632, Note_off_c, 0, 69, 0
3, 69632, Note_on_c, 0, 67, 100
3, 69632, Note_on_c, 0, 70, 100
3, 69760, Note_off_c, 0, 67, 0
3, 69760, Note_off_c, 0, 70, 0
3, 69760, Note_on_c, 0, 67, 100
3, 69760, Note_on_c, 0, 70, 100
3, 69888, Note_off_c, 0, 67, 0
3, 69888, Note_off_c, 0, 70, 0
3, 69888, Note_on_c, 0, 66, 100
3, 69888, Note_on_c, 0, 69, 100
3, 70016, Note_off_c, 0, 66, 0
3, 70016, Note_off_c, 0, 69, 0
3, 70016, Note_on_c, 0, 66, 100
3, 70016, Note_on_c, 0, 69, 100
3, 70144, Note_off_c, 0, 66, 0
3, 70144, Note_off_c, 0, 69, 0
3, 70144, Note_on_c, 0, 67, 100
3, 70144, Note_on_c, 0, 70, 100
3, 70272, Note_off_c, 0, 67, 0
3, 70272, Note_off_c, 0, 70, 0
3, 70272, Note_on_c, 0, 67, 100
3, 70272, Note_on_c, 0, 70, 100
3, 70400, Note_off_c, 0, 67, 0
3, 70400, Note_off_c, 0, 70, 0
3, 70400, Note_on_c, 0, 66, 100
3, 70400, Note_on_c, 0, 69, 100
3, 70528, Note_off_c, 0, 66, 0
3, 70528, Note_off_c, 0, 69, 0
3, 70528, Note_on_c, 0, 67, 100
3, 70656, Note_off_c, 0, 67, 0
3, 70656, Note_on_c, 0, 66, 100
3, 70656, Note_off_c, 0, 51, 0
3, 70656, Note_on_c, 0, 50, 100
3, 70912, Note_off_c, 0, 66, 0
3, 70912, Note_off_c, 0, 50, 0
3, 71040, Note_on_c, 0, 62, 100
3, 71040, Note_on_c, 0, 50, 100
3, 71168, Note_on_c, 0, 64, 100
3, 71168, Note_on_c, 0, 52, 100
3, 71170, Note_off_c, 0, 62, 0
3, 71170, Note_off_c, 0, 50, 0
3, 71296, Note_on_c, 0, 66, 100
3, 71296, Note_on_c, 0, 54, 100
3, 71298, Note_off_c, 0, 64, 0
3, 71298, Note_off_c, 0, 52, 0
3, 71424, Note_on_c, 0, 67, 100
3, 71424, Note_on_c, 0, 55, 100
3, 71426, Note_off_c, 0, 66, 0
3, 71426, Note_off_c, 0, 54, 0
3, 71552, Note_on_c, 0, 69, 100
3, 71552, Note_on_c, 0, 57, 100
3, 71554, Note_off_c, 0, 67, 0
3, 71554, Note_off_c, 0, 55, 0
3, 71680, Note_on_c, 0, 72, 100
3, 71680, Note_on_c, 0, 60, 100
3, 71682, Note_off_c, 0, 69, 0
3, 71682, Note_off_c, 0, 57, 0
3, 71808, Note_on_c, 0, 70, 100
3, 71808, Note_on_c, 0, 58, 100
3, 71810, Note_off_c, 0, 72, 0
3, 71810, Note_off_c, 0, 60, 0
3, 71929, Note_off_c, 0, 70, 0
3, 71929, Note_off_c, 0, 58, 0
3, 72064, Note_on_c, 0, 66, 100
3, 72064, Note_on_c, 0, 54, 100
3, 72192, Note_on_c, 0, 67, 100
3, 72192, Note_on_c, 0, 55, 100
3, 72194, Note_off_c, 0, 66, 0
3, 72194, Note_off_c, 0, 54, 0
3, 72320, Note_on_c, 0, 69, 100
3, 72320, Note_on_c, 0, 57, 100
3, 72322, Note_off_c, 0, 67, 0
3, 72322, Note_off_c, 0, 55, 0
3, 72448, Note_on_c, 0, 70, 100
3, 72448, Note_on_c, 0, 58, 100
3, 72450, Note_off_c, 0, 69, 0
3, 72450, Note_off_c, 0, 57, 0
3, 72576, Note_on_c, 0, 73, 100
3, 72576, Note_on_c, 0, 61, 100
3, 72578, Note_off_c, 0, 70, 0
3, 72578, Note_off_c, 0, 58, 0
3, 72704, Note_on_c, 0, 76, 100
3, 72704, Note_on_c, 0, 64, 100
3, 72706, Note_off_c, 0, 73, 0
3, 72706, Note_off_c, 0, 61, 0
3, 72832, Note_on_c, 0, 74, 100
3, 72832, Note_on_c, 0, 62, 100
3, 72834, Note_off_c, 0, 76, 0
3, 72834, Note_off_c, 0, 64, 0
3, 72953, Note_off_c, 0, 74, 0
3, 72953, Note_off_c, 0, 62, 0
3, 73088, Note_on_c, 0, 62, 100
3, 73216, Note_on_c, 0, 64, 100
3, 73218, Note_off_c, 0, 62, 0
3, 73344, Note_on_c, 0, 66, 100
3, 73346, Note_off_c, 0, 64, 0
3, 73472, Note_on_c, 0, 67, 100
3, 73474, Note_off_c, 0, 66, 0
3, 73600, Note_on_c, 0, 69, 100
3, 73602, Note_off_c, 0, 67, 0
3, 73728, Note_on_c, 0, 70, 100
3, 73730, Note_off_c, 0, 69, 0
3, 73984, Note_on_c, 0, 71, 100
3, 73989, Note_off_c, 0, 70, 0
3, 74240, Note_on_c, 0, 72, 100
3, 74245, Note_off_c, 0, 71, 0
3, 74496, Note_on_c, 0, 73, 100
3, 74501, Note_off_c, 0, 72, 0
3, 74739, Note_off_c, 0, 73, 0
3, 74752, Note_on_c, 0, 71, 100
3, 74752, Note_on_c, 0, 74, 100
3, 74816, Note_off_c, 0, 71, 0
3, 74816, Note_off_c, 0, 74, 0
3, 74880, Note_on_c, 0, 71, 100
3, 74880, Note_on_c, 0, 74, 100
3, 74944, Note_off_c, 0, 71, 0
3, 74944, Note_off_c, 0, 74, 0
3, 75008, Note_on_c, 0, 71, 100
3, 75008, Note_on_c, 0, 74, 100
3, 75136, Note_on_c, 0, 72, 100
3, 75136, Note_on_c, 0, 76, 100
3, 75138, Note_off_c, 0, 71, 0
3, 75138, Note_off_c, 0, 74, 0
3, 75257, Note_off_c, 0, 72, 0
3, 75257, Note_off_c, 0, 76, 0
3, 75264, Note_on_c, 0, 69, 100
3, 75264, Note_on_c, 0, 72, 100
3, 75328, Note_off_c, 0, 69, 0
3, 75328, Note_off_c, 0, 72, 0
3, 75392, Note_on_c, 0, 69, 100
3, 75392, Note_on_c, 0, 72, 100
3, 75456, Note_off_c, 0, 69, 0
3, 75456, Note_off_c, 0, 72, 0
3, 75520, Note_on_c, 0, 69, 100
3, 75520, Note_on_c, 0, 72, 100
3, 75648, Note_on_c, 0, 71, 100
3, 75648, Note_on_c, 0, 74, 100
3, 75650, Note_off_c, 0, 69, 0
3, 75650, Note_off_c, 0, 72, 0
3, 75769, Note_off_c, 0, 71, 0
3, 75769, Note_off_c, 0, 74, 0
3, 75776, Note_on_c, 0, 67, 100
3, 75776, Note_on_c, 0, 71, 100
3, 75776, Note_on_c, 0, 50, 100
3, 75840, Note_off_c, 0, 67, 0
3, 75840, Note_off_c, 0, 71, 0
3, 75904, Note_on_c, 0, 67, 100
3, 75904, Note_on_c, 0, 71, 100
3, 75968, Note_off_c, 0, 67, 0
3, 75968, Note_off_c, 0, 71, 0
3, 76032, Note_on_c, 0, 67, 100
3, 76032, Note_on_c, 0, 71, 100
3, 76160, Note_off_c, 0, 71, 0
3, 76160, Note_on_c, 0, 71, 100
3, 76160, Note_on_c, 0, 74, 100
3, 76162, Note_off_c, 0, 67, 0
3, 76281, Note_off_c, 0, 71, 0
3, 76281, Note_off_c, 0, 74, 0
3, 76288, Note_on_c, 0, 71, 100
3, 76288, Note_on_c, 0, 74, 100
3, 76416, Note_on_c, 0, 69, 100
3, 76416, Note_on_c, 0, 72, 100
3, 76418, Note_off_c, 0, 71, 0
3, 76418, Note_off_c, 0, 74, 0
3, 76537, Note_off_c, 0, 69, 0
3, 76537, Note_off_c, 0, 72, 0
3, 76544, Note_on_c, 0, 67, 100
3, 76544, Note_on_c, 0, 71, 100
3, 76582, Note_off_c, 0, 67, 0
3, 76582, Note_off_c, 0, 71, 0
3, 76672, Note_on_c, 0, 62, 100
3, 76672, Note_on_c, 0, 69, 100
3, 76710, Note_off_c, 0, 62, 0
3, 76710, Note_off_c, 0, 69, 0
3, 76800, Note_on_c, 0, 62, 100
3, 76800, Note_on_c, 0, 67, 100
3, 76800, Note_on_c, 0, 71, 100
3, 76800, Note_on_c, 0, 74, 100
3, 76800, Note_off_c, 0, 50, 0
3, 76800, Note_on_c, 0, 55, 100
3, 77056, Note_off_c, 0, 62, 0
3, 77056, Note_off_c, 0, 67, 0
3, 77056, Note_off_c, 0, 71, 0
3, 77056, Note_off_c, 0, 74, 0
3, 77056, Note_off_c, 0, 55, 0
3, 77184, Note_on_c, 0, 62, 100
3, 77184, Note_on_c, 0, 50, 100
3, 77312, Note_off_c, 0, 62, 0
3, 77312, Note_on_c, 0, 67, 100
3, 77312, Note_off_c, 0, 50, 0
3, 77312, Note_on_c, 0, 55, 100
3, 77568, Note_off_c, 0, 67, 0
3, 77568, Note_off_c, 0, 55, 0
3, 77696, Note_on_c, 0, 62, 100
3, 77696, Note_on_c, 0, 50, 100
3, 77824, Note_off_c, 0, 62, 0
3, 77824, Note_on_c, 0, 67, 100
3, 77824, Note_off_c, 0, 50, 0
3, 77824, Note_on_c, 0, 55, 100
3, 77952, Note_off_c, 0, 67, 0
3, 77952, Note_on_c, 0, 62, 100
3, 77952, Note_off_c, 0, 55, 0
3, 77952, Note_on_c, 0, 50, 100
3, 78080, Note_off_c, 0, 62, 0
3, 78080, Note_on_c, 0, 67, 100
3, 78080, Note_off_c, 0, 50, 0
3, 78080, Note_on_c, 0, 55, 100
3, 78208, Note_off_c, 0, 67, 0
3, 78208, Note_on_c, 0, 71, 100
3, 78208, Note_off_c, 0, 55, 0
3, 78208, Note_on_c, 0, 59, 100
3, 78336, Note_off_c, 0, 71, 0
3, 78336, Note_on_c, 0, 74, 100
3, 78336, Note_off_c, 0, 59, 0
3, 78336, Note_on_c, 0, 62, 100
3, 78592, Note_off_c, 0, 74, 0
3, 78592, Note_off_c, 0, 62, 0
3, 78848, Note_on_c, 0, 72, 100
3, 78848, Note_on_c, 0, 60, 100
3, 79104, Note_off_c, 0, 72, 0
3, 79104, Note_off_c, 0, 60, 0
3, 79232, Note_on_c, 0, 69, 100
3, 79232, Note_on_c, 0, 57, 100
3, 79360, Note_off_c, 0, 69, 0
3, 79360, Note_on_c, 0, 72, 100
3, 79360, Note_off_c, 0, 57, 0
3, 79360, Note_on_c, 0, 60, 100
3, 79616, Note_off_c, 0, 72, 0
3, 79616, Note_off_c, 0, 60, 0
3, 79744, Note_on_c, 0, 69, 100
3, 79744, Note_on_c, 0, 57, 100
3, 79872, Note_off_c, 0, 69, 0
3, 79872, Note_on_c, 0, 72, 100
3, 79872, Note_off_c, 0, 57, 0
3, 79872, Note_on_c, 0, 60, 100
3, 80000, Note_off_c, 0, 72, 0
3, 80000, Note_on_c, 0, 69, 100
3, 80000, Note_off_c, 0, 60, 0
3, 80000, Note_on_c, 0, 57, 100
3, 80128, Note_off_c, 0, 69, 0
3, 80128, Note_on_c, 0, 66, 100
3, 80128, Note_off_c, 0, 57, 0
3, 80128, Note_on_c, 0, 54, 100
3, 80256, Note_off_c, 0, 66, 0
3, 80256, Note_on_c, 0, 69, 100
3, 80256, Note_off_c, 0, 54, 0
3, 80256, Note_on_c, 0, 57, 100
3, 80384, Note_off_c, 0, 69, 0
3, 80384, Note_on_c, 0, 62, 100
3, 80384, Note_off_c, 0, 57, 0
3, 80384, Note_on_c, 0, 50, 100
3, 80640, Note_off_c, 0, 62, 0
3, 80640, Note_off_c, 0, 50, 0
3, 80896, Note_on_c, 0, 67, 100
3, 80896, Note_on_c, 0, 55, 100
3, 80960, Note_off_c, 0, 67, 0
3, 80960, Note_on_c, 0, 62, 100
3, 81024, Note_off_c, 0, 62, 0
3, 81024, Note_on_c, 0, 59, 100
3, 81024, Note_off_c, 0, 55, 0
3, 81024, Note_on_c, 0, 55, 100
3, 81088, Note_off_c, 0, 59, 0
3, 81088, Note_on_c, 0, 62, 100
3, 81152, Note_off_c, 0, 62, 0
3, 81152, Note_on_c, 0, 67, 100
3, 81152, Note_off_c, 0, 55, 0
3, 81152, Note_on_c, 0, 55, 100
3, 81216, Note_off_c, 0, 67, 0
3, 81216, Note_on_c, 0, 62, 100
3, 81280, Note_off_c, 0, 62, 0
3, 81280, Note_on_c, 0, 59, 100
3, 81280, Note_off_c, 0, 55, 0
3, 81280, Note_on_c, 0, 55, 100
3, 81344, Note_off_c, 0, 59, 0
3, 81344, Note_on_c, 0, 62, 100
3, 81408, Note_off_c, 0, 62, 0
3, 81408, Note_on_c, 0, 67, 100
3, 81408, Note_off_c, 0, 55, 0
3, 81408, Note_on_c, 0, 55, 100
3, 81472, Note_off_c, 0, 67, 0
3, 81472, Note_on_c, 0, 62, 100
3, 81536, Note_off_c, 0, 62, 0
3, 81536, Note_on_c, 0, 59, 100
3, 81536, Note_off_c, 0, 55, 0
3, 81536, Note_on_c, 0, 55, 100
3, 81600, Note_off_c, 0, 59, 0
3, 81600, Note_on_c, 0, 62, 100
3, 81664, Note_off_c, 0, 62, 0
3, 81664, Note_on_c, 0, 67, 100
3, 81664, Note_off_c, 0, 55, 0
3, 81664, Note_on_c, 0, 55, 100
3, 81728, Note_off_c, 0, 67, 0
3, 81728, Note_on_c, 0, 62, 100
3, 81792, Note_off_c, 0, 62, 0
3, 81792, Note_on_c, 0, 59, 100
3, 81792, Note_off_c, 0, 55, 0
3, 81792, Note_on_c, 0, 55, 100
3, 81856, Note_off_c, 0, 59, 0
3, 81856, Note_on_c, 0, 62, 100
3, 81920, Note_off_c, 0, 62, 0
3, 81920, Note_on_c, 0, 69, 100
3, 81920, Note_off_c, 0, 55, 0
3, 81920, Note_on_c, 0, 55, 100
3, 81984, Note_off_c, 0, 69, 0
3, 81984, Note_on_c, 0, 62, 100
3, 82048, Note_off_c, 0, 62, 0
3, 82048, Note_on_c, 0, 60, 100
3, 82048, Note_off_c, 0, 55, 0
3, 82048, Note_on_c, 0, 55, 100
3, 82112, Note_off_c, 0, 60, 0
3, 82112, Note_on_c, 0, 62, 100
3, 82176, Note_off_c, 0, 62, 0
3, 82176, Note_on_c, 0, 69, 100
3, 82176, Note_off_c, 0, 55, 0
3, 82176, Note_on_c, 0, 55, 100
3, 82240, Note_off_c, 0, 69, 0
3, 82240, Note_on_c, 0, 62, 100
3, 82304, Note_off_c, 0, 62, 0
3, 82304, Note_on_c, 0, 60, 100
3, 82304, Note_off_c, 0, 55, 0
3, 82304, Note_on_c, 0, 55, 100
3, 82368, Note_off_c, 0, 60, 0
3, 82368, Note_on_c, 0, 62, 100
3, 82432, Note_off_c, 0, 62, 0
3, 82432, Note_on_c, 0, 69, 100
3, 82432, Note_off_c, 0, 55, 0
3, 82432, Note_on_c, 0, 55, 100
3, 82496, Note_off_c, 0, 69, 0
3, 82496, Note_on_c, 0, 62, 100
3, 82560, Note_off_c, 0, 62, 0
3, 82560, Note_on_c, 0, 72, 100
3, 82560, Note_off_c, 0, 55, 0
3, 82560, Note_on_c, 0, 55, 100
3, 82624, Note_off_c, 0, 72, 0
3, 82624, Note_on_c, 0, 62, 100
3, 82688, Note_off_c, 0, 62, 0
3, 82688, Note_on_c, 0, 66, 100
3, 82688, Note_off_c, 0, 55, 0
3, 82688, Note_on_c, 0, 55, 100
3, 82752, Note_off_c, 0, 66, 0
3, 82752, Note_on_c, 0, 62, 100
3, 82816, Note_off_c, 0, 62, 0
3, 82816, Note_on_c, 0, 69, 100
3, 82816, Note_off_c, 0, 55, 0
3, 82816, Note_on_c, 0, 55, 100
3, 82880, Note_off_c, 0, 69, 0
3, 82880, Note_on_c, 0, 62, 100
3, 82944, Note_off_c, 0, 62, 0
3, 82944, Note_on_c, 0, 67, 100
3, 82944, Note_off_c, 0, 55, 0
3, 82944, Note_on_c, 0, 55, 100
3, 83008, Note_off_c, 0, 67, 0
3, 83008, Note_on_c, 0, 62, 100
3, 83072, Note_off_c, 0, 62, 0
3, 83072, Note_on_c, 0, 59, 100
3, 83072, Note_off_c, 0, 55, 0
3, 83072, Note_on_c, 0, 55, 100
3, 83136, Note_off_c, 0, 59, 0
3, 83136, Note_on_c, 0, 62, 100
3, 83200, Note_off_c, 0, 62, 0
3, 83200, Note_on_c, 0, 67, 100
3, 83200, Note_off_c, 0, 55, 0
3, 83200, Note_on_c, 0, 55, 100
3, 83264, Note_off_c, 0, 67, 0
3, 83264, Note_on_c, 0, 62, 100
3, 83328, Note_off_c, 0, 62, 0
3, 83328, Note_on_c, 0, 59, 100
3, 83328, Note_off_c, 0, 55, 0
3, 83328, Note_on_c, 0, 55, 100
3, 83392, Note_off_c, 0, 59, 0
3, 83392, Note_on_c, 0, 62, 100
3, 83456, Note_off_c, 0, 62, 0
3, 83456, Note_on_c, 0, 67, 100
3, 83456, Note_off_c, 0, 55, 0
3, 83456, Note_on_c, 0, 55, 100
3, 83520, Note_off_c, 0, 67, 0
3, 83520, Note_on_c, 0, 62, 100
3, 83584, Note_off_c, 0, 62, 0
3, 83584, Note_on_c, 0, 59, 100
3, 83584, Note_off_c, 0, 55, 0
3, 83584, Note_on_c, 0, 55, 100
3, 83648, Note_off_c, 0, 59, 0
3, 83648, Note_on_c, 0, 62, 100
3, 83712, Note_off_c, 0, 62, 0
3, 83712, Note_on_c, 0, 67, 100
3, 83712, Note_off_c, 0, 55, 0
3, 83712, Note_on_c, 0, 55, 100
3, 83776, Note_off_c, 0, 67, 0
3, 83776, Note_on_c, 0, 62, 100
3, 83840, Note_off_c, 0, 62, 0
3, 83840, Note_on_c, 0, 59, 100
3, 83840, Note_off_c, 0, 55, 0
3, 83840, Note_on_c, 0, 55, 100
3, 83904, Note_off_c, 0, 59, 0
3, 83904, Note_on_c, 0, 62, 100
3, 83968, Note_off_c, 0, 62, 0
3, 83968, Note_on_c, 0, 69, 100
3, 83968, Note_off_c, 0, 55, 0
3, 83968, Note_on_c, 0, 55, 100
3, 84032, Note_off_c, 0, 69, 0
3, 84032, Note_on_c, 0, 62, 100
3, 84096, Note_off_c, 0, 62, 0
3, 84096, Note_on_c, 0, 60, 100
3, 84096, Note_off_c, 0, 55, 0
3, 84096, Note_on_c, 0, 55, 100
3, 84160, Note_off_c, 0, 60, 0
3, 84160, Note_on_c, 0, 62, 100
3, 84224, Note_off_c, 0, 62, 0
3, 84224, Note_on_c, 0, 69, 100
3, 84224, Note_off_c, 0, 55, 0
3, 84224, Note_on_c, 0, 55, 100
3, 84288, Note_off_c, 0, 69, 0
3, 84288, Note_on_c, 0, 62, 100
3, 84352, Note_off_c, 0, 62, 0
3, 84352, Note_on_c, 0, 60, 100
3, 84352, Note_off_c, 0, 55, 0
3, 84352, Note_on_c, 0, 55, 100
3, 84416, Note_off_c, 0, 60, 0
3, 84416, Note_on_c, 0, 62, 100
3, 84480, Note_off_c, 0, 62, 0
3, 84480, Note_on_c, 0, 69, 100
3, 84480, Note_off_c, 0, 55, 0
3, 84480, Note_on_c, 0, 55, 100
3, 84544, Note_off_c, 0, 69, 0
3, 84544, Note_on_c, 0, 62, 100
3, 84608, Note_off_c, 0, 62, 0
3, 84608, Note_on_c, 0, 72, 100
3, 84608, Note_off_c, 0, 55, 0
3, 84608, Note_on_c, 0, 55, 100
3, 84672, Note_off_c, 0, 72, 0
3, 84672, Note_on_c, 0, 62, 100
3, 84736, Note_off_c, 0, 62, 0
3, 84736, Note_on_c, 0, 66, 100
3, 84736, Note_off_c, 0, 55, 0
3, 84736, Note_on_c, 0, 55, 100
3, 84800, Note_off_c, 0, 66, 0
3, 84800, Note_on_c, 0, 62, 100
3, 84864, Note_off_c, 0, 62, 0
3, 84864, Note_on_c, 0, 69, 100
3, 84864, Note_off_c, 0, 55, 0
3, 84864, Note_on_c, 0, 55, 100
3, 84928, Note_off_c, 0, 69, 0
3, 84928, Note_on_c, 0, 62, 100
3, 84992, Note_off_c, 0, 62, 0
3, 84992, Note_on_c, 0, 59, 100
3, 84992, Note_on_c, 0, 62, 100
3, 84992, Note_off_c, 0, 55, 0
3, 84992, Note_on_c, 0, 55, 100
3, 85120, Note_off_c, 0, 55, 0
3, 85120, Note_on_c, 0, 55, 100
3, 85248, Note_off_c, 0, 59, 0
3, 85248, Note_off_c, 0, 62, 0
3, 85248, Note_on_c, 0, 72, 100
3, 85248, Note_off_c, 0, 55, 0
3, 85248, Note_on_c, 0, 57, 100
3, 85248, Note_on_c, 0, 62, 100
3, 85376, Note_off_c, 0, 72, 0
3, 85376, Note_on_c, 0, 72, 100
3, 85376, Note_off_c, 0, 57, 0
3, 85376, Note_off_c, 0, 62, 0
3, 85376, Note_on_c, 0, 57, 100
3, 85376, Note_on_c, 0, 62, 100
3, 85504, Note_off_c, 0, 72, 0
3, 85504, Note_on_c, 0, 74, 100
3, 85504, Note_off_c, 0, 57, 0
3, 85504, Note_off_c, 0, 62, 0
3, 85504, Note_on_c, 0, 59, 100
3, 85504, Note_on_c, 0, 62, 100
3, 85632, Note_off_c, 0, 74, 0
3, 85632, Note_on_c, 0, 74, 100
3, 85632, Note_off_c, 0, 59, 0
3, 85632, Note_off_c, 0, 62, 0
3, 85632, Note_on_c, 0, 59, 100
3, 85632, Note_on_c, 0, 62, 100
3, 85760, Note_off_c, 0, 74, 0
3, 85760, Note_on_c, 0, 72, 100
3, 85760, Note_off_c, 0, 59, 0
3, 85760, Note_off_c, 0, 62, 0
3, 85760, Note_on_c, 0, 54, 100
3, 85760, Note_on_c, 0, 62, 100
3, 85888, Note_on_c, 0, 71, 100
3, 85888, Note_off_c, 0, 54, 0
3, 85888, Note_off_c, 0, 62, 0
3, 85888, Note_on_c, 0, 54, 100
3, 85888, Note_on_c, 0, 62, 100
3, 85890, Note_off_c, 0, 72, 0
3, 85952, Note_on_c, 0, 69, 100
3, 85953, Note_off_c, 0, 71, 0
3, 86012, Note_off_c, 0, 69, 0
3, 86016, Note_on_c, 0, 67, 100
3, 86016, Note_off_c, 0, 54, 0
3, 86016, Note_off_c, 0, 62, 0
3, 86016, Note_on_c, 0, 55, 100
3, 86016, Note_on_c, 0, 62, 100
3, 86144, Note_off_c, 0, 67, 0
3, 86144, Note_on_c, 0, 67, 100
3, 86144, Note_off_c, 0, 55, 0
3, 86144, Note_off_c, 0, 62, 0
3, 86144, Note_on_c, 0, 55, 100
3, 86144, Note_on_c, 0, 62, 100
3, 86272, Note_off_c, 0, 67, 0
3, 86272, Note_on_c, 0, 66, 100
3, 86272, Note_off_c, 0, 55, 0
3, 86272, Note_off_c, 0, 62, 0
3, 86272, Note_on_c, 0, 57, 100
3, 86272, Note_on_c, 0, 62, 100
3, 86400, Note_off_c, 0, 66, 0
3, 86400, Note_on_c, 0, 66, 100
3, 86400, Note_off_c, 0, 57, 0
3, 86400, Note_off_c, 0, 62, 0
3, 86400, Note_on_c, 0, 57, 100
3, 86400, Note_on_c, 0, 62, 100
3, 86528, Note_off_c, 0, 66, 0
3, 86528, Note_on_c, 0, 67, 100
3, 86528, Note_off_c, 0, 57, 0
3, 86528, Note_off_c, 0, 62, 0
3, 86528, Note_on_c, 0, 59, 100
3, 86528, Note_on_c, 0, 62, 100
3, 86784, Note_off_c, 0, 67, 0
3, 86784, Note_off_c, 0, 59, 0
3, 86784, Note_off_c, 0, 62, 0
3, 87040, Note_on_c, 0, 71, 100
3, 87552, Note_on_c, 0, 72, 100
3, 87562, Note_off_c, 0, 71, 0
3, 88038, Note_off_c, 0, 72, 0
3, 88044, Note_on_c, 0, 71, 100
3, 88064, Note_on_c, 0, 69, 100
3, 88064, Note_off_c, 0, 71, 0
3, 88064, Note_on_c, 0, 50, 100
3, 88064, Note_on_c, 0, 54, 100
3, 88307, Note_off_c, 0, 69, 0
3, 88320, Note_on_c, 0, 69, 100
3, 88556, Note_off_c, 0, 69, 0
3, 88556, Note_on_c, 0, 69, 100
3, 88576, Note_on_c, 0, 67, 100
3, 88576, Note_off_c, 0, 69, 0
3, 88576, Note_on_c, 0, 52, 100
3, 88576, Note_on_c, 0, 55, 100
3, 88586, Note_off_c, 0, 50, 0
3, 88586, Note_off_c, 0, 54, 0
3, 88819, Note_off_c, 0, 67, 0
3, 88832, Note_on_c, 0, 67, 100
3, 89062, Note_off_c, 0, 52, 0
3, 89062, Note_off_c, 0, 55, 0
3, 89088, Note_off_c, 0, 67, 0
3, 89088, Note_on_c, 0, 60, 100
3, 89088, Note_on_c, 0, 64, 100
3, 89088, Note_on_c, 0, 48, 100
3, 89344, Note_off_c, 0, 60, 0
3, 89344, Note_off_c, 0, 64, 0
3, 89344, Note_on_c, 0, 60, 100
3, 89344, Note_on_c, 0, 64, 100
3, 89344, Note_off_c, 0, 48, 0
3, 89344, Note_on_c, 0, 48, 100
3, 89600, Note_off_c, 0, 60, 0
3, 89600, Note_off_c, 0, 64, 0
3, 89600, Note_on_c, 0, 57, 100
3, 89600, Note_on_c, 0, 60, 100
3, 89600, Note_off_c, 0, 48, 0
3, 89600, Note_on_c, 0, 50, 100
3, 89856, Note_off_c, 0, 57, 0
3, 89856, Note_off_c, 0, 60, 0
3, 89856, Note_on_c, 0, 57, 100
3, 89856, Note_off_c, 0, 50, 0
3, 89856, Note_on_c, 0, 50, 100
3, 90112, Note_off_c, 0, 57, 0
3, 90112, Note_on_c, 0, 62, 100
3, 90112, Note_off_c, 0, 50, 0
3, 90112, Note_on_c, 0, 47, 100
3, 90112, Note_on_c, 0, 50, 100
3, 90240, Note_off_c, 0, 62, 0
3, 90240, Note_off_c, 0, 47, 0
3, 90240, Note_off_c, 0, 50, 0
3, 90368, Note_on_c, 0, 66, 100
3, 90368, Note_on_c, 0, 50, 100
3, 90368, Note_on_c, 0, 62, 100
3, 90496, Note_off_c, 0, 66, 0
3, 90496, Note_off_c, 0, 50, 0
3, 90496, Note_off_c, 0, 62, 0
3, 90624, Note_on_c, 0, 67, 100
3, 90624, Note_on_c, 0, 55, 100
3, 90624, Note_on_c, 0, 62, 100
3, 90752, Note_off_c, 0, 67, 0
3, 90880, Note_off_c, 0, 55, 0
3, 90880, Note_off_c, 0, 62, 0
3, 91136, Note_on_c, 0, 71, 100
3, 91648, Note_on_c, 0, 72, 100
3, 91658, Note_off_c, 0, 71, 0
3, 92134, Note_off_c, 0, 72, 0
3, 92160, Note_on_c, 0, 71, 100
3, 92160, Note_on_c, 0, 50, 100
3, 92160, Note_on_c, 0, 54, 100
3, 92288, Note_on_c, 0, 69, 100
3, 92290, Note_off_c, 0, 71, 0
3, 92409, Note_off_c, 0, 69, 0
3, 92416, Note_on_c, 0, 69, 100
3, 92480, Note_off_c, 0, 69, 0
3, 92544, Note_on_c, 0, 69, 100
3, 92608, Note_off_c, 0, 69, 0
3, 92672, Note_on_c, 0, 69, 100
3, 92672, Note_on_c, 0, 52, 100
3, 92672, Note_on_c, 0, 55, 100
3, 92682, Note_off_c, 0, 50, 0
3, 92682, Note_off_c, 0, 54, 0
3, 92800, Note_on_c, 0, 67, 100
3, 92802, Note_off_c, 0, 69, 0
3, 92921, Note_off_c, 0, 67, 0
3, 92928, Note_on_c, 0, 67, 100
3, 92992, Note_off_c, 0, 67, 0
3, 93056, Note_on_c, 0, 67, 100
3, 93120, Note_off_c, 0, 67, 0
3, 93158, Note_off_c, 0, 52, 0
3, 93158, Note_off_c, 0, 55, 0
3, 93184, Note_on_c, 0, 60, 100
3, 93184, Note_on_c, 0, 64, 100
3, 93184, Note_on_c, 0, 48, 100
3, 93440, Note_off_c, 0, 60, 0
3, 93440, Note_off_c, 0, 64, 0
3, 93440, Note_on_c, 0, 60, 100
3, 93440, Note_on_c, 0, 64, 100
3, 93440, Note_off_c, 0, 48, 0
3, 93440, Note_on_c, 0, 48, 100
3, 93568, Note_off_c, 0, 60, 0
3, 93568, Note_off_c, 0, 64, 0
3, 93568, Note_on_c, 0, 60, 100
3, 93568, Note_on_c, 0, 64, 100
3, 93696, Note_off_c, 0, 60, 0
3, 93696, Note_off_c, 0, 64, 0
3, 93696, Note_on_c, 0, 57, 100
3, 93696, Note_on_c, 0, 60, 100
3, 93696, Note_off_c, 0, 48, 0
3, 93696, Note_on_c, 0, 50, 100
3, 93952, Note_off_c, 0, 57, 0
3, 93952, Note_off_c, 0, 60, 0
3, 93952, Note_on_c, 0, 57, 100
3, 93952, Note_on_c, 0, 60, 100
3, 93952, Note_off_c, 0, 50, 0
3, 93952, Note_on_c, 0, 50, 100
3, 94080, Note_off_c, 0, 57, 0
3, 94080, Note_off_c, 0, 60, 0
3, 94080, Note_on_c, 0, 57, 100
3, 94080, Note_on_c, 0, 60, 100
3, 94208, Note_off_c, 0, 57, 0
3, 94208, Note_off_c, 0, 60, 0
3, 94208, Note_on_c, 0, 55, 100
3, 94208, Note_on_c, 0, 59, 100
3, 94208, Note_off_c, 0, 50, 0
3, 94208, Note_on_c, 0, 55, 100
3, 94336, Note_off_c, 0, 55, 0
3, 94336, Note_on_c, 0, 55, 100
3, 94464, Note_off_c, 0, 55, 0
3, 94464, Note_on_c, 0, 55, 100
3, 94592, Note_off_c, 0, 55, 0
3, 94592, Note_on_c, 0, 55, 100
3, 94720, Note_off_c, 0, 55, 0
3, 94720, Note_on_c, 0, 55, 100
3, 94848, Note_off_c, 0, 55, 0
3, 94848, Note_off_c, 0, 59, 0
3, 94848, Note_on_c, 0, 59, 100
3, 94848, Note_off_c, 0, 55, 0
3, 94848, Note_on_c, 0, 55, 100
3, 94912, Note_on_c, 0, 57, 100
3, 94913, Note_off_c, 0, 59, 0
3, 94944, Note_off_c, 0, 57, 0
3, 94944, Note_on_c, 0, 59, 100
3, 94976, Note_off_c, 0, 59, 0
3, 94976, Note_on_c, 0, 60, 100
3, 94976, Note_off_c, 0, 55, 0
3, 94976, Note_on_c, 0, 55, 100
3, 95104, Note_on_c, 0, 57, 100
3, 95104, Note_off_c, 0, 55, 0
3, 95104, Note_on_c, 0, 55, 100
3, 95106, Note_off_c, 0, 60, 0
3, 95225, Note_off_c, 0, 57, 0
3, 95232, Note_on_c, 0, 67, 100
3, 95232, Note_off_c, 0, 55, 0
3, 95232, Note_on_c, 0, 55, 100
3, 95360, Note_off_c, 0, 55, 0
3, 95360, Note_on_c, 0, 55, 100
3, 95488, Note_off_c, 0, 55, 0
3, 95488, Note_on_c, 0, 55, 100
3, 95616, Note_off_c, 0, 55, 0
3, 95616, Note_on_c, 0, 55, 100
3, 95744, Note_off_c, 0, 55, 0
3, 95744, Note_on_c, 0, 55, 100
3, 95872, Note_off_c, 0, 67, 0
3, 95872, Note_on_c, 0, 67, 100
3, 95872, Note_off_c, 0, 55, 0
3, 95872, Note_on_c, 0, 55, 100
3, 95936, Note_on_c, 0, 66, 100
3, 95937, Note_off_c, 0, 67, 0
3, 95968, Note_off_c, 0, 66, 0
3, 95968, Note_on_c, 0, 67, 100
3, 96000, Note_off_c, 0, 67, 0
3, 96000, Note_on_c, 0, 69, 100
3, 96000, Note_off_c, 0, 55, 0
3, 96000, Note_on_c, 0, 55, 100
3, 96128, Note_on_c, 0, 66, 100
3, 96128, Note_off_c, 0, 55, 0
3, 96128, Note_on_c, 0, 55, 100
3, 96130, Note_off_c, 0, 69, 0
3, 96249, Note_off_c, 0, 66, 0
3, 96256, Note_on_c, 0, 71, 100
3, 96256, Note_off_c, 0, 55, 0
3, 96256, Note_on_c, 0, 55, 100
3, 96320, Note_off_c, 0, 71, 0
3, 96320, Note_on_c, 0, 67, 100
3, 96384, Note_off_c, 0, 67, 0
3, 96384, Note_on_c, 0, 71, 100
3, 96384, Note_off_c, 0, 55, 0
3, 96384, Note_on_c, 0, 55, 100
3, 96448, Note_off_c, 0, 71, 0
3, 96448, Note_on_c, 0, 67, 100
3, 96512, Note_off_c, 0, 67, 0
3, 96512, Note_on_c, 0, 71, 100
3, 96512, Note_off_c, 0, 55, 0
3, 96512, Note_on_c, 0, 55, 100
3, 96576, Note_off_c, 0, 71, 0
3, 96576, Note_on_c, 0, 67, 100
3, 96640, Note_off_c, 0, 67, 0
3, 96640, Note_on_c, 0, 71, 100
3, 96640, Note_off_c, 0, 55, 0
3, 96640, Note_on_c, 0, 55, 100
3, 96704, Note_off_c, 0, 71, 0
3, 96704, Note_on_c, 0, 67, 100
3, 96768, Note_off_c, 0, 67, 0
3, 96768, Note_on_c, 0, 72, 100
3, 96768, Note_off_c, 0, 55, 0
3, 96768, Note_on_c, 0, 55, 100
3, 96832, Note_off_c, 0, 72, 0
3, 96832, Note_on_c, 0, 67, 100
3, 96896, Note_off_c, 0, 67, 0
3, 96896, Note_on_c, 0, 72, 100
3, 96896, Note_off_c, 0, 55, 0
3, 96896, Note_on_c, 0, 55, 100
3, 96960, Note_off_c, 0, 72, 0
3, 96960, Note_on_c, 0, 67, 100
3, 97024, Note_off_c, 0, 67, 0
3, 97024, Note_on_c, 0, 72, 100
3, 97024, Note_off_c, 0, 55, 0
3, 97024, Note_on_c, 0, 55, 100
3, 97088, Note_off_c, 0, 72, 0
3, 97088, Note_on_c, 0, 69, 100
3, 97152, Note_off_c, 0, 69, 0
3, 97152, Note_on_c, 0, 72, 100
3, 97152, Note_off_c, 0, 55, 0
3, 97152, Note_on_c, 0, 55, 100
3, 97216, Note_off_c, 0, 72, 0
3, 97216, Note_on_c, 0, 69, 100
3, 97280, Note_off_c, 0, 69, 0
3, 97280, Note_on_c, 0, 71, 100
3, 97280, Note_off_c, 0, 55, 0
3, 97280, Note_on_c, 0, 55, 100
3, 97344, Note_off_c, 0, 71, 0
3, 97344, Note_on_c, 0, 67, 100
3, 97408, Note_off_c, 0, 67, 0
3, 97408, Note_on_c, 0, 71, 100
3, 97408, Note_off_c, 0, 55, 0
3, 97408, Note_on_c, 0, 55, 100
3, 97472, Note_off_c, 0, 71, 0
3, 97472, Note_on_c, 0, 67, 100
3, 97536, Note_off_c, 0, 67, 0
3, 97536, Note_on_c, 0, 74, 100
3, 97536, Note_off_c, 0, 55, 0
3, 97536, Note_on_c, 0, 54, 100
3, 97600, Note_off_c, 0, 74, 0
3, 97600, Note_on_c, 0, 66, 100
3, 97664, Note_off_c, 0, 66, 0
3, 97664, Note_on_c, 0, 74, 100
3, 97664, Note_off_c, 0, 54, 0
3, 97664, Note_on_c, 0, 54, 100
3, 97728, Note_off_c, 0, 74, 0
3, 97728, Note_on_c, 0, 66, 100
3, 97792, Note_off_c, 0, 66, 0
3, 97792, Note_on_c, 0, 74, 100
3, 97792, Note_off_c, 0, 54, 0
3, 97792, Note_on_c, 0, 55, 100
3, 97856, Note_off_c, 0, 74, 0
3, 97856, Note_on_c, 0, 67, 100
3, 97920, Note_off_c, 0, 67, 0
3, 97920, Note_on_c, 0, 74, 100
3, 97920, Note_off_c, 0, 55, 0
3, 97920, Note_on_c, 0, 55, 100
3, 97984, Note_off_c, 0, 74, 0
3, 97984, Note_on_c, 0, 67, 100
3, 98048, Note_off_c, 0, 67, 0
3, 98048, Note_on_c, 0, 79, 100
3, 98048, Note_off_c, 0, 55, 0
3, 98048, Note_on_c, 0, 52, 100
3, 98112, Note_off_c, 0, 79, 0
3, 98112, Note_on_c, 0, 76, 100
3, 98176, Note_off_c, 0, 76, 0
3, 98176, Note_on_c, 0, 79, 100
3, 98176, Note_off_c, 0, 52, 0
3, 98176, Note_on_c, 0, 52, 100
3, 98240, Note_off_c, 0, 79, 0
3, 98240, Note_on_c, 0, 76, 100
3, 98304, Note_off_c, 0, 76, 0
3, 98304, Note_on_c, 0, 78, 100
3, 98304, Note_off_c, 0, 52, 0
3, 98304, Note_on_c, 0, 50, 100
3, 98304, Note_on_c, 0, 62, 100
3, 98368, Note_off_c, 0, 78, 0
3, 98368, Note_on_c, 0, 69, 100
3, 98432, Note_off_c, 0, 69, 0
3, 98432, Note_on_c, 0, 74, 100
3, 98432, Note_off_c, 0, 50, 0
3, 98432, Note_off_c, 0, 62, 0
3, 98432, Note_on_c, 0, 50, 100
3, 98432, Note_on_c, 0, 62, 100
3, 98496, Note_off_c, 0, 74, 0
3, 98496, Note_on_c, 0, 69, 100
3, 98560, Note_off_c, 0, 69, 0
3, 98560, Note_on_c, 0, 78, 100
3, 98560, Note_off_c, 0, 50, 0
3, 98560, Note_off_c, 0, 62, 0
3, 98560, Note_on_c, 0, 50, 100
3, 98560, Note_on_c, 0, 62, 100
3, 98624, Note_off_c, 0, 78, 0
3, 98624, Note_on_c, 0, 69, 100
3, 98688, Note_off_c, 0, 69, 0
3, 98688, Note_on_c, 0, 74, 100
3, 98688, Note_off_c, 0, 50, 0
3, 98688, Note_off_c, 0, 62, 0
3, 98688, Note_on_c, 0, 50, 100
3, 98688, Note_on_c, 0, 62, 100
3, 98752, Note_off_c, 0, 74, 0
3, 98752, Note_on_c, 0, 69, 100
3, 98816, Note_off_c, 0, 69, 0
3, 98816, Note_on_c, 0, 79, 100
3, 98816, Note_off_c, 0, 50, 0
3, 98816, Note_off_c, 0, 62, 0
3, 98816, Note_on_c, 0, 50, 100
3, 98816, Note_on_c, 0, 64, 100
3, 98880, Note_off_c, 0, 79, 0
3, 98880, Note_on_c, 0, 69, 100
3, 98944, Note_off_c, 0, 69, 0
3, 98944, Note_on_c, 0, 76, 100
3, 98944, Note_off_c, 0, 50, 0
3, 98944, Note_off_c, 0, 64, 0
3, 98944, Note_on_c, 0, 50, 100
3, 98944, Note_on_c, 0, 64, 100
3, 99008, Note_off_c, 0, 76, 0
3, 99008, Note_on_c, 0, 69, 100
3, 99072, Note_off_c, 0, 69, 0
3, 99072, Note_on_c, 0, 79, 100
3, 99072, Note_off_c, 0, 50, 0
3, 99072, Note_off_c, 0, 64, 0
3, 99072, Note_on_c, 0, 50, 100
3, 99072, Note_on_c, 0, 64, 100
3, 99136, Note_off_c, 0, 79, 0
3, 99136, Note_on_c, 0, 69, 100
3, 99200, Note_off_c, 0, 69, 0
3, 99200, Note_on_c, 0, 76, 100
3, 99200, Note_off_c, 0, 50, 0
3, 99200, Note_off_c, 0, 64, 0
3, 99200, Note_on_c, 0, 50, 100
3, 99200, Note_on_c, 0, 64, 100
3, 99264, Note_off_c, 0, 76, 0
3, 99264, Note_on_c, 0, 69, 100
3, 99328, Note_off_c, 0, 69, 0
3, 99328, Note_on_c, 0, 78, 100
3, 99328, Note_off_c, 0, 50, 0
3, 99328, Note_off_c, 0, 64, 0
3, 99328, Note_on_c, 0, 50, 100
3, 99328, Note_on_c, 0, 62, 100
3, 99392, Note_off_c, 0, 78, 0
3, 99392, Note_on_c, 0, 69, 100
3, 99456, Note_off_c, 0, 69, 0
3, 99456, Note_on_c, 0, 74, 100
3, 99456, Note_off_c, 0, 50, 0
3, 99456, Note_off_c, 0, 62, 0
3, 99456, Note_on_c, 0, 50, 100
3, 99456, Note_on_c, 0, 62, 100
3, 99520, Note_off_c, 0, 74, 0
3, 99520, Note_on_c, 0, 69, 100
3, 99584, Note_off_c, 0, 69, 0
3, 99584, Note_on_c, 0, 78, 100
3, 99584, Note_off_c, 0, 50, 0
3, 99584, Note_off_c, 0, 62, 0
3, 99584, Note_on_c, 0, 50, 100
3, 99584, Note_on_c, 0, 62, 100
3, 99648, Note_off_c, 0, 78, 0
3, 99648, Note_on_c, 0, 69, 100
3, 99712, Note_off_c, 0, 69, 0
3, 99712, Note_on_c, 0, 74, 100
3, 99712, Note_off_c, 0, 50, 0
3, 99712, Note_off_c, 0, 62, 0
3, 99712, Note_on_c, 0, 50, 100
3, 99712, Note_on_c, 0, 62, 100
3, 99776, Note_off_c, 0, 74, 0
3, 99776, Note_on_c, 0, 69, 100
3, 99840, Note_off_c, 0, 69, 0
3, 99840, Note_on_c, 0, 79, 100
3, 99840, Note_off_c, 0, 50, 0
3, 99840, Note_off_c, 0, 62, 0
3, 99840, Note_on_c, 0, 50, 100
3, 99840, Note_on_c, 0, 64, 100
3, 99904, Note_off_c, 0, 79, 0
3, 99904, Note_on_c, 0, 69, 100
3, 99968, Note_off_c, 0, 69, 0
3, 99968, Note_on_c, 0, 76, 100
3, 99968, Note_off_c, 0, 50, 0
3, 99968, Note_off_c, 0, 64, 0
3, 99968, Note_on_c, 0, 50, 100
3, 99968, Note_on_c, 0, 64, 100
3, 100032, Note_off_c, 0, 76, 0
3, 100032, Note_on_c, 0, 69, 100
3, 100096, Note_off_c, 0, 69, 0
3, 100096, Note_on_c, 0, 79, 100
3, 100096, Note_off_c, 0, 50, 0
3, 100096, Note_off_c, 0, 64, 0
3, 100096, Note_on_c, 0, 50, 100
3, 100096, Note_on_c, 0, 64, 100
3, 100160, Note_off_c, 0, 79, 0
3, 100160, Note_on_c, 0, 69, 100
3, 100224, Note_off_c, 0, 69, 0
3, 100224, Note_on_c, 0, 76, 100
3, 100224, Note_off_c, 0, 50, 0
3, 100224, Note_off_c, 0, 64, 0
3, 100224, Note_on_c, 0, 50, 100
3, 100224, Note_on_c, 0, 64, 100
3, 100288, Note_off_c, 0, 76, 0
3, 100288, Note_on_c, 0, 69, 100
3, 100352, Note_off_c, 0, 69, 0
3, 100352, Note_on_c, 0, 78, 100
3, 100352, Note_off_c, 0, 50, 0
3, 100352, Note_off_c, 0, 64, 0
3, 100352, Note_on_c, 0, 50, 100
3, 100352, Note_on_c, 0, 62, 100
3, 100416, Note_off_c, 0, 78, 0
3, 100416, Note_on_c, 0, 69, 100
3, 100480, Note_off_c, 0, 69, 0
3, 100480, Note_on_c, 0, 74, 100
3, 100480, Note_off_c, 0, 50, 0
3, 100480, Note_off_c, 0, 62, 0
3, 100480, Note_on_c, 0, 50, 100
3, 100480, Note_on_c, 0, 62, 100
3, 100544, Note_off_c, 0, 74, 0
3, 100544, Note_on_c, 0, 69, 100
3, 100608, Note_off_c, 0, 69, 0
3, 100608, Note_on_c, 0, 79, 100
3, 100608, Note_off_c, 0, 50, 0
3, 100608, Note_off_c, 0, 62, 0
3, 100608, Note_on_c, 0, 50, 100
3, 100608, Note_on_c, 0, 64, 100
3, 100672, Note_off_c, 0, 79, 0
3, 100672, Note_on_c, 0, 69, 100
3, 100736, Note_off_c, 0, 69, 0
3, 100736, Note_on_c, 0, 76, 100
3, 100736, Note_off_c, 0, 50, 0
3, 100736, Note_off_c, 0, 64, 0
3, 100736, Note_on_c, 0, 50, 100
3, 100736, Note_on_c, 0, 64, 100
3, 100800, Note_off_c, 0, 76, 0
3, 100800, Note_on_c, 0, 69, 100
3, 100864, Note_off_c, 0, 69, 0
3, 100864, Note_on_c, 0, 78, 100
3, 100864, Note_off_c, 0, 50, 0
3, 100864, Note_off_c, 0, 64, 0
3, 100864, Note_on_c, 0, 50, 100
3, 100864, Note_on_c, 0, 62, 100
3, 100928, Note_off_c, 0, 78, 0
3, 100928, Note_on_c, 0, 69, 100
3, 100992, Note_off_c, 0, 69, 0
3, 100992, Note_on_c, 0, 74, 100
3, 100992, Note_off_c, 0, 50, 0
3, 100992, Note_off_c, 0, 62, 0
3, 100992, Note_on_c, 0, 50, 100
3, 100992, Note_on_c, 0, 62, 100
3, 101056, Note_off_c, 0, 74, 0
3, 101056, Note_on_c, 0, 69, 100
3, 101120, Note_off_c, 0, 69, 0
3, 101120, Note_on_c, 0, 79, 100
3, 101120, Note_off_c, 0, 50, 0
3, 101120, Note_off_c, 0, 62, 0
3, 101120, Note_on_c, 0, 50, 100
3, 101120, Note_on_c, 0, 64, 100
3, 101184, Note_off_c, 0, 79, 0
3, 101184, Note_on_c, 0, 69, 100
3, 101248, Note_off_c, 0, 69, 0
3, 101248, Note_on_c, 0, 76, 100
3, 101248, Note_off_c, 0, 50, 0
3, 101248, Note_off_c, 0, 64, 0
3, 101248, Note_on_c, 0, 50, 100
3, 101248, Note_on_c, 0, 64, 100
3, 101312, Note_off_c, 0, 76, 0
3, 101312, Note_on_c, 0, 69, 100
3, 101376, Note_off_c, 0, 69, 0
3, 101376, Note_on_c, 0, 78, 100
3, 101376, Note_off_c, 0, 50, 0
3, 101376, Note_off_c, 0, 64, 0
3, 101376, Note_on_c, 0, 50, 100
3, 101376, Note_on_c, 0, 62, 100
3, 101504, Note_off_c, 0, 78, 0
3, 101504, Note_on_c, 0, 62, 100
3, 101504, Note_off_c, 0, 50, 0
3, 101504, Note_off_c, 0, 62, 0
3, 101504, Note_on_c, 0, 50, 100
3, 101632, Note_off_c, 0, 62, 0
3, 101632, Note_on_c, 0, 62, 100
3, 101632, Note_off_c, 0, 50, 0
3, 101632, Note_on_c, 0, 50, 100
3, 101760, Note_off_c, 0, 62, 0
3, 101760, Note_on_c, 0, 62, 100
3, 101760, Note_off_c, 0, 50, 0
3, 101760, Note_on_c, 0, 50, 100
3, 101888, Note_off_c, 0, 62, 0
3, 101888, Note_on_c, 0, 62, 100
3, 101888, Note_off_c, 0, 50, 0
3, 101888, Note_on_c, 0, 50, 100
3, 102144, Note_off_c, 0, 62, 0
3, 102144, Note_off_c, 0, 50, 0
3, 102400, Note_on_c, 0, 62, 100
3, 102784, Note_on_c, 0, 60, 100
3, 102791, Note_off_c, 0, 62, 0
3, 102826, Note_off_c, 0, 60, 0
3, 102826, Note_on_c, 0, 59, 100
3, 102869, Note_off_c, 0, 59, 0
3, 102869, Note_on_c, 0, 57, 100
3, 102912, Note_off_c, 0, 57, 0
3, 102912, Note_on_c, 0, 55, 100
3, 103033, Note_off_c, 0, 55, 0
3, 103168, Note_on_c, 0, 59, 100
3, 103168, Note_on_c, 0, 64, 100
3, 103168, Note_on_c, 0, 56, 100
3, 103296, Note_off_c, 0, 59, 0
3, 103296, Note_off_c, 0, 64, 0
3, 103296, Note_off_c, 0, 56, 0
3, 103424, Note_on_c, 0, 60, 100
3, 103424, Note_on_c, 0, 52, 100
3, 103424, Note_on_c, 0, 57, 100
3, 103552, Note_off_c, 0, 60, 0
3, 103552, Note_off_c, 0, 52, 0
3, 103552, Note_off_c, 0, 57, 0
3, 103680, Note_on_c, 0, 57, 100
3, 103680, Note_on_c, 0, 60, 100
3, 103680, Note_on_c, 0, 55, 100
3, 103808, Note_off_c, 0, 57, 0
3, 103808, Note_off_c, 0, 60, 0
3, 103808, Note_off_c, 0, 55, 0
3, 103936, Note_on_c, 0, 57, 100
3, 103936, Note_on_c, 0, 62, 100
3, 103936, Note_on_c, 0, 54, 100
3, 104064, Note_off_c, 0, 57, 0
3, 104064, Note_off_c, 0, 62, 0
3, 104064, Note_off_c, 0, 54, 0
3, 104192, Note_on_c, 0, 50, 100
3, 104192, Note_on_c, 0, 54, 100
3, 104320, Note_off_c, 0, 50, 0
3, 104320, Note_off_c, 0, 54, 0
3, 104448, Note_on_c, 0, 71, 100
3, 104704, Note_on_c, 0, 51, 100
3, 104704, Note_on_c, 0, 57, 100
3, 104832, Note_on_c, 0, 69, 100
3, 104839, Note_off_c, 0, 71, 0
3, 104874, Note_off_c, 0, 69, 0
3, 104874, Note_on_c, 0, 67, 100
3, 104917, Note_off_c, 0, 67, 0
3, 104917, Note_on_c, 0, 66, 100
3, 104960, Note_off_c, 0, 66, 0
3, 104960, Note_on_c, 0, 64, 100
3, 104960, Note_on_c, 0, 52, 100
3, 104960, Note_on_c, 0, 55, 100
3, 104965, Note_off_c, 0, 51, 0
3, 104965, Note_off_c, 0, 57, 0
3, 105081, Note_off_c, 0, 64, 0
3, 105081, Note_off_c, 0, 52, 0
3, 105081, Note_off_c, 0, 55, 0
3, 105216, Note_on_c, 0, 69, 100
3, 105216, Note_on_c, 0, 72, 100
3, 105216, Note_on_c, 0, 48, 100
3, 105344, Note_off_c, 0, 69, 0
3, 105344, Note_off_c, 0, 72, 0
3, 105344, Note_off_c, 0, 48, 0
3, 105472, Note_on_c, 0, 67, 100
3, 105472, Note_on_c, 0, 71, 100
3, 105472, Note_on_c, 0, 50, 100
3, 105728, Note_off_c, 0, 50, 0
3, 105728, Note_on_c, 0, 62, 100
3, 105984, Note_on_c, 0, 66, 100
3, 105984, Note_on_c, 0, 69, 100
3, 105994, Note_off_c, 0, 67, 0
3, 105994, Note_off_c, 0, 71, 0
3, 106112, Note_on_c, 0, 61, 100
3, 106119, Note_off_c, 0, 62, 0
3, 106227, Note_off_c, 0, 66, 0
3, 106227, Note_off_c, 0, 69, 0
3, 106240, Note_on_c, 0, 60, 100
3, 106242, Note_off_c, 0, 61, 0
3, 106368, Note_on_c, 0, 57, 100
3, 106370, Note_off_c, 0, 60, 0
3, 106489, Note_off_c, 0, 57, 0
3, 106496, Note_on_c, 0, 74, 100
3, 106496, Note_on_c, 0, 55, 100
3, 106624, Note_off_c, 0, 55, 0
3, 106752, Note_on_c, 0, 66, 100
3, 106752, Note_on_c, 0, 57, 100
3, 106880, Note_on_c, 0, 72, 100
3, 106882, Note_off_c, 0, 57, 0
3, 106887, Note_off_c, 0, 74, 0
3, 106922, Note_off_c, 0, 72, 0
3, 106922, Note_on_c, 0, 71, 100
3, 106965, Note_off_c, 0, 71, 0
3, 106965, Note_on_c, 0, 69, 100
3, 107008, Note_off_c, 0, 69, 0
3, 107008, Note_on_c, 0, 67, 100
3, 107008, Note_on_c, 0, 67, 100
3, 107008, Note_on_c, 0, 59, 100
3, 107013, Note_off_c, 0, 66, 0
3, 107129, Note_off_c, 0, 67, 0
3, 107129, Note_off_c, 0, 67, 0
3, 107129, Note_off_c, 0, 59, 0
3, 107264, Note_on_c, 0, 71, 100
3, 107264, Note_on_c, 0, 76, 100
3, 107264, Note_on_c, 0, 56, 100
3, 107392, Note_off_c, 0, 71, 0
3, 107392, Note_off_c, 0, 76, 0
3, 107392, Note_off_c, 0, 56, 0
3, 107520, Note_on_c, 0, 64, 100
3, 107520, Note_on_c, 0, 72, 100
3, 107520, Note_on_c, 0, 57, 100
3, 107648, Note_off_c, 0, 64, 0
3, 107648, Note_off_c, 0, 72, 0
3, 107648, Note_off_c, 0, 57, 0
3, 107776, Note_on_c, 0, 60, 100
3, 107776, Note_on_c, 0, 69, 100
3, 107776, Note_on_c, 0, 55, 100
3, 107904, Note_off_c, 0, 60, 0
3, 107904, Note_off_c, 0, 69, 0
3, 107904, Note_off_c, 0, 55, 0
3, 108032, Note_on_c, 0, 74, 100
3, 108032, Note_on_c, 0, 57, 100
3, 108032, Note_on_c, 0, 54, 100
3, 108160, Note_off_c, 0, 54, 0
3, 108288, Note_off_c, 0, 74, 0
3, 108288, Note_off_c, 0, 57, 0
3, 108288, Note_on_c, 0, 50, 100
3, 108416, Note_on_c, 0, 69, 100
3, 108416, Note_on_c, 0, 72, 100
3, 108416, Note_off_c, 0, 50, 0
3, 108544, Note_off_c, 0, 69, 0
3, 108544, Note_off_c, 0, 72, 0
3, 108544, Note_on_c, 0, 69, 100
3, 108544, Note_on_c, 0, 72, 100
3, 108544, Note_on_c, 0, 52, 100
3, 108672, Note_on_c, 0, 67, 100
3, 108672, Note_on_c, 0, 71, 100
3, 108672, Note_off_c, 0, 52, 0
3, 108674, Note_off_c, 0, 69, 0
3, 108674, Note_off_c, 0, 72, 0
3, 108793, Note_off_c, 0, 67, 0
3, 108793, Note_off_c, 0, 71, 0
3, 108800, Note_on_c, 0, 48, 100
3, 108928, Note_on_c, 0, 72, 100
3, 108928, Note_off_c, 0, 48, 0
3, 108966, Note_off_c, 0, 72, 0
3, 109056, Note_on_c, 0, 72, 100
3, 109056, Note_on_c, 0, 50, 100
3, 109184, Note_on_c, 0, 71, 100
3, 109184, Note_off_c, 0, 50, 0
3, 109186, Note_off_c, 0, 72, 0
3, 109305, Note_off_c, 0, 71, 0
3, 109312, Note_on_c, 0, 50, 100
3, 109440, Note_on_c, 0, 60, 100
3, 109440, Note_off_c, 0, 50, 0
3, 109568, Note_off_c, 0, 60, 0
3, 109568, Note_on_c, 0, 55, 100
3, 109568, Note_on_c, 0, 59, 100
3, 109568, Note_on_c, 0, 43, 100
3, 109696, Note_off_c, 0, 55, 0
3, 109696, Note_off_c, 0, 59, 0
3, 109696, Note_on_c, 0, 55, 100
3, 109696, Note_on_c, 0, 59, 100
3, 109824, Note_off_c, 0, 55, 0
3, 109824, Note_off_c, 0, 59, 0
3, 109824, Note_on_c, 0, 57, 100
3, 109824, Note_on_c, 0, 60, 100
3, 109824, Note_off_c, 0, 43, 0
3, 109952, Note_off_c, 0, 57, 0
3, 109952, Note_off_c, 0, 60, 0
3, 109952, Note_on_c, 0, 57, 100
3, 109952, Note_on_c, 0, 60, 100
3, 110080, Note_off_c, 0, 57, 0
3, 110080, Note_off_c, 0, 60, 0
3, 110080, Note_on_c, 0, 59, 100
3, 110080, Note_on_c, 0, 62, 100
3, 110208, Note_off_c, 0, 59, 0
3, 110208, Note_off_c, 0, 62, 0
3, 110208, Note_on_c, 0, 59, 100
3, 110208, Note_on_c, 0, 62, 100
3, 110336, Note_off_c, 0, 59, 0
3, 110336, Note_off_c, 0, 62, 0
3, 110336, Note_on_c, 0, 55, 100
3, 110336, Note_on_c, 0, 59, 100
3, 110464, Note_off_c, 0, 55, 0
3, 110464, Note_off_c, 0, 59, 0
3, 110464, Note_on_c, 0, 55, 100
3, 110464, Note_on_c, 0, 59, 100
3, 110592, Note_off_c, 0, 55, 0
3, 110592, Note_off_c, 0, 59, 0
3, 110592, Note_on_c, 0, 54, 100
3, 110592, Note_on_c, 0, 57, 100
3, 110592, Note_on_c, 0, 50, 100
3, 110720, Note_off_c, 0, 54, 0
3, 110720, Note_off_c, 0, 57, 0
3, 110720, Note_on_c, 0, 54, 100
3, 110720, Note_on_c, 0, 57, 100
3, 110848, Note_off_c, 0, 54, 0
3, 110848, Note_off_c, 0, 57, 0
3, 110848, Note_on_c, 0, 55, 100
3, 110848, Note_on_c, 0, 59, 100
3, 110848, Note_off_c, 0, 50, 0
3, 110976, Note_off_c, 0, 55, 0
3, 110976, Note_off_c, 0, 59, 0
3, 110976, Note_on_c, 0, 55, 100
3, 110976, Note_on_c, 0, 59, 100
3, 111104, Note_off_c, 0, 55, 0
3, 111104, Note_off_c, 0, 59, 0
3, 111104, Note_on_c, 0, 57, 100
3, 111104, Note_on_c, 0, 60, 100
3, 111232, Note_off_c, 0, 57, 0
3, 111232, Note_off_c, 0, 60, 0
3, 111232, Note_on_c, 0, 57, 100
3, 111232, Note_on_c, 0, 60, 100
3, 111360, Note_off_c, 0, 57, 0
3, 111360, Note_off_c, 0, 60, 0
3, 111360, Note_on_c, 0, 54, 100
3, 111360, Note_on_c, 0, 57, 100
3, 111488, Note_off_c, 0, 54, 0
3, 111488, Note_off_c, 0, 57, 0
3, 111488, Note_on_c, 0, 54, 100
3, 111488, Note_on_c, 0, 57, 100
3, 111616, Note_off_c, 0, 54, 0
3, 111616, Note_off_c, 0, 57, 0
3, 111616, Note_on_c, 0, 55, 100
3, 111616, Note_on_c, 0, 59, 100
3, 111616, Note_on_c, 0, 43, 100
3, 111744, Note_off_c, 0, 55, 0
3, 111744, Note_off_c, 0, 59, 0
3, 111744, Note_on_c, 0, 55, 100
3, 111744, Note_on_c, 0, 59, 100
3, 111872, Note_off_c, 0, 55, 0
3, 111872, Note_off_c, 0, 59, 0
3, 111872, Note_on_c, 0, 57, 100
3, 111872, Note_on_c, 0, 60, 100
3, 111872, Note_off_c, 0, 43, 0
3, 112000, Note_off_c, 0, 57, 0
3, 112000, Note_off_c, 0, 60, 0
3, 112000, Note_on_c, 0, 57, 100
3, 112000, Note_on_c, 0, 60, 100
3, 112128, Note_off_c, 0, 57, 0
3, 112128, Note_off_c, 0, 60, 0
3, 112128, Note_on_c, 0, 59, 100
3, 112128, Note_on_c, 0, 62, 100
3, 112256, Note_off_c, 0, 59, 0
3, 112256, Note_off_c, 0, 62, 0
3, 112256, Note_on_c, 0, 59, 100
3, 112256, Note_on_c, 0, 62, 100
3, 112384, Note_off_c, 0, 59, 0
3, 112384, Note_off_c, 0, 62, 0
3, 112384, Note_on_c, 0, 55, 100
3, 112384, Note_on_c, 0, 59, 100
3, 112512, Note_off_c, 0, 55, 0
3, 112512, Note_off_c, 0, 59, 0
3, 112512, Note_on_c, 0, 55, 100
3, 112512, Note_on_c, 0, 59, 100
3, 112640, Note_off_c, 0, 55, 0
3, 112640, Note_off_c, 0, 59, 0
3, 112640, Note_on_c, 0, 54, 100
3, 112640, Note_on_c, 0, 57, 100
3, 112640, Note_on_c, 0, 50, 100
3, 112768, Note_off_c, 0, 54, 0
3, 112768, Note_off_c, 0, 57, 0
3, 112768, Note_on_c, 0, 54, 100
3, 112768, Note_on_c, 0, 57, 100
3, 112896, Note_off_c, 0, 54, 0
3, 112896, Note_off_c, 0, 57, 0
3, 112896, Note_on_c, 0, 55, 100
3, 112896, Note_on_c, 0, 59, 100
3, 112896, Note_off_c, 0, 50, 0
3, 113024, Note_off_c, 0, 55, 0
3, 113024, Note_off_c, 0, 59, 0
3, 113024, Note_on_c, 0, 55, 100
3, 113024, Note_on_c, 0, 59, 100
3, 113152, Note_off_c, 0, 55, 0
3, 113152, Note_off_c, 0, 59, 0
3, 113152, Note_on_c, 0, 57, 100
3, 113152, Note_on_c, 0, 60, 100
3, 113280, Note_off_c, 0, 57, 0
3, 113280, Note_off_c, 0, 60, 0
3, 113280, Note_on_c, 0, 57, 100
3, 113280, Note_on_c, 0, 60, 100
3, 113408, Note_off_c, 0, 57, 0
3, 113408, Note_off_c, 0, 60, 0
3, 113408, Note_on_c, 0, 54, 100
3, 113408, Note_on_c, 0, 57, 100
3, 113536, Note_off_c, 0, 54, 0
3, 113536, Note_off_c, 0, 57, 0
3, 113536, Note_on_c, 0, 54, 100
3, 113536, Note_on_c, 0, 57, 100
3, 113664, Note_off_c, 0, 54, 0
3, 113664, Note_off_c, 0, 57, 0
3, 113664, Note_on_c, 0, 55, 100
3, 113664, Note_on_c, 0, 59, 100
3, 113792, Note_on_c, 0, 43, 100
3, 113792, Note_on_c, 0, 55, 100
3, 113920, Note_off_c, 0, 55, 0
3, 113920, Note_off_c, 0, 59, 0
3, 113920, Note_off_c, 0, 43, 0
3, 113920, Note_off_c, 0, 55, 0
3, 113920, Note_on_c, 0, 47, 100
3, 113920, Note_on_c, 0, 59, 100
3, 114048, Note_off_c, 0, 47, 0
3, 114048, Note_off_c, 0, 59, 0
3, 114048, Note_on_c, 0, 45, 100
3, 114048, Note_on_c, 0, 57, 100
3, 114176, Note_on_c, 0, 64, 100
3, 114176, Note_on_c, 0, 71, 100
3, 114176, Note_off_c, 0, 45, 0
3, 114176, Note_off_c, 0, 57, 0
3, 114176, Note_on_c, 0, 44, 100
3, 114176, Note_on_c, 0, 56, 100
3, 114304, Note_off_c, 0, 44, 0
3, 114304, Note_off_c, 0, 56, 0
3, 114304, Note_on_c, 0, 40, 100
3, 114304, Note_on_c, 0, 52, 100
3, 114432, Note_off_c, 0, 40, 0
3, 114432, Note_off_c, 0, 52, 0
3, 114432, Note_on_c, 0, 42, 100
3, 114432, Note_on_c, 0, 54, 100
3, 114560, Note_off_c, 0, 42, 0
3, 114560, Note_off_c, 0, 54, 0
3, 114560, Note_on_c, 0, 44, 100
3, 114560, Note_on_c, 0, 56, 100
3, 114688, Note_on_c, 0, 69, 100
3, 114688, Note_off_c, 0, 44, 0
3, 114688, Note_off_c, 0, 56, 0
3, 114688, Note_on_c, 0, 45, 100
3, 114688, Note_on_c, 0, 57, 100
3, 114698, Note_off_c, 0, 64, 0
3, 114698, Note_off_c, 0, 71, 0
3, 114816, Note_off_c, 0, 45, 0
3, 114816, Note_off_c, 0, 57, 0
3, 114816, Note_on_c, 0, 48, 100
3, 114816, Note_on_c, 0, 60, 100
3, 114931, Note_off_c, 0, 69, 0
3, 114944, Note_off_c, 0, 48, 0
3, 114944, Note_off_c, 0, 60, 0
3, 114944, Note_on_c, 0, 45, 100
3, 114944, Note_on_c, 0, 57, 100
3, 115072, Note_off_c, 0, 45, 0
3, 115072, Note_off_c, 0, 57, 0
3, 115072, Note_on_c, 0, 43, 100
3, 115072, Note_on_c, 0, 55, 100
3, 115200, Note_on_c, 0, 62, 100
3, 115200, Note_on_c, 0, 69, 100
3, 115200, Note_off_c, 0, 43, 0
3, 115200, Note_off_c, 0, 55, 0
3, 115200, Note_on_c, 0, 42, 100
3, 115200, Note_on_c, 0, 54, 100
3, 115328, Note_off_c, 0, 42, 0
3, 115328, Note_off_c, 0, 54, 0
3, 115328, Note_on_c, 0, 38, 100
3, 115328, Note_on_c, 0, 50, 100
3, 115456, Note_off_c, 0, 38, 0
3, 115456, Note_off_c, 0, 50, 0
3, 115456, Note_on_c, 0, 40, 100
3, 115456, Note_on_c, 0, 52, 100
3, 115584, Note_off_c, 0, 40, 0
3, 115584, Note_off_c, 0, 52, 0
3, 115584, Note_on_c, 0, 42, 100
3, 115584, Note_on_c, 0, 54, 100
3, 115712, Note_on_c, 0, 67, 100
3, 115712, Note_off_c, 0, 42, 0
3, 115712, Note_off_c, 0, 54, 0
3, 115712, Note_on_c, 0, 43, 100
3, 115712, Note_on_c, 0, 55, 100
3, 115722, Note_off_c, 0, 62, 0
3, 115722, Note_off_c, 0, 69, 0
3, 115776, Note_off_c, 0, 43, 0
3, 115776, Note_off_c, 0, 55, 0
3, 115833, Note_off_c, 0, 67, 0
3, 115840, Note_on_c, 0, 67, 100
3, 115840, Note_on_c, 0, 71, 100
3, 115840, Note_on_c, 0, 55, 100
3, 115904, Note_off_c, 0, 67, 0
3, 115904, Note_off_c, 0, 71, 0
3, 115904, Note_off_c, 0, 55, 0
3, 115968, Note_on_c, 0, 67, 100
3, 115968, Note_on_c, 0, 72, 100
3, 115968, Note_on_c, 0, 57, 100
3, 116032, Note_off_c, 0, 67, 0
3, 116032, Note_off_c, 0, 72, 0
3, 116032, Note_off_c, 0, 57, 0
3, 116096, Note_on_c, 0, 67, 100
3, 116096, Note_on_c, 0, 74, 100
3, 116096, Note_on_c, 0, 59, 100
3, 116160, Note_off_c, 0, 67, 0
3, 116160, Note_off_c, 0, 74, 0
3, 116160, Note_off_c, 0, 59, 0
3, 116224, Note_on_c, 0, 72, 100
3, 116224, Note_on_c, 0, 67, 100
3, 116224, Note_on_c, 0, 60, 100
3, 116352, Note_off_c, 0, 67, 0
3, 116352, Note_on_c, 0, 74, 100
3, 116352, Note_on_c, 0, 67, 100
3, 116352, Note_off_c, 0, 60, 0
3, 116352, Note_on_c, 0, 60, 100
3, 116354, Note_off_c, 0, 72, 0
3, 116416, Note_on_c, 0, 76, 100
3, 116417, Note_off_c, 0, 74, 0
3, 116480, Note_off_c, 0, 67, 0
3, 116480, Note_on_c, 0, 74, 100
3, 116480, Note_on_c, 0, 67, 100
3, 116480, Note_off_c, 0, 60, 0
3, 116480, Note_on_c, 0, 60, 100
3, 116481, Note_off_c, 0, 76, 0
3, 116601, Note_off_c, 0, 74, 0
3, 116601, Note_off_c, 0, 67, 0
3, 116608, Note_on_c, 0, 72, 100
3, 116608, Note_on_c, 0, 67, 100
3, 116608, Note_off_c, 0, 60, 0
3, 116608, Note_on_c, 0, 60, 100
3, 116646, Note_off_c, 0, 72, 0
3, 116736, Note_off_c, 0, 67, 0
3, 116736, Note_on_c, 0, 67, 100
3, 116736, Note_on_c, 0, 72, 100
3, 116736, Note_off_c, 0, 60, 0
3, 116736, Note_on_c, 0, 62, 100
3, 116864, Note_on_c, 0, 62, 100
3, 116864, Note_on_c, 0, 71, 100
3, 116864, Note_off_c, 0, 62, 0
3, 116864, Note_on_c, 0, 62, 100
3, 116866, Note_off_c, 0, 67, 0
3, 116866, Note_off_c, 0, 72, 0
3, 116985, Note_off_c, 0, 62, 0
3, 116985, Note_off_c, 0, 71, 0
3, 116992, Note_on_c, 0, 62, 100
3, 116992, Note_on_c, 0, 67, 100
3, 116992, Note_off_c, 0, 62, 0
3, 116992, Note_on_c, 0, 62, 100
3, 117120, Note_off_c, 0, 62, 0
3, 117120, Note_off_c, 0, 67, 0
3, 117120, Note_on_c, 0, 62, 100
3, 117120, Note_on_c, 0, 71, 100
3, 117120, Note_off_c, 0, 62, 0
3, 117120, Note_on_c, 0, 62, 100
3, 117248, Note_off_c, 0, 62, 0
3, 117248, Note_off_c, 0, 71, 0
3, 117248, Note_on_c, 0, 62, 100
3, 117248, Note_on_c, 0, 71, 100
3, 117248, Note_off_c, 0, 62, 0
3, 117248, Note_on_c, 0, 50, 100
3, 117376, Note_off_c, 0, 62, 0
3, 117376, Note_on_c, 0, 62, 100
3, 117376, Note_on_c, 0, 69, 100
3, 117376, Note_off_c, 0, 50, 0
3, 117376, Note_on_c, 0, 50, 100
3, 117378, Note_off_c, 0, 71, 0
3, 117497, Note_off_c, 0, 62, 0
3, 117497, Note_off_c, 0, 69, 0
3, 117504, Note_on_c, 0, 62, 100
3, 117504, Note_on_c, 0, 67, 100
3, 117504, Note_off_c, 0, 50, 0
3, 117504, Note_on_c, 0, 50, 100
3, 117632, Note_off_c, 0, 62, 0
3, 117632, Note_off_c, 0, 67, 0
3, 117632, Note_on_c, 0, 60, 100
3, 117632, Note_on_c, 0, 66, 100
3, 117632, Note_off_c, 0, 50, 0
3, 117632, Note_on_c, 0, 50, 100
3, 117760, Note_off_c, 0, 60, 0
3, 117760, Note_off_c, 0, 66, 0
3, 117760, Note_on_c, 0, 59, 100
3, 117760, Note_on_c, 0, 67, 100
3, 117760, Note_off_c, 0, 50, 0
3, 117760, Note_on_c, 0, 55, 100
3, 117888, Note_off_c, 0, 59, 0
3, 117888, Note_off_c, 0, 67, 0
3, 117888, Note_on_c, 0, 55, 100
3, 117888, Note_on_c, 0, 59, 100
3, 118016, Note_off_c, 0, 55, 0
3, 118016, Note_off_c, 0, 59, 0
3, 118016, Note_on_c, 0, 57, 100
3, 118016, Note_on_c, 0, 60, 100
3, 118016, Note_off_c, 0, 55, 0
3, 118144, Note_off_c, 0, 57, 0
3, 118144, Note_off_c, 0, 60, 0
3, 118144, Note_on_c, 0, 57, 100
3, 118144, Note_on_c, 0, 60, 100
3, 118272, Note_off_c, 0, 57, 0
3, 118272, Note_off_c, 0, 60, 0
3, 118272, Note_on_c, 0, 59, 100
3, 118272, Note_on_c, 0, 62, 100
3, 118400, Note_off_c, 0, 59, 0
3, 118400, Note_off_c, 0, 62, 0
3, 118400, Note_on_c, 0, 59, 100
3, 118400, Note_on_c, 0, 62, 100
3, 118528, Note_off_c, 0, 59, 0
3, 118528, Note_off_c, 0, 62, 0
3, 118528, Note_on_c, 0, 55, 100
3, 118528, Note_on_c, 0, 59, 100
3, 118656, Note_off_c, 0, 55, 0
3, 118656, Note_off_c, 0, 59, 0
3, 118656, Note_on_c, 0, 55, 100
3, 118656, Note_on_c, 0, 59, 100
3, 118784, Note_off_c, 0, 55, 0
3, 118784, Note_off_c, 0, 59, 0
3, 118784, Note_on_c, 0, 54, 100
3, 118784, Note_on_c, 0, 57, 100
3, 118784, Note_on_c, 0, 50, 100
3, 118912, Note_off_c, 0, 54, 0
3, 118912, Note_off_c, 0, 57, 0
3, 118912, Note_on_c, 0, 54, 100
3, 118912, Note_on_c, 0, 57, 100
3, 119040, Note_off_c, 0, 54, 0
3, 119040, Note_off_c, 0, 57, 0
3, 119040, Note_on_c, 0, 55, 100
3, 119040, Note_on_c, 0, 59, 100
3, 119040, Note_off_c, 0, 50, 0
3, 119168, Note_off_c, 0, 55, 0
3, 119168, Note_off_c, 0, 59, 0
3, 119168, Note_on_c, 0, 55, 100
3, 119168, Note_on_c, 0, 59, 100
3, 119296, Note_off_c, 0, 55, 0
3, 119296, Note_off_c, 0, 59, 0
3, 119296, Note_on_c, 0, 57, 100
3, 119296, Note_on_c, 0, 60, 100
3, 119424, Note_off_c, 0, 57, 0
3, 119424, Note_off_c, 0, 60, 0
3, 119424, Note_on_c, 0, 57, 100
3, 119424, Note_on_c, 0, 60, 100
3, 119552, Note_off_c, 0, 57, 0
3, 119552, Note_off_c, 0, 60, 0
3, 119552, Note_on_c, 0, 54, 100
3, 119552, Note_on_c, 0, 57, 100
3, 119680, Note_off_c, 0, 54, 0
3, 119680, Note_off_c, 0, 57, 0
3, 119680, Note_on_c, 0, 54, 100
3, 119680, Note_on_c, 0, 57, 100
3, 119808, Note_off_c, 0, 54, 0
3, 119808, Note_off_c, 0, 57, 0
3, 119808, Note_on_c, 0, 55, 100
3, 119808, Note_on_c, 0, 59, 100
3, 119808, Note_on_c, 0, 55, 100
3, 119936, Note_off_c, 0, 55, 0
3, 119936, Note_off_c, 0, 59, 0
3, 119936, Note_on_c, 0, 67, 100
3, 119936, Note_on_c, 0, 71, 100
3, 120064, Note_off_c, 0, 67, 0
3, 120064, Note_off_c, 0, 71, 0
3, 120064, Note_on_c, 0, 69, 100
3, 120064, Note_on_c, 0, 72, 100
3, 120064, Note_off_c, 0, 55, 0
3, 120192, Note_off_c, 0, 69, 0
3, 120192, Note_off_c, 0, 72, 0
3, 120192, Note_on_c, 0, 69, 100
3, 120192, Note_on_c, 0, 72, 100
3, 120320, Note_off_c, 0, 69, 0
3, 120320, Note_off_c, 0, 72, 0
3, 120320, Note_on_c, 0, 71, 100
3, 120320, Note_on_c, 0, 74, 100
3, 120448, Note_off_c, 0, 71, 0
3, 120448, Note_off_c, 0, 74, 0
3, 120448, Note_on_c, 0, 71, 100
3, 120448, Note_on_c, 0, 74, 100
3, 120576, Note_off_c, 0, 71, 0
3, 120576, Note_off_c, 0, 74, 0
3, 120576, Note_on_c, 0, 67, 100
3, 120576, Note_on_c, 0, 71, 100
3, 120704, Note_off_c, 0, 67, 0
3, 120704, Note_off_c, 0, 71, 0
3, 120704, Note_on_c, 0, 67, 100
3, 120704, Note_on_c, 0, 71, 100
3, 120832, Note_off_c, 0, 67, 0
3, 120832, Note_off_c, 0, 71, 0
3, 120832, Note_on_c, 0, 66, 100
3, 120832, Note_on_c, 0, 69, 100
3, 120832, Note_on_c, 0, 50, 100
3, 120960, Note_off_c, 0, 66, 0
3, 120960, Note_off_c, 0, 69, 0
3, 120960, Note_on_c, 0, 66, 100
3, 120960, Note_on_c, 0, 69, 100
3, 121088, Note_off_c, 0, 66, 0
3, 121088, Note_off_c, 0, 69, 0
3, 121088, Note_on_c, 0, 67, 100
3, 121088, Note_on_c, 0, 71, 100
3, 121088, Note_off_c, 0, 50, 0
3, 121216, Note_off_c, 0, 67, 0
3, 121216, Note_off_c, 0, 71, 0
3, 121216, Note_on_c, 0, 67, 100
3, 121216, Note_on_c, 0, 71, 100
3, 121344, Note_off_c, 0, 67, 0
3, 121344, Note_off_c, 0, 71, 0
3, 121344, Note_on_c, 0, 69, 100
3, 121344, Note_on_c, 0, 72, 100
3, 121472, Note_off_c, 0, 69, 0
3, 121472, Note_off_c, 0, 72, 0
3, 121472, Note_on_c, 0, 69, 100
3, 121472, Note_on_c, 0, 72, 100
3, 121600, Note_off_c, 0, 69, 0
3, 121600, Note_off_c, 0, 72, 0
3, 121600, Note_on_c, 0, 66, 100
3, 121600, Note_on_c, 0, 69, 100
3, 121728, Note_off_c, 0, 66, 0
3, 121728, Note_off_c, 0, 69, 0
3, 121728, Note_on_c, 0, 66, 100
3, 121728, Note_on_c, 0, 69, 100
3, 121856, Note_off_c, 0, 66, 0
3, 121856, Note_off_c, 0, 69, 0
3, 121856, Note_on_c, 0, 67, 100
3, 121856, Note_on_c, 0, 71, 100
3, 121984, Note_on_c, 0, 43, 100
3, 121984, Note_on_c, 0, 55, 100
3, 122112, Note_off_c, 0, 67, 0
3, 122112, Note_off_c, 0, 71, 0
3, 122112, Note_off_c, 0, 43, 0
3, 122112, Note_off_c, 0, 55, 0
3, 122112, Note_on_c, 0, 47, 100
3, 122112, Note_on_c, 0, 59, 100
3, 122240, Note_off_c, 0, 47, 0
3, 122240, Note_off_c, 0, 59, 0
3, 122240, Note_on_c, 0, 45, 100
3, 122240, Note_on_c, 0, 57, 100
3, 122368, Note_on_c, 0, 71, 100
3, 122368, Note_on_c, 0, 83, 100
3, 122368, Note_off_c, 0, 45, 0
3, 122368, Note_off_c, 0, 57, 0
3, 122368, Note_on_c, 0, 44, 100
3, 122368, Note_on_c, 0, 56, 100
3, 122496, Note_off_c, 0, 44, 0
3, 122496, Note_off_c, 0, 56, 0
3, 122496, Note_on_c, 0, 40, 100
3, 122496, Note_on_c, 0, 52, 100
3, 122624, Note_off_c, 0, 40, 0
3, 122624, Note_off_c, 0, 52, 0
3, 122624, Note_on_c, 0, 42, 100
3, 122624, Note_on_c, 0, 54, 100
3, 122752, Note_off_c, 0, 42, 0
3, 122752, Note_off_c, 0, 54, 0
3, 122752, Note_on_c, 0, 44, 100
3, 122752, Note_on_c, 0, 56, 100
3, 122880, Note_on_c, 0, 72, 100
3, 122880, Note_on_c, 0, 81, 100
3, 122880, Note_off_c, 0, 44, 0
3, 122880, Note_off_c, 0, 56, 0
3, 122880, Note_on_c, 0, 45, 100
3, 122880, Note_on_c, 0, 57, 100
3, 122890, Note_off_c, 0, 71, 0
3, 122890, Note_off_c, 0, 83, 0
3, 123008, Note_off_c, 0, 45, 0
3, 123008, Note_off_c, 0, 57, 0
3, 123008, Note_on_c, 0, 48, 100
3, 123008, Note_on_c, 0, 60, 100
3, 123123, Note_off_c, 0, 72, 0
3, 123123, Note_off_c, 0, 81, 0
3, 123136, Note_off_c, 0, 48, 0
3, 123136, Note_off_c, 0, 60, 0
3, 123136, Note_on_c, 0, 45, 100
3, 123136, Note_on_c, 0, 57, 100
3, 123264, Note_off_c, 0, 45, 0
3, 123264, Note_off_c, 0, 57, 0
3, 123264, Note_on_c, 0, 43, 100
3, 123264, Note_on_c, 0, 55, 100
3, 123392, Note_on_c, 0, 69, 100
3, 123392, Note_on_c, 0, 81, 100
3, 123392, Note_off_c, 0, 43, 0
3, 123392, Note_off_c, 0, 55, 0
3, 123392, Note_on_c, 0, 42, 100
3, 123392, Note_on_c, 0, 54, 100
3, 123520, Note_off_c, 0, 42, 0
3, 123520, Note_off_c, 0, 54, 0
3, 123520, Note_on_c, 0, 38, 100
3, 123520, Note_on_c, 0, 50, 100
3, 123648, Note_off_c, 0, 38, 0
3, 123648, Note_off_c, 0, 50, 0
3, 123648, Note_on_c, 0, 40, 100
3, 123648, Note_on_c, 0, 52, 100
3, 123776, Note_off_c, 0, 40, 0
3, 123776, Note_off_c, 0, 52, 0
3, 123776, Note_on_c, 0, 42, 100
3, 123776, Note_on_c, 0, 54, 100
3, 123904, Note_on_c, 0, 71, 100
3, 123904, Note_on_c, 0, 79, 100
3, 123904, Note_off_c, 0, 42, 0
3, 123904, Note_off_c, 0, 54, 0
3, 123904, Note_on_c, 0, 55, 100
3, 123914, Note_off_c, 0, 69, 0
3, 123914, Note_off_c, 0, 81, 0
3, 124025, Note_off_c, 0, 71, 0
3, 124025, Note_off_c, 0, 79, 0
3, 124032, Note_on_c, 0, 67, 100
3, 124032, Note_on_c, 0, 71, 100
3, 124032, Note_off_c, 0, 55, 0
3, 124032, Note_on_c, 0, 55, 100
3, 124096, Note_off_c, 0, 67, 0
3, 124096, Note_off_c, 0, 71, 0
3, 124096, Note_off_c, 0, 55, 0
3, 124160, Note_on_c, 0, 67, 100
3, 124160, Note_on_c, 0, 72, 100
3, 124160, Note_on_c, 0, 57, 100
3, 124224, Note_off_c, 0, 67, 0
3, 124224, Note_off_c, 0, 72, 0
3, 124224, Note_off_c, 0, 57, 0
3, 124288, Note_on_c, 0, 67, 100
3, 124288, Note_on_c, 0, 74, 100
3, 124288, Note_on_c, 0, 59, 100
3, 124352, Note_off_c, 0, 67, 0
3, 124352, Note_off_c, 0, 74, 0
3, 124352, Note_off_c, 0, 59, 0
3, 124416, Note_on_c, 0, 72, 100
3, 124416, Note_on_c, 0, 67, 100
3, 124416, Note_on_c, 0, 60, 100
3, 124544, Note_off_c, 0, 67, 0
3, 124544, Note_on_c, 0, 74, 100
3, 124544, Note_on_c, 0, 67, 100
3, 124544, Note_off_c, 0, 60, 0
3, 124544, Note_on_c, 0, 60, 100
3, 124546, Note_off_c, 0, 72, 0
3, 124608, Note_on_c, 0, 76, 100
3, 124609, Note_off_c, 0, 74, 0
3, 124672, Note_off_c, 0, 67, 0
3, 124672, Note_on_c, 0, 74, 100
3, 124672, Note_on_c, 0, 67, 100
3, 124672, Note_off_c, 0, 60, 0
3, 124672, Note_on_c, 0, 60, 100
3, 124673, Note_off_c, 0, 76, 0
3, 124793, Note_off_c, 0, 74, 0
3, 124793, Note_off_c, 0, 67, 0
3, 124800, Note_on_c, 0, 72, 100
3, 124800, Note_on_c, 0, 67, 100
3, 124800, Note_off_c, 0, 60, 0
3, 124800, Note_on_c, 0, 60, 100
3, 124838, Note_off_c, 0, 72, 0
3, 124928, Note_off_c, 0, 67, 0
3, 124928, Note_on_c, 0, 67, 100
3, 124928, Note_on_c, 0, 71, 100
3, 124928, Note_off_c, 0, 60, 0
3, 124928, Note_on_c, 0, 62, 100
3, 124992, Note_off_c, 0, 67, 0
3, 124992, Note_off_c, 0, 71, 0
3, 125056, Note_on_c, 0, 71, 100
3, 125056, Note_on_c, 0, 74, 100
3, 125056, Note_off_c, 0, 62, 0
3, 125056, Note_on_c, 0, 62, 100
3, 125120, Note_off_c, 0, 71, 0
3, 125120, Note_off_c, 0, 74, 0
3, 125184, Note_on_c, 0, 74, 100
3, 125184, Note_on_c, 0, 79, 100
3, 125184, Note_off_c, 0, 62, 0
3, 125184, Note_on_c, 0, 62, 100
3, 125248, Note_off_c, 0, 74, 0
3, 125248, Note_off_c, 0, 79, 0
3, 125312, Note_on_c, 0, 74, 100
3, 125312, Note_on_c, 0, 83, 100
3, 125312, Note_off_c, 0, 62, 0
3, 125312, Note_on_c, 0, 62, 100
3, 125376, Note_off_c, 0, 74, 0
3, 125376, Note_off_c, 0, 83, 0
3, 125440, Note_on_c, 0, 74, 100
3, 125440, Note_on_c, 0, 83, 100
3, 125440, Note_off_c, 0, 62, 0
3, 125440, Note_on_c, 0, 50, 100
3, 125568, Note_off_c, 0, 74, 0
3, 125568, Note_on_c, 0, 74, 100
3, 125568, Note_on_c, 0, 81, 100
3, 125568, Note_off_c, 0, 50, 0
3, 125568, Note_on_c, 0, 50, 100
3, 125570, Note_off_c, 0, 83, 0
3, 125689, Note_off_c, 0, 74, 0
3, 125689, Note_off_c, 0, 81, 0
3, 125696, Note_on_c, 0, 74, 100
3, 125696, Note_on_c, 0, 79, 100
3, 125696, Note_off_c, 0, 50, 0
3, 125696, Note_on_c, 0, 50, 100
3, 125824, Note_off_c, 0, 74, 0
3, 125824, Note_off_c, 0, 79, 0
3, 125824, Note_on_c, 0, 72, 100
3, 125824, Note_on_c, 0, 78, 100
3, 125824, Note_off_c, 0, 50, 0
3, 125824, Note_on_c, 0, 50, 100
3, 125952, Note_off_c, 0, 72, 0
3, 125952, Note_off_c, 0, 78, 0
3, 125952, Note_on_c, 0, 71, 100
3, 125952, Note_on_c, 0, 79, 100
3, 125952, Note_off_c, 0, 50, 0
3, 125952, Note_on_c, 0, 55, 100
3, 126080, Note_off_c, 0, 71, 0
3, 126080, Note_off_c, 0, 79, 0
3, 126080, Note_on_c, 0, 62, 100
3, 126080, Note_off_c, 0, 55, 0
3, 126080, Note_on_c, 0, 50, 100
3, 126208, Note_off_c, 0, 62, 0
3, 126208, Note_on_c, 0, 64, 100
3, 126208, Note_off_c, 0, 50, 0
3, 126208, Note_on_c, 0, 52, 100
3, 126336, Note_off_c, 0, 64, 0
3, 126336, Note_on_c, 0, 66, 100
3, 126336, Note_off_c, 0, 52, 0
3, 126336, Note_on_c, 0, 54, 100
3, 126464, Note_off_c, 0, 66, 0
3, 126464, Note_on_c, 0, 67, 100
3, 126464, Note_off_c, 0, 54, 0
3, 126464, Note_on_c, 0, 55, 100
3, 126592, Note_off_c, 0, 67, 0
3, 126592, Note_on_c, 0, 67, 100
3, 126592, Note_off_c, 0, 55, 0
3, 126592, Note_on_c, 0, 55, 100
3, 126720, Note_off_c, 0, 67, 0
3, 126720, Note_on_c, 0, 69, 100
3, 126720, Note_off_c, 0, 55, 0
3, 126720, Note_on_c, 0, 57, 100
3, 126745, Note_off_c, 0, 69, 0
3, 126752, Note_on_c, 0, 71, 100
3, 126777, Note_off_c, 0, 71, 0
3, 126784, Note_on_c, 0, 69, 100
3, 126809, Note_off_c, 0, 69, 0
3, 126816, Note_on_c, 0, 71, 100
3, 126841, Note_off_c, 0, 71, 0
3, 126848, Note_on_c, 0, 69, 100
3, 126848, Note_on_c, 0, 67, 100
3, 126848, Note_off_c, 0, 57, 0
3, 126848, Note_on_c, 0, 57, 100
3, 126849, Note_off_c, 0, 69, 0
3, 126912, Note_on_c, 0, 69, 100
3, 126913, Note_off_c, 0, 67, 0
3, 126976, Note_on_c, 0, 71, 100
3, 126976, Note_off_c, 0, 57, 0
3, 126976, Note_on_c, 0, 59, 100
3, 126977, Note_off_c, 0, 69, 0
3, 127097, Note_off_c, 0, 71, 0
3, 127104, Note_on_c, 0, 66, 100
3, 127104, Note_off_c, 0, 59, 0
3, 127104, Note_on_c, 0, 54, 100
3, 127232, Note_off_c, 0, 66, 0
3, 127232, Note_on_c, 0, 67, 100
3, 127232, Note_off_c, 0, 54, 0
3, 127232, Note_on_c, 0, 55, 100
3, 127360, Note_off_c, 0, 67, 0
3, 127360, Note_on_c, 0, 69, 100
3, 127360, Note_off_c, 0, 55, 0
3, 127360, Note_on_c, 0, 57, 100
3, 127488, Note_off_c, 0, 69, 0
3, 127488, Note_on_c, 0, 71, 100
3, 127488, Note_off_c, 0, 57, 0
3, 127488, Note_on_c, 0, 59, 100
3, 127616, Note_off_c, 0, 71, 0
3, 127616, Note_on_c, 0, 71, 100
3, 127616, Note_off_c, 0, 59, 0
3, 127616, Note_on_c, 0, 59, 100
3, 127744, Note_off_c, 0, 71, 0
3, 127744, Note_on_c, 0, 72, 100
3, 127744, Note_off_c, 0, 59, 0
3, 127744, Note_on_c, 0, 60, 100
3, 127769, Note_off_c, 0, 72, 0
3, 127776, Note_on_c, 0, 74, 100
3, 127801, Note_off_c, 0, 74, 0
3, 127808, Note_on_c, 0, 72, 100
3, 127833, Note_off_c, 0, 72, 0
3, 127840, Note_on_c, 0, 74, 100
3, 127865, Note_off_c, 0, 74, 0
3, 127872, Note_on_c, 0, 72, 100
3, 127872, Note_on_c, 0, 71, 100
3, 127872, Note_off_c, 0, 60, 0
3, 127872, Note_on_c, 0, 60, 100
3, 127873, Note_off_c, 0, 72, 0
3, 127936, Note_on_c, 0, 72, 100
3, 127937, Note_off_c, 0, 71, 0
3, 128000, Note_on_c, 0, 74, 100
3, 128000, Note_off_c, 0, 60, 0
3, 128000, Note_on_c, 0, 62, 100
3, 128001, Note_off_c, 0, 72, 0
3, 128121, Note_off_c, 0, 74, 0
3, 128128, Note_on_c, 0, 74, 100
3, 128128, Note_off_c, 0, 62, 0
3, 128128, Note_on_c, 0, 62, 100
3, 128256, Note_off_c, 0, 74, 0
3, 128256, Note_on_c, 0, 75, 100
3, 128256, Note_off_c, 0, 62, 0
3, 128256, Note_on_c, 0, 63, 100
3, 128281, Note_off_c, 0, 75, 0
3, 128288, Note_on_c, 0, 76, 100
3, 128313, Note_off_c, 0, 76, 0
3, 128320, Note_on_c, 0, 75, 100
3, 128345, Note_off_c, 0, 75, 0
3, 128352, Note_on_c, 0, 76, 100
3, 128377, Note_off_c, 0, 76, 0
3, 128384, Note_on_c, 0, 75, 100
3, 128384, Note_on_c, 0, 73, 100
3, 128384, Note_off_c, 0, 63, 0
3, 128384, Note_on_c, 0, 63, 100
3, 128385, Note_off_c, 0, 75, 0
3, 128448, Note_on_c, 0, 75, 100
3, 128449, Note_off_c, 0, 73, 0
3, 128512, Note_on_c, 0, 76, 100
3, 128512, Note_off_c, 0, 63, 0
3, 128512, Note_on_c, 0, 64, 100
3, 128513, Note_off_c, 0, 75, 0
3, 128755, Note_off_c, 0, 76, 0
3, 128768, Note_off_c, 0, 64, 0
3, 129024, Note_on_c, 0, 60, 100
3, 129024, Note_on_c, 0, 57, 100
3, 129024, Note_on_c, 0, 48, 100
3, 129536, Note_on_c, 0, 50, 100
3, 129546, Note_off_c, 0, 48, 0
3, 129792, Note_on_c, 0, 55, 100
3, 129807, Note_off_c, 0, 57, 0
3, 129920, Note_on_c, 0, 54, 100
3, 129922, Note_off_c, 0, 55, 0
3, 130022, Note_off_c, 0, 50, 0
3, 130048, Note_on_c, 0, 55, 100
3, 130048, Note_on_c, 0, 59, 100
3, 130048, Note_on_c, 0, 43, 100
3, 130050, Note_off_c, 0, 54, 0
3, 130068, Note_off_c, 0, 60, 0
3, 130291, Note_off_c, 0, 55, 0
3, 130291, Note_off_c, 0, 59, 0
3, 130304, Note_off_c, 0, 43, 0
3, 131072, Note_on_c, 0, 60, 100
3, 131072, Note_on_c, 0, 57, 100
3, 131072, Note_on_c, 0, 48, 100
3, 131584, Note_on_c, 0, 50, 100
3, 131594, Note_off_c, 0, 48, 0
3, 131840, Note_on_c, 0, 55, 100
3, 131855, Note_off_c, 0, 57, 0
3, 131968, Note_on_c, 0, 54, 100
3, 131970, Note_off_c, 0, 55, 0
3, 132070, Note_off_c, 0, 50, 0
3, 132089, Note_off_c, 0, 54, 0
3, 132096, Note_on_c, 0, 55, 100
3, 132096, Note_on_c, 0, 59, 100
3, 132096, Note_on_c, 0, 43, 100
3, 132116, Note_off_c, 0, 60, 0
3, 132339, Note_off_c, 0, 55, 0
3, 132339, Note_off_c, 0, 59, 0
3, 132352, Note_off_c, 0, 43, 0
3, 132608, Note_on_c, 0, 67, 100
3, 132864, Note_off_c, 0, 67, 0
3, 133120, Note_on_c, 0, 64, 100
3, 133120, Note_on_c, 0, 76, 100
3, 133120, Note_on_c, 0, 48, 100
3, 133376, Note_off_c, 0, 64, 0
3, 133376, Note_off_c, 0, 76, 0
3, 133376, Note_off_c, 0, 48, 0
3, 133632, Note_on_c, 0, 69, 100
3, 133632, Note_on_c, 0, 72, 100
3, 133632, Note_on_c, 0, 78, 100
3, 133632, Note_on_c, 0, 50, 100
3, 133632, Note_on_c, 0, 62, 100
3, 133888, Note_off_c, 0, 69, 0
3, 133888, Note_off_c, 0, 72, 0
3, 133888, Note_off_c, 0, 78, 0
3, 133888, Note_off_c, 0, 50, 0
3, 133888, Note_off_c, 0, 62, 0
3, 134144, Note_on_c, 0, 62, 100
3, 134144, Note_on_c, 0, 43, 100
3, 134208, Note_off_c, 0, 62, 0
3, 134208, Note_on_c, 0, 59, 100
3, 134272, Note_off_c, 0, 59, 0
3, 134272, Note_on_c, 0, 55, 100
3, 134272, Note_off_c, 0, 43, 0
3, 134272, Note_on_c, 0, 43, 100
3, 134336, Note_off_c, 0, 55, 0
3, 134336, Note_on_c, 0, 59, 100
3, 134400, Note_off_c, 0, 59, 0
3, 134400, Note_on_c, 0, 62, 100
3, 134400, Note_off_c, 0, 43, 0
3, 134400, Note_on_c, 0, 43, 100
3, 134464, Note_off_c, 0, 62, 0
3, 134464, Note_on_c, 0, 59, 100
3, 134528, Note_off_c, 0, 59, 0
3, 134528, Note_on_c, 0, 55, 100
3, 134528, Note_off_c, 0, 43, 0
3, 134528, Note_on_c, 0, 43, 100
3, 134592, Note_off_c, 0, 55, 0
3, 134592, Note_on_c, 0, 59, 100
3, 134656, Note_off_c, 0, 59, 0
3, 134656, Note_on_c, 0, 62, 100
3, 134656, Note_off_c, 0, 43, 0
3, 134656, Note_on_c, 0, 43, 100
3, 134720, Note_off_c, 0, 62, 0
3, 134720, Note_on_c, 0, 59, 100
3, 134784, Note_off_c, 0, 59, 0
3, 134784, Note_on_c, 0, 55, 100
3, 134784, Note_off_c, 0, 43, 0
3, 134784, Note_on_c, 0, 43, 100
3, 134848, Note_off_c, 0, 55, 0
3, 134848, Note_on_c, 0, 59, 100
3, 134912, Note_off_c, 0, 59, 0
3, 134912, Note_on_c, 0, 62, 100
3, 134912, Note_off_c, 0, 43, 0
3, 134912, Note_on_c, 0, 43, 100
3, 134976, Note_off_c, 0, 62, 0
3, 134976, Note_on_c, 0, 59, 100
3, 135040, Note_off_c, 0, 59, 0
3, 135040, Note_on_c, 0, 55, 100
3, 135040, Note_off_c, 0, 43, 0
3, 135040, Note_on_c, 0, 43, 100
3, 135104, Note_off_c, 0, 55, 0
3, 135104, Note_on_c, 0, 59, 100
3, 135168, Note_off_c, 0, 59, 0
3, 135168, Note_on_c, 0, 62, 100
3, 135168, Note_off_c, 0, 43, 0
3, 135168, Note_on_c, 0, 43, 100
3, 135232, Note_off_c, 0, 62, 0
3, 135232, Note_on_c, 0, 59, 100
3, 135296, Note_off_c, 0, 59, 0
3, 135296, Note_on_c, 0, 55, 100
3, 135296, Note_off_c, 0, 43, 0
3, 135296, Note_on_c, 0, 43, 100
3, 135360, Note_off_c, 0, 55, 0
3, 135360, Note_on_c, 0, 59, 100
3, 135424, Note_off_c, 0, 59, 0
3, 135424, Note_on_c, 0, 62, 100
3, 135424, Note_off_c, 0, 43, 0
3, 135424, Note_on_c, 0, 43, 100
3, 135488, Note_off_c, 0, 62, 0
3, 135488, Note_on_c, 0, 59, 100
3, 135552, Note_off_c, 0, 59, 0
3, 135552, Note_on_c, 0, 55, 100
3, 135552, Note_off_c, 0, 43, 0
3, 135552, Note_on_c, 0, 43, 100
3, 135616, Note_off_c, 0, 55, 0
3, 135616, Note_on_c, 0, 59, 100
3, 135680, Note_off_c, 0, 59, 0
3, 135680, Note_on_c, 0, 62, 100
3, 135680, Note_off_c, 0, 43, 0
3, 135680, Note_on_c, 0, 43, 100
3, 135744, Note_off_c, 0, 62, 0
3, 135744, Note_on_c, 0, 59, 100
3, 135808, Note_off_c, 0, 59, 0
3, 135808, Note_on_c, 0, 55, 100
3, 135808, Note_off_c, 0, 43, 0
3, 135808, Note_on_c, 0, 43, 100
3, 135872, Note_off_c, 0, 55, 0
3, 135872, Note_on_c, 0, 59, 100
3, 135936, Note_off_c, 0, 59, 0
3, 135936, Note_on_c, 0, 62, 100
3, 135936, Note_off_c, 0, 43, 0
3, 135936, Note_on_c, 0, 43, 100
3, 136000, Note_off_c, 0, 62, 0
3, 136000, Note_on_c, 0, 60, 100
3, 136064, Note_off_c, 0, 60, 0
3, 136064, Note_on_c, 0, 57, 100
3, 136064, Note_off_c, 0, 43, 0
3, 136064, Note_on_c, 0, 43, 100
3, 136128, Note_off_c, 0, 57, 0
3, 136128, Note_on_c, 0, 60, 100
3, 136192, Note_off_c, 0, 60, 0
3, 136192, Note_on_c, 0, 62, 100
3, 136192, Note_off_c, 0, 43, 0
3, 136192, Note_on_c, 0, 43, 100
3, 136256, Note_off_c, 0, 62, 0
3, 136256, Note_on_c, 0, 59, 100
3, 136320, Note_off_c, 0, 59, 0
3, 136320, Note_on_c, 0, 55, 100
3, 136320, Note_off_c, 0, 43, 0
3, 136320, Note_on_c, 0, 43, 100
3, 136384, Note_off_c, 0, 55, 0
3, 136384, Note_on_c, 0, 59, 100
3, 136448, Note_off_c, 0, 59, 0
3, 136448, Note_on_c, 0, 62, 100
3, 136448, Note_off_c, 0, 43, 0
3, 136448, Note_on_c, 0, 43, 100
3, 136512, Note_off_c, 0, 62, 0
3, 136512, Note_on_c, 0, 59, 100
3, 136576, Note_off_c, 0, 59, 0
3, 136576, Note_on_c, 0, 55, 100
3, 136576, Note_off_c, 0, 43, 0
3, 136576, Note_on_c, 0, 43, 100
3, 136640, Note_off_c, 0, 55, 0
3, 136640, Note_on_c, 0, 59, 100
3, 136704, Note_off_c, 0, 59, 0
3, 136704, Note_on_c, 0, 62, 100
3, 136704, Note_off_c, 0, 43, 0
3, 136704, Note_on_c, 0, 43, 100
3, 136768, Note_off_c, 0, 62, 0
3, 136768, Note_on_c, 0, 59, 100
3, 136832, Note_off_c, 0, 59, 0
3, 136832, Note_on_c, 0, 55, 100
3, 136832, Note_off_c, 0, 43, 0
3, 136832, Note_on_c, 0, 43, 100
3, 136896, Note_off_c, 0, 55, 0
3, 136896, Note_on_c, 0, 59, 100
3, 136960, Note_off_c, 0, 59, 0
3, 136960, Note_on_c, 0, 62, 100
3, 136960, Note_off_c, 0, 43, 0
3, 136960, Note_on_c, 0, 43, 100
3, 137024, Note_off_c, 0, 62, 0
3, 137024, Note_on_c, 0, 59, 100
3, 137088, Note_off_c, 0, 59, 0
3, 137088, Note_on_c, 0, 55, 100
3, 137088, Note_off_c, 0, 43, 0
3, 137088, Note_on_c, 0, 43, 100
3, 137152, Note_off_c, 0, 55, 0
3, 137152, Note_on_c, 0, 59, 100
3, 137216, Note_off_c, 0, 59, 0
3, 137216, Note_on_c, 0, 62, 100
3, 137216, Note_off_c, 0, 43, 0
3, 137216, Note_on_c, 0, 43, 100
3, 137280, Note_off_c, 0, 62, 0
3, 137280, Note_on_c, 0, 59, 100
3, 137344, Note_off_c, 0, 59, 0
3, 137344, Note_on_c, 0, 55, 100
3, 137344, Note_off_c, 0, 43, 0
3, 137344, Note_on_c, 0, 43, 100
3, 137408, Note_off_c, 0, 55, 0
3, 137408, Note_on_c, 0, 59, 100
3, 137472, Note_off_c, 0, 59, 0
3, 137472, Note_on_c, 0, 62, 100
3, 137472, Note_off_c, 0, 43, 0
3, 137472, Note_on_c, 0, 43, 100
3, 137536, Note_off_c, 0, 62, 0
3, 137536, Note_on_c, 0, 59, 100
3, 137600, Note_off_c, 0, 59, 0
3, 137600, Note_on_c, 0, 55, 100
3, 137600, Note_off_c, 0, 43, 0
3, 137600, Note_on_c, 0, 43, 100
3, 137664, Note_off_c, 0, 55, 0
3, 137664, Note_on_c, 0, 59, 100
3, 137728, Note_off_c, 0, 59, 0
3, 137728, Note_on_c, 0, 62, 100
3, 137728, Note_off_c, 0, 43, 0
3, 137728, Note_on_c, 0, 43, 100
3, 137792, Note_off_c, 0, 62, 0
3, 137792, Note_on_c, 0, 59, 100
3, 137856, Note_off_c, 0, 59, 0
3, 137856, Note_on_c, 0, 55, 100
3, 137856, Note_off_c, 0, 43, 0
3, 137856, Note_on_c, 0, 43, 100
3, 137920, Note_off_c, 0, 55, 0
3, 137920, Note_on_c, 0, 59, 100
3, 137984, Note_off_c, 0, 59, 0
3, 137984, Note_on_c, 0, 62, 100
3, 137984, Note_off_c, 0, 43, 0
3, 137984, Note_on_c, 0, 43, 100
3, 138048, Note_off_c, 0, 62, 0
3, 138048, Note_on_c, 0, 60, 100
3, 138112, Note_off_c, 0, 60, 0
3, 138112, Note_on_c, 0, 57, 100
3, 138112, Note_off_c, 0, 43, 0
3, 138112, Note_on_c, 0, 43, 100
3, 138176, Note_off_c, 0, 57, 0
3, 138176, Note_on_c, 0, 60, 100
3, 138240, Note_off_c, 0, 60, 0
3, 138240, Note_on_c, 0, 55, 100
3, 138240, Note_on_c, 0, 59, 100
3, 138240, Note_on_c, 0, 62, 100
3, 138240, Note_off_c, 0, 43, 0
3, 138240, Note_on_c, 0, 43, 100
3, 138368, Note_off_c, 0, 55, 0
3, 138368, Note_off_c, 0, 59, 0
3, 138368, Note_off_c, 0, 62, 0
3, 138368, Note_on_c, 0, 59, 100
3, 138368, Note_off_c, 0, 43, 0
3, 138368, Note_on_c, 0, 47, 100
3, 138496, Note_off_c, 0, 59, 0
3, 138496, Note_on_c, 0, 62, 100
3, 138496, Note_off_c, 0, 47, 0
3, 138496, Note_on_c, 0, 50, 100
3, 138624, Note_off_c, 0, 62, 0
3, 138624, Note_on_c, 0, 67, 100
3, 138624, Note_off_c, 0, 50, 0
3, 138624, Note_on_c, 0, 55, 100
3, 138752, Note_off_c, 0, 67, 0
3, 138752, Note_on_c, 0, 62, 100
3, 138752, Note_on_c, 0, 71, 100
3, 138752, Note_off_c, 0, 55, 0
3, 138752, Note_on_c, 0, 59, 100
3, 138880, Note_off_c, 0, 62, 0
3, 138880, Note_off_c, 0, 71, 0
3, 138880, Note_on_c, 0, 67, 100
3, 138880, Note_off_c, 0, 59, 0
3, 138880, Note_on_c, 0, 55, 100
3, 139008, Note_off_c, 0, 67, 0
3, 139008, Note_on_c, 0, 74, 100
3, 139008, Note_off_c, 0, 55, 0
3, 139008, Note_on_c, 0, 62, 100
3, 139136, Note_off_c, 0, 74, 0
3, 139136, Note_on_c, 0, 71, 100
3, 139136, Note_off_c, 0, 62, 0
3, 139136, Note_on_c, 0, 59, 100
3, 139264, Note_off_c, 0, 71, 0
3, 139264, Note_on_c, 0, 59, 100
3, 139264, Note_on_c, 0, 67, 100
3, 139264, Note_off_c, 0, 59, 0
3, 139264, Note_on_c, 0, 55, 100
3, 139264, Note_on_c, 0, 59, 100
3, 139520, Note_off_c, 0, 59, 0
3, 139520, Note_off_c, 0, 67, 0
3, 139520, Note_on_c, 0, 55, 100
3, 139520, Note_on_c, 0, 67, 100
3, 139520, Note_off_c, 0, 55, 0
3, 139520, Note_off_c, 0, 59, 0
3, 139520, Note_on_c, 0, 43, 100
3, 139712, Note_off_c, 0, 55, 0
3, 139712, Note_off_c, 0, 67, 0
3, 139712, Note_on_c, 0, 55, 100
3, 139712, Note_on_c, 0, 67, 100
3, 139712, Note_off_c, 0, 43, 0
3, 139712, Note_on_c, 0, 43, 100
3, 139776, Note_off_c, 0, 55, 0
3, 139776, Note_off_c, 0, 67, 0
3, 139776, Note_on_c, 0, 55, 100
3, 139776, Note_on_c, 0, 67, 100
3, 139776, Note_off_c, 0, 43, 0
3, 139776, Note_on_c, 0, 43, 100
3, 140032, Note_off_c, 0, 55, 0
3, 140032, Note_off_c, 0, 67, 0
3, 140032, Note_off_c, 0, 43, 0
3, 140288, Note_on_c, 0, 62, 100
3, 140288, Note_on_c, 0, 50, 100
3, 140544, Note_off_c, 0, 62, 0
3, 140544, Note_off_c, 0, 50, 0
3, 140672, Note_on_c, 0, 57, 100
3, 140672, Note_on_c, 0, 45, 100
3, 140800, Note_off_c, 0, 57, 0
3, 140800, Note_on_c, 0, 62, 100
3, 140800, Note_off_c, 0, 45, 0
3, 140800, Note_on_c, 0, 50, 100
3, 141056, Note_off_c, 0, 62, 0
3, 141056, Note_off_c, 0, 50, 0
3, 141184, Note_on_c, 0, 57, 100
3, 141184, Note_on_c, 0, 45, 100
3, 141312, Note_off_c, 0, 57, 0
3, 141312, Note_on_c, 0, 62, 100
3, 141312, Note_off_c, 0, 45, 0
3, 141312, Note_on_c, 0, 50, 100
3, 141440, Note_off_c, 0, 62, 0
3, 141440, Note_on_c, 0, 57, 100
3, 141440, Note_off_c, 0, 50, 0
3, 141440, Note_on_c, 0, 45, 100
3, 141568, Note_off_c, 0, 57, 0
3, 141568, Note_on_c, 0, 62, 100
3, 141568, Note_off_c, 0, 45, 0
3, 141568, Note_on_c, 0, 50, 100
3, 141696, Note_off_c, 0, 62, 0
3, 141696, Note_on_c, 0, 66, 100
3, 141696, Note_off_c, 0, 50, 0
3, 141696, Note_on_c, 0, 54, 100
3, 141824, Note_off_c, 0, 66, 0
3, 141824, Note_on_c, 0, 69, 100
3, 141824, Note_off_c, 0, 54, 0
3, 141824, Note_on_c, 0, 57, 100
3, 142080, Note_off_c, 0, 69, 0
3, 142080, Note_off_c, 0, 57, 0
3, 142336, Note_on_c, 0, 69, 100
3, 142336, Note_on_c, 0, 57, 100
3, 142592, Note_off_c, 0, 69, 0
3, 142592, Note_off_c, 0, 57, 0
3, 142720, Note_on_c, 0, 66, 100
3, 142720, Note_on_c, 0, 54, 100
3, 142848, Note_off_c, 0, 66, 0
3, 142848, Note_on_c, 0, 69, 100
3, 142848, Note_off_c, 0, 54, 0
3, 142848, Note_on_c, 0, 57, 100
3, 143104, Note_off_c, 0, 69, 0
3, 143104, Note_off_c, 0, 57, 0
3, 143232, Note_on_c, 0, 66, 100
3, 143232, Note_on_c, 0, 54, 100
3, 143360, Note_off_c, 0, 66, 0
3, 143360, Note_on_c, 0, 69, 100
3, 143360, Note_off_c, 0, 54, 0
3, 143360, Note_on_c, 0, 57, 100
3, 143488, Note_off_c, 0, 69, 0
3, 143488, Note_on_c, 0, 66, 100
3, 143488, Note_off_c, 0, 57, 0
3, 143488, Note_on_c, 0, 54, 100
3, 143616, Note_off_c, 0, 66, 0
3, 143616, Note_on_c, 0, 63, 100
3, 143616, Note_off_c, 0, 54, 0
3, 143616, Note_on_c, 0, 51, 100
3, 143744, Note_off_c, 0, 63, 0
3, 143744, Note_on_c, 0, 66, 100
3, 143744, Note_off_c, 0, 51, 0
3, 143744, Note_on_c, 0, 54, 100
3, 143872, Note_off_c, 0, 66, 0
3, 143872, Note_on_c, 0, 59, 100
3, 143872, Note_off_c, 0, 54, 0
3, 143872, Note_on_c, 0, 47, 100
3, 144128, Note_off_c, 0, 59, 0
3, 144128, Note_off_c, 0, 47, 0
3, 144384, Note_on_c, 0, 60, 100
3, 144384, Note_on_c, 0, 64, 100
3, 144384, Note_on_c, 0, 48, 100
3, 144512, Note_off_c, 0, 60, 0
3, 144512, Note_off_c, 0, 64, 0
3, 144512, Note_on_c, 0, 60, 100
3, 144512, Note_on_c, 0, 64, 100
3, 144640, Note_off_c, 0, 60, 0
3, 144640, Note_off_c, 0, 64, 0
3, 144640, Note_on_c, 0, 62, 100
3, 144640, Note_on_c, 0, 65, 100
3, 144640, Note_off_c, 0, 48, 0
3, 144768, Note_off_c, 0, 62, 0
3, 144768, Note_off_c, 0, 65, 0
3, 144768, Note_on_c, 0, 62, 100
3, 144768, Note_on_c, 0, 65, 100
3, 144896, Note_off_c, 0, 62, 0
3, 144896, Note_off_c, 0, 65, 0
3, 144896, Note_on_c, 0, 64, 100
3, 144896, Note_on_c, 0, 67, 100
3, 145024, Note_off_c, 0, 64, 0
3, 145024, Note_off_c, 0, 67, 0
3, 145024, Note_on_c, 0, 64, 100
3, 145024, Note_on_c, 0, 67, 100
3, 145152, Note_off_c, 0, 64, 0
3, 145152, Note_off_c, 0, 67, 0
3, 145152, Note_on_c, 0, 60, 100
3, 145152, Note_on_c, 0, 64, 100
3, 145280, Note_off_c, 0, 60, 0
3, 145280, Note_off_c, 0, 64, 0
3, 145280, Note_on_c, 0, 60, 100
3, 145280, Note_on_c, 0, 64, 100
3, 145408, Note_off_c, 0, 60, 0
3, 145408, Note_off_c, 0, 64, 0
3, 145408, Note_on_c, 0, 59, 100
3, 145408, Note_on_c, 0, 62, 100
3, 145408, Note_on_c, 0, 43, 100
3, 145536, Note_off_c, 0, 59, 0
3, 145536, Note_off_c, 0, 62, 0
3, 145536, Note_on_c, 0, 59, 100
3, 145536, Note_on_c, 0, 62, 100
3, 145664, Note_off_c, 0, 59, 0
3, 145664, Note_off_c, 0, 62, 0
3, 145664, Note_on_c, 0, 60, 100
3, 145664, Note_on_c, 0, 64, 100
3, 145664, Note_off_c, 0, 43, 0
3, 145792, Note_off_c, 0, 60, 0
3, 145792, Note_off_c, 0, 64, 0
3, 145792, Note_on_c, 0, 60, 100
3, 145792, Note_on_c, 0, 64, 100
3, 145920, Note_off_c, 0, 60, 0
3, 145920, Note_off_c, 0, 64, 0
3, 145920, Note_on_c, 0, 62, 100
3, 145920, Note_on_c, 0, 65, 100
3, 146048, Note_off_c, 0, 62, 0
3, 146048, Note_off_c, 0, 65, 0
3, 146048, Note_on_c, 0, 62, 100
3, 146048, Note_on_c, 0, 65, 100
3, 146176, Note_off_c, 0, 62, 0
3, 146176, Note_off_c, 0, 65, 0
3, 146176, Note_on_c, 0, 59, 100
3, 146176, Note_on_c, 0, 62, 100
3, 146304, Note_off_c, 0, 59, 0
3, 146304, Note_off_c, 0, 62, 0
3, 146304, Note_on_c, 0, 59, 100
3, 146304, Note_on_c, 0, 62, 100
3, 146432, Note_off_c, 0, 59, 0
3, 146432, Note_off_c, 0, 62, 0
3, 146432, Note_on_c, 0, 60, 100
3, 146432, Note_on_c, 0, 64, 100
3, 146432, Note_on_c, 0, 48, 100
3, 146560, Note_off_c, 0, 60, 0
3, 146560, Note_off_c, 0, 64, 0
3, 146560, Note_on_c, 0, 60, 100
3, 146560, Note_on_c, 0, 64, 100
3, 146688, Note_off_c, 0, 60, 0
3, 146688, Note_off_c, 0, 64, 0
3, 146688, Note_on_c, 0, 62, 100
3, 146688, Note_on_c, 0, 65, 100
3, 146688, Note_off_c, 0, 48, 0
3, 146816, Note_off_c, 0, 62, 0
3, 146816, Note_off_c, 0, 65, 0
3, 146816, Note_on_c, 0, 62, 100
3, 146816, Note_on_c, 0, 65, 100
3, 146944, Note_off_c, 0, 62, 0
3, 146944, Note_off_c, 0, 65, 0
3, 146944, Note_on_c, 0, 64, 100
3, 146944, Note_on_c, 0, 67, 100
3, 147072, Note_off_c, 0, 64, 0
3, 147072, Note_off_c, 0, 67, 0
3, 147072, Note_on_c, 0, 64, 100
3, 147072, Note_on_c, 0, 67, 100
3, 147200, Note_off_c, 0, 64, 0
3, 147200, Note_off_c, 0, 67, 0
3, 147200, Note_on_c, 0, 60, 100
3, 147200, Note_on_c, 0, 64, 100
3, 147328, Note_off_c, 0, 60, 0
3, 147328, Note_off_c, 0, 64, 0
3, 147328, Note_on_c, 0, 60, 100
3, 147328, Note_on_c, 0, 64, 100
3, 147456, Note_off_c, 0, 60, 0
3, 147456, Note_off_c, 0, 64, 0
3, 147456, Note_on_c, 0, 59, 100
3, 147456, Note_on_c, 0, 62, 100
3, 147456, Note_on_c, 0, 43, 100
3, 147584, Note_off_c, 0, 59, 0
3, 147584, Note_off_c, 0, 62, 0
3, 147584, Note_on_c, 0, 59, 100
3, 147584, Note_on_c, 0, 62, 100
3, 147712, Note_off_c, 0, 59, 0
3, 147712, Note_off_c, 0, 62, 0
3, 147712, Note_on_c, 0, 60, 100
3, 147712, Note_on_c, 0, 64, 100
3, 147712, Note_off_c, 0, 43, 0
3, 147840, Note_off_c, 0, 60, 0
3, 147840, Note_off_c, 0, 64, 0
3, 147840, Note_on_c, 0, 60, 100
3, 147840, Note_on_c, 0, 64, 100
3, 147968, Note_off_c, 0, 60, 0
3, 147968, Note_off_c, 0, 64, 0
3, 147968, Note_on_c, 0, 62, 100
3, 147968, Note_on_c, 0, 65, 100
3, 148096, Note_off_c, 0, 62, 0
3, 148096, Note_off_c, 0, 65, 0
3, 148096, Note_on_c, 0, 62, 100
3, 148096, Note_on_c, 0, 65, 100
3, 148224, Note_off_c, 0, 62, 0
3, 148224, Note_off_c, 0, 65, 0
3, 148224, Note_on_c, 0, 59, 100
3, 148224, Note_on_c, 0, 62, 100
3, 148352, Note_off_c, 0, 59, 0
3, 148352, Note_off_c, 0, 62, 0
3, 148352, Note_on_c, 0, 59, 100
3, 148352, Note_on_c, 0, 62, 100
3, 148480, Note_off_c, 0, 59, 0
3, 148480, Note_off_c, 0, 62, 0
3, 148480, Note_on_c, 0, 60, 100
3, 148480, Note_on_c, 0, 64, 100
3, 148480, Note_on_c, 0, 48, 100
3, 148608, Note_off_c, 0, 60, 0
3, 148608, Note_off_c, 0, 64, 0
3, 148608, Note_on_c, 0, 60, 100
3, 148608, Note_on_c, 0, 64, 100
3, 148736, Note_off_c, 0, 60, 0
3, 148736, Note_off_c, 0, 64, 0
3, 148736, Note_on_c, 0, 62, 100
3, 148736, Note_on_c, 0, 65, 100
3, 148736, Note_off_c, 0, 48, 0
3, 148864, Note_off_c, 0, 62, 0
3, 148864, Note_off_c, 0, 65, 0
3, 148864, Note_on_c, 0, 62, 100
3, 148864, Note_on_c, 0, 65, 100
3, 148992, Note_off_c, 0, 62, 0
3, 148992, Note_off_c, 0, 65, 0
3, 148992, Note_on_c, 0, 64, 100
3, 148992, Note_on_c, 0, 67, 100
3, 149120, Note_off_c, 0, 64, 0
3, 149120, Note_off_c, 0, 67, 0
3, 149120, Note_on_c, 0, 64, 100
3, 149120, Note_on_c, 0, 67, 100
3, 149248, Note_off_c, 0, 64, 0
3, 149248, Note_off_c, 0, 67, 0
3, 149248, Note_on_c, 0, 60, 100
3, 149248, Note_on_c, 0, 64, 100
3, 149376, Note_off_c, 0, 60, 0
3, 149376, Note_off_c, 0, 64, 0
3, 149376, Note_on_c, 0, 60, 100
3, 149376, Note_on_c, 0, 64, 100
3, 149504, Note_off_c, 0, 60, 0
3, 149504, Note_off_c, 0, 64, 0
3, 149504, Note_on_c, 0, 59, 100
3, 149504, Note_on_c, 0, 62, 100
3, 149504, Note_on_c, 0, 52, 100
3, 149632, Note_off_c, 0, 59, 0
3, 149632, Note_off_c, 0, 62, 0
3, 149632, Note_on_c, 0, 59, 100
3, 149632, Note_on_c, 0, 62, 100
3, 149760, Note_off_c, 0, 59, 0
3, 149760, Note_off_c, 0, 62, 0
3, 149760, Note_on_c, 0, 60, 100
3, 149760, Note_on_c, 0, 64, 100
3, 149760, Note_off_c, 0, 52, 0
3, 149888, Note_off_c, 0, 60, 0
3, 149888, Note_off_c, 0, 64, 0
3, 149888, Note_on_c, 0, 60, 100
3, 149888, Note_on_c, 0, 64, 100
3, 150016, Note_off_c, 0, 60, 0
3, 150016, Note_off_c, 0, 64, 0
3, 150016, Note_on_c, 0, 62, 100
3, 150016, Note_on_c, 0, 65, 100
3, 150144, Note_off_c, 0, 62, 0
3, 150144, Note_off_c, 0, 65, 0
3, 150144, Note_on_c, 0, 62, 100
3, 150144, Note_on_c, 0, 65, 100
3, 150272, Note_off_c, 0, 62, 0
3, 150272, Note_off_c, 0, 65, 0
3, 150272, Note_on_c, 0, 59, 100
3, 150272, Note_on_c, 0, 62, 100
3, 150400, Note_off_c, 0, 59, 0
3, 150400, Note_off_c, 0, 62, 0
3, 150400, Note_on_c, 0, 59, 100
3, 150400, Note_on_c, 0, 62, 100
3, 150528, Note_off_c, 0, 59, 0
3, 150528, Note_off_c, 0, 62, 0
3, 150528, Note_on_c, 0, 57, 100
3, 150528, Note_on_c, 0, 60, 100
3, 150528, Note_on_c, 0, 45, 100
3, 150656, Note_off_c, 0, 57, 0
3, 150656, Note_off_c, 0, 60, 0
3, 150656, Note_on_c, 0, 57, 100
3, 150656, Note_on_c, 0, 60, 100
3, 150784, Note_off_c, 0, 57, 0
3, 150784, Note_off_c, 0, 60, 0
3, 150784, Note_on_c, 0, 59, 100
3, 150784, Note_on_c, 0, 62, 100
3, 150784, Note_off_c, 0, 45, 0
3, 150912, Note_off_c, 0, 59, 0
3, 150912, Note_off_c, 0, 62, 0
3, 150912, Note_on_c, 0, 59, 100
3, 150912, Note_on_c, 0, 62, 100
3, 151040, Note_off_c, 0, 59, 0
3, 151040, Note_off_c, 0, 62, 0
3, 151040, Note_on_c, 0, 60, 100
3, 151040, Note_on_c, 0, 64, 100
3, 151168, Note_off_c, 0, 60, 0
3, 151168, Note_off_c, 0, 64, 0
3, 151168, Note_on_c, 0, 60, 100
3, 151168, Note_on_c, 0, 64, 100
3, 151296, Note_off_c, 0, 60, 0
3, 151296, Note_off_c, 0, 64, 0
3, 151296, Note_on_c, 0, 57, 100
3, 151296, Note_on_c, 0, 60, 100
3, 151424, Note_off_c, 0, 57, 0
3, 151424, Note_off_c, 0, 60, 0
3, 151424, Note_on_c, 0, 57, 100
3, 151424, Note_on_c, 0, 60, 100
3, 151552, Note_off_c, 0, 57, 0
3, 151552, Note_off_c, 0, 60, 0
3, 151552, Note_on_c, 0, 57, 100
3, 151552, Note_on_c, 0, 60, 100
3, 151552, Note_on_c, 0, 50, 100
3, 151680, Note_off_c, 0, 57, 0
3, 151680, Note_off_c, 0, 60, 0
3, 151680, Note_on_c, 0, 57, 100
3, 151680, Note_on_c, 0, 60, 100
3, 151808, Note_off_c, 0, 57, 0
3, 151808, Note_off_c, 0, 60, 0
3, 151808, Note_on_c, 0, 58, 100
3, 151808, Note_on_c, 0, 62, 100
3, 151808, Note_off_c, 0, 50, 0
3, 151936, Note_off_c, 0, 58, 0
3, 151936, Note_off_c, 0, 62, 0
3, 151936, Note_on_c, 0, 58, 100
3, 151936, Note_on_c, 0, 62, 100
3, 152064, Note_off_c, 0, 58, 0
3, 152064, Note_off_c, 0, 62, 0
3, 152064, Note_on_c, 0, 60, 100
3, 152064, Note_on_c, 0, 63, 100
3, 152192, Note_off_c, 0, 60, 0
3, 152192, Note_off_c, 0, 63, 0
3, 152192, Note_on_c, 0, 60, 100
3, 152192, Note_on_c, 0, 63, 100
3, 152320, Note_off_c, 0, 60, 0
3, 152320, Note_off_c, 0, 63, 0
3, 152320, Note_on_c, 0, 57, 100
3, 152320, Note_on_c, 0, 60, 100
3, 152448, Note_off_c, 0, 57, 0
3, 152448, Note_off_c, 0, 60, 0
3, 152448, Note_on_c, 0, 57, 100
3, 152448, Note_on_c, 0, 60, 100
3, 152576, Note_off_c, 0, 57, 0
3, 152576, Note_off_c, 0, 60, 0
3, 152576, Note_on_c, 0, 55, 100
3, 152576, Note_on_c, 0, 58, 100
3, 152576, Note_on_c, 0, 51, 100
3, 152704, Note_off_c, 0, 55, 0
3, 152704, Note_off_c, 0, 58, 0
3, 152704, Note_on_c, 0, 55, 100
3, 152704, Note_on_c, 0, 58, 100
3, 152832, Note_off_c, 0, 55, 0
3, 152832, Note_off_c, 0, 58, 0
3, 152832, Note_on_c, 0, 54, 100
3, 152832, Note_on_c, 0, 57, 100
3, 152960, Note_off_c, 0, 54, 0
3, 152960, Note_off_c, 0, 57, 0
3, 152960, Note_on_c, 0, 54, 100
3, 152960, Note_on_c, 0, 57, 100
3, 153088, Note_off_c, 0, 54, 0
3, 153088, Note_off_c, 0, 57, 0
3, 153088, Note_on_c, 0, 55, 100
3, 153088, Note_on_c, 0, 58, 100
3, 153216, Note_off_c, 0, 55, 0
3, 153216, Note_off_c, 0, 58, 0
3, 153216, Note_on_c, 0, 55, 100
3, 153216, Note_on_c, 0, 58, 100
3, 153344, Note_off_c, 0, 55, 0
3, 153344, Note_off_c, 0, 58, 0
3, 153344, Note_on_c, 0, 66, 100
3, 153344, Note_on_c, 0, 69, 100
3, 153472, Note_off_c, 0, 66, 0
3, 153472, Note_off_c, 0, 69, 0
3, 153472, Note_on_c, 0, 66, 100
3, 153472, Note_on_c, 0, 69, 100
3, 153600, Note_off_c, 0, 66, 0
3, 153600, Note_off_c, 0, 69, 0
3, 153600, Note_on_c, 0, 67, 100
3, 153600, Note_on_c, 0, 70, 100
3, 153728, Note_off_c, 0, 67, 0
3, 153728, Note_off_c, 0, 70, 0
3, 153728, Note_on_c, 0, 67, 100
3, 153728, Note_on_c, 0, 70, 100
3, 153856, Note_off_c, 0, 67, 0
3, 153856, Note_off_c, 0, 70, 0
3, 153856, Note_on_c, 0, 66, 100
3, 153856, Note_on_c, 0, 69, 100
3, 153984, Note_off_c, 0, 66, 0
3, 153984, Note_off_c, 0, 69, 0
3, 153984, Note_on_c, 0, 66, 100
3, 153984, Note_on_c, 0, 69, 100
3, 154112, Note_off_c, 0, 66, 0
3, 154112, Note_off_c, 0, 69, 0
3, 154112, Note_on_c, 0, 67, 100
3, 154112, Note_on_c, 0, 70, 100
3, 154240, Note_off_c, 0, 67, 0
3, 154240, Note_off_c, 0, 70, 0
3, 154240, Note_on_c, 0, 67, 100
3, 154240, Note_on_c, 0, 70, 100
3, 154368, Note_off_c, 0, 67, 0
3, 154368, Note_off_c, 0, 70, 0
3, 154368, Note_on_c, 0, 66, 100
3, 154368, Note_on_c, 0, 69, 100
3, 154496, Note_off_c, 0, 66, 0
3, 154496, Note_off_c, 0, 69, 0
3, 154496, Note_on_c, 0, 67, 100
3, 154624, Note_off_c, 0, 67, 0
3, 154624, Note_on_c, 0, 66, 100
3, 154624, Note_off_c, 0, 51, 0
3, 154624, Note_on_c, 0, 50, 100
3, 154880, Note_off_c, 0, 66, 0
3, 154880, Note_off_c, 0, 50, 0
3, 155008, Note_on_c, 0, 62, 100
3, 155008, Note_on_c, 0, 50, 100
3, 155136, Note_on_c, 0, 64, 100
3, 155136, Note_on_c, 0, 52, 100
3, 155138, Note_off_c, 0, 62, 0
3, 155138, Note_off_c, 0, 50, 0
3, 155264, Note_on_c, 0, 66, 100
3, 155264, Note_on_c, 0, 54, 100
3, 155266, Note_off_c, 0, 64, 0
3, 155266, Note_off_c, 0, 52, 0
3, 155392, Note_on_c, 0, 67, 100
3, 155392, Note_on_c, 0, 55, 100
3, 155394, Note_off_c, 0, 66, 0
3, 155394, Note_off_c, 0, 54, 0
3, 155520, Note_on_c, 0, 69, 100
3, 155520, Note_on_c, 0, 57, 100
3, 155522, Note_off_c, 0, 67, 0
3, 155522, Note_off_c, 0, 55, 0
3, 155648, Note_on_c, 0, 72, 100
3, 155648, Note_on_c, 0, 60, 100
3, 155650, Note_off_c, 0, 69, 0
3, 155650, Note_off_c, 0, 57, 0
3, 155776, Note_on_c, 0, 70, 100
3, 155776, Note_on_c, 0, 58, 100
3, 155778, Note_off_c, 0, 72, 0
3, 155778, Note_off_c, 0, 60, 0
3, 155897, Note_off_c, 0, 70, 0
3, 155897, Note_off_c, 0, 58, 0
3, 156032, Note_on_c, 0, 66, 100
3, 156032, Note_on_c, 0, 54, 100
3, 156160, Note_on_c, 0, 67, 100
3, 156160, Note_on_c, 0, 55, 100
3, 156162, Note_off_c, 0, 66, 0
3, 156162, Note_off_c, 0, 54, 0
3, 156288, Note_on_c, 0, 69, 100
3, 156288, Note_on_c, 0, 57, 100
3, 156290, Note_off_c, 0, 67, 0
3, 156290, Note_off_c, 0, 55, 0
3, 156416, Note_on_c, 0, 70, 100
3, 156416, Note_on_c, 0, 58, 100
3, 156418, Note_off_c, 0, 69, 0
3, 156418, Note_off_c, 0, 57, 0
3, 156544, Note_on_c, 0, 73, 100
3, 156544, Note_on_c, 0, 61, 100
3, 156546, Note_off_c, 0, 70, 0
3, 156546, Note_off_c, 0, 58, 0
3, 156672, Note_on_c, 0, 76, 100
3, 156672, Note_on_c, 0, 64, 100
3, 156674, Note_off_c, 0, 73, 0
3, 156674, Note_off_c, 0, 61, 0
3, 156800, Note_on_c, 0, 74, 100
3, 156800, Note_on_c, 0, 62, 100
3, 156802, Note_off_c, 0, 76, 0
3, 156802, Note_off_c, 0, 64, 0
3, 156921, Note_off_c, 0, 74, 0
3, 156921, Note_off_c, 0, 62, 0
3, 157056, Note_on_c, 0, 62, 100
3, 157184, Note_on_c, 0, 64, 100
3, 157186, Note_off_c, 0, 62, 0
3, 157312, Note_on_c, 0, 66, 100
3, 157314, Note_off_c, 0, 64, 0
3, 157440, Note_on_c, 0, 67, 100
3, 157442, Note_off_c, 0, 66, 0
3, 157568, Note_on_c, 0, 69, 100
3, 157570, Note_off_c, 0, 67, 0
3, 157696, Note_on_c, 0, 70, 100
3, 157698, Note_off_c, 0, 69, 0
3, 157952, Note_on_c, 0, 71, 100
3, 157957, Note_off_c, 0, 70, 0
3, 158208, Note_on_c, 0, 72, 100
3, 158213, Note_off_c, 0, 71, 0
3, 158464, Note_on_c, 0, 73, 100
3, 158469, Note_off_c, 0, 72, 0
3, 158707, Note_off_c, 0, 73, 0
3, 158720, Note_on_c, 0, 71, 100
3, 158720, Note_on_c, 0, 74, 100
3, 158784, Note_off_c, 0, 71, 0
3, 158784, Note_off_c, 0, 74, 0
3, 158848, Note_on_c, 0, 71, 100
3, 158848, Note_on_c, 0, 74, 100
3, 158912, Note_off_c, 0, 71, 0
3, 158912, Note_off_c, 0, 74, 0
3, 158976, Note_on_c, 0, 71, 100
3, 158976, Note_on_c, 0, 74, 100
3, 159104, Note_on_c, 0, 72, 100
3, 159104, Note_on_c, 0, 76, 100
3, 159106, Note_off_c, 0, 71, 0
3, 159106, Note_off_c, 0, 74, 0
3, 159225, Note_off_c, 0, 72, 0
3, 159225, Note_off_c, 0, 76, 0
3, 159232, Note_on_c, 0, 69, 100
3, 159232, Note_on_c, 0, 72, 100
3, 159296, Note_off_c, 0, 69, 0
3, 159296, Note_off_c, 0, 72, 0
3, 159360, Note_on_c, 0, 69, 100
3, 159360, Note_on_c, 0, 72, 100
3, 159424, Note_off_c, 0, 69, 0
3, 159424, Note_off_c, 0, 72, 0
3, 159488, Note_on_c, 0, 69, 100
3, 159488, Note_on_c, 0, 72, 100
3, 159616, Note_on_c, 0, 71, 100
3, 159616, Note_on_c, 0, 74, 100
3, 159618, Note_off_c, 0, 69, 0
3, 159618, Note_off_c, 0, 72, 0
3, 159737, Note_off_c, 0, 71, 0
3, 159737, Note_off_c, 0, 74, 0
3, 159744, Note_on_c, 0, 67, 100
3, 159744, Note_on_c, 0, 71, 100
3, 159744, Note_on_c, 0, 50, 100
3, 159808, Note_off_c, 0, 67, 0
3, 159808, Note_off_c, 0, 71, 0
3, 159872, Note_on_c, 0, 67, 100
3, 159872, Note_on_c, 0, 71, 100
3, 159936, Note_off_c, 0, 67, 0
3, 159936, Note_off_c, 0, 71, 0
3, 160000, Note_on_c, 0, 67, 100
3, 160000, Note_on_c, 0, 71, 100
3, 160128, Note_off_c, 0, 71, 0
3, 160128, Note_on_c, 0, 71, 100
3, 160128, Note_on_c, 0, 74, 100
3, 160130, Note_off_c, 0, 67, 0
3, 160249, Note_off_c, 0, 71, 0
3, 160249, Note_off_c, 0, 74, 0
3, 160256, Note_on_c, 0, 71, 100
3, 160256, Note_on_c, 0, 74, 100
3, 160384, Note_on_c, 0, 69, 100
3, 160384, Note_on_c, 0, 72, 100
3, 160386, Note_off_c, 0, 71, 0
3, 160386, Note_off_c, 0, 74, 0
3, 160505, Note_off_c, 0, 69, 0
3, 160505, Note_off_c, 0, 72, 0
3, 160512, Note_on_c, 0, 67, 100
3, 160512, Note_on_c, 0, 71, 100
3, 160550, Note_off_c, 0, 67, 0
3, 160550, Note_off_c, 0, 71, 0
3, 160640, Note_on_c, 0, 62, 100
3, 160640, Note_on_c, 0, 69, 100
3, 160678, Note_off_c, 0, 62, 0
3, 160678, Note_off_c, 0, 69, 0
3, 160768, Note_on_c, 0, 62, 100
3, 160768, Note_on_c, 0, 67, 100
3, 160768, Note_on_c, 0, 71, 100
3, 160768, Note_on_c, 0, 74, 100
3, 160768, Note_off_c, 0, 50, 0
3, 160768, Note_on_c, 0, 55, 100
3, 161024, Note_off_c, 0, 62, 0
3, 161024, Note_off_c, 0, 67, 0
3, 161024, Note_off_c, 0, 71, 0
3, 161024, Note_off_c, 0, 74, 0
3, 161024, Note_off_c, 0, 55, 0
3, 161152, Note_on_c, 0, 62, 100
3, 161152, Note_on_c, 0, 50, 100
3, 161280, Note_off_c, 0, 62, 0
3, 161280, Note_on_c, 0, 67, 100
3, 161280, Note_off_c, 0, 50, 0
3, 161280, Note_on_c, 0, 55, 100
3, 161536, Note_off_c, 0, 67, 0
3, 161536, Note_off_c, 0, 55, 0
3, 161664, Note_on_c, 0, 62, 100
3, 161664, Note_on_c, 0, 50, 100
3, 161792, Note_off_c, 0, 62, 0
3, 161792, Note_on_c, 0, 67, 100
3, 161792, Note_off_c, 0, 50, 0
3, 161792, Note_on_c, 0, 55, 100
3, 161920, Note_off_c, 0, 67, 0
3, 161920, Note_on_c, 0, 62, 100
3, 161920, Note_off_c, 0, 55, 0
3, 161920, Note_on_c, 0, 50, 100
3, 162048, Note_off_c, 0, 62, 0
3, 162048, Note_on_c, 0, 67, 100
3, 162048, Note_off_c, 0, 50, 0
3, 162048, Note_on_c, 0, 55, 100
3, 162176, Note_off_c, 0, 67, 0
3, 162176, Note_on_c, 0, 71, 100
3, 162176, Note_off_c, 0, 55, 0
3, 162176, Note_on_c, 0, 59, 100
3, 162304, Note_off_c, 0, 71, 0
3, 162304, Note_on_c, 0, 74, 100
3, 162304, Note_off_c, 0, 59, 0
3, 162304, Note_on_c, 0, 62, 100
3, 162560, Note_off_c, 0, 74, 0
3, 162560, Note_off_c, 0, 62, 0
3, 162816, Note_on_c, 0, 72, 100
3, 162816, Note_on_c, 0, 60, 100
3, 163072, Note_off_c, 0, 72, 0
3, 163072, Note_off_c, 0, 60, 0
3, 163200, Note_on_c, 0, 69, 100
3, 163200, Note_on_c, 0, 57, 100
3, 163328, Note_off_c, 0, 69, 0
3, 163328, Note_on_c, 0, 72, 100
3, 163328, Note_off_c, 0, 57, 0
3, 163328, Note_on_c, 0, 60, 100
3, 163584, Note_off_c, 0, 72, 0
3, 163584, Note_off_c, 0, 60, 0
3, 163712, Note_on_c, 0, 69, 100
3, 163712, Note_on_c, 0, 57, 100
3, 163840, Note_off_c, 0, 69, 0
3, 163840, Note_on_c, 0, 72, 100
3, 163840, Note_off_c, 0, 57, 0
3, 163840, Note_on_c, 0, 60, 100
3, 163968, Note_off_c, 0, 72, 0
3, 163968, Note_on_c, 0, 69, 100
3, 163968, Note_off_c, 0, 60, 0
3, 163968, Note_on_c, 0, 57, 100
3, 164096, Note_off_c, 0, 69, 0
3, 164096, Note_on_c, 0, 66, 100
3, 164096, Note_off_c, 0, 57, 0
3, 164096, Note_on_c, 0, 54, 100
3, 164224, Note_off_c, 0, 66, 0
3, 164224, Note_on_c, 0, 69, 100
3, 164224, Note_off_c, 0, 54, 0
3, 164224, Note_on_c, 0, 57, 100
3, 164352, Note_off_c, 0, 69, 0
3, 164352, Note_on_c, 0, 62, 100
3, 164352, Note_off_c, 0, 57, 0
3, 164352, Note_on_c, 0, 50, 100
3, 164608, Note_off_c, 0, 62, 0
3, 164608, Note_off_c, 0, 50, 0
3, 164864, Note_on_c, 0, 67, 100
3, 164864, Note_on_c, 0, 55, 100
3, 164928, Note_off_c, 0, 67, 0
3, 164928, Note_on_c, 0, 62, 100
3, 164992, Note_off_c, 0, 62, 0
3, 164992, Note_on_c, 0, 59, 100
3, 164992, Note_off_c, 0, 55, 0
3, 164992, Note_on_c, 0, 55, 100
3, 165056, Note_off_c, 0, 59, 0
3, 165056, Note_on_c, 0, 62, 100
3, 165120, Note_off_c, 0, 62, 0
3, 165120, Note_on_c, 0, 67, 100
3, 165120, Note_off_c, 0, 55, 0
3, 165120, Note_on_c, 0, 55, 100
3, 165184, Note_off_c, 0, 67, 0
3, 165184, Note_on_c, 0, 62, 100
3, 165248, Note_off_c, 0, 62, 0
3, 165248, Note_on_c, 0, 59, 100
3, 165248, Note_off_c, 0, 55, 0
3, 165248, Note_on_c, 0, 55, 100
3, 165312, Note_off_c, 0, 59, 0
3, 165312, Note_on_c, 0, 62, 100
3, 165376, Note_off_c, 0, 62, 0
3, 165376, Note_on_c, 0, 67, 100
3, 165376, Note_off_c, 0, 55, 0
3, 165376, Note_on_c, 0, 55, 100
3, 165440, Note_off_c, 0, 67, 0
3, 165440, Note_on_c, 0, 62, 100
3, 165504, Note_off_c, 0, 62, 0
3, 165504, Note_on_c, 0, 59, 100
3, 165504, Note_off_c, 0, 55, 0
3, 165504, Note_on_c, 0, 55, 100
3, 165568, Note_off_c, 0, 59, 0
3, 165568, Note_on_c, 0, 62, 100
3, 165632, Note_off_c, 0, 62, 0
3, 165632, Note_on_c, 0, 67, 100
3, 165632, Note_off_c, 0, 55, 0
3, 165632, Note_on_c, 0, 55, 100
3, 165696, Note_off_c, 0, 67, 0
3, 165696, Note_on_c, 0, 62, 100
3, 165760, Note_off_c, 0, 62, 0
3, 165760, Note_on_c, 0, 59, 100
3, 165760, Note_off_c, 0, 55, 0
3, 165760, Note_on_c, 0, 55, 100
3, 165824, Note_off_c, 0, 59, 0
3, 165824, Note_on_c, 0, 62, 100
3, 165888, Note_off_c, 0, 62, 0
3, 165888, Note_on_c, 0, 69, 100
3, 165888, Note_off_c, 0, 55, 0
3, 165888, Note_on_c, 0, 55, 100
3, 165952, Note_off_c, 0, 69, 0
3, 165952, Note_on_c, 0, 62, 100
3, 166016, Note_off_c, 0, 62, 0
3, 166016, Note_on_c, 0, 60, 100
3, 166016, Note_off_c, 0, 55, 0
3, 166016, Note_on_c, 0, 55, 100
3, 166080, Note_off_c, 0, 60, 0
3, 166080, Note_on_c, 0, 62, 100
3, 166144, Note_off_c, 0, 62, 0
3, 166144, Note_on_c, 0, 69, 100
3, 166144, Note_off_c, 0, 55, 0
3, 166144, Note_on_c, 0, 55, 100
3, 166208, Note_off_c, 0, 69, 0
3, 166208, Note_on_c, 0, 62, 100
3, 166272, Note_off_c, 0, 62, 0
3, 166272, Note_on_c, 0, 60, 100
3, 166272, Note_off_c, 0, 55, 0
3, 166272, Note_on_c, 0, 55, 100
3, 166336, Note_off_c, 0, 60, 0
3, 166336, Note_on_c, 0, 62, 100
3, 166400, Note_off_c, 0, 62, 0
3, 166400, Note_on_c, 0, 69, 100
3, 166400, Note_off_c, 0, 55, 0
3, 166400, Note_on_c, 0, 55, 100
3, 166464, Note_off_c, 0, 69, 0
3, 166464, Note_on_c, 0, 62, 100
3, 166528, Note_off_c, 0, 62, 0
3, 166528, Note_on_c, 0, 72, 100
3, 166528, Note_off_c, 0, 55, 0
3, 166528, Note_on_c, 0, 55, 100
3, 166592, Note_off_c, 0, 72, 0
3, 166592, Note_on_c, 0, 62, 100
3, 166656, Note_off_c, 0, 62, 0
3, 166656, Note_on_c, 0, 66, 100
3, 166656, Note_off_c, 0, 55, 0
3, 166656, Note_on_c, 0, 55, 100
3, 166720, Note_off_c, 0, 66, 0
3, 166720, Note_on_c, 0, 62, 100
3, 166784, Note_off_c, 0, 62, 0
3, 166784, Note_on_c, 0, 69, 100
3, 166784, Note_off_c, 0, 55, 0
3, 166784, Note_on_c, 0, 55, 100
3, 166848, Note_off_c, 0, 69, 0
3, 166848, Note_on_c, 0, 62, 100
3, 166912, Note_off_c, 0, 62, 0
3, 166912, Note_on_c, 0, 67, 100
3, 166912, Note_off_c, 0, 55, 0
3, 166912, Note_on_c, 0, 55, 100
3, 166976, Note_off_c, 0, 67, 0
3, 166976, Note_on_c, 0, 62, 100
3, 167040, Note_off_c, 0, 62, 0
3, 167040, Note_on_c, 0, 59, 100
3, 167040, Note_off_c, 0, 55, 0
3, 167040, Note_on_c, 0, 55, 100
3, 167104, Note_off_c, 0, 59, 0
3, 167104, Note_on_c, 0, 62, 100
3, 167168, Note_off_c, 0, 62, 0
3, 167168, Note_on_c, 0, 67, 100
3, 167168, Note_off_c, 0, 55, 0
3, 167168, Note_on_c, 0, 55, 100
3, 167232, Note_off_c, 0, 67, 0
3, 167232, Note_on_c, 0, 62, 100
3, 167296, Note_off_c, 0, 62, 0
3, 167296, Note_on_c, 0, 59, 100
3, 167296, Note_off_c, 0, 55, 0
3, 167296, Note_on_c, 0, 55, 100
3, 167360, Note_off_c, 0, 59, 0
3, 167360, Note_on_c, 0, 62, 100
3, 167424, Note_off_c, 0, 62, 0
3, 167424, Note_on_c, 0, 67, 100
3, 167424, Note_off_c, 0, 55, 0
3, 167424, Note_on_c, 0, 55, 100
3, 167488, Note_off_c, 0, 67, 0
3, 167488, Note_on_c, 0, 62, 100
3, 167552, Note_off_c, 0, 62, 0
3, 167552, Note_on_c, 0, 59, 100
3, 167552, Note_off_c, 0, 55, 0
3, 167552, Note_on_c, 0, 55, 100
3, 167616, Note_off_c, 0, 59, 0
3, 167616, Note_on_c, 0, 62, 100
3, 167680, Note_off_c, 0, 62, 0
3, 167680, Note_on_c, 0, 67, 100
3, 167680, Note_off_c, 0, 55, 0
3, 167680, Note_on_c, 0, 55, 100
3, 167744, Note_off_c, 0, 67, 0
3, 167744, Note_on_c, 0, 62, 100
3, 167808, Note_off_c, 0, 62, 0
3, 167808, Note_on_c, 0, 59, 100
3, 167808, Note_off_c, 0, 55, 0
3, 167808, Note_on_c, 0, 55, 100
3, 167872, Note_off_c, 0, 59, 0
3, 167872, Note_on_c, 0, 62, 100
3, 167936, Note_off_c, 0, 62, 0
3, 167936, Note_on_c, 0, 69, 100
3, 167936, Note_off_c, 0, 55, 0
3, 167936, Note_on_c, 0, 55, 100
3, 168000, Note_off_c, 0, 69, 0
3, 168000, Note_on_c, 0, 62, 100
3, 168064, Note_off_c, 0, 62, 0
3, 168064, Note_on_c, 0, 60, 100
3, 168064, Note_off_c, 0, 55, 0
3, 168064, Note_on_c, 0, 55, 100
3, 168128, Note_off_c, 0, 60, 0
3, 168128, Note_on_c, 0, 62, 100
3, 168192, Note_off_c, 0, 62, 0
3, 168192, Note_on_c, 0, 69, 100
3, 168192, Note_off_c, 0, 55, 0
3, 168192, Note_on_c, 0, 55, 100
3, 168256, Note_off_c, 0, 69, 0
3, 168256, Note_on_c, 0, 62, 100
3, 168320, Note_off_c, 0, 62, 0
3, 168320, Note_on_c, 0, 60, 100
3, 168320, Note_off_c, 0, 55, 0
3, 168320, Note_on_c, 0, 55, 100
3, 168384, Note_off_c, 0, 60, 0
3, 168384, Note_on_c, 0, 62, 100
3, 168448, Note_off_c, 0, 62, 0
3, 168448, Note_on_c, 0, 69, 100
3, 168448, Note_off_c, 0, 55, 0
3, 168448, Note_on_c, 0, 55, 100
3, 168512, Note_off_c, 0, 69, 0
3, 168512, Note_on_c, 0, 62, 100
3, 168576, Note_off_c, 0, 62, 0
3, 168576, Note_on_c, 0, 72, 100
3, 168576, Note_off_c, 0, 55, 0
3, 168576, Note_on_c, 0, 55, 100
3, 168640, Note_off_c, 0, 72, 0
3, 168640, Note_on_c, 0, 62, 100
3, 168704, Note_off_c, 0, 62, 0
3, 168704, Note_on_c, 0, 66, 100
3, 168704, Note_off_c, 0, 55, 0
3, 168704, Note_on_c, 0, 55, 100
3, 168768, Note_off_c, 0, 66, 0
3, 168768, Note_on_c, 0, 62, 100
3, 168832, Note_off_c, 0, 62, 0
3, 168832, Note_on_c, 0, 69, 100
3, 168832, Note_off_c, 0, 55, 0
3, 168832, Note_on_c, 0, 55, 100
3, 168896, Note_off_c, 0, 69, 0
3, 168896, Note_on_c, 0, 62, 100
3, 168960, Note_off_c, 0, 62, 0
3, 168960, Note_on_c, 0, 59, 100
3, 168960, Note_on_c, 0, 62, 100
3, 168960, Note_off_c, 0, 55, 0
3, 168960, Note_on_c, 0, 55, 100
3, 169088, Note_off_c, 0, 55, 0
3, 169088, Note_on_c, 0, 55, 100
3, 169216, Note_off_c, 0, 59, 0
3, 169216, Note_off_c, 0, 62, 0
3, 169216, Note_on_c, 0, 72, 100
3, 169216, Note_off_c, 0, 55, 0
3, 169216, Note_on_c, 0, 57, 100
3, 169216, Note_on_c, 0, 62, 100
3, 169344, Note_off_c, 0, 72, 0
3, 169344, Note_on_c, 0, 72, 100
3, 169344, Note_off_c, 0, 57, 0
3, 169344, Note_off_c, 0, 62, 0
3, 169344, Note_on_c, 0, 57, 100
3, 169344, Note_on_c, 0, 62, 100
3, 169472, Note_off_c, 0, 72, 0
3, 169472, Note_on_c, 0, 74, 100
3, 169472, Note_off_c, 0, 57, 0
3, 169472, Note_off_c, 0, 62, 0
3, 169472, Note_on_c, 0, 59, 100
3, 169472, Note_on_c, 0, 62, 100
3, 169600, Note_off_c, 0, 74, 0
3, 169600, Note_on_c, 0, 74, 100
3, 169600, Note_off_c, 0, 59, 0
3, 169600, Note_off_c, 0, 62, 0
3, 169600, Note_on_c, 0, 59, 100
3, 169600, Note_on_c, 0, 62, 100
3, 169728, Note_off_c, 0, 74, 0
3, 169728, Note_on_c, 0, 72, 100
3, 169728, Note_off_c, 0, 59, 0
3, 169728, Note_off_c, 0, 62, 0
3, 169728, Note_on_c, 0, 54, 100
3, 169728, Note_on_c, 0, 62, 100
3, 169856, Note_on_c, 0, 71, 100
3, 169856, Note_off_c, 0, 54, 0
3, 169856, Note_off_c, 0, 62, 0
3, 169856, Note_on_c, 0, 54, 100
3, 169856, Note_on_c, 0, 62, 100
3, 169858, Note_off_c, 0, 72, 0
3, 169920, Note_on_c, 0, 69, 100
3, 169921, Note_off_c, 0, 71, 0
3, 169980, Note_off_c, 0, 69, 0
3, 169984, Note_on_c, 0, 67, 100
3, 169984, Note_off_c, 0, 54, 0
3, 169984, Note_off_c, 0, 62, 0
3, 169984, Note_on_c, 0, 55, 100
3, 169984, Note_on_c, 0, 62, 100
3, 170112, Note_off_c, 0, 67, 0
3, 170112, Note_on_c, 0, 67, 100
3, 170112, Note_off_c, 0, 55, 0
3, 170112, Note_off_c, 0, 62, 0
3, 170112, Note_on_c, 0, 55, 100
3, 170112, Note_on_c, 0, 62, 100
3, 170240, Note_off_c, 0, 67, 0
3, 170240, Note_on_c, 0, 66, 100
3, 170240, Note_off_c, 0, 55, 0
3, 170240, Note_off_c, 0, 62, 0
3, 170240, Note_on_c, 0, 57, 100
3, 170240, Note_on_c, 0, 62, 100
3, 170368, Note_off_c, 0, 66, 0
3, 170368, Note_on_c, 0, 66, 100
3, 170368, Note_off_c, 0, 57, 0
3, 170368, Note_off_c, 0, 62, 0
3, 170368, Note_on_c, 0, 57, 100
3, 170368, Note_on_c, 0, 62, 100
3, 170496, Note_off_c, 0, 66, 0
3, 170496, Note_on_c, 0, 67, 100
3, 170496, Note_off_c, 0, 57, 0
3, 170496, Note_off_c, 0, 62, 0
3, 170496, Note_on_c, 0, 59, 100
3, 170496, Note_on_c, 0, 62, 100
3, 170752, Note_off_c, 0, 67, 0
3, 170752, Note_off_c, 0, 59, 0
3, 170752, Note_off_c, 0, 62, 0
3, 171008, Note_on_c, 0, 71, 100
3, 171520, Note_on_c, 0, 72, 100
3, 171530, Note_off_c, 0, 71, 0
3, 172006, Note_off_c, 0, 72, 0
3, 172012, Note_on_c, 0, 71, 100
3, 172032, Note_on_c, 0, 69, 100
3, 172032, Note_off_c, 0, 71, 0
3, 172032, Note_on_c, 0, 50, 100
3, 172032, Note_on_c, 0, 54, 100
3, 172275, Note_off_c, 0, 69, 0
3, 172288, Note_on_c, 0, 69, 100
3, 172524, Note_off_c, 0, 69, 0
3, 172524, Note_on_c, 0, 69, 100
3, 172544, Note_on_c, 0, 67, 100
3, 172544, Note_off_c, 0, 69, 0
3, 172544, Note_on_c, 0, 52, 100
3, 172544, Note_on_c, 0, 55, 100
3, 172554, Note_off_c, 0, 50, 0
3, 172554, Note_off_c, 0, 54, 0
3, 172787, Note_off_c, 0, 67, 0
3, 172800, Note_on_c, 0, 67, 100
3, 173030, Note_off_c, 0, 52, 0
3, 173030, Note_off_c, 0, 55, 0
3, 173056, Note_off_c, 0, 67, 0
3, 173056, Note_on_c, 0, 60, 100
3, 173056, Note_on_c, 0, 64, 100
3, 173056, Note_on_c, 0, 48, 100
3, 173312, Note_off_c, 0, 60, 0
3, 173312, Note_off_c, 0, 64, 0
3, 173312, Note_on_c, 0, 60, 100
3, 173312, Note_on_c, 0, 64, 100
3, 173312, Note_off_c, 0, 48, 0
3, 173312, Note_on_c, 0, 48, 100
3, 173568, Note_off_c, 0, 60, 0
3, 173568, Note_off_c, 0, 64, 0
3, 173568, Note_on_c, 0, 57, 100
3, 173568, Note_on_c, 0, 60, 100
3, 173568, Note_off_c, 0, 48, 0
3, 173568, Note_on_c, 0, 50, 100
3, 173824, Note_off_c, 0, 57, 0
3, 173824, Note_off_c, 0, 60, 0
3, 173824, Note_on_c, 0, 57, 100
3, 173824, Note_off_c, 0, 50, 0
3, 173824, Note_on_c, 0, 50, 100
3, 174080, Note_off_c, 0, 57, 0
3, 174080, Note_on_c, 0, 62, 100
3, 174080, Note_off_c, 0, 50, 0
3, 174080, Note_on_c, 0, 47, 100
3, 174080, Note_on_c, 0, 50, 100
3, 174208, Note_off_c, 0, 62, 0
3, 174208, Note_off_c, 0, 47, 0
3, 174208, Note_off_c, 0, 50, 0
3, 174336, Note_on_c, 0, 66, 100
3, 174336, Note_on_c, 0, 50, 100
3, 174336, Note_on_c, 0, 62, 100
3, 174464, Note_off_c, 0, 66, 0
3, 174464, Note_off_c, 0, 50, 0
3, 174464, Note_off_c, 0, 62, 0
3, 174592, Note_on_c, 0, 67, 100
3, 174592, Note_on_c, 0, 55, 100
3, 174592, Note_on_c, 0, 62, 100
3, 174720, Note_off_c, 0, 67, 0
3, 174848, Note_off_c, 0, 55, 0
3, 174848, Note_off_c, 0, 62, 0
3, 175104, Note_on_c, 0, 71, 100
3, 175616, Note_on_c, 0, 72, 100
3, 175626, Note_off_c, 0, 71, 0
3, 176102, Note_off_c, 0, 72, 0
3, 176128, Note_on_c, 0, 71, 100
3, 176128, Note_on_c, 0, 50, 100
3, 176128, Note_on_c, 0, 54, 100
3, 176256, Note_on_c, 0, 69, 100
3, 176258, Note_off_c, 0, 71, 0
3, 176377, Note_off_c, 0, 69, 0
3, 176384, Note_on_c, 0, 69, 100
3, 176448, Note_off_c, 0, 69, 0
3, 176512, Note_on_c, 0, 69, 100
3, 176576, Note_off_c, 0, 69, 0
3, 176640, Note_on_c, 0, 69, 100
3, 176640, Note_on_c, 0, 52, 100
3, 176640, Note_on_c, 0, 55, 100
3, 176650, Note_off_c, 0, 50, 0
3, 176650, Note_off_c, 0, 54, 0
3, 176768, Note_on_c, 0, 67, 100
3, 176770, Note_off_c, 0, 69, 0
3, 176889, Note_off_c, 0, 67, 0
3, 176896, Note_on_c, 0, 67, 100
3, 176960, Note_off_c, 0, 67, 0
3, 177024, Note_on_c, 0, 67, 100
3, 177088, Note_off_c, 0, 67, 0
3, 177126, Note_off_c, 0, 52, 0
3, 177126, Note_off_c, 0, 55, 0
3, 177152, Note_on_c, 0, 60, 100
3, 177152, Note_on_c, 0, 64, 100
3, 177152, Note_on_c, 0, 48, 100
3, 177408, Note_off_c, 0, 60, 0
3, 177408, Note_off_c, 0, 64, 0
3, 177408, Note_on_c, 0, 60, 100
3, 177408, Note_on_c, 0, 64, 100
3, 177408, Note_off_c, 0, 48, 0
3, 177408, Note_on_c, 0, 48, 100
3, 177536, Note_off_c, 0, 60, 0
3, 177536, Note_off_c, 0, 64, 0
3, 177536, Note_on_c, 0, 60, 100
3, 177536, Note_on_c, 0, 64, 100
3, 177664, Note_off_c, 0, 60, 0
3, 177664, Note_off_c, 0, 64, 0
3, 177664, Note_on_c, 0, 57, 100
3, 177664, Note_on_c, 0, 60, 100
3, 177664, Note_off_c, 0, 48, 0
3, 177664, Note_on_c, 0, 50, 100
3, 177920, Note_off_c, 0, 57, 0
3, 177920, Note_off_c, 0, 60, 0
3, 177920, Note_on_c, 0, 57, 100
3, 177920, Note_on_c, 0, 60, 100
3, 177920, Note_off_c, 0, 50, 0
3, 177920, Note_on_c, 0, 50, 100
3, 178048, Note_off_c, 0, 57, 0
3, 178048, Note_off_c, 0, 60, 0
3, 178048, Note_on_c, 0, 57, 100
3, 178048, Note_on_c, 0, 60, 100
3, 178176, Note_off_c, 0, 57, 0
3, 178176, Note_off_c, 0, 60, 0
3, 178176, Note_on_c, 0, 55, 100
3, 178176, Note_on_c, 0, 59, 100
3, 178176, Note_off_c, 0, 50, 0
3, 178176, Note_on_c, 0, 55, 100
3, 178304, Note_off_c, 0, 55, 0
3, 178304, Note_on_c, 0, 55, 100
3, 178432, Note_off_c, 0, 55, 0
3, 178432, Note_on_c, 0, 55, 100
3, 178560, Note_off_c, 0, 55, 0
3, 178560, Note_on_c, 0, 55, 100
3, 178688, Note_off_c, 0, 55, 0
3, 178688, Note_on_c, 0, 55, 100
3, 178816, Note_off_c, 0, 55, 0
3, 178816, Note_off_c, 0, 59, 0
3, 178816, Note_on_c, 0, 59, 100
3, 178816, Note_off_c, 0, 55, 0
3, 178816, Note_on_c, 0, 55, 100
3, 178880, Note_on_c, 0, 57, 100
3, 178881, Note_off_c, 0, 59, 0
3, 178912, Note_off_c, 0, 57, 0
3, 178912, Note_on_c, 0, 59, 100
3, 178944, Note_off_c, 0, 59, 0
3, 178944, Note_on_c, 0, 60, 100
3, 178944, Note_off_c, 0, 55, 0
3, 178944, Note_on_c, 0, 55, 100
3, 179072, Note_on_c, 0, 57, 100
3, 179072, Note_off_c, 0, 55, 0
3, 179072, Note_on_c, 0, 55, 100
3, 179074, Note_off_c, 0, 60, 0
3, 179193, Note_off_c, 0, 57, 0
3, 179200, Note_on_c, 0, 67, 100
3, 179200, Note_off_c, 0, 55, 0
3, 179200, Note_on_c, 0, 55, 100
3, 179328, Note_off_c, 0, 55, 0
3, 179328, Note_on_c, 0, 55, 100
3, 179456, Note_off_c, 0, 55, 0
3, 179456, Note_on_c, 0, 55, 100
3, 179584, Note_off_c, 0, 55, 0
3, 179584, Note_on_c, 0, 55, 100
3, 179712, Note_off_c, 0, 55, 0
3, 179712, Note_on_c, 0, 55, 100
3, 179840, Note_off_c, 0, 67, 0
3, 179840, Note_on_c, 0, 67, 100
3, 179840, Note_off_c, 0, 55, 0
3, 179840, Note_on_c, 0, 55, 100
3, 179904, Note_on_c, 0, 66, 100
3, 179905, Note_off_c, 0, 67, 0
3, 179936, Note_off_c, 0, 66, 0
3, 179936, Note_on_c, 0, 67, 100
3, 179968, Note_off_c, 0, 67, 0
3, 179968, Note_on_c, 0, 69, 100
3, 179968, Note_off_c, 0, 55, 0
3, 179968, Note_on_c, 0, 55, 100
3, 180096, Note_on_c, 0, 66, 100
3, 180096, Note_off_c, 0, 55, 0
3, 180096, Note_on_c, 0, 55, 100
3, 180098, Note_off_c, 0, 69, 0
3, 180217, Note_off_c, 0, 66, 0
3, 180224, Note_on_c, 0, 71, 100
3, 180224, Note_off_c, 0, 55, 0
3, 180224, Note_on_c, 0, 55, 100
3, 180288, Note_off_c, 0, 71, 0
3, 180288, Note_on_c, 0, 67, 100
3, 180352, Note_off_c, 0, 67, 0
3, 180352, Note_on_c, 0, 71, 100
3, 180352, Note_off_c, 0, 55, 0
3, 180352, Note_on_c, 0, 55, 100
3, 180416, Note_off_c, 0, 71, 0
3, 180416, Note_on_c, 0, 67, 100
3, 180480, Note_off_c, 0, 67, 0
3, 180480, Note_on_c, 0, 71, 100
3, 180480, Note_off_c, 0, 55, 0
3, 180480, Note_on_c, 0, 55, 100
3, 180544, Note_off_c, 0, 71, 0
3, 180544, Note_on_c, 0, 67, 100
3, 180608, Note_off_c, 0, 67, 0
3, 180608, Note_on_c, 0, 71, 100
3, 180608, Note_off_c, 0, 55, 0
3, 180608, Note_on_c, 0, 55, 100
3, 180672, Note_off_c, 0, 71, 0
3, 180672, Note_on_c, 0, 67, 100
3, 180736, Note_off_c, 0, 67, 0
3, 180736, Note_on_c, 0, 72, 100
3, 180736, Note_off_c, 0, 55, 0
3, 180736, Note_on_c, 0, 55, 100
3, 180800, Note_off_c, 0, 72, 0
3, 180800, Note_on_c, 0, 67, 100
3, 180864, Note_off_c, 0, 67, 0
3, 180864, Note_on_c, 0, 72, 100
3, 180864, Note_off_c, 0, 55, 0
3, 180864, Note_on_c, 0, 55, 100
3, 180928, Note_off_c, 0, 72, 0
3, 180928, Note_on_c, 0, 67, 100
3, 180992, Note_off_c, 0, 67, 0
3, 180992, Note_on_c, 0, 72, 100
3, 180992, Note_off_c, 0, 55, 0
3, 180992, Note_on_c, 0, 55, 100
3, 181056, Note_off_c, 0, 72, 0
3, 181056, Note_on_c, 0, 69, 100
3, 181120, Note_off_c, 0, 69, 0
3, 181120, Note_on_c, 0, 72, 100
3, 181120, Note_off_c, 0, 55, 0
3, 181120, Note_on_c, 0, 55, 100
3, 181184, Note_off_c, 0, 72, 0
3, 181184, Note_on_c, 0, 69, 100
3, 181248, Note_off_c, 0, 69, 0
3, 181248, Note_on_c, 0, 71, 100
3, 181248, Note_off_c, 0, 55, 0
3, 181248, Note_on_c, 0, 55, 100
3, 181312, Note_off_c, 0, 71, 0
3, 181312, Note_on_c, 0, 67, 100
3, 181376, Note_off_c, 0, 67, 0
3, 181376, Note_on_c, 0, 71, 100
3, 181376, Note_off_c, 0, 55, 0
3, 181376, Note_on_c, 0, 55, 100
3, 181440, Note_off_c, 0, 71, 0
3, 181440, Note_on_c, 0, 67, 100
3, 181504, Note_off_c, 0, 67, 0
3, 181504, Note_on_c, 0, 74, 100
3, 181504, Note_off_c, 0, 55, 0
3, 181504, Note_on_c, 0, 54, 100
3, 181568, Note_off_c, 0, 74, 0
3, 181568, Note_on_c, 0, 66, 100
3, 181632, Note_off_c, 0, 66, 0
3, 181632, Note_on_c, 0, 74, 100
3, 181632, Note_off_c, 0, 54, 0
3, 181632, Note_on_c, 0, 54, 100
3, 181696, Note_off_c, 0, 74, 0
3, 181696, Note_on_c, 0, 66, 100
3, 181760, Note_off_c, 0, 66, 0
3, 181760, Note_on_c, 0, 74, 100
3, 181760, Note_off_c, 0, 54, 0
3, 181760, Note_on_c, 0, 55, 100
3, 181824, Note_off_c, 0, 74, 0
3, 181824, Note_on_c, 0, 67, 100
3, 181888, Note_off_c, 0, 67, 0
3, 181888, Note_on_c, 0, 74, 100
3, 181888, Note_off_c, 0, 55, 0
3, 181888, Note_on_c, 0, 55, 100
3, 181952, Note_off_c, 0, 74, 0
3, 181952, Note_on_c, 0, 67, 100
3, 182016, Note_off_c, 0, 67, 0
3, 182016, Note_on_c, 0, 79, 100
3, 182016, Note_off_c, 0, 55, 0
3, 182016, Note_on_c, 0, 52, 100
3, 182080, Note_off_c, 0, 79, 0
3, 182080, Note_on_c, 0, 76, 100
3, 182144, Note_off_c, 0, 76, 0
3, 182144, Note_on_c, 0, 79, 100
3, 182144, Note_off_c, 0, 52, 0
3, 182144, Note_on_c, 0, 52, 100
3, 182208, Note_off_c, 0, 79, 0
3, 182208, Note_on_c, 0, 76, 100
3, 182272, Note_off_c, 0, 76, 0
3, 182272, Note_on_c, 0, 78, 100
3, 182272, Note_off_c, 0, 52, 0
3, 182272, Note_on_c, 0, 50, 100
3, 182272, Note_on_c, 0, 62, 100
3, 182336, Note_off_c, 0, 78, 0
3, 182336, Note_on_c, 0, 69, 100
3, 182400, Note_off_c, 0, 69, 0
3, 182400, Note_on_c, 0, 74, 100
3, 182400, Note_off_c, 0, 50, 0
3, 182400, Note_off_c, 0, 62, 0
3, 182400, Note_on_c, 0, 50, 100
3, 182400, Note_on_c, 0, 62, 100
3, 182464, Note_off_c, 0, 74, 0
3, 182464, Note_on_c, 0, 69, 100
3, 182528, Note_off_c, 0, 69, 0
3, 182528, Note_on_c, 0, 78, 100
3, 182528, Note_off_c, 0, 50, 0
3, 182528, Note_off_c, 0, 62, 0
3, 182528, Note_on_c, 0, 50, 100
3, 182528, Note_on_c, 0, 62, 100
3, 182592, Note_off_c, 0, 78, 0
3, 182592, Note_on_c, 0, 69, 100
3, 182656, Note_off_c, 0, 69, 0
3, 182656, Note_on_c, 0, 74, 100
3, 182656, Note_off_c, 0, 50, 0
3, 182656, Note_off_c, 0, 62, 0
3, 182656, Note_on_c, 0, 50, 100
3, 182656, Note_on_c, 0, 62, 100
3, 182720, Note_off_c, 0, 74, 0
3, 182720, Note_on_c, 0, 69, 100
3, 182784, Note_off_c, 0, 69, 0
3, 182784, Note_on_c, 0, 79, 100
3, 182784, Note_off_c, 0, 50, 0
3, 182784, Note_off_c, 0, 62, 0
3, 182784, Note_on_c, 0, 50, 100
3, 182784, Note_on_c, 0, 64, 100
3, 182848, Note_off_c, 0, 79, 0
3, 182848, Note_on_c, 0, 69, 100
3, 182912, Note_off_c, 0, 69, 0
3, 182912, Note_on_c, 0, 76, 100
3, 182912, Note_off_c, 0, 50, 0
3, 182912, Note_off_c, 0, 64, 0
3, 182912, Note_on_c, 0, 50, 100
3, 182912, Note_on_c, 0, 64, 100
3, 182976, Note_off_c, 0, 76, 0
3, 182976, Note_on_c, 0, 69, 100
3, 183040, Note_off_c, 0, 69, 0
3, 183040, Note_on_c, 0, 79, 100
3, 183040, Note_off_c, 0, 50, 0
3, 183040, Note_off_c, 0, 64, 0
3, 183040, Note_on_c, 0, 50, 100
3, 183040, Note_on_c, 0, 64, 100
3, 183104, Note_off_c, 0, 79, 0
3, 183104, Note_on_c, 0, 69, 100
3, 183168, Note_off_c, 0, 69, 0
3, 183168, Note_on_c, 0, 76, 100
3, 183168, Note_off_c, 0, 50, 0
3, 183168, Note_off_c, 0, 64, 0
3, 183168, Note_on_c, 0, 50, 100
3, 183168, Note_on_c, 0, 64, 100
3, 183232, Note_off_c, 0, 76, 0
3, 183232, Note_on_c, 0, 69, 100
3, 183296, Note_off_c, 0, 69, 0
3, 183296, Note_on_c, 0, 78, 100
3, 183296, Note_off_c, 0, 50, 0
3, 183296, Note_off_c, 0, 64, 0
3, 183296, Note_on_c, 0, 50, 100
3, 183296, Note_on_c, 0, 62, 100
3, 183360, Note_off_c, 0, 78, 0
3, 183360, Note_on_c, 0, 69, 100
3, 183424, Note_off_c, 0, 69, 0
3, 183424, Note_on_c, 0, 74, 100
3, 183424, Note_off_c, 0, 50, 0
3, 183424, Note_off_c, 0, 62, 0
3, 183424, Note_on_c, 0, 50, 100
3, 183424, Note_on_c, 0, 62, 100
3, 183488, Note_off_c, 0, 74, 0
3, 183488, Note_on_c, 0, 69, 100
3, 183552, Note_off_c, 0, 69, 0
3, 183552, Note_on_c, 0, 78, 100
3, 183552, Note_off_c, 0, 50, 0
3, 183552, Note_off_c, 0, 62, 0
3, 183552, Note_on_c, 0, 50, 100
3, 183552, Note_on_c, 0, 62, 100
3, 183616, Note_off_c, 0, 78, 0
3, 183616, Note_on_c, 0, 69, 100
3, 183680, Note_off_c, 0, 69, 0
3, 183680, Note_on_c, 0, 74, 100
3, 183680, Note_off_c, 0, 50, 0
3, 183680, Note_off_c, 0, 62, 0
3, 183680, Note_on_c, 0, 50, 100
3, 183680, Note_on_c, 0, 62, 100
3, 183744, Note_off_c, 0, 74, 0
3, 183744, Note_on_c, 0, 69, 100
3, 183808, Note_off_c, 0, 69, 0
3, 183808, Note_on_c, 0, 79, 100
3, 183808, Note_off_c, 0, 50, 0
3, 183808, Note_off_c, 0, 62, 0
3, 183808, Note_on_c, 0, 50, 100
3, 183808, Note_on_c, 0, 64, 100
3, 183872, Note_off_c, 0, 79, 0
3, 183872, Note_on_c, 0, 69, 100
3, 183936, Note_off_c, 0, 69, 0
3, 183936, Note_on_c, 0, 76, 100
3, 183936, Note_off_c, 0, 50, 0
3, 183936, Note_off_c, 0, 64, 0
3, 183936, Note_on_c, 0, 50, 100
3, 183936, Note_on_c, 0, 64, 100
3, 184000, Note_off_c, 0, 76, 0
3, 184000, Note_on_c, 0, 69, 100
3, 184064, Note_off_c, 0, 69, 0
3, 184064, Note_on_c, 0, 79, 100
3, 184064, Note_off_c, 0, 50, 0
3, 184064, Note_off_c, 0, 64, 0
3, 184064, Note_on_c, 0, 50, 100
3, 184064, Note_on_c, 0, 64, 100
3, 184128, Note_off_c, 0, 79, 0
3, 184128, Note_on_c, 0, 69, 100
3, 184192, Note_off_c, 0, 69, 0
3, 184192, Note_on_c, 0, 76, 100
3, 184192, Note_off_c, 0, 50, 0
3, 184192, Note_off_c, 0, 64, 0
3, 184192, Note_on_c, 0, 50, 100
3, 184192, Note_on_c, 0, 64, 100
3, 184256, Note_off_c, 0, 76, 0
3, 184256, Note_on_c, 0, 69, 100
3, 184320, Note_off_c, 0, 69, 0
3, 184320, Note_on_c, 0, 78, 100
3, 184320, Note_off_c, 0, 50, 0
3, 184320, Note_off_c, 0, 64, 0
3, 184320, Note_on_c, 0, 50, 100
3, 184320, Note_on_c, 0, 62, 100
3, 184384, Note_off_c, 0, 78, 0
3, 184384, Note_on_c, 0, 69, 100
3, 184448, Note_off_c, 0, 69, 0
3, 184448, Note_on_c, 0, 74, 100
3, 184448, Note_off_c, 0, 50, 0
3, 184448, Note_off_c, 0, 62, 0
3, 184448, Note_on_c, 0, 50, 100
3, 184448, Note_on_c, 0, 62, 100
3, 184512, Note_off_c, 0, 74, 0
3, 184512, Note_on_c, 0, 69, 100
3, 184576, Note_off_c, 0, 69, 0
3, 184576, Note_on_c, 0, 79, 100
3, 184576, Note_off_c, 0, 50, 0
3, 184576, Note_off_c, 0, 62, 0
3, 184576, Note_on_c, 0, 50, 100
3, 184576, Note_on_c, 0, 64, 100
3, 184640, Note_off_c, 0, 79, 0
3, 184640, Note_on_c, 0, 69, 100
3, 184704, Note_off_c, 0, 69, 0
3, 184704, Note_on_c, 0, 76, 100
3, 184704, Note_off_c, 0, 50, 0
3, 184704, Note_off_c, 0, 64, 0
3, 184704, Note_on_c, 0, 50, 100
3, 184704, Note_on_c, 0, 64, 100
3, 184768, Note_off_c, 0, 76, 0
3, 184768, Note_on_c, 0, 69, 100
3, 184832, Note_off_c, 0, 69, 0
3, 184832, Note_on_c, 0, 78, 100
3, 184832, Note_off_c, 0, 50, 0
3, 184832, Note_off_c, 0, 64, 0
3, 184832, Note_on_c, 0, 50, 100
3, 184832, Note_on_c, 0, 62, 100
3, 184896, Note_off_c, 0, 78, 0
3, 184896, Note_on_c, 0, 69, 100
3, 184960, Note_off_c, 0, 69, 0
3, 184960, Note_on_c, 0, 74, 100
3, 184960, Note_off_c, 0, 50, 0
3, 184960, Note_off_c, 0, 62, 0
3, 184960, Note_on_c, 0, 50, 100
3, 184960, Note_on_c, 0, 62, 100
3, 185024, Note_off_c, 0, 74, 0
3, 185024, Note_on_c, 0, 69, 100
3, 185088, Note_off_c, 0, 69, 0
3, 185088, Note_on_c, 0, 79, 100
3, 185088, Note_off_c, 0, 50, 0
3, 185088, Note_off_c, 0, 62, 0
3, 185088, Note_on_c, 0, 50, 100
3, 185088, Note_on_c, 0, 64, 100
3, 185152, Note_off_c, 0, 79, 0
3, 185152, Note_on_c, 0, 69, 100
3, 185216, Note_off_c, 0, 69, 0
3, 185216, Note_on_c, 0, 76, 100
3, 185216, Note_off_c, 0, 50, 0
3, 185216, Note_off_c, 0, 64, 0
3, 185216, Note_on_c, 0, 50, 100
3, 185216, Note_on_c, 0, 64, 100
3, 185280, Note_off_c, 0, 76, 0
3, 185280, Note_on_c, 0, 69, 100
3, 185344, Note_off_c, 0, 69, 0
3, 185344, Note_on_c, 0, 78, 100
3, 185344, Note_off_c, 0, 50, 0
3, 185344, Note_off_c, 0, 64, 0
3, 185344, Note_on_c, 0, 50, 100
3, 185344, Note_on_c, 0, 62, 100
3, 185472, Note_off_c, 0, 78, 0
3, 185472, Note_on_c, 0, 62, 100
3, 185472, Note_off_c, 0, 50, 0
3, 185472, Note_off_c, 0, 62, 0
3, 185472, Note_on_c, 0, 50, 100
3, 185600, Note_off_c, 0, 62, 0
3, 185600, Note_on_c, 0, 62, 100
3, 185600, Note_off_c, 0, 50, 0
3, 185600, Note_on_c, 0, 50, 100
3, 185728, Note_off_c, 0, 62, 0
3, 185728, Note_on_c, 0, 62, 100
3, 185728, Note_off_c, 0, 50, 0
3, 185728, Note_on_c, 0, 50, 100
3, 185856, Note_off_c, 0, 62, 0
3, 185856, Note_on_c, 0, 62, 100
3, 185856, Note_off_c, 0, 50, 0
3, 185856, Note_on_c, 0, 50, 100
3, 186112, Note_off_c, 0, 62, 0
3, 186112, Note_off_c, 0, 50, 0
3, 186368, Note_on_c, 0, 62, 100
3, 186752, Note_on_c, 0, 60, 100
3, 186759, Note_off_c, 0, 62, 0
3, 186794, Note_off_c, 0, 60, 0
3, 186794, Note_on_c, 0, 59, 100
3, 186837, Note_off_c, 0, 59, 0
3, 186837, Note_on_c, 0, 57, 100
3, 186880, Note_off_c, 0, 57, 0
3, 186880, Note_on_c, 0, 55, 100
3, 187001, Note_off_c, 0, 55, 0
3, 187136, Note_on_c, 0, 59, 100
3, 187136, Note_on_c, 0, 64, 100
3, 187136, Note_on_c, 0, 56, 100
3, 187264, Note_off_c, 0, 59, 0
3, 187264, Note_off_c, 0, 64, 0
3, 187264, Note_off_c, 0, 56, 0
3, 187392, Note_on_c, 0, 60, 100
3, 187392, Note_on_c, 0, 52, 100
3, 187392, Note_on_c, 0, 57, 100
3, 187520, Note_off_c, 0, 60, 0
3, 187520, Note_off_c, 0, 52, 0
3, 187520, Note_off_c, 0, 57, 0
3, 187648, Note_on_c, 0, 57, 100
3, 187648, Note_on_c, 0, 60, 100
3, 187648, Note_on_c, 0, 55, 100
3, 187776, Note_off_c, 0, 57, 0
3, 187776, Note_off_c, 0, 60, 0
3, 187776, Note_off_c, 0, 55, 0
3, 187904, Note_on_c, 0, 57, 100
3, 187904, Note_on_c, 0, 62, 100
3, 187904, Note_on_c, 0, 54, 100
3, 188032, Note_off_c, 0, 57, 0
3, 188032, Note_off_c, 0, 62, 0
3, 188032, Note_off_c, 0, 54, 0
3, 188160, Note_on_c, 0, 50, 100
3, 188160, Note_on_c, 0, 54, 100
3, 188288, Note_off_c, 0, 50, 0
3, 188288, Note_off_c, 0, 54, 0
3, 188416, Note_on_c, 0, 71, 100
3, 188672, Note_on_c, 0, 51, 100
3, 188672, Note_on_c, 0, 57, 100
3, 188800, Note_on_c, 0, 69, 100
3, 188807, Note_off_c, 0, 71, 0
3, 188842, Note_off_c, 0, 69, 0
3, 188842, Note_on_c, 0, 67, 100
3, 188885, Note_off_c, 0, 67, 0
3, 188885, Note_on_c, 0, 66, 100
3, 188928, Note_off_c, 0, 66, 0
3, 188928, Note_on_c, 0, 64, 100
3, 188928, Note_on_c, 0, 52, 100
3, 188928, Note_on_c, 0, 55, 100
3, 188933, Note_off_c, 0, 51, 0
3, 188933, Note_off_c, 0, 57, 0
3, 189049, Note_off_c, 0, 64, 0
3, 189049, Note_off_c, 0, 52, 0
3, 189049, Note_off_c, 0, 55, 0
3, 189184, Note_on_c, 0, 69, 100
3, 189184, Note_on_c, 0, 72, 100
3, 189184, Note_on_c, 0, 48, 100
3, 189312, Note_off_c, 0, 69, 0
3, 189312, Note_off_c, 0, 72, 0
3, 189312, Note_off_c, 0, 48, 0
3, 189440, Note_on_c, 0, 67, 100
3, 189440, Note_on_c, 0, 71, 100
3, 189440, Note_on_c, 0, 50, 100
3, 189696, Note_off_c, 0, 50, 0
3, 189696, Note_on_c, 0, 62, 100
3, 189952, Note_on_c, 0, 66, 100
3, 189952, Note_on_c, 0, 69, 100
3, 189962, Note_off_c, 0, 67, 0
3, 189962, Note_off_c, 0, 71, 0
3, 190080, Note_on_c, 0, 61, 100
3, 190087, Note_off_c, 0, 62, 0
3, 190195, Note_off_c, 0, 66, 0
3, 190195, Note_off_c, 0, 69, 0
3, 190208, Note_on_c, 0, 60, 100
3, 190210, Note_off_c, 0, 61, 0
3, 190336, Note_on_c, 0, 57, 100
3, 190338, Note_off_c, 0, 60, 0
3, 190457, Note_off_c, 0, 57, 0
3, 190464, Note_on_c, 0, 74, 100
3, 190464, Note_on_c, 0, 55, 100
3, 190592, Note_off_c, 0, 55, 0
3, 190720, Note_on_c, 0, 66, 100
3, 190720, Note_on_c, 0, 57, 100
3, 190848, Note_on_c, 0, 72, 100
3, 190850, Note_off_c, 0, 57, 0
3, 190855, Note_off_c, 0, 74, 0
3, 190890, Note_off_c, 0, 72, 0
3, 190890, Note_on_c, 0, 71, 100
3, 190933, Note_off_c, 0, 71, 0
3, 190933, Note_on_c, 0, 69, 100
3, 190976, Note_off_c, 0, 69, 0
3, 190976, Note_on_c, 0, 67, 100
3, 190976, Note_on_c, 0, 67, 100
3, 190976, Note_on_c, 0, 59, 100
3, 190981, Note_off_c, 0, 66, 0
3, 191097, Note_off_c, 0, 67, 0
3, 191097, Note_off_c, 0, 67, 0
3, 191097, Note_off_c, 0, 59, 0
3, 191232, Note_on_c, 0, 71, 100
3, 191232, Note_on_c, 0, 76, 100
3, 191232, Note_on_c, 0, 56, 100
3, 191360, Note_off_c, 0, 71, 0
3, 191360, Note_off_c, 0, 76, 0
3, 191360, Note_off_c, 0, 56, 0
3, 191488, Note_on_c, 0, 64, 100
3, 191488, Note_on_c, 0, 72, 100
3, 191488, Note_on_c, 0, 57, 100
3, 191616, Note_off_c, 0, 64, 0
3, 191616, Note_off_c, 0, 72, 0
3, 191616, Note_off_c, 0, 57, 0
3, 191744, Note_on_c, 0, 60, 100
3, 191744, Note_on_c, 0, 69, 100
3, 191744, Note_on_c, 0, 55, 100
3, 191872, Note_off_c, 0, 60, 0
3, 191872, Note_off_c, 0, 69, 0
3, 191872, Note_off_c, 0, 55, 0
3, 192000, Note_on_c, 0, 74, 100
3, 192000, Note_on_c, 0, 57, 100
3, 192000, Note_on_c, 0, 54, 100
3, 192128, Note_off_c, 0, 54, 0
3, 192256, Note_off_c, 0, 74, 0
3, 192256, Note_off_c, 0, 57, 0
3, 192256, Note_on_c, 0, 50, 100
3, 192384, Note_on_c, 0, 69, 100
3, 192384, Note_on_c, 0, 72, 100
3, 192384, Note_off_c, 0, 50, 0
3, 192512, Note_off_c, 0, 69, 0
3, 192512, Note_off_c, 0, 72, 0
3, 192512, Note_on_c, 0, 69, 100
3, 192512, Note_on_c, 0, 72, 100
3, 192512, Note_on_c, 0, 52, 100
3, 192640, Note_on_c, 0, 67, 100
3, 192640, Note_on_c, 0, 71, 100
3, 192640, Note_off_c, 0, 52, 0
3, 192642, Note_off_c, 0, 69, 0
3, 192642, Note_off_c, 0, 72, 0
3, 192761, Note_off_c, 0, 67, 0
3, 192761, Note_off_c, 0, 71, 0
3, 192768, Note_on_c, 0, 48, 100
3, 192896, Note_on_c, 0, 72, 100
3, 192896, Note_off_c, 0, 48, 0
3, 192934, Note_off_c, 0, 72, 0
3, 193024, Note_on_c, 0, 72, 100
3, 193024, Note_on_c, 0, 50, 100
3, 193152, Note_on_c, 0, 71, 100
3, 193152, Note_off_c, 0, 50, 0
3, 193154, Note_off_c, 0, 72, 0
3, 193273, Note_off_c, 0, 71, 0
3, 193280, Note_on_c, 0, 50, 100
3, 193408, Note_on_c, 0, 60, 100
3, 193408, Note_off_c, 0, 50, 0
3, 193536, Note_off_c, 0, 60, 0
3, 193536, Note_on_c, 0, 55, 100
3, 193536, Note_on_c, 0, 59, 100
3, 193536, Note_on_c, 0, 43, 100
3, 193664, Note_off_c, 0, 55, 0
3, 193664, Note_off_c, 0, 59, 0
3, 193664, Note_on_c, 0, 55, 100
3, 193664, Note_on_c, 0, 59, 100
3, 193792, Note_off_c, 0, 55, 0
3, 193792, Note_off_c, 0, 59, 0
3, 193792, Note_on_c, 0, 57, 100
3, 193792, Note_on_c, 0, 60, 100
3, 193792, Note_off_c, 0, 43, 0
3, 193920, Note_off_c, 0, 57, 0
3, 193920, Note_off_c, 0, 60, 0
3, 193920, Note_on_c, 0, 57, 100
3, 193920, Note_on_c, 0, 60, 100
3, 194048, Note_off_c, 0, 57, 0
3, 194048, Note_off_c, 0, 60, 0
3, 194048, Note_on_c, 0, 59, 100
3, 194048, Note_on_c, 0, 62, 100
3, 194176, Note_off_c, 0, 59, 0
3, 194176, Note_off_c, 0, 62, 0
3, 194176, Note_on_c, 0, 59, 100
3, 194176, Note_on_c, 0, 62, 100
3, 194304, Note_off_c, 0, 59, 0
3, 194304, Note_off_c, 0, 62, 0
3, 194304, Note_on_c, 0, 55, 100
3, 194304, Note_on_c, 0, 59, 100
3, 194432, Note_off_c, 0, 55, 0
3, 194432, Note_off_c, 0, 59, 0
3, 194432, Note_on_c, 0, 55, 100
3, 194432, Note_on_c, 0, 59, 100
3, 194560, Note_off_c, 0, 55, 0
3, 194560, Note_off_c, 0, 59, 0
3, 194560, Note_on_c, 0, 54, 100
3, 194560, Note_on_c, 0, 57, 100
3, 194560, Note_on_c, 0, 50, 100
3, 194688, Note_off_c, 0, 54, 0
3, 194688, Note_off_c, 0, 57, 0
3, 194688, Note_on_c, 0, 54, 100
3, 194688, Note_on_c, 0, 57, 100
3, 194816, Note_off_c, 0, 54, 0
3, 194816, Note_off_c, 0, 57, 0
3, 194816, Note_on_c, 0, 55, 100
3, 194816, Note_on_c, 0, 59, 100
3, 194816, Note_off_c, 0, 50, 0
3, 194944, Note_off_c, 0, 55, 0
3, 194944, Note_off_c, 0, 59, 0
3, 194944, Note_on_c, 0, 55, 100
3, 194944, Note_on_c, 0, 59, 100
3, 195072, Note_off_c, 0, 55, 0
3, 195072, Note_off_c, 0, 59, 0
3, 195072, Note_on_c, 0, 57, 100
3, 195072, Note_on_c, 0, 60, 100
3, 195200, Note_off_c, 0, 57, 0
3, 195200, Note_off_c, 0, 60, 0
3, 195200, Note_on_c, 0, 57, 100
3, 195200, Note_on_c, 0, 60, 100
3, 195328, Note_off_c, 0, 57, 0
3, 195328, Note_off_c, 0, 60, 0
3, 195328, Note_on_c, 0, 54, 100
3, 195328, Note_on_c, 0, 57, 100
3, 195456, Note_off_c, 0, 54, 0
3, 195456, Note_off_c, 0, 57, 0
3, 195456, Note_on_c, 0, 54, 100
3, 195456, Note_on_c, 0, 57, 100
3, 195584, Note_off_c, 0, 54, 0
3, 195584, Note_off_c, 0, 57, 0
3, 195584, Note_on_c, 0, 55, 100
3, 195584, Note_on_c, 0, 59, 100
3, 195584, Note_on_c, 0, 43, 100
3, 195712, Note_off_c, 0, 55, 0
3, 195712, Note_off_c, 0, 59, 0
3, 195712, Note_on_c, 0, 55, 100
3, 195712, Note_on_c, 0, 59, 100
3, 195840, Note_off_c, 0, 55, 0
3, 195840, Note_off_c, 0, 59, 0
3, 195840, Note_on_c, 0, 57, 100
3, 195840, Note_on_c, 0, 60, 100
3, 195840, Note_off_c, 0, 43, 0
3, 195968, Note_off_c, 0, 57, 0
3, 195968, Note_off_c, 0, 60, 0
3, 195968, Note_on_c, 0, 57, 100
3, 195968, Note_on_c, 0, 60, 100
3, 196096, Note_off_c, 0, 57, 0
3, 196096, Note_off_c, 0, 60, 0
3, 196096, Note_on_c, 0, 59, 100
3, 196096, Note_on_c, 0, 62, 100
3, 196224, Note_off_c, 0, 59, 0
3, 196224, Note_off_c, 0, 62, 0
3, 196224, Note_on_c, 0, 59, 100
3, 196224, Note_on_c, 0, 62, 100
3, 196352, Note_off_c, 0, 59, 0
3, 196352, Note_off_c, 0, 62, 0
3, 196352, Note_on_c, 0, 55, 100
3, 196352, Note_on_c, 0, 59, 100
3, 196480, Note_off_c, 0, 55, 0
3, 196480, Note_off_c, 0, 59, 0
3, 196480, Note_on_c, 0, 55, 100
3, 196480, Note_on_c, 0, 59, 100
3, 196608, Note_off_c, 0, 55, 0
3, 196608, Note_off_c, 0, 59, 0
3, 196608, Note_on_c, 0, 54, 100
3, 196608, Note_on_c, 0, 57, 100
3, 196608, Note_on_c, 0, 50, 100
3, 196736, Note_off_c, 0, 54, 0
3, 196736, Note_off_c, 0, 57, 0
3, 196736, Note_on_c, 0, 54, 100
3, 196736, Note_on_c, 0, 57, 100
3, 196864, Note_off_c, 0, 54, 0
3, 196864, Note_off_c, 0, 57, 0
3, 196864, Note_on_c, 0, 55, 100
3, 196864, Note_on_c, 0, 59, 100
3, 196864, Note_off_c, 0, 50, 0
3, 196992, Note_off_c, 0, 55, 0
3, 196992, Note_off_c, 0, 59, 0
3, 196992, Note_on_c, 0, 55, 100
3, 196992, Note_on_c, 0, 59, 100
3, 197120, Note_off_c, 0, 55, 0
3, 197120, Note_off_c, 0, 59, 0
3, 197120, Note_on_c, 0, 57, 100
3, 197120, Note_on_c, 0, 60, 100
3, 197248, Note_off_c, 0, 57, 0
3, 197248, Note_off_c, 0, 60, 0
3, 197248, Note_on_c, 0, 57, 100
3, 197248, Note_on_c, 0, 60, 100
3, 197376, Note_off_c, 0, 57, 0
3, 197376, Note_off_c, 0, 60, 0
3, 197376, Note_on_c, 0, 54, 100
3, 197376, Note_on_c, 0, 57, 100
3, 197504, Note_off_c, 0, 54, 0
3, 197504, Note_off_c, 0, 57, 0
3, 197504, Note_on_c, 0, 54, 100
3, 197504, Note_on_c, 0, 57, 100
3, 197632, Note_off_c, 0, 54, 0
3, 197632, Note_off_c, 0, 57, 0
3, 197632, Note_on_c, 0, 55, 100
3, 197632, Note_on_c, 0, 59, 100
3, 197760, Note_on_c, 0, 43, 100
3, 197760, Note_on_c, 0, 55, 100
3, 197888, Note_off_c, 0, 55, 0
3, 197888, Note_off_c, 0, 59, 0
3, 197888, Note_off_c, 0, 43, 0
3, 197888, Note_off_c, 0, 55, 0
3, 197888, Note_on_c, 0, 47, 100
3, 197888, Note_on_c, 0, 59, 100
3, 198016, Note_off_c, 0, 47, 0
3, 198016, Note_off_c, 0, 59, 0
3, 198016, Note_on_c, 0, 45, 100
3, 198016, Note_on_c, 0, 57, 100
3, 198144, Note_on_c, 0, 64, 100
3, 198144, Note_on_c, 0, 71, 100
3, 198144, Note_off_c, 0, 45, 0
3, 198144, Note_off_c, 0, 57, 0
3, 198144, Note_on_c, 0, 44, 100
3, 198144, Note_on_c, 0, 56, 100
3, 198272, Note_off_c, 0, 44, 0
3, 198272, Note_off_c, 0, 56, 0
3, 198272, Note_on_c, 0, 40, 100
3, 198272, Note_on_c, 0, 52, 100
3, 198400, Note_off_c, 0, 40, 0
3, 198400, Note_off_c, 0, 52, 0
3, 198400, Note_on_c, 0, 42, 100
3, 198400, Note_on_c, 0, 54, 100
3, 198528, Note_off_c, 0, 42, 0
3, 198528, Note_off_c, 0, 54, 0
3, 198528, Note_on_c, 0, 44, 100
3, 198528, Note_on_c, 0, 56, 100
3, 198656, Note_on_c, 0, 69, 100
3, 198656, Note_off_c, 0, 44, 0
3, 198656, Note_off_c, 0, 56, 0
3, 198656, Note_on_c, 0, 45, 100
3, 198656, Note_on_c, 0, 57, 100
3, 198666, Note_off_c, 0, 64, 0
3, 198666, Note_off_c, 0, 71, 0
3, 198784, Note_off_c, 0, 45, 0
3, 198784, Note_off_c, 0, 57, 0
3, 198784, Note_on_c, 0, 48, 100
3, 198784, Note_on_c, 0, 60, 100
3, 198899, Note_off_c, 0, 69, 0
3, 198912, Note_off_c, 0, 48, 0
3, 198912, Note_off_c, 0, 60, 0
3, 198912, Note_on_c, 0, 45, 100
3, 198912, Note_on_c, 0, 57, 100
3, 199040, Note_off_c, 0, 45, 0
3, 199040, Note_off_c, 0, 57, 0
3, 199040, Note_on_c, 0, 43, 100
3, 199040, Note_on_c, 0, 55, 100
3, 199168, Note_on_c, 0, 62, 100
3, 199168, Note_on_c, 0, 69, 100
3, 199168, Note_off_c, 0, 43, 0
3, 199168, Note_off_c, 0, 55, 0
3, 199168, Note_on_c, 0, 42, 100
3, 199168, Note_on_c, 0, 54, 100
3, 199296, Note_off_c, 0, 42, 0
3, 199296, Note_off_c, 0, 54, 0
3, 199296, Note_on_c, 0, 38, 100
3, 199296, Note_on_c, 0, 50, 100
3, 199424, Note_off_c, 0, 38, 0
3, 199424, Note_off_c, 0, 50, 0
3, 199424, Note_on_c, 0, 40, 100
3, 199424, Note_on_c, 0, 52, 100
3, 199552, Note_off_c, 0, 40, 0
3, 199552, Note_off_c, 0, 52, 0
3, 199552, Note_on_c, 0, 42, 100
3, 199552, Note_on_c, 0, 54, 100
3, 199680, Note_on_c, 0, 67, 100
3, 199680, Note_off_c, 0, 42, 0
3, 199680, Note_off_c, 0, 54, 0
3, 199680, Note_on_c, 0, 43, 100
3, 199680, Note_on_c, 0, 55, 100
3, 199690, Note_off_c, 0, 62, 0
3, 199690, Note_off_c, 0, 69, 0
3, 199744, Note_off_c, 0, 43, 0
3, 199744, Note_off_c, 0, 55, 0
3, 199801, Note_off_c, 0, 67, 0
3, 199808, Note_on_c, 0, 67, 100
3, 199808, Note_on_c, 0, 71, 100
3, 199808, Note_on_c, 0, 55, 100
3, 199872, Note_off_c, 0, 67, 0
3, 199872, Note_off_c, 0, 71, 0
3, 199872, Note_off_c, 0, 55, 0
3, 199936, Note_on_c, 0, 67, 100
3, 199936, Note_on_c, 0, 72, 100
3, 199936, Note_on_c, 0, 57, 100
3, 200000, Note_off_c, 0, 67, 0
3, 200000, Note_off_c, 0, 72, 0
3, 200000, Note_off_c, 0, 57, 0
3, 200064, Note_on_c, 0, 67, 100
3, 200064, Note_on_c, 0, 74, 100
3, 200064, Note_on_c, 0, 59, 100
3, 200128, Note_off_c, 0, 67, 0
3, 200128, Note_off_c, 0, 74, 0
3, 200128, Note_off_c, 0, 59, 0
3, 200192, Note_on_c, 0, 72, 100
3, 200192, Note_on_c, 0, 67, 100
3, 200192, Note_on_c, 0, 60, 100
3, 200320, Note_off_c, 0, 67, 0
3, 200320, Note_on_c, 0, 74, 100
3, 200320, Note_on_c, 0, 67, 100
3, 200320, Note_off_c, 0, 60, 0
3, 200320, Note_on_c, 0, 60, 100
3, 200322, Note_off_c, 0, 72, 0
3, 200384, Note_on_c, 0, 76, 100
3, 200385, Note_off_c, 0, 74, 0
3, 200448, Note_off_c, 0, 67, 0
3, 200448, Note_on_c, 0, 74, 100
3, 200448, Note_on_c, 0, 67, 100
3, 200448, Note_off_c, 0, 60, 0
3, 200448, Note_on_c, 0, 60, 100
3, 200449, Note_off_c, 0, 76, 0
3, 200569, Note_off_c, 0, 74, 0
3, 200569, Note_off_c, 0, 67, 0
3, 200576, Note_on_c, 0, 72, 100
3, 200576, Note_on_c, 0, 67, 100
3, 200576, Note_off_c, 0, 60, 0
3, 200576, Note_on_c, 0, 60, 100
3, 200614, Note_off_c, 0, 72, 0
3, 200704, Note_off_c, 0, 67, 0
3, 200704, Note_on_c, 0, 67, 100
3, 200704, Note_on_c, 0, 72, 100
3, 200704, Note_off_c, 0, 60, 0
3, 200704, Note_on_c, 0, 62, 100
3, 200832, Note_on_c, 0, 62, 100
3, 200832, Note_on_c, 0, 71, 100
3, 200832, Note_off_c, 0, 62, 0
3, 200832, Note_on_c, 0, 62, 100
3, 200834, Note_off_c, 0, 67, 0
3, 200834, Note_off_c, 0, 72, 0
3, 200953, Note_off_c, 0, 62, 0
3, 200953, Note_off_c, 0, 71, 0
3, 200960, Note_on_c, 0, 62, 100
3, 200960, Note_on_c, 0, 67, 100
3, 200960, Note_off_c, 0, 62, 0
3, 200960, Note_on_c, 0, 62, 100
3, 201088, Note_off_c, 0, 62, 0
3, 201088, Note_off_c, 0, 67, 0
3, 201088, Note_on_c, 0, 62, 100
3, 201088, Note_on_c, 0, 71, 100
3, 201088, Note_off_c, 0, 62, 0
3, 201088, Note_on_c, 0, 62, 100
3, 201216, Note_off_c, 0, 62, 0
3, 201216, Note_off_c, 0, 71, 0
3, 201216, Note_on_c, 0, 62, 100
3, 201216, Note_on_c, 0, 71, 100
3, 201216, Note_off_c, 0, 62, 0
3, 201216, Note_on_c, 0, 50, 100
3, 201344, Note_off_c, 0, 62, 0
3, 201344, Note_on_c, 0, 62, 100
3, 201344, Note_on_c, 0, 69, 100
3, 201344, Note_off_c, 0, 50, 0
3, 201344, Note_on_c, 0, 50, 100
3, 201346, Note_off_c, 0, 71, 0
3, 201465, Note_off_c, 0, 62, 0
3, 201465, Note_off_c, 0, 69, 0
3, 201472, Note_on_c, 0, 62, 100
3, 201472, Note_on_c, 0, 67, 100
3, 201472, Note_off_c, 0, 50, 0
3, 201472, Note_on_c, 0, 50, 100
3, 201600, Note_off_c, 0, 62, 0
3, 201600, Note_off_c, 0, 67, 0
3, 201600, Note_on_c, 0, 60, 100
3, 201600, Note_on_c, 0, 66, 100
3, 201600, Note_off_c, 0, 50, 0
3, 201600, Note_on_c, 0, 50, 100
3, 201728, Note_off_c, 0, 60, 0
3, 201728, Note_off_c, 0, 66, 0
3, 201728, Note_on_c, 0, 59, 100
3, 201728, Note_on_c, 0, 67, 100
3, 201728, Note_off_c, 0, 50, 0
3, 201728, Note_on_c, 0, 55, 100
3, 201856, Note_off_c, 0, 59, 0
3, 201856, Note_off_c, 0, 67, 0
3, 201856, Note_on_c, 0, 55, 100
3, 201856, Note_on_c, 0, 59, 100
3, 201984, Note_off_c, 0, 55, 0
3, 201984, Note_off_c, 0, 59, 0
3, 201984, Note_on_c, 0, 57, 100
3, 201984, Note_on_c, 0, 60, 100
3, 201984, Note_off_c, 0, 55, 0
3, 202112, Note_off_c, 0, 57, 0
3, 202112, Note_off_c, 0, 60, 0
3, 202112, Note_on_c, 0, 57, 100
3, 202112, Note_on_c, 0, 60, 100
3, 202240, Note_off_c, 0, 57, 0
3, 202240, Note_off_c, 0, 60, 0
3, 202240, Note_on_c, 0, 59, 100
3, 202240, Note_on_c, 0, 62, 100
3, 202368, Note_off_c, 0, 59, 0
3, 202368, Note_off_c, 0, 62, 0
3, 202368, Note_on_c, 0, 59, 100
3, 202368, Note_on_c, 0, 62, 100
3, 202496, Note_off_c, 0, 59, 0
3, 202496, Note_off_c, 0, 62, 0
3, 202496, Note_on_c, 0, 55, 100
3, 202496, Note_on_c, 0, 59, 100
3, 202624, Note_off_c, 0, 55, 0
3, 202624, Note_off_c, 0, 59, 0
3, 202624, Note_on_c, 0, 55, 100
3, 202624, Note_on_c, 0, 59, 100
3, 202752, Note_off_c, 0, 55, 0
3, 202752, Note_off_c, 0, 59, 0
3, 202752, Note_on_c, 0, 54, 100
3, 202752, Note_on_c, 0, 57, 100
3, 202752, Note_on_c, 0, 50, 100
3, 202880, Note_off_c, 0, 54, 0
3, 202880, Note_off_c, 0, 57, 0
3, 202880, Note_on_c, 0, 54, 100
3, 202880, Note_on_c, 0, 57, 100
3, 203008, Note_off_c, 0, 54, 0
3, 203008, Note_off_c, 0, 57, 0
3, 203008, Note_on_c, 0, 55, 100
3, 203008, Note_on_c, 0, 59, 100
3, 203008, Note_off_c, 0, 50, 0
3, 203136, Note_off_c, 0, 55, 0
3, 203136, Note_off_c, 0, 59, 0
3, 203136, Note_on_c, 0, 55, 100
3, 203136, Note_on_c, 0, 59, 100
3, 203264, Note_off_c, 0, 55, 0
3, 203264, Note_off_c, 0, 59, 0
3, 203264, Note_on_c, 0, 57, 100
3, 203264, Note_on_c, 0, 60, 100
3, 203392, Note_off_c, 0, 57, 0
3, 203392, Note_off_c, 0, 60, 0
3, 203392, Note_on_c, 0, 57, 100
3, 203392, Note_on_c, 0, 60, 100
3, 203520, Note_off_c, 0, 57, 0
3, 203520, Note_off_c, 0, 60, 0
3, 203520, Note_on_c, 0, 54, 100
3, 203520, Note_on_c, 0, 57, 100
3, 203648, Note_off_c, 0, 54, 0
3, 203648, Note_off_c, 0, 57, 0
3, 203648, Note_on_c, 0, 54, 100
3, 203648, Note_on_c, 0, 57, 100
3, 203776, Note_off_c, 0, 54, 0
3, 203776, Note_off_c, 0, 57, 0
3, 203776, Note_on_c, 0, 55, 100
3, 203776, Note_on_c, 0, 59, 100
3, 203776, Note_on_c, 0, 55, 100
3, 203904, Note_off_c, 0, 55, 0
3, 203904, Note_off_c, 0, 59, 0
3, 203904, Note_on_c, 0, 67, 100
3, 203904, Note_on_c, 0, 71, 100
3, 204032, Note_off_c, 0, 67, 0
3, 204032, Note_off_c, 0, 71, 0
3, 204032, Note_on_c, 0, 69, 100
3, 204032, Note_on_c, 0, 72, 100
3, 204032, Note_off_c, 0, 55, 0
3, 204160, Note_off_c, 0, 69, 0
3, 204160, Note_off_c, 0, 72, 0
3, 204160, Note_on_c, 0, 69, 100
3, 204160, Note_on_c, 0, 72, 100
3, 204288, Note_off_c, 0, 69, 0
3, 204288, Note_off_c, 0, 72, 0
3, 204288, Note_on_c, 0, 71, 100
3, 204288, Note_on_c, 0, 74, 100
3, 204416, Note_off_c, 0, 71, 0
3, 204416, Note_off_c, 0, 74, 0
3, 204416, Note_on_c, 0, 71, 100
3, 204416, Note_on_c, 0, 74, 100
3, 204544, Note_off_c, 0, 71, 0
3, 204544, Note_off_c, 0, 74, 0
3, 204544, Note_on_c, 0, 67, 100
3, 204544, Note_on_c, 0, 71, 100
3, 204672, Note_off_c, 0, 67, 0
3, 204672, Note_off_c, 0, 71, 0
3, 204672, Note_on_c, 0, 67, 100
3, 204672, Note_on_c, 0, 71, 100
3, 204800, Note_off_c, 0, 67, 0
3, 204800, Note_off_c, 0, 71, 0
3, 204800, Note_on_c, 0, 66, 100
3, 204800, Note_on_c, 0, 69, 100
3, 204800, Note_on_c, 0, 50, 100
3, 204928, Note_off_c, 0, 66, 0
3, 204928, Note_off_c, 0, 69, 0
3, 204928, Note_on_c, 0, 66, 100
3, 204928, Note_on_c, 0, 69, 100
3, 205056, Note_off_c, 0, 66, 0
3, 205056, Note_off_c, 0, 69, 0
3, 205056, Note_on_c, 0, 67, 100
3, 205056, Note_on_c, 0, 71, 100
3, 205056, Note_off_c, 0, 50, 0
3, 205184, Note_off_c, 0, 67, 0
3, 205184, Note_off_c, 0, 71, 0
3, 205184, Note_on_c, 0, 67, 100
3, 205184, Note_on_c, 0, 71, 100
3, 205312, Note_off_c, 0, 67, 0
3, 205312, Note_off_c, 0, 71, 0
3, 205312, Note_on_c, 0, 69, 100
3, 205312, Note_on_c, 0, 72, 100
3, 205440, Note_off_c, 0, 69, 0
3, 205440, Note_off_c, 0, 72, 0
3, 205440, Note_on_c, 0, 69, 100
3, 205440, Note_on_c, 0, 72, 100
3, 205568, Note_off_c, 0, 69, 0
3, 205568, Note_off_c, 0, 72, 0
3, 205568, Note_on_c, 0, 66, 100
3, 205568, Note_on_c, 0, 69, 100
3, 205696, Note_off_c, 0, 66, 0
3, 205696, Note_off_c, 0, 69, 0
3, 205696, Note_on_c, 0, 66, 100
3, 205696, Note_on_c, 0, 69, 100
3, 205824, Note_off_c, 0, 66, 0
3, 205824, Note_off_c, 0, 69, 0
3, 205824, Note_on_c, 0, 67, 100
3, 205824, Note_on_c, 0, 71, 100
3, 205952, Note_on_c, 0, 43, 100
3, 205952, Note_on_c, 0, 55, 100
3, 206080, Note_off_c, 0, 67, 0
3, 206080, Note_off_c, 0, 71, 0
3, 206080, Note_off_c, 0, 43, 0
3, 206080, Note_off_c, 0, 55, 0
3, 206080, Note_on_c, 0, 47, 100
3, 206080, Note_on_c, 0, 59, 100
3, 206208, Note_off_c, 0, 47, 0
3, 206208, Note_off_c, 0, 59, 0
3, 206208, Note_on_c, 0, 45, 100
3, 206208, Note_on_c, 0, 57, 100
3, 206336, Note_on_c, 0, 71, 100
3, 206336, Note_on_c, 0, 83, 100
3, 206336, Note_off_c, 0, 45, 0
3, 206336, Note_off_c, 0, 57, 0
3, 206336, Note_on_c, 0, 44, 100
3, 206336, Note_on_c, 0, 56, 100
3, 206464, Note_off_c, 0, 44, 0
3, 206464, Note_off_c, 0, 56, 0
3, 206464, Note_on_c, 0, 40, 100
3, 206464, Note_on_c, 0, 52, 100
3, 206592, Note_off_c, 0, 40, 0
3, 206592, Note_off_c, 0, 52, 0
3, 206592, Note_on_c, 0, 42, 100
3, 206592, Note_on_c, 0, 54, 100
3, 206720, Note_off_c, 0, 42, 0
3, 206720, Note_off_c, 0, 54, 0
3, 206720, Note_on_c, 0, 44, 100
3, 206720, Note_on_c, 0, 56, 100
3, 206848, Note_on_c, 0, 72, 100
3, 206848, Note_on_c, 0, 81, 100
3, 206848, Note_off_c, 0, 44, 0
3, 206848, Note_off_c, 0, 56, 0
3, 206848, Note_on_c, 0, 45, 100
3, 206848, Note_on_c, 0, 57, 100
3, 206858, Note_off_c, 0, 71, 0
3, 206858, Note_off_c, 0, 83, 0
3, 206976, Note_off_c, 0, 45, 0
3, 206976, Note_off_c, 0, 57, 0
3, 206976, Note_on_c, 0, 48, 100
3, 206976, Note_on_c, 0, 60, 100
3, 207091, Note_off_c, 0, 72, 0
3, 207091, Note_off_c, 0, 81, 0
3, 207104, Note_off_c, 0, 48, 0
3, 207104, Note_off_c, 0, 60, 0
3, 207104, Note_on_c, 0, 45, 100
3, 207104, Note_on_c, 0, 57, 100
3, 207232, Note_off_c, 0, 45, 0
3, 207232, Note_off_c, 0, 57, 0
3, 207232, Note_on_c, 0, 43, 100
3, 207232, Note_on_c, 0, 55, 100
3, 207360, Note_on_c, 0, 69, 100
3, 207360, Note_on_c, 0, 81, 100
3, 207360, Note_off_c, 0, 43, 0
3, 207360, Note_off_c, 0, 55, 0
3, 207360, Note_on_c, 0, 42, 100
3, 207360, Note_on_c, 0, 54, 100
3, 207488, Note_off_c, 0, 42, 0
3, 207488, Note_off_c, 0, 54, 0
3, 207488, Note_on_c, 0, 38, 100
3, 207488, Note_on_c, 0, 50, 100
3, 207616, Note_off_c, 0, 38, 0
3, 207616, Note_off_c, 0, 50, 0
3, 207616, Note_on_c, 0, 40, 100
3, 207616, Note_on_c, 0, 52, 100
3, 207744, Note_off_c, 0, 40, 0
3, 207744, Note_off_c, 0, 52, 0
3, 207744, Note_on_c, 0, 42, 100
3, 207744, Note_on_c, 0, 54, 100
3, 207872, Note_on_c, 0, 71, 100
3, 207872, Note_on_c, 0, 79, 100
3, 207872, Note_off_c, 0, 42, 0
3, 207872, Note_off_c, 0, 54, 0
3, 207872, Note_on_c, 0, 55, 100
3, 207882, Note_off_c, 0, 69, 0
3, 207882, Note_off_c, 0, 81, 0
3, 207993, Note_off_c, 0, 71, 0
3, 207993, Note_off_c, 0, 79, 0
3, 208000, Note_on_c, 0, 67, 100
3, 208000, Note_on_c, 0, 71, 100
3, 208000, Note_off_c, 0, 55, 0
3, 208000, Note_on_c, 0, 55, 100
3, 208064, Note_off_c, 0, 67, 0
3, 208064, Note_off_c, 0, 71, 0
3, 208064, Note_off_c, 0, 55, 0
3, 208128, Note_on_c, 0, 67, 100
3, 208128, Note_on_c, 0, 72, 100
3, 208128, Note_on_c, 0, 57, 100
3, 208192, Note_off_c, 0, 67, 0
3, 208192, Note_off_c, 0, 72, 0
3, 208192, Note_off_c, 0, 57, 0
3, 208256, Note_on_c, 0, 67, 100
3, 208256, Note_on_c, 0, 74, 100
3, 208256, Note_on_c, 0, 59, 100
3, 208320, Note_off_c, 0, 67, 0
3, 208320, Note_off_c, 0, 74, 0
3, 208320, Note_off_c, 0, 59, 0
3, 208384, Note_on_c, 0, 72, 100
3, 208384, Note_on_c, 0, 67, 100
3, 208384, Note_on_c, 0, 60, 100
3, 208512, Note_off_c, 0, 67, 0
3, 208512, Note_on_c, 0, 74, 100
3, 208512, Note_on_c, 0, 67, 100
3, 208512, Note_off_c, 0, 60, 0
3, 208512, Note_on_c, 0, 60, 100
3, 208514, Note_off_c, 0, 72, 0
3, 208576, Note_on_c, 0, 76, 100
3, 208577, Note_off_c, 0, 74, 0
3, 208640, Note_off_c, 0, 67, 0
3, 208640, Note_on_c, 0, 74, 100
3, 208640, Note_on_c, 0, 67, 100
3, 208640, Note_off_c, 0, 60, 0
3, 208640, Note_on_c, 0, 60, 100
3, 208641, Note_off_c, 0, 76, 0
3, 208761, Note_off_c, 0, 74, 0
3, 208761, Note_off_c, 0, 67, 0
3, 208768, Note_on_c, 0, 72, 100
3, 208768, Note_on_c, 0, 67, 100
3, 208768, Note_off_c, 0, 60, 0
3, 208768, Note_on_c, 0, 60, 100
3, 208806, Note_off_c, 0, 72, 0
3, 208896, Note_off_c, 0, 67, 0
3, 208896, Note_on_c, 0, 67, 100
3, 208896, Note_on_c, 0, 71, 100
3, 208896, Note_off_c, 0, 60, 0
3, 208896, Note_on_c, 0, 62, 100
3, 208960, Note_off_c, 0, 67, 0
3, 208960, Note_off_c, 0, 71, 0
3, 209024, Note_on_c, 0, 71, 100
3, 209024, Note_on_c, 0, 74, 100
3, 209024, Note_off_c, 0, 62, 0
3, 209024, Note_on_c, 0, 62, 100
3, 209088, Note_off_c, 0, 71, 0
3, 209088, Note_off_c, 0, 74, 0
3, 209152, Note_on_c, 0, 74, 100
3, 209152, Note_on_c, 0, 79, 100
3, 209152, Note_off_c, 0, 62, 0
3, 209152, Note_on_c, 0, 62, 100
3, 209216, Note_off_c, 0, 74, 0
3, 209216, Note_off_c, 0, 79, 0
3, 209280, Note_on_c, 0, 74, 100
3, 209280, Note_on_c, 0, 83, 100
3, 209280, Note_off_c, 0, 62, 0
3, 209280, Note_on_c, 0, 62, 100
3, 209344, Note_off_c, 0, 74, 0
3, 209344, Note_off_c, 0, 83, 0
3, 209408, Note_on_c, 0, 74, 100
3, 209408, Note_on_c, 0, 83, 100
3, 209408, Note_off_c, 0, 62, 0
3, 209408, Note_on_c, 0, 50, 100
3, 209536, Note_off_c, 0, 74, 0
3, 209536, Note_on_c, 0, 74, 100
3, 209536, Note_on_c, 0, 81, 100
3, 209536, Note_off_c, 0, 50, 0
3, 209536, Note_on_c, 0, 50, 100
3, 209538, Note_off_c, 0, 83, 0
3, 209657, Note_off_c, 0, 74, 0
3, 209657, Note_off_c, 0, 81, 0
3, 209664, Note_on_c, 0, 74, 100
3, 209664, Note_on_c, 0, 79, 100
3, 209664, Note_off_c, 0, 50, 0
3, 209664, Note_on_c, 0, 50, 100
3, 209792, Note_off_c, 0, 74, 0
3, 209792, Note_off_c, 0, 79, 0
3, 209792, Note_on_c, 0, 72, 100
3, 209792, Note_on_c, 0, 78, 100
3, 209792, Note_off_c, 0, 50, 0
3, 209792, Note_on_c, 0, 50, 100
3, 209920, Note_off_c, 0, 72, 0
3, 209920, Note_off_c, 0, 78, 0
3, 209920, Note_on_c, 0, 71, 100
3, 209920, Note_on_c, 0, 79, 100
3, 209920, Note_off_c, 0, 50, 0
3, 209920, Note_on_c, 0, 55, 100
3, 210048, Note_off_c, 0, 71, 0
3, 210048, Note_off_c, 0, 79, 0
3, 210048, Note_on_c, 0, 62, 100
3, 210048, Note_off_c, 0, 55, 0
3, 210048, Note_on_c, 0, 50, 100
3, 210176, Note_off_c, 0, 62, 0
3, 210176, Note_on_c, 0, 64, 100
3, 210176, Note_off_c, 0, 50, 0
3, 210176, Note_on_c, 0, 52, 100
3, 210304, Note_off_c, 0, 64, 0
3, 210304, Note_on_c, 0, 66, 100
3, 210304, Note_off_c, 0, 52, 0
3, 210304, Note_on_c, 0, 54, 100
3, 210432, Note_off_c, 0, 66, 0
3, 210432, Note_on_c, 0, 67, 100
3, 210432, Note_off_c, 0, 54, 0
3, 210432, Note_on_c, 0, 55, 100
3, 210560, Note_off_c, 0, 67, 0
3, 210560, Note_on_c, 0, 67, 100
3, 210560, Note_off_c, 0, 55, 0
3, 210560, Note_on_c, 0, 55, 100
3, 210688, Note_off_c, 0, 67, 0
3, 210688, Note_on_c, 0, 69, 100
3, 210688, Note_off_c, 0, 55, 0
3, 210688, Note_on_c, 0, 57, 100
3, 210713, Note_off_c, 0, 69, 0
3, 210720, Note_on_c, 0, 71, 100
3, 210745, Note_off_c, 0, 71, 0
3, 210752, Note_on_c, 0, 69, 100
3, 210777, Note_off_c, 0, 69, 0
3, 210784, Note_on_c, 0, 71, 100
3, 210809, Note_off_c, 0, 71, 0
3, 210816, Note_on_c, 0, 69, 100
3, 210816, Note_on_c, 0, 67, 100
3, 210816, Note_off_c, 0, 57, 0
3, 210816, Note_on_c, 0, 57, 100
3, 210817, Note_off_c, 0, 69, 0
3, 210880, Note_on_c, 0, 69, 100
3, 210881, Note_off_c, 0, 67, 0
3, 210944, Note_on_c, 0, 71, 100
3, 210944, Note_off_c, 0, 57, 0
3, 210944, Note_on_c, 0, 59, 100
3, 210945, Note_off_c, 0, 69, 0
3, 211065, Note_off_c, 0, 71, 0
3, 211072, Note_on_c, 0, 66, 100
3, 211072, Note_off_c, 0, 59, 0
3, 211072, Note_on_c, 0, 54, 100
3, 211200, Note_off_c, 0, 66, 0
3, 211200, Note_on_c, 0, 67, 100
3, 211200, Note_off_c, 0, 54, 0
3, 211200, Note_on_c, 0, 55, 100
3, 211328, Note_off_c, 0, 67, 0
3, 211328, Note_on_c, 0, 69, 100
3, 211328, Note_off_c, 0, 55, 0
3, 211328, Note_on_c, 0, 57, 100
3, 211456, Note_off_c, 0, 69, 0
3, 211456, Note_on_c, 0, 71, 100
3, 211456, Note_off_c, 0, 57, 0
3, 211456, Note_on_c, 0, 59, 100
3, 211584, Note_off_c, 0, 71, 0
3, 211584, Note_on_c, 0, 71, 100
3, 211584, Note_off_c, 0, 59, 0
3, 211584, Note_on_c, 0, 59, 100
3, 211712, Note_off_c, 0, 71, 0
3, 211712, Note_on_c, 0, 72, 100
3, 211712, Note_off_c, 0, 59, 0
3, 211712, Note_on_c, 0, 60, 100
3, 211737, Note_off_c, 0, 72, 0
3, 211744, Note_on_c, 0, 74, 100
3, 211769, Note_off_c, 0, 74, 0
3, 211776, Note_on_c, 0, 72, 100
3, 211801, Note_off_c, 0, 72, 0
3, 211808, Note_on_c, 0, 74, 100
3, 211833, Note_off_c, 0, 74, 0
3, 211840, Note_on_c, 0, 72, 100
3, 211840, Note_on_c, 0, 71, 100
3, 211840, Note_off_c, 0, 60, 0
3, 211840, Note_on_c, 0, 60, 100
3, 211841, Note_off_c, 0, 72, 0
3, 211904, Note_on_c, 0, 72, 100
3, 211905, Note_off_c, 0, 71, 0
3, 211968, Note_on_c, 0, 74, 100
3, 211968, Note_off_c, 0, 60, 0
3, 211968, Note_on_c, 0, 62, 100
3, 211969, Note_off_c, 0, 72, 0
3, 212089, Note_off_c, 0, 74, 0
3, 212096, Note_on_c, 0, 74, 100
3, 212096, Note_off_c, 0, 62, 0
3, 212096, Note_on_c, 0, 62, 100
3, 212224, Note_off_c, 0, 74, 0
3, 212224, Note_on_c, 0, 75, 100
3, 212224, Note_off_c, 0, 62, 0
3, 212224, Note_on_c, 0, 63, 100
3, 212249, Note_off_c, 0, 75, 0
3, 212256, Note_on_c, 0, 76, 100
3, 212281, Note_off_c, 0, 76, 0
3, 212288, Note_on_c, 0, 75, 100
3, 212313, Note_off_c, 0, 75, 0
3, 212320, Note_on_c, 0, 76, 100
3, 212345, Note_off_c, 0, 76, 0
3, 212352, Note_on_c, 0, 75, 100
3, 212352, Note_on_c, 0, 73, 100
3, 212352, Note_off_c, 0, 63, 0
3, 212352, Note_on_c, 0, 63, 100
3, 212353, Note_off_c, 0, 75, 0
3, 212416, Note_on_c, 0, 75, 100
3, 212417, Note_off_c, 0, 73, 0
3, 212480, Note_on_c, 0, 76, 100
3, 212480, Note_off_c, 0, 63, 0
3, 212480, Note_on_c, 0, 64, 100
3, 212481, Note_off_c, 0, 75, 0
3, 212723, Note_off_c, 0, 76, 0
3, 212736, Note_off_c, 0, 64, 0
3, 212992, Note_on_c, 0, 60, 100
3, 212992, Note_on_c, 0, 57, 100
3, 212992, Note_on_c, 0, 48, 100
3, 213504, Note_on_c, 0, 50, 100
3, 213514, Note_off_c, 0, 48, 0
3, 213760, Note_on_c, 0, 55, 100
3, 213775, Note_off_c, 0, 57, 0
3, 213888, Note_on_c, 0, 54, 100
3, 213890, Note_off_c, 0, 55, 0
3, 213990, Note_off_c, 0, 50, 0
3, 214016, Note_on_c, 0, 55, 100
3, 214016, Note_on_c, 0, 59, 100
3, 214016, Note_on_c, 0, 43, 100
3, 214018, Note_off_c, 0, 54, 0
3, 214036, Note_off_c, 0, 60, 0
3, 214259, Note_off_c, 0, 55, 0
3, 214259, Note_off_c, 0, 59, 0
3, 214272, Note_off_c, 0, 43, 0
3, 215040, Note_on_c, 0, 60, 100
3, 215040, Note_on_c, 0, 57, 100
3, 215040, Note_on_c, 0, 48, 100
3, 215552, Note_on_c, 0, 50, 100
3, 215562, Note_off_c, 0, 48, 0
3, 215808, Note_on_c, 0, 55, 100
3, 215823, Note_off_c, 0, 57, 0
3, 215936, Note_on_c, 0, 54, 100
3, 215938, Note_off_c, 0, 55, 0
3, 216038, Note_off_c, 0, 50, 0
3, 216057, Note_off_c, 0, 54, 0
3, 216064, Note_on_c, 0, 55, 100
3, 216064, Note_on_c, 0, 59, 100
3, 216064, Note_on_c, 0, 43, 100
3, 216084, Note_off_c, 0, 60, 0
3, 216307, Note_off_c, 0, 55, 0
3, 216307, Note_off_c, 0, 59, 0
3, 216320, Note_off_c, 0, 43, 0
3, 216576, Note_on_c, 0, 67, 100
3, 216832, Note_off_c, 0, 67, 0
3, 217088, Note_on_c, 0, 64, 100
3, 217088, Note_on_c, 0, 76, 100
3, 217088, Note_on_c, 0, 48, 100
3, 217344, Note_off_c, 0, 64, 0
3, 217344, Note_off_c, 0, 76, 0
3, 217344, Note_off_c, 0, 48, 0
3, 217600, Note_on_c, 0, 69, 100
3, 217600, Note_on_c, 0, 72, 100
3, 217600, Note_on_c, 0, 78, 100
3, 217600, Note_on_c, 0, 50, 100
3, 217600, Note_on_c, 0, 62, 100
3, 217856, Note_off_c, 0, 69, 0
3, 217856, Note_off_c, 0, 72, 0
3, 217856, Note_off_c, 0, 78, 0
3, 217856, Note_off_c, 0, 50, 0
3, 217856, Note_off_c, 0, 62, 0
3, 218112, Note_on_c, 0, 62, 100
3, 218112, Note_on_c, 0, 43, 100
3, 218176, Note_off_c, 0, 62, 0
3, 218176, Note_on_c, 0, 59, 100
3, 218240, Note_off_c, 0, 59, 0
3, 218240, Note_on_c, 0, 55, 100
3, 218240, Note_off_c, 0, 43, 0
3, 218240, Note_on_c, 0, 43, 100
3, 218304, Note_off_c, 0, 55, 0
3, 218304, Note_on_c, 0, 59, 100
3, 218368, Note_off_c, 0, 59, 0
3, 218368, Note_on_c, 0, 62, 100
3, 218368, Note_off_c, 0, 43, 0
3, 218368, Note_on_c, 0, 43, 100
3, 218432, Note_off_c, 0, 62, 0
3, 218432, Note_on_c, 0, 59, 100
3, 218496, Note_off_c, 0, 59, 0
3, 218496, Note_on_c, 0, 55, 100
3, 218496, Note_off_c, 0, 43, 0
3, 218496, Note_on_c, 0, 43, 100
3, 218560, Note_off_c, 0, 55, 0
3, 218560, Note_on_c, 0, 59, 100
3, 218624, Note_off_c, 0, 59, 0
3, 218624, Note_on_c, 0, 62, 100
3, 218624, Note_off_c, 0, 43, 0
3, 218624, Note_on_c, 0, 43, 100
3, 218688, Note_off_c, 0, 62, 0
3, 218688, Note_on_c, 0, 59, 100
3, 218752, Note_off_c, 0, 59, 0
3, 218752, Note_on_c, 0, 55, 100
3, 218752, Note_off_c, 0, 43, 0
3, 218752, Note_on_c, 0, 43, 100
3, 218816, Note_off_c, 0, 55, 0
3, 218816, Note_on_c, 0, 59, 100
3, 218880, Note_off_c, 0, 59, 0
3, 218880, Note_on_c, 0, 62, 100
3, 218880, Note_off_c, 0, 43, 0
3, 218880, Note_on_c, 0, 43, 100
3, 218944, Note_off_c, 0, 62, 0
3, 218944, Note_on_c, 0, 59, 100
3, 219008, Note_off_c, 0, 59, 0
3, 219008, Note_on_c, 0, 55, 100
3, 219008, Note_off_c, 0, 43, 0
3, 219008, Note_on_c, 0, 43, 100
3, 219072, Note_off_c, 0, 55, 0
3, 219072, Note_on_c, 0, 59, 100
3, 219136, Note_off_c, 0, 59, 0
3, 219136, Note_on_c, 0, 62, 100
3, 219136, Note_off_c, 0, 43, 0
3, 219136, Note_on_c, 0, 43, 100
3, 219200, Note_off_c, 0, 62, 0
3, 219200, Note_on_c, 0, 59, 100
3, 219264, Note_off_c, 0, 59, 0
3, 219264, Note_on_c, 0, 55, 100
3, 219264, Note_off_c, 0, 43, 0
3, 219264, Note_on_c, 0, 43, 100
3, 219328, Note_off_c, 0, 55, 0
3, 219328, Note_on_c, 0, 59, 100
3, 219392, Note_off_c, 0, 59, 0
3, 219392, Note_on_c, 0, 62, 100
3, 219392, Note_off_c, 0, 43, 0
3, 219392, Note_on_c, 0, 43, 100
3, 219456, Note_off_c, 0, 62, 0
3, 219456, Note_on_c, 0, 59, 100
3, 219520, Note_off_c, 0, 59, 0
3, 219520, Note_on_c, 0, 55, 100
3, 219520, Note_off_c, 0, 43, 0
3, 219520, Note_on_c, 0, 43, 100
3, 219584, Note_off_c, 0, 55, 0
3, 219584, Note_on_c, 0, 59, 100
3, 219648, Note_off_c, 0, 59, 0
3, 219648, Note_on_c, 0, 62, 100
3, 219648, Note_off_c, 0, 43, 0
3, 219648, Note_on_c, 0, 43, 100
3, 219712, Note_off_c, 0, 62, 0
3, 219712, Note_on_c, 0, 59, 100
3, 219776, Note_off_c, 0, 59, 0
3, 219776, Note_on_c, 0, 55, 100
3, 219776, Note_off_c, 0, 43, 0
3, 219776, Note_on_c, 0, 43, 100
3, 219840, Note_off_c, 0, 55, 0
3, 219840, Note_on_c, 0, 59, 100
3, 219904, Note_off_c, 0, 59, 0
3, 219904, Note_on_c, 0, 62, 100
3, 219904, Note_off_c, 0, 43, 0
3, 219904, Note_on_c, 0, 43, 100
3, 219968, Note_off_c, 0, 62, 0
3, 219968, Note_on_c, 0, 60, 100
3, 220032, Note_off_c, 0, 60, 0
3, 220032, Note_on_c, 0, 57, 100
3, 220032, Note_off_c, 0, 43, 0
3, 220032, Note_on_c, 0, 43, 100
3, 220096, Note_off_c, 0, 57, 0
3, 220096, Note_on_c, 0, 60, 100
3, 220160, Note_off_c, 0, 60, 0
3, 220160, Note_on_c, 0, 62, 100
3, 220160, Note_off_c, 0, 43, 0
3, 220160, Note_on_c, 0, 43, 100
3, 220224, Note_off_c, 0, 62, 0
3, 220224, Note_on_c, 0, 59, 100
3, 220288, Note_off_c, 0, 59, 0
3, 220288, Note_on_c, 0, 55, 100
3, 220288, Note_off_c, 0, 43, 0
3, 220288, Note_on_c, 0, 43, 100
3, 220352, Note_off_c, 0, 55, 0
3, 220352, Note_on_c, 0, 59, 100
3, 220416, Note_off_c, 0, 59, 0
3, 220416, Note_on_c, 0, 62, 100
3, 220416, Note_off_c, 0, 43, 0
3, 220416, Note_on_c, 0, 43, 100
3, 220480, Note_off_c, 0, 62, 0
3, 220480, Note_on_c, 0, 59, 100
3, 220544, Note_off_c, 0, 59, 0
3, 220544, Note_on_c, 0, 55, 100
3, 220544, Note_off_c, 0, 43, 0
3, 220544, Note_on_c, 0, 43, 100
3, 220608, Note_off_c, 0, 55, 0
3, 220608, Note_on_c, 0, 59, 100
3, 220672, Note_off_c, 0, 59, 0
3, 220672, Note_on_c, 0, 62, 100
3, 220672, Note_off_c, 0, 43, 0
3, 220672, Note_on_c, 0, 43, 100
3, 220736, Note_off_c, 0, 62, 0
3, 220736, Note_on_c, 0, 59, 100
3, 220800, Note_off_c, 0, 59, 0
3, 220800, Note_on_c, 0, 55, 100
3, 220800, Note_off_c, 0, 43, 0
3, 220800, Note_on_c, 0, 43, 100
3, 220864, Note_off_c, 0, 55, 0
3, 220864, Note_on_c, 0, 59, 100
3, 220928, Note_off_c, 0, 59, 0
3, 220928, Note_on_c, 0, 62, 100
3, 220928, Note_off_c, 0, 43, 0
3, 220928, Note_on_c, 0, 43, 100
3, 220992, Note_off_c, 0, 62, 0
3, 220992, Note_on_c, 0, 59, 100
3, 221056, Note_off_c, 0, 59, 0
3, 221056, Note_on_c, 0, 55, 100
3, 221056, Note_off_c, 0, 43, 0
3, 221056, Note_on_c, 0, 43, 100
3, 221120, Note_off_c, 0, 55, 0
3, 221120, Note_on_c, 0, 59, 100
3, 221184, Note_off_c, 0, 59, 0
3, 221184, Note_on_c, 0, 62, 100
3, 221184, Note_off_c, 0, 43, 0
3, 221184, Note_on_c, 0, 43, 100
3, 221248, Note_off_c, 0, 62, 0
3, 221248, Note_on_c, 0, 59, 100
3, 221312, Note_off_c, 0, 59, 0
3, 221312, Note_on_c, 0, 55, 100
3, 221312, Note_off_c, 0, 43, 0
3, 221312, Note_on_c, 0, 43, 100
3, 221376, Note_off_c, 0, 55, 0
3, 221376, Note_on_c, 0, 59, 100
3, 221440, Note_off_c, 0, 59, 0
3, 221440, Note_on_c, 0, 62, 100
3, 221440, Note_off_c, 0, 43, 0
3, 221440, Note_on_c, 0, 43, 100
3, 221504, Note_off_c, 0, 62, 0
3, 221504, Note_on_c, 0, 59, 100
3, 221568, Note_off_c, 0, 59, 0
3, 221568, Note_on_c, 0, 55, 100
3, 221568, Note_off_c, 0, 43, 0
3, 221568, Note_on_c, 0, 43, 100
3, 221632, Note_off_c, 0, 55, 0
3, 221632, Note_on_c, 0, 59, 100
3, 221696, Note_off_c, 0, 59, 0
3, 221696, Note_on_c, 0, 62, 100
3, 221696, Note_off_c, 0, 43, 0
3, 221696, Note_on_c, 0, 43, 100
3, 221760, Note_off_c, 0, 62, 0
3, 221760, Note_on_c, 0, 59, 100
3, 221824, Note_off_c, 0, 59, 0
3, 221824, Note_on_c, 0, 55, 100
3, 221824, Note_off_c, 0, 43, 0
3, 221824, Note_on_c, 0, 43, 100
3, 221888, Note_off_c, 0, 55, 0
3, 221888, Note_on_c, 0, 59, 100
3, 221952, Note_off_c, 0, 59, 0
3, 221952, Note_on_c, 0, 62, 100
3, 221952, Note_off_c, 0, 43, 0
3, 221952, Note_on_c, 0, 43, 100
3, 222016, Note_off_c, 0, 62, 0
3, 222016, Note_on_c, 0, 60, 100
3, 222080, Note_off_c, 0, 60, 0
3, 222080, Note_on_c, 0, 57, 100
3, 222080, Note_off_c, 0, 43, 0
3, 222080, Note_on_c, 0, 43, 100
3, 222144, Note_off_c, 0, 57, 0
3, 222144, Note_on_c, 0, 60, 100
3, 222208, Note_off_c, 0, 60, 0
3, 222208, Note_on_c, 0, 55, 100
3, 222208, Note_on_c, 0, 59, 100
3, 222208, Note_on_c, 0, 62, 100
3, 222208, Note_off_c, 0, 43, 0
3, 222208, Note_on_c, 0, 43, 100
3, 222336, Note_off_c, 0, 55, 0
3, 222336, Note_off_c, 0, 59, 0
3, 222336, Note_off_c, 0, 62, 0
3, 222336, Note_on_c, 0, 59, 100
3, 222336, Note_off_c, 0, 43, 0
3, 222336, Note_on_c, 0, 47, 100
3, 222464, Note_off_c, 0, 59, 0
3, 222464, Note_on_c, 0, 62, 100
3, 222464, Note_off_c, 0, 47, 0
3, 222464, Note_on_c, 0, 50, 100
3, 222592, Note_off_c, 0, 62, 0
3, 222592, Note_on_c, 0, 67, 100
3, 222592, Note_off_c, 0, 50, 0
3, 222592, Note_on_c, 0, 55, 100
3, 222720, Note_off_c, 0, 67, 0
3, 222720, Note_on_c, 0, 62, 100
3, 222720, Note_on_c, 0, 71, 100
3, 222720, Note_off_c, 0, 55, 0
3, 222720, Note_on_c, 0, 59, 100
3, 222848, Note_off_c, 0, 62, 0
3, 222848, Note_off_c, 0, 71, 0
3, 222848, Note_on_c, 0, 67, 100
3, 222848, Note_off_c, 0, 59, 0
3, 222848, Note_on_c, 0, 55, 100
3, 222976, Note_off_c, 0, 67, 0
3, 222976, Note_on_c, 0, 74, 100
3, 222976, Note_off_c, 0, 55, 0
3, 222976, Note_on_c, 0, 62, 100
3, 223104, Note_off_c, 0, 74, 0
3, 223104, Note_on_c, 0, 71, 100
3, 223104, Note_off_c, 0, 62, 0
3, 223104, Note_on_c, 0, 59, 100
3, 223232, Note_off_c, 0, 71, 0
3, 223232, Note_on_c, 0, 59, 100
3, 223232, Note_on_c, 0, 67, 100
3, 223232, Note_off_c, 0, 59, 0
3, 223232, Note_on_c, 0, 55, 100
3, 223232, Note_on_c, 0, 59, 100
3, 223488, Note_off_c, 0, 59, 0
3, 223488, Note_off_c, 0, 67, 0
3, 223488, Note_on_c, 0, 55, 100
3, 223488, Note_on_c, 0, 67, 100
3, 223488, Note_off_c, 0, 55, 0
3, 223488, Note_off_c, 0, 59, 0
3, 223488, Note_on_c, 0, 43, 100
3, 223680, Note_off_c, 0, 55, 0
3, 223680, Note_off_c, 0, 67, 0
3, 223680, Note_on_c, 0, 55, 100
3, 223680, Note_on_c, 0, 67, 100
3, 223680, Note_off_c, 0, 43, 0
3, 223680, Note_on_c, 0, 43, 100
3, 223744, Note_off_c, 0, 55, 0
3, 223744, Note_off_c, 0, 67, 0
3, 223744, Note_on_c, 0, 55, 100
3, 223744, Note_on_c, 0, 67, 100
3, 223744, Note_off_c, 0, 43, 0
3, 223744, Note_on_c, 0, 43, 100
3, 224000, Note_off_c, 0, 55, 0
3, 224000, Note_off_c, 0, 67, 0
3, 224000, Note_off_c, 0, 43, 0
3, 224001, End_track
0, 0, End_of_file
